<svg width="451" height="79" viewBox="0 0 451 79" fill="none" xmlns="http://www.w3.org/2000/svg">
<path d="M0.0976562 35.36C0.0976562 19.8114 0.0976562 12.037 4.41396 6.81951C5.16781 5.90827 6.00592 5.07015 6.91717 4.3163C12.1347 0 19.909 0 35.4577 0H42.7377C58.2863 0 66.0606 0 71.2781 4.3163C72.1894 5.07015 73.0275 5.90827 73.7814 6.81951C78.0977 12.037 78.0977 19.8114 78.0977 35.36V42.64C78.0977 58.1886 78.0977 65.963 73.7814 71.1805C73.0275 72.0917 72.1894 72.9298 71.2781 73.6837C66.0606 78 58.2863 78 42.7377 78H35.4577C19.909 78 12.1347 78 6.91717 73.6837C6.00592 72.9298 5.16781 72.0917 4.41396 71.1805C0.0976562 65.963 0.0976562 58.1886 0.0976562 42.64V35.36Z" fill="#FF4D00"/>
<path d="M24.1186 22.5197H13.0896L24.0691 37.9801L7.76758 55.4857H18.7965L35.0981 37.9801L24.1186 22.5197ZM41.5527 22.5197H30.5238L41.5032 37.9801L25.2017 55.4857H36.2307L52.5322 37.9801L41.5527 22.5197ZM59.4377 22.5197H48.4087L59.3882 37.9801L43.0867 55.4857H54.1156L70.4172 37.9801L59.4377 22.5197Z" fill="#FCFCFC"/>
<path d="M136.1 18.128L112.442 43.6557L117.403 18.128H105.242L97 60.4643H109.202L132.871 35.0415L127.91 60.4643H140.071L148.313 18.128H136.1Z" fill="#222222"/>
<path d="M185.991 18.128L182.889 33.9666H164.918L168.02 18.128H155.859L147.617 60.4643H159.779L162.882 44.5507H180.853L177.75 60.4643H189.907L198.148 18.128H185.991Z" fill="#222222"/>
<path d="M220.151 50.3552C214.88 50.3552 211.945 46.2855 211.945 40.781C211.945 33.9666 215.956 28.2221 222.725 28.2221C227.58 28.2221 229.616 31.2718 230.154 32.4117H242.494C242.133 27.5672 238 17.3381 222.725 17.3381C209.548 17.3381 199.544 27.5072 199.544 41.3809C199.544 53.0449 207.512 61.2392 220.151 61.2392C233.988 61.2392 239.376 50.2952 240.336 46.4655H228.057C227.336 47.4804 225.061 50.3552 220.151 50.3552Z" fill="#222222"/>
<path d="M276.415 18.128H263.034L237.67 60.4643H250.608L254.112 54.4198H272.626L274.048 60.4643H286.565L276.415 18.128ZM259.866 44.4907L267.295 31.5718L270.346 44.4907H259.866Z" fill="#222222"/>
<path d="M328.51 18.128L304.851 43.6557L309.807 18.128H297.651L289.409 60.4643H301.606L325.28 35.0415L320.319 60.4643H332.475L340.717 18.128H328.51ZM323.183 4.2392L323.122 4.53917C322.822 6.03404 322.162 7.28893 320.248 7.28893C318.333 7.28893 317.673 6.09403 317.973 4.53917L318.029 4.2392H309.223L309.107 4.89914C308.086 10.3987 311.321 15.2432 319.948 15.2432C327.555 15.2432 330.85 10.3387 331.866 4.89914L331.988 4.2392H323.183Z" fill="#222222"/>
<path d="M345.333 18.128L343.312 28.5221H358.525L352.305 60.4643H364.406L370.626 28.5221H385.84L387.922 18.128H345.333Z" fill="#222222"/>
<path d="M412.438 30.4969H402.257L404.633 18.128H392.476L384.235 60.4643H411.326C422 59.8793 429.15 54.3648 429.15 43.4158C429.15 35.9364 423.579 30.4969 412.438 30.4969ZM409.802 49.9952H398.423L400.159 41.021H411.539C414.713 41.021 416.272 42.3409 416.272 44.7907C416.272 48.2004 413.758 49.9952 409.802 49.9952ZM438.838 18.128L430.597 60.4643H442.758L451 18.128H438.838Z" fill="#222222"/>
</svg>
