<svg width="140" height="35" viewBox="0 0 140 35" fill="none" xmlns="http://www.w3.org/2000/svg">
<path d="M0 34.9424L15.3537 0.0524136H21.2822L36.6383 34.9424H28.5363L25.678 28.4466H10.8531L7.99482 34.9424H0ZM18.318 11.4727L13.765 21.8972H22.9245L18.318 11.4727ZM66.0201 0.0524136L50.2961 34.9424H44.8427L28.2719 0.0524136H36.9015L47.6486 23.1027L57.6549 0.0524136H66.0201ZM57.5501 34.9424L72.9015 0.0524136H78.8323L94.186 34.9424H86.1376L83.2793 28.4466H68.402L65.5438 34.9424H57.5501ZM75.8133 11.4727L71.2615 21.8972H80.4211L75.8133 11.4727ZM101.597 0.786204L101.333 1.99055L101.174 2.04296C100.645 1.72848 100.168 1.46642 99.7442 1.36159C99.3214 1.25676 98.845 1.15193 98.3686 1.15193C95.9856 1.15193 94.8208 2.61951 94.8208 5.5011C94.8208 6.9151 95.0852 7.91096 95.6676 8.59117C96.1975 9.22013 97.0979 9.58702 98.2091 9.58702C98.527 9.58702 98.845 9.53461 99.1094 9.4822C99.4274 9.42978 99.7966 9.32496 100.327 9.16772L100.38 7.96337V6.39096L101.597 6.28613L101.545 7.75371L101.597 10.0063C100.91 10.216 100.274 10.3732 99.6918 10.4781C99.1618 10.5829 98.6319 10.6341 98.1031 10.6341C96.5679 10.6341 95.3508 10.2148 94.6088 9.32496C93.8145 8.43393 93.4441 7.17717 93.4441 5.55351C93.4441 3.77145 93.868 2.40986 94.7684 1.46642C95.6676 0.524136 96.8859 0.0524136 98.5259 0.0524136C99.637 0.0524136 100.645 0.314481 101.597 0.786204ZM111.021 10.2148V10.3732C110.632 10.533 110.222 10.6389 109.804 10.6877L109.645 10.5829C108.786 9.33132 107.991 8.03719 107.263 6.70544H105.357V10.5293H104.033L104.139 7.38682L104.034 0.157241H107.263C108.269 0.157241 109.062 0.419309 109.645 0.943444C110.227 1.46758 110.492 2.20021 110.492 3.14365C110.492 3.87744 110.28 4.5064 109.91 5.08179C109.539 5.65834 109.01 6.07648 108.321 6.39096C109.062 7.49165 109.964 8.80082 111.021 10.2148ZM105.305 5.55467L107.264 5.60709C108.481 5.24019 109.116 4.45399 109.116 3.19606C109.116 2.51585 108.957 2.04413 108.587 1.72965C108.217 1.41517 107.687 1.20551 106.946 1.20551L105.357 1.25793L105.305 5.55467ZM119.969 1.36275C120.763 2.25262 121.134 3.50938 121.134 5.1342C121.134 6.9151 120.71 8.27669 119.916 9.22013C119.122 10.1636 117.904 10.6341 116.422 10.6341C114.992 10.6341 113.933 10.1636 113.139 9.27254C112.346 8.38151 111.974 7.07234 111.974 5.39627C111.974 3.66662 112.398 2.35745 113.192 1.414C113.987 0.470557 115.151 0 116.687 0C118.116 0.0524136 119.228 0.471722 119.969 1.36275ZM113.298 5.29144C113.298 6.75902 113.563 7.85854 114.092 8.59117C114.621 9.32496 115.416 9.63944 116.475 9.63944C118.646 9.63944 119.757 8.22427 119.757 5.39627C119.757 3.92869 119.492 2.88042 118.963 2.14779C118.434 1.46642 117.639 1.09952 116.581 1.09952C114.41 1.09952 113.298 2.51469 113.298 5.29144ZM130.664 5.44868V6.60178C130.664 7.85854 130.346 8.85323 129.657 9.58702C128.969 10.3208 127.964 10.6353 126.693 10.6353C125.475 10.6353 124.522 10.3208 123.833 9.63944C123.199 8.95806 122.881 8.01578 122.881 6.75786V0.157241H124.151L124.098 6.60062C124.098 7.59647 124.31 8.3291 124.734 8.80199C125.158 9.27254 125.845 9.53461 126.745 9.53461C127.646 9.53461 128.28 9.32496 128.757 8.85323C129.234 8.38151 129.445 7.70014 129.445 6.75786L129.393 0.157241H130.716L130.664 5.44868ZM138.923 0.943444C139.505 1.46758 139.77 2.20137 139.77 3.19606C139.77 4.34916 139.399 5.23903 138.711 5.91924C138.022 6.60062 137.07 6.9151 135.851 6.9151H134.634V7.33441L134.687 10.5817H133.363L133.469 7.43923L133.363 0.209654H136.593C137.598 0.157241 138.393 0.419309 138.923 0.943444ZM137.916 5.02937C138.287 4.61006 138.446 4.03352 138.446 3.30089C138.446 1.93814 137.704 1.25676 136.275 1.20435L134.687 1.25676L134.634 5.81558L136.328 5.86683C137.016 5.71075 137.546 5.44868 137.916 5.02937Z" fill="white"/>
</svg>
