<svg width="156" height="29" viewBox="0 0 156 29" fill="none" xmlns="http://www.w3.org/2000/svg">
<path d="M142.36 28.2388H150.751L134.71 13.6827L134.393 15.5022L155.264 0.618633H147.155L131.466 15.7569L142.36 28.2388ZM108.304 28.2388H116.096L134.252 10.7351L124.381 0.655023H116.272L130.973 12.591V10.8807L108.304 28.2388ZM97.9039 28.8574C102.205 28.8574 106.33 25.9462 107.317 20.6332H107.423V28.2388H111.618V8.1514H107.423V15.4294H107.317C106.365 10.0437 102.24 7.53277 98.0096 7.53277C92.5098 7.53277 88.1734 11.7904 88.1734 18.0859C88.1734 24.345 92.5098 28.8574 97.9039 28.8574ZM99.1378 24.1995C94.8366 24.1995 92.1925 21.5066 92.1925 18.0859C92.1925 14.6652 94.8366 12.2635 99.1378 12.2635C103.897 12.2635 107.282 15.1383 107.282 18.0131C107.282 20.9243 103.933 24.1995 99.1378 24.1995ZM71.8149 28.2388H76.0103V18.5226C76.0103 15.0655 80.6993 11.2446 86.8338 12.6638V7.53277C80.3468 7.13247 77.209 11.8268 76.1514 16.1572H76.0456V8.1514H71.8503V28.2388H71.8149ZM56.0206 24.1267C51.2612 24.1267 48.617 21.4702 48.617 18.0495C48.617 14.6288 51.2612 12.2635 56.0206 12.2635C60.7448 12.2635 63.4947 14.6288 63.4947 18.0495C63.4947 21.5066 60.7448 24.1267 56.0206 24.1267ZM56.0206 28.8574C62.7191 28.8574 67.5138 24.2722 67.5138 18.0495C67.5138 11.754 62.6838 7.53277 56.0206 7.53277C49.3221 7.53277 44.5979 11.754 44.5979 18.0495C44.5979 24.3086 49.3221 28.8574 56.0206 28.8574ZM36.1013 28.2752H40.2967V0.618633H36.1013V28.2752ZM16.5347 28.8574C22.9864 28.8574 27.6048 26.3829 30.3901 24.3086V13.5371H16.4642V18.6682H29.967V18.9957C28.5568 20.8152 24.0793 23.5808 17.1693 23.5808C10.1535 23.5444 4.58319 20.706 4.58319 14.5925C4.58319 8.29696 10.5413 5.31296 16.5347 5.31296C22.5281 5.31296 25.5953 8.26057 26.653 11.6449L31.1657 10.1165C29.3676 3.3479 23.339 0 16.4642 0C8.63754 0 0 4.4396 0 14.5561C0 23.7628 7.33309 28.8574 16.5347 28.8574Z" fill="white"/>
</svg>
