<svg width="831" height="54" viewBox="0 0 831 54" fill="none" xmlns="http://www.w3.org/2000/svg">
<path fill-rule="evenodd" clip-rule="evenodd" d="M25.3752 53.5247C11.3619 53.5247 0 41.7621 0 27.2443C0 12.7315 11.3619 0.968872 25.3752 0.968872H171.275V22.6095H28.5458C26.7948 22.6095 25.3752 24.687 25.3752 27.2443C25.3752 29.8066 26.7948 31.8841 28.5458 31.8841H171.275V53.5247H25.3752ZM402.812 27.2443C402.812 41.7621 391.45 53.5247 377.437 53.5247H263.254V31.8841H374.267C376.018 31.8841 377.437 29.8066 377.437 27.2443C377.437 24.687 376.018 22.6095 374.272 22.6095H253.737V53.5247H231.532V0.968872H377.432C391.446 0.968872 402.807 12.7315 402.807 27.2492L402.812 27.2443ZM434.529 53.5247C420.516 53.5247 409.154 41.7621 409.154 27.2443C409.154 12.7315 420.516 0.968872 434.529 0.968872H580.434V53.5247H558.229V22.6095H437.7C435.949 22.6095 434.534 24.687 434.534 27.2443C434.534 29.8066 435.949 31.8841 437.7 31.8841H548.712V53.5247H434.529ZM659.725 27.2443C659.725 41.7621 671.087 53.5247 685.1 53.5247H799.284V31.8841H688.271C686.52 31.8841 685.1 29.8066 685.1 27.2443C685.1 24.687 686.52 22.6095 688.271 22.6095H808.796V53.5247H831V0.968872H685.1C671.087 0.968872 659.725 12.7315 659.725 27.2492V27.2443ZM212.508 22.6095H225.196V0.968872H177.616V22.6095H190.304V53.5247H212.508V22.6095ZM612.15 53.5247V38.0671H631.179V53.5247H653.384V0.968872H631.179V16.4265H612.15V0.968872H589.946V53.5247H612.15Z" fill="url(#paint0_linear_1_42)"/>
<defs>
<linearGradient id="paint0_linear_1_42" x1="0" y1="25.701" x2="831" y2="25.701" gradientUnits="userSpaceOnUse">
<stop stop-color="#94268F"/>
<stop offset="0.5" stop-color="#CF1875"/>
<stop offset="1" stop-color="#EB1C2A"/>
</linearGradient>
</defs>
</svg>
