<svg width="860" height="379" viewBox="0 0 860 379" fill="none" xmlns="http://www.w3.org/2000/svg">
<rect width="860" height="377.912" transform="translate(0 0.979248)" fill="#F1F1F1"/>
<path d="M755.897 83.5775C763.209 83.5775 769.954 84.8382 776.131 87.3596C782.309 89.755 787.603 93.2219 792.016 97.7604C796.428 102.173 799.832 107.594 802.228 114.024C804.749 120.327 806.01 127.387 806.01 135.203V137.851H729.989C730.241 141.633 731.061 145.1 732.448 148.252C733.961 151.403 735.915 154.177 738.31 156.572C740.705 158.968 743.542 160.859 746.82 162.245C750.098 163.506 753.754 164.137 757.788 164.137C761.57 164.137 764.848 163.758 767.621 163.002C770.395 162.119 772.664 161.111 774.429 159.976C776.32 158.842 777.77 157.707 778.779 156.572C779.913 155.312 780.67 154.366 781.048 153.736H804.875C804.497 156.257 803.362 159.283 801.471 162.813C799.58 166.217 796.744 169.495 792.961 172.646C789.179 175.798 784.389 178.509 778.589 180.778C772.79 183.047 765.856 184.182 757.788 184.182C749.971 184.182 742.848 182.921 736.419 180.4C730.115 177.878 724.694 174.348 720.156 169.81C715.617 165.271 712.087 159.976 709.566 153.925C707.044 147.747 705.784 141.066 705.784 133.88C705.784 126.441 706.981 119.634 709.377 113.456C711.898 107.279 715.365 101.984 719.778 97.5713C724.316 93.1589 729.611 89.755 735.662 87.3596C741.84 84.8382 748.585 83.5775 755.897 83.5775ZM755.897 102.299C749.341 102.299 743.857 104.001 739.445 107.405C735.158 110.683 732.259 115.284 730.746 121.21H780.67C778.905 115.158 775.879 110.494 771.592 107.216C767.306 103.938 762.074 102.299 755.897 102.299Z" fill="#3E3E3E"/>
<path d="M618.031 181.723H594.015V86.0358H618.031V102.11C618.914 100.471 620.238 98.5799 622.003 96.4367C623.894 94.2935 626.163 92.3394 628.811 90.5744C631.458 88.6833 634.484 87.1075 637.888 85.8467C641.418 84.586 645.389 83.9557 649.801 83.9557C655.853 83.9557 661.274 85.0273 666.064 87.1705C670.981 89.1876 675.204 92.0872 678.734 95.8693C682.264 99.5254 684.975 103.938 686.866 109.107C688.757 114.276 689.703 119.886 689.703 125.937V181.723H665.308V130.665C665.308 123.101 663.228 117.049 659.067 112.511C654.907 107.846 649.234 105.514 642.048 105.514C634.736 105.514 628.874 107.846 624.461 112.511C620.175 117.175 618.031 123.227 618.031 130.665V181.723Z" fill="#3E3E3E"/>
<path d="M527.256 83.5775C534.568 83.5775 541.313 84.8382 547.491 87.3596C553.668 89.755 558.963 93.2219 563.375 97.7604C567.788 102.173 571.192 107.594 573.587 114.024C576.109 120.327 577.369 127.387 577.369 135.203V137.851H501.349C501.601 141.633 502.42 145.1 503.807 148.252C505.32 151.403 507.274 154.177 509.669 156.572C512.065 158.968 514.901 160.859 518.179 162.245C521.457 163.506 525.113 164.137 529.147 164.137C532.929 164.137 536.207 163.758 538.981 163.002C541.754 162.119 544.024 161.111 545.789 159.976C547.68 158.842 549.129 157.707 550.138 156.572C551.273 155.312 552.029 154.366 552.407 153.736H576.235C575.856 156.257 574.722 159.283 572.831 162.813C570.94 166.217 568.103 169.495 564.321 172.646C560.539 175.798 555.748 178.509 549.949 180.778C544.15 183.047 537.216 184.182 529.147 184.182C521.331 184.182 514.208 182.921 507.778 180.4C501.475 177.878 496.054 174.348 491.515 169.81C486.977 165.271 483.447 159.976 480.925 153.925C478.404 147.747 477.143 141.066 477.143 133.88C477.143 126.441 478.341 119.634 480.736 113.456C483.258 107.279 486.725 101.984 491.137 97.5713C495.676 93.1589 500.971 89.755 507.022 87.3596C513.199 84.8382 519.944 83.5775 527.256 83.5775ZM527.256 102.299C520.701 102.299 515.217 104.001 510.804 107.405C506.518 110.683 503.618 115.284 502.105 121.21H552.029C550.264 115.158 547.238 110.494 542.952 107.216C538.666 103.938 533.434 102.299 527.256 102.299Z" fill="#3E3E3E"/>
<path d="M417.092 181.723H393.075V86.0357H417.092V102.11C417.722 100.723 418.668 99.084 419.928 97.1929C421.315 95.3019 423.206 93.4739 425.602 91.7089C427.997 89.9439 431.023 88.4941 434.679 87.3594C438.335 86.0987 442.81 85.4684 448.105 85.4684H470.42V109.485H444.89C434.679 109.485 427.493 111.25 423.332 114.78C419.172 118.31 417.092 123.857 417.092 131.421V181.723Z" fill="#3E3E3E"/>
<path d="M323.365 222.003H299.159L317.313 180.021L274.197 86.0358H301.429L329.605 151.088L357.782 86.0358H382.366L323.365 222.003Z" fill="#3E3E3E"/>
<path d="M270.359 181.723H243.884C232.538 181.723 224.154 179.076 218.733 173.781C213.438 168.486 210.791 160.733 210.791 150.521V106.648H184.505V86.0359H210.791V47.4584H234.996V86.0359H270.359V106.648H234.996V143.146C234.996 149.197 236.194 153.547 238.589 156.194C240.985 158.842 245.46 160.165 252.016 160.165H270.359V181.723Z" fill="#3E3E3E"/>
<path d="M112.055 66.5581C102.852 66.5581 95.8554 68.0079 91.0647 70.9075C86.4001 73.8071 84.0678 77.7153 84.0678 82.632C84.0678 87.1706 85.9589 90.7636 89.741 93.4111C93.5231 96.0585 98.9441 97.8235 106.004 98.706C110.164 99.0842 114.01 99.4625 117.54 99.8407C121.069 100.219 125.104 100.66 129.642 101.164C136.324 101.795 142.565 102.992 148.364 104.757C154.163 106.522 159.143 109.044 163.303 112.322C167.589 115.473 170.93 119.508 173.326 124.424C175.847 129.341 177.108 135.33 177.108 142.389C177.108 148.441 175.91 154.051 173.515 159.22C171.119 164.263 167.526 168.675 162.736 172.457C158.071 176.113 152.146 179.013 144.96 181.156C137.774 183.173 129.453 184.182 119.998 184.182C109.03 184.182 99.6375 182.921 91.8211 180.4C84.1308 177.878 77.7012 174.663 72.5324 170.755C67.3635 166.721 63.2662 162.246 60.2405 157.329C57.3409 152.412 55.2607 147.558 54 142.768H81.0421C81.9246 144.911 83.3114 147.18 85.2024 149.575C87.0935 151.845 89.5519 153.988 92.5776 156.005C95.7293 157.896 99.5114 159.472 103.924 160.733C108.462 161.993 113.82 162.624 119.998 162.624C130.21 162.624 137.963 160.922 143.258 157.518C148.553 153.988 151.2 149.512 151.2 144.091C151.2 137.662 149.057 133.186 144.771 130.665C140.484 128.017 134.874 126.252 127.94 125.37L104.113 122.912C97.4313 122.281 91.2538 121.02 85.5807 119.129C80.0336 117.112 75.2429 114.465 71.2086 111.187C67.1744 107.909 64.0226 104.001 61.7533 99.4624C59.4841 94.7978 58.3494 89.4398 58.3494 83.3885C58.3494 77.3371 59.6101 71.9791 62.1315 67.3145C64.779 62.5238 68.4351 58.4895 73.0997 55.2117C77.8904 51.9339 83.5635 49.4125 90.1192 47.6475C96.8009 45.8825 104.113 45 112.055 45C122.645 45 131.596 46.1346 138.908 48.4039C146.347 50.6732 152.461 53.6358 157.252 57.2919C162.042 60.8218 165.761 64.7931 168.409 69.2055C171.056 73.618 172.884 77.9674 173.893 82.2538H147.986C146.977 80.6149 145.59 78.8499 143.825 76.9589C142.06 75.0678 139.728 73.3659 136.828 71.853C133.929 70.3402 130.399 69.0795 126.238 68.0709C122.204 67.0623 117.476 66.5581 112.055 66.5581Z" fill="#3E3E3E"/>
<path d="M219.298 321.657H221.813V325.478H223.437C223.568 324.871 223.786 324.316 224.09 323.815C224.407 323.313 224.789 322.884 225.238 322.528C225.687 322.171 226.195 321.894 226.763 321.696C227.33 321.498 227.944 321.399 228.604 321.399C229.356 321.399 230.056 321.531 230.703 321.795C231.35 322.059 231.904 322.429 232.366 322.904C232.841 323.366 233.211 323.92 233.475 324.567C233.752 325.201 233.89 325.9 233.89 326.666C233.89 327.431 233.752 328.138 233.475 328.784C233.211 329.418 232.841 329.972 232.366 330.448C231.904 330.91 231.35 331.273 230.703 331.536C230.056 331.8 229.356 331.932 228.604 331.932C227.931 331.932 227.297 331.827 226.703 331.616C226.123 331.405 225.601 331.114 225.139 330.745C224.69 330.362 224.314 329.906 224.011 329.378C223.707 328.85 223.502 328.27 223.397 327.636H221.813V331.675H219.298V321.657ZM228.604 329.695C229.013 329.695 229.383 329.616 229.713 329.458C230.056 329.299 230.346 329.088 230.584 328.824C230.822 328.547 231.006 328.223 231.138 327.854C231.27 327.484 231.336 327.088 231.336 326.666C231.336 326.244 231.27 325.848 231.138 325.478C231.006 325.108 230.822 324.792 230.584 324.528C230.346 324.25 230.056 324.033 229.713 323.874C229.383 323.716 229.013 323.637 228.604 323.637C228.195 323.637 227.819 323.716 227.476 323.874C227.146 324.033 226.862 324.25 226.624 324.528C226.387 324.792 226.202 325.108 226.07 325.478C225.938 325.848 225.872 326.244 225.872 326.666C225.872 327.088 225.938 327.484 226.07 327.854C226.202 328.223 226.387 328.547 226.624 328.824C226.862 329.088 227.146 329.299 227.476 329.458C227.819 329.616 228.195 329.695 228.604 329.695Z" fill="#3E3E3E"/>
<path d="M214.349 330.091C214.296 330.197 214.191 330.349 214.032 330.547C213.887 330.745 213.676 330.943 213.399 331.141C213.135 331.339 212.798 331.517 212.389 331.675C211.993 331.82 211.518 331.893 210.964 331.893C210.317 331.893 209.71 331.774 209.142 331.537C208.574 331.299 208.073 330.956 207.637 330.507C207.215 330.058 206.878 329.51 206.628 328.864C206.377 328.217 206.251 327.484 206.251 326.666C206.251 325.861 206.377 325.135 206.628 324.488C206.878 323.841 207.215 323.293 207.637 322.845C208.073 322.383 208.574 322.033 209.142 321.795C209.723 321.558 210.337 321.439 210.983 321.439C211.511 321.439 211.973 321.512 212.369 321.657C212.765 321.789 213.095 321.954 213.359 322.152C213.636 322.337 213.854 322.528 214.013 322.726C214.171 322.911 214.277 323.056 214.329 323.161V321.657H216.864V331.675H214.349V330.091ZM214.369 326.666C214.369 326.244 214.303 325.848 214.171 325.478C214.039 325.108 213.854 324.792 213.617 324.528C213.379 324.25 213.089 324.039 212.745 323.894C212.416 323.736 212.046 323.656 211.637 323.656C211.214 323.656 210.825 323.736 210.469 323.894C210.125 324.039 209.828 324.25 209.578 324.528C209.34 324.792 209.155 325.108 209.023 325.478C208.891 325.848 208.825 326.244 208.825 326.666C208.825 327.088 208.891 327.484 209.023 327.854C209.155 328.223 209.34 328.547 209.578 328.824C209.828 329.088 210.125 329.299 210.469 329.458C210.825 329.603 211.214 329.675 211.637 329.675C212.046 329.675 212.416 329.603 212.745 329.458C213.089 329.299 213.379 329.088 213.617 328.824C213.854 328.547 214.039 328.223 214.171 327.854C214.303 327.484 214.369 327.088 214.369 326.666Z" fill="#3E3E3E"/>
<path d="M201.9 328.131C201.676 328.171 201.432 328.21 201.168 328.25C200.943 328.276 200.666 328.303 200.336 328.329C200.019 328.342 199.67 328.349 199.287 328.349C197.848 328.349 196.753 328.045 196 327.438C195.248 326.831 194.872 325.795 194.872 324.33V321.657H197.386V324.191C197.386 324.877 197.525 325.386 197.802 325.716C198.092 326.046 198.647 326.211 199.465 326.211C199.835 326.211 200.165 326.204 200.455 326.191C200.745 326.178 201.003 326.158 201.227 326.131C201.465 326.105 201.689 326.072 201.9 326.032V321.657H204.415V331.675H201.9V328.131Z" fill="#3E3E3E"/>
<path d="M183.827 321.399C184.592 321.399 185.298 321.531 185.945 321.795C186.592 322.046 187.146 322.409 187.608 322.884C188.07 323.346 188.427 323.914 188.678 324.587C188.942 325.247 189.074 325.986 189.074 326.804V327.082H181.114C181.141 327.478 181.226 327.841 181.372 328.171C181.53 328.501 181.735 328.791 181.985 329.042C182.236 329.293 182.533 329.491 182.876 329.636C183.22 329.768 183.602 329.834 184.025 329.834C184.421 329.834 184.764 329.794 185.054 329.715C185.345 329.623 185.582 329.517 185.767 329.398C185.965 329.279 186.117 329.161 186.222 329.042C186.341 328.91 186.42 328.811 186.46 328.745H188.955C188.915 329.009 188.796 329.326 188.598 329.695C188.4 330.052 188.103 330.395 187.707 330.725C187.311 331.055 186.81 331.339 186.203 331.576C185.595 331.814 184.87 331.932 184.025 331.932C183.206 331.932 182.461 331.8 181.787 331.536C181.127 331.273 180.56 330.903 180.085 330.428C179.61 329.953 179.24 329.398 178.976 328.765C178.712 328.118 178.58 327.418 178.58 326.666C178.58 325.887 178.705 325.174 178.956 324.528C179.22 323.881 179.583 323.326 180.045 322.864C180.52 322.402 181.075 322.046 181.708 321.795C182.355 321.531 183.061 321.399 183.827 321.399ZM183.827 323.359C183.14 323.359 182.566 323.538 182.104 323.894C181.655 324.237 181.352 324.719 181.193 325.339H186.42C186.236 324.706 185.919 324.217 185.47 323.874C185.021 323.531 184.474 323.359 183.827 323.359Z" fill="#3E3E3E"/>
<path d="M168.811 327.28L164.633 331.675H161.406L166.316 326.527L161.604 321.657H164.831L168.811 325.795V321.657H171.227V325.775L175.186 321.657H178.394L173.741 326.468L178.691 331.675H175.384L171.227 327.3V331.675H168.811V327.28Z" fill="#3E3E3E"/>
<path d="M146.226 321.657H148.721V328.369L153.75 321.657H156.265V331.675H153.75V324.944L148.721 331.675H146.226V321.657ZM151.275 318.449C151.658 318.449 151.935 318.324 152.107 318.073C152.278 317.822 152.364 317.545 152.364 317.242V316.905H154.364V317.281C154.364 317.704 154.298 318.1 154.166 318.469C154.047 318.839 153.862 319.162 153.611 319.439C153.361 319.703 153.037 319.915 152.641 320.073C152.259 320.231 151.803 320.31 151.275 320.31C150.747 320.31 150.285 320.231 149.889 320.073C149.506 319.915 149.19 319.703 148.939 319.439C148.688 319.162 148.497 318.839 148.365 318.469C148.246 318.1 148.186 317.704 148.186 317.281V316.905H150.186V317.242C150.186 317.545 150.272 317.822 150.444 318.073C150.615 318.324 150.892 318.449 151.275 318.449Z" fill="#3E3E3E"/>
<path d="M139.237 321.399C140.002 321.399 140.708 321.531 141.355 321.795C142.002 322.046 142.556 322.409 143.018 322.884C143.48 323.346 143.837 323.914 144.088 324.587C144.352 325.247 144.484 325.986 144.484 326.804V327.082H136.524C136.551 327.478 136.636 327.841 136.782 328.171C136.94 328.501 137.145 328.791 137.395 329.042C137.646 329.293 137.943 329.491 138.286 329.636C138.63 329.768 139.012 329.834 139.435 329.834C139.831 329.834 140.174 329.794 140.464 329.715C140.755 329.623 140.992 329.517 141.177 329.398C141.375 329.279 141.527 329.161 141.632 329.042C141.751 328.91 141.83 328.811 141.87 328.745H144.365C144.325 329.009 144.206 329.326 144.008 329.695C143.81 330.052 143.513 330.395 143.117 330.725C142.721 331.055 142.22 331.339 141.613 331.576C141.005 331.814 140.279 331.932 139.435 331.932C138.616 331.932 137.871 331.8 137.197 331.536C136.537 331.273 135.97 330.903 135.495 330.428C135.019 329.953 134.65 329.398 134.386 328.765C134.122 328.118 133.99 327.418 133.99 326.666C133.99 325.887 134.115 325.174 134.366 324.528C134.63 323.881 134.993 323.326 135.455 322.864C135.93 322.402 136.485 322.046 137.118 321.795C137.765 321.531 138.471 321.399 139.237 321.399ZM139.237 323.359C138.55 323.359 137.976 323.538 137.514 323.894C137.065 324.237 136.762 324.719 136.603 325.339H141.83C141.646 324.706 141.329 324.217 140.88 323.874C140.431 323.531 139.884 323.359 139.237 323.359Z" fill="#3E3E3E"/>
<path d="M122.539 321.657H132.162V331.675H129.647V323.815H125.054V331.675H122.539V321.657Z" fill="#3E3E3E"/>
<path d="M112.018 324.765C112.731 324.765 113.338 324.858 113.84 325.042C114.355 325.214 114.77 325.452 115.087 325.755C115.404 326.059 115.635 326.422 115.78 326.844C115.939 327.253 116.018 327.702 116.018 328.19C116.018 328.639 115.939 329.075 115.78 329.497C115.635 329.92 115.404 330.296 115.087 330.626C114.77 330.943 114.361 331.2 113.86 331.398C113.358 331.583 112.751 331.675 112.038 331.675H106.316V321.657H108.831V324.765H112.018ZM108.831 326.824V329.636H111.642C112.843 329.636 113.444 329.154 113.444 328.19C113.444 327.768 113.292 327.438 112.989 327.201C112.685 326.95 112.236 326.824 111.642 326.824H108.831ZM117.523 321.657H120.057V331.675H117.523V321.657Z" fill="#3E3E3E"/>
<path d="M94.7723 321.657H100.593C101.108 321.657 101.577 321.716 101.999 321.835C102.421 321.941 102.784 322.106 103.088 322.33C103.405 322.554 103.649 322.831 103.821 323.161C103.992 323.491 104.078 323.874 104.078 324.31C104.078 324.613 104.032 324.891 103.939 325.141C103.86 325.379 103.748 325.59 103.603 325.775C103.458 325.947 103.293 326.098 103.108 326.23C102.923 326.349 102.738 326.435 102.553 326.488C102.791 326.554 103.015 326.653 103.227 326.785C103.451 326.904 103.642 327.055 103.801 327.24C103.972 327.425 104.111 327.649 104.217 327.913C104.322 328.164 104.375 328.454 104.375 328.784C104.375 329.656 104.045 330.355 103.385 330.883C102.725 331.411 101.808 331.675 100.633 331.675H94.7723V321.657ZM97.2868 323.577V325.676H100.197C100.606 325.676 100.936 325.59 101.187 325.419C101.451 325.247 101.583 324.97 101.583 324.587C101.583 324.257 101.458 324.006 101.207 323.835C100.956 323.663 100.62 323.577 100.197 323.577H97.2868ZM97.2868 327.517V329.755H100.296C101.299 329.755 101.801 329.359 101.801 328.567C101.801 328.263 101.682 328.012 101.445 327.814C101.207 327.616 100.824 327.517 100.296 327.517H97.2868Z" fill="#3E3E3E"/>
<path d="M85.471 330.091C85.4182 330.197 85.3126 330.349 85.1542 330.547C85.009 330.745 84.7978 330.943 84.5207 331.141C84.2567 331.339 83.9201 331.517 83.5109 331.675C83.1149 331.82 82.6397 331.893 82.0854 331.893C81.4386 331.893 80.8314 331.774 80.2638 331.537C79.6962 331.299 79.1947 330.956 78.7591 330.507C78.3367 330.058 78.0001 329.51 77.7493 328.864C77.4985 328.217 77.3731 327.484 77.3731 326.666C77.3731 325.861 77.4985 325.135 77.7493 324.488C78.0001 323.841 78.3367 323.293 78.7591 322.845C79.1947 322.383 79.6962 322.033 80.2638 321.795C80.8446 321.558 81.4584 321.439 82.1052 321.439C82.6331 321.439 83.0951 321.512 83.4911 321.657C83.8871 321.789 84.2171 321.954 84.4811 322.152C84.7583 322.337 84.976 322.528 85.1344 322.726C85.2928 322.911 85.3984 323.056 85.4512 323.161V321.657H87.9855V331.675H85.471V330.091ZM85.4908 326.666C85.4908 326.244 85.4248 325.848 85.2928 325.478C85.1608 325.108 84.976 324.792 84.7385 324.528C84.5009 324.25 84.2105 324.039 83.8673 323.894C83.5373 323.736 83.1677 323.656 82.7585 323.656C82.3361 323.656 81.9468 323.736 81.5904 323.894C81.2472 324.039 80.9502 324.25 80.6994 324.528C80.4618 324.792 80.277 325.108 80.145 325.478C80.013 325.848 79.947 326.244 79.947 326.666C79.947 327.088 80.013 327.484 80.145 327.854C80.277 328.223 80.4618 328.547 80.6994 328.824C80.9502 329.088 81.2472 329.299 81.5904 329.458C81.9468 329.603 82.3361 329.675 82.7585 329.675C83.1677 329.675 83.5373 329.603 83.8673 329.458C84.2105 329.299 84.5009 329.088 84.7385 328.824C84.976 328.547 85.1608 328.223 85.2928 327.854C85.4248 327.484 85.4908 327.088 85.4908 326.666Z" fill="#3E3E3E"/>
<path d="M72.7117 323.815H69.3062L69.128 325.26C69.062 325.815 68.9894 326.31 68.9102 326.745C68.8442 327.181 68.7716 327.57 68.6924 327.913C68.6132 328.243 68.5208 328.54 68.4152 328.804C68.3096 329.068 68.1908 329.306 68.0588 329.517H72.7117V323.815ZM64.5346 334.625V329.517H65.6235C65.7687 329.306 65.9007 329.068 66.0195 328.804C66.1383 328.54 66.2439 328.23 66.3363 327.874C66.4419 327.517 66.5343 327.115 66.6135 326.666C66.7059 326.217 66.7851 325.702 66.8511 325.122L67.2669 321.657H75.2262V329.517H76.9685V334.625H74.7312V331.675H66.7719V334.625H64.5346Z" fill="#3E3E3E"/>
<path d="M262.125 310.71C262.495 310.116 262.832 309.469 263.135 308.769C263.452 308.07 263.624 307.35 263.65 306.611H262.224V303.245H265.254V306.294C265.254 307.179 265.122 308.004 264.858 308.769C264.594 309.535 264.31 310.182 264.006 310.71H262.125Z" fill="#3E3E3E"/>
<path d="M250.739 296.593H253.234V300.81L257.867 296.593H261.173L255.847 301.384L261.431 306.611H258.065L253.234 302.117V306.611H250.739V296.593Z" fill="#3E3E3E"/>
<path d="M243.58 296.335C244.346 296.335 245.052 296.467 245.699 296.731C246.359 296.995 246.926 297.365 247.401 297.84C247.89 298.302 248.272 298.856 248.55 299.503C248.827 300.137 248.965 300.836 248.965 301.602C248.965 302.367 248.827 303.074 248.55 303.72C248.272 304.354 247.89 304.908 247.401 305.384C246.926 305.846 246.359 306.209 245.699 306.473C245.052 306.737 244.346 306.869 243.58 306.869C242.801 306.869 242.082 306.737 241.422 306.473C240.775 306.209 240.208 305.846 239.719 305.384C239.231 304.908 238.848 304.354 238.571 303.72C238.307 303.074 238.175 302.367 238.175 301.602C238.175 300.836 238.307 300.137 238.571 299.503C238.848 298.856 239.231 298.302 239.719 297.84C240.208 297.365 240.775 296.995 241.422 296.731C242.082 296.467 242.801 296.335 243.58 296.335ZM243.58 304.611C244.002 304.611 244.385 304.539 244.728 304.394C245.085 304.235 245.382 304.024 245.619 303.76C245.87 303.483 246.062 303.159 246.194 302.79C246.339 302.42 246.411 302.024 246.411 301.602C246.411 301.18 246.339 300.784 246.194 300.414C246.062 300.044 245.87 299.728 245.619 299.464C245.382 299.186 245.085 298.975 244.728 298.83C244.385 298.672 244.002 298.592 243.58 298.592C243.158 298.592 242.768 298.672 242.412 298.83C242.069 298.988 241.772 299.206 241.521 299.483C241.27 299.747 241.072 300.064 240.927 300.434C240.795 300.79 240.729 301.18 240.729 301.602C240.729 302.024 240.795 302.42 240.927 302.79C241.072 303.146 241.27 303.463 241.521 303.74C241.772 304.004 242.069 304.215 242.412 304.374C242.768 304.532 243.158 304.611 243.58 304.611Z" fill="#3E3E3E"/>
<path d="M228.282 296.593H236.36V306.611H233.846V298.751H230.341L230.005 302.315C229.939 303.067 229.833 303.721 229.688 304.275C229.543 304.829 229.338 305.285 229.074 305.641C228.81 305.998 228.474 306.268 228.064 306.453C227.655 306.625 227.154 306.71 226.56 306.71H225.886V304.414H226.124C226.414 304.414 226.652 304.381 226.837 304.315C227.035 304.235 227.193 304.11 227.312 303.938C227.431 303.754 227.523 303.509 227.589 303.206C227.655 302.902 227.708 302.519 227.748 302.057L228.282 296.593Z" fill="#3E3E3E"/>
<path d="M220.18 310.829H217.645L219.546 306.433L215.032 296.593H217.883L220.833 303.404L223.783 296.593H226.357L220.18 310.829Z" fill="#3E3E3E"/>
<path d="M209.814 296.87C210.54 296.87 211.2 296.989 211.794 297.226C212.401 297.451 212.916 297.781 213.338 298.216C213.774 298.652 214.104 299.18 214.328 299.8C214.566 300.408 214.685 301.087 214.685 301.84C214.685 302.579 214.553 303.259 214.289 303.879C214.025 304.486 213.655 305.014 213.18 305.463C212.705 305.912 212.137 306.262 211.477 306.512C210.817 306.75 210.091 306.869 209.299 306.869C208.481 306.869 207.742 306.743 207.082 306.492C206.422 306.242 205.854 305.879 205.379 305.404C204.917 304.915 204.554 304.321 204.29 303.622C204.039 302.922 203.914 302.13 203.914 301.246C203.914 300.797 203.92 300.381 203.934 299.998C203.96 299.616 203.993 299.154 204.033 298.612C204.112 297.768 204.264 297.009 204.488 296.335C204.726 295.649 205.069 295.062 205.518 294.573C205.98 294.072 206.56 293.656 207.26 293.326C207.96 292.996 208.811 292.752 209.814 292.593L213.794 291.94V294.158L209.854 294.791C209.233 294.897 208.705 295.035 208.27 295.207C207.847 295.379 207.491 295.61 207.201 295.9C206.91 296.177 206.686 296.527 206.527 296.949C206.382 297.372 206.283 297.88 206.23 298.474C206.534 297.985 206.983 297.596 207.577 297.306C208.184 297.015 208.93 296.87 209.814 296.87ZM209.299 304.651C209.761 304.651 210.17 304.579 210.527 304.433C210.883 304.288 211.18 304.09 211.418 303.839C211.655 303.589 211.834 303.298 211.952 302.968C212.071 302.625 212.131 302.255 212.131 301.859C212.131 301.477 212.071 301.12 211.952 300.79C211.834 300.447 211.655 300.15 211.418 299.899C211.18 299.649 210.883 299.451 210.527 299.305C210.17 299.16 209.761 299.088 209.299 299.088C208.837 299.088 208.428 299.16 208.072 299.305C207.715 299.451 207.418 299.649 207.181 299.899C206.943 300.15 206.765 300.447 206.646 300.79C206.527 301.12 206.468 301.477 206.468 301.859C206.468 302.255 206.527 302.625 206.646 302.968C206.765 303.298 206.943 303.589 207.181 303.839C207.418 304.09 207.715 304.288 208.072 304.433C208.428 304.579 208.837 304.651 209.299 304.651Z" fill="#3E3E3E"/>
<path d="M192.99 303.305L190.02 306.611H187.11L191.545 301.661L187.09 296.593H190.337L193.168 299.86L196.099 296.593H199.029L194.614 301.503L199.029 306.611H195.921L192.99 303.305Z" fill="#3E3E3E"/>
<path d="M175.965 296.593H178.46V303.305L183.489 296.593H186.004V306.611H183.489V299.88L178.46 306.611H175.965V296.593Z" fill="#3E3E3E"/>
<path d="M164.421 296.593H166.915V300.81L171.548 296.593H174.855L169.529 301.384L175.112 306.611H171.746L166.915 302.117V306.611H164.421V296.593Z" fill="#3E3E3E"/>
<path d="M160.251 299.899C160.212 299.833 160.139 299.728 160.033 299.582C159.941 299.437 159.796 299.292 159.598 299.147C159.413 298.988 159.175 298.856 158.885 298.751C158.608 298.632 158.271 298.573 157.875 298.573C157.492 298.573 157.136 298.652 156.806 298.81C156.489 298.969 156.212 299.186 155.975 299.464C155.75 299.728 155.572 300.044 155.44 300.414C155.321 300.784 155.262 301.18 155.262 301.602C155.262 302.024 155.321 302.42 155.44 302.79C155.572 303.159 155.75 303.483 155.975 303.76C156.212 304.024 156.489 304.235 156.806 304.394C157.136 304.552 157.499 304.631 157.895 304.631C158.304 304.631 158.654 304.578 158.944 304.473C159.235 304.354 159.472 304.222 159.657 304.077C159.842 303.932 159.981 303.786 160.073 303.641C160.179 303.483 160.251 303.371 160.291 303.305H162.766C162.739 303.569 162.634 303.905 162.449 304.314C162.277 304.71 162 305.1 161.617 305.483C161.235 305.865 160.733 306.195 160.113 306.473C159.505 306.737 158.753 306.869 157.855 306.869C157.129 306.869 156.45 306.743 155.816 306.492C155.196 306.228 154.648 305.865 154.173 305.403C153.711 304.928 153.348 304.374 153.084 303.74C152.82 303.093 152.688 302.381 152.688 301.602C152.688 300.836 152.82 300.13 153.084 299.483C153.348 298.837 153.711 298.282 154.173 297.82C154.635 297.345 155.176 296.982 155.796 296.731C156.43 296.467 157.11 296.335 157.836 296.335C158.72 296.335 159.466 296.474 160.073 296.751C160.693 297.015 161.195 297.338 161.578 297.721C161.96 298.091 162.244 298.48 162.429 298.889C162.614 299.285 162.726 299.622 162.766 299.899H160.251Z" fill="#3E3E3E"/>
<path d="M146.522 304.829C147.261 304.829 147.835 304.737 148.244 304.552C148.654 304.354 148.858 304.024 148.858 303.562C148.858 302.836 148.251 302.473 147.037 302.473H145.413V300.632H146.958C147.472 300.632 147.881 300.546 148.185 300.374C148.502 300.19 148.66 299.899 148.66 299.503C148.66 299.12 148.462 298.837 148.066 298.652C147.683 298.454 147.162 298.355 146.502 298.355C145.75 298.355 145.182 298.487 144.799 298.751C144.417 299.002 144.139 299.312 143.968 299.681H141.552C141.618 299.272 141.764 298.87 141.988 298.474C142.212 298.064 142.529 297.701 142.938 297.385C143.347 297.068 143.849 296.817 144.443 296.632C145.037 296.434 145.737 296.335 146.542 296.335C148.046 296.335 149.188 296.606 149.967 297.147C150.759 297.675 151.155 298.394 151.155 299.305C151.155 299.899 150.99 300.381 150.66 300.751C150.33 301.107 149.954 301.345 149.531 301.463C150.059 301.595 150.502 301.846 150.858 302.216C151.228 302.585 151.412 303.06 151.412 303.641C151.412 304.631 150.977 305.417 150.106 305.997C149.248 306.578 148.053 306.869 146.522 306.869C145.69 306.869 144.958 306.763 144.324 306.552C143.691 306.341 143.163 306.07 142.74 305.74C142.318 305.41 141.988 305.04 141.75 304.631C141.513 304.209 141.374 303.786 141.335 303.364H143.809C143.875 303.522 143.974 303.694 144.106 303.879C144.252 304.05 144.436 304.209 144.661 304.354C144.885 304.486 145.149 304.598 145.453 304.691C145.756 304.783 146.113 304.829 146.522 304.829Z" fill="#3E3E3E"/>
<path d="M134.828 310.829H132.294L134.194 306.433L129.68 296.593H132.531L135.481 303.404L138.431 296.593H141.005L134.828 310.829Z" fill="#3E3E3E"/>
<path d="M121.167 296.593V304.453H125.76V296.593H128.274V304.453H130.017V309.561H127.76V306.611H118.652V296.593H121.167Z" fill="#3E3E3E"/>
<path d="M106.335 296.593H108.849V300.414H113.641V296.593H116.155V306.611H113.641V302.572H108.849V306.611H106.335V296.593Z" fill="#3E3E3E"/>
<path d="M101.346 305.027C101.293 305.133 101.188 305.285 101.029 305.483C100.884 305.681 100.673 305.879 100.396 306.077C100.132 306.275 99.795 306.453 99.3858 306.611C98.9899 306.756 98.5147 306.829 97.9603 306.829C97.3135 306.829 96.7063 306.71 96.1388 306.473C95.5712 306.235 95.0696 305.892 94.634 305.443C94.2116 304.994 93.8751 304.446 93.6243 303.8C93.3735 303.153 93.2481 302.42 93.2481 301.602C93.2481 300.797 93.3735 300.071 93.6243 299.424C93.8751 298.777 94.2116 298.23 94.634 297.781C95.0696 297.319 95.5712 296.969 96.1388 296.731C96.7195 296.494 97.3333 296.375 97.9801 296.375C98.5081 296.375 98.9701 296.448 99.366 296.593C99.762 296.725 100.092 296.89 100.356 297.088C100.633 297.273 100.851 297.464 101.009 297.662C101.168 297.847 101.273 297.992 101.326 298.098V296.593H103.86V306.611H101.346V305.027ZM101.366 301.602C101.366 301.18 101.3 300.784 101.168 300.414C101.036 300.044 100.851 299.728 100.613 299.464C100.376 299.186 100.085 298.975 99.7422 298.83C99.4122 298.672 99.0427 298.593 98.6335 298.593C98.2111 298.593 97.8217 298.672 97.4653 298.83C97.1221 298.975 96.8251 299.186 96.5743 299.464C96.3368 299.728 96.152 300.044 96.02 300.414C95.888 300.784 95.822 301.18 95.822 301.602C95.822 302.024 95.888 302.42 96.02 302.79C96.152 303.16 96.3368 303.483 96.5743 303.76C96.8251 304.024 97.1221 304.235 97.4653 304.394C97.8217 304.539 98.2111 304.611 98.6335 304.611C99.0427 304.611 99.4122 304.539 99.7422 304.394C100.085 304.235 100.376 304.024 100.613 303.76C100.851 303.483 101.036 303.16 101.168 302.79C101.3 302.42 101.366 302.024 101.366 301.602Z" fill="#3E3E3E"/>
<path d="M83.8468 310.809H81.3521V296.593H83.8666V298.177C83.9062 298.084 84.0052 297.939 84.1636 297.741C84.3352 297.543 84.5596 297.345 84.8368 297.147C85.1272 296.936 85.477 296.758 85.8862 296.613C86.2953 296.454 86.7705 296.375 87.3117 296.375C87.9585 296.375 88.5723 296.494 89.153 296.731C89.7338 296.969 90.2354 297.312 90.6578 297.761C91.0934 298.21 91.4366 298.758 91.6873 299.404C91.9381 300.051 92.0635 300.784 92.0635 301.602C92.0635 302.42 91.9381 303.153 91.6873 303.8C91.4366 304.446 91.0934 304.994 90.6578 305.443C90.2354 305.892 89.7338 306.235 89.153 306.473C88.5723 306.71 87.9585 306.829 87.3117 306.829C86.7705 306.829 86.2953 306.756 85.8862 306.611C85.477 306.466 85.1272 306.301 84.8368 306.116C84.5464 305.918 84.322 305.727 84.1636 305.542C84.0052 305.344 83.8996 305.192 83.8468 305.087V310.809ZM83.827 301.602C83.827 302.024 83.893 302.42 84.025 302.79C84.157 303.16 84.3484 303.483 84.5992 303.76C84.85 304.024 85.147 304.235 85.4902 304.394C85.8334 304.539 86.2228 304.611 86.6583 304.611C87.0939 304.611 87.4833 304.539 87.8265 304.394C88.1829 304.235 88.4865 304.024 88.7373 303.76C88.988 303.483 89.1794 303.16 89.3114 302.79C89.4434 302.42 89.5094 302.024 89.5094 301.602C89.5094 301.166 89.4434 300.77 89.3114 300.414C89.1794 300.044 88.988 299.728 88.7373 299.464C88.4865 299.186 88.1829 298.975 87.8265 298.83C87.4833 298.672 87.0939 298.593 86.6583 298.593C86.2228 298.593 85.8334 298.672 85.4902 298.83C85.147 298.975 84.85 299.186 84.5992 299.464C84.3484 299.728 84.157 300.044 84.025 300.414C83.893 300.77 83.827 301.166 83.827 301.602Z" fill="#3E3E3E"/>
<path d="M71.1475 306.869C70.2763 306.855 69.4778 306.717 68.7518 306.453C68.039 306.176 67.4253 305.806 66.9105 305.344C66.4089 304.882 66.0129 304.334 65.7225 303.701C65.4453 303.054 65.3067 302.354 65.3067 301.602C65.3067 300.85 65.4453 300.157 65.7225 299.523C66.0129 298.876 66.4089 298.322 66.9105 297.86C67.4253 297.398 68.039 297.035 68.7518 296.771C69.4778 296.507 70.2763 296.362 71.1475 296.335V292.039H73.6818V296.335C74.553 296.362 75.3449 296.507 76.0577 296.771C76.7837 297.035 77.3975 297.405 77.899 297.88C78.4138 298.342 78.8098 298.89 79.087 299.523C79.3774 300.157 79.5226 300.85 79.5226 301.602C79.5226 302.354 79.3774 303.047 79.087 303.681C78.8098 304.315 78.4138 304.869 77.899 305.344C77.3975 305.806 76.7837 306.176 76.0577 306.453C75.3449 306.717 74.553 306.855 73.6818 306.869V310.71H71.1475V306.869ZM67.8608 301.602C67.8608 302.024 67.9268 302.42 68.0588 302.79C68.204 303.146 68.4152 303.463 68.6924 303.74C68.9696 304.004 69.3128 304.222 69.722 304.394C70.1311 304.552 70.6063 304.638 71.1475 304.651V298.553C70.6063 298.566 70.1311 298.659 69.722 298.83C69.3128 298.989 68.9696 299.206 68.6924 299.484C68.4152 299.748 68.204 300.064 68.0588 300.434C67.9268 300.804 67.8608 301.193 67.8608 301.602ZM76.9685 301.602C76.9685 300.771 76.6913 300.064 76.1369 299.484C75.5825 298.903 74.7642 298.593 73.6818 298.553V304.651C74.7642 304.612 75.5825 304.301 76.1369 303.721C76.6913 303.14 76.9685 302.434 76.9685 301.602Z" fill="#3E3E3E"/>
<path d="M300.598 278.241L297.628 281.547H294.718L299.153 276.598L294.698 271.529H297.945L300.777 274.796L303.707 271.529H306.637L302.222 276.439L306.637 281.547H303.529L300.598 278.241Z" fill="#3E3E3E"/>
<path d="M283.573 271.529H286.068V278.241L291.097 271.529H293.612V281.547H291.097V274.816L286.068 281.547H283.573V271.529Z" fill="#3E3E3E"/>
<path d="M272.029 271.529H274.523V275.746L279.156 271.529H282.463L277.137 276.32L282.72 281.547H279.354L274.523 277.053V281.547H272.029V271.529Z" fill="#3E3E3E"/>
<path d="M262.882 271.529H270.644V273.687H265.397V281.547H262.882V271.529Z" fill="#3E3E3E"/>
<path d="M257.935 281.547V278.182H255.639L253.302 281.547H250.471L253.124 277.805C252.319 277.594 251.732 277.231 251.362 276.716C250.992 276.188 250.808 275.548 250.808 274.796C250.808 274.36 250.88 273.945 251.025 273.549C251.171 273.153 251.395 272.809 251.699 272.519C252.002 272.215 252.392 271.978 252.867 271.806C253.342 271.621 253.909 271.529 254.569 271.529H260.45V281.547H257.935ZM257.935 276.122V273.568H254.906C253.89 273.568 253.381 273.984 253.381 274.816C253.381 275.225 253.507 275.548 253.758 275.786C254.022 276.01 254.404 276.122 254.906 276.122H257.935Z" fill="#3E3E3E"/>
<path d="M235.271 271.529H238.716L242.042 278.479L245.369 271.529H248.735V281.547H246.279V274.083L242.775 281.587H241.092L237.607 274.143V281.547H235.271V271.529Z" fill="#3E3E3E"/>
<path d="M223.813 278.241L220.843 281.547H217.933L222.368 276.598L217.913 271.529H221.16L223.991 274.796L226.921 271.529H229.852L225.436 276.439L229.852 281.547H226.743L223.813 278.241Z" fill="#3E3E3E"/>
<path d="M206.788 271.529H209.283V278.241L214.312 271.529H216.826V281.547H214.312V274.816L209.283 281.547H206.788V271.529Z" fill="#3E3E3E"/>
<path d="M198.964 273.687H195.064V271.529H205.36V273.687H201.479V281.547H198.964V273.687Z" fill="#3E3E3E"/>
<path d="M187.046 278.261C187.085 278.353 187.158 278.479 187.263 278.637C187.369 278.795 187.514 278.954 187.699 279.112C187.884 279.257 188.121 279.389 188.412 279.508C188.702 279.614 189.045 279.667 189.441 279.667C190.114 279.667 190.682 279.469 191.144 279.073C191.606 278.663 191.916 278.135 192.075 277.489H188.154V275.469H192.055C191.883 274.849 191.573 274.354 191.124 273.984C190.689 273.601 190.141 273.41 189.481 273.41C189.085 273.41 188.742 273.469 188.451 273.588C188.174 273.694 187.943 273.826 187.758 273.984C187.574 274.129 187.428 274.281 187.323 274.44C187.217 274.598 187.145 274.723 187.105 274.816H184.61C184.65 274.539 184.762 274.202 184.947 273.806C185.132 273.397 185.409 273.007 185.778 272.638C186.161 272.255 186.656 271.932 187.263 271.668C187.871 271.404 188.623 271.272 189.52 271.272C190.246 271.272 190.926 271.404 191.56 271.668C192.207 271.932 192.761 272.295 193.223 272.757C193.685 273.219 194.048 273.773 194.312 274.42C194.589 275.067 194.728 275.773 194.728 276.538C194.728 277.317 194.589 278.03 194.312 278.677C194.048 279.31 193.678 279.865 193.203 280.34C192.741 280.802 192.187 281.165 191.54 281.429C190.906 281.68 190.22 281.805 189.481 281.805C188.583 281.805 187.831 281.673 187.224 281.409C186.617 281.132 186.122 280.808 185.739 280.439C185.356 280.056 185.072 279.667 184.887 279.271C184.716 278.861 184.617 278.525 184.59 278.261H187.046Z" fill="#3E3E3E"/>
<path d="M174.08 271.272C174.846 271.272 175.552 271.404 176.199 271.668C176.846 271.918 177.4 272.281 177.862 272.756C178.324 273.218 178.68 273.786 178.931 274.459C179.195 275.119 179.327 275.858 179.327 276.677V276.954H171.368C171.394 277.35 171.48 277.713 171.625 278.043C171.784 278.373 171.988 278.663 172.239 278.914C172.49 279.165 172.787 279.363 173.13 279.508C173.473 279.64 173.856 279.706 174.278 279.706C174.674 279.706 175.017 279.666 175.308 279.587C175.598 279.495 175.836 279.389 176.021 279.27C176.219 279.152 176.37 279.033 176.476 278.914C176.595 278.782 176.674 278.683 176.714 278.617H179.208C179.169 278.881 179.05 279.198 178.852 279.567C178.654 279.924 178.357 280.267 177.961 280.597C177.565 280.927 177.063 281.211 176.456 281.448C175.849 281.686 175.123 281.805 174.278 281.805C173.46 281.805 172.714 281.673 172.041 281.409C171.381 281.145 170.813 280.775 170.338 280.3C169.863 279.825 169.493 279.27 169.229 278.637C168.965 277.99 168.833 277.29 168.833 276.538C168.833 275.759 168.959 275.047 169.21 274.4C169.474 273.753 169.837 273.199 170.299 272.737C170.774 272.275 171.328 271.918 171.962 271.668C172.609 271.404 173.315 271.272 174.08 271.272ZM174.08 273.232C173.394 273.232 172.82 273.41 172.358 273.766C171.909 274.109 171.605 274.591 171.447 275.212H176.674C176.489 274.578 176.172 274.09 175.724 273.746C175.275 273.403 174.727 273.232 174.08 273.232ZM170.754 266.975H173.269V269.925H170.754V266.975ZM174.892 266.975H177.407V269.925H174.892V266.975Z" fill="#3E3E3E"/>
<path d="M153.652 271.529V279.389H157.671V271.529H160.186V279.389H164.205V271.529H166.719V279.389H168.462V284.498H166.224V281.547H151.137V271.529H153.652Z" fill="#3E3E3E"/>
<path d="M144.148 271.272C144.913 271.272 145.62 271.404 146.266 271.668C146.913 271.919 147.468 272.281 147.93 272.757C148.391 273.219 148.748 273.786 148.999 274.459C149.263 275.119 149.395 275.859 149.395 276.677V276.954H141.435C141.462 277.35 141.548 277.713 141.693 278.043C141.851 278.373 142.056 278.663 142.307 278.914C142.557 279.165 142.854 279.363 143.197 279.508C143.541 279.64 143.923 279.706 144.346 279.706C144.742 279.706 145.085 279.667 145.375 279.587C145.666 279.495 145.903 279.389 146.088 279.271C146.286 279.152 146.438 279.033 146.544 278.914C146.662 278.782 146.742 278.683 146.781 278.617H149.276C149.236 278.881 149.117 279.198 148.919 279.568C148.721 279.924 148.424 280.267 148.029 280.597C147.633 280.927 147.131 281.211 146.524 281.449C145.917 281.686 145.191 281.805 144.346 281.805C143.527 281.805 142.782 281.673 142.109 281.409C141.449 281.145 140.881 280.775 140.406 280.3C139.931 279.825 139.561 279.271 139.297 278.637C139.033 277.99 138.901 277.291 138.901 276.538C138.901 275.76 139.026 275.047 139.277 274.4C139.541 273.753 139.904 273.199 140.366 272.737C140.841 272.275 141.396 271.919 142.029 271.668C142.676 271.404 143.382 271.272 144.148 271.272ZM144.148 273.232C143.461 273.232 142.887 273.41 142.425 273.766C141.977 274.11 141.673 274.591 141.515 275.212H146.742C146.557 274.578 146.24 274.09 145.791 273.747C145.342 273.403 144.795 273.232 144.148 273.232Z" fill="#3E3E3E"/>
<path d="M129.826 274.638C130.539 274.638 131.146 274.73 131.648 274.915C132.162 275.086 132.578 275.324 132.895 275.627C133.212 275.931 133.443 276.294 133.588 276.716C133.746 277.126 133.826 277.574 133.826 278.063C133.826 278.512 133.746 278.947 133.588 279.37C133.443 279.792 133.212 280.168 132.895 280.498C132.578 280.815 132.169 281.072 131.667 281.27C131.166 281.455 130.559 281.547 129.846 281.547H124.124V271.529H126.638V274.638H129.826ZM126.638 276.697V279.508H129.45C130.651 279.508 131.252 279.026 131.252 278.063C131.252 277.64 131.1 277.31 130.796 277.073C130.493 276.822 130.044 276.697 129.45 276.697H126.638Z" fill="#3E3E3E"/>
<path d="M108.559 271.529V279.389H112.579V271.529H115.093V279.389H119.112V271.529H121.627V281.547H106.045V271.529H108.559Z" fill="#3E3E3E"/>
<path d="M99.0551 271.272C99.8207 271.272 100.527 271.404 101.174 271.668C101.82 271.919 102.375 272.281 102.837 272.757C103.299 273.219 103.655 273.786 103.906 274.459C104.17 275.119 104.302 275.859 104.302 276.677V276.954H96.3426C96.369 277.35 96.4548 277.713 96.6 278.043C96.7584 278.373 96.963 278.663 97.2138 278.914C97.4645 279.165 97.7615 279.363 98.1047 279.508C98.4479 279.64 98.8307 279.706 99.2531 279.706C99.6491 279.706 99.9922 279.667 100.283 279.587C100.573 279.495 100.811 279.389 100.995 279.271C101.193 279.152 101.345 279.033 101.451 278.914C101.57 278.782 101.649 278.683 101.688 278.617H104.183C104.143 278.881 104.025 279.198 103.827 279.568C103.629 279.924 103.332 280.267 102.936 280.597C102.54 280.927 102.038 281.211 101.431 281.449C100.824 281.686 100.098 281.805 99.2531 281.805C98.4347 281.805 97.6889 281.673 97.0158 281.409C96.3558 281.145 95.7882 280.775 95.313 280.3C94.8378 279.825 94.4683 279.271 94.2043 278.637C93.9403 277.99 93.8083 277.291 93.8083 276.538C93.8083 275.76 93.9337 275.047 94.1845 274.4C94.4485 273.753 94.8114 273.199 95.2734 272.737C95.7486 272.275 96.303 271.919 96.9366 271.668C97.5833 271.404 98.2895 271.272 99.0551 271.272ZM99.0551 273.232C98.3687 273.232 97.7945 273.41 97.3326 273.766C96.8838 274.11 96.5802 274.591 96.4218 275.212H101.649C101.464 274.578 101.147 274.09 100.698 273.747C100.25 273.403 99.7019 273.232 99.0551 273.232Z" fill="#3E3E3E"/>
<path d="M88.9417 274.638C89.6545 274.638 90.2617 274.73 90.7633 274.915C91.2781 275.086 91.6938 275.324 92.0106 275.627C92.3274 275.931 92.5584 276.294 92.7036 276.716C92.862 277.126 92.9412 277.574 92.9412 278.063C92.9412 278.512 92.862 278.947 92.7036 279.37C92.5584 279.792 92.3274 280.168 92.0106 280.498C91.6938 280.815 91.2847 281.072 90.7831 281.27C90.2815 281.455 89.6743 281.547 88.9615 281.547H83.2396V273.687H79.9925V271.529H85.7541V274.638H88.9417ZM85.7541 276.697V279.508H88.5656C89.7667 279.508 90.3673 279.026 90.3673 278.063C90.3673 277.64 90.2155 277.31 89.9119 277.073C89.6083 276.822 89.1595 276.697 88.5656 276.697H85.7541Z" fill="#3E3E3E"/>
<path d="M72.6126 281.785C71.5831 281.785 70.6327 281.6 69.7616 281.23C68.9036 280.861 68.1578 280.353 67.5242 279.706C66.8907 279.046 66.3957 278.274 66.0393 277.389C65.6961 276.505 65.5245 275.548 65.5245 274.519C65.5245 273.489 65.6961 272.532 66.0393 271.648C66.3957 270.763 66.8907 269.998 67.5242 269.351C68.1578 268.691 68.9036 268.176 69.7616 267.807C70.6327 267.437 71.5831 267.252 72.6126 267.252C73.695 267.252 74.6256 267.417 75.4043 267.747C76.1963 268.064 76.8497 268.453 77.3645 268.915C77.8924 269.377 78.3016 269.872 78.592 270.4C78.8824 270.928 79.0738 271.397 79.1662 271.806H76.4339C76.3283 271.621 76.1765 271.41 75.9785 271.172C75.7805 270.922 75.5231 270.691 75.2063 270.479C74.9028 270.255 74.5332 270.07 74.0976 269.925C73.662 269.767 73.167 269.688 72.6126 269.688C71.9527 269.688 71.3521 269.819 70.8109 270.083C70.2829 270.334 69.8276 270.677 69.4448 271.113C69.0752 271.549 68.7848 272.063 68.5736 272.657C68.3756 273.238 68.2766 273.859 68.2766 274.519C68.2766 275.178 68.3756 275.805 68.5736 276.399C68.7848 276.98 69.0752 277.488 69.4448 277.924C69.8276 278.36 70.2829 278.709 70.8109 278.973C71.3521 279.224 71.9527 279.35 72.6126 279.35C73.2198 279.35 73.7478 279.27 74.1966 279.112C74.6454 278.954 75.0216 278.769 75.3251 278.558C75.6287 278.333 75.8729 278.102 76.0577 277.865C76.2425 277.614 76.3811 277.396 76.4735 277.211H79.1662C79.087 277.581 78.9088 278.03 78.6316 278.558C78.3676 279.072 77.9782 279.574 77.4635 280.062C76.9487 280.537 76.2887 280.947 75.4835 281.29C74.6916 281.62 73.7346 281.785 72.6126 281.785Z" fill="#3E3E3E"/>
<path d="M392.805 86.3129V205.036" stroke="#F600C0" stroke-width="0.395745"/>
<path d="M470.635 86.3129V205.036" stroke="#F600C0" stroke-width="0.395745"/>
<path d="M378.295 82.3555L378.295 185.249" stroke="#F600C0" stroke-width="0.395745"/>
<path d="M386.21 198.441H478.55" stroke="#F600C0" stroke-width="0.395745"/>
<path d="M369.061 86.3129H416.55" stroke="#F600C0" stroke-width="0.395745"/>
<path d="M369.061 181.292H416.55" stroke="#F600C0" stroke-width="0.395745"/>
<path d="M389.507 201.739L395.444 195.802" stroke="#F600C0" stroke-width="0.395745"/>
<path d="M467.997 201.079L473.273 195.802" stroke="#F600C0" stroke-width="0.395745"/>
<path d="M376.594 190.688C376.591 190.471 376.627 190.297 376.7 190.165C376.774 190.034 376.871 189.938 376.989 189.878C377.109 189.818 377.236 189.788 377.369 189.788C377.502 189.788 377.623 189.818 377.731 189.878C377.841 189.936 377.968 190.026 378.113 190.148C378.211 190.23 378.287 190.289 378.344 190.324C378.401 190.358 378.465 190.375 378.535 190.375C378.649 190.375 378.738 190.334 378.804 190.253C378.869 190.173 378.899 190.054 378.896 189.897H379.318C379.323 190.114 379.289 190.288 379.215 190.42C379.14 190.552 379.043 190.647 378.923 190.707C378.803 190.767 378.676 190.797 378.543 190.797C378.41 190.797 378.289 190.769 378.179 190.713C378.07 190.656 377.943 190.564 377.8 190.437C377.706 190.355 377.629 190.297 377.571 190.263C377.512 190.228 377.447 190.21 377.377 190.21C377.271 190.21 377.184 190.247 377.115 190.32C377.045 190.393 377.013 190.516 377.017 190.688H376.594ZM376.594 191.87C376.591 191.653 376.627 191.479 376.7 191.347C376.774 191.216 376.871 191.12 376.989 191.06C377.109 191 377.236 190.97 377.369 190.97C377.502 190.97 377.623 191 377.731 191.06C377.841 191.118 377.968 191.208 378.113 191.33C378.211 191.412 378.287 191.471 378.344 191.506C378.401 191.54 378.465 191.557 378.535 191.557C378.649 191.557 378.738 191.516 378.804 191.436C378.869 191.355 378.899 191.236 378.896 191.079H379.318C379.323 191.296 379.289 191.47 379.215 191.602C379.14 191.734 379.043 191.83 378.923 191.89C378.803 191.95 378.676 191.98 378.543 191.98C378.41 191.98 378.289 191.952 378.179 191.895C378.07 191.838 377.943 191.746 377.8 191.619C377.706 191.537 377.629 191.479 377.571 191.445C377.512 191.41 377.447 191.392 377.377 191.392C377.271 191.392 377.184 191.429 377.115 191.502C377.045 191.575 377.013 191.698 377.017 191.87H376.594ZM382.549 192.942C382.32 192.942 382.113 192.897 381.929 192.805C381.745 192.714 381.598 192.589 381.487 192.43C381.376 192.271 381.315 192.089 381.305 191.886H381.774C381.793 192.067 381.875 192.217 382.021 192.336C382.168 192.453 382.345 192.512 382.549 192.512C382.714 192.512 382.86 192.473 382.988 192.396C383.117 192.319 383.218 192.214 383.291 192.079C383.366 191.944 383.403 191.79 383.403 191.619C383.403 191.445 383.364 191.289 383.287 191.152C383.212 191.013 383.107 190.904 382.974 190.825C382.841 190.745 382.689 190.705 382.518 190.704C382.395 190.702 382.27 190.721 382.14 190.76C382.011 190.798 381.905 190.847 381.821 190.907L381.367 190.852L381.61 188.879H383.692V189.31H382.017L381.876 190.492H381.9C381.982 190.427 382.085 190.373 382.209 190.33C382.333 190.287 382.462 190.265 382.596 190.265C382.842 190.265 383.06 190.324 383.252 190.441C383.445 190.557 383.596 190.717 383.706 190.919C383.817 191.121 383.872 191.352 383.872 191.612C383.872 191.867 383.815 192.096 383.7 192.297C383.587 192.496 383.43 192.654 383.23 192.77C383.031 192.885 382.804 192.942 382.549 192.942ZM384.774 192.375C384.677 192.375 384.595 192.34 384.525 192.271C384.456 192.202 384.422 192.119 384.422 192.023C384.422 191.926 384.456 191.843 384.525 191.774C384.595 191.705 384.677 191.67 384.774 191.67C384.87 191.67 384.953 191.705 385.022 191.774C385.092 191.843 385.126 191.926 385.126 192.023C385.126 192.087 385.11 192.145 385.077 192.199C385.046 192.252 385.004 192.295 384.95 192.328C384.898 192.359 384.839 192.375 384.774 192.375ZM384.774 190.347C384.677 190.347 384.595 190.313 384.525 190.244C384.456 190.174 384.422 190.092 384.422 189.995C384.422 189.899 384.456 189.816 384.525 189.747C384.595 189.677 384.677 189.643 384.774 189.643C384.87 189.643 384.953 189.677 385.022 189.747C385.092 189.816 385.126 189.899 385.126 189.995C385.126 190.059 385.11 190.118 385.077 190.171C385.046 190.225 385.004 190.268 384.95 190.3C384.898 190.332 384.839 190.347 384.774 190.347ZM385.633 192.066V191.666L387.394 188.879H387.684V189.498H387.488L386.157 191.604V191.635H388.529V192.066H385.633ZM387.519 192.888V191.944V191.758V188.879H387.981V192.888H387.519Z" fill="#F600C0"/>
<path d="M70.7468 256.282C70.7169 256.016 70.5932 255.81 70.3758 255.664C70.1585 255.515 69.8849 255.441 69.5551 255.441C69.319 255.441 69.1148 255.479 68.9424 255.554C68.77 255.627 68.636 255.728 68.5404 255.857C68.4467 255.985 68.3999 256.13 68.3999 256.293C68.3999 256.43 68.4318 256.548 68.4955 256.647C68.5611 256.747 68.6463 256.83 68.7512 256.897C68.858 256.963 68.9723 257.018 69.0941 257.063C69.2159 257.106 69.3331 257.142 69.4455 257.17L70.0076 257.316C70.1913 257.361 70.3796 257.422 70.5726 257.499C70.7656 257.576 70.9445 257.677 71.1094 257.802C71.2743 257.928 71.4073 258.084 71.5085 258.269C71.6116 258.455 71.6631 258.677 71.6631 258.935C71.6631 259.261 71.5788 259.551 71.4102 259.804C71.2434 260.057 71.0007 260.256 70.6822 260.402C70.3655 260.548 69.9823 260.622 69.5326 260.622C69.1016 260.622 68.7288 260.553 68.414 260.416C68.0992 260.28 67.8528 260.086 67.6747 259.835C67.4967 259.582 67.3984 259.282 67.3796 258.935H68.2509C68.2678 259.143 68.3353 259.316 68.4533 259.455C68.5732 259.592 68.7259 259.694 68.9115 259.761C69.0988 259.827 69.304 259.86 69.527 259.86C69.7725 259.86 69.9908 259.821 70.1819 259.745C70.3749 259.666 70.5267 259.557 70.6372 259.419C70.7478 259.278 70.803 259.114 70.803 258.927C70.803 258.756 70.7543 258.617 70.6569 258.508C70.5613 258.399 70.4311 258.309 70.2662 258.238C70.1032 258.167 69.9186 258.104 69.7125 258.05L69.0323 257.864C68.5714 257.739 68.206 257.554 67.9361 257.311C67.6682 257.067 67.5342 256.745 67.5342 256.344C67.5342 256.012 67.6242 255.723 67.804 255.475C67.9839 255.228 68.2275 255.036 68.5348 254.899C68.8421 254.76 69.1888 254.691 69.5748 254.691C69.9645 254.691 70.3084 254.759 70.6063 254.896C70.9061 255.033 71.1422 255.221 71.3146 255.461C71.487 255.699 71.5769 255.973 71.5844 256.282H70.7468ZM74.6488 256.209V256.883H72.2906V256.209H74.6488ZM72.923 255.174H73.7634V259.258C73.7634 259.421 73.7878 259.544 73.8365 259.627C73.8852 259.707 73.948 259.762 74.0248 259.792C74.1035 259.821 74.1888 259.835 74.2806 259.835C74.348 259.835 74.4071 259.83 74.4576 259.821C74.5082 259.811 74.5476 259.804 74.5757 259.798L74.7275 260.492C74.6788 260.511 74.6094 260.53 74.5195 260.548C74.4295 260.569 74.3171 260.58 74.1822 260.582C73.9611 260.586 73.755 260.547 73.5638 260.464C73.3727 260.382 73.2181 260.254 73.1001 260.082C72.982 259.91 72.923 259.693 72.923 259.433V255.174ZM76.1096 262.145C75.9841 262.145 75.8698 262.135 75.7667 262.114C75.6637 262.095 75.5868 262.075 75.5363 262.052L75.7386 261.364C75.8923 261.405 76.0291 261.423 76.149 261.417C76.2689 261.411 76.3748 261.366 76.4666 261.282C76.5603 261.198 76.6427 261.06 76.7139 260.869L76.8179 260.582L75.2383 256.209H76.1377L77.2311 259.559H77.2761L78.3694 256.209H79.2717L77.4925 261.102C77.41 261.327 77.3051 261.517 77.1777 261.673C77.0503 261.83 76.8985 261.948 76.7224 262.027C76.5462 262.106 76.342 262.145 76.1096 262.145ZM80.0615 260.526V256.209H80.8738V256.895H80.9187C80.9974 256.662 81.1361 256.48 81.3347 256.347C81.5352 256.212 81.7619 256.144 82.0149 256.144C82.0674 256.144 82.1292 256.146 82.2004 256.15C82.2735 256.154 82.3306 256.158 82.3719 256.164V256.968C82.3381 256.958 82.2782 256.948 82.192 256.937C82.1058 256.924 82.0196 256.917 81.9334 256.917C81.7348 256.917 81.5577 256.959 81.4022 257.044C81.2485 257.126 81.1267 257.241 81.0368 257.389C80.9468 257.535 80.9019 257.702 80.9019 257.89V260.526H80.0615ZM84.8052 260.613C84.3799 260.613 84.0135 260.522 83.7062 260.34C83.4008 260.157 83.1647 259.899 82.9979 259.568C82.833 259.234 82.7506 258.843 82.7506 258.395C82.7506 257.953 82.833 257.564 82.9979 257.226C83.1647 256.889 83.3971 256.626 83.695 256.436C83.9948 256.247 84.3452 256.153 84.7462 256.153C84.9898 256.153 85.2259 256.193 85.4545 256.273C85.6831 256.354 85.8883 256.48 86.07 256.653C86.2518 256.825 86.3951 257.049 86.5001 257.325C86.605 257.598 86.6575 257.931 86.6575 258.322V258.62H83.2256V257.991H85.8339C85.8339 257.77 85.789 257.574 85.699 257.403C85.6091 257.231 85.4826 257.095 85.3196 256.996C85.1584 256.896 84.9692 256.847 84.7518 256.847C84.5157 256.847 84.3096 256.905 84.1335 257.021C83.9592 257.135 83.8243 257.285 83.7287 257.471C83.635 257.654 83.5882 257.854 83.5882 258.069V258.561C83.5882 258.85 83.6388 259.095 83.74 259.298C83.843 259.5 83.9864 259.655 84.17 259.761C84.3536 259.866 84.5682 259.919 84.8136 259.919C84.9729 259.919 85.1181 259.896 85.2493 259.851C85.3805 259.805 85.4938 259.735 85.5894 259.643C85.685 259.552 85.758 259.438 85.8086 259.303L86.6041 259.447C86.5403 259.681 86.426 259.886 86.2611 260.062C86.0981 260.236 85.8929 260.372 85.6456 260.47C85.4001 260.565 85.12 260.613 84.8052 260.613ZM88.4303 257.963V260.526H87.5899V256.209H88.3966V256.911H88.45C88.5493 256.683 88.7048 256.499 88.9166 256.361C89.1302 256.222 89.3991 256.153 89.7232 256.153C90.0174 256.153 90.2751 256.214 90.4962 256.338C90.7173 256.46 90.8887 256.642 91.0105 256.883C91.1323 257.125 91.1932 257.424 91.1932 257.78V260.526H90.3528V257.881C90.3528 257.568 90.2713 257.324 90.1083 257.148C89.9453 256.97 89.7213 256.881 89.4365 256.881C89.2417 256.881 89.0683 256.923 88.9166 257.007C88.7666 257.091 88.6477 257.215 88.5596 257.378C88.4734 257.539 88.4303 257.734 88.4303 257.963ZM94.181 260.613C93.7556 260.613 93.3893 260.522 93.082 260.34C92.7766 260.157 92.5405 259.899 92.3737 259.568C92.2088 259.234 92.1264 258.843 92.1264 258.395C92.1264 257.953 92.2088 257.564 92.3737 257.226C92.5405 256.889 92.7728 256.626 93.0708 256.436C93.3706 256.247 93.721 256.153 94.122 256.153C94.3655 256.153 94.6016 256.193 94.8302 256.273C95.0588 256.354 95.264 256.48 95.4458 256.653C95.6275 256.825 95.7709 257.049 95.8758 257.325C95.9808 257.598 96.0332 257.931 96.0332 258.322V258.62H92.6014V257.991H95.2097C95.2097 257.77 95.1647 257.574 95.0748 257.403C94.9848 257.231 94.8584 257.095 94.6953 256.996C94.5342 256.896 94.3449 256.847 94.1276 256.847C93.8915 256.847 93.6854 256.905 93.5092 257.021C93.335 257.135 93.2 257.285 93.1045 257.471C93.0108 257.654 92.9639 257.854 92.9639 258.069V258.561C92.9639 258.85 93.0145 259.095 93.1157 259.298C93.2188 259.5 93.3621 259.655 93.5458 259.761C93.7294 259.866 93.9439 259.919 94.1894 259.919C94.3487 259.919 94.4939 259.896 94.6251 259.851C94.7562 259.805 94.8696 259.735 94.9652 259.643C95.0607 259.552 95.1338 259.438 95.1844 259.303L95.9798 259.447C95.9161 259.681 95.8018 259.886 95.6369 260.062C95.4739 260.236 95.2687 260.372 95.0214 260.47C94.7759 260.565 94.4958 260.613 94.181 260.613ZM99.614 260.526H98.6921L100.764 254.77H101.767L103.839 260.526H102.917L101.289 255.815H101.244L99.614 260.526ZM99.7686 258.272H102.759V259.003H99.7686V258.272ZM106.764 260.526V254.77H107.633V259.778H110.241V260.526H106.764ZM115.789 256.642H114.912C114.878 256.454 114.815 256.289 114.724 256.147C114.632 256.005 114.519 255.884 114.386 255.784C114.253 255.685 114.104 255.61 113.939 255.56C113.776 255.509 113.603 255.484 113.419 255.484C113.088 255.484 112.791 255.567 112.528 255.734C112.268 255.901 112.062 256.145 111.91 256.467C111.76 256.79 111.685 257.183 111.685 257.648C111.685 258.116 111.76 258.512 111.91 258.834C112.062 259.156 112.269 259.4 112.531 259.565C112.794 259.73 113.089 259.812 113.417 259.812C113.598 259.812 113.771 259.788 113.934 259.739C114.099 259.688 114.248 259.614 114.381 259.517C114.514 259.42 114.626 259.301 114.718 259.16C114.812 259.018 114.876 258.855 114.912 258.671L115.789 258.674C115.742 258.957 115.651 259.217 115.516 259.455C115.383 259.691 115.212 259.895 115.002 260.068C114.794 260.238 114.556 260.37 114.288 260.464C114.02 260.558 113.728 260.605 113.411 260.605C112.913 260.605 112.469 260.487 112.079 260.251C111.689 260.013 111.382 259.672 111.157 259.23C110.934 258.788 110.822 258.261 110.822 257.648C110.822 257.033 110.935 256.506 111.16 256.065C111.385 255.623 111.692 255.284 112.082 255.048C112.471 254.81 112.914 254.691 113.411 254.691C113.716 254.691 114.001 254.735 114.265 254.823C114.532 254.909 114.77 255.037 114.982 255.205C115.194 255.372 115.369 255.576 115.508 255.818C115.646 256.058 115.74 256.332 115.789 256.642ZM120.05 260.526L118.453 254.77H119.367L120.488 259.227H120.542L121.708 254.77H122.613L123.78 259.23H123.833L124.952 254.77H125.868L124.269 260.526H123.395L122.183 256.214H122.138L120.927 260.526H120.05ZM128.028 260.613C127.603 260.613 127.236 260.522 126.929 260.34C126.624 260.157 126.388 259.899 126.221 259.568C126.056 259.234 125.973 258.843 125.973 258.395C125.973 257.953 126.056 257.564 126.221 257.226C126.388 256.889 126.62 256.626 126.918 256.436C127.218 256.247 127.568 256.153 127.969 256.153C128.213 256.153 128.449 256.193 128.677 256.273C128.906 256.354 129.111 256.48 129.293 256.653C129.475 256.825 129.618 257.049 129.723 257.325C129.828 257.598 129.88 257.931 129.88 258.322V258.62H126.448V257.991H129.057C129.057 257.77 129.012 257.574 128.922 257.403C128.832 257.231 128.705 257.095 128.542 256.996C128.381 256.896 128.192 256.847 127.975 256.847C127.739 256.847 127.532 256.905 127.356 257.021C127.182 257.135 127.047 257.285 126.952 257.471C126.858 257.654 126.811 257.854 126.811 258.069V258.561C126.811 258.85 126.862 259.095 126.963 259.298C127.066 259.5 127.209 259.655 127.393 259.761C127.576 259.866 127.791 259.919 128.036 259.919C128.196 259.919 128.341 259.896 128.472 259.851C128.603 259.805 128.717 259.735 128.812 259.643C128.908 259.552 128.981 259.438 129.031 259.303L129.827 259.447C129.763 259.681 129.649 259.886 129.484 260.062C129.321 260.236 129.116 260.372 128.868 260.47C128.623 260.565 128.343 260.613 128.028 260.613ZM130.88 260.526V254.77H131.721V256.909H131.771C131.82 256.819 131.89 256.715 131.982 256.597C132.074 256.479 132.201 256.376 132.364 256.287C132.527 256.198 132.743 256.153 133.011 256.153C133.359 256.153 133.67 256.241 133.944 256.417C134.217 256.593 134.432 256.847 134.587 257.178C134.745 257.51 134.824 257.909 134.824 258.376C134.824 258.842 134.746 259.242 134.59 259.576C134.435 259.908 134.221 260.163 133.949 260.343C133.678 260.521 133.368 260.61 133.019 260.61C132.757 260.61 132.542 260.566 132.375 260.478C132.211 260.39 132.081 260.287 131.988 260.169C131.894 260.051 131.822 259.946 131.771 259.854H131.701V260.526H130.88ZM131.704 258.367C131.704 258.671 131.748 258.937 131.836 259.166C131.924 259.394 132.051 259.573 132.218 259.702C132.385 259.83 132.589 259.894 132.831 259.894C133.082 259.894 133.292 259.827 133.46 259.694C133.629 259.559 133.756 259.376 133.843 259.146C133.931 258.915 133.975 258.656 133.975 258.367C133.975 258.083 133.932 257.827 133.845 257.6C133.761 257.373 133.634 257.194 133.463 257.063C133.295 256.932 133.084 256.866 132.831 256.866C132.587 256.866 132.381 256.929 132.212 257.055C132.046 257.18 131.919 257.356 131.833 257.58C131.747 257.805 131.704 258.068 131.704 258.367ZM137.929 254.77H138.983L140.816 259.244H140.883L142.716 254.77H143.77V260.526H142.944V256.361H142.89L141.193 260.518H140.507L138.809 256.358H138.756V260.526H137.929V254.77ZM146.826 260.613C146.401 260.613 146.034 260.522 145.727 260.34C145.422 260.157 145.185 259.899 145.019 259.568C144.854 259.234 144.771 258.843 144.771 258.395C144.771 257.953 144.854 257.564 145.019 257.226C145.185 256.889 145.418 256.626 145.716 256.436C146.016 256.247 146.366 256.153 146.767 256.153C147.011 256.153 147.247 256.193 147.475 256.273C147.704 256.354 147.909 256.48 148.091 256.653C148.273 256.825 148.416 257.049 148.521 257.325C148.626 257.598 148.678 257.931 148.678 258.322V258.62H145.246V257.991H147.855C147.855 257.77 147.81 257.574 147.72 257.403C147.63 257.231 147.503 257.095 147.34 256.996C147.179 256.896 146.99 256.847 146.773 256.847C146.536 256.847 146.33 256.905 146.154 257.021C145.98 257.135 145.845 257.285 145.749 257.471C145.656 257.654 145.609 257.854 145.609 258.069V258.561C145.609 258.85 145.66 259.095 145.761 259.298C145.864 259.5 146.007 259.655 146.191 259.761C146.374 259.866 146.589 259.919 146.834 259.919C146.994 259.919 147.139 259.896 147.27 259.851C147.401 259.805 147.515 259.735 147.61 259.643C147.706 259.552 147.779 259.438 147.829 259.303L148.625 259.447C148.561 259.681 148.447 259.886 148.282 260.062C148.119 260.236 147.914 260.372 147.666 260.47C147.421 260.565 147.141 260.613 146.826 260.613ZM151.227 260.61C150.878 260.61 150.567 260.521 150.294 260.343C150.022 260.163 149.808 259.908 149.653 259.576C149.499 259.242 149.422 258.842 149.422 258.376C149.422 257.909 149.5 257.51 149.656 257.178C149.813 256.847 150.028 256.593 150.302 256.417C150.576 256.241 150.886 256.153 151.232 256.153C151.5 256.153 151.716 256.198 151.879 256.287C152.044 256.376 152.171 256.479 152.261 256.597C152.353 256.715 152.424 256.819 152.475 256.909H152.525V254.77H153.366V260.526H152.545V259.854H152.475C152.424 259.946 152.351 260.051 152.255 260.169C152.162 260.287 152.033 260.39 151.868 260.478C151.703 260.566 151.489 260.61 151.227 260.61ZM151.412 259.894C151.654 259.894 151.858 259.83 152.025 259.702C152.194 259.573 152.321 259.394 152.407 259.166C152.495 258.937 152.539 258.671 152.539 258.367C152.539 258.068 152.496 257.805 152.41 257.58C152.324 257.356 152.197 257.18 152.031 257.055C151.864 256.929 151.658 256.866 151.412 256.866C151.159 256.866 150.949 256.932 150.78 257.063C150.611 257.194 150.484 257.373 150.398 257.6C150.313 257.827 150.271 258.083 150.271 258.367C150.271 258.656 150.314 258.915 150.4 259.146C150.487 259.376 150.614 259.559 150.783 259.694C150.953 259.827 151.163 259.894 151.412 259.894ZM154.565 260.526V256.209H155.406V260.526H154.565ZM154.99 255.543C154.843 255.543 154.718 255.494 154.613 255.396C154.51 255.297 154.458 255.179 154.458 255.042C154.458 254.904 154.51 254.786 154.613 254.688C154.718 254.589 154.843 254.539 154.99 254.539C155.136 254.539 155.26 254.589 155.363 254.688C155.468 254.786 155.521 254.904 155.521 255.042C155.521 255.179 155.468 255.297 155.363 255.396C155.26 255.494 155.136 255.543 154.99 255.543ZM159.271 258.736V256.209H160.114V260.526H159.288V259.778H159.243C159.144 260.009 158.984 260.201 158.765 260.355C158.548 260.506 158.277 260.582 157.953 260.582C157.675 260.582 157.43 260.521 157.216 260.4C157.005 260.276 156.838 260.093 156.716 259.851C156.596 259.61 156.536 259.311 156.536 258.955V256.209H157.377V258.854C157.377 259.148 157.458 259.382 157.621 259.556C157.784 259.731 157.996 259.818 158.256 259.818C158.414 259.818 158.57 259.778 158.726 259.7C158.883 259.621 159.013 259.502 159.116 259.343C159.221 259.183 159.273 258.981 159.271 258.736ZM161.243 260.526V256.209H162.05V256.911H162.103C162.193 256.673 162.34 256.488 162.545 256.355C162.749 256.22 162.994 256.153 163.278 256.153C163.567 256.153 163.809 256.22 164.003 256.355C164.2 256.49 164.345 256.675 164.439 256.911H164.484C164.587 256.681 164.751 256.497 164.976 256.361C165.201 256.222 165.469 256.153 165.78 256.153C166.171 256.153 166.491 256.275 166.738 256.521C166.988 256.766 167.112 257.136 167.112 257.631V260.526H166.272V257.71C166.272 257.417 166.192 257.206 166.033 257.074C165.874 256.943 165.683 256.878 165.462 256.878C165.189 256.878 164.976 256.962 164.824 257.131C164.672 257.297 164.597 257.512 164.597 257.774V260.526H163.759V257.656C163.759 257.422 163.686 257.234 163.54 257.091C163.394 256.949 163.203 256.878 162.969 256.878C162.81 256.878 162.663 256.92 162.528 257.004C162.395 257.087 162.287 257.202 162.205 257.35C162.124 257.498 162.084 257.669 162.084 257.864V260.526H161.243Z" fill="#222222" fill-opacity="0.12"/>
<path d="M375.656 183.93L380.933 178.654" stroke="#F600C0" stroke-width="0.395745"/>
<path d="M375.656 88.9512L380.933 83.6746" stroke="#F600C0" stroke-width="0.395745"/>
</svg>
