<svg width="860" height="128" viewBox="0 0 860 128" fill="none" xmlns="http://www.w3.org/2000/svg">
<rect width="860" height="128" fill="#F9F9F9"/>
<path d="M59 43.25V49.625" stroke="#4773FC" stroke-width="2.5" stroke-miterlimit="10" stroke-linecap="round" stroke-linejoin="round"/>
<path d="M76 43.25V49.625" stroke="#4773FC" stroke-width="2.5" stroke-miterlimit="10" stroke-linecap="round" stroke-linejoin="round"/>
<path d="M49.4375 58.3162H85.5625" stroke="#4773FC" stroke-width="2.5" stroke-miterlimit="10" stroke-linecap="round" stroke-linejoin="round"/>
<path d="M86.625 57.0625V75.125C86.625 81.5 83.4375 85.75 76 85.75H59C51.5625 85.75 48.375 81.5 48.375 75.125V57.0625C48.375 50.6875 51.5625 46.4375 59 46.4375H76C83.4375 46.4375 86.625 50.6875 86.625 57.0625Z" stroke="#4773FC" stroke-width="2.5" stroke-miterlimit="10" stroke-linecap="round" stroke-linejoin="round"/>
<path d="M67.4903 68.1125H67.5094" stroke="#4773FC" stroke-width="4" stroke-linecap="round" stroke-linejoin="round"/>
<path d="M59.6255 68.1125H59.6446" stroke="#4773FC" stroke-width="4" stroke-linecap="round" stroke-linejoin="round"/>
<path d="M59.6255 74.4875H59.6446" stroke="#4773FC" stroke-width="4" stroke-linecap="round" stroke-linejoin="round"/>
<path d="M326.651 57.4119L332.15 47.7273H336.326V63H332.289V53.2855L326.81 63H322.604V47.7273H326.651V57.4119ZM331.424 42.3977H334.377C334.371 43.6041 333.923 44.5753 333.035 45.3111C332.153 46.0469 330.96 46.4148 329.455 46.4148C327.944 46.4148 326.747 46.0469 325.866 45.3111C324.984 44.5753 324.543 43.6041 324.543 42.3977H327.477C327.47 42.8551 327.616 43.2661 327.914 43.6307C328.219 43.9952 328.733 44.1775 329.455 44.1775C330.158 44.1775 330.662 43.9986 330.967 43.6406C331.272 43.2826 331.424 42.8683 331.424 42.3977Z" fill="#3579F3"/>
<path d="M312.831 63.2983C311.26 63.2983 309.907 62.9801 308.774 62.3437C307.647 61.7007 306.779 60.7926 306.169 59.6193C305.559 58.4394 305.254 57.044 305.254 55.4332C305.254 53.8622 305.559 52.4834 306.169 51.2968C306.779 50.1103 307.637 49.1856 308.744 48.5227C309.858 47.8598 311.163 47.5284 312.662 47.5284C313.669 47.5284 314.607 47.6908 315.475 48.0156C316.35 48.3338 317.113 48.8144 317.762 49.4574C318.419 50.1004 318.929 50.9091 319.294 51.8835C319.658 52.8513 319.841 53.9848 319.841 55.2841V56.4474H306.944V53.8224H315.853C315.853 53.2126 315.721 52.6723 315.456 52.2017C315.19 51.731 314.823 51.3631 314.352 51.098C313.888 50.8262 313.348 50.6903 312.731 50.6903C312.088 50.6903 311.518 50.8395 311.021 51.1378C310.53 51.4294 310.146 51.8238 309.868 52.321C309.589 52.8115 309.447 53.3584 309.44 53.9616V56.4574C309.44 57.213 309.579 57.866 309.858 58.4162C310.143 58.9664 310.544 59.3906 311.061 59.6889C311.578 59.9872 312.191 60.1363 312.9 60.1363C313.371 60.1363 313.802 60.07 314.193 59.9375C314.584 59.8049 314.919 59.606 315.197 59.3409C315.475 59.0757 315.688 58.7509 315.833 58.3665L319.751 58.625C319.552 59.5663 319.145 60.3882 318.528 61.0909C317.918 61.7869 317.129 62.3305 316.162 62.7216C315.2 63.106 314.09 63.2983 312.831 63.2983Z" fill="#3579F3"/>
<path d="M299.929 53.6733V57.0042H291.955V53.6733H299.929ZM293.347 47.7272V63H289.3V47.7272H293.347ZM302.584 47.7272V63H298.567V47.7272H302.584Z" fill="#3579F3"/>
<path d="M269.321 67.4744V59.6392H270.495C270.833 59.427 271.104 59.089 271.31 58.625C271.522 58.1609 271.694 57.6141 271.827 56.9843C271.966 56.3546 272.072 55.6752 272.145 54.946C272.225 54.2102 272.294 53.4678 272.354 52.7187L272.752 47.7272H284.465V59.6392H286.831V67.4744H282.794V63H273.458V67.4744H269.321ZM274.71 59.6392H280.468V50.9886H276.351L276.192 52.7187C276.079 54.3494 275.917 55.7348 275.705 56.875C275.493 58.0085 275.161 58.9299 274.71 59.6392Z" fill="#3579F3"/>
<path d="M253.763 63.2983C252.219 63.2983 250.883 62.9701 249.756 62.3139C248.636 61.651 247.771 60.7296 247.161 59.5497C246.551 58.3631 246.246 56.9877 246.246 55.4233C246.246 53.8456 246.551 52.4668 247.161 51.2869C247.771 50.1004 248.636 49.1789 249.756 48.5227C250.883 47.8598 252.219 47.5284 253.763 47.5284C255.308 47.5284 256.64 47.8598 257.76 48.5227C258.887 49.1789 259.756 50.1004 260.365 51.2869C260.975 52.4668 261.28 53.8456 261.28 55.4233C261.28 56.9877 260.975 58.3631 260.365 59.5497C259.756 60.7296 258.887 61.651 257.76 62.3139C256.64 62.9701 255.308 63.2983 253.763 63.2983ZM253.783 60.017C254.486 60.017 255.072 59.8182 255.543 59.4204C256.014 59.0161 256.368 58.4659 256.607 57.7699C256.852 57.0738 256.975 56.2817 256.975 55.3934C256.975 54.5052 256.852 53.713 256.607 53.017C256.368 52.321 256.014 51.7708 255.543 51.3664C255.072 50.9621 254.486 50.7599 253.783 50.7599C253.074 50.7599 252.477 50.9621 251.993 51.3664C251.516 51.7708 251.155 52.321 250.909 53.017C250.671 53.713 250.551 54.5052 250.551 55.3934C250.551 56.2817 250.671 57.0738 250.909 57.7699C251.155 58.4659 251.516 59.0161 251.993 59.4204C252.477 59.8182 253.074 60.017 253.783 60.017Z" fill="#3579F3"/>
<path d="M231.085 63V47.7272H235.321V53.6534H236.514L240.67 47.7272H245.642L240.243 55.3039L245.701 63H240.67L236.902 57.5809H235.321V63H231.085Z" fill="#3579F3"/>
<path d="M217.279 52.4204H221.843C223.865 52.4204 225.442 52.9043 226.576 53.8721C227.709 54.8333 228.276 56.1193 228.276 57.7301C228.276 58.7774 228.021 59.6988 227.51 60.4943C227 61.2831 226.264 61.8996 225.303 62.3437C224.342 62.7812 223.188 63 221.843 63H214.624V47.7272H218.671V59.669H221.843C222.552 59.669 223.135 59.49 223.593 59.1321C224.05 58.7741 224.282 58.3167 224.289 57.7599C224.282 57.1699 224.05 56.6894 223.593 56.3181C223.135 55.9403 222.552 55.7514 221.843 55.7514H217.279V52.4204Z" fill="#3579F3"/>
<path d="M196.804 63L196.784 59.6392H197.291C197.649 59.6392 197.957 59.553 198.216 59.3806C198.481 59.2017 198.699 58.9133 198.872 58.5156C199.044 58.1179 199.18 57.5909 199.279 56.9346C199.379 56.2717 199.445 55.4564 199.478 54.4886L199.727 47.7272H211.341V63H207.304V51.0582H203.535L203.296 55.7216C203.237 57.0009 203.081 58.1013 202.829 59.0227C202.584 59.9441 202.243 60.6998 201.805 61.2897C201.368 61.8731 200.841 62.3039 200.224 62.5823C199.608 62.8608 198.892 63 198.076 63H196.804Z" fill="#3579F3"/>
<path d="M187.427 63.2983C185.883 63.2983 184.547 62.9701 183.42 62.3139C182.3 61.651 181.435 60.7296 180.825 59.5497C180.215 58.3631 179.91 56.9877 179.91 55.4233C179.91 53.8456 180.215 52.4668 180.825 51.2869C181.435 50.1004 182.3 49.1789 183.42 48.5227C184.547 47.8598 185.883 47.5284 187.427 47.5284C188.972 47.5284 190.304 47.8598 191.424 48.5227C192.551 49.1789 193.42 50.1004 194.029 51.2869C194.639 52.4668 194.944 53.8456 194.944 55.4233C194.944 56.9877 194.639 58.3631 194.029 59.5497C193.42 60.7296 192.551 61.651 191.424 62.3139C190.304 62.9701 188.972 63.2983 187.427 63.2983ZM187.447 60.017C188.15 60.017 188.736 59.8182 189.207 59.4204C189.678 59.0161 190.032 58.4659 190.271 57.7699C190.516 57.0738 190.639 56.2817 190.639 55.3934C190.639 54.5052 190.516 53.713 190.271 53.017C190.032 52.321 189.678 51.7708 189.207 51.3664C188.736 50.9621 188.15 50.7599 187.447 50.7599C186.738 50.7599 186.141 50.9621 185.657 51.3664C185.18 51.7708 184.819 52.321 184.574 53.017C184.335 53.713 184.216 54.5052 184.216 55.3934C184.216 56.2817 184.335 57.0738 184.574 57.7699C184.819 58.4659 185.18 59.0161 185.657 59.4204C186.141 59.8182 186.738 60.017 187.447 60.017Z" fill="#3579F3"/>
<path d="M164.749 63V47.7272H168.985V53.6534H170.178L174.334 47.7272H179.306L173.907 55.3039L179.365 63H174.334L170.566 57.5809H168.985V63H164.749Z" fill="#3579F3"/>
<path d="M155.216 63.2983C153.652 63.2983 152.306 62.9668 151.179 62.304C150.059 61.6344 149.197 60.7064 148.594 59.5199C147.998 58.3333 147.699 56.9678 147.699 55.4233C147.699 53.8589 148.001 52.4867 148.604 51.3068C149.214 50.1202 150.079 49.1955 151.199 48.5326C152.319 47.8631 153.652 47.5284 155.196 47.5284C156.529 47.5284 157.695 47.7703 158.696 48.2542C159.697 48.7381 160.489 49.4176 161.073 50.2926C161.656 51.1676 161.978 52.195 162.037 53.375H158.04C157.927 52.6127 157.629 51.9995 157.145 51.5355C156.668 51.0648 156.042 50.8295 155.266 50.8295C154.61 50.8295 154.036 51.0085 153.546 51.3664C153.062 51.7178 152.684 52.2315 152.412 52.9076C152.141 53.5838 152.005 54.4024 152.005 55.3636C152.005 56.338 152.137 57.1666 152.402 57.8494C152.674 58.5322 153.055 59.0525 153.546 59.4105C154.036 59.7684 154.61 59.9474 155.266 59.9474C155.75 59.9474 156.184 59.848 156.569 59.6491C156.96 59.4503 157.281 59.1619 157.533 58.7841C157.792 58.3996 157.961 57.9389 158.04 57.402H162.037C161.971 58.5686 161.653 59.5961 161.083 60.4843C160.519 61.366 159.74 62.0554 158.746 62.5525C157.752 63.0497 156.575 63.2983 155.216 63.2983Z" fill="#3579F3"/>
<path d="M138.542 63.2983C136.971 63.2983 135.618 62.9801 134.485 62.3437C133.358 61.7007 132.489 60.7926 131.88 59.6193C131.27 58.4394 130.965 57.044 130.965 55.4332C130.965 53.8622 131.27 52.4834 131.88 51.2968C132.489 50.1103 133.348 49.1856 134.455 48.5227C135.569 47.8598 136.874 47.5284 138.373 47.5284C139.38 47.5284 140.318 47.6908 141.186 48.0156C142.061 48.3338 142.824 48.8144 143.473 49.4574C144.13 50.1004 144.64 50.9091 145.005 51.8835C145.369 52.8513 145.551 53.9848 145.551 55.2841V56.4474H132.655V53.8224H141.564C141.564 53.2126 141.432 52.6723 141.167 52.2017C140.901 51.731 140.533 51.3631 140.063 51.098C139.599 50.8262 139.059 50.6903 138.442 50.6903C137.799 50.6903 137.229 50.8395 136.732 51.1378C136.241 51.4294 135.857 51.8238 135.578 52.321C135.3 52.8115 135.158 53.3584 135.151 53.9616V56.4574C135.151 57.213 135.29 57.866 135.569 58.4162C135.854 58.9664 136.255 59.3906 136.772 59.6889C137.289 59.9872 137.902 60.1363 138.611 60.1363C139.082 60.1363 139.513 60.07 139.904 59.9375C140.295 59.8049 140.63 59.606 140.908 59.3409C141.186 59.0757 141.399 58.7509 141.544 58.3665L145.462 58.625C145.263 59.5663 144.855 60.3882 144.239 61.0909C143.629 61.7869 142.84 62.3305 141.873 62.7216C140.911 63.106 139.801 63.2983 138.542 63.2983Z" fill="#3579F3"/>
<path d="M110.77 63V42.6364H115.075V51.0383H123.815V42.6364H128.111V63H123.815V54.5881H115.075V63H110.77Z" fill="#3579F3"/>
<path opacity="0.4" d="M220.115 87.0227L224.319 80.2727H225.865V89H224.524V82.25L220.342 89H218.774V80.2727H220.115V87.0227Z" fill="black"/>
<path opacity="0.4" d="M208.563 89V87.75H208.882C209.143 87.75 209.361 87.6988 209.535 87.5966C209.709 87.4905 209.849 87.3068 209.956 87.0454C210.065 86.7803 210.149 86.4129 210.206 85.9432C210.266 85.4697 210.31 84.8674 210.336 84.1363L210.495 80.2727H216.313V89H214.973V81.5227H211.768L211.632 84.6363C211.601 85.3523 211.537 85.9829 211.438 86.5284C211.344 87.0701 211.198 87.5246 211.001 87.892C210.808 88.2594 210.55 88.536 210.228 88.7216C209.906 88.9072 209.503 89 209.018 89H208.563Z" fill="black"/>
<path opacity="0.4" d="M203.683 89.1818C202.842 89.1818 202.117 88.9962 201.507 88.625C200.901 88.25 200.433 87.7272 200.103 87.0568C199.778 86.3825 199.615 85.5985 199.615 84.7045C199.615 83.8106 199.778 83.0227 200.103 82.3409C200.433 81.6553 200.891 81.1212 201.478 80.7386C202.069 80.3522 202.759 80.1591 203.547 80.1591C204.001 80.1591 204.45 80.2348 204.893 80.3863C205.336 80.5378 205.74 80.7841 206.103 81.125C206.467 81.4621 206.757 81.9091 206.973 82.4659C207.189 83.0227 207.297 83.7083 207.297 84.5227V85.0909H200.569V83.9318H205.933C205.933 83.4394 205.834 83 205.637 82.6136C205.444 82.2272 205.168 81.9223 204.808 81.6988C204.452 81.4753 204.031 81.3636 203.547 81.3636C203.012 81.3636 202.55 81.4962 202.16 81.7613C201.774 82.0227 201.476 82.3636 201.268 82.7841C201.06 83.2045 200.956 83.6553 200.956 84.1363V84.9091C200.956 85.5681 201.069 86.1269 201.297 86.5852C201.528 87.0397 201.848 87.3863 202.257 87.625C202.666 87.8598 203.141 87.9772 203.683 87.9772C204.035 87.9772 204.353 87.928 204.637 87.8295C204.925 87.7272 205.173 87.5757 205.382 87.375C205.59 87.1704 205.751 86.9166 205.865 86.6136L207.16 86.9772C207.024 87.4166 206.795 87.803 206.473 88.1363C206.151 88.4659 205.753 88.7235 205.28 88.9091C204.806 89.0909 204.274 89.1818 203.683 89.1818Z" fill="black"/>
<path opacity="0.4" d="M189.108 91.5V87.75H189.835C190.013 87.5644 190.167 87.3636 190.295 87.1477C190.424 86.9318 190.536 86.6761 190.631 86.3807C190.729 86.0814 190.812 85.7178 190.881 85.2898C190.949 84.8579 191.009 84.3371 191.062 83.7273L191.358 80.2727H196.903V87.75H198.244V91.5H196.903V89H190.449V91.5H189.108ZM191.358 87.75H195.562V81.5227H192.608L192.381 83.7273C192.286 84.6401 192.169 85.4375 192.028 86.1193C191.888 86.8011 191.665 87.3447 191.358 87.75Z" fill="black"/>
<path opacity="0.4" d="M184.386 89.1818C183.545 89.1818 182.82 88.9962 182.21 88.625C181.604 88.25 181.136 87.7272 180.807 87.0568C180.481 86.3825 180.318 85.5985 180.318 84.7045C180.318 83.8106 180.481 83.0227 180.807 82.3409C181.136 81.6553 181.594 81.1212 182.182 80.7386C182.772 80.3522 183.462 80.1591 184.25 80.1591C184.704 80.1591 185.153 80.2348 185.596 80.3863C186.039 80.5378 186.443 80.7841 186.807 81.125C187.17 81.4621 187.46 81.9091 187.676 82.4659C187.892 83.0227 188 83.7083 188 84.5227V85.0909H181.272V83.9318H186.636C186.636 83.4394 186.538 83 186.341 82.6136C186.147 82.2272 185.871 81.9223 185.511 81.6988C185.155 81.4753 184.735 81.3636 184.25 81.3636C183.716 81.3636 183.253 81.4962 182.863 81.7613C182.477 82.0227 182.18 82.3636 181.971 82.7841C181.763 83.2045 181.659 83.6553 181.659 84.1363V84.9091C181.659 85.5681 181.772 86.1269 182 86.5852C182.231 87.0397 182.551 87.3863 182.96 87.625C183.369 87.8598 183.844 87.9772 184.386 87.9772C184.738 87.9772 185.057 87.928 185.341 87.8295C185.628 87.7272 185.877 87.5757 186.085 87.375C186.293 87.1704 186.454 86.9166 186.568 86.6136L187.863 86.9772C187.727 87.4166 187.498 87.803 187.176 88.1363C186.854 88.4659 186.456 88.7235 185.983 88.9091C185.509 89.0909 184.977 89.1818 184.386 89.1818Z" fill="black"/>
<path opacity="0.4" d="M177.255 84.0227V85.2727H172.437V84.0227H177.255ZM172.755 80.2727V89H171.415V80.2727H172.755ZM178.278 80.2727V89H176.937V80.2727H178.278Z" fill="black"/>
<path opacity="0.4" d="M160.913 89.1818C160.125 89.1818 159.434 88.9943 158.839 88.6193C158.248 88.2443 157.786 87.7197 157.453 87.0454C157.123 86.3712 156.958 85.5833 156.958 84.6818C156.958 83.7727 157.123 82.9791 157.453 82.3011C157.786 81.6231 158.248 81.0966 158.839 80.7216C159.434 80.3466 160.125 80.1591 160.913 80.1591C161.701 80.1591 162.39 80.3466 162.981 80.7216C163.576 81.0966 164.038 81.6231 164.368 82.3011C164.701 82.9791 164.868 83.7727 164.868 84.6818C164.868 85.5833 164.701 86.3712 164.368 87.0454C164.038 87.7197 163.576 88.2443 162.981 88.6193C162.39 88.9943 161.701 89.1818 160.913 89.1818ZM160.913 87.9772C161.512 87.9772 162.004 87.8238 162.39 87.517C162.777 87.2102 163.063 86.8068 163.248 86.3068C163.434 85.8068 163.527 85.2651 163.527 84.6818C163.527 84.0985 163.434 83.5549 163.248 83.0511C163.063 82.5473 162.777 82.1401 162.39 81.8295C162.004 81.5189 161.512 81.3636 160.913 81.3636C160.315 81.3636 159.822 81.5189 159.436 81.8295C159.049 82.1401 158.763 82.5473 158.578 83.0511C158.392 83.5549 158.299 84.0985 158.299 84.6818C158.299 85.2651 158.392 85.8068 158.578 86.3068C158.763 86.8068 159.049 87.2102 159.436 87.517C159.822 87.8238 160.315 87.9772 160.913 87.9772Z" fill="black"/>
<path opacity="0.4" d="M148.774 81.5227V80.2727H155.865V81.5227H153.001V89H151.66V81.5227H148.774Z" fill="black"/>
<path opacity="0.4" d="M144.069 89.1818C143.251 89.1818 142.547 88.9886 141.956 88.6022C141.365 88.2159 140.91 87.6837 140.592 87.0056C140.274 86.3276 140.115 85.553 140.115 84.6818C140.115 83.7954 140.278 83.0132 140.603 82.3352C140.933 81.6534 141.391 81.1212 141.978 80.7386C142.569 80.3522 143.259 80.1591 144.047 80.1591C144.66 80.1591 145.213 80.2727 145.706 80.5C146.198 80.7272 146.601 81.0454 146.916 81.4545C147.23 81.8636 147.425 82.3409 147.501 82.8863H146.16C146.058 82.4886 145.831 82.1363 145.478 81.8295C145.13 81.5189 144.66 81.3636 144.069 81.3636C143.547 81.3636 143.088 81.5 142.694 81.7727C142.304 82.0416 141.999 82.4223 141.78 82.9147C141.564 83.4034 141.456 83.9772 141.456 84.6363C141.456 85.3106 141.562 85.8977 141.774 86.3977C141.99 86.8977 142.293 87.286 142.683 87.5625C143.077 87.839 143.539 87.9772 144.069 87.9772C144.418 87.9772 144.734 87.9166 145.018 87.7954C145.302 87.6742 145.543 87.5 145.74 87.2727C145.937 87.0454 146.077 86.7727 146.16 86.4545H147.501C147.425 86.9697 147.238 87.4337 146.939 87.8466C146.643 88.2556 146.251 88.5814 145.762 88.8238C145.278 89.0625 144.713 89.1818 144.069 89.1818Z" fill="black"/>
<path opacity="0.4" d="M134.87 89.1818C134.03 89.1818 133.304 88.9962 132.694 88.625C132.088 88.25 131.62 87.7272 131.291 87.0568C130.965 86.3825 130.802 85.5985 130.802 84.7045C130.802 83.8106 130.965 83.0227 131.291 82.3409C131.62 81.6553 132.079 81.1212 132.666 80.7386C133.257 80.3522 133.946 80.1591 134.734 80.1591C135.189 80.1591 135.637 80.2348 136.081 80.3863C136.524 80.5378 136.927 80.7841 137.291 81.125C137.655 81.4621 137.944 81.9091 138.16 82.4659C138.376 83.0227 138.484 83.7083 138.484 84.5227V85.0909H131.757V83.9318H137.12C137.12 83.4394 137.022 83 136.825 82.6136C136.632 82.2272 136.355 81.9223 135.995 81.6988C135.639 81.4753 135.219 81.3636 134.734 81.3636C134.2 81.3636 133.738 81.4962 133.348 81.7613C132.961 82.0227 132.664 82.3636 132.456 82.7841C132.247 83.2045 132.143 83.6553 132.143 84.1363V84.9091C132.143 85.5681 132.257 86.1269 132.484 86.5852C132.715 87.0397 133.035 87.3863 133.444 87.625C133.853 87.8598 134.329 87.9772 134.87 87.9772C135.223 87.9772 135.541 87.928 135.825 87.8295C136.113 87.7272 136.361 87.5757 136.569 87.375C136.778 87.1704 136.939 86.9166 137.052 86.6136L138.348 86.9772C138.211 87.4166 137.982 87.803 137.66 88.1363C137.338 88.4659 136.941 88.7235 136.467 88.9091C135.994 89.0909 135.461 89.1818 134.87 89.1818Z" fill="black"/>
<path opacity="0.4" d="M123.984 87.1818L127.03 80.2727H128.302L124.53 89H123.439L119.734 80.2727H120.984L123.984 87.1818ZM120.552 80.2727V89H119.211V80.2727H120.552ZM127.416 89V80.2727H128.757V89H127.416Z" fill="black"/>
<path opacity="0.4" d="M110.227 89V80.2727H113.795C114.735 80.2727 115.481 80.4848 116.034 80.9091C116.587 81.3333 116.863 81.8939 116.863 82.5909C116.863 83.1212 116.706 83.5322 116.392 83.8238C116.077 84.1117 115.674 84.3068 115.182 84.4091C115.504 84.4545 115.816 84.5682 116.119 84.75C116.426 84.9318 116.68 85.1818 116.88 85.5C117.081 85.8144 117.182 86.2007 117.182 86.6591C117.182 87.106 117.068 87.5057 116.841 87.8579C116.613 88.2102 116.288 88.4886 115.863 88.6932C115.439 88.8977 114.932 89 114.341 89H110.227ZM111.5 87.7727H114.341C114.803 87.7727 115.165 87.6629 115.426 87.4432C115.687 87.2235 115.818 86.9242 115.818 86.5454C115.818 86.0947 115.687 85.7405 115.426 85.4829C115.165 85.2216 114.803 85.0909 114.341 85.0909H111.5V87.7727ZM111.5 83.9318H113.795C114.155 83.9318 114.464 83.8826 114.721 83.7841C114.979 83.6818 115.176 83.5379 115.312 83.3523C115.452 83.1629 115.523 82.9394 115.523 82.6818C115.523 82.3144 115.369 82.0265 115.062 81.8182C114.755 81.606 114.333 81.5 113.795 81.5H111.5V83.9318Z" fill="black"/>
<path opacity="0.2" d="M427.5 47V82" stroke="#ABABAB" stroke-width="2"/>
<path d="M523.334 65C523.334 76.5 514 85.8334 502.5 85.8334C491 85.8334 481.667 76.5 481.667 65C481.667 53.5 491 44.1667 502.5 44.1667C514 44.1667 523.334 53.5 523.334 65Z" stroke="#4773FC" stroke-width="2.5" stroke-linecap="round" stroke-linejoin="round"/>
<path d="M510.229 71.625L503.771 67.7709C502.646 67.1042 501.729 65.5 501.729 64.1875V55.6459" stroke="#4773FC" stroke-width="2.5" stroke-linecap="round" stroke-linejoin="round"/>
<path d="M775.258 51.0582V47.7272H789.099V51.0582H784.177V63H780.14V51.0582H775.258Z" fill="#3579F3"/>
<path d="M762.263 68.7272C761.726 68.7272 761.222 68.6841 760.751 68.598C760.287 68.5184 759.903 68.4157 759.598 68.2897L760.552 65.1278C761.05 65.2803 761.497 65.3631 761.895 65.3764C762.299 65.3896 762.647 65.2968 762.939 65.098C763.237 64.8991 763.479 64.561 763.665 64.0838L763.913 63.4375L758.435 47.7272H762.889L766.051 58.9431H766.21L769.402 47.7272H773.886L767.95 64.6505C767.665 65.4725 767.277 66.1884 766.787 66.7983C766.303 67.4147 765.69 67.8887 764.947 68.2201C764.205 68.5582 763.31 68.7272 762.263 68.7272Z" fill="#3579F3"/>
<path d="M754.253 53.6733V57.0042H746.279V53.6733H754.253ZM747.671 47.7272V63H743.624V47.7272H747.671ZM756.908 47.7272V63H752.891V47.7272H756.908Z" fill="#3579F3"/>
<path d="M730.554 57.4119L736.052 47.7272H740.228V63H736.191V53.2855L730.713 63H726.507V47.7272H730.554V57.4119Z" fill="#3579F3"/>
<path d="M714.043 58.3167L718.179 47.7272H721.401L715.445 63H712.631L706.814 47.7272H710.026L714.043 58.3167ZM709.062 47.7272V63H705.015V47.7272H709.062ZM719.233 63V47.7272H723.231V63H719.233Z" fill="#3579F3"/>
<path d="M688.263 63.2983C686.719 63.2983 685.383 62.9701 684.256 62.3139C683.136 61.651 682.271 60.7296 681.661 59.5497C681.051 58.3631 680.746 56.9877 680.746 55.4233C680.746 53.8456 681.051 52.4668 681.661 51.2869C682.271 50.1004 683.136 49.1789 684.256 48.5227C685.383 47.8598 686.719 47.5284 688.263 47.5284C689.808 47.5284 691.14 47.8598 692.26 48.5227C693.387 49.1789 694.256 50.1004 694.865 51.2869C695.475 52.4668 695.78 53.8456 695.78 55.4233C695.78 56.9877 695.475 58.3631 694.865 59.5497C694.256 60.7296 693.387 61.651 692.26 62.3139C691.14 62.9701 689.808 63.2983 688.263 63.2983ZM688.283 60.017C688.986 60.017 689.572 59.8182 690.043 59.4204C690.514 59.0161 690.868 58.4659 691.107 57.7699C691.352 57.0738 691.475 56.2817 691.475 55.3934C691.475 54.5052 691.352 53.713 691.107 53.017C690.868 52.321 690.514 51.7708 690.043 51.3664C689.572 50.9621 688.986 50.7599 688.283 50.7599C687.574 50.7599 686.977 50.9621 686.493 51.3664C686.016 51.7708 685.655 52.321 685.409 53.017C685.171 53.713 685.051 54.5052 685.051 55.3934C685.051 56.2817 685.171 57.0738 685.409 57.7699C685.655 58.4659 686.016 59.0161 686.493 59.4204C686.977 59.8182 687.574 60.017 688.283 60.017Z" fill="#3579F3"/>
<path d="M665.585 63V47.7272H669.821V53.6534H671.014L675.17 47.7272H680.142L674.743 55.3039L680.201 63H675.17L671.402 57.5809H669.821V63H665.585Z" fill="#3579F3"/>
<path d="M651.779 52.4204H656.343C658.365 52.4204 659.942 52.9043 661.076 53.8721C662.209 54.8333 662.776 56.1193 662.776 57.7301C662.776 58.7774 662.521 59.6988 662.01 60.4943C661.5 61.2831 660.764 61.8996 659.803 62.3437C658.842 62.7812 657.688 63 656.343 63H649.124V47.7272H653.171V59.669H656.343C657.052 59.669 657.635 59.49 658.093 59.1321C658.55 58.7741 658.782 58.3167 658.789 57.7599C658.782 57.1699 658.55 56.6894 658.093 56.3181C657.635 55.9403 657.052 55.7514 656.343 55.7514H651.779V52.4204Z" fill="#3579F3"/>
<path d="M631.304 63L631.284 59.6392H631.791C632.149 59.6392 632.457 59.553 632.716 59.3806C632.981 59.2017 633.199 58.9133 633.372 58.5156C633.544 58.1179 633.68 57.5909 633.779 56.9346C633.879 56.2717 633.945 55.4564 633.978 54.4886L634.227 47.7272H645.841V63H641.804V51.0582H638.035L637.796 55.7216C637.737 57.0009 637.581 58.1013 637.329 59.0227C637.084 59.9441 636.743 60.6998 636.305 61.2897C635.868 61.8731 635.341 62.3039 634.724 62.5823C634.108 62.8608 633.392 63 632.576 63H631.304Z" fill="#3579F3"/>
<path d="M621.927 63.2983C620.383 63.2983 619.047 62.9701 617.92 62.3139C616.8 61.651 615.935 60.7296 615.325 59.5497C614.715 58.3631 614.41 56.9877 614.41 55.4233C614.41 53.8456 614.715 52.4668 615.325 51.2869C615.935 50.1004 616.8 49.1789 617.92 48.5227C619.047 47.8598 620.383 47.5284 621.927 47.5284C623.472 47.5284 624.804 47.8598 625.924 48.5227C627.051 49.1789 627.92 50.1004 628.529 51.2869C629.139 52.4668 629.444 53.8456 629.444 55.4233C629.444 56.9877 629.139 58.3631 628.529 59.5497C627.92 60.7296 627.051 61.651 625.924 62.3139C624.804 62.9701 623.472 63.2983 621.927 63.2983ZM621.947 60.017C622.65 60.017 623.236 59.8182 623.707 59.4204C624.178 59.0161 624.532 58.4659 624.771 57.7699C625.016 57.0738 625.139 56.2817 625.139 55.3934C625.139 54.5052 625.016 53.713 624.771 53.017C624.532 52.321 624.178 51.7708 623.707 51.3664C623.236 50.9621 622.65 50.7599 621.947 50.7599C621.238 50.7599 620.641 50.9621 620.157 51.3664C619.68 51.7708 619.319 52.321 619.074 53.017C618.835 53.713 618.716 54.5052 618.716 55.3934C618.716 56.2817 618.835 57.0738 619.074 57.7699C619.319 58.4659 619.68 59.0161 620.157 59.4204C620.641 59.8182 621.238 60.017 621.947 60.017Z" fill="#3579F3"/>
<path d="M599.249 63V47.7272H603.485V53.6534H604.678L608.834 47.7272H613.806L608.407 55.3039L613.865 63H608.834L605.066 57.5809H603.485V63H599.249Z" fill="#3579F3"/>
<path d="M589.716 63.2983C588.152 63.2983 586.806 62.9668 585.679 62.304C584.559 61.6344 583.697 60.7064 583.094 59.5199C582.498 58.3333 582.199 56.9678 582.199 55.4233C582.199 53.8589 582.501 52.4867 583.104 51.3068C583.714 50.1202 584.579 49.1955 585.699 48.5326C586.819 47.8631 588.152 47.5284 589.696 47.5284C591.029 47.5284 592.195 47.7703 593.196 48.2542C594.197 48.7381 594.989 49.4176 595.573 50.2926C596.156 51.1676 596.478 52.195 596.537 53.375H592.54C592.427 52.6127 592.129 51.9995 591.645 51.5355C591.168 51.0648 590.542 50.8295 589.766 50.8295C589.11 50.8295 588.536 51.0085 588.046 51.3664C587.562 51.7178 587.184 52.2315 586.912 52.9076C586.641 53.5838 586.505 54.4024 586.505 55.3636C586.505 56.338 586.637 57.1666 586.902 57.8494C587.174 58.5322 587.555 59.0525 588.046 59.4105C588.536 59.7684 589.11 59.9474 589.766 59.9474C590.25 59.9474 590.684 59.848 591.069 59.6491C591.46 59.4503 591.781 59.1619 592.033 58.7841C592.292 58.3996 592.461 57.9389 592.54 57.402H596.537C596.471 58.5686 596.153 59.5961 595.583 60.4843C595.019 61.366 594.24 62.0554 593.246 62.5525C592.252 63.0497 591.075 63.2983 589.716 63.2983Z" fill="#3579F3"/>
<path d="M573.042 63.2983C571.471 63.2983 570.118 62.9801 568.985 62.3437C567.858 61.7007 566.989 60.7926 566.38 59.6193C565.77 58.4394 565.465 57.044 565.465 55.4332C565.465 53.8622 565.77 52.4834 566.38 51.2968C566.989 50.1103 567.848 49.1856 568.955 48.5227C570.069 47.8598 571.374 47.5284 572.873 47.5284C573.88 47.5284 574.818 47.6908 575.686 48.0156C576.561 48.3338 577.324 48.8144 577.973 49.4574C578.63 50.1004 579.14 50.9091 579.505 51.8835C579.869 52.8513 580.051 53.9848 580.051 55.2841V56.4474H567.155V53.8224H576.064C576.064 53.2126 575.932 52.6723 575.667 52.2017C575.401 51.731 575.033 51.3631 574.563 51.098C574.099 50.8262 573.559 50.6903 572.942 50.6903C572.299 50.6903 571.729 50.8395 571.232 51.1378C570.741 51.4294 570.357 51.8238 570.078 52.321C569.8 52.8115 569.658 53.3584 569.651 53.9616V56.4574C569.651 57.213 569.79 57.866 570.069 58.4162C570.354 58.9664 570.755 59.3906 571.272 59.6889C571.789 59.9872 572.402 60.1363 573.111 60.1363C573.582 60.1363 574.013 60.07 574.404 59.9375C574.795 59.8049 575.13 59.606 575.408 59.3409C575.686 59.0757 575.899 58.7509 576.044 58.3665L579.962 58.625C579.763 59.5663 579.355 60.3882 578.739 61.0909C578.129 61.7869 577.34 62.3305 576.373 62.7216C575.411 63.106 574.301 63.2983 573.042 63.2983Z" fill="#3579F3"/>
<path d="M545.27 63V42.6364H549.575V51.0383H558.315V42.6364H562.611V63H558.315V54.5881H549.575V63H545.27Z" fill="#3579F3"/>
<path opacity="0.4" d="M656.79 89V80.2727H660.358C661.298 80.2727 662.044 80.4848 662.597 80.9091C663.15 81.3333 663.426 81.8939 663.426 82.5909C663.426 83.1212 663.269 83.5322 662.955 83.8238C662.64 84.1117 662.237 84.3068 661.745 84.4091C662.067 84.4545 662.379 84.5682 662.682 84.75C662.989 84.9318 663.243 85.1818 663.443 85.5C663.644 85.8144 663.745 86.2007 663.745 86.6591C663.745 87.106 663.631 87.5057 663.404 87.8579C663.176 88.2102 662.851 88.4886 662.426 88.6932C662.002 88.8977 661.495 89 660.904 89H656.79ZM658.063 87.7727H660.904C661.366 87.7727 661.728 87.6629 661.989 87.4432C662.25 87.2235 662.381 86.9242 662.381 86.5454C662.381 86.0947 662.25 85.7405 661.989 85.4829C661.728 85.2216 661.366 85.0909 660.904 85.0909H658.063V87.7727ZM658.063 83.9318H660.358C660.718 83.9318 661.027 83.8826 661.284 83.7841C661.542 83.6818 661.739 83.5379 661.875 83.3523C662.015 83.1629 662.085 82.9394 662.085 82.6818C662.085 82.3144 661.932 82.0265 661.625 81.8182C661.318 81.606 660.896 81.5 660.358 81.5H658.063V83.9318Z" fill="black"/>
<path opacity="0.4" d="M650.789 89.1818C650.001 89.1818 649.309 88.9943 648.715 88.6193C648.124 88.2443 647.662 87.7197 647.328 87.0454C646.999 86.3712 646.834 85.5833 646.834 84.6818C646.834 83.7727 646.999 82.9791 647.328 82.3011C647.662 81.6231 648.124 81.0966 648.715 80.7216C649.309 80.3466 650.001 80.1591 650.789 80.1591C651.576 80.1591 652.266 80.3466 652.857 80.7216C653.451 81.0966 653.914 81.6231 654.243 82.3011C654.576 82.9791 654.743 83.7727 654.743 84.6818C654.743 85.5833 654.576 86.3712 654.243 87.0454C653.914 87.7197 653.451 88.2443 652.857 88.6193C652.266 88.9943 651.576 89.1818 650.789 89.1818ZM650.789 87.9772C651.387 87.9772 651.879 87.8238 652.266 87.517C652.652 87.2102 652.938 86.8068 653.124 86.3068C653.309 85.8068 653.402 85.2651 653.402 84.6818C653.402 84.0985 653.309 83.5549 653.124 83.0511C652.938 82.5473 652.652 82.1401 652.266 81.8295C651.879 81.5189 651.387 81.3636 650.789 81.3636C650.19 81.3636 649.698 81.5189 649.311 81.8295C648.925 82.1401 648.639 82.5473 648.453 83.0511C648.268 83.5549 648.175 84.0985 648.175 84.6818C648.175 85.2651 648.268 85.8068 648.453 86.3068C648.639 86.8068 648.925 87.2102 649.311 87.517C649.698 87.8238 650.19 87.9772 650.789 87.9772Z" fill="black"/>
<path opacity="0.4" d="M641.851 89.1818C641.033 89.1818 640.328 88.9886 639.737 88.6022C639.146 88.2159 638.692 87.6837 638.374 87.0056C638.056 86.3276 637.896 85.553 637.896 84.6818C637.896 83.7954 638.059 83.0132 638.385 82.3352C638.715 81.6534 639.173 81.1212 639.76 80.7386C640.351 80.3522 641.04 80.1591 641.828 80.1591C642.442 80.1591 642.995 80.2727 643.487 80.5C643.98 80.7272 644.383 81.0454 644.698 81.4545C645.012 81.8636 645.207 82.3409 645.283 82.8863H643.942C643.84 82.4886 643.612 82.1363 643.26 81.8295C642.912 81.5189 642.442 81.3636 641.851 81.3636C641.328 81.3636 640.87 81.5 640.476 81.7727C640.086 82.0416 639.781 82.4223 639.561 82.9147C639.345 83.4034 639.237 83.9772 639.237 84.6363C639.237 85.3106 639.343 85.8977 639.556 86.3977C639.771 86.8977 640.075 87.286 640.465 87.5625C640.859 87.839 641.321 87.9772 641.851 87.9772C642.2 87.9772 642.516 87.9166 642.8 87.7954C643.084 87.6742 643.325 87.5 643.521 87.2727C643.718 87.0454 643.859 86.7727 643.942 86.4545H645.283C645.207 86.9697 645.02 87.4337 644.72 87.8466C644.425 88.2556 644.033 88.5814 643.544 88.8238C643.059 89.0625 642.495 89.1818 641.851 89.1818Z" fill="black"/>
<path opacity="0.4" d="M631.858 89.2045C631.305 89.2045 630.803 89.1003 630.352 88.892C629.902 88.6799 629.544 88.375 629.279 87.9772C629.013 87.5757 628.881 87.0909 628.881 86.5227C628.881 86.0227 628.979 85.6174 629.176 85.3068C629.373 84.9924 629.637 84.7462 629.966 84.5681C630.296 84.3901 630.659 84.2575 631.057 84.1704C631.459 84.0795 631.862 84.0075 632.267 83.9545C632.798 83.8863 633.227 83.8352 633.557 83.8011C633.89 83.7632 634.133 83.7007 634.284 83.6136C634.44 83.5265 634.517 83.375 634.517 83.1591V83.1136C634.517 82.553 634.364 82.1174 634.057 81.8068C633.754 81.4962 633.294 81.3409 632.676 81.3409C632.036 81.3409 631.534 81.481 631.171 81.7613C630.807 82.0416 630.551 82.3409 630.404 82.6591L629.131 82.2045C629.358 81.6742 629.661 81.2613 630.04 80.9659C630.423 80.6666 630.839 80.4583 631.29 80.3409C631.744 80.2197 632.191 80.1591 632.631 80.1591C632.911 80.1591 633.233 80.1931 633.597 80.2613C633.964 80.3257 634.318 80.4602 634.659 80.6647C635.004 80.8693 635.29 81.178 635.517 81.5909C635.744 82.0038 635.858 82.5568 635.858 83.25V89H634.517V87.8181H634.449C634.358 88.0075 634.207 88.2102 633.994 88.4261C633.782 88.642 633.5 88.8257 633.148 88.9772C632.796 89.1288 632.366 89.2045 631.858 89.2045ZM632.063 88C632.593 88 633.04 87.8958 633.404 87.6875C633.771 87.4791 634.048 87.2102 634.233 86.8806C634.423 86.5511 634.517 86.2045 634.517 85.8409V84.6136C634.46 84.6818 634.335 84.7443 634.142 84.8011C633.953 84.8541 633.733 84.9015 633.483 84.9431C633.237 84.981 632.996 85.0151 632.762 85.0454C632.53 85.0719 632.343 85.0947 632.199 85.1136C631.851 85.1591 631.525 85.2329 631.222 85.3352C630.923 85.4337 630.68 85.5833 630.494 85.7841C630.313 85.981 630.222 86.25 630.222 86.5909C630.222 87.0568 630.394 87.4091 630.739 87.6477C631.087 87.8825 631.529 88 632.063 88Z" fill="black"/>
<path opacity="0.4" d="M626.83 80.2727V89H625.489V80.2727H626.83ZM626.307 84.4318V85.6818C626.004 85.7955 625.703 85.8958 625.404 85.983C625.104 86.0663 624.79 86.1326 624.46 86.1818C624.131 86.2273 623.769 86.25 623.375 86.25C622.387 86.25 621.593 85.983 620.995 85.4489C620.4 84.9148 620.103 84.1136 620.103 83.0455V80.25H621.443V83.0455C621.443 83.4924 621.529 83.8598 621.699 84.1477C621.87 84.4356 622.101 84.6496 622.392 84.7898C622.684 84.9299 623.012 85 623.375 85C623.943 85 624.457 84.9489 624.915 84.8466C625.377 84.7405 625.841 84.6023 626.307 84.4318Z" fill="black"/>
<path opacity="0.4" d="M605.892 89V87.9773L609.733 83.7727C610.184 83.2803 610.555 82.8523 610.847 82.4886C611.138 82.1212 611.354 81.7765 611.494 81.4545C611.638 81.1288 611.71 80.7879 611.71 80.4318C611.71 80.0227 611.612 79.6685 611.415 79.3693C611.222 79.0701 610.956 78.839 610.619 78.6761C610.282 78.5132 609.903 78.4318 609.483 78.4318C609.036 78.4318 608.646 78.5246 608.313 78.7102C607.983 78.892 607.727 79.1477 607.546 79.4773C607.367 79.8068 607.278 80.1932 607.278 80.6363H605.938C605.938 79.9545 606.095 79.356 606.409 78.8409C606.724 78.3257 607.152 77.9242 607.693 77.6363C608.239 77.3485 608.85 77.2045 609.528 77.2045C610.21 77.2045 610.814 77.3485 611.341 77.6363C611.867 77.9242 612.28 78.3125 612.58 78.8011C612.879 79.2898 613.028 79.8333 613.028 80.4318C613.028 80.8598 612.951 81.2784 612.796 81.6875C612.644 82.0928 612.379 82.5454 612 83.0454C611.625 83.5416 611.104 84.1477 610.438 84.8636L607.824 87.6591V87.75H613.233V89H605.892Z" fill="black"/>
<path opacity="0.4" d="M595.414 89.1818C594.626 89.1818 593.934 88.9943 593.34 88.6193C592.749 88.2443 592.287 87.7197 591.953 87.0454C591.624 86.3712 591.459 85.5833 591.459 84.6818C591.459 83.7727 591.624 82.9791 591.953 82.3011C592.287 81.6231 592.749 81.0966 593.34 80.7216C593.934 80.3466 594.626 80.1591 595.414 80.1591C596.201 80.1591 596.891 80.3466 597.482 80.7216C598.076 81.0966 598.539 81.6231 598.868 82.3011C599.201 82.9791 599.368 83.7727 599.368 84.6818C599.368 85.5833 599.201 86.3712 598.868 87.0454C598.539 87.7197 598.076 88.2443 597.482 88.6193C596.891 88.9943 596.201 89.1818 595.414 89.1818ZM595.414 87.9772C596.012 87.9772 596.504 87.8238 596.891 87.517C597.277 87.2102 597.563 86.8068 597.749 86.3068C597.934 85.8068 598.027 85.2651 598.027 84.6818C598.027 84.0985 597.934 83.5549 597.749 83.0511C597.563 82.5473 597.277 82.1401 596.891 81.8295C596.504 81.5189 596.012 81.3636 595.414 81.3636C594.815 81.3636 594.323 81.5189 593.936 81.8295C593.55 82.1401 593.264 82.5473 593.078 83.0511C592.893 83.5549 592.8 84.0985 592.8 84.6818C592.8 85.2651 592.893 85.8068 593.078 86.3068C593.264 86.8068 593.55 87.2102 593.936 87.517C594.323 87.8238 594.815 87.9772 595.414 87.9772Z" fill="black"/>
<path opacity="0.4" d="M583.274 81.5227V80.2727H590.365V81.5227H587.502V89H586.161V81.5227H583.274Z" fill="black"/>
<path opacity="0.4" d="M578.57 89.1818C577.752 89.1818 577.047 88.9886 576.456 88.6022C575.865 88.2159 575.411 87.6837 575.093 87.0056C574.774 86.3276 574.615 85.553 574.615 84.6818C574.615 83.7954 574.778 83.0132 575.104 82.3352C575.433 81.6534 575.892 81.1212 576.479 80.7386C577.07 80.3522 577.759 80.1591 578.547 80.1591C579.161 80.1591 579.714 80.2727 580.206 80.5C580.699 80.7272 581.102 81.0454 581.416 81.4545C581.731 81.8636 581.926 82.3409 582.002 82.8863H580.661C580.558 82.4886 580.331 82.1363 579.979 81.8295C579.63 81.5189 579.161 81.3636 578.57 81.3636C578.047 81.3636 577.589 81.5 577.195 81.7727C576.805 82.0416 576.5 82.4223 576.28 82.9147C576.064 83.4034 575.956 83.9772 575.956 84.6363C575.956 85.3106 576.062 85.8977 576.274 86.3977C576.49 86.8977 576.793 87.286 577.183 87.5625C577.577 87.839 578.039 87.9772 578.57 87.9772C578.918 87.9772 579.235 87.9166 579.519 87.7954C579.803 87.6742 580.043 87.5 580.24 87.2727C580.437 87.0454 580.577 86.7727 580.661 86.4545H582.002C581.926 86.9697 581.738 87.4337 581.439 87.8466C581.144 88.2556 580.752 88.5814 580.263 88.8238C579.778 89.0625 579.214 89.1818 578.57 89.1818Z" fill="black"/>
<path opacity="0.4" d="M569.371 89.1818C568.53 89.1818 567.805 88.9962 567.195 88.625C566.589 88.25 566.121 87.7272 565.791 87.0568C565.466 86.3825 565.303 85.5985 565.303 84.7045C565.303 83.8106 565.466 83.0227 565.791 82.3409C566.121 81.6553 566.579 81.1212 567.166 80.7386C567.757 80.3522 568.447 80.1591 569.235 80.1591C569.689 80.1591 570.138 80.2348 570.581 80.3863C571.024 80.5378 571.428 80.7841 571.791 81.125C572.155 81.4621 572.445 81.9091 572.661 82.4659C572.877 83.0227 572.985 83.7083 572.985 84.5227V85.0909H566.257V83.9318H571.621C571.621 83.4394 571.522 83 571.325 82.6136C571.132 82.2272 570.856 81.9223 570.496 81.6988C570.14 81.4753 569.719 81.3636 569.235 81.3636C568.7 81.3636 568.238 81.4962 567.848 81.7613C567.462 82.0227 567.164 82.3636 566.956 82.7841C566.748 83.2045 566.644 83.6553 566.644 84.1363V84.9091C566.644 85.5681 566.757 86.1269 566.985 86.5852C567.216 87.0397 567.536 87.3863 567.945 87.625C568.354 87.8598 568.829 87.9772 569.371 87.9772C569.723 87.9772 570.041 87.928 570.325 87.8295C570.613 87.7272 570.861 87.5757 571.07 87.375C571.278 87.1704 571.439 86.9166 571.553 86.6136L572.848 86.9772C572.712 87.4166 572.483 87.803 572.161 88.1363C571.839 88.4659 571.441 88.7235 570.968 88.9091C570.494 89.0909 569.962 89.1818 569.371 89.1818Z" fill="black"/>
<path opacity="0.4" d="M558.485 87.1818L561.53 80.2727H562.803L559.03 89H557.939L554.235 80.2727H555.485L558.485 87.1818ZM555.053 80.2727V89H553.712V80.2727H555.053ZM561.916 89V80.2727H563.257V89H561.916Z" fill="black"/>
<path opacity="0.4" d="M544.728 89V80.2727H548.296C549.235 80.2727 549.981 80.4848 550.534 80.9091C551.087 81.3333 551.364 81.8939 551.364 82.5909C551.364 83.1212 551.207 83.5322 550.892 83.8238C550.578 84.1117 550.175 84.3068 549.682 84.4091C550.004 84.4545 550.317 84.5682 550.62 84.75C550.926 84.9318 551.18 85.1818 551.381 85.5C551.582 85.8144 551.682 86.2007 551.682 86.6591C551.682 87.106 551.568 87.5057 551.341 87.8579C551.114 88.2102 550.788 88.4886 550.364 88.6932C549.94 88.8977 549.432 89 548.841 89H544.728ZM546 87.7727H548.841C549.303 87.7727 549.665 87.6629 549.926 87.4432C550.188 87.2235 550.318 86.9242 550.318 86.5454C550.318 86.0947 550.188 85.7405 549.926 85.4829C549.665 85.2216 549.303 85.0909 548.841 85.0909H546V87.7727ZM546 83.9318H548.296C548.656 83.9318 548.964 83.8826 549.222 83.7841C549.479 83.6818 549.676 83.5379 549.813 83.3523C549.953 83.1629 550.023 82.9394 550.023 82.6818C550.023 82.3144 549.87 82.0265 549.563 81.8182C549.256 81.606 548.834 81.5 548.296 81.5H546V83.9318Z" fill="black"/>
</svg>
