<svg width="860" height="228" viewBox="0 0 860 228" fill="none" xmlns="http://www.w3.org/2000/svg">
<rect width="860" height="228" fill="white"/>
<rect x="10" y="10" width="295" height="164" rx="30" fill="#051F51" fill-opacity="0.04"/>
<path d="M52.9478 45.1818V59H50.06V47.5568H44.4734V59H41.5856V45.1818H52.9478ZM59.6383 59.2024C58.5723 59.2024 57.6547 58.9865 56.8855 58.5547C56.1208 58.1184 55.5316 57.5021 55.1178 56.706C54.7039 55.9053 54.497 54.9585 54.497 53.8654C54.497 52.7994 54.7039 51.8638 55.1178 51.0586C55.5316 50.2534 56.1141 49.6259 56.8653 49.1761C57.6209 48.7263 58.5071 48.5014 59.5236 48.5014C60.2074 48.5014 60.8438 48.6116 61.4331 48.832C62.0268 49.0479 62.5441 49.3741 62.9849 49.8104C63.4303 50.2467 63.7766 50.7955 64.024 51.4567C64.2714 52.1134 64.3951 52.8826 64.3951 53.7642V54.5536H55.644V52.7724H61.6895C61.6895 52.3585 61.5995 51.992 61.4196 51.6726C61.2397 51.3532 60.99 51.1036 60.6707 50.9237C60.3558 50.7392 59.9892 50.647 59.5709 50.647C59.1346 50.647 58.7477 50.7482 58.4104 50.9506C58.0775 51.1486 57.8166 51.4162 57.6277 51.7536C57.4388 52.0864 57.3421 52.4575 57.3376 52.8668V54.5604C57.3376 55.0732 57.432 55.5162 57.6209 55.8896C57.8144 56.2629 58.0865 56.5508 58.4374 56.7532C58.7882 56.9556 59.2043 57.0568 59.6856 57.0568C60.0049 57.0568 60.2973 57.0118 60.5627 56.9219C60.8281 56.8319 61.0553 56.697 61.2442 56.517C61.4331 56.3371 61.577 56.1167 61.676 55.8558L64.3344 56.0312C64.1994 56.67 63.9228 57.2277 63.5045 57.7045C63.0906 58.1768 62.5554 58.5457 61.8986 58.8111C61.2464 59.072 60.493 59.2024 59.6383 59.2024ZM65.5108 62.8864V48.6364H68.3446V50.3771H68.4728C68.5988 50.0982 68.7809 49.8149 69.0193 49.527C69.2622 49.2346 69.5771 48.9917 69.9639 48.7983C70.3553 48.6004 70.8411 48.5014 71.4213 48.5014C72.177 48.5014 72.8742 48.6993 73.5129 49.0952C74.1517 49.4865 74.6622 50.078 75.0445 50.8697C75.4269 51.6568 75.6181 52.6442 75.6181 53.8317C75.6181 54.9877 75.4314 55.9638 75.058 56.7599C74.6892 57.5516 74.1854 58.1521 73.5467 58.5614C72.9124 58.9663 72.2017 59.1687 71.4146 59.1687C70.8568 59.1687 70.3823 59.0765 69.9909 58.892C69.6041 58.7076 69.287 58.476 69.0396 58.1971C68.7922 57.9137 68.6033 57.6281 68.4728 57.3402H68.3851V62.8864H65.5108ZM68.3244 53.8182C68.3244 54.4344 68.4098 54.9719 68.5808 55.4308C68.7517 55.8896 68.9991 56.2472 69.323 56.5036C69.6468 56.7554 70.0404 56.8814 70.5037 56.8814C70.9715 56.8814 71.3673 56.7532 71.6912 56.4968C72.0151 56.2359 72.2602 55.8761 72.4266 55.4173C72.5976 54.954 72.683 54.4209 72.683 53.8182C72.683 53.2199 72.5998 52.6937 72.4334 52.2393C72.267 51.785 72.0218 51.4297 71.698 51.1733C71.3741 50.9169 70.976 50.7887 70.5037 50.7887C70.0359 50.7887 69.6401 50.9124 69.3162 51.1598C68.9968 51.4072 68.7517 51.758 68.5808 52.2124C68.4098 52.6667 68.3244 53.2019 68.3244 53.8182ZM76.7742 59V48.6364H81.1936C82.4711 48.6364 83.4809 48.8793 84.2231 49.3651C84.9653 49.8509 85.3364 50.5413 85.3364 51.4364C85.3364 51.9987 85.1272 52.4665 84.7089 52.8398C84.2906 53.2132 83.7103 53.4651 82.9681 53.5955C83.5889 53.6405 84.1174 53.7822 84.5537 54.0206C84.9945 54.2545 85.3296 54.5581 85.559 54.9315C85.7929 55.3048 85.9099 55.7186 85.9099 56.1729C85.9099 56.7622 85.7525 57.2682 85.4376 57.6911C85.1272 58.1139 84.6707 58.4377 84.0679 58.6626C83.4697 58.8875 82.7387 59 81.8751 59H76.7742ZM79.4529 56.8477H81.8751C82.2754 56.8477 82.588 56.7532 82.813 56.5643C83.0424 56.3709 83.1571 56.1077 83.1571 55.7749C83.1571 55.406 83.0424 55.1159 82.813 54.9045C82.588 54.6931 82.2754 54.5874 81.8751 54.5874H79.4529V56.8477ZM79.4529 52.9006H81.2544C81.5422 52.9006 81.7874 52.8601 81.9898 52.7791C82.1967 52.6937 82.3541 52.5722 82.4621 52.4148C82.5746 52.2573 82.6308 52.0707 82.6308 51.8548C82.6308 51.5354 82.5026 51.2857 82.2462 51.1058C81.9898 50.9259 81.6389 50.8359 81.1936 50.8359H79.4529V52.9006ZM91.644 59.2024C90.596 59.2024 89.6896 58.9798 88.9249 58.5344C88.1648 58.0846 87.5777 57.4594 87.1639 56.6587C86.7501 55.8536 86.5432 54.9202 86.5432 53.8587C86.5432 52.7881 86.7501 51.8525 87.1639 51.0518C87.5777 50.2467 88.1648 49.6214 88.9249 49.1761C89.6896 48.7263 90.596 48.5014 91.644 48.5014C92.6921 48.5014 93.5962 48.7263 94.3564 49.1761C95.1211 49.6214 95.7103 50.2467 96.1242 51.0518C96.538 51.8525 96.7449 52.7881 96.7449 53.8587C96.7449 54.9202 96.538 55.8536 96.1242 56.6587C95.7103 57.4594 95.1211 58.0846 94.3564 58.5344C93.5962 58.9798 92.6921 59.2024 91.644 59.2024ZM91.6575 56.9759C92.1343 56.9759 92.5324 56.8409 92.8518 56.571C93.1711 56.2966 93.4118 55.9233 93.5737 55.451C93.7402 54.9787 93.8234 54.4412 93.8234 53.8384C93.8234 53.2357 93.7402 52.6982 93.5737 52.2259C93.4118 51.7536 93.1711 51.3802 92.8518 51.1058C92.5324 50.8314 92.1343 50.6942 91.6575 50.6942C91.1762 50.6942 90.7714 50.8314 90.443 51.1058C90.1192 51.3802 89.874 51.7536 89.7076 52.2259C89.5457 52.6982 89.4647 53.2357 89.4647 53.8384C89.4647 54.4412 89.5457 54.9787 89.7076 55.451C89.874 55.9233 90.1192 56.2966 90.443 56.571C90.7714 56.8409 91.1762 56.9759 91.6575 56.9759ZM105.067 52.6712V54.9315H99.6553V52.6712H105.067ZM100.6 48.6364V59H97.8539V48.6364H100.6ZM106.868 48.6364V59H104.142V48.6364H106.868ZM111.293 59.1957C110.632 59.1957 110.043 59.081 109.525 58.8516C109.008 58.6177 108.599 58.2736 108.298 57.8192C108.001 57.3604 107.852 56.7892 107.852 56.1055C107.852 55.5297 107.958 55.0462 108.169 54.6548C108.381 54.2635 108.669 53.9486 109.033 53.7102C109.397 53.4718 109.811 53.2919 110.274 53.1705C110.742 53.049 111.233 52.9635 111.745 52.9141C112.348 52.8511 112.834 52.7926 113.203 52.7386C113.572 52.6802 113.839 52.5947 114.006 52.4822C114.172 52.3698 114.255 52.2034 114.255 51.983V51.9425C114.255 51.5152 114.12 51.1845 113.85 50.9506C113.585 50.7167 113.207 50.5998 112.717 50.5998C112.2 50.5998 111.788 50.7145 111.482 50.9439C111.176 51.1688 110.974 51.4522 110.875 51.794L108.217 51.5781C108.351 50.9484 108.617 50.4041 109.013 49.9453C109.409 49.482 109.919 49.1267 110.544 48.8793C111.174 48.6274 111.903 48.5014 112.73 48.5014C113.306 48.5014 113.857 48.5689 114.383 48.7038C114.914 48.8388 115.384 49.0479 115.794 49.3313C116.207 49.6147 116.534 49.979 116.772 50.4244C117.01 50.8652 117.13 51.3937 117.13 52.0099V59H114.404V57.5629H114.323C114.156 57.8867 113.934 58.1723 113.655 58.4197C113.376 58.6626 113.041 58.8538 112.649 58.9933C112.258 59.1282 111.806 59.1957 111.293 59.1957ZM112.116 57.212C112.539 57.212 112.913 57.1288 113.236 56.9624C113.56 56.7914 113.814 56.562 113.999 56.2741C114.183 55.9863 114.275 55.6602 114.275 55.2958V54.196C114.186 54.2545 114.062 54.3085 113.904 54.358C113.751 54.4029 113.578 54.4457 113.385 54.4862C113.191 54.5221 112.998 54.5559 112.805 54.5874C112.611 54.6143 112.436 54.6391 112.278 54.6616C111.941 54.7111 111.646 54.7898 111.394 54.8977C111.143 55.0057 110.947 55.1519 110.807 55.3363C110.668 55.5162 110.598 55.7411 110.598 56.011C110.598 56.4023 110.74 56.7015 111.023 56.9084C111.311 57.1108 111.676 57.212 112.116 57.212ZM127.593 48.6364V59H124.868V48.6364H127.593ZM126.264 53.1839V55.451C126.044 55.55 125.769 55.6444 125.441 55.7344C125.113 55.8198 124.769 55.8896 124.409 55.9435C124.049 55.9975 123.712 56.0245 123.397 56.0245C121.908 56.0245 120.736 55.7186 119.881 55.1069C119.027 54.4906 118.599 53.5078 118.599 52.1584V48.6229H121.312V52.1584C121.312 52.5587 121.379 52.8758 121.514 53.1097C121.654 53.3436 121.874 53.5123 122.175 53.6158C122.481 53.7147 122.888 53.7642 123.397 53.7642C123.869 53.7642 124.332 53.7147 124.787 53.6158C125.241 53.5168 125.733 53.3729 126.264 53.1839ZM132.02 59.1957C131.359 59.1957 130.77 59.081 130.253 58.8516C129.735 58.6177 129.326 58.2736 129.025 57.8192C128.728 57.3604 128.579 56.7892 128.579 56.1055C128.579 55.5297 128.685 55.0462 128.896 54.6548C129.108 54.2635 129.396 53.9486 129.76 53.7102C130.124 53.4718 130.538 53.2919 131.001 53.1705C131.469 53.049 131.96 52.9635 132.472 52.9141C133.075 52.8511 133.561 52.7926 133.93 52.7386C134.299 52.6802 134.566 52.5947 134.733 52.4822C134.899 52.3698 134.982 52.2034 134.982 51.983V51.9425C134.982 51.5152 134.847 51.1845 134.577 50.9506C134.312 50.7167 133.934 50.5998 133.444 50.5998C132.927 50.5998 132.515 50.7145 132.209 50.9439C131.903 51.1688 131.701 51.4522 131.602 51.794L128.944 51.5781C129.079 50.9484 129.344 50.4041 129.74 49.9453C130.136 49.482 130.646 49.1267 131.271 48.8793C131.901 48.6274 132.63 48.5014 133.457 48.5014C134.033 48.5014 134.584 48.5689 135.111 48.7038C135.641 48.8388 136.111 49.0479 136.521 49.3313C136.934 49.6147 137.261 49.979 137.499 50.4244C137.737 50.8652 137.857 51.3937 137.857 52.0099V59H135.131V57.5629H135.05C134.883 57.8867 134.661 58.1723 134.382 58.4197C134.103 58.6626 133.768 58.8538 133.376 58.9933C132.985 59.1282 132.533 59.1957 132.02 59.1957ZM132.843 57.212C133.266 57.212 133.64 57.1288 133.963 56.9624C134.287 56.7914 134.542 56.562 134.726 56.2741C134.91 55.9863 135.003 55.6602 135.003 55.2958V54.196C134.913 54.2545 134.789 54.3085 134.631 54.358C134.479 54.4029 134.305 54.4457 134.112 54.4862C133.919 54.5221 133.725 54.5559 133.532 54.5874C133.338 54.6143 133.163 54.6391 133.005 54.6616C132.668 54.7111 132.373 54.7898 132.122 54.8977C131.87 55.0057 131.674 55.1519 131.535 55.3363C131.395 55.5162 131.325 55.7411 131.325 56.011C131.325 56.4023 131.467 56.7015 131.75 56.9084C132.038 57.1108 132.403 57.212 132.843 57.212ZM138.719 59L138.706 56.7195H139.05C139.293 56.7195 139.502 56.661 139.677 56.544C139.857 56.4226 140.006 56.2269 140.123 55.957C140.24 55.6871 140.332 55.3295 140.399 54.8842C140.467 54.4344 140.512 53.8812 140.534 53.2244L140.703 48.6364H148.584V59H145.844V50.8967H143.287L143.125 54.0611C143.085 54.9292 142.979 55.6759 142.808 56.3011C142.642 56.9264 142.41 57.4392 142.113 57.8395C141.816 58.2353 141.459 58.5277 141.04 58.7166C140.622 58.9055 140.136 59 139.583 59H138.719ZM151.853 51.821H154.95C156.322 51.821 157.393 52.1494 158.162 52.8061C158.931 53.4583 159.316 54.331 159.316 55.424C159.316 56.1347 159.143 56.7599 158.796 57.2997C158.45 57.835 157.951 58.2533 157.298 58.5547C156.646 58.8516 155.863 59 154.95 59H150.052V48.6364H152.798V56.7397H154.95C155.432 56.7397 155.827 56.6183 156.138 56.3754C156.448 56.1325 156.606 55.8221 156.61 55.4442C156.606 55.0439 156.448 54.7178 156.138 54.4659C155.827 54.2095 155.432 54.0813 154.95 54.0813H151.853V51.821ZM167.675 52.6712V54.9315H162.263V52.6712H167.675ZM163.208 48.6364V59H160.462V48.6364H163.208ZM169.476 48.6364V59H166.75V48.6364H169.476ZM173.901 59.1957C173.24 59.1957 172.651 59.081 172.133 58.8516C171.616 58.6177 171.207 58.2736 170.905 57.8192C170.609 57.3604 170.46 56.7892 170.46 56.1055C170.46 55.5297 170.566 55.0462 170.777 54.6548C170.989 54.2635 171.277 53.9486 171.641 53.7102C172.005 53.4718 172.419 53.2919 172.882 53.1705C173.35 53.049 173.84 52.9635 174.353 52.9141C174.956 52.8511 175.442 52.7926 175.811 52.7386C176.18 52.6802 176.447 52.5947 176.614 52.4822C176.78 52.3698 176.863 52.2034 176.863 51.983V51.9425C176.863 51.5152 176.728 51.1845 176.458 50.9506C176.193 50.7167 175.815 50.5998 175.325 50.5998C174.808 50.5998 174.396 50.7145 174.09 50.9439C173.784 51.1688 173.582 51.4522 173.483 51.794L170.825 51.5781C170.959 50.9484 171.225 50.4041 171.621 49.9453C172.017 49.482 172.527 49.1267 173.152 48.8793C173.782 48.6274 174.511 48.5014 175.338 48.5014C175.914 48.5014 176.465 48.5689 176.991 48.7038C177.522 48.8388 177.992 49.0479 178.402 49.3313C178.815 49.6147 179.142 49.979 179.38 50.4244C179.618 50.8652 179.738 51.3937 179.738 52.0099V59H177.012V57.5629H176.931C176.764 57.8867 176.542 58.1723 176.263 58.4197C175.984 58.6626 175.649 58.8538 175.257 58.9933C174.866 59.1282 174.414 59.1957 173.901 59.1957ZM174.724 57.212C175.147 57.212 175.521 57.1288 175.844 56.9624C176.168 56.7914 176.422 56.562 176.607 56.2741C176.791 55.9863 176.883 55.6602 176.883 55.2958V54.196C176.794 54.2545 176.67 54.3085 176.512 54.358C176.359 54.4029 176.186 54.4457 175.993 54.4862C175.799 54.5221 175.606 54.5559 175.413 54.5874C175.219 54.6143 175.044 54.6391 174.886 54.6616C174.549 54.7111 174.254 54.7898 174.002 54.8977C173.751 55.0057 173.555 55.1519 173.415 55.3363C173.276 55.5162 173.206 55.7411 173.206 56.011C173.206 56.4023 173.348 56.7015 173.631 56.9084C173.919 57.1108 174.284 57.212 174.724 57.212ZM187.28 59V50.8899H185.337C184.81 50.8899 184.41 51.0114 184.136 51.2543C183.861 51.4972 183.726 51.785 183.731 52.1179C183.726 52.4553 183.857 52.7409 184.122 52.9748C184.392 53.2042 184.788 53.3189 185.31 53.3189L188.238 53.3189V55.2621L185.31 55.2621C184.424 55.2621 183.657 55.1271 183.009 54.8572C182.361 54.5874 181.862 54.2118 181.511 53.7305C181.16 53.2447 180.987 52.6802 180.992 52.0369C180.987 51.3622 181.16 50.7707 181.511 50.2624C181.862 49.7496 182.363 49.3516 183.016 49.0682C183.672 48.7803 184.446 48.6364 185.337 48.6364L189.959 48.6364V59H187.28ZM180.695 59L183.576 53.6023H186.322L183.447 59H180.695ZM45.8295 84.2024C44.7815 84.2024 43.8751 83.9798 43.1104 83.5344C42.3503 83.0846 41.7633 82.4594 41.3494 81.6587C40.9356 80.8536 40.7287 79.9202 40.7287 78.8587C40.7287 77.7881 40.9356 76.8525 41.3494 76.0518C41.7633 75.2467 42.3503 74.6214 43.1104 74.1761C43.8751 73.7263 44.7815 73.5014 45.8295 73.5014C46.8776 73.5014 47.7817 73.7263 48.5419 74.1761C49.3066 74.6214 49.8958 75.2467 50.3097 76.0518C50.7235 76.8525 50.9304 77.7881 50.9304 78.8587C50.9304 79.9202 50.7235 80.8536 50.3097 81.6587C49.8958 82.4594 49.3066 83.0846 48.5419 83.5344C47.7817 83.9798 46.8776 84.2024 45.8295 84.2024ZM45.843 81.9759C46.3198 81.9759 46.7179 81.8409 47.0373 81.571C47.3567 81.2966 47.5973 80.9233 47.7592 80.451C47.9257 79.9787 48.0089 79.4412 48.0089 78.8384C48.0089 78.2357 47.9257 77.6982 47.7592 77.2259C47.5973 76.7536 47.3567 76.3802 47.0373 76.1058C46.7179 75.8314 46.3198 75.6942 45.843 75.6942C45.3617 75.6942 44.9569 75.8314 44.6286 76.1058C44.3047 76.3802 44.0595 76.7536 43.8931 77.2259C43.7312 77.6982 43.6502 78.2357 43.6502 78.8384C43.6502 79.4412 43.7312 79.9787 43.8931 80.451C44.0595 80.9233 44.3047 81.2966 44.6286 81.571C44.9569 81.8409 45.3617 81.9759 45.843 81.9759ZM56.7219 84.2024C55.6603 84.2024 54.7472 83.9775 53.9825 83.5277C53.2224 83.0734 52.6376 82.4437 52.2283 81.6385C51.8235 80.8333 51.621 79.9067 51.621 78.8587C51.621 77.7971 51.8257 76.866 52.235 76.0653C52.6489 75.2602 53.2359 74.6327 53.996 74.1829C54.7562 73.7286 55.6603 73.5014 56.7084 73.5014C57.6125 73.5014 58.4042 73.6656 59.0834 73.994C59.7626 74.3223 60.3001 74.7834 60.696 75.3771C61.0918 75.9709 61.31 76.6681 61.3504 77.4688H58.6381C58.5616 76.9515 58.3592 76.5354 58.0308 76.2205C57.707 75.9012 57.2819 75.7415 56.7556 75.7415C56.3103 75.7415 55.9212 75.8629 55.5884 76.1058C55.26 76.3442 55.0036 76.6928 54.8192 77.1516C54.6348 77.6104 54.5426 78.166 54.5426 78.8182C54.5426 79.4794 54.6325 80.0417 54.8124 80.505C54.9969 80.9683 55.2555 81.3214 55.5884 81.5643C55.9212 81.8072 56.3103 81.9286 56.7556 81.9286C57.084 81.9286 57.3786 81.8612 57.6395 81.7262C57.9049 81.5913 58.123 81.3956 58.294 81.1392C58.4694 80.8783 58.5841 80.5657 58.6381 80.2013H61.3504C61.3055 80.993 61.0896 81.6902 60.7027 82.293C60.3204 82.8912 59.7918 83.359 59.1171 83.6964C58.4424 84.0337 57.644 84.2024 56.7219 84.2024ZM62.4307 84V73.6364H66.8501C68.1276 73.6364 69.1374 73.8793 69.8796 74.3651C70.6218 74.8509 70.9929 75.5413 70.9929 76.4364C70.9929 76.9987 70.7837 77.4665 70.3654 77.8398C69.9471 78.2132 69.3668 78.4651 68.6246 78.5955C69.2454 78.6405 69.7739 78.7822 70.2102 79.0206C70.651 79.2545 70.9861 79.5581 71.2155 79.9315C71.4494 80.3048 71.5664 80.7186 71.5664 81.1729C71.5664 81.7622 71.4089 82.2682 71.0941 82.6911C70.7837 83.1139 70.3272 83.4377 69.7244 83.6626C69.1262 83.8875 68.3952 84 67.5316 84H62.4307ZM65.1093 81.8477H67.5316C67.9319 81.8477 68.2445 81.7532 68.4694 81.5643C68.6988 81.3709 68.8135 81.1077 68.8135 80.7749C68.8135 80.406 68.6988 80.1159 68.4694 79.9045C68.2445 79.6931 67.9319 79.5874 67.5316 79.5874H65.1093V81.8477ZM65.1093 77.9006H66.9108C67.1987 77.9006 67.4439 77.8601 67.6463 77.7791C67.8532 77.6937 68.0106 77.5722 68.1186 77.4148C68.231 77.2573 68.2873 77.0707 68.2873 76.8548C68.2873 76.5354 68.1591 76.2857 67.9027 76.1058C67.6463 75.9259 67.2954 75.8359 66.8501 75.8359H65.1093V77.9006ZM77.341 84.2024C76.275 84.2024 75.3573 83.9865 74.5882 83.5547C73.8235 83.1184 73.2342 82.5021 72.8204 81.706C72.4066 80.9053 72.1997 79.9585 72.1997 78.8654C72.1997 77.7994 72.4066 76.8638 72.8204 76.0586C73.2342 75.2534 73.8167 74.6259 74.5679 74.1761C75.3236 73.7263 76.2097 73.5014 77.2263 73.5014C77.91 73.5014 78.5465 73.6116 79.1357 73.832C79.7295 74.0479 80.2468 74.3741 80.6876 74.8104C81.1329 75.2467 81.4793 75.7955 81.7267 76.4567C81.9741 77.1134 82.0978 77.8826 82.0978 78.7642V79.5536H73.3467V77.7724H79.3921C79.3921 77.3585 79.3022 76.992 79.1223 76.6726C78.9423 76.3532 78.6927 76.1036 78.3733 75.9237C78.0585 75.7392 77.6919 75.647 77.2735 75.647C76.8372 75.647 76.4504 75.7482 76.113 75.9506C75.7802 76.1486 75.5193 76.4162 75.3304 76.7536C75.1414 77.0864 75.0447 77.4575 75.0402 77.8668V79.5604C75.0402 80.0732 75.1347 80.5162 75.3236 80.8896C75.517 81.2629 75.7892 81.5508 76.14 81.7532C76.4909 81.9556 76.9069 82.0568 77.3882 82.0568C77.7076 82.0568 78 82.0118 78.2654 81.9219C78.5308 81.8319 78.7579 81.697 78.9468 81.517C79.1357 81.3371 79.2797 81.1167 79.3786 80.8558L82.037 81.0312C81.9021 81.67 81.6255 82.2277 81.2071 82.7045C80.7933 83.1768 80.258 83.5457 79.6013 83.8111C78.9491 84.072 78.1956 84.2024 77.341 84.2024ZM82.4038 87.0362V81.7195H83.2C83.4294 81.5755 83.6138 81.3461 83.7532 81.0312C83.8972 80.7164 84.0141 80.3453 84.1041 79.918C84.1985 79.4906 84.2705 79.0296 84.32 78.5348C84.374 78.0355 84.4212 77.5317 84.4617 77.0234L84.7316 73.6364H92.6797V81.7195H94.2855V87.0362H91.5462V84H85.2106V87.0362H82.4038ZM86.0608 81.7195H89.9674V75.8494H87.174L87.0661 77.0234C86.9896 78.13 86.8794 79.0701 86.7355 79.8438C86.5915 80.6129 86.3666 81.2382 86.0608 81.7195ZM99.8831 84.2024C98.835 84.2024 97.9286 83.9798 97.164 83.5344C96.4038 83.0846 95.8168 82.4594 95.4029 81.6587C94.9891 80.8536 94.7822 79.9202 94.7822 78.8587C94.7822 77.7881 94.9891 76.8525 95.4029 76.0518C95.8168 75.2467 96.4038 74.6214 97.164 74.1761C97.9286 73.7263 98.835 73.5014 99.8831 73.5014C100.931 73.5014 101.835 73.7263 102.595 74.1761C103.36 74.6214 103.949 75.2467 104.363 76.0518C104.777 76.8525 104.984 77.7881 104.984 78.8587C104.984 79.9202 104.777 80.8536 104.363 81.6587C103.949 82.4594 103.36 83.0846 102.595 83.5344C101.835 83.9798 100.931 84.2024 99.8831 84.2024ZM99.8966 81.9759C100.373 81.9759 100.771 81.8409 101.091 81.571C101.41 81.2966 101.651 80.9233 101.813 80.451C101.979 79.9787 102.062 79.4412 102.062 78.8384C102.062 78.2357 101.979 77.6982 101.813 77.2259C101.651 76.7536 101.41 76.3802 101.091 76.1058C100.771 75.8314 100.373 75.6942 99.8966 75.6942C99.4153 75.6942 99.0104 75.8314 98.6821 76.1058C98.3582 76.3802 98.1131 76.7536 97.9466 77.2259C97.7847 77.6982 97.7037 78.2357 97.7037 78.8384C97.7037 79.4412 97.7847 79.9787 97.9466 80.451C98.1131 80.9233 98.3582 81.2966 98.6821 81.571C99.0104 81.8409 99.4153 81.9759 99.8966 81.9759ZM112.219 80.8221L115.026 73.6364H117.212L113.171 84H111.261L107.314 73.6364H109.493L112.219 80.8221ZM108.839 73.6364V84H106.093V73.6364H108.839ZM115.741 84V73.6364H118.454V84H115.741ZM119.31 84L119.296 81.7195H119.64C119.883 81.7195 120.092 81.661 120.268 81.544C120.448 81.4226 120.596 81.2269 120.713 80.957C120.83 80.6871 120.922 80.3295 120.99 79.8842C121.057 79.4344 121.102 78.8812 121.125 78.2244L121.293 73.6364H129.174V84H126.435V75.8967H123.877L123.716 79.0611C123.675 79.9292 123.569 80.6759 123.398 81.3011C123.232 81.9264 123 82.4392 122.703 82.8395C122.407 83.2353 122.049 83.5277 121.631 83.7166C121.212 83.9055 120.727 84 120.173 84H119.31ZM135.365 84.2024C134.299 84.2024 133.382 83.9865 132.612 83.5547C131.848 83.1184 131.258 82.5021 130.845 81.706C130.431 80.9053 130.224 79.9585 130.224 78.8654C130.224 77.7994 130.431 76.8638 130.845 76.0586C131.258 75.2534 131.841 74.6259 132.592 74.1761C133.348 73.7263 134.234 73.5014 135.251 73.5014C135.934 73.5014 136.571 73.6116 137.16 73.832C137.754 74.0479 138.271 74.3741 138.712 74.8104C139.157 75.2467 139.503 75.7955 139.751 76.4567C139.998 77.1134 140.122 77.8826 140.122 78.7642V79.5536H131.371V77.7724H137.416C137.416 77.3585 137.326 76.992 137.146 76.6726C136.967 76.3532 136.717 76.1036 136.398 75.9237C136.083 75.7392 135.716 75.647 135.298 75.647C134.861 75.647 134.475 75.7482 134.137 75.9506C133.804 76.1486 133.543 76.4162 133.355 76.7536C133.166 77.0864 133.069 77.4575 133.064 77.8668V79.5604C133.064 80.0732 133.159 80.5162 133.348 80.8896C133.541 81.2629 133.813 81.5508 134.164 81.7532C134.515 81.9556 134.931 82.0568 135.412 82.0568C135.732 82.0568 136.024 82.0118 136.29 81.9219C136.555 81.8319 136.782 81.697 136.971 81.517C137.16 81.3371 137.304 81.1167 137.403 80.8558L140.061 81.0312C139.926 81.67 139.65 82.2277 139.231 82.7045C138.818 83.1768 138.282 83.5457 137.626 83.8111C136.973 84.072 136.22 84.2024 135.365 84.2024ZM148.45 77.6712V79.9315H143.039V77.6712H148.45ZM143.984 73.6364V84H141.238V73.6364H143.984ZM150.252 73.6364V84H147.526V73.6364H150.252ZM158.935 77.6712V79.9315H153.523V77.6712H158.935ZM154.468 73.6364V84H151.722V73.6364H154.468ZM160.736 73.6364V84H158.01V73.6364H160.736ZM166.888 84.2024C165.84 84.2024 164.934 83.9798 164.169 83.5344C163.409 83.0846 162.822 82.4594 162.408 81.6587C161.995 80.8536 161.788 79.9202 161.788 78.8587C161.788 77.7881 161.995 76.8525 162.408 76.0518C162.822 75.2467 163.409 74.6214 164.169 74.1761C164.934 73.7263 165.84 73.5014 166.888 73.5014C167.937 73.5014 168.841 73.7263 169.601 74.1761C170.366 74.6214 170.955 75.2467 171.369 76.0518C171.782 76.8525 171.989 77.7881 171.989 78.8587C171.989 79.9202 171.782 80.8536 171.369 81.6587C170.955 82.4594 170.366 83.0846 169.601 83.5344C168.841 83.9798 167.937 84.2024 166.888 84.2024ZM166.902 81.9759C167.379 81.9759 167.777 81.8409 168.096 81.571C168.416 81.2966 168.656 80.9233 168.818 80.451C168.985 79.9787 169.068 79.4412 169.068 78.8384C169.068 78.2357 168.985 77.6982 168.818 77.2259C168.656 76.7536 168.416 76.3802 168.096 76.1058C167.777 75.8314 167.379 75.6942 166.902 75.6942C166.421 75.6942 166.016 75.8314 165.687 76.1058C165.364 76.3802 165.118 76.7536 164.952 77.2259C164.79 77.6982 164.709 78.2357 164.709 78.8384C164.709 79.4412 164.79 79.9787 164.952 80.451C165.118 80.9233 165.364 81.2966 165.687 81.571C166.016 81.8409 166.421 81.9759 166.902 81.9759ZM177.781 84.2024C176.719 84.2024 175.806 83.9775 175.041 83.5277C174.281 83.0734 173.697 82.4437 173.287 81.6385C172.882 80.8333 172.68 79.9067 172.68 78.8587C172.68 77.7971 172.885 76.866 173.294 76.0653C173.708 75.2602 174.295 74.6327 175.055 74.1829C175.815 73.7286 176.719 73.5014 177.767 73.5014C178.671 73.5014 179.463 73.6656 180.142 73.994C180.822 74.3223 181.359 74.7834 181.755 75.3771C182.151 75.9709 182.369 76.6681 182.409 77.4688H179.697C179.621 76.9515 179.418 76.5354 179.09 76.2205C178.766 75.9012 178.341 75.7415 177.815 75.7415C177.369 75.7415 176.98 75.8629 176.647 76.1058C176.319 76.3442 176.063 76.6928 175.878 77.1516C175.694 77.6104 175.602 78.166 175.602 78.8182C175.602 79.4794 175.691 80.0417 175.871 80.505C176.056 80.9683 176.314 81.3214 176.647 81.5643C176.98 81.8072 177.369 81.9286 177.815 81.9286C178.143 81.9286 178.438 81.8612 178.698 81.7262C178.964 81.5913 179.182 81.3956 179.353 81.1392C179.528 80.8783 179.643 80.5657 179.697 80.2013H182.409C182.364 80.993 182.149 81.6902 181.762 82.293C181.379 82.8912 180.851 83.359 180.176 83.6964C179.501 84.0337 178.703 84.2024 177.781 84.2024ZM182.783 75.8967V73.6364H192.175V75.8967H188.835V84H186.096V75.8967H182.783ZM194.959 76.821H198.056C199.428 76.821 200.498 77.1494 201.267 77.8061C202.037 78.4583 202.421 79.331 202.421 80.424C202.421 81.1347 202.248 81.7599 201.902 82.2997C201.555 82.835 201.056 83.2533 200.404 83.5547C199.752 83.8516 198.969 84 198.056 84H193.157V73.6364H195.904V81.7397H198.056C198.537 81.7397 198.933 81.6183 199.243 81.3754C199.554 81.1325 199.711 80.8221 199.716 80.4442C199.711 80.0439 199.554 79.7178 199.243 79.4659C198.933 79.2095 198.537 79.0813 198.056 79.0813H194.959V76.821Z" fill="#32393E"/>
<path d="M54.998 131.498C56.3788 131.498 57.498 130.379 57.498 128.998C57.498 127.617 56.3788 126.498 54.998 126.498C53.6173 126.498 52.498 127.617 52.498 128.998C52.498 130.379 53.6173 131.498 54.998 131.498Z" stroke="#A4ADB2" stroke-width="1.5" stroke-linecap="round" stroke-linejoin="round"/>
<path d="M65.002 136.5C66.577 134.413 67.502 131.812 67.502 129C67.502 126.188 66.577 123.587 65.002 121.5" stroke="#A4ADB2" stroke-width="1.5" stroke-linecap="round" stroke-linejoin="round"/>
<path d="M45.002 121.5C43.427 123.587 42.502 126.188 42.502 129C42.502 131.812 43.427 134.413 45.002 136.5" stroke="#A4ADB2" stroke-width="1.5" stroke-linecap="round" stroke-linejoin="round"/>
<path d="M61 133.5C61.9375 132.25 62.5 130.688 62.5 129C62.5 127.313 61.9375 125.75 61 124.5" stroke="#A4ADB2" stroke-width="1.5" stroke-linecap="round" stroke-linejoin="round"/>
<path d="M49 124.5C48.0625 125.75 47.5 127.313 47.5 129C47.5 130.688 48.0625 132.25 49 133.5" stroke="#A4ADB2" stroke-width="1.5" stroke-linecap="round" stroke-linejoin="round"/>
<rect x="325" y="10" width="295" height="164" rx="30" fill="#051F51" fill-opacity="0.04"/>
<path d="M356.201 59V45.1818H361.734C362.75 45.1818 363.598 45.3325 364.277 45.6339C364.957 45.9353 365.467 46.3536 365.809 46.8888C366.151 47.4196 366.322 48.0314 366.322 48.7241C366.322 49.2638 366.214 49.7384 365.998 50.1477C365.782 50.5526 365.485 50.8854 365.107 51.1463C364.734 51.4027 364.307 51.5849 363.825 51.6928V51.8278C364.352 51.8503 364.844 51.9987 365.303 52.2731C365.766 52.5475 366.142 52.9321 366.43 53.4268C366.718 53.9171 366.862 54.5019 366.862 55.1811C366.862 55.9143 366.679 56.5688 366.315 57.1445C365.955 57.7158 365.422 58.1679 364.716 58.5007C364.01 58.8336 363.139 59 362.105 59H356.201ZM359.123 56.6115H361.504C362.318 56.6115 362.912 56.4563 363.286 56.146C363.659 55.8311 363.846 55.4128 363.846 54.891C363.846 54.5086 363.753 54.1713 363.569 53.8789C363.384 53.5865 363.121 53.3571 362.779 53.1907C362.442 53.0243 362.04 52.9411 361.572 52.9411H359.123V56.6115ZM359.123 50.9641H361.288C361.689 50.9641 362.044 50.8944 362.354 50.755C362.669 50.611 362.917 50.4086 363.097 50.1477C363.281 49.8868 363.373 49.5742 363.373 49.2099C363.373 48.7106 363.196 48.308 362.84 48.0021C362.489 47.6963 361.99 47.5433 361.342 47.5433H359.123V50.9641ZM372.631 59.2024C371.583 59.2024 370.677 58.9798 369.912 58.5344C369.152 58.0846 368.565 57.4594 368.151 56.6587C367.737 55.8536 367.53 54.9202 367.53 53.8587C367.53 52.7881 367.737 51.8525 368.151 51.0518C368.565 50.2467 369.152 49.6214 369.912 49.1761C370.677 48.7263 371.583 48.5014 372.631 48.5014C373.679 48.5014 374.583 48.7263 375.343 49.1761C376.108 49.6214 376.697 50.2467 377.111 51.0518C377.525 51.8525 377.732 52.7881 377.732 53.8587C377.732 54.9202 377.525 55.8536 377.111 56.6587C376.697 57.4594 376.108 58.0846 375.343 58.5344C374.583 58.9798 373.679 59.2024 372.631 59.2024ZM372.645 56.9759C373.121 56.9759 373.519 56.8409 373.839 56.571C374.158 56.2966 374.399 55.9233 374.561 55.451C374.727 54.9787 374.81 54.4412 374.81 53.8384C374.81 53.2357 374.727 52.6982 374.561 52.2259C374.399 51.7536 374.158 51.3802 373.839 51.1058C373.519 50.8314 373.121 50.6942 372.645 50.6942C372.163 50.6942 371.758 50.8314 371.43 51.1058C371.106 51.3802 370.861 51.7536 370.695 52.2259C370.533 52.6982 370.452 53.2357 370.452 53.8384C370.452 54.4412 370.533 54.9787 370.695 55.451C370.861 55.9233 371.106 56.2966 371.43 56.571C371.758 56.8409 372.163 56.9759 372.645 56.9759ZM378.308 56.065H381.094C381.108 56.4068 381.261 56.6767 381.553 56.8746C381.846 57.0726 382.223 57.1715 382.687 57.1715C383.155 57.1715 383.548 57.0636 383.868 56.8477C384.187 56.6272 384.347 56.3124 384.347 55.9031C384.347 55.6512 384.284 55.433 384.158 55.2486C384.032 55.0597 383.856 54.9112 383.631 54.8033C383.406 54.6953 383.146 54.6413 382.849 54.6413H381.358V52.7589H382.849C383.294 52.7589 383.636 52.6554 383.874 52.4485C384.117 52.2416 384.239 51.983 384.239 51.6726C384.239 51.3217 384.113 51.0406 383.861 50.8292C383.613 50.6133 383.278 50.5053 382.855 50.5053C382.428 50.5053 382.073 50.602 381.789 50.7955C381.511 50.9844 381.367 51.2318 381.358 51.5376H378.584C378.593 50.9169 378.78 50.3794 379.145 49.9251C379.513 49.4708 380.008 49.1199 380.629 48.8725C381.254 48.6251 381.954 48.5014 382.727 48.5014C383.573 48.5014 384.302 48.6206 384.913 48.859C385.53 49.0929 386.002 49.428 386.33 49.8643C386.663 50.3007 386.83 50.8202 386.83 51.4229C386.83 51.9717 386.65 52.4305 386.29 52.7994C385.93 53.1682 385.426 53.4313 384.778 53.5888V53.6967C385.206 53.7237 385.593 53.8384 385.939 54.0408C386.285 54.2433 386.562 54.5221 386.769 54.8775C386.976 55.2283 387.079 55.6444 387.079 56.1257C387.079 56.7689 386.89 57.32 386.512 57.7788C386.139 58.2376 385.622 58.5907 384.961 58.8381C384.304 59.081 383.55 59.2024 382.7 59.2024C381.873 59.2024 381.13 59.0832 380.474 58.8448C379.821 58.6019 379.302 58.2466 378.915 57.7788C378.533 57.311 378.33 56.7397 378.308 56.065ZM395.295 52.6712V54.9315H389.883V52.6712H395.295ZM390.828 48.6364V59H388.082V48.6364H390.828ZM397.096 48.6364V59H394.37V48.6364H397.096ZM401.312 55.2081L405.043 48.6364H407.877V59H405.138V52.408L401.42 59H398.566V48.6364H401.312V55.2081ZM409.421 59V48.6364H412.296V52.6577H413.105L415.925 48.6364H419.299L415.635 53.7777L419.34 59H415.925L413.368 55.3228H412.296V59H409.421ZM427.007 52.6712V54.9315H421.596V52.6712H427.007ZM422.54 48.6364V59H419.794V48.6364H422.54ZM428.808 48.6364V59H426.082V48.6364H428.808ZM434.961 59.2024C433.913 59.2024 433.006 58.9798 432.242 58.5344C431.481 58.0846 430.894 57.4594 430.481 56.6587C430.067 55.8536 429.86 54.9202 429.86 53.8587C429.86 52.7881 430.067 51.8525 430.481 51.0518C430.894 50.2467 431.481 49.6214 432.242 49.1761C433.006 48.7263 433.913 48.5014 434.961 48.5014C436.009 48.5014 436.913 48.7263 437.673 49.1761C438.438 49.6214 439.027 50.2467 439.441 51.0518C439.855 51.8525 440.062 52.7881 440.062 53.8587C440.062 54.9202 439.855 55.8536 439.441 56.6587C439.027 57.4594 438.438 58.0846 437.673 58.5344C436.913 58.9798 436.009 59.2024 434.961 59.2024ZM434.974 56.9759C435.451 56.9759 435.849 56.8409 436.168 56.571C436.488 56.2966 436.728 55.9233 436.89 55.451C437.057 54.9787 437.14 54.4412 437.14 53.8384C437.14 53.2357 437.057 52.6982 436.89 52.2259C436.728 51.7536 436.488 51.3802 436.168 51.1058C435.849 50.8314 435.451 50.6942 434.974 50.6942C434.493 50.6942 434.088 50.8314 433.76 51.1058C433.436 51.3802 433.191 51.7536 433.024 52.2259C432.862 52.6982 432.781 53.2357 432.781 53.8384C432.781 54.4412 432.862 54.9787 433.024 55.451C433.191 55.9233 433.436 56.2966 433.76 56.571C434.088 56.8409 434.493 56.9759 434.974 56.9759ZM441.171 59V48.6364H445.59C446.867 48.6364 447.877 48.8793 448.619 49.3651C449.362 49.8509 449.733 50.5413 449.733 51.4364C449.733 51.9987 449.524 52.4665 449.105 52.8398C448.687 53.2132 448.107 53.4651 447.364 53.5955C447.985 53.6405 448.514 53.7822 448.95 54.0206C449.391 54.2545 449.726 54.5581 449.955 54.9315C450.189 55.3048 450.306 55.7186 450.306 56.1729C450.306 56.7622 450.149 57.2682 449.834 57.6911C449.524 58.1139 449.067 58.4377 448.464 58.6626C447.866 58.8875 447.135 59 446.271 59H441.171ZM443.849 56.8477H446.271C446.672 56.8477 446.984 56.7532 447.209 56.5643C447.439 56.3709 447.553 56.1077 447.553 55.7749C447.553 55.406 447.439 55.1159 447.209 54.9045C446.984 54.6931 446.672 54.5874 446.271 54.5874H443.849V56.8477ZM443.849 52.9006H445.651C445.939 52.9006 446.184 52.8601 446.386 52.7791C446.593 52.6937 446.75 52.5722 446.858 52.4148C446.971 52.2573 447.027 52.0707 447.027 51.8548C447.027 51.5354 446.899 51.2857 446.642 51.1058C446.386 50.9259 446.035 50.8359 445.59 50.8359H443.849V52.9006ZM456.081 59.2024C455.015 59.2024 454.097 58.9865 453.328 58.5547C452.563 58.1184 451.974 57.5021 451.56 56.706C451.146 55.9053 450.939 54.9585 450.939 53.8654C450.939 52.7994 451.146 51.8638 451.56 51.0586C451.974 50.2534 452.557 49.6259 453.308 49.1761C454.063 48.7263 454.95 48.5014 455.966 48.5014C456.65 48.5014 457.286 48.6116 457.876 48.832C458.469 49.0479 458.987 49.3741 459.427 49.8104C459.873 50.2467 460.219 50.7955 460.466 51.4567C460.714 52.1134 460.838 52.8826 460.838 53.7642V54.5536H452.086V52.7724H458.132C458.132 52.3585 458.042 51.992 457.862 51.6726C457.682 51.3532 457.432 51.1036 457.113 50.9237C456.798 50.7392 456.432 50.647 456.013 50.647C455.577 50.647 455.19 50.7482 454.853 50.9506C454.52 51.1486 454.259 51.4162 454.07 51.7536C453.881 52.0864 453.785 52.4575 453.78 52.8668V54.5604C453.78 55.0732 453.874 55.5162 454.063 55.8896C454.257 56.2629 454.529 56.5508 454.88 56.7532C455.231 56.9556 455.647 57.0568 456.128 57.0568C456.447 57.0568 456.74 57.0118 457.005 56.9219C457.271 56.8319 457.498 56.697 457.687 56.517C457.876 56.3371 458.019 56.1167 458.118 55.8558L460.777 56.0312C460.642 56.67 460.365 57.2277 459.947 57.7045C459.533 58.1768 458.998 58.5457 458.341 58.8111C457.689 59.072 456.935 59.2024 456.081 59.2024ZM469.166 52.6712V54.9315H463.755V52.6712H469.166ZM464.699 48.6364V59H461.953V48.6364H464.699ZM470.967 48.6364V59H468.242V48.6364H470.967ZM475.184 55.2081L478.915 48.6364H481.748V59H479.009V52.408L475.291 59H472.437V48.6364H475.184V55.2081ZM488.016 59.2024C486.95 59.2024 486.032 58.9865 485.263 58.5547C484.498 58.1184 483.909 57.5021 483.495 56.706C483.081 55.9053 482.874 54.9585 482.874 53.8654C482.874 52.7994 483.081 51.8638 483.495 51.0586C483.909 50.2534 484.491 49.6259 485.243 49.1761C485.998 48.7263 486.884 48.5014 487.901 48.5014C488.585 48.5014 489.221 48.6116 489.81 48.832C490.404 49.0479 490.921 49.3741 491.362 49.8104C491.808 50.2467 492.154 50.7955 492.401 51.4567C492.649 52.1134 492.772 52.8826 492.772 53.7642V54.5536H484.021V52.7724H490.067C490.067 52.3585 489.977 51.992 489.797 51.6726C489.617 51.3532 489.367 51.1036 489.048 50.9237C488.733 50.7392 488.367 50.647 487.948 50.647C487.512 50.647 487.125 50.7482 486.788 50.9506C486.455 51.1486 486.194 51.4162 486.005 51.7536C485.816 52.0864 485.719 52.4575 485.715 52.8668V54.5604C485.715 55.0732 485.809 55.5162 485.998 55.8896C486.192 56.2629 486.464 56.5508 486.815 56.7532C487.166 56.9556 487.582 57.0568 488.063 57.0568C488.382 57.0568 488.675 57.0118 488.94 56.9219C489.205 56.8319 489.433 56.697 489.621 56.517C489.81 56.3371 489.954 56.1167 490.053 55.8558L492.712 56.0312C492.577 56.67 492.3 57.2277 491.882 57.7045C491.468 58.1768 490.933 58.5457 490.276 58.8111C489.624 59.072 488.87 59.2024 488.016 59.2024ZM502.208 59.2024C501.147 59.2024 500.233 58.9775 499.469 58.5277C498.709 58.0734 498.124 57.4437 497.714 56.6385C497.31 55.8333 497.107 54.9067 497.107 53.8587C497.107 52.7971 497.312 51.866 497.721 51.0653C498.135 50.2602 498.722 49.6327 499.482 49.1829C500.242 48.7286 501.147 48.5014 502.195 48.5014C503.099 48.5014 503.89 48.6656 504.57 48.994C505.249 49.3223 505.786 49.7834 506.182 50.3771C506.578 50.9709 506.796 51.6681 506.837 52.4687H504.124C504.048 51.9515 503.845 51.5354 503.517 51.2205C503.193 50.9012 502.768 50.7415 502.242 50.7415C501.797 50.7415 501.407 50.8629 501.075 51.1058C500.746 51.3442 500.49 51.6928 500.305 52.1516C500.121 52.6104 500.029 53.166 500.029 53.8182C500.029 54.4794 500.119 55.0417 500.299 55.505C500.483 55.9683 500.742 56.3214 501.075 56.5643C501.407 56.8072 501.797 56.9286 502.242 56.9286C502.57 56.9286 502.865 56.8612 503.126 56.7262C503.391 56.5913 503.609 56.3956 503.78 56.1392C503.956 55.8783 504.07 55.5657 504.124 55.2013H506.837C506.792 55.993 506.576 56.6902 506.189 57.293C505.807 57.8912 505.278 58.359 504.603 58.6964C503.929 59.0337 503.13 59.2024 502.208 59.2024ZM507.917 59V48.6364H516.978V59H514.232V50.8967H510.629V59H507.917ZM518.512 62.8864V48.6364H521.346V50.3771H521.474C521.6 50.0982 521.783 49.8149 522.021 49.527C522.264 49.2346 522.579 48.9917 522.966 48.7983C523.357 48.6004 523.843 48.5014 524.423 48.5014C525.179 48.5014 525.876 48.6993 526.515 49.0952C527.153 49.4865 527.664 50.078 528.046 50.8697C528.428 51.6568 528.62 52.6442 528.62 53.8317C528.62 54.9877 528.433 55.9638 528.06 56.7599C527.691 57.5516 527.187 58.1521 526.548 58.5614C525.914 58.9663 525.203 59.1687 524.416 59.1687C523.858 59.1687 523.384 59.0765 522.993 58.892C522.606 58.7076 522.289 58.476 522.041 58.1971C521.794 57.9137 521.605 57.6281 521.474 57.3402H521.387V62.8864H518.512ZM521.326 53.8182C521.326 54.4344 521.411 54.9719 521.582 55.4308C521.753 55.8896 522.001 56.2472 522.325 56.5036C522.648 56.7554 523.042 56.8814 523.505 56.8814C523.973 56.8814 524.369 56.7532 524.693 56.4968C525.017 56.2359 525.262 55.8761 525.428 55.4173C525.599 54.954 525.685 54.4209 525.685 53.8182C525.685 53.2199 525.601 52.6937 525.435 52.2393C525.269 51.785 525.023 51.4297 524.7 51.1733C524.376 50.9169 523.978 50.7887 523.505 50.7887C523.037 50.7887 522.642 50.9124 522.318 51.1598C521.998 51.4072 521.753 51.758 521.582 52.2124C521.411 52.6667 521.326 53.2019 521.326 53.8182ZM534.458 59.2024C533.41 59.2024 532.504 58.9798 531.739 58.5344C530.979 58.0846 530.392 57.4594 529.978 56.6587C529.564 55.8536 529.358 54.9202 529.358 53.8587C529.358 52.7881 529.564 51.8525 529.978 51.0518C530.392 50.2467 530.979 49.6214 531.739 49.1761C532.504 48.7263 533.41 48.5014 534.458 48.5014C535.506 48.5014 536.411 48.7263 537.171 49.1761C537.935 49.6214 538.525 50.2467 538.938 51.0518C539.352 51.8525 539.559 52.7881 539.559 53.8587C539.559 54.9202 539.352 55.8536 538.938 56.6587C538.525 57.4594 537.935 58.0846 537.171 58.5344C536.411 58.9798 535.506 59.2024 534.458 59.2024ZM534.472 56.9759C534.949 56.9759 535.347 56.8409 535.666 56.571C535.985 56.2966 536.226 55.9233 536.388 55.451C536.554 54.9787 536.638 54.4412 536.638 53.8384C536.638 53.2357 536.554 52.6982 536.388 52.2259C536.226 51.7536 535.985 51.3802 535.666 51.1058C535.347 50.8314 534.949 50.6942 534.472 50.6942C533.991 50.6942 533.586 50.8314 533.257 51.1058C532.934 51.3802 532.688 51.7536 532.522 52.2259C532.36 52.6982 532.279 53.2357 532.279 53.8384C532.279 54.4412 532.36 54.9787 532.522 55.451C532.688 55.9233 532.934 56.2966 533.257 56.571C533.586 56.8409 533.991 56.9759 534.472 56.9759ZM545.351 59.2024C544.289 59.2024 543.376 58.9775 542.611 58.5277C541.851 58.0734 541.266 57.4437 540.857 56.6385C540.452 55.8333 540.25 54.9067 540.25 53.8587C540.25 52.7971 540.455 51.866 540.864 51.0653C541.278 50.2602 541.865 49.6327 542.625 49.1829C543.385 48.7286 544.289 48.5014 545.337 48.5014C546.241 48.5014 547.033 48.6656 547.712 48.994C548.391 49.3223 548.929 49.7834 549.325 50.3771C549.721 50.9709 549.939 51.6681 549.979 52.4687H547.267C547.19 51.9515 546.988 51.5354 546.66 51.2205C546.336 50.9012 545.911 50.7415 545.384 50.7415C544.939 50.7415 544.55 50.8629 544.217 51.1058C543.889 51.3442 543.632 51.6928 543.448 52.1516C543.264 52.6104 543.171 53.166 543.171 53.8182C543.171 54.4794 543.261 55.0417 543.441 55.505C543.626 55.9683 543.884 56.3214 544.217 56.5643C544.55 56.8072 544.939 56.9286 545.384 56.9286C545.713 56.9286 546.007 56.8612 546.268 56.7262C546.534 56.5913 546.752 56.3956 546.923 56.1392C547.098 55.8783 547.213 55.5657 547.267 55.2013H549.979C549.934 55.993 549.718 56.6902 549.332 57.293C548.949 57.8912 548.421 58.359 547.746 58.6964C547.071 59.0337 546.273 59.2024 545.351 59.2024ZM554.015 59.1957C553.354 59.1957 552.764 59.081 552.247 58.8516C551.73 58.6177 551.32 58.2736 551.019 57.8192C550.722 57.3604 550.574 56.7892 550.574 56.1055C550.574 55.5297 550.679 55.0462 550.891 54.6548C551.102 54.2635 551.39 53.9486 551.755 53.7102C552.119 53.4718 552.533 53.2919 552.996 53.1705C553.464 53.049 553.954 52.9635 554.467 52.9141C555.07 52.8511 555.555 52.7926 555.924 52.7386C556.293 52.6802 556.561 52.5947 556.727 52.4822C556.894 52.3698 556.977 52.2034 556.977 51.983V51.9425C556.977 51.5152 556.842 51.1845 556.572 50.9506C556.307 50.7167 555.929 50.5998 555.438 50.5998C554.921 50.5998 554.51 50.7145 554.204 50.9439C553.898 51.1688 553.695 51.4522 553.596 51.794L550.938 51.5781C551.073 50.9484 551.338 50.4041 551.734 49.9453C552.13 49.482 552.641 49.1267 553.266 48.8793C553.896 48.6274 554.624 48.5014 555.452 48.5014C556.028 48.5014 556.579 48.5689 557.105 48.7038C557.636 48.8388 558.106 49.0479 558.515 49.3313C558.929 49.6147 559.255 49.979 559.494 50.4244C559.732 50.8652 559.851 51.3937 559.851 52.0099V59H557.125V57.5629H557.044C556.878 57.8867 556.655 58.1723 556.376 58.4197C556.097 58.6626 555.762 58.8538 555.371 58.9933C554.98 59.1282 554.528 59.1957 554.015 59.1957ZM554.838 57.212C555.261 57.212 555.634 57.1288 555.958 56.9624C556.282 56.7914 556.536 56.562 556.72 56.2741C556.905 55.9863 556.997 55.6602 556.997 55.2958V54.196C556.907 54.2545 556.783 54.3085 556.626 54.358C556.473 54.4029 556.3 54.4457 556.106 54.4862C555.913 54.5221 555.72 54.5559 555.526 54.5874C555.333 54.6143 555.157 54.6391 555 54.6616C554.663 54.7111 554.368 54.7898 554.116 54.8977C553.864 55.0057 553.668 55.1519 553.529 55.3363C553.39 55.5162 553.32 55.7411 553.32 56.011C553.32 56.4023 553.462 56.7015 553.745 56.9084C554.033 57.1108 554.397 57.212 554.838 57.212ZM363.36 77.6712V79.9315H357.949V77.6712H363.36ZM358.893 73.6364V84H356.147V73.6364H358.893ZM365.161 73.6364V84H362.435V73.6364H365.161ZM369.586 84.1957C368.925 84.1957 368.336 84.081 367.819 83.8516C367.301 83.6177 366.892 83.2736 366.591 82.8192C366.294 82.3604 366.145 81.7892 366.145 81.1055C366.145 80.5297 366.251 80.0462 366.462 79.6548C366.674 79.2635 366.962 78.9486 367.326 78.7102C367.69 78.4718 368.104 78.2919 368.568 78.1705C369.035 78.049 369.526 77.9635 370.038 77.9141C370.641 77.8511 371.127 77.7926 371.496 77.7386C371.865 77.6802 372.132 77.5947 372.299 77.4822C372.465 77.3698 372.548 77.2034 372.548 76.983V76.9425C372.548 76.5152 372.413 76.1845 372.144 75.9506C371.878 75.7167 371.5 75.5998 371.01 75.5998C370.493 75.5998 370.081 75.7145 369.775 75.9439C369.469 76.1688 369.267 76.4522 369.168 76.794L366.51 76.5781C366.645 75.9484 366.91 75.4041 367.306 74.9453C367.702 74.482 368.212 74.1267 368.837 73.8793C369.467 73.6274 370.196 73.5014 371.024 73.5014C371.599 73.5014 372.15 73.5689 372.677 73.7038C373.207 73.8388 373.677 74.0479 374.087 74.3313C374.501 74.6147 374.827 74.979 375.065 75.4244C375.304 75.8652 375.423 76.3937 375.423 77.0099V84H372.697V82.5629H372.616C372.449 82.8867 372.227 83.1723 371.948 83.4197C371.669 83.6626 371.334 83.8538 370.943 83.9933C370.551 84.1282 370.099 84.1957 369.586 84.1957ZM370.41 82.212C370.832 82.212 371.206 82.1288 371.53 81.9624C371.853 81.7914 372.108 81.562 372.292 81.2741C372.476 80.9863 372.569 80.6602 372.569 80.2958V79.196C372.479 79.2545 372.355 79.3085 372.198 79.358C372.045 79.4029 371.871 79.4457 371.678 79.4862C371.485 79.5221 371.291 79.5559 371.098 79.5874C370.904 79.6143 370.729 79.6391 370.571 79.6616C370.234 79.7111 369.94 79.7898 369.688 79.8977C369.436 80.0057 369.24 80.1519 369.101 80.3363C368.961 80.5162 368.891 80.7411 368.891 81.011C368.891 81.4023 369.033 81.7015 369.317 81.9084C369.604 82.1108 369.969 82.212 370.41 82.212ZM380.53 84V73.6364H389.592V84H386.845V75.8967H383.242V84H380.53ZM395.808 84.2024C394.76 84.2024 393.854 83.9798 393.089 83.5344C392.329 83.0846 391.742 82.4594 391.328 81.6587C390.914 80.8536 390.707 79.9202 390.707 78.8587C390.707 77.7881 390.914 76.8525 391.328 76.0518C391.742 75.2467 392.329 74.6214 393.089 74.1761C393.854 73.7263 394.76 73.5014 395.808 73.5014C396.856 73.5014 397.76 73.7263 398.52 74.1761C399.285 74.6214 399.874 75.2467 400.288 76.0518C400.702 76.8525 400.909 77.7881 400.909 78.8587C400.909 79.9202 400.702 80.8536 400.288 81.6587C399.874 82.4594 399.285 83.0846 398.52 83.5344C397.76 83.9798 396.856 84.2024 395.808 84.2024ZM395.822 81.9759C396.298 81.9759 396.696 81.8409 397.016 81.571C397.335 81.2966 397.576 80.9233 397.738 80.451C397.904 79.9787 397.987 79.4412 397.987 78.8384C397.987 78.2357 397.904 77.6982 397.738 77.2259C397.576 76.7536 397.335 76.3802 397.016 76.1058C396.696 75.8314 396.298 75.6942 395.822 75.6942C395.34 75.6942 394.935 75.8314 394.607 76.1058C394.283 76.3802 394.038 76.7536 393.872 77.2259C393.71 77.6982 393.629 78.2357 393.629 78.8384C393.629 79.4412 393.71 79.9787 393.872 80.451C394.038 80.9233 394.283 81.2966 394.607 81.571C394.935 81.8409 395.34 81.9759 395.822 81.9759ZM402.018 84V73.6364H404.892V77.6577H405.702L408.522 73.6364H411.896L408.232 78.7777L411.936 84H408.522L405.965 80.3228H404.892V84H402.018ZM414.332 87.8864C413.968 87.8864 413.626 87.8571 413.307 87.7987C412.992 87.7447 412.731 87.675 412.524 87.5895L413.172 85.4439C413.509 85.5473 413.813 85.6036 414.083 85.6126C414.357 85.6216 414.593 85.5586 414.791 85.4237C414.993 85.2887 415.158 85.0593 415.284 84.7354L415.452 84.2969L411.735 73.6364H414.757L416.903 81.2472H417.011L419.177 73.6364H422.22L418.192 85.12C417.998 85.6778 417.735 86.1636 417.402 86.5774C417.074 86.9957 416.658 87.3174 416.154 87.5423C415.65 87.7717 415.043 87.8864 414.332 87.8864ZM422.931 84V73.6364H431.992V84H429.246V75.8967H425.643V84H422.931ZM433.526 84V73.6364H436.4V77.6577H437.21L440.03 73.6364H443.404L439.74 78.7777L443.444 84H440.03L437.473 80.3228H436.4V84H433.526ZM445.84 87.8864C445.476 87.8864 445.134 87.8571 444.815 87.7987C444.5 87.7447 444.239 87.675 444.032 87.5895L444.68 85.4439C445.017 85.5473 445.321 85.6036 445.591 85.6126C445.865 85.6216 446.101 85.5586 446.299 85.4237C446.502 85.2887 446.666 85.0593 446.792 84.7354L446.96 84.2969L443.243 73.6364H446.265L448.411 81.2472H448.519L450.685 73.6364H453.728L449.7 85.12C449.506 85.6778 449.243 86.1636 448.91 86.5774C448.582 86.9957 448.166 87.3174 447.662 87.5423C447.158 87.7717 446.551 87.8864 445.84 87.8864Z" fill="#32393E"/>
<path d="M364.346 136.938L368.221 139.938C368.721 140.438 369.846 140.688 370.596 140.688H375.346C376.846 140.688 378.471 139.563 378.846 138.063L381.846 128.938C382.471 127.188 381.346 125.688 379.471 125.688H374.471C373.721 125.688 373.096 125.063 373.221 124.188L373.846 120.188C374.096 119.063 373.346 117.813 372.221 117.438C371.221 117.063 369.971 117.563 369.471 118.313L364.346 125.938" stroke="#A4ADB2" stroke-width="1.5" stroke-miterlimit="10"/>
<path d="M357.977 136.934V124.684C357.977 122.934 358.727 122.309 360.477 122.309H361.727C363.477 122.309 364.227 122.934 364.227 124.684V136.934C364.227 138.684 363.477 139.309 361.727 139.309H360.477C358.727 139.309 357.977 138.684 357.977 136.934Z" stroke="#A4ADB2" stroke-width="1.5" stroke-linecap="round" stroke-linejoin="round"/>
<rect x="640" y="10" width="210" height="164" rx="30" fill="#30DB69"/>
<path d="M684.513 56.6655L684.344 62.2656H681.565V59H680.593V56.6655H684.513ZM671.201 59V45.1818H674.008V56.652H679.756V45.1818H682.597V59H671.201ZM690.195 59.2024C689.129 59.2024 688.211 58.9865 687.442 58.5547C686.677 58.1184 686.088 57.5021 685.674 56.706C685.261 55.9053 685.054 54.9585 685.054 53.8654C685.054 52.7994 685.261 51.8638 685.674 51.0586C686.088 50.2534 686.671 49.6259 687.422 49.1761C688.178 48.7263 689.064 48.5014 690.08 48.5014C690.764 48.5014 691.4 48.6116 691.99 48.832C692.583 49.0479 693.101 49.3741 693.542 49.8104C693.987 50.2467 694.333 50.7955 694.581 51.4567C694.828 52.1134 694.952 52.8826 694.952 53.7642V54.5536H686.201V52.7724H692.246C692.246 52.3585 692.156 51.992 691.976 51.6726C691.796 51.3532 691.547 51.1036 691.227 50.9237C690.912 50.7392 690.546 50.647 690.128 50.647C689.691 50.647 689.304 50.7482 688.967 50.9506C688.634 51.1486 688.373 51.4162 688.184 51.7536C687.995 52.0864 687.899 52.4575 687.894 52.8668V54.5604C687.894 55.0732 687.989 55.5162 688.178 55.8896C688.371 56.2629 688.643 56.5508 688.994 56.7532C689.345 56.9556 689.761 57.0568 690.242 57.0568C690.562 57.0568 690.854 57.0118 691.119 56.9219C691.385 56.8319 691.612 56.697 691.801 56.517C691.99 56.3371 692.134 56.1167 692.233 55.8558L694.891 56.0312C694.756 56.67 694.479 57.2277 694.061 57.7045C693.647 58.1768 693.112 58.5457 692.455 58.8111C691.803 59.072 691.05 59.2024 690.195 59.2024ZM695.46 59L695.447 56.7195H695.791C696.034 56.7195 696.243 56.661 696.418 56.544C696.598 56.4226 696.747 56.2269 696.864 55.957C696.981 55.6871 697.073 55.3295 697.14 54.8842C697.208 54.4344 697.253 53.8812 697.275 53.2244L697.444 48.6364H705.325V59H702.585V50.8967H700.028L699.866 54.0611C699.826 54.9292 699.72 55.6759 699.549 56.3011C699.383 56.9264 699.151 57.4392 698.854 57.8395C698.557 58.2353 698.2 58.5277 697.781 58.7166C697.363 58.9055 696.877 59 696.324 59H695.46ZM711.516 59.2024C710.45 59.2024 709.532 58.9865 708.763 58.5547C707.998 58.1184 707.409 57.5021 706.995 56.706C706.581 55.9053 706.374 54.9585 706.374 53.8654C706.374 52.7994 706.581 51.8638 706.995 51.0586C707.409 50.2534 707.992 49.6259 708.743 49.1761C709.498 48.7263 710.385 48.5014 711.401 48.5014C712.085 48.5014 712.721 48.6116 713.311 48.832C713.904 49.0479 714.422 49.3741 714.862 49.8104C715.308 50.2467 715.654 50.7955 715.901 51.4567C716.149 52.1134 716.273 52.8826 716.273 53.7642V54.5536H707.521V52.7724H713.567C713.567 52.3585 713.477 51.992 713.297 51.6726C713.117 51.3532 712.867 51.1036 712.548 50.9237C712.233 50.7392 711.867 50.647 711.448 50.647C711.012 50.647 710.625 50.7482 710.288 50.9506C709.955 51.1486 709.694 51.4162 709.505 51.7536C709.316 52.0864 709.22 52.4575 709.215 52.8668V54.5604C709.215 55.0732 709.309 55.5162 709.498 55.8896C709.692 56.2629 709.964 56.5508 710.315 56.7532C710.666 56.9556 711.082 57.0568 711.563 57.0568C711.882 57.0568 712.175 57.0118 712.44 56.9219C712.706 56.8319 712.933 56.697 713.122 56.517C713.311 56.3371 713.454 56.1167 713.553 55.8558L716.212 56.0312C716.077 56.67 715.8 57.2277 715.382 57.7045C714.968 58.1768 714.433 58.5457 713.776 58.8111C713.124 59.072 712.37 59.2024 711.516 59.2024ZM717.388 59V48.6364H721.808C723.085 48.6364 724.095 48.8793 724.837 49.3651C725.579 49.8509 725.95 50.5413 725.95 51.4364C725.95 51.9987 725.741 52.4665 725.323 52.8398C724.905 53.2132 724.324 53.4651 723.582 53.5955C724.203 53.6405 724.731 53.7822 725.168 54.0206C725.609 54.2545 725.944 54.5581 726.173 54.9315C726.407 55.3048 726.524 55.7186 726.524 56.1729C726.524 56.7622 726.366 57.2682 726.052 57.6911C725.741 58.1139 725.285 58.4377 724.682 58.6626C724.084 58.8875 723.353 59 722.489 59H717.388ZM720.067 56.8477H722.489C722.889 56.8477 723.202 56.7532 723.427 56.5643C723.656 56.3709 723.771 56.1077 723.771 55.7749C723.771 55.406 723.656 55.1159 723.427 54.9045C723.202 54.6931 722.889 54.5874 722.489 54.5874H720.067V56.8477ZM720.067 52.9006H721.868C722.156 52.9006 722.401 52.8601 722.604 52.7791C722.811 52.6937 722.968 52.5722 723.076 52.4148C723.189 52.2573 723.245 52.0707 723.245 51.8548C723.245 51.5354 723.117 51.2857 722.86 51.1058C722.604 50.9259 722.253 50.8359 721.808 50.8359H720.067V52.9006ZM732.258 59.2024C731.21 59.2024 730.304 58.9798 729.539 58.5344C728.779 58.0846 728.192 57.4594 727.778 56.6587C727.364 55.8536 727.157 54.9202 727.157 53.8587C727.157 52.7881 727.364 51.8525 727.778 51.0518C728.192 50.2467 728.779 49.6214 729.539 49.1761C730.304 48.7263 731.21 48.5014 732.258 48.5014C733.306 48.5014 734.21 48.7263 734.97 49.1761C735.735 49.6214 736.324 50.2467 736.738 51.0518C737.152 51.8525 737.359 52.7881 737.359 53.8587C737.359 54.9202 737.152 55.8536 736.738 56.6587C736.324 57.4594 735.735 58.0846 734.97 58.5344C734.21 58.9798 733.306 59.2024 732.258 59.2024ZM732.272 56.9759C732.748 56.9759 733.146 56.8409 733.466 56.571C733.785 56.2966 734.026 55.9233 734.188 55.451C734.354 54.9787 734.437 54.4412 734.437 53.8384C734.437 53.2357 734.354 52.6982 734.188 52.2259C734.026 51.7536 733.785 51.3802 733.466 51.1058C733.146 50.8314 732.748 50.6942 732.272 50.6942C731.79 50.6942 731.385 50.8314 731.057 51.1058C730.733 51.3802 730.488 51.7536 730.322 52.2259C730.16 52.6982 730.079 53.2357 730.079 53.8384C730.079 54.4412 730.16 54.9787 730.322 55.451C730.488 55.9233 730.733 56.2966 731.057 56.571C731.385 56.8409 731.79 56.9759 732.272 56.9759ZM743.191 59.2024C742.125 59.2024 741.207 58.9865 740.438 58.5547C739.673 58.1184 739.084 57.5021 738.67 56.706C738.256 55.9053 738.05 54.9585 738.05 53.8654C738.05 52.7994 738.256 51.8638 738.67 51.0586C739.084 50.2534 739.667 49.6259 740.418 49.1761C741.173 48.7263 742.06 48.5014 743.076 48.5014C743.76 48.5014 744.396 48.6116 744.986 48.832C745.579 49.0479 746.097 49.3741 746.537 49.8104C746.983 50.2467 747.329 50.7955 747.577 51.4567C747.824 52.1134 747.948 52.8826 747.948 53.7642V54.5536H739.197V52.7724H745.242C745.242 52.3585 745.152 51.992 744.972 51.6726C744.792 51.3532 744.543 51.1036 744.223 50.9237C743.908 50.7392 743.542 50.647 743.123 50.647C742.687 50.647 742.3 50.7482 741.963 50.9506C741.63 51.1486 741.369 51.4162 741.18 51.7536C740.991 52.0864 740.895 52.4575 740.89 52.8668V54.5604C740.89 55.0732 740.985 55.5162 741.173 55.8896C741.367 56.2629 741.639 56.5508 741.99 56.7532C742.341 56.9556 742.757 57.0568 743.238 57.0568C743.557 57.0568 743.85 57.0118 744.115 56.9219C744.381 56.8319 744.608 56.697 744.797 56.517C744.986 56.3371 745.13 56.1167 745.229 55.8558L747.887 56.0312C747.752 56.67 747.475 57.2277 747.057 57.7045C746.643 58.1768 746.108 58.5457 745.451 58.8111C744.799 59.072 744.046 59.2024 743.191 59.2024ZM670.337 87.0362V81.7195H671.134C671.363 81.5755 671.547 81.3461 671.687 81.0312C671.831 80.7164 671.948 80.3453 672.038 79.918C672.132 79.4906 672.204 79.0296 672.254 78.5348C672.308 78.0355 672.355 77.5317 672.395 77.0234L672.665 73.6364H680.613V81.7195H682.219V87.0362H679.48V84H673.144V87.0362H670.337ZM673.994 81.7195H677.901V75.8494H675.108L675 77.0234C674.923 78.13 674.813 79.0701 674.669 79.8438C674.525 80.6129 674.3 81.2382 673.994 81.7195ZM687.857 84.2024C686.791 84.2024 685.873 83.9865 685.104 83.5547C684.34 83.1184 683.75 82.5021 683.337 81.706C682.923 80.9053 682.716 79.9585 682.716 78.8654C682.716 77.7994 682.923 76.8638 683.337 76.0586C683.75 75.2534 684.333 74.6259 685.084 74.1761C685.84 73.7263 686.726 73.5014 687.742 73.5014C688.426 73.5014 689.063 73.6116 689.652 73.832C690.246 74.0479 690.763 74.3741 691.204 74.8104C691.649 75.2467 691.995 75.7955 692.243 76.4567C692.49 77.1134 692.614 77.8826 692.614 78.7642V79.5536H683.863V77.7724H689.908C689.908 77.3585 689.818 76.992 689.638 76.6726C689.458 76.3532 689.209 76.1036 688.889 75.9237C688.575 75.7392 688.208 75.647 687.79 75.647C687.353 75.647 686.966 75.7482 686.629 75.9506C686.296 76.1486 686.035 76.4162 685.846 76.7536C685.658 77.0864 685.561 77.4575 685.556 77.8668V79.5604C685.556 80.0732 685.651 80.5162 685.84 80.8896C686.033 81.2629 686.305 81.5508 686.656 81.7532C687.007 81.9556 687.423 82.0568 687.904 82.0568C688.224 82.0568 688.516 82.0118 688.781 81.9219C689.047 81.8319 689.274 81.697 689.463 81.517C689.652 81.3371 689.796 81.1167 689.895 80.8558L692.553 81.0312C692.418 81.67 692.142 82.2277 691.723 82.7045C691.309 83.1768 690.774 83.5457 690.117 83.8111C689.465 84.072 688.712 84.2024 687.857 84.2024ZM696.476 80.2081L700.207 73.6364H703.041V84H700.301V77.408L696.584 84H693.73V73.6364H696.476V80.2081ZM699.714 70.0199H701.718C701.714 70.8385 701.41 71.4975 700.807 71.9968C700.209 72.4961 699.399 72.7457 698.378 72.7457C697.353 72.7457 696.541 72.4961 695.943 71.9968C695.344 71.4975 695.045 70.8385 695.045 70.0199H697.036C697.031 70.3303 697.13 70.6091 697.333 70.8565C697.539 71.1039 697.888 71.2276 698.378 71.2276C698.855 71.2276 699.197 71.1062 699.404 70.8633C699.611 70.6204 699.714 70.3393 699.714 70.0199ZM709.267 84.2024C708.206 84.2024 707.293 83.9775 706.528 83.5277C705.768 83.0734 705.183 82.4437 704.774 81.6385C704.369 80.8333 704.166 79.9067 704.166 78.8587C704.166 77.7971 704.371 76.866 704.78 76.0653C705.194 75.2602 705.781 74.6327 706.541 74.1829C707.302 73.7286 708.206 73.5014 709.254 73.5014C710.158 73.5014 710.95 73.6656 711.629 73.994C712.308 74.3223 712.846 74.7834 713.241 75.3771C713.637 75.9709 713.855 76.6681 713.896 77.4688H711.184C711.107 76.9515 710.905 76.5354 710.576 76.2205C710.252 75.9012 709.827 75.7415 709.301 75.7415C708.856 75.7415 708.467 75.8629 708.134 76.1058C707.805 76.3442 707.549 76.6928 707.365 77.1516C707.18 77.6104 707.088 78.166 707.088 78.8182C707.088 79.4794 707.178 80.0417 707.358 80.505C707.542 80.9683 707.801 81.3214 708.134 81.5643C708.467 81.8072 708.856 81.9286 709.301 81.9286C709.629 81.9286 709.924 81.8612 710.185 81.7262C710.45 81.5913 710.668 81.3956 710.839 81.1392C711.015 80.8783 711.13 80.5657 711.184 80.2013H713.896C713.851 80.993 713.635 81.6902 713.248 82.293C712.866 82.8912 712.337 83.359 711.663 83.6964C710.988 84.0337 710.189 84.2024 709.267 84.2024ZM714.269 75.8967V73.6364H723.661V75.8967H720.322V84H717.582V75.8967H714.269ZM724.644 84V73.6364H729.063C730.341 73.6364 731.351 73.8793 732.093 74.3651C732.835 74.8509 733.206 75.5413 733.206 76.4364C733.206 76.9987 732.997 77.4665 732.579 77.8398C732.16 78.2132 731.58 78.4651 730.838 78.5955C731.459 78.6405 731.987 78.7822 732.423 79.0206C732.864 79.2545 733.199 79.5581 733.429 79.9315C733.663 80.3048 733.78 80.7186 733.78 81.1729C733.78 81.7622 733.622 82.2682 733.307 82.6911C732.997 83.1139 732.54 83.4377 731.938 83.6626C731.339 83.8875 730.608 84 729.745 84H724.644ZM727.323 81.8477H729.745C730.145 81.8477 730.458 81.7532 730.683 81.5643C730.912 81.3709 731.027 81.1077 731.027 80.7749C731.027 80.406 730.912 80.1159 730.683 79.9045C730.458 79.6931 730.145 79.5874 729.745 79.5874H727.323V81.8477ZM727.323 77.9006H729.124C729.412 77.9006 729.657 77.8601 729.859 77.7791C730.066 77.6937 730.224 77.5722 730.332 77.4148C730.444 77.2573 730.5 77.0707 730.5 76.8548C730.5 76.5354 730.372 76.2857 730.116 76.1058C729.859 75.9259 729.509 75.8359 729.063 75.8359H727.323V77.9006ZM737.577 80.2081L741.308 73.6364H744.142V84H741.403V77.408L737.685 84H734.831V73.6364H737.577V80.2081ZM750.409 84.2024C749.343 84.2024 748.426 83.9865 747.657 83.5547C746.892 83.1184 746.303 82.5021 745.889 81.706C745.475 80.9053 745.268 79.9585 745.268 78.8654C745.268 77.7994 745.475 76.8638 745.889 76.0586C746.303 75.2534 746.885 74.6259 747.636 74.1761C748.392 73.7263 749.278 73.5014 750.295 73.5014C750.978 73.5014 751.615 73.6116 752.204 73.832C752.798 74.0479 753.315 74.3741 753.756 74.8104C754.201 75.2467 754.548 75.7955 754.795 76.4567C755.042 77.1134 755.166 77.8826 755.166 78.7642V79.5536H746.415V77.7724H752.461C752.461 77.3585 752.371 76.992 752.191 76.6726C752.011 76.3532 751.761 76.1036 751.442 75.9237C751.127 75.7392 750.76 75.647 750.342 75.647C749.906 75.647 749.519 75.7482 749.181 75.9506C748.849 76.1486 748.588 76.4162 748.399 76.7536C748.21 77.0864 748.113 77.4575 748.109 77.8668V79.5604C748.109 80.0732 748.203 80.5162 748.392 80.8896C748.585 81.2629 748.858 81.5508 749.208 81.7532C749.559 81.9556 749.975 82.0568 750.457 82.0568C750.776 82.0568 751.068 82.0118 751.334 81.9219C751.599 81.8319 751.826 81.697 752.015 81.517C752.204 81.3371 752.348 81.1167 752.447 80.8558L755.105 81.0312C754.97 81.67 754.694 82.2277 754.276 82.7045C753.862 83.1768 753.326 83.5457 752.67 83.8111C752.017 84.072 751.264 84.2024 750.409 84.2024Z" fill="white"/>
<path d="M685 138.375C690.178 138.375 694.375 134.178 694.375 129C694.375 123.822 690.178 119.625 685 119.625C679.822 119.625 675.625 123.822 675.625 129C675.625 134.178 679.822 138.375 685 138.375Z" stroke="white" stroke-width="1.5" stroke-linecap="round" stroke-linejoin="round"/>
<path d="M685 132.75C687.071 132.75 688.75 131.071 688.75 129C688.75 126.929 687.071 125.25 685 125.25C682.929 125.25 681.25 126.929 681.25 129C681.25 131.071 682.929 132.75 685 132.75Z" stroke="white" stroke-width="1.5" stroke-linecap="round" stroke-linejoin="round"/>
<path d="M685 118.996V116.496" stroke="white" stroke-width="1.5" stroke-linecap="round" stroke-linejoin="round"/>
<path d="M674.996 129H672.496" stroke="white" stroke-width="1.5" stroke-linecap="round" stroke-linejoin="round"/>
<path d="M685 138.996V141.496" stroke="white" stroke-width="1.5" stroke-linecap="round" stroke-linejoin="round"/>
<path d="M694.996 129H697.496" stroke="white" stroke-width="1.5" stroke-linecap="round" stroke-linejoin="round"/>
<path d="M145 189V193C145 204.046 153.954 213 165 213H441C452.046 213 461 204.046 461 193V189" stroke="#E0E0E0" stroke-width="2"/>
<path d="M497 189V193C497 204.046 505.954 213 517 213H732C743.046 213 752 204.046 752 193V189" stroke="#E0E0E0" stroke-width="2"/>
<path d="M454.5 195.5L461 189L467.5 195.5" stroke="#E0E0E0" stroke-width="2"/>
<path d="M745.5 195.5L752 189L758.5 195.5" stroke="#E0E0E0" stroke-width="2"/>
</svg>
