<svg width="860" height="485" viewBox="0 0 860 485" fill="none" xmlns="http://www.w3.org/2000/svg">
<g clip-path="url(#clip0_277_3)">
<rect width="860" height="484" transform="translate(0 0.625)" fill="#010203"/>
<g style="mix-blend-mode:plus-lighter" opacity="0.6" filter="url(#filter0_f_277_3)">
<path d="M678.225 352.645C619.808 379.261 459.142 613.915 199.302 443.824C162.545 421.422 101.726 441.924 73.641 504.742C45.5564 567.561 190.043 582.788 349.567 669.308C509.091 755.829 757.728 498.437 788.512 440.131C819.296 381.826 753.931 318.151 678.225 352.645Z" fill="#38FF27"/>
</g>
<path d="M54.0639 65.0823H57.6024C59.3344 65.0823 60.693 64.7239 61.6784 64.0073C62.6937 63.2608 63.2014 62.2156 63.2014 60.8719C63.2014 59.5878 62.6937 58.5576 61.6784 57.7812C60.693 57.0049 59.3493 56.6167 57.6472 56.6167C54.6312 56.6167 52.6305 57.9156 51.6451 60.5135H46.6285C47.2555 57.7364 48.5694 55.6462 50.5701 54.2427C52.6007 52.8094 54.9597 52.0927 57.6472 52.0927C60.8125 52.0927 63.3507 52.9587 65.2618 54.6906C67.1729 56.3927 68.1285 58.4531 68.1285 60.8719C68.1285 63.5594 66.934 65.7094 64.5451 67.3219C66.9937 68.9941 68.218 71.2337 68.218 74.0406C68.218 76.5489 67.2326 78.6691 65.2618 80.401C63.3208 82.133 60.7378 82.9989 57.5128 82.9989C54.7955 82.9989 52.4514 82.3121 50.4805 80.9385C48.5097 79.5351 47.1809 77.4299 46.4941 74.6229H51.466C52.4812 77.191 54.5118 78.475 57.5576 78.475C59.2597 78.475 60.6333 78.0719 61.6784 77.2656C62.7535 76.4594 63.291 75.3993 63.291 74.0854C63.291 72.7118 62.7833 71.6219 61.768 70.8156C60.7826 70.0094 59.3941 69.6062 57.6024 69.6062H54.0639V65.0823ZM86.7359 61.4989L94.2161 77.3104L101.741 61.4989H107.161V82.4167H102.413V70.0989L96.5005 82.4167H91.8422L85.9297 70.0989V82.4167H81.1817V61.4989H86.7359ZM122.336 60.9167C125.502 60.9167 128.144 61.9767 130.264 64.0969C132.414 66.1871 133.489 68.8149 133.489 71.9802C133.489 75.1156 132.414 77.7434 130.264 79.8635C128.144 81.9538 125.502 82.9989 122.336 82.9989C119.141 82.9989 116.469 81.9538 114.319 79.8635C112.199 77.7733 111.138 75.1455 111.138 71.9802C111.138 68.8149 112.199 66.1871 114.319 64.0969C116.469 61.9767 119.141 60.9167 122.336 60.9167ZM122.336 78.6094C124.218 78.6094 125.755 77.9823 126.95 76.7281C128.144 75.4739 128.742 73.8913 128.742 71.9802C128.742 70.0392 128.144 68.4417 126.95 67.1875C125.755 65.9333 124.218 65.3062 122.336 65.3062C120.485 65.3062 118.947 65.9483 117.723 67.2323C116.499 68.4864 115.886 70.0691 115.886 71.9802C115.886 73.8614 116.499 75.4441 117.723 76.7281C118.947 77.9823 120.485 78.6094 122.336 78.6094ZM161.087 88.0604H156.473V82.4167H139.766V88.0604H135.197V78.251H137.84C139.333 76.758 140.08 74.0705 140.08 70.1885V61.4989H157.593V78.251H161.087V88.0604ZM144.828 65.6646V70.1437C144.828 73.6375 144.335 76.3399 143.349 78.251H152.845V65.6646H144.828ZM174.48 78.6094C176.749 78.6094 178.392 77.8479 179.407 76.325H184.558C183.782 78.3854 182.483 80.0128 180.661 81.2073C178.84 82.4017 176.779 82.9989 174.48 82.9989C171.285 82.9989 168.627 81.9538 166.507 79.8635C164.387 77.7733 163.327 75.1305 163.327 71.9354C163.327 68.8 164.357 66.1871 166.417 64.0969C168.478 61.9767 171.091 60.9167 174.256 60.9167C177.332 60.9167 179.87 61.9618 181.87 64.0521C183.871 66.1125 184.872 68.6805 184.872 71.7562C184.872 72.7118 184.842 73.3389 184.782 73.6375H168.254C168.523 75.1305 169.224 76.3399 170.359 77.2656C171.524 78.1614 172.897 78.6094 174.48 78.6094ZM174.256 65.1719C172.703 65.1719 171.374 65.6049 170.269 66.4708C169.194 67.3069 168.552 68.4267 168.343 69.8302H179.855C179.616 68.3969 178.989 67.2621 177.974 66.426C176.988 65.5899 175.749 65.1719 174.256 65.1719ZM191.078 61.4989H208.413V82.4167H203.665V65.6646H195.826V70.2781C195.826 71.8608 195.737 73.2642 195.558 74.4885C195.408 75.683 195.08 76.9371 194.572 78.251C194.094 79.5649 193.303 80.5951 192.198 81.3417C191.093 82.0583 189.705 82.4167 188.033 82.4167H186.286V77.9823H187.495C188.331 77.9823 189.003 77.7583 189.511 77.3104C190.048 76.8326 190.407 76.1458 190.586 75.25C190.795 74.3542 190.929 73.5628 190.989 72.876C191.049 72.1892 191.078 71.2934 191.078 70.1885V61.4989ZM218.412 82.4167H213.665V61.4989H218.412V75.6979L229.566 61.4989H234.313V82.4167H229.566V68.2177L218.412 82.4167ZM254.101 81.9687L244.874 61.4989H250.159L256.744 76.1458L263.283 61.4989H268.345L258.401 83.5364C256.938 86.7316 255.908 88.7024 255.31 89.4489C254.325 90.6733 252.906 91.3601 251.055 91.5094C250.667 91.5392 250.234 91.5542 249.756 91.5542H247.203V87.3885H249.039C250.055 87.3885 250.861 87.1347 251.458 86.6271C252.085 86.1194 252.697 85.1788 253.295 83.8052L254.101 81.9687ZM270.601 61.4989H290.892V82.4167H286.144V65.6646H275.349V82.4167H270.601V61.4989ZM300.918 91.5542H296.17V61.4989H300.918V63.425C302.501 61.7528 304.695 60.9167 307.502 60.9167C310.757 60.9167 313.34 62.0066 315.251 64.1864C317.192 66.3364 318.163 68.9194 318.163 71.9354C318.163 74.9812 317.192 77.5941 315.251 79.7739C313.34 81.9239 310.757 82.9989 307.502 82.9989C304.695 82.9989 302.501 82.1628 300.918 80.4906V91.5542ZM302.62 67.0531C301.366 68.1878 300.739 69.8153 300.739 71.9354C300.739 74.0555 301.366 75.6979 302.62 76.8625C303.904 78.0271 305.427 78.6094 307.189 78.6094C309.01 78.6094 310.503 77.9674 311.668 76.6833C312.833 75.3694 313.415 73.7868 313.415 71.9354C313.415 70.1139 312.833 68.5611 311.668 67.2771C310.503 65.9632 309.01 65.3062 307.189 65.3062C305.427 65.3062 303.904 65.8885 302.62 67.0531ZM330.778 60.9167C333.883 60.9167 336.377 61.6483 338.258 63.1114C340.139 64.5746 341.08 66.6201 341.08 69.2479V82.4167H336.332V80.4906C334.749 82.1628 332.405 82.9989 329.3 82.9989C326.732 82.9989 324.686 82.4017 323.163 81.2073C321.67 79.983 320.924 78.2361 320.924 75.9667C320.924 74.3243 321.386 72.9955 322.312 71.9802C323.268 70.9351 324.417 70.2184 325.761 69.8302C327.135 69.442 328.702 69.2479 330.464 69.2479H336.332C336.332 67.9042 335.824 66.9187 334.809 66.2917C333.794 65.6347 332.465 65.3062 330.823 65.3062C327.986 65.3062 326.209 66.2021 325.492 67.9937H320.431C321.028 65.7243 322.267 63.9774 324.149 62.7531C326.06 61.5288 328.269 60.9167 330.778 60.9167ZM336.332 74.175V73.0552H330.419C327.254 73.0552 325.672 74.0257 325.672 75.9667C325.672 76.9222 326.06 77.6687 326.836 78.2062C327.613 78.7139 328.688 78.9677 330.061 78.9677C331.913 78.9677 333.421 78.5496 334.585 77.7135C335.75 76.8476 336.332 75.668 336.332 74.175ZM363.243 71.8906C364.826 72.9059 365.617 74.4288 365.617 76.4594C365.617 78.1614 365.02 79.5799 363.825 80.7146C362.631 81.8493 360.929 82.4167 358.719 82.4167H345.909V61.4989H358.495C360.735 61.4989 362.437 62.0663 363.602 63.201C364.796 64.3059 365.393 65.7243 365.393 67.4562C365.393 69.3674 364.677 70.8455 363.243 71.8906ZM350.657 78.4302H358.092C359.944 78.4302 360.869 77.6687 360.869 76.1458C360.869 74.6229 359.944 73.8614 358.092 73.8614H350.657V78.4302ZM350.657 70.0094H357.868C359.72 70.0094 360.645 69.2479 360.645 67.725C360.645 66.2319 359.72 65.4854 357.868 65.4854H350.657V70.0094ZM372.318 61.4989H389.652V82.4167H384.904V65.6646H377.066V70.2781C377.066 71.8608 376.976 73.2642 376.797 74.4885C376.648 75.683 376.319 76.9371 375.812 78.251C375.334 79.5649 374.543 80.5951 373.438 81.3417C372.333 82.0583 370.944 82.4167 369.272 82.4167H367.525V77.9823H368.735C369.571 77.9823 370.243 77.7583 370.75 77.3104C371.288 76.8326 371.646 76.1458 371.825 75.25C372.034 74.3542 372.169 73.5628 372.228 72.876C372.288 72.1892 372.318 71.2934 372.318 70.1885V61.4989ZM404.758 78.6094C407.028 78.6094 408.67 77.8479 409.685 76.325H414.836C414.06 78.3854 412.761 80.0128 410.939 81.2073C409.118 82.4017 407.057 82.9989 404.758 82.9989C401.563 82.9989 398.905 81.9538 396.785 79.8635C394.665 77.7733 393.605 75.1305 393.605 71.9354C393.605 68.8 394.635 66.1871 396.696 64.0969C398.756 61.9767 401.369 60.9167 404.534 60.9167C407.61 60.9167 410.148 61.9618 412.149 64.0521C414.149 66.1125 415.15 68.6805 415.15 71.7562C415.15 72.7118 415.12 73.3389 415.06 73.6375H398.532C398.801 75.1305 399.503 76.3399 400.637 77.2656C401.802 78.1614 403.175 78.6094 404.758 78.6094ZM404.534 65.1719C402.981 65.1719 401.653 65.6049 400.548 66.4708C399.473 67.3069 398.831 68.4267 398.622 69.8302H410.133C409.894 68.3969 409.267 67.2621 408.252 66.426C407.266 65.5899 406.027 65.1719 404.534 65.1719ZM435.018 61.4989H439.766V82.4167H435.018V73.951H423.865V82.4167H419.117V61.4989H423.865V69.7854H435.018V61.4989ZM449.784 82.4167H445.036V61.4989H449.784V75.6979L460.937 61.4989H465.685V82.4167H460.937V68.2177L449.784 82.4167ZM483.9 75.9667H479.959L474.404 82.4167H468.402L474.36 75.4739C472.777 74.9663 471.583 74.1153 470.776 72.9208C469.97 71.6965 469.567 70.293 469.567 68.7104C469.567 66.6201 470.254 64.9031 471.627 63.5594C473.031 62.1858 475.061 61.4989 477.719 61.4989H488.648V82.4167H483.9V75.9667ZM483.9 65.6646H477.853C476.749 65.6646 475.883 65.9333 475.255 66.4708C474.628 66.9785 474.315 67.725 474.315 68.7104C474.315 69.6958 474.628 70.4573 475.255 70.9948C475.912 71.5323 476.778 71.801 477.853 71.801H483.9V65.6646Z" fill="white"/>
<rect x="44.792" y="118.875" width="247.847" height="320.708" rx="17.9167" fill="white" fill-opacity="0.12"/>
<path opacity="0.7" d="M73.0667 161.75V149.01H77.6079C78.5991 149.01 79.4203 149.19 80.0714 149.551C80.7225 149.912 81.2098 150.405 81.5333 151.031C81.8568 151.653 82.0186 152.354 82.0186 153.134C82.0186 153.918 81.8547 154.623 81.5271 155.249C81.2036 155.871 80.7142 156.365 80.059 156.73C79.4079 157.091 78.5888 157.271 77.6017 157.271H74.4788V155.641H77.4275C78.0538 155.641 78.5618 155.533 78.9517 155.318C79.3415 155.098 79.6277 154.799 79.8101 154.422C79.9926 154.044 80.0839 153.615 80.0839 153.134C80.0839 152.653 79.9926 152.226 79.8101 151.853C79.6277 151.479 79.3394 151.187 78.9454 150.975C78.5556 150.764 78.0413 150.658 77.4027 150.658H74.9889V161.75H73.0667ZM85.2109 165.333C84.9331 165.333 84.6801 165.31 84.452 165.265C84.2239 165.223 84.0538 165.178 83.9419 165.128L84.3898 163.604C84.7299 163.695 85.0326 163.734 85.298 163.722C85.5635 163.71 85.7978 163.61 86.001 163.423C86.2083 163.237 86.3908 162.932 86.5484 162.509L86.7786 161.874L83.2825 152.195H85.2731L87.6931 159.61H87.7926L90.2125 152.195H92.2094L88.2716 163.025C88.0891 163.523 87.8569 163.944 87.5749 164.288C87.2929 164.636 86.9569 164.898 86.5671 165.072C86.1772 165.246 85.7252 165.333 85.2109 165.333ZM97.5698 161.943C96.645 161.943 95.8487 161.733 95.181 161.315C94.5174 160.892 94.0073 160.309 93.6506 159.566C93.294 158.824 93.1156 157.974 93.1156 157.016C93.1156 156.045 93.2981 155.189 93.6631 154.447C94.028 153.7 94.5423 153.117 95.2059 152.699C95.8694 152.28 96.6512 152.07 97.5511 152.07C98.2769 152.07 98.9239 152.205 99.492 152.475C100.06 152.74 100.518 153.113 100.867 153.594C101.219 154.075 101.429 154.637 101.495 155.28H99.6849C99.5854 154.832 99.3573 154.447 99.0006 154.123C98.6481 153.8 98.1753 153.638 97.5822 153.638C97.0638 153.638 96.6097 153.775 96.2199 154.049C95.8342 154.318 95.5335 154.704 95.3178 155.206C95.1022 155.703 94.9943 156.292 94.9943 156.972C94.9943 157.669 95.1001 158.27 95.3116 158.776C95.5231 159.282 95.8217 159.674 96.2074 159.952C96.5973 160.23 97.0555 160.369 97.5822 160.369C97.9348 160.369 98.2541 160.305 98.5403 160.176C98.8306 160.043 99.0732 159.855 99.2681 159.61C99.4672 159.365 99.6061 159.071 99.6849 158.727H101.495C101.429 159.345 101.228 159.896 100.892 160.381C100.556 160.867 100.106 161.248 99.5418 161.526C98.9819 161.804 98.3246 161.943 97.5698 161.943ZM107.422 161.943C106.497 161.943 105.701 161.733 105.033 161.315C104.369 160.892 103.859 160.309 103.502 159.566C103.146 158.824 102.967 157.974 102.967 157.016C102.967 156.045 103.15 155.189 103.515 154.447C103.88 153.7 104.394 153.117 105.058 152.699C105.721 152.28 106.503 152.07 107.403 152.07C108.129 152.07 108.776 152.205 109.344 152.475C109.912 152.74 110.37 153.113 110.719 153.594C111.071 154.075 111.281 154.637 111.347 155.28H109.537C109.437 154.832 109.209 154.447 108.852 154.123C108.5 153.8 108.027 153.638 107.434 153.638C106.916 153.638 106.462 153.775 106.072 154.049C105.686 154.318 105.385 154.704 105.17 155.206C104.954 155.703 104.846 156.292 104.846 156.972C104.846 157.669 104.952 158.27 105.163 158.776C105.375 159.282 105.674 159.674 106.059 159.952C106.449 160.23 106.907 160.369 107.434 160.369C107.787 160.369 108.106 160.305 108.392 160.176C108.682 160.043 108.925 159.855 109.12 159.61C109.319 159.365 109.458 159.071 109.537 158.727H111.347C111.281 159.345 111.08 159.896 110.744 160.381C110.408 160.867 109.958 161.248 109.394 161.526C108.834 161.804 108.176 161.943 107.422 161.943ZM113.249 161.75V152.195H115.109V156.201H116.004L119.158 152.195H121.46L117.759 156.842L121.504 161.75H119.196L116.315 157.93H115.109V161.75H113.249ZM125.642 161.962C125.036 161.962 124.489 161.85 123.999 161.626C123.51 161.397 123.122 161.068 122.836 160.636C122.554 160.205 122.413 159.676 122.413 159.05C122.413 158.511 122.517 158.067 122.724 157.719C122.931 157.37 123.211 157.095 123.564 156.891C123.916 156.688 124.31 156.535 124.746 156.431C125.181 156.327 125.625 156.249 126.077 156.195C126.649 156.128 127.114 156.074 127.471 156.033C127.827 155.987 128.086 155.915 128.248 155.815C128.41 155.716 128.491 155.554 128.491 155.33V155.286C128.491 154.743 128.337 154.322 128.03 154.024C127.728 153.725 127.276 153.576 126.674 153.576C126.048 153.576 125.555 153.715 125.194 153.993C124.837 154.266 124.59 154.571 124.453 154.907L122.705 154.509C122.913 153.928 123.215 153.46 123.614 153.103C124.016 152.742 124.478 152.481 125.001 152.319C125.523 152.153 126.073 152.07 126.649 152.07C127.031 152.07 127.435 152.116 127.863 152.207C128.294 152.294 128.696 152.456 129.069 152.692C129.447 152.929 129.756 153.267 129.996 153.706C130.237 154.142 130.357 154.708 130.357 155.405V161.75H128.541V160.444H128.466C128.346 160.684 128.165 160.921 127.925 161.153C127.684 161.385 127.375 161.578 126.998 161.731C126.62 161.885 126.168 161.962 125.642 161.962ZM126.046 160.468C126.56 160.468 127 160.367 127.365 160.164C127.734 159.96 128.014 159.695 128.205 159.367C128.4 159.036 128.497 158.681 128.497 158.304V157.072C128.431 157.138 128.302 157.2 128.111 157.259C127.925 157.312 127.711 157.36 127.471 157.402C127.23 157.439 126.996 157.474 126.768 157.507C126.54 157.536 126.349 157.561 126.195 157.582C125.834 157.628 125.505 157.704 125.206 157.812C124.912 157.92 124.675 158.076 124.497 158.279C124.323 158.478 124.236 158.743 124.236 159.075C124.236 159.535 124.406 159.884 124.746 160.12C125.086 160.352 125.519 160.468 126.046 160.468ZM138.445 161.75V153.781H136.156C135.613 153.781 135.19 153.908 134.887 154.161C134.584 154.413 134.433 154.745 134.433 155.156C134.433 155.562 134.572 155.89 134.85 156.139C135.132 156.383 135.526 156.506 136.032 156.506H138.987V158.011H136.032C135.327 158.011 134.717 157.895 134.203 157.663C133.693 157.426 133.299 157.093 133.021 156.661C132.747 156.23 132.61 155.72 132.61 155.131C132.61 154.53 132.751 154.011 133.033 153.576C133.319 153.136 133.728 152.796 134.259 152.556C134.794 152.315 135.426 152.195 136.156 152.195H140.193V161.75H138.445ZM132.175 161.75L134.868 156.923H136.772L134.078 161.75H132.175Z" fill="white"/>
<path d="M80.4014 347.78L85.427 337.863H88.437L81.5839 351.543C81.0105 352.689 80.5357 353.531 80.1595 354.069C79.8012 354.589 79.3443 354.992 78.7889 355.278C78.2335 355.565 77.5257 355.708 76.6657 355.708H74.5426V352.994H76.3164C76.9076 352.994 77.3824 352.877 77.7407 352.645C78.0991 352.412 78.4037 352.026 78.6545 351.489L78.9232 350.898L72.2314 337.863H75.2951L80.4014 347.78ZM87.273 343.158H99.4473V355.708H96.5986V345.657H90.1217V355.708H87.273V343.158ZM105.05 361.191H102.201V343.158H105.05V344.313C106 343.31 107.316 342.808 109.001 342.808C110.953 342.808 112.503 343.462 113.65 344.77C114.815 346.06 115.397 347.61 115.397 349.42C115.397 351.247 114.815 352.815 113.65 354.123C112.503 355.413 110.953 356.058 109.001 356.058C107.316 356.058 106 355.556 105.05 354.553V361.191ZM106.071 346.49C105.319 347.171 104.942 348.147 104.942 349.42C104.942 350.692 105.319 351.677 106.071 352.376C106.842 353.075 107.755 353.424 108.812 353.424C109.905 353.424 110.801 353.039 111.5 352.268C112.199 351.48 112.548 350.53 112.548 349.42C112.548 348.327 112.199 347.395 111.5 346.625C110.801 345.836 109.905 345.442 108.812 345.442C107.755 345.442 106.842 345.791 106.071 346.49ZM122.552 342.808C124.416 342.808 125.912 343.247 127.041 344.125C128.169 345.003 128.734 346.23 128.734 347.807V355.708H125.885V354.553C124.935 355.556 123.529 356.058 121.666 356.058C120.125 356.058 118.897 355.699 117.984 354.983C117.088 354.248 116.64 353.2 116.64 351.838C116.64 350.853 116.918 350.056 117.473 349.446C118.046 348.819 118.736 348.389 119.542 348.156C120.367 347.924 121.307 347.807 122.364 347.807H125.885C125.885 347.001 125.58 346.41 124.971 346.033C124.362 345.639 123.565 345.442 122.579 345.442C120.877 345.442 119.811 345.98 119.381 347.055H116.344C116.703 345.693 117.446 344.645 118.575 343.91C119.722 343.176 121.047 342.808 122.552 342.808ZM125.885 350.763V350.091H122.337C120.438 350.091 119.489 350.674 119.489 351.838C119.489 352.412 119.722 352.86 120.187 353.182C120.653 353.487 121.298 353.639 122.122 353.639C123.233 353.639 124.138 353.388 124.837 352.886C125.536 352.367 125.885 351.659 125.885 350.763ZM141.618 349.393C142.568 350.002 143.043 350.916 143.043 352.134C143.043 353.155 142.684 354.006 141.968 354.687C141.251 355.368 140.23 355.708 138.904 355.708H131.218V343.158H138.77C140.113 343.158 141.135 343.498 141.833 344.179C142.55 344.842 142.908 345.693 142.908 346.732C142.908 347.879 142.478 348.766 141.618 349.393ZM134.067 353.316H138.528C139.639 353.316 140.194 352.86 140.194 351.946C140.194 351.032 139.639 350.575 138.528 350.575H134.067V353.316ZM134.067 348.264H138.393C139.504 348.264 140.06 347.807 140.06 346.893C140.06 345.997 139.504 345.55 138.393 345.55H134.067V348.264ZM146.65 343.158H157.051V355.708H154.202V345.657H149.499V348.425C149.499 349.375 149.445 350.217 149.337 350.951C149.248 351.668 149.051 352.421 148.746 353.209C148.46 353.997 147.985 354.615 147.322 355.063C146.659 355.493 145.826 355.708 144.822 355.708H143.774V353.048H144.5C145.002 353.048 145.405 352.913 145.709 352.645C146.032 352.358 146.247 351.946 146.354 351.408C146.48 350.871 146.56 350.396 146.596 349.984C146.632 349.572 146.65 349.034 146.65 348.371V343.158ZM165.701 353.424C167.062 353.424 168.048 352.967 168.657 352.053H171.748C171.282 353.29 170.502 354.266 169.409 354.983C168.317 355.699 167.08 356.058 165.701 356.058C163.784 356.058 162.189 355.431 160.917 354.176C159.645 352.922 159.009 351.337 159.009 349.42C159.009 347.538 159.627 345.971 160.863 344.716C162.099 343.444 163.667 342.808 165.566 342.808C167.412 342.808 168.935 343.435 170.135 344.69C171.336 345.926 171.936 347.467 171.936 349.312C171.936 349.885 171.918 350.262 171.882 350.441H161.965C162.126 351.337 162.547 352.062 163.228 352.618C163.927 353.155 164.751 353.424 165.701 353.424ZM165.566 345.361C164.635 345.361 163.837 345.621 163.174 346.141C162.529 346.642 162.144 347.314 162.019 348.156H168.926C168.782 347.296 168.406 346.616 167.797 346.114C167.206 345.612 166.462 345.361 165.566 345.361ZM183.443 343.158H186.292V355.708H183.443V350.629H176.752V355.708H173.903V343.158H176.752V348.13H183.443V343.158ZM191.89 355.708H189.041V343.158H191.89V351.677L198.582 343.158H201.43V355.708H198.582V347.189L191.89 355.708ZM210.092 353.424C211.453 353.424 212.439 352.967 213.048 352.053H216.139C215.673 353.29 214.893 354.266 213.8 354.983C212.708 355.699 211.471 356.058 210.092 356.058C208.175 356.058 206.58 355.431 205.308 354.176C204.036 352.922 203.4 351.337 203.4 349.42C203.4 347.538 204.018 345.971 205.254 344.716C206.49 343.444 208.058 342.808 209.957 342.808C211.803 342.808 213.326 343.435 214.526 344.69C215.727 345.926 216.327 347.467 216.327 349.312C216.327 349.885 216.309 350.262 216.273 350.441H206.356C206.517 351.337 206.938 352.062 207.619 352.618C208.318 353.155 209.142 353.424 210.092 353.424ZM209.957 345.361C209.026 345.361 208.228 345.621 207.565 346.141C206.92 346.642 206.535 347.314 206.41 348.156H213.317C213.173 347.296 212.797 346.616 212.188 346.114C211.597 345.612 210.853 345.361 209.957 345.361ZM73.7095 370.158H76.5582V375.318L82.1214 370.158H86.0182L79.1651 376.446L86.0182 382.708H82.1214L76.5582 377.844V382.708H73.7095V370.158ZM89.833 388.191H86.9843V370.158H89.833V371.313C90.7826 370.31 92.0995 369.808 93.7836 369.808C95.7366 369.808 97.2864 370.462 98.433 371.77C99.5976 373.06 100.18 374.61 100.18 376.42C100.18 378.247 99.5976 379.815 98.433 381.123C97.2864 382.413 95.7366 383.058 93.7836 383.058C92.0995 383.058 90.7826 382.556 89.833 381.553V388.191ZM90.8543 373.49C90.1018 374.171 89.7255 375.147 89.7255 376.42C89.7255 377.692 90.1018 378.677 90.8543 379.376C91.6247 380.075 92.5384 380.424 93.5955 380.424C94.6884 380.424 95.5843 380.039 96.283 379.268C96.9818 378.48 97.3311 377.53 97.3311 376.42C97.3311 375.327 96.9818 374.395 96.283 373.625C95.5843 372.836 94.6884 372.442 93.5955 372.442C92.5384 372.442 91.6247 372.791 90.8543 373.49ZM104.997 382.708H102.149V370.158H104.997V378.677L111.689 370.158H114.538V382.708H111.689V374.189L104.997 382.708ZM128.494 373.866C128.494 374.977 128.028 375.819 127.096 376.393C128.1 377.038 128.601 377.925 128.601 379.053C128.601 380.2 128.055 381.159 126.962 381.929C125.887 382.681 124.48 383.058 122.743 383.058C120.969 383.058 119.535 382.681 118.443 381.929C117.368 381.176 116.687 380.164 116.4 378.892H119.518C119.965 380.021 121.094 380.585 122.904 380.585C123.71 380.585 124.382 380.433 124.919 380.128C125.475 379.806 125.753 379.403 125.753 378.919C125.753 378.489 125.591 378.157 125.269 377.925C124.946 377.692 124.516 377.575 123.979 377.575H120.996V375.264H123.898C124.436 375.264 124.857 375.147 125.161 374.915C125.484 374.682 125.645 374.35 125.645 373.92C125.645 373.419 125.385 373.015 124.866 372.711C124.346 372.406 123.683 372.254 122.877 372.254C121.211 372.254 120.118 372.756 119.598 373.759H116.508C116.848 372.576 117.547 371.627 118.604 370.91C119.661 370.176 121.067 369.808 122.823 369.808C124.274 369.808 125.582 370.149 126.747 370.83C127.911 371.51 128.494 372.523 128.494 373.866ZM133.568 382.708H130.719V370.158H133.568V378.677L140.26 370.158H143.109V382.708H140.26V374.189L133.568 382.708ZM157.763 374.055H154.78C154.117 372.98 153.096 372.442 151.716 372.442C150.605 372.442 149.691 372.818 148.975 373.571C148.276 374.323 147.927 375.273 147.927 376.42C147.927 377.566 148.276 378.525 148.975 379.295C149.691 380.048 150.605 380.424 151.716 380.424C153.096 380.424 154.117 379.886 154.78 378.811H157.763C157.297 380.119 156.518 381.159 155.425 381.929C154.35 382.681 153.114 383.058 151.716 383.058C149.835 383.058 148.258 382.431 146.986 381.176C145.714 379.904 145.078 378.319 145.078 376.42C145.078 374.538 145.714 372.971 146.986 371.716C148.258 370.444 149.835 369.808 151.716 369.808C153.114 369.808 154.35 370.194 155.425 370.964C156.518 371.716 157.297 372.747 157.763 374.055ZM169.145 370.158H171.994V382.708H169.145V377.629H162.453V382.708H159.605V370.158H162.453V375.13H169.145V370.158ZM188.1 370.158H190.948V382.708H188.1V370.158ZM177.591 374.028H181.166C182.742 374.028 183.952 374.449 184.794 375.291C185.636 376.115 186.057 377.145 186.057 378.381C186.057 379.636 185.636 380.675 184.794 381.499C183.97 382.305 182.76 382.708 181.166 382.708H174.743V370.158H177.591V374.028ZM177.591 380.209H181.085C181.748 380.209 182.268 380.057 182.644 379.752C183.02 379.43 183.208 378.973 183.208 378.381C183.208 377.79 183.011 377.333 182.617 377.011C182.241 376.688 181.73 376.527 181.085 376.527H177.591V380.209ZM197.019 370.158L201.507 379.645L206.022 370.158H209.274V382.708H206.425V375.318L202.878 382.708H200.083L196.535 375.318V382.708H193.686V370.158H197.019ZM214.875 382.708H212.027V370.158H214.875V378.677L221.567 370.158H224.416V382.708H221.567V374.189L214.875 382.708ZM85.6151 401.055H82.632C81.9691 399.98 80.9478 399.442 79.5682 399.442C78.4574 399.442 77.5437 399.818 76.827 400.571C76.1282 401.323 75.7789 402.273 75.7789 403.42C75.7789 404.566 76.1282 405.525 76.827 406.295C77.5437 407.048 78.4574 407.424 79.5682 407.424C80.9478 407.424 81.9691 406.886 82.632 405.811H85.6151C85.1493 407.119 84.3699 408.159 83.277 408.929C82.202 409.681 80.9657 410.058 79.5682 410.058C77.687 410.058 76.1103 409.431 74.8382 408.176C73.5662 406.904 72.9301 405.319 72.9301 403.42C72.9301 401.538 73.5662 399.971 74.8382 398.716C76.1103 397.444 77.687 396.808 79.5682 396.808C80.9657 396.808 82.202 397.194 83.277 397.964C84.3699 398.716 85.1493 399.747 85.6151 401.055ZM90.3054 409.708H87.4567V397.158H90.3054V405.677L96.9973 397.158H99.8461V409.708H96.9973V401.189L90.3054 409.708ZM101.063 399.657V397.158H113.452V399.657H108.669V409.708H105.82V399.657H101.063ZM118.923 409.44L113.387 397.158H116.558L120.509 405.946L124.432 397.158H127.469L121.503 410.38C120.625 412.297 120.007 413.48 119.649 413.928C119.057 414.662 118.206 415.074 117.095 415.164C116.862 415.182 116.603 415.191 116.316 415.191H114.784V412.691H115.886C116.495 412.691 116.979 412.539 117.337 412.235C117.714 411.93 118.081 411.366 118.439 410.541L118.923 409.44ZM133.334 396.808C135.197 396.808 136.693 397.247 137.822 398.125C138.951 399.003 139.515 400.23 139.515 401.807V409.708H136.666V408.553C135.717 409.556 134.31 410.058 132.447 410.058C130.906 410.058 129.679 409.699 128.765 408.983C127.869 408.248 127.421 407.2 127.421 405.838C127.421 404.853 127.699 404.056 128.255 403.446C128.828 402.819 129.518 402.389 130.324 402.156C131.148 401.924 132.089 401.807 133.146 401.807H136.666C136.666 401.001 136.362 400.41 135.753 400.033C135.144 399.639 134.346 399.442 133.361 399.442C131.659 399.442 130.593 399.98 130.163 401.055H127.126C127.484 399.693 128.228 398.645 129.356 397.91C130.503 397.176 131.829 396.808 133.334 396.808ZM136.666 404.763V404.091H133.119C131.22 404.091 130.27 404.674 130.27 405.838C130.27 406.412 130.503 406.86 130.969 407.182C131.435 407.487 132.08 407.639 132.904 407.639C134.015 407.639 134.92 407.388 135.618 406.886C136.317 406.367 136.666 405.659 136.666 404.763ZM156.189 413.095H153.448V409.708H141.999V397.158H144.848V407.209H151.271V397.158H154.12V407.209H156.189V413.095ZM160.747 409.708H157.899V397.158H160.747V405.677L167.439 397.158H170.288V409.708H167.439V401.189L160.747 409.708ZM180.804 405.838H178.439L175.106 409.708H171.505L175.079 405.543C174.13 405.238 173.413 404.727 172.929 404.011C172.446 403.276 172.204 402.434 172.204 401.485C172.204 400.23 172.616 399.2 173.44 398.394C174.282 397.57 175.5 397.158 177.095 397.158H183.652V409.708H180.804V405.838ZM180.804 399.657H177.176C176.513 399.657 175.993 399.818 175.617 400.141C175.241 400.445 175.052 400.893 175.052 401.485C175.052 402.076 175.241 402.533 175.617 402.855C176.011 403.178 176.531 403.339 177.176 403.339H180.804V399.657ZM189.723 397.158L194.211 406.645L198.726 397.158H201.978V409.708H199.129V402.318L195.582 409.708H192.787L189.239 402.318V409.708H186.39V397.158H189.723ZM207.579 409.708H204.73V397.158H207.579V405.677L214.271 397.158H217.12V409.708H214.271V401.189L207.579 409.708Z" fill="white"/>
<rect x="306.077" y="118.875" width="247.847" height="320.708" rx="17.9167" fill="white" fill-opacity="0.12"/>
<path opacity="0.7" d="M335.428 161.75H333.388L337.972 149.01H340.193L344.778 161.75H342.738L339.136 151.324H339.036L335.428 161.75ZM335.77 156.761H342.389V158.378H335.77V156.761ZM351.743 159.448L354.829 152.195H356.434L352.434 161.75H351.053L347.134 152.195H348.72L351.743 159.448ZM348.204 152.195V161.75H346.381V152.195H348.204ZM355.333 161.75V152.195H357.143V161.75H355.333ZM363.653 161.943C362.711 161.943 361.901 161.742 361.22 161.339C360.544 160.933 360.022 160.363 359.653 159.629C359.288 158.891 359.105 158.026 359.105 157.035C359.105 156.056 359.288 155.193 359.653 154.447C360.022 153.7 360.536 153.118 361.196 152.699C361.859 152.28 362.635 152.07 363.522 152.07C364.061 152.07 364.584 152.16 365.09 152.338C365.596 152.516 366.05 152.796 366.452 153.178C366.854 153.559 367.172 154.055 367.404 154.664C367.636 155.27 367.752 156.006 367.752 156.873V157.532H360.157V156.139H365.93C365.93 155.649 365.83 155.216 365.631 154.839C365.432 154.457 365.152 154.156 364.791 153.937C364.435 153.717 364.016 153.607 363.535 153.607C363.012 153.607 362.556 153.735 362.166 153.993C361.78 154.246 361.482 154.577 361.27 154.988C361.063 155.394 360.959 155.836 360.959 156.313V157.402C360.959 158.04 361.071 158.584 361.295 159.032C361.523 159.479 361.84 159.822 362.247 160.058C362.653 160.29 363.128 160.406 363.671 160.406C364.024 160.406 364.345 160.357 364.636 160.257C364.926 160.153 365.177 160 365.388 159.797C365.6 159.593 365.762 159.343 365.874 159.044L367.634 159.361C367.493 159.88 367.24 160.334 366.875 160.724C366.514 161.109 366.06 161.41 365.513 161.626C364.97 161.837 364.35 161.943 363.653 161.943ZM369.729 165.333V152.195H371.545V153.744H371.701C371.808 153.545 371.964 153.315 372.167 153.053C372.37 152.792 372.652 152.564 373.013 152.369C373.374 152.17 373.851 152.07 374.444 152.07C375.215 152.07 375.904 152.265 376.509 152.655C377.115 153.045 377.59 153.607 377.934 154.341C378.282 155.075 378.456 155.958 378.456 156.991C378.456 158.024 378.284 158.909 377.94 159.647C377.596 160.381 377.123 160.948 376.522 161.346C375.92 161.74 375.234 161.937 374.463 161.937C373.882 161.937 373.407 161.839 373.038 161.644C372.673 161.449 372.387 161.221 372.18 160.96C371.972 160.699 371.813 160.466 371.701 160.263H371.589V165.333H369.729ZM371.551 156.972C371.551 157.644 371.649 158.233 371.844 158.739C372.039 159.245 372.321 159.641 372.69 159.927C373.059 160.209 373.511 160.35 374.046 160.35C374.602 160.35 375.066 160.203 375.439 159.909C375.813 159.61 376.095 159.206 376.285 158.696C376.48 158.185 376.578 157.611 376.578 156.972C376.578 156.342 376.482 155.776 376.292 155.274C376.105 154.772 375.823 154.376 375.446 154.086C375.072 153.796 374.606 153.65 374.046 153.65C373.507 153.65 373.051 153.789 372.677 154.067C372.308 154.345 372.028 154.733 371.837 155.231C371.647 155.728 371.551 156.309 371.551 156.972ZM382.276 159.144L386.487 152.195H388.49V161.75H386.668V154.795L382.475 161.75H380.453V152.195H382.276V159.144ZM390.904 161.75V152.195H392.764V156.201H393.659L396.813 152.195H399.115L395.414 156.842L399.159 161.75H396.851L393.97 157.93H392.764V161.75H390.904ZM403.297 161.962C402.691 161.962 402.144 161.85 401.654 161.626C401.165 161.398 400.777 161.068 400.491 160.637C400.209 160.205 400.068 159.676 400.068 159.05C400.068 158.511 400.172 158.067 400.379 157.719C400.586 157.371 400.866 157.095 401.219 156.892C401.571 156.688 401.965 156.535 402.401 156.431C402.836 156.328 403.28 156.249 403.732 156.195C404.304 156.128 404.769 156.075 405.126 156.033C405.482 155.987 405.741 155.915 405.903 155.815C406.065 155.716 406.146 155.554 406.146 155.33V155.287C406.146 154.743 405.992 154.322 405.685 154.024C405.383 153.725 404.931 153.576 404.329 153.576C403.703 153.576 403.209 153.715 402.849 153.993C402.492 154.266 402.245 154.571 402.108 154.907L400.36 154.509C400.568 153.928 400.87 153.46 401.269 153.103C401.671 152.742 402.133 152.481 402.656 152.319C403.178 152.153 403.728 152.07 404.304 152.07C404.686 152.07 405.09 152.116 405.517 152.207C405.949 152.294 406.351 152.456 406.724 152.692C407.102 152.929 407.411 153.267 407.651 153.706C407.892 154.142 408.012 154.708 408.012 155.405V161.75H406.196V160.444H406.121C406.001 160.684 405.82 160.921 405.58 161.153C405.339 161.385 405.03 161.578 404.653 161.731C404.275 161.885 403.823 161.962 403.297 161.962ZM403.701 160.469C404.215 160.469 404.655 160.367 405.02 160.164C405.389 159.961 405.669 159.695 405.86 159.367C406.055 159.036 406.152 158.681 406.152 158.304V157.072C406.086 157.138 405.957 157.201 405.766 157.259C405.58 157.312 405.366 157.36 405.126 157.402C404.885 157.439 404.651 157.474 404.423 157.507C404.194 157.536 404.004 157.561 403.85 157.582C403.489 157.628 403.16 157.704 402.861 157.812C402.567 157.92 402.33 158.076 402.152 158.279C401.978 158.478 401.891 158.743 401.891 159.075C401.891 159.535 402.061 159.884 402.401 160.12C402.741 160.352 403.174 160.469 403.701 160.469ZM416.878 156.17V157.781H411.702V156.17H416.878ZM412.225 152.195V161.75H410.402V152.195H412.225ZM418.178 152.195V161.75H416.362V152.195H418.178ZM424.604 161.943C423.679 161.943 422.883 161.733 422.215 161.315C421.551 160.892 421.041 160.309 420.685 159.567C420.328 158.824 420.15 157.974 420.15 157.016C420.15 156.046 420.332 155.189 420.697 154.447C421.062 153.7 421.576 153.118 422.24 152.699C422.903 152.28 423.685 152.07 424.585 152.07C425.311 152.07 425.958 152.205 426.526 152.475C427.094 152.74 427.552 153.113 427.901 153.594C428.253 154.076 428.463 154.638 428.529 155.28H426.719C426.619 154.832 426.391 154.447 426.035 154.123C425.682 153.8 425.209 153.638 424.616 153.638C424.098 153.638 423.644 153.775 423.254 154.049C422.868 154.318 422.567 154.704 422.352 155.206C422.136 155.703 422.028 156.292 422.028 156.972C422.028 157.669 422.134 158.271 422.346 158.776C422.557 159.282 422.856 159.674 423.241 159.952C423.631 160.23 424.089 160.369 424.616 160.369C424.969 160.369 425.288 160.305 425.574 160.176C425.864 160.043 426.107 159.855 426.302 159.61C426.501 159.365 426.64 159.071 426.719 158.727H428.529C428.463 159.345 428.262 159.896 427.926 160.381C427.59 160.867 427.14 161.248 426.576 161.526C426.016 161.804 425.359 161.943 424.604 161.943ZM430.431 161.75V152.195H432.291V156.201H433.186L436.34 152.195H438.642L434.941 156.842L438.686 161.75H436.378L433.498 157.93H432.291V161.75H430.431ZM442.824 161.962C442.218 161.962 441.671 161.85 441.181 161.626C440.692 161.398 440.304 161.068 440.018 160.637C439.736 160.205 439.595 159.676 439.595 159.05C439.595 158.511 439.699 158.067 439.906 157.719C440.113 157.371 440.393 157.095 440.746 156.892C441.098 156.688 441.492 156.535 441.928 156.431C442.363 156.328 442.807 156.249 443.259 156.195C443.831 156.128 444.296 156.075 444.653 156.033C445.009 155.987 445.269 155.915 445.43 155.815C445.592 155.716 445.673 155.554 445.673 155.33V155.287C445.673 154.743 445.519 154.322 445.213 154.024C444.91 153.725 444.458 153.576 443.856 153.576C443.23 153.576 442.737 153.715 442.376 153.993C442.019 154.266 441.772 154.571 441.636 154.907L439.887 154.509C440.095 153.928 440.398 153.46 440.796 153.103C441.198 152.742 441.66 152.481 442.183 152.319C442.706 152.153 443.255 152.07 443.831 152.07C444.213 152.07 444.617 152.116 445.045 152.207C445.476 152.294 445.878 152.456 446.251 152.692C446.629 152.929 446.938 153.267 447.178 153.706C447.419 154.142 447.539 154.708 447.539 155.405V161.75H445.723V160.444H445.648C445.528 160.684 445.347 160.921 445.107 161.153C444.866 161.385 444.557 161.578 444.18 161.731C443.802 161.885 443.35 161.962 442.824 161.962ZM443.228 160.469C443.742 160.469 444.182 160.367 444.547 160.164C444.916 159.961 445.196 159.695 445.387 159.367C445.582 159.036 445.679 158.681 445.679 158.304V157.072C445.613 157.138 445.484 157.201 445.293 157.259C445.107 157.312 444.893 157.36 444.653 157.402C444.412 157.439 444.178 157.474 443.95 157.507C443.722 157.536 443.531 157.561 443.377 157.582C443.017 157.628 442.687 157.704 442.388 157.812C442.094 157.92 441.857 158.076 441.679 158.279C441.505 158.478 441.418 158.743 441.418 159.075C441.418 159.535 441.588 159.884 441.928 160.12C442.268 160.352 442.701 160.469 443.228 160.469ZM455.627 161.75V153.781H453.338C452.795 153.781 452.372 153.908 452.069 154.161C451.766 154.414 451.615 154.745 451.615 155.156C451.615 155.562 451.754 155.89 452.032 156.139C452.314 156.384 452.708 156.506 453.214 156.506H456.169V158.011H453.214C452.509 158.011 451.899 157.895 451.385 157.663C450.875 157.427 450.481 157.093 450.203 156.661C449.929 156.23 449.792 155.72 449.792 155.131C449.792 154.53 449.933 154.011 450.215 153.576C450.501 153.136 450.91 152.796 451.441 152.556C451.976 152.315 452.608 152.195 453.338 152.195H457.375V161.75H455.627ZM449.357 161.75L452.05 156.923H453.954L451.26 161.75H449.357Z" fill="white"/>
<path d="M341.687 374.78L346.712 364.863H349.722L342.869 378.543C342.296 379.689 341.821 380.531 341.445 381.069C341.086 381.589 340.629 381.992 340.074 382.278C339.519 382.565 338.811 382.708 337.951 382.708H335.828V379.994H337.602C338.193 379.994 338.668 379.878 339.026 379.645C339.384 379.412 339.689 379.026 339.94 378.489L340.208 377.898L333.517 364.863H336.58L341.687 374.78ZM348.558 370.158H360.733V382.708H357.884V372.657H351.407V382.708H348.558V370.158ZM366.335 388.191H363.486V370.158H366.335V371.313C367.285 370.31 368.602 369.808 370.286 369.808C372.239 369.808 373.788 370.462 374.935 371.77C376.1 373.06 376.682 374.61 376.682 376.42C376.682 378.247 376.1 379.815 374.935 381.123C373.788 382.413 372.239 383.058 370.286 383.058C368.602 383.058 367.285 382.556 366.335 381.553V388.191ZM367.356 373.49C366.604 374.171 366.228 375.148 366.228 376.42C366.228 377.692 366.604 378.677 367.356 379.376C368.127 380.075 369.041 380.424 370.098 380.424C371.191 380.424 372.086 380.039 372.785 379.268C373.484 378.48 373.833 377.53 373.833 376.42C373.833 375.327 373.484 374.395 372.785 373.625C372.086 372.836 371.191 372.442 370.098 372.442C369.041 372.442 368.127 372.791 367.356 373.49ZM383.838 369.808C385.701 369.808 387.197 370.247 388.326 371.125C389.455 372.003 390.019 373.23 390.019 374.807V382.708H387.17V381.553C386.221 382.556 384.814 383.058 382.951 383.058C381.41 383.058 380.183 382.699 379.269 381.983C378.373 381.248 377.925 380.2 377.925 378.838C377.925 377.853 378.203 377.056 378.758 376.446C379.332 375.819 380.021 375.389 380.828 375.156C381.652 374.924 382.592 374.807 383.65 374.807H387.17C387.17 374.001 386.866 373.41 386.256 373.033C385.647 372.639 384.85 372.442 383.865 372.442C382.162 372.442 381.096 372.98 380.666 374.055H377.63C377.988 372.693 378.731 371.645 379.86 370.91C381.007 370.176 382.333 369.808 383.838 369.808ZM387.17 377.763V377.091H383.623C381.723 377.091 380.774 377.674 380.774 378.838C380.774 379.412 381.007 379.86 381.473 380.182C381.938 380.487 382.583 380.639 383.408 380.639C384.518 380.639 385.423 380.388 386.122 379.886C386.821 379.367 387.17 378.659 387.17 377.763ZM402.904 376.393C403.853 377.002 404.328 377.916 404.328 379.134C404.328 380.155 403.97 381.006 403.253 381.687C402.536 382.368 401.515 382.708 400.189 382.708H392.503V370.158H400.055C401.399 370.158 402.42 370.498 403.119 371.179C403.835 371.842 404.194 372.693 404.194 373.732C404.194 374.879 403.764 375.766 402.904 376.393ZM395.352 380.316H399.813C400.924 380.316 401.479 379.86 401.479 378.946C401.479 378.032 400.924 377.575 399.813 377.575H395.352V380.316ZM395.352 375.264H399.679C400.789 375.264 401.345 374.807 401.345 373.893C401.345 372.998 400.789 372.55 399.679 372.55H395.352V375.264ZM407.935 370.158H418.336V382.708H415.487V372.657H410.784V375.425C410.784 376.375 410.73 377.217 410.623 377.951C410.533 378.668 410.336 379.421 410.031 380.209C409.745 380.997 409.27 381.615 408.607 382.063C407.944 382.493 407.111 382.708 406.108 382.708H405.059V380.048H405.785C406.287 380.048 406.69 379.913 406.994 379.645C407.317 379.358 407.532 378.946 407.639 378.408C407.765 377.871 407.845 377.396 407.881 376.984C407.917 376.572 407.935 376.034 407.935 375.371V370.158ZM426.986 380.424C428.348 380.424 429.333 379.967 429.942 379.053H433.033C432.567 380.29 431.788 381.266 430.695 381.983C429.602 382.699 428.365 383.058 426.986 383.058C425.069 383.058 423.474 382.431 422.202 381.176C420.93 379.922 420.294 378.337 420.294 376.42C420.294 374.538 420.912 372.971 422.148 371.716C423.385 370.444 424.952 369.808 426.852 369.808C428.697 369.808 430.22 370.435 431.42 371.69C432.621 372.926 433.221 374.467 433.221 376.312C433.221 376.885 433.203 377.262 433.167 377.441H423.25C423.412 378.337 423.833 379.062 424.513 379.618C425.212 380.155 426.036 380.424 426.986 380.424ZM426.852 372.361C425.92 372.361 425.123 372.621 424.46 373.141C423.815 373.643 423.429 374.314 423.304 375.156H430.211C430.068 374.296 429.691 373.616 429.082 373.114C428.491 372.612 427.747 372.361 426.852 372.361ZM444.729 370.158H447.577V382.708H444.729V377.629H438.037V382.708H435.188V370.158H438.037V375.13H444.729V370.158ZM453.175 382.708H450.326V370.158H453.175V378.677L459.867 370.158H462.716V382.708H459.867V374.189L453.175 382.708ZM471.377 380.424C472.739 380.424 473.724 379.967 474.333 379.053H477.424C476.958 380.29 476.179 381.266 475.086 381.983C473.993 382.699 472.756 383.058 471.377 383.058C469.46 383.058 467.865 382.431 466.593 381.176C465.321 379.922 464.685 378.337 464.685 376.42C464.685 374.538 465.303 372.971 466.539 371.716C467.776 370.444 469.343 369.808 471.243 369.808C473.088 369.808 474.611 370.435 475.811 371.69C477.012 372.926 477.612 374.467 477.612 376.312C477.612 376.885 477.594 377.262 477.558 377.441H467.641C467.803 378.337 468.224 379.062 468.904 379.618C469.603 380.155 470.427 380.424 471.377 380.424ZM471.243 372.361C470.311 372.361 469.514 372.621 468.851 373.141C468.206 373.643 467.82 374.314 467.695 375.156H474.602C474.459 374.296 474.082 373.616 473.473 373.114C472.882 372.612 472.138 372.361 471.243 372.361ZM337.843 409.708H334.995V397.158H337.843V405.677L344.535 397.158H347.384V409.708H344.535V401.189L337.843 409.708ZM359.673 397.158H362.522V409.708H359.673V404.629H352.982V409.708H350.133V397.158H352.982V402.13H359.673V397.158ZM379.461 413.095H376.72V409.708H365.271V397.158H368.12V407.209H374.543V397.158H377.392V407.209H379.461V413.095ZM384.019 409.708H381.17V397.158H384.019V405.677L390.711 397.158H393.56V409.708H390.711V401.189L384.019 409.708ZM410.472 413.095H407.703V409.708H397.679V413.095H394.938V407.209H396.523C397.419 406.313 397.867 404.701 397.867 402.371V397.158H408.375V407.209H410.472V413.095ZM400.716 399.657V402.345C400.716 404.441 400.42 406.062 399.829 407.209H405.527V399.657H400.716ZM418.094 407.424C419.456 407.424 420.441 406.967 421.05 406.053H424.141C423.675 407.29 422.896 408.266 421.803 408.983C420.71 409.699 419.474 410.058 418.094 410.058C416.177 410.058 414.582 409.431 413.31 408.176C412.038 406.922 411.402 405.337 411.402 403.42C411.402 401.538 412.02 399.971 413.257 398.716C414.493 397.444 416.06 396.808 417.96 396.808C419.805 396.808 421.328 397.435 422.528 398.69C423.729 399.926 424.329 401.467 424.329 403.312C424.329 403.885 424.311 404.262 424.275 404.441H414.358C414.52 405.337 414.941 406.062 415.622 406.618C416.32 407.155 417.144 407.424 418.094 407.424ZM417.96 399.361C417.028 399.361 416.231 399.621 415.568 400.141C414.923 400.643 414.538 401.314 414.412 402.156H421.319C421.176 401.296 420.799 400.616 420.19 400.114C419.599 399.612 418.855 399.361 417.96 399.361ZM435.837 397.158H438.686V409.708H435.837V404.629H429.145V409.708H426.296V397.158H429.145V402.13H435.837V397.158ZM439.902 399.657V397.158H452.292V399.657H447.508V409.708H444.659V399.657H439.902ZM459.214 396.808C461.077 396.808 462.573 397.247 463.702 398.125C464.831 399.003 465.395 400.23 465.395 401.807V409.708H462.546V408.553C461.597 409.556 460.19 410.058 458.327 410.058C456.786 410.058 455.559 409.699 454.645 408.983C453.749 408.248 453.301 407.2 453.301 405.838C453.301 404.853 453.579 404.056 454.134 403.446C454.708 402.819 455.397 402.389 456.204 402.156C457.028 401.924 457.968 401.807 459.026 401.807H462.546C462.546 401.001 462.242 400.41 461.632 400.033C461.023 399.639 460.226 399.442 459.241 399.442C457.538 399.442 456.472 399.98 456.042 401.055H453.006C453.364 399.693 454.107 398.645 455.236 397.91C456.383 397.176 457.709 396.808 459.214 396.808ZM462.546 404.763V404.091H458.999C457.099 404.091 456.15 404.674 456.15 405.838C456.15 406.412 456.383 406.86 456.849 407.182C457.314 407.487 457.959 407.639 458.784 407.639C459.894 407.639 460.799 407.388 461.498 406.886C462.197 406.367 462.546 405.659 462.546 404.763ZM471.211 397.158L475.7 406.645L480.215 397.158H483.466V409.708H480.618V402.318L477.07 409.708H474.275L470.728 402.318V409.708H467.879V397.158H471.211ZM489.068 409.708H486.219V397.158H489.068V405.677L495.76 397.158H498.608V409.708H495.76V401.189L489.068 409.708Z" fill="white"/>
<rect x="567.361" y="118.875" width="247.847" height="320.708" rx="17.9167" fill="white" fill-opacity="0.12"/>
<path opacity="0.7" d="M604.669 161.75H602.74V150.658H600.327C599.696 150.658 599.184 150.754 598.79 150.944C598.396 151.131 598.108 151.401 597.925 151.753C597.743 152.106 597.652 152.522 597.652 153.003C597.652 153.48 597.743 153.889 597.925 154.229C598.108 154.569 598.394 154.828 598.784 155.007C599.174 155.185 599.682 155.274 600.308 155.274H603.574V156.929H600.128C599.145 156.929 598.326 156.765 597.67 156.437C597.019 156.11 596.53 155.651 596.202 155.063C595.879 154.469 595.717 153.783 595.717 153.003C595.717 152.22 595.879 151.529 596.202 150.932C596.526 150.331 597.013 149.86 597.664 149.52C598.319 149.18 599.138 149.01 600.121 149.01H604.669V161.75ZM598.379 156.002H600.507L597.415 161.75H595.232L598.379 156.002ZM607.237 161.75V152.195H615.032V161.75H613.21V153.8H609.048V161.75H607.237ZM621.456 161.943C620.561 161.943 619.779 161.738 619.111 161.327C618.443 160.916 617.925 160.342 617.556 159.604C617.187 158.866 617.002 158.003 617.002 157.016C617.002 156.025 617.187 155.158 617.556 154.416C617.925 153.673 618.443 153.097 619.111 152.686C619.779 152.276 620.561 152.07 621.456 152.07C622.352 152.07 623.134 152.276 623.802 152.686C624.469 153.097 624.988 153.673 625.357 154.416C625.726 155.158 625.911 156.025 625.911 157.016C625.911 158.003 625.726 158.866 625.357 159.604C624.988 160.342 624.469 160.916 623.802 161.327C623.134 161.738 622.352 161.943 621.456 161.943ZM621.463 160.381C622.043 160.381 622.524 160.228 622.906 159.921C623.287 159.614 623.569 159.206 623.752 158.696C623.939 158.185 624.032 157.623 624.032 157.01C624.032 156.4 623.939 155.84 623.752 155.33C623.569 154.816 623.287 154.403 622.906 154.092C622.524 153.781 622.043 153.626 621.463 153.626C620.878 153.626 620.393 153.781 620.007 154.092C619.625 154.403 619.341 154.816 619.155 155.33C618.972 155.84 618.881 156.4 618.881 157.01C618.881 157.623 618.972 158.185 619.155 158.696C619.341 159.206 619.625 159.614 620.007 159.921C620.393 160.228 620.878 160.381 621.463 160.381ZM634.375 156.17V157.781H629.199V156.17H634.375ZM629.722 152.195V161.75H627.899V152.195H629.722ZM635.675 152.195V161.75H633.859V152.195H635.675ZM642.101 161.943C641.176 161.943 640.38 161.733 639.712 161.315C639.049 160.892 638.539 160.309 638.182 159.566C637.825 158.824 637.647 157.974 637.647 157.016C637.647 156.045 637.829 155.189 638.194 154.447C638.559 153.7 639.074 153.117 639.737 152.699C640.401 152.28 641.182 152.07 642.082 152.07C642.808 152.07 643.455 152.205 644.023 152.475C644.591 152.74 645.05 153.113 645.398 153.594C645.751 154.075 645.96 154.637 646.026 155.28H644.216C644.117 154.832 643.888 154.447 643.532 154.123C643.179 153.8 642.707 153.638 642.113 153.638C641.595 153.638 641.141 153.775 640.751 154.049C640.365 154.318 640.065 154.704 639.849 155.206C639.633 155.703 639.526 156.292 639.526 156.972C639.526 157.669 639.631 158.27 639.843 158.776C640.054 159.282 640.353 159.674 640.739 159.952C641.128 160.23 641.587 160.369 642.113 160.369C642.466 160.369 642.785 160.305 643.071 160.176C643.362 160.043 643.604 159.855 643.799 159.61C643.998 159.365 644.137 159.071 644.216 158.727H646.026C645.96 159.345 645.759 159.896 645.423 160.381C645.087 160.867 644.637 161.248 644.073 161.526C643.513 161.804 642.856 161.943 642.101 161.943ZM647.928 161.75V152.195H649.788V156.201H650.684L653.838 152.195H656.14L652.438 156.842L656.183 161.75H653.875L650.995 157.93H649.788V161.75H647.928ZM660.321 161.962C659.716 161.962 659.168 161.85 658.679 161.626C658.189 161.397 657.802 161.068 657.515 160.636C657.233 160.205 657.092 159.676 657.092 159.05C657.092 158.511 657.196 158.067 657.403 157.719C657.611 157.37 657.891 157.095 658.243 156.891C658.596 156.688 658.99 156.535 659.425 156.431C659.861 156.327 660.304 156.249 660.756 156.195C661.329 156.128 661.793 156.074 662.15 156.033C662.507 155.987 662.766 155.915 662.928 155.815C663.089 155.716 663.17 155.554 663.17 155.33V155.286C663.17 154.743 663.017 154.322 662.71 154.024C662.407 153.725 661.955 153.576 661.354 153.576C660.727 153.576 660.234 153.715 659.873 153.993C659.516 154.266 659.27 154.571 659.133 154.907L657.385 154.509C657.592 153.928 657.895 153.46 658.293 153.103C658.695 152.742 659.158 152.481 659.68 152.319C660.203 152.153 660.752 152.07 661.329 152.07C661.71 152.07 662.115 152.116 662.542 152.207C662.973 152.294 663.375 152.456 663.749 152.692C664.126 152.929 664.435 153.267 664.676 153.706C664.916 154.142 665.036 154.708 665.036 155.405V161.75H663.22V160.444H663.145C663.025 160.684 662.845 160.921 662.604 161.153C662.364 161.385 662.055 161.578 661.677 161.731C661.3 161.885 660.848 161.962 660.321 161.962ZM660.725 160.468C661.24 160.468 661.679 160.367 662.044 160.164C662.413 159.96 662.693 159.695 662.884 159.367C663.079 159.036 663.176 158.681 663.176 158.304V157.072C663.11 157.138 662.981 157.2 662.791 157.259C662.604 157.312 662.39 157.36 662.15 157.402C661.909 157.439 661.675 157.474 661.447 157.507C661.219 157.536 661.028 157.561 660.875 157.582C660.514 157.628 660.184 157.704 659.886 157.812C659.591 157.92 659.355 158.076 659.176 158.279C659.002 158.478 658.915 158.743 658.915 159.075C658.915 159.535 659.085 159.884 659.425 160.12C659.765 160.352 660.199 160.468 660.725 160.468ZM673.125 161.75V153.781H670.835C670.292 153.781 669.869 153.908 669.566 154.161C669.264 154.413 669.112 154.745 669.112 155.156C669.112 155.562 669.251 155.89 669.529 156.139C669.811 156.383 670.205 156.506 670.711 156.506H673.666V158.011H670.711C670.006 158.011 669.396 157.895 668.882 157.663C668.372 157.426 667.978 157.093 667.7 156.661C667.426 156.23 667.289 155.72 667.289 155.131C667.289 154.53 667.43 154.011 667.712 153.576C667.999 153.136 668.407 152.796 668.938 152.556C669.473 152.315 670.105 152.195 670.835 152.195H674.873V161.75H673.125ZM666.854 161.75L669.548 156.923H671.451L668.758 161.75H666.854Z" fill="white"/>
<path d="M602.971 374.78L607.996 364.863H611.006L604.153 378.543C603.58 379.689 603.105 380.531 602.729 381.069C602.37 381.589 601.914 381.992 601.358 382.278C600.803 382.565 600.095 382.708 599.235 382.708H597.112V379.994H598.886C599.477 379.994 599.952 379.877 600.31 379.645C600.668 379.412 600.973 379.026 601.224 378.489L601.493 377.898L594.801 364.863H597.864L602.971 374.78ZM609.842 370.158H622.017V382.708H619.168V372.657H612.691V382.708H609.842V370.158ZM627.619 388.191H624.771V370.158H627.619V371.313C628.569 370.31 629.886 369.808 631.57 369.808C633.523 369.808 635.073 370.462 636.219 371.77C637.384 373.06 637.966 374.61 637.966 376.42C637.966 378.247 637.384 379.815 636.219 381.123C635.073 382.413 633.523 383.058 631.57 383.058C629.886 383.058 628.569 382.556 627.619 381.553V388.191ZM628.641 373.49C627.888 374.171 627.512 375.147 627.512 376.42C627.512 377.692 627.888 378.677 628.641 379.376C629.411 380.075 630.325 380.424 631.382 380.424C632.475 380.424 633.371 380.039 634.069 379.268C634.768 378.48 635.117 377.53 635.117 376.42C635.117 375.327 634.768 374.395 634.069 373.625C633.371 372.836 632.475 372.442 631.382 372.442C630.325 372.442 629.411 372.791 628.641 373.49ZM645.122 369.808C646.985 369.808 648.481 370.247 649.61 371.125C650.739 372.003 651.303 373.23 651.303 374.807V382.708H648.454V381.553C647.505 382.556 646.098 383.058 644.235 383.058C642.694 383.058 641.467 382.699 640.553 381.983C639.657 381.248 639.209 380.2 639.209 378.838C639.209 377.853 639.487 377.056 640.042 376.446C640.616 375.819 641.306 375.389 642.112 375.156C642.936 374.924 643.877 374.807 644.934 374.807H648.454C648.454 374.001 648.15 373.41 647.541 373.033C646.931 372.639 646.134 372.442 645.149 372.442C643.447 372.442 642.381 372.98 641.951 374.055H638.914C639.272 372.693 640.016 371.645 641.144 370.91C642.291 370.176 643.617 369.808 645.122 369.808ZM648.454 377.763V377.091H644.907C643.008 377.091 642.058 377.674 642.058 378.838C642.058 379.412 642.291 379.86 642.757 380.182C643.223 380.487 643.868 380.639 644.692 380.639C645.803 380.639 646.707 380.388 647.406 379.886C648.105 379.367 648.454 378.659 648.454 377.763ZM664.188 376.393C665.137 377.002 665.612 377.916 665.612 379.134C665.612 380.155 665.254 381.006 664.537 381.687C663.82 382.368 662.799 382.708 661.473 382.708H653.787V370.158H661.339C662.683 370.158 663.704 370.498 664.403 371.179C665.119 371.842 665.478 372.693 665.478 373.732C665.478 374.879 665.048 375.766 664.188 376.393ZM656.636 380.316H661.097C662.208 380.316 662.763 379.86 662.763 378.946C662.763 378.032 662.208 377.575 661.097 377.575H656.636V380.316ZM656.636 375.264H660.963C662.074 375.264 662.629 374.807 662.629 373.893C662.629 372.997 662.074 372.55 660.963 372.55H656.636V375.264ZM669.219 370.158H679.62V382.708H676.771V372.657H672.068V375.425C672.068 376.375 672.014 377.217 671.907 377.951C671.817 378.668 671.62 379.421 671.316 380.209C671.029 380.997 670.554 381.615 669.891 382.063C669.228 382.493 668.395 382.708 667.392 382.708H666.344V380.048H667.069C667.571 380.048 667.974 379.913 668.279 379.645C668.601 379.358 668.816 378.946 668.924 378.408C669.049 377.871 669.13 377.396 669.166 376.984C669.201 376.572 669.219 376.034 669.219 375.371V370.158ZM688.27 380.424C689.632 380.424 690.617 379.967 691.226 379.053H694.317C693.851 380.29 693.072 381.266 691.979 381.983C690.886 382.699 689.65 383.058 688.27 383.058C686.353 383.058 684.758 382.431 683.486 381.176C682.214 379.922 681.578 378.337 681.578 376.42C681.578 374.538 682.196 372.971 683.433 371.716C684.669 370.444 686.237 369.808 688.136 369.808C689.981 369.808 691.504 370.435 692.704 371.69C693.905 372.926 694.505 374.467 694.505 376.312C694.505 376.885 694.487 377.262 694.451 377.441H684.534C684.696 378.337 685.117 379.062 685.798 379.618C686.496 380.155 687.32 380.424 688.27 380.424ZM688.136 372.361C687.204 372.361 686.407 372.621 685.744 373.141C685.099 373.642 684.714 374.314 684.588 375.156H691.495C691.352 374.296 690.975 373.616 690.366 373.114C689.775 372.612 689.032 372.361 688.136 372.361ZM706.013 370.158H708.862V382.708H706.013V377.629H699.321V382.708H696.472V370.158H699.321V375.13H706.013V370.158ZM714.459 382.708H711.61V370.158H714.459V378.677L721.151 370.158H724V382.708H721.151V374.189L714.459 382.708ZM732.661 380.424C734.023 380.424 735.008 379.967 735.617 379.053H738.708C738.242 380.29 737.463 381.266 736.37 381.983C735.277 382.699 734.041 383.058 732.661 383.058C730.744 383.058 729.149 382.431 727.877 381.176C726.605 379.922 725.969 378.337 725.969 376.42C725.969 374.538 726.587 372.971 727.824 371.716C729.06 370.444 730.628 369.808 732.527 369.808C734.372 369.808 735.895 370.435 737.095 371.69C738.296 372.926 738.896 374.467 738.896 376.312C738.896 376.885 738.878 377.262 738.842 377.441H728.925C729.087 378.337 729.508 379.062 730.189 379.618C730.887 380.155 731.711 380.424 732.661 380.424ZM732.527 372.361C731.595 372.361 730.798 372.621 730.135 373.141C729.49 373.642 729.105 374.314 728.979 375.156H735.886C735.743 374.296 735.366 373.616 734.757 373.114C734.166 372.612 733.423 372.361 732.527 372.361ZM608.184 401.055H605.201C604.538 399.98 603.517 399.442 602.138 399.442C601.027 399.442 600.113 399.818 599.396 400.571C598.698 401.323 598.348 402.273 598.348 403.42C598.348 404.566 598.698 405.525 599.396 406.295C600.113 407.048 601.027 407.424 602.138 407.424C603.517 407.424 604.538 406.886 605.201 405.811H608.184C607.719 407.119 606.939 408.159 605.846 408.929C604.771 409.681 603.535 410.058 602.138 410.058C600.256 410.058 598.68 409.431 597.408 408.176C596.135 406.904 595.499 405.319 595.499 403.42C595.499 401.538 596.135 399.971 597.408 398.716C598.68 397.444 600.256 396.808 602.138 396.808C603.535 396.808 604.771 397.194 605.846 397.964C606.939 398.716 607.719 399.747 608.184 401.055ZM612.875 409.708H610.026V397.158H612.875V405.677L619.567 397.158H622.415V409.708H619.567V401.189L612.875 409.708ZM625.164 397.158H635.027V399.657H628.013V409.708H625.164V397.158ZM646.011 397.158H648.86V409.708H646.011V404.629H639.319V409.708H636.471V397.158H639.319V402.13H646.011V397.158ZM656.796 396.808C658.659 396.808 660.155 397.247 661.284 398.125C662.413 399.003 662.977 400.23 662.977 401.807V409.708H660.128V408.553C659.179 409.556 657.772 410.058 655.909 410.058C654.368 410.058 653.141 409.699 652.227 408.983C651.331 408.248 650.883 407.2 650.883 405.838C650.883 404.853 651.161 404.056 651.716 403.446C652.29 402.819 652.979 402.389 653.786 402.156C654.61 401.924 655.55 401.807 656.608 401.807H660.128C660.128 401.001 659.824 400.41 659.214 400.033C658.605 399.639 657.808 399.442 656.823 399.442C655.12 399.442 654.054 399.98 653.624 401.055H650.588C650.946 399.693 651.689 398.645 652.818 397.91C653.965 397.176 655.291 396.808 656.796 396.808ZM660.128 404.763V404.091H656.581C654.681 404.091 653.732 404.674 653.732 405.838C653.732 406.412 653.965 406.86 654.431 407.182C654.896 407.487 655.541 407.639 656.366 407.639C657.476 407.639 658.381 407.388 659.08 406.886C659.779 406.367 660.128 405.659 660.128 404.763ZM666.805 397.158H677.205V409.708H674.357V399.657H669.653V402.425C669.653 403.375 669.6 404.217 669.492 404.951C669.403 405.668 669.206 406.421 668.901 407.209C668.614 407.997 668.139 408.615 667.477 409.063C666.814 409.493 665.981 409.708 664.977 409.708H663.929V407.048H664.655C665.156 407.048 665.559 406.913 665.864 406.645C666.187 406.358 666.402 405.946 666.509 405.408C666.634 404.871 666.715 404.396 666.751 403.984C666.787 403.572 666.805 403.034 666.805 402.371V397.158ZM685.13 396.808C686.993 396.808 688.489 397.247 689.618 398.125C690.747 399.003 691.311 400.23 691.311 401.807V409.708H688.462V408.553C687.513 409.556 686.106 410.058 684.243 410.058C682.702 410.058 681.475 409.699 680.561 408.983C679.665 408.248 679.217 407.2 679.217 405.838C679.217 404.853 679.495 404.056 680.051 403.446C680.624 402.819 681.314 402.389 682.12 402.156C682.944 401.924 683.885 401.807 684.942 401.807H688.462C688.462 401.001 688.158 400.41 687.549 400.033C686.939 399.639 686.142 399.442 685.157 399.442C683.455 399.442 682.389 399.98 681.959 401.055H678.922C679.28 399.693 680.024 398.645 681.152 397.91C682.299 397.176 683.625 396.808 685.13 396.808ZM688.462 404.763V404.091H684.915C683.016 404.091 682.066 404.674 682.066 405.838C682.066 406.412 682.299 406.86 682.765 407.182C683.231 407.487 683.876 407.639 684.7 407.639C685.811 407.639 686.716 407.388 687.414 406.886C688.113 406.367 688.462 405.659 688.462 404.763ZM697.128 397.158L701.616 406.645L706.131 397.158H709.383V409.708H706.534V402.318L702.986 409.708H700.191L696.644 402.318V409.708H693.795V397.158H697.128ZM714.984 409.708H712.135V397.158H714.984V405.677L721.676 397.158H724.525V409.708H721.676V401.189L714.984 409.708Z" fill="white"/>
</g>
<defs>
<filter id="filter0_f_277_3" x="-292.689" y="-19.9161" width="1451.8" height="1069.65" filterUnits="userSpaceOnUse" color-interpolation-filters="sRGB">
<feFlood flood-opacity="0" result="BackgroundImageFix"/>
<feBlend mode="normal" in="SourceGraphic" in2="BackgroundImageFix" result="shape"/>
<feGaussianBlur stdDeviation="181.406" result="effect1_foregroundBlur_277_3"/>
</filter>
<clipPath id="clip0_277_3">
<rect width="860" height="484" fill="white" transform="translate(0 0.625)"/>
</clipPath>
</defs>
</svg>
