<svg width="860" height="408" viewBox="0 0 860 408" fill="none" xmlns="http://www.w3.org/2000/svg">
<rect width="860" height="408" fill="#010203"/>
<path d="M381.964 188.72L395.671 202.104H389.745L378.296 191.018V202.104H373.862V175.337H378.296V186.544L389.906 175.337H395.671L381.964 188.72ZM399.298 183.278H414.899V202.104H410.626V187.027H403.571V191.179C403.571 192.604 403.49 193.867 403.329 194.969C403.195 196.044 402.899 197.173 402.442 198.355C402.012 199.538 401.3 200.465 400.306 201.137C399.311 201.782 398.061 202.104 396.556 202.104H394.984V198.113H396.073C396.825 198.113 397.43 197.912 397.887 197.509C398.371 197.079 398.693 196.46 398.854 195.654C399.042 194.848 399.163 194.136 399.217 193.518C399.271 192.899 399.298 192.093 399.298 191.099V183.278ZM423.681 202.104H419.408V183.278H423.681V196.057L433.719 183.278H437.992V202.104H433.719V189.325L423.681 202.104ZM451.387 198.678C453.43 198.678 454.908 197.992 455.822 196.622H460.458C459.759 198.476 458.59 199.941 456.951 201.016C455.311 202.091 453.457 202.628 451.387 202.628C448.512 202.628 446.12 201.688 444.212 199.806C442.304 197.925 441.35 195.547 441.35 192.671C441.35 189.849 442.277 187.498 444.131 185.616C445.986 183.708 448.337 182.754 451.186 182.754C453.954 182.754 456.238 183.695 458.039 185.576C459.84 187.43 460.74 189.742 460.74 192.51C460.74 193.37 460.713 193.934 460.659 194.203H445.784C446.026 195.547 446.657 196.635 447.679 197.468C448.727 198.274 449.963 198.678 451.387 198.678ZM451.186 186.584C449.788 186.584 448.592 186.974 447.598 187.753C446.631 188.505 446.053 189.513 445.865 190.776H456.225C456.01 189.486 455.446 188.465 454.532 187.713C453.645 186.96 452.53 186.584 451.186 186.584ZM478.405 183.278H482.678V202.104H478.405V194.485H468.367V202.104H464.094V183.278H468.367V190.736H478.405V183.278ZM484.906 187.027V183.278H503.49V187.027H496.315V202.104H492.042V187.027H484.906Z" fill="white"/>
<rect x="47.9271" y="68.9791" width="243.667" height="236.948" rx="17.0208" stroke="#838383" stroke-width="1.79167" stroke-dasharray="7.17 7.17"/>
<rect x="64.9482" y="86" width="60.9167" height="58.6771" rx="29.3385" fill="#626871"/>
<rect x="139.302" y="86" width="60.9167" height="58.6771" rx="29.3385" fill="#626871"/>
<rect x="213.656" y="86" width="60.9167" height="58.6771" rx="29.3385" fill="#626871"/>
<rect x="64.9482" y="158.115" width="60.9167" height="58.6771" rx="29.3385" fill="#626871"/>
<path d="M171.104 115.115L171.104 262.479" stroke="#626871" stroke-width="3.58333"/>
<path d="M245.459 115.115L245.459 262.479" stroke="#626871" stroke-width="3.58333"/>
<rect x="139.302" y="158.115" width="60.9167" height="58.6771" rx="29.3385" fill="#626871"/>
<rect x="213.656" y="158.115" width="60.9167" height="58.6771" rx="29.3385" fill="#626871"/>
<path d="M79.7295 187.229H251.729" stroke="#626871" stroke-width="3.58333"/>
<path d="M79.7295 259.344H251.729" stroke="#626871" stroke-width="3.58333"/>
<rect x="64.9482" y="230.229" width="60.9167" height="58.6771" rx="29.3385" fill="#626871"/>
<rect x="139.302" y="230.229" width="60.9167" height="58.6771" rx="29.3385" fill="#626871"/>
<rect x="213.656" y="230.229" width="60.9167" height="58.6771" rx="29.3385" fill="#626871"/>
<path d="M90.9277 115.115H262.928" stroke="#626871" stroke-width="3.58333"/>
<path d="M95.8545 115.115L95.8545 262.479" stroke="#626871" stroke-width="3.58333"/>
<path opacity="0.5" d="M105.394 336.853V354.698H102.438V336.853H105.394ZM106.884 336.853H121.827V339.567H115.834V354.698H112.878V339.567H106.884V336.853ZM121.394 346.501H128.435V349.189H121.394V346.501ZM133.796 360.18H130.947V342.147H133.796V343.303C134.745 342.3 136.062 341.798 137.747 341.798C139.699 341.798 141.249 342.452 142.396 343.76C143.56 345.05 144.143 346.6 144.143 348.409C144.143 350.237 143.56 351.804 142.396 353.112C141.249 354.402 139.699 355.047 137.747 355.047C136.062 355.047 134.745 354.546 133.796 353.542V360.18ZM134.817 345.48C134.065 346.161 133.688 347.137 133.688 348.409C133.688 349.681 134.065 350.667 134.817 351.365C135.588 352.064 136.501 352.414 137.558 352.414C138.651 352.414 139.547 352.028 140.246 351.258C140.945 350.47 141.294 349.52 141.294 348.409C141.294 347.316 140.945 346.385 140.246 345.614C139.547 344.826 138.651 344.432 137.558 344.432C136.501 344.432 135.588 344.781 134.817 345.48ZM152.024 352.414C153.386 352.414 154.371 351.957 154.98 351.043H158.071C157.605 352.279 156.826 353.256 155.733 353.972C154.64 354.689 153.404 355.047 152.024 355.047C150.107 355.047 148.512 354.42 147.24 353.166C145.968 351.912 145.332 350.326 145.332 348.409C145.332 346.528 145.95 344.96 147.187 343.706C148.423 342.434 149.991 341.798 151.89 341.798C153.735 341.798 155.258 342.425 156.458 343.679C157.659 344.915 158.259 346.456 158.259 348.302C158.259 348.875 158.241 349.251 158.205 349.43H148.288C148.45 350.326 148.871 351.052 149.552 351.607C150.25 352.145 151.075 352.414 152.024 352.414ZM151.89 344.351C150.958 344.351 150.161 344.611 149.498 345.13C148.853 345.632 148.468 346.304 148.342 347.146H155.249C155.106 346.286 154.73 345.605 154.12 345.104C153.529 344.602 152.786 344.351 151.89 344.351ZM178.743 354.698H160.226V342.147H163.075V352.199H168.047V342.147H170.896V352.199H175.894V342.147H178.743V354.698ZM187.392 352.414C188.754 352.414 189.739 351.957 190.348 351.043H193.439C192.973 352.279 192.194 353.256 191.101 353.972C190.008 354.689 188.772 355.047 187.392 355.047C185.475 355.047 183.88 354.42 182.608 353.166C181.336 351.912 180.7 350.326 180.7 348.409C180.7 346.528 181.318 344.96 182.555 343.706C183.791 342.434 185.358 341.798 187.258 341.798C189.103 341.798 190.626 342.425 191.826 343.679C193.027 344.915 193.627 346.456 193.627 348.302C193.627 348.875 193.609 349.251 193.573 349.43H183.656C183.818 350.326 184.239 351.052 184.92 351.607C185.618 352.145 186.442 352.414 187.392 352.414ZM187.258 344.351C186.326 344.351 185.529 344.611 184.866 345.13C184.221 345.632 183.836 346.304 183.71 347.146H190.617C190.474 346.286 190.097 345.605 189.488 345.104C188.897 344.602 188.153 344.351 187.258 344.351ZM205.135 342.147H207.984V354.698H205.135V349.619H198.443V354.698H195.594V342.147H198.443V347.119H205.135V342.147ZM213.581 354.698H210.732V342.147H213.581V350.667L220.273 342.147H223.122V354.698H220.273V346.179L213.581 354.698ZM233.637 350.828H231.272L227.94 354.698H224.339L227.913 350.532C226.963 350.228 226.247 349.717 225.763 349C225.279 348.266 225.037 347.424 225.037 346.474C225.037 345.22 225.449 344.19 226.274 343.384C227.116 342.559 228.334 342.147 229.929 342.147H236.486V354.698H233.637V350.828ZM233.637 344.647H230.009C229.346 344.647 228.827 344.808 228.451 345.13C228.074 345.435 227.886 345.883 227.886 346.474C227.886 347.065 228.074 347.522 228.451 347.845C228.845 348.167 229.364 348.329 230.009 348.329H233.637V344.647Z" fill="white"/>
<rect x="583.188" y="80.1771" width="214.104" height="214.104" rx="17.0208" stroke="#838383" stroke-width="1.79167" stroke-dasharray="7.17 7.17"/>
<rect x="600.209" y="97.1979" width="65.3958" height="65.3958" rx="9.85417" fill="#626871"/>
<rect x="714.875" y="97.1979" width="65.3958" height="65.3958" rx="9.85417" fill="#626871"/>
<rect x="600.209" y="211.865" width="65.3958" height="65.3958" rx="9.85417" fill="#626871"/>
<rect x="714.875" y="211.865" width="65.3958" height="65.3958" rx="9.85417" fill="#626871"/>
<path d="M627.083 129.896H753.396" stroke="#626871" stroke-width="3.58333"/>
<path d="M632.906 129.896L747.573 244.563" stroke="#626871" stroke-width="3.58333"/>
<path d="M632.906 244.562L747.573 129.896" stroke="#626871" stroke-width="3.58333"/>
<path d="M627.083 244.562H753.396" stroke="#626871" stroke-width="3.58333"/>
<path d="M747.573 134.823L747.573 244.562" stroke="#626871" stroke-width="3.58333"/>
<path d="M632.906 134.823L632.906 244.562" stroke="#626871" stroke-width="3.58333"/>
<path opacity="0.5" d="M643.819 345.775L652.956 354.698H649.006L641.373 347.307V354.698H638.417V336.853H641.373V344.324L649.113 336.853H652.956L643.819 345.775ZM658.914 341.798C660.813 341.798 662.399 342.434 663.671 343.706C664.961 344.96 665.606 346.537 665.606 348.436C665.606 350.317 664.961 351.894 663.671 353.166C662.399 354.42 660.813 355.047 658.914 355.047C656.997 355.047 655.394 354.42 654.104 353.166C652.831 351.912 652.195 350.335 652.195 348.436C652.195 346.537 652.831 344.96 654.104 343.706C655.394 342.434 656.997 341.798 658.914 341.798ZM658.914 352.414C660.043 352.414 660.966 352.037 661.682 351.285C662.399 350.532 662.757 349.583 662.757 348.436C662.757 347.271 662.399 346.313 661.682 345.56C660.966 344.808 660.043 344.432 658.914 344.432C657.803 344.432 656.881 344.817 656.146 345.587C655.411 346.34 655.044 347.289 655.044 348.436C655.044 349.565 655.411 350.514 656.146 351.285C656.881 352.037 657.803 352.414 658.914 352.414ZM670.921 342.147L675.409 351.634L679.924 342.147H683.176V354.698H680.327V347.307L676.779 354.698H673.984L670.437 347.307V354.698H667.588V342.147H670.921ZM691.115 341.798C692.978 341.798 694.474 342.237 695.603 343.115C696.732 343.993 697.296 345.22 697.296 346.797V354.698H694.447V353.542C693.498 354.546 692.091 355.047 690.228 355.047C688.687 355.047 687.46 354.689 686.546 353.972C685.65 353.238 685.202 352.19 685.202 350.828C685.202 349.843 685.48 349.045 686.036 348.436C686.609 347.809 687.299 347.379 688.105 347.146C688.929 346.913 689.87 346.797 690.927 346.797H694.447C694.447 345.99 694.143 345.399 693.534 345.023C692.925 344.629 692.127 344.432 691.142 344.432C689.44 344.432 688.374 344.969 687.944 346.044H684.907C685.265 344.683 686.009 343.634 687.137 342.9C688.284 342.165 689.61 341.798 691.115 341.798ZM694.447 349.753V349.081H690.9C689.001 349.081 688.051 349.663 688.051 350.828C688.051 351.401 688.284 351.849 688.75 352.172C689.216 352.476 689.861 352.629 690.685 352.629C691.796 352.629 692.701 352.378 693.399 351.876C694.098 351.356 694.447 350.649 694.447 349.753ZM709.321 342.147H712.17V354.698H709.321V349.619H702.629V354.698H699.78V342.147H702.629V347.119H709.321V342.147ZM729.082 358.084H726.313V354.698H716.289V358.084H713.548V352.199H715.133C716.029 351.303 716.477 349.69 716.477 347.361V342.147H726.985V352.199H729.082V358.084ZM719.326 344.647V347.334C719.326 349.43 719.03 351.052 718.439 352.199H724.137V344.647H719.326ZM735.978 341.798C737.842 341.798 739.338 342.237 740.467 343.115C741.595 343.993 742.16 345.22 742.16 346.797V354.698H739.311V353.542C738.361 354.546 736.955 355.047 735.092 355.047C733.551 355.047 732.323 354.689 731.41 353.972C730.514 353.238 730.066 352.19 730.066 350.828C730.066 349.843 730.344 349.045 730.899 348.436C731.472 347.809 732.162 347.379 732.968 347.146C733.793 346.913 734.733 346.797 735.79 346.797H739.311C739.311 345.99 739.006 345.399 738.397 345.023C737.788 344.629 736.991 344.432 736.005 344.432C734.303 344.432 733.237 344.969 732.807 346.044H729.77C730.129 344.683 730.872 343.634 732.001 342.9C733.148 342.165 734.473 341.798 735.978 341.798ZM739.311 349.753V349.081H735.763C733.864 349.081 732.915 349.663 732.915 350.828C732.915 351.401 733.148 351.849 733.613 352.172C734.079 352.476 734.724 352.629 735.548 352.629C736.659 352.629 737.564 352.378 738.263 351.876C738.962 351.356 739.311 350.649 739.311 349.753Z" fill="white"/>
<path d="M556.089 151.84C556.091 152.211 555.792 152.513 555.421 152.516L549.374 152.551C549.003 152.553 548.7 152.254 548.698 151.883C548.696 151.512 548.995 151.209 549.366 151.207L554.741 151.176L554.71 145.801C554.708 145.43 555.007 145.127 555.378 145.125C555.749 145.123 556.051 145.422 556.054 145.793L556.089 151.84ZM322.5 151.844C322.054 151.341 322.054 151.341 322.055 151.341C322.055 151.341 322.055 151.341 322.055 151.341C322.055 151.341 322.055 151.341 322.055 151.341C322.055 151.34 322.055 151.34 322.056 151.34C322.056 151.339 322.057 151.339 322.058 151.338C322.06 151.336 322.063 151.333 322.067 151.33C322.074 151.323 322.085 151.314 322.1 151.301C322.129 151.276 322.172 151.238 322.228 151.19C322.342 151.092 322.51 150.949 322.733 150.764C323.179 150.393 323.842 149.852 324.717 149.172L325.542 150.232C324.679 150.904 324.027 151.434 323.593 151.796C323.375 151.977 323.212 152.116 323.104 152.209C323.05 152.255 323.01 152.29 322.983 152.313C322.97 152.325 322.96 152.334 322.954 152.339C322.951 152.342 322.949 152.344 322.947 152.345C322.947 152.346 322.946 152.346 322.946 152.346C322.946 152.347 322.946 152.347 322.945 152.347C322.945 152.347 322.945 152.347 322.945 152.347C322.945 152.347 322.946 152.347 322.946 152.347C322.946 152.347 322.946 152.347 322.5 151.844ZM330.296 145.096C331.967 143.943 333.885 142.672 336.042 141.322L336.755 142.461C334.616 143.8 332.715 145.059 331.06 146.202L330.296 145.096ZM341.954 137.788C343.839 136.712 345.852 135.61 347.989 134.497L348.609 135.688C346.488 136.793 344.491 137.887 342.62 138.955L341.954 137.788ZM354.148 131.434C356.155 130.482 358.25 129.532 360.431 128.593L360.962 129.828C358.796 130.759 356.716 131.702 354.724 132.648L354.148 131.434ZM366.781 125.996C368.869 125.185 371.024 124.391 373.245 123.619L373.686 124.889C371.481 125.655 369.34 126.444 367.267 127.249L366.781 125.996ZM379.779 121.48C381.925 120.819 384.126 120.182 386.38 119.575L386.729 120.873C384.491 121.476 382.306 122.108 380.174 122.764L379.779 121.48ZM393.056 117.905C395.256 117.395 397.502 116.916 399.793 116.471L400.05 117.79C397.775 118.232 395.544 118.708 393.359 119.214L393.056 117.905ZM406.561 115.279C408.791 114.927 411.059 114.609 413.365 114.328L413.528 115.662C411.238 115.941 408.985 116.257 406.771 116.607L406.561 115.279ZM420.202 113.615C422.455 113.42 424.741 113.261 427.06 113.141L427.13 114.483C424.826 114.602 422.555 114.76 420.318 114.954L420.202 113.615ZM433.932 112.905C435.077 112.885 436.23 112.875 437.391 112.875V114.219C436.238 114.219 435.093 114.229 433.955 114.248L433.932 112.905ZM437.391 112.875C438.586 112.875 439.771 112.884 440.948 112.901L440.929 114.244C439.758 114.227 438.579 114.219 437.391 114.219V112.875ZM448.001 113.107C450.389 113.212 452.737 113.352 455.046 113.524L454.946 114.864C452.651 114.693 450.317 114.554 447.942 114.449L448.001 113.107ZM462.074 114.158C464.455 114.411 466.79 114.698 469.08 115.016L468.895 116.347C466.62 116.031 464.299 115.746 461.933 115.495L462.074 114.158ZM476.051 116.102C478.412 116.51 480.721 116.951 482.976 117.421L482.702 118.736C480.462 118.27 478.168 117.832 475.822 117.426L476.051 116.102ZM489.858 118.98C492.201 119.555 494.482 120.159 496.699 120.789L496.332 122.082C494.13 121.456 491.865 120.856 489.538 120.285L489.858 118.98ZM503.455 122.843C505.751 123.589 507.971 124.358 510.115 125.146L509.652 126.407C507.524 125.625 505.32 124.861 503.04 124.121L503.455 122.843ZM516.713 127.719C518.965 128.65 521.118 129.595 523.174 130.545L522.611 131.764C520.571 130.822 518.434 129.885 516.2 128.961L516.713 127.719ZM529.524 133.644C531.735 134.783 533.807 135.916 535.738 137.025L535.069 138.19C533.155 137.091 531.101 135.968 528.908 134.839L529.524 133.644ZM541.773 140.685C543.991 142.107 545.947 143.451 547.641 144.675L546.854 145.764C545.179 144.555 543.244 143.225 541.047 141.816L541.773 140.685ZM553.234 149.008C554.114 149.745 554.775 150.332 555.217 150.735C555.438 150.937 555.605 151.093 555.717 151.2C555.773 151.253 555.815 151.294 555.844 151.322C555.858 151.336 555.869 151.346 555.877 151.354C555.88 151.357 555.883 151.36 555.885 151.362C555.886 151.363 555.887 151.364 555.888 151.365C555.888 151.365 555.888 151.365 555.889 151.365C555.889 151.366 555.889 151.366 555.889 151.366C555.889 151.366 555.889 151.366 555.889 151.366C555.889 151.366 555.889 151.366 555.417 151.844C554.944 152.322 554.944 152.322 554.944 152.322C554.944 152.322 554.944 152.322 554.944 152.322C554.944 152.322 554.944 152.322 554.944 152.322C554.944 152.322 554.944 152.322 554.944 152.322C554.944 152.321 554.944 152.321 554.943 152.32C554.942 152.319 554.939 152.317 554.936 152.314C554.93 152.308 554.921 152.299 554.908 152.286C554.883 152.262 554.843 152.224 554.791 152.174C554.685 152.073 554.525 151.923 554.311 151.728C553.882 151.336 553.236 150.763 552.372 150.039L553.234 149.008ZM556.089 151.84C556.091 152.211 555.792 152.513 555.421 152.516L549.374 152.551C549.003 152.553 548.7 152.254 548.698 151.883C548.696 151.512 548.995 151.209 549.366 151.207L554.741 151.176L554.71 145.801C554.708 145.43 555.007 145.127 555.378 145.125C555.749 145.123 556.051 145.422 556.054 145.793L556.089 151.84ZM322.5 151.844C322.054 151.341 322.054 151.341 322.055 151.341C322.055 151.341 322.055 151.341 322.055 151.341C322.055 151.341 322.055 151.341 322.055 151.341C322.055 151.34 322.055 151.34 322.056 151.34C322.056 151.339 322.057 151.339 322.058 151.338C322.06 151.336 322.063 151.333 322.067 151.33C322.074 151.323 322.085 151.314 322.1 151.301C322.129 151.276 322.172 151.238 322.228 151.19C322.342 151.092 322.51 150.949 322.733 150.764C323.179 150.393 323.842 149.852 324.717 149.172L325.542 150.232C324.679 150.904 324.027 151.434 323.593 151.796C323.375 151.977 323.212 152.116 323.104 152.209C323.05 152.255 323.01 152.29 322.983 152.313C322.97 152.325 322.96 152.334 322.954 152.339C322.951 152.342 322.949 152.344 322.947 152.345C322.947 152.346 322.946 152.346 322.946 152.346C322.946 152.347 322.946 152.347 322.945 152.347C322.945 152.347 322.945 152.347 322.945 152.347C322.945 152.347 322.946 152.347 322.946 152.347C322.946 152.347 322.946 152.347 322.5 151.844ZM330.296 145.096C331.967 143.943 333.885 142.672 336.042 141.322L336.755 142.461C334.616 143.8 332.715 145.059 331.06 146.202L330.296 145.096ZM341.954 137.788C343.839 136.712 345.852 135.61 347.989 134.497L348.609 135.688C346.488 136.793 344.491 137.887 342.62 138.955L341.954 137.788ZM354.148 131.434C356.155 130.482 358.25 129.532 360.431 128.593L360.962 129.828C358.796 130.759 356.716 131.702 354.724 132.648L354.148 131.434ZM366.781 125.996C368.869 125.185 371.024 124.391 373.245 123.619L373.686 124.889C371.481 125.655 369.34 126.444 367.267 127.249L366.781 125.996ZM379.779 121.48C381.925 120.819 384.126 120.182 386.38 119.575L386.729 120.873C384.491 121.476 382.306 122.108 380.174 122.764L379.779 121.48ZM393.056 117.905C395.256 117.395 397.502 116.916 399.793 116.471L400.05 117.79C397.775 118.232 395.544 118.708 393.359 119.214L393.056 117.905ZM406.561 115.279C408.791 114.927 411.059 114.609 413.365 114.328L413.528 115.662C411.238 115.941 408.985 116.257 406.771 116.607L406.561 115.279ZM420.202 113.615C422.455 113.42 424.741 113.261 427.06 113.141L427.13 114.483C424.826 114.602 422.555 114.76 420.318 114.954L420.202 113.615ZM433.932 112.905C435.077 112.885 436.23 112.875 437.391 112.875V114.219C436.238 114.219 435.093 114.229 433.955 114.248L433.932 112.905ZM437.391 112.875C438.586 112.875 439.771 112.884 440.948 112.901L440.929 114.244C439.758 114.227 438.579 114.219 437.391 114.219V112.875ZM448.001 113.107C450.389 113.212 452.737 113.352 455.046 113.524L454.946 114.864C452.651 114.693 450.317 114.554 447.942 114.449L448.001 113.107ZM462.074 114.158C464.455 114.411 466.79 114.698 469.08 115.016L468.895 116.347C466.62 116.031 464.299 115.746 461.933 115.495L462.074 114.158ZM476.051 116.102C478.412 116.51 480.721 116.951 482.976 117.421L482.702 118.736C480.462 118.27 478.168 117.832 475.822 117.426L476.051 116.102ZM489.858 118.98C492.201 119.555 494.482 120.159 496.699 120.789L496.332 122.082C494.13 121.456 491.865 120.856 489.538 120.285L489.858 118.98ZM503.455 122.843C505.751 123.589 507.971 124.358 510.115 125.146L509.652 126.407C507.524 125.625 505.32 124.861 503.04 124.121L503.455 122.843ZM516.713 127.719C518.965 128.65 521.118 129.595 523.174 130.545L522.611 131.764C520.571 130.822 518.434 129.885 516.2 128.961L516.713 127.719ZM529.524 133.644C531.735 134.783 533.807 135.916 535.738 137.025L535.069 138.19C533.155 137.091 531.101 135.968 528.908 134.839L529.524 133.644ZM541.773 140.685C543.991 142.107 545.947 143.451 547.641 144.675L546.854 145.764C545.179 144.555 543.244 143.225 541.047 141.816L541.773 140.685ZM553.234 149.008C554.114 149.745 554.775 150.332 555.217 150.735C555.438 150.937 555.605 151.093 555.717 151.2C555.773 151.253 555.815 151.294 555.844 151.322C555.858 151.336 555.869 151.346 555.877 151.354C555.88 151.357 555.883 151.36 555.885 151.362C555.886 151.363 555.887 151.364 555.888 151.365C555.888 151.365 555.888 151.365 555.889 151.365C555.889 151.366 555.889 151.366 555.889 151.366C555.889 151.366 555.889 151.366 555.889 151.366C555.889 151.366 555.889 151.366 555.417 151.844C554.944 152.322 554.944 152.322 554.944 152.322C554.944 152.322 554.944 152.322 554.944 152.322C554.944 152.322 554.944 152.322 554.944 152.322C554.944 152.322 554.944 152.322 554.944 152.322C554.944 152.321 554.944 152.321 554.943 152.32C554.942 152.319 554.939 152.317 554.936 152.314C554.93 152.308 554.921 152.299 554.908 152.286C554.883 152.262 554.843 152.224 554.791 152.174C554.685 152.073 554.525 151.923 554.311 151.728C553.882 151.336 553.236 150.763 552.372 150.039L553.234 149.008Z" fill="#FFE1A6" fill-opacity="0.8"/>
<path d="M321.828 222.618C321.826 222.247 322.125 221.945 322.496 221.943L328.543 221.908C328.914 221.906 329.217 222.205 329.219 222.576C329.221 222.947 328.922 223.249 328.551 223.251L323.176 223.283L323.207 228.657C323.209 229.029 322.91 229.331 322.539 229.333C322.168 229.335 321.866 229.036 321.863 228.665L321.828 222.618ZM555.417 222.615C555.863 223.117 555.863 223.118 555.862 223.118C555.862 223.118 555.862 223.118 555.862 223.118C555.862 223.118 555.862 223.118 555.862 223.118C555.862 223.118 555.862 223.118 555.861 223.118C555.861 223.119 555.86 223.12 555.859 223.121C555.857 223.122 555.854 223.125 555.85 223.128C555.843 223.135 555.832 223.145 555.817 223.157C555.788 223.183 555.745 223.22 555.689 223.269C555.575 223.366 555.407 223.509 555.184 223.695C554.738 224.066 554.075 224.606 553.2 225.287L552.375 224.226C553.238 223.555 553.89 223.024 554.324 222.662C554.542 222.481 554.705 222.342 554.813 222.25C554.867 222.203 554.907 222.168 554.934 222.145C554.947 222.133 554.957 222.125 554.963 222.119C554.966 222.116 554.968 222.114 554.97 222.113C554.97 222.113 554.971 222.112 554.971 222.112C554.971 222.112 554.971 222.112 554.972 222.112C554.972 222.112 554.972 222.112 554.972 222.112C554.972 222.112 554.971 222.112 554.971 222.112C554.971 222.112 554.971 222.112 555.417 222.615ZM547.621 229.362C545.95 230.516 544.032 231.786 541.875 233.136L541.162 231.997C543.301 230.659 545.202 229.399 546.857 228.256L547.621 229.362ZM535.963 236.67C534.078 237.746 532.065 238.849 529.928 239.962L529.308 238.77C531.429 237.665 533.426 236.571 535.297 235.503L535.963 236.67ZM523.769 243.025C521.762 243.977 519.667 244.927 517.486 245.865L516.955 244.631C519.121 243.699 521.201 242.756 523.193 241.811L523.769 243.025ZM511.136 248.462C509.048 249.273 506.893 250.067 504.672 250.839L504.231 249.57C506.436 248.804 508.577 248.015 510.65 247.21L511.136 248.462ZM498.138 252.979C495.992 253.64 493.791 254.276 491.537 254.883L491.188 253.585C493.426 252.983 495.611 252.351 497.743 251.694L498.138 252.979ZM484.861 256.554C482.661 257.063 480.414 257.542 478.124 257.988L477.867 256.669C480.142 256.226 482.373 255.75 484.558 255.245L484.861 256.554ZM471.356 259.179C469.126 259.531 466.858 259.849 464.552 260.131L464.389 258.797C466.679 258.517 468.932 258.201 471.146 257.852L471.356 259.179ZM457.715 260.843C455.462 261.039 453.176 261.197 450.857 261.317L450.787 259.975C453.091 259.856 455.362 259.698 457.599 259.505L457.715 260.843ZM443.985 261.554C442.84 261.573 441.687 261.583 440.526 261.583V260.24C441.679 260.24 442.824 260.23 443.962 260.21L443.985 261.554ZM440.526 261.583C439.331 261.583 438.146 261.575 436.969 261.558L436.988 260.214C438.159 260.231 439.338 260.24 440.526 260.24V261.583ZM429.916 261.352C427.528 261.246 425.179 261.107 422.871 260.934L422.971 259.594C425.266 259.766 427.6 259.905 429.975 260.009L429.916 261.352ZM415.842 260.3C413.462 260.047 411.127 259.76 408.837 259.442L409.022 258.111C411.297 258.427 413.618 258.713 415.984 258.964L415.842 260.3ZM401.866 258.356C399.505 257.948 397.196 257.507 394.941 257.037L395.215 255.722C397.455 256.189 399.749 256.627 402.095 257.032L401.866 258.356ZM388.059 255.478C385.716 254.904 383.435 254.299 381.218 253.669L381.585 252.377C383.787 253.002 386.052 253.602 388.379 254.173L388.059 255.478ZM374.462 251.615C372.166 250.87 369.946 250.1 367.802 249.312L368.265 248.051C370.393 248.833 372.597 249.597 374.877 250.337L374.462 251.615ZM361.204 246.739C358.952 245.809 356.799 244.864 354.743 243.914L355.306 242.694C357.346 243.636 359.483 244.574 361.717 245.497L361.204 246.739ZM348.393 240.814C346.182 239.675 344.11 238.543 342.179 237.434L342.848 236.268C344.762 237.367 346.816 238.49 349.009 239.62L348.393 240.814ZM336.144 233.773C333.926 232.351 331.97 231.007 330.276 229.783L331.063 228.694C332.738 229.904 334.673 231.234 336.87 232.642L336.144 233.773ZM324.683 225.45C323.803 224.713 323.142 224.127 322.7 223.723C322.479 223.521 322.312 223.365 322.2 223.259C322.144 223.205 322.102 223.165 322.073 223.137C322.059 223.123 322.048 223.112 322.04 223.105C322.037 223.101 322.034 223.098 322.032 223.096C322.031 223.095 322.03 223.094 322.029 223.094C322.029 223.093 322.029 223.093 322.028 223.093C322.028 223.093 322.028 223.093 322.028 223.093C322.028 223.093 322.028 223.093 322.028 223.093C322.028 223.092 322.028 223.092 322.5 222.615C322.973 222.137 322.973 222.137 322.973 222.137C322.973 222.137 322.973 222.137 322.973 222.137C322.973 222.137 322.973 222.137 322.973 222.137C322.973 222.137 322.973 222.137 322.973 222.137C322.973 222.137 322.973 222.137 322.974 222.138C322.975 222.139 322.978 222.142 322.981 222.145C322.987 222.15 322.996 222.16 323.009 222.172C323.034 222.197 323.074 222.235 323.126 222.285C323.232 222.385 323.392 222.535 323.606 222.731C324.035 223.122 324.681 223.696 325.545 224.42L324.683 225.45ZM321.828 222.618C321.826 222.247 322.125 221.945 322.496 221.943L328.543 221.908C328.914 221.906 329.217 222.205 329.219 222.576C329.221 222.947 328.922 223.249 328.551 223.251L323.176 223.283L323.207 228.657C323.209 229.029 322.91 229.331 322.539 229.333C322.168 229.335 321.866 229.036 321.863 228.665L321.828 222.618ZM555.417 222.615C555.863 223.117 555.863 223.118 555.862 223.118C555.862 223.118 555.862 223.118 555.862 223.118C555.862 223.118 555.862 223.118 555.862 223.118C555.862 223.118 555.862 223.118 555.861 223.118C555.861 223.119 555.86 223.12 555.859 223.121C555.857 223.122 555.854 223.125 555.85 223.128C555.843 223.135 555.832 223.145 555.817 223.157C555.788 223.183 555.745 223.22 555.689 223.269C555.575 223.366 555.407 223.509 555.184 223.695C554.738 224.066 554.075 224.606 553.2 225.287L552.375 224.226C553.238 223.555 553.89 223.024 554.324 222.662C554.542 222.481 554.705 222.342 554.813 222.25C554.867 222.203 554.907 222.168 554.934 222.145C554.947 222.133 554.957 222.125 554.963 222.119C554.966 222.116 554.968 222.114 554.97 222.113C554.97 222.113 554.971 222.112 554.971 222.112C554.971 222.112 554.971 222.112 554.972 222.112C554.972 222.112 554.972 222.112 554.972 222.112C554.972 222.112 554.971 222.112 554.971 222.112C554.971 222.112 554.971 222.112 555.417 222.615ZM547.621 229.362C545.95 230.516 544.032 231.786 541.875 233.136L541.162 231.997C543.301 230.659 545.202 229.399 546.857 228.256L547.621 229.362ZM535.963 236.67C534.078 237.746 532.065 238.849 529.928 239.962L529.308 238.77C531.429 237.665 533.426 236.571 535.297 235.503L535.963 236.67ZM523.769 243.025C521.762 243.977 519.667 244.927 517.486 245.865L516.955 244.631C519.121 243.699 521.201 242.756 523.193 241.811L523.769 243.025ZM511.136 248.462C509.048 249.273 506.893 250.067 504.672 250.839L504.231 249.57C506.436 248.804 508.577 248.015 510.65 247.21L511.136 248.462ZM498.138 252.979C495.992 253.64 493.791 254.276 491.537 254.883L491.188 253.585C493.426 252.983 495.611 252.351 497.743 251.694L498.138 252.979ZM484.861 256.554C482.661 257.063 480.414 257.542 478.124 257.988L477.867 256.669C480.142 256.226 482.373 255.75 484.558 255.245L484.861 256.554ZM471.356 259.179C469.126 259.531 466.858 259.849 464.552 260.131L464.389 258.797C466.679 258.517 468.932 258.201 471.146 257.852L471.356 259.179ZM457.715 260.843C455.462 261.039 453.176 261.197 450.857 261.317L450.787 259.975C453.091 259.856 455.362 259.698 457.599 259.505L457.715 260.843ZM443.985 261.554C442.84 261.573 441.687 261.583 440.526 261.583V260.24C441.679 260.24 442.824 260.23 443.962 260.21L443.985 261.554ZM440.526 261.583C439.331 261.583 438.146 261.575 436.969 261.558L436.988 260.214C438.159 260.231 439.338 260.24 440.526 260.24V261.583ZM429.916 261.352C427.528 261.246 425.179 261.107 422.871 260.934L422.971 259.594C425.266 259.766 427.6 259.905 429.975 260.009L429.916 261.352ZM415.842 260.3C413.462 260.047 411.127 259.76 408.837 259.442L409.022 258.111C411.297 258.427 413.618 258.713 415.984 258.964L415.842 260.3ZM401.866 258.356C399.505 257.948 397.196 257.507 394.941 257.037L395.215 255.722C397.455 256.189 399.749 256.627 402.095 257.032L401.866 258.356ZM388.059 255.478C385.716 254.904 383.435 254.299 381.218 253.669L381.585 252.377C383.787 253.002 386.052 253.602 388.379 254.173L388.059 255.478ZM374.462 251.615C372.166 250.87 369.946 250.1 367.802 249.312L368.265 248.051C370.393 248.833 372.597 249.597 374.877 250.337L374.462 251.615ZM361.204 246.739C358.952 245.809 356.799 244.864 354.743 243.914L355.306 242.694C357.346 243.636 359.483 244.574 361.717 245.497L361.204 246.739ZM348.393 240.814C346.182 239.675 344.11 238.543 342.179 237.434L342.848 236.268C344.762 237.367 346.816 238.49 349.009 239.62L348.393 240.814ZM336.144 233.773C333.926 232.351 331.97 231.007 330.276 229.783L331.063 228.694C332.738 229.904 334.673 231.234 336.87 232.642L336.144 233.773ZM324.683 225.45C323.803 224.713 323.142 224.127 322.7 223.723C322.479 223.521 322.312 223.365 322.2 223.259C322.144 223.205 322.102 223.165 322.073 223.137C322.059 223.123 322.048 223.112 322.04 223.105C322.037 223.101 322.034 223.098 322.032 223.096C322.031 223.095 322.03 223.094 322.029 223.094C322.029 223.093 322.029 223.093 322.028 223.093C322.028 223.093 322.028 223.093 322.028 223.093C322.028 223.093 322.028 223.093 322.028 223.093C322.028 223.092 322.028 223.092 322.5 222.615C322.973 222.137 322.973 222.137 322.973 222.137C322.973 222.137 322.973 222.137 322.973 222.137C322.973 222.137 322.973 222.137 322.973 222.137C322.973 222.137 322.973 222.137 322.973 222.137C322.973 222.137 322.973 222.137 322.974 222.138C322.975 222.139 322.978 222.142 322.981 222.145C322.987 222.15 322.996 222.16 323.009 222.172C323.034 222.197 323.074 222.235 323.126 222.285C323.232 222.385 323.392 222.535 323.606 222.731C324.035 223.122 324.681 223.696 325.545 224.42L324.683 225.45Z" fill="#FFE1A6" fill-opacity="0.8"/>
</svg>
