<svg width="860" height="361" viewBox="0 0 860 361" fill="none" xmlns="http://www.w3.org/2000/svg">
<g clip-path="url(#clip0_277_16)">
<rect width="860" height="360" transform="translate(0 0.052063)" fill="#010203"/>
<g style="mix-blend-mode:plus-lighter" filter="url(#filter0_f_277_16)">
<path d="M678.225 228.895C619.808 255.511 459.142 490.165 199.302 320.074C162.545 297.672 101.726 318.174 73.641 380.992C45.5564 443.811 190.043 459.037 349.567 545.558C509.091 632.079 757.728 374.687 788.512 316.381C819.296 258.076 753.931 194.4 678.225 228.895Z" fill="#FF5B27"/>
</g>
<rect x="35.833" y="38" width="788.333" height="284.875" rx="17.9167" fill="white" fill-opacity="0.12"/>
<path d="M78.0891 81.2615V84.9433C78.0891 86.3767 77.4889 87.4069 76.2885 88.034C77.4889 88.661 78.0891 89.7002 78.0891 91.1515V94.8333C78.0891 96.0158 78.7252 96.6071 79.9973 96.6071H81.2066V99.1065H79.6748C78.3848 99.1065 77.3366 98.766 76.5304 98.0852C75.7421 97.4044 75.3479 96.41 75.3479 95.1021V91.5546C75.3479 90.8558 75.0971 90.2915 74.5954 89.8615C74.1116 89.4315 73.4577 89.1985 72.6335 89.1627V86.9052C73.4577 86.8694 74.1116 86.6365 74.5954 86.2065C75.0971 85.7765 75.3479 85.2121 75.3479 84.5133V80.9927C75.3479 79.6848 75.7421 78.6904 76.5304 78.0096C77.3366 77.3287 78.3848 76.9883 79.6748 76.9883H81.2066V79.4877H79.9973C78.7252 79.4877 78.0891 80.079 78.0891 81.2615ZM85.2392 94.8333H82.3904V82.2827H85.2392V90.8021L91.931 82.2827H94.7798V94.8333H91.931V86.314L85.2392 94.8333ZM100.861 82.2827L105.349 91.7696L109.864 82.2827H113.116V94.8333H110.267V87.4427L106.72 94.8333H103.925L100.377 87.4427V94.8333H97.5286V82.2827H100.861ZM123.636 90.9633H121.271L117.938 94.8333H114.337L117.911 90.6677C116.962 90.3631 116.245 89.8525 115.761 89.1358C115.277 88.4012 115.036 87.5592 115.036 86.6096C115.036 85.3554 115.448 84.3252 116.272 83.519C117.114 82.6948 118.332 82.2827 119.927 82.2827H126.484V94.8333H123.636V90.9633ZM123.636 84.7821H120.007C119.345 84.7821 118.825 84.9433 118.449 85.2658C118.072 85.5704 117.884 86.0183 117.884 86.6096C117.884 87.2008 118.072 87.6577 118.449 87.9802C118.843 88.3027 119.362 88.464 120.007 88.464H123.636V84.7821ZM140.879 76.854H143.727V82.2827H144.883C146.818 82.2827 148.413 82.874 149.667 84.0565C150.939 85.239 151.575 86.735 151.575 88.5446C151.575 90.4617 150.975 91.9935 149.774 93.1402C148.574 94.269 146.952 94.8333 144.91 94.8333H143.727V100.316H140.879V94.8333H139.696C137.618 94.8333 135.978 94.269 134.778 93.1402C133.595 91.9935 133.004 90.4617 133.004 88.5446C133.004 86.735 133.631 85.239 134.885 84.0565C136.158 82.874 137.761 82.2827 139.696 82.2827H140.879V76.854ZM144.883 84.7821H143.727V92.334H144.883C146.137 92.334 147.087 91.9846 147.732 91.2858C148.395 90.5871 148.726 89.6733 148.726 88.5446C148.726 87.4158 148.386 86.511 147.705 85.8302C147.024 85.1315 146.083 84.7821 144.883 84.7821ZM140.879 84.7821H139.723C138.523 84.7821 137.573 85.1315 136.874 85.8302C136.193 86.511 135.853 87.4158 135.853 88.5446C135.853 89.6733 136.175 90.5871 136.82 91.2858C137.483 91.9846 138.442 92.334 139.696 92.334H140.879V84.7821ZM158.754 81.9333C160.617 81.9333 162.113 82.3723 163.242 83.2502C164.371 84.1281 164.935 85.3554 164.935 86.9321V94.8333H162.087V93.6777C161.137 94.681 159.73 95.1827 157.867 95.1827C156.326 95.1827 155.099 94.8244 154.185 94.1077C153.289 93.3731 152.842 92.325 152.842 90.9633C152.842 89.9779 153.119 89.1806 153.675 88.5715C154.248 87.9444 154.938 87.5144 155.744 87.2815C156.568 87.0485 157.509 86.9321 158.566 86.9321H162.087C162.087 86.1258 161.782 85.5346 161.173 85.1583C160.564 84.7642 159.766 84.5671 158.781 84.5671C157.079 84.5671 156.013 85.1046 155.583 86.1796H152.546C152.904 84.8179 153.648 83.7698 154.777 83.0352C155.923 82.3006 157.249 81.9333 158.754 81.9333ZM162.087 89.8883V89.2165H158.539C156.64 89.2165 155.69 89.7987 155.69 90.9633C155.69 91.5367 155.923 91.9846 156.389 92.3071C156.855 92.6117 157.5 92.764 158.324 92.764C159.435 92.764 160.34 92.5131 161.038 92.0115C161.737 91.4919 162.087 90.7842 162.087 89.8883ZM170.752 82.2827L175.24 91.7696L179.755 82.2827H183.007V94.8333H180.158V87.4427L176.611 94.8333H173.816L170.268 87.4427V94.8333H167.419V82.2827H170.752ZM188.608 94.8333H185.759V82.2827H188.608V90.8021L195.3 82.2827H198.149V94.8333H195.3V86.314L188.608 94.8333ZM202.241 82.2827H212.642V94.8333H209.793V84.7821H205.09V87.5502C205.09 88.4998 205.036 89.3419 204.929 90.0765C204.839 90.7931 204.642 91.5456 204.338 92.334C204.051 93.1223 203.576 93.7404 202.913 94.1883C202.25 94.6183 201.417 94.8333 200.414 94.8333H199.366V92.1727H200.091C200.593 92.1727 200.996 92.0383 201.301 91.7696C201.623 91.4829 201.838 91.0708 201.946 90.5333C202.071 89.9958 202.152 89.521 202.188 89.109C202.223 88.6969 202.241 88.1594 202.241 87.4965V82.2827ZM218.228 94.8333H215.38V82.2827H218.228V90.8021L224.92 82.2827H227.769V94.8333H224.92V86.314L218.228 94.8333ZM238.285 90.9633H235.92L232.587 94.8333H228.986L232.56 90.6677C231.611 90.3631 230.894 89.8525 230.41 89.1358C229.927 88.4012 229.685 87.5592 229.685 86.6096C229.685 85.3554 230.097 84.3252 230.921 83.519C231.763 82.6948 232.981 82.2827 234.576 82.2827H241.133V94.8333H238.285V90.9633ZM238.285 84.7821H234.657C233.994 84.7821 233.474 84.9433 233.098 85.2658C232.722 85.5704 232.533 86.0183 232.533 86.6096C232.533 87.2008 232.722 87.6577 233.098 87.9802C233.492 88.3027 234.012 88.464 234.657 88.464H238.285V84.7821ZM245.43 84.9433V81.2615C245.43 80.079 244.794 79.4877 243.522 79.4877H242.313V76.9883H243.844C245.134 76.9883 246.174 77.3287 246.962 78.0096C247.768 78.6904 248.171 79.6848 248.171 80.9927V84.5133C248.171 85.2121 248.413 85.7765 248.897 86.2065C249.399 86.6365 250.062 86.8694 250.886 86.9052V89.1627C250.062 89.1985 249.399 89.4315 248.897 89.8615C248.413 90.2915 248.171 90.8558 248.171 91.5546V95.1021C248.171 96.41 247.768 97.4044 246.962 98.0852C246.174 98.766 245.134 99.1065 243.844 99.1065H242.313V96.6071H243.522C244.794 96.6071 245.43 96.0158 245.43 94.8333V91.1515C245.43 89.7002 246.03 88.661 247.231 88.034C246.03 87.4069 245.43 86.3767 245.43 84.9433Z" fill="white"/>
<path d="M78.0891 118.491V122.172C78.0891 123.606 77.4889 124.636 76.2885 125.263C77.4889 125.89 78.0891 126.929 78.0891 128.381V132.062C78.0891 133.245 78.7252 133.836 79.9973 133.836H81.2066V136.336H79.6748C78.3848 136.336 77.3366 135.995 76.5304 135.314C75.7421 134.634 75.3479 133.639 75.3479 132.331V128.784C75.3479 128.085 75.0971 127.521 74.5954 127.091C74.1116 126.661 73.4577 126.428 72.6335 126.392V124.134C73.4577 124.099 74.1116 123.866 74.5954 123.436C75.0971 123.006 75.3479 122.441 75.3479 121.742V118.222C75.3479 116.914 75.7421 115.92 76.5304 115.239C77.3366 114.558 78.3848 114.217 79.6748 114.217H81.2066V116.717H79.9973C78.7252 116.717 78.0891 117.308 78.0891 118.491ZM88.3029 129.778C89.6646 129.778 90.65 129.321 91.2592 128.407H94.3498C93.8839 129.644 93.1046 130.62 92.0117 131.337C90.9187 132.054 89.6825 132.412 88.3029 132.412C86.3858 132.412 84.7912 131.785 83.5192 130.531C82.2471 129.276 81.611 127.691 81.611 125.774C81.611 123.892 82.2292 122.325 83.4654 121.071C84.7017 119.799 86.2694 119.162 88.1685 119.162C90.0139 119.162 91.5369 119.79 92.7373 121.044C93.9377 122.28 94.5379 123.821 94.5379 125.666C94.5379 126.24 94.52 126.616 94.4842 126.795H84.5673C84.7285 127.691 85.1496 128.416 85.8304 128.972C86.5292 129.509 87.3533 129.778 88.3029 129.778ZM88.1685 121.716C87.2369 121.716 86.4396 121.975 85.7767 122.495C85.1317 122.997 84.7464 123.669 84.621 124.511H91.5279C91.3846 123.651 91.0083 122.97 90.3992 122.468C89.8079 121.966 89.0644 121.716 88.1685 121.716ZM108.411 123.409H105.428C104.765 122.334 103.743 121.796 102.364 121.796C101.253 121.796 100.339 122.172 99.6225 122.925C98.9238 123.677 98.5744 124.627 98.5744 125.774C98.5744 126.92 98.9238 127.879 99.6225 128.649C100.339 129.402 101.253 129.778 102.364 129.778C103.743 129.778 104.765 129.241 105.428 128.166H108.411C107.945 129.474 107.165 130.513 106.073 131.283C104.998 132.036 103.761 132.412 102.364 132.412C100.483 132.412 98.9059 131.785 97.6338 130.531C96.3617 129.259 95.7256 127.673 95.7256 125.774C95.7256 123.892 96.3617 122.325 97.6338 121.071C98.9059 119.799 100.483 119.162 102.364 119.162C103.761 119.162 104.998 119.548 106.073 120.318C107.165 121.071 107.945 122.101 108.411 123.409ZM108.72 122.011V119.512H121.11V122.011H116.326V132.062H113.477V122.011H108.72ZM125.168 123.382H129.146C130.723 123.382 131.932 123.803 132.774 124.645C133.616 125.469 134.037 126.499 134.037 127.736C134.037 128.99 133.616 130.029 132.774 130.853C131.95 131.659 130.741 132.062 129.146 132.062H122.32V119.512H125.168V123.382ZM125.168 129.563H129.065C129.728 129.563 130.248 129.411 130.624 129.106C131 128.784 131.188 128.327 131.188 127.736C131.188 127.144 130.991 126.687 130.597 126.365C130.221 126.042 129.71 125.881 129.065 125.881H125.168V129.563ZM154.214 135.449H151.446V132.062H141.422V135.449H138.68V129.563H140.266C141.162 128.667 141.61 127.055 141.61 124.726V119.512H152.118V129.563H154.214V135.449ZM144.458 122.011V124.699C144.458 126.795 144.163 128.416 143.572 129.563H149.269V122.011H144.458ZM161.836 129.778C163.198 129.778 164.184 129.321 164.793 128.407H167.883C167.418 129.644 166.638 130.62 165.545 131.337C164.452 132.054 163.216 132.412 161.836 132.412C159.919 132.412 158.325 131.785 157.053 130.531C155.781 129.276 155.145 127.691 155.145 125.774C155.145 123.892 155.763 122.325 156.999 121.071C158.235 119.799 159.803 119.162 161.702 119.162C163.548 119.162 165.07 119.79 166.271 121.044C167.471 122.28 168.071 123.821 168.071 125.666C168.071 126.24 168.054 126.616 168.018 126.795H158.101C158.262 127.691 158.683 128.416 159.364 128.972C160.063 129.509 160.887 129.778 161.836 129.778ZM161.702 121.716C160.77 121.716 159.973 121.975 159.31 122.495C158.665 122.997 158.28 123.669 158.155 124.511H165.061C164.918 123.651 164.542 122.97 163.933 122.468C163.341 121.966 162.598 121.716 161.702 121.716ZM168.244 122.011V119.512H180.634V122.011H175.85V132.062H173.001V122.011H168.244ZM184.692 132.062H181.844V119.512H184.692V128.031L191.384 119.512H194.233V132.062H191.384V123.543L184.692 132.062ZM198.541 122.172V118.491C198.541 117.308 197.905 116.717 196.632 116.717H195.423V114.217H196.955C198.245 114.217 199.284 114.558 200.072 115.239C200.879 115.92 201.282 116.914 201.282 118.222V121.742C201.282 122.441 201.524 123.006 202.007 123.436C202.509 123.866 203.172 124.099 203.996 124.134V126.392C203.172 126.428 202.509 126.661 202.007 127.091C201.524 127.521 201.282 128.085 201.282 128.784V132.331C201.282 133.639 200.879 134.634 200.072 135.314C199.284 135.995 198.245 136.336 196.955 136.336H195.423V133.836H196.632C197.905 133.836 198.541 133.245 198.541 132.062V128.381C198.541 126.929 199.141 125.89 200.341 125.263C199.141 124.636 198.541 123.606 198.541 122.172Z" fill="white"/>
<path d="M78.0891 155.72V159.402C78.0891 160.835 77.4889 161.865 76.2885 162.492C77.4889 163.119 78.0891 164.159 78.0891 165.61V169.292C78.0891 170.474 78.7252 171.065 79.9973 171.065H81.2066V173.565H79.6748C78.3848 173.565 77.3366 173.224 76.5304 172.544C75.7421 171.863 75.3479 170.868 75.3479 169.56V166.013C75.3479 165.314 75.0971 164.75 74.5954 164.32C74.1116 163.89 73.4577 163.657 72.6335 163.621V161.364C73.4577 161.328 74.1116 161.095 74.5954 160.665C75.0971 160.235 75.3479 159.67 75.3479 158.972V155.451C75.3479 154.143 75.7421 153.149 76.5304 152.468C77.3366 151.787 78.3848 151.447 79.6748 151.447H81.2066V153.946H79.9973C78.7252 153.946 78.0891 154.537 78.0891 155.72ZM88.3029 167.007C89.6646 167.007 90.65 166.55 91.2592 165.637H94.3498C93.8839 166.873 93.1046 167.849 92.0117 168.566C90.9187 169.283 89.6825 169.641 88.3029 169.641C86.3858 169.641 84.7912 169.014 83.5192 167.76C82.2471 166.506 81.611 164.92 81.611 163.003C81.611 161.122 82.2292 159.554 83.4654 158.3C84.7017 157.028 86.2694 156.392 88.1685 156.392C90.0139 156.392 91.5369 157.019 92.7373 158.273C93.9377 159.509 94.5379 161.05 94.5379 162.895C94.5379 163.469 94.52 163.845 94.4842 164.024H84.5673C84.7285 164.92 85.1496 165.646 85.8304 166.201C86.5292 166.739 87.3533 167.007 88.3029 167.007ZM88.1685 158.945C87.2369 158.945 86.4396 159.205 85.7767 159.724C85.1317 160.226 84.7464 160.898 84.621 161.74H91.5279C91.3846 160.88 91.0083 160.199 90.3992 159.697C89.8079 159.196 89.0644 158.945 88.1685 158.945ZM108.411 160.638H105.428C104.765 159.563 103.743 159.025 102.364 159.025C101.253 159.025 100.339 159.402 99.6225 160.154C98.9238 160.907 98.5744 161.856 98.5744 163.003C98.5744 164.15 98.9238 165.108 99.6225 165.879C100.339 166.631 101.253 167.007 102.364 167.007C103.743 167.007 104.765 166.47 105.428 165.395H108.411C107.945 166.703 107.165 167.742 106.073 168.512C104.998 169.265 103.761 169.641 102.364 169.641C100.483 169.641 98.9059 169.014 97.6338 167.76C96.3617 166.488 95.7256 164.902 95.7256 163.003C95.7256 161.122 96.3617 159.554 97.6338 158.3C98.9059 157.028 100.483 156.392 102.364 156.392C103.761 156.392 104.998 156.777 106.073 157.547C107.165 158.3 107.945 159.33 108.411 160.638ZM108.72 159.24V156.741H121.11V159.24H116.326V169.292H113.477V159.24H108.72ZM125.168 160.611H129.146C130.723 160.611 131.932 161.032 132.774 161.874C133.616 162.698 134.037 163.729 134.037 164.965C134.037 166.219 133.616 167.258 132.774 168.082C131.95 168.889 130.741 169.292 129.146 169.292H122.32V156.741H125.168V160.611ZM125.168 166.792H129.065C129.728 166.792 130.248 166.64 130.624 166.335C131 166.013 131.188 165.556 131.188 164.965C131.188 164.374 130.991 163.917 130.597 163.594C130.221 163.272 129.71 163.11 129.065 163.11H125.168V166.792ZM143.383 156.741L147.872 166.228L152.387 156.741H155.638V169.292H152.79V161.901L149.242 169.292H146.447L142.9 161.901V169.292H140.051V156.741H143.383ZM163.578 156.392C165.441 156.392 166.937 156.831 168.066 157.709C169.195 158.586 169.759 159.814 169.759 161.39V169.292H166.91V168.136C165.961 169.139 164.554 169.641 162.691 169.641C161.15 169.641 159.923 169.283 159.009 168.566C158.113 167.831 157.665 166.783 157.665 165.422C157.665 164.436 157.943 163.639 158.499 163.03C159.072 162.403 159.762 161.973 160.568 161.74C161.392 161.507 162.333 161.39 163.39 161.39H166.91C166.91 160.584 166.606 159.993 165.997 159.617C165.387 159.223 164.59 159.025 163.605 159.025C161.903 159.025 160.837 159.563 160.407 160.638H157.37C157.728 159.276 158.472 158.228 159.6 157.494C160.747 156.759 162.073 156.392 163.578 156.392ZM166.91 164.347V163.675H163.363C161.464 163.675 160.514 164.257 160.514 165.422C160.514 165.995 160.747 166.443 161.213 166.765C161.679 167.07 162.324 167.222 163.148 167.222C164.259 167.222 165.164 166.971 165.862 166.47C166.561 165.95 166.91 165.243 166.91 164.347ZM190.76 169.292H172.243V156.741H175.092V166.792H180.064V156.741H182.913V166.792H187.911V156.741H190.76V169.292ZM196.345 169.292H193.496V156.741H196.345V165.26L203.037 156.741H205.886V169.292H203.037V160.772L196.345 169.292ZM218.175 156.741H221.024V169.292H218.175V164.212H211.483V169.292H208.635V156.741H211.483V161.713H218.175V156.741ZM228.96 156.392C230.823 156.392 232.319 156.831 233.448 157.709C234.577 158.586 235.141 159.814 235.141 161.39V169.292H232.292V168.136C231.343 169.139 229.936 169.641 228.073 169.641C226.532 169.641 225.305 169.283 224.391 168.566C223.495 167.831 223.047 166.783 223.047 165.422C223.047 164.436 223.325 163.639 223.88 163.03C224.454 162.403 225.143 161.973 225.95 161.74C226.774 161.507 227.715 161.39 228.772 161.39H232.292C232.292 160.584 231.988 159.993 231.378 159.617C230.769 159.223 229.972 159.025 228.987 159.025C227.285 159.025 226.218 159.563 225.788 160.638H222.752C223.11 159.276 223.853 158.228 224.982 157.494C226.129 156.759 227.455 156.392 228.96 156.392ZM232.292 164.347V163.675H228.745C226.846 163.675 225.896 164.257 225.896 165.422C225.896 165.995 226.129 166.443 226.595 166.765C227.061 167.07 227.706 167.222 228.53 167.222C229.641 167.222 230.545 166.971 231.244 166.47C231.943 165.95 232.292 165.243 232.292 164.347ZM239.184 159.402V155.72C239.184 154.537 238.548 153.946 237.276 153.946H236.066V151.447H237.598C238.888 151.447 239.927 151.787 240.716 152.468C241.522 153.149 241.925 154.143 241.925 155.451V158.972C241.925 159.67 242.167 160.235 242.651 160.665C243.152 161.095 243.815 161.328 244.639 161.364V163.621C243.815 163.657 243.152 163.89 242.651 164.32C242.167 164.75 241.925 165.314 241.925 166.013V169.56C241.925 170.868 241.522 171.863 240.716 172.544C239.927 173.224 238.888 173.565 237.598 173.565H236.066V171.065H237.276C238.548 171.065 239.184 170.474 239.184 169.292V165.61C239.184 164.159 239.784 163.119 240.984 162.492C239.784 161.865 239.184 160.835 239.184 159.402Z" fill="white"/>
<path d="M78.0891 192.949V196.631C78.0891 198.064 77.4889 199.094 76.2885 199.721C77.4889 200.349 78.0891 201.388 78.0891 202.839V206.521C78.0891 207.703 78.7252 208.295 79.9973 208.295H81.2066V210.794H79.6748C78.3848 210.794 77.3366 210.454 76.5304 209.773C75.7421 209.092 75.3479 208.098 75.3479 206.79V203.242C75.3479 202.543 75.0971 201.979 74.5954 201.549C74.1116 201.119 73.4577 200.886 72.6335 200.85V198.593C73.4577 198.557 74.1116 198.324 74.5954 197.894C75.0971 197.464 75.3479 196.9 75.3479 196.201V192.68C75.3479 191.372 75.7421 190.378 76.5304 189.697C77.3366 189.016 78.3848 188.676 79.6748 188.676H81.2066V191.175H79.9973C78.7252 191.175 78.0891 191.766 78.0891 192.949ZM88.3029 204.236C89.6646 204.236 90.65 203.78 91.2592 202.866H94.3498C93.8839 204.102 93.1046 205.079 92.0117 205.795C90.9187 206.512 89.6825 206.87 88.3029 206.87C86.3858 206.87 84.7912 206.243 83.5192 204.989C82.2471 203.735 81.611 202.149 81.611 200.232C81.611 198.351 82.2292 196.783 83.4654 195.529C84.7017 194.257 86.2694 193.621 88.1685 193.621C90.0139 193.621 91.5369 194.248 92.7373 195.502C93.9377 196.738 94.5379 198.279 94.5379 200.125C94.5379 200.698 94.52 201.074 94.4842 201.253H84.5673C84.7285 202.149 85.1496 202.875 85.8304 203.43C86.5292 203.968 87.3533 204.236 88.3029 204.236ZM88.1685 196.174C87.2369 196.174 86.4396 196.434 85.7767 196.953C85.1317 197.455 84.7464 198.127 84.621 198.969H91.5279C91.3846 198.109 91.0083 197.428 90.3992 196.926C89.8079 196.425 89.0644 196.174 88.1685 196.174ZM108.411 197.867H105.428C104.765 196.792 103.743 196.255 102.364 196.255C101.253 196.255 100.339 196.631 99.6225 197.383C98.9238 198.136 98.5744 199.085 98.5744 200.232C98.5744 201.379 98.9238 202.337 99.6225 203.108C100.339 203.86 101.253 204.236 102.364 204.236C103.743 204.236 104.765 203.699 105.428 202.624H108.411C107.945 203.932 107.165 204.971 106.073 205.741C104.998 206.494 103.761 206.87 102.364 206.87C100.483 206.87 98.9059 206.243 97.6338 204.989C96.3617 203.717 95.7256 202.131 95.7256 200.232C95.7256 198.351 96.3617 196.783 97.6338 195.529C98.9059 194.257 100.483 193.621 102.364 193.621C103.761 193.621 104.998 194.006 106.073 194.776C107.165 195.529 107.945 196.559 108.411 197.867ZM108.72 196.47V193.97H121.11V196.47H116.326V206.521H113.477V196.47H108.72ZM125.168 197.84H129.146C130.723 197.84 131.932 198.261 132.774 199.103C133.616 199.928 134.037 200.958 134.037 202.194C134.037 203.448 133.616 204.487 132.774 205.311C131.95 206.118 130.741 206.521 129.146 206.521H122.32V193.97H125.168V197.84ZM125.168 204.021H129.065C129.728 204.021 130.248 203.869 130.624 203.565C131 203.242 131.188 202.785 131.188 202.194C131.188 201.603 130.991 201.146 130.597 200.823C130.221 200.501 129.71 200.34 129.065 200.34H125.168V204.021ZM151.957 197.867H148.973C148.311 196.792 147.289 196.255 145.91 196.255C144.799 196.255 143.885 196.631 143.168 197.383C142.47 198.136 142.12 199.085 142.12 200.232C142.12 201.379 142.47 202.337 143.168 203.108C143.885 203.86 144.799 204.236 145.91 204.236C147.289 204.236 148.311 203.699 148.973 202.624H151.957C151.491 203.932 150.711 204.971 149.618 205.741C148.543 206.494 147.307 206.87 145.91 206.87C144.028 206.87 142.452 206.243 141.18 204.989C139.908 203.717 139.272 202.131 139.272 200.232C139.272 198.351 139.908 196.783 141.18 195.529C142.452 194.257 144.028 193.621 145.91 193.621C147.307 193.621 148.543 194.006 149.618 194.776C150.711 195.529 151.491 196.559 151.957 197.867ZM159.737 193.621C161.637 193.621 163.222 194.257 164.494 195.529C165.784 196.783 166.429 198.36 166.429 200.259C166.429 202.14 165.784 203.717 164.494 204.989C163.222 206.243 161.637 206.87 159.737 206.87C157.82 206.87 156.217 206.243 154.927 204.989C153.655 203.735 153.019 202.158 153.019 200.259C153.019 198.36 153.655 196.783 154.927 195.529C156.217 194.257 157.82 193.621 159.737 193.621ZM159.737 204.236C160.866 204.236 161.789 203.86 162.506 203.108C163.222 202.355 163.581 201.406 163.581 200.259C163.581 199.094 163.222 198.136 162.506 197.383C161.789 196.631 160.866 196.255 159.737 196.255C158.627 196.255 157.704 196.64 156.969 197.41C156.235 198.163 155.867 199.112 155.867 200.259C155.867 201.388 156.235 202.337 156.969 203.108C157.704 203.86 158.627 204.236 159.737 204.236ZM174.781 194.158C176.572 194.158 178.077 194.776 179.296 196.013C180.514 197.231 181.123 198.736 181.123 200.528C181.123 202.319 180.487 203.824 179.215 205.043C177.943 206.261 176.375 206.87 174.512 206.87C172.434 206.87 170.812 206.198 169.648 204.855C168.483 203.511 167.901 201.63 167.901 199.211C167.901 196.273 168.34 194.078 169.218 192.626C170.096 191.157 171.511 190.324 173.464 190.127L175.775 189.885C176.456 189.814 176.967 189.688 177.307 189.509C177.647 189.312 177.871 188.989 177.979 188.541H180.828C180.72 189.688 180.344 190.566 179.699 191.175C179.054 191.784 178.113 192.161 176.877 192.304L173.786 192.626C172.783 192.734 172.013 193.092 171.475 193.701C170.938 194.311 170.633 195.054 170.561 195.932C171.475 194.75 172.882 194.158 174.781 194.158ZM171.825 203.188C172.541 203.887 173.437 204.236 174.512 204.236C175.587 204.236 176.483 203.887 177.2 203.188C177.916 202.49 178.275 201.603 178.275 200.528C178.275 199.453 177.916 198.566 177.2 197.867C176.483 197.15 175.587 196.792 174.512 196.792C173.437 196.792 172.541 197.15 171.825 197.867C171.108 198.566 170.75 199.453 170.75 200.528C170.75 201.603 171.108 202.49 171.825 203.188ZM188.264 193.621C190.127 193.621 191.623 194.06 192.752 194.938C193.881 195.816 194.445 197.043 194.445 198.62V206.521H191.597V205.365C190.647 206.369 189.241 206.87 187.377 206.87C185.836 206.87 184.609 206.512 183.695 205.795C182.799 205.061 182.352 204.013 182.352 202.651C182.352 201.665 182.629 200.868 183.185 200.259C183.758 199.632 184.448 199.202 185.254 198.969C186.078 198.736 187.019 198.62 188.076 198.62H191.597C191.597 197.813 191.292 197.222 190.683 196.846C190.074 196.452 189.276 196.255 188.291 196.255C186.589 196.255 185.523 196.792 185.093 197.867H182.056C182.414 196.505 183.158 195.457 184.287 194.723C185.433 193.988 186.759 193.621 188.264 193.621ZM191.597 201.576V200.904H188.049C186.15 200.904 185.2 201.486 185.2 202.651C185.2 203.224 185.433 203.672 185.899 203.995C186.365 204.299 187.01 204.451 187.834 204.451C188.945 204.451 189.85 204.201 190.548 203.699C191.247 203.179 191.597 202.472 191.597 201.576ZM196.929 193.97H199.778V199.13L205.341 193.97H209.238L202.385 200.259L209.238 206.521H205.341L199.778 201.656V206.521H196.929V193.97ZM215.391 193.621C217.254 193.621 218.75 194.06 219.879 194.938C221.008 195.816 221.572 197.043 221.572 198.62V206.521H218.723V205.365C217.774 206.369 216.367 206.87 214.504 206.87C212.963 206.87 211.736 206.512 210.822 205.795C209.926 205.061 209.478 204.013 209.478 202.651C209.478 201.665 209.756 200.868 210.312 200.259C210.885 199.632 211.575 199.202 212.381 198.969C213.205 198.736 214.146 198.62 215.203 198.62H218.723C218.723 197.813 218.419 197.222 217.81 196.846C217.201 196.452 216.403 196.255 215.418 196.255C213.716 196.255 212.65 196.792 212.22 197.867H209.183C209.541 196.505 210.285 195.457 211.413 194.723C212.56 193.988 213.886 193.621 215.391 193.621ZM218.723 201.576V200.904H215.176C213.277 200.904 212.327 201.486 212.327 202.651C212.327 203.224 212.56 203.672 213.026 203.995C213.492 204.299 214.137 204.451 214.961 204.451C216.072 204.451 216.977 204.201 217.675 203.699C218.374 203.179 218.723 202.472 218.723 201.576ZM225.615 196.631V192.949C225.615 191.766 224.979 191.175 223.707 191.175H222.498V188.676H224.029C225.319 188.676 226.359 189.016 227.147 189.697C227.953 190.378 228.356 191.372 228.356 192.68V196.201C228.356 196.9 228.598 197.464 229.082 197.894C229.584 198.324 230.247 198.557 231.071 198.593V200.85C230.247 200.886 229.584 201.119 229.082 201.549C228.598 201.979 228.356 202.543 228.356 203.242V206.79C228.356 208.098 227.953 209.092 227.147 209.773C226.359 210.454 225.319 210.794 224.029 210.794H222.498V208.295H223.707C224.979 208.295 225.615 207.703 225.615 206.521V202.839C225.615 201.388 226.215 200.349 227.416 199.721C226.215 199.094 225.615 198.064 225.615 196.631Z" fill="white"/>
<path d="M78.0891 230.178V233.86C78.0891 235.293 77.4889 236.324 76.2885 236.951C77.4889 237.578 78.0891 238.617 78.0891 240.068V243.75C78.0891 244.933 78.7252 245.524 79.9973 245.524H81.2066V248.023H79.6748C78.3848 248.023 77.3366 247.683 76.5304 247.002C75.7421 246.321 75.3479 245.327 75.3479 244.019V240.471C75.3479 239.773 75.0971 239.208 74.5954 238.778C74.1116 238.348 73.4577 238.115 72.6335 238.079V235.822C73.4577 235.786 74.1116 235.553 74.5954 235.123C75.0971 234.693 75.3479 234.129 75.3479 233.43V229.909C75.3479 228.601 75.7421 227.607 76.5304 226.926C77.3366 226.245 78.3848 225.905 79.6748 225.905H81.2066V228.404H79.9973C78.7252 228.404 78.0891 228.996 78.0891 230.178ZM94.296 235.096H91.3129C90.65 234.021 89.6287 233.484 88.2492 233.484C87.1383 233.484 86.2246 233.86 85.5079 234.613C84.8092 235.365 84.4598 236.315 84.4598 237.461C84.4598 238.608 84.8092 239.566 85.5079 240.337C86.2246 241.089 87.1383 241.466 88.2492 241.466C89.6287 241.466 90.65 240.928 91.3129 239.853H94.296C93.8302 241.161 93.0508 242.2 91.9579 242.971C90.8829 243.723 89.6467 244.099 88.2492 244.099C86.3679 244.099 84.7912 243.472 83.5192 242.218C82.2471 240.946 81.611 239.36 81.611 237.461C81.611 235.58 82.2471 234.012 83.5192 232.758C84.7912 231.486 86.3679 230.85 88.2492 230.85C89.6467 230.85 90.8829 231.235 91.9579 232.006C93.0508 232.758 93.8302 233.788 94.296 235.096ZM99.8732 243.481L94.337 231.199H97.5082L101.459 239.988L105.383 231.199H108.419L102.453 244.422C101.575 246.339 100.957 247.521 100.599 247.969C100.008 248.704 99.1566 249.116 98.0457 249.206C97.8128 249.224 97.553 249.233 97.2663 249.233H95.7345V246.733H96.8363C97.4455 246.733 97.9293 246.581 98.2876 246.276C98.6638 245.972 99.0311 245.407 99.3895 244.583L99.8732 243.481ZM112.692 231.199L117.181 240.686L121.696 231.199H124.947V243.75H122.099V236.359L118.551 243.75H115.756L112.209 236.359V243.75H109.36V231.199H112.692ZM131.032 231.199L135.521 240.686L140.036 231.199H143.287V243.75H140.439V236.359L136.891 243.75H134.096L130.549 236.359V243.75H127.7V231.199H131.032ZM151.227 230.85C153.09 230.85 154.586 231.289 155.715 232.167C156.844 233.045 157.408 234.272 157.408 235.849V243.75H154.559V242.594C153.61 243.598 152.203 244.099 150.34 244.099C148.799 244.099 147.572 243.741 146.658 243.024C145.762 242.29 145.314 241.242 145.314 239.88C145.314 238.895 145.592 238.097 146.148 237.488C146.721 236.861 147.411 236.431 148.217 236.198C149.041 235.965 149.982 235.849 151.039 235.849H154.559C154.559 235.043 154.255 234.451 153.646 234.075C153.037 233.681 152.239 233.484 151.254 233.484C149.552 233.484 148.486 234.021 148.056 235.096H145.019C145.377 233.735 146.121 232.686 147.249 231.952C148.396 231.217 149.722 230.85 151.227 230.85ZM154.559 238.805V238.133H151.012C149.113 238.133 148.163 238.715 148.163 239.88C148.163 240.453 148.396 240.901 148.862 241.224C149.328 241.528 149.973 241.681 150.797 241.681C151.908 241.681 152.813 241.43 153.511 240.928C154.21 240.409 154.559 239.701 154.559 238.805ZM170.393 230.85C172.292 230.85 173.878 231.486 175.15 232.758C176.44 234.012 177.085 235.589 177.085 237.488C177.085 239.369 176.44 240.946 175.15 242.218C173.878 243.472 172.292 244.099 170.393 244.099C168.476 244.099 166.872 243.472 165.582 242.218C164.31 240.964 163.674 239.387 163.674 237.488C163.674 235.589 164.31 234.012 165.582 232.758C166.872 231.486 168.476 230.85 170.393 230.85ZM170.393 241.466C171.522 241.466 172.444 241.089 173.161 240.337C173.878 239.584 174.236 238.635 174.236 237.488C174.236 236.324 173.878 235.365 173.161 234.613C172.444 233.86 171.522 233.484 170.393 233.484C169.282 233.484 168.359 233.869 167.625 234.639C166.89 235.392 166.523 236.341 166.523 237.488C166.523 238.617 166.89 239.566 167.625 240.337C168.359 241.089 169.282 241.466 170.393 241.466ZM193.23 247.136H190.462V243.75H180.438V247.136H177.696V241.251H179.282C180.178 240.355 180.626 238.742 180.626 236.413V231.199H191.134V241.251H193.23V247.136ZM183.474 233.699V236.386C183.474 238.483 183.179 240.104 182.588 241.251H188.285V233.699H183.474ZM200.879 230.85C202.779 230.85 204.364 231.486 205.636 232.758C206.926 234.012 207.571 235.589 207.571 237.488C207.571 239.369 206.926 240.946 205.636 242.218C204.364 243.472 202.779 244.099 200.879 244.099C198.962 244.099 197.359 243.472 196.069 242.218C194.797 240.964 194.161 239.387 194.161 237.488C194.161 235.589 194.797 234.012 196.069 232.758C197.359 231.486 198.962 230.85 200.879 230.85ZM200.879 241.466C202.008 241.466 202.931 241.089 203.647 240.337C204.364 239.584 204.722 238.635 204.722 237.488C204.722 236.324 204.364 235.365 203.647 234.613C202.931 233.86 202.008 233.484 200.879 233.484C199.769 233.484 198.846 233.869 198.111 234.639C197.377 235.392 197.009 236.341 197.009 237.488C197.009 238.617 197.377 239.566 198.111 240.337C198.846 241.089 199.769 241.466 200.879 241.466ZM215.923 231.388C217.714 231.388 219.219 232.006 220.438 233.242C221.656 234.46 222.265 235.965 222.265 237.757C222.265 239.549 221.629 241.054 220.357 242.272C219.085 243.49 217.517 244.099 215.654 244.099C213.576 244.099 211.954 243.428 210.789 242.084C209.625 240.74 209.043 238.859 209.043 236.44C209.043 233.502 209.482 231.307 210.359 229.856C211.237 228.386 212.653 227.553 214.606 227.356L216.917 227.114C217.598 227.043 218.108 226.917 218.449 226.738C218.789 226.541 219.013 226.219 219.121 225.771H221.969C221.862 226.917 221.486 227.795 220.841 228.404C220.196 229.014 219.255 229.39 218.019 229.533L214.928 229.856C213.925 229.963 213.154 230.321 212.617 230.931C212.079 231.54 211.775 232.283 211.703 233.161C212.617 231.979 214.023 231.388 215.923 231.388ZM212.966 240.418C213.683 241.116 214.579 241.466 215.654 241.466C216.729 241.466 217.625 241.116 218.341 240.418C219.058 239.719 219.416 238.832 219.416 237.757C219.416 236.682 219.058 235.795 218.341 235.096C217.625 234.38 216.729 234.021 215.654 234.021C214.579 234.021 213.683 234.38 212.966 235.096C212.25 235.795 211.891 236.682 211.891 237.757C211.891 238.832 212.25 239.719 212.966 240.418ZM227.068 249.233H224.219V231.199H227.068V232.355C228.017 231.352 229.334 230.85 231.018 230.85C232.971 230.85 234.521 231.504 235.668 232.812C236.832 234.102 237.415 235.652 237.415 237.461C237.415 239.289 236.832 240.856 235.668 242.164C234.521 243.454 232.971 244.099 231.018 244.099C229.334 244.099 228.017 243.598 227.068 242.594V249.233ZM228.089 234.532C227.337 235.213 226.96 236.189 226.96 237.461C226.96 238.733 227.337 239.719 228.089 240.418C228.859 241.116 229.773 241.466 230.83 241.466C231.923 241.466 232.819 241.08 233.518 240.31C234.217 239.522 234.566 238.572 234.566 237.461C234.566 236.368 234.217 235.437 233.518 234.666C232.819 233.878 231.923 233.484 230.83 233.484C229.773 233.484 228.859 233.833 228.089 234.532ZM245.296 241.466C246.658 241.466 247.643 241.009 248.252 240.095H251.343C250.877 241.331 250.098 242.308 249.005 243.024C247.912 243.741 246.676 244.099 245.296 244.099C243.379 244.099 241.784 243.472 240.512 242.218C239.24 240.964 238.604 239.378 238.604 237.461C238.604 235.58 239.222 234.012 240.458 232.758C241.695 231.486 243.262 230.85 245.162 230.85C247.007 230.85 248.53 231.477 249.73 232.731C250.931 233.968 251.531 235.508 251.531 237.354C251.531 237.927 251.513 238.303 251.477 238.483H241.56C241.722 239.378 242.143 240.104 242.823 240.659C243.522 241.197 244.346 241.466 245.296 241.466ZM245.162 233.403C244.23 233.403 243.433 233.663 242.77 234.183C242.125 234.684 241.739 235.356 241.614 236.198H248.521C248.378 235.338 248.001 234.657 247.392 234.156C246.801 233.654 246.057 233.403 245.162 233.403ZM263.039 231.199H265.887V243.75H263.039V238.671H256.347V243.75H253.498V231.199H256.347V236.171H263.039V231.199ZM278.177 231.199H281.026V243.75H278.177V238.671H271.485V243.75H268.636V231.199H271.485V236.171H278.177V231.199ZM289.714 230.85C291.613 230.85 293.199 231.486 294.471 232.758C295.761 234.012 296.406 235.589 296.406 237.488C296.406 239.369 295.761 240.946 294.471 242.218C293.199 243.472 291.613 244.099 289.714 244.099C287.797 244.099 286.193 243.472 284.903 242.218C283.631 240.964 282.995 239.387 282.995 237.488C282.995 235.589 283.631 234.012 284.903 232.758C286.193 231.486 287.797 230.85 289.714 230.85ZM289.714 241.466C290.843 241.466 291.765 241.089 292.482 240.337C293.199 239.584 293.557 238.635 293.557 237.488C293.557 236.324 293.199 235.365 292.482 234.613C291.765 233.86 290.843 233.484 289.714 233.484C288.603 233.484 287.68 233.869 286.946 234.639C286.211 235.392 285.844 236.341 285.844 237.488C285.844 238.617 286.211 239.566 286.946 240.337C287.68 241.089 288.603 241.466 289.714 241.466ZM301.236 243.75H298.388V231.199H301.236V239.719L307.928 231.199H310.777V243.75H307.928V235.231L301.236 243.75ZM299.436 224.508H301.828C301.881 225.26 302.159 225.878 302.661 226.362C303.18 226.846 303.816 227.088 304.569 227.088C305.321 227.088 305.949 226.846 306.45 226.362C306.97 225.878 307.256 225.26 307.31 224.508H309.702C309.63 225.941 309.111 227.123 308.143 228.055C307.176 228.987 305.984 229.453 304.569 229.453C303.154 229.453 301.962 228.987 300.995 228.055C300.027 227.123 299.508 225.941 299.436 224.508ZM320.936 243.75H318.087V231.199H320.936V239.719L327.628 231.199H330.477V243.75H327.628V235.231L320.936 243.75ZM333.225 231.199H345.4V243.75H342.551V233.699H336.074V243.75H333.225V231.199ZM354.093 230.85C355.992 230.85 357.578 231.486 358.85 232.758C360.14 234.012 360.785 235.589 360.785 237.488C360.785 239.369 360.14 240.946 358.85 242.218C357.578 243.472 355.992 244.099 354.093 244.099C352.176 244.099 350.572 243.472 349.282 242.218C348.01 240.964 347.374 239.387 347.374 237.488C347.374 235.589 348.01 234.012 349.282 232.758C350.572 231.486 352.176 230.85 354.093 230.85ZM354.093 241.466C355.222 241.466 356.145 241.089 356.861 240.337C357.578 239.584 357.936 238.635 357.936 237.488C357.936 236.324 357.578 235.365 356.861 234.613C356.145 233.86 355.222 233.484 354.093 233.484C352.982 233.484 352.06 233.869 351.325 234.639C350.59 235.392 350.223 236.341 350.223 237.488C350.223 238.617 350.59 239.566 351.325 240.337C352.06 241.089 352.982 241.466 354.093 241.466ZM360.973 233.699V231.199H373.362V233.699H368.578V243.75H365.73V233.699H360.973ZM380.275 241.466C381.636 241.466 382.622 241.009 383.231 240.095H386.321C385.856 241.331 385.076 242.308 383.983 243.024C382.89 243.741 381.654 244.099 380.275 244.099C378.357 244.099 376.763 243.472 375.491 242.218C374.219 240.964 373.583 239.378 373.583 237.461C373.583 235.58 374.201 234.012 375.437 232.758C376.673 231.486 378.241 230.85 380.14 230.85C381.986 230.85 383.509 231.477 384.709 232.731C385.909 233.968 386.51 235.508 386.51 237.354C386.51 237.927 386.492 238.303 386.456 238.483H376.539C376.7 239.378 377.121 240.104 377.802 240.659C378.501 241.197 379.325 241.466 380.275 241.466ZM380.14 233.403C379.209 233.403 378.411 233.663 377.748 234.183C377.103 234.684 376.718 235.356 376.593 236.198H383.5C383.356 235.338 382.98 234.657 382.371 234.156C381.78 233.654 381.036 233.403 380.14 233.403ZM388.477 231.199H391.325V236.359L396.889 231.199H400.785L393.932 237.488L400.785 243.75H396.889L391.325 238.886V243.75H388.477V231.199ZM404.6 243.75H401.751V231.199H404.6V239.719L411.292 231.199H414.141V243.75H411.292V235.231L404.6 243.75ZM418.448 233.86V230.178C418.448 228.996 417.812 228.404 416.54 228.404H415.331V225.905H416.863C418.153 225.905 419.192 226.245 419.98 226.926C420.787 227.607 421.19 228.601 421.19 229.909V233.43C421.19 234.129 421.432 234.693 421.915 235.123C422.417 235.553 423.08 235.786 423.904 235.822V238.079C423.08 238.115 422.417 238.348 421.915 238.778C421.432 239.208 421.19 239.773 421.19 240.471V244.019C421.19 245.327 420.787 246.321 419.98 247.002C419.192 247.683 418.153 248.023 416.863 248.023H415.331V245.524H416.54C417.812 245.524 418.448 244.933 418.448 243.75V240.068C418.448 238.617 419.049 237.578 420.249 236.951C419.049 236.324 418.448 235.293 418.448 233.86Z" fill="white"/>
<path d="M78.0891 267.407V271.089C78.0891 272.523 77.4889 273.553 76.2885 274.18C77.4889 274.807 78.0891 275.846 78.0891 277.297V280.979C78.0891 282.162 78.7252 282.753 79.9973 282.753H81.2066V285.252H79.6748C78.3848 285.252 77.3366 284.912 76.5304 284.231C75.7421 283.55 75.3479 282.556 75.3479 281.248V277.7C75.3479 277.002 75.0971 276.437 74.5954 276.007C74.1116 275.577 73.4577 275.344 72.6335 275.309V273.051C73.4577 273.015 74.1116 272.782 74.5954 272.352C75.0971 271.922 75.3479 271.358 75.3479 270.659V267.139C75.3479 265.831 75.7421 264.836 76.5304 264.155C77.3366 263.475 78.3848 263.134 79.6748 263.134H81.2066V265.634H79.9973C78.7252 265.634 78.0891 266.225 78.0891 267.407ZM82.3904 268.429H94.5648V280.979H91.716V270.928H85.2392V280.979H82.3904V268.429ZM102.505 268.079C104.369 268.079 105.865 268.518 106.994 269.396C108.122 270.274 108.687 271.501 108.687 273.078V280.979H105.838V279.824C104.888 280.827 103.482 281.329 101.619 281.329C100.078 281.329 98.8505 280.97 97.9367 280.254C97.0409 279.519 96.593 278.471 96.593 277.109C96.593 276.124 96.8707 275.326 97.4261 274.717C97.9995 274.09 98.6892 273.66 99.4955 273.427C100.32 273.194 101.26 273.078 102.317 273.078H105.838C105.838 272.272 105.533 271.68 104.924 271.304C104.315 270.91 103.518 270.713 102.532 270.713C100.83 270.713 99.7642 271.25 99.3342 272.325H96.2974C96.6557 270.964 97.3992 269.916 98.528 269.181C99.6747 268.446 101 268.079 102.505 268.079ZM105.838 276.034V275.362H102.29C100.391 275.362 99.4417 275.945 99.4417 277.109C99.4417 277.683 99.6747 278.13 100.14 278.453C100.606 278.758 101.251 278.91 102.075 278.91C103.186 278.91 104.091 278.659 104.79 278.157C105.489 277.638 105.838 276.93 105.838 276.034ZM114.02 286.462H111.171V268.429H114.02V269.584C114.969 268.581 116.286 268.079 117.97 268.079C119.923 268.079 121.473 268.733 122.62 270.041C123.784 271.331 124.366 272.881 124.366 274.69C124.366 276.518 123.784 278.086 122.62 279.394C121.473 280.684 119.923 281.329 117.97 281.329C116.286 281.329 114.969 280.827 114.02 279.824V286.462ZM115.041 271.761C114.288 272.442 113.912 273.418 113.912 274.69C113.912 275.963 114.288 276.948 115.041 277.647C115.811 278.345 116.725 278.695 117.782 278.695C118.875 278.695 119.771 278.31 120.47 277.539C121.168 276.751 121.518 275.801 121.518 274.69C121.518 273.598 121.168 272.666 120.47 271.895C119.771 271.107 118.875 270.713 117.782 270.713C116.725 270.713 115.811 271.062 115.041 271.761ZM131.522 268.079C133.385 268.079 134.881 268.518 136.01 269.396C137.139 270.274 137.703 271.501 137.703 273.078V280.979H134.855V279.824C133.905 280.827 132.499 281.329 130.635 281.329C129.094 281.329 127.867 280.97 126.953 280.254C126.058 279.519 125.61 278.471 125.61 277.109C125.61 276.124 125.887 275.326 126.443 274.717C127.016 274.09 127.706 273.66 128.512 273.427C129.336 273.194 130.277 273.078 131.334 273.078H134.855C134.855 272.272 134.55 271.68 133.941 271.304C133.332 270.91 132.534 270.713 131.549 270.713C129.847 270.713 128.781 271.25 128.351 272.325H125.314C125.672 270.964 126.416 269.916 127.545 269.181C128.691 268.446 130.017 268.079 131.522 268.079ZM134.855 276.034V275.362H131.307C129.408 275.362 128.458 275.945 128.458 277.109C128.458 277.683 128.691 278.13 129.157 278.453C129.623 278.758 130.268 278.91 131.092 278.91C132.203 278.91 133.108 278.659 133.806 278.157C134.505 277.638 134.855 276.93 134.855 276.034ZM143.52 268.429L148.008 277.915L152.523 268.429H155.775V280.979H152.926V273.589L149.379 280.979H146.584L143.036 273.589V280.979H140.187V268.429H143.52ZM164.44 278.695C165.802 278.695 166.787 278.238 167.396 277.324H170.487C170.021 278.56 169.242 279.537 168.149 280.254C167.056 280.97 165.82 281.329 164.44 281.329C162.523 281.329 160.928 280.701 159.656 279.447C158.384 278.193 157.748 276.608 157.748 274.69C157.748 272.809 158.366 271.241 159.602 269.987C160.839 268.715 162.406 268.079 164.306 268.079C166.151 268.079 167.674 268.706 168.874 269.96C170.075 271.197 170.675 272.738 170.675 274.583C170.675 275.156 170.657 275.533 170.621 275.712H160.704C160.866 276.608 161.287 277.333 161.967 277.889C162.666 278.426 163.49 278.695 164.44 278.695ZM164.306 270.632C163.374 270.632 162.577 270.892 161.914 271.412C161.269 271.913 160.884 272.585 160.758 273.427H167.665C167.522 272.567 167.145 271.886 166.536 271.385C165.945 270.883 165.201 270.632 164.306 270.632ZM170.848 270.928V268.429H183.237V270.928H178.453V280.979H175.605V270.928H170.848ZM187.296 286.462H184.447V268.429H187.296V269.584C188.245 268.581 189.562 268.079 191.247 268.079C193.199 268.079 194.749 268.733 195.896 270.041C197.06 271.331 197.643 272.881 197.643 274.69C197.643 276.518 197.06 278.086 195.896 279.394C194.749 280.684 193.199 281.329 191.247 281.329C189.562 281.329 188.245 280.827 187.296 279.824V286.462ZM188.317 271.761C187.565 272.442 187.188 273.418 187.188 274.69C187.188 275.963 187.565 276.948 188.317 277.647C189.088 278.345 190.001 278.695 191.058 278.695C192.151 278.695 193.047 278.31 193.746 277.539C194.445 276.751 194.794 275.801 194.794 274.69C194.794 273.598 194.445 272.666 193.746 271.895C193.047 271.107 192.151 270.713 191.058 270.713C190.001 270.713 189.088 271.062 188.317 271.761ZM215.272 280.979L210.542 274.395L205.812 280.979H202.507L208.876 272.084L202.507 263.134H205.92L210.596 269.692L215.299 263.134H218.659L212.262 272.03L218.659 280.979H215.272ZM221.29 271.089V267.407C221.29 266.225 220.654 265.634 219.382 265.634H218.172V263.134H219.704C220.994 263.134 222.033 263.475 222.822 264.155C223.628 264.836 224.031 265.831 224.031 267.139V270.659C224.031 271.358 224.273 271.922 224.757 272.352C225.258 272.782 225.921 273.015 226.745 273.051V275.309C225.921 275.344 225.258 275.577 224.757 276.007C224.273 276.437 224.031 277.002 224.031 277.7V281.248C224.031 282.556 223.628 283.55 222.822 284.231C222.033 284.912 220.994 285.252 219.704 285.252H218.172V282.753H219.382C220.654 282.753 221.29 282.162 221.29 280.979V277.297C221.29 275.846 221.89 274.807 223.09 274.18C221.89 273.553 221.29 272.523 221.29 271.089Z" fill="white"/>
</g>
<defs>
<filter id="filter0_f_277_16" x="-292.689" y="-143.666" width="1451.8" height="1069.65" filterUnits="userSpaceOnUse" color-interpolation-filters="sRGB">
<feFlood flood-opacity="0" result="BackgroundImageFix"/>
<feBlend mode="normal" in="SourceGraphic" in2="BackgroundImageFix" result="shape"/>
<feGaussianBlur stdDeviation="181.406" result="effect1_foregroundBlur_277_16"/>
</filter>
<clipPath id="clip0_277_16">
<rect width="860" height="360" fill="white" transform="translate(0 0.052063)"/>
</clipPath>
</defs>
</svg>
