<svg width="854" height="235" viewBox="0 0 854 235" fill="none" xmlns="http://www.w3.org/2000/svg">
<g clip-path="url(#clip0_301_20290)">
<rect width="1366" height="254" transform="translate(-51)" fill="white"/>
<path d="M71 0.5H787C793.351 0.5 798.5 5.64873 798.5 12V92C798.5 98.3513 793.351 103.5 787 103.5H71C64.6487 103.5 59.5 98.3513 59.5 92V12C59.5 5.64873 64.6487 0.5 71 0.5Z" stroke="#DEDEDE" stroke-opacity="0.6"/>
<g filter="url(#filter0_d_301_20290)">
<path fill-rule="evenodd" clip-rule="evenodd" d="M59 134C59 131.791 60.7909 130 63 130H71C73.2091 130 75 131.791 75 134V142C75 144.209 73.2091 146 71 146H63C60.7909 146 59 144.209 59 142V134Z" fill="#5392F7"/>
<path d="M63 130.5H71C72.933 130.5 74.5 132.067 74.5 134V142C74.5 143.933 72.933 145.5 71 145.5H63C61.067 145.5 59.5 143.933 59.5 142V134C59.5 132.067 61.067 130.5 63 130.5Z" stroke="#2473F5"/>
</g>
<path fill-rule="evenodd" clip-rule="evenodd" d="M65.268 141.858L62.1311 138.441C61.9563 138.253 61.9563 137.947 62.1311 137.757L62.7647 137.074C62.9395 136.886 63.2236 136.886 63.3984 137.074L65.5853 139.466L70.4601 134.141C70.6349 133.953 70.919 133.953 71.0938 134.141L71.7275 134.825C71.9022 135.013 71.9022 135.32 71.7275 135.507L65.9017 141.858C65.7269 142.046 65.4428 142.046 65.268 141.858" fill="white"/>
<path d="M94.3864 139.182C94.3864 140.424 94.1591 141.492 93.7045 142.386C93.25 143.277 92.6269 143.962 91.8352 144.443C91.0473 144.92 90.1515 145.159 89.1477 145.159C88.1402 145.159 87.2405 144.92 86.4489 144.443C85.661 143.962 85.0398 143.275 84.5852 142.381C84.1307 141.487 83.9034 140.42 83.9034 139.182C83.9034 137.939 84.1307 136.873 84.5852 135.983C85.0398 135.089 85.661 134.403 86.4489 133.926C87.2405 133.445 88.1402 133.205 89.1477 133.205C90.1515 133.205 91.0473 133.445 91.8352 133.926C92.6269 134.403 93.25 135.089 93.7045 135.983C94.1591 136.873 94.3864 137.939 94.3864 139.182ZM92.6477 139.182C92.6477 138.235 92.4943 137.437 92.1875 136.79C91.8845 136.138 91.4678 135.646 90.9375 135.312C90.411 134.975 89.8144 134.807 89.1477 134.807C88.4773 134.807 87.8788 134.975 87.3523 135.312C86.8258 135.646 86.4091 136.138 86.1023 136.79C85.7992 137.437 85.6477 138.235 85.6477 139.182C85.6477 140.129 85.7992 140.928 86.1023 141.58C86.4091 142.227 86.8258 142.72 87.3523 143.057C87.8788 143.39 88.4773 143.557 89.1477 143.557C89.8144 143.557 90.411 143.39 90.9375 143.057C91.4678 142.72 91.8845 142.227 92.1875 141.58C92.4943 140.928 92.6477 140.129 92.6477 139.182ZM95.9503 137.739V136.273H103.314V137.739H100.467V145H98.8082V137.739H95.9503ZM105.111 145V136.273H112.23V145H110.565V137.739H106.764V145H105.111ZM114.501 148.273V136.273H116.161V137.688H116.303C116.401 137.506 116.543 137.295 116.729 137.057C116.914 136.818 117.172 136.61 117.501 136.432C117.831 136.25 118.267 136.159 118.808 136.159C119.513 136.159 120.142 136.337 120.695 136.693C121.248 137.049 121.681 137.562 121.996 138.233C122.314 138.903 122.473 139.71 122.473 140.653C122.473 141.597 122.316 142.405 122.001 143.08C121.687 143.75 121.255 144.267 120.706 144.631C120.157 144.991 119.53 145.17 118.825 145.17C118.295 145.17 117.861 145.081 117.524 144.903C117.191 144.725 116.929 144.517 116.74 144.278C116.551 144.04 116.405 143.828 116.303 143.642H116.2V148.273H114.501ZM116.166 140.636C116.166 141.25 116.255 141.788 116.433 142.25C116.611 142.712 116.869 143.074 117.206 143.335C117.543 143.593 117.956 143.722 118.445 143.722C118.952 143.722 119.376 143.587 119.717 143.318C120.058 143.045 120.316 142.676 120.49 142.21C120.668 141.744 120.757 141.22 120.757 140.636C120.757 140.061 120.67 139.544 120.496 139.085C120.325 138.627 120.068 138.265 119.723 138C119.382 137.735 118.956 137.602 118.445 137.602C117.952 137.602 117.536 137.729 117.195 137.983C116.857 138.237 116.602 138.591 116.428 139.045C116.253 139.5 116.166 140.03 116.166 140.636ZM126.916 145.193C126.363 145.193 125.863 145.091 125.416 144.886C124.969 144.678 124.615 144.377 124.354 143.983C124.096 143.589 123.967 143.106 123.967 142.534C123.967 142.042 124.062 141.636 124.251 141.318C124.441 141 124.696 140.748 125.018 140.562C125.34 140.377 125.7 140.237 126.098 140.142C126.496 140.047 126.901 139.975 127.314 139.926C127.837 139.866 128.261 139.816 128.587 139.778C128.912 139.737 129.149 139.67 129.297 139.58C129.445 139.489 129.518 139.341 129.518 139.136V139.097C129.518 138.6 129.378 138.216 129.098 137.943C128.821 137.67 128.409 137.534 127.859 137.534C127.287 137.534 126.837 137.661 126.507 137.915C126.181 138.165 125.956 138.443 125.831 138.75L124.234 138.386C124.424 137.856 124.7 137.428 125.064 137.102C125.431 136.773 125.854 136.534 126.331 136.386C126.808 136.235 127.31 136.159 127.837 136.159C128.185 136.159 128.554 136.201 128.945 136.284C129.339 136.364 129.706 136.511 130.047 136.727C130.392 136.943 130.674 137.252 130.893 137.653C131.113 138.051 131.223 138.568 131.223 139.205V145H129.564V143.807H129.496C129.386 144.027 129.221 144.242 129.001 144.455C128.782 144.667 128.5 144.843 128.155 144.983C127.81 145.123 127.397 145.193 126.916 145.193ZM127.286 143.83C127.755 143.83 128.157 143.737 128.49 143.551C128.827 143.366 129.083 143.123 129.257 142.824C129.435 142.521 129.524 142.197 129.524 141.852V140.727C129.464 140.788 129.346 140.845 129.172 140.898C129.001 140.947 128.806 140.991 128.587 141.028C128.367 141.062 128.153 141.095 127.945 141.125C127.736 141.152 127.562 141.174 127.422 141.193C127.092 141.235 126.791 141.305 126.518 141.403C126.25 141.502 126.034 141.644 125.871 141.83C125.712 142.011 125.632 142.254 125.632 142.557C125.632 142.977 125.787 143.295 126.098 143.511C126.409 143.723 126.804 143.83 127.286 143.83ZM133.486 145V136.273H137.105C138.09 136.273 138.87 136.483 139.446 136.903C140.022 137.32 140.31 137.886 140.31 138.602C140.31 139.114 140.147 139.519 139.821 139.818C139.495 140.117 139.063 140.318 138.526 140.42C138.916 140.466 139.274 140.583 139.599 140.773C139.925 140.958 140.187 141.208 140.384 141.523C140.584 141.837 140.685 142.212 140.685 142.648C140.685 143.11 140.565 143.519 140.327 143.875C140.088 144.227 139.741 144.504 139.287 144.705C138.836 144.902 138.293 145 137.656 145H133.486ZM135.082 143.58H137.656C138.077 143.58 138.406 143.479 138.645 143.278C138.884 143.078 139.003 142.805 139.003 142.46C139.003 142.055 138.884 141.737 138.645 141.506C138.406 141.271 138.077 141.153 137.656 141.153H135.082V143.58ZM135.082 139.909H137.122C137.44 139.909 137.713 139.864 137.94 139.773C138.171 139.682 138.348 139.553 138.469 139.386C138.594 139.216 138.656 139.015 138.656 138.784C138.656 138.447 138.518 138.184 138.241 137.994C137.965 137.805 137.586 137.71 137.105 137.71H135.082V139.909ZM144.213 142.619L148.06 136.273H149.889V145H148.224V138.648L144.395 145H142.548V136.273H144.213V142.619ZM151.091 137.739V136.273H158.455V137.739H155.608V145H153.949V137.739H151.091ZM161.53 139.273H164.064C165.132 139.273 165.954 139.538 166.53 140.068C167.106 140.598 167.393 141.282 167.393 142.119C167.393 142.665 167.265 143.155 167.007 143.591C166.75 144.027 166.373 144.371 165.876 144.625C165.38 144.875 164.776 145 164.064 145H160.251V136.273H161.916V143.534H164.064C164.553 143.534 164.954 143.407 165.268 143.153C165.583 142.896 165.74 142.568 165.74 142.17C165.74 141.75 165.583 141.407 165.268 141.142C164.954 140.873 164.553 140.739 164.064 140.739H161.53V139.273ZM173.533 145V136.273H180.652V145H178.987V137.739H175.186V145H173.533ZM186.599 145.176C185.781 145.176 185.067 144.989 184.457 144.614C183.848 144.239 183.374 143.714 183.037 143.04C182.7 142.366 182.531 141.578 182.531 140.676C182.531 139.771 182.7 138.979 183.037 138.301C183.374 137.623 183.848 137.097 184.457 136.722C185.067 136.347 185.781 136.159 186.599 136.159C187.418 136.159 188.132 136.347 188.741 136.722C189.351 137.097 189.825 137.623 190.162 138.301C190.499 138.979 190.668 139.771 190.668 140.676C190.668 141.578 190.499 142.366 190.162 143.04C189.825 143.714 189.351 144.239 188.741 144.614C188.132 144.989 187.418 145.176 186.599 145.176ZM186.605 143.75C187.135 143.75 187.575 143.61 187.923 143.33C188.272 143.049 188.529 142.676 188.696 142.21C188.866 141.744 188.952 141.231 188.952 140.67C188.952 140.114 188.866 139.602 188.696 139.136C188.529 138.667 188.272 138.29 187.923 138.006C187.575 137.722 187.135 137.58 186.605 137.58C186.071 137.58 185.628 137.722 185.276 138.006C184.927 138.29 184.668 138.667 184.497 139.136C184.33 139.602 184.247 140.114 184.247 140.67C184.247 141.231 184.33 141.744 184.497 142.21C184.668 142.676 184.927 143.049 185.276 143.33C185.628 143.61 186.071 143.75 186.605 143.75ZM192.564 145V136.273H194.263V139.932H195.081L197.962 136.273H200.064L196.683 140.517L200.104 145H197.996L195.365 141.511H194.263V145H192.564ZM202.544 148.273C202.29 148.273 202.059 148.252 201.851 148.21C201.643 148.172 201.487 148.131 201.385 148.085L201.794 146.693C202.105 146.777 202.381 146.813 202.624 146.801C202.866 146.79 203.08 146.699 203.266 146.528C203.455 146.358 203.622 146.08 203.766 145.693L203.976 145.114L200.783 136.273H202.601L204.811 143.045H204.902L207.112 136.273H208.936L205.339 146.165C205.173 146.619 204.961 147.004 204.703 147.318C204.446 147.636 204.139 147.875 203.783 148.034C203.427 148.193 203.014 148.273 202.544 148.273ZM210.533 145V136.273H217.652V145H215.987V137.739H212.186V145H210.533ZM222.463 145.193C221.91 145.193 221.41 145.091 220.963 144.886C220.516 144.678 220.162 144.377 219.901 143.983C219.643 143.589 219.514 143.106 219.514 142.534C219.514 142.042 219.609 141.636 219.798 141.318C219.988 141 220.243 140.748 220.565 140.562C220.887 140.377 221.247 140.237 221.645 140.142C222.043 140.047 222.448 139.975 222.861 139.926C223.384 139.866 223.808 139.816 224.134 139.778C224.459 139.737 224.696 139.67 224.844 139.58C224.991 139.489 225.065 139.341 225.065 139.136V139.097C225.065 138.6 224.925 138.216 224.645 137.943C224.368 137.67 223.955 137.534 223.406 137.534C222.834 137.534 222.384 137.661 222.054 137.915C221.728 138.165 221.503 138.443 221.378 138.75L219.781 138.386C219.971 137.856 220.247 137.428 220.611 137.102C220.978 136.773 221.401 136.534 221.878 136.386C222.355 136.235 222.857 136.159 223.384 136.159C223.732 136.159 224.101 136.201 224.491 136.284C224.885 136.364 225.253 136.511 225.594 136.727C225.938 136.943 226.221 137.252 226.44 137.653C226.66 138.051 226.77 138.568 226.77 139.205V145H225.111V143.807H225.043C224.933 144.027 224.768 144.242 224.548 144.455C224.329 144.667 224.046 144.843 223.702 144.983C223.357 145.123 222.944 145.193 222.463 145.193ZM222.832 143.83C223.302 143.83 223.704 143.737 224.037 143.551C224.374 143.366 224.63 143.123 224.804 142.824C224.982 142.521 225.071 142.197 225.071 141.852V140.727C225.01 140.788 224.893 140.845 224.719 140.898C224.548 140.947 224.353 140.991 224.134 141.028C223.914 141.062 223.7 141.095 223.491 141.125C223.283 141.152 223.109 141.174 222.969 141.193C222.639 141.235 222.338 141.305 222.065 141.403C221.796 141.502 221.58 141.644 221.418 141.83C221.259 142.011 221.179 142.254 221.179 142.557C221.179 142.977 221.334 143.295 221.645 143.511C221.955 143.723 222.351 143.83 222.832 143.83ZM227.95 137.739V136.273H235.314V137.739H232.467V145H230.808V137.739H227.95ZM240.466 145.176C239.606 145.176 238.866 144.992 238.244 144.625C237.627 144.254 237.15 143.733 236.812 143.062C236.479 142.388 236.312 141.598 236.312 140.693C236.312 139.799 236.479 139.011 236.812 138.33C237.15 137.648 237.619 137.116 238.222 136.733C238.828 136.35 239.536 136.159 240.347 136.159C240.839 136.159 241.316 136.241 241.778 136.403C242.241 136.566 242.655 136.822 243.023 137.17C243.39 137.519 243.68 137.972 243.892 138.528C244.104 139.081 244.21 139.754 244.21 140.545V141.148H237.273V139.875H242.545C242.545 139.428 242.455 139.032 242.273 138.688C242.091 138.339 241.835 138.064 241.506 137.864C241.18 137.663 240.797 137.562 240.358 137.562C239.881 137.562 239.464 137.68 239.108 137.915C238.756 138.146 238.483 138.449 238.29 138.824C238.1 139.195 238.006 139.598 238.006 140.034V141.028C238.006 141.612 238.108 142.108 238.312 142.517C238.521 142.926 238.811 143.239 239.182 143.455C239.553 143.667 239.987 143.773 240.483 143.773C240.805 143.773 241.098 143.727 241.364 143.636C241.629 143.542 241.858 143.402 242.051 143.216C242.244 143.03 242.392 142.801 242.494 142.528L244.102 142.818C243.973 143.292 243.742 143.706 243.409 144.062C243.08 144.415 242.665 144.689 242.165 144.886C241.669 145.08 241.102 145.176 240.466 145.176ZM245.408 145L245.402 143.528H245.714C245.957 143.528 246.16 143.477 246.322 143.375C246.489 143.269 246.625 143.091 246.732 142.841C246.838 142.591 246.919 142.246 246.976 141.807C247.033 141.364 247.074 140.807 247.101 140.136L247.254 136.273H253.345V145H251.68V137.739H248.828L248.692 140.705C248.658 141.424 248.584 142.053 248.47 142.591C248.36 143.129 248.199 143.578 247.987 143.938C247.775 144.294 247.502 144.561 247.169 144.739C246.836 144.913 246.43 145 245.953 145H245.408ZM260.003 139.966V141.443H255.349V139.966H260.003ZM256.73 136.273V145H255.031V136.273H256.73ZM262.662 145.176C261.851 145.176 261.143 144.987 260.537 144.608C259.931 144.229 259.461 143.703 259.128 143.028C258.795 142.35 258.628 141.564 258.628 140.67C258.628 139.769 258.795 138.981 259.128 138.307C259.461 137.629 259.931 137.102 260.537 136.727C261.143 136.348 261.851 136.159 262.662 136.159C263.476 136.159 264.185 136.348 264.787 136.727C265.393 137.102 265.863 137.629 266.196 138.307C266.533 138.981 266.702 139.769 266.702 140.67C266.702 141.564 266.533 142.35 266.196 143.028C265.863 143.703 265.393 144.229 264.787 144.608C264.185 144.987 263.476 145.176 262.662 145.176ZM262.662 143.722C263.211 143.722 263.66 143.583 264.009 143.307C264.361 143.027 264.62 142.655 264.787 142.193C264.954 141.731 265.037 141.223 265.037 140.67C265.037 140.114 264.954 139.604 264.787 139.142C264.62 138.676 264.361 138.303 264.009 138.023C263.66 137.742 263.211 137.602 262.662 137.602C262.116 137.602 261.668 137.742 261.315 138.023C260.963 138.303 260.704 138.676 260.537 139.142C260.37 139.604 260.287 140.114 260.287 140.67C260.287 141.223 260.37 141.731 260.537 142.193C260.704 142.655 260.963 143.027 261.315 143.307C261.668 143.583 262.116 143.722 262.662 143.722ZM272.939 145V136.273H280.058V145H278.393V137.739H274.592V145H272.939ZM283.994 142.619L287.841 136.273H289.67V145H288.006V138.648L284.176 145H282.33V136.273H283.994V142.619ZM295.631 145.176C294.786 145.176 294.059 144.985 293.449 144.602C292.843 144.216 292.377 143.684 292.051 143.006C291.725 142.328 291.562 141.551 291.562 140.676C291.562 139.79 291.729 139.008 292.062 138.33C292.396 137.648 292.866 137.116 293.472 136.733C294.078 136.35 294.792 136.159 295.614 136.159C296.277 136.159 296.867 136.282 297.386 136.528C297.905 136.771 298.324 137.112 298.642 137.551C298.964 137.991 299.155 138.504 299.216 139.091H297.562C297.472 138.682 297.263 138.33 296.938 138.034C296.616 137.739 296.184 137.591 295.642 137.591C295.169 137.591 294.754 137.716 294.398 137.966C294.045 138.212 293.771 138.564 293.574 139.023C293.377 139.477 293.278 140.015 293.278 140.636C293.278 141.273 293.375 141.822 293.568 142.284C293.761 142.746 294.034 143.104 294.386 143.358C294.742 143.612 295.161 143.739 295.642 143.739C295.964 143.739 296.256 143.68 296.517 143.562C296.782 143.441 297.004 143.269 297.182 143.045C297.364 142.822 297.491 142.553 297.562 142.239H299.216C299.155 142.803 298.972 143.307 298.665 143.75C298.358 144.193 297.947 144.542 297.432 144.795C296.92 145.049 296.32 145.176 295.631 145.176ZM302.311 139.273H304.845C305.913 139.273 306.735 139.538 307.311 140.068C307.887 140.598 308.175 141.282 308.175 142.119C308.175 142.665 308.046 143.155 307.788 143.591C307.531 144.027 307.154 144.371 306.658 144.625C306.161 144.875 305.557 145 304.845 145H301.033V136.273H302.697V143.534H304.845C305.334 143.534 305.735 143.407 306.05 143.153C306.364 142.896 306.521 142.568 306.521 142.17C306.521 141.75 306.364 141.407 306.05 141.142C305.735 140.873 305.334 140.739 304.845 140.739H302.311V139.273ZM314.977 142.898L317.795 136.273H319.261L315.608 145H314.347L310.767 136.273H312.216L314.977 142.898ZM311.744 136.273V145H310.08V136.273H311.744ZM318.256 145V136.273H319.909V145H318.256ZM325.849 145.176C325.031 145.176 324.317 144.989 323.707 144.614C323.098 144.239 322.624 143.714 322.287 143.04C321.95 142.366 321.781 141.578 321.781 140.676C321.781 139.771 321.95 138.979 322.287 138.301C322.624 137.623 323.098 137.097 323.707 136.722C324.317 136.347 325.031 136.159 325.849 136.159C326.668 136.159 327.382 136.347 327.991 136.722C328.601 137.097 329.075 137.623 329.412 138.301C329.749 138.979 329.918 139.771 329.918 140.676C329.918 141.578 329.749 142.366 329.412 143.04C329.075 143.714 328.601 144.239 327.991 144.614C327.382 144.989 326.668 145.176 325.849 145.176ZM325.855 143.75C326.385 143.75 326.825 143.61 327.173 143.33C327.522 143.049 327.779 142.676 327.946 142.21C328.116 141.744 328.202 141.231 328.202 140.67C328.202 140.114 328.116 139.602 327.946 139.136C327.779 138.667 327.522 138.29 327.173 138.006C326.825 137.722 326.385 137.58 325.855 137.58C325.321 137.58 324.878 137.722 324.526 138.006C324.177 138.29 323.918 138.667 323.747 139.136C323.58 139.602 323.497 140.114 323.497 140.67C323.497 141.231 323.58 141.744 323.747 142.21C323.918 142.676 324.177 143.049 324.526 143.33C324.878 143.61 325.321 143.75 325.855 143.75ZM339.724 145.176C338.906 145.176 338.192 144.989 337.582 144.614C336.973 144.239 336.499 143.714 336.162 143.04C335.825 142.366 335.656 141.578 335.656 140.676C335.656 139.771 335.825 138.979 336.162 138.301C336.499 137.623 336.973 137.097 337.582 136.722C338.192 136.347 338.906 136.159 339.724 136.159C340.543 136.159 341.257 136.347 341.866 136.722C342.476 137.097 342.95 137.623 343.287 138.301C343.624 138.979 343.793 139.771 343.793 140.676C343.793 141.578 343.624 142.366 343.287 143.04C342.95 143.714 342.476 144.239 341.866 144.614C341.257 144.989 340.543 145.176 339.724 145.176ZM339.73 143.75C340.26 143.75 340.7 143.61 341.048 143.33C341.397 143.049 341.654 142.676 341.821 142.21C341.991 141.744 342.077 141.231 342.077 140.67C342.077 140.114 341.991 139.602 341.821 139.136C341.654 138.667 341.397 138.29 341.048 138.006C340.7 137.722 340.26 137.58 339.73 137.58C339.196 137.58 338.753 137.722 338.401 138.006C338.052 138.29 337.793 138.667 337.622 139.136C337.455 139.602 337.372 140.114 337.372 140.67C337.372 141.231 337.455 141.744 337.622 142.21C337.793 142.676 338.052 143.049 338.401 143.33C338.753 143.61 339.196 143.75 339.73 143.75ZM349.923 148.273V136.273H351.582V137.688H351.724C351.823 137.506 351.965 137.295 352.151 137.057C352.336 136.818 352.594 136.61 352.923 136.432C353.253 136.25 353.688 136.159 354.23 136.159C354.935 136.159 355.563 136.337 356.116 136.693C356.67 137.049 357.103 137.562 357.418 138.233C357.736 138.903 357.895 139.71 357.895 140.653C357.895 141.597 357.738 142.405 357.423 143.08C357.109 143.75 356.677 144.267 356.128 144.631C355.579 144.991 354.952 145.17 354.247 145.17C353.717 145.17 353.283 145.081 352.946 144.903C352.613 144.725 352.351 144.517 352.162 144.278C351.973 144.04 351.827 143.828 351.724 143.642H351.622V148.273H349.923ZM351.588 140.636C351.588 141.25 351.677 141.788 351.855 142.25C352.033 142.712 352.291 143.074 352.628 143.335C352.965 143.593 353.378 143.722 353.866 143.722C354.374 143.722 354.798 143.587 355.139 143.318C355.48 143.045 355.738 142.676 355.912 142.21C356.09 141.744 356.179 141.22 356.179 140.636C356.179 140.061 356.092 139.544 355.918 139.085C355.747 138.627 355.49 138.265 355.145 138C354.804 137.735 354.378 137.602 353.866 137.602C353.374 137.602 352.957 137.729 352.616 137.983C352.279 138.237 352.024 138.591 351.849 139.045C351.675 139.5 351.588 140.03 351.588 140.636ZM363.56 145.176C362.7 145.176 361.959 144.992 361.338 144.625C360.721 144.254 360.243 143.733 359.906 143.062C359.573 142.388 359.406 141.598 359.406 140.693C359.406 139.799 359.573 139.011 359.906 138.33C360.243 137.648 360.713 137.116 361.315 136.733C361.921 136.35 362.63 136.159 363.44 136.159C363.933 136.159 364.41 136.241 364.872 136.403C365.334 136.566 365.749 136.822 366.116 137.17C366.484 137.519 366.774 137.972 366.986 138.528C367.198 139.081 367.304 139.754 367.304 140.545V141.148H360.366V139.875H365.639C365.639 139.428 365.548 139.032 365.366 138.688C365.185 138.339 364.929 138.064 364.599 137.864C364.274 137.663 363.891 137.562 363.452 137.562C362.974 137.562 362.558 137.68 362.202 137.915C361.849 138.146 361.577 138.449 361.384 138.824C361.194 139.195 361.099 139.598 361.099 140.034V141.028C361.099 141.612 361.202 142.108 361.406 142.517C361.615 142.926 361.904 143.239 362.276 143.455C362.647 143.667 363.08 143.773 363.577 143.773C363.899 143.773 364.192 143.727 364.457 143.636C364.723 143.542 364.952 143.402 365.145 143.216C365.338 143.03 365.486 142.801 365.588 142.528L367.196 142.818C367.067 143.292 366.836 143.706 366.503 144.062C366.173 144.415 365.759 144.689 365.259 144.886C364.762 145.08 364.196 145.176 363.56 145.176ZM369.189 136.273H370.854V143.528H373.871V136.273H375.536V143.528H378.553V136.273H380.217V145H369.189V136.273ZM386.247 145.176C385.387 145.176 384.647 144.992 384.026 144.625C383.408 144.254 382.931 143.733 382.594 143.062C382.26 142.388 382.094 141.598 382.094 140.693C382.094 139.799 382.26 139.011 382.594 138.33C382.931 137.648 383.401 137.116 384.003 136.733C384.609 136.35 385.317 136.159 386.128 136.159C386.62 136.159 387.098 136.241 387.56 136.403C388.022 136.566 388.437 136.822 388.804 137.17C389.171 137.519 389.461 137.972 389.673 138.528C389.885 139.081 389.991 139.754 389.991 140.545V141.148H383.054V139.875H388.327C388.327 139.428 388.236 139.032 388.054 138.688C387.872 138.339 387.616 138.064 387.287 137.864C386.961 137.663 386.579 137.562 386.139 137.562C385.662 137.562 385.245 137.68 384.889 137.915C384.537 138.146 384.264 138.449 384.071 138.824C383.882 139.195 383.787 139.598 383.787 140.034V141.028C383.787 141.612 383.889 142.108 384.094 142.517C384.302 142.926 384.592 143.239 384.963 143.455C385.334 143.667 385.768 143.773 386.264 143.773C386.586 143.773 386.88 143.727 387.145 143.636C387.41 143.542 387.639 143.402 387.832 143.216C388.026 143.03 388.173 142.801 388.276 142.528L389.884 142.818C389.755 143.292 389.524 143.706 389.19 144.062C388.861 144.415 388.446 144.689 387.946 144.886C387.45 145.08 386.884 145.176 386.247 145.176ZM397.791 139.903V141.375H393.064V139.903H397.791ZM393.541 136.273V145H391.876V136.273H393.541ZM398.979 136.273V145H397.32V136.273H398.979ZM402.916 142.619L406.763 136.273H408.592V145H406.928V138.648L403.098 145H401.251V136.273H402.916V142.619ZM412.541 142.619L416.388 136.273H418.217V145H416.553V138.648L412.723 145H410.876V136.273H412.541V142.619ZM424.872 145V133.364H429.02C429.925 133.364 430.675 133.528 431.27 133.858C431.865 134.187 432.31 134.638 432.605 135.21C432.901 135.778 433.048 136.419 433.048 137.131C433.048 137.847 432.899 138.491 432.599 139.062C432.304 139.631 431.857 140.081 431.259 140.415C430.664 140.744 429.916 140.909 429.014 140.909H426.162V139.42H428.855C429.427 139.42 429.891 139.322 430.247 139.125C430.603 138.924 430.865 138.652 431.031 138.307C431.198 137.962 431.281 137.57 431.281 137.131C431.281 136.691 431.198 136.301 431.031 135.96C430.865 135.619 430.601 135.352 430.241 135.159C429.885 134.966 429.416 134.869 428.832 134.869H426.628V145H424.872ZM438.537 145.176C437.719 145.176 437.005 144.989 436.395 144.614C435.785 144.239 435.312 143.714 434.974 143.04C434.637 142.366 434.469 141.578 434.469 140.676C434.469 139.771 434.637 138.979 434.974 138.301C435.312 137.623 435.785 137.097 436.395 136.722C437.005 136.347 437.719 136.159 438.537 136.159C439.355 136.159 440.069 136.347 440.679 136.722C441.289 137.097 441.762 137.623 442.099 138.301C442.437 138.979 442.605 139.771 442.605 140.676C442.605 141.578 442.437 142.366 442.099 143.04C441.762 143.714 441.289 144.239 440.679 144.614C440.069 144.989 439.355 145.176 438.537 145.176ZM438.543 143.75C439.073 143.75 439.512 143.61 439.861 143.33C440.209 143.049 440.467 142.676 440.634 142.21C440.804 141.744 440.889 141.231 440.889 140.67C440.889 140.114 440.804 139.602 440.634 139.136C440.467 138.667 440.209 138.29 439.861 138.006C439.512 137.722 439.073 137.58 438.543 137.58C438.009 137.58 437.565 137.722 437.213 138.006C436.865 138.29 436.605 138.667 436.435 139.136C436.268 139.602 436.185 140.114 436.185 140.67C436.185 141.231 436.268 141.744 436.435 142.21C436.605 142.676 436.865 143.049 437.213 143.33C437.565 143.61 438.009 143.75 438.543 143.75ZM448.178 145.176C447.333 145.176 446.606 144.985 445.996 144.602C445.39 144.216 444.924 143.684 444.598 143.006C444.272 142.328 444.109 141.551 444.109 140.676C444.109 139.79 444.276 139.008 444.609 138.33C444.943 137.648 445.412 137.116 446.018 136.733C446.625 136.35 447.339 136.159 448.161 136.159C448.823 136.159 449.414 136.282 449.933 136.528C450.452 136.771 450.871 137.112 451.189 137.551C451.511 137.991 451.702 138.504 451.763 139.091H450.109C450.018 138.682 449.81 138.33 449.484 138.034C449.162 137.739 448.731 137.591 448.189 137.591C447.715 137.591 447.301 137.716 446.945 137.966C446.592 138.212 446.318 138.564 446.121 139.023C445.924 139.477 445.825 140.015 445.825 140.636C445.825 141.273 445.922 141.822 446.115 142.284C446.308 142.746 446.581 143.104 446.933 143.358C447.289 143.612 447.708 143.739 448.189 143.739C448.511 143.739 448.803 143.68 449.064 143.562C449.329 143.441 449.551 143.269 449.729 143.045C449.911 142.822 450.037 142.553 450.109 142.239H451.763C451.702 142.803 451.518 143.307 451.212 143.75C450.905 144.193 450.494 144.542 449.979 144.795C449.467 145.049 448.867 145.176 448.178 145.176ZM453.58 148.273V136.273H455.239V137.688H455.381C455.479 137.506 455.621 137.295 455.807 137.057C455.992 136.818 456.25 136.61 456.58 136.432C456.909 136.25 457.345 136.159 457.886 136.159C458.591 136.159 459.22 136.337 459.773 136.693C460.326 137.049 460.759 137.562 461.074 138.233C461.392 138.903 461.551 139.71 461.551 140.653C461.551 141.597 461.394 142.405 461.08 143.08C460.765 143.75 460.333 144.267 459.784 144.631C459.235 144.991 458.608 145.17 457.903 145.17C457.373 145.17 456.939 145.081 456.602 144.903C456.269 144.725 456.008 144.517 455.818 144.278C455.629 144.04 455.483 143.828 455.381 143.642H455.278V148.273H453.58ZM455.244 140.636C455.244 141.25 455.333 141.788 455.511 142.25C455.689 142.712 455.947 143.074 456.284 143.335C456.621 143.593 457.034 143.722 457.523 143.722C458.03 143.722 458.455 143.587 458.795 143.318C459.136 143.045 459.394 142.676 459.568 142.21C459.746 141.744 459.835 141.22 459.835 140.636C459.835 140.061 459.748 139.544 459.574 139.085C459.403 138.627 459.146 138.265 458.801 138C458.46 137.735 458.034 137.602 457.523 137.602C457.03 137.602 456.614 137.729 456.273 137.983C455.936 138.237 455.68 138.591 455.506 139.045C455.331 139.5 455.244 140.03 455.244 140.636ZM467.216 145.176C466.356 145.176 465.616 144.992 464.994 144.625C464.377 144.254 463.9 143.733 463.562 143.062C463.229 142.388 463.062 141.598 463.062 140.693C463.062 139.799 463.229 139.011 463.562 138.33C463.9 137.648 464.369 137.116 464.972 136.733C465.578 136.35 466.286 136.159 467.097 136.159C467.589 136.159 468.066 136.241 468.528 136.403C468.991 136.566 469.405 136.822 469.773 137.17C470.14 137.519 470.43 137.972 470.642 138.528C470.854 139.081 470.96 139.754 470.96 140.545V141.148H464.023V139.875H469.295C469.295 139.428 469.205 139.032 469.023 138.688C468.841 138.339 468.585 138.064 468.256 137.864C467.93 137.663 467.547 137.562 467.108 137.562C466.631 137.562 466.214 137.68 465.858 137.915C465.506 138.146 465.233 138.449 465.04 138.824C464.85 139.195 464.756 139.598 464.756 140.034V141.028C464.756 141.612 464.858 142.108 465.062 142.517C465.271 142.926 465.561 143.239 465.932 143.455C466.303 143.667 466.737 143.773 467.233 143.773C467.555 143.773 467.848 143.727 468.114 143.636C468.379 143.542 468.608 143.402 468.801 143.216C468.994 143.03 469.142 142.801 469.244 142.528L470.852 142.818C470.723 143.292 470.492 143.706 470.159 144.062C469.83 144.415 469.415 144.689 468.915 144.886C468.419 145.08 467.852 145.176 467.216 145.176ZM476.607 145.176C475.747 145.176 475.006 144.992 474.385 144.625C473.768 144.254 473.29 143.733 472.953 143.062C472.62 142.388 472.453 141.598 472.453 140.693C472.453 139.799 472.62 139.011 472.953 138.33C473.29 137.648 473.76 137.116 474.362 136.733C474.968 136.35 475.677 136.159 476.487 136.159C476.98 136.159 477.457 136.241 477.919 136.403C478.381 136.566 478.796 136.822 479.163 137.17C479.531 137.519 479.821 137.972 480.033 138.528C480.245 139.081 480.351 139.754 480.351 140.545V141.148H473.413V139.875H478.686C478.686 139.428 478.595 139.032 478.413 138.688C478.232 138.339 477.976 138.064 477.646 137.864C477.321 137.663 476.938 137.562 476.499 137.562C476.021 137.562 475.605 137.68 475.249 137.915C474.896 138.146 474.624 138.449 474.43 138.824C474.241 139.195 474.146 139.598 474.146 140.034V141.028C474.146 141.612 474.249 142.108 474.453 142.517C474.661 142.926 474.951 143.239 475.322 143.455C475.694 143.667 476.127 143.773 476.624 143.773C476.946 143.773 477.239 143.727 477.504 143.636C477.769 143.542 477.999 143.402 478.192 143.216C478.385 143.03 478.533 142.801 478.635 142.528L480.243 142.818C480.114 143.292 479.883 143.706 479.55 144.062C479.22 144.415 478.805 144.689 478.305 144.886C477.809 145.08 477.243 145.176 476.607 145.176ZM485.912 145.176C485.067 145.176 484.34 144.985 483.73 144.602C483.124 144.216 482.658 143.684 482.332 143.006C482.007 142.328 481.844 141.551 481.844 140.676C481.844 139.79 482.01 139.008 482.344 138.33C482.677 137.648 483.147 137.116 483.753 136.733C484.359 136.35 485.073 136.159 485.895 136.159C486.558 136.159 487.149 136.282 487.668 136.528C488.187 136.771 488.605 137.112 488.923 137.551C489.245 137.991 489.437 138.504 489.497 139.091H487.844C487.753 138.682 487.545 138.33 487.219 138.034C486.897 137.739 486.465 137.591 485.923 137.591C485.45 137.591 485.035 137.716 484.679 137.966C484.327 138.212 484.052 138.564 483.855 139.023C483.658 139.477 483.56 140.015 483.56 140.636C483.56 141.273 483.656 141.822 483.849 142.284C484.043 142.746 484.315 143.104 484.668 143.358C485.024 143.612 485.442 143.739 485.923 143.739C486.245 143.739 486.537 143.68 486.798 143.562C487.063 143.441 487.285 143.269 487.463 143.045C487.645 142.822 487.772 142.553 487.844 142.239H489.497C489.437 142.803 489.253 143.307 488.946 143.75C488.639 144.193 488.228 144.542 487.713 144.795C487.202 145.049 486.601 145.176 485.912 145.176ZM490.653 137.739V136.273H498.017V137.739H495.17V145H493.511V137.739H490.653ZM499.814 148.273V136.273H501.473V137.688H501.615C501.714 137.506 501.856 137.295 502.041 137.057C502.227 136.818 502.484 136.61 502.814 136.432C503.143 136.25 503.579 136.159 504.121 136.159C504.825 136.159 505.454 136.337 506.007 136.693C506.56 137.049 506.994 137.562 507.308 138.233C507.626 138.903 507.786 139.71 507.786 140.653C507.786 141.597 507.628 142.405 507.314 143.08C507 143.75 506.568 144.267 506.018 144.631C505.469 144.991 504.842 145.17 504.138 145.17C503.607 145.17 503.174 145.081 502.837 144.903C502.503 144.725 502.242 144.517 502.053 144.278C501.863 144.04 501.717 143.828 501.615 143.642H501.513V148.273H499.814ZM501.479 140.636C501.479 141.25 501.568 141.788 501.746 142.25C501.924 142.712 502.181 143.074 502.518 143.335C502.856 143.593 503.268 143.722 503.757 143.722C504.265 143.722 504.689 143.587 505.03 143.318C505.371 143.045 505.628 142.676 505.803 142.21C505.981 141.744 506.07 141.22 506.07 140.636C506.07 140.061 505.982 139.544 505.808 139.085C505.638 138.627 505.38 138.265 505.036 138C504.695 137.735 504.268 137.602 503.757 137.602C503.265 137.602 502.848 137.729 502.507 137.983C502.17 138.237 501.914 138.591 501.74 139.045C501.566 139.5 501.479 140.03 501.479 140.636ZM512.229 145.193C511.676 145.193 511.176 145.091 510.729 144.886C510.282 144.678 509.928 144.377 509.666 143.983C509.409 143.589 509.28 143.106 509.28 142.534C509.28 142.042 509.375 141.636 509.564 141.318C509.753 141 510.009 140.748 510.331 140.562C510.653 140.377 511.013 140.237 511.411 140.142C511.808 140.047 512.214 139.975 512.626 139.926C513.149 139.866 513.573 139.816 513.899 139.778C514.225 139.737 514.462 139.67 514.609 139.58C514.757 139.489 514.831 139.341 514.831 139.136V139.097C514.831 138.6 514.691 138.216 514.411 137.943C514.134 137.67 513.721 137.534 513.172 137.534C512.6 137.534 512.149 137.661 511.82 137.915C511.494 138.165 511.268 138.443 511.143 138.75L509.547 138.386C509.736 137.856 510.013 137.428 510.376 137.102C510.744 136.773 511.166 136.534 511.643 136.386C512.121 136.235 512.623 136.159 513.149 136.159C513.498 136.159 513.867 136.201 514.257 136.284C514.651 136.364 515.018 136.511 515.359 136.727C515.704 136.943 515.986 137.252 516.206 137.653C516.426 138.051 516.536 138.568 516.536 139.205V145H514.876V143.807H514.808C514.698 144.027 514.534 144.242 514.314 144.455C514.094 144.667 513.812 144.843 513.467 144.983C513.123 145.123 512.71 145.193 512.229 145.193ZM512.598 143.83C513.068 143.83 513.469 143.737 513.803 143.551C514.14 143.366 514.395 143.123 514.57 142.824C514.748 142.521 514.837 142.197 514.837 141.852V140.727C514.776 140.788 514.659 140.845 514.484 140.898C514.314 140.947 514.119 140.991 513.899 141.028C513.679 141.062 513.465 141.095 513.257 141.125C513.049 141.152 512.875 141.174 512.734 141.193C512.405 141.235 512.104 141.305 511.831 141.403C511.562 141.502 511.346 141.644 511.183 141.83C511.024 142.011 510.945 142.254 510.945 142.557C510.945 142.977 511.1 143.295 511.411 143.511C511.721 143.723 512.117 143.83 512.598 143.83Z" fill="#32393E"/>
<g filter="url(#filter1_d_301_20290)">
<path fill-rule="evenodd" clip-rule="evenodd" d="M59 173C59 170.791 60.7909 169 63 169H71C73.2091 169 75 170.791 75 173V181C75 183.209 73.2091 185 71 185H63C60.7909 185 59 183.209 59 181V173Z" fill="#5392F7"/>
<path d="M63 169.5H71C72.933 169.5 74.5 171.067 74.5 173V181C74.5 182.933 72.933 184.5 71 184.5H63C61.067 184.5 59.5 182.933 59.5 181V173C59.5 171.067 61.067 169.5 63 169.5Z" stroke="#2473F5"/>
</g>
<path fill-rule="evenodd" clip-rule="evenodd" d="M65.268 180.858L62.1311 177.441C61.9563 177.253 61.9563 176.947 62.1311 176.757L62.7647 176.074C62.9395 175.886 63.2236 175.886 63.3984 176.074L65.5853 178.466L70.4601 173.141C70.6349 172.953 70.919 172.953 71.0938 173.141L71.7275 173.825C71.9022 174.013 71.9022 174.32 71.7275 174.507L65.9017 180.858C65.7269 181.046 65.4428 181.046 65.268 180.858" fill="white"/>
<path d="M94.3864 178.182C94.3864 179.424 94.1591 180.492 93.7045 181.386C93.25 182.277 92.6269 182.962 91.8352 183.443C91.0473 183.92 90.1515 184.159 89.1477 184.159C88.1402 184.159 87.2405 183.92 86.4489 183.443C85.661 182.962 85.0398 182.275 84.5852 181.381C84.1307 180.487 83.9034 179.42 83.9034 178.182C83.9034 176.939 84.1307 175.873 84.5852 174.983C85.0398 174.089 85.661 173.403 86.4489 172.926C87.2405 172.445 88.1402 172.205 89.1477 172.205C90.1515 172.205 91.0473 172.445 91.8352 172.926C92.6269 173.403 93.25 174.089 93.7045 174.983C94.1591 175.873 94.3864 176.939 94.3864 178.182ZM92.6477 178.182C92.6477 177.235 92.4943 176.437 92.1875 175.79C91.8845 175.138 91.4678 174.646 90.9375 174.312C90.411 173.975 89.8144 173.807 89.1477 173.807C88.4773 173.807 87.8788 173.975 87.3523 174.312C86.8258 174.646 86.4091 175.138 86.1023 175.79C85.7992 176.437 85.6477 177.235 85.6477 178.182C85.6477 179.129 85.7992 179.928 86.1023 180.58C86.4091 181.227 86.8258 181.72 87.3523 182.057C87.8788 182.39 88.4773 182.557 89.1477 182.557C89.8144 182.557 90.411 182.39 90.9375 182.057C91.4678 181.72 91.8845 181.227 92.1875 180.58C92.4943 179.928 92.6477 179.129 92.6477 178.182ZM95.9503 176.739V175.273H103.314V176.739H100.467V184H98.8082V176.739H95.9503ZM105.111 184V175.273H112.23V184H110.565V176.739H106.764V184H105.111ZM114.501 187.273V175.273H116.161V176.688H116.303C116.401 176.506 116.543 176.295 116.729 176.057C116.914 175.818 117.172 175.61 117.501 175.432C117.831 175.25 118.267 175.159 118.808 175.159C119.513 175.159 120.142 175.337 120.695 175.693C121.248 176.049 121.681 176.562 121.996 177.233C122.314 177.903 122.473 178.71 122.473 179.653C122.473 180.597 122.316 181.405 122.001 182.08C121.687 182.75 121.255 183.267 120.706 183.631C120.157 183.991 119.53 184.17 118.825 184.17C118.295 184.17 117.861 184.081 117.524 183.903C117.191 183.725 116.929 183.517 116.74 183.278C116.551 183.04 116.405 182.828 116.303 182.642H116.2V187.273H114.501ZM116.166 179.636C116.166 180.25 116.255 180.788 116.433 181.25C116.611 181.712 116.869 182.074 117.206 182.335C117.543 182.593 117.956 182.722 118.445 182.722C118.952 182.722 119.376 182.587 119.717 182.318C120.058 182.045 120.316 181.676 120.49 181.21C120.668 180.744 120.757 180.22 120.757 179.636C120.757 179.061 120.67 178.544 120.496 178.085C120.325 177.627 120.068 177.265 119.723 177C119.382 176.735 118.956 176.602 118.445 176.602C117.952 176.602 117.536 176.729 117.195 176.983C116.857 177.237 116.602 177.591 116.428 178.045C116.253 178.5 116.166 179.03 116.166 179.636ZM126.916 184.193C126.363 184.193 125.863 184.091 125.416 183.886C124.969 183.678 124.615 183.377 124.354 182.983C124.096 182.589 123.967 182.106 123.967 181.534C123.967 181.042 124.062 180.636 124.251 180.318C124.441 180 124.696 179.748 125.018 179.562C125.34 179.377 125.7 179.237 126.098 179.142C126.496 179.047 126.901 178.975 127.314 178.926C127.837 178.866 128.261 178.816 128.587 178.778C128.912 178.737 129.149 178.67 129.297 178.58C129.445 178.489 129.518 178.341 129.518 178.136V178.097C129.518 177.6 129.378 177.216 129.098 176.943C128.821 176.67 128.409 176.534 127.859 176.534C127.287 176.534 126.837 176.661 126.507 176.915C126.181 177.165 125.956 177.443 125.831 177.75L124.234 177.386C124.424 176.856 124.7 176.428 125.064 176.102C125.431 175.773 125.854 175.534 126.331 175.386C126.808 175.235 127.31 175.159 127.837 175.159C128.185 175.159 128.554 175.201 128.945 175.284C129.339 175.364 129.706 175.511 130.047 175.727C130.392 175.943 130.674 176.252 130.893 176.653C131.113 177.051 131.223 177.568 131.223 178.205V184H129.564V182.807H129.496C129.386 183.027 129.221 183.242 129.001 183.455C128.782 183.667 128.5 183.843 128.155 183.983C127.81 184.123 127.397 184.193 126.916 184.193ZM127.286 182.83C127.755 182.83 128.157 182.737 128.49 182.551C128.827 182.366 129.083 182.123 129.257 181.824C129.435 181.521 129.524 181.197 129.524 180.852V179.727C129.464 179.788 129.346 179.845 129.172 179.898C129.001 179.947 128.806 179.991 128.587 180.028C128.367 180.062 128.153 180.095 127.945 180.125C127.736 180.152 127.562 180.174 127.422 180.193C127.092 180.235 126.791 180.305 126.518 180.403C126.25 180.502 126.034 180.644 125.871 180.83C125.712 181.011 125.632 181.254 125.632 181.557C125.632 181.977 125.787 182.295 126.098 182.511C126.409 182.723 126.804 182.83 127.286 182.83ZM133.486 184V175.273H137.105C138.09 175.273 138.87 175.483 139.446 175.903C140.022 176.32 140.31 176.886 140.31 177.602C140.31 178.114 140.147 178.519 139.821 178.818C139.495 179.117 139.063 179.318 138.526 179.42C138.916 179.466 139.274 179.583 139.599 179.773C139.925 179.958 140.187 180.208 140.384 180.523C140.584 180.837 140.685 181.212 140.685 181.648C140.685 182.11 140.565 182.519 140.327 182.875C140.088 183.227 139.741 183.504 139.287 183.705C138.836 183.902 138.293 184 137.656 184H133.486ZM135.082 182.58H137.656C138.077 182.58 138.406 182.479 138.645 182.278C138.884 182.078 139.003 181.805 139.003 181.46C139.003 181.055 138.884 180.737 138.645 180.506C138.406 180.271 138.077 180.153 137.656 180.153H135.082V182.58ZM135.082 178.909H137.122C137.44 178.909 137.713 178.864 137.94 178.773C138.171 178.682 138.348 178.553 138.469 178.386C138.594 178.216 138.656 178.015 138.656 177.784C138.656 177.447 138.518 177.184 138.241 176.994C137.965 176.805 137.586 176.71 137.105 176.71H135.082V178.909ZM144.213 181.619L148.06 175.273H149.889V184H148.224V177.648L144.395 184H142.548V175.273H144.213V181.619ZM151.091 176.739V175.273H158.455V176.739H155.608V184H153.949V176.739H151.091ZM161.53 178.273H164.064C165.132 178.273 165.954 178.538 166.53 179.068C167.106 179.598 167.393 180.282 167.393 181.119C167.393 181.665 167.265 182.155 167.007 182.591C166.75 183.027 166.373 183.371 165.876 183.625C165.38 183.875 164.776 184 164.064 184H160.251V175.273H161.916V182.534H164.064C164.553 182.534 164.954 182.407 165.268 182.153C165.583 181.896 165.74 181.568 165.74 181.17C165.74 180.75 165.583 180.407 165.268 180.142C164.954 179.873 164.553 179.739 164.064 179.739H161.53V178.273ZM173.533 184V175.273H177.152C178.137 175.273 178.917 175.483 179.493 175.903C180.069 176.32 180.357 176.886 180.357 177.602C180.357 178.114 180.194 178.519 179.868 178.818C179.542 179.117 179.11 179.318 178.572 179.42C178.963 179.466 179.321 179.583 179.646 179.773C179.972 179.958 180.233 180.208 180.43 180.523C180.631 180.837 180.732 181.212 180.732 181.648C180.732 182.11 180.612 182.519 180.374 182.875C180.135 183.227 179.788 183.504 179.334 183.705C178.883 183.902 178.339 184 177.703 184H173.533ZM175.129 182.58H177.703C178.124 182.58 178.453 182.479 178.692 182.278C178.93 182.078 179.05 181.805 179.05 181.46C179.05 181.055 178.93 180.737 178.692 180.506C178.453 180.271 178.124 180.153 177.703 180.153H175.129V182.58ZM175.129 178.909H177.169C177.487 178.909 177.76 178.864 177.987 178.773C178.218 178.682 178.394 178.553 178.516 178.386C178.641 178.216 178.703 178.015 178.703 177.784C178.703 177.447 178.565 177.184 178.288 176.994C178.012 176.805 177.633 176.71 177.152 176.71H175.129V178.909ZM193.562 172.023L194.267 173.097C194.006 173.335 193.708 173.506 193.375 173.608C193.045 173.706 192.665 173.769 192.233 173.795C191.801 173.818 191.307 173.839 190.75 173.858C190.121 173.877 189.604 174.013 189.199 174.267C188.794 174.517 188.481 174.888 188.261 175.381C188.045 175.869 187.905 176.483 187.841 177.222H187.949C188.233 176.68 188.627 176.275 189.131 176.006C189.638 175.737 190.208 175.602 190.841 175.602C191.545 175.602 192.172 175.763 192.722 176.085C193.271 176.407 193.703 176.879 194.017 177.5C194.335 178.117 194.494 178.873 194.494 179.767C194.494 180.672 194.328 181.455 193.994 182.114C193.665 182.773 193.199 183.282 192.597 183.642C191.998 183.998 191.292 184.176 190.477 184.176C189.663 184.176 188.953 183.992 188.347 183.625C187.744 183.254 187.277 182.705 186.943 181.977C186.614 181.25 186.449 180.352 186.449 179.284V178.42C186.449 176.424 186.805 174.922 187.517 173.915C188.229 172.907 189.294 172.39 190.71 172.364C191.169 172.352 191.578 172.35 191.938 172.358C192.297 172.362 192.612 172.345 192.881 172.307C193.153 172.265 193.381 172.17 193.562 172.023ZM190.483 182.75C190.956 182.75 191.364 182.631 191.705 182.392C192.049 182.15 192.314 181.807 192.5 181.364C192.686 180.92 192.778 180.398 192.778 179.795C192.778 179.205 192.686 178.703 192.5 178.29C192.314 177.877 192.049 177.562 191.705 177.347C191.36 177.127 190.947 177.017 190.466 177.017C190.11 177.017 189.792 177.08 189.511 177.205C189.231 177.326 188.991 177.506 188.79 177.744C188.593 177.983 188.439 178.275 188.33 178.619C188.223 178.96 188.167 179.352 188.159 179.795C188.159 180.697 188.366 181.415 188.778 181.949C189.195 182.483 189.763 182.75 190.483 182.75ZM198.932 184.193C198.379 184.193 197.879 184.091 197.432 183.886C196.985 183.678 196.631 183.377 196.369 182.983C196.112 182.589 195.983 182.106 195.983 181.534C195.983 181.042 196.078 180.636 196.267 180.318C196.456 180 196.712 179.748 197.034 179.562C197.356 179.377 197.716 179.237 198.114 179.142C198.511 179.047 198.917 178.975 199.33 178.926C199.852 178.866 200.277 178.816 200.602 178.778C200.928 178.737 201.165 178.67 201.312 178.58C201.46 178.489 201.534 178.341 201.534 178.136V178.097C201.534 177.6 201.394 177.216 201.114 176.943C200.837 176.67 200.424 176.534 199.875 176.534C199.303 176.534 198.852 176.661 198.523 176.915C198.197 177.165 197.972 177.443 197.847 177.75L196.25 177.386C196.439 176.856 196.716 176.428 197.08 176.102C197.447 175.773 197.869 175.534 198.347 175.386C198.824 175.235 199.326 175.159 199.852 175.159C200.201 175.159 200.57 175.201 200.96 175.284C201.354 175.364 201.722 175.511 202.062 175.727C202.407 175.943 202.689 176.252 202.909 176.653C203.129 177.051 203.239 177.568 203.239 178.205V184H201.58V182.807H201.511C201.402 183.027 201.237 183.242 201.017 183.455C200.797 183.667 200.515 183.843 200.17 183.983C199.826 184.123 199.413 184.193 198.932 184.193ZM199.301 182.83C199.771 182.83 200.172 182.737 200.506 182.551C200.843 182.366 201.098 182.123 201.273 181.824C201.451 181.521 201.54 181.197 201.54 180.852V179.727C201.479 179.788 201.362 179.845 201.188 179.898C201.017 179.947 200.822 179.991 200.602 180.028C200.383 180.062 200.169 180.095 199.96 180.125C199.752 180.152 199.578 180.174 199.438 180.193C199.108 180.235 198.807 180.305 198.534 180.403C198.265 180.502 198.049 180.644 197.886 180.83C197.727 181.011 197.648 181.254 197.648 181.557C197.648 181.977 197.803 182.295 198.114 182.511C198.424 182.723 198.82 182.83 199.301 182.83ZM211.416 178.903V180.375H206.689V178.903H211.416ZM207.166 175.273V184H205.501V175.273H207.166ZM212.604 175.273V184H210.945V175.273H212.604ZM214.876 184V175.273H216.575V178.932H217.393L220.274 175.273H222.376L218.996 179.517L222.416 184H220.308L217.678 180.511H216.575V184H214.876ZM227.97 184V175.273H235.089V184H233.425V176.739H229.624V184H227.97ZM239.026 181.619L242.872 175.273H244.702V184H243.037V177.648L239.207 184H237.361V175.273H239.026V181.619ZM250.662 184.176C249.817 184.176 249.09 183.985 248.48 183.602C247.874 183.216 247.408 182.684 247.082 182.006C246.757 181.328 246.594 180.551 246.594 179.676C246.594 178.79 246.76 178.008 247.094 177.33C247.427 176.648 247.897 176.116 248.503 175.733C249.109 175.35 249.823 175.159 250.645 175.159C251.308 175.159 251.899 175.282 252.418 175.528C252.937 175.771 253.355 176.112 253.673 176.551C253.995 176.991 254.187 177.504 254.247 178.091H252.594C252.503 177.682 252.295 177.33 251.969 177.034C251.647 176.739 251.215 176.591 250.673 176.591C250.2 176.591 249.785 176.716 249.429 176.966C249.077 177.212 248.802 177.564 248.605 178.023C248.408 178.477 248.31 179.015 248.31 179.636C248.31 180.273 248.406 180.822 248.599 181.284C248.793 181.746 249.065 182.104 249.418 182.358C249.774 182.612 250.192 182.739 250.673 182.739C250.995 182.739 251.287 182.68 251.548 182.562C251.813 182.441 252.035 182.269 252.213 182.045C252.395 181.822 252.522 181.553 252.594 181.239H254.247C254.187 181.803 254.003 182.307 253.696 182.75C253.389 183.193 252.978 183.542 252.463 183.795C251.952 184.049 251.351 184.176 250.662 184.176ZM257.342 178.273H259.876C260.945 178.273 261.767 178.538 262.342 179.068C262.918 179.598 263.206 180.282 263.206 181.119C263.206 181.665 263.077 182.155 262.82 182.591C262.562 183.027 262.185 183.371 261.689 183.625C261.193 183.875 260.589 184 259.876 184H256.064V175.273H257.729V182.534H259.876C260.365 182.534 260.767 182.407 261.081 182.153C261.395 181.896 261.553 181.568 261.553 181.17C261.553 180.75 261.395 180.407 261.081 180.142C260.767 179.873 260.365 179.739 259.876 179.739H257.342V178.273ZM270.009 181.898L272.827 175.273H274.293L270.639 184H269.378L265.798 175.273H267.247L270.009 181.898ZM266.776 175.273V184H265.111V175.273H266.776ZM273.287 184V175.273H274.94V184H273.287ZM280.881 184.176C280.063 184.176 279.348 183.989 278.739 183.614C278.129 183.239 277.655 182.714 277.318 182.04C276.981 181.366 276.812 180.578 276.812 179.676C276.812 178.771 276.981 177.979 277.318 177.301C277.655 176.623 278.129 176.097 278.739 175.722C279.348 175.347 280.063 175.159 280.881 175.159C281.699 175.159 282.413 175.347 283.023 175.722C283.633 176.097 284.106 176.623 284.443 177.301C284.78 177.979 284.949 178.771 284.949 179.676C284.949 180.578 284.78 181.366 284.443 182.04C284.106 182.714 283.633 183.239 283.023 183.614C282.413 183.989 281.699 184.176 280.881 184.176ZM280.886 182.75C281.417 182.75 281.856 182.61 282.205 182.33C282.553 182.049 282.811 181.676 282.977 181.21C283.148 180.744 283.233 180.231 283.233 179.67C283.233 179.114 283.148 178.602 282.977 178.136C282.811 177.667 282.553 177.29 282.205 177.006C281.856 176.722 281.417 176.58 280.886 176.58C280.352 176.58 279.909 176.722 279.557 177.006C279.208 177.29 278.949 177.667 278.778 178.136C278.612 178.602 278.528 179.114 278.528 179.67C278.528 180.231 278.612 180.744 278.778 181.21C278.949 181.676 279.208 182.049 279.557 182.33C279.909 182.61 280.352 182.75 280.886 182.75ZM294.756 184.176C293.938 184.176 293.223 183.989 292.614 183.614C292.004 183.239 291.53 182.714 291.193 182.04C290.856 181.366 290.688 180.578 290.688 179.676C290.688 178.771 290.856 177.979 291.193 177.301C291.53 176.623 292.004 176.097 292.614 175.722C293.223 175.347 293.938 175.159 294.756 175.159C295.574 175.159 296.288 175.347 296.898 175.722C297.508 176.097 297.981 176.623 298.318 177.301C298.655 177.979 298.824 178.771 298.824 179.676C298.824 180.578 298.655 181.366 298.318 182.04C297.981 182.714 297.508 183.239 296.898 183.614C296.288 183.989 295.574 184.176 294.756 184.176ZM294.761 182.75C295.292 182.75 295.731 182.61 296.08 182.33C296.428 182.049 296.686 181.676 296.852 181.21C297.023 180.744 297.108 180.231 297.108 179.67C297.108 179.114 297.023 178.602 296.852 178.136C296.686 177.667 296.428 177.29 296.08 177.006C295.731 176.722 295.292 176.58 294.761 176.58C294.227 176.58 293.784 176.722 293.432 177.006C293.083 177.29 292.824 177.667 292.653 178.136C292.487 178.602 292.403 179.114 292.403 179.67C292.403 180.231 292.487 180.744 292.653 181.21C292.824 181.676 293.083 182.049 293.432 182.33C293.784 182.61 294.227 182.75 294.761 182.75ZM304.955 187.273V175.273H306.614V176.688H306.756C306.854 176.506 306.996 176.295 307.182 176.057C307.367 175.818 307.625 175.61 307.955 175.432C308.284 175.25 308.72 175.159 309.261 175.159C309.966 175.159 310.595 175.337 311.148 175.693C311.701 176.049 312.134 176.562 312.449 177.233C312.767 177.903 312.926 178.71 312.926 179.653C312.926 180.597 312.769 181.405 312.455 182.08C312.14 182.75 311.708 183.267 311.159 183.631C310.61 183.991 309.983 184.17 309.278 184.17C308.748 184.17 308.314 184.081 307.977 183.903C307.644 183.725 307.383 183.517 307.193 183.278C307.004 183.04 306.858 182.828 306.756 182.642H306.653V187.273H304.955ZM306.619 179.636C306.619 180.25 306.708 180.788 306.886 181.25C307.064 181.712 307.322 182.074 307.659 182.335C307.996 182.593 308.409 182.722 308.898 182.722C309.405 182.722 309.83 182.587 310.17 182.318C310.511 182.045 310.769 181.676 310.943 181.21C311.121 180.744 311.21 180.22 311.21 179.636C311.21 179.061 311.123 178.544 310.949 178.085C310.778 177.627 310.521 177.265 310.176 177C309.835 176.735 309.409 176.602 308.898 176.602C308.405 176.602 307.989 176.729 307.648 176.983C307.311 177.237 307.055 177.591 306.881 178.045C306.706 178.5 306.619 179.03 306.619 179.636ZM318.591 184.176C317.731 184.176 316.991 183.992 316.369 183.625C315.752 183.254 315.275 182.733 314.938 182.062C314.604 181.388 314.438 180.598 314.438 179.693C314.438 178.799 314.604 178.011 314.938 177.33C315.275 176.648 315.744 176.116 316.347 175.733C316.953 175.35 317.661 175.159 318.472 175.159C318.964 175.159 319.441 175.241 319.903 175.403C320.366 175.566 320.78 175.822 321.148 176.17C321.515 176.519 321.805 176.972 322.017 177.528C322.229 178.081 322.335 178.754 322.335 179.545V180.148H315.398V178.875H320.67C320.67 178.428 320.58 178.032 320.398 177.688C320.216 177.339 319.96 177.064 319.631 176.864C319.305 176.663 318.922 176.562 318.483 176.562C318.006 176.562 317.589 176.68 317.233 176.915C316.881 177.146 316.608 177.449 316.415 177.824C316.225 178.195 316.131 178.598 316.131 179.034V180.028C316.131 180.612 316.233 181.108 316.438 181.517C316.646 181.926 316.936 182.239 317.307 182.455C317.678 182.667 318.112 182.773 318.608 182.773C318.93 182.773 319.223 182.727 319.489 182.636C319.754 182.542 319.983 182.402 320.176 182.216C320.369 182.03 320.517 181.801 320.619 181.528L322.227 181.818C322.098 182.292 321.867 182.706 321.534 183.062C321.205 183.415 320.79 183.689 320.29 183.886C319.794 184.08 319.227 184.176 318.591 184.176ZM324.22 175.273H325.885V182.528H328.902V175.273H330.567V182.528H333.584V175.273H335.249V184H324.22V175.273ZM341.278 184.176C340.419 184.176 339.678 183.992 339.057 183.625C338.439 183.254 337.962 182.733 337.625 182.062C337.292 181.388 337.125 180.598 337.125 179.693C337.125 178.799 337.292 178.011 337.625 177.33C337.962 176.648 338.432 176.116 339.034 175.733C339.64 175.35 340.348 175.159 341.159 175.159C341.652 175.159 342.129 175.241 342.591 175.403C343.053 175.566 343.468 175.822 343.835 176.17C344.203 176.519 344.492 176.972 344.705 177.528C344.917 178.081 345.023 178.754 345.023 179.545V180.148H338.085V178.875H343.358C343.358 178.428 343.267 178.032 343.085 177.688C342.903 177.339 342.648 177.064 342.318 176.864C341.992 176.663 341.61 176.562 341.17 176.562C340.693 176.562 340.277 176.68 339.92 176.915C339.568 177.146 339.295 177.449 339.102 177.824C338.913 178.195 338.818 178.598 338.818 179.034V180.028C338.818 180.612 338.92 181.108 339.125 181.517C339.333 181.926 339.623 182.239 339.994 182.455C340.366 182.667 340.799 182.773 341.295 182.773C341.617 182.773 341.911 182.727 342.176 182.636C342.441 182.542 342.67 182.402 342.864 182.216C343.057 182.03 343.205 181.801 343.307 181.528L344.915 181.818C344.786 182.292 344.555 182.706 344.222 183.062C343.892 183.415 343.477 183.689 342.977 183.886C342.481 184.08 341.915 184.176 341.278 184.176ZM352.822 178.903V180.375H348.095V178.903H352.822ZM348.572 175.273V184H346.908V175.273H348.572ZM354.01 175.273V184H352.351V175.273H354.01ZM357.947 181.619L361.794 175.273H363.624V184H361.959V177.648L358.129 184H356.283V175.273H357.947V181.619ZM367.572 181.619L371.419 175.273H373.249V184H371.584V177.648L367.754 184H365.908V175.273H367.572V181.619ZM379.903 184V172.364H384.051C384.956 172.364 385.706 172.528 386.301 172.858C386.896 173.187 387.341 173.638 387.636 174.21C387.932 174.778 388.08 175.419 388.08 176.131C388.08 176.847 387.93 177.491 387.631 178.062C387.335 178.631 386.888 179.081 386.29 179.415C385.695 179.744 384.947 179.909 384.045 179.909H381.193V178.42H383.886C384.458 178.42 384.922 178.322 385.278 178.125C385.634 177.924 385.896 177.652 386.062 177.307C386.229 176.962 386.312 176.57 386.312 176.131C386.312 175.691 386.229 175.301 386.062 174.96C385.896 174.619 385.633 174.352 385.273 174.159C384.917 173.966 384.447 173.869 383.864 173.869H381.659V184H379.903ZM393.568 184.176C392.75 184.176 392.036 183.989 391.426 183.614C390.816 183.239 390.343 182.714 390.006 182.04C389.669 181.366 389.5 180.578 389.5 179.676C389.5 178.771 389.669 177.979 390.006 177.301C390.343 176.623 390.816 176.097 391.426 175.722C392.036 175.347 392.75 175.159 393.568 175.159C394.386 175.159 395.1 175.347 395.71 175.722C396.32 176.097 396.794 176.623 397.131 177.301C397.468 177.979 397.636 178.771 397.636 179.676C397.636 180.578 397.468 181.366 397.131 182.04C396.794 182.714 396.32 183.239 395.71 183.614C395.1 183.989 394.386 184.176 393.568 184.176ZM393.574 182.75C394.104 182.75 394.544 182.61 394.892 182.33C395.241 182.049 395.498 181.676 395.665 181.21C395.835 180.744 395.92 180.231 395.92 179.67C395.92 179.114 395.835 178.602 395.665 178.136C395.498 177.667 395.241 177.29 394.892 177.006C394.544 176.722 394.104 176.58 393.574 176.58C393.04 176.58 392.597 176.722 392.244 177.006C391.896 177.29 391.636 177.667 391.466 178.136C391.299 178.602 391.216 179.114 391.216 179.67C391.216 180.231 391.299 180.744 391.466 181.21C391.636 181.676 391.896 182.049 392.244 182.33C392.597 182.61 393.04 182.75 393.574 182.75ZM403.209 184.176C402.364 184.176 401.637 183.985 401.027 183.602C400.421 183.216 399.955 182.684 399.629 182.006C399.304 181.328 399.141 180.551 399.141 179.676C399.141 178.79 399.307 178.008 399.641 177.33C399.974 176.648 400.444 176.116 401.05 175.733C401.656 175.35 402.37 175.159 403.192 175.159C403.855 175.159 404.446 175.282 404.964 175.528C405.483 175.771 405.902 176.112 406.22 176.551C406.542 176.991 406.733 177.504 406.794 178.091H405.141C405.05 177.682 404.841 177.33 404.516 177.034C404.194 176.739 403.762 176.591 403.22 176.591C402.747 176.591 402.332 176.716 401.976 176.966C401.624 177.212 401.349 177.564 401.152 178.023C400.955 178.477 400.857 179.015 400.857 179.636C400.857 180.273 400.953 180.822 401.146 181.284C401.339 181.746 401.612 182.104 401.964 182.358C402.321 182.612 402.739 182.739 403.22 182.739C403.542 182.739 403.834 182.68 404.095 182.562C404.36 182.441 404.582 182.269 404.76 182.045C404.942 181.822 405.069 181.553 405.141 181.239H406.794C406.733 181.803 406.55 182.307 406.243 182.75C405.936 183.193 405.525 183.542 405.01 183.795C404.499 184.049 403.898 184.176 403.209 184.176ZM408.611 187.273V175.273H410.27V176.688H410.412C410.51 176.506 410.652 176.295 410.838 176.057C411.024 175.818 411.281 175.61 411.611 175.432C411.94 175.25 412.376 175.159 412.918 175.159C413.622 175.159 414.251 175.337 414.804 175.693C415.357 176.049 415.791 176.562 416.105 177.233C416.423 177.903 416.582 178.71 416.582 179.653C416.582 180.597 416.425 181.405 416.111 182.08C415.796 182.75 415.365 183.267 414.815 183.631C414.266 183.991 413.639 184.17 412.935 184.17C412.404 184.17 411.971 184.081 411.634 183.903C411.3 183.725 411.039 183.517 410.849 183.278C410.66 183.04 410.514 182.828 410.412 182.642H410.31V187.273H408.611ZM410.276 179.636C410.276 180.25 410.365 180.788 410.543 181.25C410.721 181.712 410.978 182.074 411.315 182.335C411.652 182.593 412.065 182.722 412.554 182.722C413.062 182.722 413.486 182.587 413.827 182.318C414.168 182.045 414.425 181.676 414.599 181.21C414.777 180.744 414.866 180.22 414.866 179.636C414.866 179.061 414.779 178.544 414.605 178.085C414.435 177.627 414.177 177.265 413.832 177C413.491 176.735 413.065 176.602 412.554 176.602C412.062 176.602 411.645 176.729 411.304 176.983C410.967 177.237 410.711 177.591 410.537 178.045C410.363 178.5 410.276 179.03 410.276 179.636ZM422.247 184.176C421.387 184.176 420.647 183.992 420.026 183.625C419.408 183.254 418.931 182.733 418.594 182.062C418.26 181.388 418.094 180.598 418.094 179.693C418.094 178.799 418.26 178.011 418.594 177.33C418.931 176.648 419.401 176.116 420.003 175.733C420.609 175.35 421.317 175.159 422.128 175.159C422.62 175.159 423.098 175.241 423.56 175.403C424.022 175.566 424.437 175.822 424.804 176.17C425.171 176.519 425.461 176.972 425.673 177.528C425.885 178.081 425.991 178.754 425.991 179.545V180.148H419.054V178.875H424.327C424.327 178.428 424.236 178.032 424.054 177.688C423.872 177.339 423.616 177.064 423.287 176.864C422.961 176.663 422.579 176.562 422.139 176.562C421.662 176.562 421.245 176.68 420.889 176.915C420.537 177.146 420.264 177.449 420.071 177.824C419.882 178.195 419.787 178.598 419.787 179.034V180.028C419.787 180.612 419.889 181.108 420.094 181.517C420.302 181.926 420.592 182.239 420.963 182.455C421.334 182.667 421.768 182.773 422.264 182.773C422.586 182.773 422.88 182.727 423.145 182.636C423.41 182.542 423.639 182.402 423.832 182.216C424.026 182.03 424.173 181.801 424.276 181.528L425.884 181.818C425.755 182.292 425.524 182.706 425.19 183.062C424.861 183.415 424.446 183.689 423.946 183.886C423.45 184.08 422.884 184.176 422.247 184.176ZM431.638 184.176C430.778 184.176 430.037 183.992 429.416 183.625C428.799 183.254 428.321 182.733 427.984 182.062C427.651 181.388 427.484 180.598 427.484 179.693C427.484 178.799 427.651 178.011 427.984 177.33C428.321 176.648 428.791 176.116 429.393 175.733C430 175.35 430.708 175.159 431.518 175.159C432.011 175.159 432.488 175.241 432.95 175.403C433.412 175.566 433.827 175.822 434.195 176.17C434.562 176.519 434.852 176.972 435.064 177.528C435.276 178.081 435.382 178.754 435.382 179.545V180.148H428.445V178.875H433.717C433.717 178.428 433.626 178.032 433.445 177.688C433.263 177.339 433.007 177.064 432.678 176.864C432.352 176.663 431.969 176.562 431.53 176.562C431.053 176.562 430.636 176.68 430.28 176.915C429.928 177.146 429.655 177.449 429.462 177.824C429.272 178.195 429.178 178.598 429.178 179.034V180.028C429.178 180.612 429.28 181.108 429.484 181.517C429.693 181.926 429.982 182.239 430.354 182.455C430.725 182.667 431.159 182.773 431.655 182.773C431.977 182.773 432.27 182.727 432.536 182.636C432.801 182.542 433.03 182.402 433.223 182.216C433.416 182.03 433.564 181.801 433.666 181.528L435.274 181.818C435.145 182.292 434.914 182.706 434.581 183.062C434.251 183.415 433.837 183.689 433.337 183.886C432.84 184.08 432.274 184.176 431.638 184.176ZM440.943 184.176C440.098 184.176 439.371 183.985 438.761 183.602C438.155 183.216 437.689 182.684 437.364 182.006C437.038 181.328 436.875 180.551 436.875 179.676C436.875 178.79 437.042 178.008 437.375 177.33C437.708 176.648 438.178 176.116 438.784 175.733C439.39 175.35 440.104 175.159 440.926 175.159C441.589 175.159 442.18 175.282 442.699 175.528C443.218 175.771 443.636 176.112 443.955 176.551C444.277 176.991 444.468 177.504 444.528 178.091H442.875C442.784 177.682 442.576 177.33 442.25 177.034C441.928 176.739 441.496 176.591 440.955 176.591C440.481 176.591 440.066 176.716 439.71 176.966C439.358 177.212 439.083 177.564 438.886 178.023C438.689 178.477 438.591 179.015 438.591 179.636C438.591 180.273 438.688 180.822 438.881 181.284C439.074 181.746 439.347 182.104 439.699 182.358C440.055 182.612 440.473 182.739 440.955 182.739C441.277 182.739 441.568 182.68 441.83 182.562C442.095 182.441 442.316 182.269 442.494 182.045C442.676 181.822 442.803 181.553 442.875 181.239H444.528C444.468 181.803 444.284 182.307 443.977 182.75C443.67 183.193 443.259 183.542 442.744 183.795C442.233 184.049 441.633 184.176 440.943 184.176ZM445.685 176.739V175.273H453.048V176.739H450.202V184H448.543V176.739H445.685ZM454.845 187.273V175.273H456.504V176.688H456.646C456.745 176.506 456.887 176.295 457.072 176.057C457.258 175.818 457.516 175.61 457.845 175.432C458.175 175.25 458.61 175.159 459.152 175.159C459.857 175.159 460.485 175.337 461.038 175.693C461.591 176.049 462.025 176.562 462.339 177.233C462.658 177.903 462.817 178.71 462.817 179.653C462.817 180.597 462.66 181.405 462.345 182.08C462.031 182.75 461.599 183.267 461.05 183.631C460.5 183.991 459.874 184.17 459.169 184.17C458.639 184.17 458.205 184.081 457.868 183.903C457.535 183.725 457.273 183.517 457.084 183.278C456.894 183.04 456.749 182.828 456.646 182.642H456.544V187.273H454.845ZM456.51 179.636C456.51 180.25 456.599 180.788 456.777 181.25C456.955 181.712 457.213 182.074 457.55 182.335C457.887 182.593 458.3 182.722 458.788 182.722C459.296 182.722 459.72 182.587 460.061 182.318C460.402 182.045 460.66 181.676 460.834 181.21C461.012 180.744 461.101 180.22 461.101 179.636C461.101 179.061 461.014 178.544 460.839 178.085C460.669 177.627 460.411 177.265 460.067 177C459.726 176.735 459.3 176.602 458.788 176.602C458.296 176.602 457.879 176.729 457.538 176.983C457.201 177.237 456.946 177.591 456.771 178.045C456.597 178.5 456.51 179.03 456.51 179.636ZM467.26 184.193C466.707 184.193 466.207 184.091 465.76 183.886C465.313 183.678 464.959 183.377 464.697 182.983C464.44 182.589 464.311 182.106 464.311 181.534C464.311 181.042 464.406 180.636 464.595 180.318C464.785 180 465.04 179.748 465.362 179.562C465.684 179.377 466.044 179.237 466.442 179.142C466.839 179.047 467.245 178.975 467.658 178.926C468.18 178.866 468.605 178.816 468.93 178.778C469.256 178.737 469.493 178.67 469.641 178.58C469.788 178.489 469.862 178.341 469.862 178.136V178.097C469.862 177.6 469.722 177.216 469.442 176.943C469.165 176.67 468.752 176.534 468.203 176.534C467.631 176.534 467.18 176.661 466.851 176.915C466.525 177.165 466.3 177.443 466.175 177.75L464.578 177.386C464.768 176.856 465.044 176.428 465.408 176.102C465.775 175.773 466.197 175.534 466.675 175.386C467.152 175.235 467.654 175.159 468.18 175.159C468.529 175.159 468.898 175.201 469.288 175.284C469.682 175.364 470.05 175.511 470.391 175.727C470.735 175.943 471.018 176.252 471.237 176.653C471.457 177.051 471.567 177.568 471.567 178.205V184H469.908V182.807H469.839C469.73 183.027 469.565 183.242 469.345 183.455C469.125 183.667 468.843 183.843 468.499 183.983C468.154 184.123 467.741 184.193 467.26 184.193ZM467.629 182.83C468.099 182.83 468.5 182.737 468.834 182.551C469.171 182.366 469.427 182.123 469.601 181.824C469.779 181.521 469.868 181.197 469.868 180.852V179.727C469.807 179.788 469.69 179.845 469.516 179.898C469.345 179.947 469.15 179.991 468.93 180.028C468.711 180.062 468.497 180.095 468.288 180.125C468.08 180.152 467.906 180.174 467.766 180.193C467.436 180.235 467.135 180.305 466.862 180.403C466.593 180.502 466.377 180.644 466.214 180.83C466.055 181.011 465.976 181.254 465.976 181.557C465.976 181.977 466.131 182.295 466.442 182.511C466.752 182.723 467.148 182.83 467.629 182.83Z" fill="#32393E"/>
</g>
<defs>
<filter id="filter0_d_301_20290" x="59" y="130" width="16" height="16" filterUnits="userSpaceOnUse" color-interpolation-filters="sRGB">
<feFlood flood-opacity="0" result="BackgroundImageFix"/>
<feColorMatrix in="SourceAlpha" type="matrix" values="0 0 0 0 0 0 0 0 0 0 0 0 0 0 0 0 0 0 127 0" result="hardAlpha"/>
<feOffset/>
<feComposite in2="hardAlpha" operator="out"/>
<feColorMatrix type="matrix" values="0 0 0 0 1 0 0 0 0 0.776 0 0 0 0 0.2 0 0 0 1 0"/>
<feBlend mode="normal" in2="BackgroundImageFix" result="effect1_dropShadow_301_20290"/>
<feBlend mode="normal" in="SourceGraphic" in2="effect1_dropShadow_301_20290" result="shape"/>
</filter>
<filter id="filter1_d_301_20290" x="59" y="169" width="16" height="16" filterUnits="userSpaceOnUse" color-interpolation-filters="sRGB">
<feFlood flood-opacity="0" result="BackgroundImageFix"/>
<feColorMatrix in="SourceAlpha" type="matrix" values="0 0 0 0 0 0 0 0 0 0 0 0 0 0 0 0 0 0 127 0" result="hardAlpha"/>
<feOffset/>
<feComposite in2="hardAlpha" operator="out"/>
<feColorMatrix type="matrix" values="0 0 0 0 1 0 0 0 0 0.776 0 0 0 0 0.2 0 0 0 1 0"/>
<feBlend mode="normal" in2="BackgroundImageFix" result="effect1_dropShadow_301_20290"/>
<feBlend mode="normal" in="SourceGraphic" in2="effect1_dropShadow_301_20290" result="shape"/>
</filter>
<clipPath id="clip0_301_20290">
<rect width="854" height="235" fill="white"/>
</clipPath>
</defs>
</svg>
