<svg fill="none" height="863" viewBox="0 0 860 863" width="860" xmlns="http://www.w3.org/2000/svg" xmlns:xlink="http://www.w3.org/1999/xlink"><linearGradient id="a"><stop offset="0" stop-color="#04b34a"/><stop offset=".0666667" stop-color="#04b34a" stop-opacity=".991353"/><stop offset=".133333" stop-color="#04b34a" stop-opacity=".96449"/><stop offset=".2" stop-color="#04b34a" stop-opacity=".91834"/><stop offset=".266667" stop-color="#04b34a" stop-opacity=".852589"/><stop offset=".333333" stop-color="#04b34a" stop-opacity=".768225"/><stop offset=".4" stop-color="#04b34a" stop-opacity=".668116"/><stop offset=".466667" stop-color="#04b34a" stop-opacity=".557309"/><stop offset=".533333" stop-color="#04b34a" stop-opacity=".442691"/><stop offset=".6" stop-color="#04b34a" stop-opacity=".331884"/><stop offset=".666667" stop-color="#04b34a" stop-opacity=".231775"/><stop offset=".733333" stop-color="#04b34a" stop-opacity=".147411"/><stop offset=".8" stop-color="#04b34a" stop-opacity=".08166"/><stop offset=".866667" stop-color="#04b34a" stop-opacity=".03551"/><stop offset=".933333" stop-color="#04b34a" stop-opacity=".01"/><stop offset="1" stop-color="#04b34a" stop-opacity="0"/></linearGradient><linearGradient id="b" gradientUnits="userSpaceOnUse" x1="225.348" x2="225.348" xlink:href="#a" y1="177.223" y2="296.269"/><linearGradient id="c"><stop offset="0" stop-color="#d9d9d9"/><stop offset="1" stop-color="#d9d9d9" stop-opacity="0"/></linearGradient><linearGradient id="d" gradientUnits="userSpaceOnUse" x1="225.348" x2="225.348" xlink:href="#c" y1="472.25" y2="545.509"/><linearGradient id="e" gradientUnits="userSpaceOnUse" x1="630.663" x2="630.663" xlink:href="#a" y1="426.462" y2="545.509"/><linearGradient id="f" gradientUnits="userSpaceOnUse" x1="225.348" x2="225.348" xlink:href="#c" y1="721.492" y2="794.751"/><linearGradient id="g" gradientUnits="userSpaceOnUse" x1="630.663" x2="630.663" xlink:href="#c" y1="721.492" y2="794.751"/><linearGradient id="h" gradientUnits="userSpaceOnUse" x1="630.663" x2="630.663" xlink:href="#a" y1="177.223" y2="296.269"/><path d="m0 0h860v863h-860z" fill="#fff"/><g fill="#eaecef"><path d="m729.079 38.5938-2.131 12.6315h2.373l-1.362 8.0722h-4.39l.65-3.8463h-11.271l-.65 3.8463h-4.39l1.361-8.0722h1.684c.769-1.0444 1.499-2.4223 2.322-5.3185l2.089-7.313h13.717zm-5.577 4.2258h-4.816l-.929 3.2528c-.808 2.8249-1.476 4.1062-2.151 5.1529h6.48z"/><path d="m732.949 38.5938h10.442c3.678 0 5.332 1.8748 4.874 4.5824-.293 1.7322-1.596 2.8479-2.819 3.3471 1.336.5222 2.393 1.8518 2.008 4.1315-.488 2.8962-2.849 4.7964-6.765 4.7964h-10.585zm3.064 10.1149-.498 2.9445h4.794c1.281 0 2.073-.4739 2.241-1.4723.173-1.0214-.463-1.4722-1.746-1.4722h-4.793zm1.064-6.3147-.424 2.5167h4.722c.998 0 1.698-.3566 1.85-1.2583.152-.9018-.428-1.2584-1.426-1.2584z"/><path d="m751.282 38.5938h4.865l-1.714 10.1609 9.14-10.1609h4.865l-2.842 16.8574h-4.865l1.707-10.1149-9.134 10.1149h-4.865z"/><path d="m775.672 46.7142-5.727-8.1204h5.505l4.771 6.8851 1.163-6.8851h4.628l-1.161 6.8851 7.094-6.8851h5.388l-8.239 7.9065 5.752 8.9509h-5.863l-4.6-7.1934-1.214 7.1934h-4.627l1.214-7.1934-7.028 7.1934h-5.648l8.594-8.737z"/><path d="m804.439 38.5938h-5.648l5.622 7.9065-8.345 8.9509h5.648l8.345-8.9509zm8.928 0h-5.648l5.623 7.9065-8.346 8.9509h5.648l8.346-8.9509zm9.158 0h-5.648l5.623 7.9065-8.345 8.9509h5.648l8.345-8.9509z"/></g><path d="m32.87 42.2115v-3.6342h17.1227v3.6342h-6.3828v17.2143h-4.357v-17.2143zm21.2339 11.4932 5.6295-9.9153h4.2756v15.6364h-4.133v-9.9458l-5.6092 9.9458h-4.3061v-15.6364h4.1432zm12.2349 5.7211v-15.6364h13.6716v15.6364h-4.1432v-12.2261h-5.4361v12.2261zm25.6175-5.7211 5.6295-9.9153h4.2752v15.6364h-4.1327v-9.9458l-5.6092 9.9458h-4.3061v-15.6364h4.1433zm12.2347 5.7211v-15.6364h13.672v15.6364h-4.143v-12.2261h-5.437v12.2261zm23.051.3054c-1.581 0-2.949-.336-4.102-1.0078-1.147-.6787-2.033-1.622-2.657-2.8301-.625-1.2148-.937-2.623-.937-4.2246 0-1.6152.312-3.0269.937-4.2349.624-1.2148 1.51-2.1581 2.657-2.83 1.153-.6787 2.521-1.018 4.102-1.018s2.946.3393 4.092 1.018c1.154.6719 2.043 1.6152 2.668 2.83.624 1.208.936 2.6197.936 4.2349 0 1.6016-.312 3.0098-.936 4.2246-.625 1.2081-1.514 2.1514-2.668 2.8301-1.146.6718-2.511 1.0078-4.092 1.0078zm.02-3.3594c.72 0 1.32-.2036 1.802-.6108.482-.414.845-.9773 1.09-1.6899.251-.7126.376-1.5236.376-2.433s-.125-1.7204-.376-2.433c-.245-.7126-.608-1.2758-1.09-1.6898s-1.082-.621-1.802-.621c-.726 0-1.336.207-1.832.621-.489.414-.858.9772-1.11 1.6898-.244.7126-.366 1.5236-.366 2.433s.122 1.7204.366 2.433c.252.7126.621 1.2759 1.11 1.6899.496.4072 1.106.6108 1.832.6108zm7.835-9.1721v-3.4103h14.17v3.4103h-5.039v12.2261h-4.133v-12.2261zm22.219 12.5315c-1.609 0-2.993-.3258-4.154-.9773-1.153-.6583-2.042-1.5881-2.667-2.7893-.624-1.208-.936-2.6366-.936-4.2857 0-1.6085.312-3.0201.936-4.2349.625-1.2148 1.504-2.1615 2.637-2.8402 1.14-.6787 2.477-1.018 4.011-1.018 1.031 0 1.992.1663 2.881.4988.896.3258 1.676.8178 2.341 1.4761.672.6583 1.195 1.4863 1.568 2.4839.373.9909.56 2.1514.56 3.4816v1.191h-13.204v-2.6875h9.122c0-.6244-.136-1.1775-.408-1.6593-.271-.4819-.648-.8585-1.13-1.13-.475-.2782-1.028-.4174-1.659-.4174-.658 0-1.242.1527-1.751.4581-.502.2986-.896.7024-1.181 1.2114-.285.5023-.431 1.0621-.438 1.6797v2.5552c0 .7737.143 1.4421.428 2.0054.292.5633.702.9977 1.232 1.3031.529.3054 1.157.4581 1.883.4581.482 0 .923-.0679 1.323-.2036.401-.1358.744-.3394 1.029-.6108.285-.2715.502-.604.651-.9977l4.011.2647c-.204.9637-.621 1.8053-1.252 2.5246-.624.7126-1.432 1.2691-2.423 1.6695-.984.3937-2.121.5905-3.41.5905zm8.86-.3054v-15.6364h4.337v6.0673h1.221l4.255-6.0673h5.09l-5.527 7.7571 5.589 7.8793h-5.152l-3.858-5.5481h-1.618v5.5481zm19.793-5.7211 5.63-9.9153h4.276v15.6364h-4.133v-9.9458l-5.61 9.9458h-4.306v-15.6364h4.143z" fill="#000"/><rect fill="#f7f7f7" height="234.907" rx="15.9259" width="390.981" x="31.8521" y="98.3145"/><path d="m53.7473 116.353h-1.9037c-.0543-.312-.1544-.589-.3003-.83-.1459-.244-.3274-.451-.5446-.621s-.4649-.297-.7432-.382c-.2748-.088-.5717-.132-.8907-.132-.5667 0-1.0689.142-1.5066.428-.4378.281-.7805.695-1.0282 1.241-.2477.543-.3716 1.207-.3716 1.991 0 .797.1239 1.469.3716 2.015.2511.543.5938.954 1.0282 1.232.4377.275.9382.412 1.5015.412.3122 0 .604-.04.8755-.122.2748-.085.5209-.209.738-.371.2206-.163.4055-.363.5548-.601.1527-.238.2579-.509.3156-.814l1.9037.01c-.0713.495-.2257.96-.4632 1.394-.2342.435-.5413.818-.9213 1.151-.3801.329-.8246.587-1.3336.773-.509.184-1.074.275-1.6949.275-.9162 0-1.734-.212-2.4534-.636s-1.2861-1.037-1.7-1.837c-.414-.801-.621-1.762-.621-2.881 0-1.124.2087-2.084.626-2.881.4174-.801.9858-1.414 1.7052-1.838s1.5338-.636 2.4432-.636c.5802 0 1.1198.081 1.6186.244s.9433.402 1.3335.718c.3903.312.7109.696.962 1.15.2545.452.4208.967.4989 1.548zm2.7045-1.934v-1.583h8.317v1.583h-3.2219v8.841h-1.8731v-8.841zm11.4326 8.841h-2.0156l3.6698-10.424h2.3312l3.675 10.424h-2.0157l-2.7842-8.287h-.0814zm.0661-4.087h5.4972v1.516h-5.4972zm10.4006 4.087v-10.424h1.8884v4.413h4.8304v-4.413h1.8934v10.424h-1.8934v-4.429h-4.8304v4.429zm11.4224 2.514v-4.056h.6973c.2342-.187.453-.45.6566-.789.2036-.34.3767-.805.5192-1.395.1425-.591.2409-1.354.2952-2.291l.2749-4.407h6.6627v8.882h1.1606v4.046h-1.8121v-2.504h-6.6424v2.514zm2.8962-4.056h4.3977v-7.299h-3.1507l-.1628 2.824c-.0442.71-.1154 1.344-.2138 1.904s-.2223 1.054-.3716 1.481c-.1493.424-.3156.788-.4988 1.09zm11.6803 1.542h-2.015l3.67-10.424h2.331l3.675 10.424h-2.016l-2.784-8.287h-.081zm.067-4.087h5.497v1.516h-5.497zm10.4 4.087v-10.424h3.909c.801 0 1.473.149 2.016.447.546.299.958.71 1.237 1.232.281.519.422 1.11.422 1.772 0 .668-.141 1.262-.422 1.781-.282.519-.698.928-1.247 1.227-.55.295-1.227.443-2.031.443h-2.591v-1.553h2.336c.469 0 .852-.081 1.151-.244.298-.163.519-.387.661-.672.146-.285.219-.613.219-.982 0-.37-.073-.696-.219-.978-.142-.281-.364-.5-.666-.656-.299-.16-.684-.24-1.156-.24h-1.73v8.847zm10.2-8.841v-1.583h8.317v1.583h-3.222v8.841h-1.873v-8.841zm11.353 8.841v-10.424h1.889v4.413h4.83v-4.413h1.894v10.424h-1.894v-4.429h-4.83v4.429zm13.438 0h-2.015l3.67-10.424h2.331l3.675 10.424h-2.016l-2.784-8.287h-.082zm.066-4.087h5.498v1.516h-5.498zm18.097 4.087h-1.893v-8.847h-1.731c-.468 0-.853.07-1.155.209-.299.136-.521.336-.667.601-.143.261-.214.577-.214.946 0 .37.071.683.214.937.142.251.363.443.662.575.302.129.685.194 1.15.194h2.535v1.567h-2.79c-.8 0-1.476-.132-2.025-.397-.55-.268-.968-.646-1.253-1.135-.281-.492-.422-1.072-.422-1.741 0-.665.139-1.247.417-1.745.282-.503.696-.893 1.242-1.171.547-.278 1.218-.417 2.016-.417h3.914zm-5.39-4.724h2.061l-2.535 4.724h-2.107z" fill="#000" opacity=".6"/><path d="m406.9 296.269h-363.1036v-87.991l133.7776 18.713s227.205-48.849 229.326-49.756v-.012c.02 0 .02.004 0 .012z" fill="url(#b)" opacity=".4"/><rect fill="#04b34a" height="8.17935" rx="4.08967" width="8.17935" x="403.075" y="173.24"/><path d="m404.917 178.02-222.128 48.492c-2.66.581-5.401.687-8.097.313l-130.8959-18.148" stroke="#04b34a" stroke-width="3.18519"/><path d="m292.67 312.332v-19.396l-7.235 7.261-3.176-3.149 12.705-12.677 12.677 12.677-3.122 3.149-7.261-7.261v19.396z" fill="#04b34a"/><path d="m317.593 312.352v-4.235l9.895-9.162c.841-.815 1.547-1.548 2.117-2.199.579-.652 1.018-1.29 1.317-1.914.298-.633.448-1.317.448-2.049 0-.815-.186-1.516-.557-2.104-.371-.598-.877-1.055-1.52-1.371-.642-.326-1.371-.489-2.185-.489-.851 0-1.593.172-2.226.516-.634.344-1.122.837-1.466 1.479-.344.643-.516 1.408-.516 2.294h-5.579c0-1.819.412-3.398 1.236-4.737.823-1.339 1.977-2.375 3.461-3.108s3.194-1.099 5.131-1.099c1.99 0 3.723.352 5.198 1.058 1.484.697 2.638 1.665 3.461 2.905.824 1.24 1.235 2.66 1.235 4.262 0 1.05-.208 2.086-.624 3.108-.407 1.023-1.136 2.158-2.185 3.407-1.05 1.24-2.529 2.728-4.439 4.466l-4.058 3.977v.19h11.673v4.805zm30.022-3.801-.149 1.493c-.118 1.195-.344 2.384-.679 3.57-.325 1.194-.669 2.276-1.031 3.244-.353.968-.638 1.728-.855 2.28h-3.747c.136-.534.322-1.28.557-2.239.235-.951.457-2.018.665-3.204.208-1.185.339-2.393.394-3.624l.067-1.52zm14.091 4.181c-2.09 0-3.95-.34-5.579-1.018-1.619-.688-2.891-1.625-3.814-2.81s-1.384-2.529-1.384-4.031c0-1.159.262-2.222.787-3.19.534-.977 1.258-1.787 2.172-2.43.914-.651 1.936-1.067 3.067-1.248v-.19c-1.484-.299-2.687-1.018-3.61-2.159-.923-1.149-1.385-2.483-1.385-4.004 0-1.438.421-2.719 1.263-3.841.841-1.131 1.995-2.018 3.461-2.66 1.475-.652 3.149-.977 5.022-.977s3.543.325 5.008.977c1.475.651 2.634 1.543 3.475 2.674.842 1.122 1.267 2.398 1.276 3.827-.009 1.53-.479 2.864-1.412 4.004-.932 1.141-2.126 1.86-3.583 2.159v.19c1.113.181 2.122.597 3.027 1.248.914.643 1.638 1.453 2.172 2.43.543.968.819 2.031.828 3.19-.009 1.502-.475 2.846-1.398 4.031s-2.199 2.122-3.828 2.81c-1.62.678-3.475 1.018-5.565 1.018zm0-4.317c.932 0 1.746-.167 2.443-.502.697-.344 1.24-.814 1.629-1.412.398-.606.597-1.303.597-2.09 0-.805-.203-1.515-.611-2.131-.407-.624-.959-1.113-1.656-1.466-.696-.362-1.497-.543-2.402-.543-.896 0-1.697.181-2.403.543-.705.353-1.262.842-1.669 1.466-.398.616-.597 1.326-.597 2.131 0 .787.194 1.484.583 2.09.39.598.937 1.068 1.643 1.412.706.335 1.52.502 2.443.502zm0-12.419c.778 0 1.47-.159 2.077-.475.606-.317 1.081-.756 1.425-1.317s.516-1.208.516-1.941c0-.724-.172-1.357-.516-1.9-.344-.552-.815-.982-1.412-1.29-.597-.316-1.294-.475-2.09-.475-.787 0-1.484.159-2.09.475-.607.308-1.082.738-1.426 1.29-.334.543-.502 1.176-.502 1.9 0 .733.172 1.38.516 1.941s.819 1 1.425 1.317c.607.316 1.299.475 2.077.475zm29.724 11.143v-1.465c0-1.113.235-2.136.705-3.068.48-.941 1.172-1.692 2.077-2.253.914-.57 2.027-.855 3.339-.855 1.33 0 2.448.28 3.353.841.914.561 1.601 1.312 2.063 2.253.47.932.706 1.959.706 3.082v1.465c0 1.113-.236 2.14-.706 3.082-.471.932-1.163 1.678-2.077 2.239-.914.57-2.027.855-3.339.855-1.33 0-2.448-.285-3.352-.855-.905-.561-1.593-1.307-2.064-2.239-.47-.942-.705-1.969-.705-3.082zm3.949-1.465v1.465c0 .643.154 1.249.462 1.819.317.57.887.855 1.71.855.824 0 1.385-.28 1.683-.841.308-.561.462-1.172.462-1.833v-1.465c0-.661-.145-1.276-.435-1.846-.289-.571-.859-.856-1.71-.856-.814 0-1.38.285-1.696.856-.317.57-.476 1.185-.476 1.846zm-18.215-14.442v-1.466c0-1.122.24-2.149.72-3.081.479-.941 1.171-1.693 2.076-2.254.914-.561 2.018-.841 3.312-.841 1.339 0 2.461.28 3.366.841s1.593 1.313 2.063 2.254c.471.932.706 1.959.706 3.081v1.466c0 1.122-.24 2.149-.719 3.081-.471.932-1.163 1.678-2.077 2.239-.905.552-2.018.828-3.339.828s-2.439-.28-3.352-.841c-.905-.57-1.593-1.317-2.064-2.24-.461-.932-.692-1.954-.692-3.067zm3.977-1.466v1.466c0 .66.154 1.271.462 1.832.316.561.873.842 1.669.842.833 0 1.398-.281 1.697-.842.307-.561.461-1.172.461-1.832v-1.466c0-.661-.145-1.276-.434-1.846-.29-.57-.864-.855-1.724-.855-.805 0-1.362.289-1.669.868-.308.579-.462 1.19-.462 1.833zm-2.185 22.586 19.111-27.798h3.556l-19.111 27.798z" fill="#000"/><path d="m45.0219 196.611v-1.393l4.3112-4.467c.4604-.485.8399-.91 1.1385-1.275.3027-.369.5288-.72.6781-1.052.1493-.331.2239-.684.2239-1.057 0-.423-.0995-.788-.2986-1.095-.199-.311-.4707-.55-.8149-.716-.3443-.17-.732-.255-1.1634-.255-.4562 0-.8543.094-1.1944.28-.3401.187-.6014.45-.7839.79-.1824.341-.2737.739-.2737 1.195h-1.8352c0-.776.1783-1.454.535-2.034.3567-.581.8461-1.031 1.4682-1.35.6221-.324 1.3292-.486 2.1214-.486.8004 0 1.5055.16 2.1151.479.6138.316 1.0929.747 1.4371 1.294.3442.544.5163 1.158.5163 1.842 0 .473-.0891.935-.2675 1.387-.1742.452-.479.956-.9145 1.512-.4354.551-1.041 1.221-1.8165 2.009l-2.532 2.65v.094h5.7358v1.648zm14.8716.175c-.8917 0-1.6797-.154-2.364-.461-.6802-.307-1.2131-.73-1.5988-1.269-.3858-.539-.5765-1.153-.5724-1.841-.0041-.54.1058-1.035.3297-1.487.2281-.456.5371-.836.927-1.139.3898-.307.8253-.501 1.3064-.584v-.075c-.6346-.154-1.1426-.494-1.5242-1.02-.3815-.527-.5702-1.133-.5661-1.817-.0041-.651.168-1.232.5164-1.742.3525-.514.8357-.918 1.4495-1.213.6138-.294 1.3126-.442 2.0965-.442.7755 0 1.4681.15 2.0778.448.6138.295 1.097.699 1.4495 1.213.3525.511.5309 1.089.535 1.736-.0041.684-.199 1.29-.5848 1.817-.3857.526-.8875.866-1.5054 1.02v.075c.4769.083.9062.277 1.2877.584.3857.303.6926.683.9207 1.139.2323.452.3505.947.3546 1.487-.0041.688-.199 1.302-.5848 1.841-.3857.539-.9207.962-1.605 1.269-.6802.307-1.4619.461-2.3453.461zm0-1.574c.5267 0 .9829-.088 1.3686-.262.3857-.178.6843-.425.8958-.74.2116-.319.3194-.693.3235-1.12-.0041-.444-.1202-.835-.3483-1.176-.224-.34-.5288-.607-.9145-.802s-.8274-.292-1.3251-.292c-.5019 0-.9477.097-1.3376.292-.3898.195-.6967.462-.9207.802-.2239.341-.3338.732-.3297 1.176-.0041.427.0975.801.3048 1.12.2116.315.5122.562.9021.74.3899.174.8502.262 1.3811.262zm0-5.929c.423 0 .7983-.085 1.126-.255.3276-.17.5848-.407.7714-.709.1908-.303.2882-.658.2924-1.064-.0042-.398-.0995-.747-.2862-1.045-.1825-.299-.4375-.529-.7652-.691-.3276-.166-.7071-.249-1.1384-.249-.4396 0-.8254.083-1.1571.249-.3277.162-.5828.392-.7652.691-.1825.298-.2717.647-.2675 1.045-.0042.406.0871.761.2737 1.064.1866.302.4438.539.7714.709.3318.17.7133.255 1.1447.255zm8.6551 5.586-.0933.679c-.0622.497-.168 1.016-.3173 1.555-.1451.543-.2965 1.047-.4541 1.512-.1535.464-.28.833-.3795 1.107h-1.3189c.0539-.257.1286-.606.224-1.045.0954-.436.1887-.923.2799-1.462.0913-.539.1597-1.089.2053-1.649l.0622-.697zm5.7188-10.998v12.74h-1.9285v-10.812h-.0747l-3.0483 1.991v-1.842l3.179-2.077z" fill="#cfcfcf"/><path d="m375.506 162.545c-.854 0-1.617-.147-2.289-.441-.668-.295-1.196-.703-1.586-1.226-.386-.527-.593-1.136-.622-1.829h1.953c.025.377.151.705.38.983.232.274.535.485.908.635.373.149.788.223 1.244.223.502 0 .946-.087 1.331-.261.39-.174.695-.417.915-.728.22-.315.33-.678.33-1.088 0-.428-.11-.803-.33-1.126-.216-.328-.533-.585-.952-.772-.415-.186-.917-.28-1.505-.28h-1.077v-1.567h1.077c.472 0 .887-.085 1.244-.256.361-.17.643-.406.846-.709.203-.307.305-.665.305-1.076 0-.394-.09-.736-.268-1.026-.174-.295-.423-.525-.746-.691-.32-.166-.697-.249-1.133-.249-.414 0-.802.077-1.163.23-.357.15-.647.365-.871.647-.224.278-.344.612-.361 1.002h-1.86c.021-.689.224-1.294.61-1.817.39-.522.904-.931 1.543-1.225.638-.295 1.348-.442 2.127-.442.817 0 1.522.16 2.115.479.598.315 1.058.736 1.381 1.263.328.527.49 1.103.486 1.73.004.713-.195 1.318-.597 1.816-.399.498-.93.832-1.593 1.002v.099c.846.129 1.501.465 1.966 1.008.468.543.701 1.217.697 2.022.004.701-.191 1.329-.585 1.885-.39.556-.923.993-1.599 1.312-.676.316-1.45.473-2.321.473zm11.114.038c-.982-.005-1.822-.264-2.519-.778s-1.23-1.263-1.599-2.246-.554-2.167-.554-3.552c0-1.381.185-2.561.554-3.54.373-.979.908-1.725 1.605-2.239.701-.515 1.539-.772 2.513-.772.975 0 1.811.259 2.508.778.696.514 1.229 1.261 1.598 2.239.374.975.56 2.153.56 3.534 0 1.389-.184 2.575-.553 3.558-.369.979-.902 1.728-1.599 2.246-.697.514-1.535.772-2.514.772zm0-1.661c.863 0 1.537-.421 2.022-1.263.49-.842.734-2.059.734-3.652 0-1.058-.112-1.951-.336-2.681-.219-.734-.537-1.29-.951-1.668-.411-.381-.9-.572-1.469-.572-.858 0-1.532.423-2.021 1.269-.49.846-.737 2.063-.741 3.652 0 1.062.11 1.96.33 2.694.224.73.541 1.283.952 1.661.41.373.904.56 1.48.56zm8.679-.293-.093.678c-.063.498-.168 1.016-.318 1.556-.145.543-.296 1.047-.454 1.511-.153.465-.28.834-.379 1.108h-1.319c.054-.258.128-.606.224-1.046.095-.435.189-.922.28-1.461.091-.54.159-1.089.205-1.649l.062-.697zm6.507-11.173c.568.004 1.128.108 1.68.311s1.049.535 1.493.996c.448.46.805 1.082 1.07 1.866.27.78.406 1.75.411 2.911 0 1.116-.112 2.109-.336 2.98-.224.867-.546 1.599-.965 2.196-.414.598-.918 1.052-1.511 1.363s-1.261.466-2.003.466c-.759 0-1.433-.149-2.022-.448-.589-.298-1.068-.711-1.437-1.238-.369-.53-.6-1.14-.691-1.829h1.898c.124.548.377.992.758 1.332.386.336.884.504 1.494.504.933 0 1.661-.407 2.183-1.22.523-.817.786-1.957.79-3.421h-.099c-.216.356-.486.663-.809.92-.319.258-.678.457-1.076.598s-.824.211-1.276.211c-.734 0-1.401-.18-2.003-.541-.601-.361-1.08-.857-1.437-1.487s-.535-1.35-.535-2.159c0-.804.183-1.534.548-2.189.369-.656.883-1.174 1.542-1.556.664-.385 1.442-.574 2.333-.566zm.006 1.618c-.485 0-.922.12-1.312.36-.386.237-.691.558-.915.965-.224.402-.336.85-.336 1.343 0 .494.108.942.324 1.344.22.398.518.716.896.952.381.232.817.348 1.306.348.365 0 .705-.07 1.02-.211.316-.141.591-.336.828-.585.236-.253.421-.539.554-.858.132-.32.199-.656.199-1.008 0-.469-.112-.904-.336-1.307-.22-.402-.523-.725-.909-.97-.385-.249-.825-.373-1.319-.373z" fill="#cfcfcf"/><rect fill="#f7f7f7" height="234.907" rx="15.9259" width="390.981" x="31.8521" y="347.555"/><path d="m53.7473 365.593h-1.9037c-.0543-.312-.1544-.589-.3003-.83-.1459-.244-.3274-.451-.5446-.621-.2172-.169-.4649-.297-.7432-.381-.2748-.089-.5717-.133-.8907-.133-.5667 0-1.0689.143-1.5066.428-.4378.281-.7805.695-1.0282 1.242-.2477.543-.3716 1.206-.3716 1.99 0 .797.1239 1.469.3716 2.016.2511.542.5938.953 1.0282 1.231.4377.275.9382.413 1.5015.413.3122 0 .604-.041.8755-.123.2748-.084.5209-.208.738-.371.2206-.163.4055-.363.5548-.601.1527-.237.2579-.509.3156-.814l1.9037.01c-.0713.495-.2257.96-.4632 1.395-.2342.434-.5413.817-.9213 1.15-.3801.329-.8246.587-1.3336.774-.509.183-1.074.275-1.6949.275-.9162 0-1.734-.213-2.4534-.637s-1.2861-1.036-1.7-1.837c-.414-.801-.621-1.761-.621-2.881 0-1.123.2087-2.084.626-2.881.4174-.801.9858-1.413 1.7052-1.838.7194-.424 1.5338-.636 2.4432-.636.5802 0 1.1198.082 1.6186.245.4988.162.9433.402 1.3335.717.3903.312.7109.696.962 1.151.2545.451.4208.967.4989 1.547zm3.1626 6.907v-10.424h6.7798v1.583h-4.8914v2.83h4.5402v1.583h-4.5402v2.845h4.9322v1.583zm10.1397-10.424h2.3109l3.0947 7.553h.1221l3.0947-7.553h2.3109v10.424h-1.8121v-7.162h-.0967l-2.8809 7.131h-1.3539l-2.8809-7.146h-.0968v7.177h-1.812zm14.4229 10.424v-10.424h6.7799v1.583h-4.8915v2.83h4.5403v1.583h-4.5403v2.845h4.9322v1.583zm10.1398-10.424h1.8731v7.105h.0967l4.9016-7.105h1.6953v10.424h-1.8887v-7.1h-.0865l-4.917 7.1h-1.6745zm5.2935-2.688h1.3794c0 .594-.2155 1.076-.6464 1.446-.4276.366-1.0078.55-1.7408.55-.7262 0-1.3047-.184-1.7357-.55-.4275-.37-.6396-.852-.6362-1.446h1.3692c0 .245.0746.463.2239.657.1527.19.4123.285.7788.285.3597 0 .6159-.095.7686-.285.1561-.19.2358-.409.2392-.657zm6.7642 13.112v-10.424h1.888v4.413h4.83v-4.413h1.894v10.424h-1.894v-4.428h-4.83v4.428zm13.438 0h-2.016l3.67-10.424h2.331l3.675 10.424h-2.016l-2.784-8.286h-.081zm.066-4.087h5.497v1.517h-5.497zm18.096 4.087h-1.893v-8.846h-1.731c-.468 0-.853.069-1.155.208-.299.136-.521.336-.667.601-.142.261-.214.577-.214.947s.072.682.214.936c.143.251.363.443.662.575.302.129.685.194 1.15.194h2.535v1.568h-2.789c-.801 0-1.476-.133-2.026-.397-.55-.269-.967-.647-1.252-1.136-.282-.492-.423-1.072-.423-1.74 0-.665.139-1.247.418-1.746.281-.502.695-.893 1.242-1.171.546-.278 1.218-.417 2.015-.417h3.914zm-5.39-4.723h2.062l-2.535 4.723h-2.107z" fill="#000" opacity=".6"/><path d="m43.7964 545.509h363.1036v-58.528c2.155 0-263.168-23.49-263.168-23.49l-99.9356-21.102z" fill="url(#d)" opacity=".4"/><rect fill="#cacaca" height="8.17935" rx="4.08967" width="8.17935" x="403.075" y="482.203"/><path d="m405.713 486.981-261.982-22.694-99.9348-22.297" stroke="#cacaca" stroke-width="3.18519"/><path d="m293.67 533.611v19.397l-7.235-7.262-3.176 3.149 12.705 12.677 12.677-12.677-3.122-3.149-7.261 7.262v-19.397z" fill="#cacaca"/><path d="m318.329 556.705v-4.628l11.605-18.283h3.991v6.406h-2.362l-7.316 11.578v.218h16.492v4.709zm13.343 4.887v-6.298l.108-2.05v-19.45h5.511v27.798zm18.407-3.801-.15 1.493c-.117 1.195-.343 2.385-.678 3.57-.326 1.195-.67 2.276-1.032 3.244-.353.968-.638 1.728-.855 2.28h-3.746c.136-.533.321-1.28.556-2.239.236-.95.457-2.018.666-3.203.208-1.186.339-2.394.393-3.625l.068-1.52zm4.895 3.801 11.523-22.803v-.19h-13.424v-4.805h19.505v4.873l-11.537 22.925zm36.456-5.212v-1.466c0-1.113.235-2.136.705-3.068.48-.941 1.172-1.692 2.077-2.253.914-.57 2.027-.855 3.339-.855 1.33 0 2.448.28 3.353.841.914.562 1.601 1.313 2.063 2.254.47.932.706 1.959.706 3.081v1.466c0 1.113-.236 2.14-.706 3.081-.471.932-1.163 1.678-2.077 2.239-.914.57-2.027.855-3.339.855-1.33 0-2.448-.285-3.352-.855-.905-.561-1.593-1.307-2.064-2.239-.47-.941-.705-1.968-.705-3.081zm3.949-1.466v1.466c0 .642.154 1.248.462 1.818.317.571.887.856 1.71.856.824 0 1.385-.281 1.683-.842.308-.561.462-1.172.462-1.832v-1.466c0-.661-.145-1.276-.435-1.846-.289-.57-.859-.855-1.71-.855-.814 0-1.38.285-1.696.855-.317.57-.476 1.185-.476 1.846zm-18.215-14.442v-1.466c0-1.122.24-2.149.72-3.081.479-.941 1.171-1.692 2.076-2.253.914-.561 2.018-.842 3.312-.842 1.339 0 2.461.281 3.366.842s1.593 1.312 2.063 2.253c.471.932.706 1.959.706 3.081v1.466c0 1.122-.24 2.149-.719 3.081-.471.932-1.163 1.679-2.077 2.24-.905.552-2.018.828-3.339.828s-2.439-.281-3.352-.842c-.905-.57-1.593-1.317-2.064-2.24-.461-.932-.692-1.954-.692-3.067zm3.977-1.466v1.466c0 .66.154 1.271.462 1.832.316.561.873.842 1.669.842.833 0 1.398-.281 1.697-.842.307-.561.461-1.172.461-1.832v-1.466c0-.661-.145-1.276-.434-1.846-.29-.57-.864-.855-1.724-.855-.805 0-1.362.289-1.669.869-.308.579-.462 1.189-.462 1.832zm-2.185 22.586 19.111-27.798h3.556l-19.111 27.798z" fill="#000"/><path d="m49.4576 430.897c-.8544 0-1.6175-.147-2.2894-.442-.6677-.294-1.1965-.703-1.5864-1.225-.3857-.527-.593-1.137-.6221-1.829h1.9534c.0249.377.1514.705.3795.983.2323.273.535.485.9083.634s.788.224 1.2442.224c.5018 0 .9456-.087 1.3313-.261.3899-.174.6947-.417.9145-.728.2198-.315.3297-.678.3297-1.089 0-.427-.1099-.802-.3297-1.126-.2156-.327-.5329-.585-.9518-.771-.4147-.187-.9166-.28-1.5055-.28h-1.0762v-1.568h1.0762c.4728 0 .8875-.085 1.2442-.255.3608-.17.6429-.406.8461-.709.2032-.307.3048-.666.3048-1.076 0-.394-.0892-.737-.2675-1.027-.1742-.294-.423-.525-.7465-.69-.3194-.166-.6968-.249-1.1323-.249-.4147 0-.8025.076-1.1633.23-.3567.149-.647.365-.8709.647-.224.278-.3443.612-.3609 1.002h-1.8601c.0208-.689.224-1.294.6097-1.817.3898-.523.9041-.931 1.5428-1.226.6387-.294 1.3479-.441 2.1276-.441.8171 0 1.5221.159 2.1152.479.5972.315 1.0576.736 1.3811 1.263.3276.526.4894 1.103.4852 1.729.0042.713-.1949 1.319-.5972 1.817-.3982.497-.929.831-1.5926 1.001v.1c.8461.128 1.5013.464 1.9658 1.008.4687.543.701 1.217.6968 2.021.0042.701-.1908 1.33-.5848 1.885-.3898.556-.9228.994-1.5988 1.313-.676.315-1.4495.473-2.3204.473zm10.9833 0c-.8917 0-1.6797-.154-2.364-.461-.6801-.306-1.2131-.729-1.5988-1.269-.3857-.539-.5765-1.153-.5723-1.841-.0042-.539.1057-1.035.3297-1.487.2281-.456.5371-.836.9269-1.138.3899-.307.8254-.502 1.3064-.585v-.075c-.6345-.153-1.1426-.493-1.5241-1.02-.3816-.527-.5703-1.132-.5661-1.817-.0042-.651.1679-1.231.5163-1.741.3525-.515.8357-.919 1.4495-1.214.6138-.294 1.3127-.441 2.0965-.441.7756 0 1.4682.149 2.0779.448.6138.294 1.0969.698 1.4495 1.213.3525.51.5308 1.088.535 1.735-.0042.685-.1991 1.29-.5848 1.817s-.8875.867-1.5055 1.02v.075c.477.083.9062.278 1.2878.585.3857.302.6926.682.9207 1.138.2322.452.3504.948.3546 1.487-.0042.688-.1991 1.302-.5848 1.841-.3857.54-.9207.963-1.605 1.269-.6802.307-1.462.461-2.3454.461zm0-1.574c.5267 0 .983-.087 1.3687-.261.3857-.179.6843-.425.8958-.741.2115-.319.3193-.692.3235-1.119-.0042-.444-.1203-.836-.3484-1.176-.2239-.34-.5288-.608-.9145-.803s-.8274-.292-1.3251-.292c-.5018 0-.9476.097-1.3375.292s-.6968.463-.9207.803c-.224.34-.3339.732-.3297 1.176-.0042.427.0974.8.3048 1.119.2115.316.5122.562.9021.741.3898.174.8502.261 1.381.261zm0-5.929c.4231 0 .7984-.085 1.126-.255.3277-.17.5848-.406.7715-.709.1907-.303.2882-.657.2923-1.064-.0041-.398-.0995-.746-.2861-1.045-.1825-.299-.4376-.529-.7652-.691-.3277-.165-.7071-.248-1.1385-.248-.4396 0-.8253.083-1.1571.248-.3276.162-.5827.392-.7652.691s-.2716.647-.2675 1.045c-.0041.407.0871.761.2737 1.064.1867.303.4438.539.7715.709.3317.17.7133.255 1.1446.255zm8.6552 5.587-.0934.678c-.0622.498-.1679 1.016-.3172 1.555-.1452.543-.2966 1.047-.4542 1.512-.1534.464-.2799.833-.3794 1.107h-1.3189c.0539-.257.1286-.605.2239-1.045.0954-.435.1887-.923.28-1.462.0912-.539.1597-1.089.2053-1.648l.0622-.697zm2.4247 1.742v-1.394l4.3112-4.467c.4604-.485.8398-.91 1.1385-1.275.3027-.369.5287-.719.6781-1.051.1493-.332.2239-.685.2239-1.058 0-.423-.0995-.788-.2986-1.095-.1991-.311-.4707-.549-.815-.715-.3442-.17-.732-.255-1.1633-.255-.4562 0-.8544.093-1.1944.28-.3401.186-.6014.45-.7839.79s-.2737.738-.2737 1.194h-1.8352c0-.775.1783-1.453.535-2.034.3566-.581.846-1.031 1.4681-1.35.6222-.324 1.3293-.485 2.1214-.485.8005 0 1.5055.159 2.1152.479.6138.315 1.0928.746 1.4371 1.294.3442.543.5163 1.157.5163 1.841 0 .473-.0892.935-.2675 1.387-.1742.453-.479.956-.9145 1.512-.4355.552-1.041 1.222-1.8165 2.01l-2.532 2.65v.093h5.7358v1.649z" fill="#cfcfcf"/><path d="m376.559 473.897c-.854 0-1.617-.147-2.289-.442-.668-.294-1.196-.703-1.586-1.225-.386-.527-.593-1.137-.622-1.829h1.953c.025.377.151.705.38.983.232.273.535.485.908.634s.788.224 1.244.224c.502 0 .946-.087 1.331-.261.39-.174.695-.417.915-.728.22-.315.33-.678.33-1.089 0-.427-.11-.802-.33-1.126-.216-.327-.533-.585-.952-.771-.415-.187-.917-.28-1.505-.28h-1.077v-1.568h1.077c.472 0 .887-.085 1.244-.255.361-.17.643-.406.846-.709.203-.307.305-.666.305-1.076 0-.394-.09-.737-.268-1.027-.174-.294-.423-.525-.746-.69-.32-.166-.697-.249-1.133-.249-.414 0-.802.076-1.163.23-.357.149-.647.365-.871.647-.224.278-.344.612-.361 1.002h-1.86c.021-.689.224-1.294.61-1.817.39-.523.904-.931 1.543-1.226.638-.294 1.348-.441 2.127-.441.817 0 1.522.159 2.115.479.598.315 1.058.736 1.381 1.263.328.526.49 1.103.486 1.729.004.713-.195 1.319-.597 1.817-.399.497-.929.831-1.593 1.001v.1c.846.128 1.501.464 1.966 1.008.468.543.701 1.217.697 2.021.004.701-.191 1.33-.585 1.885-.39.556-.923.994-1.599 1.313-.676.315-1.45.473-2.321.473zm11.115 0c-.855 0-1.618-.147-2.29-.442-.668-.294-1.196-.703-1.586-1.225-.386-.527-.593-1.137-.622-1.829h1.953c.025.377.151.705.38.983.232.273.535.485.908.634s.788.224 1.244.224c.502 0 .946-.087 1.331-.261.39-.174.695-.417.915-.728.22-.315.33-.678.33-1.089 0-.427-.11-.802-.33-1.126-.216-.327-.533-.585-.952-.771-.415-.187-.917-.28-1.505-.28h-1.077v-1.568h1.077c.472 0 .887-.085 1.244-.255.361-.17.643-.406.846-.709.203-.307.305-.666.305-1.076 0-.394-.09-.737-.268-1.027-.174-.294-.423-.525-.746-.69-.32-.166-.697-.249-1.133-.249-.414 0-.802.076-1.163.23-.357.149-.647.365-.871.647-.224.278-.344.612-.361 1.002h-1.86c.021-.689.224-1.294.61-1.817.39-.523.904-.931 1.543-1.226.638-.294 1.348-.441 2.127-.441.817 0 1.522.159 2.115.479.598.315 1.058.736 1.382 1.263.327.526.489 1.103.485 1.729.004.713-.195 1.319-.597 1.817-.399.497-.929.831-1.593 1.001v.1c.846.128 1.501.464 1.966 1.008.468.543.701 1.217.697 2.021.004.701-.191 1.33-.585 1.885-.39.556-.923.994-1.599 1.313-.676.315-1.45.473-2.32.473zm8.746-1.916-.093.678c-.062.498-.168 1.016-.317 1.555-.145.543-.297 1.047-.454 1.512-.154.464-.28.833-.38 1.107h-1.319c.054-.257.129-.605.224-1.045.096-.435.189-.923.28-1.462s.16-1.089.206-1.648l.062-.697zm6.425 1.916c-.779 0-1.48-.149-2.102-.448-.618-.303-1.112-.718-1.481-1.244-.369-.527-.566-1.128-.591-1.804h1.866c.046.547.289.997.728 1.35.44.352.966.528 1.58.528.49 0 .923-.112 1.3-.336.382-.228.681-.541.896-.939.22-.398.33-.852.33-1.362 0-.519-.112-.981-.336-1.388-.224-.406-.533-.725-.927-.958-.39-.232-.838-.35-1.344-.354-.385 0-.773.066-1.163.199-.39.132-.705.307-.946.522l-1.76-.261.715-6.42h7.005v1.648h-5.406l-.404 3.565h.074c.249-.24.579-.442.99-.603.414-.162.858-.243 1.331-.243.775 0 1.466.185 2.072.554.609.369 1.088.873 1.437 1.511.352.635.526 1.365.522 2.19.004.826-.182 1.562-.56 2.209-.373.647-.891 1.157-1.555 1.53-.659.369-1.416.554-2.271.554z" fill="#cfcfcf"/><rect fill="#f7f7f7" height="234.907" rx="15.9259" width="390.981" x="437.167" y="347.555"/><path d="m452.027 362.076v10.424h-1.888v-10.424zm3.021 1.583v-1.583h8.317v1.583h-3.222v8.841h-1.874v-8.841zm15.367 2.87v1.517h-4.693v-1.517zm3.452-4.453h1.874v7.105h.096l4.902-7.105h1.695v10.424h-1.889v-7.1h-.086l-4.917 7.1h-1.675zm20.563 0v10.424h-1.873v-8.857h-4.561v8.857h-1.873v-10.424zm13.007 5.212c0 1.123-.211 2.085-.631 2.886-.418.797-.988 1.408-1.711 1.832-.719.424-1.535.637-2.448.637s-1.731-.213-2.453-.637c-.72-.427-1.29-1.04-1.711-1.837-.417-.801-.626-1.761-.626-2.881 0-1.123.209-2.084.626-2.881.421-.801.991-1.413 1.711-1.838.722-.424 1.54-.636 2.453-.636s1.729.212 2.448.636c.723.425 1.293 1.037 1.711 1.838.42.797.631 1.758.631 2.881zm-1.899 0c0-.791-.124-1.458-.371-2-.245-.547-.584-.959-1.018-1.237-.435-.282-.935-.423-1.502-.423s-1.067.141-1.501.423c-.435.278-.776.69-1.024 1.237-.244.542-.366 1.209-.366 2s.122 1.459.366 2.005c.248.543.589.956 1.024 1.237.434.278.934.418 1.501.418s1.067-.14 1.502-.418c.434-.281.773-.694 1.018-1.237.247-.546.371-1.214.371-2.005zm4.197-3.629v-1.583h8.317v1.583h-3.222v8.841h-1.873v-8.841zm11.354 8.841v-10.424h6.78v1.583h-4.892v2.83h4.541v1.583h-4.541v2.845h4.933v1.583zm16.385 0-3.431-4.556h-.926v4.556h-1.888v-10.424h1.888v4.286h.473l3.706-4.286h2.326l-4.118 4.754 4.296 5.67zm6.381 0h-2.016l3.67-10.424h2.331l3.675 10.424h-2.015l-2.785-8.286h-.081zm.066-4.087h5.497v1.517h-5.497z" fill="#000" opacity=".6"/><path d="m812.215 545.509h-363.104v-52.556l84.407-23.491s276.569-14.115 278.697-14.331v-.002c.016 0 .016.001 0 .002z" fill="url(#e)" opacity=".4"/><rect fill="#04b34a" height="8.17935" rx="4.08967" width="8.17935" x="808.39" y="451.945"/><path d="m811.425 455.527-274.158 13.807c-1.698.085-3.381.358-5.019.813l-83.536 23.204" stroke="#04b34a" stroke-width="3.18519"/><path d="m698.984 561.572v-19.396l-7.234 7.262-3.176-3.149 12.704-12.678 12.678 12.678-3.122 3.149-7.262-7.262v19.396z" fill="#04b34a"/><path d="m735.15 562.203c-2.334-.009-4.343-.584-6.026-1.724-1.674-1.14-2.964-2.792-3.868-4.954-.896-2.163-1.34-4.765-1.331-7.805 0-3.031.448-5.615 1.344-7.75.905-2.136 2.194-3.76 3.869-4.873 1.683-1.122 3.687-1.683 6.012-1.683 2.326 0 4.326.561 6 1.683 1.683 1.122 2.977 2.751 3.882 4.886.905 2.127 1.353 4.706 1.344 7.737 0 3.049-.453 5.655-1.358 7.818-.896 2.163-2.181 3.814-3.855 4.954-1.674 1.141-3.678 1.711-6.013 1.711zm0-4.873c1.593 0 2.864-.801 3.815-2.403.95-1.601 1.42-4.004 1.411-7.207 0-2.108-.217-3.864-.651-5.266-.426-1.403-1.032-2.457-1.819-3.163-.778-.706-1.697-1.059-2.756-1.059-1.583 0-2.85.792-3.8 2.376-.95 1.583-1.43 3.954-1.439 7.112 0 2.135.213 3.918.638 5.348.434 1.42 1.045 2.488 1.833 3.203.787.706 1.71 1.059 2.768 1.059zm20.243.461-.149 1.493c-.118 1.195-.344 2.385-.679 3.57-.325 1.195-.669 2.276-1.031 3.244-.353.968-.638 1.728-.855 2.28h-3.747c.136-.533.322-1.28.557-2.239.235-.95.457-2.018.665-3.203.208-1.186.339-2.394.394-3.625l.067-1.52zm4.895 3.801 11.524-22.803v-.19h-13.424v-4.805h19.505v4.873l-11.538 22.925zm36.456-5.212v-1.466c0-1.113.235-2.136.706-3.068.479-.941 1.172-1.692 2.077-2.253.914-.57 2.027-.855 3.339-.855 1.33 0 2.447.28 3.352.841.914.562 1.602 1.313 2.063 2.254.471.932.706 1.959.706 3.081v1.466c0 1.113-.235 2.14-.706 3.081-.47.932-1.162 1.678-2.076 2.239-.914.57-2.027.855-3.339.855-1.331 0-2.448-.285-3.353-.855-.905-.561-1.593-1.307-2.063-2.239-.471-.941-.706-1.968-.706-3.081zm3.95-1.466v1.466c0 .642.154 1.248.461 1.818.317.571.887.856 1.711.856.823 0 1.384-.281 1.683-.842.307-.561.461-1.172.461-1.832v-1.466c0-.661-.145-1.276-.434-1.846-.29-.57-.86-.855-1.71-.855-.815 0-1.38.285-1.697.855s-.475 1.185-.475 1.846zm-18.215-14.442v-1.466c0-1.122.239-2.149.719-3.081.48-.941 1.172-1.692 2.077-2.253.914-.561 2.018-.842 3.312-.842 1.339 0 2.461.281 3.366.842s1.592 1.312 2.063 2.253c.47.932.706 1.959.706 3.081v1.466c0 1.122-.24 2.149-.72 3.081-.47.932-1.162 1.679-2.076 2.24-.905.552-2.018.828-3.339.828-1.322 0-2.439-.281-3.353-.842-.905-.57-1.593-1.317-2.063-2.24-.462-.932-.692-1.954-.692-3.067zm3.977-1.466v1.466c0 .66.153 1.271.461 1.832.317.561.873.842 1.67.842.832 0 1.398-.281 1.696-.842.308-.561.462-1.172.462-1.832v-1.466c0-.661-.145-1.276-.435-1.846-.289-.57-.864-.855-1.723-.855-.806 0-1.362.289-1.67.869-.308.579-.461 1.189-.461 1.832zm-2.186 22.586 19.111-27.798h3.557l-19.112 27.798z" fill="#000"/><path d="m450.766 476.908 5.561-10.999v-.093h-6.432v-1.649h8.423v1.705l-5.543 11.036zm9.793-1.742-.093.678c-.062.498-.168 1.017-.317 1.556-.146.543-.297 1.047-.454 1.511-.154.465-.28.834-.38 1.108h-1.319c.054-.257.129-.606.224-1.045.096-.436.189-.923.28-1.462.091-.54.16-1.089.205-1.649l.063-.697zm6.425 1.916c-.78 0-1.48-.149-2.103-.448-.618-.302-1.111-.717-1.48-1.244-.369-.526-.566-1.128-.591-1.804h1.866c.046.548.288.998.728 1.35.44.353.966.529 1.58.529.49 0 .923-.112 1.3-.336.382-.228.68-.541.896-.939.22-.399.33-.853.33-1.363 0-.518-.112-.981-.336-1.387-.224-.407-.533-.726-.927-.958-.39-.232-.838-.351-1.344-.355-.385 0-.773.067-1.163.199-.39.133-.705.307-.946.523l-1.76-.261.715-6.421h7.005v1.649h-5.406l-.404 3.565h.074c.249-.241.579-.442.989-.604.415-.161.859-.242 1.332-.242.775 0 1.466.184 2.071.553.61.369 1.089.873 1.437 1.512.353.635.527 1.365.523 2.19.004.825-.183 1.561-.56 2.208-.373.647-.892 1.157-1.555 1.531-.66.369-1.417.553-2.271.553z" fill="#cfcfcf"/><path d="m793.142 444.434c-.892 0-1.68-.153-2.364-.46-.68-.307-1.213-.73-1.599-1.27-.385-.539-.576-1.152-.572-1.841-.004-.539.106-1.035.33-1.487.228-.456.537-.835.927-1.138.389-.307.825-.502 1.306-.585v-.075c-.635-.153-1.143-.493-1.524-1.02-.382-.527-.57-1.132-.566-1.816-.004-.652.168-1.232.516-1.742.353-.515.836-.919 1.45-1.213.613-.295 1.312-.442 2.096-.442.776 0 1.468.149 2.078.448.614.294 1.097.699 1.449 1.213.353.51.531 1.089.535 1.736-.004.684-.199 1.289-.584 1.816-.386.527-.888.867-1.506 1.02v.075c.477.083.906.278 1.288.585.386.303.693.682.921 1.138.232.452.35.948.354 1.487-.004.689-.199 1.302-.584 1.841-.386.54-.921.963-1.606 1.27-.68.307-1.461.46-2.345.46zm0-1.574c.527 0 .983-.087 1.369-.261.385-.179.684-.425.896-.741.211-.319.319-.692.323-1.119-.004-.444-.12-.836-.348-1.176-.224-.34-.529-.608-.915-.803-.385-.195-.827-.292-1.325-.292-.502 0-.948.097-1.337.292-.39.195-.697.463-.921.803s-.334.732-.33 1.176c-.004.427.098.8.305 1.119.212.316.512.562.902.741.39.174.85.261 1.381.261zm0-5.929c.423 0 .798-.085 1.126-.255s.585-.406.772-.709c.19-.303.288-.657.292-1.064-.004-.398-.1-.746-.286-1.045-.183-.298-.438-.529-.765-.69-.328-.166-.708-.249-1.139-.249-.439 0-.825.083-1.157.249-.328.161-.583.392-.765.69-.183.299-.272.647-.268 1.045-.004.407.087.761.274 1.064s.444.539.771.709c.332.17.714.255 1.145.255zm8.655 5.587-.093.678c-.062.498-.168 1.016-.317 1.555-.145.544-.297 1.047-.454 1.512-.154.464-.28.834-.38 1.107h-1.319c.054-.257.129-.605.224-1.045.096-.435.189-.923.28-1.462s.16-1.088.205-1.648l.063-.697zm2.425 1.742v-1.394l4.311-4.466c.461-.486.84-.911 1.139-1.276.302-.369.528-.719.678-1.051.149-.332.224-.684.224-1.058 0-.423-.1-.788-.299-1.095-.199-.311-.471-.549-.815-.715-.344-.17-.732-.255-1.163-.255-.456 0-.855.093-1.195.28-.34.186-.601.45-.783.79-.183.34-.274.738-.274 1.194h-1.835c0-.775.178-1.453.535-2.034.356-.581.846-1.031 1.468-1.35.622-.323 1.329-.485 2.121-.485.801 0 1.506.16 2.115.479.614.315 1.093.746 1.437 1.294.345.543.517 1.157.517 1.841 0 .473-.089.936-.268 1.388-.174.452-.479.956-.914 1.511-.436.552-1.041 1.222-1.817 2.01l-2.532 2.65v.093h5.736v1.649z" fill="#cfcfcf"/><rect fill="#f7f7f7" height="234.907" rx="15.9259" width="390.981" x="31.8521" y="596.797"/><path d="m44.8246 621.742v-10.424h3.9905c.7533 0 1.3794.119 1.8782.356.5022.234.8772.555 1.1249.962.2511.407.3766.869.3766 1.385 0 .424-.0814.787-.2443 1.089-.1629.299-.3817.541-.6566.728-.2749.186-.582.32-.9213.402v.102c.3699.02.7245.134 1.0638.341.3427.203.6227.492.8399.865.2171.373.3257.825.3257 1.354 0 .54-.1306 1.025-.3919 1.456-.2613.427-.6549.765-1.1809 1.013-.5259.247-1.1876.371-1.9851.371zm1.8883-1.578h2.0309c.6855 0 1.1792-.13 1.4812-.392.3054-.264.4581-.604.4581-1.018 0-.308-.0763-.587-.229-.834-.1527-.251-.3699-.448-.6516-.591-.2816-.146-.6175-.219-1.0078-.219h-2.0818zm0-4.413h1.8681c.3257 0 .6192-.059.8805-.178.2613-.122.4666-.293.6159-.514.1527-.224.229-.489.229-.794 0-.404-.1425-.736-.4275-.998-.2817-.261-.7007-.392-1.2572-.392h-1.9088zm18.2799.779c0 1.123-.2104 2.085-.6312 2.886-.4174.798-.9874 1.408-1.7102 1.832-.7194.425-1.5355.637-2.4483.637s-1.7306-.212-2.4533-.637c-.7194-.427-1.2895-1.04-1.7103-1.837-.4174-.801-.626-1.761-.626-2.881 0-1.123.2086-2.083.626-2.881.4208-.801.9909-1.413 1.7103-1.837.7227-.424 1.5405-.637 2.4533-.637s1.7289.213 2.4483.637c.7228.424 1.2928 1.036 1.7102 1.837.4208.798.6312 1.758.6312 2.881zm-1.8986 0c0-.791-.1238-1.457-.3716-2-.2443-.547-.5836-.959-1.0179-1.237-.4344-.282-.9349-.423-1.5016-.423s-1.0672.141-1.5015.423c-.4344.278-.7754.69-1.0231 1.237-.2443.543-.3665 1.209-.3665 2s.1222 1.459.3665 2.006c.2477.542.5887.955 1.0231 1.236.4343.279.9348.418 1.5015.418s1.0672-.139 1.5016-.418c.4343-.281.7736-.694 1.0179-1.236.2478-.547.3716-1.215.3716-2.006zm5.1172 5.212v-10.424h6.7798v1.583h-4.8914v2.83h4.5402v1.583h-4.5402v2.845h4.9322v1.583zm10.1397 0v-10.424h1.8884v4.413h4.8304v-4.413h1.8934v10.424h-1.8934v-4.428h-4.8304v4.428zm12.0994 0v-10.424h1.8883v4.413h4.8304v-4.413h1.8935v10.424h-1.8935v-4.428h-4.8304v4.428zm13.4375 0h-2.015l3.67-10.424h2.331l3.675 10.424h-2.016l-2.784-8.286h-.081zm.067-4.087h5.497v1.517h-5.497zm18.096 4.087h-1.893v-8.846h-1.731c-.468 0-.853.069-1.155.209-.299.135-.521.335-.667.6-.143.261-.214.577-.214.947s.071.682.214.936c.143.252.363.443.662.576.302.129.685.193 1.15.193h2.535v1.568h-2.789c-.801 0-1.477-.133-2.026-.397-.55-.268-.967-.647-1.252-1.135-.282-.492-.423-1.073-.423-1.741 0-.665.139-1.247.417-1.746.282-.502.696-.892 1.242-1.171.547-.278 1.219-.417 2.016-.417h3.914zm-5.39-4.723h2.061l-2.534 4.723h-2.108z" fill="#000" opacity=".6"/><path d="m43.7964 794.751h363.1036v-84.009h-179.557-183.5466z" fill="url(#f)" opacity=".4"/><rect fill="#cacaca" height="8.17935" rx="4.08967" width="8.17935" x="403.075" y="705.965"/><path d="m405.713 710.742h-180.636-181.2808" stroke="#cacaca" stroke-width="3.18519"/><path d="m325.67 782.856v19.396l-7.235-7.262-3.176 3.149 12.705 12.677 12.677-12.677-3.122-3.149-7.261 7.262v-19.396z" fill="#cacaca"/><path d="m361.19 811.447c-2.335-.009-4.344-.584-6.027-1.724-1.674-1.14-2.963-2.792-3.868-4.954-.896-2.163-1.339-4.765-1.33-7.805 0-3.031.448-5.615 1.343-7.75.905-2.136 2.195-3.76 3.869-4.873 1.683-1.122 3.687-1.683 6.013-1.683 2.325 0 4.325.561 5.999 1.683 1.683 1.122 2.977 2.751 3.882 4.886.905 2.127 1.353 4.706 1.344 7.737 0 3.05-.453 5.656-1.358 7.818-.895 2.163-2.18 3.814-3.854 4.955-1.674 1.14-3.679 1.71-6.013 1.71zm0-4.873c1.592 0 2.864-.801 3.814-2.403.95-1.601 1.42-4.004 1.411-7.207 0-2.108-.217-3.864-.651-5.266-.425-1.403-1.032-2.457-1.819-3.163-.778-.706-1.697-1.059-2.755-1.059-1.584 0-2.851.792-3.801 2.376-.95 1.583-1.43 3.954-1.439 7.112 0 2.136.213 3.918.638 5.348.435 1.421 1.045 2.488 1.833 3.203.787.706 1.71 1.059 2.769 1.059zm30.239-.95v-1.466c0-1.113.235-2.136.706-3.068.48-.941 1.172-1.692 2.077-2.253.914-.57 2.027-.855 3.339-.855 1.33 0 2.447.281 3.352.842.914.561 1.602 1.312 2.063 2.253.471.932.706 1.959.706 3.081v1.466c0 1.113-.235 2.14-.706 3.081-.47.932-1.162 1.678-2.076 2.24-.914.57-2.027.855-3.339.855-1.331 0-2.448-.285-3.353-.855-.905-.562-1.593-1.308-2.063-2.24-.471-.941-.706-1.968-.706-3.081zm3.95-1.466v1.466c0 .642.154 1.249.461 1.819.317.57.887.855 1.711.855.823 0 1.384-.281 1.683-.842.307-.561.461-1.172.461-1.832v-1.466c0-.661-.145-1.276-.434-1.846-.29-.57-.86-.855-1.71-.855-.815 0-1.38.285-1.697.855s-.475 1.185-.475 1.846zm-18.215-14.442v-1.466c0-1.122.239-2.149.719-3.081.48-.941 1.172-1.692 2.077-2.253.914-.561 2.018-.842 3.312-.842 1.339 0 2.461.281 3.366.842s1.592 1.312 2.063 2.253c.47.932.706 1.959.706 3.081v1.466c0 1.122-.24 2.149-.72 3.081-.47.932-1.162 1.679-2.076 2.24-.905.552-2.018.828-3.339.828s-2.439-.281-3.353-.842c-.905-.57-1.593-1.316-2.063-2.239-.462-.932-.692-1.955-.692-3.068zm3.977-1.466v1.466c0 .661.153 1.271.461 1.832.317.561.873.842 1.67.842.832 0 1.398-.281 1.696-.842.308-.561.462-1.171.462-1.832v-1.466c0-.66-.145-1.276-.435-1.846-.289-.57-.864-.855-1.723-.855-.806 0-1.362.29-1.67.869s-.461 1.19-.461 1.832zm-2.186 22.586 19.111-27.798h3.557l-19.111 27.798z" fill="#000"/><path d="m49.4576 696.899c-.983-.004-1.8228-.263-2.5196-.778-.6967-.514-1.2297-1.262-1.5988-2.245s-.5537-2.167-.5537-3.553c0-1.381.1846-2.561.5537-3.539.3733-.979.9083-1.726 1.605-2.24.701-.514 1.5387-.771 2.5134-.771.9746 0 1.8103.259 2.507.777.6968.514 1.2297 1.261 1.5989 2.24.3732.974.5599 2.152.5599 3.533 0 1.39-.1846 2.576-.5537 3.559-.3691.979-.9021 1.727-1.5988 2.246-.6968.514-1.5346.771-2.5133.771zm0-1.661c.8626 0 1.5366-.421 2.0218-1.263.4894-.842.7341-2.059.7341-3.652 0-1.057-.112-1.951-.3359-2.681-.2199-.734-.5371-1.29-.9519-1.667-.4106-.382-.9-.573-1.4681-.573-.8586 0-1.5325.424-2.0219 1.27s-.7361 2.063-.7403 3.651c0 1.062.1099 1.96.3297 2.694.224.73.5413 1.284.9518 1.661.4106.373.9042.56 1.4807.56zm8.6784-.292-.0933.678c-.0622.497-.168 1.016-.3173 1.555-.1451.543-.2965 1.047-.4541 1.512-.1535.464-.28.833-.3795 1.107h-1.3189c.054-.257.1286-.605.224-1.045.0954-.436.1887-.923.2799-1.462.0913-.539.1597-1.089.2053-1.649l.0623-.696zm6.302 1.916c-.8916 0-1.6796-.154-2.364-.461-.6801-.307-1.2131-.73-1.5988-1.269s-.5765-1.153-.5723-1.841c-.0042-.539.1057-1.035.3297-1.487.2281-.456.5371-.836.9269-1.138.3899-.307.8254-.502 1.3065-.585v-.075c-.6346-.153-1.1426-.493-1.5242-1.02s-.5703-1.132-.5661-1.817c-.0042-.651.168-1.232.5163-1.742.3526-.514.8357-.918 1.4495-1.213.6139-.294 1.3127-.441 2.0965-.441.7756 0 1.4682.149 2.0779.447.6138.295 1.097.699 1.4495 1.214.3525.51.5308 1.088.535 1.735-.0042.685-.1991 1.29-.5848 1.817s-.8875.867-1.5055 1.02v.075c.477.083.9062.278 1.2878.585.3857.302.6926.682.9207 1.138.2322.452.3505.948.3546 1.487-.0041.688-.1991 1.302-.5848 1.841s-.9207.962-1.605 1.269c-.6802.307-1.462.461-2.3454.461zm0-1.574c.5268 0 .983-.087 1.3687-.262.3857-.178.6843-.425.8958-.74.2115-.319.3194-.692.3235-1.12-.0041-.443-.1203-.835-.3484-1.175-.2239-.34-.5288-.608-.9145-.803s-.8274-.292-1.3251-.292c-.5018 0-.9476.097-1.3375.292-.3898.195-.6967.463-.9207.803s-.3339.732-.3297 1.175c-.0042.428.0974.801.3048 1.12.2115.315.5122.562.9021.74.3898.175.8502.262 1.381.262zm0-5.929c.4231 0 .7984-.085 1.1261-.255.3276-.17.5847-.406.7714-.709.1907-.303.2882-.658.2924-1.064-.0042-.398-.0996-.747-.2862-1.045-.1825-.299-.4376-.529-.7652-.691-.3276-.166-.7071-.249-1.1385-.249-.4396 0-.8253.083-1.1571.249-.3276.162-.5827.392-.7652.691-.1825.298-.2716.647-.2675 1.045-.0041.406.0871.761.2738 1.064.1866.303.4437.539.7714.709.3318.17.7133.255 1.1446.255z" fill="#cfcfcf"/><path d="m387.907 696.899c-.983-.004-1.823-.263-2.52-.778-.696-.514-1.229-1.262-1.598-2.245s-.554-2.167-.554-3.553c0-1.381.185-2.561.554-3.539.373-.979.908-1.726 1.605-2.24.701-.514 1.538-.771 2.513-.771s1.81.259 2.507.777c.697.514 1.23 1.261 1.599 2.24.373.974.56 2.152.56 3.533 0 1.39-.185 2.576-.554 3.559-.369.979-.902 1.727-1.599 2.246-.696.514-1.534.771-2.513.771zm0-1.661c.863 0 1.537-.421 2.022-1.263.489-.842.734-2.059.734-3.652 0-1.057-.112-1.951-.336-2.681-.22-.734-.537-1.29-.952-1.667-.41-.382-.9-.573-1.468-.573-.859 0-1.532.424-2.022 1.27-.489.846-.736 2.063-.74 3.651 0 1.062.11 1.96.33 2.694.224.73.541 1.284.951 1.661.411.373.905.56 1.481.56zm8.678-.292-.093.678c-.062.497-.168 1.016-.317 1.555-.145.543-.297 1.047-.454 1.512-.154.464-.28.833-.38 1.107h-1.319c.054-.257.129-.605.224-1.045.096-.436.189-.923.28-1.462.092-.539.16-1.089.206-1.649l.062-.696zm6.302 1.916c-.891 0-1.679-.154-2.364-.461-.68-.307-1.213-.73-1.598-1.269-.386-.539-.577-1.153-.573-1.841-.004-.539.106-1.035.33-1.487.228-.456.537-.836.927-1.138.39-.307.825-.502 1.306-.585v-.075c-.634-.153-1.142-.493-1.524-1.02-.381-.527-.57-1.132-.566-1.817-.004-.651.168-1.232.516-1.742.353-.514.836-.918 1.45-1.213.614-.294 1.313-.441 2.096-.441.776 0 1.469.149 2.078.447.614.295 1.097.699 1.45 1.214.352.51.531 1.088.535 1.735-.004.685-.199 1.29-.585 1.817s-.887.867-1.505 1.02v.075c.477.083.906.278 1.287.585.386.302.693.682.921 1.138.232.452.35.948.355 1.487-.005.688-.199 1.302-.585 1.841s-.921.962-1.605 1.269c-.68.307-1.462.461-2.346.461zm0-1.574c.527 0 .983-.087 1.369-.262.386-.178.684-.425.896-.74.211-.319.319-.692.323-1.12-.004-.443-.12-.835-.348-1.175-.224-.34-.529-.608-.914-.803-.386-.195-.828-.292-1.326-.292-.501 0-.947.097-1.337.292s-.697.463-.921.803-.334.732-.329 1.175c-.005.428.097.801.304 1.12.212.315.513.562.902.74.39.175.851.262 1.381.262zm0-5.929c.424 0 .799-.085 1.126-.255.328-.17.585-.406.772-.709.191-.303.288-.658.292-1.064-.004-.398-.099-.747-.286-1.045-.182-.299-.437-.529-.765-.691-.328-.166-.707-.249-1.139-.249-.439 0-.825.083-1.157.249-.327.162-.582.392-.765.691-.182.298-.271.647-.267 1.045-.004.406.087.761.273 1.064.187.303.444.539.772.709.332.17.713.255 1.144.255z" fill="#cfcfcf"/><rect fill="#f7f7f7" height="234.907" rx="15.9259" width="390.981" x="437.167" y="596.797"/><path d="m449.462 624.257v-4.057h.697c.235-.187.453-.45.657-.789s.377-.804.519-1.395c.143-.59.241-1.354.295-2.29l.275-4.408h6.663v8.882h1.161v4.046h-1.813v-2.504h-6.642v2.515zm2.896-4.057h4.398v-7.299h-3.151l-.163 2.825c-.044.709-.115 1.344-.213 1.903-.099.56-.223 1.054-.372 1.482-.149.424-.316.787-.499 1.089zm11.681 1.542h-2.016l3.67-10.424h2.331l3.675 10.424h-2.015l-2.785-8.286h-.081zm.066-4.087h5.497v1.517h-5.497zm9.724 4.087v-1.568l.295-.015c.4-.024.718-.168.952-.432.237-.265.412-.691.524-1.278.115-.587.192-1.374.229-2.362l.173-4.769h6.831v10.424h-1.848v-8.872h-3.222l-.163 3.803c-.047 1.14-.173 2.085-.376 2.835-.2.75-.53 1.31-.988 1.679-.454.37-1.087.555-1.898.555zm13.774-6.398h2.646c.798 0 1.482.131 2.052.392.573.258 1.013.623 1.318 1.094.305.472.458 1.027.458 1.665 0 .641-.153 1.206-.458 1.695-.305.485-.745.865-1.318 1.14-.57.275-1.254.412-2.052.412h-3.904v-10.424h1.894v8.877h2.01c.421 0 .778-.08 1.069-.239.292-.16.513-.37.662-.632.153-.261.229-.544.229-.85 0-.441-.17-.816-.509-1.124-.336-.313-.819-.469-1.451-.469h-2.646zm9.744 6.398v-10.424h1.888v4.413h4.83v-4.413h1.894v10.424h-1.894v-4.428h-4.83v4.428zm12.099 0v-10.424h6.78v1.583h-4.892v2.83h4.541v1.583h-4.541v2.845h4.933v1.583zm10.14 0v-10.424h3.99c.754 0 1.38.119 1.878.356.503.234.878.555 1.125.962.251.407.377.869.377 1.385 0 .424-.081.787-.244 1.089-.163.299-.382.541-.657.728-.275.186-.582.32-.921.402v.102c.37.02.724.134 1.064.341.342.203.622.492.839.865.218.373.326.825.326 1.354 0 .54-.13 1.025-.392 1.456-.261.427-.655.765-1.181 1.013-.526.247-1.187.371-1.985.371zm1.888-1.578h2.031c.685 0 1.179-.13 1.481-.392.306-.264.458-.604.458-1.018 0-.308-.076-.587-.229-.834-.153-.251-.37-.448-.651-.591-.282-.146-.618-.219-1.008-.219h-2.082zm0-4.413h1.868c.326 0 .619-.059.881-.178.261-.122.466-.293.616-.514.152-.224.229-.489.229-.794 0-.404-.143-.736-.428-.998-.282-.261-.701-.392-1.257-.392h-1.909zm18.28.779c0 1.123-.21 2.085-.631 2.886-.418.798-.988 1.408-1.71 1.832-.72.425-1.536.637-2.449.637s-1.73-.212-2.453-.637c-.719-.427-1.29-1.04-1.71-1.837-.418-.801-.626-1.761-.626-2.881 0-1.123.208-2.083.626-2.881.42-.801.991-1.413 1.71-1.837.723-.424 1.54-.637 2.453-.637s1.729.213 2.449.637c.722.424 1.292 1.036 1.71 1.837.421.798.631 1.758.631 2.881zm-1.899 0c0-.791-.124-1.457-.371-2-.245-.547-.584-.959-1.018-1.237-.435-.282-.935-.423-1.502-.423-.566 0-1.067.141-1.501.423-.435.278-.776.69-1.023 1.237-.245.543-.367 1.209-.367 2s.122 1.459.367 2.006c.247.542.588.955 1.023 1.236.434.279.935.418 1.501.418.567 0 1.067-.139 1.502-.418.434-.281.773-.694 1.018-1.236.247-.547.371-1.215.371-2.006zm14.04-1.695h-1.903c-.055-.312-.155-.589-.301-.83-.146-.244-.327-.451-.544-.621-.218-.169-.465-.296-.743-.381-.275-.089-.572-.133-.891-.133-.567 0-1.069.143-1.507.428-.438.282-.78.696-1.028 1.242-.248.543-.372 1.206-.372 1.99 0 .797.124 1.469.372 2.016.251.543.594.953 1.028 1.231.438.275.938.413 1.502.413.312 0 .604-.041.875-.122.275-.085.521-.209.738-.372.221-.163.406-.363.555-.601.153-.237.258-.509.316-.814l1.903.01c-.071.496-.225.96-.463 1.395-.234.434-.541.818-.921 1.15-.38.329-.825.587-1.334.774-.509.183-1.074.275-1.695.275-.916 0-1.734-.212-2.453-.637-.719-.424-1.286-1.036-1.7-1.837s-.621-1.761-.621-2.881c0-1.123.209-2.083.626-2.881.417-.801.986-1.413 1.705-1.837s1.534-.637 2.443-.637c.581 0 1.12.082 1.619.245s.943.402 1.333.717c.391.313.711.696.962 1.151.255.451.421.967.499 1.547zm2.705-1.934v-1.583h8.317v1.583h-3.222v8.841h-1.873v-8.841zm20.206 3.629c0 1.123-.21 2.085-.631 2.886-.417.798-.987 1.408-1.71 1.832-.72.425-1.536.637-2.448.637-.913 0-1.731-.212-2.454-.637-.719-.427-1.289-1.04-1.71-1.837-.417-.801-.626-1.761-.626-2.881 0-1.123.209-2.083.626-2.881.421-.801.991-1.413 1.71-1.837.723-.424 1.541-.637 2.454-.637.912 0 1.728.213 2.448.637.723.424 1.293 1.036 1.71 1.837.421.798.631 1.758.631 2.881zm-1.898 0c0-.791-.124-1.457-.372-2-.244-.547-.584-.959-1.018-1.237-.434-.282-.935-.423-1.501-.423-.567 0-1.068.141-1.502.423-.434.278-.775.69-1.023 1.237-.244.543-.367 1.209-.367 2s.123 1.459.367 2.006c.248.542.589.955 1.023 1.236.434.279.935.418 1.502.418.566 0 1.067-.139 1.501-.418.434-.281.774-.694 1.018-1.236.248-.547.372-1.215.372-2.006zm5.427-5.212h1.848v3.4c0 .441.076.791.229 1.049.156.257.387.442.692.554.306.112.686.168 1.14.168.204 0 .423-.006.657-.02.238-.017.477-.039.718-.066.241-.031.471-.066.692-.107.22-.044.417-.092.59-.143v1.538c-.173.054-.366.103-.58.147s-.439.082-.677.112c-.237.031-.475.054-.712.071-.238.017-.467.026-.688.026-.797 0-1.489-.114-2.076-.341-.584-.231-1.035-.591-1.354-1.079-.319-.489-.479-1.125-.479-1.909zm6.256 0h1.858v10.424h-1.858zm5.589 10.424v-10.424h1.889v4.413h4.83v-4.413h1.893v10.424h-1.893v-4.428h-4.83v4.428zm13.438 0h-2.015l3.669-10.424h2.332l3.675 10.424h-2.016l-2.784-8.286h-.082zm.066-4.087h5.497v1.517h-5.497zm18.097 4.087h-1.894v-8.846h-1.73c-.468 0-.854.069-1.156.209-.298.135-.52.335-.666.6-.143.261-.214.577-.214.947s.071.682.214.936c.142.252.363.443.661.576.302.129.686.193 1.151.193h2.534v1.568h-2.789c-.801 0-1.476-.133-2.026-.397-.549-.268-.967-.647-1.252-1.135-.281-.492-.422-1.073-.422-1.741 0-.665.139-1.247.417-1.746.282-.502.696-.892 1.242-1.171.546-.278 1.218-.417 2.016-.417h3.914zm-5.39-4.723h2.061l-2.535 4.723h-2.107z" fill="#000" opacity=".6"/><path d="m812.215 794.751h-363.104v-103.12l183.546 48.176s177.445-3.499 179.558-3.582v-.002c.025 0 .025.001 0 .002z" fill="url(#g)" opacity=".4"/><rect fill="#cacaca" height="8.17935" rx="4.08967" width="8.17935" x="808.39" y="731.447"/><path d="m811.027 736.225-174.274 3.128c-2.107.038-4.21-.213-6.249-.745l-181.393-47.374" stroke="#cacaca" stroke-width="3.18519"/><path d="m696.984 782.856v19.396l-7.234-7.262-3.176 3.149 12.704 12.677 12.678-12.677-3.122-3.149-7.262 7.262v-19.396z" fill="#cacaca"/><path d="m732.762 811.447c-2.335-.009-4.344-.584-6.027-1.724-1.674-1.14-2.963-2.792-3.868-4.954-.896-2.163-1.34-4.765-1.33-7.805 0-3.031.447-5.615 1.343-7.75.905-2.136 2.195-3.76 3.869-4.873 1.683-1.122 3.687-1.683 6.013-1.683 2.325 0 4.325.561 5.999 1.683 1.683 1.122 2.977 2.751 3.882 4.886.905 2.127 1.353 4.706 1.344 7.737 0 3.05-.453 5.656-1.358 7.818-.896 2.163-2.18 3.814-3.854 4.955-1.675 1.14-3.679 1.71-6.013 1.71zm0-4.873c1.592 0 2.864-.801 3.814-2.403.95-1.601 1.42-4.004 1.411-7.207 0-2.108-.217-3.864-.651-5.266-.426-1.403-1.032-2.457-1.819-3.163-.778-.706-1.697-1.059-2.755-1.059-1.584 0-2.851.792-3.801 2.376-.95 1.583-1.43 3.954-1.439 7.112 0 2.136.213 3.918.638 5.348.435 1.421 1.045 2.488 1.833 3.203.787.706 1.71 1.059 2.769 1.059zm20.242.461-.149 1.493c-.118 1.195-.344 2.385-.679 3.57-.325 1.195-.669 2.276-1.031 3.244-.353.968-.638 1.729-.855 2.281h-3.747c.136-.534.322-1.281.557-2.24.235-.95.457-2.018.665-3.203.208-1.186.339-2.394.394-3.624l.068-1.521zm4.841 3.801v-4.235l9.895-9.162c.841-.814 1.547-1.547 2.117-2.199.579-.651 1.018-1.289 1.317-1.914.298-.633.448-1.316.448-2.049 0-.814-.186-1.516-.557-2.104-.371-.597-.878-1.054-1.52-1.371-.642-.326-1.371-.488-2.185-.488-.851 0-1.593.171-2.226.515-.634.344-1.122.837-1.466 1.48-.344.642-.516 1.407-.516 2.294h-5.579c0-1.819.412-3.398 1.236-4.737.823-1.34 1.977-2.376 3.461-3.109s3.194-1.099 5.13-1.099c1.991 0 3.724.353 5.199 1.059 1.484.696 2.638 1.665 3.461 2.904.824 1.24 1.235 2.661 1.235 4.262 0 1.05-.208 2.086-.624 3.109-.407 1.022-1.136 2.158-2.185 3.406-1.05 1.24-2.529 2.729-4.439 4.466l-4.058 3.977v.19h11.673v4.805zm38.899-5.212v-1.466c0-1.113.235-2.136.706-3.068.479-.941 1.172-1.692 2.077-2.253.914-.57 2.027-.855 3.339-.855 1.33 0 2.447.281 3.352.842.914.561 1.602 1.312 2.063 2.253.471.932.706 1.959.706 3.081v1.466c0 1.113-.235 2.14-.706 3.081-.47.932-1.162 1.678-2.076 2.24-.914.57-2.027.855-3.339.855-1.331 0-2.448-.285-3.353-.855-.905-.562-1.593-1.308-2.063-2.24-.471-.941-.706-1.968-.706-3.081zm3.95-1.466v1.466c0 .642.154 1.249.461 1.819.317.57.887.855 1.711.855.823 0 1.384-.281 1.683-.842.307-.561.461-1.172.461-1.832v-1.466c0-.661-.145-1.276-.434-1.846-.29-.57-.86-.855-1.71-.855-.815 0-1.38.285-1.697.855s-.475 1.185-.475 1.846zm-18.215-14.442v-1.466c0-1.122.239-2.149.719-3.081.48-.941 1.172-1.692 2.077-2.253.914-.561 2.018-.842 3.312-.842 1.339 0 2.461.281 3.366.842s1.592 1.312 2.063 2.253c.47.932.706 1.959.706 3.081v1.466c0 1.122-.24 2.149-.72 3.081-.47.932-1.162 1.679-2.076 2.24-.905.552-2.018.828-3.339.828-1.322 0-2.439-.281-3.353-.842-.905-.57-1.593-1.316-2.063-2.239-.462-.932-.692-1.955-.692-3.068zm3.977-1.466v1.466c0 .661.153 1.271.461 1.832.317.561.873.842 1.67.842.832 0 1.398-.281 1.696-.842.308-.561.462-1.171.462-1.832v-1.466c0-.66-.145-1.276-.435-1.846-.289-.57-.864-.855-1.723-.855-.806 0-1.362.29-1.67.869s-.461 1.19-.461 1.832zm-2.186 22.586 19.111-27.798h3.557l-19.112 27.798z" fill="#000"/><path d="m454.772 680.176c-.983-.004-1.823-.263-2.52-.777-.696-.515-1.229-1.263-1.598-2.246s-.554-2.167-.554-3.552c0-1.381.185-2.561.554-3.54.373-.979.908-1.725 1.605-2.24.701-.514 1.538-.771 2.513-.771s1.81.259 2.507.778c.697.514 1.23 1.26 1.599 2.239.373.975.56 2.153.56 3.534 0 1.389-.185 2.575-.554 3.558-.369.979-.902 1.728-1.599 2.246-.696.514-1.534.771-2.513.771zm0-1.661c.863 0 1.537-.421 2.022-1.263.489-.841.734-2.059.734-3.651 0-1.058-.112-1.952-.336-2.682-.22-.734-.537-1.289-.952-1.667-.41-.381-.9-.572-1.468-.572-.858 0-1.532.423-2.022 1.269-.489.846-.736 2.063-.74 3.652 0 1.061.11 1.959.33 2.693.224.73.541 1.284.951 1.661.411.374.905.56 1.481.56zm8.678-.292-.093.678c-.062.498-.168 1.016-.317 1.555-.145.544-.297 1.048-.454 1.512-.154.465-.28.834-.38 1.107h-1.319c.054-.257.129-.605.224-1.045.096-.435.189-.923.28-1.462.092-.539.16-1.088.206-1.648l.062-.697zm6.411 1.916c-.568-.008-1.128-.112-1.679-.311-.548-.199-1.045-.531-1.493-.995-.448-.465-.807-1.089-1.077-1.873-.265-.784-.398-1.763-.398-2.936 0-1.112.11-2.099.33-2.962.224-.862.545-1.59.964-2.183.419-.597.925-1.051 1.518-1.363.593-.311 1.259-.466 1.997-.466.759 0 1.433.149 2.022.448.589.298 1.066.711 1.431 1.238.369.527.603 1.126.703 1.798h-1.898c-.128-.531-.383-.965-.765-1.3-.381-.336-.879-.504-1.493-.504-.933 0-1.661.406-2.183 1.219-.519.813-.78 1.943-.784 3.39h.093c.22-.36.489-.667.809-.92.323-.257.684-.454 1.082-.591.402-.141.826-.212 1.269-.212.739 0 1.406.181 2.003.541.602.357 1.081.851 1.438 1.481.356.63.535 1.352.535 2.165s-.185 1.549-.554 2.208c-.365.66-.879 1.182-1.543 1.568-.664.382-1.439.568-2.327.56zm-.006-1.617c.49 0 .927-.121 1.313-.361.385-.241.69-.564.914-.971.224-.406.336-.86.336-1.362 0-.49-.11-.935-.329-1.338-.216-.402-.515-.721-.896-.958-.378-.236-.809-.354-1.294-.354-.369 0-.712.07-1.027.211-.311.141-.585.336-.821.585s-.423.535-.56.858c-.133.32-.199.658-.199 1.014 0 .477.11.919.33 1.326.224.406.529.734.914.983.39.244.83.367 1.319.367z" fill="#cfcfcf"/><path d="m792.604 723.176c-.983-.004-1.823-.263-2.52-.777-.696-.515-1.229-1.263-1.598-2.246-.37-.983-.554-2.167-.554-3.552 0-1.381.184-2.561.554-3.54.373-.979.908-1.725 1.605-2.24.7-.514 1.538-.771 2.513-.771s1.81.259 2.507.778c.697.514 1.23 1.26 1.599 2.239.373.975.56 2.153.56 3.534 0 1.389-.185 2.575-.554 3.558-.369.979-.902 1.728-1.599 2.246-.697.514-1.534.771-2.513.771zm0-1.661c.863 0 1.536-.421 2.022-1.263.489-.841.734-2.059.734-3.651 0-1.058-.112-1.952-.336-2.682-.22-.734-.537-1.289-.952-1.667-.411-.381-.9-.572-1.468-.572-.859 0-1.533.423-2.022 1.269s-.736 2.063-.74 3.652c0 1.061.11 1.959.329 2.693.224.73.542 1.284.952 1.661.411.374.904.56 1.481.56zm8.678-.292-.093.678c-.062.498-.168 1.016-.317 1.555-.145.544-.297 1.048-.454 1.512-.154.465-.28.834-.38 1.107h-1.319c.054-.257.129-.605.224-1.045.096-.435.189-.923.28-1.462s.16-1.088.205-1.648l.063-.697zm2.158-.747v-1.555l5.505-8.697h1.226v2.289h-.778l-3.938 6.234v.099h7.546v1.63zm6.04 2.489v-2.961l.013-.71v-9.07h1.822v12.741z" fill="#cfcfcf"/><rect fill="#f7f7f7" height="234.907" rx="15.9259" width="390.981" x="437.167" y="98.3145"/><path d="m456.842 112.836v1.583h-4.815v8.841h-1.888v-10.424zm11.884 5.212c0 1.123-.211 2.085-.632 2.886-.417.797-.987 1.408-1.71 1.832-.719.424-1.535.636-2.448.636s-1.731-.212-2.453-.636c-.72-.428-1.29-1.04-1.711-1.837-.417-.801-.626-1.762-.626-2.881 0-1.124.209-2.084.626-2.881.421-.801.991-1.414 1.711-1.838.722-.424 1.54-.636 2.453-.636s1.729.212 2.448.636c.723.424 1.293 1.037 1.71 1.838.421.797.632 1.757.632 2.881zm-1.899 0c0-.791-.124-1.458-.372-2.001-.244-.546-.583-.958-1.018-1.237-.434-.281-.934-.422-1.501-.422s-1.067.141-1.502.422c-.434.279-.775.691-1.023 1.237-.244.543-.366 1.21-.366 2.001 0 .79.122 1.459.366 2.005.248.543.589.955 1.023 1.237.435.278.935.417 1.502.417s1.067-.139 1.501-.417c.435-.282.774-.694 1.018-1.237.248-.546.372-1.215.372-2.005zm14.04-1.695h-1.904c-.054-.312-.154-.589-.3-.83-.146-.244-.328-.451-.545-.621s-.465-.297-.743-.382c-.275-.088-.572-.132-.891-.132-.566 0-1.068.142-1.506.428-.438.281-.781.695-1.028 1.241-.248.543-.372 1.207-.372 1.991 0 .797.124 1.469.372 2.015.251.543.593.954 1.028 1.232.438.275.938.412 1.501.412.312 0 .604-.04.876-.122.275-.085.521-.209.738-.371.22-.163.405-.363.555-.601.152-.238.258-.509.315-.814l1.904.01c-.071.495-.226.96-.463 1.394-.234.435-.542.818-.922 1.151-.38.329-.824.587-1.333.773-.509.184-1.074.275-1.695.275-.916 0-1.734-.212-2.453-.636-.72-.424-1.287-1.037-1.701-1.837-.414-.801-.621-1.762-.621-2.881 0-1.124.209-2.084.627-2.881.417-.801.985-1.414 1.705-1.838.719-.424 1.533-.636 2.443-.636.58 0 1.12.081 1.618.244.499.163.944.402 1.334.718.39.312.711.696.962 1.15.255.452.421.967.499 1.548zm11.668-3.517v10.424h-1.873v-8.857h-4.561v8.857h-1.873v-10.424zm13.006 5.212c0 1.123-.21 2.085-.631 2.886-.417.797-.987 1.408-1.71 1.832-.719.424-1.535.636-2.448.636s-1.731-.212-2.454-.636c-.719-.428-1.289-1.04-1.71-1.837-.417-.801-.626-1.762-.626-2.881 0-1.124.209-2.084.626-2.881.421-.801.991-1.414 1.71-1.838.723-.424 1.541-.636 2.454-.636s1.729.212 2.448.636c.723.424 1.293 1.037 1.71 1.838.421.797.631 1.757.631 2.881zm-1.898 0c0-.791-.124-1.458-.372-2.001-.244-.546-.583-.958-1.018-1.237-.434-.281-.935-.422-1.501-.422-.567 0-1.067.141-1.502.422-.434.279-.775.691-1.023 1.237-.244.543-.366 1.21-.366 2.001 0 .79.122 1.459.366 2.005.248.543.589.955 1.023 1.237.435.278.935.417 1.502.417.566 0 1.067-.139 1.501-.417.435-.282.774-.694 1.018-1.237.248-.546.372-1.215.372-2.005zm4.44 7.726v-4.056h.697c.235-.187.453-.45.657-.789.204-.34.377-.805.519-1.395.143-.591.241-1.354.295-2.291l.275-4.407h6.663v8.882h1.161v4.046h-1.812v-2.504h-6.643v2.514zm2.896-4.056h4.398v-7.299h-3.151l-.163 2.824c-.044.71-.115 1.344-.213 1.904-.099.56-.223 1.054-.372 1.481-.149.424-.315.788-.499 1.09zm10.155 4.056v-4.056h.698c.234-.187.453-.45.656-.789.204-.34.377-.805.519-1.395.143-.591.241-1.354.296-2.291l.274-4.407h6.663v8.882h1.161v4.046h-1.812v-2.504h-6.643v2.514zm2.896-4.056h4.398v-7.299h-3.15l-.163 2.824c-.044.71-.116 1.344-.214 1.904-.099.56-.222 1.054-.372 1.481-.149.424-.315.788-.499 1.09zm10.343 1.542v-10.424h6.779v1.583h-4.891v2.83h4.54v1.582h-4.54v2.846h4.932v1.583zm10.139 0v-10.424h3.909c.801 0 1.473.149 2.016.447.546.299.959.71 1.237 1.232.281.519.422 1.11.422 1.772 0 .668-.141 1.262-.422 1.781-.282.519-.697.928-1.247 1.227-.55.295-1.227.443-2.031.443h-2.591v-1.553h2.336c.469 0 .852-.081 1.151-.244.298-.163.519-.387.661-.672.146-.285.219-.613.219-.982 0-.37-.073-.696-.219-.978-.142-.281-.364-.5-.666-.656-.299-.16-.684-.24-1.156-.24h-1.73v8.847zm18.008-10.424v10.424h-1.853v-10.424zm-7.976 10.424 3.308-5.477-3.12-4.947h2.316l2.464 4.402h4.209l2.423-4.402h2.306l-3.075 4.942 3.268 5.482h-2.234l-2.418-4.271h-4.77l-2.463 4.271zm23.212 0-3.431-4.556h-.926v4.556h-1.889v-10.424h1.889v4.285h.473l3.706-4.285h2.326l-4.118 4.754 4.296 5.67zm6.381 0h-2.016l3.67-10.424h2.331l3.675 10.424h-2.016l-2.784-8.287h-.081zm.066-4.087h5.497v1.516h-5.497z" fill="#000" opacity=".6"/><path d="m812.215 296.269h-363.104v-87.991l152.889 6.371s208.096-36.673 210.215-37.415v-.011c.022 0 .022.003 0 .011z" fill="url(#h)" opacity=".4"/><rect fill="#04b34a" height="8.17935" rx="4.08967" width="8.17935" x="808.39" y="173.24"/><path d="m810.231 178.02-204.095 36.965c-1.691.306-3.41.423-5.127.347l-151.898-6.655" stroke="#04b34a" stroke-width="3.18519"/><path d="m702.984 312.332v-19.396l-7.234 7.261-3.176-3.149 12.704-12.677 12.678 12.677-3.122 3.149-7.262-7.261v19.396z" fill="#04b34a"/><path d="m740.115 284.554v27.798h-5.877v-22.22h-.163l-6.366 3.991v-5.212l6.882-4.357zm11.06 23.997-.149 1.493c-.118 1.195-.344 2.384-.679 3.57-.325 1.194-.669 2.276-1.031 3.244-.353.968-.638 1.728-.855 2.28h-3.747c.136-.534.322-1.28.557-2.239.235-.951.457-2.018.665-3.204.208-1.185.339-2.393.394-3.624l.068-1.52zm4.42-1.086v-4.628l11.605-18.283h3.991v6.406h-2.362l-7.316 11.578v.217h16.492v4.71zm13.343 4.887v-6.298l.108-2.05v-19.45h5.511v27.798zm27.806-5.213v-1.465c0-1.113.235-2.136.706-3.068.479-.941 1.172-1.692 2.077-2.253.914-.57 2.027-.855 3.339-.855 1.33 0 2.447.28 3.352.841.914.561 1.602 1.312 2.063 2.253.471.932.706 1.959.706 3.082v1.465c0 1.113-.235 2.14-.706 3.082-.47.932-1.162 1.678-2.076 2.239-.914.57-2.027.855-3.339.855-1.331 0-2.448-.285-3.353-.855-.905-.561-1.593-1.307-2.063-2.239-.471-.942-.706-1.969-.706-3.082zm3.95-1.465v1.465c0 .643.154 1.249.461 1.819.317.57.887.855 1.711.855.823 0 1.384-.28 1.683-.841.307-.561.461-1.172.461-1.833v-1.465c0-.661-.145-1.276-.434-1.846-.29-.571-.86-.856-1.71-.856-.815 0-1.38.285-1.697.856-.317.57-.475 1.185-.475 1.846zm-18.215-14.442v-1.466c0-1.122.239-2.149.719-3.081.48-.941 1.172-1.693 2.077-2.254.914-.561 2.018-.841 3.312-.841 1.339 0 2.461.28 3.366.841s1.592 1.313 2.063 2.254c.47.932.706 1.959.706 3.081v1.466c0 1.122-.24 2.149-.72 3.081-.47.932-1.162 1.678-2.076 2.239-.905.552-2.018.828-3.339.828-1.322 0-2.439-.28-3.353-.841-.905-.57-1.593-1.317-2.063-2.24-.462-.932-.692-1.954-.692-3.067zm3.977-1.466v1.466c0 .66.153 1.271.461 1.832.317.561.873.842 1.67.842.832 0 1.398-.281 1.696-.842.308-.561.462-1.172.462-1.832v-1.466c0-.661-.145-1.276-.435-1.846-.289-.57-.864-.855-1.723-.855-.806 0-1.362.289-1.67.868s-.461 1.19-.461 1.833zm-2.186 22.586 19.111-27.798h3.557l-19.112 27.798z" fill="#000"/><path d="m450.336 196.611v-1.393l4.312-4.467c.46-.485.839-.91 1.138-1.275.303-.369.529-.72.678-1.052.149-.331.224-.684.224-1.057 0-.423-.099-.788-.299-1.095-.199-.311-.47-.55-.814-.716-.345-.17-.732-.255-1.164-.255-.456 0-.854.094-1.194.28-.34.187-.602.45-.784.79-.183.341-.274.739-.274 1.195h-1.835c0-.776.178-1.454.535-2.034.357-.581.846-1.031 1.468-1.35.622-.324 1.329-.486 2.122-.486.8 0 1.505.16 2.115.479.613.316 1.093.747 1.437 1.294.344.544.516 1.158.516 1.842 0 .473-.089.935-.267 1.387-.175.452-.479.956-.915 1.512-.435.551-1.041 1.221-1.816 2.009l-2.532 2.65v.094h5.735v1.648zm10.026-2.488v-1.555l5.505-8.697h1.226v2.289h-.778l-3.938 6.233v.1h7.546v1.63zm6.04 2.488v-2.961l.013-.709v-9.07h1.823v12.74zm7.478-1.742-.093.679c-.062.497-.168 1.016-.317 1.555-.146.543-.297 1.047-.455 1.512-.153.464-.28.833-.379 1.107h-1.319c.054-.257.129-.606.224-1.045.095-.436.189-.923.28-1.462s.16-1.089.205-1.649l.063-.697zm6.507-11.173c.569.005 1.129.108 1.68.311.552.204 1.049.535 1.493.996.448.46.805 1.082 1.07 1.866.27.78.407 1.75.411 2.912 0 1.115-.112 2.109-.336 2.979-.224.867-.545 1.599-.964 2.197-.415.597-.919 1.051-1.512 1.362s-1.261.467-2.003.467c-.759 0-1.433-.15-2.022-.448-.589-.299-1.068-.712-1.437-1.238-.369-.531-.599-1.141-.691-1.829h1.898c.124.547.377.991.759 1.331.385.336.883.504 1.493.504.933 0 1.661-.407 2.183-1.219.523-.818.786-1.958.79-3.422h-.099c-.216.357-.485.663-.809.921-.319.257-.678.456-1.076.597s-.823.211-1.275.211c-.735 0-1.402-.18-2.004-.541-.601-.361-1.08-.856-1.437-1.487-.356-.63-.535-1.35-.535-2.158 0-.805.183-1.535.548-2.19.369-.656.883-1.174 1.543-1.555.663-.386 1.441-.575 2.332-.567zm.007 1.618c-.486 0-.923.12-1.313.361-.386.236-.69.558-.914.964-.224.402-.336.85-.336 1.344 0 .493.107.941.323 1.343.22.399.519.716.896.952.382.233.817.349 1.306.349.365 0 .705-.071 1.021-.212.315-.141.591-.336.827-.585.236-.253.421-.539.554-.858.132-.319.199-.655.199-1.008 0-.469-.112-.904-.336-1.306-.22-.403-.523-.726-.908-.971-.386-.249-.826-.373-1.319-.373z" fill="#cfcfcf"/><path d="m777.174 162.371v-1.393l4.311-4.467c.461-.485.84-.91 1.139-1.275.302-.37.528-.72.678-1.052.149-.332.224-.684.224-1.057 0-.423-.1-.788-.299-1.095-.199-.311-.471-.55-.815-.716-.344-.17-.732-.255-1.163-.255-.456 0-.855.094-1.195.28-.34.187-.601.45-.784.79-.182.34-.273.738-.273 1.195h-1.835c0-.776.178-1.454.535-2.035.356-.58.846-1.03 1.468-1.35.622-.323 1.329-.485 2.121-.485.801 0 1.506.16 2.115.479.614.315 1.093.747 1.437 1.294.345.543.517 1.157.517 1.842 0 .472-.09.935-.268 1.387-.174.452-.479.956-.914 1.512-.436.551-1.041 1.221-1.817 2.009l-2.532 2.65v.094h5.736v1.648zm15.015.174c-.569-.008-1.129-.112-1.68-.311-.548-.199-1.045-.531-1.493-.995-.448-.465-.807-1.089-1.076-1.873-.266-.784-.399-1.762-.399-2.936 0-1.112.11-2.099.33-2.961.224-.863.546-1.591.964-2.184.419-.597.925-1.051 1.518-1.362s1.259-.467 1.997-.467c.759 0 1.433.149 2.022.448s1.066.711 1.431 1.238c.369.527.603 1.126.703 1.798h-1.897c-.129-.531-.384-.964-.766-1.3-.381-.336-.879-.504-1.493-.504-.933 0-1.661.406-2.183 1.219-.519.813-.78 1.943-.784 3.391h.093c.22-.361.49-.668.809-.921.323-.257.684-.454 1.082-.591.403-.141.826-.212 1.27-.212.738 0 1.405.181 2.003.542.601.356 1.08.85 1.437 1.48.356.631.535 1.352.535 2.165s-.185 1.549-.554 2.209c-.365.659-.879 1.182-1.543 1.567-.663.382-1.439.569-2.326.56zm-.007-1.617c.49 0 .927-.12 1.313-.361s.691-.564.915-.971c.223-.406.335-.86.335-1.362 0-.489-.109-.935-.329-1.337-.216-.403-.515-.722-.896-.958-.378-.237-.809-.355-1.294-.355-.369 0-.711.07-1.027.211-.311.141-.584.336-.821.585-.236.249-.423.535-.56.859-.132.319-.199.657-.199 1.014 0 .477.11.918.33 1.325.224.406.529.734.914.983.39.244.83.367 1.319.367zm8.382-.299-.094.678c-.062.498-.168 1.016-.317 1.556-.145.543-.296 1.047-.454 1.511-.153.465-.28.834-.379 1.108h-1.319c.054-.258.128-.606.224-1.046.095-.435.188-.922.28-1.461.091-.54.159-1.089.205-1.649l.062-.697zm6.398 1.916c-.854 0-1.617-.147-2.289-.441-.668-.295-1.197-.703-1.587-1.226-.385-.527-.593-1.136-.622-1.829h1.954c.025.377.151.705.379.983.233.274.535.485.909.635.373.149.788.223 1.244.223.502 0 .945-.087 1.331-.261.39-.174.695-.417.915-.728.219-.315.329-.678.329-1.088 0-.428-.11-.803-.329-1.126-.216-.328-.533-.585-.952-.772-.415-.186-.917-.28-1.506-.28h-1.076v-1.567h1.076c.473 0 .888-.085 1.244-.256.361-.17.643-.406.847-.709.203-.307.304-.665.304-1.076 0-.394-.089-.736-.267-1.026-.174-.295-.423-.525-.747-.691-.319-.166-.696-.249-1.132-.249-.415 0-.802.077-1.163.23-.357.15-.647.365-.871.647-.224.278-.344.612-.361 1.002h-1.86c.021-.689.224-1.294.61-1.817.389-.522.904-.931 1.542-1.225.639-.295 1.348-.442 2.128-.442.817 0 1.522.16 2.115.479.597.315 1.058.736 1.381 1.263.328.527.49 1.103.485 1.73.005.713-.194 1.318-.597 1.816-.398.498-.929.832-1.592 1.002v.099c.846.129 1.501.465 1.966 1.008.468.543.7 1.217.696 2.022.004.701-.191 1.329-.585 1.885-.389.556-.922.993-1.598 1.312-.676.316-1.45.473-2.321.473z" fill="#cfcfcf"/></svg>