<svg fill="none" height="631" viewBox="0 0 860 631" width="860" xmlns="http://www.w3.org/2000/svg" xmlns:xlink="http://www.w3.org/1999/xlink"><linearGradient id="a"><stop offset="0" stop-color="#d9d9d9"/><stop offset=".117896" stop-color="#d9d9d9" stop-opacity=".991615"/><stop offset=".213837" stop-color="#d9d9d9" stop-opacity=".967585"/><stop offset=".2912" stop-color="#d9d9d9" stop-opacity=".9296"/><stop offset=".353363" stop-color="#d9d9d9" stop-opacity=".879348"/><stop offset=".403704" stop-color="#d9d9d9" stop-opacity=".818519"/><stop offset=".4456" stop-color="#d9d9d9" stop-opacity=".7488"/><stop offset=".48243" stop-color="#d9d9d9" stop-opacity=".671881"/><stop offset=".51757" stop-color="#d9d9d9" stop-opacity=".589452"/><stop offset=".5544" stop-color="#d9d9d9" stop-opacity=".5032"/><stop offset=".596296" stop-color="#d9d9d9" stop-opacity=".414815"/><stop offset=".646637" stop-color="#d9d9d9" stop-opacity=".325985"/><stop offset=".7088" stop-color="#d9d9d9" stop-opacity=".2384"/><stop offset=".786163" stop-color="#d9d9d9" stop-opacity=".153748"/><stop offset=".882104" stop-color="#d9d9d9" stop-opacity=".073719"/><stop offset="1" stop-color="#d9d9d9" stop-opacity="0"/></linearGradient><linearGradient id="b" gradientUnits="userSpaceOnUse" x1="105.43" x2="43.7959" xlink:href="#a" y1="342.972" y2="342.972"/><linearGradient id="c" gradientUnits="userSpaceOnUse" x1="314.105" x2="182.033" xlink:href="#a" y1="342.972" y2="342.972"/><linearGradient id="d"><stop offset="0" stop-color="#04b34a"/><stop offset=".0001" stop-color="#04b34a" stop-opacity=".991615"/><stop offset=".119507" stop-color="#04b34a" stop-opacity=".967585"/><stop offset=".235693" stop-color="#04b34a" stop-opacity=".9296"/><stop offset=".322832" stop-color="#04b34a" stop-opacity=".879348"/><stop offset=".379604" stop-color="#04b34a" stop-opacity=".818519"/><stop offset=".4456" stop-color="#04b34a" stop-opacity=".7488"/><stop offset=".48243" stop-color="#04b34a" stop-opacity=".671881"/><stop offset=".51757" stop-color="#04b34a" stop-opacity=".589452"/><stop offset=".5544" stop-color="#04b34a" stop-opacity=".5032"/><stop offset=".596296" stop-color="#04b34a" stop-opacity=".414815"/><stop offset=".646637" stop-color="#04b34a" stop-opacity=".325985"/><stop offset=".7088" stop-color="#04b34a" stop-opacity=".2384"/><stop offset=".786163" stop-color="#04b34a" stop-opacity=".153748"/><stop offset=".882104" stop-color="#04b34a" stop-opacity=".073719"/><stop offset="1" stop-color="#04b34a" stop-opacity="0"/></linearGradient><linearGradient id="e" gradientUnits="userSpaceOnUse" x1="434.52" x2="315.39" xlink:href="#d" y1="342.574" y2="342.574"/><linearGradient id="f" gradientUnits="userSpaceOnUse" x1="534.413" x2="454.599" xlink:href="#d" y1="342.972" y2="342.972"/><linearGradient id="g" gradientUnits="userSpaceOnUse" x1="625.366" x2="594.463" xlink:href="#d" y1="342.972" y2="342.972"/><linearGradient id="h" gradientUnits="userSpaceOnUse" x1="795.499" x2="731.78" xlink:href="#d" y1="342.972" y2="342.972"/><linearGradient id="i" gradientUnits="userSpaceOnUse" x1="59.2044" x2="43.7959" xlink:href="#a" y1="608.732" y2="608.732"/><linearGradient id="j" gradientUnits="userSpaceOnUse" x1="277.785" x2="182.033" xlink:href="#a" y1="608.732" y2="608.732"/><linearGradient id="k" gradientUnits="userSpaceOnUse" x1="499.33" x2="313.693" xlink:href="#d" y1="608.334" y2="608.334"/><linearGradient id="l" gradientUnits="userSpaceOnUse" x1="596.739" x2="452.901" xlink:href="#d" y1="608.732" y2="608.732"/><linearGradient id="m" gradientUnits="userSpaceOnUse" x1="650.583" x2="593.19" xlink:href="#d" y1="608.732" y2="608.732"/><linearGradient id="n" gradientUnits="userSpaceOnUse" x1="864.777" x2="729.092" xlink:href="#d" y1="608.732" y2="608.732"/><path d="m0 .037231h860v630h-860z" fill="#fff"/><g fill="#eaecef"><path d="m729.078 39.0558-2.13 12.6315h2.372l-1.361 8.0722h-4.391l.65-3.8463h-11.271l-.649 3.8463h-4.391l1.362-8.0722h1.683c.77-1.0444 1.5-2.4223 2.322-5.3185l2.09-7.313h13.717zm-5.576 4.2258h-4.817l-.928 3.2528c-.809 2.8249-1.477 4.1062-2.152 5.1529h6.48z"/><path d="m732.949 39.0558h10.441c3.679 0 5.333 1.8748 4.875 4.5824-.293 1.7322-1.597 2.8479-2.82 3.3471 1.336.5222 2.393 1.8518 2.009 4.1315-.489 2.8962-2.85 4.7964-6.766 4.7964h-10.584zm3.063 10.1149-.497 2.9445h4.793c1.281 0 2.073-.4739 2.242-1.4723.172-1.0214-.463-1.4722-1.746-1.4722h-4.794zm1.065-6.3147-.424 2.5167h4.722c.997 0 1.697-.3566 1.85-1.2583.152-.9018-.429-1.2584-1.426-1.2584z"/><path d="m751.282 39.0558h4.865l-1.714 10.1609 9.14-10.1609h4.865l-2.842 16.8574h-4.865l1.707-10.1149-9.134 10.1149h-4.865z"/><path d="m775.671 47.1762-5.726-8.1204h5.505l4.77 6.8851 1.164-6.8851h4.627l-1.161 6.8851 7.095-6.8851h5.388l-8.24 7.9065 5.752 8.9509h-5.862l-4.6-7.1934-1.214 7.1934h-4.628l1.214-7.1934-7.028 7.1934h-5.648l8.594-8.737z"/><path d="m804.439 39.0558h-5.648l5.622 7.9065-8.345 8.9509h5.648l8.345-8.9509zm8.928 0h-5.648l5.623 7.9065-8.346 8.9509h5.648l8.346-8.9509zm9.158 0h-5.648l5.623 7.9065-8.345 8.9509h5.648l8.345-8.9509z"/></g><path d="m32.5336 64.918v-8.541h1.415c.4819-.3461.923-.8348 1.3234-1.4659.4004-.638.7432-1.5168 1.0282-2.6366.285-1.1266.4886-2.5993.6108-4.4181l.5904-8.8158h13.7938v17.3364h2.2803v8.5206h-4.2348v-5.0085h-12.5722v5.0289zm6.505-8.541h8.0218v-13.7022h-5.5888l-.3258 5.1816c-.0882 1.3777-.2341 2.5993-.4377 3.6648-.1968 1.0655-.4377 1.9986-.7228 2.7994-.2782.7941-.5938 1.4795-.9467 2.0564zm23.0535 3.8175c-1.5812 0-2.9487-.336-4.1025-1.0078-1.1469-.6787-2.0326-1.622-2.6569-2.8301-.6244-1.2148-.9366-2.623-.9366-4.2246 0-1.6152.3122-3.0269.9366-4.2349.6243-1.2148 1.51-2.1581 2.6569-2.83 1.1538-.6787 2.5213-1.018 4.1025-1.018 1.5813 0 2.9454.3393 4.0924 1.018 1.1537.6719 2.0427 1.6152 2.6671 2.83.6244 1.208.9366 2.6197.9366 4.2349 0 1.6016-.3122 3.0098-.9366 4.2246-.6244 1.2081-1.5134 2.1514-2.6671 2.8301-1.147.6718-2.5111 1.0078-4.0924 1.0078zm.0204-3.3594c.7194 0 1.32-.2036 1.8019-.6108.4818-.414.8449-.9773 1.0892-1.6899.2511-.7126.3767-1.5236.3767-2.433s-.1256-1.7204-.3767-2.433c-.2443-.7126-.6074-1.2759-1.0892-1.6898-.4819-.414-1.0825-.621-1.8019-.621-.7262 0-1.337.207-1.8324.621-.4886.4139-.8585.9772-1.1096 1.6898-.2443.7126-.3665 1.5236-.3665 2.433s.1222 1.7204.3665 2.433c.2511.7126.621 1.2759 1.1096 1.6899.4954.4072 1.1062.6108 1.8324.6108zm12.413-12.5824 2.8707 5.4666 2.942-5.4666h4.4487l-4.5301 7.8182 4.6522 7.8182h-4.4282l-3.0846-5.4056-3.0336 5.4056h-4.4791l4.642-7.8182-4.4792-7.8182zm18.1952 15.9418c-1.5813 0-2.9488-.336-4.1025-1.0078-1.147-.6787-2.0326-1.622-2.657-2.8301-.6244-1.2148-.9365-2.623-.9365-4.2246 0-1.6152.3121-3.0269.9365-4.2349.6244-1.2148 1.51-2.1581 2.657-2.83 1.1537-.6787 2.5212-1.018 4.1025-1.018s2.9454.3393 4.0923 1.018c1.1537.6719 2.0428 1.6152 2.6672 2.83.6248 1.208.9368 2.6197.9368 4.2349 0 1.6016-.312 3.0098-.9368 4.2246-.6244 1.2081-1.5135 2.1514-2.6672 2.8301-1.1469.6718-2.511 1.0078-4.0923 1.0078zm.0203-3.3594c.7194 0 1.32-.2036 1.8019-.6108.4818-.414.8449-.9773 1.0892-1.6899.2511-.7126.3767-1.5236.3767-2.433s-.1256-1.7204-.3767-2.433c-.2443-.7126-.6074-1.2759-1.0892-1.6898-.4819-.414-1.0825-.621-1.8019-.621-.7261 0-1.3369.207-1.8323.621-.4887.4139-.8585.9772-1.1097 1.6898-.2443.7126-.3664 1.5236-.3664 2.433s.1221 1.7204.3664 2.433c.2512.7126.621 1.2759 1.1097 1.6899.4954.4072 1.1062.6108 1.8323.6108zm8.127 7.6349v-8.0217h1.202c.346-.2172.624-.5633.834-1.0384.217-.4751.394-1.035.53-1.6797.142-.6447.251-1.3403.325-2.0869.082-.7533.153-1.5134.214-2.2803l.407-5.1103h11.992v12.1956h2.423v8.0217h-4.133v-4.5809h-9.559v4.5809zm5.518-8.0217h5.894v-8.8566h-4.215l-.162 1.7713c-.116 1.6695-.282 3.0879-.499 4.2552-.217 1.1605-.557 2.1039-1.018 2.8301zm16.508-7.3907h4.672c2.07 0 3.685.4955 4.846 1.4863 1.16.9841 1.741 2.3007 1.741 3.9498 0 1.0723-.262 2.0156-.784 2.83-.523.8076-1.276 1.4388-2.26 1.8935-.984.4479-2.165.6719-3.543.6719h-7.39v-15.6364h4.143v12.2261h3.247c.726 0 1.324-.1832 1.792-.5497s.706-.8348.713-1.4049c-.007-.604-.245-1.096-.713-1.476-.468-.3869-1.066-.5803-1.792-.5803h-4.672zm12.938 10.8315v-15.6364h4.337v15.6364zm11.34-4.4283h4.205c.02.5158.251.923.692 1.2216s1.011.4479 1.71.4479c.706 0 1.3-.1629 1.782-.4886.482-.3326.723-.8076.723-1.4252 0-.3801-.095-.7092-.286-.9875-.19-.285-.454-.509-.794-.6718-.339-.1629-.733-.2444-1.18-.2444h-2.25v-2.8402h2.25c.671 0 1.187-.1561 1.547-.4682.366-.3122.55-.7025.55-1.1707 0-.5294-.19-.9535-.57-1.2725-.374-.3258-.879-.4887-1.517-.4887-.645 0-1.181.146-1.609.4378-.42.285-.638.6583-.651 1.1198h-4.184c.013-.9366.295-1.7476.845-2.433.556-.6855 1.303-1.2148 2.239-1.5881.944-.3733 1.999-.5599 3.166-.5599 1.276 0 2.376.1799 3.299.5395.929.3529 1.642.8585 2.137 1.5169.503.6583.754 1.4421.754 2.3515 0 .828-.272 1.5202-.815 2.0767s-1.303.9535-2.28 1.1911v.1628c.645.0408 1.228.2138 1.751.5192s.94.7262 1.252 1.2623c.312.5294.468 1.1572.468 1.8833 0 .9705-.285 1.8019-.855 2.4941-.563.6922-1.343 1.225-2.341 1.5983-.991.3664-2.128.5497-3.41.5497-1.249 0-2.369-.1799-3.36-.5396-.984-.3664-1.768-.9026-2.351-1.6084-.577-.7058-.883-1.5677-.917-2.5857zm19.206 4.7235c-.998 0-1.887-.1731-2.667-.5192-.781-.3529-1.398-.8721-1.853-1.5575-.448-.6923-.672-1.5542-.672-2.5857 0-.8687.16-1.5983.479-2.1887s.753-1.0655 1.303-1.4252c.549-.3597 1.174-.6311 1.873-.8144.706-.1832 1.445-.3122 2.219-.3868.909-.095 1.642-.1833 2.199-.2647.556-.0882.96-.2172 1.211-.3868.251-.1697.377-.4208.377-.7534v-.061c0-.6448-.204-1.1436-.611-1.4965-.4-.3529-.97-.5293-1.71-.5293-.78 0-1.401.173-1.863.5191-.461.3394-.767.7669-.916 1.2827l-4.011-.3257c.204-.9502.604-1.7714 1.201-2.4636.597-.699 1.368-1.2352 2.311-1.6084.95-.3801 2.05-.5701 3.298-.5701.869 0 1.7.1018 2.494.3054.801.2036 1.51.5192 2.128.9467.624.4276 1.116.9773 1.476 1.6492.36.6651.54 1.4625.54 2.3923v10.5464h-4.113v-2.1684h-.122c-.251.4887-.587.9196-1.008 1.2929-.421.3665-.926.6549-1.517.8653-.59.2036-1.272.3054-2.046.3054zm1.242-2.9929c.638 0 1.201-.1256 1.69-.3767.488-.2579.872-.604 1.15-1.0383.278-.4344.418-.9264.418-1.4761v-1.6593c-.136.0882-.323.1696-.56.2443-.231.0678-.492.1323-.784.1934-.292.0543-.584.1052-.876.1527-.291.0407-.556.078-.794.112-.509.0746-.953.1934-1.333.3563s-.676.3834-.886.6617c-.21.2714-.315.6108-.315 1.018 0 .5904.213 1.0417.641 1.3539.434.3054.984.4581 1.649.4581zm16.907 3.0031c-1.608 0-2.992-.3258-4.153-.9773-1.154-.6583-2.043-1.5881-2.667-2.7893-.625-1.208-.937-2.6366-.937-4.2858 0-1.6084.312-3.02.937-4.2348.624-1.2148 1.503-2.1615 2.636-2.8402 1.141-.6787 2.478-1.018 4.011-1.018 1.032 0 1.992.1663 2.881.4988.896.3258 1.677.8178 2.342 1.4761.672.6583 1.194 1.4863 1.567 2.4839.374.9909.56 2.1514.56 3.4815v1.1911h-13.203v-2.6875h9.121c0-.6244-.136-1.1775-.407-1.6593-.272-.4819-.648-.8585-1.13-1.13-.475-.2783-1.028-.4174-1.659-.4174-.659 0-1.242.1527-1.751.4581-.503.2986-.896.7024-1.181 1.2114-.285.5022-.431 1.0621-.438 1.6797v2.5552c0 .7737.143 1.4421.428 2.0054.291.5633.702.9977 1.231 1.3031.53.3054 1.158.4581 1.884.4581.482 0 .923-.0679 1.323-.2036.4-.1358.743-.3394 1.028-.6108.285-.2715.502-.6041.652-.9977l4.011.2647c-.204.9637-.621 1.8052-1.252 2.5246-.625.7126-1.432 1.2691-2.423 1.6695-.984.3937-2.121.5905-3.411.5905zm-3.379-18.0796c-.584 0-1.086-.2036-1.507-.6108-.421-.414-.631-.9026-.631-1.4659 0-.5768.21-1.0655.631-1.4659s.923-.6006 1.507-.6006c.59 0 1.089.2002 1.496.6006.414.4004.621.8891.621 1.4659 0 .5633-.207 1.0519-.621 1.4659-.407.4072-.906.6108-1.496.6108zm6.23 0c-.584 0-1.086-.2036-1.507-.6108-.421-.414-.631-.9026-.631-1.4659 0-.5768.21-1.0655.631-1.4659s.923-.6006 1.507-.6006c.59 0 1.089.2002 1.496.6006.414.4004.621.8891.621 1.4659 0 .5633-.207 1.0519-.621 1.4659-.407.4072-.906.6108-1.496.6108zm15.253 12.9794 4.235-10.8416h3.298l-6.098 15.6364h-2.881l-5.955-15.6364h3.288zm-5.1-10.8416v15.6364h-4.143v-15.6364zm10.414 15.6364v-15.6364h4.092v15.6364zm30.864-3.4103-.305 7.8894h-3.981v-4.4791h-1.741v-3.4103zm-24.564-12.2261h4.143v12.1956h4.408v-12.1956h4.143v12.1956h4.408v-12.1956h4.143v15.6364h-21.245zm30.151 9.9153 5.63-9.9153h4.275v15.6364h-4.133v-9.9458l-5.609 9.9458h-4.306v-15.6364h4.143zm12.235 5.7211v-15.6364h4.337v6.0672h1.221l4.256-6.0672h5.09l-5.528 7.7571 5.589 7.8793h-5.151l-3.859-5.5481h-1.618v5.5481zm22.071.3054c-1.581 0-2.948-.336-4.102-1.0078-1.147-.6787-2.033-1.622-2.657-2.8301-.624-1.2148-.937-2.623-.937-4.2246 0-1.6152.313-3.0269.937-4.2349.624-1.2148 1.51-2.1581 2.657-2.83 1.154-.6787 2.521-1.018 4.102-1.018 1.582 0 2.946.3393 4.093 1.018 1.153.6719 2.043 1.6152 2.667 2.83.624 1.208.936 2.6197.936 4.2349 0 1.6016-.312 3.0098-.936 4.2246-.624 1.2081-1.514 2.1514-2.667 2.8301-1.147.6718-2.511 1.0078-4.093 1.0078zm.021-3.3594c.719 0 1.32-.2036 1.802-.6108.481-.414.845-.9773 1.089-1.6899.251-.7126.377-1.5236.377-2.433s-.126-1.7204-.377-2.433c-.244-.7126-.608-1.2759-1.089-1.6898-.482-.414-1.083-.621-1.802-.621-.726 0-1.337.207-1.833.621-.488.4139-.858.9772-1.109 1.6898-.245.7126-.367 1.5236-.367 2.433s.122 1.7204.367 2.433c.251.7126.621 1.2759 1.109 1.6899.496.4072 1.107.6108 1.833.6108zm9.349 3.054v-15.6364h6.667c1.928 0 3.451.3665 4.571 1.0994 1.12.733 1.68 1.7747 1.68 3.1253 0 .8483-.316 1.5541-.947 2.1174s-1.506.9433-2.626 1.1401c.936.0679 1.734.2817 2.392.6414.665.3529 1.171.811 1.517 1.3743.353.5633.529 1.1876.529 1.8731 0 .889-.237 1.6525-.712 2.2905-.469.6379-1.158 1.1265-2.067 1.4659-.903.3393-2.005.509-3.308.509zm4.041-3.2474h3.655c.604 0 1.075-.1425 1.415-.4276.346-.2918.519-.6888.519-1.191 0-.5565-.173-.9943-.519-1.3132-.34-.319-.811-.4785-1.415-.4785h-3.655zm0-5.9553h2.718c.434 0 .804-.0611 1.11-.1832.312-.129.549-.3122.712-.5497.17-.2376.255-.5192.255-.845 0-.4818-.194-.8585-.58-1.1299-.387-.2715-.917-.4072-1.589-.4072h-2.626z" fill="#000"/><rect fill="#f7f7f7" height="234.907" rx="15.9259" width="796.296" x="31.8516" y="98.778"/><path d="m44.539 115.194h1.6689l2.2351 5.455h.0882l2.235-5.455h1.669v7.528h-1.3087v-5.172h-.0698l-2.0807 5.15h-.9778l-2.0807-5.161h-.0699v5.183h-1.3086zm11.3833 7.528h-1.4557l2.6504-7.528h1.6837l2.6541 7.528h-1.4557l-2.0108-5.984h-.0588zm.0478-2.951h3.9702v1.095h-3.9702zm7.5115-4.577h1.3528v5.132h.0699l3.54-5.132h1.2242v7.528h-1.3638v-5.128h-.0625l-3.5511 5.128h-1.2095zm3.8232-1.941h.9962c0 .429-.1556.777-.4669 1.044-.3088.264-.7278.397-1.2572.397-.5245 0-.9423-.133-1.2535-.397-.3088-.267-.462-.615-.4596-1.044h.9889c0 .176.0539.334.1618.474.1102.137.2977.206.5624.206.2598 0 .4448-.069.5551-.206.1127-.137.1703-.295.1728-.474z" fill="#000" opacity=".6"/><path d="m66.9442 237.01v11.583h-1.7532v-9.83h-.0679l-2.7712 1.81v-1.674l2.89-1.889zm2.2529 9.321v-1.414l5.0052-7.907h1.1141v2.082h-.7069l-3.58 5.666v.091h6.8602v1.482zm5.4916 2.262v-2.692l.0113-.645v-8.246h1.657v11.583zm6.322-1.584-.0848.617c-.0566.452-.1527.923-.2884 1.414-.132.493-.2696.952-.4129 1.374-.1395.422-.2545.758-.345 1.007h-1.1989c.049-.234.1168-.551.2036-.951.0867-.395.1715-.839.2544-1.329.083-.49.1452-.989.1867-1.498l.0565-.634zm1.4852-.678v-1.414l5.0051-7.907h1.1142v2.082h-.707l-3.5799 5.666v.091h6.8601v1.482zm5.4915 2.262v-2.692l.0113-.645v-8.246h1.6571v11.583zm14.1586-2.172v-.611c0-.437.09-.837.271-1.199.185-.365.453-.658.803-.876.355-.223.783-.334 1.284-.334.513 0 .943.109 1.29.328s.609.511.786.877c.181.365.271.767.271 1.204v.611c0 .437-.09.839-.271 1.205-.181.362-.447.654-.798.876-.347.219-.773.328-1.278.328-.509 0-.939-.109-1.289-.328-.351-.222-.617-.514-.798-.876-.181-.366-.271-.768-.271-1.205zm1.318-.611v.611c0 .324.077.618.231.882.155.264.425.396.809.396.381 0 .647-.132.798-.396.15-.264.226-.558.226-.882v-.611c0-.324-.074-.618-.221-.882-.143-.264-.411-.396-.803-.396-.377 0-.645.132-.803.396s-.237.558-.237.882zm-7.1434-6.017v-.611c0-.437.0905-.839.2715-1.205.1848-.365.4525-.658.8031-.876.3544-.219.7823-.328 1.2838-.328.5128 0 .9426.109 1.2895.328.3465.218.6085.511.7865.876.177.366.265.768.265 1.205v.611c0 .437-.09.839-.271 1.204-.177.362-.441.655-.7919.877-.3468.219-.7729.328-1.2781.328-.5128 0-.9445-.109-1.2951-.328-.3469-.222-.6108-.515-.7918-.877-.181-.365-.2715-.767-.2715-1.204zm1.3234-.611v.611c0 .324.0754.618.2263.882.1545.264.4241.396.8087.396.377 0 .641-.132.7918-.396.1546-.264.2318-.558.2318-.882v-.611c0-.324-.0735-.618-.2205-.882-.1471-.264-.4148-.396-.8031-.396-.377 0-.6447.132-.8031.396-.1546.264-.2319.558-.2319.882zm-.7861 9.411 7.9631-11.583h1.352l-7.9634 11.583z" fill="#858585"/><path d="m43.7959 301.963h44.5926v82.0185h-44.5926z" fill="url(#b)" transform="matrix(0 -1 1 0 -258.1671 345.7589)"/><path d="m43.7959 257.371h82.0181" stroke="#cacaca" stroke-width="3.18518"/><path d="m70.856 318.917c-.745 0-1.3845-.188-1.9184-.565-.5308-.38-.9395-.928-1.2261-1.643-.2835-.717-.4253-1.582-.4253-2.592.003-1.01.1463-1.87.4298-2.579.2866-.712.6953-1.255 1.2262-1.629.5338-.374 1.1718-.561 1.9138-.561s1.3799.187 1.9138.561.9426.917 1.2261 1.629c.2866.712.4298 1.572.4298 2.579 0 1.013-.1432 1.879-.4298 2.597-.2835.715-.6922 1.261-1.2261 1.638-.5309.377-1.1688.565-1.9138.565zm0-1.416c.5791 0 1.0361-.285 1.3709-.855.3378-.573.5067-1.416.5067-2.529 0-.736-.0769-1.354-.2307-1.855-.1539-.501-.371-.878-.6515-1.131-.2806-.257-.6123-.385-.9954-.385-.5761 0-1.0316.287-1.3664.86-.3348.57-.5037 1.407-.5067 2.511-.003.739.0709 1.36.2217 1.864.1538.504.371.884.6515 1.14.2805.254.6138.38.9999.38zm8.7937-4.067v1.348h-4.1715v-1.348zm1.0275 3.588v-1.335l3.9317-6.212h1.113v1.9h-.6786l-2.6468 4.194v.073h5.4881v1.38zm4.4204 1.719v-2.127l.0181-.597v-6.542h1.5835v9.266zm6.9398-9.393c.4434.003.8747.082 1.294.236.4222.15.8023.398 1.1401.742.3378.34.6063.797.8054 1.37.199.573.2986 1.282.2986 2.127.003.796-.0815 1.508-.2534 2.135-.1689.625-.4117 1.153-.7284 1.584s-.6983.76-1.1447.986-.9486.34-1.5066.34c-.5852 0-1.104-.115-1.5564-.344-.4495-.229-.8129-.543-1.0904-.941s-.4479-.854-.5113-1.367h1.6514c.0845.368.2564.661.5158.878.2624.214.5927.321.9909.321.6424 0 1.1371-.279 1.484-.837.3468-.558.5203-1.333.5203-2.325h-.0634c-.1478.265-.3393.494-.5746.687-.2352.19-.5022.337-.8008.439-.2956.103-.6093.154-.9411.154-.5429 0-1.0315-.13-1.4659-.389-.4313-.259-.7736-.615-1.027-1.068-.2504-.452-.377-.969-.3801-1.552 0-.603.1388-1.144.4163-1.624.2805-.482.6711-.863 1.1718-1.14.5007-.281 1.0859-.418 1.7555-.412zm.0045 1.358c-.3258 0-.6198.079-.8823.239-.2594.157-.4645.371-.6153.643-.1478.268-.2217.568-.2217.9.003.329.0769.628.2217.896.1478.268.3484.481.6018.638.2564.157.5489.235.8777.235.2443 0 .4721-.047.6832-.14.2111-.094.3951-.223.552-.389.1598-.169.2835-.361.371-.575.0905-.214.1342-.44.1312-.678 0-.317-.0754-.61-.2262-.878-.1478-.269-.3514-.484-.6108-.647-.2564-.163-.5505-.244-.8823-.244zm4.5487 8.035v-6.95h1.6378v2.806h.5972l2.0904-2.806h1.973l-2.575 3.412 2.602 3.538h-1.982l-1.9048-2.62h-.8008v2.62z" fill="#5f5f5f"/><path d="m200.172 197.63v-1.267l3.92-4.061c.418-.441.763-.827 1.035-1.159.275-.336.48-.654.616-.956.136-.301.204-.622.204-.961 0-.385-.091-.717-.272-.996-.181-.282-.428-.499-.741-.65-.313-.155-.665-.232-1.057-.232-.415 0-.777.085-1.086.255-.309.169-.547.409-.713.718s-.249.671-.249 1.086h-1.668c0-.705.162-1.322.486-1.85.325-.528.77-.937 1.335-1.227.566-.294 1.209-.441 1.929-.441.727 0 1.368.145 1.923.435.558.287.993.679 1.306 1.177.313.494.469 1.052.469 1.674 0 .43-.081.85-.243 1.261-.158.411-.435.869-.831 1.374-.396.502-.947 1.111-1.652 1.827l-2.301 2.409v.085h5.214v1.499zm12.982-11.741c.516.004 1.025.098 1.527.283.501.184.954.486 1.357.905.407.418.732.984.973 1.696.245.709.369 1.591.373 2.647 0 1.014-.102 1.917-.305 2.709-.204.788-.496 1.454-.877 1.996-.377.543-.835.956-1.374 1.239s-1.146.424-1.821.424c-.69 0-1.303-.136-1.838-.407-.536-.272-.971-.647-1.307-1.125-.335-.483-.545-1.037-.627-1.663h1.724c.114.497.344.901.69 1.21.351.305.804.458 1.358.458.848 0 1.51-.369 1.985-1.108.475-.743.714-1.78.718-3.111h-.09c-.196.324-.442.603-.736.837-.29.234-.616.415-.978.543s-.748.192-1.159.192c-.668 0-1.275-.164-1.821-.492-.547-.328-.983-.778-1.307-1.351s-.486-1.228-.486-1.963c0-.731.166-1.395.497-1.991.336-.595.804-1.067 1.403-1.413.603-.351 1.31-.523 2.121-.515zm.005 1.47c-.441 0-.838.11-1.193.328-.35.215-.628.508-.831.877-.204.366-.306.773-.306 1.222 0 .448.098.855.294 1.221.2.362.472.651.815.865.347.212.743.317 1.188.317.331 0 .64-.064.927-.192s.537-.305.752-.532c.215-.23.383-.49.504-.78.12-.29.181-.596.181-.916 0-.426-.102-.822-.306-1.188-.2-.366-.475-.66-.826-.882-.35-.226-.75-.34-1.199-.34zm7.434 8.687-.085.617c-.057.452-.153.923-.288 1.414-.132.494-.27.952-.413 1.374-.14.422-.255.758-.345 1.007h-1.199c.049-.234.117-.551.203-.951.087-.395.172-.838.255-1.329.083-.49.145-.989.187-1.498l.056-.634zm5.365 1.742c-.709 0-1.346-.136-1.912-.407-.562-.275-1.01-.652-1.346-1.131-.335-.479-.515-1.026-.537-1.64h1.697c.041.497.262.907.661 1.227.4.32.879.481 1.437.481.445 0 .839-.102 1.182-.306.347-.207.618-.492.814-.854.2-.362.3-.774.3-1.238 0-.472-.102-.892-.306-1.261-.203-.37-.484-.66-.842-.871-.355-.211-.762-.319-1.222-.323-.35 0-.703.061-1.057.181-.355.121-.641.279-.86.475l-1.601-.237.651-5.837h6.368v1.499h-4.915l-.367 3.241h.068c.226-.219.526-.402.899-.549.377-.147.78-.221 1.21-.221.705 0 1.333.168 1.883.504.555.335.99.793 1.307 1.374.32.577.479 1.241.475 1.991.004.75-.166 1.419-.509 2.008-.339.588-.811 1.051-1.414 1.391-.6.335-1.288.503-2.064.503zm15.039-2.33v-.611c0-.437.09-.837.271-1.199.185-.365.453-.658.804-.876.354-.223.782-.334 1.283-.334.513 0 .943.109 1.29.328s.609.511.786.877c.181.365.271.767.271 1.204v.611c0 .437-.09.839-.271 1.205-.181.362-.447.654-.798.876-.346.219-.772.328-1.278.328-.509 0-.938-.109-1.289-.328-.351-.222-.617-.514-.798-.876-.181-.366-.271-.768-.271-1.205zm1.318-.611v.611c0 .324.077.618.232.882.154.264.424.396.808.396.381 0 .647-.132.798-.396s.226-.558.226-.882v-.611c0-.324-.074-.618-.221-.882-.143-.264-.411-.396-.803-.396-.377 0-.644.132-.803.396-.158.264-.237.558-.237.882zm-7.143-6.017v-.611c0-.437.09-.839.271-1.205.185-.365.453-.658.803-.876.355-.219.783-.328 1.284-.328.513 0 .943.109 1.29.328.346.218.609.511.786.876.177.366.266.768.266 1.205v.611c0 .437-.091.839-.272 1.204-.177.362-.441.655-.792.877-.347.219-.773.328-1.278.328-.513 0-.944-.109-1.295-.328-.347-.222-.611-.515-.792-.877-.181-.365-.271-.767-.271-1.204zm1.323-.611v.611c0 .324.076.618.226.882.155.264.425.396.809.396.377 0 .641-.132.792-.396.155-.264.232-.558.232-.882v-.611c0-.324-.074-.618-.221-.882s-.415-.396-.803-.396c-.377 0-.645.132-.803.396-.155.264-.232.558-.232.882zm-.786 9.411 7.963-11.583h1.352l-7.963 11.583z" fill="#858585"/><path d="m182.033 301.963h95.5556v82.0185h-95.5556z" fill="url(#c)" transform="matrix(0 -1 1 0 -119.93 483.996)"/><path d="m182.033 206.408h82.018" stroke="#cacaca" stroke-width="3.18518"/><path d="m205.225 318.868c-.604 0-1.143-.114-1.62-.34-.477-.229-.855-.543-1.136-.941-.277-.398-.425-.853-.443-1.366h1.629c.03.38.194.691.493.932.299.238.657.357 1.077.357.329 0 .621-.075.877-.226.257-.151.459-.36.607-.629.148-.268.22-.574.217-.918.003-.35-.071-.661-.222-.932-.151-.272-.357-.484-.62-.638-.262-.157-.564-.236-.904-.236-.278-.003-.551.049-.819.154-.269.106-.482.245-.638.417l-1.516-.249.484-4.778h5.375v1.402h-3.986l-.267 2.457h.054c.172-.202.415-.369.729-.502.314-.136.657-.204 1.031-.204.561 0 1.062.133 1.503.399.44.262.787.624 1.04 1.085.254.462.38.99.38 1.584 0 .612-.142 1.158-.425 1.638-.281.476-.671.852-1.172 1.126-.498.272-1.074.408-1.728.408zm7.756.049c-.745 0-1.384-.188-1.918-.565-.531-.38-.94-.928-1.226-1.643-.284-.717-.426-1.582-.426-2.592.003-1.01.147-1.87.43-2.579.287-.712.696-1.255 1.226-1.629.534-.374 1.172-.561 1.914-.561s1.38.187 1.914.561.943.917 1.226 1.629c.287.712.43 1.572.43 2.579 0 1.013-.143 1.879-.43 2.597-.283.715-.692 1.261-1.226 1.638-.531.377-1.169.565-1.914.565zm0-1.416c.579 0 1.036-.285 1.371-.855.338-.573.507-1.416.507-2.529 0-.736-.077-1.354-.231-1.855s-.371-.878-.651-1.131c-.281-.257-.613-.385-.996-.385-.576 0-1.031.287-1.366.86-.335.57-.504 1.407-.507 2.511-.003.739.071 1.36.222 1.864.154.504.371.884.651 1.14.281.254.614.38 1 .38zm8.794-4.067v1.348h-4.172v-1.348zm4.412-4.086c.443.003.874.082 1.294.236.422.15.802.398 1.14.742.338.34.606.797.805 1.37s.299 1.282.299 2.127c.003.796-.082 1.508-.254 2.135-.168.625-.411 1.153-.728 1.584s-.698.76-1.145.986c-.446.226-.948.34-1.506.34-.585 0-1.104-.115-1.557-.344-.449-.229-.813-.543-1.09-.941-.278-.398-.448-.854-.511-1.367h1.651c.085.368.256.661.516.878.262.214.593.321.991.321.642 0 1.137-.279 1.484-.837s.52-1.333.52-2.325h-.063c-.148.265-.34.494-.575.687-.235.19-.502.337-.801.439-.295.103-.609.154-.941.154-.543 0-1.031-.13-1.466-.389-.431-.259-.773-.615-1.027-1.068-.25-.452-.377-.969-.38-1.552 0-.603.139-1.144.416-1.624.281-.482.672-.863 1.172-1.14.501-.281 1.086-.418 1.756-.412zm.004 1.358c-.326 0-.62.079-.882.239-.259.157-.465.371-.615.643-.148.268-.222.568-.222.9.003.329.077.628.222.896.147.268.348.481.601.638.257.157.549.235.878.235.244 0 .472-.047.683-.14.211-.094.395-.223.552-.389.16-.169.284-.361.371-.575.091-.214.135-.44.132-.678 0-.317-.076-.61-.227-.878-.148-.269-.351-.484-.611-.647-.256-.163-.55-.244-.882-.244zm7.748-1.358c.443.003.874.082 1.294.236.422.15.802.398 1.14.742.338.34.606.797.805 1.37s.299 1.282.299 2.127c.003.796-.082 1.508-.254 2.135-.169.625-.411 1.153-.728 1.584s-.698.76-1.145.986c-.446.226-.948.34-1.506.34-.586 0-1.104-.115-1.557-.344-.449-.229-.813-.543-1.09-.941-.278-.398-.448-.854-.511-1.367h1.651c.084.368.256.661.516.878.262.214.592.321.991.321.642 0 1.137-.279 1.484-.837s.52-1.333.52-2.325h-.063c-.148.265-.34.494-.575.687-.235.19-.502.337-.801.439-.295.103-.609.154-.941.154-.543 0-1.031-.13-1.466-.389-.431-.259-.773-.615-1.027-1.068-.25-.452-.377-.969-.38-1.552 0-.603.139-1.144.416-1.624.281-.482.671-.863 1.172-1.14.501-.281 1.086-.418 1.756-.412zm.004 1.358c-.326 0-.62.079-.882.239-.259.157-.465.371-.615.643-.148.268-.222.568-.222.9.003.329.077.628.222.896.147.268.348.481.601.638.257.157.549.235.878.235.244 0 .472-.047.683-.14.211-.094.395-.223.552-.389.16-.169.284-.361.371-.575.091-.214.134-.44.131-.678 0-.317-.075-.61-.226-.878-.148-.269-.351-.484-.611-.647-.256-.163-.55-.244-.882-.244zm4.549 8.035v-6.95h1.638v2.806h.597l2.09-2.806h1.973l-2.575 3.412 2.602 3.538h-1.982l-1.905-2.62h-.8v2.62z" fill="#5f5f5f"/><path d="m350.269 226.658v11.583h-1.754v-9.829h-.068l-2.771 1.809v-1.674l2.89-1.889zm2.886 11.583 5.056-9.999v-.085h-5.848v-1.499h7.658v1.55l-5.039 10.033zm17.819-2.172v-.611c0-.437.09-.837.271-1.199.185-.365.453-.657.803-.876.355-.223.783-.334 1.284-.334.513 0 .943.109 1.29.328s.609.511.786.877c.181.366.271.767.271 1.204v.611c0 .438-.09.839-.271 1.205-.181.362-.447.654-.798.876-.347.219-.773.328-1.278.328-.509 0-.939-.109-1.289-.328-.351-.222-.617-.514-.798-.876-.181-.366-.271-.767-.271-1.205zm1.318-.611v.611c0 .324.077.619.231.882.155.264.425.396.809.396.381 0 .647-.132.798-.396.15-.263.226-.558.226-.882v-.611c0-.324-.074-.618-.221-.882-.143-.264-.411-.396-.803-.396-.377 0-.645.132-.803.396s-.237.558-.237.882zm-7.143-6.017v-.611c0-.437.09-.839.271-1.204.185-.366.453-.658.803-.877.355-.219.783-.328 1.284-.328.513 0 .943.109 1.289.328.347.219.609.511.787.877.177.365.265.767.265 1.204v.611c0 .437-.09.839-.271 1.205-.177.362-.441.654-.792.876-.347.219-.773.328-1.278.328-.513 0-.944-.109-1.295-.328-.347-.222-.611-.514-.792-.876-.181-.366-.271-.768-.271-1.205zm1.323-.611v.611c0 .324.075.618.226.882.155.264.424.396.809.396.377 0 .641-.132.792-.396.154-.264.232-.558.232-.882v-.611c0-.324-.074-.618-.221-.882s-.415-.396-.803-.396c-.377 0-.645.132-.803.396-.155.264-.232.558-.232.882zm-.786 9.411 7.963-11.583h1.352l-7.963 11.583z" fill="#858585"/><path d="m320.27 301.963h54.9445v81.2222h-54.9445z" fill="url(#e)" transform="matrix(0 -1 1 0 18.307 622.233)"/><path d="m320.27 247.019h81.222" stroke="#04b34a" stroke-width="3.18518"/><path d="m337.67 309.475v9.266h-1.679v-7.633h-.054l-2.167 1.385v-1.539l2.303-1.479zm5.268 9.442c-.745 0-1.384-.188-1.918-.565-.531-.38-.94-.928-1.226-1.643-.284-.717-.426-1.582-.426-2.592.003-1.01.147-1.87.43-2.579.287-.712.695-1.255 1.226-1.629.534-.374 1.172-.561 1.914-.561s1.38.187 1.914.561.942.917 1.226 1.629c.286.712.43 1.572.43 2.579 0 1.013-.144 1.879-.43 2.597-.284.715-.692 1.261-1.226 1.638-.531.377-1.169.565-1.914.565zm0-1.416c.579 0 1.036-.285 1.371-.855.338-.573.507-1.416.507-2.529 0-.736-.077-1.354-.231-1.855s-.371-.878-.652-1.131c-.28-.257-.612-.385-.995-.385-.576 0-1.032.287-1.366.86-.335.57-.504 1.407-.507 2.511-.003.739.071 1.36.222 1.864.153.504.371.884.651 1.14.281.254.614.38 1 .38zm7.988 1.416c-.745 0-1.384-.188-1.918-.565-.531-.38-.94-.928-1.226-1.643-.284-.717-.425-1.582-.425-2.592.003-1.01.146-1.87.429-2.579.287-.712.696-1.255 1.227-1.629.533-.374 1.171-.561 1.913-.561s1.38.187 1.914.561.943.917 1.226 1.629c.287.712.43 1.572.43 2.579 0 1.013-.143 1.879-.43 2.597-.283.715-.692 1.261-1.226 1.638-.531.377-1.169.565-1.914.565zm0-1.416c.579 0 1.036-.285 1.371-.855.338-.573.507-1.416.507-2.529 0-.736-.077-1.354-.231-1.855s-.371-.878-.651-1.131c-.281-.257-.613-.385-.996-.385-.576 0-1.031.287-1.366.86-.335.57-.504 1.407-.507 2.511-.003.739.071 1.36.222 1.864.154.504.371.884.651 1.14.281.254.614.38 1 .38zm8.794-4.067v1.348h-4.171v-1.348zm4.964-3.959v9.266h-1.679v-7.633h-.054l-2.167 1.385v-1.539l2.303-1.479zm1.675 7.547v-1.335l3.932-6.212h1.113v1.9h-.678l-2.647 4.194v.073h5.488v1.38zm4.421 1.719v-2.127l.018-.597v-6.542h1.583v9.266zm6.94-9.393c.443.003.874.082 1.294.236.422.15.802.398 1.14.742.338.34.606.797.805 1.37.199.574.299 1.282.299 2.127.003.796-.082 1.508-.254 2.135-.169.625-.411 1.153-.728 1.584s-.698.76-1.145.986c-.446.226-.948.34-1.506.34-.586 0-1.104-.115-1.557-.344-.449-.229-.813-.543-1.09-.941-.278-.398-.448-.854-.511-1.367h1.651c.084.368.256.661.516.878.262.214.592.321.991.321.642 0 1.137-.279 1.484-.837.346-.558.52-1.333.52-2.325h-.063c-.148.265-.34.494-.575.687-.235.19-.502.337-.801.439-.295.103-.609.154-.941.154-.543 0-1.031-.13-1.466-.389-.431-.259-.774-.615-1.027-1.068-.25-.452-.377-.969-.38-1.552 0-.603.139-1.144.416-1.624.281-.482.671-.863 1.172-1.14.501-.281 1.086-.418 1.756-.412zm.004 1.358c-.326 0-.62.079-.882.239-.26.157-.465.371-.615.643-.148.268-.222.568-.222.9.003.329.077.628.222.896.147.268.348.481.601.638.257.157.549.235.878.235.244 0 .472-.047.683-.14.211-.094.395-.223.552-.389.16-.169.284-.361.371-.575.091-.214.134-.44.131-.678 0-.317-.075-.61-.226-.878-.148-.269-.351-.484-.611-.647-.256-.163-.55-.244-.882-.244zm4.549 8.035v-6.95h1.638v2.806h.597l2.09-2.806h1.973l-2.575 3.412 2.602 3.538h-1.982l-1.905-2.62h-.8v2.62z" fill="#5f5f5f"/><path d="m481.209 246.566v11.582h-1.754v-9.829h-.067l-2.772 1.81v-1.674l2.89-1.889zm6.528 11.775c-.893-.004-1.657-.24-2.29-.707-.634-.468-1.118-1.148-1.454-2.042-.335-.894-.503-1.97-.503-3.229 0-1.256.168-2.328.503-3.218.34-.89.826-1.569 1.459-2.036.638-.468 1.399-.702 2.285-.702s1.646.236 2.279.707c.634.468 1.118 1.147 1.454 2.036.339.886.509 1.957.509 3.213 0 1.263-.168 2.341-.504 3.235-.335.889-.82 1.57-1.453 2.041-.633.468-1.395.702-2.285.702zm0-1.51c.784 0 1.397-.383 1.838-1.148.445-.766.668-1.872.668-3.32 0-.962-.102-1.774-.306-2.438-.2-.667-.488-1.172-.865-1.515-.373-.347-.818-.521-1.335-.521-.78 0-1.393.385-1.838 1.154s-.669 1.876-.673 3.32c0 .965.1 1.781.3 2.449.203.663.492 1.166.865 1.51.373.339.822.509 1.346.509zm7.414-.266-.085.616c-.057.453-.153.924-.288 1.414-.132.494-.27.952-.413 1.374-.14.423-.255.758-.345 1.007h-1.199c.049-.234.117-.55.203-.95.087-.396.172-.839.255-1.329s.145-.99.186-1.499l.057-.633zm5.341 1.742c-.777 0-1.471-.134-2.082-.402-.607-.268-1.087-.639-1.442-1.114-.35-.479-.539-1.033-.565-1.663h1.776c.022.343.137.641.345.894.211.249.486.441.825.577.34.135.717.203 1.131.203.457 0 .86-.079 1.211-.237.354-.159.631-.379.831-.662.2-.286.3-.616.3-.99 0-.388-.1-.729-.3-1.023-.196-.298-.485-.532-.865-.702-.377-.169-.834-.254-1.369-.254h-.978v-1.425h.978c.43 0 .807-.078 1.131-.232.328-.155.585-.37.769-.645.185-.279.277-.605.277-.978 0-.358-.081-.669-.243-.933-.158-.268-.384-.477-.678-.628-.291-.151-.634-.226-1.03-.226-.377 0-.729.069-1.057.209-.325.136-.589.332-.792.588-.204.253-.313.556-.328.911h-1.691c.019-.626.203-1.177.554-1.652.355-.475.822-.846 1.403-1.114.58-.268 1.225-.402 1.934-.402.743 0 1.384.146 1.923.436.543.287.961.669 1.255 1.148.298.479.445 1.003.441 1.572.004.649-.177 1.199-.543 1.652-.361.452-.844.756-1.447.91v.091c.769.117 1.365.422 1.787.916.426.494.637 1.106.633 1.838.004.637-.173 1.208-.531 1.714-.355.505-.839.903-1.454 1.193-.614.286-1.318.43-2.109.43zm15.218-2.33v-.611c0-.438.091-.837.272-1.199.185-.366.452-.658.803-.877.354-.222.782-.333 1.284-.333.513 0 .942.109 1.289.328.347.218.609.51.786.876.181.366.272.767.272 1.205v.611c0 .437-.091.839-.272 1.204-.181.362-.446.654-.797.877-.347.219-.773.328-1.278.328-.509 0-.939-.109-1.29-.328-.35-.223-.616-.515-.797-.877-.181-.365-.272-.767-.272-1.204zm1.318-.611v.611c0 .324.077.618.232.882s.424.396.809.396c.381 0 .646-.132.797-.396s.226-.558.226-.882v-.611c0-.324-.073-.619-.22-.882-.143-.264-.411-.396-.803-.396-.377 0-.645.132-.803.396-.159.263-.238.558-.238.882zm-7.143-6.018v-.61c0-.438.091-.839.272-1.205.184-.366.452-.658.803-.877.354-.218.782-.328 1.284-.328.512 0 .942.11 1.289.328.347.219.609.511.786.877s.266.767.266 1.205v.61c0 .438-.09.839-.271 1.205-.178.362-.442.654-.792.877-.347.218-.773.328-1.278.328-.513 0-.945-.11-1.295-.328-.347-.223-.611-.515-.792-.877-.181-.366-.272-.767-.272-1.205zm1.324-.61v.61c0 .325.075.619.226.883.154.264.424.395.809.395.377 0 .641-.131.791-.395.155-.264.232-.558.232-.883v-.61c0-.325-.073-.619-.22-.883s-.415-.396-.803-.396c-.377 0-.645.132-.803.396-.155.264-.232.558-.232.883zm-.786 9.41 7.963-11.582h1.351l-7.963 11.582z" fill="#858585"/><path d="m457.71 301.963h35.037v82.0185h-35.037z" fill="url(#f)" transform="matrix(0 -1 1 0 155.747 759.673)"/><path d="m457.71 266.926h82.019" stroke="#04b34a" stroke-width="3.18518"/><path d="m475.838 309.475v9.266h-1.679v-7.633h-.054l-2.167 1.385v-1.539l2.303-1.479zm5.064 9.393c-.603 0-1.143-.114-1.619-.34-.477-.229-.855-.543-1.136-.941-.277-.398-.425-.853-.443-1.366h1.629c.03.38.194.691.493.932.298.238.657.357 1.076.357.329 0 .622-.075.878-.226.257-.151.459-.36.606-.629.148-.268.221-.574.218-.918.003-.35-.071-.661-.222-.932-.151-.272-.357-.484-.62-.638-.262-.157-.564-.236-.905-.236-.277-.003-.55.049-.819.154-.268.106-.481.245-.638.417l-1.515-.249.484-4.778h5.375v1.402h-3.986l-.267 2.457h.054c.172-.202.415-.369.729-.502.313-.136.657-.204 1.031-.204.561 0 1.062.133 1.502.399.441.262.788.624 1.041 1.085.253.462.38.99.38 1.584 0 .612-.142 1.158-.425 1.638-.281.476-.671.852-1.172 1.126-.498.272-1.074.408-1.729.408zm7.757.049c-.745 0-1.385-.188-1.918-.565-.531-.38-.94-.928-1.227-1.643-.283-.717-.425-1.582-.425-2.592.003-1.01.146-1.87.43-2.579.287-.712.695-1.255 1.226-1.629.534-.374 1.172-.561 1.914-.561s1.38.187 1.914.561.942.917 1.226 1.629c.286.712.43 1.572.43 2.579 0 1.013-.144 1.879-.43 2.597-.284.715-.692 1.261-1.226 1.638-.531.377-1.169.565-1.914.565zm0-1.416c.579 0 1.036-.285 1.371-.855.338-.573.507-1.416.507-2.529 0-.736-.077-1.354-.231-1.855s-.371-.878-.652-1.131c-.28-.257-.612-.385-.995-.385-.576 0-1.032.287-1.366.86-.335.57-.504 1.407-.507 2.511-.003.739.071 1.36.222 1.864.153.504.371.884.651 1.14.281.254.614.38 1 .38zm8.794-4.067v1.348h-4.172v-1.348zm4.963-3.959v9.266h-1.678v-7.633h-.054l-2.168 1.385v-1.539l2.303-1.479zm5.06-.127c.444.003.875.082 1.294.236.423.15.803.398 1.14.742.338.34.607.797.806 1.37.199.574.298 1.282.298 2.127.003.796-.081 1.508-.253 2.135-.169.625-.412 1.153-.728 1.584-.317.431-.699.76-1.145.986s-.949.34-1.507.34c-.585 0-1.104-.115-1.556-.344-.449-.229-.813-.543-1.09-.941-.278-.398-.448-.854-.512-1.367h1.652c.084.368.256.661.515.878.263.214.593.321.991.321.643 0 1.137-.279 1.484-.837s.521-1.333.521-2.325h-.064c-.147.265-.339.494-.574.687-.236.19-.503.337-.801.439-.296.103-.609.154-.941.154-.543 0-1.032-.13-1.466-.389-.431-.259-.774-.615-1.027-1.068-.25-.452-.377-.969-.38-1.552 0-.603.139-1.144.416-1.624.281-.482.671-.863 1.172-1.14.501-.281 1.086-.418 1.755-.412zm.005 1.358c-.326 0-.62.079-.882.239-.26.157-.465.371-.616.643-.148.268-.221.568-.221.9.003.329.077.628.221.896.148.268.349.481.602.638.256.157.549.235.878.235.244 0 .472-.047.683-.14.211-.094.395-.223.552-.389.16-.169.283-.361.371-.575.09-.214.134-.44.131-.678 0-.317-.075-.61-.226-.878-.148-.269-.351-.484-.611-.647-.256-.163-.55-.244-.882-.244zm7.747-1.358c.444.003.875.082 1.294.236.423.15.803.398 1.14.742.338.34.607.797.806 1.37.199.574.298 1.282.298 2.127.003.796-.081 1.508-.253 2.135-.169.625-.412 1.153-.728 1.584-.317.431-.699.76-1.145.986-.447.226-.949.34-1.507.34-.585 0-1.104-.115-1.556-.344-.45-.229-.813-.543-1.091-.941-.277-.398-.447-.854-.511-1.367h1.652c.084.368.256.661.515.878.263.214.593.321.991.321.643 0 1.137-.279 1.484-.837s.521-1.333.521-2.325h-.064c-.148.265-.339.494-.574.687-.236.19-.503.337-.801.439-.296.103-.609.154-.941.154-.543 0-1.032-.13-1.466-.389-.431-.259-.774-.615-1.027-1.068-.251-.452-.377-.969-.38-1.552 0-.603.138-1.144.416-1.624.28-.482.671-.863 1.172-1.14.501-.281 1.086-.418 1.755-.412zm.005 1.358c-.326 0-.62.079-.882.239-.26.157-.465.371-.616.643-.148.268-.221.568-.221.9.003.329.076.628.221.896.148.268.349.481.602.638.256.157.549.235.878.235.244 0 .472-.047.683-.14.211-.094.395-.223.552-.389.16-.169.283-.361.371-.575.09-.214.134-.44.131-.678 0-.317-.075-.61-.226-.878-.148-.269-.352-.484-.611-.647-.256-.163-.55-.244-.882-.244zm4.548 8.035v-6.95h1.638v2.806h.598l2.09-2.806h1.972l-2.574 3.412 2.602 3.538h-1.982l-1.905-2.62h-.801v2.62z" fill="#5f5f5f"/><path d="m628.892 276.622c-.709 0-1.346-.136-1.912-.408-.562-.275-1.01-.652-1.346-1.131-.335-.479-.515-1.025-.537-1.64h1.696c.042.498.262.907.662 1.227.4.321.879.481 1.437.481.445 0 .839-.102 1.182-.305.347-.208.618-.492.814-.854.2-.362.3-.775.3-1.239 0-.471-.102-.892-.306-1.261-.203-.37-.484-.66-.842-.871-.355-.211-.762-.319-1.222-.322-.351 0-.703.06-1.057.181-.355.12-.641.279-.86.475l-1.601-.238.651-5.836h6.368v1.498h-4.915l-.367 3.241h.068c.226-.219.525-.402.899-.549.377-.147.78-.22 1.21-.22.705 0 1.333.168 1.883.503.555.336.99.794 1.307 1.374.32.577.479 1.241.475 1.991.004.75-.166 1.42-.509 2.008-.34.588-.811 1.052-1.414 1.391-.6.336-1.288.504-2.064.504zm15.039-2.331v-.61c0-.438.09-.837.271-1.199.185-.366.453-.658.803-.877.355-.222.783-.334 1.284-.334.513 0 .943.11 1.29.328.347.219.609.511.786.877.181.366.271.767.271 1.205v.61c0 .438-.09.839-.271 1.205-.181.362-.447.654-.798.877-.346.218-.773.328-1.278.328-.509 0-.939-.11-1.289-.328-.351-.223-.617-.515-.798-.877-.181-.366-.271-.767-.271-1.205zm1.318-.61v.61c0 .325.077.619.232.883.154.264.424.396.808.396.381 0 .647-.132.798-.396.15-.264.226-.558.226-.883v-.61c0-.325-.074-.619-.221-.883-.143-.264-.411-.396-.803-.396-.377 0-.644.132-.803.396-.158.264-.237.558-.237.883zm-7.143-6.018v-.611c0-.437.09-.839.271-1.204.185-.366.453-.658.803-.877.355-.219.783-.328 1.284-.328.513 0 .943.109 1.29.328.346.219.608.511.786.877.177.365.265.767.265 1.204v.611c0 .438-.09.839-.271 1.205-.177.362-.441.654-.792.876-.347.219-.773.328-1.278.328-.513 0-.944-.109-1.295-.328-.347-.222-.611-.514-.792-.876-.181-.366-.271-.767-.271-1.205zm1.323-.611v.611c0 .324.076.619.226.882.155.264.424.396.809.396.377 0 .641-.132.792-.396.154-.263.232-.558.232-.882v-.611c0-.324-.074-.618-.221-.882s-.415-.396-.803-.396c-.377 0-.645.132-.803.396-.155.264-.232.558-.232.882zm-.786 9.411 7.963-11.582h1.352l-7.963 11.582z" fill="#858585"/><path d="m595.948 301.963h16.7222v82.0185h-16.7222z" fill="url(#g)" transform="matrix(0 -1 1 0 293.985 897.911)"/><path d="m595.948 285.241h82.018" stroke="#04b34a" stroke-width="3.18518"/><path d="m608.446 318.741v-1.213l3.217-3.153c.308-.311.564-.587.769-.828.206-.241.359-.475.462-.701.102-.227.154-.468.154-.724 0-.293-.067-.543-.199-.751-.133-.211-.316-.374-.548-.489s-.496-.172-.792-.172c-.304 0-.571.063-.8.19-.23.124-.408.3-.534.529-.124.23-.186.503-.186.819h-1.597c0-.588.134-1.099.403-1.533.268-.435.638-.771 1.108-1.009.474-.239 1.017-.358 1.629-.358.621 0 1.167.116 1.638.349.47.232.835.55 1.095.954.262.404.393.866.393 1.385 0 .347-.066.687-.199 1.022-.132.335-.366.706-.701 1.113-.332.407-.798.901-1.398 1.48l-1.597 1.624v.063h4.036v1.403zm10.829.176c-.745 0-1.385-.188-1.918-.565-.531-.38-.94-.928-1.227-1.643-.283-.717-.425-1.582-.425-2.592.003-1.01.146-1.87.43-2.579.287-.712.695-1.255 1.226-1.629.534-.374 1.172-.561 1.914-.561s1.38.187 1.914.561.942.917 1.226 1.629c.286.712.43 1.572.43 2.579 0 1.013-.144 1.879-.43 2.597-.284.715-.692 1.261-1.226 1.638-.531.377-1.169.565-1.914.565zm0-1.416c.579 0 1.036-.285 1.371-.855.338-.573.507-1.416.507-2.529 0-.736-.077-1.354-.231-1.855s-.371-.878-.652-1.131c-.28-.257-.612-.385-.995-.385-.576 0-1.032.287-1.366.86-.335.57-.504 1.407-.507 2.511-.003.739.071 1.36.222 1.864.153.504.371.884.651 1.14.281.254.614.38 1 .38zm7.988 1.416c-.745 0-1.384-.188-1.918-.565-.531-.38-.94-.928-1.226-1.643-.284-.717-.425-1.582-.425-2.592.003-1.01.146-1.87.429-2.579.287-.712.696-1.255 1.226-1.629.534-.374 1.172-.561 1.914-.561s1.38.187 1.914.561.943.917 1.226 1.629c.287.712.43 1.572.43 2.579 0 1.013-.143 1.879-.43 2.597-.283.715-.692 1.261-1.226 1.638-.531.377-1.169.565-1.914.565zm0-1.416c.579 0 1.036-.285 1.371-.855.338-.573.507-1.416.507-2.529 0-.736-.077-1.354-.231-1.855s-.371-.878-.651-1.131c-.281-.257-.613-.385-.996-.385-.576 0-1.031.287-1.366.86-.335.57-.504 1.407-.507 2.511-.003.739.071 1.36.222 1.864.154.504.371.884.651 1.14.281.254.614.38 1 .38zm8.794-4.067v1.348h-4.172v-1.348zm.871 5.307v-1.213l3.217-3.153c.308-.311.564-.587.769-.828.206-.241.359-.475.462-.701.102-.227.154-.468.154-.724 0-.293-.067-.543-.199-.751-.133-.211-.316-.374-.548-.489s-.496-.172-.792-.172c-.304 0-.571.063-.8.19-.23.124-.408.3-.534.529-.124.23-.186.503-.186.819h-1.597c0-.588.134-1.099.403-1.533.268-.435.638-.771 1.108-1.009.474-.239 1.017-.358 1.629-.358.621 0 1.167.116 1.638.349.47.232.835.55 1.095.954.262.404.393.866.393 1.385 0 .347-.066.687-.199 1.022-.132.335-.366.706-.701 1.113-.332.407-.798.901-1.398 1.48l-1.597 1.624v.063h4.036v1.403zm7.038-1.719v-1.335l3.931-6.212h1.113v1.9h-.678l-2.647 4.194v.073h5.488v1.38zm4.42 1.719v-2.127l.018-.597v-6.542h1.584v9.266zm6.94-9.393c.443.003.874.082 1.294.236.422.15.802.398 1.14.742.338.34.606.797.805 1.37.199.574.299 1.282.299 2.127.003.796-.082 1.508-.254 2.135-.169.625-.411 1.153-.728 1.584s-.698.76-1.145.986c-.446.227-.948.34-1.506.34-.585 0-1.104-.115-1.557-.344-.449-.229-.813-.543-1.09-.941-.278-.398-.448-.854-.511-1.367h1.651c.085.368.256.661.516.878.262.214.593.321.991.321.642 0 1.137-.279 1.484-.837s.52-1.333.52-2.325h-.063c-.148.265-.34.494-.575.687-.235.19-.502.337-.801.439-.295.103-.609.154-.941.154-.543 0-1.031-.13-1.466-.389-.431-.259-.773-.615-1.027-1.068-.25-.452-.377-.969-.38-1.552 0-.603.139-1.144.416-1.624.281-.482.672-.863 1.172-1.14.501-.281 1.086-.418 1.756-.412zm.004 1.358c-.326 0-.62.08-.882.239-.259.157-.465.371-.615.643-.148.268-.222.568-.222.9.003.329.077.628.222.896.147.268.348.481.601.638.257.157.549.235.878.235.244 0 .472-.047.683-.14.211-.094.395-.223.552-.389.16-.169.284-.361.371-.575.091-.214.135-.44.131-.678 0-.317-.075-.61-.226-.878-.148-.269-.351-.484-.611-.647-.256-.163-.55-.244-.882-.244zm4.549 8.035v-6.95h1.638v2.806h.597l2.09-2.806h1.973l-2.575 3.412 2.602 3.538h-1.982l-1.904-2.62h-.801v2.62z" fill="#5f5f5f"/><path d="m761.176 266.27c-.811 0-1.527-.14-2.149-.419-.618-.279-1.103-.663-1.453-1.154-.351-.49-.525-1.048-.521-1.674-.004-.49.096-.94.3-1.351.207-.415.488-.76.843-1.035.354-.279.75-.456 1.187-.532v-.068c-.577-.139-1.038-.448-1.385-.927s-.519-1.03-.515-1.652c-.004-.592.153-1.119.469-1.583.321-.468.76-.835 1.318-1.103s1.194-.402 1.906-.402c.705 0 1.335.136 1.889.408.558.267.997.635 1.318 1.102.32.464.482.99.486 1.578-.004.622-.181 1.173-.531 1.652-.351.479-.807.788-1.369.927v.068c.434.076.824.253 1.171.532.35.275.629.62.837 1.035.211.411.318.861.322 1.351-.004.626-.181 1.184-.532 1.674-.35.491-.837.875-1.459 1.154-.618.279-1.329.419-2.132.419zm0-1.431c.479 0 .894-.079 1.244-.238.351-.162.622-.386.815-.673.192-.29.29-.629.294-1.018-.004-.403-.11-.759-.317-1.069-.203-.309-.481-.552-.831-.729-.351-.177-.752-.266-1.205-.266-.456 0-.861.089-1.216.266-.354.177-.633.42-.837.729-.203.31-.303.666-.3 1.069-.003.389.089.728.278 1.018.192.287.465.511.82.673.354.159.773.238 1.255.238zm0-5.39c.385 0 .726-.077 1.024-.232.298-.154.531-.369.701-.645.173-.275.262-.597.266-.967-.004-.362-.091-.678-.26-.95-.166-.271-.398-.48-.696-.627-.298-.151-.643-.227-1.035-.227-.4 0-.75.076-1.052.227-.298.147-.53.356-.695.627-.166.272-.247.588-.244.95-.003.37.08.692.249.967.17.276.404.491.702.645.301.155.648.232 1.04.232zm7.392 5.079-.084.616c-.057.453-.153.924-.289 1.414-.132.494-.269.952-.413 1.374-.139.423-.254.758-.345 1.007h-1.199c.049-.234.117-.55.204-.95.087-.396.172-.839.255-1.329.082-.49.145-.99.186-1.499l.057-.633zm1.824 1.583 5.056-9.999v-.084h-5.848v-1.499h7.657v1.549l-5.039 10.033zm17.819-2.171v-.611c0-.438.09-.837.271-1.199.185-.366.452-.658.803-.877.355-.222.782-.333 1.284-.333.513 0 .942.109 1.289.328.347.218.609.51.786.876.181.366.272.767.272 1.205v.611c0 .437-.091.838-.272 1.204-.181.362-.446.654-.797.877-.347.218-.773.328-1.278.328-.509 0-.939-.11-1.29-.328-.35-.223-.616-.515-.797-.877-.181-.366-.271-.767-.271-1.204zm1.317-.611v.611c0 .324.078.618.232.882.155.264.424.396.809.396.381 0 .647-.132.797-.396.151-.264.227-.558.227-.882v-.611c0-.324-.074-.619-.221-.882-.143-.264-.411-.396-.803-.396-.377 0-.645.132-.803.396-.159.263-.238.558-.238.882zm-7.143-6.018v-.61c0-.438.091-.839.272-1.205.185-.366.452-.658.803-.877.354-.218.782-.328 1.284-.328.512 0 .942.11 1.289.328.347.219.609.511.786.877s.266.767.266 1.205v.61c0 .438-.09.839-.271 1.205-.178.362-.441.654-.792.877-.347.218-.773.328-1.278.328-.513 0-.945-.11-1.295-.328-.347-.223-.611-.515-.792-.877-.181-.366-.272-.767-.272-1.205zm1.324-.61v.61c0 .325.075.619.226.883.155.263.424.395.809.395.377 0 .641-.132.791-.395.155-.264.232-.558.232-.883v-.61c0-.325-.073-.619-.22-.883s-.415-.396-.803-.396c-.377 0-.645.132-.803.396-.155.264-.232.558-.232.883zm-.786 9.41 7.963-11.582h1.351l-7.963 11.582z" fill="#858585"/><path d="m734.185 301.963h27.0741v82.0185h-27.0741z" fill="url(#h)" transform="matrix(0 -1 1 0 432.222 1036.148)"/><path d="m734.185 274.889h82.018" stroke="#04b34a" stroke-width="3.18518"/><path d="m746.441 318.741v-1.213l3.216-3.153c.308-.311.565-.587.77-.828s.359-.475.461-.701c.103-.227.154-.468.154-.724 0-.293-.066-.543-.199-.751-.133-.211-.315-.374-.548-.489-.232-.115-.496-.172-.791-.172-.305 0-.572.063-.801.19-.229.124-.407.3-.534.529-.124.23-.186.503-.186.819h-1.597c0-.588.135-1.099.403-1.533.268-.435.638-.771 1.108-1.009.474-.239 1.017-.358 1.629-.358.622 0 1.168.116 1.638.349.471.232.836.55 1.095.954.262.404.394.866.394 1.385 0 .347-.067.687-.199 1.022-.133.335-.367.706-.702 1.113-.332.407-.798.901-1.398 1.48l-1.597 1.624v.063h4.036v1.403zm10.625.127c-.604 0-1.144-.114-1.62-.34-.477-.229-.855-.543-1.136-.941-.277-.398-.425-.853-.443-1.366h1.629c.03.38.194.691.493.932.298.238.657.357 1.077.357.328 0 .621-.075.877-.226.257-.151.459-.36.607-.629.147-.268.22-.574.217-.918.003-.35-.071-.661-.222-.932-.151-.272-.357-.484-.62-.638-.262-.157-.564-.236-.905-.236-.277-.003-.55.049-.819.154-.268.106-.481.245-.638.417l-1.515-.249.484-4.778h5.375v1.402h-3.986l-.267 2.457h.054c.172-.202.415-.369.729-.502.313-.136.657-.204 1.031-.204.561 0 1.062.133 1.502.399.441.262.788.624 1.041 1.085.253.462.38.99.38 1.584 0 .612-.142 1.158-.425 1.638-.281.476-.671.852-1.172 1.126-.498.272-1.074.408-1.728.408zm7.756.049c-.745 0-1.384-.188-1.918-.565-.531-.38-.94-.928-1.226-1.643-.284-.717-.426-1.582-.426-2.592.003-1.01.147-1.87.43-2.579.287-.712.695-1.255 1.226-1.629.534-.374 1.172-.561 1.914-.561s1.38.187 1.914.561.942.917 1.226 1.629c.287.712.43 1.572.43 2.579 0 1.013-.143 1.879-.43 2.597-.284.715-.692 1.261-1.226 1.638-.531.377-1.169.565-1.914.565zm0-1.416c.579 0 1.036-.285 1.371-.855.338-.573.507-1.416.507-2.529 0-.736-.077-1.354-.231-1.855s-.371-.878-.652-1.131c-.28-.257-.612-.385-.995-.385-.576 0-1.032.287-1.366.86-.335.57-.504 1.407-.507 2.511-.003.739.071 1.36.222 1.864.153.504.371.884.651 1.14.281.254.614.38 1 .38zm8.794-4.067v1.348h-4.172v-1.348zm4.416 5.434c-.603 0-1.143-.114-1.62-.34-.476-.229-.855-.543-1.135-.941-.278-.398-.426-.853-.444-1.366h1.629c.03.38.195.691.493.932.299.238.658.357 1.077.357.329 0 .621-.075.878-.226.256-.151.458-.36.606-.629.148-.268.22-.574.217-.918.003-.35-.071-.661-.221-.932-.151-.272-.358-.484-.62-.638-.263-.157-.564-.236-.905-.236-.278-.003-.551.049-.819.154-.269.106-.481.245-.638.417l-1.516-.249.484-4.778h5.375v1.402h-3.986l-.267 2.457h.055c.172-.202.414-.369.728-.502.314-.136.658-.204 1.032-.204.561 0 1.061.133 1.502.399.44.262.787.624 1.04 1.085.254.462.38.99.38 1.584 0 .612-.141 1.158-.425 1.638-.28.476-.671.852-1.172 1.126-.497.272-1.073.408-1.728.408zm7.756.049c-.745 0-1.384-.188-1.918-.565-.531-.38-.939-.928-1.226-1.643-.283-.717-.425-1.582-.425-2.592.003-1.01.146-1.87.43-2.579.286-.712.695-1.255 1.226-1.629.534-.374 1.171-.561 1.913-.561.743 0 1.38.187 1.914.561s.943.917 1.226 1.629c.287.712.43 1.572.43 2.579 0 1.013-.143 1.879-.43 2.597-.283.715-.692 1.261-1.226 1.638-.531.377-1.168.565-1.914.565zm0-1.416c.58 0 1.037-.285 1.371-.855.338-.573.507-1.416.507-2.529 0-.736-.077-1.354-.231-1.855-.153-.501-.371-.878-.651-1.131-.281-.257-.612-.385-.996-.385-.576 0-1.031.287-1.366.86-.335.57-.504 1.407-.507 2.511-.003.739.071 1.36.222 1.864.154.504.371.884.652 1.14.28.254.613.38.999.38zm7.989 1.416c-.745 0-1.385-.188-1.919-.565-.53-.38-.939-.928-1.226-1.643-.283-.717-.425-1.582-.425-2.592.003-1.01.146-1.87.43-2.579.286-.712.695-1.255 1.226-1.629.534-.374 1.172-.561 1.914-.561s1.38.187 1.914.561.942.917 1.226 1.629c.286.712.43 1.572.43 2.579 0 1.013-.144 1.879-.43 2.597-.284.715-.692 1.261-1.226 1.638-.531.377-1.169.565-1.914.565zm0-1.416c.579 0 1.036-.285 1.371-.855.338-.573.506-1.416.506-2.529 0-.736-.076-1.354-.23-1.855s-.371-.878-.652-1.131c-.28-.257-.612-.385-.995-.385-.576 0-1.032.287-1.367.86-.334.57-.503 1.407-.506 2.511-.003.739.071 1.36.221 1.864.154.504.371.884.652 1.14.28.254.614.38 1 .38zm4.581 1.24v-6.95h1.638v2.806h.597l2.091-2.806h1.972l-2.574 3.412 2.601 3.538h-1.981l-1.905-2.62h-.801v2.62z" fill="#5f5f5f"/><path d="m43.7964 303.426h772.407v.796296h-772.407z" fill="#cacaca"/><rect fill="#f7f7f7" height="234.907" rx="15.9259" width="796.296" x="31.8516" y="364.537"/><path d="m44.539 380.953h1.3528v5.132h.0698l3.5401-5.132h1.2241v7.529h-1.3638v-5.128h-.0625l-3.5511 5.128h-1.2094zm10.0719 0v7.529h-1.3639v-7.529zm1.6285 3.327v1.095h-2.3711v-1.095zm6.4919.437c0 .812-.1519 1.506-.4558 2.085-.3014.576-.7132 1.017-1.2352 1.323-.5195.306-1.1089.46-1.7682.46-.6592 0-1.2498-.154-1.7718-.46-.5196-.309-.9313-.751-1.2352-1.327-.3014-.578-.4521-1.272-.4521-2.081 0-.811.1507-1.504.4521-2.08.3039-.579.7156-1.021 1.2352-1.327.522-.307 1.1126-.46 1.7718-.46.6593 0 1.2487.153 1.7682.46.522.306.9338.748 1.2352 1.327.3039.576.4558 1.269.4558 2.08zm-1.3711 0c0-.571-.0895-1.052-.2684-1.444-.1764-.395-.4215-.693-.7352-.894-.3137-.203-.6752-.305-1.0845-.305-.4092 0-.7707.102-1.0844.305-.3137.201-.56.499-.7389.894-.1764.392-.2647.873-.2647 1.444s.0883 1.054.2647 1.449c.1789.392.4252.69.7389.893.3137.201.6752.301 1.0844.301.4093 0 .7708-.1 1.0845-.301.3137-.203.5588-.501.7352-.893.1789-.395.2684-.878.2684-1.449zm3.7086 3.765v-7.529h1.3638v3.187h3.4886v-3.187h1.3675v7.529h-1.3675v-3.199h-3.4886v3.199zm9.6611-4.621h1.9116c.5759 0 1.0697.094 1.4814.283.4142.186.7316.45.9521.79.2206.341.3309.742.3309 1.202 0 .463-.1103.872-.3309 1.224-.2205.351-.5379.625-.9521.824-.4117.198-.9055.298-1.4814.298h-2.8196v-7.529h1.3675v6.411h1.4521c.3038 0 .5612-.057.7719-.173.2108-.115.3701-.267.4779-.455.1103-.189.1655-.394.1655-.614 0-.319-.1226-.59-.3677-.813-.2426-.225-.5918-.338-1.0476-.338h-1.9116z" fill="#000" opacity=".6"/><path d="m70.4319 547.955c-.7767 0-1.4705-.134-2.0813-.402-.607-.267-1.0877-.639-1.4421-1.114-.3507-.479-.5392-1.033-.5656-1.663h1.7759c.0226.344.1376.641.3449.894.2112.249.4864.441.8257.577.3394.136.7164.203 1.1311.203.4563 0 .8597-.079 1.2103-.237.3544-.158.6316-.379.8314-.662.1998-.286.2997-.616.2997-.989 0-.389-.0999-.73-.2997-1.024-.1961-.298-.4845-.532-.8653-.701-.377-.17-.8333-.255-1.3686-.255h-.9784v-1.425h.9784c.4298 0 .8068-.077 1.1311-.232.328-.155.5844-.369.7691-.645.1848-.279.2771-.605.2771-.978 0-.358-.081-.669-.2432-.933-.1583-.268-.3845-.477-.6786-.628-.2903-.151-.6334-.226-1.0293-.226-.3771 0-.7296.069-1.0576.209-.3242.136-.5882.332-.7918.588-.2036.253-.3129.556-.328.911h-1.691c.0189-.626.2036-1.177.5542-1.652.3545-.475.822-.846 1.4026-1.114s1.2254-.401 1.9342-.401c.7428 0 1.3837.145 1.9229.435.5429.287.9614.669 1.2555 1.148.2979.479.4449 1.003.4411 1.572.0038.649-.1772 1.199-.5429 1.652-.362.452-.8446.756-1.4478.91v.091c.7691.117 1.3649.422 1.7871.916.4261.494.6372 1.107.6334 1.838.0038.637-.1734 1.208-.5316 1.714-.3544.505-.8389.903-1.4534 1.193-.6146.287-1.3178.43-2.1095.43zm7.4758-1.742-.0849.616c-.0565.453-.1527.924-.2884 1.414-.132.494-.2696.952-.4129 1.375-.1395.422-.2545.757-.3449 1.006h-1.199c.049-.234.1169-.55.2036-.95.0867-.396.1715-.839.2545-1.329.0829-.49.1451-.99.1866-1.499l.0566-.633zm5.2531 1.742c-.8106 0-1.527-.14-2.1491-.419-.6183-.279-1.1028-.663-1.4534-1.153-.3507-.491-.5241-1.049-.5203-1.674-.0038-.491.0961-.941.2997-1.352.2074-.415.4883-.76.8427-1.035.3544-.279.7503-.456 1.1876-.532v-.068c-.5768-.139-1.0387-.448-1.3856-.927-.3468-.479-.5184-1.029-.5146-1.651-.0038-.592.1527-1.12.4694-1.584.3205-.468.7597-.835 1.3177-1.103s1.1933-.401 1.9059-.401c.7051 0 1.3347.135 1.889.407.558.268.9972.635 1.3177 1.103.3205.463.4826.989.4864 1.578-.0038.622-.181 1.172-.5316 1.651-.3507.479-.8069.788-1.3687.927v.068c.4336.076.8239.253 1.1707.532.3507.275.6297.62.837 1.035.2112.411.3186.861.3224 1.352-.0038.625-.181 1.183-.5316 1.674-.3507.49-.837.874-1.4591 1.153-.6184.279-1.3291.419-2.1322.419zm0-1.431c.4789 0 .8936-.079 1.2442-.238.3507-.162.6222-.386.8144-.673.1923-.29.2904-.629.2941-1.018-.0037-.403-.1093-.759-.3167-1.068-.2036-.31-.4807-.553-.8313-.73-.3507-.177-.7522-.266-1.2047-.266-.4562 0-.8615.089-1.2159.266s-.6334.42-.837.73c-.2036.309-.3035.665-.2998 1.068-.0037.389.0886.728.2772 1.018.1922.287.4656.511.82.673.3544.159.7729.238 1.2555.238zm0-5.39c.3846 0 .7258-.077 1.0237-.232.2978-.154.5316-.369.7013-.644.1734-.276.262-.598.2658-.967-.0038-.362-.0905-.679-.2602-.951-.1659-.271-.3977-.48-.6956-.627-.2979-.151-.6428-.227-1.035-.227-.3996 0-.7503.076-1.0519.227-.2978.147-.5297.356-.6956.627-.1659.272-.247.589-.2432.951-.0038.369.0792.691.2488.967.1697.275.4035.49.7013.644.3016.155.6485.232 1.0406.232zm15.1354 4.491v-.611c0-.437.0905-.837.2715-1.199.1847-.366.4524-.658.8031-.877.3544-.222.7822-.333 1.2842-.333.512 0 .942.109 1.289.328.347.218.609.511.786.876.181.366.272.768.272 1.205v.611c0 .437-.091.839-.272 1.204-.181.362-.447.655-.797.877-.347.219-.773.328-1.278.328-.509 0-.9392-.109-1.2899-.328-.3506-.222-.6164-.515-.7974-.877-.181-.365-.2715-.767-.2715-1.204zm1.3178-.611v.611c0 .324.0773.618.2318.882.1542.264.4242.396.8092.396.38 0 .646-.132.797-.396s.226-.558.226-.882v-.611c0-.324-.073-.618-.22-.882-.144-.264-.411-.396-.803-.396-.377 0-.645.132-.8035.396-.1584.264-.2375.558-.2375.882zm-7.1429-6.018v-.61c0-.438.0904-.839.2714-1.205.1848-.366.4525-.658.8031-.877.3544-.218.7823-.328 1.2838-.328.5128 0 .9426.11 1.2895.328.3468.219.6089.511.7861.877s.2658.767.2658 1.205v.61c0 .438-.0905.839-.2715 1.205-.1772.362-.4411.654-.7918.877-.3468.218-.7729.328-1.2781.328-.5128 0-.9445-.11-1.2951-.328-.3469-.223-.6108-.515-.7918-.877-.181-.366-.2714-.767-.2714-1.205zm1.3233-.61v.61c0 .325.0755.619.2263.883.1545.264.4241.396.8087.396.377 0 .641-.132.7918-.396.1546-.264.2319-.558.2319-.883v-.61c0-.325-.0736-.619-.2206-.883-.1471-.263-.4148-.395-.8031-.395-.377 0-.6447.132-.8031.395-.1546.264-.2319.558-.2319.883zm-.7861 9.41 7.9627-11.582h1.352l-7.963 11.582z" fill="#858585"/><path d="m43.7959 567.722h11.1481v82.0185h-11.1481z" fill="url(#i)" transform="matrix(0 -1 1 0 -523.9261 611.5179)"/><path d="m43.7959 556.574h82.0181" stroke="#cacaca" stroke-width="3.18518"/><path d="m70.856 584.677c-.745 0-1.3845-.189-1.9184-.566-.5308-.38-.9395-.927-1.2261-1.642-.2835-.718-.4253-1.582-.4253-2.593.003-1.01.1463-1.87.4298-2.579.2866-.712.6953-1.254 1.2262-1.628.5338-.374 1.1718-.561 1.9138-.561s1.3799.187 1.9138.561.9426.916 1.2261 1.628c.2866.712.4298 1.572.4298 2.579 0 1.014-.1432 1.879-.4298 2.597-.2835.715-.6922 1.261-1.2261 1.638-.5309.377-1.1688.566-1.9138.566zm0-1.417c.5791 0 1.0361-.285 1.3709-.855.3378-.573.5067-1.416.5067-2.529 0-.736-.0769-1.354-.2307-1.855-.1539-.5-.371-.878-.6515-1.131-.2806-.256-.6123-.384-.9954-.384-.5761 0-1.0316.286-1.3664.859-.3348.57-.5037 1.407-.5067 2.511-.003.739.0709 1.361.2217 1.864.1538.504.371.884.6515 1.14.2805.254.6138.38.9999.38zm8.7937-4.067v1.348h-4.1715v-1.348zm1.0275 3.588v-1.335l3.9317-6.212h1.113v1.9h-.6786l-2.6468 4.195v.072h5.4881v1.38zm4.4204 1.719v-2.126l.0181-.598v-6.542h1.5835v9.266zm6.9398-9.392c.4434.003.8747.081 1.294.235.4222.151.8023.398 1.1401.742.3378.341.6063.798.8054 1.371.199.573.2986 1.282.2986 2.126.003.796-.0815 1.508-.2534 2.136-.1689.624-.4117 1.152-.7284 1.583-.3167.432-.6983.76-1.1447.987-.4464.226-.9486.339-1.5066.339-.5852 0-1.104-.115-1.5564-.344-.4495-.229-.8129-.543-1.0904-.941s-.4479-.854-.5113-1.366h1.6514c.0845.368.2564.66.5158.877.2624.214.5927.322.9909.322.6424 0 1.1371-.279 1.484-.837.3468-.558.5203-1.334.5203-2.326h-.0634c-.1478.265-.3393.495-.5746.688-.2352.19-.5022.336-.8008.439-.2956.102-.6093.153-.9411.153-.5429 0-1.0315-.129-1.4659-.389-.4313-.259-.7736-.615-1.027-1.067-.2504-.453-.377-.97-.3801-1.552 0-.604.1388-1.145.4163-1.625.2805-.482.6711-.862 1.1718-1.14.5007-.28 1.0859-.418 1.7555-.411zm.0045 1.357c-.3258 0-.6198.08-.8823.24-.2594.156-.4645.371-.6153.642-.1478.269-.2217.569-.2217.9.003.329.0769.628.2217.896.1478.269.3484.481.6018.638.2564.157.5489.235.8777.235.2443 0 .4721-.046.6832-.14.2111-.093.3951-.223.552-.389.1598-.169.2835-.36.371-.574.0905-.215.1342-.441.1312-.679 0-.317-.0754-.609-.2262-.878-.1478-.268-.3514-.484-.6108-.647-.2564-.163-.5505-.244-.8823-.244zm4.5487 8.035v-6.949h1.6378v2.805h.5972l2.0904-2.805h1.973l-2.575 3.411 2.602 3.538h-1.982l-1.9048-2.619h-.8008v2.619z" fill="#5f5f5f"/><path d="m203.376 489.667v-1.267l3.919-4.061c.419-.441.764-.827 1.035-1.159.276-.336.481-.654.617-.956.136-.301.203-.622.203-.961 0-.385-.09-.717-.271-.996-.181-.282-.428-.499-.741-.65-.313-.155-.665-.232-1.057-.232-.415 0-.777.085-1.086.255-.309.169-.547.409-.713.718s-.249.671-.249 1.086h-1.668c0-.705.162-1.322.486-1.85.325-.527.769-.937 1.335-1.227.566-.294 1.208-.441 1.929-.441.727 0 1.368.145 1.922.435.558.287.994.679 1.307 1.177.313.494.469 1.052.469 1.674 0 .43-.081.85-.243 1.261-.158.411-.435.869-.831 1.374-.396.502-.947 1.111-1.652 1.827l-2.302 2.409v.085h5.215v1.499zm13.525-11.583v11.583h-1.754v-9.829h-.067l-2.772 1.809v-1.674l2.89-1.889zm4.05 9.999-.085.617c-.057.452-.153.923-.289 1.414-.132.494-.269.952-.413 1.374-.139.422-.254.758-.345 1.007h-1.199c.049-.234.117-.551.204-.951.087-.395.172-.838.255-1.329.083-.49.145-.989.186-1.498l.057-.634zm4.723-9.999v11.583h-1.754v-9.829h-.068l-2.771 1.809v-1.674l2.89-1.889zm12.119 9.411v-.611c0-.437.091-.837.272-1.199.184-.365.452-.658.803-.876.354-.223.782-.334 1.283-.334.513 0 .943.109 1.29.328s.609.511.786.877c.181.365.272.767.272 1.204v.611c0 .437-.091.839-.272 1.205-.181.362-.447.654-.797.876-.347.219-.773.328-1.279.328-.509 0-.938-.109-1.289-.328-.351-.222-.616-.514-.797-.876-.181-.366-.272-.768-.272-1.205zm1.318-.611v.611c0 .324.077.618.232.882.154.264.424.396.808.396.381 0 .647-.132.798-.396s.226-.558.226-.882v-.611c0-.324-.073-.618-.22-.882-.144-.264-.411-.396-.804-.396-.377 0-.644.132-.803.396-.158.264-.237.558-.237.882zm-7.143-6.017v-.611c0-.437.09-.839.271-1.205.185-.365.453-.657.803-.876.355-.219.783-.328 1.284-.328.513 0 .943.109 1.29.328s.609.511.786.876c.177.366.266.768.266 1.205v.611c0 .437-.091.839-.272 1.204-.177.362-.441.655-.792.877-.346.219-.772.328-1.278.328-.512 0-.944-.109-1.295-.328-.347-.222-.611-.515-.792-.877-.181-.365-.271-.767-.271-1.204zm1.323-.611v.611c0 .324.076.618.227.882.154.264.424.396.808.396.377 0 .641-.132.792-.396.155-.264.232-.558.232-.882v-.611c0-.324-.074-.618-.221-.882s-.414-.396-.803-.396c-.377 0-.644.132-.803.396-.154.264-.232.558-.232.882zm-.786 9.411 7.963-11.583h1.352l-7.963 11.583z" fill="#858585"/><path d="m182.033 567.722h69.2778v82.0185h-69.2778z" fill="url(#j)" transform="matrix(0 -1 1 0 -385.689 749.755)"/><path d="m182.033 498.445h82.018" stroke="#cacaca" stroke-width="3.18518"/><path d="m205.225 584.627c-.604 0-1.143-.113-1.62-.339-.477-.23-.855-.543-1.136-.942-.277-.398-.425-.853-.443-1.366h1.629c.03.38.194.691.493.932.299.238.657.358 1.077.358.329 0 .621-.076.877-.227.257-.15.459-.36.607-.629.148-.268.22-.574.217-.918.003-.35-.071-.661-.222-.932-.151-.272-.357-.484-.62-.638-.262-.157-.564-.235-.904-.235-.278-.003-.551.048-.819.154-.269.105-.482.244-.638.416l-1.516-.249.484-4.778h5.375v1.403h-3.986l-.267 2.457h.054c.172-.203.415-.37.729-.503.314-.135.657-.203 1.031-.203.561 0 1.062.132 1.503.398.44.262.787.624 1.04 1.086.254.461.38.989.38 1.583 0 .613-.142 1.159-.425 1.638-.281.477-.671.852-1.172 1.127-.498.271-1.074.407-1.728.407zm7.756.05c-.745 0-1.384-.189-1.918-.566-.531-.38-.94-.927-1.226-1.642-.284-.718-.426-1.582-.426-2.593.003-1.01.147-1.87.43-2.579.287-.712.696-1.254 1.226-1.628.534-.374 1.172-.561 1.914-.561s1.38.187 1.914.561.943.916 1.226 1.628c.287.712.43 1.572.43 2.579 0 1.014-.143 1.879-.43 2.597-.283.715-.692 1.261-1.226 1.638-.531.377-1.169.566-1.914.566zm0-1.417c.579 0 1.036-.285 1.371-.855.338-.573.507-1.416.507-2.529 0-.736-.077-1.354-.231-1.855-.154-.5-.371-.878-.651-1.131-.281-.256-.613-.384-.996-.384-.576 0-1.031.286-1.366.859-.335.57-.504 1.407-.507 2.511-.003.739.071 1.361.222 1.864.154.504.371.884.651 1.14.281.254.614.38 1 .38zm8.794-4.067v1.348h-4.172v-1.348zm4.412-4.085c.443.003.874.081 1.294.235.422.151.802.398 1.14.742.338.341.606.798.805 1.371s.299 1.282.299 2.126c.003.796-.082 1.508-.254 2.136-.168.624-.411 1.152-.728 1.583-.317.432-.698.76-1.145.987-.446.226-.948.339-1.506.339-.585 0-1.104-.115-1.557-.344-.449-.229-.813-.543-1.09-.941-.278-.398-.448-.854-.511-1.366h1.651c.085.368.256.66.516.877.262.214.593.322.991.322.642 0 1.137-.279 1.484-.837s.52-1.334.52-2.326h-.063c-.148.265-.34.495-.575.688-.235.19-.502.336-.801.439-.295.102-.609.153-.941.153-.543 0-1.031-.129-1.466-.389-.431-.259-.773-.615-1.027-1.067-.25-.453-.377-.97-.38-1.552 0-.604.139-1.145.416-1.625.281-.482.672-.862 1.172-1.14.501-.28 1.086-.418 1.756-.411zm.004 1.357c-.326 0-.62.08-.882.24-.259.156-.465.371-.615.642-.148.269-.222.569-.222.9.003.329.077.628.222.896.147.269.348.481.601.638.257.157.549.235.878.235.244 0 .472-.046.683-.14.211-.093.395-.223.552-.389.16-.169.284-.36.371-.574.091-.215.135-.441.132-.679 0-.317-.076-.609-.227-.878-.148-.268-.351-.484-.611-.647-.256-.163-.55-.244-.882-.244zm7.748-1.357c.443.003.874.081 1.294.235.422.151.802.398 1.14.742.338.341.606.798.805 1.371s.299 1.282.299 2.126c.003.796-.082 1.508-.254 2.136-.169.624-.411 1.152-.728 1.583-.317.432-.698.76-1.145.987-.446.226-.948.339-1.506.339-.586 0-1.104-.115-1.557-.344-.449-.229-.813-.543-1.09-.941-.278-.398-.448-.854-.511-1.366h1.651c.084.368.256.66.516.877.262.214.592.322.991.322.642 0 1.137-.279 1.484-.837s.52-1.334.52-2.326h-.063c-.148.265-.34.495-.575.688-.235.19-.502.336-.801.439-.295.102-.609.153-.941.153-.543 0-1.031-.129-1.466-.389-.431-.259-.773-.615-1.027-1.067-.25-.453-.377-.97-.38-1.552 0-.604.139-1.145.416-1.625.281-.482.671-.862 1.172-1.14.501-.28 1.086-.418 1.756-.411zm.004 1.357c-.326 0-.62.08-.882.24-.259.156-.465.371-.615.642-.148.269-.222.569-.222.9.003.329.077.628.222.896.147.269.348.481.601.638.257.157.549.235.878.235.244 0 .472-.046.683-.14.211-.093.395-.223.552-.389.16-.169.284-.36.371-.574.091-.215.134-.441.131-.679 0-.317-.075-.609-.226-.878-.148-.268-.351-.484-.611-.647-.256-.163-.55-.244-.882-.244zm4.549 8.035v-6.949h1.638v2.805h.597l2.09-2.805h1.973l-2.575 3.411 2.602 3.538h-1.982l-1.905-2.619h-.8v2.619z" fill="#5f5f5f"/><path d="m337.988 484.889v-1.267l3.92-4.06c.418-.442.763-.828 1.035-1.16.275-.335.48-.654.616-.956.136-.301.204-.622.204-.961 0-.385-.091-.716-.272-.995-.181-.283-.428-.5-.741-.651-.313-.154-.665-.232-1.057-.232-.415 0-.777.085-1.086.255s-.547.409-.713.718-.249.671-.249 1.086h-1.668c0-.705.162-1.322.486-1.849.325-.528.77-.937 1.335-1.228.566-.294 1.209-.441 1.929-.441.727 0 1.368.145 1.923.436.558.286.993.678 1.306 1.176.313.494.469 1.052.469 1.674 0 .43-.081.85-.243 1.261-.158.411-.435.869-.831 1.375-.396.501-.947 1.11-1.652 1.826l-2.301 2.41v.084h5.214v1.499zm9.13 0v-1.267l3.92-4.06c.418-.442.763-.828 1.035-1.16.275-.335.48-.654.616-.956.136-.301.204-.622.204-.961 0-.385-.091-.716-.272-.995-.181-.283-.428-.5-.741-.651-.313-.154-.665-.232-1.057-.232-.415 0-.777.085-1.086.255s-.547.409-.713.718-.249.671-.249 1.086h-1.668c0-.705.162-1.322.486-1.849.325-.528.77-.937 1.335-1.228.566-.294 1.209-.441 1.929-.441.727 0 1.368.145 1.923.436.558.286.993.678 1.306 1.176.313.494.469 1.052.469 1.674 0 .43-.081.85-.243 1.261-.158.411-.435.869-.831 1.375-.396.501-.946 1.11-1.652 1.826l-2.301 2.41v.084h5.214v1.499zm11.353-1.583-.085.616c-.056.452-.152.924-.288 1.414-.132.494-.27.952-.413 1.374-.14.422-.255.758-.345 1.007h-1.199c.049-.234.117-.551.204-.95.086-.396.171-.839.254-1.329s.145-.99.187-1.499l.056-.633zm5.253 1.741c-.81 0-1.527-.139-2.149-.418-.618-.279-1.103-.664-1.453-1.154-.351-.49-.524-1.048-.521-1.674-.003-.49.097-.941.3-1.352.208-.414.488-.759.843-1.034.354-.279.75-.457 1.187-.532v-.068c-.576-.139-1.038-.449-1.385-.927-.347-.479-.519-1.03-.515-1.652-.004-.592.153-1.12.47-1.583.32-.468.759-.836 1.317-1.103.558-.268 1.194-.402 1.906-.402.705 0 1.335.136 1.889.407.558.268.997.636 1.318 1.103.32.464.483.99.486 1.578-.003.622-.181 1.173-.531 1.652-.351.478-.807.788-1.369.927v.068c.434.075.824.253 1.171.532.35.275.629.62.837 1.034.211.411.318.862.322 1.352-.004.626-.181 1.184-.531 1.674-.351.49-.838.875-1.46 1.154-.618.279-1.329.418-2.132.418zm0-1.43c.479 0 .894-.08 1.244-.238.351-.162.623-.386.815-.673.192-.29.29-.63.294-1.018-.004-.403-.109-.76-.317-1.069-.203-.309-.48-.552-.831-.729-.351-.178-.752-.266-1.205-.266-.456 0-.861.088-1.216.266-.354.177-.633.42-.837.729-.203.309-.303.666-.299 1.069-.004.388.088.728.277 1.018.192.287.465.511.82.673.354.158.773.238 1.255.238zm0-5.39c.385 0 .726-.077 1.024-.232s.532-.369.701-.645c.174-.275.262-.597.266-.967-.004-.362-.09-.678-.26-.95-.166-.271-.398-.481-.696-.628-.298-.151-.643-.226-1.035-.226-.399 0-.75.075-1.052.226-.298.147-.529.357-.695.628-.166.272-.247.588-.243.95-.004.37.079.692.248.967.17.276.404.49.702.645.301.155.648.232 1.04.232zm15.136 4.49v-.61c0-.438.09-.837.271-1.199.185-.366.453-.658.803-.877.355-.222.783-.334 1.284-.334.513 0 .943.11 1.289.328.347.219.609.511.787.877.181.366.271.767.271 1.205v.61c0 .438-.09.839-.271 1.205-.181.362-.447.654-.798.877-.347.218-.773.328-1.278.328-.509 0-.939-.11-1.289-.328-.351-.223-.617-.515-.798-.877-.181-.366-.271-.767-.271-1.205zm1.317-.61v.61c0 .325.078.619.232.883.155.264.424.395.809.395.381 0 .647-.131.797-.395.151-.264.227-.558.227-.883v-.61c0-.325-.074-.619-.221-.883-.143-.264-.411-.396-.803-.396-.377 0-.645.132-.803.396s-.238.558-.238.883zm-7.143-6.018v-.611c0-.437.091-.839.272-1.204.185-.366.452-.658.803-.877.354-.219.782-.328 1.284-.328.513 0 .942.109 1.289.328s.609.511.786.877c.178.365.266.767.266 1.204v.611c0 .437-.09.839-.271 1.205-.177.362-.441.654-.792.876-.347.219-.773.328-1.278.328-.513 0-.945-.109-1.295-.328-.347-.222-.611-.514-.792-.876-.181-.366-.272-.768-.272-1.205zm1.324-.611v.611c0 .324.075.618.226.882.155.264.424.396.809.396.377 0 .641-.132.792-.396.154-.264.231-.558.231-.882v-.611c0-.324-.073-.618-.22-.882s-.415-.396-.803-.396c-.377 0-.645.132-.803.396-.155.264-.232.558-.232.882zm-.786 9.411 7.963-11.582h1.351l-7.963 11.582z" fill="#858585"/><path d="m320.27 567.722h74.0556v81.2222h-74.0556z" fill="url(#k)" transform="matrix(0 -1 1 0 -247.452 887.992)"/><path d="m320.27 493.667h81.222" stroke="#04b34a" stroke-width="3.18518"/><path d="m337.67 575.234v9.266h-1.679v-7.632h-.054l-2.167 1.384v-1.538l2.303-1.48zm5.268 9.443c-.745 0-1.384-.189-1.918-.566-.531-.38-.94-.927-1.226-1.642-.284-.718-.426-1.582-.426-2.593.003-1.01.147-1.87.43-2.579.287-.712.695-1.254 1.226-1.628.534-.374 1.172-.561 1.914-.561s1.38.187 1.914.561.942.916 1.226 1.628c.286.712.43 1.572.43 2.579 0 1.014-.144 1.879-.43 2.597-.284.715-.692 1.261-1.226 1.638-.531.377-1.169.566-1.914.566zm0-1.417c.579 0 1.036-.285 1.371-.855.338-.573.507-1.416.507-2.529 0-.736-.077-1.354-.231-1.855-.154-.5-.371-.878-.652-1.131-.28-.256-.612-.384-.995-.384-.576 0-1.032.286-1.366.859-.335.57-.504 1.407-.507 2.511-.003.739.071 1.361.222 1.864.153.504.371.884.651 1.14.281.254.614.38 1 .38zm7.988 1.417c-.745 0-1.384-.189-1.918-.566-.531-.38-.94-.927-1.226-1.642-.284-.718-.425-1.582-.425-2.593.003-1.01.146-1.87.429-2.579.287-.712.696-1.254 1.227-1.628.533-.374 1.171-.561 1.913-.561s1.38.187 1.914.561.943.916 1.226 1.628c.287.712.43 1.572.43 2.579 0 1.014-.143 1.879-.43 2.597-.283.715-.692 1.261-1.226 1.638-.531.377-1.169.566-1.914.566zm0-1.417c.579 0 1.036-.285 1.371-.855.338-.573.507-1.416.507-2.529 0-.736-.077-1.354-.231-1.855-.154-.5-.371-.878-.651-1.131-.281-.256-.613-.384-.996-.384-.576 0-1.031.286-1.366.859-.335.57-.504 1.407-.507 2.511-.003.739.071 1.361.222 1.864.154.504.371.884.651 1.14.281.254.614.38 1 .38zm8.794-4.067v1.348h-4.171v-1.348zm4.964-3.959v9.266h-1.679v-7.632h-.054l-2.167 1.384v-1.538l2.303-1.48zm1.675 7.547v-1.335l3.932-6.212h1.113v1.9h-.678l-2.647 4.195v.072h5.488v1.38zm4.421 1.719v-2.126l.018-.598v-6.542h1.583v9.266zm6.94-9.392c.443.003.874.081 1.294.235.422.151.802.398 1.14.742.338.341.606.798.805 1.371s.299 1.282.299 2.126c.003.796-.082 1.508-.254 2.136-.169.624-.411 1.152-.728 1.583-.317.432-.698.76-1.145.987-.446.226-.948.339-1.506.339-.586 0-1.104-.115-1.557-.344-.449-.229-.813-.543-1.09-.941-.278-.398-.448-.854-.511-1.366h1.651c.084.368.256.66.516.877.262.214.592.322.991.322.642 0 1.137-.279 1.484-.837.346-.558.52-1.334.52-2.326h-.063c-.148.265-.34.495-.575.688-.235.19-.502.336-.801.439-.295.102-.609.153-.941.153-.543 0-1.031-.129-1.466-.389-.431-.259-.774-.615-1.027-1.067-.25-.453-.377-.97-.38-1.552 0-.604.139-1.145.416-1.625.281-.482.671-.862 1.172-1.14.501-.28 1.086-.418 1.756-.411zm.004 1.357c-.326 0-.62.08-.882.24-.26.156-.465.371-.615.642-.148.269-.222.569-.222.9.003.329.077.628.222.896.147.269.348.481.601.638.257.157.549.235.878.235.244 0 .472-.046.683-.14.211-.093.395-.223.552-.389.16-.169.284-.36.371-.574.091-.215.134-.441.131-.679 0-.317-.075-.609-.226-.878-.148-.268-.351-.484-.611-.647-.256-.163-.55-.244-.882-.244zm4.549 8.035v-6.949h1.638v2.805h.597l2.09-2.805h1.973l-2.575 3.411 2.602 3.538h-1.982l-1.905-2.619h-.8v2.619z" fill="#5f5f5f"/><path d="m488.107 493.214v11.582h-1.753v-9.829h-.068l-2.771 1.81v-1.674l2.89-1.889zm2.886 11.582 5.056-9.998v-.085h-5.847v-1.499h7.657v1.55l-5.039 10.032zm17.819-2.171v-.611c0-.437.091-.837.272-1.199.184-.366.452-.658.803-.877.354-.222.782-.333 1.284-.333.512 0 .942.109 1.289.328.347.218.609.511.786.876.181.366.272.768.272 1.205v.611c0 .437-.091.839-.272 1.204-.181.362-.447.655-.797.877-.347.219-.773.328-1.278.328-.509 0-.939-.109-1.29-.328-.351-.222-.616-.515-.797-.877-.181-.365-.272-.767-.272-1.204zm1.318-.611v.611c0 .324.077.618.232.882.154.264.424.396.809.396.38 0 .646-.132.797-.396s.226-.558.226-.882v-.611c0-.324-.073-.618-.22-.882-.144-.264-.411-.396-.803-.396-.377 0-.645.132-.804.396-.158.264-.237.558-.237.882zm-7.143-6.018v-.61c0-.438.091-.839.272-1.205.184-.366.452-.658.803-.877.354-.218.782-.328 1.283-.328.513 0 .943.11 1.29.328.347.219.609.511.786.877s.266.767.266 1.205v.61c0 .438-.091.839-.272 1.205-.177.362-.441.654-.791.877-.347.218-.773.328-1.279.328-.512 0-.944-.11-1.295-.328-.347-.223-.611-.515-.791-.877-.181-.366-.272-.767-.272-1.205zm1.323-.61v.61c0 .325.076.619.227.883.154.264.424.396.808.396.377 0 .641-.132.792-.396.155-.264.232-.558.232-.883v-.61c0-.325-.073-.619-.221-.883-.147-.263-.414-.395-.803-.395-.377 0-.644.132-.803.395-.154.264-.232.558-.232.883zm-.786 9.41 7.963-11.582h1.352l-7.963 11.582z" fill="#858585"/><path d="m457.71 567.722h54.1482v82.0185h-54.1482z" fill="url(#l)" transform="matrix(0 -1 1 0 -110.012 1025.432)"/><path d="m457.71 513.574h82.019" stroke="#04b34a" stroke-width="3.18518"/><path d="m475.838 575.234v9.266h-1.679v-7.632h-.054l-2.167 1.384v-1.538l2.303-1.48zm5.064 9.393c-.603 0-1.143-.113-1.619-.339-.477-.23-.855-.543-1.136-.942-.277-.398-.425-.853-.443-1.366h1.629c.03.38.194.691.493.932.298.238.657.358 1.076.358.329 0 .622-.076.878-.227.257-.15.459-.36.606-.629.148-.268.221-.574.218-.918.003-.35-.071-.661-.222-.932-.151-.272-.357-.484-.62-.638-.262-.157-.564-.235-.905-.235-.277-.003-.55.048-.819.154-.268.105-.481.244-.638.416l-1.515-.249.484-4.778h5.375v1.403h-3.986l-.267 2.457h.054c.172-.203.415-.37.729-.503.313-.135.657-.203 1.031-.203.561 0 1.062.132 1.502.398.441.262.788.624 1.041 1.086.253.461.38.989.38 1.583 0 .613-.142 1.159-.425 1.638-.281.477-.671.852-1.172 1.127-.498.271-1.074.407-1.729.407zm7.757.05c-.745 0-1.385-.189-1.918-.566-.531-.38-.94-.927-1.227-1.642-.283-.718-.425-1.582-.425-2.593.003-1.01.146-1.87.43-2.579.287-.712.695-1.254 1.226-1.628.534-.374 1.172-.561 1.914-.561s1.38.187 1.914.561.942.916 1.226 1.628c.286.712.43 1.572.43 2.579 0 1.014-.144 1.879-.43 2.597-.284.715-.692 1.261-1.226 1.638-.531.377-1.169.566-1.914.566zm0-1.417c.579 0 1.036-.285 1.371-.855.338-.573.507-1.416.507-2.529 0-.736-.077-1.354-.231-1.855-.154-.5-.371-.878-.652-1.131-.28-.256-.612-.384-.995-.384-.576 0-1.032.286-1.366.859-.335.57-.504 1.407-.507 2.511-.003.739.071 1.361.222 1.864.153.504.371.884.651 1.14.281.254.614.38 1 .38zm8.794-4.067v1.348h-4.172v-1.348zm4.963-3.959v9.266h-1.678v-7.632h-.054l-2.168 1.384v-1.538l2.303-1.48zm5.06-.126c.444.003.875.081 1.294.235.423.151.803.398 1.14.742.338.341.607.798.806 1.371s.298 1.282.298 2.126c.003.796-.081 1.508-.253 2.136-.169.624-.412 1.152-.728 1.583-.317.432-.699.76-1.145.987-.446.226-.949.339-1.507.339-.585 0-1.104-.115-1.556-.344-.449-.229-.813-.543-1.09-.941-.278-.398-.448-.854-.512-1.366h1.652c.084.368.256.66.515.877.263.214.593.322.991.322.643 0 1.137-.279 1.484-.837s.521-1.334.521-2.326h-.064c-.147.265-.339.495-.574.688-.236.19-.503.336-.801.439-.296.102-.609.153-.941.153-.543 0-1.032-.129-1.466-.389-.431-.259-.774-.615-1.027-1.067-.25-.453-.377-.97-.38-1.552 0-.604.139-1.145.416-1.625.281-.482.671-.862 1.172-1.14.501-.28 1.086-.418 1.755-.411zm.005 1.357c-.326 0-.62.08-.882.24-.26.156-.465.371-.616.642-.148.269-.221.569-.221.9.003.329.077.628.221.896.148.269.349.481.602.638.256.157.549.235.878.235.244 0 .472-.046.683-.14.211-.093.395-.223.552-.389.16-.169.283-.36.371-.574.09-.215.134-.441.131-.679 0-.317-.075-.609-.226-.878-.148-.268-.351-.484-.611-.647-.256-.163-.55-.244-.882-.244zm7.747-1.357c.444.003.875.081 1.294.235.423.151.803.398 1.14.742.338.341.607.798.806 1.371s.298 1.282.298 2.126c.003.796-.081 1.508-.253 2.136-.169.624-.412 1.152-.728 1.583-.317.432-.699.76-1.145.987-.447.226-.949.339-1.507.339-.585 0-1.104-.115-1.556-.344-.45-.229-.813-.543-1.091-.941-.277-.398-.447-.854-.511-1.366h1.652c.084.368.256.66.515.877.263.214.593.322.991.322.643 0 1.137-.279 1.484-.837s.521-1.334.521-2.326h-.064c-.148.265-.339.495-.574.688-.236.19-.503.336-.801.439-.296.102-.609.153-.941.153-.543 0-1.032-.129-1.466-.389-.431-.259-.774-.615-1.027-1.067-.251-.453-.377-.97-.38-1.552 0-.604.138-1.145.416-1.625.28-.482.671-.862 1.172-1.14.501-.28 1.086-.418 1.755-.411zm.005 1.357c-.326 0-.62.08-.882.24-.26.156-.465.371-.616.642-.148.269-.221.569-.221.9.003.329.076.628.221.896.148.269.349.481.602.638.256.157.549.235.878.235.244 0 .472-.046.683-.14.211-.093.395-.223.552-.389.16-.169.283-.36.371-.574.09-.215.134-.441.131-.679 0-.317-.075-.609-.226-.878-.148-.268-.352-.484-.611-.647-.256-.163-.55-.244-.882-.244zm4.548 8.035v-6.949h1.638v2.805h.598l2.09-2.805h1.972l-2.574 3.411 2.602 3.538h-1.982l-1.905-2.619h-.801v2.619z" fill="#5f5f5f"/><path d="m622.356 516.148c.517.004 1.026.098 1.527.283.502.185.954.486 1.357.905.408.418.732.984.973 1.697.245.708.37 1.591.373 2.646 0 1.015-.101 1.918-.305 2.709-.204.788-.496 1.454-.877 1.997-.377.543-.835.955-1.374 1.238s-1.146.424-1.821.424c-.69 0-1.303-.135-1.838-.407-.535-.271-.971-.646-1.306-1.125-.336-.483-.545-1.037-.628-1.663h1.725c.113.498.343.901.69 1.21.35.306.803.458 1.357.458.848 0 1.51-.369 1.985-1.108.475-.743.715-1.78.718-3.111h-.09c-.196.325-.441.604-.735.837-.291.234-.617.415-.979.543-.362.129-.748.193-1.159.193-.667 0-1.274-.164-1.821-.492s-.982-.779-1.307-1.352c-.324-.573-.486-1.227-.486-1.963 0-.731.166-1.395.498-1.99.335-.596.803-1.067 1.402-1.414.604-.351 1.31-.522 2.121-.515zm.006 1.471c-.441 0-.839.109-1.194.328-.35.215-.627.507-.831.876-.204.366-.305.773-.305 1.222s.098.856.294 1.221c.2.362.471.651.814.866.347.211.743.316 1.188.316.332 0 .641-.064.927-.192.287-.128.538-.305.752-.531.215-.23.383-.491.504-.781.12-.29.181-.596.181-.916 0-.426-.102-.822-.306-1.188-.199-.365-.475-.66-.825-.882-.351-.226-.751-.339-1.199-.339zm7.433 8.687-.085.616c-.056.452-.152.924-.288 1.414-.132.494-.27.952-.413 1.374-.14.422-.254.758-.345 1.007h-1.199c.049-.234.117-.551.204-.95.086-.396.171-.839.254-1.329s.145-.99.187-1.499l.056-.633zm5.44-10.158c.516.004 1.025.098 1.527.283.501.185.954.486 1.357.905.407.418.732.984.973 1.697.245.708.369 1.591.373 2.646 0 1.015-.102 1.918-.305 2.709-.204.788-.496 1.454-.877 1.997-.377.543-.835.955-1.374 1.238s-1.146.424-1.821.424c-.69 0-1.303-.135-1.838-.407-.536-.271-.971-.646-1.307-1.125-.335-.483-.544-1.037-.627-1.663h1.725c.113.498.343.901.69 1.21.35.306.803.458 1.357.458.848 0 1.51-.369 1.985-1.108.475-.743.714-1.78.718-3.111h-.09c-.196.325-.441.604-.735.837-.291.234-.617.415-.979.543-.362.129-.748.193-1.159.193-.668 0-1.275-.164-1.821-.492-.547-.328-.983-.779-1.307-1.352s-.486-1.227-.486-1.963c0-.731.166-1.395.498-1.99.335-.596.803-1.067 1.402-1.414.603-.351 1.31-.522 2.121-.515zm.006 1.471c-.442 0-.839.109-1.194.328-.35.215-.627.507-.831.876-.204.366-.305.773-.305 1.222s.098.856.294 1.221c.199.362.471.651.814.866.347.211.743.316 1.188.316.331 0 .641-.064.927-.192.287-.128.537-.305.752-.531.215-.23.383-.491.504-.781.12-.29.181-.596.181-.916 0-.426-.102-.822-.306-1.188-.2-.365-.475-.66-.825-.882-.351-.226-.751-.339-1.199-.339zm15.254 8.098v-.61c0-.438.09-.837.271-1.199.185-.366.453-.658.803-.877.355-.222.783-.334 1.284-.334.513 0 .943.11 1.29.328.346.219.608.511.786.877.181.366.271.767.271 1.205v.61c0 .438-.09.839-.271 1.205-.181.362-.447.654-.798.877-.347.218-.773.328-1.278.328-.509 0-.939-.11-1.289-.328-.351-.223-.617-.515-.798-.877-.181-.366-.271-.767-.271-1.205zm1.317-.61v.61c0 .325.078.619.232.883.155.264.425.395.809.395.381 0 .647-.131.798-.395.15-.264.226-.558.226-.883v-.61c0-.325-.074-.619-.221-.883-.143-.264-.411-.396-.803-.396-.377 0-.645.132-.803.396s-.238.558-.238.883zm-7.142-6.018v-.611c0-.437.09-.839.271-1.204.185-.366.452-.658.803-.877.355-.219.782-.328 1.284-.328.513 0 .943.109 1.289.328.347.219.609.511.786.877.178.365.266.767.266 1.204v.611c0 .437-.09.839-.271 1.205-.177.362-.441.654-.792.876-.347.219-.773.328-1.278.328-.513 0-.945-.109-1.295-.328-.347-.222-.611-.514-.792-.876-.181-.366-.271-.768-.271-1.205zm1.323-.611v.611c0 .324.075.618.226.882.155.264.424.396.809.396.377 0 .641-.132.792-.396.154-.264.232-.558.232-.882v-.611c0-.324-.074-.618-.221-.882s-.415-.396-.803-.396c-.377 0-.645.132-.803.396-.155.264-.232.558-.232.882zm-.786 9.411 7.963-11.582h1.351l-7.962 11.582z" fill="#858585"/><path d="m595.948 567.722h31.0556v82.0185h-31.0556z" fill="url(#m)" transform="matrix(0 -1 1 0 28.226 1163.67)"/><path d="m595.948 536.667h82.018" stroke="#04b34a" stroke-width="3.18518"/><path d="m608.446 584.5v-1.212l3.217-3.154c.308-.311.564-.587.769-.828.206-.241.359-.475.462-.701.102-.226.154-.468.154-.724 0-.293-.067-.543-.199-.751-.133-.211-.316-.374-.548-.489-.232-.114-.496-.172-.792-.172-.304 0-.571.064-.8.19-.23.124-.408.3-.534.53-.124.229-.186.502-.186.819h-1.597c0-.589.134-1.1.403-1.534.268-.434.638-.771 1.108-1.009.474-.238 1.017-.357 1.629-.357.621 0 1.167.116 1.638.348.47.232.835.55 1.095.955.262.404.393.865.393 1.384 0 .347-.066.688-.199 1.023-.132.334-.366.705-.701 1.113-.332.407-.798.9-1.398 1.479l-1.597 1.624v.064h4.036v1.402zm10.829.177c-.745 0-1.385-.189-1.918-.566-.531-.38-.94-.927-1.227-1.642-.283-.718-.425-1.582-.425-2.593.003-1.01.146-1.87.43-2.579.287-.712.695-1.254 1.226-1.628.534-.374 1.172-.561 1.914-.561s1.38.187 1.914.561.942.916 1.226 1.628c.286.712.43 1.572.43 2.579 0 1.014-.144 1.879-.43 2.597-.284.715-.692 1.261-1.226 1.638-.531.377-1.169.566-1.914.566zm0-1.417c.579 0 1.036-.285 1.371-.855.338-.573.507-1.416.507-2.529 0-.736-.077-1.354-.231-1.855-.154-.5-.371-.878-.652-1.131-.28-.256-.612-.384-.995-.384-.576 0-1.032.286-1.366.859-.335.57-.504 1.407-.507 2.511-.003.739.071 1.361.222 1.864.153.504.371.884.651 1.14.281.254.614.38 1 .38zm7.988 1.417c-.745 0-1.384-.189-1.918-.566-.531-.38-.94-.927-1.226-1.642-.284-.718-.425-1.582-.425-2.593.003-1.01.146-1.87.429-2.579.287-.712.696-1.254 1.226-1.628.534-.374 1.172-.561 1.914-.561s1.38.187 1.914.561.943.916 1.226 1.628c.287.712.43 1.572.43 2.579 0 1.014-.143 1.879-.43 2.597-.283.715-.692 1.261-1.226 1.638-.531.377-1.169.566-1.914.566zm0-1.417c.579 0 1.036-.285 1.371-.855.338-.573.507-1.416.507-2.529 0-.736-.077-1.354-.231-1.855-.154-.5-.371-.878-.651-1.131-.281-.256-.613-.384-.996-.384-.576 0-1.031.286-1.366.859-.335.57-.504 1.407-.507 2.511-.003.739.071 1.361.222 1.864.154.504.371.884.651 1.14.281.254.614.38 1 .38zm8.794-4.067v1.348h-4.172v-1.348zm.871 5.307v-1.212l3.217-3.154c.308-.311.564-.587.769-.828.206-.241.359-.475.462-.701.102-.226.154-.468.154-.724 0-.293-.067-.543-.199-.751-.133-.211-.316-.374-.548-.489-.232-.114-.496-.172-.792-.172-.304 0-.571.064-.8.19-.23.124-.408.3-.534.53-.124.229-.186.502-.186.819h-1.597c0-.589.134-1.1.403-1.534.268-.434.638-.771 1.108-1.009.474-.238 1.017-.357 1.629-.357.621 0 1.167.116 1.638.348.47.232.835.55 1.095.955.262.404.393.865.393 1.384 0 .347-.066.688-.199 1.023-.132.334-.366.705-.701 1.113-.332.407-.798.9-1.398 1.479l-1.597 1.624v.064h4.036v1.402zm7.038-1.719v-1.335l3.931-6.212h1.113v1.9h-.678l-2.647 4.195v.072h5.488v1.38zm4.42 1.719v-2.126l.018-.598v-6.542h1.584v9.266zm6.94-9.392c.443.003.874.081 1.294.235.422.151.802.398 1.14.742.338.341.606.798.805 1.371s.299 1.282.299 2.126c.003.796-.082 1.508-.254 2.136-.169.624-.411 1.152-.728 1.583-.317.432-.698.76-1.145.987-.446.226-.948.339-1.506.339-.585 0-1.104-.115-1.557-.344-.449-.229-.813-.543-1.09-.941-.278-.398-.448-.854-.511-1.366h1.651c.085.368.256.66.516.877.262.214.593.322.991.322.642 0 1.137-.279 1.484-.837s.52-1.334.52-2.326h-.063c-.148.265-.34.495-.575.688-.235.19-.502.336-.801.439-.295.102-.609.153-.941.153-.543 0-1.031-.129-1.466-.389-.431-.259-.773-.615-1.027-1.067-.25-.453-.377-.97-.38-1.552 0-.604.139-1.145.416-1.625.281-.482.672-.862 1.172-1.14.501-.28 1.086-.418 1.756-.411zm.004 1.357c-.326 0-.62.08-.882.24-.259.156-.465.371-.615.642-.148.269-.222.569-.222.9.003.329.077.628.222.896.147.269.348.481.601.638.257.157.549.235.878.235.244 0 .472-.046.683-.14.211-.093.395-.223.552-.389.16-.169.284-.36.371-.574.091-.215.135-.441.131-.679 0-.317-.075-.609-.226-.878-.148-.268-.351-.484-.611-.647-.256-.163-.55-.244-.882-.244zm4.549 8.035v-6.949h1.638v2.805h.597l2.09-2.805h1.973l-2.575 3.411 2.602 3.538h-1.982l-1.904-2.619h-.801v2.619z" fill="#5f5f5f"/><path d="m759.456 490.029v11.582h-1.753v-9.829h-.068l-2.771 1.81v-1.674l2.89-1.889zm2.886 11.582 5.056-9.999v-.085h-5.848v-1.498h7.658v1.549l-5.039 10.033zm8.428-1.583-.085.616c-.057.453-.153.924-.289 1.414-.132.494-.269.952-.413 1.374-.139.423-.254.758-.345 1.007h-1.199c.049-.234.117-.55.204-.95.087-.396.172-.839.255-1.329.082-.49.145-.99.186-1.499l.057-.633zm1.823 1.583 5.056-9.999v-.085h-5.848v-1.498h7.657v1.549l-5.039 10.033zm17.819-2.171v-.611c0-.438.09-.837.271-1.199.185-.366.452-.658.803-.877.355-.222.782-.333 1.284-.333.513 0 .942.109 1.289.328.347.218.609.51.786.876.181.366.272.767.272 1.205v.611c0 .437-.091.838-.272 1.204-.18.362-.446.654-.797.877-.347.218-.773.328-1.278.328-.509 0-.939-.11-1.29-.328-.35-.223-.616-.515-.797-.877-.181-.366-.271-.767-.271-1.204zm1.317-.611v.611c0 .324.078.618.232.882.155.264.424.396.809.396.381 0 .647-.132.797-.396.151-.264.227-.558.227-.882v-.611c0-.324-.074-.619-.221-.883-.143-.263-.411-.395-.803-.395-.377 0-.645.132-.803.395-.159.264-.238.559-.238.883zm-7.143-6.018v-.611c0-.437.091-.838.272-1.204.185-.366.452-.658.803-.877.354-.218.782-.328 1.284-.328.512 0 .942.11 1.289.328.347.219.609.511.786.877.178.366.266.767.266 1.204v.611c0 .438-.09.839-.271 1.205-.178.362-.441.654-.792.877-.347.218-.773.328-1.278.328-.513 0-.945-.11-1.295-.328-.347-.223-.611-.515-.792-.877-.181-.366-.272-.767-.272-1.205zm1.324-.611v.611c0 .325.075.619.226.883.155.263.424.395.809.395.377 0 .641-.132.792-.395.154-.264.231-.558.231-.883v-.611c0-.324-.073-.618-.22-.882s-.415-.396-.803-.396c-.377 0-.645.132-.803.396-.155.264-.232.558-.232.882zm-.786 9.411 7.963-11.582h1.351l-7.963 11.582z" fill="#858585"/><path d="m734.185 567.722h57.3333v82.0185h-57.3333z" fill="url(#n)" transform="matrix(0 -1 1 0 166.463 1301.907)"/><path d="m734.185 510.389h82.018" stroke="#04b34a" stroke-width="3.18518"/><path d="m746.441 584.5v-1.212l3.216-3.154c.308-.311.565-.587.77-.828s.359-.475.461-.701c.103-.226.154-.468.154-.724 0-.293-.066-.543-.199-.751-.133-.211-.315-.374-.548-.489-.232-.114-.496-.172-.791-.172-.305 0-.572.064-.801.19-.229.124-.407.3-.534.53-.124.229-.186.502-.186.819h-1.597c0-.589.135-1.1.403-1.534s.638-.771 1.108-1.009c.474-.238 1.017-.357 1.629-.357.622 0 1.168.116 1.638.348.471.232.836.55 1.095.955.262.404.394.865.394 1.384 0 .347-.067.688-.199 1.023-.133.334-.367.705-.702 1.113-.332.407-.798.9-1.398 1.479l-1.597 1.624v.064h4.036v1.402zm10.625.127c-.604 0-1.144-.113-1.62-.339-.477-.23-.855-.543-1.136-.942-.277-.398-.425-.853-.443-1.366h1.629c.03.38.194.691.493.932.298.238.657.358 1.077.358.328 0 .621-.076.877-.227.257-.15.459-.36.607-.629.147-.268.22-.574.217-.918.003-.35-.071-.661-.222-.932-.151-.272-.357-.484-.62-.638-.262-.157-.564-.235-.905-.235-.277-.003-.55.048-.819.154-.268.105-.481.244-.638.416l-1.515-.249.484-4.778h5.375v1.403h-3.986l-.267 2.457h.054c.172-.203.415-.37.729-.503.313-.135.657-.203 1.031-.203.561 0 1.062.132 1.502.398.441.262.788.624 1.041 1.086.253.461.38.989.38 1.583 0 .613-.142 1.159-.425 1.638-.281.477-.671.852-1.172 1.127-.498.271-1.074.407-1.728.407zm7.756.05c-.745 0-1.384-.189-1.918-.566-.531-.38-.94-.927-1.226-1.642-.284-.718-.426-1.582-.426-2.593.003-1.01.147-1.87.43-2.579.287-.712.695-1.254 1.226-1.628.534-.374 1.172-.561 1.914-.561s1.38.187 1.914.561.942.916 1.226 1.628c.287.712.43 1.572.43 2.579 0 1.014-.143 1.879-.43 2.597-.284.715-.692 1.261-1.226 1.638-.531.377-1.169.566-1.914.566zm0-1.417c.579 0 1.036-.285 1.371-.855.338-.573.507-1.416.507-2.529 0-.736-.077-1.354-.231-1.855-.154-.5-.371-.878-.652-1.131-.28-.256-.612-.384-.995-.384-.576 0-1.032.286-1.366.859-.335.57-.504 1.407-.507 2.511-.003.739.071 1.361.222 1.864.153.504.371.884.651 1.14.281.254.614.38 1 .38zm8.794-4.067v1.348h-4.172v-1.348zm4.416 5.434c-.603 0-1.143-.113-1.62-.339-.476-.23-.855-.543-1.135-.942-.278-.398-.426-.853-.444-1.366h1.629c.03.38.195.691.493.932.299.238.658.358 1.077.358.329 0 .621-.076.878-.227.256-.15.458-.36.606-.629.148-.268.22-.574.217-.918.003-.35-.071-.661-.221-.932-.151-.272-.358-.484-.62-.638-.263-.157-.564-.235-.905-.235-.278-.003-.551.048-.819.154-.269.105-.481.244-.638.416l-1.516-.249.484-4.778h5.375v1.403h-3.986l-.267 2.457h.055c.172-.203.414-.37.728-.503.314-.135.658-.203 1.032-.203.561 0 1.061.132 1.502.398.44.262.787.624 1.04 1.086.254.461.38.989.38 1.583 0 .613-.141 1.159-.425 1.638-.28.477-.671.852-1.172 1.127-.497.271-1.073.407-1.728.407zm7.756.05c-.745 0-1.384-.189-1.918-.566-.531-.38-.939-.927-1.226-1.642-.283-.718-.425-1.582-.425-2.593.003-1.01.146-1.87.43-2.579.286-.712.695-1.254 1.226-1.628.534-.374 1.171-.561 1.913-.561.743 0 1.38.187 1.914.561s.943.916 1.226 1.628c.287.712.43 1.572.43 2.579 0 1.014-.143 1.879-.43 2.597-.283.715-.692 1.261-1.226 1.638-.531.377-1.168.566-1.914.566zm0-1.417c.58 0 1.037-.285 1.371-.855.338-.573.507-1.416.507-2.529 0-.736-.077-1.354-.231-1.855-.153-.5-.371-.878-.651-1.131-.281-.256-.612-.384-.996-.384-.576 0-1.031.286-1.366.859-.335.57-.504 1.407-.507 2.511-.003.739.071 1.361.222 1.864.154.504.371.884.652 1.14.28.254.613.38.999.38zm7.989 1.417c-.745 0-1.385-.189-1.919-.566-.53-.38-.939-.927-1.226-1.642-.283-.718-.425-1.582-.425-2.593.003-1.01.146-1.87.43-2.579.286-.712.695-1.254 1.226-1.628.534-.374 1.172-.561 1.914-.561s1.38.187 1.914.561.942.916 1.226 1.628c.286.712.43 1.572.43 2.579 0 1.014-.144 1.879-.43 2.597-.284.715-.692 1.261-1.226 1.638-.531.377-1.169.566-1.914.566zm0-1.417c.579 0 1.036-.285 1.371-.855.338-.573.506-1.416.506-2.529 0-.736-.076-1.354-.23-1.855-.154-.5-.371-.878-.652-1.131-.28-.256-.612-.384-.995-.384-.576 0-1.032.286-1.367.859-.334.57-.503 1.407-.506 2.511-.003.739.071 1.361.221 1.864.154.504.371.884.652 1.14.28.254.614.38 1 .38zm4.581 1.24v-6.949h1.638v2.805h.597l2.091-2.805h1.972l-2.574 3.411 2.601 3.538h-1.981l-1.905-2.619h-.801v2.619z" fill="#5f5f5f"/><path d="m43.7964 569.185h772.407v.796296h-772.407z" fill="#cacaca"/></svg>