<svg fill="none" height="874" viewBox="0 0 860 874" width="860" xmlns="http://www.w3.org/2000/svg" xmlns:xlink="http://www.w3.org/1999/xlink"><linearGradient id="a"><stop offset="0" stop-color="#d9d9d9"/><stop offset="1" stop-color="#d9d9d9" stop-opacity="0"/></linearGradient><linearGradient id="b" gradientUnits="userSpaceOnUse" x1="427.989" x2="427.989" xlink:href="#a" y1="169.195" y2="242.454"/><linearGradient id="c" gradientUnits="userSpaceOnUse" x1="427.628" x2="427.628" xlink:href="#a" y1="457.25" y2="530.509"/><linearGradient id="d" gradientUnits="userSpaceOnUse" x1="428.014" x2="428.014" y1="698.722" y2="817.769"><stop offset="0" stop-color="#04b34a"/><stop offset=".0666667" stop-color="#04b34a" stop-opacity=".991353"/><stop offset=".133333" stop-color="#04b34a" stop-opacity=".96449"/><stop offset=".2" stop-color="#04b34a" stop-opacity=".91834"/><stop offset=".266667" stop-color="#04b34a" stop-opacity=".852589"/><stop offset=".333333" stop-color="#04b34a" stop-opacity=".768225"/><stop offset=".4" stop-color="#04b34a" stop-opacity=".668116"/><stop offset=".466667" stop-color="#04b34a" stop-opacity=".557309"/><stop offset=".533333" stop-color="#04b34a" stop-opacity=".442691"/><stop offset=".6" stop-color="#04b34a" stop-opacity=".331884"/><stop offset=".666667" stop-color="#04b34a" stop-opacity=".231775"/><stop offset=".733333" stop-color="#04b34a" stop-opacity=".147411"/><stop offset=".8" stop-color="#04b34a" stop-opacity=".08166"/><stop offset=".866667" stop-color="#04b34a" stop-opacity=".03551"/><stop offset=".933333" stop-color="#04b34a" stop-opacity=".01"/><stop offset="1" stop-color="#04b34a" stop-opacity="0"/></linearGradient><path d="m0 .777954h860v873h-860z" fill="#fff"/><g fill="#eaecef"><path d="m729.078 39.7964-2.13 12.6315h2.372l-1.361 8.0722h-4.391l.65-3.8463h-11.271l-.649 3.8463h-4.391l1.362-8.0722h1.683c.77-1.0443 1.5-2.4223 2.322-5.3185l2.09-7.313h13.717zm-5.576 4.2258h-4.817l-.928 3.2528c-.809 2.8249-1.477 4.1063-2.152 5.1529h6.48z"/><path d="m732.949 39.7964h10.441c3.679 0 5.333 1.8748 4.875 4.5824-.293 1.7322-1.597 2.8479-2.82 3.3471 1.336.5222 2.393 1.8518 2.009 4.1315-.489 2.8963-2.85 4.7964-6.766 4.7964h-10.584zm3.063 10.1149-.497 2.9445h4.793c1.281 0 2.073-.4739 2.242-1.4722.172-1.0214-.463-1.4723-1.746-1.4723h-4.794zm1.065-6.3146-.424 2.5166h4.722c.997 0 1.697-.3565 1.85-1.2583.152-.9018-.429-1.2583-1.426-1.2583z"/><path d="m751.282 39.7964h4.865l-1.714 10.1609 9.14-10.1609h4.865l-2.842 16.8574h-4.865l1.707-10.1149-9.134 10.1149h-4.865z"/><path d="m775.671 47.9168-5.726-8.1204h5.505l4.77 6.8851 1.164-6.8851h4.627l-1.161 6.8851 7.095-6.8851h5.388l-8.24 7.9065 5.752 8.9509h-5.862l-4.6-7.1934-1.214 7.1934h-4.628l1.214-7.1934-7.028 7.1934h-5.648l8.594-8.737z"/><path d="m804.439 39.7964h-5.648l5.622 7.9065-8.345 8.9509h5.648l8.345-8.9509zm8.928 0h-5.648l5.623 7.9065-8.346 8.9509h5.648l8.346-8.9509zm9.158 0h-5.648l5.623 7.9065-8.345 8.9509h5.648l8.345-8.9509z"/></g><path d="m51.3868 39.7814v20.8485h-4.357v-17.2652h-8.4289v17.2652h-4.3571v-20.8485zm2.9686 26.7121v-21.5h4.2756v2.6264h.1934c.19-.4207.4649-.8483.8246-1.2826.3664-.4412.8415-.8076 1.4252-1.0995.5904-.2986 1.3233-.4479 2.1988-.4479 1.1402 0 2.1921.2986 3.1558.8959.9637.5904 1.734 1.4828 2.3108 2.6773.5769 1.1876.8653 2.6773.8653 4.469 0 1.7441-.2816 3.2168-.8449 4.418-.5565 1.1945-1.3166 2.1005-2.2803 2.7181-.9569.6108-2.0292.9162-3.2169.9162-.8415 0-1.5575-.1391-2.1479-.4174-.5837-.2782-1.0621-.6278-1.4354-1.0485-.3733-.4276-.6583-.8585-.8551-1.2929h-.1323v8.3679zm4.245-13.6818c0 .9298.129 1.7408.3869 2.433s.6311 1.2318 1.1198 1.6186c.4886.3801 1.0824.5701 1.7814.5701.7059 0 1.3031-.1934 1.7917-.5803.4887-.3936.8585-.9365 1.1096-1.6288.2579-.699.3869-1.5032.3869-2.4126 0-.9026-.1256-1.6967-.3767-2.3821s-.621-1.2216-1.1096-1.6084c-.4886-.3869-1.0893-.5803-1.8019-.5803-.7058 0-1.303.1866-1.7916.5599-.4819.3733-.8517.9026-1.1096 1.5881-.2579.6854-.3869 1.493-.3869 2.4228zm19.8138 8.1236c-1.5813 0-2.9488-.336-4.1025-1.0078-1.1469-.6787-2.0326-1.622-2.6569-2.8301-.6244-1.2148-.9366-2.623-.9366-4.2246 0-1.6152.3122-3.0269.9366-4.2349.6243-1.2148 1.51-2.1581 2.6569-2.83 1.1537-.6786 2.5212-1.018 4.1025-1.018s2.9454.3394 4.0924 1.018c1.1537.6719 2.0427 1.6152 2.6671 2.83.6244 1.208.9366 2.6197.9366 4.2349 0 1.6016-.3122 3.0098-.9366 4.2246-.6244 1.2081-1.5134 2.1514-2.6671 2.8301-1.147.6718-2.5111 1.0078-4.0924 1.0078zm.0204-3.3594c.7194 0 1.32-.2036 1.8018-.6108.4819-.414.845-.9773 1.0893-1.6899.2511-.7126.3766-1.5236.3766-2.433s-.1255-1.7204-.3766-2.433c-.2443-.7126-.6074-1.2758-1.0893-1.6898-.4818-.414-1.0824-.621-1.8018-.621-.7262 0-1.337.207-1.8324.621-.4886.414-.8585.9772-1.1096 1.6898-.2443.7126-.3665 1.5236-.3665 2.433s.1222 1.7204.3665 2.433c.2511.7126.621 1.2759 1.1096 1.6899.4954.4072 1.1062.6108 1.8324.6108zm23.0204-12.5824v12.6435h2.494v8.0218h-4.2143v-5.0289h-11.9513v-15.6364h4.1433v12.2261h5.436v-12.2261zm10.98 15.9418c-1.608 0-2.993-.3258-4.153-.9773-1.154-.6583-2.043-1.5881-2.667-2.7893-.625-1.208-.937-2.6366-.937-4.2857 0-1.6085.312-3.0201.937-4.2349.624-1.2148 1.503-2.1615 2.636-2.8402 1.14-.6786 2.477-1.018 4.011-1.018 1.032 0 1.992.1663 2.881.4988.896.3258 1.676.8178 2.341 1.4761.672.6583 1.195 1.4863 1.568 2.4839.373.9909.56 2.1514.56 3.4816v1.191h-13.203v-2.6875h9.121c0-.6244-.136-1.1775-.407-1.6593-.272-.4819-.648-.8585-1.13-1.13-.475-.2782-1.028-.4174-1.66-.4174-.658 0-1.242.1527-1.751.4581-.502.2986-.895.7024-1.18 1.2114-.285.5023-.431 1.0621-.438 1.6797v2.5552c0 .7737.142 1.4421.427 2.0054.292.5633.703.9977 1.232 1.3031.53.3054 1.157.4581 1.883.4581.482 0 .923-.0679 1.324-.2036.4-.1358.743-.3394 1.028-.6108.285-.2715.502-.604.652-.9977l4.01.2647c-.203.9637-.621 1.8053-1.252 2.5246-.624.7126-1.432 1.2691-2.422 1.6695-.985.3937-2.121.5905-3.411.5905zm19.743-9.8542v3.4103h-8.165v-3.4103zm-6.739-6.0876v15.6364h-4.144v-15.6364zm9.457 0v15.6364h-4.113v-15.6364zm.647 3.4103v-3.4103h14.171v3.4103h-5.039v12.2261h-4.133v-12.2261zm28.206 12.5315c-1.581 0-2.949-.336-4.102-1.0078-1.147-.6787-2.033-1.622-2.657-2.8301-.625-1.2148-.937-2.623-.937-4.2246 0-1.6152.312-3.0269.937-4.2349.624-1.2148 1.51-2.1581 2.657-2.83 1.153-.6786 2.521-1.018 4.102-1.018s2.945.3394 4.092 1.018c1.154.6719 2.043 1.6152 2.668 2.83.624 1.208.936 2.6197.936 4.2349 0 1.6016-.312 3.0098-.936 4.2246-.625 1.2081-1.514 2.1514-2.668 2.8301-1.147.6718-2.511 1.0078-4.092 1.0078zm.02-3.3594c.72 0 1.32-.2036 1.802-.6108.482-.414.845-.9773 1.09-1.6899.251-.7126.376-1.5236.376-2.433s-.125-1.7204-.376-2.433c-.245-.7126-.608-1.2758-1.09-1.6898s-1.082-.621-1.802-.621c-.726 0-1.337.207-1.832.621-.489.414-.858.9772-1.11 1.6898-.244.7126-.366 1.5236-.366 2.433s.122 1.7204.366 2.433c.252.7126.621 1.2759 1.11 1.6899.495.4072 1.106.6108 1.832.6108zm8.128 7.6349v-8.0217h1.201c.346-.2172.624-.5633.835-1.0384.217-.475.393-1.0349.529-1.6797.143-.6447.251-1.3403.326-2.0869.081-.7533.152-1.5134.214-2.2803l.407-5.1103h11.992v12.1956h2.423v8.0217h-4.134v-4.5809h-9.558v4.5809zm5.517-8.0217h5.894v-8.8566h-4.214l-.163 1.7713c-.115 1.6695-.282 3.088-.499 4.2552-.217 1.1606-.556 2.1039-1.018 2.8301zm20.855 3.7462c-1.581 0-2.949-.336-4.103-1.0078-1.147-.6787-2.032-1.622-2.657-2.8301-.624-1.2148-.936-2.623-.936-4.2246 0-1.6152.312-3.0269.936-4.2349.625-1.2148 1.51-2.1581 2.657-2.83 1.154-.6786 2.522-1.018 4.103-1.018s2.945.3394 4.092 1.018c1.154.6719 2.043 1.6152 2.667 2.83.625 1.208.937 2.6197.937 4.2349 0 1.6016-.312 3.0098-.937 4.2246-.624 1.2081-1.513 2.1514-2.667 2.8301-1.147.6718-2.511 1.0078-4.092 1.0078zm.02-3.3594c.72 0 1.32-.2036 1.802-.6108.482-.414.845-.9773 1.089-1.6899.251-.7126.377-1.5236.377-2.433s-.126-1.7204-.377-2.433c-.244-.7126-.607-1.2758-1.089-1.6898s-1.082-.621-1.802-.621c-.726 0-1.337.207-1.832.621-.489.414-.859.9772-1.11 1.6898-.244.7126-.366 1.5236-.366 2.433s.122 1.7204.366 2.433c.251.7126.621 1.2759 1.11 1.6899.495.4072 1.106.6108 1.832.6108zm22.349-18.3239 1.323 2.8301c-.441.3664-.93.6379-1.466.8144-.536.1696-1.177.2816-1.924.3359-.739.0543-1.642.0916-2.708.112-1.208.0135-2.192.207-2.952.5802-.76.3733-1.337.9603-1.73 1.7612-.394.794-.652 1.8323-.774 3.115h.153c.468-.9569 1.126-1.6966 1.975-2.2192.855-.5226 1.91-.7839 3.166-.7839 1.33 0 2.494.2919 3.491.8755 1.005.5837 1.785 1.4218 2.342 2.5144.556 1.0927.834 2.4025.834 3.9295 0 1.5881-.312 2.9691-.936 4.1432-.618 1.1673-1.497 2.0733-2.637 2.7181-1.14.6379-2.497.9569-4.072.9569-1.581 0-2.945-.3326-4.092-.9977-1.14-.665-2.022-1.6457-2.647-2.942-.617-1.2962-.926-2.891-.926-4.7845v-1.2827c0-3.7666.733-6.5592 2.199-8.3781 1.466-1.8188 3.62-2.7418 6.464-2.7689.774-.0136 1.473-.017 2.097-.0102s1.171-.0237 1.639-.0916c.475-.0679.869-.2104 1.181-.4276zm-5.894 18.3239c.665 0 1.235-.1731 1.71-.5192.482-.3461.852-.8415 1.11-1.4862.264-.6448.397-1.415.397-2.3109 0-.889-.133-1.6423-.397-2.2599-.258-.6244-.628-1.0995-1.11-1.4252-.482-.3258-1.059-.4887-1.731-.4887-.502 0-.953.0917-1.354.2749-.4.1832-.743.4547-1.028.8144-.278.3529-.495.7906-.651 1.3132-.15.5158-.224 1.1062-.224 1.7713 0 1.337.288 2.3923.865 3.166.584.7669 1.388 1.1503 2.413 1.1503zm9.356 8.9176v-21.5h4.276v2.6264h.193c.19-.4207.465-.8483.825-1.2826.366-.4412.841-.8076 1.425-1.0995.59-.2986 1.323-.4479 2.199-.4479 1.14 0 2.192.2986 3.156.8959.963.5904 1.734 1.4828 2.31 2.6773.577 1.1876.866 2.6773.866 4.469 0 1.7441-.282 3.2168-.845 4.418-.557 1.1945-1.317 2.1005-2.281 2.7181-.956.6108-2.029.9162-3.216.9162-.842 0-1.558-.1391-2.148-.4174-.584-.2782-1.062-.6278-1.436-1.0485-.373-.4276-.658-.8585-.855-1.2929h-.132v8.3679zm4.245-13.6818c0 .9298.129 1.7408.387 2.433s.631 1.2318 1.12 1.6186c.488.3801 1.082.5701 1.781.5701.706 0 1.303-.1934 1.792-.5803.489-.3936.858-.9365 1.11-1.6288.257-.699.386-1.5032.386-2.4126 0-.9026-.125-1.6967-.376-2.3821s-.621-1.2216-1.11-1.6084c-.489-.3869-1.089-.5803-1.802-.5803-.706 0-1.303.1866-1.791.5599-.482.3733-.852.9026-1.11 1.5881-.258.6854-.387 1.493-.387 2.4228zm19.875 8.1236c-1.608 0-2.993-.3258-4.153-.9773-1.154-.6583-2.043-1.5881-2.668-2.7893-.624-1.208-.936-2.6366-.936-4.2857 0-1.6085.312-3.0201.936-4.2349.625-1.2148 1.504-2.1615 2.637-2.8402 1.14-.6786 2.477-1.018 4.011-1.018 1.032 0 1.992.1663 2.881.4988.896.3258 1.676.8178 2.341 1.4761.672.6583 1.195 1.4863 1.568 2.4839.373.9909.56 2.1514.56 3.4816v1.191h-13.203v-2.6875h9.121c0-.6244-.136-1.1775-.407-1.6593-.272-.4819-.649-.8585-1.13-1.13-.475-.2782-1.029-.4174-1.66-.4174-.658 0-1.242.1527-1.751.4581-.502.2986-.896.7024-1.181 1.2114-.285.5023-.431 1.0621-.437 1.6797v2.5552c0 .7737.142 1.4421.427 2.0054.292.5633.703.9977 1.232 1.3031s1.157.4581 1.883.4581c.482 0 .923-.0679 1.324-.2036.4-.1358.743-.3394 1.028-.6108.285-.2715.502-.604.651-.9977l4.011.2647c-.203.9637-.621 1.8053-1.252 2.5246-.624.7126-1.432 1.2691-2.423 1.6695-.984.3937-2.12.5905-3.41.5905zm19.743-9.8542v3.4103h-8.165v-3.4103zm-6.74-6.0876v15.6364h-4.143v-15.6364zm9.458 0v15.6364h-4.113v-15.6364zm6.361 9.9153 5.629-9.9153h4.276v15.6364h-4.133v-9.9458l-5.609 9.9458h-4.307v-15.6364h4.144zm21.396 5.7211v-12.2363h-2.931c-.794 0-1.398.1833-1.812.5497-.414.3665-.618.8009-.611 1.3031-.007.509.19.9399.59 1.2928.407.3461 1.005.5192 1.792.5192h4.418v2.9318h-4.418c-1.337 0-2.494-.2036-3.471-.6108-.978-.4072-1.731-.9739-2.26-1.7-.53-.733-.791-1.5847-.784-2.5552-.007-1.018.254-1.9104.784-2.6773.529-.7737 1.286-1.3743 2.27-1.8019.991-.4343 2.158-.6515 3.502-.6515h6.973v15.6364zm-9.935 0 4.347-8.144h4.143l-4.337 8.144z" fill="#000"/><path d="m52.0587 638.321h-4.4588c-.0814-.577-.2477-1.089-.4988-1.537-.2511-.455-.5735-.842-.9671-1.161s-.8483-.563-1.3641-.733c-.509-.169-1.0621-.254-1.6593-.254-1.0791 0-2.0191.268-2.8199.804-.8008.529-1.4218 1.303-1.8629 2.321-.4411 1.011-.6617 2.24-.6617 3.685 0 1.487.2206 2.735.6617 3.746.4479 1.012 1.0723 1.775 1.8731 2.291s1.7272.774 2.7791.774c.5905 0 1.1368-.078 1.639-.235.509-.156.9603-.383 1.3539-.682.3936-.305.7194-.675.9773-1.109.2647-.435.4479-.93.5497-1.486l4.4588.02c-.1154.957-.4038 1.88-.8653 2.769-.4547.882-1.0689 1.673-1.8425 2.372-.7669.692-1.6831 1.242-2.7486 1.649-1.0587.4-2.2566.601-3.5935.601-1.8596 0-3.5223-.421-4.9882-1.263-1.4591-.841-2.6129-2.06-3.4612-3.654-.8415-1.595-1.2623-3.526-1.2623-5.793 0-2.273.4276-4.207 1.2827-5.802s2.0156-2.81 3.4815-3.645c1.4659-.841 3.1151-1.262 4.9475-1.262 1.208 0 2.3278.17 3.3593.509 1.0384.339 1.958.835 2.7588 1.486.8008.645 1.4523 1.436 1.9545 2.372.509.937.8348 2.009.9773 3.217zm1.9328 13.549v-15.636h4.3366v6.067h1.2216l4.2552-6.067h5.09l-5.5277 7.757 5.5888 7.879h-5.1511l-3.8582-5.548h-1.6186v5.548zm22.0712.306c-1.5813 0-2.9488-.336-4.1025-1.008-1.147-.679-2.0326-1.622-2.657-2.83-.6244-1.215-.9366-2.623-.9366-4.225 0-1.615.3122-3.026.9366-4.234.6244-1.215 1.51-2.159 2.657-2.83 1.1537-.679 2.5212-1.018 4.1025-1.018 1.5812 0 2.9454.339 4.0923 1.018 1.1537.671 2.0428 1.615 2.6671 2.83.6244 1.208.9366 2.619.9366 4.234 0 1.602-.3122 3.01-.9366 4.225-.6243 1.208-1.5134 2.151-2.6671 2.83-1.1469.672-2.5111 1.008-4.0923 1.008zm.0203-3.359c.7194 0 1.32-.204 1.8019-.611.4818-.414.8449-.978 1.0892-1.69.2511-.713.3767-1.524.3767-2.433 0-.91-.1256-1.721-.3767-2.433-.2443-.713-.6074-1.276-1.0892-1.69-.4819-.414-1.0825-.621-1.8019-.621-.7261 0-1.3369.207-1.8324.621-.4886.414-.8585.977-1.1096 1.69-.2443.712-.3664 1.523-.3664 2.433 0 .909.1221 1.72.3664 2.433.2511.712.621 1.276 1.1096 1.69.4955.407 1.1063.611 1.8324.611zm9.3489 8.917v-21.5h4.2755v2.627h.1934c.1901-.421.4649-.849.8246-1.283.3665-.441.8416-.808 1.4252-1.1.5904-.298 1.3234-.447 2.1989-.447 1.1401 0 2.1921.298 3.1558.895.9637.591 1.7339 1.483 2.3108 2.678.5769 1.187.8649 2.677.8649 4.469 0 1.744-.281 3.217-.8445 4.418-.5565 1.194-1.3166 2.1-2.2803 2.718-.957.611-2.0292.916-3.2169.916-.8415 0-1.5575-.139-2.148-.417-.5836-.279-1.0621-.628-1.4353-1.049-.3733-.427-.6583-.858-.8552-1.293h-.1323v8.368zm4.245-13.682c0 .93.1289 1.741.3868 2.433.2579.693.6312 1.232 1.1198 1.619.4887.38 1.0825.57 1.7815.57.7058 0 1.303-.193 1.7917-.58.4886-.394.8585-.937 1.1096-1.629.2579-.699.3868-1.503.3868-2.413 0-.902-.1255-1.696-.3766-2.382-.2511-.685-.621-1.221-1.1096-1.608-.4887-.387-1.0893-.58-1.8019-.58-.7058 0-1.303.186-1.7917.559-.4818.374-.8517.903-1.1096 1.588-.2579.686-.3868 1.494-.3868 2.423zm19.8141 8.124c-1.582 0-2.949-.336-4.103-1.008-1.147-.679-2.032-1.622-2.657-2.83-.624-1.215-.936-2.623-.936-4.225 0-1.615.312-3.026.936-4.234.625-1.215 1.51-2.159 2.657-2.83 1.154-.679 2.521-1.018 4.103-1.018 1.581 0 2.945.339 4.092 1.018 1.154.671 2.043 1.615 2.667 2.83.625 1.208.937 2.619.937 4.234 0 1.602-.312 3.01-.937 4.225-.624 1.208-1.513 2.151-2.667 2.83-1.147.672-2.511 1.008-4.092 1.008zm.02-3.359c.719 0 1.32-.204 1.802-.611.482-.414.845-.978 1.089-1.69.251-.713.377-1.524.377-2.433 0-.91-.126-1.721-.377-2.433-.244-.713-.607-1.276-1.089-1.69s-1.083-.621-1.802-.621c-.726 0-1.337.207-1.832.621-.489.414-.859.977-1.11 1.69-.244.712-.366 1.523-.366 2.433 0 .909.122 1.72.366 2.433.251.712.621 1.276 1.11 1.69.495.407 1.106.611 1.832.611zm16.414 3.359c-1.602 0-2.98-.339-4.133-1.018-1.147-.686-2.029-1.636-2.647-2.85-.611-1.215-.916-2.613-.916-4.195 0-1.601.309-3.006.926-4.214.624-1.215 1.51-2.162 2.657-2.84 1.147-.686 2.511-1.028 4.092-1.028 1.365 0 2.559.247 3.584.743 1.025.495 1.836 1.191 2.433 2.087.597.895.926 1.947.987 3.155h-4.092c-.116-.78-.421-1.408-.916-1.883-.489-.482-1.13-.723-1.924-.723-.672 0-1.259.183-1.761.55-.496.36-.883.886-1.161 1.578s-.417 1.53-.417 2.514c0 .998.135 1.846.407 2.545.278.699.668 1.232 1.171 1.599.502.366 1.089.549 1.761.549.495 0 .94-.102 1.333-.305.401-.204.73-.499.988-.886.264-.393.437-.865.519-1.415h4.092c-.068 1.195-.393 2.247-.977 3.156-.577.903-1.374 1.608-2.392 2.117s-2.223.764-3.614.764zm7.547-12.532v-3.41h14.17v3.41h-5.039v12.226h-4.133v-12.226zm18.371 1.395h4.672c2.07 0 3.685.495 4.846 1.486 1.16.984 1.741 2.301 1.741 3.95 0 1.072-.262 2.016-.784 2.83-.523.808-1.276 1.439-2.26 1.894-.984.448-2.165.671-3.543.671h-7.391v-15.636h4.144v12.226h3.247c.726 0 1.324-.183 1.792-.55.468-.366.706-.834.712-1.404-.006-.604-.244-1.096-.712-1.476-.468-.387-1.066-.581-1.792-.581h-4.672zm25.541 11.137c-1.582 0-2.949-.336-4.103-1.008-1.147-.679-2.032-1.622-2.657-2.83-.624-1.215-.936-2.623-.936-4.225 0-1.615.312-3.026.936-4.234.625-1.215 1.51-2.159 2.657-2.83 1.154-.679 2.521-1.018 4.103-1.018 1.581 0 2.945.339 4.092 1.018 1.154.671 2.043 1.615 2.667 2.83.624 1.208.937 2.619.937 4.234 0 1.602-.313 3.01-.937 4.225-.624 1.208-1.513 2.151-2.667 2.83-1.147.672-2.511 1.008-4.092 1.008zm.02-3.359c.719 0 1.32-.204 1.802-.611.482-.414.845-.978 1.089-1.69.251-.713.377-1.524.377-2.433 0-.91-.126-1.721-.377-2.433-.244-.713-.607-1.276-1.089-1.69s-1.083-.621-1.802-.621c-.726 0-1.337.207-1.832.621-.489.414-.859.977-1.11 1.69-.244.712-.366 1.523-.366 2.433 0 .909.122 1.72.366 2.433.251.712.621 1.276 1.11 1.69.495.407 1.106.611 1.832.611zm8.127 7.634v-8.021h1.201c.347-.218.625-.564.835-1.039.217-.475.394-1.035.53-1.679.142-.645.251-1.341.325-2.087.082-.754.153-1.514.214-2.281l.407-5.11h11.992v12.196h2.423v8.021h-4.133v-4.581h-9.559v4.581zm5.518-8.021h5.894v-8.857h-4.215l-.162 1.771c-.116 1.67-.282 3.088-.499 4.256-.217 1.16-.557 2.104-1.018 2.83zm20.854 3.746c-1.581 0-2.948-.336-4.102-1.008-1.147-.679-2.033-1.622-2.657-2.83-.624-1.215-.937-2.623-.937-4.225 0-1.615.313-3.026.937-4.234.624-1.215 1.51-2.159 2.657-2.83 1.154-.679 2.521-1.018 4.102-1.018 1.582 0 2.946.339 4.093 1.018 1.154.671 2.043 1.615 2.667 2.83.624 1.208.936 2.619.936 4.234 0 1.602-.312 3.01-.936 4.225-.624 1.208-1.513 2.151-2.667 2.83-1.147.672-2.511 1.008-4.093 1.008zm.021-3.359c.719 0 1.32-.204 1.802-.611.482-.414.845-.978 1.089-1.69.251-.713.377-1.524.377-2.433 0-.91-.126-1.721-.377-2.433-.244-.713-.607-1.276-1.089-1.69s-1.083-.621-1.802-.621c-.726 0-1.337.207-1.833.621-.488.414-.858.977-1.109 1.69-.244.712-.367 1.523-.367 2.433 0 .909.123 1.72.367 2.433.251.712.621 1.276 1.109 1.69.496.407 1.107.611 1.833.611zm22.348-18.324 1.324 2.83c-.441.366-.93.638-1.466.814-.536.17-1.178.282-1.924.336-.74.054-1.642.092-2.708.112-1.208.014-2.192.207-2.952.58s-1.337.961-1.731 1.761c-.393.794-.651 1.833-.773 3.115h.152c.469-.957 1.127-1.696 1.975-2.219.855-.522 1.911-.784 3.166-.784 1.33 0 2.494.292 3.492.876 1.004.583 1.785 1.422 2.341 2.514.557 1.093.835 2.403.835 3.93 0 1.588-.312 2.969-.937 4.143-.617 1.167-1.496 2.073-2.636 2.718-1.14.638-2.498.957-4.072.957-1.581 0-2.945-.333-4.092-.998-1.141-.665-2.023-1.646-2.647-2.942-.618-1.296-.927-2.891-.927-4.784v-1.283c0-3.767.733-6.559 2.199-8.378s3.621-2.742 6.465-2.769c.773-.014 1.472-.017 2.097-.01.624.007 1.17-.024 1.639-.092.475-.068.868-.21 1.18-.427zm-5.894 18.324c.665 0 1.235-.174 1.71-.52.482-.346.852-.841 1.11-1.486.265-.645.397-1.415.397-2.311 0-.889-.132-1.642-.397-2.26-.258-.624-.628-1.099-1.11-1.425-.481-.326-1.058-.489-1.73-.489-.502 0-.954.092-1.354.275-.4.184-.743.455-1.028.815-.278.353-.496.79-.652 1.313-.149.516-.224 1.106-.224 1.771 0 1.337.289 2.393.866 3.166.583.767 1.387 1.151 2.412 1.151zm9.357 8.917v-21.5h4.275v2.627h.194c.19-.421.465-.849.824-1.283.367-.441.842-.808 1.425-1.1.591-.298 1.324-.447 2.199-.447 1.14 0 2.192.298 3.156.895.964.591 1.734 1.483 2.311 2.678.577 1.187.865 2.677.865 4.469 0 1.744-.281 3.217-.845 4.418-.556 1.194-1.316 2.1-2.28 2.718-.957.611-2.029.916-3.217.916-.841 0-1.557-.139-2.148-.417-.583-.279-1.062-.628-1.435-1.049-.373-.427-.658-.858-.855-1.293h-.133v8.368zm4.245-13.682c0 .93.129 1.741.387 2.433.257.693.631 1.232 1.119 1.619.489.38 1.083.57 1.782.57.706 0 1.303-.193 1.792-.58.488-.394.858-.937 1.109-1.629.258-.699.387-1.503.387-2.413 0-.902-.126-1.696-.377-2.382-.251-.685-.621-1.221-1.109-1.608-.489-.387-1.09-.58-1.802-.58-.706 0-1.303.186-1.792.559-.482.374-.852.903-1.109 1.588-.258.686-.387 1.494-.387 2.423zm19.875 8.124c-1.609 0-2.993-.326-4.154-.977-1.154-.659-2.043-1.588-2.667-2.79-.624-1.208-.936-2.636-.936-4.285 0-1.609.312-3.02.936-4.235s1.503-2.162 2.637-2.84c1.14-.679 2.477-1.018 4.011-1.018 1.031 0 1.991.166 2.88.498.896.326 1.677.818 2.342 1.476.672.659 1.194 1.487 1.568 2.484.373.991.559 2.152.559 3.482v1.191h-13.203v-2.688h9.121c0-.624-.135-1.177-.407-1.659-.271-.482-.648-.858-1.13-1.13-.475-.278-1.028-.417-1.659-.417-.658 0-1.242.152-1.751.458-.502.298-.896.702-1.181 1.211-.285.502-.431 1.062-.438 1.68v2.555c0 .774.143 1.442.428 2.006.292.563.702.997 1.232 1.303.529.305 1.157.458 1.883.458.482 0 .923-.068 1.323-.204.401-.136.743-.339 1.028-.611.285-.271.503-.604.652-.997l4.011.264c-.204.964-.621 1.806-1.252 2.525-.625.713-1.432 1.269-2.423 1.669-.984.394-2.121.591-3.41.591zm19.742-9.854v3.41h-8.164v-3.41zm-6.739-6.088v15.636h-4.143v-15.636zm9.457 0v15.636h-4.112v-15.636zm6.361 9.915 5.63-9.915h4.275v15.636h-4.133v-9.945l-5.609 9.945h-4.306v-15.636h4.143zm21.397 5.721v-12.236h-2.932c-.794 0-1.398.183-1.812.55-.414.366-.617.801-.611 1.303-.006.509.19.94.591 1.293.407.346 1.004.519 1.791.519h4.419v2.932h-4.419c-1.337 0-2.494-.204-3.471-.611s-1.73-.974-2.26-1.7c-.529-.733-.79-1.585-.784-2.555-.006-1.018.255-1.911.784-2.678.53-.773 1.286-1.374 2.27-1.801.991-.435 2.158-.652 3.502-.652h6.973v15.636zm-9.936 0 4.347-8.143h4.143l-4.336 8.143z" fill="#000"/><path d="m31.8516 242.454h792.2754l.001-69.676-481.323-.796-310.9534-24.686z" fill="url(#b)" opacity=".4"/><rect fill="#cacaca" height="8.17935" rx="4.08967" width="8.17935" x="820.334" y="168"/><path d="m824.128 171.982h-481.72l-310.556-25.084" stroke="#cacaca" stroke-width="3.18518"/><path d="m708.929 230.557v19.396l-7.234-7.262-3.176 3.149 12.704 12.678 12.677-12.678-3.121-3.149-7.262 7.262v-19.396z" fill="#cacaca"/><path d="m744.53 258.917c-2.027 0-3.832-.348-5.416-1.045-1.574-.706-2.818-1.674-3.732-2.905-.905-1.239-1.371-2.669-1.398-4.289h5.917c.037.679.258 1.276.666 1.792.416.507.968.9 1.655 1.181.688.28 1.462.421 2.322.421.895 0 1.687-.159 2.375-.475.688-.317 1.226-.756 1.615-1.317s.584-1.208.584-1.941c0-.742-.208-1.398-.625-1.968-.407-.579-.995-1.032-1.764-1.358-.76-.325-1.665-.488-2.715-.488h-2.592v-4.316h2.592c.887 0 1.67-.154 2.348-.462.688-.308 1.222-.733 1.602-1.276.38-.552.57-1.194.57-1.927 0-.697-.167-1.308-.502-1.833-.326-.533-.787-.95-1.385-1.248-.588-.299-1.276-.448-2.063-.448-.796 0-1.524.145-2.185.434-.661.281-1.19.683-1.588 1.208s-.611 1.14-.638 1.846h-5.633c.027-1.602.484-3.013 1.371-4.235.887-1.221 2.081-2.176 3.583-2.864 1.511-.696 3.217-1.045 5.117-1.045 1.919 0 3.597.349 5.036 1.045 1.439.697 2.556 1.638 3.353 2.824.805 1.176 1.203 2.497 1.194 3.963.009 1.556-.475 2.855-1.452 3.895-.968 1.041-2.231 1.702-3.787 1.982v.217c2.045.263 3.601.973 4.669 2.131 1.077 1.149 1.611 2.588 1.602 4.317.009 1.583-.448 2.99-1.371 4.221-.914 1.23-2.176 2.199-3.787 2.905-1.611.705-3.457 1.058-5.538 1.058zm20.083-4.18-.149 1.493c-.118 1.194-.344 2.384-.679 3.569-.325 1.195-.669 2.276-1.031 3.244-.353.969-.638 1.729-.855 2.281h-3.747c.136-.534.322-1.281.557-2.24.235-.95.457-2.018.665-3.203s.339-2.393.394-3.624l.067-1.52zm14.77 4.18c-1.919 0-3.629-.353-5.131-1.058-1.493-.706-2.679-1.679-3.556-2.919-.878-1.239-1.335-2.66-1.371-4.262h5.701c.063 1.077.515 1.95 1.357 2.62.841.67 1.841 1.004 3 1.004.923 0 1.737-.203 2.443-.61.715-.417 1.271-.991 1.669-1.724.407-.742.611-1.593.611-2.552 0-.977-.208-1.837-.624-2.579-.407-.742-.973-1.321-1.697-1.737-.724-.417-1.552-.629-2.484-.638-.814 0-1.606.167-2.375.502-.76.335-1.353.792-1.778 1.371l-5.226-.937 1.317-14.659h16.993v4.805h-12.148l-.719 6.963h.163c.488-.688 1.226-1.258 2.212-1.71.987-.452 2.091-.679 3.312-.679 1.674 0 3.167.394 4.479 1.181s2.348 1.869 3.109 3.244c.76 1.367 1.135 2.941 1.126 4.724.009 1.873-.425 3.538-1.303 4.995-.869 1.447-2.086 2.588-3.651 3.42-1.556.823-3.366 1.235-5.429 1.235zm29.306-5.592v-1.466c0-1.113.235-2.135.706-3.067.479-.941 1.172-1.693 2.076-2.254.914-.57 2.027-.855 3.339-.855 1.331 0 2.448.281 3.353.842.914.561 1.602 1.312 2.063 2.253.471.932.706 1.959.706 3.081v1.466c0 1.113-.235 2.14-.706 3.081-.47.932-1.163 1.679-2.077 2.24-.913.57-2.026.855-3.339.855-1.33 0-2.447-.285-3.352-.855-.905-.561-1.593-1.308-2.063-2.24-.471-.941-.706-1.968-.706-3.081zm3.95-1.466v1.466c0 .643.154 1.249.461 1.819.317.57.887.855 1.71.855.824 0 1.385-.281 1.684-.842.307-.561.461-1.171.461-1.832v-1.466c0-.66-.145-1.276-.434-1.846-.29-.57-.86-.855-1.711-.855-.814 0-1.38.285-1.696.855-.317.57-.475 1.186-.475 1.846zm-18.216-14.442v-1.466c0-1.122.24-2.149.72-3.081.479-.941 1.172-1.692 2.077-2.253.913-.561 2.017-.842 3.311-.842 1.34 0 2.462.281 3.367.842.904.561 1.592 1.312 2.063 2.253.47.932.706 1.959.706 3.081v1.466c0 1.122-.24 2.149-.72 3.081-.47.932-1.163 1.679-2.077 2.24-.904.552-2.017.828-3.339.828-1.321 0-2.438-.281-3.352-.842-.905-.57-1.593-1.316-2.063-2.239-.462-.932-.693-1.955-.693-3.068zm3.977-1.466v1.466c0 .661.154 1.272.462 1.833.317.561.873.841 1.669.841.833 0 1.398-.28 1.697-.841.308-.561.462-1.172.462-1.833v-1.466c0-.66-.145-1.276-.435-1.846-.289-.57-.864-.855-1.724-.855-.805 0-1.361.29-1.669.869s-.462 1.19-.462 1.832zm-2.185 22.586 19.111-27.798h3.556l-19.111 27.798z" fill="#000"/><path d="m37.0094 136.177c-.5165-.007-1.0255-.102-1.527-.283-.4977-.181-.9501-.482-1.3573-.905-.4072-.422-.7334-.989-.9784-1.702-.2413-.712-.362-1.602-.362-2.669 0-1.011.0999-1.908.2998-2.692.2036-.784.4958-1.446.8766-1.985.3808-.543.8408-.956 1.3799-1.239.5392-.283 1.1443-.424 1.8154-.424.69 0 1.3027.136 1.8381.407.5354.272.969.647 1.3007 1.126.3356.478.5486 1.023.6391 1.634h-1.7249c-.1169-.483-.3488-.877-.6956-1.182-.3469-.305-.7994-.458-1.3574-.458-.8483 0-1.51.369-1.9851 1.108-.4712.739-.7088 1.767-.7125 3.083h.0848c.1998-.328.4449-.607.7352-.837.2941-.234.6221-.413.9841-.538.3657-.128.7503-.192 1.1537-.192.6711 0 1.2781.164 1.8211.492.5467.324.9821.773 1.3064 1.346.3242.573.4864 1.229.4864 1.968s-.1678 1.408-.5034 2.008c-.3318.599-.7993 1.075-1.4025 1.425-.6033.347-1.3084.517-2.1152.509zm-.0057-1.47c.4449 0 .8427-.11 1.1933-.328.3507-.219.6278-.513.8314-.883.2036-.369.3054-.782.3054-1.238 0-.445-.0999-.85-.2997-1.216-.1961-.366-.4676-.656-.8144-.871-.3431-.215-.7352-.322-1.1764-.322-.3355 0-.6466.064-.9331.192-.2828.128-.5317.305-.7466.532-.2149.226-.3845.486-.509.78-.1206.29-.1809.598-.1809.922 0 .433.0999.835.2997 1.204.2036.37.4807.668.8314.894.3544.222.754.334 1.1989.334zm5.6664-.95v-1.414l5.0051-7.907h1.1141v2.082h-.7069l-3.5799 5.666v.091h6.8601v1.482zm5.4915 2.262v-2.692l.0113-.645v-8.246h1.6571v11.583zm6.7819-1.584-.0849.617c-.0565.452-.1527.923-.2884 1.414-.132.493-.2696.952-.4128 1.374-.1396.422-.2545.758-.345 1.007h-1.199c.049-.234.1169-.551.2036-.951.0867-.395.1715-.838.2545-1.329.0829-.49.1452-.989.1866-1.498l.0566-.634zm1.945-.678v-1.414l5.0051-7.907h1.1141v2.082h-.7069l-3.5799 5.666v.091h6.8601v1.482zm5.4915 2.262v-2.692l.0113-.645v-8.246h1.6571v11.583z" fill="#cfcfcf"/><path d="m796.057 159.27c-.516-.008-1.025-.102-1.527-.283-.497-.181-.95-.483-1.357-.905s-.733-.99-.978-1.702c-.242-.713-.362-1.603-.362-2.67 0-1.01.099-1.907.299-2.692.204-.784.496-1.446.877-1.985.381-.543.841-.956 1.38-1.238.539-.283 1.144-.425 1.815-.425.69 0 1.303.136 1.838.408.536.271.969.646 1.301 1.125.336.479.549 1.024.639 1.635h-1.725c-.117-.483-.349-.877-.695-1.182-.347-.306-.8-.459-1.358-.459-.848 0-1.51.37-1.985 1.109-.471.739-.709 1.766-.712 3.082h.084c.2-.328.445-.607.736-.837.294-.234.622-.413.984-.537.365-.128.75-.192 1.153-.192.672 0 1.279.164 1.822.492.546.324.982.773 1.306 1.346s.486 1.229.486 1.968-.167 1.408-.503 2.007c-.332.6-.799 1.075-1.403 1.426-.603.347-1.308.516-2.115.509zm-.005-1.471c.444 0 .842-.109 1.193-.328.351-.218.628-.513.831-.882.204-.37.306-.782.306-1.239 0-.444-.1-.85-.3-1.216-.196-.365-.468-.656-.814-.87-.344-.215-.736-.323-1.177-.323-.335 0-.646.064-.933.192-.283.129-.532.306-.747.532-.214.226-.384.486-.508.781-.121.29-.181.597-.181.921 0 .434.099.836.299 1.205.204.369.481.667.832.894.354.222.754.333 1.199.333zm9.942 1.505c-.894-.004-1.658-.24-2.291-.707-.633-.468-1.118-1.148-1.453-2.042-.336-.894-.504-1.97-.504-3.229 0-1.256.168-2.328.504-3.218.339-.89.825-1.569 1.459-2.036.637-.468 1.398-.702 2.285-.702.886 0 1.645.236 2.279.707.633.468 1.118 1.147 1.453 2.036.339.886.509 1.957.509 3.213 0 1.263-.168 2.341-.503 3.235-.336.889-.82 1.57-1.454 2.041-.633.468-1.395.702-2.284.702zm0-1.51c.784 0 1.396-.383 1.838-1.148.444-.766.667-1.872.667-3.32 0-.962-.102-1.774-.305-2.438-.2-.667-.489-1.172-.866-1.515-.373-.347-.818-.521-1.334-.521-.781 0-1.394.385-1.839 1.154-.444.769-.669 1.876-.673 3.32 0 .965.1 1.781.3 2.449.204.663.492 1.166.865 1.51.374.339.822.509 1.347.509zm7.873-.266-.085.616c-.056.453-.153.924-.288 1.414-.132.494-.27.952-.413 1.374-.14.423-.255.758-.345 1.007h-1.199c.049-.234.117-.55.203-.95.087-.396.172-.839.255-1.329s.145-.99.187-1.499l.056-.633zm5.9-10.158c.516.004 1.025.099 1.527.283.501.185.953.487 1.357.905.407.419.731.984.973 1.697.245.709.369 1.591.373 2.647 0 1.014-.102 1.917-.306 2.709-.203.788-.495 1.453-.876 1.996-.377.543-.835.956-1.374 1.239-.54.282-1.147.424-1.822.424-.689 0-1.302-.136-1.838-.408-.535-.271-.97-.646-1.306-1.125-.336-.483-.545-1.037-.628-1.663h1.725c.113.498.343.901.69 1.211.351.305.803.458 1.357.458.849 0 1.511-.37 1.986-1.109.475-.743.714-1.779.718-3.11h-.091c-.196.324-.441.603-.735.837-.29.233-.616.414-.978.543-.362.128-.749.192-1.16.192-.667 0-1.274-.164-1.821-.492-.546-.328-.982-.779-1.306-1.352s-.487-1.227-.487-1.962c0-.732.166-1.395.498-1.991.336-.596.803-1.067 1.403-1.414.603-.351 1.31-.522 2.121-.515zm.005 1.471c-.441 0-.839.109-1.193.328-.351.215-.628.507-.831.877-.204.365-.306.772-.306 1.221s.098.856.294 1.222c.2.362.472.65.815.865.346.211.742.317 1.187.317.332 0 .641-.064.928-.193.286-.128.537-.305.752-.531.215-.23.383-.49.503-.781.121-.29.181-.595.181-.916 0-.426-.102-.822-.305-1.187-.2-.366-.475-.66-.826-.883-.35-.226-.75-.339-1.199-.339z" fill="#cfcfcf"/><path d="m51.3868 327.837v20.848h-4.357v-17.265h-8.4289v17.265h-4.3571v-20.848zm2.9686 26.712v-21.5h4.2756v2.626h.1934c.19-.42.4649-.848.8246-1.282.3664-.441.8415-.808 1.4252-1.1.5904-.298 1.3233-.448 2.1988-.448 1.1402 0 2.1921.299 3.1558.896.9637.591 1.734 1.483 2.3108 2.677.5769 1.188.8653 2.678.8653 4.469 0 1.745-.2816 3.217-.8449 4.419-.5565 1.194-1.3166 2.1-2.2803 2.718-.9569.61-2.0292.916-3.2169.916-.8415 0-1.5575-.139-2.1479-.418-.5837-.278-1.0621-.627-1.4354-1.048-.3733-.428-.6583-.859-.8551-1.293h-.1323v8.368zm4.245-13.682c0 .93.129 1.741.3869 2.433s.6311 1.232 1.1198 1.619c.4886.38 1.0824.57 1.7814.57.7059 0 1.3031-.194 1.7917-.58.4887-.394.8585-.937 1.1096-1.629.2579-.699.3869-1.503.3869-2.413 0-.902-.1256-1.697-.3767-2.382s-.621-1.222-1.1096-1.608c-.4886-.387-1.0893-.581-1.8019-.581-.7058 0-1.303.187-1.7916.56-.4819.373-.8517.903-1.1096 1.588-.2579.686-.3869 1.493-.3869 2.423zm19.8138 8.124c-1.5813 0-2.9488-.336-4.1025-1.008-1.1469-.679-2.0326-1.622-2.6569-2.83-.6244-1.215-.9366-2.623-.9366-4.225 0-1.615.3122-3.027.9366-4.235.6243-1.214 1.51-2.158 2.6569-2.83 1.1537-.678 2.5212-1.018 4.1025-1.018s2.9454.34 4.0924 1.018c1.1537.672 2.0427 1.616 2.6671 2.83.6244 1.208.9366 2.62.9366 4.235 0 1.602-.3122 3.01-.9366 4.225-.6244 1.208-1.5134 2.151-2.6671 2.83-1.147.672-2.5111 1.008-4.0924 1.008zm.0204-3.36c.7194 0 1.32-.203 1.8018-.61.4819-.414.845-.978 1.0893-1.69.2511-.713.3766-1.524.3766-2.433 0-.91-.1255-1.721-.3766-2.433-.2443-.713-.6074-1.276-1.0893-1.69-.4818-.414-1.0824-.621-1.8018-.621-.7262 0-1.337.207-1.8324.621-.4886.414-.8585.977-1.1096 1.69-.2443.712-.3665 1.523-.3665 2.433 0 .909.1222 1.72.3665 2.433.2511.712.621 1.276 1.1096 1.69.4954.407 1.1062.61 1.8324.61zm23.0204-12.582v12.643h2.494v8.022h-4.2143v-5.029h-11.9513v-15.636h4.1433v12.226h5.436v-12.226zm10.98 15.942c-1.608 0-2.993-.326-4.153-.978-1.154-.658-2.043-1.588-2.667-2.789-.625-1.208-.937-2.636-.937-4.286 0-1.608.312-3.02.937-4.234.624-1.215 1.503-2.162 2.636-2.841 1.14-.678 2.477-1.018 4.011-1.018 1.032 0 1.992.167 2.881.499.896.326 1.676.818 2.341 1.476.672.659 1.195 1.487 1.568 2.484.373.991.56 2.152.56 3.482v1.191h-13.203v-2.688h9.121c0-.624-.136-1.177-.407-1.659-.272-.482-.648-.859-1.13-1.13-.475-.278-1.028-.417-1.66-.417-.658 0-1.242.152-1.751.458-.502.298-.895.702-1.18 1.211-.285.502-.431 1.062-.438 1.68v2.555c0 .774.142 1.442.427 2.005.292.564.703.998 1.232 1.303.53.306 1.157.458 1.883.458.482 0 .923-.067 1.324-.203.4-.136.743-.339 1.028-.611.285-.271.502-.604.652-.998l4.01.265c-.203.964-.621 1.805-1.252 2.525-.624.712-1.432 1.269-2.422 1.669-.985.394-2.121.591-3.411.591zm19.743-9.854v3.41h-8.165v-3.41zm-6.739-6.088v15.636h-4.144v-15.636zm9.457 0v15.636h-4.113v-15.636zm.647 3.41v-3.41h14.171v3.41h-5.039v12.226h-4.133v-12.226zm28.206 12.532c-1.581 0-2.949-.336-4.102-1.008-1.147-.679-2.033-1.622-2.657-2.83-.625-1.215-.937-2.623-.937-4.225 0-1.615.312-3.027.937-4.235.624-1.214 1.51-2.158 2.657-2.83 1.153-.678 2.521-1.018 4.102-1.018s2.945.34 4.092 1.018c1.154.672 2.043 1.616 2.668 2.83.624 1.208.936 2.62.936 4.235 0 1.602-.312 3.01-.936 4.225-.625 1.208-1.514 2.151-2.668 2.83-1.147.672-2.511 1.008-4.092 1.008zm.02-3.36c.72 0 1.32-.203 1.802-.61.482-.414.845-.978 1.09-1.69.251-.713.376-1.524.376-2.433 0-.91-.125-1.721-.376-2.433-.245-.713-.608-1.276-1.09-1.69s-1.082-.621-1.802-.621c-.726 0-1.337.207-1.832.621-.489.414-.858.977-1.11 1.69-.244.712-.366 1.523-.366 2.433 0 .909.122 1.72.366 2.433.252.712.621 1.276 1.11 1.69.495.407 1.106.61 1.832.61zm7.835-9.172v-3.41h14.17v3.41h-5.039v12.226h-4.133v-12.226zm15.653 12.226v-15.636h4.336v6.067h1.222l4.255-6.067h5.09l-5.528 7.757 5.589 7.879h-5.151l-3.858-5.548h-1.619v5.548zm20.109.296c-.998 0-1.887-.174-2.667-.52-.781-.353-1.398-.872-1.853-1.557-.448-.692-.672-1.554-.672-2.586 0-.869.159-1.598.478-2.189.319-.59.754-1.065 1.303-1.425.55-.359 1.175-.631 1.874-.814.705-.183 1.445-.312 2.219-.387.909-.095 1.642-.183 2.199-.265.556-.088.96-.217 1.211-.387.251-.169.377-.42.377-.753v-.061c0-.645-.204-1.143-.611-1.496-.4-.353-.971-.53-1.71-.53-.781 0-1.402.173-1.863.519-.462.34-.767.767-.916 1.283l-4.011-.326c.203-.95.604-1.771 1.201-2.463.597-.699 1.367-1.235 2.311-1.609.95-.38 2.049-.57 3.298-.57.869 0 1.7.102 2.494.306.801.203 1.51.519 2.128.946.624.428 1.116.978 1.476 1.65.36.665.539 1.462.539 2.392v10.546h-4.112v-2.168h-.122c-.252.489-.587.92-1.008 1.293-.421.366-.927.655-1.517.865-.591.204-1.273.306-2.046.306zm1.242-2.993c.638 0 1.201-.126 1.69-.377.488-.258.872-.604 1.15-1.038.278-.435.417-.927.417-1.476v-1.66c-.135.088-.322.17-.56.245-.23.067-.492.132-.783.193-.292.054-.584.105-.876.153-.292.04-.556.078-.794.112-.509.074-.953.193-1.334.356-.38.163-.675.383-.885.662-.211.271-.316.61-.316 1.018 0 .59.214 1.041.642 1.354.434.305.984.458 1.649.458zm8.977-1.731h4.204c.021.516.251.923.693 1.222.441.298 1.011.448 1.71.448.706 0 1.299-.163 1.781-.489.482-.333.723-.808.723-1.425 0-.38-.095-.709-.285-.988-.19-.285-.455-.509-.794-.672-.339-.162-.733-.244-1.181-.244h-2.25v-2.84h2.25c.672 0 1.188-.156 1.547-.468.367-.313.55-.703.55-1.171 0-.529-.19-.954-.57-1.273-.373-.325-.879-.488-1.517-.488-.644 0-1.181.146-1.608.438-.421.285-.638.658-.652 1.119h-4.184c.014-.936.296-1.747.845-2.433.557-.685 1.303-1.214 2.24-1.588.943-.373 1.999-.56 3.166-.56 1.276 0 2.375.18 3.298.54.93.353 1.642.858 2.138 1.517.502.658.753 1.442.753 2.351 0 .828-.271 1.52-.814 2.077-.543.556-1.303.953-2.28 1.191v.163c.644.041 1.228.214 1.75.519.523.305.94.726 1.253 1.262.312.53.468 1.157.468 1.884 0 .97-.285 1.802-.855 2.494-.564.692-1.344 1.225-2.342 1.598-.99.366-2.127.55-3.41.55-1.249 0-2.368-.18-3.359-.54-.984-.366-1.768-.902-2.352-1.608-.577-.706-.882-1.568-.916-2.586zm19.206 4.724c-.998 0-1.887-.174-2.668-.52-.78-.353-1.398-.872-1.852-1.557-.448-.692-.672-1.554-.672-2.586 0-.869.159-1.598.478-2.189.319-.59.754-1.065 1.303-1.425.55-.359 1.174-.631 1.873-.814.706-.183 1.446-.312 2.22-.387.909-.095 1.642-.183 2.198-.265.557-.088.961-.217 1.212-.387.251-.169.377-.42.377-.753v-.061c0-.645-.204-1.143-.611-1.496-.401-.353-.971-.53-1.71-.53-.781 0-1.402.173-1.863.519-.462.34-.767.767-.917 1.283l-4.011-.326c.204-.95.605-1.771 1.202-2.463.597-.699 1.367-1.235 2.311-1.609.95-.38 2.049-.57 3.298-.57.869 0 1.7.102 2.494.306.801.203 1.51.519 2.128.946.624.428 1.116.978 1.476 1.65.359.665.539 1.462.539 2.392v10.546h-4.113v-2.168h-.122c-.251.489-.587.92-1.007 1.293-.421.366-.927.655-1.517.865-.591.204-1.273.306-2.046.306zm1.241-2.993c.638 0 1.202-.126 1.69-.377.489-.258.872-.604 1.151-1.038.278-.435.417-.927.417-1.476v-1.66c-.136.088-.322.17-.56.245-.231.067-.492.132-.784.193-.292.054-.583.105-.875.153-.292.04-.557.078-.794.112-.509.074-.954.193-1.334.356s-.675.383-.885.662c-.211.271-.316.61-.316 1.018 0 .59.214 1.041.641 1.354.435.305.984.458 1.649.458z" fill="#000"/><path d="m31.4898 530.509h792.2762v-87.99h-544.266s-243.4523-29.918-248.0102-31.024v-.032c-.087 0-.0859.011 0 .032z" fill="url(#c)" opacity=".4"/><rect fill="#cacaca" height="7.61134" rx="3.80567" stroke="#cacaca" stroke-width=".56801" width="7.61134" x="820.618" y="440.414"/><path d="m31.4536 411.463 248.0464 31.454 544.663.796" stroke="#cacaca" stroke-width="3.18518"/><path d="m708.929 518.612v19.396l-7.234-7.261-3.176 3.149 12.704 12.677 12.677-12.677-3.121-3.149-7.262 7.261v-19.396z" fill="#cacaca"/><path d="m743.587 546.973c-1.919 0-3.629-.353-5.131-1.059-1.493-.706-2.679-1.678-3.556-2.918-.878-1.24-1.335-2.66-1.371-4.262h5.701c.063 1.077.515 1.95 1.357 2.62.841.669 1.841 1.004 3 1.004.923 0 1.737-.204 2.443-.611.715-.416 1.271-.991 1.669-1.724.407-.742.611-1.592.611-2.551 0-.978-.208-1.837-.624-2.579-.407-.742-.973-1.321-1.697-1.738-.724-.416-1.552-.629-2.484-.638-.814 0-1.606.168-2.375.503-.76.334-1.353.791-1.778 1.37l-5.226-.936 1.317-14.659h16.993v4.805h-12.148l-.719 6.963h.163c.488-.688 1.226-1.258 2.212-1.71.987-.453 2.091-.679 3.312-.679 1.674 0 3.167.394 4.479 1.181s2.348 1.868 3.109 3.244c.76 1.366 1.135 2.941 1.126 4.723.009 1.873-.425 3.538-1.303 4.995-.869 1.448-2.086 2.588-3.651 3.421-1.557.823-3.366 1.235-5.429 1.235zm19.533-4.181-.149 1.493c-.118 1.195-.344 2.385-.679 3.57-.326 1.195-.669 2.276-1.031 3.244-.353.968-.638 1.728-.855 2.28h-3.747c.136-.533.322-1.28.557-2.239.235-.95.457-2.018.665-3.203.208-1.186.339-2.394.394-3.625l.067-1.52zm4.42-1.086v-4.628l11.605-18.283h3.991v6.406h-2.362l-7.316 11.578v.217h16.491v4.71zm13.342 4.887v-6.298l.109-2.05v-19.45h5.511v27.798zm27.807-5.212v-1.466c0-1.113.235-2.136.706-3.068.479-.941 1.172-1.692 2.076-2.253.914-.57 2.027-.855 3.339-.855 1.331 0 2.448.28 3.353.841.914.561 1.602 1.313 2.063 2.254.471.932.706 1.959.706 3.081v1.466c0 1.113-.235 2.14-.706 3.081-.47.932-1.163 1.678-2.077 2.239-.913.57-2.026.855-3.339.855-1.33 0-2.447-.285-3.352-.855-.905-.561-1.593-1.307-2.063-2.239-.471-.941-.706-1.968-.706-3.081zm3.95-1.466v1.466c0 .642.154 1.248.461 1.818.317.571.887.856 1.71.856.824 0 1.385-.281 1.684-.842.307-.561.461-1.172.461-1.832v-1.466c0-.661-.145-1.276-.434-1.846-.29-.57-.86-.855-1.711-.855-.814 0-1.38.285-1.696.855-.317.57-.475 1.185-.475 1.846zm-18.216-14.442v-1.466c0-1.122.24-2.149.72-3.081.479-.941 1.172-1.692 2.077-2.253.913-.561 2.017-.842 3.311-.842 1.34 0 2.462.281 3.367.842.904.561 1.592 1.312 2.063 2.253.47.932.705 1.959.705 3.081v1.466c0 1.122-.239 2.149-.719 3.081-.47.932-1.163 1.679-2.077 2.24-.904.552-2.017.827-3.339.827-1.321 0-2.438-.28-3.352-.841-.905-.57-1.593-1.317-2.063-2.24-.462-.932-.693-1.954-.693-3.067zm3.977-1.466v1.466c0 .66.154 1.271.462 1.832.317.561.873.842 1.669.842.833 0 1.398-.281 1.697-.842.308-.561.462-1.172.462-1.832v-1.466c0-.661-.145-1.276-.435-1.846-.289-.57-.864-.855-1.724-.855-.805 0-1.361.289-1.669.869-.308.579-.462 1.189-.462 1.832zm-2.185 22.586 19.111-27.798h3.556l-19.111 27.798z" fill="#000"/><path d="m32.9657 399.389v-1.267l3.9193-4.061c.4185-.441.7635-.827 1.0349-1.159.2753-.335.4807-.654.6165-.956.1357-.301.2036-.622.2036-.961 0-.385-.0905-.716-.2715-.995-.181-.283-.4279-.5-.7409-.651-.3129-.154-.6654-.232-1.0575-.232-.4148 0-.7767.085-1.0859.255-.3092.169-.5467.409-.7126.718s-.2488.671-.2488 1.086h-1.6684c0-.705.1621-1.322.4864-1.849.3242-.528.7691-.937 1.3347-1.228.5655-.294 1.2084-.441 1.9285-.441.7277 0 1.3686.145 1.9229.436.558.286.9935.678 1.3064 1.176.3129.494.4694 1.052.4694 1.674 0 .43-.0811.85-.2432 1.261-.1583.411-.4355.869-.8313 1.374-.3959.502-.9464 1.111-1.6515 1.827l-2.3018 2.409v.085h5.2144v1.499zm13.413.158c-.7088 0-1.346-.135-1.9116-.407-.5618-.275-1.0104-.652-1.346-1.131s-.5146-1.026-.5373-1.64h1.6967c.0415.498.262.907.6617 1.227.3996.321.8785.481 1.4365.481.4449 0 .8389-.102 1.182-.305.3469-.208.6183-.493.8144-.854.1998-.362.2997-.775.2997-1.239 0-.471-.1018-.892-.3054-1.261-.2036-.37-.4845-.66-.8427-.871-.3544-.211-.7616-.319-1.2215-.323-.3507 0-.7032.061-1.0576.181-.3544.121-.641.279-.8597.476l-1.6005-.238.6504-5.837h6.3681v1.499h-4.9146l-.3676 3.241h.0678c.2263-.219.526-.402.8993-.549.377-.147.7804-.22 1.2102-.22.7051 0 1.3329.167 1.8833.503.5543.336.9897.794 1.3065 1.374.3204.577.4788 1.241.475 1.991.0038.75-.1659 1.42-.509 2.008-.3393.588-.8106 1.052-1.4139 1.391-.5994.336-1.2875.503-2.0642.503zm7.6783-1.742-.0849.617c-.0565.452-.1527.924-.2884 1.414-.132.494-.2696.952-.4128 1.374-.1396.422-.2545.758-.345 1.007h-1.199c.049-.234.1169-.551.2036-.95.0867-.396.1715-.839.2545-1.329.0829-.491.1452-.99.1866-1.499l.0566-.634zm5.8006 1.742c-.7767 0-1.4704-.134-2.0812-.401-.607-.268-1.0877-.639-1.4422-1.114-.3506-.479-.5391-1.033-.5655-1.663h1.7758c.0226.343.1376.641.345.894.2111.248.4864.441.8257.576.3393.136.7164.204 1.1311.204.4562 0 .8597-.079 1.2103-.238.3544-.158.6315-.378.8314-.661.1998-.287.2997-.617.2997-.99 0-.388-.0999-.73-.2997-1.024-.1961-.297-.4845-.531-.8653-.701-.3771-.17-.8333-.254-1.3687-.254h-.9784v-1.426h.9784c.4298 0 .8069-.077 1.1311-.231.3281-.155.5844-.37.7692-.645.1847-.279.2771-.605.2771-.979 0-.358-.0811-.669-.2432-.933-.1583-.267-.3846-.477-.6786-.628-.2904-.15-.6335-.226-1.0294-.226-.377 0-.7295.07-1.0575.21-.3243.135-.5882.331-.7918.588-.2036.252-.3129.556-.328.91h-1.691c.0188-.626.2036-1.176.5542-1.651.3544-.475.822-.847 1.4026-1.114.5806-.268 1.2253-.402 1.9342-.402.7427 0 1.3837.145 1.9228.436.543.286.9615.669 1.2556 1.148.2978.479.4449 1.003.4411 1.572.0038.648-.1772 1.199-.5429 1.651-.362.453-.8446.756-1.4478.911v.09c.7691.117 1.3648.423 1.7871.917.426.493.6372 1.106.6334 1.838.0038.637-.1734 1.208-.5316 1.713-.3544.505-.8389.903-1.4535 1.194-.6145.286-1.3177.429-2.1095.429z" fill="#cfcfcf"/><path d="m798.55 421.251v11.582h-1.753v-9.829h-.068l-2.771 1.81v-1.674l2.89-1.889zm6.807-.158c.517.003 1.026.098 1.527.282.502.185.954.487 1.358.905.407.419.731.984.972 1.697.245.709.37 1.591.374 2.647 0 1.014-.102 1.917-.306 2.709-.203.788-.496 1.453-.876 1.996-.377.543-.836.956-1.375 1.239-.539.282-1.146.424-1.821.424-.69 0-1.302-.136-1.838-.407-.535-.272-.971-.647-1.306-1.126-.336-.482-.545-1.037-.628-1.663h1.725c.113.498.343.902.69 1.211.35.305.803.458 1.357.458.849 0 1.51-.37 1.985-1.109.475-.742.715-1.779.719-3.11h-.091c-.196.324-.441.603-.735.837-.291.234-.617.415-.979.543s-.748.192-1.159.192c-.667 0-1.274-.164-1.821-.492s-.982-.779-1.306-1.352c-.325-.573-.487-1.227-.487-1.962 0-.732.166-1.395.498-1.991.335-.596.803-1.067 1.402-1.414.604-.35 1.311-.522 2.121-.514zm.006 1.47c-.441 0-.839.109-1.193.328-.351.215-.628.507-.832.877-.203.365-.305.773-.305 1.221 0 .449.098.856.294 1.222.2.362.471.65.814.865.347.211.743.317 1.188.317.332 0 .641-.064.927-.192.287-.129.538-.306.753-.532.215-.23.382-.49.503-.781.121-.29.181-.595.181-.916 0-.426-.102-.822-.305-1.187-.2-.366-.476-.66-.826-.883-.351-.226-.75-.339-1.199-.339zm7.893 8.687-.085.616c-.056.453-.152.924-.288 1.414-.132.494-.27.952-.413 1.375-.14.422-.255.757-.345 1.006h-1.199c.049-.234.117-.55.204-.95.086-.396.171-.839.254-1.329s.145-.99.187-1.499l.056-.633zm5.9-10.157c.516.003 1.025.098 1.527.282.501.185.954.487 1.357.905.407.419.731.984.973 1.697.245.709.369 1.591.373 2.647 0 1.014-.102 1.917-.305 2.709-.204.788-.496 1.453-.877 1.996-.377.543-.835.956-1.374 1.239-.539.282-1.146.424-1.821.424-.69 0-1.303-.136-1.838-.407-.536-.272-.971-.647-1.307-1.126-.335-.482-.545-1.037-.628-1.663h1.725c.113.498.343.902.69 1.211.351.305.803.458 1.358.458.848 0 1.51-.37 1.985-1.109.475-.742.714-1.779.718-3.11h-.09c-.197.324-.442.603-.736.837-.29.234-.616.415-.978.543s-.749.192-1.159.192c-.668 0-1.275-.164-1.822-.492-.546-.328-.982-.779-1.306-1.352s-.486-1.227-.486-1.962c0-.732.166-1.395.497-1.991.336-.596.803-1.067 1.403-1.414.603-.35 1.31-.522 2.121-.514zm.005 1.47c-.441 0-.839.109-1.193.328-.351.215-.628.507-.831.877-.204.365-.306.773-.306 1.221 0 .449.098.856.294 1.222.2.362.472.65.815.865.347.211.743.317 1.187.317.332 0 .641-.064.928-.192.286-.129.537-.306.752-.532.215-.23.383-.49.503-.781.121-.29.181-.595.181-.916 0-.426-.101-.822-.305-1.187-.2-.366-.475-.66-.826-.883-.35-.226-.75-.339-1.199-.339z" fill="#cfcfcf"/><path d="m824.152 817.769h-792.2755v-68.88h414.0495l378.226-46.981z" fill="url(#d)" opacity=".4"/><rect fill="#04b34a" height="8.17935" rx="4.08967" width="8.17935" x="820.334" y="697.13"/><path d="m824.963 701.509-396.556 47.778h-396.5552" stroke="#04b34a" stroke-width="3.18518"/><path d="m699.929 833.832v-19.396l-7.234 7.262-3.176-3.149 12.704-12.677 12.677 12.677-3.121 3.149-7.262-7.262v19.396z" fill="#04b34a"/><path d="m735.449 834.463c-2.334-.009-4.343-.584-6.026-1.724-1.674-1.14-2.964-2.792-3.868-4.954-.896-2.163-1.34-4.764-1.331-7.805 0-3.031.448-5.615 1.344-7.75.905-2.136 2.194-3.76 3.869-4.873 1.683-1.122 3.687-1.683 6.012-1.683 2.326 0 4.326.561 6 1.683 1.683 1.122 2.977 2.751 3.882 4.886.905 2.127 1.353 4.706 1.344 7.737 0 3.05-.453 5.656-1.358 7.818-.896 2.163-2.181 3.814-3.855 4.955-1.674 1.14-3.678 1.71-6.013 1.71zm0-4.873c1.593 0 2.864-.801 3.815-2.402.95-1.602 1.42-4.005 1.411-7.208 0-2.108-.217-3.864-.651-5.266-.426-1.403-1.032-2.457-1.819-3.163-.778-.706-1.697-1.059-2.756-1.059-1.583 0-2.85.792-3.8 2.376-.95 1.583-1.43 3.954-1.439 7.112 0 2.136.213 3.918.638 5.348.434 1.421 1.045 2.488 1.833 3.203.787.706 1.71 1.059 2.768 1.059zm20.243.461-.149 1.494c-.118 1.194-.344 2.384-.679 3.569-.325 1.195-.669 2.276-1.031 3.244-.353.969-.638 1.729-.855 2.281h-3.747c.136-.534.322-1.281.557-2.24.235-.95.457-2.018.665-3.203.208-1.186.339-2.394.394-3.624l.067-1.521zm14.091 4.181c-2.09 0-3.95-.339-5.579-1.018-1.619-.688-2.891-1.624-3.814-2.81-.923-1.185-1.384-2.529-1.384-4.031 0-1.158.262-2.221.787-3.19.534-.977 1.258-1.787 2.172-2.429.914-.652 1.936-1.068 3.067-1.249v-.19c-1.484-.299-2.687-1.018-3.61-2.158-.923-1.149-1.385-2.484-1.385-4.004 0-1.439.421-2.719 1.263-3.841.841-1.132 1.995-2.018 3.461-2.661 1.475-.651 3.149-.977 5.022-.977s3.543.326 5.008.977c1.475.652 2.634 1.543 3.475 2.674.842 1.122 1.267 2.398 1.276 3.828-.009 1.529-.479 2.864-1.412 4.004-.932 1.14-2.126 1.859-3.583 2.158v.19c1.113.181 2.122.597 3.027 1.249.914.642 1.638 1.452 2.172 2.429.543.969.819 2.032.828 3.19-.009 1.502-.475 2.846-1.398 4.031-.923 1.186-2.199 2.122-3.828 2.81-1.62.679-3.475 1.018-5.565 1.018zm0-4.316c.932 0 1.746-.168 2.443-.502.697-.344 1.24-.815 1.629-1.412.398-.606.597-1.303.597-2.09 0-.806-.203-1.516-.611-2.131-.407-.625-.959-1.113-1.656-1.466-.696-.362-1.497-.543-2.402-.543-.896 0-1.697.181-2.403.543-.705.353-1.262.841-1.669 1.466-.398.615-.597 1.325-.597 2.131 0 .787.194 1.484.583 2.09.389.597.937 1.068 1.643 1.412.706.334 1.52.502 2.443.502zm0-12.42c.778 0 1.47-.158 2.077-.475.606-.317 1.081-.755 1.425-1.316s.516-1.208.516-1.941c0-.724-.172-1.358-.516-1.901-.344-.552-.815-.981-1.412-1.289-.597-.317-1.294-.475-2.09-.475-.787 0-1.484.158-2.09.475-.607.308-1.082.737-1.426 1.289-.334.543-.502 1.177-.502 1.901 0 .733.172 1.38.516 1.941s.819.999 1.425 1.316c.607.317 1.299.475 2.077.475zm41.11-4.492v20.848h-5.484v-20.848zm-2.674 9.148v4.56c-.443.2-.995.39-1.656.571-.661.171-1.353.312-2.077.42-.724.109-1.402.163-2.036.163-2.995 0-5.352-.615-7.071-1.846-1.72-1.239-2.579-3.217-2.579-5.931v-7.113h5.456v7.113c0 .805.136 1.443.407 1.914.281.47.724.809 1.331 1.018.615.199 1.434.298 2.456.298.95 0 1.882-.099 2.796-.298.914-.2 1.905-.489 2.973-.869zm10.151 12.053c-.896 0-1.665-.317-2.307-.95-.634-.643-.951-1.412-.951-2.308 0-.886.317-1.647.951-2.28.642-.633 1.411-.95 2.307-.95.869 0 1.629.317 2.28.95.652.633.978 1.394.978 2.28 0 .598-.154 1.145-.462 1.643-.299.488-.692.882-1.181 1.181-.488.289-1.027.434-1.615.434z" fill="#000"/><path d="m37.36 722.844v11.582h-1.7532v-9.829h-.0678l-2.7712 1.81v-1.675l2.8899-1.888zm6.8696 11.74c-.8106 0-1.527-.139-2.1491-.418-.6183-.279-1.1028-.664-1.4535-1.154-.3506-.49-.5241-1.048-.5203-1.674-.0038-.49.0962-.941.2998-1.352.2073-.414.4882-.759.8426-1.035.3544-.279.7503-.456 1.1877-.531v-.068c-.5769-.139-1.0387-.449-1.3856-.928-.3469-.478-.5184-1.029-.5147-1.651-.0037-.592.1527-1.12.4694-1.583.3205-.468.7598-.836 1.3178-1.103.558-.268 1.1933-.402 1.9059-.402.705 0 1.3347.136 1.8889.407.558.268.9973.636 1.3178 1.103.3204.464.4826.99.4863 1.578-.0037.622-.1809 1.173-.5316 1.651-.3506.479-.8068.789-1.3686.928v.068c.4336.075.8238.252 1.1707.531.3506.276.6296.621.837 1.035.2111.411.3186.862.3224 1.352-.0038.626-.181 1.184-.5317 1.674-.3506.49-.837.875-1.4591 1.154-.6183.279-1.329.418-2.1321.418zm0-1.43c.4788 0 .8936-.08 1.2442-.238.3506-.162.6221-.386.8144-.673.1923-.29.2903-.63.2941-1.018-.0038-.403-.1094-.76-.3167-1.069-.2036-.309-.4808-.552-.8314-.729-.3506-.178-.7522-.266-1.2046-.266-.4562 0-.8615.088-1.216.266-.3544.177-.6334.42-.837.729s-.3035.666-.2997 1.069c-.0038.388.0886.728.2771 1.018.1923.287.4656.511.8201.673.3544.158.7729.238 1.2555.238zm0-5.39c.3846 0 .7258-.077 1.0236-.232.2979-.155.5316-.37.7013-.645.1735-.275.2621-.597.2658-.967-.0037-.362-.0905-.679-.2601-.95-.1659-.271-.3978-.481-.6957-.628-.2978-.151-.6428-.226-1.0349-.226-.3997 0-.7503.075-1.0519.226-.2979.147-.5298.357-.6957.628s-.2469.588-.2432.95c-.0037.37.0792.692.2489.967s.4034.49.7013.645c.3016.155.6485.232 1.0406.232zm7.8522 5.078-.0849.617c-.0565.452-.1527.924-.2884 1.414-.1319.494-.2696.952-.4128 1.374-.1395.422-.2545.758-.345 1.007h-1.199c.049-.234.1169-.551.2036-.95.0867-.396.1716-.839.2545-1.329.083-.491.1452-.99.1866-1.499l.0566-.634zm5.1828-9.998v11.582h-1.7532v-9.829h-.0679l-2.7712 1.81v-1.675l2.89-1.888z" fill="#cfcfcf"/><path d="m798.534 678.251v11.582h-1.753v-9.829h-.068l-2.771 1.81v-1.674l2.89-1.889zm6.87 11.741c-.811 0-1.527-.14-2.149-.419-.619-.279-1.103-.663-1.454-1.153-.35-.491-.524-1.049-.52-1.674-.004-.491.096-.941.3-1.352.207-.415.488-.76.842-1.035.355-.279.751-.456 1.188-.532v-.068c-.577-.139-1.039-.448-1.386-.927-.346-.479-.518-1.029-.514-1.651-.004-.592.153-1.12.469-1.584.321-.468.76-.835 1.318-1.103s1.193-.401 1.906-.401c.705 0 1.335.135 1.889.407.558.268.997.635 1.318 1.103.32.463.482.989.486 1.578-.004.622-.181 1.172-.532 1.651-.35.479-.807.788-1.368.927v.068c.433.076.823.253 1.17.532.351.275.63.62.837 1.035.212.411.319.861.323 1.352-.004.625-.181 1.183-.532 1.674-.351.49-.837.874-1.459 1.153-.618.279-1.329.419-2.132.419zm0-1.431c.479 0 .893-.079 1.244-.238.351-.162.622-.386.814-.673.193-.29.291-.629.295-1.018-.004-.403-.11-.759-.317-1.068-.204-.31-.481-.553-.832-.73-.35-.177-.752-.266-1.204-.266-.456 0-.862.089-1.216.266s-.633.42-.837.73c-.204.309-.304.665-.3 1.068-.004.389.089.728.277 1.018.193.287.466.511.82.673.355.159.773.238 1.256.238zm0-5.39c.384 0 .726-.077 1.024-.232.297-.154.531-.369.701-.644.173-.276.262-.598.266-.967-.004-.362-.091-.679-.261-.951-.165-.271-.397-.48-.695-.627-.298-.151-.643-.227-1.035-.227-.4 0-.75.076-1.052.227-.298.147-.53.356-.696.627-.166.272-.247.589-.243.951-.004.369.079.691.249.967.17.275.403.49.701.644.302.155.649.232 1.041.232zm7.852 5.079-.085.616c-.056.453-.152.924-.288 1.414-.132.494-.27.952-.413 1.375-.14.422-.255.757-.345 1.006h-1.199c.049-.234.117-.55.204-.95.086-.396.171-.839.254-1.329s.145-.99.187-1.499l.056-.633zm5.9-10.157c.516.003 1.025.098 1.527.282.501.185.954.487 1.357.905.407.419.731.984.973 1.697.245.709.369 1.591.373 2.647 0 1.014-.102 1.917-.305 2.709-.204.788-.496 1.453-.877 1.996-.377.543-.835.956-1.374 1.239-.539.282-1.146.424-1.821.424-.69 0-1.303-.136-1.838-.407-.536-.272-.971-.647-1.307-1.126-.335-.482-.545-1.037-.628-1.663h1.725c.113.498.343.902.69 1.211.351.305.803.458 1.358.458.848 0 1.51-.37 1.985-1.109.475-.742.714-1.779.718-3.11h-.09c-.197.324-.442.603-.736.837-.29.234-.616.415-.978.543s-.749.192-1.159.192c-.668 0-1.275-.164-1.822-.492-.546-.328-.982-.779-1.306-1.352s-.486-1.227-.486-1.962c0-.732.166-1.395.497-1.991.336-.596.803-1.067 1.403-1.414.603-.35 1.31-.522 2.121-.514zm.005 1.47c-.441 0-.839.109-1.193.328-.351.215-.628.507-.831.877-.204.365-.306.773-.306 1.221 0 .449.098.856.294 1.222.2.362.472.65.815.865.347.211.743.317 1.187.317.332 0 .641-.064.928-.192.286-.129.537-.306.752-.532.215-.23.383-.49.503-.78.121-.291.181-.596.181-.917 0-.426-.101-.822-.305-1.187-.2-.366-.475-.66-.826-.883-.35-.226-.75-.339-1.199-.339z" fill="#cfcfcf"/></svg>