<svg fill="none" height="862" viewBox="0 0 860 862" width="860" xmlns="http://www.w3.org/2000/svg" xmlns:xlink="http://www.w3.org/1999/xlink"><linearGradient id="a"><stop offset="0" stop-color="#d9d9d9"/><stop offset="1" stop-color="#d9d9d9" stop-opacity="0"/></linearGradient><linearGradient id="b" gradientUnits="userSpaceOnUse" x1="225.348" x2="225.348" xlink:href="#a" y1="223.51" y2="296.769"/><linearGradient id="c" gradientUnits="userSpaceOnUse" x1="225.348" x2="225.348" xlink:href="#a" y1="471.751" y2="545.01"/><linearGradient id="d" gradientUnits="userSpaceOnUse" x1="225.348" x2="225.348" xlink:href="#a" y1="719.991" y2="793.251"/><linearGradient id="e"><stop offset="0" stop-color="#04b34a"/><stop offset=".0666667" stop-color="#04b34a" stop-opacity=".991353"/><stop offset=".133333" stop-color="#04b34a" stop-opacity=".96449"/><stop offset=".2" stop-color="#04b34a" stop-opacity=".91834"/><stop offset=".266667" stop-color="#04b34a" stop-opacity=".852589"/><stop offset=".333333" stop-color="#04b34a" stop-opacity=".768225"/><stop offset=".4" stop-color="#04b34a" stop-opacity=".668116"/><stop offset=".466667" stop-color="#04b34a" stop-opacity=".557309"/><stop offset=".533333" stop-color="#04b34a" stop-opacity=".442691"/><stop offset=".6" stop-color="#04b34a" stop-opacity=".331884"/><stop offset=".666667" stop-color="#04b34a" stop-opacity=".231775"/><stop offset=".733333" stop-color="#04b34a" stop-opacity=".147411"/><stop offset=".8" stop-color="#04b34a" stop-opacity=".08166"/><stop offset=".866667" stop-color="#04b34a" stop-opacity=".03551"/><stop offset=".933333" stop-color="#04b34a" stop-opacity=".01"/><stop offset="1" stop-color="#04b34a" stop-opacity="0"/></linearGradient><linearGradient id="f" gradientUnits="userSpaceOnUse" x1="630.663" x2="630.663" xlink:href="#e" y1="177.723" y2="296.769"/><linearGradient id="g" gradientUnits="userSpaceOnUse" x1="630.663" x2="630.663" xlink:href="#e" y1="425.964" y2="545.01"/><linearGradient id="h" gradientUnits="userSpaceOnUse" x1="630.663" x2="630.663" xlink:href="#a" y1="719.991" y2="793.25"/><path d="m0 .074219h860v861h-860z" fill="#fff"/><g fill="#eaecef"><path d="m729.078 39.093-2.13 12.6316h2.372l-1.361 8.0721h-4.391l.65-3.8463h-11.271l-.649 3.8463h-4.391l1.362-8.0721h1.683c.77-1.0444 1.5-2.4224 2.322-5.3186l2.09-7.313h13.717zm-5.576 4.2259h-4.817l-.928 3.2528c-.809 2.8249-1.477 4.1062-2.152 5.1529h6.48z"/><path d="m732.949 39.093h10.441c3.679 0 5.333 1.8749 4.875 4.5824-.293 1.7322-1.597 2.8479-2.82 3.3471 1.336.5222 2.393 1.8519 2.009 4.1316-.489 2.8962-2.85 4.7963-6.766 4.7963h-10.584zm3.063 10.1149-.497 2.9446h4.793c1.281 0 2.073-.4739 2.242-1.4723.172-1.0214-.463-1.4723-1.746-1.4723h-4.794zm1.065-6.3146-.424 2.5166h4.722c.997 0 1.697-.3565 1.85-1.2583.152-.9017-.429-1.2583-1.426-1.2583z"/><path d="m751.281 39.093h4.865l-1.713 10.1609 9.14-10.1609h4.865l-2.843 16.8574h-4.865l1.707-10.1149-9.133 10.1149h-4.865z"/><path d="m775.671 47.2135-5.727-8.1205h5.505l4.771 6.8851 1.163-6.8851h4.628l-1.161 6.8851 7.094-6.8851h5.388l-8.239 7.9065 5.752 8.9509h-5.863l-4.6-7.1934-1.214 7.1934h-4.627l1.214-7.1934-7.028 7.1934h-5.648l8.594-8.7369z"/><path d="m804.439 39.093h-5.648l5.622 7.9065-8.345 8.9509h5.648l8.345-8.9509zm8.928 0h-5.648l5.623 7.9065-8.346 8.9509h5.648l8.346-8.9509zm9.158 0h-5.648l5.623 7.9065-8.345 8.9509h5.648l8.345-8.9509z"/></g><path d="m32.8696 42.7123v-3.6343h17.1226v3.6343h-6.3828v17.2142h-4.357v-17.2142zm21.2338 11.4931 5.6295-9.9153h4.2756v15.6364h-4.133v-9.9458l-5.6092 9.9458h-4.3061v-15.6364h4.1432zm12.2349 5.7211v-15.6364h13.6716v15.6364h-4.1432v-12.2261h-5.4361v12.2261zm25.6175-5.7211 5.6295-9.9153h4.2757v15.6364h-4.1332v-9.9458l-5.6092 9.9458h-4.3061v-15.6364h4.1433zm12.2352 5.7211v-15.6364h13.671v15.6364h-4.143v-12.2261h-5.436v12.2261zm23.051.3054c-1.582 0-2.949-.3359-4.103-1.0078-1.147-.6787-2.032-1.622-2.657-2.83-.624-1.2148-.936-2.623-.936-4.2247 0-1.6152.312-3.0268.936-4.2348.625-1.2148 1.51-2.1582 2.657-2.8301 1.154-.6786 2.521-1.0179 4.103-1.0179 1.581 0 2.945.3393 4.092 1.0179 1.154.6719 2.043 1.6153 2.667 2.8301.624 1.208.937 2.6196.937 4.2348 0 1.6017-.313 3.0099-.937 4.2247-.624 1.208-1.513 2.1513-2.667 2.83-1.147.6719-2.511 1.0078-4.092 1.0078zm.02-3.3594c.719 0 1.32-.2036 1.802-.6108.482-.4139.845-.9772 1.089-1.6898.251-.7126.377-1.5236.377-2.433s-.126-1.7204-.377-2.433c-.244-.7126-.607-1.2759-1.089-1.6899s-1.083-.621-1.802-.621c-.726 0-1.337.207-1.832.621-.489.414-.859.9773-1.11 1.6899-.244.7126-.366 1.5236-.366 2.433s.122 1.7204.366 2.433c.251.7126.621 1.2759 1.11 1.6898.495.4072 1.106.6108 1.832.6108zm7.835-9.1721v-3.4103h14.17v3.4103h-5.039v12.2261h-4.133v-12.2261zm22.218 12.5315c-1.608 0-2.993-.3257-4.153-.9773-1.154-.6583-2.043-1.588-2.667-2.7893-.625-1.208-.937-2.6366-.937-4.2857 0-1.6084.312-3.0201.937-4.2349.624-1.2148 1.503-2.1615 2.636-2.8402 1.141-.6786 2.478-1.0179 4.011-1.0179 1.032 0 1.992.1662 2.881.4988.896.3257 1.677.8178 2.342 1.4761.671.6583 1.194 1.4862 1.567 2.4839.374.9908.56 2.1513.56 3.4815v1.191h-13.203v-2.6875h9.121c0-.6243-.136-1.1774-.407-1.6593-.272-.4818-.648-.8585-1.13-1.13-.475-.2782-1.028-.4173-1.659-.4173-.659 0-1.242.1527-1.751.4581-.503.2986-.896.7024-1.181 1.2114-.285.5022-.431 1.0621-.438 1.6797v2.5551c0 .7737.143 1.4422.428 2.0055.291.5633.702.9976 1.231 1.303.53.3054 1.157.4581 1.884.4581.481 0 .923-.0679 1.323-.2036s.743-.3393 1.028-.6108.502-.604.652-.9976l4.011.2646c-.204.9637-.621 1.8053-1.253 2.5247-.624.7126-1.432 1.2691-2.422 1.6695-.984.3936-2.121.5904-3.411.5904zm8.861-.3054v-15.6364h4.336v6.0673h1.222l4.255-6.0673h5.09l-5.528 7.7572 5.589 7.8792h-5.151l-3.858-5.548h-1.619v5.548zm19.793-5.7211 5.629-9.9153h4.276v15.6364h-4.133v-9.9458l-5.609 9.9458h-4.306v-15.6364h4.143z" fill="#000"/><rect fill="#f7f7f7" height="234.907" rx="15.9259" width="390.981" x="31.8516" y="98.8154"/><path d="m53.7473 116.853h-1.9037c-.0543-.312-.1544-.589-.3003-.83-.1459-.244-.3274-.451-.5446-.621-.2172-.169-.4649-.297-.7432-.381-.2748-.089-.5717-.133-.8907-.133-.5667 0-1.0689.143-1.5066.428-.4378.281-.7805.695-1.0282 1.242-.2477.543-.3716 1.206-.3716 1.99 0 .797.1239 1.469.3716 2.016.2511.542.5938.953 1.0282 1.231.4377.275.9382.413 1.5015.413.3122 0 .604-.041.8755-.123.2748-.084.5209-.208.738-.371.2206-.163.4055-.363.5548-.601.1527-.237.2579-.509.3156-.814l1.9037.01c-.0713.495-.2257.96-.4632 1.395-.2342.434-.5413.817-.9213 1.15-.3801.329-.8246.587-1.3336.774-.509.183-1.074.275-1.6949.275-.9162 0-1.734-.213-2.4534-.637s-1.2861-1.036-1.7-1.837c-.414-.801-.621-1.761-.621-2.881 0-1.123.2087-2.084.626-2.881.4174-.801.9858-1.413 1.7052-1.838.7194-.424 1.5338-.636 2.4432-.636.5802 0 1.1198.082 1.6186.245.4988.162.9433.402 1.3335.717.3903.312.7109.696.962 1.151.2545.451.4208.967.4989 1.547zm2.7045-1.934v-1.583h8.317v1.583h-3.2219v8.841h-1.8731v-8.841zm11.4326 8.841h-2.0156l3.6698-10.424h2.3312l3.675 10.424h-2.0157l-2.7842-8.286h-.0814zm.0661-4.087h5.4972v1.517h-5.4972zm10.4006 4.087v-10.424h1.8884v4.413h4.8304v-4.413h1.8934v10.424h-1.8934v-4.428h-4.8304v4.428zm11.4224 2.514v-4.056h.6973c.2342-.187.453-.45.6566-.789.2036-.34.3767-.804.5192-1.395.1425-.59.2409-1.354.2952-2.29l.2749-4.408h6.6627v8.882h1.1606v4.046h-1.8121v-2.504h-6.6424v2.514zm2.8962-4.056h4.3977v-7.299h-3.1507l-.1628 2.825c-.0442.709-.1154 1.343-.2138 1.903s-.2223 1.054-.3716 1.481c-.1493.425-.3156.788-.4988 1.09zm11.6803 1.542h-2.015l3.67-10.424h2.331l3.675 10.424h-2.016l-2.784-8.286h-.081zm.067-4.087h5.497v1.517h-5.497zm10.4 4.087v-10.424h3.909c.801 0 1.473.149 2.016.448.546.298.958.709 1.237 1.231.281.52.422 1.11.422 1.772 0 .668-.141 1.262-.422 1.781-.282.519-.698.928-1.247 1.227-.55.295-1.227.443-2.031.443h-2.591v-1.553h2.336c.469 0 .852-.081 1.151-.244.298-.163.519-.387.661-.672.146-.285.219-.612.219-.982s-.073-.696-.219-.978c-.142-.281-.364-.5-.666-.656-.299-.16-.684-.239-1.156-.239h-1.73v8.846zm10.2-8.841v-1.583h8.317v1.583h-3.222v8.841h-1.873v-8.841zm11.353 8.841v-10.424h1.889v4.413h4.83v-4.413h1.894v10.424h-1.894v-4.428h-4.83v4.428zm13.438 0h-2.015l3.67-10.424h2.331l3.675 10.424h-2.016l-2.784-8.286h-.082zm.066-4.087h5.498v1.517h-5.498zm18.097 4.087h-1.893v-8.846h-1.731c-.468 0-.853.069-1.155.208-.299.136-.521.336-.667.601-.143.261-.214.577-.214.947s.071.682.214.936c.142.251.363.443.662.575.302.129.685.194 1.15.194h2.535v1.568h-2.79c-.8 0-1.476-.133-2.025-.397-.55-.269-.968-.647-1.253-1.136-.281-.492-.422-1.072-.422-1.74 0-.665.139-1.247.417-1.746.282-.502.696-.893 1.242-1.171.547-.278 1.218-.417 2.016-.417h3.914zm-5.39-4.723h2.061l-2.535 4.723h-2.107z" fill="#000" opacity=".6"/><path d="m43.7959 296.769h363.1041v-58.528c2.155 0-229.724-14.731-229.724-14.731l-133.3801-29.861z" fill="url(#b)" opacity=".4"/><rect fill="#cacaca" height="8.17935" rx="4.08967" width="8.17935" x="403.075" y="233.463"/><path d="m405.712 238.241-226.208-13.817c-1.285-.079-2.561-.264-3.814-.555l-131.8943-30.619" stroke="#cacaca" stroke-width="3.18518"/><path d="m301.669 284.872v19.396l-7.234-7.262-3.176 3.149 12.704 12.678 12.678-12.678-3.122-3.149-7.262 7.262v-19.396z" fill="#cacaca"/><path d="m326.513 312.852v-4.235l9.895-9.161c.842-.815 1.548-1.548 2.118-2.199.579-.652 1.018-1.29 1.316-1.914.299-.634.448-1.317.448-2.05 0-.814-.185-1.515-.556-2.104-.371-.597-.878-1.054-1.52-1.37-.643-.326-1.371-.489-2.186-.489-.85 0-1.592.172-2.226.516-.633.344-1.122.837-1.466 1.479-.343.643-.515 1.407-.515 2.294h-5.579c0-1.819.412-3.398 1.235-4.737.824-1.339 1.977-2.375 3.461-3.108s3.195-1.1 5.131-1.1c1.991 0 3.724.353 5.199 1.059 1.484.697 2.637 1.665 3.461 2.905.823 1.239 1.235 2.66 1.235 4.262 0 1.049-.208 2.085-.624 3.108-.408 1.022-1.136 2.158-2.186 3.407-1.049 1.239-2.529 2.728-4.438 4.465l-4.059 3.977v.19h11.673v4.805zm30.023-3.8-.15 1.493c-.117 1.194-.343 2.384-.678 3.57-.326 1.194-.67 2.275-1.032 3.244-.353.968-.638 1.728-.855 2.28h-3.746c.136-.534.321-1.28.556-2.24.236-.95.457-2.018.665-3.203.209-1.185.34-2.393.394-3.624l.068-1.52zm13.463-23.998v27.798h-5.877v-22.219h-.163l-6.366 3.99v-5.212l6.881-4.357zm21.43 22.586v-1.466c0-1.113.235-2.135.706-3.067.48-.941 1.172-1.692 2.077-2.253.914-.571 2.027-.856 3.339-.856 1.33 0 2.447.281 3.352.842.914.561 1.602 1.312 2.063 2.253.471.932.706 1.959.706 3.081v1.466c0 1.113-.235 2.14-.706 3.081-.47.932-1.162 1.679-2.076 2.24-.914.57-2.027.855-3.339.855-1.33 0-2.448-.285-3.353-.855-.905-.561-1.593-1.308-2.063-2.24-.471-.941-.706-1.968-.706-3.081zm3.95-1.466v1.466c0 .643.154 1.249.461 1.819.317.57.887.855 1.711.855.823 0 1.384-.28 1.683-.841.307-.561.461-1.172.461-1.833v-1.466c0-.66-.145-1.276-.434-1.846-.29-.57-.86-.855-1.71-.855-.815 0-1.38.285-1.697.855s-.475 1.186-.475 1.846zm-18.215-14.442v-1.466c0-1.122.239-2.149.719-3.081.48-.941 1.172-1.692 2.077-2.253.914-.561 2.018-.841 3.312-.841 1.339 0 2.461.28 3.366.841s1.592 1.312 2.063 2.253c.47.932.706 1.959.706 3.081v1.466c0 1.122-.24 2.149-.72 3.081-.47.932-1.162 1.679-2.076 2.24-.905.552-2.018.828-3.339.828s-2.439-.28-3.353-.842c-.905-.57-1.593-1.316-2.063-2.239-.462-.932-.692-1.955-.692-3.068zm3.977-1.466v1.466c0 .661.153 1.272.461 1.833.317.561.873.841 1.67.841.832 0 1.398-.28 1.696-.841.308-.561.462-1.172.462-1.833v-1.466c0-.66-.145-1.275-.435-1.846-.289-.57-.864-.855-1.723-.855-.806 0-1.362.29-1.67.869s-.461 1.19-.461 1.832zm-2.186 22.586 19.111-27.798h3.557l-19.111 27.798z" fill="#000"/><path d="m45.0214 181.982v-1.394l4.3112-4.467c.4604-.485.8399-.91 1.1385-1.275.3028-.369.5288-.719.6781-1.051s.224-.685.224-1.058c0-.423-.0996-.788-.2987-1.095-.199-.311-.4707-.549-.8149-.715-.3442-.17-.732-.255-1.1634-.255-.4562 0-.8543.093-1.1944.28-.3401.186-.6014.45-.7839.79-.1824.34-.2737.738-.2737 1.194h-1.8352c0-.775.1783-1.453.535-2.034s.8461-1.031 1.4682-1.35c.6221-.323 1.3292-.485 2.1214-.485.8004 0 1.5055.159 2.1151.479.6138.315 1.0929.746 1.4371 1.294.3442.543.5163 1.157.5163 1.841 0 .473-.0891.935-.2675 1.387-.1741.453-.479.956-.9145 1.512-.4354.552-1.0409 1.222-1.8165 2.01l-2.532 2.65v.093h5.7358v1.649zm14.8032-12.915c.5681.004 1.128.108 1.6796.311s1.0493.535 1.4931.995c.4479.461.8046 1.083 1.07 1.867.2696.779.4065 1.75.4106 2.911 0 1.116-.112 2.109-.3359 2.98-.224.867-.5454 1.599-.9643 2.196-.4147.597-.9186 1.051-1.5117 1.362s-1.2608.467-2.0032.467c-.759 0-1.4329-.149-2.0218-.448-.589-.299-1.068-.711-1.4371-1.238-.3691-.531-.5993-1.141-.6905-1.829h1.8974c.1244.547.3774.991.7589 1.331.3858.336.8834.504 1.4931.504.9332 0 1.661-.406 2.1836-1.219.5226-.817.7859-1.958.7901-3.422h-.0996c-.2156.357-.4852.664-.8087.921-.3194.257-.6781.456-1.0762.597-.3982.141-.8233.212-1.2754.212-.7341 0-1.4018-.181-2.0031-.541-.6014-.361-1.0804-.857-1.4371-1.487-.3567-.631-.535-1.35-.535-2.159 0-.805.1825-1.535.5474-2.19.3691-.655.8834-1.174 1.5429-1.555.6635-.386 1.4412-.575 2.3329-.566zm.0062 1.617c-.4853 0-.9228.121-1.3127.361-.3857.236-.6905.558-.9145.964-.2239.403-.3359.851-.3359 1.344 0 .494.1078.942.3235 1.344.2198.398.5184.715.8958.952.3816.232.8171.348 1.3064.348.365 0 .7051-.07 1.0203-.211.3152-.142.591-.336.8274-.585.2364-.253.421-.539.5537-.859.1327-.319.1991-.655.1991-1.008 0-.468-.112-.904-.336-1.306-.2198-.402-.5226-.726-.9083-.97-.3857-.249-.8253-.374-1.3188-.374zm8.7002 9.556-.0933.678c-.0622.498-.168 1.016-.3173 1.555-.1451.543-.2965 1.047-.4541 1.512-.1535.464-.28.833-.3795 1.107h-1.3189c.0539-.257.1286-.605.224-1.045.0954-.435.1887-.923.2799-1.462.0913-.539.1597-1.089.2053-1.648l.0622-.697zm6.302 1.916c-.8917 0-1.6797-.154-2.364-.46-.6801-.307-1.2131-.73-1.5988-1.27-.3857-.539-.5765-1.153-.5723-1.841-.0042-.539.1057-1.035.3297-1.487.2281-.456.5371-.836.9269-1.138.3899-.307.8254-.502 1.3065-.585v-.075c-.6346-.153-1.1426-.493-1.5242-1.02s-.5703-1.132-.5661-1.817c-.0042-.651.1679-1.231.5163-1.741.3526-.515.8357-.919 1.4495-1.214.6138-.294 1.3127-.441 2.0965-.441.7756 0 1.4682.149 2.0779.448.6138.294 1.0969.699 1.4495 1.213.3525.51.5308 1.088.535 1.735-.0042.685-.1991 1.29-.5848 1.817s-.8875.867-1.5055 1.02v.075c.477.083.9062.278 1.2878.585.3857.302.6926.682.9207 1.138.2322.452.3504.948.3546 1.487-.0042.688-.1991 1.302-.5848 1.841-.3857.54-.9207.963-1.605 1.27-.6802.306-1.462.46-2.3454.46zm0-1.574c.5267 0 .983-.087 1.3687-.261.3857-.179.6843-.425.8958-.741.2115-.319.3193-.692.3235-1.119-.0042-.444-.1203-.836-.3484-1.176-.2239-.34-.5288-.608-.9145-.803s-.8274-.292-1.3251-.292c-.5018 0-.9476.097-1.3375.292s-.6968.463-.9207.803c-.224.34-.3339.732-.3297 1.176-.0042.427.0974.8.3048 1.119.2115.316.5122.562.9021.741.3898.174.8502.261 1.381.261zm0-5.929c.4231 0 .7984-.085 1.126-.255.3277-.17.5848-.406.7715-.709.1907-.303.2882-.657.2923-1.064-.0041-.398-.0995-.746-.2861-1.045-.1825-.299-.4376-.529-.7652-.69-.3277-.166-.7071-.249-1.1385-.249-.4396 0-.8253.083-1.1571.249-.3276.161-.5827.391-.7652.69s-.2716.647-.2675 1.045c-.0041.407.0871.761.2737 1.064.1867.303.4438.539.7715.709.3317.17.7133.255 1.1446.255z" fill="#cfcfcf"/><path d="m376.45 224.982v-1.394l4.311-4.467c.461-.485.84-.91 1.139-1.275.303-.369.529-.719.678-1.051s.224-.685.224-1.058c0-.423-.1-.788-.299-1.095-.199-.311-.47-.549-.815-.715-.344-.17-.732-.255-1.163-.255-.456 0-.854.093-1.194.28-.34.186-.602.45-.784.79-.183.34-.274.738-.274 1.194h-1.835c0-.775.178-1.453.535-2.034.356-.581.846-1.031 1.468-1.35.622-.323 1.329-.485 2.121-.485.801 0 1.506.159 2.116.479.613.315 1.092.746 1.437 1.294.344.543.516 1.157.516 1.841 0 .473-.089.935-.268 1.387-.174.453-.479.956-.914 1.512-.436.552-1.041 1.222-1.817 2.01l-2.532 2.65v.093h5.736v1.649zm10.996 0 5.562-10.999v-.093h-6.433v-1.649h8.423v1.705l-5.543 11.036zm9.794-1.742-.094.678c-.062.498-.168 1.016-.317 1.555-.145.543-.296 1.047-.454 1.512-.154.464-.28.833-.38 1.107h-1.318c.053-.257.128-.605.224-1.045.095-.435.188-.923.279-1.462.092-.539.16-1.089.206-1.648l.062-.697zm2.529 1.742 5.561-10.999v-.093h-6.432v-1.649h8.423v1.705l-5.543 11.036z" fill="#cfcfcf"/><rect fill="#f7f7f7" height="234.907" rx="15.9259" width="390.981" x="31.8516" y="347.056"/><path d="m53.7473 365.094h-1.9037c-.0543-.313-.1544-.589-.3003-.83-.1459-.244-.3274-.451-.5446-.621s-.4649-.297-.7432-.382c-.2748-.088-.5717-.132-.8907-.132-.5667 0-1.0689.142-1.5066.427-.4378.282-.7805.696-1.0282 1.242-.2477.543-.3716 1.207-.3716 1.991 0 .797.1239 1.469.3716 2.015.2511.543.5938.954 1.0282 1.232.4377.275.9382.412 1.5015.412.3122 0 .604-.04.8755-.122.2748-.085.5209-.209.738-.371.2206-.163.4055-.364.5548-.601.1527-.238.2579-.509.3156-.814l1.9037.01c-.0713.495-.2257.96-.4632 1.394-.2342.435-.5413.818-.9213 1.151-.3801.329-.8246.587-1.3336.773-.509.184-1.074.275-1.6949.275-.9162 0-1.734-.212-2.4534-.636s-1.2861-1.037-1.7-1.837c-.414-.801-.621-1.762-.621-2.881 0-1.124.2087-2.084.626-2.881.4174-.801.9858-1.414 1.7052-1.838s1.5338-.636 2.4432-.636c.5802 0 1.1198.081 1.6186.244s.9433.402 1.3335.718c.3903.312.7109.696.962 1.15.2545.452.4208.967.4989 1.548zm3.1626 6.907v-10.425h6.7798v1.583h-4.8914v2.83h4.5402v1.583h-4.5402v2.846h4.9322v1.583zm10.1397-10.425h2.3109l3.0947 7.554h.1221l3.0947-7.554h2.3109v10.425h-1.8121v-7.162h-.0967l-2.8809 7.131h-1.3539l-2.8809-7.146h-.0968v7.177h-1.812zm14.4229 10.425v-10.425h6.7799v1.583h-4.8915v2.83h4.5403v1.583h-4.5403v2.846h4.9322v1.583zm10.1398-10.425h1.8731v7.106h.0967l4.9016-7.106h1.6953v10.425h-1.8887v-7.101h-.0865l-4.917 7.101h-1.6745zm5.2935-2.687h1.3794c0 .594-.2155 1.076-.6464 1.446-.4276.366-1.0078.549-1.7408.549-.7262 0-1.3047-.183-1.7357-.549-.4275-.37-.6396-.852-.6362-1.446h1.3692c0 .244.0746.463.2239.657.1527.19.4123.285.7788.285.3597 0 .6159-.095.7686-.285.1561-.19.2358-.409.2392-.657zm6.7642 13.112v-10.425h1.888v4.413h4.83v-4.413h1.894v10.425h-1.894v-4.429h-4.83v4.429zm13.438 0h-2.016l3.67-10.425h2.331l3.675 10.425h-2.016l-2.784-8.287h-.081zm.066-4.088h5.497v1.517h-5.497zm18.096 4.088h-1.893v-8.847h-1.731c-.468 0-.853.07-1.155.209-.299.136-.521.336-.667.601-.142.261-.214.577-.214.946 0 .37.072.682.214.937.143.251.363.443.662.575.302.129.685.194 1.15.194h2.535v1.567h-2.789c-.801 0-1.476-.132-2.026-.397-.55-.268-.967-.646-1.252-1.135-.282-.492-.423-1.072-.423-1.741 0-.665.139-1.247.418-1.745.281-.503.695-.893 1.242-1.171.546-.278 1.218-.418 2.015-.418h3.914zm-5.39-4.724h2.062l-2.535 4.724h-2.107z" fill="#000" opacity=".6"/><path d="m43.7959 545.01h363.1041v-58.528h-114.262l-248.8421-44.592z" fill="url(#c)" opacity=".4"/><rect fill="#cacaca" height="8.17935" rx="4.08967" width="8.17935" x="403.075" y="481.705"/><path d="m405.712 486.482h-112.582c-1.387 0-2.77-.124-4.135-.373l-245.1993-44.617" stroke="#cacaca" stroke-width="3.18518"/><path d="m298.669 533.113v19.396l-7.234-7.261-3.176 3.149 12.704 12.677 12.678-12.677-3.122-3.149-7.262 7.261v-19.396z" fill="#cacaca"/><path d="m335.994 533.296v27.798h-5.877v-22.22h-.163l-6.366 3.991v-5.212l6.882-4.357zm11.061 23.997-.149 1.493c-.118 1.195-.344 2.384-.679 3.57-.326 1.194-.67 2.276-1.032 3.244-.353.968-.638 1.728-.855 2.28h-3.746c.136-.534.321-1.28.556-2.239.236-.951.457-2.018.666-3.204.208-1.185.339-2.393.393-3.624l.068-1.52zm14.376-24.378c1.429 0 2.805.24 4.126.72 1.33.479 2.515 1.244 3.556 2.294 1.05 1.049 1.878 2.443 2.484 4.18.615 1.729.927 3.851.937 6.366 0 2.362-.267 4.47-.801 6.325-.525 1.846-1.281 3.416-2.267 4.71s-2.176 2.28-3.57 2.959c-1.393.67-2.95 1.005-4.669 1.005-1.855 0-3.493-.358-4.914-1.073-1.42-.724-2.565-1.705-3.434-2.945-.859-1.249-1.379-2.651-1.56-4.208h5.795c.227 1.014.702 1.801 1.426 2.362.723.552 1.619.828 2.687.828 1.81 0 3.185-.787 4.126-2.362.941-1.583 1.416-3.751 1.425-6.501h-.19c-.416.814-.977 1.515-1.683 2.103-.705.58-1.515 1.027-2.429 1.344-.905.317-1.869.475-2.891.475-1.638 0-3.1-.384-4.385-1.153-1.284-.77-2.298-1.828-3.04-3.177-.742-1.348-1.113-2.886-1.113-4.615-.009-1.864.421-3.524 1.29-4.981.868-1.457 2.081-2.597 3.637-3.42 1.566-.833 3.384-1.245 5.457-1.236zm.04 4.615c-.914 0-1.728.218-2.443.652-.706.434-1.267 1.018-1.683 1.751-.407.733-.606 1.552-.597 2.457 0 .914.199 1.737.597 2.47.407.724.959 1.303 1.656 1.737.706.426 1.511.638 2.416.638.679 0 1.308-.126 1.887-.38.579-.253 1.081-.602 1.506-1.045.435-.452.774-.973 1.018-1.561.245-.588.367-1.212.367-1.873-.009-.878-.217-1.683-.625-2.416-.407-.733-.968-1.321-1.683-1.765-.714-.443-1.52-.665-2.416-.665zm29.958 18.351v-1.466c0-1.113.235-2.135.706-3.067.48-.941 1.172-1.692 2.077-2.253.914-.57 2.027-.855 3.339-.855 1.33 0 2.447.28 3.352.841.914.561 1.602 1.312 2.063 2.253.471.932.706 1.959.706 3.081v1.466c0 1.113-.235 2.14-.706 3.082-.47.932-1.162 1.678-2.076 2.239-.914.57-2.027.855-3.339.855-1.331 0-2.448-.285-3.353-.855-.905-.561-1.593-1.307-2.063-2.239-.471-.942-.706-1.969-.706-3.082zm3.95-1.466v1.466c0 .643.154 1.249.461 1.819.317.57.887.855 1.711.855.823 0 1.384-.28 1.683-.841.307-.561.461-1.172.461-1.833v-1.466c0-.66-.145-1.275-.434-1.845-.29-.571-.86-.856-1.71-.856-.815 0-1.38.285-1.697.856-.317.57-.475 1.185-.475 1.845zm-18.215-14.441v-1.466c0-1.122.239-2.149.719-3.081.48-.942 1.172-1.693 2.077-2.254.914-.561 2.018-.841 3.312-.841 1.339 0 2.461.28 3.366.841s1.592 1.312 2.063 2.254c.47.932.706 1.959.706 3.081v1.466c0 1.122-.24 2.149-.72 3.081-.47.932-1.162 1.678-2.076 2.239-.905.552-2.018.828-3.339.828s-2.439-.28-3.353-.841c-.905-.57-1.593-1.317-2.063-2.24-.462-.932-.692-1.954-.692-3.067zm3.977-1.466v1.466c0 .66.153 1.271.461 1.832.317.561.873.841 1.67.841.832 0 1.398-.28 1.696-.841.308-.561.462-1.172.462-1.832v-1.466c0-.661-.145-1.276-.435-1.846-.289-.57-.864-.855-1.723-.855-.806 0-1.362.289-1.67.868s-.461 1.19-.461 1.833zm-2.186 22.586 19.111-27.798h3.557l-19.111 27.798z" fill="#000"/><path d="m49.4571 430.397c-.8544 0-1.6175-.147-2.2894-.441-.6677-.295-1.1965-.703-1.5864-1.226-.3857-.527-.593-1.136-.6221-1.829h1.9535c.0248.378.1513.705.3794.983.2323.274.535.485.9083.635.3733.149.788.224 1.2442.224.5019 0 .9456-.088 1.3313-.262.3899-.174.6947-.417.9145-.728.2198-.315.3297-.678.3297-1.088 0-.427-.1099-.803-.3297-1.126-.2156-.328-.5329-.585-.9518-.772-.4147-.186-.9166-.28-1.5055-.28h-1.0762v-1.567h1.0762c.4728 0 .8875-.085 1.2442-.255.3608-.17.6429-.407.8461-.71.2032-.307.3048-.665.3048-1.076 0-.394-.0892-.736-.2675-1.026-.1742-.295-.423-.525-.7465-.691-.3194-.166-.6968-.249-1.1322-.249-.4148 0-.8026.077-1.1634.23-.3567.15-.647.365-.8709.647-.224.278-.3443.612-.3609 1.002h-1.8601c.0208-.688.224-1.294.6097-1.817.3899-.522.9041-.931 1.5428-1.225.6387-.295 1.3479-.442 2.1276-.442.8171 0 1.5221.16 2.1152.479.5972.315 1.0576.736 1.3811 1.263.3276.527.4894 1.103.4852 1.73.0042.713-.1949 1.318-.5972 1.816-.3982.498-.929.832-1.5926 1.002v.099c.8461.129 1.5014.465 1.9659 1.008.4686.543.7009 1.217.6967 2.022.0042.701-.1908 1.329-.5848 1.885-.3898.556-.9228.993-1.5988 1.313-.676.315-1.4495.472-2.3204.472zm6.4109-2.662v-1.556l5.5056-8.697h1.2255v2.29h-.7776l-3.9379 6.233v.1h7.5461v1.63zm6.0406 2.488v-2.961l.0124-.709v-9.071h1.8228v12.741zm7.4778-1.742-.0933.678c-.0622.498-.168 1.016-.3173 1.556-.1451.543-.2965 1.047-.4541 1.511-.1535.465-.28.834-.3795 1.108h-1.3189c.0539-.257.1286-.606.224-1.045.0954-.436.1887-.923.2799-1.462.0913-.54.1597-1.089.2053-1.649l.0622-.697zm2.4247 1.742v-1.393l4.3112-4.467c.4604-.485.8399-.91 1.1385-1.275.3028-.37.5288-.72.6781-1.052s.224-.684.224-1.057c0-.423-.0996-.788-.2987-1.095-.199-.311-.4707-.55-.8149-.716-.3442-.17-.732-.255-1.1634-.255-.4562 0-.8543.094-1.1944.28-.3401.187-.6014.45-.7839.79-.1824.34-.2737.739-.2737 1.195h-1.8352c0-.776.1783-1.454.535-2.035.3567-.58.8461-1.03 1.4682-1.35.6221-.323 1.3292-.485 2.1214-.485.8004 0 1.5055.16 2.1151.479.6138.315 1.0929.747 1.4371 1.294.3442.544.5163 1.157.5163 1.842 0 .472-.0891.935-.2675 1.387-.1741.452-.479.956-.9145 1.512-.4354.551-1.0409 1.221-1.8165 2.009l-2.532 2.65v.094h5.7358v1.648z" fill="#cfcfcf"/><path d="m376.559 473.397c-.855 0-1.618-.147-2.29-.441-.668-.295-1.196-.703-1.586-1.226-.386-.527-.593-1.136-.622-1.829h1.953c.025.378.151.705.38.983.232.274.535.485.908.635.373.149.788.224 1.244.224.502 0 .946-.088 1.331-.262.39-.174.695-.417.915-.728.22-.315.33-.678.33-1.088 0-.427-.11-.803-.33-1.126-.216-.328-.533-.585-.952-.772-.415-.186-.917-.28-1.505-.28h-1.077v-1.567h1.077c.472 0 .887-.085 1.244-.255.361-.17.643-.407.846-.71.203-.307.305-.665.305-1.076 0-.394-.089-.736-.268-1.026-.174-.295-.423-.525-.746-.691-.32-.166-.697-.249-1.133-.249-.414 0-.802.077-1.163.23-.357.15-.647.365-.871.647-.224.278-.344.612-.361 1.002h-1.86c.021-.688.224-1.294.61-1.817.39-.522.904-.931 1.543-1.225.638-.295 1.348-.442 2.127-.442.817 0 1.522.16 2.115.479.598.315 1.058.736 1.382 1.263.327.527.489 1.103.485 1.73.004.713-.195 1.318-.597 1.816-.399.498-.929.832-1.593 1.002v.099c.846.129 1.501.465 1.966 1.008.468.543.701 1.217.697 2.022.004.701-.191 1.329-.585 1.885-.39.556-.923.993-1.599 1.313-.676.315-1.45.472-2.32.472zm6.678-.174v-1.393l4.311-4.467c.46-.485.84-.91 1.139-1.275.302-.37.528-.72.678-1.052.149-.332.224-.684.224-1.057 0-.423-.1-.788-.299-1.095-.199-.311-.471-.55-.815-.716-.344-.17-.732-.255-1.163-.255-.457 0-.855.094-1.195.28-.34.187-.601.45-.784.79-.182.34-.273.739-.273 1.195h-1.836c0-.776.179-1.454.535-2.035.357-.58.847-1.03 1.469-1.35.622-.323 1.329-.485 2.121-.485.8 0 1.506.16 2.115.479.614.315 1.093.747 1.437 1.294.344.544.517 1.157.517 1.842 0 .472-.09.935-.268 1.387-.174.452-.479.956-.914 1.512-.436.551-1.041 1.221-1.817 2.009l-2.532 2.65v.094h5.736v1.648zm13.011-1.742-.093.678c-.062.498-.168 1.016-.317 1.556-.145.543-.297 1.047-.454 1.511-.154.465-.28.834-.38 1.108h-1.319c.054-.257.129-.606.224-1.045.096-.436.189-.923.28-1.462.091-.54.16-1.089.205-1.649l.063-.697zm6.399 1.916c-.855 0-1.618-.147-2.29-.441-.667-.295-1.196-.703-1.586-1.226-.386-.527-.593-1.136-.622-1.829h1.953c.025.378.152.705.38.983.232.274.535.485.908.635.373.149.788.224 1.244.224.502 0 .946-.088 1.332-.262.39-.174.694-.417.914-.728.22-.315.33-.678.33-1.088 0-.427-.11-.803-.33-1.126-.216-.328-.533-.585-.952-.772-.414-.186-.916-.28-1.505-.28h-1.076v-1.567h1.076c.473 0 .887-.085 1.244-.255.361-.17.643-.407.846-.71.203-.307.305-.665.305-1.076 0-.394-.089-.736-.268-1.026-.174-.295-.423-.525-.746-.691-.319-.166-.697-.249-1.132-.249-.415 0-.803.077-1.164.23-.356.15-.647.365-.871.647-.224.278-.344.612-.36 1.002h-1.861c.021-.688.224-1.294.61-1.817.39-.522.904-.931 1.543-1.225.639-.295 1.348-.442 2.128-.442.817 0 1.522.16 2.115.479.597.315 1.057.736 1.381 1.263.327.527.489 1.103.485 1.73.004.713-.195 1.318-.597 1.816-.398.498-.929.832-1.593 1.002v.099c.846.129 1.502.465 1.966 1.008.469.543.701 1.217.697 2.022.004.701-.191 1.329-.585 1.885-.39.556-.923.993-1.599 1.313-.676.315-1.449.472-2.32.472z" fill="#cfcfcf"/><rect fill="#f7f7f7" height="234.907" rx="15.9259" width="390.981" x="31.8516" y="595.297"/><path d="m44.8246 620.242v-10.425h3.9905c.7533 0 1.3794.119 1.8782.357.5022.234.8772.555 1.1249.962.2511.407.3766.868.3766 1.384 0 .424-.0814.787-.2443 1.089-.1629.299-.3817.542-.6566.728-.2749.187-.582.321-.9213.402v.102c.3699.021.7245.134 1.0638.341.3427.204.6227.492.8399.866.2171.373.3257.824.3257 1.354 0 .539-.1306 1.024-.3919 1.455-.2613.428-.6549.765-1.1809 1.013-.5259.248-1.1876.372-1.9851.372zm1.8883-1.578h2.0309c.6855 0 1.1792-.131 1.4812-.392.3054-.265.4581-.604.4581-1.018 0-.309-.0763-.587-.229-.835-.1527-.251-.3699-.448-.6516-.59-.2816-.146-.6175-.219-1.0078-.219h-2.0818zm0-4.413h1.8681c.3257 0 .6192-.06.8805-.178.2613-.122.4666-.294.6159-.514.1527-.224.229-.489.229-.794 0-.404-.1425-.737-.4275-.998-.2817-.261-.7007-.392-1.2572-.392h-1.9088zm18.2799.779c0 1.123-.2104 2.085-.6312 2.886-.4174.797-.9874 1.408-1.7102 1.832-.7194.424-1.5355.636-2.4483.636s-1.7306-.212-2.4533-.636c-.7194-.428-1.2895-1.04-1.7103-1.838-.4174-.8-.626-1.761-.626-2.88 0-1.124.2086-2.084.626-2.881.4208-.801.9909-1.414 1.7103-1.838.7227-.424 1.5405-.636 2.4533-.636s1.7289.212 2.4483.636c.7228.424 1.2928 1.037 1.7102 1.838.4208.797.6312 1.757.6312 2.881zm-1.8986 0c0-.791-.1238-1.458-.3716-2.001-.2443-.546-.5836-.958-1.0179-1.237-.4344-.281-.9349-.422-1.5016-.422s-1.0672.141-1.5015.422c-.4344.279-.7754.691-1.0231 1.237-.2443.543-.3665 1.21-.3665 2.001 0 .79.1222 1.459.3665 2.005.2477.543.5887.955 1.0231 1.237.4343.278.9348.417 1.5015.417s1.0672-.139 1.5016-.417c.4343-.282.7736-.694 1.0179-1.237.2478-.546.3716-1.215.3716-2.005zm5.1172 5.212v-10.425h6.7798v1.583h-4.8914v2.83h4.5402v1.583h-4.5402v2.846h4.9322v1.583zm10.1397 0v-10.425h1.8884v4.413h4.8304v-4.413h1.8934v10.425h-1.8934v-4.429h-4.8304v4.429zm12.0994 0v-10.425h1.8883v4.413h4.8304v-4.413h1.8935v10.425h-1.8935v-4.429h-4.8304v4.429zm13.4375 0h-2.015l3.67-10.425h2.331l3.675 10.425h-2.016l-2.784-8.287h-.081zm.067-4.088h5.497v1.517h-5.497zm18.096 4.088h-1.893v-8.847h-1.731c-.468 0-.853.07-1.155.209-.299.136-.521.336-.667.601-.143.261-.214.577-.214.946 0 .37.071.682.214.937.143.251.363.443.662.575.302.129.685.194 1.15.194h2.535v1.567h-2.789c-.801 0-1.477-.132-2.026-.397-.55-.268-.967-.646-1.252-1.135-.282-.492-.423-1.072-.423-1.741 0-.665.139-1.247.417-1.745.282-.503.696-.893 1.242-1.171.547-.278 1.219-.418 2.016-.418h3.914zm-5.39-4.724h2.061l-2.534 4.724h-2.108z" fill="#000" opacity=".6"/><path d="m43.7959 793.251h363.1041v-58.528c2.155 0-214.197-12.741-214.197-12.741l-148.9071-31.852z" fill="url(#d)" opacity=".4"/><rect fill="#cacaca" height="8.17935" rx="4.08967" width="8.17935" x="403.075" y="729.945"/><path d="m405.712 734.723-211.236-12.635c-1.18-.071-2.353-.232-3.509-.482l-147.1713-31.874" stroke="#cacaca" stroke-width="3.18518"/><path d="m291.669 781.353v19.396l-7.234-7.261-3.176 3.149 12.704 12.677 12.678-12.677-3.122-3.149-7.262 7.261v-19.396z" fill="#cacaca"/><path d="m327.447 809.944c-2.335-.009-4.344-.583-6.027-1.724-1.674-1.14-2.963-2.791-3.868-4.954-.896-2.162-1.339-4.764-1.33-7.804 0-3.032.447-5.615 1.343-7.751.905-2.135 2.195-3.759 3.869-4.872 1.683-1.123 3.687-1.684 6.013-1.684 2.325 0 4.325.561 5.999 1.684 1.683 1.122 2.977 2.75 3.882 4.886.905 2.126 1.353 4.705 1.344 7.737 0 3.049-.453 5.655-1.358 7.818-.895 2.163-2.18 3.814-3.854 4.954s-3.679 1.71-6.013 1.71zm0-4.872c1.592 0 2.864-.801 3.814-2.403s1.42-4.004 1.411-7.207c0-2.109-.217-3.864-.651-5.267-.425-1.402-1.032-2.457-1.819-3.162-.778-.706-1.697-1.059-2.755-1.059-1.584 0-2.851.792-3.801 2.375-.95 1.584-1.43 3.955-1.439 7.113 0 2.135.213 3.918.638 5.348.435 1.42 1.045 2.488 1.833 3.203.787.706 1.71 1.059 2.769 1.059zm20.242.461-.149 1.493c-.118 1.194-.344 2.384-.679 3.57-.325 1.194-.669 2.276-1.031 3.244-.353.968-.638 1.728-.855 2.28h-3.746c.135-.534.321-1.28.556-2.239.235-.951.457-2.018.665-3.204.208-1.185.339-2.393.394-3.624l.068-1.52zm4.841 3.8v-4.234l9.895-9.162c.841-.815 1.547-1.548 2.117-2.199.579-.652 1.018-1.29 1.317-1.914.298-.633.448-1.317.448-2.05 0-.814-.186-1.515-.557-2.103-.371-.598-.877-1.055-1.52-1.371-.642-.326-1.371-.489-2.185-.489-.851 0-1.593.172-2.226.516-.634.344-1.122.837-1.466 1.479-.344.643-.516 1.407-.516 2.294h-5.579c0-1.819.412-3.398 1.236-4.737.823-1.339 1.977-2.375 3.461-3.108s3.194-1.1 5.131-1.1c1.99 0 3.723.353 5.198 1.059 1.484.697 2.638 1.665 3.461 2.905.824 1.24 1.235 2.66 1.235 4.262 0 1.05-.208 2.086-.624 3.108-.407 1.023-1.136 2.158-2.185 3.407-1.05 1.24-2.529 2.728-4.439 4.466l-4.058 3.977v.19h11.673v4.804zm38.899-5.212v-1.466c0-1.113.235-2.135.706-3.067.48-.941 1.172-1.692 2.077-2.253.914-.57 2.027-.855 3.339-.855 1.33 0 2.447.28 3.352.841.914.561 1.602 1.312 2.063 2.253.471.932.706 1.959.706 3.081v1.466c0 1.113-.235 2.14-.706 3.081-.47.933-1.162 1.679-2.076 2.24-.914.57-2.027.855-3.339.855-1.33 0-2.448-.285-3.353-.855-.905-.561-1.593-1.307-2.063-2.24-.471-.941-.706-1.968-.706-3.081zm3.95-1.466v1.466c0 .643.154 1.249.461 1.819.317.57.887.855 1.711.855.823 0 1.384-.28 1.683-.841.307-.561.461-1.172.461-1.833v-1.466c0-.66-.145-1.275-.434-1.845-.29-.571-.86-.856-1.71-.856-.815 0-1.38.285-1.697.856-.317.57-.475 1.185-.475 1.845zm-18.215-14.441v-1.466c0-1.122.239-2.149.719-3.081.48-.942 1.172-1.693 2.077-2.254.914-.561 2.018-.841 3.312-.841 1.339 0 2.461.28 3.366.841s1.592 1.312 2.063 2.254c.47.932.706 1.959.706 3.081v1.466c0 1.122-.24 2.149-.72 3.081-.47.932-1.162 1.678-2.076 2.239-.905.552-2.018.828-3.339.828s-2.439-.28-3.353-.841c-.905-.57-1.593-1.317-2.063-2.24-.462-.932-.692-1.954-.692-3.067zm3.977-1.466v1.466c0 .66.153 1.271.461 1.832.317.561.873.841 1.67.841.832 0 1.398-.28 1.696-.841.308-.561.462-1.172.462-1.832v-1.466c0-.661-.145-1.276-.435-1.846-.289-.57-.864-.855-1.723-.855-.806 0-1.362.289-1.67.868s-.461 1.19-.461 1.833zm-2.186 22.585 19.111-27.797h3.557l-19.111 27.797z" fill="#000"/><path d="m49.4571 678.675c-.983-.004-1.8228-.263-2.5196-.778-.6967-.514-1.2297-1.263-1.5988-2.246-.3691-.982-.5537-2.167-.5537-3.552 0-1.381.1846-2.561.5537-3.54.3733-.978.9083-1.725 1.6051-2.239.7009-.514 1.5386-.772 2.5133-.772.9746 0 1.8103.26 2.5071.778.6967.514 1.2297 1.261 1.5988 2.24.3732.974.5599 2.152.5599 3.533 0 1.39-.1846 2.576-.5537 3.559-.3691.978-.9021 1.727-1.5988 2.245-.6968.515-1.5346.772-2.5133.772zm0-1.661c.8626 0 1.5366-.421 2.0218-1.263.4894-.842.7341-2.059.7341-3.652 0-1.057-.112-1.951-.3359-2.681-.2199-.734-.5371-1.29-.9519-1.667-.4106-.382-.8999-.573-1.4681-.573-.8585 0-1.5325.423-2.0219 1.269-.4894.847-.7361 2.064-.7403 3.652 0 1.062.1099 1.96.3297 2.694.224.73.5413 1.284.9519 1.661.4105.373.9041.56 1.4806.56zm8.6784-.293-.0933.679c-.0622.497-.168 1.016-.3173 1.555-.1451.543-.2965 1.047-.4541 1.512-.1534.464-.2799.833-.3795 1.107h-1.3188c.0539-.257.1285-.606.2239-1.045.0954-.436.1887-.923.28-1.462.0912-.539.1596-1.089.2053-1.649l.0622-.697zm6.3021 1.917c-.8917 0-1.6797-.154-2.3641-.461-.6801-.307-1.2131-.73-1.5988-1.269s-.5765-1.153-.5723-1.841c-.0042-.539.1058-1.035.3297-1.487.2281-.456.5371-.836.927-1.139.3898-.307.8253-.501 1.3064-.584v-.075c-.6346-.153-1.1426-.494-1.5242-1.02-.3815-.527-.5703-1.133-.5661-1.817-.0042-.651.168-1.232.5163-1.742.3526-.514.8357-.918 1.4496-1.213.6138-.294 1.3126-.442 2.0965-.442.7755 0 1.4681.15 2.0778.448.6138.295 1.097.699 1.4495 1.213.3525.511.5309 1.089.535 1.736-.0041.684-.1991 1.29-.5848 1.817-.3857.526-.8875.867-1.5055 1.02v.075c.477.083.9062.277 1.2878.584.3857.303.6926.683.9207 1.139.2323.452.3505.948.3546 1.487-.0041.688-.1991 1.302-.5848 1.841s-.9207.962-1.605 1.269c-.6802.307-1.462.461-2.3453.461zm0-1.574c.5267 0 .9829-.087 1.3686-.262.3857-.178.6843-.425.8958-.74.2115-.319.3194-.693.3235-1.12-.0041-.444-.1203-.835-.3484-1.176-.2239-.34-.5288-.607-.9145-.802s-.8274-.292-1.325-.292c-.5019 0-.9477.097-1.3376.292-.3898.195-.6967.462-.9207.802-.224.341-.3339.732-.3297 1.176-.0042.427.0975.801.3048 1.12.2115.315.5122.562.9021.74.3898.175.8502.262 1.3811.262zm0-5.929c.423 0 .7983-.085 1.126-.255.3276-.17.5847-.407.7714-.709.1908-.303.2882-.658.2924-1.064-.0042-.398-.0996-.747-.2862-1.045-.1825-.299-.4376-.529-.7652-.691-.3276-.166-.7071-.249-1.1384-.249-.4397 0-.8254.083-1.1572.249-.3276.162-.5827.392-.7652.691-.1824.298-.2716.647-.2675 1.045-.0041.406.0871.761.2738 1.064.1866.302.4437.539.7714.709.3318.17.7133.255 1.1447.255z" fill="#cfcfcf"/><path d="m387.872 721.675c-.983-.004-1.822-.263-2.519-.777-.697-.515-1.23-1.263-1.599-2.246s-.554-2.167-.554-3.552c0-1.381.185-2.561.554-3.54.373-.979.908-1.725 1.605-2.24.701-.514 1.539-.771 2.513-.771.975 0 1.811.259 2.507.778.697.514 1.23 1.26 1.599 2.239.373.975.56 2.153.56 3.534 0 1.389-.184 2.575-.554 3.558-.369.979-.902 1.728-1.598 2.246-.697.514-1.535.771-2.514.771zm0-1.661c.863 0 1.537-.421 2.022-1.263.49-.841.734-2.059.734-3.651 0-1.058-.112-1.952-.336-2.682-.22-.734-.537-1.289-.952-1.667-.41-.381-.9-.572-1.468-.572-.858 0-1.532.423-2.022 1.269-.489.846-.736 2.063-.74 3.652 0 1.061.11 1.959.33 2.693.224.73.541 1.284.952 1.661.41.374.904.56 1.48.56zm8.679-.292-.094.678c-.062.498-.168 1.016-.317 1.555-.145.544-.296 1.048-.454 1.512-.153.465-.28.834-.379 1.107h-1.319c.054-.257.128-.605.224-1.045.095-.435.188-.923.28-1.462.091-.539.159-1.088.205-1.648l.062-.697zm6.411 1.916c-.569-.008-1.128-.112-1.68-.311-.547-.199-1.045-.531-1.493-.995-.448-.465-.807-1.089-1.076-1.873-.266-.784-.398-1.763-.398-2.936 0-1.112.109-2.099.329-2.961.224-.863.546-1.591.964-2.184.419-.597.925-1.051 1.518-1.362.594-.312 1.259-.467 1.997-.467.759 0 1.433.149 2.022.448.589.298 1.066.711 1.431 1.238.369.527.604 1.126.703 1.798h-1.897c-.129-.531-.384-.965-.766-1.3-.381-.336-.879-.504-1.493-.504-.933 0-1.661.406-2.183 1.219-.519.813-.78 1.943-.784 3.39h.093c.22-.36.49-.667.809-.92.323-.257.684-.454 1.082-.591.403-.141.826-.212 1.27-.212.738 0 1.406.181 2.003.541.601.357 1.08.851 1.437 1.481.356.63.535 1.352.535 2.165s-.185 1.549-.554 2.208c-.365.66-.879 1.182-1.543 1.568-.663.382-1.439.568-2.326.56zm-.007-1.617c.49 0 .927-.121 1.313-.361.386-.241.691-.564.915-.971.224-.406.336-.86.336-1.362 0-.49-.11-.935-.33-1.338-.216-.402-.514-.721-.896-.958-.377-.236-.809-.354-1.294-.354-.369 0-.711.07-1.027.211-.311.141-.584.336-.821.585-.236.249-.423.535-.56.858-.132.32-.199.658-.199 1.015 0 .476.11.918.33 1.325.224.406.529.734.915.983.389.244.829.367 1.318.367z" fill="#cfcfcf"/><rect fill="#f7f7f7" height="234.907" rx="15.9259" width="390.981" x="437.167" y="98.8154"/><path d="m456.842 113.336v1.583h-4.815v8.841h-1.888v-10.424zm11.884 5.212c0 1.123-.211 2.085-.632 2.886-.417.797-.987 1.408-1.71 1.832-.719.424-1.535.637-2.448.637s-1.731-.213-2.453-.637c-.72-.427-1.29-1.04-1.711-1.837-.417-.801-.626-1.761-.626-2.881 0-1.123.209-2.084.626-2.881.421-.801.991-1.413 1.711-1.838.722-.424 1.54-.636 2.453-.636s1.729.212 2.448.636c.723.425 1.293 1.037 1.71 1.838.421.797.632 1.758.632 2.881zm-1.899 0c0-.791-.124-1.458-.372-2-.244-.547-.583-.959-1.018-1.237-.434-.282-.934-.423-1.501-.423s-1.067.141-1.502.423c-.434.278-.775.69-1.023 1.237-.244.542-.366 1.209-.366 2s.122 1.459.366 2.005c.248.543.589.956 1.023 1.237.435.278.935.418 1.502.418s1.067-.14 1.501-.418c.435-.281.774-.694 1.018-1.237.248-.546.372-1.214.372-2.005zm14.04-1.695h-1.904c-.054-.312-.154-.589-.3-.83-.146-.244-.328-.451-.545-.621-.217-.169-.465-.297-.743-.381-.275-.089-.572-.133-.891-.133-.566 0-1.068.143-1.506.428-.438.281-.781.695-1.028 1.242-.248.543-.372 1.206-.372 1.99 0 .797.124 1.469.372 2.016.251.542.593.953 1.028 1.231.438.275.938.413 1.501.413.312 0 .604-.041.876-.123.275-.084.521-.208.738-.371.22-.163.405-.363.555-.601.152-.237.258-.509.315-.814l1.904.01c-.071.495-.226.96-.463 1.395-.234.434-.542.817-.922 1.15-.38.329-.824.587-1.333.774-.509.183-1.074.275-1.695.275-.916 0-1.734-.213-2.453-.637-.72-.424-1.287-1.036-1.701-1.837s-.621-1.761-.621-2.881c0-1.123.209-2.084.627-2.881.417-.801.985-1.413 1.705-1.838.719-.424 1.533-.636 2.443-.636.58 0 1.12.082 1.618.245.499.162.944.402 1.334.717.39.312.711.696.962 1.151.255.451.421.967.499 1.547zm11.668-3.517v10.424h-1.873v-8.857h-4.561v8.857h-1.873v-10.424zm13.006 5.212c0 1.123-.21 2.085-.631 2.886-.417.797-.987 1.408-1.71 1.832-.719.424-1.535.637-2.448.637s-1.731-.213-2.454-.637c-.719-.427-1.289-1.04-1.71-1.837-.417-.801-.626-1.761-.626-2.881 0-1.123.209-2.084.626-2.881.421-.801.991-1.413 1.71-1.838.723-.424 1.541-.636 2.454-.636s1.729.212 2.448.636c.723.425 1.293 1.037 1.71 1.838.421.797.631 1.758.631 2.881zm-1.898 0c0-.791-.124-1.458-.372-2-.244-.547-.583-.959-1.018-1.237-.434-.282-.935-.423-1.501-.423-.567 0-1.067.141-1.502.423-.434.278-.775.69-1.023 1.237-.244.542-.366 1.209-.366 2s.122 1.459.366 2.005c.248.543.589.956 1.023 1.237.435.278.935.418 1.502.418.566 0 1.067-.14 1.501-.418.435-.281.774-.694 1.018-1.237.248-.546.372-1.214.372-2.005zm4.44 7.726v-4.056h.697c.235-.187.453-.45.657-.789.204-.34.377-.804.519-1.395.143-.59.241-1.354.295-2.29l.275-4.408h6.663v8.882h1.161v4.046h-1.812v-2.504h-6.643v2.514zm2.896-4.056h4.398v-7.299h-3.151l-.163 2.825c-.044.709-.115 1.343-.213 1.903-.099.56-.223 1.054-.372 1.481-.149.425-.315.788-.499 1.09zm10.155 4.056v-4.056h.698c.234-.187.453-.45.656-.789.204-.34.377-.804.519-1.395.143-.59.241-1.354.296-2.29l.274-4.408h6.663v8.882h1.161v4.046h-1.812v-2.504h-6.643v2.514zm2.896-4.056h4.398v-7.299h-3.15l-.163 2.825c-.044.709-.116 1.343-.214 1.903-.099.56-.222 1.054-.372 1.481-.149.425-.315.788-.499 1.09zm10.343 1.542v-10.424h6.779v1.583h-4.891v2.83h4.54v1.583h-4.54v2.845h4.932v1.583zm10.139 0v-10.424h3.909c.801 0 1.473.149 2.016.448.546.298.959.709 1.237 1.231.281.52.422 1.11.422 1.772 0 .668-.141 1.262-.422 1.781-.282.519-.697.928-1.247 1.227-.55.295-1.227.443-2.031.443h-2.591v-1.553h2.336c.469 0 .852-.081 1.151-.244.298-.163.519-.387.661-.672.146-.285.219-.612.219-.982s-.073-.696-.219-.978c-.142-.281-.364-.5-.666-.656-.299-.16-.684-.239-1.156-.239h-1.73v8.846zm18.008-10.424v10.424h-1.853v-10.424zm-7.976 10.424 3.308-5.477-3.12-4.947h2.316l2.464 4.403h4.209l2.423-4.403h2.306l-3.075 4.942 3.268 5.482h-2.234l-2.418-4.27h-4.77l-2.463 4.27zm23.212 0-3.431-4.556h-.926v4.556h-1.889v-10.424h1.889v4.286h.473l3.706-4.286h2.326l-4.118 4.754 4.296 5.67zm6.381 0h-2.016l3.67-10.424h2.331l3.675 10.424h-2.016l-2.784-8.286h-.081zm.066-4.087h5.497v1.517h-5.497z" fill="#000" opacity=".6"/><path d="m812.215 296.769h-363.104v-87.991l167.222 11.945s193.766-42.073 195.882-42.985v-.015c.023 0 .023.005 0 .015z" fill="url(#f)" opacity=".4"/><rect fill="#04b34a" height="8.17935" rx="4.08967" width="8.17935" x="808.39" y="173.741"/><path d="m810.231 178.519-190.68 41.503c-2.134.465-4.324.624-6.502.474l-163.938-11.32" stroke="#04b34a" stroke-width="3.18518"/><path d="m704.984 312.833v-19.396l-7.234 7.261-3.176-3.149 12.704-12.677 12.678 12.677-3.122 3.149-7.262-7.261v19.396z" fill="#04b34a"/><path d="m741.72 285.054v27.798h-5.877v-22.219h-.163l-6.366 3.99v-5.212l6.882-4.357zm11.06 23.998-.149 1.493c-.118 1.194-.344 2.384-.679 3.57-.325 1.194-.669 2.275-1.031 3.244-.353.968-.638 1.728-.855 2.28h-3.746c.135-.534.321-1.28.556-2.24.235-.95.457-2.018.665-3.203s.339-2.393.394-3.624l.068-1.52zm14.22 4.18c-2.027 0-3.832-.348-5.416-1.045-1.574-.706-2.818-1.674-3.732-2.904-.905-1.24-1.371-2.67-1.398-4.29h5.918c.036.679.257 1.276.665 1.792.416.507.968.9 1.656 1.181.687.28 1.461.421 2.321.421.895 0 1.687-.159 2.375-.475.688-.317 1.226-.756 1.615-1.317s.584-1.208.584-1.941c0-.742-.208-1.398-.625-1.968-.407-.579-.995-1.032-1.764-1.357-.76-.326-1.665-.489-2.715-.489h-2.592v-4.316h2.592c.887 0 1.67-.154 2.348-.462.688-.307 1.222-.733 1.602-1.276.38-.552.57-1.194.57-1.927 0-.697-.167-1.308-.502-1.832-.326-.534-.787-.951-1.385-1.249-.588-.299-1.275-.448-2.063-.448-.796 0-1.524.145-2.185.434-.661.281-1.19.683-1.588 1.208s-.611 1.14-.638 1.846h-5.633c.027-1.601.484-3.013 1.371-4.235.887-1.221 2.081-2.176 3.583-2.864 1.512-.696 3.217-1.045 5.117-1.045 1.919 0 3.597.349 5.036 1.045 1.439.697 2.556 1.638 3.353 2.824.805 1.176 1.203 2.497 1.194 3.963.009 1.556-.475 2.855-1.452 3.896-.968 1.04-2.231 1.701-3.787 1.981v.217c2.045.263 3.601.973 4.669 2.131 1.077 1.15 1.611 2.588 1.602 4.317.009 1.583-.448 2.99-1.371 4.221-.914 1.231-2.176 2.199-3.787 2.905-1.611.705-3.457 1.058-5.538 1.058zm29.744-5.592v-1.466c0-1.113.235-2.135.706-3.067.479-.941 1.172-1.692 2.077-2.253.914-.571 2.027-.856 3.339-.856 1.33 0 2.447.281 3.352.842.914.561 1.602 1.312 2.063 2.253.471.932.706 1.959.706 3.081v1.466c0 1.113-.235 2.14-.706 3.081-.47.932-1.162 1.679-2.076 2.24-.914.57-2.027.855-3.339.855-1.331 0-2.448-.285-3.353-.855-.905-.561-1.593-1.308-2.063-2.24-.471-.941-.706-1.968-.706-3.081zm3.95-1.466v1.466c0 .643.154 1.249.461 1.819.317.57.887.855 1.711.855.823 0 1.384-.28 1.683-.841.307-.561.461-1.172.461-1.833v-1.466c0-.66-.145-1.276-.434-1.846-.29-.57-.86-.855-1.71-.855-.815 0-1.38.285-1.697.855s-.475 1.186-.475 1.846zm-18.215-14.442v-1.466c0-1.122.239-2.149.719-3.081.48-.941 1.172-1.692 2.077-2.253.914-.561 2.018-.841 3.312-.841 1.339 0 2.461.28 3.366.841s1.592 1.312 2.063 2.253c.47.932.706 1.959.706 3.081v1.466c0 1.122-.24 2.149-.72 3.081-.47.932-1.162 1.679-2.076 2.24-.905.552-2.018.828-3.339.828-1.322 0-2.439-.28-3.353-.842-.905-.57-1.593-1.316-2.063-2.239-.462-.932-.692-1.955-.692-3.068zm3.977-1.466v1.466c0 .661.153 1.272.461 1.833.317.561.873.841 1.67.841.832 0 1.398-.28 1.696-.841.308-.561.462-1.172.462-1.833v-1.466c0-.66-.145-1.275-.435-1.846-.289-.57-.864-.855-1.723-.855-.806 0-1.362.29-1.67.869s-.461 1.19-.461 1.832zm-2.186 22.586 19.111-27.798h3.557l-19.112 27.798z" fill="#000"/><path d="m450.336 197.111v-1.393l4.312-4.467c.46-.485.839-.91 1.138-1.275.303-.369.529-.72.678-1.052.149-.331.224-.684.224-1.057 0-.423-.099-.788-.299-1.095-.199-.311-.47-.55-.814-.716-.345-.17-.732-.255-1.164-.255-.456 0-.854.094-1.194.28-.34.187-.602.45-.784.79-.183.341-.274.739-.274 1.195h-1.835c0-.776.178-1.454.535-2.034.357-.581.846-1.031 1.468-1.35.622-.324 1.329-.486 2.122-.486.8 0 1.505.16 2.115.479.613.316 1.093.747 1.437 1.294.344.544.516 1.158.516 1.842 0 .473-.089.935-.267 1.387-.175.452-.479.956-.915 1.512-.435.551-1.041 1.221-1.816 2.009l-2.532 2.65v.094h5.735v1.648zm10.996 0 5.562-10.999v-.093h-6.433v-1.648h8.424v1.704l-5.543 11.036z" fill="#cfcfcf"/><path d="m777.037 162.871v-1.393l4.311-4.467c.461-.485.84-.91 1.139-1.275.303-.37.529-.72.678-1.052s.224-.684.224-1.057c0-.423-.1-.788-.299-1.095-.199-.311-.471-.55-.815-.716-.344-.17-.732-.255-1.163-.255-.456 0-.854.094-1.195.28-.34.187-.601.45-.783.79-.183.34-.274.738-.274 1.195h-1.835c0-.776.178-1.454.535-2.035.356-.58.846-1.03 1.468-1.35.622-.323 1.329-.485 2.121-.485.801 0 1.506.16 2.115.479.614.315 1.093.747 1.437 1.294.345.543.517 1.157.517 1.842 0 .472-.089.935-.268 1.387-.174.452-.479.956-.914 1.512-.436.551-1.041 1.221-1.817 2.009l-2.532 2.65v.094h5.736v1.648zm14.872.174c-.892 0-1.68-.153-2.364-.46-.681-.307-1.213-.73-1.599-1.269s-.577-1.153-.573-1.842c-.004-.539.106-1.034.33-1.486.228-.457.537-.836.927-1.139.39-.307.825-.502 1.307-.585v-.074c-.635-.154-1.143-.494-1.525-1.021-.381-.526-.57-1.132-.566-1.816-.004-.651.168-1.232.517-1.742.352-.514.835-.919 1.449-1.213.614-.295 1.313-.442 2.097-.442.775 0 1.468.149 2.077.448.614.295 1.097.699 1.45 1.213.353.51.531 1.089.535 1.736-.004.684-.199 1.29-.585 1.816-.385.527-.887.867-1.505 1.021v.074c.477.083.906.278 1.287.585.386.303.693.682.921 1.139.232.452.351.947.355 1.486-.004.689-.199 1.303-.585 1.842s-.921.962-1.605 1.269c-.68.307-1.462.46-2.345.46zm0-1.574c.526 0 .983-.087 1.368-.261.386-.178.685-.425.896-.74.212-.32.319-.693.324-1.12-.005-.444-.121-.836-.349-1.176-.224-.34-.529-.607-.914-.802-.386-.195-.828-.293-1.325-.293-.502 0-.948.098-1.338.293s-.697.462-.921.802-.333.732-.329 1.176c-.004.427.097.8.305 1.12.211.315.512.562.902.74.389.174.85.261 1.381.261zm0-5.928c.423 0 .798-.085 1.126-.255.327-.17.584-.407.771-.71.191-.302.288-.657.292-1.063-.004-.399-.099-.747-.286-1.046-.182-.298-.437-.528-.765-.69-.328-.166-.707-.249-1.138-.249-.44 0-.826.083-1.157.249-.328.162-.583.392-.766.69-.182.299-.271.647-.267 1.046-.004.406.087.761.274 1.063.186.303.443.54.771.71.332.17.713.255 1.145.255zm8.655 5.586-.094.678c-.062.498-.168 1.016-.317 1.556-.145.543-.296 1.047-.454 1.511-.153.465-.28.834-.379 1.108h-1.319c.054-.258.128-.606.224-1.046.095-.435.188-.922.28-1.461.091-.54.159-1.089.205-1.649l.062-.697zm6.398 1.916c-.854 0-1.617-.147-2.289-.441-.668-.295-1.197-.703-1.587-1.226-.385-.527-.593-1.136-.622-1.829h1.954c.025.377.151.705.379.983.233.274.535.485.909.635.373.149.788.223 1.244.223.502 0 .945-.087 1.331-.261.39-.174.695-.417.915-.728.219-.315.329-.678.329-1.088 0-.428-.11-.803-.329-1.126-.216-.328-.533-.585-.952-.772-.415-.186-.917-.28-1.506-.28h-1.076v-1.567h1.076c.473 0 .888-.085 1.244-.255.361-.171.643-.407.847-.71.203-.307.304-.665.304-1.076 0-.394-.089-.736-.267-1.026-.174-.295-.423-.525-.747-.691-.319-.166-.696-.249-1.132-.249-.415 0-.802.077-1.163.23-.357.15-.647.365-.871.647-.224.278-.344.612-.361 1.002h-1.86c.021-.689.224-1.294.61-1.817.389-.522.904-.931 1.542-1.225.639-.295 1.348-.442 2.128-.442.817 0 1.522.16 2.115.479.597.315 1.058.736 1.381 1.263.328.527.49 1.103.485 1.73.005.713-.194 1.318-.597 1.816-.398.498-.929.832-1.592 1.002v.099c.846.129 1.501.465 1.966 1.008.468.543.7 1.217.696 2.022.004.701-.191 1.329-.585 1.885-.389.556-.922.993-1.598 1.312-.676.316-1.45.473-2.321.473z" fill="#cfcfcf"/><rect fill="#f7f7f7" height="234.907" rx="15.9259" width="390.981" x="437.167" y="347.056"/><path d="m452.027 361.576v10.425h-1.888v-10.425zm3.021 1.583v-1.583h8.317v1.583h-3.222v8.842h-1.874v-8.842zm15.367 2.871v1.517h-4.693v-1.517zm3.452-4.454h1.874v7.106h.096l4.902-7.106h1.695v10.425h-1.889v-7.101h-.086l-4.917 7.101h-1.675zm20.563 0v10.425h-1.873v-8.857h-4.561v8.857h-1.873v-10.425zm13.007 5.213c0 1.123-.211 2.085-.631 2.886-.418.797-.988 1.408-1.711 1.832-.719.424-1.535.636-2.448.636s-1.731-.212-2.453-.636c-.72-.428-1.29-1.04-1.711-1.837-.417-.801-.626-1.762-.626-2.881 0-1.124.209-2.084.626-2.881.421-.801.991-1.414 1.711-1.838.722-.424 1.54-.636 2.453-.636s1.729.212 2.448.636c.723.424 1.293 1.037 1.711 1.838.42.797.631 1.757.631 2.881zm-1.899 0c0-.791-.124-1.458-.371-2.001-.245-.546-.584-.958-1.018-1.237-.435-.281-.935-.422-1.502-.422s-1.067.141-1.501.422c-.435.279-.776.691-1.024 1.237-.244.543-.366 1.21-.366 2.001 0 .79.122 1.459.366 2.005.248.543.589.955 1.024 1.237.434.278.934.417 1.501.417s1.067-.139 1.502-.417c.434-.282.773-.694 1.018-1.237.247-.546.371-1.215.371-2.005zm4.197-3.63v-1.583h8.317v1.583h-3.222v8.842h-1.873v-8.842zm11.354 8.842v-10.425h6.78v1.583h-4.892v2.83h4.541v1.583h-4.541v2.846h4.933v1.583zm16.385 0-3.431-4.556h-.926v4.556h-1.888v-10.425h1.888v4.286h.473l3.706-4.286h2.326l-4.118 4.755 4.296 5.67zm6.381 0h-2.016l3.67-10.425h2.331l3.675 10.425h-2.015l-2.785-8.287h-.081zm.066-4.088h5.497v1.517h-5.497z" fill="#000" opacity=".6"/><path d="m812.215 545.01h-363.104v-87.991l158.463 21.102s202.523-51.079 204.641-52.14v-.017c.022 0 .022.005 0 .017z" fill="url(#g)" opacity=".4"/><rect fill="#04b34a" height="8.17935" rx="4.08967" width="8.17935" x="808.39" y="421.982"/><path d="m810.231 426.76-197.575 50.271c-2.831.72-5.774.897-8.671.52l-154.874-20.134" stroke="#04b34a" stroke-width="3.18518"/><path d="m697.984 561.074v-19.396l-7.234 7.261-3.176-3.149 12.704-12.677 12.678 12.677-3.122 3.149-7.262-7.261v19.396z" fill="#04b34a"/><path d="m722.907 561.094v-4.235l9.895-9.162c.842-.815 1.548-1.548 2.118-2.199.579-.652 1.018-1.29 1.316-1.914.299-.633.448-1.317.448-2.05 0-.814-.185-1.515-.556-2.103-.371-.598-.878-1.055-1.52-1.371-.643-.326-1.371-.489-2.186-.489-.85 0-1.592.172-2.226.516-.633.344-1.122.837-1.466 1.479-.344.643-.515 1.407-.515 2.294h-5.579c0-1.819.412-3.398 1.235-4.737.824-1.339 1.977-2.375 3.461-3.108s3.195-1.1 5.131-1.1c1.991 0 3.724.353 5.199 1.059 1.484.697 2.637 1.665 3.461 2.905.823 1.24 1.235 2.66 1.235 4.262 0 1.05-.208 2.086-.625 3.108-.407 1.023-1.135 2.158-2.185 3.407-1.049 1.24-2.529 2.728-4.438 4.466l-4.059 3.977v.19h11.673v4.805zm30.023-3.801-.15 1.493c-.117 1.195-.343 2.384-.678 3.57-.326 1.194-.67 2.276-1.032 3.244-.353.968-.638 1.728-.855 2.28h-3.746c.136-.534.321-1.28.556-2.239.236-.951.457-2.018.665-3.204.209-1.185.34-2.393.394-3.624l.068-1.52zm14.09 4.181c-2.09 0-3.949-.34-5.578-1.018-1.62-.688-2.891-1.625-3.814-2.81s-1.385-2.529-1.385-4.031c0-1.159.263-2.222.788-3.19.533-.977 1.257-1.787 2.171-2.43.914-.651 1.937-1.067 3.068-1.248v-.19c-1.484-.299-2.688-1.018-3.611-2.159-.923-1.149-1.384-2.483-1.384-4.004 0-1.438.421-2.719 1.262-3.841.842-1.131 1.995-2.018 3.461-2.66 1.475-.652 3.149-.978 5.022-.978 1.874 0 3.543.326 5.009.978 1.475.651 2.633 1.543 3.475 2.674.841 1.122 1.267 2.398 1.276 3.827-.009 1.53-.48 2.864-1.412 4.004-.932 1.141-2.127 1.86-3.583 2.159v.19c1.113.181 2.122.597 3.026 1.248.914.643 1.638 1.453 2.172 2.43.543.968.819 2.031.828 3.19-.009 1.502-.475 2.846-1.398 4.031s-2.199 2.122-3.828 2.81c-1.619.678-3.474 1.018-5.565 1.018zm0-4.317c.932 0 1.747-.167 2.444-.502.696-.344 1.239-.814 1.628-1.412.399-.606.598-1.303.598-2.09 0-.805-.204-1.516-.611-2.131-.407-.624-.959-1.113-1.656-1.466-.697-.362-1.498-.543-2.403-.543-.895 0-1.696.181-2.402.543-.706.353-1.262.842-1.67 1.466-.398.615-.597 1.326-.597 2.131 0 .787.195 1.484.584 2.09.389.598.936 1.068 1.642 1.412.706.335 1.52.502 2.443.502zm0-12.419c.779 0 1.471-.159 2.077-.475.606-.317 1.081-.756 1.425-1.317s.516-1.208.516-1.941c0-.724-.172-1.357-.516-1.9-.344-.552-.814-.982-1.411-1.29-.598-.316-1.294-.475-2.091-.475-.787 0-1.484.159-2.09.475-.606.308-1.081.738-1.425 1.29-.335.543-.502 1.176-.502 1.9 0 .733.172 1.38.516 1.941.343.561.818 1 1.425 1.317.606.316 1.298.475 2.076.475zm29.724 11.143v-1.466c0-1.113.235-2.135.706-3.067.479-.941 1.172-1.692 2.077-2.253.914-.57 2.027-.855 3.339-.855 1.33 0 2.447.28 3.352.841.914.561 1.602 1.312 2.063 2.253.471.932.706 1.959.706 3.081v1.466c0 1.113-.235 2.14-.706 3.082-.47.932-1.162 1.678-2.076 2.239-.914.57-2.027.855-3.339.855-1.331 0-2.448-.285-3.353-.855-.905-.561-1.593-1.307-2.063-2.239-.471-.942-.706-1.969-.706-3.082zm3.95-1.466v1.466c0 .643.154 1.249.461 1.819.317.57.887.855 1.711.855.823 0 1.384-.28 1.683-.841.307-.561.461-1.172.461-1.833v-1.466c0-.66-.145-1.275-.434-1.845-.29-.571-.86-.856-1.71-.856-.815 0-1.38.285-1.697.856-.317.57-.475 1.185-.475 1.845zm-18.215-14.441v-1.466c0-1.122.239-2.149.719-3.081.48-.942 1.172-1.693 2.077-2.254.914-.561 2.018-.841 3.312-.841 1.339 0 2.461.28 3.366.841s1.592 1.312 2.063 2.254c.47.932.706 1.959.706 3.081v1.466c0 1.122-.24 2.149-.72 3.081-.47.932-1.162 1.678-2.076 2.239-.905.552-2.018.828-3.339.828-1.322 0-2.439-.28-3.353-.841-.905-.57-1.593-1.317-2.063-2.24-.462-.932-.692-1.954-.692-3.067zm3.977-1.466v1.466c0 .66.153 1.271.461 1.832.317.561.873.841 1.67.841.832 0 1.398-.28 1.696-.841.308-.561.462-1.172.462-1.832v-1.466c0-.661-.145-1.276-.435-1.846-.289-.57-.864-.855-1.723-.855-.806 0-1.362.289-1.67.868s-.461 1.19-.461 1.833zm-2.186 22.586 19.111-27.798h3.557l-19.112 27.798z" fill="#000"/><path d="m450.766 445.353 5.561-10.999v-.093h-6.432v-1.649h8.423v1.705l-5.543 11.036zm9.793-1.742-.093.678c-.062.498-.168 1.016-.317 1.555-.146.544-.297 1.047-.454 1.512-.154.464-.28.834-.38 1.107h-1.319c.054-.257.129-.605.224-1.045.096-.435.189-.923.28-1.462s.16-1.088.205-1.648l.063-.697zm6.508-11.173c.568.004 1.128.108 1.679.311.552.203 1.05.535 1.493.995.448.461.805 1.083 1.07 1.867.27.779.407 1.75.411 2.911 0 1.116-.112 2.109-.336 2.98-.224.867-.545 1.599-.964 2.196-.415.597-.919 1.051-1.512 1.362s-1.261.467-2.003.467c-.759 0-1.433-.149-2.022-.448s-1.068-.711-1.437-1.238c-.369-.531-.599-1.14-.691-1.829h1.898c.124.548.377.991.759 1.331.385.336.883.504 1.493.504.933 0 1.661-.406 2.183-1.219.523-.817.786-1.958.79-3.422h-.099c-.216.357-.485.664-.809.921-.319.257-.678.456-1.076.597s-.823.212-1.275.212c-.734 0-1.402-.181-2.004-.541-.601-.361-1.08-.857-1.437-1.487-.356-.631-.535-1.35-.535-2.159 0-.805.183-1.534.548-2.19.369-.655.883-1.173 1.543-1.555.663-.386 1.441-.574 2.333-.566zm.006 1.617c-.485 0-.923.121-1.313.361-.386.237-.69.558-.914.964-.224.403-.336.851-.336 1.344 0 .494.108.942.323 1.344.22.398.519.715.896.952.382.232.817.348 1.306.348.365 0 .705-.07 1.021-.211.315-.141.591-.336.827-.585.236-.253.421-.539.554-.859.132-.319.199-.655.199-1.007 0-.469-.112-.905-.336-1.307-.22-.402-.523-.726-.908-.97-.386-.249-.826-.374-1.319-.374z" fill="#cfcfcf"/><path d="m785.375 398.371v12.741h-1.928v-10.812h-.075l-3.048 1.99v-1.841l3.179-2.078zm7.705 12.952c-.983-.004-1.823-.263-2.519-.777-.697-.515-1.23-1.263-1.599-2.246s-.554-2.167-.554-3.552c0-1.381.185-2.561.554-3.54.373-.979.908-1.725 1.605-2.24.701-.514 1.539-.771 2.513-.771.975 0 1.811.259 2.507.778.697.514 1.23 1.26 1.599 2.239.373.975.56 2.153.56 3.534 0 1.389-.185 2.575-.554 3.558-.369.979-.902 1.727-1.598 2.246-.697.514-1.535.771-2.514.771zm0-1.661c.863 0 1.537-.421 2.022-1.263.489-.841.734-2.059.734-3.651 0-1.058-.112-1.952-.336-2.682-.22-.734-.537-1.289-.952-1.667-.41-.381-.9-.572-1.468-.572-.858 0-1.532.423-2.022 1.269-.489.846-.736 2.063-.74 3.652 0 1.061.11 1.959.33 2.693.224.73.541 1.284.952 1.661.41.374.904.56 1.48.56zm8.679-.292-.094.678c-.062.498-.168 1.016-.317 1.555-.145.544-.296 1.047-.454 1.512-.153.465-.28.834-.38 1.107h-1.318c.054-.257.128-.605.224-1.045.095-.435.188-.923.28-1.462.091-.539.159-1.088.205-1.648l.062-.697zm2.529 1.742 5.561-10.999v-.093h-6.432v-1.649h8.423v1.705l-5.543 11.036z" fill="#cfcfcf"/><rect fill="#f7f7f7" height="234.907" rx="15.9259" width="390.981" x="437.167" y="595.297"/><path d="m449.462 622.756v-4.057h.697c.235-.186.453-.449.657-.789.204-.339.377-.804.519-1.394.143-.591.241-1.354.295-2.291l.275-4.408h6.663v8.882h1.161v4.047h-1.813v-2.504h-6.642v2.514zm2.896-4.057h4.398v-7.299h-3.151l-.163 2.825c-.044.71-.115 1.344-.213 1.904-.099.56-.223 1.054-.372 1.481-.149.424-.316.787-.499 1.089zm11.681 1.543h-2.016l3.67-10.425h2.331l3.675 10.425h-2.015l-2.785-8.287h-.081zm.066-4.088h5.497v1.517h-5.497zm9.724 4.088v-1.568l.295-.015c.4-.024.718-.168.952-.433.237-.265.412-.69.524-1.278.115-.587.192-1.374.229-2.361l.173-4.77h6.831v10.425h-1.848v-8.872h-3.222l-.163 3.802c-.047 1.14-.173 2.085-.376 2.835-.2.75-.53 1.31-.988 1.68-.454.37-1.087.555-1.898.555zm13.774-6.398h2.646c.798 0 1.482.13 2.052.392.573.257 1.013.622 1.318 1.094s.458 1.026.458 1.664c0 .642-.153 1.207-.458 1.695-.305.486-.745.866-1.318 1.14-.57.275-1.254.413-2.052.413h-3.904v-10.425h1.894v8.877h2.01c.421 0 .778-.079 1.069-.239.292-.159.513-.37.662-.631.153-.261.229-.545.229-.85 0-.441-.17-.816-.509-1.125-.336-.312-.819-.468-1.451-.468h-2.646zm9.744 6.398v-10.425h1.888v4.413h4.83v-4.413h1.894v10.425h-1.894v-4.429h-4.83v4.429zm12.099 0v-10.425h6.78v1.583h-4.892v2.83h4.541v1.583h-4.541v2.846h4.933v1.583zm10.14 0v-10.425h3.99c.754 0 1.38.119 1.878.357.503.234.878.555 1.125.962.251.407.377.868.377 1.384 0 .424-.081.787-.244 1.089-.163.299-.382.542-.657.728-.275.187-.582.321-.921.402v.102c.37.021.724.134 1.064.341.342.204.622.492.839.866.218.373.326.824.326 1.354 0 .539-.13 1.024-.392 1.455-.261.428-.655.765-1.181 1.013s-1.187.372-1.985.372zm1.888-1.578h2.031c.685 0 1.179-.131 1.481-.392.306-.265.458-.604.458-1.018 0-.309-.076-.587-.229-.835-.153-.251-.37-.448-.651-.59-.282-.146-.618-.219-1.008-.219h-2.082zm0-4.413h1.868c.326 0 .619-.06.881-.178.261-.122.466-.294.616-.514.152-.224.229-.489.229-.794 0-.404-.143-.737-.428-.998-.282-.261-.701-.392-1.257-.392h-1.909zm18.28.779c0 1.123-.21 2.085-.631 2.886-.418.797-.988 1.408-1.71 1.832-.72.424-1.536.636-2.449.636s-1.73-.212-2.453-.636c-.719-.428-1.29-1.04-1.71-1.838-.418-.8-.626-1.761-.626-2.88 0-1.124.208-2.084.626-2.881.42-.801.991-1.414 1.71-1.838.723-.424 1.54-.636 2.453-.636s1.729.212 2.449.636c.722.424 1.292 1.037 1.71 1.838.421.797.631 1.757.631 2.881zm-1.899 0c0-.791-.124-1.458-.371-2.001-.245-.546-.584-.958-1.018-1.237-.435-.281-.935-.422-1.502-.422-.566 0-1.067.141-1.501.422-.435.279-.776.691-1.023 1.237-.245.543-.367 1.21-.367 2.001 0 .79.122 1.459.367 2.005.247.543.588.955 1.023 1.237.434.278.935.417 1.501.417.567 0 1.067-.139 1.502-.417.434-.282.773-.694 1.018-1.237.247-.546.371-1.215.371-2.005zm14.04-1.695h-1.903c-.055-.313-.155-.589-.301-.83-.146-.244-.327-.451-.544-.621-.218-.17-.465-.297-.743-.382-.275-.088-.572-.132-.891-.132-.567 0-1.069.142-1.507.427-.438.282-.78.696-1.028 1.242-.248.543-.372 1.207-.372 1.991 0 .797.124 1.469.372 2.015.251.543.594.954 1.028 1.232.438.275.938.412 1.502.412.312 0 .604-.04.875-.122.275-.085.521-.209.738-.371.221-.163.406-.364.555-.601.153-.238.258-.509.316-.814l1.903.01c-.071.495-.225.96-.463 1.394-.234.435-.541.818-.921 1.151-.38.329-.825.587-1.334.773-.509.184-1.074.275-1.695.275-.916 0-1.734-.212-2.453-.636s-1.286-1.037-1.7-1.838c-.414-.8-.621-1.761-.621-2.88 0-1.124.209-2.084.626-2.881.417-.801.986-1.414 1.705-1.838s1.534-.636 2.443-.636c.581 0 1.12.081 1.619.244s.943.402 1.333.718c.391.312.711.696.962 1.15.255.452.421.967.499 1.548zm2.705-1.935v-1.583h8.317v1.583h-3.222v8.842h-1.873v-8.842zm20.206 3.63c0 1.123-.21 2.085-.631 2.886-.417.797-.987 1.408-1.71 1.832-.72.424-1.536.636-2.448.636-.913 0-1.731-.212-2.454-.636-.719-.428-1.289-1.04-1.71-1.838-.417-.8-.626-1.761-.626-2.88 0-1.124.209-2.084.626-2.881.421-.801.991-1.414 1.71-1.838.723-.424 1.541-.636 2.454-.636.912 0 1.728.212 2.448.636.723.424 1.293 1.037 1.71 1.838.421.797.631 1.757.631 2.881zm-1.898 0c0-.791-.124-1.458-.372-2.001-.244-.546-.584-.958-1.018-1.237-.434-.281-.935-.422-1.501-.422-.567 0-1.068.141-1.502.422-.434.279-.775.691-1.023 1.237-.244.543-.367 1.21-.367 2.001 0 .79.123 1.459.367 2.005.248.543.589.955 1.023 1.237.434.278.935.417 1.502.417.566 0 1.067-.139 1.501-.417.434-.282.774-.694 1.018-1.237.248-.546.372-1.215.372-2.005zm5.427-5.213h1.848v3.401c0 .441.076.79.229 1.048.156.258.387.443.692.555.306.112.686.168 1.14.168.204 0 .423-.007.657-.021.238-.016.477-.039.718-.066.241-.03.471-.066.692-.107.22-.044.417-.091.59-.142v1.537c-.173.054-.366.104-.58.148s-.439.081-.677.112c-.237.03-.475.054-.712.071-.238.017-.467.025-.688.025-.797 0-1.489-.113-2.076-.341-.584-.23-1.035-.59-1.354-1.079-.319-.488-.479-1.125-.479-1.908zm6.256 0h1.858v10.425h-1.858zm5.589 10.425v-10.425h1.889v4.413h4.83v-4.413h1.893v10.425h-1.893v-4.429h-4.83v4.429zm13.438 0h-2.015l3.669-10.425h2.332l3.675 10.425h-2.016l-2.784-8.287h-.082zm.066-4.088h5.497v1.517h-5.497zm18.097 4.088h-1.894v-8.847h-1.73c-.468 0-.854.07-1.156.209-.298.136-.52.336-.666.601-.143.261-.214.577-.214.946 0 .37.071.682.214.937.142.251.363.443.661.575.302.129.686.194 1.151.194h2.534v1.567h-2.789c-.801 0-1.476-.132-2.026-.397-.549-.268-.967-.646-1.252-1.135-.281-.492-.422-1.072-.422-1.741 0-.665.139-1.247.417-1.745.282-.503.696-.893 1.242-1.171s1.218-.418 2.016-.418h3.914zm-5.39-4.724h2.061l-2.535 4.724h-2.107z" fill="#000" opacity=".6"/><path d="m449.111 793.25h363.104v-84.009h-179.558-183.546z" fill="url(#h)" opacity=".4"/><rect fill="#cacaca" height="8.17935" rx="4.08967" width="8.17935" x="808.39" y="704.464"/><path d="m811.028 709.241h-180.636-181.281" stroke="#cacaca" stroke-width="3.18518"/><path d="m730.984 781.353v19.396l-7.234-7.261-3.176 3.149 12.704 12.677 12.678-12.677-3.122-3.149-7.262 7.261v-19.396z" fill="#cacaca"/><path d="m766.505 809.944c-2.335-.009-4.344-.583-6.027-1.724-1.674-1.14-2.963-2.791-3.868-4.954-.896-2.162-1.339-4.764-1.33-7.804 0-3.032.447-5.615 1.343-7.751.905-2.135 2.195-3.759 3.869-4.872 1.683-1.123 3.687-1.684 6.013-1.684 2.325 0 4.325.561 5.999 1.684 1.683 1.122 2.977 2.75 3.882 4.886.905 2.126 1.353 4.705 1.344 7.737 0 3.049-.453 5.655-1.358 7.818-.895 2.163-2.18 3.814-3.854 4.954s-3.679 1.71-6.013 1.71zm0-4.872c1.592 0 2.864-.801 3.814-2.403s1.42-4.004 1.411-7.207c0-2.109-.217-3.864-.651-5.267-.425-1.402-1.032-2.457-1.819-3.162-.778-.706-1.697-1.059-2.755-1.059-1.584 0-2.851.792-3.801 2.375-.95 1.584-1.43 3.955-1.439 7.113 0 2.135.213 3.918.638 5.348.435 1.42 1.045 2.488 1.833 3.203.787.706 1.71 1.059 2.769 1.059zm30.239-.951v-1.466c0-1.113.235-2.135.706-3.067.479-.941 1.172-1.692 2.077-2.253.914-.57 2.027-.855 3.339-.855 1.33 0 2.447.28 3.352.841.914.561 1.602 1.312 2.063 2.253.471.932.706 1.959.706 3.081v1.466c0 1.113-.235 2.14-.706 3.081-.47.933-1.162 1.679-2.076 2.24-.914.57-2.027.855-3.339.855-1.331 0-2.448-.285-3.353-.855-.905-.561-1.593-1.307-2.063-2.24-.471-.941-.706-1.968-.706-3.081zm3.95-1.466v1.466c0 .643.154 1.249.461 1.819.317.57.887.855 1.711.855.823 0 1.384-.28 1.683-.841.307-.561.461-1.172.461-1.833v-1.466c0-.66-.145-1.275-.434-1.845-.29-.571-.86-.856-1.71-.856-.815 0-1.38.285-1.697.856-.317.57-.475 1.185-.475 1.845zm-18.215-14.441v-1.466c0-1.122.239-2.149.719-3.081.48-.942 1.172-1.693 2.077-2.254.914-.561 2.018-.841 3.312-.841 1.339 0 2.461.28 3.366.841s1.592 1.312 2.063 2.254c.47.932.706 1.959.706 3.081v1.466c0 1.122-.24 2.149-.72 3.081-.47.932-1.162 1.678-2.076 2.239-.905.552-2.018.828-3.339.828-1.322 0-2.439-.28-3.353-.841-.905-.57-1.593-1.317-2.063-2.24-.462-.932-.692-1.954-.692-3.067zm3.977-1.466v1.466c0 .66.153 1.271.461 1.832.317.561.873.841 1.67.841.832 0 1.398-.28 1.696-.841.308-.561.462-1.172.462-1.832v-1.466c0-.661-.145-1.276-.435-1.846-.289-.57-.864-.855-1.723-.855-.806 0-1.362.289-1.67.868s-.461 1.19-.461 1.833zm-2.186 22.585 19.111-27.797h3.557l-19.112 27.797z" fill="#000"/><path d="m454.772 695.397c-.983-.004-1.823-.263-2.52-.778-.696-.514-1.229-1.262-1.598-2.245s-.554-2.167-.554-3.553c0-1.381.185-2.561.554-3.539.373-.979.908-1.726 1.605-2.24.701-.514 1.538-.771 2.513-.771s1.81.259 2.507.777c.697.515 1.23 1.261 1.599 2.24.373.974.56 2.152.56 3.533 0 1.39-.185 2.576-.554 3.559-.369.979-.902 1.727-1.599 2.246-.696.514-1.534.771-2.513.771zm0-1.661c.863 0 1.537-.421 2.022-1.263.489-.842.734-2.059.734-3.652 0-1.057-.112-1.951-.336-2.681-.22-.734-.537-1.29-.952-1.667-.41-.382-.9-.572-1.468-.572-.858 0-1.532.423-2.022 1.269-.489.846-.736 2.063-.74 3.651 0 1.062.11 1.96.33 2.694.224.73.541 1.284.951 1.661.411.373.905.56 1.481.56zm8.678-.292-.093.678c-.062.497-.168 1.016-.317 1.555-.145.543-.297 1.047-.454 1.512-.154.464-.28.833-.38 1.107h-1.319c.054-.257.129-.605.224-1.045.096-.436.189-.923.28-1.462.092-.539.16-1.089.206-1.649l.062-.696zm2.158-.747v-1.555l5.505-8.697h1.226v2.289h-.778l-3.938 6.234v.099h7.546v1.63zm6.04 2.489v-2.962l.013-.709v-9.07h1.823v12.741z" fill="#cfcfcf"/><path d="m792.605 695.397c-.983-.004-1.823-.263-2.52-.778-.696-.514-1.229-1.262-1.598-2.245-.37-.983-.554-2.167-.554-3.553 0-1.381.184-2.561.554-3.539.373-.979.908-1.726 1.605-2.24.7-.514 1.538-.771 2.513-.771.974 0 1.81.259 2.507.777.697.515 1.23 1.261 1.599 2.24.373.974.56 2.152.56 3.533 0 1.39-.185 2.576-.554 3.559-.369.979-.902 1.727-1.599 2.246-.697.514-1.534.771-2.513.771zm0-1.661c.863 0 1.536-.421 2.022-1.263.489-.842.734-2.059.734-3.652 0-1.057-.112-1.951-.336-2.681-.22-.734-.537-1.29-.952-1.667-.411-.382-.9-.572-1.468-.572-.859 0-1.533.423-2.022 1.269s-.736 2.063-.74 3.651c0 1.062.11 1.96.329 2.694.224.73.542 1.284.952 1.661.411.373.904.56 1.481.56zm8.678-.292-.093.678c-.062.497-.168 1.016-.317 1.555-.145.543-.297 1.047-.454 1.512-.154.464-.28.833-.38 1.107h-1.319c.054-.257.129-.605.224-1.045.096-.436.189-.923.28-1.462s.16-1.089.205-1.649l.063-.696zm2.158-.747v-1.555l5.505-8.697h1.226v2.289h-.778l-3.938 6.234v.099h7.546v1.63zm6.04 2.489v-2.962l.013-.709v-9.07h1.822v12.741z" fill="#cfcfcf"/></svg>