<svg fill="none" height="525" viewBox="0 0 860 525" width="860" xmlns="http://www.w3.org/2000/svg" xmlns:xlink="http://www.w3.org/1999/xlink"><linearGradient id="a" gradientUnits="userSpaceOnUse" x1="430" x2="430" y1="-96.928" y2="350.426"><stop offset="0" stop-color="#04b34a"/><stop offset=".0666667" stop-color="#04b34a" stop-opacity=".991353"/><stop offset=".133333" stop-color="#04b34a" stop-opacity=".96449"/><stop offset=".2" stop-color="#04b34a" stop-opacity=".91834"/><stop offset=".266667" stop-color="#04b34a" stop-opacity=".852589"/><stop offset=".333333" stop-color="#04b34a" stop-opacity=".768225"/><stop offset=".4" stop-color="#04b34a" stop-opacity=".668116"/><stop offset=".466667" stop-color="#04b34a" stop-opacity=".557309"/><stop offset=".533333" stop-color="#04b34a" stop-opacity=".442691"/><stop offset=".6" stop-color="#04b34a" stop-opacity=".331884"/><stop offset=".666667" stop-color="#04b34a" stop-opacity=".231775"/><stop offset=".733333" stop-color="#04b34a" stop-opacity=".147411"/><stop offset=".8" stop-color="#04b34a" stop-opacity=".08166"/><stop offset=".866667" stop-color="#04b34a" stop-opacity=".03551"/><stop offset=".933333" stop-color="#04b34a" stop-opacity=".01"/><stop offset="1" stop-color="#04b34a" stop-opacity="0"/></linearGradient><path d="m0 .852051h860v524h-860z" fill="#fff"/><rect fill="#f7f7f7" height="337.63" rx="19.9074" width="828.148" x="15.9258" y="15.7788"/><path d="m52.0587 47.1551h-4.4588c-.0814-.5769-.2477-1.0892-.4988-1.5372-.2511-.4547-.5735-.8415-.9671-1.1605-.3936-.3189-.8483-.5633-1.3641-.7329-.509-.1697-1.0621-.2545-1.6593-.2545-1.0791 0-2.0191.268-2.8199.8042-.8008.5293-1.4218 1.303-1.8629 2.321-.4411 1.0112-.6617 2.2396-.6617 3.6851 0 1.4863.2206 2.7351.6617 3.7463.4479 1.0112 1.0723 1.7747 1.8731 2.2904.8008.5158 1.7272.7737 2.7791.7737.5905 0 1.1368-.078 1.639-.2341.509-.1561.9603-.3835 1.3539-.6821.3936-.3054.7194-.6752.9773-1.1096.2647-.4343.4479-.9298.5497-1.4863l4.4588.0204c-.1154.9569-.4038 1.8799-.8653 2.7689-.4547.8823-1.0689 1.6729-1.8425 2.372-.7669.6922-1.6831 1.2419-2.7486 1.6491-1.0587.4004-2.2566.6006-3.5935.6006-1.8596 0-3.5223-.4207-4.9882-1.2623-1.4591-.8415-2.6129-2.0597-3.4612-3.6546-.8415-1.5948-1.2623-3.5256-1.2623-5.7924 0-2.2735.4276-4.2077 1.2827-5.8025.8551-1.5949 2.0156-2.8097 3.4815-3.6444 1.4659-.8416 3.1151-1.2623 4.9475-1.2623 1.208 0 2.3278.1696 3.3593.509 1.0384.3393 1.958.8347 2.7588 1.4862.8008.6448 1.4523 1.4354 1.9545 2.372.509.9365.8348 2.0088.9773 3.2168zm4.8061 19.4131c-.5498 0-1.0655-.0441-1.5474-.1323-.4751-.0815-.8687-.1866-1.1809-.3156l.9773-3.2372c.509.1561.9671.2409 1.3743.2545.414.0136.7703-.0814 1.0689-.285.3054-.2036.5531-.5498.7431-1.0384l.2545-.6617-5.6091-16.0843h4.5606l3.2372 11.483h.1629l3.2677-11.483h4.5912l-6.0774 17.3263c-.2919.8415-.6889 1.5745-1.1911 2.1988-.4954.6312-1.1232 1.1164-1.8833 1.4558-.7601.3461-1.6763.5191-2.7485.5191zm25.9726-27.2415 1.3234 2.8301c-.4411.3664-.9298.6379-1.4659.8144-.5362.1696-1.1775.2816-1.924.3359-.7398.0543-1.6424.0916-2.7079.112-1.208.0136-2.1921.207-2.9522.5802-.7601.3733-1.3369.9603-1.7305 1.7612-.3937.794-.6516 1.8323-.7737 3.115h.1527c.4683-.9569 1.1266-1.6966 1.9749-2.2192.8551-.5226 1.9104-.7839 3.1659-.7839 1.3302 0 2.4941.2919 3.4918.8755 1.0044.5837 1.7848 1.4218 2.3413 2.5145.5565 1.0926.8348 2.4024.8348 3.9294 0 1.5881-.3122 2.9692-.9366 4.1432-.6175 1.1673-1.4964 2.0733-2.6366 2.7181-1.1401.6379-2.4974.9569-4.0719.9569-1.5813 0-2.9454-.3326-4.0924-.9976-1.1401-.6651-2.0224-1.6458-2.6467-2.942-.6176-1.2963-.9264-2.8911-.9264-4.7846v-1.2827c0-3.7665.7329-6.5592 2.1989-8.3781 1.4659-1.8188 3.6206-2.7417 6.4642-2.7689.7737-.0136 1.4727-.017 2.0971-.0102.6243.0068 1.1707-.0237 1.6389-.0916.4751-.0679.8687-.2104 1.1809-.4276zm-5.8942 18.3239c.6651 0 1.2352-.173 1.7103-.5192.4818-.3461.8517-.8415 1.1096-1.4862.2646-.6448.397-1.415.397-2.3109 0-.889-.1324-1.6423-.397-2.2599-.2579-.6244-.6278-1.0995-1.1096-1.4252-.4819-.3258-1.0588-.4886-1.7306-.4886-.5022 0-.9535.0916-1.354.2748-.4004.1833-.7431.4547-1.0281.8144-.2783.3529-.4955.7906-.6515 1.3132-.1494.5158-.224 1.1062-.224 1.7713 0 1.337.2884 2.3923.8653 3.166.5836.7669 1.3879 1.1503 2.4126 1.1503zm16.4214 3.3594c-1.6017 0-2.9794-.3393-4.1331-1.018-1.1469-.6855-2.0292-1.6356-2.6468-2.8504-.6108-1.2148-.9162-2.6128-.9162-4.1941 0-1.6017.3088-3.0065.9264-4.2145.6244-1.2148 1.51-2.1615 2.657-2.8402 1.1469-.6854 2.511-1.0282 4.0923-1.0282 1.3641 0 2.5586.2477 3.5833.7432 1.0248.4954 1.8358 1.191 2.433 2.0868.5973.8959.9265 1.9478.9875 3.1558h-4.0923c-.1154-.7804-.4208-1.4082-.9162-1.8833-.4887-.4818-1.13-.7227-1.924-.7227-.6719 0-1.2589.1832-1.7612.5497-.4954.3597-.8822.8856-1.1605 1.5779-.2782.6922-.4173 1.5303-.4173 2.5144 0 .9976.1357 1.846.4072 2.545.2782.699.6684 1.2318 1.1706 1.5982.5023.3665 1.0893.5498 1.7612.5498.4954 0 .9399-.1018 1.3335-.3054.4004-.2036.7296-.4989.9875-.8857.2647-.3936.4377-.8653.5192-1.415h4.0923c-.068 1.1944-.3936 2.2464-.9773 3.1558-.5768.9026-1.3743 1.6084-2.3923 2.1174-1.0179.509-2.2226.7635-3.6138.7635zm12.7564-6.0265 5.63-9.9153h4.275v15.6364h-4.133v-9.9458l-5.609 9.9458h-4.306v-15.6364h4.143zm11.013 10.3021v-8.0218h1.202c.346-.2172.624-.5633.834-1.0384.218-.475.394-1.0349.53-1.6797.142-.6447.251-1.3403.325-2.0868.082-.7534.153-1.5135.214-2.2804l.407-5.1103h11.992v12.1956h2.423v8.0218h-4.133v-4.581h-9.559v4.581zm5.518-8.0218h5.894v-8.8566h-4.214l-.163 1.7713c-.116 1.6696-.282 3.088-.499 4.2553-.217 1.1605-.557 2.1038-1.018 2.83zm17.933-2.2803 5.629-9.9153h4.276v15.6364h-4.133v-9.9458l-5.609 9.9458h-4.306v-15.6364h4.143zm12.235 11.5847v-21.5h4.275v2.6264h.194c.19-.4207.465-.8483.824-1.2826.367-.4412.842-.8076 1.426-1.0995.59-.2986 1.323-.4479 2.198-.4479 1.141 0 2.192.2986 3.156.8959.964.5904 1.734 1.4828 2.311 2.6773.577 1.1876.865 2.6773.865 4.469 0 1.7441-.281 3.2168-.845 4.4181-.556 1.1944-1.316 2.1004-2.28 2.718-.957.6108-2.029.9162-3.217.9162-.841 0-1.557-.1391-2.148-.4174-.583-.2782-1.062-.6278-1.435-1.0485-.373-.4276-.658-.8585-.855-1.2929h-.133v8.3679zm4.245-13.6818c0 .9298.129 1.7408.387 2.433s.631 1.2318 1.119 1.6186c.489.3801 1.083.5701 1.782.5701.706 0 1.303-.1934 1.792-.5803.488-.3936.858-.9365 1.109-1.6287.258-.6991.387-1.5033.387-2.4127 0-.9026-.125-1.6966-.377-2.3821-.251-.6854-.621-1.2216-1.109-1.6084-.489-.3869-1.089-.5803-1.802-.5803-.706 0-1.303.1867-1.792.5599-.482.3733-.851.9026-1.109 1.5881-.258.6854-.387 1.493-.387 2.4228zm19.814 8.1236c-1.582 0-2.949-.3359-4.103-1.0078-1.147-.6787-2.032-1.622-2.657-2.83-.624-1.2148-.936-2.6231-.936-4.2247 0-1.6152.312-3.0268.936-4.2349.625-1.2148 1.51-2.1581 2.657-2.83 1.154-.6786 2.521-1.018 4.103-1.018 1.581 0 2.945.3394 4.092 1.018 1.154.6719 2.043 1.6152 2.667 2.83.624 1.2081.937 2.6197.937 4.2349 0 1.6016-.313 3.0099-.937 4.2247-.624 1.208-1.513 2.1513-2.667 2.83-1.147.6719-2.511 1.0078-4.092 1.0078zm.02-3.3594c.719 0 1.32-.2036 1.802-.6108.482-.414.845-.9773 1.089-1.6899.251-.7125.377-1.5235.377-2.433 0-.9094-.126-1.7204-.377-2.433-.244-.7125-.607-1.2758-1.089-1.6898s-1.083-.621-1.802-.621c-.726 0-1.337.207-1.832.621-.489.414-.859.9773-1.11 1.6898-.244.7126-.366 1.5236-.366 2.433 0 .9095.122 1.7205.366 2.433.251.7126.621 1.2759 1.11 1.6899.495.4072 1.106.6108 1.832.6108zm9.349 3.054v-15.6364h6.668c1.927 0 3.451.3665 4.57 1.0995 1.12.7329 1.68 1.7747 1.68 3.1252 0 .8483-.315 1.5541-.947 2.1174-.631.5633-1.506.9434-2.626 1.1402.937.0678 1.734.2816 2.392.6413.665.3529 1.171.811 1.517 1.3743.353.5633.529 1.1877.529 1.8731 0 .889-.237 1.6525-.712 2.2905-.468.6379-1.157 1.1266-2.067 1.4659-.902.3393-2.005.509-3.308.509zm4.041-3.2474h3.655c.604 0 1.076-.1425 1.415-.4276.346-.2918.519-.6888.519-1.191 0-.5565-.173-.9943-.519-1.3132-.339-.319-.811-.4785-1.415-.4785h-3.655zm0-5.9553h2.718c.435 0 .804-.061 1.11-.1832.312-.1289.55-.3122.712-.5497.17-.2375.255-.5192.255-.8449 0-.4819-.193-.8586-.58-1.13-.387-.2715-.916-.4072-1.588-.4072h-2.627zm15.788 9.4979c-.998 0-1.887-.1731-2.667-.5192-.781-.3529-1.398-.872-1.853-1.5575-.448-.6922-.672-1.5541-.672-2.5857 0-.8687.16-1.5982.479-2.1887.319-.5904.753-1.0655 1.303-1.4252.549-.3597 1.174-.6311 1.873-.8144.706-.1832 1.445-.3121 2.219-.3868.909-.095 1.642-.1832 2.199-.2647.556-.0882.96-.2172 1.211-.3868.251-.1697.377-.4208.377-.7533v-.0611c0-.6447-.204-1.1436-.611-1.4965-.4-.3529-.97-.5293-1.71-.5293-.781 0-1.402.173-1.863.5192-.462.3393-.767.7668-.916 1.2826l-4.011-.3257c.203-.9502.604-1.7713 1.201-2.4636.597-.699 1.368-1.2351 2.311-1.6084.95-.38 2.049-.5701 3.298-.5701.869 0 1.7.1018 2.494.3054.801.2036 1.51.5192 2.128.9468.624.4275 1.116.9772 1.476 1.6491.36.6651.54 1.4625.54 2.3923v10.5464h-4.113v-2.1683h-.122c-.251.4886-.587.9196-1.008 1.2928-.421.3665-.927.6549-1.517.8653-.59.2036-1.272.3054-2.046.3054zm1.242-2.9929c.638 0 1.201-.1255 1.69-.3766.488-.2579.872-.6041 1.15-1.0384s.417-.9264.417-1.4761v-1.6593c-.135.0882-.322.1696-.559.2443-.231.0679-.493.1323-.784.1934-.292.0543-.584.1052-.876.1527-.292.0407-.556.0781-.794.112-.509.0747-.953.1934-1.333.3563s-.676.3834-.886.6617c-.21.2715-.316.6108-.316 1.018 0 .5904.214 1.0417.642 1.3539.434.3054.984.4581 1.649.4581zm20.664-6.8511v3.4103h-8.165v-3.4103zm-6.739-6.0876v15.6364h-4.144v-15.6364zm9.457 0v15.6364h-4.113v-15.6364zm13.1 6.0876v3.4103h-8.164v-3.4103zm-6.739-6.0876v15.6364h-4.144v-15.6364zm9.457 0v15.6364h-4.113v-15.6364zm4.936 4.805h4.672c2.07 0 3.685.4954 4.846 1.4862 1.16.9841 1.741 2.3007 1.741 3.9498 0 1.0723-.262 2.0157-.784 2.83-.523.8077-1.276 1.4388-2.26 1.8935-.984.4479-2.165.6719-3.543.6719h-7.39v-15.6364h4.143v12.2261h3.247c.726 0 1.324-.1832 1.792-.5497s.706-.8348.713-1.4048c-.007-.604-.245-1.0961-.713-1.4761-.468-.3869-1.066-.5803-1.792-.5803h-4.672zm12.938 10.8314v-15.6364h4.337v15.6364zm13.783.3054c-1.609 0-2.993-.3258-4.154-.9773-1.154-.6583-2.043-1.5881-2.667-2.7893-.624-1.208-.937-2.6366-.937-4.2857 0-1.6085.313-3.0201.937-4.2349s1.503-2.1615 2.637-2.8402c1.14-.6786 2.477-1.018 4.011-1.018 1.031 0 1.991.1663 2.88.4988.896.3258 1.677.8178 2.342 1.4761.672.6583 1.194 1.4863 1.568 2.4839.373.9909.559 2.1514.559 3.4816v1.191h-13.203v-2.6875h9.121c0-.6243-.135-1.1775-.407-1.6593-.271-.4819-.648-.8585-1.13-1.13-.475-.2782-1.028-.4174-1.659-.4174-.659 0-1.242.1527-1.751.4581-.502.2987-.896.7025-1.181 1.2115-.285.5022-.431 1.0621-.438 1.6796v2.5552c0 .7737.143 1.4422.428 2.0054.292.5633.702.9977 1.232 1.3031.529.3054 1.157.4581 1.883.4581.482 0 .923-.0679 1.323-.2036.401-.1358.743-.3394 1.028-.6108.285-.2715.503-.604.652-.9977l4.011.2647c-.204.9637-.621 1.8053-1.252 2.5246-.625.7126-1.432 1.2691-2.423 1.6696-.984.3936-2.121.5904-3.41.5904zm18.491-6.0265 5.63-9.9153h4.275v15.6364h-4.133v-9.9458l-5.609 9.9458h-4.306v-15.6364h4.143zm12.235 5.7211v-15.6364h13.672v15.6364h-4.144v-12.2261h-5.436v12.2261zm23.051.3054c-1.581 0-2.949-.3359-4.103-1.0078-1.146-.6787-2.032-1.622-2.656-2.83-.625-1.2148-.937-2.6231-.937-4.2247 0-1.6152.312-3.0268.937-4.2349.624-1.2148 1.51-2.1581 2.656-2.83 1.154-.6786 2.522-1.018 4.103-1.018s2.945.3394 4.092 1.018c1.154.6719 2.043 1.6152 2.667 2.83.625 1.2081.937 2.6197.937 4.2349 0 1.6016-.312 3.0099-.937 4.2247-.624 1.208-1.513 2.1513-2.667 2.83-1.147.6719-2.511 1.0078-4.092 1.0078zm.02-3.3594c.72 0 1.32-.2036 1.802-.6108.482-.414.845-.9773 1.089-1.6899.252-.7125.377-1.5235.377-2.433 0-.9094-.125-1.7204-.377-2.433-.244-.7125-.607-1.2758-1.089-1.6898s-1.082-.621-1.802-.621c-.726 0-1.337.207-1.832.621-.489.414-.859.9773-1.11 1.6898-.244.7126-.366 1.5236-.366 2.433 0 .9095.122 1.7205.366 2.433.251.7126.621 1.2759 1.11 1.6899.495.4072 1.106.6108 1.832.6108zm7.835-9.1721v-3.4103h14.17v3.4103h-5.039v12.2261h-4.133v-12.2261zm22.219 12.5315c-1.609 0-2.993-.3258-4.154-.9773-1.153-.6583-2.042-1.5881-2.667-2.7893-.624-1.208-.936-2.6366-.936-4.2857 0-1.6085.312-3.0201.936-4.2349.625-1.2148 1.503-2.1615 2.637-2.8402 1.14-.6786 2.477-1.018 4.011-1.018 1.031 0 1.992.1663 2.881.4988.895.3258 1.676.8178 2.341 1.4761.672.6583 1.194 1.4863 1.568 2.4839.373.9909.56 2.1514.56 3.4816v1.191h-13.204v-2.6875h9.121c0-.6243-.135-1.1775-.407-1.6593-.271-.4819-.648-.8585-1.13-1.13-.475-.2782-1.028-.4174-1.659-.4174-.658 0-1.242.1527-1.751.4581-.502.2987-.896.7025-1.181 1.2115-.285.5022-.431 1.0621-.438 1.6796v2.5552c0 .7737.143 1.4422.428 2.0054.292.5633.702.9977 1.232 1.3031.529.3054 1.157.4581 1.883.4581.482 0 .923-.0679 1.323-.2036.401-.1358.743-.3394 1.029-.6108.285-.2715.502-.604.651-.9977l4.011.2647c-.204.9637-.621 1.8053-1.252 2.5246-.625.7126-1.432 1.2691-2.423 1.6696-.984.3936-2.121.5904-3.41.5904zm8.86-.3054v-15.6364h4.337v6.0673h1.221l4.255-6.0673h5.09l-5.527 7.7571 5.588 7.8793h-5.151l-3.858-5.5481h-1.618v5.5481zm19.793-5.7211 5.63-9.9153h4.275v15.6364h-4.133v-9.9458l-5.609 9.9458h-4.306v-15.6364h4.143z" fill="#000"/><path d="m420.289 60.6899v-14.5471l-5.425 5.4462-2.383-2.3617 9.529-9.5081 9.508 9.5081-2.341 2.3617-5.447-5.4462v14.5471z" fill="#04b34a"/><path d="m450.378 60.9896c-1.439 0-2.721-.2647-3.848-.794-1.12-.5294-2.009-1.2589-2.667-2.1887s-1.001-1.9953-1.028-3.1965h4.275c.048.8076.387 1.4625 1.018 1.9647.632.5022 1.381.7534 2.25.7534.692 0 1.303-.1527 1.833-.4581.536-.3122.953-.7432 1.252-1.2929.305-.5565.458-1.1944.458-1.9138 0-.733-.156-1.3777-.468-1.9342-.306-.5565-.73-.9909-1.273-1.303-.543-.3122-1.164-.4717-1.863-.4785-.611 0-1.205.1256-1.781.3767-.57.2511-1.015.5938-1.334 1.0281l-3.919-.7024.987-10.9943h12.745v3.6037h-9.111l-.539 5.2223h.122c.367-.5158.92-.9433 1.659-1.2827.74-.3393 1.568-.509 2.484-.509 1.256 0 2.376.2953 3.36.8857s1.761 1.4014 2.331 2.433c.57 1.0248.852 2.2056.845 3.5426.007 1.4048-.319 2.6536-.977 3.7462-.652 1.0859-1.565 1.941-2.739 2.5654-1.167.6175-2.524.9263-4.072.9263zm13.798-3.1354-.112 1.1198c-.089.8958-.258 1.7883-.509 2.6773-.245.8959-.503 1.7069-.774 2.433-.265.7262-.478 1.2963-.641 1.7103h-2.81c.102-.4005.241-.9604.417-1.6797.177-.7126.343-1.5135.499-2.4025s.255-1.7951.295-2.718l.051-1.1402zm9.244-17.9981v20.8485h-4.408v-16.6645h-.122l-4.774 2.9929v-3.9091l5.161-3.2678zm15.22 16.9394v-1.0994c0-.8348.177-1.6017.53-2.3007.359-.7058.878-1.2691 1.557-1.6899.686-.4275 1.52-.6413 2.504-.6413.998 0 1.836.2104 2.515.6312.685.4207 1.201.984 1.547 1.6898.353.699.53 1.4693.53 2.3109v1.0994c0 .8348-.177 1.605-.53 2.3108-.353.6991-.872 1.259-1.557 1.6797-.686.4276-1.521.6414-2.505.6414-.997 0-1.835-.2138-2.514-.6414-.679-.4207-1.194-.9806-1.547-1.6797-.353-.7058-.53-1.476-.53-2.3108zm2.963-1.0994v1.0994c0 .4818.115.9366.346 1.3641.237.4276.665.6413 1.282.6413.618 0 1.039-.2103 1.263-.6311.23-.4208.346-.8789.346-1.3743v-1.0994c0-.4955-.109-.9569-.326-1.3845s-.645-.6413-1.283-.6413c-.61 0-1.035.2137-1.272.6413-.238.4276-.356.889-.356 1.3845zm-13.662-10.8315v-1.0994c0-.8415.18-1.6118.54-2.3108.359-.7059.879-1.2691 1.557-1.6899.686-.4208 1.514-.6312 2.484-.6312 1.005 0 1.846.2104 2.525.6312.678.4208 1.194.984 1.547 1.6899.353.699.529 1.4693.529 2.3108v1.0994c0 .8416-.179 1.6118-.539 2.3109-.353.699-.872 1.2589-1.558 1.6797-.678.4139-1.513.6209-2.504.6209s-1.829-.2104-2.514-.6311c-.679-.4276-1.195-.9875-1.548-1.6797-.346-.699-.519-1.4659-.519-2.3007zm2.983-1.0994v1.0994c0 .4955.115.9535.346 1.3743.238.4208.655.6312 1.252.6312.624 0 1.049-.2104 1.273-.6312.23-.4208.346-.8788.346-1.3743v-1.0994c0-.4954-.109-.9569-.326-1.3845-.217-.4275-.648-.6413-1.293-.6413-.604 0-1.021.2172-1.252.6515s-.346.8924-.346 1.3743zm-1.639 16.9394 14.333-20.8485h2.667l-14.333 20.8485z" fill="#000"/><path d="m828.148 338.482h-796.2963v-148.931l392.9253-27.435 403.371-68.097z" fill="url(#a)" opacity=".4"/><rect fill="#04b34a" height="8.17935" rx="4.08967" width="8.17935" x="823.37" y="89.2412"/><rect fill="#fff" height="7.96296" rx="3.98148" stroke="#04b34a" stroke-width="3.18518" width="7.96296" x="28.6662" y="185.593"/><path d="m824.167 94.019-392.575 66.491-394.5643 29.065" stroke="#04b34a" stroke-width="3.18518"/><path d="m37.6762 176.863c-.8106 0-1.527-.14-2.1491-.419-.6183-.279-1.1028-.663-1.4535-1.153-.3506-.49-.5241-1.048-.5203-1.674-.0038-.49.0962-.941.2998-1.352.2073-.415.4882-.76.8426-1.035.3544-.279.7503-.456 1.1877-.532v-.067c-.5769-.14-1.0387-.449-1.3856-.928s-.5184-1.029-.5147-1.651c-.0037-.592.1527-1.12.4694-1.584.3205-.467.7598-.835 1.3178-1.103.558-.267 1.1933-.401 1.9059-.401.705 0 1.3347.135 1.8889.407.558.268.9973.635 1.3178 1.103.3204.464.4826.989.4863 1.578-.0037.622-.1809 1.172-.5316 1.651-.3506.479-.8068.788-1.3686.928v.067c.4336.076.8238.253 1.1707.532.3506.275.6296.62.837 1.035.2111.411.3186.862.3224 1.352-.0038.626-.181 1.184-.5317 1.674-.3506.49-.837.874-1.4591 1.153-.6183.279-1.329.419-2.1321.419zm0-1.431c.4788 0 .8936-.079 1.2442-.237.3506-.163.6221-.387.8144-.673.1923-.291.2903-.63.2941-1.018-.0038-.404-.1094-.76-.3167-1.069-.2036-.309-.4807-.553-.8314-.73-.3506-.177-.7522-.266-1.2046-.266-.4562 0-.8615.089-1.2159.266-.3545.177-.6335.421-.8371.73s-.3035.665-.2997 1.069c-.0038.388.0886.727.2771 1.018.1923.286.4657.51.8201.673.3544.158.7729.237 1.2555.237zm0-5.39c.3846 0 .7258-.077 1.0236-.231.2979-.155.5317-.37.7013-.645.1735-.275.2621-.598.2658-.967-.0037-.362-.0905-.679-.2601-.95-.1659-.272-.3978-.481-.6957-.628-.2978-.151-.6428-.226-1.0349-.226-.3997 0-.7503.075-1.0519.226-.2979.147-.5298.356-.6957.628-.1659.271-.2469.588-.2432.95-.0037.369.0792.692.2489.967s.4034.49.7013.645c.3016.154.6485.231 1.0406.231zm7.8522 5.079-.0848.616c-.0566.453-.1527.924-.2885 1.414-.1319.494-.2696.952-.4128 1.375-.1395.422-.2545.758-.345 1.006h-1.199c.049-.233.1169-.55.2036-.95.0867-.396.1716-.839.2545-1.329.083-.49.1452-.99.1866-1.499l.0566-.633zm5.1828-9.999v11.583h-1.7532v-9.83h-.0679l-2.7712 1.81v-1.674l2.89-1.889z" fill="#cfcfcf"/><path d="m425.41 135.5c.516.004 1.025.098 1.527.283.501.185.954.487 1.357.905.407.419.732.984.973 1.697.245.709.369 1.591.373 2.646 0 1.015-.102 1.918-.305 2.709-.204.788-.496 1.454-.877 1.997-.377.543-.835.956-1.374 1.238-.539.283-1.146.425-1.821.425-.69 0-1.303-.136-1.838-.408-.536-.271-.971-.646-1.307-1.125-.335-.483-.544-1.037-.627-1.663h1.725c.113.498.343.901.69 1.21.35.306.803.459 1.357.459.848 0 1.51-.37 1.985-1.109.475-.743.714-1.78.718-3.11h-.09c-.196.324-.441.603-.736.837-.29.233-.616.414-.978.543-.362.128-.748.192-1.159.192-.668 0-1.275-.164-1.821-.492-.547-.328-.983-.779-1.307-1.352s-.486-1.227-.486-1.962c0-.732.166-1.395.497-1.991.336-.596.804-1.067 1.403-1.414.603-.351 1.31-.522 2.121-.515zm.006 1.471c-.442 0-.839.109-1.194.328-.35.215-.628.507-.831.876-.204.366-.306.773-.306 1.222s.098.856.295 1.222c.199.362.471.65.814.865.347.211.743.317 1.188.317.331 0 .641-.064.927-.193.287-.128.537-.305.752-.531.215-.23.383-.49.504-.781.12-.29.181-.595.181-.916 0-.426-.102-.822-.306-1.188-.2-.365-.475-.659-.825-.882-.351-.226-.751-.339-1.199-.339zm7.893 8.687-.085.616c-.057.453-.153.924-.289 1.414-.131.494-.269.952-.412 1.374-.14.423-.255.758-.345 1.007h-1.199c.049-.234.117-.551.203-.95.087-.396.172-.839.255-1.329s.145-.99.186-1.499l.057-.633zm2.283 1.583 5.056-9.999v-.085h-5.848v-1.498h7.657v1.549l-5.039 10.033z" fill="#cfcfcf"/><path d="m802.6 69.5664v11.5825h-1.753v-9.8293h-.068l-2.771 1.8098v-1.674l2.89-1.889zm6.989 11.7409c-.777 0-1.471-.1339-2.082-.4016-.607-.2677-1.087-.639-1.442-1.1141-.35-.4788-.539-1.0331-.565-1.6627h1.775c.023.3431.138.6409.345.8936.212.2488.487.4411.826.5768.34.1357.717.2036 1.131.2036.456 0 .86-.0792 1.211-.2375.354-.1584.631-.3789.831-.6617.2-.2866.3-.6165.3-.9897 0-.3884-.1-.7296-.3-1.0237-.196-.2978-.485-.5316-.865-.7013-.377-.1696-.834-.2545-1.369-.2545h-.978v-1.4251h.978c.43 0 .807-.0773 1.131-.2319.328-.1546.584-.3695.769-.6448.185-.279.277-.6051.277-.9784 0-.3581-.081-.6692-.243-.9331-.158-.2677-.384-.477-.678-.6278-.291-.1508-.634-.2262-1.03-.2262-.377 0-.729.0698-1.057.2093-.325.1357-.589.3317-.792.5881-.204.2526-.313.5562-.328.9106h-1.691c.019-.6259.203-1.1764.554-1.6514.354-.4751.822-.8465 1.403-1.1142.58-.2677 1.225-.4015 1.934-.4015.743 0 1.384.1451 1.923.4355.543.2865.961.6692 1.255 1.148.298.4789.445 1.0029.441 1.5723.004.6485-.177 1.1989-.543 1.6514-.362.4524-.844.7559-1.447.9105v.0905c.769.1169 1.364.4223 1.787.9162.426.4939.637 1.1066.633 1.838.004.6372-.173 1.2084-.531 1.7136-.355.5053-.839.903-1.454 1.1934-.614.2865-1.318.4298-2.109.4298zm7.935-1.7419-.085.6164c-.056.4525-.152.9238-.288 1.4139-.132.4939-.27.952-.413 1.3743-.139.4223-.254.7578-.345 1.0067h-1.199c.049-.2338.117-.5505.204-.9501.086-.3959.171-.8389.254-1.3291.083-.4901.145-.9897.187-1.4987l.056-.6334zm2.188 1.5835v-1.2668l3.92-4.0607c.418-.4411.763-.8276 1.035-1.1593.275-.3356.48-.6542.616-.9558.136-.3017.204-.6221.204-.9615 0-.3845-.091-.7163-.272-.9953-.181-.2828-.428-.4996-.741-.6504-.313-.1546-.665-.2319-1.057-.2319-.415 0-.777.0848-1.086.2545s-.547.4091-.713.7183c-.166.3091-.249.6711-.249 1.0858h-1.668c0-.705.162-1.3215.486-1.8493.325-.5279.77-.937 1.335-1.2273.566-.2941 1.209-.4411 1.929-.4411.727 0 1.368.1451 1.923.4355.558.2865.993.6786 1.306 1.1763.313.4939.469 1.0519.469 1.674 0 .4299-.081.8502-.243 1.2612-.158.411-.435.8691-.831 1.3743-.396.5015-.947 1.1104-1.652 1.8267l-2.301 2.4093v.0848h5.214v1.4987z" fill="#cfcfcf"/><rect fill="#fff" height="7.96296" rx="3.98148" stroke="#04b34a" stroke-width="3.18518" width="7.96296" x="427.611" y="156.131"/><g fill="#000"><path d="m34.6146 333.556h-2.0157l3.6699-10.424h2.3312l3.6749 10.424h-2.0156l-2.7842-8.286h-.0814zm.0661-4.087h5.4972v1.517h-5.4972zm18.9059-6.337v10.424h-1.8731v-8.856h-4.5606v8.856h-1.8731v-10.424zm3.692 10.424v-10.424h3.9091c.8008 0 1.4727.149 2.0156.448.5464.298.9587.709 1.2369 1.232.2816.519.4225 1.109.4225 1.771 0 .668-.1409 1.262-.4225 1.781-.2816.52-.6973.928-1.247 1.227-.5498.295-1.2267.443-2.0309.443h-2.5908v-1.553h2.3363c.4682 0 .8517-.081 1.1503-.244s.5192-.387.6617-.672c.1459-.285.2189-.612.2189-.982s-.073-.696-.2189-.977c-.1425-.282-.3648-.501-.6668-.657-.2986-.159-.6837-.239-1.1554-.239h-1.7306v8.846zm10.6576 0v-10.424h6.7799v1.583h-4.8915v2.83h4.5403v1.583h-4.5403v2.845h4.9322v1.583zm9.4628 0v-1.568l.2952-.015c.4004-.024.7177-.168.9518-.432.2376-.265.4123-.691.5243-1.278.1154-.587.1917-1.374.229-2.362l.1731-4.769h6.8307v10.424h-1.8476v-8.872h-3.222l-.1628 3.803c-.0476 1.14-.1731 2.085-.3767 2.835-.2002.75-.5294 1.309-.9875 1.679-.4547.37-1.0875.555-1.8985.555zm13.7739-6.398h2.6468c.7974 0 1.4812.131 2.0513.392.5734.258 1.0129.623 1.3183 1.094.3054.472.4581 1.027.4581 1.665 0 .641-.1527 1.206-.4581 1.695-.3054.485-.7449.865-1.3183 1.14-.5701.275-1.2539.412-2.0513.412h-3.904v-10.424h1.8935v8.877h2.0105c.4208 0 .7771-.08 1.0689-.239.2918-.16.5124-.37.6617-.632.1527-.261.2291-.544.2291-.85 0-.441-.1697-.816-.509-1.124-.336-.313-.8195-.469-1.4507-.469h-2.6468z" opacity=".6"/><path d="m411.991 323.132h2.311l3.094 7.553h.122l3.095-7.553h2.311v10.424h-1.812v-7.161h-.097l-2.881 7.131h-1.354l-2.881-7.147h-.096v7.177h-1.812zm15.761 10.424h-2.015l3.669-10.424h2.332l3.675 10.424h-2.016l-2.784-8.286h-.082zm.066-4.087h5.498v1.517h-5.498zm10.401-6.337h1.873v7.105h.097l4.901-7.105h1.695v10.424h-1.888v-7.1h-.087l-4.916 7.1h-1.675zm5.294-2.688h1.379c0 .594-.216 1.076-.646 1.446-.428.366-1.008.55-1.741.55-.726 0-1.305-.184-1.736-.55-.427-.37-.64-.852-.636-1.446h1.369c0 .245.075.464.224.657.153.19.412.285.779.285.359 0 .616-.095.768-.285.156-.19.236-.409.24-.657z" opacity=".6"/><path d="m779.453 323.132h1.873v7.105h.097l4.901-7.105h1.695v10.424h-1.888v-7.1h-.087l-4.917 7.1h-1.674zm13.946 0v10.424h-1.889v-10.424zm2.254 4.606v1.517h-3.283v-1.517zm8.989.606c0 1.123-.21 2.085-.631 2.886-.417.797-.987 1.408-1.71 1.832-.719.425-1.536.637-2.448.637-.913 0-1.731-.212-2.454-.637-.719-.427-1.289-1.04-1.71-1.837-.417-.801-.626-1.761-.626-2.881 0-1.123.209-2.083.626-2.881.421-.801.991-1.413 1.71-1.837.723-.425 1.541-.637 2.454-.637.912 0 1.729.212 2.448.637.723.424 1.293 1.036 1.71 1.837.421.798.631 1.758.631 2.881zm-1.898 0c0-.791-.124-1.457-.372-2-.244-.547-.583-.959-1.018-1.237-.434-.282-.935-.423-1.501-.423-.567 0-1.068.141-1.502.423-.434.278-.775.69-1.023 1.237-.244.543-.366 1.209-.366 2s.122 1.459.366 2.005c.248.543.589.956 1.023 1.237.434.279.935.418 1.502.418.566 0 1.067-.139 1.501-.418.435-.281.774-.694 1.018-1.237.248-.546.372-1.214.372-2.005zm5.135 5.212v-10.424h1.888v4.413h4.831v-4.413h1.893v10.424h-1.893v-4.428h-4.831v4.428zm13.377-6.398h2.646c.798 0 1.482.131 2.052.392.573.258 1.013.623 1.318 1.094.305.472.458 1.027.458 1.665 0 .641-.153 1.206-.458 1.695-.305.485-.745.865-1.318 1.14-.57.275-1.254.412-2.052.412h-3.904v-10.424h1.894v8.877h2.01c.421 0 .778-.08 1.069-.239.292-.16.513-.37.662-.632.153-.261.229-.544.229-.85 0-.441-.17-.816-.509-1.124-.336-.313-.819-.469-1.451-.469h-2.646z" opacity=".6"/></g><path d="m58.6336 476.63v-48.712l-18.6112 18.786-8.1708-8.146 32.6831-32.798 32.6133 32.798-8.0311 8.146-18.6811-18.786v48.712z" fill="#04b34a" opacity=".8"/><path d="m147.547 406.923v68.337h-14.448v-54.623h-.4l-15.65 9.81v-12.813l16.918-10.711zm36.785 69.838c-5.739-.022-10.677-1.434-14.815-4.237-4.115-2.803-7.285-6.863-9.51-12.18-2.202-5.316-3.292-11.712-3.27-19.186 0-7.452 1.101-13.803 3.304-19.053 2.224-5.25 5.394-9.243 9.509-11.979 4.138-2.758 9.065-4.137 14.782-4.137s10.633 1.379 14.749 4.137c4.137 2.759 7.318 6.763 9.543 12.013 2.224 5.227 3.325 11.567 3.303 19.019 0 7.497-1.112 13.903-3.337 19.22-2.202 5.316-5.361 9.376-9.476 12.179s-9.043 4.204-14.782 4.204zm0-11.979c3.915 0 7.041-1.968 9.376-5.906 2.336-3.937 3.493-9.843 3.471-17.718 0-5.183-.534-9.498-1.602-12.946-1.046-3.448-2.536-6.04-4.471-7.775-1.913-1.735-4.171-2.603-6.774-2.603-3.893 0-7.007 1.947-9.343 5.84-2.335 3.892-3.514 9.721-3.537 17.484 0 5.25.523 9.632 1.569 13.147 1.067 3.492 2.569 6.117 4.504 7.875 1.935 1.735 4.204 2.602 6.807 2.602zm69.051-2.335v-3.604c0-2.736.579-5.25 1.736-7.541 1.178-2.314 2.88-4.16 5.105-5.539 2.246-1.402 4.983-2.102 8.208-2.102 3.27 0 6.017.689 8.242 2.069 2.247 1.379 3.937 3.225 5.072 5.539 1.157 2.291 1.735 4.816 1.735 7.574v3.604c0 2.736-.578 5.261-1.735 7.574-1.157 2.291-2.859 4.127-5.105 5.506-2.247 1.401-4.983 2.102-8.209 2.102-3.27 0-6.017-.701-8.242-2.102-2.224-1.379-3.915-3.215-5.071-5.506-1.157-2.313-1.736-4.838-1.736-7.574zm9.71-3.604v3.604c0 1.579.379 3.069 1.135 4.471.778 1.401 2.18 2.102 4.204 2.102s3.404-.69 4.138-2.069c.756-1.379 1.134-2.88 1.134-4.504v-3.604c0-1.624-.356-3.137-1.068-4.538-.711-1.401-2.113-2.102-4.204-2.102-2.002 0-3.392.701-4.171 2.102-.778 1.401-1.168 2.914-1.168 4.538zm-44.779-35.503v-3.604c0-2.758.59-5.283 1.769-7.574 1.179-2.314 2.88-4.16 5.105-5.539 2.247-1.379 4.96-2.069 8.142-2.069 3.292 0 6.05.69 8.275 2.069 2.224 1.379 3.915 3.225 5.072 5.539 1.156 2.291 1.735 4.816 1.735 7.574v3.604c0 2.758-.59 5.283-1.769 7.574-1.157 2.292-2.858 4.127-5.105 5.506-2.225 1.357-4.961 2.035-8.208 2.035-3.248 0-5.996-.689-8.242-2.068-2.225-1.402-3.915-3.237-5.072-5.506-1.135-2.291-1.702-4.805-1.702-7.541zm9.777-3.604v3.604c0 1.624.378 3.125 1.134 4.505.779 1.379 2.147 2.068 4.105 2.068 2.046 0 3.436-.689 4.17-2.068.757-1.38 1.135-2.881 1.135-4.505v-3.604c0-1.624-.356-3.136-1.068-4.538-.712-1.401-2.124-2.102-4.237-2.102-1.98 0-3.348.712-4.105 2.136-.756 1.423-1.134 2.925-1.134 4.504zm-5.372 55.524 46.981-68.337h8.742l-46.981 68.337z" fill="#000"/><path d="m327.545 423.734c0 2.273-.431 4.208-1.293 5.803-.855 1.594-2.022 2.813-3.502 3.654-1.473.835-3.129 1.252-4.968 1.252-1.852 0-3.515-.421-4.988-1.262-1.473-.842-2.636-2.06-3.492-3.655-.855-1.595-1.282-3.525-1.282-5.792 0-2.274.427-4.208 1.282-5.803.856-1.594 2.019-2.809 3.492-3.644 1.473-.842 3.136-1.262 4.988-1.262 1.839 0 3.495.42 4.968 1.262 1.48.835 2.647 2.05 3.502 3.644.862 1.595 1.293 3.529 1.293 5.803zm-4.469 0c0-1.473-.221-2.715-.662-3.726-.434-1.011-1.048-1.778-1.842-2.301-.794-.522-1.724-.783-2.79-.783-1.065 0-1.995.261-2.789.783-.794.523-1.412 1.29-1.853 2.301-.434 1.011-.651 2.253-.651 3.726s.217 2.715.651 3.726c.441 1.011 1.059 1.778 1.853 2.3.794.523 1.724.784 2.789.784 1.066 0 1.996-.261 2.79-.784.794-.522 1.408-1.289 1.842-2.3.441-1.011.662-2.253.662-3.726zm19.506-10.954 1.323 2.83c-.441.367-.93.638-1.466.815-.536.169-1.177.281-1.924.336-.74.054-1.642.091-2.708.112-1.208.013-2.192.207-2.952.58s-1.337.96-1.73 1.761c-.394.794-.652 1.832-.774 3.115h.153c.468-.957 1.126-1.697 1.975-2.219.855-.523 1.91-.784 3.165-.784 1.331 0 2.495.292 3.492.876 1.005.583 1.785 1.421 2.342 2.514.556 1.093.834 2.402.834 3.929 0 1.588-.312 2.97-.936 4.144-.618 1.167-1.497 2.073-2.637 2.718-1.14.638-2.497.957-4.072.957-1.581 0-2.945-.333-4.092-.998-1.14-.665-2.023-1.646-2.647-2.942-.617-1.296-.926-2.891-.926-4.785v-1.282c0-3.767.733-6.56 2.199-8.378 1.465-1.819 3.62-2.742 6.464-2.769.774-.014 1.473-.017 2.097-.01.624.006 1.171-.024 1.639-.092.475-.068.869-.21 1.181-.428zm-5.894 18.324c.665 0 1.235-.173 1.71-.519.482-.346.852-.841 1.109-1.486.265-.645.397-1.415.397-2.311 0-.889-.132-1.642-.397-2.26-.257-.624-.627-1.099-1.109-1.425s-1.059-.489-1.731-.489c-.502 0-.953.092-1.354.275-.4.183-.743.455-1.028.814-.278.353-.495.791-.651 1.314-.15.515-.224 1.106-.224 1.771 0 1.337.288 2.392.865 3.166.584.767 1.388 1.15 2.413 1.15zm33.92-.356-.305 7.889h-3.981v-4.479h-1.74v-3.41zm-24.564-12.226h4.143v12.195h4.408v-12.195h4.143v12.195h4.408v-12.195h4.144v15.636h-21.246zm30.152 9.915 5.629-9.915h4.276v15.636h-4.133v-9.946l-5.61 9.946h-4.306v-15.636h4.144zm16.378 0 5.629-9.915h4.276v15.636h-4.133v-9.946l-5.61 9.946h-4.306v-15.636h4.144zm4.886-15.372h3.023c-.006 1.236-.464 2.23-1.374 2.983-.903.753-2.124 1.13-3.665 1.13-1.547 0-2.772-.377-3.675-1.13-.902-.753-1.354-1.747-1.354-2.983h3.004c-.007.469.142.889.447 1.263.313.373.839.56 1.578.56.72 0 1.236-.184 1.548-.55.312-.367.468-.791.468-1.273zm19.901 21.399c-1.601 0-2.979-.34-4.133-1.018-1.147-.686-2.029-1.636-2.646-2.851-.611-1.215-.917-2.613-.917-4.194 0-1.602.309-3.006.927-4.214.624-1.215 1.51-2.162 2.657-2.841 1.147-.685 2.511-1.028 4.092-1.028 1.364 0 2.559.248 3.583.743 1.025.496 1.836 1.191 2.433 2.087.598.896.927 1.948.988 3.156h-4.092c-.116-.78-.421-1.408-.917-1.883-.488-.482-1.13-.723-1.924-.723-.672 0-1.259.183-1.761.55-.495.359-.882.885-1.16 1.578-.279.692-.418 1.53-.418 2.514 0 .998.136 1.846.407 2.545.279.699.669 1.232 1.171 1.598.502.367 1.089.55 1.761.55.496 0 .94-.102 1.334-.305.4-.204.729-.499.987-.886.265-.394.438-.865.52-1.415h4.092c-.068 1.194-.394 2.246-.977 3.156-.577.902-1.375 1.608-2.393 2.117s-2.222.764-3.614.764zm8.614-.306v-15.636h13.671v15.636h-4.143v-12.226h-5.436v12.226zm15.986 5.864v-21.5h4.275v2.626h.194c.19-.421.465-.848.824-1.282.367-.442.842-.808 1.426-1.1.59-.298 1.323-.448 2.199-.448 1.14 0 2.192.299 3.155.896.964.591 1.734 1.483 2.311 2.677.577 1.188.865 2.678.865 4.469 0 1.745-.281 3.217-.845 4.418-.556 1.195-1.316 2.101-2.28 2.719-.957.61-2.029.916-3.217.916-.841 0-1.557-.139-2.148-.418-.583-.278-1.062-.627-1.435-1.048-.373-.428-.658-.859-.855-1.293h-.132v8.368zm4.245-13.682c0 .93.129 1.741.387 2.433s.631 1.232 1.12 1.619c.488.38 1.082.57 1.781.57.706 0 1.303-.194 1.792-.581.488-.393.858-.936 1.109-1.628.258-.699.387-1.504.387-2.413 0-.903-.125-1.697-.377-2.382-.251-.686-.62-1.222-1.109-1.609-.489-.386-1.089-.58-1.802-.58-.706 0-1.303.187-1.792.56-.481.373-.851.903-1.109 1.588-.258.686-.387 1.493-.387 2.423zm19.814 8.124c-1.582 0-2.949-.336-4.103-1.008-1.147-.679-2.032-1.622-2.657-2.83-.624-1.215-.936-2.623-.936-4.225 0-1.615.312-3.027.936-4.235.625-1.215 1.51-2.158 2.657-2.83 1.154-.678 2.521-1.018 4.103-1.018 1.581 0 2.945.34 4.092 1.018 1.154.672 2.043 1.615 2.667 2.83.625 1.208.937 2.62.937 4.235 0 1.602-.312 3.01-.937 4.225-.624 1.208-1.513 2.151-2.667 2.83-1.147.672-2.511 1.008-4.092 1.008zm.02-3.36c.719 0 1.32-.203 1.802-.611.482-.414.845-.977 1.089-1.689.251-.713.377-1.524.377-2.433 0-.91-.126-1.721-.377-2.433-.244-.713-.607-1.276-1.089-1.69s-1.083-.621-1.802-.621c-.726 0-1.337.207-1.832.621-.489.414-.859.977-1.11 1.69-.244.712-.366 1.523-.366 2.433 0 .909.122 1.72.366 2.433.251.712.621 1.275 1.11 1.689.495.408 1.106.611 1.832.611zm16.414 3.36c-1.602 0-2.98-.34-4.133-1.018-1.147-.686-2.029-1.636-2.647-2.851-.611-1.215-.916-2.613-.916-4.194 0-1.602.309-3.006.926-4.214.624-1.215 1.51-2.162 2.657-2.841 1.147-.685 2.511-1.028 4.092-1.028 1.365 0 2.559.248 3.584.743 1.025.496 1.836 1.191 2.433 2.087s.926 1.948.987 3.156h-4.092c-.115-.78-.421-1.408-.916-1.883-.489-.482-1.13-.723-1.924-.723-.672 0-1.259.183-1.761.55-.496.359-.883.885-1.161 1.578-.278.692-.417 1.53-.417 2.514 0 .998.135 1.846.407 2.545.278.699.668 1.232 1.171 1.598.502.367 1.089.55 1.761.55.495 0 .94-.102 1.333-.305.401-.204.73-.499.988-.886.264-.394.437-.865.519-1.415h4.092c-.068 1.194-.393 2.246-.977 3.156-.577.902-1.374 1.608-2.392 2.117s-2.223.764-3.614.764zm24.984-9.855v3.411h-8.165v-3.411zm-6.74-6.087v15.636h-4.143v-15.636zm9.458 0v15.636h-4.113v-15.636zm6.676 15.931c-.997 0-1.886-.173-2.667-.519-.78-.353-1.398-.872-1.853-1.557-.448-.693-.672-1.554-.672-2.586 0-.869.16-1.598.479-2.189.319-.59.753-1.065 1.303-1.425s1.174-.631 1.873-.814c.706-.183 1.446-.312 2.219-.387.91-.095 1.643-.183 2.199-.265.557-.088.96-.217 1.212-.387.251-.169.376-.42.376-.753v-.061c0-.645-.203-1.144-.611-1.496-.4-.353-.97-.53-1.71-.53-.78 0-1.401.173-1.863.519-.461.34-.767.767-.916 1.283l-4.011-.326c.204-.95.604-1.771 1.201-2.463.598-.699 1.368-1.235 2.311-1.609.95-.38 2.05-.57 3.299-.57.868 0 1.7.102 2.494.306.8.203 1.51.519 2.127.946.625.428 1.117.978 1.476 1.65.36.665.54 1.462.54 2.392v10.546h-4.113v-2.168h-.122c-.251.489-.587.919-1.008 1.293-.421.366-.926.655-1.517.865-.59.204-1.272.305-2.046.305zm1.242-2.992c.638 0 1.201-.126 1.69-.377.489-.258.872-.604 1.15-1.038.279-.435.418-.927.418-1.477v-1.659c-.136.088-.323.17-.56.244-.231.068-.492.133-.784.194-.292.054-.584.105-.875.153-.292.04-.557.078-.795.112-.509.074-.953.193-1.333.356s-.675.383-.886.662c-.21.271-.315.61-.315 1.017 0 .591.213 1.042.641 1.354.434.306.984.459 1.649.459zm19.413-3.024 5.629-9.915h4.276v15.636h-4.133v-9.946l-5.609 9.946h-4.306v-15.636h4.143zm12.235 5.721v-15.636h13.671v15.636h-4.143v-12.226h-5.436v12.226zm23.051.306c-1.581 0-2.949-.336-4.103-1.008-1.147-.679-2.032-1.622-2.657-2.83-.624-1.215-.936-2.623-.936-4.225 0-1.615.312-3.027.936-4.235.625-1.215 1.51-2.158 2.657-2.83 1.154-.678 2.522-1.018 4.103-1.018s2.945.34 4.092 1.018c1.154.672 2.043 1.615 2.667 2.83.625 1.208.937 2.62.937 4.235 0 1.602-.312 3.01-.937 4.225-.624 1.208-1.513 2.151-2.667 2.83-1.147.672-2.511 1.008-4.092 1.008zm.02-3.36c.72 0 1.32-.203 1.802-.611.482-.414.845-.977 1.089-1.689.251-.713.377-1.524.377-2.433 0-.91-.126-1.721-.377-2.433-.244-.713-.607-1.276-1.089-1.69s-1.082-.621-1.802-.621c-.726 0-1.337.207-1.832.621-.489.414-.859.977-1.11 1.69-.244.712-.366 1.523-.366 2.433 0 .909.122 1.72.366 2.433.251.712.621 1.275 1.11 1.689.495.408 1.106.611 1.832.611zm7.835-9.172v-3.41h14.17v3.41h-5.039v12.226h-4.133v-12.226zm22.219 12.532c-1.609 0-2.993-.326-4.154-.978-1.154-.658-2.043-1.588-2.667-2.789-.624-1.208-.937-2.637-.937-4.286 0-1.608.313-3.02.937-4.235.624-1.214 1.503-2.161 2.637-2.84 1.14-.678 2.477-1.018 4.01-1.018 1.032 0 1.992.167 2.881.499.896.326 1.677.818 2.342 1.476.672.658 1.194 1.486 1.568 2.484.373.991.559 2.151.559 3.482v1.191h-13.203v-2.688h9.121c0-.624-.135-1.177-.407-1.659-.271-.482-.648-.859-1.13-1.13-.475-.278-1.028-.418-1.659-.418-.659 0-1.242.153-1.751.459-.502.298-.896.702-1.181 1.211-.285.502-.431 1.062-.438 1.68v2.555c0 .773.143 1.442.428 2.005.292.564.702.998 1.232 1.303.529.306 1.157.458 1.883.458.482 0 .923-.067 1.323-.203.401-.136.743-.34 1.028-.611s.503-.604.652-.998l4.011.265c-.204.964-.621 1.805-1.252 2.525-.625.712-1.432 1.269-2.423 1.669-.984.394-2.121.591-3.41.591zm8.86-.306v-15.636h4.336v6.067h1.222l4.255-6.067h5.09l-5.528 7.757 5.589 7.879h-5.151l-3.858-5.548h-1.619v5.548zm18.579 5.864c-.549 0-1.065-.044-1.547-.132-.475-.082-.869-.187-1.181-.316l.977-3.237c.509.156.967.241 1.375.254.414.014.77-.081 1.068-.285.306-.203.554-.55.744-1.038l.254-.662-5.609-16.084h4.561l3.237 11.483h.163l3.267-11.483h4.592l-6.078 17.326c-.292.842-.689 1.575-1.191 2.199-.495.631-1.123 1.116-1.883 1.456-.76.346-1.676.519-2.749.519zm-321.981 29.136v-15.636h13.671v15.636h-4.143v-12.226h-5.436v12.226zm23.051.306c-1.581 0-2.949-.336-4.103-1.008-1.147-.679-2.032-1.622-2.657-2.83-.624-1.215-.936-2.623-.936-4.225 0-1.615.312-3.027.936-4.235.625-1.215 1.51-2.158 2.657-2.83 1.154-.678 2.522-1.018 4.103-1.018s2.945.34 4.092 1.018c1.154.672 2.043 1.615 2.667 2.83.625 1.208.937 2.62.937 4.235 0 1.602-.312 3.01-.937 4.225-.624 1.208-1.513 2.151-2.667 2.83-1.147.672-2.511 1.008-4.092 1.008zm.02-3.36c.72 0 1.32-.203 1.802-.611.482-.414.845-.977 1.089-1.689.251-.713.377-1.524.377-2.433 0-.91-.126-1.721-.377-2.433-.244-.713-.607-1.276-1.089-1.69s-1.082-.621-1.802-.621c-.726 0-1.337.207-1.832.621-.489.414-.859.977-1.11 1.69-.244.712-.366 1.523-.366 2.433 0 .909.122 1.72.366 2.433.251.712.621 1.275 1.11 1.689.495.408 1.106.611 1.832.611zm21.902 3.36c-1.602 0-2.979-.34-4.133-1.018-1.147-.686-2.029-1.636-2.647-2.851-.611-1.215-.916-2.613-.916-4.194 0-1.602.309-3.006.926-4.214.625-1.215 1.51-2.162 2.657-2.841 1.147-.685 2.511-1.028 4.093-1.028 1.364 0 2.558.248 3.583.743 1.025.496 1.836 1.191 2.433 2.087s.926 1.948.987 3.156h-4.092c-.115-.78-.421-1.408-.916-1.883-.489-.482-1.13-.723-1.924-.723-.672 0-1.259.183-1.761.55-.496.359-.883.885-1.161 1.578-.278.692-.417 1.53-.417 2.514 0 .998.136 1.846.407 2.545.278.699.669 1.232 1.171 1.598.502.367 1.089.55 1.761.55.495 0 .94-.102 1.333-.305.401-.204.73-.499.988-.886.265-.394.438-.865.519-1.415h4.092c-.067 1.194-.393 2.246-.977 3.156-.577.902-1.374 1.608-2.392 2.117s-2.223.764-3.614.764zm7.547-12.532v-3.41h14.17v3.41h-5.039v12.226h-4.133v-12.226zm15.653 18.09v-21.5h4.275v2.626h.194c.19-.421.465-.848.824-1.282.367-.442.842-.808 1.425-1.1.591-.298 1.324-.448 2.199-.448 1.14 0 2.192.299 3.156.896.964.591 1.734 1.483 2.311 2.677.577 1.188.865 2.678.865 4.469 0 1.745-.281 3.217-.845 4.418-.556 1.195-1.316 2.101-2.28 2.719-.957.61-2.029.916-3.217.916-.841 0-1.557-.139-2.148-.418-.583-.278-1.062-.627-1.435-1.048-.373-.428-.658-.859-.855-1.293h-.133v8.368zm4.245-13.682c0 .93.129 1.741.387 2.433.257.692.631 1.232 1.119 1.619.489.38 1.083.57 1.782.57.706 0 1.303-.194 1.792-.581.488-.393.858-.936 1.109-1.628.258-.699.387-1.504.387-2.413 0-.903-.126-1.697-.377-2.382-.251-.686-.621-1.222-1.109-1.609-.489-.386-1.09-.58-1.802-.58-.706 0-1.303.187-1.792.56-.482.373-.852.903-1.109 1.588-.258.686-.387 1.493-.387 2.423zm17.207 8.113c-.997 0-1.886-.173-2.667-.519-.78-.353-1.398-.872-1.852-1.557-.448-.693-.672-1.554-.672-2.586 0-.869.159-1.598.478-2.189.319-.59.753-1.065 1.303-1.425s1.174-.631 1.873-.814c.706-.183 1.446-.312 2.22-.387.909-.095 1.642-.183 2.198-.265.557-.088.961-.217 1.212-.387.251-.169.376-.42.376-.753v-.061c0-.645-.203-1.144-.61-1.496-.401-.353-.971-.53-1.711-.53-.78 0-1.401.173-1.862.519-.462.34-.767.767-.917 1.283l-4.011-.326c.204-.95.604-1.771 1.202-2.463.597-.699 1.367-1.235 2.311-1.609.95-.38 2.049-.57 3.298-.57.868 0 1.7.102 2.494.306.801.203 1.51.519 2.127.946.625.428 1.117.978 1.477 1.65.359.665.539 1.462.539 2.392v10.546h-4.113v-2.168h-.122c-.251.489-.587.919-1.008 1.293-.42.366-.926.655-1.516.865-.591.204-1.273.305-2.047.305zm1.242-2.992c.638 0 1.202-.126 1.69-.377.489-.258.872-.604 1.151-1.038.278-.435.417-.927.417-1.477v-1.659c-.136.088-.322.17-.56.244-.231.068-.492.133-.784.194-.292.054-.583.105-.875.153-.292.04-.557.078-.794.112-.509.074-.954.193-1.334.356s-.675.383-.885.662c-.211.271-.316.61-.316 1.017 0 .591.214 1.042.641 1.354.435.306.984.459 1.649.459zm20.664-6.852v3.411h-8.164v-3.411zm-6.739-6.087v15.636h-4.143v-15.636zm9.457 0v15.636h-4.112v-15.636zm9.344 15.942c-1.608 0-2.993-.326-4.153-.978-1.154-.658-2.043-1.588-2.668-2.789-.624-1.208-.936-2.637-.936-4.286 0-1.608.312-3.02.936-4.235.625-1.214 1.504-2.161 2.637-2.84 1.14-.678 2.477-1.018 4.011-1.018 1.032 0 1.992.167 2.881.499.896.326 1.676.818 2.341 1.476.672.658 1.195 1.486 1.568 2.484.373.991.56 2.151.56 3.482v1.191h-13.203v-2.688h9.121c0-.624-.136-1.177-.407-1.659-.272-.482-.649-.859-1.13-1.13-.475-.278-1.029-.418-1.66-.418-.658 0-1.242.153-1.751.459-.502.298-.896.702-1.181 1.211-.285.502-.431 1.062-.437 1.68v2.555c0 .773.142 1.442.427 2.005.292.564.703.998 1.232 1.303.529.306 1.157.458 1.883.458.482 0 .923-.067 1.324-.203.4-.136.743-.34 1.028-.611s.502-.604.651-.998l4.011.265c-.203.964-.621 1.805-1.252 2.525-.624.712-1.432 1.269-2.423 1.669-.984.394-2.12.591-3.41.591z" fill="#000"/><path d="m446.246 469.158v-15.636h6.668c1.928 0 3.451.366 4.571 1.099s1.68 1.775 1.68 3.126c0 .848-.316 1.554-.947 2.117s-1.507.943-2.626 1.14c.936.068 1.733.282 2.392.641.665.353 1.17.811 1.517 1.375.352.563.529 1.187.529 1.873 0 .889-.238 1.652-.713 2.29-.468.638-1.157 1.127-2.066 1.466-.903.34-2.006.509-3.309.509zm4.042-3.247h3.654c.604 0 1.076-.143 1.415-.428.346-.292.52-.689.52-1.191 0-.556-.174-.994-.52-1.313-.339-.319-.811-.478-1.415-.478h-3.654zm0-5.955h2.718c.434 0 .804-.062 1.109-.184.313-.129.55-.312.713-.549.17-.238.255-.52.255-.845 0-.482-.194-.859-.581-1.13-.387-.272-.916-.408-1.588-.408h-2.626zm14.047-1.629h4.672c2.07 0 3.685.495 4.846 1.486 1.16.984 1.741 2.301 1.741 3.95 0 1.072-.262 2.015-.784 2.83-.523.807-1.276 1.439-2.26 1.893-.984.448-2.165.672-3.543.672h-7.39v-15.636h4.143v12.226h3.247c.726 0 1.324-.183 1.792-.55.468-.366.706-.835.712-1.405-.006-.604-.244-1.096-.712-1.476-.468-.387-1.066-.58-1.792-.58h-4.672zm12.938 10.831v-15.636h4.337v15.636zm6.657 5.864v-21.5h4.275v2.626h.194c.19-.421.464-.848.824-1.282.367-.442.842-.808 1.425-1.1.591-.298 1.324-.448 2.199-.448 1.14 0 2.192.299 3.156.896.964.591 1.734 1.483 2.311 2.677.577 1.188.865 2.678.865 4.469 0 1.745-.282 3.217-.845 4.418-.556 1.195-1.316 2.101-2.28 2.719-.957.61-2.029.916-3.217.916-.842 0-1.558-.139-2.148-.418-.584-.278-1.062-.627-1.435-1.048-.374-.428-.659-.859-.855-1.293h-.133v8.368zm4.245-13.682c0 .93.129 1.741.386 2.433.258.692.632 1.232 1.12 1.619.489.38 1.083.57 1.782.57.706 0 1.303-.194 1.791-.581.489-.393.859-.936 1.11-1.628.258-.699.387-1.504.387-2.413 0-.903-.126-1.697-.377-2.382-.251-.686-.621-1.222-1.109-1.609-.489-.386-1.09-.58-1.802-.58-.706 0-1.303.187-1.792.56-.482.373-.852.903-1.11 1.588-.257.686-.386 1.493-.386 2.423zm19.813 8.124c-1.581 0-2.948-.336-4.102-1.008-1.147-.679-2.033-1.622-2.657-2.83-.624-1.215-.937-2.623-.937-4.225 0-1.615.313-3.027.937-4.235.624-1.215 1.51-2.158 2.657-2.83 1.154-.678 2.521-1.018 4.102-1.018 1.582 0 2.946.34 4.093 1.018 1.153.672 2.042 1.615 2.667 2.83.624 1.208.936 2.62.936 4.235 0 1.602-.312 3.01-.936 4.225-.625 1.208-1.514 2.151-2.667 2.83-1.147.672-2.511 1.008-4.093 1.008zm.021-3.36c.719 0 1.32-.203 1.802-.611.481-.414.845-.977 1.089-1.689.251-.713.377-1.524.377-2.433 0-.91-.126-1.721-.377-2.433-.244-.713-.608-1.276-1.089-1.69-.482-.414-1.083-.621-1.802-.621-.726 0-1.337.207-1.833.621-.488.414-.858.977-1.109 1.69-.245.712-.367 1.523-.367 2.433 0 .909.122 1.72.367 2.433.251.712.621 1.275 1.109 1.689.496.408 1.107.611 1.833.611zm16.413 3.36c-1.601 0-2.979-.34-4.133-1.018-1.147-.686-2.029-1.636-2.646-2.851-.611-1.215-.917-2.613-.917-4.194 0-1.602.309-3.006.927-4.214.624-1.215 1.51-2.162 2.657-2.841 1.147-.685 2.511-1.028 4.092-1.028 1.364 0 2.559.248 3.583.743 1.025.496 1.836 1.191 2.433 2.087.598.896.927 1.948.988 3.156h-4.092c-.116-.78-.421-1.408-.917-1.883-.488-.482-1.13-.723-1.924-.723-.672 0-1.259.183-1.761.55-.495.359-.882.885-1.16 1.578-.279.692-.418 1.53-.418 2.514 0 .998.136 1.846.408 2.545.278.699.668 1.232 1.17 1.598.502.367 1.089.55 1.761.55.496 0 .94-.102 1.334-.305.4-.204.729-.499.987-.886.265-.394.438-.865.52-1.415h4.092c-.068 1.194-.394 2.246-.977 3.156-.577.902-1.375 1.608-2.393 2.117s-2.222.764-3.614.764z" fill="#04b34a"/></svg>