<svg width="860" height="482" viewBox="0 0 860 482" fill="none" xmlns="http://www.w3.org/2000/svg">
<rect width="860" height="482" fill="#EEEEEE" style="fill:#EEEEEE;fill:color(display-p3 0.9333 0.9333 0.9333);fill-opacity:1;"/>
<path d="M553.281 96.084L537.143 103.743L551.845 113.889L553.281 96.084ZM78.2855 406.394C121.989 399.4 208.913 367.117 299.911 315.557C390.928 263.986 486.255 193 546.625 108.452L544.107 106.654C484.109 190.682 389.217 261.4 298.385 312.865C207.535 364.342 120.98 396.428 77.7965 403.339L78.2855 406.394Z" fill="#329DC7" style="fill:#329DC7;fill:color(display-p3 0.1961 0.6157 0.7804);fill-opacity:1;"/>
<path d="M684.468 323.184L668.473 315.23L669.583 333.059L684.468 323.184ZM670.47 322.505C443.088 336.95 274.593 362.254 75.2495 403.97L75.8833 406.999C275.099 365.309 443.448 340.027 670.667 325.593L670.47 322.505Z" fill="#ECB221" style="fill:#ECB221;fill:color(display-p3 0.9255 0.6980 0.1294);fill-opacity:1;"/>
<path d="M457.492 317.305L455.982 316.97L457.492 317.305ZM545.019 271.514L544.814 269.98L545.019 271.514ZM678.899 253.878L662.2 247.534L665.056 265.168L678.899 253.878ZM422.869 347.619C424.071 347.499 425.234 347.371 426.36 347.233L425.983 344.162C424.884 344.296 423.744 344.422 422.561 344.54L422.869 347.619ZM431.939 346.399C434.454 345.942 436.762 345.388 438.882 344.693L437.918 341.753C435.965 342.393 433.799 342.916 431.385 343.355L431.939 346.399ZM444.246 342.392C446.446 341.173 448.379 339.683 450.083 337.847L447.815 335.742C446.345 337.326 444.674 338.618 442.746 339.686L444.246 342.392ZM453.554 333.09C454.67 331.154 455.648 328.974 456.521 326.518L453.605 325.482C452.783 327.797 451.879 329.801 450.874 331.544L453.554 333.09ZM458.175 321.08C458.462 319.98 458.737 318.834 459.003 317.641L455.982 316.97C455.725 318.13 455.458 319.239 455.181 320.298L458.175 321.08ZM459.003 317.641C459.214 316.689 459.443 315.761 459.692 314.854L456.708 314.037C456.445 314.994 456.204 315.972 455.982 316.97L459.003 317.641ZM461.091 310.514C461.773 308.7 462.551 306.982 463.436 305.353L460.716 303.877C459.76 305.639 458.923 307.487 458.195 309.426L461.091 310.514ZM465.826 301.527C466.909 300.011 468.114 298.574 469.453 297.21L467.244 295.043C465.794 296.521 464.486 298.08 463.308 299.728L465.826 301.527ZM472.805 294.169C474.225 293.019 475.767 291.922 477.442 290.874L475.8 288.251C474.027 289.361 472.382 290.53 470.858 291.764L472.805 294.169ZM481.426 288.602C483.056 287.753 484.791 286.939 486.639 286.155L485.431 283.307C483.515 284.119 481.706 284.968 479.997 285.858L481.426 288.602ZM490.937 284.462C492.686 283.821 494.523 283.202 496.45 282.603L495.532 279.648C493.56 280.261 491.674 280.897 489.872 281.557L490.937 284.462ZM500.906 281.298C502.719 280.797 504.603 280.31 506.562 279.837L505.834 276.829C503.846 277.31 501.929 277.805 500.082 278.315L500.906 281.298ZM511.127 278.785C512.969 278.38 514.871 277.985 516.834 277.598L516.236 274.563C514.252 274.954 512.328 275.353 510.463 275.763L511.127 278.785ZM521.436 276.727C523.307 276.386 525.23 276.051 527.207 275.722L526.699 272.67C524.708 273.002 522.769 273.339 520.882 273.683L521.436 276.727ZM531.837 274.976C533.726 274.681 535.659 274.39 537.64 274.102L537.195 271.04C535.205 271.329 533.26 271.622 531.36 271.919L531.837 274.976ZM542.287 273.445C543.256 273.312 544.234 273.179 545.224 273.047L544.814 269.98C543.821 270.113 542.838 270.246 541.865 270.38L542.287 273.445ZM545.224 273.047C546.271 272.907 547.308 272.77 548.334 272.635L547.93 269.567C546.902 269.703 545.864 269.84 544.814 269.98L545.224 273.047ZM553.284 271.989C555.391 271.718 557.456 271.456 559.484 271.201L559.098 268.131C557.067 268.386 554.999 268.649 552.888 268.921L553.284 271.989ZM564.444 270.585C566.542 270.327 568.605 270.077 570.638 269.833L570.269 266.761C568.233 267.005 566.168 267.256 564.066 267.514L564.444 270.585ZM575.606 269.241C577.695 268.994 579.76 268.752 581.807 268.514L581.449 265.44C579.4 265.679 577.334 265.921 575.243 266.168L575.606 269.241ZM586.776 267.937C588.854 267.696 590.92 267.458 592.984 267.219L592.629 264.145C590.566 264.384 588.498 264.623 586.42 264.863L586.776 267.937ZM597.953 266.642C600.016 266.402 602.083 266.16 604.165 265.915L603.802 262.842C601.723 263.087 599.657 263.329 597.595 263.569L597.953 266.642ZM609.131 265.323C611.18 265.077 613.249 264.826 615.344 264.568L614.966 261.497C612.874 261.755 610.809 262.006 608.762 262.251L609.131 265.323ZM620.306 263.95C622.345 263.693 624.415 263.428 626.521 263.154L626.122 260.086C624.02 260.359 621.955 260.624 619.919 260.88L620.306 263.95ZM631.48 262.501C633.506 262.231 635.569 261.952 637.675 261.662L637.253 258.597C635.152 258.886 633.093 259.165 631.071 259.434L631.48 262.501ZM642.636 260.971C644.66 260.685 646.726 260.39 648.836 260.084L648.392 257.022C646.285 257.327 644.224 257.622 642.204 257.907L642.636 260.971ZM653.786 259.357C655.803 259.058 657.861 258.749 659.965 258.428L659.499 255.37C657.4 255.689 655.345 255.998 653.332 256.296L653.786 259.357ZM664.912 257.668C666.93 257.355 668.989 257.032 671.092 256.699L670.607 253.643C668.508 253.976 666.452 254.298 664.438 254.611L664.912 257.668Z" fill="#EA4310" style="fill:#EA4310;fill:color(display-p3 0.9163 0.2626 0.0637);fill-opacity:1;"/>
<path d="M77.2794 75.1874C76.6753 74.5832 75.6958 74.5832 75.0916 75.1874L65.2466 85.0324C64.6424 85.6366 64.6424 86.6161 65.2466 87.2202C65.8507 87.8244 66.8302 87.8244 67.4344 87.2202L76.1855 78.469L84.9367 87.2202C85.5409 87.8244 86.5204 87.8244 87.1245 87.2202C87.7287 86.6161 87.7287 85.6366 87.1245 85.0324L77.2794 75.1874ZM76.1855 405.484H74.6385V407.031H76.1855V405.484ZM689.275 406.578C689.879 405.974 689.879 404.994 689.275 404.39L679.43 394.545C678.826 393.941 677.846 393.941 677.242 394.545C676.638 395.149 676.638 396.129 677.242 396.733L685.993 405.484L677.242 414.235C676.638 414.84 676.638 415.819 677.242 416.423C677.846 417.027 678.826 417.027 679.43 416.423L689.275 406.578ZM74.6385 76.2812V405.484H77.7326V76.2812H74.6385ZM76.1855 407.031H688.181V403.937H76.1855V407.031Z" fill="#A1A1A1" style="fill:#A1A1A1;fill:color(display-p3 0.6325 0.6325 0.6325);fill-opacity:1;"/>
<path d="M336.361 89.1079H331.241V86.275H344.756V89.1079H339.662V99.4258H336.361V89.1079ZM351.867 85.9371C352.872 85.9371 353.799 86.1104 354.648 86.4569C355.497 86.7861 356.225 87.2626 356.831 87.8864C357.438 88.4928 357.906 89.2378 358.235 90.1215C358.581 90.9878 358.755 91.9581 358.755 93.0323V93.3962H348.307C348.341 93.916 348.454 94.3924 348.645 94.8256C348.852 95.2588 349.121 95.6399 349.45 95.9692C349.779 96.2984 350.169 96.5583 350.62 96.7488C351.07 96.9221 351.573 97.0087 352.127 97.0087C352.647 97.0087 353.097 96.9568 353.479 96.8528C353.86 96.7315 354.172 96.5929 354.414 96.437C354.674 96.281 354.873 96.1251 355.012 95.9692C355.168 95.7959 355.272 95.6659 355.324 95.5793H358.599C358.547 95.9258 358.391 96.3417 358.131 96.8268C357.871 97.2946 357.481 97.7451 356.961 98.1783C356.441 98.6114 355.783 98.984 354.986 99.2958C354.189 99.6077 353.236 99.7636 352.127 99.7636C351.053 99.7636 350.074 99.5904 349.19 99.2439C348.324 98.8973 347.579 98.4122 346.955 97.7884C346.331 97.1647 345.846 96.437 345.5 95.6053C345.153 94.7563 344.98 93.838 344.98 92.8504C344.98 91.8281 345.145 90.8925 345.474 90.0435C345.82 89.1945 346.297 88.4668 346.903 87.8604C347.527 87.2539 348.255 86.7861 349.086 86.4569C349.935 86.1104 350.862 85.9371 351.867 85.9371ZM351.867 88.5101C350.966 88.5101 350.213 88.744 349.606 89.2118C349.017 89.6623 348.619 90.2947 348.411 91.1091H355.272C355.029 90.2774 354.614 89.6363 354.024 89.1858C353.435 88.7353 352.716 88.5101 351.867 88.5101ZM366.454 95.0855L362.556 99.4258H358.735L364.557 92.9284L358.709 86.275H362.972L366.688 90.5633L370.535 86.275H374.381L368.585 92.7204L374.381 99.4258H370.301L366.454 95.0855ZM375.574 86.275H378.875V91.291H385.164V86.275H388.465V99.4258H385.164V94.1239H378.875V99.4258H375.574V86.275ZM397.694 85.9371C398.699 85.9371 399.626 86.1104 400.475 86.4569C401.341 86.8034 402.086 87.2886 402.71 87.9123C403.351 88.5188 403.854 89.2465 404.218 90.0955C404.581 90.9271 404.763 91.8454 404.763 92.8504C404.763 93.8553 404.581 94.7823 404.218 95.6313C403.854 96.463 403.351 97.1907 402.71 97.8144C402.086 98.4208 401.341 98.8973 400.475 99.2439C399.626 99.5904 398.699 99.7636 397.694 99.7636C396.672 99.7636 395.728 99.5904 394.861 99.2439C394.012 98.8973 393.267 98.4208 392.626 97.8144C391.985 97.1907 391.483 96.463 391.119 95.6313C390.772 94.7823 390.599 93.8553 390.599 92.8504C390.599 91.8454 390.772 90.9271 391.119 90.0955C391.483 89.2465 391.985 88.5188 392.626 87.9123C393.267 87.2886 394.012 86.8034 394.861 86.4569C395.728 86.1104 396.672 85.9371 397.694 85.9371ZM397.694 96.8008C398.249 96.8008 398.751 96.7055 399.202 96.5149C399.669 96.307 400.059 96.0298 400.371 95.6833C400.7 95.3194 400.952 94.8949 401.125 94.4098C401.315 93.9246 401.411 93.4048 401.411 92.8504C401.411 92.2959 401.315 91.7761 401.125 91.291C400.952 90.8059 400.7 90.39 400.371 90.0435C400.059 89.6796 399.669 89.4024 399.202 89.2118C398.751 89.0039 398.249 88.8999 397.694 88.8999C397.14 88.8999 396.629 89.0039 396.161 89.2118C395.71 89.4197 395.32 89.7056 394.991 90.0695C394.662 90.416 394.402 90.8319 394.212 91.317C394.038 91.7848 393.952 92.2959 393.952 92.8504C393.952 93.4048 394.038 93.9246 394.212 94.4098C394.402 94.8776 394.662 95.2934 394.991 95.6573C395.32 96.0038 395.71 96.281 396.161 96.4889C396.629 96.6969 397.14 96.8008 397.694 96.8008ZM408.218 86.275H418.822V99.4258H415.521V89.1079H410.921L410.479 93.786C410.393 94.7736 410.254 95.6313 410.063 96.359C409.873 97.0867 409.604 97.6845 409.258 98.1523C408.911 98.6201 408.469 98.9753 407.932 99.2179C407.395 99.4431 406.737 99.5557 405.957 99.5557H405.073V96.5409H405.385C405.767 96.5409 406.078 96.4976 406.321 96.411C406.581 96.307 406.789 96.1424 406.945 95.9172C407.101 95.6746 407.222 95.3541 407.309 94.9556C407.395 94.557 407.465 94.0546 407.517 93.4481L408.218 86.275ZM428.039 85.9371C429.044 85.9371 429.971 86.1104 430.82 86.4569C431.686 86.8034 432.431 87.2886 433.055 87.9123C433.696 88.5188 434.199 89.2465 434.563 90.0955C434.927 90.9271 435.108 91.8454 435.108 92.8504C435.108 93.8553 434.927 94.7823 434.563 95.6313C434.199 96.463 433.696 97.1907 433.055 97.8144C432.431 98.4208 431.686 98.8973 430.82 99.2439C429.971 99.5904 429.044 99.7636 428.039 99.7636C427.017 99.7636 426.073 99.5904 425.206 99.2439C424.357 98.8973 423.612 98.4208 422.971 97.8144C422.33 97.1907 421.828 96.463 421.464 95.6313C421.117 94.7823 420.944 93.8553 420.944 92.8504C420.944 91.8454 421.117 90.9271 421.464 90.0955C421.828 89.2465 422.33 88.5188 422.971 87.9123C423.612 87.2886 424.357 86.8034 425.206 86.4569C426.073 86.1104 427.017 85.9371 428.039 85.9371ZM428.039 96.8008C428.594 96.8008 429.096 96.7055 429.547 96.5149C430.014 96.307 430.404 96.0298 430.716 95.6833C431.045 95.3194 431.297 94.8949 431.47 94.4098C431.66 93.9246 431.756 93.4048 431.756 92.8504C431.756 92.2959 431.66 91.7761 431.47 91.291C431.297 90.8059 431.045 90.39 430.716 90.0435C430.404 89.6796 430.014 89.4024 429.547 89.2118C429.096 89.0039 428.594 88.8999 428.039 88.8999C427.485 88.8999 426.974 89.0039 426.506 89.2118C426.055 89.4197 425.666 89.7056 425.336 90.0695C425.007 90.416 424.747 90.8319 424.557 91.317C424.383 91.7848 424.297 92.2959 424.297 92.8504C424.297 93.4048 424.383 93.9246 424.557 94.4098C424.747 94.8776 425.007 95.2934 425.336 95.6573C425.666 96.0038 426.055 96.281 426.506 96.4889C426.974 96.6969 427.485 96.8008 428.039 96.8008ZM437.177 86.275H447.365V89.1079H440.477V99.4258H437.177V86.275ZM448.975 86.275H452.249V95.0855L458.851 86.275H462.152V99.4258H458.851V90.5893L452.249 99.4258H448.975V86.275ZM465.137 86.275H468.412V95.0855L475.013 86.275H478.314V99.4258H475.013V90.5893L468.412 99.4258H465.137V86.275ZM332.671 115.275H337.193L341.559 124.397L345.926 115.275H350.344V128.426H347.121V118.628L342.521 128.478H340.312L335.738 118.706V128.426H332.671V115.275ZM359.355 114.937C360.359 114.937 361.286 115.11 362.135 115.457C362.984 115.786 363.712 116.263 364.319 116.886C364.925 117.493 365.393 118.238 365.722 119.121C366.069 119.988 366.242 120.958 366.242 122.032V122.396H355.794C355.829 122.916 355.941 123.392 356.132 123.826C356.34 124.259 356.608 124.64 356.937 124.969C357.267 125.298 357.657 125.558 358.107 125.749C358.558 125.922 359.06 126.009 359.614 126.009C360.134 126.009 360.585 125.957 360.966 125.853C361.347 125.732 361.659 125.593 361.902 125.437C362.161 125.281 362.361 125.125 362.499 124.969C362.655 124.796 362.759 124.666 362.811 124.579H366.086C366.034 124.926 365.878 125.342 365.618 125.827C365.358 126.295 364.968 126.745 364.449 127.178C363.929 127.611 363.27 127.984 362.473 128.296C361.676 128.608 360.723 128.764 359.614 128.764C358.54 128.764 357.561 128.59 356.678 128.244C355.811 127.897 355.066 127.412 354.442 126.788C353.819 126.165 353.334 125.437 352.987 124.605C352.641 123.756 352.467 122.838 352.467 121.85C352.467 120.828 352.632 119.892 352.961 119.043C353.308 118.194 353.784 117.467 354.39 116.86C355.014 116.254 355.742 115.786 356.574 115.457C357.423 115.11 358.35 114.937 359.355 114.937ZM359.355 117.51C358.454 117.51 357.7 117.744 357.093 118.212C356.504 118.662 356.106 119.295 355.898 120.109H362.759C362.517 119.277 362.101 118.636 361.512 118.186C360.923 117.735 360.204 117.51 359.355 117.51ZM368.27 115.275H371.57V120.291H377.86V115.275H381.161V128.426H377.86V123.124H371.57V128.426H368.27V115.275ZM392.989 128.426V124.008H389.974L386.907 128.426H383.191L386.673 123.514C385.616 123.237 384.845 122.76 384.36 122.084C383.875 121.391 383.632 120.551 383.632 119.563C383.632 118.992 383.728 118.446 383.918 117.926C384.109 117.406 384.403 116.956 384.802 116.574C385.2 116.176 385.712 115.864 386.335 115.639C386.959 115.396 387.704 115.275 388.57 115.275H396.289V128.426H392.989ZM392.989 121.305V117.952H389.012C387.678 117.952 387.011 118.498 387.011 119.589C387.011 120.126 387.176 120.551 387.505 120.863C387.851 121.157 388.354 121.305 389.012 121.305H392.989ZM399.223 115.275H402.523V120.291H404.654C404.828 119.494 405.114 118.766 405.512 118.108C405.928 117.449 406.43 116.886 407.019 116.419C407.609 115.951 408.276 115.587 409.021 115.327C409.766 115.067 410.571 114.937 411.438 114.937C412.425 114.937 413.344 115.11 414.193 115.457C415.042 115.803 415.769 116.289 416.376 116.912C416.999 117.519 417.485 118.246 417.831 119.095C418.195 119.927 418.377 120.845 418.377 121.85C418.377 122.855 418.195 123.782 417.831 124.631C417.485 125.463 416.999 126.191 416.376 126.814C415.769 127.421 415.042 127.897 414.193 128.244C413.344 128.59 412.425 128.764 411.438 128.764C410.554 128.764 409.722 128.625 408.943 128.348C408.18 128.071 407.496 127.689 406.89 127.204C406.3 126.702 405.807 126.104 405.408 125.411C405.01 124.718 404.741 123.956 404.602 123.124H402.523V128.426H399.223V115.275ZM411.438 125.827C411.975 125.827 412.46 125.723 412.893 125.515C413.344 125.307 413.725 125.03 414.037 124.683C414.349 124.319 414.591 123.895 414.764 123.41C414.938 122.925 415.024 122.405 415.024 121.85C415.024 121.296 414.938 120.776 414.764 120.291C414.591 119.806 414.349 119.39 414.037 119.043C413.725 118.68 413.344 118.394 412.893 118.186C412.46 117.978 411.975 117.874 411.438 117.874C410.901 117.874 410.407 117.978 409.956 118.186C409.523 118.394 409.151 118.68 408.839 119.043C408.527 119.39 408.284 119.806 408.111 120.291C407.938 120.776 407.851 121.296 407.851 121.85C407.851 122.405 407.938 122.925 408.111 123.41C408.284 123.895 408.527 124.319 408.839 124.683C409.151 125.03 409.523 125.307 409.956 125.515C410.407 125.723 410.901 125.827 411.438 125.827ZM423.696 118.108H418.576V115.275H432.091V118.108H426.997V128.426H423.696V118.108ZM442.243 119.615C442.191 119.529 442.095 119.39 441.957 119.199C441.835 119.009 441.645 118.818 441.385 118.628C441.142 118.42 440.831 118.246 440.449 118.108C440.085 117.952 439.644 117.874 439.124 117.874C438.621 117.874 438.154 117.978 437.72 118.186C437.305 118.394 436.941 118.68 436.629 119.043C436.334 119.39 436.1 119.806 435.927 120.291C435.771 120.776 435.693 121.296 435.693 121.85C435.693 122.405 435.771 122.925 435.927 123.41C436.1 123.895 436.334 124.319 436.629 124.683C436.941 125.03 437.305 125.307 437.72 125.515C438.154 125.723 438.63 125.827 439.15 125.827C439.687 125.827 440.146 125.758 440.527 125.619C440.908 125.463 441.22 125.29 441.463 125.099C441.705 124.909 441.887 124.718 442.009 124.527C442.147 124.319 442.243 124.172 442.295 124.086H445.543C445.509 124.432 445.37 124.874 445.127 125.411C444.902 125.931 444.538 126.442 444.036 126.944C443.533 127.447 442.875 127.88 442.061 128.244C441.264 128.59 440.276 128.764 439.098 128.764C438.145 128.764 437.253 128.599 436.421 128.27C435.607 127.923 434.888 127.447 434.264 126.84C433.657 126.217 433.181 125.489 432.834 124.657C432.488 123.808 432.315 122.873 432.315 121.85C432.315 120.845 432.488 119.918 432.834 119.069C433.181 118.22 433.657 117.493 434.264 116.886C434.87 116.263 435.581 115.786 436.395 115.457C437.227 115.11 438.119 114.937 439.072 114.937C440.233 114.937 441.212 115.119 442.009 115.483C442.823 115.829 443.481 116.254 443.984 116.756C444.486 117.242 444.859 117.753 445.101 118.29C445.344 118.81 445.491 119.251 445.543 119.615H442.243ZM456.191 128.426V124.008H453.177L450.11 128.426H446.393L449.876 123.514C448.819 123.237 448.048 122.76 447.563 122.084C447.078 121.391 446.835 120.551 446.835 119.563C446.835 118.992 446.93 118.446 447.121 117.926C447.312 117.406 447.606 116.956 448.005 116.574C448.403 116.176 448.914 115.864 449.538 115.639C450.162 115.396 450.907 115.275 451.773 115.275H459.492V128.426H456.191ZM456.191 121.305V117.952H452.215C450.881 117.952 450.214 118.498 450.214 119.589C450.214 120.126 450.378 120.551 450.708 120.863C451.054 121.157 451.557 121.305 452.215 121.305H456.191Z" fill="#092A39" style="fill:#092A39;fill:color(display-p3 0.0353 0.1647 0.2235);fill-opacity:1;"/>
<path d="M339.714 144.639C340.667 144.639 341.533 144.795 342.313 145.107C343.11 145.401 343.786 145.834 344.34 146.406C344.912 146.978 345.345 147.671 345.64 148.485C345.952 149.282 346.107 150.175 346.107 151.162C346.107 152.133 345.934 153.025 345.588 153.839C345.241 154.636 344.756 155.329 344.132 155.918C343.509 156.507 342.763 156.967 341.897 157.296C341.031 157.608 340.078 157.764 339.038 157.764C337.964 157.764 336.994 157.599 336.127 157.27C335.261 156.941 334.516 156.464 333.892 155.84C333.286 155.199 332.809 154.42 332.463 153.501C332.134 152.583 331.969 151.543 331.969 150.383C331.969 149.793 331.978 149.248 331.995 148.745C332.03 148.243 332.073 147.636 332.125 146.926C332.229 145.817 332.428 144.821 332.723 143.937C333.035 143.036 333.485 142.265 334.074 141.624C334.681 140.966 335.443 140.42 336.361 139.987C337.28 139.554 338.397 139.233 339.714 139.025L344.938 138.167V141.078L339.766 141.91C338.952 142.049 338.259 142.23 337.687 142.456C337.132 142.681 336.665 142.984 336.283 143.365C335.902 143.729 335.608 144.188 335.4 144.743C335.209 145.297 335.079 145.964 335.01 146.744C335.408 146.103 335.998 145.592 336.777 145.211C337.574 144.829 338.553 144.639 339.714 144.639ZM339.038 154.853C339.645 154.853 340.182 154.758 340.65 154.567C341.117 154.376 341.507 154.116 341.819 153.787C342.131 153.458 342.365 153.077 342.521 152.644C342.677 152.193 342.755 151.708 342.755 151.188C342.755 150.686 342.677 150.218 342.521 149.785C342.365 149.334 342.131 148.944 341.819 148.615C341.507 148.286 341.117 148.026 340.65 147.836C340.182 147.645 339.645 147.55 339.038 147.55C338.432 147.55 337.895 147.645 337.427 147.836C336.959 148.026 336.569 148.286 336.257 148.615C335.946 148.944 335.712 149.334 335.556 149.785C335.4 150.218 335.322 150.686 335.322 151.188C335.322 151.708 335.4 152.193 335.556 152.644C335.712 153.077 335.946 153.458 336.257 153.787C336.569 154.116 336.959 154.376 337.427 154.567C337.895 154.758 338.432 154.853 339.038 154.853ZM355.734 148.355C356.67 148.355 357.467 148.477 358.126 148.719C358.801 148.944 359.347 149.256 359.763 149.655C360.179 150.053 360.482 150.53 360.672 151.084C360.88 151.621 360.984 152.211 360.984 152.852C360.984 153.441 360.88 154.012 360.672 154.567C360.482 155.121 360.179 155.615 359.763 156.048C359.347 156.464 358.81 156.802 358.151 157.062C357.493 157.304 356.696 157.426 355.76 157.426H348.249V144.275H351.55V148.355H355.734ZM351.55 151.058V154.749H355.241C356.817 154.749 357.606 154.116 357.606 152.852C357.606 152.297 357.406 151.864 357.008 151.552C356.609 151.223 356.02 151.058 355.241 151.058H351.55ZM362.96 144.275H366.286V157.426H362.96V144.275ZM378.329 148.615C378.277 148.529 378.182 148.39 378.043 148.199C377.922 148.009 377.731 147.818 377.472 147.628C377.229 147.42 376.917 147.246 376.536 147.108C376.172 146.952 375.73 146.874 375.21 146.874C374.708 146.874 374.24 146.978 373.807 147.186C373.391 147.394 373.027 147.68 372.715 148.043C372.421 148.39 372.187 148.806 372.014 149.291C371.858 149.776 371.78 150.296 371.78 150.85C371.78 151.405 371.858 151.925 372.014 152.41C372.187 152.895 372.421 153.319 372.715 153.683C373.027 154.03 373.391 154.307 373.807 154.515C374.24 154.723 374.717 154.827 375.236 154.827C375.774 154.827 376.233 154.758 376.614 154.619C376.995 154.463 377.307 154.29 377.55 154.099C377.792 153.909 377.974 153.718 378.095 153.527C378.234 153.319 378.329 153.172 378.381 153.086H381.63C381.595 153.432 381.457 153.874 381.214 154.411C380.989 154.931 380.625 155.442 380.123 155.944C379.62 156.447 378.962 156.88 378.147 157.244C377.35 157.59 376.363 157.764 375.184 157.764C374.232 157.764 373.339 157.599 372.508 157.27C371.693 156.923 370.974 156.447 370.35 155.84C369.744 155.217 369.268 154.489 368.921 153.657C368.574 152.808 368.401 151.873 368.401 150.85C368.401 149.845 368.574 148.918 368.921 148.069C369.268 147.22 369.744 146.493 370.35 145.886C370.957 145.263 371.667 144.786 372.482 144.457C373.313 144.11 374.206 143.937 375.159 143.937C376.319 143.937 377.298 144.119 378.095 144.483C378.91 144.829 379.568 145.254 380.071 145.756C380.573 146.242 380.946 146.753 381.188 147.29C381.431 147.81 381.578 148.251 381.63 148.615H378.329ZM387.158 147.108H382.038V144.275H395.553V147.108H390.459V157.426H387.158V147.108ZM400.443 162.936H397.168V144.275H400.469V146.354C400.521 146.233 400.651 146.042 400.858 145.782C401.084 145.522 401.378 145.263 401.742 145.003C402.123 144.725 402.582 144.492 403.12 144.301C403.657 144.093 404.28 143.989 404.991 143.989C405.84 143.989 406.646 144.145 407.408 144.457C408.17 144.769 408.829 145.219 409.383 145.808C409.955 146.397 410.405 147.117 410.735 147.966C411.064 148.815 411.228 149.776 411.228 150.85C411.228 151.925 411.064 152.886 410.735 153.735C410.405 154.584 409.955 155.303 409.383 155.892C408.829 156.481 408.17 156.932 407.408 157.244C406.646 157.556 405.84 157.712 404.991 157.712C404.28 157.712 403.657 157.616 403.12 157.426C402.582 157.235 402.123 157.019 401.742 156.776C401.361 156.516 401.066 156.265 400.858 156.022C400.651 155.762 400.512 155.563 400.443 155.425V162.936ZM400.417 150.85C400.417 151.405 400.503 151.925 400.677 152.41C400.85 152.895 401.101 153.319 401.43 153.683C401.759 154.03 402.149 154.307 402.6 154.515C403.05 154.706 403.561 154.801 404.133 154.801C404.705 154.801 405.216 154.706 405.667 154.515C406.134 154.307 406.533 154.03 406.862 153.683C407.191 153.319 407.443 152.895 407.616 152.41C407.789 151.925 407.876 151.405 407.876 150.85C407.876 150.279 407.789 149.759 407.616 149.291C407.443 148.806 407.191 148.39 406.862 148.043C406.533 147.68 406.134 147.402 405.667 147.212C405.216 147.004 404.705 146.9 404.133 146.9C403.561 146.9 403.05 147.004 402.6 147.212C402.149 147.402 401.759 147.68 401.43 148.043C401.101 148.39 400.85 148.806 400.677 149.291C400.503 149.759 400.417 150.279 400.417 150.85ZM419.593 143.937C420.598 143.937 421.524 144.11 422.373 144.457C423.24 144.803 423.985 145.289 424.609 145.912C425.25 146.519 425.752 147.246 426.116 148.095C426.48 148.927 426.662 149.845 426.662 150.85C426.662 151.855 426.48 152.782 426.116 153.631C425.752 154.463 425.25 155.191 424.609 155.814C423.985 156.421 423.24 156.897 422.373 157.244C421.524 157.59 420.598 157.764 419.593 157.764C418.57 157.764 417.626 157.59 416.76 157.244C415.911 156.897 415.166 156.421 414.525 155.814C413.884 155.191 413.381 154.463 413.017 153.631C412.671 152.782 412.497 151.855 412.497 150.85C412.497 149.845 412.671 148.927 413.017 148.095C413.381 147.246 413.884 146.519 414.525 145.912C415.166 145.289 415.911 144.803 416.76 144.457C417.626 144.11 418.57 143.937 419.593 143.937ZM419.593 154.801C420.147 154.801 420.649 154.706 421.1 154.515C421.568 154.307 421.958 154.03 422.27 153.683C422.599 153.319 422.85 152.895 423.023 152.41C423.214 151.925 423.309 151.405 423.309 150.85C423.309 150.296 423.214 149.776 423.023 149.291C422.85 148.806 422.599 148.39 422.27 148.043C421.958 147.68 421.568 147.402 421.1 147.212C420.649 147.004 420.147 146.9 419.593 146.9C419.038 146.9 418.527 147.004 418.059 147.212C417.609 147.42 417.219 147.706 416.89 148.069C416.56 148.416 416.301 148.832 416.11 149.317C415.937 149.785 415.85 150.296 415.85 150.85C415.85 151.405 415.937 151.925 416.11 152.41C416.301 152.878 416.56 153.293 416.89 153.657C417.219 154.004 417.609 154.281 418.059 154.489C418.527 154.697 419.038 154.801 419.593 154.801Z" fill="#329DC7" style="fill:#329DC7;fill:color(display-p3 0.1961 0.6157 0.7804);fill-opacity:1;"/>
<path d="M41.9779 301.533L41.9779 298.726L49.5298 298.726L41.9779 293.068L41.9779 290.238L53.25 290.238L53.25 293.068L45.6759 293.068L53.25 298.726L53.25 301.533L41.9779 301.533ZM51.2451 282.734C51.2451 281.902 51.1411 281.256 50.9332 280.796C50.7104 280.335 50.3392 280.105 49.8194 280.105C49.0025 280.105 48.5941 280.788 48.5941 282.155L48.5941 283.981L46.5224 283.981L46.5224 282.244C46.5224 281.665 46.4258 281.204 46.2328 280.863C46.0249 280.506 45.6981 280.328 45.2526 280.328C44.8219 280.328 44.5026 280.551 44.2947 280.996C44.0719 281.427 43.9605 282.014 43.9605 282.756C43.9605 283.603 44.109 284.241 44.4061 284.672C44.6882 285.103 45.0373 285.415 45.4531 285.608L45.4531 288.325C44.9927 288.251 44.5397 288.088 44.0942 287.835C43.6338 287.583 43.2254 287.226 42.869 286.766C42.5125 286.306 42.2304 285.741 42.0224 285.073C41.7997 284.405 41.6883 283.618 41.6883 282.712C41.6883 281.019 41.9927 279.734 42.6016 278.858C43.1957 277.967 44.0051 277.521 45.0298 277.521C45.6981 277.521 46.2402 277.707 46.656 278.078C47.057 278.449 47.3243 278.873 47.458 279.348C47.6065 278.754 47.8887 278.256 48.3045 277.855C48.7204 277.439 49.255 277.232 49.9085 277.232C51.0223 277.232 51.906 277.722 52.5594 278.702C53.2129 279.667 53.5396 281.011 53.5396 282.734C53.5396 283.67 53.4208 284.494 53.1832 285.207C52.9455 285.92 52.6411 286.514 52.2698 286.989C51.8985 287.464 51.4827 287.835 51.0223 288.103C50.5471 288.37 50.0718 288.526 49.5966 288.57L49.5966 285.786C49.7748 285.712 49.9679 285.6 50.1758 285.452C50.3689 285.288 50.5471 285.08 50.7104 284.828C50.8589 284.575 50.9852 284.278 51.0891 283.937C51.1931 283.595 51.2451 283.194 51.2451 282.734ZM41.9779 275.262L41.9779 271.386L49.7971 267.643L41.9779 263.901L41.9779 260.113L53.25 260.113L53.25 262.876L44.8516 262.876L53.2946 266.819L53.2946 268.712L44.9184 272.633L53.25 272.633L53.25 275.262L41.9779 275.262ZM41.6883 252.39C41.6883 251.529 41.8368 250.734 42.1338 250.006C42.416 249.279 42.8244 248.655 43.3591 248.135C43.8789 247.615 44.5175 247.214 45.2749 246.932C46.0174 246.635 46.8491 246.487 47.7699 246.487L48.0818 246.487L48.0818 255.442C48.5273 255.412 48.9357 255.316 49.307 255.152C49.6783 254.974 50.005 254.744 50.2872 254.462C50.5693 254.18 50.7921 253.845 50.9555 253.459C51.104 253.073 51.1782 252.643 51.1782 252.167C51.1782 251.722 51.1337 251.336 51.0446 251.009C50.9406 250.682 50.8218 250.415 50.6882 250.207C50.5545 249.984 50.4208 249.813 50.2872 249.695C50.1387 249.561 50.0273 249.472 49.953 249.427L49.953 246.62C50.25 246.665 50.6065 246.799 51.0223 247.021C51.4233 247.244 51.8094 247.578 52.1807 248.024C52.552 248.469 52.8713 249.034 53.1386 249.717C53.4059 250.4 53.5396 251.217 53.5396 252.167C53.5396 253.088 53.3911 253.927 53.0941 254.685C52.797 255.427 52.3812 256.066 51.8466 256.6C51.3119 257.135 50.6882 257.551 49.9753 257.848C49.2476 258.145 48.4605 258.293 47.6139 258.293C46.7377 258.293 45.9358 258.152 45.208 257.87C44.4803 257.573 43.8566 257.165 43.3368 256.645C42.817 256.11 42.416 255.487 42.1338 254.774C41.8368 254.046 41.6883 253.251 41.6883 252.39ZM43.8937 252.39C43.8937 253.162 44.0942 253.808 44.4952 254.328C44.8813 254.833 45.4234 255.175 46.1214 255.353L46.1214 249.472C45.4085 249.68 44.859 250.036 44.4729 250.541C44.0868 251.046 43.8937 251.662 43.8937 252.39ZM41.9779 244.749L41.9779 241.919L46.2773 241.919L46.2773 236.528L41.9779 236.528L41.9779 233.699L53.25 233.699L53.25 236.528L48.7055 236.528L48.7055 241.919L53.25 241.919L53.25 244.749L41.9779 244.749ZM41.6883 225.967C41.6883 225.105 41.8368 224.311 42.1338 223.583C42.416 222.855 42.8244 222.232 43.3591 221.712C43.8789 221.192 44.5175 220.791 45.2749 220.509C46.0174 220.212 46.8491 220.063 47.7699 220.063L48.0818 220.063L48.0818 229.019C48.5273 228.989 48.9357 228.892 49.307 228.729C49.6783 228.551 50.005 228.321 50.2872 228.038C50.5693 227.756 50.7921 227.422 50.9555 227.036C51.104 226.65 51.1782 226.219 51.1782 225.744C51.1782 225.298 51.1337 224.912 51.0446 224.586C50.9406 224.259 50.8218 223.991 50.6882 223.784C50.5545 223.561 50.4208 223.39 50.2872 223.271C50.1387 223.138 50.0273 223.048 49.953 223.004L49.953 220.197C50.25 220.242 50.6065 220.375 51.0223 220.598C51.4233 220.821 51.8094 221.155 52.1807 221.6C52.552 222.046 52.8713 222.61 53.1386 223.293C53.4059 223.977 53.5396 224.793 53.5396 225.744C53.5396 226.665 53.3911 227.504 53.0941 228.261C52.797 229.004 52.3812 229.642 51.8466 230.177C51.3119 230.712 50.6882 231.127 49.9753 231.425C49.2476 231.722 48.4605 231.87 47.6139 231.87C46.7377 231.87 45.9358 231.729 45.208 231.447C44.4803 231.15 43.8566 230.741 43.3368 230.222C42.817 229.687 42.416 229.063 42.1338 228.35C41.8368 227.623 41.6883 226.828 41.6883 225.967ZM43.8937 225.967C43.8937 226.739 44.0942 227.385 44.4952 227.905C44.8813 228.41 45.4234 228.751 46.1214 228.93L46.1214 223.048C45.4085 223.256 44.859 223.613 44.4729 224.118C44.0868 224.623 43.8937 225.239 43.8937 225.967ZM41.9779 218.325L41.9779 215.496L46.2773 215.496L46.2773 210.105L41.9779 210.105L41.9779 207.276L53.25 207.276L53.25 210.105L48.7055 210.105L48.7055 215.496L53.25 215.496L53.25 218.325L41.9779 218.325ZM41.9779 204.689L41.9779 201.882L49.5298 201.882L41.9779 196.224L41.9779 193.395L53.25 193.395L53.25 196.224L45.6759 196.224L53.25 201.882L53.25 204.689L41.9779 204.689ZM53.25 183.284L49.4629 183.284L49.4629 185.868L53.25 188.497L53.25 191.682L49.0397 188.697C48.802 189.603 48.3936 190.264 47.8144 190.68C47.2204 191.096 46.5001 191.304 45.6536 191.304C45.1635 191.304 44.6957 191.222 44.2501 191.059C43.8046 190.895 43.4185 190.643 43.0917 190.301C42.7502 189.96 42.4828 189.522 42.2898 188.987C42.0818 188.452 41.9779 187.814 41.9779 187.071L41.9779 180.455L53.25 180.455L53.25 183.284ZM47.1461 183.284L44.2724 183.284L44.2724 186.692C44.2724 187.836 44.7402 188.408 45.6759 188.408C46.1362 188.408 46.5001 188.267 46.7674 187.984C47.0199 187.687 47.1461 187.257 47.1461 186.692L47.1461 183.284Z" fill="#A1A1A1" style="fill:#A1A1A1;fill:color(display-p3 0.6325 0.6325 0.6325);fill-opacity:1;"/>
<path d="M347.831 427.588H354.381C354.96 427.588 355.487 427.655 355.962 427.789C356.438 427.908 356.846 428.093 357.188 428.346C357.544 428.598 357.819 428.91 358.012 429.281C358.205 429.653 358.302 430.083 358.302 430.573C358.302 430.915 358.25 431.227 358.146 431.509C358.056 431.776 357.93 432.014 357.767 432.222C357.604 432.415 357.418 432.586 357.21 432.734C357.002 432.868 356.794 432.964 356.586 433.024C356.854 433.098 357.106 433.209 357.344 433.358C357.596 433.492 357.811 433.662 357.99 433.87C358.183 434.078 358.339 434.331 358.457 434.628C358.576 434.91 358.636 435.237 358.636 435.608C358.636 436.588 358.264 437.375 357.522 437.969C356.779 438.563 355.747 438.86 354.425 438.86H347.831V427.588ZM350.661 429.749V432.11H353.935C354.396 432.11 354.767 432.014 355.049 431.821C355.346 431.628 355.495 431.316 355.495 430.885C355.495 430.514 355.354 430.232 355.071 430.039C354.789 429.846 354.411 429.749 353.935 429.749H350.661ZM350.661 434.182V436.699H354.047C355.175 436.699 355.74 436.254 355.74 435.363C355.74 435.021 355.606 434.739 355.339 434.516C355.071 434.294 354.641 434.182 354.047 434.182H350.661ZM363.404 443.583H360.597V427.588H363.426V429.37C363.471 429.266 363.582 429.103 363.76 428.88C363.953 428.658 364.206 428.435 364.518 428.212C364.845 427.974 365.238 427.774 365.699 427.611C366.159 427.432 366.694 427.343 367.302 427.343C368.03 427.343 368.721 427.477 369.374 427.744C370.028 428.012 370.592 428.398 371.067 428.903C371.557 429.408 371.943 430.024 372.226 430.752C372.508 431.479 372.649 432.304 372.649 433.224C372.649 434.145 372.508 434.969 372.226 435.697C371.943 436.425 371.557 437.041 371.067 437.546C370.592 438.051 370.028 438.437 369.374 438.704C368.721 438.972 368.03 439.105 367.302 439.105C366.694 439.105 366.159 439.024 365.699 438.86C365.238 438.697 364.845 438.511 364.518 438.303C364.191 438.081 363.939 437.865 363.76 437.657C363.582 437.435 363.463 437.264 363.404 437.145V443.583ZM363.382 433.224C363.382 433.7 363.456 434.145 363.604 434.561C363.753 434.977 363.968 435.341 364.251 435.652C364.533 435.95 364.867 436.187 365.253 436.365C365.639 436.529 366.077 436.61 366.567 436.61C367.057 436.61 367.496 436.529 367.882 436.365C368.283 436.187 368.624 435.95 368.906 435.652C369.189 435.341 369.404 434.977 369.552 434.561C369.701 434.145 369.775 433.7 369.775 433.224C369.775 432.734 369.701 432.289 369.552 431.888C369.404 431.472 369.189 431.115 368.906 430.818C368.624 430.507 368.283 430.269 367.882 430.106C367.496 429.927 367.057 429.838 366.567 429.838C366.077 429.838 365.639 429.927 365.253 430.106C364.867 430.269 364.533 430.507 364.251 430.818C363.968 431.115 363.753 431.472 363.604 431.888C363.456 432.289 363.382 432.734 363.382 433.224ZM379.64 427.299C380.501 427.299 381.296 427.447 382.024 427.744C382.751 428.026 383.375 428.435 383.895 428.969C384.415 429.489 384.816 430.128 385.098 430.885C385.395 431.628 385.543 432.459 385.543 433.38V433.692H376.588C376.618 434.138 376.714 434.546 376.878 434.917C377.056 435.289 377.286 435.615 377.568 435.898C377.85 436.18 378.185 436.402 378.571 436.566C378.957 436.714 379.388 436.789 379.863 436.789C380.308 436.789 380.694 436.744 381.021 436.655C381.348 436.551 381.615 436.432 381.823 436.299C382.046 436.165 382.217 436.031 382.336 435.898C382.469 435.749 382.558 435.638 382.603 435.563H385.41C385.365 435.86 385.232 436.217 385.009 436.633C384.786 437.034 384.452 437.42 384.006 437.791C383.561 438.162 382.996 438.482 382.313 438.749C381.63 439.016 380.813 439.15 379.863 439.15C378.942 439.15 378.103 439.001 377.346 438.704C376.603 438.407 375.964 437.992 375.43 437.457C374.895 436.922 374.479 436.299 374.182 435.586C373.885 434.858 373.737 434.071 373.737 433.224C373.737 432.348 373.878 431.546 374.16 430.818C374.457 430.091 374.865 429.467 375.385 428.947C375.92 428.427 376.544 428.026 377.256 427.744C377.984 427.447 378.779 427.299 379.64 427.299ZM379.64 429.504C378.868 429.504 378.222 429.705 377.702 430.106C377.197 430.492 376.855 431.034 376.677 431.732H382.558C382.35 431.019 381.994 430.469 381.489 430.083C380.984 429.697 380.368 429.504 379.64 429.504ZM387.282 427.588H391.158L394.9 435.407L398.643 427.588H402.43V438.86H399.667V430.462L395.724 438.905H393.831L389.91 430.529V438.86H387.282V427.588ZM412.559 438.86V435.073H409.975L407.346 438.86H404.161L407.146 434.65C406.24 434.412 405.579 434.004 405.163 433.425C404.747 432.831 404.539 432.11 404.539 431.264C404.539 430.774 404.621 430.306 404.785 429.86C404.948 429.415 405.2 429.029 405.542 428.702C405.884 428.361 406.322 428.093 406.856 427.9C407.391 427.692 408.03 427.588 408.772 427.588H415.388V438.86H412.559ZM412.559 432.756V429.883H409.151C408.007 429.883 407.435 430.351 407.435 431.286C407.435 431.747 407.577 432.11 407.859 432.378C408.156 432.63 408.586 432.756 409.151 432.756H412.559Z" fill="#A1A1A1" style="fill:#A1A1A1;fill:color(display-p3 0.6325 0.6325 0.6325);fill-opacity:1;"/>
<path d="M546.382 198.112C546.087 198.163 545.766 198.215 545.42 198.267C545.125 198.302 544.762 198.337 544.328 198.371C543.913 198.389 543.453 198.397 542.951 198.397C541.062 198.397 539.624 197.999 538.637 197.202C537.649 196.405 537.155 195.045 537.155 193.121V189.613H540.456V192.94C540.456 193.841 540.638 194.508 541.002 194.941C541.383 195.374 542.111 195.591 543.185 195.591C543.67 195.591 544.103 195.582 544.484 195.565C544.865 195.547 545.203 195.521 545.498 195.487C545.81 195.452 546.104 195.409 546.382 195.357V189.613H549.682V202.764H546.382V198.112ZM558.695 189.275C559.7 189.275 560.626 189.448 561.475 189.795C562.324 190.124 563.052 190.6 563.659 191.224C564.265 191.831 564.733 192.576 565.062 193.459C565.409 194.326 565.582 195.296 565.582 196.37V196.734H555.134C555.169 197.254 555.281 197.73 555.472 198.163C555.68 198.597 555.948 198.978 556.278 199.307C556.607 199.636 556.997 199.896 557.447 200.087C557.898 200.26 558.4 200.347 558.954 200.347C559.474 200.347 559.925 200.295 560.306 200.191C560.687 200.069 560.999 199.931 561.242 199.775C561.501 199.619 561.701 199.463 561.839 199.307C561.995 199.134 562.099 199.004 562.151 198.917H565.426C565.374 199.264 565.218 199.68 564.958 200.165C564.698 200.633 564.308 201.083 563.789 201.516C563.269 201.949 562.61 202.322 561.813 202.634C561.016 202.946 560.063 203.102 558.954 203.102C557.88 203.102 556.901 202.928 556.018 202.582C555.151 202.235 554.406 201.75 553.783 201.126C553.159 200.503 552.674 199.775 552.327 198.943C551.981 198.094 551.807 197.176 551.807 196.188C551.807 195.166 551.972 194.23 552.301 193.381C552.648 192.532 553.124 191.805 553.731 191.198C554.354 190.592 555.082 190.124 555.914 189.795C556.763 189.448 557.69 189.275 558.695 189.275ZM558.695 191.848C557.794 191.848 557.04 192.082 556.433 192.55C555.844 193 555.446 193.633 555.238 194.447H562.099C561.857 193.615 561.441 192.974 560.852 192.524C560.263 192.073 559.544 191.848 558.695 191.848ZM570.884 208.273H567.61V189.613H570.91V191.692C570.962 191.571 571.092 191.38 571.3 191.12C571.525 190.86 571.82 190.6 572.184 190.341C572.565 190.063 573.024 189.829 573.561 189.639C574.098 189.431 574.722 189.327 575.433 189.327C576.282 189.327 577.087 189.483 577.85 189.795C578.612 190.107 579.27 190.557 579.825 191.146C580.397 191.735 580.847 192.454 581.176 193.303C581.505 194.152 581.67 195.114 581.67 196.188C581.67 197.263 581.505 198.224 581.176 199.073C580.847 199.922 580.397 200.641 579.825 201.23C579.27 201.819 578.612 202.27 577.85 202.582C577.087 202.894 576.282 203.05 575.433 203.05C574.722 203.05 574.098 202.954 573.561 202.764C573.024 202.573 572.565 202.356 572.184 202.114C571.803 201.854 571.508 201.603 571.3 201.36C571.092 201.1 570.954 200.901 570.884 200.762V208.273ZM570.858 196.188C570.858 196.743 570.945 197.263 571.118 197.748C571.292 198.233 571.543 198.657 571.872 199.021C572.201 199.368 572.591 199.645 573.042 199.853C573.492 200.043 574.003 200.139 574.575 200.139C575.147 200.139 575.658 200.043 576.108 199.853C576.576 199.645 576.975 199.368 577.304 199.021C577.633 198.657 577.884 198.233 578.058 197.748C578.231 197.263 578.317 196.743 578.317 196.188C578.317 195.617 578.231 195.097 578.058 194.629C577.884 194.144 577.633 193.728 577.304 193.381C576.975 193.018 576.576 192.74 576.108 192.55C575.658 192.342 575.147 192.238 574.575 192.238C574.003 192.238 573.492 192.342 573.042 192.55C572.591 192.74 572.201 193.018 571.872 193.381C571.543 193.728 571.292 194.144 571.118 194.629C570.945 195.097 570.858 195.617 570.858 196.188ZM583.823 189.613H587.123V194.629H593.413V189.613H596.714V202.764H593.413V197.462H587.123V202.764H583.823V189.613ZM607.216 193.693C608.152 193.693 608.949 193.815 609.607 194.057C610.283 194.282 610.829 194.594 611.245 194.993C611.661 195.391 611.964 195.868 612.154 196.422C612.362 196.959 612.466 197.548 612.466 198.189C612.466 198.779 612.362 199.35 612.154 199.905C611.964 200.459 611.661 200.953 611.245 201.386C610.829 201.802 610.292 202.14 609.633 202.4C608.975 202.642 608.178 202.764 607.242 202.764H599.731V189.613H603.032V193.693H607.216ZM603.032 196.396V200.087H606.723C608.299 200.087 609.088 199.454 609.088 198.189C609.088 197.635 608.888 197.202 608.49 196.89C608.091 196.561 607.502 196.396 606.723 196.396H603.032ZM614.441 189.613H617.768V202.764H614.441V189.613ZM620.767 189.613H624.041V198.423L630.643 189.613H633.944V202.764H630.643V193.927L624.041 202.764H620.767V189.613ZM627.394 185.403C627.897 185.403 628.26 185.238 628.486 184.909C628.711 184.58 628.824 184.216 628.824 183.817V183.375H631.449V183.869C631.449 184.424 631.362 184.943 631.189 185.429C631.033 185.914 630.79 186.338 630.461 186.702C630.132 187.049 629.707 187.326 629.187 187.534C628.685 187.742 628.087 187.846 627.394 187.846C626.701 187.846 626.095 187.742 625.575 187.534C625.072 187.326 624.657 187.049 624.327 186.702C623.998 186.338 623.747 185.914 623.574 185.429C623.418 184.943 623.34 184.424 623.34 183.869V183.375H625.965V183.817C625.965 184.216 626.077 184.58 626.303 184.909C626.528 185.238 626.892 185.403 627.394 185.403ZM644.045 189.613H654.649V202.764H651.349V192.446H646.748L646.306 197.124C646.22 198.112 646.081 198.969 645.891 199.697C645.7 200.425 645.432 201.022 645.085 201.49C644.738 201.958 644.297 202.313 643.76 202.556C643.222 202.781 642.564 202.894 641.784 202.894H640.901V199.879H641.213C641.594 199.879 641.906 199.835 642.148 199.749C642.408 199.645 642.616 199.48 642.772 199.255C642.928 199.012 643.049 198.692 643.136 198.293C643.222 197.895 643.292 197.392 643.344 196.786L644.045 189.613ZM663.658 189.275C664.663 189.275 665.59 189.448 666.439 189.795C667.288 190.124 668.016 190.6 668.623 191.224C669.229 191.831 669.697 192.576 670.026 193.459C670.372 194.326 670.546 195.296 670.546 196.37V196.734H660.098C660.133 197.254 660.245 197.73 660.436 198.163C660.644 198.597 660.912 198.978 661.241 199.307C661.571 199.636 661.96 199.896 662.411 200.087C662.861 200.26 663.364 200.347 663.918 200.347C664.438 200.347 664.889 200.295 665.27 200.191C665.651 200.069 665.963 199.931 666.205 199.775C666.465 199.619 666.665 199.463 666.803 199.307C666.959 199.134 667.063 199.004 667.115 198.917H670.39C670.338 199.264 670.182 199.68 669.922 200.165C669.662 200.633 669.272 201.083 668.752 201.516C668.233 201.949 667.574 202.322 666.777 202.634C665.98 202.946 665.027 203.102 663.918 203.102C662.844 203.102 661.865 202.928 660.982 202.582C660.115 202.235 659.37 201.75 658.746 201.126C658.123 200.503 657.638 199.775 657.291 198.943C656.944 198.094 656.771 197.176 656.771 196.188C656.771 195.166 656.936 194.23 657.265 193.381C657.612 192.532 658.088 191.805 658.694 191.198C659.318 190.592 660.046 190.124 660.878 189.795C661.727 189.448 662.654 189.275 663.658 189.275ZM663.658 191.848C662.758 191.848 662.004 192.082 661.397 192.55C660.808 193 660.41 193.633 660.202 194.447H667.063C666.821 193.615 666.405 192.974 665.816 192.524C665.227 192.073 664.507 191.848 663.658 191.848ZM679.617 189.977C680.57 189.977 681.436 190.133 682.216 190.445C683.013 190.739 683.688 191.172 684.243 191.744C684.815 192.316 685.248 193.009 685.542 193.823C685.854 194.62 686.01 195.513 686.01 196.5C686.01 197.47 685.837 198.363 685.49 199.177C685.144 199.974 684.659 200.667 684.035 201.256C683.411 201.845 682.666 202.305 681.8 202.634C680.934 202.946 679.981 203.102 678.941 203.102C677.867 203.102 676.897 202.937 676.03 202.608C675.164 202.279 674.419 201.802 673.795 201.178C673.189 200.537 672.712 199.758 672.366 198.839C672.036 197.921 671.872 196.881 671.872 195.72C671.872 195.131 671.88 194.586 671.898 194.083C671.932 193.581 671.976 192.974 672.028 192.264C672.132 191.155 672.331 190.159 672.626 189.275C672.937 188.374 673.388 187.603 673.977 186.962C674.583 186.304 675.346 185.758 676.264 185.325C677.182 184.891 678.3 184.571 679.617 184.363L684.841 183.505V186.416L679.669 187.248C678.854 187.386 678.161 187.568 677.59 187.794C677.035 188.019 676.567 188.322 676.186 188.703C675.805 189.067 675.51 189.526 675.302 190.081C675.112 190.635 674.982 191.302 674.913 192.082C675.311 191.441 675.9 190.93 676.68 190.549C677.477 190.167 678.456 189.977 679.617 189.977ZM678.941 200.191C679.547 200.191 680.085 200.095 680.552 199.905C681.02 199.714 681.41 199.454 681.722 199.125C682.034 198.796 682.268 198.415 682.424 197.982C682.58 197.531 682.658 197.046 682.658 196.526C682.658 196.024 682.58 195.556 682.424 195.123C682.268 194.672 682.034 194.282 681.722 193.953C681.41 193.624 681.02 193.364 680.552 193.173C680.085 192.983 679.547 192.888 678.941 192.888C678.335 192.888 677.797 192.983 677.33 193.173C676.862 193.364 676.472 193.624 676.16 193.953C675.848 194.282 675.614 194.672 675.458 195.123C675.302 195.556 675.225 196.024 675.225 196.526C675.225 197.046 675.302 197.531 675.458 197.982C675.614 198.415 675.848 198.796 676.16 199.125C676.472 199.454 676.862 199.714 677.33 199.905C677.797 200.095 678.335 200.191 678.941 200.191ZM694.156 189.275C695.161 189.275 696.088 189.448 696.937 189.795C697.786 190.124 698.513 190.6 699.12 191.224C699.726 191.831 700.194 192.576 700.523 193.459C700.87 194.326 701.043 195.296 701.043 196.37V196.734H690.595C690.63 197.254 690.742 197.73 690.933 198.163C691.141 198.597 691.41 198.978 691.739 199.307C692.068 199.636 692.458 199.896 692.908 200.087C693.359 200.26 693.861 200.347 694.416 200.347C694.935 200.347 695.386 200.295 695.767 200.191C696.148 200.069 696.46 199.931 696.703 199.775C696.963 199.619 697.162 199.463 697.301 199.307C697.456 199.134 697.56 199.004 697.612 198.917H700.887C700.835 199.264 700.679 199.68 700.419 200.165C700.159 200.633 699.77 201.083 699.25 201.516C698.73 201.949 698.072 202.322 697.275 202.634C696.478 202.946 695.525 203.102 694.416 203.102C693.341 203.102 692.362 202.928 691.479 202.582C690.613 202.235 689.867 201.75 689.244 201.126C688.62 200.503 688.135 199.775 687.788 198.943C687.442 198.094 687.269 197.176 687.269 196.188C687.269 195.166 687.433 194.23 687.762 193.381C688.109 192.532 688.585 191.805 689.192 191.198C689.815 190.592 690.543 190.124 691.375 189.795C692.224 189.448 693.151 189.275 694.156 189.275ZM694.156 191.848C693.255 191.848 692.501 192.082 691.895 192.55C691.306 193 690.907 193.633 690.699 194.447H697.56C697.318 193.615 696.902 192.974 696.313 192.524C695.724 192.073 695.005 191.848 694.156 191.848ZM711.907 192.446H707.437L707.203 194.343C707.117 195.071 707.021 195.72 706.917 196.292C706.831 196.864 706.735 197.375 706.631 197.826C706.527 198.259 706.406 198.649 706.268 198.995C706.129 199.342 705.973 199.654 705.8 199.931H711.907V192.446ZM701.174 206.636V199.931H702.603C702.794 199.654 702.967 199.342 703.123 198.995C703.279 198.649 703.417 198.241 703.539 197.774C703.677 197.306 703.799 196.777 703.903 196.188C704.024 195.599 704.128 194.923 704.214 194.161L704.76 189.613H715.208V199.931H717.495V206.636H714.558V202.764H704.11V206.636H701.174ZM726.363 193.693C727.299 193.693 728.096 193.815 728.754 194.057C729.43 194.282 729.975 194.594 730.391 194.993C730.807 195.391 731.11 195.868 731.301 196.422C731.509 196.959 731.613 197.548 731.613 198.189C731.613 198.779 731.509 199.35 731.301 199.905C731.11 200.459 730.807 200.953 730.391 201.386C729.975 201.802 729.438 202.14 728.78 202.4C728.122 202.642 727.325 202.764 726.389 202.764H718.878V189.613H722.179V193.693H726.363ZM722.179 196.396V200.087H725.869C727.446 200.087 728.234 199.454 728.234 198.189C728.234 197.635 728.035 197.202 727.636 196.89C727.238 196.561 726.649 196.396 725.869 196.396H722.179ZM733.03 208.144C733.515 207.364 733.957 206.515 734.356 205.597C734.772 204.678 734.997 203.734 735.032 202.764H733.16V198.345H737.137V202.348C737.137 203.509 736.963 204.592 736.617 205.597C736.27 206.601 735.898 207.45 735.499 208.144H733.03Z" fill="#092A39" style="fill:#092A39;fill:color(display-p3 0.0353 0.1647 0.2235);fill-opacity:1;"/>
<path d="M537.493 218.613H540.794V223.629H547.083V218.613H550.384V231.764H547.083V226.462H540.794V231.764H537.493V218.613ZM558.34 237.299H555.013L557.508 231.53L551.582 218.613H555.325L559.197 227.553L563.07 218.613H566.448L558.34 237.299ZM575.35 225.994L569.867 231.764H565.63L572.076 225.006L565.89 218.613H570.126L575.35 224.045V218.613H578.521V224.019L583.719 218.613H587.929L581.822 224.928L588.319 231.764H583.979L578.521 226.02V231.764H575.35V225.994ZM589.178 218.613H592.479V223.629H598.768V218.613H602.069V231.764H598.768V226.462H592.479V231.764H589.178V218.613ZM611.298 218.275C612.303 218.275 613.23 218.448 614.079 218.795C614.945 219.141 615.69 219.626 616.314 220.25C616.955 220.857 617.458 221.584 617.822 222.433C618.185 223.265 618.367 224.183 618.367 225.188C618.367 226.193 618.185 227.12 617.822 227.969C617.458 228.801 616.955 229.529 616.314 230.152C615.69 230.759 614.945 231.235 614.079 231.582C613.23 231.928 612.303 232.102 611.298 232.102C610.276 232.102 609.332 231.928 608.465 231.582C607.616 231.235 606.871 230.759 606.23 230.152C605.589 229.529 605.087 228.801 604.723 227.969C604.376 227.12 604.203 226.193 604.203 225.188C604.203 224.183 604.376 223.265 604.723 222.433C605.087 221.584 605.589 220.857 606.23 220.25C606.871 219.626 607.616 219.141 608.465 218.795C609.332 218.448 610.276 218.275 611.298 218.275ZM611.298 229.139C611.853 229.139 612.355 229.043 612.806 228.853C613.273 228.645 613.663 228.368 613.975 228.021C614.304 227.657 614.556 227.233 614.729 226.748C614.919 226.263 615.015 225.743 615.015 225.188C615.015 224.634 614.919 224.114 614.729 223.629C614.556 223.144 614.304 222.728 613.975 222.381C613.663 222.018 613.273 221.74 612.806 221.55C612.355 221.342 611.853 221.238 611.298 221.238C610.744 221.238 610.233 221.342 609.765 221.55C609.314 221.758 608.924 222.044 608.595 222.407C608.266 222.754 608.006 223.17 607.816 223.655C607.642 224.123 607.556 224.634 607.556 225.188C607.556 225.743 607.642 226.263 607.816 226.748C608.006 227.215 608.266 227.631 608.595 227.995C608.924 228.342 609.314 228.619 609.765 228.827C610.233 229.035 610.744 229.139 611.298 229.139ZM635.661 229.684C635.591 229.823 635.453 230.022 635.245 230.282C635.054 230.542 634.777 230.802 634.413 231.062C634.067 231.322 633.625 231.556 633.088 231.764C632.568 231.954 631.944 232.05 631.216 232.05C630.367 232.05 629.57 231.894 628.825 231.582C628.08 231.27 627.422 230.819 626.85 230.23C626.296 229.641 625.854 228.922 625.525 228.073C625.195 227.224 625.031 226.263 625.031 225.188C625.031 224.131 625.195 223.178 625.525 222.329C625.854 221.48 626.296 220.761 626.85 220.172C627.422 219.566 628.08 219.107 628.825 218.795C629.588 218.483 630.393 218.327 631.242 218.327C631.935 218.327 632.542 218.422 633.062 218.613C633.581 218.786 634.015 219.003 634.361 219.263C634.725 219.505 635.011 219.756 635.219 220.016C635.427 220.259 635.565 220.449 635.635 220.588V218.613H638.961V231.764H635.661V229.684ZM635.687 225.188C635.687 224.634 635.6 224.114 635.427 223.629C635.254 223.144 635.011 222.728 634.699 222.381C634.387 222.018 634.006 221.74 633.556 221.55C633.122 221.342 632.637 221.238 632.1 221.238C631.546 221.238 631.035 221.342 630.567 221.55C630.116 221.74 629.726 222.018 629.397 222.381C629.085 222.728 628.843 223.144 628.669 223.629C628.496 224.114 628.41 224.634 628.41 225.188C628.41 225.743 628.496 226.263 628.669 226.748C628.843 227.233 629.085 227.657 629.397 228.021C629.726 228.368 630.116 228.645 630.567 228.853C631.035 229.043 631.546 229.139 632.1 229.139C632.637 229.139 633.122 229.043 633.556 228.853C634.006 228.645 634.387 228.368 634.699 228.021C635.011 227.657 635.254 227.233 635.427 226.748C635.6 226.263 635.687 225.743 635.687 225.188ZM650.786 221.446H646.316L646.082 223.343C645.995 224.071 645.9 224.72 645.796 225.292C645.709 225.864 645.614 226.375 645.51 226.826C645.406 227.259 645.285 227.649 645.146 227.995C645.007 228.342 644.852 228.654 644.678 228.931H650.786V221.446ZM640.052 235.636V228.931H641.482C641.672 228.654 641.845 228.342 642.001 227.995C642.157 227.649 642.296 227.241 642.417 226.774C642.556 226.306 642.677 225.777 642.781 225.188C642.902 224.599 643.006 223.923 643.093 223.161L643.639 218.613H654.087V228.931H656.374V235.636H653.437V231.764H642.989V235.636H640.052ZM667.275 229.684C667.205 229.823 667.067 230.022 666.859 230.282C666.668 230.542 666.391 230.802 666.027 231.062C665.681 231.322 665.239 231.556 664.702 231.764C664.182 231.954 663.558 232.05 662.83 232.05C661.981 232.05 661.184 231.894 660.439 231.582C659.694 231.27 659.036 230.819 658.464 230.23C657.91 229.641 657.468 228.922 657.139 228.073C656.81 227.224 656.645 226.263 656.645 225.188C656.645 224.131 656.81 223.178 657.139 222.329C657.468 221.48 657.91 220.761 658.464 220.172C659.036 219.566 659.694 219.107 660.439 218.795C661.202 218.483 662.007 218.327 662.856 218.327C663.55 218.327 664.156 218.422 664.676 218.613C665.196 218.786 665.629 219.003 665.975 219.263C666.339 219.505 666.625 219.756 666.833 220.016C667.041 220.259 667.179 220.449 667.249 220.588V218.613H670.575V231.764H667.275V229.684ZM667.301 225.188C667.301 224.634 667.214 224.114 667.041 223.629C666.868 223.144 666.625 222.728 666.313 222.381C666.001 222.018 665.62 221.74 665.17 221.55C664.736 221.342 664.251 221.238 663.714 221.238C663.16 221.238 662.649 221.342 662.181 221.55C661.73 221.74 661.34 222.018 661.011 222.381C660.699 222.728 660.457 223.144 660.283 223.629C660.11 224.114 660.024 224.634 660.024 225.188C660.024 225.743 660.11 226.263 660.283 226.748C660.457 227.233 660.699 227.657 661.011 228.021C661.34 228.368 661.73 228.645 662.181 228.853C662.649 229.043 663.16 229.139 663.714 229.139C664.251 229.139 664.736 229.043 665.17 228.853C665.62 228.645 666.001 228.368 666.313 228.021C666.625 227.657 666.868 227.233 667.041 226.748C667.214 226.263 667.301 225.743 667.301 225.188ZM673.563 218.613H686.194V231.764H682.894V221.446H676.864V231.764H673.563V218.613ZM692.909 221.446H687.789V218.613H701.303V221.446H696.209V231.764H692.909V221.446ZM702.919 218.613H706.193V227.423L712.795 218.613H716.095V231.764H712.795V222.927L706.193 231.764H702.919V218.613ZM722.356 237.273H719.081V218.613H722.382V220.692C722.434 220.571 722.564 220.38 722.771 220.12C722.997 219.86 723.291 219.6 723.655 219.341C724.036 219.063 724.495 218.829 725.033 218.639C725.57 218.431 726.193 218.327 726.904 218.327C727.753 218.327 728.559 218.483 729.321 218.795C730.083 219.107 730.742 219.557 731.296 220.146C731.868 220.735 732.318 221.454 732.648 222.303C732.977 223.152 733.141 224.114 733.141 225.188C733.141 226.263 732.977 227.224 732.648 228.073C732.318 228.922 731.868 229.641 731.296 230.23C730.742 230.819 730.083 231.27 729.321 231.582C728.559 231.894 727.753 232.05 726.904 232.05C726.193 232.05 725.57 231.954 725.033 231.764C724.495 231.573 724.036 231.356 723.655 231.114C723.274 230.854 722.979 230.603 722.771 230.36C722.564 230.1 722.425 229.901 722.356 229.762V237.273ZM722.33 225.188C722.33 225.743 722.416 226.263 722.59 226.748C722.763 227.233 723.014 227.657 723.343 228.021C723.672 228.368 724.062 228.645 724.513 228.853C724.963 229.043 725.474 229.139 726.046 229.139C726.618 229.139 727.129 229.043 727.58 228.853C728.047 228.645 728.446 228.368 728.775 228.021C729.104 227.657 729.356 227.233 729.529 226.748C729.702 226.263 729.789 225.743 729.789 225.188C729.789 224.617 729.702 224.097 729.529 223.629C729.356 223.144 729.104 222.728 728.775 222.381C728.446 222.018 728.047 221.74 727.58 221.55C727.129 221.342 726.618 221.238 726.046 221.238C725.474 221.238 724.963 221.342 724.513 221.55C724.062 221.74 723.672 222.018 723.343 222.381C723.014 222.728 722.763 223.144 722.59 223.629C722.416 224.097 722.33 224.617 722.33 225.188ZM741.506 218.275C742.511 218.275 743.437 218.448 744.286 218.795C745.153 219.141 745.898 219.626 746.522 220.25C747.163 220.857 747.665 221.584 748.029 222.433C748.393 223.265 748.575 224.183 748.575 225.188C748.575 226.193 748.393 227.12 748.029 227.969C747.665 228.801 747.163 229.529 746.522 230.152C745.898 230.759 745.153 231.235 744.286 231.582C743.437 231.928 742.511 232.102 741.506 232.102C740.483 232.102 739.539 231.928 738.673 231.582C737.824 231.235 737.079 230.759 736.438 230.152C735.796 229.529 735.294 228.801 734.93 227.969C734.584 227.12 734.41 226.193 734.41 225.188C734.41 224.183 734.584 223.265 734.93 222.433C735.294 221.584 735.796 220.857 736.438 220.25C737.079 219.626 737.824 219.141 738.673 218.795C739.539 218.448 740.483 218.275 741.506 218.275ZM741.506 229.139C742.06 229.139 742.562 229.043 743.013 228.853C743.481 228.645 743.871 228.368 744.183 228.021C744.512 227.657 744.763 227.233 744.936 226.748C745.127 226.263 745.222 225.743 745.222 225.188C745.222 224.634 745.127 224.114 744.936 223.629C744.763 223.144 744.512 222.728 744.183 222.381C743.871 222.018 743.481 221.74 743.013 221.55C742.562 221.342 742.06 221.238 741.506 221.238C740.951 221.238 740.44 221.342 739.972 221.55C739.522 221.758 739.132 222.044 738.803 222.407C738.473 222.754 738.214 223.17 738.023 223.655C737.85 224.123 737.763 224.634 737.763 225.188C737.763 225.743 737.85 226.263 738.023 226.748C738.214 227.215 738.473 227.631 738.803 227.995C739.132 228.342 739.522 228.619 739.972 228.827C740.44 229.035 740.951 229.139 741.506 229.139ZM750.695 218.613H758.336C759.012 218.613 759.627 218.691 760.181 218.847C760.736 218.985 761.212 219.202 761.611 219.497C762.026 219.791 762.347 220.155 762.572 220.588C762.798 221.021 762.91 221.524 762.91 222.096C762.91 222.494 762.849 222.858 762.728 223.187C762.624 223.499 762.477 223.776 762.286 224.019C762.096 224.244 761.879 224.443 761.637 224.617C761.394 224.772 761.151 224.885 760.909 224.954C761.221 225.041 761.515 225.171 761.793 225.344C762.087 225.5 762.338 225.699 762.546 225.942C762.772 226.185 762.953 226.479 763.092 226.826C763.231 227.155 763.3 227.536 763.3 227.969C763.3 229.113 762.867 230.031 762 230.724C761.134 231.417 759.93 231.764 758.388 231.764H750.695V218.613ZM753.996 221.134V223.889H757.816C758.353 223.889 758.786 223.776 759.116 223.551C759.462 223.326 759.635 222.962 759.635 222.459C759.635 222.026 759.471 221.697 759.142 221.472C758.812 221.247 758.371 221.134 757.816 221.134H753.996ZM753.996 226.306V229.243H757.946C759.263 229.243 759.921 228.723 759.921 227.683C759.921 227.285 759.765 226.956 759.454 226.696C759.142 226.436 758.639 226.306 757.946 226.306H753.996ZM775.36 229.684C775.291 229.823 775.152 230.022 774.945 230.282C774.754 230.542 774.477 230.802 774.113 231.062C773.766 231.322 773.325 231.556 772.787 231.764C772.268 231.954 771.644 232.05 770.916 232.05C770.067 232.05 769.27 231.894 768.525 231.582C767.78 231.27 767.122 230.819 766.55 230.23C765.995 229.641 765.554 228.922 765.224 228.073C764.895 227.224 764.731 226.263 764.731 225.188C764.731 224.131 764.895 223.178 765.224 222.329C765.554 221.48 765.995 220.761 766.55 220.172C767.122 219.566 767.78 219.107 768.525 218.795C769.287 218.483 770.093 218.327 770.942 218.327C771.635 218.327 772.242 218.422 772.761 218.613C773.281 218.786 773.714 219.003 774.061 219.263C774.425 219.505 774.711 219.756 774.919 220.016C775.127 220.259 775.265 220.449 775.334 220.588V218.613H778.661V231.764H775.36V229.684ZM775.386 225.188C775.386 224.634 775.3 224.114 775.127 223.629C774.953 223.144 774.711 222.728 774.399 222.381C774.087 222.018 773.706 221.74 773.255 221.55C772.822 221.342 772.337 221.238 771.8 221.238C771.245 221.238 770.734 221.342 770.266 221.55C769.816 221.74 769.426 222.018 769.097 222.381C768.785 222.728 768.542 223.144 768.369 223.629C768.196 224.114 768.109 224.634 768.109 225.188C768.109 225.743 768.196 226.263 768.369 226.748C768.542 227.233 768.785 227.657 769.097 228.021C769.426 228.368 769.816 228.645 770.266 228.853C770.734 229.043 771.245 229.139 771.8 229.139C772.337 229.139 772.822 229.043 773.255 228.853C773.706 228.645 774.087 228.368 774.399 228.021C774.711 227.657 774.953 227.233 775.127 226.748C775.3 226.263 775.386 225.743 775.386 225.188ZM785.34 221.446H780.22V218.613H793.734V221.446H788.64V231.764H785.34V221.446ZM802.835 222.693C803.77 222.693 804.567 222.815 805.226 223.057C805.901 223.282 806.447 223.594 806.863 223.993C807.279 224.391 807.582 224.868 807.773 225.422C807.981 225.959 808.084 226.548 808.084 227.189C808.084 227.779 807.981 228.35 807.773 228.905C807.582 229.459 807.279 229.953 806.863 230.386C806.447 230.802 805.91 231.14 805.252 231.4C804.593 231.642 803.796 231.764 802.861 231.764H795.35V218.613H798.65V222.693H802.835ZM798.65 225.396V229.087H802.341C803.917 229.087 804.706 228.454 804.706 227.189C804.706 226.635 804.507 226.202 804.108 225.89C803.71 225.561 803.12 225.396 802.341 225.396H798.65ZM818.881 222.953C818.829 222.867 818.734 222.728 818.595 222.537C818.474 222.347 818.283 222.156 818.024 221.966C817.781 221.758 817.469 221.584 817.088 221.446C816.724 221.29 816.282 221.212 815.762 221.212C815.26 221.212 814.792 221.316 814.359 221.524C813.943 221.732 813.579 222.018 813.267 222.381C812.973 222.728 812.739 223.144 812.566 223.629C812.41 224.114 812.332 224.634 812.332 225.188C812.332 225.743 812.41 226.263 812.566 226.748C812.739 227.233 812.973 227.657 813.267 228.021C813.579 228.368 813.943 228.645 814.359 228.853C814.792 229.061 815.269 229.165 815.788 229.165C816.326 229.165 816.785 229.095 817.166 228.957C817.547 228.801 817.859 228.628 818.101 228.437C818.344 228.246 818.526 228.056 818.647 227.865C818.786 227.657 818.881 227.51 818.933 227.423H822.182C822.147 227.77 822.009 228.212 821.766 228.749C821.541 229.269 821.177 229.78 820.674 230.282C820.172 230.785 819.514 231.218 818.699 231.582C817.902 231.928 816.915 232.102 815.736 232.102C814.783 232.102 813.891 231.937 813.059 231.608C812.245 231.261 811.526 230.785 810.902 230.178C810.296 229.555 809.819 228.827 809.473 227.995C809.126 227.146 808.953 226.211 808.953 225.188C808.953 224.183 809.126 223.256 809.473 222.407C809.819 221.558 810.296 220.831 810.902 220.224C811.509 219.6 812.219 219.124 813.034 218.795C813.865 218.448 814.757 218.275 815.71 218.275C816.871 218.275 817.85 218.457 818.647 218.821C819.462 219.167 820.12 219.592 820.623 220.094C821.125 220.579 821.497 221.091 821.74 221.628C821.983 222.147 822.13 222.589 822.182 222.953H818.881ZM832.83 231.764V227.345H829.815L826.748 231.764H823.032L826.514 226.852C825.458 226.574 824.687 226.098 824.201 225.422C823.716 224.729 823.474 223.889 823.474 222.901C823.474 222.329 823.569 221.784 823.76 221.264C823.95 220.744 824.245 220.294 824.643 219.912C825.042 219.514 825.553 219.202 826.177 218.977C826.8 218.734 827.545 218.613 828.412 218.613H836.131V231.764H832.83ZM832.83 224.642V221.29H828.854C827.519 221.29 826.852 221.836 826.852 222.927C826.852 223.464 827.017 223.889 827.346 224.201C827.693 224.495 828.195 224.642 828.854 224.642H832.83Z" fill="#EA4310" style="fill:#EA4310;fill:color(display-p3 0.9163 0.2626 0.0637);fill-opacity:1;"/>
<path d="M311.58 374.636H314.854V380.172L320.936 374.636H325.276L318.285 380.926L325.614 387.787H321.196L314.854 381.887V387.787H311.58V374.636ZM332.305 374.298C333.31 374.298 334.237 374.472 335.086 374.818C335.952 375.165 336.697 375.65 337.321 376.274C337.962 376.88 338.465 377.608 338.829 378.457C339.192 379.288 339.374 380.207 339.374 381.212C339.374 382.217 339.192 383.144 338.829 383.993C338.465 384.824 337.962 385.552 337.321 386.176C336.697 386.782 335.952 387.259 335.086 387.605C334.237 387.952 333.31 388.125 332.305 388.125C331.283 388.125 330.339 387.952 329.472 387.605C328.623 387.259 327.878 386.782 327.237 386.176C326.596 385.552 326.094 384.824 325.73 383.993C325.383 383.144 325.21 382.217 325.21 381.212C325.21 380.207 325.383 379.288 325.73 378.457C326.094 377.608 326.596 376.88 327.237 376.274C327.878 375.65 328.623 375.165 329.472 374.818C330.339 374.472 331.283 374.298 332.305 374.298ZM332.305 385.162C332.86 385.162 333.362 385.067 333.813 384.876C334.28 384.668 334.67 384.391 334.982 384.045C335.311 383.681 335.563 383.256 335.736 382.771C335.926 382.286 336.022 381.766 336.022 381.212C336.022 380.657 335.926 380.137 335.736 379.652C335.563 379.167 335.311 378.751 334.982 378.405C334.67 378.041 334.28 377.764 333.813 377.573C333.362 377.365 332.86 377.261 332.305 377.261C331.751 377.261 331.24 377.365 330.772 377.573C330.321 377.781 329.931 378.067 329.602 378.431C329.273 378.777 329.013 379.193 328.823 379.678C328.649 380.146 328.563 380.657 328.563 381.212C328.563 381.766 328.649 382.286 328.823 382.771C329.013 383.239 329.273 383.655 329.602 384.019C329.931 384.365 330.321 384.642 330.772 384.85C331.24 385.058 331.751 385.162 332.305 385.162ZM341.495 374.636H346.017L350.383 383.759L354.749 374.636H359.168V387.787H355.945V377.989L351.345 387.839H349.136L344.561 378.067V387.787H341.495V374.636ZM362.175 374.636H374.806V387.787H371.505V377.469H365.475V387.787H362.175V374.636ZM387.601 385.708C387.532 385.847 387.394 386.046 387.186 386.306C386.995 386.566 386.718 386.825 386.354 387.085C386.007 387.345 385.566 387.579 385.029 387.787C384.509 387.978 383.885 388.073 383.157 388.073C382.308 388.073 381.511 387.917 380.766 387.605C380.021 387.293 379.363 386.843 378.791 386.254C378.237 385.665 377.795 384.946 377.466 384.097C377.136 383.248 376.972 382.286 376.972 381.212C376.972 380.155 377.136 379.202 377.466 378.353C377.795 377.504 378.237 376.785 378.791 376.196C379.363 375.589 380.021 375.13 380.766 374.818C381.529 374.506 382.334 374.35 383.183 374.35C383.876 374.35 384.483 374.446 385.003 374.636C385.522 374.81 385.955 375.026 386.302 375.286C386.666 375.529 386.952 375.78 387.16 376.04C387.368 376.282 387.506 376.473 387.576 376.612V374.636H390.902V387.787H387.601V385.708ZM387.627 381.212C387.627 380.657 387.541 380.137 387.368 379.652C387.194 379.167 386.952 378.751 386.64 378.405C386.328 378.041 385.947 377.764 385.496 377.573C385.063 377.365 384.578 377.261 384.041 377.261C383.486 377.261 382.975 377.365 382.508 377.573C382.057 377.764 381.667 378.041 381.338 378.405C381.026 378.751 380.784 379.167 380.61 379.652C380.437 380.137 380.35 380.657 380.35 381.212C380.35 381.766 380.437 382.286 380.61 382.771C380.784 383.256 381.026 383.681 381.338 384.045C381.667 384.391 382.057 384.668 382.508 384.876C382.975 385.067 383.486 385.162 384.041 385.162C384.578 385.162 385.063 385.067 385.496 384.876C385.947 384.668 386.328 384.391 386.64 384.045C386.952 383.681 387.194 383.256 387.368 382.771C387.541 382.286 387.627 381.766 387.627 381.212ZM393.89 374.636H397.191V379.652H403.48V374.636H406.781V387.787H403.48V382.485H397.191V387.787H393.89V374.636ZM409.799 374.636H413.073V383.447L419.675 374.636H422.976V387.787H419.675V378.951L413.073 387.787H409.799V374.636ZM425.961 374.636H429.236V383.447L435.837 374.636H439.138V387.787H435.837V378.951L429.236 387.787H425.961V374.636ZM447.524 374.636H452.047L456.413 383.759L460.779 374.636H465.197V387.787H461.975V377.989L457.375 387.839H455.165L450.591 378.067V387.787H447.524V374.636ZM474.208 374.298C475.213 374.298 476.14 374.472 476.989 374.818C477.838 375.147 478.566 375.624 479.172 376.248C479.779 376.854 480.246 377.599 480.576 378.483C480.922 379.349 481.095 380.319 481.095 381.394V381.757H470.648C470.682 382.277 470.795 382.754 470.985 383.187C471.193 383.62 471.462 384.001 471.791 384.33C472.12 384.66 472.51 384.92 472.961 385.11C473.411 385.283 473.914 385.37 474.468 385.37C474.988 385.37 475.438 385.318 475.819 385.214C476.201 385.093 476.513 384.954 476.755 384.798C477.015 384.642 477.214 384.486 477.353 384.33C477.509 384.157 477.613 384.027 477.665 383.941H480.939C480.887 384.287 480.732 384.703 480.472 385.188C480.212 385.656 479.822 386.106 479.302 386.54C478.782 386.973 478.124 387.345 477.327 387.657C476.53 387.969 475.577 388.125 474.468 388.125C473.394 388.125 472.415 387.952 471.531 387.605C470.665 387.259 469.92 386.774 469.296 386.15C468.672 385.526 468.187 384.798 467.841 383.967C467.494 383.118 467.321 382.199 467.321 381.212C467.321 380.189 467.485 379.254 467.815 378.405C468.161 377.556 468.638 376.828 469.244 376.222C469.868 375.615 470.596 375.147 471.427 374.818C472.276 374.472 473.203 374.298 474.208 374.298ZM474.208 376.871C473.307 376.871 472.553 377.105 471.947 377.573C471.358 378.024 470.959 378.656 470.752 379.47H477.613C477.37 378.639 476.954 377.998 476.365 377.547C475.776 377.097 475.057 376.871 474.208 376.871ZM483.123 374.636H486.424V379.652H492.713V374.636H496.014V387.787H492.713V382.485H486.424V387.787H483.123V374.636ZM507.842 387.787V383.369H504.827L501.761 387.787H498.044L501.527 382.875C500.47 382.598 499.699 382.121 499.214 381.446C498.729 380.753 498.486 379.912 498.486 378.925C498.486 378.353 498.581 377.807 498.772 377.287C498.962 376.767 499.257 376.317 499.656 375.936C500.054 375.537 500.565 375.225 501.189 375C501.813 374.758 502.558 374.636 503.424 374.636H511.143V387.787H507.842ZM507.842 380.666V377.313H503.866C502.532 377.313 501.865 377.859 501.865 378.951C501.865 379.488 502.029 379.912 502.358 380.224C502.705 380.519 503.207 380.666 503.866 380.666H507.842ZM514.076 374.636H517.377V379.652H519.508C519.681 378.855 519.967 378.128 520.366 377.469C520.781 376.811 521.284 376.248 521.873 375.78C522.462 375.312 523.129 374.948 523.874 374.688C524.619 374.428 525.425 374.298 526.291 374.298C527.279 374.298 528.197 374.472 529.046 374.818C529.895 375.165 530.623 375.65 531.229 376.274C531.853 376.88 532.338 377.608 532.685 378.457C533.049 379.288 533.231 380.207 533.231 381.212C533.231 382.217 533.049 383.144 532.685 383.993C532.338 384.824 531.853 385.552 531.229 386.176C530.623 386.782 529.895 387.259 529.046 387.605C528.197 387.952 527.279 388.125 526.291 388.125C525.408 388.125 524.576 387.986 523.796 387.709C523.034 387.432 522.35 387.051 521.743 386.566C521.154 386.063 520.66 385.465 520.262 384.772C519.863 384.079 519.595 383.317 519.456 382.485H517.377V387.787H514.076V374.636ZM526.291 385.188C526.828 385.188 527.314 385.084 527.747 384.876C528.197 384.668 528.578 384.391 528.89 384.045C529.202 383.681 529.445 383.256 529.618 382.771C529.791 382.286 529.878 381.766 529.878 381.212C529.878 380.657 529.791 380.137 529.618 379.652C529.445 379.167 529.202 378.751 528.89 378.405C528.578 378.041 528.197 377.755 527.747 377.547C527.314 377.339 526.828 377.235 526.291 377.235C525.754 377.235 525.26 377.339 524.81 377.547C524.377 377.755 524.004 378.041 523.692 378.405C523.38 378.751 523.138 379.167 522.965 379.652C522.791 380.137 522.705 380.657 522.705 381.212C522.705 381.766 522.791 382.286 522.965 382.771C523.138 383.256 523.38 383.681 523.692 384.045C524.004 384.391 524.377 384.668 524.81 384.876C525.26 385.084 525.754 385.188 526.291 385.188ZM538.549 377.469H533.43V374.636H546.944V377.469H541.85V387.787H538.549V377.469ZM557.096 378.977C557.044 378.89 556.949 378.751 556.81 378.561C556.689 378.37 556.498 378.18 556.239 377.989C555.996 377.781 555.684 377.608 555.303 377.469C554.939 377.313 554.497 377.235 553.977 377.235C553.475 377.235 553.007 377.339 552.574 377.547C552.158 377.755 551.794 378.041 551.482 378.405C551.188 378.751 550.954 379.167 550.781 379.652C550.625 380.137 550.547 380.657 550.547 381.212C550.547 381.766 550.625 382.286 550.781 382.771C550.954 383.256 551.188 383.681 551.482 384.045C551.794 384.391 552.158 384.668 552.574 384.876C553.007 385.084 553.484 385.188 554.003 385.188C554.541 385.188 555 385.119 555.381 384.98C555.762 384.824 556.074 384.651 556.317 384.46C556.559 384.27 556.741 384.079 556.862 383.889C557.001 383.681 557.096 383.533 557.148 383.447H560.397C560.362 383.793 560.224 384.235 559.981 384.772C559.756 385.292 559.392 385.803 558.889 386.306C558.387 386.808 557.729 387.241 556.914 387.605C556.117 387.952 555.13 388.125 553.951 388.125C552.998 388.125 552.106 387.96 551.275 387.631C550.46 387.285 549.741 386.808 549.117 386.202C548.511 385.578 548.034 384.85 547.688 384.019C547.341 383.17 547.168 382.234 547.168 381.212C547.168 380.207 547.341 379.28 547.688 378.431C548.034 377.582 548.511 376.854 549.117 376.248C549.724 375.624 550.434 375.147 551.249 374.818C552.08 374.472 552.973 374.298 553.925 374.298C555.086 374.298 556.065 374.48 556.862 374.844C557.677 375.191 558.335 375.615 558.838 376.118C559.34 376.603 559.712 377.114 559.955 377.651C560.198 378.171 560.345 378.613 560.397 378.977H557.096ZM571.045 387.787V383.369H568.03L564.963 387.787H561.247L564.729 382.875C563.673 382.598 562.902 382.121 562.416 381.446C561.931 380.753 561.689 379.912 561.689 378.925C561.689 378.353 561.784 377.807 561.975 377.287C562.165 376.767 562.46 376.317 562.858 375.936C563.257 375.537 563.768 375.225 564.392 375C565.015 374.758 565.76 374.636 566.627 374.636H574.346V387.787H571.045ZM571.045 380.666V377.313H567.069C565.734 377.313 565.067 377.859 565.067 378.951C565.067 379.488 565.232 379.912 565.561 380.224C565.908 380.519 566.41 380.666 567.069 380.666H571.045Z" fill="#092A39" style="fill:#092A39;fill:color(display-p3 0.0353 0.1647 0.2235);fill-opacity:1;"/>
<path d="M582.732 374.636H587.254L591.62 383.759L595.987 374.636H600.405V387.787H597.182V377.989L592.582 387.839H590.373L585.799 378.067V387.787H582.732V374.636ZM609.415 374.298C610.42 374.298 611.347 374.472 612.196 374.818C613.045 375.147 613.773 375.624 614.38 376.248C614.986 376.854 615.454 377.599 615.783 378.483C616.13 379.349 616.303 380.319 616.303 381.394V381.757H605.855C605.89 382.277 606.002 382.754 606.193 383.187C606.401 383.62 606.669 384.001 606.998 384.33C607.328 384.66 607.718 384.92 608.168 385.11C608.618 385.283 609.121 385.37 609.675 385.37C610.195 385.37 610.646 385.318 611.027 385.214C611.408 385.093 611.72 384.954 611.962 384.798C612.222 384.642 612.422 384.486 612.56 384.33C612.716 384.157 612.82 384.027 612.872 383.941H616.147C616.095 384.287 615.939 384.703 615.679 385.188C615.419 385.656 615.029 386.106 614.509 386.54C613.99 386.973 613.331 387.345 612.534 387.657C611.737 387.969 610.784 388.125 609.675 388.125C608.601 388.125 607.622 387.952 606.739 387.605C605.872 387.259 605.127 386.774 604.503 386.15C603.88 385.526 603.395 384.798 603.048 383.967C602.701 383.118 602.528 382.199 602.528 381.212C602.528 380.189 602.693 379.254 603.022 378.405C603.369 377.556 603.845 376.828 604.451 376.222C605.075 375.615 605.803 375.147 606.635 374.818C607.484 374.472 608.411 374.298 609.415 374.298ZM609.415 376.871C608.515 376.871 607.761 377.105 607.154 377.573C606.565 378.024 606.167 378.656 605.959 379.47H612.82C612.578 378.639 612.162 377.998 611.573 377.547C610.984 377.097 610.264 376.871 609.415 376.871ZM627.167 377.469H622.697L622.463 379.366C622.376 380.094 622.281 380.744 622.177 381.316C622.09 381.887 621.995 382.399 621.891 382.849C621.787 383.282 621.666 383.672 621.527 384.019C621.389 384.365 621.233 384.677 621.059 384.954H627.167V377.469ZM616.433 391.66V384.954H617.863C618.053 384.677 618.227 384.365 618.383 384.019C618.538 383.672 618.677 383.265 618.798 382.797C618.937 382.329 619.058 381.801 619.162 381.212C619.284 380.623 619.387 379.947 619.474 379.185L620.02 374.636H630.468V384.954H632.755V391.66H629.818V387.787H619.37V391.66H616.433ZM635.853 374.636H646.457V387.787H643.156V377.469H638.556L638.114 382.147C638.027 383.135 637.889 383.993 637.698 384.72C637.508 385.448 637.239 386.046 636.893 386.514C636.546 386.981 636.104 387.337 635.567 387.579C635.03 387.804 634.372 387.917 633.592 387.917H632.708V384.902H633.02C633.401 384.902 633.713 384.859 633.956 384.772C634.216 384.668 634.424 384.504 634.579 384.278C634.735 384.036 634.857 383.715 634.943 383.317C635.03 382.918 635.099 382.416 635.151 381.809L635.853 374.636ZM655.466 374.298C656.471 374.298 657.398 374.472 658.247 374.818C659.096 375.147 659.824 375.624 660.43 376.248C661.036 376.854 661.504 377.599 661.834 378.483C662.18 379.349 662.353 380.319 662.353 381.394V381.757H651.905C651.94 382.277 652.053 382.754 652.243 383.187C652.451 383.62 652.72 384.001 653.049 384.33C653.378 384.66 653.768 384.92 654.219 385.11C654.669 385.283 655.171 385.37 655.726 385.37C656.246 385.37 656.696 385.318 657.077 385.214C657.459 385.093 657.77 384.954 658.013 384.798C658.273 384.642 658.472 384.486 658.611 384.33C658.767 384.157 658.871 384.027 658.923 383.941H662.197C662.145 384.287 661.989 384.703 661.73 385.188C661.47 385.656 661.08 386.106 660.56 386.54C660.04 386.973 659.382 387.345 658.585 387.657C657.788 387.969 656.835 388.125 655.726 388.125C654.652 388.125 653.673 387.952 652.789 387.605C651.923 387.259 651.178 386.774 650.554 386.15C649.93 385.526 649.445 384.798 649.099 383.967C648.752 383.118 648.579 382.199 648.579 381.212C648.579 380.189 648.743 379.254 649.073 378.405C649.419 377.556 649.896 376.828 650.502 376.222C651.126 375.615 651.853 375.147 652.685 374.818C653.534 374.472 654.461 374.298 655.466 374.298ZM655.466 376.871C654.565 376.871 653.811 377.105 653.205 377.573C652.616 378.024 652.217 378.656 652.009 379.47H658.871C658.628 378.639 658.212 377.998 657.623 377.547C657.034 377.097 656.315 376.871 655.466 376.871ZM664.381 374.636H667.682V379.652H673.971V374.636H677.272V387.787H673.971V382.485H667.682V387.787H664.381V374.636ZM680.29 374.636H683.59V379.652H689.88V374.636H693.181V387.787H689.88V382.485H683.59V387.787H680.29V374.636ZM702.41 374.298C703.415 374.298 704.342 374.472 705.191 374.818C706.057 375.165 706.802 375.65 707.426 376.274C708.067 376.88 708.569 377.608 708.933 378.457C709.297 379.288 709.479 380.207 709.479 381.212C709.479 382.217 709.297 383.144 708.933 383.993C708.569 384.824 708.067 385.552 707.426 386.176C706.802 386.782 706.057 387.259 705.191 387.605C704.342 387.952 703.415 388.125 702.41 388.125C701.387 388.125 700.443 387.952 699.577 387.605C698.728 387.259 697.983 386.782 697.342 386.176C696.701 385.552 696.198 384.824 695.834 383.993C695.488 383.144 695.315 382.217 695.315 381.212C695.315 380.207 695.488 379.288 695.834 378.457C696.198 377.608 696.701 376.88 697.342 376.274C697.983 375.65 698.728 375.165 699.577 374.818C700.443 374.472 701.387 374.298 702.41 374.298ZM702.41 385.162C702.964 385.162 703.467 385.067 703.917 384.876C704.385 384.668 704.775 384.391 705.087 384.045C705.416 383.681 705.667 383.256 705.84 382.771C706.031 382.286 706.126 381.766 706.126 381.212C706.126 380.657 706.031 380.137 705.84 379.652C705.667 379.167 705.416 378.751 705.087 378.405C704.775 378.041 704.385 377.764 703.917 377.573C703.467 377.365 702.964 377.261 702.41 377.261C701.855 377.261 701.344 377.365 700.876 377.573C700.426 377.781 700.036 378.067 699.707 378.431C699.378 378.777 699.118 379.193 698.927 379.678C698.754 380.146 698.667 380.657 698.667 381.212C698.667 381.766 698.754 382.286 698.927 382.771C699.118 383.239 699.378 383.655 699.707 384.019C700.036 384.365 700.426 384.642 700.876 384.85C701.344 385.058 701.855 385.162 702.41 385.162Z" fill="#ECB221" style="fill:#ECB221;fill:color(display-p3 0.9246 0.6989 0.1282);fill-opacity:1;"/>
<circle cx="423.333" cy="345.46" r="13.3043" stroke="#FF4D00" style="stroke:#FF4D00;stroke:color(display-p3 1.0000 0.3020 0.0000);stroke-opacity:1;" stroke-width="4.33162"/>
</svg>
