<svg width="860" height="863" viewBox="0 0 860 863" fill="none" xmlns="http://www.w3.org/2000/svg">
<rect width="860" height="863" fill="white"/>
<path d="M729.079 39.0195L726.948 51.6511H729.321L727.959 59.7232H723.569L724.219 55.8769H712.948L712.298 59.7232H707.908L709.269 51.6511H710.953C711.722 50.6067 712.452 49.2288 713.275 46.3325L715.364 39.0195H729.081H729.079ZM723.502 43.2454H718.686L717.757 46.4982C716.949 49.3231 716.281 50.6044 715.606 51.6511H722.086L723.502 43.2454Z" fill="#EAECEF"/>
<path d="M732.949 39.0195H743.391C747.069 39.0195 748.723 40.8944 748.265 43.602C747.972 45.3342 746.669 46.4499 745.446 46.949C746.782 47.4712 747.839 48.8009 747.454 51.0806C746.966 53.9768 744.605 55.8769 740.689 55.8769H730.104L732.949 39.0195ZM736.013 49.1344L735.515 52.079H740.309C741.59 52.079 742.382 51.6051 742.55 50.6067C742.723 49.5853 742.087 49.1344 740.804 49.1344H736.011H736.013ZM737.077 42.8198L736.653 45.3365H741.375C742.373 45.3365 743.073 44.9799 743.225 44.0781C743.377 43.1764 742.797 42.8198 741.799 42.8198H737.077Z" fill="#EAECEF"/>
<path d="M751.282 39.0195H756.147L754.433 49.1804L763.573 39.0195H768.438L765.596 55.8769H760.731L762.438 45.762L753.304 55.8769H748.439L751.282 39.0195Z" fill="#EAECEF"/>
<path d="M775.671 47.14L769.945 39.0195H775.45L780.22 45.9047L781.384 39.0195H786.011L784.85 45.9047L791.945 39.0195H797.333L789.093 46.926L794.845 55.8769H788.983L784.383 48.6836L783.169 55.8769H778.541L779.755 48.6836L772.727 55.8769H767.079L775.673 47.14H775.671Z" fill="#EAECEF"/>
<path d="M804.439 39.0195H798.791L804.413 46.926L796.068 55.8769H801.716L810.061 46.926L804.439 39.0195ZM813.367 39.0195H807.719L813.342 46.926L804.996 55.8769H810.644L818.99 46.926L813.367 39.0195ZM822.525 39.0195H816.877L822.5 46.926L814.155 55.8769H819.803L828.148 46.926L822.525 39.0195Z" fill="#EAECEF"/>
<path d="M32.8696 42.6412V39.007H49.9922V42.6412H43.6094V59.8555H39.2524V42.6412H32.8696ZM54.1034 54.1344L59.7329 44.2191H64.0085V59.8555H59.8755V49.9097L54.2663 59.8555H49.9602V44.2191H54.1034V54.1344ZM66.3383 59.8555V44.2191H80.0099V59.8555H75.8667V47.6294H70.4306V59.8555H66.3383ZM91.9558 54.1344L97.5853 44.2191H101.861V59.8555H97.7278V49.9097L92.1186 59.8555H87.8125V44.2191H91.9558V54.1344ZM104.191 59.8555V44.2191H117.862V59.8555H113.719V47.6294H108.283V59.8555H104.191ZM127.242 60.1609C125.66 60.1609 124.293 59.8249 123.139 59.1531C121.992 58.4744 121.107 57.5311 120.482 56.323C119.858 55.1082 119.546 53.7 119.546 52.0984C119.546 50.4832 119.858 49.0715 120.482 47.8635C121.107 46.6487 121.992 45.7054 123.139 45.0335C124.293 44.3548 125.66 44.0155 127.242 44.0155C128.823 44.0155 130.187 44.3548 131.334 45.0335C132.488 45.7054 133.377 46.6487 134.001 47.8635C134.625 49.0715 134.938 50.4832 134.938 52.0984C134.938 53.7 134.625 55.1082 134.001 56.323C133.377 57.5311 132.488 58.4744 131.334 59.1531C130.187 59.8249 128.823 60.1609 127.242 60.1609ZM127.262 56.8015C127.981 56.8015 128.582 56.5979 129.064 56.1907C129.546 55.7767 129.909 55.2134 130.153 54.5008C130.404 53.7882 130.53 52.9772 130.53 52.0678C130.53 51.1584 130.404 50.3474 130.153 49.6348C129.909 48.9222 129.546 48.3589 129.064 47.945C128.582 47.531 127.981 47.324 127.262 47.324C126.536 47.324 125.925 47.531 125.43 47.945C124.941 48.3589 124.571 48.9222 124.32 49.6348C124.076 50.3474 123.954 51.1584 123.954 52.0678C123.954 52.9772 124.076 53.7882 124.32 54.5008C124.571 55.2134 124.941 55.7767 125.43 56.1907C125.925 56.5979 126.536 56.8015 127.262 56.8015ZM135.097 47.6294V44.2191H149.267V47.6294H144.228V59.8555H140.095V47.6294H135.097ZM157.315 60.1609C155.707 60.1609 154.322 59.8351 153.162 59.1836C152.008 58.5253 151.119 57.5955 150.495 56.3943C149.87 55.1863 149.558 53.7577 149.558 52.1085C149.558 50.5001 149.87 49.0885 150.495 47.8737C151.119 46.6589 151.998 45.7122 153.131 45.0335C154.272 44.3548 155.609 44.0155 157.142 44.0155C158.174 44.0155 159.134 44.1818 160.023 44.5143C160.919 44.8401 161.7 45.3321 162.365 45.9904C163.036 46.6487 163.559 47.4767 163.932 48.4743C164.306 49.4652 164.492 50.6257 164.492 51.9558V53.1469H151.289V50.4594H160.41C160.41 49.835 160.274 49.2819 160.003 48.8001C159.731 48.3182 159.355 47.9416 158.873 47.6701C158.398 47.3918 157.845 47.2527 157.214 47.2527C156.555 47.2527 155.972 47.4054 155.463 47.7108C154.96 48.0094 154.567 48.4132 154.282 48.9222C153.997 49.4244 153.851 49.9843 153.844 50.6019V53.1571C153.844 53.9308 153.987 54.5992 154.272 55.1625C154.563 55.7258 154.974 56.1602 155.503 56.4656C156.033 56.771 156.66 56.9237 157.387 56.9237C157.868 56.9237 158.31 56.8558 158.71 56.7201C159.11 56.5843 159.453 56.3807 159.738 56.1093C160.023 55.8378 160.24 55.5052 160.39 55.1116L164.401 55.3763C164.197 56.34 163.78 57.1815 163.148 57.9009C162.524 58.6135 161.716 59.17 160.726 59.5704C159.742 59.9641 158.605 60.1609 157.315 60.1609ZM166.176 59.8555V44.2191H170.512V50.2863H171.734L175.989 44.2191H181.079L175.551 51.9762L181.14 59.8555H175.989L172.131 54.3074H170.512V59.8555H166.176ZM185.969 54.1344L191.598 44.2191H195.874V59.8555H191.741V49.9097L186.132 59.8555H181.826V44.2191H185.969V54.1344Z" fill="black"/>
<rect x="31.8521" y="98.7422" width="390.981" height="234.907" rx="15.9259" fill="#F7F7F7"/>
<path opacity="0.6" d="M53.7473 116.78H51.8436C51.7893 116.468 51.6892 116.192 51.5433 115.951C51.3974 115.706 51.2159 115.499 50.9987 115.33C50.7815 115.16 50.5338 115.033 50.2555 114.948C49.9807 114.86 49.6838 114.816 49.3648 114.816C48.7981 114.816 48.2959 114.958 47.8582 115.243C47.4204 115.525 47.0777 115.939 46.83 116.485C46.5823 117.028 46.4584 117.692 46.4584 118.475C46.4584 119.273 46.5823 119.945 46.83 120.491C47.0811 121.034 47.4238 121.445 47.8582 121.723C48.2959 121.998 48.7964 122.135 49.3597 122.135C49.6719 122.135 49.9637 122.094 50.2352 122.013C50.51 121.928 50.7561 121.804 50.9732 121.641C51.1938 121.478 51.3787 121.278 51.528 121.041C51.6807 120.803 51.7859 120.532 51.8436 120.226L53.7473 120.237C53.676 120.732 53.5216 121.197 53.2841 121.631C53.0499 122.065 52.7428 122.449 52.3628 122.781C51.9827 123.111 51.5382 123.369 51.0292 123.555C50.5202 123.738 49.9552 123.83 49.3343 123.83C48.4181 123.83 47.6003 123.618 46.8809 123.194C46.1615 122.77 45.5948 122.157 45.1809 121.356C44.7669 120.555 44.5599 119.595 44.5599 118.475C44.5599 117.352 44.7686 116.392 45.1859 115.594C45.6033 114.794 46.1717 114.181 46.8911 113.757C47.6105 113.333 48.4249 113.121 49.3343 113.121C49.9145 113.121 50.4541 113.202 50.9529 113.365C51.4517 113.528 51.8962 113.767 52.2864 114.083C52.6767 114.395 52.9973 114.778 53.2484 115.233C53.5029 115.684 53.6692 116.2 53.7473 116.78ZM56.4518 114.846V113.263H64.7688V114.846H61.5469V123.688H59.6738V114.846H56.4518ZM67.8844 123.688H65.8688L69.5386 113.263H71.8698L75.5448 123.688H73.5291L70.7449 115.401H70.6635L67.8844 123.688ZM67.9505 119.6H73.4477V121.117H67.9505V119.6ZM78.3511 123.688V113.263H80.2395V117.676H85.0699V113.263H86.9633V123.688H85.0699V119.259H80.2395V123.688H78.3511ZM89.7735 126.202V122.145H90.4708C90.705 121.959 90.9238 121.696 91.1274 121.356C91.331 121.017 91.5041 120.552 91.6466 119.962C91.7891 119.371 91.8875 118.608 91.9418 117.671L92.2167 113.263H98.8794V122.145H100.04V126.192H98.2279V123.688H91.5855V126.202H89.7735ZM92.6697 122.145H97.0674V114.846H93.9167L93.7539 117.671C93.7097 118.38 93.6385 119.015 93.5401 119.575C93.4417 120.135 93.3178 120.628 93.1685 121.056C93.0192 121.48 92.8529 121.843 92.6697 122.145ZM104.35 123.688H102.335L106.005 113.263H108.336L112.011 123.688H109.995L107.211 115.401H107.13L104.35 123.688ZM104.417 119.6H109.914V121.117H104.417V119.6ZM114.817 123.688V113.263H118.726C119.527 113.263 120.199 113.413 120.742 113.711C121.288 114.01 121.7 114.42 121.979 114.943C122.26 115.462 122.401 116.053 122.401 116.714C122.401 117.383 122.26 117.977 121.979 118.496C121.697 119.015 121.281 119.424 120.732 119.722C120.182 120.018 119.505 120.165 118.701 120.165H116.11V118.613H118.446C118.915 118.613 119.298 118.531 119.597 118.368C119.895 118.206 120.116 117.982 120.258 117.697C120.404 117.412 120.477 117.084 120.477 116.714C120.477 116.344 120.404 116.019 120.258 115.737C120.116 115.455 119.894 115.236 119.592 115.08C119.293 114.921 118.908 114.841 118.436 114.841H116.706V123.688H114.817ZM125.017 114.846V113.263H133.334V114.846H130.112V123.688H128.239V114.846H125.017ZM136.37 123.688V113.263H138.259V117.676H143.089V113.263H144.983V123.688H143.089V119.259H138.259V123.688H136.37ZM149.808 123.688H147.793L151.463 113.263H153.794L157.469 123.688H155.453L152.669 115.401H152.587L149.808 123.688ZM149.874 119.6H155.372V121.117H149.874V119.6ZM167.971 123.688H166.078V114.841H164.347C163.879 114.841 163.494 114.911 163.192 115.05C162.893 115.186 162.671 115.386 162.525 115.65C162.382 115.912 162.311 116.227 162.311 116.597C162.311 116.967 162.382 117.279 162.525 117.534C162.667 117.785 162.888 117.977 163.187 118.109C163.489 118.238 163.872 118.302 164.337 118.302H166.872V119.87H164.082C163.282 119.87 162.606 119.738 162.057 119.473C161.507 119.205 161.089 118.827 160.804 118.338C160.523 117.846 160.382 117.266 160.382 116.597C160.382 115.932 160.521 115.35 160.799 114.851C161.081 114.349 161.495 113.959 162.041 113.681C162.588 113.402 163.259 113.263 164.057 113.263H167.971V123.688ZM162.581 118.964H164.642L162.107 123.688H160L162.581 118.964Z" fill="black"/>
<path opacity="0.4" d="M406.9 296.695H43.7964V208.704L281.376 240.158C281.376 240.158 404.805 179.729 406.9 177.701V177.648C406.937 177.648 406.936 177.666 406.9 177.701V296.695Z" fill="url(#paint0_linear_2466_885)"/>
<rect x="403.075" y="173.668" width="8.17935" height="8.17935" rx="4.08967" fill="#04B34A"/>
<path d="M404.917 178.445L290.489 237.979C286.269 240.174 281.473 241.013 276.758 240.38L43.7967 209.103" stroke="#04B34A" stroke-width="3.18518"/>
<path d="M267.67 312.762V293.365L260.435 300.627L257.259 297.478L269.964 284.801L282.641 297.478L279.519 300.627L272.258 293.365V312.762H267.67Z" fill="#04B34A"/>
<path d="M303.102 313.161C301.075 313.161 299.27 312.813 297.686 312.116C296.112 311.41 294.867 310.442 293.953 309.211C293.049 307.972 292.583 306.542 292.555 304.922H298.473C298.51 305.601 298.731 306.198 299.138 306.714C299.555 307.221 300.107 307.614 300.794 307.895C301.482 308.175 302.256 308.316 303.115 308.316C304.011 308.316 304.803 308.157 305.491 307.841C306.178 307.524 306.717 307.085 307.106 306.524C307.495 305.963 307.69 305.316 307.69 304.583C307.69 303.841 307.481 303.185 307.065 302.615C306.658 302.036 306.07 301.583 305.301 301.258C304.541 300.932 303.636 300.769 302.586 300.769H299.994V296.453H302.586C303.473 296.453 304.256 296.299 304.934 295.991C305.622 295.684 306.156 295.258 306.536 294.715C306.916 294.163 307.106 293.521 307.106 292.788C307.106 292.091 306.939 291.48 306.604 290.955C306.278 290.422 305.816 290.005 305.219 289.707C304.631 289.408 303.943 289.259 303.156 289.259C302.36 289.259 301.631 289.404 300.971 289.693C300.31 289.974 299.781 290.376 299.383 290.901C298.985 291.426 298.772 292.041 298.745 292.747H293.112C293.139 291.146 293.596 289.734 294.483 288.512C295.37 287.291 296.564 286.336 298.066 285.648C299.577 284.952 301.283 284.603 303.183 284.603C305.102 284.603 306.78 284.952 308.219 285.648C309.658 286.345 310.775 287.286 311.572 288.472C312.377 289.648 312.775 290.969 312.766 292.435C312.775 293.991 312.291 295.29 311.314 296.33C310.345 297.371 309.083 298.032 307.527 298.312V298.529C309.572 298.792 311.128 299.502 312.196 300.66C313.273 301.81 313.807 303.248 313.798 304.977C313.807 306.56 313.35 307.967 312.427 309.198C311.513 310.429 310.25 311.397 308.64 312.103C307.029 312.808 305.183 313.161 303.102 313.161ZM317.63 312.781V308.546L327.525 299.384C328.367 298.57 329.073 297.837 329.643 297.186C330.222 296.534 330.661 295.896 330.959 295.272C331.258 294.638 331.407 293.955 331.407 293.222C331.407 292.408 331.222 291.707 330.851 291.118C330.48 290.521 329.973 290.064 329.33 289.747C328.688 289.422 327.96 289.259 327.145 289.259C326.295 289.259 325.553 289.431 324.919 289.775C324.286 290.118 323.797 290.612 323.453 291.254C323.109 291.897 322.937 292.661 322.937 293.548H317.359C317.359 291.729 317.771 290.15 318.594 288.811C319.417 287.472 320.571 286.436 322.055 285.703C323.539 284.97 325.249 284.603 327.186 284.603C329.177 284.603 330.909 284.956 332.384 285.662C333.868 286.359 335.022 287.327 335.846 288.567C336.669 289.806 337.081 291.227 337.081 292.829C337.081 293.878 336.873 294.914 336.456 295.937C336.049 296.959 335.321 298.095 334.271 299.344C333.221 300.583 331.742 302.072 329.833 303.809L325.774 307.786V307.976H337.447V312.781H317.63ZM347.653 308.981L347.503 310.474C347.386 311.668 347.159 312.858 346.825 314.044C346.499 315.238 346.155 316.319 345.793 317.288C345.44 318.256 345.155 319.016 344.938 319.568H341.192C341.327 319.034 341.513 318.287 341.748 317.328C341.983 316.378 342.205 315.31 342.413 314.125C342.621 312.94 342.753 311.732 342.807 310.501L342.875 308.981H347.653ZM362.042 313.161C360.612 313.152 359.232 312.912 357.902 312.442C356.581 311.971 355.396 311.207 354.346 310.148C353.296 309.089 352.464 307.687 351.848 305.94C351.242 304.194 350.939 302.049 350.939 299.507C350.948 297.172 351.215 295.086 351.74 293.249C352.274 291.403 353.034 289.838 354.02 288.553C355.015 287.268 356.205 286.291 357.59 285.621C358.974 284.943 360.526 284.603 362.245 284.603C364.101 284.603 365.738 284.965 367.159 285.689C368.58 286.404 369.72 287.377 370.579 288.607C371.448 289.838 371.973 291.218 372.154 292.747H366.358C366.132 291.779 365.657 291.019 364.933 290.467C364.209 289.915 363.313 289.639 362.245 289.639C360.436 289.639 359.06 290.426 358.119 292.001C357.187 293.575 356.712 295.715 356.694 298.421H356.884C357.3 297.597 357.861 296.896 358.567 296.317C359.282 295.729 360.092 295.281 360.997 294.973C361.911 294.656 362.874 294.498 363.888 294.498C365.535 294.498 367.001 294.887 368.286 295.665C369.571 296.435 370.584 297.493 371.326 298.842C372.068 300.19 372.439 301.733 372.439 303.47C372.439 305.352 372 307.026 371.122 308.492C370.254 309.958 369.037 311.107 367.471 311.94C365.915 312.763 364.105 313.17 362.042 313.161ZM362.015 308.546C362.92 308.546 363.73 308.329 364.444 307.895C365.159 307.461 365.72 306.872 366.127 306.13C366.535 305.388 366.738 304.556 366.738 303.633C366.738 302.71 366.535 301.882 366.127 301.149C365.729 300.416 365.177 299.832 364.472 299.398C363.766 298.964 362.96 298.747 362.055 298.747C361.377 298.747 360.748 298.873 360.169 299.127C359.599 299.38 359.097 299.733 358.662 300.185C358.237 300.638 357.902 301.163 357.658 301.76C357.413 302.348 357.291 302.977 357.291 303.646C357.291 304.542 357.495 305.361 357.902 306.103C358.318 306.845 358.879 307.438 359.585 307.881C360.3 308.325 361.11 308.546 362.015 308.546ZM391.43 307.569V306.103C391.43 304.99 391.665 303.968 392.135 303.036C392.615 302.095 393.307 301.344 394.212 300.783C395.126 300.212 396.239 299.927 397.551 299.927C398.881 299.927 399.999 300.208 400.904 300.769C401.818 301.33 402.505 302.081 402.967 303.022C403.437 303.954 403.673 304.981 403.673 306.103V307.569C403.673 308.682 403.437 309.709 402.967 310.65C402.496 311.582 401.804 312.329 400.89 312.89C399.976 313.46 398.863 313.745 397.551 313.745C396.221 313.745 395.103 313.46 394.199 312.89C393.294 312.329 392.606 311.582 392.135 310.65C391.665 309.709 391.43 308.682 391.43 307.569ZM395.379 306.103V307.569C395.379 308.212 395.533 308.818 395.841 309.388C396.158 309.958 396.728 310.243 397.551 310.243C398.375 310.243 398.936 309.963 399.234 309.402C399.542 308.84 399.696 308.23 399.696 307.569V306.103C399.696 305.443 399.551 304.827 399.261 304.257C398.972 303.687 398.402 303.402 397.551 303.402C396.737 303.402 396.171 303.687 395.855 304.257C395.538 304.827 395.379 305.443 395.379 306.103ZM377.164 291.661V290.195C377.164 289.073 377.404 288.046 377.884 287.114C378.363 286.173 379.055 285.422 379.96 284.861C380.874 284.3 381.978 284.02 383.272 284.02C384.611 284.02 385.733 284.3 386.638 284.861C387.543 285.422 388.231 286.173 388.701 287.114C389.172 288.046 389.407 289.073 389.407 290.195V291.661C389.407 292.783 389.167 293.81 388.688 294.742C388.217 295.674 387.525 296.421 386.611 296.982C385.706 297.534 384.593 297.81 383.272 297.81C381.951 297.81 380.833 297.529 379.92 296.968C379.015 296.398 378.327 295.652 377.856 294.729C377.395 293.797 377.164 292.774 377.164 291.661ZM381.141 290.195V291.661C381.141 292.322 381.295 292.933 381.603 293.494C381.919 294.055 382.476 294.335 383.272 294.335C384.105 294.335 384.67 294.055 384.969 293.494C385.276 292.933 385.43 292.322 385.43 291.661V290.195C385.43 289.535 385.285 288.92 384.996 288.349C384.706 287.779 384.132 287.494 383.272 287.494C382.467 287.494 381.91 287.784 381.603 288.363C381.295 288.942 381.141 289.553 381.141 290.195ZM378.956 312.781L398.067 284.983H401.623L382.512 312.781H378.956Z" fill="black"/>
<path d="M45.0219 197.039V195.646L49.3331 191.179C49.7935 190.694 50.173 190.268 50.4716 189.904C50.7743 189.534 51.0004 189.184 51.1497 188.852C51.299 188.52 51.3736 188.168 51.3736 187.795C51.3736 187.372 51.2741 187.007 51.075 186.7C50.876 186.389 50.6043 186.15 50.2601 185.984C49.9158 185.814 49.5281 185.729 49.0967 185.729C48.6405 185.729 48.2424 185.822 47.9023 186.009C47.5622 186.196 47.3009 186.459 47.1184 186.799C46.936 187.139 46.8447 187.537 46.8447 187.994H45.0095C45.0095 187.218 45.1878 186.54 45.5445 185.959C45.9012 185.379 46.3906 184.929 47.0127 184.609C47.6348 184.286 48.3419 184.124 49.1341 184.124C49.9345 184.124 50.6396 184.284 51.2492 184.603C51.863 184.918 52.3421 185.35 52.6863 185.897C53.0305 186.44 53.2026 187.054 53.2026 187.739C53.2026 188.211 53.1135 188.674 52.9351 189.126C52.7609 189.578 52.4561 190.082 52.0206 190.638C51.5852 191.189 50.9796 191.859 50.2041 192.647L47.6721 195.297V195.39H53.4079V197.039H45.0219ZM56.0177 197.039L61.5794 186.04V185.947H55.1468V184.298H63.5701V186.003L58.0272 197.039H56.0177ZM65.8113 195.297L65.718 195.975C65.6558 196.473 65.5501 196.991 65.4007 197.531C65.2556 198.074 65.1042 198.578 64.9466 199.042C64.7932 199.507 64.6667 199.876 64.5671 200.15H63.2483C63.3022 199.892 63.3768 199.544 63.4722 199.104C63.5676 198.669 63.6609 198.182 63.7522 197.643C63.8434 197.103 63.9118 196.554 63.9575 195.994L64.0197 195.297H65.8113ZM68.3403 197.039L73.9019 186.04V185.947H67.4693V184.298H75.8927V186.003L70.3497 197.039H68.3403Z" fill="#CFCFCF"/>
<path d="M375.623 162.971C375.055 162.963 374.495 162.859 373.944 162.66C373.396 162.461 372.898 162.129 372.451 161.665C372.003 161.2 371.644 160.576 371.374 159.792C371.109 159.008 370.976 158.029 370.976 156.856C370.976 155.744 371.086 154.757 371.306 153.895C371.53 153.032 371.851 152.304 372.27 151.711C372.689 151.114 373.195 150.66 373.788 150.349C374.381 150.037 375.047 149.882 375.785 149.882C376.544 149.882 377.218 150.031 377.807 150.33C378.396 150.628 378.873 151.041 379.238 151.568C379.607 152.095 379.841 152.694 379.941 153.366H378.043C377.915 152.835 377.66 152.401 377.278 152.066C376.897 151.73 376.399 151.562 375.785 151.562C374.852 151.562 374.124 151.968 373.601 152.781C373.083 153.594 372.822 154.724 372.818 156.171H372.911C373.131 155.811 373.4 155.504 373.72 155.251C374.043 154.994 374.404 154.797 374.802 154.66C375.204 154.519 375.627 154.448 376.071 154.448C376.809 154.448 377.477 154.629 378.074 154.989C378.676 155.346 379.155 155.84 379.511 156.47C379.868 157.1 380.046 157.822 380.046 158.635C380.046 159.448 379.862 160.184 379.493 160.843C379.128 161.503 378.614 162.025 377.95 162.411C377.286 162.793 376.511 162.979 375.623 162.971ZM375.617 161.354C376.106 161.354 376.544 161.233 376.93 160.993C377.315 160.752 377.62 160.429 377.844 160.022C378.068 159.616 378.18 159.162 378.18 158.66C378.18 158.17 378.07 157.725 377.85 157.322C377.635 156.92 377.336 156.601 376.955 156.364C376.577 156.128 376.146 156.01 375.661 156.01C375.291 156.01 374.949 156.08 374.634 156.221C374.323 156.362 374.049 156.557 373.813 156.806C373.577 157.055 373.39 157.341 373.253 157.664C373.12 157.984 373.054 158.322 373.054 158.679C373.054 159.155 373.164 159.597 373.384 160.004C373.608 160.41 373.912 160.738 374.298 160.987C374.688 161.231 375.128 161.354 375.617 161.354ZM386.571 163.008C385.588 163.004 384.748 162.745 384.051 162.231C383.355 161.716 382.822 160.968 382.453 159.985C382.083 159.002 381.899 157.818 381.899 156.433C381.899 155.052 382.083 153.872 382.453 152.893C382.826 151.914 383.361 151.168 384.058 150.653C384.758 150.139 385.596 149.882 386.571 149.882C387.545 149.882 388.381 150.141 389.078 150.66C389.775 151.174 390.308 151.92 390.677 152.899C391.05 153.874 391.237 155.052 391.237 156.433C391.237 157.822 391.052 159.008 390.683 159.991C390.314 160.97 389.781 161.719 389.084 162.237C388.387 162.751 387.55 163.008 386.571 163.008ZM386.571 161.347C387.434 161.347 388.107 160.926 388.593 160.084C389.082 159.243 389.327 158.025 389.327 156.433C389.327 155.375 389.215 154.481 388.991 153.751C388.771 153.017 388.454 152.462 388.039 152.084C387.628 151.703 387.139 151.512 386.571 151.512C385.712 151.512 385.038 151.935 384.549 152.781C384.06 153.627 383.813 154.844 383.809 156.433C383.809 157.494 383.919 158.392 384.138 159.126C384.362 159.856 384.68 160.41 385.09 160.787C385.501 161.161 385.994 161.347 386.571 161.347ZM395.249 161.055L395.156 161.733C395.094 162.231 394.988 162.749 394.839 163.288C394.694 163.832 394.542 164.336 394.385 164.8C394.231 165.265 394.105 165.634 394.005 165.907H392.686C392.74 165.65 392.815 165.302 392.91 164.862C393.006 164.427 393.099 163.939 393.19 163.4C393.281 162.861 393.35 162.312 393.395 161.752L393.458 161.055H395.249ZM401.648 162.971C400.793 162.971 400.03 162.824 399.358 162.529C398.691 162.235 398.162 161.826 397.772 161.304C397.386 160.777 397.179 160.167 397.15 159.475H399.103C399.128 159.852 399.255 160.18 399.483 160.458C399.715 160.731 400.018 160.943 400.391 161.092C400.764 161.242 401.179 161.316 401.635 161.316C402.137 161.316 402.581 161.229 402.967 161.055C403.356 160.881 403.661 160.638 403.881 160.327C404.101 160.012 404.211 159.649 404.211 159.238C404.211 158.811 404.101 158.436 403.881 158.112C403.665 157.785 403.348 157.528 402.929 157.341C402.515 157.154 402.013 157.061 401.424 157.061H400.348V155.493H401.424C401.897 155.493 402.311 155.408 402.668 155.238C403.029 155.068 403.311 154.832 403.514 154.529C403.717 154.222 403.819 153.863 403.819 153.453C403.819 153.059 403.73 152.717 403.551 152.426C403.377 152.132 403.128 151.902 402.805 151.736C402.486 151.57 402.108 151.487 401.673 151.487C401.258 151.487 400.87 151.564 400.509 151.717C400.153 151.866 399.862 152.082 399.638 152.364C399.414 152.642 399.294 152.976 399.278 153.366H397.417C397.438 152.677 397.641 152.072 398.027 151.549C398.417 151.027 398.931 150.618 399.57 150.324C400.209 150.029 400.918 149.882 401.698 149.882C402.515 149.882 403.22 150.042 403.813 150.361C404.41 150.676 404.87 151.097 405.194 151.624C405.521 152.151 405.683 152.727 405.679 153.353C405.683 154.067 405.484 154.672 405.082 155.17C404.684 155.668 404.153 156.001 403.489 156.171V156.271C404.335 156.4 404.991 156.735 405.455 157.279C405.924 157.822 406.156 158.496 406.152 159.301C406.156 160.002 405.961 160.63 405.567 161.186C405.177 161.741 404.644 162.179 403.968 162.498C403.292 162.813 402.519 162.971 401.648 162.971Z" fill="#CFCFCF"/>
<rect x="31.8516" y="347.984" width="390.981" height="234.907" rx="15.9259" fill="#F7F7F7"/>
<path opacity="0.6" d="M53.7468 366.023H51.8431C51.7888 365.71 51.6887 365.434 51.5428 365.193C51.3969 364.949 51.2154 364.742 50.9982 364.572C50.781 364.402 50.5333 364.275 50.2551 364.19C49.9802 364.102 49.6833 364.058 49.3643 364.058C48.7976 364.058 48.2954 364.2 47.8577 364.485C47.42 364.767 47.0772 365.181 46.8295 365.727C46.5818 366.27 46.4579 366.934 46.4579 367.718C46.4579 368.515 46.5818 369.187 46.8295 369.733C47.0806 370.276 47.4233 370.687 47.8577 370.965C48.2954 371.24 48.7959 371.377 49.3592 371.377C49.6714 371.377 49.9632 371.337 50.2347 371.255C50.5096 371.17 50.7556 371.046 50.9727 370.884C51.1933 370.721 51.3782 370.52 51.5276 370.283C51.6802 370.045 51.7854 369.774 51.8431 369.469L53.7468 369.479C53.6755 369.974 53.5211 370.439 53.2836 370.873C53.0494 371.308 52.7424 371.691 52.3623 372.024C51.9823 372.353 51.5377 372.611 51.0287 372.797C50.5197 372.981 49.9548 373.072 49.3338 373.072C48.4176 373.072 47.5998 372.86 46.8804 372.436C46.161 372.012 45.5944 371.399 45.1804 370.598C44.7664 369.798 44.5594 368.837 44.5594 367.718C44.5594 366.594 44.7681 365.634 45.1855 364.837C45.6028 364.036 46.1712 363.423 46.8906 362.999C47.61 362.575 48.4244 362.363 49.3338 362.363C49.914 362.363 50.4536 362.444 50.9524 362.607C51.4512 362.77 51.8957 363.009 52.286 363.325C52.6762 363.637 52.9969 364.021 53.248 364.475C53.5025 364.927 53.6687 365.442 53.7468 366.023ZM56.9094 372.93V362.505H63.6893V364.088H58.7978V366.918H63.338V368.501H58.7978V371.347H63.73V372.93H56.9094ZM67.0491 362.505H69.36L72.4547 370.059H72.5768L75.6715 362.505H77.9824V372.93H76.1703V365.768H76.0736L73.1927 372.899H71.8388L68.9579 365.753H68.8612V372.93H67.0491V362.505ZM81.4721 372.93V362.505H88.2519V364.088H83.3604V366.918H87.9007V368.501H83.3604V371.347H88.2926V372.93H81.4721ZM91.6118 362.505H93.4849V369.611H93.5816L98.4832 362.505H100.178V372.93H98.2898V365.829H98.2033L93.2864 372.93H91.6118V362.505ZM96.9053 359.818H98.2847C98.2847 360.412 98.0692 360.894 97.6383 361.263C97.2107 361.63 96.6305 361.813 95.8975 361.813C95.1713 361.813 94.5928 361.63 94.1618 361.263C93.7343 360.894 93.5222 360.412 93.5256 359.818H94.8948C94.8948 360.062 94.9694 360.281 95.1187 360.475C95.2714 360.665 95.531 360.76 95.8975 360.76C96.2572 360.76 96.5134 360.665 96.6661 360.475C96.8222 360.285 96.9019 360.066 96.9053 359.818ZM103.669 372.93V362.505H105.557V366.918H110.388V362.505H112.281V372.93H110.388V368.501H105.557V372.93H103.669ZM117.107 372.93H115.092L118.761 362.505H121.093L124.768 372.93H122.752L119.968 364.643H119.886L117.107 372.93ZM117.173 368.842H122.67V370.359H117.173V368.842ZM135.27 372.93H133.376V364.083H131.646C131.178 364.083 130.792 364.153 130.49 364.292C130.192 364.428 129.97 364.628 129.824 364.893C129.681 365.154 129.61 365.47 129.61 365.839C129.61 366.209 129.681 366.521 129.824 366.776C129.966 367.027 130.187 367.219 130.485 367.351C130.787 367.48 131.171 367.545 131.636 367.545H134.17V369.112H131.381C130.58 369.112 129.905 368.98 129.355 368.715C128.806 368.447 128.388 368.069 128.103 367.58C127.822 367.088 127.681 366.508 127.681 365.839C127.681 365.174 127.82 364.592 128.098 364.094C128.38 363.591 128.794 363.201 129.34 362.923C129.886 362.645 130.558 362.505 131.356 362.505H135.27V372.93ZM129.88 368.206H131.941L129.406 372.93H127.299L129.88 368.206Z" fill="black"/>
<path opacity="0.4" d="M406.9 545.937H43.7959V442.816L227.342 490.992C227.342 490.992 404.787 487.493 406.9 487.41V487.409C406.925 487.409 406.925 487.409 406.9 487.41V545.937Z" fill="url(#paint1_linear_2466_885)"/>
<rect x="403.075" y="482.633" width="8.17935" height="8.17935" rx="4.08967" fill="#CACACA"/>
<path d="M405.713 487.409L231.439 490.537C229.331 490.575 227.229 490.324 225.189 489.791L43.7963 442.418" stroke="#CACACA" stroke-width="3.18518"/>
<path d="M295.669 534.043V553.439L288.435 546.178L285.259 549.327L297.963 562.004L310.641 549.327L307.519 546.178L300.257 553.439V534.043H295.669Z" fill="#CACACA"/>
<path d="M330.545 562.403C328.626 562.403 326.916 562.051 325.414 561.345C323.921 560.639 322.736 559.666 321.858 558.427C320.98 557.187 320.523 555.766 320.487 554.165H326.188C326.251 555.241 326.703 556.115 327.545 556.784C328.387 557.454 329.386 557.789 330.545 557.789C331.468 557.789 332.282 557.585 332.988 557.178C333.703 556.762 334.259 556.187 334.657 555.454C335.065 554.712 335.268 553.861 335.268 552.902C335.268 551.925 335.06 551.065 334.644 550.323C334.237 549.581 333.671 549.002 332.947 548.586C332.223 548.17 331.395 547.957 330.463 547.948C329.649 547.948 328.857 548.115 328.088 548.45C327.328 548.785 326.735 549.242 326.31 549.821L321.084 548.885L322.401 534.225H339.394V539.03H327.246L326.527 545.993H326.69C327.179 545.306 327.916 544.736 328.902 544.283C329.889 543.831 330.993 543.605 332.214 543.605C333.888 543.605 335.381 543.998 336.693 544.785C338.005 545.573 339.042 546.654 339.802 548.029C340.562 549.396 340.937 550.97 340.928 552.753C340.937 554.626 340.503 556.291 339.625 557.748C338.757 559.196 337.539 560.336 335.974 561.168C334.418 561.992 332.608 562.403 330.545 562.403ZM350.078 558.223L349.929 559.716C349.811 560.91 349.585 562.1 349.25 563.286C348.925 564.48 348.581 565.562 348.219 566.53C347.866 567.498 347.581 568.258 347.364 568.81H343.617C343.753 568.276 343.939 567.53 344.174 566.57C344.409 565.62 344.631 564.553 344.839 563.367C345.047 562.182 345.178 560.974 345.233 559.743L345.301 558.223H350.078ZM354.973 562.023L366.497 539.22V539.03H353.073V534.225H372.578V539.098L361.04 562.023H354.973ZM391.429 556.811V555.345C391.429 554.232 391.664 553.21 392.135 552.278C392.615 551.337 393.307 550.586 394.212 550.025C395.126 549.455 396.239 549.17 397.551 549.17C398.881 549.17 399.998 549.45 400.903 550.011C401.817 550.572 402.505 551.323 402.966 552.264C403.437 553.196 403.672 554.223 403.672 555.345V556.811C403.672 557.924 403.437 558.951 402.966 559.892C402.496 560.824 401.804 561.571 400.89 562.132C399.976 562.702 398.863 562.987 397.551 562.987C396.221 562.987 395.103 562.702 394.198 562.132C393.293 561.571 392.605 560.824 392.135 559.892C391.664 558.951 391.429 557.924 391.429 556.811ZM395.379 555.345V556.811C395.379 557.454 395.533 558.06 395.84 558.63C396.157 559.2 396.727 559.485 397.551 559.485C398.374 559.485 398.935 559.205 399.234 558.644C399.541 558.083 399.695 557.472 399.695 556.811V555.345C399.695 554.685 399.55 554.07 399.261 553.499C398.971 552.929 398.401 552.644 397.551 552.644C396.736 552.644 396.171 552.929 395.854 553.499C395.537 554.07 395.379 554.685 395.379 555.345ZM377.164 540.903V539.438C377.164 538.316 377.403 537.288 377.883 536.356C378.363 535.415 379.055 534.664 379.96 534.103C380.874 533.542 381.978 533.262 383.272 533.262C384.611 533.262 385.733 533.542 386.638 534.103C387.543 534.664 388.23 535.415 388.701 536.356C389.171 537.288 389.407 538.316 389.407 539.438V540.903C389.407 542.026 389.167 543.053 388.687 543.985C388.217 544.917 387.525 545.663 386.611 546.224C385.706 546.776 384.593 547.052 383.272 547.052C381.951 547.052 380.833 546.772 379.919 546.211C379.014 545.641 378.326 544.894 377.856 543.971C377.394 543.039 377.164 542.016 377.164 540.903ZM381.141 539.438V540.903C381.141 541.564 381.294 542.175 381.602 542.736C381.919 543.297 382.475 543.577 383.272 543.577C384.104 543.577 384.67 543.297 384.968 542.736C385.276 542.175 385.43 541.564 385.43 540.903V539.438C385.43 538.777 385.285 538.162 384.995 537.592C384.706 537.022 384.131 536.737 383.272 536.737C382.466 536.737 381.91 537.026 381.602 537.605C381.294 538.184 381.141 538.795 381.141 539.438ZM378.955 562.023L398.066 534.225H401.623L382.512 562.023H378.955Z" fill="black"/>
<path d="M49.4571 431.327C48.6027 431.327 47.8396 431.179 47.1677 430.885C46.5 430.59 45.9712 430.182 45.5813 429.659C45.1956 429.133 44.9883 428.523 44.9592 427.83H46.9127C46.9375 428.208 47.064 428.535 47.2921 428.813C47.5244 429.087 47.8271 429.298 48.2004 429.448C48.5737 429.597 48.9884 429.672 49.4446 429.672C49.9465 429.672 50.3902 429.585 50.7759 429.41C51.1658 429.236 51.4706 428.994 51.6904 428.683C51.9102 428.367 52.0201 428.004 52.0201 427.594C52.0201 427.167 51.9102 426.791 51.6904 426.468C51.4748 426.14 51.1575 425.883 50.7386 425.696C50.3239 425.51 49.822 425.417 49.2331 425.417H48.1569V423.849H49.2331C49.7059 423.849 50.1206 423.764 50.4773 423.594C50.8381 423.424 51.1202 423.187 51.3234 422.885C51.5266 422.578 51.6282 422.219 51.6282 421.808C51.6282 421.414 51.539 421.072 51.3607 420.782C51.1865 420.487 50.9377 420.257 50.6142 420.091C50.2948 419.925 49.9174 419.842 49.482 419.842C49.0672 419.842 48.6794 419.919 48.3186 420.073C47.9619 420.222 47.6716 420.438 47.4477 420.72C47.2237 420.997 47.1034 421.331 47.0868 421.721H45.2267C45.2475 421.033 45.4507 420.427 45.8364 419.905C46.2263 419.382 46.7405 418.974 47.3792 418.679C48.0179 418.385 48.7271 418.237 49.5068 418.237C50.3239 418.237 51.0289 418.397 51.622 418.716C52.2192 419.032 52.6796 419.453 53.0031 419.979C53.3307 420.506 53.4925 421.083 53.4883 421.709C53.4925 422.422 53.2934 423.028 52.8911 423.525C52.4929 424.023 51.9621 424.357 51.2985 424.527V424.626C52.1446 424.755 52.7999 425.091 53.2644 425.634C53.733 426.178 53.9653 426.852 53.9611 427.656C53.9653 428.357 53.7703 428.985 53.3763 429.541C52.9865 430.097 52.4535 430.534 51.7775 430.854C51.1015 431.169 50.328 431.327 49.4571 431.327ZM56.1355 431.152V429.759L60.4467 425.292C60.907 424.807 61.2865 424.382 61.5851 424.017C61.8879 423.648 62.1139 423.297 62.2632 422.965C62.4125 422.634 62.4872 422.281 62.4872 421.908C62.4872 421.485 62.3876 421.12 62.1886 420.813C61.9895 420.502 61.7178 420.263 61.3736 420.098C61.0294 419.927 60.6416 419.842 60.2103 419.842C59.754 419.842 59.3559 419.936 59.0158 420.122C58.6757 420.309 58.4144 420.572 58.232 420.912C58.0495 421.253 57.9582 421.651 57.9582 422.107H56.123C56.123 421.331 56.3014 420.653 56.658 420.073C57.0147 419.492 57.5041 419.042 58.1262 418.723C58.7483 418.399 59.4554 418.237 60.2476 418.237C61.048 418.237 61.7531 418.397 62.3627 418.716C62.9766 419.032 63.4556 419.463 63.7998 420.01C64.144 420.554 64.3162 421.168 64.3162 421.852C64.3162 422.325 64.227 422.787 64.0487 423.239C63.8745 423.691 63.5696 424.195 63.1342 424.751C62.6987 425.302 62.0932 425.972 61.3176 426.76L58.7856 429.41V429.504H64.5215V431.152H56.1355ZM69.1469 429.41L69.0536 430.089C68.9914 430.586 68.8856 431.105 68.7363 431.644C68.5911 432.187 68.4398 432.691 68.2822 433.156C68.1287 433.62 68.0022 433.989 67.9027 434.263H66.5838C66.6377 434.006 66.7124 433.657 66.8078 433.218C66.9032 432.782 66.9965 432.295 67.0877 431.756C67.179 431.217 67.2474 430.667 67.293 430.107L67.3552 429.41H69.1469ZM75.5453 431.327C74.691 431.327 73.9279 431.179 73.256 430.885C72.5883 430.59 72.0595 430.182 71.6696 429.659C71.2839 429.133 71.0765 428.523 71.0475 427.83H73.0009C73.0258 428.208 73.1523 428.535 73.3804 428.813C73.6127 429.087 73.9154 429.298 74.2887 429.448C74.662 429.597 75.0767 429.672 75.5329 429.672C76.0347 429.672 76.4785 429.585 76.8642 429.41C77.2541 429.236 77.5589 428.994 77.7787 428.683C77.9985 428.367 78.1084 428.004 78.1084 427.594C78.1084 427.167 77.9985 426.791 77.7787 426.468C77.563 426.14 77.2458 425.883 76.8269 425.696C76.4121 425.51 75.9103 425.417 75.3214 425.417H74.2451V423.849H75.3214C75.7942 423.849 76.2089 423.764 76.5656 423.594C76.9264 423.424 77.2084 423.187 77.4117 422.885C77.6149 422.578 77.7165 422.219 77.7165 421.808C77.7165 421.414 77.6273 421.072 77.449 420.782C77.2748 420.487 77.026 420.257 76.7025 420.091C76.3831 419.925 76.0057 419.842 75.5702 419.842C75.1555 419.842 74.7677 419.919 74.4069 420.073C74.0502 420.222 73.7599 420.438 73.5359 420.72C73.312 420.997 73.1917 421.331 73.1751 421.721H71.315C71.3358 421.033 71.539 420.427 71.9247 419.905C72.3145 419.382 72.8288 418.974 73.4675 418.679C74.1062 418.385 74.8154 418.237 75.5951 418.237C76.4121 418.237 77.1172 418.397 77.7103 418.716C78.3075 419.032 78.7679 419.453 79.0913 419.979C79.419 420.506 79.5807 421.083 79.5766 421.709C79.5807 422.422 79.3817 423.028 78.9794 423.525C78.5812 424.023 78.0504 424.357 77.3868 424.527V424.626C78.2328 424.755 78.8881 425.091 79.3526 425.634C79.8213 426.178 80.0535 426.852 80.0494 427.656C80.0535 428.357 79.8586 428.985 79.4646 429.541C79.0748 430.097 78.5418 430.534 77.8658 430.854C77.1898 431.169 76.4163 431.327 75.5453 431.327Z" fill="#CFCFCF"/>
<path d="M372.013 474.152V472.759L376.324 468.292C376.785 467.807 377.164 467.382 377.463 467.017C377.765 466.648 377.991 466.297 378.141 465.965C378.29 465.634 378.365 465.281 378.365 464.908C378.365 464.485 378.265 464.12 378.066 463.813C377.867 463.502 377.595 463.263 377.251 463.098C376.907 462.927 376.519 462.842 376.088 462.842C375.632 462.842 375.233 462.936 374.893 463.122C374.553 463.309 374.292 463.572 374.109 463.912C373.927 464.253 373.836 464.651 373.836 465.107H372.001C372.001 464.331 372.179 463.653 372.536 463.073C372.892 462.492 373.382 462.042 374.004 461.723C374.626 461.399 375.333 461.237 376.125 461.237C376.926 461.237 377.631 461.397 378.24 461.716C378.854 462.032 379.333 462.463 379.677 463.01C380.022 463.554 380.194 464.168 380.194 464.852C380.194 465.325 380.105 465.787 379.926 466.239C379.752 466.691 379.447 467.195 379.012 467.751C378.576 468.302 377.971 468.972 377.195 469.76L374.663 472.41V472.504H380.399V474.152H372.013ZM387.028 474.327C386.459 474.318 385.9 474.215 385.348 474.015C384.8 473.816 384.303 473.485 383.855 473.02C383.407 472.556 383.048 471.931 382.779 471.148C382.513 470.364 382.38 469.385 382.38 468.211C382.38 467.1 382.49 466.113 382.71 465.25C382.934 464.387 383.256 463.659 383.674 463.066C384.093 462.469 384.599 462.015 385.192 461.704C385.785 461.393 386.451 461.237 387.189 461.237C387.948 461.237 388.622 461.387 389.211 461.685C389.8 461.984 390.277 462.397 390.642 462.923C391.011 463.45 391.245 464.049 391.345 464.721H389.448C389.319 464.19 389.064 463.757 388.682 463.421C388.301 463.085 387.803 462.917 387.189 462.917C386.256 462.917 385.528 463.324 385.006 464.136C384.487 464.949 384.226 466.079 384.222 467.527H384.315C384.535 467.166 384.805 466.859 385.124 466.606C385.447 466.349 385.808 466.152 386.206 466.015C386.609 465.874 387.032 465.804 387.476 465.804C388.214 465.804 388.881 465.984 389.479 466.345C390.08 466.702 390.559 467.195 390.916 467.826C391.272 468.456 391.451 469.178 391.451 469.99C391.451 470.803 391.266 471.539 390.897 472.199C390.532 472.858 390.018 473.381 389.354 473.767C388.691 474.148 387.915 474.335 387.028 474.327ZM387.021 472.709C387.511 472.709 387.948 472.589 388.334 472.348C388.72 472.108 389.025 471.784 389.249 471.378C389.472 470.971 389.584 470.517 389.584 470.015C389.584 469.526 389.475 469.08 389.255 468.678C389.039 468.276 388.74 467.956 388.359 467.72C387.982 467.483 387.55 467.365 387.065 467.365C386.696 467.365 386.354 467.436 386.038 467.577C385.727 467.718 385.454 467.913 385.217 468.161C384.981 468.41 384.794 468.696 384.657 469.02C384.525 469.339 384.458 469.677 384.458 470.034C384.458 470.511 384.568 470.953 384.788 471.359C385.012 471.766 385.317 472.093 385.703 472.342C386.092 472.587 386.532 472.709 387.021 472.709ZM395.403 472.41L395.309 473.089C395.247 473.586 395.142 474.105 394.992 474.644C394.847 475.187 394.696 475.691 394.538 476.156C394.385 476.62 394.258 476.989 394.159 477.263H392.84C392.894 477.006 392.968 476.657 393.064 476.218C393.159 475.782 393.252 475.295 393.344 474.756C393.435 474.217 393.503 473.667 393.549 473.107L393.611 472.41H395.403ZM401.814 474.327C401.246 474.318 400.686 474.215 400.134 474.015C399.587 473.816 399.089 473.485 398.641 473.02C398.193 472.556 397.834 471.931 397.565 471.148C397.299 470.364 397.167 469.385 397.167 468.211C397.167 467.1 397.276 466.113 397.496 465.25C397.72 464.387 398.042 463.659 398.461 463.066C398.879 462.469 399.385 462.015 399.978 461.704C400.572 461.393 401.237 461.237 401.975 461.237C402.734 461.237 403.408 461.387 403.997 461.685C404.586 461.984 405.063 462.397 405.428 462.923C405.797 463.45 406.032 464.049 406.131 464.721H404.234C404.105 464.19 403.85 463.757 403.468 463.421C403.087 463.085 402.589 462.917 401.975 462.917C401.042 462.917 400.314 463.324 399.792 464.136C399.273 464.949 399.012 466.079 399.008 467.527H399.101C399.321 467.166 399.591 466.859 399.91 466.606C400.234 466.349 400.594 466.152 400.993 466.015C401.395 465.874 401.818 465.804 402.262 465.804C403 465.804 403.668 465.984 404.265 466.345C404.866 466.702 405.345 467.195 405.702 467.826C406.059 468.456 406.237 469.178 406.237 469.99C406.237 470.803 406.052 471.539 405.683 472.199C405.318 472.858 404.804 473.381 404.14 473.767C403.477 474.148 402.701 474.335 401.814 474.327ZM401.807 472.709C402.297 472.709 402.734 472.589 403.12 472.348C403.506 472.108 403.811 471.784 404.035 471.378C404.259 470.971 404.371 470.517 404.371 470.015C404.371 469.526 404.261 469.08 404.041 468.678C403.825 468.276 403.527 467.956 403.145 467.72C402.768 467.483 402.336 467.365 401.851 467.365C401.482 467.365 401.14 467.436 400.825 467.577C400.513 467.718 400.24 467.913 400.003 468.161C399.767 468.41 399.58 468.696 399.443 469.02C399.311 469.339 399.244 469.677 399.244 470.034C399.244 470.511 399.354 470.953 399.574 471.359C399.798 471.766 400.103 472.093 400.489 472.342C400.878 472.587 401.318 472.709 401.807 472.709Z" fill="#CFCFCF"/>
<rect x="31.8516" y="596.227" width="390.981" height="234.907" rx="15.9259" fill="#F7F7F7"/>
<path opacity="0.6" d="M44.8241 621.172V610.748H48.8146C49.5679 610.748 50.194 610.866 50.6928 611.104C51.195 611.338 51.57 611.659 51.8177 612.066C52.0688 612.473 52.1943 612.935 52.1943 613.45C52.1943 613.875 52.1129 614.238 51.95 614.54C51.7871 614.838 51.5683 615.081 51.2934 615.268C51.0186 615.454 50.7115 615.588 50.3721 615.67V615.771C50.742 615.792 51.0966 615.905 51.4359 616.112C51.7787 616.316 52.0586 616.604 52.2758 616.978C52.4929 617.351 52.6015 617.802 52.6015 618.332C52.6015 618.871 52.4709 619.356 52.2096 619.787C51.9483 620.215 51.5547 620.553 51.0287 620.8C50.5028 621.048 49.8411 621.172 49.0436 621.172H44.8241ZM46.7124 619.594H48.7433C49.4288 619.594 49.9225 619.463 50.2245 619.202C50.5299 618.937 50.6826 618.598 50.6826 618.184C50.6826 617.875 50.6063 617.597 50.4536 617.349C50.3009 617.098 50.0837 616.901 49.8021 616.759C49.5204 616.613 49.1845 616.54 48.7942 616.54H46.7124V619.594ZM46.7124 615.181H48.5805C48.9062 615.181 49.1997 615.122 49.461 615.003C49.7223 614.881 49.9276 614.709 50.0769 614.489C50.2296 614.265 50.306 614 50.306 613.695C50.306 613.291 50.1634 612.958 49.8784 612.697C49.5968 612.436 49.1777 612.305 48.6212 612.305H46.7124V615.181ZM64.9923 615.96C64.9923 617.083 64.7819 618.045 64.3611 618.846C63.9437 619.643 63.3737 620.254 62.6509 620.678C61.9315 621.102 61.1154 621.314 60.2026 621.314C59.2898 621.314 58.472 621.102 57.7493 620.678C57.0299 620.251 56.4598 619.638 56.039 618.841C55.6217 618.04 55.413 617.08 55.413 615.96C55.413 614.837 55.6217 613.876 56.039 613.079C56.4598 612.278 57.0299 611.666 57.7493 611.241C58.472 610.817 59.2898 610.605 60.2026 610.605C61.1154 610.605 61.9315 610.817 62.6509 611.241C63.3737 611.666 63.9437 612.278 64.3611 613.079C64.7819 613.876 64.9923 614.837 64.9923 615.96ZM63.0937 615.96C63.0937 615.169 62.9699 614.502 62.7222 613.959C62.4778 613.413 62.1385 613.001 61.7042 612.723C61.2698 612.441 60.7693 612.3 60.2026 612.3C59.6359 612.3 59.1354 612.441 58.7011 612.723C58.2667 613.001 57.9257 613.413 57.678 613.959C57.4337 614.502 57.3115 615.169 57.3115 615.96C57.3115 616.75 57.4337 617.419 57.678 617.965C57.9257 618.508 58.2667 618.92 58.7011 619.202C59.1354 619.48 59.6359 619.619 60.2026 619.619C60.7693 619.619 61.2698 619.48 61.7042 619.202C62.1385 618.92 62.4778 618.508 62.7222 617.965C62.9699 617.419 63.0937 616.75 63.0937 615.96ZM68.2109 621.172V610.748H74.9907V612.331H70.0993V615.161H74.6395V616.744H70.0993V619.589H75.0315V621.172H68.2109ZM78.3506 621.172V610.748H80.239V615.161H85.0694V610.748H86.9628V621.172H85.0694V616.744H80.239V621.172H78.3506ZM90.45 621.172V610.748H92.3384V615.161H97.1687V610.748H99.0622V621.172H97.1687V616.744H92.3384V621.172H90.45ZM103.888 621.172H101.872L105.542 610.748H107.873L111.548 621.172H109.533L106.749 612.885H106.667L103.888 621.172ZM103.954 617.085H109.451V618.601H103.954V617.085ZM122.051 621.172H120.157V612.326H118.427C117.958 612.326 117.573 612.395 117.271 612.534C116.973 612.67 116.75 612.87 116.604 613.135C116.462 613.396 116.391 613.712 116.391 614.082C116.391 614.451 116.462 614.764 116.604 615.018C116.747 615.269 116.968 615.461 117.266 615.593C117.568 615.722 117.952 615.787 118.417 615.787H120.951V617.354H118.162C117.361 617.354 116.686 617.222 116.136 616.957C115.586 616.689 115.169 616.311 114.884 615.822C114.602 615.33 114.462 614.75 114.462 614.082C114.462 613.416 114.601 612.835 114.879 612.336C115.161 611.833 115.575 611.443 116.121 611.165C116.667 610.887 117.339 610.748 118.137 610.748H122.051V621.172ZM116.66 616.448H118.722L116.187 621.172H114.08L116.66 616.448Z" fill="black"/>
<path opacity="0.4" d="M406.9 794.179H43.7959V706.188L281.376 737.642C281.376 737.642 404.805 677.213 406.9 675.185V675.133C406.936 675.133 406.936 675.15 406.9 675.185V794.179Z" fill="url(#paint2_linear_2466_885)"/>
<rect x="403.075" y="671.152" width="8.17935" height="8.17935" rx="4.08967" fill="#04B34A"/>
<path d="M404.917 675.93L290.489 735.463C286.268 737.659 281.473 738.497 276.758 737.864L43.7962 706.587" stroke="#04B34A" stroke-width="3.18518"/>
<path d="M289.669 810.246V790.85L282.435 798.112L279.259 794.963L291.963 782.285L304.641 794.963L301.519 798.112L294.257 790.85V810.246H289.669Z" fill="#04B34A"/>
<path d="M325.618 810.876C323.283 810.867 321.274 810.293 319.591 809.153C317.917 808.012 316.628 806.361 315.723 804.198C314.827 802.036 314.384 799.434 314.393 796.394C314.393 793.362 314.84 790.779 315.736 788.643C316.641 786.508 317.931 784.884 319.605 783.771C321.288 782.649 323.292 782.088 325.618 782.088C327.943 782.088 329.943 782.649 331.617 783.771C333.3 784.893 334.594 786.522 335.499 788.657C336.404 790.784 336.852 793.362 336.843 796.394C336.843 799.443 336.39 802.049 335.485 804.212C334.59 806.375 333.305 808.026 331.631 809.166C329.957 810.306 327.952 810.876 325.618 810.876ZM325.618 806.004C327.21 806.004 328.482 805.203 329.432 803.601C330.382 802 330.852 799.597 330.843 796.394C330.843 794.285 330.626 792.53 330.192 791.127C329.767 789.725 329.16 788.671 328.373 787.965C327.595 787.259 326.676 786.906 325.618 786.906C324.034 786.906 322.767 787.698 321.817 789.281C320.867 790.865 320.387 793.236 320.378 796.394C320.378 798.529 320.591 800.312 321.016 801.742C321.451 803.162 322.061 804.23 322.849 804.945C323.636 805.651 324.559 806.004 325.618 806.004ZM345.86 806.465L345.711 807.958C345.593 809.153 345.367 810.343 345.032 811.528C344.707 812.722 344.363 813.804 344.001 814.772C343.648 815.74 343.363 816.5 343.146 817.052H339.4C339.535 816.518 339.721 815.772 339.956 814.813C340.191 813.863 340.413 812.795 340.621 811.609C340.829 810.424 340.96 809.216 341.015 807.985L341.083 806.465H345.86ZM350.28 805.379V800.751L361.885 782.468H365.876V788.874H363.514L356.198 800.452V800.669H372.69V805.379H350.28ZM363.623 810.266V803.968L363.731 801.918V782.468H369.242V810.266H363.623ZM391.429 805.054V803.588C391.429 802.475 391.664 801.452 392.135 800.52C392.615 799.579 393.307 798.828 394.212 798.267C395.126 797.697 396.239 797.412 397.551 797.412C398.881 797.412 399.998 797.692 400.903 798.253C401.817 798.814 402.505 799.565 402.966 800.506C403.437 801.438 403.672 802.466 403.672 803.588V805.054C403.672 806.167 403.437 807.194 402.966 808.135C402.496 809.067 401.804 809.813 400.89 810.374C399.976 810.944 398.863 811.229 397.551 811.229C396.22 811.229 395.103 810.944 394.198 810.374C393.293 809.813 392.605 809.067 392.135 808.135C391.664 807.194 391.429 806.167 391.429 805.054ZM395.379 803.588V805.054C395.379 805.696 395.533 806.302 395.84 806.872C396.157 807.442 396.727 807.727 397.551 807.727C398.374 807.727 398.935 807.447 399.234 806.886C399.541 806.325 399.695 805.714 399.695 805.054V803.588C399.695 802.927 399.55 802.312 399.261 801.742C398.971 801.172 398.401 800.887 397.551 800.887C396.736 800.887 396.171 801.172 395.854 801.742C395.537 802.312 395.379 802.927 395.379 803.588ZM377.164 789.146V787.68C377.164 786.558 377.403 785.531 377.883 784.599C378.363 783.658 379.055 782.907 379.96 782.345C380.874 781.784 381.978 781.504 383.272 781.504C384.611 781.504 385.733 781.784 386.638 782.345C387.543 782.907 388.23 783.658 388.701 784.599C389.171 785.531 389.407 786.558 389.407 787.68V789.146C389.407 790.268 389.167 791.295 388.687 792.227C388.217 793.159 387.525 793.905 386.611 794.466C385.706 795.018 384.593 795.294 383.272 795.294C381.951 795.294 380.833 795.014 379.919 794.453C379.014 793.883 378.326 793.136 377.856 792.213C377.394 791.281 377.164 790.259 377.164 789.146ZM381.141 787.68V789.146C381.141 789.806 381.294 790.417 381.602 790.978C381.919 791.539 382.475 791.82 383.272 791.82C384.104 791.82 384.67 791.539 384.968 790.978C385.276 790.417 385.43 789.806 385.43 789.146V787.68C385.43 787.019 385.285 786.404 384.995 785.834C384.706 785.264 384.131 784.979 383.272 784.979C382.466 784.979 381.91 785.268 381.602 785.847C381.294 786.427 381.141 787.037 381.141 787.68ZM378.955 810.266L398.066 782.468H401.623L382.512 810.266H378.955Z" fill="black"/>
<path d="M49.4571 694.735C48.4741 694.731 47.6343 694.472 46.9375 693.957C46.2408 693.443 45.7078 692.694 45.3387 691.712C44.9696 690.729 44.785 689.545 44.785 688.159C44.785 686.778 44.9696 685.598 45.3387 684.62C45.712 683.641 46.247 682.894 46.9438 682.38C47.6447 681.866 48.4824 681.609 49.4571 681.609C50.4317 681.609 51.2674 681.868 51.9642 682.386C52.6609 682.9 53.1939 683.647 53.563 684.626C53.9362 685.6 54.1229 686.778 54.1229 688.159C54.1229 689.549 53.9383 690.735 53.5692 691.718C53.2001 692.697 52.6671 693.445 51.9704 693.964C51.2736 694.478 50.4358 694.735 49.4571 694.735ZM49.4571 693.074C50.3197 693.074 50.9937 692.653 51.4789 691.811C51.9683 690.969 52.213 689.752 52.213 688.159C52.213 687.102 52.101 686.208 51.8771 685.478C51.6572 684.744 51.34 684.188 50.9252 683.811C50.5146 683.429 50.0253 683.238 49.4571 683.238C48.5986 683.238 47.9246 683.661 47.4352 684.508C46.9458 685.354 46.6991 686.571 46.6949 688.159C46.6949 689.221 46.8048 690.119 47.0246 690.853C47.2486 691.583 47.5659 692.137 47.9765 692.514C48.387 692.887 48.8806 693.074 49.4571 693.074ZM58.1355 692.782L58.0422 693.46C57.98 693.957 57.8742 694.476 57.7249 695.015C57.5798 695.558 57.4284 696.062 57.2708 696.527C57.1174 696.991 56.9909 697.36 56.8913 697.634H55.5725C55.6264 697.377 55.701 697.028 55.7964 696.589C55.8918 696.153 55.9851 695.666 56.0764 695.127C56.1676 694.588 56.236 694.038 56.2817 693.478L56.3439 692.782H58.1355ZM64.5464 694.698C63.9782 694.689 63.4183 694.586 62.8667 694.387C62.3193 694.188 61.8216 693.856 61.3737 693.391C60.9258 692.927 60.567 692.303 60.2974 691.519C60.032 690.735 59.8993 689.756 59.8993 688.582C59.8993 687.471 60.0092 686.484 60.229 685.621C60.453 684.758 60.7744 684.031 61.1933 683.438C61.6122 682.84 62.1181 682.386 62.7112 682.075C63.3043 681.764 63.9699 681.609 64.7082 681.609C65.4671 681.609 66.1411 681.758 66.73 682.056C67.3189 682.355 67.7959 682.768 68.1609 683.294C68.53 683.821 68.7643 684.42 68.8638 685.092H66.9664C66.8378 684.561 66.5828 684.128 66.2012 683.792C65.8197 683.456 65.322 683.288 64.7082 683.288C63.775 683.288 63.0471 683.695 62.5246 684.508C62.0062 685.32 61.7449 686.451 61.7407 687.898H61.834C62.0538 687.537 62.3234 687.23 62.6428 686.977C62.9663 686.72 63.3271 686.523 63.7252 686.386C64.1275 686.245 64.5506 686.175 64.9943 686.175C65.7326 686.175 66.4003 686.355 66.9975 686.716C67.5989 687.073 68.0779 687.566 68.4346 688.197C68.7913 688.827 68.9696 689.549 68.9696 690.362C68.9696 691.174 68.785 691.911 68.4159 692.57C68.051 693.229 67.5367 693.752 66.8731 694.138C66.2095 694.519 65.434 694.706 64.5464 694.698ZM64.5402 693.08C65.0296 693.08 65.4671 692.96 65.8528 692.719C66.2385 692.479 66.5434 692.155 66.7673 691.749C66.9913 691.342 67.1033 690.888 67.1033 690.386C67.1033 689.897 66.9934 689.451 66.7736 689.049C66.5579 688.647 66.2593 688.327 65.8777 688.091C65.5003 687.854 65.069 687.736 64.5837 687.736C64.2146 687.736 63.8725 687.807 63.5573 687.948C63.2462 688.089 62.9725 688.284 62.7361 688.533C62.4997 688.781 62.3131 689.068 62.1762 689.391C62.0435 689.71 61.9771 690.048 61.9771 690.405C61.9771 690.882 62.087 691.324 62.3068 691.73C62.5308 692.137 62.8356 692.464 63.2213 692.713C63.6112 692.958 64.0508 693.08 64.5402 693.08Z" fill="#CFCFCF"/>
<path d="M405.056 647.541V660.281H403.128V649.469H403.053L400.005 651.46V649.618L403.184 647.541H405.056Z" fill="#CFCFCF"/>
<rect x="437.167" y="98.7422" width="390.981" height="234.907" rx="15.9259" fill="#F7F7F7"/>
<path opacity="0.4" d="M449.11 296.624H812.214V208.633H449.11V296.624Z" fill="url(#paint3_linear_2466_885)"/>
<rect x="808.389" y="204.652" width="8.17935" height="8.17935" rx="4.08967" fill="#04B34A"/>
<path d="M809.833 209.035L449.11 209.035" stroke="#CACACA" stroke-width="3.18518"/>
<path d="M450.336 196.969V195.575L454.647 191.109C455.107 190.623 455.487 190.198 455.786 189.833C456.088 189.464 456.314 189.114 456.464 188.782C456.613 188.45 456.688 188.098 456.688 187.724C456.688 187.301 456.588 186.936 456.389 186.629C456.19 186.318 455.918 186.08 455.574 185.914C455.23 185.744 454.842 185.659 454.411 185.659C453.954 185.659 453.556 185.752 453.216 185.939C452.876 186.125 452.615 186.389 452.432 186.729C452.25 187.069 452.159 187.467 452.159 187.923H450.323C450.323 187.148 450.502 186.47 450.858 185.889C451.215 185.308 451.705 184.858 452.327 184.539C452.949 184.216 453.656 184.054 454.448 184.054C455.248 184.054 455.954 184.213 456.563 184.533C457.177 184.848 457.656 185.279 458 185.827C458.344 186.37 458.517 186.984 458.517 187.668C458.517 188.141 458.427 188.603 458.249 189.056C458.075 189.508 457.77 190.012 457.335 190.567C456.899 191.119 456.294 191.789 455.518 192.577L452.986 195.227V195.32H458.722V196.969H450.336ZM465.207 197.143C464.316 197.143 463.528 196.989 462.843 196.683C462.163 196.376 461.63 195.953 461.245 195.413C460.859 194.874 460.668 194.261 460.672 193.572C460.668 193.033 460.778 192.537 461.002 192.085C461.23 191.629 461.539 191.25 461.929 190.947C462.319 190.64 462.754 190.445 463.235 190.362V190.287C462.601 190.134 462.093 189.794 461.711 189.267C461.33 188.74 461.141 188.135 461.145 187.451C461.141 186.799 461.313 186.219 461.661 185.709C462.014 185.194 462.497 184.79 463.111 184.496C463.725 184.201 464.424 184.054 465.207 184.054C465.983 184.054 466.676 184.203 467.285 184.502C467.899 184.796 468.382 185.201 468.735 185.715C469.087 186.225 469.266 186.804 469.27 187.451C469.266 188.135 469.071 188.74 468.685 189.267C468.299 189.794 467.797 190.134 467.18 190.287V190.362C467.656 190.445 468.086 190.64 468.467 190.947C468.853 191.25 469.16 191.629 469.388 192.085C469.62 192.537 469.738 193.033 469.743 193.572C469.738 194.261 469.544 194.874 469.158 195.413C468.772 195.953 468.237 196.376 467.553 196.683C466.873 196.989 466.091 197.143 465.207 197.143ZM465.207 195.569C465.734 195.569 466.19 195.482 466.576 195.308C466.962 195.129 467.26 194.883 467.472 194.567C467.683 194.248 467.791 193.875 467.795 193.448C467.791 193.004 467.675 192.612 467.447 192.272C467.223 191.932 466.918 191.664 466.533 191.469C466.147 191.274 465.705 191.177 465.207 191.177C464.706 191.177 464.26 191.274 463.87 191.469C463.48 191.664 463.173 191.932 462.949 192.272C462.725 192.612 462.615 193.004 462.619 193.448C462.615 193.875 462.717 194.248 462.924 194.567C463.136 194.883 463.437 195.129 463.826 195.308C464.216 195.482 464.677 195.569 465.207 195.569ZM465.207 189.64C465.63 189.64 466.006 189.555 466.333 189.385C466.661 189.215 466.918 188.979 467.105 188.676C467.296 188.373 467.393 188.019 467.397 187.612C467.393 187.214 467.298 186.866 467.111 186.567C466.929 186.269 466.674 186.038 466.346 185.877C466.018 185.711 465.639 185.628 465.207 185.628C464.768 185.628 464.382 185.711 464.05 185.877C463.723 186.038 463.468 186.269 463.285 186.567C463.103 186.866 463.013 187.214 463.018 187.612C463.013 188.019 463.105 188.373 463.291 188.676C463.478 188.979 463.735 189.215 464.063 189.385C464.395 189.555 464.776 189.64 465.207 189.64ZM473.863 195.227L473.769 195.905C473.707 196.403 473.601 196.921 473.452 197.46C473.307 198.004 473.155 198.507 472.998 198.972C472.844 199.436 472.718 199.806 472.618 200.079H471.299C471.353 199.822 471.428 199.474 471.523 199.034C471.619 198.599 471.712 198.111 471.803 197.572C471.895 197.033 471.963 196.484 472.009 195.924L472.071 195.227H473.863ZM480.261 197.143C479.407 197.143 478.644 196.996 477.972 196.701C477.304 196.407 476.775 195.998 476.385 195.476C476 194.949 475.792 194.339 475.763 193.647H477.717C477.741 194.024 477.868 194.352 478.096 194.63C478.328 194.903 478.631 195.115 479.004 195.264C479.378 195.413 479.792 195.488 480.249 195.488C480.75 195.488 481.194 195.401 481.58 195.227C481.97 195.053 482.275 194.81 482.494 194.499C482.714 194.184 482.824 193.821 482.824 193.41C482.824 192.983 482.714 192.608 482.494 192.284C482.279 191.957 481.961 191.7 481.543 191.513C481.128 191.326 480.626 191.233 480.037 191.233H478.961V189.665H480.037C480.51 189.665 480.925 189.58 481.281 189.41C481.642 189.24 481.924 189.004 482.127 188.701C482.331 188.394 482.432 188.035 482.432 187.625C482.432 187.231 482.343 186.889 482.165 186.598C481.99 186.304 481.742 186.074 481.418 185.908C481.099 185.742 480.721 185.659 480.286 185.659C479.871 185.659 479.483 185.736 479.123 185.889C478.766 186.038 478.476 186.254 478.252 186.536C478.028 186.814 477.907 187.148 477.891 187.538H476.031C476.051 186.849 476.255 186.244 476.64 185.721C477.03 185.198 477.544 184.79 478.183 184.496C478.822 184.201 479.531 184.054 480.311 184.054C481.128 184.054 481.833 184.213 482.426 184.533C483.023 184.848 483.484 185.269 483.807 185.796C484.135 186.322 484.296 186.899 484.292 187.525C484.296 188.239 484.097 188.844 483.695 189.342C483.297 189.839 482.766 190.173 482.102 190.343V190.443C482.949 190.571 483.604 190.907 484.068 191.451C484.537 191.994 484.769 192.668 484.765 193.473C484.769 194.173 484.574 194.802 484.18 195.357C483.79 195.913 483.258 196.351 482.581 196.67C481.905 196.985 481.132 197.143 480.261 197.143Z" fill="#CFCFCF"/>
<rect x="467.426" y="110.688" width="350.37" height="211.019" fill="url(#paint4_linear_2466_885)"/>
<rect x="564.574" y="110.688" width="253.222" height="211.019" fill="url(#paint5_linear_2466_885)"/>
<rect x="658.537" y="110.688" width="159.259" height="211.019" fill="url(#paint6_linear_2466_885)"/>
<path opacity="0.6" d="M456.843 113.263V114.846H452.028V123.688H450.14V113.263H456.843ZM468.726 118.475C468.726 119.599 468.516 120.561 468.095 121.361C467.677 122.159 467.107 122.77 466.385 123.194C465.665 123.618 464.849 123.83 463.936 123.83C463.024 123.83 462.206 123.618 461.483 123.194C460.764 122.766 460.194 122.154 459.773 121.356C459.355 120.555 459.147 119.595 459.147 118.475C459.147 117.352 459.355 116.392 459.773 115.594C460.194 114.794 460.764 114.181 461.483 113.757C462.206 113.333 463.024 113.121 463.936 113.121C464.849 113.121 465.665 113.333 466.385 113.757C467.107 114.181 467.677 114.794 468.095 115.594C468.516 116.392 468.726 117.352 468.726 118.475ZM466.827 118.475C466.827 117.685 466.704 117.018 466.456 116.475C466.212 115.929 465.872 115.516 465.438 115.238C465.004 114.957 464.503 114.816 463.936 114.816C463.37 114.816 462.869 114.957 462.435 115.238C462 115.516 461.659 115.929 461.412 116.475C461.167 117.018 461.045 117.685 461.045 118.475C461.045 119.266 461.167 119.935 461.412 120.481C461.659 121.024 462 121.436 462.435 121.718C462.869 121.996 463.37 122.135 463.936 122.135C464.503 122.135 465.004 121.996 465.438 121.718C465.872 121.436 466.212 121.024 466.456 120.481C466.704 119.935 466.827 119.266 466.827 118.475ZM480.867 116.78H478.964C478.909 116.468 478.809 116.192 478.663 115.951C478.517 115.706 478.336 115.499 478.119 115.33C477.902 115.16 477.654 115.033 477.376 114.948C477.101 114.86 476.804 114.816 476.485 114.816C475.918 114.816 475.416 114.958 474.978 115.243C474.541 115.525 474.198 115.939 473.95 116.485C473.702 117.028 473.579 117.692 473.579 118.475C473.579 119.273 473.702 119.945 473.95 120.491C474.201 121.034 474.544 121.445 474.978 121.723C475.416 121.998 475.917 122.135 476.48 122.135C476.792 122.135 477.084 122.094 477.355 122.013C477.63 121.928 477.876 121.804 478.093 121.641C478.314 121.478 478.499 121.278 478.648 121.041C478.801 120.803 478.906 120.532 478.964 120.226L480.867 120.237C480.796 120.732 480.642 121.197 480.404 121.631C480.17 122.065 479.863 122.449 479.483 122.781C479.103 123.111 478.658 123.369 478.149 123.555C477.64 123.738 477.075 123.83 476.454 123.83C475.538 123.83 474.72 123.618 474.001 123.194C473.282 122.77 472.715 122.157 472.301 121.356C471.887 120.555 471.68 119.595 471.68 118.475C471.68 117.352 471.889 116.392 472.306 115.594C472.723 114.794 473.292 114.181 474.011 113.757C474.731 113.333 475.545 113.121 476.454 113.121C477.035 113.121 477.574 113.202 478.073 113.365C478.572 113.528 479.016 113.767 479.407 114.083C479.797 114.395 480.117 114.778 480.369 115.233C480.623 115.684 480.789 116.2 480.867 116.78ZM492.535 113.263V123.688H490.662V114.831H486.102V123.688H484.229V113.263H492.535ZM505.542 118.475C505.542 119.599 505.332 120.561 504.911 121.361C504.493 122.159 503.923 122.77 503.201 123.194C502.481 123.618 501.665 123.83 500.752 123.83C499.839 123.83 499.022 123.618 498.299 123.194C497.58 122.766 497.009 122.154 496.589 121.356C496.171 120.555 495.963 119.595 495.963 118.475C495.963 117.352 496.171 116.392 496.589 115.594C497.009 114.794 497.58 114.181 498.299 113.757C499.022 113.333 499.839 113.121 500.752 113.121C501.665 113.121 502.481 113.333 503.201 113.757C503.923 114.181 504.493 114.794 504.911 115.594C505.332 116.392 505.542 117.352 505.542 118.475ZM503.643 118.475C503.643 117.685 503.52 117.018 503.272 116.475C503.028 115.929 502.688 115.516 502.254 115.238C501.819 114.957 501.319 114.816 500.752 114.816C500.186 114.816 499.685 114.957 499.251 115.238C498.816 115.516 498.475 115.929 498.228 116.475C497.983 117.018 497.861 117.685 497.861 118.475C497.861 119.266 497.983 119.935 498.228 120.481C498.475 121.024 498.816 121.436 499.251 121.718C499.685 121.996 500.186 122.135 500.752 122.135C501.319 122.135 501.819 121.996 502.254 121.718C502.688 121.436 503.028 121.024 503.272 120.481C503.52 119.935 503.643 119.266 503.643 118.475ZM508.084 126.202V122.145H508.781C509.015 121.959 509.234 121.696 509.438 121.356C509.641 121.017 509.814 120.552 509.957 119.962C510.099 119.371 510.198 118.608 510.252 117.671L510.527 113.263H517.19V122.145H518.35V126.192H516.538V123.688H509.896V126.202H508.084ZM510.98 122.145H515.378V114.846H512.227L512.064 117.671C512.02 118.38 511.949 119.015 511.85 119.575C511.752 120.135 511.628 120.628 511.479 121.056C511.329 121.48 511.163 121.843 510.98 122.145ZM521.135 126.202V122.145H521.832C522.066 121.959 522.285 121.696 522.489 121.356C522.692 121.017 522.865 120.552 523.008 119.962C523.15 119.371 523.249 118.608 523.303 117.671L523.578 113.263H530.241V122.145H531.401V126.192H529.589V123.688H522.947V126.202H521.135ZM524.031 122.145H528.429V114.846H525.278L525.115 117.671C525.071 118.38 525 119.015 524.901 119.575C524.803 120.135 524.679 120.628 524.53 121.056C524.38 121.48 524.214 121.843 524.031 122.145ZM534.373 123.688V113.263H541.153V114.846H536.261V117.676H540.802V119.259H536.261V122.105H541.194V123.688H534.373ZM544.513 123.688V113.263H548.422C549.223 113.263 549.895 113.413 550.437 113.711C550.984 114.01 551.396 114.42 551.674 114.943C551.956 115.462 552.097 116.053 552.097 116.714C552.097 117.383 551.956 117.977 551.674 118.496C551.393 119.015 550.977 119.424 550.427 119.722C549.878 120.018 549.201 120.165 548.396 120.165H545.806V118.613H548.142C548.61 118.613 548.994 118.531 549.292 118.368C549.591 118.206 549.811 117.982 549.954 117.697C550.1 117.412 550.173 117.084 550.173 116.714C550.173 116.344 550.1 116.019 549.954 115.737C549.811 115.455 549.589 115.236 549.287 115.08C548.989 114.921 548.603 114.841 548.132 114.841H546.401V123.688H544.513ZM562.52 113.263V123.688H560.668V113.263H562.52ZM554.544 123.688L557.853 118.211L554.733 113.263H557.049L559.512 117.666H563.721L566.144 113.263H568.45L565.376 118.206L568.643 123.688H566.409L563.991 119.417H559.222L556.758 123.688H554.544ZM577.756 123.688L574.326 119.132H573.399V123.688H571.511V113.263H573.399V117.549H573.873L577.578 113.263H579.904L575.786 118.017L580.082 123.688H577.756ZM584.137 123.688H582.121L585.791 113.263H588.123L591.797 123.688H589.782L586.998 115.401H586.916L584.137 123.688ZM584.203 119.6H589.7V121.117H584.203V119.6Z" fill="black"/>
<rect x="437.167" y="347.984" width="390.981" height="234.907" rx="15.9259" fill="#F7F7F7"/>
<path opacity="0.6" d="M452.027 362.505V372.93H450.139V362.505H452.027ZM455.048 364.088V362.505H463.365V364.088H460.143V372.93H458.269V364.088H455.048ZM470.415 366.959V368.476H465.722V366.959H470.415ZM473.867 362.505H475.741V369.611H475.837L480.739 362.505H482.434V372.93H480.545V365.829H480.459L475.542 372.93H473.867V362.505ZM494.43 362.505V372.93H492.557V364.073H487.996V372.93H486.123V362.505H494.43ZM507.437 367.718C507.437 368.841 507.226 369.803 506.806 370.604C506.388 371.401 505.818 372.012 505.095 372.436C504.376 372.86 503.56 373.072 502.647 373.072C501.734 373.072 500.916 372.86 500.194 372.436C499.474 372.008 498.904 371.396 498.483 370.598C498.066 369.798 497.857 368.837 497.857 367.718C497.857 366.594 498.066 365.634 498.483 364.837C498.904 364.036 499.474 363.423 500.194 362.999C500.916 362.575 501.734 362.363 502.647 362.363C503.56 362.363 504.376 362.575 505.095 362.999C505.818 363.423 506.388 364.036 506.806 364.837C507.226 365.634 507.437 366.594 507.437 367.718ZM505.538 367.718C505.538 366.927 505.414 366.26 505.167 365.717C504.922 365.171 504.583 364.759 504.149 364.48C503.714 364.199 503.214 364.058 502.647 364.058C502.08 364.058 501.58 364.199 501.146 364.48C500.711 364.759 500.37 365.171 500.122 365.717C499.878 366.26 499.756 366.927 499.756 367.718C499.756 368.508 499.878 369.177 500.122 369.723C500.37 370.266 500.711 370.678 501.146 370.96C501.58 371.238 502.08 371.377 502.647 371.377C503.214 371.377 503.714 371.238 504.149 370.96C504.583 370.678 504.922 370.266 505.167 369.723C505.414 369.177 505.538 368.508 505.538 367.718ZM509.735 364.088V362.505H518.052V364.088H514.83V372.93H512.957V364.088H509.735ZM521.089 372.93V362.505H527.869V364.088H522.977V366.918H527.518V368.501H522.977V371.347H527.91V372.93H521.089ZM537.474 372.93L534.043 368.374H533.117V372.93H531.229V362.505H533.117V366.791H533.59L537.296 362.505H539.622L535.504 367.259L539.8 372.93H537.474ZM543.855 372.93H541.839L545.509 362.505H547.84L551.515 372.93H549.5L546.715 364.643H546.634L543.855 372.93ZM543.921 368.842H549.418V370.359H543.921V368.842Z" fill="black"/>
<path opacity="0.4" d="M812.215 545.937H449.111V457.946L686.691 489.4C686.691 489.4 810.12 428.971 812.215 426.943V426.891C812.251 426.891 812.251 426.908 812.215 426.943V545.937Z" fill="url(#paint7_linear_2466_885)"/>
<rect x="808.39" y="422.91" width="8.17935" height="8.17935" rx="4.08967" fill="#04B34A"/>
<path d="M810.231 427.688L695.804 487.221C691.583 489.416 686.788 490.255 682.073 489.622L449.111 458.345" stroke="#04B34A" stroke-width="3.18518"/>
<path d="M695.984 562.004V542.608L688.75 549.869L685.574 546.72L698.278 534.043L710.956 546.72L707.834 549.869L700.572 542.608V562.004H695.984Z" fill="#04B34A"/>
<path d="M732.127 562.634C729.792 562.625 727.784 562.051 726.101 560.91C724.426 559.77 723.137 558.119 722.232 555.956C721.336 553.794 720.893 551.192 720.902 548.152C720.902 545.12 721.35 542.537 722.246 540.401C723.151 538.266 724.44 536.641 726.114 535.528C727.797 534.406 729.801 533.845 732.127 533.845C734.453 533.845 736.452 534.406 738.126 535.528C739.809 536.651 741.103 538.279 742.008 540.415C742.913 542.541 743.361 545.12 743.352 548.152C743.352 551.201 742.9 553.807 741.995 555.97C741.099 558.132 739.814 559.784 738.14 560.924C736.466 562.064 734.462 562.634 732.127 562.634ZM732.127 557.761C733.72 557.761 734.991 556.961 735.941 555.359C736.891 553.757 737.362 551.355 737.353 548.152C737.353 546.043 737.136 544.288 736.701 542.885C736.276 541.483 735.67 540.428 734.882 539.723C734.104 539.017 733.186 538.664 732.127 538.664C730.543 538.664 729.277 539.456 728.327 541.039C727.376 542.623 726.897 544.994 726.888 548.152C726.888 550.287 727.1 552.07 727.526 553.499C727.96 554.92 728.571 555.988 729.358 556.703C730.145 557.409 731.068 557.761 732.127 557.761ZM752.37 558.223L752.22 559.716C752.103 560.91 751.877 562.1 751.542 563.286C751.216 564.48 750.872 565.562 750.51 566.53C750.157 567.498 749.872 568.258 749.655 568.81H745.909C746.045 568.276 746.23 567.53 746.465 566.57C746.701 565.62 746.922 564.553 747.131 563.367C747.339 562.182 747.47 560.974 747.524 559.743L747.592 558.223H752.37ZM766.746 533.845C768.175 533.845 769.551 534.085 770.872 534.565C772.202 535.044 773.387 535.809 774.428 536.859C775.478 537.908 776.306 539.302 776.912 541.039C777.527 542.768 777.839 544.889 777.848 547.405C777.848 549.767 777.582 551.875 777.048 553.73C776.523 555.576 775.767 557.146 774.781 558.44C773.795 559.734 772.605 560.72 771.211 561.399C769.818 562.069 768.261 562.403 766.542 562.403C764.687 562.403 763.049 562.046 761.628 561.331C760.208 560.607 759.063 559.625 758.194 558.386C757.335 557.137 756.814 555.735 756.633 554.178H762.429C762.655 555.192 763.131 555.979 763.854 556.54C764.578 557.092 765.474 557.368 766.542 557.368C768.352 557.368 769.727 556.581 770.668 555.006C771.609 553.423 772.084 551.255 772.093 548.504H771.903C771.487 549.319 770.926 550.02 770.22 550.608C769.514 551.187 768.705 551.635 767.791 551.952C766.886 552.269 765.922 552.427 764.9 552.427C763.262 552.427 761.8 552.043 760.515 551.273C759.23 550.504 758.217 549.446 757.475 548.097C756.733 546.749 756.362 545.211 756.362 543.482C756.353 541.618 756.783 539.958 757.651 538.501C758.52 537.044 759.733 535.904 761.289 535.081C762.855 534.248 764.673 533.836 766.746 533.845ZM766.786 538.46C765.872 538.46 765.058 538.677 764.343 539.112C763.637 539.546 763.076 540.13 762.66 540.863C762.253 541.596 762.054 542.415 762.063 543.32C762.063 544.233 762.262 545.057 762.66 545.79C763.067 546.514 763.619 547.093 764.316 547.527C765.022 547.953 765.827 548.165 766.732 548.165C767.411 548.165 768.04 548.038 768.619 547.785C769.198 547.532 769.7 547.183 770.125 546.74C770.56 546.288 770.899 545.767 771.143 545.179C771.388 544.591 771.51 543.967 771.51 543.306C771.501 542.428 771.293 541.623 770.885 540.89C770.478 540.157 769.917 539.569 769.202 539.125C768.487 538.682 767.682 538.46 766.786 538.46ZM796.744 556.811V555.345C796.744 554.232 796.979 553.21 797.45 552.278C797.929 551.337 798.622 550.586 799.527 550.025C800.441 549.455 801.554 549.17 802.866 549.17C804.196 549.17 805.313 549.45 806.218 550.011C807.132 550.572 807.82 551.323 808.281 552.264C808.752 553.196 808.987 554.223 808.987 555.345V556.811C808.987 557.924 808.752 558.951 808.281 559.892C807.811 560.824 807.119 561.571 806.205 562.132C805.291 562.702 804.178 562.987 802.866 562.987C801.535 562.987 800.418 562.702 799.513 562.132C798.608 561.571 797.92 560.824 797.45 559.892C796.979 558.951 796.744 557.924 796.744 556.811ZM800.694 555.345V556.811C800.694 557.454 800.848 558.06 801.155 558.63C801.472 559.2 802.042 559.485 802.866 559.485C803.689 559.485 804.25 559.205 804.549 558.644C804.856 558.083 805.01 557.472 805.01 556.811V555.345C805.01 554.685 804.865 554.07 804.576 553.499C804.286 552.929 803.716 552.644 802.866 552.644C802.051 552.644 801.486 552.929 801.169 553.499C800.852 554.07 800.694 554.685 800.694 555.345ZM782.479 540.903V539.438C782.479 538.316 782.718 537.288 783.198 536.356C783.678 535.415 784.37 534.664 785.275 534.103C786.189 533.542 787.293 533.262 788.587 533.262C789.926 533.262 791.048 533.542 791.953 534.103C792.858 534.664 793.545 535.415 794.016 536.356C794.486 537.288 794.722 538.316 794.722 539.438V540.903C794.722 542.026 794.482 543.053 794.002 543.985C793.532 544.917 792.84 545.663 791.926 546.224C791.021 546.776 789.908 547.052 788.587 547.052C787.265 547.052 786.148 546.772 785.234 546.211C784.329 545.641 783.641 544.894 783.171 543.971C782.709 543.039 782.479 542.016 782.479 540.903ZM786.456 539.438V540.903C786.456 541.564 786.609 542.175 786.917 542.736C787.234 543.297 787.79 543.577 788.587 543.577C789.419 543.577 789.985 543.297 790.283 542.736C790.591 542.175 790.745 541.564 790.745 540.903V539.438C790.745 538.777 790.6 538.162 790.31 537.592C790.021 537.022 789.446 536.737 788.587 536.737C787.781 536.737 787.225 537.026 786.917 537.605C786.609 538.184 786.456 538.795 786.456 539.438ZM784.27 562.023L803.381 534.225H806.938L787.826 562.023H784.27Z" fill="black"/>
<path d="M455.17 433.541V446.281H453.242V435.469H453.167L450.119 437.46V435.618L453.298 433.541H455.17ZM462.875 446.493C461.892 446.489 461.052 446.229 460.355 445.715C459.659 445.201 459.126 444.452 458.757 443.469C458.388 442.486 458.203 441.302 458.203 439.917C458.203 438.536 458.388 437.356 458.757 436.377C459.13 435.399 459.665 434.652 460.362 434.138C461.063 433.623 461.9 433.366 462.875 433.366C463.85 433.366 464.685 433.626 465.382 434.144C466.079 434.658 466.612 435.405 466.981 436.384C467.354 437.358 467.541 438.536 467.541 439.917C467.541 441.306 467.356 442.493 466.987 443.476C466.618 444.454 466.085 445.203 465.388 445.721C464.692 446.236 463.854 446.493 462.875 446.493ZM462.875 444.832C463.738 444.832 464.412 444.411 464.897 443.569C465.386 442.727 465.631 441.51 465.631 439.917C465.631 438.86 465.519 437.966 465.295 437.236C465.075 436.502 464.758 435.946 464.343 435.569C463.933 435.187 463.443 434.996 462.875 434.996C462.017 434.996 461.343 435.419 460.853 436.265C460.364 437.111 460.117 438.329 460.113 439.917C460.113 440.979 460.223 441.877 460.443 442.611C460.667 443.341 460.984 443.894 461.394 444.272C461.805 444.645 462.299 444.832 462.875 444.832ZM471.553 444.539L471.46 445.217C471.398 445.715 471.292 446.234 471.143 446.773C470.998 447.316 470.846 447.82 470.689 448.284C470.535 448.749 470.409 449.118 470.309 449.392H468.99C469.044 449.135 469.119 448.786 469.214 448.347C469.31 447.911 469.403 447.424 469.494 446.885C469.586 446.346 469.654 445.796 469.7 445.236L469.762 444.539H471.553ZM474.082 446.281L479.644 435.282V435.189H473.211V433.541H481.635V435.245L476.092 446.281H474.082Z" fill="#CFCFCF"/>
<path d="M787.636 399.298V412.039H785.708V401.227H785.633L782.585 403.218V401.376L785.764 399.298H787.636ZM795.739 399.298V412.039H793.811V401.227H793.736L790.688 403.218V401.376L793.867 399.298H795.739ZM800.718 410.297L800.624 410.975C800.562 411.473 800.456 411.991 800.307 412.531C800.162 413.074 800.011 413.578 799.853 414.042C799.7 414.507 799.573 414.876 799.474 415.15H798.155C798.209 414.892 798.283 414.544 798.379 414.104C798.474 413.669 798.567 413.182 798.659 412.643C798.75 412.103 798.818 411.554 798.864 410.994L798.926 410.297H800.718ZM807.129 412.213C806.56 412.205 806.001 412.101 805.449 411.902C804.901 411.703 804.404 411.371 803.956 410.907C803.508 410.442 803.149 409.818 802.88 409.034C802.614 408.25 802.482 407.272 802.482 406.098C802.482 404.986 802.591 403.999 802.811 403.137C803.035 402.274 803.357 401.546 803.775 400.953C804.194 400.356 804.7 399.902 805.293 399.591C805.886 399.28 806.552 399.124 807.29 399.124C808.049 399.124 808.723 399.273 809.312 399.572C809.901 399.871 810.378 400.283 810.743 400.81C811.112 401.337 811.347 401.936 811.446 402.608H809.549C809.42 402.077 809.165 401.644 808.783 401.308C808.402 400.972 807.904 400.804 807.29 400.804C806.357 400.804 805.629 401.21 805.107 402.023C804.588 402.836 804.327 403.966 804.323 405.414H804.416C804.636 405.053 804.906 404.746 805.225 404.493C805.548 404.236 805.909 404.039 806.307 403.902C806.71 403.761 807.133 403.69 807.577 403.69C808.315 403.69 808.983 403.871 809.58 404.232C810.181 404.588 810.66 405.082 811.017 405.712C811.373 406.343 811.552 407.064 811.552 407.877C811.552 408.69 811.367 409.426 810.998 410.086C810.633 410.745 810.119 411.268 809.455 411.653C808.792 412.035 808.016 412.222 807.129 412.213ZM807.122 410.596C807.612 410.596 808.049 410.476 808.435 410.235C808.821 409.994 809.126 409.671 809.35 409.264C809.574 408.858 809.685 408.404 809.685 407.902C809.685 407.413 809.576 406.967 809.356 406.565C809.14 406.162 808.842 405.843 808.46 405.606C808.083 405.37 807.651 405.252 807.166 405.252C806.797 405.252 806.455 405.322 806.139 405.463C805.828 405.604 805.555 405.799 805.318 406.048C805.082 406.297 804.895 406.583 804.758 406.907C804.626 407.226 804.559 407.564 804.559 407.921C804.559 408.398 804.669 408.839 804.889 409.246C805.113 409.652 805.418 409.98 805.804 410.229C806.193 410.473 806.633 410.596 807.122 410.596Z" fill="#CFCFCF"/>
<rect x="437.167" y="596.227" width="390.981" height="234.907" rx="15.9259" fill="#F7F7F7"/>
<path opacity="0.6" d="M449.462 623.686V619.63H450.159C450.394 619.443 450.612 619.18 450.816 618.841C451.02 618.501 451.193 618.036 451.335 617.446C451.478 616.856 451.576 616.092 451.63 615.156L451.905 610.748H458.568V619.63H459.729V623.676H457.916V621.172H451.274V623.686H449.462ZM452.358 619.63H456.756V612.331H453.605L453.442 615.156C453.398 615.865 453.327 616.499 453.229 617.059C453.13 617.619 453.006 618.113 452.857 618.54C452.708 618.965 452.541 619.328 452.358 619.63ZM464.039 621.172H462.023L465.693 610.748H468.024L471.699 621.172H469.684L466.899 612.885H466.818L464.039 621.172ZM464.105 617.085H469.602V618.601H464.105V617.085ZM473.829 621.172V619.604L474.124 619.589C474.524 619.565 474.842 619.421 475.076 619.156C475.313 618.892 475.488 618.466 475.6 617.879C475.715 617.292 475.792 616.504 475.829 615.517L476.002 610.748H482.833V621.172H480.985V612.3H477.763L477.6 616.102C477.553 617.242 477.427 618.187 477.224 618.937C477.024 619.687 476.694 620.247 476.236 620.617C475.782 620.987 475.149 621.172 474.338 621.172H473.829ZM487.603 614.774H490.249C491.047 614.774 491.731 614.904 492.301 615.166C492.874 615.424 493.314 615.788 493.619 616.26C493.924 616.732 494.077 617.287 494.077 617.924C494.077 618.566 493.924 619.131 493.619 619.619C493.314 620.105 492.874 620.485 492.301 620.76C491.731 621.034 491.047 621.172 490.249 621.172H486.345V610.748H488.239V619.625H490.249C490.67 619.625 491.027 619.545 491.318 619.385C491.61 619.226 491.831 619.015 491.98 618.754C492.133 618.493 492.209 618.21 492.209 617.904C492.209 617.463 492.039 617.088 491.7 616.779C491.364 616.467 490.881 616.311 490.249 616.311H487.603V614.774ZM497.347 621.172V610.748H499.235V615.161H504.065V610.748H505.959V621.172H504.065V616.744H499.235V621.172H497.347ZM509.446 621.172V610.748H516.226V612.331H511.334V615.161H515.875V616.744H511.334V619.589H516.267V621.172H509.446ZM519.586 621.172V610.748H523.576C524.33 610.748 524.956 610.866 525.454 611.104C525.957 611.338 526.332 611.659 526.579 612.066C526.83 612.473 526.956 612.935 526.956 613.45C526.956 613.875 526.875 614.238 526.712 614.54C526.549 614.838 526.33 615.081 526.055 615.268C525.78 615.454 525.473 615.588 525.134 615.67V615.771C525.504 615.792 525.858 615.905 526.198 616.112C526.54 616.316 526.82 616.604 527.037 616.978C527.255 617.351 527.363 617.802 527.363 618.332C527.363 618.871 527.233 619.356 526.971 619.787C526.71 620.215 526.316 620.553 525.79 620.8C525.264 621.048 524.603 621.172 523.805 621.172H519.586ZM521.474 619.594H523.505C524.19 619.594 524.684 619.463 524.986 619.202C525.292 618.937 525.444 618.598 525.444 618.184C525.444 617.875 525.368 617.597 525.215 617.349C525.062 617.098 524.845 616.901 524.564 616.759C524.282 616.613 523.946 616.54 523.556 616.54H521.474V619.594ZM521.474 615.181H523.342C523.668 615.181 523.961 615.122 524.223 615.003C524.484 614.881 524.689 614.709 524.839 614.489C524.991 614.265 525.068 614 525.068 613.695C525.068 613.291 524.925 612.958 524.64 612.697C524.358 612.436 523.939 612.305 523.383 612.305H521.474V615.181ZM539.754 615.96C539.754 617.083 539.544 618.045 539.123 618.846C538.705 619.643 538.135 620.254 537.413 620.678C536.693 621.102 535.877 621.314 534.964 621.314C534.051 621.314 533.234 621.102 532.511 620.678C531.792 620.251 531.221 619.638 530.801 618.841C530.383 618.04 530.175 617.08 530.175 615.96C530.175 614.837 530.383 613.876 530.801 613.079C531.221 612.278 531.792 611.666 532.511 611.241C533.234 610.817 534.051 610.605 534.964 610.605C535.877 610.605 536.693 610.817 537.413 611.241C538.135 611.666 538.705 612.278 539.123 613.079C539.544 613.876 539.754 614.837 539.754 615.96ZM537.855 615.96C537.855 615.169 537.731 614.502 537.484 613.959C537.239 613.413 536.9 613.001 536.466 612.723C536.031 612.441 535.531 612.3 534.964 612.3C534.398 612.3 533.897 612.441 533.463 612.723C533.028 613.001 532.687 613.413 532.44 613.959C532.195 614.502 532.073 615.169 532.073 615.96C532.073 616.75 532.195 617.419 532.44 617.965C532.687 618.508 533.028 618.92 533.463 619.202C533.897 619.48 534.398 619.619 534.964 619.619C535.531 619.619 536.031 619.48 536.466 619.202C536.9 618.92 537.239 618.508 537.484 617.965C537.731 617.419 537.855 616.75 537.855 615.96ZM551.895 614.265H549.992C549.937 613.953 549.837 613.676 549.691 613.435C549.545 613.191 549.364 612.984 549.147 612.814C548.929 612.644 548.682 612.517 548.404 612.432C548.129 612.344 547.832 612.3 547.513 612.3C546.946 612.3 546.444 612.443 546.006 612.728C545.568 613.009 545.226 613.423 544.978 613.97C544.73 614.513 544.606 615.176 544.606 615.96C544.606 616.757 544.73 617.429 544.978 617.975C545.229 618.518 545.572 618.929 546.006 619.207C546.444 619.482 546.944 619.619 547.508 619.619C547.82 619.619 548.112 619.579 548.383 619.497C548.658 619.412 548.904 619.289 549.121 619.126C549.342 618.963 549.527 618.763 549.676 618.525C549.829 618.288 549.934 618.016 549.992 617.711L551.895 617.721C551.824 618.216 551.67 618.681 551.432 619.116C551.198 619.55 550.891 619.933 550.511 620.266C550.131 620.595 549.686 620.853 549.177 621.04C548.668 621.223 548.103 621.314 547.482 621.314C546.566 621.314 545.748 621.102 545.029 620.678C544.309 620.254 543.743 619.641 543.329 618.841C542.915 618.04 542.708 617.08 542.708 615.96C542.708 614.837 542.917 613.876 543.334 613.079C543.751 612.278 544.32 611.666 545.039 611.241C545.758 610.817 546.573 610.605 547.482 610.605C548.062 610.605 548.602 610.687 549.101 610.849C549.6 611.012 550.044 611.252 550.434 611.567C550.825 611.879 551.145 612.263 551.396 612.717C551.651 613.169 551.817 613.685 551.895 614.265ZM554.6 612.331V610.748H562.917V612.331H559.695V621.172H557.822V612.331H554.6ZM574.806 615.96C574.806 617.083 574.596 618.045 574.175 618.846C573.758 619.643 573.188 620.254 572.465 620.678C571.745 621.102 570.929 621.314 570.017 621.314C569.104 621.314 568.286 621.102 567.563 620.678C566.844 620.251 566.274 619.638 565.853 618.841C565.436 618.04 565.227 617.08 565.227 615.96C565.227 614.837 565.436 613.876 565.853 613.079C566.274 612.278 566.844 611.666 567.563 611.241C568.286 610.817 569.104 610.605 570.017 610.605C570.929 610.605 571.745 610.817 572.465 611.241C573.188 611.666 573.758 612.278 574.175 613.079C574.596 613.876 574.806 614.837 574.806 615.96ZM572.908 615.96C572.908 615.169 572.784 614.502 572.536 613.959C572.292 613.413 571.952 613.001 571.518 612.723C571.084 612.441 570.583 612.3 570.017 612.3C569.45 612.3 568.949 612.441 568.515 612.723C568.081 613.001 567.74 613.413 567.492 613.959C567.248 614.502 567.125 615.169 567.125 615.96C567.125 616.75 567.248 617.419 567.492 617.965C567.74 618.508 568.081 618.92 568.515 619.202C568.949 619.48 569.45 619.619 570.017 619.619C570.583 619.619 571.084 619.48 571.518 619.202C571.952 618.92 572.292 618.508 572.536 617.965C572.784 617.419 572.908 616.75 572.908 615.96ZM578.335 610.748H580.183V614.148C580.183 614.589 580.259 614.938 580.412 615.196C580.568 615.454 580.799 615.639 581.104 615.751C581.41 615.863 581.79 615.919 582.244 615.919C582.448 615.919 582.667 615.912 582.901 615.899C583.139 615.882 583.378 615.86 583.619 615.833C583.86 615.802 584.09 615.766 584.311 615.726C584.531 615.682 584.728 615.634 584.901 615.583V617.12C584.728 617.175 584.535 617.224 584.321 617.268C584.107 617.312 583.882 617.349 583.644 617.38C583.407 617.41 583.169 617.434 582.932 617.451C582.694 617.468 582.465 617.477 582.244 617.477C581.447 617.477 580.755 617.363 580.168 617.136C579.584 616.905 579.133 616.545 578.814 616.056C578.495 615.568 578.335 614.932 578.335 614.148V610.748ZM584.591 610.748H586.449V621.172H584.591V610.748ZM590.18 621.172V610.748H592.069V615.161H596.899V610.748H598.792V621.172H596.899V616.744H592.069V621.172H590.18ZM603.618 621.172H601.603L605.272 610.748H607.604L611.279 621.172H609.263L606.479 612.885H606.397L603.618 621.172ZM603.684 617.085H609.181V618.601H603.684V617.085ZM621.781 621.172H619.887V612.326H618.157C617.689 612.326 617.303 612.395 617.001 612.534C616.703 612.67 616.481 612.87 616.335 613.135C616.192 613.396 616.121 613.712 616.121 614.082C616.121 614.451 616.192 614.764 616.335 615.018C616.477 615.269 616.698 615.461 616.996 615.593C617.298 615.722 617.682 615.787 618.147 615.787H620.681V617.354H617.892C617.091 617.354 616.416 617.222 615.866 616.957C615.317 616.689 614.899 616.311 614.614 615.822C614.333 615.33 614.192 614.75 614.192 614.082C614.192 613.416 614.331 612.835 614.609 612.336C614.891 611.833 615.305 611.443 615.851 611.165C616.397 610.887 617.069 610.748 617.867 610.748H621.781V621.172ZM616.391 616.448H618.452L615.917 621.172H613.81L616.391 616.448Z" fill="black"/>
<path opacity="0.4" d="M812.215 794.179H449.111V706.188L686.691 737.642C686.691 737.642 810.12 677.213 812.215 675.185V675.133C812.251 675.133 812.251 675.15 812.215 675.185V794.179Z" fill="url(#paint8_linear_2466_885)"/>
<rect x="808.39" y="671.152" width="8.17935" height="8.17935" rx="4.08967" fill="#04B34A"/>
<path d="M810.231 675.93L695.804 735.463C691.583 737.659 686.788 738.497 682.073 737.864L449.111 706.587" stroke="#04B34A" stroke-width="3.18518"/>
<path d="M705.984 810.246V790.85L698.75 798.112L695.574 794.963L708.278 782.285L720.956 794.963L717.834 798.112L710.572 790.85V810.246H705.984Z" fill="#04B34A"/>
<path d="M741.608 810.876C739.273 810.867 737.264 810.293 735.581 809.153C733.907 808.012 732.618 806.361 731.713 804.198C730.817 802.036 730.374 799.434 730.383 796.394C730.383 793.362 730.831 790.779 731.727 788.643C732.631 786.508 733.921 784.884 735.595 783.771C737.278 782.649 739.282 782.088 741.608 782.088C743.933 782.088 745.933 782.649 747.607 783.771C749.29 784.893 750.584 786.522 751.489 788.657C752.394 790.784 752.842 793.362 752.833 796.394C752.833 799.443 752.381 802.049 751.476 804.212C750.58 806.375 749.295 808.026 747.621 809.166C745.947 810.306 743.943 810.876 741.608 810.876ZM741.608 806.004C743.201 806.004 744.472 805.203 745.422 803.601C746.372 802 746.843 799.597 746.834 796.394C746.834 794.285 746.616 792.53 746.182 791.127C745.757 789.725 745.151 788.671 744.363 787.965C743.585 787.259 742.667 786.906 741.608 786.906C740.024 786.906 738.758 787.698 737.807 789.281C736.857 790.865 736.378 793.236 736.369 796.394C736.369 798.529 736.581 800.312 737.007 801.742C737.441 803.162 738.052 804.23 738.839 804.945C739.626 805.651 740.549 806.004 741.608 806.004ZM761.851 806.465L761.701 807.958C761.584 809.153 761.358 810.343 761.023 811.528C760.697 812.722 760.353 813.804 759.991 814.772C759.638 815.74 759.353 816.5 759.136 817.052H755.39C755.526 816.518 755.711 815.772 755.946 814.813C756.182 813.863 756.403 812.795 756.611 811.609C756.82 810.424 756.951 809.216 757.005 807.985L757.073 806.465H761.851ZM775.314 782.468V810.266H769.436V788.046H769.274L762.908 792.037V786.825L769.789 782.468H775.314ZM796.744 805.054V803.588C796.744 802.475 796.979 801.452 797.45 800.52C797.929 799.579 798.622 798.828 799.527 798.267C800.441 797.697 801.554 797.412 802.866 797.412C804.196 797.412 805.313 797.692 806.218 798.253C807.132 798.814 807.82 799.565 808.281 800.506C808.752 801.438 808.987 802.466 808.987 803.588V805.054C808.987 806.167 808.752 807.194 808.281 808.135C807.811 809.067 807.119 809.813 806.205 810.374C805.291 810.944 804.178 811.229 802.866 811.229C801.535 811.229 800.418 810.944 799.513 810.374C798.608 809.813 797.92 809.067 797.45 808.135C796.979 807.194 796.744 806.167 796.744 805.054ZM800.694 803.588V805.054C800.694 805.696 800.848 806.302 801.155 806.872C801.472 807.442 802.042 807.727 802.866 807.727C803.689 807.727 804.25 807.447 804.549 806.886C804.856 806.325 805.01 805.714 805.01 805.054V803.588C805.01 802.927 804.865 802.312 804.576 801.742C804.286 801.172 803.716 800.887 802.866 800.887C802.051 800.887 801.486 801.172 801.169 801.742C800.852 802.312 800.694 802.927 800.694 803.588ZM782.479 789.146V787.68C782.479 786.558 782.718 785.531 783.198 784.599C783.678 783.658 784.37 782.907 785.275 782.345C786.189 781.784 787.293 781.504 788.587 781.504C789.926 781.504 791.048 781.784 791.953 782.345C792.858 782.907 793.545 783.658 794.016 784.599C794.486 785.531 794.722 786.558 794.722 787.68V789.146C794.722 790.268 794.482 791.295 794.002 792.227C793.532 793.159 792.84 793.905 791.926 794.466C791.021 795.018 789.908 795.294 788.587 795.294C787.265 795.294 786.148 795.014 785.234 794.453C784.329 793.883 783.641 793.136 783.171 792.213C782.709 791.281 782.479 790.259 782.479 789.146ZM786.456 787.68V789.146C786.456 789.806 786.609 790.417 786.917 790.978C787.234 791.539 787.79 791.82 788.587 791.82C789.419 791.82 789.985 791.539 790.283 790.978C790.591 790.417 790.745 789.806 790.745 789.146V787.68C790.745 787.019 790.6 786.404 790.31 785.834C790.021 785.264 789.446 784.979 788.587 784.979C787.781 784.979 787.225 785.268 786.917 785.847C786.609 786.427 786.456 787.037 786.456 787.68ZM784.27 810.266L803.381 782.468H806.938L787.826 810.266H784.27Z" fill="black"/>
<path d="M454.772 694.735C453.789 694.731 452.949 694.472 452.252 693.957C451.556 693.443 451.023 692.694 450.654 691.712C450.285 690.729 450.1 689.545 450.1 688.159C450.1 686.778 450.285 685.598 450.654 684.62C451.027 683.641 451.562 682.894 452.259 682.38C452.96 681.866 453.797 681.609 454.772 681.609C455.747 681.609 456.582 681.868 457.279 682.386C457.976 682.9 458.509 683.647 458.878 684.626C459.251 685.6 459.438 686.778 459.438 688.159C459.438 689.549 459.253 690.735 458.884 691.718C458.515 692.697 457.982 693.445 457.285 693.964C456.589 694.478 455.751 694.735 454.772 694.735ZM454.772 693.074C455.635 693.074 456.309 692.653 456.794 691.811C457.283 690.969 457.528 689.752 457.528 688.159C457.528 687.102 457.416 686.208 457.192 685.478C456.972 684.744 456.655 684.188 456.24 683.811C455.83 683.429 455.34 683.238 454.772 683.238C453.914 683.238 453.24 683.661 452.75 684.508C452.261 685.354 452.014 686.571 452.01 688.159C452.01 689.221 452.12 690.119 452.34 690.853C452.564 691.583 452.881 692.137 453.291 692.514C453.702 692.887 454.196 693.074 454.772 693.074ZM463.45 692.782L463.357 693.46C463.295 693.957 463.189 694.476 463.04 695.015C462.895 695.558 462.743 696.062 462.586 696.527C462.432 696.991 462.306 697.36 462.206 697.634H460.887C460.941 697.377 461.016 697.028 461.111 696.589C461.207 696.153 461.3 695.666 461.391 695.127C461.483 694.588 461.551 694.038 461.597 693.478L461.659 692.782H463.45ZM465.608 692.035V690.48L471.113 681.783H472.339V684.072H471.561L467.623 690.306V690.405H475.169V692.035H465.608ZM471.648 694.523V691.562L471.661 690.853V681.783H473.484V694.523H471.648Z" fill="#CFCFCF"/>
<path d="M792.056 660.493C791.073 660.489 790.234 660.229 789.537 659.715C788.84 659.201 788.307 658.452 787.938 657.469C787.569 656.486 787.384 655.302 787.384 653.917C787.384 652.536 787.569 651.356 787.938 650.377C788.311 649.399 788.846 648.652 789.543 648.138C790.244 647.623 791.082 647.366 792.056 647.366C793.031 647.366 793.867 647.626 794.563 648.144C795.26 648.658 795.793 649.405 796.162 650.384C796.536 651.358 796.722 652.536 796.722 653.917C796.722 655.306 796.538 656.493 796.169 657.476C795.799 658.454 795.266 659.203 794.57 659.721C793.873 660.236 793.035 660.493 792.056 660.493ZM792.056 658.832C792.919 658.832 793.593 658.411 794.078 657.569C794.568 656.727 794.812 655.51 794.812 653.917C794.812 652.86 794.7 651.966 794.476 651.236C794.257 650.502 793.939 649.946 793.525 649.569C793.114 649.187 792.625 648.996 792.056 648.996C791.198 648.996 790.524 649.419 790.035 650.265C789.545 651.111 789.298 652.329 789.294 653.917C789.294 654.979 789.404 655.877 789.624 656.611C789.848 657.341 790.165 657.894 790.576 658.272C790.986 658.645 791.48 658.832 792.056 658.832ZM800.735 658.539L800.642 659.217C800.579 659.715 800.474 660.234 800.324 660.773C800.179 661.316 800.028 661.82 799.87 662.284C799.717 662.749 799.59 663.118 799.491 663.392H798.172C798.226 663.135 798.3 662.786 798.396 662.347C798.491 661.911 798.584 661.424 798.676 660.885C798.767 660.346 798.835 659.796 798.881 659.236L798.943 658.539H800.735ZM807.16 660.455C806.38 660.455 805.679 660.306 805.057 660.008C804.439 659.705 803.946 659.29 803.576 658.763C803.207 658.237 803.01 657.635 802.985 656.959H804.852C804.897 657.507 805.14 657.957 805.58 658.309C806.019 658.662 806.546 658.838 807.16 658.838C807.649 658.838 808.083 658.726 808.46 658.502C808.842 658.274 809.14 657.961 809.356 657.563C809.576 657.164 809.685 656.71 809.685 656.2C809.685 655.682 809.574 655.219 809.35 654.813C809.126 654.406 808.817 654.087 808.423 653.855C808.033 653.623 807.585 653.504 807.079 653.5C806.693 653.5 806.305 653.567 805.916 653.699C805.526 653.832 805.21 654.006 804.97 654.222L803.209 653.961L803.925 647.541H810.93V649.189H805.524L805.119 652.754H805.194C805.443 652.513 805.772 652.312 806.183 652.15C806.598 651.989 807.042 651.908 807.514 651.908C808.29 651.908 808.98 652.092 809.586 652.461C810.196 652.83 810.675 653.334 811.023 653.973C811.376 654.608 811.55 655.338 811.546 656.163C811.55 656.988 811.363 657.724 810.986 658.371C810.612 659.018 810.094 659.529 809.43 659.902C808.771 660.271 808.014 660.455 807.16 660.455Z" fill="#CFCFCF"/>
<defs>
<linearGradient id="paint0_linear_2466_885" x1="225.348" y1="177.648" x2="225.348" y2="296.695" gradientUnits="userSpaceOnUse">
<stop stop-color="#04B34A"/>
<stop offset="0.0666667" stop-color="#04B34A" stop-opacity="0.991353"/>
<stop offset="0.133333" stop-color="#04B34A" stop-opacity="0.96449"/>
<stop offset="0.2" stop-color="#04B34A" stop-opacity="0.91834"/>
<stop offset="0.266667" stop-color="#04B34A" stop-opacity="0.852589"/>
<stop offset="0.333333" stop-color="#04B34A" stop-opacity="0.768225"/>
<stop offset="0.4" stop-color="#04B34A" stop-opacity="0.668116"/>
<stop offset="0.466667" stop-color="#04B34A" stop-opacity="0.557309"/>
<stop offset="0.533333" stop-color="#04B34A" stop-opacity="0.442691"/>
<stop offset="0.6" stop-color="#04B34A" stop-opacity="0.331884"/>
<stop offset="0.666667" stop-color="#04B34A" stop-opacity="0.231775"/>
<stop offset="0.733333" stop-color="#04B34A" stop-opacity="0.147411"/>
<stop offset="0.8" stop-color="#04B34A" stop-opacity="0.0816599"/>
<stop offset="0.866667" stop-color="#04B34A" stop-opacity="0.03551"/>
<stop offset="0.933333" stop-color="#04B34A" stop-opacity="0.01"/>
<stop offset="1" stop-color="#04B34A" stop-opacity="0"/>
</linearGradient>
<linearGradient id="paint1_linear_2466_885" x1="225.348" y1="472.678" x2="225.348" y2="545.937" gradientUnits="userSpaceOnUse">
<stop stop-color="#D9D9D9"/>
<stop offset="1" stop-color="#D9D9D9" stop-opacity="0"/>
</linearGradient>
<linearGradient id="paint2_linear_2466_885" x1="225.348" y1="675.133" x2="225.348" y2="794.179" gradientUnits="userSpaceOnUse">
<stop stop-color="#04B34A"/>
<stop offset="0.0666667" stop-color="#04B34A" stop-opacity="0.991353"/>
<stop offset="0.133333" stop-color="#04B34A" stop-opacity="0.96449"/>
<stop offset="0.2" stop-color="#04B34A" stop-opacity="0.91834"/>
<stop offset="0.266667" stop-color="#04B34A" stop-opacity="0.852589"/>
<stop offset="0.333333" stop-color="#04B34A" stop-opacity="0.768225"/>
<stop offset="0.4" stop-color="#04B34A" stop-opacity="0.668116"/>
<stop offset="0.466667" stop-color="#04B34A" stop-opacity="0.557309"/>
<stop offset="0.533333" stop-color="#04B34A" stop-opacity="0.442691"/>
<stop offset="0.6" stop-color="#04B34A" stop-opacity="0.331884"/>
<stop offset="0.666667" stop-color="#04B34A" stop-opacity="0.231775"/>
<stop offset="0.733333" stop-color="#04B34A" stop-opacity="0.147411"/>
<stop offset="0.8" stop-color="#04B34A" stop-opacity="0.0816599"/>
<stop offset="0.866667" stop-color="#04B34A" stop-opacity="0.03551"/>
<stop offset="0.933333" stop-color="#04B34A" stop-opacity="0.01"/>
<stop offset="1" stop-color="#04B34A" stop-opacity="0"/>
</linearGradient>
<linearGradient id="paint3_linear_2466_885" x1="630.662" y1="223.364" x2="630.662" y2="296.624" gradientUnits="userSpaceOnUse">
<stop stop-color="#D9D9D9"/>
<stop offset="1" stop-color="#D9D9D9" stop-opacity="0"/>
</linearGradient>
<linearGradient id="paint4_linear_2466_885" x1="467.426" y1="216.197" x2="817.796" y2="216.197" gradientUnits="userSpaceOnUse">
<stop stop-color="#F7F7F7" stop-opacity="0"/>
<stop offset="1" stop-color="#F7F7F7"/>
</linearGradient>
<linearGradient id="paint5_linear_2466_885" x1="564.574" y1="216.197" x2="817.796" y2="216.197" gradientUnits="userSpaceOnUse">
<stop stop-color="#F7F7F7" stop-opacity="0"/>
<stop offset="1" stop-color="#F7F7F7"/>
</linearGradient>
<linearGradient id="paint6_linear_2466_885" x1="658.537" y1="216.197" x2="817.796" y2="216.197" gradientUnits="userSpaceOnUse">
<stop stop-color="#F7F7F7" stop-opacity="0"/>
<stop offset="1" stop-color="#F7F7F7"/>
</linearGradient>
<linearGradient id="paint7_linear_2466_885" x1="630.663" y1="426.891" x2="630.663" y2="545.937" gradientUnits="userSpaceOnUse">
<stop stop-color="#04B34A"/>
<stop offset="0.0666667" stop-color="#04B34A" stop-opacity="0.991353"/>
<stop offset="0.133333" stop-color="#04B34A" stop-opacity="0.96449"/>
<stop offset="0.2" stop-color="#04B34A" stop-opacity="0.91834"/>
<stop offset="0.266667" stop-color="#04B34A" stop-opacity="0.852589"/>
<stop offset="0.333333" stop-color="#04B34A" stop-opacity="0.768225"/>
<stop offset="0.4" stop-color="#04B34A" stop-opacity="0.668116"/>
<stop offset="0.466667" stop-color="#04B34A" stop-opacity="0.557309"/>
<stop offset="0.533333" stop-color="#04B34A" stop-opacity="0.442691"/>
<stop offset="0.6" stop-color="#04B34A" stop-opacity="0.331884"/>
<stop offset="0.666667" stop-color="#04B34A" stop-opacity="0.231775"/>
<stop offset="0.733333" stop-color="#04B34A" stop-opacity="0.147411"/>
<stop offset="0.8" stop-color="#04B34A" stop-opacity="0.0816599"/>
<stop offset="0.866667" stop-color="#04B34A" stop-opacity="0.03551"/>
<stop offset="0.933333" stop-color="#04B34A" stop-opacity="0.01"/>
<stop offset="1" stop-color="#04B34A" stop-opacity="0"/>
</linearGradient>
<linearGradient id="paint8_linear_2466_885" x1="630.663" y1="675.133" x2="630.663" y2="794.179" gradientUnits="userSpaceOnUse">
<stop stop-color="#04B34A"/>
<stop offset="0.0666667" stop-color="#04B34A" stop-opacity="0.991353"/>
<stop offset="0.133333" stop-color="#04B34A" stop-opacity="0.96449"/>
<stop offset="0.2" stop-color="#04B34A" stop-opacity="0.91834"/>
<stop offset="0.266667" stop-color="#04B34A" stop-opacity="0.852589"/>
<stop offset="0.333333" stop-color="#04B34A" stop-opacity="0.768225"/>
<stop offset="0.4" stop-color="#04B34A" stop-opacity="0.668116"/>
<stop offset="0.466667" stop-color="#04B34A" stop-opacity="0.557309"/>
<stop offset="0.533333" stop-color="#04B34A" stop-opacity="0.442691"/>
<stop offset="0.6" stop-color="#04B34A" stop-opacity="0.331884"/>
<stop offset="0.666667" stop-color="#04B34A" stop-opacity="0.231775"/>
<stop offset="0.733333" stop-color="#04B34A" stop-opacity="0.147411"/>
<stop offset="0.8" stop-color="#04B34A" stop-opacity="0.0816599"/>
<stop offset="0.866667" stop-color="#04B34A" stop-opacity="0.03551"/>
<stop offset="0.933333" stop-color="#04B34A" stop-opacity="0.01"/>
<stop offset="1" stop-color="#04B34A" stop-opacity="0"/>
</linearGradient>
</defs>
</svg>
