<svg width="860" height="615" viewBox="0 0 860 615" fill="none" xmlns="http://www.w3.org/2000/svg">
<rect width="860" height="615" fill="white"/>
<path d="M729.079 39.0195L726.948 51.6511H729.321L727.959 59.7232H723.569L724.219 55.8769H712.948L712.298 59.7232H707.908L709.269 51.6511H710.953C711.722 50.6067 712.452 49.2288 713.275 46.3325L715.364 39.0195H729.081H729.079ZM723.502 43.2454H718.686L717.757 46.4982C716.949 49.3231 716.281 50.6044 715.606 51.6511H722.086L723.502 43.2454Z" fill="#EAECEF"/>
<path d="M732.949 39.0195H743.391C747.069 39.0195 748.723 40.8944 748.265 43.602C747.972 45.3342 746.669 46.4499 745.446 46.949C746.782 47.4712 747.839 48.8009 747.454 51.0806C746.966 53.9768 744.605 55.8769 740.689 55.8769H730.104L732.949 39.0195ZM736.013 49.1344L735.515 52.079H740.309C741.59 52.079 742.382 51.6051 742.55 50.6067C742.723 49.5853 742.087 49.1344 740.804 49.1344H736.011H736.013ZM737.077 42.8198L736.653 45.3365H741.375C742.373 45.3365 743.073 44.9799 743.225 44.0781C743.377 43.1764 742.797 42.8198 741.799 42.8198H737.077Z" fill="#EAECEF"/>
<path d="M751.282 39.0195H756.147L754.433 49.1804L763.573 39.0195H768.438L765.596 55.8769H760.731L762.438 45.762L753.304 55.8769H748.439L751.282 39.0195Z" fill="#EAECEF"/>
<path d="M775.671 47.14L769.945 39.0195H775.45L780.22 45.9047L781.384 39.0195H786.011L784.85 45.9047L791.945 39.0195H797.333L789.093 46.926L794.845 55.8769H788.983L784.383 48.6836L783.169 55.8769H778.541L779.755 48.6836L772.727 55.8769H767.079L775.673 47.14H775.671Z" fill="#EAECEF"/>
<path d="M804.439 39.0195H798.791L804.413 46.926L796.068 55.8769H801.716L810.061 46.926L804.439 39.0195ZM813.367 39.0195H807.719L813.342 46.926L804.996 55.8769H810.644L818.99 46.926L813.367 39.0195ZM822.525 39.0195H816.877L822.5 46.926L814.155 55.8769H819.803L828.148 46.926L822.525 39.0195Z" fill="#EAECEF"/>
<path d="M51.3868 39.0031V59.8516H47.0298V42.5864H38.6009V59.8516H34.2438V39.0031H51.3868ZM54.3554 65.7152V44.2152H58.631V46.8416H58.8244C59.0144 46.4208 59.2893 45.9933 59.649 45.5589C60.0154 45.1178 60.4905 44.7513 61.0742 44.4595C61.6646 44.1609 62.3975 44.0116 63.273 44.0116C64.4132 44.0116 65.4651 44.3102 66.4288 44.9074C67.3925 45.4979 68.1628 46.3903 68.7396 47.5848C69.3165 48.7724 69.6049 50.2621 69.6049 52.0537C69.6049 53.7979 69.3233 55.2706 68.76 56.4718C68.2035 57.6663 67.4434 58.5723 66.4797 59.1899C65.5228 59.8007 64.4505 60.1061 63.2628 60.1061C62.4213 60.1061 61.7053 59.9669 61.1149 59.6887C60.5312 59.4104 60.0528 59.0609 59.6795 58.6402C59.3062 58.2126 59.0212 57.7816 58.8244 57.3473H58.6921V65.7152H54.3554ZM58.6004 52.0334C58.6004 52.9631 58.7294 53.7741 58.9873 54.4664C59.2452 55.1586 59.6184 55.6982 60.1071 56.085C60.5957 56.465 61.1895 56.6551 61.8885 56.6551C62.5944 56.6551 63.1916 56.4616 63.6802 56.0748C64.1688 55.6812 64.5387 55.1383 64.7898 54.446C65.0477 53.747 65.1767 52.9428 65.1767 52.0334C65.1767 51.1308 65.0511 50.3367 64.8 49.6513C64.5489 48.9658 64.179 48.4297 63.6904 48.0429C63.2018 47.656 62.6011 47.4626 61.8885 47.4626C61.1827 47.4626 60.5855 47.6492 60.0969 48.0225C59.615 48.3958 59.2452 48.9251 58.9873 49.6106C58.7294 50.296 58.6004 51.1036 58.6004 52.0334ZM78.4142 60.157C76.8329 60.157 75.4654 59.821 74.3117 59.1491C73.1648 58.4705 72.2791 57.5271 71.6548 56.3191C71.0304 55.1043 70.7182 53.6961 70.7182 52.0945C70.7182 50.4792 71.0304 49.0676 71.6548 47.8596C72.2791 46.6448 73.1648 45.7015 74.3117 45.0296C75.4654 44.3509 76.8329 44.0116 78.4142 44.0116C79.9955 44.0116 81.3596 44.3509 82.5066 45.0296C83.6603 45.7015 84.5493 46.6448 85.1737 47.8596C85.7981 49.0676 86.1103 50.4792 86.1103 52.0945C86.1103 53.6961 85.7981 55.1043 85.1737 56.3191C84.5493 57.5271 83.6603 58.4705 82.5066 59.1491C81.3596 59.821 79.9955 60.157 78.4142 60.157ZM78.4346 56.7976C79.154 56.7976 79.7546 56.594 80.2364 56.1868C80.7183 55.7728 81.0814 55.2095 81.3257 54.4969C81.5768 53.7843 81.7023 52.9733 81.7023 52.0639C81.7023 51.1545 81.5768 50.3435 81.3257 49.6309C81.0814 48.9183 80.7183 48.355 80.2364 47.9411C79.7546 47.5271 79.154 47.3201 78.4346 47.3201C77.7084 47.3201 77.0976 47.5271 76.6022 47.9411C76.1136 48.355 75.7437 48.9183 75.4926 49.6309C75.2483 50.3435 75.1261 51.1545 75.1261 52.0639C75.1261 52.9733 75.2483 53.7843 75.4926 54.4969C75.7437 55.2095 76.1136 55.7728 76.6022 56.1868C77.0976 56.594 77.7084 56.7976 78.4346 56.7976ZM101.455 44.2152V56.8587H103.949V64.8804H99.7347V59.8516H87.7834V44.2152H91.9266V56.4413H97.3627V44.2152H101.455ZM112.435 60.157C110.827 60.157 109.442 59.8312 108.282 59.1797C107.128 58.5214 106.239 57.5916 105.615 56.3904C104.99 55.1824 104.678 53.7538 104.678 52.1046C104.678 50.4962 104.99 49.0846 105.615 47.8698C106.239 46.655 107.118 45.7083 108.251 45.0296C109.391 44.3509 110.728 44.0116 112.262 44.0116C113.294 44.0116 114.254 44.1779 115.143 44.5104C116.039 44.8362 116.819 45.3282 117.484 45.9865C118.156 46.6448 118.679 47.4728 119.052 48.4704C119.425 49.4613 119.612 50.6218 119.612 51.9519V53.143H106.409V50.4555H115.53C115.53 49.8311 115.394 49.278 115.123 48.7962C114.851 48.3143 114.475 47.9377 113.993 47.6662C113.518 47.3879 112.965 47.2488 112.333 47.2488C111.675 47.2488 111.091 47.4015 110.582 47.7069C110.08 48.0055 109.687 48.4093 109.402 48.9183C109.117 49.4205 108.971 49.9804 108.964 50.598V53.1532C108.964 53.9268 109.106 54.5953 109.391 55.1586C109.683 55.7219 110.094 56.1563 110.623 56.4616C111.153 56.767 111.78 56.9197 112.506 56.9197C112.988 56.9197 113.429 56.8519 113.83 56.7161C114.23 56.5804 114.573 56.3768 114.858 56.1054C115.143 55.8339 115.36 55.5013 115.51 55.1077L119.52 55.3724C119.317 56.3361 118.899 57.1776 118.268 57.897C117.644 58.6096 116.836 59.1661 115.845 59.5665C114.861 59.9601 113.725 60.157 112.435 60.157ZM132.178 50.3028V53.7131H124.013V50.3028H132.178ZM125.439 44.2152V59.8516H121.295V44.2152H125.439ZM134.896 44.2152V59.8516H130.783V44.2152H134.896ZM135.543 47.6255V44.2152H149.714V47.6255H144.675V59.8516H140.542V47.6255H135.543ZM163.749 60.157C162.168 60.157 160.8 59.821 159.647 59.1491C158.5 58.4705 157.614 57.5271 156.99 56.3191C156.365 55.1043 156.053 53.6961 156.053 52.0945C156.053 50.4792 156.365 49.0676 156.99 47.8596C157.614 46.6448 158.5 45.7015 159.647 45.0296C160.8 44.3509 162.168 44.0116 163.749 44.0116C165.33 44.0116 166.694 44.3509 167.841 45.0296C168.995 45.7015 169.884 46.6448 170.509 47.8596C171.133 49.0676 171.445 50.4792 171.445 52.0945C171.445 53.6961 171.133 55.1043 170.509 56.3191C169.884 57.5271 168.995 58.4705 167.841 59.1491C166.694 59.821 165.33 60.157 163.749 60.157ZM163.769 56.7976C164.489 56.7976 165.089 56.594 165.571 56.1868C166.053 55.7728 166.416 55.2095 166.661 54.4969C166.912 53.7843 167.037 52.9733 167.037 52.0639C167.037 51.1545 166.912 50.3435 166.661 49.6309C166.416 48.9183 166.053 48.355 165.571 47.9411C165.089 47.5271 164.489 47.3201 163.769 47.3201C163.043 47.3201 162.432 47.5271 161.937 47.9411C161.448 48.355 161.079 48.9183 160.827 49.6309C160.583 50.3435 160.461 51.1545 160.461 52.0639C160.461 52.9733 160.583 53.7843 160.827 54.4969C161.079 55.2095 161.448 55.7728 161.937 56.1868C162.432 56.594 163.043 56.7976 163.769 56.7976ZM171.897 64.4325V56.4107H173.098C173.444 56.1936 173.722 55.8475 173.933 55.3724C174.15 54.8973 174.326 54.3374 174.462 53.6927C174.605 53.048 174.713 52.3524 174.788 51.6058C174.869 50.8525 174.94 50.0924 175.002 49.3255L175.409 44.2152H187.401V56.4107H189.824V64.4325H185.69V59.8516H176.132V64.4325H171.897ZM177.414 56.4107H183.308V47.5542H179.094L178.931 49.3255C178.816 50.995 178.649 52.4134 178.432 53.5807C178.215 54.7412 177.876 55.6846 177.414 56.4107ZM198.269 60.157C196.688 60.157 195.32 59.821 194.166 59.1491C193.019 58.4705 192.134 57.5271 191.509 56.3191C190.885 55.1043 190.573 53.6961 190.573 52.0945C190.573 50.4792 190.885 49.0676 191.509 47.8596C192.134 46.6448 193.019 45.7015 194.166 45.0296C195.32 44.3509 196.688 44.0116 198.269 44.0116C199.85 44.0116 201.214 44.3509 202.361 45.0296C203.515 45.7015 204.404 46.6448 205.028 47.8596C205.653 49.0676 205.965 50.4792 205.965 52.0945C205.965 53.6961 205.653 55.1043 205.028 56.3191C204.404 57.5271 203.515 58.4705 202.361 59.1491C201.214 59.821 199.85 60.157 198.269 60.157ZM198.289 56.7976C199.009 56.7976 199.609 56.594 200.091 56.1868C200.573 55.7728 200.936 55.2095 201.18 54.4969C201.431 53.7843 201.557 52.9733 201.557 52.0639C201.557 51.1545 201.431 50.3435 201.18 49.6309C200.936 48.9183 200.573 48.355 200.091 47.9411C199.609 47.5271 199.009 47.3201 198.289 47.3201C197.563 47.3201 196.952 47.5271 196.457 47.9411C195.968 48.355 195.598 48.9183 195.347 49.6309C195.103 50.3435 194.981 51.1545 194.981 52.0639C194.981 52.9733 195.103 53.7843 195.347 54.4969C195.598 55.2095 195.968 55.7728 196.457 56.1868C196.952 56.594 197.563 56.7976 198.289 56.7976ZM220.638 38.4737L221.961 41.3037C221.52 41.6702 221.031 41.9417 220.495 42.1181C219.959 42.2878 219.318 42.3998 218.571 42.4541C217.832 42.5084 216.929 42.5457 215.863 42.5661C214.655 42.5796 213.671 42.773 212.911 43.1463C212.151 43.5196 211.574 44.1066 211.181 44.9074C210.787 45.7015 210.529 46.7398 210.407 48.0225H210.56C211.028 47.0656 211.686 46.3258 212.535 45.8033C213.39 45.2807 214.445 45.0194 215.701 45.0194C217.031 45.0194 218.195 45.3112 219.192 45.8949C220.197 46.4785 220.977 47.3167 221.534 48.4093C222.09 49.502 222.368 50.8118 222.368 52.3388C222.368 53.9268 222.056 55.3079 221.432 56.482C220.814 57.6493 219.935 58.5553 218.795 59.2C217.655 59.838 216.298 60.157 214.723 60.157C213.142 60.157 211.778 59.8244 210.631 59.1593C209.491 58.4942 208.609 57.5136 207.984 56.2173C207.367 54.9211 207.058 53.3262 207.058 51.4328V50.1501C207.058 46.3835 207.791 43.5908 209.257 41.772C210.723 39.9532 212.877 39.0302 215.721 39.0031C216.495 38.9895 217.194 38.9861 217.818 38.9929C218.442 38.9997 218.989 38.9691 219.457 38.9013C219.932 38.8334 220.326 38.6909 220.638 38.4737ZM214.744 56.7976C215.409 56.7976 215.979 56.6245 216.454 56.2784C216.936 55.9323 217.306 55.4369 217.563 54.7921C217.828 54.1474 217.961 53.3771 217.961 52.4813C217.961 51.5923 217.828 50.8389 217.563 50.2214C217.306 49.597 216.936 49.1219 216.454 48.7962C215.972 48.4704 215.395 48.3075 214.723 48.3075C214.221 48.3075 213.77 48.3991 213.369 48.5824C212.969 48.7656 212.626 49.0371 212.341 49.3968C212.063 49.7497 211.846 50.1874 211.69 50.71C211.54 51.2258 211.466 51.8162 211.466 52.4813C211.466 53.8183 211.754 54.8736 212.331 55.6473C212.915 56.4141 213.719 56.7976 214.744 56.7976ZM224.1 65.7152V44.2152H228.376V46.8416H228.569C228.759 46.4208 229.034 45.9933 229.394 45.5589C229.76 45.1178 230.235 44.7513 230.819 44.4595C231.409 44.1609 232.142 44.0116 233.018 44.0116C234.158 44.0116 235.21 44.3102 236.174 44.9074C237.137 45.4979 237.907 46.3903 238.484 47.5848C239.061 48.7724 239.35 50.2621 239.35 52.0537C239.35 53.7979 239.068 55.2706 238.505 56.4718C237.948 57.6663 237.188 58.5723 236.224 59.1899C235.268 59.8007 234.195 60.1061 233.008 60.1061C232.166 60.1061 231.45 59.9669 230.86 59.6887C230.276 59.4104 229.797 59.0609 229.424 58.6402C229.051 58.2126 228.766 57.7816 228.569 57.3473H228.437V65.7152H224.1ZM228.345 52.0334C228.345 52.9631 228.474 53.7741 228.732 54.4664C228.99 55.1586 229.363 55.6982 229.852 56.085C230.34 56.465 230.934 56.6551 231.633 56.6551C232.339 56.6551 232.936 56.4616 233.425 56.0748C233.914 55.6812 234.283 55.1383 234.535 54.446C234.792 53.747 234.921 52.9428 234.921 52.0334C234.921 51.1308 234.796 50.3367 234.545 49.6513C234.294 48.9658 233.924 48.4297 233.435 48.0429C232.946 47.656 232.346 47.4626 231.633 47.4626C230.927 47.4626 230.33 47.6492 229.842 48.0225C229.36 48.3958 228.99 48.9251 228.732 49.6106C228.474 50.296 228.345 51.1036 228.345 52.0334ZM248.22 60.157C246.612 60.157 245.227 59.8312 244.067 59.1797C242.913 58.5214 242.024 57.5916 241.399 56.3904C240.775 55.1824 240.463 53.7538 240.463 52.1046C240.463 50.4962 240.775 49.0846 241.399 47.8698C242.024 46.655 242.903 45.7083 244.036 45.0296C245.176 44.3509 246.513 44.0116 248.047 44.0116C249.079 44.0116 250.039 44.1779 250.928 44.5104C251.824 44.8362 252.604 45.3282 253.269 45.9865C253.941 46.6448 254.464 47.4728 254.837 48.4704C255.21 49.4613 255.397 50.6218 255.397 51.9519V53.143H242.194V50.4555H251.315C251.315 49.8311 251.179 49.278 250.908 48.7962C250.636 48.3143 250.259 47.9377 249.778 47.6662C249.302 47.3879 248.749 47.2488 248.118 47.2488C247.46 47.2488 246.876 47.4015 246.367 47.7069C245.865 48.0055 245.471 48.4093 245.186 48.9183C244.901 49.4205 244.755 49.9804 244.749 50.598V53.1532C244.749 53.9268 244.891 54.5953 245.176 55.1586C245.468 55.7219 245.879 56.1563 246.408 56.4616C246.937 56.767 247.565 56.9197 248.291 56.9197C248.773 56.9197 249.214 56.8519 249.615 56.7161C250.015 56.5804 250.358 56.3768 250.643 56.1054C250.928 55.8339 251.145 55.5013 251.294 55.1077L255.305 55.3724C255.102 56.3361 254.684 57.1776 254.053 57.897C253.429 58.6096 252.621 59.1661 251.63 59.5665C250.646 59.9601 249.509 60.157 248.22 60.157ZM267.963 50.3028V53.7131H259.798V50.3028H267.963ZM261.223 44.2152V59.8516H257.08V44.2152H261.223ZM270.681 44.2152V59.8516H266.568V44.2152H270.681ZM277.042 54.1304L282.671 44.2152H286.947V59.8516H282.814V49.9058L277.205 59.8516H272.898V44.2152H277.042V54.1304ZM298.438 59.8516V47.6153H295.507C294.713 47.6153 294.109 47.7985 293.695 48.165C293.281 48.5315 293.077 48.9658 293.084 49.468C293.077 49.977 293.274 50.408 293.674 50.7609C294.081 51.107 294.679 51.2801 295.466 51.2801H299.884V54.2119H295.466C294.129 54.2119 292.972 54.0083 291.995 53.6011C291.017 53.1939 290.264 52.6272 289.735 51.901C289.205 51.1681 288.944 50.3164 288.951 49.3459C288.944 48.3279 289.205 47.4354 289.735 46.6686C290.264 45.8949 291.021 45.2943 292.005 44.8667C292.996 44.4324 294.163 44.2152 295.507 44.2152H302.48V59.8516H298.438ZM288.503 59.8516L292.85 51.7076H296.993L292.656 59.8516H288.503ZM310.191 59.8516V44.2152H323.862V59.8516H319.719V47.6255H314.283V59.8516H310.191ZM333.242 60.157C331.661 60.157 330.293 59.821 329.139 59.1491C327.992 58.4705 327.107 57.5271 326.482 56.3191C325.858 55.1043 325.546 53.6961 325.546 52.0945C325.546 50.4792 325.858 49.0676 326.482 47.8596C327.107 46.6448 327.992 45.7015 329.139 45.0296C330.293 44.3509 331.661 44.0116 333.242 44.0116C334.823 44.0116 336.187 44.3509 337.334 45.0296C338.488 45.7015 339.377 46.6448 340.001 47.8596C340.626 49.0676 340.938 50.4792 340.938 52.0945C340.938 53.6961 340.626 55.1043 340.001 56.3191C339.377 57.5271 338.488 58.4705 337.334 59.1491C336.187 59.821 334.823 60.157 333.242 60.157ZM333.262 56.7976C333.982 56.7976 334.582 56.594 335.064 56.1868C335.546 55.7728 335.909 55.2095 336.153 54.4969C336.404 53.7843 336.53 52.9733 336.53 52.0639C336.53 51.1545 336.404 50.3435 336.153 49.6309C335.909 48.9183 335.546 48.355 335.064 47.9411C334.582 47.5271 333.982 47.3201 333.262 47.3201C332.536 47.3201 331.925 47.5271 331.43 47.9411C330.941 48.355 330.571 48.9183 330.32 49.6309C330.076 50.3435 329.954 51.1545 329.954 52.0639C329.954 52.9733 330.076 53.7843 330.32 54.4969C330.571 55.2095 330.941 55.7728 331.43 56.1868C331.925 56.594 332.536 56.7976 333.262 56.7976ZM348.099 65.7152V44.2152H352.375V46.8416H352.568C352.758 46.4208 353.033 45.9933 353.393 45.5589C353.759 45.1178 354.234 44.7513 354.818 44.4595C355.408 44.1609 356.141 44.0116 357.017 44.0116C358.157 44.0116 359.209 44.3102 360.173 44.9074C361.136 45.4979 361.906 46.3903 362.483 47.5848C363.06 48.7724 363.349 50.2621 363.349 52.0537C363.349 53.7979 363.067 55.2706 362.504 56.4718C361.947 57.6663 361.187 58.5723 360.223 59.1899C359.266 59.8007 358.194 60.1061 357.007 60.1061C356.165 60.1061 355.449 59.9669 354.859 59.6887C354.275 59.4104 353.796 59.0609 353.423 58.6402C353.05 58.2126 352.765 57.7816 352.568 57.3473H352.436V65.7152H348.099ZM352.344 52.0334C352.344 52.9631 352.473 53.7741 352.731 54.4664C352.989 55.1586 353.362 55.6982 353.851 56.085C354.339 56.465 354.933 56.6551 355.632 56.6551C356.338 56.6551 356.935 56.4616 357.424 56.0748C357.913 55.6812 358.282 55.1383 358.534 54.446C358.791 53.747 358.92 52.9428 358.92 52.0334C358.92 51.1308 358.795 50.3367 358.544 49.6513C358.293 48.9658 357.923 48.4297 357.434 48.0429C356.945 47.656 356.345 47.4626 355.632 47.4626C354.926 47.4626 354.329 47.6492 353.841 48.0225C353.359 48.3958 352.989 48.9251 352.731 49.6106C352.473 50.296 352.344 51.1036 352.344 52.0334ZM372.219 60.157C370.611 60.157 369.226 59.8312 368.066 59.1797C366.912 58.5214 366.023 57.5916 365.398 56.3904C364.774 55.1824 364.462 53.7538 364.462 52.1046C364.462 50.4962 364.774 49.0846 365.398 47.8698C366.023 46.655 366.902 45.7083 368.035 45.0296C369.175 44.3509 370.512 44.0116 372.046 44.0116C373.078 44.0116 374.038 44.1779 374.927 44.5104C375.823 44.8362 376.603 45.3282 377.268 45.9865C377.94 46.6448 378.463 47.4728 378.836 48.4704C379.209 49.4613 379.396 50.6218 379.396 51.9519V53.143H366.193V50.4555H375.314C375.314 49.8311 375.178 49.278 374.907 48.7962C374.635 48.3143 374.258 47.9377 373.777 47.6662C373.301 47.3879 372.748 47.2488 372.117 47.2488C371.459 47.2488 370.875 47.4015 370.366 47.7069C369.864 48.0055 369.47 48.4093 369.185 48.9183C368.9 49.4205 368.754 49.9804 368.748 50.598V53.1532C368.748 53.9268 368.89 54.5953 369.175 55.1586C369.467 55.7219 369.878 56.1563 370.407 56.4616C370.936 56.767 371.564 56.9197 372.29 56.9197C372.772 56.9197 373.213 56.8519 373.614 56.7161C374.014 56.5804 374.357 56.3768 374.642 56.1054C374.927 55.8339 375.144 55.5013 375.293 55.1077L379.304 55.3724C379.101 56.3361 378.683 57.1776 378.052 57.897C377.428 58.6096 376.62 59.1661 375.629 59.5665C374.645 59.9601 373.508 60.157 372.219 60.157ZM391.788 44.2152V47.6255H385.294V59.8516H381.079V44.2152H391.788ZM397.429 54.1304L403.059 44.2152H407.334V59.8516H403.201V49.9058L397.592 59.8516H393.286V44.2152H397.429V54.1304ZM416.729 60.157C415.148 60.157 413.78 59.821 412.627 59.1491C411.48 58.4705 410.594 57.5271 409.97 56.3191C409.345 55.1043 409.033 53.6961 409.033 52.0945C409.033 50.4792 409.345 49.0676 409.97 47.8596C410.594 46.6448 411.48 45.7015 412.627 45.0296C413.78 44.3509 415.148 44.0116 416.729 44.0116C418.31 44.0116 419.674 44.3509 420.821 45.0296C421.975 45.7015 422.864 46.6448 423.488 47.8596C424.113 49.0676 424.425 50.4792 424.425 52.0945C424.425 53.6961 424.113 55.1043 423.488 56.3191C422.864 57.5271 421.975 58.4705 420.821 59.1491C419.674 59.821 418.31 60.157 416.729 60.157ZM416.749 56.7976C417.469 56.7976 418.069 56.594 418.551 56.1868C419.033 55.7728 419.396 55.2095 419.64 54.4969C419.892 53.7843 420.017 52.9733 420.017 52.0639C420.017 51.1545 419.892 50.3435 419.64 49.6309C419.396 48.9183 419.033 48.355 418.551 47.9411C418.069 47.5271 417.469 47.3201 416.749 47.3201C416.023 47.3201 415.412 47.5271 414.917 47.9411C414.428 48.355 414.058 48.9183 413.807 49.6309C413.563 50.3435 413.441 51.1545 413.441 52.0639C413.441 52.9733 413.563 53.7843 413.807 54.4969C414.058 55.2095 414.428 55.7728 414.917 56.1868C415.412 56.594 416.023 56.7976 416.749 56.7976ZM436.981 50.3028V53.7131H428.816V50.3028H436.981ZM430.241 44.2152V59.8516H426.098V44.2152H430.241ZM439.699 44.2152V59.8516H435.586V44.2152H439.699ZM446.375 60.1468C445.378 60.1468 444.489 59.9737 443.708 59.6276C442.928 59.2747 442.31 58.7555 441.855 58.0701C441.407 57.3778 441.183 56.5159 441.183 55.4844C441.183 54.6157 441.343 53.8861 441.662 53.2957C441.981 52.7053 442.415 52.2302 442.965 51.8705C443.515 51.5108 444.139 51.2393 444.838 51.0561C445.544 50.8729 446.284 50.7439 447.057 50.6693C447.967 50.5743 448.7 50.486 449.256 50.4046C449.813 50.3164 450.216 50.1874 450.468 50.0178C450.719 49.8481 450.844 49.597 450.844 49.2644V49.2034C450.844 48.5586 450.641 48.0598 450.233 47.7069C449.833 47.354 449.263 47.1776 448.523 47.1776C447.743 47.1776 447.122 47.3506 446.66 47.6967C446.199 48.0361 445.893 48.4636 445.744 48.9794L441.733 48.6536C441.937 47.7035 442.337 46.8823 442.934 46.1901C443.532 45.4911 444.302 44.9549 445.245 44.5817C446.195 44.2016 447.295 44.0116 448.544 44.0116C449.412 44.0116 450.244 44.1134 451.038 44.317C451.838 44.5206 452.548 44.8362 453.165 45.2637C453.79 45.6913 454.282 46.241 454.641 46.9129C455.001 47.578 455.181 48.3754 455.181 49.3052V59.8516H451.068V57.6832H450.946C450.695 58.1719 450.359 58.6028 449.938 58.9761C449.517 59.3426 449.012 59.631 448.421 59.8414C447.831 60.045 447.149 60.1468 446.375 60.1468ZM447.617 57.1539C448.255 57.1539 448.818 57.0283 449.307 56.7772C449.796 56.5193 450.179 56.1732 450.457 55.7389C450.736 55.3045 450.875 54.8125 450.875 54.2628V52.6035C450.739 52.6917 450.552 52.7731 450.315 52.8478C450.084 52.9156 449.823 52.9801 449.531 53.0412C449.239 53.0955 448.947 53.1464 448.655 53.1939C448.364 53.2346 448.099 53.2719 447.861 53.3059C447.352 53.3805 446.908 53.4993 446.528 53.6622C446.148 53.825 445.853 54.0456 445.642 54.3239C445.432 54.5953 445.327 54.9347 445.327 55.3419C445.327 55.9323 445.54 56.3836 445.968 56.6958C446.402 57.0012 446.952 57.1539 447.617 57.1539ZM466.642 55.0568L470.877 44.2152H474.175L468.077 59.8516H465.196L459.241 44.2152H462.529L466.642 55.0568ZM461.542 44.2152V59.8516H457.399V44.2152H461.542ZM471.956 59.8516V44.2152H476.048V59.8516H471.956Z" fill="black"/>
<rect x="31.8516" y="98.7422" width="390.981" height="234.907" rx="15.9259" fill="#F7F7F7"/>
<path opacity="0.6" d="M44.8241 113.263H47.1349L50.2296 120.817H50.3518L53.4465 113.263H55.7573V123.688H53.9453V116.526H53.8486L50.9677 123.657H49.6137L46.7328 116.511H46.6361V123.688H44.8241V113.263ZM68.5616 118.475C68.5616 119.599 68.3512 120.561 67.9305 121.361C67.5131 122.159 66.943 122.77 66.2202 123.194C65.5009 123.618 64.6848 123.83 63.772 123.83C62.8592 123.83 62.0414 123.618 61.3186 123.194C60.5992 122.766 60.0291 122.154 59.6084 121.356C59.191 120.555 58.9823 119.595 58.9823 118.475C58.9823 117.352 59.191 116.392 59.6084 115.594C60.0291 114.794 60.5992 114.181 61.3186 113.757C62.0414 113.333 62.8592 113.121 63.772 113.121C64.6848 113.121 65.5009 113.333 66.2202 113.757C66.943 114.181 67.5131 114.794 67.9305 115.594C68.3512 116.392 68.5616 117.352 68.5616 118.475ZM66.6631 118.475C66.6631 117.685 66.5392 117.018 66.2915 116.475C66.0472 115.929 65.7078 115.516 65.2735 115.238C64.8392 114.957 64.3386 114.816 63.772 114.816C63.2053 114.816 62.7048 114.957 62.2704 115.238C61.8361 115.516 61.4951 115.929 61.2473 116.475C61.003 117.018 60.8809 117.685 60.8809 118.475C60.8809 119.266 61.003 119.935 61.2473 120.481C61.4951 121.024 61.8361 121.436 62.2704 121.718C62.7048 121.996 63.2053 122.135 63.772 122.135C64.3386 122.135 64.8392 121.996 65.2735 121.718C65.7078 121.436 66.0472 121.024 66.2915 120.481C66.5392 119.935 66.6631 119.266 66.6631 118.475ZM80.703 116.78H78.7993C78.745 116.468 78.6449 116.192 78.499 115.951C78.3531 115.706 78.1715 115.499 77.9544 115.33C77.7372 115.16 77.4895 115.033 77.2112 114.948C76.9364 114.86 76.6395 114.816 76.3205 114.816C75.7538 114.816 75.2516 114.958 74.8139 115.243C74.3761 115.525 74.0334 115.939 73.7857 116.485C73.538 117.028 73.4141 117.692 73.4141 118.475C73.4141 119.273 73.538 119.945 73.7857 120.491C74.0368 121.034 74.3795 121.445 74.8139 121.723C75.2516 121.998 75.7521 122.135 76.3154 122.135C76.6276 122.135 76.9194 122.094 77.1909 122.013C77.4657 121.928 77.7118 121.804 77.9289 121.641C78.1495 121.478 78.3344 121.278 78.4837 121.041C78.6364 120.803 78.7416 120.532 78.7993 120.226L80.703 120.237C80.6317 120.732 80.4773 121.197 80.2398 121.631C80.0056 122.065 79.6985 122.449 79.3185 122.781C78.9384 123.111 78.4939 123.369 77.9849 123.555C77.4759 123.738 76.9109 123.83 76.29 123.83C75.3738 123.83 74.556 123.618 73.8366 123.194C73.1172 122.77 72.5505 122.157 72.1366 121.356C71.7226 120.555 71.5156 119.595 71.5156 118.475C71.5156 117.352 71.7243 116.392 72.1416 115.594C72.559 114.794 73.1274 114.181 73.8468 113.757C74.5662 113.333 75.3806 113.121 76.29 113.121C76.8702 113.121 77.4098 113.202 77.9086 113.365C78.4074 113.528 78.8519 113.767 79.2421 114.083C79.6324 114.395 79.953 114.778 80.2041 115.233C80.4586 115.684 80.6249 116.2 80.703 116.78ZM90.111 123.688L86.6804 119.132H85.754V123.688H83.8656V113.263H85.754V117.549H86.2273L89.9328 113.263H92.259L88.1412 118.017L92.4371 123.688H90.111ZM95.1531 123.688V113.263H99.1436C99.8969 113.263 100.523 113.382 101.022 113.62C101.524 113.854 101.899 114.174 102.147 114.582C102.398 114.989 102.523 115.45 102.523 115.966C102.523 116.39 102.442 116.753 102.279 117.055C102.116 117.354 101.897 117.597 101.622 117.783C101.348 117.97 101.04 118.104 100.701 118.185V118.287C101.071 118.307 101.426 118.421 101.765 118.628C102.108 118.832 102.388 119.12 102.605 119.493C102.822 119.867 102.931 120.318 102.931 120.847C102.931 121.387 102.8 121.872 102.539 122.303C102.277 122.731 101.884 123.068 101.358 123.316C100.832 123.564 100.17 123.688 99.3727 123.688H95.1531ZM97.0415 122.11H99.0724C99.7578 122.11 100.252 121.979 100.554 121.718C100.859 121.453 101.012 121.114 101.012 120.7C101.012 120.391 100.935 120.113 100.783 119.865C100.63 119.614 100.413 119.417 100.131 119.275C99.8494 119.129 99.5135 119.056 99.1233 119.056H97.0415V122.11ZM97.0415 117.697H98.9095C99.2353 117.697 99.5288 117.637 99.7901 117.518C100.051 117.396 100.257 117.225 100.406 117.004C100.559 116.78 100.635 116.516 100.635 116.21C100.635 115.807 100.492 115.474 100.207 115.213C99.9258 114.951 99.5067 114.821 98.9502 114.821H97.0415V117.697ZM107.345 123.688H105.33L109 113.263H111.331L115.006 123.688H112.99L110.206 115.401H110.124L107.345 123.688ZM107.412 119.6H112.909V121.117H107.412V119.6Z" fill="black"/>
<path opacity="0.4" d="M43.7959 296.695H406.9V238.167C409.055 238.167 202.259 229.009 202.259 229.009L43.7959 193.574V296.695Z" fill="url(#paint0_linear_2466_763)"/>
<rect x="403.074" y="233.391" width="8.17935" height="8.17935" rx="4.08967" fill="#CACACA"/>
<path d="M405.712 238.167L203.868 228.705C202.532 228.642 201.204 228.464 199.898 228.171L43.7952 193.176" stroke="#CACACA" stroke-width="3.18518"/>
<path d="M299.669 284.801V304.197L292.435 296.935L289.259 300.084L301.963 312.762L314.641 300.084L311.519 296.935L304.257 304.197V284.801H299.669Z" fill="#CACACA"/>
<path d="M336.629 284.983V312.781H330.752V290.562H330.589L324.223 294.552V289.34L331.105 284.983H336.629ZM347.689 308.981L347.54 310.474C347.422 311.668 347.196 312.858 346.861 314.044C346.536 315.238 346.192 316.319 345.83 317.288C345.477 318.256 345.192 319.016 344.975 319.568H341.229C341.364 319.034 341.55 318.287 341.785 317.328C342.02 316.378 342.242 315.31 342.45 314.125C342.658 312.94 342.789 311.732 342.844 310.501L342.912 308.981H347.689ZM352.53 312.781V308.546L362.425 299.384C363.266 298.57 363.972 297.837 364.542 297.186C365.121 296.534 365.56 295.896 365.859 295.272C366.157 294.638 366.307 293.955 366.307 293.222C366.307 292.408 366.121 291.707 365.75 291.118C365.379 290.521 364.873 290.064 364.23 289.747C363.588 289.422 362.859 289.259 362.045 289.259C361.194 289.259 360.452 289.431 359.819 289.775C359.185 290.118 358.697 290.612 358.353 291.254C358.009 291.897 357.837 292.661 357.837 293.548H352.258C352.258 291.729 352.67 290.15 353.494 288.811C354.317 287.472 355.471 286.436 356.955 285.703C358.439 284.97 360.149 284.603 362.086 284.603C364.076 284.603 365.809 284.956 367.284 285.662C368.768 286.359 369.922 287.327 370.745 288.567C371.569 289.806 371.98 291.227 371.98 292.829C371.98 293.878 371.772 294.914 371.356 295.937C370.949 296.959 370.22 298.095 369.171 299.344C368.121 300.583 366.642 302.072 364.732 303.809L360.674 307.786V307.976H372.347V312.781H352.53ZM391.429 307.569V306.103C391.429 304.99 391.664 303.968 392.135 303.036C392.615 302.095 393.307 301.344 394.212 300.783C395.126 300.212 396.239 299.927 397.551 299.927C398.881 299.927 399.998 300.208 400.903 300.769C401.817 301.33 402.505 302.081 402.966 303.022C403.437 303.954 403.672 304.981 403.672 306.103V307.569C403.672 308.682 403.437 309.709 402.966 310.65C402.496 311.582 401.804 312.329 400.89 312.89C399.976 313.46 398.863 313.745 397.551 313.745C396.22 313.745 395.103 313.46 394.198 312.89C393.293 312.329 392.605 311.582 392.135 310.65C391.664 309.709 391.429 308.682 391.429 307.569ZM395.379 306.103V307.569C395.379 308.212 395.533 308.818 395.84 309.388C396.157 309.958 396.727 310.243 397.551 310.243C398.374 310.243 398.935 309.963 399.234 309.402C399.541 308.84 399.695 308.23 399.695 307.569V306.103C399.695 305.443 399.55 304.827 399.261 304.257C398.971 303.687 398.401 303.402 397.551 303.402C396.736 303.402 396.171 303.687 395.854 304.257C395.537 304.827 395.379 305.443 395.379 306.103ZM377.164 291.661V290.195C377.164 289.073 377.403 288.046 377.883 287.114C378.363 286.173 379.055 285.422 379.96 284.861C380.874 284.3 381.978 284.02 383.272 284.02C384.611 284.02 385.733 284.3 386.638 284.861C387.543 285.422 388.23 286.173 388.701 287.114C389.171 288.046 389.407 289.073 389.407 290.195V291.661C389.407 292.783 389.167 293.81 388.687 294.742C388.217 295.674 387.525 296.421 386.611 296.982C385.706 297.534 384.593 297.81 383.272 297.81C381.951 297.81 380.833 297.529 379.919 296.968C379.014 296.398 378.326 295.652 377.856 294.729C377.394 293.797 377.164 292.774 377.164 291.661ZM381.141 290.195V291.661C381.141 292.322 381.294 292.933 381.602 293.494C381.919 294.055 382.475 294.335 383.272 294.335C384.104 294.335 384.67 294.055 384.968 293.494C385.276 292.933 385.43 292.322 385.43 291.661V290.195C385.43 289.535 385.285 288.92 384.995 288.349C384.706 287.779 384.131 287.494 383.272 287.494C382.466 287.494 381.91 287.784 381.602 288.363C381.294 288.942 381.141 289.553 381.141 290.195ZM378.955 312.781L398.066 284.983H401.623L382.512 312.781H378.955Z" fill="black"/>
<path d="M45.4502 181.91L51.0118 170.911V170.818H44.5793V169.169H53.0026V170.874L47.4596 181.91H45.4502ZM53.6948 179.422V177.866L59.2004 169.169H60.426V171.459H59.6483L55.7104 177.692V177.792H63.2565V179.422H53.6948ZM59.7354 181.91V178.949L59.7479 178.24V169.169H61.5706V181.91H59.7354ZM67.2132 180.168L67.1199 180.846C67.0577 181.344 66.9519 181.862 66.8026 182.402C66.6575 182.945 66.5061 183.449 66.3485 183.913C66.195 184.378 66.0685 184.747 65.969 185.021H64.6501C64.7041 184.764 64.7787 184.415 64.8741 183.976C64.9695 183.54 65.0628 183.053 65.154 182.514C65.2453 181.974 65.3137 181.425 65.3593 180.865L65.4215 180.168H67.2132ZM73.5152 182.084C72.6235 182.084 71.8355 181.931 71.1512 181.624C70.4711 181.317 69.9381 180.894 69.5524 180.355C69.1667 179.816 68.9759 179.202 68.9801 178.513C68.9759 177.974 69.0858 177.479 69.3098 177.027C69.5379 176.57 69.8469 176.191 70.2367 175.888C70.6266 175.581 71.0621 175.386 71.5432 175.303V175.229C70.9086 175.075 70.4006 174.735 70.019 174.208C69.6374 173.682 69.4487 173.076 69.4529 172.392C69.4487 171.741 69.6208 171.16 69.9692 170.65C70.3218 170.136 70.8049 169.731 71.4187 169.437C72.0325 169.142 72.7314 168.995 73.5152 168.995C74.2908 168.995 74.9834 169.145 75.5931 169.443C76.2069 169.738 76.6901 170.142 77.0426 170.656C77.3951 171.166 77.5734 171.745 77.5776 172.392C77.5734 173.076 77.3785 173.682 76.9928 174.208C76.6071 174.735 76.1053 175.075 75.4873 175.229V175.303C75.9643 175.386 76.3935 175.581 76.7751 175.888C77.1608 176.191 77.4677 176.57 77.6958 177.027C77.928 177.479 78.0462 177.974 78.0504 178.513C78.0462 179.202 77.8513 179.816 77.4656 180.355C77.0799 180.894 76.5449 181.317 75.8606 181.624C75.1804 181.931 74.3986 182.084 73.5152 182.084ZM73.5152 180.51C74.042 180.51 74.4982 180.423 74.8839 180.249C75.2696 180.071 75.5682 179.824 75.7797 179.509C75.9912 179.189 76.0991 178.816 76.1032 178.389C76.0991 177.945 75.9829 177.553 75.7548 177.213C75.5309 176.873 75.226 176.606 74.8403 176.411C74.4546 176.216 74.0129 176.118 73.5152 176.118C73.0134 176.118 72.5676 176.216 72.1777 176.411C71.7879 176.606 71.4809 176.873 71.257 177.213C71.033 177.553 70.9231 177.945 70.9273 178.389C70.9231 178.816 71.0247 179.189 71.2321 179.509C71.4436 179.824 71.7443 180.071 72.1342 180.249C72.524 180.423 72.9844 180.51 73.5152 180.51ZM73.5152 174.582C73.9383 174.582 74.3136 174.497 74.6412 174.327C74.9689 174.157 75.226 173.92 75.4127 173.617C75.6034 173.315 75.7009 172.96 75.7051 172.554C75.7009 172.156 75.6055 171.807 75.4189 171.509C75.2364 171.21 74.9813 170.98 74.6537 170.818C74.326 170.652 73.9466 170.569 73.5152 170.569C73.0756 170.569 72.6899 170.652 72.3581 170.818C72.0305 170.98 71.7754 171.21 71.5929 171.509C71.4104 171.807 71.3213 172.156 71.3254 172.554C71.3213 172.96 71.4125 173.315 71.5991 173.617C71.7858 173.92 72.0429 174.157 72.3706 174.327C72.7023 174.497 73.0839 174.582 73.5152 174.582Z" fill="#CFCFCF"/>
<path d="M372.768 224.91L378.33 213.911V213.818H371.898V212.169H380.321V213.874L374.778 224.91H372.768ZM386.452 225.084C385.597 225.084 384.834 224.937 384.162 224.643C383.495 224.348 382.966 223.94 382.576 223.417C382.19 222.89 381.983 222.281 381.954 221.588H383.907C383.932 221.966 384.059 222.293 384.287 222.571C384.519 222.845 384.822 223.056 385.195 223.206C385.568 223.355 385.983 223.43 386.439 223.43C386.941 223.43 387.385 223.342 387.771 223.168C388.161 222.994 388.465 222.751 388.685 222.44C388.905 222.125 389.015 221.762 389.015 221.352C389.015 220.925 388.905 220.549 388.685 220.226C388.47 219.898 388.152 219.641 387.733 219.454C387.319 219.268 386.817 219.174 386.228 219.174H385.152V217.607H386.228C386.701 217.607 387.115 217.522 387.472 217.352C387.833 217.182 388.115 216.945 388.318 216.642C388.521 216.335 388.623 215.977 388.623 215.566C388.623 215.172 388.534 214.83 388.355 214.54C388.181 214.245 387.932 214.015 387.609 213.849C387.29 213.683 386.912 213.6 386.477 213.6C386.062 213.6 385.674 213.677 385.313 213.83C384.957 213.98 384.666 214.195 384.442 214.477C384.218 214.755 384.098 215.089 384.082 215.479H382.221C382.242 214.791 382.445 214.185 382.831 213.662C383.221 213.14 383.735 212.731 384.374 212.437C385.013 212.142 385.722 211.995 386.502 211.995C387.319 211.995 388.024 212.155 388.617 212.474C389.214 212.789 389.674 213.21 389.998 213.737C390.325 214.264 390.487 214.84 390.483 215.467C390.487 216.18 390.288 216.785 389.886 217.283C389.488 217.781 388.957 218.115 388.293 218.285V218.384C389.139 218.513 389.795 218.849 390.259 219.392C390.728 219.935 390.96 220.609 390.956 221.414C390.96 222.115 390.765 222.743 390.371 223.299C389.981 223.855 389.448 224.292 388.772 224.612C388.096 224.927 387.323 225.084 386.452 225.084ZM395.199 223.168L395.105 223.846C395.043 224.344 394.937 224.862 394.788 225.402C394.643 225.945 394.492 226.449 394.334 226.913C394.181 227.378 394.054 227.747 393.954 228.021H392.636C392.69 227.764 392.764 227.415 392.86 226.976C392.955 226.54 393.048 226.053 393.14 225.514C393.231 224.974 393.299 224.425 393.345 223.865L393.407 223.168H395.199ZM401.61 225.084C401.041 225.076 400.482 224.972 399.93 224.773C399.382 224.574 398.885 224.242 398.437 223.778C397.989 223.313 397.63 222.689 397.361 221.905C397.095 221.122 396.962 220.143 396.962 218.969C396.962 217.858 397.072 216.87 397.292 216.008C397.516 215.145 397.838 214.417 398.256 213.824C398.675 213.227 399.181 212.773 399.774 212.462C400.367 212.151 401.033 211.995 401.771 211.995C402.53 211.995 403.204 212.145 403.793 212.443C404.382 212.742 404.859 213.154 405.224 213.681C405.593 214.208 405.827 214.807 405.927 215.479H404.03C403.901 214.948 403.646 214.515 403.264 214.179C402.883 213.843 402.385 213.675 401.771 213.675C400.838 213.675 400.11 214.081 399.588 214.894C399.069 215.707 398.808 216.837 398.804 218.285H398.897C399.117 217.924 399.387 217.617 399.706 217.364C400.029 217.107 400.39 216.91 400.788 216.773C401.191 216.632 401.614 216.561 402.058 216.561C402.796 216.561 403.463 216.742 404.061 217.103C404.662 217.459 405.141 217.953 405.498 218.583C405.854 219.214 406.033 219.935 406.033 220.748C406.033 221.561 405.848 222.297 405.479 222.957C405.114 223.616 404.6 224.139 403.936 224.524C403.273 224.906 402.497 225.093 401.61 225.084ZM401.603 223.467C402.093 223.467 402.53 223.347 402.916 223.106C403.302 222.865 403.607 222.542 403.831 222.136C404.054 221.729 404.166 221.275 404.166 220.773C404.166 220.284 404.057 219.838 403.837 219.436C403.621 219.033 403.322 218.714 402.941 218.478C402.563 218.241 402.132 218.123 401.647 218.123C401.278 218.123 400.936 218.193 400.62 218.334C400.309 218.476 400.036 218.67 399.799 218.919C399.563 219.168 399.376 219.454 399.239 219.778C399.107 220.097 399.04 220.435 399.04 220.792C399.04 221.269 399.15 221.71 399.37 222.117C399.594 222.523 399.899 222.851 400.285 223.1C400.674 223.345 401.114 223.467 401.603 223.467Z" fill="#CFCFCF"/>
<rect x="31.8516" y="347.984" width="796.296" height="234.907" rx="15.9259" fill="#F7F7F7"/>
<path opacity="0.6" d="M44.8241 372.93V362.505H48.7332C49.534 362.505 50.2059 362.655 50.7488 362.953C51.2951 363.252 51.7074 363.663 51.9856 364.185C52.2673 364.704 52.4081 365.295 52.4081 365.956C52.4081 366.625 52.2673 367.219 51.9856 367.738C51.704 368.257 51.2883 368.666 50.7386 368.965C50.1889 369.26 49.5119 369.407 48.7077 369.407H46.1169V367.855H48.4532C48.9215 367.855 49.3049 367.774 49.6035 367.611C49.9022 367.448 50.1227 367.224 50.2652 366.939C50.4112 366.654 50.4841 366.326 50.4841 365.956C50.4841 365.587 50.4112 365.261 50.2652 364.979C50.1227 364.698 49.9005 364.479 49.5985 364.323C49.2998 364.163 48.9147 364.083 48.443 364.083H46.7124V372.93H44.8241ZM55.4817 372.93V362.505H62.2615V364.088H57.3701V366.918H61.9103V368.501H57.3701V371.347H62.3022V372.93H55.4817ZM72.3249 362.505V364.088H67.5098V372.93H65.6214V362.505H72.3249ZM75.3552 362.505H77.2283V369.611H77.325L82.2266 362.505H83.9216V372.93H82.0332V365.829H81.9467L77.0298 372.93H75.3552V362.505ZM96.7272 367.718C96.7272 368.841 96.5168 369.803 96.096 370.604C95.6786 371.401 95.1086 372.012 94.3858 372.436C93.6664 372.86 92.8503 373.072 91.9375 373.072C91.0247 373.072 90.2069 372.86 89.4842 372.436C88.7648 372.008 88.1947 371.396 87.7739 370.598C87.3566 369.798 87.1479 368.837 87.1479 367.718C87.1479 366.594 87.3566 365.634 87.7739 364.837C88.1947 364.036 88.7648 363.423 89.4842 362.999C90.2069 362.575 91.0247 362.363 91.9375 362.363C92.8503 362.363 93.6664 362.575 94.3858 362.999C95.1086 363.423 95.6786 364.036 96.096 364.837C96.5168 365.634 96.7272 366.594 96.7272 367.718ZM94.8286 367.718C94.8286 366.927 94.7048 366.26 94.4571 365.717C94.2127 365.171 93.8734 364.759 93.4391 364.48C93.0047 364.199 92.5042 364.058 91.9375 364.058C91.3708 364.058 90.8703 364.199 90.436 364.48C90.0016 364.759 89.6606 365.171 89.4129 365.717C89.1686 366.26 89.0464 366.927 89.0464 367.718C89.0464 368.508 89.1686 369.177 89.4129 369.723C89.6606 370.266 90.0016 370.678 90.436 370.96C90.8703 371.238 91.3708 371.377 91.9375 371.377C92.5042 371.377 93.0047 371.238 93.4391 370.96C93.8734 370.678 94.2127 370.266 94.4571 369.723C94.7048 369.177 94.8286 368.508 94.8286 367.718ZM99.9458 372.93V362.505H101.834V366.918H106.665V362.505H108.558V372.93H106.665V368.501H101.834V372.93H99.9458ZM113.323 366.532H115.97C116.767 366.532 117.451 366.662 118.021 366.924C118.594 367.181 119.034 367.546 119.339 368.018C119.644 368.49 119.797 369.044 119.797 369.682C119.797 370.324 119.644 370.889 119.339 371.377C119.034 371.862 118.594 372.243 118.021 372.517C117.451 372.792 116.767 372.93 115.97 372.93H112.066V362.505H113.959V371.382H115.97C116.39 371.382 116.747 371.303 117.038 371.143C117.33 370.984 117.551 370.773 117.7 370.512C117.853 370.251 117.929 369.967 117.929 369.662C117.929 369.221 117.759 368.846 117.42 368.537C117.084 368.225 116.601 368.069 115.97 368.069H113.323V366.532ZM122.592 362.505V372.93H120.698V362.505H122.592Z" fill="black"/>
<path opacity="0.4" d="M43.7959 545.941H812.194V487.413H549.046L43.7959 442.82V545.941Z" fill="url(#paint1_linear_2466_763)"/>
<rect x="808.389" y="482.637" width="8.17935" height="8.17935" rx="4.08967" fill="#CACACA"/>
<path d="M811.027 487.413H547.851L43.7953 442.422" stroke="#CACACA" stroke-width="3.18518"/>
<path d="M706.984 534.043V553.439L699.749 546.178L696.573 549.327L709.278 562.004L721.955 549.327L718.833 546.178L711.572 553.439V534.043H706.984Z" fill="#CACACA"/>
<path d="M731.828 562.023V557.789L741.723 548.627C742.564 547.812 743.27 547.079 743.84 546.428C744.419 545.776 744.858 545.138 745.157 544.514C745.455 543.881 745.605 543.197 745.605 542.464C745.605 541.65 745.419 540.949 745.048 540.361C744.677 539.763 744.171 539.306 743.528 538.99C742.886 538.664 742.157 538.501 741.343 538.501C740.492 538.501 739.75 538.673 739.117 539.017C738.483 539.361 737.995 539.854 737.651 540.496C737.307 541.139 737.135 541.903 737.135 542.79H731.556C731.556 540.971 731.968 539.392 732.792 538.053C733.615 536.714 734.769 535.678 736.253 534.945C737.737 534.212 739.447 533.845 741.383 533.845C743.374 533.845 745.107 534.198 746.582 534.904C748.066 535.601 749.22 536.569 750.043 537.809C750.867 539.048 751.278 540.469 751.278 542.071C751.278 543.12 751.07 544.157 750.654 545.179C750.247 546.202 749.518 547.337 748.469 548.586C747.419 549.826 745.94 551.314 744.03 553.052L739.972 557.028V557.219H751.645V562.023H731.828ZM761.85 558.223L761.701 559.716C761.583 560.91 761.357 562.1 761.022 563.286C760.696 564.48 760.353 565.562 759.991 566.53C759.638 567.498 759.353 568.258 759.136 568.81H755.389C755.525 568.276 755.711 567.53 755.946 566.57C756.181 565.62 756.403 564.553 756.611 563.367C756.819 562.182 756.95 560.974 757.005 559.743L757.072 558.223H761.85ZM775.313 534.225V562.023H769.436V539.804H769.273L762.907 543.795V538.582L769.789 534.225H775.313ZM796.744 556.811V555.345C796.744 554.232 796.979 553.21 797.449 552.278C797.929 551.337 798.621 550.586 799.526 550.025C800.44 549.455 801.553 549.17 802.865 549.17C804.195 549.17 805.313 549.45 806.218 550.011C807.132 550.572 807.819 551.323 808.281 552.264C808.751 553.196 808.987 554.223 808.987 555.345V556.811C808.987 557.924 808.751 558.951 808.281 559.892C807.81 560.824 807.118 561.571 806.204 562.132C805.29 562.702 804.177 562.987 802.865 562.987C801.535 562.987 800.417 562.702 799.513 562.132C798.608 561.571 797.92 560.824 797.449 559.892C796.979 558.951 796.744 557.924 796.744 556.811ZM800.693 555.345V556.811C800.693 557.454 800.847 558.06 801.155 558.63C801.472 559.2 802.042 559.485 802.865 559.485C803.689 559.485 804.25 559.205 804.548 558.644C804.856 558.083 805.01 557.472 805.01 556.811V555.345C805.01 554.685 804.865 554.07 804.575 553.499C804.286 552.929 803.716 552.644 802.865 552.644C802.051 552.644 801.485 552.929 801.168 553.499C800.852 554.07 800.693 554.685 800.693 555.345ZM782.478 540.903V539.438C782.478 538.316 782.718 537.288 783.198 536.356C783.677 535.415 784.369 534.664 785.274 534.103C786.188 533.542 787.292 533.262 788.586 533.262C789.925 533.262 791.047 533.542 791.952 534.103C792.857 534.664 793.545 535.415 794.015 536.356C794.486 537.288 794.721 538.316 794.721 539.438V540.903C794.721 542.026 794.481 543.053 794.002 543.985C793.531 544.917 792.839 545.663 791.925 546.224C791.02 546.776 789.907 547.052 788.586 547.052C787.265 547.052 786.147 546.772 785.234 546.211C784.329 545.641 783.641 544.894 783.17 543.971C782.709 543.039 782.478 542.016 782.478 540.903ZM786.455 539.438V540.903C786.455 541.564 786.609 542.175 786.917 542.736C787.233 543.297 787.79 543.577 788.586 543.577C789.419 543.577 789.984 543.297 790.283 542.736C790.59 542.175 790.744 541.564 790.744 540.903V539.438C790.744 538.777 790.599 538.162 790.31 537.592C790.02 537.022 789.446 536.737 788.586 536.737C787.781 536.737 787.224 537.026 786.917 537.605C786.609 538.184 786.455 538.795 786.455 539.438ZM784.27 562.023L803.381 534.225H806.937L787.826 562.023H784.27Z" fill="black"/>
<path d="M44.7539 428.668V427.113L50.2596 418.416H51.4851V420.705H50.7075L46.7696 426.938V427.038H54.3157V428.668H44.7539ZM50.7946 431.156V428.195L50.807 427.486V418.416H52.6298V431.156H50.7946ZM60.5431 418.241C61.1113 418.245 61.6712 418.349 62.2228 418.552C62.7744 418.756 63.2721 419.087 63.7158 419.548C64.1637 420.008 64.5204 420.63 64.7859 421.414C65.0554 422.194 65.1923 423.164 65.1964 424.326C65.1964 425.441 65.0845 426.434 64.8605 427.305C64.6365 428.172 64.3151 428.904 63.8962 429.501C63.4815 430.099 62.9776 430.553 62.3845 430.864C61.7914 431.175 61.1237 431.33 60.3813 431.33C59.6224 431.33 58.9484 431.181 58.3595 430.883C57.7706 430.584 57.2915 430.171 56.9224 429.645C56.5533 429.114 56.3231 428.504 56.2319 427.816H58.1293C58.2537 428.363 58.5067 428.807 58.8883 429.147C59.274 429.483 59.7717 429.651 60.3813 429.651C61.3145 429.651 62.0424 429.244 62.5649 428.431C63.0875 427.614 63.3509 426.474 63.355 425.01H63.2555C63.0398 425.367 62.7702 425.673 62.4467 425.931C62.1274 426.188 61.7686 426.387 61.3705 426.528C60.9723 426.669 60.5472 426.739 60.0952 426.739C59.3611 426.739 58.6934 426.559 58.092 426.198C57.4906 425.837 57.0116 425.342 56.6549 424.711C56.2982 424.081 56.1199 423.361 56.1199 422.553C56.1199 421.748 56.3024 421.018 56.6674 420.363C57.0365 419.707 57.5508 419.189 58.2102 418.807C58.8738 418.422 59.6514 418.233 60.5431 418.241ZM60.5493 419.859C60.0641 419.859 59.6265 419.979 59.2367 420.22C58.851 420.456 58.5461 420.777 58.3222 421.184C58.0982 421.586 57.9862 422.034 57.9862 422.528C57.9862 423.021 58.0941 423.469 58.3097 423.871C58.5295 424.27 58.8281 424.587 59.2056 424.823C59.5871 425.055 60.0226 425.172 60.512 425.172C60.8769 425.172 61.217 425.101 61.5322 424.96C61.8474 424.819 62.1232 424.624 62.3596 424.375C62.596 424.122 62.7806 423.836 62.9133 423.517C63.046 423.197 63.1124 422.861 63.1124 422.509C63.1124 422.04 63.0004 421.605 62.7764 421.203C62.5566 420.8 62.2539 420.477 61.8682 420.232C61.4825 419.983 61.0428 419.859 60.5493 419.859ZM69.2495 429.414L69.1562 430.092C69.094 430.59 68.9883 431.109 68.839 431.648C68.6938 432.191 68.5424 432.695 68.3848 433.159C68.2314 433.624 68.1049 433.993 68.0053 434.267H66.6865C66.7404 434.01 66.815 433.661 66.9104 433.222C67.0058 432.786 67.0991 432.299 67.1904 431.76C67.2816 431.221 67.35 430.671 67.3957 430.111L67.4579 429.414H69.2495ZM71.4068 428.668V427.113L76.9124 418.416H78.138V420.705H77.3603L73.4224 426.938V427.038H80.9686V428.668H71.4068ZM77.4474 431.156V428.195L77.4599 427.486V418.416H79.2827V431.156H77.4474Z" fill="#CFCFCF"/>
<path d="M779.177 471.664V470.109L784.683 461.412H785.908V463.701H785.131L781.193 469.934V470.034H788.739V471.664H779.177ZM785.218 474.152V471.191L785.23 470.482V461.412H787.053V474.152H785.218ZM791.159 474.152L796.72 463.154V463.06H790.288V461.412H798.711V463.116L793.168 474.152H791.159ZM800.952 472.41L800.859 473.089C800.797 473.586 800.691 474.105 800.542 474.644C800.397 475.187 800.245 475.691 800.088 476.156C799.934 476.62 799.808 476.989 799.708 477.263H798.389C798.443 477.006 798.518 476.657 798.613 476.218C798.709 475.782 798.802 475.295 798.893 474.756C798.985 474.217 799.053 473.667 799.099 473.107L799.161 472.41H800.952ZM807.351 474.327C806.497 474.327 805.733 474.179 805.062 473.885C804.394 473.59 803.865 473.182 803.475 472.659C803.089 472.133 802.882 471.523 802.853 470.83H804.806C804.831 471.208 804.958 471.535 805.186 471.813C805.418 472.087 805.721 472.298 806.094 472.448C806.468 472.597 806.882 472.672 807.338 472.672C807.84 472.672 808.284 472.585 808.67 472.41C809.06 472.236 809.364 471.994 809.584 471.683C809.804 471.367 809.914 471.004 809.914 470.594C809.914 470.167 809.804 469.791 809.584 469.468C809.369 469.14 809.051 468.883 808.632 468.696C808.218 468.51 807.716 468.417 807.127 468.417H806.051V466.849H807.127C807.6 466.849 808.014 466.764 808.371 466.594C808.732 466.424 809.014 466.187 809.217 465.885C809.42 465.578 809.522 465.219 809.522 464.808C809.522 464.414 809.433 464.072 809.255 463.782C809.08 463.487 808.832 463.257 808.508 463.091C808.189 462.925 807.811 462.842 807.376 462.842C806.961 462.842 806.573 462.919 806.212 463.073C805.856 463.222 805.565 463.438 805.341 463.72C805.118 463.997 804.997 464.331 804.981 464.721H803.121C803.141 464.033 803.345 463.427 803.73 462.905C804.12 462.382 804.634 461.974 805.273 461.679C805.912 461.385 806.621 461.237 807.401 461.237C808.218 461.237 808.923 461.397 809.516 461.716C810.113 462.032 810.573 462.453 810.897 462.979C811.225 463.506 811.386 464.083 811.382 464.709C811.386 465.422 811.187 466.028 810.785 466.525C810.387 467.023 809.856 467.357 809.192 467.527V467.626C810.038 467.755 810.694 468.091 811.158 468.634C811.627 469.178 811.859 469.852 811.855 470.656C811.859 471.357 811.664 471.985 811.27 472.541C810.88 473.097 810.347 473.534 809.671 473.854C808.995 474.169 808.222 474.327 807.351 474.327Z" fill="#CFCFCF"/>
<rect x="437.167" y="98.7422" width="390.981" height="234.907" rx="15.9259" fill="#F7F7F7"/>
<path opacity="0.6" d="M459.062 116.78H457.158C457.104 116.468 457.004 116.192 456.858 115.951C456.712 115.706 456.53 115.499 456.313 115.33C456.096 115.16 455.848 115.033 455.57 114.948C455.295 114.86 454.998 114.816 454.679 114.816C454.113 114.816 453.61 114.958 453.173 115.243C452.735 115.525 452.392 115.939 452.144 116.485C451.897 117.028 451.773 117.692 451.773 118.475C451.773 119.273 451.897 119.945 452.144 120.491C452.396 121.034 452.738 121.445 453.173 121.723C453.61 121.998 454.111 122.135 454.674 122.135C454.986 122.135 455.278 122.094 455.55 122.013C455.824 121.928 456.071 121.804 456.288 121.641C456.508 121.478 456.693 121.278 456.842 121.041C456.995 120.803 457.1 120.532 457.158 120.226L459.062 120.237C458.99 120.732 458.836 121.197 458.599 121.631C458.364 122.065 458.057 122.449 457.677 122.781C457.297 123.111 456.853 123.369 456.344 123.555C455.835 123.738 455.27 123.83 454.649 123.83C453.733 123.83 452.915 123.618 452.195 123.194C451.476 122.77 450.909 122.157 450.495 121.356C450.081 120.555 449.874 119.595 449.874 118.475C449.874 117.352 450.083 116.392 450.5 115.594C450.918 114.794 451.486 114.181 452.206 113.757C452.925 113.333 453.739 113.121 454.649 113.121C455.229 113.121 455.769 113.202 456.267 113.365C456.766 113.528 457.211 113.767 457.601 114.083C457.991 114.395 458.312 114.778 458.563 115.233C458.817 115.684 458.984 116.2 459.062 116.78ZM463.437 123.688H461.421L465.091 113.263H467.422L471.097 123.688H469.082L466.298 115.401H466.216L463.437 123.688ZM463.503 119.6H469V121.117H463.503V119.6ZM473.904 123.688V113.263H475.792V117.676H480.623V113.263H482.516V123.688H480.623V119.259H475.792V123.688H473.904ZM492.249 123.688L488.818 119.132H487.892V123.688H486.003V113.263H487.892V117.549H488.365L492.07 113.263H494.396L490.279 118.017L494.575 123.688H492.249ZM496.833 114.846V113.263H505.15V114.846H501.928V123.688H500.054V114.846H496.833ZM512.2 117.717V119.234H507.507V117.717H512.2ZM524.158 113.263V123.688H522.285V114.831H517.724V123.688H515.851V113.263H524.158ZM527.85 123.688V113.263H534.63V114.846H529.738V117.676H534.278V119.259H529.738V122.105H534.67V123.688H527.85ZM537.531 114.846V113.263H545.848V114.846H542.626V123.688H540.753V114.846H537.531ZM548.885 123.688V113.263H555.665V114.846H550.773V117.676H555.314V119.259H550.773V122.105H555.706V123.688H548.885ZM559.025 123.688V113.263H562.934C563.735 113.263 564.407 113.413 564.949 113.711C565.496 114.01 565.908 114.42 566.186 114.943C566.468 115.462 566.609 116.053 566.609 116.714C566.609 117.383 566.468 117.977 566.186 118.496C565.905 119.015 565.489 119.424 564.939 119.722C564.39 120.018 563.713 120.165 562.908 120.165H560.318V118.613H562.654C563.122 118.613 563.506 118.531 563.804 118.368C564.103 118.206 564.323 117.982 564.466 117.697C564.612 117.412 564.685 117.084 564.685 116.714C564.685 116.344 564.612 116.019 564.466 115.737C564.323 115.455 564.101 115.236 563.799 115.08C563.501 114.921 563.115 114.841 562.644 114.841H560.913V123.688H559.025ZM569.682 123.688V113.263H576.386V114.846H571.571V117.289H573.581C574.379 117.289 575.062 117.42 575.633 117.681C576.206 117.939 576.645 118.304 576.951 118.776C577.256 119.247 577.409 119.802 577.409 120.44C577.409 121.081 577.256 121.646 576.951 122.135C576.645 122.62 576.206 123 575.633 123.275C575.062 123.55 574.379 123.688 573.581 123.688H569.682ZM571.571 122.14H573.581C574.002 122.14 574.358 122.06 574.65 121.901C574.942 121.741 575.163 121.531 575.312 121.27C575.465 121.008 575.541 120.725 575.541 120.42C575.541 119.979 575.371 119.604 575.032 119.295C574.696 118.983 574.212 118.827 573.581 118.827H571.571V122.14ZM581.425 123.83V122.242H582.021C582.289 122.242 582.51 122.203 582.683 122.125C582.856 122.047 582.995 121.935 583.1 121.789C583.209 121.643 583.299 121.473 583.37 121.28L583.507 120.929L579.781 113.263H581.756L584.352 118.842L586.597 113.263H588.541L584.948 121.763C584.781 122.13 584.59 122.471 584.372 122.787C584.155 123.099 583.872 123.352 583.522 123.545C583.176 123.735 582.725 123.83 582.169 123.83H581.425ZM591.32 123.688V113.263H595.229C596.029 113.263 596.701 113.413 597.244 113.711C597.791 114.01 598.203 114.42 598.481 114.943C598.763 115.462 598.904 116.053 598.904 116.714C598.904 117.383 598.763 117.977 598.481 118.496C598.199 119.015 597.784 119.424 597.234 119.722C596.684 120.018 596.007 120.165 595.203 120.165H592.612V118.613H594.949C595.417 118.613 595.8 118.531 596.099 118.368C596.398 118.206 596.618 117.982 596.761 117.697C596.907 117.412 596.98 117.084 596.98 116.714C596.98 116.344 596.907 116.019 596.761 115.737C596.618 115.455 596.396 115.236 596.094 115.08C595.795 114.921 595.41 114.841 594.939 114.841H593.208V123.688H591.32ZM608.681 113.263V114.846H603.866V123.688H601.977V113.263H608.681Z" fill="black"/>
<path opacity="0.4" d="M812.215 296.695H449.111V208.704L609.166 220.25C609.166 220.25 810.097 178.535 812.215 177.662V177.648C812.237 177.648 812.237 177.653 812.215 177.662V296.695Z" fill="url(#paint2_linear_2466_763)"/>
<rect x="808.39" y="173.668" width="8.17935" height="8.17935" rx="4.08967" fill="#04B34A"/>
<path d="M810.231 178.445L612.992 218.834C610.981 219.246 608.925 219.388 606.876 219.256L449.111 209.103" stroke="#04B34A" stroke-width="3.18518"/>
<path d="M696.985 312.762V293.365L689.75 300.627L686.574 297.478L699.279 284.801L711.956 297.478L708.834 300.627L701.573 293.365V312.762H696.985Z" fill="#04B34A"/>
<path d="M732.426 313.392C730.092 313.383 728.083 312.808 726.4 311.668C724.726 310.528 723.436 308.877 722.531 306.714C721.635 304.551 721.192 301.95 721.201 298.909C721.201 295.878 721.649 293.295 722.545 291.159C723.45 289.024 724.739 287.399 726.413 286.286C728.096 285.164 730.101 284.603 732.426 284.603C734.752 284.603 736.751 285.164 738.425 286.286C740.109 287.408 741.403 289.037 742.307 291.173C743.212 293.299 743.66 295.878 743.651 298.909C743.651 301.959 743.199 304.565 742.294 306.728C741.398 308.89 740.113 310.542 738.439 311.682C736.765 312.822 734.761 313.392 732.426 313.392ZM732.426 308.519C734.019 308.519 735.29 307.718 736.24 306.117C737.19 304.515 737.661 302.113 737.652 298.909C737.652 296.801 737.435 295.046 737 293.643C736.575 292.24 735.969 291.186 735.181 290.48C734.403 289.775 733.485 289.422 732.426 289.422C730.843 289.422 729.576 290.213 728.626 291.797C727.675 293.381 727.196 295.751 727.187 298.909C727.187 301.045 727.4 302.828 727.825 304.257C728.259 305.678 728.87 306.746 729.657 307.461C730.444 308.166 731.367 308.519 732.426 308.519ZM752.669 308.981L752.52 310.474C752.402 311.668 752.176 312.858 751.841 314.044C751.515 315.238 751.171 316.319 750.809 317.288C750.456 318.256 750.171 319.016 749.954 319.568H746.208C746.344 319.034 746.529 318.287 746.765 317.328C747 316.378 747.222 315.31 747.43 314.125C747.638 312.94 747.769 311.732 747.823 310.501L747.891 308.981H752.669ZM767.438 313.161C765.52 313.161 763.81 312.808 762.308 312.103C760.815 311.397 759.629 310.424 758.751 309.184C757.874 307.945 757.417 306.524 757.381 304.922H763.081C763.145 305.999 763.597 306.872 764.439 307.542C765.28 308.212 766.28 308.546 767.438 308.546C768.361 308.546 769.176 308.343 769.881 307.936C770.596 307.519 771.153 306.945 771.551 306.212C771.958 305.47 772.162 304.619 772.162 303.66C772.162 302.683 771.954 301.823 771.537 301.081C771.13 300.339 770.565 299.76 769.841 299.344C769.117 298.928 768.289 298.715 767.357 298.706C766.542 298.706 765.751 298.873 764.982 299.208C764.221 299.543 763.629 300 763.203 300.579L757.978 299.642L759.294 284.983H776.288V289.788H764.14L763.421 296.751H763.583C764.072 296.064 764.81 295.493 765.796 295.041C766.782 294.589 767.886 294.362 769.108 294.362C770.782 294.362 772.275 294.756 773.587 295.543C774.899 296.33 775.935 297.412 776.695 298.787C777.455 300.154 777.831 301.728 777.822 303.511C777.831 305.384 777.397 307.049 776.519 308.506C775.65 309.953 774.433 311.094 772.868 311.926C771.311 312.75 769.501 313.161 767.438 313.161ZM796.745 307.569V306.103C796.745 304.99 796.98 303.968 797.45 303.036C797.93 302.095 798.622 301.344 799.527 300.783C800.441 300.212 801.554 299.927 802.866 299.927C804.196 299.927 805.314 300.208 806.219 300.769C807.133 301.33 807.82 302.081 808.282 303.022C808.752 303.954 808.988 304.981 808.988 306.103V307.569C808.988 308.682 808.752 309.709 808.282 310.65C807.811 311.582 807.119 312.329 806.205 312.89C805.291 313.46 804.178 313.745 802.866 313.745C801.536 313.745 800.418 313.46 799.514 312.89C798.609 312.329 797.921 311.582 797.45 310.65C796.98 309.709 796.745 308.682 796.745 307.569ZM800.694 306.103V307.569C800.694 308.212 800.848 308.818 801.156 309.388C801.473 309.958 802.043 310.243 802.866 310.243C803.69 310.243 804.251 309.963 804.549 309.402C804.857 308.84 805.011 308.23 805.011 307.569V306.103C805.011 305.443 804.866 304.827 804.576 304.257C804.287 303.687 803.717 303.402 802.866 303.402C802.052 303.402 801.486 303.687 801.169 304.257C800.853 304.827 800.694 305.443 800.694 306.103ZM782.479 291.661V290.195C782.479 289.073 782.719 288.046 783.198 287.114C783.678 286.173 784.37 285.422 785.275 284.861C786.189 284.3 787.293 284.02 788.587 284.02C789.926 284.02 791.048 284.3 791.953 284.861C792.858 285.422 793.546 286.173 794.016 287.114C794.487 288.046 794.722 289.073 794.722 290.195V291.661C794.722 292.783 794.482 293.81 794.003 294.742C793.532 295.674 792.84 296.421 791.926 296.982C791.021 297.534 789.908 297.81 788.587 297.81C787.266 297.81 786.148 297.529 785.234 296.968C784.33 296.398 783.642 295.652 783.171 294.729C782.71 293.797 782.479 292.774 782.479 291.661ZM786.456 290.195V291.661C786.456 292.322 786.61 292.933 786.918 293.494C787.234 294.055 787.791 294.335 788.587 294.335C789.42 294.335 789.985 294.055 790.284 293.494C790.591 292.933 790.745 292.322 790.745 291.661V290.195C790.745 289.535 790.6 288.92 790.311 288.349C790.021 287.779 789.447 287.494 788.587 287.494C787.782 287.494 787.225 287.784 786.918 288.363C786.61 288.942 786.456 289.553 786.456 290.195ZM784.271 312.781L803.382 284.983H806.938L787.827 312.781H784.271Z" fill="black"/>
<path d="M454.784 197.213C454.216 197.205 453.656 197.101 453.105 196.902C452.557 196.703 452.06 196.371 451.612 195.907C451.164 195.442 450.805 194.818 450.535 194.034C450.27 193.25 450.137 192.272 450.137 191.098C450.137 189.986 450.247 188.999 450.467 188.137C450.691 187.274 451.012 186.546 451.431 185.953C451.85 185.356 452.356 184.902 452.949 184.591C453.542 184.28 454.208 184.124 454.946 184.124C455.705 184.124 456.379 184.273 456.968 184.572C457.557 184.871 458.034 185.283 458.399 185.81C458.768 186.337 459.002 186.936 459.102 187.608H457.204C457.076 187.077 456.821 186.644 456.439 186.308C456.058 185.972 455.56 185.804 454.946 185.804C454.013 185.804 453.285 186.21 452.763 187.023C452.244 187.836 451.983 188.966 451.979 190.414H452.072C452.292 190.053 452.561 189.746 452.881 189.493C453.204 189.236 453.565 189.039 453.963 188.902C454.366 188.761 454.789 188.69 455.232 188.69C455.971 188.69 456.638 188.871 457.236 189.232C457.837 189.588 458.316 190.082 458.673 190.712C459.029 191.343 459.208 192.064 459.208 192.877C459.208 193.69 459.023 194.426 458.654 195.086C458.289 195.745 457.775 196.268 457.111 196.653C456.448 197.035 455.672 197.222 454.784 197.213ZM454.778 195.596C455.268 195.596 455.705 195.476 456.091 195.235C456.477 194.994 456.781 194.671 457.005 194.264C457.229 193.858 457.341 193.404 457.341 192.902C457.341 192.413 457.231 191.967 457.012 191.565C456.796 191.162 456.497 190.843 456.116 190.606C455.738 190.37 455.307 190.252 454.822 190.252C454.453 190.252 454.111 190.322 453.795 190.463C453.484 190.604 453.211 190.799 452.974 191.048C452.738 191.297 452.551 191.583 452.414 191.907C452.282 192.226 452.215 192.564 452.215 192.921C452.215 193.398 452.325 193.839 452.545 194.246C452.769 194.652 453.074 194.98 453.459 195.229C453.849 195.473 454.289 195.596 454.778 195.596ZM465.601 197.213C464.71 197.213 463.922 197.06 463.237 196.753C462.557 196.446 462.024 196.023 461.639 195.484C461.253 194.945 461.062 194.331 461.066 193.642C461.062 193.103 461.172 192.608 461.396 192.156C461.624 191.699 461.933 191.32 462.323 191.017C462.713 190.71 463.148 190.515 463.629 190.432V190.358C462.995 190.204 462.487 189.864 462.105 189.337C461.724 188.811 461.535 188.205 461.539 187.521C461.535 186.87 461.707 186.289 462.055 185.779C462.408 185.265 462.891 184.86 463.505 184.566C464.119 184.271 464.818 184.124 465.601 184.124C466.377 184.124 467.07 184.273 467.679 184.572C468.293 184.867 468.776 185.271 469.129 185.785C469.481 186.295 469.66 186.874 469.664 187.521C469.66 188.205 469.465 188.811 469.079 189.337C468.693 189.864 468.191 190.204 467.573 190.358V190.432C468.05 190.515 468.48 190.71 468.861 191.017C469.247 191.32 469.554 191.699 469.782 192.156C470.014 192.608 470.132 193.103 470.137 193.642C470.132 194.331 469.937 194.945 469.552 195.484C469.166 196.023 468.631 196.446 467.947 196.753C467.267 197.06 466.485 197.213 465.601 197.213ZM465.601 195.639C466.128 195.639 466.584 195.552 466.97 195.378C467.356 195.2 467.654 194.953 467.866 194.638C468.077 194.318 468.185 193.945 468.189 193.518C468.185 193.074 468.069 192.682 467.841 192.342C467.617 192.002 467.312 191.735 466.926 191.54C466.541 191.345 466.099 191.247 465.601 191.247C465.1 191.247 464.654 191.345 464.264 191.54C463.874 191.735 463.567 192.002 463.343 192.342C463.119 192.682 463.009 193.074 463.013 193.518C463.009 193.945 463.111 194.318 463.318 194.638C463.53 194.953 463.83 195.2 464.22 195.378C464.61 195.552 465.071 195.639 465.601 195.639ZM465.601 189.711C466.024 189.711 466.4 189.626 466.727 189.456C467.055 189.286 467.312 189.049 467.499 188.746C467.69 188.444 467.787 188.089 467.791 187.683C467.787 187.284 467.692 186.936 467.505 186.637C467.323 186.339 467.068 186.109 466.74 185.947C466.412 185.781 466.033 185.698 465.601 185.698C465.162 185.698 464.776 185.781 464.444 185.947C464.117 186.109 463.862 186.339 463.679 186.637C463.497 186.936 463.407 187.284 463.412 187.683C463.407 188.089 463.499 188.444 463.685 188.746C463.872 189.049 464.129 189.286 464.457 189.456C464.789 189.626 465.17 189.711 465.601 189.711Z" fill="#CFCFCF"/>
<path d="M782.263 162.971C781.695 162.963 781.135 162.859 780.583 162.66C780.036 162.461 779.538 162.129 779.09 161.665C778.642 161.2 778.283 160.576 778.014 159.792C777.748 159.008 777.616 158.029 777.616 156.856C777.616 155.744 777.726 154.757 777.945 153.895C778.169 153.032 778.491 152.304 778.91 151.711C779.328 151.114 779.834 150.66 780.428 150.349C781.021 150.037 781.686 149.882 782.425 149.882C783.183 149.882 783.857 150.031 784.446 150.33C785.035 150.628 785.512 151.041 785.877 151.568C786.246 152.095 786.481 152.694 786.58 153.366H784.683C784.554 152.835 784.299 152.401 783.918 152.066C783.536 151.73 783.038 151.562 782.425 151.562C781.491 151.562 780.763 151.968 780.241 152.781C779.722 153.594 779.461 154.724 779.457 156.171H779.55C779.77 155.811 780.04 155.504 780.359 155.251C780.683 154.994 781.043 154.797 781.442 154.66C781.844 154.519 782.267 154.448 782.711 154.448C783.449 154.448 784.117 154.629 784.714 154.989C785.315 155.346 785.794 155.84 786.151 156.47C786.508 157.1 786.686 157.822 786.686 158.635C786.686 159.448 786.501 160.184 786.132 160.843C785.767 161.503 785.253 162.025 784.589 162.411C783.926 162.793 783.15 162.979 782.263 162.971ZM782.257 161.354C782.746 161.354 783.183 161.233 783.569 160.993C783.955 160.752 784.26 160.429 784.484 160.022C784.708 159.616 784.82 159.162 784.82 158.66C784.82 158.17 784.71 157.725 784.49 157.322C784.274 156.92 783.976 156.601 783.594 156.364C783.217 156.128 782.785 156.01 782.3 156.01C781.931 156.01 781.589 156.08 781.274 156.221C780.963 156.362 780.689 156.557 780.452 156.806C780.216 157.055 780.029 157.341 779.893 157.664C779.76 157.984 779.693 158.322 779.693 158.679C779.693 159.155 779.803 159.597 780.023 160.004C780.247 160.41 780.552 160.738 780.938 160.987C781.328 161.231 781.767 161.354 782.257 161.354ZM793.08 162.971C792.188 162.971 791.4 162.818 790.716 162.511C790.036 162.204 789.503 161.781 789.117 161.242C788.731 160.702 788.54 160.089 788.545 159.4C788.54 158.861 788.65 158.365 788.874 157.913C789.102 157.457 789.411 157.078 789.801 156.775C790.191 156.468 790.627 156.273 791.108 156.19V156.115C790.473 155.962 789.965 155.622 789.583 155.095C789.202 154.568 789.013 153.963 789.017 153.279C789.013 152.628 789.185 152.047 789.534 151.537C789.886 151.022 790.369 150.618 790.983 150.324C791.597 150.029 792.296 149.882 793.08 149.882C793.855 149.882 794.548 150.031 795.158 150.33C795.771 150.624 796.255 151.029 796.607 151.543C796.96 152.053 797.138 152.632 797.142 153.279C797.138 153.963 796.943 154.568 796.557 155.095C796.172 155.622 795.67 155.962 795.052 156.115V156.19C795.529 156.273 795.958 156.468 796.34 156.775C796.725 157.078 797.032 157.457 797.26 157.913C797.493 158.365 797.611 158.861 797.615 159.4C797.611 160.089 797.416 160.702 797.03 161.242C796.644 161.781 796.109 162.204 795.425 162.511C794.745 162.818 793.963 162.971 793.08 162.971ZM793.08 161.397C793.606 161.397 794.063 161.31 794.448 161.136C794.834 160.958 795.133 160.711 795.344 160.396C795.556 160.076 795.664 159.703 795.668 159.276C795.664 158.832 795.547 158.44 795.319 158.1C795.095 157.76 794.791 157.492 794.405 157.297C794.019 157.103 793.577 157.005 793.08 157.005C792.578 157.005 792.132 157.103 791.742 157.297C791.352 157.492 791.045 157.76 790.821 158.1C790.598 158.44 790.488 158.832 790.492 159.276C790.488 159.703 790.589 160.076 790.797 160.396C791.008 160.711 791.309 160.958 791.699 161.136C792.088 161.31 792.549 161.397 793.08 161.397ZM793.08 155.468C793.503 155.468 793.878 155.383 794.206 155.213C794.533 155.043 794.791 154.807 794.977 154.504C795.168 154.201 795.265 153.847 795.27 153.44C795.265 153.042 795.17 152.694 794.983 152.395C794.801 152.097 794.546 151.866 794.218 151.705C793.891 151.539 793.511 151.456 793.08 151.456C792.64 151.456 792.254 151.539 791.923 151.705C791.595 151.866 791.34 152.097 791.157 152.395C790.975 152.694 790.886 153.042 790.89 153.44C790.886 153.847 790.977 154.201 791.164 154.504C791.35 154.807 791.607 155.043 791.935 155.213C792.267 155.383 792.648 155.468 793.08 155.468ZM801.735 161.055L801.642 161.733C801.579 162.231 801.474 162.749 801.324 163.288C801.179 163.832 801.028 164.336 800.87 164.8C800.717 165.265 800.59 165.634 800.491 165.907H799.172C799.226 165.65 799.3 165.302 799.396 164.862C799.491 164.427 799.584 163.939 799.676 163.4C799.767 162.861 799.835 162.312 799.881 161.752L799.943 161.055H801.735ZM808.16 162.971C807.38 162.971 806.679 162.822 806.057 162.523C805.439 162.22 804.946 161.806 804.576 161.279C804.207 160.752 804.01 160.151 803.985 159.475H805.852C805.897 160.022 806.14 160.472 806.58 160.825C807.019 161.177 807.546 161.354 808.16 161.354C808.649 161.354 809.083 161.242 809.46 161.018C809.842 160.79 810.14 160.476 810.356 160.078C810.576 159.68 810.685 159.226 810.685 158.716C810.685 158.197 810.574 157.735 810.35 157.329C810.126 156.922 809.817 156.603 809.423 156.371C809.033 156.138 808.585 156.02 808.079 156.016C807.693 156.016 807.305 156.082 806.916 156.215C806.526 156.348 806.21 156.522 805.97 156.738L804.209 156.476L804.925 150.056H811.93V151.705H806.524L806.119 155.269H806.194C806.443 155.029 806.772 154.828 807.183 154.666C807.598 154.504 808.042 154.423 808.514 154.423C809.29 154.423 809.98 154.608 810.586 154.977C811.196 155.346 811.675 155.85 812.023 156.489C812.376 157.123 812.55 157.853 812.546 158.679C812.55 159.504 812.363 160.24 811.986 160.887C811.612 161.534 811.094 162.044 810.43 162.417C809.771 162.787 809.014 162.971 808.16 162.971Z" fill="#CFCFCF"/>
<defs>
<linearGradient id="paint0_linear_2466_763" x1="225.348" y1="223.435" x2="225.348" y2="296.695" gradientUnits="userSpaceOnUse">
<stop stop-color="#D9D9D9"/>
<stop offset="1" stop-color="#D9D9D9" stop-opacity="0"/>
</linearGradient>
<linearGradient id="paint1_linear_2466_763" x1="427.995" y1="472.681" x2="427.995" y2="545.941" gradientUnits="userSpaceOnUse">
<stop stop-color="#D9D9D9"/>
<stop offset="1" stop-color="#D9D9D9" stop-opacity="0"/>
</linearGradient>
<linearGradient id="paint2_linear_2466_763" x1="630.663" y1="177.648" x2="630.663" y2="296.695" gradientUnits="userSpaceOnUse">
<stop stop-color="#04B34A"/>
<stop offset="0.0666667" stop-color="#04B34A" stop-opacity="0.991353"/>
<stop offset="0.133333" stop-color="#04B34A" stop-opacity="0.96449"/>
<stop offset="0.2" stop-color="#04B34A" stop-opacity="0.91834"/>
<stop offset="0.266667" stop-color="#04B34A" stop-opacity="0.852589"/>
<stop offset="0.333333" stop-color="#04B34A" stop-opacity="0.768225"/>
<stop offset="0.4" stop-color="#04B34A" stop-opacity="0.668116"/>
<stop offset="0.466667" stop-color="#04B34A" stop-opacity="0.557309"/>
<stop offset="0.533333" stop-color="#04B34A" stop-opacity="0.442691"/>
<stop offset="0.6" stop-color="#04B34A" stop-opacity="0.331884"/>
<stop offset="0.666667" stop-color="#04B34A" stop-opacity="0.231775"/>
<stop offset="0.733333" stop-color="#04B34A" stop-opacity="0.147411"/>
<stop offset="0.8" stop-color="#04B34A" stop-opacity="0.0816599"/>
<stop offset="0.866667" stop-color="#04B34A" stop-opacity="0.03551"/>
<stop offset="0.933333" stop-color="#04B34A" stop-opacity="0.01"/>
<stop offset="1" stop-color="#04B34A" stop-opacity="0"/>
</linearGradient>
</defs>
</svg>
