<svg width="860" height="614" viewBox="0 0 860 614" fill="none" xmlns="http://www.w3.org/2000/svg">
<rect width="860" height="614" fill="white"/>
<path d="M729.079 39.0156L726.948 51.6472H729.321L727.959 59.7193H723.569L724.219 55.873H712.948L712.298 59.7193H707.908L709.269 51.6472H710.953C711.722 50.6028 712.452 49.2249 713.275 46.3286L715.364 39.0156H729.081H729.079ZM723.502 43.2415H718.686L717.757 46.4943C716.949 49.3192 716.281 50.6005 715.606 51.6472H722.086L723.502 43.2415Z" fill="#EAECEF"/>
<path d="M732.949 39.0156H743.391C747.069 39.0156 748.723 40.8905 748.265 43.598C747.972 45.3303 746.669 46.446 745.446 46.9451C746.782 47.4673 747.839 48.797 747.454 51.0767C746.966 53.9729 744.605 55.873 740.689 55.873H730.104L732.949 39.0156ZM736.013 49.1305L735.515 52.0751H740.309C741.59 52.0751 742.382 51.6012 742.55 50.6028C742.723 49.5814 742.087 49.1305 740.804 49.1305H736.011H736.013ZM737.077 42.8159L736.653 45.3326H741.375C742.373 45.3326 743.073 44.976 743.225 44.0742C743.377 43.1725 742.797 42.8159 741.799 42.8159H737.077Z" fill="#EAECEF"/>
<path d="M751.282 39.0156H756.147L754.433 49.1765L763.573 39.0156H768.438L765.596 55.873H760.731L762.438 45.7581L753.304 55.873H748.439L751.282 39.0156Z" fill="#EAECEF"/>
<path d="M775.671 47.1361L769.945 39.0156H775.45L780.22 45.9008L781.384 39.0156H786.011L784.85 45.9008L791.945 39.0156H797.333L789.093 46.9221L794.845 55.873H788.983L784.383 48.6797L783.169 55.873H778.541L779.755 48.6797L772.727 55.873H767.079L775.673 47.1361H775.671Z" fill="#EAECEF"/>
<path d="M804.439 39.0156H798.791L804.413 46.9221L796.068 55.873H801.716L810.061 46.9221L804.439 39.0156ZM813.367 39.0156H807.719L813.342 46.9221L804.996 55.873H810.644L818.99 46.9221L813.367 39.0156ZM822.525 39.0156H816.877L822.5 46.9221L814.155 55.873H819.803L828.148 46.9221L822.525 39.0156Z" fill="#EAECEF"/>
<path d="M32.5336 64.8804V56.3395H33.9486C34.4305 55.9934 34.8716 55.5047 35.272 54.8736C35.6724 54.2356 36.0152 53.3568 36.3002 52.237C36.5852 51.1104 36.7888 49.6377 36.911 47.8189L37.5014 39.0031H51.2952V56.3395H53.5755V64.8601H49.3407V59.8516H36.7685V64.8804H32.5336ZM39.0386 56.3395H47.0604V42.6373H41.4716L41.1458 47.8189C41.0576 49.1966 40.9117 50.4182 40.7081 51.4837C40.5113 52.5492 40.2704 53.4823 39.9853 54.2831C39.7071 55.0772 39.3915 55.7626 39.0386 56.3395ZM62.0921 60.157C60.5109 60.157 59.1434 59.821 57.9896 59.1491C56.8427 58.4705 55.957 57.5271 55.3327 56.3191C54.7083 55.1043 54.3961 53.6961 54.3961 52.0945C54.3961 50.4792 54.7083 49.0676 55.3327 47.8596C55.957 46.6448 56.8427 45.7015 57.9896 45.0296C59.1434 44.3509 60.5109 44.0116 62.0921 44.0116C63.6734 44.0116 65.0375 44.3509 66.1845 45.0296C67.3382 45.7015 68.2272 46.6448 68.8516 47.8596C69.476 49.0676 69.7882 50.4792 69.7882 52.0945C69.7882 53.6961 69.476 55.1043 68.8516 56.3191C68.2272 57.5271 67.3382 58.4705 66.1845 59.1491C65.0375 59.821 63.6734 60.157 62.0921 60.157ZM62.1125 56.7976C62.8319 56.7976 63.4325 56.594 63.9144 56.1868C64.3962 55.7728 64.7593 55.2095 65.0036 54.4969C65.2547 53.7843 65.3803 52.9733 65.3803 52.0639C65.3803 51.1545 65.2547 50.3435 65.0036 49.6309C64.7593 48.9183 64.3962 48.355 63.9144 47.9411C63.4325 47.5271 62.8319 47.3201 62.1125 47.3201C61.3863 47.3201 60.7755 47.5271 60.2801 47.9411C59.7915 48.355 59.4216 48.9183 59.1705 49.6309C58.9262 50.3435 58.804 51.1545 58.804 52.0639C58.804 52.9733 58.9262 53.7843 59.1705 54.4969C59.4216 55.2095 59.7915 55.7728 60.2801 56.1868C60.7755 56.594 61.3863 56.7976 62.1125 56.7976ZM70.5451 59.8516L70.5248 56.4107H71.044C71.4104 56.4107 71.726 56.3225 71.9907 56.1461C72.2622 55.9628 72.4861 55.6676 72.6626 55.2604C72.839 54.8532 72.9781 54.3137 73.0799 53.6418C73.1817 52.9631 73.2496 52.1284 73.2835 51.1375L73.538 44.2152H85.4282V59.8516H81.2951V47.6255H77.437L77.1926 52.3999C77.1316 53.7097 76.9721 54.8363 76.7142 55.7796C76.4631 56.7229 76.1136 57.4966 75.6656 58.1006C75.2177 58.6978 74.6782 59.139 74.047 59.424C73.4159 59.709 72.6829 59.8516 71.8482 59.8516H70.5451ZM98.3527 44.2152V47.6255H91.8579V59.8516H87.6434V44.2152H98.3527ZM106.355 60.157C104.774 60.157 103.406 59.821 102.253 59.1491C101.106 58.4705 100.22 57.5271 99.5958 56.3191C98.9714 55.1043 98.6592 53.6961 98.6592 52.0945C98.6592 50.4792 98.9714 49.0676 99.5958 47.8596C100.22 46.6448 101.106 45.7015 102.253 45.0296C103.406 44.3509 104.774 44.0116 106.355 44.0116C107.937 44.0116 109.301 44.3509 110.448 45.0296C111.601 45.7015 112.49 46.6448 113.115 47.8596C113.739 49.0676 114.051 50.4792 114.051 52.0945C114.051 53.6961 113.739 55.1043 113.115 56.3191C112.49 57.5271 111.601 58.4705 110.448 59.1491C109.301 59.821 107.937 60.157 106.355 60.157ZM106.376 56.7976C107.095 56.7976 107.696 56.594 108.177 56.1868C108.659 55.7728 109.022 55.2095 109.267 54.4969C109.518 53.7843 109.643 52.9733 109.643 52.0639C109.643 51.1545 109.518 50.3435 109.267 49.6309C109.022 48.9183 108.659 48.355 108.177 47.9411C107.696 47.5271 107.095 47.3201 106.376 47.3201C105.649 47.3201 105.039 47.5271 104.543 47.9411C104.055 48.355 103.685 48.9183 103.434 49.6309C103.189 50.3435 103.067 51.1545 103.067 52.0639C103.067 52.9733 103.189 53.7843 103.434 54.4969C103.685 55.2095 104.055 55.7728 104.543 56.1868C105.039 56.594 105.649 56.7976 106.376 56.7976ZM115.724 59.8516V44.2152H122.392C124.32 44.2152 125.843 44.5817 126.963 45.3146C128.083 46.0476 128.643 47.0893 128.643 48.4399C128.643 49.2882 128.327 49.994 127.696 50.5573C127.065 51.1206 126.189 51.5006 125.07 51.6974C126.006 51.7653 126.804 51.9791 127.462 52.3388C128.127 52.6917 128.633 53.1498 128.979 53.7131C129.332 54.2764 129.508 54.9007 129.508 55.5862C129.508 56.4752 129.271 57.2387 128.795 57.8767C128.327 58.5146 127.638 59.0032 126.729 59.3426C125.826 59.6819 124.724 59.8516 123.42 59.8516H115.724ZM119.766 56.6042H123.42C124.024 56.6042 124.496 56.4616 124.835 56.1766C125.182 55.8848 125.355 55.4878 125.355 54.9856C125.355 54.4291 125.182 53.9913 124.835 53.6723C124.496 53.3534 124.024 53.1939 123.42 53.1939H119.766V56.6042ZM119.766 50.6489H122.484C122.918 50.6489 123.288 50.5878 123.594 50.4657C123.906 50.3367 124.143 50.1535 124.306 49.916C124.476 49.6784 124.561 49.3968 124.561 49.071C124.561 48.5892 124.367 48.2125 123.98 47.9411C123.594 47.6696 123.064 47.5339 122.392 47.5339H119.766V50.6489ZM135.554 60.1468C134.556 60.1468 133.667 59.9737 132.886 59.6276C132.106 59.2747 131.488 58.7555 131.034 58.0701C130.586 57.3778 130.362 56.5159 130.362 55.4844C130.362 54.6157 130.521 53.8861 130.84 53.2957C131.159 52.7053 131.594 52.2302 132.143 51.8705C132.693 51.5108 133.317 51.2393 134.016 51.0561C134.722 50.8729 135.462 50.7439 136.236 50.6693C137.145 50.5743 137.878 50.486 138.434 50.4046C138.991 50.3164 139.395 50.1874 139.646 50.0178C139.897 49.8481 140.023 49.597 140.023 49.2644V49.2034C140.023 48.5586 139.819 48.0598 139.412 47.7069C139.011 47.354 138.441 47.1776 137.701 47.1776C136.921 47.1776 136.3 47.3506 135.839 47.6967C135.377 48.0361 135.072 48.4636 134.922 48.9794L130.911 48.6536C131.115 47.7035 131.515 46.8823 132.113 46.1901C132.71 45.4911 133.48 44.9549 134.424 44.5817C135.374 44.2016 136.473 44.0116 137.722 44.0116C138.591 44.0116 139.422 44.1134 140.216 44.317C141.017 44.5206 141.726 44.8362 142.344 45.2637C142.968 45.6913 143.46 46.241 143.82 46.9129C144.179 47.578 144.359 48.3754 144.359 49.3052V59.8516H140.246V57.6832H140.124C139.873 58.1719 139.537 58.6028 139.117 58.9761C138.696 59.3426 138.19 59.631 137.6 59.8414C137.009 60.045 136.327 60.1468 135.554 60.1468ZM136.795 57.1539C137.433 57.1539 137.997 57.0283 138.485 56.7772C138.974 56.5193 139.357 56.1732 139.636 55.7389C139.914 55.3045 140.053 54.8125 140.053 54.2628V52.6035C139.917 52.6917 139.731 52.7731 139.493 52.8478C139.262 52.9156 139.001 52.9801 138.709 53.0412C138.417 53.0955 138.126 53.1464 137.834 53.1939C137.542 53.2346 137.277 53.2719 137.04 53.3059C136.531 53.3805 136.086 53.4993 135.706 53.6622C135.326 53.825 135.031 54.0456 134.821 54.3239C134.61 54.5953 134.505 54.9347 134.505 55.3419C134.505 55.9323 134.719 56.3836 135.146 56.6958C135.581 57.0012 136.13 57.1539 136.795 57.1539ZM155.739 59.8516V47.6153H152.807C152.013 47.6153 151.409 47.7985 150.995 48.165C150.581 48.5315 150.377 48.9658 150.384 49.468C150.377 49.977 150.574 50.408 150.975 50.7609C151.382 51.107 151.979 51.2801 152.766 51.2801H157.184V54.2119H152.766C151.429 54.2119 150.272 54.0083 149.295 53.6011C148.318 53.1939 147.564 52.6272 147.035 51.901C146.506 51.1681 146.244 50.3164 146.251 49.3459C146.244 48.3279 146.506 47.4354 147.035 46.6686C147.564 45.8949 148.321 45.2943 149.305 44.8667C150.296 44.4324 151.463 44.2152 152.807 44.2152H159.78V59.8516H155.739ZM145.803 59.8516L150.15 51.7076H154.293L149.957 59.8516H145.803ZM178.374 50.3028V53.7131H170.209V50.3028H178.374ZM171.635 44.2152V59.8516H167.491V44.2152H171.635ZM181.092 44.2152V59.8516H176.979V44.2152H181.092ZM187.768 60.1468C186.771 60.1468 185.882 59.9737 185.101 59.6276C184.321 59.2747 183.703 58.7555 183.248 58.0701C182.8 57.3778 182.577 56.5159 182.577 55.4844C182.577 54.6157 182.736 53.8861 183.055 53.2957C183.374 52.7053 183.808 52.2302 184.358 51.8705C184.908 51.5108 185.532 51.2393 186.231 51.0561C186.937 50.8729 187.677 50.7439 188.45 50.6693C189.36 50.5743 190.093 50.486 190.649 50.4046C191.206 50.3164 191.61 50.1874 191.861 50.0178C192.112 49.8481 192.237 49.597 192.237 49.2644V49.2034C192.237 48.5586 192.034 48.0598 191.626 47.7069C191.226 47.354 190.656 47.1776 189.916 47.1776C189.136 47.1776 188.515 47.3506 188.053 47.6967C187.592 48.0361 187.286 48.4636 187.137 48.9794L183.126 48.6536C183.33 47.7035 183.73 46.8823 184.327 46.1901C184.925 45.4911 185.695 44.9549 186.638 44.5817C187.588 44.2016 188.688 44.0116 189.937 44.0116C190.805 44.0116 191.637 44.1134 192.431 44.317C193.232 44.5206 193.941 44.8362 194.558 45.2637C195.183 45.6913 195.675 46.241 196.034 46.9129C196.394 47.578 196.574 48.3754 196.574 49.3052V59.8516H192.461V57.6832H192.339C192.088 58.1719 191.752 58.6028 191.331 58.9761C190.91 59.3426 190.405 59.631 189.814 59.8414C189.224 60.045 188.542 60.1468 187.768 60.1468ZM189.01 57.1539C189.648 57.1539 190.211 57.0283 190.7 56.7772C191.189 56.5193 191.572 56.1732 191.85 55.7389C192.129 55.3045 192.268 54.8125 192.268 54.2628V52.6035C192.132 52.6917 191.945 52.7731 191.708 52.8478C191.477 52.9156 191.216 52.9801 190.924 53.0412C190.632 53.0955 190.34 53.1464 190.049 53.1939C189.757 53.2346 189.492 53.2719 189.255 53.3059C188.746 53.3805 188.301 53.4993 187.921 53.6622C187.541 53.825 187.246 54.0456 187.035 54.3239C186.825 54.5953 186.72 54.9347 186.72 55.3419C186.72 55.9323 186.934 56.3836 187.361 56.6958C187.795 57.0012 188.345 57.1539 189.01 57.1539ZM209.501 44.2152V47.6255H203.006V59.8516H198.792V44.2152H209.501ZM210.999 65.7152V44.2152H215.274V46.8416H215.468C215.658 46.4208 215.932 45.9933 216.292 45.5589C216.659 45.1178 217.134 44.7513 217.717 44.4595C218.308 44.1609 219.041 44.0116 219.916 44.0116C221.056 44.0116 222.108 44.3102 223.072 44.9074C224.036 45.4979 224.806 46.3903 225.383 47.5848C225.96 48.7724 226.248 50.2621 226.248 52.0537C226.248 53.7979 225.966 55.2706 225.403 56.4718C224.847 57.6663 224.087 58.5723 223.123 59.1899C222.166 59.8007 221.094 60.1061 219.906 60.1061C219.064 60.1061 218.348 59.9669 217.758 59.6887C217.174 59.4104 216.696 59.0609 216.323 58.6402C215.949 58.2126 215.664 57.7816 215.468 57.3473H215.335V65.7152H210.999ZM215.244 52.0334C215.244 52.9631 215.373 53.7741 215.63 54.4664C215.888 55.1586 216.262 55.6982 216.75 56.085C217.239 56.465 217.833 56.6551 218.532 56.6551C219.238 56.6551 219.835 56.4616 220.323 56.0748C220.812 55.6812 221.182 55.1383 221.433 54.446C221.691 53.747 221.82 52.9428 221.82 52.0334C221.82 51.1308 221.694 50.3367 221.443 49.6513C221.192 48.9658 220.822 48.4297 220.334 48.0429C219.845 47.656 219.244 47.4626 218.532 47.4626C217.826 47.4626 217.229 47.6492 216.74 48.0225C216.258 48.3958 215.888 48.9251 215.63 49.6106C215.373 50.296 215.244 51.1036 215.244 52.0334ZM230.166 65.7152C229.616 65.7152 229.1 65.6711 228.619 65.5829C228.144 65.5014 227.75 65.3962 227.438 65.2673L228.415 62.0301C228.924 62.1862 229.382 62.271 229.789 62.2846C230.203 62.2981 230.56 62.2031 230.858 61.9995C231.164 61.7959 231.411 61.4498 231.601 60.9612L231.856 60.2995L226.247 44.2152H230.807L234.044 55.6982H234.207L237.475 44.2152H242.066L235.989 61.5414C235.697 62.383 235.3 63.1159 234.798 63.7403C234.302 64.3714 233.675 64.8567 232.915 65.196C232.154 65.5421 231.238 65.7152 230.166 65.7152ZM242.335 55.4233H246.539C246.559 55.9391 246.79 56.3463 247.231 56.6449C247.672 56.9435 248.242 57.0928 248.941 57.0928C249.647 57.0928 250.241 56.9299 250.723 56.6042C251.205 56.2716 251.446 55.7966 251.446 55.179C251.446 54.7989 251.351 54.4698 251.161 54.1915C250.971 53.9065 250.706 53.6825 250.367 53.5197C250.027 53.3568 249.634 53.2753 249.186 53.2753H246.936V50.4351H249.186C249.858 50.4351 250.373 50.279 250.733 49.9669C251.1 49.6547 251.283 49.2644 251.283 48.7962C251.283 48.2668 251.093 47.8426 250.713 47.5237C250.339 47.1979 249.834 47.035 249.196 47.035C248.551 47.035 248.015 47.181 247.587 47.4728C247.167 47.7578 246.95 48.1311 246.936 48.5926H242.752C242.766 47.656 243.047 46.845 243.597 46.1596C244.153 45.4741 244.9 44.9448 245.837 44.5715C246.78 44.1982 247.835 44.0116 249.002 44.0116C250.278 44.0116 251.378 44.1914 252.301 44.5511C253.231 44.904 253.943 45.4096 254.439 46.0679C254.941 46.7262 255.192 47.5101 255.192 48.4195C255.192 49.2475 254.92 49.9397 254.377 50.4962C253.835 51.0527 253.074 51.4497 252.097 51.6873V51.8501C252.742 51.8909 253.326 52.0639 253.848 52.3693C254.371 52.6747 254.788 53.0955 255.1 53.6316C255.412 54.161 255.569 54.7887 255.569 55.5149C255.569 56.4854 255.283 57.3168 254.713 58.009C254.15 58.7012 253.37 59.234 252.372 59.6072C251.381 59.9737 250.244 60.157 248.962 60.157C247.713 60.157 246.593 59.9771 245.602 59.6174C244.618 59.2509 243.834 58.7148 243.251 58.009C242.674 57.3032 242.369 56.4413 242.335 55.4233ZM257.081 59.8516V44.2152H261.418V50.2824H262.64L266.895 44.2152H271.985L266.457 51.9723L272.046 59.8516H266.895L263.037 54.3035H261.418V59.8516H257.081ZM277.19 60.1468C276.193 60.1468 275.304 59.9737 274.523 59.6276C273.743 59.2747 273.125 58.7555 272.67 58.0701C272.223 57.3778 271.999 56.5159 271.999 55.4844C271.999 54.6157 272.158 53.8861 272.477 53.2957C272.796 52.7053 273.23 52.2302 273.78 51.8705C274.33 51.5108 274.954 51.2393 275.653 51.0561C276.359 50.8729 277.099 50.7439 277.872 50.6693C278.782 50.5743 279.515 50.486 280.071 50.4046C280.628 50.3164 281.032 50.1874 281.283 50.0178C281.534 49.8481 281.659 49.597 281.659 49.2644V49.2034C281.659 48.5586 281.456 48.0598 281.049 47.7069C280.648 47.354 280.078 47.1776 279.338 47.1776C278.558 47.1776 277.937 47.3506 277.475 47.6967C277.014 48.0361 276.709 48.4636 276.559 48.9794L272.548 48.6536C272.752 47.7035 273.152 46.8823 273.75 46.1901C274.347 45.4911 275.117 44.9549 276.06 44.5817C277.011 44.2016 278.11 44.0116 279.359 44.0116C280.227 44.0116 281.059 44.1134 281.853 44.317C282.654 44.5206 283.363 44.8362 283.98 45.2637C284.605 45.6913 285.097 46.241 285.456 46.9129C285.816 47.578 285.996 48.3754 285.996 49.3052V59.8516H281.883V57.6832H281.761C281.51 58.1719 281.174 58.6028 280.753 58.9761C280.333 59.3426 279.827 59.631 279.237 59.8414C278.646 60.045 277.964 60.1468 277.19 60.1468ZM278.432 57.1539C279.07 57.1539 279.634 57.0283 280.122 56.7772C280.611 56.5193 280.994 56.1732 281.273 55.7389C281.551 55.3045 281.69 54.8125 281.69 54.2628V52.6035C281.554 52.6917 281.368 52.7731 281.13 52.8478C280.899 52.9156 280.638 52.9801 280.346 53.0412C280.054 53.0955 279.762 53.1464 279.471 53.1939C279.179 53.2346 278.914 53.2719 278.677 53.3059C278.168 53.3805 277.723 53.4993 277.343 53.6622C276.963 53.825 276.668 54.0456 276.457 54.3239C276.247 54.5953 276.142 54.9347 276.142 55.3419C276.142 55.9323 276.356 56.3836 276.783 56.6958C277.218 57.0012 277.767 57.1539 278.432 57.1539Z" fill="black"/>
<rect x="31.8516" y="98.7422" width="390.981" height="234.907" rx="15.9259" fill="#F7F7F7"/>
<g opacity="0.6">
<path d="M48.5754 123.886C47.7372 123.886 47.0178 123.674 46.4172 123.25C45.82 122.822 45.3602 122.206 45.0378 121.402C44.7189 120.594 44.5594 119.622 44.5594 118.486C44.5628 117.349 44.724 116.382 45.0429 115.584C45.3653 114.783 45.8251 114.173 46.4223 113.752C47.0229 113.331 47.7406 113.121 48.5754 113.121C49.4101 113.121 50.1278 113.331 50.7284 113.752C51.329 114.173 51.7888 114.783 52.1078 115.584C52.4302 116.385 52.5914 117.352 52.5914 118.486C52.5914 119.626 52.4302 120.6 52.1078 121.407C51.7888 122.211 51.329 122.826 50.7284 123.25C50.1312 123.674 49.4135 123.886 48.5754 123.886ZM48.5754 122.293C49.2269 122.293 49.741 121.972 50.1176 121.331C50.4977 120.686 50.6877 119.738 50.6877 118.486C50.6877 117.658 50.6012 116.962 50.4281 116.399C50.2551 115.835 50.0107 115.411 49.6952 115.126C49.3796 114.838 49.0063 114.694 48.5754 114.694C47.9273 114.694 47.4149 115.016 47.0382 115.661C46.6615 116.302 46.4715 117.244 46.4681 118.486C46.4647 119.317 46.5479 120.016 46.7175 120.583C46.8906 121.149 47.1349 121.577 47.4505 121.865C47.7661 122.15 48.141 122.293 48.5754 122.293ZM60.4749 117.717V119.234H55.782V117.717H60.4749ZM67.4691 123.83C66.7361 123.83 66.0846 123.704 65.5145 123.453C64.9478 123.202 64.4999 122.853 64.1708 122.405C63.8416 121.957 63.6669 121.439 63.6465 120.852H65.5603C65.5773 121.134 65.6706 121.38 65.8403 121.59C66.0099 121.797 66.2356 121.959 66.5172 122.074C66.7989 122.189 67.1145 122.247 67.464 122.247C67.8372 122.247 68.1681 122.183 68.4565 122.054C68.7449 121.921 68.9706 121.738 69.1335 121.504C69.2964 121.27 69.3761 121 69.3727 120.695C69.3761 120.379 69.2947 120.101 69.1284 119.86C68.9621 119.619 68.7212 119.431 68.4056 119.295C68.0934 119.159 67.7168 119.091 67.2756 119.091H66.3544V117.636H67.2756C67.6387 117.636 67.956 117.573 68.2275 117.447C68.5023 117.322 68.7178 117.145 68.8739 116.918C69.03 116.687 69.1063 116.421 69.1029 116.119C69.1063 115.824 69.0402 115.567 68.9044 115.35C68.7721 115.13 68.5838 114.958 68.3394 114.836C68.0985 114.714 67.8152 114.653 67.4894 114.653C67.1704 114.653 66.8752 114.711 66.6038 114.826C66.3323 114.941 66.1134 115.106 65.9472 115.32C65.7809 115.53 65.6927 115.781 65.6825 116.073H63.8654C63.8789 115.489 64.0469 114.977 64.3693 114.536C64.695 114.091 65.1294 113.745 65.6723 113.497C66.2152 113.246 66.8243 113.121 67.4996 113.121C68.1952 113.121 68.7992 113.251 69.3116 113.513C69.8274 113.771 70.2261 114.118 70.5078 114.556C70.7894 114.994 70.9302 115.477 70.9302 116.007C70.9336 116.594 70.7606 117.086 70.4111 117.483C70.0649 117.88 69.6102 118.139 69.0469 118.262V118.343C69.7799 118.445 70.3415 118.716 70.7317 119.157C71.1253 119.595 71.3205 120.14 71.3171 120.791C71.3171 121.375 71.1508 121.898 70.8183 122.359C70.4891 122.817 70.0344 123.177 69.4541 123.438C68.8773 123.699 68.2156 123.83 67.4691 123.83ZM78.3506 123.886C77.5125 123.886 76.7931 123.674 76.1925 123.25C75.5953 122.822 75.1355 122.206 74.8131 121.402C74.4941 120.594 74.3346 119.622 74.3346 118.486C74.338 117.349 74.4992 116.382 74.8182 115.584C75.1406 114.783 75.6004 114.173 76.1976 113.752C76.7982 113.331 77.5159 113.121 78.3506 113.121C79.1854 113.121 79.9031 113.331 80.5037 113.752C81.1043 114.173 81.5641 114.783 81.8831 115.584C82.2054 116.385 82.3666 117.352 82.3666 118.486C82.3666 119.626 82.2054 120.6 81.8831 121.407C81.5641 122.211 81.1043 122.826 80.5037 123.25C79.9065 123.674 79.1888 123.886 78.3506 123.886ZM78.3506 122.293C79.0021 122.293 79.5162 121.972 79.8929 121.331C80.2729 120.686 80.463 119.738 80.463 118.486C80.463 117.658 80.3764 116.962 80.2034 116.399C80.0303 115.835 79.786 115.411 79.4704 115.126C79.1548 114.838 78.7816 114.694 78.3506 114.694C77.7025 114.694 77.1901 115.016 76.8135 115.661C76.4368 116.302 76.2468 117.244 76.2434 118.486C76.24 119.317 76.3231 120.016 76.4928 120.583C76.6659 121.149 76.9102 121.577 77.2257 121.865C77.5413 122.15 77.9163 122.293 78.3506 122.293ZM91.0646 121.733V121.183C91.0646 120.779 91.1494 120.408 91.3191 120.069C91.4921 119.729 91.7433 119.456 92.0724 119.249C92.4016 119.042 92.8003 118.939 93.2685 118.939C93.7504 118.939 94.1542 119.042 94.48 119.249C94.8057 119.453 95.0517 119.724 95.218 120.063C95.3877 120.403 95.4725 120.776 95.4725 121.183V121.733C95.4725 122.137 95.3877 122.508 95.218 122.848C95.0483 123.187 94.7989 123.46 94.4698 123.667C94.144 123.874 93.7436 123.978 93.2685 123.978C92.7935 123.978 92.3914 123.874 92.0622 123.667C91.7331 123.46 91.4837 123.187 91.314 122.848C91.1477 122.508 91.0646 122.137 91.0646 121.733ZM92.3931 121.183V121.733C92.3931 122.001 92.4575 122.247 92.5865 122.471C92.7154 122.695 92.9428 122.807 93.2685 122.807C93.5977 122.807 93.8233 122.697 93.9455 122.476C94.0711 122.252 94.1338 122.004 94.1338 121.733V121.183C94.1338 120.912 94.0745 120.664 93.9557 120.44C93.8369 120.213 93.6079 120.099 93.2685 120.099C92.9496 120.099 92.7239 120.213 92.5916 120.44C92.4592 120.664 92.3931 120.912 92.3931 121.183ZM85.7659 115.768V115.218C85.7659 114.811 85.8525 114.437 86.0255 114.098C86.1986 113.759 86.4497 113.487 86.7788 113.284C87.108 113.077 87.5067 112.973 87.975 112.973C88.4534 112.973 88.8555 113.077 89.1813 113.284C89.5105 113.487 89.7582 113.759 89.9244 114.098C90.0907 114.437 90.1738 114.811 90.1738 115.218V115.768C90.1738 116.175 90.089 116.548 89.9193 116.887C89.7531 117.223 89.5054 117.493 89.1762 117.697C88.8471 117.9 88.4467 118.002 87.975 118.002C87.4965 118.002 87.0927 117.9 86.7636 117.697C86.4378 117.493 86.1901 117.222 86.0204 116.882C85.8508 116.543 85.7659 116.171 85.7659 115.768ZM87.1046 115.218V115.768C87.1046 116.039 87.1674 116.287 87.2929 116.511C87.4219 116.731 87.6492 116.842 87.975 116.842C88.3007 116.842 88.5247 116.731 88.6469 116.511C88.7724 116.287 88.8352 116.039 88.8352 115.768V115.218C88.8352 114.946 88.7758 114.699 88.657 114.475C88.5383 114.247 88.3109 114.134 87.975 114.134C87.6526 114.134 87.427 114.247 87.298 114.475C87.1691 114.702 87.1046 114.95 87.1046 115.218ZM86.3462 123.688L93.5129 113.263H94.7854L87.6187 123.688H86.3462Z" fill="#FF0000"/>
<path d="M103.432 126.202V122.145H104.129C104.363 121.959 104.582 121.696 104.786 121.356C104.989 121.017 105.162 120.552 105.305 119.962C105.447 119.371 105.546 118.608 105.6 117.671L105.875 113.263H112.538V122.145H113.698V126.192H111.886V123.688H105.244V126.202H103.432ZM106.328 122.145H110.726V114.846H107.575L107.412 117.671C107.368 118.38 107.297 119.015 107.198 119.575C107.1 120.135 106.976 120.628 106.827 121.056C106.677 121.48 106.511 121.843 106.328 122.145ZM125.985 118.475C125.985 119.599 125.774 120.561 125.353 121.361C124.936 122.159 124.366 122.77 123.643 123.194C122.924 123.618 122.108 123.83 121.195 123.83C120.282 123.83 119.464 123.618 118.742 123.194C118.022 122.766 117.452 122.154 117.031 121.356C116.614 120.555 116.405 119.595 116.405 118.475C116.405 117.352 116.614 116.392 117.031 115.594C117.452 114.794 118.022 114.181 118.742 113.757C119.464 113.333 120.282 113.121 121.195 113.121C122.108 113.121 122.924 113.333 123.643 113.757C124.366 114.181 124.936 114.794 125.353 115.594C125.774 116.392 125.985 117.352 125.985 118.475ZM124.086 118.475C124.086 117.685 123.962 117.018 123.714 116.475C123.47 115.929 123.131 115.516 122.696 115.238C122.262 114.957 121.762 114.816 121.195 114.816C120.628 114.816 120.128 114.957 119.693 115.238C119.259 115.516 118.918 115.929 118.67 116.475C118.426 117.018 118.304 117.685 118.304 118.475C118.304 119.266 118.426 119.935 118.67 120.481C118.918 121.024 119.259 121.436 119.693 121.718C120.128 121.996 120.628 122.135 121.195 122.135C121.762 122.135 122.262 121.996 122.696 121.718C123.131 121.436 123.47 121.024 123.714 120.481C123.962 119.935 124.086 119.266 124.086 118.475ZM130.403 113.263L132.699 117.081H132.78L135.086 113.263H137.239L134.027 118.475L137.29 123.688H135.101L132.78 119.895H132.699L130.378 123.688H128.199L131.492 118.475L128.24 113.263H130.403ZM149.091 118.475C149.091 119.599 148.881 120.561 148.46 121.361C148.043 122.159 147.473 122.77 146.75 123.194C146.031 123.618 145.215 123.83 144.302 123.83C143.389 123.83 142.571 123.618 141.848 123.194C141.129 122.766 140.559 122.154 140.138 121.356C139.721 120.555 139.512 119.595 139.512 118.475C139.512 117.352 139.721 116.392 140.138 115.594C140.559 114.794 141.129 114.181 141.848 113.757C142.571 113.333 143.389 113.121 144.302 113.121C145.215 113.121 146.031 113.333 146.75 113.757C147.473 114.181 148.043 114.794 148.46 115.594C148.881 116.392 149.091 117.352 149.091 118.475ZM147.193 118.475C147.193 117.685 147.069 117.018 146.821 116.475C146.577 115.929 146.238 115.516 145.803 115.238C145.369 114.957 144.868 114.816 144.302 114.816C143.735 114.816 143.235 114.957 142.8 115.238C142.366 115.516 142.025 115.929 141.777 116.475C141.533 117.018 141.411 117.685 141.411 118.475C141.411 119.266 141.533 119.935 141.777 120.481C142.025 121.024 142.366 121.436 142.8 121.718C143.235 121.996 143.735 122.135 144.302 122.135C144.868 122.135 145.369 121.996 145.803 121.718C146.238 121.436 146.577 121.024 146.821 120.481C147.069 119.935 147.193 119.266 147.193 118.475ZM151.633 126.202V122.145H152.33C152.565 121.959 152.783 121.696 152.987 121.356C153.191 121.017 153.364 120.552 153.506 119.962C153.649 119.371 153.747 118.608 153.801 117.671L154.076 113.263H160.739V122.145H161.9V126.192H160.088V123.688H153.445V126.202H151.633ZM154.529 122.145H158.927V114.846H155.776L155.613 117.671C155.569 118.38 155.498 119.015 155.4 119.575C155.301 120.135 155.177 120.628 155.028 121.056C154.879 121.48 154.713 121.843 154.529 122.145ZM166.21 123.688H164.194L167.864 113.263H170.195L173.87 123.688H171.855L169.071 115.401H168.989L166.21 123.688ZM166.276 119.6H171.773V121.117H166.276V119.6Z" fill="black"/>
</g>
<path opacity="0.4" d="M406.9 296.695H43.7959V193.574L227.342 241.75C227.342 241.75 404.787 238.251 406.9 238.168V238.167C406.925 238.167 406.925 238.167 406.9 238.168V296.695Z" fill="url(#paint0_linear_2466_909)"/>
<rect x="403.075" y="233.391" width="8.17935" height="8.17935" rx="4.08967" fill="#CACACA"/>
<path d="M405.713 238.167L231.439 241.295C229.331 241.333 227.229 241.082 225.189 240.549L43.7963 193.176" stroke="#CACACA" stroke-width="3.18518"/>
<path d="M292.669 284.801V304.197L285.435 296.935L282.259 300.084L294.963 312.762L307.641 300.084L304.519 296.935L297.257 304.197V284.801H292.669Z" fill="#CACACA"/>
<path d="M327.688 284.603C329.117 284.603 330.493 284.843 331.814 285.323C333.144 285.802 334.329 286.567 335.37 287.616C336.42 288.666 337.248 290.06 337.854 291.797C338.469 293.525 338.781 295.647 338.79 298.163C338.79 300.525 338.524 302.633 337.99 304.488C337.465 306.334 336.709 307.904 335.723 309.198C334.737 310.492 333.547 311.478 332.153 312.157C330.76 312.826 329.203 313.161 327.484 313.161C325.629 313.161 323.991 312.804 322.57 312.089C321.15 311.365 320.005 310.383 319.136 309.144C318.277 307.895 317.756 306.492 317.575 304.936H323.371C323.597 305.949 324.073 306.737 324.796 307.298C325.52 307.85 326.416 308.126 327.484 308.126C329.294 308.126 330.669 307.338 331.61 305.764C332.551 304.18 333.026 302.013 333.035 299.262H332.845C332.429 300.077 331.868 300.778 331.162 301.366C330.456 301.945 329.647 302.393 328.733 302.71C327.828 303.027 326.864 303.185 325.842 303.185C324.204 303.185 322.742 302.8 321.457 302.031C320.173 301.262 319.159 300.203 318.417 298.855C317.675 297.507 317.304 295.969 317.304 294.24C317.295 292.376 317.725 290.716 318.593 289.259C319.462 287.802 320.675 286.662 322.231 285.838C323.797 285.006 325.615 284.594 327.688 284.603ZM327.728 289.218C326.814 289.218 326 289.435 325.285 289.87C324.579 290.304 324.018 290.888 323.602 291.621C323.195 292.354 322.996 293.172 323.005 294.077C323.005 294.991 323.204 295.815 323.602 296.548C324.009 297.272 324.561 297.851 325.258 298.285C325.964 298.71 326.769 298.923 327.674 298.923C328.353 298.923 328.982 298.796 329.561 298.543C330.14 298.29 330.642 297.941 331.067 297.498C331.502 297.045 331.841 296.525 332.085 295.937C332.33 295.349 332.452 294.724 332.452 294.064C332.443 293.186 332.235 292.381 331.827 291.648C331.42 290.915 330.859 290.327 330.144 289.883C329.429 289.44 328.624 289.218 327.728 289.218ZM347.689 308.981L347.54 310.474C347.422 311.668 347.196 312.858 346.861 314.044C346.536 315.238 346.192 316.319 345.83 317.288C345.477 318.256 345.192 319.016 344.975 319.568H341.229C341.364 319.034 341.55 318.287 341.785 317.328C342.02 316.378 342.242 315.31 342.45 314.125C342.658 312.94 342.789 311.732 342.844 310.501L342.912 308.981H347.689ZM352.53 312.781V308.546L362.425 299.384C363.266 298.57 363.972 297.837 364.542 297.186C365.121 296.534 365.56 295.896 365.859 295.272C366.157 294.638 366.307 293.955 366.307 293.222C366.307 292.408 366.121 291.707 365.75 291.118C365.379 290.521 364.873 290.064 364.23 289.747C363.588 289.422 362.859 289.259 362.045 289.259C361.194 289.259 360.452 289.431 359.819 289.775C359.185 290.118 358.697 290.612 358.353 291.254C358.009 291.897 357.837 292.661 357.837 293.548H352.258C352.258 291.729 352.67 290.15 353.494 288.811C354.317 287.472 355.471 286.436 356.955 285.703C358.439 284.97 360.149 284.603 362.086 284.603C364.076 284.603 365.809 284.956 367.284 285.662C368.768 286.359 369.922 287.327 370.745 288.567C371.569 289.806 371.98 291.227 371.98 292.829C371.98 293.878 371.772 294.914 371.356 295.937C370.949 296.959 370.22 298.095 369.171 299.344C368.121 300.583 366.642 302.072 364.732 303.809L360.674 307.786V307.976H372.347V312.781H352.53ZM391.429 307.569V306.103C391.429 304.99 391.664 303.968 392.135 303.036C392.615 302.095 393.307 301.344 394.212 300.783C395.126 300.212 396.239 299.927 397.551 299.927C398.881 299.927 399.998 300.208 400.903 300.769C401.817 301.33 402.505 302.081 402.966 303.022C403.437 303.954 403.672 304.981 403.672 306.103V307.569C403.672 308.682 403.437 309.709 402.966 310.65C402.496 311.582 401.804 312.329 400.89 312.89C399.976 313.46 398.863 313.745 397.551 313.745C396.221 313.745 395.103 313.46 394.198 312.89C393.293 312.329 392.605 311.582 392.135 310.65C391.664 309.709 391.429 308.682 391.429 307.569ZM395.379 306.103V307.569C395.379 308.212 395.533 308.818 395.84 309.388C396.157 309.958 396.727 310.243 397.551 310.243C398.374 310.243 398.935 309.963 399.234 309.402C399.541 308.84 399.695 308.23 399.695 307.569V306.103C399.695 305.443 399.55 304.827 399.261 304.257C398.971 303.687 398.401 303.402 397.551 303.402C396.736 303.402 396.171 303.687 395.854 304.257C395.537 304.827 395.379 305.443 395.379 306.103ZM377.164 291.661V290.195C377.164 289.073 377.403 288.046 377.883 287.114C378.363 286.173 379.055 285.422 379.96 284.861C380.874 284.3 381.978 284.02 383.272 284.02C384.611 284.02 385.733 284.3 386.638 284.861C387.543 285.422 388.23 286.173 388.701 287.114C389.171 288.046 389.407 289.073 389.407 290.195V291.661C389.407 292.783 389.167 293.81 388.687 294.742C388.217 295.674 387.525 296.421 386.611 296.982C385.706 297.534 384.593 297.81 383.272 297.81C381.951 297.81 380.833 297.529 379.919 296.968C379.014 296.398 378.326 295.652 377.856 294.729C377.394 293.797 377.164 292.774 377.164 291.661ZM381.141 290.195V291.661C381.141 292.322 381.294 292.933 381.602 293.494C381.919 294.055 382.475 294.335 383.272 294.335C384.104 294.335 384.67 294.055 384.968 293.494C385.276 292.933 385.43 292.322 385.43 291.661V290.195C385.43 289.535 385.285 288.92 384.995 288.349C384.706 287.779 384.131 287.494 383.272 287.494C382.466 287.494 381.91 287.784 381.602 288.363C381.294 288.942 381.141 289.553 381.141 290.195ZM378.955 312.781L398.066 284.983H401.623L382.512 312.781H378.955Z" fill="black"/>
<path d="M49.2269 182.084C48.4472 182.084 47.7463 181.935 47.1242 181.636C46.5062 181.334 46.0127 180.919 45.6436 180.392C45.2744 179.865 45.0774 179.264 45.0526 178.588H46.9189C46.9645 179.136 47.2071 179.586 47.6467 179.938C48.0864 180.291 48.6131 180.467 49.2269 180.467C49.7163 180.467 50.1497 180.355 50.5271 180.131C50.9086 179.903 51.2073 179.59 51.4229 179.192C51.6427 178.793 51.7526 178.339 51.7526 177.829C51.7526 177.311 51.6407 176.848 51.4167 176.442C51.1927 176.035 50.8838 175.716 50.4898 175.484C50.0999 175.252 49.652 175.133 49.146 175.129C48.7603 175.129 48.3725 175.196 47.9827 175.328C47.5928 175.461 47.2776 175.635 47.0371 175.851L45.2765 175.59L45.9919 169.169H52.9969V170.818H47.5907L47.1864 174.383H47.261C47.5099 174.142 47.8396 173.941 48.2502 173.779C48.6649 173.617 49.1087 173.537 49.5815 173.537C50.357 173.537 51.0476 173.721 51.6531 174.09C52.2628 174.459 52.7418 174.963 53.0902 175.602C53.4427 176.237 53.6169 176.966 53.6127 177.792C53.6169 178.617 53.4303 179.353 53.0528 180C52.6796 180.647 52.1612 181.157 51.4976 181.531C50.8381 181.9 50.0812 182.084 49.2269 182.084ZM60.1434 182.122C59.1605 182.118 58.3206 181.858 57.6238 181.344C56.9271 180.83 56.3942 180.081 56.025 179.098C55.6559 178.115 55.4714 176.931 55.4714 175.546C55.4714 174.165 55.6559 172.985 56.025 172.006C56.3983 171.027 56.9333 170.281 57.6301 169.767C58.331 169.252 59.1687 168.995 60.1434 168.995C61.118 168.995 61.9537 169.254 62.6505 169.773C63.3472 170.287 63.8802 171.034 64.2493 172.012C64.6225 172.987 64.8092 174.165 64.8092 175.546C64.8092 176.935 64.6246 178.122 64.2555 179.104C63.8864 180.083 63.3534 180.832 62.6567 181.35C61.9599 181.865 61.1222 182.122 60.1434 182.122ZM60.1434 180.461C61.006 180.461 61.68 180.04 62.1652 179.198C62.6546 178.356 62.8993 177.139 62.8993 175.546C62.8993 174.488 62.7873 173.595 62.5634 172.865C62.3436 172.131 62.0263 171.575 61.6116 171.197C61.201 170.816 60.7116 170.625 60.1434 170.625C59.2849 170.625 58.6109 171.048 58.1215 171.894C57.6321 172.74 57.3854 173.958 57.3812 175.546C57.3812 176.608 57.4911 177.506 57.7109 178.24C57.9349 178.97 58.2522 179.523 58.6628 179.901C59.0734 180.274 59.5669 180.461 60.1434 180.461ZM68.8218 180.168L68.7285 180.846C68.6663 181.344 68.5606 181.862 68.4113 182.402C68.2661 182.945 68.1147 183.449 67.9571 183.913C67.8037 184.378 67.6772 184.747 67.5776 185.021H66.2588C66.3127 184.764 66.3873 184.415 66.4827 183.976C66.5781 183.54 66.6714 183.053 66.7627 182.514C66.8539 181.974 66.9223 181.425 66.968 180.865L67.0302 180.168H68.8218ZM75.2203 182.084C74.3659 182.084 73.6028 181.937 72.9309 181.643C72.2632 181.348 71.7344 180.94 71.3446 180.417C70.9589 179.89 70.7515 179.281 70.7225 178.588H72.6759C72.7008 178.966 72.8273 179.293 73.0554 179.571C73.2876 179.845 73.5904 180.056 73.9636 180.206C74.3369 180.355 74.7516 180.43 75.2079 180.43C75.7097 180.43 76.1535 180.342 76.5392 180.168C76.929 179.994 77.2338 179.751 77.4537 179.44C77.6735 179.125 77.7834 178.762 77.7834 178.352C77.7834 177.925 77.6735 177.549 77.4537 177.226C77.238 176.898 76.9207 176.641 76.5018 176.454C76.0871 176.268 75.5853 176.174 74.9963 176.174H73.9201V174.607H74.9963C75.4691 174.607 75.8839 174.522 76.2405 174.352C76.6014 174.182 76.8834 173.945 77.0866 173.642C77.2898 173.335 77.3914 172.977 77.3914 172.566C77.3914 172.172 77.3023 171.83 77.1239 171.54C76.9497 171.245 76.7009 171.015 76.3774 170.849C76.0581 170.683 75.6807 170.6 75.2452 170.6C74.8304 170.6 74.4427 170.677 74.0818 170.83C73.7252 170.98 73.4348 171.195 73.2109 171.477C72.9869 171.755 72.8667 172.089 72.8501 172.479H70.99C71.0107 171.791 71.2139 171.185 71.5996 170.662C71.9895 170.14 72.5038 169.731 73.1425 169.437C73.7812 169.142 74.4904 168.995 75.2701 168.995C76.0871 168.995 76.7921 169.155 77.3852 169.474C77.9824 169.789 78.4428 170.21 78.7663 170.737C79.0939 171.264 79.2557 171.84 79.2515 172.467C79.2557 173.18 79.0566 173.785 78.6543 174.283C78.2562 174.781 77.7253 175.115 77.0617 175.285V175.384C77.9078 175.513 78.5631 175.849 79.0276 176.392C79.4962 176.935 79.7285 177.609 79.7243 178.414C79.7285 179.115 79.5336 179.743 79.1396 180.299C78.7497 180.855 78.2168 181.292 77.5407 181.612C76.8647 181.927 76.0912 182.084 75.2203 182.084Z" fill="#CFCFCF"/>
<path d="M378.144 222.422V220.866L383.649 212.169H384.875V214.459H384.097L380.159 220.692V220.792H387.706V222.422H378.144ZM384.185 224.91V221.949L384.197 221.24V212.169H386.02V224.91H384.185ZM394.359 212.169V224.91H392.431V214.098H392.356L389.308 216.089V214.247L392.487 212.169H394.359ZM399.338 223.168L399.244 223.846C399.182 224.344 399.076 224.862 398.927 225.402C398.782 225.945 398.631 226.449 398.473 226.913C398.319 227.378 398.193 227.747 398.093 228.021H396.775C396.828 227.764 396.903 227.415 396.999 226.976C397.094 226.54 397.187 226.053 397.278 225.514C397.37 224.974 397.438 224.425 397.484 223.865L397.546 223.168H399.338ZM405.056 212.169V224.91H403.128V214.098H403.053L400.005 216.089V214.247L403.184 212.169H405.056Z" fill="#CFCFCF"/>
<rect x="31.8516" y="347.984" width="796.296" height="234.907" rx="15.9259" fill="#F7F7F7"/>
<path opacity="0.6" d="M44.8241 372.93V362.505H51.5276V364.088H46.7124V366.532H48.723C49.5204 366.532 50.2042 366.662 50.7742 366.924C51.3477 367.181 51.7871 367.546 52.0925 368.018C52.3979 368.49 52.5506 369.044 52.5506 369.682C52.5506 370.324 52.3979 370.889 52.0925 371.377C51.7871 371.862 51.3477 372.243 50.7742 372.517C50.2042 372.792 49.5204 372.93 48.723 372.93H44.8241ZM46.7124 371.382H48.723C49.1438 371.382 49.5 371.303 49.7919 371.143C50.0837 370.984 50.3043 370.773 50.4536 370.512C50.6063 370.251 50.6826 369.967 50.6826 369.662C50.6826 369.221 50.513 368.846 50.1736 368.537C49.8377 368.225 49.3541 368.069 48.723 368.069H46.7124V371.382ZM64.9503 367.718C64.9503 368.841 64.7399 369.803 64.3191 370.604C63.9018 371.401 63.3317 372.012 62.6089 372.436C61.8895 372.86 61.0734 373.072 60.1606 373.072C59.2478 373.072 58.43 372.86 57.7073 372.436C56.9879 372.008 56.4178 371.396 55.997 370.598C55.5797 369.798 55.371 368.837 55.371 367.718C55.371 366.594 55.5797 365.634 55.997 364.837C56.4178 364.036 56.9879 363.423 57.7073 362.999C58.43 362.575 59.2478 362.363 60.1606 362.363C61.0734 362.363 61.8895 362.575 62.6089 362.999C63.3317 363.423 63.9018 364.036 64.3191 364.837C64.7399 365.634 64.9503 366.594 64.9503 367.718ZM63.0517 367.718C63.0517 366.927 62.9279 366.26 62.6802 365.717C62.4358 365.171 62.0965 364.759 61.6622 364.48C61.2278 364.199 60.7273 364.058 60.1606 364.058C59.594 364.058 59.0934 364.199 58.6591 364.48C58.2248 364.759 57.8837 365.171 57.636 365.717C57.3917 366.26 57.2695 366.927 57.2695 367.718C57.2695 368.508 57.3917 369.177 57.636 369.723C57.8837 370.266 58.2248 370.678 58.6591 370.96C59.0934 371.238 59.594 371.377 60.1606 371.377C60.7273 371.377 61.2278 371.238 61.6622 370.96C62.0965 370.678 62.4358 370.266 62.6802 369.723C62.9279 369.177 63.0517 368.508 63.0517 367.718ZM67.492 372.93V371.362L67.7872 371.347C68.1876 371.323 68.5049 371.179 68.739 370.914C68.9765 370.649 69.1513 370.224 69.2633 369.636C69.3786 369.049 69.455 368.262 69.4923 367.275L69.6654 362.505H76.4961V372.93H74.6484V364.058H71.4265L71.2636 367.86C71.2161 369 71.0906 369.945 70.887 370.695C70.6868 371.445 70.3576 372.005 69.8995 372.375C69.4448 372.745 68.812 372.93 68.001 372.93H67.492ZM79.9883 372.93V362.505H86.7682V364.088H81.8767V366.918H86.4169V368.501H81.8767V371.347H86.8089V372.93H79.9883ZM90.128 372.93V362.505H96.9079V364.088H92.0164V366.918H96.5567V368.501H92.0164V371.347H96.9486V372.93H90.128ZM108.972 373.072C108.473 373.069 107.986 372.982 107.511 372.813C107.036 372.64 106.609 372.36 106.229 371.973C105.849 371.583 105.547 371.065 105.323 370.42C105.099 369.772 104.988 368.97 104.992 368.013C104.992 367.12 105.087 366.325 105.277 365.626C105.467 364.927 105.74 364.336 106.096 363.854C106.453 363.369 106.882 362.999 107.384 362.745C107.89 362.49 108.455 362.363 109.079 362.363C109.734 362.363 110.314 362.492 110.82 362.75C111.329 363.008 111.739 363.361 112.052 363.808C112.364 364.253 112.557 364.755 112.632 365.315H110.774C110.679 364.915 110.484 364.596 110.189 364.358C109.897 364.117 109.527 363.997 109.079 363.997C108.356 363.997 107.8 364.311 107.409 364.938C107.023 365.566 106.828 366.428 106.824 367.524H106.895C107.062 367.226 107.277 366.969 107.542 366.756C107.806 366.542 108.105 366.377 108.438 366.262C108.774 366.143 109.128 366.084 109.501 366.084C110.112 366.084 110.66 366.23 111.146 366.521C111.634 366.813 112.021 367.215 112.306 367.728C112.591 368.237 112.732 368.82 112.728 369.479C112.732 370.164 112.576 370.78 112.26 371.326C111.945 371.869 111.505 372.297 110.942 372.609C110.379 372.921 109.722 373.076 108.972 373.072ZM108.962 371.545C109.332 371.545 109.663 371.455 109.954 371.275C110.246 371.096 110.477 370.853 110.647 370.548C110.816 370.242 110.899 369.899 110.896 369.519C110.899 369.146 110.818 368.809 110.652 368.507C110.489 368.205 110.263 367.965 109.975 367.789C109.686 367.612 109.357 367.524 108.987 367.524C108.713 367.524 108.456 367.577 108.219 367.682C107.981 367.787 107.774 367.933 107.598 368.12C107.421 368.303 107.282 368.517 107.18 368.761C107.082 369.002 107.031 369.26 107.028 369.535C107.031 369.898 107.116 370.232 107.282 370.537C107.448 370.843 107.678 371.087 107.969 371.27C108.261 371.454 108.592 371.545 108.962 371.545ZM119.735 373.128C118.897 373.128 118.178 372.916 117.577 372.492C116.98 372.064 116.52 371.449 116.198 370.644C115.879 369.837 115.719 368.865 115.719 367.728C115.723 366.591 115.884 365.624 116.203 364.826C116.525 364.026 116.985 363.415 117.582 362.994C118.183 362.573 118.901 362.363 119.735 362.363C120.57 362.363 121.288 362.573 121.888 362.994C122.489 363.415 122.949 364.026 123.268 364.826C123.59 365.627 123.751 366.594 123.751 367.728C123.751 368.868 123.59 369.842 123.268 370.649C122.949 371.454 122.489 372.068 121.888 372.492C121.291 372.916 120.573 373.128 119.735 373.128ZM119.735 371.535C120.387 371.535 120.901 371.214 121.278 370.573C121.658 369.928 121.848 368.98 121.848 367.728C121.848 366.9 121.761 366.204 121.588 365.641C121.415 365.078 121.171 364.653 120.855 364.368C120.54 364.08 120.166 363.936 119.735 363.936C119.087 363.936 118.575 364.258 118.198 364.903C117.821 365.544 117.631 366.486 117.628 367.728C117.625 368.559 117.708 369.258 117.877 369.825C118.051 370.391 118.295 370.819 118.61 371.107C118.926 371.393 119.301 371.535 119.735 371.535ZM132.449 370.975V370.425C132.449 370.022 132.534 369.65 132.704 369.311C132.877 368.971 133.128 368.698 133.457 368.491C133.786 368.284 134.185 368.181 134.653 368.181C135.135 368.181 135.539 368.284 135.865 368.491C136.19 368.695 136.436 368.966 136.603 369.306C136.772 369.645 136.857 370.018 136.857 370.425V370.975C136.857 371.379 136.772 371.751 136.603 372.09C136.433 372.429 136.184 372.702 135.854 372.909C135.529 373.116 135.128 373.22 134.653 373.22C134.178 373.22 133.776 373.116 133.447 372.909C133.118 372.702 132.868 372.429 132.699 372.09C132.532 371.751 132.449 371.379 132.449 370.975ZM133.778 370.425V370.975C133.778 371.243 133.842 371.489 133.971 371.713C134.1 371.937 134.327 372.049 134.653 372.049C134.982 372.049 135.208 371.939 135.33 371.718C135.456 371.494 135.519 371.247 135.519 370.975V370.425C135.519 370.154 135.459 369.906 135.34 369.682C135.222 369.455 134.993 369.341 134.653 369.341C134.334 369.341 134.109 369.455 133.976 369.682C133.844 369.906 133.778 370.154 133.778 370.425ZM127.151 365.01V364.46C127.151 364.053 127.237 363.68 127.41 363.34C127.583 363.001 127.834 362.729 128.164 362.526C128.493 362.319 128.891 362.215 129.36 362.215C129.838 362.215 130.24 362.319 130.566 362.526C130.895 362.729 131.143 363.001 131.309 363.34C131.475 363.68 131.559 364.053 131.559 364.46V365.01C131.559 365.417 131.474 365.79 131.304 366.129C131.138 366.465 130.89 366.735 130.561 366.939C130.232 367.142 129.831 367.244 129.36 367.244C128.881 367.244 128.477 367.142 128.148 366.939C127.823 366.735 127.575 366.464 127.405 366.124C127.235 365.785 127.151 365.414 127.151 365.01ZM128.489 364.46V365.01C128.489 365.281 128.552 365.529 128.678 365.753C128.807 365.973 129.034 366.084 129.36 366.084C129.685 366.084 129.909 365.973 130.032 365.753C130.157 365.529 130.22 365.281 130.22 365.01V364.46C130.22 364.189 130.161 363.941 130.042 363.717C129.923 363.49 129.696 363.376 129.36 363.376C129.037 363.376 128.812 363.49 128.683 363.717C128.554 363.944 128.489 364.192 128.489 364.46ZM127.731 372.93L134.898 362.505H136.17L129.003 372.93H127.731ZM144.816 375.444V371.387H145.514C145.748 371.201 145.967 370.938 146.17 370.598C146.374 370.259 146.547 369.794 146.689 369.204C146.832 368.613 146.93 367.85 146.985 366.913L147.26 362.505H153.922V371.387H155.083V375.434H153.271V372.93H146.628V375.444H144.816ZM147.713 371.387H152.11V364.088H148.96L148.797 366.913C148.753 367.623 148.681 368.257 148.583 368.817C148.485 369.377 148.361 369.871 148.211 370.298C148.062 370.722 147.896 371.085 147.713 371.387ZM167.369 367.718C167.369 368.841 167.159 369.803 166.738 370.604C166.321 371.401 165.751 372.012 165.028 372.436C164.308 372.86 163.492 373.072 162.58 373.072C161.667 373.072 160.849 372.86 160.126 372.436C159.407 372.008 158.837 371.396 158.416 370.598C157.999 369.798 157.79 368.837 157.79 367.718C157.79 366.594 157.999 365.634 158.416 364.837C158.837 364.036 159.407 363.423 160.126 362.999C160.849 362.575 161.667 362.363 162.58 362.363C163.492 362.363 164.308 362.575 165.028 362.999C165.751 363.423 166.321 364.036 166.738 364.837C167.159 365.634 167.369 366.594 167.369 367.718ZM165.471 367.718C165.471 366.927 165.347 366.26 165.099 365.717C164.855 365.171 164.515 364.759 164.081 364.48C163.647 364.199 163.146 364.058 162.58 364.058C162.013 364.058 161.512 364.199 161.078 364.48C160.644 364.759 160.303 365.171 160.055 365.717C159.811 366.26 159.688 366.927 159.688 367.718C159.688 368.508 159.811 369.177 160.055 369.723C160.303 370.266 160.644 370.678 161.078 370.96C161.512 371.238 162.013 371.377 162.58 371.377C163.146 371.377 163.647 371.238 164.081 370.96C164.515 370.678 164.855 370.266 165.099 369.723C165.347 369.177 165.471 368.508 165.471 367.718ZM171.788 362.505L174.083 366.323H174.165L176.471 362.505H178.624L175.412 367.718L178.675 372.93H176.486L174.165 369.138H174.083L171.762 372.93H169.584L172.877 367.718L169.625 362.505H171.788ZM190.476 367.718C190.476 368.841 190.266 369.803 189.845 370.604C189.428 371.401 188.858 372.012 188.135 372.436C187.415 372.86 186.599 373.072 185.686 373.072C184.774 373.072 183.956 372.86 183.233 372.436C182.514 372.008 181.944 371.396 181.523 370.598C181.105 369.798 180.897 368.837 180.897 367.718C180.897 366.594 181.105 365.634 181.523 364.837C181.944 364.036 182.514 363.423 183.233 362.999C183.956 362.575 184.774 362.363 185.686 362.363C186.599 362.363 187.415 362.575 188.135 362.999C188.858 363.423 189.428 364.036 189.845 364.837C190.266 365.634 190.476 366.594 190.476 367.718ZM188.578 367.718C188.578 366.927 188.454 366.26 188.206 365.717C187.962 365.171 187.622 364.759 187.188 364.48C186.754 364.199 186.253 364.058 185.686 364.058C185.12 364.058 184.619 364.199 184.185 364.48C183.751 364.759 183.41 365.171 183.162 365.717C182.918 366.26 182.795 366.927 182.795 367.718C182.795 368.508 182.918 369.177 183.162 369.723C183.41 370.266 183.751 370.678 184.185 370.96C184.619 371.238 185.12 371.377 185.686 371.377C186.253 371.377 186.754 371.238 187.188 370.96C187.622 370.678 187.962 370.266 188.206 369.723C188.454 369.177 188.578 368.508 188.578 367.718ZM193.018 375.444V371.387H193.715C193.949 371.201 194.168 370.938 194.372 370.598C194.575 370.259 194.748 369.794 194.891 369.204C195.033 368.613 195.132 367.85 195.186 366.913L195.461 362.505H202.124V371.387H203.284V375.434H201.472V372.93H194.83V375.444H193.018ZM195.914 371.387H200.312V364.088H197.161L196.998 366.913C196.954 367.623 196.883 368.257 196.784 368.817C196.686 369.377 196.562 369.871 196.413 370.298C196.263 370.722 196.097 371.085 195.914 371.387ZM207.595 372.93H205.579L209.249 362.505H211.58L215.255 372.93H213.239L210.455 364.643H210.374L207.595 372.93ZM207.661 368.842H213.158V370.359H207.661V368.842Z" fill="black"/>
<path opacity="0.4" d="M811.87 545.937H43.7959V457.946L546.349 489.4C546.349 489.4 807.438 428.971 811.87 426.943V426.891C811.946 426.891 811.945 426.908 811.87 426.943V545.937Z" fill="url(#paint1_linear_2466_909)"/>
<rect x="808.075" y="422.91" width="8.17935" height="8.17935" rx="4.08967" fill="#04B34A"/>
<path d="M809.917 427.688L556.83 489.753C554.555 490.311 552.209 490.52 549.871 490.372L43.7961 458.345" stroke="#04B34A" stroke-width="3.18518"/>
<path d="M706.669 562.004V542.608L699.435 549.869L696.259 546.72L708.963 534.043L721.641 546.72L718.519 549.869L711.257 542.608V562.004H706.669Z" fill="#04B34A"/>
<path d="M742.182 562.403C740.752 562.394 739.372 562.155 738.042 561.684C736.721 561.214 735.536 560.449 734.486 559.39C733.436 558.332 732.604 556.929 731.989 555.183C731.382 553.436 731.079 551.292 731.079 548.749C731.088 546.414 731.355 544.328 731.88 542.492C732.414 540.646 733.174 539.08 734.16 537.795C735.156 536.51 736.346 535.533 737.73 534.863C739.114 534.185 740.666 533.845 742.386 533.845C744.241 533.845 745.878 534.207 747.299 534.931C748.72 535.646 749.86 536.619 750.72 537.85C751.588 539.08 752.113 540.46 752.294 541.989H746.498C746.272 541.021 745.797 540.261 745.073 539.709C744.349 539.157 743.453 538.881 742.386 538.881C740.576 538.881 739.2 539.668 738.259 541.243C737.327 542.817 736.852 544.957 736.834 547.663H737.024C737.44 546.84 738.001 546.138 738.707 545.559C739.422 544.971 740.232 544.523 741.137 544.215C742.051 543.899 743.015 543.74 744.028 543.74C745.675 543.74 747.141 544.129 748.426 544.908C749.711 545.677 750.724 546.735 751.466 548.084C752.208 549.432 752.579 550.975 752.579 552.712C752.579 554.594 752.14 556.268 751.263 557.734C750.394 559.2 749.177 560.349 747.611 561.182C746.055 562.005 744.245 562.413 742.182 562.403ZM742.155 557.789C743.06 557.789 743.87 557.571 744.584 557.137C745.299 556.703 745.86 556.115 746.268 555.373C746.675 554.631 746.878 553.798 746.878 552.875C746.878 551.952 746.675 551.124 746.268 550.391C745.869 549.658 745.317 549.075 744.612 548.64C743.906 548.206 743.1 547.989 742.196 547.989C741.517 547.989 740.888 548.115 740.309 548.369C739.739 548.622 739.237 548.975 738.802 549.427C738.377 549.88 738.042 550.405 737.798 551.002C737.554 551.59 737.431 552.219 737.431 552.889C737.431 553.784 737.635 554.603 738.042 555.345C738.458 556.087 739.019 556.68 739.725 557.124C740.44 557.567 741.25 557.789 742.155 557.789ZM761.536 558.223L761.386 559.716C761.269 560.91 761.043 562.1 760.708 563.286C760.382 564.48 760.038 565.562 759.676 566.53C759.323 567.498 759.038 568.258 758.821 568.81H755.075C755.211 568.276 755.396 567.53 755.631 566.57C755.867 565.62 756.088 564.553 756.296 563.367C756.505 562.182 756.636 560.974 756.69 559.743L756.758 558.223H761.536ZM774.999 534.225V562.023H769.122V539.804H768.959L762.593 543.795V538.582L769.474 534.225H774.999ZM796.429 556.811V555.345C796.429 554.232 796.664 553.21 797.135 552.278C797.615 551.337 798.307 550.586 799.212 550.025C800.126 549.455 801.239 549.17 802.551 549.17C803.881 549.17 804.998 549.45 805.903 550.011C806.817 550.572 807.505 551.323 807.966 552.264C808.437 553.196 808.672 554.223 808.672 555.345V556.811C808.672 557.924 808.437 558.951 807.966 559.892C807.496 560.824 806.804 561.571 805.89 562.132C804.976 562.702 803.863 562.987 802.551 562.987C801.221 562.987 800.103 562.702 799.198 562.132C798.293 561.571 797.605 560.824 797.135 559.892C796.664 558.951 796.429 557.924 796.429 556.811ZM800.379 555.345V556.811C800.379 557.454 800.533 558.06 800.84 558.63C801.157 559.2 801.727 559.485 802.551 559.485C803.374 559.485 803.935 559.205 804.234 558.644C804.541 558.083 804.695 557.472 804.695 556.811V555.345C804.695 554.685 804.55 554.07 804.261 553.499C803.971 552.929 803.401 552.644 802.551 552.644C801.736 552.644 801.171 552.929 800.854 553.499C800.537 554.07 800.379 554.685 800.379 555.345ZM782.164 540.903V539.438C782.164 538.316 782.403 537.288 782.883 536.356C783.363 535.415 784.055 534.664 784.96 534.103C785.874 533.542 786.978 533.262 788.272 533.262C789.611 533.262 790.733 533.542 791.638 534.103C792.543 534.664 793.23 535.415 793.701 536.356C794.171 537.288 794.407 538.316 794.407 539.438V540.903C794.407 542.026 794.167 543.053 793.687 543.985C793.217 544.917 792.525 545.663 791.611 546.224C790.706 546.776 789.593 547.052 788.272 547.052C786.951 547.052 785.833 546.772 784.919 546.211C784.014 545.641 783.326 544.894 782.856 543.971C782.394 543.039 782.164 542.016 782.164 540.903ZM786.141 539.438V540.903C786.141 541.564 786.294 542.175 786.602 542.736C786.919 543.297 787.475 543.577 788.272 543.577C789.104 543.577 789.67 543.297 789.968 542.736C790.276 542.175 790.43 541.564 790.43 540.903V539.438C790.43 538.777 790.285 538.162 789.995 537.592C789.706 537.022 789.131 536.737 788.272 536.737C787.466 536.737 786.91 537.026 786.602 537.605C786.294 538.184 786.141 538.795 786.141 539.438ZM783.955 562.023L803.066 534.225H806.623L787.512 562.023H783.955Z" fill="black"/>
<path d="M49.258 433.366C49.8262 433.37 50.3861 433.474 50.9377 433.677C51.4893 433.881 51.987 434.212 52.4307 434.673C52.8787 435.133 53.2353 435.755 53.5008 436.539C53.7703 437.319 53.9072 438.289 53.9113 439.451C53.9113 440.566 53.7994 441.559 53.5754 442.43C53.3515 443.297 53.03 444.029 52.6111 444.626C52.1964 445.224 51.6925 445.678 51.0994 445.989C50.5064 446.3 49.8386 446.455 49.0962 446.455C48.3373 446.455 47.6633 446.306 47.0744 446.008C46.4855 445.709 46.0064 445.296 45.6373 444.77C45.2682 444.239 45.038 443.629 44.9468 442.941H46.8442C46.9686 443.488 47.2216 443.932 47.6032 444.272C47.9889 444.608 48.4866 444.776 49.0962 444.776C50.0294 444.776 50.7573 444.369 51.2798 443.556C51.8024 442.739 52.0658 441.599 52.0699 440.135H51.9704C51.7547 440.492 51.4851 440.798 51.1616 441.056C50.8423 441.313 50.4835 441.512 50.0854 441.653C49.6872 441.794 49.2621 441.864 48.8101 441.864C48.076 441.864 47.4083 441.684 46.8069 441.323C46.2055 440.962 45.7265 440.467 45.3698 439.836C45.0132 439.206 44.8348 438.486 44.8348 437.678C44.8348 436.873 45.0173 436.143 45.3823 435.488C45.7514 434.832 46.2657 434.314 46.9251 433.932C47.5887 433.547 48.3663 433.358 49.258 433.366ZM49.2642 434.984C48.779 434.984 48.3414 435.104 47.9516 435.345C47.5659 435.581 47.261 435.902 47.0371 436.309C46.8131 436.711 46.7011 437.159 46.7011 437.653C46.7011 438.146 46.809 438.594 47.0246 438.996C47.2444 439.395 47.5431 439.712 47.9205 439.948C48.302 440.18 48.7375 440.297 49.2269 440.297C49.5919 440.297 49.9319 440.226 50.2471 440.085C50.5623 439.944 50.8381 439.749 51.0745 439.5C51.3109 439.247 51.4955 438.961 51.6282 438.642C51.7609 438.322 51.8273 437.986 51.8273 437.634C51.8273 437.165 51.7153 436.73 51.4914 436.328C51.2715 435.925 50.9688 435.602 50.5831 435.357C50.1974 435.108 49.7578 434.984 49.2642 434.984ZM57.9645 444.539L57.8711 445.217C57.8089 445.715 57.7032 446.234 57.5539 446.773C57.4087 447.316 57.2573 447.82 57.0997 448.284C56.9463 448.749 56.8198 449.118 56.7202 449.392H55.4014C55.4553 449.135 55.5299 448.786 55.6253 448.347C55.7207 447.911 55.814 447.424 55.9053 446.885C55.9965 446.346 56.065 445.796 56.1106 445.236L56.1728 444.539H57.9645ZM60.4934 446.281L66.055 435.282V435.189H59.6224V433.541H68.0458V435.245L62.5028 446.281H60.4934Z" fill="#CFCFCF"/>
<path d="M784.498 399.298V412.039H782.57V401.227H782.495L779.447 403.218V401.376L782.626 399.298H784.498ZM791.973 412.213C791.193 412.213 790.493 412.064 789.87 411.765C789.253 411.463 788.759 411.048 788.39 410.521C788.021 409.994 787.824 409.393 787.799 408.717H789.665C789.711 409.264 789.953 409.714 790.393 410.067C790.833 410.42 791.359 410.596 791.973 410.596C792.463 410.596 792.896 410.484 793.273 410.26C793.655 410.032 793.954 409.719 794.169 409.32C794.389 408.922 794.499 408.468 794.499 407.958C794.499 407.44 794.387 406.977 794.163 406.571C793.939 406.164 793.63 405.845 793.236 405.613C792.846 405.38 792.398 405.262 791.892 405.258C791.507 405.258 791.119 405.324 790.729 405.457C790.339 405.59 790.024 405.764 789.783 405.98L788.023 405.718L788.738 399.298H795.743V400.947H790.337L789.933 404.512H790.007C790.256 404.271 790.586 404.07 790.996 403.908C791.411 403.746 791.855 403.666 792.328 403.666C793.103 403.666 793.794 403.85 794.399 404.219C795.009 404.588 795.488 405.092 795.836 405.731C796.189 406.365 796.363 407.095 796.359 407.921C796.363 408.746 796.177 409.482 795.799 410.129C795.426 410.776 794.907 411.286 794.244 411.66C793.584 412.029 792.828 412.213 791.973 412.213ZM800.437 410.297L800.344 410.975C800.281 411.473 800.176 411.991 800.026 412.531C799.881 413.074 799.73 413.578 799.572 414.042C799.419 414.507 799.292 414.876 799.193 415.15H797.874C797.928 414.892 798.003 414.544 798.098 414.104C798.193 413.669 798.287 413.182 798.378 412.643C798.469 412.103 798.538 411.554 798.583 410.994L798.645 410.297H800.437ZM806.739 412.213C805.847 412.213 805.059 412.06 804.375 411.753C803.695 411.446 803.162 411.023 802.776 410.484C802.391 409.945 802.2 409.331 802.204 408.642C802.2 408.103 802.31 407.608 802.534 407.156C802.762 406.699 803.071 406.32 803.461 406.017C803.85 405.71 804.286 405.515 804.767 405.432V405.358C804.132 405.204 803.624 404.864 803.243 404.337C802.861 403.811 802.673 403.205 802.677 402.521C802.673 401.87 802.845 401.289 803.193 400.779C803.546 400.265 804.029 399.86 804.643 399.566C805.256 399.271 805.955 399.124 806.739 399.124C807.515 399.124 808.207 399.273 808.817 399.572C809.431 399.867 809.914 400.271 810.266 400.785C810.619 401.295 810.797 401.874 810.801 402.521C810.797 403.205 810.602 403.811 810.217 404.337C809.831 404.864 809.329 405.204 808.711 405.358V405.432C809.188 405.515 809.617 405.71 809.999 406.017C810.385 406.32 810.691 406.699 810.92 407.156C811.152 407.608 811.27 408.103 811.274 408.642C811.27 409.331 811.075 409.945 810.689 410.484C810.304 411.023 809.769 411.446 809.084 411.753C808.404 412.06 807.622 412.213 806.739 412.213ZM806.739 410.639C807.266 410.639 807.722 410.552 808.108 410.378C808.493 410.2 808.792 409.953 809.004 409.638C809.215 409.318 809.323 408.945 809.327 408.518C809.323 408.074 809.207 407.682 808.979 407.342C808.755 407.002 808.45 406.735 808.064 406.54C807.678 406.345 807.237 406.247 806.739 406.247C806.237 406.247 805.791 406.345 805.402 406.54C805.012 406.735 804.705 407.002 804.481 407.342C804.257 407.682 804.147 408.074 804.151 408.518C804.147 408.945 804.249 409.318 804.456 409.638C804.667 409.953 804.968 410.2 805.358 410.378C805.748 410.552 806.208 410.639 806.739 410.639ZM806.739 404.711C807.162 404.711 807.537 404.626 807.865 404.456C808.193 404.286 808.45 404.049 808.636 403.746C808.827 403.444 808.925 403.089 808.929 402.683C808.925 402.284 808.829 401.936 808.643 401.637C808.46 401.339 808.205 401.109 807.877 400.947C807.55 400.781 807.17 400.698 806.739 400.698C806.299 400.698 805.914 400.781 805.582 400.947C805.254 401.109 804.999 401.339 804.817 401.637C804.634 401.936 804.545 402.284 804.549 402.683C804.545 403.089 804.636 403.444 804.823 403.746C805.01 404.049 805.267 404.286 805.594 404.456C805.926 404.626 806.308 404.711 806.739 404.711Z" fill="#CFCFCF"/>
<rect x="437.167" y="98.7422" width="390.981" height="234.907" rx="15.9259" fill="#F7F7F7"/>
<g opacity="0.6">
<path d="M453.778 123.83C453.045 123.83 452.394 123.704 451.824 123.453C451.257 123.202 450.809 122.853 450.48 122.405C450.151 121.957 449.976 121.439 449.956 120.852H451.87C451.887 121.134 451.98 121.38 452.15 121.59C452.319 121.797 452.545 121.959 452.827 122.074C453.108 122.189 453.424 122.247 453.773 122.247C454.147 122.247 454.477 122.183 454.766 122.054C455.054 121.921 455.28 121.738 455.443 121.504C455.606 121.27 455.685 121 455.682 120.695C455.685 120.379 455.604 120.101 455.438 119.86C455.271 119.619 455.03 119.431 454.715 119.295C454.403 119.159 454.026 119.091 453.585 119.091H452.664V117.636H453.585C453.948 117.636 454.265 117.573 454.537 117.447C454.812 117.322 455.027 117.145 455.183 116.918C455.339 116.687 455.416 116.421 455.412 116.119C455.416 115.824 455.349 115.567 455.214 115.35C455.081 115.13 454.893 114.958 454.649 114.836C454.408 114.714 454.124 114.653 453.799 114.653C453.48 114.653 453.185 114.711 452.913 114.826C452.642 114.941 452.423 115.106 452.256 115.32C452.09 115.53 452.002 115.781 451.992 116.073H450.175C450.188 115.489 450.356 114.977 450.679 114.536C451.004 114.091 451.439 113.745 451.982 113.497C452.525 113.246 453.134 113.121 453.809 113.121C454.505 113.121 455.109 113.251 455.621 113.513C456.137 113.771 456.535 114.118 456.817 114.556C457.099 114.994 457.24 115.477 457.24 116.007C457.243 116.594 457.07 117.086 456.72 117.483C456.374 117.88 455.92 118.139 455.356 118.262V118.343C456.089 118.445 456.651 118.716 457.041 119.157C457.435 119.595 457.63 120.14 457.626 120.791C457.626 121.375 457.46 121.898 457.128 122.359C456.798 122.817 456.344 123.177 455.763 123.438C455.187 123.699 454.525 123.83 453.778 123.83ZM464.66 123.886C463.822 123.886 463.102 123.674 462.502 123.25C461.905 122.822 461.445 122.206 461.122 121.402C460.803 120.594 460.644 119.622 460.644 118.486C460.647 117.349 460.809 116.382 461.127 115.584C461.45 114.783 461.91 114.173 462.507 113.752C463.107 113.331 463.825 113.121 464.66 113.121C465.495 113.121 466.212 113.331 466.813 113.752C467.414 114.173 467.873 114.783 468.192 115.584C468.515 116.385 468.676 117.352 468.676 118.486C468.676 119.626 468.515 120.6 468.192 121.407C467.873 122.211 467.414 122.826 466.813 123.25C466.216 123.674 465.498 123.886 464.66 123.886ZM464.66 122.293C465.311 122.293 465.826 121.972 466.202 121.331C466.582 120.686 466.772 119.738 466.772 118.486C466.772 117.658 466.686 116.962 466.513 116.399C466.34 115.835 466.095 115.411 465.78 115.126C465.464 114.838 465.091 114.694 464.66 114.694C464.012 114.694 463.499 115.016 463.123 115.661C462.746 116.302 462.556 117.244 462.553 118.486C462.549 119.317 462.632 120.016 462.802 120.583C462.975 121.149 463.219 121.577 463.535 121.865C463.851 122.15 464.226 122.293 464.66 122.293ZM476.559 117.717V119.234H471.867V117.717H476.559ZM483.728 123.83C483.229 123.827 482.742 123.74 482.267 123.57C481.792 123.397 481.364 123.117 480.984 122.731C480.604 122.34 480.302 121.823 480.078 121.178C479.854 120.53 479.744 119.728 479.748 118.771C479.748 117.878 479.843 117.082 480.033 116.383C480.223 115.684 480.496 115.094 480.852 114.612C481.208 114.127 481.638 113.757 482.14 113.502C482.645 113.248 483.21 113.121 483.835 113.121C484.49 113.121 485.07 113.25 485.576 113.508C486.085 113.765 486.495 114.118 486.807 114.566C487.12 115.011 487.313 115.513 487.388 116.073H485.53C485.435 115.673 485.24 115.354 484.944 115.116C484.653 114.875 484.283 114.755 483.835 114.755C483.112 114.755 482.556 115.068 482.165 115.696C481.778 116.324 481.583 117.186 481.58 118.282H481.651C481.817 117.983 482.033 117.727 482.298 117.513C482.562 117.3 482.861 117.135 483.193 117.02C483.529 116.901 483.884 116.842 484.257 116.842C484.868 116.842 485.416 116.987 485.901 117.279C486.39 117.571 486.777 117.973 487.062 118.486C487.347 118.995 487.488 119.578 487.484 120.237C487.488 120.922 487.332 121.538 487.016 122.084C486.7 122.627 486.261 123.055 485.698 123.367C485.134 123.679 484.478 123.833 483.728 123.83ZM483.718 122.303C484.088 122.303 484.418 122.213 484.71 122.033C485.002 121.853 485.233 121.611 485.403 121.305C485.572 121 485.655 120.657 485.652 120.277C485.655 119.904 485.574 119.566 485.408 119.264C485.245 118.962 485.019 118.723 484.731 118.547C484.442 118.37 484.113 118.282 483.743 118.282C483.468 118.282 483.212 118.335 482.975 118.44C482.737 118.545 482.53 118.691 482.354 118.877C482.177 119.061 482.038 119.275 481.936 119.519C481.838 119.76 481.787 120.018 481.784 120.292C481.787 120.656 481.872 120.99 482.038 121.295C482.204 121.601 482.433 121.845 482.725 122.028C483.017 122.211 483.348 122.303 483.718 122.303ZM494.491 123.886C493.653 123.886 492.934 123.674 492.333 123.25C491.736 122.822 491.276 122.206 490.954 121.402C490.635 120.594 490.475 119.622 490.475 118.486C490.479 117.349 490.64 116.382 490.959 115.584C491.281 114.783 491.741 114.173 492.338 113.752C492.939 113.331 493.656 113.121 494.491 113.121C495.326 113.121 496.044 113.331 496.644 113.752C497.245 114.173 497.705 114.783 498.024 115.584C498.346 116.385 498.507 117.352 498.507 118.486C498.507 119.626 498.346 120.6 498.024 121.407C497.705 122.211 497.245 122.826 496.644 123.25C496.047 123.674 495.329 123.886 494.491 123.886ZM494.491 122.293C495.143 122.293 495.657 121.972 496.033 121.331C496.413 120.686 496.603 119.738 496.603 118.486C496.603 117.658 496.517 116.962 496.344 116.399C496.171 115.835 495.927 115.411 495.611 115.126C495.295 114.838 494.922 114.694 494.491 114.694C493.843 114.694 493.331 115.016 492.954 115.661C492.577 116.302 492.387 117.244 492.384 118.486C492.381 119.317 492.464 120.016 492.633 120.583C492.806 121.149 493.051 121.577 493.366 121.865C493.682 122.15 494.057 122.293 494.491 122.293ZM507.205 121.733V121.183C507.205 120.779 507.29 120.408 507.46 120.069C507.633 119.729 507.884 119.456 508.213 119.249C508.542 119.042 508.941 118.939 509.409 118.939C509.891 118.939 510.295 119.042 510.62 119.249C510.946 119.453 511.192 119.724 511.359 120.063C511.528 120.403 511.613 120.776 511.613 121.183V121.733C511.613 122.137 511.528 122.508 511.359 122.848C511.189 123.187 510.939 123.46 510.61 123.667C510.285 123.874 509.884 123.978 509.409 123.978C508.934 123.978 508.532 123.874 508.203 123.667C507.874 123.46 507.624 123.187 507.455 122.848C507.288 122.508 507.205 122.137 507.205 121.733ZM508.534 121.183V121.733C508.534 122.001 508.598 122.247 508.727 122.471C508.856 122.695 509.083 122.807 509.409 122.807C509.738 122.807 509.964 122.697 510.086 122.476C510.212 122.252 510.274 122.004 510.274 121.733V121.183C510.274 120.912 510.215 120.664 510.096 120.44C509.977 120.213 509.748 120.099 509.409 120.099C509.09 120.099 508.864 120.213 508.732 120.44C508.6 120.664 508.534 120.912 508.534 121.183ZM501.906 115.768V115.218C501.906 114.811 501.993 114.437 502.166 114.098C502.339 113.759 502.59 113.487 502.919 113.284C503.249 113.077 503.647 112.973 504.116 112.973C504.594 112.973 504.996 113.077 505.322 113.284C505.651 113.487 505.899 113.759 506.065 114.098C506.231 114.437 506.314 114.811 506.314 115.218V115.768C506.314 116.175 506.23 116.548 506.06 116.887C505.894 117.223 505.646 117.493 505.317 117.697C504.988 117.9 504.587 118.002 504.116 118.002C503.637 118.002 503.233 117.9 502.904 117.697C502.578 117.493 502.331 117.222 502.161 116.882C501.991 116.543 501.906 116.171 501.906 115.768ZM503.245 115.218V115.768C503.245 116.039 503.308 116.287 503.433 116.511C503.562 116.731 503.79 116.842 504.116 116.842C504.441 116.842 504.665 116.731 504.787 116.511C504.913 116.287 504.976 116.039 504.976 115.768V115.218C504.976 114.946 504.916 114.699 504.798 114.475C504.679 114.247 504.451 114.134 504.116 114.134C503.793 114.134 503.567 114.247 503.439 114.475C503.31 114.702 503.245 114.95 503.245 115.218ZM502.487 123.688L509.653 113.263H510.926L503.759 123.688H502.487Z" fill="#FF0000"/>
<path d="M519.572 126.202V122.145H520.27C520.504 121.959 520.723 121.696 520.926 121.356C521.13 121.017 521.303 120.552 521.445 119.962C521.588 119.371 521.686 118.608 521.741 117.671L522.015 113.263H528.678V122.145H529.839V126.192H528.027V123.688H521.384V126.202H519.572ZM522.468 122.145H526.866V114.846H523.715L523.553 117.671C523.508 118.38 523.437 119.015 523.339 119.575C523.24 120.135 523.117 120.628 522.967 121.056C522.818 121.48 522.652 121.843 522.468 122.145ZM542.125 118.475C542.125 119.599 541.915 120.561 541.494 121.361C541.077 122.159 540.506 122.77 539.784 123.194C539.064 123.618 538.248 123.83 537.335 123.83C536.423 123.83 535.605 123.618 534.882 123.194C534.163 122.766 533.593 122.154 533.172 121.356C532.754 120.555 532.546 119.595 532.546 118.475C532.546 117.352 532.754 116.392 533.172 115.594C533.593 114.794 534.163 114.181 534.882 113.757C535.605 113.333 536.423 113.121 537.335 113.121C538.248 113.121 539.064 113.333 539.784 113.757C540.506 114.181 541.077 114.794 541.494 115.594C541.915 116.392 542.125 117.352 542.125 118.475ZM540.226 118.475C540.226 117.685 540.103 117.018 539.855 116.475C539.611 115.929 539.271 115.516 538.837 115.238C538.403 114.957 537.902 114.816 537.335 114.816C536.769 114.816 536.268 114.957 535.834 115.238C535.4 115.516 535.058 115.929 534.811 116.475C534.566 117.018 534.444 117.685 534.444 118.475C534.444 119.266 534.566 119.935 534.811 120.481C535.058 121.024 535.4 121.436 535.834 121.718C536.268 121.996 536.769 122.135 537.335 122.135C537.902 122.135 538.403 121.996 538.837 121.718C539.271 121.436 539.611 121.024 539.855 120.481C540.103 119.935 540.226 119.266 540.226 118.475ZM546.544 113.263L548.839 117.081H548.921L551.226 113.263H553.379L550.168 118.475L553.43 123.688H551.242L548.921 119.895H548.839L546.518 123.688H544.34L547.633 118.475L544.38 113.263H546.544ZM565.232 118.475C565.232 119.599 565.022 120.561 564.601 121.361C564.183 122.159 563.613 122.77 562.891 123.194C562.171 123.618 561.355 123.83 560.442 123.83C559.53 123.83 558.712 123.618 557.989 123.194C557.27 122.766 556.699 122.154 556.279 121.356C555.861 120.555 555.653 119.595 555.653 118.475C555.653 117.352 555.861 116.392 556.279 115.594C556.699 114.794 557.27 114.181 557.989 113.757C558.712 113.333 559.53 113.121 560.442 113.121C561.355 113.121 562.171 113.333 562.891 113.757C563.613 114.181 564.183 114.794 564.601 115.594C565.022 116.392 565.232 117.352 565.232 118.475ZM563.333 118.475C563.333 117.685 563.21 117.018 562.962 116.475C562.718 115.929 562.378 115.516 561.944 115.238C561.509 114.957 561.009 114.816 560.442 114.816C559.876 114.816 559.375 114.957 558.941 115.238C558.506 115.516 558.165 115.929 557.918 116.475C557.673 117.018 557.551 117.685 557.551 118.475C557.551 119.266 557.673 119.935 557.918 120.481C558.165 121.024 558.506 121.436 558.941 121.718C559.375 121.996 559.876 122.135 560.442 122.135C561.009 122.135 561.509 121.996 561.944 121.718C562.378 121.436 562.718 121.024 562.962 120.481C563.21 119.935 563.333 119.266 563.333 118.475ZM567.774 126.202V122.145H568.471C568.705 121.959 568.924 121.696 569.128 121.356C569.331 121.017 569.504 120.552 569.647 119.962C569.789 119.371 569.888 118.608 569.942 117.671L570.217 113.263H576.88V122.145H578.04V126.192H576.228V123.688H569.586V126.202H567.774ZM570.67 122.145H575.068V114.846H571.917L571.754 117.671C571.71 118.38 571.639 119.015 571.54 119.575C571.442 120.135 571.318 120.628 571.169 121.056C571.019 121.48 570.853 121.843 570.67 122.145ZM582.351 123.688H580.335L584.005 113.263H586.336L590.011 123.688H587.995L585.211 115.401H585.13L582.351 123.688ZM582.417 119.6H587.914V121.117H582.417V119.6Z" fill="black"/>
</g>
<path opacity="0.4" d="M812.215 296.695H449.111V208.704L686.691 240.158C686.691 240.158 810.12 179.729 812.215 177.701V177.648C812.251 177.648 812.251 177.666 812.215 177.701V296.695Z" fill="url(#paint2_linear_2466_909)"/>
<rect x="808.39" y="173.668" width="8.17935" height="8.17935" rx="4.08967" fill="#04B34A"/>
<path d="M810.231 178.445L695.804 237.979C691.583 240.174 686.788 241.013 682.073 240.38L449.111 209.103" stroke="#04B34A" stroke-width="3.18518"/>
<path d="M706.984 312.762V293.365L699.75 300.627L696.574 297.478L709.278 284.801L721.956 297.478L718.834 300.627L711.572 293.365V312.762H706.984Z" fill="#04B34A"/>
<path d="M741.767 313.161C739.74 313.161 737.935 312.813 736.352 312.116C734.777 311.41 733.533 310.442 732.619 309.211C731.714 307.972 731.248 306.542 731.221 304.922H737.139C737.175 305.601 737.397 306.198 737.804 306.714C738.22 307.221 738.772 307.614 739.46 307.895C740.148 308.175 740.921 308.316 741.781 308.316C742.677 308.316 743.469 308.157 744.156 307.841C744.844 307.524 745.382 307.085 745.772 306.524C746.161 305.963 746.355 305.316 746.355 304.583C746.355 303.841 746.147 303.185 745.731 302.615C745.324 302.036 744.735 301.583 743.966 301.258C743.206 300.932 742.301 300.769 741.252 300.769H738.659V296.453H741.252C742.138 296.453 742.921 296.299 743.6 295.991C744.288 295.684 744.821 295.258 745.201 294.715C745.581 294.163 745.772 293.521 745.772 292.788C745.772 292.091 745.604 291.48 745.269 290.955C744.944 290.422 744.482 290.005 743.885 289.707C743.297 289.408 742.609 289.259 741.822 289.259C741.025 289.259 740.297 289.404 739.636 289.693C738.976 289.974 738.446 290.376 738.048 290.901C737.65 291.426 737.438 292.041 737.41 292.747H731.778C731.805 291.146 732.262 289.734 733.148 288.512C734.035 287.291 735.23 286.336 736.732 285.648C738.243 284.952 739.949 284.603 741.849 284.603C743.767 284.603 745.446 284.952 746.885 285.648C748.323 286.345 749.441 287.286 750.237 288.472C751.042 289.648 751.441 290.969 751.432 292.435C751.441 293.991 750.956 295.29 749.979 296.33C749.011 297.371 747.749 298.032 746.192 298.312V298.529C748.237 298.792 749.794 299.502 750.861 300.66C751.938 301.81 752.472 303.248 752.463 304.977C752.472 306.56 752.015 307.967 751.092 309.198C750.178 310.429 748.916 311.397 747.305 312.103C745.695 312.808 743.849 313.161 741.767 313.161ZM761.851 308.981L761.701 310.474C761.584 311.668 761.358 312.858 761.023 314.044C760.697 315.238 760.353 316.319 759.991 317.288C759.638 318.256 759.353 319.016 759.136 319.568H755.39C755.526 319.034 755.711 318.287 755.946 317.328C756.182 316.378 756.403 315.31 756.611 314.125C756.82 312.94 756.951 311.732 757.005 310.501L757.073 308.981H761.851ZM775.314 284.983V312.781H769.436V290.562H769.274L762.908 294.552V289.34L769.789 284.983H775.314ZM796.744 307.569V306.103C796.744 304.99 796.979 303.968 797.45 303.036C797.929 302.095 798.622 301.344 799.527 300.783C800.441 300.212 801.554 299.927 802.866 299.927C804.196 299.927 805.313 300.208 806.218 300.769C807.132 301.33 807.82 302.081 808.281 303.022C808.752 303.954 808.987 304.981 808.987 306.103V307.569C808.987 308.682 808.752 309.709 808.281 310.65C807.811 311.582 807.119 312.329 806.205 312.89C805.291 313.46 804.178 313.745 802.866 313.745C801.535 313.745 800.418 313.46 799.513 312.89C798.608 312.329 797.92 311.582 797.45 310.65C796.979 309.709 796.744 308.682 796.744 307.569ZM800.694 306.103V307.569C800.694 308.212 800.848 308.818 801.155 309.388C801.472 309.958 802.042 310.243 802.866 310.243C803.689 310.243 804.25 309.963 804.549 309.402C804.856 308.84 805.01 308.23 805.01 307.569V306.103C805.01 305.443 804.865 304.827 804.576 304.257C804.286 303.687 803.716 303.402 802.866 303.402C802.051 303.402 801.486 303.687 801.169 304.257C800.852 304.827 800.694 305.443 800.694 306.103ZM782.479 291.661V290.195C782.479 289.073 782.718 288.046 783.198 287.114C783.678 286.173 784.37 285.422 785.275 284.861C786.189 284.3 787.293 284.02 788.587 284.02C789.926 284.02 791.048 284.3 791.953 284.861C792.858 285.422 793.545 286.173 794.016 287.114C794.486 288.046 794.722 289.073 794.722 290.195V291.661C794.722 292.783 794.482 293.81 794.002 294.742C793.532 295.674 792.84 296.421 791.926 296.982C791.021 297.534 789.908 297.81 788.587 297.81C787.265 297.81 786.148 297.529 785.234 296.968C784.329 296.398 783.641 295.652 783.171 294.729C782.709 293.797 782.479 292.774 782.479 291.661ZM786.456 290.195V291.661C786.456 292.322 786.609 292.933 786.917 293.494C787.234 294.055 787.79 294.335 788.587 294.335C789.419 294.335 789.985 294.055 790.283 293.494C790.591 292.933 790.745 292.322 790.745 291.661V290.195C790.745 289.535 790.6 288.92 790.31 288.349C790.021 287.779 789.446 287.494 788.587 287.494C787.781 287.494 787.225 287.784 786.917 288.363C786.609 288.942 786.456 289.553 786.456 290.195ZM784.27 312.781L803.381 284.983H806.938L787.826 312.781H784.27Z" fill="black"/>
<path d="M450.069 194.551V192.995L455.575 184.298H456.8V186.588H456.022L452.085 192.821V192.921H459.631V194.551H450.069ZM456.11 197.039V194.078L456.122 193.369V184.298H457.945V197.039H456.11ZM466.057 197.251C465.074 197.246 464.234 196.987 463.538 196.473C462.841 195.959 462.308 195.21 461.939 194.227C461.57 193.244 461.385 192.06 461.385 190.675C461.385 189.294 461.57 188.114 461.939 187.135C462.312 186.156 462.847 185.41 463.544 184.896C464.245 184.381 465.082 184.124 466.057 184.124C467.032 184.124 467.867 184.383 468.564 184.902C469.261 185.416 469.794 186.163 470.163 187.141C470.536 188.116 470.723 189.294 470.723 190.675C470.723 192.064 470.538 193.25 470.169 194.233C469.8 195.212 469.267 195.961 468.57 196.479C467.874 196.993 467.036 197.251 466.057 197.251ZM466.057 195.59C466.92 195.59 467.594 195.169 468.079 194.327C468.568 193.485 468.813 192.268 468.813 190.675C468.813 189.617 468.701 188.724 468.477 187.994C468.257 187.26 467.94 186.704 467.525 186.326C467.115 185.945 466.625 185.754 466.057 185.754C465.199 185.754 464.525 186.177 464.035 187.023C463.546 187.869 463.299 189.086 463.295 190.675C463.295 191.737 463.405 192.635 463.625 193.369C463.849 194.099 464.166 194.652 464.576 195.03C464.987 195.403 465.481 195.59 466.057 195.59Z" fill="#CFCFCF"/>
<path d="M779.917 160.308V158.753L785.423 150.056H786.649V152.345H785.871L781.933 158.579V158.679H789.479V160.308H779.917ZM785.958 162.797V159.836L785.971 159.126V150.056H787.793V162.797H785.958ZM795.906 162.971C795.051 162.971 794.288 162.824 793.616 162.529C792.949 162.235 792.42 161.826 792.03 161.304C791.644 160.777 791.437 160.167 791.408 159.475H793.361C793.386 159.852 793.513 160.18 793.741 160.458C793.973 160.731 794.276 160.943 794.649 161.092C795.022 161.242 795.437 161.316 795.893 161.316C796.395 161.316 796.839 161.229 797.225 161.055C797.614 160.881 797.919 160.638 798.139 160.327C798.359 160.012 798.469 159.649 798.469 159.238C798.469 158.811 798.359 158.436 798.139 158.112C797.923 157.785 797.606 157.528 797.187 157.341C796.772 157.154 796.271 157.061 795.682 157.061H794.605V155.493H795.682C796.155 155.493 796.569 155.408 796.926 155.238C797.287 155.068 797.569 154.832 797.772 154.529C797.975 154.222 798.077 153.863 798.077 153.453C798.077 153.059 797.988 152.717 797.809 152.426C797.635 152.132 797.386 151.902 797.063 151.736C796.743 151.57 796.366 151.487 795.931 151.487C795.516 151.487 795.128 151.564 794.767 151.717C794.411 151.866 794.12 152.082 793.896 152.364C793.672 152.642 793.552 152.976 793.535 153.366H791.675C791.696 152.677 791.899 152.072 792.285 151.549C792.675 151.027 793.189 150.618 793.828 150.324C794.467 150.029 795.176 149.882 795.955 149.882C796.772 149.882 797.478 150.042 798.071 150.361C798.668 150.676 799.128 151.097 799.452 151.624C799.779 152.151 799.941 152.727 799.937 153.353C799.941 154.067 799.742 154.672 799.34 155.17C798.942 155.668 798.411 156.001 797.747 156.171V156.271C798.593 156.4 799.248 156.735 799.713 157.279C800.182 157.822 800.414 158.496 800.41 159.301C800.414 160.002 800.219 160.63 799.825 161.186C799.435 161.741 798.902 162.179 798.226 162.498C797.55 162.813 796.777 162.971 795.906 162.971ZM804.653 161.055L804.559 161.733C804.497 162.231 804.391 162.749 804.242 163.288C804.097 163.832 803.945 164.336 803.788 164.8C803.634 165.265 803.508 165.634 803.408 165.907H802.089C802.143 165.65 802.218 165.302 802.313 164.862C802.409 164.427 802.502 163.939 802.593 163.4C802.685 162.861 802.753 162.312 802.799 161.752L802.861 161.055H804.653ZM810.371 150.056V162.797H808.443V151.985H808.368L805.32 153.975V152.134L808.499 150.056H810.371Z" fill="#CFCFCF"/>
<defs>
<linearGradient id="paint0_linear_2466_909" x1="225.348" y1="223.435" x2="225.348" y2="296.695" gradientUnits="userSpaceOnUse">
<stop stop-color="#D9D9D9"/>
<stop offset="1" stop-color="#D9D9D9" stop-opacity="0"/>
</linearGradient>
<linearGradient id="paint1_linear_2466_909" x1="427.833" y1="426.891" x2="427.833" y2="545.937" gradientUnits="userSpaceOnUse">
<stop stop-color="#04B34A"/>
<stop offset="0.0666667" stop-color="#04B34A" stop-opacity="0.991353"/>
<stop offset="0.133333" stop-color="#04B34A" stop-opacity="0.96449"/>
<stop offset="0.2" stop-color="#04B34A" stop-opacity="0.91834"/>
<stop offset="0.266667" stop-color="#04B34A" stop-opacity="0.852589"/>
<stop offset="0.333333" stop-color="#04B34A" stop-opacity="0.768225"/>
<stop offset="0.4" stop-color="#04B34A" stop-opacity="0.668116"/>
<stop offset="0.466667" stop-color="#04B34A" stop-opacity="0.557309"/>
<stop offset="0.533333" stop-color="#04B34A" stop-opacity="0.442691"/>
<stop offset="0.6" stop-color="#04B34A" stop-opacity="0.331884"/>
<stop offset="0.666667" stop-color="#04B34A" stop-opacity="0.231775"/>
<stop offset="0.733333" stop-color="#04B34A" stop-opacity="0.147411"/>
<stop offset="0.8" stop-color="#04B34A" stop-opacity="0.0816599"/>
<stop offset="0.866667" stop-color="#04B34A" stop-opacity="0.03551"/>
<stop offset="0.933333" stop-color="#04B34A" stop-opacity="0.01"/>
<stop offset="1" stop-color="#04B34A" stop-opacity="0"/>
</linearGradient>
<linearGradient id="paint2_linear_2466_909" x1="630.663" y1="177.648" x2="630.663" y2="296.695" gradientUnits="userSpaceOnUse">
<stop stop-color="#04B34A"/>
<stop offset="0.0666667" stop-color="#04B34A" stop-opacity="0.991353"/>
<stop offset="0.133333" stop-color="#04B34A" stop-opacity="0.96449"/>
<stop offset="0.2" stop-color="#04B34A" stop-opacity="0.91834"/>
<stop offset="0.266667" stop-color="#04B34A" stop-opacity="0.852589"/>
<stop offset="0.333333" stop-color="#04B34A" stop-opacity="0.768225"/>
<stop offset="0.4" stop-color="#04B34A" stop-opacity="0.668116"/>
<stop offset="0.466667" stop-color="#04B34A" stop-opacity="0.557309"/>
<stop offset="0.533333" stop-color="#04B34A" stop-opacity="0.442691"/>
<stop offset="0.6" stop-color="#04B34A" stop-opacity="0.331884"/>
<stop offset="0.666667" stop-color="#04B34A" stop-opacity="0.231775"/>
<stop offset="0.733333" stop-color="#04B34A" stop-opacity="0.147411"/>
<stop offset="0.8" stop-color="#04B34A" stop-opacity="0.0816599"/>
<stop offset="0.866667" stop-color="#04B34A" stop-opacity="0.03551"/>
<stop offset="0.933333" stop-color="#04B34A" stop-opacity="0.01"/>
<stop offset="1" stop-color="#04B34A" stop-opacity="0"/>
</linearGradient>
</defs>
</svg>
