<svg width="239" height="32" viewBox="0 0 239 32" fill="none" xmlns="http://www.w3.org/2000/svg">
<path d="M237.902 16.1661C237.902 21.6524 235.067 25.6025 228.157 25.9683L228.192 31.5277C228.192 31.7471 228.086 31.8203 227.909 31.8203H224.223C224.046 31.8203 223.939 31.7471 223.939 31.5277L223.975 25.9683C217.135 25.6025 214.265 21.6889 214.265 16.2393C214.265 10.7896 217.171 6.76639 224.01 6.40063L223.939 0.292601C223.939 0.0731513 224.046 0 224.223 0H227.909C228.086 0 228.192 0.0731513 228.192 0.292601L228.157 6.40063C235.315 6.7298 237.902 10.6433 237.902 16.1661ZM218.517 16.2393C218.517 20.2625 219.864 22.7131 224.01 23.0788L224.081 15.4347L224.01 9.29005C220.112 9.65581 218.517 12.1795 218.517 16.2393ZM228.121 9.32663L228.086 15.3249L228.121 23.0788C232.197 22.6765 233.649 20.1163 233.649 16.2393C233.649 12.1795 232.055 9.69239 228.121 9.32663Z" fill="black"/>
<path d="M205.364 6.40235C210.396 6.40235 213.09 10.6451 213.09 16.1313C213.09 21.5809 210.183 25.97 205.293 25.97C202.919 25.97 201.077 25.0191 199.835 23.2635L199.906 31.5293C199.906 31.7488 199.8 31.822 199.623 31.822H195.831C195.654 31.822 195.547 31.7488 195.547 31.5293L195.654 17.6309L195.547 7.06069C195.547 6.84124 195.654 6.76809 195.831 6.76809H199.552C199.729 6.76809 199.835 6.84124 199.835 7.06069L199.765 9.36492C201.005 7.4996 202.919 6.40235 205.364 6.40235ZM204.124 22.9708C207.243 22.9708 208.766 20.4472 208.766 16.3873C208.766 12.0349 207.243 9.43807 204.23 9.43807C201.359 9.43807 199.694 11.6691 199.658 16.0216C199.623 20.4472 201.254 22.9708 204.124 22.9708Z" fill="black"/>
<path d="M193.677 21.1387C193.854 21.1387 193.961 21.2484 193.961 21.4313V25.3083C193.961 25.4911 193.854 25.6008 193.677 25.6008H189.673C189.495 25.6008 189.389 25.4911 189.389 25.3083V21.4313C189.389 21.2484 189.495 21.1387 189.673 21.1387H193.677Z" fill="black"/>
<path d="M171.178 6.73112C171.355 6.73112 171.463 6.80427 171.463 7.02372L171.391 13.4609H174.049C179.4 13.4609 182.199 15.3628 182.199 19.4959C182.199 23.6653 179.365 25.6039 174.049 25.6039H171.426V25.6404H167.352C167.175 25.6404 167.068 25.5672 167.068 25.3479L167.175 16.1675L167.104 7.02372C167.104 6.80427 167.21 6.73112 167.387 6.73112H171.178ZM183.511 16.3504L183.405 7.06029C183.405 6.84084 183.511 6.76769 183.689 6.76769H187.481C187.658 6.76769 187.764 6.84084 187.764 7.06029L187.693 16.3504L187.764 25.3112C187.764 25.5307 187.658 25.6039 187.481 25.6039H183.689C183.511 25.6039 183.405 25.5307 183.405 25.3112L183.511 16.3504ZM171.355 16.3869L171.391 22.6779H174.085C176.494 22.6779 177.877 21.7635 177.877 19.6055C177.877 17.5573 176.777 16.3869 174.085 16.3869H171.355Z" fill="black"/>
<path d="M157.889 6.40235C162.921 6.40235 165.614 10.6451 165.614 16.1313C165.614 21.5809 162.707 25.97 157.818 25.97C155.443 25.97 153.6 25.0191 152.359 23.2635L152.43 31.5293C152.43 31.7488 152.324 31.822 152.147 31.822H148.356C148.179 31.822 148.072 31.7488 148.072 31.5293L148.179 17.6309L148.072 7.06069C148.072 6.84124 148.179 6.76809 148.356 6.76809H152.076C152.253 6.76809 152.359 6.84124 152.359 7.06069L152.29 9.36492C153.53 7.4996 155.443 6.40235 157.889 6.40235ZM156.648 22.9708C159.767 22.9708 161.29 20.4472 161.29 16.3873C161.29 12.0349 159.767 9.43807 156.754 9.43807C153.884 9.43807 152.219 11.6691 152.182 16.0216C152.147 20.4472 153.778 22.9708 156.648 22.9708Z" fill="black"/>
<path d="M137.893 23.0788C140.126 23.0788 141.578 21.8719 142.111 19.3848C142.146 19.2019 142.252 19.1288 142.394 19.1288H145.937C146.114 19.1288 146.256 19.2384 146.222 19.4213C145.689 23.1155 142.713 26.0415 137.822 26.0415C131.94 26.0415 128.786 21.9816 128.786 16.2393C128.786 10.3141 132.117 6.32748 137.681 6.32748C143.351 6.32748 146.541 10.241 146.647 16.6416C146.647 16.8245 146.541 16.9343 146.362 16.9343H133.038C133.215 21.0672 134.81 23.0788 137.893 23.0788ZM137.716 9.25348C135.129 9.25348 133.641 10.9359 133.18 14.0813H142.04C141.898 11.5211 140.515 9.25348 137.716 9.25348Z" fill="black"/>
<path d="M111.314 7.06083C111.314 6.84137 111.42 6.76823 111.598 6.76823H127.013C127.19 6.76823 127.297 6.84137 127.297 7.06083L127.226 16.0217L127.297 25.3117C127.297 25.5312 127.19 25.6044 127.013 25.6044H123.221C123.044 25.6044 122.938 25.5312 122.938 25.3117L123.044 16.0217L123.009 9.91368H115.638L115.602 16.0217L115.673 25.3117C115.673 25.5312 115.567 25.6044 115.389 25.6044H111.598C111.42 25.6044 111.314 25.5312 111.314 25.3117L111.42 16.0217L111.314 7.06083Z" fill="black"/>
<path d="M100.895 26.0415C95.1184 26.0415 91.858 22.2011 91.858 16.2393C91.858 10.2776 95.1184 6.32748 100.895 6.32748C106.636 6.32748 109.861 10.2044 109.861 16.1661C109.861 22.0913 106.636 26.0415 100.895 26.0415ZM100.895 23.0788C103.978 23.0788 105.466 20.7747 105.466 16.2393C105.466 11.7406 103.943 9.29005 100.859 9.29005C97.7054 9.32663 96.217 11.7406 96.217 16.2393C96.217 20.7747 97.7762 23.0788 100.895 23.0788Z" fill="black"/>
<path d="M90.1027 6.76823C90.28 6.76823 90.3863 6.84137 90.3863 7.06083L90.3508 16.3143L90.4571 25.3117C90.4571 25.5312 90.3508 25.6044 90.1737 25.6044H86.4172C86.24 25.6044 86.1337 25.5312 86.1337 25.3117L86.1692 16.3143L86.0629 9.91368H80.4282C80.2864 12.8031 80.0738 17.1189 79.8611 19.5329C79.4713 23.5196 78.5145 25.9701 74.8998 25.9701C74.1555 25.9701 73.624 25.8604 73.2341 25.7141C73.0924 25.6775 73.0215 25.5312 73.0215 25.3849V23.0076C73.0215 22.8247 73.1278 22.7149 73.3405 22.7515C73.5531 22.7881 73.8011 22.8247 74.0138 22.8247C75.4314 22.8247 75.9984 21.9835 76.2464 19.0575C76.4945 16.3875 76.7071 11.0109 76.8134 7.06083C76.8134 6.87796 76.9198 6.76823 77.0969 6.76823H90.1027Z" fill="black"/>
<path d="M64.8716 23.0788C67.1043 23.0788 68.5571 21.8719 69.0887 19.3848C69.1241 19.2019 69.2305 19.1288 69.3723 19.1288H72.9161C73.0932 19.1288 73.2351 19.2384 73.1995 19.4213C72.6681 23.1155 69.6911 26.0415 64.8007 26.0415C58.9179 26.0415 55.764 21.9816 55.764 16.2393C55.764 10.3141 59.0952 6.32748 64.659 6.32748C70.3291 6.32748 73.5185 10.241 73.6248 16.6416C73.6248 16.8245 73.5185 16.9343 73.3414 16.9343H60.0166C60.1938 21.0672 61.7885 23.0788 64.8716 23.0788ZM64.6944 9.25348C62.1074 9.25348 60.619 10.9359 60.1583 14.0813H69.0178C68.8761 11.5211 67.494 9.25348 64.6944 9.25348Z" fill="black"/>
<path d="M50.5396 15.5096V15.5463C53.5873 16.2412 54.863 17.8139 54.863 20.3009C54.863 24.946 50.008 25.6044 47.1021 25.6044H39.1639C38.9867 25.6044 38.8804 25.5312 38.8804 25.3117L38.9867 16.0217L38.9158 7.06083C38.9158 6.84137 39.0221 6.76823 39.1993 6.76823H47.0312C51.6736 6.76823 54.3314 8.23123 54.3314 11.4133C54.3314 13.6809 52.843 14.9611 50.5396 15.5096ZM46.9958 9.69423H43.133L43.0975 14.3392H46.9958C48.9095 14.3392 50.0435 13.6077 50.0435 11.9985C50.0435 10.4623 48.8385 9.69423 46.9958 9.69423ZM43.0975 17.1921L43.133 22.6784H47.0312C49.1575 22.6784 50.5396 21.8372 50.5396 19.9352C50.5396 18.0333 48.9803 17.1921 47.0312 17.1921H43.0975Z" fill="black"/>
<path d="M28.7043 23.0788C30.9369 23.0788 32.3898 21.8719 32.9214 19.3848C32.9568 19.2019 33.0631 19.1288 33.205 19.1288H36.7487C36.9259 19.1288 37.0677 19.2384 37.0322 19.4213C36.5007 23.1155 33.5238 26.0415 28.6333 26.0415C22.7506 26.0415 19.5966 21.9816 19.5966 16.2393C19.5966 10.3141 22.9278 6.32748 28.4916 6.32748C34.1617 6.32748 37.3512 10.241 37.4575 16.6416C37.4575 16.8245 37.3512 16.9343 37.174 16.9343H23.8492C24.0265 21.0672 25.6212 23.0788 28.7043 23.0788ZM28.527 9.25348C25.94 9.25348 24.4516 10.9359 23.9909 14.0813H32.8505C32.7087 11.5211 31.3267 9.25348 28.527 9.25348Z" fill="black"/>
<path d="M16.9394 6.76823C17.1167 6.76823 17.223 6.87796 17.223 7.06083V15.7657L17.4002 22.4955H19.491C19.6683 22.4955 19.7745 22.6052 19.7745 22.7881V29.8471C19.7745 30.03 19.6683 30.1397 19.491 30.1397H16.337C16.1599 30.1397 16.0536 30.0665 16.0536 29.8471L15.9472 25.6044H3.89821L3.7919 29.8471C3.7919 30.0665 3.68557 30.1397 3.50839 30.1397H0.283506C0.106315 30.1397 0 30.03 0 29.8471V22.7881C0 22.6052 0.106315 22.4955 0.283506 22.4955H1.4884C2.44524 21.508 2.97682 19.8621 3.22488 17.6676C3.50839 15.3268 3.75645 11.3035 3.86277 7.06083C3.86277 6.87796 3.96908 6.76823 4.14628 6.76823H16.9394ZM13.1476 22.4955V15.7291L13.0413 9.87711H7.4066C7.26484 12.73 7.08764 15.7657 6.87502 17.6311C6.62695 19.8255 6.16625 21.252 5.52837 22.4955H13.1476Z" fill="black"/>
</svg>
