<svg fill="none" height="179" viewBox="0 0 860 179" width="860" xmlns="http://www.w3.org/2000/svg" xmlns:xlink="http://www.w3.org/1999/xlink"><filter id="a" color-interpolation-filters="sRGB" filterUnits="userSpaceOnUse" height="16.6555" width="16.6555" x="300.912" y="107.204"><feFlood flood-opacity="0" result="BackgroundImageFix"/><feColorMatrix in="SourceAlpha" result="hardAlpha" type="matrix" values="0 0 0 0 0 0 0 0 0 0 0 0 0 0 0 0 0 0 127 0"/><feOffset/><feComposite in2="hardAlpha" operator="out"/><feColorMatrix type="matrix" values="0 0 0 0 1 0 0 0 0 0.776 0 0 0 0 0.2 0 0 0 1 0"/><feBlend in2="BackgroundImageFix" mode="normal" result="effect1_dropShadow_983_12834"/><feBlend in="SourceGraphic" in2="effect1_dropShadow_983_12834" mode="normal" result="shape"/></filter><filter id="b" color-interpolation-filters="sRGB" filterUnits="userSpaceOnUse" height="16.6555" width="16.6555" x="432.471" y="107.204"><feFlood flood-opacity="0" result="BackgroundImageFix"/><feColorMatrix in="SourceAlpha" result="hardAlpha" type="matrix" values="0 0 0 0 0 0 0 0 0 0 0 0 0 0 0 0 0 0 127 0"/><feOffset/><feComposite in2="hardAlpha" operator="out"/><feColorMatrix type="matrix" values="0 0 0 0 1 0 0 0 0 0.776 0 0 0 0 0.2 0 0 0 1 0"/><feBlend in2="BackgroundImageFix" mode="normal" result="effect1_dropShadow_983_12834"/><feBlend in="SourceGraphic" in2="effect1_dropShadow_983_12834" mode="normal" result="shape"/></filter><filter id="c" color-interpolation-filters="sRGB" filterUnits="userSpaceOnUse" height="16.6555" width="16.6555" x="578.761" y="107.294"><feFlood flood-opacity="0" result="BackgroundImageFix"/><feColorMatrix in="SourceAlpha" result="hardAlpha" type="matrix" values="0 0 0 0 0 0 0 0 0 0 0 0 0 0 0 0 0 0 127 0"/><feOffset/><feComposite in2="hardAlpha" operator="out"/><feColorMatrix type="matrix" values="0 0 0 0 1 0 0 0 0 0.776 0 0 0 0 0.2 0 0 0 1 0"/><feBlend in2="BackgroundImageFix" mode="normal" result="effect1_dropShadow_983_12834"/><feBlend in="SourceGraphic" in2="effect1_dropShadow_983_12834" mode="normal" result="shape"/></filter><clipPath id="d"><rect height="179" rx="40" width="860"/></clipPath><g clip-path="url(#d)"><rect fill="#fff" height="179" rx="40" width="860"/><path d="m0 0h786.809v107h-786.809z" fill="#fff" transform="translate(36.5957 36.5957)"/><path d="m53.0873 46.7335h-2.7072c-.0772-.444-.2196-.8373-.4271-1.1799-.2075-.3474-.4656-.6418-.7745-.8831-.3088-.2413-.6611-.4222-1.0568-.5429-.3909-.1254-.8131-.1882-1.2667-.1882-.8059 0-1.5201.2027-2.1426.6081-.6225.4005-1.1099.9892-1.4622 1.7662-.3523.7721-.5284 1.7155-.5284 2.8302 0 1.1341.1761 2.0895.5284 2.8665.3571.7721.8445 1.356 1.4622 1.7517.6225.3909 1.3343.5863 2.1353.5863.444 0 .859-.0579 1.245-.1737.3909-.1207.7408-.2968 1.0496-.5284.3137-.2317.5767-.5164.789-.8542.2172-.3378.3668-.7238.4488-1.1581l2.7072.0144c-.1013.7046-.3209 1.3657-.6587 1.9834-.333.6177-.7697 1.163-1.3102 1.6359-.5404.4681-1.1726.8348-1.8964 1.1003-.7239.2605-1.5274.3908-2.4105.3908-1.3029 0-2.4659-.3016-3.4889-.9048-1.0231-.6032-1.829-1.4742-2.4177-2.6131-.5887-1.1388-.8831-2.5045-.8831-4.097 0-1.5973.2968-2.9629.8903-4.097.5936-1.1388 1.4019-2.0099 2.4249-2.6131 1.0231-.6032 2.1813-.9048 3.4745-.9048.8252 0 1.5925.1158 2.3019.3475.7094.2316 1.3415.5718 1.8965 1.0206.5549.4439 1.0109.9892 1.368 1.6359.362.6418.5984 1.3753.7094 2.2005zm1.2564.8541v-2.1498h9.7286v2.1498h-3.5975v8.9686h-2.5335v-8.9686zm11.3361 13.1379v-15.2877h2.5769v1.8386h.152c.1351-.2703.3257-.5574.5718-.8614.2461-.3088.5791-.5718.999-.789.4198-.222.9554-.333 1.6069-.333.859 0 1.6335.2196 2.3236.6587.6949.4343 1.245 1.0786 1.6503 1.9327.4102.8493.6153 1.8917.6153 3.1271 0 1.2208-.2003 2.2584-.6008 3.1125-.4005.8542-.9458 1.5056-1.6359 1.9544s-1.4718.6732-2.3453.6732c-.637 0-1.1654-.1062-1.5852-.3185s-.7576-.4681-1.0134-.7673c-.2509-.304-.4464-.5911-.5863-.8614h-.1086v5.9211zm2.5696-9.7285c0 .719.1014 1.3488.3041 1.8892.2075.5405.5042.9628.8903 1.2668.3909.2992.8638.4488 1.4187.4488.5791 0 1.0641-.1545 1.455-.4633.3909-.3137.6852-.7408.8831-1.2812.2027-.5453.304-1.1654.304-1.8603 0-.6901-.0989-1.303-.2968-1.8386-.1978-.5357-.4922-.9555-.8831-1.2595s-.8782-.456-1.4622-.456c-.5597 0-1.0351.1472-1.4259.4415-.3909.2944-.6877.707-.8904 1.2378-.1978.5308-.2968 1.1558-.2968 1.8748zm12.8906 5.7835c-.7046 0-1.3392-.1254-1.9038-.3764-.5597-.2557-1.0037-.6321-1.3319-1.1292-.3233-.497-.4849-1.1099-.4849-1.8385 0-.6274.1158-1.1461.3474-1.5563s.5477-.7384.9483-.9845c.4005-.2461.8517-.4319 1.3536-.5573.5067-.1303 1.0302-.2244 1.5707-.2823.6515-.0676 1.1799-.1279 1.5852-.181.4054-.0579.6998-.1448.8831-.2606.1882-.1206.2823-.3064.2823-.5573v-.0435c0-.5453-.1616-.9675-.4849-1.2667-.3234-.2992-.789-.4488-1.3971-.4488-.6418 0-1.1509.1399-1.5273.4198-.3716.2799-.6225.6105-.7528.9917l-2.4466-.3474c.193-.6756.5115-1.2402.9555-1.6939.4439-.4584.9868-.801 1.6286-1.0278.6419-.2317 1.3512-.3475 2.1282-.3475.5356 0 1.0688.0628 1.5997.1882.5308.1255 1.0158.333 1.4549.6225.4391.2848.7914.6732 1.0568 1.1654.2703.4923.4054 1.1075.4054 1.8459v7.4412h-2.519v-1.5274h-.0869c-.1592.3089-.3836.5984-.6732.8686-.2847.2655-.6442.4802-1.0785.6443-.4295.1592-.9338.2388-1.5128.2388zm.6804-1.9254c.526 0 .982-.1037 1.3681-.3113.386-.2123.6828-.4922.8903-.8396.2123-.3475.3185-.7263.3185-1.1365v-1.3101c-.0821.0675-.222.1303-.4198.1882-.1931.0579-.4102.1085-.6515.152-.2413.0434-.4802.082-.7166.1158-.2365.0338-.4416.0627-.6153.0869-.3909.053-.7407.1399-1.0496.2605-.3088.1207-.5525.2896-.7311.5067-.1785.2124-.2678.4874-.2678.8252 0 .4826.1761.8469.5284 1.093s.8011.3692 1.3464.3692zm9.4884-9.4173 2.2439 4.1042 2.2802-4.1042h2.7723l-3.3514 5.5592 3.4093 5.5592h-2.7579l-2.3525-4.0029-2.3308 4.0029h-2.7796l3.3877-5.5592-3.3008-5.5592zm13.2762 11.3355c-1.086 0-2.027-.2389-2.823-.7166-.797-.4777-1.414-1.1461-1.8533-2.0051-.4343-.8589-.6515-1.8627-.6515-3.0112s.2172-2.1547.6515-3.0184c.4393-.8638 1.0563-1.5346 1.8533-2.0124.796-.4777 1.737-.7166 2.823-.7166s2.027.2389 2.823.7166c.796.4778 1.411 1.1486 1.846 2.0124.439.8637.658 1.8699.658 3.0184s-.219 2.1523-.658 3.0112c-.435.859-1.05 1.5274-1.846 2.0051s-1.737.7166-2.823.7166zm.014-2.0992c.589 0 1.081-.1616 1.477-.4849.396-.3282.69-.7673.883-1.3174.198-.5502.297-1.163.297-1.8386 0-.6804-.099-1.2957-.297-1.8458-.193-.555-.487-.9966-.883-1.3247s-.888-.4922-1.477-.4922c-.603 0-1.105.1641-1.505.4922-.396.3281-.693.7697-.891 1.3247-.193.5501-.289 1.1654-.289 1.8458 0 .6756.096 1.2884.289 1.8386.198.5501.495.9892.891 1.3174.4.3233.902.4849 1.505.4849zm7.058 1.8821v-11.1184h4.669c1.318 0 2.357.263 3.12.789.767.526 1.151 1.2595 1.151 2.2005 0 .6225-.217 1.1316-.652 1.5273-.429.3909-1.015.6539-1.759.789.584.0483 1.096.1955 1.535.4416.444.2461.791.5694 1.042.9699.251.4006.377.8614.377 1.3826 0 .6129-.162 1.1461-.485 1.5997-.319.4488-.784.7987-1.397 1.0496-.608.2461-1.347.3692-2.215.3692zm2.454-2.063h2.932c.482 0 .861-.1134 1.136-.3402.275-.2317.413-.5453.413-.941 0-.4585-.138-.818-.413-1.0786-.275-.2654-.654-.3981-1.136-.3981h-2.932zm0-4.4517h2.266c.357 0 .663-.0507.919-.152.256-.1062.451-.2534.586-.4416.136-.193.203-.4222.203-.6876 0-.3812-.157-.6804-.47-.8976-.309-.2172-.739-.3257-1.289-.3257h-2.215zm11.912 6.739c-.705 0-1.339-.1254-1.904-.3764-.56-.2557-1.004-.6321-1.332-1.1292-.323-.497-.485-1.1099-.485-1.8385 0-.6274.116-1.1461.348-1.5563.231-.4102.547-.7384.948-.9845.4-.2461.851-.4319 1.353-.5573.507-.1303 1.031-.2244 1.571-.2823.652-.0676 1.18-.1279 1.585-.181.406-.0579.7-.1448.883-.2606.189-.1206.283-.3064.283-.5573v-.0435c0-.5453-.162-.9675-.485-1.2667-.324-.2992-.789-.4488-1.397-.4488-.642 0-1.151.1399-1.528.4198-.371.2799-.622.6105-.752.9917l-2.447-.3474c.193-.6756.512-1.2402.955-1.6939.444-.4584.987-.801 1.629-1.0278.642-.2317 1.351-.3475 2.128-.3475.536 0 1.069.0628 1.6.1882.531.1255 1.016.333 1.455.6225.439.2848.791.6732 1.057 1.1654.27.4923.405 1.1075.405 1.8459v7.4412h-2.519v-1.5274h-.087c-.159.3089-.383.5984-.673.8686-.285.2655-.644.4802-1.078.6443-.43.1592-.934.2388-1.513.2388zm.68-1.9254c.526 0 .982-.1037 1.368-.3113.386-.2123.683-.4922.89-.8396.213-.3475.319-.7263.319-1.1365v-1.3101c-.082.0675-.222.1303-.42.1882-.193.0579-.41.1085-.651.152-.242.0434-.48.082-.717.1158-.236.0338-.441.0627-.615.0869-.391.053-.741.1399-1.05.2605-.309.1207-.552.2896-.731.5067-.178.2124-.268.4874-.268.8252 0 .4826.176.8469.529 1.093.352.2461.801.3692 1.346.3692zm6.101-7.2675v-2.1498h9.728v2.1498h-3.597v8.9686h-2.534v-8.9686zm15.8 9.1857c-1.114 0-2.077-.2316-2.888-.6949-.806-.4681-1.426-1.1292-1.86-1.9833-.435-.859-.652-1.87-.652-3.033 0-1.1437.217-2.1474.652-3.0112.439-.8686 1.052-1.5442 1.838-2.0268.787-.4874 1.711-.7311 2.773-.7311.685 0 1.332.111 1.94.333.613.2172 1.153.555 1.621 1.0134.473.4584.845 1.0423 1.115 1.7517.27.7046.405 1.5442.405 2.519v.8035h-9.113v-1.7662h6.601c-.004-.5019-.113-.9483-.325-1.3391-.213-.3957-.509-.707-.891-.9338-.376-.2268-.815-.3402-1.317-.3402-.536 0-1.006.1303-1.412.3909-.405.2557-.721.5935-.948 1.0134-.222.415-.335.871-.34 1.368v1.5418c0 .6467.118 1.2016.355 1.6649.236.4584.567.8107.991 1.0568.425.2413.922.3619 1.491.3619.382 0 .727-.053 1.036-.1592.308-.111.576-.2726.803-.485.227-.2123.398-.4753.514-.789l2.447.2751c-.155.6466-.449 1.2112-.884 1.6938-.429.4777-.979.8493-1.65 1.1147-.671.2606-1.438.3909-2.302.3909zm5.915-.2171-.015-2.1571h.384c.289 0 .533-.0652.731-.1955s.362-.3474.492-.6514c.13-.3089.232-.7239.304-1.2451.073-.5211.123-1.1702.152-1.9471l.196-4.9222h8.107v11.1184h-2.534v-8.9686h-3.192l-.174 3.5831c-.043.9265-.147 1.73-.311 2.4104-.159.6756-.386 1.233-.68 1.6721-.29.4392-.654.7673-1.093.9845-.439.2123-.958.3185-1.557.3185zm14.284-7.4991h3.279c1.418 0 2.516.345 3.293 1.0351.777.69 1.168 1.5948 1.173 2.7144-.005.7287-.184 1.3753-.536 1.9399-.347.5646-.854 1.0086-1.52 1.3319-.661.3185-1.465.4778-2.41.4778h-5.053v-11.1184h2.526v8.9685h2.527c.569 0 1.037-.1448 1.404-.4343.367-.2944.55-.6708.55-1.1292 0-.4826-.183-.8759-.55-1.1799s-.835-.456-1.404-.456h-3.279z" fill="#000"/><path d="m38.936 95.863c0-4.6103 3.7374-8.3476 8.3476-8.3476h228.9734c4.611 0 8.348 3.7373 8.348 8.3476v39.517c0 4.61-3.737 8.348-8.348 8.348h-228.9734c-4.6102 0-8.3476-3.738-8.3476-8.348z" fill="#383838" fill-opacity=".02"/><path d="m39.4565 95.863c0-4.3228 3.5043-7.8271 7.8271-7.8271h228.9734c4.323 0 7.827 3.5043 7.827 7.8271v39.517c0 4.323-3.504 7.827-7.827 7.827h-228.9734c-4.3228 0-7.8271-3.504-7.8271-7.827z" stroke="#051f51" stroke-opacity=".04" stroke-width="1.04097"/><path d="m51.7471 110.822v-3.176h.5856c.2011-.184.3903-.442.5678-.777.1804-.337.3327-.786.4569-1.348.1271-.565.2114-1.282.2528-2.152l.1952-3.8322h5.3941v8.1092h1.0469v3.158h-1.0469v-2.182h-6.4055v2.2zm1.8986-3.176h4.5069v-7.133h-3.3535l-.142 2.856c-.0355.663-.0976 1.263-.1863 1.801-.0887.536-.2026 1.01-.3416 1.424-.139.411-.3001.762-.4835 1.052zm10.1262 1.135c-.4318 0-.8236-.081-1.1756-.244-.3519-.165-.6313-.403-.8383-.714-.2071-.313-.3106-.692-.3106-1.135 0-.391.0769-.707.2307-.95.1538-.245.3593-.437.6166-.576s.5412-.243.8517-.311c.3135-.071.6284-.127.9449-.169.414-.053.7496-.093 1.0069-.119.2603-.03.4495-.079.5678-.147.1213-.068.1819-.186.1819-.355v-.035c0-.438-.1198-.778-.3593-1.02-.2366-.243-.5959-.364-1.0779-.364-.4998 0-.8917.109-1.1756.328s-.4835.453-.5988.701l-.9937-.355c.1775-.414.414-.736.7098-.967.2987-.233.624-.396.9759-.488.3549-.094.7038-.142 1.0469-.142.2188 0 .4702.027.7541.08.2868.05.5633.155.8295.315.2691.16.4924.401.6698.723.1775.322.2662.754.2662 1.295v4.49h-1.0469v-.923h-.0532c-.071.148-.1893.306-.3549.475-.1656.168-.3859.312-.661.43-.275.118-.6106.177-1.0069.177zm.1597-.94c.414 0 .763-.081 1.0469-.244.2868-.163.5027-.373.6476-.63.1479-.257.2218-.528.2218-.812v-.958c-.0444.053-.142.102-.2928.146-.1478.042-.3194.079-.5145.111-.1923.03-.3801.057-.5634.08-.1804.021-.3268.039-.4392.053-.272.036-.5264.094-.763.173-.2336.077-.4228.194-.5678.351-.1419.154-.2129.364-.2129.63 0 .363.1346.639.4037.825.2721.183.6166.275 1.0336.275zm3.9469-5.057v-.976h5.536v.976h-2.2357v5.838h-1.0469v-5.838zm8.7144 5.997c-.4318 0-.8236-.081-1.1755-.244-.352-.165-.6314-.403-.8384-.714-.2071-.313-.3106-.692-.3106-1.135 0-.391.0769-.707.2307-.95.1538-.245.3593-.437.6166-.576s.5412-.243.8517-.311c.3135-.071.6284-.127.9449-.169.414-.053.7496-.093 1.0069-.119.2603-.03.4495-.079.5678-.147.1213-.068.1819-.186.1819-.355v-.035c0-.438-.1198-.778-.3593-1.02-.2366-.243-.5959-.364-1.0779-.364-.4998 0-.8917.109-1.1756.328s-.4835.453-.5988.701l-.9937-.355c.1775-.414.414-.736.7098-.967.2987-.233.624-.396.9759-.488.3549-.094.7038-.142 1.0469-.142.2188 0 .4702.027.7541.08.2868.05.5633.155.8295.315.2691.16.4924.401.6698.723.1775.322.2662.754.2662 1.295v4.49h-1.0469v-.923h-.0532c-.071.148-.1893.306-.3549.475-.1656.168-.3859.312-.661.43-.275.118-.6106.177-1.0069.177zm.1597-.94c.414 0 .763-.081 1.0469-.244.2868-.163.5027-.373.6476-.63.1479-.257.2218-.528.2218-.812v-.958c-.0444.053-.1419.102-.2928.146-.1478.042-.3194.079-.5145.111-.1923.03-.3801.057-.5634.08-.1804.021-.3268.039-.4392.053-.272.036-.5264.094-.7629.173-.2337.077-.4229.194-.5678.351-.142.154-.213.364-.213.63 0 .363.1346.639.4037.825.2721.183.6166.275 1.0336.275zm8.3872 3.336v-9.369h1.0114v1.082h.1243c.0768-.118.1833-.269.3193-.452.139-.186.3372-.352.5945-.497.2602-.148.6121-.222 1.0557-.222.5737 0 1.0794.144 1.5171.431.4377.286.7793.693 1.0247 1.219.2455.527.3682 1.148.3682 1.864 0 .721-.1227 1.347-.3682 1.876-.2454.526-.5855.934-1.0203 1.224-.4347.287-.9359.431-1.5037.431-.4377 0-.7882-.073-1.0514-.218-.2632-.148-.4657-.315-.6077-.501-.1419-.189-.2514-.346-.3282-.47h-.0888v3.602zm1.0292-5.962c0 .514.0754.968.2262 1.362.1508.39.3712.696.661.918.2898.219.6447.328 1.0646.328.4377 0 .8029-.115 1.0957-.346.2957-.234.5175-.547.6654-.94.1508-.397.2262-.837.2262-1.322 0-.479-.0739-.911-.2218-1.296-.1449-.387-.3652-.693-.6609-.918-.2928-.227-.661-.341-1.1046-.341-.4258 0-.7837.108-1.0735.323-.2898.213-.5086.512-.6565.897-.1479.381-.2218.826-.2218 1.335zm9.351 3.549c-.6151 0-1.1549-.147-1.6191-.44-.4614-.292-.8222-.702-1.0824-1.228-.2573-.527-.3859-1.142-.3859-1.846 0-.709.1286-1.329.3859-1.858.2602-.53.621-.941 1.0824-1.234.4642-.292 1.004-.439 1.6191-.439s1.1533.147 1.6147.439c.4643.293.825.704 1.0823 1.234.2603.529.3904 1.149.3904 1.858 0 .704-.1301 1.319-.3904 1.846-.2573.526-.618.936-1.0823 1.228-.4614.293-.9996.44-1.6147.44zm0-.941c.4672 0 .8517-.12 1.1533-.359.3017-.24.5249-.555.6698-.945.145-.39.2174-.813.2174-1.269 0-.455-.0724-.88-.2174-1.273-.1449-.393-.3681-.711-.6698-.954-.3016-.242-.6861-.363-1.1533-.363-.4673 0-.8517.121-1.1534.363-.3016.243-.5249.561-.6698.954s-.2174.818-.2174 1.273c0 .456.0725.879.2174 1.269s.3682.705.6698.945c.3017.239.6861.359 1.1534.359zm3.979.799 2.768-3.46-2.7325-3.354h1.2425l2.271 2.91h.568v-2.91h1.046v2.91h.551l2.271-2.91h1.242l-2.715 3.354 2.75 3.46h-1.26l-2.306-2.928h-.533v2.928h-1.046v-2.928h-.533l-2.324 2.928zm10.031 1.951v-2.927h.568c.139-.145.258-.302.359-.471.1-.168.188-.368.262-.598.077-.234.142-.518.195-.852.053-.337.1-.744.142-1.22l.23-2.697h4.33v5.838h1.047v2.927h-1.047v-1.951h-5.039v1.951zm1.756-2.927h3.283v-4.862h-2.307l-.177 1.721c-.074.713-.166 1.335-.275 1.868-.11.532-.284.956-.524 1.273zm9.623 1.118c-.656 0-1.223-.145-1.699-.435-.473-.293-.838-.701-1.096-1.225-.254-.526-.381-1.138-.381-1.836s.127-1.313.381-1.845c.258-.536.616-.953 1.074-1.251.461-.302 1-.453 1.615-.453.355 0 .705.059 1.051.178.346.118.661.31.945.576.284.264.51.613.679 1.047.168.435.252.97.252 1.606v.444h-5.252v-.905h4.188c0-.385-.077-.728-.231-1.029-.151-.302-.367-.54-.648-.715-.278-.174-.606-.261-.984-.261-.417 0-.778.103-1.083.31-.301.204-.533.47-.696.799-.163.328-.244.68-.244 1.055v.604c0 .514.089.95.266 1.308.18.355.43.626.75.812.319.183.69.275 1.113.275.275 0 .524-.038.745-.115.225-.08.419-.198.581-.355.163-.16.289-.358.378-.595l1.011.284c-.107.343-.285.645-.537.905-.251.258-.562.459-.931.604-.37.142-.786.213-1.247.213zm8.974-4.028v.976h-3.762v-.976zm-3.513-2.928v6.814h-1.047v-6.814zm4.312 0v6.814h-1.047v-6.814zm2.958 5.27 3.283-5.27h1.206v6.814h-1.046v-5.27l-3.265 5.27h-1.225v-6.814h1.047zm10.506 1.544v-5.856h-1.81c-.408 0-.729.095-.963.284-.233.189-.35.45-.35.781 0 .325.105.581.315.767.213.186.504.28.874.28h2.2v.976h-2.2c-.462 0-.859-.082-1.194-.244-.334-.163-.591-.395-.771-.697-.181-.304-.271-.665-.271-1.082 0-.42.095-.781.284-1.083.189-.301.46-.533.812-.696.355-.163.776-.244 1.264-.244h2.803v6.814zm-4.543 0 1.934-3.389h1.136l-1.934 3.389z" fill="#858585"/><path d="m52.3977 129.137v-1.206l5.3232-8.423h.8753v1.869h-.5914l-4.022 6.365v.094h7.1685v1.301zm5.7017 2.485v-2.851-.562-8.701h1.3958v12.114zm14.2113-12.114v12.114h-1.4668v-10.576h-.071l-2.9573 1.964v-1.491l3.0283-2.011zm3.8622 12.114 5.4178-10.718v-.094h-6.2458v-1.302h7.76v1.373l-5.3942 10.741zm12.8273.165c-.8911 0-1.6501-.242-2.2771-.727-.6269-.489-1.106-1.197-1.4372-2.124-.3313-.93-.4969-2.054-.4969-3.371 0-1.309.1656-2.427.4969-3.354.3351-.93.8162-1.64 1.4431-2.129.6309-.493 1.388-.739 2.2712-.739.8833 0 1.6384.246 2.2653.739.6309.489 1.112 1.199 1.4432 2.129.3352.927.5027 2.045.5027 3.354 0 1.317-.1656 2.441-.4968 3.371-.3312.927-.8103 1.635-1.4372 2.124-.627.485-1.386.727-2.2772.727zm0-1.301c.8833 0 1.5694-.426 2.0583-1.278.489-.851.7334-2.066.7334-3.643 0-1.049-.1123-1.942-.3371-2.679-.2208-.738-.5402-1.3-.9582-1.686-.414-.386-.9128-.58-1.4964-.58-.8753 0-1.5594.432-2.0523 1.296-.4929.859-.7394 2.076-.7394 3.649 0 1.049.1105 1.94.3313 2.673.2208.734.5382 1.292.9522 1.674.418.383.9207.574 1.5082.574zm15.0938 1.301c-.891 0-1.65-.242-2.277-.727-.627-.489-1.106-1.197-1.437-2.124-.331-.93-.4969-2.054-.4969-3.371 0-1.309.1659-2.427.4969-3.354.335-.93.816-1.64 1.443-2.129.631-.493 1.388-.739 2.271-.739.884 0 1.639.246 2.266.739.63.489 1.112 1.199 1.443 2.129.335.927.502 2.045.502 3.354 0 1.317-.165 2.441-.496 3.371-.332.927-.811 1.635-1.438 2.124-.627.485-1.386.727-2.277.727zm0-1.301c.884 0 1.57-.426 2.059-1.278.489-.851.733-2.066.733-3.643 0-1.049-.112-1.942-.337-2.679-.221-.738-.54-1.3-.958-1.686-.414-.386-.913-.58-1.497-.58-.875 0-1.559.432-2.052 1.296-.493.859-.739 2.076-.739 3.649 0 1.049.11 1.94.331 2.673.221.734.538 1.292.952 1.674.418.383.921.574 1.508.574zm10.41 1.301c-.891 0-1.65-.242-2.277-.727-.627-.489-1.106-1.197-1.437-2.124-.332-.93-.497-2.054-.497-3.371 0-1.309.165-2.427.497-3.354.335-.93.816-1.64 1.443-2.129.631-.493 1.388-.739 2.271-.739s1.638.246 2.265.739c.631.489 1.112 1.199 1.443 2.129.336.927.503 2.045.503 3.354 0 1.317-.165 2.441-.497 3.371-.331.927-.81 1.635-1.437 2.124-.627.485-1.386.727-2.277.727zm0-1.301c.883 0 1.569-.426 2.058-1.278.489-.851.734-2.066.734-3.643 0-1.049-.113-1.942-.337-2.679-.221-.738-.541-1.3-.959-1.686-.414-.386-.912-.58-1.496-.58-.875 0-1.559.432-2.052 1.296-.493.859-.74 2.076-.74 3.649 0 1.049.111 1.94.332 2.673.22.734.538 1.292.952 1.674.418.383.92.574 1.508.574zm10.41 1.301c-.891 0-1.65-.242-2.277-.727-.627-.489-1.106-1.197-1.438-2.124-.331-.93-.496-2.054-.496-3.371 0-1.309.165-2.427.496-3.354.335-.93.817-1.64 1.443-2.129.631-.493 1.388-.739 2.272-.739.883 0 1.638.246 2.265.739.631.489 1.112 1.199 1.443 2.129.335.927.503 2.045.503 3.354 0 1.317-.166 2.441-.497 3.371-.331.927-.81 1.635-1.437 2.124-.627.485-1.386.727-2.277.727zm0-1.301c.883 0 1.569-.426 2.058-1.278.489-.851.733-2.066.733-3.643 0-1.049-.112-1.942-.337-2.679-.221-.738-.54-1.3-.958-1.686-.414-.386-.913-.58-1.496-.58-.876 0-1.56.432-2.053 1.296-.493.859-.739 2.076-.739 3.649 0 1.049.11 1.94.331 2.673.221.734.538 1.292.952 1.674.418.383.921.574 1.509.574zm16.655-3.785h-6.151v-1.302h6.151c.568 0 1.037-.098 1.408-.295.371-.201.647-.473.828-.817.181-.347.272-.741.272-1.182 0-.442-.091-.834-.272-1.177-.181-.347-.457-.62-.828-.817-.371-.201-.84-.301-1.408-.301h-2.768v10.812h-1.467v-12.114h4.235c.899 0 1.641.164 2.224.491.584.328 1.017.763 1.301 1.308.284.544.426 1.143.426 1.798 0 .654-.142 1.253-.426 1.798-.284.544-.717.979-1.301 1.307-.583.327-1.325.491-2.224.491zm-.094 1.135v1.301h-6.057v-1.301z" fill="#32393e"/><g filter="url(#a)"><path clip-rule="evenodd" d="m300.912 111.367c0-2.299 1.864-4.163 4.164-4.163h8.328c2.299 0 4.163 1.864 4.163 4.163v8.328c0 2.3-1.864 4.164-4.163 4.164h-8.328c-2.3 0-4.164-1.864-4.164-4.164z" fill="#5392f7" fill-rule="evenodd"/><path d="m301.432 111.367c0-2.012 1.632-3.643 3.644-3.643h8.328c2.012 0 3.643 1.631 3.643 3.643v8.328c0 2.012-1.631 3.644-3.643 3.644h-8.328c-2.012 0-3.644-1.632-3.644-3.644z" stroke="#2473f5" stroke-width="1.04097"/></g><path clip-rule="evenodd" d="m307.437 119.547-3.266-3.557c-.182-.195-.182-.514 0-.712l.66-.711c.182-.195.477-.195.659 0l2.277 2.49 5.074-5.543c.182-.195.478-.195.66 0l.66.712c.182.196.182.516 0 .71l-6.065 6.611c-.182.196-.477.196-.659 0z" fill="#fff" fill-rule="evenodd"/><path d="m327.226 109.008h2.218l3.856 9.417h.142l3.856-9.417h2.218v12.114h-1.739v-8.766h-.112l-3.572 8.748h-1.444l-3.572-8.754h-.112v8.772h-1.739zm15.736 15.52c-.264 0-.505-.021-.722-.065-.216-.039-.378-.082-.485-.13l.426-1.449c.324.087.611.124.864.113.252-.012.475-.107.668-.284.197-.178.371-.468.521-.87l.218-.603-3.324-9.203h1.893l2.301 7.05h.095l2.3-7.05h1.899l-3.744 10.297c-.173.473-.394.873-.662 1.201-.269.331-.588.579-.959.745-.37.166-.8.248-1.289.248zm7.549-3.406 3.519-4.649-3.478-4.436h2.059l2.809 3.773h.633v-3.773h1.768v3.773h.616l2.809-3.773h2.058l-3.46 4.436 3.502 4.649h-2.1l-2.833-3.786h-.592v3.786h-1.768v-3.786h-.592l-2.85 3.786zm17.914.183c-.879 0-1.636-.199-2.271-.597-.631-.403-1.116-.957-1.455-1.662-.339-.706-.509-1.515-.509-2.425 0-.923.174-1.737.521-2.443.347-.71.836-1.264 1.467-1.662s1.374-.598 2.229-.598c.69 0 1.306.129 1.846.385.54.252.976.607 1.307 1.065.335.457.534.991.597 1.602h-1.721c-.094-.425-.311-.792-.65-1.1-.336-.307-.785-.461-1.349-.461-.493 0-.925.13-1.295.39-.367.257-.653.623-.858 1.1-.205.474-.307 1.034-.307 1.68 0 .663.1 1.234.301 1.715s.485.854.852 1.118c.371.264.806.397 1.307.397.335 0 .639-.062.911-.184.276-.126.507-.305.692-.538.189-.233.321-.513.396-.84h1.721c-.063.588-.254 1.112-.573 1.573-.32.462-.748.824-1.284 1.089-.532.264-1.157.396-1.875.396zm5.436-.183v-9.085h1.769v3.809h.851l2.999-3.809h2.188l-3.519 4.418 3.561 4.667h-2.195l-2.738-3.632h-1.147v3.632zm12.488.183c-.852 0-1.595-.195-2.23-.586-.635-.39-1.128-.936-1.479-1.638s-.526-1.522-.526-2.46c0-.943.175-1.767.526-2.473s.844-1.254 1.479-1.644 1.378-.586 2.23-.586c.851 0 1.595.196 2.23.586.634.39 1.127.938 1.478 1.644s.527 1.53.527 2.473c0 .938-.176 1.758-.527 2.46s-.844 1.248-1.478 1.638c-.635.391-1.379.586-2.23.586zm.006-1.485c.552 0 1.009-.146 1.372-.437.363-.292.631-.68.804-1.165.178-.485.266-1.02.266-1.603 0-.58-.088-1.112-.266-1.597-.173-.489-.441-.882-.804-1.177-.363-.296-.82-.444-1.372-.444-.556 0-1.018.148-1.384.444-.363.295-.633.688-.811 1.177-.173.485-.26 1.017-.26 1.597 0 .583.087 1.118.26 1.603.178.485.448.873.811 1.165.366.291.828.437 1.384.437zm7.748-1.177 4.004-6.606h1.905v9.085h-1.733v-6.613l-3.987 6.613h-1.922v-9.085h1.733zm3.247-9.682h1.455c0 .667-.236 1.209-.709 1.627-.47.414-1.105.621-1.905.621-.796 0-1.429-.207-1.899-.621-.469-.418-.703-.96-.703-1.627h1.449c0 .296.086.558.26.787.173.225.471.337.893.337.414 0 .71-.112.887-.337.182-.225.272-.487.272-.787z" fill="#000"/><g filter="url(#b)"><path clip-rule="evenodd" d="m432.471 111.367c0-2.299 1.864-4.163 4.164-4.163h8.327c2.3 0 4.164 1.864 4.164 4.163v8.328c0 2.3-1.864 4.164-4.164 4.164h-8.327c-2.3 0-4.164-1.864-4.164-4.164z" fill="#5392f7" fill-rule="evenodd"/><path d="m432.991 111.367c0-2.012 1.631-3.643 3.644-3.643h8.327c2.013 0 3.644 1.631 3.644 3.643v8.328c0 2.012-1.631 3.644-3.644 3.644h-8.327c-2.013 0-3.644-1.632-3.644-3.644z" stroke="#2473f5" stroke-width="1.04097"/></g><path clip-rule="evenodd" d="m438.995 119.547-3.265-3.557c-.182-.195-.182-.514 0-.712l.66-.711c.182-.195.477-.195.659 0l2.277 2.49 5.074-5.543c.182-.195.478-.195.66 0l.659.712c.182.196.182.516 0 .71l-6.064 6.611c-.182.196-.478.196-.66 0z" fill="#fff" fill-rule="evenodd"/><path d="m466.639 109.008v12.114h-1.81v-12.114zm-8.724 12.114 3.88-6.341-3.608-5.773h2.236l3.005 5.241h4.654l2.981-5.241h2.23l-3.596 5.785 3.856 6.329h-2.135l-3.046-5.17h-5.258l-3.087 5.17zm20.542.183c-.895 0-1.666-.191-2.313-.574-.642-.386-1.139-.928-1.49-1.626-.347-.702-.521-1.524-.521-2.467 0-.93.174-1.75.521-2.46.351-.71.84-1.264 1.467-1.662.631-.398 1.368-.598 2.212-.598.512 0 1.009.085 1.49.255.481.169.913.435 1.296.798.382.363.684.834.905 1.414.22.576.331 1.275.331 2.1v.626h-7.222v-1.324h5.489c0-.466-.095-.878-.284-1.237-.189-.362-.456-.648-.799-.857-.339-.209-.737-.314-1.194-.314-.497 0-.931.123-1.302.367-.366.241-.65.556-.851.946-.197.387-.296.807-.296 1.26v1.035c0 .608.106 1.124.319 1.55.217.426.519.751.905.976.387.221.838.331 1.355.331.335 0 .641-.047.917-.142.276-.098.514-.244.715-.438.201-.193.355-.431.462-.715l1.673.301c-.134.493-.374.925-.721 1.296-.343.366-.775.652-1.296.857-.516.201-1.106.302-1.768.302zm11.83-5.489v1.532h-4.921v-1.532zm-4.424-3.779v9.085h-1.733v-9.085zm5.66 0v9.085h-1.727v-9.085zm6.005 9.268c-.879 0-1.636-.199-2.271-.597-.631-.403-1.116-.957-1.455-1.662-.339-.706-.509-1.515-.509-2.425 0-.923.174-1.737.521-2.443.347-.71.836-1.264 1.466-1.662.631-.398 1.375-.598 2.23-.598.69 0 1.305.129 1.846.385.54.252.976.607 1.307 1.065.335.457.534.991.597 1.602h-1.721c-.095-.425-.312-.792-.651-1.1-.335-.307-.784-.461-1.348-.461-.493 0-.925.13-1.295.39-.367.257-.653.623-.858 1.1-.205.474-.308 1.034-.308 1.68 0 .663.101 1.234.302 1.715s.485.854.852 1.118c.37.264.806.397 1.307.397.335 0 .639-.062.911-.184.276-.126.506-.305.692-.538.189-.233.321-.513.396-.84h1.721c-.063.588-.254 1.112-.574 1.573-.319.462-.747.824-1.283 1.089-.532.264-1.157.396-1.875.396zm5.436-.183v-9.085h1.768v3.809h.852l2.999-3.809h2.188l-3.519 4.418 3.561 4.667h-2.195l-2.738-3.632h-1.148v3.632zm10.768-2.479 4.004-6.606h1.905v9.085h-1.733v-6.613l-3.987 6.613h-1.922v-9.085h1.733zm9.832 0 4.004-6.606h1.905v9.085h-1.733v-6.613l-3.987 6.613h-1.922v-9.085h1.733zm3.247-9.682h1.455c0 .667-.237 1.209-.71 1.627-.469.414-1.104.621-1.904.621-.797 0-1.43-.207-1.899-.621-.469-.418-.704-.96-.704-1.627h1.449c0 .296.087.558.261.787.173.225.471.337.893.337.414 0 .709-.112.887-.337.181-.225.272-.487.272-.787z" fill="#000"/><g filter="url(#c)"><path clip-rule="evenodd" d="m578.761 111.458c0-2.3 1.864-4.164 4.164-4.164h8.328c2.3 0 4.164 1.864 4.164 4.164v8.328c0 2.299-1.864 4.163-4.164 4.163h-8.328c-2.3 0-4.164-1.864-4.164-4.163z" fill="#5392f7" fill-rule="evenodd"/><path d="m582.925 107.814h8.328c2.012 0 3.643 1.632 3.643 3.644v8.328c0 2.012-1.631 3.643-3.643 3.643h-8.328c-2.012 0-3.643-1.631-3.643-3.643v-8.328c0-2.012 1.631-3.644 3.643-3.644z" stroke="#2473f5" stroke-width="1.04097"/></g><path clip-rule="evenodd" d="m585.286 119.638-3.266-3.557c-.181-.196-.181-.515 0-.712l.66-.711c.182-.196.478-.196.66 0l2.276 2.49 5.075-5.543c.182-.196.477-.196.659 0l.66.712c.182.195.182.515 0 .71l-6.064 6.611c-.182.195-.478.195-.66 0" fill="#fff" fill-rule="evenodd"/><path d="m615.136 112.948h-1.845c-.071-.395-.204-.742-.397-1.041-.193-.3-.43-.554-.709-.763-.28-.209-.594-.367-.941-.474-.343-.106-.708-.159-1.094-.159-.698 0-1.323.175-1.875.526-.548.351-.982.866-1.301 1.544-.316.678-.473 1.506-.473 2.484 0 .986.157 1.818.473 2.496.319.678.755 1.191 1.307 1.538s1.173.52 1.863.52c.382 0 .745-.051 1.088-.154.347-.106.661-.262.941-.467s.516-.455.709-.751c.198-.3.334-.643.409-1.029l1.845.006c-.099.595-.29 1.143-.574 1.644-.28.497-.641.927-1.082 1.29-.438.358-.939.636-1.502.833-.564.198-1.179.296-1.846.296-1.049 0-1.983-.248-2.803-.745-.821-.501-1.467-1.216-1.94-2.147-.47-.931-.704-2.041-.704-3.33 0-1.293.236-2.403.71-3.33.473-.93 1.119-1.644 1.94-2.141.82-.501 1.752-.751 2.797-.751.643 0 1.242.093 1.798.278.56.181 1.063.449 1.508.804.446.351.815.781 1.106 1.29.292.504.489 1.082.592 1.733zm1.349.615v-1.526h7.665v1.526h-2.963v7.559h-1.727v-7.559zm9.348 10.965v-12.491h1.727v1.472h.148c.103-.189.251-.408.444-.656s.461-.465.804-.651c.343-.189.797-.284 1.361-.284.733 0 1.388.186 1.963.556.576.371 1.027.905 1.355 1.603.331.698.496 1.538.496 2.52s-.163 1.824-.49 2.525c-.328.698-.777 1.237-1.349 1.615-.572.375-1.224.562-1.958.562-.552 0-1.003-.093-1.354-.278-.347-.185-.619-.402-.816-.651-.198-.248-.349-.469-.456-.662h-.106v4.82zm1.733-7.949c0 .639.093 1.199.278 1.68.186.481.454.858.805 1.13.351.268.78.402 1.289.402.528 0 .97-.14 1.325-.42.355-.284.623-.668.804-1.153.186-.485.278-1.032.278-1.639 0-.599-.09-1.137-.272-1.615-.177-.477-.445-.853-.804-1.129-.355-.276-.799-.414-1.331-.414-.513 0-.946.132-1.301.396-.351.264-.617.633-.799 1.106-.181.473-.272 1.025-.272 1.656zm11.003 4.744c-.575 0-1.096-.107-1.561-.32-.465-.217-.834-.53-1.106-.94-.268-.41-.402-.913-.402-1.508 0-.513.098-.935.295-1.266.198-.331.464-.594.799-.787s.71-.339 1.124-.437c.414-.099.836-.174 1.265-.225.544-.063.986-.115 1.325-.154.339-.043.586-.112.74-.207.153-.095.23-.248.23-.461v-.042c0-.516-.146-.916-.437-1.2-.288-.284-.718-.426-1.29-.426-.595 0-1.064.132-1.408.396-.339.26-.573.55-.703.87l-1.662-.379c.197-.552.485-.998.863-1.337.383-.343.822-.591 1.319-.745.497-.158 1.019-.237 1.567-.237.363 0 .748.044 1.154.131.41.082.792.236 1.147.461.359.225.653.546.882.964.228.414.343.952.343 1.615v6.033h-1.727v-1.242h-.071c-.115.228-.286.453-.515.674s-.522.404-.881.55-.789.219-1.29.219zm.385-1.42c.489 0 .907-.096 1.254-.29.351-.193.617-.445.798-.757.185-.315.278-.652.278-1.011v-1.171c-.063.063-.185.122-.367.177-.177.052-.38.097-.609.136-.228.036-.451.069-.668.101-.217.027-.398.051-.544.071-.343.043-.657.116-.941.219-.28.102-.504.25-.674.443-.166.19-.248.442-.248.757 0 .438.161.769.485.994.323.221.735.331 1.236.331zm7.663-7.866 2.005 3.537 2.022-3.537h1.934l-2.833 4.542 2.857 4.543h-1.934l-2.046-3.395-2.041 3.395h-1.94l2.827-4.543-2.791-4.542zm11.059 9.268c-.852 0-1.595-.195-2.23-.586-.635-.39-1.128-.936-1.479-1.638s-.526-1.522-.526-2.46c0-.943.175-1.767.526-2.473s.844-1.254 1.479-1.644 1.378-.586 2.23-.586c.851 0 1.595.196 2.23.586.634.39 1.127.938 1.478 1.644s.527 1.53.527 2.473c0 .938-.176 1.758-.527 2.46s-.844 1.248-1.478 1.638c-.635.391-1.379.586-2.23.586zm.006-1.485c.552 0 1.009-.146 1.372-.437.363-.292.631-.68.804-1.165.178-.485.266-1.02.266-1.603 0-.58-.088-1.112-.266-1.597-.173-.489-.441-.882-.804-1.177-.363-.296-.82-.444-1.372-.444-.556 0-1.018.148-1.384.444-.363.295-.633.688-.811 1.177-.173.485-.26 1.017-.26 1.597 0 .583.087 1.118.26 1.603.178.485.448.873.811 1.165.366.291.828.437 1.384.437zm6.015 1.302v-9.085h3.768c1.025 0 1.837.219 2.437.656.599.434.899 1.024.899 1.769 0 .532-.17.954-.509 1.265-.339.312-.789.521-1.348.627.406.048.778.17 1.117.367.339.193.612.454.817.781.209.327.313.717.313 1.171 0 .481-.124.907-.373 1.277-.248.367-.609.655-1.082.864-.469.205-1.035.308-1.697.308zm1.662-1.479h2.68c.437 0 .78-.105 1.029-.314.248-.209.372-.492.372-.851 0-.422-.124-.753-.372-.994-.249-.244-.592-.367-1.029-.367h-2.68zm0-3.821h2.124c.331 0 .615-.047.851-.142.241-.094.424-.229.55-.402.13-.177.196-.386.196-.627 0-.351-.144-.625-.432-.822s-.682-.296-1.183-.296h-2.106zm10.229 5.501c-.576 0-1.097-.107-1.562-.32-.465-.217-.834-.53-1.106-.94-.268-.41-.402-.913-.402-1.508 0-.513.098-.935.296-1.266.197-.331.463-.594.798-.787s.71-.339 1.124-.437c.414-.099.836-.174 1.266-.225.544-.063.985-.115 1.324-.154.34-.043.586-.112.74-.207s.23-.248.23-.461v-.042c0-.516-.146-.916-.437-1.2-.288-.284-.718-.426-1.29-.426-.595 0-1.064.132-1.407.396-.339.26-.574.55-.704.87l-1.662-.379c.197-.552.485-.998.863-1.337.383-.343.822-.591 1.319-.745.497-.158 1.02-.237 1.568-.237.362 0 .747.044 1.153.131.41.082.793.236 1.147.461.359.225.653.546.882.964.228.414.343.952.343 1.615v6.033h-1.727v-1.242h-.071c-.115.228-.286.453-.515.674s-.522.404-.881.55-.789.219-1.289.219zm.384-1.42c.489 0 .907-.096 1.254-.29.351-.193.617-.445.798-.757.186-.315.278-.652.278-1.011v-1.171c-.063.063-.185.122-.366.177-.178.052-.381.097-.61.136-.228.036-.451.069-.668.101-.217.027-.398.051-.544.071-.343.043-.657.116-.941.219-.279.102-.504.25-.674.443-.165.19-.248.442-.248.757 0 .438.161.769.485.994.323.221.735.331 1.236.331zm12.424-4.087v1.532h-4.921v-1.532zm-4.424-3.779v9.085h-1.733v-9.085zm5.66 0v9.085h-1.727v-9.085zm3.912 6.606 4.004-6.606h1.904v9.085h-1.733v-6.613l-3.986 6.613h-1.922v-9.085h1.733zm12.014 2.662c-.895 0-1.666-.191-2.313-.574-.642-.386-1.139-.928-1.49-1.626-.347-.702-.521-1.524-.521-2.467 0-.93.174-1.75.521-2.46.351-.71.84-1.264 1.467-1.662.631-.398 1.368-.598 2.212-.598.512 0 1.009.085 1.49.255.481.169.913.435 1.296.798.382.363.684.834.905 1.414.22.576.331 1.275.331 2.1v.626h-7.222v-1.324h5.489c0-.466-.095-.878-.284-1.237-.189-.362-.456-.648-.799-.857-.339-.209-.737-.314-1.194-.314-.497 0-.931.123-1.302.367-.366.241-.65.556-.851.946-.197.387-.296.807-.296 1.26v1.035c0 .608.106 1.124.319 1.55.217.426.519.751.905.976.387.221.838.331 1.355.331.335 0 .641-.047.917-.142.276-.098.514-.244.715-.438.201-.193.355-.431.462-.715l1.673.301c-.134.493-.374.925-.721 1.296-.343.366-.775.652-1.296.857-.516.201-1.106.302-1.768.302zm13.72 0c-.88 0-1.637-.199-2.271-.597-.631-.403-1.116-.957-1.455-1.662-.34-.706-.509-1.515-.509-2.425 0-.923.173-1.737.52-2.443.347-.71.836-1.264 1.467-1.662s1.374-.598 2.23-.598c.69 0 1.305.129 1.845.385.541.252.976.607 1.308 1.065.335.457.534.991.597 1.602h-1.721c-.095-.425-.312-.792-.651-1.1-.335-.307-.785-.461-1.348-.461-.493 0-.925.13-1.296.39-.366.257-.652.623-.857 1.1-.205.474-.308 1.034-.308 1.68 0 .663.101 1.234.302 1.715s.485.854.851 1.118c.371.264.807.397 1.308.397.335 0 .638-.062.91-.184.276-.126.507-.305.692-.538.19-.233.322-.513.397-.84h1.721c-.063.588-.254 1.112-.574 1.573-.319.462-.747.824-1.283 1.089-.533.264-1.158.396-1.875.396zm9.262 0c-.851 0-1.595-.195-2.229-.586-.635-.39-1.128-.936-1.479-1.638s-.526-1.522-.526-2.46c0-.943.175-1.767.526-2.473s.844-1.254 1.479-1.644c.634-.39 1.378-.586 2.229-.586.852 0 1.595.196 2.23.586s1.128.938 1.479 1.644.526 1.53.526 2.473c0 .938-.175 1.758-.526 2.46s-.844 1.248-1.479 1.638c-.635.391-1.378.586-2.23.586zm.006-1.485c.552 0 1.01-.146 1.373-.437.362-.292.63-.68.804-1.165.177-.485.266-1.02.266-1.603 0-.58-.089-1.112-.266-1.597-.174-.489-.442-.882-.804-1.177-.363-.296-.821-.444-1.373-.444-.556 0-1.017.148-1.384.444-.362.295-.633.688-.81 1.177-.173.485-.26 1.017-.26 1.597 0 .583.087 1.118.26 1.603.177.485.448.873.81 1.165.367.291.828.437 1.384.437zm5.478-1.1h1.81c.023.371.191.657.502.858.316.201.724.302 1.225.302.508 0 .942-.109 1.301-.326.359-.221.538-.562.538-1.023 0-.276-.069-.517-.207-.722-.134-.209-.325-.37-.574-.485-.244-.114-.534-.171-.869-.171h-1.479v-1.39h1.479c.501 0 .875-.114 1.124-.343.248-.229.372-.515.372-.858 0-.37-.134-.668-.402-.893-.264-.229-.633-.343-1.106-.343-.481 0-.881.109-1.201.325-.319.213-.487.489-.502.828h-1.787c.012-.508.166-.954.462-1.336.299-.387.702-.686 1.206-.899.509-.217 1.087-.326 1.733-.326.675 0 1.258.109 1.751.326s.873.516 1.142.899c.272.382.408.822.408 1.319 0 .501-.15.911-.45 1.23-.296.315-.682.542-1.159.68v.095c.351.023.662.13.934.319.273.189.485.44.639.751.154.312.231.665.231 1.059 0 .556-.154 1.037-.461 1.443-.304.406-.726.72-1.266.941-.536.217-1.15.325-1.84.325-.67 0-1.271-.105-1.804-.314-.528-.212-.948-.512-1.259-.899-.308-.386-.472-.843-.491-1.372zm11.403 2.603c-.575 0-1.096-.107-1.561-.32-.465-.217-.834-.53-1.106-.94-.268-.41-.402-.913-.402-1.508 0-.513.098-.935.296-1.266.197-.331.463-.594.798-.787s.71-.339 1.124-.437c.414-.099.836-.174 1.265-.225.545-.063.986-.115 1.325-.154.339-.043.586-.112.74-.207.153-.095.23-.248.23-.461v-.042c0-.516-.146-.916-.437-1.2-.288-.284-.718-.426-1.29-.426-.595 0-1.064.132-1.407.396-.339.26-.574.55-.704.87l-1.662-.379c.197-.552.485-.998.863-1.337.383-.343.822-.591 1.319-.745.497-.158 1.02-.237 1.568-.237.362 0 .747.044 1.153.131.41.082.793.236 1.147.461.359.225.653.546.882.964.228.414.343.952.343 1.615v6.033h-1.727v-1.242h-.071c-.115.228-.286.453-.515.674s-.522.404-.881.55-.789.219-1.29.219zm.385-1.42c.489 0 .907-.096 1.254-.29.351-.193.617-.445.798-.757.186-.315.278-.652.278-1.011v-1.171c-.063.063-.185.122-.366.177-.178.052-.381.097-.61.136-.228.036-.451.069-.668.101-.217.027-.398.051-.544.071-.343.043-.657.116-.941.219-.28.102-.504.25-.674.443-.165.19-.248.442-.248.757 0 .438.161.769.485.994.323.221.735.331 1.236.331zm10.182 1.402c-.895 0-1.666-.191-2.312-.574-.643-.386-1.14-.928-1.491-1.626-.347-.702-.52-1.524-.52-2.467 0-.93.173-1.75.52-2.46.351-.71.84-1.264 1.467-1.662.631-.398 1.368-.598 2.212-.598.513 0 1.01.085 1.491.255.481.169.912.435 1.295.798.382.363.684.834.905 1.414.221.576.331 1.275.331 2.1v.626h-7.222v-1.324h5.489c0-.466-.095-.878-.284-1.237-.189-.362-.455-.648-.798-.857-.339-.209-.738-.314-1.195-.314-.497 0-.931.123-1.301.367-.367.241-.651.556-.852.946-.197.387-.296.807-.296 1.26v1.035c0 .608.107 1.124.32 1.55.217.426.518.751.905.976.386.221.838.331 1.354.331.335 0 .641-.047.917-.142.276-.098.514-.244.715-.438.202-.193.355-.431.462-.715l1.674.301c-.134.493-.375.925-.722 1.296-.343.366-.775.652-1.295.857-.517.201-1.106.302-1.769.302zm10.771-2.372 2.934-6.896h1.526l-3.803 9.085h-1.313l-3.727-9.085h1.509zm-3.365-6.896v9.085h-1.733v-9.085zm6.778 9.085v-9.085h1.721v9.085zm16.909-1.526-.166 4.128h-1.733v-2.602h-1.13v-1.526zm-13.018-7.559h1.733v7.553h3.14v-7.553h1.733v7.553h3.141v-7.553h1.733v9.085h-11.48zm16.428 6.606 4.004-6.606h1.905v9.085h-1.733v-6.613l-3.987 6.613h-1.922v-9.085h1.733zm8.099 2.479v-9.085h1.768v3.809h.852l2.999-3.809h2.188l-3.519 4.418 3.561 4.667h-2.195l-2.738-3.632h-1.148v3.632zm12.487.183c-.851 0-1.594-.195-2.229-.586-.635-.39-1.128-.936-1.479-1.638s-.526-1.522-.526-2.46c0-.943.175-1.767.526-2.473s.844-1.254 1.479-1.644 1.378-.586 2.229-.586c.852 0 1.595.196 2.23.586s1.128.938 1.479 1.644.526 1.53.526 2.473c0 .938-.175 1.758-.526 2.46s-.844 1.248-1.479 1.638c-.635.391-1.378.586-2.23.586zm.006-1.485c.552 0 1.01-.146 1.373-.437.362-.292.63-.68.804-1.165.177-.485.266-1.02.266-1.603 0-.58-.089-1.112-.266-1.597-.174-.489-.442-.882-.804-1.177-.363-.296-.821-.444-1.373-.444-.556 0-1.017.148-1.384.444-.362.295-.632.688-.81 1.177-.173.485-.26 1.017-.26 1.597 0 .583.087 1.118.26 1.603.178.485.448.873.81 1.165.367.291.828.437 1.384.437zm6.016 1.302v-9.085h3.768c1.025 0 1.837.219 2.436.656.6.434.899 1.024.899 1.769 0 .532-.169.954-.508 1.265-.339.312-.789.521-1.349.627.406.048.779.17 1.118.367.339.193.611.454.816.781.209.327.314.717.314 1.171 0 .481-.124.907-.373 1.277-.248.367-.609.655-1.082.864-.469.205-1.035.308-1.698.308zm1.662-1.479h2.679c.438 0 .781-.105 1.029-.314.249-.209.373-.492.373-.851 0-.422-.124-.753-.373-.994-.248-.244-.591-.367-1.029-.367h-2.679zm0-3.821h2.123c.332 0 .615-.047.852-.142.241-.094.424-.229.55-.402.13-.177.195-.386.195-.627 0-.351-.144-.625-.432-.822-.287-.197-.682-.296-1.182-.296h-2.106z" fill="#000"/></g><rect height="177" rx="39" stroke="#000" stroke-opacity=".08" stroke-width="2" width="858" x="1" y="1"/></svg>