<svg fill="none" height="311" viewBox="0 0 860 311" width="860" xmlns="http://www.w3.org/2000/svg" xmlns:xlink="http://www.w3.org/1999/xlink"><filter id="a" color-interpolation-filters="sRGB" filterUnits="userSpaceOnUse" height="23.1135" width="23.1135" x="52.6594" y="57.9529"><feFlood flood-opacity="0" result="BackgroundImageFix"/><feColorMatrix in="SourceAlpha" result="hardAlpha" type="matrix" values="0 0 0 0 0 0 0 0 0 0 0 0 0 0 0 0 0 0 127 0"/><feOffset/><feComposite in2="hardAlpha" operator="out"/><feColorMatrix type="matrix" values="0 0 0 0 1 0 0 0 0 0.776 0 0 0 0 0.2 0 0 0 1 0"/><feBlend in2="BackgroundImageFix" mode="normal" result="effect1_dropShadow_983_12828"/><feBlend in="SourceGraphic" in2="effect1_dropShadow_983_12828" mode="normal" result="shape"/></filter><filter id="b" color-interpolation-filters="sRGB" filterUnits="userSpaceOnUse" height="23.1135" width="23.1135" x="407.599" y="57.9529"><feFlood flood-opacity="0" result="BackgroundImageFix"/><feColorMatrix in="SourceAlpha" result="hardAlpha" type="matrix" values="0 0 0 0 0 0 0 0 0 0 0 0 0 0 0 0 0 0 127 0"/><feOffset/><feComposite in2="hardAlpha" operator="out"/><feColorMatrix type="matrix" values="0 0 0 0 1 0 0 0 0 0.776 0 0 0 0 0.2 0 0 0 1 0"/><feBlend in2="BackgroundImageFix" mode="normal" result="effect1_dropShadow_983_12828"/><feBlend in="SourceGraphic" in2="effect1_dropShadow_983_12828" mode="normal" result="shape"/></filter><linearGradient id="c" gradientUnits="userSpaceOnUse" x1="123" x2="-.000001" y1="172" y2="172"><stop offset="0" stop-color="#fff"/><stop offset="1" stop-color="#fff" stop-opacity="0"/></linearGradient><clipPath id="d"><rect height="311" rx="40" width="860"/></clipPath><g clip-path="url(#d)"><rect fill="#fff" height="311" rx="40" width="860"/><path d="m0 0h786.809v237h-786.809z" fill="#fff" transform="translate(36.5957 36.5958)"/><g filter="url(#a)"><path clip-rule="evenodd" d="m52.6594 63.7313c0-3.1913 2.5871-5.7784 5.7784-5.7784h11.5568c3.1913 0 5.7784 2.5871 5.7784 5.7784v11.5567c0 3.1913-2.5871 5.7784-5.7784 5.7784h-11.5568c-3.1913 0-5.7784-2.5871-5.7784-5.7784z" fill="#5392f7" fill-rule="evenodd"/><path d="m58.4378 58.6752h11.5568c2.7924 0 5.0561 2.2637 5.0561 5.0561v11.5567c0 2.7924-2.2637 5.0561-5.0561 5.0561h-11.5568c-2.7924 0-5.0561-2.2637-5.0561-5.0561v-11.5567c0-2.7924 2.2637-5.0561 5.0561-5.0561z" stroke="#2473f5" stroke-width="1.4446"/></g><path clip-rule="evenodd" d="m61.7141 75.083-4.5316-4.9362c-.2525-.2716-.2525-.7136 0-.9881l.9154-.9867c.2525-.2716.6629-.2716.9154 0l3.1592 3.4555 7.0421-7.6925c.2525-.2716.6629-.2716.9154 0l.9154.9881c.2525.2716.2525.7151 0 .9852l-8.4159 9.1747c-.2524.2716-.6629.2716-.9154 0" fill="#fff" fill-rule="evenodd"/><path d="m89.1766 61.2539h3.078l5.3516 13.067h.197l5.3518-13.067h3.078v16.8098h-2.413v-12.1641h-.156l-4.958 12.1395h-2.0027l-4.9576-12.1477h-.1559v12.1723h-2.4132zm23.9554 17.0889c-.799 0-1.521-.1478-2.167-.4432-.646-.301-1.157-.736-1.535-1.3051-.372-.5691-.558-1.2668-.558-2.093 0-.7114.137-1.2969.411-1.7565.273-.4597.642-.8235 1.108-1.0917.465-.2681.985-.4706 1.559-.6074.575-.1368 1.16-.2407 1.757-.3119.755-.0875 1.368-.1586 1.838-.2134.471-.0602.813-.1559 1.026-.2872.214-.1314.32-.3448.32-.6403v-.0574c0-.7168-.202-1.2722-.607-1.6662-.4-.394-.996-.591-1.789-.591-.827 0-1.478.1833-1.954.5499-.471.3612-.796.7634-.977 1.2066l-2.306-.5253c.273-.7661.673-1.3844 1.198-1.855.531-.4761 1.141-.8208 1.831-1.0342.689-.2189 1.414-.3283 2.175-.3283.503 0 1.037.0602 1.6.1806.569.1149 1.1.3283 1.593.6402.498.3119.905.7578 1.223 1.3379.317.5745.476 1.3214.476 2.2407v8.3721h-2.397v-1.7236h-.099c-.158.3173-.396.6292-.714.9357-.317.3064-.725.5608-1.223.7633s-1.094.3037-1.789.3037zm.534-1.9699c.678 0 1.258-.1341 1.74-.4022.487-.2681.856-.6183 1.108-1.0506.257-.4378.385-.9056.385-1.4036v-1.6251c-.087.0875-.257.1696-.508.2462-.247.0711-.528.1341-.846.1888-.317.0492-.626.0957-.927.1395-.301.0383-.553.0711-.755.0985-.477.0602-.912.1614-1.306.3037-.388.1423-.7.3475-.935.6156-.23.2626-.345.6129-.345 1.0506 0 .6074.224 1.067.673 1.3789.449.3065 1.021.4597 1.716.4597zm7.133-8.7989v-2.1177h10.637v2.1177h-4.112v10.4897h-2.397v-10.4897zm17.82 10.7442c-1.242 0-2.312-.2654-3.209-.7962-.892-.5363-1.582-1.2886-2.069-2.2572-.481-.974-.722-2.1149-.722-3.4227 0-1.2914.241-2.4295.722-3.4145.487-.9849 1.166-1.7538 2.036-2.3064.875-.5527 1.898-.829 3.069-.829.712 0 1.401.1176 2.069.3529.667.2353 1.267.6047 1.797 1.1081.531.5034.95 1.1573 1.256 1.9617.307.7989.46 1.7702.46 2.9138v.87h-10.022v-1.8385h7.617c0-.6457-.131-1.2175-.394-1.7155-.263-.5034-.632-.9001-1.108-1.1901-.471-.2901-1.023-.4351-1.658-.4351-.69 0-1.292.1697-1.806.5089-.509.3338-.903.7716-1.182 1.3133-.273.5363-.41 1.119-.41 1.7483v1.4364c0 .8427.148 1.5595.443 2.1505.301.5909.72 1.0424 1.256 1.3543.536.3064 1.163.4596 1.879.4596.466 0 .89-.0657 1.273-.197.383-.1368.714-.3392.993-.6074.279-.2681.492-.5991.64-.9931l2.323.4186c-.186.684-.52 1.2831-1.001 1.7975-.477.5089-1.076.9056-1.798 1.1902-.717.279-1.535.4186-2.454.4186zm7.872 4.4733v-17.3352h2.397v2.0438h.205c.142-.2626.347-.5663.615-.9111.268-.3447.641-.6457 1.117-.9028.476-.2627 1.105-.394 1.887-.394 1.018 0 1.927.2572 2.725.7715.799.5144 1.426 1.2558 1.88 2.2244.46.9685.69 2.134.69 3.4966 0 1.3625-.228 2.5307-.682 3.5047-.454.9686-1.078 1.7155-1.871 2.2408-.794.5198-1.699.7798-2.717.7798-.766 0-1.393-.1286-1.88-.3858-.481-.2572-.859-.5582-1.132-.9029-.274-.3447-.485-.6511-.632-.9193h-.148v6.6895zm2.405-11.0315c0 .8865.128 1.6635.385 2.3311.258.6676.63 1.1901 1.117 1.5677.487.3721 1.083.5581 1.789.5581.733 0 1.346-.1942 1.839-.5827.492-.394.864-.9275 1.116-1.6006.257-.673.386-1.4309.386-2.2736 0-.8317-.126-1.5786-.378-2.2407-.246-.6621-.618-1.1847-1.116-1.5678-.493-.383-1.108-.5745-1.847-.5745-.711 0-1.313.1833-1.806.5499-.487.3666-.856.8783-1.108 1.5349-.251.6566-.377 1.4227-.377 2.2982zm14.005 2.8646 5.557-9.1683h2.643v12.6074h-2.405v-9.1764l-5.532 9.1764h-2.668v-12.6074h2.405zm19.784-3.9234v2.1259h-6.829v-2.1259zm-6.14-5.2449v12.6074h-2.405v-12.6074zm7.855 0v12.6074h-2.396v-12.6074zm8.334 12.8619c-1.22 0-2.271-.2764-3.152-.829-.875-.5582-1.548-1.327-2.019-2.3065-.471-.9794-.706-2.1012-.706-3.3652 0-1.2805.241-2.4104.722-3.3899.482-.9849 1.16-1.7538 2.036-2.3064.875-.5527 1.907-.829 3.094-.829.958 0 1.812.1778 2.561.5335.75.3502 1.355.8427 1.814 1.4774.465.6348.742 1.3762.829 2.2244h-2.388c-.132-.591-.433-1.0999-.903-1.5267-.465-.4268-1.089-.6402-1.872-.6402-.684 0-1.283.1806-1.797.5417-.509.3557-.906.8646-1.19 1.5267-.285.6566-.427 1.4336-.427 2.331 0 .9193.139 1.7128.418 2.3803.28.6676.674 1.1847 1.182 1.5513.515.3666 1.119.55 1.814.55.465 0 .887-.0849 1.264-.2545.383-.1751.704-.4241.961-.7469.262-.3229.446-.7114.55-1.1655h2.388c-.087.8153-.353 1.5431-.796 2.1833s-1.037 1.1436-1.781 1.5102c-.739.3667-1.606.55-2.602.55zm7.544-.2545v-12.6074h2.454v5.2859h1.182l4.161-5.2859h3.037l-4.884 6.1314 4.942 6.476h-3.046l-3.8-5.0396h-1.592v5.0396zm14.943-3.4391 5.557-9.1683h2.642v12.6074h-2.404v-9.1764l-5.533 9.1764h-2.667v-12.6074h2.405zm13.644 0 5.557-9.1683h2.643v12.6074h-2.405v-9.1764l-5.532 9.1764h-2.668v-12.6074h2.405zm4.506-13.4364h2.019c0 .9248-.328 1.6772-.985 2.2572-.651.5745-1.532.8618-2.643.8618-1.105 0-1.983-.2873-2.634-.8618-.652-.58-.977-1.3324-.977-2.2572h2.011c0 .4104.12.7743.361 1.0917.241.3119.654.4678 1.239.4678.575 0 .985-.1559 1.232-.4678.251-.3119.377-.6758.377-1.0917zm12.59 16.8755v-12.6074h2.454v5.2859h1.182l4.162-5.2859h3.037l-4.884 6.1314 4.941 6.476h-3.045l-3.8-5.0396h-1.593v5.0396zm16.207.2791c-.799 0-1.521-.1478-2.167-.4432-.645-.301-1.157-.736-1.534-1.3051-.373-.5691-.559-1.2668-.559-2.093 0-.7114.137-1.2969.411-1.7565.273-.4597.643-.8235 1.108-1.0917.465-.2681.985-.4706 1.559-.6074.575-.1368 1.16-.2407 1.757-.3119.755-.0875 1.368-.1586 1.838-.2134.471-.0602.813-.1559 1.026-.2872.214-.1314.321-.3448.321-.6403v-.0574c0-.7168-.203-1.2722-.608-1.6662-.399-.394-.996-.591-1.789-.591-.826 0-1.478.1833-1.954.5499-.47.3612-.796.7634-.976 1.2066l-2.307-.5253c.274-.7661.673-1.3844 1.199-1.855.53-.4761 1.14-.8208 1.83-1.0342.689-.2189 1.414-.3283 2.175-.3283.503 0 1.037.0602 1.601.1806.569.1149 1.099.3283 1.592.6402.498.3119.905.7578 1.223 1.3379.317.5745.476 1.3214.476 2.2407v8.3721h-2.397v-1.7236h-.098c-.159.3173-.397.6292-.714.9357-.318.3064-.725.5608-1.223.7633s-1.095.3037-1.79.3037zm.534-1.9699c.678 0 1.258-.1341 1.74-.4022.487-.2681.856-.6183 1.108-1.0506.257-.4378.386-.9056.386-1.4036v-1.6251c-.088.0875-.257.1696-.509.2462-.246.0711-.528.1341-.846.1888-.317.0492-.626.0957-.927.1395-.301.0383-.553.0711-.755.0985-.476.0602-.911.1614-1.305.3037-.389.1423-.701.3475-.936.6156-.23.2626-.345.6129-.345 1.0506 0 .6074.225 1.067.673 1.3789.449.3065 1.021.4597 1.716.4597zm8.697 1.6908v-12.6074h10.284v12.6074h-2.405v-10.4897h-5.491v10.4897zm15.71-3.4391 5.557-9.1683h2.643v12.6074h-2.405v-9.1764l-5.532 9.1764h-2.668v-12.6074h2.405zm9.676-7.0506v-2.1177h10.637v2.1177h-4.112v10.4897h-2.396v-10.4897zm16.055 10.7688c-.799 0-1.521-.1478-2.167-.4432-.645-.301-1.157-.736-1.535-1.3051-.372-.5691-.558-1.2668-.558-2.093 0-.7114.137-1.2969.411-1.7565.273-.4597.643-.8235 1.108-1.0917.465-.2681.985-.4706 1.559-.6074.575-.1368 1.16-.2407 1.757-.3119.755-.0875 1.368-.1586 1.838-.2134.471-.0602.813-.1559 1.026-.2872.214-.1314.32-.3448.32-.6403v-.0574c0-.7168-.202-1.2722-.607-1.6662-.399-.394-.996-.591-1.789-.591-.827 0-1.478.1833-1.954.5499-.47.3612-.796.7634-.977 1.2066l-2.306-.5253c.274-.7661.673-1.3844 1.198-1.855.531-.4761 1.141-.8208 1.831-1.0342.689-.2189 1.414-.3283 2.175-.3283.503 0 1.037.0602 1.6.1806.57.1149 1.1.3283 1.593.6402.498.3119.905.7578 1.223 1.3379.317.5745.476 1.3214.476 2.2407v8.3721h-2.397v-1.7236h-.098c-.159.3173-.397.6292-.714.9357-.318.3064-.726.5608-1.223.7633-.498.2025-1.095.3037-1.79.3037zm.534-1.9699c.678 0 1.258-.1341 1.74-.4022.487-.2681.856-.6183 1.108-1.0506.257-.4378.386-.9056.386-1.4036v-1.6251c-.088.0875-.258.1696-.509.2462-.246.0711-.528.1341-.846.1888-.317.0492-.626.0957-.927.1395-.301.0383-.553.0711-.755.0985-.476.0602-.911.1614-1.305.3037-.389.1423-.701.3475-.936.6156-.23.2626-.345.6129-.345 1.0506 0 .6074.225 1.067.673 1.3789.449.3065 1.021.4597 1.716.4597zm7.703 1.6908-.008-2.1258h.452c.35 0 .643-.0739.878-.2216.241-.1533.438-.4104.591-.7716.153-.3611.271-.8591.353-1.4938.082-.6403.142-1.4446.18-2.4132l.222-5.5814h8.799v12.6074h-2.405v-10.4897h-4.12l-.197 4.2845c-.05 1.0397-.156 1.948-.32 2.7251-.159.777-.392 1.4254-.698 1.9452-.307.5144-.701.9002-1.182 1.1574-.482.2517-1.067.3775-1.757.3775z" fill="#000"/><g filter="url(#b)"><path clip-rule="evenodd" d="m407.599 63.7313c0-3.1913 2.587-5.7784 5.778-5.7784h11.557c3.191 0 5.778 2.5871 5.778 5.7784v11.5567c0 3.1913-2.587 5.7784-5.778 5.7784h-11.557c-3.191 0-5.778-2.5871-5.778-5.7784z" fill="#5392f7" fill-rule="evenodd"/><path d="m413.377 58.6752h11.557c2.792 0 5.056 2.2637 5.056 5.0561v11.5567c0 2.7924-2.264 5.0561-5.056 5.0561h-11.557c-2.792 0-5.056-2.2637-5.056-5.0561v-11.5567c0-2.7924 2.264-5.0561 5.056-5.0561z" stroke="#2473f5" stroke-width="1.4446"/></g><path clip-rule="evenodd" d="m416.653 75.083-4.531-4.9362c-.253-.2716-.253-.7136 0-.9881l.915-.9867c.253-.2716.663-.2716.916 0l3.159 3.4555 7.042-7.6925c.252-.2716.663-.2716.915 0l.916.9881c.252.2716.252.7151 0 .9852l-8.416 9.1747c-.253.2716-.663.2716-.916 0" fill="#fff" fill-rule="evenodd"/><path d="m458.078 66.7204h-2.561c-.099-.5472-.282-1.0288-.55-1.4446-.268-.4159-.597-.7688-.985-1.0589-.389-.29-.824-.5089-1.305-.6566-.476-.1477-.983-.2216-1.519-.2216-.968 0-1.836.2435-2.602.7305-.76.487-1.362 1.2011-1.805 2.1423-.438.9411-.657 2.0903-.657 3.4473 0 1.368.219 2.5226.657 3.4637.443.9412 1.047 1.6526 1.814 2.1341.766.4815 1.627.7223 2.585.7223.531 0 1.034-.0711 1.51-.2134.482-.1477.917-.3639 1.305-.6484.389-.2846.717-.632.985-1.0424.274-.4159.463-.892.567-1.4282l2.561.0082c-.137.8263-.403 1.5869-.797 2.2818-.388.6895-.889 1.2859-1.502 1.7893-.607.498-1.302.8837-2.085 1.1573-.782.2736-1.636.4104-2.56.4104-1.456 0-2.753-.3447-3.891-1.0342-1.138-.6949-2.036-1.6881-2.692-2.9794-.651-1.2914-.977-2.8318-.977-4.6211 0-1.7948.328-3.3352.985-4.6211.657-1.2913 1.554-2.2818 2.692-2.9712 1.138-.695 2.433-1.0424 3.883-1.0424.892 0 1.723.1285 2.495.3857.777.2517 1.475.6238 2.093 1.1163.618.487 1.13 1.0835 1.535 1.7893.405.7004.678 1.5021.821 2.405zm4.174 16.0711c-.367 0-.701-.0301-1.002-.0903-.3-.0547-.525-.1149-.673-.1806l.591-2.0109c.449.1204.849.1724 1.199.1559.35-.0164.659-.1477.927-.3939.274-.2463.515-.6485.723-1.2066l.303-.8372-4.613-12.7716h2.627l3.193 9.7839h.131l3.193-9.7839h2.635l-5.196 14.29c-.241.6567-.547 1.2121-.919 1.6663-.372.4596-.815.8043-1.33 1.0342-.514.2298-1.111.3447-1.789.3447zm21.007-22.0301 1.017 1.5513c-.377.3447-.807.591-1.288.7387-.476.1423-1.026.2326-1.65.2709-.624.0328-1.338.0629-2.142.0903-.909.0273-1.656.2243-2.241.5909-.586.3612-1.037.8974-1.354 1.6088-.312.7059-.515 1.5923-.608 2.6594h.156c.411-.7825.98-1.368 1.707-1.7565.734-.3885 1.557-.5828 2.471-.5828 1.018 0 1.923.2326 2.717.6977.793.4651 1.417 1.1463 1.871 2.0437.46.892.69 1.9836.69 3.275 0 1.3078-.241 2.4378-.723 3.3899-.476.9521-1.149 1.6881-2.019 2.2079-.864.5144-1.885.7716-3.061.7716-1.177 0-2.203-.2654-3.078-.7962-.87-.5363-1.546-1.3297-2.028-2.3803-.476-1.0506-.714-2.3475-.714-3.8906v-1.2476c0-2.8837.515-5.0533 1.543-6.5089 1.029-1.4555 2.567-2.2024 4.613-2.2407.662-.0164 1.253-.0192 1.773-.0082.52.0054.974-.0192 1.363-.0739.394-.0602.722-.197.985-.4104zm-4.449 15.4966c.684 0 1.272-.1724 1.765-.5171.498-.3502.881-.8454 1.149-1.4857.268-.6402.402-1.3953.402-2.2653 0-.8537-.134-1.5787-.402-2.1752-.268-.5964-.651-1.0506-1.149-1.3625-.498-.3173-1.095-.476-1.79-.476-.514 0-.974.0903-1.379.2708-.405.1751-.752.4351-1.042.7798-.285.3447-.506.7661-.665 1.264-.153.4925-.235 1.0588-.246 1.6991 0 1.3023.298 2.3392.894 3.1108.602.7715 1.423 1.1573 2.463 1.1573zm13.587 2.0602c-1.221 0-2.271-.2764-3.152-.829-.876-.5582-1.549-1.327-2.019-2.3065-.471-.9794-.706-2.1012-.706-3.3652 0-1.2805.24-2.4104.722-3.3899.482-.9849 1.16-1.7538 2.036-2.3064.875-.5527 1.907-.829 3.094-.829.958 0 1.811.1778 2.561.5335.75.3502 1.354.8427 1.814 1.4774.465.6348.741 1.3762.829 2.2244h-2.389c-.131-.591-.432-1.0999-.903-1.5267-.465-.4268-1.088-.6402-1.871-.6402-.684 0-1.283.1806-1.798.5417-.508.3557-.905.8646-1.19 1.5267-.284.6566-.426 1.4336-.426 2.331 0 .9193.139 1.7128.418 2.3803.279.6676.673 1.1847 1.182 1.5513.514.3666 1.119.55 1.814.55.465 0 .886-.0849 1.264-.2545.383-.1751.703-.4241.96-.7469.263-.3229.446-.7114.55-1.1655h2.389c-.088.8153-.353 1.5431-.796 2.1833-.444.6402-1.037 1.1436-1.781 1.5102-.739.3667-1.606.55-2.602.55zm9.948-3.6936 5.557-9.1683h2.643v12.6074h-2.405v-9.1764l-5.532 9.1764h-2.668v-12.6074h2.405zm10.008 7.0752v-5.7619h1.026c.263-.2408.485-.5281.665-.8619.186-.3338.342-.7305.468-1.1901.131-.4597.241-.9959.328-1.6088.088-.6183.164-1.3242.23-2.1176l.394-4.7032h8.569v10.4816h1.937v5.7619h-2.396v-3.6361h-8.791v3.6361zm3.653-5.7619h5.63v-8.3803h-3.972l-.263 2.6019c-.126 1.3242-.284 2.4733-.476 3.4473-.191.9685-.498 1.7456-.919 2.3311zm14.508-1.3133 5.557-9.1683h2.643v12.6074h-2.405v-9.1764l-5.532 9.1764h-2.668v-12.6074h2.405zm18.758 3.4391v-10.5143h-3.021c-.717 0-1.275.1669-1.674.5006-.4.3338-.599.7716-.599 1.3133 0 .5363.183.9685.549 1.2969.373.3228.892.4842 1.56.4842h3.899v1.9864h-3.899c-.93 0-1.735-.1533-2.413-.4597-.673-.3119-1.193-.7524-1.56-1.3215-.361-.5691-.541-1.2421-.541-2.0191 0-.7935.186-1.4774.558-2.052.377-.58.916-1.0287 1.617-1.3461.706-.3174 1.54-.4761 2.503-.4761h5.327v12.6074zm-8.274 0 3.554-6.3693h2.512l-3.554 6.3693z" fill="#000"/><path d="m48.1677 194.942c0-7.588 6.1514-13.74 13.7395-13.74h376.8718c7.588 0 13.74 6.152 13.74 13.74v65.042c0 7.588-6.152 13.739-13.74 13.739h-376.8718c-7.5881 0-13.7395-6.151-13.7395-13.739z" fill="#383838" fill-opacity=".02"/><path d="m49.0244 194.942c0-7.115 5.7678-12.883 12.8828-12.883h376.8718c7.115 0 12.883 5.768 12.883 12.883v65.042c0 7.115-5.768 12.883-12.883 12.883h-376.8718c-7.115 0-12.8828-5.768-12.8828-12.883z" stroke="#051f51" stroke-opacity=".04" stroke-width="1.71335"/><path d="m70.1086 201.01h2.1611l5.0817 12.412h.1752l5.0816-12.412h2.1612v14.953h-1.6939v-11.361h-.146l-4.6728 11.361h-1.6355l-4.6727-11.361h-.1461v11.361h-1.6938zm21.3578 15.216c-.7106 0-1.3556-.134-1.9348-.402-.5792-.272-1.0392-.664-1.3799-1.175-.3408-.516-.5111-1.139-.5111-1.869 0-.643.1265-1.164.3796-1.563.2532-.404.5914-.72 1.0149-.949s.8908-.399 1.4018-.511c.516-.117 1.0344-.209 1.5552-.278.6815-.087 1.2339-.153 1.6574-.197.4283-.048.7398-.129.9345-.241.1996-.112.2994-.306.2994-.584v-.058c0-.721-.1971-1.28-.5914-1.679-.3894-.4-.9808-.599-1.7742-.599-.8226 0-1.4675.18-1.9348.54s-.7959.745-.9857 1.154l-1.6355-.584c.2921-.682.6815-1.212 1.1682-1.592.4916-.385 1.0271-.652 1.6063-.803.5841-.156 1.1585-.234 1.7231-.234.3602 0 .7739.044 1.2412.132.4721.082.9272.255 1.3653.518.443.263.8105.66 1.1025 1.19.292.531.4381 1.241.4381 2.132v7.389h-1.7231v-1.519h-.0876c-.1168.244-.3115.504-.5841.781-.2726.278-.6352.514-1.0879.709-.4527.194-1.0051.292-1.6574.292zm.2629-1.548c.6814 0 1.2558-.134 1.723-.402.4722-.267.8275-.613 1.066-1.036.2434-.424.3651-.869.3651-1.337v-1.577c-.073.088-.2337.168-.4819.241-.2434.068-.5257.129-.8469.183-.3164.049-.6255.092-.9273.131-.2969.034-.5378.064-.7228.088-.4478.058-.8664.153-1.2558.285-.3845.126-.6961.318-.9346.576-.2336.254-.3504.599-.3504 1.037 0 .599.2214 1.052.6644 1.358.4478.302 1.0148.453 1.7012.453zm6.4962-8.324v-1.606h9.1115v1.606h-3.679v9.609h-1.723v-9.609zm15.7455 9.843c-1.081 0-2.013-.239-2.797-.716-.779-.482-1.38-1.154-1.803-2.015-.419-.867-.628-1.874-.628-3.023s.209-2.161.628-3.037c.423-.881 1.012-1.567 1.767-2.059.759-.497 1.645-.745 2.657-.745.584 0 1.161.098 1.731.292.569.195 1.088.511 1.555.949.467.434.84 1.008 1.117 1.723.277.716.416 1.597.416 2.644v.73h-8.644v-1.49h6.892c0-.633-.127-1.197-.38-1.694-.248-.496-.603-.888-1.066-1.175-.457-.287-.998-.431-1.621-.431-.686 0-1.28.17-1.781.511-.497.336-.879.774-1.146 1.314-.268.541-.402 1.12-.402 1.738v.993c0 .847.146 1.565.438 2.154.297.584.708 1.029 1.234 1.336.526.302 1.137.453 1.833.453.452 0 .861-.064 1.226-.19.37-.132.689-.326.957-.584.267-.263.474-.589.62-.979l1.665.468c-.175.564-.47 1.061-.884 1.489-.413.424-.924.755-1.533.993-.608.234-1.292.351-2.051.351zm7.264 3.971v-15.42h1.665v1.782h.204c.127-.195.302-.443.526-.745.229-.307.555-.579.978-.818.429-.243 1.008-.365 1.738-.365.944 0 1.777.236 2.497.708.721.473 1.283 1.142 1.687 2.008.404.867.606 1.889.606 3.067 0 1.187-.202 2.217-.606 3.088-.404.867-.964 1.538-1.68 2.015-.715.472-1.54.709-2.475.709-.72 0-1.297-.12-1.73-.358-.433-.244-.767-.519-1-.825-.234-.312-.414-.57-.541-.774h-.146v5.928zm1.694-9.812c0 .847.124 1.594.373 2.241.248.643.61 1.146 1.087 1.511.477.361 1.062.541 1.753.541.72 0 1.321-.19 1.803-.57.487-.384.852-.9 1.095-1.548.249-.652.373-1.377.373-2.175 0-.789-.122-1.5-.365-2.132-.239-.638-.602-1.142-1.088-1.512-.482-.375-1.088-.562-1.818-.562-.701 0-1.29.178-1.767.533-.477.351-.837.842-1.081 1.475-.243.628-.365 1.36-.365 2.198zm12.558 3.066 5.403-8.674h1.986v11.215h-1.723v-8.674l-5.374 8.674h-2.015v-11.215h1.723zm18.051-3.855v1.606h-6.192v-1.606zm-5.783-4.819v11.215h-1.723v-11.215zm7.097 0v11.215h-1.723v-11.215zm7.703 11.449c-1.052 0-1.957-.249-2.716-.745-.76-.497-1.344-1.181-1.753-2.052s-.613-1.867-.613-2.986c0-1.139.209-2.144.628-3.015.423-.877 1.012-1.56 1.767-2.052.759-.497 1.645-.745 2.657-.745.789 0 1.5.146 2.132.438.633.292 1.152.701 1.556 1.227s.654 1.139.752 1.84h-1.723c-.132-.511-.424-.964-.877-1.358-.447-.399-1.051-.599-1.81-.599-.672 0-1.261.175-1.767.526-.502.345-.893.835-1.176 1.467-.277.628-.416 1.366-.416 2.213 0 .866.136 1.62.409 2.263.277.642.667 1.141 1.168 1.497.506.355 1.1.533 1.782.533.447 0 .854-.078 1.219-.234s.674-.38.927-.672.433-.642.541-1.051h1.723c-.098.662-.339 1.258-.723 1.789-.38.525-.884.944-1.512 1.256-.623.306-1.348.46-2.175.46zm6.929-.234v-11.215h1.723v4.877h1.139l4.03-4.877h2.219l-4.526 5.403 4.585 5.812h-2.22l-3.68-4.731h-1.547v4.731zm12.766-2.541 5.403-8.674h1.986v11.215h-1.724v-8.674l-5.373 8.674h-2.015v-11.215h1.723zm12.268 0 5.402-8.674h1.986v11.215h-1.723v-8.674l-5.373 8.674h-2.016v-11.215h1.724zm4.263-12.412h1.607c0 .789-.273 1.433-.818 1.935-.545.501-1.285.752-2.22.752-.92 0-1.652-.251-2.197-.752-.541-.502-.811-1.146-.811-1.935h1.607c0 .38.104.713.314 1 .214.287.576.431 1.087.431s.877-.144 1.096-.431c.223-.287.335-.62.335-1zm12.064 14.953v-11.215h1.723v4.877h1.139l4.03-4.877h2.22l-4.527 5.403 4.585 5.812h-2.219l-3.68-4.731h-1.548v4.731zm14.343.263c-.711 0-1.355-.134-1.935-.402-.579-.272-1.039-.664-1.38-1.175-.34-.516-.511-1.139-.511-1.869 0-.643.127-1.164.38-1.563.253-.404.591-.72 1.015-.949.423-.229.891-.399 1.402-.511.516-.117 1.034-.209 1.555-.278.681-.087 1.234-.153 1.657-.197.429-.048.74-.129.935-.241.199-.112.299-.306.299-.584v-.058c0-.721-.197-1.28-.591-1.679-.39-.4-.981-.599-1.775-.599-.822 0-1.467.18-1.934.54-.468.36-.796.745-.986 1.154l-1.635-.584c.292-.682.681-1.212 1.168-1.592.491-.385 1.027-.652 1.606-.803.584-.156 1.158-.234 1.723-.234.36 0 .774.044 1.241.132.472.082.928.255 1.366.518.443.263.81.66 1.102 1.19.292.531.438 1.241.438 2.132v7.389h-1.723v-1.519h-.088c-.116.244-.311.504-.584.781-.272.278-.635.514-1.088.709-.452.194-1.005.292-1.657.292zm.263-1.548c.681 0 1.256-.134 1.723-.402.472-.267.828-.613 1.066-1.036.243-.424.365-.869.365-1.337v-1.577c-.073.088-.234.168-.482.241-.243.068-.525.129-.847.183-.316.049-.625.092-.927.131-.297.034-.538.064-.723.088-.448.058-.866.153-1.256.285-.384.126-.696.318-.934.576-.234.254-.351.599-.351 1.037 0 .599.222 1.052.665 1.358.448.302 1.015.453 1.701.453zm8.022 1.285v-11.215h8.82v11.215h-1.723v-9.609h-5.374v9.609zm13.69-2.541 5.403-8.674h1.986v11.215h-1.723v-8.674l-5.374 8.674h-2.015v-11.215h1.723zm9.019-7.068v-1.606h9.112v1.606h-3.68v9.609h-1.723v-9.609zm14.343 9.872c-.711 0-1.356-.134-1.935-.402-.579-.272-1.039-.664-1.38-1.175-.34-.516-.511-1.139-.511-1.869 0-.643.127-1.164.38-1.563.253-.404.591-.72 1.015-.949.423-.229.89-.399 1.402-.511.515-.117 1.034-.209 1.555-.278.681-.087 1.234-.153 1.657-.197.428-.048.74-.129.935-.241.199-.112.299-.306.299-.584v-.058c0-.721-.197-1.28-.591-1.679-.39-.4-.981-.599-1.775-.599-.822 0-1.467.18-1.934.54-.468.36-.796.745-.986 1.154l-1.636-.584c.292-.682.682-1.212 1.169-1.592.491-.385 1.027-.652 1.606-.803.584-.156 1.158-.234 1.723-.234.36 0 .774.044 1.241.132.472.082.927.255 1.365.518.443.263.811.66 1.103 1.19.292.531.438 1.241.438 2.132v7.389h-1.723v-1.519h-.088c-.116.244-.311.504-.584.781-.272.278-.635.514-1.088.709-.452.194-1.005.292-1.657.292zm.263-1.548c.681 0 1.256-.134 1.723-.402.472-.267.827-.613 1.066-1.036.243-.424.365-.869.365-1.337v-1.577c-.073.088-.234.168-.482.241-.243.068-.526.129-.847.183-.316.049-.625.092-.927.131-.297.034-.538.064-.723.088-.448.058-.866.153-1.256.285-.384.126-.696.318-.934.576-.234.254-.351.599-.351 1.037 0 .599.222 1.052.665 1.358.447.302 1.015.453 1.701.453zm7.029 1.285v-1.606h.409c.336 0 .616-.066.84-.198.223-.136.404-.372.54-.708.141-.34.248-.813.321-1.416.078-.609.134-1.383.168-2.322l.204-4.965h7.477v11.215h-1.723v-9.609h-4.118l-.175 4.002c-.039.92-.122 1.73-.249 2.431-.121.696-.309 1.28-.562 1.752-.248.472-.579.828-.993 1.066-.413.239-.932.358-1.555.358z" fill="#858585"/><path d="m69.8944 248.874v-1.986l8.7614-13.862h1.4408v3.076h-.9735l-6.6198 10.475v.156h11.7988v2.141zm9.3845 4.089v-4.692-.925-14.32h2.2974v19.937zm15.1743.272c-1.4667 0-2.716-.399-3.7479-1.197-1.0319-.805-1.8205-1.97-2.3656-3.495-.5452-1.531-.8178-3.381-.8178-5.549 0-2.154.2726-3.994.8178-5.519.5516-1.532 1.3434-2.7 2.3753-3.505 1.0384-.811 2.2845-1.217 3.7382-1.217 1.4538 0 2.6966.406 3.7285 1.217 1.0384.805 1.8303 1.973 2.3753 3.505.552 1.525.828 3.365.828 5.519 0 2.168-.273 4.018-.818 5.549-.545 1.525-1.3339 2.69-2.3658 3.495-1.0319.798-2.2812 1.197-3.748 1.197zm0-2.141c1.4538 0 2.583-.701 3.3878-2.103.8047-1.402 1.2071-3.401 1.2071-5.997 0-1.726-.1849-3.196-.5549-4.41-.3634-1.213-.8891-2.138-1.577-2.774-.6815-.636-1.5025-.954-2.463-.954-1.4407 0-2.5668.711-3.378 2.132-.8112 1.415-1.2169 3.417-1.2169 6.006 0 1.727.1817 3.193.5452 4.401.3634 1.207.8859 2.125 1.5673 2.754.6879.63 1.5154.945 2.4824.945zm17.1338 2.141c-1.467 0-2.716-.399-3.748-1.197-1.032-.805-1.821-1.97-2.366-3.495-.545-1.531-.818-3.381-.818-5.549 0-2.154.273-3.994.818-5.519.552-1.532 1.344-2.7 2.376-3.505 1.038-.811 2.284-1.217 3.738-1.217 1.453 0 2.696.406 3.728 1.217 1.039.805 1.83 1.973 2.376 3.505.551 1.525.827 3.365.827 5.519 0 2.168-.273 4.018-.818 5.549-.545 1.525-1.333 2.69-2.365 3.495-1.032.798-2.282 1.197-3.748 1.197zm0-2.141c1.453 0 2.583-.701 3.387-2.103.805-1.402 1.208-3.401 1.208-5.997 0-1.726-.185-3.196-.555-4.41-.364-1.213-.889-2.138-1.577-2.774-.682-.636-1.503-.954-2.463-.954-1.441 0-2.567.711-3.378 2.132-.812 1.415-1.217 3.417-1.217 6.006 0 1.727.182 3.193.545 4.401.363 1.207.886 2.125 1.567 2.754.688.63 1.516.945 2.483.945zm24.843 2.141c-1.466 0-2.716-.399-3.748-1.197-1.032-.805-1.82-1.97-2.365-3.495-.545-1.531-.818-3.381-.818-5.549 0-2.154.273-3.994.818-5.519.551-1.532 1.343-2.7 2.375-3.505 1.038-.811 2.285-1.217 3.738-1.217 1.454 0 2.697.406 3.729 1.217 1.038.805 1.83 1.973 2.375 3.505.552 1.525.828 3.365.828 5.519 0 2.168-.273 4.018-.818 5.549-.545 1.525-1.334 2.69-2.366 3.495-1.032.798-2.281 1.197-3.748 1.197zm0-2.141c1.454 0 2.583-.701 3.388-2.103s1.207-3.401 1.207-5.997c0-1.726-.185-3.196-.555-4.41-.363-1.213-.889-2.138-1.577-2.774-.681-.636-1.502-.954-2.463-.954-1.44 0-2.566.711-3.378 2.132-.811 1.415-1.217 3.417-1.217 6.006 0 1.727.182 3.193.546 4.401.363 1.207.885 2.125 1.567 2.754.688.63 1.515.945 2.482.945zm17.134 2.141c-1.467 0-2.716-.399-3.748-1.197-1.032-.805-1.821-1.97-2.366-3.495-.545-1.531-.817-3.381-.817-5.549 0-2.154.272-3.994.817-5.519.552-1.532 1.344-2.7 2.376-3.505 1.038-.811 2.284-1.217 3.738-1.217s2.696.406 3.728 1.217c1.039.805 1.83 1.973 2.376 3.505.551 1.525.827 3.365.827 5.519 0 2.168-.272 4.018-.818 5.549-.545 1.525-1.333 2.69-2.365 3.495-1.032.798-2.281 1.197-3.748 1.197zm0-2.141c1.454 0 2.583-.701 3.388-2.103.804-1.402 1.207-3.401 1.207-5.997 0-1.726-.185-3.196-.555-4.41-.364-1.213-.889-2.138-1.577-2.774-.682-.636-1.503-.954-2.463-.954-1.441 0-2.567.711-3.378 2.132-.811 1.415-1.217 3.417-1.217 6.006 0 1.727.182 3.193.545 4.401.364 1.207.886 2.125 1.567 2.754.688.63 1.516.945 2.483.945zm17.133 2.141c-1.466 0-2.716-.399-3.748-1.197-1.032-.805-1.82-1.97-2.365-3.495-.545-1.531-.818-3.381-.818-5.549 0-2.154.273-3.994.818-5.519.551-1.532 1.343-2.7 2.375-3.505 1.039-.811 2.285-1.217 3.738-1.217 1.454 0 2.697.406 3.729 1.217 1.038.805 1.83 1.973 2.375 3.505.552 1.525.828 3.365.828 5.519 0 2.168-.273 4.018-.818 5.549-.545 1.525-1.334 2.69-2.366 3.495-1.032.798-2.281 1.197-3.748 1.197zm0-2.141c1.454 0 2.583-.701 3.388-2.103s1.207-3.401 1.207-5.997c0-1.726-.185-3.196-.555-4.41-.363-1.213-.889-2.138-1.577-2.774-.681-.636-1.502-.954-2.463-.954-1.44 0-2.566.711-3.378 2.132-.811 1.415-1.217 3.417-1.217 6.006 0 1.727.182 3.193.546 4.401.363 1.207.885 2.125 1.567 2.754.688.63 1.515.945 2.482.945z" fill="#32393e"/><path d="m203.855 244.863h-10.125v-2.141h10.125c.934 0 1.706-.163 2.316-.487.611-.331 1.065-.779 1.363-1.343.299-.572.448-1.221.448-1.947 0-.727-.149-1.373-.448-1.938-.298-.571-.752-1.019-1.363-1.343-.61-.331-1.382-.497-2.316-.497h-4.556v17.796h-2.415v-19.937h6.971c1.479 0 2.699.269 3.66.808.96.538 1.674 1.256 2.142 2.151.467.896.7 1.882.7 2.96 0 1.077-.233 2.063-.7 2.959-.468.896-1.182 1.613-2.142 2.151-.961.539-2.181.808-3.66.808zm-.156 1.87v2.141h-9.969v-2.141z" fill="#32393e"/><path d="m418.682 237.743-5.14-5.14 1.256-1.257 3.884 3.884 3.884-3.884 1.256 1.257zm-3.884-14.049-1.256-1.257 5.14-5.14 5.14 5.14-1.256 1.257-3.884-3.884z" fill="#858585"/><path d="m479.102 194.942c0-7.588 6.152-13.74 13.74-13.74h376.872c7.588 0 13.739 6.152 13.739 13.74v65.042c0 7.588-6.151 13.739-13.739 13.739h-376.872c-7.588 0-13.74-6.151-13.74-13.739z" fill="#383838" fill-opacity=".02"/><path d="m479.959 194.942c0-7.115 5.768-12.883 12.883-12.883h376.872c7.115 0 12.882 5.768 12.882 12.883v65.042c0 7.115-5.767 12.883-12.882 12.883h-376.872c-7.115 0-12.883-5.768-12.883-12.883z" stroke="#051f51" stroke-opacity=".04" stroke-width="1.71335"/><path d="m513.075 205.683h-1.81c-.108-.521-.295-.979-.563-1.373-.262-.394-.584-.725-.963-.993-.375-.272-.791-.477-1.249-.613-.457-.136-.934-.205-1.431-.205-.905 0-1.725.229-2.46.687-.731.457-1.312 1.131-1.745 2.022-.429.891-.643 1.984-.643 3.278 0 1.295.214 2.388.643 3.279.433.89 1.014 1.565 1.745 2.022.735.458 1.555.686 2.46.686.497 0 .974-.068 1.431-.204.458-.136.874-.338 1.249-.606.379-.273.701-.606.963-1 .268-.399.455-.857.563-1.373h1.81c-.136.764-.384 1.448-.744 2.052-.361.603-.808 1.117-1.344 1.54-.535.419-1.136.738-1.803.957-.662.219-1.37.328-2.125.328-1.275 0-2.409-.311-3.402-.934s-1.774-1.509-2.344-2.658c-.569-1.149-.854-2.511-.854-4.089 0-1.577.285-2.94.854-4.088.57-1.149 1.351-2.035 2.344-2.658s2.127-.934 3.402-.934c.755 0 1.463.109 2.125.328.667.219 1.268.54 1.803.964.536.418.983.93 1.344 1.533.36.599.608 1.283.744 2.052zm3.802 14.485c-.292 0-.552-.024-.781-.073-.229-.043-.387-.087-.474-.131l.438-1.519c.418.107.788.146 1.109.117.322-.029.606-.173.855-.431.253-.253.484-.664.693-1.234l.322-.876-4.148-11.273h1.87l3.095 8.937h.117l3.096-8.937h1.869l-4.76 12.85c-.215.58-.48 1.059-.796 1.439-.317.384-.684.669-1.103.854-.414.185-.881.277-1.402.277zm18.659-19.625.876 1.051c-.341.331-.735.562-1.183.694-.448.131-.954.211-1.519.241-.564.029-1.192.058-1.883.087-.779.029-1.424.219-1.935.57-.511.35-.906.856-1.183 1.518s-.455 1.475-.533 2.439h.146c.38-.701.905-1.217 1.577-1.548s1.392-.496 2.161-.496c.876 0 1.665.204 2.366.613s1.256 1.015 1.665 1.818c.408.803.613 1.794.613 2.972 0 1.173-.209 2.185-.628 3.037-.414.852-.995 1.509-1.745 1.971-.745.458-1.619.687-2.621.687-1.003 0-1.881-.237-2.636-.709-.754-.477-1.341-1.182-1.76-2.117-.418-.939-.627-2.1-.627-3.483v-1.197c0-2.497.423-4.391 1.27-5.68.852-1.29 2.132-1.957 3.84-2.001.604-.019 1.142-.024 1.614-.015.472.01.883-.012 1.234-.065.35-.054.647-.183.891-.387zm-3.826 14.106c.676 0 1.258-.171 1.745-.511.491-.341.869-.821 1.131-1.439.263-.623.395-1.355.395-2.197 0-.818-.134-1.514-.402-2.089-.263-.574-.64-1.012-1.132-1.314-.491-.302-1.08-.452-1.766-.452-.502 0-.952.085-1.351.255s-.74.421-1.022.752c-.283.331-.502.735-.657 1.212-.151.477-.232 1.022-.241 1.636 0 1.255.294 2.261.883 3.015s1.395 1.132 2.417 1.132zm12.186 1.548c-1.052 0-1.957-.249-2.717-.745-.759-.497-1.343-1.181-1.752-2.052s-.613-1.867-.613-2.986c0-1.139.209-2.144.628-3.015.423-.877 1.012-1.56 1.767-2.052.759-.497 1.645-.745 2.657-.745.789 0 1.499.146 2.132.438s1.151.701 1.555 1.227.655 1.139.752 1.84h-1.723c-.131-.511-.423-.964-.876-1.358-.448-.399-1.051-.599-1.81-.599-.672 0-1.261.175-1.767.526-.502.345-.894.835-1.176 1.467-.277.628-.416 1.366-.416 2.213 0 .866.136 1.62.409 2.263.277.642.667 1.141 1.168 1.497.506.355 1.1.533 1.782.533.447 0 .854-.078 1.219-.234s.674-.38.927-.672.433-.642.54-1.051h1.723c-.097.662-.338 1.258-.722 1.789-.38.525-.884.944-1.512 1.256-.623.306-1.348.46-2.175.46zm8.651-2.775 5.403-8.674h1.986v11.215h-1.723v-8.674l-5.374 8.674h-2.015v-11.215h1.723zm9.348 5.753v-4.818h.934c.229-.239.426-.497.592-.774.165-.278.309-.606.431-.986.126-.384.233-.852.321-1.402.087-.555.165-1.224.233-2.008l.38-4.439h7.126v9.609h1.723v4.818h-1.723v-3.212h-8.294v3.212zm2.891-4.818h5.403v-8.003h-3.797l-.292 2.833c-.121 1.173-.272 2.198-.452 3.074s-.468 1.575-.862 2.096zm12.859-.935 5.403-8.674h1.986v11.215h-1.723v-8.674l-5.374 8.674h-2.015v-11.215h1.723zm17.291 2.541v-9.638h-2.978c-.672 0-1.2.156-1.585.468-.384.311-.577.739-.577 1.285 0 .535.173.956.519 1.263.35.306.83.46 1.438.46h3.622v1.606h-3.622c-.759 0-1.414-.134-1.964-.402-.55-.267-.973-.649-1.27-1.146-.297-.501-.446-1.095-.446-1.781 0-.692.156-1.285.468-1.782.311-.496.756-.878 1.336-1.146.584-.268 1.277-.402 2.081-.402h4.614v11.215zm-7.476 0 3.183-5.578h1.869l-3.183 5.578z" fill="#858585"/><path d="m501.296 252.963v-1.752l6.581-7.204c.772-.844 1.408-1.577 1.908-2.2.5-.63.87-1.22 1.11-1.772.246-.558.37-1.142.37-1.752 0-.701-.169-1.308-.507-1.821-.331-.513-.785-.908-1.363-1.188-.577-.279-1.226-.418-1.947-.418-.765 0-1.434.159-2.005.477-.565.311-1.003.749-1.314 1.314-.305.565-.458 1.227-.458 1.986h-2.297c0-1.168.269-2.194.808-3.076.539-.883 1.272-1.571 2.2-2.064.935-.493 1.983-.74 3.144-.74 1.169 0 2.204.247 3.106.74s1.609 1.158 2.122 1.996c.513.837.769 1.768.769 2.794 0 .733-.133 1.45-.399 2.151-.26.694-.714 1.47-1.363 2.327-.642.85-1.535 1.888-2.677 3.115l-4.478 4.789v.156h9.268v2.142zm23.101.272c-1.467 0-2.716-.399-3.748-1.197-1.032-.805-1.82-1.97-2.366-3.495-.545-1.531-.817-3.381-.817-5.549 0-2.154.272-3.994.817-5.519.552-1.532 1.344-2.7 2.376-3.505 1.038-.811 2.284-1.217 3.738-1.217s2.697.406 3.729 1.217c1.038.805 1.83 1.973 2.375 3.505.551 1.525.827 3.365.827 5.519 0 2.168-.272 4.018-.817 5.549-.546 1.525-1.334 2.69-2.366 3.495-1.032.798-2.281 1.197-3.748 1.197zm0-2.141c1.454 0 2.583-.701 3.388-2.103s1.207-3.401 1.207-5.997c0-1.726-.185-3.196-.555-4.41-.363-1.213-.889-2.138-1.577-2.774-.681-.636-1.502-.954-2.463-.954-1.441 0-2.567.711-3.378 2.132-.811 1.415-1.217 3.417-1.217 6.006 0 1.727.182 3.193.545 4.401.364 1.207.886 2.125 1.568 2.754.688.63 1.515.945 2.482.945zm17.134 2.141c-1.467 0-2.717-.399-3.748-1.197-1.032-.805-1.821-1.97-2.366-3.495-.545-1.531-.818-3.381-.818-5.549 0-2.154.273-3.994.818-5.519.552-1.532 1.343-2.7 2.375-3.505 1.039-.811 2.285-1.217 3.739-1.217 1.453 0 2.696.406 3.728 1.217 1.038.805 1.83 1.973 2.375 3.505.552 1.525.828 3.365.828 5.519 0 2.168-.273 4.018-.818 5.549-.545 1.525-1.334 2.69-2.366 3.495-1.031.798-2.281 1.197-3.747 1.197zm0-2.141c1.453 0 2.583-.701 3.387-2.103.805-1.402 1.207-3.401 1.207-5.997 0-1.726-.185-3.196-.554-4.41-.364-1.213-.89-2.138-1.578-2.774-.681-.636-1.502-.954-2.462-.954-1.441 0-2.567.711-3.379 2.132-.811 1.415-1.216 3.417-1.216 6.006 0 1.727.181 3.193.545 4.401.363 1.207.886 2.125 1.567 2.754.688.63 1.516.945 2.483.945zm24.843 2.141c-1.467 0-2.716-.399-3.748-1.197-1.032-.805-1.82-1.97-2.365-3.495-.546-1.531-.818-3.381-.818-5.549 0-2.154.272-3.994.818-5.519.551-1.532 1.343-2.7 2.375-3.505 1.038-.811 2.284-1.217 3.738-1.217s2.697.406 3.729 1.217c1.038.805 1.83 1.973 2.375 3.505.552 1.525.827 3.365.827 5.519 0 2.168-.272 4.018-.817 5.549-.546 1.525-1.334 2.69-2.366 3.495-1.032.798-2.281 1.197-3.748 1.197zm0-2.141c1.454 0 2.583-.701 3.388-2.103s1.207-3.401 1.207-5.997c0-1.726-.185-3.196-.555-4.41-.363-1.213-.889-2.138-1.577-2.774-.681-.636-1.502-.954-2.463-.954-1.441 0-2.567.711-3.378 2.132-.811 1.415-1.217 3.417-1.217 6.006 0 1.727.182 3.193.545 4.401.364 1.207.886 2.125 1.568 2.754.688.63 1.515.945 2.482.945zm17.134 2.141c-1.467 0-2.716-.399-3.748-1.197-1.032-.805-1.821-1.97-2.366-3.495-.545-1.531-.818-3.381-.818-5.549 0-2.154.273-3.994.818-5.519.552-1.532 1.343-2.7 2.375-3.505 1.039-.811 2.285-1.217 3.739-1.217 1.453 0 2.696.406 3.728 1.217 1.038.805 1.83 1.973 2.375 3.505.552 1.525.828 3.365.828 5.519 0 2.168-.273 4.018-.818 5.549-.545 1.525-1.334 2.69-2.365 3.495-1.032.798-2.282 1.197-3.748 1.197zm0-2.141c1.453 0 2.583-.701 3.387-2.103.805-1.402 1.208-3.401 1.208-5.997 0-1.726-.185-3.196-.555-4.41-.364-1.213-.89-2.138-1.577-2.774-.682-.636-1.503-.954-2.463-.954-1.441 0-2.567.711-3.378 2.132-.812 1.415-1.217 3.417-1.217 6.006 0 1.727.181 3.193.545 4.401.363 1.207.886 2.125 1.567 2.754.688.63 1.516.945 2.483.945zm17.133 2.141c-1.467 0-2.716-.399-3.748-1.197-1.032-.805-1.82-1.97-2.365-3.495-.546-1.531-.818-3.381-.818-5.549 0-2.154.272-3.994.818-5.519.551-1.532 1.343-2.7 2.375-3.505 1.038-.811 2.284-1.217 3.738-1.217s2.697.406 3.729 1.217c1.038.805 1.83 1.973 2.375 3.505.552 1.525.827 3.365.827 5.519 0 2.168-.272 4.018-.817 5.549-.545 1.525-1.334 2.69-2.366 3.495-1.032.798-2.281 1.197-3.748 1.197zm0-2.141c1.454 0 2.583-.701 3.388-2.103s1.207-3.401 1.207-5.997c0-1.726-.185-3.196-.555-4.41-.363-1.213-.889-2.138-1.577-2.774-.681-.636-1.502-.954-2.463-.954-1.441 0-2.567.711-3.378 2.132-.811 1.415-1.217 3.417-1.217 6.006 0 1.727.182 3.193.545 4.401.364 1.207.886 2.125 1.568 2.754.688.63 1.515.945 2.482.945z" fill="#32393e"/><path d="m633.789 244.863h-10.124v-2.141h10.124c.934 0 1.707-.163 2.317-.487.61-.331 1.064-.779 1.363-1.343.298-.572.447-1.221.447-1.947 0-.727-.149-1.373-.447-1.938-.299-.571-.753-1.019-1.363-1.343-.61-.331-1.383-.497-2.317-.497h-4.556v17.796h-2.414v-19.937h6.97c1.48 0 2.7.269 3.66.808.961.538 1.675 1.256 2.142 2.151.467.896.701 1.882.701 2.96 0 1.077-.234 2.063-.701 2.959s-1.181 1.613-2.142 2.151c-.96.539-2.18.808-3.66.808zm-.156 1.87v2.141h-9.968v-2.141z" fill="#32393e"/><path d="m849.616 237.743-5.14-5.14 1.257-1.257 3.883 3.884 3.884-3.884 1.256 1.257zm-3.883-14.049-1.257-1.257 5.14-5.14 5.14 5.14-1.256 1.257-3.884-3.884z" fill="#858585"/><path d="m49.5323 151.09v-15.7h6.1942c1.1908 0 2.2053.227 3.0434.682.8382.45 1.477 1.076 1.9166 1.878.4446.798.6669 1.718.6669 2.76 0 1.043-.2249 1.963-.6746 2.76s-1.1014 1.418-1.9549 1.863c-.8483.444-1.8756.667-3.0817.667h-3.9481v-2.66h3.4114c.6389 0 1.1653-.11 1.5793-.33.419-.225.7308-.534.9352-.928.2096-.398.3143-.856.3143-1.372 0-.521-.1047-.976-.3143-1.364-.2044-.394-.5162-.698-.9352-.913-.4191-.219-.9506-.329-1.5946-.329h-2.2385v12.986zm16.3814 0h-3.557l5.4199-15.7h4.2777l5.4123 15.7h-3.5571l-3.9327-12.112h-.1227zm-.2223-6.171h8.4021v2.591h-8.4021zm28.2908-4.032h-3.3578c-.0613-.435-.1865-.821-.3756-1.158-.1891-.342-.4319-.634-.7283-.874s-.6388-.424-1.0273-.552c-.3833-.128-.7998-.192-1.2495-.192-.8126 0-1.5205.202-2.1235.606-.6031.399-1.0707.981-1.4029 1.748-.3322.761-.4983 1.686-.4983 2.775 0 1.119.1661 2.06.4983 2.821.3373.762.8075 1.337 1.4105 1.725.6031.388 1.3007.583 2.0929.583.4446 0 .856-.059 1.2342-.177.3833-.117.7232-.288 1.0196-.513.2964-.23.5417-.509.736-.836.1993-.327.3373-.7.4139-1.119l3.3578.015c-.0869.721-.3041 1.416-.6516 2.085-.3425.665-.805 1.26-1.3876 1.787-.5775.521-1.2675.935-2.0699 1.241-.7972.302-1.6993.453-2.7061.453-1.4003 0-2.6525-.317-3.7564-.951-1.0988-.634-1.9676-1.551-2.6065-2.752-.6337-1.201-.9505-2.655-.9505-4.362 0-1.712.3219-3.169.9659-4.37.6439-1.201 1.5179-2.116 2.6218-2.744 1.1039-.634 2.3458-.951 3.7257-.951.9097 0 1.753.128 2.5298.384.782.255 1.4745.628 2.0775 1.119.6031.485 1.0937 1.081 1.4719 1.786.3833.705.6286 1.513.736 2.423zm4.5277-5.497h3.2271v5.06c0 .603.105 1.088.315 1.456.209.363.534.626.973.79.445.158 1.015.237 1.71.237.245 0 .534-.007.866-.023.332-.02.675-.048 1.027-.084.358-.036.695-.079 1.012-.13s.58-.11.79-.177v2.622c-.215.072-.483.136-.805.192-.317.051-.652.097-1.004.138-.353.036-.695.064-1.028.084-.332.021-.618.031-.858.031-1.263 0-2.361-.179-3.297-.537-.935-.363-1.6581-.922-2.1691-1.679-.506-.756-.759-1.73-.759-2.92zm9.3451 0h3.243v15.7h-3.243zm8.037 15.7v-15.7h10.579v2.737h-7.26v3.741h6.716v2.737h-6.716v3.748h7.291v2.737zm14.131-12.963v-2.737h12.895v2.737h-4.807v12.963h-3.281v-12.963zm36.383-2.737v15.7h-3.281v-13.002h-6.347v13.002h-3.281v-15.7zm4.672 15.7v-15.7h10.579v2.737h-7.26v3.741h6.716v2.737h-6.716v3.748h7.291v2.737zm14.729 0v-15.7h6.195c1.19 0 2.205.227 3.043.682.838.45 1.477 1.076 1.917 1.878.444.798.667 1.718.667 2.76 0 1.043-.225 1.963-.675 2.76s-1.101 1.418-1.955 1.863c-.848.444-1.876.667-3.082.667h-3.948v-2.66h3.412c.639 0 1.165-.11 1.579-.33.419-.225.731-.534.935-.928.21-.398.314-.856.314-1.372 0-.521-.104-.976-.314-1.364-.204-.394-.516-.698-.935-.913-.419-.219-.951-.329-1.595-.329h-2.238v12.986zm15.489 0v-15.7h6.286c1.155 0 2.118.171 2.89.514.772.342 1.352.817 1.74 1.425.389.604.583 1.299.583 2.086 0 .613-.123 1.152-.368 1.617-.245.46-.583.838-1.012 1.135-.424.291-.91.498-1.457.621v.153c.598.026 1.158.194 1.679.506.527.312.953.749 1.281 1.311.327.557.49 1.221.49 1.993 0 .833-.207 1.577-.621 2.231-.409.649-1.014 1.163-1.817 1.541-.802.378-1.791.567-2.966.567zm3.319-2.714h2.706c.925 0 1.6-.176 2.024-.529.424-.357.636-.833.636-1.426 0-.434-.104-.817-.314-1.149-.209-.333-.508-.593-.897-.782-.383-.19-.841-.284-1.372-.284h-2.783zm0-6.416h2.461c.455 0 .859-.079 1.211-.238.358-.163.639-.393.844-.69.209-.296.314-.651.314-1.065 0-.568-.202-1.025-.606-1.373-.398-.347-.966-.521-1.702-.521h-2.522zm26.892 1.28c0 1.712-.325 3.169-.974 4.37-.644 1.201-1.523 2.118-2.637 2.752-1.109.628-2.356.943-3.741.943-1.395 0-2.647-.317-3.756-.951s-1.986-1.551-2.63-2.752-.966-2.655-.966-4.362c0-1.712.322-3.169.966-4.37s1.521-2.116 2.63-2.744c1.109-.634 2.361-.951 3.756-.951 1.385 0 2.632.317 3.741.951 1.114.628 1.993 1.543 2.637 2.744.649 1.201.974 2.658.974 4.37zm-3.366 0c0-1.109-.166-2.044-.498-2.806-.327-.761-.789-1.339-1.387-1.732-.598-.394-1.299-.591-2.101-.591s-1.502.197-2.1.591c-.598.393-1.063.971-1.396 1.732-.327.762-.49 1.697-.49 2.806s.163 2.044.49 2.806c.333.761.798 1.339 1.396 1.732.598.394 1.298.591 2.1.591s1.503-.197 2.101-.591c.598-.393 1.06-.971 1.387-1.732.332-.762.498-1.697.498-2.806zm7.336 7.85v-15.7h3.319v6.478h6.739v-6.478h3.312v15.7h-3.312v-6.485h-6.739v6.485zm20.324 0h-3.557l5.42-15.7h4.277l5.412 15.7h-3.557l-3.932-12.112h-.123zm-.223-6.171h8.402v2.591h-8.402zm15.813-9.529h3.227v5.06c0 .603.105 1.088.314 1.456.21.363.534.626.974.79.445.158 1.014.237 1.709.237.246 0 .535-.007.867-.023.332-.02.674-.048 1.027-.084.358-.036.695-.079 1.012-.13s.58-.11.79-.177v2.622c-.215.072-.483.136-.805.192-.317.051-.652.097-1.005.138-.352.036-.695.064-1.027.084-.332.021-.618.031-.859.031-1.262 0-2.361-.179-3.296-.537-.935-.363-1.658-.922-2.169-1.679-.506-.756-.759-1.73-.759-2.92zm9.345 0h3.242v15.7h-3.242zm10.743 15.7h-3.557l5.419-15.7h4.278l5.412 15.7h-3.557l-3.932-12.112h-.123zm-.223-6.171h8.402v2.591h-8.402zm14.325 6.171v-2.668l.445-.038c.572-.046 1.035-.263 1.388-.652.352-.393.615-1.019.789-1.878.179-.864.294-2.024.345-3.48l.261-6.984h10.656v15.7h-3.228v-13.04h-4.346l-.246 5.466c-.082 1.758-.291 3.194-.628 4.308-.333 1.114-.864 1.937-1.595 2.469-.726.531-1.72.797-2.982.797zm20.316-9.897h3.741c1.247 0 2.321.202 3.22.606.905.398 1.602.963 2.093 1.694s.733 1.592.728 2.583c.005.987-.237 1.858-.728 2.615-.491.751-1.188 1.339-2.093 1.763-.899.424-1.973.636-3.22.636h-5.864v-15.7h3.312v13.032h2.552c.598 0 1.102-.107 1.511-.322.409-.219.718-.508.927-.866.215-.363.32-.759.315-1.188.005-.624-.23-1.15-.706-1.579-.47-.435-1.152-.652-2.047-.652h-3.741zm13.936 9.897v-15.7h3.32v6.478h6.738v-6.478h3.312v15.7h-3.312v-6.485h-6.738v6.485zm32.046-7.85c0 1.712-.325 3.169-.974 4.37-.644 1.201-1.523 2.118-2.637 2.752-1.109.628-2.356.943-3.741.943-1.395 0-2.648-.317-3.757-.951s-1.985-1.551-2.629-2.752-.966-2.655-.966-4.362c0-1.712.322-3.169.966-4.37s1.52-2.116 2.629-2.744c1.109-.634 2.362-.951 3.757-.951 1.385 0 2.632.317 3.741.951 1.114.628 1.993 1.543 2.637 2.744.649 1.201.974 2.658.974 4.37zm-3.366 0c0-1.109-.166-2.044-.498-2.806-.327-.761-.79-1.339-1.388-1.732-.598-.394-1.298-.591-2.1-.591-.803 0-1.503.197-2.101.591-.598.393-1.063.971-1.395 1.732-.327.762-.491 1.697-.491 2.806s.164 2.044.491 2.806c.332.761.797 1.339 1.395 1.732.598.394 1.298.591 2.101.591.802 0 1.502-.197 2.1-.591.598-.393 1.061-.971 1.388-1.732.332-.762.498-1.697.498-2.806zm17.754-7.85v2.737h-7.099v12.963h-3.319v-15.7zm17.347 7.85c0 1.712-.324 3.169-.973 4.37-.644 1.201-1.523 2.118-2.637 2.752-1.11.628-2.357.943-3.742.943-1.395 0-2.647-.317-3.756-.951s-1.985-1.551-2.629-2.752-.966-2.655-.966-4.362c0-1.712.322-3.169.966-4.37s1.52-2.116 2.629-2.744c1.109-.634 2.361-.951 3.756-.951 1.385 0 2.632.317 3.742.951 1.114.628 1.993 1.543 2.637 2.744.649 1.201.973 2.658.973 4.37zm-3.365 0c0-1.109-.166-2.044-.498-2.806-.328-.761-.79-1.339-1.388-1.732-.598-.394-1.298-.591-2.101-.591-.802 0-1.502.197-2.1.591-.598.393-1.063.971-1.395 1.732-.327.762-.491 1.697-.491 2.806s.164 2.044.491 2.806c.332.761.797 1.339 1.395 1.732.598.394 1.298.591 2.1.591.803 0 1.503-.197 2.101-.591.598-.393 1.06-.971 1.388-1.732.332-.762.498-1.697.498-2.806zm13.843 7.85v-15.7h6.286c1.155 0 2.118.171 2.89.514.772.342 1.352.817 1.74 1.425.389.604.583 1.299.583 2.086 0 .613-.123 1.152-.368 1.617-.245.46-.583.838-1.012 1.135-.424.291-.91.498-1.457.621v.153c.598.026 1.158.194 1.679.506.527.312.954.749 1.281 1.311.327.557.49 1.221.49 1.993 0 .833-.207 1.577-.621 2.231-.409.649-1.014 1.163-1.817 1.541-.802.378-1.791.567-2.966.567zm3.319-2.714h2.706c.925 0 1.6-.176 2.024-.529.424-.357.636-.833.636-1.426 0-.434-.104-.817-.314-1.149-.209-.333-.508-.593-.897-.782-.383-.19-.84-.284-1.372-.284h-2.783zm0-6.416h2.461c.455 0 .859-.079 1.211-.238.358-.163.639-.393.844-.69.209-.296.314-.651.314-1.065 0-.568-.202-1.025-.606-1.373-.398-.347-.966-.521-1.702-.521h-2.522zm18.176 9.345c-1.145 0-2.165-.197-3.059-.591-.889-.398-1.592-.945-2.108-1.64-.511-.7-.775-1.508-.79-2.423h3.342c.021.384.146.721.376 1.012.235.287.547.509.935.667.389.159.826.238 1.311.238.506 0 .953-.089 1.342-.268.388-.179.692-.427.912-.744s.33-.682.33-1.096c0-.419-.118-.79-.353-1.112-.23-.327-.562-.582-.997-.766-.429-.184-.94-.276-1.533-.276h-1.464v-2.438h1.464c.501 0 .943-.087 1.326-.261.389-.174.69-.414.905-.72.215-.312.322-.675.322-1.089 0-.394-.094-.739-.284-1.035-.184-.302-.444-.537-.782-.705-.332-.169-.72-.253-1.165-.253-.45 0-.861.082-1.234.245-.373.158-.672.386-.897.682-.225.297-.345.644-.36 1.043h-3.182c.016-.905.274-1.702.775-2.392.5-.69 1.175-1.229 2.023-1.617.854-.394 1.817-.591 2.891-.591 1.083 0 2.031.197 2.844.591.812.393 1.443.925 1.893 1.594.455.664.68 1.411.675 2.239.005.879-.268 1.612-.82 2.2-.547.588-1.26.961-2.139 1.119v.123c1.155.148 2.034.549 2.637 1.203.608.649.91 1.462.904 2.438.006.894-.253 1.689-.774 2.384-.516.695-1.229 1.242-2.139 1.641-.909.398-1.952.598-3.127.598zm10.03-.215v-15.7h3.319v6.478h6.739v-6.478h3.311v15.7h-3.311v-6.485h-6.739v6.485zm32.045-7.85c0 1.712-.325 3.169-.974 4.37-.644 1.201-1.523 2.118-2.637 2.752-1.109.628-2.356.943-3.741.943-1.395 0-2.647-.317-3.756-.951s-1.986-1.551-2.63-2.752-.966-2.655-.966-4.362c0-1.712.322-3.169.966-4.37s1.521-2.116 2.63-2.744c1.109-.634 2.361-.951 3.756-.951 1.385 0 2.632.317 3.741.951 1.114.628 1.993 1.543 2.637 2.744.649 1.201.974 2.658.974 4.37zm-3.366 0c0-1.109-.166-2.044-.498-2.806-.327-.761-.789-1.339-1.387-1.732-.598-.394-1.299-.591-2.101-.591s-1.502.197-2.1.591c-.598.393-1.063.971-1.396 1.732-.327.762-.49 1.697-.49 2.806s.163 2.044.49 2.806c.333.761.798 1.339 1.396 1.732.598.394 1.298.591 2.1.591s1.503-.197 2.101-.591c.598-.393 1.06-.971 1.387-1.732.332-.762.498-1.697.498-2.806zm21.189-2.353h-3.358c-.062-.435-.187-.821-.376-1.158-.189-.342-.432-.634-.728-.874-.297-.24-.639-.424-1.027-.552-.384-.128-.8-.192-1.25-.192-.813 0-1.52.202-2.123.606-.604.399-1.071.981-1.403 1.748-.333.761-.499 1.686-.499 2.775 0 1.119.166 2.06.499 2.821.337.762.807 1.337 1.41 1.725s1.301.583 2.093.583c.445 0 .856-.059 1.234-.177.384-.117.723-.288 1.02-.513.296-.23.542-.509.736-.836.199-.327.337-.7.414-1.119l3.358.015c-.087.721-.305 1.416-.652 2.085-.342.665-.805 1.26-1.388 1.787-.577.521-1.267.935-2.069 1.241-.798.302-1.7.453-2.707.453-1.4 0-2.652-.317-3.756-.951-1.099-.634-1.968-1.551-2.606-2.752-.634-1.201-.951-2.655-.951-4.362 0-1.712.322-3.169.966-4.37s1.518-2.116 2.622-2.744c1.104-.634 2.345-.951 3.725-.951.91 0 1.753.128 2.53.384.782.255 1.475.628 2.078 1.119.603.485 1.093 1.081 1.472 1.786.383.705.628 1.513.736 2.423zm6.302 10.203h-3.557l5.42-15.7h4.278l5.412 15.7h-3.557l-3.933-12.112h-.123zm-.222-6.171h8.402v2.591h-8.402z" fill="#858585"/><path d="m0 0h123v344h-123z" fill="url(#c)" transform="translate(737 -1)"/></g><rect height="309" rx="39" stroke="#000" stroke-opacity=".08" stroke-width="2" width="858" x="1" y="1"/></svg>