<svg fill="none" height="232" viewBox="0 0 860 232" width="860" xmlns="http://www.w3.org/2000/svg"><rect fill="#fff" height="232" rx="40" width="860"/><rect height="230" rx="39" stroke="#000" stroke-opacity=".08" stroke-width="2" width="858" x="1" y="1"/><path d="m36.5957 36.5958h786.809v161h-786.809z" fill="#fff"/><path d="m47.7634 77.0656c0-4.5985 3.7278-8.3262 8.3262-8.3262h228.3874c4.598 0 8.326 3.7277 8.326 8.3262v39.4164c0 4.598-3.728 8.326-8.326 8.326h-228.3874c-4.5984 0-8.3262-3.728-8.3262-8.326z" fill="#383838" fill-opacity=".02"/><path d="m48.2826 77.0656c0-4.3117 3.4953-7.8071 7.807-7.8071h228.3874c4.311 0 7.807 3.4954 7.807 7.8071v39.4164c0 4.311-3.496 7.807-7.807 7.807h-228.3874c-4.3117 0-7.807-3.496-7.807-7.807z" stroke="#051f51" stroke-opacity=".04" stroke-width="1.0383"/><path d="m68.7054 85.2428c0 .9558-.1726 1.7817-.5177 2.4778s-.8185 1.233-1.4203 1.6106c-.6017.3775-1.289.5663-2.0618.5663-.7729 0-1.4602-.1888-2.0619-.5663-.6017-.3776-1.0752-.9145-1.4203-1.6106s-.5177-1.522-.5177-2.4778c0-.9557.1726-1.7816.5177-2.4777.3451-.6962.8186-1.233 1.4203-1.6106.6017-.3775 1.289-.5663 2.0619-.5663.7728 0 1.4601.1888 2.0618.5663.6018.3776 1.0752.9144 1.4203 1.6106.3451.6961.5177 1.522.5177 2.4777zm-1.0619 0c0-.7846-.1313-1.4468-.3938-1.9866-.2596-.5398-.6121-.9483-1.0575-1.2256-.4424-.2773-.938-.4159-1.4866-.4159-.5487 0-1.0457.1386-1.4911.4159-.4425.2773-.795.6858-1.0575 1.2256-.2596.5398-.3894 1.202-.3894 1.9866 0 .7847.1298 1.4469.3894 1.9867.2625.5398.615.9483 1.0575 1.2256.4454.2773.9424.4159 1.4911.4159.5486 0 1.0442-.1386 1.4866-.4159.4454-.2773.7979-.6858 1.0575-1.2256.2625-.5398.3938-1.202.3938-1.9867zm7.8094-4.8139.5309.6371c-.2064.2006-.4454.3407-.7167.4204-.2714.0796-.5782.1283-.9204.146-.3421.0177-.7226.0354-1.1415.0531-.472.0177-.8628.1327-1.1725.3451s-.5487.5191-.7168.9203-.2758.8938-.323 1.4778h.0885c.2301-.4247.5486-.7374.9557-.938s.8436-.3009 1.3097-.3009c.5309 0 1.0088.1239 1.4335.3717.4248.2478.7611.615 1.0089 1.1017.2477.4867.3716 1.087.3716 1.8008 0 .7109-.1268 1.3245-.3805 1.8407-.2507.5162-.6032.9144-1.0575 1.1946-.4513.2773-.9808.4159-1.5884.4159s-1.1401-.1431-1.5973-.4292c-.4572-.2891-.8126-.7168-1.0663-1.2831-.2537-.5693-.3805-1.2728-.3805-2.1105v-.7257c0-1.5132.2566-2.6606.7699-3.4423.5162-.7817 1.2919-1.1858 2.3273-1.2123.3658-.0118.6917-.0148.9778-.0089.2862.0059.5354-.0074.7478-.0398.2124-.0325.3923-.1106.5398-.2345zm-2.3185 8.5483c.41 0 .7625-.1032 1.0575-.3097.2979-.2065.5265-.4971.6858-.8717.1593-.3775.2389-.8215.2389-1.3318 0-.4955-.0811-.9173-.2433-1.2654-.1593-.3481-.3879-.6135-.6858-.7964-.298-.1829-.6549-.2744-1.0708-.2744-.3038 0-.5767.0517-.8185.1549-.2419.1032-.4484.2552-.6195.4557-.1711.2006-.3038.4454-.3982.7345-.0914.2891-.1401.6195-.146.9911 0 .7611.1784 1.3702.5354 1.8274.3569.4572.8451.6858 1.4645.6858zm13.8976-.177-.1239 2.9202h-1.0796v-1.9468h-.8849v-.9734zm-9.2739-5.8227h1.0442v5.8227h2.5663v-5.8227h1.0442v5.8227h2.5662v-5.8227h1.0442v6.7961h-8.2651zm11.8369 5.2564 3.2742-5.2564h1.2035v6.7961h-1.0442v-5.2564l-3.2565 5.2564h-1.2212v-6.7961h1.0442zm7.4344 0 3.2746-5.2564h1.203v6.7961h-1.044v-5.2564l-3.2566 5.2564h-1.2212v-6.7961h1.0442zm2.5839-7.5218h.9737c0 .4778-.165.8687-.496 1.1725-.3302.3038-.7785.4557-1.3449.4557-.5575 0-1.0014-.1519-1.3318-.4557-.3274-.3038-.4911-.6947-.4911-1.1725h.9734c0 .23.0634.4321.1903.6061.1298.1741.3495.2611.6592.2611s.531-.087.6637-.2611c.1357-.174.2035-.3761.2035-.6061zm10.0717 9.2031c-.637 0-1.186-.1504-1.646-.4513s-.814-.7153-1.062-1.2433-.372-1.1312-.372-1.8097c0-.6902.127-1.2993.381-1.8273.256-.531.613-.9454 1.071-1.2433.46-.3009.997-.4513 1.61-.4513.478 0 .909.0885 1.292.2654.384.177.698.4248.943.7434.244.3185.396.6902.455 1.115h-1.044c-.08-.3098-.257-.5841-.531-.823-.271-.2419-.637-.3628-1.097-.3628-.407 0-.764.1062-1.071.3185-.304.2095-.541.5059-.712.8894-.168.3805-.252.8274-.252 1.3406 0 .5251.082.9823.247 1.3717.168.3893.404.6917.708.907.307.2153.667.323 1.08.323.271 0 .517-.0472.739-.1416.221-.0944.408-.2301.562-.4071.153-.1769.262-.3893.327-.6371h1.044c-.059.4012-.205.7625-.438 1.084-.23.3186-.535.5723-.916.7611-.377.1858-.817.2787-1.318.2787zm3.663-5.9643v-.9734h5.522v.9734h-2.23v5.8227h-1.044v-5.8227zm8.692 5.982c-.43 0-.821-.0811-1.172-.2433-.351-.1652-.63-.4027-.836-.7124-.207-.3127-.31-.6902-.31-1.1327 0-.3894.077-.705.23-.9469.153-.2448.358-.4365.615-.5752.257-.1386.54-.2418.85-.3097.312-.0708.626-.1268.942-.1681.413-.0531.748-.0929 1.004-.1195.26-.0295.449-.0781.567-.146.121-.0678.181-.1858.181-.354v-.0354c0-.4365-.119-.7757-.358-1.0176-.236-.2419-.595-.3628-1.075-.3628-.499 0-.89.1091-1.173.3274s-.482.4513-.597.6991l-.991-.354c.177-.4129.413-.7345.708-.9645.298-.2331.622-.3953.973-.4868.354-.0943.702-.1415 1.044-.1415.218 0 .469.0265.752.0796.287.0501.562.1549.828.3141.268.1593.491.3997.668.7213.177.3215.265.7521.265 1.2919v4.4777h-1.044v-.9203h-.053c-.071.1475-.189.3053-.354.4734-.165.1682-.385.3112-.659.4292s-.609.177-1.005.177zm.16-.938c.413 0 .761-.0811 1.044-.2434.286-.1622.501-.3716.646-.6283.147-.2566.221-.5265.221-.8097v-.9557c-.044.0531-.141.1018-.292.146-.147.0413-.318.0782-.513.1107-.192.0295-.379.056-.562.0796-.18.0207-.326.0384-.438.0531-.271.0354-.525.0929-.761.1726-.233.0767-.422.1932-.566.3495-.142.1534-.213.3628-.213.6283 0 .3628.134.6371.403.823.271.1829.615.2743 1.031.2743zm4.437.7787 2.76-3.4512-2.725-3.3449h1.239l2.265 2.9025h.567v-2.9025h1.044v2.9025h.548l2.266-2.9025h1.239l-2.708 3.3449 2.743 3.4512h-1.257l-2.3-2.9202h-.531v2.9202h-1.044v-2.9202h-.531l-2.319 2.9202zm14.235 2.5486v-9.3447h1.008v1.0796h.124c.077-.118.183-.2685.319-.4514.138-.1858.336-.351.593-.4955.259-.1475.61-.2212 1.053-.2212.572 0 1.076.143 1.513.4291.437.2862.777.6918 1.022 1.2168.245.5251.367 1.1445.367 1.8583 0 .7198-.122 1.3436-.367 1.8716-.245.5251-.584.9321-1.018 1.2212-.433.2861-.933.4292-1.5.4292-.436 0-.786-.0723-1.048-.2168-.263-.1475-.465-.3141-.606-.5-.142-.1888-.251-.3451-.328-.469h-.088v3.5928zm1.026-5.9467c0 .5133.075.9661.226 1.3584.15.3893.37.6946.659.9159.289.2183.643.3274 1.062.3274.436 0 .801-.115 1.093-.3451.295-.2331.516-.5457.663-.938.151-.3953.226-.8348.226-1.3186 0-.4778-.074-.9085-.221-1.2919-.145-.3865-.364-.6918-.659-.9159-.292-.2272-.66-.3407-1.102-.3407-.425 0-.782.1076-1.071.323-.289.2123-.507.5103-.655.8937-.147.3806-.221.8245-.221 1.3318zm8.566 3.5574c-.431 0-.821-.0811-1.172-.2433-.352-.1652-.63-.4027-.837-.7124-.206-.3127-.309-.6902-.309-1.1327 0-.3894.076-.705.23-.9469.153-.2448.358-.4365.615-.5752.256-.1386.539-.2418.849-.3097.313-.0708.627-.1268.943-.1681.413-.0531.747-.0929 1.004-.1195.26-.0295.448-.0781.566-.146.121-.0678.182-.1858.182-.354v-.0354c0-.4365-.12-.7757-.359-1.0176-.236-.2419-.594-.3628-1.075-.3628-.498 0-.889.1091-1.172.3274-.284.2183-.483.4513-.598.6991l-.991-.354c.177-.4129.413-.7345.708-.9645.298-.2331.623-.3953.974-.4868.354-.0943.702-.1415 1.044-.1415.218 0 .469.0265.752.0796.286.0501.562.1549.827.3141.269.1593.491.3997.668.7213.177.3215.266.7521.266 1.2919v4.4777h-1.044v-.9203h-.053c-.071.1475-.189.3053-.354.4734-.166.1682-.385.3112-.66.4292-.274.118-.609.177-1.004.177zm.159-.938c.413 0 .761-.0811 1.045-.2434.286-.1622.501-.3716.646-.6283.147-.2566.221-.5265.221-.8097v-.9557c-.045.0531-.142.1018-.292.146-.148.0413-.319.0782-.514.1107-.191.0295-.379.056-.561.0796-.18.0207-.326.0384-.438.0531-.272.0354-.526.0929-.762.1726-.233.0767-.421.1932-.566.3495-.141.1534-.212.3628-.212.6283 0 .3628.134.6371.402.823.272.1829.615.2743 1.031.2743zm9.906-8.566.531.6371c-.207.2006-.446.3407-.717.4204-.271.0796-.578.1283-.92.146s-.723.0354-1.142.0531c-.472.0177-.863.1327-1.172.3451-.31.2124-.549.5191-.717.9203s-.276.8938-.323 1.4778h.088c.23-.4247.549-.7374.956-.938s.844-.3009 1.31-.3009c.531 0 1.009.1239 1.433.3717.425.2478.761.615 1.009 1.1017s.372 1.087.372 1.8008c0 .7109-.127 1.3245-.381 1.8407-.25.5162-.603.9144-1.057 1.1946-.452.2773-.981.4159-1.589.4159-.607 0-1.14-.1431-1.597-.4292-.457-.2891-.813-.7168-1.066-1.2831-.254-.5693-.381-1.2728-.381-2.1105v-.7257c0-1.5132.257-2.6606.77-3.4423.516-.7817 1.292-1.1858 2.327-1.2123.366-.0118.692-.0148.978-.0089s.536-.0074.748-.0398c.212-.0325.392-.1106.54-.2345zm-2.319 8.5483c.41 0 .763-.1032 1.058-.3097.298-.2065.526-.4971.686-.8717.159-.3775.239-.8215.239-1.3318 0-.4955-.082-.9173-.244-1.2654-.159-.3481-.388-.6135-.686-.7964-.297-.1829-.654-.2744-1.07-.2744-.304 0-.577.0517-.819.1549s-.448.2552-.619.4557c-.171.2006-.304.4454-.399.7345-.091.2891-.14.6195-.146.9911 0 .7611.179 1.3702.536 1.8274s.845.6858 1.464.6858zm7.385.938c-.614 0-1.152-.146-1.615-.438-.46-.292-.82-.7006-1.08-1.2256-.256-.5251-.385-1.1386-.385-1.8407 0-.7079.129-1.3259.385-1.8539.26-.528.62-.938 1.08-1.23.463-.292 1.001-.438 1.615-.438s1.15.146 1.611.438c.463.292.823.702 1.079 1.23.26.528.39 1.146.39 1.8539 0 .7021-.13 1.3156-.39 1.8407-.256.525-.616.9336-1.079 1.2256-.461.292-.997.438-1.611.438zm0-.938c.466 0 .85-.1195 1.15-.3584.301-.2389.524-.5531.669-.9424.144-.3894.216-.8112.216-1.2655 0-.4542-.072-.8775-.216-1.2698-.145-.3923-.368-.7094-.669-.9513-.3-.2419-.684-.3628-1.15-.3628s-.85.1209-1.15.3628c-.301.2419-.524.559-.668.9513-.145.3923-.217.8156-.217 1.2698 0 .4543.072.8761.217 1.2655.144.3893.367.7035.668.9424.3.2389.684.3584 1.15.3584zm3.785-5.0263v-.9734h5.522v.9734h-2.23v5.8227h-1.044v-5.8227zm7.948 1.4866h1.947c.796 0 1.405.2021 1.827.6062s.633.9159.633 1.5353c0 .4071-.095.7773-.283 1.1106-.189.3304-.466.5944-.832.792-.366.1947-.814.292-1.345.292h-2.85v-6.7961h1.045v5.8227h1.805c.413 0 .752-.1091 1.017-.3274.266-.2183.399-.4985.399-.8407 0-.3598-.133-.6533-.399-.8805-.265-.2271-.604-.3407-1.017-.3407h-1.947zm5.486 4.3361v-6.7961h1.045v6.7961z" fill="#858585"/><g fill="#32393e"><path d="m65.2955 112.939c-.7787 0-1.4729-.134-2.0825-.401-.6057-.268-1.0875-.639-1.4454-1.115-.3539-.48-.5466-1.037-.5781-1.67h1.4866c.0315.389.1652.726.4012 1.009.236.279.5447.495.9262.649.3815.153.8043.23 1.2684.23.5192 0 .9793-.091 1.3805-.271.4011-.181.7158-.433.9439-.756.2281-.322.3422-.696.3422-1.12 0-.445-.1102-.836-.3304-1.174-.2203-.343-.5428-.61-.9675-.803-.4248-.193-.9439-.289-1.5575-.289h-.9675v-1.298h.9675c.4798 0 .9007-.086 1.2625-.259.3658-.173.6509-.417.8554-.732.2085-.314.3127-.684.3127-1.109 0-.409-.0905-.765-.2714-1.068s-.4365-.539-.7669-.708c-.3264-.169-.7119-.253-1.1563-.253-.4169 0-.8102.076-1.1799.23-.3658.149-.6647.367-.8967.655-.232.283-.3579.625-.3776 1.026h-1.4158c.0236-.633.2143-1.188.5722-1.664.3579-.479.8259-.853 1.4041-1.12.5821-.268 1.2212-.402 1.9173-.402.7473 0 1.3883.152 1.9232.455.5349.299.9459.694 1.233 1.185.2871.492.4307 1.023.4307 1.593 0 .681-.179 1.261-.5369 1.741-.3539.479-.8357.812-1.4453.997v.094c.7629.126 1.3588.45 1.7875.973.4287.52.643 1.163.643 1.93 0 .656-.1789 1.246-.5368 1.769-.354.52-.8377.929-1.4513 1.227-.6135.299-1.3116.449-2.0943.449z"/><path d="m85.9619 103.712v1.298h-4.2004v7.764h-1.3922v-9.062zm5.2432 9.25c-.8181 0-1.5359-.194-2.1533-.584-.6136-.389-1.0934-.934-1.4395-1.634-.3422-.7-.5133-1.518-.5133-2.454 0-.944.1711-1.768.5133-2.472.3461-.704.8259-1.251 1.4395-1.64.6174-.389 1.3352-.584 2.1533-.584.818 0 1.5338.195 2.1474.584.6174.389 1.0973.936 1.4394 1.64.3461.704.5192 1.528.5192 2.472 0 .936-.1731 1.754-.5192 2.454-.3421.7-.822 1.245-1.4394 1.634-.6136.39-1.3294.584-2.1474.584zm0-1.25c.6214 0 1.1327-.16 1.5338-.478.4012-.319.6981-.738.8908-1.257.1928-.519.2891-1.081.2891-1.687s-.0963-1.17-.2891-1.693c-.1927-.523-.4896-.946-.8908-1.268-.4011-.323-.9124-.484-1.5338-.484s-1.1327.161-1.5339.484c-.4012.322-.6981.745-.8908 1.268s-.2891 1.087-.2891 1.693.0964 1.168.2891 1.687.4896.938.8908 1.257c.4012.318.9125.478 1.5339.478zm5.2638 3.657v-3.893h.7551c.1848-.193.3441-.401.4778-.626.1338-.224.2498-.489.3481-.796.1023-.311.1888-.688.2596-1.133.0708-.448.1337-.989.1888-1.622l.3067-3.587h5.758v7.764h1.392v3.893h-1.392v-2.595h-6.7019v2.595zm2.3361-3.893h4.366v-6.466h-3.068l-.2361 2.289c-.0983.948-.2202 1.776-.3657 2.484-.1456.708-.3776 1.272-.6962 1.693zm11.665 1.51c-.574 0-1.096-.108-1.564-.324-.468-.221-.839-.537-1.115-.95-.275-.417-.413-.921-.413-1.511 0-.519.103-.94.307-1.262.205-.326.478-.582.82-.767s.72-.322 1.133-.413c.417-.094.836-.169 1.256-.224.551-.071.997-.124 1.34-.159.346-.04.597-.105.755-.195.161-.091.242-.248.242-.472v-.047c0-.582-.16-1.035-.478-1.357-.315-.323-.793-.484-1.434-.484-.664 0-1.186.146-1.563.437-.378.291-.643.601-.797.932l-1.321-.472c.236-.551.551-.979.944-1.286.397-.311.83-.527 1.298-.649.472-.126.936-.189 1.392-.189.291 0 .625.035 1.003.106.381.067.749.207 1.103.419.358.213.655.533.891.962.236.428.354 1.003.354 1.722v5.971h-1.392v-1.227h-.071c-.095.196-.252.407-.472.631s-.513.415-.879.572-.812.236-1.339.236zm.212-1.251c.551 0 1.015-.108 1.392-.324.382-.216.669-.496.862-.838.196-.342.295-.702.295-1.079v-1.275c-.059.071-.189.136-.39.195-.196.055-.424.104-.684.147-.256.04-.505.075-.749.107-.24.027-.435.051-.584.07-.362.048-.7.124-1.015.23-.311.103-.562.258-.755.467-.189.204-.283.483-.283.837 0 .484.179.85.537 1.098.361.243.82.365 1.374.365z"/><path d="m138.055 112.774 5.404-10.69v-.095h-6.23v-1.297h7.74v1.368l-5.38 10.714z"/><path d="m160.789 110.886 3.162-7.174h1.321l-3.917 9.062h-1.132l-3.847-9.062h1.298zm-3.563-7.174v9.062h-1.393v-9.062zm7.126 9.062v-9.062h1.392v9.062zm7.74.188c-.873 0-1.626-.192-2.259-.578-.63-.389-1.115-.932-1.457-1.628-.339-.7-.508-1.514-.508-2.442 0-.929.169-1.747.508-2.455.342-.711.818-1.266 1.427-1.663.614-.401 1.33-.602 2.148-.602.472 0 .938.079 1.398.236s.879.413 1.256.767c.378.35.679.814.903 1.392s.336 1.29.336 2.136v.59h-6.985v-1.204h5.569c0-.511-.102-.967-.306-1.368-.201-.402-.488-.718-.862-.95-.369-.232-.806-.348-1.309-.348-.555 0-1.035.137-1.44.413-.401.271-.71.625-.926 1.062-.216.436-.324.904-.324 1.404v.802c0 .684.118 1.264.353 1.74.24.472.573.832.997 1.08.425.244.919.366 1.481.366.366 0 .696-.051.991-.154.299-.106.557-.263.773-.472.216-.212.384-.476.502-.79l1.345.377c-.142.457-.38.858-.714 1.204-.334.342-.747.61-1.239.802-.492.189-1.044.283-1.658.283zm9.551 0c-.849 0-1.581-.2-2.194-.601-.614-.402-1.086-.954-1.416-1.658s-.496-1.508-.496-2.413c0-.92.17-1.732.508-2.436.342-.708.818-1.261 1.427-1.658.614-.401 1.33-.602 2.148-.602.637 0 1.211.118 1.722.354.512.236.931.566 1.257.991.327.425.529.92.608 1.487h-1.393c-.106-.413-.342-.779-.707-1.097-.362-.323-.85-.484-1.464-.484-.542 0-1.018.141-1.427.425-.405.279-.722.674-.95 1.185-.224.508-.336 1.104-.336 1.788 0 .7.11 1.31.33 1.829.224.519.539.922.944 1.209.409.287.889.431 1.439.431.362 0 .691-.063.986-.189s.544-.307.749-.543c.204-.236.35-.519.436-.849h1.393c-.079.535-.274 1.016-.584 1.445-.307.425-.714.763-1.222 1.015-.503.248-1.089.371-1.758.371zm11.05-.188v-7.788h-2.407c-.543 0-.969.126-1.28.378s-.466.598-.466 1.038c0 .433.14.773.419 1.021.283.248.67.371 1.162.371h2.926v1.298h-2.926c-.614 0-1.143-.108-1.587-.324s-.787-.525-1.026-.926c-.24-.405-.36-.885-.36-1.44 0-.558.125-1.038.377-1.439s.612-.71 1.08-.926c.472-.217 1.032-.325 1.681-.325h3.729v9.062zm-6.041 0 2.572-4.508h1.511l-2.573 4.508zm17.045-9.062v7.764h1.274v4.224h-1.392v-2.926h-7.008v-9.062h1.392v7.764h4.342v-7.764zm7.121 9.25c-.873 0-1.627-.192-2.26-.578-.629-.389-1.115-.932-1.457-1.628-.338-.7-.507-1.514-.507-2.442 0-.929.169-1.747.507-2.455.342-.711.818-1.266 1.428-1.663.613-.401 1.329-.602 2.147-.602.472 0 .938.079 1.398.236s.879.413 1.257.767c.377.35.678.814.902 1.392.225.578.337 1.29.337 2.136v.59h-6.985v-1.204h5.569c0-.511-.102-.967-.307-1.368-.2-.402-.488-.718-.861-.95-.37-.232-.806-.348-1.31-.348-.554 0-1.034.137-1.439.413-.402.271-.71.625-.927 1.062-.216.436-.324.904-.324 1.404v.802c0 .684.118 1.264.354 1.74.24.472.572.832.997 1.08.425.244.918.366 1.481.366.365 0 .696-.051.991-.154.299-.106.556-.263.773-.472.216-.212.383-.476.501-.79l1.345.377c-.141.457-.379.858-.714 1.204-.334.342-.747.61-1.239.802-.491.189-1.044.283-1.657.283zm5.87-.188v-9.062h3.705c.975 0 1.75.22 2.324.661.574.44.861 1.022.861 1.746 0 .551-.163.977-.489 1.28-.327.299-.746.502-1.257.608.334.047.659.165.973.354.319.189.582.448.791.779.208.326.313.727.313 1.203 0 .464-.118.879-.354 1.245s-.575.655-1.015.867c-.441.212-.968.319-1.581.319zm1.321-1.275h2.95c.48 0 .855-.114 1.127-.342.271-.228.407-.539.407-.932 0-.468-.136-.836-.407-1.103-.272-.272-.647-.407-1.127-.407h-2.95zm0-3.988h2.384c.373 0 .694-.051.961-.153.268-.106.472-.256.614-.448.145-.197.218-.429.218-.697 0-.381-.159-.68-.478-.896-.318-.221-.757-.331-1.315-.331h-2.384z"/></g><path d="m272.298 103.003-3.115-3.1145.761-.7614 2.354 2.3539 2.353-2.3539.762.7614zm-2.354-8.5136-.761-.7615 3.115-3.1149 3.115 3.1149-.762.7615-2.353-2.3535z" fill="#858585"/><path d="m309.416 77.0656c0-4.5984 3.728-8.3262 8.326-8.3262h228.387c4.599 0 8.326 3.7278 8.326 8.3262v39.4164c0 4.598-3.727 8.326-8.326 8.326h-228.387c-4.598 0-8.326-3.728-8.326-8.326z" fill="#383838" fill-opacity=".02"/><path d="m309.935 77.0656c0-4.3117 3.495-7.807 7.807-7.807h228.387c4.312 0 7.807 3.4953 7.807 7.807v39.4164c0 4.311-3.495 7.807-7.807 7.807h-228.387c-4.312 0-7.807-3.496-7.807-7.807z" stroke="#051f51" stroke-opacity=".04" stroke-width="1.0383"/><path d="m330.004 83.5439h-1.098c-.064-.3157-.178-.5929-.34-.8319-.16-.2389-.354-.4395-.584-.6017-.227-.1652-.48-.2891-.757-.3717s-.566-.1239-.867-.1239c-.549 0-1.046.1387-1.491.416-.443.2772-.795.6858-1.058 1.2256-.259.5398-.389 1.202-.389 1.9866s.13 1.4468.389 1.9866c.263.5398.615.9484 1.058 1.2257.445.2772.942.4159 1.491.4159.301 0 .59-.0413.867-.1239s.53-.205.757-.3673c.23-.1651.424-.3672.584-.6061.162-.2419.276-.5192.34-.8319h1.098c-.083.4632-.233.8776-.452 1.2434-.218.3657-.489.6769-.814.9335-.324.2537-.688.4469-1.093.5797-.401.1327-.83.1991-1.287.1991-.773 0-1.46-.1888-2.062-.5664-.602-.3775-1.075-.9144-1.42-1.6105-.345-.6962-.518-1.5221-.518-2.4778s.173-1.7816.518-2.4778c.345-.6961.818-1.233 1.42-1.6105.602-.3776 1.289-.5664 2.062-.5664.457 0 .886.0664 1.287.1991.405.1328.769.3275 1.093.5841.325.2537.596.5634.814.9292.219.3628.369.7772.452 1.2433zm1.242.407v-.9734h5.522v.9734h-2.23v5.8228h-1.044v-5.8228zm8.692 5.9821c-.431 0-.821-.0812-1.172-.2434-.351-.1652-.63-.4026-.837-.7123-.206-.3127-.309-.6903-.309-1.1327 0-.3894.076-.705.23-.9469.153-.2448.358-.4366.615-.5752.256-.1386.539-.2419.849-.3097.313-.0708.627-.1269.943-.1682.413-.053.747-.0929 1.004-.1194.26-.0295.448-.0782.566-.146.121-.0679.182-.1859.182-.354v-.0354c0-.4366-.12-.7758-.359-1.0176-.236-.2419-.594-.3629-1.075-.3629-.498 0-.889.1092-1.172.3275-.283.2182-.483.4513-.598.699l-.991-.3539c.177-.413.413-.7345.708-.9646.298-.233.623-.3952.974-.4867.354-.0944.702-.1416 1.044-.1416.218 0 .469.0266.752.0797.286.0501.562.1548.827.3141.269.1593.492.3997.669.7212.176.3215.265.7522.265 1.292v4.4777h-1.044v-.9203h-.053c-.071.1475-.189.3053-.354.4734s-.385.3112-.66.4292c-.274.118-.609.177-1.004.177zm.159-.938c.413 0 .761-.0812 1.045-.2434.286-.1622.501-.3717.646-.6283.147-.2566.221-.5265.221-.8097v-.9557c-.044.0531-.142.1018-.292.146-.148.0413-.319.0782-.513.1106-.192.0295-.38.0561-.562.0797-.18.0206-.326.0383-.438.0531-.272.0354-.526.0929-.761.1725-.234.0767-.422.1932-.567.3496-.141.1534-.212.3628-.212.6283 0 .3628.134.6371.402.8229.272.1829.615.2744 1.031.2744zm4.437.7787 2.761-3.4512-2.725-3.345h1.238l2.266 2.9025h.566v-2.9025h1.044v2.9025h.549l2.265-2.9025h1.239l-2.708 3.345 2.744 3.4512h-1.257l-2.301-2.9202h-.531v2.9202h-1.044v-2.9202h-.531l-2.318 2.9202zm18.784-3.876v.9735h-3.752v-.9735zm-3.505-2.9202v6.7962h-1.044v-6.7962zm4.301 0v6.7962h-1.044v-6.7962zm3.907 6.9555c-.431 0-.822-.0812-1.173-.2434-.351-.1652-.629-.4026-.836-.7123-.206-.3127-.31-.6903-.31-1.1327 0-.3894.077-.705.231-.9469.153-.2448.358-.4366.615-.5752.256-.1386.539-.2419.849-.3097.313-.0708.627-.1269.942-.1682.413-.053.748-.0929 1.005-.1194.259-.0295.448-.0782.566-.146.121-.0679.182-.1859.182-.354v-.0354c0-.4366-.12-.7758-.359-1.0176-.236-.2419-.594-.3629-1.075-.3629-.498 0-.889.1092-1.172.3275-.284.2182-.483.4513-.598.699l-.991-.3539c.177-.413.413-.7345.708-.9646.298-.233.622-.3952.973-.4867.354-.0944.703-.1416 1.045-.1416.218 0 .469.0266.752.0797.286.0501.562.1548.827.3141.269.1593.491.3997.668.7212s.266.7522.266 1.292v4.4777h-1.044v-.9203h-.053c-.071.1475-.189.3053-.354.4734-.166.1681-.385.3112-.66.4292-.274.118-.609.177-1.004.177zm.159-.938c.413 0 .761-.0812 1.044-.2434.287-.1622.502-.3717.646-.6283.148-.2566.222-.5265.222-.8097v-.9557c-.045.0531-.142.1018-.292.146-.148.0413-.319.0782-.514.1106-.191.0295-.379.0561-.562.0797-.179.0206-.326.0383-.438.0531-.271.0354-.525.0929-.761.1725-.233.0767-.421.1932-.566.3496-.142.1534-.212.3628-.212.6283 0 .3628.134.6371.402.8229.272.1829.615.2744 1.031.2744zm8.366.7787v-6.7962h5.345v6.7962h-1.044v-5.8228h-3.257v5.8228zm10.013.1416c-.614 0-1.152-.146-1.615-.4381-.46-.292-.82-.7005-1.08-1.2256-.256-.525-.385-1.1386-.385-1.8406 0-.7079.129-1.3259.385-1.8539.26-.528.62-.938 1.08-1.23.463-.2921 1.001-.4381 1.615-.4381.613 0 1.15.146 1.61.4381.464.292.823.702 1.08 1.23.26.528.389 1.146.389 1.8539 0 .702-.129 1.3156-.389 1.8406-.257.5251-.616.9336-1.08 1.2256-.46.2921-.997.4381-1.61.4381zm0-.938c.466 0 .849-.1195 1.15-.3584.301-.239.524-.5531.668-.9425.145-.3893.217-.8111.217-1.2654s-.072-.8775-.217-1.2699c-.144-.3923-.367-.7094-.668-.9512-.301-.2419-.684-.3629-1.15-.3629s-.85.121-1.151.3629c-.3.2418-.523.5589-.668.9512-.144.3924-.216.8156-.216 1.2699s.072.8761.216 1.2654c.145.3894.368.7035.668.9425.301.2389.685.3584 1.151.3584zm7.434.938c-.637 0-1.186-.1505-1.646-.4513-.46-.3009-.814-.7153-1.062-1.2433-.247-.528-.371-1.1313-.371-1.8097 0-.6902.127-1.2994.38-1.8274.257-.5309.614-.9453 1.071-1.2433.46-.3008.997-.4513 1.611-.4513.477 0 .908.0885 1.292.2655.383.177.697.4248.942.7433.245.3186.397.6903.456 1.115h-1.044c-.08-.3097-.257-.584-.531-.8229-.272-.2419-.638-.3629-1.098-.3629-.407 0-.764.1062-1.07.3186-.304.2094-.542.5059-.713.8893-.168.3806-.252.8274-.252 1.3407 0 .525.083.9823.248 1.3716.168.3894.404.6917.708.9071.306.2153.666.323 1.079.323.272 0 .518-.0472.739-.1416s.409-.2301.562-.4071.263-.3894.328-.6371h1.044c-.059.4011-.205.7625-.438 1.084-.23.3186-.536.5722-.916.761-.378.1859-.817.2788-1.319.2788zm3.597-.1416v-.9734h.248c.204 0 .373-.0398.509-.1195.136-.0826.245-.2256.327-.4292.086-.2065.151-.4926.195-.8583.047-.3688.081-.8378.102-1.4071l.124-3.0087h4.531v6.7962h-1.045v-5.8228h-2.495l-.106 2.4247c-.024.5575-.074 1.0486-.151 1.4734-.073.4218-.187.7758-.34 1.0619-.151.2861-.351.5014-.602.646-.251.1445-.565.2168-.943.2168zm10.801.1416c-.655 0-1.22-.1446-1.695-.4336-.472-.2921-.836-.6991-1.093-1.2212-.253-.5251-.38-1.1357-.38-1.8318s.127-1.3097.38-1.8406c.257-.5339.614-.9498 1.071-1.2478.46-.3008.997-.4513 1.611-.4513.354 0 .703.059 1.048.177s.66.3097.943.5752c.283.2625.509.6106.677 1.0442s.252.9675.252 1.6017v.4425h-5.239v-.9027h4.177c0-.3834-.077-.7256-.23-1.0265-.151-.3008-.366-.5383-.646-.7123-.277-.174-.605-.2611-.982-.2611-.416 0-.776.1033-1.08.3098-.301.2035-.532.469-.695.7964-.162.3274-.243.6784-.243 1.053v.6018c0 .5132.089.9483.266 1.3052.179.354.429.6239.747.8097.319.1829.689.2744 1.111.2744.274 0 .522-.0384.743-.1151.224-.0796.418-.1976.58-.354.162-.1592.287-.3569.376-.5928l1.009.2831c-.106.3422-.285.6431-.536.9026-.25.2567-.56.4573-.929.6018-.369.1416-.783.2124-1.243.2124zm3.677 1.8052v-2.9202h.566c.139-.1446.258-.3009.358-.469.101-.1682.188-.3673.261-.5974.077-.233.142-.5162.195-.8495.053-.3362.1-.7418.142-1.2167l.23-2.6902h4.318v5.8228h1.044v2.9202h-1.044v-1.9468h-5.026v1.9468zm1.752-2.9202h3.274v-4.8494h-2.301l-.177 1.7168c-.073.7108-.165 1.3318-.274 1.8627-.109.531-.283.9543-.522 1.2699zm11.297-2.9026v.9735h-3.752v-.9735zm-3.504-2.9202v6.7962h-1.045v-6.7962zm4.3 0v6.7962h-1.044v-6.7962zm4.757 6.9378c-.655 0-1.22-.1446-1.695-.4336-.472-.2921-.836-.6991-1.093-1.2212-.253-.5251-.38-1.1357-.38-1.8318s.127-1.3097.38-1.8406c.257-.5339.614-.9498 1.071-1.2478.46-.3008.997-.4513 1.611-.4513.354 0 .703.059 1.048.177s.659.3097.943.5752c.283.2625.508.6106.677 1.0442.168.4336.252.9675.252 1.6017v.4425h-5.239v-.9027h4.177c0-.3834-.077-.7256-.23-1.0265-.151-.3008-.366-.5383-.646-.7123-.277-.174-.605-.2611-.982-.2611-.416 0-.776.1033-1.08.3098-.301.2035-.532.469-.695.7964-.162.3274-.243.6784-.243 1.053v.6018c0 .5132.088.9483.265 1.3052.18.354.43.6239.748.8097.319.1829.689.2744 1.111.2744.274 0 .522-.0384.743-.1151.224-.0796.417-.1976.58-.354.162-.1592.287-.3569.376-.5928l1.009.2831c-.107.3422-.285.6431-.536.9026-.25.2567-.56.4573-.929.6018-.369.1416-.783.2124-1.243.2124zm8.119-1.5575 2.371-5.3803h.992l-2.938 6.7962h-.85l-2.885-6.7962h.974zm-2.673-5.3803v6.7962h-1.044v-6.7962zm5.345 6.7962v-6.7962h1.045v6.7962zm10.177-1.4159 2.371-5.3803h.992l-2.938 6.7962h-.85l-2.885-6.7962h.974zm-2.673-5.3803v6.7962h-1.044v-6.7962zm5.345 6.7962v-6.7962h1.045v6.7962zm5.805.1416c-.654 0-1.219-.1446-1.694-.4336-.472-.2921-.836-.6991-1.093-1.2212-.254-.5251-.381-1.1357-.381-1.8318s.127-1.3097.381-1.8406c.257-.5339.613-.9498 1.071-1.2478.46-.3008.997-.4513 1.61-.4513.354 0 .704.059 1.049.177s.659.3097.942.5752c.283.2625.509.6106.677 1.0442s.252.9675.252 1.6017v.4425h-5.238v-.9027h4.177c0-.3834-.077-.7256-.231-1.0265-.15-.3008-.365-.5383-.646-.7123-.277-.174-.604-.2611-.982-.2611-.416 0-.776.1033-1.079.3098-.301.2035-.533.469-.695.7964s-.243.6784-.243 1.053v.6018c0 .5132.088.9483.265 1.3052.18.354.429.6239.748.8097.318.1829.689.2744 1.11.2744.275 0 .523-.0384.744-.1151.224-.0796.417-.1976.579-.354.163-.1592.288-.3569.376-.5928l1.009.2831c-.106.3422-.284.6431-.535.9026-.251.2567-.561.4573-.929.6018-.369.1416-.783.2124-1.244.2124zm7.164 0c-.637 0-1.186-.1505-1.646-.4513-.46-.3009-.814-.7153-1.062-1.2433s-.372-1.1313-.372-1.8097c0-.6902.127-1.2994.381-1.8274.256-.5309.613-.9453 1.071-1.2433.46-.3008.997-.4513 1.61-.4513.478 0 .909.0885 1.292.2655.384.177.698.4248.943.7433.244.3186.396.6903.455 1.115h-1.044c-.08-.3097-.257-.584-.531-.8229-.271-.2419-.637-.3629-1.097-.3629-.407 0-.764.1062-1.071.3186-.304.2094-.541.5059-.712.8893-.168.3806-.252.8274-.252 1.3407 0 .525.082.9823.247 1.3716.168.3894.404.6917.708.9071.307.2153.667.323 1.08.323.271 0 .517-.0472.739-.1416.221-.0944.408-.2301.562-.4071.153-.177.262-.3894.327-.6371h1.044c-.059.4011-.205.7625-.438 1.084-.23.3186-.535.5722-.916.761-.377.1859-.817.2788-1.318.2788zm3.663-5.9644v-.9734h5.522v.9734h-2.23v5.8228h-1.044v-5.8228zm9.542 5.9644c-.655 0-1.22-.1446-1.695-.4336-.472-.2921-.836-.6991-1.092-1.2212-.254-.5251-.381-1.1357-.381-1.8318s.127-1.3097.381-1.8406c.256-.5339.613-.9498 1.07-1.2478.46-.3008.997-.4513 1.611-.4513.354 0 .703.059 1.048.177.346.118.66.3097.943.5752.283.2625.509.6106.677 1.0442s.252.9675.252 1.6017v.4425h-5.239v-.9027h4.177c0-.3834-.077-.7256-.23-1.0265-.15-.3008-.366-.5383-.646-.7123-.277-.174-.605-.2611-.982-.2611-.416 0-.776.1033-1.08.3098-.301.2035-.532.469-.694.7964-.163.3274-.244.6784-.244 1.053v.6018c0 .5132.089.9483.266 1.3052.18.354.429.6239.747.8097.319.1829.689.2744 1.111.2744.274 0 .522-.0384.743-.1151.225-.0796.418-.1976.58-.354.162-.1592.288-.3569.376-.5928l1.009.2831c-.106.3422-.285.6431-.536.9026-.25.2567-.56.4573-.929.6018-.368.1416-.783.2124-1.243.2124z" fill="#858585"/><path d="m326.948 112.939c-.779 0-1.473-.134-2.083-.401-.605-.268-1.087-.639-1.445-1.115-.354-.48-.547-1.037-.578-1.67h1.486c.032.39.166.726.402 1.009.236.279.544.496.926.649.381.153.804.23 1.268.23.519 0 .98-.09 1.381-.271s.716-.433.944-.756c.228-.322.342-.696.342-1.12 0-.445-.11-.836-.331-1.174-.22-.343-.542-.61-.967-.803-.425-.192-.944-.289-1.558-.289h-.967v-1.298h.967c.48 0 .901-.086 1.263-.259.366-.173.651-.417.855-.732.209-.314.313-.684.313-1.109 0-.409-.09-.765-.271-1.068s-.437-.539-.767-.708c-.327-.169-.712-.253-1.157-.253-.416 0-.81.076-1.179.23-.366.149-.665.368-.897.655-.232.283-.358.625-.378 1.026h-1.416c.024-.633.215-1.188.573-1.664.358-.479.826-.853 1.404-1.12.582-.268 1.221-.402 1.917-.402.747 0 1.388.152 1.923.455.535.299.946.694 1.233 1.185.287.492.431 1.023.431 1.593 0 .681-.179 1.261-.537 1.741-.354.479-.836.812-1.445.997v.094c.763.126 1.359.45 1.787.973.429.52.643 1.163.643 1.93 0 .656-.179 1.246-.537 1.769-.354.52-.837.929-1.451 1.228-.613.298-1.311.448-2.094.448z" fill="#32393e"/><path d="m347.614 103.712v1.298h-4.2v7.764h-1.392v-9.062zm5.243 9.25c-.818 0-1.535-.194-2.153-.584-.613-.389-1.093-.934-1.439-1.634-.343-.7-.514-1.518-.514-2.454 0-.944.171-1.768.514-2.472.346-.704.826-1.25 1.439-1.64.618-.389 1.335-.584 2.153-.584s1.534.195 2.148.584c.617.39 1.097.936 1.439 1.64.346.704.519 1.528.519 2.472 0 .936-.173 1.754-.519 2.454-.342.7-.822 1.245-1.439 1.634-.614.39-1.33.584-2.148.584zm0-1.25c.622 0 1.133-.16 1.534-.478.401-.319.698-.738.891-1.257s.289-1.081.289-1.687-.096-1.17-.289-1.693-.49-.946-.891-1.268c-.401-.323-.912-.484-1.534-.484-.621 0-1.132.161-1.533.484-.402.322-.699.745-.891 1.268-.193.523-.289 1.087-.289 1.693s.096 1.168.289 1.687c.192.519.489.938.891 1.257.401.318.912.478 1.533.478zm5.264 3.657v-3.893h.755c.185-.193.344-.401.478-.626.134-.224.25-.489.348-.796.103-.311.189-.688.26-1.133.071-.448.134-.989.189-1.622l.306-3.587h5.758v7.764h1.393v3.893h-1.393v-2.595h-6.702v2.595zm2.336-3.893h4.366v-6.466h-3.068l-.236 2.289c-.098.948-.22 1.776-.365 2.484-.146.708-.378 1.272-.697 1.693zm11.665 1.51c-.574 0-1.095-.108-1.563-.324-.468-.221-.84-.537-1.115-.95-.276-.417-.413-.921-.413-1.51 0-.52.102-.94.307-1.263.204-.326.477-.582.82-.767.342-.185.719-.322 1.132-.413.417-.094.836-.169 1.257-.224.55-.071.997-.124 1.339-.159.346-.04.598-.105.755-.195.161-.09.242-.248.242-.472v-.047c0-.582-.159-1.035-.478-1.357-.314-.323-.792-.484-1.433-.484-.665 0-1.186.146-1.564.437-.377.291-.643.602-.796.932l-1.322-.472c.236-.551.551-.979.944-1.286.397-.311.83-.527 1.298-.649.472-.126.936-.189 1.392-.189.291 0 .626.036 1.003.106.382.067.75.207 1.103.419.358.213.655.533.891.962.236.428.354 1.003.354 1.722v5.971h-1.392v-1.227h-.071c-.094.196-.251.407-.472.631-.22.224-.513.415-.879.572s-.812.236-1.339.236zm.212-1.251c.551 0 1.015-.108 1.393-.324.381-.216.668-.496.861-.838.197-.342.295-.702.295-1.079v-1.275c-.059.071-.189.136-.389.195-.197.055-.425.104-.685.147-.255.04-.505.075-.749.107-.24.027-.435.051-.584.07-.362.048-.7.124-1.015.231-.31.102-.562.257-.755.466-.189.204-.283.483-.283.837 0 .484.179.85.537 1.098.362.243.82.365 1.374.365z" fill="#32393e"/><path d="m403.27 112.939c-.888 0-1.646-.242-2.271-.726-.625-.487-1.103-1.193-1.433-2.118-.331-.928-.496-2.049-.496-3.362 0-1.306.165-2.421.496-3.345.334-.929.814-1.636 1.439-2.124.629-.492 1.384-.738 2.265-.738s1.635.246 2.26.738c.629.488 1.109 1.195 1.439 2.124.335.924.502 2.039.502 3.345 0 1.313-.165 2.434-.496 3.362-.33.925-.808 1.631-1.433 2.118-.626.484-1.383.726-2.272.726zm0-1.298c.881 0 1.566-.425 2.053-1.274.488-.85.732-2.061.732-3.634 0-1.047-.112-1.937-.336-2.673-.221-.735-.539-1.296-.956-1.681-.413-.386-.911-.578-1.493-.578-.873 0-1.555.43-2.047 1.292-.491.857-.737 2.07-.737 3.64 0 1.046.11 1.935.33 2.666.22.732.537 1.288.95 1.67.417.381.918.572 1.504.572z" fill="#32393e" opacity=".3"/><path d="m423.441 110.886 3.162-7.174h1.322l-3.917 9.062h-1.133l-3.847-9.062h1.298zm-3.563-7.174v9.062h-1.392v-9.062zm7.127 9.062v-9.062h1.392v9.062zm7.74.188c-.874 0-1.627-.192-2.26-.578-.629-.389-1.115-.932-1.457-1.628-.338-.7-.507-1.514-.507-2.442s.169-1.747.507-2.454c.342-.712.818-1.267 1.428-1.664.613-.401 1.329-.602 2.147-.602.472 0 .938.079 1.398.236s.879.413 1.257.767c.377.35.678.814.902 1.392.225.578.337 1.29.337 2.136v.59h-6.985v-1.204h5.569c0-.511-.102-.967-.307-1.368-.201-.401-.488-.718-.861-.95-.37-.232-.807-.348-1.31-.348-.555 0-1.034.137-1.439.413-.402.271-.71.625-.927 1.062-.216.436-.324.904-.324 1.404v.802c0 .684.118 1.265.354 1.74.24.472.572.832.997 1.08.425.244.918.366 1.481.366.365 0 .696-.051.991-.154.299-.106.556-.263.773-.472.216-.212.383-.475.501-.79l1.345.377c-.142.457-.379.858-.714 1.204-.334.342-.747.61-1.239.802-.491.189-1.044.283-1.657.283zm9.551 0c-.85 0-1.581-.2-2.195-.601-.613-.401-1.085-.954-1.416-1.658-.33-.704-.495-1.508-.495-2.413 0-.92.169-1.732.507-2.436.342-.708.818-1.261 1.428-1.658.613-.401 1.329-.602 2.147-.602.637 0 1.212.118 1.723.354s.93.566 1.256.991c.327.425.529.921.608 1.487h-1.392c-.106-.413-.342-.779-.708-1.097-.362-.323-.85-.484-1.463-.484-.543 0-1.019.141-1.428.425-.405.279-.722.674-.95 1.185-.224.508-.336 1.104-.336 1.788 0 .7.11 1.31.33 1.829.225.519.539.922.944 1.209.409.287.889.431 1.44.431.362 0 .69-.063.985-.189s.545-.307.749-.543c.205-.236.35-.519.437-.849h1.392c-.079.535-.273 1.016-.584 1.445-.307.425-.714.763-1.221 1.015-.504.248-1.09.371-1.758.371zm11.049-.188v-7.788h-2.407c-.542 0-.969.126-1.28.378-.31.252-.466.598-.466 1.038 0 .433.14.773.419 1.021.283.248.671.372 1.162.372h2.926v1.297h-2.926c-.613 0-1.142-.108-1.587-.324-.444-.216-.786-.525-1.026-.926-.24-.405-.36-.885-.36-1.44 0-.558.126-1.038.378-1.439.251-.401.611-.71 1.079-.926.472-.217 1.033-.325 1.681-.325h3.729v9.062zm-6.041 0 2.573-4.507h1.51l-2.572 4.507zm17.045-9.062v7.764h1.275v4.224h-1.393v-2.926h-7.008v-9.062h1.392v7.764h4.342v-7.764zm7.121 9.25c-.873 0-1.626-.192-2.259-.578-.63-.389-1.115-.932-1.458-1.628-.338-.7-.507-1.514-.507-2.442s.169-1.747.507-2.454c.343-.712.818-1.267 1.428-1.664.614-.401 1.329-.602 2.147-.602.472 0 .938.079 1.399.236.46.157.879.413 1.256.767.378.35.679.814.903 1.392s.336 1.29.336 2.136v.59h-6.985v-1.204h5.569c0-.511-.102-.967-.307-1.368-.2-.401-.487-.718-.861-.95-.37-.232-.806-.348-1.31-.348-.554 0-1.034.137-1.439.413-.401.271-.71.625-.926 1.062-.217.436-.325.904-.325 1.404v.802c0 .684.118 1.265.354 1.74.24.472.573.832.997 1.08.425.244.919.366 1.481.366.366 0 .696-.051.991-.154.299-.106.557-.263.773-.472.216-.212.383-.475.501-.79l1.346.377c-.142.457-.38.858-.714 1.204-.335.342-.748.61-1.239.802-.492.189-1.044.283-1.658.283zm5.87-.188v-9.062h3.705c.975 0 1.75.22 2.324.661.574.44.862 1.022.862 1.746 0 .551-.164.977-.49 1.28-.327.299-.745.502-1.257.608.335.047.659.165.974.354.318.189.582.448.79.779.209.326.313.727.313 1.203 0 .464-.118.879-.354 1.245s-.574.655-1.015.867c-.44.212-.967.319-1.581.319zm1.321-1.275h2.95c.48 0 .856-.114 1.127-.342s.407-.539.407-.932c0-.468-.136-.836-.407-1.103-.271-.271-.647-.407-1.127-.407h-2.95zm0-3.988h2.384c.373 0 .694-.051.961-.153.268-.106.472-.256.614-.448.146-.197.218-.429.218-.697 0-.381-.159-.68-.478-.896-.318-.22-.757-.331-1.315-.331h-2.384z" fill="#32393e"/><path d="m533.95 103.004-3.115-3.1154.762-.7614 2.353 2.3538 2.354-2.3538.761.7614zm-2.353-8.5146-.762-.7614 3.115-3.1149 3.115 3.1149-.761.7614-2.354-2.3535z" fill="#858585"/><g opacity=".5"><path d="m571.068 77.0656c0-4.5984 3.728-8.3262 8.327-8.3262h228.387c4.598 0 8.326 3.7278 8.326 8.3262v39.4164c0 4.598-3.728 8.326-8.326 8.326h-228.387c-4.599 0-8.327-3.728-8.327-8.326z" fill="#383838" fill-opacity=".02"/><path d="m571.588 77.0656c0-4.3117 3.495-7.807 7.807-7.807h228.387c4.311 0 7.807 3.4953 7.807 7.807v39.4164c0 4.311-3.496 7.807-7.807 7.807h-228.387c-4.312 0-7.807-3.496-7.807-7.807z" stroke="#051f51" stroke-opacity=".04" stroke-width="1.0383"/><path d="m584.625 91.2737v-9.0616h3.168c.631 0 1.152.1092 1.562.3274.41.2154.715.5059.916.8717.2.3628.301.7654.301 1.2079 0 .3894-.07.7109-.208.9646-.136.2536-.316.4542-.54.6017-.221.1475-.462.2566-.721.3274v.0885c.277.0177.556.1151.836.292.28.177.515.4307.704.7611.188.3303.283.7345.283 1.2123 0 .4543-.103.8628-.31 1.2256-.206.3628-.532.6504-.978.8628-.445.2124-1.025.3186-1.739.3186zm1.097-.9734h2.177c.717 0 1.226-.1387 1.527-.4159.304-.2803.456-.6195.456-1.0177 0-.3068-.079-.5899-.235-.8495-.156-.2625-.379-.472-.668-.6283-.289-.1593-.631-.2389-1.027-.2389h-2.23zm0-4.106h2.036c.33 0 .628-.0649.894-.1947.268-.1298.48-.3127.637-.5487.159-.236.239-.5132.239-.8318 0-.3982-.139-.736-.416-1.0132-.278-.2803-.717-.4204-1.319-.4204h-2.071zm7.909 3.5396 3.275-5.2564h1.203v6.7962h-1.044v-5.2564l-3.257 5.2564h-1.221v-6.7962h1.044zm5.665 3.4866v-2.9202h.566c.139-.1446.258-.3009.359-.469.1-.1682.187-.3673.261-.5974.076-.233.141-.5162.194-.8495.054-.3362.101-.7418.142-1.2167l.23-2.6902h4.318v5.8228h1.045v2.9202h-1.045v-1.9468h-5.026v1.9468zm1.752-2.9202h3.274v-4.8494h-2.3l-.177 1.7168c-.074.7108-.166 1.3318-.275 1.8627-.109.531-.283.9543-.522 1.2699zm10.253.9734v-6.7962h5.345v6.7962h-1.044v-5.8228h-3.257v5.8228zm10.013.1416c-.614 0-1.152-.146-1.615-.4381-.46-.292-.82-.7005-1.08-1.2256-.256-.525-.385-1.1386-.385-1.8406 0-.7079.129-1.3259.385-1.8539.26-.528.62-.938 1.08-1.23.463-.2921 1.001-.4381 1.615-.4381.613 0 1.15.146 1.61.4381.463.292.823.702 1.08 1.23.26.528.389 1.146.389 1.8539 0 .702-.129 1.3156-.389 1.8406-.257.5251-.617.9336-1.08 1.2256-.46.2921-.997.4381-1.61.4381zm0-.938c.466 0 .849-.1195 1.15-.3584.301-.239.524-.5531.668-.9425.145-.3893.217-.8111.217-1.2654s-.072-.8775-.217-1.2699c-.144-.3923-.367-.7094-.668-.9512-.301-.2419-.684-.3629-1.15-.3629s-.85.121-1.151.3629c-.3.2418-.523.5589-.668.9512-.144.3924-.216.8156-.216 1.2699s.072.8761.216 1.2654c.145.3894.368.7035.668.9425.301.2389.685.3584 1.151.3584zm3.948 2.7432v-2.9202h.566c.139-.1446.258-.3009.358-.469.101-.1682.188-.3673.261-.5974.077-.233.142-.5162.195-.8495.053-.3362.1-.7418.142-1.2167l.23-2.6902h4.318v5.8228h1.044v2.9202h-1.044v-1.9468h-5.026v1.9468zm1.752-2.9202h3.274v-4.8494h-2.301l-.177 1.7168c-.074.7108-.165 1.3318-.274 1.8627-.109.531-.283.9543-.522 1.2699zm6.359-4.8494v-.9734h5.522v.9734h-2.23v5.8228h-1.044v-5.8228zm7.045 5.8228v-6.7962h2.779c.731 0 1.312.1652 1.743.4956.431.3303.646.7669.646 1.3096 0 .413-.122.7331-.367.9602-.245.2242-.559.3761-.943.4557.251.0354.494.1239.73.2655.239.1416.437.3363.593.584.157.2449.235.5457.235.9027 0 .348-.089.6592-.266.9335-.177.2744-.43.4912-.761.6505-.33.1592-.725.2389-1.186.2389zm.991-.9557h2.212c.36 0 .642-.0856.846-.2567.203-.171.305-.4041.305-.699 0-.3511-.102-.6269-.305-.8274-.204-.2036-.486-.3053-.846-.3053h-2.212zm0-2.9911h1.788c.28 0 .52-.0383.721-.115.201-.0796.354-.1917.46-.3363.109-.1474.164-.3215.164-.5221 0-.2861-.12-.5103-.359-.6725-.239-.1652-.567-.2478-.986-.2478h-1.788zm8.855 4.0884c-.655 0-1.22-.1446-1.695-.4336-.472-.2921-.836-.6991-1.093-1.2212-.253-.5251-.38-1.1357-.38-1.8318s.127-1.3097.38-1.8406c.257-.5339.614-.9498 1.071-1.2478.46-.3008.997-.4513 1.611-.4513.354 0 .703.059 1.048.177s.66.3097.943.5752c.283.2625.509.6106.677 1.0442s.252.9675.252 1.6017v.4425h-5.239v-.9027h4.177c0-.3834-.077-.7256-.23-1.0265-.15-.3008-.366-.5383-.646-.7123-.277-.174-.605-.2611-.982-.2611-.416 0-.776.1033-1.08.3098-.301.2035-.532.469-.695.7964-.162.3274-.243.6784-.243 1.053v.6018c0 .5132.089.9483.266 1.3052.179.354.429.6239.747.8097.319.1829.689.2744 1.111.2744.274 0 .522-.0384.743-.1151.224-.0796.418-.1976.58-.354.162-.1592.287-.3569.376-.5928l1.009.2831c-.106.3422-.285.6431-.536.9026-.25.2567-.56.4573-.929.6018-.369.1416-.783.2124-1.243.2124zm4.402 2.4069v-9.3447h1.009v1.0796h.124c.077-.118.183-.2684.319-.4513.138-.1858.336-.351.593-.4955.259-.1475.61-.2213 1.053-.2213.572 0 1.076.1431 1.513.4292.436.2861.777.6917 1.022 1.2168.245.525.367 1.1445.367 1.8583 0 .7197-.122 1.3436-.367 1.8716-.245.525-.584.9321-1.018 1.2212-.433.2861-.933.4292-1.5.4292-.436 0-.786-.0723-1.048-.2168-.263-.1475-.465-.3142-.607-.5-.141-.1888-.25-.3451-.327-.469h-.088v3.5927zm1.027-5.9466c0 .5133.075.966.226 1.3583.15.3894.37.6947.659.9159.289.2183.643.3275 1.062.3275.436 0 .801-.1151 1.093-.3452.295-.233.516-.5457.663-.938.151-.3952.226-.8347.226-1.3185 0-.4779-.074-.9085-.221-1.292-.145-.3864-.365-.6917-.66-.9159-.292-.2271-.659-.3407-1.101-.3407-.425 0-.782.1077-1.071.323-.289.2124-.507.5103-.655.8938-.147.3805-.221.8244-.221 1.3318zm5.861 3.3981 2.761-3.4512-2.725-3.345h1.239l2.265 2.9025h.566v-2.9025h1.045v2.9025h.548l2.266-2.9025h1.238l-2.707 3.345 2.743 3.4512h-1.257l-2.3-2.9202h-.531v2.9202h-1.045v-2.9202h-.531l-2.318 2.9202zm10.005 1.9468v-2.9202h.567c.138-.1446.258-.3009.358-.469.1-.1682.187-.3673.261-.5974.077-.233.142-.5162.195-.8495.053-.3362.1-.7418.141-1.2167l.231-2.6902h4.318v5.8228h1.044v2.9202h-1.044v-1.9468h-5.026v1.9468zm1.753-2.9202h3.274v-4.8494h-2.301l-.177 1.7168c-.074.7108-.165 1.3318-.274 1.8627-.109.531-.284.9543-.522 1.2699zm9.598 1.115c-.655 0-1.22-.1446-1.695-.4336-.472-.2921-.836-.6991-1.093-1.2212-.254-.5251-.38-1.1357-.38-1.8318s.126-1.3097.38-1.8406c.257-.5339.614-.9498 1.071-1.2478.46-.3008.997-.4513 1.61-.4513.354 0 .704.059 1.049.177s.659.3097.942.5752c.284.2625.509.6106.677 1.0442.169.4336.253.9675.253 1.6017v.4425h-5.239v-.9027h4.177c0-.3834-.077-.7256-.23-1.0265-.151-.3008-.366-.5383-.646-.7123-.278-.174-.605-.2611-.983-.2611-.415 0-.775.1033-1.079.3098-.301.2035-.533.469-.695.7964s-.243.6784-.243 1.053v.6018c0 .5132.088.9483.265 1.3052.18.354.429.6239.748.8097.319.1829.689.2744 1.111.2744.274 0 .522-.0384.743-.1151.224-.0796.417-.1976.58-.354.162-.1592.287-.3569.376-.5928l1.008.2831c-.106.3422-.284.6431-.535.9026-.251.2567-.56.4573-.929.6018-.369.1416-.783.2124-1.243.2124zm8.951-4.0176v.9735h-3.753v-.9735zm-3.505-2.9202v6.7962h-1.044v-6.7962zm4.301 0v6.7962h-1.044v-6.7962zm6.455 2.9202v.9735h-3.752v-.9735zm-3.504-2.9202v6.7962h-1.044v-6.7962zm4.301 0v6.7962h-1.044v-6.7962zm4.668 6.9378c-.614 0-1.152-.146-1.615-.4381-.46-.292-.82-.7005-1.08-1.2256-.256-.525-.385-1.1386-.385-1.8406 0-.7079.129-1.3259.385-1.8539.26-.528.62-.938 1.08-1.23.463-.2921 1.001-.4381 1.615-.4381.613 0 1.15.146 1.61.4381.463.292.823.702 1.08 1.23.26.528.389 1.146.389 1.8539 0 .702-.129 1.3156-.389 1.8406-.257.5251-.617.9336-1.08 1.2256-.46.2921-.997.4381-1.61.4381zm0-.938c.466 0 .849-.1195 1.15-.3584.301-.239.524-.5531.668-.9425.145-.3893.217-.8111.217-1.2654s-.072-.8775-.217-1.2699c-.144-.3923-.367-.7094-.668-.9512-.301-.2419-.684-.3629-1.15-.3629s-.85.121-1.151.3629c-.3.2418-.523.5589-.668.9512-.144.3924-.216.8156-.216 1.2699s.072.8761.216 1.2654c.145.3894.368.7035.668.9425.301.2389.685.3584 1.151.3584zm8.868-5.9998v.9734h-3.151v5.8228h-1.044v-6.7962zm3.932 6.9378c-.613 0-1.152-.146-1.615-.4381-.46-.292-.82-.7005-1.079-1.2256-.257-.525-.385-1.1386-.385-1.8406 0-.7079.128-1.3259.385-1.8539.259-.528.619-.938 1.079-1.23.463-.2921 1.002-.4381 1.615-.4381.614 0 1.151.146 1.611.4381.463.292.823.702 1.079 1.23.26.528.39 1.146.39 1.8539 0 .702-.13 1.3156-.39 1.8406-.256.5251-.616.9336-1.079 1.2256-.46.2921-.997.4381-1.611.4381zm0-.938c.466 0 .85-.1195 1.151-.3584.3-.239.523-.5531.668-.9425.144-.3893.216-.8111.216-1.2654s-.072-.8775-.216-1.2699c-.145-.3923-.368-.7094-.668-.9512-.301-.2419-.685-.3629-1.151-.3629s-.849.121-1.15.3629c-.301.2418-.524.5589-.668.9512-.145.3924-.217.8156-.217 1.2699s.072.8761.217 1.2654c.144.3894.367.7035.668.9425.301.2389.684.3584 1.15.3584zm7.452 2.7432v-2.9202h.567c.138-.1446.258-.3009.358-.469.1-.1682.187-.3673.261-.5974.077-.233.142-.5162.195-.8495.053-.3362.1-.7418.141-1.2167l.23-2.6902h4.319v5.8228h1.044v2.9202h-1.044v-1.9468h-5.027v1.9468zm1.752-2.9202h3.275v-4.8494h-2.301l-.177 1.7168c-.074.7108-.165 1.3318-.275 1.8627-.109.531-.283.9543-.522 1.2699zm9.51 1.115c-.614 0-1.152-.146-1.615-.4381-.46-.292-.82-.7005-1.08-1.2256-.256-.525-.385-1.1386-.385-1.8406 0-.7079.129-1.3259.385-1.8539.26-.528.62-.938 1.08-1.23.463-.2921 1.001-.4381 1.615-.4381.613 0 1.15.146 1.61.4381.464.292.823.702 1.08 1.23.26.528.389 1.146.389 1.8539 0 .702-.129 1.3156-.389 1.8406-.257.5251-.616.9336-1.08 1.2256-.46.2921-.997.4381-1.61.4381zm0-.938c.466 0 .849-.1195 1.15-.3584.301-.239.524-.5531.668-.9425.145-.3893.217-.8111.217-1.2654s-.072-.8775-.217-1.2699c-.144-.3923-.367-.7094-.668-.9512-.301-.2419-.684-.3629-1.15-.3629s-.85.121-1.15.3629c-.301.2418-.524.5589-.669.9512-.144.3924-.216.8156-.216 1.2699s.072.8761.216 1.2654c.145.3894.368.7035.669.9425.3.2389.684.3584 1.15.3584zm5.172-5.9998 1.629 2.7787 1.628-2.7787h1.203l-2.194 3.3981 2.194 3.3981h-1.203l-1.628-2.6371-1.629 2.6371h-1.203l2.159-3.3981-2.159-3.3981zm8.431 6.9378c-.613 0-1.152-.146-1.615-.4381-.46-.292-.82-.7005-1.079-1.2256-.257-.525-.385-1.1386-.385-1.8406 0-.7079.128-1.3259.385-1.8539.259-.528.619-.938 1.079-1.23.463-.2921 1.002-.4381 1.615-.4381.614 0 1.151.146 1.611.4381.463.292.823.702 1.079 1.23.26.528.39 1.146.39 1.8539 0 .702-.13 1.3156-.39 1.8406-.256.5251-.616.9336-1.079 1.2256-.46.2921-.997.4381-1.611.4381zm0-.938c.466 0 .85-.1195 1.151-.3584.301-.239.523-.5531.668-.9425.144-.3893.217-.8111.217-1.2654s-.073-.8775-.217-1.2699c-.145-.3923-.367-.7094-.668-.9512-.301-.2419-.685-.3629-1.151-.3629s-.849.121-1.15.3629c-.301.2418-.524.5589-.668.9512-.145.3924-.217.8156-.217 1.2699s.072.8761.217 1.2654c.144.3894.367.7035.668.9425.301.2389.684.3584 1.15.3584zm3.948 2.7432v-2.9202h.567c.138-.1446.258-.3009.358-.469.1-.1682.187-.3673.261-.5974.077-.233.142-.5162.195-.8495.053-.3362.1-.7418.141-1.2167l.23-2.6902h4.319v5.8228h1.044v2.9202h-1.044v-1.9468h-5.027v1.9468zm1.752-2.9202h3.275v-4.8494h-2.301l-.177 1.7168c-.074.7108-.165 1.3318-.275 1.8627-.109.531-.283.9543-.522 1.2699zm8.749 1.1327c-.431 0-.822-.0812-1.173-.2434-.351-.1652-.629-.4026-.836-.7123-.206-.3127-.31-.6903-.31-1.1327 0-.3894.077-.705.23-.9469.154-.2448.359-.4366.615-.5752.257-.1386.54-.2419.85-.3097.313-.0708.627-.1269.942-.1682.413-.053.748-.0929 1.005-.1194.259-.0295.448-.0782.566-.146.121-.0679.182-.1859.182-.354v-.0354c0-.4366-.12-.7758-.359-1.0176-.236-.2419-.594-.3629-1.075-.3629-.499 0-.889.1092-1.173.3275-.283.2182-.482.4513-.597.699l-.991-.3539c.177-.413.413-.7345.708-.9646.298-.233.622-.3952.973-.4867.354-.0944.702-.1416 1.045-.1416.218 0 .469.0266.752.0797.286.0501.562.1548.827.3141.269.1593.491.3997.668.7212s.266.7522.266 1.292v4.4777h-1.044v-.9203h-.054c-.07.1475-.188.3053-.354.4734-.165.1681-.384.3112-.659.4292-.274.118-.609.177-1.004.177zm.159-.938c.413 0 .761-.0812 1.044-.2434.286-.1622.502-.3717.646-.6283.148-.2566.222-.5265.222-.8097v-.9557c-.045.0531-.142.1018-.292.146-.148.0413-.319.0782-.514.1106-.191.0295-.379.0561-.562.0797-.18.0206-.326.0383-.438.0531-.271.0354-.525.0929-.761.1725-.233.0767-.422.1932-.566.3496-.142.1534-.212.3628-.212.6283 0 .3628.134.6371.402.8229.272.1829.615.2744 1.031.2744z" fill="#858585"/><path d="m582.549 105.051h14.399v6.525h-14.399zm12.447 0h8.178v6.525h-8.178zm6.223 0h14.399v6.525h-14.399zm12.447 0h14.399v6.525h-14.399zm12.447 0h14.398v6.525h-14.398zm12.447 0h14.398v6.525h-14.398z" fill="#32393e" opacity=".1"/></g><g opacity=".5"><path d="m47.7634 149.747c0-4.599 3.7278-8.326 8.3262-8.326h228.3874c4.598 0 8.326 3.727 8.326 8.326v39.416c0 4.598-3.728 8.326-8.326 8.326h-228.3874c-4.5984 0-8.3262-3.728-8.3262-8.326z" fill="#383838" fill-opacity=".02"/><path d="m48.2826 149.747c0-4.312 3.4953-7.807 7.807-7.807h228.3874c4.312 0 7.807 3.495 7.807 7.807v39.416c0 4.312-3.495 7.807-7.807 7.807h-228.3874c-4.3117 0-7.807-3.495-7.807-7.807z" stroke="#051f51" stroke-opacity=".04" stroke-width="1.0383"/><path d="m61.3204 163.955v-9.062h3.168c.6313 0 1.1519.109 1.5619.328.41.215.7153.506.9159.871.2006.363.3009.766.3009 1.208 0 .39-.0693.711-.208.965-.1357.253-.3156.454-.5398.602-.2212.147-.4616.256-.7212.327v.088c.2773.018.556.116.8363.292.2802.177.5147.431.7035.762.1888.33.2832.734.2832 1.212 0 .454-.1033.863-.3098 1.225-.2064.363-.5324.651-.9778.863-.4454.213-1.025.319-1.7389.319zm1.0973-.974h2.1769c.7168 0 1.2256-.138 1.5265-.415.3038-.281.4558-.62.4558-1.018 0-.307-.0782-.59-.2346-.85-.1563-.262-.379-.472-.6681-.628-.289-.159-.6312-.239-1.0265-.239h-2.23zm0-4.106h2.0354c.3303 0 .6282-.064.8937-.194.2684-.13.4808-.313.6372-.549.1592-.236.2389-.513.2389-.832 0-.398-.1387-.736-.4159-1.013-.2773-.28-.7168-.42-1.3186-.42h-2.0707zm9.6257 5.221c-.6135 0-1.1518-.146-1.6149-.438-.4602-.292-.8201-.7-1.0796-1.225-.2567-.525-.385-1.139-.385-1.841 0-.708.1283-1.326.385-1.854.2595-.528.6194-.938 1.0796-1.23.4631-.292 1.0014-.438 1.6149-.438.6136 0 1.1504.146 1.6106.438.4631.292.823.702 1.0796 1.23.2596.528.3893 1.146.3893 1.854 0 .702-.1297 1.316-.3893 1.841-.2566.525-.6165.933-1.0796 1.225-.4602.292-.997.438-1.6106.438zm0-.938c.4661 0 .8496-.119 1.1504-.358.3009-.239.5236-.553.6681-.942.1446-.39.2168-.812.2168-1.266s-.0722-.877-.2168-1.27c-.1445-.392-.3672-.709-.6681-.951-.3008-.242-.6843-.363-1.1504-.363-.466 0-.8495.121-1.1504.363-.3008.242-.5235.559-.6681.951-.1445.393-.2168.816-.2168 1.27s.0723.876.2168 1.266c.1446.389.3673.703.6681.942.3009.239.6844.358 1.1504.358zm4.2487-.938h1.115c.0236.307.1623.54.4159.699.2567.16.59.239 1 .239.4189 0 .7773-.085 1.0752-.256.2979-.174.4469-.454.4469-.841 0-.227-.0561-.425-.1682-.593-.1121-.171-.2699-.304-.4734-.398s-.4439-.142-.7212-.142h-1.1681v-.938h1.1681c.4159 0 .7227-.094.9203-.283.2006-.189.3009-.425.3009-.708 0-.304-.1077-.547-.323-.73-.2153-.186-.5206-.279-.9159-.279-.3982 0-.7301.09-.9955.27-.2655.177-.4056.406-.4204.686h-1.0973c.0118-.366.1239-.689.3363-.969.2124-.283.5014-.504.8672-.663.3658-.163.7846-.244 1.2566-.244.4779 0 .8923.084 1.2433.252.354.166.6268.391.8186.677.1946.284.292.605.292.965 0 .383-.1077.693-.323.929s-.4852.404-.8097.504v.071c.2566.018.4793.101.6681.248.1917.145.3407.335.4469.571.1062.233.1593.491.1593.774 0 .413-.1106.773-.3319 1.08-.2212.304-.525.54-.9114.708-.3865.165-.8274.247-1.323.247-.4808 0-.9115-.078-1.292-.234-.3805-.159-.6828-.379-.907-.659-.2212-.284-.3378-.611-.3496-.983zm6.5816 4.283v-9.344h1.0088v1.079h.1239c.0767-.118.1829-.268.3186-.451.1386-.186.3362-.351.5929-.496.2596-.147.6106-.221 1.053-.221.5723 0 1.0767.143 1.5132.429.4366.286.7773.692 1.0221 1.217s.3673 1.145.3673 1.858c0 .72-.1225 1.344-.3673 1.872-.2448.525-.584.932-1.0176 1.221-.4336.286-.9336.429-1.5.429-.4365 0-.7861-.072-1.0486-.216-.2625-.148-.4646-.315-.6062-.5-.1416-.189-.2507-.345-.3274-.469h-.0885v3.592zm1.0265-5.946c0 .513.0752.966.2257 1.358.1504.389.3702.695.6592.916.2891.218.6431.327 1.0619.327.4366 0 .8009-.115 1.0929-.345.295-.233.5162-.545.6637-.938.1504-.395.2257-.834.2257-1.318 0-.478-.0738-.909-.2213-1.292-.1445-.387-.3643-.692-.6592-.916-.2921-.227-.6593-.341-1.1018-.341-.4247 0-.7816.108-1.0707.323-.2891.213-.5074.51-.6549.894-.1474.38-.2212.824-.2212 1.332zm8.566 3.557c-.4306 0-.8215-.081-1.1725-.243-.351-.165-.6298-.403-.8362-.713-.2065-.312-.3098-.69-.3098-1.132 0-.39.0767-.705.2301-.947.1534-.245.3584-.437.615-.575.2567-.139.5398-.242.8496-.31.3126-.071.6268-.127.9424-.168.413-.053.7477-.093 1.0044-.12.2595-.029.4483-.078.5663-.146.121-.068.1814-.186.1814-.354v-.035c0-.437-.1194-.776-.3584-1.018-.2359-.242-.5943-.363-1.0751-.363-.4985 0-.8894.11-1.1726.328-.2831.218-.4822.451-.5973.699l-.9911-.354c.177-.413.413-.734.708-.965.2979-.233.6223-.395.9734-.486.3539-.095.702-.142 1.0442-.142.2182 0 .469.027.7521.08.2862.05.562.155.8274.314.2685.159.4912.4.6682.721.1769.322.2654.752.2654 1.292v4.478h-1.0442v-.92h-.0531c-.0708.147-.1887.305-.3539.473s-.385.311-.6593.429-.6091.177-1.0044.177zm.1593-.938c.413 0 .761-.081 1.0442-.243.2861-.162.5015-.372.646-.629.1475-.256.2212-.526.2212-.809v-.956c-.0442.053-.1416.102-.292.146-.1475.041-.3186.078-.5132.111-.1918.029-.3791.056-.562.079-.1799.021-.3259.039-.438.053-.2714.036-.5251.093-.761.173-.2331.077-.4218.193-.5664.35-.1416.153-.2124.362-.2124.628 0 .363.1343.637.4027.823.2714.183.615.274 1.0309.274zm7.6225.92c-.6372 0-1.1858-.15-1.646-.451-.4601-.301-.8141-.715-1.0619-1.243s-.3716-1.131-.3716-1.81c0-.69.1268-1.299.3805-1.827.2566-.531.6135-.946 1.0707-1.244.4602-.3.997-.451 1.6103-.451.478 0 .909.089 1.292.266.384.177.698.424.943.743s.396.69.455 1.115h-1.044c-.079-.31-.256-.584-.531-.823-.271-.242-.637-.363-1.097-.363-.4071 0-.764.106-1.0708.319-.3038.209-.5413.506-.7123.889-.1682.381-.2522.827-.2522 1.341 0 .525.0825.982.2477 1.371.1682.39.4041.692.708.907.3067.216.6666.323 1.0796.323.271 0 .518-.047.739-.141.221-.095.408-.23.562-.407.153-.177.262-.39.327-.637h1.044c-.059.401-.205.762-.438 1.084-.23.318-.535.572-.916.761-.377.186-.817.278-1.318.278zm3.664-5.964v-.973h5.521v.973h-2.23v5.823h-1.044v-5.823zm10.124 4.088h1.115c.024.307.162.54.416.699.257.16.59.239 1 .239.419 0 .777-.085 1.075-.256.298-.174.447-.454.447-.841 0-.227-.056-.425-.168-.593-.112-.171-.27-.304-.474-.398-.203-.094-.443-.142-.721-.142h-1.168v-.938h1.168c.416 0 .723-.094.921-.283.2-.189.3-.425.3-.708 0-.304-.107-.547-.323-.73-.215-.186-.52-.279-.915-.279-.399 0-.731.09-.996.27-.265.177-.406.406-.42.686h-1.098c.012-.366.124-.689.337-.969.212-.283.501-.504.867-.663.366-.163.784-.244 1.256-.244.478 0 .893.084 1.244.252.354.166.627.391.818.677.195.284.292.605.292.965 0 .383-.107.693-.323.929-.215.236-.485.404-.809.504v.071c.256.018.479.101.668.248.191.145.34.335.447.571.106.233.159.491.159.774 0 .413-.111.773-.332 1.08-.221.304-.525.54-.911.708-.387.165-.828.247-1.323.247-.481 0-.912-.078-1.292-.234-.381-.159-.683-.379-.907-.659-.222-.284-.338-.611-.35-.983zm8.582 1.894c-.431 0-.822-.081-1.173-.243-.351-.165-.63-.403-.836-.713-.207-.312-.31-.69-.31-1.132 0-.39.077-.705.23-.947.154-.245.359-.437.615-.575.257-.139.54-.242.85-.31.312-.071.627-.127.942-.168.413-.053.748-.093 1.005-.12.259-.029.448-.078.566-.146.121-.068.181-.186.181-.354v-.035c0-.437-.119-.776-.358-1.018-.236-.242-.594-.363-1.075-.363-.499 0-.89.11-1.173.328s-.482.451-.597.699l-.991-.354c.177-.413.413-.734.708-.965.298-.233.622-.395.973-.486.354-.095.702-.142 1.044-.142.219 0 .469.027.753.08.286.05.561.155.827.314.268.159.491.4.668.721.177.322.265.752.265 1.292v4.478h-1.044v-.92h-.053c-.071.147-.189.305-.354.473s-.385.311-.659.429-.609.177-1.004.177zm.159-.938c.413 0 .761-.081 1.044-.243.286-.162.502-.372.646-.629.148-.256.221-.526.221-.809v-.956c-.044.053-.141.102-.292.146-.147.041-.318.078-.513.111-.192.029-.379.056-.562.079-.18.021-.326.039-.438.053-.271.036-.525.093-.761.173-.233.077-.422.193-.566.35-.142.153-.213.362-.213.628 0 .363.135.637.403.823.271.183.615.274 1.031.274zm7.711.92c-.655 0-1.22-.144-1.695-.433-.472-.292-.836-.699-1.093-1.221-.253-.525-.38-1.136-.38-1.832s.127-1.31.38-1.841c.257-.534.614-.95 1.071-1.248.46-.3.997-.451 1.611-.451.354 0 .703.059 1.048.177s.66.31.943.575c.283.263.509.611.677 1.045.168.433.252.967.252 1.601v.443h-5.239v-.903h4.177c0-.383-.077-.726-.23-1.026-.151-.301-.366-.539-.646-.713-.277-.174-.605-.261-.982-.261-.416 0-.776.103-1.08.31-.301.203-.532.469-.695.796-.162.328-.243.679-.243 1.053v.602c0 .513.089.948.265 1.305.18.354.43.624.748.81.319.183.689.274 1.111.274.274 0 .522-.038.743-.115.224-.079.418-.197.58-.354.162-.159.287-.357.376-.592l1.009.283c-.107.342-.285.643-.536.902-.25.257-.56.458-.929.602-.369.142-.783.212-1.243.212zm8.119-1.557 2.372-5.38h.991l-2.938 6.796h-.85l-2.885-6.796h.974zm-2.673-5.38v6.796h-1.044v-6.796zm5.345 6.796v-6.796h1.045v6.796zm12.23-.974-.124 2.921h-1.08v-1.947h-.884v-.974zm-9.274-5.822h1.044v5.822h2.566v-5.822h1.045v5.822h2.566v-5.822h1.044v6.796h-8.265zm11.837 5.256 3.274-5.256h1.204v6.796h-1.045v-5.257l-3.256 5.257h-1.221v-6.796h1.044zm6.39 1.54v-6.796h1.044v2.955h.691l2.442-2.955h1.345l-2.743 3.274 2.778 3.522h-1.345l-2.23-2.867h-.938v2.867zm8.692.159c-.43 0-.821-.081-1.172-.243-.351-.165-.63-.403-.837-.713-.206-.312-.309-.69-.309-1.132 0-.39.076-.705.23-.947.153-.245.358-.437.615-.575.256-.139.54-.242.849-.31.313-.071.627-.127.943-.168.413-.053.748-.093 1.004-.12.26-.029.449-.078.567-.146.12-.068.181-.186.181-.354v-.035c0-.437-.12-.776-.358-1.018-.236-.242-.595-.363-1.076-.363-.498 0-.889.11-1.172.328s-.482.451-.597.699l-.992-.354c.177-.413.413-.734.708-.965.298-.233.623-.395.974-.486.354-.095.702-.142 1.044-.142.218 0 .469.027.752.08.286.05.562.155.828.314.268.159.491.4.668.721.177.322.265.752.265 1.292v4.478h-1.044v-.92h-.053c-.071.147-.189.305-.354.473s-.385.311-.659.429c-.275.118-.61.177-1.005.177zm.159-.938c.413 0 .762-.081 1.045-.243.286-.162.501-.372.646-.629.147-.256.221-.526.221-.809v-.956c-.044.053-.142.102-.292.146-.148.041-.319.078-.513.111-.192.029-.379.056-.562.079-.18.021-.326.039-.438.053-.272.036-.525.093-.761.173-.233.077-.422.193-.567.35-.141.153-.212.362-.212.628 0 .363.134.637.403.823.271.183.615.274 1.03.274z" fill="#858585"/><path d="m59.2444 177.732h14.3985v6.525h-14.3985zm12.4468 0h14.3985v6.525h-14.3985zm25.4882 0h14.3986v6.525h-14.3986zm12.4466 0h14.399v6.525h-14.399zm12.447 0h8.178v6.525h-8.178z" fill="#32393e" opacity=".1"/></g><g opacity=".5"><path d="m309.416 149.747c0-4.599 3.728-8.326 8.326-8.326h228.387c4.599 0 8.326 3.727 8.326 8.326v39.416c0 4.598-3.727 8.326-8.326 8.326h-228.387c-4.598 0-8.326-3.728-8.326-8.326z" fill="#383838" fill-opacity=".02"/><path d="m309.935 149.747c0-4.312 3.495-7.807 7.807-7.807h228.387c4.312 0 7.807 3.495 7.807 7.807v39.416c0 4.312-3.495 7.807-7.807 7.807h-228.387c-4.312 0-7.807-3.495-7.807-7.807z" stroke="#051f51" stroke-opacity=".04" stroke-width="1.0383"/><path d="m322.477 155.867v-.974h6.796v.974h-2.849v8.088h-1.097v-8.088zm8.687 6.548 3.274-5.256h1.203v6.796h-1.044v-5.257l-3.256 5.257h-1.221v-6.796h1.044zm6.39 1.54v-6.796h5.345v6.796h-1.044v-5.823h-3.257v5.823zm10.331-1.735h1.115c.024.307.163.54.416.699.257.16.59.239 1 .239.419 0 .778-.085 1.075-.256.298-.174.447-.454.447-.841 0-.227-.056-.425-.168-.593-.112-.171-.27-.304-.473-.398-.204-.094-.444-.142-.721-.142h-1.169v-.938h1.169c.415 0 .722-.094.92-.283.2-.189.301-.425.301-.708 0-.304-.108-.547-.323-.73-.216-.186-.521-.279-.916-.279-.398 0-.73.09-.996.27-.265.177-.405.406-.42.686h-1.097c.012-.366.124-.689.336-.969.212-.283.501-.504.867-.663.366-.163.785-.244 1.257-.244.478 0 .892.084 1.243.252.354.166.627.391.819.677.194.284.292.605.292.965 0 .383-.108.693-.323.929-.216.236-.486.404-.81.504v.071c.257.018.479.101.668.248.192.145.341.335.447.571.106.233.159.491.159.774 0 .413-.11.773-.332 1.08-.221.304-.525.54-.911.708-.386.165-.827.247-1.323.247-.481 0-.911-.078-1.292-.234-.381-.159-.683-.379-.907-.659-.221-.284-.338-.611-.35-.983zm8.582 1.894c-.431 0-.822-.081-1.173-.243-.351-.165-.629-.403-.836-.713-.206-.312-.31-.69-.31-1.132 0-.39.077-.705.231-.947.153-.245.358-.437.615-.575.256-.139.539-.242.849-.31.313-.071.627-.127.942-.168.413-.053.748-.093 1.005-.12.259-.029.448-.078.566-.146.121-.068.182-.186.182-.354v-.035c0-.437-.12-.776-.359-1.018-.236-.242-.594-.363-1.075-.363-.498 0-.889.11-1.172.328-.284.218-.483.451-.598.699l-.991-.354c.177-.413.413-.734.708-.965.298-.233.622-.395.973-.486.354-.095.702-.142 1.045-.142.218 0 .469.027.752.08.286.05.562.155.827.314.269.159.491.4.668.721.177.322.266.752.266 1.292v4.478h-1.044v-.92h-.053c-.071.147-.189.305-.354.473-.166.168-.385.311-.66.429-.274.118-.609.177-1.004.177zm.159-.938c.413 0 .761-.081 1.044-.243.287-.162.502-.372.646-.629.148-.256.222-.526.222-.809v-.956c-.045.053-.142.102-.292.146-.148.041-.319.078-.514.111-.191.029-.379.056-.562.079-.18.021-.326.039-.438.053-.271.036-.525.093-.761.173-.233.077-.421.193-.566.35-.142.153-.212.362-.212.628 0 .363.134.637.402.823.272.183.615.274 1.031.274zm9.41-3.097v.973h-3.752v-.973zm-3.504-2.92v6.796h-1.044v-6.796zm4.301 0v6.796h-1.045v-6.796zm5.995 6.796v-5.841h-1.805c-.407 0-.727.095-.96.284-.233.188-.35.448-.35.778 0 .325.105.58.314.766.213.186.503.278.872.278h2.194v.974h-2.194c-.46 0-.857-.081-1.19-.243-.334-.163-.59-.394-.77-.695-.18-.304-.27-.664-.27-1.08 0-.419.094-.778.283-1.079s.459-.533.81-.695c.354-.162.774-.243 1.261-.243h2.796v6.796zm-4.531 0 1.929-3.381h1.133l-1.929 3.381zm6.514-5.823v-.973h5.522v.973h-2.23v5.823h-1.044v-5.823zm9.453 5.964c-.613 0-1.151-.146-1.615-.438-.46-.292-.82-.7-1.079-1.225-.257-.525-.385-1.139-.385-1.841 0-.708.128-1.326.385-1.854.259-.528.619-.938 1.079-1.23.464-.292 1.002-.438 1.615-.438.614 0 1.151.146 1.611.438.463.292.823.702 1.08 1.23.259.528.389 1.146.389 1.854 0 .702-.13 1.316-.389 1.841-.257.525-.617.933-1.08 1.225-.46.292-.997.438-1.611.438zm0-.938c.466 0 .85-.119 1.151-.358s.523-.553.668-.942c.144-.39.217-.812.217-1.266s-.073-.877-.217-1.27c-.145-.392-.367-.709-.668-.951s-.685-.363-1.151-.363-.849.121-1.15.363-.524.559-.668.951c-.145.393-.217.816-.217 1.27s.072.876.217 1.266c.144.389.367.703.668.942s.684.358 1.15.358zm7.435.938c-.637 0-1.186-.15-1.646-.451s-.814-.715-1.062-1.243-.372-1.131-.372-1.81c0-.69.127-1.299.381-1.827.256-.531.613-.946 1.071-1.244.46-.3.997-.451 1.61-.451.478 0 .909.089 1.292.266.384.177.698.424.943.743.244.319.396.69.455 1.115h-1.044c-.08-.31-.257-.584-.531-.823-.271-.242-.637-.363-1.097-.363-.407 0-.764.106-1.071.319-.304.209-.541.506-.712.889-.168.381-.253.827-.253 1.341 0 .525.083.982.248 1.371.168.39.404.692.708.907.307.216.667.323 1.08.323.271 0 .517-.047.739-.141.221-.095.408-.23.562-.407.153-.177.262-.39.327-.637h1.044c-.059.401-.205.762-.438 1.084-.23.318-.535.572-.916.761-.377.186-.817.278-1.318.278zm3.663-5.964v-.973h5.522v.973h-2.23v5.823h-1.044v-5.823zm8.09 4.283 3.274-5.256h1.203v6.796h-1.044v-5.257l-3.256 5.257h-1.222v-6.796h1.045z" fill="#858585"/><path d="m320.897 177.732h14.398v6.525h-14.398zm12.447 0h14.398v6.525h-14.398zm12.446 0h14.399v6.525h-14.399zm12.447 0h14.399v6.525h-14.399zm12.447 0h8.178v6.525h-8.178zm6.223 0h14.399v6.525h-14.399zm25.488 0h14.399v6.525h-14.399zm12.447 0h14.399v6.525h-14.399zm25.489 0h14.398v6.525h-14.398zm12.446 0h14.399v6.525h-14.399zm12.447 0h14.399v6.525h-14.399zm12.447 0h14.398v6.525h-14.398zm12.447 0h14.398v6.525h-14.398z" fill="#32393e" opacity=".1"/><path d="m533.689 175.685-3.115-3.115.762-.762 2.353 2.354 2.354-2.354.761.762zm-2.353-8.514-.762-.762 3.115-3.115 3.115 3.115-.761.762-2.354-2.354z" fill="#858585"/></g><g opacity=".5"><path d="m571.068 149.747c0-4.599 3.728-8.326 8.327-8.326h228.387c4.598 0 8.326 3.727 8.326 8.326v39.416c0 4.598-3.728 8.326-8.326 8.326h-228.387c-4.599 0-8.327-3.728-8.327-8.326z" fill="#383838" fill-opacity=".02"/><path d="m571.588 149.747c0-4.312 3.495-7.807 7.807-7.807h228.387c4.311 0 7.807 3.495 7.807 7.807v39.416c0 4.312-3.496 7.807-7.807 7.807h-228.387c-4.312 0-7.807-3.495-7.807-7.807z" stroke="#051f51" stroke-opacity=".04" stroke-width="1.0383"/><g fill="#858585"><path d="m588.861 176.12c-.779 0-1.473-.134-2.083-.401-.605-.268-1.087-.639-1.445-1.115-.354-.48-.547-1.036-.578-1.67h1.487c.031.39.165.726.401 1.009.236.279.544.496.926.649.381.153.804.23 1.268.23.519 0 .98-.09 1.381-.271s.716-.433.944-.755c.228-.323.342-.696.342-1.121 0-.445-.11-.836-.33-1.174-.221-.342-.543-.61-.968-.803-.425-.192-.944-.289-1.557-.289h-.968v-1.298h.968c.479 0 .9-.086 1.262-.259.366-.173.651-.417.855-.732.209-.314.313-.684.313-1.109 0-.409-.09-.765-.271-1.068-.181-.302-.437-.538-.767-.707-.327-.17-.712-.254-1.156-.254-.417 0-.811.077-1.18.23-.366.149-.665.368-.897.655-.232.283-.358.625-.378 1.026h-1.416c.024-.633.215-1.187.573-1.663.358-.48.826-.854 1.404-1.121.582-.268 1.221-.401 1.917-.401.747 0 1.388.151 1.923.454.535.299.946.694 1.233 1.186.287.491.431 1.022.431 1.592 0 .681-.179 1.261-.537 1.741-.354.48-.836.812-1.445.997v.094c.763.126 1.359.451 1.787.974.429.519.643 1.162.643 1.929 0 .657-.179 1.246-.536 1.77-.354.519-.838.928-1.452 1.227-.613.299-1.311.448-2.094.448zm9.185.047c-.574 0-1.095-.108-1.563-.324-.468-.221-.84-.537-1.115-.95-.275-.417-.413-.92-.413-1.51 0-.519.102-.94.307-1.263.204-.326.478-.582.82-.767s.72-.322 1.133-.413c.416-.094.835-.169 1.256-.224.551-.071.997-.124 1.339-.159.346-.039.598-.104.755-.195.162-.09.242-.248.242-.472v-.047c0-.582-.159-1.034-.478-1.357-.314-.322-.792-.484-1.433-.484-.665 0-1.186.146-1.563.437-.378.291-.643.602-.797.932l-1.321-.472c.236-.551.55-.979.944-1.286.397-.311.829-.527 1.297-.649.472-.126.936-.189 1.393-.189.291 0 .625.036 1.003.106.381.067.749.207 1.103.419.358.213.655.533.891.962s.354 1.003.354 1.723v5.97h-1.393v-1.227h-.07c-.095.196-.252.407-.472.631-.221.224-.514.415-.879.572-.366.158-.813.236-1.34.236zm.213-1.25c.55 0 1.014-.109 1.392-.325.382-.216.669-.495.861-.838.197-.342.295-.702.295-1.079v-1.275c-.059.071-.188.136-.389.195-.197.055-.425.104-.684.148-.256.039-.506.074-.75.106-.24.027-.434.051-.584.071-.361.047-.7.123-1.014.23-.311.102-.563.257-.755.466-.189.204-.284.483-.284.837 0 .484.179.85.537 1.098.362.244.82.366 1.375.366zm6.482 4.436v-12.46h1.345v1.44h.165c.102-.158.244-.358.425-.602.185-.248.448-.468.79-.661.346-.196.814-.295 1.404-.295.763 0 1.436.191 2.018.573.582.381 1.036.922 1.363 1.622.326.7.489 1.526.489 2.478 0 .959-.163 1.791-.489 2.495-.327.7-.779 1.243-1.357 1.628-.578.382-1.245.573-2 .573-.582 0-1.048-.097-1.398-.289-.35-.197-.62-.419-.808-.667-.189-.252-.335-.46-.437-.625h-.118v4.79zm1.368-7.929c0 .684.101 1.288.301 1.811.201.519.494.926.879 1.221.386.291.858.437 1.416.437.582 0 1.068-.153 1.457-.46.394-.311.689-.728.885-1.251.201-.527.301-1.113.301-1.758 0-.637-.098-1.211-.295-1.723-.193-.515-.486-.922-.879-1.221-.389-.303-.879-.454-1.469-.454-.566 0-1.042.144-1.427.431-.386.283-.677.68-.874 1.191-.196.508-.295 1.1-.295 1.776zm8.755 4.531v-9.062h7.127v9.062h-1.392v-7.764h-4.342v7.764zm8.867 0v-1.298h.33c.272 0 .498-.053.679-.159.181-.11.326-.301.436-.573.115-.275.201-.656.26-1.144.063-.492.108-1.117.136-1.876l.165-4.012h6.041v9.062h-1.392v-7.764h-3.328l-.141 3.233c-.032.743-.099 1.398-.201 1.965-.098.562-.25 1.034-.454 1.415-.201.382-.468.669-.802.862-.335.192-.754.289-1.257.289zm13.268.212c-.574 0-1.095-.108-1.563-.324-.468-.221-.84-.537-1.115-.95-.276-.417-.413-.92-.413-1.51 0-.519.102-.94.306-1.263.205-.326.478-.582.82-.767.343-.185.72-.322 1.133-.413.417-.094.836-.169 1.257-.224.55-.071.997-.124 1.339-.159.346-.039.598-.104.755-.195.161-.09.242-.248.242-.472v-.047c0-.582-.159-1.034-.478-1.357-.315-.322-.792-.484-1.434-.484-.664 0-1.185.146-1.563.437-.377.291-.643.602-.796.932l-1.322-.472c.236-.551.551-.979.944-1.286.397-.311.83-.527 1.298-.649.472-.126.936-.189 1.392-.189.291 0 .626.036 1.003.106.382.067.749.207 1.103.419.358.213.655.533.891.962s.354 1.003.354 1.723v5.97h-1.392v-1.227h-.071c-.094.196-.252.407-.472.631s-.513.415-.879.572c-.366.158-.812.236-1.339.236zm.212-1.25c.551 0 1.015-.109 1.393-.325.381-.216.668-.495.861-.838.197-.342.295-.702.295-1.079v-1.275c-.059.071-.189.136-.389.195-.197.055-.425.104-.685.148-.255.039-.505.074-.749.106-.24.027-.435.051-.584.071-.362.047-.7.123-1.015.23-.31.102-.562.257-.755.466-.189.204-.283.483-.283.837 0 .484.179.85.537 1.098.362.244.82.366 1.374.366zm5.249-6.726v-1.298h7.363v1.298h-2.973v7.764h-1.393v-7.764zm15.458 2.596v1.298h-5.002v-1.298zm-4.672-3.894v9.062h-1.392v-9.062zm5.734 0v9.062h-1.392v-9.062zm3.746 3.28h2.596c1.062 0 1.874.27 2.437.809.562.538.843 1.221.843 2.047 0 .542-.126 1.036-.377 1.48-.252.441-.622.793-1.109 1.056-.488.26-1.086.39-1.794.39h-3.799v-9.062h1.392v7.764h2.407c.551 0 1.003-.146 1.357-.437s.531-.664.531-1.12c0-.48-.177-.872-.531-1.174-.354-.303-.806-.455-1.357-.455h-2.596zm7.316 5.782v-9.062h1.392v9.062zm5.333-2.053 4.365-7.009h1.605v9.062h-1.392v-7.009l-4.342 7.009h-1.628v-9.062h1.392zm3.445-10.029h1.298c0 .637-.22 1.158-.661 1.563-.44.405-1.038.608-1.793.608-.743 0-1.335-.203-1.776-.608-.436-.405-.655-.926-.655-1.563h1.298c0 .307.085.576.254.808.173.232.466.348.879.348s.708-.116.885-.348c.181-.232.271-.501.271-.808zm9.748 12.082v-9.062h7.126v9.062h-1.392v-7.764h-4.342v7.764zm9.669 3.398v-12.46h1.345v1.44h.165c.102-.158.244-.358.425-.602.185-.248.448-.468.79-.661.346-.196.814-.295 1.404-.295.763 0 1.436.191 2.018.573.582.381 1.036.922 1.363 1.622.326.7.489 1.526.489 2.478 0 .959-.163 1.791-.489 2.495-.327.7-.779 1.243-1.357 1.628-.578.382-1.245.573-2 .573-.582 0-1.048-.097-1.398-.289-.35-.197-.62-.419-.808-.667-.189-.252-.335-.46-.437-.625h-.118v4.79zm1.368-7.929c0 .684.101 1.288.301 1.811.201.519.494.926.879 1.221.386.291.858.437 1.416.437.582 0 1.068-.153 1.457-.46.394-.311.689-.728.885-1.251.201-.527.301-1.113.301-1.758 0-.637-.098-1.211-.295-1.723-.193-.515-.486-.922-.879-1.221-.389-.303-.879-.454-1.469-.454-.566 0-1.042.144-1.427.431-.386.283-.677.68-.874 1.191-.196.508-.295 1.1-.295 1.776zm12.436 4.72c-.818 0-1.535-.195-2.153-.584-.613-.39-1.093-.935-1.439-1.635-.342-.7-.514-1.518-.514-2.454 0-.944.172-1.768.514-2.472.346-.704.826-1.25 1.439-1.64.618-.389 1.335-.584 2.153-.584.819 0 1.534.195 2.148.584.617.39 1.097.936 1.439 1.64.346.704.519 1.528.519 2.472 0 .936-.173 1.754-.519 2.454-.342.7-.822 1.245-1.439 1.635-.614.389-1.329.584-2.148.584zm0-1.251c.622 0 1.133-.159 1.534-.478.401-.318.698-.737.891-1.257.193-.519.289-1.081.289-1.687 0-.605-.096-1.17-.289-1.693s-.49-.946-.891-1.268c-.401-.323-.912-.484-1.534-.484-.621 0-1.132.161-1.533.484-.402.322-.698.745-.891 1.268s-.289 1.088-.289 1.693c0 .606.096 1.168.289 1.687.193.52.489.939.891 1.257.401.319.912.478 1.533.478zm10.031 1.251c-.873 0-1.626-.193-2.259-.579-.63-.389-1.115-.932-1.458-1.628-.338-.7-.507-1.514-.507-2.442s.169-1.746.507-2.454c.343-.712.818-1.267 1.428-1.664.614-.401 1.329-.602 2.147-.602.472 0 .938.079 1.399.236.46.158.879.413 1.256.767.378.35.679.814.903 1.392.224.579.336 1.29.336 2.136v.59h-6.985v-1.203h5.569c0-.512-.102-.968-.307-1.369-.2-.401-.487-.718-.861-.95-.37-.232-.806-.348-1.31-.348-.554 0-1.034.138-1.439.413-.401.271-.71.625-.926 1.062-.217.436-.325.904-.325 1.404v.802c0 .685.118 1.265.354 1.741.24.472.572.831.997 1.079.425.244.919.366 1.481.366.366 0 .696-.051.991-.153.299-.107.557-.264.773-.472.216-.213.383-.476.501-.791l1.345.378c-.141.456-.379.857-.713 1.203-.335.342-.748.61-1.239.802-.492.189-1.044.284-1.658.284zm5.87-.189v-9.062h1.392v3.941h.921l3.256-3.941h1.793l-3.657 4.366 3.705 4.696h-1.794l-2.973-3.823h-1.251v3.823zm8.404-7.764v-1.298h7.362v1.298h-2.973v7.764h-1.392v-7.764z"/><path d="m795.341 175.685-3.114-3.115.761-.762 2.353 2.354 2.354-2.354.761.762zm-2.353-8.514-.761-.762 3.114-3.115 3.115 3.115-.761.762-2.354-2.354z"/></g></g><path d="m48.5904 50.5529v-9.5144h3.7537c.7216 0 1.3364.1378 1.8443.4135.508.2725.8951.6519 1.1615 1.1382.2694.4831.4042 1.0406.4042 1.6724s-.1363 1.1893-.4089 1.6725c-.2725.4831-.6674.8594-1.1846 1.1289-.5142.2694-1.1367.4042-1.8676.4042h-2.3925v-1.6121h2.0673c.3871 0 .7061-.0666.957-.1998.254-.1362.4429-.3236.5668-.5621.127-.2416.1905-.5188.1905-.8316 0-.3159-.0635-.5915-.1905-.8269-.1239-.2385-.3128-.4228-.5668-.5529-.254-.1331-.5761-.1997-.9663-.1997h-1.3565v7.8698zm9.9272 0h-2.1556l3.2846-9.5144h2.5923l3.2798 9.5144h-2.1556l-2.3832-7.3402h-.0744zm-.1347-3.7398h5.0917v1.5703h-5.0917zm17.1444-2.4436h-2.0348c-.0372-.2633-.113-.4971-.2276-.7015-.1146-.2075-.2617-.3841-.4414-.5296-.1796-.1456-.3871-.2571-.6225-.3345-.2323-.0775-.4847-.1162-.7573-.1162-.4924 0-.9214.1224-1.2868.367-.3655.2416-.6489.5947-.8502 1.0593-.2013.4614-.302 1.022-.302 1.6817 0 .6783.1007 1.2482.302 1.7096.2044.4615.4894.8099.8548 1.0453.3655.2354.7882.3531 1.2683.3531.2695 0 .5188-.0356.748-.1069.2322-.0712.4382-.175.6178-.3112.1797-.1394.3283-.3082.446-.5064.1208-.1982.2044-.4243.2509-.6783l2.0348.0093c-.0526.4367-.1843.8579-.3949 1.2636-.2075.4027-.4878.7635-.8408 1.0825-.35.3159-.7681.5668-1.2544.7526-.4831.1827-1.0298.2741-1.6399.2741-.8486 0-1.6074-.192-2.2764-.5761-.6659-.384-1.1924-.94-1.5796-1.6678-.384-.7278-.576-1.6089-.576-2.6434 0-1.0375.1951-1.9202.5853-2.648.3903-.7279.9199-1.2823 1.5889-1.6632.6689-.3841 1.4216-.5761 2.2578-.5761.5513 0 1.0623.0774 1.5331.2323.4738.1549.8935.381 1.259.6783.3654.2942.6627.655.8919 1.0824.2323.4274.381.9168.446 1.4681zm2.7439-3.331h1.9558v3.0662c0 .3654.0635.6597.1905.8827.127.2199.3236.3794.59.4785.2694.096.6148.144 1.036.144.1487 0 .3236-.0047.525-.014.2013-.0123.4088-.0294.6225-.0511.2168-.0216.4212-.048.6132-.0789.192-.031.3515-.0666.4785-.1069v1.5888c-.1301.0434-.2927.0821-.4878.1162-.192.031-.3949.0588-.6086.0836-.2137.0217-.4212.0387-.6225.0511s-.3747.0186-.5203.0186c-.765 0-1.4309-.1084-1.9977-.3252-.5667-.2199-1.005-.559-1.3147-1.0174-.3066-.4584-.4599-1.0484-.4599-1.77zm5.6631 0h1.9651v9.5144h-1.9651zm4.8704 9.5144v-9.5144h6.4111v1.6585h-4.3995v2.2671h4.0697v1.6585h-4.0697v2.2718h4.4181v1.6585zm8.5638-7.8559v-1.6585h7.8145v1.6585h-2.913v7.8559h-1.989v-7.8559zm22.0485-1.6585v9.5144h-1.988v-7.8791h-3.847v7.8791h-1.988v-9.5144zm2.831 9.5144v-9.5144h6.411v1.6585h-4.399v2.2671h4.069v1.6585h-4.069v2.2718h4.418v1.6585zm8.926 0v-9.5144h3.754c.721 0 1.336.1378 1.844.4135.508.2725.895.6519 1.162 1.1382.269.4831.404 1.0406.404 1.6724s-.136 1.1893-.409 1.6725c-.273.4831-.667.8594-1.185 1.1289-.514.2694-1.136.4042-1.867.4042h-2.393v-1.6121h2.068c.387 0 .706-.0666.957-.1998.254-.1362.442-.3236.566-.5621.127-.2416.191-.5188.191-.8316 0-.3159-.064-.5915-.191-.8269-.124-.2385-.312-.4228-.566-.5529-.254-.1331-.577-.1997-.967-.1997h-1.356v7.8698zm9.386 0v-9.5144h3.81c.7 0 1.283.1038 1.751.3113s.819.4955 1.055.8641c.235.3654.353.7866.353 1.2636 0 .3717-.075.6984-.223.9802-.149.2788-.353.508-.614.6876-.257.1765-.551.302-.882.3763v.0929c.362.0155.701.1177 1.017.3066.319.189.578.4538.776.7945.198.3375.297.7402.297 1.2078 0 .5049-.125.9555-.376 1.3519-.248.3934-.615.7046-1.101.9338s-1.086.3438-1.798.3438zm2.012-1.6446h1.64c.56 0 .969-.1068 1.226-.3205.257-.2168.386-.5049.386-.8641 0-.2633-.064-.4956-.191-.6969s-.308-.3592-.543-.4738c-.233-.1146-.51-.1719-.832-.1719h-1.686zm0-3.8884h1.491c.276 0 .52-.048.734-.144.217-.0992.387-.2385.511-.4182.127-.1796.191-.3948.191-.6457 0-.3438-.123-.621-.367-.8316-.242-.2106-.586-.3159-1.032-.3159h-1.528zm16.296.7758c0 1.0376-.196 1.9202-.59 2.6481-.39.7278-.923 1.2837-1.598 1.6678-.672.3809-1.428.5714-2.267.5714-.845 0-1.604-.192-2.276-.5761-.672-.384-1.204-.94-1.594-1.6678s-.585-1.6089-.585-2.6434c0-1.0375.195-1.9202.585-2.648.39-.7279.922-1.2823 1.594-1.6632.672-.3841 1.431-.5761 2.276-.5761.839 0 1.595.192 2.267.5761.675.3809 1.208.9353 1.598 1.6632.394.7278.59 1.6105.59 2.648zm-2.039 0c0-.6721-.101-1.2388-.302-1.7003-.198-.4615-.479-.8115-.841-1.05-.362-.2384-.787-.3577-1.273-.3577s-.911.1193-1.273.3577c-.362.2385-.644.5885-.845 1.05-.199.4615-.298 1.0282-.298 1.7003s.099 1.2389.298 1.7003c.201.4615.483.8115.845 1.05.362.2384.787.3577 1.273.3577s.911-.1193 1.273-.3577c.362-.2385.643-.5885.841-1.05.201-.4614.302-1.0282.302-1.7003zm4.445 4.7572v-9.5144h2.012v3.9256h4.083v-3.9256h2.007v9.5144h-2.007v-3.9303h-4.083v3.9303zm12.317 0h-2.156l3.284-9.5144h2.593l3.28 9.5144h-2.156l-2.383-7.3402h-.075zm-.135-3.7398h5.091v1.5703h-5.091zm9.582-5.7746h1.956v3.0662c0 .3654.063.6597.19.8827.127.2199.324.3794.59.4785.27.096.615.144 1.036.144.149 0 .324-.0047.525-.014.202-.0123.409-.0294.623-.0511.217-.0216.421-.048.613-.0789.192-.031.352-.0666.479-.1069v1.5888c-.13.0434-.293.0821-.488.1162-.192.031-.395.0588-.609.0836-.213.0217-.421.0387-.622.0511-.202.0124-.375.0186-.521.0186-.765 0-1.43-.1084-1.997-.3252-.567-.2199-1.005-.559-1.315-1.0174-.307-.4584-.46-1.0484-.46-1.77zm5.663 0h1.965v9.5144h-1.965zm6.511 9.5144h-2.156l3.285-9.5144h2.592l3.28 9.5144h-2.156l-2.383-7.3402h-.074zm-.135-3.7398h5.092v1.5703h-5.092zm8.681 3.7398v-1.6167l.269-.0232c.347-.0279.628-.1595.841-.3949.214-.2385.373-.6179.479-1.1382.108-.5234.178-1.2265.209-2.1092l.158-4.2322h6.457v9.5144h-1.955v-7.9023h-2.635l-.148 3.3124c-.05 1.0654-.177 1.9357-.381 2.6108-.202.6752-.524 1.1739-.967 1.496-.439.3221-1.042.4831-1.807.4831zm12.312-5.9976h2.267c.755 0 1.406.1223 1.951.367.548.2416.971.5838 1.268 1.0267.298.4429.445.9648.442 1.5656.003.5978-.144 1.1258-.442 1.5842-.297.4553-.72.8115-1.268 1.0685-.545.2571-1.196.3856-1.951.3856h-3.554v-9.5144h2.007v7.8977h1.547c.362 0 .667-.065.915-.1951.248-.1332.435-.3082.562-.525.13-.2199.194-.4599.191-.7201.003-.3778-.14-.6968-.428-.957-.285-.2632-.698-.3949-1.24-.3949h-2.267zm8.445 5.9976v-9.5144h2.012v3.9256h4.083v-3.9256h2.007v9.5144h-2.007v-3.9303h-4.083v3.9303zm19.42-4.7572c0 1.0376-.197 1.9202-.59 2.6481-.391.7278-.923 1.2837-1.599 1.6678-.672.3809-1.427.5714-2.267.5714-.845 0-1.604-.192-2.276-.5761-.672-.384-1.203-.94-1.594-1.6678-.39-.7278-.585-1.6089-.585-2.6434 0-1.0375.195-1.9202.585-2.648.391-.7279.922-1.2823 1.594-1.6632.672-.3841 1.431-.5761 2.276-.5761.84 0 1.595.192 2.267.5761.676.3809 1.208.9353 1.599 1.6632.393.7278.59 1.6105.59 2.648zm-2.04 0c0-.6721-.101-1.2388-.302-1.7003-.198-.4615-.478-.8115-.841-1.05-.362-.2384-.786-.3577-1.273-.3577-.486 0-.91.1193-1.273.3577-.362.2385-.644.5885-.845 1.05-.198.4615-.297 1.0282-.297 1.7003s.099 1.2389.297 1.7003c.201.4615.483.8115.845 1.05.363.2384.787.3577 1.273.3577.487 0 .911-.1193 1.273-.3577.363-.2385.643-.5885.841-1.05.201-.4614.302-1.0282.302-1.7003zm10.759-4.7572v1.6585h-4.302v7.8559h-2.012v-9.5144zm10.513 4.7572c0 1.0376-.197 1.9202-.59 2.6481-.391.7278-.923 1.2837-1.598 1.6678-.673.3809-1.428.5714-2.268.5714-.845 0-1.604-.192-2.276-.5761-.672-.384-1.203-.94-1.593-1.6678-.391-.7278-.586-1.6089-.586-2.6434 0-1.0375.195-1.9202.586-2.648.39-.7279.921-1.2823 1.593-1.6632.672-.3841 1.431-.5761 2.276-.5761.84 0 1.595.192 2.268.5761.675.3809 1.207.9353 1.598 1.6632.393.7278.59 1.6105.59 2.648zm-2.04 0c0-.6721-.1-1.2388-.302-1.7003-.198-.4615-.478-.8115-.841-1.05-.362-.2384-.786-.3577-1.273-.3577-.486 0-.91.1193-1.273.3577-.362.2385-.644.5885-.845 1.05-.198.4615-.297 1.0282-.297 1.7003s.099 1.2389.297 1.7003c.201.4615.483.8115.845 1.05.363.2384.787.3577 1.273.3577.487 0 .911-.1193 1.273-.3577.363-.2385.643-.5885.841-1.05.202-.4614.302-1.0282.302-1.7003zm8.389 4.7572v-9.5144h3.81c.7 0 1.283.1038 1.751.3113s.819.4955 1.055.8641c.235.3654.353.7866.353 1.2636 0 .3717-.075.6984-.223.9802-.149.2788-.353.508-.614.6876-.257.1765-.551.302-.882.3763v.0929c.362.0155.701.1177 1.017.3066.319.189.578.4538.776.7945.198.3375.297.7402.297 1.2078 0 .5049-.125.9555-.376 1.3519-.248.3934-.615.7046-1.101.9338s-1.086.3438-1.798.3438zm2.012-1.6446h1.64c.56 0 .969-.1068 1.226-.3205.257-.2168.386-.5049.386-.8641 0-.2633-.064-.4956-.191-.6969s-.308-.3592-.543-.4738c-.233-.1146-.51-.1719-.832-.1719h-1.686zm0-3.8884h1.491c.276 0 .52-.048.734-.144.217-.0992.387-.2385.511-.4182.127-.1796.191-.3948.191-.6457 0-.3438-.123-.621-.368-.8316-.241-.2106-.585-.3159-1.031-.3159h-1.528zm11.014 5.6631c-.694 0-1.312-.1192-1.854-.3577-.538-.2416-.964-.573-1.277-.9942-.31-.4243-.469-.9137-.479-1.4681h2.026c.012.2323.088.4367.228.6133.142.1734.331.3081.566.4042.236.096.5.144.795.144.306 0 .577-.0542.813-.1626.235-.1084.419-.2586.553-.4507.133-.192.199-.4134.199-.6643 0-.254-.071-.4785-.213-.6736-.14-.1982-.341-.3531-.604-.4646-.26-.1115-.57-.1672-.929-.1672h-.888v-1.4774h.888c.303 0 .571-.0526.803-.1579.236-.1053.418-.2509.548-.4367.131-.189.196-.4088.196-.6597 0-.2385-.058-.4476-.172-.6272-.112-.1827-.27-.3252-.474-.4274-.202-.1022-.437-.1533-.706-.1533-.273 0-.522.0496-.748.1487-.226.096-.408.2338-.544.4134-.136.1797-.209.3903-.218.6318h-1.928c.009-.5481.166-1.0313.469-1.4494.304-.4181.712-.7449 1.227-.9803.517-.2384 1.101-.3577 1.751-.3577.657 0 1.231.1193 1.724.3577.492.2385.874.5606 1.147.9663.276.4027.412.8549.409 1.3566.003.5327-.163.9771-.497 1.3333-.332.3562-.764.5823-1.296.6783v.0743c.7.0898 1.232.333 1.598.7294.368.3933.551.8858.548 1.4773.003.542-.153 1.0236-.469 1.4448-.313.4213-.745.7527-1.296.9942-.552.2416-1.184.3624-1.896.3624zm6.078-.1301v-9.5144h2.012v3.9256h4.084v-3.9256h2.007v9.5144h-2.007v-3.9303h-4.084v3.9303zm19.42-4.7572c0 1.0376-.197 1.9202-.59 2.6481-.39.7278-.923 1.2837-1.598 1.6678-.672.3809-1.428.5714-2.267.5714-.846 0-1.605-.192-2.277-.5761-.672-.384-1.203-.94-1.593-1.6678s-.585-1.6089-.585-2.6434c0-1.0375.195-1.9202.585-2.648.39-.7279.921-1.2823 1.593-1.6632.672-.3841 1.431-.5761 2.277-.5761.839 0 1.595.192 2.267.5761.675.3809 1.208.9353 1.598 1.6632.393.7278.59 1.6105.59 2.648zm-2.039 0c0-.6721-.101-1.2388-.302-1.7003-.199-.4615-.479-.8115-.841-1.05-.363-.2384-.787-.3577-1.273-.3577s-.911.1193-1.273.3577c-.362.2385-.644.5885-.846 1.05-.198.4615-.297 1.0282-.297 1.7003s.099 1.2389.297 1.7003c.202.4615.484.8115.846 1.05.362.2384.787.3577 1.273.3577s.91-.1193 1.273-.3577c.362-.2385.642-.5885.841-1.05.201-.4614.302-1.0282.302-1.7003zm12.84-1.4262h-2.035c-.037-.2633-.113-.4971-.228-.7015-.114-.2075-.261-.3841-.441-.5296-.18-.1456-.387-.2571-.623-.3345-.232-.0775-.484-.1162-.757-.1162-.492 0-.921.1224-1.287.367-.365.2416-.649.5947-.85 1.0593-.201.4614-.302 1.022-.302 1.6817 0 .6783.101 1.2482.302 1.7096.205.4615.489.8099.855 1.0453.365.2354.788.3531 1.268.3531.27 0 .519-.0356.748-.1069.232-.0712.438-.175.618-.3112.18-.1394.328-.3082.446-.5064.121-.1982.204-.4243.251-.6783l2.035.0093c-.053.4367-.185.8579-.395 1.2636-.208.4027-.488.7635-.841 1.0825-.35.3159-.768.5668-1.254.7526-.484.1827-1.03.2741-1.64.2741-.849 0-1.608-.192-2.277-.5761-.666-.384-1.192-.94-1.579-1.6678-.384-.7278-.576-1.6089-.576-2.6434 0-1.0375.195-1.9202.585-2.648.39-.7279.92-1.2823 1.589-1.6632.669-.3841 1.421-.5761 2.258-.5761.551 0 1.062.0774 1.533.2323.474.1549.893.381 1.259.6783.365.2942.663.655.892 1.0824.232.4274.381.9168.446 1.4681zm3.819 6.1834h-2.156l3.285-9.5144h2.592l3.28 9.5144h-2.155l-2.384-7.3402h-.074zm-.135-3.7398h5.092v1.5703h-5.092z" fill="#858585"/></svg>