<svg fill="none" height="412" viewBox="0 0 860 412" width="860" xmlns="http://www.w3.org/2000/svg" xmlns:xlink="http://www.w3.org/1999/xlink"><filter id="a" color-interpolation-filters="sRGB" filterUnits="userSpaceOnUse" height="64.3677" width="253.83" x="304" y="102.429"><feFlood flood-opacity="0" result="BackgroundImageFix"/><feColorMatrix in="SourceAlpha" result="hardAlpha" type="matrix" values="0 0 0 0 0 0 0 0 0 0 0 0 0 0 0 0 0 0 127 0"/><feMorphology in="SourceAlpha" operator="dilate" radius="4.07685" result="effect1_dropShadow_983_12825"/><feOffset/><feComposite in2="hardAlpha" operator="out"/><feColorMatrix type="matrix" values="0 0 0 0 1 0 0 0 0 0.776 0 0 0 0 0.2 0 0 0 0.2 0"/><feBlend in2="BackgroundImageFix" mode="normal" result="effect1_dropShadow_983_12825"/><feColorMatrix in="SourceAlpha" result="hardAlpha" type="matrix" values="0 0 0 0 0 0 0 0 0 0 0 0 0 0 0 0 0 0 127 0"/><feMorphology in="SourceAlpha" operator="dilate" radius="1.01921" result="effect2_dropShadow_983_12825"/><feOffset/><feComposite in2="hardAlpha" operator="out"/><feColorMatrix type="matrix" values="0 0 0 0 1 0 0 0 0 0.776 0 0 0 0 0.2 0 0 0 1 0"/><feBlend in2="effect1_dropShadow_983_12825" mode="normal" result="effect2_dropShadow_983_12825"/><feBlend in="SourceGraphic" in2="effect2_dropShadow_983_12825" mode="normal" result="shape"/></filter><filter id="b" color-interpolation-filters="sRGB" filterUnits="userSpaceOnUse" height="354.405" width="296.685" x="281.679" y="150.41"><feFlood flood-opacity="0" result="BackgroundImageFix"/><feColorMatrix in="SourceAlpha" result="hardAlpha" type="matrix" values="0 0 0 0 0 0 0 0 0 0 0 0 0 0 0 0 0 0 127 0"/><feOffset dy="4.164"/><feGaussianBlur stdDeviation="12.492"/><feComposite in2="hardAlpha" operator="out"/><feColorMatrix type="matrix" values="0 0 0 0 0 0 0 0 0 0 0 0 0 0 0 0 0 0 0.08 0"/><feBlend in2="BackgroundImageFix" mode="normal" result="effect1_dropShadow_983_12825"/><feBlend in="SourceGraphic" in2="effect1_dropShadow_983_12825" mode="normal" result="shape"/></filter><filter id="c" color-interpolation-filters="sRGB" filterUnits="userSpaceOnUse" height="18.591" width="17.4327" x="470.953" y="204.385"><feFlood flood-opacity="0" result="BackgroundImageFix"/><feColorMatrix in="SourceAlpha" result="hardAlpha" type="matrix" values="0 0 0 0 0 0 0 0 0 0 0 0 0 0 0 0 0 0 127 0"/><feOffset dy="1.041"/><feGaussianBlur stdDeviation=".4164"/><feColorMatrix type="matrix" values="0 0 0 0 0 0 0 0 0 0 0 0 0 0 0 0 0 0 0.5 0"/><feBlend in2="BackgroundImageFix" mode="normal" result="effect1_dropShadow_983_12825"/><feBlend in="SourceGraphic" in2="effect1_dropShadow_983_12825" mode="normal" result="shape"/></filter><linearGradient id="d" gradientUnits="userSpaceOnUse" x1="101.182" x2="-.000001" y1="430" y2="430"><stop offset="0" stop-color="#fff"/><stop offset="1" stop-color="#fff" stop-opacity="0"/></linearGradient><clipPath id="e"><rect height="412" rx="40" width="860"/></clipPath><clipPath id="f"><path d="m308.077 114.854c0-4.61 3.737-8.348 8.348-8.348h228.98c4.611 0 8.348 3.738 8.348 8.348v39.518c0 4.611-3.737 8.348-8.348 8.348h-228.98c-4.611 0-8.348-3.737-8.348-8.347z"/></clipPath><clipPath id="g"><path d="m470.754 204.372h18.738v18.738h-18.738z"/></clipPath><g clip-path="url(#e)"><rect fill="#fff" height="412" rx="40" width="860"/><path d="m0 0h786.809v341.255h-786.809z" fill="#fff" transform="translate(36.5957 36.5958)"/><path d="m74.0278 48.9638v27.2553h-5.6959v-22.5708h-11.0193v22.5708h-5.6959v-27.2553zm13.7934 27.6545c-2.0672 0-3.855-.4391-5.3632-1.3175-1.4994-.8872-2.6573-2.1204-3.4735-3.6997-.8162-1.5881-1.2244-3.4291-1.2244-5.5229 0-2.1116.4082-3.957 1.2244-5.5362.8162-1.5881 1.9741-2.8214 3.4735-3.6997 1.5082-.8872 3.296-1.3308 5.3632-1.3308s3.8505.4436 5.3499 1.3308c1.5083.8783 2.6705 2.1116 3.4867 3.6997.8163 1.5792 1.2244 3.4246 1.2244 5.5362 0 2.0938-.4081 3.9348-1.2244 5.5229-.8162 1.5793-1.9784 2.8125-3.4867 3.6997-1.4994.8784-3.2827 1.3175-5.3499 1.3175zm.0266-4.3917c.9404 0 1.7256-.2662 2.3556-.7985.6299-.5412 1.1045-1.2776 1.4239-2.2092.3283-.9315.4924-1.9918.4924-3.1806 0-1.1889-.1641-2.2491-.4924-3.1807-.3194-.9316-.794-1.668-1.4239-2.2092-.63-.5412-1.4152-.8118-2.3556-.8118-.9493 0-1.7478.2706-2.3955.8118-.6388.5412-1.1223 1.2776-1.4506 2.2092-.3194.9316-.4791 1.9918-.4791 3.1807 0 1.1888.1597 2.2491.4791 3.1806.3283.9316.8118 1.668 1.4506 2.2092.6477.5323 1.4462.7985 2.3955.7985zm11.3014 9.9812v-10.4869h1.5708c.452-.2839.816-.7364 1.091-1.3574.284-.6211.514-1.353.692-2.1959.186-.8429.328-1.7523.426-2.7282.106-.9848.199-1.9785.279-2.981l.533-6.6808h15.677v15.9433h3.167v10.4869h-5.403v-5.9887h-12.497v5.9887zm7.2128-10.4869h7.706v-11.5782h-5.51l-.213 2.3157c-.151 2.1825-.368 4.0368-.652 5.5628-.284 1.5171-.727 2.7504-1.331 3.6997zm35.699-23.4491 1.73 3.6997c-.577.4791-1.215.8339-1.916 1.0646-.701.2218-1.54.3682-2.516.4392-.967.071-2.147.1198-3.54.1464-1.579.0177-2.865.2706-3.859.7586-.994.4879-1.748 1.2554-2.262 2.3023-.515 1.038-.852 2.3955-1.012 4.0723h.2c.612-1.251 1.473-2.218 2.582-2.9012 1.118-.6832 2.497-1.0247 4.139-1.0247 1.738 0 3.26.3815 4.564 1.1445 1.313.763 2.334 1.8587 3.061 3.2871.728 1.4284 1.091 3.1408 1.091 5.137 0 2.0761-.408 3.8816-1.224 5.4165-.807 1.526-1.956 2.7104-3.447 3.5533-1.49.8339-3.265 1.2509-5.323 1.2509-2.067 0-3.851-.4347-5.35-1.3042-1.49-.8694-2.644-2.1515-3.46-3.8461-.807-1.6945-1.211-3.7795-1.211-6.2548v-1.6769c0-4.924.958-8.5749 2.874-10.9527 1.917-2.3777 4.734-3.5843 8.451-3.6198 1.012-.0177 1.925-.0222 2.742-.0133.816.0089 1.53-.0311 2.142-.1198.621-.0887 1.136-.275 1.544-.5589zm-7.705 23.9548c.869 0 1.614-.2262 2.235-.6787.63-.4525 1.114-1.1002 1.451-1.943.346-.8429.519-1.8499.519-3.021 0-1.1622-.173-2.147-.519-2.9544-.337-.8163-.821-1.4373-1.451-1.8632-.63-.4258-1.384-.6388-2.262-.6388-.657 0-1.247.1198-1.77.3594-.524.2395-.972.5944-1.344 1.0646-.364.4614-.648 1.0336-.852 1.7168-.195.6743-.293 1.4461-.293 2.3156 0 1.7478.377 3.1275 1.132 4.1389.763 1.0025 1.814 1.5038 3.154 1.5038zm22.144 4.3917c-2.067 0-3.855-.4391-5.363-1.3175-1.5-.8872-2.658-2.1204-3.474-3.6997-.816-1.5881-1.224-3.4291-1.224-5.5229 0-2.1116.408-3.957 1.224-5.5362.816-1.5881 1.974-2.8214 3.474-3.6997 1.508-.8872 3.296-1.3308 5.363-1.3308s3.85.4436 5.35 1.3308c1.508.8783 2.67 2.1116 3.487 3.6997.816 1.5792 1.224 3.4246 1.224 5.5362 0 2.0938-.408 3.9348-1.224 5.5229-.817 1.5793-1.979 2.8125-3.487 3.6997-1.5.8784-3.283 1.3175-5.35 1.3175zm.027-4.3917c.94 0 1.725-.2662 2.355-.7985.63-.5412 1.105-1.2776 1.424-2.2092.328-.9315.492-1.9918.492-3.1806 0-1.1889-.164-2.2491-.492-3.1807-.319-.9316-.794-1.668-1.424-2.2092s-1.415-.8118-2.355-.8118c-.95 0-1.748.2706-2.396.8118-.639.5412-1.122 1.2776-1.451 2.2092-.319.9316-.479 1.9918-.479 3.1807 0 1.1888.16 2.2491.479 3.1806.329.9316.812 1.668 1.451 2.2092.648.5323 1.446.7985 2.396.7985zm12.898 11.658v-28.107h5.589v3.4335h.253c.249-.55.608-1.109 1.078-1.6768.479-.5767 1.1-1.0558 1.863-1.4373.772-.3904 1.73-.5855 2.875-.5855 1.49 0 2.866.3903 4.125 1.1711 1.26.7719 2.267 1.9385 3.021 3.5.755 1.5527 1.132 3.5001 1.132 5.8424 0 2.2801-.369 4.2054-1.105 5.7757-.727 1.5615-1.721 2.746-2.981 3.5533-1.251.7985-2.653 1.1978-4.205 1.1978-1.101 0-2.037-.1819-2.808-.5456-.763-.3638-1.389-.8207-1.877-1.3708-.488-.5589-.86-1.1223-1.118-1.6901h-.173v10.9393zm5.549-17.8862c0 1.2154.169 2.2757.506 3.1806.337.905.825 1.6103 1.464 2.116.639.4969 1.415.7453 2.329.7453.923 0 1.703-.2529 2.342-.7586.639-.5146 1.123-1.2243 1.451-2.1293.337-.9138.506-1.9652.506-3.154 0-1.18-.165-2.2181-.493-3.1142s-.812-1.597-1.45-2.1027c-.639-.5057-1.424-.7586-2.356-.7586-.923 0-1.703.244-2.342.732-.63.488-1.114 1.18-1.451 2.0761s-.506 1.9519-.506 3.1674zm42.19-17.7266 1.73 3.6997c-.577.4791-1.216.8339-1.917 1.0646-.701.2218-1.539.3682-2.515.4392-.967.071-2.147.1198-3.54.1464-1.579.0177-2.866.2706-3.859.7586-.994.4879-1.748 1.2554-2.263 2.3023-.514 1.038-.851 2.3955-1.011 4.0723h.2c.612-1.251 1.472-2.218 2.581-2.9012 1.118-.6832 2.498-1.0247 4.139-1.0247 1.739 0 3.261.3815 4.565 1.1445 1.313.763 2.333 1.8587 3.061 3.2871.727 1.4284 1.091 3.1408 1.091 5.137 0 2.0761-.408 3.8816-1.224 5.4165-.808 1.526-1.957 2.7104-3.447 3.5533-1.491.8339-3.265 1.2509-5.323 1.2509-2.068 0-3.851-.4347-5.35-1.3042-1.491-.8694-2.644-2.1515-3.46-3.8461-.808-1.6945-1.211-3.7795-1.211-6.2548v-1.6769c0-4.924.958-8.5749 2.874-10.9527 1.916-2.3777 4.733-3.5843 8.451-3.6198 1.011-.0177 1.925-.0222 2.741-.0133.817.0089 1.531-.0311 2.143-.1198.621-.0887 1.136-.275 1.544-.5589zm-7.706 23.9548c.87 0 1.615-.2262 2.236-.6787.63-.4525 1.113-1.1002 1.451-1.943.346-.8429.519-1.8499.519-3.021 0-1.1622-.173-2.147-.519-2.9544-.338-.8163-.821-1.4373-1.451-1.8632-.63-.4258-1.384-.6388-2.262-.6388-.657 0-1.247.1198-1.77.3594-.524.2395-.972.5944-1.345 1.0646-.363.4614-.647 1.0336-.851 1.7168-.195.6743-.293 1.4461-.293 2.3156 0 1.7478.377 3.1275 1.131 4.1389.763 1.0025 1.815 1.5038 3.154 1.5038zm18.738 4.3784c-1.305 0-2.467-.2262-3.487-.6787-1.02-.4613-1.828-1.1401-2.422-2.0362-.586-.9049-.879-2.0317-.879-3.3803 0-1.1356.209-2.0893.626-2.8612s.985-1.393 1.703-1.8632c.719-.4702 1.535-.8251 2.449-1.0646.923-.2396 1.89-.4082 2.901-.5058 1.189-.1242 2.147-.2395 2.875-.346.727-.1153 1.255-.2839 1.584-.5057.328-.2218.492-.5501.492-.9848v-.0798c0-.8429-.266-1.495-.799-1.9564-.523-.4613-1.268-.692-2.235-.692-1.021 0-1.832.2263-2.436.6787-.603.4436-1.002 1.0026-1.197 1.6769l-5.244-.4259c.266-1.2421.79-2.3156 1.57-3.2206.781-.9138 1.788-1.6147 3.021-2.1027 1.243-.4968 2.68-.7452 4.312-.7452 1.136 0 2.223.133 3.261.3992 1.047.2662 1.974.6787 2.781 1.2377.816.5589 1.46 1.2776 1.93 2.1559.47.8695.705 1.912.705 3.1274v13.7874h-5.376v-2.8347h-.16c-.328.6388-.767 1.2022-1.317 1.6902-.551.4791-1.212.8561-1.983 1.1312-.772.2661-1.664.3992-2.675.3992zm1.623-3.9126c.834 0 1.571-.1641 2.209-.4924.639-.3371 1.14-.7896 1.504-1.3574.364-.5679.546-1.2111.546-1.9297v-2.1693c-.178.1154-.422.2218-.732.3194-.302.0887-.643.173-1.025.2529-.381.0709-.763.1375-1.144.1996-.382.0532-.728.102-1.038.1464-.666.0976-1.247.2528-1.744.4658-.497.2129-.883.5012-1.158.865-.275.3549-.412.7985-.412 1.3308 0 .7719.279 1.3619.838 1.77.568.3993 1.287.5989 2.156.5989zm27.691-8.9564v4.4582h-10.673v-4.4582zm-8.81-7.9584v20.4415h-5.417v-20.4415zm12.363 0v20.4415h-5.376v-20.4415zm3.576 20.4415v-20.4415h5.669v7.9317h1.597l5.563-7.9317h6.654l-7.226 10.1409 7.306 10.3006h-6.734l-5.044-7.253h-2.116v7.253zm26.965.3859c-1.304 0-2.466-.2262-3.486-.6787-1.021-.4613-1.828-1.1401-2.423-2.0362-.585-.9049-.878-2.0317-.878-3.3803 0-1.1356.209-2.0893.626-2.8612s.984-1.393 1.703-1.8632 1.535-.8251 2.449-1.0646c.922-.2396 1.89-.4082 2.901-.5058 1.189-.1242 2.147-.2395 2.875-.346.727-.1153 1.255-.2839 1.583-.5057s.493-.5501.493-.9848v-.0798c0-.8429-.267-1.495-.799-1.9564-.523-.4613-1.269-.692-2.236-.692-1.02 0-1.832.2263-2.435.6787-.603.4436-1.003 1.0026-1.198 1.6769l-5.243-.4259c.266-1.2421.789-2.3156 1.57-3.2206.781-.9138 1.788-1.6147 3.021-2.1027 1.242-.4968 2.679-.7452 4.312-.7452 1.136 0 2.222.133 3.26.3992 1.047.2662 1.975.6787 2.782 1.2377.816.5589 1.459 1.2776 1.93 2.1559.47.8695.705 1.912.705 3.1274v13.7874h-5.377v-2.8347h-.159c-.329.6388-.768 1.2022-1.318 1.6902-.55.4791-1.211.8561-1.983 1.1312-.772.2661-1.663.3992-2.675.3992zm1.624-3.9126c.834 0 1.57-.1641 2.209-.4924.639-.3371 1.14-.7896 1.504-1.3574.364-.5679.546-1.2111.546-1.9297v-2.1693c-.178.1154-.422.2218-.732.3194-.302.0887-.644.173-1.025.2529-.382.0709-.763.1375-1.145.1996-.381.0532-.727.102-1.038.1464-.665.0976-1.246.2528-1.743.4658-.497.2129-.883.5012-1.158.865-.275.3549-.412.7985-.412 1.3308 0 .7719.279 1.3619.838 1.77.568.3993 1.286.5989 2.156.5989z" fill="#32393e"/><path d="m312.022 48.9638h5.749v17.141h.227l11.777-17.141h5.044v27.2553h-5.762v-17.1543h-.2l-11.844 17.1543h-4.991zm26.629 27.2553v-20.4415h17.873v20.4415h-5.416v-15.9832h-7.107v15.9832zm30.812.3992c-2.068 0-3.855-.4391-5.364-1.3175-1.499-.8872-2.657-2.1204-3.473-3.6997-.816-1.5881-1.224-3.4291-1.224-5.5229 0-2.1116.408-3.957 1.224-5.5362.816-1.5881 1.974-2.8214 3.473-3.6997 1.509-.8872 3.296-1.3308 5.364-1.3308 2.067 0 3.85.4436 5.35 1.3308 1.508.8783 2.67 2.1116 3.486 3.6997.817 1.5792 1.225 3.4246 1.225 5.5362 0 2.0938-.408 3.9348-1.225 5.5229-.816 1.5793-1.978 2.8125-3.486 3.6997-1.5.8784-3.283 1.3175-5.35 1.3175zm.026-4.3917c.941 0 1.726-.2662 2.356-.7985.63-.5412 1.104-1.2776 1.424-2.2092.328-.9315.492-1.9918.492-3.1806 0-1.1889-.164-2.2491-.492-3.1807-.32-.9316-.794-1.668-1.424-2.2092s-1.415-.8118-2.356-.8118c-.949 0-1.748.2706-2.395.8118-.639.5412-1.123 1.2776-1.451 2.2092-.319.9316-.479 1.9918-.479 3.1807 0 1.1888.16 2.2491.479 3.1806.328.9316.812 1.668 1.451 2.2092.647.5323 1.446.7985 2.395.7985zm10.919-11.9907v-4.4583h18.525v4.4583h-6.587v15.9832h-5.404v-15.9832zm29.723 16.3824c-2.102 0-3.912-.4258-5.429-1.2776-1.509-.8606-2.671-2.076-3.487-3.6464-.816-1.5793-1.224-3.4469-1.224-5.6028 0-2.1027.408-3.9481 1.224-5.5362s1.965-2.8258 3.447-3.713c1.49-.8872 3.238-1.3308 5.243-1.3308 1.349 0 2.604.2173 3.766.6521 1.172.4258 2.192 1.0691 3.061 1.9297.879.8606 1.562 1.943 2.05 3.2472.488 1.2953.732 2.8124.732 4.5514v1.5571h-17.261v-3.5134h11.924c0-.8163-.177-1.5393-.532-2.1693-.355-.6299-.847-1.1223-1.477-1.4772-.621-.3637-1.344-.5456-2.17-.5456-.86 0-1.623.1996-2.289.5988-.656.3904-1.171.9183-1.543 1.5837-.373.6566-.564 1.3885-.573 2.1959v3.3404c0 1.0114.187 1.8853.559 2.6217.382.7364.919 1.3042 1.611 1.7034.692.3993 1.512.5989 2.462.5989.63 0 1.206-.0887 1.73-.2662.523-.1774.971-.4436 1.344-.7984.372-.3549.656-.7897.852-1.3043l5.243.3461c-.266 1.2598-.812 2.36-1.637 3.3004-.816.9316-1.872 1.6591-3.167 2.1826-1.287.5145-2.773.7718-4.459.7718zm12.26-.3992v-20.4415h5.669v7.9317h1.597l5.563-7.9317h6.654l-7.226 10.1409 7.306 10.3006h-6.734l-5.044-7.253h-2.116v7.253zm26.965.3859c-1.304 0-2.466-.2262-3.486-.6787-1.021-.4613-1.828-1.1401-2.423-2.0362-.585-.9049-.878-2.0317-.878-3.3803 0-1.1356.209-2.0893.626-2.8612s.984-1.393 1.703-1.8632 1.535-.8251 2.449-1.0646c.922-.2396 1.89-.4082 2.901-.5058 1.189-.1242 2.147-.2395 2.875-.346.727-.1153 1.255-.2839 1.583-.5057.329-.2218.493-.5501.493-.9848v-.0798c0-.8429-.267-1.495-.799-1.9564-.523-.4613-1.269-.692-2.236-.692-1.02 0-1.832.2263-2.435.6787-.603.4436-1.003 1.0026-1.198 1.6769l-5.243-.4259c.266-1.2421.789-2.3156 1.57-3.2206.781-.9138 1.788-1.6147 3.021-2.1027 1.242-.4968 2.679-.7452 4.312-.7452 1.136 0 2.222.133 3.26.3992 1.047.2662 1.975.6787 2.782 1.2377.816.5589 1.459 1.2776 1.93 2.1559.47.8695.705 1.912.705 3.1274v13.7874h-5.377v-2.8347h-.159c-.329.6388-.768 1.2022-1.318 1.6902-.55.4791-1.211.8561-1.983 1.1312-.772.2661-1.663.3992-2.675.3992zm1.624-3.9126c.834 0 1.57-.1641 2.209-.4924.639-.3371 1.14-.7896 1.504-1.3574.364-.5679.546-1.2111.546-1.9297v-2.1693c-.178.1154-.422.2218-.732.3194-.302.0887-.644.173-1.025.2529-.382.0709-.763.1375-1.145.1996-.381.0532-.727.102-1.038.1464-.665.0976-1.246.2528-1.743.4658-.497.2129-.883.5012-1.158.865-.275.3549-.412.7985-.412 1.3308 0 .7719.279 1.3619.838 1.77.568.3993 1.286.5989 2.156.5989z" fill="#a4adb2"/><g opacity=".5"><path d="m48.4893 114.854c0-4.61 3.7374-8.348 8.3478-8.348h228.9809c4.61 0 8.347 3.738 8.347 8.348v39.518c0 4.611-3.737 8.348-8.347 8.348h-228.9809c-4.6104 0-8.3478-3.737-8.3478-8.348z" fill="#383838" fill-opacity=".02"/><path d="m49.0098 114.854c0-4.323 3.5044-7.827 7.8273-7.827h228.9809c4.322 0 7.827 3.504 7.827 7.827v39.518c0 4.323-3.505 7.828-7.827 7.828h-228.9809c-4.3229 0-7.8273-3.505-7.8273-7.828z" stroke="#051f51" stroke-opacity=".04" stroke-width="1.041"/><path d="m61.5845 121.004v-.976h6.8138v.976h-2.8568v8.109h-1.1002v-8.109zm8.7091 6.566 3.2827-5.271h1.2067v6.814h-1.047v-5.27l-3.2649 5.27h-1.2244v-6.814h1.0469zm6.4069 1.543v-6.814h5.3587v6.814h-1.0469v-5.838h-3.2649v5.838zm11.831-1.543 3.2827-5.271h1.2066v6.814h-1.0469v-5.27l-3.265 5.27h-1.2243v-6.814h1.0469zm6.4068 1.543v-6.814h5.3587v6.814h-1.0468v-5.838h-3.265v5.838zm10.0387.142c-.615 0-1.155-.146-1.619-.439-.461-.293-.822-.702-1.082-1.229-.258-.526-.386-1.141-.386-1.845 0-.71.128-1.329.386-1.859.26-.529.621-.94 1.082-1.233.464-.293 1.004-.439 1.619-.439s1.154.146 1.615.439c.464.293.825.704 1.082 1.233.261.53.391 1.149.391 1.859 0 .704-.13 1.319-.391 1.845-.257.527-.618.936-1.082 1.229-.461.293-1 .439-1.615.439zm0-.94c.467 0 .852-.12 1.154-.36.301-.239.524-.554.669-.944.145-.391.218-.814.218-1.269 0-.456-.073-.88-.218-1.273-.145-.394-.368-.712-.669-.954-.302-.243-.687-.364-1.154-.364s-.852.121-1.153.364c-.302.242-.525.56-.67.954-.145.393-.217.817-.217 1.273 0 .455.072.878.217 1.269.145.39.368.705.67.944.301.24.686.36 1.153.36zm3.795-5.04v-.976h5.536v.976h-2.235v5.838h-1.047v-5.838zm9.567 5.98c-.657 0-1.223-.145-1.699-.434-.474-.293-.839-.701-1.096-1.225-.254-.526-.382-1.138-.382-1.836s.128-1.313.382-1.846c.257-.535.615-.952 1.073-1.251.462-.301 1-.452 1.615-.452.355 0 .705.059 1.052.177.346.119.66.311.944.577.284.263.511.612.679 1.047.169.435.253.97.253 1.606v.443h-5.252v-.905h4.187c0-.384-.077-.727-.23-1.029-.151-.301-.367-.54-.648-.714-.278-.175-.606-.262-.985-.262-.417 0-.778.104-1.082.311-.302.204-.534.47-.697.798-.162.329-.244.68-.244 1.056v.603c0 .515.089.951.266 1.309.181.355.431.625.75.812.32.183.691.275 1.114.275.275 0 .523-.039.745-.116.225-.079.418-.198.581-.354.163-.16.288-.358.377-.595l1.012.284c-.107.343-.286.645-.537.905-.252.257-.562.458-.932.603-.37.142-.785.213-1.246.213zm4.414-.142v-6.814h1.046v2.964h.692l2.449-2.964h1.349l-2.751 3.283 2.786 3.531h-1.348l-2.236-2.874h-.941v2.874zm7.756-1.543 3.283-5.271h1.206v6.814h-1.047v-5.27l-3.265 5.27h-1.224v-6.814h1.047z" fill="#858585"/><path d="m60.0025 142.891h14.3984v6.525h-14.3984zm12.4467 0h14.3985v6.525h-14.3985zm12.4468 0h14.3985v6.525h-14.3985zm12.4468 0h14.3982v6.525h-14.3982zm12.4472 0h14.398v6.525h-14.398zm12.446 0h14.399v6.525h-14.399zm12.447 0h14.399v6.525h-14.399zm12.447 0h14.398v6.525h-14.398z" fill="#32393e" opacity=".1"/><path d="m273.345 140.859-3.123-3.123.764-.763 2.359 2.359 2.36-2.359.763.763zm-2.359-8.536-.764-.763 3.123-3.123 3.123 3.123-.763.763-2.36-2.36z" fill="#858585"/></g><g opacity=".5"><path d="m310.822 114.854c0-4.61 3.737-8.348 8.347-8.348h228.981c4.61 0 8.348 3.738 8.348 8.348v39.518c0 4.611-3.738 8.348-8.348 8.348h-228.981c-4.61 0-8.347-3.737-8.347-8.348z" fill="#383838" fill-opacity=".02"/><path d="m311.342 114.854c0-4.323 3.504-7.827 7.827-7.827h228.981c4.323 0 7.827 3.504 7.827 7.827v39.518c0 4.323-3.504 7.828-7.827 7.828h-228.981c-4.323 0-7.827-3.505-7.827-7.828z" stroke="#051f51" stroke-opacity=".04" stroke-width="1.041"/><path d="m329.79 120.028v9.085h-1.1v-9.085zm-6.139 9.085 2.945-4.737-2.697-4.348h1.331l2.36 4.028h3.318l2.36-4.028h1.331l-2.715 4.365 2.946 4.72h-1.26l-2.467-4.028h-3.726l-2.484 4.028zm13.525-1.543 3.283-5.271h1.207v6.814h-1.047v-5.27l-3.265 5.27h-1.225v-6.814h1.047zm5.804 1.543v-.976h.248c.204 0 .374-.04.51-.119.136-.083.246-.227.329-.431.085-.207.15-.494.195-.86.047-.37.081-.84.102-1.411l.124-3.017h4.543v6.814h-1.047v-5.838h-2.502l-.107 2.431c-.023.559-.074 1.052-.151 1.478-.074.423-.187.777-.341 1.064-.151.287-.352.503-.603.648-.252.145-.567.217-.945.217zm10.739.142c-.615 0-1.154-.146-1.619-.439-.461-.293-.822-.702-1.082-1.229-.257-.526-.386-1.141-.386-1.845 0-.71.129-1.329.386-1.859.26-.529.621-.94 1.082-1.233.465-.293 1.004-.439 1.619-.439.616 0 1.154.146 1.615.439.465.293.825.704 1.083 1.233.26.53.39 1.149.39 1.859 0 .704-.13 1.319-.39 1.845-.258.527-.618.936-1.083 1.229-.461.293-.999.439-1.615.439zm0-.94c.468 0 .852-.12 1.154-.36.302-.239.525-.554.67-.944.145-.391.217-.814.217-1.269 0-.456-.072-.88-.217-1.273-.145-.394-.368-.712-.67-.954-.302-.243-.686-.364-1.154-.364-.467 0-.851.121-1.153.364-.302.242-.525.56-.67.954-.145.393-.217.817-.217 1.273 0 .455.072.878.217 1.269.145.39.368.705.67.944.302.24.686.36 1.153.36zm5.733-.745 3.283-5.271h1.206v6.814h-1.047v-5.27l-3.265 5.27h-1.224v-6.814h1.047zm2.591-7.542h.976c0 .479-.166.871-.497 1.176-.331.304-.781.457-1.349.457-.559 0-1.004-.153-1.335-.457-.328-.305-.492-.697-.492-1.176h.975c0 .231.064.433.191.608.13.174.351.262.661.262.311 0 .533-.088.666-.262.136-.175.204-.377.204-.608zm7.329 9.085v-6.814h1.047v2.964h.692l2.449-2.964h1.348l-2.75 3.283 2.786 3.531h-1.349l-2.235-2.874h-.941v2.874zm9.197.142c-.615 0-1.155-.146-1.619-.439-.461-.293-.822-.702-1.082-1.229-.258-.526-.386-1.141-.386-1.845 0-.71.128-1.329.386-1.859.26-.529.621-.94 1.082-1.233.464-.293 1.004-.439 1.619-.439s1.154.146 1.615.439c.464.293.825.704 1.082 1.233.261.53.391 1.149.391 1.859 0 .704-.13 1.319-.391 1.845-.257.527-.618.936-1.082 1.229-.461.293-1 .439-1.615.439zm0-.94c.468 0 .852-.12 1.154-.36.301-.239.525-.554.67-.944.144-.391.217-.814.217-1.269 0-.456-.073-.88-.217-1.273-.145-.394-.369-.712-.67-.954-.302-.243-.686-.364-1.154-.364-.467 0-.851.121-1.153.364-.302.242-.525.56-.67.954-.145.393-.217.817-.217 1.273 0 .455.072.878.217 1.269.145.39.368.705.67.944.302.24.686.36 1.153.36zm8.412-.621 2.378-5.395h.994l-2.946 6.814h-.852l-2.892-6.814h.976zm-2.679-5.395v6.814h-1.047v-6.814zm5.359 6.814v-6.814h1.047v6.814zm2.963 0v-6.814h5.359v6.814h-1.047v-5.838h-3.265v5.838zm6.667 0v-.976h.249c.204 0 .374-.04.51-.119.136-.083.245-.227.328-.431.086-.207.151-.494.195-.86.048-.37.082-.84.102-1.411l.125-3.017h4.542v6.814h-1.047v-5.838h-2.502l-.106 2.431c-.024.559-.074 1.052-.151 1.478-.074.423-.188.777-.342 1.064-.15.287-.351.503-.603.648-.251.145-.566.217-.945.217zm10.829.142c-.657 0-1.223-.145-1.699-.434-.473-.293-.839-.701-1.096-1.225-.254-.526-.381-1.138-.381-1.836s.127-1.313.381-1.846c.257-.535.615-.952 1.074-1.251.461-.301.999-.452 1.614-.452.355 0 .706.059 1.052.177.346.119.661.311.945.577.284.263.51.612.678 1.047.169.435.253.97.253 1.606v.443h-5.252v-.905h4.188c0-.384-.077-.727-.231-1.029-.151-.301-.367-.54-.648-.714-.278-.175-.606-.262-.985-.262-.417 0-.777.104-1.082.311-.302.204-.534.47-.697.798-.162.329-.243.68-.243 1.056v.603c0 .515.088.951.266 1.309.18.355.43.625.749.812.32.183.691.275 1.114.275.275 0 .523-.039.745-.116.225-.079.419-.198.581-.354.163-.16.289-.358.377-.595l1.012.284c-.107.343-.286.645-.537.905-.251.257-.562.458-.932.603-.369.142-.785.213-1.246.213zm4.414-.142v-6.814h1.047v2.964h.692l2.448-2.964h1.349l-2.75 3.283 2.785 3.531h-1.348l-2.236-2.874h-.94v2.874zm9.197.142c-.639 0-1.189-.151-1.65-.452-.462-.302-.817-.717-1.065-1.247-.248-.529-.373-1.134-.373-1.814 0-.692.127-1.303.382-1.832.257-.533.615-.948 1.073-1.247.462-.301 1-.452 1.615-.452.479 0 .911.088 1.295.266.385.177.7.426.945.745.246.32.398.692.457 1.118h-1.047c-.08-.31-.257-.585-.532-.825-.272-.243-.639-.364-1.1-.364-.408 0-.766.107-1.074.32-.304.21-.542.507-.714.891-.168.382-.253.83-.253 1.344 0 .527.083.985.249 1.376.168.39.405.693.709.909.308.216.669.324 1.083.324.272 0 .519-.048.741-.142.221-.095.409-.231.563-.408.154-.178.263-.391.328-.639h1.047c-.059.402-.205.764-.439 1.087-.231.319-.537.574-.918.763-.379.186-.819.279-1.322.279z" fill="#858585"/><path d="m322.335 142.891h14.398v6.525h-14.398zm12.446 0h14.399v6.525h-14.399zm12.447 0h14.399v6.525h-14.399zm12.447 0h8.178v6.525h-8.178zm6.223 0h14.399v6.525h-14.399zm12.447 0h14.399v6.525h-14.399z" fill="#32393e" opacity=".1"/><path d="m535.678 140.859-3.123-3.123.763-.763 2.36 2.359 2.359-2.359.764.763zm-2.36-8.536-.763-.763 3.123-3.123 3.123 3.123-.764.763-2.359-2.36z" fill="#858585"/></g><g opacity=".5"><path d="m573.154 114.854c0-4.61 3.737-8.348 8.347-8.348h228.981c4.61 0 8.348 3.738 8.348 8.348v39.518c0 4.611-3.738 8.348-8.348 8.348h-228.981c-4.61 0-8.347-3.737-8.347-8.348z" fill="#383838" fill-opacity=".02"/><path d="m573.674 114.854c0-4.323 3.504-7.827 7.827-7.827h228.981c4.323 0 7.827 3.504 7.827 7.827v39.518c0 4.323-3.504 7.828-7.827 7.828h-228.981c-4.323 0-7.827-3.505-7.827-7.828z" stroke="#051f51" stroke-opacity=".04" stroke-width="1.041"/><path d="m592.087 129.113-3.123-4.17h-1.118v4.17h-1.1v-9.085h1.1v3.939h.479l3.637-3.939h1.314l-3.674 3.993 3.798 5.092zm4.861.142c-.616 0-1.155-.146-1.62-.439-.461-.293-.822-.702-1.082-1.229-.257-.526-.386-1.141-.386-1.845 0-.71.129-1.329.386-1.859.26-.529.621-.94 1.082-1.233.465-.293 1.004-.439 1.62-.439.615 0 1.153.146 1.614.439.465.293.825.704 1.083 1.233.26.53.39 1.149.39 1.859 0 .704-.13 1.319-.39 1.845-.258.527-.618.936-1.083 1.229-.461.293-.999.439-1.614.439zm0-.94c.467 0 .851-.12 1.153-.36.302-.239.525-.554.67-.944.145-.391.217-.814.217-1.269 0-.456-.072-.88-.217-1.273-.145-.394-.368-.712-.67-.954-.302-.243-.686-.364-1.153-.364-.468 0-.852.121-1.154.364-.301.242-.525.56-.67.954-.145.393-.217.817-.217 1.273 0 .455.072.878.217 1.269.145.39.369.705.67.944.302.24.686.36 1.154.36zm4.685 3.353v-9.369h1.012v1.083h.124c.077-.118.183-.269.319-.453.139-.186.337-.352.595-.496.26-.148.612-.222 1.055-.222.574 0 1.08.143 1.518.43.437.287.779.694 1.024 1.22.246.526.368 1.147.368 1.863 0 .722-.122 1.347-.368 1.877-.245.526-.585.934-1.02 1.224-.435.287-.936.43-1.504.43-.438 0-.788-.072-1.051-.217-.263-.148-.466-.315-.608-.501-.142-.19-.251-.346-.328-.471h-.089v3.602zm1.029-5.962c0 .515.076.969.227 1.362.15.391.371.697.661.919.289.218.644.328 1.064.328.438 0 .803-.116 1.096-.346.296-.234.517-.547.665-.941.151-.396.227-.837.227-1.322 0-.479-.074-.91-.222-1.295-.145-.387-.365-.693-.661-.918-.293-.228-.661-.342-1.105-.342-.426 0-.784.108-1.073.324-.29.213-.509.512-.657.896-.148.382-.222.827-.222 1.335zm6.583 3.407v-6.814h5.359v6.814h-1.047v-5.838h-3.265v5.838zm7.702 2.555c-.178 0-.336-.014-.475-.044-.139-.026-.235-.053-.289-.08l.267-.922c.254.065.479.088.674.071.195-.018.368-.105.519-.262.154-.154.294-.404.421-.75l.196-.532-2.52-6.85h1.136l1.88 5.43h.071l1.881-5.43h1.136l-2.892 7.808c-.131.352-.292.643-.484.874-.192.234-.415.407-.67.519-.251.112-.535.168-.851.168zm8.803-2.413c-.639 0-1.189-.151-1.65-.452-.462-.302-.817-.717-1.065-1.247-.248-.529-.373-1.134-.373-1.814 0-.692.128-1.303.382-1.832.257-.533.615-.948 1.073-1.247.462-.301 1-.452 1.615-.452.479 0 .911.088 1.295.266.385.177.7.426.945.745.246.32.398.692.457 1.118h-1.047c-.079-.31-.257-.585-.532-.825-.272-.243-.639-.364-1.1-.364-.408 0-.766.107-1.074.32-.304.21-.542.507-.714.891-.168.382-.253.83-.253 1.344 0 .527.083.985.249 1.376.168.39.405.693.71.909.307.216.668.324 1.082.324.272 0 .519-.048.741-.142.222-.095.409-.231.563-.408.154-.178.263-.391.328-.639h1.047c-.059.402-.205.764-.439 1.087-.231.319-.537.574-.918.763-.379.186-.819.279-1.322.279z" fill="#858585"/><path d="m584.667 142.891h14.398v6.525h-14.398z" fill="#32393e" opacity=".1"/><path d="m798.01 140.859-3.123-3.123.763-.763 2.36 2.359 2.359-2.359.764.763zm-2.36-8.536-.763-.763 3.123-3.123 3.123 3.123-.764.763-2.359-2.36z" fill="#858585"/></g><g opacity=".5"><path d="m48.4893 187.724c0-4.61 3.7374-8.348 8.3478-8.348h228.9809c4.61 0 8.347 3.738 8.347 8.348v39.519c0 4.61-3.737 8.347-8.347 8.347h-228.9809c-4.6104 0-8.3478-3.737-8.3478-8.347z" fill="#383838" fill-opacity=".02"/><path d="m49.0098 187.724c0-4.323 3.5044-7.827 7.8273-7.827h228.9809c4.322 0 7.827 3.504 7.827 7.827v39.519c0 4.322-3.505 7.827-7.827 7.827h-228.9809c-4.3229 0-7.8273-3.505-7.8273-7.827z" stroke="#051f51" stroke-opacity=".04" stroke-width="1.041"/><path d="m61.5848 193.874v-.976h6.8138v.976h-2.8569v8.109h-1.1001v-8.109zm8.7091 6.566 3.2827-5.27h1.2066v6.813h-1.0469v-5.27l-3.265 5.27h-1.2243v-6.813h1.0469zm6.4068 1.543v-6.813h5.3588v6.813h-1.0469v-5.838h-3.265v5.838zm10.7841 0v-6.813h1.0469v2.963h.6921l2.4487-2.963h1.3485l-2.7503 3.282 2.7858 3.531h-1.3485l-2.2358-2.874h-.9405v2.874zm6.7096 2.556v-9.369h1.0114v1.082h.1242c.0769-.118.1834-.269.3194-.453.139-.186.3372-.351.5945-.496.2602-.148.6121-.222 1.0557-.222.5738 0 1.0795.143 1.5172.43s.7793.694 1.0247 1.22c.2455.526.3685 1.147.3685 1.863 0 .722-.123 1.347-.3685 1.877-.2454.526-.5855.934-1.0203 1.224-.4347.287-.936.43-1.5038.43-.4377 0-.7882-.072-1.0514-.217-.2632-.148-.4658-.315-.6077-.501-.142-.19-.2514-.346-.3283-.471h-.0887v3.603zm1.0292-5.963c0 .515.0754.969.2262 1.362.1508.391.3712.697.661.919.2898.218.6447.328 1.0646.328.4377 0 .803-.115 1.0957-.346.2958-.234.5176-.547.6655-.941.1508-.396.2262-.837.2262-1.322 0-.479-.0739-.91-.2218-1.295-.1449-.387-.3652-.693-.661-.918-.2928-.228-.661-.342-1.1046-.342-.4258 0-.7837.108-1.0735.324-.2898.213-.5087.512-.6565.896-.1479.382-.2218.827-.2218 1.335zm9.4404 3.549c-.657 0-1.223-.145-1.699-.434-.474-.293-.839-.701-1.096-1.225-.255-.526-.382-1.138-.382-1.836s.127-1.313.382-1.846c.257-.535.615-.952 1.073-1.251.462-.301 1-.452 1.615-.452.355 0 .705.059 1.051.177.346.119.661.311.945.577.284.263.51.612.679 1.047s.253.97.253 1.606v.443h-5.252v-.905h4.187c0-.384-.077-.727-.23-1.029-.151-.301-.367-.54-.648-.714-.278-.174-.606-.262-.985-.262-.417 0-.778.104-1.082.311-.302.204-.534.47-.697.798-.162.329-.244.68-.244 1.056v.603c0 .515.089.951.266 1.309.181.355.431.626.75.812.319.183.691.275 1.114.275.275 0 .523-.039.745-.115.225-.08.418-.199.581-.355.163-.16.288-.358.377-.595l1.011.284c-.106.343-.285.645-.536.905-.252.257-.562.458-.932.603-.37.142-.785.213-1.246.213zm3.686 1.81v-2.928h.568c.139-.144.259-.301.359-.47.101-.168.188-.368.262-.599.077-.233.142-.517.195-.851.053-.338.101-.744.142-1.22l.231-2.697h4.329v5.837h1.047v2.928h-1.047v-1.952h-5.039v1.952zm1.757-2.928h3.282v-4.862h-2.306l-.178 1.722c-.074.712-.166 1.335-.275 1.867-.109.533-.284.957-.523 1.273zm7.813-.567 3.282-5.27h1.207v6.813h-1.047v-5.27l-3.265 5.27h-1.224v-6.813h1.047zm5.479-4.295v-.975h5.537v.975h-2.236v5.838h-1.047v-5.838zm8.715 5.998c-.432 0-.824-.081-1.176-.244-.351-.166-.631-.404-.838-.714-.207-.314-.31-.692-.31-1.136 0-.39.076-.707.23-.949.154-.246.36-.438.617-.577s.541-.242.852-.31c.313-.071.628-.127.944-.169.414-.053.75-.093 1.007-.12.261-.029.45-.078.568-.146.121-.068.182-.186.182-.355v-.035c0-.438-.12-.778-.359-1.021-.237-.242-.596-.363-1.078-.363-.5 0-.892.109-1.176.328s-.483.452-.599.701l-.993-.355c.177-.414.414-.737.709-.967.299-.234.624-.397.976-.488.355-.095.704-.142 1.047-.142.219 0 .471.026.754.08.287.05.564.155.83.315.269.159.492.4.67.723.177.322.266.754.266 1.295v4.489h-1.047v-.922h-.053c-.071.148-.189.306-.355.474-.166.169-.386.312-.661.431-.275.118-.611.177-1.007.177zm.16-.94c.414 0 .763-.082 1.047-.244.286-.163.502-.373.647-.63.148-.258.222-.528.222-.812v-.958c-.044.053-.142.102-.293.146-.148.041-.319.078-.514.111-.192.03-.38.056-.564.08-.18.021-.326.038-.439.053-.272.036-.526.093-.763.173-.233.077-.423.194-.568.351-.142.153-.213.363-.213.629 0 .364.135.639.404.826.272.183.617.275 1.034.275z" fill="#858585"/><path d="m60.0027 215.761h14.3985v6.525h-14.3985zm12.4468 0h14.3985v6.525h-14.3985zm12.4467 0h14.3985v6.525h-14.3985zm12.4468 0h14.399v6.525h-14.399zm12.447 0h14.398v6.525h-14.398zm12.447 0h14.398v6.525h-14.398zm12.446 0h14.399v6.525h-14.399zm12.447 0h14.399v6.525h-14.399zm12.447 0h14.398v6.525h-14.398zm12.447 0h14.398v6.525h-14.398z" fill="#32393e" opacity=".1"/><path d="m273.346 213.729-3.123-3.123.763-.763 2.36 2.36 2.359-2.36.764.763zm-2.36-8.536-.763-.763 3.123-3.123 3.123 3.123-.764.763-2.359-2.359z" fill="#858585"/></g><g opacity=".5"><path d="m310.822 187.724c0-4.61 3.737-8.348 8.347-8.348h228.981c4.61 0 8.348 3.738 8.348 8.348v39.519c0 4.61-3.738 8.347-8.348 8.347h-228.981c-4.61 0-8.347-3.737-8.347-8.347z" fill="#383838" fill-opacity=".02"/><path d="m311.342 187.724c0-4.323 3.504-7.827 7.827-7.827h228.981c4.323 0 7.827 3.504 7.827 7.827v39.519c0 4.322-3.504 7.827-7.827 7.827h-228.981c-4.323 0-7.827-3.505-7.827-7.827z" stroke="#051f51" stroke-opacity=".04" stroke-width="1.041"/><path d="m331.724 195.737h-1.1c-.065-.316-.179-.594-.341-.834-.16-.239-.355-.44-.586-.603-.228-.166-.481-.29-.759-.373-.278-.082-.567-.124-.869-.124-.55 0-1.048.139-1.495.417-.444.278-.797.688-1.06 1.229-.26.541-.391 1.205-.391 1.992 0 .786.131 1.45.391 1.992.263.541.616.95 1.06 1.228.447.278.945.417 1.495.417.302 0 .591-.041.869-.124s.531-.205.759-.368c.231-.166.426-.368.586-.608.162-.242.276-.52.341-.834h1.1c-.083.465-.233.88-.452 1.247s-.491.679-.816.936c-.326.254-.691.448-1.096.581-.402.133-.833.2-1.291.2-.775 0-1.464-.19-2.067-.568-.604-.379-1.078-.917-1.424-1.615s-.519-1.526-.519-2.484.173-1.786.519-2.484.82-1.237 1.424-1.615c.603-.379 1.292-.568 2.067-.568.458 0 .889.067 1.291.2.405.133.77.328 1.096.585.325.255.597.565.816.932.219.364.369.779.452 1.246zm1.246.408v-.975h5.536v.975h-2.236v5.838h-1.047v-5.838zm9.477 5.98c-.615 0-1.154-.146-1.619-.439-.461-.293-.822-.702-1.082-1.229-.257-.526-.386-1.141-.386-1.845 0-.71.129-1.329.386-1.859.26-.529.621-.94 1.082-1.233.465-.293 1.004-.439 1.619-.439.616 0 1.154.146 1.615.439.464.293.825.704 1.083 1.233.26.53.39 1.149.39 1.859 0 .704-.13 1.319-.39 1.845-.258.527-.619.936-1.083 1.229-.461.293-.999.439-1.615.439zm0-.94c.468 0 .852-.12 1.154-.359.301-.24.525-.555.67-.945.145-.391.217-.814.217-1.269 0-.456-.072-.88-.217-1.273-.145-.394-.369-.711-.67-.954-.302-.242-.686-.364-1.154-.364-.467 0-.851.122-1.153.364-.302.243-.525.56-.67.954-.145.393-.217.817-.217 1.273 0 .455.072.878.217 1.269.145.39.368.705.67.945.302.239.686.359 1.153.359zm5.733-.745 3.283-5.27h1.206v6.813h-1.047v-5.27l-3.265 5.27h-1.224v-6.813h1.047zm10.133.124 2.378-5.394h.993l-2.945 6.813h-.852l-2.892-6.813h.976zm-2.679-5.394v6.813h-1.047v-6.813zm5.358 6.813v-6.813h1.047v6.813zm5.732.142c-.615 0-1.155-.146-1.619-.439-.462-.293-.822-.702-1.083-1.229-.257-.526-.386-1.141-.386-1.845 0-.71.129-1.329.386-1.859.261-.529.621-.94 1.083-1.233.464-.293 1.004-.439 1.619-.439s1.153.146 1.615.439c.464.293.825.704 1.082 1.233.26.53.39 1.149.39 1.859 0 .704-.13 1.319-.39 1.845-.257.527-.618.936-1.082 1.229-.462.293-1 .439-1.615.439zm0-.94c.467 0 .852-.12 1.153-.359.302-.24.525-.555.67-.945.145-.391.217-.814.217-1.269 0-.456-.072-.88-.217-1.273-.145-.394-.368-.711-.67-.954-.301-.242-.686-.364-1.153-.364s-.852.122-1.154.364c-.301.243-.524.56-.669.954-.145.393-.218.817-.218 1.273 0 .455.073.878.218 1.269.145.39.368.705.669.945.302.239.687.359 1.154.359zm7.454.94c-.639 0-1.189-.151-1.651-.452-.461-.302-.816-.717-1.064-1.247-.249-.529-.373-1.134-.373-1.814 0-.692.127-1.303.382-1.832.257-.533.615-.948 1.073-1.247.461-.301 1-.452 1.615-.452.479 0 .911.089 1.295.266.385.177.7.426.945.745.246.32.398.692.457 1.118h-1.047c-.08-.31-.257-.585-.532-.825-.272-.242-.639-.364-1.1-.364-.409 0-.766.107-1.074.32-.305.21-.543.507-.714.891-.169.382-.253.83-.253 1.344 0 .527.083.985.248 1.376.169.39.406.693.71.909.308.216.669.324 1.083.324.272 0 .519-.047.74-.142.222-.095.41-.231.564-.408.154-.178.263-.391.328-.639h1.047c-.059.402-.206.764-.439 1.087-.231.319-.537.574-.918.763-.379.186-.82.279-1.322.279zm3.673-5.98v-.975h5.536v.975h-2.236v5.838h-1.047v-5.838zm7.968 1.491h1.952c.798 0 1.409.203 1.832.608s.634.918.634 1.539c0 .408-.094.779-.284 1.114-.189.331-.467.595-.834.794-.366.195-.816.292-1.348.292h-2.857v-6.813h1.047v5.837h1.81c.414 0 .754-.109 1.02-.328s.399-.5.399-.843c0-.361-.133-.655-.399-.882-.266-.228-.606-.342-1.02-.342h-1.952zm14.086.461v.976h-3.762v-.976zm-3.514-2.927v6.813h-1.047v-6.813zm4.312 0v6.813h-1.047v-6.813zm4.769 6.955c-.657 0-1.223-.145-1.699-.434-.473-.293-.839-.701-1.096-1.225-.254-.526-.381-1.138-.381-1.836s.127-1.313.381-1.846c.257-.535.615-.952 1.074-1.251.461-.301.999-.452 1.614-.452.355 0 .706.059 1.052.177.346.119.661.311.945.577.284.263.51.612.678 1.047.169.435.253.97.253 1.606v.443h-5.252v-.905h4.188c0-.384-.077-.727-.231-1.029-.151-.301-.367-.54-.648-.714-.278-.174-.606-.262-.985-.262-.417 0-.777.104-1.082.311-.302.204-.534.47-.696.798-.163.329-.244.68-.244 1.056v.603c0 .515.088.951.266 1.309.18.355.43.626.749.812.32.183.691.275 1.114.275.275 0 .523-.039.745-.115.225-.08.419-.199.581-.355.163-.16.289-.358.377-.595l1.012.284c-.107.343-.286.645-.537.905-.251.257-.562.458-.932.603-.369.142-.785.213-1.246.213zm3.686 1.81v-2.928h.568c.139-.144.259-.301.359-.47.101-.168.188-.368.262-.599.077-.233.142-.517.195-.851.054-.338.101-.744.142-1.22l.231-2.697h4.33v5.837h1.047v2.928h-1.047v-1.952h-5.04v1.952zm1.757-2.928h3.283v-4.862h-2.307l-.178 1.722c-.073.712-.165 1.335-.275 1.867-.109.533-.283.957-.523 1.273zm6.766.976v-6.813h2.786c.733 0 1.316.165 1.748.496.432.332.647.769.647 1.313 0 .414-.122.735-.368.963-.245.225-.56.377-.945.457.252.035.496.124.732.266.24.142.438.337.595.586.157.245.235.547.235.905 0 .349-.089.661-.266.936-.178.275-.432.492-.763.652s-.728.239-1.189.239zm.994-.958h2.218c.361 0 .643-.086.847-.257.204-.172.306-.405.306-.701 0-.352-.102-.628-.306-.83-.204-.204-.486-.306-.847-.306h-2.218zm0-2.999h1.792c.281 0 .522-.038.723-.115.201-.08.355-.192.461-.337.11-.148.165-.322.165-.524 0-.286-.12-.511-.36-.674-.239-.165-.569-.248-.989-.248h-1.792zm7.068 2.414 3.282-5.27h1.207v6.813h-1.047v-5.27l-3.265 5.27h-1.224v-6.813h1.047zm5.981 1.543 2.768-3.46-2.733-3.353h1.242l2.271 2.91h.568v-2.91h1.047v2.91h.55l2.272-2.91h1.242l-2.715 3.353 2.75 3.46h-1.26l-2.307-2.927h-.532v2.927h-1.047v-2.927h-.532l-2.325 2.927zm11.805-1.543 3.283-5.27h1.206v6.813h-1.047v-5.27l-3.264 5.27h-1.225v-6.813h1.047zm10.133.124 2.378-5.394h.994l-2.946 6.813h-.852l-2.892-6.813h.976zm-2.679-5.394v6.813h-1.047v-6.813zm5.359 6.813v-6.813h1.047v6.813zm5.731.142c-.615 0-1.155-.146-1.619-.439-.462-.293-.822-.702-1.083-1.229-.257-.526-.386-1.141-.386-1.845 0-.71.129-1.329.386-1.859.261-.529.621-.94 1.083-1.233.464-.293 1.004-.439 1.619-.439s1.153.146 1.615.439c.464.293.825.704 1.082 1.233.26.53.391 1.149.391 1.859 0 .704-.131 1.319-.391 1.845-.257.527-.618.936-1.082 1.229-.462.293-1 .439-1.615.439zm0-.94c.467 0 .852-.12 1.153-.359.302-.24.525-.555.67-.945.145-.391.218-.814.218-1.269 0-.456-.073-.88-.218-1.273-.145-.394-.368-.711-.67-.954-.301-.242-.686-.364-1.153-.364s-.852.122-1.153.364c-.302.243-.525.56-.67.954-.145.393-.218.817-.218 1.273 0 .455.073.878.218 1.269.145.39.368.705.67.945.301.239.686.359 1.153.359zm7.454.94c-.639 0-1.189-.151-1.65-.452-.462-.302-.817-.717-1.065-1.247-.249-.529-.373-1.134-.373-1.814 0-.692.127-1.303.382-1.832.257-.533.615-.948 1.073-1.247.462-.301 1-.452 1.615-.452.479 0 .911.089 1.295.266.385.177.7.426.945.745.246.32.398.692.457 1.118h-1.047c-.08-.31-.257-.585-.532-.825-.272-.242-.639-.364-1.1-.364-.408 0-.766.107-1.074.32-.304.21-.542.507-.714.891-.169.382-.253.83-.253 1.344 0 .527.083.985.249 1.376.168.39.405.693.709.909.308.216.669.324 1.083.324.272 0 .519-.047.741-.142.221-.095.409-.231.563-.408.154-.178.263-.391.328-.639h1.047c-.059.402-.205.764-.439 1.087-.231.319-.537.574-.918.763-.379.186-.82.279-1.322.279zm3.673-5.98v-.975h5.536v.975h-2.236v5.838h-1.047v-5.838zm8.11 4.295 3.283-5.27h1.206v6.813h-1.047v-5.27l-3.264 5.27h-1.225v-6.813h1.047z" fill="#858585"/><path d="m322.335 215.761h14.398v6.525h-14.398zm12.446 0h14.399v6.525h-14.399zm12.447 0h8.178v6.525h-8.178zm6.224 0h14.398v6.525h-14.398zm12.446 0h8.178v6.525h-8.178zm6.224 0h14.398v6.525h-14.398zm12.447 0h14.398v6.525h-14.398zm12.446 0h14.399v6.525h-14.399z" fill="#32393e" opacity=".1"/></g><g opacity=".5"><path d="m573.154 187.724c0-4.61 3.737-8.348 8.347-8.348h228.981c4.61 0 8.348 3.738 8.348 8.348v39.519c0 4.61-3.738 8.347-8.348 8.347h-228.981c-4.61 0-8.347-3.737-8.347-8.347z" fill="#383838" fill-opacity=".02"/><path d="m573.674 187.724c0-4.323 3.504-7.827 7.827-7.827h228.981c4.323 0 7.827 3.504 7.827 7.827v39.519c0 4.322-3.504 7.827-7.827 7.827h-228.981c-4.323 0-7.827-3.505-7.827-7.827z" stroke="#051f51" stroke-opacity=".04" stroke-width="1.041"/><path d="m586.746 201.983v-9.085h3.069c.713 0 1.296.129 1.748.386.456.255.793.599 1.012 1.034s.328.92.328 1.455-.109 1.022-.328 1.459c-.216.438-.55.787-1.003 1.047-.452.258-1.032.386-1.739.386h-2.2v-.976h2.165c.488 0 .88-.084 1.175-.253.296-.168.51-.396.643-.683.137-.29.205-.616.205-.98s-.068-.689-.205-.976c-.133-.287-.348-.512-.647-.674-.299-.166-.695-.249-1.189-.249h-1.934v8.109zm10.571.142c-.657 0-1.223-.145-1.699-.434-.473-.293-.839-.701-1.096-1.225-.254-.526-.381-1.138-.381-1.836s.127-1.313.381-1.846c.257-.535.615-.952 1.074-1.251.461-.301.999-.452 1.614-.452.355 0 .706.059 1.052.177.346.119.661.311.945.577.284.263.51.612.678 1.047.169.435.253.97.253 1.606v.443h-5.252v-.905h4.188c0-.384-.077-.727-.231-1.029-.151-.301-.367-.54-.648-.714-.278-.174-.606-.262-.985-.262-.417 0-.777.104-1.082.311-.302.204-.534.47-.696.798-.163.329-.244.68-.244 1.056v.603c0 .515.088.951.266 1.309.18.355.43.626.749.812.32.183.691.275 1.114.275.275 0 .523-.039.745-.115.225-.08.419-.199.581-.355.163-.16.289-.358.377-.595l1.012.284c-.107.343-.286.645-.537.905-.251.257-.562.458-.932.603-.369.142-.785.213-1.246.213zm8.619-6.955v.975h-3.158v5.838h-1.047v-6.813zm2.575 5.27 3.283-5.27h1.207v6.813h-1.047v-5.27l-3.265 5.27h-1.225v-6.813h1.047zm9.175 1.685c-.615 0-1.155-.146-1.619-.439-.461-.293-.822-.702-1.082-1.229-.258-.526-.386-1.141-.386-1.845 0-.71.128-1.329.386-1.859.26-.529.621-.94 1.082-1.233.464-.293 1.004-.439 1.619-.439s1.154.146 1.615.439c.464.293.825.704 1.082 1.233.261.53.391 1.149.391 1.859 0 .704-.13 1.319-.391 1.845-.257.527-.618.936-1.082 1.229-.461.293-1 .439-1.615.439zm0-.94c.467 0 .852-.12 1.154-.359.301-.24.525-.555.669-.945.145-.391.218-.814.218-1.269 0-.456-.073-.88-.218-1.273-.144-.394-.368-.711-.669-.954-.302-.242-.687-.364-1.154-.364s-.852.122-1.153.364c-.302.243-.525.56-.67.954-.145.393-.217.817-.217 1.273 0 .455.072.878.217 1.269.145.39.368.705.67.945.301.239.686.359 1.153.359zm9.246-3.088v.976h-3.762v-.976zm-3.513-2.927v6.813h-1.047v-6.813zm4.312 0v6.813h-1.047v-6.813zm5.425 6.813v-6.813h5.359v6.813h-1.047v-5.838h-3.265v5.838zm7.271 2.556v-9.369h1.011v1.082h.124c.077-.118.184-.269.32-.453.139-.186.337-.351.594-.496.26-.148.612-.222 1.056-.222.574 0 1.079.143 1.517.43s.779.694 1.025 1.22c.245.526.368 1.147.368 1.863 0 .722-.123 1.347-.368 1.877-.246.526-.586.934-1.02 1.224-.435.287-.936.43-1.504.43-.438 0-.788-.072-1.052-.217-.263-.148-.465-.315-.607-.501-.142-.19-.252-.346-.329-.471h-.088v3.603zm1.029-5.963c0 .515.075.969.226 1.362.151.391.371.697.661.919.29.218.645.328 1.065.328.437 0 .803-.115 1.095-.346.296-.234.518-.547.666-.941.151-.396.226-.837.226-1.322 0-.479-.074-.91-.222-1.295-.145-.387-.365-.693-.661-.918-.292-.228-.661-.342-1.104-.342-.426 0-.784.108-1.074.324-.29.213-.508.512-.656.896-.148.382-.222.827-.222 1.335zm7.63 1.864 3.283-5.27h1.206v6.813h-1.047v-5.27l-3.265 5.27h-1.224v-6.813h1.047zm9.175 1.685c-.615 0-1.155-.146-1.619-.439-.462-.293-.822-.702-1.083-1.229-.257-.526-.386-1.141-.386-1.845 0-.71.129-1.329.386-1.859.261-.529.621-.94 1.083-1.233.464-.293 1.004-.439 1.619-.439s1.153.146 1.615.439c.464.293.825.704 1.082 1.233.26.53.39 1.149.39 1.859 0 .704-.13 1.319-.39 1.845-.257.527-.618.936-1.082 1.229-.462.293-1 .439-1.615.439zm0-.94c.467 0 .852-.12 1.153-.359.302-.24.525-.555.67-.945.145-.391.217-.814.217-1.269 0-.456-.072-.88-.217-1.273-.145-.394-.368-.711-.67-.954-.301-.242-.686-.364-1.153-.364s-.852.122-1.154.364c-.301.243-.524.56-.669.954-.145.393-.218.817-.218 1.273 0 .455.073.878.218 1.269.145.39.368.705.669.945.302.239.687.359 1.154.359zm9.743-8.571.532.639c-.207.201-.447.342-.719.422-.272.079-.579.128-.922.146s-.725.035-1.145.053c-.473.018-.865.133-1.176.346-.31.213-.55.521-.718.923-.169.402-.277.896-.324 1.482h.089c.23-.426.55-.74.958-.941s.846-.302 1.313-.302c.532 0 1.011.125 1.437.373.426.249.763.617 1.012 1.105.248.488.372 1.089.372 1.805 0 .713-.127 1.328-.381 1.846-.252.517-.605.916-1.06 1.197-.453.278-.984.417-1.593.417s-1.143-.143-1.601-.43c-.459-.29-.815-.719-1.069-1.286-.255-.571-.382-1.277-.382-2.116v-.728c0-1.517.257-2.668.772-3.451.517-.784 1.295-1.189 2.333-1.216.367-.012.694-.015.981-.009s.536-.007.749-.04c.213-.032.394-.11.542-.235zm-2.325 8.571c.411 0 .765-.104 1.06-.311.299-.207.528-.498.688-.874.16-.378.239-.823.239-1.335 0-.497-.081-.92-.244-1.269-.159-.349-.388-.615-.687-.798s-.657-.275-1.074-.275c-.304 0-.578.052-.82.155-.243.104-.45.256-.621.457-.172.201-.305.447-.4.736-.091.29-.14.622-.146.994 0 .763.179 1.374.537 1.832.358.459.847.688 1.468.688zm4.636 3.354v-9.369h1.011v1.082h.124c.077-.118.184-.269.32-.453.139-.186.337-.351.594-.496.261-.148.612-.222 1.056-.222.574 0 1.079.143 1.517.43s.779.694 1.025 1.22c.245.526.368 1.147.368 1.863 0 .722-.123 1.347-.368 1.877-.246.526-.586.934-1.02 1.224-.435.287-.936.43-1.504.43-.438 0-.788-.072-1.052-.217-.263-.148-.465-.315-.607-.501-.142-.19-.252-.346-.329-.471h-.088v3.603zm1.029-5.963c0 .515.075.969.226 1.362.151.391.371.697.661.919.29.218.645.328 1.065.328.438 0 .803-.115 1.096-.346.295-.234.517-.547.665-.941.151-.396.226-.837.226-1.322 0-.479-.074-.91-.222-1.295-.145-.387-.365-.693-.661-.918-.292-.228-.661-.342-1.104-.342-.426 0-.784.108-1.074.324-.29.213-.508.512-.656.896-.148.382-.222.827-.222 1.335zm9.44 3.549c-.657 0-1.223-.145-1.699-.434-.473-.293-.839-.701-1.096-1.225-.254-.526-.381-1.138-.381-1.836s.127-1.313.381-1.846c.257-.535.615-.952 1.074-1.251.461-.301.999-.452 1.614-.452.355 0 .706.059 1.052.177.346.119.661.311.945.577.284.263.51.612.678 1.047.169.435.253.97.253 1.606v.443h-5.252v-.905h4.188c0-.384-.077-.727-.231-1.029-.151-.301-.367-.54-.648-.714-.278-.174-.606-.262-.985-.262-.417 0-.777.104-1.082.311-.302.204-.534.47-.696.798-.163.329-.244.68-.244 1.056v.603c0 .515.088.951.266 1.309.18.355.43.626.749.812.32.183.691.275 1.114.275.275 0 .523-.039.745-.115.225-.08.419-.199.581-.355.163-.16.289-.358.377-.595l1.012.284c-.107.343-.286.645-.537.905-.251.257-.562.458-.932.603-.369.142-.785.213-1.246.213zm3.779-5.98v-.975h5.537v.975h-2.236v5.838h-1.047v-5.838zm9.567 5.98c-.657 0-1.223-.145-1.699-.434-.473-.293-.839-.701-1.096-1.225-.254-.526-.381-1.138-.381-1.836s.127-1.313.381-1.846c.257-.535.615-.952 1.074-1.251.461-.301.999-.452 1.614-.452.355 0 .706.059 1.052.177.346.119.661.311.945.577.284.263.51.612.678 1.047.169.435.253.97.253 1.606v.443h-5.252v-.905h4.188c0-.384-.077-.727-.231-1.029-.151-.301-.367-.54-.648-.714-.278-.174-.606-.262-.985-.262-.417 0-.777.104-1.082.311-.302.204-.534.47-.696.798-.163.329-.244.68-.244 1.056v.603c0 .515.088.951.266 1.309.18.355.43.626.749.812.32.183.691.275 1.114.275.275 0 .523-.039.745-.115.225-.08.419-.199.581-.355.163-.16.289-.358.377-.595l1.012.284c-.107.343-.286.645-.537.905-.251.257-.562.458-.932.603-.369.142-.785.213-1.246.213zm8.974-4.028v.976h-3.762v-.976zm-3.513-2.927v6.813h-1.047v-6.813zm4.312 0v6.813h-1.047v-6.813zm2.958 5.27 3.283-5.27h1.207v6.813h-1.047v-5.27l-3.265 5.27h-1.224v-6.813h1.046zm10.506 1.543v-5.855h-1.81c-.408 0-.729.094-.962.284-.234.189-.351.449-.351.78 0 .326.105.582.315.768.213.186.504.279.874.279h2.2v.976h-2.2c-.461 0-.859-.081-1.193-.244-.334-.162-.592-.395-.772-.696-.181-.305-.271-.666-.271-1.083 0-.42.095-.78.284-1.082s.46-.534.812-.696c.355-.163.776-.244 1.264-.244h2.804v6.813zm-4.542 0 1.934-3.389h1.135l-1.934 3.389z" fill="#858585"/><path d="m584.667 215.761h14.398v6.525h-14.398zm12.447 0h14.398v6.525h-14.398zm12.446 0h14.399v6.525h-14.399zm12.447 0h14.399v6.525h-14.399zm12.447 0h14.398v6.525h-14.398zm12.447 0h14.398v6.525h-14.398z" fill="#32393e" opacity=".1"/><path d="m798.01 213.729-3.123-3.123.763-.763 2.36 2.36 2.359-2.36.764.763zm-2.36-8.536-.763-.763 3.123-3.123 3.123 3.123-.764.763-2.359-2.359z" fill="#858585"/></g><g opacity=".5"><path d="m48.4893 260.594c0-4.61 3.7374-8.348 8.3478-8.348h228.9809c4.61 0 8.347 3.738 8.347 8.348v39.519c0 4.61-3.737 8.347-8.347 8.347h-228.9809c-4.6104 0-8.3478-3.737-8.3478-8.347z" fill="#383838" fill-opacity=".02"/><path d="m49.0098 260.594c0-4.323 3.5044-7.827 7.8273-7.827h228.9809c4.322 0 7.827 3.504 7.827 7.827v39.519c0 4.322-3.505 7.827-7.827 7.827h-228.9809c-4.3229 0-7.8273-3.505-7.8273-7.827z" stroke="#051f51" stroke-opacity=".04" stroke-width="1.041"/><path d="m69.3923 268.607h-1.1002c-.0651-.316-.1789-.594-.3416-.834-.1597-.239-.3549-.44-.5855-.603-.2278-.166-.4806-.29-.7586-.373-.278-.082-.5678-.124-.8695-.124-.55 0-1.0484.139-1.4949.417-.4436.278-.7971.688-1.0603 1.229-.2602.541-.3903 1.205-.3903 1.992 0 .786.1301 1.45.3903 1.992.2632.541.6167.95 1.0603 1.228.4465.278.9449.417 1.4949.417.3017 0 .5915-.041.8695-.124s.5308-.205.7586-.368c.2306-.166.4258-.368.5855-.608.1627-.242.2765-.52.3416-.834h1.1002c-.0828.465-.2337.88-.4525 1.247-.2189.367-.4909.679-.8163.936-.3253.254-.6905.448-1.0957.581-.4022.133-.8325.2-1.2909.2-.7748 0-1.4639-.19-2.0672-.568-.6033-.379-1.078-.917-1.424-1.615s-.519-1.526-.519-2.484.173-1.786.519-2.484.8207-1.237 1.424-1.615c.6033-.379 1.2924-.568 2.0672-.568.4584 0 .8887.067 1.2909.2.4052.133.7704.328 1.0957.585.3254.255.5974.565.8163.932.2188.364.3697.779.4525 1.246zm1.6358 8.802v-9.369h1.0114v1.082h.1242c.0769-.118.1834-.269.3194-.453.139-.186.3371-.351.5944-.496.2603-.148.6122-.222 1.0558-.222.5738 0 1.0795.143 1.5172.43s.7792.694 1.0247 1.22.3682 1.148.3682 1.863c0 .722-.1227 1.347-.3682 1.877-.2455.526-.5856.934-1.0203 1.224-.4347.287-.936.43-1.5038.43-.4377 0-.7882-.072-1.0514-.217-.2632-.148-.4658-.315-.6077-.501-.142-.19-.2514-.346-.3283-.471h-.0887v3.603zm1.0291-5.963c0 .515.0754.969.2263 1.362.1508.391.3711.697.6609.919.2899.218.6448.328 1.0647.328.4377 0 .8029-.115 1.0957-.346.2958-.234.5176-.547.6654-.941.1509-.396.2263-.837.2263-1.322 0-.479-.074-.91-.2218-1.295-.1449-.387-.3653-.693-.661-.918-.2928-.228-.661-.342-1.1046-.342-.4259 0-.7837.108-1.0735.324-.2898.213-.5087.512-.6566.896-.1478.382-.2218.827-.2218 1.335zm9.3513 3.549c-.6151 0-1.1549-.146-1.6192-.439-.4613-.293-.8221-.702-1.0824-1.229-.2573-.526-.3859-1.141-.3859-1.845 0-.71.1286-1.329.3859-1.859.2603-.529.6211-.94 1.0824-1.233.4643-.293 1.0041-.439 1.6192-.439s1.1534.146 1.6147.439c.4643.293.8251.704 1.0824 1.233.2603.53.3904 1.149.3904 1.859 0 .704-.1301 1.319-.3904 1.845-.2573.527-.6181.936-1.0824 1.229-.4613.293-.9996.439-1.6147.439zm0-.94c.4673 0 .8517-.12 1.1534-.359.3016-.24.5249-.555.6698-.945.1449-.391.2174-.814.2174-1.269s-.0725-.88-.2174-1.273c-.1449-.394-.3682-.711-.6698-.954-.3017-.242-.6861-.364-1.1534-.364s-.8517.122-1.1534.364c-.3016.243-.5249.56-.6698.954-.1449.393-.2174.818-.2174 1.273s.0725.878.2174 1.269c.1449.39.3682.705.6698.945.3017.239.6861.359 1.1534.359zm4.6856.798v-6.813h1.0469v2.963h.692l2.4488-2.963h1.3485l-2.7503 3.282 2.7858 3.531h-1.3485l-2.2358-2.874h-.9405v2.874zm10.223 0v-6.813h1.0469v2.963h.692l2.449-2.963h1.348l-2.7501 3.282 2.7861 3.531h-1.349l-2.2356-2.874h-.9404v2.874zm6.7099 2.556v-9.369h1.011v1.082h.124c.077-.118.184-.269.32-.453.139-.186.337-.351.594-.496.26-.148.612-.222 1.056-.222.574 0 1.079.143 1.517.43s.779.694 1.025 1.22c.245.526.368 1.148.368 1.863 0 .722-.123 1.347-.368 1.877-.246.526-.586.934-1.021 1.224-.434.287-.936.43-1.503.43-.438 0-.789-.072-1.052-.217-.263-.148-.466-.315-.607-.501-.142-.19-.252-.346-.329-.471h-.088v3.603zm1.029-5.963c0 .515.075.969.226 1.362.151.391.371.697.661.919.29.218.645.328 1.065.328.437 0 .803-.115 1.095-.346.296-.234.518-.547.666-.941.151-.396.226-.837.226-1.322 0-.479-.074-.91-.222-1.295-.145-.387-.365-.693-.661-.918-.293-.228-.661-.342-1.104-.342-.426 0-.784.108-1.074.324-.29.213-.509.512-.656.896-.148.382-.222.827-.222 1.335zm9.44 3.549c-.657 0-1.223-.145-1.699-.434-.473-.293-.839-.701-1.096-1.225-.254-.526-.381-1.138-.381-1.836s.127-1.313.381-1.846c.257-.535.615-.952 1.074-1.251.461-.301.999-.452 1.614-.452.355 0 .706.059 1.052.177.346.119.661.311.945.577.283.263.51.612.678 1.047.169.435.253.97.253 1.606v.443h-5.252v-.905h4.187c0-.384-.076-.727-.23-1.029-.151-.301-.367-.54-.648-.714-.278-.174-.606-.262-.985-.262-.417 0-.777.104-1.082.311-.302.204-.534.47-.697.798-.162.329-.244.681-.244 1.056v.603c0 .515.089.951.267 1.309.18.355.43.626.749.812.32.183.691.275 1.114.275.275 0 .523-.039.745-.115.225-.08.419-.199.581-.355.163-.16.289-.358.377-.595l1.012.284c-.107.343-.286.645-.537.905-.251.257-.562.458-.932.603-.369.142-.785.213-1.246.213zm3.686 1.81v-2.928h.568c.139-.144.259-.301.359-.47.101-.168.188-.368.262-.599.077-.233.142-.517.195-.851.053-.338.101-.744.142-1.22l.231-2.697h4.329v5.837h1.047v2.928h-1.047v-1.952h-5.039v1.952zm1.757-2.928h3.283v-4.862h-2.307l-.178 1.722c-.074.712-.165 1.335-.275 1.867-.109.533-.284.957-.523 1.273zm7.813-.567 3.283-5.27h1.206v6.813h-1.047v-5.27l-3.265 5.27h-1.224v-6.813h1.047zm5.48-4.295v-.975h5.536v.975h-2.236v5.838h-1.047v-5.838zm9.477 5.98c-.615 0-1.155-.146-1.619-.439-.461-.293-.822-.702-1.082-1.229-.258-.526-.386-1.141-.386-1.845 0-.71.128-1.329.386-1.859.26-.529.621-.94 1.082-1.233.464-.293 1.004-.439 1.619-.439s1.154.146 1.615.439c.464.293.825.704 1.082 1.233.261.53.391 1.149.391 1.859 0 .704-.13 1.319-.391 1.845-.257.527-.618.936-1.082 1.229-.461.293-1 .439-1.615.439zm0-.94c.468 0 .852-.12 1.154-.359.301-.24.525-.555.669-.945.145-.391.218-.814.218-1.269s-.073-.88-.218-1.273c-.144-.394-.368-.711-.669-.954-.302-.242-.686-.364-1.154-.364-.467 0-.851.122-1.153.364-.302.243-.525.56-.67.954-.145.393-.217.818-.217 1.273s.072.878.217 1.269c.145.39.368.705.67.945.302.239.686.359 1.153.359zm4.686.798v-6.813h2.786c.733 0 1.316.165 1.748.496.431.332.647.769.647 1.313 0 .415-.123.735-.368.963-.245.225-.56.377-.945.457.252.036.495.124.732.266.24.142.438.337.595.586.156.245.235.547.235.905 0 .349-.089.661-.267.936-.177.275-.431.492-.763.652-.331.16-.727.239-1.188.239zm.994-.958h2.218c.36 0 .643-.086.847-.257.204-.172.306-.405.306-.701 0-.352-.102-.628-.306-.83-.204-.204-.487-.306-.847-.306h-2.218zm0-2.999h1.792c.281 0 .522-.038.723-.115.201-.08.355-.192.461-.337.11-.148.164-.322.164-.524 0-.286-.119-.511-.359-.674-.24-.165-.569-.248-.989-.248h-1.792zm8.026 4.117c-.432 0-.824-.081-1.176-.244-.352-.166-.631-.404-.838-.714-.207-.314-.311-.692-.311-1.136 0-.39.077-.707.231-.949.153-.246.359-.438.616-.577.258-.139.542-.242.852-.31.314-.071.628-.127.945-.169.414-.053.75-.093 1.007-.12.26-.029.449-.078.568-.146.121-.068.182-.186.182-.355v-.035c0-.438-.12-.778-.36-1.021-.236-.242-.596-.363-1.078-.363-.499 0-.891.109-1.175.328s-.484.452-.599.701l-.994-.355c.178-.414.414-.737.71-.967.299-.234.624-.397.976-.488.355-.095.704-.142 1.047-.142.219 0 .47.026.754.08.287.05.563.155.83.315.269.159.492.4.669.723.178.322.267.754.267 1.295v4.489h-1.047v-.922h-.054c-.071.148-.189.306-.354.474-.166.169-.386.312-.661.431-.276.118-.611.177-1.007.177zm.159-.94c.414 0 .763-.082 1.047-.244.287-.163.503-.373.648-.63.148-.258.222-.528.222-.812v-.958c-.045.053-.142.102-.293.146-.148.042-.32.078-.515.111-.192.03-.38.056-.563.08-.181.021-.327.038-.439.053-.272.036-.527.093-.763.173-.234.077-.423.194-.568.351-.142.153-.213.363-.213.629 0 .364.135.639.404.826.272.183.616.275 1.033.275zm9.435-3.106v.976h-3.762v-.976zm-3.514-2.927v6.813h-1.047v-6.813zm4.312 0v6.813h-1.047v-6.813zm2.959 5.27 3.283-5.27h1.206v6.813h-1.047v-5.27l-3.265 5.27h-1.224v-6.813h1.047zm10.506 1.543v-5.855h-1.81c-.408 0-.729.094-.963.284-.233.189-.35.449-.35.78 0 .326.105.582.315.768.213.186.504.279.874.279h2.2v.976h-2.2c-.462 0-.859-.081-1.194-.244-.334-.162-.591-.395-.772-.696-.18-.305-.27-.666-.27-1.083 0-.42.095-.78.284-1.082s.46-.534.812-.696c.354-.163.776-.244 1.264-.244h2.803v6.813zm-4.543 0 1.934-3.389h1.136l-1.934 3.389z" fill="#858585"/><path d="m60.0027 288.631h14.3985v6.525h-14.3985zm12.4468 0h14.3985v6.525h-14.3985zm12.4467 0h14.3985v6.525h-14.3985zm12.4468 0h8.178v6.525h-8.178zm6.223 0h14.399v6.525h-14.399zm12.447 0h14.399v6.525h-14.399zm12.447 0h14.398v6.525h-14.398z" fill="#32393e" opacity=".31"/></g><g opacity=".5"><path d="m331.724 268.607h-1.1c-.065-.316-.179-.594-.341-.834-.16-.239-.355-.44-.586-.603-.228-.166-.481-.29-.759-.373-.278-.082-.567-.124-.869-.124-.55 0-1.048.139-1.495.417-.444.278-.797.688-1.06 1.229-.26.541-.391 1.205-.391 1.992 0 .786.131 1.45.391 1.992.263.541.616.95 1.06 1.228.447.278.945.417 1.495.417.302 0 .591-.041.869-.124s.531-.205.759-.368c.231-.166.426-.368.586-.608.162-.242.276-.52.341-.834h1.1c-.083.465-.233.88-.452 1.247s-.491.679-.816.936c-.326.254-.691.448-1.096.581-.402.133-.833.2-1.291.2-.775 0-1.464-.19-2.067-.568-.604-.379-1.078-.917-1.424-1.615s-.519-1.526-.519-2.484.173-1.786.519-2.484.82-1.237 1.424-1.615c.603-.379 1.292-.568 2.067-.568.458 0 .889.067 1.291.2.405.133.77.328 1.096.585.325.255.597.565.816.932.219.364.369.779.452 1.246zm2.31 8.802c-.177 0-.335-.015-.474-.045-.139-.026-.235-.053-.289-.08l.267-.922c.254.065.479.088.674.071.195-.018.368-.105.519-.262.154-.154.294-.404.421-.75l.195-.532-2.519-6.849h1.135l1.881 5.429h.071l1.881-5.429h1.136l-2.893 7.807c-.13.352-.291.643-.483.874-.192.234-.416.407-.67.519-.251.112-.535.169-.852.169zm10.006-3.975 2.378-5.394h.993l-2.945 6.813h-.852l-2.892-6.813h.976zm-2.679-5.394v6.813h-1.047v-6.813zm5.358 6.813v-6.813h1.047v6.813zm6.69-1.419 2.378-5.394h.993l-2.945 6.813h-.852l-2.892-6.813h.976zm-2.679-5.394v6.813h-1.047v-6.813zm5.358 6.813v-6.813h1.047v6.813zm4.969.16c-.432 0-.824-.081-1.176-.244-.352-.166-.631-.404-.838-.714-.207-.314-.311-.692-.311-1.136 0-.39.077-.707.231-.949.154-.246.359-.438.617-.577.257-.139.541-.242.851-.31.314-.071.629-.127.945-.169.414-.053.75-.093 1.007-.12.26-.029.45-.078.568-.146.121-.068.182-.186.182-.355v-.035c0-.438-.12-.778-.359-1.021-.237-.242-.596-.363-1.078-.363-.5 0-.892.109-1.176.328s-.484.452-.599.701l-.994-.355c.178-.414.414-.737.71-.967.299-.234.624-.397.976-.488.355-.095.704-.142 1.047-.142.219 0 .47.026.754.08.287.05.564.155.83.315.269.159.492.4.67.723.177.322.266.754.266 1.295v4.489h-1.047v-.922h-.053c-.071.148-.19.306-.355.474-.166.169-.386.312-.661.431-.275.118-.611.177-1.007.177zm.159-.94c.415 0 .763-.082 1.047-.244.287-.163.503-.373.648-.63.148-.258.222-.528.222-.812v-.958c-.045.053-.142.102-.293.146-.148.042-.319.078-.515.111-.192.03-.38.056-.563.08-.18.021-.327.038-.439.053-.272.036-.526.093-.763.173-.234.077-.423.194-.568.351-.142.153-.213.363-.213.629 0 .364.135.639.404.826.272.183.616.275 1.033.275zm8.388.78v-6.813h1.047v2.963h.692l2.449-2.963h1.348l-2.75 3.282 2.786 3.531h-1.349l-2.236-2.874h-.94v2.874zm6.71 2.556v-9.369h1.011v1.082h.124c.077-.118.184-.269.32-.453.139-.186.337-.351.594-.496.26-.148.612-.222 1.056-.222.574 0 1.079.143 1.517.43s.779.694 1.025 1.22c.245.526.368 1.148.368 1.863 0 .722-.123 1.347-.368 1.877-.246.526-.586.934-1.021 1.224-.434.287-.936.43-1.503.43-.438 0-.789-.072-1.052-.217-.263-.148-.466-.315-.608-.501-.141-.19-.251-.346-.328-.471h-.089v3.603zm1.029-5.963c0 .515.075.969.226 1.362.151.391.371.697.661.919.29.218.645.328 1.065.328.437 0 .803-.115 1.095-.346.296-.234.518-.547.666-.941.151-.396.226-.837.226-1.322 0-.479-.074-.91-.222-1.295-.145-.387-.365-.693-.661-.918-.293-.228-.661-.342-1.104-.342-.426 0-.784.108-1.074.324-.29.213-.509.512-.656.896-.148.382-.222.827-.222 1.335zm9.44 3.549c-.657 0-1.223-.145-1.699-.434-.473-.293-.839-.701-1.096-1.225-.254-.526-.382-1.138-.382-1.836s.128-1.313.382-1.846c.257-.535.615-.952 1.074-1.251.461-.301.999-.452 1.614-.452.355 0 .706.059 1.052.177.346.119.661.311.944.577.284.263.511.612.679 1.047.169.435.253.97.253 1.606v.443h-5.252v-.905h4.187c0-.384-.076-.727-.23-1.029-.151-.301-.367-.54-.648-.714-.278-.174-.606-.262-.985-.262-.417 0-.778.104-1.082.311-.302.204-.534.47-.697.798-.162.329-.244.681-.244 1.056v.603c0 .515.089.951.267 1.309.18.355.43.626.749.812.32.183.691.275 1.114.275.275 0 .523-.039.745-.115.225-.08.418-.199.581-.355.163-.16.288-.358.377-.595l1.012.284c-.107.343-.286.645-.537.905-.252.257-.562.458-.932.603-.369.142-.785.213-1.246.213zm3.686 1.81v-2.928h.568c.139-.144.259-.301.359-.47.101-.168.188-.368.262-.599.077-.233.142-.517.195-.851.053-.338.101-.744.142-1.22l.231-2.697h4.329v5.837h1.047v2.928h-1.047v-1.952h-5.039v1.952zm1.757-2.928h3.282v-4.862h-2.306l-.178 1.722c-.074.712-.165 1.335-.275 1.867-.109.533-.284.957-.523 1.273zm7.813-.567 3.283-5.27h1.206v6.813h-1.047v-5.27l-3.265 5.27h-1.224v-6.813h1.047zm5.48-4.295v-.975h5.536v.975h-2.236v5.838h-1.047v-5.838zm8.714 5.998c-.432 0-.823-.081-1.175-.244-.352-.166-.632-.404-.839-.714-.207-.314-.31-.692-.31-1.136 0-.39.077-.707.23-.949.154-.246.36-.438.617-.577s.541-.242.852-.31c.313-.071.628-.127.945-.169.414-.053.749-.093 1.007-.12.26-.029.449-.078.567-.146.122-.068.182-.186.182-.355v-.035c0-.438-.119-.778-.359-1.021-.237-.242-.596-.363-1.078-.363-.5 0-.892.109-1.176.328-.283.219-.483.452-.598.701l-.994-.355c.177-.414.414-.737.71-.967.298-.234.624-.397.976-.488.354-.095.703-.142 1.046-.142.219 0 .471.026.755.08.287.05.563.155.829.315.269.159.493.4.67.723.177.322.266.754.266 1.295v4.489h-1.047v-.922h-.053c-.071.148-.189.306-.355.474-.165.169-.386.312-.661.431-.275.118-.611.177-1.007.177zm.16-.94c.414 0 .763-.082 1.047-.244.287-.163.503-.373.647-.63.148-.258.222-.528.222-.812v-.958c-.044.053-.142.102-.293.146-.147.042-.319.078-.514.111-.192.03-.38.056-.563.08-.181.021-.327.038-.44.053-.272.036-.526.093-.763.173-.233.077-.423.194-.567.351-.142.153-.213.363-.213.629 0 .364.134.639.403.826.272.183.617.275 1.034.275z" fill="#858585"/><path d="m322.335 288.631h14.398v6.525h-14.398zm12.446 0h8.178v6.525h-8.178zm6.224 0h8.178v6.525h-8.178zm6.223 0h8.178v6.525h-8.178zm6.224 0h14.398v6.525h-14.398zm12.446 0h14.399v6.525h-14.399zm12.447 0h14.399v6.525h-14.399z" fill="#32393e" opacity=".1"/></g><g filter="url(#a)"><g clip-path="url(#f)"><path d="m308.077 114.854c0-4.61 3.737-8.348 8.348-8.348h228.98c4.611 0 8.348 3.738 8.348 8.348v39.518c0 4.611-3.737 8.348-8.348 8.348h-228.98c-4.611 0-8.348-3.737-8.348-8.347z" fill="#fff"/><path d="m329.073 123.071c0 .958-.173 1.786-.519 2.484s-.821 1.236-1.424 1.615c-.603.378-1.293.568-2.067.568-.775 0-1.464-.19-2.068-.568-.603-.379-1.078-.917-1.424-1.615s-.519-1.526-.519-2.484.173-1.786.519-2.484.821-1.237 1.424-1.615c.604-.379 1.293-.568 2.068-.568.774 0 1.464.189 2.067.568.603.378 1.078.917 1.424 1.615s.519 1.526.519 2.484zm-1.065 0c0-.787-.131-1.451-.395-1.992-.26-.541-.613-.951-1.06-1.229-.443-.278-.94-.417-1.49-.417s-1.049.139-1.495.417c-.444.278-.797.688-1.061 1.229-.26.541-.39 1.205-.39 1.992 0 .786.13 1.45.39 1.992.264.541.617.95 1.061 1.228.446.278.945.417 1.495.417s1.047-.139 1.49-.417c.447-.278.8-.687 1.06-1.228.264-.542.395-1.206.395-1.992zm7.83-4.827.532.639c-.207.201-.446.342-.718.422-.273.079-.58.128-.923.146s-.725.035-1.145.053c-.473.018-.865.133-1.175.346-.311.213-.55.521-.719.923-.168.402-.276.896-.324 1.482h.089c.231-.426.55-.74.958-.941s.846-.302 1.313-.302c.533 0 1.012.125 1.438.373.425.248.763.617 1.011 1.105s.373 1.089.373 1.805c0 .713-.128 1.328-.382 1.846-.251.517-.605.916-1.06 1.197-.453.278-.983.417-1.593.417-.609 0-1.143-.143-1.601-.43-.458-.29-.815-.719-1.069-1.286-.255-.571-.382-1.277-.382-2.117v-.727c0-1.517.258-2.668.772-3.451.518-.784 1.296-1.189 2.334-1.216.366-.012.693-.015.98-.009s.537-.007.75-.04c.213-.032.393-.11.541-.235zm-2.325 8.571c.411 0 .765-.104 1.061-.311.298-.207.527-.498.687-.874.16-.378.24-.823.24-1.335 0-.497-.082-.92-.244-1.269-.16-.349-.389-.615-.688-.798s-.656-.275-1.073-.275c-.305 0-.579.052-.821.155-.243.104-.45.256-.621.457-.172.201-.305.447-.399.736-.092.29-.141.621-.147.994 0 .763.179 1.374.537 1.832.358.459.847.688 1.468.688zm5.469-6.016v.976h-1.899v-.976zm.905 2.467h1.952c.798 0 1.409.203 1.832.608s.634.918.634 1.539c0 .408-.094.779-.284 1.113-.189.332-.467.596-.834.795-.366.195-.816.292-1.348.292h-2.857v-6.814h1.047v5.838h1.81c.414 0 .754-.109 1.02-.328s.399-.5.399-.843c0-.361-.133-.655-.399-.883-.266-.227-.606-.341-1.02-.341h-1.952zm8.878 4.489c-.657 0-1.223-.145-1.699-.434-.474-.293-.839-.701-1.096-1.225-.254-.526-.382-1.138-.382-1.836s.128-1.313.382-1.846c.257-.535.615-.952 1.073-1.251.462-.301 1-.452 1.615-.452.355 0 .705.059 1.051.177.346.119.661.311.945.577.284.263.511.612.679 1.047.169.435.253.97.253 1.606v.443h-5.252v-.905h4.187c0-.384-.077-.727-.23-1.029-.151-.301-.367-.54-.648-.714-.278-.175-.606-.262-.985-.262-.417 0-.778.104-1.082.311-.302.204-.534.47-.697.798-.162.329-.244.68-.244 1.056v.603c0 .515.089.951.266 1.309.181.355.431.625.75.812.32.183.691.275 1.114.275.275 0 .523-.039.745-.116.225-.079.418-.198.581-.354.163-.16.288-.358.377-.595l1.011.284c-.106.343-.285.645-.536.905-.252.257-.562.458-.932.603-.37.142-.785.213-1.246.213zm4.413-.142v-6.814h1.047v2.964h.692l2.449-2.964h1.349l-2.751 3.283 2.786 3.531h-1.348l-2.236-2.874h-.941v2.874zm6.32-5.838v-.976h5.536v.976h-2.236v5.838h-1.047v-5.838zm15.137 1.952v.976h-3.762v-.976zm-3.514-2.928v6.814h-1.047v-6.814zm4.312 0v6.814h-1.047v-6.814zm4.769 6.956c-.657 0-1.223-.145-1.699-.434-.473-.293-.838-.701-1.096-1.225-.254-.526-.381-1.138-.381-1.836s.127-1.313.381-1.846c.258-.535.615-.952 1.074-1.251.461-.301.999-.452 1.615-.452.354 0 .705.059 1.051.177.346.119.661.311.945.577.284.263.51.612.678 1.047.169.435.253.97.253 1.606v.443h-5.252v-.905h4.188c0-.384-.077-.727-.231-1.029-.151-.301-.367-.54-.648-.714-.278-.175-.606-.262-.984-.262-.417 0-.778.104-1.083.311-.302.204-.534.47-.696.798-.163.329-.244.68-.244 1.056v.603c0 .515.088.951.266 1.309.18.355.43.625.75.812.319.183.69.275 1.113.275.275 0 .523-.039.745-.116.225-.079.419-.198.581-.354.163-.16.289-.358.377-.595l1.012.284c-.107.343-.286.645-.537.905-.251.257-.562.458-.931.603-.37.142-.786.213-1.247.213zm3.686 1.81v-2.928h.568c.139-.145.259-.301.36-.47.1-.168.187-.368.261-.599.077-.233.142-.517.195-.851.054-.338.101-.744.142-1.22l.231-2.698h4.33v5.838h1.047v2.928h-1.047v-1.952h-5.04v1.952zm1.757-2.928h3.283v-4.862h-2.307l-.177 1.722c-.074.712-.166 1.335-.275 1.867-.11.533-.284.957-.524 1.273zm6.766.976v-6.814h2.786c.733 0 1.316.166 1.748.497.432.332.648.769.648 1.313 0 .414-.123.735-.369.963-.245.225-.56.377-.945.457.252.035.496.124.732.266.24.142.438.337.595.586.157.245.235.547.235.905 0 .349-.089.661-.266.936-.178.275-.432.492-.763.652-.331.159-.728.239-1.189.239zm.994-.958h2.218c.361 0 .643-.086.847-.257.204-.172.306-.405.306-.701 0-.352-.102-.629-.306-.83-.204-.204-.486-.306-.847-.306h-2.218zm0-2.999h1.792c.281 0 .522-.038.723-.115.201-.08.355-.192.461-.337.11-.148.165-.323.165-.524 0-.286-.12-.511-.36-.674-.239-.166-.569-.248-.989-.248h-1.792zm7.068 2.414 3.282-5.271h1.207v6.814h-1.047v-5.27l-3.265 5.27h-1.224v-6.814h1.047zm5.981 1.543 2.768-3.46-2.733-3.354h1.242l2.271 2.911h.568v-2.911h1.047v2.911h.55l2.272-2.911h1.242l-2.715 3.354 2.75 3.46h-1.26l-2.306-2.928h-.533v2.928h-1.047v-2.928h-.532l-2.325 2.928zm11.805-1.543 3.283-5.271h1.206v6.814h-1.046v-5.27l-3.265 5.27h-1.225v-6.814h1.047zm10.133.124 2.378-5.395h.994l-2.946 6.814h-.852l-2.892-6.814h.976zm-2.679-5.395v6.814h-1.047v-6.814zm5.359 6.814v-6.814h1.047v6.814zm5.731.142c-.615 0-1.155-.146-1.619-.439-.461-.293-.822-.702-1.082-1.229-.258-.526-.386-1.141-.386-1.845 0-.71.128-1.329.386-1.859.26-.529.621-.94 1.082-1.233.464-.293 1.004-.439 1.619-.439s1.153.146 1.615.439c.464.293.825.704 1.082 1.233.26.53.391 1.149.391 1.859 0 .704-.131 1.319-.391 1.845-.257.527-.618.936-1.082 1.229-.462.293-1 .439-1.615.439zm0-.94c.467 0 .852-.12 1.153-.36.302-.239.525-.554.67-.944.145-.391.218-.814.218-1.269 0-.456-.073-.88-.218-1.273-.145-.394-.368-.712-.67-.954-.301-.243-.686-.364-1.153-.364s-.852.121-1.153.364c-.302.242-.525.56-.67.954-.145.393-.218.817-.218 1.273 0 .455.073.878.218 1.269.145.39.368.705.67.944.301.24.686.36 1.153.36zm7.454.94c-.639 0-1.189-.151-1.65-.452-.462-.302-.817-.717-1.065-1.247-.249-.529-.373-1.134-.373-1.814 0-.692.127-1.303.382-1.832.257-.533.615-.948 1.073-1.247.462-.301 1-.452 1.615-.452.479 0 .911.088 1.295.266.385.177.7.426.945.745.246.32.398.692.457 1.118h-1.047c-.08-.31-.257-.585-.532-.825-.272-.243-.639-.364-1.1-.364-.408 0-.766.107-1.074.32-.304.21-.542.507-.714.891-.169.382-.253.83-.253 1.344 0 .527.083.985.249 1.376.168.39.405.693.709.909.308.216.669.324 1.083.324.272 0 .519-.048.741-.142.221-.095.409-.231.563-.408.154-.178.263-.391.328-.639h1.047c-.059.402-.205.764-.439 1.087-.231.319-.537.574-.918.763-.379.186-.819.279-1.322.279zm3.673-5.98v-.976h5.536v.976h-2.236v5.838h-1.047v-5.838zm8.11 4.295 3.283-5.271h1.206v6.814h-1.046v-5.27l-3.265 5.27h-1.225v-6.814h1.047z" fill="#858585"/><path d="m321.112 139.801v-1.301h9.085v1.301h-3.809v10.812h-1.467v-10.812zm12.597 11.025c-.576 0-1.099-.108-1.568-.325-.469-.221-.842-.538-1.118-.952-.276-.418-.414-.923-.414-1.515 0-.52.103-.942.308-1.265.205-.328.479-.584.822-.769.343-.186.722-.324 1.136-.414.418-.095.837-.17 1.259-.225.552-.071 1-.124 1.343-.16.347-.039.599-.104.757-.195.162-.091.243-.248.243-.473v-.047c0-.584-.16-1.037-.479-1.361-.316-.323-.795-.485-1.438-.485-.666 0-1.189.146-1.567.438-.379.292-.645.603-.799.934l-1.325-.473c.237-.552.552-.982.947-1.289.398-.312.832-.529 1.301-.651.473-.126.939-.189 1.396-.189.292 0 .627.035 1.005.106.383.067.752.207 1.107.42.358.213.656.535.893.964.236.43.355 1.006.355 1.728v5.985h-1.396v-1.23h-.071c-.095.197-.253.408-.474.633-.22.225-.514.416-.881.574-.367.157-.814.236-1.342.236zm.212-1.254c.553 0 1.018-.108 1.396-.325.383-.217.671-.497.864-.84.197-.343.296-.704.296-1.082v-1.278c-.059.071-.19.136-.391.195-.197.055-.426.105-.686.148-.256.04-.507.075-.751.107-.241.027-.436.051-.586.071-.362.047-.701.124-1.017.23-.311.103-.564.259-.757.468-.189.205-.284.485-.284.839 0 .485.179.852.538 1.101.363.244.822.366 1.378.366zm7.073 4.448c-.237 0-.447-.019-.633-.059-.185-.035-.313-.071-.384-.106l.355-1.231c.339.087.638.119.899.095.26-.024.491-.14.692-.349.205-.205.392-.538.562-1l.26-.709-3.36-9.133h1.514l2.508 7.24h.095l2.508-7.24h1.514l-3.856 10.41c-.174.469-.389.858-.645 1.165-.256.312-.554.543-.893.692-.335.15-.714.225-1.136.225zm14.453-8.588v1.301h-5.016v-1.301zm-4.685-3.904v9.085h-1.396v-9.085zm5.749 0v9.085h-1.395v-9.085zm3.591 0 2.176 3.715 2.177-3.715h1.609l-2.934 4.543 2.934 4.542h-1.609l-2.177-3.525-2.176 3.525h-1.609l2.886-4.542-2.886-4.543zm10.627 9.298c-.576 0-1.098-.108-1.567-.325-.47-.221-.842-.538-1.118-.952-.276-.418-.414-.923-.414-1.515 0-.52.102-.942.307-1.265.205-.328.479-.584.822-.769.344-.186.722-.324 1.136-.414.418-.095.838-.17 1.26-.225.552-.071 1-.124 1.343-.16.347-.039.599-.104.757-.195.161-.091.242-.248.242-.473v-.047c0-.584-.159-1.037-.479-1.361-.315-.323-.794-.485-1.437-.485-.667 0-1.189.146-1.568.438-.378.292-.644.603-.798.934l-1.325-.473c.237-.552.552-.982.946-1.289.399-.312.832-.529 1.302-.651.473-.126.938-.189 1.396-.189.291 0 .626.035 1.005.106.383.067.751.207 1.106.42.359.213.657.535.893.964.237.43.355 1.006.355 1.728v5.985h-1.396v-1.23h-.071c-.094.197-.252.408-.473.633s-.515.416-.881.574c-.367.157-.814.236-1.343.236zm.213-1.254c.552 0 1.017-.108 1.396-.325.382-.217.67-.497.863-.84.198-.343.296-.704.296-1.082v-1.278c-.059.071-.189.136-.39.195-.197.055-.426.105-.686.148-.257.04-.507.075-.751.107-.241.027-.436.051-.586.071-.363.047-.702.124-1.017.23-.312.103-.564.259-.757.468-.19.205-.284.485-.284.839 0 .485.179.852.538 1.101.363.244.822.366 1.378.366zm7.073 4.448c-.237 0-.448-.019-.633-.059-.186-.035-.314-.071-.385-.106l.355-1.231c.339.087.639.119.899.095s.491-.14.692-.349c.205-.205.393-.538.562-1l.26-.709-3.359-9.133h1.514l2.508 7.24h.095l2.507-7.24h1.515l-3.857 10.41c-.173.469-.388.858-.645 1.165-.256.312-.554.543-.893.692-.335.15-.713.225-1.135.225zm11.738-3.217c-.852 0-1.586-.202-2.201-.604s-1.088-.956-1.419-1.662c-.332-.706-.497-1.512-.497-2.419 0-.923.169-1.737.509-2.443.343-.709.82-1.264 1.431-1.662.615-.402 1.333-.603 2.153-.603.639 0 1.214.118 1.727.355.513.236.933.568 1.26.993.327.426.53.923.609 1.491h-1.396c-.106-.414-.343-.781-.71-1.1-.362-.323-.851-.485-1.466-.485-.545 0-1.022.142-1.432.426-.406.28-.723.676-.952 1.189-.225.508-.337 1.106-.337 1.792 0 .702.11 1.313.331 1.833.225.521.54.925.946 1.213.41.288.891.432 1.444.432.362 0 .692-.063.987-.19.296-.126.546-.307.751-.544.206-.236.351-.52.438-.852h1.396c-.079.537-.274 1.02-.586 1.45-.307.425-.715.765-1.224 1.017-.505.248-1.092.373-1.762.373z" fill="#32393e"/><path d="m533.194 140.859-3.123-3.123.764-.763 2.359 2.359 2.36-2.359.763.763zm-2.359-8.536-.764-.763 3.123-3.123 3.123 3.123-.763.763-2.36-2.36z" fill="#858585"/></g></g><g filter="url(#b)"><rect fill="#fff" height="291.48" rx="20.82" shape-rendering="crispEdges" width="246.717" x="306.663" y="171.23"/><path d="m314.991 192.08c0-6.916 5.606-12.522 12.522-12.522h205.017c6.916 0 12.522 5.606 12.522 12.522v12.432c0 6.916-5.606 12.522-12.522 12.522h-205.017c-6.916 0-12.522-5.606-12.522-12.522z" fill="#5593f7" fill-opacity=".05"/><path d="m328.216 194.256v-1.574h9.375v1.574h-3.779v10.54h-1.822v-10.54zm12.713 10.741c-.576 0-1.097-.106-1.562-.319-.465-.217-.834-.531-1.106-.941-.268-.41-.402-.913-.402-1.508 0-.513.098-.935.296-1.266.197-.331.463-.593.798-.787.335-.193.71-.339 1.124-.437.414-.099.836-.174 1.266-.225.544-.063.986-.114 1.325-.154.339-.043.585-.112.739-.207.154-.094.231-.248.231-.461v-.042c0-.516-.146-.916-.438-1.2-.288-.284-.718-.426-1.289-.426-.596 0-1.065.132-1.408.396-.339.26-.574.55-.704.87l-1.662-.379c.197-.552.485-.997.863-1.337.383-.343.823-.591 1.319-.745.497-.158 1.02-.236 1.568-.236.363 0 .747.043 1.153.13.41.082.793.236 1.148.461.359.225.652.546.881.964.229.414.343.952.343 1.615v6.033h-1.727v-1.242h-.071c-.114.229-.286.453-.515.674-.228.221-.522.404-.881.55s-.789.219-1.289.219zm.384-1.42c.489 0 .907-.096 1.254-.289.351-.194.617-.446.799-.757.185-.316.278-.653.278-1.012v-1.171c-.064.063-.186.122-.367.177-.178.052-.381.097-.609.137-.229.035-.452.069-.669.1-.217.028-.398.051-.544.071-.343.043-.656.116-.94.219-.28.102-.505.25-.675.443-.165.19-.248.442-.248.758 0 .437.162.769.485.993.323.221.735.331 1.236.331zm7.247 4.626c-.264 0-.505-.022-.721-.065-.217-.04-.379-.083-.485-.13l.425-1.449c.324.086.612.124.864.112s.475-.107.668-.284c.198-.177.371-.467.521-.869l.219-.604-3.324-9.203h1.892l2.301 7.05h.095l2.301-7.05h1.898l-3.744 10.297c-.173.474-.394.874-.662 1.201-.268.331-.588.58-.958.745-.371.166-.801.249-1.29.249zm14.474-8.713v1.532h-4.921v-1.532zm-4.425-3.779v9.085h-1.733v-9.085zm5.661 0v9.085h-1.727v-9.085zm3.762 0 2.005 3.537 2.023-3.537h1.934l-2.833 4.542 2.856 4.543h-1.934l-2.046-3.395-2.041 3.395h-1.94l2.827-4.543-2.791-4.542zm10.405 9.286c-.575 0-1.096-.106-1.561-.319-.466-.217-.834-.531-1.106-.941-.268-.41-.403-.913-.403-1.508 0-.513.099-.935.296-1.266s.464-.593.799-.787c.335-.193.709-.339 1.124-.437.414-.099.835-.174 1.265-.225.544-.063.986-.114 1.325-.154.339-.043.586-.112.74-.207.153-.094.23-.248.23-.461v-.042c0-.516-.146-.916-.437-1.2-.288-.284-.718-.426-1.29-.426-.595 0-1.065.132-1.408.396-.339.26-.573.55-.703.87l-1.663-.379c.198-.552.485-.997.864-1.337.383-.343.822-.591 1.319-.745.497-.158 1.019-.236 1.567-.236.363 0 .748.043 1.154.13.41.082.792.236 1.147.461.359.225.653.546.882.964.228.414.343.952.343 1.615v6.033h-1.727v-1.242h-.071c-.115.229-.286.453-.515.674s-.523.404-.881.55c-.359.146-.789.219-1.29.219zm.385-1.42c.489 0 .907-.096 1.254-.289.351-.194.617-.446.798-.757.185-.316.278-.653.278-1.012v-1.171c-.063.063-.185.122-.367.177-.177.052-.38.097-.609.137-.229.035-.451.069-.668.1-.217.028-.398.051-.544.071-.343.043-.657.116-.941.219-.28.102-.505.25-.674.443-.166.19-.249.442-.249.758 0 .437.162.769.486.993.323.221.735.331 1.236.331zm7.247 4.626c-.264 0-.505-.022-.722-.065-.217-.04-.378-.083-.485-.13l.426-1.449c.323.086.611.124.864.112.252-.012.475-.107.668-.284.197-.177.371-.467.52-.869l.219-.604-3.324-9.203h1.893l2.301 7.05h.094l2.301-7.05h1.899l-3.744 10.297c-.174.474-.394.874-.663 1.201-.268.331-.587.58-.958.745-.37.166-.8.249-1.289.249zm11.834-3.224c-.88 0-1.637-.199-2.272-.597-.63-.402-1.115-.956-1.455-1.662-.339-.706-.508-1.514-.508-2.425 0-.923.173-1.737.52-2.443.347-.71.836-1.264 1.467-1.662s1.374-.597 2.23-.597c.69 0 1.305.128 1.845.384.541.252.976.607 1.308 1.065.335.457.534.991.597 1.603h-1.721c-.095-.426-.312-.793-.651-1.101-.335-.307-.785-.461-1.348-.461-.493 0-.925.13-1.296.39-.366.257-.652.623-.857 1.101-.205.473-.308 1.033-.308 1.679 0 .663.101 1.235.302 1.716s.485.853.851 1.118c.371.264.807.396 1.308.396.335 0 .638-.061.91-.184.276-.126.507-.305.692-.538.19-.232.322-.512.397-.84h1.721c-.063.588-.254 1.112-.574 1.574-.319.461-.747.824-1.283 1.088-.533.264-1.158.396-1.875.396z" fill="#32393e"/><path d="m522.742 202.118-3.873-3.631.968-.908 2.905 2.724 6.234-5.845.968.908z" fill="#4d565c"/><g fill="#32393e"><path d="m327.897 247.282v-4.478h.798c.273-.228.527-.554.763-.976.237-.422.438-.991.604-1.709.165-.718.28-1.638.343-2.762l.284-5.117h7.47v10.564h1.372v4.46h-1.75v-2.91h-8.133v2.928zm2.951-4.478h5.56v-8.99h-4.063l-.189 3.543c-.052.855-.136 1.624-.255 2.307-.114.682-.262 1.285-.443 1.809-.178.521-.381.965-.61 1.331zm14.37 1.733c-.851 0-1.595-.195-2.23-.585-.634-.391-1.127-.937-1.478-1.639s-.527-1.522-.527-2.46c0-.943.176-1.767.527-2.473.351-.705.844-1.254 1.478-1.644.635-.39 1.379-.585 2.23-.585.852 0 1.595.195 2.23.585s1.128.939 1.479 1.644c.351.706.526 1.53.526 2.473 0 .938-.175 1.758-.526 2.46s-.844 1.248-1.479 1.639c-.635.39-1.378.585-2.23.585zm.006-1.484c.552 0 1.01-.146 1.373-.438.362-.292.63-.68.804-1.165.177-.485.266-1.02.266-1.603 0-.58-.089-1.112-.266-1.597-.174-.489-.442-.881-.804-1.177-.363-.296-.821-.444-1.373-.444-.556 0-1.017.148-1.384.444-.363.296-.633.688-.81 1.177-.174.485-.26 1.017-.26 1.597 0 .583.086 1.118.26 1.603.177.485.447.873.81 1.165.367.292.828.438 1.384.438zm11.302-.888 2.934-6.896h1.526l-3.804 9.085h-1.313l-3.726-9.085h1.508zm-3.366-6.896v9.085h-1.733v-9.085zm6.779 9.085v-9.085h1.721v9.085z"/><path d="m332.83 284.078c-.781 0-1.477-.134-2.088-.403-.607-.268-1.09-.64-1.449-1.118-.355-.481-.548-1.039-.58-1.673h1.491c.031.39.165.727.402 1.011.237.28.546.497.929.651.382.153.806.23 1.271.23.521 0 .982-.09 1.384-.272.402-.181.718-.433.947-.757.228-.323.343-.698.343-1.124 0-.445-.111-.838-.332-1.177-.22-.343-.544-.611-.97-.804-.425-.193-.946-.29-1.561-.29h-.97v-1.301h.97c.481 0 .903-.087 1.266-.26.366-.174.652-.418.857-.734.209-.315.314-.686.314-1.112 0-.41-.091-.767-.272-1.07-.182-.304-.438-.541-.769-.71-.327-.17-.714-.255-1.159-.255-.418 0-.813.077-1.183.231-.367.15-.667.369-.899.657-.233.284-.359.627-.379 1.029h-1.42c.024-.635.215-1.191.574-1.668.359-.481.828-.856 1.408-1.124.583-.268 1.224-.402 1.922-.402.749 0 1.392.152 1.928.455.537.3.949.696 1.237 1.189.287.493.431 1.025.431 1.597 0 .682-.179 1.264-.538 1.745-.355.481-.838.814-1.449 1v.094c.765.126 1.362.452 1.792.976.43.521.645 1.165.645 1.934 0 .659-.18 1.25-.538 1.775-.355.52-.84.93-1.455 1.23-.616.3-1.315.45-2.1.45zm10.345.023c-.876 0-1.631-.193-2.266-.579-.63-.391-1.117-.935-1.46-1.633-.34-.702-.509-1.518-.509-2.449 0-.93.169-1.75.509-2.46.343-.714.82-1.27 1.431-1.668.615-.402 1.333-.603 2.153-.603.473 0 .94.078 1.402.236.461.158.881.414 1.26.769.378.351.68.816.904 1.396.225.58.338 1.293.338 2.141v.592h-7.003v-1.207h5.583c0-.513-.102-.97-.308-1.372-.201-.402-.488-.72-.863-.953-.371-.232-.808-.348-1.313-.348-.556 0-1.037.138-1.443.414-.403.272-.712.627-.929 1.064-.217.438-.325.907-.325 1.408v.804c0 .686.118 1.268.355 1.745.24.473.573.834.999 1.083.426.244.921.366 1.485.366.367 0 .698-.051.993-.153.3-.107.558-.265.775-.474.217-.213.385-.477.503-.792l1.349.378c-.142.458-.381.86-.716 1.207-.335.343-.749.611-1.242.804-.493.19-1.047.284-1.662.284zm10.853-2.082 3.171-7.192h1.325l-3.928 9.085h-1.135l-3.857-9.085h1.301zm-3.572-7.192v9.085h-1.396v-9.085zm7.145 9.085v-9.085h1.396v9.085zm7.76.189c-.875 0-1.63-.193-2.265-.579-.631-.391-1.118-.935-1.461-1.633-.339-.702-.509-1.518-.509-2.449 0-.93.17-1.75.509-2.46.343-.714.82-1.27 1.431-1.668.615-.402 1.333-.603 2.153-.603.473 0 .941.078 1.402.236s.881.414 1.26.769c.378.351.68.816.905 1.396s.337 1.293.337 2.141v.592h-7.003v-1.207h5.583c0-.513-.102-.97-.307-1.372-.201-.402-.489-.72-.864-.953-.37-.232-.808-.348-1.313-.348-.556 0-1.037.138-1.443.414-.402.272-.712.627-.929 1.064-.217.438-.325.907-.325 1.408v.804c0 .686.118 1.268.355 1.745.24.473.574.834 1 1.083.425.244.92.366 1.484.366.367 0 .698-.051.994-.153.3-.107.558-.265.775-.474.217-.213.384-.477.502-.792l1.349.378c-.142.458-.381.86-.716 1.207-.335.343-.749.611-1.242.804-.493.19-1.047.284-1.662.284zm5.081-.189v-1.301h.331c.272 0 .499-.054.68-.16.182-.11.328-.302.438-.574.114-.276.201-.658.26-1.147.063-.493.109-1.12.136-1.881l.166-4.022h6.057v9.085h-1.396v-7.784h-3.336l-.142 3.241c-.032.746-.099 1.402-.201 1.97-.099.564-.251 1.037-.456 1.42-.201.382-.469.67-.804.863s-.755.29-1.26.29zm11.835-5.797h2.603c1.065 0 1.879.271 2.443.811s.846 1.224.846 2.052c0 .544-.127 1.039-.379 1.485-.252.441-.623.794-1.112 1.059-.489.26-1.088.39-1.798.39h-3.809v-9.085h1.396v7.784h2.413c.552 0 1.005-.146 1.36-.438s.533-.666.533-1.124c0-.481-.178-.873-.533-1.177-.355-.303-.808-.455-1.36-.455h-2.603zm14.097.616v1.301h-5.016v-1.301zm-4.685-3.904v9.085h-1.396v-9.085zm5.749 0v9.085h-1.395v-9.085zm3.756 3.288h2.603c1.064 0 1.879.271 2.443.811s.845 1.224.845 2.052c0 .544-.126 1.039-.378 1.485-.252.441-.623.794-1.112 1.059-.489.26-1.088.39-1.798.39h-3.809v-9.085h1.396v7.784h2.413c.552 0 1.005-.146 1.36-.438s.533-.666.533-1.124c0-.481-.178-.873-.533-1.177-.355-.303-.808-.455-1.36-.455h-2.603zm7.335 5.797v-9.085h1.396v9.085zm5.347-2.058 4.377-7.027h1.608v9.085h-1.396v-7.027l-4.353 7.027h-1.632v-9.085h1.396zm3.454-10.055h1.301c0 .638-.221 1.161-.662 1.567-.442.406-1.041.609-1.798.609-.746 0-1.339-.203-1.781-.609-.437-.406-.656-.929-.656-1.567h1.301c0 .307.085.577.254.81.174.232.468.349.882.349s.709-.117.887-.349c.181-.233.272-.503.272-.81zm10.672 15.52c-.237 0-.448-.02-.633-.059-.186-.036-.314-.071-.385-.107l.355-1.23c.339.087.639.118.899.095.26-.024.491-.14.692-.349.205-.205.393-.539.562-1l.26-.71-3.359-9.132h1.514l2.508 7.24h.094l2.508-7.24h1.514l-3.856 10.41c-.173.469-.388.858-.645 1.165-.256.312-.554.542-.893.692-.335.15-.714.225-1.135.225zm15.099-12.492v9.085h-1.396v-9.085zm-.545 4.329v1.302c-.315.118-.629.223-.94.313-.312.087-.639.156-.982.207-.343.048-.72.071-1.13.071-1.029 0-1.855-.278-2.478-.834-.619-.556-.929-1.39-.929-2.502v-2.91h1.396v2.91c0 .466.089.848.266 1.148.178.299.418.522.722.668s.645.219 1.023.219c.592 0 1.126-.053 1.603-.16.481-.11.964-.254 1.449-.432zm5.779 4.969c-.576 0-1.098-.109-1.567-.325-.47-.221-.842-.539-1.118-.953-.276-.418-.414-.922-.414-1.514 0-.52.102-.942.307-1.266.205-.327.479-.583.822-.769.344-.185.722-.323 1.136-.414.418-.094.838-.169 1.26-.224.552-.071 1-.125 1.343-.16.347-.039.599-.105.757-.195.161-.091.242-.249.242-.473v-.048c0-.583-.159-1.037-.479-1.36-.315-.323-.794-.485-1.437-.485-.667 0-1.189.146-1.568.438-.378.291-.644.603-.798.934l-1.325-.473c.237-.552.552-.982.946-1.29.399-.311.832-.528 1.302-.65.473-.126.938-.189 1.396-.189.291 0 .626.035 1.005.106.383.067.751.207 1.106.42.359.213.657.534.893.964.237.43.355 1.006.355 1.727v5.986h-1.396v-1.23h-.071c-.094.197-.252.408-.473.633-.221.224-.515.416-.881.573-.367.158-.815.237-1.343.237zm.213-1.254c.552 0 1.017-.108 1.396-.325.382-.217.67-.497.863-.84.198-.343.296-.704.296-1.083v-1.277c-.059.071-.189.136-.39.195-.197.055-.426.104-.686.148-.257.039-.507.075-.751.106-.241.028-.436.052-.586.071-.363.048-.702.124-1.017.231-.312.102-.564.258-.757.467-.19.205-.284.485-.284.84 0 .485.179.852.538 1.1.363.245.822.367 1.378.367zm10.19 1.23c-.852 0-1.585-.201-2.201-.603-.615-.402-1.088-.956-1.419-1.662s-.497-1.512-.497-2.419c0-.923.17-1.737.509-2.443.343-.71.82-1.264 1.431-1.662.615-.402 1.333-.603 2.153-.603.639 0 1.215.118 1.727.354.513.237.933.568 1.26.994s.53.923.609 1.491h-1.396c-.106-.414-.343-.781-.709-1.1-.363-.324-.852-.485-1.467-.485-.544 0-1.022.141-1.432.425-.406.28-.723.677-.952 1.189-.225.509-.337 1.106-.337 1.792 0 .702.11 1.314.331 1.834.225.521.54.925.947 1.213.41.287.891.431 1.443.431.362 0 .692-.063.987-.189.296-.126.547-.308.752-.544.205-.237.351-.521.437-.852h1.396c-.079.536-.274 1.019-.585 1.449-.308.426-.716.765-1.225 1.018-.504.248-1.092.372-1.762.372zm4.897-7.973v-1.301h7.382v1.301h-2.981v7.784h-1.396v-7.784zm12.637 7.973c-.82 0-1.54-.195-2.159-.585-.615-.391-1.096-.937-1.443-1.639-.343-.702-.515-1.522-.515-2.46 0-.947.172-1.773.515-2.479.347-.705.828-1.253 1.443-1.644.619-.39 1.339-.585 2.159-.585s1.538.195 2.153.585c.619.391 1.1.939 1.443 1.644.347.706.521 1.532.521 2.479 0 .938-.174 1.758-.521 2.46-.343.702-.824 1.248-1.443 1.639-.615.39-1.333.585-2.153.585zm0-1.254c.623 0 1.136-.159 1.538-.479.402-.319.7-.739.893-1.26.193-.52.29-1.084.29-1.691 0-.608-.097-1.173-.29-1.698-.193-.524-.491-.948-.893-1.271-.402-.324-.915-.485-1.538-.485s-1.136.161-1.538.485c-.402.323-.7.747-.893 1.271-.193.525-.29 1.09-.29 1.698 0 .607.097 1.171.29 1.691.193.521.491.941.893 1.26.402.32.915.479 1.538.479zm6.248 1.065v-9.085h1.395v3.951h.923l3.265-3.951h1.798l-3.667 4.377 3.715 4.708h-1.799l-2.981-3.833h-1.254v3.833z" opacity=".2"/><path d="m328.95 311.357h1.751l4.116 10.055h.142l4.117-10.055h1.751v12.113h-1.372v-9.203h-.119l-3.785 9.203h-1.325l-3.785-9.203h-.119v9.203h-1.372zm17.302 12.326c-.575 0-1.098-.109-1.567-.325-.469-.221-.842-.539-1.118-.953-.276-.418-.414-.922-.414-1.514 0-.52.102-.942.307-1.266.205-.327.48-.583.823-.769.343-.185.721-.323 1.135-.414.418-.094.838-.169 1.26-.224.552-.071 1-.125 1.343-.16.347-.039.599-.105.757-.195.161-.091.242-.249.242-.473v-.048c0-.583-.159-1.037-.479-1.36-.315-.323-.794-.485-1.437-.485-.666 0-1.189.146-1.567.438-.379.291-.645.603-.799.934l-1.325-.473c.237-.552.552-.982.946-1.289.399-.312.833-.529 1.302-.651.473-.126.938-.189 1.396-.189.291 0 .627.035 1.005.106.383.067.751.207 1.106.42.359.213.657.534.893.964.237.43.355 1.006.355 1.727v5.986h-1.396v-1.23h-.071c-.094.197-.252.408-.473.633-.221.224-.514.416-.881.573-.367.158-.814.237-1.343.237zm.213-1.254c.552 0 1.017-.108 1.396-.325.383-.217.67-.497.864-.84.197-.343.295-.704.295-1.083v-1.277c-.059.071-.189.136-.39.195-.197.055-.426.104-.686.148-.256.039-.507.075-.751.106-.241.028-.436.052-.586.071-.363.048-.702.125-1.017.231-.312.102-.564.258-.757.467-.19.205-.284.485-.284.84 0 .485.179.852.538 1.1.363.245.822.367 1.378.367zm6.499-8.044h1.396v7.784h3.43v-7.784h1.396v7.784h3.431v-7.784h1.396v9.085h-11.049zm14.994 7.027 4.377-7.027h1.609v9.085h-1.396v-7.027l-4.353 7.027h-1.633v-9.085h1.396zm14.623-3.123v1.301h-5.016v-1.301zm-4.685-3.904v9.085h-1.396v-9.085zm5.749 0v9.085h-1.395v-9.085zm6.241 9.274c-.821 0-1.54-.195-2.159-.585-.616-.391-1.097-.937-1.444-1.639-.343-.702-.514-1.522-.514-2.46 0-.947.171-1.773.514-2.479.347-.705.828-1.253 1.444-1.644.619-.39 1.338-.585 2.159-.585.82 0 1.537.195 2.153.585.619.391 1.1.939 1.443 1.644.347.706.52 1.532.52 2.479 0 .938-.173 1.758-.52 2.46-.343.702-.824 1.248-1.443 1.639-.616.39-1.333.585-2.153.585zm0-1.254c.623 0 1.135-.159 1.537-.479.403-.319.7-.739.893-1.26.194-.52.29-1.084.29-1.691s-.096-1.173-.29-1.698c-.193-.524-.49-.948-.893-1.271-.402-.324-.914-.485-1.537-.485-.624 0-1.136.161-1.538.485-.403.323-.7.747-.893 1.271-.194.525-.29 1.091-.29 1.698s.096 1.171.29 1.691c.193.521.49.941.893 1.26.402.32.914.479 1.538.479zm11.215-.828 3.171-7.192h1.325l-3.928 9.085h-1.135l-3.857-9.085h1.301zm-3.572-7.192v9.085h-1.396v-9.085zm7.145 9.085v-9.085h1.396v9.085zm7.76.189c-.875 0-1.63-.193-2.265-.579-.631-.391-1.118-.935-1.461-1.633-.339-.702-.509-1.518-.509-2.449 0-.93.17-1.75.509-2.46.343-.714.82-1.27 1.431-1.668.615-.402 1.333-.603 2.153-.603.473 0 .941.078 1.402.236s.881.414 1.26.769c.378.351.68.816.905 1.396s.337 1.293.337 2.141v.592h-7.003v-1.207h5.583c0-.513-.102-.97-.307-1.372-.201-.402-.489-.72-.864-.952-.37-.233-.808-.349-1.313-.349-.556 0-1.037.138-1.443.414-.402.272-.712.627-.929 1.064-.217.438-.325.907-.325 1.408v.804c0 .686.118 1.268.355 1.745.24.473.574.834 1 1.083.425.244.92.366 1.484.366.367 0 .698-.051.994-.153.299-.107.558-.265.775-.474.217-.213.384-.477.502-.792l1.349.378c-.142.458-.381.86-.716 1.207-.335.343-.749.611-1.242.804-.493.19-1.047.284-1.662.284zm9.576 0c-.852 0-1.585-.201-2.2-.603s-1.088-.956-1.42-1.662c-.331-.706-.497-1.512-.497-2.419 0-.923.17-1.737.509-2.443.343-.71.82-1.264 1.432-1.662.615-.402 1.332-.603 2.152-.603.639 0 1.215.118 1.728.354.512.237.932.568 1.259.994.328.426.531.923.61 1.491h-1.396c-.107-.414-.343-.781-.71-1.1-.363-.324-.852-.485-1.467-.485-.544 0-1.021.141-1.431.425-.406.28-.724.677-.953 1.189-.224.509-.337 1.106-.337 1.792 0 .702.111 1.314.332 1.834.224.521.54.925.946 1.213.41.287.891.431 1.443.431.363 0 .692-.063.988-.189s.546-.308.751-.544c.205-.237.351-.521.438-.852h1.396c-.079.536-.274 1.019-.586 1.449-.307.426-.716.765-1.224 1.018-.505.248-1.093.372-1.763.372zm4.898-7.973v-1.301h7.381v1.301h-2.981v7.784h-1.396v-7.784zm12.637 7.973c-.821 0-1.54-.195-2.159-.585-.616-.391-1.097-.937-1.444-1.639-.343-.702-.514-1.522-.514-2.46 0-.947.171-1.773.514-2.479.347-.705.828-1.253 1.444-1.644.619-.39 1.338-.585 2.159-.585.82 0 1.537.195 2.152.585.62.391 1.101.939 1.444 1.644.347.706.52 1.532.52 2.479 0 .938-.173 1.758-.52 2.46-.343.702-.824 1.248-1.444 1.639-.615.39-1.332.585-2.152.585zm0-1.254c.623 0 1.135-.159 1.537-.479.403-.319.7-.739.893-1.26.194-.52.29-1.084.29-1.691s-.096-1.173-.29-1.698c-.193-.524-.49-.948-.893-1.271-.402-.324-.914-.485-1.537-.485-.624 0-1.136.161-1.538.485-.403.323-.7.747-.893 1.271-.194.525-.29 1.091-.29 1.698s.096 1.171.29 1.691c.193.521.49.941.893 1.26.402.32.914.479 1.538.479z" opacity=".2"/><path d="m336.071 363.028-4.164-5.56h-1.49v5.56h-1.467v-12.113h1.467v5.252h.639l4.85-5.252h1.751l-4.898 5.323 5.063 6.79zm6.482.189c-.821 0-1.54-.195-2.159-.585-.616-.391-1.097-.937-1.444-1.639-.343-.702-.514-1.522-.514-2.46 0-.947.171-1.773.514-2.479.347-.705.828-1.253 1.444-1.644.619-.39 1.338-.585 2.159-.585.82 0 1.537.195 2.153.585.619.391 1.1.939 1.443 1.644.347.706.52 1.532.52 2.479 0 .938-.173 1.758-.52 2.46-.343.702-.824 1.248-1.443 1.639-.616.39-1.333.585-2.153.585zm0-1.254c.623 0 1.135-.159 1.537-.479.403-.319.7-.739.893-1.26.194-.52.29-1.084.29-1.691s-.096-1.173-.29-1.698c-.193-.524-.49-.948-.893-1.271-.402-.324-.914-.485-1.537-.485s-1.136.161-1.538.485c-.403.323-.7.747-.893 1.271-.194.525-.29 1.091-.29 1.698s.096 1.171.29 1.691c.193.521.49.941.893 1.26.402.32.915.479 1.538.479zm11.215-.828 3.171-7.192h1.325l-3.928 9.085h-1.135l-3.857-9.085h1.301zm-3.572-7.192v9.085h-1.396v-9.085zm7.145 9.085v-9.085h1.396v9.085zm10.031-5.181v1.301h-5.015v-1.301zm-4.684-3.904v9.085h-1.396v-9.085zm5.749 0v9.085h-1.396v-9.085zm5.223 9.298c-.576 0-1.098-.108-1.568-.325-.469-.221-.841-.539-1.117-.953-.277-.418-.415-.922-.415-1.514 0-.52.103-.942.308-1.266.205-.327.479-.583.822-.769.343-.185.722-.323 1.136-.414.418-.094.838-.169 1.26-.224.552-.071.999-.125 1.342-.16.347-.039.6-.104.757-.195.162-.091.243-.249.243-.473v-.048c0-.583-.16-1.037-.479-1.36-.316-.323-.795-.485-1.437-.485-.667 0-1.189.146-1.568.438-.378.291-.645.603-.798.934l-1.325-.473c.236-.552.552-.982.946-1.289.398-.312.832-.529 1.301-.651.474-.126.939-.189 1.396-.189.292 0 .627.035 1.006.106.382.067.751.207 1.106.42.359.213.656.534.893.964s.355 1.006.355 1.727v5.986h-1.396v-1.23h-.071c-.095.197-.252.408-.473.633-.221.224-.515.416-.882.573-.366.158-.814.237-1.342.237zm.213-1.254c.552 0 1.017-.108 1.396-.325.382-.217.67-.497.863-.84.197-.343.296-.704.296-1.083v-1.277c-.059.071-.189.136-.39.195-.198.055-.426.104-.687.148-.256.039-.506.075-.751.106-.24.028-.435.052-.585.071-.363.048-.702.125-1.018.231-.311.103-.564.258-.757.467-.189.205-.284.485-.284.84 0 .485.18.852.539 1.1.362.245.822.367 1.378.367zm5.262-6.743v-1.301h7.382v1.301h-2.981v7.784h-1.396v-7.784zm11.62 7.997c-.576 0-1.098-.108-1.567-.325-.47-.221-.842-.539-1.118-.953-.276-.418-.414-.922-.414-1.514 0-.52.102-.942.307-1.266.205-.327.479-.583.822-.769.343-.185.722-.323 1.136-.414.418-.094.838-.169 1.26-.224.552-.071.999-.125 1.343-.16.347-.039.599-.104.757-.195.161-.091.242-.249.242-.473v-.048c0-.583-.16-1.037-.479-1.36-.315-.323-.795-.485-1.437-.485-.667 0-1.189.146-1.568.438-.378.291-.644.603-.798.934l-1.325-.473c.236-.552.552-.982.946-1.289.399-.312.832-.529 1.302-.651.473-.126.938-.189 1.395-.189.292 0 .627.035 1.006.106.382.067.751.207 1.106.42.359.213.657.534.893.964.237.43.355 1.006.355 1.727v5.986h-1.396v-1.23h-.071c-.095.197-.252.408-.473.633-.221.224-.515.416-.881.573-.367.158-.815.237-1.343.237zm.213-1.254c.552 0 1.017-.108 1.396-.325.382-.217.67-.497.863-.84.198-.343.296-.704.296-1.083v-1.277c-.059.071-.189.136-.39.195-.197.055-.426.104-.686.148-.257.039-.507.075-.752.106-.24.028-.435.052-.585.071-.363.048-.702.125-1.017.231-.312.103-.564.258-.758.467-.189.205-.283.485-.283.84 0 .485.179.852.538 1.1.363.245.822.367 1.378.367z" opacity=".2"/><path d="m336.071 402.586-4.164-5.56h-1.49v5.56h-1.467v-12.113h1.467v5.252h.639l4.85-5.252h1.751l-4.898 5.323 5.063 6.79zm2.653 0v-1.301h.331c.272 0 .499-.053.681-.16.181-.11.327-.302.437-.574.115-.276.201-.658.261-1.147.063-.493.108-1.12.136-1.881l.165-4.022h6.057v9.085h-1.396v-7.784h-3.336l-.142 3.241c-.031.746-.098 1.402-.201 1.97-.099.564-.25 1.037-.455 1.42-.201.382-.47.67-.805.863s-.755.29-1.26.29zm13.303.213c-.576 0-1.099-.108-1.568-.325-.469-.221-.842-.539-1.118-.953-.276-.418-.414-.922-.414-1.514 0-.52.103-.942.308-1.266.205-.327.479-.583.822-.768.343-.186.721-.324 1.136-.415.418-.094.837-.169 1.259-.224.552-.071 1-.124 1.343-.16.347-.039.599-.104.757-.195.162-.091.243-.249.243-.473v-.048c0-.583-.16-1.037-.479-1.36-.316-.323-.795-.485-1.438-.485-.666 0-1.189.146-1.567.438-.379.291-.645.603-.799.934l-1.325-.473c.237-.552.552-.982.947-1.289.398-.312.832-.529 1.301-.651.473-.126.939-.189 1.396-.189.292 0 .627.035 1.005.106.383.067.752.207 1.107.42.358.213.656.534.893.964.236.43.355 1.006.355 1.727v5.986h-1.396v-1.23h-.071c-.095.197-.253.408-.474.633-.22.224-.514.416-.881.573-.367.158-.814.237-1.342.237zm.212-1.254c.552 0 1.018-.108 1.396-.325.383-.217.671-.497.864-.84.197-.343.296-.704.296-1.083v-1.277c-.06.071-.19.136-.391.195-.197.055-.426.105-.686.148-.256.039-.507.075-.751.106-.241.028-.436.052-.586.071-.362.048-.701.125-1.017.231-.311.103-.564.258-.757.467-.189.205-.284.485-.284.84 0 .485.179.852.538 1.1.363.245.822.367 1.378.367zm5.529 3.644v-3.904h.757c.186-.193.345-.402.479-.627.135-.225.251-.491.349-.799.103-.311.19-.69.261-1.135.071-.45.134-.992.189-1.627l.308-3.596h5.772v7.784h1.396v3.904h-1.396v-2.603h-6.719v2.603zm2.343-3.904h4.376v-6.483h-3.075l-.237 2.295c-.098.95-.221 1.78-.367 2.49-.145.71-.378 1.276-.697 1.698zm12.712 1.49c-.82 0-1.54-.195-2.159-.585-.615-.391-1.096-.937-1.443-1.639-.343-.702-.515-1.522-.515-2.46 0-.947.172-1.773.515-2.478.347-.706.828-1.254 1.443-1.645.619-.39 1.339-.585 2.159-.585s1.538.195 2.153.585c.619.391 1.1.939 1.443 1.645.347.705.521 1.531.521 2.478 0 .938-.174 1.758-.521 2.46-.343.702-.824 1.248-1.443 1.639-.615.39-1.333.585-2.153.585zm0-1.254c.623 0 1.136-.159 1.538-.479.402-.319.7-.739.893-1.26.193-.52.29-1.084.29-1.691s-.097-1.173-.29-1.698c-.193-.524-.491-.948-.893-1.271-.402-.324-.915-.485-1.538-.485s-1.136.161-1.538.485c-.402.323-.7.747-.893 1.271-.193.525-.29 1.091-.29 1.698s.097 1.171.29 1.691c.193.521.491.941.893 1.26.402.32.915.479 1.538.479zm6.247 1.065v-9.085h3.715c.978 0 1.755.221 2.33.662.576.442.864 1.026.864 1.751 0 .552-.164.98-.491 1.284-.327.299-.747.502-1.26.609.335.047.661.166.976.355.319.189.584.449.793.781.209.327.313.729.313 1.206 0 .465-.118.881-.355 1.248-.236.367-.576.657-1.017.87-.442.213-.97.319-1.585.319zm1.325-1.278h2.958c.481 0 .857-.114 1.129-.343.272-.228.408-.54.408-.934 0-.469-.136-.838-.408-1.106-.272-.272-.648-.408-1.129-.408h-2.958zm0-3.998h2.39c.374 0 .696-.051.964-.154.268-.106.473-.256.615-.449.146-.197.219-.43.219-.698 0-.383-.16-.682-.479-.899-.32-.221-.759-.331-1.319-.331h-2.39zm8.028 5.276v-9.085h1.396v3.951h.923l3.265-3.951h1.798l-3.667 4.377 3.714 4.708h-1.798l-2.981-3.833h-1.254v3.833zm11.62.213c-.576 0-1.099-.108-1.568-.325-.469-.221-.842-.539-1.118-.953-.276-.418-.414-.922-.414-1.514 0-.52.103-.942.308-1.266.205-.327.479-.583.822-.768.343-.186.722-.324 1.136-.415.418-.094.838-.169 1.26-.224.552-.071.999-.124 1.342-.16.347-.039.6-.104.757-.195.162-.091.243-.249.243-.473v-.048c0-.583-.16-1.037-.479-1.36-.316-.323-.795-.485-1.438-.485-.666 0-1.188.146-1.567.438-.379.291-.645.603-.799.934l-1.324-.473c.236-.552.552-.982.946-1.289.398-.312.832-.529 1.301-.651.473-.126.939-.189 1.396-.189.292 0 .627.035 1.006.106.382.067.751.207 1.106.42.358.213.656.534.893.964.236.43.355 1.006.355 1.727v5.986h-1.396v-1.23h-.071c-.095.197-.253.408-.473.633-.221.224-.515.416-.882.573-.366.158-.814.237-1.342.237zm.213-1.254c.552 0 1.017-.108 1.395-.325.383-.217.671-.497.864-.84.197-.343.296-.704.296-1.083v-1.277c-.059.071-.189.136-.391.195-.197.055-.425.105-.686.148-.256.039-.506.075-.751.106-.24.028-.436.052-.585.071-.363.048-.702.125-1.018.231-.311.103-.564.258-.757.467-.189.205-.284.485-.284.84 0 .485.18.852.538 1.1.363.245.823.367 1.379.367z" opacity=".4"/></g><g clip-path="url(#g)"><g filter="url(#c)"><path d="m475.199 217.156c-.292-.375-.656-1.135-1.291-2.082-.364-.521-1.26-1.509-1.53-2.02-.195-.31-.252-.687-.157-1.041.164-.672.802-1.118 1.489-1.041.532.107 1.021.368 1.405.75.269.253.516.528.74.822.166.209.208.292.395.531.188.24.312.479.219.125-.073-.52-.198-1.395-.375-2.176-.135-.593-.167-.687-.291-1.134-.125-.448-.198-.823-.334-1.333-.123-.501-.221-1.008-.291-1.52-.131-.654-.036-1.333.271-1.925.363-.343.897-.433 1.353-.229.459.338.801.811.978 1.353.273.667.455 1.367.542 2.082.166 1.041.489 2.561.499 2.873 0-.385-.072-1.197 0-1.561.073-.38.337-.696.698-.833.31-.095.638-.117.958-.063.322.068.608.253.801.521.241.607.375 1.252.396 1.905.028-.572.126-1.138.291-1.687.174-.245.428-.421.719-.499.344-.063.696-.063 1.041 0 .282.094.529.272.707.51.221.552.354 1.135.396 1.728 0 .146.073-.406.302-.77.119-.354.417-.617.783-.69.365-.074.742.053.989.333.246.279.325.669.206 1.023v1.103 1.249c-.038.61-.122 1.215-.25 1.812-.181.528-.433 1.028-.75 1.488-.505.562-.923 1.198-1.238 1.885-.079.341-.114.691-.104 1.041-.002.323.04.645.124.957-.425.045-.854.045-1.28 0-.406-.062-.906-.874-1.041-1.124-.067-.134-.204-.219-.354-.219s-.287.085-.354.219c-.229.396-.739 1.114-1.093 1.156-.697.083-2.134 0-3.269 0 0 0 .188-1.041-.239-1.416s-.864-.812-1.187-1.104z" fill="#fff"/><path d="m475.199 217.156c-.292-.375-.656-1.135-1.291-2.082-.364-.521-1.26-1.509-1.53-2.02-.195-.31-.252-.687-.157-1.041.164-.672.802-1.118 1.489-1.041.532.107 1.021.368 1.405.75.269.253.516.528.74.822.166.209.208.292.395.531.188.24.312.479.219.125-.073-.52-.198-1.395-.375-2.176-.135-.593-.167-.687-.291-1.134-.125-.448-.198-.823-.334-1.333-.123-.501-.221-1.008-.291-1.52-.131-.654-.036-1.333.271-1.925.363-.343.897-.433 1.353-.229.459.338.801.811.978 1.353.273.667.455 1.367.542 2.082.166 1.041.489 2.561.499 2.873 0-.385-.072-1.197 0-1.561.073-.38.337-.696.698-.833.31-.095.638-.117.958-.063.322.068.608.253.801.521.241.607.375 1.252.396 1.905.028-.572.126-1.138.291-1.687.174-.245.428-.421.719-.499.344-.063.696-.063 1.041 0 .282.094.529.272.707.51.221.552.354 1.135.396 1.728 0 .146.073-.406.302-.77.119-.354.417-.617.783-.69.365-.074.742.053.989.333.246.279.325.669.206 1.023v1.103 1.249c-.038.61-.122 1.215-.25 1.812-.181.528-.433 1.028-.75 1.488-.505.562-.923 1.198-1.238 1.885-.079.341-.114.691-.104 1.041-.002.323.04.645.124.957-.425.045-.854.045-1.28 0-.406-.062-.906-.874-1.041-1.124-.067-.134-.204-.219-.354-.219s-.287.085-.354.219c-.229.396-.739 1.114-1.093 1.156-.697.083-2.134 0-3.269 0 0 0 .188-1.041-.239-1.416s-.864-.812-1.187-1.104z" style="fill-rule:evenodd;clip-rule:evenodd;stroke:#000;stroke-width:.78075;stroke-linecap:round;stroke-linejoin:round"/><g fill="#000"><path d="m484.026 217.724v-3.593c0-.215-.174-.39-.39-.39s-.39.175-.39.39v3.593c0 .215.174.39.39.39s.39-.175.39-.39z"/><path d="m481.965 217.723-.021-3.595c-.001-.215-.177-.388-.392-.387-.216.002-.39.177-.388.391l.02 3.595c.002.215.177.388.393.387.216-.002.389-.177.388-.391z"/><path d="m479.082 214.136.021 3.588c.001.216.177.391.392.39.216-.002.39-.178.388-.395l-.02-3.588c-.002-.216-.178-.391-.393-.39-.216.002-.389.178-.388.395z"/></g></g></g></g><path d="m0 0h112v860h-112z" fill="url(#d)" transform="matrix(0 1 -1 0 860 303)"/></g><rect height="410" rx="39" stroke="#000" stroke-opacity=".08" stroke-width="2" width="858" x="1" y="1"/></svg>