<svg fill="none" height="139" viewBox="0 0 860 139" width="860" xmlns="http://www.w3.org/2000/svg" xmlns:xlink="http://www.w3.org/1999/xlink"><clipPath id="a"><path d="m808.064 55.7522h27.4956v27.4956h-27.4956z"/></clipPath><mask id="b" height="43" maskUnits="userSpaceOnUse" width="44" x="30" y="48"><path d="m30.5505 48.1146h42.7709v42.7709h-42.7709z" fill="#d9d9d9"/></mask><rect fill="#f6f7f8" height="139" rx="34" width="860"/><g mask="url(#b)"><path d="m50.154 81.975h3.5643v-7.4404l2.8514 2.8514 2.4949-2.5395-7.1284-7.1285-7.1285 7.1285 2.5395 2.495 2.8068-2.8069zm-8.9106 5.3464c-.9801 0-1.8192-.349-2.5172-1.047s-1.047-1.5371-1.047-2.5173v-28.5139c0-.9802.349-1.8193 1.047-2.5172.698-.698 1.5371-1.047 2.5172-1.047h14.257l10.6927 10.6927v21.3854c0 .9802-.349 1.8193-1.047 2.5173s-1.5371 1.047-2.5172 1.047zm12.4749-23.1676h8.9106l-8.9106-8.9106z" fill="#5593f7" fill-opacity=".65"/></g><path d="m99.6106 48.188c-1.2498 0-2.3607-.2141-3.3328-.6423-.9662-.4282-1.73-1.0241-2.2913-1.7879-.5612-.7638-.8592-1.6461-.8939-2.6471h3.2634c.0289.4802.188.8997.4773 1.2584.2893.353.6741.6278 1.1543.8246.4803.1967 1.0184.295 1.6144.295.636 0 1.201-.1099 1.692-.3298.492-.2256.877-.5381 1.155-.9373.277-.3993.413-.8592.408-1.38.005-.5381-.133-1.0126-.417-1.4234-.283-.4108-.694-.7319-1.232-.9634-.533-.2314-1.175-.3471-1.9272-.3471h-1.5709v-2.4823h1.5709c.6191 0 1.1602-.107 1.6232-.3211.469-.2141.836-.515 1.102-.9026.266-.3935.396-.8477.391-1.3627.005-.5033-.107-.9402-.339-1.3105-.225-.3761-.547-.6683-.963-.8766-.411-.2083-.894-.3125-1.4496-.3125-.5439 0-1.0473.0984-1.5102.2951-.4629.1968-.8361.4774-1.1196.8419-.2835.3588-.434.7869-.4513 1.2845h-3.0985c.0231-.9952.3096-1.8689.8592-2.6211.5555-.758 1.2961-1.3481 2.2219-1.7705.9258-.4282 1.9644-.6423 3.1158-.6423 1.1863 0 2.2163.2228 3.0893.6683.88.4398 1.56 1.0328 2.04 1.7792.48.7465.72 1.571.72 2.4736.006 1.001-.289 1.84-.885 2.517-.59.6769-1.365 1.1196-2.326 1.3279v.1388c1.25.1736 2.208.6365 2.873 1.3887.671.7464 1.004 1.6751.998 2.786 0 .9952-.283 1.8863-.85 2.6732-.562.7811-1.337 1.3944-2.326 1.84-.984.4455-2.112.6683-3.3854.6683zm13.1364.026c-.845 0-1.605-.1504-2.282-.4513-.672-.3067-1.204-.758-1.597-1.354-.388-.5959-.582-1.3308-.582-2.2045 0-.7522.139-1.3742.417-1.866.277-.4918.656-.8853 1.137-1.1804.48-.295 1.021-.5178 1.623-.6682.607-.1563 1.235-.2691 1.883-.3385.781-.081 1.415-.1534 1.901-.217.486-.0694.839-.1736 1.059-.3125.225-.1446.338-.3674.338-.6683v-.052c0-.6539-.194-1.1601-.581-1.5189-.388-.3587-.946-.5381-1.675-.5381-.77 0-1.38.1678-1.832.5034-.445.3356-.746.7319-.902 1.189l-2.934-.4166c.231-.81.613-1.487 1.146-2.0309.532-.5497 1.183-.9605 1.952-1.2324.77-.2778 1.621-.4166 2.552-.4166.642 0 1.282.0752 1.918.2256.637.1505 1.218.3993 1.745.7464.526.3414.949.8072 1.267 1.3974.324.5902.486 1.3279.486 2.2132v8.9221h-3.02v-1.8313h-.105c-.19.3704-.46.7175-.807 1.0415-.341.3183-.772.5758-1.293.7725-.515.1909-1.12.2864-1.814.2864zm.816-2.3087c.631 0 1.177-.1244 1.64-.3732.463-.2545.819-.5901 1.068-1.0067.254-.4166.382-.8708.382-1.3627v-1.5709c-.099.081-.266.1562-.504.2257-.231.0694-.491.1302-.781.1822-.289.0521-.575.0984-.859.1389s-.529.0752-.738.1041c-.468.0637-.888.1678-1.258.3125-.371.1446-.663.3472-.877.6075-.214.2546-.321.5844-.321.9895 0 .5786.211 1.0154.634 1.3105.422.2951.96.4426 1.614.4426zm9.107 2.0396v-13.3311h11.257v13.3311h-3.029v-10.7534h-5.225v10.7534zm20.028.2604c-1.302 0-2.43-.2864-3.385-.8592s-1.695-1.3742-2.222-2.4041c-.521-1.03-.781-2.2335-.781-3.6106s.26-2.5835.781-3.6192c.527-1.0357 1.267-1.84 2.222-2.4128s2.083-.8592 3.385-.8592 2.43.2864 3.385.8592 1.692 1.3771 2.213 2.4128c.527 1.0357.79 2.2421.79 3.6192s-.263 2.5806-.79 3.6106c-.521 1.0299-1.258 1.8313-2.213 2.4041s-2.083.8592-3.385.8592zm.017-2.5169c.706 0 1.296-.1939 1.771-.5815.474-.3935.827-.92 1.059-1.5796.237-.6597.356-1.3945.356-2.2045 0-.8159-.119-1.5536-.356-2.2132-.232-.6654-.585-1.1949-1.059-1.5883-.475-.3935-1.065-.5902-1.771-.5902-.723 0-1.325.1967-1.805.5902-.474.3934-.83.9229-1.067 1.5883-.232.6596-.348 1.3973-.348 2.2132 0 .81.116 1.5448.348 2.2045.237.6596.593 1.1861 1.067 1.5796.48.3876 1.082.5815 1.805.5815zm7.843 2.2565-.018-2.5863h.46c.347 0 .64-.0782.877-.2344s.434-.4166.59-.7811c.156-.3703.278-.8679.364-1.4928.087-.6249.148-1.4031.183-2.3347l.234-5.9018h9.721v13.3311h-3.038v-10.7534h-3.827l-.209 4.2962c-.052 1.1109-.176 2.0743-.373 2.8901-.191.8101-.463 1.4784-.816 2.0049-.347.5265-.784.92-1.31 1.1804-.527.2546-1.149.3818-1.866.3818zm24.456-7.9674v2.5777h-7.1v-2.5777zm-6.128-5.3637v13.3311h-3.029v-13.3311zm8.185 0v13.3311h-3.021v-13.3311zm8.805 13.5915c-1.336 0-2.491-.2777-3.463-.8332-.966-.5612-1.709-1.3539-2.23-2.3781-.521-1.0299-.781-2.2421-.781-3.6365 0-1.3713.26-2.5748.781-3.6106.526-1.0415 1.261-1.8515 2.204-2.4301.944-.5844 2.052-.8766 3.324-.8766.822 0 1.597.1331 2.327.3992.734.2604 1.382.6654 1.944 1.2151.567.5497 1.012 1.2498 1.336 2.1004.324.8447.486 1.8515.486 3.0203v.9634h-10.927v-2.1177h7.916c-.006-.6018-.136-1.137-.391-1.6057-.255-.4744-.61-.8476-1.068-1.1196-.451-.2719-.977-.4079-1.579-.4079-.642 0-1.207.1562-1.693.4687-.486.3066-.865.7117-1.137 1.2151-.266.4976-.402 1.0444-.407 1.6403v1.8487c0 .7753.141 1.4407.425 1.9962.283.5497.68.9721 1.189 1.2671.509.2893 1.105.434 1.788.434.457 0 .871-.0636 1.241-.1909.37-.1331.691-.327.963-.5815.272-.2546.478-.57.617-.9461l2.933.3298c-.185.7754-.538 1.4523-1.059 2.031-.515.5728-1.174 1.0183-1.979 1.3365-.804.3125-1.724.4687-2.76.4687zm17.468-8.2278v2.5777h-7.1v-2.5777zm-6.128-5.3637v13.3311h-3.029v-13.3311zm8.185 0v13.3311h-3.021v-13.3311zm5.933 9.0784 5.337-9.0784h3.229v13.3311h-3.038v-9.087l-5.32 9.087h-3.237v-13.3311h3.029zm17.419 4.5131c-1.336 0-2.491-.2777-3.463-.8332-.966-.5612-1.71-1.3539-2.23-2.3781-.521-1.0299-.781-2.2421-.781-3.6365 0-1.3713.26-2.5748.781-3.6106.526-1.0415 1.261-1.8515 2.204-2.4301.943-.5844 2.051-.8766 3.324-.8766.822 0 1.597.1331 2.326.3992.735.2604 1.383.6654 1.944 1.2151.568.5497 1.013 1.2498 1.337 2.1004.324.8447.486 1.8515.486 3.0203v.9634h-10.927v-2.1177h7.915c-.005-.6018-.136-1.137-.39-1.6057-.255-.4744-.611-.8476-1.068-1.1196-.451-.2719-.978-.4079-1.579-.4079-.643 0-1.207.1562-1.693.4687-.486.3066-.865.7117-1.137 1.2151-.266.4976-.402 1.0444-.408 1.6403v1.8487c0 .7753.142 1.4407.426 1.9962.283.5497.68.9721 1.189 1.2671.509.2893 1.105.434 1.788.434.457 0 .87-.0636 1.241-.1909.37-.1331.691-.327.963-.5815.272-.2546.477-.57.616-.9461l2.934.3298c-.185.7754-.538 1.4523-1.059 2.031-.515.5728-1.175 1.0183-1.979 1.3365-.804.3125-1.724.4687-2.76.4687zm17.128-4.5131 5.337-9.0784h3.229v13.3311h-3.038v-9.087l-5.32 9.087h-3.237v-13.3311h3.029zm10.78.5988h3.116c.028.4976.251.8824.668 1.1543.416.272.957.408 1.623.408.677 0 1.247-.1476 1.71-.4427.468-.3008.703-.7551.703-1.3626 0-.3587-.09-.6741-.269-.946-.18-.2778-.432-.4918-.756-.6423-.324-.1504-.705-.2256-1.145-.2256h-2.04v-2.2306h2.04c.654 0 1.148-.1504 1.484-.4513.341-.3009.512-.6799.512-1.137 0-.4918-.179-.891-.538-1.1977-.353-.3067-.842-.46-1.467-.46s-1.146.1418-1.562.4253c-.411.2835-.625.648-.642 1.0936h-3.099c.012-.7754.243-1.4495.695-2.0223.457-.5728 1.07-1.0183 1.839-1.3366.776-.3182 1.65-.4773 2.622-.4773 1.041 0 1.941.1562 2.699.4687.758.3124 1.342.7493 1.753 1.3105.411.5555.616 1.2093.616 1.9615 0 .7233-.225 1.3221-.677 1.7966-.451.4687-1.059.8043-1.822 1.0068v.1388c.526.029 1.001.1794 1.423.4513.422.2662.758.6278 1.007 1.0849s.373.9866.373 1.5883c0 .8159-.234 1.5218-.703 2.1177-.469.5902-1.114 1.0444-1.935 1.3627-.816.3182-1.751.4773-2.804.4773-1.024 0-1.941-.1533-2.751-.46-.804-.3124-1.444-.7608-1.918-1.3452-.475-.5844-.726-1.2875-.755-2.1091zm17.672 7.5248v-6.4572h1.059c.283-.2199.52-.5179.711-.894.191-.3819.347-.8303.469-1.3453.127-.5207.231-1.1022.312-1.7445.081-.648.154-1.3452.217-2.0916l.382-4.6694h9.634v10.7448h2.066v6.4572h-3.038v-3.8709h-8.723v3.8709zm4.287-6.4572h5.494v-8.2105h-3.906l-.208 2.1351c-.116 1.4118-.269 2.6211-.46 3.6278-.191 1.0068-.497 1.8227-.92 2.4476zm18.448 2.8467c-1.302 0-2.43-.2864-3.385-.8592-.954-.5728-1.695-1.3742-2.221-2.4041-.521-1.03-.782-2.2335-.782-3.6106s.261-2.5835.782-3.6192c.526-1.0357 1.267-1.84 2.221-2.4128.955-.5728 2.083-.8592 3.385-.8592s2.43.2864 3.385.8592 1.693 1.3771 2.213 2.4128c.527 1.0357.79 2.2421.79 3.6192s-.263 2.5806-.79 3.6106c-.52 1.0299-1.258 1.8313-2.213 2.4041s-2.083.8592-3.385.8592zm.018-2.5169c.706 0 1.296-.1939 1.77-.5815.475-.3935.828-.92 1.059-1.5796.237-.6597.356-1.3945.356-2.2045 0-.8159-.119-1.5536-.356-2.2132-.231-.6654-.584-1.1949-1.059-1.5883-.474-.3935-1.064-.5902-1.77-.5902-.724 0-1.325.1967-1.806.5902-.474.3934-.83.9229-1.067 1.5883-.232.6596-.347 1.3973-.347 2.2132 0 .81.115 1.5448.347 2.2045.237.6596.593 1.1861 1.067 1.5796.481.3876 1.082.5815 1.806.5815zm8.762 2.2565v-13.3311h3.142v5.381h1.145l4.01-5.381h3.784l-4.938 6.544 4.99 6.7871h-3.801l-3.654-5.0252h-1.536v5.0252zm15.736 4.9992c-.428 0-.825-.0347-1.189-.1041-.359-.0637-.645-.1389-.859-.2257l.729-2.4475c.457.1331.865.1967 1.223.191.359-.0058.674-.1187.946-.3385.278-.2141.512-.5729.703-1.0763l.269-.7203-4.834-13.6089h3.333l3.072 10.0678h.139l3.081-10.0678h3.342l-5.338 14.9455c-.249.7059-.578 1.3105-.989 1.8139-.411.5092-.915.8969-1.51 1.163-.591.272-1.297.4079-2.118.4079zm19.526-8.6531 3.958-9.6772h2.534l-5.389 13.3311h-2.196l-5.268-13.3311h2.508zm-4.643-9.6772v13.3311h-3.029v-13.3311zm9.417 13.3311v-13.3311h3.003v13.3311zm11.798.2604c-1.337 0-2.491-.2777-3.463-.8332-.967-.5612-1.71-1.3539-2.231-2.3781-.521-1.0299-.781-2.2421-.781-3.6365 0-1.3713.26-2.5748.781-3.6106.527-1.0415 1.261-1.8515 2.205-2.4301.943-.5844 2.051-.8766 3.324-.8766.821 0 1.597.1331 2.326.3992.735.2604 1.383.6654 1.944 1.2151.567.5497 1.012 1.2498 1.336 2.1004.324.8447.486 1.8515.486 3.0203v.9634h-10.927v-2.1177h7.916c-.006-.6018-.136-1.137-.391-1.6057-.254-.4744-.61-.8476-1.067-1.1196-.452-.2719-.978-.4079-1.58-.4079-.642 0-1.206.1562-1.692.4687-.486.3066-.865.7117-1.137 1.2151-.266.4976-.402 1.0444-.408 1.6403v1.8487c0 .7753.142 1.4407.425 1.9962.284.5497.68.9721 1.189 1.2671.509.2893 1.105.434 1.788.434.457 0 .871-.0636 1.241-.1909.37-.1331.692-.327.964-.5815.271-.2546.477-.57.616-.9461l2.933.3298c-.185.7754-.538 1.4523-1.059 2.031-.515.5728-1.174 1.0183-1.978 1.3365-.805.3125-1.725.4687-2.76.4687zm17.467-8.2278v2.5777h-7.1v-2.5777zm-6.127-5.3637v13.3311h-3.029v-13.3311zm8.184 0v13.3311h-3.02v-13.3311zm1.411 2.5777v-2.5777h11.665v2.5777h-4.314v10.7534h-3.037v-10.7534zm17.179 11.0225c-.845 0-1.606-.1504-2.283-.4513-.671-.3067-1.203-.758-1.597-1.354-.387-.5959-.581-1.3308-.581-2.2045 0-.7522.139-1.3742.416-1.866.278-.4918.657-.8853 1.137-1.1804.481-.295 1.022-.5178 1.623-.6682.608-.1563 1.236-.2691 1.884-.3385.781-.081 1.414-.1534 1.9-.217.486-.0694.839-.1736 1.059-.3125.226-.1446.339-.3674.339-.6683v-.052c0-.6539-.194-1.1601-.582-1.5189-.387-.3587-.946-.5381-1.675-.5381-.769 0-1.38.1678-1.831.5034-.446.3356-.747.7319-.903 1.189l-2.933-.4166c.231-.81.613-1.487 1.145-2.0309.533-.5497 1.184-.9605 1.953-1.2324.77-.2778 1.62-.4166 2.552-.4166.642 0 1.281.0752 1.918.2256.636.1505 1.218.3993 1.744.7464.527.3414.949.8072 1.268 1.3974.324.5902.486 1.3279.486 2.2132v8.9221h-3.021v-1.8313h-.104c-.191.3704-.46.7175-.807 1.0415-.341.3183-.773.5758-1.293.7725-.515.1909-1.12.2864-1.814.2864zm.816-2.3087c.63 0 1.177-.1244 1.64-.3732.463-.2545.819-.5901 1.068-1.0067.254-.4166.381-.8708.381-1.3627v-1.5709c-.098.081-.266.1562-.503.2257-.231.0694-.492.1302-.781.1822-.289.0521-.576.0984-.859.1389-.284.0405-.53.0752-.738.1041-.469.0637-.888.1678-1.259.3125-.37.1446-.662.3472-.876.6075-.214.2546-.321.5844-.321.9895 0 .5786.211 1.0154.633 1.3105.423.2951.961.4426 1.615.4426z" fill="#32383d"/><path d="m97.5363 81.2373c-.8592 0-1.6251-.1475-2.2978-.4426-.6683-.2951-1.1999-.7052-1.5948-1.2303-.3905-.5294-.6032-1.1435-.6379-1.8421h1.6404c.0347.4296.1822.8006.4426 1.1131.2604.3081.601.5467 1.022.716.4209.1692.8874.2539 1.3995.2539.5728 0 1.0805-.0999 1.5232-.2995.4426-.1996.7898-.4773 1.0415-.8332.252-.3558.378-.7681.378-1.2368 0-.4903-.122-.9221-.365-1.2953-.243-.3776-.5989-.6727-1.0675-.8853-.4687-.2126-1.0415-.3189-1.7185-.3189h-1.0676v-1.4321h1.0676c.5294 0 .9937-.0955 1.393-.2864.4036-.191.7182-.46.9438-.8072.23-.3471.345-.7551.345-1.2237 0-.4514-.0998-.8441-.2994-1.1782-.1996-.3342-.4817-.5946-.8462-.7812-.3602-.1866-.7855-.2799-1.2758-.2799-.46 0-.894.0847-1.3019.2539-.4036.1649-.7334.4058-.9894.7225-.2561.3125-.3949.69-.4166 1.1327h-1.5623c.0261-.6987.2365-1.3106.6314-1.8357.3949-.5294.9113-.9417 1.5493-1.2368.6422-.295 1.3474-.4426 2.1155-.4426.8245 0 1.5319.1671 2.122.5012.5906.3298 1.0436.766 1.3606 1.3084.317.5425.475 1.1283.475 1.7575 0 .7508-.197 1.3909-.592 1.9203-.391.5294-.922.8961-1.5951 1.1001v.1041c.8421.1389 1.4991.4969 1.9721 1.0741.473.5728.71 1.2823.71 2.1285 0 .7248-.198 1.3757-.593 1.9529-.39.5728-.924 1.0241-1.6009 1.3539s-1.4472.4947-2.3108.4947zm10.1347.0521c-.633 0-1.208-.1193-1.725-.358-.516-.243-.926-.5924-1.23-1.048-.304-.46-.456-1.0155-.456-1.6664 0-.5729.113-1.0372.339-1.393.226-.3602.527-.6423.905-.8463.377-.2039.794-.3558 1.25-.4556.46-.1042.922-.1866 1.386-.2474.608-.0781 1.1-.1367 1.478-.1757.382-.0434.659-.115.833-.2148.178-.0998.267-.2734.267-.5208v-.052c0-.6423-.176-1.1414-.527-1.4972-.348-.3558-.875-.5338-1.582-.5338-.734 0-1.309.1606-1.725.4817-.417.3212-.71.664-.879 1.0285l-1.458-.5207c.26-.6076.607-1.0806 1.041-1.4191.439-.3428.916-.5815 1.432-.716.521-.1389 1.033-.2083 1.537-.2083.321 0 .69.039 1.106.1171.421.0738.827.2279 1.218.4622.394.2344.722.588.982 1.061.261.4731.391 1.1066.391 1.9008v6.5875h-1.536v-1.354h-.078c-.104.217-.278.4492-.521.6965-.243.2474-.566.4578-.97.6314s-.896.2604-1.478.2604zm.235-1.38c.607 0 1.119-.1193 1.536-.358.421-.2387.738-.5468.95-.9243.217-.3776.326-.7747.326-1.1913v-1.406c-.065.0781-.209.1497-.43.2148-.217.0608-.469.115-.755.1628-.282.0434-.558.0824-.827.1171-.264.0304-.479.0565-.644.0781-.399.0521-.772.1367-1.12.2539-.342.1128-.62.2843-.833.5143-.208.2256-.312.5337-.312.9243 0 .5338.197.9373.592 1.2107.399.2691.905.4036 1.517.4036zm13.323-8.8527v1.432h-4.635v8.5664h-1.536v-9.9984zm2.242 13.7477v-13.7477h1.484v1.5883h.183c.112-.1736.269-.3949.468-.664.204-.2734.495-.5164.873-.729.381-.217.898-.3255 1.549-.3255.842 0 1.584.2105 2.226.6314s1.143 1.0176 1.504 1.7901c.36.7724.54 1.6837.54 2.7339 0 1.0589-.18 1.9767-.54 2.7535-.361.7724-.86 1.3713-1.497 1.7965-.638.421-1.374.6315-2.207.6315-.642 0-1.157-.1064-1.543-.319-.386-.217-.683-.4622-.892-.7356-.208-.2777-.369-.5077-.481-.69h-.131v5.2856zm1.51-8.7485c0 .755.111 1.4212.332 1.9983.222.5729.545 1.022.97 1.3475.426.3211.946.4817 1.563.4817.642 0 1.178-.1693 1.607-.5078.434-.3428.76-.8028.977-1.3799.221-.5816.332-1.2281.332-1.9398 0-.7031-.109-1.3366-.326-1.9008-.212-.5685-.536-1.0176-.97-1.3474-.429-.3342-.97-.5012-1.62-.5012-.625 0-1.15.1584-1.576.4752-.425.3124-.746.7507-.963 1.3148-.217.5598-.326 1.213-.326 1.9594zm10.292 8.7485c-.261 0-.493-.0216-.697-.065-.204-.0391-.345-.0782-.423-.1172l.391-1.354c.373.0955.703.1302.989.1042.287-.026.54-.1541.762-.3841.225-.2256.431-.5923.618-1.1l.287-.7812-3.698-10.0504h1.667l2.76 7.9674h.104l2.76-7.9674h1.666l-4.244 11.4565c-.191.5164-.427.9438-.71 1.2823-.282.3428-.609.5967-.982.7616-.369.1649-.786.2473-1.25.2473zm8.589-6.301h1.64c.035.4513.239.7941.612 1.0285.378.2343.868.3515 1.471.3515.616 0 1.144-.1259 1.582-.3776.438-.256.657-.6683.657-1.2368 0-.3341-.082-.6249-.247-.8722-.165-.2517-.397-.447-.696-.5859-.3-.1388-.654-.2083-1.061-.2083h-1.719v-1.3799h1.719c.611 0 1.063-.1389 1.353-.4166.296-.2778.443-.6249.443-1.0415 0-.447-.158-.805-.475-1.0741-.317-.2734-.766-.4101-1.348-.4101-.585 0-1.074.1324-1.464.3971-.391.2604-.597.5967-.618 1.009h-1.615c.018-.5382.182-1.0133.495-1.4256.312-.4166.738-.7421 1.276-.9764.538-.2387 1.154-.358 1.848-.358.703 0 1.313.1237 1.83.371.52.243.922.575 1.204.9959.286.4166.429.8897.429 1.4191 0 .5641-.158 1.0198-.475 1.367-.317.3471-.714.5945-1.191.742v.1042c.378.026.705.1475.983.3645.282.2126.501.4925.657.8397.157.3428.235.7225.235 1.1391 0 .6076-.163 1.137-.489 1.5883-.325.447-.772.7942-1.34 1.0415-.569.243-1.218.3646-1.947.3646-.707 0-1.341-.115-1.9-.345-.56-.2344-1.005-.5577-1.335-.9699-.325-.4166-.497-.8983-.514-1.4451zm11.219.2864 4.817-7.7331h1.77v9.9984h-1.536v-7.7332l-4.791 7.7332h-1.796v-9.9984h1.536zm8.04-6.3011v-1.432h8.124v1.432h-3.281v8.5664h-1.536v-8.5664zm14.038 8.7747c-.964 0-1.795-.2127-2.493-.638-.695-.4296-1.23-1.0284-1.608-1.7965-.373-.7725-.56-1.6708-.56-2.6949 0-1.0242.187-1.9268.56-2.7079.378-.7855.903-1.3974 1.575-1.8357.677-.4426 1.467-.6639 2.37-.6639.52 0 1.035.0868 1.542.2604.508.1735.97.4556 1.387.8462.416.3862.748.8983.996 1.5362.247.6379.371 1.4234.371 2.3564v.6509h-7.707v-1.3279h6.145c0-.5641-.113-1.0675-.339-1.5102-.221-.4426-.538-.7919-.95-1.048-.408-.256-.89-.384-1.445-.384-.612 0-1.142.1519-1.589.4556-.442.2995-.783.69-1.022 1.1717-.238.4817-.358.9981-.358 1.5492v.8853c0 .7551.131 1.3952.391 1.9203.265.5207.631.9178 1.1 1.1912.469.269 1.013.4036 1.634.4036.403 0 .768-.0564 1.093-.1693.33-.1171.614-.2907.853-.5207.239-.2344.423-.5251.553-.8723l1.485.4166c-.157.5034-.419.946-.788 1.3279-.369.3776-.825.6727-1.367.8853-.542.2083-1.152.3125-1.829.3125zm15.694 0c-.937 0-1.745-.2214-2.422-.664s-1.197-1.0523-1.562-1.8291c-.364-.7768-.547-1.6643-.547-2.6624 0-1.0154.187-1.9115.56-2.6883.378-.7812.903-1.3909 1.576-1.8292.676-.4426 1.466-.6639 2.369-.6639.703 0 1.337.1302 1.901.3905.564.2604 1.026.6249 1.386 1.0936s.584 1.0155.671 1.6404h-1.537c-.117-.4557-.377-.8593-.781-1.2108-.399-.3558-.937-.5337-1.614-.5337-.599 0-1.124.1562-1.575.4686-.447.3082-.797.7443-1.048 1.3084-.248.5598-.371 1.2173-.371 1.9724 0 .7724.121 1.445.364 2.0179.248.5728.595 1.0176 1.042 1.3344.451.3168.98.4752 1.588.4752.399 0 .762-.0695 1.087-.2083.325-.1389.601-.3385.827-.5989.225-.2604.386-.5728.481-.9373h1.537c-.087.5901-.302 1.1217-.645 1.5948-.338.4686-.787.8418-1.347 1.1196-.556.2734-1.202.4101-1.94.4101zm6.177-.2083v-9.9984h1.537v4.3482h1.015l3.593-4.3482h1.979l-4.036 4.8169 4.088 5.1815h-1.979l-3.28-4.2181h-1.38v4.2181zm12.788.2343c-.634 0-1.209-.1193-1.725-.358-.516-.243-.926-.5924-1.23-1.048-.304-.46-.456-1.0155-.456-1.6664 0-.5729.113-1.0372.339-1.393.225-.3602.527-.6423.904-.8463.378-.2039.795-.3558 1.25-.4556.46-.1042.922-.1866 1.387-.2474.607-.0781 1.1-.1367 1.477-.1757.382-.0434.66-.115.833-.2148.178-.0998.267-.2734.267-.5208v-.052c0-.6423-.175-1.1414-.527-1.4972-.347-.3558-.874-.5338-1.582-.5338-.733 0-1.308.1606-1.725.4817-.416.3212-.709.664-.878 1.0285l-1.459-.5207c.261-.6076.608-1.0806 1.042-1.4191.438-.3428.916-.5815 1.432-.716.521-.1389 1.033-.2083 1.536-.2083.321 0 .69.039 1.107.1171.421.0738.827.2279 1.217.4622.395.2344.723.588.983 1.061.26.4731.391 1.1066.391 1.9008v6.5875h-1.537v-1.354h-.078c-.104.217-.277.4492-.52.6965-.244.2474-.567.4578-.97.6314-.404.1736-.897.2604-1.478.2604zm.234-1.38c.608 0 1.12-.1193 1.537-.358.42-.2387.737-.5468.95-.9243.217-.3776.325-.7747.325-1.1913v-1.406c-.065.0781-.208.1497-.429.2148-.217.0608-.469.115-.755.1628-.282.0434-.558.0824-.827.1171-.265.0304-.48.0565-.644.0781-.4.0521-.773.1367-1.12.2539-.343.1128-.621.2843-.833.5143-.209.2256-.313.5337-.313.9243 0 .5338.198.9373.593 1.2107.399.2691.904.4036 1.516.4036zm13.844-4.5566v1.4321h-5.52v-1.4321zm-5.155-4.2961v9.9984h-1.537v-9.9984zm6.327 0v9.9984h-1.536v-9.9984zm4.133 3.6192h2.864c1.172 0 2.068.2972 2.689.8918.62.5945.931 1.3474.931 2.2587 0 .5989-.139 1.1435-.417 1.6339-.278.486-.686.8744-1.224 1.1651-.538.2864-1.198.4297-1.979.4297h-4.192v-9.9984h1.537v8.5663h2.655c.608 0 1.107-.1606 1.498-.4817.39-.3211.585-.7334.585-1.2368 0-.5294-.195-.9612-.585-1.2953-.391-.3342-.89-.5013-1.498-.5013h-2.864zm8.072 6.3792v-9.9984h1.536v9.9984zm11.04-2.2653 4.817-7.7331h1.77v9.9984h-1.536v-7.7332l-4.791 7.7332h-1.796v-9.9984h1.536zm8.516 2.2653v-1.4321h.364c.3 0 .549-.0586.749-.1758.199-.1215.36-.3319.481-.6314.126-.3037.222-.7247.287-1.2628.069-.5424.119-1.2324.15-2.07l.182-4.4263h6.665v9.9984h-1.536v-8.5664h-3.671l-.156 3.5672c-.035.8201-.109 1.5427-.222 2.1676-.108.6205-.275 1.1413-.501 1.5622-.221.421-.516.7378-.885.9504s-.831.319-1.387.319zm13.233-2.2653 4.817-7.7331h1.771v9.9984h-1.537v-7.7332l-4.79 7.7332h-1.797v-9.9984h1.536zm18.619 5.6762v-16.7421h1.536v16.7421zm0-3.2026c-.677 0-1.294-.1216-1.849-.3646-.556-.2473-1.033-.5967-1.432-1.048-.399-.4556-.707-1.0003-.924-1.6338-.217-.6336-.326-1.3366-.326-2.1091 0-.7811.109-1.4884.326-2.122.217-.6379.525-1.1847.924-1.6404.399-.4556.876-.805 1.432-1.048.555-.2473 1.172-.371 1.849-.371h.468v10.3369zm0-1.38h.26v-7.5769h-.26c-.512 0-.957.1041-1.335.3124-.377.204-.69.4839-.937.8397-.243.3515-.425.7551-.547 1.2108-.117.4556-.176.9351-.176 1.4385 0 .6683.107 1.2889.319 1.8617.213.5728.541 1.035.983 1.3865.443.3515 1.007.5273 1.693.5273zm1.536 1.38h-.469v-10.3369h.469c.677 0 1.293.1237 1.848.371.556.243 1.033.5924 1.433 1.048.399.4557.707 1.0025.924 1.6404.217.6336.325 1.3409.325 2.122 0 .7725-.108 1.4755-.325 2.1091-.217.6335-.525 1.1782-.924 1.6338-.4.4513-.877.8007-1.433 1.048-.555.243-1.171.3646-1.848.3646zm0-1.38c.516 0 .961-.0998 1.334-.2995.378-.2039.688-.4817.931-.8332.247-.3558.43-.7594.547-1.2107.121-.4557.182-.933.182-1.4321 0-.6683-.106-1.291-.319-1.8682-.213-.5771-.54-1.0436-.983-1.3995-.442-.3558-1.007-.5337-1.692-.5337h-.261v7.5769zm10.94 1.38c-.902 0-1.694-.2149-2.376-.6445-.676-.4296-1.206-1.0306-1.588-1.8031-.377-.7724-.566-1.675-.566-2.7079 0-1.0415.189-1.9506.566-2.7274.382-.7768.912-1.38 1.588-1.8096.682-.4296 1.474-.6444 2.376-.6444.903 0 1.693.2148 2.37.6444.681.4296 1.211 1.0328 1.588 1.8096.382.7768.573 1.6859.573 2.7274 0 1.0329-.191 1.9355-.573 2.7079-.377.7725-.907 1.3735-1.588 1.8031-.677.4296-1.467.6445-2.37.6445zm0-1.38c.686 0 1.25-.1758 1.693-.5273.442-.3515.77-.8137.983-1.3865.212-.5728.319-1.1934.319-1.8617s-.107-1.291-.319-1.8682c-.213-.5771-.541-1.0436-.983-1.3995-.443-.3558-1.007-.5337-1.693-.5337-.685 0-1.249.1779-1.692.5337-.443.3559-.77.8224-.983 1.3995-.213.5772-.319 1.1999-.319 1.8682s.106 1.2889.319 1.8617.54 1.035.983 1.3865 1.007.5273 1.692.5273zm5.569-7.3947v-1.432h8.124v1.432h-3.281v8.5664h-1.536v-8.5664zm13.907 8.7747c-.902 0-1.694-.2149-2.375-.6445-.677-.4296-1.207-1.0306-1.589-1.8031-.377-.7724-.566-1.675-.566-2.7079 0-1.0415.189-1.9506.566-2.7274.382-.7768.912-1.38 1.589-1.8096.681-.4296 1.473-.6444 2.375-.6444.903 0 1.693.2148 2.37.6444.681.4296 1.211 1.0328 1.588 1.8096.382.7768.573 1.6859.573 2.7274 0 1.0329-.191 1.9355-.573 2.7079-.377.7725-.907 1.3735-1.588 1.8031-.677.4296-1.467.6445-2.37.6445zm0-1.38c.686 0 1.25-.1758 1.693-.5273.442-.3515.77-.8137.983-1.3865.212-.5728.319-1.1934.319-1.8617s-.107-1.291-.319-1.8682c-.213-.5771-.541-1.0436-.983-1.3995-.443-.3558-1.007-.5337-1.693-.5337-.685 0-1.249.1779-1.692.5337-.443.3559-.77.8224-.983 1.3995-.213.5772-.319 1.1999-.319 1.8682s.106 1.2889.319 1.8617.54 1.035.983 1.3865 1.007.5273 1.692.5273zm12.031 1.1717v-9.9984h7.864v9.9984h-1.537v-8.5664h-4.79v8.5664zm13.611.2343c-.633 0-1.208-.1193-1.725-.358-.516-.243-.926-.5924-1.23-1.048-.304-.46-.455-1.0155-.455-1.6664 0-.5729.112-1.0372.338-1.393.226-.3602.527-.6423.905-.8463.377-.2039.794-.3558 1.25-.4556.46-.1042.922-.1866 1.386-.2474.608-.0781 1.1-.1367 1.478-.1757.382-.0434.659-.115.833-.2148.178-.0998.267-.2734.267-.5208v-.052c0-.6423-.176-1.1414-.527-1.4972-.348-.3558-.875-.5338-1.582-.5338-.734 0-1.309.1606-1.725.4817-.417.3212-.71.664-.879 1.0285l-1.458-.5207c.26-.6076.607-1.0806 1.041-1.4191.439-.3428.916-.5815 1.433-.716.52-.1389 1.032-.2083 1.536-.2083.321 0 .69.039 1.106.1171.421.0738.827.2279 1.218.4622.394.2344.722.588.982 1.061.261.4731.391 1.1066.391 1.9008v6.5875h-1.536v-1.354h-.078c-.104.217-.278.4492-.521.6965-.243.2474-.566.4578-.97.6314s-.896.2604-1.478.2604zm.235-1.38c.607 0 1.119-.1193 1.536-.358.421-.2387.738-.5468.95-.9243.217-.3776.326-.7747.326-1.1913v-1.406c-.065.0781-.208.1497-.43.2148-.217.0608-.468.115-.755.1628-.282.0434-.558.0824-.827.1171-.264.0304-.479.0565-.644.0781-.399.0521-.772.1367-1.12.2539-.342.1128-.62.2843-.833.5143-.208.2256-.312.5337-.312.9243 0 .5338.197.9373.592 1.2107.399.2691.905.4036 1.517.4036zm11.214 1.354c-.938 0-1.745-.2214-2.422-.664s-1.197-1.0523-1.562-1.8291c-.364-.7768-.547-1.6643-.547-2.6624 0-1.0154.187-1.9115.56-2.6883.378-.7812.903-1.3909 1.575-1.8292.677-.4426 1.467-.6639 2.37-.6639.703 0 1.336.1302 1.9.3905.565.2604 1.027.6249 1.387 1.0936s.584 1.0155.67 1.6404h-1.536c-.117-.4557-.377-.8593-.781-1.2108-.399-.3558-.937-.5337-1.614-.5337-.599 0-1.124.1562-1.575.4686-.447.3082-.797.7443-1.048 1.3084-.248.5598-.372 1.2173-.372 1.9724 0 .7724.122 1.445.365 2.0179.247.5728.595 1.0176 1.042 1.3344.451.3168.98.4752 1.588.4752.399 0 .761-.0695 1.087-.2083.325-.1389.601-.3385.827-.5989.225-.2604.386-.5728.481-.9373h1.536c-.086.5901-.301 1.1217-.644 1.5948-.338.4686-.788.8418-1.347 1.1196-.556.2734-1.202.4101-1.94.4101zm6.177-.2083v-9.9984h7.863v9.9984h-1.536v-8.5664h-4.791v8.5664zm14.731.2083c-.903 0-1.695-.2149-2.376-.6445-.677-.4296-1.206-1.0306-1.588-1.8031-.378-.7724-.567-1.675-.567-2.7079 0-1.0415.189-1.9506.567-2.7274.382-.7768.911-1.38 1.588-1.8096.681-.4296 1.473-.6444 2.376-.6444s1.692.2148 2.369.6444c.682.4296 1.211 1.0328 1.589 1.8096.381.7768.572 1.6859.572 2.7274 0 1.0329-.191 1.9355-.572 2.7079-.378.7725-.907 1.3735-1.589 1.8031-.677.4296-1.466.6445-2.369.6445zm0-1.38c.686 0 1.25-.1758 1.692-.5273.443-.3515.771-.8137.983-1.3865.213-.5728.319-1.1934.319-1.8617s-.106-1.291-.319-1.8682c-.212-.5771-.54-1.0436-.983-1.3995-.442-.3558-1.006-.5337-1.692-.5337s-1.25.1779-1.693.5337c-.442.3559-.77.8224-.982 1.3995-.213.5772-.319 1.1999-.319 1.8682s.106 1.2889.319 1.8617c.212.5728.54 1.035.982 1.3865.443.3515 1.007.5273 1.693.5273zm6.875 4.921v-13.7477h1.485v1.5883h.182c.113-.1736.269-.3949.468-.664.204-.2734.495-.5164.873-.729.382-.217.898-.3255 1.549-.3255.842 0 1.584.2105 2.226.6314s1.144 1.0176 1.504 1.7901c.36.7724.54 1.6837.54 2.7339 0 1.0589-.18 1.9767-.54 2.7535-.36.7724-.859 1.3713-1.497 1.7965-.638.421-1.374.6315-2.207.6315-.642 0-1.157-.1064-1.543-.319-.386-.217-.683-.4622-.892-.7356-.208-.2777-.368-.5077-.481-.69h-.13v5.2856zm1.511-8.7485c0 .755.11 1.4212.332 1.9983.221.5729.544 1.022.969 1.3475.426.3211.946.4817 1.563.4817.642 0 1.178-.1693 1.607-.5078.434-.3428.76-.8028.977-1.3799.221-.5816.332-1.2281.332-1.9398 0-.7031-.109-1.3366-.326-1.9008-.212-.5685-.536-1.0176-.97-1.3474-.429-.3342-.969-.5012-1.62-.5012-.625 0-1.15.1584-1.576.4752-.425.3124-.746.7507-.963 1.3148-.217.5598-.325 1.213-.325 1.9594zm8.353-3.5672v-1.432h8.123v1.432h-3.28v8.5664h-1.537v-8.5664zm12.787 8.8007c-.633 0-1.208-.1193-1.725-.358-.516-.243-.926-.5924-1.23-1.048-.304-.46-.456-1.0155-.456-1.6664 0-.5729.113-1.0372.339-1.393.226-.3602.527-.6423.905-.8463.377-.2039.794-.3558 1.25-.4556.46-.1042.922-.1866 1.386-.2474.608-.0781 1.1-.1367 1.478-.1757.382-.0434.659-.115.833-.2148.178-.0998.267-.2734.267-.5208v-.052c0-.6423-.176-1.1414-.528-1.4972-.347-.3558-.874-.5338-1.581-.5338-.734 0-1.309.1606-1.725.4817-.417.3212-.71.664-.879 1.0285l-1.458-.5207c.26-.6076.607-1.0806 1.041-1.4191.439-.3428.916-.5815 1.432-.716.521-.1389 1.033-.2083 1.537-.2083.321 0 .69.039 1.106.1171.421.0738.827.2279 1.217.4622.395.2344.723.588.983 1.061.261.4731.391 1.1066.391 1.9008v6.5875h-1.536v-1.354h-.078c-.105.217-.278.4492-.521.6965-.243.2474-.566.4578-.97.6314s-.896.2604-1.478.2604zm.235-1.38c.607 0 1.119-.1193 1.536-.358.421-.2387.738-.5468.95-.9243.217-.3776.326-.7747.326-1.1913v-1.406c-.065.0781-.209.1497-.43.2148-.217.0608-.469.115-.755.1628-.282.0434-.558.0824-.827.1171-.264.0304-.479.0565-.644.0781-.399.0521-.773.1367-1.12.2539-.343.1128-.62.2843-.833.5143-.208.2256-.312.5337-.312.9243 0 .5338.197.9373.592 1.2107.399.2691.905.4036 1.517.4036zm9.443-.677-.104.703c-.074.4948-.187 1.0242-.338 1.5883-.148.5642-.302 1.0958-.463 1.5948-.16.4991-.293.8961-.397 1.1912h-1.171c.056-.2777.13-.6444.221-1.1.091-.4557.182-.9656.273-1.5297.096-.5599.174-1.1327.235-1.7185l.078-.7291zm13.47-.2603 3.489-7.9154h1.458l-4.322 9.9984h-1.25l-4.244-9.9984h1.432zm-3.932-7.9154v9.9984h-1.536v-9.9984zm7.863 9.9984v-9.9984h1.537v9.9984zm5.676-6.3792h2.865c1.171 0 2.067.2972 2.688.8918.621.5945.931 1.3474.931 2.2587 0 .5989-.139 1.1435-.417 1.6339-.278.486-.685.8744-1.224 1.1651-.538.2864-1.197.4297-1.978.4297h-4.192v-9.9984h1.536v8.5663h2.656c.607 0 1.106-.1606 1.497-.4817.39-.3211.586-.7334.586-1.2368 0-.5294-.196-.9612-.586-1.2953-.391-.3342-.89-.5013-1.497-.5013h-2.865zm8.072 6.3792v-9.9984h1.536v9.9984zm8.879-2.5517h1.64c.035.4513.239.7941.612 1.0285.378.2343.868.3515 1.471.3515.616 0 1.144-.1259 1.582-.3776.438-.256.657-.6683.657-1.2368 0-.3341-.082-.6249-.247-.8722-.165-.2517-.397-.447-.696-.5859-.3-.1388-.654-.2083-1.061-.2083h-1.719v-1.3799h1.719c.611 0 1.063-.1389 1.353-.4166.296-.2778.443-.6249.443-1.0415 0-.447-.158-.805-.475-1.0741-.317-.2734-.766-.4101-1.347-.4101-.586 0-1.075.1324-1.465.3971-.391.2604-.597.5967-.618 1.009h-1.615c.018-.5382.182-1.0133.495-1.4256.312-.4166.738-.7421 1.276-.9764.538-.2387 1.154-.358 1.848-.358.703 0 1.313.1237 1.83.371.52.243.922.575 1.204.9959.286.4166.429.8897.429 1.4191 0 .5641-.158 1.0198-.475 1.367-.317.3471-.714.5945-1.191.742v.1042c.378.026.705.1475.983.3645.282.2126.501.4925.657.8397.157.3428.235.7225.235 1.1391 0 .6076-.163 1.137-.489 1.5883-.325.447-.772.7942-1.34 1.0415-.569.243-1.218.3646-1.947.3646-.707 0-1.341-.115-1.9-.345-.56-.2344-1.005-.5577-1.335-.9699-.325-.4166-.497-.8983-.514-1.4451zm12.625 2.786c-.634 0-1.209-.1193-1.725-.358-.517-.243-.927-.5924-1.23-1.048-.304-.46-.456-1.0155-.456-1.6664 0-.5729.113-1.0372.338-1.393.226-.3602.528-.6423.905-.8463.378-.2039.794-.3558 1.25-.4556.46-.1042.922-.1866 1.386-.2474.608-.0781 1.101-.1367 1.478-.1757.382-.0434.66-.115.833-.2148.178-.0998.267-.2734.267-.5208v-.052c0-.6423-.176-1.1414-.527-1.4972-.347-.3558-.875-.5338-1.582-.5338-.733 0-1.308.1606-1.725.4817-.416.3212-.709.664-.879 1.0285l-1.458-.5207c.261-.6076.608-1.0806 1.042-1.4191.438-.3428.915-.5815 1.432-.716.521-.1389 1.033-.2083 1.536-.2083.321 0 .69.039 1.107.1171.421.0738.826.2279 1.217.4622.395.2344.722.588.983 1.061.26.4731.39 1.1066.39 1.9008v6.5875h-1.536v-1.354h-.078c-.104.217-.278.4492-.521.6965-.243.2474-.566.4578-.97.6314-.403.1736-.896.2604-1.477.2604zm.234-1.38c.608 0 1.12-.1193 1.536-.358.421-.2387.738-.5468.951-.9243.217-.3776.325-.7747.325-1.1913v-1.406c-.065.0781-.208.1497-.429.2148-.217.0608-.469.115-.756.1628-.282.0434-.557.0824-.826.1171-.265.0304-.48.0565-.645.0781-.399.0521-.772.1367-1.119.2539-.343.1128-.621.2843-.833.5143-.209.2256-.313.5337-.313.9243 0 .5338.198.9373.592 1.2107.4.2691.905.4036 1.517.4036zm7.152 1.1457v-9.9984h7.864v9.9984h-1.537v-8.5664h-4.791v8.5664zm14.731.2083c-.903 0-1.695-.2149-2.376-.6445-.677-.4296-1.206-1.0306-1.588-1.8031-.378-.7724-.567-1.675-.567-2.7079 0-1.0415.189-1.9506.567-2.7274.382-.7768.911-1.38 1.588-1.8096.681-.4296 1.473-.6444 2.376-.6444s1.692.2148 2.369.6444c.682.4296 1.211 1.0328 1.589 1.8096.382.7768.572 1.6859.572 2.7274 0 1.0329-.19 1.9355-.572 2.7079-.378.7725-.907 1.3735-1.589 1.8031-.677.4296-1.466.6445-2.369.6445zm0-1.38c.686 0 1.25-.1758 1.692-.5273.443-.3515.771-.8137.983-1.3865.213-.5728.319-1.1934.319-1.8617s-.106-1.291-.319-1.8682c-.212-.5771-.54-1.0436-.983-1.3995-.442-.3558-1.006-.5337-1.692-.5337s-1.25.1779-1.692.5337c-.443.3559-.771.8224-.983 1.3995-.213.5772-.319 1.1999-.319 1.8682s.106 1.2889.319 1.8617c.212.5728.54 1.035.983 1.3865.442.3515 1.006.5273 1.692.5273zm5.99 1.1717v-1.4321h.365c.299 0 .549-.0586.748-.1758.2-.1215.36-.3319.482-.6314.126-.3037.221-.7247.286-1.2628.07-.5424.12-1.2324.15-2.07l.182-4.4263h6.666v9.9984h-1.536v-8.5664h-3.672l-.156 3.5672c-.034.8201-.108 1.5427-.221 2.1676-.109.6205-.276 1.1413-.501 1.5622-.222.421-.517.7378-.886.9504-.368.2126-.831.319-1.386.319zm18.389-5.7023v1.4321h-5.52v-1.4321zm-5.155-4.2961v9.9984h-1.536v-9.9984zm6.327 0v9.9984h-1.536v-9.9984zm4.342 7.7331 4.817-7.7331h1.77v9.9984h-1.536v-7.7332l-4.791 7.7332h-1.797v-9.9984h1.537zm14.869.1823 3.489-7.9154h1.458l-4.322 9.9984h-1.25l-4.244-9.9984h1.432zm-3.932-7.9154v9.9984h-1.536v-9.9984zm7.863 9.9984v-9.9984h1.536v9.9984zm9.504 0v-9.9984h7.863v9.9984h-1.536v-8.5664h-4.791v8.5664zm14.731.2083c-.903 0-1.695-.2149-2.376-.6445-.677-.4296-1.207-1.0306-1.589-1.8031-.377-.7724-.566-1.675-.566-2.7079 0-1.0415.189-1.9506.566-2.7274.382-.7768.912-1.38 1.589-1.8096.681-.4296 1.473-.6444 2.376-.6444.902 0 1.692.2148 2.369.6444.681.4296 1.211 1.0328 1.588 1.8096.382.7768.573 1.6859.573 2.7274 0 1.0329-.191 1.9355-.573 2.7079-.377.7725-.907 1.3735-1.588 1.8031-.677.4296-1.467.6445-2.369.6445zm0-1.38c.685 0 1.249-.1758 1.692-.5273s.77-.8137.983-1.3865.319-1.1934.319-1.8617-.106-1.291-.319-1.8682c-.213-.5771-.54-1.0436-.983-1.3995-.443-.3558-1.007-.5337-1.692-.5337-.686 0-1.25.1779-1.693.5337-.442.3559-.77.8224-.983 1.3995-.212.5772-.319 1.1999-.319 1.8682s.107 1.2889.319 1.8617c.213.5728.541 1.035.983 1.3865.443.3515 1.007.5273 1.693.5273zm5.99 1.1717v-1.4321h.364c.3 0 .549-.0586.749-.1758.2-.1215.36-.3319.482-.6314.126-.3037.221-.7247.286-1.2628.07-.5424.119-1.2324.15-2.07l.182-4.4263h6.666v9.9984h-1.537v-8.5664h-3.671l-.156 3.5672c-.035.8201-.109 1.5427-.221 2.1676-.109.6205-.276 1.1413-.502 1.5622-.221.421-.516.7378-.885.9504s-.831.319-1.386.319zm17.712 0v-8.5924h-2.656c-.599 0-1.07.1389-1.412.4166-.343.2777-.515.6596-.515 1.1456 0 .4774.154.8528.462 1.1262.313.2734.74.41 1.283.41h3.228v1.4321h-3.228c-.677 0-1.261-.1193-1.751-.358-.491-.2387-.868-.5793-1.133-1.022-.265-.447-.397-.9764-.397-1.5883 0-.6162.139-1.1456.417-1.5882.277-.4427.674-.7833 1.191-1.022.521-.2387 1.139-.358 1.855-.358h4.114v9.9984zm-6.666 0 2.838-4.9732h1.667l-2.838 4.9732zm19.042.2343c-.634 0-1.209-.1193-1.725-.358-.517-.243-.927-.5924-1.23-1.048-.304-.46-.456-1.0155-.456-1.6664 0-.5729.113-1.0372.338-1.393.226-.3602.528-.6423.905-.8463.378-.2039.794-.3558 1.25-.4556.46-.1042.922-.1866 1.386-.2474.608-.0781 1.101-.1367 1.478-.1757.382-.0434.66-.115.833-.2148.178-.0998.267-.2734.267-.5208v-.052c0-.6423-.176-1.1414-.527-1.4972-.347-.3558-.875-.5338-1.582-.5338-.733 0-1.308.1606-1.725.4817-.416.3212-.709.664-.879 1.0285l-1.458-.5207c.261-.6076.608-1.0806 1.042-1.4191.438-.3428.915-.5815 1.432-.716.521-.1389 1.033-.2083 1.536-.2083.321 0 .69.039 1.107.1171.421.0738.826.2279 1.217.4622.395.2344.722.588.983 1.061.26.4731.39 1.1066.39 1.9008v6.5875h-1.536v-1.354h-.078c-.104.217-.278.4492-.521.6965-.243.2474-.566.4578-.97.6314-.403.1736-.896.2604-1.477.2604zm.234-1.38c.608 0 1.12-.1193 1.536-.358.421-.2387.738-.5468.951-.9243.217-.3776.325-.7747.325-1.1913v-1.406c-.065.0781-.208.1497-.429.2148-.217.0608-.469.115-.756.1628-.282.0434-.557.0824-.826.1171-.265.0304-.48.0565-.645.0781-.399.0521-.772.1367-1.119.2539-.343.1128-.621.2843-.833.5143-.209.2256-.313.5337-.313.9243 0 .5338.198.9373.592 1.2107.4.2691.905.4036 1.517.4036zm7.152 1.1457v-9.9984h4.088c1.076 0 1.931.243 2.565.729.633.4861.95 1.1283.95 1.9268 0 .6075-.18 1.0784-.54 1.4125-.36.3298-.822.5533-1.387.6705.369.0521.727.1822 1.075.3905.351.2083.642.4948.872.8593.23.3602.345.8028.345 1.3279 0 .5121-.13.9699-.391 1.3735-.26.4036-.633.7225-1.119.9568-.486.2344-1.068.3516-1.745.3516zm1.458-1.4061h3.255c.53 0 .944-.1258 1.243-.3775.3-.2517.45-.5945.45-1.0285 0-.5164-.15-.9222-.45-1.2172-.299-.2995-.713-.4492-1.243-.4492h-3.255zm0-4.4003h2.63c.412 0 .766-.0564 1.061-.1692.295-.1172.521-.2821.677-.4948.161-.2169.241-.473.241-.7681 0-.4209-.176-.7507-.527-.9894-.352-.243-.836-.3645-1.452-.3645h-2.63zm8.262-2.76v-1.432h8.124v1.432h-3.281v8.5664h-1.536v-8.5664zm13.908 8.7747c-.903 0-1.695-.2149-2.376-.6445-.677-.4296-1.207-1.0306-1.589-1.8031-.377-.7724-.566-1.675-.566-2.7079 0-1.0415.189-1.9506.566-2.7274.382-.7768.912-1.38 1.589-1.8096.681-.4296 1.473-.6444 2.376-.6444.902 0 1.692.2148 2.369.6444.681.4296 1.211 1.0328 1.588 1.8096.382.7768.573 1.6859.573 2.7274 0 1.0329-.191 1.9355-.573 2.7079-.377.7725-.907 1.3735-1.588 1.8031-.677.4296-1.467.6445-2.369.6445zm0-1.38c.685 0 1.249-.1758 1.692-.5273s.77-.8137.983-1.3865.319-1.1934.319-1.8617-.106-1.291-.319-1.8682c-.213-.5771-.54-1.0436-.983-1.3995-.443-.3558-1.007-.5337-1.692-.5337-.686 0-1.25.1779-1.693.5337-.442.3559-.77.8224-.983 1.3995-.212.5772-.319 1.1999-.319 1.8682s.107 1.2889.319 1.8617c.213.5728.541 1.035.983 1.3865.443.3515 1.007.5273 1.693.5273zm12.343-.9113 3.489-7.9154h1.458l-4.322 9.9984h-1.25l-4.244-9.9984h1.432zm-3.932-7.9154v9.9984h-1.536v-9.9984zm7.864 9.9984v-9.9984h1.536v9.9984zm7.29.2343c-.633 0-1.208-.1193-1.725-.358-.516-.243-.926-.5924-1.23-1.048-.304-.46-.456-1.0155-.456-1.6664 0-.5729.113-1.0372.339-1.393.225-.3602.527-.6423.905-.8463.377-.2039.794-.3558 1.249-.4556.46-.1042.923-.1866 1.387-.2474.607-.0781 1.1-.1367 1.478-.1757.381-.0434.659-.115.833-.2148.178-.0998.267-.2734.267-.5208v-.052c0-.6423-.176-1.1414-.528-1.4972-.347-.3558-.874-.5338-1.581-.5338-.734 0-1.309.1606-1.725.4817-.417.3212-.71.664-.879 1.0285l-1.458-.5207c.26-.6076.607-1.0806 1.041-1.4191.439-.3428.916-.5815 1.432-.716.521-.1389 1.033-.2083 1.536-.2083.322 0 .69.039 1.107.1171.421.0738.827.2279 1.217.4622.395.2344.723.588.983 1.061.261.4731.391 1.1066.391 1.9008v6.5875h-1.536v-1.354h-.079c-.104.217-.277.4492-.52.6965-.243.2474-.567.4578-.97.6314-.404.1736-.896.2604-1.478.2604zm.235-1.38c.607 0 1.119-.1193 1.536-.358.421-.2387.737-.5468.95-.9243.217-.3776.326-.7747.326-1.1913v-1.406c-.065.0781-.209.1497-.43.2148-.217.0608-.469.115-.755.1628-.282.0434-.558.0824-.827.1171-.265.0304-.479.0565-.644.0781-.399.0521-.773.1367-1.12.2539-.343.1128-.62.2843-.833.5143-.208.2256-.312.5337-.312.9243 0 .5338.197.9373.592 1.2107.399.2691.905.4036 1.517.4036zm5.791-7.4207v-1.432h8.124v1.432h-3.281v8.5664h-1.536v-8.5664zm11.901 6.3011 4.817-7.7331h1.77v9.9984h-1.536v-7.7332l-4.791 7.7332h-1.796v-9.9984h1.536zm17.108-7.7331v9.9984h-1.536v-9.9984zm-.599 4.7648v1.4321c-.347.1302-.692.2452-1.035.345-.342.0955-.703.1714-1.08.2278-.378.0521-.792.0781-1.243.0781-1.133 0-2.042-.3059-2.728-.9178-.681-.6119-1.022-1.5297-1.022-2.7535v-3.2026h1.536v3.2026c0 .5121.098.933.293 1.2629.196.3298.46.5749.794.7355.335.1606.71.2409 1.127.2409.65 0 1.238-.0586 1.764-.1758.529-.1215 1.061-.2799 1.594-.4752zm7.61 5.4419c-.964 0-1.795-.2127-2.493-.638-.695-.4296-1.231-1.0284-1.608-1.7965-.373-.7725-.56-1.6708-.56-2.6949 0-1.0242.187-1.9268.56-2.7079.377-.7855.903-1.3974 1.575-1.8357.677-.4426 1.467-.6639 2.37-.6639.52 0 1.035.0868 1.542.2604.508.1735.97.4556 1.387.8462.416.3862.748.8983.996 1.5362.247.6379.371 1.4234.371 2.3564v.6509h-7.707v-1.3279h6.144c0-.5641-.112-1.0675-.338-1.5102-.221-.4426-.538-.7919-.95-1.048-.408-.256-.89-.384-1.445-.384-.612 0-1.142.1519-1.589.4556-.442.2995-.783.69-1.022 1.1717-.238.4817-.358.9981-.358 1.5492v.8853c0 .7551.13 1.3952.391 1.9203.265.5207.631.9178 1.1 1.1912.469.269 1.013.4036 1.634.4036.403 0 .768-.0564 1.093-.1693.33-.1171.614-.2907.853-.5207.239-.2344.423-.5251.553-.8723l1.485.4166c-.157.5034-.419.946-.788 1.3279-.369.3776-.825.6727-1.367.8853-.543.2083-1.152.3125-1.829.3125zm10.538 0c-.937 0-1.744-.2214-2.421-.664s-1.198-1.0523-1.562-1.8291c-.365-.7768-.547-1.6643-.547-2.6624 0-1.0154.187-1.9115.56-2.6883.377-.7812.902-1.3909 1.575-1.8292.677-.4426 1.467-.6639 2.369-.6639.703 0 1.337.1302 1.901.3905.564.2604 1.026.6249 1.387 1.0936.36.4687.583 1.0155.67 1.6404h-1.536c-.117-.4557-.378-.8593-.781-1.2108-.399-.3558-.938-.5337-1.615-.5337-.598 0-1.123.1562-1.575.4686-.447.3082-.796.7443-1.048 1.3084-.247.5598-.371 1.2173-.371 1.9724 0 .7724.122 1.445.365 2.0179.247.5728.594 1.0176 1.041 1.3344.452.3168.981.4752 1.588.4752.4 0 .762-.0695 1.088-.2083.325-.1389.601-.3385.826-.5989.226-.2604.386-.5728.482-.9373h1.536c-.087.5901-.301 1.1217-.644 1.5948-.339.4686-.788.8418-1.348 1.1196-.555.2734-1.202.4101-1.94.4101zm6.178-.2083v-9.9984h1.536v4.3482h1.016l3.593-4.3482h1.979l-4.036 4.8169 4.088 5.1815h-1.979l-3.281-4.2181h-1.38v4.2181zm11.382-2.2653 4.816-7.7331h1.771v9.9984h-1.536v-7.7332l-4.791 7.7332h-1.797v-9.9984h1.537zm31.48-4.166v1.4321h-18.33v-1.4321zm-663.4504 24.7347c-.3471.0044-.6965.0933-1.048.2669-.3471.1736-.6379.4036-.8722.6896-.23.282-.345.597-.345.944h-1.5102c0-.434.1042-.85.3125-1.25.2083-.3988.4882-.7546.8397-1.0671.3558-.3124.7594-.5598 1.2107-.742.4557-.1823.9265-.2734 1.4125-.2734.9113 0 1.6838.23 2.3174.69.6379.46 1.1218 1.0675 1.452 1.8225.334.755.501 1.575.501 2.461v.364c0 .881-.167 1.701-.501 2.461-.3302.755-.8141 1.362-1.452 1.822-.6336.46-1.4061.69-2.3174.69-.729 0-1.3778-.16-1.9463-.481-.5684-.326-1.0154-.76-1.3409-1.302-.3255-.543-.4882-1.146-.4882-1.81h1.5102c0 .378.1063.731.3189 1.061.217.326.4969.59.8397.794.3472.2.7161.302 1.1066.306.5815-.004 1.0763-.186 1.4842-.547.4079-.36.7182-.811.9308-1.353.2126-.543.319-1.09.319-1.641v-.364c0-.565-.1064-1.116-.319-1.654-.2083-.542-.5164-.991-.9243-1.3472-.4036-.3558-.9005-.5359-1.4907-.5403zm3.3589 2.9425v1.432h-4.3743v-1.432zm1.9445-2.8123v-1.432h8.124v1.432h-3.281v8.5663h-1.536v-8.5663zm13.907 8.7743c-.902 0-1.694-.214-2.376-.644-.676-.43-1.206-1.031-1.588-1.803-.377-.773-.566-1.675-.566-2.708 0-1.042.189-1.951.566-2.727.382-.7773.912-1.3805 1.588-1.8101.682-.4296 1.474-.6444 2.376-.6444.903 0 1.693.2148 2.37.6444.681.4296 1.211 1.0328 1.588 1.8101.382.776.573 1.685.573 2.727 0 1.033-.191 1.935-.573 2.708-.377.772-.907 1.373-1.588 1.803-.677.43-1.467.644-2.37.644zm0-1.38c.686 0 1.25-.175 1.693-.527.442-.351.77-.814.983-1.386.212-.573.319-1.194.319-1.862s-.107-1.291-.319-1.868c-.213-.577-.541-1.044-.983-1.3998-.443-.3558-1.007-.5337-1.693-.5337-.685 0-1.249.1779-1.692.5337s-.77.8228-.983 1.3998-.319 1.2-.319 1.868.106 1.289.319 1.862c.213.572.54 1.035.983 1.386.443.352 1.007.527 1.692.527zm13.568-1.093 4.816-7.7333h1.771v9.9983h-1.536v-7.733l-4.791 7.733h-1.797v-9.9983h1.537zm13.463 2.473c-.938 0-1.745-.221-2.422-.664-.677-.442-1.198-1.052-1.562-1.829-.365-.777-.547-1.664-.547-2.662 0-1.016.187-1.912.56-2.688.377-.7816.902-1.3913 1.575-1.8296.677-.4426 1.467-.6639 2.37-.6639.703 0 1.336.1302 1.9.3905.564.2604 1.027.6249 1.387 1.0936s.583 1.0154.67 1.6404h-1.536c-.117-.456-.378-.859-.781-1.2108-.399-.3558-.937-.5337-1.614-.5337-.599 0-1.124.1562-1.576.4686-.447.3079-.796.7439-1.048 1.3089-.247.559-.371 1.217-.371 1.972 0 .772.122 1.445.365 2.018.247.573.594 1.017 1.041 1.334.452.317.981.475 1.589.475.399 0 .761-.069 1.087-.208.325-.139.601-.338.826-.599.226-.26.387-.573.482-.937h1.536c-.087.59-.301 1.122-.644 1.595-.339.468-.788.842-1.348 1.119-.555.274-1.202.41-1.939.41zm6.177-.208v-9.9983h1.536v4.3483h1.016l3.593-4.3483h1.979l-4.036 4.8173 4.088 5.181h-1.979l-3.281-4.218h-1.38v4.218zm8.96 0v-1.432h.365c.299 0 .549-.059.748-.176.2-.121.36-.332.482-.631.126-.304.221-.725.286-1.263.07-.542.12-1.232.15-2.07l.182-4.4263h6.666v9.9983h-1.536v-8.5663h-3.672l-.156 3.5673c-.035.82-.108 1.543-.221 2.167-.109.621-.276 1.142-.501 1.563-.222.421-.517.737-.886.95s-.831.319-1.386.319zm16.488-5.624v1.432h-5.285v-1.432zm-3.983-4.3743v9.9983h-1.537v-9.9983zm7.056 10.2063c-.903 0-1.695-.214-2.376-.644-.677-.43-1.207-1.031-1.588-1.803-.378-.773-.567-1.675-.567-2.708 0-1.042.189-1.951.567-2.727.381-.7773.911-1.3805 1.588-1.8101.681-.4296 1.473-.6444 2.376-.6444.902 0 1.692.2148 2.369.6444.681.4296 1.211 1.0328 1.588 1.8101.382.776.573 1.685.573 2.727 0 1.033-.191 1.935-.573 2.708-.377.772-.907 1.373-1.588 1.803-.677.43-1.467.644-2.369.644zm0-1.38c.685 0 1.25-.175 1.692-.527.443-.351.77-.814.983-1.386.213-.573.319-1.194.319-1.862s-.106-1.291-.319-1.868-.54-1.044-.983-1.3998c-.442-.3558-1.007-.5337-1.692-.5337-.686 0-1.25.1779-1.693.5337-.442.3558-.77.8228-.983 1.3998-.212.577-.319 1.2-.319 1.868s.107 1.289.319 1.862c.213.572.541 1.035.983 1.386.443.352 1.007.527 1.693.527zm14.737-8.8263v9.9983h-1.536v-9.9983zm-.599 4.7653v1.432c-.347.13-.692.245-1.035.345-.343.095-.703.171-1.08.227-.378.052-.792.079-1.244.079-1.132 0-2.042-.306-2.727-.918-.682-.612-1.022-1.53-1.022-2.754v-3.2024h1.536v3.2024c0 .512.098.933.293 1.263s.46.575.794.736c.334.16.71.24 1.126.24.651 0 1.239-.058 1.764-.175.53-.122 1.061-.28 1.595-.475zm4.954 2.968 4.817-7.7333h1.77v9.9983h-1.536v-7.733l-4.791 7.733h-1.797v-9.9983h1.537zm8.04-6.3013v-1.432h8.124v1.432h-3.281v8.5663h-1.536v-8.5663zm19.582 8.7743c-.902 0-1.694-.214-2.376-.644-.677-.43-1.206-1.031-1.588-1.803-.378-.773-.566-1.675-.566-2.708 0-1.042.188-1.951.566-2.727.382-.7773.911-1.3805 1.588-1.8101.682-.4296 1.474-.6444 2.376-.6444.903 0 1.693.2148 2.37.6444.681.4296 1.21 1.0328 1.588 1.8101.382.776.573 1.685.573 2.727 0 1.033-.191 1.935-.573 2.708-.378.772-.907 1.373-1.588 1.803-.677.43-1.467.644-2.37.644zm0-1.38c.686 0 1.25-.175 1.693-.527.442-.351.77-.814.983-1.386.212-.573.318-1.194.318-1.862s-.106-1.291-.318-1.868c-.213-.577-.541-1.044-.983-1.3998-.443-.3558-1.007-.5337-1.693-.5337-.685 0-1.25.1779-1.692.5337-.443.3558-.771.8228-.983 1.3998-.213.577-.319 1.2-.319 1.868s.106 1.289.319 1.862c.212.572.54 1.035.983 1.386.442.352 1.007.527 1.692.527zm6.876-8.8263h1.536v8.5663h3.775v-8.5663h1.537v8.5663h3.775v-8.5663h1.536v9.9983h-12.159zm16.501 7.7333 4.817-7.7333h1.77v9.9983h-1.536v-7.733l-4.791 7.733h-1.796v-9.9983h1.536zm16.822-11.4827.781.9373c-.304.2951-.655.5012-1.055.6184-.399.1172-.85.1888-1.354.2148-.503.0261-1.063.0521-1.679.0781-.694.0261-1.269.1953-1.725.5078-.456.3124-.807.7637-1.055 1.3539-.247.5902-.405 1.3149-.475 2.1744h.13c.339-.6252.808-1.0852 1.407-1.3802.598-.2951 1.241-.4427 1.926-.4427.781 0 1.484.1823 2.109.5468s1.12.9048 1.484 1.6211c.365.716.547 1.599.547 2.649 0 1.046-.186 1.949-.56 2.708-.368.759-.887 1.345-1.555 1.757-.664.408-1.443.612-2.337.612s-1.677-.21-2.35-.631c-.673-.425-1.196-1.055-1.569-1.888-.373-.837-.56-1.872-.56-3.105v-1.067c0-2.2265.378-3.9146 1.133-5.0646.759-1.1499 1.901-1.7445 3.424-1.7835.538-.0174 1.018-.0217 1.439-.013.42.0086.787-.0109 1.1-.0586.312-.0478.577-.1628.794-.345zm-3.411 12.5757c.603 0 1.122-.152 1.556-.455.438-.304.774-.732 1.009-1.283.234-.555.351-1.208.351-1.959 0-.729-.119-1.35-.358-1.862-.234-.512-.571-.902-1.009-1.171-.438-.2694-.963-.4039-1.575-.4039-.447 0-.849.0759-1.204.2278-.356.1521-.66.3751-.912.6701-.251.295-.447.656-.586 1.081-.134.425-.206.911-.214 1.458 0 1.12.262 2.016.787 2.688.525.673 1.244 1.009 2.155 1.009zm6.802 1.172v-9.9983h1.536v4.3483h1.016l3.593-4.3483h1.979l-4.036 4.8173 4.088 5.181h-1.979l-3.281-4.218h-1.38v4.218zm11.382-2.265 4.817-7.7333h1.77v9.9983h-1.536v-7.733l-4.791 7.733h-1.796v-9.9983h1.536zm16.093 0 4.816-7.7333h1.771v9.9983h-1.536v-7.733l-4.791 7.733h-1.797v-9.9983h1.537zm15.546 6.014c-.261 0-.493-.021-.697-.065-.204-.039-.345-.078-.423-.117l.39-1.354c.374.096.703.13.99.104.286-.026.54-.154.761-.384.226-.225.432-.592.619-1.1l.286-.781-3.697-10.0503h1.666l2.76 7.9673h.104l2.76-7.9673h1.667l-4.244 11.4563c-.191.517-.428.944-.71 1.282-.282.343-.609.597-.983.762-.369.165-.785.247-1.249.247zm12.917-3.541c-.937 0-1.744-.221-2.421-.664-.677-.442-1.198-1.052-1.562-1.829-.365-.777-.547-1.664-.547-2.662 0-1.016.186-1.912.56-2.688.377-.7816.902-1.3913 1.575-1.8296.677-.4426 1.467-.6639 2.369-.6639.703 0 1.337.1302 1.901.3905.564.2604 1.026.6249 1.387 1.0936.36.4687.583 1.0154.67 1.6404h-1.536c-.117-.456-.378-.859-.781-1.2108-.4-.3558-.938-.5337-1.615-.5337-.599 0-1.124.1562-1.575.4686-.447.3079-.796.7439-1.048 1.3089-.247.559-.371 1.217-.371 1.972 0 .772.122 1.445.365 2.018.247.573.594 1.017 1.041 1.334.451.317.981.475 1.588.475.4 0 .762-.069 1.087-.208.326-.139.601-.338.827-.599.226-.26.386-.573.482-.937h1.536c-.087.59-.302 1.122-.644 1.595-.339.468-.788.842-1.348 1.119-.555.274-1.202.41-1.94.41zm6.178-.208v-9.9983h1.536v4.3483h1.015l3.594-4.3483h1.978l-4.035 4.8173 4.088 5.181h-1.979l-3.281-4.218h-1.38v4.218zm13.495.208c-.902 0-1.694-.214-2.376-.644-.677-.43-1.206-1.031-1.588-1.803-.377-.773-.566-1.675-.566-2.708 0-1.042.189-1.951.566-2.727.382-.7773.911-1.3805 1.588-1.8101.682-.4296 1.474-.6444 2.376-.6444.903 0 1.693.2148 2.37.6444.681.4296 1.21 1.0328 1.588 1.8101.382.776.573 1.685.573 2.727 0 1.033-.191 1.935-.573 2.708-.378.772-.907 1.373-1.588 1.803-.677.43-1.467.644-2.37.644zm0-1.38c.686 0 1.25-.175 1.693-.527.442-.351.77-.814.983-1.386.212-.573.319-1.194.319-1.862s-.107-1.291-.319-1.868c-.213-.577-.541-1.044-.983-1.3998-.443-.3558-1.007-.5337-1.693-.5337-.685 0-1.25.1779-1.692.5337-.443.3558-.77.8228-.983 1.3998s-.319 1.2-.319 1.868.106 1.289.319 1.862c.213.572.54 1.035.983 1.386.442.352 1.007.527 1.692.527zm6.876 4.921v-13.7473h1.484v1.5883h.182c.113-.1736.269-.3949.469-.664.204-.2734.495-.5164.872-.729.382-.217.898-.3255 1.549-.3255.842 0 1.584.2105 2.227.6314.642.4209 1.143 1.0176 1.503 1.7901.36.772.541 1.684.541 2.734 0 1.059-.181 1.977-.541 2.753-.36.773-.859 1.372-1.497 1.797-.638.421-1.373.631-2.207.631-.642 0-1.156-.106-1.542-.319-.387-.217-.684-.462-.892-.735-.208-.278-.369-.508-.482-.69h-.13v5.285zm1.51-8.748c0 .755.111 1.421.332 1.998.221.573.545 1.022.97 1.348.425.321.946.481 1.562.481.642 0 1.178-.169 1.608-.507.434-.343.759-.803.976-1.38.222-.582.332-1.228.332-1.94 0-.703-.108-1.337-.325-1.901-.213-.568-.536-1.018-.97-1.3473-.43-.3342-.97-.5012-1.621-.5012-.625 0-1.15.1584-1.575.4752-.425.3123-.747.7503-.964 1.3153-.217.559-.325 1.212-.325 1.959zm11.196 2.734 4.817-7.7333h1.771v9.9983h-1.537v-7.733l-4.791 7.733h-1.796v-9.9983h1.536zm8.041-6.3013v-1.432h8.123v1.432h-3.28v8.5663h-1.536v-8.5663zm15.52 8.5663v-9.9983h7.863v9.9983h-1.536v-8.5663h-4.791v8.5663zm10.669 3.749v-13.7473h1.484v1.5883h.182c.113-.1736.269-.3949.469-.664.204-.2734.494-.5164.872-.729.382-.217.898-.3255 1.549-.3255.842 0 1.584.2105 2.226.6314.643.4209 1.144 1.0176 1.504 1.7901.36.772.54 1.684.54 2.734 0 1.059-.18 1.977-.54 2.753-.36.773-.859 1.372-1.497 1.797-.638.421-1.374.631-2.207.631-.642 0-1.156-.106-1.543-.319-.386-.217-.683-.462-.891-.735-.209-.278-.369-.508-.482-.69h-.13v5.285zm1.51-8.748c0 .755.11 1.421.332 1.998.221.573.544 1.022.97 1.348.425.321.946.481 1.562.481.642 0 1.178-.169 1.608-.507.434-.343.759-.803.976-1.38.221-.582.332-1.228.332-1.94 0-.703-.108-1.337-.325-1.901-.213-.568-.536-1.018-.97-1.3473-.43-.3342-.97-.5012-1.621-.5012-.625 0-1.15.1584-1.575.4752-.426.3123-.747.7503-.964 1.3153-.217.559-.325 1.212-.325 1.959zm13.721 5.207c-.902 0-1.694-.214-2.375-.644-.677-.43-1.207-1.031-1.589-1.803-.377-.773-.566-1.675-.566-2.708 0-1.042.189-1.951.566-2.727.382-.7773.912-1.3805 1.589-1.8101.681-.4296 1.473-.6444 2.375-.6444.903 0 1.693.2148 2.37.6444.681.4296 1.211 1.0328 1.588 1.8101.382.776.573 1.685.573 2.727 0 1.033-.191 1.935-.573 2.708-.377.772-.907 1.373-1.588 1.803-.677.43-1.467.644-2.37.644zm0-1.38c.686 0 1.25-.175 1.693-.527.443-.351.77-.814.983-1.386.212-.573.319-1.194.319-1.862s-.107-1.291-.319-1.868c-.213-.577-.54-1.044-.983-1.3998s-1.007-.5337-1.693-.5337c-.685 0-1.249.1779-1.692.5337s-.77.8228-.983 1.3998-.319 1.2-.319 1.868.106 1.289.319 1.862c.213.572.54 1.035.983 1.386.443.352 1.007.527 1.692.527zm14.739-8.8263v8.5663h1.406v4.661h-1.536v-3.229h-7.733v-9.9983h1.536v8.5663h4.791v-8.5663zm7.857 10.2063c-.963 0-1.794-.212-2.493-.638-.694-.429-1.23-1.028-1.608-1.796-.373-.773-.56-1.671-.56-2.695s.187-1.927.56-2.708c.378-.7854.903-1.3973 1.575-1.8356.677-.4426 1.467-.6639 2.37-.6639.521 0 1.035.0868 1.543.2604.507.1735.97.4556 1.386.8462.417.3862.749.8983.996 1.5359.247.638.371 1.424.371 2.357v.651h-7.707v-1.328h6.145c0-.564-.113-1.068-.339-1.51-.221-.443-.538-.7924-.95-1.0485-.408-.256-.89-.384-1.445-.384-.612 0-1.141.1519-1.588.4556-.443.2999-.784.6899-1.022 1.1719-.239.482-.358.998-.358 1.549v.885c0 .755.13 1.395.39 1.921.265.52.632.917 1.1 1.191.469.269 1.014.403 1.634.403.404 0 .768-.056 1.094-.169.33-.117.614-.291.852-.521.239-.234.424-.525.554-.872l1.484.417c-.156.503-.419.946-.788 1.328-.369.377-.824.672-1.367.885-.542.208-1.152.312-1.829.312zm10.539 0c-.938 0-1.745-.221-2.422-.664-.677-.442-1.197-1.052-1.562-1.829-.364-.777-.547-1.664-.547-2.662 0-1.016.187-1.912.56-2.688.378-.7816.903-1.3913 1.575-1.8296.677-.4426 1.467-.6639 2.37-.6639.703 0 1.336.1302 1.9.3905.565.2604 1.027.6249 1.387 1.0936s.584 1.0154.67 1.6404h-1.536c-.117-.456-.377-.859-.781-1.2108-.399-.3558-.937-.5337-1.614-.5337-.599 0-1.124.1562-1.575.4686-.447.3079-.797.7439-1.048 1.3089-.248.559-.372 1.217-.372 1.972 0 .772.122 1.445.365 2.018.247.573.595 1.017 1.042 1.334.451.317.98.475 1.588.475.399 0 .761-.069 1.087-.208.325-.139.601-.338.827-.599.225-.26.386-.573.481-.937h1.536c-.086.59-.301 1.122-.644 1.595-.338.468-.788.842-1.347 1.119-.556.274-1.202.41-1.94.41zm10.239 0c-.937 0-1.744-.221-2.421-.664-.677-.442-1.198-1.052-1.563-1.829-.364-.777-.546-1.664-.546-2.662 0-1.016.186-1.912.559-2.688.378-.7816.903-1.3913 1.576-1.8296.677-.4426 1.466-.6639 2.369-.6639.703 0 1.337.1302 1.901.3905.564.2604 1.026.6249 1.386 1.0936s.584 1.0154.671 1.6404h-1.537c-.117-.456-.377-.859-.781-1.2108-.399-.3558-.937-.5337-1.614-.5337-.599 0-1.124.1562-1.575.4686-.447.3079-.797.7439-1.048 1.3089-.248.559-.371 1.217-.371 1.972 0 .772.121 1.445.364 2.018.248.573.595 1.017 1.042 1.334.451.317.98.475 1.588.475.399 0 .762-.069 1.087-.208.326-.139.601-.338.827-.599.225-.26.386-.573.481-.937h1.537c-.087.59-.302 1.122-.645 1.595-.338.468-.787.842-1.347 1.119-.556.274-1.202.41-1.94.41zm15.395 0c-.903 0-1.695-.214-2.376-.644-.677-.43-1.207-1.031-1.589-1.803-.377-.773-.566-1.675-.566-2.708 0-1.042.189-1.951.566-2.727.382-.7773.912-1.3805 1.589-1.8101.681-.4296 1.473-.6444 2.376-.6444.902 0 1.692.2148 2.369.6444.681.4296 1.211 1.0328 1.588 1.8101.382.776.573 1.685.573 2.727 0 1.033-.191 1.935-.573 2.708-.377.772-.907 1.373-1.588 1.803-.677.43-1.467.644-2.369.644zm0-1.38c.685 0 1.249-.175 1.692-.527.443-.351.77-.814.983-1.386.213-.573.319-1.194.319-1.862s-.106-1.291-.319-1.868-.54-1.044-.983-1.3998-1.007-.5337-1.692-.5337c-.686 0-1.25.1779-1.693.5337-.442.3558-.77.8228-.983 1.3998-.212.577-.319 1.2-.319 1.868s.107 1.289.319 1.862c.213.572.541 1.035.983 1.386.443.352 1.007.527 1.693.527zm10.937 4.583v-16.7421h1.536v16.7421zm0-3.203c-.677 0-1.293-.121-1.849-.364-.555-.248-1.032-.597-1.432-1.048-.399-.456-.707-1-.924-1.634s-.325-1.337-.325-2.109c0-.781.108-1.489.325-2.122.217-.638.525-1.1848.924-1.6405.4-.4556.877-.805 1.432-1.048.556-.2473 1.172-.371 1.849-.371h.469v10.3365zm0-1.38h.26v-7.5765h-.26c-.512 0-.957.1041-1.334.3124-.378.204-.69.4841-.938.8401-.243.351-.425.755-.547 1.21-.117.456-.175.936-.175 1.439 0 .668.106 1.289.319 1.862.212.572.54 1.035.983 1.386.442.352 1.006.527 1.692.527zm1.536 1.38h-.468v-10.3365h.468c.677 0 1.293.1237 1.849.371.555.243 1.033.5924 1.432 1.048.399.4557.707 1.0025.924 1.6405.217.633.326 1.341.326 2.122 0 .772-.109 1.475-.326 2.109s-.525 1.178-.924 1.634c-.399.451-.877.8-1.432 1.048-.556.243-1.172.364-1.849.364zm0-1.38c.517 0 .961-.099 1.335-.299.377-.204.687-.482.93-.833.248-.356.43-.76.547-1.211.122-.456.183-.933.183-1.432 0-.668-.107-1.291-.319-1.868-.213-.577-.541-1.044-.983-1.3998-.443-.3558-1.007-.5337-1.693-.5337h-.26v7.5765zm10.941 1.38c-.903 0-1.695-.214-2.376-.644-.677-.43-1.206-1.031-1.588-1.803-.378-.773-.567-1.675-.567-2.708 0-1.042.189-1.951.567-2.727.382-.7773.911-1.3805 1.588-1.8101.681-.4296 1.473-.6444 2.376-.6444.902 0 1.692.2148 2.369.6444.682.4296 1.211 1.0328 1.589 1.8101.381.776.572 1.685.572 2.727 0 1.033-.191 1.935-.572 2.708-.378.772-.907 1.373-1.589 1.803-.677.43-1.467.644-2.369.644zm0-1.38c.686 0 1.25-.175 1.692-.527.443-.351.771-.814.983-1.386.213-.573.319-1.194.319-1.862s-.106-1.291-.319-1.868c-.212-.577-.54-1.044-.983-1.3998-.442-.3558-1.006-.5337-1.692-.5337s-1.25.1779-1.693.5337c-.442.3558-.77.8228-.982 1.3998-.213.577-.319 1.2-.319 1.868s.106 1.289.319 1.862c.212.572.54 1.035.982 1.386.443.352 1.007.527 1.693.527zm6.875 4.921v-13.7473h1.484v1.5883h.183c.113-.1736.269-.3949.468-.664.204-.2734.495-.5164.873-.729.382-.217.898-.3255 1.549-.3255.842 0 1.584.2105 2.226.6314s1.144 1.0176 1.504 1.7901c.36.772.54 1.684.54 2.734 0 1.059-.18 1.977-.54 2.753-.36.773-.859 1.372-1.497 1.797-.638.421-1.374.631-2.207.631-.642 0-1.157-.106-1.543-.319-.386-.217-.683-.462-.892-.735-.208-.278-.368-.508-.481-.69h-.13v5.285zm1.511-8.748c0 .755.11 1.421.332 1.998.221.573.544 1.022.969 1.348.426.321.946.481 1.563.481.642 0 1.178-.169 1.607-.507.434-.343.76-.803.977-1.38.221-.582.332-1.228.332-1.94 0-.703-.109-1.337-.326-1.901-.212-.568-.536-1.018-.97-1.3473-.429-.3342-.969-.5012-1.62-.5012-.625 0-1.15.1584-1.576.4752-.425.3123-.746.7503-.963 1.3153-.217.559-.325 1.212-.325 1.959zm15.127 2.916 3.489-7.9153h1.458l-4.322 9.9983h-1.25l-4.244-9.9983h1.432zm-3.931-7.9153v9.9983h-1.537v-9.9983zm7.863 9.9983v-9.9983h1.536v9.9983zm3.463 0v-1.432h.364c.3 0 .549-.059.749-.176.2-.121.36-.332.482-.631.126-.304.221-.725.286-1.263.07-.542.12-1.232.15-2.07l.182-4.4263h6.666v9.9983h-1.536v-8.5663h-3.672l-.156 3.5673c-.035.82-.108 1.543-.221 2.167-.109.621-.276 1.142-.502 1.563-.221.421-.516.737-.885.95s-.831.319-1.386.319zm15.889.208c-.963 0-1.794-.212-2.493-.638-.694-.429-1.23-1.028-1.608-1.796-.373-.773-.559-1.671-.559-2.695s.186-1.927.559-2.708c.378-.7854.903-1.3973 1.576-1.8356.677-.4426 1.466-.6639 2.369-.6639.521 0 1.035.0868 1.543.2604.508.1735.97.4556 1.386.8462.417.3862.749.8983.996 1.5359.248.638.371 1.424.371 2.357v.651h-7.707v-1.328h6.145c0-.564-.113-1.068-.338-1.51-.222-.443-.539-.7924-.951-1.0485-.408-.256-.889-.384-1.445-.384-.612 0-1.141.1519-1.588.4556-.443.2999-.783.6899-1.022 1.1719s-.358.998-.358 1.549v.885c0 .755.13 1.395.39 1.921.265.52.632.917 1.1 1.191.469.269 1.014.403 1.634.403.404 0 .768-.056 1.094-.169.33-.117.614-.291.853-.521.238-.234.423-.525.553-.872l1.484.417c-.156.503-.419.946-.788 1.328-.368.377-.824.672-1.367.885-.542.208-1.152.312-1.829.312zm13.169-5.91v1.432h-5.52v-1.432zm-5.156-4.2963v9.9983h-1.536v-9.9983zm6.327 0v9.9983h-1.536v-9.9983zm4.342 7.7333 4.817-7.7333h1.771v9.9983h-1.537v-7.733l-4.79 7.733h-1.797v-9.9983h1.536zm15.416 2.265v-8.5923h-2.656c-.599 0-1.07.1389-1.412.4166-.343.2777-.515.6597-.515 1.1457 0 .477.154.853.463 1.126.312.273.739.41 1.282.41h3.229v1.432h-3.229c-.677 0-1.261-.119-1.751-.358-.49-.238-.868-.579-1.133-1.022-.264-.447-.397-.976-.397-1.588 0-.616.139-1.1457.417-1.5883.278-.4427.675-.7833 1.191-1.022.521-.2387 1.139-.358 1.855-.358h4.114v9.9983zm-6.666 0 2.838-4.973h1.667l-2.838 4.973zm15.475-2.552h1.64c.035.452.239.795.612 1.029.378.234.868.351 1.471.351.616 0 1.144-.125 1.582-.377.438-.256.657-.668.657-1.237 0-.334-.082-.625-.247-.872-.165-.252-.397-.447-.696-.586-.3-.139-.654-.208-1.062-.208h-1.718v-1.38h1.718c.612 0 1.064-.139 1.354-.417.296-.278.443-.625.443-1.041 0-.447-.158-.8054-.475-1.0745-.317-.2734-.766-.4101-1.348-.4101-.585 0-1.074.1324-1.464.3971-.391.2604-.597.5965-.619 1.0085h-1.614c.017-.538.182-1.0128.495-1.4251.312-.4166.738-.7421 1.276-.9764.538-.2387 1.154-.358 1.848-.358.703 0 1.313.1237 1.829.371.521.243.923.575 1.205.9959.286.4166.429.8896.429 1.4186 0 .565-.158 1.02-.475 1.367-.317.348-.714.595-1.191.743v.104c.377.026.705.147.983.364.282.213.501.493.657.84.157.343.235.722.235 1.139 0 .608-.163 1.137-.489 1.588-.325.447-.772.794-1.341 1.042-.568.243-1.217.364-1.946.364-.707 0-1.341-.115-1.901-.345-.559-.234-1.004-.557-1.334-.97-.325-.416-.497-.898-.514-1.445zm12.625 2.786c-.634 0-1.209-.119-1.725-.358-.517-.243-.927-.592-1.231-1.048-.303-.46-.455-1.015-.455-1.666 0-.573.113-1.037.338-1.393.226-.36.528-.642.905-.846.378-.204.794-.356 1.25-.456.46-.104.922-.187 1.386-.247.608-.078 1.1-.137 1.478-.176.382-.043.66-.115.833-.215.178-.1.267-.273.267-.521v-.052c0-.642-.176-1.141-.527-1.4968-.347-.3558-.875-.5338-1.582-.5338-.733 0-1.308.1606-1.725.4817-.417.3209-.709.6639-.879 1.0289l-1.458-.521c.261-.6077.608-1.0807 1.042-1.4192.438-.3428.915-.5815 1.432-.716.521-.1389 1.033-.2083 1.536-.2083.321 0 .69.039 1.107.1171.421.0738.826.2279 1.217.4622.395.2344.722.588.983 1.061.26.4732.39 1.1062.39 1.9012v6.587h-1.536v-1.354h-.078c-.104.217-.278.449-.521.697-.243.247-.566.457-.97.631-.403.174-.896.26-1.477.26zm.234-1.38c.608 0 1.12-.119 1.536-.358.421-.238.738-.546.951-.924.217-.377.325-.775.325-1.191v-1.406c-.065.078-.208.15-.43.215-.217.06-.468.115-.755.162-.282.044-.557.083-.826.118-.265.03-.48.056-.645.078-.399.052-.772.136-1.119.254-.343.112-.621.284-.834.514-.208.225-.312.534-.312.924 0 .534.197.937.592 1.211.4.269.905.403 1.517.403zm13.167 1.146v-8.5923h-2.656c-.599 0-1.07.1389-1.412.4166-.343.2777-.515.6597-.515 1.1457 0 .477.154.853.462 1.126.313.273.74.41 1.283.41h3.228v1.432h-3.228c-.677 0-1.261-.119-1.751-.358-.491-.238-.868-.579-1.133-1.022-.265-.447-.397-.976-.397-1.588 0-.616.139-1.1457.417-1.5883.277-.4427.674-.7833 1.191-1.022.521-.2387 1.139-.358 1.855-.358h4.114v9.9983zm-6.666 0 2.838-4.973h1.667l-2.838 4.973zm10.944 0v-9.9983h4.088c1.076 0 1.931.243 2.565.729.633.4861.95 1.1283.95 1.9263 0 .608-.18 1.079-.54 1.413-.36.33-.823.553-1.387.67.369.053.727.183 1.074.391.352.208.643.495.873.859.23.36.345.803.345 1.328 0 .512-.131.97-.391 1.374-.26.403-.634.722-1.12.957-.486.234-1.067.351-1.744.351zm1.458-1.406h3.255c.529 0 .944-.126 1.243-.378.3-.251.449-.594.449-1.028 0-.516-.149-.922-.449-1.217-.299-.3-.714-.449-1.243-.449h-3.255zm0-4.4h2.63c.412 0 .766-.057 1.061-.17.295-.117.521-.282.677-.494.161-.217.241-.473.241-.768 0-.421-.176-.751-.527-.9898-.352-.243-.836-.3645-1.452-.3645h-2.63zm8.835 5.806v-9.9983h1.536v4.3483h1.016l3.593-4.3483h1.979l-4.036 4.8173 4.088 5.181h-1.979l-3.281-4.218h-1.38v4.218zm11.382-2.265 4.817-7.7333h1.77v9.9983h-1.536v-7.733l-4.791 7.733h-1.796v-9.9983h1.536z" fill="#32393e"/><g clip-path="url(#a)"><path d="m817.905 74.7585 5.247-5.2585-5.247-5.2585 1.615-1.6154 6.874 6.8739-6.874 6.8739z" fill="#32383d"/></g></svg>