<svg fill="none" height="462" viewBox="0 0 860 462" width="860" xmlns="http://www.w3.org/2000/svg" xmlns:xlink="http://www.w3.org/1999/xlink"><filter id="a" color-interpolation-filters="sRGB" filterUnits="userSpaceOnUse" height="48.9789" width="48.9788" x="615.122" y="188.863"><feFlood flood-opacity="0" result="BackgroundImageFix"/><feColorMatrix in="SourceAlpha" result="hardAlpha" type="matrix" values="0 0 0 0 0 0 0 0 0 0 0 0 0 0 0 0 0 0 127 0"/><feOffset dy="2"/><feGaussianBlur stdDeviation="3.5"/><feColorMatrix type="matrix" values="0 0 0 0 1 0 0 0 0 0.776471 0 0 0 0 0.2 0 0 0 0.07 0"/><feBlend in2="BackgroundImageFix" mode="normal" result="effect1_dropShadow_983_12830"/><feBlend in="SourceGraphic" in2="effect1_dropShadow_983_12830" mode="normal" result="shape"/></filter><linearGradient id="b"><stop offset="0" stop-color="#cde7ff"/><stop offset="1" stop-color="#d9d9d9" stop-opacity="0"/></linearGradient><linearGradient id="c" gradientUnits="userSpaceOnUse" x1="382.776" x2="677.241" xlink:href="#b" y1="178.548" y2="211.585"/><linearGradient id="d" gradientUnits="userSpaceOnUse" x1="382.776" x2="677.241" xlink:href="#b" y1="510.544" y2="543.582"/><clipPath id="e"><path d="m73.1914 64.0425h16.199v16.199h-16.199z"/></clipPath><clipPath id="f"><path d="m73.1914 117.268h374.891v177.032h-374.891z"/></clipPath><clipPath id="g"><path d="m453.787 36.5957h326.832v333.391h-326.832z"/></clipPath><clipPath id="h"><rect height="34.9787" rx="17.4894" width="34.9787" x="622.122" y="193.863"/></clipPath><rect fill="#fff" height="462" rx="40" width="860"/><rect height="460" rx="39" stroke="#000" stroke-opacity=".08" stroke-width="2" width="858" x="1" y="1"/><rect fill="#fff" height="397.979" rx="9.25657" width="786.809" x="36.5957" y="36.5957"/><path d="m73.1914 64.0425h713.617v263.489h-713.617z" fill="#fff"/><g clip-path="url(#e)"><path d="m77.3349 79.0776c-.2812 0-.5202-.0985-.7171-.2953-.1969-.1969-.2953-.4359-.2953-.7172v-7.3233c0-.2812.0984-.5202.2953-.7171s.4359-.2953.7171-.2953h1.1812v-1.6199c0-.8887.3122-1.6452.9365-2.2696.6244-.6243 1.3809-.9365 2.2696-.9365s1.6452.3122 2.2695.9365c.6244.6244.9365 1.3809.9365 2.2696v1.6199h1.1812c.2812 0 .5203.0984.7171.2953.1969.1969.2953.4359.2953.7171v7.3233c0 .2813-.0984.5203-.2953.7172-.1968.1968-.4359.2953-.7171.2953zm4.3873-3.3748c.36 0 .6665-.1238.9196-.3713.2531-.2474.3797-.5455.3797-.8943 0-.3375-.1266-.644-.3797-.9196s-.5596-.4134-.9196-.4134-.6665.1378-.9197.4134c-.2531.2756-.3796.5821-.3796.9196 0 .3488.1265.6469.3796.8943.2532.2475.5597.3713.9197.3713zm-2.1936-5.9734h4.3872v-1.6199c0-.6075-.2137-1.1249-.6412-1.5524s-.945-.6412-1.5524-.6412c-.6075 0-1.125.2137-1.5524.6412-.4275.4275-.6412.9449-.6412 1.5524z" fill="#04b34a"/></g><path d="m94.7195 69.1043v-1.2779h6.7135v1.2779h-2.6005v7.1372h-1.512v-7.1372zm16.0805 2.9296c0 .9067-.17 1.6833-.51 2.3298-.337.6437-.797 1.1368-1.38 1.4792-.581.3424-1.24.5136-1.977.5136-.736 0-1.397-.1712-1.98-.5136-.581-.3452-1.041-.8396-1.381-1.4833-.337-.6465-.505-1.4217-.505-2.3257 0-.9067.168-1.6819.505-2.3256.34-.6465.8-1.1409 1.381-1.4833.583-.3425 1.244-.5137 1.98-.5137.737 0 1.396.1712 1.977.5137.583.3424 1.043.8368 1.38 1.4833.34.6437.51 1.4189.51 2.3256zm-1.533 0c0-.6382-.1-1.1765-.3-1.6148-.197-.441-.471-.7738-.821-.9984-.351-.2274-.755-.3411-1.213-.3411-.457 0-.861.1137-1.212.3411-.35.2246-.626.5574-.826.9984-.197.4383-.295.9766-.295 1.6148 0 .6383.098 1.1779.295 1.6189.2.4383.476.7711.826.9985.351.2246.755.3369 1.212.3369.458 0 .862-.1123 1.213-.3369.35-.2274.624-.5602.821-.9985.2-.441.3-.9806.3-1.6189zm3.353 4.2076v-1.2656l.239-.0123c.323-.0192.579-.1356.768-.3493.192-.2136.333-.5574.423-1.0313.093-.4739.155-1.1094.185-1.9066l.14-3.85h5.514v8.4151h-1.492v-7.1619h-2.601l-.131 3.0694c-.038.9204-.14 1.6833-.304 2.2886-.162.6054-.427 1.0574-.797 1.356-.367.2986-.878.4479-1.533.4479zm10.888-5.165h2.137c.643 0 1.195.1055 1.656.3164.462.2082.817.5027 1.064.8834.246.3808.37.8287.37 1.3437 0 .5177-.124.9738-.37 1.3682-.247.3918-.602.6986-1.064.9204-.461.2219-1.013.3329-1.656.3329h-3.152v-8.4151h1.529v7.1659h1.623c.339 0 .627-.0643.862-.1931.236-.1287.414-.2986.535-.5095.123-.2109.185-.4396.185-.6862 0-.3561-.137-.6588-.411-.908-.272-.2521-.662-.3781-1.171-.3781h-2.137zm12.676 5.165-2.769-3.6775h-.748v3.6775h-1.525v-8.4151h1.525v3.4597h.382l2.991-3.4597h1.878l-3.324 3.8377 3.468 4.5774zm10.906-4.2076c0 .9067-.169 1.6833-.509 2.3298-.337.6437-.797 1.1368-1.381 1.4792-.58.3424-1.239.5136-1.976.5136s-1.397-.1712-1.981-.5136c-.58-.3452-1.041-.8396-1.38-1.4833-.337-.6465-.506-1.4217-.506-2.3257 0-.9067.169-1.6819.506-2.3256.339-.6465.8-1.1409 1.38-1.4833.584-.3425 1.244-.5137 1.981-.5137s1.396.1712 1.976.5137c.584.3424 1.044.8368 1.381 1.4833.34.6437.509 1.4189.509 2.3256zm-1.532 0c0-.6382-.1-1.1765-.3-1.6148-.197-.441-.471-.7738-.822-.9984-.351-.2274-.755-.3411-1.212-.3411-.458 0-.862.1137-1.212.3411-.351.2246-.626.5574-.826.9984-.197.4383-.296.9766-.296 1.6148 0 .6383.099 1.1779.296 1.6189.2.4383.475.7711.826.9985.35.2246.754.3369 1.212.3369.457 0 .861-.1123 1.212-.3369.351-.2274.625-.5602.822-.9985.2-.441.3-.9806.3-1.6189zm7.148 6.2374v-3.2748h.563c.189-.1507.366-.363.53-.6369.165-.274.304-.6492.42-1.1259.115-.4766.194-1.0929.238-1.849l.222-3.5583h5.378v7.1701h.937v3.2665h-1.463v-2.0215h-5.362v2.0298zm2.338-3.2748h3.551v-5.8922h-2.544l-.131 2.2804c-.036.5725-.094 1.0848-.173 1.5367-.079.452-.179.8506-.3 1.1957-.12.3425-.255.6356-.403.8794zm7.571 1.245v-1.2656l.239-.0123c.323-.0192.579-.1356.768-.3493.192-.2136.333-.5574.423-1.0313.093-.4739.155-1.1094.185-1.9066l.14-3.85h5.514v8.4151h-1.492v-7.1619h-2.601l-.131 3.0694c-.038.9204-.14 1.6833-.304 2.2886-.162.6054-.427 1.0574-.797 1.356-.367.2986-.878.4479-1.533.4479zm16.069 0h-1.528v-7.1413h-1.397c-.378 0-.689.0561-.933.1684-.241.1096-.42.2712-.538.4849-.115.2109-.173.4657-.173.7642 0 .2986.058.5506.173.7561.115.2027.293.3574.534.4643.244.1041.553.1561.929.1561h2.046v1.2656h-2.252c-.646 0-1.191-.1069-1.635-.3205-.444-.2164-.781-.5219-1.011-.9163-.227-.3972-.341-.8656-.341-1.4053 0-.5369.112-1.0067.337-1.4093.227-.4054.561-.7205 1.002-.9451s.984-.3369 1.628-.3369h3.159zm-4.351-3.8131h1.664l-2.046 3.8131h-1.701zm18.244-.3945c0 .9067-.17 1.6833-.51 2.3298-.337.6437-.797 1.1368-1.38 1.4792-.581.3424-1.24.5136-1.977.5136s-1.397-.1712-1.98-.5136c-.581-.3452-1.041-.8396-1.381-1.4833-.337-.6465-.505-1.4217-.505-2.3257 0-.9067.168-1.6819.505-2.3256.34-.6465.8-1.1409 1.381-1.4833.583-.3425 1.243-.5137 1.98-.5137s1.396.1712 1.977.5137c.583.3424 1.043.8368 1.38 1.4833.34.6437.51 1.4189.51 2.3256zm-1.533 0c0-.6382-.1-1.1765-.3-1.6148-.197-.441-.471-.7738-.822-.9984-.35-.2274-.754-.3411-1.212-.3411-.457 0-.861.1137-1.212.3411-.35.2246-.626.5574-.826.9984-.197.4383-.296.9766-.296 1.6148 0 .6383.099 1.1779.296 1.6189.2.4383.476.7711.826.9985.351.2246.755.3369 1.212.3369.458 0 .862-.1123 1.212-.3369.351-.2274.625-.5602.822-.9985.2-.441.3-.9806.3-1.6189zm7.08-3.2707h1.701c.657 0 1.241.1411 1.75.4232.51.2822.91.6794 1.2 1.1916.291.5095.436 1.1067.436 1.7915 0 .6684-.145 1.2532-.436 1.7545-.29.5013-.69.8917-1.2 1.1711-.509.2766-1.093.415-1.75.415h-1.701c-.66 0-1.246-.137-1.759-.4109-.509-.2767-.909-.6657-1.199-1.167-.291-.5012-.436-1.0875-.436-1.7586 0-.6848.147-1.282.44-1.7915.293-.5122.694-.9094 1.204-1.1915.512-.2849 1.095-.4274 1.75-.4274zm0 1.2902c-.4 0-.746.0822-1.04.2466-.29.1616-.515.3999-.673.7149-.159.315-.239.7013-.239 1.1587 0 .4383.08.8095.239 1.1135.161.3041.389.5356.682.6945.293.1588.637.2383 1.031.2383h1.705c.397 0 .74-.0795 1.027-.2383.291-.1617.514-.3945.67-.6986.159-.3068.238-.6779.238-1.1135 0-.452-.079-.8355-.238-1.1505-.156-.315-.379-.5547-.67-.719-.287-.1644-.63-.2466-1.027-.2466zm1.586-2.3749v8.9081h-1.467v-8.9081zm13.396 4.3554c0 .9067-.17 1.6833-.509 2.3298-.337.6437-.797 1.1368-1.381 1.4792-.581.3424-1.239.5136-1.976.5136s-1.397-.1712-1.981-.5136c-.58-.3452-1.041-.8396-1.38-1.4833-.337-.6465-.506-1.4217-.506-2.3257 0-.9067.169-1.6819.506-2.3256.339-.6465.8-1.1409 1.38-1.4833.584-.3425 1.244-.5137 1.981-.5137s1.395.1712 1.976.5137c.584.3424 1.044.8368 1.381 1.4833.339.6437.509 1.4189.509 2.3256zm-1.532 0c0-.6382-.1-1.1765-.3-1.6148-.198-.441-.472-.7738-.822-.9984-.351-.2274-.755-.3411-1.212-.3411-.458 0-.862.1137-1.212.3411-.351.2246-.626.5574-.826.9984-.198.4383-.296.9766-.296 1.6148 0 .6383.098 1.1779.296 1.6189.2.4383.475.7711.826.9985.35.2246.754.3369 1.212.3369.457 0 .861-.1123 1.212-.3369.35-.2274.624-.5602.822-.9985.2-.441.3-.9806.3-1.6189zm3.899 4.2076v-8.4151h3.156c.646 0 1.189.1205 1.627.3616.441.241.774.5725.998.9943.228.4191.341.8958.341 1.4299 0 .5397-.113 1.019-.341 1.4382-.227.4191-.563.7492-1.006.9902-.444.2383-.991.3575-1.64.3575h-2.091v-1.2532h1.886c.378 0 .687-.0658.928-.1973.241-.1314.419-.3122.535-.5423.117-.2301.176-.4945.176-.7931 0-.2985-.059-.5615-.176-.7889-.116-.2273-.295-.404-.539-.53-.241-.1288-.552-.1931-.932-.1931h-1.398v7.1413zm8.372-8.4151h1.866l2.498 6.0976h.098l2.499-6.0976h1.865v8.4151h-1.463v-5.7813h-.078l-2.325 5.7566h-1.093l-2.326-5.7689h-.078v5.7936h-1.463zm10.865 8.4151v-1.2656l.239-.0123c.323-.0192.579-.1356.768-.3493.192-.2136.333-.5574.423-1.0313.093-.4739.155-1.1094.185-1.9066l.14-3.85h5.514v8.4151h-1.492v-7.1619h-2.601l-.131 3.0694c-.038.9204-.14 1.6833-.304 2.2886-.162.6054-.427 1.0574-.797 1.356-.367.2986-.878.4479-1.533.4479zm9.857 0v-8.4151h5.473v1.2779h-3.949v2.2845h3.665v1.2779h-3.665v2.2969h3.982v1.2779zm7.954 0v-8.4151h1.524v3.5624h3.899v-3.5624h1.529v8.4151h-1.529v-3.5748h-3.899v3.5748zm9.536-8.4151h1.512v5.736h.078l3.957-5.736h1.368v8.4151h-1.525v-5.732h-.069l-3.97 5.732h-1.351zm15.714 8.4151h-1.528v-7.1413h-1.397c-.378 0-.689.0561-.933.1684-.241.1096-.421.2712-.538.4849-.115.2109-.173.4657-.173.7642 0 .2986.058.5506.173.7561.115.2027.293.3574.534.4643.244.1041.553.1561.928.1561h2.047v1.2656h-2.252c-.646 0-1.192-.1069-1.635-.3205-.444-.2164-.781-.5219-1.011-.9163-.228-.3972-.341-.8656-.341-1.4053 0-.5369.112-1.0067.337-1.4093.227-.4054.561-.7205 1.002-.9451s.984-.3369 1.627-.3369h3.16zm-4.351-3.8131h1.664l-2.046 3.8131h-1.701zm13.662 3.9281c-.591 0-1.117-.1013-1.578-.3041-.457-.2027-.819-.4848-1.084-.8464-.266-.3616-.407-.7793-.424-1.2532h1.545c.014.2273.089.4259.226.5958.137.1671.32.2972.547.3903.227.0932.482.1397.764.1397.301 0 .569-.052.801-.1561.233-.1068.415-.2548.547-.4438.131-.189.196-.4068.193-.6533.003-.2547-.063-.4794-.197-.6739-.134-.1944-.329-.3465-.584-.456-.252-.1096-.556-.1644-.912-.1644h-.744v-1.1751h.744c.293 0 .549-.0507.768-.1521.222-.1013.396-.2438.522-.4273.126-.1863.188-.4013.185-.6451.003-.2383-.05-.4451-.16-.6205-.107-.178-.259-.3163-.456-.415-.195-.0986-.423-.1479-.686-.1479-.258 0-.496.0466-.715.1397-.219.0932-.396.226-.53.3986-.135.1698-.206.3725-.214.6081h-1.467c.011-.4711.147-.8848.407-1.2409.263-.3588.614-.6382 1.052-.8382.438-.2027.93-.3041 1.475-.3041.561 0 1.049.1055 1.463.3164.416.2082.738.489.965.8424.228.3533.341.7437.341 1.171.003.4739-.137.8711-.419 1.1916-.279.3205-.646.53-1.101.6286v.0658c.592.0822 1.045.3013 1.36.6574.318.3534.475.793.473 1.319 0 .4711-.135.893-.403 1.2655-.266.3698-.633.6602-1.101.8711-.466.2109-1 .3164-1.603.3164zm6.605-.115h-1.627l2.963-8.4151h1.882l2.966 8.4151h-1.627l-2.247-6.6894h-.066zm.054-3.2995h4.437v1.2245h-4.437zm14.377 3.2995h-1.528v-7.1413h-1.397c-.378 0-.689.0561-.933.1684-.241.1096-.421.2712-.538.4849-.115.2109-.173.4657-.173.7642 0 .2986.058.5506.173.7561.115.2027.293.3574.534.4643.244.1041.553.1561.928.1561h2.047v1.2656h-2.252c-.647 0-1.192-.1069-1.635-.3205-.444-.2164-.781-.5219-1.011-.9163-.228-.3972-.341-.8656-.341-1.4053 0-.5369.112-1.0067.337-1.4093.227-.4054.561-.7205 1.002-.9451s.984-.3369 1.627-.3369h3.16zm-4.351-3.8131h1.664l-2.046 3.8131h-1.701zm6.929 3.8131v-8.4151h3.221c.608 0 1.113.0959 1.516.2876.406.189.708.4479.908.7766.203.3287.304.7013.304 1.1176 0 .3424-.065.6355-.197.8793-.131.2411-.308.4369-.53.5876s-.47.2589-.744.3246v.0822c.299.0164.585.1082.859.2753.277.1643.503.3972.678.6985s.263.6657.263 1.093c0 .4355-.105.8272-.316 1.1751-.211.3452-.529.6177-.954.8177-.424.2-.958.3-1.602.3zm1.524-1.2738h1.639c.554 0 .952-.1055 1.196-.3164.247-.2137.37-.4876.37-.8218 0-.2493-.062-.4739-.185-.6738-.123-.2027-.299-.3616-.526-.4767-.227-.1178-.498-.1767-.814-.1767h-1.68zm0-3.5624h1.508c.263 0 .5-.048.711-.1439.211-.0986.376-.2369.497-.415.123-.1807.185-.3944.185-.6409 0-.326-.115-.5945-.345-.8054-.228-.2109-.566-.3164-1.015-.3164h-1.541zm12.047 4.8362-2.769-3.6775h-.748v3.6775h-1.524v-8.4151h1.524v3.4597h.382l2.992-3.4597h1.877l-3.324 3.8377 3.468 4.5774zm3.839-8.4151h1.512v5.736h.078l3.957-5.736h1.369v8.4151h-1.525v-5.732h-.07l-3.969 5.732h-1.352z" fill="#04b34a"/><g clip-path="url(#f)" fill="#32383d"><path d="m74.6131 162.761v-12.41h2.0561c.7002-.503 1.3412-1.213 1.923-2.13.5818-.927 1.0798-2.204 1.494-3.831.4142-1.637.71-3.777.8875-6.42l.858-12.81h20.0433v25.191h3.313v12.381h-6.1531v-7.278h-18.2682v7.307zm9.4522-12.41h11.6562v-19.91h-8.1209l-.4733 7.529c-.1282 2.002-.3403 3.777-.6361 5.325-.286 1.548-.6361 2.904-1.0502 4.068-.4044 1.154-.8629 2.15-1.3757 2.988zm34.2507 5.547c-2.298 0-4.285-.488-5.961-1.465-1.667-.986-2.954-2.356-3.861-4.112-.907-1.765-1.361-3.811-1.361-6.138 0-2.347.454-4.399 1.361-6.154.907-1.765 2.194-3.136 3.861-4.112 1.676-.986 3.663-1.479 5.961-1.479 2.297 0 4.28.493 5.946 1.479 1.677.976 2.968 2.347 3.876 4.112.907 1.755 1.361 3.807 1.361 6.154 0 2.327-.454 4.373-1.361 6.138-.908 1.756-2.199 3.126-3.876 4.112-1.666.977-3.649 1.465-5.946 1.465zm.029-4.882c1.046 0 1.918-.295 2.619-.887.7-.602 1.227-1.42 1.582-2.456.365-1.035.548-2.213.548-3.535 0-1.321-.183-2.5-.548-3.535-.355-1.036-.882-1.854-1.582-2.456-.701-.601-1.573-.902-2.619-.902-1.055 0-1.942.301-2.662.902-.71.602-1.248 1.42-1.613 2.456-.355 1.035-.532 2.214-.532 3.535 0 1.322.177 2.5.532 3.535.365 1.036.903 1.854 1.613 2.456.72.592 1.607.887 2.662.887zm33.226-26.625 1.923 4.112c-.641.532-1.351.927-2.13 1.183-.779.247-1.711.41-2.795.488-1.075.079-2.387.134-3.935.163-1.755.02-3.185.301-4.29.843-1.104.543-1.942 1.396-2.514 2.559-.572 1.154-.947 2.663-1.125 4.527h.222c.681-1.391 1.637-2.466 2.87-3.225 1.242-.759 2.776-1.139 4.6-1.139 1.933 0 3.624.424 5.074 1.272 1.459.848 2.593 2.066 3.402 3.654.809 1.587 1.213 3.491 1.213 5.71 0 2.307-.454 4.314-1.361 6.02-.897 1.696-2.174 3.013-3.831 3.949-1.657.927-3.629 1.391-5.917 1.391-2.298 0-4.28-.483-5.946-1.45-1.657-.966-2.939-2.391-3.846-4.275-.898-1.883-1.346-4.201-1.346-6.952v-1.864c0-5.473 1.065-9.531 3.195-12.174s5.261-3.984 9.393-4.023c1.124-.02 2.14-.025 3.047-.015s1.701-.034 2.382-.133c.69-.099 1.262-.306 1.715-.621zm-8.564 26.625c.966 0 1.795-.251 2.485-.754.7-.503 1.237-1.223 1.612-2.16.385-.936.577-2.056.577-3.357 0-1.292-.192-2.387-.577-3.284-.375-.907-.912-1.598-1.612-2.071s-1.539-.71-2.515-.71c-.73 0-1.385.133-1.967.399s-1.08.661-1.494 1.184c-.404.512-.72 1.148-.947 1.908-.217.749-.325 1.607-.325 2.574 0 1.942.419 3.476 1.257 4.6.848 1.114 2.017 1.671 3.506 1.671zm20.826 4.867c-1.449 0-2.741-.251-3.875-.754-1.134-.513-2.032-1.268-2.692-2.264-.651-1.005-.977-2.258-.977-3.757 0-1.262.232-2.322.696-3.18.463-.858 1.094-1.548 1.893-2.071s1.706-.917 2.722-1.183c1.025-.267 2.1-.454 3.224-.562 1.322-.138 2.387-.267 3.196-.385.808-.128 1.395-.316 1.76-.562.365-.247.547-.611.547-1.095v-.088c0-.937-.296-1.662-.887-2.175-.582-.513-1.411-.769-2.485-.769-1.135 0-2.037.251-2.707.754-.671.493-1.115 1.115-1.332 1.864l-5.828-.473c.296-1.381.878-2.574 1.746-3.58.867-1.016 1.987-1.795 3.357-2.337 1.381-.552 2.979-.828 4.793-.828 1.262 0 2.47.148 3.624.443 1.164.296 2.194.755 3.092 1.376.907.621 1.622 1.42 2.145 2.396.522.967.784 2.125.784 3.476v15.325h-5.976v-3.151h-.178c-.365.71-.853 1.337-1.464 1.879-.612.532-1.346.952-2.204 1.257-.858.296-1.849.444-2.974.444zm1.805-4.349c.927 0 1.746-.182 2.456-.547.71-.375 1.267-.878 1.671-1.509s.607-1.346.607-2.145v-2.411c-.198.128-.469.247-.814.355-.335.099-.715.192-1.139.281-.424.079-.848.153-1.272.222-.424.059-.809.113-1.154.163-.74.108-1.385.281-1.938.518-.552.236-.981.557-1.287.961-.305.394-.458.888-.458 1.479 0 .858.31 1.514.932 1.968.631.443 1.43.665 2.396.665zm14.965 3.92v-22.721h9.689c2.801 0 5.015.533 6.642 1.598s2.44 2.579 2.44 4.541c0 1.233-.458 2.258-1.375 3.077-.917.818-2.189 1.371-3.817 1.657 1.361.098 2.52.409 3.477.932.966.512 1.701 1.178 2.204 1.996.512.819.769 1.726.769 2.722 0 1.292-.345 2.401-1.036 3.328-.68.927-1.681 1.637-3.002 2.13-1.312.494-2.915.74-4.808.74zm5.873-4.719h5.31c.878 0 1.563-.207 2.056-.621.503-.424.755-1.001.755-1.731 0-.808-.252-1.444-.755-1.908-.493-.463-1.178-.695-2.056-.695h-5.31zm0-8.653h3.949c.631 0 1.169-.089 1.613-.266.453-.188.798-.454 1.035-.799.247-.345.37-.754.37-1.228 0-.7-.281-1.247-.843-1.642-.562-.394-1.332-.591-2.308-.591h-3.816zm21.163-2.367h6.789c3.008 0 5.355.72 7.041 2.16 1.687 1.43 2.53 3.343 2.53 5.739 0 1.558-.38 2.929-1.139 4.112-.759 1.174-1.854 2.091-3.284 2.752-1.43.651-3.146.976-5.148.976h-10.739v-22.721h6.021v17.766h4.718c1.056 0 1.923-.267 2.604-.799.68-.533 1.025-1.213 1.035-2.041-.01-.878-.355-1.593-1.035-2.145-.681-.562-1.548-.843-2.604-.843h-6.789zm16.082-2.026v-4.956h20.591v4.956h-7.323v17.765h-6.005v-17.765zm33.037 18.209c-2.337 0-4.348-.473-6.035-1.42-1.676-.957-2.968-2.308-3.875-4.053-.908-1.756-1.361-3.831-1.361-6.228 0-2.337.453-4.388 1.361-6.153.907-1.765 2.184-3.141 3.831-4.127 1.657-.986 3.599-1.479 5.828-1.479 1.499 0 2.894.241 4.186.724 1.302.474 2.436 1.189 3.402 2.145.977.957 1.736 2.16 2.278 3.61.543 1.439.814 3.126.814 5.058v1.731h-19.186v-3.905h13.254c0-.907-.197-1.711-.591-2.411-.395-.7-.942-1.248-1.642-1.642-.691-.404-1.494-.607-2.412-.607-.956 0-1.804.222-2.544.666-.73.434-1.301 1.021-1.716 1.76-.414.73-.626 1.544-.636 2.441v3.713c0 1.124.207 2.095.622 2.914.424.818 1.02 1.45 1.789 1.893.77.444 1.682.666 2.737.666.7 0 1.341-.099 1.923-.296s1.08-.493 1.494-.887c.414-.395.73-.878.947-1.45l5.828.385c-.296 1.4-.903 2.623-1.82 3.668-.907 1.035-2.08 1.844-3.52 2.426-1.43.572-3.082.858-4.956.858zm20.579 6.213v-11.657h1.745c.503-.315.907-.818 1.213-1.508.316-.691.572-1.504.769-2.441.207-.937.365-1.948.474-3.033.118-1.094.221-2.199.31-3.313l.592-7.426h17.425v17.721h3.52v11.657h-6.005v-6.657h-13.89v6.657zm8.017-11.657h8.565v-12.869h-6.124l-.237 2.574c-.168 2.426-.409 4.487-.725 6.183-.315 1.686-.809 3.057-1.479 4.112zm27.268 5.429c-1.449 0-2.741-.251-3.875-.754-1.134-.513-2.032-1.268-2.692-2.264-.651-1.005-.977-2.258-.977-3.757 0-1.262.232-2.322.696-3.18.463-.858 1.094-1.548 1.893-2.071s1.706-.917 2.722-1.183c1.025-.267 2.1-.454 3.225-.562 1.321-.138 2.386-.267 3.195-.385.808-.128 1.395-.316 1.76-.562.365-.247.547-.611.547-1.095v-.088c0-.937-.296-1.662-.887-2.175-.582-.513-1.411-.769-2.485-.769-1.134 0-2.037.251-2.707.754-.671.493-1.115 1.115-1.332 1.864l-5.828-.473c.296-1.381.878-2.574 1.746-3.58.868-1.016 1.987-1.795 3.358-2.337 1.38-.552 2.978-.828 4.792-.828 1.262 0 2.47.148 3.624.443 1.164.296 2.194.755 3.092 1.376.907.621 1.622 1.42 2.145 2.396.522.967.784 2.125.784 3.476v15.325h-5.976v-3.151h-.178c-.365.71-.853 1.337-1.464 1.879-.612.532-1.346.952-2.204 1.257-.858.296-1.849.444-2.974.444zm1.805-4.349c.927 0 1.746-.182 2.456-.547.71-.375 1.267-.878 1.671-1.509s.607-1.346.607-2.145v-2.411c-.198.128-.469.247-.814.355-.335.099-.715.192-1.139.281-.424.079-.848.153-1.272.222-.424.059-.809.113-1.154.163-.739.108-1.385.281-1.938.518-.552.236-.981.557-1.287.961-.305.394-.458.888-.458 1.479 0 .858.311 1.514.932 1.968.631.443 1.43.665 2.396.665zm30.778-9.955v4.955h-11.863v-4.955zm-9.792-8.846v22.721h-6.021v-22.721zm13.742 0v22.721h-5.976v-22.721zm19.787 8.846v4.955h-11.863v-4.955zm-9.792-8.846v22.721h-6.021v-22.721zm13.742 0v22.721h-5.976v-22.721zm7.924 6.982h6.789c3.008 0 5.355.72 7.041 2.16 1.687 1.43 2.53 3.343 2.53 5.739 0 1.558-.38 2.929-1.139 4.112-.76 1.174-1.854 2.091-3.284 2.752-1.43.651-3.146.976-5.148.976h-10.739v-22.721h6.021v17.766h4.718c1.055 0 1.923-.267 2.604-.799.68-.533 1.025-1.213 1.035-2.041-.01-.878-.355-1.593-1.035-2.145-.681-.562-1.549-.843-2.604-.843h-6.789zm18.801 15.739v-22.721h6.301v22.721zm20.778.444c-2.337 0-4.349-.473-6.035-1.42-1.677-.957-2.968-2.308-3.876-4.053-.907-1.756-1.361-3.831-1.361-6.228 0-2.337.454-4.388 1.361-6.153.908-1.765 2.185-3.141 3.831-4.127 1.657-.986 3.6-1.479 5.829-1.479 1.499 0 2.894.241 4.186.724 1.301.474 2.436 1.189 3.402 2.145.976.957 1.736 2.16 2.278 3.61.542 1.439.813 3.126.813 5.058v1.731h-19.185v-3.905h13.254c0-.907-.197-1.711-.592-2.411-.394-.7-.942-1.248-1.642-1.642-.69-.404-1.494-.607-2.411-.607-.956 0-1.805.222-2.544.666-.73.434-1.302 1.021-1.716 1.76-.414.73-.626 1.544-.636 2.441v3.713c0 1.124.207 2.095.621 2.914.424.818 1.021 1.45 1.79 1.893.769.444 1.681.666 2.737.666.7 0 1.341-.099 1.923-.296.581-.197 1.079-.493 1.494-.887.414-.395.729-.878.946-1.45l5.828.385c-.295 1.4-.902 2.623-1.819 3.668-.907 1.035-2.081 1.844-3.521 2.426-1.43.572-3.081.858-4.955.858zm-338.2379 38.243 8.18-14.408h6.2127v22.721h-6.0056v-14.452l-8.1504 14.452h-6.2571v-22.721h6.0204zm17.3616 1.879h6.1093c.029.749.365 1.341 1.006 1.775.641.433 1.469.65 2.485.65 1.025 0 1.888-.236 2.588-.71.701-.483 1.051-1.173 1.051-2.07 0-.553-.138-1.031-.415-1.435-.276-.414-.66-.74-1.153-.977-.493-.236-1.065-.355-1.716-.355h-3.269v-4.127h3.269c.976 0 1.726-.226 2.248-.68.533-.454.799-1.021.799-1.701 0-.769-.276-1.386-.828-1.849-.543-.473-1.277-.71-2.204-.71-.937 0-1.716.212-2.338.636-.611.414-.927.956-.946 1.627h-6.08c.02-1.361.429-2.539 1.228-3.535.809-.996 1.893-1.765 3.254-2.308 1.371-.542 2.904-.813 4.601-.813 1.853 0 3.451.261 4.792.784 1.351.512 2.387 1.247 3.106 2.204.73.956 1.095 2.095 1.095 3.417 0 1.203-.394 2.209-1.183 3.017-.789.809-1.894 1.386-3.314 1.731v.237c.937.059 1.785.31 2.545.754.759.444 1.365 1.055 1.819 1.834.454.769.68 1.681.68 2.737 0 1.41-.414 2.618-1.242 3.624-.819 1.006-1.953 1.78-3.402 2.322-1.44.533-3.092.799-4.956.799-1.814 0-3.441-.261-4.881-.784-1.43-.533-2.569-1.312-3.417-2.337-.838-1.026-1.282-2.278-1.3313-3.757zm51.1273-23.86v5.281h-13.697v25.013h-6.405v-30.294zm10.04 30.738c-2.298 0-4.285-.488-5.962-1.465-1.666-.986-2.953-2.356-3.86-4.112-.908-1.765-1.361-3.811-1.361-6.138 0-2.347.453-4.399 1.361-6.154.907-1.765 2.194-3.136 3.86-4.112 1.677-.986 3.664-1.479 5.962-1.479 2.297 0 4.28.493 5.946 1.479 1.677.976 2.968 2.347 3.876 4.112.907 1.755 1.361 3.807 1.361 6.154 0 2.327-.454 4.373-1.361 6.138-.908 1.756-2.199 3.126-3.876 4.112-1.666.977-3.649 1.465-5.946 1.465zm.029-4.882c1.046 0 1.918-.295 2.618-.887.701-.602 1.228-1.42 1.583-2.456.365-1.035.548-2.213.548-3.535 0-1.321-.183-2.5-.548-3.535-.355-1.036-.882-1.854-1.583-2.456-.7-.601-1.572-.902-2.618-.902-1.055 0-1.942.301-2.662.902-.71.602-1.248 1.42-1.613 2.456-.355 1.035-.532 2.214-.532 3.535 0 1.322.177 2.5.532 3.535.365 1.036.903 1.854 1.613 2.456.72.592 1.607.887 2.662.887zm24.603 4.882c-2.328 0-4.33-.493-6.006-1.479-1.667-.996-2.949-2.377-3.846-4.142-.887-1.765-1.331-3.797-1.331-6.094 0-2.328.448-4.369 1.346-6.124.907-1.766 2.194-3.141 3.861-4.127 1.666-.996 3.648-1.494 5.946-1.494 1.982 0 3.718.36 5.207 1.079 1.489.72 2.667 1.731 3.535 3.033.868 1.301 1.346 2.83 1.435 4.585h-5.946c-.168-1.134-.612-2.046-1.332-2.736-.71-.7-1.642-1.05-2.795-1.05-.977 0-1.83.266-2.559.798-.72.523-1.282 1.287-1.687 2.293-.404 1.006-.606 2.224-.606 3.654 0 1.449.197 2.682.591 3.698.405 1.016.972 1.79 1.702 2.322.729.533 1.582.799 2.559.799.719 0 1.365-.148 1.937-.444.582-.296 1.06-.725 1.435-1.287.385-.572.636-1.257.755-2.056h5.946c-.099 1.736-.572 3.264-1.42 4.586-.838 1.311-1.997 2.337-3.476 3.076-1.479.74-3.23 1.11-5.251 1.11zm17.158 8.076c-.799 0-1.548-.064-2.249-.192-.69-.118-1.262-.271-1.716-.458l1.421-4.704c.739.226 1.405.35 1.996.369.602.02 1.12-.118 1.554-.414.443-.296.803-.799 1.079-1.509l.37-.961-8.15-23.372h6.627l4.704 16.686h.236l4.748-16.686h6.672l-8.831 25.177c-.424 1.222-1.001 2.287-1.731 3.195-.72.917-1.632 1.622-2.736 2.115-1.105.503-2.436.754-3.994.754zm29.136-8.076c-2.327 0-4.329-.493-6.006-1.479-1.666-.996-2.948-2.377-3.846-4.142-.887-1.765-1.331-3.797-1.331-6.094 0-2.328.449-4.369 1.346-6.124.907-1.766 2.194-3.141 3.861-4.127 1.666-.996 3.649-1.494 5.946-1.494 1.982 0 3.718.36 5.207 1.079 1.489.72 2.668 1.731 3.535 3.033.868 1.301 1.346 2.83 1.435 4.585h-5.946c-.168-1.134-.612-2.046-1.332-2.736-.71-.7-1.641-1.05-2.795-1.05-.976 0-1.829.266-2.559.798-.72.523-1.282 1.287-1.687 2.293-.404 1.006-.606 2.224-.606 3.654 0 1.449.197 2.682.592 3.698.404 1.016.971 1.79 1.701 2.322.73.533 1.583.799 2.559.799.72 0 1.366-.148 1.938-.444.581-.296 1.06-.725 1.434-1.287.385-.572.636-1.257.755-2.056h5.946c-.098 1.736-.572 3.264-1.42 4.586-.838 1.311-1.997 2.337-3.476 3.076-1.479.74-3.23 1.11-5.251 1.11zm11.936-.444-.029-5h.754c.533 0 .991-.128 1.376-.384.394-.266.72-.695.976-1.287.257-.592.459-1.376.607-2.352.148-.986.246-2.199.295-3.639l.37-10.059h17.277v22.721h-6.005v-17.765h-5.606l-.355 6.937c-.089 1.904-.321 3.541-.696 4.911-.364 1.371-.872 2.495-1.523 3.373-.651.868-1.435 1.509-2.352 1.923s-1.982.621-3.195.621zm28.674 8.52c-.799 0-1.548-.064-2.248-.192-.691-.118-1.262-.271-1.716-.458l1.42-4.704c.74.226 1.405.35 1.997.369.601.02 1.119-.118 1.553-.414.444-.296.804-.799 1.08-1.509l.37-.961-8.151-23.372h6.627l4.704 16.686h.237l4.748-16.686h6.671l-8.831 25.177c-.424 1.222-1.001 2.287-1.73 3.195-.72.917-1.632 1.622-2.737 2.115-1.104.503-2.436.754-3.994.754zm35.164-31.241v4.956h-9.437v17.765h-6.124v-22.721z"/><path d="m82.2508 229.337v1.265h-4.8551v-1.265zm-7.6623 2.692h1.4726c.1266.828.4065 1.465.8399 1.91.4333.445 1.1275.667 2.0824.667.6749 0 1.2387-.19 1.6912-.569.4564-.38.7977-.882 1.024-1.507.2301-.626.3451-1.306.3451-2.043v-1.311c0-.813-.1285-1.528-.3854-2.146-.2531-.621-.6194-1.104-1.0987-1.449-.4756-.349-1.047-.524-1.7143-.524-.5829 0-1.0661.104-1.4496.311s-.6826.504-.8974.891c-.2147.388-.3605.854-.4372 1.398h-1.4726c.0767-.751.2819-1.419.6155-2.002.3375-.586.8073-1.047 1.4094-1.38.6059-.338 1.3499-.506 2.2319-.506.9588 0 1.7871.224 2.4851.673.698.444 1.2368 1.071 1.6165 1.881.3796.805.5694 1.748.5694 2.83v1.357c0 1.082-.1879 2.025-.5637 2.831-.3758.801-.9031 1.424-1.5819 1.869-.6788.441-1.4746.662-2.3873.662-.9358 0-1.7143-.169-2.3355-.506-.6175-.342-1.0949-.802-1.4324-1.381-.3336-.583-.5426-1.235-.627-1.956zm10.5336-3.889v-1.265h7.1791v1.265h-2.8992v7.571h-1.3576v-7.571zm12.1861 7.755c-.7977 0-1.4976-.19-2.0997-.57-.5982-.379-1.0661-.911-1.4036-1.593-.3336-.683-.5004-1.48-.5004-2.393 0-.921.1668-1.724.5004-2.41.3375-.687.8054-1.22 1.4036-1.6.6021-.379 1.302-.569 2.0997-.569s1.4956.19 2.0939.569c.6019.38 1.0699.913 1.4039 1.6.337.686.506 1.489.506 2.41 0 .913-.169 1.71-.506 2.393-.334.682-.802 1.214-1.4039 1.593-.5983.38-1.2962.57-2.0939.57zm0-1.22c.6059 0 1.1045-.155 1.4956-.466.3912-.31.6807-.719.8687-1.225.1879-.506.2818-1.055.2818-1.645 0-.591-.0939-1.141-.2818-1.651-.188-.51-.4775-.922-.8687-1.237-.3911-.314-.8897-.472-1.4956-.472s-1.1045.158-1.4957.472c-.3911.315-.6807.727-.8686 1.237s-.2819 1.06-.2819 1.651c0 .59.094 1.139.2819 1.645s.4775.915.8686 1.225c.3912.311.8898.466 1.4957.466zm16.9818-11.114.69.829c-.268.261-.579.443-.932.546-.353.104-.751.167-1.196.19s-.94.046-1.484.069c-.614.023-1.122.173-1.525.449s-.713.675-.932 1.196c-.218.522-.358 1.162-.42 1.922h.115c.299-.553.714-.959 1.243-1.22s1.097-.391 1.703-.391c.69 0 1.311.161 1.863.483.553.322.99.8 1.312 1.433.322.632.483 1.413.483 2.341 0 .924-.165 1.722-.495 2.393-.326.671-.784 1.189-1.374 1.553-.587.361-1.276.541-2.066.541s-1.482-.186-2.076-.558c-.595-.376-1.057-.932-1.387-1.668-.329-.741-.494-1.655-.494-2.744v-.944c0-1.967.333-3.459 1.001-4.475.671-1.016 1.679-1.542 3.026-1.576.475-.016.899-.02 1.271-.012s.696-.009.972-.052c.276-.042.51-.143.702-.305zm-3.015 11.114c.534 0 .992-.134 1.375-.402.388-.269.685-.647.892-1.134.207-.491.311-1.068.311-1.731 0-.644-.106-1.193-.317-1.645-.207-.453-.504-.798-.891-1.036-.388-.238-.852-.356-1.393-.356-.395 0-.749.067-1.064.201-.314.134-.583.332-.805.592-.223.261-.395.579-.518.955-.119.376-.182.806-.19 1.289 0 .989.232 1.781.696 2.376.464.594 1.099.891 1.904.891zm9.612 1.22c-.851 0-1.585-.188-2.203-.564-.614-.38-1.087-.909-1.421-1.588-.33-.682-.494-1.476-.494-2.381s.164-1.703.494-2.393c.334-.694.798-1.235 1.392-1.622.599-.392 1.297-.587 2.094-.587.46 0 .915.077 1.364.23.448.153.857.403 1.225.748.368.341.661.794.88 1.357.219.564.328 1.258.328 2.083v.575h-6.811v-1.174h5.43c0-.498-.099-.943-.299-1.334-.195-.391-.475-.7-.84-.926-.36-.227-.786-.34-1.277-.34-.541 0-1.008.135-1.403.403-.392.265-.693.61-.904 1.035-.21.426-.316.883-.316 1.37v.782c0 .667.115 1.233.345 1.697.234.46.558.811.972 1.053.415.237.896.356 1.444.356.357 0 .679-.05.967-.149.291-.104.542-.257.753-.461.211-.207.374-.464.489-.77l1.312.368c-.138.445-.37.836-.696 1.173-.326.334-.729.595-1.208.783-.48.184-1.018.276-1.617.276zm5.068-2.439h1.449c.031.399.211.702.541.909.334.207.767.31 1.3.31.545 0 1.011-.111 1.398-.333.387-.227.581-.591.581-1.093 0-.296-.073-.553-.219-.771-.145-.223-.351-.395-.615-.518-.265-.123-.577-.184-.938-.184h-1.519v-1.22h1.519c.541 0 .94-.122 1.197-.368.26-.245.391-.552.391-.92 0-.395-.14-.711-.42-.949-.28-.242-.677-.363-1.191-.363-.518 0-.949.117-1.294.351-.345.23-.527.528-.547.892h-1.426c.015-.476.161-.896.437-1.26.276-.368.652-.656 1.127-.863.476-.211 1.021-.316 1.634-.316.621 0 1.16.109 1.617.328.46.214.814.508 1.064.88.253.368.379.786.379 1.254 0 .498-.14.901-.42 1.208-.279.307-.63.525-1.052.656v.092c.333.023.623.13.868.322.25.188.443.435.581.742.138.303.208.638.208 1.007 0 .537-.144 1.004-.432 1.403-.288.395-.683.702-1.185.921-.502.214-1.076.322-1.72.322-.625 0-1.185-.102-1.68-.305-.494-.207-.887-.493-1.179-.857-.288-.368-.439-.794-.454-1.277zm12.042 2.439c-.798 0-1.498-.19-2.1-.57-.598-.379-1.066-.911-1.403-1.593-.334-.683-.501-1.48-.501-2.393 0-.921.167-1.724.501-2.41.337-.687.805-1.22 1.403-1.6.602-.379 1.302-.569 2.1-.569s1.496.19 2.094.569c.602.38 1.07.913 1.403 1.6.338.686.507 1.489.507 2.41 0 .913-.169 1.71-.507 2.393-.333.682-.801 1.214-1.403 1.593-.598.38-1.296.57-2.094.57zm0-1.22c.606 0 1.104-.155 1.496-.466.391-.31.68-.719.868-1.225s.282-1.055.282-1.645c0-.591-.094-1.141-.282-1.651s-.477-.922-.868-1.237c-.392-.314-.89-.472-1.496-.472s-1.105.158-1.496.472c-.391.315-.68.727-.868 1.237s-.282 1.06-.282 1.651c0 .59.094 1.139.282 1.645s.477.915.868 1.225c.391.311.89.466 1.496.466zm5.972 1.036v-8.836h6.949v8.836h-1.358v-7.571h-4.234v7.571zm11.924.207c-.56 0-1.068-.106-1.524-.317-.457-.214-.819-.523-1.088-.926-.268-.406-.402-.897-.402-1.472 0-.507.1-.917.299-1.231.199-.319.466-.568.8-.748.333-.18.701-.315 1.104-.403.407-.092.815-.165 1.225-.219.537-.069.972-.12 1.306-.155.338-.038.583-.101.736-.19.158-.088.236-.241.236-.46v-.046c0-.567-.155-1.008-.466-1.323-.306-.314-.772-.472-1.398-.472-.648 0-1.156.142-1.524.426s-.627.587-.777.909l-1.288-.46c.23-.537.537-.955.92-1.254.388-.303.809-.514 1.266-.633.46-.123.913-.184 1.357-.184.284 0 .61.034.978.103.372.066.731.202 1.076.409.349.207.639.519.869.937s.345.978.345 1.68v5.822h-1.358v-1.197h-.069c-.092.192-.245.397-.46.616-.215.218-.5.404-.857.558-.357.153-.792.23-1.306.23zm.207-1.22c.537 0 .99-.105 1.358-.316.372-.211.652-.483.84-.817.191-.334.287-.685.287-1.053v-1.242c-.057.069-.184.132-.379.19-.192.053-.415.101-.668.143-.249.039-.492.073-.73.104-.234.027-.424.05-.57.069-.353.046-.682.121-.989.224-.303.1-.549.252-.736.455-.185.199-.277.471-.277.817 0 .471.175.828.524 1.07.353.237.799.356 1.34.356zm9.806 1.197c-.828 0-1.542-.196-2.14-.587s-1.058-.93-1.38-1.616c-.323-.687-.484-1.471-.484-2.353 0-.898.165-1.69.495-2.376.334-.69.798-1.229 1.392-1.616.598-.392 1.296-.587 2.094-.587.621 0 1.181.115 1.68.345.498.23.907.552 1.225.966.318.415.516.898.593 1.45h-1.358c-.103-.403-.334-.759-.69-1.07-.353-.314-.829-.472-1.427-.472-.529 0-.993.138-1.392.415-.395.272-.704.657-.926 1.156-.219.494-.328 1.075-.328 1.743 0 .682.107 1.277.322 1.783.219.506.526.899.921 1.179.398.28.866.42 1.403.42.353 0 .673-.061.961-.184.287-.123.531-.299.73-.529.2-.23.342-.506.426-.828h1.358c-.077.521-.267.991-.57 1.409-.299.414-.696.744-1.191.989-.49.242-1.062.363-1.714.363zm11.269-5.223v1.265h-4.878v-1.265zm-4.556-3.797v8.836h-1.358v-8.836zm5.591 0v8.836h-1.357v-8.836zm5.965 9.02c-.798 0-1.498-.19-2.1-.57-.598-.379-1.066-.911-1.403-1.593-.334-.683-.501-1.48-.501-2.393 0-.921.167-1.724.501-2.41.337-.687.805-1.22 1.403-1.6.602-.379 1.302-.569 2.1-.569s1.496.19 2.094.569c.602.38 1.07.913 1.403 1.6.338.686.507 1.489.507 2.41 0 .913-.169 1.71-.507 2.393-.333.682-.801 1.214-1.403 1.593-.598.38-1.296.57-2.094.57zm0-1.22c.606 0 1.104-.155 1.496-.466.391-.31.68-.719.868-1.225s.282-1.055.282-1.645c0-.591-.094-1.141-.282-1.651s-.477-.922-.868-1.237c-.392-.314-.89-.472-1.496-.472s-1.105.158-1.496.472c-.391.315-.68.727-.868 1.237s-.282 1.06-.282 1.651c0 .59.094 1.139.282 1.645s.477.915.868 1.225c.391.311.89.466 1.496.466zm6.961 1.128c-.284 0-.527-.102-.73-.305-.204-.203-.305-.447-.305-.731s.101-.527.305-.73c.203-.204.446-.305.73-.305s.528.101.731.305c.203.203.305.446.305.73 0 .188-.048.361-.144.518-.092.157-.217.284-.374.38-.153.092-.326.138-.518.138zm8.004-.092v-11.781h4.118c.821 0 1.498.141 2.031.425.533.28.93.658 1.191 1.134.261.471.391.995.391 1.57 0 .506-.09.924-.27 1.254-.177.33-.411.591-.702.782-.288.192-.6.334-.938.426v.115c.361.023.723.15 1.087.38.365.23.67.56.915.989.245.43.368.955.368 1.576 0 .591-.134 1.122-.403 1.594-.268.471-.692.845-1.271 1.122-.579.276-1.332.414-2.261.414zm1.426-1.266h2.83c.932 0 1.594-.18 1.985-.541.395-.364.593-.805.593-1.323 0-.398-.102-.767-.305-1.104-.204-.341-.493-.614-.869-.817-.376-.207-.821-.311-1.335-.311h-2.899zm0-5.338h2.646c.43 0 .817-.085 1.162-.253.349-.169.625-.407.829-.714.207-.306.31-.667.31-1.081 0-.518-.18-.957-.54-1.317-.361-.365-.932-.547-1.715-.547h-2.692zm9.995.966h2.531c1.035 0 1.827.263 2.375.788.549.526.823 1.191.823 1.996 0 .53-.123 1.011-.368 1.444-.246.43-.606.773-1.082 1.03-.475.253-1.058.38-1.748.38h-3.705v-8.836h1.358v7.57h2.347c.537 0 .978-.142 1.323-.426.345-.283.517-.648.517-1.093 0-.467-.172-.849-.517-1.144-.345-.296-.786-.443-1.323-.443h-2.531zm7.133 5.638v-8.836h1.357v8.836zm8.19 0v-8.836h6.949v8.836h-1.358v-7.571h-4.233v7.571zm13.029.184c-.852 0-1.586-.188-2.203-.564-.614-.38-1.088-.909-1.421-1.588-.33-.682-.495-1.476-.495-2.381s.165-1.703.495-2.393c.333-.694.797-1.235 1.392-1.622.598-.392 1.296-.587 2.094-.587.46 0 .914.077 1.363.23s.857.403 1.225.748c.369.341.662.794.881 1.357.218.564.327 1.258.327 2.083v.575h-6.811v-1.174h5.431c0-.498-.1-.943-.299-1.334-.196-.391-.476-.7-.84-.926-.361-.227-.786-.34-1.277-.34-.541 0-1.009.135-1.404.403-.391.265-.692.61-.903 1.035-.211.426-.316.883-.316 1.37v.782c0 .667.115 1.233.345 1.697.234.46.558.811.972 1.053.414.237.895.356 1.444.356.356 0 .679-.05.966-.149.292-.104.543-.257.754-.461.211-.207.374-.464.489-.77l1.311.368c-.138.445-.37.836-.696 1.173-.326.334-.728.595-1.208.783-.479.184-1.018.276-1.616.276zm5.619 3.129v-12.149h1.312v1.403h.161c.1-.153.238-.349.414-.586.18-.242.437-.457.771-.645.338-.191.794-.287 1.369-.287.744 0 1.4.186 1.967.558.568.372 1.011.899 1.329 1.582.319.682.478 1.488.478 2.416 0 .936-.159 1.747-.478 2.433-.318.683-.759 1.212-1.323 1.588-.563.372-1.214.558-1.95.558-.567 0-1.022-.094-1.363-.282-.341-.192-.604-.409-.788-.65-.184-.246-.326-.449-.426-.61h-.115v4.671zm1.335-7.731c0 .667.098 1.256.293 1.766.196.506.482.903.857 1.191.376.283.837.425 1.381.425.568 0 1.041-.149 1.421-.448.383-.303.671-.71.863-1.22.195-.514.293-1.085.293-1.714 0-.621-.096-1.181-.287-1.68-.188-.502-.474-.899-.858-1.191-.379-.295-.857-.443-1.432-.443-.552 0-1.016.14-1.392.42-.376.276-.66.664-.851 1.162-.192.495-.288 1.072-.288 1.732zm12.137 4.602c-.851 0-1.586-.188-2.203-.564-.614-.38-1.087-.909-1.421-1.588-.33-.682-.495-1.476-.495-2.381s.165-1.703.495-2.393c.334-.694.798-1.235 1.392-1.622.598-.392 1.296-.587 2.094-.587.46 0 .915.077 1.363.23.449.153.858.403 1.226.748.368.341.661.794.88 1.357.218.564.328 1.258.328 2.083v.575h-6.811v-1.174h5.43c0-.498-.1-.943-.299-1.334-.196-.391-.476-.7-.84-.926-.36-.227-.786-.34-1.277-.34-.541 0-1.009.135-1.404.403-.391.265-.692.61-.903 1.035-.211.426-.316.883-.316 1.37v.782c0 .667.115 1.233.345 1.697.234.46.558.811.972 1.053.414.237.896.356 1.444.356.357 0 .679-.05.967-.149.291-.104.542-.257.753-.461.211-.207.374-.464.489-.77l1.312.368c-.138.445-.37.836-.696 1.173-.326.334-.729.595-1.208.783-.48.184-1.019.276-1.617.276zm4.676 2.347v-3.797h.737c.18-.188.335-.391.466-.61.13-.218.243-.477.339-.776.1-.303.184-.671.253-1.105.069-.437.13-.964.184-1.582l.299-3.497h5.615v7.57h1.357v3.797h-1.357v-2.531h-6.535v2.531zm2.278-3.797h4.257v-6.305h-2.991l-.23 2.232c-.096.925-.215 1.732-.357 2.422s-.368 1.241-.679 1.651zm11.27 1.473c-.56 0-1.068-.106-1.524-.317-.457-.214-.819-.523-1.087-.926-.269-.406-.403-.897-.403-1.472 0-.507.1-.917.299-1.231.2-.319.466-.568.8-.748.333-.18.701-.315 1.104-.403.407-.092.815-.165 1.225-.219.537-.069.973-.12 1.306-.155.338-.038.583-.101.737-.19.157-.088.235-.241.235-.46v-.046c0-.567-.155-1.008-.466-1.323-.306-.314-.772-.472-1.397-.472-.648 0-1.157.142-1.525.426s-.627.587-.776.909l-1.289-.46c.23-.537.537-.955.92-1.254.388-.303.81-.514 1.266-.633.46-.123.913-.184 1.358-.184.283 0 .609.034.978.103.372.066.73.202 1.075.409.349.207.639.519.869.937s.345.978.345 1.68v5.822h-1.358v-1.197h-.069c-.092.192-.245.397-.46.616-.215.218-.5.404-.857.558-.357.153-.792.23-1.306.23zm.207-1.22c.537 0 .99-.105 1.358-.316.372-.211.652-.483.84-.817.192-.334.287-.685.287-1.053v-1.242c-.057.069-.184.132-.379.19-.192.053-.414.101-.668.143-.249.039-.492.073-.73.104-.234.027-.424.05-.57.069-.352.046-.682.121-.989.224-.303.1-.548.252-.736.455-.184.199-.276.471-.276.817 0 .471.174.828.523 1.07.353.237.8.356 1.34.356zm9.921 1.197c-.851 0-1.585-.188-2.203-.564-.613-.38-1.087-.909-1.421-1.588-.33-.682-.494-1.476-.494-2.381s.164-1.703.494-2.393c.334-.694.798-1.235 1.392-1.622.599-.392 1.297-.587 2.094-.587.461 0 .915.077 1.364.23.448.153.857.403 1.225.748.368.341.661.794.88 1.357.219.564.328 1.258.328 2.083v.575h-6.811v-1.174h5.43c0-.498-.099-.943-.299-1.334-.195-.391-.475-.7-.84-.926-.36-.227-.786-.34-1.277-.34-.54 0-1.008.135-1.403.403-.391.265-.693.61-.903 1.035-.211.426-.317.883-.317 1.37v.782c0 .667.115 1.233.345 1.697.234.46.558.811.972 1.053.415.237.896.356 1.444.356.357 0 .679-.05.967-.149.291-.104.542-.257.753-.461.211-.207.374-.464.489-.77l1.312.368c-.138.445-.37.836-.696 1.173-.326.334-.729.595-1.208.783-.48.184-1.018.276-1.617.276zm4.797-7.755v-1.265h7.179v1.265h-2.899v7.571h-1.357v-7.571zm12.301 7.755c-.851 0-1.585-.188-2.203-.564-.613-.38-1.087-.909-1.421-1.588-.329-.682-.494-1.476-.494-2.381s.165-1.703.494-2.393c.334-.694.798-1.235 1.392-1.622.599-.392 1.297-.587 2.094-.587.461 0 .915.077 1.364.23.448.153.857.403 1.225.748.368.341.662.794.88 1.357.219.564.328 1.258.328 2.083v.575h-6.811v-1.174h5.43c0-.498-.099-.943-.299-1.334-.195-.391-.475-.7-.84-.926-.36-.227-.786-.34-1.277-.34-.54 0-1.008.135-1.403.403-.391.265-.692.61-.903 1.035-.211.426-.317.883-.317 1.37v.782c0 .667.115 1.233.345 1.697.234.46.558.811.973 1.053.414.237.895.356 1.443.356.357 0 .679-.05.967-.149.291-.104.543-.257.753-.461.211-.207.374-.464.489-.77l1.312.368c-.138.445-.37.836-.696 1.173-.326.334-.729.595-1.208.783-.479.184-1.018.276-1.617.276zm9.566-7.755v-1.265h7.179v1.265h-2.9v7.571h-1.357v-7.571zm12.186 7.755c-.798 0-1.498-.19-2.1-.57-.598-.379-1.066-.911-1.404-1.593-.333-.683-.5-1.48-.5-2.393 0-.921.167-1.724.5-2.41.338-.687.806-1.22 1.404-1.6.602-.379 1.302-.569 2.1-.569.797 0 1.495.19 2.094.569.602.38 1.07.913 1.403 1.6.338.686.506 1.489.506 2.41 0 .913-.168 1.71-.506 2.393-.333.682-.801 1.214-1.403 1.593-.599.38-1.297.57-2.094.57zm0-1.22c.606 0 1.104-.155 1.495-.466.391-.31.681-.719.869-1.225s.282-1.055.282-1.645c0-.591-.094-1.141-.282-1.651s-.478-.922-.869-1.237c-.391-.314-.889-.472-1.495-.472s-1.105.158-1.496.472c-.391.315-.681.727-.869 1.237s-.281 1.06-.281 1.651c0 .59.093 1.139.281 1.645s.478.915.869 1.225c.391.311.89.466 1.496.466zm5.189 1.036v-1.266h.322c.265 0 .486-.052.662-.155.176-.108.318-.294.426-.558.111-.269.195-.641.253-1.116.061-.48.105-1.089.132-1.829l.161-3.912h5.891v8.836h-1.358v-7.571h-3.244l-.138 3.153c-.031.725-.096 1.363-.196 1.915-.096.549-.243 1.009-.443 1.381-.195.372-.456.652-.782.84s-.735.282-1.226.282zm11.407-5.638h2.531c1.035 0 1.827.263 2.376.788.548.526.822 1.191.822 1.996 0 .53-.122 1.011-.368 1.444-.245.43-.606.773-1.081 1.03-.476.253-1.059.38-1.749.38h-3.705v-8.836h1.358v7.57h2.347c.537 0 .978-.142 1.323-.426.345-.283.518-.648.518-1.093 0-.467-.173-.849-.518-1.144-.345-.296-.786-.443-1.323-.443h-2.531zm7.692 5.638v-8.836h1.357v3.843h.898l3.175-3.843h1.749l-3.567 4.257 3.613 4.579h-1.749l-2.899-3.728h-1.22v3.728zm11.822.184c-.798 0-1.498-.19-2.1-.57-.598-.379-1.066-.911-1.403-1.593-.334-.683-.501-1.48-.501-2.393 0-.921.167-1.724.501-2.41.337-.687.805-1.22 1.403-1.6.602-.379 1.302-.569 2.1-.569s1.496.19 2.094.569c.602.38 1.07.913 1.403 1.6.338.686.507 1.489.507 2.41 0 .913-.169 1.71-.507 2.393-.333.682-.801 1.214-1.403 1.593-.598.38-1.296.57-2.094.57zm0-1.22c.606 0 1.104-.155 1.496-.466.391-.31.68-.719.868-1.225s.282-1.055.282-1.645c0-.591-.094-1.141-.282-1.651s-.477-.922-.868-1.237c-.392-.314-.89-.472-1.496-.472s-1.105.158-1.496.472c-.391.315-.68.727-.868 1.237s-.282 1.06-.282 1.651c0 .59.094 1.139.282 1.645s.477.915.868 1.225c.391.311.89.466 1.496.466zm-285.0938 22.034 4.2568-6.834h1.5647v8.836h-1.3576v-6.834l-4.2338 6.834h-1.5877v-8.836h1.3576zm14.1174-3.037v1.265h-4.8781v-1.265zm-4.5559-3.797v8.836h-1.3576v-8.836zm5.5914 0v8.836h-1.3576v-8.836zm5.9647 11.85v-14.795h1.3576v14.795zm0-2.83c-.5982 0-1.1428-.108-1.6337-.322-.4909-.219-.9127-.528-1.2655-.927-.3528-.402-.6251-.883-.8169-1.443-.1917-.56-.2876-1.182-.2876-1.864 0-.69.0959-1.316.2876-1.876.1918-.563.4641-1.046.8169-1.449s.7746-.712 1.2655-.926c.4909-.219 1.0355-.328 1.6337-.328h.4142v9.135zm0-1.22h.2301v-6.696h-.2301c-.4525 0-.8456.092-1.1792.276-.3337.181-.6098.428-.8284.743-.2148.31-.3758.667-.4832 1.07-.1035.402-.1553.826-.1553 1.271 0 .59.0939 1.139.2819 1.645.1879.506.4774.915.8686 1.225.3911.311.8897.466 1.4956.466zm1.3576 1.22h-.4142v-9.135h.4142c.5983 0 1.1428.109 1.6336.328.491.214.913.523 1.266.926.352.403.625.886.817 1.449.191.56.287 1.186.287 1.876 0 .682-.096 1.304-.287 1.864-.192.56-.465 1.041-.817 1.443-.353.399-.775.708-1.266.927-.4908.214-1.0353.322-1.6336.322zm0-1.22c.4564 0 .8495-.088 1.1793-.264.3333-.181.6083-.426.8223-.737.219-.314.38-.671.483-1.07.108-.402.162-.824.162-1.265 0-.591-.094-1.141-.282-1.651s-.478-.922-.869-1.237c-.3911-.314-.8897-.472-1.4956-.472h-.2301v6.696zm9.5646 1.22c-.798 0-1.498-.19-2.1-.57-.598-.379-1.066-.911-1.403-1.593-.334-.683-.501-1.48-.501-2.393 0-.921.167-1.724.501-2.41.337-.687.805-1.22 1.403-1.6.602-.379 1.302-.569 2.1-.569.797 0 1.495.19 2.094.569.602.38 1.07.913 1.403 1.6.338.686.506 1.489.506 2.41 0 .913-.168 1.71-.506 2.393-.333.682-.801 1.214-1.403 1.593-.599.38-1.297.57-2.094.57zm0-1.22c.606 0 1.104-.155 1.495-.466.392-.31.681-.719.869-1.225s.282-1.055.282-1.645c0-.591-.094-1.141-.282-1.651s-.477-.922-.869-1.237c-.391-.314-.889-.472-1.495-.472s-1.105.158-1.496.472c-.391.315-.681.727-.869 1.237-.187.51-.281 1.06-.281 1.651 0 .59.094 1.139.281 1.645.188.506.478.915.869 1.225.391.311.89.466 1.496.466zm5.972 4.349v-12.149h1.311v1.403h.161c.1-.153.238-.349.415-.586.18-.242.437-.457.77-.645.338-.191.794-.287 1.369-.287.744 0 1.4.186 1.968.558.567.372 1.01.899 1.329 1.582.318.682.477 1.488.477 2.416 0 .936-.159 1.747-.477 2.433-.319.683-.76 1.212-1.323 1.588-.564.372-1.214.558-1.951.558-.567 0-1.022-.094-1.363-.282-.341-.192-.604-.409-.788-.65-.184-.246-.326-.449-.426-.61h-.115v4.671zm1.334-7.731c0 .667.098 1.256.294 1.766.195.506.481.903.857 1.191.376.283.836.425 1.38.425.568 0 1.042-.149 1.421-.448.384-.303.671-.71.863-1.22.196-.514.293-1.085.293-1.714 0-.621-.095-1.181-.287-1.68-.188-.502-.474-.899-.857-1.191-.38-.295-.857-.443-1.433-.443-.552 0-1.016.14-1.392.42-.376.276-.659.664-.851 1.162-.192.495-.288 1.072-.288 1.732zm13.265 2.577 3.083-6.995h1.289l-3.82 8.836h-1.104l-3.751-8.836h1.266zm-3.475-6.995v8.836h-1.357v-8.836zm6.949 8.836v-8.836h1.358v8.836zm6.339.207c-.56 0-1.068-.106-1.524-.317-.457-.214-.819-.523-1.088-.926-.268-.406-.402-.897-.402-1.472 0-.507.099-.917.299-1.231.199-.319.466-.568.799-.748.334-.18.702-.315 1.105-.403.406-.092.815-.165 1.225-.219.537-.069.972-.12 1.306-.155.338-.038.583-.101.736-.19.158-.088.236-.241.236-.46v-.046c0-.567-.155-1.008-.466-1.323-.307-.314-.772-.472-1.398-.472-.648 0-1.156.142-1.524.426s-.627.587-.777.909l-1.288-.46c.23-.537.537-.955.92-1.254.388-.303.809-.514 1.266-.633.46-.123.913-.184 1.357-.184.284 0 .61.034.978.103.372.066.731.202 1.076.409.349.207.639.519.869.937s.345.978.345 1.68v5.822h-1.358v-1.197h-.069c-.092.192-.245.397-.46.616-.215.218-.5.404-.857.558-.357.153-.792.23-1.306.23zm.207-1.22c.537 0 .99-.105 1.358-.316.372-.211.652-.483.84-.817.191-.334.287-.685.287-1.053v-1.242c-.057.069-.184.132-.379.19-.192.053-.415.101-.668.143-.249.039-.493.073-.73.104-.234.027-.424.05-.57.069-.353.046-.682.121-.989.224-.303.1-.549.252-.737.455-.184.199-.276.471-.276.817 0 .471.175.828.524 1.07.353.237.799.356 1.34.356zm13.166-7.823v7.57h1.242v4.119h-1.357v-2.853h-6.834v-8.836h1.357v7.57h4.234v-7.57zm4.587 6.834 4.256-6.834h1.565v8.836h-1.358v-6.834l-4.233 6.834h-1.588v-8.836h1.358zm12.437-2.968v1.265h-4.671v-1.265zm-3.52-3.866v8.836h-1.358v-8.836zm6.235 9.02c-.797 0-1.497-.19-2.099-.57-.598-.379-1.066-.911-1.404-1.593-.333-.683-.5-1.48-.5-2.393 0-.921.167-1.724.5-2.41.338-.687.806-1.22 1.404-1.6.602-.379 1.302-.569 2.099-.569.798 0 1.496.19 2.094.569.602.38 1.07.913 1.404 1.6.337.686.506 1.489.506 2.41 0 .913-.169 1.71-.506 2.393-.334.682-.802 1.214-1.404 1.593-.598.38-1.296.57-2.094.57zm0-1.22c.606 0 1.105-.155 1.496-.466.391-.31.681-.719.869-1.225s.282-1.055.282-1.645c0-.591-.094-1.141-.282-1.651s-.478-.922-.869-1.237c-.391-.314-.89-.472-1.496-.472-.605 0-1.104.158-1.495.472-.391.315-.681.727-.869 1.237s-.282 1.06-.282 1.651c0 .59.094 1.139.282 1.645s.478.915.869 1.225c.391.311.89.466 1.495.466zm8.134-.575-.092.621c-.065.437-.165.905-.299 1.404-.131.498-.267.968-.409 1.409s-.259.792-.351 1.053h-1.035c.05-.246.115-.57.196-.972.08-.403.161-.854.241-1.352.084-.495.154-1.001.207-1.519l.069-.644zm9.463 1.818c-.56 0-1.068-.106-1.524-.317-.457-.214-.819-.523-1.088-.926-.268-.406-.402-.897-.402-1.472 0-.507.099-.917.299-1.231.199-.319.466-.568.799-.748.334-.18.702-.315 1.105-.403.406-.092.815-.165 1.225-.219.537-.069.972-.12 1.306-.155.337-.038.583-.101.736-.19.158-.088.236-.241.236-.46v-.046c0-.567-.155-1.008-.466-1.323-.307-.314-.773-.472-1.398-.472-.648 0-1.156.142-1.524.426s-.627.587-.777.909l-1.288-.46c.23-.537.537-.955.92-1.254.388-.303.809-.514 1.266-.633.46-.123.912-.184 1.357-.184.284 0 .61.034.978.103.372.066.731.202 1.076.409.349.207.638.519.869.937.23.418.345.978.345 1.68v5.822h-1.358v-1.197h-.069c-.092.192-.245.397-.46.616-.215.218-.501.404-.857.558-.357.153-.792.23-1.306.23zm.207-1.22c.537 0 .989-.105 1.358-.316.372-.211.652-.483.84-.817.191-.334.287-.685.287-1.053v-1.242c-.057.069-.184.132-.38.19-.191.053-.414.101-.667.143-.249.039-.493.073-.73.104-.234.027-.424.05-.57.069-.353.046-.682.121-.989.224-.303.1-.549.252-.737.455-.184.199-.276.471-.276.817 0 .471.175.828.524 1.07.353.237.799.356 1.34.356zm16.582-4.026v1.265h-4.878v-1.265zm-4.556-3.797v8.836h-1.358v-8.836zm5.591 0v8.836h-1.357v-8.836zm6.08 9.02c-.851 0-1.586-.188-2.203-.564-.614-.38-1.087-.909-1.421-1.588-.33-.682-.495-1.476-.495-2.381s.165-1.703.495-2.393c.334-.694.798-1.235 1.392-1.622.598-.392 1.296-.587 2.094-.587.46 0 .915.077 1.363.23.449.153.858.403 1.226.748.368.341.661.794.88 1.357.218.564.328 1.258.328 2.083v.575h-6.811v-1.174h5.43c0-.498-.1-.943-.299-1.334-.196-.391-.476-.7-.84-.926-.36-.227-.786-.34-1.277-.34-.541 0-1.009.135-1.404.403-.391.265-.692.61-.903 1.035-.211.426-.316.883-.316 1.37v.782c0 .667.115 1.233.345 1.697.234.46.558.811.972 1.053.414.237.896.356 1.444.356.357 0 .679-.05.967-.149.291-.104.542-.257.753-.461.211-.207.374-.464.489-.77l1.312.368c-.138.445-.37.836-.696 1.173-.326.334-.729.595-1.208.783-.48.184-1.019.276-1.617.276zm9.128 2.347v-3.797h.736c.181-.188.336-.391.466-.61.131-.218.244-.477.34-.776.099-.303.184-.671.253-1.105.069-.437.13-.964.184-1.582l.299-3.497h5.615v7.57h1.357v3.797h-1.357v-2.531h-6.535v2.531zm2.278-3.797h4.257v-6.305h-2.991l-.23 2.232c-.096.925-.215 1.732-.357 2.422s-.368 1.241-.679 1.651zm12.259 1.45c-.797 0-1.497-.19-2.099-.57-.598-.379-1.066-.911-1.404-1.593-.333-.683-.5-1.48-.5-2.393 0-.921.167-1.724.5-2.41.338-.687.806-1.22 1.404-1.6.602-.379 1.302-.569 2.099-.569.798 0 1.496.19 2.094.569.602.38 1.07.913 1.404 1.6.337.686.506 1.489.506 2.41 0 .913-.169 1.71-.506 2.393-.334.682-.802 1.214-1.404 1.593-.598.38-1.296.57-2.094.57zm0-1.22c.606 0 1.105-.155 1.496-.466.391-.31.681-.719.869-1.225s.282-1.055.282-1.645c0-.591-.094-1.141-.282-1.651s-.478-.922-.869-1.237c-.391-.314-.89-.472-1.496-.472-.605 0-1.104.158-1.495.472-.391.315-.681.727-.869 1.237s-.282 1.06-.282 1.651c0 .59.094 1.139.282 1.645s.478.915.869 1.225c.391.311.89.466 1.495.466zm9.562 1.22c-.828 0-1.542-.196-2.14-.587s-1.058-.93-1.381-1.616c-.322-.687-.483-1.471-.483-2.353 0-.898.165-1.69.495-2.376.334-.69.798-1.229 1.392-1.616.598-.392 1.296-.587 2.094-.587.621 0 1.181.115 1.68.345.498.23.907.552 1.225.966.318.415.516.898.592 1.45h-1.357c-.104-.403-.334-.759-.69-1.07-.353-.314-.829-.472-1.427-.472-.529 0-.993.138-1.392.415-.395.272-.704.657-.926 1.156-.219.494-.328 1.075-.328 1.743 0 .682.107 1.277.322 1.783.219.506.525.899.92 1.179.399.28.867.42 1.404.42.353 0 .673-.061.961-.184.287-.123.531-.299.73-.529.2-.23.342-.506.426-.828h1.357c-.076.521-.266.991-.569 1.409-.299.414-.696.744-1.191.989-.491.242-1.062.363-1.714.363zm4.659-7.755v-1.265h7.179v1.265h-2.899v7.571h-1.358v-7.571zm9.93 10.884c-.231 0-.436-.019-.616-.057-.18-.035-.305-.069-.374-.104l.345-1.196c.33.084.622.115.875.092s.477-.137.673-.34c.199-.199.381-.523.546-.972l.253-.69-3.267-8.882h1.472l2.44 7.041h.092l2.439-7.041h1.472l-3.75 10.124c-.169.457-.378.834-.627 1.133-.25.303-.539.528-.869.674-.326.145-.694.218-1.104.218zm8.038-3.313v-8.836h6.949v8.836h-1.358v-7.571h-4.233v7.571zm13.776 0v-8.836h1.358v3.843h.897l3.175-3.843h1.749l-3.566 4.257 3.612 4.579h-1.749l-2.899-3.728h-1.219v3.728zm13.048 0v-8.836h3.613c.951 0 1.707.215 2.266.644.56.43.84.997.84 1.703 0 .537-.159.953-.477 1.248-.318.292-.727.489-1.225.593.326.046.642.161.949.345.31.184.567.437.771.759.203.318.304.71.304 1.174 0 .452-.115.857-.345 1.213-.23.357-.56.639-.989.846-.43.207-.944.311-1.542.311zm1.289-1.243h2.876c.468 0 .834-.111 1.099-.333.265-.223.397-.526.397-.909 0-.457-.132-.815-.397-1.076-.265-.265-.631-.397-1.099-.397h-2.876zm0-3.889h2.324c.364 0 .677-.049.938-.149.26-.104.46-.249.598-.437.142-.192.213-.418.213-.679 0-.372-.156-.664-.466-.874-.311-.215-.738-.323-1.283-.323h-2.324zm10.303 5.339c-.559 0-1.068-.106-1.524-.317-.456-.214-.819-.523-1.087-.926-.269-.406-.403-.897-.403-1.472 0-.507.1-.917.299-1.231.2-.319.466-.568.8-.748s.702-.315 1.104-.403c.407-.092.815-.165 1.226-.219.537-.069.972-.12 1.305-.155.338-.038.583-.101.737-.19.157-.088.236-.241.236-.46v-.046c0-.567-.156-1.008-.466-1.323-.307-.314-.773-.472-1.398-.472-.648 0-1.156.142-1.525.426-.368.284-.627.587-.776.909l-1.289-.46c.23-.537.537-.955.921-1.254.387-.303.809-.514 1.265-.633.46-.123.913-.184 1.358-.184.284 0 .61.034.978.103.372.066.73.202 1.075.409.349.207.639.519.869.937s.345.978.345 1.68v5.822h-1.357v-1.197h-.069c-.092.192-.246.397-.461.616-.214.218-.5.404-.857.558-.356.153-.792.23-1.306.23zm.208-1.22c.536 0 .989-.105 1.357-.316.372-.211.652-.483.84-.817.192-.334.288-.685.288-1.053v-1.242c-.058.069-.184.132-.38.19-.192.053-.414.101-.667.143-.25.039-.493.073-.731.104-.234.027-.424.05-.569.069-.353.046-.683.121-.99.224-.303.1-.548.252-.736.455-.184.199-.276.471-.276.817 0 .471.174.828.523 1.07.353.237.8.356 1.341.356zm6.216-7.823h1.358v7.57h3.336v-7.57h1.358v7.57h3.336v-7.57h1.358v8.836h-10.746zm16.825 9.02c-.851 0-1.585-.188-2.203-.564-.613-.38-1.087-.909-1.421-1.588-.329-.682-.494-1.476-.494-2.381s.165-1.703.494-2.393c.334-.694.798-1.235 1.392-1.622.599-.392 1.297-.587 2.094-.587.461 0 .915.077 1.364.23.448.153.857.403 1.225.748.368.341.662.794.88 1.357.219.564.328 1.258.328 2.083v.575h-6.811v-1.174h5.43c0-.498-.099-.943-.299-1.334-.195-.391-.475-.7-.84-.926-.36-.227-.786-.34-1.277-.34-.54 0-1.008.135-1.403.403-.391.265-.692.61-.903 1.035-.211.426-.317.883-.317 1.37v.782c0 .667.115 1.233.345 1.697.234.46.558.811.973 1.053.414.237.895.356 1.443.356.357 0 .679-.05.967-.149.291-.104.542-.257.753-.461.211-.207.374-.464.489-.77l1.312.368c-.138.445-.37.836-.696 1.173-.326.334-.729.595-1.208.783-.48.184-1.018.276-1.617.276zm10.452-2.025 3.083-6.995h1.289l-3.82 8.836h-1.104l-3.751-8.836h1.266zm-3.474-6.995v8.836h-1.358v-8.836zm6.949 8.836v-8.836h1.357v8.836zm4.296 3.313c-.23 0-.435-.019-.615-.057-.181-.035-.305-.069-.374-.104l.345-1.196c.33.084.621.115.874.092s.478-.137.673-.34c.2-.199.382-.523.547-.972l.253-.69-3.268-8.882h1.473l2.439 7.041h.092l2.439-7.041h1.473l-3.751 10.124c-.169.457-.378.834-.627 1.133-.249.303-.539.528-.868.674-.326.145-.695.218-1.105.218zm-271.5363 19.894c-.5599 0-1.068-.106-1.5244-.317-.4563-.214-.8187-.523-1.0872-.926-.2684-.406-.4027-.897-.4027-1.472 0-.507.0997-.917.2992-1.231.1994-.319.4659-.568.7996-.748.3336-.18.7018-.315 1.1044-.403.4065-.092.815-.165 1.2253-.219.5369-.069.9722-.12 1.3058-.155.3375-.038.5829-.101.7363-.19.1573-.088.2359-.241.2359-.46v-.046c0-.567-.1553-1.008-.466-1.323-.3068-.314-.7727-.472-1.3978-.472-.6481 0-1.1563.142-1.5244.426-.3682.284-.627.587-.7766.909l-1.2886-.46c.2301-.537.5369-.955.9204-1.254.3874-.303.8092-.514 1.2656-.633.4602-.123.9127-.184 1.3576-.184.2838 0 .6097.034.9779.103.372.066.7306.202 1.0757.409.349.207.6385.519.8686.937s.3452.978.3452 1.68v5.822h-1.3576v-1.197h-.069c-.0921.192-.2455.397-.4602.616-.2148.218-.5005.404-.8572.558-.3566.153-.7919.23-1.3058.23zm.2071-1.22c.5369 0 .9894-.105 1.3576-.316.372-.211.652-.483.8399-.817.1917-.334.2876-.685.2876-1.053v-1.242c-.0575.069-.1841.132-.3797.19-.1917.053-.4141.101-.6673.143-.2492.039-.4928.073-.7305.104-.234.027-.4238.05-.5695.069-.3528.046-.6826.121-.9894.224-.303.1-.5485.252-.7364.455-.184.199-.2761.471-.2761.817 0 .471.1745.828.5235 1.07.3528.237.7996.356 1.3403.356zm6.2164 1.013v-8.836h1.3576v3.843h.8974l3.1754-3.843h1.7487l-3.5665 4.257 3.6125 4.579h-1.7487l-2.8993-3.728h-1.2195v3.728zm8.5965 0v-8.836h1.3576v3.843h.8974l3.1754-3.843h1.7487l-3.5665 4.257 3.6125 4.579h-1.7487l-2.8993-3.728h-1.2195v3.728zm11.1963.207c-.56 0-1.068-.106-1.524-.317-.456-.214-.819-.523-1.087-.926-.269-.406-.403-.897-.403-1.472 0-.507.1-.917.299-1.231.2-.319.466-.568.8-.748.333-.18.702-.315 1.104-.403.407-.092.815-.165 1.226-.219.536-.069.972-.12 1.305-.155.338-.038.583-.101.737-.19.157-.088.236-.241.236-.46v-.046c0-.567-.156-1.008-.466-1.323-.307-.314-.773-.472-1.398-.472-.648 0-1.157.142-1.525.426s-.627.587-.776.909l-1.289-.46c.23-.537.537-.955.921-1.254.387-.303.809-.514 1.265-.633.46-.123.913-.184 1.358-.184.283 0 .609.034.978.103.372.066.73.202 1.075.409.349.207.639.519.869.937s.345.978.345 1.68v5.822h-1.357v-1.197h-.07c-.092.192-.245.397-.46.616-.214.218-.5.404-.857.558-.356.153-.792.23-1.306.23zm.207-1.22c.537 0 .99-.105 1.358-.316.372-.211.652-.483.84-.817.192-.334.288-.685.288-1.053v-1.242c-.058.069-.185.132-.38.19-.192.053-.414.101-.667.143-.25.039-.493.073-.731.104-.234.027-.424.05-.57.069-.352.046-.682.121-.989.224-.303.1-.548.252-.736.455-.184.199-.276.471-.276.817 0 .471.174.828.523 1.07.353.237.8.356 1.34.356zm6.775 4.326c-.23 0-.435-.019-.616-.057-.18-.035-.305-.069-.374-.104l.346-1.196c.329.084.621.115.874.092s.477-.137.673-.34c.199-.199.382-.523.546-.972l.254-.69-3.268-8.882h1.473l2.439 7.041h.092l2.439-7.041h1.473l-3.751 10.124c-.169.457-.378.834-.627 1.133-.249.303-.539.528-.869.674-.326.145-.694.218-1.104.218zm13.952-8.352v1.265h-4.878v-1.265zm-4.556-3.797v8.836h-1.358v-8.836zm5.591 0v8.836h-1.357v-8.836zm1.173 1.265v-1.265h7.179v1.265h-2.899v7.571h-1.357v-7.571zm9.93 10.884c-.23 0-.435-.019-.616-.057-.18-.035-.305-.069-.374-.104l.346-1.196c.329.084.621.115.874.092s.477-.137.673-.34c.199-.199.382-.523.547-.972l.253-.69-3.268-8.882h1.473l2.439 7.041h.092l2.439-7.041h1.473l-3.751 10.124c-.169.457-.378.834-.627 1.133-.249.303-.539.528-.869.674-.326.145-.694.218-1.104.218zm19.784-15.094v1.265h-5.683v10.516h-1.427v-11.781zm4.228 11.965c-.798 0-1.498-.19-2.1-.57-.598-.379-1.066-.911-1.403-1.593-.334-.683-.501-1.48-.501-2.393 0-.921.167-1.724.501-2.41.337-.687.805-1.22 1.403-1.6.602-.379 1.302-.569 2.1-.569s1.496.19 2.094.569c.602.38 1.07.913 1.403 1.6.338.686.507 1.489.507 2.41 0 .913-.169 1.71-.507 2.393-.333.682-.801 1.214-1.403 1.593-.598.38-1.296.57-2.094.57zm0-1.22c.606 0 1.104-.155 1.496-.466.391-.31.68-.719.868-1.225s.282-1.055.282-1.645c0-.591-.094-1.141-.282-1.651s-.477-.922-.868-1.237c-.392-.314-.89-.472-1.496-.472s-1.105.158-1.496.472c-.391.315-.68.727-.868 1.237s-.282 1.06-.282 1.651c0 .59.094 1.139.282 1.645s.477.915.868 1.225c.391.311.89.466 1.496.466zm9.561 1.22c-.828 0-1.541-.196-2.14-.587-.598-.391-1.058-.93-1.38-1.616-.322-.687-.483-1.471-.483-2.353 0-.898.165-1.69.494-2.376.334-.69.798-1.229 1.392-1.616.599-.392 1.297-.587 2.094-.587.622 0 1.182.115 1.68.345.499.23.907.552 1.225.966.319.415.516.898.593 1.45h-1.358c-.103-.403-.333-.759-.69-1.07-.353-.314-.828-.472-1.427-.472-.529 0-.993.138-1.392.415-.395.272-.703.657-.926 1.156-.218.494-.328 1.075-.328 1.743 0 .682.108 1.277.322 1.783.219.506.526.899.921 1.179.399.28.866.42 1.403.42.353 0 .673-.061.961-.184s.531-.299.731-.529c.199-.23.341-.506.425-.828h1.358c-.077.521-.267.991-.57 1.409-.299.414-.696.744-1.19.989-.491.242-1.063.363-1.715.363zm6.23 3.129c-.23 0-.436-.019-.616-.057-.18-.035-.305-.069-.374-.104l.345-1.196c.33.084.622.115.875.092s.477-.137.673-.34c.199-.199.381-.523.546-.972l.253-.69-3.267-8.882h1.473l2.439 7.041h.092l2.439-7.041h1.472l-3.75 10.124c-.169.457-.378.834-.627 1.133-.249.303-.539.528-.869.674-.326.145-.694.218-1.104.218zm11.311-3.129c-.828 0-1.541-.196-2.14-.587-.598-.391-1.058-.93-1.38-1.616-.322-.687-.483-1.471-.483-2.353 0-.898.165-1.69.494-2.376.334-.69.798-1.229 1.392-1.616.599-.392 1.297-.587 2.094-.587.622 0 1.182.115 1.68.345.499.23.907.552 1.225.966.319.415.516.898.593 1.45h-1.358c-.103-.403-.333-.759-.69-1.07-.353-.314-.828-.472-1.427-.472-.529 0-.993.138-1.392.415-.395.272-.703.657-.926 1.156-.218.494-.328 1.075-.328 1.743 0 .682.108 1.277.322 1.783.219.506.526.899.921 1.179.399.28.866.42 1.403.42.353 0 .673-.061.961-.184s.531-.299.731-.529c.199-.23.341-.506.425-.828h1.358c-.077.521-.267.991-.57 1.409-.299.414-.696.744-1.19.989-.491.242-1.063.363-1.715.363zm4.573-.184v-1.266h.322c.265 0 .485-.052.662-.155.176-.108.318-.294.425-.558.112-.269.196-.641.253-1.116.062-.48.106-1.089.133-1.829l.161-3.912h5.89v8.836h-1.357v-7.571h-3.245l-.138 3.153c-.03.725-.096 1.363-.195 1.915-.096.549-.244 1.009-.443 1.381-.196.372-.457.652-.783.84-.325.188-.734.282-1.225.282zm10.791 3.313c-.23 0-.435-.019-.615-.057-.181-.035-.305-.069-.374-.104l.345-1.196c.33.084.621.115.874.092s.478-.137.673-.34c.2-.199.382-.523.547-.972l.253-.69-3.268-8.882h1.473l2.439 7.041h.092l2.439-7.041h1.473l-3.751 10.124c-.169.457-.378.834-.627 1.133-.249.303-.539.528-.868.674-.326.145-.695.218-1.105.218zm13.492-12.149v1.265h-4.096v7.571h-1.357v-8.836zm1.396 8.928c-.284 0-.528-.102-.731-.305s-.305-.447-.305-.731.102-.527.305-.73c.203-.204.447-.305.731-.305s.527.101.73.305c.204.203.305.446.305.73 0 .188-.048.361-.144.518-.092.157-.216.284-.374.38-.153.092-.325.138-.517.138z"/></g><g clip-path="url(#g)"><path d="m0 0h326.832v333.391h-326.832z" fill="#fff" transform="translate(453.787 36.5957)"/><ellipse cx="620.973" cy="189.727" fill="url(#c)" rx="79.8083" ry="139.159" transform="matrix(.72597 .68772637 -.68772637 .72597 300.645495 -375.068619)"/><circle cx="631.381" cy="79.6326" fill="#edf1f5" r="6.01196"/><circle cx="741.236" cy="118.437" fill="#edf1f5" r="4.37234"/><circle cx="576.18" cy="90.0169" fill="#edf1f5" r="4.37234"/><circle cx="590.937" cy="301.529" fill="#edf1f5" r="7.10505"/><circle cx="698.059" cy="290.598" fill="#edf1f5" r="3.8258"/><path d="m591.073 174.788c1.623-2.426 4.349-3.883 7.269-3.883h82.032c2.862 0 5.543 1.401 7.178 3.75l30.113 43.269c1.108 1.592 1.655 3.508 1.555 5.446l-1.603 31.06c-.24 4.649-4.079 8.294-8.733 8.294h-138.389c-4.743 0-8.621-3.78-8.742-8.521l-.805-31.492c-.046-1.806.469-3.583 1.473-5.085z" fill="#b1b5bf"/><path d="m557.598 214.628c0-7.244 5.873-13.117 13.117-13.117h11.461c3.626 0 7.091 1.502 9.57 4.147l7.083 7.556c2.479 2.646 5.944 4.147 9.57 4.147h59.59c3.312 0 6.502-1.253 8.929-3.508l9.506-8.833c2.426-2.255 5.616-3.509 8.928-3.509h13.092c7.244 0 13.117 5.873 13.117 13.117v56.841c0 7.244-5.873 13.117-13.117 13.117h-137.729c-7.244 0-13.117-5.873-13.117-13.117z" fill="#e1e2e5"/><g fill="#fff"><path d="m676.744 134.833h4.37234v26.234h-4.37234z"/><path d="m601.322 96.5754h4.37234v34.9787h-4.37234z"/><path d="m601.322 134.833h4.37234v26.234h-4.37234z"/><path d="m616.625 139.206h4.37234v61.2127h-4.37234z"/><path d="m616.625 100.948h4.37234v30.6064h-4.37234z"/><path d="m635.207 150.137h4.37234v33.8856h-4.37234z"/><path d="m657.069 100.948h4.37234v43.7234h-4.37234z"/><path d="m648.324 152.323h4.37234v43.7234h-4.37234z"/><path d="m664.72 144.671h4.37234v43.7234h-4.37234z"/><path d="m669.093 109.692h4.37234v10.9308h-4.37234z"/><path d="m601.322 174.184h4.37234v10.9308h-4.37234z"/><path d="m589.298 146.857h4.37234v41.5372h-4.37234z"/><path d="m635.207 109.692h4.37234v10.9308h-4.37234z"/><path d="m635.207 130.461h4.37234v5.46542h-4.37234z"/></g><g clip-path="url(#h)"><g fill="#ebf1fb" filter="url(#a)"><path d="m629.774 201.515h18.5824v19.6755h-18.5824z"/><path d="m638.3 204.881h2.623v7.958l3.236-3.235 1.836 1.836-6.384 6.384-6.383-6.384 1.836-1.836 3.236 3.235zm1.311-11.018c-2.39 0-4.649.459-6.777 1.377-2.128.919-3.986 2.172-5.574 3.761-1.589 1.588-2.842 3.446-3.761 5.574-.918 2.128-1.377 4.387-1.377 6.777 0 2.42.459 4.693 1.377 6.821.919 2.128 2.172 3.979 3.761 5.553 1.588 1.574 3.446 2.82 5.574 3.739 2.128.918 4.387 1.377 6.777 1.377 2.42 0 4.693-.459 6.821-1.377 2.128-.919 3.979-2.165 5.553-3.739s2.82-3.425 3.738-5.553c.919-2.128 1.378-4.401 1.378-6.821 0-2.39-.459-4.649-1.378-6.777-.918-2.128-2.164-3.986-3.738-5.574-1.574-1.589-3.425-2.842-5.553-3.761-2.128-.918-4.401-1.377-6.821-1.377z"/></g><path d="m640.61 202.608h-2.472v10.645l-.618-.665-3.707-3.992-1.853 1.996 7.414 7.319 6.796-7.319-1.853-1.996-3.707 3.992z" fill="#b1b5bf"/></g><ellipse cx="620.973" cy="521.723" fill="url(#d)" rx="79.8083" ry="139.159" transform="matrix(.72597 .68772637 -.68772637 .72597 528.9679 -284.091754)"/></g><path d="m36.5957 327.532h786.8083v97.786c0 5.112-4.144 9.256-9.256 9.256h-768.2957c-5.1123 0-9.2566-4.144-9.2566-9.256z" fill="#fff"/><rect fill="#5392f7" height="54.3824" rx="6.36389" width="348.278" x="74.2006" y="346.623"/><rect height="54.3824" rx="6.36389" stroke="#3976d9" stroke-width="1.15707" width="348.278" x="74.2006" y="346.623"/><g fill="#fff"><path clip-rule="evenodd" d="m141.476 366.28c-1.161-.669-2.575-.721-3.767-.127-1.121.559-2.293 1.157-3.164 1.631-.438.239-.789.44-1.018.587-.065.041-.113.074-.148.099-.025.044-.056.086-.094.124-.226.226-.592.226-.818 0-.135-.136-.187-.314-.173-.475.011-.134.065-.232.093-.278.058-.094.132-.162.172-.196.092-.081.216-.166.344-.248.265-.17.645-.388 1.088-.629.89-.484 2.077-1.09 3.202-1.651 1.546-.77 3.37-.698 4.861.16l3.54 2.038c1.614.93 2.609 2.65 2.609 4.513v3.245c0 1.781-.91 3.437-2.412 4.393l-3.407 2.169c-1.672 1.064-3.804 1.086-5.498.058l-4.31-2.617c-.273-.166-.36-.522-.194-.795.165-.273.521-.36.794-.194l4.311 2.617c1.317.8 2.975.782 4.276-.046l3.407-2.168c1.168-.743 1.876-2.032 1.876-3.417v-3.245c0-1.449-.774-2.787-2.029-3.51zm-8.161 2.241s.002-.002.005-.005c-.003.003-.005.005-.005.005z" fill-rule="evenodd"/><path clip-rule="evenodd" d="m130.848 372.003c0-.319.259-.578.578-.578h8.462c.32 0 .579.259.579.578 0 .32-.259.579-.579.579h-8.462c-.319 0-.578-.259-.578-.579zm0 2.902c0-.32.259-.579.578-.579h5.561c.32 0 .579.259.579.579 0 .319-.259.578-.579.578h-5.561c-.319 0-.578-.259-.578-.578z" fill-rule="evenodd"/><path d="m162.104 380.999c-.982 0-1.856-.169-2.623-.507-.763-.341-1.365-.81-1.808-1.406-.438-.601-.664-1.293-.677-2.078h2.866c.018.329.125.618.323.868.201.245.469.436.802.572s.707.204 1.124.204c.434 0 .817-.077 1.15-.23.333-.154.594-.366.783-.638.188-.272.282-.585.282-.94 0-.36-.1-.677-.302-.954-.197-.28-.482-.499-.855-.657-.368-.158-.806-.237-1.315-.237h-1.255v-2.09h1.255c.43 0 .809-.075 1.138-.224.333-.149.591-.355.776-.618.184-.267.276-.578.276-.933 0-.338-.081-.634-.244-.888-.157-.258-.381-.46-.67-.605-.285-.144-.618-.217-.999-.217-.386 0-.739.07-1.059.211-.32.136-.576.331-.769.585s-.296.552-.309.894h-2.728c.013-.776.234-1.46.664-2.051.429-.592 1.008-1.054 1.735-1.387.732-.338 1.558-.507 2.479-.507.929 0 1.742.169 2.439.507.697.337 1.238.793 1.624 1.367.39.57.583 1.21.578 1.92.005.754-.23 1.383-.703 1.887-.469.504-1.081.824-1.835.959v.106c.991.127 1.745.471 2.262 1.032.522.556.78 1.253.776 2.09.004.767-.217 1.449-.664 2.045-.443.596-1.054 1.065-1.834 1.407-.781.342-1.675.513-2.683.513zm10.133.006c-.644 0-1.219-.112-1.723-.335-.504-.228-.902-.563-1.196-1.006-.289-.447-.434-1.004-.434-1.67 0-.561.103-1.032.309-1.413.206-.382.486-.688.841-.921.355-.232.759-.407 1.21-.526.456-.118.934-.201 1.433-.249.588-.062 1.061-.119 1.42-.171.36-.057.621-.141.783-.25.162-.11.243-.272.243-.487v-.039c0-.416-.132-.739-.395-.967-.258-.227-.626-.341-1.104-.341-.504 0-.905.111-1.203.335-.298.219-.495.495-.592.828l-2.59-.21c.131-.614.39-1.144.776-1.591.385-.452.883-.798 1.492-1.039.614-.245 1.324-.368 2.13-.368.561 0 1.098.066 1.611.197.517.132.975.336 1.374.612.403.276.721.631.953 1.065.232.429.349.944.349 1.545v6.811h-2.656v-1.401h-.079c-.162.316-.379.594-.651.835-.272.237-.598.423-.98.559-.381.131-.822.197-1.321.197zm.802-1.933c.412 0 .776-.081 1.091-.243.316-.166.563-.39.743-.67.18-.281.27-.599.27-.954v-1.071c-.088.057-.209.109-.362.157-.149.044-.318.086-.506.125-.189.035-.377.068-.566.099-.188.026-.359.05-.512.072-.329.049-.616.125-.862.23-.245.106-.436.248-.572.428-.135.175-.203.394-.203.657 0 .381.138.673.414.875.28.197.635.295 1.065.295zm7.057 1.743v-10.099h8.83v10.099h-2.676v-7.896h-3.511v7.896zm15.627.197c-1.021 0-1.904-.217-2.649-.651-.741-.438-1.313-1.048-1.716-1.828-.403-.784-.605-1.694-.605-2.728 0-1.043.202-1.955.605-2.735.403-.784.975-1.394 1.716-1.828.745-.438 1.628-.657 2.649-.657 1.022 0 1.903.219 2.643.657.745.434 1.32 1.044 1.723 1.828.403.78.605 1.692.605 2.735 0 1.034-.202 1.944-.605 2.728-.403.78-.978 1.39-1.723 1.828-.74.434-1.621.651-2.643.651zm.014-2.17c.464 0 .852-.131 1.163-.394.311-.268.546-.631.704-1.091.162-.461.243-.984.243-1.572 0-.587-.081-1.111-.243-1.571-.158-.46-.393-.824-.704-1.091-.311-.268-.699-.401-1.163-.401-.469 0-.864.133-1.184.401-.315.267-.554.631-.716 1.091-.158.46-.237.984-.237 1.571 0 .588.079 1.111.237 1.572.162.46.401.823.716 1.091.32.263.715.394 1.184.394zm6.186 1.973-.013-2.223h.335c.237 0 .441-.057.611-.17.176-.119.32-.309.434-.572s.204-.612.27-1.046c.066-.438.11-.977.131-1.617l.165-4.471h7.679v10.099h-2.67v-7.896h-2.491l-.158 3.083c-.039.846-.142 1.574-.309 2.183-.162.609-.388 1.109-.677 1.499-.289.385-.638.67-1.046.854-.407.185-.88.277-1.42.277zm18.811-6.167v2.202h-5.273v-2.202zm-4.353-3.932v10.099h-2.675v-10.099zm6.108 0v10.099h-2.656v-10.099zm4.848 6.404 3.636-6.404h2.761v10.099h-2.669v-6.423l-3.622 6.423h-2.781v-10.099h2.675zm7.628-4.201v-2.203h9.152v2.203h-3.255v7.896h-2.669v-7.896zm12.605.901h3.017c1.337 0 2.38.32 3.13.959.749.636 1.124 1.486 1.124 2.551 0 .693-.169 1.302-.506 1.828-.338.521-.824.929-1.46 1.223-.635.289-1.398.434-2.288.434h-4.773v-10.099h2.676v7.896h2.097c.469 0 .855-.118 1.157-.355.303-.236.456-.539.461-.907-.005-.39-.158-.708-.461-.953-.302-.25-.688-.375-1.157-.375h-3.017zm16.089 3.3 3.635-6.404h2.761v10.099h-2.669v-6.423l-3.622 6.423h-2.781v-10.099h2.676zm8.122.835h2.715c.013.333.162.596.447.789s.653.289 1.105.289c.456 0 .839-.105 1.15-.316.312-.214.467-.521.467-.92 0-.245-.061-.458-.184-.638-.123-.184-.294-.328-.513-.434-.219-.105-.473-.157-.762-.157h-1.453v-1.835h1.453c.434 0 .767-.1.999-.302.237-.202.355-.454.355-.756 0-.342-.123-.616-.368-.822-.241-.21-.568-.315-.98-.315-.416 0-.762.094-1.039.282-.271.184-.412.425-.42.723h-2.702c.008-.604.19-1.128.545-1.571.36-.442.842-.784 1.447-1.025.609-.241 1.29-.362 2.044-.362.824 0 1.534.116 2.13.348.601.228 1.061.555 1.381.98.324.425.486.931.486 1.519 0 .534-.175.981-.526 1.341-.35.359-.841.616-1.472.769v.105c.416.026.793.138 1.131.335.337.198.607.469.808.816.202.342.303.747.303 1.216 0 .627-.184 1.164-.553 1.611-.363.447-.867.791-1.512 1.032-.64.236-1.374.355-2.202.355-.806 0-1.53-.116-2.17-.349-.635-.236-1.141-.583-1.518-1.038-.373-.456-.57-1.013-.592-1.67zm23.536-10.605v2.347h-6.088v11.118h-2.846v-13.465zm4.868 13.662c-1.021 0-1.904-.217-2.649-.651-.741-.438-1.313-1.048-1.716-1.828-.403-.784-.605-1.694-.605-2.728 0-1.043.202-1.955.605-2.735.403-.784.975-1.394 1.716-1.828.745-.438 1.628-.657 2.649-.657s1.902.219 2.643.657c.745.434 1.319 1.044 1.723 1.828.403.78.604 1.692.604 2.735 0 1.034-.201 1.944-.604 2.728-.404.78-.978 1.39-1.723 1.828-.741.434-1.622.651-2.643.651zm.013-2.17c.465 0 .853-.131 1.164-.394.311-.268.546-.631.704-1.091.162-.461.243-.984.243-1.572 0-.587-.081-1.111-.243-1.571-.158-.46-.393-.824-.704-1.091-.311-.268-.699-.401-1.164-.401-.469 0-.863.133-1.183.401-.316.267-.554.631-.717 1.091-.157.46-.236.984-.236 1.571 0 .588.079 1.111.236 1.572.163.46.401.823.717 1.091.32.263.714.394 1.183.394zm11.341 2.17c-1.034 0-1.924-.219-2.669-.658-.741-.442-1.311-1.056-1.709-1.84-.395-.785-.592-1.688-.592-2.709 0-1.034.199-1.942.598-2.722.403-.784.975-1.396 1.716-1.834.741-.443 1.622-.664 2.643-.664.881 0 1.652.16 2.314.48s1.186.769 1.571 1.348c.386.578.599 1.258.638 2.038h-2.643c-.074-.504-.272-.91-.592-1.217-.315-.311-.729-.466-1.242-.466-.434 0-.813.118-1.137.355-.32.232-.57.572-.75 1.019s-.269.988-.269 1.624c0 .644.087 1.192.263 1.643.179.452.431.796.756 1.032.324.237.703.355 1.137.355.32 0 .607-.065.861-.197.259-.131.471-.322.638-.572.171-.254.283-.559.335-.914h2.643c-.044.772-.254 1.451-.631 2.038-.373.583-.888 1.039-1.545 1.368-.658.328-1.435.493-2.334.493zm8.032 3.589c-.355 0-.688-.028-.999-.085-.307-.053-.561-.121-.763-.204l.631-2.091c.329.101.625.156.888.165.267.009.497-.053.69-.184.197-.132.357-.355.48-.671l.164-.427-3.622-10.388h2.945l2.091 7.416h.105l2.11-7.416h2.965l-3.924 11.19c-.189.543-.445 1.017-.77 1.42-.32.408-.725.721-1.216.94-.491.224-1.082.335-1.775.335zm13.356-3.589c-1.035 0-1.924-.219-2.669-.658-.741-.442-1.311-1.056-1.71-1.84-.394-.785-.591-1.688-.591-2.709 0-1.034.199-1.942.598-2.722.403-.784.975-1.396 1.716-1.834.74-.443 1.621-.664 2.643-.664.881 0 1.652.16 2.314.48s1.185.769 1.571 1.348c.386.578.598 1.258.638 2.038h-2.643c-.075-.504-.272-.91-.592-1.217-.315-.311-.73-.466-1.242-.466-.434 0-.813.118-1.138.355-.32.232-.569.572-.749 1.019s-.27.988-.27 1.624c0 .644.088 1.192.263 1.643.18.452.432.796.756 1.032.325.237.704.355 1.138.355.32 0 .607-.065.861-.197.258-.131.471-.322.638-.572.171-.254.282-.559.335-.914h2.643c-.044.772-.254 1.451-.631 2.038-.373.583-.888 1.039-1.545 1.368-.658.328-1.436.493-2.334.493zm5.711-.197-.013-2.223h.335c.237 0 .441-.057.612-.17.175-.119.32-.309.434-.572s.203-.612.269-1.046c.066-.438.11-.977.132-1.617l.164-4.471h7.679v10.099h-2.669v-7.896h-2.492l-.158 3.083c-.039.846-.142 1.574-.309 2.183-.162.609-.388 1.109-.677 1.499-.289.385-.638.67-1.045.854-.408.185-.881.277-1.42.277zm13.15 3.786c-.355 0-.688-.028-.999-.085-.307-.053-.561-.121-.763-.204l.632-2.091c.328.101.624.156.887.165.267.009.498-.053.69-.184.198-.132.358-.355.48-.671l.165-.427-3.623-10.388h2.946l2.09 7.416h.105l2.111-7.416h2.965l-3.925 11.19c-.189.543-.445 1.017-.769 1.42-.32.408-.726.721-1.217.94-.49.224-1.082.335-1.775.335zm16.035-13.885v2.203h-4.194v7.896h-2.722v-10.099z"/></g><rect fill="#5593f7" fill-opacity=".05" height="55.5394" rx="6.94243" width="349.436" x="436.942" y="346.045"/><path d="m495.684 380.999c-.981 0-1.856-.169-2.623-.507-.762-.341-1.365-.81-1.808-1.406-.438-.601-.664-1.293-.677-2.078h2.866c.018.329.125.618.323.868.201.245.469.436.802.572s.708.204 1.124.204c.434 0 .817-.077 1.15-.23.333-.154.594-.366.783-.638.188-.272.282-.585.282-.94 0-.36-.1-.677-.302-.954-.197-.28-.482-.499-.855-.657-.368-.158-.806-.237-1.315-.237h-1.255v-2.09h1.255c.43 0 .809-.075 1.138-.224.333-.149.592-.355.776-.618.184-.267.276-.578.276-.933 0-.338-.081-.634-.244-.888-.157-.258-.381-.46-.67-.605-.285-.144-.618-.217-.999-.217-.386 0-.739.07-1.059.211-.32.136-.576.331-.769.585s-.296.552-.309.894h-2.728c.013-.776.234-1.46.664-2.051.429-.592 1.008-1.054 1.735-1.387.732-.338 1.558-.507 2.479-.507.929 0 1.742.169 2.439.507.697.337 1.238.793 1.624 1.367.39.57.583 1.21.578 1.92.005.754-.23 1.383-.703 1.887-.469.504-1.081.824-1.834.959v.106c.99.127 1.744.471 2.261 1.032.522.556.78 1.253.776 2.09.004.767-.217 1.449-.664 2.045-.443.596-1.054 1.065-1.834 1.407-.781.342-1.675.513-2.683.513zm10.133.006c-.644 0-1.219-.112-1.723-.335-.504-.228-.902-.563-1.196-1.006-.289-.447-.434-1.004-.434-1.67 0-.561.103-1.032.309-1.413.206-.382.487-.688.842-.921.355-.232.758-.407 1.209-.526.456-.118.934-.201 1.433-.249.588-.062 1.061-.119 1.42-.171.36-.057.621-.141.783-.25.162-.11.243-.272.243-.487v-.039c0-.416-.131-.739-.394-.967-.259-.227-.627-.341-1.105-.341-.504 0-.905.111-1.203.335-.298.219-.495.495-.592.828l-2.59-.21c.132-.614.39-1.144.776-1.591.385-.452.883-.798 1.492-1.039.614-.245 1.324-.368 2.13-.368.561 0 1.098.066 1.611.197.517.132.975.336 1.374.612.403.276.721.631.953 1.065.232.429.349.944.349 1.545v6.811h-2.656v-1.401h-.079c-.162.316-.379.594-.651.835-.272.237-.598.423-.98.559-.381.131-.821.197-1.321.197zm.802-1.933c.412 0 .776-.081 1.091-.243.316-.166.563-.39.743-.67.18-.281.27-.599.27-.954v-1.071c-.088.057-.208.109-.362.157-.149.044-.318.086-.506.125-.189.035-.377.068-.565.099-.189.026-.36.05-.513.072-.329.049-.616.125-.861.23-.246.106-.437.248-.572.428-.136.175-.204.394-.204.657 0 .381.138.673.414.875.28.197.635.295 1.065.295zm7.057 1.743v-10.099h8.83v10.099h-2.676v-7.896h-3.511v7.896zm15.627.197c-1.021 0-1.904-.217-2.649-.651-.741-.438-1.313-1.048-1.716-1.828-.403-.784-.605-1.694-.605-2.728 0-1.043.202-1.955.605-2.735.403-.784.975-1.394 1.716-1.828.745-.438 1.628-.657 2.649-.657 1.022 0 1.903.219 2.643.657.745.434 1.32 1.044 1.723 1.828.403.78.605 1.692.605 2.735 0 1.034-.202 1.944-.605 2.728-.403.78-.978 1.39-1.723 1.828-.74.434-1.621.651-2.643.651zm.014-2.17c.464 0 .852-.131 1.163-.394.311-.268.546-.631.704-1.091.162-.461.243-.984.243-1.572 0-.587-.081-1.111-.243-1.571-.158-.46-.393-.824-.704-1.091-.311-.268-.699-.401-1.163-.401-.469 0-.864.133-1.184.401-.315.267-.554.631-.716 1.091-.158.46-.237.984-.237 1.571 0 .588.079 1.111.237 1.572.162.46.401.823.716 1.091.32.263.715.394 1.184.394zm6.186 1.973-.013-2.223h.335c.237 0 .441-.057.612-.17.175-.119.319-.309.433-.572s.204-.612.27-1.046c.066-.438.11-.977.131-1.617l.165-4.471h7.679v10.099h-2.67v-7.896h-2.491l-.158 3.083c-.039.846-.142 1.574-.309 2.183-.162.609-.388 1.109-.677 1.499-.289.385-.638.67-1.045.854-.408.185-.881.277-1.42.277zm18.811-6.167v2.202h-5.273v-2.202zm-4.353-3.932v10.099h-2.675v-10.099zm6.108 0v10.099h-2.656v-10.099zm4.848 6.404 3.636-6.404h2.761v10.099h-2.669v-6.423l-3.622 6.423h-2.781v-10.099h2.675zm7.628-4.201v-2.203h9.152v2.203h-3.255v7.896h-2.669v-7.896zm12.605.901h3.017c1.337 0 2.38.32 3.13.959.749.636 1.124 1.486 1.124 2.551 0 .693-.169 1.302-.506 1.828-.338.521-.824.929-1.46 1.223-.635.289-1.398.434-2.288.434h-4.773v-10.099h2.676v7.896h2.097c.469 0 .855-.118 1.157-.355.303-.236.456-.539.461-.907-.005-.39-.158-.708-.461-.953-.302-.25-.688-.375-1.157-.375h-3.017zm16.292 7.185c-.644 0-1.218-.112-1.722-.335-.504-.228-.903-.563-1.196-1.006-.29-.447-.434-1.004-.434-1.67 0-.561.103-1.032.309-1.413.206-.382.486-.688.841-.921.355-.232.758-.407 1.21-.526.456-.118.933-.201 1.433-.249.587-.062 1.061-.119 1.42-.171.359-.057.62-.141.782-.25.162-.11.244-.272.244-.487v-.039c0-.416-.132-.739-.395-.967-.258-.227-.627-.341-1.104-.341-.504 0-.905.111-1.203.335-.298.219-.496.495-.592.828l-2.59-.21c.131-.614.39-1.144.775-1.591.386-.452.884-.798 1.493-1.039.613-.245 1.323-.368 2.13-.368.561 0 1.098.066 1.61.197.518.132.976.336 1.375.612.403.276.72.631.953 1.065.232.429.348.944.348 1.545v6.811h-2.656v-1.401h-.079c-.162.316-.379.594-.651.835-.271.237-.598.423-.979.559-.381.131-.822.197-1.322.197zm.803-1.933c.412 0 .775-.081 1.091-.243.315-.166.563-.39.743-.67.179-.281.269-.599.269-.954v-1.071c-.087.057-.208.109-.361.157-.149.044-.318.086-.507.125-.188.035-.376.068-.565.099-.188.026-.359.05-.513.072-.328.049-.615.125-.861.23-.245.106-.436.248-.572.428-.136.175-.204.394-.204.657 0 .381.138.673.415.875.28.197.635.295 1.065.295zm14.085-4.424v2.202h-5.273v-2.202zm-4.352-3.932v10.099h-2.676v-10.099zm6.107 0v10.099h-2.656v-10.099zm2.173 10.099v-10.099h2.801v3.919h.789l2.748-3.919h3.287l-3.57 5.01 3.609 5.089h-3.326l-2.492-3.583h-1.045v3.583zm15.034.197c-1.039 0-1.933-.211-2.683-.631-.745-.425-1.319-1.026-1.722-1.802-.403-.78-.605-1.702-.605-2.767 0-1.039.202-1.951.605-2.735.403-.785.971-1.396 1.703-1.835.736-.438 1.599-.657 2.59-.657.666 0 1.286.107 1.861.322.578.211 1.082.528 1.512.953.433.426.771.96 1.012 1.605.241.639.362 1.389.362 2.248v.769h-8.527v-1.735h5.89c0-.404-.087-.761-.263-1.072-.175-.311-.418-.555-.729-.73-.307-.18-.664-.269-1.072-.269-.425 0-.802.098-1.131.295-.324.193-.578.454-.762.783-.184.324-.279.686-.283 1.085v1.65c0 .499.092.931.276 1.295.189.364.454.644.796.841.341.198.747.296 1.216.296.311 0 .596-.044.854-.131.259-.088.48-.219.664-.395.185-.175.325-.39.421-.644l2.59.171c-.131.622-.401 1.166-.808 1.63-.403.461-.925.82-1.565 1.078-.635.255-1.37.382-2.202.382zm5.683-8.093v-2.203h9.152v2.203h-3.255v7.896h-2.669v-7.896zm12.578 11.682c-.355 0-.688-.028-.999-.085-.307-.053-.561-.121-.762-.204l.631-2.091c.328.101.624.156.887.165.268.009.498-.053.69-.184.198-.132.358-.355.48-.671l.165-.427-3.623-10.388h2.946l2.09 7.416h.105l2.111-7.416h2.965l-3.925 11.19c-.189.543-.445 1.017-.769 1.42-.32.408-.726.721-1.217.94-.49.224-1.082.335-1.775.335zm17.966-3.589c-1.034 0-1.924-.219-2.669-.658-.741-.442-1.31-1.056-1.709-1.84-.395-.785-.592-1.688-.592-2.709 0-1.034.2-1.942.598-2.722.404-.784.976-1.396 1.716-1.834.741-.443 1.622-.664 2.643-.664.881 0 1.652.16 2.314.48s1.186.769 1.571 1.348c.386.578.599 1.258.638 2.038h-2.643c-.074-.504-.271-.91-.591-1.217-.316-.311-.73-.466-1.243-.466-.434 0-.813.118-1.137.355-.32.232-.57.572-.75 1.019-.179.447-.269.988-.269 1.624 0 .644.087 1.192.263 1.643.179.452.431.796.756 1.032.324.237.703.355 1.137.355.32 0 .607-.065.861-.197.259-.131.472-.322.638-.572.171-.254.283-.559.335-.914h2.643c-.044.772-.254 1.451-.631 2.038-.372.583-.887 1.039-1.545 1.368-.657.328-1.435.493-2.334.493zm9.183-.007c-.644 0-1.219-.112-1.723-.335-.504-.228-.902-.563-1.196-1.006-.289-.447-.434-1.004-.434-1.67 0-.561.103-1.032.309-1.413.206-.382.486-.688.841-.921.355-.232.759-.407 1.21-.526.456-.118.934-.201 1.433-.249.588-.062 1.061-.119 1.42-.171.36-.057.621-.141.783-.25.162-.11.243-.272.243-.487v-.039c0-.416-.132-.739-.394-.967-.259-.227-.627-.341-1.105-.341-.504 0-.905.111-1.203.335-.298.219-.495.495-.592.828l-2.59-.21c.131-.614.39-1.144.776-1.591.385-.452.883-.798 1.492-1.039.614-.245 1.324-.368 2.13-.368.561 0 1.098.066 1.611.197.517.132.975.336 1.374.612.403.276.721.631.953 1.065.232.429.349.944.349 1.545v6.811h-2.656v-1.401h-.079c-.162.316-.379.594-.651.835-.272.237-.598.423-.98.559-.381.131-.821.197-1.321.197zm.802-1.933c.412 0 .776-.081 1.091-.243.316-.166.563-.39.743-.67.18-.281.27-.599.27-.954v-1.071c-.088.057-.208.109-.362.157-.149.044-.318.086-.506.125-.189.035-.377.068-.565.099-.189.026-.36.05-.513.072-.329.049-.616.125-.862.23-.245.106-.436.248-.571.428-.136.175-.204.394-.204.657 0 .381.138.673.414.875.28.197.635.295 1.065.295zm13.027-1.354 2.735-7.002h2.13l-3.938 10.099h-1.861l-3.846-10.099h2.124zm-3.294-7.002v10.099h-2.676v-10.099zm6.726 10.099v-10.099h2.642v10.099zm9.371.197c-1.021 0-1.904-.217-2.649-.651-.741-.438-1.313-1.048-1.716-1.828-.403-.784-.605-1.694-.605-2.728 0-1.043.202-1.955.605-2.735.403-.784.975-1.394 1.716-1.828.745-.438 1.628-.657 2.649-.657s1.902.219 2.643.657c.745.434 1.319 1.044 1.723 1.828.403.78.604 1.692.604 2.735 0 1.034-.201 1.944-.604 2.728-.404.78-.978 1.39-1.723 1.828-.741.434-1.622.651-2.643.651zm.013-2.17c.465 0 .853-.131 1.164-.394.311-.268.546-.631.703-1.091.163-.461.244-.984.244-1.572 0-.587-.081-1.111-.244-1.571-.157-.46-.392-.824-.703-1.091-.311-.268-.699-.401-1.164-.401-.469 0-.863.133-1.183.401-.316.267-.554.631-.717 1.091-.157.46-.236.984-.236 1.571 0 .588.079 1.111.236 1.572.163.46.401.823.717 1.091.32.263.714.394 1.183.394zm12.748-1.124 2.735-7.002h2.13l-3.938 10.099h-1.861l-3.846-10.099h2.124zm-3.294-7.002v10.099h-2.676v-10.099zm6.726 10.099v-10.099h2.642v10.099zm6.176 3.786c-.355 0-.688-.028-.999-.085-.307-.053-.561-.121-.763-.204l.631-2.091c.329.101.625.156.888.165.267.009.497-.053.69-.184.197-.132.357-.355.48-.671l.164-.427-3.622-10.388h2.945l2.091 7.416h.105l2.11-7.416h2.965l-3.924 11.19c-.189.543-.445 1.017-.77 1.42-.319.408-.725.721-1.216.94-.491.224-1.082.335-1.775.335z" fill="#3976d9"/></svg>