<svg fill="none" height="591" viewBox="0 0 860 591" width="860" xmlns="http://www.w3.org/2000/svg" xmlns:xlink="http://www.w3.org/1999/xlink"><linearGradient id="a"><stop offset="0" stop-color="#d9d9d9"/><stop offset=".117896" stop-color="#d9d9d9" stop-opacity=".991615"/><stop offset=".213837" stop-color="#d9d9d9" stop-opacity=".967585"/><stop offset=".2912" stop-color="#d9d9d9" stop-opacity=".9296"/><stop offset=".353363" stop-color="#d9d9d9" stop-opacity=".879348"/><stop offset=".403704" stop-color="#d9d9d9" stop-opacity=".818519"/><stop offset=".4456" stop-color="#d9d9d9" stop-opacity=".7488"/><stop offset=".48243" stop-color="#d9d9d9" stop-opacity=".671881"/><stop offset=".51757" stop-color="#d9d9d9" stop-opacity=".589452"/><stop offset=".5544" stop-color="#d9d9d9" stop-opacity=".5032"/><stop offset=".596296" stop-color="#d9d9d9" stop-opacity=".414815"/><stop offset=".646637" stop-color="#d9d9d9" stop-opacity=".325985"/><stop offset=".7088" stop-color="#d9d9d9" stop-opacity=".2384"/><stop offset=".786163" stop-color="#d9d9d9" stop-opacity=".153748"/><stop offset=".882104" stop-color="#d9d9d9" stop-opacity=".073719"/><stop offset="1" stop-color="#d9d9d9" stop-opacity="0"/></linearGradient><linearGradient id="b" gradientUnits="userSpaceOnUse" x1="1025.82" x2="79.7588" xlink:href="#a" y1="152.963" y2="152.962"/><linearGradient id="c" gradientUnits="userSpaceOnUse" x1="885.779" x2="133.759" xlink:href="#a" y1="191.185" y2="191.184"/><linearGradient id="d" gradientUnits="userSpaceOnUse" x1="717.723" x2="135.759" xlink:href="#a" y1="229.407" y2="229.407"/><linearGradient id="e" gradientUnits="userSpaceOnUse" x1="446.637" x2="118.759" xlink:href="#a" y1="267.63" y2="267.629"/><linearGradient id="f" gradientUnits="userSpaceOnUse" x1="332.014" x2="158.759" xlink:href="#a" y1="305.852" y2="305.852"/><linearGradient id="g" gradientUnits="userSpaceOnUse" x1="335.332" x2="109.759" xlink:href="#a" y1="344.074" y2="344.074"/><linearGradient id="h" gradientUnits="userSpaceOnUse" x1="314.756" x2="111.759" xlink:href="#a" y1="382.297" y2="382.296"/><linearGradient id="i" gradientUnits="userSpaceOnUse" x1="301.595" x2="108.759" xlink:href="#a" y1="420.519" y2="420.519"/><linearGradient id="j" gradientUnits="userSpaceOnUse" x1="244.715" x2="205.759" xlink:href="#a" y1="458.741" y2="458.741"/><linearGradient id="k" gradientUnits="userSpaceOnUse" x1="271.68" x2="97.7588" xlink:href="#a" y1="496.963" y2="496.963"/><linearGradient id="l" gradientUnits="userSpaceOnUse" x1="617.323" x2="127.759" xlink:href="#a" y1="535.185" y2="535.185"/><path d="m0 0h860v591h-860z" fill="#fff"/><g fill="#eaecef"><path d="m729.078 39.0186-2.13 12.6315h2.372l-1.361 8.0722h-4.391l.65-3.8463h-11.271l-.649 3.8463h-4.391l1.362-8.0722h1.683c.77-1.0444 1.5-2.4223 2.322-5.3185l2.09-7.313h13.717zm-5.576 4.2258h-4.817l-.928 3.2528c-.809 2.8249-1.477 4.1062-2.152 5.1529h6.48z"/><path d="m732.949 39.0186h10.441c3.679 0 5.333 1.8748 4.875 4.5824-.293 1.7322-1.597 2.8479-2.82 3.3471 1.336.5222 2.393 1.8518 2.009 4.1315-.489 2.8962-2.85 4.7964-6.766 4.7964h-10.584zm3.063 10.1149-.497 2.9445h4.793c1.281 0 2.073-.4739 2.242-1.4723.172-1.0214-.463-1.4722-1.746-1.4722h-4.794zm1.065-6.3147-.424 2.5167h4.722c.997 0 1.697-.3566 1.85-1.2583.152-.9018-.429-1.2584-1.426-1.2584z"/><path d="m751.281 39.0186h4.865l-1.713 10.1609 9.14-10.1609h4.865l-2.843 16.8574h-4.865l1.707-10.1149-9.133 10.1149h-4.865z"/><path d="m775.671 47.139-5.726-8.1204h5.505l4.77 6.8851 1.164-6.8851h4.627l-1.161 6.8851 7.095-6.8851h5.388l-8.24 7.9065 5.752 8.9509h-5.862l-4.6-7.1934-1.214 7.1934h-4.628l1.214-7.1934-7.028 7.1934h-5.648l8.594-8.737z"/><path d="m804.438 39.0186h-5.648l5.623 7.9065-8.346 8.9509h5.648l8.346-8.9509zm8.928 0h-5.648l5.623 7.9065-8.345 8.9509h5.648l8.345-8.9509zm9.159 0h-5.648l5.623 7.9065-8.346 8.9509h5.648l8.346-8.9509z"/></g><path d="m32.8696 42.6373v-3.6342h17.1226v3.6342h-6.3828v17.2143h-4.357v-17.2143zm23.5116 17.5197c-1.5813 0-2.9488-.336-4.1025-1.0079-1.1469-.6786-2.0326-1.622-2.657-2.83-.6243-1.2148-.9365-2.623-.9365-4.2246 0-1.6153.3122-3.0269.9365-4.2349.6244-1.2148 1.5101-2.1581 2.657-2.83 1.1537-.6787 2.5212-1.018 4.1025-1.018s2.9454.3393 4.0923 1.018c1.1538.6719 2.0428 1.6152 2.6672 2.83.6243 1.208.9365 2.6196.9365 4.2349 0 1.6016-.3122 3.0098-.9365 4.2246-.6244 1.208-1.5134 2.1514-2.6672 2.83-1.1469.6719-2.511 1.0079-4.0923 1.0079zm.0204-3.3594c.7194 0 1.32-.2036 1.8018-.6108.4819-.414.8449-.9773 1.0893-1.6899.2511-.7126.3766-1.5236.3766-2.433s-.1255-1.7204-.3766-2.433c-.2444-.7126-.6074-1.2759-1.0893-1.6898-.4818-.414-1.0824-.621-1.8018-.621-.7262 0-1.337.207-1.8324.621-.4887.4139-.8585.9772-1.1096 1.6898-.2443.7126-.3665 1.5236-.3665 2.433s.1222 1.7204.3665 2.433c.2511.7126.6209 1.2759 1.1096 1.6899.4954.4072 1.1062.6108 1.8324.6108zm9.3488 3.054v-15.6364h13.6716v15.6364h-4.1432v-12.2261h-5.4361v12.2261zm25.7283-10.2818v3.4409h-9.508v-3.4409zm11.5783-10.5667v20.8485h-4.4079v-16.6646h-.1222l-4.7744 2.9929v-3.9091l5.1612-3.2677zm11.983 21.3066c-1.751-.0068-3.258-.4378-4.52-1.2929-1.256-.8551-2.223-2.0937-2.901-3.7157-.672-1.622-1.005-3.5731-.998-5.8534 0-2.2735.336-4.2111 1.008-5.8128.679-1.6016 1.646-2.8198 2.901-3.6545 1.262-.8416 2.766-1.2624 4.51-1.2624s3.244.4208 4.499 1.2624c1.263.8415 2.233 2.0631 2.912 3.6647.679 1.5949 1.014 3.5291 1.008 5.8026 0 2.2871-.34 4.2416-1.018 5.8636-.672 1.622-1.636 2.8606-2.891 3.7157-1.256.8551-2.759 1.2827-4.51 1.2827zm0-3.6546c1.194 0 2.148-.6006 2.86-1.8019.713-1.2012 1.066-3.0031 1.059-5.4055 0-1.5813-.163-2.8979-.488-3.9498-.319-1.052-.774-1.8426-1.365-2.372-.583-.5293-1.272-.794-2.066-.794-1.188 0-2.138.5938-2.851 1.7815-.712 1.1877-1.072 2.9658-1.079 5.3343 0 1.6016.16 2.9386.479 4.0109.326 1.0655.784 1.8663 1.374 2.4024.591.5294 1.283.7941 2.077.7941zm28.944-18.1814 1.323 2.83c-.441.3665-.93.638-1.466.8144-.536.1697-1.177.2817-1.924.336-.74.0543-1.642.0916-2.708.112-1.208.0135-2.192.2069-2.952.5802s-1.337.9603-1.731 1.7611c-.393.7941-.651 1.8324-.773 3.1151h.153c.468-.9569 1.126-1.6967 1.974-2.2192.856-.5226 1.911-.7839 3.166-.7839 1.331 0 2.494.2918 3.492.8755 1.005.5836 1.785 1.4218 2.341 2.5144.557 1.0927.835 2.4025.835 3.9295 0 1.588-.312 2.9691-.936 4.1432-.618 1.1673-1.497 2.0733-2.637 2.718-1.14.638-2.497.957-4.072.957-1.581 0-2.945-.3326-4.092-.9977-1.14-.6651-2.023-1.6457-2.647-2.942-.618-1.2962-.926-2.8911-.926-4.7845v-1.2827c0-3.7666.733-6.5593 2.198-8.3781 1.466-1.8188 3.621-2.7418 6.465-2.7689.773-.0136 1.472-.017 2.097-.0102.624.0068 1.17-.0238 1.639-.0916.475-.0679.868-.2104 1.181-.4276zm-5.895 18.3239c.666 0 1.236-.1731 1.711-.5192.482-.3461.851-.8415 1.109-1.4863.265-.6447.397-1.415.397-2.3108 0-.889-.132-1.6424-.397-2.2599-.258-.6244-.627-1.0995-1.109-1.4252-.482-.3258-1.059-.4887-1.731-.4887-.502 0-.953.0916-1.354.2749-.4.1832-.743.4547-1.028.8144-.278.3529-.495.7906-.652 1.3132-.149.5158-.223 1.1062-.223 1.7713 0 1.337.288 2.3923.865 3.166.583.7668 1.388 1.1503 2.412 1.1503zm13.816 3.3492c-.998 0-1.887-.1731-2.667-.5192-.781-.3529-1.398-.8721-1.853-1.5575-.448-.6923-.672-1.5542-.672-2.5857 0-.8687.159-1.5983.478-2.1887s.754-1.0655 1.303-1.4252c.55-.3597 1.175-.6312 1.874-.8144.705-.1832 1.445-.3122 2.219-.3868.909-.095 1.642-.1833 2.199-.2647.556-.0882.96-.2172 1.211-.3868.251-.1697.377-.4208.377-.7534v-.061c0-.6448-.204-1.1436-.611-1.4965-.4-.3529-.971-.5293-1.71-.5293-.781 0-1.402.173-1.863.5191-.462.3394-.767.7669-.916 1.2827l-4.011-.3258c.203-.9501.604-1.7713 1.201-2.4635.597-.699 1.367-1.2352 2.311-1.6084.95-.3801 2.049-.5701 3.298-.5701.869 0 1.7.1018 2.494.3054.801.2036 1.51.5192 2.128.9467.624.4276 1.116.9773 1.476 1.6492.36.6651.539 1.4625.539 2.3923v10.5464h-4.112v-2.1684h-.122c-.252.4887-.588.9196-1.008 1.2929-.421.3665-.927.6549-1.517.8653-.591.2036-1.273.3054-2.046.3054zm1.242-2.9929c.638 0 1.201-.1256 1.69-.3767.488-.2579.872-.604 1.15-1.0383.278-.4344.417-.9264.417-1.4761v-1.6593c-.135.0882-.322.1696-.56.2443-.23.0678-.492.1323-.783.1934-.292.0543-.584.1052-.876.1527-.292.0407-.556.078-.794.112-.509.0746-.954.1934-1.334.3563-.38.1628-.675.3834-.885.6617-.211.2714-.316.6108-.316 1.018 0 .5904.214 1.0417.642 1.3539.434.3054.984.4581 1.649.4581zm20.663-6.8511v3.4103h-8.164v-3.4103zm-6.739-6.0876v15.6364h-4.143v-15.6364zm9.458 0v15.6364h-4.113v-15.6364zm2.217 15.6364v-15.6364h4.337v6.0672h1.222l4.255-6.0672h5.09l-5.528 7.7571 5.589 7.8793h-5.151l-3.858-5.5481h-1.619v5.5481zm22.072.3054c-1.582 0-2.949-.336-4.103-1.0079-1.147-.6786-2.033-1.622-2.657-2.83-.624-1.2148-.936-2.623-.936-4.2246 0-1.6153.312-3.0269.936-4.2349.624-1.2148 1.51-2.1581 2.657-2.83 1.154-.6787 2.521-1.018 4.103-1.018 1.581 0 2.945.3393 4.092 1.018 1.154.6719 2.043 1.6152 2.667 2.83.624 1.208.937 2.6196.937 4.2349 0 1.6016-.313 3.0098-.937 4.2246-.624 1.208-1.513 2.1514-2.667 2.83-1.147.6719-2.511 1.0079-4.092 1.0079zm.02-3.3594c.719 0 1.32-.2036 1.802-.6108.482-.414.845-.9773 1.089-1.6899.251-.7126.377-1.5236.377-2.433s-.126-1.7204-.377-2.433c-.244-.7126-.607-1.2759-1.089-1.6898-.482-.414-1.083-.621-1.802-.621-.726 0-1.337.207-1.832.621-.489.4139-.859.9772-1.11 1.6898-.244.7126-.367 1.5236-.367 2.433s.123 1.7204.367 2.433c.251.7126.621 1.2759 1.11 1.6899.495.4072 1.106.6108 1.832.6108zm9.349 3.054v-15.6364h6.668c1.927 0 3.451.3665 4.57 1.0994 1.12.733 1.68 1.7747 1.68 3.1253 0 .8483-.316 1.5541-.947 2.1174s-1.506.9433-2.626 1.1401c.936.0679 1.734.2817 2.392.6414.665.3529 1.171.811 1.517 1.3743.353.5633.529 1.1876.529 1.8731 0 .889-.237 1.6525-.712 2.2905-.469.6379-1.157 1.1265-2.067 1.4659-.902.3393-2.005.509-3.308.509zm4.041-3.2474h3.655c.604 0 1.075-.1426 1.415-.4276.346-.2918.519-.6888.519-1.191 0-.5565-.173-.9943-.519-1.3133-.34-.3189-.811-.4784-1.415-.4784h-3.655zm0-5.9553h2.718c.435 0 .804-.0611 1.11-.1832.312-.129.55-.3122.712-.5497.17-.2376.255-.5192.255-.845 0-.4818-.194-.8585-.58-1.1299-.387-.2715-.917-.4072-1.588-.4072h-2.627z" fill="#000"/><rect fill="#f7f7f7" height="460.333" rx="15.9259" width="796.296" x="31.8516" y="98.7407"/><path d="m45.5053 122.685h-1.4558l2.6505-7.529h1.6837l2.6541 7.529h-1.4557l-2.0109-5.985h-.0588zm.0478-2.952h3.9701v1.096h-3.9701zm7.5115 2.952v-7.529h2.882c.5441 0 .9963.086 1.3565.258.3627.169.6335.4.8124.695.1814.294.2721.627.2721.999 0 .307-.0589.569-.1765.787-.1176.216-.2757.391-.4742.526s-.4203.231-.6654.29v.074c.2672.014.5233.097.7683.246.2475.147.4497.355.6066.625.1568.27.2352.595.2352.978 0 .389-.0943.74-.283 1.051-.1887.309-.473.553-.8529.732-.3798.179-.8577.268-1.4336.268zm1.3638-1.14h1.4668c.495 0 .8516-.094 1.0697-.283.2206-.191.3309-.436.3309-.735 0-.223-.0552-.424-.1655-.603-.1102-.181-.2671-.323-.4705-.426-.2034-.105-.446-.158-.7279-.158h-1.5035zm0-3.187h1.3491c.2353 0 .4473-.043.636-.128.1887-.089.337-.212.4448-.372.1103-.161.1654-.353.1654-.573 0-.292-.1029-.532-.3088-.721-.2034-.188-.506-.283-.9079-.283h-1.3786zm11.3163-3.202v1.144h-3.4776v6.385h-1.3638v-7.529zm2.8613 7.632v-1.147h.4301c.1936 0 .3529-.028.4779-.084.1249-.057.2254-.138.3014-.243.0784-.106.1434-.228.1948-.368l.0993-.253-2.6909-5.537h1.4263l1.8748 4.029 1.6212-4.029h1.4042l-2.5953 6.139c-.1201.265-.2585.511-.4154.739-.1568.226-.3615.408-.6139.548-.25.137-.5759.206-.9778.206zm13.1653-5.091h-1.3748c-.0393-.226-.1116-.426-.2169-.6-.1054-.176-.2365-.326-.3934-.448-.1568-.123-.3357-.215-.5367-.276-.1985-.063-.4129-.095-.6433-.095-.4093 0-.772.103-1.0881.308-.3162.204-.5637.503-.7426.897-.1789.393-.2683.872-.2683 1.438 0 .576.0894 1.061.2683 1.455.1814.393.4289.689.7426.89.3161.199.6776.298 1.0844.298.2255 0 .4363-.03.6323-.088.1985-.062.3762-.151.533-.269.1593-.117.2929-.262.4007-.434.1103-.171.1863-.367.228-.588l1.3748.008c-.0515.357-.163.693-.3345 1.007-.1691.314-.3909.591-.6654.831-.2745.237-.5955.424-.9631.558-.3676.133-.7757.199-1.2242.199-.6616 0-1.2523-.153-1.7718-.46-.5196-.306-.9288-.748-1.2278-1.327-.299-.578-.4485-1.272-.4485-2.08 0-.811.1507-1.505.4521-2.081.3015-.578.712-1.021 1.2315-1.327.5196-.306 1.1078-.459 1.7645-.459.4191 0 .8088.058 1.169.176.3603.118.6813.29.9632.518.2818.226.5134.503.6948.831.1838.326.3038.699.3602 1.118zm1.9533-1.397v-1.144h6.0067v1.144h-2.3269v6.385h-1.3528v-6.385z" fill="#646464" opacity=".6"/><path d="m44.8241 158.463v-10.424h3.9905c.7533 0 1.3794.118 1.8782.356.5022.234.8772.555 1.1249.962.2511.407.3766.869.3766 1.384 0 .425-.0814.788-.2443 1.09-.1629.298-.3817.541-.6566.728-.2748.186-.5819.32-.9213.402v.101c.3699.021.7245.134 1.0638.341.3428.204.6227.492.8399.866.2171.373.3257.824.3257 1.354 0 .539-.1306 1.024-.3919 1.455-.2613.428-.6549.766-1.1809 1.013-.5259.248-1.1876.372-1.9851.372zm1.8883-1.578h2.0309c.6855 0 1.1792-.131 1.4812-.392.3054-.265.4581-.604.4581-1.018 0-.309-.0763-.587-.229-.835-.1527-.251-.3699-.448-.6515-.59-.2817-.146-.6176-.219-1.0079-.219h-2.0818zm0-4.413h1.8681c.3257 0 .6192-.059.8805-.178.2613-.122.4666-.294.6159-.514.1527-.224.2291-.489.2291-.794 0-.404-.1426-.737-.4276-.998-.2816-.261-.7007-.392-1.2572-.392h-1.9088zm6.5005-2.85v-1.583h8.317v1.583h-3.222v8.841h-1.8731v-8.841zm9.347 8.841v-10.424h6.7035v1.583h-4.8151v2.443h2.0105c.7974 0 1.4812.13 2.0513.392.5734.258 1.0129.622 1.3183 1.094s.4581 1.027.4581 1.664c0 .642-.1527 1.207-.4581 1.695-.3054.486-.7449.866-1.3183 1.141-.5701.274-1.2539.412-2.0513.412zm1.8884-1.547h2.0105c.4208 0 .7771-.08 1.0689-.24.2918-.159.5124-.37.6617-.631.1527-.261.229-.544.229-.85 0-.441-.1696-.816-.509-1.125-.3359-.312-.8194-.468-1.4506-.468h-2.0105z" fill="#5f5f5f"/><path d="m79.7588 141.019h684.482v23.8889h-684.482z" fill="url(#b)"/><path d="m764.24 141.019v23.888" stroke="#cacaca" stroke-width="3.18519"/><path d="m773.321 158.463v-1.14l3.528-3.655c.376-.397.687-.745.931-1.043.248-.302.433-.589.555-.86.122-.272.183-.56.183-.866 0-.346-.081-.645-.244-.896-.163-.254-.385-.449-.667-.585-.282-.139-.599-.209-.952-.209-.373 0-.699.077-.977.229-.278.153-.492.369-.641.647-.15.278-.224.604-.224.977h-1.502c0-.634.146-1.189.438-1.664s.692-.844 1.201-1.105c.509-.265 1.088-.397 1.736-.397.655 0 1.231.131 1.73.392.502.258.894.611 1.176 1.059.282.444.423.947.423 1.506 0 .387-.073.766-.219 1.135-.143.37-.392.783-.749 1.237-.356.452-.851 1-1.486 1.644l-2.071 2.169v.076h4.692v1.349zm8.217 0v-1.14l3.528-3.655c.376-.397.687-.745.931-1.043.248-.302.433-.589.555-.86.122-.272.183-.56.183-.866 0-.346-.081-.645-.244-.896-.163-.254-.385-.449-.667-.585-.282-.139-.599-.209-.952-.209-.373 0-.699.077-.977.229-.278.153-.492.369-.641.647-.15.278-.224.604-.224.977h-1.502c0-.634.146-1.189.438-1.664s.692-.844 1.201-1.105c.509-.265 1.088-.397 1.736-.397.655 0 1.231.131 1.73.392.503.258.894.611 1.176 1.059.282.444.423.947.423 1.506 0 .387-.073.766-.219 1.135-.143.37-.392.783-.749 1.237-.356.452-.851 1-1.486 1.644l-2.071 2.169v.076h4.693v1.349zm10.218-1.425-.077.555c-.051.407-.137.831-.259 1.272-.119.445-.243.857-.372 1.237-.125.38-.229.682-.31.906h-1.079c.044-.211.105-.496.183-.855.078-.357.154-.755.229-1.196.075-.442.13-.891.168-1.349l.051-.57zm1.336-.611v-1.273l4.505-7.115h1.003v1.873h-.637l-3.222 5.1v.081h6.175v1.334zm4.943 2.036v-2.423l.01-.58v-7.421h1.491v10.424zm12.742-1.955v-.549c0-.394.082-.754.245-1.079.166-.33.407-.593.722-.789.319-.201.704-.301 1.156-.301.461 0 .848.099 1.16.296.312.196.548.459.708.788.163.33.244.691.244 1.085v.549c0 .394-.081.755-.244 1.085-.163.325-.402.588-.718.788-.312.197-.696.296-1.15.296-.458 0-.845-.099-1.161-.296-.315-.2-.555-.463-.717-.788-.163-.33-.245-.691-.245-1.085zm1.186-.549v.549c0 .292.07.557.209.794.139.238.382.357.728.357.342 0 .582-.119.717-.357.136-.237.204-.502.204-.794v-.549c0-.292-.066-.557-.198-.794-.129-.238-.37-.357-.723-.357-.34 0-.581.119-.723.357-.143.237-.214.502-.214.794zm-6.428-5.416v-.55c0-.393.081-.755.244-1.084.166-.329.407-.592.723-.789.319-.197.704-.295 1.155-.295.462 0 .848.098 1.161.295.312.197.548.46.707.789.16.329.239.691.239 1.084v.55c0 .394-.081.755-.244 1.084-.159.326-.397.589-.713.789-.312.197-.695.295-1.15.295-.461 0-.85-.098-1.166-.295-.312-.2-.549-.463-.712-.789-.163-.329-.244-.69-.244-1.084zm1.191-.55v.55c0 .292.067.556.203.794.139.237.382.356.728.356.339 0 .577-.119.713-.356.139-.238.208-.502.208-.794v-.55c0-.292-.066-.556-.198-.794-.132-.237-.373-.356-.723-.356-.339 0-.58.119-.723.356-.139.238-.208.502-.208.794zm-.708 8.47 7.167-10.424h1.216l-7.166 10.424z" fill="#858585"/><path d="m46.1627 196.685h-2.0156l3.6699-10.424h2.3312l3.6749 10.424h-2.0156l-2.7842-8.286h-.0814zm.0662-4.087h5.4972v1.517h-5.4972zm7.7729 4.087-.0101-1.517h.2697c.2036 0 .375-.046.5141-.137.1391-.092.2545-.244.3461-.458.0916-.217.1629-.509.2138-.876.0509-.366.0865-.823.1069-1.369l.1374-3.461h5.7008v7.818h-1.7815v-6.306h-2.2447l-.1221 2.519c-.0306.652-.1035 1.217-.2189 1.695-.112.475-.2715.867-.4785 1.176-.2036.309-.4598.539-.7686.692-.3087.149-.6735.224-1.0943.224zm9.8077-5.273h2.3057c.9977 0 1.7696.242 2.316.728.5463.485.8211 1.121.8245 1.908-.0034.513-.1289.968-.3766 1.365-.2443.397-.6006.709-1.0689.936-.4649.224-1.0299.336-1.695.336h-3.5528v-7.818h1.7764v6.306h1.7764c.4004 0 .7296-.101.9875-.305.2579-.207.3868-.472.3868-.794 0-.339-.1289-.616-.3868-.83s-.5871-.32-.9875-.32h-2.3057zm9.9998 7.93v-13.081h1.8476v13.081zm0-2.504c-.5735 0-1.0978-.097-1.5728-.29-.4751-.194-.8857-.469-1.2318-.825-.3427-.356-.6091-.78-.7991-1.272-.1867-.496-.28-1.044-.28-1.644 0-.601.0933-1.149.28-1.645.19-.495.4564-.921.7991-1.277.3461-.36.7567-.636 1.2318-.83.475-.193.9993-.29 1.5728-.29h.3919v8.073zm0-1.487h.229v-5.1h-.229c-.3258 0-.6142.068-.8653.204-.2477.132-.4564.317-.6261.555-.1663.234-.2935.505-.3817.814-.0849.306-.1273.633-.1273.983 0 .464.0764.89.2291 1.277.1527.384.3766.691.6718.921.2986.231.6651.346 1.0995.346zm1.8476 1.487h-.3919v-8.073h.3919c.5735 0 1.0978.097 1.5728.29.4751.194.884.47 1.2267.83.3461.356.6125.782.7991 1.277.1901.496.2851 1.044.2851 1.645 0 .6-.095 1.148-.2851 1.644-.1866.492-.453.916-.7991 1.272-.3427.356-.7516.631-1.2267.825-.475.193-.9993.29-1.5728.29zm0-1.487c.3292 0 .6176-.066.8653-.198s.4547-.316.621-.55c.1697-.234.2969-.504.3817-.809.0849-.309.1273-.638.1273-.987 0-.465-.0747-.891-.224-1.278s-.3732-.696-.6718-.926c-.2953-.235-.6617-.352-1.0995-.352h-.229v5.1zm7.1151 1.492c-.4954 0-.9417-.088-1.3387-.265-.3936-.18-.7058-.444-.9365-.794-.2274-.349-.3411-.78-.3411-1.293 0-.441.0815-.806.2444-1.094.1628-.288.3851-.519.6667-.692.2817-.173.599-.304.9519-.392.3563-.092.7244-.158 1.1045-.199.4581-.047.8296-.09 1.1147-.127.285-.041.492-.102.621-.183.1323-.085.1985-.216.1985-.392v-.031c0-.383-.1137-.68-.3411-.89-.2273-.211-.5548-.316-.9823-.316-.4513 0-.8093.098-1.074.295-.2613.197-.4377.429-.5294.698l-1.7204-.245c.1358-.475.3597-.872.6719-1.191.3122-.322.6939-.563 1.1453-.723.4513-.162.9501-.244 1.4964-.244.3767 0 .7516.044 1.1249.132.3732.089.7143.235 1.0231.438.3088.2.5565.474.7431.82.19.346.285.778.285 1.298v5.232h-1.7713v-1.074h-.061c-.112.217-.2698.421-.4734.611-.2002.187-.453.338-.7584.453-.302.112-.6566.168-1.0638.168zm.4784-1.354c.3699 0 .6906-.073.962-.219.2715-.149.4802-.346.6261-.59.1493-.245.224-.511.224-.8v-.921c-.0577.048-.1561.092-.2953.133-.1357.04-.2884.076-.4581.106-.1696.031-.3376.058-.5039.082-.1662.024-.3104.044-.4326.061-.2749.037-.5209.098-.7381.183-.2171.085-.3885.204-.514.356-.1256.15-.1884.343-.1884.581 0 .339.1239.595.3716.768s.5633.26.9467.26zm9.6677-3.904v1.517h-4.6929v-1.517zm7.6309-5.609.641 1.191c-.227.197-.482.339-.764.427-.281.089-.6121.146-.9922.173-.3766.024-.8246.041-1.3437.051-.5837.014-1.0604.124-1.4303.331s-.6532.521-.85.942c-.1968.417-.3258.95-.3869 1.598h.0866c.2443-.478.587-.843 1.0281-1.094.4412-.251.9586-.377 1.5525-.377.6481 0 1.2199.146 1.7153.438.4986.288.8876.707 1.1656 1.257.282.55.422 1.215.422 1.995 0 .805-.151 1.502-.453 2.092-.302.587-.731 1.04-1.2873 1.359-.5531.319-1.2097.479-1.9698.479-.7567 0-1.415-.165-1.9749-.494-.5565-.333-.9875-.823-1.2929-1.471-.302-.651-.453-1.454-.453-2.408v-.702c0-1.839.3427-3.212 1.0282-4.118.6854-.906 1.7017-1.367 3.0489-1.384.4004-.007.7584-.009 1.0739-.005.319.003.5973-.012.8348-.046.2371-.034.4381-.112.6011-.234zm-2.856 9.386c.3767 0 .7025-.097.9773-.29.2749-.197.4853-.476.6312-.835.1493-.36.2239-.786.2239-1.278 0-.485-.0746-.897-.2239-1.237-.1493-.342-.3614-.604-.6363-.784-.2748-.179-.6023-.269-.9823-.269-.2851 0-.5413.051-.7686.152-.2274.102-.4208.252-.5803.448-.1595.197-.2816.436-.3664.718-.0849.282-.1307.606-.1375.972 0 .737.1663 1.322.4988 1.756.3326.431.7873.647 1.3641.647zm6.945 1.481c-.496 0-.942-.088-1.339-.265-.394-.18-.706-.444-.937-.794-.227-.349-.341-.78-.341-1.293 0-.441.082-.806.245-1.094s.385-.519.666-.692c.282-.173.599-.304.952-.392.357-.092.725-.158 1.105-.199.458-.047.829-.09 1.114-.127.286-.041.493-.102.621-.183.133-.085.199-.216.199-.392v-.031c0-.383-.114-.68-.341-.89-.227-.211-.555-.316-.982-.316-.452 0-.81.098-1.074.295-.262.197-.438.429-.53.698l-1.72-.245c.136-.475.36-.872.672-1.191.312-.322.694-.563 1.145-.723.451-.162.95-.244 1.496-.244.377 0 .752.044 1.125.132.374.089.715.235 1.023.438.309.2.557.474.744.82.19.346.285.778.285 1.298v5.232h-1.772v-1.074h-.061c-.112.217-.27.421-.473.611-.2.187-.453.338-.759.453-.302.112-.656.168-1.063.168zm.478-1.354c.37 0 .691-.073.962-.219.272-.149.48-.346.626-.59.149-.245.224-.511.224-.8v-.921c-.058.048-.156.092-.295.133-.136.04-.289.076-.458.106-.17.031-.338.058-.504.082s-.311.044-.433.061c-.275.037-.521.098-.738.183s-.388.204-.514.356c-.125.15-.188.343-.188.581 0 .339.124.595.371.768.248.173.564.26.947.26zm10.299-3.477v1.512h-4.164v-1.512zm-3.594-3.145v7.818h-1.776v-7.818zm4.8 0v7.818h-1.771v-7.818zm1.291 7.818v-7.818h1.843v3.156h.671l2.352-3.156h2.219l-2.896 3.838 2.927 3.98h-2.23l-2.142-2.947h-.901v2.947z" fill="#5f5f5f"/><path d="m133.759 179.241h544.093v23.8889h-544.093z" fill="url(#c)"/><path d="m677.851 179.241v23.889" stroke="#cacaca" stroke-width="3.18519"/><path d="m690.959 186.261v10.424h-1.578v-8.846h-.061l-2.494 1.628v-1.506l2.601-1.7zm5.713-.143c.465.004.923.089 1.374.255s.859.438 1.222.814c.366.377.658.886.875 1.527.221.638.333 1.432.336 2.382 0 .913-.092 1.726-.275 2.438-.183.71-.446 1.308-.789 1.797-.339.489-.751.86-1.237 1.115-.485.254-1.031.382-1.639.382-.62 0-1.172-.123-1.654-.367s-.874-.582-1.176-1.013c-.302-.434-.49-.933-.565-1.496h1.553c.102.448.309.811.621 1.089.315.275.723.412 1.221.412.764 0 1.36-.332 1.787-.997.428-.669.643-1.602.646-2.8h-.081c-.176.292-.397.543-.662.753-.261.211-.554.374-.88.489s-.674.173-1.044.173c-.6 0-1.147-.147-1.639-.443-.492-.295-.884-.7-1.175-1.216-.292-.516-.438-1.105-.438-1.766 0-.659.149-1.256.448-1.792.302-.536.723-.96 1.262-1.273.543-.315 1.179-.469 1.909-.463zm.005 1.324c-.397 0-.755.098-1.074.295-.316.193-.565.456-.748.789-.184.329-.275.695-.275 1.099s.088.771.265 1.1c.179.325.424.585.732.778.313.191.669.286 1.069.286.299 0 .577-.058.835-.174.258-.115.484-.274.677-.478.194-.207.345-.441.453-.702.109-.262.163-.537.163-.825 0-.383-.092-.74-.275-1.069-.18-.329-.427-.594-.743-.794-.316-.204-.675-.305-1.079-.305zm6.69 7.818-.076.555c-.051.407-.138.831-.26 1.272-.119.445-.243.857-.372 1.237-.125.38-.229.682-.31.906h-1.079c.044-.21.105-.495.183-.855.078-.356.155-.755.229-1.196.075-.441.131-.891.168-1.349l.051-.57zm1.337-.611v-1.272l4.504-7.116h1.003v1.873h-.636l-3.222 5.1v.082h6.174v1.333zm4.942 2.036v-2.423l.01-.58v-7.421h1.492v10.424zm12.743-1.954v-.55c0-.394.081-.754.244-1.079.166-.329.407-.592.723-.789.319-.2.704-.301 1.155-.301.462 0 .848.099 1.161.296.312.197.548.459.707.789.163.329.244.69.244 1.084v.55c0 .393-.081.755-.244 1.084-.163.325-.402.588-.718.789-.312.196-.695.295-1.15.295-.458 0-.845-.099-1.16-.295-.316-.201-.555-.464-.718-.789-.163-.329-.244-.691-.244-1.084zm1.186-.55v.55c0 .291.069.556.208.794.139.237.382.356.728.356.343 0 .582-.119.718-.356.135-.238.203-.503.203-.794v-.55c0-.292-.066-.557-.198-.794-.129-.238-.37-.357-.723-.357-.339 0-.58.119-.723.357-.142.237-.213.502-.213.794zm-6.429-5.416v-.55c0-.393.081-.755.244-1.084.166-.329.407-.592.723-.789.319-.197.704-.295 1.155-.295.462 0 .849.098 1.161.295s.548.46.707.789c.16.329.24.691.24 1.084v.55c0 .394-.082.755-.245 1.084-.159.326-.397.589-.712.789-.312.197-.696.295-1.151.295-.461 0-.85-.098-1.165-.295-.312-.2-.55-.463-.713-.789-.163-.329-.244-.69-.244-1.084zm1.191-.55v.55c0 .292.068.557.204.794.139.238.381.356.727.356.34 0 .577-.118.713-.356.139-.237.209-.502.209-.794v-.55c0-.291-.066-.556-.199-.794-.132-.237-.373-.356-.723-.356-.339 0-.58.119-.722.356-.139.238-.209.503-.209.794zm-.708 8.47 7.167-10.424h1.217l-7.167 10.424z" fill="#858585"/><path d="m53.7468 228h-1.9037c-.0543-.312-.1544-.589-.3003-.83-.1459-.244-.3274-.451-.5446-.62-.2172-.17-.4649-.297-.7431-.382-.2749-.088-.5718-.133-.8908-.133-.5667 0-1.0689.143-1.5066.428-.4377.282-.7805.696-1.0282 1.242-.2477.543-.3716 1.206-.3716 1.99 0 .798.1239 1.469.3716 2.016.2511.543.5938.953 1.0282 1.232.4377.274.9382.412 1.5015.412.3122 0 .604-.041.8755-.122.2749-.085.5209-.209.738-.372.2206-.163.4055-.363.5549-.601.1526-.237.2578-.509.3155-.814l1.9037.01c-.0713.496-.2257.961-.4632 1.395-.2342.434-.5412.818-.9213 1.15-.38.329-.8246.587-1.3336.774-.509.183-1.0739.275-1.6949.275-.9162 0-1.734-.212-2.4534-.636-.7194-.425-1.286-1.037-1.7-1.838s-.621-1.761-.621-2.881c0-1.123.2087-2.083.6261-2.881.4173-.801.9857-1.413 1.7051-1.837s1.5338-.637 2.4432-.637c.5802 0 1.1198.082 1.6186.245s.9433.402 1.3336.717c.3902.313.7109.696.962 1.151.2545.451.4207.967.4988 1.547zm4.4848 7.06c-.7635 0-1.4252-.168-1.9851-.504s-.9942-.806-1.303-1.41c-.3054-.604-.4581-1.31-.4581-2.117 0-.808.1527-1.515.4581-2.123.3088-.607.7431-1.079 1.303-1.415s1.2216-.504 1.9851-.504 1.4252.168 1.9851.504.9925.808 1.2979 1.415c.3088.608.4632 1.315.4632 2.123 0 .807-.1544 1.513-.4632 2.117-.3054.604-.738 1.074-1.2979 1.41s-1.2216.504-1.9851.504zm.0102-1.476c.414 0 .7601-.114 1.0383-.341.2783-.231.4853-.54.621-.927.1391-.386.2087-.817.2087-1.292 0-.479-.0696-.912-.2087-1.298-.1357-.391-.3427-.701-.621-.932-.2782-.231-.6243-.346-1.0383-.346-.4242 0-.7771.115-1.0587.346-.2783.231-.487.541-.6261.932-.1357.386-.2036.819-.2036 1.298 0 .475.0679.906.2036 1.292.1391.387.3478.696.6261.927.2816.227.6345.341 1.0587.341zm4.7266 1.323v-7.818h3.283c.9264 0 1.6576.185 2.1938.555.5395.37.8093.886.8093 1.547 0 .438-.1527.796-.4581 1.074-.302.275-.7143.46-1.2369.555.4106.034.7703.137 1.0791.31.3122.174.5565.401.7329.683.1765.281.2647.605.2647.972 0 .431-.1137.806-.341 1.125-.224.315-.5514.561-.9824.738-.4275.173-.9467.259-1.5575.259zm1.7255-1.45h2.0614c.3393 0 .6057-.08.7991-.24.1934-.163.2901-.383.2901-.661 0-.323-.0967-.576-.2901-.759-.1934-.186-.4598-.28-.7991-.28h-2.0614zm0-3.131h1.5931c.2511 0 .4666-.035.6464-.107.1799-.074.3173-.178.4123-.31.095-.136.1425-.297.1425-.484 0-.268-.1102-.478-.3308-.631-.2172-.153-.5192-.229-.906-.229h-1.5575zm5.8896 4.581v-7.818h1.8426v3.156h.6718l2.3516-3.156h2.2192l-2.8962 3.838 2.9268 3.98h-2.2294l-2.1429-2.947h-.9009v2.947zm10.6755.153c-.7635 0-1.4252-.168-1.9851-.504s-.9942-.806-1.303-1.41c-.3054-.604-.4581-1.31-.4581-2.117 0-.808.1527-1.515.4581-2.123.3088-.607.7431-1.079 1.303-1.415s1.2216-.504 1.9851-.504 1.4252.168 1.9851.504.9925.808 1.2979 1.415c.3088.608.4632 1.315.4632 2.123 0 .807-.1544 1.513-.4632 2.117-.3054.604-.738 1.074-1.2979 1.41s-1.2216.504-1.9851.504zm.0102-1.476c.4139 0 .7601-.114 1.0383-.341.2783-.231.4853-.54.621-.927.1391-.386.2087-.817.2087-1.292 0-.479-.0696-.912-.2087-1.298-.1357-.391-.3427-.701-.621-.932-.2782-.231-.6244-.346-1.0383-.346-.4242 0-.7771.115-1.0587.346-.2783.231-.487.541-.6261.932-.1357.386-.2036.819-.2036 1.298 0 .475.0679.906.2036 1.292.1391.387.3478.696.6261.927.2816.227.6345.341 1.0587.341zm9.2261-.82 2.321-5.675h1.4863l-3.1609 7.818h-1.2878l-3.0896-7.818h1.471zm-2.7231-5.675v7.818h-1.7764v-7.818zm5.5226 7.818v-7.818h1.7611v7.818zm9.3112-10.709.641 1.191c-.227.197-.481.339-.763.428-.282.088-.613.145-.993.173-.376.023-.824.04-1.343.051-.584.013-1.0607.123-1.4306.33s-.6532.521-.85.942c-.1968.417-.3258.95-.3869 1.598h.0866c.2443-.478.587-.843 1.0281-1.094.4412-.251.9587-.377 1.5528-.377.648 0 1.22.146 1.715.438.499.288.887.707 1.166 1.257.281.55.422 1.215.422 1.995 0 .805-.151 1.502-.453 2.092-.302.587-.731 1.04-1.288 1.359-.553.319-1.209.479-1.9695.479-.7567 0-1.415-.165-1.9749-.494-.5565-.332-.9875-.823-1.2929-1.471-.302-.651-.453-1.454-.453-2.407v-.703c0-1.839.3427-3.212 1.0282-4.118.6854-.906 1.7017-1.367 3.0491-1.384.4-.007.758-.008 1.074-.005.319.003.597-.012.835-.046.237-.034.437-.112.6-.234zm-2.8553 9.386c.3763 0 .7023-.097.9773-.29.275-.197.485-.475.631-.835.149-.36.224-.786.224-1.278 0-.485-.075-.897-.224-1.236-.149-.343-.361-.604-.636-.784s-.602-.27-.9825-.27c-.2851 0-.5412.051-.7686.153-.2274.101-.4208.251-.5803.448-.1594.196-.2816.436-.3664.717-.0849.282-.1307.606-.1375.972 0 .737.1663 1.322.4989 1.756.3325.431.7872.647 1.3641.647zm6.9443 1.481c-.495 0-.941-.088-1.338-.265-.394-.18-.706-.444-.937-.794-.227-.349-.341-.78-.341-1.293 0-.441.081-.805.244-1.094.163-.288.385-.519.667-.692s.599-.304.952-.392c.356-.092.724-.158 1.104-.199.459-.047.83-.089 1.115-.127.285-.041.492-.102.621-.183.132-.085.199-.216.199-.392v-.031c0-.383-.114-.68-.341-.89-.228-.211-.555-.316-.983-.316-.451 0-.809.099-1.074.295-.261.197-.438.43-.529.698l-1.721-.245c.136-.475.36-.872.672-1.191.313-.322.694-.563 1.146-.722.451-.163.95-.245 1.496-.245.377 0 .752.044 1.125.133.373.088.714.234 1.023.437.309.201.556.474.743.82.19.346.285.779.285 1.298v5.232h-1.771v-1.074h-.061c-.112.217-.27.421-.474.611-.2.187-.453.338-.758.453-.302.112-.657.168-1.064.168zm.479-1.354c.37 0 .69-.073.962-.219.271-.149.48-.346.626-.59.149-.245.224-.511.224-.799v-.922c-.058.048-.156.092-.296.133-.135.04-.288.076-.458.107-.169.03-.337.057-.504.081-.166.024-.31.044-.432.061-.275.037-.521.099-.738.183-.217.085-.389.204-.514.357-.126.149-.189.342-.189.58 0 .339.124.595.372.768.248.174.563.26.947.26zm10.298-3.476v1.511h-4.163v-1.511zm-3.593-3.146v7.818h-1.776v-7.818zm4.8 0v7.818h-1.771v-7.818zm1.291 7.818v-7.818h1.842v3.156h.672l2.352-3.156h2.219l-2.896 3.838 2.926 3.98h-2.229l-2.143-2.947h-.901v2.947z" fill="#5f5f5f"/><path d="m135.759 217.463h421.056v23.8889h-421.056z" fill="url(#d)"/><path d="m556.814 217.463v23.889" stroke="#cacaca" stroke-width="3.18519"/><path d="m570.664 224.483v10.424h-1.578v-8.846h-.061l-2.494 1.629v-1.507l2.601-1.7zm5.687 10.567c-.638 0-1.211-.122-1.72-.367-.506-.247-.91-.587-1.212-1.018s-.463-.923-.483-1.476h1.527c.037.448.236.816.595 1.105.36.288.791.432 1.293.432.401 0 .755-.091 1.064-.275.312-.186.556-.442.733-.768.18-.326.27-.697.27-1.115 0-.424-.092-.802-.275-1.135-.183-.332-.436-.594-.759-.784-.319-.19-.685-.286-1.099-.29-.316 0-.633.054-.952.163s-.577.251-.774.428l-1.44-.214.585-5.253h5.732v1.349h-4.424l-.33 2.916h.061c.203-.196.473-.361.809-.493.339-.133.702-.199 1.089-.199.635 0 1.2.151 1.695.453.499.302.891.714 1.176 1.237.288.519.431 1.116.428 1.792.003.675-.15 1.277-.459 1.807-.305.529-.729.946-1.272 1.252-.54.302-1.159.453-1.858.453zm6.497-1.568-.077.555c-.05.407-.137.831-.259 1.272-.119.445-.243.857-.372 1.237-.125.38-.229.682-.31.906h-1.079c.044-.21.105-.495.183-.855.078-.356.154-.755.229-1.196s.131-.891.168-1.349l.051-.57zm4.807 1.568c-.7 0-1.324-.121-1.874-.362-.546-.241-.979-.575-1.298-1.002-.315-.431-.485-.93-.509-1.497h1.599c.02.309.124.577.31.804.19.224.438.397.743.52.306.122.645.183 1.018.183.411 0 .774-.071 1.09-.214.319-.142.568-.341.748-.595.18-.258.27-.555.27-.891 0-.35-.09-.657-.27-.922-.177-.268-.436-.478-.779-.631-.339-.152-.75-.229-1.232-.229h-.88v-1.282h.88c.387 0 .726-.07 1.018-.209.295-.139.526-.333.692-.58.167-.251.25-.545.25-.881 0-.322-.073-.602-.219-.84-.142-.241-.346-.429-.611-.565-.261-.135-.57-.203-.926-.203-.339 0-.657.062-.952.188-.292.122-.529.299-.713.529-.183.228-.281.501-.295.82h-1.522c.017-.563.184-1.059.499-1.486.319-.428.74-.762 1.262-1.003.523-.241 1.103-.362 1.741-.362.669 0 1.246.131 1.731.392.488.258.865.603 1.13 1.034.268.431.4.902.397 1.415.003.583-.16 1.079-.489 1.486-.326.407-.76.68-1.303.819v.082c.692.105 1.229.38 1.609.824.383.445.573.996.57 1.655.003.573-.156 1.087-.479 1.542-.319.455-.755.813-1.308 1.074-.553.258-1.186.387-1.898.387zm13.696-2.097v-.55c0-.394.082-.753.245-1.079.166-.329.407-.592.723-.789.319-.2.704-.3 1.155-.3.461 0 .848.098 1.16.295.313.197.548.46.708.789.163.329.244.69.244 1.084v.55c0 .393-.081.755-.244 1.084-.163.326-.402.589-.718.789-.312.197-.695.295-1.15.295-.458 0-.845-.098-1.161-.295-.315-.2-.554-.463-.717-.789-.163-.329-.245-.691-.245-1.084zm1.186-.55v.55c0 .292.07.556.209.794.139.237.382.356.728.356.343 0 .582-.119.718-.356.135-.238.203-.502.203-.794v-.55c0-.292-.066-.557-.198-.794-.129-.238-.37-.356-.723-.356-.339 0-.58.118-.723.356-.142.237-.214.502-.214.794zm-6.428-5.416v-.549c0-.394.081-.755.244-1.085.166-.329.407-.592.723-.789.319-.196.704-.295 1.155-.295.462 0 .849.099 1.161.295.312.197.548.46.707.789.16.33.24.691.24 1.085v.549c0 .394-.082.755-.245 1.084-.159.326-.397.589-.712.789-.313.197-.696.296-1.151.296-.461 0-.85-.099-1.165-.296-.312-.2-.55-.463-.713-.789-.163-.329-.244-.69-.244-1.084zm1.191-.549v.549c0 .292.068.557.203.794.14.238.382.357.728.357.34 0 .577-.119.713-.357.139-.237.209-.502.209-.794v-.549c0-.292-.067-.557-.199-.795-.132-.237-.373-.356-.723-.356-.339 0-.58.119-.722.356-.14.238-.209.503-.209.795zm-.708 8.469 7.167-10.424h1.217l-7.167 10.424z" fill="#858585"/><path d="m53.7468 266.222h-1.9037c-.0543-.312-.1544-.588-.3003-.829-.1459-.245-.3274-.452-.5446-.621-.2172-.17-.4649-.297-.7431-.382-.2749-.088-.5718-.132-.8908-.132-.5667 0-1.0689.142-1.5066.427-.4377.282-.7805.696-1.0282 1.242-.2477.543-.3716 1.206-.3716 1.99 0 .798.1239 1.47.3716 2.016.2511.543.5938.953 1.0282 1.232.4377.275.9382.412 1.5015.412.3122 0 .604-.041.8755-.122.2749-.085.5209-.209.738-.372.2206-.163.4055-.363.5549-.6.1526-.238.2578-.509.3155-.815l1.9037.01c-.0713.496-.2257.961-.4632 1.395-.2342.434-.5412.818-.9213 1.15-.38.33-.8246.587-1.3336.774-.509.183-1.0739.275-1.6949.275-.9162 0-1.734-.212-2.4534-.636s-1.286-1.037-1.7-1.838-.621-1.761-.621-2.881c0-1.123.2087-2.083.6261-2.881.4173-.8.9857-1.413 1.7051-1.837s1.5338-.636 2.4432-.636c.5802 0 1.1198.081 1.6186.244s.9433.402 1.3336.718c.3902.312.7109.695.962 1.15.2545.451.4207.967.4988 1.547zm7.3403-3.802.6413 1.191c-.2274.197-.4819.339-.7635.428-.2816.088-.6125.146-.9925.173-.3767.024-.8246.041-1.3438.051-.5836.013-1.0604.124-1.4303.331-.3698.207-.6532.52-.85.941-.1968.418-.3258.95-.3868 1.598h.0865c.2443-.478.587-.843 1.0282-1.094.4411-.251.9586-.377 1.5524-.377.6481 0 1.2199.146 1.7153.438.4988.289.8874.708 1.1656 1.257.2817.55.4225 1.215.4225 1.996 0 .804-.151 1.501-.453 2.092-.302.587-.7313 1.04-1.2878 1.359-.5531.319-1.2097.478-1.9698.478-.7567 0-1.415-.164-1.9749-.494-.5565-.332-.9874-.823-1.2928-1.471-.3021-.651-.4531-1.454-.4531-2.407v-.703c0-1.839.3428-3.211 1.0282-4.117.6855-.906 1.7018-1.368 3.0489-1.385.4004-.007.7584-.008 1.074-.005.319.003.5972-.012.8347-.046.2376-.034.4378-.112.6007-.234zm-2.8555 9.386c.3766 0 .7024-.097.9773-.29.2748-.197.4852-.475.6311-.835.1493-.36.224-.785.224-1.277 0-.486-.0747-.898-.224-1.237-.1493-.343-.3614-.604-.6362-.784-.2749-.18-.6023-.27-.9824-.27-.285 0-.5412.051-.7686.153-.2273.102-.4207.251-.5802.448-.1595.196-.2817.436-.3665.717-.0848.282-.1306.606-.1374.973 0 .736.1662 1.321.4988 1.756.3325.431.7872.646 1.3641.646zm8.1559 1.476c-.7838 0-1.4608-.163-2.0309-.489-.5666-.329-1.0027-.794-1.3081-1.394-.3054-.604-.4581-1.315-.4581-2.133 0-.804.1527-1.51.4581-2.117.3088-.611.7398-1.086 1.2929-1.426.5531-.342 1.2029-.514 1.9494-.514.4819 0 .9366.078 1.3641.235.431.152.811.39 1.1402.712.3325.323.5938.733.7838 1.232.1901.495.2851 1.086.2851 1.771v.565h-6.4083v-1.242h4.6421c-.0034-.353-.0798-.667-.2291-.941-.1493-.279-.358-.498-.626-.657-.2647-.159-.5735-.239-.9264-.239-.3767 0-.7075.091-.9926.275-.285.179-.5073.417-.6667.712-.1561.292-.2359.613-.2393.962v1.084c0 .455.0832.845.2494 1.171.1663.322.3987.57.6974.743.2986.17.6481.255 1.0485.255.2681 0 .5107-.038.7279-.112.2171-.078.4055-.192.5649-.341.1595-.15.28-.335.3614-.555l1.7204.193c-.1086.455-.3155.852-.6209 1.191-.302.336-.6889.598-1.1606.784-.4716.183-1.0112.275-1.6186.275zm4.462 2.779v-10.75h1.812v1.293h.1069c.095-.19.229-.392.4021-.606.173-.217.4072-.402.7024-.554.2952-.157.6719-.235 1.13-.235.604 0 1.1486.155 1.6338.464.4887.305.8755.758 1.1606 1.359.2884.597.4326 1.33.4326 2.198 0 .859-.1408 1.589-.4225 2.189-.2816.601-.6651 1.059-1.1503 1.374-.4852.316-1.035.474-1.6491.474-.448 0-.8195-.075-1.1148-.224-.2952-.149-.5327-.329-.7125-.54-.1765-.213-.3139-.415-.4123-.605h-.0764v4.163zm1.8069-6.841c0 .506.0712.949.2138 1.329.1459.38.3546.677.626.891.2749.21.6074.315.9977.315.4072 0 .7482-.108 1.023-.326.2749-.22.4819-.521.621-.901.1425-.383.2138-.819.2138-1.308 0-.485-.0696-.916-.2087-1.293-.1391-.376-.3461-.671-.621-.885-.2748-.214-.6175-.321-1.0281-.321-.3937 0-.7279.104-1.0028.311-.2748.207-.4835.497-.626.87-.1391.373-.2087.813-.2087 1.318zm12.8438-6.8.6413 1.191c-.2273.197-.4818.339-.7635.428-.2816.088-.6125.146-.9925.173-.3767.024-.8246.041-1.3438.051-.5836.013-1.0604.124-1.4302.331-.3699.207-.6532.52-.8501.941-.1968.418-.3257.95-.3868 1.598h.0865c.2444-.478.5871-.843 1.0282-1.094s.9586-.377 1.5524-.377c.6482 0 1.2199.146 1.7154.438.4988.289.8873.708 1.1656 1.257.2816.55.4224 1.215.4224 1.996 0 .804-.151 1.501-.453 2.092-.302.587-.7312 1.04-1.2877 1.359-.5531.319-1.2098.478-1.9699.478-.7567 0-1.415-.164-1.9749-.494-.5565-.332-.9874-.823-1.2928-1.471-.302-.651-.453-1.454-.453-2.407v-.703c0-1.839.3427-3.211 1.0282-4.117.6854-.906 1.7017-1.368 3.0488-1.385.4005-.007.7584-.008 1.074-.005.319.003.5972-.012.8348-.046.2375-.034.4377-.112.6006-.234zm-2.8555 9.386c.3767 0 .7024-.097.9773-.29.2749-.197.4852-.475.6312-.835.1493-.36.2239-.785.2239-1.277 0-.486-.0746-.898-.2239-1.237-.1494-.343-.3614-.604-.6363-.784-.2748-.18-.6023-.27-.9824-.27-.285 0-.5412.051-.7685.153-.2274.102-.4208.251-.5803.448-.1595.196-.2816.436-.3665.717-.0848.282-.1306.606-.1374.973 0 .736.1663 1.321.4988 1.756.3326.431.7873.646 1.3641.646zm6.9446 1.481c-.4955 0-.9417-.088-1.3387-.264-.3936-.18-.7058-.445-.9365-.795-.2274-.349-.3411-.78-.3411-1.292 0-.442.0815-.806.2443-1.095.1629-.288.3852-.519.6668-.692.2817-.173.599-.304.9519-.392.3563-.092.7244-.158 1.1045-.198.4581-.048.8296-.09 1.1147-.128.285-.04.492-.101.621-.183.1323-.085.1985-.215.1985-.392v-.03c0-.384-.1137-.681-.3411-.891-.2273-.21-.5548-.316-.9823-.316-.4513 0-.8093.099-1.074.296-.2613.196-.4377.429-.5294.697l-1.7204-.244c.1358-.476.3597-.873.6719-1.191.3122-.323.6939-.564 1.1452-.723.4514-.163.9502-.245 1.4965-.245.3766 0 .7516.045 1.1249.133.3732.088.7143.234 1.0231.437.3087.201.5565.474.7431.82.19.346.285.779.285 1.298v5.232h-1.7713v-1.074h-.0611c-.1119.218-.2697.421-.4733.611-.2002.187-.453.338-.7584.453-.302.112-.6566.168-1.0638.168zm.4784-1.354c.3699 0 .6906-.073.962-.219.2715-.149.4802-.346.6261-.59.1493-.244.224-.511.224-.799v-.921c-.0577.047-.1561.091-.2953.132-.1357.041-.2884.076-.4581.107-.1696.03-.3376.057-.5039.081-.1662.024-.3105.044-.4326.061-.2749.038-.5209.099-.7381.184-.2171.084-.3885.203-.514.356-.1256.149-.1884.343-.1884.58 0 .339.1239.596.3716.769s.5633.259.9467.259zm10.2993-3.476v1.512h-4.164v-1.512zm-3.594-3.146v7.818h-1.7764v-7.818zm4.8 0v7.818h-1.7714v-7.818zm1.291 7.818v-7.818h1.842v3.156h.672l2.352-3.156h2.219l-2.896 3.838 2.927 3.98h-2.23l-2.143-2.947h-.901v2.947z" fill="#5f5f5f"/><path d="m118.759 255.685h237.222v23.8889h-237.222z" fill="url(#e)"/><path d="m355.964 255.685v23.889" stroke="#cacaca" stroke-width="3.18519"/><path d="m368.487 273.272c-.729 0-1.374-.126-1.934-.377-.557-.251-.993-.597-1.308-1.038-.316-.441-.472-.943-.468-1.507-.004-.441.086-.846.269-1.216.187-.373.44-.684.759-.932.319-.251.675-.41 1.069-.478v-.061c-.52-.126-.935-.404-1.247-.835-.313-.431-.467-.926-.464-1.486-.003-.533.138-1.008.423-1.425.288-.421.684-.752 1.186-.993s1.074-.361 1.715-.361c.635 0 1.201.122 1.7.366.502.241.898.572 1.186.993.289.417.434.89.438 1.42-.004.56-.163 1.055-.479 1.486-.315.431-.726.709-1.231.835v.061c.39.068.741.227 1.053.478.316.248.567.559.754.932.19.37.286.775.29 1.216-.004.564-.163 1.066-.479 1.507-.315.441-.753.787-1.313 1.038-.556.251-1.196.377-1.919.377zm0-1.288c.431 0 .804-.071 1.12-.214.315-.146.56-.347.733-.605.173-.262.261-.567.265-.917-.004-.363-.099-.683-.286-.962-.183-.278-.432-.497-.748-.656-.315-.16-.677-.239-1.084-.239-.41 0-.775.079-1.094.239-.319.159-.57.378-.754.656-.183.279-.273.599-.269.962-.004.35.079.655.249.917.173.258.419.459.738.605.319.143.696.214 1.13.214zm0-4.851c.346 0 .653-.069.921-.208s.479-.333.632-.581c.156-.247.235-.537.239-.87-.004-.326-.082-.611-.234-.855-.15-.244-.358-.433-.626-.565-.269-.136-.579-.204-.932-.204-.36 0-.675.068-.947.204-.268.132-.476.321-.626.565-.149.244-.222.529-.219.855-.003.333.072.623.224.87.153.248.363.442.632.581.271.139.583.208.936.208zm6.653 4.571-.076.555c-.051.407-.138.831-.26 1.273-.118.444-.242.856-.371 1.236-.126.38-.229.682-.311.906h-1.079c.044-.21.105-.495.183-.855.078-.356.155-.755.229-1.196.075-.441.131-.891.168-1.349l.051-.57zm4.817 1.568c-.465-.007-.923-.092-1.374-.255-.448-.162-.855-.434-1.222-.814-.366-.38-.66-.891-.88-1.532-.217-.641-.326-1.442-.326-2.403 0-.909.09-1.717.27-2.422.183-.706.446-1.302.789-1.787.342-.489.756-.86 1.242-1.115.485-.254 1.029-.381 1.634-.381.62 0 1.172.122 1.654.366s.872.582 1.17 1.013c.302.431.494.921.576 1.471h-1.553c-.105-.434-.314-.789-.626-1.064s-.719-.412-1.221-.412c-.764 0-1.36.332-1.787.998-.424.665-.638 1.589-.641 2.774h.076c.18-.296.4-.547.662-.754.264-.21.56-.371.885-.483.329-.116.676-.173 1.039-.173.604 0 1.15.147 1.639.442.492.292.884.696 1.175 1.212.292.516.438 1.106.438 1.771s-.151 1.268-.453 1.807c-.298.54-.719.967-1.262 1.283-.543.312-1.178.465-1.904.458zm-.005-1.323c.4 0 .758-.099 1.074-.296s.565-.461.748-.794c.184-.332.275-.704.275-1.114 0-.401-.09-.766-.27-1.095-.176-.329-.42-.59-.733-.784-.308-.193-.661-.29-1.058-.29-.302 0-.582.058-.84.173-.255.116-.479.275-.672.479-.193.203-.346.437-.458.702-.109.261-.163.538-.163.83 0 .39.09.751.27 1.084.183.333.432.601.748.804.319.2.679.301 1.079.301zm13.566-.774v-.55c0-.393.081-.753.244-1.079.167-.329.407-.592.723-.789.319-.2.704-.3 1.155-.3.462 0 .849.098 1.161.295s.548.46.707.789c.163.329.245.691.245 1.084v.55c0 .393-.082.755-.245 1.084-.162.326-.402.589-.717.789-.312.197-.696.295-1.151.295-.458 0-.844-.098-1.16-.295-.316-.2-.555-.463-.718-.789-.163-.329-.244-.691-.244-1.084zm1.186-.55v.55c0 .292.069.556.209.794.139.237.381.356.727.356.343 0 .582-.119.718-.356.136-.238.204-.502.204-.794v-.55c0-.292-.066-.556-.199-.794-.129-.237-.37-.356-.723-.356-.339 0-.58.119-.722.356-.143.238-.214.502-.214.794zm-6.429-5.416v-.549c0-.394.082-.755.245-1.084.166-.33.407-.593.722-.789.319-.197.704-.296 1.156-.296.461 0 .848.099 1.16.296.312.196.548.459.708.789.159.329.239.69.239 1.084v.549c0 .394-.081.755-.244 1.085-.16.325-.397.588-.713.789-.312.196-.695.295-1.15.295-.462 0-.85-.099-1.166-.295-.312-.201-.55-.464-.712-.789-.163-.33-.245-.691-.245-1.085zm1.191-.549v.549c0 .292.068.557.204.794.139.238.382.357.728.357.339 0 .577-.119.712-.357.14-.237.209-.502.209-.794v-.549c0-.292-.066-.557-.198-.794-.133-.238-.374-.357-.723-.357-.34 0-.58.119-.723.357-.139.237-.209.502-.209.794zm-.707 8.469 7.167-10.424h1.216l-7.167 10.424z" fill="#858585"/><path d="m53.3294 300.927v10.425h-1.8731v-8.857h-4.5606v8.857h-1.8731v-10.425zm1.6039 13.356v-10.75h1.812v1.293h.1069c.095-.19.2291-.392.4021-.605.1731-.218.4072-.403.7024-.555.2953-.156.6719-.234 1.13-.234.604 0 1.1486.154 1.6339.463.4886.305.8755.758 1.1605 1.359.2884.597.4326 1.33.4326 2.199 0 .858-.1408 1.588-.4224 2.188-.2817.601-.6651 1.059-1.1504 1.375-.4852.315-1.0349.473-1.6491.473-.4479 0-.8195-.075-1.1147-.224s-.5328-.329-.7126-.54c-.1765-.213-.3139-.415-.4123-.605h-.0763v4.163zm1.8069-6.841c0 .506.0713.949.2138 1.329.1459.38.3546.677.6261.891.2748.21.6074.315.9976.315.4072 0 .7482-.108 1.0231-.325.2748-.221.4818-.521.621-.901.1425-.384.2137-.82.2137-1.309 0-.485-.0695-.916-.2086-1.292-.1392-.377-.3462-.672-.621-.886-.2749-.214-.6176-.321-1.0282-.321-.3936 0-.7279.104-1.0027.311-.2749.207-.4836.497-.6261.87-.1391.373-.2087.813-.2087 1.318zm9.9884 4.062c-.7635 0-1.4252-.168-1.9851-.504s-.9943-.806-1.303-1.41c-.3054-.604-.4581-1.309-.4581-2.117s.1527-1.515.4581-2.123c.3087-.607.7431-1.079 1.303-1.415.5599-.335 1.2216-.503 1.9851-.503s1.4252.168 1.9851.503c.5598.336.9925.808 1.2979 1.415.3088.608.4632 1.315.4632 2.123s-.1544 1.513-.4632 2.117c-.3054.604-.7381 1.074-1.2979 1.41-.5599.336-1.2216.504-1.9851.504zm.0101-1.476c.414 0 .7601-.114 1.0384-.341.2783-.231.4852-.539.621-.926.1391-.387.2087-.818.2087-1.293 0-.479-.0696-.911-.2087-1.298-.1358-.39-.3427-.701-.621-.931-.2783-.231-.6244-.347-1.0384-.347-.4241 0-.777.116-1.0587.347-.2782.23-.4869.541-.626.931-.1358.387-.2036.819-.2036 1.298 0 .475.0678.906.2036 1.293.1391.387.3478.695.626.926.2817.227.6346.341 1.0587.341zm9.2262-.819 2.321-5.676h1.4863l-3.1609 7.819h-1.2878l-3.0896-7.819h1.471zm-2.7232-5.676v7.819h-1.7764v-7.819zm5.5226 7.819v-7.819h1.7612v7.819zm6.4559.152c-.7804 0-1.4506-.171-2.0105-.514-.5565-.343-.9857-.816-1.2877-1.42-.2987-.607-.448-1.306-.448-2.097 0-.794.1527-1.495.4581-2.102.3054-.611.7364-1.086 1.2929-1.425.5599-.343 1.2216-.514 1.9851-.514.6345 0 1.1961.117 1.6847.351.4921.231.884.558 1.1758.982.2919.421.4581.913.4988 1.476h-1.7611c-.0712-.376-.2409-.69-.509-.941-.2647-.255-.6193-.382-1.0638-.382-.3766 0-.7075.102-.9925.305-.2851.2-.5073.489-.6668.866-.1561.376-.2341.828-.2341 1.353 0 .533.078.991.2341 1.375.1561.38.3749.673.6566.88.285.204.6193.306 1.0027.306.2715 0 .5141-.051.7279-.153.2172-.105.3987-.256.5446-.453s.246-.436.3003-.718h1.7611c-.0441.553-.207 1.044-.4886 1.471-.2816.424-.6651.757-1.1503.998-.4853.237-1.0553.356-1.7103.356zm4.2889-.152v-7.819h3.283c.9264 0 1.6577.185 2.1938.555.5395.37.8093.886.8093 1.548 0 .437-.1527.795-.4581 1.074-.302.274-.7143.459-1.2369.554.4106.034.7703.138 1.0791.311.3122.173.5565.4.733.682.1764.282.2647.606.2647.972 0 .431-.1137.806-.3411 1.125-.2239.316-.5514.562-.9823.738-.4276.173-.9468.26-1.5576.26zm1.7255-1.451h2.0614c.3394 0 .6057-.08.7992-.239.1934-.163.2901-.384.2901-.662 0-.322-.0967-.575-.2901-.758-.1935-.187-.4598-.28-.7992-.28h-2.0614zm0-3.13h1.5932c.2511 0 .4665-.036.6464-.107.1798-.075.3173-.178.4123-.311.095-.136.1425-.297.1425-.483 0-.268-.1103-.479-.3309-.631-.2171-.153-.5191-.23-.906-.23h-1.5575zm10.5114 4.581v-6.322h-1.67c-.4237 0-.7495.098-.9768.295-.2274.197-.3394.441-.336.733-.0034.292.1035.533.3207.723s.5276.285.9311.285h2.311v1.344h-2.311c-.624 0-1.1636-.099-1.6183-.296-.4547-.196-.8042-.475-1.0485-.834-.2443-.36-.3665-.781-.3665-1.263 0-.502.1239-.938.3716-1.308.2511-.373.6074-.662 1.0689-.865.4649-.207 1.0163-.311 1.6538-.311h3.395v7.819zm-5.0493 0 2.1836-4.011h1.8167l-2.1883 4.011zm7.6243-2.143h1.827c.017.292.148.517.392.677.244.159.562.239.952.239.397 0 .731-.087 1.003-.26.274-.176.412-.443.412-.799 0-.21-.053-.395-.158-.555-.105-.163-.253-.288-.443-.376-.19-.089-.414-.133-.672-.133h-1.196v-1.308h1.196c.384 0 .674-.088.871-.264.2-.177.3-.399.3-.667 0-.289-.105-.523-.316-.703-.207-.179-.493-.269-.86-.269-.366 0-.672.083-.916.249-.241.166-.366.38-.377.641h-1.817c.007-.454.143-.85.407-1.186.269-.336.628-.597 1.08-.783.454-.187.967-.28 1.537-.28.61 0 1.138.091 1.583.274.444.184.787.44 1.028.769.241.326.361.709.361 1.15 0 .425-.132.776-.397 1.054-.264.275-.621.472-1.069.59v.082c.309.017.587.105.835.265.248.156.445.368.591.636.145.268.218.578.218.931 0 .479-.137.893-.412 1.242-.275.346-.653.613-1.135.799-.478.187-1.026.28-1.644.28-.601 0-1.138-.09-1.614-.27-.471-.183-.846-.446-1.124-.788-.279-.343-.426-.755-.443-1.237zm8.497-3.131h2.305c.998 0 1.77.243 2.316.728.547.485.822 1.122.825 1.909-.003.512-.129.967-.377 1.364-.244.397-.6.709-1.069.937-.464.224-1.029.336-1.695.336h-3.552v-7.819h1.776v6.307h1.776c.401 0 .73-.102.988-.306.258-.207.387-.471.387-.794 0-.339-.129-.615-.387-.829s-.587-.321-.988-.321h-2.305zm12.718-5.436.641 1.191c-.227.197-.482.34-.764.428-.281.088-.612.146-.992.173-.377.024-.825.041-1.344.051-.584.013-1.06.124-1.43.331s-.653.521-.85.941c-.197.418-.326.95-.387 1.599h.086c.245-.479.588-.844 1.029-1.095s.958-.376 1.552-.376c.648 0 1.22.146 1.715.437.499.289.888.708 1.166 1.258.282.549.422 1.214.422 1.995 0 .804-.151 1.501-.453 2.092-.302.587-.731 1.04-1.287 1.359-.553.319-1.21.478-1.97.478-.757 0-1.415-.164-1.975-.493-.557-.333-.987-.823-1.293-1.471-.302-.652-.453-1.454-.453-2.408v-.702c0-1.84.343-3.212 1.028-4.118.686-.906 1.702-1.368 3.049-1.385.401-.006.759-.008 1.074-.005.319.004.597-.012.835-.046.237-.034.438-.112.601-.234zm-2.856 9.386c.377 0 .702-.097.977-.29.275-.197.486-.475.632-.835.149-.359.223-.785.223-1.277 0-.486-.074-.898-.223-1.237-.15-.343-.362-.604-.637-.784s-.602-.27-.982-.27c-.285 0-.541.051-.769.153-.227.102-.42.251-.58.448-.159.197-.282.436-.366.718-.085.281-.131.605-.138.972 0 .736.166 1.321.499 1.756.333.431.787.646 1.364.646zm6.945 1.481c-.496 0-.942-.088-1.339-.264-.394-.18-.706-.445-.937-.794-.227-.35-.341-.781-.341-1.293 0-.441.082-.806.245-1.095.163-.288.385-.519.666-.692.282-.173.599-.303.952-.392.357-.091.725-.158 1.105-.198.458-.048.829-.09 1.115-.127.285-.041.492-.102.621-.184.132-.085.198-.215.198-.392v-.03c0-.384-.114-.681-.341-.891s-.555-.315-.982-.315c-.452 0-.81.098-1.074.295-.262.197-.438.429-.53.697l-1.72-.244c.136-.475.36-.872.672-1.191.312-.323.694-.564 1.145-.723.451-.163.95-.244 1.496-.244.377 0 .752.044 1.125.132.374.088.715.234 1.023.438.309.2.557.473.744.819.19.346.285.779.285 1.298v5.233h-1.772v-1.074h-.061c-.112.217-.27.42-.473.61-.2.187-.453.338-.759.453-.302.112-.656.168-1.063.168zm.478-1.354c.37 0 .691-.073.962-.218.272-.15.48-.347.626-.591.149-.244.224-.511.224-.799v-.921c-.058.047-.156.091-.295.132-.136.041-.289.076-.458.107-.17.03-.338.058-.504.081-.166.024-.311.044-.433.061-.275.038-.521.099-.738.184s-.388.203-.514.356c-.125.149-.188.343-.188.58 0 .34.124.596.371.769.248.173.564.259.947.259zm10.299-3.476v1.512h-4.164v-1.512zm-3.594-3.146v7.819h-1.776v-7.819zm4.8 0v7.819h-1.771v-7.819zm1.291 7.819v-7.819h1.843v3.156h.672l2.351-3.156h2.219l-2.896 3.838 2.927 3.981h-2.23l-2.142-2.948h-.901v2.948z" fill="#5f5f5f"/><path d="m158.759 293.907h125.352v23.8889h-125.352z" fill="url(#f)"/><path d="m284.111 293.907v23.889" stroke="#cacaca" stroke-width="3.18519"/><path d="m293.638 309.316v-1.273l4.505-7.116h1.002v1.873h-.636l-3.222 5.101v.081h6.174v1.334zm4.942 2.036v-2.423l.01-.581v-7.421h1.492v10.425zm5.69-1.426-.076.555c-.051.407-.138.832-.26 1.273-.119.444-.242.856-.371 1.237-.126.38-.229.682-.311.906h-1.079c.044-.211.105-.496.183-.856.078-.356.155-.755.229-1.196.075-.441.131-.89.168-1.349l.051-.57zm4.817 1.568c-.465-.007-.923-.092-1.374-.254-.448-.163-.855-.435-1.222-.815-.366-.38-.66-.891-.88-1.532-.218-.641-.326-1.442-.326-2.402 0-.91.09-1.717.27-2.423.183-.706.446-1.302.789-1.787.342-.488.756-.86 1.242-1.114.485-.255 1.029-.382 1.633-.382.621 0 1.173.122 1.655.366.481.245.872.582 1.17 1.013.302.431.494.921.575 1.471h-1.552c-.105-.434-.314-.789-.626-1.064-.312-.274-.719-.412-1.222-.412-.763 0-1.359.333-1.786.998-.424.665-.638 1.589-.642 2.774h.077c.18-.295.4-.547.662-.754.264-.21.559-.371.885-.483.329-.115.675-.173 1.039-.173.604 0 1.15.147 1.638.443.493.291.884.695 1.176 1.211s.438 1.106.438 1.771-.151 1.268-.453 1.807c-.299.54-.719.967-1.262 1.283-.543.312-1.178.465-1.904.458zm-.005-1.323c.4 0 .758-.099 1.074-.296.316-.196.565-.461.748-.794.183-.332.275-.704.275-1.114 0-.401-.09-.765-.27-1.095-.176-.329-.421-.59-.733-.783-.308-.194-.661-.291-1.058-.291-.302 0-.582.058-.84.173-.255.116-.479.275-.672.479-.194.204-.346.438-.458.702-.109.262-.163.538-.163.83 0 .39.09.752.27 1.084.183.333.432.601.748.804.319.201.679.301 1.079.301zm13.566-.774v-.55c0-.393.081-.753.244-1.079.166-.329.407-.592.723-.789.319-.2.704-.3 1.155-.3.462 0 .849.098 1.161.295s.548.46.707.789c.163.329.245.691.245 1.084v.55c0 .394-.082.755-.245 1.084-.163.326-.402.589-.717.789-.313.197-.696.295-1.151.295-.458 0-.845-.098-1.16-.295-.316-.2-.555-.463-.718-.789-.163-.329-.244-.69-.244-1.084zm1.186-.55v.55c0 .292.069.557.208.794.14.238.382.356.728.356.343 0 .582-.118.718-.356.136-.237.204-.502.204-.794v-.55c0-.292-.067-.556-.199-.794-.129-.237-.37-.356-.723-.356-.339 0-.58.119-.722.356-.143.238-.214.502-.214.794zm-6.429-5.415v-.55c0-.394.082-.755.244-1.084.167-.329.408-.592.723-.789.319-.197.704-.295 1.156-.295.461 0 .848.098 1.16.295s.548.46.708.789c.159.329.239.69.239 1.084v.55c0 .393-.082.755-.244 1.084-.16.326-.397.588-.713.789-.312.196-.696.295-1.15.295-.462 0-.85-.099-1.166-.295-.312-.201-.55-.463-.713-.789-.162-.329-.244-.691-.244-1.084zm1.191-.55v.55c0 .291.068.556.204.794.139.237.382.356.728.356.339 0 .577-.119.712-.356.139-.238.209-.503.209-.794v-.55c0-.292-.066-.557-.199-.794-.132-.238-.373-.356-.722-.356-.34 0-.581.118-.723.356-.139.237-.209.502-.209.794zm-.707 8.47 7.166-10.425h1.217l-7.167 10.425z" fill="#858585"/><path d="m44.1471 352.088v-4.057h.6973c.2342-.186.453-.449.6566-.788.2036-.34.3767-.805.5192-1.395.1425-.591.2409-1.354.2952-2.291l.2749-4.408h6.6627v8.882h1.1606v4.047h-1.8121v-2.504h-6.6424v2.514zm2.8962-4.057h4.3977v-7.299h-3.1507l-.1628 2.825c-.0442.71-.1154 1.344-.2138 1.904s-.2223 1.054-.3716 1.481c-.1493.424-.3156.787-.4988 1.089zm17.65-3.669c0 1.123-.2104 2.085-.6312 2.886-.4173.797-.9874 1.408-1.7102 1.832-.7194.424-1.5355.636-2.4483.636s-1.7305-.212-2.4533-.636c-.7194-.428-1.2895-1.04-1.7102-1.837-.4174-.801-.6261-1.762-.6261-2.881 0-1.124.2087-2.084.6261-2.881.4207-.801.9908-1.414 1.7102-1.838.7228-.424 1.5405-.636 2.4533-.636s1.7289.212 2.4483.636c.7228.424 1.2929 1.037 1.7102 1.838.4208.797.6312 1.757.6312 2.881zm-1.8986 0c0-.791-.1238-1.458-.3715-2.001-.2443-.546-.5837-.958-1.018-1.237-.4344-.281-.9349-.422-1.5016-.422-.5666 0-1.0672.141-1.5015.422-.4343.279-.7754.691-1.0231 1.237-.2443.543-.3665 1.21-.3665 2.001 0 .79.1222 1.459.3665 2.005.2477.543.5888.955 1.0231 1.237.4343.278.9349.417 1.5015.417.5667 0 1.0672-.139 1.5016-.417.4343-.282.7737-.694 1.018-1.237.2477-.546.3715-1.215.3715-2.005zm3.1106-5.213h2.3108l3.0947 7.554h.1222l3.0947-7.554h2.3108v10.425h-1.812v-7.162h-.0967l-2.8809 7.131h-1.354l-2.8809-7.146h-.0967v7.177h-1.812zm13.4698 10.537c-.3088 0-.5734-.109-.794-.326s-.3291-.482-.3258-.794c-.0033-.305.1052-.567.3258-.784s.4852-.326.794-.326c.2987 0 .5582.109.7788.326.224.217.3376.479.341.784-.0034.207-.0577.395-.1628.565-.1018.17-.2376.305-.4072.407-.1663.099-.3496.148-.5498.148zm2.5303-.112v-10.425h3.9091c.8008 0 1.4727.15 2.0156.448.5464.299.9586.71 1.2369 1.232.2816.519.4225 1.11.4225 1.771 0 .669-.1409 1.263-.4225 1.782-.2817.519-.6973.928-1.2471 1.227-.5497.295-1.2266.442-2.0308.442h-2.5908v-1.552h2.3363c.4682 0 .8517-.081 1.1503-.244s.5192-.387.6617-.672c.1459-.285.2188-.613.2188-.983 0-.369-.0729-.695-.2188-.977-.1425-.281-.3648-.5-.6668-.656-.2986-.16-.6838-.24-1.1554-.24h-1.7306v8.847zm12.5906-9.264h2.1072c.8144 0 1.5372.175 2.1684.524.6311.35 1.1265.842 1.4864 1.476.36.632.539 1.371.539 2.22 0 .828-.179 1.552-.539 2.173-.3599.621-.8553 1.105-1.4864 1.451-.6312.342-1.354.514-2.1684.514h-2.1072c-.8178 0-1.544-.17-2.1785-.509-.6312-.343-1.1266-.825-1.4863-1.446s-.5395-1.347-.5395-2.178c0-.849.1815-1.588.5446-2.22.3631-.634.8602-1.126 1.4914-1.476.6345-.353 1.3573-.529 2.1683-.529zm0 1.598c-.4954 0-.9247.102-1.2878.306-.3597.2-.6379.495-.8347.885-.1968.391-.2952.869-.2952 1.436 0 .543.0984 1.002.2952 1.379.2002.377.4818.663.8449.86s.789.295 1.2776.295h2.1123c.4921 0 .9162-.098 1.2725-.295.3597-.2.6363-.488.8297-.865.1968-.38.2952-.84.2952-1.379 0-.56-.0984-1.035-.2952-1.426-.1934-.39-.47-.687-.8297-.89-.3563-.204-.7804-.306-1.2725-.306zm1.9647-2.942v11.035h-1.8171v-11.035z" fill="#5f5f5f"/><path d="m109.759 332.129h163.204v23.8889h-163.204z" fill="url(#g)"/><path d="m272.962 332.129v23.889" stroke="#cacaca" stroke-width="3.18519"/><path d="m282.504 347.538v-1.273l4.505-7.116h1.002v1.874h-.636l-3.222 5.1v.081h6.174v1.334zm4.942 2.036v-2.423l.01-.58v-7.422h1.492v10.425zm5.69-1.425-.076.554c-.051.408-.138.832-.26 1.273-.119.444-.242.857-.371 1.237-.126.38-.229.682-.311.906h-1.079c.044-.211.105-.496.183-.855.078-.357.155-.755.229-1.197.075-.441.131-.89.168-1.348l.051-.57zm4.829 1.567c-.638 0-1.212-.122-1.721-.366-.505-.248-.909-.587-1.211-1.018s-.463-.923-.484-1.476h1.527c.038.448.236.816.596 1.104.359.289.79.433 1.293.433.4 0 .755-.092 1.063-.275.313-.187.557-.443.733-.769.18-.325.27-.697.27-1.114 0-.424-.092-.803-.275-1.135-.183-.333-.436-.594-.758-.784-.319-.19-.686-.287-1.1-.29-.315 0-.632.054-.951.163-.319.108-.577.251-.774.427l-1.441-.214.586-5.253h5.731v1.349h-4.423l-.331 2.917h.061c.204-.197.473-.362.809-.494.34-.132.703-.198 1.09-.198.634 0 1.199.151 1.695.453.498.302.89.714 1.175 1.237.289.519.431 1.116.428 1.791.003.675-.149 1.278-.458 1.807-.306.529-.73.947-1.273 1.252-.539.302-1.158.453-1.857.453zm13.535-2.097v-.55c0-.393.081-.753.244-1.079.166-.329.407-.592.723-.789.319-.2.704-.3 1.155-.3.462 0 .849.099 1.161.295.312.197.548.46.707.789.163.329.245.691.245 1.084v.55c0 .394-.082.755-.245 1.084-.162.326-.402.589-.717.789-.312.197-.696.296-1.151.296-.458 0-.845-.099-1.16-.296-.316-.2-.555-.463-.718-.789-.163-.329-.244-.69-.244-1.084zm1.186-.55v.55c0 .292.069.557.209.794.139.238.381.357.727.357.343 0 .582-.119.718-.357.136-.237.204-.502.204-.794v-.55c0-.291-.066-.556-.199-.794-.129-.237-.37-.356-.723-.356-.339 0-.58.119-.722.356-.143.238-.214.503-.214.794zm-6.429-5.415v-.55c0-.394.082-.755.245-1.084.166-.329.407-.592.722-.789.319-.197.704-.295 1.156-.295.461 0 .848.098 1.16.295s.548.46.708.789c.159.329.239.69.239 1.084v.55c0 .393-.081.755-.244 1.084-.16.326-.397.589-.713.789-.312.197-.696.295-1.15.295-.462 0-.85-.098-1.166-.295-.312-.2-.55-.463-.712-.789-.163-.329-.245-.691-.245-1.084zm1.191-.55v.55c0 .292.068.556.204.794.139.237.382.356.728.356.339 0 .577-.119.712-.356.139-.238.209-.502.209-.794v-.55c0-.292-.066-.556-.198-.794-.133-.238-.374-.356-.723-.356-.34 0-.581.118-.723.356-.139.238-.209.502-.209.794zm-.707 8.47 7.166-10.425h1.217l-7.167 10.425z" fill="#858585"/><path d="m46.1627 387.796h-2.0156l3.6699-10.424h2.3312l3.6749 10.424h-2.0156l-2.7842-8.286h-.0814zm.0662-4.087h5.4972v1.517h-5.4972zm14.6393 4.087-3.4306-4.555h-.9264v4.555h-1.8884v-10.424h1.8884v4.286h.4733l3.7055-4.286h2.3262l-4.1178 4.754 4.2959 5.67zm6.0174 0v-10.424h6.7035v1.583h-4.8151v2.443h2.0106c.7974 0 1.4811.131 2.0512.392.5735.258 1.0129.623 1.3183 1.095.3054.471.4581 1.026.4581 1.664 0 .641-.1527 1.206-.4581 1.695-.3054.485-.7448.865-1.3183 1.14-.5701.275-1.2538.412-2.0512.412zm1.8884-1.547h2.0106c.4207 0 .777-.08 1.0688-.239.2919-.16.5124-.37.6617-.631.1527-.262.2291-.545.2291-.85 0-.441-.1697-.816-.509-1.125-.3359-.312-.8195-.469-1.4506-.469h-2.0106zm8.2552 1.547h-2.0156l3.6699-10.424h2.3312l3.6749 10.424h-2.0156l-2.7842-8.286h-.0815zm.0662-4.087h5.4972v1.517h-5.4972zm8.3939 4.087v-10.424h3.9091c.8008 0 1.4727.149 2.0156.448.5463.299.9586.709 1.2369 1.232.2816.519.4224 1.109.4224 1.771 0 .669-.1408 1.262-.4224 1.782-.2817.519-.6973.928-1.2471 1.226-.5497.296-1.2266.443-2.0309.443h-2.5907v-1.552h2.3362c.4683 0 .8518-.082 1.1504-.245s.5192-.386.6617-.671c.1459-.286.2188-.613.2188-.983s-.0729-.695-.2188-.977c-.1425-.282-.3648-.501-.6668-.657-.2986-.159-.6838-.239-1.1554-.239h-1.7306v8.846zm17.5737-6.907h-1.904c-.054-.312-.154-.588-.3-.829-.146-.245-.327-.452-.545-.621-.217-.17-.4645-.297-.7428-.382-.2748-.088-.5717-.132-.8907-.132-.5667 0-1.0689.142-1.5066.427-.4378.282-.7805.696-1.0282 1.242-.2477.543-.3716 1.206-.3716 1.99 0 .798.1239 1.47.3716 2.016.2511.543.5938.953 1.0282 1.232.4377.275.9382.412 1.5015.412.3122 0 .604-.041.8755-.122.2748-.085.5211-.209.7381-.372.22-.163.405-.363.555-.6.152-.238.258-.509.315-.815l1.904.01c-.071.496-.226.961-.463 1.395-.234.434-.541.818-.922 1.15-.38.33-.824.587-1.333.774-.5091.183-1.0741.275-1.695.275-.9162 0-1.734-.212-2.4534-.636-.7194-.425-1.2861-1.037-1.7-1.838-.414-.801-.621-1.761-.621-2.881 0-1.123.2087-2.083.626-2.881.4174-.8.9858-1.413 1.7052-1.837s1.5338-.636 2.4432-.636c.5802 0 1.1198.081 1.619.244.498.163.943.402 1.333.718.39.312.711.695.962 1.15.255.451.421.967.499 1.547z" fill="#5f5f5f"/><path d="m111.759 370.352h146.87v23.8889h-146.87z" fill="url(#h)"/><path d="m258.629 370.352v23.889" stroke="#cacaca" stroke-width="3.18519"/><path d="m268.1 385.76v-1.272l4.505-7.116h1.003v1.873h-.636l-3.222 5.1v.082h6.174v1.333zm4.943 2.036v-2.422l.01-.581v-7.421h1.491v10.424zm5.69-1.425-.077.555c-.051.407-.137.831-.259 1.272-.119.445-.243.857-.372 1.237-.125.38-.229.682-.31.906h-1.079c.044-.21.105-.495.183-.855.078-.356.154-.755.229-1.196s.131-.891.168-1.349l.051-.57zm1.555 1.425v-1.14l3.528-3.654c.376-.397.687-.745.931-1.044.248-.302.433-.589.555-.86s.183-.56.183-.865c0-.346-.081-.645-.244-.896-.163-.255-.385-.45-.667-.585-.282-.14-.599-.209-.952-.209-.373 0-.699.076-.977.229s-.492.368-.641.646c-.15.279-.224.604-.224.978h-1.502c0-.635.146-1.19.438-1.665s.692-.843 1.201-1.104c.509-.265 1.088-.397 1.736-.397.655 0 1.231.13 1.73.392.502.257.894.61 1.176 1.058.282.445.423.947.423 1.507 0 .387-.073.765-.219 1.135-.143.37-.392.782-.749 1.237-.356.451-.851.999-1.486 1.644l-2.071 2.168v.077h4.692v1.348zm16.878-1.954v-.55c0-.393.082-.753.245-1.079.166-.329.407-.592.722-.789.319-.2.705-.3 1.156-.3.461 0 .848.098 1.16.295.313.197.548.46.708.789.163.329.244.691.244 1.084v.55c0 .393-.081.755-.244 1.084-.163.326-.402.589-.718.789-.312.197-.695.295-1.15.295-.458 0-.845-.098-1.161-.295-.315-.2-.554-.463-.717-.789-.163-.329-.245-.691-.245-1.084zm1.186-.55v.55c0 .292.07.556.209.794.139.237.382.356.728.356.343 0 .582-.119.718-.356.135-.238.203-.502.203-.794v-.55c0-.292-.066-.556-.198-.794-.129-.237-.37-.356-.723-.356-.339 0-.58.119-.723.356-.142.238-.214.502-.214.794zm-6.428-5.416v-.549c0-.394.081-.755.244-1.084.166-.33.407-.593.723-.789.319-.197.704-.296 1.155-.296.462 0 .849.099 1.161.296.312.196.548.459.707.789.16.329.239.69.239 1.084v.549c0 .394-.081.755-.244 1.085-.159.325-.397.588-.712.789-.313.196-.696.295-1.151.295-.461 0-.85-.099-1.165-.295-.313-.201-.55-.464-.713-.789-.163-.33-.244-.691-.244-1.085zm1.191-.549v.549c0 .292.068.557.203.794.139.238.382.357.728.357.34 0 .577-.119.713-.357.139-.237.209-.502.209-.794v-.549c0-.292-.067-.557-.199-.794-.132-.238-.373-.357-.723-.357-.339 0-.58.119-.723.357-.139.237-.208.502-.208.794zm-.708 8.469 7.167-10.424h1.216l-7.166 10.424z" fill="#858585"/><path d="m45.7555 426.161v-1.588h.5956c.268 0 .4886-.039.6617-.117.173-.078.3121-.19.4173-.336.1086-.146.1985-.316.2698-.509l.1374-.351-3.7258-7.666h1.9749l2.5959 5.579 2.2446-5.579h1.9444l-3.5935 8.501c-.1663.366-.358.707-.5752 1.023-.2171.312-.5005.565-.85.758-.3461.19-.7974.285-1.3539.285zm7.2322 2.789v-10.75h1.812v1.293h.1069c.095-.19.229-.392.4021-.605.173-.218.4072-.403.7024-.555.2952-.156.6719-.234 1.13-.234.604 0 1.1486.154 1.6338.463.4887.305.8755.758 1.1606 1.359.2884.597.4326 1.33.4326 2.199 0 .858-.1408 1.588-.4225 2.188-.2816.601-.6651 1.059-1.1503 1.375-.4852.315-1.035.473-1.6491.473-.448 0-.8195-.075-1.1147-.224-.2953-.149-.5328-.329-.7126-.54-.1765-.213-.3139-.415-.4123-.605h-.0764v4.163zm1.8069-6.841c0 .506.0713.949.2138 1.329.1459.38.3546.677.626.891.2749.21.6074.315.9977.315.4072 0 .7482-.108 1.0231-.325.2748-.221.4818-.521.6209-.901.1425-.384.2138-.82.2138-1.309 0-.485-.0696-.916-.2087-1.292-.1391-.377-.3461-.672-.621-.886-.2748-.214-.6175-.321-1.0281-.321-.3937 0-.7279.104-1.0028.311-.2748.207-.4835.497-.626.87-.1391.373-.2087.813-.2087 1.318zm8.8278 4.067c-.4954 0-.9416-.088-1.3386-.264-.3937-.18-.7058-.445-.9366-.794-.2273-.35-.341-.781-.341-1.293 0-.441.0814-.806.2443-1.095.1629-.288.3851-.519.6668-.692.2816-.173.5989-.303.9518-.392.3563-.091.7245-.158 1.1045-.198.4581-.048.8297-.09 1.1147-.127.2851-.041.4921-.102.621-.184.1323-.085.1985-.215.1985-.392v-.03c0-.384-.1137-.681-.341-.891-.2274-.21-.5548-.316-.9824-.316-.4513 0-.8093.099-1.074.296-.2612.197-.4377.429-.5293.697l-1.7204-.244c.1357-.475.3597-.872.6719-1.191.3121-.323.6939-.564 1.1452-.723.4513-.163.9501-.244 1.4964-.244.3767 0 .7517.044 1.1249.132.3733.088.7143.234 1.0231.438.3088.2.5565.473.7431.819.1901.346.2851.779.2851 1.298v5.233h-1.7713v-1.074h-.0611c-.112.217-.2698.42-.4734.61-.2002.187-.453.338-.7584.453-.302.112-.6566.168-1.0638.168zm.4785-1.354c.3698 0 .6905-.073.962-.218.2714-.15.4801-.347.626-.591.1494-.244.224-.511.224-.799v-.921c-.0577.047-.1561.091-.2952.132-.1357.041-.2884.076-.4581.107-.1697.03-.3376.058-.5039.081-.1663.024-.3105.044-.4327.061-.2748.038-.5208.099-.738.184s-.3885.203-.5141.356c-.1255.149-.1883.343-.1883.58 0 .34.1238.596.3715.769.2478.173.5633.259.9468.259zm4.3894 1.197-.0102-1.517h.2697c.2036 0 .375-.046.5141-.138.1392-.091.2545-.244.3461-.458.0917-.217.1629-.509.2138-.875.0509-.367.0866-.823.1069-1.369l.1374-3.462h5.7008v7.819h-1.7815v-6.307h-2.2447l-.1221 2.52c-.0306.651-.1035 1.216-.2189 1.695-.112.475-.2715.867-.4784 1.175-.2036.309-.4598.54-.7686.693-.3088.149-.6736.224-1.0944.224zm11.9708.152c-.7804 0-1.4506-.171-2.0105-.514-.5565-.343-.9858-.816-1.2878-1.42-.2986-.607-.4479-1.306-.4479-2.097 0-.794.1527-1.495.4581-2.102.3054-.611.7364-1.086 1.2929-1.425.5599-.343 1.2216-.514 1.9851-.514.6345 0 1.1961.117 1.6847.351.4921.231.884.558 1.1758.982.2918.421.4581.913.4988 1.476h-1.7611c-.0713-.376-.2409-.69-.509-.941-.2647-.255-.6193-.382-1.0638-.382-.3767 0-.7075.102-.9925.305-.2851.2-.5073.489-.6668.866-.1561.376-.2342.828-.2342 1.353 0 .533.0781.991.2342 1.375.1561.38.3749.673.6566.88.285.204.6193.306 1.0027.306.2715 0 .5141-.051.7279-.153.2171-.105.3987-.256.5446-.453s.246-.436.3003-.718h1.7611c-.0441.553-.207 1.044-.4886 1.471-.2817.424-.6651.757-1.1503.998-.4853.237-1.0554.356-1.7103.356zm6.0653-2.647 3.1303-5.324h1.8935v7.819h-1.7815v-5.33l-3.1202 5.33h-1.8985v-7.819h1.7764zm12.6084-8.215.6413 1.191c-.2273.197-.4818.34-.7635.428-.2816.088-.6125.146-.9925.173-.3767.024-.8246.041-1.3438.051-.5836.013-1.0604.124-1.4303.331-.3698.207-.6532.521-.85.941-.1968.418-.3257.95-.3868 1.599h.0865c.2443-.479.5871-.844 1.0282-1.095s.9586-.376 1.5524-.376c.6481 0 1.2199.145 1.7153.437.4989.289.8874.708 1.1656 1.258.2817.549.4225 1.214.4225 1.995 0 .804-.151 1.501-.453 2.092-.302.587-.7313 1.04-1.2878 1.359-.5531.319-1.2097.478-1.9698.478-.7567 0-1.415-.164-1.9749-.493-.5565-.333-.9874-.823-1.2928-1.471-.302-.652-.453-1.455-.453-2.408v-.702c0-1.84.3427-3.212 1.0281-4.118.6855-.906 1.7018-1.368 3.0489-1.385.4004-.006.7584-.008 1.074-.005.319.004.5972-.012.8348-.046.2375-.034.4377-.112.6006-.234zm-2.8555 9.386c.3767 0 .7024-.097.9773-.29.2748-.197.4852-.475.6311-.835.1493-.359.224-.785.224-1.277 0-.486-.0747-.898-.224-1.237-.1493-.343-.3613-.604-.6362-.784s-.6023-.27-.9824-.27c-.285 0-.5412.051-.7686.153-.2273.102-.4207.251-.5802.448s-.2817.436-.3665.718c-.0848.281-.1306.605-.1374.972 0 .736.1663 1.321.4988 1.756.3325.431.7872.646 1.3641.646z" fill="#5f5f5f"/><path d="m108.759 408.574h139.519v23.8889h-139.519z" fill="url(#i)"/><path d="m248.277 408.574v23.889" stroke="#cacaca" stroke-width="3.18519"/><path d="m261.456 426.161c-.699 0-1.323-.12-1.873-.361-.546-.241-.979-.575-1.298-1.003-.315-.431-.485-.93-.509-1.496h1.599c.02.308.124.576.31.804.19.224.438.397.743.519.306.122.645.183 1.018.183.411 0 .774-.071 1.09-.214.318-.142.568-.341.748-.595.18-.258.27-.555.27-.891 0-.349-.09-.657-.27-.921-.177-.268-.436-.479-.779-.631-.339-.153-.75-.229-1.232-.229h-.88v-1.283h.88c.387 0 .726-.07 1.018-.209.295-.139.526-.332.692-.58.167-.251.25-.545.25-.881 0-.322-.073-.602-.219-.839-.143-.241-.346-.43-.611-.565-.261-.136-.57-.204-.926-.204-.34 0-.657.063-.952.188-.292.122-.529.299-.713.53-.183.227-.281.5-.295.819h-1.522c.017-.563.184-1.059.499-1.486.319-.428.74-.762 1.262-1.003.523-.241 1.103-.361 1.741-.361.669 0 1.246.13 1.731.392.488.258.865.602 1.13 1.033.268.431.4.903.397 1.415.003.584-.16 1.079-.489 1.486-.326.407-.76.681-1.303.82v.081c.692.105 1.228.38 1.609.825.383.444.573.996.57 1.654.003.573-.157 1.088-.479 1.542-.319.455-.755.813-1.308 1.074-.553.258-1.186.387-1.899.387zm6.729-1.568-.077.555c-.051.407-.137.832-.259 1.273-.119.444-.243.856-.372 1.237-.125.38-.229.682-.31.906h-1.079c.044-.211.105-.496.183-.856.078-.356.154-.755.229-1.196s.131-.89.168-1.349l.051-.57zm4.895-9.141c.465.003.923.088 1.375.254.451.167.858.438 1.221.815.367.376.659.885.876 1.527.22.638.332 1.432.336 2.382 0 .913-.092 1.725-.275 2.438-.183.709-.446 1.308-.789 1.797-.339.488-.752.86-1.237 1.114-.485.255-1.031.382-1.639.382-.621 0-1.172-.122-1.654-.366-.482-.245-.874-.582-1.176-1.013-.302-.435-.49-.933-.565-1.497h1.553c.101.448.308.811.621 1.089.315.275.722.413 1.221.413.764 0 1.359-.333 1.787-.998.427-.668.643-1.601.646-2.799h-.081c-.177.291-.397.543-.662.753-.261.21-.555.373-.881.489-.325.115-.673.173-1.043.173-.601 0-1.147-.148-1.639-.443s-.884-.701-1.176-1.217c-.292-.515-.437-1.104-.437-1.766 0-.658.149-1.255.447-1.792.302-.536.723-.96 1.263-1.272.543-.316 1.179-.47 1.908-.463zm.006 1.323c-.397 0-.755.099-1.074.295-.316.194-.565.457-.749.789-.183.329-.274.696-.274 1.1s.088.77.264 1.099c.18.326.424.586.733.779.312.19.669.285 1.069.285.299 0 .577-.058.835-.173s.483-.275.677-.479c.193-.206.344-.441.453-.702.108-.261.163-.536.163-.824 0-.384-.092-.74-.275-1.069-.18-.33-.428-.594-.743-.794-.316-.204-.676-.306-1.079-.306zm13.728 7.289v-.55c0-.393.082-.753.245-1.079.166-.329.407-.592.722-.789.319-.2.705-.3 1.156-.3.461 0 .848.098 1.16.295.313.197.548.46.708.789.163.329.244.691.244 1.084v.55c0 .394-.081.755-.244 1.084-.163.326-.402.589-.718.789-.312.197-.695.295-1.15.295-.458 0-.845-.098-1.161-.295-.315-.2-.554-.463-.717-.789-.163-.329-.245-.69-.245-1.084zm1.186-.55v.55c0 .292.07.557.209.794.139.238.382.356.728.356.343 0 .582-.118.718-.356.135-.237.203-.502.203-.794v-.55c0-.292-.066-.556-.198-.794-.129-.237-.37-.356-.723-.356-.339 0-.58.119-.723.356-.142.238-.214.502-.214.794zm-6.428-5.415v-.55c0-.394.081-.755.244-1.084.166-.329.407-.592.723-.789.319-.197.704-.295 1.155-.295.462 0 .849.098 1.161.295s.548.46.707.789c.16.329.239.69.239 1.084v.55c0 .393-.081.755-.244 1.084-.159.325-.397.588-.712.789-.313.196-.696.295-1.151.295-.461 0-.85-.099-1.165-.295-.313-.201-.55-.464-.713-.789-.163-.329-.244-.691-.244-1.084zm1.191-.55v.55c0 .291.068.556.203.794.139.237.382.356.728.356.34 0 .577-.119.713-.356.139-.238.208-.503.208-.794v-.55c0-.292-.066-.557-.198-.794-.132-.238-.373-.356-.723-.356-.339 0-.58.118-.723.356-.139.237-.208.502-.208.794zm-.708 8.47 7.167-10.425h1.216l-7.166 10.425z" fill="#858585"/><path d="m44.8241 464.241v-10.425h6.7035v1.583h-4.8152v2.444h2.0106c.7974 0 1.4812.13 2.0512.392.5735.257 1.0129.622 1.3183 1.094s.4581 1.026.4581 1.664c0 .642-.1527 1.207-.4581 1.695-.3054.486-.7448.866-1.3183 1.14-.57.275-1.2538.413-2.0512.413zm1.8883-1.548h2.0106c.4208 0 .777-.079 1.0689-.239.2918-.159.5124-.37.6617-.631.1527-.261.229-.545.229-.85 0-.441-.1696-.816-.509-1.125-.3359-.312-.8195-.468-1.4506-.468h-2.0106zm9.0849 1.706c-.4954 0-.9416-.089-1.3386-.265-.3937-.18-.7059-.445-.9366-.794-.2273-.35-.341-.781-.341-1.293 0-.441.0814-.806.2443-1.094.1629-.289.3851-.52.6668-.693.2816-.173.5989-.303.9518-.392.3563-.091.7245-.157 1.1045-.198.4581-.048.8297-.09 1.1147-.127.2851-.041.4921-.102.621-.184.1323-.084.1985-.215.1985-.391v-.031c0-.383-.1137-.68-.341-.891-.2274-.21-.5548-.315-.9824-.315-.4513 0-.8093.098-1.074.295-.2612.197-.4377.429-.5293.697l-1.7204-.244c.1357-.475.3597-.872.6718-1.191.3122-.323.694-.563 1.1453-.723.4513-.163.9501-.244 1.4964-.244.3767 0 .7517.044 1.1249.132.3733.088.7143.234 1.0231.438.3088.2.5565.473.7431.819.1901.346.2851.779.2851 1.298v5.233h-1.7713v-1.074h-.0611c-.112.217-.2698.421-.4734.611-.2002.186-.453.337-.7584.453-.302.112-.6566.168-1.0638.168zm.4785-1.354c.3698 0 .6905-.073.962-.219.2714-.15.4801-.346.626-.591.1493-.244.224-.51.224-.799v-.921c-.0577.047-.1561.091-.2952.132-.1358.041-.2885.077-.4581.107-.1697.031-.3376.058-.5039.082-.1663.023-.3105.044-.4327.061-.2748.037-.5208.098-.738.183s-.3885.203-.5141.356c-.1256.149-.1883.343-.1883.58 0 .34.1238.596.3715.769.2478.173.5633.26.9468.26zm10.2988-3.477v1.512h-4.1636v-1.512zm-3.5935-3.145v7.818h-1.7764v-7.818zm4.7998 0v7.818h-1.7713v-7.818zm1.2909 7.818v-7.818h1.8426v3.155h.6718l2.3516-3.155h2.2192l-2.8962 3.837 2.9268 3.981h-2.2295l-2.1428-2.947h-.9009v2.947zm19.5733-6.907h-1.9037c-.0543-.313-.1544-.589-.3003-.83-.1459-.244-.3274-.451-.5446-.621s-.4649-.297-.7431-.382c-.2749-.088-.5718-.132-.8908-.132-.5667 0-1.0689.142-1.5066.427-.4377.282-.7805.696-1.0282 1.242-.2477.543-.3715 1.207-.3715 1.991 0 .797.1238 1.469.3715 2.015.2511.543.5939.954 1.0282 1.232.4377.275.9382.412 1.5015.412.3122 0 .604-.04.8755-.122.2749-.085.5209-.209.7381-.371.2205-.163.4055-.364.5548-.601.1527-.238.2579-.509.3155-.814l1.9037.01c-.0713.495-.2257.96-.4632 1.394-.2341.435-.5412.818-.9213 1.151-.38.329-.8246.587-1.3336.773-.509.184-1.0739.275-1.6949.275-.9162 0-1.734-.212-2.4534-.636s-1.286-1.037-1.7-1.837c-.414-.801-.621-1.762-.621-2.881 0-1.124.2087-2.084.6261-2.881.4173-.801.9857-1.414 1.7051-1.838s1.5338-.636 2.4432-.636c.5802 0 1.1198.081 1.6186.244s.9433.402 1.3336.718c.3902.312.7109.696.962 1.15.2545.452.4207.967.4988 1.548zm3.3243 7.065c-.4954 0-.9417-.089-1.3387-.265-.3936-.18-.7058-.445-.9365-.794-.2274-.35-.3411-.781-.3411-1.293 0-.441.0815-.806.2444-1.094.1628-.289.3851-.52.6667-.693.2817-.173.599-.303.9519-.392.3563-.091.7244-.157 1.1045-.198.4581-.048.8297-.09 1.1147-.127.285-.041.492-.102.621-.184.1323-.084.1985-.215.1985-.391v-.031c0-.383-.1137-.68-.3411-.891-.2273-.21-.5548-.315-.9823-.315-.4513 0-.8093.098-1.074.295-.2613.197-.4377.429-.5294.697l-1.7204-.244c.1358-.475.3597-.872.6719-1.191.3122-.323.6939-.563 1.1453-.723.4513-.163.9501-.244 1.4964-.244.3767 0 .7516.044 1.1249.132s.7143.234 1.0231.438c.3088.2.5565.473.7431.819.19.346.285.779.285 1.298v5.233h-1.7713v-1.074h-.061c-.112.217-.2698.421-.4734.611-.2002.186-.453.337-.7584.453-.302.112-.6566.168-1.0638.168zm.4784-1.354c.3699 0 .6906-.073.962-.219.2715-.15.4802-.346.6261-.591.1493-.244.224-.51.224-.799v-.921c-.0577.047-.1561.091-.2953.132-.1357.041-.2884.077-.458.107-.1697.031-.3377.058-.504.082-.1662.023-.3104.044-.4326.061-.2749.037-.5209.098-.738.183-.2172.085-.3886.203-.5141.356-.1256.149-.1884.343-.1884.58 0 .34.1239.596.3716.769s.5633.26.9467.26zm10.2992-3.477v1.512h-4.1639v-1.512zm-3.5938-3.145v7.818h-1.7764v-7.818zm4.7998 0v7.818h-1.771v-7.818zm1.291 7.818v-7.818h1.842v3.155h.672l2.352-3.155h2.219l-2.896 3.837 2.927 3.981h-2.23l-2.143-2.947h-.901v2.947zm7.159-6.307v-1.511h6.841v1.511h-2.529v6.307h-1.782v-6.307zm12.236 1.207v1.516h-4.693v-1.516zm9.951-5.325v10.425h-1.873v-8.857h-4.56v8.857h-1.873v-10.425zm5.066 10.577c-.784 0-1.461-.162-2.031-.488-.567-.329-1.003-.794-1.309-1.395-.305-.604-.458-1.315-.458-2.133 0-.804.153-1.51.458-2.117.309-.611.74-1.086 1.293-1.425.553-.343 1.203-.514 1.95-.514.482 0 .936.078 1.364.234.431.153.811.39 1.14.712.333.323.594.733.784 1.232.19.496.285 1.086.285 1.772v.565h-6.408v-1.242h4.642c-.004-.353-.08-.667-.229-.942-.15-.278-.358-.497-.626-.657-.265-.159-.574-.239-.927-.239-.376 0-.707.092-.992.275-.285.18-.508.417-.667.713-.156.291-.236.612-.239.962v1.084c0 .454.083.845.249 1.17.166.323.399.57.697.744.299.169.649.254 1.049.254.268 0 .511-.037.728-.112.217-.078.405-.192.565-.341.159-.149.28-.334.361-.555l1.721.194c-.109.454-.316.851-.621 1.191-.302.336-.689.597-1.161.784-.472.183-1.011.274-1.618.274zm3.81-6.459v-1.511h6.841v1.511h-2.53v6.307h-1.781v-6.307zm10.874 6.459c-.784 0-1.461-.162-2.031-.488-.567-.329-1.003-.794-1.308-1.395-.306-.604-.458-1.315-.458-2.133 0-.804.152-1.51.458-2.117.309-.611.74-1.086 1.293-1.425.553-.343 1.203-.514 1.949-.514.482 0 .937.078 1.364.234.431.153.811.39 1.14.712.333.323.594.733.784 1.232.19.496.285 1.086.285 1.772v.565h-6.408v-1.242h4.642c-.003-.353-.08-.667-.229-.942-.149-.278-.358-.497-.626-.657-.265-.159-.573-.239-.926-.239-.377 0-.708.092-.993.275-.285.18-.507.417-.667.713-.156.291-.236.612-.239.962v1.084c0 .454.083.845.249 1.17.167.323.399.57.698.744.298.169.648.254 1.048.254.268 0 .511-.037.728-.112.217-.078.406-.192.565-.341.16-.149.28-.334.362-.555l1.72.194c-.109.454-.316.851-.621 1.191-.302.336-.689.597-1.16.784-.472.183-1.012.274-1.619.274zm4.462 2.78v-10.75h1.812v1.292h.107c.095-.19.229-.392.402-.605.173-.217.407-.402.702-.555.295-.156.672-.234 1.13-.234.604 0 1.149.154 1.634.463.489.305.876.758 1.161 1.359.288.597.432 1.33.432 2.199 0 .858-.141 1.588-.422 2.188-.282.601-.665 1.059-1.151 1.375-.485.315-1.034.473-1.649.473-.448 0-.819-.075-1.114-.224-.296-.149-.533-.329-.713-.539-.176-.214-.314-.416-.412-.606h-.077v4.164zm1.807-6.841c0 .505.071.948.214 1.328.145.38.354.677.626.891.274.21.607.315.997.315.407 0 .748-.108 1.023-.325.275-.221.482-.521.621-.901.143-.384.214-.82.214-1.308 0-.486-.07-.917-.209-1.293-.139-.377-.346-.672-.621-.886-.274-.214-.617-.321-1.028-.321-.393 0-.728.104-1.002.311-.275.207-.484.497-.627.87-.139.374-.208.813-.208 1.319zm12.844-6.801.641 1.191c-.227.197-.482.34-.764.428-.281.088-.612.146-.992.173-.377.024-.825.041-1.344.051-.584.014-1.06.124-1.43.331s-.653.521-.85.941c-.197.418-.326.951-.387 1.599h.086c.245-.479.588-.843 1.029-1.095.441-.251.958-.376 1.552-.376.648 0 1.22.146 1.715.437.499.289.888.708 1.166 1.258.282.549.422 1.215.422 1.995 0 .804-.151 1.502-.453 2.092-.302.587-.731 1.04-1.287 1.359-.553.319-1.21.478-1.97.478-.757 0-1.415-.164-1.975-.493-.557-.333-.987-.823-1.293-1.471-.302-.652-.453-1.454-.453-2.408v-.702c0-1.839.343-3.212 1.028-4.118.686-.906 1.702-1.368 3.049-1.385.401-.006.759-.008 1.074-.005.319.004.597-.011.835-.045.237-.034.438-.112.601-.235zm-2.856 9.386c.377 0 .702-.096.977-.29.275-.197.486-.475.632-.835.149-.359.223-.785.223-1.277 0-.485-.074-.898-.223-1.237-.15-.343-.362-.604-.637-.784s-.602-.27-.982-.27c-.285 0-.541.051-.769.153-.227.102-.42.251-.58.448-.159.197-.282.436-.366.718-.085.281-.131.605-.138.972 0 .736.166 1.322.499 1.756.333.431.787.646 1.364.646zm5.84 4.256c-.251 0-.483-.021-.697-.062-.211-.037-.379-.081-.504-.132l.427-1.435c.268.078.508.115.718.112.21-.004.395-.07.555-.199.163-.125.3-.336.412-.631l.158-.422-2.835-7.981h1.954l1.802 5.904h.082l1.807-5.904h1.959l-3.13 8.764c-.146.414-.339.769-.58 1.064-.241.299-.536.526-.886.682-.346.16-.76.24-1.242.24zm6.54 0v-10.75h1.812v1.292h.107c.095-.19.229-.392.402-.605.173-.217.407-.402.702-.555.296-.156.672-.234 1.13-.234.604 0 1.149.154 1.634.463.489.305.876.758 1.161 1.359.288.597.432 1.33.432 2.199 0 .858-.14 1.588-.422 2.188-.282.601-.665 1.059-1.15 1.375-.486.315-1.035.473-1.65.473-.447 0-.819-.075-1.114-.224s-.533-.329-.713-.539c-.176-.214-.314-.416-.412-.606h-.076v4.164zm1.807-6.841c0 .505.071.948.214 1.328.146.38.354.677.626.891.275.21.607.315.997.315.408 0 .749-.108 1.023-.325.275-.221.482-.521.621-.901.143-.384.214-.82.214-1.308 0-.486-.069-.917-.208-1.293-.14-.377-.347-.672-.621-.886-.275-.214-.618-.321-1.029-.321-.393 0-.727.104-1.002.311s-.484.497-.626.87c-.14.374-.209.813-.209 1.319zm11.749-3.909v1.511h-3.369v6.307h-1.802v-7.818z" fill="#5f5f5f"/><path d="m205.759 446.796h28.1852v23.8889h-28.1852z" fill="url(#j)"/><path d="m233.944 446.796v23.889" stroke="#cacaca" stroke-width="3.18519"/><path d="m243.242 464.241v-1.14l3.528-3.655c.376-.397.687-.745.931-1.043.248-.302.433-.589.555-.861.122-.271.183-.56.183-.865 0-.346-.081-.645-.244-.896-.163-.254-.385-.449-.667-.585-.282-.139-.599-.209-.952-.209-.373 0-.699.077-.977.229-.278.153-.492.368-.641.647-.15.278-.224.604-.224.977h-1.502c0-.635.146-1.189.438-1.664.292-.476.692-.844 1.201-1.105.509-.265 1.088-.397 1.736-.397.655 0 1.232.131 1.73.392.503.258.895.611 1.176 1.059.282.444.423.946.423 1.506 0 .387-.073.765-.219 1.135-.143.37-.392.782-.748 1.237-.357.451-.852.999-1.487 1.644l-2.071 2.169v.076h4.693v1.349zm10.218-1.425-.077.554c-.051.408-.137.832-.259 1.273-.119.444-.243.857-.372 1.237-.125.38-.229.682-.31.906h-1.079c.044-.211.105-.496.183-.855.078-.357.154-.755.229-1.197.075-.441.131-.89.168-1.348l.051-.57zm1.336-.611v-1.273l4.505-7.116h1.003v1.874h-.636l-3.222 5.1v.081h6.174v1.334zm4.943 2.036v-2.423l.01-.58v-7.422h1.491v10.425zm12.742-1.955v-.55c0-.393.082-.753.245-1.079.166-.329.407-.592.722-.789.319-.2.705-.3 1.156-.3.461 0 .848.099 1.16.295.313.197.548.46.708.789.163.329.244.691.244 1.084v.55c0 .394-.081.755-.244 1.084-.163.326-.402.589-.718.789-.312.197-.695.296-1.15.296-.458 0-.845-.099-1.161-.296-.315-.2-.554-.463-.717-.789-.163-.329-.245-.69-.245-1.084zm1.186-.55v.55c0 .292.07.557.209.794.139.238.382.357.728.357.343 0 .582-.119.718-.357.135-.237.203-.502.203-.794v-.55c0-.291-.066-.556-.198-.794-.129-.237-.37-.356-.723-.356-.339 0-.58.119-.723.356-.142.238-.214.503-.214.794zm-6.428-5.415v-.55c0-.394.081-.755.244-1.084.166-.329.407-.592.723-.789.319-.197.704-.295 1.155-.295.462 0 .849.098 1.161.295s.548.46.707.789c.16.329.239.69.239 1.084v.55c0 .393-.081.755-.244 1.084-.159.326-.397.589-.712.789-.313.197-.696.295-1.151.295-.461 0-.85-.098-1.165-.295-.313-.2-.55-.463-.713-.789-.163-.329-.244-.691-.244-1.084zm1.191-.55v.55c0 .292.068.556.203.794.139.237.382.356.728.356.34 0 .577-.119.713-.356.139-.238.208-.502.208-.794v-.55c0-.292-.066-.556-.198-.794s-.373-.356-.723-.356c-.339 0-.58.118-.723.356-.139.238-.208.502-.208.794zm-.708 8.47 7.167-10.425h1.216l-7.166 10.425z" fill="#858585"/><path d="m44.366 493.622v-1.583h8.317v1.583h-3.222v8.841h-1.8731v-8.841zm13.1644 3.741v1.517h-4.6929v-1.517zm7.6305-5.609.6413 1.191c-.2274.196-.4819.339-.7635.427s-.6125.146-.9925.173c-.3767.024-.8246.041-1.3438.051-.5836.014-1.0604.124-1.4303.331-.3698.207-.6532.521-.85.942-.1968.417-.3258.95-.3868 1.598h.0865c.2443-.479.587-.843 1.0282-1.094.4411-.252.9586-.377 1.5524-.377.6481 0 1.2199.146 1.7153.438.4988.288.8874.707 1.1656 1.257.2817.55.4225 1.215.4225 1.995 0 .804-.151 1.502-.453 2.092-.302.587-.7313 1.04-1.2878 1.359-.5531.319-1.2097.479-1.9698.479-.7567 0-1.415-.165-1.9749-.494-.5565-.333-.9874-.823-1.2928-1.471-.302-.652-.453-1.454-.453-2.408v-.702c0-1.839.3427-3.212 1.0281-4.118.6855-.906 1.7018-1.367 3.0489-1.384.4004-.007.7584-.009 1.074-.005.319.003.5972-.012.8347-.046.2376-.034.4378-.112.6007-.234zm-2.8555 9.386c.3767 0 .7024-.097.9773-.291.2748-.196.4852-.475.6311-.834.1493-.36.224-.786.224-1.278 0-.485-.0747-.897-.224-1.237-.1493-.343-.3614-.604-.6362-.784-.2749-.18-.6023-.269-.9824-.269-.285 0-.5412.05-.7686.152-.2273.102-.4207.251-.5802.448s-.2817.436-.3665.718-.1306.606-.1374.972c0 .736.1662 1.322.4988 1.756.3325.431.7872.647 1.3641.647zm6.9445 1.481c-.4954 0-.9416-.089-1.3386-.265-.3937-.18-.7058-.445-.9366-.794-.2273-.35-.341-.78-.341-1.293 0-.441.0814-.806.2443-1.094.1629-.289.3852-.519.6668-.692.2816-.174.5989-.304.9518-.392.3563-.092.7245-.158 1.1045-.199.4581-.047.8297-.09 1.1147-.127.2851-.041.4921-.102.621-.183.1324-.085.1985-.216.1985-.392v-.031c0-.383-.1137-.68-.341-.891-.2274-.21-.5548-.315-.9824-.315-.4513 0-.8093.098-1.0739.295-.2613.197-.4378.429-.5294.697l-1.7204-.244c.1357-.475.3597-.872.6719-1.191.3121-.322.6939-.563 1.1452-.723.4513-.163.9501-.244 1.4965-.244.3766 0 .7516.044 1.1248.132.3733.088.7143.234 1.0231.438.3088.2.5565.473.7432.819.19.347.285.779.285 1.298v5.233h-1.7713v-1.074h-.0611c-.112.217-.2698.421-.4734.611-.2002.186-.453.337-.7584.453-.302.112-.6566.168-1.0638.168zm.4785-1.354c.3699 0 .6905-.073.962-.219.2715-.149.4801-.346.6261-.591.1493-.244.2239-.51.2239-.799v-.921c-.0577.048-.1561.092-.2952.132-.1357.041-.2884.077-.4581.107-.1697.031-.3376.058-.5039.082-.1663.023-.3105.044-.4327.061-.2748.037-.5208.098-.738.183s-.3885.204-.5141.356c-.1255.15-.1883.343-.1883.581 0 .339.1238.595.3716.768.2477.173.5632.26.9467.26zm10.2988-3.477v1.512h-4.1636v-1.512zm-3.5935-3.145v7.818h-1.7764v-7.818zm4.7998 0v7.818h-1.7713v-7.818zm1.2909 7.818v-7.818h1.8426v3.155h.6718l2.3516-3.155h2.2192l-2.8962 3.838 2.9268 3.98h-2.2294l-2.1429-2.947h-.9009v2.947z" fill="#5f5f5f"/><path d="m97.7588 485.019h125.833v23.8889h-125.833z" fill="url(#k)"/><path d="m223.592 485.019v23.888" stroke="#cacaca" stroke-width="3.18519"/><path d="m233.408 502.463v-1.14l3.528-3.655c.376-.397.687-.745.931-1.043.248-.302.433-.589.555-.86.122-.272.183-.56.183-.866 0-.346-.081-.645-.244-.896-.163-.254-.385-.449-.667-.585-.282-.139-.599-.209-.952-.209-.373 0-.699.077-.977.229-.278.153-.492.369-.641.647-.15.278-.224.604-.224.977h-1.502c0-.634.146-1.189.438-1.664s.692-.844 1.201-1.105c.509-.265 1.088-.397 1.736-.397.655 0 1.231.131 1.73.392.502.258.894.611 1.176 1.059.282.444.422.947.422 1.506 0 .387-.072.766-.218 1.135-.143.37-.392.783-.749 1.237-.356.452-.851 1-1.486 1.644l-2.071 2.169v.076h4.692v1.349zm10.218-1.425-.077.555c-.051.407-.137.831-.259 1.272-.119.445-.243.857-.372 1.237-.125.38-.229.682-.31.906h-1.079c.044-.211.105-.496.183-.855.078-.357.154-.755.229-1.196.074-.442.13-.891.168-1.349l.051-.57zm4.806 1.567c-.699 0-1.323-.12-1.873-.361-.546-.241-.979-.575-1.298-1.003-.315-.431-.485-.929-.509-1.496h1.599c.02.309.123.577.31.804.19.224.438.397.743.519.306.122.645.183 1.018.183.411 0 .774-.071 1.089-.213.319-.143.569-.341.749-.596.179-.258.269-.555.269-.891 0-.349-.09-.656-.269-.921-.177-.268-.436-.478-.779-.631-.339-.153-.75-.229-1.232-.229h-.88v-1.283h.88c.387 0 .726-.069 1.018-.208.295-.14.526-.333.692-.581.167-.251.25-.544.25-.88 0-.323-.073-.603-.219-.84-.143-.241-.346-.429-.611-.565-.261-.136-.57-.204-.926-.204-.34 0-.657.063-.952.189-.292.122-.529.298-.713.529-.183.227-.281.501-.295.82h-1.522c.017-.564.183-1.059.499-1.487.319-.427.74-.762 1.262-1.002.523-.241 1.103-.362 1.741-.362.669 0 1.245.131 1.731.392.488.258.865.602 1.13 1.033.268.431.4.903.397 1.415.003.584-.16 1.079-.489 1.487-.326.407-.76.68-1.303.819v.082c.692.105 1.228.38 1.608.824.384.445.574.996.57 1.654.004.574-.156 1.088-.478 1.543-.319.454-.755.812-1.308 1.074-.553.257-1.186.386-1.899.386zm13.697-2.097v-.549c0-.394.082-.754.245-1.079.166-.33.407-.593.722-.789.319-.201.704-.301 1.156-.301.461 0 .848.099 1.16.296.312.196.548.459.708.788.163.33.244.691.244 1.085v.549c0 .394-.081.755-.244 1.085-.163.325-.402.588-.718.788-.312.197-.696.296-1.15.296-.458 0-.845-.099-1.161-.296-.315-.2-.555-.463-.717-.788-.163-.33-.245-.691-.245-1.085zm1.186-.549v.549c0 .292.07.557.209.794.139.238.382.357.728.357.343 0 .582-.119.717-.357.136-.237.204-.502.204-.794v-.549c0-.292-.066-.557-.198-.794-.129-.238-.37-.357-.723-.357-.34 0-.58.119-.723.357-.143.237-.214.502-.214.794zm-6.428-5.416v-.55c0-.393.081-.755.244-1.084.166-.329.407-.592.723-.789.319-.197.704-.295 1.155-.295.462 0 .848.098 1.161.295.312.197.548.46.707.789.16.329.239.691.239 1.084v.55c0 .394-.081.755-.244 1.084-.159.326-.397.589-.713.789-.312.197-.695.295-1.15.295-.461 0-.85-.098-1.165-.295-.313-.2-.55-.463-.713-.789-.163-.329-.244-.69-.244-1.084zm1.191-.55v.55c0 .292.068.556.203.794.139.237.382.356.728.356.339 0 .577-.119.713-.356.139-.238.208-.502.208-.794v-.55c0-.292-.066-.556-.198-.794-.132-.237-.373-.356-.723-.356-.339 0-.58.119-.723.356-.139.238-.208.502-.208.794zm-.708 8.47 7.167-10.424h1.216l-7.166 10.424z" fill="#858585"/><path d="m54.1387 535.473c0 1.123-.2104 2.085-.6312 2.886-.4173.797-.9874 1.408-1.7102 1.832-.7194.424-1.5355.637-2.4483.637s-1.7305-.213-2.4533-.637c-.7194-.427-1.2895-1.04-1.7102-1.837-.4174-.801-.6261-1.761-.6261-2.881 0-1.123.2087-2.084.6261-2.881.4207-.801.9908-1.413 1.7102-1.837.7228-.425 1.5405-.637 2.4533-.637s1.7289.212 2.4483.637c.7228.424 1.2929 1.036 1.7102 1.837.4208.797.6312 1.758.6312 2.881zm-1.8986 0c0-.791-.1238-1.457-.3715-2-.2443-.547-.5837-.959-1.018-1.237-.4344-.282-.9349-.423-1.5016-.423-.5666 0-1.0671.141-1.5015.423-.4343.278-.7754.69-1.0231 1.237-.2443.543-.3665 1.209-.3665 2s.1222 1.459.3665 2.005c.2477.543.5888.956 1.0231 1.237.4344.278.9349.418 1.5015.418.5667 0 1.0672-.14 1.5016-.418.4343-.281.7737-.694 1.018-1.237.2477-.546.3715-1.214.3715-2.005zm6.4394 5.365c-.7805 0-1.4506-.172-2.0105-.514-.5565-.343-.9858-.816-1.2878-1.42-.2986-.608-.4479-1.307-.4479-2.097 0-.795.1527-1.495.4581-2.103.3054-.61.7363-1.086 1.2928-1.425.5599-.343 1.2216-.514 1.9851-.514.6346 0 1.1962.117 1.6848.351.492.231.884.558 1.1758.983.2918.42.4581.912.4988 1.476h-1.7611c-.0713-.377-.2409-.691-.509-.942-.2647-.254-.6193-.382-1.0638-.382-.3767 0-.7075.102-.9926.306-.285.2-.5073.488-.6668.865-.156.377-.2341.828-.2341 1.354 0 .533.0781.991.2341 1.374.1561.38.375.674.6567.881.285.203.6192.305 1.0027.305.2714 0 .5141-.051.7278-.152.2172-.106.3988-.257.5447-.453.1459-.197.246-.437.3003-.718h1.7611c-.0441.553-.207 1.043-.4886 1.471-.2817.424-.6651.757-1.1504.997-.4852.238-1.0553.357-1.7102.357zm3.7213-6.459v-1.512h6.8409v1.512h-2.5297v6.306h-1.7815v-6.306zm9.6626 6.464c-.4954 0-.9416-.088-1.3387-.265-.3936-.18-.7058-.444-.9365-.794-.2274-.349-.341-.78-.341-1.293 0-.441.0814-.806.2443-1.094s.3851-.519.6668-.692c.2816-.173.5989-.304.9518-.392.3563-.092.7245-.158 1.1045-.199.4581-.047.8297-.09 1.1147-.127.2851-.041.492-.102.621-.183.1323-.085.1985-.216.1985-.392v-.031c0-.383-.1137-.68-.341-.89-.2274-.211-.5548-.316-.9824-.316-.4513 0-.8093.098-1.074.295-.2613.197-.4377.429-.5293.698l-1.7204-.245c.1357-.475.3597-.872.6718-1.191.3122-.322.694-.563 1.1453-.723.4513-.162.9501-.244 1.4964-.244.3767 0 .7516.044 1.1249.132.3733.089.7143.235 1.0231.438.3088.2.5565.474.7431.82.1901.346.2851.778.2851 1.298v5.232h-1.7713v-1.074h-.0611c-.112.217-.2698.421-.4734.611-.2002.187-.453.338-.7584.453-.302.112-.6566.168-1.0638.168zm.4785-1.354c.3698 0 .6905-.073.962-.219.2714-.149.4801-.346.626-.59.1493-.245.224-.511.224-.8v-.921c-.0577.048-.1561.092-.2952.133-.1358.04-.2885.076-.4581.106-.1697.031-.3377.058-.5039.082-.1663.024-.3105.044-.4327.061-.2748.037-.5208.098-.738.183s-.3886.204-.5141.356c-.1256.15-.1883.343-.1883.581 0 .339.1238.595.3715.768s.5633.26.9468.26zm4.3893 1.196-.0101-1.517h.2697c.2036 0 .375-.046.5141-.137.1391-.092.2545-.244.3461-.458.0917-.217.1629-.509.2138-.876.0509-.366.0865-.823.1069-1.369l.1374-3.461h5.7008v7.818h-1.7815v-6.306h-2.2447l-.1221 2.519c-.0306.652-.1035 1.217-.2189 1.695-.112.475-.2715.867-.4785 1.176-.2036.309-.4597.539-.7685.692-.3088.149-.6736.224-1.0944.224zm9.8077-5.273h2.3057c.9977 0 1.7697.242 2.316.728.5463.485.8212 1.121.8245 1.908-.0033.513-.1289.968-.3766 1.365-.2443.397-.6006.709-1.0689.936-.4649.224-1.0299.336-1.695.336h-3.5528v-7.818h1.7764v6.306h1.7764c.4005 0 .7296-.101.9875-.305.2579-.207.3868-.472.3868-.794 0-.339-.1289-.616-.3868-.83s-.587-.32-.9875-.32h-2.3057zm11.822.6v1.512h-4.1636v-1.512zm-3.5935-3.145v7.818h-1.7764v-7.818zm4.7998 0v7.818h-1.7713v-7.818zm2.5378 2.545h2.306c.997 0 1.769.242 2.316.728.546.485.821 1.121.824 1.908-.003.513-.129.968-.376 1.365-.245.397-.601.709-1.069.936-.465.224-1.03.336-1.695.336h-3.553v-7.818h1.776v6.306h1.777c.4 0 .729-.101.987-.305.258-.207.387-.472.387-.794 0-.339-.129-.616-.387-.83s-.587-.32-.987-.32h-2.306zm6.419 5.273v-7.818h1.842v7.818zm6.63.153c-.784 0-1.461-.163-2.031-.489-.567-.329-1.003-.794-1.308-1.395-.306-.604-.458-1.314-.458-2.132 0-.804.152-1.51.458-2.118.309-.61.74-1.086 1.293-1.425.553-.343 1.203-.514 1.949-.514.482 0 .937.078 1.364.234.431.153.811.39 1.14.713.333.322.594.733.784 1.232.19.495.285 1.085.285 1.771v.565h-6.408v-1.242h4.642c-.003-.353-.08-.667-.229-.942-.149-.278-.358-.497-.626-.656-.265-.16-.574-.24-.926-.24-.377 0-.708.092-.993.275-.285.18-.507.418-.667.713-.156.292-.236.612-.239.962v1.084c0 .455.083.845.249 1.171.167.322.399.57.698.743.298.17.648.254 1.048.254.268 0 .511-.037.728-.112.217-.078.406-.191.565-.341.16-.149.28-.334.361-.554l1.721.193c-.109.455-.316.852-.621 1.191-.302.336-.689.597-1.161.784-.471.183-1.011.275-1.618.275z" fill="#5f5f5f"/><path d="m127.759 523.241h354.204v23.8889h-354.204z" fill="url(#l)"/><path d="m481.963 523.241v23.889" stroke="#cacaca" stroke-width="3.18519"/><path d="m495.014 530.261v10.424h-1.577v-8.846h-.062l-2.494 1.628v-1.506l2.601-1.7zm2.247 10.424v-1.14l3.527-3.655c.377-.397.687-.745.932-1.043.247-.302.432-.589.555-.86.122-.272.183-.56.183-.866 0-.346-.082-.644-.245-.895-.162-.255-.385-.45-.666-.586-.282-.139-.599-.208-.952-.208-.373 0-.699.076-.977.229-.279.152-.492.368-.642.646-.149.278-.224.604-.224.977h-1.501c0-.634.146-1.189.437-1.664.292-.475.693-.843 1.202-1.105.509-.264 1.087-.397 1.735-.397.655 0 1.232.131 1.731.392.502.258.894.611 1.176 1.059.281.444.422.947.422 1.507 0 .386-.073.765-.219 1.135-.142.369-.392.782-.748 1.236-.356.452-.852 1-1.486 1.645l-2.072 2.168v.076h4.693v1.349zm10.217-1.425-.076.555c-.051.407-.137.831-.26 1.272-.118.445-.242.857-.371 1.237-.126.38-.229.682-.311.906h-1.079c.044-.21.105-.495.183-.855.079-.356.155-.755.23-1.196.074-.441.13-.891.167-1.349l.051-.57zm1.337-.611v-1.272l4.505-7.116h1.002v1.873h-.636l-3.222 5.1v.082h6.174v1.333zm4.942 2.036v-2.423l.01-.58v-7.421h1.492v10.424zm12.743-1.954v-.55c0-.394.081-.754.244-1.079.166-.329.407-.592.723-.789.319-.2.704-.301 1.155-.301.462 0 .849.099 1.161.296s.548.459.707.789c.163.329.245.69.245 1.084v.55c0 .393-.082.755-.245 1.084-.162.325-.402.588-.717.789-.312.196-.696.295-1.151.295-.458 0-.845-.099-1.16-.295-.316-.201-.555-.464-.718-.789-.163-.329-.244-.691-.244-1.084zm1.186-.55v.55c0 .291.069.556.209.794.139.237.381.356.727.356.343 0 .582-.119.718-.356.136-.238.204-.503.204-.794v-.55c0-.292-.066-.557-.199-.794-.129-.238-.37-.357-.723-.357-.339 0-.58.119-.722.357-.143.237-.214.502-.214.794zm-6.429-5.416v-.55c0-.393.082-.755.245-1.084.166-.329.407-.592.722-.789.319-.197.704-.295 1.156-.295.461 0 .848.098 1.16.295s.548.46.708.789c.159.329.239.691.239 1.084v.55c0 .394-.081.755-.244 1.084-.16.326-.397.589-.713.789-.312.197-.696.295-1.15.295-.462 0-.85-.098-1.166-.295-.312-.2-.55-.463-.712-.789-.163-.329-.245-.69-.245-1.084zm1.191-.55v.55c0 .292.068.557.204.794.139.238.382.356.728.356.339 0 .577-.118.712-.356.139-.237.209-.502.209-.794v-.55c0-.291-.066-.556-.198-.794-.133-.237-.374-.356-.723-.356-.34 0-.581.119-.723.356-.139.238-.209.503-.209.794zm-.707 8.47 7.166-10.424h1.217l-7.167 10.424z" fill="#858585"/></svg>