<svg fill="none" height="615" viewBox="0 0 860 615" width="860" xmlns="http://www.w3.org/2000/svg" xmlns:xlink="http://www.w3.org/1999/xlink"><linearGradient id="a" gradientUnits="userSpaceOnUse" x1="225.348" x2="225.348" y1="177.648" y2="296.694"><stop offset="0" stop-color="#04b34a"/><stop offset=".0666667" stop-color="#04b34a" stop-opacity=".991353"/><stop offset=".133333" stop-color="#04b34a" stop-opacity=".96449"/><stop offset=".2" stop-color="#04b34a" stop-opacity=".91834"/><stop offset=".266667" stop-color="#04b34a" stop-opacity=".852589"/><stop offset=".333333" stop-color="#04b34a" stop-opacity=".768225"/><stop offset=".4" stop-color="#04b34a" stop-opacity=".668116"/><stop offset=".466667" stop-color="#04b34a" stop-opacity=".557309"/><stop offset=".533333" stop-color="#04b34a" stop-opacity=".442691"/><stop offset=".6" stop-color="#04b34a" stop-opacity=".331884"/><stop offset=".666667" stop-color="#04b34a" stop-opacity=".231775"/><stop offset=".733333" stop-color="#04b34a" stop-opacity=".147411"/><stop offset=".8" stop-color="#04b34a" stop-opacity=".08166"/><stop offset=".866667" stop-color="#04b34a" stop-opacity=".03551"/><stop offset=".933333" stop-color="#04b34a" stop-opacity=".01"/><stop offset="1" stop-color="#04b34a" stop-opacity="0"/></linearGradient><linearGradient id="b"><stop offset="0" stop-color="#d9d9d9"/><stop offset="1" stop-color="#d9d9d9" stop-opacity="0"/></linearGradient><linearGradient id="c" gradientUnits="userSpaceOnUse" x1="427.995" x2="427.995" xlink:href="#b" y1="472.676" y2="545.935"/><linearGradient id="d" gradientUnits="userSpaceOnUse" x1="630.663" x2="630.663" xlink:href="#b" y1="223.435" y2="296.694"/><path d="m0 0h860v615h-860z" fill="#fff"/><g fill="#eaecef"><path d="m729.078 39.0183-2.13 12.6316h2.372l-1.361 8.0721h-4.391l.65-3.8463h-11.271l-.649 3.8463h-4.391l1.362-8.0721h1.683c.77-1.0444 1.5-2.4224 2.322-5.3186l2.09-7.313h13.717zm-5.576 4.2259h-4.817l-.928 3.2527c-.809 2.825-1.477 4.1063-2.152 5.153h6.48z"/><path d="m732.949 39.0183h10.441c3.679 0 5.333 1.8748 4.875 4.5824-.293 1.7322-1.597 2.8479-2.82 3.3471 1.336.5222 2.393 1.8519 2.009 4.1316-.489 2.8962-2.85 4.7963-6.766 4.7963h-10.584zm3.063 10.1149-.497 2.9445h4.793c1.281 0 2.073-.4738 2.242-1.4722.172-1.0214-.463-1.4723-1.746-1.4723h-4.794zm1.065-6.3146-.424 2.5166h4.722c.997 0 1.697-.3565 1.85-1.2583.152-.9017-.429-1.2583-1.426-1.2583z"/><path d="m751.281 39.0183h4.865l-1.713 10.1609 9.14-10.1609h4.865l-2.843 16.8574h-4.865l1.707-10.1149-9.133 10.1149h-4.865z"/><path d="m775.671 47.1388-5.726-8.1205h5.505l4.77 6.8851 1.164-6.8851h4.627l-1.161 6.8851 7.095-6.8851h5.388l-8.24 7.9065 5.752 8.9509h-5.862l-4.6-7.1934-1.214 7.1934h-4.628l1.214-7.1934-7.028 7.1934h-5.648l8.594-8.7369z"/><path d="m804.438 39.0183h-5.648l5.623 7.9065-8.346 8.9509h5.648l8.346-8.9509zm8.928 0h-5.648l5.623 7.9065-8.345 8.9509h5.648l8.345-8.9509zm9.159 0h-5.648l5.623 7.9065-8.346 8.9509h5.648l8.346-8.9509z"/></g><path d="m32.5336 64.8807v-8.541h1.415c.4819-.3461.923-.8347 1.3234-1.4659.4004-.6379.7432-1.5168 1.0282-2.6366.285-1.1266.4886-2.5993.6108-4.4181l.5904-8.8158h13.7938v17.3364h2.2803v8.5206h-4.2348v-5.0085h-12.5722v5.0289zm6.505-8.541h8.0218v-13.7021h-5.5888l-.3258 5.1815c-.0882 1.3777-.2341 2.5993-.4377 3.6648-.1968 1.0655-.4377 1.9987-.7228 2.7995-.2782.794-.5938 1.4795-.9467 2.0563zm23.0535 3.8175c-1.5812 0-2.9487-.3359-4.1025-1.0078-1.1469-.6787-2.0326-1.622-2.6569-2.83-.6244-1.2148-.9366-2.6231-.9366-4.2247 0-1.6152.3122-3.0268.9366-4.2348.6243-1.2148 1.51-2.1582 2.6569-2.8301 1.1538-.6786 2.5213-1.018 4.1025-1.018 1.5813 0 2.9454.3394 4.0924 1.018 1.1537.6719 2.0427 1.6153 2.6671 2.8301.6244 1.208.9366 2.6196.9366 4.2348 0 1.6016-.3122 3.0099-.9366 4.2247-.6244 1.208-1.5134 2.1513-2.6671 2.83-1.147.6719-2.5111 1.0078-4.0924 1.0078zm.0204-3.3594c.7194 0 1.32-.2036 1.8019-.6108.4818-.4139.8449-.9772 1.0892-1.6898.2511-.7126.3767-1.5236.3767-2.433s-.1256-1.7204-.3767-2.433c-.2443-.7126-.6074-1.2759-1.0892-1.6899-.4819-.414-1.0825-.621-1.8019-.621-.7262 0-1.337.207-1.8324.621-.4886.414-.8585.9773-1.1096 1.6899-.2443.7126-.3665 1.5236-.3665 2.433s.1222 1.7204.3665 2.433c.2511.7126.621 1.2759 1.1096 1.6898.4954.4072 1.1062.6108 1.8324.6108zm8.4326 3.054-.0203-3.4408h.5192c.3664 0 .682-.0882.9467-.2647.2715-.1832.4954-.4784.6719-.8856.1764-.4072.3156-.9468.4173-1.6186.1018-.6787.1697-1.5135.2036-2.5043l.2545-6.9224h11.8902v15.6364h-4.1331v-12.2261h-3.8581l-.2444 4.7744c-.061 1.3098-.2205 2.4364-.4784 3.3797-.2511.9434-.6006 1.7171-1.0485 2.3211-.448.5972-.9875 1.0383-1.6187 1.3233-.6311.2851-1.3641.4276-2.1988.4276zm27.8076-15.6364v3.4103h-6.4948v12.2261h-4.2144v-15.6364zm8.0023 15.9418c-1.581 0-2.949-.3359-4.102-1.0078-1.147-.6787-2.033-1.622-2.6572-2.83-.6244-1.2148-.9366-2.6231-.9366-4.2247 0-1.6152.3122-3.0268.9366-4.2348.6242-1.2148 1.5102-2.1582 2.6572-2.8301 1.153-.6786 2.521-1.018 4.102-1.018 1.582 0 2.946.3394 4.093 1.018 1.153.6719 2.042 1.6153 2.667 2.8301.624 1.208.936 2.6196.936 4.2348 0 1.6016-.312 3.0099-.936 4.2247-.625 1.208-1.514 2.1513-2.667 2.83-1.147.6719-2.511 1.0078-4.093 1.0078zm.021-3.3594c.719 0 1.32-.2036 1.801-.6108.482-.4139.845-.9772 1.09-1.6898.251-.7126.376-1.5236.376-2.433s-.125-1.7204-.376-2.433c-.245-.7126-.608-1.2759-1.09-1.6899-.481-.414-1.082-.621-1.801-.621-.727 0-1.337.207-1.833.621-.488.414-.858.9773-1.109 1.6899-.245.7126-.367 1.5236-.367 2.433s.122 1.7204.367 2.433c.251.7126.621 1.2759 1.109 1.6898.496.4072 1.106.6108 1.833.6108zm9.348 3.054v-15.6364h6.668c1.928 0 3.451.3665 4.571 1.0995 1.12.7329 1.68 1.7747 1.68 3.1252 0 .8483-.316 1.5541-.947 2.1174s-1.507.9434-2.626 1.1402c.936.0679 1.734.2816 2.392.6413.665.3529 1.171.811 1.517 1.3743.353.5633.529 1.1877.529 1.8731 0 .8891-.237 1.6526-.713 2.2905-.468.6379-1.157 1.1266-2.066 1.4659-.903.3393-2.005.509-3.309.509zm4.042-3.2474h3.654c.604 0 1.076-.1425 1.416-.4275.346-.2919.519-.6889.519-1.1911 0-.5565-.173-.9942-.519-1.3132-.34-.319-.812-.4785-1.416-.4785h-3.654zm0-5.9552h2.718c.434 0 .804-.0611 1.11-.1833.312-.1289.549-.3122.712-.5497.17-.2375.255-.5192.255-.8449 0-.4819-.194-.8585-.581-1.13-.386-.2715-.916-.4072-1.588-.4072h-2.626zm15.788 9.4978c-.998 0-1.887-.173-2.668-.5192-.78-.3529-1.398-.872-1.852-1.5575-.448-.6922-.672-1.5541-.672-2.5857 0-.8687.159-1.5982.478-2.1887.319-.5904.754-1.0655 1.303-1.4252.55-.3596 1.174-.6311 1.873-.8143.706-.1833 1.446-.3122 2.22-.3869.909-.095 1.642-.1832 2.198-.2647.557-.0882.961-.2171 1.212-.3868s.377-.4208.377-.7533v-.0611c0-.6447-.204-1.1435-.611-1.4964-.401-.3529-.971-.5294-1.711-.5294-.78 0-1.401.1731-1.862.5192-.462.3393-.767.7669-.917 1.2826l-4.011-.3257c.204-.9501.604-1.7713 1.202-2.4636.597-.699 1.367-1.2351 2.311-1.6084.95-.38 2.049-.5701 3.298-.5701.869 0 1.7.1018 2.494.3054.801.2036 1.51.5192 2.128.9468.624.4275 1.116.9772 1.476 1.6491.359.6651.539 1.4625.539 2.3923v10.5464h-4.113v-2.1683h-.122c-.251.4886-.587.9196-1.007 1.2928-.421.3665-.927.6549-1.517.8653-.591.2036-1.273.3054-2.046.3054zm1.241-2.9929c.638 0 1.202-.1255 1.69-.3766.489-.2579.872-.604 1.151-1.0384.278-.4343.417-.9264.417-1.4761v-1.6593c-.136.0882-.322.1697-.56.2443-.231.0679-.492.1324-.784.1934-.292.0543-.583.1052-.875.1527-.292.0408-.557.0781-.794.112-.509.0747-.954.1934-1.334.3563s-.675.3835-.885.6617c-.211.2715-.316.6108-.316 1.018 0 .5904.214 1.0417.641 1.3539.435.3054.984.4581 1.649.4581zm18.944 2.6977v-12.2363h-2.932c-.794 0-1.398.1833-1.812.5498-.414.3664-.618.8008-.611 1.303-.007.509.19.9399.591 1.2928.407.3462 1.004.5192 1.791.5192h4.418v2.9318h-4.418c-1.337 0-2.494-.2036-3.471-.6108s-1.731-.9738-2.26-1.7c-.529-.733-.791-1.5847-.784-2.5552-.007-1.018.255-1.9104.784-2.6773.529-.7737 1.286-1.3743 2.27-1.8018.991-.4344 2.158-.6516 3.502-.6516h6.973v15.6364zm-9.936 0 4.347-8.1439h4.143l-4.336 8.1439zm32.571-9.5488v3.4103h-8.165v-3.4103zm-6.739-6.0876v15.6364h-4.144v-15.6364zm9.457 0v15.6364h-4.113v-15.6364zm6.676 15.9316c-.997 0-1.886-.173-2.667-.5192-.78-.3529-1.398-.872-1.853-1.5575-.448-.6922-.671-1.5541-.671-2.5857 0-.8687.159-1.5982.478-2.1887.319-.5904.753-1.0655 1.303-1.4252.55-.3596 1.174-.6311 1.873-.8143.706-.1833 1.446-.3122 2.219-.3869.91-.095 1.643-.1832 2.199-.2647.557-.0882.961-.2171 1.212-.3868s.376-.4208.376-.7533v-.0611c0-.6447-.203-1.1435-.611-1.4964-.4-.3529-.97-.5294-1.71-.5294-.78 0-1.401.1731-1.863.5192-.461.3393-.767.7669-.916 1.2826l-4.011-.3257c.204-.9501.604-1.7713 1.201-2.4636.598-.699 1.368-1.2351 2.311-1.6084.95-.38 2.05-.5701 3.299-.5701.868 0 1.7.1018 2.494.3054.801.2036 1.51.5192 2.127.9468.625.4275 1.117.9772 1.476 1.6491.36.6651.54 1.4625.54 2.3923v10.5464h-4.113v-2.1683h-.122c-.251.4886-.587.9196-1.008 1.2928-.42.3665-.926.6549-1.517.8653-.59.2036-1.272.3054-2.046.3054zm1.242-2.9929c.638 0 1.201-.1255 1.69-.3766.489-.2579.872-.604 1.15-1.0384.279-.4343.418-.9264.418-1.4761v-1.6593c-.136.0882-.323.1697-.56.2443-.231.0679-.492.1324-.784.1934-.292.0543-.584.1052-.875.1527-.292.0408-.557.0781-.794.112-.509.0747-.954.1934-1.334.3563s-.675.3835-.886.6617c-.21.2715-.315.6108-.315 1.018 0 .5904.214 1.0417.641 1.3539.434.3054.984.4581 1.649.4581zm20.491-12.9387v3.4103h-6.495v12.2261h-4.214v-15.6364zm1.498 21.5v-21.5h4.275v2.6265h.194c.19-.4208.464-.8484.824-1.2827.367-.4411.842-.8076 1.425-1.0994.591-.2986 1.324-.448 2.199-.448 1.14 0 2.192.2987 3.156.8959.964.5904 1.734 1.4829 2.311 2.6773.577 1.1877.865 2.6773.865 4.469 0 1.7441-.282 3.2168-.845 4.4181-.556 1.1944-1.316 2.1004-2.28 2.718-.957.6108-2.029.9162-3.217.9162-.842 0-1.558-.1391-2.148-.4174-.584-.2782-1.062-.6277-1.435-1.0485-.374-.4276-.659-.8585-.855-1.2929h-.133v8.3679zm4.245-13.6818c0 .9298.129 1.7408.386 2.433.258.6923.632 1.2318 1.12 1.6186.489.3801 1.083.5701 1.782.5701.706 0 1.303-.1934 1.791-.5802.489-.3937.859-.9366 1.11-1.6288.258-.6991.387-1.5033.387-2.4127 0-.9026-.126-1.6966-.377-2.3821-.251-.6854-.621-1.2216-1.109-1.6084-.489-.3868-1.09-.5803-1.802-.5803-.706 0-1.303.1867-1.792.5599-.482.3733-.852.9027-1.11 1.5881-.257.6855-.386 1.4931-.386 2.4228zm14.922 13.6818c-.55 0-1.066-.0441-1.547-.1323-.475-.0814-.869-.1866-1.181-.3156l.977-3.2372c.509.1561.967.2409 1.374.2545.414.0136.771-.0814 1.069-.285.306-.2036.553-.5497.743-1.0384l.255-.6617-5.609-16.0843h4.56l3.237 11.483h.163l3.268-11.483h4.591l-6.077 17.3263c-.292.8415-.689 1.5745-1.191 2.1988-.496.6312-1.123 1.1164-1.883 1.4558-.761.3461-1.677.5191-2.749.5191zm12.169-10.2919h4.204c.02.5158.251.923.692 1.2216s1.011.4479 1.71.4479c.706 0 1.3-.1628 1.782-.4886.482-.3325.723-.8076.723-1.4252 0-.38-.095-.7092-.285-.9874-.19-.2851-.455-.509-.794-.6719-.34-.1629-.733-.2443-1.181-.2443h-2.25v-2.8402h2.25c.672 0 1.187-.1561 1.547-.4683.367-.3122.55-.7024.55-1.1707 0-.5293-.19-.9535-.57-1.2725-.374-.3257-.879-.4886-1.517-.4886-.645 0-1.181.1459-1.609.4377-.42.2851-.637.6583-.651 1.1198h-4.184c.014-.9365.295-1.7475.845-2.433.556-.6854 1.303-1.2148 2.24-1.5881.943-.3732 1.998-.5599 3.165-.5599 1.276 0 2.376.1799 3.299.5396.93.3529 1.642.8585 2.138 1.5168.502.6583.753 1.4421.753 2.3516 0 .8279-.272 1.5202-.815 2.0767-.542.5565-1.303.9535-2.28 1.191v.1629c.645.0407 1.229.2138 1.751.5192.523.3054.94.7261 1.252 1.2623.312.5293.469 1.1571.469 1.8833 0 .9704-.286 1.8018-.856 2.494-.563.6923-1.343 1.225-2.341 1.5983-.991.3665-2.128.5497-3.41.5497-1.249 0-2.369-.1798-3.36-.5395-.984-.3665-1.768-.9027-2.351-1.6085-.577-.7058-.882-1.5677-.916-2.5857zm14.746 4.4283v-15.6364h4.337v6.0673h1.222l4.255-6.0673h5.09l-5.528 7.7571 5.589 7.8793h-5.151l-3.858-5.5481h-1.619v5.5481zm20.109.2952c-.997 0-1.886-.173-2.667-.5192-.78-.3529-1.398-.872-1.853-1.5575-.447-.6922-.671-1.5541-.671-2.5857 0-.8687.159-1.5982.478-2.1887.319-.5904.753-1.0655 1.303-1.4252.55-.3596 1.174-.6311 1.873-.8143.706-.1833 1.446-.3122 2.219-.3869.91-.095 1.643-.1832 2.199-.2647.557-.0882.961-.2171 1.212-.3868s.376-.4208.376-.7533v-.0611c0-.6447-.203-1.1435-.61-1.4964-.401-.3529-.971-.5294-1.711-.5294-.78 0-1.401.1731-1.863.5192-.461.3393-.766.7669-.916 1.2826l-4.011-.3257c.204-.9501.604-1.7713 1.202-2.4636.597-.699 1.367-1.2351 2.31-1.6084.951-.38 2.05-.5701 3.299-.5701.868 0 1.7.1018 2.494.3054.801.2036 1.51.5192 2.127.9468.625.4275 1.117.9772 1.476 1.6491.36.6651.54 1.4625.54 2.3923v10.5464h-4.113v-2.1683h-.122c-.251.4886-.587.9196-1.008 1.2928-.42.3665-.926.6549-1.516.8653-.591.2036-1.273.3054-2.047.3054zm1.242-2.9929c.638 0 1.202-.1255 1.69-.3766.489-.2579.872-.604 1.151-1.0384.278-.4343.417-.9264.417-1.4761v-1.6593c-.136.0882-.322.1697-.56.2443-.231.0679-.492.1324-.784.1934-.292.0543-.583.1052-.875.1527-.292.0408-.557.0781-.794.112-.509.0747-.954.1934-1.334.3563s-.675.3835-.886.6617c-.21.2715-.315.6108-.315 1.018 0 .5904.214 1.0417.641 1.3539.435.3054.984.4581 1.649.4581z" fill="#000"/><rect fill="#f7f7f7" height="234.907" rx="15.9259" width="390.981" x="31.8516" y="98.7405"/><g opacity=".6"><path d="m48.5754 123.884c-.8382 0-1.5576-.213-2.1582-.637-.5972-.427-1.057-1.043-1.3794-1.847-.3189-.808-.4784-1.78-.4784-2.917.0034-1.137.1646-2.104.4835-2.901.3224-.801.7822-1.412 1.3794-1.833.6006-.42 1.3183-.631 2.1531-.631.8347 0 1.5524.211 2.153.631.6006.421 1.0604 1.032 1.3794 1.833.3224.801.4836 1.768.4836 2.901 0 1.14-.1612 2.114-.4836 2.922-.319.804-.7788 1.418-1.3794 1.842-.5972.424-1.3149.637-2.153.637zm0-1.594c.6515 0 1.1656-.32 1.5422-.962.3801-.644.5701-1.593.5701-2.845 0-.828-.0865-1.523-.2596-2.087-.173-.563-.4174-.987-.7329-1.272-.3156-.289-.6889-.433-1.1198-.433-.6481 0-1.1605.322-1.5372.967-.3767.642-.5667 1.583-.5701 2.825-.0034.831.0798 1.53.2494 2.097.1731.567.4174.994.733 1.283.3156.285.6905.427 1.1249.427zm11.8995-4.575v1.516h-4.6929v-1.516zm6.9942 6.113c-.733 0-1.3845-.126-1.9546-.377-.5667-.251-1.0146-.601-1.3437-1.049-.3292-.448-.5039-.965-.5243-1.552h1.9138c.017.282.1103.528.28.738.1696.207.3953.368.6769.484.2817.115.5973.173.9468.173.3732 0 .7041-.065.9925-.194.2884-.132.5141-.315.677-.55.1629-.234.2426-.503.2392-.809.0034-.315-.078-.594-.2443-.835s-.4072-.429-.7228-.565c-.3122-.135-.6888-.203-1.13-.203h-.9212v-1.456h.9212c.3631 0 .6804-.063.9519-.188.2748-.126.4903-.302.6464-.53.1561-.23.2324-.497.229-.799.0034-.295-.0627-.551-.1985-.768-.1323-.221-.3206-.392-.565-.514-.2409-.123-.5242-.184-.85-.184-.319 0-.6142.058-.8856.173-.2715.116-.4904.28-.6566.494-.1663.211-.2545.462-.2647.753h-1.8171c.0135-.583.1815-1.096.5039-1.537.3257-.444.7601-.79 1.303-1.038.5429-.251 1.152-.377 1.8273-.377.6956 0 1.2996.131 1.812.392.5158.258.9145.606 1.1962 1.044.2816.437.4224.921.4224 1.45.0034.587-.1696 1.079-.5191 1.476-.3462.397-.8009.657-1.3642.779v.082c.733.101 1.2946.373 1.6848.814.3936.438.5888.982.5854 1.634 0 .584-.1663 1.106-.4988 1.568-.3292.458-.7839.817-1.3642 1.079-.5768.261-1.2385.392-1.985.392zm10.8815.056c-.8381 0-1.5575-.213-2.1581-.637-.5972-.427-1.057-1.043-1.3794-1.847-.319-.808-.4784-1.78-.4784-2.917.0033-1.137.1645-2.104.4835-2.901.3224-.801.7822-1.412 1.3794-1.833.6006-.42 1.3183-.631 2.153-.631.8348 0 1.5525.211 2.1531.631.6006.421 1.0604 1.032 1.3794 1.833.3223.801.4835 1.768.4835 2.901 0 1.14-.1612 2.114-.4835 2.922-.319.804-.7788 1.418-1.3794 1.842-.5972.424-1.3149.637-2.1531.637zm0-1.594c.6515 0 1.1656-.32 1.5423-.962.38-.644.5701-1.593.5701-2.845 0-.828-.0866-1.523-.2596-2.087-.1731-.563-.4174-.987-.733-1.272-.3156-.289-.6888-.433-1.1198-.433-.6481 0-1.1605.322-1.5371.967-.3767.642-.5667 1.583-.5701 2.825-.0034.831.0797 1.53.2494 2.097.1731.567.4174.994.733 1.283.3155.285.6905.427 1.1248.427zm12.714-.559v-.55c0-.404.0848-.776.2545-1.115.1731-.339.4242-.612.7533-.819.3292-.207.7279-.311 1.1961-.311.4819 0 .8857.104 1.2115.311.3257.203.5717.475.738.814.1697.339.2545.713.2545 1.12v.55c0 .403-.0848.775-.2545 1.114-.1697.34-.4191.613-.7482.82-.3258.207-.7262.31-1.2013.31-.475 0-.8771-.103-1.2063-.31-.3291-.207-.5785-.48-.7482-.82-.1663-.339-.2494-.711-.2494-1.114zm1.3285-.55v.55c0 .268.0644.514.1934.738.1289.224.3563.335.682.335.3292 0 .5549-.11.677-.33.1256-.224.1883-.472.1883-.743v-.55c0-.272-.0593-.519-.1781-.743-.1188-.228-.3478-.341-.6872-.341-.3189 0-.5446.113-.6769.341-.1324.224-.1985.471-.1985.743zm-6.6272-5.416v-.55c0-.407.0866-.78.2596-1.119.1731-.34.4242-.611.7533-.815.3292-.207.7279-.31 1.1962-.31.4784 0 .8806.103 1.2063.31.3292.204.5769.475.7431.815.1663.339.2495.712.2495 1.119v.55c0 .407-.0849.781-.2545 1.12-.1663.336-.414.606-.7432.809-.3291.204-.7295.306-1.2012.306-.4785 0-.8823-.102-1.2114-.306-.3258-.203-.5735-.475-.7432-.814-.1696-.34-.2545-.711-.2545-1.115zm1.3387-.55v.55c0 .272.0628.519.1883.743.129.221.3563.331.6821.331.3257 0 .5497-.11.6719-.331.1255-.224.1883-.471.1883-.743v-.55c0-.271-.0594-.519-.1782-.743-.1187-.227-.3461-.341-.682-.341-.3224 0-.548.114-.677.341-.1289.228-.1934.475-.1934.743zm-.7584 8.47 7.1667-10.424h1.2725l-7.1667 10.424z" fill="#f00"/><path d="m103.432 126.199v-4.056h.697c.234-.187.453-.45.657-.789.203-.339.376-.804.519-1.395.142-.59.241-1.354.295-2.29l.275-4.408h6.663v8.882h1.16v4.046h-1.812v-2.504h-6.642v2.514zm2.896-4.056h4.398v-7.299h-3.151l-.163 2.825c-.044.709-.115 1.343-.214 1.903-.098.56-.222 1.054-.371 1.482-.15.424-.316.787-.499 1.089zm19.657-3.67c0 1.123-.211 2.085-.632 2.886-.417.797-.987 1.408-1.71 1.832-.719.424-1.535.637-2.448.637s-1.731-.213-2.453-.637c-.72-.427-1.29-1.04-1.711-1.837-.417-.801-.626-1.761-.626-2.881 0-1.123.209-2.084.626-2.881.421-.801.991-1.413 1.711-1.837.722-.425 1.54-.637 2.453-.637s1.729.212 2.448.637c.723.424 1.293 1.036 1.71 1.837.421.797.632 1.758.632 2.881zm-1.899 0c0-.791-.124-1.457-.372-2-.244-.547-.583-.959-1.018-1.237-.434-.282-.934-.423-1.501-.423s-1.067.141-1.502.423c-.434.278-.775.69-1.023 1.237-.244.543-.366 1.209-.366 2s.122 1.459.366 2.005c.248.543.589.956 1.023 1.237.435.278.935.418 1.502.418s1.067-.14 1.501-.418c.435-.281.774-.694 1.018-1.237.248-.546.372-1.214.372-2.005zm6.317-5.212 2.296 3.817h.081l2.306-3.817h2.153l-3.212 5.212 3.263 5.212h-2.189l-2.321-3.792h-.081l-2.321 3.792h-2.179l3.293-5.212-3.252-5.212zm18.688 5.212c0 1.123-.21 2.085-.631 2.886-.417.797-.987 1.408-1.71 1.832-.719.424-1.535.637-2.448.637s-1.731-.213-2.454-.637c-.719-.427-1.289-1.04-1.71-1.837-.417-.801-.626-1.761-.626-2.881 0-1.123.209-2.084.626-2.881.421-.801.991-1.413 1.71-1.837.723-.425 1.541-.637 2.454-.637s1.729.212 2.448.637c.723.424 1.293 1.036 1.71 1.837.421.797.631 1.758.631 2.881zm-1.898 0c0-.791-.124-1.457-.372-2-.244-.547-.583-.959-1.018-1.237-.434-.282-.935-.423-1.501-.423-.567 0-1.067.141-1.502.423-.434.278-.775.69-1.023 1.237-.244.543-.366 1.209-.366 2s.122 1.459.366 2.005c.248.543.589.956 1.023 1.237.435.278.935.418 1.502.418.566 0 1.067-.14 1.501-.418.435-.281.774-.694 1.018-1.237.248-.546.372-1.214.372-2.005zm4.44 7.726v-4.056h.697c.235-.187.453-.45.657-.789s.377-.804.519-1.395c.143-.59.241-1.354.295-2.29l.275-4.408h6.663v8.882h1.161v4.046h-1.812v-2.504h-6.643v2.514zm2.896-4.056h4.398v-7.299h-3.151l-.163 2.825c-.044.709-.115 1.343-.213 1.903-.099.56-.223 1.054-.372 1.482-.149.424-.315.787-.499 1.089zm11.681 1.542h-2.016l3.67-10.424h2.331l3.675 10.424h-2.015l-2.784-8.286h-.082zm.066-4.087h5.497v1.517h-5.497z" fill="#000"/></g><path d="m406.9 296.694h-363.1041v-87.991l237.5801 31.454s123.429-60.429 125.524-62.457v-.052c.036 0 .036.017 0 .052z" fill="url(#a)" opacity=".4"/><rect fill="#04b34a" height="8.17935" rx="4.08967" width="8.17935" x="403.075" y="173.666"/><path d="m404.917 178.444-114.428 59.533c-4.221 2.196-9.016 3.035-13.731 2.401l-232.9619-31.277" stroke="#04b34a" stroke-width="3.18519"/><path d="m297.67 312.758v-19.396l-7.235 7.261-3.176-3.149 12.705-12.677 12.677 12.677-3.122 3.149-7.261-7.261v19.396z" fill="#04b34a"/><path d="m334.8 284.979v27.798h-5.877v-22.219h-.163l-6.366 3.99v-5.212l6.882-4.357zm11.06 23.998-.149 1.493c-.118 1.194-.344 2.384-.679 3.57-.325 1.194-.669 2.275-1.031 3.244-.353.968-.638 1.728-.855 2.28h-3.746c.135-.534.321-1.28.556-2.24.235-.95.457-2.018.665-3.203s.339-2.393.394-3.624l.068-1.52zm4.42-1.086v-4.628l11.605-18.284h3.991v6.407h-2.362l-7.316 11.578v.217h16.492v4.71zm13.343 4.886v-6.298l.108-2.049v-19.451h5.511v27.798zm27.806-5.212v-1.466c0-1.113.235-2.135.706-3.067.48-.941 1.172-1.692 2.077-2.253.914-.57 2.027-.856 3.339-.856 1.33 0 2.447.281 3.352.842.914.561 1.602 1.312 2.063 2.253.471.932.706 1.959.706 3.081v1.466c0 1.113-.235 2.14-.706 3.081-.47.932-1.162 1.679-2.076 2.24-.914.57-2.027.855-3.339.855-1.331 0-2.448-.285-3.353-.855-.905-.561-1.593-1.308-2.063-2.24-.471-.941-.706-1.968-.706-3.081zm3.95-1.466v1.466c0 .643.154 1.249.461 1.819.317.57.887.855 1.711.855.823 0 1.384-.28 1.683-.841.307-.561.461-1.172.461-1.833v-1.466c0-.66-.145-1.276-.434-1.846-.29-.57-.86-.855-1.71-.855-.815 0-1.38.285-1.697.855s-.475 1.186-.475 1.846zm-18.215-14.442v-1.466c0-1.122.239-2.149.719-3.081.48-.941 1.172-1.692 2.077-2.253.914-.561 2.018-.841 3.312-.841 1.339 0 2.461.28 3.366.841s1.592 1.312 2.063 2.253c.47.932.706 1.959.706 3.081v1.466c0 1.122-.24 2.149-.72 3.082-.47.932-1.162 1.678-2.076 2.239-.905.552-2.018.828-3.339.828s-2.439-.28-3.353-.841c-.905-.571-1.593-1.317-2.063-2.24-.462-.932-.692-1.955-.692-3.068zm3.977-1.466v1.466c0 .661.153 1.272.461 1.833.317.561.873.841 1.67.841.832 0 1.398-.28 1.696-.841.308-.561.462-1.172.462-1.833v-1.466c0-.66-.145-1.275-.435-1.845-.289-.571-.864-.856-1.723-.856-.806 0-1.362.29-1.67.869s-.461 1.19-.461 1.832zm-2.186 22.586 19.111-27.798h3.557l-19.111 27.798z" fill="#000"/><path d="m44.7539 194.548v-1.555l5.5057-8.697h1.2255v2.289h-.7776l-3.9379 6.234v.099h7.5461v1.63zm6.0407 2.489v-2.962l.0124-.709v-9.07h1.8228v12.741zm10.1746-12.741v12.741h-1.9285v-10.813h-.0747l-3.0483 1.991v-1.841l3.179-2.078zm4.9785 10.999-.0933.678c-.0622.498-.168 1.016-.3173 1.555-.1451.543-.2965 1.047-.4541 1.512-.1535.464-.28.833-.3795 1.107h-1.3189c.054-.257.1286-.605.224-1.045.0954-.435.1887-.923.2799-1.462.0913-.539.1597-1.089.2053-1.649l.0623-.696zm5.7188-10.999v12.741h-1.9285v-10.813h-.0747l-3.0483 1.991v-1.841l3.179-2.078z" fill="#cfcfcf"/><path d="m371.856 160.307v-1.555l5.506-8.697h1.225v2.29h-.778l-3.937 6.233v.1h7.546v1.629zm6.041 2.489v-2.961l.012-.71v-9.07h1.823v12.741zm5.511 0v-1.394l4.312-4.466c.46-.486.84-.911 1.138-1.276.303-.369.529-.719.678-1.051.15-.332.224-.684.224-1.058 0-.423-.099-.788-.298-1.095-.2-.311-.471-.549-.815-.715-.345-.17-.732-.255-1.164-.255-.456 0-.854.093-1.194.28s-.602.45-.784.79c-.183.34-.274.738-.274 1.194h-1.835c0-.775.178-1.453.535-2.034.357-.58.846-1.03 1.468-1.35.622-.323 1.329-.485 2.122-.485.8 0 1.505.16 2.115.479.614.315 1.093.747 1.437 1.294.344.543.516 1.157.516 1.841 0 .473-.089.936-.267 1.388-.175.452-.479.956-.915 1.511-.435.552-1.041 1.222-1.816 2.01l-2.532 2.65v.093h5.735v1.649zm13.012-1.742-.093.678c-.063.498-.168 1.016-.318 1.555-.145.544-.296 1.048-.454 1.512-.153.465-.28.834-.379 1.107h-1.319c.054-.257.128-.605.224-1.045.095-.435.188-.922.28-1.462.091-.539.159-1.088.205-1.648l.062-.697zm6.425 1.916c-.78 0-1.481-.149-2.103-.448-.618-.303-1.111-.717-1.481-1.244-.369-.527-.566-1.128-.591-1.804h1.867c.045.547.288.997.728 1.35.439.352.966.529 1.58.529.489 0 .923-.112 1.3-.336.382-.228.68-.542.896-.94.22-.398.33-.852.33-1.362 0-.519-.112-.981-.336-1.387-.224-.407-.533-.726-.927-.958-.39-.233-.838-.351-1.344-.355-.386 0-.774.066-1.163.199-.39.133-.705.307-.946.523l-1.761-.262.716-6.42h7.005v1.649h-5.406l-.405 3.564h.075c.249-.24.579-.441.989-.603.415-.162.859-.243 1.331-.243.776 0 1.466.185 2.072.554.61.369 1.089.873 1.437 1.512.353.634.527 1.364.523 2.19.004.825-.183 1.561-.56 2.208-.374.647-.892 1.157-1.556 1.53-.659.37-1.416.554-2.27.554z" fill="#cfcfcf"/><rect fill="#f7f7f7" height="234.907" rx="15.9259" width="796.296" x="31.8516" y="347.981"/><g opacity=".6"><path d="m44.8241 372.926v-10.424h6.7035v1.583h-4.8152v2.443h2.0106c.7974 0 1.4812.13 2.0512.392.5735.258 1.0129.622 1.3183 1.094s.4581 1.026.4581 1.664c0 .642-.1527 1.207-.4581 1.695-.3054.486-.7448.866-1.3183 1.14-.57.275-1.2538.413-2.0512.413zm1.8883-1.548h2.0106c.4208 0 .777-.079 1.0689-.239.2918-.159.5124-.37.6617-.631.1527-.261.229-.545.229-.85 0-.441-.1696-.816-.509-1.125-.3359-.312-.8195-.468-1.4506-.468h-2.0106zm18.2379-3.664c0 1.123-.2104 2.085-.6312 2.886-.4173.797-.9874 1.408-1.7102 1.832-.7194.424-1.5355.636-2.4483.636s-1.7306-.212-2.4533-.636c-.7194-.428-1.2895-1.04-1.7103-1.837-.4173-.801-.626-1.762-.626-2.881 0-1.124.2087-2.084.626-2.881.4208-.801.9909-1.414 1.7103-1.838.7227-.424 1.5405-.636 2.4533-.636s1.7289.212 2.4483.636c.7228.424 1.2929 1.037 1.7102 1.838.4208.797.6312 1.757.6312 2.881zm-1.8986 0c0-.791-.1238-1.458-.3715-2.001-.2444-.546-.5837-.958-1.018-1.237-.4344-.281-.9349-.422-1.5016-.422-.5666 0-1.0672.141-1.5015.422-.4343.279-.7754.691-1.0231 1.237-.2443.543-.3665 1.21-.3665 2.001 0 .79.1222 1.459.3665 2.005.2477.543.5888.955 1.0231 1.237.4343.278.9349.417 1.5015.417.5667 0 1.0672-.139 1.5016-.417.4343-.282.7736-.694 1.018-1.237.2477-.546.3715-1.215.3715-2.005zm4.4403 5.212v-1.568l.2952-.015c.4004-.024.7177-.168.9518-.433.2375-.265.4123-.69.5243-1.277.1153-.587.1917-1.375.229-2.362l.1731-4.769h6.8307v10.424h-1.8477v-8.872h-3.2219l-.1629 3.802c-.0475 1.14-.173 2.085-.3766 2.835-.2002.75-.5294 1.31-.9875 1.68-.4547.37-1.0875.555-1.8985.555zm12.4963 0v-10.424h6.7799v1.583h-4.8915v2.83h4.5403v1.583h-4.5403v2.845h4.9322v1.583zm10.1397 0v-10.424h6.7799v1.583h-4.8915v2.83h4.5403v1.583h-4.5403v2.845h4.9322v1.583zm18.844.142c-.499-.003-.986-.09-1.461-.259-.475-.173-.902-.453-1.282-.84-.38-.39-.682-.908-.906-1.553-.224-.648-.335-1.45-.331-2.407 0-.893.095-1.688.285-2.387s.463-1.29.819-1.772c.357-.485.786-.855 1.288-1.109.506-.255 1.071-.382 1.695-.382.655 0 1.235.129 1.741.387.509.258.919.611 1.232 1.059.312.444.505.946.58 1.506h-1.858c-.095-.4-.29-.719-.585-.957-.292-.241-.662-.361-1.11-.361-.723 0-1.279.314-1.67.942-.386.627-.581 1.489-.585 2.585h.071c.167-.298.382-.555.647-.768.264-.214.563-.379.896-.494.336-.119.69-.178 1.063-.178.611 0 1.159.146 1.645.438.488.291.875.693 1.16 1.206.285.509.426 1.092.422 1.751.004.685-.152 1.301-.468 1.847-.315.543-.755.971-1.318 1.283s-1.22.467-1.97.463zm-.01-1.527c.37 0 .701-.09.992-.269.292-.18.523-.423.693-.728.169-.306.252-.648.249-1.028.003-.374-.078-.711-.244-1.013-.163-.302-.389-.542-.677-.718-.289-.177-.618-.265-.988-.265-.274 0-.531.053-.768.158-.238.105-.445.251-.621.438-.177.183-.316.397-.418.641-.098.241-.149.499-.152.774.003.363.088.697.254 1.002.167.306.396.55.687.733.292.184.623.275.993.275zm10.773 1.583c-.838 0-1.557-.212-2.158-.636-.597-.428-1.057-1.043-1.379-1.848-.319-.807-.479-1.779-.479-2.916.004-1.137.165-2.104.484-2.901.322-.801.782-1.412 1.379-1.833.601-.421 1.319-.631 2.153-.631.835 0 1.553.21 2.153.631.601.421 1.061 1.032 1.38 1.833.322.8.483 1.767.483 2.901 0 1.14-.161 2.114-.483 2.921-.319.805-.779 1.419-1.38 1.843-.597.424-1.315.636-2.153.636zm0-1.593c.652 0 1.166-.321 1.543-.962.38-.645.57-1.593.57-2.845 0-.828-.087-1.524-.26-2.087s-.417-.987-.733-1.273c-.315-.288-.689-.432-1.12-.432-.648 0-1.16.322-1.537.967-.376.641-.567 1.583-.57 2.825-.003.831.08 1.53.249 2.097.174.567.418.994.733 1.283.316.285.691.427 1.125.427zm12.714-.56v-.549c0-.404.085-.776.255-1.115.173-.34.424-.613.753-.82s.728-.31 1.196-.31c.482 0 .886.103 1.212.31.325.204.571.475.738.815.169.339.254.712.254 1.12v.549c0 .404-.085.776-.254 1.115-.17.339-.419.612-.749.819-.325.207-.726.311-1.201.311s-.877-.104-1.206-.311-.579-.48-.748-.819c-.167-.339-.25-.711-.25-1.115zm1.329-.549v.549c0 .268.064.514.193.738s.356.336.682.336c.329 0 .555-.11.677-.331.126-.224.189-.471.189-.743v-.549c0-.272-.06-.52-.179-.744-.118-.227-.347-.341-.687-.341-.319 0-.544.114-.677.341-.132.224-.198.472-.198.744zm-6.627-5.416v-.55c0-.407.086-.78.259-1.12.173-.339.424-.611.754-.814.329-.207.727-.311 1.196-.311.478 0 .88.104 1.206.311.329.203.577.475.743.814.166.34.25.713.25 1.12v.55c0 .407-.085.78-.255 1.12-.166.336-.414.605-.743.809-.329.203-.73.305-1.201.305-.479 0-.883-.102-1.212-.305-.325-.204-.573-.475-.743-.814-.17-.34-.254-.711-.254-1.115zm1.338-.55v.55c0 .271.063.519.189.743.129.22.356.331.682.331.325 0 .549-.111.672-.331.125-.224.188-.472.188-.743v-.55c0-.271-.059-.519-.178-.743-.119-.227-.346-.341-.682-.341-.323 0-.548.114-.677.341s-.194.475-.194.743zm-.758 8.47 7.167-10.424h1.272l-7.167 10.424z" fill="#f00"/><path d="m144.816 375.44v-4.056h.698c.234-.187.453-.45.656-.789.204-.34.377-.805.519-1.395.143-.591.241-1.354.296-2.291l.275-4.407h6.662v8.882h1.161v4.046h-1.812v-2.504h-6.643v2.514zm2.897-4.056h4.397v-7.299h-3.15l-.163 2.824c-.044.71-.116 1.344-.214 1.904s-.222 1.054-.372 1.481c-.149.424-.315.788-.498 1.09zm19.656-3.67c0 1.123-.21 2.085-.631 2.886-.417.797-.987 1.408-1.71 1.832-.72.424-1.536.636-2.448.636-.913 0-1.731-.212-2.454-.636-.719-.428-1.289-1.04-1.71-1.837-.417-.801-.626-1.762-.626-2.881 0-1.124.209-2.084.626-2.881.421-.801.991-1.414 1.71-1.838.723-.424 1.541-.636 2.454-.636.912 0 1.728.212 2.448.636.723.424 1.293 1.037 1.71 1.838.421.797.631 1.757.631 2.881zm-1.898 0c0-.791-.124-1.458-.372-2.001-.244-.546-.584-.958-1.018-1.237-.434-.281-.935-.422-1.501-.422-.567 0-1.068.141-1.502.422-.434.279-.775.691-1.023 1.237-.244.543-.367 1.21-.367 2.001 0 .79.123 1.459.367 2.005.248.543.589.955 1.023 1.237.434.278.935.417 1.502.417.566 0 1.067-.139 1.501-.417.434-.282.774-.694 1.018-1.237.248-.546.372-1.215.372-2.005zm6.317-5.212 2.295 3.817h.082l2.306-3.817h2.153l-3.212 5.212 3.263 5.212h-2.189l-2.321-3.792h-.082l-2.321 3.792h-2.178l3.293-5.212-3.252-5.212zm18.688 5.212c0 1.123-.21 2.085-.631 2.886-.417.797-.987 1.408-1.71 1.832-.72.424-1.536.636-2.449.636-.912 0-1.73-.212-2.453-.636-.719-.428-1.289-1.04-1.71-1.837-.417-.801-.626-1.762-.626-2.881 0-1.124.209-2.084.626-2.881.421-.801.991-1.414 1.71-1.838.723-.424 1.541-.636 2.453-.636.913 0 1.729.212 2.449.636.723.424 1.293 1.037 1.71 1.838.421.797.631 1.757.631 2.881zm-1.898 0c0-.791-.124-1.458-.372-2.001-.244-.546-.584-.958-1.018-1.237-.434-.281-.935-.422-1.502-.422-.566 0-1.067.141-1.501.422-.434.279-.775.691-1.023 1.237-.244.543-.367 1.21-.367 2.001 0 .79.123 1.459.367 2.005.248.543.589.955 1.023 1.237.434.278.935.417 1.501.417.567 0 1.068-.139 1.502-.417.434-.282.774-.694 1.018-1.237.248-.546.372-1.215.372-2.005zm4.44 7.726v-4.056h.697c.234-.187.453-.45.657-.789.203-.34.376-.805.519-1.395.142-.591.241-1.354.295-2.291l.275-4.407h6.663v8.882h1.16v4.046h-1.812v-2.504h-6.642v2.514zm2.896-4.056h4.398v-7.299h-3.151l-.163 2.824c-.044.71-.115 1.344-.214 1.904-.098.56-.222 1.054-.371 1.481-.149.424-.316.788-.499 1.09zm11.681 1.542h-2.016l3.67-10.424h2.331l3.675 10.424h-2.016l-2.784-8.287h-.081zm.066-4.087h5.497v1.516h-5.497z" fill="#000"/></g><path d="m812.194 545.935h-768.3981v-103.121l388.4191 48.176s375.508-3.499 379.979-3.581v-.002c.053 0 .053.001 0 .002z" fill="url(#c)" opacity=".4"/><rect fill="#cacaca" height="8.17935" rx="4.08967" width="8.17935" x="808.39" y="482.629"/><path d="m811.027 487.407-376.179 3.185-391.0522-48.175" stroke="#cacaca" stroke-width="3.18519"/><path d="m696.984 534.038v19.396l-7.234-7.262-3.176 3.149 12.704 12.678 12.678-12.678-3.122-3.149-7.262 7.262v-19.396z" fill="#cacaca"/><path d="m732.426 562.629c-2.335-.009-4.344-.584-6.027-1.724-1.674-1.14-2.963-2.791-3.868-4.954-.896-2.163-1.339-4.764-1.33-7.805 0-3.031.447-5.614 1.343-7.75.905-2.135 2.195-3.76 3.869-4.873 1.683-1.122 3.687-1.683 6.013-1.683 2.325 0 4.325.561 5.999 1.683 1.683 1.122 2.977 2.751 3.882 4.887.905 2.126 1.353 4.705 1.344 7.736 0 3.05-.453 5.656-1.358 7.819-.895 2.162-2.18 3.814-3.854 4.954s-3.679 1.71-6.013 1.71zm0-4.873c1.592 0 2.864-.801 3.814-2.402.95-1.602 1.42-4.004 1.411-7.208 0-2.108-.217-3.863-.651-5.266-.425-1.403-1.032-2.457-1.819-3.163-.778-.705-1.697-1.058-2.755-1.058-1.584 0-2.851.792-3.801 2.375-.95 1.584-1.43 3.954-1.439 7.112 0 2.136.213 3.919.638 5.348.435 1.421 1.045 2.489 1.833 3.204.787.705 1.71 1.058 2.769 1.058zm20.242.462-.149 1.493c-.118 1.194-.344 2.384-.679 3.57-.325 1.194-.669 2.275-1.031 3.244-.353.968-.638 1.728-.855 2.28h-3.746c.135-.534.321-1.28.556-2.24.235-.95.457-2.018.665-3.203s.339-2.393.394-3.624l.068-1.52zm14.77 4.18c-1.919 0-3.629-.353-5.131-1.058-1.493-.706-2.678-1.679-3.556-2.919-.878-1.239-1.335-2.66-1.371-4.262h5.701c.063 1.077.516 1.95 1.357 2.62.842.67 1.842 1.004 3 1.004.923 0 1.737-.203 2.443-.61.715-.417 1.271-.991 1.669-1.724.408-.742.611-1.593.611-2.552 0-.977-.208-1.837-.624-2.579-.407-.742-.973-1.321-1.697-1.737s-1.552-.629-2.484-.638c-.814 0-1.606.167-2.375.502-.76.335-1.353.792-1.778 1.371l-5.226-.937 1.317-14.659h16.994v4.805h-12.149l-.719 6.963h.163c.489-.687 1.226-1.257 2.212-1.71.987-.452 2.091-.679 3.312-.679 1.674 0 3.167.394 4.479 1.181 1.313.788 2.349 1.869 3.109 3.244.76 1.367 1.135 2.941 1.126 4.724.009 1.873-.425 3.538-1.303 4.995-.868 1.448-2.085 2.588-3.651 3.42-1.556.824-3.366 1.235-5.429 1.235zm29.306-5.592v-1.466c0-1.113.235-2.135.706-3.067.479-.941 1.172-1.692 2.077-2.253.914-.571 2.027-.856 3.339-.856 1.33 0 2.447.281 3.352.842.914.561 1.602 1.312 2.063 2.253.471.932.706 1.959.706 3.081v1.466c0 1.113-.235 2.14-.706 3.081-.47.932-1.162 1.679-2.076 2.24-.914.57-2.027.855-3.339.855-1.331 0-2.448-.285-3.353-.855-.905-.561-1.593-1.308-2.063-2.24-.471-.941-.706-1.968-.706-3.081zm3.95-1.466v1.466c0 .643.154 1.249.461 1.819.317.57.887.855 1.711.855.823 0 1.384-.28 1.683-.841.307-.561.461-1.172.461-1.833v-1.466c0-.66-.145-1.276-.434-1.846-.29-.57-.86-.855-1.71-.855-.815 0-1.38.285-1.697.855s-.475 1.186-.475 1.846zm-18.215-14.442v-1.466c0-1.122.239-2.149.719-3.081.48-.941 1.172-1.692 2.077-2.253.914-.561 2.018-.841 3.312-.841 1.339 0 2.461.28 3.366.841s1.592 1.312 2.063 2.253c.47.932.706 1.959.706 3.081v1.466c0 1.122-.24 2.149-.72 3.081-.47.933-1.162 1.679-2.076 2.24-.905.552-2.018.828-3.339.828-1.322 0-2.439-.28-3.353-.842-.905-.57-1.593-1.316-2.063-2.239-.462-.932-.692-1.955-.692-3.068zm3.977-1.466v1.466c0 .661.153 1.272.461 1.833.317.561.873.841 1.67.841.832 0 1.398-.28 1.696-.841.308-.561.462-1.172.462-1.833v-1.466c0-.66-.145-1.275-.435-1.846-.289-.57-.864-.855-1.723-.855-.806 0-1.362.29-1.67.869s-.461 1.19-.461 1.832zm-2.186 22.586 19.111-27.798h3.557l-19.112 27.798z" fill="#000"/><path d="m49.8552 418.407v12.741h-1.9285v-10.812h-.0747l-3.0483 1.99v-1.841l3.179-2.078zm7.4747 12.915c-.7797 0-1.4806-.149-2.1027-.448-.618-.303-1.1115-.717-1.4806-1.244s-.5661-1.128-.591-1.804h1.8663c.0456.547.2882.997.7279 1.35.4396.352.9663.529 1.5801.529.4894 0 .9228-.112 1.3002-.336.3816-.228.6802-.542.8958-.94.2199-.398.3298-.852.3298-1.362 0-.518-.112-.981-.336-1.387-.2239-.407-.5329-.726-.9269-.958-.3899-.233-.8378-.351-1.3438-.355-.3857 0-.7735.066-1.1633.199-.3899.133-.7051.307-.9456.523l-1.7606-.262.7155-6.42h7.0049v1.649h-5.4061l-.4044 3.564h.0746c.2489-.24.5786-.441.9892-.603.4147-.162.8585-.243 1.3313-.243.7756 0 1.4661.185 2.0716.554.6097.369 1.0887.873 1.4371 1.512.3525.634.5267 1.364.5226 2.19.0041.825-.1825 1.561-.5599 2.208-.3733.647-.8917 1.157-1.5553 1.53-.6594.37-1.4163.554-2.2707.554zm8.4638-1.916-.0933.678c-.0622.498-.1679 1.016-.3172 1.555-.1452.544-.2966 1.048-.4542 1.512-.1534.465-.2799.834-.3795 1.107h-1.3188c.0539-.257.1285-.605.2239-1.045.0954-.435.1887-.922.28-1.462.0912-.539.1596-1.088.2053-1.648l.0622-.697zm6.3021 1.916c-.8917 0-1.6797-.153-2.364-.46-.6802-.307-1.2131-.73-1.5989-1.269-.3857-.539-.5764-1.153-.5723-1.842-.0041-.539.1058-1.035.3297-1.487.2281-.456.5371-.835.927-1.138.3898-.307.8253-.502 1.3064-.585v-.074c-.6346-.154-1.1426-.494-1.5242-1.021-.3815-.526-.5702-1.132-.5661-1.816-.0041-.651.168-1.232.5164-1.742.3525-.514.8357-.919 1.4495-1.213.6138-.295 1.3126-.442 2.0965-.442.7755 0 1.4681.149 2.0778.448.6138.294 1.097.699 1.4495 1.213.3525.51.5309 1.089.535 1.736-.0041.684-.1991 1.29-.5848 1.816-.3857.527-.8875.867-1.5055 1.021v.074c.477.083.9062.278 1.2878.585.3857.303.6926.682.9207 1.138.2323.452.3505.948.3546 1.487-.0041.689-.1991 1.303-.5848 1.842s-.9207.962-1.605 1.269c-.6802.307-1.4619.46-2.3453.46zm0-1.574c.5267 0 .9829-.087 1.3686-.261.3857-.178.6843-.425.8958-.74.2115-.32.3194-.693.3235-1.12-.0041-.444-.1202-.836-.3484-1.176-.2239-.34-.5287-.608-.9144-.802-.3858-.195-.8274-.293-1.3251-.293-.5019 0-.9477.098-1.3376.293-.3898.194-.6967.462-.9207.802-.2239.34-.3338.732-.3297 1.176-.0041.427.0975.8.3048 1.12.2116.315.5122.562.9021.74.3898.174.8502.261 1.3811.261zm0-5.928c.423 0 .7983-.085 1.126-.256.3276-.17.5848-.406.7714-.709.1908-.302.2882-.657.2924-1.064-.0042-.398-.0996-.746-.2862-1.045-.1825-.298-.4375-.528-.7652-.69-.3276-.166-.7071-.249-1.1384-.249-.4397 0-.8254.083-1.1572.249-.3276.162-.5827.392-.7651.69-.1825.299-.2717.647-.2675 1.045-.0042.407.087.762.2737 1.064.1866.303.4437.539.7714.709.3318.171.7133.256 1.1447.256z" fill="#cfcfcf"/><path d="m785.81 461.407v12.741h-1.928v-10.812h-.075l-3.048 1.99v-1.841l3.179-2.078zm7.475 12.915c-.78 0-1.481-.149-2.103-.448-.618-.303-1.111-.717-1.48-1.244s-.566-1.128-.591-1.804h1.866c.046.547.288.997.728 1.35.439.352.966.529 1.58.529.489 0 .923-.112 1.3-.336.382-.228.68-.542.896-.94.22-.398.33-.852.33-1.362 0-.518-.112-.981-.336-1.387-.224-.407-.533-.726-.927-.958-.39-.233-.838-.351-1.344-.355-.386 0-.773.066-1.163.199s-.705.307-.946.523l-1.76-.262.715-6.42h7.005v1.649h-5.406l-.405 3.564h.075c.249-.24.579-.441.989-.603.415-.162.859-.243 1.332-.243.775 0 1.466.185 2.071.554.61.369 1.089.873 1.437 1.512.353.634.527 1.364.523 2.19.004.825-.183 1.561-.56 2.208-.373.647-.892 1.157-1.555 1.53-.66.37-1.417.554-2.271.554zm8.464-1.916-.093.678c-.063.498-.168 1.016-.318 1.555-.145.544-.296 1.048-.454 1.512-.153.465-.28.834-.379 1.107h-1.319c.054-.257.128-.605.224-1.045.095-.435.188-.922.28-1.462.091-.539.159-1.088.205-1.648l.062-.697zm6.398 1.916c-.854 0-1.617-.147-2.289-.442-.668-.294-1.197-.703-1.586-1.225-.386-.527-.594-1.136-.623-1.829h1.954c.025.377.151.705.379.983.233.274.535.485.909.634.373.15.788.224 1.244.224.502 0 .945-.087 1.331-.261.39-.174.695-.417.915-.728.219-.315.329-.678.329-1.088 0-.428-.11-.803-.329-1.127-.216-.327-.533-.584-.952-.771-.415-.187-.917-.28-1.506-.28h-1.076v-1.568h1.076c.473 0 .888-.085 1.245-.255.36-.17.642-.406.846-.709.203-.307.304-.665.304-1.076 0-.394-.089-.736-.267-1.027-.174-.294-.423-.524-.747-.69-.319-.166-.696-.249-1.132-.249-.415 0-.802.077-1.163.23-.357.15-.647.365-.871.647-.224.278-.344.612-.361 1.002h-1.86c.021-.689.224-1.294.61-1.817.389-.522.904-.931 1.542-1.225.639-.295 1.348-.442 2.128-.442.817 0 1.522.16 2.115.479.597.315 1.058.736 1.381 1.263.328.527.49 1.103.486 1.729.004.714-.195 1.319-.598 1.817-.398.498-.929.831-1.592 1.002v.099c.846.129 1.501.465 1.966 1.008.468.543.7 1.217.696 2.022.004.701-.19 1.329-.584 1.885-.39.555-.923.993-1.599 1.312-.676.316-1.45.473-2.321.473z" fill="#cfcfcf"/><rect fill="#f7f7f7" height="234.907" rx="15.9259" width="390.981" x="437.167" y="98.7405"/><g opacity=".6"><path d="m453.778 123.828c-.733 0-1.384-.126-1.954-.377-.567-.251-1.015-.601-1.344-1.049s-.504-.965-.524-1.552h1.914c.017.282.11.528.28.738.169.207.395.368.677.484.281.115.597.173.946.173.374 0 .704-.065.993-.194.288-.132.514-.315.677-.55.163-.234.242-.503.239-.809.003-.315-.078-.594-.244-.835-.167-.241-.408-.429-.723-.565-.312-.135-.689-.203-1.13-.203h-.921v-1.456h.921c.363 0 .68-.063.952-.188.275-.126.49-.302.646-.53.156-.23.233-.497.229-.799.004-.295-.063-.551-.198-.768-.133-.221-.321-.392-.565-.514-.241-.123-.525-.184-.85-.184-.319 0-.614.058-.886.173-.271.116-.49.28-.657.494-.166.211-.254.462-.264.753h-1.817c.013-.583.181-1.096.504-1.537.325-.444.76-.79 1.303-1.038.543-.251 1.152-.377 1.827-.377.696 0 1.3.131 1.812.392.516.258.914.606 1.196 1.044.282.437.423.921.423 1.45.003.587-.17 1.079-.52 1.476-.346.397-.8.657-1.364.779v.082c.733.101 1.295.373 1.685.814.394.438.589.982.585 1.634 0 .584-.166 1.106-.498 1.568-.33.458-.784.817-1.365 1.079-.576.261-1.238.392-1.985.392zm10.882.056c-.838 0-1.558-.213-2.158-.637-.597-.427-1.057-1.043-1.38-1.847-.319-.808-.478-1.78-.478-2.917.003-1.137.165-2.104.483-2.901.323-.801.783-1.412 1.38-1.833.6-.42 1.318-.631 2.153-.631s1.552.211 2.153.631c.601.421 1.06 1.032 1.379 1.833.323.801.484 1.768.484 2.901 0 1.14-.161 2.114-.484 2.922-.319.804-.778 1.418-1.379 1.842-.597.424-1.315.637-2.153.637zm0-1.594c.651 0 1.166-.32 1.542-.962.38-.644.57-1.593.57-2.845 0-.828-.086-1.523-.259-2.087-.173-.563-.418-.987-.733-1.272-.316-.289-.689-.433-1.12-.433-.648 0-1.161.322-1.537.967-.377.642-.567 1.583-.57 2.825-.004.831.079 1.53.249 2.097.173.567.417.994.733 1.283.316.285.691.427 1.125.427zm11.899-4.575v1.516h-4.692v-1.516zm7.169 6.113c-.499-.004-.986-.09-1.461-.26-.475-.173-.903-.453-1.283-.84-.38-.39-.682-.908-.906-1.552-.224-.648-.334-1.451-.33-2.408 0-.892.095-1.688.285-2.387s.463-1.289.819-1.771c.356-.486.786-.855 1.288-1.11.505-.254 1.07-.382 1.695-.382.655 0 1.235.129 1.741.387.509.258.919.611 1.231 1.059.313.444.506.947.581 1.506h-1.858c-.095-.4-.29-.719-.586-.956-.291-.241-.661-.362-1.109-.362-.723 0-1.279.314-1.67.942-.387.628-.582 1.489-.585 2.586h.071c.166-.299.382-.555.647-.769.264-.214.563-.378.895-.494.336-.119.691-.178 1.064-.178.611 0 1.159.146 1.644.438.489.292.876.694 1.161 1.206.285.509.426 1.093.422 1.751.004.686-.152 1.301-.468 1.848-.316.543-.755.97-1.318 1.282-.564.313-1.22.467-1.97.464zm-.01-1.527c.37 0 .7-.09.992-.27s.523-.423.693-.728c.169-.305.252-.648.249-1.028.003-.373-.078-.711-.244-1.013-.163-.302-.389-.541-.677-.718-.289-.176-.618-.264-.988-.264-.275 0-.531.052-.768.157-.238.106-.445.251-.621.438-.177.183-.316.397-.418.641-.098.241-.149.499-.152.774.003.363.088.697.254 1.003.166.305.395.549.687.733.292.183.623.275.993.275zm10.773 1.583c-.838 0-1.557-.213-2.158-.637-.597-.427-1.057-1.043-1.379-1.847-.319-.808-.479-1.78-.479-2.917.004-1.137.165-2.104.484-2.901.322-.801.782-1.412 1.379-1.833.601-.42 1.318-.631 2.153-.631s1.553.211 2.153.631c.601.421 1.061 1.032 1.38 1.833.322.801.483 1.768.483 2.901 0 1.14-.161 2.114-.483 2.922-.319.804-.779 1.418-1.38 1.842-.597.424-1.315.637-2.153.637zm0-1.594c.652 0 1.166-.32 1.542-.962.38-.644.57-1.593.57-2.845 0-.828-.086-1.523-.259-2.087-.173-.563-.417-.987-.733-1.272-.316-.289-.689-.433-1.12-.433-.648 0-1.16.322-1.537.967-.377.642-.567 1.583-.57 2.825-.003.831.08 1.53.249 2.097.173.567.418.994.733 1.283.316.285.691.427 1.125.427zm12.714-.559v-.55c0-.404.085-.776.255-1.115.173-.339.424-.612.753-.819s.728-.311 1.196-.311c.482 0 .886.104 1.211.311.326.203.572.475.739.814.169.339.254.713.254 1.12v.55c0 .403-.085.775-.254 1.114-.17.34-.42.613-.749.82-.325.207-.726.31-1.201.31s-.877-.103-1.206-.31-.579-.48-.748-.82c-.167-.339-.25-.711-.25-1.114zm1.329-.55v.55c0 .268.064.514.193.738s.356.335.682.335c.329 0 .555-.11.677-.33.126-.224.188-.472.188-.743v-.55c0-.272-.059-.519-.178-.743-.119-.228-.348-.341-.687-.341-.319 0-.545.113-.677.341-.132.224-.198.471-.198.743zm-6.628-5.416v-.55c0-.407.087-.78.26-1.119.173-.34.424-.611.753-.815.33-.207.728-.31 1.197-.31.478 0 .88.103 1.206.31.329.204.577.475.743.815.166.339.249.712.249 1.119v.55c0 .407-.084.781-.254 1.12-.166.336-.414.606-.743.809-.329.204-.73.306-1.201.306-.479 0-.883-.102-1.212-.306-.326-.203-.573-.475-.743-.814-.17-.34-.255-.711-.255-1.115zm1.339-.55v.55c0 .272.063.519.188.743.129.221.357.331.683.331.325 0 .549-.11.671-.331.126-.224.189-.471.189-.743v-.55c0-.271-.06-.519-.178-.743-.119-.227-.347-.341-.682-.341-.323 0-.549.114-.677.341-.129.228-.194.475-.194.743zm-.758 8.47 7.166-10.424h1.273l-7.167 10.424z" fill="#f00"/><path d="m519.572 126.199v-4.056h.698c.234-.187.453-.45.656-.789.204-.339.377-.804.519-1.395.143-.59.241-1.354.296-2.29l.274-4.408h6.663v8.882h1.161v4.046h-1.812v-2.504h-6.643v2.514zm2.896-4.056h4.398v-7.299h-3.151l-.162 2.825c-.045.709-.116 1.343-.214 1.903-.099.56-.222 1.054-.372 1.482-.149.424-.315.787-.499 1.089zm19.657-3.67c0 1.123-.21 2.085-.631 2.886-.417.797-.988 1.408-1.71 1.832-.72.424-1.536.637-2.449.637-.912 0-1.73-.213-2.453-.637-.719-.427-1.289-1.04-1.71-1.837-.418-.801-.626-1.761-.626-2.881 0-1.123.208-2.084.626-2.881.421-.801.991-1.413 1.71-1.837.723-.425 1.541-.637 2.453-.637.913 0 1.729.212 2.449.637.722.424 1.293 1.036 1.71 1.837.421.797.631 1.758.631 2.881zm-1.898 0c0-.791-.124-1.457-.372-2-.244-.547-.584-.959-1.018-1.237-.434-.282-.935-.423-1.502-.423-.566 0-1.067.141-1.501.423-.434.278-.776.69-1.023 1.237-.245.543-.367 1.209-.367 2s.122 1.459.367 2.005c.247.543.589.956 1.023 1.237.434.278.935.418 1.501.418.567 0 1.068-.14 1.502-.418.434-.281.774-.694 1.018-1.237.248-.546.372-1.214.372-2.005zm6.317-5.212 2.295 3.817h.082l2.305-3.817h2.153l-3.211 5.212 3.262 5.212h-2.188l-2.321-3.792h-.082l-2.321 3.792h-2.178l3.293-5.212-3.253-5.212zm18.688 5.212c0 1.123-.21 2.085-.631 2.886-.418.797-.988 1.408-1.71 1.832-.72.424-1.536.637-2.449.637-.912 0-1.73-.213-2.453-.637-.719-.427-1.29-1.04-1.71-1.837-.418-.801-.626-1.761-.626-2.881 0-1.123.208-2.084.626-2.881.42-.801.991-1.413 1.71-1.837.723-.425 1.541-.637 2.453-.637.913 0 1.729.212 2.449.637.722.424 1.292 1.036 1.71 1.837.421.797.631 1.758.631 2.881zm-1.899 0c0-.791-.123-1.457-.371-2-.244-.547-.584-.959-1.018-1.237-.434-.282-.935-.423-1.502-.423-.566 0-1.067.141-1.501.423-.435.278-.776.69-1.023 1.237-.245.543-.367 1.209-.367 2s.122 1.459.367 2.005c.247.543.588.956 1.023 1.237.434.278.935.418 1.501.418.567 0 1.068-.14 1.502-.418.434-.281.774-.694 1.018-1.237.248-.546.371-1.214.371-2.005zm4.441 7.726v-4.056h.697c.234-.187.453-.45.657-.789.203-.339.376-.804.519-1.395.142-.59.241-1.354.295-2.29l.275-4.408h6.663v8.882h1.16v4.046h-1.812v-2.504h-6.642v2.514zm2.896-4.056h4.398v-7.299h-3.151l-.163 2.825c-.044.709-.115 1.343-.214 1.903-.098.56-.222 1.054-.371 1.482-.15.424-.316.787-.499 1.089zm11.681 1.542h-2.016l3.67-10.424h2.331l3.675 10.424h-2.016l-2.784-8.286h-.081zm.066-4.087h5.497v1.517h-5.497z" fill="#000"/></g><path d="m449.111 296.694h363.104v-58.528h-244.854l-118.25-44.593z" fill="url(#d)" opacity=".4"/><rect fill="#cacaca" height="8.17935" rx="4.08967" width="8.17935" x="808.39" y="233.388"/><path d="m811.027 238.166h-240.576c-2.832 0-5.641-.521-8.285-1.537l-113.055-43.453" stroke="#cacaca" stroke-width="3.18519"/><path d="m695.984 284.797v19.396l-7.234-7.262-3.176 3.149 12.704 12.678 12.678-12.678-3.122-3.149-7.262 7.262v-19.396z" fill="#cacaca"/><path d="m732.127 313.388c-2.335-.009-4.343-.584-6.026-1.724-1.675-1.14-2.964-2.791-3.869-4.954-.896-2.163-1.339-4.764-1.33-7.805 0-3.031.448-5.614 1.344-7.75.905-2.135 2.194-3.76 3.868-4.873 1.683-1.122 3.687-1.683 6.013-1.683s4.325.561 5.999 1.683c1.683 1.122 2.977 2.751 3.882 4.887.905 2.126 1.353 4.705 1.344 7.736 0 3.05-.452 5.656-1.357 7.819-.896 2.162-2.181 3.814-3.855 4.954s-3.678 1.71-6.013 1.71zm0-4.873c1.593 0 2.864-.8 3.814-2.402s1.421-4.004 1.412-7.208c0-2.108-.217-3.863-.652-5.266-.425-1.402-1.031-2.457-1.819-3.162-.778-.706-1.696-1.059-2.755-1.059-1.584 0-2.85.792-3.8 2.375-.951 1.584-1.43 3.954-1.439 7.112 0 2.136.212 3.919.638 5.348.434 1.421 1.045 2.489 1.832 3.204.787.705 1.71 1.058 2.769 1.058zm20.243.462-.15 1.493c-.117 1.194-.343 2.384-.678 3.57-.326 1.194-.67 2.275-1.032 3.244-.353.968-.638 1.728-.855 2.28h-3.746c.136-.534.321-1.28.556-2.24.236-.95.457-2.018.666-3.203.208-1.185.339-2.393.393-3.624l.068-1.52zm14.376-24.378c1.429 0 2.805.24 4.126.72 1.33.479 2.515 1.244 3.556 2.294 1.05 1.049 1.878 2.443 2.484 4.18.615 1.728.927 3.85.936 6.366 0 2.362-.266 4.47-.8 6.325-.525 1.846-1.281 3.416-2.267 4.71s-2.176 2.28-3.57 2.959c-1.393.67-2.95 1.004-4.669 1.004-1.855 0-3.493-.357-4.914-1.072-1.42-.724-2.565-1.706-3.434-2.945-.859-1.249-1.38-2.652-1.561-4.208h5.796c.226 1.013.702 1.801 1.425 2.362.724.552 1.62.828 2.688.828 1.81 0 3.185-.788 4.126-2.362.941-1.584 1.416-3.751 1.425-6.502h-.19c-.416.815-.977 1.516-1.683 2.104-.706.579-1.515 1.027-2.429 1.344-.905.317-1.869.475-2.891.475-1.638 0-3.1-.385-4.385-1.154s-2.298-1.828-3.04-3.176-1.113-2.886-1.113-4.615c-.009-1.864.421-3.524 1.289-4.981.869-1.457 2.082-2.597 3.638-3.421 1.566-.832 3.384-1.244 5.457-1.235zm.04 4.615c-.914 0-1.728.217-2.443.652-.706.434-1.267 1.018-1.683 1.751-.407.733-.606 1.552-.597 2.456 0 .914.199 1.738.597 2.471.407.724.959 1.303 1.656 1.737.706.425 1.511.638 2.416.638.679 0 1.308-.127 1.887-.38s1.081-.602 1.506-1.045c.435-.453.774-.973 1.018-1.561.245-.588.367-1.213.367-1.873-.009-.878-.217-1.683-.625-2.416-.407-.733-.968-1.321-1.683-1.765-.715-.443-1.52-.665-2.416-.665zm29.958 18.351v-1.466c0-1.113.235-2.135.706-3.067.479-.941 1.172-1.692 2.077-2.253.914-.57 2.027-.856 3.339-.856 1.33 0 2.447.281 3.352.842.914.561 1.602 1.312 2.063 2.253.471.932.706 1.959.706 3.081v1.466c0 1.113-.235 2.14-.706 3.081-.47.932-1.162 1.679-2.076 2.24-.914.57-2.027.855-3.339.855-1.331 0-2.448-.285-3.353-.855-.905-.561-1.593-1.308-2.063-2.24-.471-.941-.706-1.968-.706-3.081zm3.95-1.466v1.466c0 .643.154 1.249.461 1.819.317.57.887.855 1.711.855.823 0 1.384-.28 1.683-.841.307-.561.461-1.172.461-1.833v-1.466c0-.66-.145-1.276-.434-1.846-.29-.57-.86-.855-1.71-.855-.815 0-1.38.285-1.697.855s-.475 1.186-.475 1.846zm-18.215-14.442v-1.466c0-1.122.239-2.149.719-3.081.48-.941 1.172-1.692 2.077-2.253.914-.561 2.018-.841 3.312-.841 1.339 0 2.461.28 3.366.841s1.592 1.312 2.063 2.253c.47.932.706 1.959.706 3.081v1.466c0 1.122-.24 2.149-.72 3.082-.47.932-1.162 1.678-2.076 2.239-.905.552-2.018.828-3.339.828-1.322 0-2.439-.28-3.353-.841-.905-.571-1.593-1.317-2.063-2.24-.462-.932-.692-1.955-.692-3.068zm3.977-1.466v1.466c0 .661.153 1.272.461 1.833.317.561.873.841 1.67.841.832 0 1.398-.28 1.696-.841.308-.561.462-1.172.462-1.833v-1.466c0-.66-.145-1.275-.435-1.845-.289-.571-.864-.856-1.723-.856-.806 0-1.362.29-1.67.869s-.461 1.19-.461 1.832zm-2.186 22.586 19.111-27.798h3.557l-19.112 27.798z" fill="#000"/><path d="m450.069 179.419v-1.556l5.506-8.697h1.225v2.29h-.778l-3.937 6.233v.1h7.546v1.63zm6.041 2.488v-2.961l.012-.709v-9.071h1.823v12.741zm9.947.174c-.854 0-1.617-.147-2.289-.442-.668-.294-1.197-.703-1.587-1.225-.385-.527-.593-1.136-.622-1.829h1.954c.025.377.151.705.379.983.232.274.535.485.908.634.374.15.788.224 1.245.224.501 0 .945-.087 1.331-.261.39-.174.695-.417.914-.728.22-.315.33-.678.33-1.088 0-.428-.11-.803-.33-1.126-.215-.328-.532-.585-.951-.772-.415-.187-.917-.28-1.506-.28h-1.076v-1.568h1.076c.473 0 .888-.085 1.244-.255.361-.17.643-.406.846-.709.204-.307.305-.665.305-1.076 0-.394-.089-.736-.267-1.027-.174-.294-.423-.524-.747-.69-.319-.166-.697-.249-1.132-.249-.415 0-.803.077-1.163.23-.357.15-.647.365-.871.647-.224.278-.345.612-.361 1.002h-1.86c.021-.689.224-1.294.609-1.817.39-.522.905-.931 1.543-1.225.639-.295 1.348-.442 2.128-.442.817 0 1.522.16 2.115.479.597.315 1.058.736 1.381 1.263.328.527.489 1.103.485 1.729.004.714-.195 1.319-.597 1.817-.398.498-.929.832-1.592 1.002v.099c.846.129 1.501.465 1.965 1.008.469.543.701 1.217.697 2.022.004.701-.191 1.329-.585 1.885-.389.555-.922.993-1.598 1.312-.676.316-1.45.473-2.321.473zm8.747-1.916-.093.678c-.063.498-.168 1.016-.318 1.555-.145.544-.296 1.048-.454 1.512-.153.465-.28.834-.379 1.108h-1.319c.054-.258.128-.606.224-1.046.095-.435.189-.922.28-1.462.091-.539.16-1.088.205-1.648l.062-.697zm5.719-10.999v12.741h-1.929v-10.812h-.074l-3.049 1.991v-1.842l3.179-2.078z" fill="#cfcfcf"/><path d="m776.289 222.419v-1.556l5.506-8.697h1.225v2.29h-.778l-3.937 6.233v.1h7.546v1.63zm6.041 2.488v-2.961l.012-.709v-9.071h1.823v12.741zm5.511 0v-1.394l4.312-4.466c.46-.486.84-.911 1.138-1.276.303-.369.529-.719.678-1.051.15-.332.224-.684.224-1.058 0-.423-.099-.788-.298-1.094-.199-.311-.471-.55-.815-.716-.345-.17-.732-.255-1.164-.255-.456 0-.854.093-1.194.28s-.602.45-.784.79-.274.738-.274 1.195h-1.835c0-.776.178-1.454.535-2.035.357-.58.846-1.03 1.468-1.35.622-.323 1.329-.485 2.122-.485.8 0 1.505.16 2.115.479.614.315 1.093.747 1.437 1.294.344.543.516 1.157.516 1.841 0 .473-.089.936-.267 1.388-.175.452-.479.956-.915 1.512-.435.551-1.041 1.221-1.816 2.009l-2.532 2.65v.093h5.735v1.649zm13.012-1.742-.093.678c-.063.498-.168 1.016-.318 1.555-.145.544-.296 1.048-.454 1.512-.153.465-.28.834-.379 1.108h-1.319c.054-.258.128-.606.224-1.046.095-.435.189-.922.28-1.462.091-.539.159-1.088.205-1.648l.062-.697zm2.425 1.742v-1.394l4.311-4.466c.46-.486.84-.911 1.138-1.276.303-.369.529-.719.678-1.051.15-.332.224-.684.224-1.058 0-.423-.099-.788-.298-1.094-.199-.311-.471-.55-.815-.716-.344-.17-.732-.255-1.164-.255-.456 0-.854.093-1.194.28s-.601.45-.784.79c-.182.34-.274.738-.274 1.195h-1.835c0-.776.179-1.454.535-2.035.357-.58.846-1.03 1.468-1.35.623-.323 1.33-.485 2.122-.485.8 0 1.505.16 2.115.479.614.315 1.093.747 1.437 1.294.344.543.516 1.157.516 1.841 0 .473-.089.936-.267 1.388-.174.452-.479.956-.915 1.512-.435.551-1.041 1.221-1.816 2.009l-2.532 2.65v.093h5.736v1.649z" fill="#cfcfcf"/></svg>