<svg fill="none" height="632" viewBox="0 0 860 632" width="860" xmlns="http://www.w3.org/2000/svg" xmlns:xlink="http://www.w3.org/1999/xlink"><linearGradient id="a"><stop offset="0" stop-color="#d9d9d9"/><stop offset=".117896" stop-color="#d9d9d9" stop-opacity=".991615"/><stop offset=".213837" stop-color="#d9d9d9" stop-opacity=".967585"/><stop offset=".2912" stop-color="#d9d9d9" stop-opacity=".9296"/><stop offset=".353363" stop-color="#d9d9d9" stop-opacity=".879348"/><stop offset=".403704" stop-color="#d9d9d9" stop-opacity=".818519"/><stop offset=".4456" stop-color="#d9d9d9" stop-opacity=".7488"/><stop offset=".48243" stop-color="#d9d9d9" stop-opacity=".671881"/><stop offset=".51757" stop-color="#d9d9d9" stop-opacity=".589452"/><stop offset=".5544" stop-color="#d9d9d9" stop-opacity=".5032"/><stop offset=".596296" stop-color="#d9d9d9" stop-opacity=".414815"/><stop offset=".646637" stop-color="#d9d9d9" stop-opacity=".325985"/><stop offset=".7088" stop-color="#d9d9d9" stop-opacity=".2384"/><stop offset=".786163" stop-color="#d9d9d9" stop-opacity=".153748"/><stop offset=".882104" stop-color="#d9d9d9" stop-opacity=".073719"/><stop offset="1" stop-color="#d9d9d9" stop-opacity="0"/></linearGradient><linearGradient id="b" gradientUnits="userSpaceOnUse" x1="65.808" x2="43.7959" xlink:href="#a" y1="342.935" y2="342.935"/><linearGradient id="c" gradientUnits="userSpaceOnUse" x1="283.288" x2="182.033" xlink:href="#a" y1="342.935" y2="342.935"/><linearGradient id="d" gradientUnits="userSpaceOnUse" x1="409.419" x2="320.27" xlink:href="#a" y1="342.537" y2="342.537"/><linearGradient id="e" gradientUnits="userSpaceOnUse" x1="525.948" x2="457.711" xlink:href="#a" y1="342.935" y2="342.935"/><linearGradient id="f"><stop offset="0" stop-color="#04b34a"/><stop offset=".0001" stop-color="#04b34a" stop-opacity=".991615"/><stop offset=".119507" stop-color="#04b34a" stop-opacity=".967585"/><stop offset=".235693" stop-color="#04b34a" stop-opacity=".9296"/><stop offset=".322832" stop-color="#04b34a" stop-opacity=".879348"/><stop offset=".379604" stop-color="#04b34a" stop-opacity=".818519"/><stop offset=".4456" stop-color="#04b34a" stop-opacity=".7488"/><stop offset=".48243" stop-color="#04b34a" stop-opacity=".671881"/><stop offset=".51757" stop-color="#04b34a" stop-opacity=".589452"/><stop offset=".5544" stop-color="#04b34a" stop-opacity=".5032"/><stop offset=".596296" stop-color="#04b34a" stop-opacity=".414815"/><stop offset=".646637" stop-color="#04b34a" stop-opacity=".325985"/><stop offset=".7088" stop-color="#04b34a" stop-opacity=".2384"/><stop offset=".786163" stop-color="#04b34a" stop-opacity=".153748"/><stop offset=".882104" stop-color="#04b34a" stop-opacity=".073719"/><stop offset="1" stop-color="#04b34a" stop-opacity="0"/></linearGradient><linearGradient id="g" gradientUnits="userSpaceOnUse" x1="660.846" x2="593.614" xlink:href="#f" y1="342.935" y2="342.935"/><linearGradient id="h" gradientUnits="userSpaceOnUse" x1="811.227" x2="734.185" xlink:href="#a" y1="342.935" y2="342.935"/><linearGradient id="i" gradientUnits="userSpaceOnUse" x1="63.6068" x2="43.7959" xlink:href="#a" y1="609.694" y2="609.694"/><linearGradient id="j" gradientUnits="userSpaceOnUse" x1="284.389" x2="182.033" xlink:href="#a" y1="609.694" y2="609.694"/><linearGradient id="k" gradientUnits="userSpaceOnUse" x1="407.218" x2="320.27" xlink:href="#a" y1="609.296" y2="609.296"/><linearGradient id="l" gradientUnits="userSpaceOnUse" x1="521.546" x2="457.711" xlink:href="#a" y1="609.694" y2="609.694"/><linearGradient id="m" gradientUnits="userSpaceOnUse" x1="667.614" x2="593.472" xlink:href="#f" y1="609.694" y2="609.694"/><linearGradient id="n" gradientUnits="userSpaceOnUse" x1="809.026" x2="734.185" xlink:href="#a" y1="609.694" y2="609.694"/><path d="m0 0h860v632h-860z" fill="#fff"/><g fill="#eaecef"><path d="m729.078 39.0185-2.13 12.6316h2.372l-1.361 8.0721h-4.391l.65-3.8463h-11.271l-.649 3.8463h-4.391l1.362-8.0721h1.683c.77-1.0444 1.5-2.4224 2.322-5.3186l2.09-7.313h13.717zm-5.576 4.2258h-4.817l-.928 3.2528c-.809 2.8249-1.477 4.1063-2.152 5.153h6.48z"/><path d="m732.949 39.0185h10.441c3.679 0 5.333 1.8748 4.875 4.5824-.293 1.7322-1.597 2.8479-2.82 3.3471 1.336.5222 2.393 1.8518 2.009 4.1316-.489 2.8962-2.85 4.7963-6.766 4.7963h-10.584zm3.063 10.1149-.497 2.9445h4.793c1.281 0 2.073-.4739 2.242-1.4722.172-1.0214-.463-1.4723-1.746-1.4723h-4.794zm1.065-6.3146-.424 2.5166h4.722c.997 0 1.697-.3565 1.85-1.2583.152-.9018-.429-1.2583-1.426-1.2583z"/><path d="m751.281 39.0185h4.865l-1.713 10.1609 9.14-10.1609h4.865l-2.843 16.8574h-4.865l1.707-10.1149-9.133 10.1149h-4.865z"/><path d="m775.671 47.1389-5.726-8.1204h5.505l4.77 6.8851 1.164-6.8851h4.627l-1.161 6.8851 7.095-6.8851h5.388l-8.24 7.9065 5.752 8.9509h-5.862l-4.6-7.1934-1.214 7.1934h-4.628l1.214-7.1934-7.028 7.1934h-5.648l8.594-8.737z"/><path d="m804.438 39.0185h-5.648l5.623 7.9065-8.346 8.9509h5.648l8.346-8.9509zm8.928 0h-5.648l5.623 7.9065-8.345 8.9509h5.648l8.345-8.9509zm9.159 0h-5.648l5.623 7.9065-8.346 8.9509h5.648l8.346-8.9509z"/></g><path d="m32.5336 64.8807v-8.541h1.415c.4819-.3461.923-.8347 1.3234-1.4659.4004-.6379.7432-1.5168 1.0282-2.6366.285-1.1266.4886-2.5993.6108-4.4181l.5904-8.8158h13.7938v17.3364h2.2803v8.5206h-4.2348v-5.0085h-12.5722v5.0289zm6.505-8.541h8.0218v-13.7021h-5.5888l-.3258 5.1815c-.0882 1.3777-.2341 2.5993-.4377 3.6648-.1968 1.0655-.4377 1.9987-.7228 2.7995-.2782.794-.5938 1.4795-.9467 2.0563zm23.0535 3.8175c-1.5812 0-2.9487-.3359-4.1025-1.0078-1.1469-.6787-2.0326-1.622-2.6569-2.83-.6244-1.2148-.9366-2.6231-.9366-4.2247 0-1.6152.3122-3.0268.9366-4.2348.6243-1.2148 1.51-2.1582 2.6569-2.8301 1.1538-.6786 2.5213-1.018 4.1025-1.018 1.5813 0 2.9454.3394 4.0924 1.018 1.1537.6719 2.0427 1.6153 2.6671 2.8301.6244 1.208.9366 2.6196.9366 4.2348 0 1.6016-.3122 3.0099-.9366 4.2247-.6244 1.208-1.5134 2.1513-2.6671 2.83-1.147.6719-2.5111 1.0078-4.0924 1.0078zm.0204-3.3594c.7194 0 1.32-.2036 1.8019-.6108.4818-.4139.8449-.9772 1.0892-1.6898.2511-.7126.3767-1.5236.3767-2.433s-.1256-1.7204-.3767-2.433c-.2443-.7126-.6074-1.2759-1.0892-1.6899-.4819-.414-1.0825-.621-1.8019-.621-.7262 0-1.337.207-1.8324.621-.4886.414-.8585.9773-1.1096 1.6899-.2443.7126-.3665 1.5236-.3665 2.433s.1222 1.7204.3665 2.433c.2511.7126.621 1.2759 1.1096 1.6898.4954.4072 1.1062.6108 1.8324.6108zm12.413-12.5824 2.8707 5.4667 2.942-5.4667h4.4487l-4.5301 7.8182 4.6522 7.8182h-4.4282l-3.0846-5.4055-3.0336 5.4055h-4.4791l4.642-7.8182-4.4792-7.8182zm18.1952 15.9418c-1.5813 0-2.9488-.3359-4.1025-1.0078-1.147-.6787-2.0326-1.622-2.657-2.83-.6244-1.2148-.9365-2.6231-.9365-4.2247 0-1.6152.3121-3.0268.9365-4.2348.6244-1.2148 1.51-2.1582 2.657-2.8301 1.1537-.6786 2.5212-1.018 4.1025-1.018s2.9454.3394 4.0923 1.018c1.1537.6719 2.0428 1.6153 2.6672 2.8301.6248 1.208.9368 2.6196.9368 4.2348 0 1.6016-.312 3.0099-.9368 4.2247-.6244 1.208-1.5135 2.1513-2.6672 2.83-1.1469.6719-2.511 1.0078-4.0923 1.0078zm.0203-3.3594c.7194 0 1.32-.2036 1.8019-.6108.4818-.4139.8449-.9772 1.0892-1.6898.2511-.7126.3767-1.5236.3767-2.433s-.1256-1.7204-.3767-2.433c-.2443-.7126-.6074-1.2759-1.0892-1.6899-.4819-.414-1.0825-.621-1.8019-.621-.7261 0-1.3369.207-1.8323.621-.4887.414-.8585.9773-1.1097 1.6899-.2443.7126-.3664 1.5236-.3664 2.433s.1221 1.7204.3664 2.433c.2512.7126.621 1.2759 1.1097 1.6898.4954.4072 1.1062.6108 1.8323.6108zm8.127 7.635v-8.0218h1.202c.346-.2172.624-.5633.834-1.0384.217-.475.394-1.0349.53-1.6796.142-.6448.251-1.3404.325-2.0869.082-.7533.153-1.5134.214-2.2803l.407-5.1104h11.992v12.1956h2.423v8.0218h-4.133v-4.581h-9.559v4.581zm5.518-8.0218h5.894v-8.8565h-4.215l-.162 1.7713c-.116 1.6695-.282 3.0879-.499 4.2552-.217 1.1605-.557 2.1038-1.018 2.83zm16.508-7.3906h4.672c2.07 0 3.685.4954 4.846 1.4862 1.16.9841 1.741 2.3007 1.741 3.9498 0 1.0723-.262 2.0157-.784 2.8301-.523.8076-1.276 1.4387-2.26 1.8934-.984.4479-2.165.6719-3.543.6719h-7.39v-15.6364h4.143v12.2261h3.247c.726 0 1.324-.1832 1.792-.5497s.706-.8347.713-1.4048c-.007-.604-.245-1.0961-.713-1.4761-.468-.3868-1.066-.5803-1.792-.5803h-4.672zm12.938 10.8314v-15.6364h4.337v15.6364zm11.34-4.4283h4.205c.02.5158.251.923.692 1.2216s1.011.4479 1.71.4479c.706 0 1.3-.1628 1.782-.4886.482-.3325.723-.8076.723-1.4252 0-.38-.095-.7092-.286-.9874-.19-.2851-.454-.509-.794-.6719-.339-.1629-.733-.2443-1.18-.2443h-2.25v-2.8402h2.25c.671 0 1.187-.1561 1.547-.4683.366-.3122.55-.7024.55-1.1707 0-.5293-.19-.9535-.57-1.2725-.374-.3257-.879-.4886-1.517-.4886-.645 0-1.181.1459-1.609.4377-.42.2851-.638.6583-.651 1.1198h-4.184c.013-.9365.295-1.7475.845-2.433.556-.6854 1.303-1.2148 2.239-1.5881.944-.3732 1.999-.5599 3.166-.5599 1.276 0 2.376.1799 3.299.5396.929.3529 1.642.8585 2.137 1.5168.503.6583.754 1.4421.754 2.3516 0 .8279-.272 1.5202-.815 2.0767s-1.303.9535-2.28 1.191v.1629c.645.0407 1.228.2138 1.751.5192s.94.7261 1.252 1.2623c.312.5293.468 1.1571.468 1.8833 0 .9704-.285 1.8018-.855 2.494-.563.6923-1.343 1.225-2.341 1.5983-.991.3665-2.128.5497-3.41.5497-1.249 0-2.369-.1798-3.36-.5395-.984-.3665-1.768-.9027-2.351-1.6085-.577-.7058-.883-1.5677-.917-2.5857zm19.206 4.7235c-.998 0-1.887-.173-2.667-.5192-.781-.3529-1.398-.872-1.853-1.5575-.448-.6922-.672-1.5541-.672-2.5857 0-.8687.16-1.5982.479-2.1887.319-.5904.753-1.0655 1.303-1.4252.549-.3596 1.174-.6311 1.873-.8143.706-.1833 1.445-.3122 2.219-.3869.909-.095 1.642-.1832 2.199-.2647.556-.0882.96-.2171 1.211-.3868s.377-.4208.377-.7533v-.0611c0-.6447-.204-1.1435-.611-1.4964-.4-.3529-.97-.5294-1.71-.5294-.78 0-1.401.1731-1.863.5192-.461.3393-.767.7669-.916 1.2826l-4.011-.3257c.204-.9501.604-1.7713 1.201-2.4636.597-.699 1.368-1.2351 2.311-1.6084.95-.38 2.05-.5701 3.298-.5701.869 0 1.7.1018 2.494.3054.801.2036 1.51.5192 2.128.9468.624.4275 1.116.9772 1.476 1.6491.36.6651.54 1.4625.54 2.3923v10.5464h-4.113v-2.1683h-.122c-.251.4886-.587.9196-1.008 1.2928-.421.3665-.926.6549-1.517.8653-.59.2036-1.272.3054-2.046.3054zm1.242-2.9929c.638 0 1.201-.1255 1.69-.3766.488-.2579.872-.604 1.15-1.0384.278-.4343.418-.9264.418-1.4761v-1.6593c-.136.0882-.323.1697-.56.2443-.231.0679-.492.1324-.784.1934-.292.0543-.584.1052-.876.1527-.291.0408-.556.0781-.794.112-.509.0747-.953.1934-1.333.3563s-.676.3835-.886.6617c-.21.2715-.315.6108-.315 1.018 0 .5904.213 1.0417.641 1.3539.434.3054.984.4581 1.649.4581zm16.907 3.0031c-1.608 0-2.992-.3258-4.153-.9773-1.154-.6583-2.043-1.588-2.667-2.7893-.625-1.208-.937-2.6366-.937-4.2857 0-1.6084.312-3.0201.937-4.2349.624-1.2148 1.503-2.1615 2.636-2.8402 1.141-.6786 2.478-1.018 4.011-1.018 1.032 0 1.992.1663 2.881.4989.896.3257 1.677.8177 2.342 1.476.672.6584 1.194 1.4863 1.567 2.484.374.9908.56 2.1513.56 3.4815v1.191h-13.203v-2.6875h9.121c0-.6243-.136-1.1774-.407-1.6593-.272-.4818-.648-.8585-1.13-1.13-.475-.2782-1.028-.4173-1.659-.4173-.659 0-1.242.1527-1.751.4581-.503.2986-.896.7024-1.181 1.2114-.285.5022-.431 1.0621-.438 1.6797v2.5551c0 .7737.143 1.4422.428 2.0055.291.5633.702.9976 1.231 1.303.53.3054 1.158.4581 1.884.4581.482 0 .923-.0679 1.323-.2036s.743-.3393 1.028-.6108.502-.604.652-.9976l4.011.2646c-.204.9637-.621 1.8053-1.252 2.5247-.625.7126-1.432 1.2691-2.423 1.6695-.984.3936-2.121.5904-3.411.5904zm-3.379-18.0795c-.584 0-1.086-.2036-1.507-.6108-.421-.414-.631-.9027-.631-1.4659 0-.5769.21-1.0655.631-1.466.421-.4004.923-.6006 1.507-.6006.59 0 1.089.2002 1.496.6006.414.4005.621.8891.621 1.466 0 .5632-.207 1.0519-.621 1.4659-.407.4072-.906.6108-1.496.6108zm6.23 0c-.584 0-1.086-.2036-1.507-.6108-.421-.414-.631-.9027-.631-1.4659 0-.5769.21-1.0655.631-1.466.421-.4004.923-.6006 1.507-.6006.59 0 1.089.2002 1.496.6006.414.4005.621.8891.621 1.466 0 .5632-.207 1.0519-.621 1.4659-.407.4072-.906.6108-1.496.6108zm15.253 12.9794 4.235-10.8417h3.298l-6.098 15.6364h-2.881l-5.955-15.6364h3.288zm-5.1-10.8417v15.6364h-4.143v-15.6364zm10.414 15.6364v-15.6364h4.092v15.6364zm30.864-3.4103-.305 7.8895h-3.981v-4.4792h-1.741v-3.4103zm-24.564-12.2261h4.143v12.1956h4.408v-12.1956h4.143v12.1956h4.408v-12.1956h4.143v15.6364h-21.245zm30.151 9.9153 5.63-9.9153h4.275v15.6364h-4.133v-9.9458l-5.609 9.9458h-4.306v-15.6364h4.143zm12.235 5.7211v-15.6364h4.337v6.0673h1.221l4.256-6.0673h5.09l-5.528 7.7571 5.589 7.8793h-5.151l-3.859-5.5481h-1.618v5.5481zm22.071.3054c-1.581 0-2.948-.3359-4.102-1.0078-1.147-.6787-2.033-1.622-2.657-2.83-.624-1.2148-.937-2.6231-.937-4.2247 0-1.6152.313-3.0268.937-4.2348.624-1.2148 1.51-2.1582 2.657-2.8301 1.154-.6786 2.521-1.018 4.102-1.018 1.582 0 2.946.3394 4.093 1.018 1.153.6719 2.043 1.6153 2.667 2.8301.624 1.208.936 2.6196.936 4.2348 0 1.6016-.312 3.0099-.936 4.2247-.624 1.208-1.514 2.1513-2.667 2.83-1.147.6719-2.511 1.0078-4.093 1.0078zm.021-3.3594c.719 0 1.32-.2036 1.802-.6108.481-.4139.845-.9772 1.089-1.6898.251-.7126.377-1.5236.377-2.433s-.126-1.7204-.377-2.433c-.244-.7126-.608-1.2759-1.089-1.6899-.482-.414-1.083-.621-1.802-.621-.726 0-1.337.207-1.833.621-.488.414-.858.9773-1.109 1.6899-.245.7126-.367 1.5236-.367 2.433s.122 1.7204.367 2.433c.251.7126.621 1.2759 1.109 1.6898.496.4072 1.107.6108 1.833.6108zm9.349 3.054v-15.6364h6.667c1.928 0 3.451.3665 4.571 1.0995 1.12.7329 1.68 1.7747 1.68 3.1252 0 .8483-.316 1.5541-.947 2.1174s-1.506.9434-2.626 1.1402c.936.0679 1.734.2816 2.392.6413.665.3529 1.171.811 1.517 1.3743.353.5633.529 1.1877.529 1.8731 0 .8891-.237 1.6526-.712 2.2905-.469.6379-1.158 1.1266-2.067 1.4659-.903.3393-2.005.509-3.308.509zm4.041-3.2474h3.655c.604 0 1.075-.1425 1.415-.4275.346-.2919.519-.6889.519-1.1911 0-.5565-.173-.9942-.519-1.3132-.34-.319-.811-.4785-1.415-.4785h-3.655zm0-5.9552h2.718c.434 0 .804-.0611 1.11-.1833.312-.1289.549-.3122.712-.5497.17-.2375.255-.5192.255-.8449 0-.4819-.194-.8585-.58-1.13-.387-.2715-.917-.4072-1.589-.4072h-2.626z" fill="#000"/><rect fill="#f7f7f7" height="234.907" rx="15.9259" width="796.296" x="31.8516" y="98.7407"/><path d="m44.5385 115.157h1.3528v5.131h.0698l3.5401-5.131h1.2241v7.528h-1.3638v-5.128h-.0625l-3.5511 5.128h-1.2094zm10.0719 0v7.528h-1.3638v-7.528zm1.6285 3.326v1.096h-2.3711v-1.096zm6.492.438c0 .811-.152 1.506-.4559 2.084-.3014.576-.7131 1.017-1.2351 1.324-.5196.306-1.109.459-1.7682.459-.6593 0-1.2499-.153-1.7719-.459-.5196-.309-.9313-.752-1.2352-1.327-.3014-.579-.4521-1.272-.4521-2.081 0-.811.1507-1.505.4521-2.081.3039-.578.7156-1.021 1.2352-1.327.522-.306 1.1126-.459 1.7719-.459.6592 0 1.2486.153 1.7682.459.522.306.9337.749 1.2351 1.327.3039.576.4559 1.27.4559 2.081zm-1.3712 0c0-.571-.0895-1.053-.2684-1.445-.1764-.394-.4215-.692-.7352-.893-.3137-.204-.6752-.305-1.0844-.305-.4093 0-.7708.101-1.0845.305-.3137.201-.56.499-.7389.893-.1764.392-.2647.874-.2647 1.445s.0883 1.054.2647 1.448c.1789.392.4252.69.7389.894.3137.2.6752.301 1.0845.301.4092 0 .7707-.101 1.0844-.301.3137-.204.5588-.502.7352-.894.1789-.394.2684-.877.2684-1.448zm3.2197 3.764v-1.132l.2132-.011c.2892-.017.5183-.121.6874-.313.1716-.191.2978-.498.3786-.922.0834-.424.1385-.993.1655-1.706l.125-3.444h4.9333v7.528h-1.3345v-6.407h-2.3269l-.1177 2.746c-.0343.823-.1249 1.506-.272 2.047-.1446.542-.3823.946-.7131 1.213-.3284.268-.7855.401-1.3712.401zm9.9478-4.621h1.9116c.5759 0 1.0697.095 1.4814.283.4142.187.7316.45.9522.791.2205.34.3308.741.3308 1.202 0 .463-.1103.871-.3308 1.224-.2206.35-.538.625-.9522.823-.4117.199-.9055.298-1.4814.298h-2.8196v-7.528h1.3675v6.411h1.4521c.3039 0 .5612-.058.772-.173.2107-.115.37-.267.4779-.456.1102-.189.1654-.393.1654-.614 0-.318-.1226-.589-.3676-.812-.2427-.226-.5919-.339-1.0477-.339h-1.9116z" fill="#000" opacity=".6"/><path d="m70.3004 277.381c-.7089 0-1.346-.136-1.9116-.408-.5618-.275-1.0104-.652-1.346-1.131s-.5147-1.025-.5373-1.64h1.6967c.0414.498.262.907.6617 1.227.3996.321.8785.481 1.4365.481.4449 0 .8389-.102 1.182-.305.3468-.208.6183-.492.8144-.854.1998-.362.2997-.775.2997-1.239 0-.471-.1018-.892-.3054-1.261s-.4845-.66-.8427-.871c-.3544-.211-.7616-.319-1.2216-.322-.3506 0-.7031.06-1.0575.181-.3544.12-.641.279-.8597.475l-1.6005-.238.6504-5.836h6.3681v1.498h-4.9146l-.3676 3.241h.0678c.2262-.219.526-.402.8993-.549.377-.147.7804-.22 1.2102-.22.7051 0 1.3328.168 1.8833.503.5543.336.9897.794 1.3064 1.375.3205.576.4789 1.24.4751 1.99.0038.751-.1659 1.42-.509 2.008-.3393.588-.8106 1.052-1.4139 1.391-.5995.336-1.2875.504-2.0642.504zm7.2184-1.742-.0848.616c-.0565.453-.1527.924-.2884 1.414-.132.494-.2696.952-.4129 1.374-.1395.423-.2545.758-.345 1.007h-1.1989c.049-.234.1168-.551.2036-.95.0867-.396.1715-.839.2545-1.329.0829-.49.1451-.99.1866-1.499l.0566-.633zm5.4399-10.158c.5165.004 1.0255.098 1.5269.283.5015.185.9539.487 1.3574.905.4072.419.7314.984.9727 1.697.2451.708.3695 1.591.3733 2.646 0 1.015-.1018 1.918-.3054 2.709-.2036.788-.4958 1.454-.8766 1.997-.3771.543-.8352.956-1.3743 1.238-.5392.283-1.1462.425-1.8211.425-.69 0-1.3026-.136-1.838-.408-.5354-.271-.9709-.646-1.3065-1.125-.3355-.483-.5448-1.037-.6277-1.663h1.7249c.1131.498.3431.901.69 1.21.3506.306.8031.459 1.3573.459.8483 0 1.51-.37 1.9851-1.109.4751-.743.7145-1.78.7182-3.11h-.0904c-.1961.324-.4412.603-.7353.837-.2903.233-.6164.414-.9784.542-.3619.129-.7484.193-1.1593.193-.6674 0-1.2744-.164-1.8211-.492s-.9822-.779-1.3064-1.352c-.3243-.573-.4864-1.227-.4864-1.962 0-.732.1659-1.395.4977-1.991.3355-.596.803-1.067 1.4025-1.414.6033-.351 1.3102-.522 2.1209-.515zm.0056 1.471c-.4411 0-.8389.109-1.1933.328-.3506.215-.6278.507-.8314.876-.2036.366-.3054.773-.3054 1.222s.0981.856.2941 1.222c.1998.362.4713.65.8144.865.3469.211.7428.317 1.1877.317.3318 0 .6409-.065.9275-.193.2865-.128.5373-.305.7522-.531.2149-.23.3827-.49.5033-.781.1207-.29.181-.595.181-.916 0-.426-.1018-.822-.3054-1.188-.1998-.365-.4751-.659-.8257-.882-.3507-.226-.7503-.339-1.199-.339zm15.2542 8.098v-.61c0-.438.0905-.837.2714-1.199.1848-.366.4525-.658.8031-.877.3544-.222.782-.334 1.284-.334.513 0 .942.11 1.289.328.347.219.609.511.786.877.181.366.272.767.272 1.205v.61c0 .438-.091.839-.272 1.205-.181.362-.446.654-.797.877-.347.218-.773.328-1.278.328-.509 0-.939-.11-1.2896-.328-.3507-.223-.6165-.515-.7975-.877-.1809-.366-.2714-.767-.2714-1.205zm1.3177-.61v.61c0 .325.0773.619.2319.883s.4239.396.8089.396c.381 0 .646-.132.797-.396s.226-.558.226-.883v-.61c0-.325-.073-.619-.22-.883-.143-.263-.411-.395-.803-.395-.377 0-.6449.132-.8033.395-.1583.264-.2375.558-.2375.883zm-7.1429-6.018v-.611c0-.437.0905-.838.2715-1.204.1847-.366.4524-.658.803-.877.3545-.218.7824-.328 1.2838-.328.5128 0 .9426.11 1.2895.328.3469.219.6089.511.7861.877s.2658.767.2658 1.204v.611c0 .438-.0905.839-.2714 1.205-.1772.362-.4412.654-.7918.876-.3469.219-.7729.328-1.2782.328-.5127 0-.9444-.109-1.2951-.328-.3468-.222-.6108-.514-.7917-.876-.181-.366-.2715-.767-.2715-1.205zm1.3234-.611v.611c0 .324.0754.619.2262.882.1546.264.4242.396.8087.396.3771 0 .641-.132.7918-.396.1546-.263.2319-.558.2319-.882v-.611c0-.324-.0735-.618-.2206-.882-.147-.264-.4147-.396-.8031-.396-.377 0-.6447.132-.803.396-.1546.264-.2319.558-.2319.882zm-.7861 9.411 7.9634-11.582h1.351l-7.9628 11.582z" fill="#858585"/><path d="m43.7959 301.926h15.9259v82.0185h-15.9259z" fill="url(#b)" transform="matrix(0 -1 1 0 -258.1301 345.7219)"/><path d="m43.7959 286h82.0181" stroke="#cacaca" stroke-width="3.18519"/><path d="m70.856 318.88c-.745 0-1.3845-.188-1.9184-.565-.5308-.38-.9395-.928-1.2261-1.643-.2835-.718-.4253-1.582-.4253-2.592.003-1.011.1463-1.87.4298-2.579.2866-.712.6953-1.255 1.2262-1.629.5338-.374 1.1718-.561 1.9138-.561s1.3799.187 1.9138.561.9426.917 1.2261 1.629c.2866.712.4298 1.571.4298 2.579 0 1.013-.1432 1.879-.4298 2.597-.2835.715-.6922 1.261-1.2261 1.638-.5309.377-1.1688.565-1.9138.565zm0-1.416c.5791 0 1.0361-.285 1.3709-.855.3378-.573.5067-1.416.5067-2.529 0-.736-.0769-1.355-.2307-1.855-.1539-.501-.371-.878-.6515-1.131-.2806-.257-.6123-.385-.9954-.385-.5761 0-1.0316.287-1.3664.86-.3348.57-.5037 1.407-.5067 2.511-.003.739.0709 1.36.2217 1.864.1538.504.371.884.6515 1.14.2805.253.6138.38.9999.38zm8.7937-4.067v1.348h-4.1715v-1.348zm1.0275 3.587v-1.334l3.9317-6.212h1.113v1.9h-.6786l-2.6468 4.194v.072h5.4881v1.38zm4.4204 1.72v-2.127l.0181-.597v-6.542h1.5835v9.266zm6.9398-9.393c.4434.003.8747.081 1.294.235.4222.151.8023.398 1.1401.742.3378.341.6063.798.8054 1.371.199.573.2986 1.282.2986 2.127.003.796-.0815 1.508-.2534 2.135-.1689.625-.4117 1.152-.7284 1.584-.3167.431-.6983.76-1.1447.986s-.9486.339-1.5066.339c-.5852 0-1.104-.114-1.5564-.343-.4495-.23-.8129-.543-1.0904-.942-.2775-.398-.4479-.853-.5113-1.366h1.6514c.0845.368.2564.661.5158.878.2624.214.5927.321.9909.321.6424 0 1.1371-.279 1.484-.837.3468-.558.5203-1.333.5203-2.326h-.0634c-.1478.266-.3393.495-.5746.688-.2352.19-.5022.336-.8008.439-.2956.103-.6093.154-.9411.154-.5429 0-1.0315-.13-1.4659-.389-.4313-.26-.7736-.616-1.027-1.068-.2504-.452-.377-.97-.3801-1.552 0-.603.1388-1.145.4163-1.624.2805-.483.6711-.863 1.1718-1.14.5007-.281 1.0859-.418 1.7555-.412zm.0045 1.357c-.3258 0-.6198.08-.8823.24-.2594.157-.4645.371-.6153.643-.1478.268-.2217.568-.2217.9.003.329.0769.627.2217.896.1478.268.3484.481.6018.638.2564.157.5489.235.8777.235.2443 0 .4721-.047.6832-.14.2111-.094.3951-.223.552-.389.1598-.169.2835-.361.371-.575.0905-.214.1342-.44.1312-.679 0-.316-.0754-.609-.2262-.877-.1478-.269-.3514-.484-.6108-.647-.2564-.163-.5505-.245-.8823-.245zm4.5487 8.036v-6.95h1.6378v2.805h.5972l2.0904-2.805h1.973l-2.575 3.412 2.602 3.538h-1.982l-1.9048-2.62h-.8008v2.62z" fill="#5f5f5f"/><path d="m199.986 219.889v-1.267l3.919-4.061c.419-.441.764-.827 1.035-1.159.275-.336.481-.654.616-.956.136-.301.204-.622.204-.961 0-.385-.09-.717-.271-.996-.181-.282-.428-.499-.741-.65-.313-.155-.666-.232-1.058-.232-.415 0-.777.085-1.086.255-.309.169-.546.409-.712.718s-.249.671-.249 1.086h-1.669c0-.705.163-1.322.487-1.85.324-.527.769-.937 1.334-1.227.566-.294 1.209-.441 1.929-.441.728 0 1.369.145 1.923.435.558.287.993.679 1.306 1.177.313.494.47 1.052.47 1.674 0 .43-.081.85-.243 1.261-.159.411-.436.869-.832 1.374-.396.502-.946 1.111-1.651 1.827l-2.302 2.409v.085h5.214v1.499zm13.162.158c-.777 0-1.47-.134-2.081-.401-.607-.268-1.088-.639-1.442-1.114-.351-.479-.539-1.034-.566-1.663h1.776c.023.343.138.641.345.893.211.249.486.441.826.577.339.136.716.204 1.131.204.456 0 .859-.079 1.21-.238.355-.158.632-.379.831-.661.2-.287.3-.617.3-.99 0-.388-.1-.73-.3-1.024-.196-.298-.484-.531-.865-.701-.377-.17-.833-.255-1.368-.255h-.979v-1.425h.979c.429 0 .806-.077 1.131-.232.328-.154.584-.369.769-.644.185-.279.277-.605.277-.979 0-.358-.081-.669-.243-.933-.159-.268-.385-.477-.679-.628-.29-.15-.633-.226-1.029-.226-.377 0-.73.07-1.058.209-.324.136-.588.332-.792.589-.203.252-.313.556-.328.91h-1.691c.019-.626.204-1.176.555-1.651.354-.475.822-.847 1.402-1.114.581-.268 1.226-.402 1.934-.402.743 0 1.384.145 1.923.435.543.287.962.67 1.256 1.149.298.478.445 1.002.441 1.572.004.648-.177 1.199-.543 1.651-.362.453-.845.756-1.448.911v.09c.769.117 1.365.422 1.787.916.426.494.638 1.107.634 1.838.004.638-.174 1.209-.532 1.714-.354.505-.839.903-1.453 1.193-.615.287-1.318.43-2.11.43zm7.476-1.742-.085.617c-.056.452-.153.923-.288 1.414-.132.494-.27.952-.413 1.374-.14.422-.255.758-.345 1.007h-1.199c.049-.234.117-.551.203-.951.087-.395.172-.838.255-1.329.083-.49.145-.989.187-1.498l.056-.634zm5.341 1.742c-.777 0-1.471-.134-2.081-.401-.607-.268-1.088-.639-1.443-1.114-.35-.479-.539-1.034-.565-1.663h1.776c.022.343.137.641.345.893.211.249.486.441.825.577.34.136.717.204 1.131.204.457 0 .86-.079 1.211-.238.354-.158.631-.379.831-.661.2-.287.3-.617.3-.99 0-.388-.1-.73-.3-1.024-.196-.298-.484-.531-.865-.701-.377-.17-.833-.255-1.369-.255h-.978v-1.425h.978c.43 0 .807-.077 1.131-.232.328-.154.585-.369.769-.644.185-.279.278-.605.278-.979 0-.358-.081-.669-.244-.933-.158-.268-.384-.477-.678-.628-.291-.15-.634-.226-1.03-.226-.377 0-.729.07-1.057.209-.324.136-.588.332-.792.589-.204.252-.313.556-.328.91h-1.691c.019-.626.204-1.176.554-1.651.355-.475.822-.847 1.403-1.114.58-.268 1.225-.402 1.934-.402.743 0 1.384.145 1.923.435.543.287.961.67 1.255 1.149.298.478.445 1.002.442 1.572.003.648-.178 1.199-.543 1.651-.362.453-.845.756-1.448.911v.09c.769.117 1.365.422 1.787.916.426.494.637 1.107.633 1.838.004.638-.173 1.209-.531 1.714-.355.505-.839.903-1.454 1.193-.614.287-1.317.43-2.109.43zm15.219-2.33v-.611c0-.437.09-.837.271-1.199.185-.365.453-.658.803-.876.355-.223.783-.334 1.284-.334.513 0 .943.109 1.289.328.347.219.609.511.787.877.181.365.271.767.271 1.204v.611c0 .437-.09.839-.271 1.205-.181.362-.447.654-.798.876-.347.219-.773.328-1.278.328-.509 0-.939-.109-1.289-.328-.351-.222-.617-.514-.798-.876-.181-.366-.271-.768-.271-1.205zm1.317-.611v.611c0 .324.078.618.232.882.155.264.424.396.809.396.381 0 .647-.132.797-.396.151-.264.227-.558.227-.882v-.611c0-.324-.074-.618-.221-.882-.143-.264-.411-.396-.803-.396-.377 0-.645.132-.803.396s-.238.558-.238.882zm-7.143-6.017v-.611c0-.437.091-.839.272-1.205.185-.365.452-.657.803-.876.354-.219.782-.328 1.284-.328.513 0 .942.109 1.289.328s.609.511.786.876c.178.366.266.768.266 1.205v.611c0 .437-.09.839-.271 1.204-.178.362-.441.655-.792.877-.347.219-.773.328-1.278.328-.513 0-.945-.109-1.295-.328-.347-.222-.611-.515-.792-.877-.181-.365-.272-.767-.272-1.204zm1.324-.611v.611c0 .324.075.618.226.882.155.264.424.396.809.396.377 0 .641-.132.792-.396.154-.264.231-.558.231-.882v-.611c0-.324-.073-.618-.22-.882s-.415-.396-.803-.396c-.377 0-.645.132-.803.396-.155.264-.232.558-.232.882zm-.786 9.411 7.963-11.583h1.351l-7.963 11.583z" fill="#858585"/><path d="m182.033 301.926h73.2593v82.0185h-73.2593z" fill="url(#c)" transform="matrix(0 -1 1 0 -119.893 483.959)"/><path d="m182.033 228.667h82.018" stroke="#cacaca" stroke-width="3.18519"/><path d="m205.225 318.83c-.604 0-1.143-.113-1.62-.339-.477-.229-.855-.543-1.136-.941-.277-.398-.425-.854-.443-1.366h1.629c.03.38.194.69.493.932.299.238.657.357 1.077.357.329 0 .621-.075.877-.226.257-.151.459-.361.607-.629.148-.269.22-.575.217-.919.003-.349-.071-.66-.222-.932-.151-.271-.357-.484-.62-.638-.262-.156-.564-.235-.904-.235-.278-.003-.551.048-.819.154-.269.106-.482.244-.638.416l-1.516-.249.484-4.777h5.375v1.402h-3.986l-.267 2.457h.054c.172-.202.415-.37.729-.502.314-.136.657-.204 1.031-.204.561 0 1.062.133 1.503.398.44.263.787.625 1.04 1.086.254.462.38.99.38 1.584 0 .612-.142 1.158-.425 1.638-.281.476-.671.852-1.172 1.126-.498.272-1.074.407-1.728.407zm7.756.05c-.745 0-1.384-.188-1.918-.565-.531-.381-.94-.928-1.226-1.643-.284-.718-.426-1.582-.426-2.592.003-1.011.147-1.87.43-2.579.287-.712.696-1.255 1.226-1.629.534-.374 1.172-.561 1.914-.561s1.38.187 1.914.561.943.917 1.226 1.629c.287.712.43 1.571.43 2.579 0 1.013-.143 1.879-.43 2.597-.283.715-.692 1.261-1.226 1.638-.531.377-1.169.565-1.914.565zm0-1.416c.579 0 1.036-.285 1.371-.855.338-.573.507-1.416.507-2.529 0-.736-.077-1.355-.231-1.855-.154-.501-.371-.878-.651-1.131-.281-.257-.613-.385-.996-.385-.576 0-1.031.287-1.366.86-.335.57-.504 1.407-.507 2.511-.003.739.071 1.36.222 1.864.154.503.371.884.651 1.14.281.253.614.38 1 .38zm8.794-4.067v1.348h-4.172v-1.348zm4.412-4.086c.443.003.874.081 1.294.235.422.151.802.398 1.14.742.338.341.606.798.805 1.371s.299 1.282.299 2.127c.003.796-.082 1.508-.254 2.135-.168.624-.411 1.152-.728 1.584-.317.431-.698.76-1.145.986-.446.226-.948.339-1.506.339-.585 0-1.104-.114-1.557-.344-.449-.229-.813-.542-1.09-.941-.278-.398-.448-.853-.511-1.366h1.651c.085.368.256.661.516.878.262.214.593.321.991.321.642 0 1.137-.279 1.484-.837s.52-1.333.52-2.326h-.063c-.148.266-.34.495-.575.688-.235.19-.502.336-.801.439-.295.103-.609.154-.941.154-.543 0-1.031-.13-1.466-.389-.431-.26-.773-.616-1.027-1.068-.25-.452-.377-.97-.38-1.552 0-.603.139-1.145.416-1.624.281-.483.672-.863 1.172-1.14.501-.281 1.086-.418 1.756-.412zm.004 1.357c-.326 0-.62.08-.882.24-.259.157-.465.371-.615.643-.148.268-.222.568-.222.9.003.329.077.627.222.896.147.268.348.481.601.638.257.157.549.235.878.235.244 0 .472-.047.683-.14.211-.094.395-.224.552-.389.16-.169.284-.361.371-.575.091-.214.135-.44.132-.679 0-.316-.076-.609-.227-.877-.148-.269-.351-.485-.611-.647-.256-.163-.55-.245-.882-.245zm7.748-1.357c.443.003.874.081 1.294.235.422.151.802.398 1.14.742.338.341.606.798.805 1.371s.299 1.282.299 2.127c.003.796-.082 1.508-.254 2.135-.169.624-.411 1.152-.728 1.584-.317.431-.698.76-1.145.986-.446.226-.948.339-1.506.339-.586 0-1.104-.114-1.557-.344-.449-.229-.813-.542-1.09-.941-.278-.398-.448-.853-.511-1.366h1.651c.084.368.256.661.516.878.262.214.592.321.991.321.642 0 1.137-.279 1.484-.837s.52-1.333.52-2.326h-.063c-.148.266-.34.495-.575.688-.235.19-.502.336-.801.439-.295.103-.609.154-.941.154-.543 0-1.031-.13-1.466-.389-.431-.26-.773-.616-1.027-1.068-.25-.452-.377-.97-.38-1.552 0-.603.139-1.145.416-1.624.281-.483.671-.863 1.172-1.14.501-.281 1.086-.418 1.756-.412zm.004 1.357c-.326 0-.62.08-.882.24-.259.157-.465.371-.615.643-.148.268-.222.568-.222.9.003.329.077.627.222.896.147.268.348.481.601.638.257.157.549.235.878.235.244 0 .472-.047.683-.14.211-.094.395-.224.552-.389.16-.169.284-.361.371-.575.091-.214.134-.44.131-.679 0-.316-.075-.609-.226-.877-.148-.269-.351-.485-.611-.647-.256-.163-.55-.245-.882-.245zm4.549 8.036v-6.95h1.638v2.805h.597l2.09-2.805h1.973l-2.575 3.412 2.602 3.538h-1.982l-1.905-2.62h-.8v2.62z" fill="#5f5f5f"/><path d="m337.856 228.648v-1.267l3.919-4.06c.419-.442.764-.828 1.035-1.16.276-.335.481-.654.617-.956.136-.301.203-.622.203-.961 0-.385-.09-.716-.271-.995-.181-.283-.428-.5-.741-.651-.313-.154-.665-.232-1.057-.232-.415 0-.777.085-1.086.255s-.547.409-.713.718-.249.671-.249 1.086h-1.668c0-.705.162-1.322.486-1.849.325-.528.769-.937 1.335-1.228.566-.294 1.208-.441 1.928-.441.728 0 1.369.145 1.923.436.558.286.994.678 1.307 1.176.313.494.469 1.052.469 1.674 0 .43-.081.85-.243 1.261-.158.411-.435.869-.831 1.375-.396.501-.947 1.11-1.652 1.826l-2.302 2.41v.084h5.215v1.499zm13.163.192c-.894-.003-1.657-.239-2.291-.707-.633-.467-1.118-1.148-1.453-2.041-.336-.894-.504-1.97-.504-3.229 0-1.256.168-2.329.504-3.218.339-.89.825-1.569 1.459-2.036.637-.468 1.399-.702 2.285-.702s1.645.236 2.279.707c.633.468 1.118 1.146 1.453 2.036.34.886.509 1.957.509 3.213 0 1.263-.168 2.341-.503 3.234-.336.89-.82 1.571-1.454 2.042-.633.468-1.395.701-2.284.701zm0-1.51c.784 0 1.397-.382 1.838-1.148.445-.765.667-1.872.667-3.319 0-.962-.102-1.774-.305-2.438-.2-.667-.489-1.173-.866-1.516-.373-.347-.818-.52-1.334-.52-.781 0-1.394.385-1.838 1.154-.445.769-.67 1.875-.673 3.32 0 .965.099 1.781.299 2.448.204.664.492 1.167.866 1.51.373.34.822.509 1.346.509zm7.413-.265-.085.616c-.056.452-.152.924-.288 1.414-.132.494-.27.952-.413 1.374-.139.422-.254.758-.345 1.007h-1.199c.049-.234.117-.551.204-.95.086-.396.171-.839.254-1.329s.145-.99.187-1.499l.056-.633zm5.341 1.741c-.777 0-1.47-.133-2.081-.401-.607-.268-1.088-.639-1.442-1.114-.351-.479-.54-1.033-.566-1.663h1.776c.023.343.138.641.345.894.211.248.486.441.826.576.339.136.716.204 1.131.204.456 0 .859-.079 1.21-.237.354-.159.632-.379.831-.662.2-.287.3-.617.3-.99 0-.388-.1-.729-.3-1.023-.196-.298-.484-.532-.865-.702-.377-.169-.833-.254-1.369-.254h-.978v-1.425h.978c.43 0 .807-.078 1.132-.232.328-.155.584-.37.769-.645.184-.279.277-.605.277-.978 0-.359-.081-.67-.243-.934-.159-.267-.385-.477-.679-.627-.29-.151-.633-.227-1.029-.227-.377 0-.73.07-1.058.21-.324.135-.588.331-.792.588-.203.252-.313.556-.328.91h-1.691c.019-.626.204-1.176.555-1.651.354-.475.821-.847 1.402-1.114.581-.268 1.225-.402 1.934-.402.743 0 1.384.145 1.923.436.543.286.962.669 1.256 1.148.298.479.445 1.003.441 1.572.004.649-.177 1.199-.543 1.651-.362.453-.845.756-1.448.911v.09c.769.117 1.365.423 1.787.917.426.494.637 1.106.634 1.838.003.637-.174 1.208-.532 1.713-.354.506-.839.903-1.453 1.194-.615.286-1.318.429-2.11.429zm15.219-2.33v-.61c0-.438.09-.837.271-1.199.185-.366.453-.658.803-.877.355-.222.783-.334 1.284-.334.513 0 .943.11 1.29.328.347.219.609.511.786.877.181.366.271.767.271 1.205v.61c0 .438-.09.839-.271 1.205-.181.362-.447.654-.798.877-.347.218-.773.328-1.278.328-.509 0-.939-.11-1.289-.328-.351-.223-.617-.515-.798-.877-.181-.366-.271-.767-.271-1.205zm1.318-.61v.61c0 .325.077.619.231.883.155.264.425.396.809.396.381 0 .647-.132.798-.396.15-.264.226-.558.226-.883v-.61c0-.325-.074-.619-.221-.883-.143-.264-.411-.396-.803-.396-.377 0-.645.132-.803.396s-.237.558-.237.883zm-7.143-6.018v-.611c0-.437.09-.839.271-1.204.185-.366.453-.658.803-.877.355-.219.783-.328 1.284-.328.513 0 .943.109 1.289.328.347.219.609.511.787.877.177.365.265.767.265 1.204v.611c0 .437-.09.839-.271 1.205-.177.362-.441.654-.792.876-.347.219-.773.328-1.278.328-.513 0-.944-.109-1.295-.328-.347-.222-.611-.514-.792-.876-.181-.366-.271-.768-.271-1.205zm1.323-.611v.611c0 .324.075.618.226.882.155.264.424.396.809.396.377 0 .641-.132.792-.396.154-.264.232-.558.232-.882v-.611c0-.324-.074-.618-.221-.882s-.415-.396-.803-.396c-.377 0-.645.132-.803.396-.155.264-.232.558-.232.882zm-.786 9.411 7.963-11.582h1.352l-7.963 11.582z" fill="#858585"/><path d="m320.27 301.926h64.5v81.2222h-64.5z" fill="url(#d)" transform="matrix(0 -1 1 0 18.344 622.196)"/><path d="m320.27 237.426h81.222" stroke="#04b34a" stroke-width="3.18519"/><path d="m320.27 237.426h81.222" stroke="#cacaca" stroke-width="3.18519"/><path d="m337.67 309.438v9.266h-1.679v-7.633h-.054l-2.167 1.384v-1.538l2.303-1.479zm5.268 9.442c-.745 0-1.384-.188-1.918-.565-.531-.38-.94-.928-1.226-1.643-.284-.718-.426-1.582-.426-2.592.003-1.011.147-1.87.43-2.579.287-.712.695-1.255 1.226-1.629.534-.374 1.172-.561 1.914-.561s1.38.187 1.914.561.942.917 1.226 1.629c.286.712.43 1.571.43 2.579 0 1.013-.144 1.879-.43 2.597-.284.715-.692 1.261-1.226 1.638-.531.377-1.169.565-1.914.565zm0-1.416c.579 0 1.036-.285 1.371-.855.338-.573.507-1.416.507-2.529 0-.736-.077-1.355-.231-1.855-.154-.501-.371-.878-.652-1.131-.28-.257-.612-.385-.995-.385-.576 0-1.032.287-1.366.86-.335.57-.504 1.407-.507 2.511-.003.739.071 1.36.222 1.864.153.504.371.884.651 1.14.281.253.614.38 1 .38zm7.988 1.416c-.745 0-1.384-.188-1.918-.565-.531-.38-.94-.928-1.226-1.643-.284-.718-.425-1.582-.425-2.592.003-1.011.146-1.87.429-2.579.287-.712.696-1.255 1.227-1.629.533-.374 1.171-.561 1.913-.561s1.38.187 1.914.561.943.917 1.226 1.629c.287.712.43 1.571.43 2.579 0 1.013-.143 1.879-.43 2.597-.283.715-.692 1.261-1.226 1.638-.531.377-1.169.565-1.914.565zm0-1.416c.579 0 1.036-.285 1.371-.855.338-.573.507-1.416.507-2.529 0-.736-.077-1.355-.231-1.855-.154-.501-.371-.878-.651-1.131-.281-.257-.613-.385-.996-.385-.576 0-1.031.287-1.366.86-.335.57-.504 1.407-.507 2.511-.003.739.071 1.36.222 1.864.154.504.371.884.651 1.14.281.253.614.38 1 .38zm8.794-4.067v1.348h-4.171v-1.348zm4.964-3.959v9.266h-1.679v-7.633h-.054l-2.167 1.384v-1.538l2.303-1.479zm1.675 7.546v-1.334l3.932-6.212h1.113v1.9h-.678l-2.647 4.194v.072h5.488v1.38zm4.421 1.72v-2.127l.018-.597v-6.542h1.583v9.266zm6.94-9.393c.443.003.874.081 1.294.235.422.151.802.398 1.14.742.338.341.606.798.805 1.371s.299 1.282.299 2.127c.003.796-.082 1.508-.254 2.135-.169.625-.411 1.152-.728 1.584-.317.431-.698.76-1.145.986-.446.226-.948.339-1.506.339-.586 0-1.104-.114-1.557-.343-.449-.23-.813-.543-1.09-.942-.278-.398-.448-.853-.511-1.366h1.651c.084.368.256.661.516.878.262.214.592.321.991.321.642 0 1.137-.279 1.484-.837.346-.558.52-1.333.52-2.326h-.063c-.148.266-.34.495-.575.688-.235.19-.502.336-.801.439-.295.103-.609.154-.941.154-.543 0-1.031-.13-1.466-.389-.431-.26-.774-.616-1.027-1.068-.25-.452-.377-.97-.38-1.552 0-.603.139-1.145.416-1.624.281-.483.671-.863 1.172-1.14.501-.281 1.086-.418 1.756-.412zm.004 1.357c-.326 0-.62.08-.882.24-.26.157-.465.371-.615.643-.148.268-.222.568-.222.9.003.329.077.627.222.896.147.268.348.481.601.638.257.157.549.235.878.235.244 0 .472-.047.683-.14.211-.094.395-.223.552-.389.16-.169.284-.361.371-.575.091-.214.134-.44.131-.679 0-.316-.075-.609-.226-.877-.148-.269-.351-.484-.611-.647-.256-.163-.55-.245-.882-.245zm4.549 8.036v-6.95h1.638v2.805h.597l2.09-2.805h1.973l-2.575 3.412 2.602 3.538h-1.982l-1.905-2.62h-.8v2.62z" fill="#5f5f5f"/><path d="m481.497 232.195v11.583h-1.753v-9.83h-.068l-2.771 1.81v-1.674l2.89-1.889zm6.319 11.741c-.709 0-1.346-.136-1.911-.407-.562-.275-1.011-.652-1.346-1.131-.336-.479-.515-1.026-.538-1.64h1.697c.041.497.262.906.662 1.227.399.32.878.481 1.436.481.445 0 .839-.102 1.182-.306.347-.207.618-.492.815-.854.199-.362.299-.775.299-1.238 0-.472-.102-.892-.305-1.261-.204-.37-.485-.66-.843-.871-.354-.212-.761-.319-1.221-.323-.351 0-.704.061-1.058.181-.354.121-.641.279-.86.475l-1.6-.237.65-5.837h6.368v1.499h-4.914l-.368 3.241h.068c.226-.219.526-.402.899-.549.377-.147.781-.221 1.211-.221.705 0 1.332.168 1.883.504.554.335.99.793 1.306 1.374.321.577.479 1.24.475 1.991.004.75-.166 1.419-.509 2.007-.339.589-.81 1.052-1.414 1.392-.599.335-1.287.503-2.064.503zm7.219-1.742-.085.617c-.057.452-.153.923-.289 1.414-.132.493-.269.952-.412 1.374-.14.422-.255.758-.345 1.006h-1.199c.049-.233.116-.55.203-.95.087-.396.172-.839.255-1.329s.145-.989.186-1.498l.057-.634zm5.253 1.742c-.811 0-1.527-.139-2.149-.418-.619-.279-1.103-.664-1.454-1.154-.35-.49-.524-1.048-.52-1.674-.004-.49.096-.941.3-1.352.207-.415.488-.76.842-1.035.355-.279.751-.456 1.188-.531v-.068c-.577-.14-1.039-.449-1.386-.928-.346-.479-.518-1.029-.514-1.651-.004-.592.152-1.12.469-1.584.321-.467.76-.835 1.318-1.103.558-.267 1.193-.401 1.906-.401.705 0 1.335.136 1.889.407.558.268.997.635 1.317 1.103.321.464.483.99.487 1.578-.004.622-.181 1.172-.532 1.651-.35.479-.807.788-1.368.928v.068c.433.075.823.252 1.17.531.351.275.63.62.837 1.035.211.411.319.862.323 1.352-.004.626-.181 1.184-.532 1.674s-.837.875-1.459 1.154c-.618.279-1.329.418-2.132.418zm0-1.431c.479 0 .893-.079 1.244-.237.351-.162.622-.387.814-.673.193-.291.291-.63.295-1.018-.004-.404-.11-.76-.317-1.069-.204-.309-.481-.553-.832-.73-.35-.177-.752-.266-1.204-.266-.456 0-.862.089-1.216.266-.355.177-.634.421-.837.73-.204.309-.304.665-.3 1.069-.004.388.089.727.277 1.018.193.286.466.511.82.673.355.158.773.237 1.256.237zm0-5.389c.384 0 .726-.078 1.023-.232.298-.155.532-.37.702-.645.173-.275.262-.598.266-.967-.004-.362-.091-.679-.261-.95-.165-.272-.397-.481-.695-.628-.298-.151-.643-.226-1.035-.226-.4 0-.75.075-1.052.226-.298.147-.53.356-.696.628-.166.271-.247.588-.243.95-.004.369.079.692.249.967s.403.49.701.645c.302.154.649.232 1.041.232zm15.135 4.49v-.611c0-.437.091-.837.272-1.199.184-.365.452-.658.803-.876.354-.223.782-.334 1.284-.334.512 0 .942.109 1.289.328s.609.511.786.877c.181.365.272.767.272 1.204v.611c0 .437-.091.839-.272 1.205-.181.362-.447.654-.797.876-.347.219-.773.328-1.278.328-.509 0-.939-.109-1.29-.328-.351-.222-.616-.514-.797-.876-.181-.366-.272-.768-.272-1.205zm1.318-.611v.611c0 .324.077.618.232.882.154.264.424.396.809.396.38 0 .646-.132.797-.396s.226-.558.226-.882v-.611c0-.324-.073-.618-.22-.882-.144-.264-.411-.396-.803-.396-.377 0-.645.132-.804.396-.158.264-.237.558-.237.882zm-7.143-6.017v-.611c0-.437.091-.839.271-1.205.185-.365.453-.658.804-.876.354-.219.782-.328 1.283-.328.513 0 .943.109 1.29.328.347.218.609.511.786.876.177.366.266.768.266 1.205v.611c0 .437-.091.839-.272 1.204-.177.362-.441.655-.791.877-.347.219-.773.328-1.279.328-.512 0-.944-.109-1.295-.328-.347-.222-.611-.515-.792-.877-.18-.365-.271-.767-.271-1.204zm1.323-.611v.611c0 .324.076.618.227.882.154.264.424.396.808.396.377 0 .641-.132.792-.396.155-.264.232-.558.232-.882v-.611c0-.324-.073-.618-.221-.882-.147-.264-.414-.396-.803-.396-.377 0-.644.132-.803.396-.154.264-.232.558-.232.882zm-.786 9.411 7.963-11.583h1.352l-7.963 11.583z" fill="#858585"/><path d="m457.711 301.926h49.3704v82.0185h-49.3704z" fill="url(#e)" transform="matrix(0 -1 1 0 155.785 759.637)"/><path d="m457.711 252.556h82.018" stroke="#cacaca" stroke-width="3.18519"/><path d="m475.839 309.438v9.266h-1.679v-7.633h-.054l-2.168 1.384v-1.538l2.303-1.479zm5.064 9.392c-.603 0-1.143-.113-1.62-.339-.476-.229-.855-.543-1.135-.941-.278-.398-.426-.854-.444-1.366h1.629c.03.38.195.69.493.932.299.238.658.357 1.077.357.329 0 .621-.075.878-.226.256-.151.458-.361.606-.629.148-.269.22-.575.217-.919.003-.349-.071-.66-.222-.932-.15-.271-.357-.484-.619-.638-.263-.156-.564-.235-.905-.235-.278-.003-.551.048-.819.154-.269.106-.481.244-.638.416l-1.516-.249.484-4.777h5.375v1.402h-3.986l-.267 2.457h.055c.172-.202.414-.369.728-.502.314-.136.658-.204 1.032-.204.561 0 1.061.133 1.502.398.44.263.787.625 1.04 1.086.254.462.38.99.38 1.584 0 .612-.141 1.158-.425 1.638-.28.476-.671.852-1.172 1.126-.497.272-1.073.407-1.728.407zm7.756.05c-.745 0-1.384-.188-1.918-.565-.531-.38-.939-.928-1.226-1.643-.284-.718-.425-1.582-.425-2.592.003-1.011.146-1.87.429-2.579.287-.712.696-1.255 1.227-1.629.533-.374 1.171-.561 1.913-.561s1.38.187 1.914.561.943.917 1.226 1.629c.287.712.43 1.571.43 2.579 0 1.013-.143 1.879-.43 2.597-.283.715-.692 1.261-1.226 1.638-.531.377-1.169.565-1.914.565zm0-1.416c.58 0 1.037-.285 1.371-.855.338-.573.507-1.416.507-2.529 0-.736-.077-1.355-.231-1.855-.154-.501-.371-.878-.651-1.131-.281-.257-.612-.385-.996-.385-.576 0-1.031.287-1.366.86-.335.57-.504 1.407-.507 2.511-.003.739.071 1.36.222 1.864.154.504.371.884.652 1.14.28.253.613.38.999.38zm8.794-4.067v1.348h-4.171v-1.348zm4.964-3.959v9.266h-1.679v-7.633h-.054l-2.167 1.384v-1.538l2.303-1.479zm5.06-.127c.443.003.875.081 1.294.235.422.151.802.398 1.14.742.338.341.606.798.805 1.371s.299 1.282.299 2.127c.003.796-.082 1.508-.253 2.135-.169.625-.412 1.152-.729 1.584-.317.431-.698.76-1.145.986-.446.226-.948.339-1.506.339-.585 0-1.104-.114-1.557-.343-.449-.23-.812-.543-1.09-.942-.277-.398-.448-.853-.511-1.366h1.651c.085.368.257.661.516.878.262.214.593.321.991.321.642 0 1.137-.279 1.484-.837s.52-1.333.52-2.326h-.063c-.148.266-.34.495-.575.688-.235.19-.502.336-.801.439-.295.103-.609.154-.941.154-.543 0-1.031-.13-1.466-.389-.431-.26-.773-.616-1.027-1.068-.25-.452-.377-.97-.38-1.552 0-.603.139-1.145.417-1.624.28-.483.671-.863 1.171-1.14.501-.281 1.086-.418 1.756-.412zm.004 1.357c-.325 0-.619.08-.882.24-.259.157-.464.371-.615.643-.148.268-.222.568-.222.9.003.329.077.627.222.896.148.268.348.481.602.638.256.157.548.235.877.235.245 0 .472-.047.683-.14.212-.094.396-.223.552-.389.16-.169.284-.361.371-.575.091-.214.135-.44.132-.679 0-.316-.076-.609-.227-.877-.147-.269-.351-.484-.61-.647-.257-.163-.551-.245-.883-.245zm7.748-1.357c.443.003.874.081 1.294.235.422.151.802.398 1.14.742.338.341.606.798.805 1.371s.299 1.282.299 2.127c.003.796-.082 1.508-.254 2.135-.168.625-.411 1.152-.728 1.584-.317.431-.698.76-1.145.986-.446.226-.948.339-1.506.339-.585 0-1.104-.114-1.557-.343-.449-.23-.813-.543-1.09-.942-.278-.398-.448-.853-.511-1.366h1.651c.085.368.257.661.516.878.262.214.593.321.991.321.642 0 1.137-.279 1.484-.837s.52-1.333.52-2.326h-.063c-.148.266-.34.495-.575.688-.235.19-.502.336-.801.439-.295.103-.609.154-.941.154-.543 0-1.031-.13-1.466-.389-.431-.26-.773-.616-1.027-1.068-.25-.452-.377-.97-.38-1.552 0-.603.139-1.145.416-1.624.281-.483.672-.863 1.172-1.14.501-.281 1.086-.418 1.756-.412zm.004 1.357c-.325 0-.62.08-.882.24-.259.157-.464.371-.615.643-.148.268-.222.568-.222.9.003.329.077.627.222.896.148.268.348.481.601.638.257.157.549.235.878.235.245 0 .472-.047.683-.14.212-.094.396-.223.552-.389.16-.169.284-.361.371-.575.091-.214.135-.44.132-.679 0-.316-.076-.609-.227-.877-.147-.269-.351-.484-.61-.647-.257-.163-.551-.245-.883-.245zm4.549 8.036v-6.95h1.638v2.805h.597l2.09-2.805h1.973l-2.574 3.412 2.601 3.538h-1.982l-1.904-2.62h-.801v2.62z" fill="#5f5f5f"/><path d="m622.939 267.029c-.81 0-1.527-.14-2.149-.419-.618-.279-1.103-.663-1.453-1.154-.351-.49-.524-1.048-.521-1.674-.003-.49.097-.94.3-1.351.208-.415.488-.76.843-1.035.354-.279.75-.456 1.188-.532v-.068c-.577-.139-1.039-.448-1.386-.927s-.519-1.03-.515-1.652c-.004-.592.153-1.119.47-1.583.32-.468.759-.835 1.317-1.103s1.194-.402 1.906-.402c.705 0 1.335.136 1.889.408.558.267.998.635 1.318 1.102.32.464.483.99.486 1.578-.003.622-.181 1.173-.531 1.652-.351.479-.807.788-1.369.927v.068c.434.076.824.253 1.171.532.35.275.629.62.837 1.035.211.411.318.861.322 1.351-.004.626-.181 1.184-.531 1.674-.351.491-.837.875-1.46 1.154-.618.279-1.329.419-2.132.419zm0-1.431c.479 0 .894-.079 1.245-.238.35-.162.622-.386.814-.673.192-.29.29-.629.294-1.018-.004-.403-.109-.759-.317-1.069-.203-.309-.48-.552-.831-.729s-.752-.266-1.205-.266c-.456 0-.861.089-1.216.266-.354.177-.633.42-.837.729-.203.31-.303.666-.299 1.069-.004.389.088.728.277 1.018.192.287.465.511.82.673.354.159.773.238 1.255.238zm0-5.39c.385 0 .726-.077 1.024-.232.298-.154.532-.369.701-.644.174-.276.262-.598.266-.968-.004-.362-.09-.678-.26-.95-.166-.271-.398-.48-.696-.627-.298-.151-.643-.227-1.035-.227-.399 0-.75.076-1.052.227-.297.147-.529.356-.695.627-.166.272-.247.588-.243.95-.004.37.079.692.248.968.17.275.404.49.702.644.301.155.648.232 1.04.232zm7.393 5.079-.085.616c-.057.453-.153.924-.289 1.414-.132.494-.269.952-.412 1.374-.14.423-.255.758-.345 1.007h-1.199c.049-.234.116-.55.203-.95.087-.396.172-.839.255-1.329s.145-.99.186-1.499l.057-.633zm1.823 1.583 5.056-9.999v-.084h-5.848v-1.499h7.658v1.549l-5.039 10.033zm17.819-2.171v-.611c0-.438.09-.837.271-1.199.185-.366.453-.658.803-.877.355-.222.783-.333 1.284-.333.513 0 .943.109 1.29.328.346.218.608.51.786.876.181.366.271.767.271 1.205v.611c0 .437-.09.838-.271 1.204-.181.362-.447.654-.798.877-.347.218-.773.328-1.278.328-.509 0-.939-.11-1.289-.328-.351-.223-.617-.515-.798-.877-.181-.366-.271-.767-.271-1.204zm1.317-.611v.611c0 .324.078.618.232.882.155.264.425.396.809.396.381 0 .647-.132.798-.396.15-.264.226-.558.226-.882v-.611c0-.324-.074-.619-.221-.882-.143-.264-.411-.396-.803-.396-.377 0-.645.132-.803.396-.158.263-.238.558-.238.882zm-7.142-6.018v-.61c0-.438.09-.839.271-1.205.185-.366.452-.658.803-.877.355-.218.782-.328 1.284-.328.513 0 .942.11 1.289.328.347.219.609.511.786.877.178.366.266.767.266 1.205v.61c0 .438-.09.839-.271 1.205-.177.362-.441.654-.792.877-.347.218-.773.328-1.278.328-.513 0-.945-.11-1.295-.328-.347-.223-.611-.515-.792-.877-.181-.366-.271-.767-.271-1.205zm1.323-.61v.61c0 .325.075.619.226.883.155.264.424.395.809.395.377 0 .641-.131.792-.395.154-.264.232-.558.232-.883v-.61c0-.325-.074-.619-.221-.883s-.415-.396-.803-.396c-.377 0-.645.132-.803.396-.155.264-.232.558-.232.883zm-.786 9.41 7.963-11.582h1.351l-7.963 11.582z" fill="#858585"/><path d="m595.948 301.926h26.2778v82.0185h-26.2778z" fill="url(#g)" transform="matrix(0 -1 1 0 294.022 897.874)"/><path d="m595.948 275.648h82.018" stroke="#04b34a" stroke-width="3.18519"/><path d="m608.446 318.704v-1.213l3.217-3.153c.308-.311.564-.587.769-.828.206-.242.359-.475.462-.702.102-.226.154-.467.154-.724 0-.292-.067-.542-.199-.751-.133-.211-.316-.374-.548-.488-.232-.115-.496-.172-.792-.172-.304 0-.571.063-.8.19-.23.124-.408.3-.534.529-.124.229-.186.502-.186.819h-1.597c0-.588.134-1.099.403-1.534.268-.434.638-.77 1.108-1.009.474-.238 1.017-.357 1.629-.357.621 0 1.167.116 1.638.348.47.233.835.551 1.095.955.262.404.393.866.393 1.384 0 .347-.066.688-.199 1.023-.132.335-.366.706-.701 1.113-.332.407-.798.9-1.398 1.479l-1.597 1.625v.063h4.036v1.403zm10.829.176c-.745 0-1.385-.188-1.918-.565-.531-.381-.94-.928-1.227-1.643-.283-.718-.425-1.582-.425-2.592.003-1.011.146-1.87.43-2.579.287-.712.695-1.255 1.226-1.629.534-.374 1.172-.561 1.914-.561s1.38.187 1.914.561.942.917 1.226 1.629c.286.712.43 1.571.43 2.579 0 1.013-.144 1.879-.43 2.597-.284.715-.692 1.261-1.226 1.638-.531.377-1.169.565-1.914.565zm0-1.416c.579 0 1.036-.285 1.371-.855.338-.573.507-1.416.507-2.529 0-.736-.077-1.355-.231-1.855-.154-.501-.371-.878-.652-1.131-.28-.257-.612-.385-.995-.385-.576 0-1.032.287-1.366.86-.335.57-.504 1.407-.507 2.511-.003.739.071 1.36.222 1.864.153.503.371.884.651 1.14.281.253.614.38 1 .38zm7.988 1.416c-.745 0-1.384-.188-1.918-.565-.531-.381-.94-.928-1.226-1.643-.284-.718-.425-1.582-.425-2.592.003-1.011.146-1.87.429-2.579.287-.712.696-1.255 1.226-1.629.534-.374 1.172-.561 1.914-.561s1.38.187 1.914.561.943.917 1.226 1.629c.287.712.43 1.571.43 2.579 0 1.013-.143 1.879-.43 2.597-.283.715-.692 1.261-1.226 1.638-.531.377-1.169.565-1.914.565zm0-1.416c.579 0 1.036-.285 1.371-.855.338-.573.507-1.416.507-2.529 0-.736-.077-1.355-.231-1.855-.154-.501-.371-.878-.651-1.131-.281-.257-.613-.385-.996-.385-.576 0-1.031.287-1.366.86-.335.57-.504 1.407-.507 2.511-.003.739.071 1.36.222 1.864.154.503.371.884.651 1.14.281.253.614.38 1 .38zm8.794-4.067v1.348h-4.172v-1.348zm.871 5.307v-1.213l3.217-3.153c.308-.311.564-.587.769-.828.206-.242.359-.475.462-.702.102-.226.154-.467.154-.724 0-.292-.067-.542-.199-.751-.133-.211-.316-.374-.548-.488-.232-.115-.496-.172-.792-.172-.304 0-.571.063-.8.19-.23.124-.408.3-.534.529-.124.229-.186.502-.186.819h-1.597c0-.588.134-1.099.403-1.534.268-.434.638-.77 1.108-1.009.474-.238 1.017-.357 1.629-.357.621 0 1.167.116 1.638.348.47.233.835.551 1.095.955.262.404.393.866.393 1.384 0 .347-.066.688-.199 1.023-.132.335-.366.706-.701 1.113-.332.407-.798.9-1.398 1.479l-1.597 1.625v.063h4.036v1.403zm7.038-1.72v-1.334l3.931-6.212h1.113v1.9h-.678l-2.647 4.194v.072h5.488v1.38zm4.42 1.72v-2.127l.018-.597v-6.542h1.584v9.266zm6.94-9.393c.443.003.874.081 1.294.235.422.151.802.398 1.14.742.338.341.606.798.805 1.371s.299 1.282.299 2.127c.003.796-.082 1.508-.254 2.135-.169.624-.411 1.152-.728 1.584-.317.431-.698.76-1.145.986-.446.226-.948.339-1.506.339-.585 0-1.104-.114-1.557-.344-.449-.229-.813-.542-1.09-.941-.278-.398-.448-.853-.511-1.366h1.651c.084.368.256.661.516.878.262.214.593.321.991.321.642 0 1.137-.279 1.484-.837s.52-1.333.52-2.326h-.063c-.148.266-.34.495-.575.688-.235.19-.502.336-.801.439-.295.103-.609.154-.941.154-.543 0-1.031-.13-1.466-.389-.431-.26-.773-.616-1.027-1.068-.25-.452-.377-.97-.38-1.552 0-.603.139-1.145.416-1.624.281-.483.672-.863 1.172-1.14.501-.281 1.086-.418 1.756-.412zm.004 1.357c-.326 0-.62.08-.882.24-.259.157-.465.371-.615.643-.148.268-.222.568-.222.9.003.329.077.627.222.896.147.268.348.481.601.638.257.157.549.235.878.235.244 0 .472-.047.683-.14.211-.094.395-.224.552-.389.16-.169.284-.361.371-.575.091-.214.135-.44.131-.679 0-.316-.075-.609-.226-.877-.148-.269-.351-.485-.611-.647-.256-.163-.55-.245-.882-.245zm4.549 8.036v-6.95h1.638v2.805h.597l2.09-2.805h1.973l-2.575 3.412 2.602 3.538h-1.982l-1.904-2.62h-.801v2.62z" fill="#5f5f5f"/><path d="m759.456 225.825v11.582h-1.753v-9.829h-.068l-2.771 1.81v-1.674l2.89-1.889zm2.887 11.582 5.056-9.999v-.084h-5.848v-1.499h7.657v1.549l-5.039 10.033zm8.427-1.583-.085.616c-.056.453-.153.924-.288 1.414-.132.494-.27.952-.413 1.374-.14.423-.255.758-.345 1.007h-1.199c.049-.234.117-.55.204-.95.086-.396.171-.839.254-1.329s.145-.99.187-1.499l.056-.633zm1.823 1.583 5.056-9.999v-.084h-5.848v-1.499h7.658v1.549l-5.039 10.033zm17.819-2.171v-.611c0-.437.091-.837.272-1.199.184-.366.452-.658.803-.877.354-.222.782-.333 1.283-.333.513 0 .943.109 1.29.328.347.218.609.511.786.876.181.366.271.768.271 1.205v.611c0 .437-.09.839-.271 1.204-.181.362-.447.654-.797.877-.347.219-.773.328-1.279.328-.509 0-.938-.109-1.289-.328-.351-.223-.617-.515-.797-.877-.181-.365-.272-.767-.272-1.204zm1.318-.611v.611c0 .324.077.618.232.882.154.264.424.396.808.396.381 0 .647-.132.798-.396s.226-.558.226-.882v-.611c0-.324-.073-.618-.221-.882-.143-.264-.41-.396-.803-.396-.377 0-.644.132-.803.396-.158.264-.237.558-.237.882zm-7.143-6.018v-.61c0-.438.09-.839.271-1.205.185-.366.453-.658.803-.877.355-.218.783-.328 1.284-.328.513 0 .943.11 1.29.328.347.219.609.511.786.877s.266.767.266 1.205v.61c0 .438-.091.839-.272 1.205-.177.362-.441.654-.792.877-.347.218-.773.328-1.278.328-.513 0-.944-.11-1.295-.328-.347-.223-.611-.515-.792-.877-.181-.366-.271-.767-.271-1.205zm1.323-.61v.61c0 .325.076.619.226.883.155.264.425.396.809.396.377 0 .641-.132.792-.396.155-.264.232-.558.232-.883v-.61c0-.325-.074-.619-.221-.883s-.414-.396-.803-.396c-.377 0-.645.132-.803.396-.154.264-.232.558-.232.883zm-.786 9.41 7.963-11.582h1.352l-7.963 11.582z" fill="#858585"/><path d="m734.185 301.926h55.7407v82.0185h-55.7407z" fill="url(#h)" transform="matrix(0 -1 1 0 432.259 1036.111)"/><path d="m734.185 246.185h82.019" stroke="#cacaca" stroke-width="3.18519"/><path d="m746.441 318.704v-1.213l3.217-3.153c.308-.311.564-.587.769-.828.205-.242.359-.475.462-.702.102-.226.153-.467.153-.724 0-.292-.066-.542-.199-.751-.132-.211-.315-.374-.547-.488-.232-.115-.496-.172-.792-.172-.305 0-.571.063-.801.19-.229.124-.407.3-.534.529-.123.229-.185.502-.185.819h-1.597c0-.588.134-1.099.402-1.534.269-.434.638-.77 1.109-1.009.474-.238 1.016-.357 1.629-.357.621 0 1.167.116 1.638.348.47.233.835.551 1.094.955.263.404.394.866.394 1.384 0 .347-.066.688-.199 1.023s-.366.706-.701 1.113c-.332.407-.798.9-1.398 1.48l-1.597 1.624v.063h4.035v1.403zm10.625.126c-.603 0-1.143-.113-1.62-.339-.476-.229-.855-.543-1.135-.941-.278-.398-.426-.854-.444-1.366h1.629c.03.38.195.69.493.932.299.238.658.357 1.077.357.329 0 .621-.075.878-.226.256-.151.458-.361.606-.629.148-.269.22-.575.217-.919.003-.349-.071-.66-.221-.932-.151-.271-.358-.484-.62-.638-.263-.156-.564-.235-.905-.235-.278-.003-.551.048-.819.154-.269.106-.481.244-.638.416l-1.516-.249.484-4.777h5.375v1.402h-3.986l-.267 2.457h.055c.172-.202.414-.369.728-.502.314-.136.658-.204 1.032-.204.561 0 1.061.133 1.502.398.44.263.787.625 1.04 1.086.254.462.38.99.38 1.584 0 .612-.141 1.158-.425 1.638-.28.476-.671.852-1.172 1.126-.497.272-1.073.407-1.728.407zm7.757.05c-.746 0-1.385-.188-1.919-.565-.531-.38-.939-.928-1.226-1.643-.283-.718-.425-1.582-.425-2.592.003-1.011.146-1.87.43-2.579.286-.712.695-1.255 1.226-1.629.534-.374 1.172-.561 1.914-.561s1.379.187 1.913.561.943.917 1.226 1.629c.287.712.43 1.571.43 2.579 0 1.013-.143 1.879-.43 2.597-.283.715-.692 1.261-1.226 1.638-.531.377-1.168.565-1.913.565zm0-1.416c.579 0 1.036-.285 1.37-.855.338-.573.507-1.416.507-2.529 0-.736-.077-1.355-.231-1.855-.153-.501-.371-.878-.651-1.131-.281-.257-.612-.385-.995-.385-.577 0-1.032.287-1.367.86-.335.57-.504 1.407-.507 2.511-.003.739.071 1.36.222 1.864.154.504.371.884.652 1.14.28.253.613.38 1 .38zm8.793-4.067v1.348h-4.171v-1.348zm4.417 5.433c-.604 0-1.144-.113-1.62-.339-.477-.229-.855-.543-1.136-.941-.277-.398-.425-.854-.443-1.366h1.629c.03.38.194.69.493.932.298.238.657.357 1.077.357.328 0 .621-.075.877-.226.257-.151.459-.361.607-.629.147-.269.22-.575.217-.919.003-.349-.071-.66-.222-.932-.151-.271-.357-.484-.62-.638-.262-.156-.564-.235-.905-.235-.277-.003-.55.048-.819.154-.268.106-.481.244-.638.416l-1.515-.249.484-4.777h5.375v1.402h-3.986l-.267 2.457h.054c.172-.202.415-.369.729-.502.313-.136.657-.204 1.031-.204.561 0 1.062.133 1.502.398.441.263.788.625 1.041 1.086.253.462.38.99.38 1.584 0 .612-.142 1.158-.425 1.638-.281.476-.671.852-1.172 1.126-.498.272-1.074.407-1.728.407zm7.756.05c-.745 0-1.384-.188-1.918-.565-.531-.38-.94-.928-1.226-1.643-.284-.718-.426-1.582-.426-2.592.003-1.011.147-1.87.43-2.579.287-.712.695-1.255 1.226-1.629.534-.374 1.172-.561 1.914-.561s1.38.187 1.914.561.942.917 1.226 1.629c.286.712.43 1.571.43 2.579 0 1.013-.144 1.879-.43 2.597-.284.715-.692 1.261-1.226 1.638-.531.377-1.169.565-1.914.565zm0-1.416c.579 0 1.036-.285 1.371-.855.338-.573.507-1.416.507-2.529 0-.736-.077-1.355-.231-1.855-.154-.501-.371-.878-.652-1.131-.28-.257-.612-.385-.995-.385-.576 0-1.032.287-1.366.86-.335.57-.504 1.407-.507 2.511-.003.739.071 1.36.222 1.864.153.504.371.884.651 1.14.281.253.614.38 1 .38zm7.988 1.416c-.745 0-1.384-.188-1.918-.565-.531-.38-.94-.928-1.226-1.643-.284-.718-.425-1.582-.425-2.592.003-1.011.146-1.87.429-2.579.287-.712.696-1.255 1.227-1.629.533-.374 1.171-.561 1.913-.561s1.38.187 1.914.561.943.917 1.226 1.629c.287.712.43 1.571.43 2.579 0 1.013-.143 1.879-.43 2.597-.283.715-.692 1.261-1.226 1.638-.531.377-1.169.565-1.914.565zm0-1.416c.579 0 1.036-.285 1.371-.855.338-.573.507-1.416.507-2.529 0-.736-.077-1.355-.231-1.855-.154-.501-.371-.878-.651-1.131-.281-.257-.613-.385-.996-.385-.576 0-1.031.287-1.366.86-.335.57-.504 1.407-.507 2.511-.003.739.071 1.36.222 1.864.154.504.371.884.651 1.14.281.253.614.38 1 .38zm4.582 1.24v-6.95h1.638v2.805h.597l2.09-2.805h1.973l-2.575 3.412 2.602 3.538h-1.982l-1.905-2.62h-.8v2.62z" fill="#5f5f5f"/><path d="m43.7959 303.389h772.407v.796296h-772.407z" fill="#cacaca"/><rect fill="#f7f7f7" height="234.907" rx="15.9259" width="796.296" x="31.8516" y="365.5"/><path d="m45.5053 389.444h-1.4558l2.6505-7.528h1.6837l2.6541 7.528h-1.4557l-2.0109-5.984h-.0588zm.0478-2.951h3.9701v1.095h-3.9701zm7.5115 2.951v-7.528h2.882c.5441 0 .9963.086 1.3565.257.3627.169.6335.401.8124.695.1814.294.2721.627.2721 1 0 .306-.0589.568-.1765.786-.1176.216-.2757.391-.4742.526s-.4203.232-.6654.291v.073c.2672.015.5233.097.7683.246.2475.147.4497.356.6066.625.1568.27.2352.596.2352.978 0 .39-.0943.74-.283 1.052-.1887.308-.473.552-.8529.731-.3798.179-.8577.268-1.4336.268zm1.3638-1.139h1.4668c.495 0 .8516-.095 1.0697-.283.2206-.191.3309-.436.3309-.735 0-.223-.0552-.424-.1655-.603-.1102-.182-.2671-.324-.4705-.427-.2034-.105-.446-.158-.7279-.158h-1.5035zm0-3.187h1.3491c.2353 0 .4473-.043.636-.129.1887-.088.337-.212.4448-.371.1103-.162.1654-.353.1654-.574 0-.291-.1029-.532-.3088-.72-.2034-.189-.506-.283-.9079-.283h-1.3786zm11.3163-3.202v1.143h-3.4776v6.385h-1.3638v-7.528zm2.8613 7.631v-1.147h.4301c.1936 0 .3529-.028.4779-.084.1249-.057.2254-.137.3014-.243.0784-.105.1434-.228.1948-.367l.0993-.254-2.6909-5.536h1.4263l1.8748 4.029 1.6212-4.029h1.4042l-2.5953 6.139c-.1201.265-.2585.511-.4154.739-.1568.225-.3615.408-.6139.547-.25.138-.5759.206-.9778.206zm13.1653-5.091h-1.3748c-.0393-.226-.1116-.425-.2169-.599-.1054-.177-.2365-.326-.3934-.449-.1568-.122-.3357-.214-.5367-.275-.1985-.064-.4129-.096-.6433-.096-.4093 0-.772.103-1.0881.309-.3162.203-.5637.502-.7426.897-.1789.392-.2683.871-.2683 1.437 0 .576.0894 1.061.2683 1.456.1814.392.4289.688.7426.889.3161.199.6776.298 1.0844.298.2255 0 .4363-.029.6323-.088.1985-.061.3762-.151.533-.268.1593-.118.2929-.263.4007-.434.1103-.172.1863-.368.228-.588l1.3748.007c-.0515.358-.163.694-.3345 1.007-.1691.314-.3909.591-.6654.831-.2745.238-.5955.424-.9631.559-.3676.132-.7757.198-1.2242.198-.6616 0-1.2523-.153-1.7718-.459-.5196-.307-.9288-.749-1.2278-1.327-.299-.579-.4485-1.272-.4485-2.081 0-.811.1507-1.505.4521-2.081.3015-.578.712-1.02 1.2315-1.327.5196-.306 1.1078-.459 1.7645-.459.4191 0 .8088.059 1.169.176.3603.118.6813.291.9632.519.2818.225.5134.502.6948.83.1838.326.3038.699.3602 1.118zm1.9533-1.397v-1.143h6.0067v1.143h-2.3269v6.385h-1.3528v-6.385z" fill="#000" opacity=".6"/><path d="m72.2289 545.732c-.7088 0-1.346-.135-1.9116-.407-.5617-.275-1.0104-.652-1.346-1.131-.3355-.479-.5146-1.025-.5373-1.64h1.6967c.0415.498.262.907.6617 1.227.3997.321.8785.481 1.4365.481.4449 0 .8389-.102 1.182-.305.3469-.208.6183-.492.8144-.854.1998-.362.2997-.775.2997-1.239 0-.471-.1018-.892-.3054-1.261-.2036-.37-.4845-.66-.8426-.871-.3544-.211-.7616-.319-1.2216-.322-.3507 0-.7032.06-1.0576.181-.3544.12-.641.279-.8596.475l-1.6006-.238.6504-5.836h6.3681v1.498h-4.9146l-.3676 3.241h.0679c.2262-.219.5259-.402.8992-.549.377-.147.7804-.22 1.2103-.22.705 0 1.3328.167 1.8832.503.5543.336.9898.794 1.3065 1.374.3205.577.4788 1.241.475 1.991.0038.75-.1659 1.42-.509 2.008-.3393.588-.8106 1.052-1.4138 1.391-.5995.336-1.2876.503-2.0643.503zm7.2185-1.742-.0849.617c-.0565.452-.1527.924-.2884 1.414-.132.494-.2696.952-.4128 1.374-.1396.422-.2545.758-.345 1.007h-1.199c.049-.234.1169-.551.2036-.95.0867-.396.1715-.839.2545-1.329.0829-.491.1452-.99.1866-1.499l.0566-.634zm4.7229-9.998v11.582h-1.7532v-9.829h-.0678l-2.7712 1.81v-1.675l2.8899-1.888zm12.1196 9.41v-.61c0-.438.0905-.837.2715-1.199.1848-.366.4524-.658.8031-.877.3544-.223.7823-.334 1.2838-.334.5128 0 .9426.11 1.2894.328.3473.219.6093.511.7863.877.181.366.271.767.271 1.205v.61c0 .438-.09.839-.271 1.205-.181.362-.447.654-.7976.877-.3468.218-.7729.328-1.2781.328-.509 0-.9388-.11-1.2895-.328-.3506-.223-.6164-.515-.7974-.877-.181-.366-.2715-.767-.2715-1.205zm1.3178-.61v.61c0 .325.0773.619.2319.883.1545.264.4241.395.8087.395.3808 0 .6466-.131.7974-.395s.2262-.558.2262-.883v-.61c0-.325-.0735-.619-.2205-.883-.1433-.264-.411-.396-.8031-.396-.377 0-.6447.132-.8031.396-.1583.264-.2375.558-.2375.883zm-7.1429-6.018v-.611c0-.437.0904-.839.2714-1.204.1848-.366.4525-.658.8031-.877.3544-.219.7824-.328 1.2838-.328.5128 0 .9426.109 1.2895.328.3468.219.6089.511.7861.877.1772.365.2658.767.2658 1.204v.611c0 .437-.0905.839-.2715 1.205-.1772.362-.4411.654-.7917.876-.3469.219-.773.328-1.2782.328-.5128 0-.9445-.109-1.2951-.328-.3469-.222-.6108-.514-.7918-.876-.181-.366-.2714-.768-.2714-1.205zm1.3234-.611v.611c0 .324.0754.618.2262.882.1546.264.4241.396.8087.396.377 0 .641-.132.7918-.396.1546-.264.2319-.558.2319-.882v-.611c0-.324-.0736-.618-.2206-.882s-.4147-.396-.8031-.396c-.377 0-.6447.132-.8031.396-.1546.264-.2318.558-.2318.882zm-.7862 9.411 7.963-11.582h1.352l-7.9633 11.582z" fill="#858585"/><path d="m43.7959 568.685h14.3333v82.0185h-14.3333z" fill="url(#i)" transform="matrix(0 -1 1 0 -524.8891 612.4809)"/><path d="m43.7959 554.352h82.0181" stroke="#04b34a" stroke-width="3.18519"/><path d="m43.7959 554.352h82.0181" stroke="#cacaca" stroke-width="3.18519"/><path d="m70.856 585.639c-.745 0-1.3845-.188-1.9184-.565-.5308-.38-.9395-.928-1.2261-1.643-.2835-.717-.4253-1.582-.4253-2.592.003-1.01.1463-1.87.4298-2.579.2866-.712.6953-1.255 1.2262-1.629.5338-.374 1.1718-.561 1.9138-.561s1.3799.187 1.9138.561.9426.917 1.2261 1.629c.2866.712.4298 1.572.4298 2.579 0 1.013-.1432 1.879-.4298 2.597-.2835.715-.6922 1.261-1.2261 1.638-.5309.377-1.1688.565-1.9138.565zm0-1.416c.5791 0 1.0361-.285 1.3709-.855.3378-.573.5067-1.416.5067-2.529 0-.736-.0769-1.354-.2307-1.855-.1539-.501-.371-.878-.6515-1.131-.2806-.257-.6123-.385-.9954-.385-.5761 0-1.0316.287-1.3664.86-.3348.57-.5037 1.407-.5067 2.511-.003.739.0709 1.36.2217 1.864.1538.504.371.884.6515 1.14.2805.254.6138.38.9999.38zm8.7937-4.067v1.348h-4.1715v-1.348zm1.0275 3.588v-1.335l3.9317-6.212h1.113v1.9h-.6786l-2.6468 4.194v.073h5.4881v1.38zm4.4204 1.719v-2.127l.0181-.597v-6.542h1.5835v9.266zm6.9398-9.393c.4434.003.8747.082 1.294.236.4222.15.8023.398 1.1401.742.3378.34.6063.797.8054 1.37.199.574.2986 1.282.2986 2.127.003.796-.0815 1.508-.2534 2.135-.1689.625-.4117 1.153-.7284 1.584s-.6983.76-1.1447.986c-.4464.227-.9486.34-1.5066.34-.5852 0-1.104-.115-1.5564-.344-.4495-.229-.8129-.543-1.0904-.941s-.4479-.854-.5113-1.367h1.6514c.0845.368.2564.661.5158.878.2624.214.5927.321.9909.321.6424 0 1.1371-.279 1.484-.837.3468-.558.5203-1.333.5203-2.325h-.0634c-.1478.265-.3393.494-.5746.687-.2352.19-.5022.337-.8008.439-.2956.103-.6093.154-.9411.154-.5429 0-1.0315-.13-1.4659-.389-.4313-.259-.7736-.615-1.027-1.068-.2504-.452-.377-.969-.3801-1.552 0-.603.1388-1.144.4163-1.624.2805-.482.6711-.863 1.1718-1.14.5007-.281 1.0859-.418 1.7555-.412zm.0045 1.358c-.3258 0-.6198.08-.8823.239-.2594.157-.4645.371-.6153.643-.1478.268-.2217.568-.2217.9.003.329.0769.628.2217.896.1478.268.3484.481.6018.638.2564.157.5489.235.8777.235.2443 0 .4721-.047.6832-.14.2111-.094.3951-.223.552-.389.1598-.169.2835-.361.371-.575.0905-.214.1342-.44.1312-.678 0-.317-.0754-.61-.2262-.878-.1478-.269-.3514-.484-.6108-.647-.2564-.163-.5505-.244-.8823-.244zm4.5487 8.035v-6.95h1.6378v2.806h.5972l2.0904-2.806h1.973l-2.575 3.412 2.602 3.538h-1.982l-1.9048-2.62h-.8008v2.62z" fill="#5f5f5f"/><path d="m199.986 485.852v-1.267l3.919-4.061c.419-.441.764-.827 1.035-1.159.275-.336.481-.654.616-.956.136-.301.204-.622.204-.961 0-.385-.09-.717-.271-.996-.181-.282-.428-.499-.741-.65-.313-.155-.666-.232-1.058-.232-.415 0-.777.085-1.086.255-.309.169-.546.409-.712.718s-.249.671-.249 1.086h-1.669c0-.705.163-1.322.487-1.85s.769-.937 1.334-1.227c.566-.294 1.209-.441 1.929-.441.728 0 1.369.145 1.923.435.558.287.993.679 1.306 1.177.313.494.47 1.052.47 1.674 0 .43-.081.85-.243 1.261-.159.411-.436.869-.832 1.374-.396.502-.946 1.111-1.651 1.827l-2.302 2.409v.085h5.214v1.499zm13.162.158c-.777 0-1.47-.134-2.081-.401-.607-.268-1.088-.639-1.442-1.115-.351-.478-.539-1.033-.566-1.662h1.776c.023.343.138.641.345.893.211.249.486.441.826.577.339.136.716.204 1.131.204.456 0 .859-.079 1.21-.238.355-.158.632-.379.831-.661.2-.287.3-.617.3-.99 0-.388-.1-.73-.3-1.024-.196-.298-.484-.531-.865-.701-.377-.17-.833-.255-1.368-.255h-.979v-1.425h.979c.429 0 .806-.077 1.131-.232.328-.154.584-.369.769-.644.185-.279.277-.606.277-.979 0-.358-.081-.669-.243-.933-.159-.268-.385-.477-.679-.628-.29-.151-.633-.226-1.029-.226-.377 0-.73.07-1.058.209-.324.136-.588.332-.792.589-.203.252-.313.556-.328.91h-1.691c.019-.626.204-1.176.555-1.651.354-.475.822-.847 1.402-1.114.581-.268 1.226-.402 1.934-.402.743 0 1.384.145 1.923.435.543.287.962.67 1.256 1.149.298.478.445 1.002.441 1.572.004.648-.177 1.199-.543 1.651-.362.453-.845.756-1.448.911v.09c.769.117 1.365.422 1.787.916.426.494.638 1.107.634 1.838.004.638-.174 1.209-.532 1.714-.354.505-.839.903-1.453 1.193-.615.287-1.318.43-2.11.43zm7.476-1.742-.085.617c-.056.452-.153.923-.288 1.414-.132.494-.27.952-.413 1.374-.14.422-.255.758-.345 1.007h-1.199c.049-.234.117-.551.203-.951.087-.395.172-.838.255-1.329.083-.49.145-.989.187-1.498l.056-.634zm5.341 1.742c-.777 0-1.471-.134-2.081-.401-.607-.268-1.088-.639-1.443-1.115-.35-.478-.539-1.033-.565-1.662h1.776c.022.343.137.641.345.893.211.249.486.441.825.577.34.136.717.204 1.131.204.457 0 .86-.079 1.211-.238.354-.158.631-.379.831-.661.2-.287.3-.617.3-.99 0-.388-.1-.73-.3-1.024-.196-.298-.484-.531-.865-.701-.377-.17-.833-.255-1.369-.255h-.978v-1.425h.978c.43 0 .807-.077 1.131-.232.328-.154.585-.369.769-.644.185-.279.278-.606.278-.979 0-.358-.081-.669-.244-.933-.158-.268-.384-.477-.678-.628-.291-.151-.634-.226-1.03-.226-.377 0-.729.07-1.057.209-.324.136-.588.332-.792.589-.204.252-.313.556-.328.91h-1.691c.019-.626.204-1.176.554-1.651.355-.475.822-.847 1.403-1.114.58-.268 1.225-.402 1.934-.402.743 0 1.384.145 1.923.435.543.287.961.67 1.255 1.149.298.478.445 1.002.442 1.572.003.648-.178 1.199-.543 1.651-.362.453-.845.756-1.448.911v.09c.769.117 1.365.422 1.787.916.426.494.637 1.107.633 1.838.004.638-.173 1.209-.531 1.714-.355.505-.839.903-1.454 1.193-.614.287-1.317.43-2.109.43zm15.219-2.33v-.611c0-.437.09-.837.271-1.199.185-.365.453-.658.803-.876.355-.223.783-.334 1.284-.334.513 0 .943.109 1.289.328.347.219.609.511.787.877.181.365.271.767.271 1.204v.611c0 .437-.09.839-.271 1.205-.181.362-.447.654-.798.876-.347.219-.773.328-1.278.328-.509 0-.939-.109-1.289-.328-.351-.222-.617-.514-.798-.876-.181-.366-.271-.768-.271-1.205zm1.317-.611v.611c0 .324.078.618.232.882.155.264.424.396.809.396.381 0 .647-.132.797-.396.151-.264.227-.558.227-.882v-.611c0-.324-.074-.618-.221-.882-.143-.264-.411-.396-.803-.396-.377 0-.645.132-.803.396s-.238.558-.238.882zm-7.143-6.017v-.611c0-.437.091-.839.272-1.205.185-.365.452-.658.803-.876.354-.219.782-.328 1.284-.328.513 0 .942.109 1.289.328.347.218.609.511.786.876.178.366.266.768.266 1.205v.611c0 .437-.09.839-.271 1.204-.178.362-.441.655-.792.877-.347.219-.773.328-1.278.328-.513 0-.945-.109-1.295-.328-.347-.222-.611-.515-.792-.877-.181-.365-.272-.767-.272-1.204zm1.324-.611v.611c0 .324.075.618.226.882.155.264.424.396.809.396.377 0 .641-.132.792-.396.154-.264.231-.558.231-.882v-.611c0-.324-.073-.618-.22-.882s-.415-.396-.803-.396c-.377 0-.645.132-.803.396-.155.264-.232.558-.232.882zm-.786 9.411 7.963-11.583h1.351l-7.963 11.583z" fill="#858585"/><path d="m182.033 568.685h74.0556v82.0185h-74.0556z" fill="url(#j)" transform="matrix(0 -1 1 0 -386.652 750.718)"/><path d="m182.033 494.63h82.018" stroke="#cacaca" stroke-width="3.18519"/><path d="m205.225 585.59c-.604 0-1.143-.114-1.62-.34-.477-.229-.855-.543-1.136-.941-.277-.398-.425-.853-.443-1.366h1.629c.03.38.194.691.493.932.299.238.657.357 1.077.357.329 0 .621-.075.877-.226.257-.151.459-.36.607-.629.148-.268.22-.574.217-.918.003-.35-.071-.661-.222-.932-.151-.272-.357-.484-.62-.638-.262-.157-.564-.236-.904-.236-.278-.003-.551.049-.819.154-.269.106-.482.245-.638.417l-1.516-.249.484-4.778h5.375v1.402h-3.986l-.267 2.457h.054c.172-.202.415-.369.729-.502.314-.136.657-.204 1.031-.204.561 0 1.062.133 1.503.399.44.262.787.624 1.04 1.085.254.462.38.99.38 1.584 0 .612-.142 1.158-.425 1.638-.281.476-.671.852-1.172 1.126-.498.272-1.074.408-1.728.408zm7.756.049c-.745 0-1.384-.188-1.918-.565-.531-.38-.94-.928-1.226-1.643-.284-.717-.426-1.582-.426-2.592.003-1.01.147-1.87.43-2.579.287-.712.696-1.255 1.226-1.629.534-.374 1.172-.561 1.914-.561s1.38.187 1.914.561.943.917 1.226 1.629c.287.712.43 1.572.43 2.579 0 1.013-.143 1.879-.43 2.597-.283.715-.692 1.261-1.226 1.638-.531.377-1.169.565-1.914.565zm0-1.416c.579 0 1.036-.285 1.371-.855.338-.573.507-1.416.507-2.529 0-.736-.077-1.354-.231-1.855s-.371-.878-.651-1.131c-.281-.257-.613-.385-.996-.385-.576 0-1.031.287-1.366.86-.335.57-.504 1.407-.507 2.511-.003.739.071 1.36.222 1.864.154.504.371.884.651 1.14.281.254.614.38 1 .38zm8.794-4.067v1.348h-4.172v-1.348zm4.412-4.086c.443.003.874.082 1.294.236.422.15.802.398 1.14.742.338.34.606.797.805 1.37.199.574.299 1.282.299 2.127.003.796-.082 1.508-.254 2.135-.168.625-.411 1.153-.728 1.584s-.698.76-1.145.986c-.446.226-.948.34-1.506.34-.585 0-1.104-.115-1.557-.344-.449-.229-.813-.543-1.09-.941-.278-.398-.448-.854-.511-1.367h1.651c.085.368.256.661.516.878.262.214.593.321.991.321.642 0 1.137-.279 1.484-.837s.52-1.333.52-2.325h-.063c-.148.265-.34.494-.575.687-.235.19-.502.337-.801.439-.295.103-.609.154-.941.154-.543 0-1.031-.13-1.466-.389-.431-.259-.773-.615-1.027-1.068-.25-.452-.377-.969-.38-1.552 0-.603.139-1.144.416-1.624.281-.482.672-.863 1.172-1.14.501-.281 1.086-.418 1.756-.412zm.004 1.358c-.326 0-.62.079-.882.239-.259.157-.465.371-.615.643-.148.268-.222.568-.222.9.003.329.077.628.222.896.147.268.348.481.601.638.257.157.549.235.878.235.244 0 .472-.047.683-.14.211-.094.395-.223.552-.389.16-.169.284-.361.371-.575.091-.214.135-.44.132-.678 0-.317-.076-.61-.227-.878-.148-.269-.351-.484-.611-.647-.256-.163-.55-.244-.882-.244zm7.748-1.358c.443.003.874.082 1.294.236.422.15.802.398 1.14.742.338.34.606.797.805 1.37.199.574.299 1.282.299 2.127.003.796-.082 1.508-.254 2.135-.169.625-.411 1.153-.728 1.584s-.698.76-1.145.986c-.446.226-.948.34-1.506.34-.586 0-1.104-.115-1.557-.344-.449-.229-.813-.543-1.09-.941-.278-.398-.448-.854-.511-1.367h1.651c.084.368.256.661.516.878.262.214.592.321.991.321.642 0 1.137-.279 1.484-.837s.52-1.333.52-2.325h-.063c-.148.265-.34.494-.575.687-.235.19-.502.337-.801.439-.295.103-.609.154-.941.154-.543 0-1.031-.13-1.466-.389-.431-.259-.773-.615-1.027-1.068-.25-.452-.377-.969-.38-1.552 0-.603.139-1.144.416-1.624.281-.482.671-.863 1.172-1.14.501-.281 1.086-.418 1.756-.412zm.004 1.358c-.326 0-.62.079-.882.239-.259.157-.465.371-.615.643-.148.268-.222.568-.222.9.003.329.077.628.222.896.147.268.348.481.601.638.257.157.549.235.878.235.244 0 .472-.047.683-.14.211-.094.395-.223.552-.389.16-.169.284-.361.371-.575.091-.214.134-.44.131-.678 0-.317-.075-.61-.226-.878-.148-.269-.351-.484-.611-.647-.256-.163-.55-.244-.882-.244zm4.549 8.035v-6.95h1.638v2.806h.597l2.09-2.806h1.973l-2.575 3.412 2.602 3.538h-1.982l-1.905-2.62h-.8v2.62z" fill="#5f5f5f"/><path d="m337.856 497v-1.267l3.919-4.061c.419-.441.764-.827 1.035-1.159.276-.335.481-.654.617-.956.136-.301.203-.622.203-.961 0-.385-.09-.716-.271-.996-.181-.282-.428-.499-.741-.65-.313-.154-.665-.232-1.057-.232-.415 0-.777.085-1.086.255-.309.169-.547.409-.713.718s-.249.671-.249 1.086h-1.668c0-.705.162-1.322.486-1.85.325-.527.769-.936 1.335-1.227.566-.294 1.208-.441 1.928-.441.728 0 1.369.145 1.923.436.558.286.994.678 1.307 1.176.313.494.469 1.052.469 1.674 0 .43-.081.85-.243 1.261-.158.411-.435.869-.831 1.374-.396.502-.947 1.111-1.652 1.827l-2.302 2.409v.085h5.215v1.499zm13.163.192c-.894-.004-1.657-.239-2.291-.707-.633-.467-1.118-1.148-1.453-2.041-.336-.894-.504-1.97-.504-3.23 0-1.255.168-2.328.504-3.218.339-.889.825-1.568 1.459-2.036.637-.467 1.399-.701 2.285-.701s1.645.236 2.279.707c.633.468 1.118 1.146 1.453 2.036.34.886.509 1.957.509 3.212 0 1.263-.168 2.342-.503 3.235-.336.89-.82 1.571-1.454 2.042-.633.467-1.395.701-2.284.701zm0-1.51c.784 0 1.397-.382 1.838-1.148.445-.765.667-1.872.667-3.32 0-.961-.102-1.774-.305-2.437-.2-.668-.489-1.173-.866-1.516-.373-.347-.818-.52-1.334-.52-.781 0-1.394.384-1.838 1.154-.445.769-.67 1.875-.673 3.319 0 .966.099 1.782.299 2.449.204.664.492 1.167.866 1.51.373.34.822.509 1.346.509zm7.413-.266-.085.617c-.056.452-.152.924-.288 1.414-.132.494-.27.952-.413 1.374-.139.422-.254.758-.345 1.007h-1.199c.049-.234.117-.551.204-.95.086-.396.171-.839.254-1.329.083-.491.145-.99.187-1.499l.056-.634zm5.341 1.742c-.777 0-1.47-.134-2.081-.401-.607-.268-1.088-.639-1.442-1.114-.351-.479-.54-1.033-.566-1.663h1.776c.023.343.138.641.345.893.211.249.486.442.826.577.339.136.716.204 1.131.204.456 0 .859-.079 1.21-.238.354-.158.632-.379.831-.661.2-.287.3-.617.3-.99 0-.388-.1-.73-.3-1.024-.196-.297-.484-.531-.865-.701-.377-.17-.833-.254-1.369-.254h-.978v-1.426h.978c.43 0 .807-.077 1.132-.231.328-.155.584-.37.769-.645.184-.279.277-.605.277-.979 0-.358-.081-.669-.243-.933-.159-.267-.385-.477-.679-.628-.29-.15-.633-.226-1.029-.226-.377 0-.73.07-1.058.209-.324.136-.588.332-.792.589-.203.252-.313.556-.328.91h-1.691c.019-.626.204-1.176.555-1.651.354-.475.821-.847 1.402-1.114.581-.268 1.225-.402 1.934-.402.743 0 1.384.145 1.923.436.543.286.962.669 1.256 1.148.298.478.445 1.003.441 1.572.004.648-.177 1.199-.543 1.651-.362.453-.845.756-1.448.911v.09c.769.117 1.365.423 1.787.917.426.493.637 1.106.634 1.838.003.637-.174 1.208-.532 1.713-.354.505-.839.903-1.453 1.193-.615.287-1.318.43-2.11.43zm15.219-2.33v-.611c0-.437.09-.837.271-1.199.185-.365.453-.657.803-.876.355-.223.783-.334 1.284-.334.513 0 .943.11 1.29.328.347.219.609.511.786.877.181.366.271.767.271 1.204v.611c0 .438-.09.839-.271 1.205-.181.362-.447.654-.798.876-.347.219-.773.328-1.278.328-.509 0-.939-.109-1.289-.328-.351-.222-.617-.514-.798-.876-.181-.366-.271-.767-.271-1.205zm1.318-.611v.611c0 .324.077.619.231.883.155.263.425.395.809.395.381 0 .647-.132.798-.395.15-.264.226-.559.226-.883v-.611c0-.324-.074-.618-.221-.882-.143-.264-.411-.396-.803-.396-.377 0-.645.132-.803.396s-.237.558-.237.882zm-7.143-6.017v-.611c0-.437.09-.839.271-1.204.185-.366.453-.658.803-.877.355-.219.783-.328 1.284-.328.513 0 .943.109 1.289.328.347.219.609.511.787.877.177.365.265.767.265 1.204v.611c0 .437-.09.839-.271 1.205-.177.362-.441.654-.792.876-.347.219-.773.328-1.278.328-.513 0-.944-.109-1.295-.328-.347-.222-.611-.514-.792-.876-.181-.366-.271-.768-.271-1.205zm1.323-.611v.611c0 .324.075.618.226.882.155.264.424.396.809.396.377 0 .641-.132.792-.396.154-.264.232-.558.232-.882v-.611c0-.324-.074-.618-.221-.882s-.415-.396-.803-.396c-.377 0-.645.132-.803.396-.155.264-.232.558-.232.882zm-.786 9.411 7.963-11.583h1.352l-7.963 11.583z" fill="#858585"/><path d="m320.27 568.685h62.9074v81.2222h-62.9074z" fill="url(#k)" transform="matrix(0 -1 1 0 -248.415 888.955)"/><path d="m320.27 505.778h81.222" stroke="#cacaca" stroke-width="3.18519"/><path d="m337.67 576.197v9.266h-1.679v-7.633h-.054l-2.167 1.385v-1.539l2.303-1.479zm5.268 9.442c-.745 0-1.384-.188-1.918-.565-.531-.38-.94-.928-1.226-1.643-.284-.717-.426-1.582-.426-2.592.003-1.01.147-1.87.43-2.579.287-.712.695-1.255 1.226-1.629.534-.374 1.172-.561 1.914-.561s1.38.187 1.914.561.942.917 1.226 1.629c.286.712.43 1.572.43 2.579 0 1.013-.144 1.879-.43 2.597-.284.715-.692 1.261-1.226 1.638-.531.377-1.169.565-1.914.565zm0-1.416c.579 0 1.036-.285 1.371-.855.338-.573.507-1.416.507-2.529 0-.736-.077-1.354-.231-1.855s-.371-.878-.652-1.131c-.28-.257-.612-.385-.995-.385-.576 0-1.032.287-1.366.86-.335.57-.504 1.407-.507 2.511-.003.739.071 1.36.222 1.864.153.504.371.884.651 1.14.281.254.614.38 1 .38zm7.988 1.416c-.745 0-1.384-.188-1.918-.565-.531-.38-.94-.928-1.226-1.643-.284-.717-.425-1.582-.425-2.592.003-1.01.146-1.87.429-2.579.287-.712.696-1.255 1.227-1.629.533-.374 1.171-.561 1.913-.561s1.38.187 1.914.561.943.917 1.226 1.629c.287.712.43 1.572.43 2.579 0 1.013-.143 1.879-.43 2.597-.283.715-.692 1.261-1.226 1.638-.531.377-1.169.565-1.914.565zm0-1.416c.579 0 1.036-.285 1.371-.855.338-.573.507-1.416.507-2.529 0-.736-.077-1.354-.231-1.855s-.371-.878-.651-1.131c-.281-.257-.613-.385-.996-.385-.576 0-1.031.287-1.366.86-.335.57-.504 1.407-.507 2.511-.003.739.071 1.36.222 1.864.154.504.371.884.651 1.14.281.254.614.38 1 .38zm8.794-4.067v1.348h-4.171v-1.348zm4.964-3.959v9.266h-1.679v-7.633h-.054l-2.167 1.385v-1.539l2.303-1.479zm1.675 7.547v-1.335l3.932-6.212h1.113v1.9h-.678l-2.647 4.194v.073h5.488v1.38zm4.421 1.719v-2.127l.018-.597v-6.542h1.583v9.266zm6.94-9.393c.443.003.874.082 1.294.236.422.15.802.398 1.14.742.338.34.606.797.805 1.37.199.574.299 1.282.299 2.127.003.796-.082 1.508-.254 2.135-.169.625-.411 1.153-.728 1.584s-.698.76-1.145.986c-.446.226-.948.34-1.506.34-.586 0-1.104-.115-1.557-.344-.449-.229-.813-.543-1.09-.941-.278-.398-.448-.854-.511-1.367h1.651c.084.368.256.661.516.878.262.214.592.321.991.321.642 0 1.137-.279 1.484-.837.346-.558.52-1.333.52-2.325h-.063c-.148.265-.34.494-.575.687-.235.19-.502.337-.801.439-.295.103-.609.154-.941.154-.543 0-1.031-.13-1.466-.389-.431-.259-.774-.615-1.027-1.068-.25-.452-.377-.969-.38-1.552 0-.603.139-1.144.416-1.624.281-.482.671-.863 1.172-1.14.501-.281 1.086-.418 1.756-.412zm.004 1.358c-.326 0-.62.079-.882.239-.26.157-.465.371-.615.643-.148.268-.222.568-.222.9.003.329.077.628.222.896.147.268.348.481.601.638.257.157.549.235.878.235.244 0 .472-.047.683-.14.211-.094.395-.223.552-.389.16-.169.284-.361.371-.575.091-.214.134-.44.131-.678 0-.317-.075-.61-.226-.878-.148-.269-.351-.484-.611-.647-.256-.163-.55-.244-.882-.244zm4.549 8.035v-6.95h1.638v2.806h.597l2.09-2.806h1.973l-2.575 3.412 2.602 3.538h-1.982l-1.905-2.62h-.8v2.62z" fill="#5f5f5f"/><path d="m481.411 502.14v11.582h-1.753v-9.829h-.068l-2.771 1.81v-1.674l2.89-1.889zm6.32 11.741c-.709 0-1.346-.136-1.912-.408-.562-.275-1.01-.652-1.346-1.131s-.515-1.025-.537-1.64h1.696c.042.498.262.907.662 1.227.4.321.879.481 1.437.481.445 0 .839-.102 1.182-.305.346-.208.618-.492.814-.854.2-.362.3-.775.3-1.239 0-.471-.102-.892-.306-1.261-.203-.37-.484-.66-.842-.871-.355-.211-.762-.319-1.222-.322-.351 0-.703.06-1.057.181-.355.12-.641.279-.86.475l-1.601-.238.651-5.836h6.368v1.498h-4.915l-.367 3.241h.067c.227-.219.526-.402.9-.549.377-.147.78-.22 1.21-.22.705 0 1.333.168 1.883.503.555.336.99.794 1.307 1.374.32.577.479 1.241.475 1.991.004.751-.166 1.42-.509 2.008-.34.588-.811 1.052-1.414 1.391-.6.336-1.288.504-2.064.504zm7.218-1.742-.085.616c-.056.453-.152.924-.288 1.414-.132.494-.27.952-.413 1.374-.14.423-.255.758-.345 1.007h-1.199c.049-.234.117-.551.204-.95.086-.396.171-.839.254-1.329s.145-.99.187-1.499l.056-.633zm5.341 1.742c-.777 0-1.471-.134-2.081-.402-.607-.268-1.088-.639-1.442-1.114-.351-.479-.54-1.033-.566-1.663h1.776c.022.343.137.641.345.894.211.249.486.441.826.577.339.135.716.203 1.131.203.456 0 .859-.079 1.21-.237.354-.159.631-.379.831-.662.2-.287.3-.617.3-.99 0-.388-.1-.729-.3-1.023-.196-.298-.484-.532-.865-.702-.377-.169-.833-.254-1.369-.254h-.978v-1.425h.978c.43 0 .807-.078 1.131-.232.328-.155.585-.37.77-.645.184-.279.277-.605.277-.978 0-.359-.081-.67-.243-.934-.159-.267-.385-.477-.679-.627-.29-.151-.634-.227-1.029-.227-.377 0-.73.07-1.058.21-.324.135-.588.331-.792.588-.203.252-.313.556-.328.91h-1.691c.019-.625.204-1.176.554-1.651.355-.475.822-.846 1.403-1.114s1.225-.402 1.934-.402c.743 0 1.384.145 1.923.436.543.286.961.669 1.256 1.148.297.479.444 1.003.441 1.572.003.649-.178 1.199-.543 1.652-.362.452-.845.755-1.448.91v.091c.769.116 1.365.422 1.787.916.426.494.637 1.106.634 1.838.003.637-.174 1.208-.532 1.713-.355.506-.839.903-1.454 1.194-.614.286-1.317.43-2.109.43zm15.219-2.331v-.61c0-.438.09-.837.271-1.199.185-.366.453-.658.803-.877.355-.222.783-.334 1.284-.334.513 0 .943.11 1.29.328.346.219.608.511.786.877.181.366.271.767.271 1.205v.61c0 .438-.09.839-.271 1.205-.181.362-.447.654-.798.877-.347.218-.773.328-1.278.328-.509 0-.939-.11-1.289-.328-.351-.223-.617-.515-.798-.877-.181-.366-.271-.767-.271-1.205zm1.317-.61v.61c0 .325.078.619.232.883.155.264.425.396.809.396.381 0 .647-.132.798-.396.15-.264.226-.558.226-.883v-.61c0-.325-.074-.619-.221-.883-.143-.264-.411-.395-.803-.395-.377 0-.645.131-.803.395s-.238.558-.238.883zm-7.142-6.018v-.611c0-.437.09-.839.271-1.204.185-.366.452-.658.803-.877.355-.219.782-.328 1.284-.328.513 0 .943.109 1.289.328.347.219.609.511.786.877.178.365.266.767.266 1.204v.611c0 .438-.09.839-.271 1.205-.177.362-.441.654-.792.876-.347.219-.773.328-1.278.328-.513 0-.945-.109-1.295-.328-.347-.222-.611-.514-.792-.876-.181-.366-.271-.767-.271-1.205zm1.323-.611v.611c0 .324.075.619.226.882.155.264.424.396.809.396.377 0 .641-.132.792-.396.154-.263.232-.558.232-.882v-.611c0-.324-.074-.618-.221-.882s-.415-.396-.803-.396c-.377 0-.645.132-.803.396-.155.264-.232.558-.232.882zm-.786 9.411 7.963-11.582h1.351l-7.962 11.582z" fill="#858585"/><path d="m457.711 568.685h46.1852v82.0185h-46.1852z" fill="url(#l)" transform="matrix(0 -1 1 0 -110.974 1026.396)"/><path d="m457.711 522.5h82.018" stroke="#cacaca" stroke-width="3.18519"/><path d="m475.839 576.197v9.266h-1.679v-7.633h-.054l-2.168 1.385v-1.539l2.303-1.479zm5.064 9.393c-.603 0-1.143-.114-1.62-.34-.476-.229-.855-.543-1.135-.941-.278-.398-.426-.853-.444-1.366h1.629c.03.38.195.691.493.932.299.238.658.357 1.077.357.329 0 .621-.075.878-.226.256-.151.458-.36.606-.629.148-.268.22-.574.217-.918.003-.35-.071-.661-.222-.932-.15-.272-.357-.484-.619-.638-.263-.157-.564-.236-.905-.236-.278-.003-.551.049-.819.154-.269.106-.481.245-.638.417l-1.516-.249.484-4.778h5.375v1.402h-3.986l-.267 2.457h.055c.172-.202.414-.369.728-.502.314-.136.658-.204 1.032-.204.561 0 1.061.133 1.502.399.44.262.787.624 1.04 1.085.254.462.38.99.38 1.584 0 .612-.141 1.158-.425 1.638-.28.476-.671.852-1.172 1.126-.497.272-1.073.408-1.728.408zm7.756.049c-.745 0-1.384-.188-1.918-.565-.531-.38-.939-.928-1.226-1.643-.284-.717-.425-1.582-.425-2.592.003-1.01.146-1.87.429-2.579.287-.712.696-1.255 1.227-1.629.533-.374 1.171-.561 1.913-.561s1.38.187 1.914.561.943.917 1.226 1.629c.287.712.43 1.572.43 2.579 0 1.013-.143 1.879-.43 2.597-.283.715-.692 1.261-1.226 1.638-.531.377-1.169.565-1.914.565zm0-1.416c.58 0 1.037-.285 1.371-.855.338-.573.507-1.416.507-2.529 0-.736-.077-1.354-.231-1.855s-.371-.878-.651-1.131c-.281-.257-.612-.385-.996-.385-.576 0-1.031.287-1.366.86-.335.57-.504 1.407-.507 2.511-.003.739.071 1.36.222 1.864.154.504.371.884.652 1.14.28.254.613.38.999.38zm8.794-4.067v1.348h-4.171v-1.348zm4.964-3.959v9.266h-1.679v-7.633h-.054l-2.167 1.385v-1.539l2.303-1.479zm5.06-.127c.443.003.875.082 1.294.236.422.15.802.398 1.14.742.338.34.606.797.805 1.37s.299 1.282.299 2.127c.003.796-.082 1.508-.253 2.135-.169.625-.412 1.153-.729 1.584s-.698.76-1.145.986c-.446.226-.948.34-1.506.34-.585 0-1.104-.115-1.557-.344-.449-.229-.812-.543-1.09-.941-.277-.398-.448-.854-.511-1.367h1.651c.085.368.257.661.516.878.262.214.593.321.991.321.642 0 1.137-.279 1.484-.837s.52-1.333.52-2.325h-.063c-.148.265-.34.494-.575.687-.235.19-.502.337-.801.439-.295.103-.609.154-.941.154-.543 0-1.031-.13-1.466-.389-.431-.259-.773-.615-1.027-1.068-.25-.452-.377-.969-.38-1.552 0-.603.139-1.144.417-1.624.28-.482.671-.863 1.171-1.14.501-.281 1.086-.418 1.756-.412zm.004 1.358c-.325 0-.619.079-.882.239-.259.157-.464.371-.615.643-.148.268-.222.568-.222.9.003.329.077.628.222.896.148.268.348.481.602.638.256.157.548.235.877.235.245 0 .472-.047.683-.14.212-.094.396-.223.552-.389.16-.169.284-.361.371-.575.091-.214.135-.44.132-.678 0-.317-.076-.61-.227-.878-.147-.269-.351-.484-.61-.647-.257-.163-.551-.244-.883-.244zm7.748-1.358c.443.003.874.082 1.294.236.422.15.802.398 1.14.742.338.34.606.797.805 1.37s.299 1.282.299 2.127c.003.796-.082 1.508-.254 2.135-.168.625-.411 1.153-.728 1.584s-.698.76-1.145.986c-.446.226-.948.34-1.506.34-.585 0-1.104-.115-1.557-.344-.449-.229-.813-.543-1.09-.941-.278-.398-.448-.854-.511-1.367h1.651c.085.368.257.661.516.878.262.214.593.321.991.321.642 0 1.137-.279 1.484-.837s.52-1.333.52-2.325h-.063c-.148.265-.34.494-.575.687-.235.19-.502.337-.801.439-.295.103-.609.154-.941.154-.543 0-1.031-.13-1.466-.389-.431-.259-.773-.615-1.027-1.068-.25-.452-.377-.969-.38-1.552 0-.603.139-1.144.416-1.624.281-.482.672-.863 1.172-1.14.501-.281 1.086-.418 1.756-.412zm.004 1.358c-.325 0-.62.079-.882.239-.259.157-.464.371-.615.643-.148.268-.222.568-.222.9.003.329.077.628.222.896.148.268.348.481.601.638.257.157.549.235.878.235.245 0 .472-.047.683-.14.212-.094.396-.223.552-.389.16-.169.284-.361.371-.575.091-.214.135-.44.132-.678 0-.317-.076-.61-.227-.878-.147-.269-.351-.484-.61-.647-.257-.163-.551-.244-.883-.244zm4.549 8.035v-6.95h1.638v2.806h.597l2.09-2.806h1.973l-2.574 3.412 2.601 3.538h-1.982l-1.904-2.62h-.801v2.62z" fill="#5f5f5f"/><path d="m622.356 520.296c.517.004 1.026.098 1.527.283.502.185.954.486 1.357.905.408.418.732.984.973 1.696.245.709.37 1.592.373 2.647 0 1.014-.101 1.917-.305 2.709-.204.788-.496 1.454-.877 1.997-.377.543-.835.955-1.374 1.238s-1.146.424-1.821.424c-.69 0-1.303-.135-1.838-.407-.535-.271-.971-.646-1.306-1.125-.336-.483-.545-1.037-.628-1.663h1.725c.113.498.343.901.69 1.21.35.306.803.458 1.357.458.848 0 1.51-.369 1.985-1.108.475-.743.715-1.78.718-3.111h-.09c-.196.325-.441.604-.735.837-.291.234-.617.415-.979.543s-.748.193-1.159.193c-.667 0-1.274-.164-1.821-.492s-.982-.779-1.307-1.352c-.324-.573-.486-1.227-.486-1.963 0-.731.166-1.395.498-1.99.335-.596.803-1.067 1.402-1.414.604-.351 1.31-.522 2.121-.515zm.006 1.471c-.441 0-.839.109-1.194.328-.35.215-.627.507-.831.876-.204.366-.305.773-.305 1.222 0 .448.098.856.294 1.221.2.362.471.651.814.866.347.211.743.316 1.188.316.332 0 .641-.064.927-.192.287-.128.538-.305.752-.532.215-.23.383-.49.504-.78.12-.29.181-.596.181-.916 0-.426-.102-.822-.306-1.188-.199-.366-.475-.66-.825-.882-.351-.226-.751-.339-1.199-.339zm7.433 8.686-.085.617c-.056.452-.152.924-.288 1.414-.132.494-.27.952-.413 1.374-.14.422-.254.758-.345 1.007h-1.199c.049-.234.117-.551.204-.95.086-.396.171-.839.254-1.329.083-.491.145-.99.187-1.499l.056-.634zm5.44-10.157c.516.004 1.025.098 1.527.283.501.185.954.486 1.357.905.407.418.732.984.973 1.696.245.709.369 1.592.373 2.647 0 1.014-.102 1.917-.305 2.709-.204.788-.496 1.454-.877 1.997-.377.543-.835.955-1.374 1.238s-1.146.424-1.821.424c-.69 0-1.303-.135-1.838-.407-.536-.271-.971-.646-1.307-1.125-.335-.483-.544-1.037-.627-1.663h1.725c.113.498.343.901.69 1.21.35.306.803.458 1.357.458.848 0 1.51-.369 1.985-1.108.475-.743.714-1.78.718-3.111h-.09c-.196.325-.441.604-.735.837-.291.234-.617.415-.979.543s-.748.193-1.159.193c-.668 0-1.275-.164-1.821-.492-.547-.328-.983-.779-1.307-1.352s-.486-1.227-.486-1.963c0-.731.166-1.395.498-1.99.335-.596.803-1.067 1.402-1.414.603-.351 1.31-.522 2.121-.515zm.006 1.471c-.442 0-.839.109-1.194.328-.35.215-.627.507-.831.876-.204.366-.305.773-.305 1.222 0 .448.098.856.294 1.221.199.362.471.651.814.866.347.211.743.316 1.188.316.331 0 .641-.064.927-.192.287-.128.537-.305.752-.532.215-.23.383-.49.504-.78.12-.29.181-.596.181-.916 0-.426-.102-.822-.306-1.188-.2-.366-.475-.66-.825-.882-.351-.226-.751-.339-1.199-.339zm15.254 8.098v-.611c0-.437.09-.837.271-1.198.185-.366.453-.658.803-.877.355-.223.783-.334 1.284-.334.513 0 .943.11 1.29.328.346.219.608.511.786.877.181.366.271.767.271 1.204v.611c0 .438-.09.839-.271 1.205-.181.362-.447.654-.798.876-.347.219-.773.329-1.278.329-.509 0-.939-.11-1.289-.329-.351-.222-.617-.514-.798-.876-.181-.366-.271-.767-.271-1.205zm1.317-.611v.611c0 .325.078.619.232.883.155.263.425.395.809.395.381 0 .647-.132.798-.395.15-.264.226-.558.226-.883v-.611c0-.324-.074-.618-.221-.882-.143-.264-.411-.396-.803-.396-.377 0-.645.132-.803.396s-.238.558-.238.882zm-7.142-6.017v-.611c0-.437.09-.839.271-1.204.185-.366.452-.658.803-.877.355-.219.782-.328 1.284-.328.513 0 .943.109 1.289.328.347.219.609.511.786.877.178.365.266.767.266 1.204v.611c0 .437-.09.839-.271 1.205-.177.362-.441.654-.792.876-.347.219-.773.328-1.278.328-.513 0-.945-.109-1.295-.328-.347-.222-.611-.514-.792-.876-.181-.366-.271-.768-.271-1.205zm1.323-.611v.611c0 .324.075.618.226.882.155.264.424.396.809.396.377 0 .641-.132.792-.396.154-.264.232-.558.232-.882v-.611c0-.324-.074-.618-.221-.882s-.415-.396-.803-.396c-.377 0-.645.132-.803.396-.155.264-.232.558-.232.882zm-.786 9.411 7.963-11.583h1.351l-7.962 11.583z" fill="#858585"/><path d="m595.948 568.685h27.8704v82.0185h-27.8704z" fill="url(#m)" transform="matrix(0 -1 1 0 27.263 1164.633)"/><path d="m595.948 540.815h82.018" stroke="#04b34a" stroke-width="3.18519"/><path d="m608.446 585.463v-1.213l3.217-3.153c.308-.311.564-.587.769-.828.206-.241.359-.475.462-.701.102-.227.154-.468.154-.724 0-.293-.067-.543-.199-.751-.133-.211-.316-.374-.548-.489s-.496-.172-.792-.172c-.304 0-.571.063-.8.19-.23.124-.408.3-.534.529-.124.23-.186.503-.186.819h-1.597c0-.588.134-1.099.403-1.533.268-.435.638-.771 1.108-1.009.474-.239 1.017-.358 1.629-.358.621 0 1.167.116 1.638.349.47.232.835.55 1.095.954.262.404.393.866.393 1.385 0 .347-.066.687-.199 1.022-.132.335-.366.706-.701 1.113-.332.407-.798.901-1.398 1.48l-1.597 1.624v.063h4.036v1.403zm10.829.176c-.745 0-1.385-.188-1.918-.565-.531-.38-.94-.928-1.227-1.643-.283-.717-.425-1.582-.425-2.592.003-1.01.146-1.87.43-2.579.287-.712.695-1.255 1.226-1.629.534-.374 1.172-.561 1.914-.561s1.38.187 1.914.561.942.917 1.226 1.629c.286.712.43 1.572.43 2.579 0 1.013-.144 1.879-.43 2.597-.284.715-.692 1.261-1.226 1.638-.531.377-1.169.565-1.914.565zm0-1.416c.579 0 1.036-.285 1.371-.855.338-.573.507-1.416.507-2.529 0-.736-.077-1.354-.231-1.855s-.371-.878-.652-1.131c-.28-.257-.612-.385-.995-.385-.576 0-1.032.287-1.366.86-.335.57-.504 1.407-.507 2.511-.003.739.071 1.36.222 1.864.153.504.371.884.651 1.14.281.254.614.38 1 .38zm7.988 1.416c-.745 0-1.384-.188-1.918-.565-.531-.38-.94-.928-1.226-1.643-.284-.717-.425-1.582-.425-2.592.003-1.01.146-1.87.429-2.579.287-.712.696-1.255 1.226-1.629.534-.374 1.172-.561 1.914-.561s1.38.187 1.914.561.943.917 1.226 1.629c.287.712.43 1.572.43 2.579 0 1.013-.143 1.879-.43 2.597-.283.715-.692 1.261-1.226 1.638-.531.377-1.169.565-1.914.565zm0-1.416c.579 0 1.036-.285 1.371-.855.338-.573.507-1.416.507-2.529 0-.736-.077-1.354-.231-1.855s-.371-.878-.651-1.131c-.281-.257-.613-.385-.996-.385-.576 0-1.031.287-1.366.86-.335.57-.504 1.407-.507 2.511-.003.739.071 1.36.222 1.864.154.504.371.884.651 1.14.281.254.614.38 1 .38zm8.794-4.067v1.348h-4.172v-1.348zm.871 5.307v-1.213l3.217-3.153c.308-.311.564-.587.769-.828.206-.241.359-.475.462-.701.102-.227.154-.468.154-.724 0-.293-.067-.543-.199-.751-.133-.211-.316-.374-.548-.489s-.496-.172-.792-.172c-.304 0-.571.063-.8.19-.23.124-.408.3-.534.529-.124.23-.186.503-.186.819h-1.597c0-.588.134-1.099.403-1.533.268-.435.638-.771 1.108-1.009.474-.239 1.017-.358 1.629-.358.621 0 1.167.116 1.638.349.47.232.835.55 1.095.954.262.404.393.866.393 1.385 0 .347-.066.687-.199 1.022-.132.335-.366.706-.701 1.113-.332.407-.798.901-1.398 1.48l-1.597 1.624v.063h4.036v1.403zm7.038-1.719v-1.335l3.931-6.212h1.113v1.9h-.678l-2.647 4.194v.073h5.488v1.38zm4.42 1.719v-2.127l.018-.597v-6.542h1.584v9.266zm6.94-9.393c.443.003.874.082 1.294.236.422.15.802.398 1.14.742.338.34.606.797.805 1.37s.299 1.282.299 2.127c.003.796-.082 1.508-.254 2.135-.169.625-.411 1.153-.728 1.584s-.698.76-1.145.986c-.446.226-.948.34-1.506.34-.585 0-1.104-.115-1.557-.344-.449-.229-.813-.543-1.09-.941-.278-.398-.448-.854-.511-1.367h1.651c.084.368.256.661.516.878.262.214.593.321.991.321.642 0 1.137-.279 1.484-.837s.52-1.333.52-2.325h-.063c-.148.265-.34.494-.575.687-.235.19-.502.337-.801.439-.295.103-.609.154-.941.154-.543 0-1.031-.13-1.466-.389-.431-.259-.773-.615-1.027-1.068-.25-.452-.377-.969-.38-1.552 0-.603.139-1.144.416-1.624.281-.482.672-.863 1.172-1.14.501-.281 1.086-.418 1.756-.412zm.004 1.358c-.326 0-.62.079-.882.239-.259.157-.465.371-.615.643-.148.268-.222.568-.222.9.003.329.077.628.222.896.147.268.348.481.601.638.257.157.549.235.878.235.244 0 .472-.047.683-.14.211-.094.395-.223.552-.389.16-.169.284-.361.371-.575.091-.214.135-.44.131-.678 0-.317-.075-.61-.226-.878-.148-.269-.351-.484-.611-.647-.256-.163-.55-.244-.882-.244zm4.549 8.035v-6.95h1.638v2.806h.597l2.09-2.806h1.973l-2.575 3.412 2.602 3.538h-1.982l-1.904-2.62h-.801v2.62z" fill="#5f5f5f"/><path d="m758.71 494.177v11.582h-1.753v-9.829h-.068l-2.771 1.81v-1.674l2.889-1.889zm2.886 11.582 5.056-9.999v-.085h-5.848v-1.498h7.658v1.549l-5.039 10.033zm8.427-1.583-.084.616c-.057.453-.153.924-.289 1.414-.132.494-.269.952-.413 1.374-.139.423-.254.758-.345 1.007h-1.199c.049-.234.117-.551.204-.95.087-.396.172-.839.254-1.329.083-.49.146-.99.187-1.499l.057-.633zm1.486-.679v-1.414l5.005-7.906h1.114v2.081h-.707l-3.58 5.667v.09h6.86v1.482zm5.491 2.262v-2.692l.011-.645v-8.245h1.658v11.582zm14.159-2.172v-.61c0-.438.09-.837.271-1.199.185-.366.452-.658.803-.877.355-.222.782-.334 1.284-.334.513 0 .943.11 1.289.328.347.219.609.511.787.877.18.366.271.767.271 1.205v.61c0 .438-.091.839-.271 1.205-.181.362-.447.654-.798.877-.347.218-.773.328-1.278.328-.509 0-.939-.11-1.29-.328-.35-.223-.616-.515-.797-.877-.181-.366-.271-.767-.271-1.205zm1.317-.61v.61c0 .325.078.619.232.883.155.264.424.396.809.396.381 0 .647-.132.797-.396.151-.264.227-.558.227-.883v-.61c0-.325-.074-.619-.221-.883-.143-.263-.411-.395-.803-.395-.377 0-.645.132-.803.395-.159.264-.238.558-.238.883zm-7.143-6.018v-.611c0-.437.091-.838.272-1.204.185-.366.452-.658.803-.877.354-.218.782-.328 1.284-.328.513 0 .942.11 1.289.328.347.219.609.511.786.877.178.366.266.767.266 1.204v.611c0 .438-.09.839-.271 1.205-.178.362-.441.654-.792.876-.347.219-.773.328-1.278.328-.513 0-.945-.109-1.295-.328-.347-.222-.611-.514-.792-.876-.181-.366-.272-.767-.272-1.205zm1.324-.611v.611c0 .324.075.619.226.882.155.264.424.396.809.396.377 0 .641-.132.792-.396.154-.263.231-.558.231-.882v-.611c0-.324-.073-.618-.22-.882s-.415-.396-.803-.396c-.377 0-.645.132-.803.396-.155.264-.232.558-.232.882zm-.786 9.411 7.963-11.582h1.351l-7.963 11.582z" fill="#858585"/><path d="m734.185 568.685h54.1482v82.0185h-54.1482z" fill="url(#n)" transform="matrix(0 -1 1 0 165.5 1302.87)"/><path d="m734.185 514.537h82.019" stroke="#cacaca" stroke-width="3.18519"/><path d="m746.441 585.463v-1.213l3.217-3.153c.308-.311.564-.587.769-.828s.359-.475.462-.701c.102-.227.153-.468.153-.724 0-.293-.066-.543-.199-.751-.132-.211-.315-.374-.547-.489s-.496-.172-.792-.172c-.305 0-.571.063-.801.19-.229.124-.407.3-.534.529-.123.23-.185.503-.185.819h-1.597c0-.588.134-1.099.402-1.533.269-.435.638-.771 1.109-1.009.474-.239 1.016-.358 1.629-.358.621 0 1.167.116 1.638.349.47.232.835.55 1.094.954.263.404.394.866.394 1.385 0 .347-.066.687-.199 1.022s-.366.706-.701 1.113c-.332.407-.798.901-1.398 1.48l-1.597 1.624v.063h4.035v1.403zm10.625.127c-.603 0-1.143-.114-1.62-.34-.476-.229-.855-.543-1.135-.941-.278-.398-.426-.853-.444-1.366h1.629c.03.38.195.691.493.932.299.238.658.357 1.077.357.329 0 .621-.075.878-.226.256-.151.458-.36.606-.629.148-.268.22-.574.217-.918.003-.35-.071-.661-.221-.932-.151-.272-.358-.484-.62-.638-.263-.157-.564-.236-.905-.236-.278-.003-.551.049-.819.154-.269.106-.481.245-.638.417l-1.516-.249.484-4.778h5.375v1.402h-3.986l-.267 2.457h.055c.172-.202.414-.369.728-.502.314-.136.658-.204 1.032-.204.561 0 1.061.133 1.502.399.44.262.787.624 1.04 1.085.254.462.38.99.38 1.584 0 .612-.141 1.158-.425 1.638-.28.476-.671.852-1.172 1.126-.497.272-1.073.408-1.728.408zm7.757.049c-.746 0-1.385-.188-1.919-.565-.531-.38-.939-.928-1.226-1.643-.283-.717-.425-1.582-.425-2.592.003-1.01.146-1.87.43-2.579.286-.712.695-1.255 1.226-1.629.534-.374 1.172-.561 1.914-.561s1.379.187 1.913.561.943.917 1.226 1.629c.287.712.43 1.572.43 2.579 0 1.013-.143 1.879-.43 2.597-.283.715-.692 1.261-1.226 1.638-.531.377-1.168.565-1.913.565zm0-1.416c.579 0 1.036-.285 1.37-.855.338-.573.507-1.416.507-2.529 0-.736-.077-1.354-.231-1.855-.153-.501-.371-.878-.651-1.131-.281-.257-.612-.385-.995-.385-.577 0-1.032.287-1.367.86-.335.57-.504 1.407-.507 2.511-.003.739.071 1.36.222 1.864.154.504.371.884.652 1.14.28.254.613.38 1 .38zm8.793-4.067v1.348h-4.171v-1.348zm4.417 5.434c-.604 0-1.144-.114-1.62-.34-.477-.229-.855-.543-1.136-.941-.277-.398-.425-.853-.443-1.366h1.629c.03.38.194.691.493.932.298.238.657.357 1.077.357.328 0 .621-.075.877-.226.257-.151.459-.36.607-.629.147-.268.22-.574.217-.918.003-.35-.071-.661-.222-.932-.151-.272-.357-.484-.62-.638-.262-.157-.564-.236-.905-.236-.277-.003-.55.049-.819.154-.268.106-.481.245-.638.417l-1.515-.249.484-4.778h5.375v1.402h-3.986l-.267 2.457h.054c.172-.202.415-.369.729-.502.313-.136.657-.204 1.031-.204.561 0 1.062.133 1.502.399.441.262.788.624 1.041 1.085.253.462.38.99.38 1.584 0 .612-.142 1.158-.425 1.638-.281.476-.671.852-1.172 1.126-.498.272-1.074.408-1.728.408zm7.756.049c-.745 0-1.384-.188-1.918-.565-.531-.38-.94-.928-1.226-1.643-.284-.717-.426-1.582-.426-2.592.003-1.01.147-1.87.43-2.579.287-.712.695-1.255 1.226-1.629.534-.374 1.172-.561 1.914-.561s1.38.187 1.914.561.942.917 1.226 1.629c.286.712.43 1.572.43 2.579 0 1.013-.144 1.879-.43 2.597-.284.715-.692 1.261-1.226 1.638-.531.377-1.169.565-1.914.565zm0-1.416c.579 0 1.036-.285 1.371-.855.338-.573.507-1.416.507-2.529 0-.736-.077-1.354-.231-1.855s-.371-.878-.652-1.131c-.28-.257-.612-.385-.995-.385-.576 0-1.032.287-1.366.86-.335.57-.504 1.407-.507 2.511-.003.739.071 1.36.222 1.864.153.504.371.884.651 1.14.281.254.614.38 1 .38zm7.988 1.416c-.745 0-1.384-.188-1.918-.565-.531-.38-.94-.928-1.226-1.643-.284-.717-.425-1.582-.425-2.592.003-1.01.146-1.87.429-2.579.287-.712.696-1.255 1.227-1.629.533-.374 1.171-.561 1.913-.561s1.38.187 1.914.561.943.917 1.226 1.629c.287.712.43 1.572.43 2.579 0 1.013-.143 1.879-.43 2.597-.283.715-.692 1.261-1.226 1.638-.531.377-1.169.565-1.914.565zm0-1.416c.579 0 1.036-.285 1.371-.855.338-.573.507-1.416.507-2.529 0-.736-.077-1.354-.231-1.855s-.371-.878-.651-1.131c-.281-.257-.613-.385-.996-.385-.576 0-1.031.287-1.366.86-.335.57-.504 1.407-.507 2.511-.003.739.071 1.36.222 1.864.154.504.371.884.651 1.14.281.254.614.38 1 .38zm4.582 1.24v-6.95h1.638v2.806h.597l2.09-2.806h1.973l-2.575 3.412 2.602 3.538h-1.982l-1.905-2.62h-.8v2.62z" fill="#5f5f5f"/><path d="m43.7959 570.148h772.407v.796296h-772.407z" fill="#cacaca"/></svg>