<svg fill="none" height="876" viewBox="0 0 860 876" width="860" xmlns="http://www.w3.org/2000/svg" xmlns:xlink="http://www.w3.org/1999/xlink"><linearGradient id="a" gradientUnits="userSpaceOnUse" x1="427.989" x2="427.989" y1="168.417" y2="241.676"><stop offset="0" stop-color="#d9d9d9"/><stop offset="1" stop-color="#d9d9d9" stop-opacity="0"/></linearGradient><linearGradient id="b"><stop offset="0" stop-color="#04b34a"/><stop offset=".0666667" stop-color="#04b34a" stop-opacity=".991353"/><stop offset=".133333" stop-color="#04b34a" stop-opacity=".96449"/><stop offset=".2" stop-color="#04b34a" stop-opacity=".91834"/><stop offset=".266667" stop-color="#04b34a" stop-opacity=".852589"/><stop offset=".333333" stop-color="#04b34a" stop-opacity=".768225"/><stop offset=".4" stop-color="#04b34a" stop-opacity=".668116"/><stop offset=".466667" stop-color="#04b34a" stop-opacity=".557309"/><stop offset=".533333" stop-color="#04b34a" stop-opacity=".442691"/><stop offset=".6" stop-color="#04b34a" stop-opacity=".331884"/><stop offset=".666667" stop-color="#04b34a" stop-opacity=".231775"/><stop offset=".733333" stop-color="#04b34a" stop-opacity=".147411"/><stop offset=".8" stop-color="#04b34a" stop-opacity=".08166"/><stop offset=".866667" stop-color="#04b34a" stop-opacity=".03551"/><stop offset=".933333" stop-color="#04b34a" stop-opacity=".01"/><stop offset="1" stop-color="#04b34a" stop-opacity="0"/></linearGradient><linearGradient id="c" gradientUnits="userSpaceOnUse" x1="427.627" x2="427.627" xlink:href="#b" y1="411.685" y2="530.731"/><linearGradient id="d" gradientUnits="userSpaceOnUse" x1="428.014" x2="428.014" xlink:href="#b" y1="699.944" y2="818.991"/><path d="m0 0h860v876h-860z" fill="#fff"/><g fill="#eaecef"><path d="m729.078 39.0186-2.13 12.6315h2.372l-1.361 8.0722h-4.391l.65-3.8463h-11.271l-.649 3.8463h-4.391l1.362-8.0722h1.683c.77-1.0444 1.5-2.4223 2.322-5.3185l2.09-7.313h13.717zm-5.576 4.2258h-4.817l-.928 3.2528c-.809 2.8249-1.477 4.1062-2.152 5.1529h6.48z"/><path d="m732.949 39.0186h10.441c3.679 0 5.333 1.8748 4.875 4.5824-.293 1.7322-1.597 2.8479-2.82 3.3471 1.336.5222 2.393 1.8518 2.009 4.1315-.489 2.8962-2.85 4.7964-6.766 4.7964h-10.584zm3.063 10.1149-.497 2.9445h4.793c1.281 0 2.073-.4739 2.242-1.4723.172-1.0214-.463-1.4722-1.746-1.4722h-4.794zm1.065-6.3147-.424 2.5167h4.722c.997 0 1.697-.3566 1.85-1.2583.152-.9018-.429-1.2584-1.426-1.2584z"/><path d="m751.281 39.0186h4.865l-1.713 10.1609 9.14-10.1609h4.865l-2.843 16.8574h-4.865l1.707-10.1149-9.133 10.1149h-4.865z"/><path d="m775.671 47.139-5.726-8.1204h5.505l4.77 6.8851 1.164-6.8851h4.627l-1.161 6.8851 7.095-6.8851h5.388l-8.24 7.9065 5.752 8.9509h-5.862l-4.6-7.1934-1.214 7.1934h-4.628l1.214-7.1934-7.028 7.1934h-5.648l8.594-8.737z"/><path d="m804.438 39.0186h-5.648l5.623 7.9065-8.346 8.9509h5.648l8.346-8.9509zm8.928 0h-5.648l5.623 7.9065-8.345 8.9509h5.648l8.345-8.9509zm9.159 0h-5.648l5.623 7.9065-8.346 8.9509h5.648l8.346-8.9509z"/></g><path d="m51.3868 39.0033v20.8485h-4.357v-17.2651h-8.4289v17.2651h-4.3571v-20.8485zm2.9686 26.7121v-21.5h4.2756v2.6265h.1934c.19-.4208.4649-.8484.8246-1.2827.3664-.4411.8415-.8076 1.4252-1.0994.5904-.2986 1.3233-.448 2.1988-.448 1.1402 0 2.1921.2987 3.1558.8959.9637.5904 1.734 1.4829 2.3108 2.6773.5769 1.1877.8653 2.6773.8653 4.469 0 1.7441-.2816 3.2168-.8449 4.4181-.5565 1.1944-1.3166 2.1004-2.2803 2.718-.9569.6108-2.0292.9162-3.2169.9162-.8415 0-1.5575-.1391-2.1479-.4174-.5837-.2782-1.0621-.6277-1.4354-1.0485-.3733-.4276-.6583-.8585-.8551-1.2929h-.1323v8.3679zm4.245-13.6818c0 .9298.129 1.7408.3869 2.433.2579.6923.6311 1.2318 1.1198 1.6186.4886.3801 1.0824.5701 1.7814.5701.7059 0 1.3031-.1934 1.7917-.5802.4887-.3937.8585-.9366 1.1096-1.6288.2579-.6991.3869-1.5033.3869-2.4127 0-.9026-.1256-1.6966-.3767-2.3821-.2511-.6854-.621-1.2216-1.1096-1.6084s-1.0893-.5803-1.8019-.5803c-.7058 0-1.303.1867-1.7916.5599-.4819.3733-.8517.9027-1.1096 1.5881-.2579.6855-.3869 1.4931-.3869 2.4228zm19.8138 8.1236c-1.5813 0-2.9488-.3359-4.1025-1.0078-1.1469-.6787-2.0326-1.622-2.6569-2.83-.6244-1.2148-.9366-2.6231-.9366-4.2247 0-1.6152.3122-3.0268.9366-4.2348.6243-1.2148 1.51-2.1582 2.6569-2.8301 1.1537-.6786 2.5212-1.018 4.1025-1.018s2.9454.3394 4.0924 1.018c1.1537.6719 2.0427 1.6153 2.6671 2.8301.6244 1.208.9366 2.6196.9366 4.2348 0 1.6016-.3122 3.0099-.9366 4.2247-.6244 1.208-1.5134 2.1513-2.6671 2.83-1.147.6719-2.5111 1.0078-4.0924 1.0078zm.0204-3.3594c.7194 0 1.32-.2036 1.8018-.6108.4819-.4139.845-.9772 1.0893-1.6898.2511-.7126.3766-1.5236.3766-2.433s-.1255-1.7204-.3766-2.433c-.2443-.7126-.6074-1.2759-1.0893-1.6899-.4818-.414-1.0824-.621-1.8018-.621-.7262 0-1.337.207-1.8324.621-.4886.414-.8585.9773-1.1096 1.6899-.2443.7126-.3665 1.5236-.3665 2.433s.1222 1.7204.3665 2.433c.2511.7126.621 1.2759 1.1096 1.6898.4954.4072 1.1062.6108 1.8324.6108zm23.0204-12.5824v12.6435h2.494v8.0218h-4.2143v-5.0289h-11.9513v-15.6364h4.1433v12.2261h5.436v-12.2261zm10.98 15.9418c-1.608 0-2.993-.3258-4.153-.9773-1.154-.6583-2.043-1.588-2.667-2.7893-.625-1.208-.937-2.6366-.937-4.2857 0-1.6084.312-3.0201.937-4.2349.624-1.2148 1.503-2.1615 2.636-2.8402 1.14-.6786 2.477-1.018 4.011-1.018 1.032 0 1.992.1663 2.881.4989.896.3257 1.676.8177 2.341 1.476.672.6584 1.195 1.4863 1.568 2.484.373.9908.56 2.1513.56 3.4815v1.191h-13.203v-2.6875h9.121c0-.6243-.136-1.1774-.407-1.6593-.272-.4818-.648-.8585-1.13-1.13-.475-.2782-1.028-.4173-1.66-.4173-.658 0-1.242.1527-1.751.4581-.502.2986-.895.7024-1.18 1.2114-.285.5022-.431 1.0621-.438 1.6797v2.5551c0 .7737.142 1.4422.427 2.0055.292.5633.703.9976 1.232 1.303.53.3054 1.157.4581 1.883.4581.482 0 .923-.0679 1.324-.2036.4-.1357.743-.3393 1.028-.6108s.502-.604.652-.9976l4.01.2646c-.203.9637-.621 1.8053-1.252 2.5247-.624.7126-1.432 1.2691-2.422 1.6695-.985.3936-2.121.5904-3.411.5904zm19.743-9.8542v3.4103h-8.165v-3.4103zm-6.739-6.0876v15.6364h-4.144v-15.6364zm9.457 0v15.6364h-4.113v-15.6364zm.647 3.4103v-3.4103h14.171v3.4103h-5.039v12.2261h-4.133v-12.2261zm28.206 12.5315c-1.581 0-2.949-.3359-4.102-1.0078-1.147-.6787-2.033-1.622-2.657-2.83-.625-1.2148-.937-2.6231-.937-4.2247 0-1.6152.312-3.0268.937-4.2348.624-1.2148 1.51-2.1582 2.657-2.8301 1.153-.6786 2.521-1.018 4.102-1.018s2.945.3394 4.092 1.018c1.154.6719 2.043 1.6153 2.668 2.8301.624 1.208.936 2.6196.936 4.2348 0 1.6016-.312 3.0099-.936 4.2247-.625 1.208-1.514 2.1513-2.668 2.83-1.147.6719-2.511 1.0078-4.092 1.0078zm.02-3.3594c.72 0 1.32-.2036 1.802-.6108.482-.4139.845-.9772 1.09-1.6898.251-.7126.376-1.5236.376-2.433s-.125-1.7204-.376-2.433c-.245-.7126-.608-1.2759-1.09-1.6899s-1.082-.621-1.802-.621c-.726 0-1.337.207-1.832.621-.489.414-.858.9773-1.11 1.6899-.244.7126-.366 1.5236-.366 2.433s.122 1.7204.366 2.433c.252.7126.621 1.2759 1.11 1.6898.495.4072 1.106.6108 1.832.6108zm8.128 7.635v-8.0218h1.201c.346-.2172.624-.5633.835-1.0384.217-.475.393-1.0349.529-1.6796.143-.6448.251-1.3404.326-2.0869.081-.7533.152-1.5134.214-2.2803l.407-5.1104h11.992v12.1956h2.423v8.0218h-4.134v-4.581h-9.558v4.581zm5.517-8.0218h5.894v-8.8565h-4.214l-.163 1.7713c-.115 1.6695-.282 3.0879-.499 4.2552-.217 1.1605-.556 2.1038-1.018 2.83zm20.855 3.7462c-1.581 0-2.949-.3359-4.103-1.0078-1.147-.6787-2.032-1.622-2.657-2.83-.624-1.2148-.936-2.6231-.936-4.2247 0-1.6152.312-3.0268.936-4.2348.625-1.2148 1.51-2.1582 2.657-2.8301 1.154-.6786 2.522-1.018 4.103-1.018s2.945.3394 4.092 1.018c1.154.6719 2.043 1.6153 2.667 2.8301.625 1.208.937 2.6196.937 4.2348 0 1.6016-.312 3.0099-.937 4.2247-.624 1.208-1.513 2.1513-2.667 2.83-1.147.6719-2.511 1.0078-4.092 1.0078zm.02-3.3594c.72 0 1.32-.2036 1.802-.6108.482-.4139.845-.9772 1.089-1.6898.251-.7126.377-1.5236.377-2.433s-.126-1.7204-.377-2.433c-.244-.7126-.607-1.2759-1.089-1.6899s-1.082-.621-1.802-.621c-.726 0-1.337.207-1.832.621-.489.414-.859.9773-1.11 1.6899-.244.7126-.366 1.5236-.366 2.433s.122 1.7204.366 2.433c.251.7126.621 1.2759 1.11 1.6898.495.4072 1.106.6108 1.832.6108zm22.349-18.3238 1.323 2.83c-.441.3665-.93.6379-1.466.8144-.536.1696-1.177.2816-1.924.3359-.739.0543-1.642.0916-2.708.112-1.208.0136-2.192.207-2.952.5803-.76.3732-1.337.9603-1.73 1.7611-.394.794-.652 1.8324-.774 3.115h.153c.468-.9569 1.126-1.6966 1.975-2.2192.855-.5226 1.91-.7838 3.166-.7838 1.33 0 2.494.2918 3.491.8754 1.005.5837 1.785 1.4218 2.342 2.5145.556 1.0926.834 2.4024.834 3.9294 0 1.5881-.312 2.9692-.936 4.1433-.618 1.1672-1.497 2.0733-2.637 2.718-1.14.6379-2.497.9569-4.072.9569-1.581 0-2.945-.3325-4.092-.9976-1.14-.6651-2.022-1.6458-2.647-2.942-.617-1.2963-.926-2.8911-.926-4.7846v-1.2827c0-3.7665.733-6.5592 2.199-8.378 1.466-1.8189 3.62-2.7418 6.464-2.769.774-.0136 1.473-.0169 2.097-.0102.624.0068 1.171-.0237 1.639-.0916.475-.0678.869-.2104 1.181-.4275zm-5.894 18.3238c.665 0 1.235-.173 1.71-.5191.482-.3462.852-.8416 1.11-1.4863.264-.6447.397-1.415.397-2.3109 0-.889-.133-1.6423-.397-2.2599-.258-.6244-.628-1.0994-1.11-1.4252-.482-.3257-1.059-.4886-1.731-.4886-.502 0-.953.0916-1.354.2748-.4.1833-.743.4547-1.028.8144-.278.3529-.495.7907-.651 1.3132-.15.5158-.224 1.1063-.224 1.7713 0 1.337.288 2.3923.865 3.166.584.7669 1.388 1.1503 2.413 1.1503zm9.356 8.9176v-21.5h4.276v2.6265h.193c.19-.4208.465-.8484.825-1.2827.366-.4411.841-.8076 1.425-1.0994.59-.2986 1.323-.448 2.199-.448 1.14 0 2.192.2987 3.156.8959.963.5904 1.734 1.4829 2.31 2.6773.577 1.1877.866 2.6773.866 4.469 0 1.7441-.282 3.2168-.845 4.4181-.557 1.1944-1.317 2.1004-2.281 2.718-.956.6108-2.029.9162-3.216.9162-.842 0-1.558-.1391-2.148-.4174-.584-.2782-1.062-.6277-1.436-1.0485-.373-.4276-.658-.8585-.855-1.2929h-.132v8.3679zm4.245-13.6818c0 .9298.129 1.7408.387 2.433.258.6923.631 1.2318 1.12 1.6186.488.3801 1.082.5701 1.781.5701.706 0 1.303-.1934 1.792-.5802.489-.3937.858-.9366 1.11-1.6288.257-.6991.386-1.5033.386-2.4127 0-.9026-.125-1.6966-.376-2.3821-.251-.6854-.621-1.2216-1.11-1.6084s-1.089-.5803-1.802-.5803c-.706 0-1.303.1867-1.791.5599-.482.3733-.852.9027-1.11 1.5881-.258.6855-.387 1.4931-.387 2.4228zm19.875 8.1236c-1.608 0-2.993-.3258-4.153-.9773-1.154-.6583-2.043-1.588-2.668-2.7893-.624-1.208-.936-2.6366-.936-4.2857 0-1.6084.312-3.0201.936-4.2349.625-1.2148 1.504-2.1615 2.637-2.8402 1.14-.6786 2.477-1.018 4.011-1.018 1.032 0 1.992.1663 2.881.4989.896.3257 1.676.8177 2.341 1.476.672.6584 1.195 1.4863 1.568 2.484.373.9908.56 2.1513.56 3.4815v1.191h-13.203v-2.6875h9.121c0-.6243-.136-1.1774-.407-1.6593-.272-.4818-.649-.8585-1.13-1.13-.475-.2782-1.029-.4173-1.66-.4173-.658 0-1.242.1527-1.751.4581-.502.2986-.896.7024-1.181 1.2114-.285.5022-.431 1.0621-.437 1.6797v2.5551c0 .7737.142 1.4422.427 2.0055.292.5633.703.9976 1.232 1.303s1.157.4581 1.883.4581c.482 0 .923-.0679 1.324-.2036.4-.1357.743-.3393 1.028-.6108s.502-.604.651-.9976l4.011.2646c-.203.9637-.621 1.8053-1.252 2.5247-.624.7126-1.432 1.2691-2.423 1.6695-.984.3936-2.12.5904-3.41.5904zm19.743-9.8542v3.4103h-8.165v-3.4103zm-6.74-6.0876v15.6364h-4.143v-15.6364zm9.458 0v15.6364h-4.113v-15.6364zm6.361 9.9153 5.629-9.9153h4.276v15.6364h-4.133v-9.9458l-5.609 9.9458h-4.307v-15.6364h4.144zm21.396 5.7211v-12.2363h-2.931c-.794 0-1.398.1833-1.812.5498-.414.3664-.618.8008-.611 1.303-.007.509.19.9399.59 1.2928.407.3462 1.005.5192 1.792.5192h4.418v2.9318h-4.418c-1.337 0-2.494-.2036-3.471-.6108-.978-.4072-1.731-.9738-2.26-1.7-.53-.733-.791-1.5847-.784-2.5552-.007-1.018.254-1.9104.784-2.6773.529-.7737 1.286-1.3743 2.27-1.8018.991-.4344 2.158-.6516 3.502-.6516h6.973v15.6364zm-9.935 0 4.347-8.1439h4.143l-4.337 8.1439z" fill="#000"/><path d="m52.0587 623.617h-4.4588c-.0814-.577-.2477-1.089-.4988-1.537-.2511-.455-.5735-.842-.9671-1.161s-.8483-.563-1.3641-.732c-.509-.17-1.0621-.255-1.6593-.255-1.0791 0-2.0191.268-2.8199.804-.8008.53-1.4218 1.303-1.8629 2.321-.4411 1.011-.6617 2.24-.6617 3.685 0 1.487.2206 2.735.6617 3.747.4479 1.011 1.0723 1.774 1.8731 2.29s1.7272.774 2.7791.774c.5905 0 1.1368-.078 1.639-.234.509-.156.9603-.384 1.3539-.682.3936-.306.7194-.676.9773-1.11.2647-.434.4479-.93.5497-1.486l4.4588.02c-.1154.957-.4038 1.88-.8653 2.769-.4547.882-1.0689 1.673-1.8425 2.372-.7669.692-1.6831 1.242-2.7486 1.649-1.0587.4-2.2566.601-3.5935.601-1.8596 0-3.5223-.421-4.9882-1.263-1.4591-.841-2.6129-2.059-3.4612-3.654-.8415-1.595-1.2623-3.526-1.2623-5.793 0-2.273.4276-4.207 1.2827-5.802s2.0156-2.81 3.4815-3.645c1.4659-.841 3.1151-1.262 4.9475-1.262 1.208 0 2.3278.17 3.3593.509 1.0384.339 1.958.835 2.7588 1.486.8008.645 1.4523 1.436 1.9545 2.372.509.937.8348 2.009.9773 3.217zm1.9328 13.55v-15.637h4.3366v6.067h1.2216l4.2552-6.067h5.09l-5.5277 7.757 5.5888 7.88h-5.1511l-3.8582-5.548h-1.6186v5.548zm22.0712.305c-1.5813 0-2.9488-.336-4.1025-1.008-1.147-.678-2.0326-1.622-2.657-2.83-.6244-1.215-.9366-2.623-.9366-4.224 0-1.616.3122-3.027.9366-4.235.6244-1.215 1.51-2.158 2.657-2.83 1.1537-.679 2.5212-1.018 4.1025-1.018 1.5812 0 2.9454.339 4.0923 1.018 1.1537.672 2.0428 1.615 2.6671 2.83.6244 1.208.9366 2.619.9366 4.235 0 1.601-.3122 3.009-.9366 4.224-.6243 1.208-1.5134 2.152-2.6671 2.83-1.1469.672-2.5111 1.008-4.0923 1.008zm.0203-3.359c.7194 0 1.32-.204 1.8019-.611.4818-.414.8449-.977 1.0892-1.69.2511-.713.3767-1.524.3767-2.433s-.1256-1.72-.3767-2.433c-.2443-.713-.6074-1.276-1.0892-1.69-.4819-.414-1.0825-.621-1.8019-.621-.7261 0-1.3369.207-1.8324.621-.4886.414-.8585.977-1.1096 1.69-.2443.713-.3664 1.524-.3664 2.433s.1221 1.72.3664 2.433c.2511.713.621 1.276 1.1096 1.69.4955.407 1.1063.611 1.8324.611zm9.3489 8.917v-21.5h4.2755v2.627h.1934c.1901-.421.4649-.849.8246-1.283.3665-.441.8416-.808 1.4252-1.099.5904-.299 1.3234-.448 2.1989-.448 1.1401 0 2.1921.298 3.1558.895.9637.591 1.7339 1.483 2.3108 2.678.5769 1.187.8649 2.677.8649 4.469 0 1.744-.281 3.217-.8445 4.418-.5565 1.194-1.3166 2.1-2.2803 2.718-.957.611-2.0292.916-3.2169.916-.8415 0-1.5575-.139-2.148-.417-.5836-.279-1.0621-.628-1.4353-1.049-.3733-.427-.6583-.858-.8552-1.293h-.1323v8.368zm4.245-13.682c0 .93.1289 1.741.3868 2.433.2579.693.6312 1.232 1.1198 1.619.4887.38 1.0825.57 1.7815.57.7058 0 1.303-.193 1.7917-.58.4886-.394.8585-.937 1.1096-1.629.2579-.699.3868-1.503.3868-2.413 0-.902-.1255-1.696-.3766-2.382-.2511-.685-.621-1.221-1.1096-1.608-.4887-.387-1.0893-.58-1.8019-.58-.7058 0-1.303.186-1.7917.56-.4818.373-.8517.902-1.1096 1.588-.2579.685-.3868 1.493-.3868 2.422zm19.8141 8.124c-1.582 0-2.949-.336-4.103-1.008-1.147-.678-2.032-1.622-2.657-2.83-.624-1.215-.936-2.623-.936-4.224 0-1.616.312-3.027.936-4.235.625-1.215 1.51-2.158 2.657-2.83 1.154-.679 2.521-1.018 4.103-1.018 1.581 0 2.945.339 4.092 1.018 1.154.672 2.043 1.615 2.667 2.83.625 1.208.937 2.619.937 4.235 0 1.601-.312 3.009-.937 4.224-.624 1.208-1.513 2.152-2.667 2.83-1.147.672-2.511 1.008-4.092 1.008zm.02-3.359c.719 0 1.32-.204 1.802-.611.482-.414.845-.977 1.089-1.69.251-.713.377-1.524.377-2.433s-.126-1.72-.377-2.433c-.244-.713-.607-1.276-1.089-1.69s-1.083-.621-1.802-.621c-.726 0-1.337.207-1.832.621-.489.414-.859.977-1.11 1.69-.244.713-.366 1.524-.366 2.433s.122 1.72.366 2.433c.251.713.621 1.276 1.11 1.69.495.407 1.106.611 1.832.611zm16.414 3.359c-1.602 0-2.98-.339-4.133-1.018-1.147-.685-2.029-1.636-2.647-2.85-.611-1.215-.916-2.613-.916-4.194 0-1.602.309-3.007.926-4.215.624-1.215 1.51-2.162 2.657-2.84 1.147-.686 2.511-1.028 4.092-1.028 1.365 0 2.559.247 3.584.743 1.025.495 1.836 1.191 2.433 2.087s.926 1.947.987 3.155h-4.092c-.116-.78-.421-1.408-.916-1.883-.489-.482-1.13-.723-1.924-.723-.672 0-1.259.184-1.761.55-.496.36-.883.886-1.161 1.578s-.417 1.53-.417 2.514c0 .998.135 1.846.407 2.545.278.699.668 1.232 1.171 1.599.502.366 1.089.549 1.761.549.495 0 .94-.101 1.333-.305.401-.204.73-.499.988-.886.264-.393.437-.865.519-1.415h4.092c-.068 1.195-.393 2.247-.977 3.156-.577.903-1.374 1.609-2.392 2.118s-2.223.763-3.614.763zm7.547-12.531v-3.411h14.17v3.411h-5.039v12.226h-4.133v-12.226zm18.371 1.394h4.672c2.07 0 3.685.496 4.846 1.486 1.16.985 1.741 2.301 1.741 3.95 0 1.073-.262 2.016-.784 2.83-.523.808-1.276 1.439-2.26 1.894-.984.448-2.165.672-3.543.672h-7.391v-15.637h4.144v12.226h3.247c.726 0 1.324-.183 1.792-.549.468-.367.706-.835.712-1.405-.006-.604-.244-1.096-.712-1.476-.468-.387-1.066-.581-1.792-.581h-4.672zm25.541 11.137c-1.582 0-2.949-.336-4.103-1.008-1.147-.678-2.032-1.622-2.657-2.83-.624-1.215-.936-2.623-.936-4.224 0-1.616.312-3.027.936-4.235.625-1.215 1.51-2.158 2.657-2.83 1.154-.679 2.521-1.018 4.103-1.018 1.581 0 2.945.339 4.092 1.018 1.154.672 2.043 1.615 2.667 2.83.624 1.208.937 2.619.937 4.235 0 1.601-.313 3.009-.937 4.224-.624 1.208-1.513 2.152-2.667 2.83-1.147.672-2.511 1.008-4.092 1.008zm.02-3.359c.719 0 1.32-.204 1.802-.611.482-.414.845-.977 1.089-1.69.251-.713.377-1.524.377-2.433s-.126-1.72-.377-2.433c-.244-.713-.607-1.276-1.089-1.69s-1.083-.621-1.802-.621c-.726 0-1.337.207-1.832.621-.489.414-.859.977-1.11 1.69-.244.713-.366 1.524-.366 2.433s.122 1.72.366 2.433c.251.713.621 1.276 1.11 1.69.495.407 1.106.611 1.832.611zm8.127 7.635v-8.022h1.201c.347-.217.625-.563.835-1.039.217-.475.394-1.034.53-1.679.142-.645.251-1.341.325-2.087.082-.753.153-1.514.214-2.28l.407-5.111h11.992v12.196h2.423v8.022h-4.133v-4.581h-9.559v4.581zm5.518-8.022h5.894v-8.857h-4.215l-.162 1.772c-.116 1.669-.282 3.087-.499 4.255-.217 1.16-.557 2.104-1.018 2.83zm20.854 3.746c-1.581 0-2.948-.336-4.102-1.008-1.147-.678-2.033-1.622-2.657-2.83-.624-1.215-.937-2.623-.937-4.224 0-1.616.313-3.027.937-4.235.624-1.215 1.51-2.158 2.657-2.83 1.154-.679 2.521-1.018 4.102-1.018 1.582 0 2.946.339 4.093 1.018 1.154.672 2.043 1.615 2.667 2.83.624 1.208.936 2.619.936 4.235 0 1.601-.312 3.009-.936 4.224-.624 1.208-1.513 2.152-2.667 2.83-1.147.672-2.511 1.008-4.093 1.008zm.021-3.359c.719 0 1.32-.204 1.802-.611.482-.414.845-.977 1.089-1.69.251-.713.377-1.524.377-2.433s-.126-1.72-.377-2.433c-.244-.713-.607-1.276-1.089-1.69s-1.083-.621-1.802-.621c-.726 0-1.337.207-1.833.621-.488.414-.858.977-1.109 1.69-.244.713-.367 1.524-.367 2.433s.123 1.72.367 2.433c.251.713.621 1.276 1.109 1.69.496.407 1.107.611 1.833.611zm22.348-18.324 1.324 2.83c-.441.366-.93.638-1.466.814-.536.17-1.178.282-1.924.336-.74.054-1.642.092-2.708.112-1.208.014-2.192.207-2.952.58-.76.374-1.337.961-1.731 1.761-.393.795-.651 1.833-.773 3.116h.152c.469-.957 1.127-1.697 1.975-2.22.855-.522 1.911-.784 3.166-.784 1.33 0 2.494.292 3.492.876 1.004.584 1.785 1.422 2.341 2.514.557 1.093.835 2.403.835 3.93 0 1.588-.312 2.969-.937 4.143-.617 1.167-1.496 2.073-2.636 2.718-1.14.638-2.498.957-4.072.957-1.581 0-2.945-.333-4.092-.998-1.141-.665-2.023-1.645-2.647-2.942-.618-1.296-.927-2.891-.927-4.784v-1.283c0-3.766.733-6.559 2.199-8.378s3.621-2.742 6.465-2.769c.773-.013 1.472-.017 2.097-.01.624.007 1.17-.024 1.639-.092.475-.068.868-.21 1.18-.427zm-5.894 18.324c.665 0 1.235-.173 1.71-.52.482-.346.852-.841 1.11-1.486.265-.645.397-1.415.397-2.311 0-.889-.132-1.642-.397-2.26-.258-.624-.628-1.099-1.11-1.425-.481-.326-1.058-.488-1.73-.488-.502 0-.954.091-1.354.274-.4.184-.743.455-1.028.815-.278.353-.496.79-.652 1.313-.149.516-.224 1.106-.224 1.771 0 1.337.289 2.393.866 3.166.583.767 1.387 1.151 2.412 1.151zm9.357 8.917v-21.5h4.275v2.627h.194c.19-.421.465-.849.824-1.283.367-.441.842-.808 1.425-1.099.591-.299 1.324-.448 2.199-.448 1.14 0 2.192.298 3.156.895.964.591 1.734 1.483 2.311 2.678.577 1.187.865 2.677.865 4.469 0 1.744-.281 3.217-.845 4.418-.556 1.194-1.316 2.1-2.28 2.718-.957.611-2.029.916-3.217.916-.841 0-1.557-.139-2.148-.417-.583-.279-1.062-.628-1.435-1.049-.373-.427-.658-.858-.855-1.293h-.133v8.368zm4.245-13.682c0 .93.129 1.741.387 2.433.257.693.631 1.232 1.119 1.619.489.38 1.083.57 1.782.57.706 0 1.303-.193 1.792-.58.488-.394.858-.937 1.109-1.629.258-.699.387-1.503.387-2.413 0-.902-.126-1.696-.377-2.382-.251-.685-.621-1.221-1.109-1.608-.489-.387-1.09-.58-1.802-.58-.706 0-1.303.186-1.792.56-.482.373-.852.902-1.109 1.588-.258.685-.387 1.493-.387 2.422zm19.875 8.124c-1.609 0-2.993-.326-4.154-.977-1.154-.659-2.043-1.588-2.667-2.79-.624-1.208-.936-2.636-.936-4.285 0-1.609.312-3.02.936-4.235s1.503-2.162 2.637-2.84c1.14-.679 2.477-1.018 4.011-1.018 1.031 0 1.991.166 2.88.498.896.326 1.677.818 2.342 1.477.672.658 1.194 1.486 1.568 2.483.373.991.559 2.152.559 3.482v1.191h-13.203v-2.687h9.121c0-.625-.135-1.178-.407-1.66-.271-.482-.648-.858-1.13-1.13-.475-.278-1.028-.417-1.659-.417-.658 0-1.242.153-1.751.458-.502.299-.896.702-1.181 1.211-.285.503-.431 1.062-.438 1.68v2.555c0 .774.143 1.442.428 2.006.292.563.702.997 1.232 1.303.529.305 1.157.458 1.883.458.482 0 .923-.068 1.323-.204.401-.136.743-.339 1.028-.611.285-.271.503-.604.652-.997l4.011.264c-.204.964-.621 1.806-1.252 2.525-.625.713-1.432 1.269-2.423 1.67-.984.393-2.121.59-3.41.59zm19.742-9.854v3.41h-8.164v-3.41zm-6.739-6.088v15.637h-4.143v-15.637zm9.457 0v15.637h-4.112v-15.637zm6.361 9.916 5.63-9.916h4.275v15.637h-4.133v-9.946l-5.609 9.946h-4.306v-15.637h4.143zm21.397 5.721v-12.237h-2.932c-.794 0-1.398.184-1.812.55-.414.367-.617.801-.611 1.303-.006.509.19.94.591 1.293.407.346 1.004.519 1.791.519h4.419v2.932h-4.419c-1.337 0-2.494-.204-3.471-.611s-1.73-.974-2.26-1.7c-.529-.733-.79-1.585-.784-2.555-.006-1.018.255-1.91.784-2.677.53-.774 1.286-1.375 2.27-1.802.991-.435 2.158-.652 3.502-.652h6.973v15.637zm-9.936 0 4.347-8.144h4.143l-4.336 8.144z" fill="#000"/><path d="m31.8516 241.676h792.2754l.001-69.676-481.323-.796-310.9534-43z" fill="url(#a)" opacity=".4"/><rect fill="#cacaca" height="8.17935" rx="4.08967" width="8.17935" x="820.334" y="167.222"/><path d="m824.127 171.204h-481.72l-310.5555-43.398" stroke="#cacaca" stroke-width="3.18519"/><path d="m707.929 229.779v19.396l-7.234-7.262-3.176 3.149 12.704 12.678 12.677-12.678-3.121-3.149-7.262 7.262v-19.396z" fill="#cacaca"/><path d="m744.072 258.37c-2.335-.009-4.344-.584-6.027-1.724-1.674-1.14-2.963-2.791-3.868-4.954-.896-2.163-1.339-4.764-1.33-7.805 0-3.031.448-5.614 1.344-7.75.904-2.135 2.194-3.76 3.868-4.873 1.683-1.122 3.687-1.683 6.013-1.683 2.325 0 4.325.561 5.999 1.683 1.683 1.122 2.977 2.751 3.882 4.887.905 2.126 1.353 4.705 1.344 7.736 0 3.05-.453 5.656-1.357 7.819-.896 2.162-2.181 3.814-3.855 4.954s-3.679 1.71-6.013 1.71zm0-4.873c1.592 0 2.864-.801 3.814-2.402.95-1.602 1.421-4.004 1.412-7.208 0-2.108-.218-3.863-.652-5.266-.425-1.403-1.032-2.457-1.819-3.163-.778-.705-1.696-1.058-2.755-1.058-1.584 0-2.851.792-3.801 2.375-.95 1.584-1.429 3.954-1.438 7.112 0 2.136.212 3.919.638 5.348.434 1.421 1.045 2.489 1.832 3.204.787.705 1.71 1.058 2.769 1.058zm20.243.462-.15 1.493c-.117 1.194-.344 2.384-.678 3.57-.326 1.194-.67 2.275-1.032 3.244-.353.968-.638 1.728-.855 2.28h-3.746c.135-.534.321-1.281.556-2.24.236-.95.457-2.018.665-3.203s.34-2.393.394-3.624l.068-1.52zm14.375-24.378c1.43 0 2.806.24 4.127.72 1.33.479 2.515 1.244 3.556 2.294 1.049 1.049 1.877 2.443 2.484 4.18.615 1.728.927 3.85.936 6.366 0 2.362-.267 4.47-.801 6.325-.524 1.846-1.28 3.416-2.266 4.71-.987 1.294-2.177 2.28-3.57 2.959-1.394.67-2.95 1.004-4.669 1.004-1.855 0-3.493-.357-4.914-1.072-1.42-.724-2.565-1.706-3.434-2.945-.859-1.249-1.38-2.652-1.561-4.208h5.796c.226 1.013.701 1.801 1.425 2.362.724.552 1.62.828 2.688.828 1.81 0 3.185-.788 4.126-2.362.941-1.584 1.416-3.751 1.425-6.502h-.19c-.416.815-.977 1.516-1.683 2.104-.706.579-1.516 1.027-2.429 1.344-.905.317-1.869.475-2.892.475-1.637 0-3.099-.385-4.384-1.154s-2.298-1.828-3.04-3.176-1.113-2.886-1.113-4.615c-.009-1.864.421-3.524 1.289-4.981.869-1.457 2.082-2.597 3.638-3.421 1.565-.832 3.384-1.244 5.456-1.235zm.041 4.615c-.914 0-1.728.217-2.443.652-.706.434-1.267 1.018-1.683 1.751-.407.733-.606 1.551-.597 2.456 0 .914.199 1.738.597 2.471.407.724.959 1.303 1.656 1.737.706.425 1.511.638 2.416.638.678 0 1.307-.127 1.886-.38.58-.253 1.082-.602 1.507-1.045.434-.453.774-.973 1.018-1.561s.367-1.213.367-1.873c-.009-.878-.218-1.683-.625-2.416s-.968-1.321-1.683-1.765c-.715-.443-1.52-.665-2.416-.665zm29.958 18.351v-1.466c0-1.113.235-2.135.706-3.067.479-.941 1.172-1.692 2.076-2.253.914-.571 2.027-.856 3.339-.856 1.331 0 2.448.281 3.353.842.914.561 1.602 1.312 2.063 2.253.471.932.706 1.959.706 3.081v1.466c0 1.113-.235 2.14-.706 3.081-.47.932-1.163 1.679-2.077 2.24-.913.57-2.026.855-3.339.855-1.33 0-2.447-.285-3.352-.855-.905-.561-1.593-1.308-2.063-2.24-.471-.941-.706-1.968-.706-3.081zm3.95-1.466v1.466c0 .643.154 1.249.461 1.819.317.57.887.855 1.71.855.824 0 1.385-.28 1.684-.841.307-.561.461-1.172.461-1.833v-1.466c0-.66-.145-1.276-.434-1.846-.29-.57-.86-.855-1.711-.855-.814 0-1.38.285-1.696.855-.317.57-.475 1.186-.475 1.846zm-18.216-14.442v-1.466c0-1.122.24-2.149.72-3.081.479-.941 1.172-1.692 2.077-2.253.913-.561 2.017-.841 3.311-.841 1.34 0 2.462.28 3.367.841.904.561 1.592 1.312 2.063 2.253.47.932.706 1.959.706 3.081v1.466c0 1.122-.24 2.149-.72 3.081-.47.932-1.163 1.679-2.077 2.24-.904.552-2.017.828-3.339.828-1.321 0-2.438-.281-3.352-.842-.905-.57-1.593-1.316-2.063-2.239-.462-.932-.693-1.955-.693-3.068zm3.977-1.466v1.466c0 .661.154 1.272.462 1.833.317.561.873.841 1.669.841.833 0 1.398-.28 1.697-.841.308-.561.462-1.172.462-1.833v-1.466c0-.66-.145-1.275-.435-1.846-.289-.57-.864-.855-1.724-.855-.805 0-1.361.29-1.669.869s-.462 1.19-.462 1.832zm-2.185 22.586 19.111-27.798h3.556l-19.111 27.798z" fill="#000"/><path d="m36.7888 113.899c-.7088 0-1.346-.136-1.9115-.407-.5618-.275-1.0105-.652-1.346-1.131-.3356-.479-.5147-1.026-.5373-1.64h1.6966c.0415.497.2621.906.6617 1.227.3997.32.8785.481 1.4365.481.4449 0 .8389-.102 1.182-.306.3469-.207.6184-.492.8144-.854.1999-.362.2998-.775.2998-1.238 0-.472-.1018-.892-.3054-1.261-.2036-.37-.4845-.66-.8427-.871-.3544-.212-.7616-.319-1.2216-.323-.3506 0-.7032.061-1.0576.181-.3544.121-.6409.279-.8596.475l-1.6005-.237.6504-5.837h6.3681v1.499h-4.9147l-.3676 3.241h.0679c.2262-.219.5259-.402.8992-.549.377-.147.7805-.221 1.2103-.221.705 0 1.3328.168 1.8833.504.5542.335.9897.793 1.3064 1.374.3205.577.4788 1.24.4751 1.991.0037.75-.1659 1.419-.509 2.007-.3394.589-.8107 1.052-1.4139 1.392-.5995.335-1.2876.503-2.0643.503zm9.9193 0c-.5165-.007-1.0255-.102-1.527-.283-.4977-.181-.9501-.482-1.3573-.905-.4072-.422-.7333-.989-.9784-1.702-.2413-.712-.362-1.602-.362-2.669 0-1.011.1-1.908.2998-2.692.2036-.785.4958-1.446.8766-1.985.3808-.543.8408-.956 1.3799-1.239.5392-.283 1.1443-.424 1.8155-.424.6899 0 1.3026.136 1.838.407.5354.272.969.647 1.3008 1.126.3355.478.5486 1.023.639 1.634h-1.7249c-.1169-.483-.3487-.877-.6956-1.182s-.7993-.458-1.3573-.458c-.8484 0-1.5101.369-1.9851 1.108-.4713.739-.7089 1.767-.7126 3.083h.0848c.1998-.328.4449-.607.7352-.837.2941-.234.6221-.413.9841-.538.3657-.128.7503-.192 1.1537-.192.6711 0 1.2782.164 1.8211.492.5467.324.9822.773 1.3064 1.346.3243.573.4864 1.229.4864 1.968s-.1678 1.408-.5034 2.008c-.3317.599-.7993 1.074-1.4025 1.425-.6033.347-1.3083.517-2.1152.509zm-.0056-1.47c.4449 0 .8426-.11 1.1933-.328.3506-.219.6277-.513.8313-.883.2036-.369.3054-.782.3054-1.238 0-.445-.0999-.85-.2997-1.216-.1961-.366-.4675-.656-.8144-.871-.3431-.215-.7352-.322-1.1764-.322-.3355 0-.6466.064-.9331.192-.2828.128-.5316.305-.7465.531-.215.227-.3846.487-.509.781-.1207.29-.181.598-.181.922 0 .433.0999.835.2997 1.204.2036.37.4807.668.8314.894.3544.222.7541.334 1.199.334zm7.6033-.272-.0848.617c-.0566.452-.1527.923-.2885 1.414-.1319.493-.2695.952-.4128 1.374-.1395.422-.2545.758-.345 1.006h-1.199c.0491-.233.1169-.55.2036-.95.0868-.396.1716-.839.2545-1.329.083-.49.1452-.989.1867-1.498l.0565-.634zm5.812 1.742c-.5166-.007-1.0256-.102-1.527-.283-.4977-.181-.9501-.482-1.3573-.905-.4072-.422-.7334-.989-.9784-1.702-.2413-.712-.362-1.602-.362-2.669 0-1.011.0999-1.908.2998-2.692.2036-.785.4958-1.446.8766-1.985.3808-.543.8407-.956 1.3799-1.239s1.1443-.424 1.8154-.424c.69 0 1.3027.136 1.8381.407.5354.272.9689.647 1.3007 1.126.3356.478.5486 1.023.6391 1.634h-1.7249c-.1169-.483-.3488-.877-.6957-1.182-.3468-.305-.7993-.458-1.3573-.458-.8483 0-1.51.369-1.9851 1.108-.4713.739-.7088 1.767-.7126 3.083h.0849c.1998-.328.4449-.607.7352-.837.2941-.234.6221-.413.9841-.538.3657-.128.7503-.192 1.1537-.192.6711 0 1.2781.164 1.8211.492.5467.324.9821.773 1.3064 1.346.3242.573.4864 1.229.4864 1.968s-.1678 1.408-.5034 2.008c-.3318.599-.7993 1.074-1.4026 1.425-.6032.347-1.3083.517-2.1151.509zm-.0057-1.47c.4449 0 .8427-.11 1.1933-.328.3507-.219.6278-.513.8314-.883.2036-.369.3054-.782.3054-1.238 0-.445-.0999-.85-.2997-1.216-.1961-.366-.4676-.656-.8144-.871-.3431-.215-.7353-.322-1.1764-.322-.3355 0-.6466.064-.9331.192-.2828.128-.5317.305-.7466.531-.2149.227-.3845.487-.509.781-.1206.29-.1809.598-.1809.922 0 .433.0999.835.2997 1.204.2036.37.4807.668.8314.894.3544.222.754.334 1.1989.334z" fill="#cfcfcf"/><path d="m797.14 160.084c-.709 0-1.346-.135-1.911-.407-.562-.275-1.011-.652-1.346-1.131-.336-.479-.515-1.026-.538-1.64h1.697c.042.498.262.907.662 1.227.399.321.878.481 1.436.481.445 0 .839-.102 1.182-.306.347-.207.619-.492.815-.854.199-.362.299-.774.299-1.238 0-.471-.101-.892-.305-1.261-.204-.37-.484-.66-.843-.871-.354-.211-.761-.319-1.221-.323-.351 0-.703.061-1.058.181-.354.121-.641.279-.859.475l-1.601-.237.65-5.837h6.368v1.499h-4.914l-.368 3.241h.068c.226-.219.526-.402.899-.549.377-.147.781-.22 1.211-.22.705 0 1.332.167 1.883.503.554.335.99.794 1.306 1.374.321.577.479 1.241.475 1.991.004.75-.166 1.419-.509 2.008-.339.588-.81 1.052-1.413 1.391-.6.335-1.288.503-2.065.503zm9.699 0c-.709 0-1.346-.135-1.912-.407-.561-.275-1.01-.652-1.346-1.131-.335-.479-.514-1.026-.537-1.64h1.697c.041.498.262.907.661 1.227.4.321.879.481 1.437.481.445 0 .839-.102 1.182-.306.347-.207.618-.492.814-.854.2-.362.3-.774.3-1.238 0-.471-.102-.892-.305-1.261-.204-.37-.485-.66-.843-.871-.354-.211-.762-.319-1.222-.323-.35 0-.703.061-1.057.181-.355.121-.641.279-.86.475l-1.6-.237.65-5.837h6.368v1.499h-4.914l-.368 3.241h.068c.226-.219.526-.402.899-.549.377-.147.781-.22 1.21-.22.705 0 1.333.167 1.884.503.554.335.989.794 1.306 1.374.321.577.479 1.241.475 1.991.004.75-.166 1.419-.509 2.008-.339.588-.811 1.052-1.414 1.391-.599.335-1.287.503-2.064.503zm7.678-1.742-.085.617c-.056.452-.152.924-.288 1.414-.132.494-.27.952-.413 1.374-.139.422-.254.758-.345 1.007h-1.199c.049-.234.117-.551.204-.95.087-.396.171-.839.254-1.33.083-.49.145-.989.187-1.498l.056-.634zm2.283 1.584 5.056-9.999v-.085h-5.848v-1.499h7.658v1.55l-5.039 10.033z" fill="#cfcfcf"/><path d="m51.3868 328.059v20.848h-4.357v-17.265h-8.4289v17.265h-4.3571v-20.848zm2.9686 26.712v-21.5h4.2756v2.626h.1934c.19-.42.4649-.848.8246-1.282.3664-.441.8415-.808 1.4252-1.1.5904-.298 1.3233-.448 2.1988-.448 1.1402 0 2.1921.299 3.1558.896.9637.591 1.734 1.483 2.3108 2.678.5769 1.187.8653 2.677.8653 4.469 0 1.744-.2816 3.216-.8449 4.418-.5565 1.194-1.3166 2.1-2.2803 2.718-.9569.61-2.0292.916-3.2169.916-.8415 0-1.5575-.139-2.1479-.418-.5837-.278-1.0621-.627-1.4354-1.048-.3733-.428-.6583-.859-.8551-1.293h-.1323v8.368zm4.245-13.682c0 .93.129 1.741.3869 2.433s.6311 1.232 1.1198 1.619c.4886.38 1.0824.57 1.7814.57.7059 0 1.3031-.194 1.7917-.58.4887-.394.8585-.937 1.1096-1.629.2579-.699.3869-1.503.3869-2.413 0-.902-.1256-1.696-.3767-2.382-.2511-.685-.621-1.222-1.1096-1.608-.4886-.387-1.0893-.581-1.8019-.581-.7058 0-1.303.187-1.7916.56-.4819.374-.8517.903-1.1096 1.588-.2579.686-.3869 1.493-.3869 2.423zm19.8138 8.124c-1.5813 0-2.9488-.336-4.1025-1.008-1.1469-.679-2.0326-1.622-2.6569-2.83-.6244-1.215-.9366-2.623-.9366-4.225 0-1.615.3122-3.027.9366-4.235.6243-1.214 1.51-2.158 2.6569-2.83 1.1537-.678 2.5212-1.018 4.1025-1.018s2.9454.34 4.0924 1.018c1.1537.672 2.0427 1.616 2.6671 2.83.6244 1.208.9366 2.62.9366 4.235 0 1.602-.3122 3.01-.9366 4.225-.6244 1.208-1.5134 2.151-2.6671 2.83-1.147.672-2.5111 1.008-4.0924 1.008zm.0204-3.36c.7194 0 1.32-.203 1.8018-.61.4819-.414.845-.978 1.0893-1.69.2511-.713.3766-1.524.3766-2.433 0-.91-.1255-1.721-.3766-2.433-.2443-.713-.6074-1.276-1.0893-1.69-.4818-.414-1.0824-.621-1.8018-.621-.7262 0-1.337.207-1.8324.621-.4886.414-.8585.977-1.1096 1.69-.2443.712-.3665 1.523-.3665 2.433 0 .909.1222 1.72.3665 2.433.2511.712.621 1.276 1.1096 1.69.4954.407 1.1062.61 1.8324.61zm23.0204-12.582v12.643h2.494v8.022h-4.2143v-5.029h-11.9513v-15.636h4.1433v12.226h5.436v-12.226zm10.98 15.942c-1.608 0-2.993-.326-4.153-.978-1.154-.658-2.043-1.588-2.667-2.789-.625-1.208-.937-2.636-.937-4.286 0-1.608.312-3.02.937-4.234.624-1.215 1.503-2.162 2.636-2.841 1.14-.678 2.477-1.018 4.011-1.018 1.032 0 1.992.167 2.881.499.896.326 1.676.818 2.341 1.476.672.659 1.195 1.487 1.568 2.484.373.991.56 2.152.56 3.482v1.191h-13.203v-2.688h9.121c0-.624-.136-1.177-.407-1.659-.272-.482-.648-.859-1.13-1.13-.475-.278-1.028-.417-1.66-.417-.658 0-1.242.152-1.751.458-.502.298-.895.702-1.18 1.211-.285.502-.431 1.062-.438 1.68v2.555c0 .774.142 1.442.427 2.005.292.564.703.998 1.232 1.303.53.306 1.157.459 1.883.459.482 0 .923-.068 1.324-.204.4-.136.743-.339 1.028-.611.285-.271.502-.604.652-.997l4.01.264c-.203.964-.621 1.805-1.252 2.525-.624.712-1.432 1.269-2.422 1.669-.985.394-2.121.591-3.411.591zm19.743-9.854v3.41h-8.165v-3.41zm-6.739-6.088v15.636h-4.144v-15.636zm9.457 0v15.636h-4.113v-15.636zm.647 3.41v-3.41h14.171v3.41h-5.039v12.226h-4.133v-12.226zm28.206 12.532c-1.581 0-2.949-.336-4.102-1.008-1.147-.679-2.033-1.622-2.657-2.83-.625-1.215-.937-2.623-.937-4.225 0-1.615.312-3.027.937-4.235.624-1.214 1.51-2.158 2.657-2.83 1.153-.678 2.521-1.018 4.102-1.018s2.945.34 4.092 1.018c1.154.672 2.043 1.616 2.668 2.83.624 1.208.936 2.62.936 4.235 0 1.602-.312 3.01-.936 4.225-.625 1.208-1.514 2.151-2.668 2.83-1.147.672-2.511 1.008-4.092 1.008zm.02-3.36c.72 0 1.32-.203 1.802-.61.482-.414.845-.978 1.09-1.69.251-.713.376-1.524.376-2.433 0-.91-.125-1.721-.376-2.433-.245-.713-.608-1.276-1.09-1.69s-1.082-.621-1.802-.621c-.726 0-1.337.207-1.832.621-.489.414-.858.977-1.11 1.69-.244.712-.366 1.523-.366 2.433 0 .909.122 1.72.366 2.433.252.712.621 1.276 1.11 1.69.495.407 1.106.61 1.832.61zm7.835-9.172v-3.41h14.17v3.41h-5.039v12.226h-4.133v-12.226zm15.653 12.226v-15.636h4.336v6.067h1.222l4.255-6.067h5.09l-5.528 7.757 5.589 7.879h-5.151l-3.858-5.548h-1.619v5.548zm20.109.296c-.998 0-1.887-.173-2.667-.52-.781-.353-1.398-.872-1.853-1.557-.448-.692-.672-1.554-.672-2.586 0-.869.159-1.598.478-2.189.319-.59.754-1.065 1.303-1.425.55-.359 1.175-.631 1.874-.814.705-.183 1.445-.312 2.219-.387.909-.095 1.642-.183 2.199-.265.556-.088.96-.217 1.211-.386.251-.17.377-.421.377-.754v-.061c0-.645-.204-1.143-.611-1.496-.4-.353-.971-.53-1.71-.53-.781 0-1.402.173-1.863.52-.462.339-.767.766-.916 1.282l-4.011-.326c.203-.95.604-1.771 1.201-2.463.597-.699 1.367-1.235 2.311-1.609.95-.38 2.049-.57 3.298-.57.869 0 1.7.102 2.494.306.801.203 1.51.519 2.128.947.624.427 1.116.977 1.476 1.649.36.665.539 1.462.539 2.392v10.546h-4.112v-2.168h-.122c-.252.489-.587.92-1.008 1.293-.421.366-.927.655-1.517.865-.591.204-1.273.306-2.046.306zm1.242-2.993c.638 0 1.201-.126 1.69-.377.488-.258.872-.604 1.15-1.038.278-.435.417-.927.417-1.476v-1.66c-.135.088-.322.17-.56.245-.23.067-.492.132-.783.193-.292.054-.584.105-.876.153-.292.04-.556.078-.794.112-.509.074-.953.193-1.334.356-.38.163-.675.383-.885.662-.211.271-.316.61-.316 1.018 0 .59.214 1.041.642 1.354.434.305.984.458 1.649.458zm8.977-1.731h4.204c.021.516.251.923.693 1.222.441.298 1.011.448 1.71.448.706 0 1.299-.163 1.781-.489.482-.333.723-.808.723-1.425 0-.38-.095-.709-.285-.988-.19-.285-.455-.509-.794-.672-.339-.162-.733-.244-1.181-.244h-2.25v-2.84h2.25c.672 0 1.188-.156 1.547-.468.367-.313.55-.703.55-1.171 0-.529-.19-.954-.57-1.273-.373-.325-.879-.488-1.517-.488-.644 0-1.181.146-1.608.438-.421.285-.638.658-.652 1.119h-4.184c.014-.936.296-1.747.845-2.433.557-.685 1.303-1.214 2.24-1.588.943-.373 1.999-.56 3.166-.56 1.276 0 2.375.18 3.298.54.93.353 1.642.858 2.138 1.517.502.658.753 1.442.753 2.351 0 .828-.271 1.52-.814 2.077s-1.303.954-2.28 1.191v.163c.644.041 1.228.214 1.75.519.523.306.94.726 1.253 1.262.312.53.468 1.158.468 1.884 0 .97-.285 1.802-.855 2.494-.564.692-1.344 1.225-2.342 1.598-.99.367-2.127.55-3.41.55-1.249 0-2.368-.18-3.359-.54-.984-.366-1.768-.902-2.352-1.608-.577-.706-.882-1.568-.916-2.586zm19.206 4.724c-.998 0-1.887-.173-2.668-.52-.78-.353-1.398-.872-1.852-1.557-.448-.692-.672-1.554-.672-2.586 0-.869.159-1.598.478-2.189.319-.59.754-1.065 1.303-1.425.55-.359 1.174-.631 1.873-.814.706-.183 1.446-.312 2.22-.387.909-.095 1.642-.183 2.198-.265.557-.088.961-.217 1.212-.386.251-.17.377-.421.377-.754v-.061c0-.645-.204-1.143-.611-1.496-.401-.353-.971-.53-1.71-.53-.781 0-1.402.173-1.863.52-.462.339-.767.766-.917 1.282l-4.011-.326c.204-.95.605-1.771 1.202-2.463.597-.699 1.367-1.235 2.311-1.609.95-.38 2.049-.57 3.298-.57.869 0 1.7.102 2.494.306.801.203 1.51.519 2.128.947.624.427 1.116.977 1.476 1.649.359.665.539 1.462.539 2.392v10.546h-4.113v-2.168h-.122c-.251.489-.587.92-1.007 1.293-.421.366-.927.655-1.517.865-.591.204-1.273.306-2.046.306zm1.241-2.993c.638 0 1.202-.126 1.69-.377.489-.258.872-.604 1.151-1.038.278-.435.417-.927.417-1.476v-1.66c-.136.088-.322.17-.56.245-.231.067-.492.132-.784.193-.292.054-.583.105-.875.153-.292.04-.557.078-.794.112-.509.074-.954.193-1.334.356s-.675.383-.885.662c-.211.271-.316.61-.316 1.018 0 .59.214 1.041.641 1.354.435.305.984.458 1.649.458z" fill="#000"/><path d="m31.4893 530.731h792.2757v-87.99l-376.645 1.592s-411.0158-31.924-415.6307-32.636v-.012c-.0525 0-.052.004 0 .012z" fill="url(#c)" opacity=".4"/><rect fill="#04b34a" height="8.17935" rx="4.08967" width="8.17935" x="820.334" y="440.352"/><path d="m31.4536 411.685 414.0744 32.25h378.635" stroke="#04b34a" stroke-width="3.18519"/><path d="m742.929 518.834v19.397l-7.234-7.262-3.176 3.149 12.704 12.677 12.677-12.677-3.121-3.149-7.262 7.262v-19.397z" fill="#04b34a"/><path d="m767.54 541.928v-4.628l11.605-18.283h3.991v6.406h-2.362l-7.316 11.578v.218h16.491v4.709zm13.342 4.887v-6.298l.109-2.05v-19.45h5.511v27.798zm27.807-5.212v-1.466c0-1.113.235-2.136.706-3.068.479-.941 1.172-1.692 2.076-2.253.914-.57 2.027-.855 3.339-.855 1.331 0 2.448.28 3.353.842.914.561 1.602 1.312 2.063 2.253.471.932.706 1.959.706 3.081v1.466c0 1.113-.235 2.14-.706 3.081-.47.932-1.163 1.678-2.077 2.239-.913.57-2.026.856-3.339.856-1.33 0-2.447-.286-3.352-.856-.905-.561-1.593-1.307-2.063-2.239-.471-.941-.706-1.968-.706-3.081zm3.95-1.466v1.466c0 .642.154 1.248.461 1.819.317.57.887.855 1.71.855.824 0 1.385-.281 1.684-.842.307-.561.461-1.172.461-1.832v-1.466c0-.661-.145-1.276-.434-1.846-.29-.57-.86-.855-1.711-.855-.814 0-1.38.285-1.696.855-.317.57-.475 1.185-.475 1.846zm-18.216-14.442v-1.466c0-1.122.24-2.149.72-3.081.479-.941 1.172-1.692 2.077-2.253.913-.561 2.017-.842 3.311-.842 1.34 0 2.462.281 3.367.842.904.561 1.592 1.312 2.063 2.253.47.932.706 1.959.706 3.081v1.466c0 1.122-.24 2.149-.72 3.081-.47.932-1.163 1.679-2.077 2.24-.904.552-2.017.828-3.339.828-1.321 0-2.438-.281-3.352-.842-.905-.57-1.593-1.317-2.063-2.24-.462-.932-.693-1.954-.693-3.067zm3.977-1.466v1.466c0 .66.154 1.271.462 1.832.317.561.873.842 1.669.842.833 0 1.398-.281 1.697-.842.308-.561.462-1.172.462-1.832v-1.466c0-.661-.145-1.276-.435-1.846-.289-.57-.864-.855-1.724-.855-.805 0-1.361.289-1.669.869-.308.579-.462 1.189-.462 1.832zm-2.185 22.586 19.111-27.798h3.556l-19.111 27.798z" fill="#000"/><path d="m32.9657 399.611v-1.267l3.9193-4.06c.4185-.442.7635-.828 1.0349-1.16.2753-.335.4807-.654.6165-.956.1357-.301.2036-.622.2036-.961 0-.385-.0905-.716-.2715-.995-.181-.283-.4279-.5-.7409-.651-.3129-.154-.6654-.232-1.0575-.232-.4148 0-.7767.085-1.0859.255s-.5467.409-.7126.718-.2488.671-.2488 1.086h-1.6684c0-.705.1621-1.322.4864-1.849.3242-.528.7691-.937 1.3347-1.228.5655-.294 1.2084-.441 1.9285-.441.7277 0 1.3686.145 1.9229.436.558.286.9935.678 1.3064 1.176.3129.494.4694 1.052.4694 1.674 0 .43-.0811.85-.2432 1.261-.1583.411-.4355.869-.8313 1.375-.3959.501-.9464 1.11-1.6515 1.826l-2.3018 2.41v.084h5.2144v1.499zm9.5899 0v-1.267l3.9192-4.06c.4185-.442.7635-.828 1.035-1.16.2752-.335.4807-.654.6164-.956.1358-.301.2036-.622.2036-.961 0-.385-.0905-.716-.2714-.995-.181-.283-.428-.5-.7409-.651-.3129-.154-.6655-.232-1.0576-.232-.4147 0-.7767.085-1.0858.255-.3092.17-.5467.409-.7126.718s-.2489.671-.2489 1.086h-1.6684c0-.705.1622-1.322.4864-1.849.3243-.528.7692-.937 1.3347-1.228.5656-.294 1.2084-.441 1.9285-.441.7277 0 1.3687.145 1.9229.436.558.286.9935.678 1.3064 1.176.313.494.4695 1.052.4695 1.674 0 .43-.0811.85-.2432 1.261-.1584.411-.4355.869-.8314 1.375-.3959.501-.9464 1.11-1.6514 1.826l-2.3018 2.41v.084h5.2144v1.499zm11.8124-1.583-.0848.616c-.0566.452-.1527.924-.2884 1.414-.132.494-.2696.952-.4129 1.374-.1395.422-.2545.758-.345 1.007h-1.199c.0491-.234.1169-.551.2036-.95.0868-.396.1716-.839.2545-1.329.083-.49.1452-.99.1867-1.499l.0565-.633zm5.8007 1.741c-.7767 0-1.4705-.133-2.0813-.401-.607-.268-1.0877-.639-1.4421-1.114-.3506-.479-.5392-1.033-.5656-1.663h1.7759c.0226.343.1376.641.345.894.2111.248.4863.441.8257.576.3393.136.7163.204 1.1311.204.4562 0 .8596-.079 1.2102-.237.3545-.159.6316-.379.8314-.662.1998-.287.2998-.617.2998-.99 0-.388-.1-.729-.2998-1.024-.196-.297-.4845-.531-.8653-.701-.377-.169-.8332-.254-1.3686-.254h-.9784v-1.425h.9784c.4298 0 .8068-.078 1.1311-.232.328-.155.5844-.37.7691-.645.1848-.279.2772-.605.2772-.978 0-.359-.0811-.67-.2432-.934-.1584-.267-.3846-.477-.6787-.627-.2903-.151-.6334-.227-1.0293-.227-.377 0-.7296.07-1.0576.21-.3242.135-.5882.331-.7918.588-.2036.252-.3129.556-.328.91h-1.691c.0189-.626.2036-1.176.5543-1.651.3544-.475.8219-.847 1.4025-1.114.5807-.268 1.2254-.402 1.9342-.402.7428 0 1.3837.145 1.9229.436.5429.286.9614.669 1.2555 1.148.2979.479.4449 1.003.4412 1.572.0037.649-.1773 1.199-.543 1.651-.3619.453-.8445.756-1.4478.911v.09c.7692.117 1.3649.423 1.7872.917.426.494.6371 1.106.6334 1.838.0037.637-.1735 1.208-.5316 1.713-.3545.506-.8389.903-1.4535 1.194-.6146.286-1.3177.429-2.1095.429z" fill="#cfcfcf"/><path d="m798.674 421.473v11.583h-1.753v-9.83h-.068l-2.771 1.81v-1.674l2.889-1.889zm6.869 11.741c-.81 0-1.527-.14-2.149-.419-.618-.279-1.103-.663-1.453-1.153-.351-.49-.524-1.048-.521-1.674-.003-.491.097-.941.3-1.352.208-.415.488-.76.843-1.035.354-.279.75-.456 1.188-.532v-.067c-.577-.14-1.039-.449-1.386-.928s-.518-1.029-.515-1.651c-.003-.592.153-1.12.47-1.584.32-.467.759-.835 1.317-1.103.558-.267 1.194-.401 1.906-.401.705 0 1.335.135 1.889.407.558.268.998.635 1.318 1.103.321.463.483.989.486 1.578-.003.622-.181 1.172-.531 1.651-.351.479-.807.788-1.369.928v.067c.434.076.824.253 1.171.532.35.275.629.62.837 1.035.211.411.318.861.322 1.352-.004.626-.181 1.184-.531 1.674-.351.49-.837.874-1.46 1.153-.618.279-1.329.419-2.132.419zm0-1.431c.479 0 .894-.079 1.245-.237.35-.163.622-.387.814-.673.192-.291.29-.63.294-1.018-.004-.404-.109-.76-.317-1.069-.203-.31-.48-.553-.831-.73s-.752-.266-1.205-.266c-.456 0-.861.089-1.216.266-.354.177-.633.42-.837.73-.203.309-.303.665-.299 1.069-.004.388.088.727.277 1.018.192.286.465.51.82.673.354.158.773.237 1.255.237zm0-5.39c.385 0 .726-.077 1.024-.232.298-.154.532-.369.701-.644.174-.275.262-.598.266-.967-.004-.362-.09-.679-.26-.95-.166-.272-.398-.481-.696-.628-.298-.151-.643-.226-1.035-.226-.399 0-.75.075-1.052.226-.297.147-.529.356-.695.628-.166.271-.247.588-.243.95-.004.369.079.692.248.967.17.275.404.49.702.644.301.155.648.232 1.04.232zm7.853 5.079-.085.616c-.057.453-.153.924-.289 1.414-.132.494-.269.952-.413 1.375-.139.422-.254.757-.345 1.006h-1.199c.049-.233.117-.55.204-.95.087-.396.172-.839.255-1.329s.145-.99.186-1.499l.057-.633zm5.8 1.742c-.776 0-1.47-.134-2.081-.402-.607-.267-1.088-.639-1.442-1.114-.351-.479-.539-1.033-.566-1.663h1.776c.023.344.138.641.345.894.211.249.486.441.826.577.339.136.716.204 1.131.204.456 0 .86-.08 1.21-.238.355-.158.632-.379.832-.662.199-.286.299-.616.299-.989 0-.389-.1-.73-.299-1.024-.197-.298-.485-.532-.866-.701-.377-.17-.833-.255-1.368-.255h-.979v-1.425h.979c.429 0 .806-.077 1.131-.232.328-.154.584-.369.769-.645.185-.279.277-.605.277-.978 0-.358-.081-.669-.243-.933-.159-.268-.385-.477-.679-.628-.29-.151-.633-.226-1.029-.226-.377 0-.73.07-1.058.209-.324.136-.588.332-.792.588-.203.253-.312.556-.328.911h-1.691c.019-.626.204-1.177.555-1.652.354-.475.822-.846 1.402-1.114.581-.267 1.226-.401 1.934-.401.743 0 1.384.145 1.923.435.543.287.962.669 1.256 1.148.298.479.445 1.003.441 1.572.004.649-.177 1.199-.543 1.652-.362.452-.844.756-1.448.91v.091c.769.117 1.365.422 1.787.916.426.494.638 1.107.634 1.838.004.637-.174 1.209-.532 1.714-.354.505-.839.903-1.453 1.193-.615.287-1.318.43-2.11.43z" fill="#cfcfcf"/><path d="m824.152 818.991h-792.2755v-115.861l161.6235 32.25 630.652 13.935z" fill="url(#d)" opacity=".4"/><rect fill="#04b34a" height="8.17935" rx="4.08967" width="8.17935" x="820.334" y="746.926"/><path d="m31.8516 703.13 158.8784 31.854c1.313.263 2.647.412 3.985.444l627.461 15.081" stroke="#04b34a" stroke-width="3.18519"/><path d="m704.929 807.094v19.396l-7.234-7.262-3.176 3.149 12.704 12.677 12.677-12.677-3.121-3.149-7.262 7.262v-19.396z" fill="#04b34a"/><path d="m731.137 835.074 11.523-22.803v-.19h-13.424v-4.805h19.505v4.873l-11.537 22.925zm22.801-3.8-.149 1.493c-.118 1.194-.344 2.384-.679 3.569-.326 1.195-.67 2.276-1.032 3.244-.353.969-.638 1.729-.855 2.281h-3.746c.136-.534.321-1.281.557-2.24.235-.95.456-2.018.665-3.203.208-1.186.339-2.394.393-3.624l.068-1.52zm4.42-1.086v-4.629l11.605-18.283h3.99v6.407h-2.361l-7.316 11.578v.217h16.491v4.71zm13.342 4.886v-6.298l.109-2.05v-19.45h5.51v27.798zm39.193-20.848v20.848h-5.484v-20.848zm-2.674 9.148v4.561c-.443.199-.995.389-1.656.57-.661.172-1.353.312-2.077.42-.724.109-1.402.163-2.036.163-2.995 0-5.352-.615-7.071-1.846-1.72-1.239-2.579-3.217-2.579-5.931v-7.113h5.456v7.113c0 .805.136 1.443.407 1.914.281.47.724.809 1.331 1.018.615.199 1.434.298 2.456.298.95 0 1.882-.099 2.796-.298s1.905-.489 2.973-.869zm10.151 12.053c-.896 0-1.665-.317-2.307-.95-.634-.643-.951-1.412-.951-2.308 0-.886.317-1.647.951-2.28.642-.633 1.411-.95 2.307-.95.869 0 1.629.317 2.28.95.652.633.978 1.394.978 2.28 0 .598-.154 1.145-.462 1.643-.299.488-.692.882-1.181 1.181-.488.289-1.027.434-1.615.434z" fill="#000"/><path d="m37.36 679.473v11.583h-1.7532v-9.83h-.0678l-2.7712 1.81v-1.674l2.8899-1.889zm7.3503 0v11.583h-1.7532v-9.83h-.0679l-2.7712 1.81v-1.674l2.89-1.889zm4.5098 9.999-.0848.616c-.0566.453-.1527.924-.2885 1.414-.1319.494-.2696.952-.4128 1.375-.1395.422-.2545.757-.345 1.006h-1.199c.049-.233.1169-.55.2036-.95.0867-.396.1716-.839.2545-1.329.083-.49.1452-.99.1866-1.499l.0566-.633zm5.8006 1.742c-.7766 0-1.4704-.134-2.0812-.402-.607-.267-1.0877-.639-1.4421-1.114-.3507-.479-.5392-1.033-.5656-1.663h1.7758c.0227.344.1377.641.345.894.2112.249.4864.441.8257.577.3394.136.7164.204 1.1311.204.4562 0 .8597-.08 1.2103-.238.3544-.158.6316-.379.8314-.662.1998-.286.2997-.616.2997-.989 0-.389-.0999-.73-.2997-1.024-.1961-.298-.4845-.532-.8653-.701-.377-.17-.8333-.255-1.3686-.255h-.9785v-1.425h.9785c.4298 0 .8068-.077 1.1311-.232.328-.154.5844-.369.7691-.645.1847-.279.2771-.605.2771-.978 0-.358-.081-.669-.2432-.933-.1583-.268-.3845-.477-.6786-.628-.2903-.151-.6334-.226-1.0293-.226-.3771 0-.7296.07-1.0576.209-.3243.136-.5882.332-.7918.588-.2036.253-.3129.556-.328.911h-1.691c.0189-.626.2036-1.177.5542-1.652.3545-.475.822-.846 1.4026-1.114.5806-.267 1.2254-.401 1.9342-.401.7428 0 1.3837.145 1.9229.435.5429.287.9614.669 1.2555 1.148.2978.479.4449 1.003.4411 1.572.0038.649-.1772 1.199-.5429 1.652-.362.452-.8446.756-1.4478.91v.091c.7691.117 1.3648.422 1.7871.916.4261.494.6372 1.107.6334 1.838.0038.637-.1734 1.209-.5316 1.714-.3544.505-.8389.903-1.4534 1.193-.6146.287-1.3178.43-2.1096.43z" fill="#cfcfcf"/><path d="m805.487 738.195c-.777 0-1.47-.134-2.081-.401-.607-.268-1.088-.639-1.442-1.114-.351-.479-.54-1.033-.566-1.663h1.776c.022.343.137.641.345.894.211.248.486.441.826.576.339.136.716.204 1.131.204.456 0 .859-.079 1.21-.238.354-.158.631-.378.831-.661.2-.287.3-.617.3-.99 0-.388-.1-.73-.3-1.024-.196-.297-.484-.531-.865-.701-.377-.17-.833-.254-1.369-.254h-.978v-1.426h.978c.43 0 .807-.077 1.131-.231.328-.155.585-.37.77-.645.184-.279.277-.605.277-.979 0-.358-.081-.669-.243-.933-.159-.267-.385-.477-.679-.628-.29-.15-.634-.226-1.029-.226-.377 0-.73.07-1.058.21-.324.135-.588.331-.792.588-.203.252-.313.556-.328.91h-1.691c.019-.626.204-1.176.554-1.651.355-.475.822-.847 1.403-1.114.581-.268 1.225-.402 1.934-.402.743 0 1.384.145 1.923.436.543.286.962.669 1.256 1.148.297.479.445 1.003.441 1.572.004.648-.177 1.199-.543 1.651-.362.453-.845.756-1.448.911v.09c.769.117 1.365.423 1.787.917.426.493.637 1.106.634 1.838.003.637-.174 1.208-.532 1.713-.354.505-.839.903-1.454 1.194-.614.286-1.317.429-2.109.429zm7.936-1.742-.085.617c-.057.452-.153.924-.289 1.414-.132.494-.269.952-.413 1.374-.139.422-.254.758-.345 1.007h-1.198c.049-.234.116-.551.203-.95.087-.396.172-.839.255-1.329.083-.491.145-.99.186-1.499l.057-.634zm5.899-10.157c.517.004 1.026.098 1.527.283.502.185.954.486 1.358.905.407.418.731.984.972 1.696.245.709.37 1.592.374 2.647 0 1.014-.102 1.917-.306 2.709-.203.788-.496 1.454-.876 1.997-.378.543-.836.955-1.375 1.238s-1.146.424-1.821.424c-.69 0-1.302-.135-1.838-.407-.535-.271-.971-.646-1.306-1.125-.336-.483-.545-1.037-.628-1.663h1.725c.113.498.343.901.69 1.21.35.306.803.458 1.357.458.848 0 1.51-.369 1.985-1.108.475-.743.715-1.78.718-3.111h-.09c-.196.325-.441.604-.735.837-.291.234-.617.415-.979.543s-.748.193-1.159.193c-.667 0-1.274-.164-1.821-.492s-.982-.779-1.306-1.352c-.325-.573-.487-1.227-.487-1.963 0-.731.166-1.395.498-1.99.335-.596.803-1.067 1.402-1.414.604-.351 1.311-.522 2.121-.515zm.006 1.471c-.441 0-.839.109-1.193.328-.351.215-.628.507-.832.876-.203.366-.305.773-.305 1.222 0 .448.098.856.294 1.221.2.362.471.651.814.866.347.211.743.316 1.188.316.332 0 .641-.064.927-.192.287-.128.538-.305.753-.532.215-.23.382-.49.503-.78s.181-.596.181-.916c0-.426-.102-.822-.305-1.188-.2-.366-.476-.66-.826-.882-.351-.226-.75-.339-1.199-.339z" fill="#cfcfcf"/></svg>