<svg width="100" height="100" viewBox="0 0 100 100" fill="none" xmlns="http://www.w3.org/2000/svg">
<rect width="100" height="100" fill="#00E48D"/>
<path fill-rule="evenodd" clip-rule="evenodd" d="M62.1249 35.5659C54.8314 36.0308 49.0586 42.0942 49.0586 49.5039C49.0586 56.9137 54.8314 62.9771 62.1249 63.442C62.3574 63.2289 62.5801 63.0158 62.8029 62.8027C66.0767 59.5289 68.1495 55.0443 68.3045 50.0851C68.0139 52.739 65.7668 54.8021 63.0354 54.8021C60.1102 54.8021 57.7372 52.4291 57.7372 49.5039C57.7372 46.5788 60.1102 44.2058 63.0354 44.2058C65.7668 44.2058 68.0139 46.2689 68.3045 48.9228C68.1592 43.9539 66.0864 39.479 62.8029 36.2052C62.5801 35.9824 62.3574 35.7693 62.1249 35.5659Z" fill="#FF0080"/>
<path d="M49.5063 22.0249C57.0903 22.0249 63.9673 25.105 68.9362 30.0739C73.9051 35.0428 76.9852 41.9198 76.9852 49.5038C76.9852 57.0879 73.9051 63.9649 68.9362 68.9338C63.9673 73.9027 57.0903 76.9828 49.5063 76.9828C41.9222 76.9828 35.0452 73.9027 30.0763 68.9338C25.1075 63.9649 22.0273 57.0879 22.0273 49.5038C22.0273 41.9198 25.1075 35.0428 30.0763 30.0739C35.0452 25.105 41.9222 22.0249 49.5063 22.0249ZM62.805 36.2051C59.4053 32.8053 54.6979 30.6938 49.5063 30.6938C44.3146 30.6938 39.6073 32.7956 36.2075 36.2051C32.8078 39.6048 30.6962 44.3122 30.6962 49.5038C30.6962 54.6955 32.7981 59.4028 36.2075 62.8026C39.6073 66.2024 44.3146 68.3139 49.5063 68.3139C54.6979 68.3139 59.4053 66.212 62.805 62.8026C66.2048 59.4028 68.3163 54.6955 68.3163 49.5038C68.3163 44.3122 66.2145 39.6048 62.805 36.2051Z" fill="white"/>
<path fill-rule="evenodd" clip-rule="evenodd" d="M63.0336 35.5366C62.7333 35.5366 62.4234 35.5463 62.1328 35.5657C62.3653 35.7788 62.588 35.9919 62.8108 36.2049C66.2106 39.6047 68.3221 44.3121 68.3221 49.5037C68.3221 54.6954 66.2203 59.4027 62.8108 62.8025C62.588 63.0252 62.3653 63.2383 62.1328 63.4417C62.4331 63.4611 62.7333 63.4708 63.0336 63.4708C70.7533 63.4708 77.0007 57.2137 77.0007 49.5037C77.0007 41.784 70.7436 35.5366 63.0336 35.5366Z" fill="#0C00AA"/>
</svg>
