<svg width="1080" height="1085" viewBox="0 0 1080 1085" fill="none" xmlns="http://www.w3.org/2000/svg">
<rect width="1080" height="1085" fill="white"/>
<path d="M915.587 49L912.911 64.8629H915.891L914.181 75H908.668L909.483 70.1698H895.329L894.514 75H889L890.71 64.8629H892.824C893.79 63.5513 894.707 61.8209 895.74 58.1838L898.364 49H915.59H915.587ZM908.584 54.3069H902.535L901.369 58.3918C900.354 61.9393 899.515 63.5484 898.667 64.8629H906.805L908.584 54.3069Z" fill="#EAECEF"/>
<path d="M920.448 49H933.56C938.18 49 940.257 51.3544 939.681 54.7547C939.314 56.93 937.677 58.3311 936.141 58.958C937.818 59.6138 939.146 61.2836 938.663 64.1464C938.05 67.7836 935.085 70.1698 930.167 70.1698H916.875L920.448 49ZM924.295 61.7024L923.67 65.4002H929.69C931.298 65.4002 932.293 64.8051 932.504 63.5513C932.721 62.2687 931.923 61.7024 930.312 61.7024H924.292H924.295ZM925.631 53.7724L925.099 56.9329H931.029C932.282 56.9329 933.161 56.4851 933.352 55.3527C933.543 54.2202 932.814 53.7724 931.561 53.7724H925.631Z" fill="#EAECEF"/>
<path d="M943.47 49H949.579L947.427 61.7602L958.906 49H965.015L961.445 70.1698H955.336L957.479 57.4673L946.01 70.1698H939.9L943.47 49Z" fill="#EAECEF"/>
<path d="M974.098 59.1978L966.907 49H973.821L979.812 57.6464L981.272 49H987.084L985.626 57.6464L994.536 49H1001.3L990.954 58.9291L998.177 70.1698H990.815L985.039 61.1362L983.514 70.1698H977.703L979.227 61.1362L970.402 70.1698H963.309L974.101 59.1978H974.098Z" fill="#EAECEF"/>
<path d="M1010.23 49H1003.13L1010.19 58.9291L999.713 70.1698H1006.81L1017.29 58.9291L1010.23 49ZM1021.44 49H1014.34L1021.41 58.9291L1010.93 70.1698H1018.02L1028.5 58.9291L1021.44 49ZM1032.94 49H1025.85L1032.91 58.9291L1022.43 70.1698H1029.52L1040 58.9291L1032.94 49Z" fill="#EAECEF"/>
<path d="M41.2784 53.3821V48.8182H62.7812V53.3821H54.7656V75H49.294V53.3821H41.2784ZM67.9442 67.8153L75.0138 55.3636H80.3832V75H75.1928V62.5099L68.1488 75H62.7411V55.3636H67.9442V67.8153ZM83.3089 75V55.3636H100.478V75H95.2748V59.6463H88.4481V75H83.3089ZM115.48 67.8153L122.549 55.3636H127.919V75H122.728V62.5099L115.684 75H110.277V55.3636H115.48V67.8153ZM130.844 75V55.3636H148.013V75H142.81V59.6463H135.984V75H130.844ZM159.792 75.3835C157.806 75.3835 156.089 74.9616 154.64 74.1179C153.2 73.2656 152.088 72.081 151.304 70.5639C150.519 69.0384 150.127 67.2699 150.127 65.2585C150.127 63.2301 150.519 61.4574 151.304 59.9403C152.088 58.4148 153.2 57.2301 154.64 56.3864C156.089 55.5341 157.806 55.108 159.792 55.108C161.778 55.108 163.491 55.5341 164.931 56.3864C166.38 57.2301 167.497 58.4148 168.281 59.9403C169.065 61.4574 169.457 63.2301 169.457 65.2585C169.457 67.2699 169.065 69.0384 168.281 70.5639C167.497 72.081 166.38 73.2656 164.931 74.1179C163.491 74.9616 161.778 75.3835 159.792 75.3835ZM159.818 71.1648C160.721 71.1648 161.475 70.9091 162.081 70.3977C162.686 69.8778 163.142 69.1705 163.448 68.2756C163.764 67.3807 163.921 66.3622 163.921 65.2202C163.921 64.0781 163.764 63.0597 163.448 62.1648C163.142 61.2699 162.686 60.5625 162.081 60.0426C161.475 59.5227 160.721 59.2628 159.818 59.2628C158.906 59.2628 158.139 59.5227 157.517 60.0426C156.903 60.5625 156.438 61.2699 156.123 62.1648C155.816 63.0597 155.663 64.0781 155.663 65.2202C155.663 66.3622 155.816 67.3807 156.123 68.2756C156.438 69.1705 156.903 69.8778 157.517 70.3977C158.139 70.9091 158.906 71.1648 159.818 71.1648ZM169.657 59.6463V55.3636H187.452V59.6463H181.124V75H175.933V59.6463H169.657ZM197.559 75.3835C195.539 75.3835 193.801 74.9744 192.343 74.1562C190.894 73.3295 189.778 72.1619 188.994 70.6534C188.21 69.1364 187.818 67.3423 187.818 65.2713C187.818 63.2514 188.21 61.4787 188.994 59.9531C189.778 58.4276 190.882 57.2386 192.305 56.3864C193.737 55.5341 195.416 55.108 197.342 55.108C198.637 55.108 199.843 55.3168 200.96 55.7344C202.085 56.1435 203.065 56.7614 203.9 57.5881C204.744 58.4148 205.4 59.4545 205.869 60.7074C206.338 61.9517 206.572 63.4091 206.572 65.0795V66.5753H189.991V63.2003H201.446C201.446 62.4162 201.275 61.7216 200.934 61.1165C200.593 60.5114 200.12 60.0384 199.515 59.6974C198.919 59.348 198.224 59.1733 197.431 59.1733C196.605 59.1733 195.872 59.3651 195.232 59.7486C194.602 60.1236 194.107 60.6307 193.75 61.2699C193.392 61.9006 193.208 62.6037 193.2 63.3793V66.5881C193.2 67.5597 193.379 68.3991 193.737 69.1065C194.103 69.8139 194.619 70.3594 195.284 70.7429C195.948 71.1264 196.737 71.3182 197.649 71.3182C198.254 71.3182 198.808 71.233 199.311 71.0625C199.813 70.892 200.244 70.6364 200.602 70.2955C200.96 69.9545 201.232 69.5369 201.42 69.0426L206.457 69.375C206.201 70.5852 205.677 71.642 204.884 72.5455C204.1 73.4403 203.086 74.1392 201.842 74.642C200.606 75.1364 199.179 75.3835 197.559 75.3835ZM208.686 75V55.3636H214.132V62.983H215.666L221.01 55.3636H227.402L220.46 65.1051L227.479 75H221.01L216.165 68.0327H214.132V75H208.686ZM233.543 67.8153L240.612 55.3636H245.982V75H240.791V62.5099L233.747 75H228.34V55.3636H233.543V67.8153Z" fill="black"/>
<rect x="40" y="437" width="1000" height="295" rx="20" fill="#F7F7F7"/>
<path opacity="0.6" d="M67.4964 463.326H65.1058C65.0376 462.934 64.9119 462.587 64.7287 462.284C64.5455 461.977 64.3175 461.717 64.0447 461.504C63.772 461.291 63.4609 461.131 63.1115 461.025C62.7663 460.914 62.3935 460.859 61.9929 460.859C61.2813 460.859 60.6506 461.038 60.1009 461.396C59.5511 461.749 59.1207 462.269 58.8097 462.955C58.4986 463.637 58.343 464.47 58.343 465.455C58.343 466.456 58.4986 467.3 58.8097 467.986C59.125 468.668 59.5554 469.183 60.1009 469.533C60.6506 469.878 61.2791 470.05 61.9865 470.05C62.3786 470.05 62.745 469.999 63.0859 469.897C63.4311 469.79 63.7401 469.635 64.0128 469.43C64.2898 469.226 64.522 468.974 64.7095 468.676C64.9013 468.378 65.0334 468.037 65.1058 467.653L67.4964 467.666C67.407 468.288 67.2131 468.872 66.9148 469.418C66.6207 469.963 66.2351 470.445 65.7578 470.862C65.2805 471.276 64.7223 471.599 64.0831 471.834C63.4439 472.064 62.7344 472.179 61.9545 472.179C60.804 472.179 59.777 471.913 58.8736 471.38C57.9702 470.847 57.2585 470.078 56.7386 469.072C56.2188 468.067 55.9588 466.861 55.9588 465.455C55.9588 464.044 56.2209 462.838 56.745 461.837C57.2692 460.831 57.983 460.062 58.8864 459.529C59.7898 458.996 60.8125 458.73 61.9545 458.73C62.6832 458.73 63.3608 458.832 63.9872 459.037C64.6136 459.241 65.1719 459.542 65.6619 459.938C66.152 460.33 66.5547 460.812 66.87 461.383C67.1896 461.95 67.3984 462.597 67.4964 463.326ZM71.4681 472V458.909H79.9824V460.897H73.8396V464.451H79.5413V466.439H73.8396V470.012H80.0335V472H71.4681ZM84.2017 458.909H87.1037L90.9901 468.395H91.1435L95.0299 458.909H97.9319V472H95.6563V463.006H95.5348L91.9169 471.962H90.2167L86.5988 462.987H86.4773V472H84.2017V458.909ZM102.314 472V458.909H110.828V460.897H104.686V464.451H110.387V466.439H104.686V470.012H110.88V472H102.314ZM115.048 458.909H117.4V467.832H117.522L123.677 458.909H125.806V472H123.434V463.083H123.326L117.151 472H115.048V458.909ZM121.696 455.534H123.428C123.428 456.28 123.157 456.885 122.616 457.349C122.079 457.81 121.35 458.04 120.43 458.04C119.518 458.04 118.791 457.81 118.25 457.349C117.713 456.885 117.447 456.28 117.451 455.534H119.171C119.171 455.841 119.264 456.116 119.452 456.359C119.644 456.597 119.97 456.717 120.43 456.717C120.882 456.717 121.203 456.597 121.395 456.359C121.591 456.12 121.691 455.845 121.696 455.534ZM130.19 472V458.909H132.561V464.451H138.627V458.909H141.005V472H138.627V466.439H132.561V472H130.19ZM147.065 472H144.534L149.143 458.909H152.07L156.685 472H154.154L150.658 461.594H150.555L147.065 472ZM147.148 466.867H154.052V468.772H147.148V466.867ZM169.874 472H167.496V460.891H165.323C164.735 460.891 164.251 460.978 163.872 461.153C163.497 461.323 163.218 461.575 163.035 461.907C162.856 462.235 162.766 462.631 162.766 463.096C162.766 463.56 162.856 463.952 163.035 464.272C163.214 464.587 163.491 464.828 163.866 464.994C164.245 465.156 164.727 465.237 165.31 465.237H168.494V467.206H164.991C163.985 467.206 163.137 467.04 162.447 466.707C161.756 466.371 161.232 465.896 160.874 465.282C160.521 464.664 160.344 463.935 160.344 463.096C160.344 462.261 160.518 461.53 160.868 460.903C161.222 460.273 161.742 459.783 162.428 459.433C163.114 459.084 163.957 458.909 164.959 458.909H169.874V472ZM163.105 466.068H165.694L162.511 472H159.864L163.105 466.068Z" fill="black"/>
<path opacity="0.4" d="M1019.95 685.5H55V575L403 605.5C403 605.5 1014.31 537.269 1019.95 536.017V536C1020.01 536 1020.01 536.006 1019.95 536.017V685.5Z" fill="url(#paint0_linear_2662_1328)"/>
<rect x="1015.19" y="531" width="10.2717" height="10.2717" rx="5.13587" fill="#04B34A"/>
<path d="M1017.5 537L404.817 604.689C402.944 604.896 401.054 604.92 399.176 604.76L55 575.5" stroke="#04B34A" stroke-width="4"/>
<path d="M875.074 705.557V681.199L865.989 690.318L862 686.364L877.955 670.443L893.875 686.364L889.955 690.318L880.835 681.199V705.557H875.074Z" fill="#04B34A"/>
<path d="M919.415 705.767C916.484 705.756 913.961 705.034 911.847 703.602C909.745 702.17 908.126 700.097 906.989 697.381C905.864 694.665 905.308 691.398 905.319 687.58C905.319 683.773 905.881 680.528 907.006 677.847C908.143 675.165 909.762 673.125 911.864 671.727C913.978 670.318 916.495 669.614 919.415 669.614C922.336 669.614 924.847 670.318 926.95 671.727C929.063 673.136 930.688 675.182 931.825 677.864C932.961 680.534 933.523 683.773 933.512 687.58C933.512 691.409 932.944 694.682 931.808 697.398C930.683 700.114 929.069 702.187 926.967 703.619C924.864 705.051 922.347 705.767 919.415 705.767ZM919.415 699.648C921.415 699.648 923.012 698.642 924.205 696.631C925.398 694.619 925.989 691.602 925.978 687.58C925.978 684.932 925.705 682.727 925.16 680.966C924.626 679.205 923.864 677.881 922.876 676.994C921.898 676.108 920.745 675.665 919.415 675.665C917.427 675.665 915.836 676.659 914.643 678.648C913.45 680.636 912.847 683.614 912.836 687.58C912.836 690.261 913.103 692.5 913.637 694.295C914.183 696.08 914.95 697.42 915.938 698.318C916.927 699.205 918.086 699.648 919.415 699.648ZM944.837 700.227L944.649 702.102C944.501 703.602 944.217 705.097 943.797 706.585C943.388 708.085 942.956 709.443 942.501 710.659C942.058 711.875 941.7 712.83 941.428 713.523H936.723C936.893 712.852 937.126 711.915 937.422 710.71C937.717 709.517 937.996 708.176 938.257 706.688C938.518 705.199 938.683 703.682 938.751 702.136L938.837 700.227H944.837ZM962.89 669.614C964.685 669.614 966.413 669.915 968.072 670.517C969.742 671.119 971.231 672.08 972.538 673.398C973.856 674.716 974.896 676.466 975.657 678.648C976.43 680.818 976.822 683.483 976.833 686.642C976.833 689.608 976.498 692.256 975.827 694.585C975.168 696.903 974.219 698.875 972.981 700.5C971.742 702.125 970.248 703.364 968.498 704.216C966.748 705.057 964.793 705.477 962.634 705.477C960.305 705.477 958.248 705.028 956.464 704.131C954.68 703.222 953.242 701.989 952.151 700.432C951.072 698.864 950.418 697.102 950.191 695.148H957.469C957.754 696.42 958.35 697.409 959.259 698.114C960.168 698.807 961.293 699.153 962.634 699.153C964.907 699.153 966.634 698.165 967.816 696.188C968.998 694.199 969.594 691.477 969.606 688.023H969.367C968.844 689.045 968.14 689.926 967.254 690.665C966.367 691.392 965.35 691.955 964.202 692.352C963.066 692.75 961.856 692.949 960.572 692.949C958.515 692.949 956.68 692.466 955.066 691.5C953.452 690.534 952.18 689.205 951.248 687.511C950.316 685.818 949.85 683.886 949.85 681.716C949.839 679.375 950.379 677.29 951.469 675.46C952.56 673.631 954.083 672.199 956.038 671.165C958.004 670.119 960.288 669.602 962.89 669.614ZM962.941 675.409C961.793 675.409 960.771 675.682 959.873 676.227C958.987 676.773 958.282 677.506 957.759 678.426C957.248 679.347 956.998 680.375 957.009 681.511C957.009 682.659 957.259 683.693 957.759 684.614C958.271 685.523 958.964 686.25 959.839 686.795C960.725 687.33 961.737 687.597 962.873 687.597C963.725 687.597 964.515 687.437 965.242 687.119C965.969 686.801 966.6 686.364 967.134 685.807C967.68 685.239 968.106 684.585 968.413 683.847C968.719 683.108 968.873 682.324 968.873 681.494C968.862 680.392 968.6 679.381 968.089 678.46C967.577 677.54 966.873 676.801 965.975 676.244C965.077 675.687 964.066 675.409 962.941 675.409ZM1000.56 698.455V696.614C1000.56 695.216 1000.86 693.932 1001.45 692.761C1002.05 691.58 1002.92 690.636 1004.06 689.932C1005.2 689.216 1006.6 688.858 1008.25 688.858C1009.92 688.858 1011.32 689.21 1012.46 689.915C1013.61 690.619 1014.47 691.562 1015.05 692.744C1015.64 693.915 1015.94 695.205 1015.94 696.614V698.455C1015.94 699.852 1015.64 701.142 1015.05 702.324C1014.46 703.494 1013.59 704.432 1012.44 705.136C1011.3 705.852 1009.9 706.21 1008.25 706.21C1006.58 706.21 1005.18 705.852 1004.04 705.136C1002.9 704.432 1002.04 703.494 1001.45 702.324C1000.86 701.142 1000.56 699.852 1000.56 698.455ZM1005.52 696.614V698.455C1005.52 699.261 1005.72 700.023 1006.1 700.739C1006.5 701.455 1007.22 701.812 1008.25 701.812C1009.28 701.812 1009.99 701.46 1010.36 700.756C1010.75 700.051 1010.94 699.284 1010.94 698.455V696.614C1010.94 695.784 1010.76 695.011 1010.4 694.295C1010.03 693.58 1009.32 693.222 1008.25 693.222C1007.23 693.222 1006.52 693.58 1006.12 694.295C1005.72 695.011 1005.52 695.784 1005.52 696.614ZM982.648 678.477V676.636C982.648 675.227 982.949 673.937 983.551 672.767C984.153 671.585 985.023 670.642 986.159 669.938C987.307 669.233 988.693 668.881 990.318 668.881C992 668.881 993.409 669.233 994.545 669.938C995.682 670.642 996.545 671.585 997.136 672.767C997.727 673.937 998.023 675.227 998.023 676.636V678.477C998.023 679.886 997.722 681.176 997.119 682.347C996.528 683.517 995.659 684.455 994.511 685.159C993.375 685.852 991.977 686.199 990.318 686.199C988.659 686.199 987.256 685.847 986.108 685.142C984.972 684.426 984.108 683.489 983.517 682.33C982.938 681.159 982.648 679.875 982.648 678.477ZM987.642 676.636V678.477C987.642 679.307 987.835 680.074 988.222 680.778C988.619 681.483 989.318 681.835 990.318 681.835C991.364 681.835 992.074 681.483 992.449 680.778C992.835 680.074 993.028 679.307 993.028 678.477V676.636C993.028 675.807 992.847 675.034 992.483 674.318C992.119 673.602 991.398 673.244 990.318 673.244C989.307 673.244 988.608 673.608 988.222 674.335C987.835 675.062 987.642 675.83 987.642 676.636ZM984.898 705L1008.9 670.091H1013.36L989.364 705H984.898Z" fill="black"/>
<path d="M57.0781 561L64.0625 547.187V547.07H55.9844V545H66.5625V547.141L59.6016 561H57.0781ZM67.4317 557.875V555.922L74.3458 545H75.8849V547.875H74.9083L69.963 555.703V555.828H79.4396V557.875H67.4317ZM75.0177 561V557.281L75.0333 556.391V545H77.3224V561H75.0177ZM84.4084 558.812L84.2912 559.664C84.2131 560.289 84.0803 560.94 83.8928 561.617C83.7105 562.299 83.5204 562.932 83.3225 563.516C83.1298 564.099 82.9709 564.563 82.8459 564.906H81.1897C81.2574 564.583 81.3511 564.146 81.4709 563.594C81.5907 563.047 81.7079 562.435 81.8225 561.758C81.9371 561.081 82.023 560.391 82.0803 559.687L82.1584 558.812H84.4084ZM87.5843 561L94.5687 547.187V547.07H86.4905V545H97.0687V547.141L90.1077 561H87.5843Z" fill="#CFCFCF"/>
<path d="M978.414 518L985.398 504.187V504.07H977.32V502H987.898V504.141L980.937 518H978.414ZM995.459 518.219C994.48 518.219 993.599 518.031 992.818 517.656C992.042 517.276 991.422 516.755 990.959 516.094C990.495 515.432 990.248 514.677 990.217 513.828H992.56C992.618 514.516 992.922 515.081 993.474 515.523C994.026 515.966 994.688 516.187 995.459 516.187C996.073 516.187 996.618 516.047 997.092 515.766C997.571 515.479 997.946 515.086 998.217 514.586C998.493 514.086 998.631 513.516 998.631 512.875C998.631 512.224 998.49 511.643 998.209 511.133C997.928 510.622 997.54 510.221 997.045 509.93C996.555 509.638 995.993 509.49 995.357 509.484C994.873 509.484 994.386 509.568 993.896 509.734C993.407 509.901 993.011 510.12 992.709 510.391L990.498 510.062L991.396 502H1000.19V504.07H993.404L992.896 508.547H992.99C993.303 508.245 993.717 507.992 994.232 507.789C994.753 507.586 995.31 507.484 995.904 507.484C996.878 507.484 997.745 507.716 998.506 508.18C999.271 508.643 999.873 509.276 1000.31 510.078C1000.75 510.875 1000.97 511.792 1000.97 512.828C1000.97 513.865 1000.74 514.789 1000.26 515.602C999.795 516.414 999.144 517.055 998.31 517.523C997.482 517.987 996.532 518.219 995.459 518.219ZM1006.09 515.812L1005.97 516.664C1005.89 517.289 1005.76 517.94 1005.57 518.617C1005.39 519.299 1005.2 519.932 1005 520.516C1004.81 521.099 1004.65 521.563 1004.53 521.906H1002.87C1002.94 521.583 1003.03 521.146 1003.15 520.594C1003.27 520.047 1003.39 519.435 1003.5 518.758C1003.62 518.081 1003.7 517.391 1003.76 516.687L1003.84 515.812H1006.09ZM1014.14 518.219C1013.43 518.208 1012.72 518.078 1012.03 517.828C1011.34 517.578 1010.72 517.161 1010.15 516.578C1009.59 515.995 1009.14 515.211 1008.8 514.227C1008.47 513.242 1008.3 512.013 1008.3 510.539C1008.3 509.143 1008.44 507.904 1008.72 506.82C1009 505.737 1009.4 504.823 1009.93 504.078C1010.45 503.328 1011.09 502.758 1011.83 502.367C1012.58 501.977 1013.41 501.781 1014.34 501.781C1015.29 501.781 1016.14 501.969 1016.88 502.344C1017.62 502.719 1018.22 503.237 1018.68 503.898C1019.14 504.56 1019.44 505.312 1019.56 506.156H1017.18C1017.02 505.49 1016.7 504.945 1016.22 504.523C1015.74 504.102 1015.11 503.891 1014.34 503.891C1013.17 503.891 1012.26 504.401 1011.6 505.422C1010.95 506.443 1010.62 507.862 1010.62 509.68H1010.73C1011.01 509.227 1011.35 508.841 1011.75 508.523C1012.15 508.201 1012.61 507.953 1013.11 507.781C1013.61 507.604 1014.14 507.516 1014.7 507.516C1015.63 507.516 1016.47 507.742 1017.22 508.195C1017.97 508.643 1018.57 509.263 1019.02 510.055C1019.47 510.846 1019.69 511.753 1019.69 512.773C1019.69 513.794 1019.46 514.719 1019 515.547C1018.54 516.375 1017.89 517.031 1017.06 517.516C1016.23 517.995 1015.25 518.229 1014.14 518.219ZM1014.13 516.187C1014.75 516.187 1015.29 516.036 1015.78 515.734C1016.26 515.432 1016.65 515.026 1016.93 514.516C1017.21 514.005 1017.35 513.435 1017.35 512.805C1017.35 512.19 1017.21 511.63 1016.94 511.125C1016.66 510.62 1016.29 510.219 1015.81 509.922C1015.34 509.625 1014.79 509.477 1014.19 509.477C1013.72 509.477 1013.29 509.565 1012.9 509.742C1012.51 509.919 1012.16 510.164 1011.87 510.477C1011.57 510.789 1011.33 511.148 1011.16 511.555C1011 511.956 1010.91 512.38 1010.91 512.828C1010.91 513.427 1011.05 513.982 1011.33 514.492C1011.61 515.003 1011.99 515.414 1012.47 515.727C1012.96 516.034 1013.52 516.187 1014.13 516.187Z" fill="#CFCFCF"/>
<rect x="40" y="750" width="491" height="295" rx="20" fill="#F7F7F7"/>
<path opacity="0.6" d="M56.2912 785V771.909H61.3026C62.2486 771.909 63.0348 772.058 63.6612 772.357C64.2919 772.651 64.7628 773.053 65.0739 773.565C65.3892 774.076 65.5469 774.656 65.5469 775.303C65.5469 775.836 65.4446 776.292 65.2401 776.671C65.0355 777.046 64.7607 777.351 64.4155 777.585C64.0703 777.82 63.6847 777.988 63.2585 778.09V778.218C63.723 778.244 64.1683 778.386 64.5945 778.646C65.0249 778.902 65.3764 779.264 65.6491 779.733C65.9219 780.202 66.0582 780.768 66.0582 781.433C66.0582 782.111 65.8942 782.72 65.5661 783.261C65.2379 783.798 64.7436 784.222 64.0831 784.533C63.4226 784.844 62.5916 785 61.5902 785H56.2912ZM58.6626 783.018H61.2131C62.0739 783.018 62.6939 782.854 63.0732 782.526C63.4567 782.194 63.6484 781.768 63.6484 781.248C63.6484 780.86 63.5526 780.511 63.3608 780.2C63.169 779.884 62.8963 779.637 62.5426 779.458C62.1889 779.275 61.767 779.183 61.277 779.183H58.6626V783.018ZM58.6626 777.477H61.0085C61.4176 777.477 61.7862 777.402 62.1143 777.253C62.4425 777.099 62.7003 776.884 62.8878 776.607C63.0795 776.326 63.1754 775.994 63.1754 775.61C63.1754 775.103 62.9964 774.685 62.6385 774.357C62.2848 774.029 61.7585 773.865 61.0597 773.865H58.6626V777.477ZM81.6187 778.455C81.6187 779.865 81.3545 781.073 80.8261 782.079C80.302 783.08 79.586 783.847 78.6784 784.38C77.775 784.913 76.7501 785.179 75.6038 785.179C74.4575 785.179 73.4305 784.913 72.5228 784.38C71.6194 783.843 70.9035 783.074 70.3751 782.072C69.851 781.067 69.5889 779.861 69.5889 778.455C69.5889 777.044 69.851 775.838 70.3751 774.837C70.9035 773.831 71.6194 773.062 72.5228 772.529C73.4305 771.996 74.4575 771.73 75.6038 771.73C76.7501 771.73 77.775 771.996 78.6784 772.529C79.586 773.062 80.302 773.831 80.8261 774.837C81.3545 775.838 81.6187 777.044 81.6187 778.455ZM79.2345 778.455C79.2345 777.462 79.0789 776.624 78.7679 775.942C78.461 775.256 78.0349 774.739 77.4895 774.389C76.944 774.036 76.3154 773.859 75.6038 773.859C74.8922 773.859 74.2636 774.036 73.7181 774.389C73.1727 774.739 72.7444 775.256 72.4333 775.942C72.1265 776.624 71.9731 777.462 71.9731 778.455C71.9731 779.447 72.1265 780.287 72.4333 780.973C72.7444 781.655 73.1727 782.173 73.7181 782.526C74.2636 782.876 74.8922 783.05 75.6038 783.05C76.3154 783.05 76.944 782.876 77.4895 782.526C78.0349 782.173 78.461 781.655 78.7679 780.973C79.0789 780.287 79.2345 779.447 79.2345 778.455ZM85.6607 785V771.909H94.1749V773.897H88.0322V777.451H93.7339V779.439H88.0322V783.012H94.2261V785H85.6607ZM98.3943 785V771.909H100.766V777.451H106.832V771.909H109.21V785H106.832V779.439H100.766V785H98.3943ZM113.589 785V771.909H115.96V777.451H122.026V771.909H124.404V785H122.026V779.439H115.96V785H113.589ZM130.464 785H127.933L132.542 771.909H135.469L140.085 785H137.553L134.057 774.594H133.955L130.464 785ZM130.548 779.867H137.451V781.772H130.548V779.867ZM153.274 785H150.896V773.891H148.722C148.134 773.891 147.651 773.978 147.271 774.153C146.896 774.323 146.617 774.575 146.434 774.907C146.255 775.235 146.166 775.631 146.166 776.096C146.166 776.56 146.255 776.952 146.434 777.272C146.613 777.587 146.89 777.828 147.265 777.994C147.644 778.156 148.126 778.237 148.71 778.237H151.893V780.206H148.39C147.384 780.206 146.536 780.04 145.846 779.707C145.156 779.371 144.632 778.896 144.274 778.282C143.92 777.664 143.743 776.935 143.743 776.096C143.743 775.261 143.918 774.53 144.267 773.903C144.621 773.273 145.141 772.783 145.827 772.433C146.513 772.084 147.357 771.909 148.358 771.909H153.274V785ZM146.504 779.068H149.093L145.91 785H143.264L146.504 779.068Z" fill="black"/>
<path opacity="0.4" d="M510.991 998.5H55V888L398 894C398 894 508.389 851.065 510.991 849.072V849C511.054 849 511.053 849.024 510.991 849.072V998.5Z" fill="url(#paint1_linear_2662_1328)"/>
<rect x="506.188" y="844" width="10.2717" height="10.2717" rx="5.13587" fill="#04B34A"/>
<path d="M508.5 850L403.842 891.387C400.315 892.782 396.548 893.472 392.756 893.416L55 888.5" stroke="#04B34A" stroke-width="4"/>
<path d="M377.074 1018.56V994.199L367.989 1003.32L364 999.364L379.955 983.443L395.875 999.364L391.955 1003.32L382.835 994.199V1018.56H377.074Z" fill="#04B34A"/>
<path d="M422.322 1018.77C419.39 1018.76 416.867 1018.03 414.754 1016.6C412.651 1015.17 411.032 1013.1 409.896 1010.38C408.771 1007.66 408.214 1004.4 408.225 1000.58C408.225 996.773 408.788 993.528 409.913 990.847C411.049 988.165 412.668 986.125 414.771 984.727C416.884 983.318 419.401 982.614 422.322 982.614C425.242 982.614 427.754 983.318 429.856 984.727C431.969 986.136 433.594 988.182 434.731 990.864C435.867 993.534 436.43 996.773 436.418 1000.58C436.418 1004.41 435.85 1007.68 434.714 1010.4C433.589 1013.11 431.975 1015.19 429.873 1016.62C427.771 1018.05 425.254 1018.77 422.322 1018.77ZM422.322 1012.65C424.322 1012.65 425.918 1011.64 427.112 1009.63C428.305 1007.62 428.896 1004.6 428.884 1000.58C428.884 997.932 428.612 995.727 428.066 993.966C427.532 992.205 426.771 990.881 425.782 989.994C424.805 989.108 423.651 988.665 422.322 988.665C420.333 988.665 418.742 989.659 417.549 991.648C416.356 993.636 415.754 996.614 415.742 1000.58C415.742 1003.26 416.009 1005.5 416.543 1007.3C417.089 1009.08 417.856 1010.42 418.844 1011.32C419.833 1012.2 420.992 1012.65 422.322 1012.65ZM447.743 1013.23L447.555 1015.1C447.408 1016.6 447.124 1018.1 446.703 1019.59C446.294 1021.09 445.862 1022.44 445.408 1023.66C444.964 1024.88 444.607 1025.83 444.334 1026.52H439.629C439.8 1025.85 440.033 1024.91 440.328 1023.71C440.624 1022.52 440.902 1021.18 441.163 1019.69C441.425 1018.2 441.589 1016.68 441.658 1015.14L441.743 1013.23H447.743ZM464.65 983.091V1018H457.269V990.097H457.065L449.07 995.108V988.562L457.712 983.091H464.65ZM491.562 1011.45V1009.61C491.562 1008.22 491.858 1006.93 492.449 1005.76C493.051 1004.58 493.92 1003.64 495.057 1002.93C496.205 1002.22 497.602 1001.86 499.25 1001.86C500.92 1001.86 502.324 1002.21 503.46 1002.91C504.608 1003.62 505.472 1004.56 506.051 1005.74C506.642 1006.91 506.938 1008.2 506.938 1009.61V1011.45C506.938 1012.85 506.642 1014.14 506.051 1015.32C505.46 1016.49 504.591 1017.43 503.443 1018.14C502.295 1018.85 500.898 1019.21 499.25 1019.21C497.58 1019.21 496.176 1018.85 495.04 1018.14C493.903 1017.43 493.04 1016.49 492.449 1015.32C491.858 1014.14 491.562 1012.85 491.562 1011.45ZM496.523 1009.61V1011.45C496.523 1012.26 496.716 1013.02 497.102 1013.74C497.5 1014.45 498.216 1014.81 499.25 1014.81C500.284 1014.81 500.989 1014.46 501.364 1013.76C501.75 1013.05 501.943 1012.28 501.943 1011.45V1009.61C501.943 1008.78 501.761 1008.01 501.398 1007.3C501.034 1006.58 500.318 1006.22 499.25 1006.22C498.227 1006.22 497.517 1006.58 497.119 1007.3C496.722 1008.01 496.523 1008.78 496.523 1009.61ZM473.648 991.477V989.636C473.648 988.227 473.949 986.937 474.551 985.767C475.153 984.585 476.023 983.642 477.159 982.938C478.307 982.233 479.693 981.881 481.318 981.881C483 981.881 484.409 982.233 485.545 982.938C486.682 983.642 487.545 984.585 488.136 985.767C488.727 986.937 489.023 988.227 489.023 989.636V991.477C489.023 992.886 488.722 994.176 488.119 995.347C487.528 996.517 486.659 997.455 485.511 998.159C484.375 998.852 482.977 999.199 481.318 999.199C479.659 999.199 478.256 998.847 477.108 998.142C475.972 997.426 475.108 996.489 474.517 995.33C473.938 994.159 473.648 992.875 473.648 991.477ZM478.642 989.636V991.477C478.642 992.307 478.835 993.074 479.222 993.778C479.619 994.483 480.318 994.835 481.318 994.835C482.364 994.835 483.074 994.483 483.449 993.778C483.835 993.074 484.028 992.307 484.028 991.477V989.636C484.028 988.807 483.847 988.034 483.483 987.318C483.119 986.602 482.398 986.244 481.318 986.244C480.307 986.244 479.608 986.608 479.222 987.335C478.835 988.062 478.642 988.83 478.642 989.636ZM475.898 1018L499.898 983.091H504.364L480.364 1018H475.898Z" fill="black"/>
<path d="M62.6094 858V874H60.1875V860.422H60.0938L56.2656 862.922V860.609L60.2578 858H62.6094Z" fill="#CFCFCF"/>
<path d="M495.777 815V831H493.355V817.422H493.262L489.433 819.922V817.609L493.426 815H495.777ZM502.029 828.812L501.912 829.664C501.834 830.289 501.701 830.94 501.514 831.617C501.331 832.299 501.141 832.932 500.943 833.516C500.751 834.099 500.592 834.563 500.467 834.906H498.81C498.878 834.583 498.972 834.146 499.092 833.594C499.211 833.047 499.329 832.435 499.443 831.758C499.558 831.081 499.644 830.391 499.701 829.687L499.779 828.812H502.029ZM509.211 815V831H506.789V817.422H506.695L502.867 819.922V817.609L506.859 815H509.211Z" fill="#CFCFCF"/>
<rect x="40" y="124" width="491" height="295" rx="20" fill="#F7F7F7"/>
<path opacity="0.6" d="M67.4964 147.326H65.1058C65.0376 146.934 64.9119 146.587 64.7287 146.284C64.5455 145.977 64.3175 145.717 64.0447 145.504C63.772 145.291 63.4609 145.131 63.1115 145.025C62.7663 144.914 62.3935 144.859 61.9929 144.859C61.2813 144.859 60.6506 145.038 60.1009 145.396C59.5511 145.749 59.1207 146.269 58.8097 146.955C58.4986 147.637 58.343 148.47 58.343 149.455C58.343 150.456 58.4986 151.3 58.8097 151.986C59.125 152.668 59.5554 153.183 60.1009 153.533C60.6506 153.878 61.2791 154.05 61.9865 154.05C62.3786 154.05 62.745 153.999 63.0859 153.897C63.4311 153.79 63.7401 153.635 64.0128 153.43C64.2898 153.226 64.522 152.974 64.7095 152.676C64.9013 152.378 65.0334 152.037 65.1058 151.653L67.4964 151.666C67.407 152.288 67.2131 152.872 66.9148 153.418C66.6207 153.963 66.2351 154.445 65.7578 154.862C65.2805 155.276 64.7223 155.599 64.0831 155.834C63.4439 156.064 62.7344 156.179 61.9545 156.179C60.804 156.179 59.777 155.913 58.8736 155.38C57.9702 154.847 57.2585 154.078 56.7386 153.072C56.2188 152.067 55.9588 150.861 55.9588 149.455C55.9588 148.044 56.2209 146.838 56.745 145.837C57.2692 144.831 57.983 144.062 58.8864 143.529C59.7898 142.996 60.8125 142.73 61.9545 142.73C62.6832 142.73 63.3608 142.832 63.9872 143.037C64.6136 143.241 65.1719 143.542 65.6619 143.938C66.152 144.33 66.5547 144.812 66.87 145.383C67.1896 145.95 67.3984 146.597 67.4964 147.326ZM70.8929 144.897V142.909H81.3375V144.897H77.2913V156H74.939V144.897H70.8929ZM85.25 156H82.7188L87.3275 142.909H90.255L94.8701 156H92.3388L88.8424 145.594H88.7401L85.25 156ZM85.3331 150.867H92.2365V152.772H85.3331V150.867ZM98.3943 156V142.909H100.766V148.451H106.832V142.909H109.21V156H106.832V150.439H100.766V156H98.3943ZM112.739 159.158V154.063H113.614C113.908 153.829 114.183 153.499 114.439 153.072C114.695 152.646 114.912 152.062 115.091 151.321C115.27 150.58 115.394 149.621 115.462 148.445L115.807 142.909H124.174V154.063H125.631V159.145H123.356V156H115.014V159.158H112.739ZM116.376 154.063H121.899V144.897H117.942L117.737 148.445C117.682 149.335 117.592 150.132 117.469 150.835C117.345 151.538 117.19 152.158 117.002 152.695C116.815 153.228 116.606 153.684 116.376 154.063ZM131.045 156H128.513L133.122 142.909H136.05L140.665 156H138.133L134.637 145.594H134.535L131.045 156ZM131.128 150.867H138.031V152.772H131.128V150.867ZM144.189 156V142.909H149.098C150.104 142.909 150.947 143.097 151.629 143.472C152.315 143.847 152.833 144.362 153.182 145.018C153.536 145.67 153.713 146.412 153.713 147.243C153.713 148.082 153.536 148.828 153.182 149.48C152.829 150.132 152.307 150.646 151.616 151.021C150.926 151.391 150.076 151.577 149.066 151.577H145.812V149.627H148.746C149.334 149.627 149.816 149.525 150.191 149.32C150.566 149.116 150.843 148.835 151.022 148.477C151.205 148.119 151.297 147.707 151.297 147.243C151.297 146.778 151.205 146.369 151.022 146.016C150.843 145.662 150.564 145.387 150.185 145.191C149.81 144.991 149.326 144.891 148.734 144.891H146.56V156H144.189ZM156.998 144.897V142.909H167.442V144.897H163.396V156H161.044V144.897H156.998ZM171.256 156V142.909H173.627V148.451H179.693V142.909H182.071V156H179.693V150.439H173.627V156H171.256ZM188.131 156H185.6L190.209 142.909H193.136L197.751 156H195.22L191.724 145.594H191.621L188.131 156ZM188.214 150.867H195.118V152.772H188.214V150.867ZM210.94 156H208.562V144.891H206.389C205.801 144.891 205.317 144.978 204.938 145.153C204.563 145.323 204.284 145.575 204.101 145.907C203.922 146.235 203.832 146.631 203.832 147.096C203.832 147.56 203.922 147.952 204.101 148.272C204.28 148.587 204.557 148.828 204.932 148.994C205.311 149.156 205.793 149.237 206.376 149.237H209.56V151.206H206.057C205.051 151.206 204.203 151.04 203.513 150.707C202.822 150.371 202.298 149.896 201.94 149.282C201.587 148.664 201.41 147.935 201.41 147.096C201.41 146.261 201.585 145.53 201.934 144.903C202.288 144.273 202.808 143.783 203.494 143.433C204.18 143.084 205.023 142.909 206.025 142.909H210.94V156ZM204.171 150.068H206.76L203.577 156H200.93L204.171 150.068Z" fill="black"/>
<path opacity="0.4" d="M55 372.5H510.991V299C513.697 299 177 284.5 177 284.5L55 243V372.5Z" fill="url(#paint2_linear_2662_1328)"/>
<rect x="506.188" y="293" width="10.2717" height="10.2717" rx="5.13587" fill="#CACACA"/>
<path d="M509.5 299L180.086 283.69C177.375 283.564 174.696 283.058 172.126 282.187L55 242.5" stroke="#CACACA" stroke-width="4"/>
<path d="M379.074 357.443V381.801L369.989 372.682L366 376.636L381.955 392.557L397.875 376.636L393.955 372.682L384.835 381.801V357.443H379.074Z" fill="#CACACA"/>
<path d="M379.074 357.443V381.801L369.989 372.682L366 376.636L381.955 392.557L397.875 376.636L393.955 372.682L384.835 381.801V357.443H379.074Z" fill="#FF7474"/>
<path d="M425.744 357.091V392H418.363V364.097H418.158L410.164 369.108V362.562L418.806 357.091H425.744ZM439.634 387.227L439.446 389.102C439.298 390.602 439.014 392.097 438.594 393.585C438.185 395.085 437.753 396.443 437.298 397.659C436.855 398.875 436.497 399.83 436.224 400.523H431.52C431.69 399.852 431.923 398.915 432.219 397.71C432.514 396.517 432.793 395.176 433.054 393.688C433.315 392.199 433.48 390.682 433.548 389.136L433.634 387.227H439.634ZM445.781 392L460.252 363.364V363.125H443.394V357.091H467.888V363.21L453.4 392H445.781ZM491.562 385.455V383.614C491.562 382.216 491.858 380.932 492.449 379.761C493.051 378.58 493.92 377.636 495.057 376.932C496.205 376.216 497.602 375.858 499.25 375.858C500.92 375.858 502.324 376.21 503.46 376.915C504.608 377.619 505.472 378.562 506.051 379.744C506.642 380.915 506.938 382.205 506.938 383.614V385.455C506.938 386.852 506.642 388.142 506.051 389.324C505.46 390.494 504.591 391.432 503.443 392.136C502.295 392.852 500.898 393.21 499.25 393.21C497.58 393.21 496.176 392.852 495.04 392.136C493.903 391.432 493.04 390.494 492.449 389.324C491.858 388.142 491.562 386.852 491.562 385.455ZM496.523 383.614V385.455C496.523 386.261 496.716 387.023 497.102 387.739C497.5 388.455 498.216 388.812 499.25 388.812C500.284 388.812 500.989 388.46 501.364 387.756C501.75 387.051 501.943 386.284 501.943 385.455V383.614C501.943 382.784 501.761 382.011 501.398 381.295C501.034 380.58 500.318 380.222 499.25 380.222C498.227 380.222 497.517 380.58 497.119 381.295C496.722 382.011 496.523 382.784 496.523 383.614ZM473.648 365.477V363.636C473.648 362.227 473.949 360.937 474.551 359.767C475.153 358.585 476.023 357.642 477.159 356.938C478.307 356.233 479.693 355.881 481.318 355.881C483 355.881 484.409 356.233 485.545 356.938C486.682 357.642 487.545 358.585 488.136 359.767C488.727 360.937 489.023 362.227 489.023 363.636V365.477C489.023 366.886 488.722 368.176 488.119 369.347C487.528 370.517 486.659 371.455 485.511 372.159C484.375 372.852 482.977 373.199 481.318 373.199C479.659 373.199 478.256 372.847 477.108 372.142C475.972 371.426 475.108 370.489 474.517 369.33C473.938 368.159 473.648 366.875 473.648 365.477ZM478.642 363.636V365.477C478.642 366.307 478.835 367.074 479.222 367.778C479.619 368.483 480.318 368.835 481.318 368.835C482.364 368.835 483.074 368.483 483.449 367.778C483.835 367.074 484.028 366.307 484.028 365.477V363.636C484.028 362.807 483.847 362.034 483.483 361.318C483.119 360.602 482.398 360.244 481.318 360.244C480.307 360.244 479.608 360.608 479.222 361.335C478.835 362.062 478.642 362.83 478.642 363.636ZM475.898 392L499.898 357.091H504.364L480.364 392H475.898Z" fill="black"/>
<path d="M56.5391 229V227.25L61.9531 221.641C62.5313 221.031 63.0078 220.497 63.3828 220.039C63.763 219.576 64.0469 219.135 64.2344 218.719C64.4219 218.302 64.5156 217.859 64.5156 217.391C64.5156 216.859 64.3906 216.401 64.1406 216.016C63.8906 215.625 63.5495 215.326 63.1172 215.117C62.6849 214.904 62.1979 214.797 61.6562 214.797C61.0833 214.797 60.5833 214.914 60.1562 215.148C59.7292 215.383 59.401 215.714 59.1719 216.141C58.9427 216.568 58.8281 217.068 58.8281 217.641H56.5234C56.5234 216.667 56.7474 215.815 57.1953 215.086C57.6432 214.357 58.2578 213.792 59.0391 213.391C59.8203 212.984 60.7083 212.781 61.7031 212.781C62.7083 212.781 63.5938 212.982 64.3594 213.383C65.1302 213.779 65.7318 214.32 66.1641 215.008C66.5964 215.69 66.8125 216.461 66.8125 217.32C66.8125 217.914 66.7005 218.495 66.4766 219.062C66.2578 219.63 65.875 220.263 65.3281 220.961C64.7813 221.654 64.0208 222.495 63.0469 223.484L59.8672 226.812V226.93H67.0703V229H56.5391ZM69.8087 229V227.25L75.2228 221.641C75.8009 221.031 76.2774 220.497 76.6524 220.039C77.0327 219.576 77.3165 219.135 77.504 218.719C77.6915 218.302 77.7853 217.859 77.7853 217.391C77.7853 216.859 77.6603 216.401 77.4103 216.016C77.1603 215.625 76.8191 215.326 76.3868 215.117C75.9545 214.904 75.4676 214.797 74.9259 214.797C74.353 214.797 73.853 214.914 73.4259 215.148C72.9988 215.383 72.6707 215.714 72.4415 216.141C72.2123 216.568 72.0978 217.068 72.0978 217.641H69.7931C69.7931 216.667 70.017 215.815 70.4649 215.086C70.9129 214.357 71.5274 213.792 72.3087 213.391C73.0899 212.984 73.978 212.781 74.9728 212.781C75.978 212.781 76.8634 212.982 77.629 213.383C78.3998 213.779 79.0014 214.32 79.4337 215.008C79.866 215.69 80.0821 216.461 80.0821 217.32C80.0821 217.914 79.9702 218.495 79.7462 219.062C79.5274 219.63 79.1446 220.263 78.5978 220.961C78.0509 221.654 77.2905 222.495 76.3165 223.484L73.1368 226.812V226.93H80.3399V229H69.8087Z" fill="#CFCFCF"/>
<path d="M467.156 283V281.25L472.57 275.641C473.148 275.031 473.625 274.497 474 274.039C474.38 273.576 474.664 273.135 474.851 272.719C475.039 272.302 475.133 271.859 475.133 271.391C475.133 270.859 475.008 270.401 474.758 270.016C474.508 269.625 474.166 269.326 473.734 269.117C473.302 268.904 472.815 268.797 472.273 268.797C471.7 268.797 471.2 268.914 470.773 269.148C470.346 269.383 470.018 269.714 469.789 270.141C469.56 270.568 469.445 271.068 469.445 271.641H467.14C467.14 270.667 467.364 269.815 467.812 269.086C468.26 268.357 468.875 267.792 469.656 267.391C470.437 266.984 471.325 266.781 472.32 266.781C473.325 266.781 474.211 266.982 474.976 267.383C475.747 267.779 476.349 268.32 476.781 269.008C477.213 269.69 477.429 270.461 477.429 271.32C477.429 271.914 477.317 272.495 477.093 273.062C476.875 273.63 476.492 274.263 475.945 274.961C475.398 275.654 474.638 276.495 473.664 277.484L470.484 280.812V280.93H477.687V283H467.156ZM485.996 283.266C484.762 283.26 483.707 282.935 482.832 282.289C481.957 281.643 481.288 280.703 480.824 279.469C480.36 278.234 480.129 276.747 480.129 275.008C480.129 273.273 480.36 271.792 480.824 270.562C481.293 269.333 481.965 268.396 482.84 267.75C483.72 267.104 484.772 266.781 485.996 266.781C487.22 266.781 488.269 267.107 489.144 267.758C490.019 268.404 490.689 269.341 491.152 270.57C491.621 271.794 491.855 273.273 491.855 275.008C491.855 276.753 491.623 278.242 491.16 279.477C490.696 280.706 490.027 281.646 489.152 282.297C488.277 282.943 487.225 283.266 485.996 283.266ZM485.996 281.18C487.079 281.18 487.926 280.651 488.535 279.594C489.15 278.536 489.457 277.008 489.457 275.008C489.457 273.68 489.316 272.557 489.035 271.641C488.759 270.719 488.36 270.021 487.84 269.547C487.324 269.068 486.709 268.828 485.996 268.828C484.918 268.828 484.071 269.359 483.457 270.422C482.842 271.484 482.532 273.013 482.527 275.008C482.527 276.341 482.665 277.469 482.941 278.391C483.222 279.307 483.621 280.003 484.137 280.477C484.652 280.945 485.272 281.18 485.996 281.18ZM496.894 280.812L496.777 281.664C496.699 282.289 496.566 282.94 496.379 283.617C496.197 284.299 496.006 284.932 495.808 285.516C495.616 286.099 495.457 286.563 495.332 286.906H493.676C493.743 286.583 493.837 286.146 493.957 285.594C494.077 285.047 494.194 284.435 494.308 283.758C494.423 283.081 494.509 282.391 494.566 281.687L494.644 280.812H496.894ZM504.93 283.219C503.857 283.219 502.898 283.034 502.055 282.664C501.216 282.294 500.552 281.781 500.063 281.125C499.578 280.464 499.318 279.698 499.281 278.828H501.734C501.766 279.302 501.924 279.714 502.211 280.062C502.503 280.406 502.883 280.672 503.352 280.859C503.82 281.047 504.341 281.141 504.914 281.141C505.544 281.141 506.102 281.031 506.586 280.812C507.076 280.594 507.458 280.289 507.734 279.898C508.01 279.503 508.148 279.047 508.148 278.531C508.148 277.995 508.01 277.523 507.734 277.117C507.464 276.706 507.065 276.383 506.539 276.148C506.018 275.914 505.388 275.797 504.648 275.797H503.297V273.828H504.648C505.242 273.828 505.763 273.721 506.211 273.508C506.664 273.294 507.018 272.997 507.273 272.617C507.529 272.232 507.656 271.781 507.656 271.266C507.656 270.771 507.544 270.341 507.32 269.977C507.102 269.607 506.789 269.318 506.383 269.109C505.982 268.901 505.508 268.797 504.961 268.797C504.44 268.797 503.953 268.893 503.5 269.086C503.052 269.273 502.688 269.544 502.406 269.898C502.125 270.247 501.974 270.667 501.953 271.156H499.617C499.643 270.292 499.898 269.531 500.383 268.875C500.872 268.219 501.518 267.706 502.32 267.336C503.122 266.966 504.013 266.781 504.992 266.781C506.018 266.781 506.904 266.982 507.648 267.383C508.398 267.779 508.977 268.307 509.383 268.969C509.794 269.63 509.997 270.354 509.992 271.141C509.997 272.036 509.747 272.797 509.242 273.422C508.742 274.047 508.076 274.466 507.242 274.68V274.805C508.305 274.966 509.128 275.388 509.711 276.07C510.299 276.753 510.591 277.599 510.586 278.609C510.591 279.49 510.346 280.279 509.852 280.977C509.362 281.674 508.693 282.224 507.844 282.625C506.995 283.021 506.023 283.219 504.93 283.219Z" fill="#CFCFCF"/>
<rect x="549" y="124" width="491" height="295" rx="20" fill="#F7F7F7"/>
<path opacity="0.6" d="M567.663 145.909V159H565.291V145.909H567.663ZM571.455 147.897V145.909H581.9V147.897H577.854V159H575.502V147.897H571.455ZM590.754 151.502V153.407H584.86V151.502H590.754ZM595.09 145.909H597.442V154.832H597.563L603.719 145.909H605.847V159H603.476V150.083H603.367L597.193 159H595.09V145.909ZM620.913 145.909V159H618.56V147.878H612.833V159H610.481V145.909H620.913ZM637.246 152.455C637.246 153.865 636.982 155.073 636.454 156.079C635.93 157.08 635.214 157.847 634.306 158.38C633.403 158.913 632.378 159.179 631.232 159.179C630.085 159.179 629.058 158.913 628.151 158.38C627.247 157.843 626.531 157.074 626.003 156.072C625.479 155.067 625.217 153.861 625.217 152.455C625.217 151.044 625.479 149.838 626.003 148.837C626.531 147.831 627.247 147.062 628.151 146.529C629.058 145.996 630.085 145.73 631.232 145.73C632.378 145.73 633.403 145.996 634.306 146.529C635.214 147.062 635.93 147.831 636.454 148.837C636.982 149.838 637.246 151.044 637.246 152.455ZM634.862 152.455C634.862 151.462 634.707 150.624 634.396 149.942C634.089 149.256 633.663 148.739 633.117 148.389C632.572 148.036 631.943 147.859 631.232 147.859C630.52 147.859 629.891 148.036 629.346 148.389C628.8 148.739 628.372 149.256 628.061 149.942C627.754 150.624 627.601 151.462 627.601 152.455C627.601 153.447 627.754 154.287 628.061 154.973C628.372 155.655 628.8 156.173 629.346 156.526C629.891 156.876 630.52 157.05 631.232 157.05C631.943 157.05 632.572 156.876 633.117 156.526C633.663 156.173 634.089 155.655 634.396 154.973C634.707 154.287 634.862 153.447 634.862 152.455ZM640.133 147.897V145.909H650.578V147.897H646.532V159H644.179V147.897H640.133ZM654.391 159V145.909H662.905V147.897H656.763V151.451H662.464V153.439H656.763V157.012H662.957V159H654.391ZM674.968 159L670.66 153.279H669.496V159H667.125V145.909H669.496V151.291H670.091L674.744 145.909H677.665L672.494 151.879L677.889 159H674.968ZM682.981 159H680.45L685.058 145.909H687.986L692.601 159H690.07L686.573 148.594H686.471L682.981 159ZM683.064 153.867H689.967V155.772H683.064V153.867Z" fill="black"/>
<path opacity="0.4" d="M1019.99 372.5H564V262H942C942 262 1017.43 225.544 1019.99 223.126V223C1020.08 223 1020.08 223.043 1019.99 223.126V372.5Z" fill="url(#paint3_linear_2662_1328)"/>
<rect x="1015.19" y="218" width="10.2717" height="10.2717" rx="5.13587" fill="#04B34A"/>
<path d="M1017.5 224L950.85 259.151C946.679 261.351 942.036 262.5 937.321 262.5H564" stroke="#04B34A" stroke-width="4"/>
<path d="M873.074 392.557V368.199L863.989 377.318L860 373.364L875.955 357.443L891.875 373.364L887.955 377.318L878.835 368.199V392.557H873.074Z" fill="#04B34A"/>
<path d="M917.915 392.767C914.984 392.756 912.461 392.034 910.347 390.602C908.245 389.17 906.626 387.097 905.489 384.381C904.364 381.665 903.808 378.398 903.819 374.58C903.819 370.773 904.381 367.528 905.506 364.847C906.643 362.165 908.262 360.125 910.364 358.727C912.478 357.318 914.995 356.614 917.915 356.614C920.836 356.614 923.347 357.318 925.45 358.727C927.563 360.136 929.188 362.182 930.325 364.864C931.461 367.534 932.023 370.773 932.012 374.58C932.012 378.409 931.444 381.682 930.308 384.398C929.183 387.114 927.569 389.187 925.467 390.619C923.364 392.051 920.847 392.767 917.915 392.767ZM917.915 386.648C919.915 386.648 921.512 385.642 922.705 383.631C923.898 381.619 924.489 378.602 924.478 374.58C924.478 371.932 924.205 369.727 923.66 367.966C923.126 366.205 922.364 364.881 921.376 363.994C920.398 363.108 919.245 362.665 917.915 362.665C915.927 362.665 914.336 363.659 913.143 365.648C911.95 367.636 911.347 370.614 911.336 374.58C911.336 377.261 911.603 379.5 912.137 381.295C912.683 383.08 913.45 384.42 914.438 385.318C915.427 386.205 916.586 386.648 917.915 386.648ZM943.337 387.227L943.149 389.102C943.001 390.602 942.717 392.097 942.297 393.585C941.888 395.085 941.456 396.443 941.001 397.659C940.558 398.875 940.2 399.83 939.928 400.523H935.223C935.393 399.852 935.626 398.915 935.922 397.71C936.217 396.517 936.496 395.176 936.757 393.688C937.018 392.199 937.183 390.682 937.251 389.136L937.337 387.227H943.337ZM948.887 385.864V380.051L963.461 357.091H968.472V365.136H965.506L956.319 379.676V379.949H977.029V385.864H948.887ZM965.643 392V384.091L965.779 381.517V357.091H972.7V392H965.643ZM1000.56 385.455V383.614C1000.56 382.216 1000.86 380.932 1001.45 379.761C1002.05 378.58 1002.92 377.636 1004.06 376.932C1005.2 376.216 1006.6 375.858 1008.25 375.858C1009.92 375.858 1011.32 376.21 1012.46 376.915C1013.61 377.619 1014.47 378.562 1015.05 379.744C1015.64 380.915 1015.94 382.205 1015.94 383.614V385.455C1015.94 386.852 1015.64 388.142 1015.05 389.324C1014.46 390.494 1013.59 391.432 1012.44 392.136C1011.3 392.852 1009.9 393.21 1008.25 393.21C1006.58 393.21 1005.18 392.852 1004.04 392.136C1002.9 391.432 1002.04 390.494 1001.45 389.324C1000.86 388.142 1000.56 386.852 1000.56 385.455ZM1005.52 383.614V385.455C1005.52 386.261 1005.72 387.023 1006.1 387.739C1006.5 388.455 1007.22 388.812 1008.25 388.812C1009.28 388.812 1009.99 388.46 1010.36 387.756C1010.75 387.051 1010.94 386.284 1010.94 385.455V383.614C1010.94 382.784 1010.76 382.011 1010.4 381.295C1010.03 380.58 1009.32 380.222 1008.25 380.222C1007.23 380.222 1006.52 380.58 1006.12 381.295C1005.72 382.011 1005.52 382.784 1005.52 383.614ZM982.648 365.477V363.636C982.648 362.227 982.949 360.937 983.551 359.767C984.153 358.585 985.023 357.642 986.159 356.938C987.307 356.233 988.693 355.881 990.318 355.881C992 355.881 993.409 356.233 994.545 356.938C995.682 357.642 996.545 358.585 997.136 359.767C997.727 360.937 998.023 362.227 998.023 363.636V365.477C998.023 366.886 997.722 368.176 997.119 369.347C996.528 370.517 995.659 371.455 994.511 372.159C993.375 372.852 991.977 373.199 990.318 373.199C988.659 373.199 987.256 372.847 986.108 372.142C984.972 371.426 984.108 370.489 983.517 369.33C982.938 368.159 982.648 366.875 982.648 365.477ZM987.642 363.636V365.477C987.642 366.307 987.835 367.074 988.222 367.778C988.619 368.483 989.318 368.835 990.318 368.835C991.364 368.835 992.074 368.483 992.449 367.778C992.835 367.074 993.028 366.307 993.028 365.477V363.636C993.028 362.807 992.847 362.034 992.483 361.318C992.119 360.602 991.398 360.244 990.318 360.244C989.307 360.244 988.608 360.608 988.222 361.335C987.835 362.062 987.642 362.83 987.642 363.636ZM984.898 392L1008.9 357.091H1013.36L989.364 392H984.898Z" fill="black"/>
<path d="M571.609 232V248H569.188V234.422H569.094L565.266 236.922V234.609L569.258 232H571.609ZM577.861 245.812L577.744 246.664C577.666 247.289 577.533 247.94 577.346 248.617C577.164 249.299 576.973 249.932 576.775 250.516C576.583 251.099 576.424 251.563 576.299 251.906H574.643C574.71 251.583 574.804 251.146 574.924 250.594C575.044 250.047 575.161 249.435 575.275 248.758C575.39 248.081 575.476 247.391 575.533 246.687L575.611 245.812H577.861ZM585.93 248.219C584.951 248.219 584.071 248.031 583.289 247.656C582.513 247.276 581.893 246.755 581.43 246.094C580.966 245.432 580.719 244.677 580.688 243.828H583.031C583.089 244.516 583.393 245.081 583.946 245.523C584.498 245.966 585.159 246.187 585.93 246.187C586.544 246.187 587.089 246.047 587.563 245.766C588.042 245.479 588.417 245.086 588.688 244.586C588.964 244.086 589.102 243.516 589.102 242.875C589.102 242.224 588.961 241.643 588.68 241.133C588.399 240.622 588.011 240.221 587.516 239.93C587.026 239.638 586.464 239.49 585.828 239.484C585.344 239.484 584.857 239.568 584.367 239.734C583.878 239.901 583.482 240.12 583.18 240.391L580.969 240.062L581.867 232H590.664V234.07H583.875L583.367 238.547H583.461C583.774 238.245 584.188 237.992 584.703 237.789C585.224 237.586 585.781 237.484 586.375 237.484C587.349 237.484 588.216 237.716 588.977 238.18C589.742 238.643 590.344 239.276 590.781 240.078C591.224 240.875 591.443 241.792 591.438 242.828C591.443 243.865 591.209 244.789 590.735 245.602C590.266 246.414 589.615 247.055 588.781 247.523C587.953 247.987 587.003 248.219 585.93 248.219Z" fill="#CFCFCF"/>
<path d="M999.449 189V205H997.027V191.422H996.933L993.105 193.922V191.609L997.097 189H999.449ZM1005.7 202.812L1005.58 203.664C1005.51 204.289 1005.37 204.94 1005.19 205.617C1005 206.299 1004.81 206.932 1004.62 207.516C1004.42 208.099 1004.26 208.563 1004.14 208.906H1002.48C1002.55 208.583 1002.64 208.146 1002.76 207.594C1002.88 207.047 1003 206.435 1003.12 205.758C1003.23 205.081 1003.32 204.391 1003.37 203.687L1003.45 202.812H1005.7ZM1013.87 188.781C1014.59 188.786 1015.29 188.917 1015.98 189.172C1016.68 189.427 1017.3 189.844 1017.86 190.422C1018.42 191 1018.87 191.781 1019.2 192.766C1019.54 193.745 1019.71 194.964 1019.72 196.422C1019.72 197.823 1019.58 199.07 1019.29 200.164C1019.01 201.253 1018.61 202.172 1018.08 202.922C1017.56 203.672 1016.93 204.242 1016.19 204.633C1015.44 205.023 1014.6 205.219 1013.67 205.219C1012.72 205.219 1011.87 205.031 1011.13 204.656C1010.39 204.281 1009.79 203.763 1009.33 203.102C1008.86 202.435 1008.57 201.669 1008.46 200.805H1010.84C1011 201.492 1011.32 202.049 1011.79 202.477C1012.28 202.898 1012.9 203.109 1013.67 203.109C1014.84 203.109 1015.76 202.599 1016.41 201.578C1017.07 200.552 1017.4 199.12 1017.4 197.281H1017.28C1017.01 197.729 1016.67 198.115 1016.26 198.437C1015.86 198.76 1015.41 199.01 1014.91 199.187C1014.41 199.365 1013.88 199.453 1013.31 199.453C1012.39 199.453 1011.55 199.227 1010.79 198.773C1010.04 198.32 1009.44 197.698 1008.99 196.906C1008.54 196.115 1008.32 195.211 1008.32 194.195C1008.32 193.185 1008.55 192.268 1009.01 191.445C1009.47 190.622 1010.12 189.971 1010.94 189.492C1011.78 189.008 1012.75 188.771 1013.87 188.781ZM1013.88 190.812C1013.27 190.812 1012.72 190.964 1012.23 191.266C1011.75 191.562 1011.37 191.966 1011.08 192.477C1010.8 192.982 1010.66 193.544 1010.66 194.164C1010.66 194.784 1010.8 195.346 1011.07 195.852C1011.34 196.352 1011.72 196.75 1012.19 197.047C1012.67 197.339 1013.22 197.484 1013.83 197.484C1014.29 197.484 1014.72 197.396 1015.12 197.219C1015.51 197.042 1015.86 196.797 1016.15 196.484C1016.45 196.167 1016.68 195.807 1016.85 195.406C1017.02 195.005 1017.1 194.583 1017.1 194.141C1017.1 193.552 1016.96 193.005 1016.68 192.5C1016.4 191.995 1016.02 191.589 1015.54 191.281C1015.05 190.969 1014.5 190.812 1013.88 190.812Z" fill="#CFCFCF"/>
<rect x="549" y="750" width="491" height="295" rx="20" fill="#F7F7F7"/>
<path opacity="0.6" d="M564.441 785.158V780.063H565.317C565.611 779.829 565.886 779.499 566.141 779.072C566.397 778.646 566.614 778.062 566.793 777.321C566.972 776.58 567.096 775.621 567.164 774.445L567.509 768.909H575.876V780.063H577.334V785.145H575.058V782H566.717V785.158H564.441ZM568.078 780.063H573.601V770.897H569.644L569.44 774.445C569.384 775.335 569.295 776.132 569.171 776.835C569.048 777.538 568.892 778.158 568.705 778.695C568.517 779.228 568.308 779.684 568.078 780.063ZM582.747 782H580.216L584.824 768.909H587.752L592.367 782H589.836L586.339 771.594H586.237L582.747 782ZM582.83 776.867H589.733V778.772H582.83V776.867ZM595.041 782V780.031L595.412 780.012C595.915 779.982 596.313 779.801 596.607 779.469C596.905 779.136 597.125 778.602 597.265 777.864C597.41 777.127 597.506 776.138 597.553 774.898L597.77 768.909H606.349V782H604.028V770.859H599.982L599.778 775.634C599.718 777.065 599.56 778.252 599.305 779.194C599.053 780.136 598.64 780.839 598.064 781.303C597.493 781.768 596.699 782 595.68 782H595.041ZM612.339 773.965H615.662C616.664 773.965 617.523 774.129 618.238 774.457C618.959 774.781 619.51 775.239 619.894 775.832C620.277 776.424 620.469 777.121 620.469 777.922C620.469 778.727 620.277 779.437 619.894 780.05C619.51 780.66 618.959 781.137 618.238 781.482C617.523 781.827 616.664 782 615.662 782H610.76V768.909H613.138V780.057H615.662C616.191 780.057 616.638 779.957 617.005 779.756C617.371 779.556 617.648 779.292 617.836 778.964C618.027 778.636 618.123 778.28 618.123 777.896C618.123 777.342 617.91 776.871 617.484 776.484C617.062 776.092 616.455 775.896 615.662 775.896H612.339V773.965ZM624.575 782V768.909H626.947V774.451H633.013V768.909H635.391V782H633.013V776.439H626.947V782H624.575ZM639.77 782V768.909H648.284V770.897H642.141V774.451H647.843V776.439H642.141V780.012H648.335V782H639.77ZM652.503 782V768.909H657.515C658.461 768.909 659.247 769.058 659.873 769.357C660.504 769.651 660.975 770.053 661.286 770.565C661.601 771.076 661.759 771.656 661.759 772.303C661.759 772.836 661.657 773.292 661.452 773.671C661.248 774.046 660.973 774.351 660.628 774.585C660.282 774.82 659.897 774.988 659.471 775.09V775.218C659.935 775.244 660.38 775.386 660.807 775.646C661.237 775.902 661.589 776.264 661.861 776.733C662.134 777.202 662.27 777.768 662.27 778.433C662.27 779.111 662.106 779.72 661.778 780.261C661.45 780.798 660.956 781.222 660.295 781.533C659.635 781.844 658.804 782 657.802 782H652.503ZM654.875 780.018H657.425C658.286 780.018 658.906 779.854 659.285 779.526C659.669 779.194 659.861 778.768 659.861 778.248C659.861 777.86 659.765 777.511 659.573 777.2C659.381 776.884 659.108 776.637 658.755 776.458C658.401 776.275 657.979 776.183 657.489 776.183H654.875V780.018ZM654.875 774.477H657.221C657.63 774.477 657.998 774.402 658.326 774.253C658.655 774.099 658.912 773.884 659.1 773.607C659.292 773.326 659.388 772.994 659.388 772.61C659.388 772.103 659.209 771.685 658.851 771.357C658.497 771.029 657.971 770.865 657.272 770.865H654.875V774.477ZM677.831 775.455C677.831 776.865 677.567 778.073 677.038 779.079C676.514 780.08 675.798 780.847 674.89 781.38C673.987 781.913 672.962 782.179 671.816 782.179C670.67 782.179 669.643 781.913 668.735 781.38C667.832 780.843 667.116 780.074 666.587 779.072C666.063 778.067 665.801 776.861 665.801 775.455C665.801 774.044 666.063 772.838 666.587 771.837C667.116 770.831 667.832 770.062 668.735 769.529C669.643 768.996 670.67 768.73 671.816 768.73C672.962 768.73 673.987 768.996 674.89 769.529C675.798 770.062 676.514 770.831 677.038 771.837C677.567 772.838 677.831 774.044 677.831 775.455ZM675.447 775.455C675.447 774.462 675.291 773.624 674.98 772.942C674.673 772.256 674.247 771.739 673.702 771.389C673.156 771.036 672.528 770.859 671.816 770.859C671.104 770.859 670.476 771.036 669.93 771.389C669.385 771.739 668.957 772.256 668.645 772.942C668.339 773.624 668.185 774.462 668.185 775.455C668.185 776.447 668.339 777.287 668.645 777.973C668.957 778.655 669.385 779.173 669.93 779.526C670.476 779.876 671.104 780.05 671.816 780.05C672.528 780.05 673.156 779.876 673.702 779.526C674.247 779.173 674.673 778.655 674.98 777.973C675.291 777.287 675.447 776.447 675.447 775.455ZM693.078 773.326H690.687C690.619 772.934 690.494 772.587 690.31 772.284C690.127 771.977 689.899 771.717 689.626 771.504C689.354 771.291 689.043 771.131 688.693 771.025C688.348 770.914 687.975 770.859 687.575 770.859C686.863 770.859 686.232 771.038 685.682 771.396C685.133 771.749 684.702 772.269 684.391 772.955C684.08 773.637 683.925 774.47 683.925 775.455C683.925 776.456 684.08 777.3 684.391 777.986C684.707 778.668 685.137 779.183 685.682 779.533C686.232 779.878 686.861 780.05 687.568 780.05C687.96 780.05 688.327 779.999 688.668 779.897C689.013 779.79 689.322 779.635 689.594 779.43C689.871 779.226 690.104 778.974 690.291 778.676C690.483 778.378 690.615 778.037 690.687 777.653L693.078 777.666C692.989 778.288 692.795 778.872 692.496 779.418C692.202 779.963 691.817 780.445 691.339 780.862C690.862 781.276 690.304 781.599 689.665 781.834C689.026 782.064 688.316 782.179 687.536 782.179C686.386 782.179 685.359 781.913 684.455 781.38C683.552 780.847 682.84 780.078 682.32 779.072C681.8 778.067 681.54 776.861 681.54 775.455C681.54 774.044 681.803 772.838 682.327 771.837C682.851 770.831 683.565 770.062 684.468 769.529C685.371 768.996 686.394 768.73 687.536 768.73C688.265 768.73 688.942 768.832 689.569 769.037C690.195 769.241 690.754 769.542 691.244 769.938C691.734 770.33 692.136 770.812 692.452 771.383C692.771 771.95 692.98 772.597 693.078 773.326ZM696.474 770.897V768.909H706.919V770.897H702.873V782H700.521V770.897H696.474ZM721.85 775.455C721.85 776.865 721.586 778.073 721.057 779.079C720.533 780.08 719.817 780.847 718.91 781.38C718.006 781.913 716.981 782.179 715.835 782.179C714.689 782.179 713.662 781.913 712.754 781.38C711.851 780.843 711.135 780.074 710.606 779.072C710.082 778.067 709.82 776.861 709.82 775.455C709.82 774.044 710.082 772.838 710.606 771.837C711.135 770.831 711.851 770.062 712.754 769.529C713.662 768.996 714.689 768.73 715.835 768.73C716.981 768.73 718.006 768.996 718.91 769.529C719.817 770.062 720.533 770.831 721.057 771.837C721.586 772.838 721.85 774.044 721.85 775.455ZM719.466 775.455C719.466 774.462 719.31 773.624 718.999 772.942C718.692 772.256 718.266 771.739 717.721 771.389C717.175 771.036 716.547 770.859 715.835 770.859C715.123 770.859 714.495 771.036 713.949 771.389C713.404 771.739 712.976 772.256 712.665 772.942C712.358 773.624 712.204 774.462 712.204 775.455C712.204 776.447 712.358 777.287 712.665 777.973C712.976 778.655 713.404 779.173 713.949 779.526C714.495 779.876 715.123 780.05 715.835 780.05C716.547 780.05 717.175 779.876 717.721 779.526C718.266 779.173 718.692 778.655 718.999 777.973C719.31 777.287 719.466 776.447 719.466 775.455ZM726.282 768.909H728.602V773.179C728.602 773.733 728.698 774.172 728.89 774.496C729.086 774.82 729.376 775.052 729.759 775.192C730.143 775.333 730.62 775.403 731.191 775.403C731.447 775.403 731.722 775.395 732.016 775.378C732.314 775.357 732.614 775.329 732.917 775.295C733.219 775.256 733.509 775.212 733.786 775.161C734.063 775.105 734.31 775.045 734.528 774.982V776.912C734.31 776.98 734.067 777.042 733.799 777.097C733.53 777.153 733.247 777.2 732.949 777.238C732.651 777.276 732.352 777.306 732.054 777.327C731.756 777.349 731.468 777.359 731.191 777.359C730.19 777.359 729.32 777.217 728.583 776.931C727.85 776.641 727.283 776.19 726.883 775.576C726.482 774.962 726.282 774.163 726.282 773.179V768.909ZM734.138 768.909H736.471V782H734.138V768.909ZM741.157 782V768.909H743.528V774.451H749.594V768.909H751.972V782H749.594V776.439H743.528V782H741.157ZM758.032 782H755.501L760.11 768.909H763.037L767.652 782H765.121L761.625 771.594H761.523L758.032 782ZM758.116 776.867H765.019V778.772H758.116V776.867ZM780.842 782H778.464V770.891H776.29C775.702 770.891 775.219 770.978 774.839 771.153C774.464 771.323 774.185 771.575 774.002 771.907C773.823 772.235 773.734 772.631 773.734 773.096C773.734 773.56 773.823 773.952 774.002 774.272C774.181 774.587 774.458 774.828 774.833 774.994C775.212 775.156 775.694 775.237 776.278 775.237H779.461V777.206H775.958C774.952 777.206 774.104 777.04 773.414 776.707C772.724 776.371 772.199 775.896 771.842 775.282C771.488 774.664 771.311 773.935 771.311 773.096C771.311 772.261 771.486 771.53 771.835 770.903C772.189 770.273 772.709 769.783 773.395 769.433C774.081 769.084 774.925 768.909 775.926 768.909H780.842V782ZM774.072 776.068H776.661L773.478 782H770.832L774.072 776.068Z" fill="black"/>
<path opacity="0.4" d="M564 998.5H1019.99V893H794.5H564V998.5Z" fill="url(#paint4_linear_2662_1328)"/>
<rect x="1015.19" y="887" width="10.2717" height="10.2717" rx="5.13587" fill="#CACACA"/>
<path d="M1018.5 893H791.655L564 893" stroke="#CACACA" stroke-width="4"/>
<path d="M875.074 983.443V1007.8L865.989 998.682L862 1002.64L877.955 1018.56L893.875 1002.64L889.955 998.682L880.835 1007.8V983.443H875.074Z" fill="#CACACA"/>
<path d="M875.074 983.443V1007.8L865.989 998.682L862 1002.64L877.955 1018.56L893.875 1002.64L889.955 998.682L880.835 1007.8V983.443H875.074Z" fill="#FF7474"/>
<path d="M919.931 1018.77C916.999 1018.76 914.477 1018.03 912.363 1016.6C910.261 1015.17 908.641 1013.1 907.505 1010.38C906.38 1007.66 905.823 1004.4 905.835 1000.58C905.835 996.773 906.397 993.528 907.522 990.847C908.658 988.165 910.278 986.125 912.38 984.727C914.494 983.318 917.011 982.614 919.931 982.614C922.852 982.614 925.363 983.318 927.465 984.727C929.579 986.136 931.204 988.182 932.34 990.864C933.477 993.534 934.039 996.773 934.028 1000.58C934.028 1004.41 933.46 1007.68 932.323 1010.4C931.198 1013.11 929.585 1015.19 927.482 1016.62C925.38 1018.05 922.863 1018.77 919.931 1018.77ZM919.931 1012.65C921.931 1012.65 923.528 1011.64 924.721 1009.63C925.914 1007.62 926.505 1004.6 926.494 1000.58C926.494 997.932 926.221 995.727 925.675 993.966C925.141 992.205 924.38 990.881 923.391 989.994C922.414 989.108 921.261 988.665 919.931 988.665C917.942 988.665 916.352 989.659 915.158 991.648C913.965 993.636 913.363 996.614 913.352 1000.58C913.352 1003.26 913.619 1005.5 914.153 1007.3C914.698 1009.08 915.465 1010.42 916.454 1011.32C917.442 1012.2 918.602 1012.65 919.931 1012.65ZM945.352 1013.23L945.165 1015.1C945.017 1016.6 944.733 1018.1 944.312 1019.59C943.903 1021.09 943.472 1022.44 943.017 1023.66C942.574 1024.88 942.216 1025.83 941.943 1026.52H937.239C937.409 1025.85 937.642 1024.91 937.938 1023.71C938.233 1022.52 938.511 1021.18 938.773 1019.69C939.034 1018.2 939.199 1016.68 939.267 1015.14L939.352 1013.23H945.352ZM963.21 1018.48C960.664 1018.48 958.397 1018.04 956.408 1017.16C954.431 1016.28 952.869 1015.06 951.721 1013.52C950.585 1011.96 949.999 1010.16 949.965 1008.13H957.397C957.442 1008.98 957.721 1009.73 958.232 1010.38C958.755 1011.02 959.448 1011.51 960.312 1011.86C961.175 1012.22 962.147 1012.39 963.227 1012.39C964.352 1012.39 965.346 1012.19 966.21 1011.8C967.073 1011.4 967.749 1010.85 968.238 1010.14C968.727 1009.44 968.971 1008.62 968.971 1007.7C968.971 1006.77 968.71 1005.95 968.187 1005.23C967.675 1004.51 966.937 1003.94 965.971 1003.53C965.016 1003.12 963.88 1002.91 962.562 1002.91H959.306V997.494H962.562C963.675 997.494 964.658 997.301 965.511 996.915C966.374 996.528 967.045 995.994 967.522 995.312C967.999 994.619 968.238 993.812 968.238 992.892C968.238 992.017 968.028 991.25 967.607 990.591C967.198 989.92 966.619 989.398 965.869 989.023C965.13 988.648 964.266 988.46 963.278 988.46C962.278 988.46 961.363 988.642 960.533 989.006C959.704 989.358 959.039 989.864 958.539 990.523C958.039 991.182 957.772 991.955 957.738 992.841H950.664C950.698 990.83 951.272 989.057 952.386 987.523C953.499 985.989 954.999 984.79 956.886 983.926C958.783 983.051 960.925 982.614 963.312 982.614C965.721 982.614 967.829 983.051 969.636 983.926C971.442 984.801 972.846 985.983 973.846 987.472C974.857 988.949 975.357 990.608 975.346 992.449C975.357 994.403 974.749 996.034 973.522 997.341C972.306 998.648 970.721 999.477 968.766 999.83V1000.1C971.335 1000.43 973.289 1001.32 974.63 1002.78C975.982 1004.22 976.653 1006.03 976.641 1008.2C976.653 1010.19 976.079 1011.95 974.92 1013.5C973.772 1015.05 972.187 1016.26 970.164 1017.15C968.141 1018.03 965.823 1018.48 963.21 1018.48ZM1000.56 1011.45V1009.61C1000.56 1008.22 1000.86 1006.93 1001.45 1005.76C1002.05 1004.58 1002.92 1003.64 1004.06 1002.93C1005.2 1002.22 1006.6 1001.86 1008.25 1001.86C1009.92 1001.86 1011.32 1002.21 1012.46 1002.91C1013.61 1003.62 1014.47 1004.56 1015.05 1005.74C1015.64 1006.91 1015.94 1008.2 1015.94 1009.61V1011.45C1015.94 1012.85 1015.64 1014.14 1015.05 1015.32C1014.46 1016.49 1013.59 1017.43 1012.44 1018.14C1011.3 1018.85 1009.9 1019.21 1008.25 1019.21C1006.58 1019.21 1005.18 1018.85 1004.04 1018.14C1002.9 1017.43 1002.04 1016.49 1001.45 1015.32C1000.86 1014.14 1000.56 1012.85 1000.56 1011.45ZM1005.52 1009.61V1011.45C1005.52 1012.26 1005.72 1013.02 1006.1 1013.74C1006.5 1014.45 1007.22 1014.81 1008.25 1014.81C1009.28 1014.81 1009.99 1014.46 1010.36 1013.76C1010.75 1013.05 1010.94 1012.28 1010.94 1011.45V1009.61C1010.94 1008.78 1010.76 1008.01 1010.4 1007.3C1010.03 1006.58 1009.32 1006.22 1008.25 1006.22C1007.23 1006.22 1006.52 1006.58 1006.12 1007.3C1005.72 1008.01 1005.52 1008.78 1005.52 1009.61ZM982.648 991.477V989.636C982.648 988.227 982.949 986.937 983.551 985.767C984.153 984.585 985.023 983.642 986.159 982.938C987.307 982.233 988.693 981.881 990.318 981.881C992 981.881 993.409 982.233 994.545 982.938C995.682 983.642 996.545 984.585 997.136 985.767C997.727 986.937 998.023 988.227 998.023 989.636V991.477C998.023 992.886 997.722 994.176 997.119 995.347C996.528 996.517 995.659 997.455 994.511 998.159C993.375 998.852 991.977 999.199 990.318 999.199C988.659 999.199 987.256 998.847 986.108 998.142C984.972 997.426 984.108 996.489 983.517 995.33C982.938 994.159 982.648 992.875 982.648 991.477ZM987.642 989.636V991.477C987.642 992.307 987.835 993.074 988.222 993.778C988.619 994.483 989.318 994.835 990.318 994.835C991.364 994.835 992.074 994.483 992.449 993.778C992.835 993.074 993.028 992.307 993.028 991.477V989.636C993.028 988.807 992.847 988.034 992.483 987.318C992.119 986.602 991.398 986.244 990.318 986.244C989.307 986.244 988.608 986.608 988.222 987.335C987.835 988.062 987.642 988.83 987.642 989.636ZM984.898 1018L1008.9 983.091H1013.36L989.364 1018H984.898Z" fill="black"/>
<path d="M571.109 876.266C569.875 876.26 568.82 875.935 567.945 875.289C567.07 874.643 566.401 873.703 565.938 872.469C565.474 871.234 565.242 869.747 565.242 868.008C565.242 866.273 565.474 864.792 565.938 863.562C566.406 862.333 567.078 861.396 567.953 860.75C568.833 860.104 569.885 859.781 571.109 859.781C572.333 859.781 573.383 860.107 574.258 860.758C575.133 861.404 575.802 862.341 576.266 863.57C576.734 864.794 576.969 866.273 576.969 868.008C576.969 869.753 576.737 871.242 576.273 872.477C575.81 873.706 575.141 874.646 574.266 875.297C573.391 875.943 572.339 876.266 571.109 876.266ZM571.109 874.18C572.193 874.18 573.039 873.651 573.648 872.594C574.263 871.536 574.57 870.008 574.57 868.008C574.57 866.68 574.43 865.557 574.148 864.641C573.872 863.719 573.474 863.021 572.953 862.547C572.438 862.068 571.823 861.828 571.109 861.828C570.031 861.828 569.185 862.359 568.57 863.422C567.956 864.484 567.646 866.013 567.641 868.008C567.641 869.341 567.779 870.469 568.055 871.391C568.336 872.307 568.734 873.003 569.25 873.477C569.766 873.945 570.385 874.18 571.109 874.18ZM582.008 873.812L581.891 874.664C581.813 875.289 581.68 875.94 581.492 876.617C581.31 877.299 581.12 877.932 580.922 878.516C580.729 879.099 580.57 879.563 580.445 879.906H578.789C578.857 879.583 578.951 879.146 579.07 878.594C579.19 878.047 579.307 877.435 579.422 876.758C579.537 876.081 579.622 875.391 579.68 874.687L579.758 873.812H582.008ZM585.184 876L592.168 862.187V862.07H584.09V860H594.668V862.141L587.707 876H585.184Z" fill="#CFCFCF"/>
<path d="M1018.21 860V876H1015.79V862.422H1015.7L1011.87 864.922V862.609L1015.86 860H1018.21Z" fill="#CFCFCF"/>
<defs>
<linearGradient id="paint0_linear_2662_1328" x1="537.477" y1="475" x2="537.477" y2="685.5" gradientUnits="userSpaceOnUse">
<stop stop-color="#04B34A"/>
<stop offset="0.0666667" stop-color="#04B34A" stop-opacity="0.991353"/>
<stop offset="0.133333" stop-color="#04B34A" stop-opacity="0.96449"/>
<stop offset="0.2" stop-color="#04B34A" stop-opacity="0.91834"/>
<stop offset="0.266667" stop-color="#04B34A" stop-opacity="0.852589"/>
<stop offset="0.333333" stop-color="#04B34A" stop-opacity="0.768225"/>
<stop offset="0.4" stop-color="#04B34A" stop-opacity="0.668116"/>
<stop offset="0.466667" stop-color="#04B34A" stop-opacity="0.557309"/>
<stop offset="0.533333" stop-color="#04B34A" stop-opacity="0.442691"/>
<stop offset="0.6" stop-color="#04B34A" stop-opacity="0.331884"/>
<stop offset="0.666667" stop-color="#04B34A" stop-opacity="0.231775"/>
<stop offset="0.733333" stop-color="#04B34A" stop-opacity="0.147411"/>
<stop offset="0.8" stop-color="#04B34A" stop-opacity="0.0816599"/>
<stop offset="0.866667" stop-color="#04B34A" stop-opacity="0.03551"/>
<stop offset="0.933333" stop-color="#04B34A" stop-opacity="0.01"/>
<stop offset="1" stop-color="#04B34A" stop-opacity="0"/>
</linearGradient>
<linearGradient id="paint1_linear_2662_1328" x1="282.996" y1="789.5" x2="282.996" y2="998.5" gradientUnits="userSpaceOnUse">
<stop stop-color="#04B34A"/>
<stop offset="0.0666667" stop-color="#04B34A" stop-opacity="0.991353"/>
<stop offset="0.133333" stop-color="#04B34A" stop-opacity="0.96449"/>
<stop offset="0.2" stop-color="#04B34A" stop-opacity="0.91834"/>
<stop offset="0.266667" stop-color="#04B34A" stop-opacity="0.852589"/>
<stop offset="0.333333" stop-color="#04B34A" stop-opacity="0.768225"/>
<stop offset="0.4" stop-color="#04B34A" stop-opacity="0.668116"/>
<stop offset="0.466667" stop-color="#04B34A" stop-opacity="0.557309"/>
<stop offset="0.533333" stop-color="#04B34A" stop-opacity="0.442691"/>
<stop offset="0.6" stop-color="#04B34A" stop-opacity="0.331884"/>
<stop offset="0.666667" stop-color="#04B34A" stop-opacity="0.231775"/>
<stop offset="0.733333" stop-color="#04B34A" stop-opacity="0.147411"/>
<stop offset="0.8" stop-color="#04B34A" stop-opacity="0.0816599"/>
<stop offset="0.866667" stop-color="#04B34A" stop-opacity="0.03551"/>
<stop offset="0.933333" stop-color="#04B34A" stop-opacity="0.01"/>
<stop offset="1" stop-color="#04B34A" stop-opacity="0"/>
</linearGradient>
<linearGradient id="paint2_linear_2662_1328" x1="282.996" y1="280.5" x2="282.996" y2="372.5" gradientUnits="userSpaceOnUse">
<stop stop-color="#D9D9D9"/>
<stop offset="1" stop-color="#D9D9D9" stop-opacity="0"/>
</linearGradient>
<linearGradient id="paint3_linear_2662_1328" x1="791.996" y1="169" x2="791.996" y2="372.5" gradientUnits="userSpaceOnUse">
<stop stop-color="#04B34A"/>
<stop offset="0.0666667" stop-color="#04B34A" stop-opacity="0.991353"/>
<stop offset="0.133333" stop-color="#04B34A" stop-opacity="0.96449"/>
<stop offset="0.2" stop-color="#04B34A" stop-opacity="0.91834"/>
<stop offset="0.266667" stop-color="#04B34A" stop-opacity="0.852589"/>
<stop offset="0.333333" stop-color="#04B34A" stop-opacity="0.768225"/>
<stop offset="0.4" stop-color="#04B34A" stop-opacity="0.668116"/>
<stop offset="0.466667" stop-color="#04B34A" stop-opacity="0.557309"/>
<stop offset="0.533333" stop-color="#04B34A" stop-opacity="0.442691"/>
<stop offset="0.6" stop-color="#04B34A" stop-opacity="0.331884"/>
<stop offset="0.666667" stop-color="#04B34A" stop-opacity="0.231775"/>
<stop offset="0.733333" stop-color="#04B34A" stop-opacity="0.147411"/>
<stop offset="0.8" stop-color="#04B34A" stop-opacity="0.0816599"/>
<stop offset="0.866667" stop-color="#04B34A" stop-opacity="0.03551"/>
<stop offset="0.933333" stop-color="#04B34A" stop-opacity="0.01"/>
<stop offset="1" stop-color="#04B34A" stop-opacity="0"/>
</linearGradient>
<linearGradient id="paint4_linear_2662_1328" x1="791.995" y1="906.5" x2="791.995" y2="998.5" gradientUnits="userSpaceOnUse">
<stop stop-color="#D9D9D9"/>
<stop offset="1" stop-color="#D9D9D9" stop-opacity="0"/>
</linearGradient>
</defs>
</svg>
