<svg width="1080" height="772" viewBox="0 0 1080 772" fill="none" xmlns="http://www.w3.org/2000/svg">
<rect width="1080" height="772" fill="white"/>
<path d="M915.587 49L912.911 64.8629H915.891L914.181 75H908.668L909.483 70.1698H895.329L894.514 75H889L890.71 64.8629H892.824C893.79 63.5513 894.707 61.8209 895.74 58.1838L898.364 49H915.59H915.587ZM908.584 54.3069H902.535L901.369 58.3918C900.354 61.9393 899.515 63.5484 898.667 64.8629H906.805L908.584 54.3069Z" fill="#EAECEF"/>
<path d="M920.448 49H933.56C938.18 49 940.257 51.3544 939.681 54.7547C939.314 56.93 937.677 58.3311 936.141 58.958C937.818 59.6138 939.146 61.2836 938.663 64.1464C938.05 67.7836 935.085 70.1698 930.167 70.1698H916.875L920.448 49ZM924.295 61.7024L923.67 65.4002H929.69C931.298 65.4002 932.293 64.8051 932.504 63.5513C932.721 62.2687 931.923 61.7024 930.312 61.7024H924.292H924.295ZM925.631 53.7724L925.099 56.9329H931.029C932.282 56.9329 933.161 56.4851 933.352 55.3527C933.543 54.2202 932.814 53.7724 931.561 53.7724H925.631Z" fill="#EAECEF"/>
<path d="M943.47 49H949.579L947.427 61.7602L958.906 49H965.015L961.445 70.1698H955.336L957.479 57.4673L946.01 70.1698H939.9L943.47 49Z" fill="#EAECEF"/>
<path d="M974.098 59.1978L966.907 49H973.821L979.812 57.6464L981.272 49H987.084L985.626 57.6464L994.536 49H1001.3L990.954 58.9291L998.177 70.1698H990.815L985.039 61.1362L983.514 70.1698H977.703L979.227 61.1362L970.402 70.1698H963.309L974.101 59.1978H974.098Z" fill="#EAECEF"/>
<path d="M1010.23 49H1003.13L1010.19 58.9291L999.713 70.1698H1006.81L1017.29 58.9291L1010.23 49ZM1021.44 49H1014.34L1021.41 58.9291L1010.93 70.1698H1018.02L1028.5 58.9291L1021.44 49ZM1032.94 49H1025.85L1032.91 58.9291L1022.43 70.1698H1029.52L1040 58.9291L1032.94 49Z" fill="#EAECEF"/>
<path d="M64.5327 48.8182V75H59.0611V53.3182H48.4759V75H43.0043V48.8182H64.5327ZM68.2606 82.3636V55.3636H73.63V58.6619H73.8729C74.1115 58.1335 74.4567 57.5966 74.9084 57.0511C75.3686 56.4972 75.9652 56.0369 76.6981 55.6705C77.4396 55.2955 78.3601 55.108 79.4595 55.108C80.8913 55.108 82.2123 55.483 83.4226 56.233C84.6328 56.9744 85.6001 58.0952 86.3246 59.5952C87.049 61.0866 87.4112 62.9574 87.4112 65.2074C87.4112 67.3977 87.0575 69.2472 86.3501 70.7557C85.6513 72.2557 84.6967 73.3935 83.4865 74.169C82.2848 74.9361 80.9382 75.3196 79.4467 75.3196C78.3899 75.3196 77.4908 75.1449 76.7493 74.7955C76.0163 74.446 75.4155 74.0071 74.9467 73.4787C74.478 72.9418 74.12 72.4006 73.8729 71.8551H73.7067V82.3636H68.2606ZM73.5916 65.1818C73.5916 66.3494 73.7535 67.3679 74.0774 68.2372C74.4013 69.1065 74.87 69.7841 75.4837 70.2699C76.0973 70.7472 76.843 70.9858 77.7209 70.9858C78.6072 70.9858 79.3572 70.7429 79.9709 70.2571C80.5845 69.7628 81.049 69.081 81.3643 68.2116C81.6882 67.3338 81.8501 66.3239 81.8501 65.1818C81.8501 64.0483 81.6925 63.0511 81.3771 62.1903C81.0618 61.3295 80.5973 60.6562 79.9837 60.1705C79.37 59.6847 78.6158 59.4418 77.7209 59.4418C76.8345 59.4418 76.0845 59.6761 75.4709 60.1449C74.8658 60.6136 74.4013 61.2784 74.0774 62.1392C73.7535 63 73.5916 64.0142 73.5916 65.1818ZM98.474 75.3835C96.4883 75.3835 94.7709 74.9616 93.3221 74.1179C91.8817 73.2656 90.7695 72.081 89.9854 70.5639C89.2013 69.0384 88.8093 67.2699 88.8093 65.2585C88.8093 63.2301 89.2013 61.4574 89.9854 59.9403C90.7695 58.4148 91.8817 57.2301 93.3221 56.3864C94.7709 55.5341 96.4883 55.108 98.474 55.108C100.46 55.108 102.173 55.5341 103.613 56.3864C105.062 57.2301 106.179 58.4148 106.963 59.9403C107.747 61.4574 108.139 63.2301 108.139 65.2585C108.139 67.2699 107.747 69.0384 106.963 70.5639C106.179 72.081 105.062 73.2656 103.613 74.1179C102.173 74.9616 100.46 75.3835 98.474 75.3835ZM98.4996 71.1648C99.403 71.1648 100.157 70.9091 100.762 70.3977C101.368 69.8778 101.823 69.1705 102.13 68.2756C102.446 67.3807 102.603 66.3622 102.603 65.2202C102.603 64.0781 102.446 63.0597 102.13 62.1648C101.823 61.2699 101.368 60.5625 100.762 60.0426C100.157 59.5227 99.403 59.2628 98.4996 59.2628C97.5877 59.2628 96.8206 59.5227 96.1985 60.0426C95.5848 60.5625 95.1204 61.2699 94.805 62.1648C94.4982 63.0597 94.3448 64.0781 94.3448 65.2202C94.3448 66.3622 94.4982 67.3807 94.805 68.2756C95.1204 69.1705 95.5848 69.8778 96.1985 70.3977C96.8206 70.9091 97.5877 71.1648 98.4996 71.1648ZM127.409 55.3636V71.2415H130.541V81.3153H125.249V75H110.24V55.3636H115.443V70.7173H122.27V55.3636H127.409ZM141.198 75.3835C139.178 75.3835 137.44 74.9744 135.982 74.1562C134.533 73.3295 133.417 72.1619 132.633 70.6534C131.849 69.1364 131.457 67.3423 131.457 65.2713C131.457 63.2514 131.849 61.4787 132.633 59.9531C133.417 58.4276 134.521 57.2386 135.944 56.3864C137.376 55.5341 139.055 55.108 140.981 55.108C142.276 55.108 143.482 55.3168 144.599 55.7344C145.724 56.1435 146.704 56.7614 147.539 57.5881C148.383 58.4148 149.039 59.4545 149.508 60.7074C149.977 61.9517 150.211 63.4091 150.211 65.0795V66.5753H133.63V63.2003H145.084C145.084 62.4162 144.914 61.7216 144.573 61.1165C144.232 60.5114 143.759 60.0384 143.154 59.6974C142.557 59.348 141.863 59.1733 141.07 59.1733C140.244 59.1733 139.511 59.3651 138.871 59.7486C138.241 60.1236 137.746 60.6307 137.388 61.2699C137.03 61.9006 136.847 62.6037 136.839 63.3793V66.5881C136.839 67.5597 137.018 68.3991 137.376 69.1065C137.742 69.8139 138.258 70.3594 138.923 70.7429C139.587 71.1264 140.376 71.3182 141.288 71.3182C141.893 71.3182 142.447 71.233 142.95 71.0625C143.452 70.892 143.883 70.6364 144.241 70.2955C144.599 69.9545 144.871 69.5369 145.059 69.0426L150.096 69.375C149.84 70.5852 149.316 71.642 148.523 72.5455C147.739 73.4403 146.725 74.1392 145.481 74.642C144.245 75.1364 142.817 75.3835 141.198 75.3835ZM165.991 63.0085V67.2912H155.738V63.0085H165.991ZM157.528 55.3636V75H152.325V55.3636H157.528ZM169.404 55.3636V75H164.24V55.3636H169.404ZM170.218 59.6463V55.3636H188.013V59.6463H181.685V75H176.495V59.6463H170.218ZM205.639 75.3835C203.653 75.3835 201.936 74.9616 200.487 74.1179C199.046 73.2656 197.934 72.081 197.15 70.5639C196.366 69.0384 195.974 67.2699 195.974 65.2585C195.974 63.2301 196.366 61.4574 197.15 59.9403C197.934 58.4148 199.046 57.2301 200.487 56.3864C201.936 55.5341 203.653 55.108 205.639 55.108C207.625 55.108 209.338 55.5341 210.778 56.3864C212.227 57.2301 213.343 58.4148 214.127 59.9403C214.911 61.4574 215.304 63.2301 215.304 65.2585C215.304 67.2699 214.911 69.0384 214.127 70.5639C213.343 72.081 212.227 73.2656 210.778 74.1179C209.338 74.9616 207.625 75.3835 205.639 75.3835ZM205.664 71.1648C206.568 71.1648 207.322 70.9091 207.927 70.3977C208.532 69.8778 208.988 69.1705 209.295 68.2756C209.61 67.3807 209.768 66.3622 209.768 65.2202C209.768 64.0781 209.61 63.0597 209.295 62.1648C208.988 61.2699 208.532 60.5625 207.927 60.0426C207.322 59.5227 206.568 59.2628 205.664 59.2628C204.752 59.2628 203.985 59.5227 203.363 60.0426C202.75 60.5625 202.285 61.2699 201.97 62.1648C201.663 63.0597 201.509 64.0781 201.509 65.2202C201.509 66.3622 201.663 67.3807 201.97 68.2756C202.285 69.1705 202.75 69.8778 203.363 70.3977C203.985 70.9091 204.752 71.1648 205.664 71.1648ZM215.871 80.7528V70.679H217.379C217.814 70.4062 218.163 69.9716 218.427 69.375C218.7 68.7784 218.922 68.0753 219.092 67.2656C219.271 66.456 219.408 65.5824 219.501 64.6449C219.604 63.6989 219.693 62.7443 219.77 61.7812L220.281 55.3636H235.341V70.679H238.383V80.7528H233.193V75H221.189V80.7528H215.871ZM222.8 70.679H230.202V59.5568H224.909L224.704 61.7812C224.56 63.8778 224.351 65.6591 224.078 67.125C223.805 68.5824 223.379 69.767 222.8 70.679ZM248.989 75.3835C247.003 75.3835 245.286 74.9616 243.837 74.1179C242.397 73.2656 241.285 72.081 240.501 70.5639C239.716 69.0384 239.324 67.2699 239.324 65.2585C239.324 63.2301 239.716 61.4574 240.501 59.9403C241.285 58.4148 242.397 57.2301 243.837 56.3864C245.286 55.5341 247.003 55.108 248.989 55.108C250.975 55.108 252.688 55.5341 254.128 56.3864C255.577 57.2301 256.694 58.4148 257.478 59.9403C258.262 61.4574 258.654 63.2301 258.654 65.2585C258.654 67.2699 258.262 69.0384 257.478 70.5639C256.694 72.081 255.577 73.2656 254.128 74.1179C252.688 74.9616 250.975 75.3835 248.989 75.3835ZM249.015 71.1648C249.918 71.1648 250.672 70.9091 251.278 70.3977C251.883 69.8778 252.339 69.1705 252.645 68.2756C252.961 67.3807 253.118 66.3622 253.118 65.2202C253.118 64.0781 252.961 63.0597 252.645 62.1648C252.339 61.2699 251.883 60.5625 251.278 60.0426C250.672 59.5227 249.918 59.2628 249.015 59.2628C248.103 59.2628 247.336 59.5227 246.714 60.0426C246.1 60.5625 245.636 61.2699 245.32 62.1648C245.013 63.0597 244.86 64.0781 244.86 65.2202C244.86 66.3622 245.013 67.3807 245.32 68.2756C245.636 69.1705 246.1 69.8778 246.714 70.3977C247.336 70.9091 248.103 71.1648 249.015 71.1648ZM277.08 48.1534L278.742 51.7074C278.188 52.1676 277.575 52.5085 276.901 52.7301C276.228 52.9432 275.423 53.0838 274.485 53.152C273.556 53.2202 272.423 53.267 271.085 53.2926C269.568 53.3097 268.332 53.5526 267.377 54.0213C266.423 54.4901 265.698 55.2273 265.204 56.233C264.71 57.2301 264.386 58.5341 264.232 60.1449H264.424C265.012 58.9432 265.839 58.0142 266.904 57.358C267.978 56.7017 269.303 56.3736 270.88 56.3736C272.551 56.3736 274.012 56.7401 275.265 57.473C276.526 58.206 277.507 59.2585 278.205 60.6307C278.904 62.0028 279.254 63.6477 279.254 65.5653C279.254 67.5597 278.862 69.294 278.078 70.7685C277.302 72.2344 276.198 73.3722 274.767 74.1818C273.335 74.983 271.63 75.3835 269.653 75.3835C267.667 75.3835 265.954 74.9659 264.514 74.1307C263.082 73.2955 261.974 72.0639 261.19 70.4361C260.414 68.8082 260.026 66.8054 260.026 64.4276V62.8168C260.026 58.0866 260.947 54.5795 262.788 52.2955C264.629 50.0114 267.335 48.8523 270.906 48.8182C271.877 48.8011 272.755 48.7969 273.539 48.8054C274.323 48.8139 275.009 48.7756 275.598 48.6903C276.194 48.6051 276.688 48.4261 277.08 48.1534ZM269.678 71.1648C270.514 71.1648 271.23 70.9474 271.826 70.5128C272.431 70.0781 272.896 69.456 273.22 68.6463C273.552 67.8366 273.718 66.8693 273.718 65.7443C273.718 64.6278 273.552 63.6818 273.22 62.9062C272.896 62.1222 272.431 61.5256 271.826 61.1165C271.221 60.7074 270.497 60.5028 269.653 60.5028C269.022 60.5028 268.455 60.6179 267.953 60.848C267.45 61.0781 267.019 61.419 266.661 61.8707C266.312 62.3139 266.039 62.8636 265.843 63.5199C265.656 64.1676 265.562 64.9091 265.562 65.7443C265.562 67.4233 265.924 68.7486 266.649 69.7202C267.382 70.6832 268.392 71.1648 269.678 71.1648ZM281.428 82.3636V55.3636H286.798V58.6619H287.041C287.279 58.1335 287.624 57.5966 288.076 57.0511C288.536 56.4972 289.133 56.0369 289.866 55.6705C290.607 55.2955 291.528 55.108 292.627 55.108C294.059 55.108 295.38 55.483 296.59 56.233C297.801 56.9744 298.768 58.0952 299.492 59.5952C300.217 61.0866 300.579 62.9574 300.579 65.2074C300.579 67.3977 300.225 69.2472 299.518 70.7557C298.819 72.2557 297.865 73.3935 296.654 74.169C295.453 74.9361 294.106 75.3196 292.615 75.3196C291.558 75.3196 290.659 75.1449 289.917 74.7955C289.184 74.446 288.583 74.0071 288.115 73.4787C287.646 72.9418 287.288 72.4006 287.041 71.8551H286.874V82.3636H281.428ZM286.759 65.1818C286.759 66.3494 286.921 67.3679 287.245 68.2372C287.569 69.1065 288.038 69.7841 288.651 70.2699C289.265 70.7472 290.011 70.9858 290.889 70.9858C291.775 70.9858 292.525 70.7429 293.139 70.2571C293.752 69.7628 294.217 69.081 294.532 68.2116C294.856 67.3338 295.018 66.3239 295.018 65.1818C295.018 64.0483 294.86 63.0511 294.545 62.1903C294.23 61.3295 293.765 60.6562 293.151 60.1705C292.538 59.6847 291.784 59.4418 290.889 59.4418C290.002 59.4418 289.252 59.6761 288.639 60.1449C288.034 60.6136 287.569 61.2784 287.245 62.1392C286.921 63 286.759 64.0142 286.759 65.1818ZM311.719 75.3835C309.699 75.3835 307.96 74.9744 306.503 74.1562C305.054 73.3295 303.937 72.1619 303.153 70.6534C302.369 69.1364 301.977 67.3423 301.977 65.2713C301.977 63.2514 302.369 61.4787 303.153 59.9531C303.937 58.4276 305.041 57.2386 306.464 56.3864C307.896 55.5341 309.575 55.108 311.501 55.108C312.797 55.108 314.003 55.3168 315.119 55.7344C316.244 56.1435 317.224 56.7614 318.059 57.5881C318.903 58.4148 319.559 59.4545 320.028 60.7074C320.497 61.9517 320.731 63.4091 320.731 65.0795V66.5753H304.15V63.2003H315.605C315.605 62.4162 315.434 61.7216 315.094 61.1165C314.753 60.5114 314.28 60.0384 313.675 59.6974C313.078 59.348 312.383 59.1733 311.591 59.1733C310.764 59.1733 310.031 59.3651 309.392 59.7486C308.761 60.1236 308.267 60.6307 307.909 61.2699C307.551 61.9006 307.368 62.6037 307.359 63.3793V66.5881C307.359 67.5597 307.538 68.3991 307.896 69.1065C308.263 69.8139 308.778 70.3594 309.443 70.7429C310.108 71.1264 310.896 71.3182 311.808 71.3182C312.413 71.3182 312.967 71.233 313.47 71.0625C313.973 70.892 314.403 70.6364 314.761 70.2955C315.119 69.9545 315.392 69.5369 315.579 69.0426L320.616 69.375C320.361 70.5852 319.836 71.642 319.044 72.5455C318.26 73.4403 317.246 74.1392 316.001 74.642C314.765 75.1364 313.338 75.3835 311.719 75.3835ZM336.512 63.0085V67.2912H326.259V63.0085H336.512ZM328.048 55.3636V75H322.845V55.3636H328.048ZM339.925 55.3636V75H334.76V55.3636H339.925ZM347.913 67.8153L354.983 55.3636H360.352V75H355.162V62.5099L348.118 75H342.71V55.3636H347.913V67.8153ZM374.784 75V59.6335H371.102C370.105 59.6335 369.346 59.8636 368.826 60.3239C368.306 60.7841 368.051 61.3295 368.059 61.9602C368.051 62.5994 368.298 63.1406 368.801 63.5838C369.312 64.0185 370.062 64.2358 371.051 64.2358H376.599V67.9176H371.051C369.372 67.9176 367.918 67.6619 366.691 67.1506C365.464 66.6392 364.518 65.9276 363.853 65.0156C363.188 64.0952 362.86 63.0256 362.869 61.8068C362.86 60.5284 363.188 59.4077 363.853 58.4446C364.518 57.473 365.468 56.7187 366.704 56.1818C367.948 55.6364 369.414 55.3636 371.102 55.3636H379.859V75H374.784ZM362.306 75L367.765 64.7727H372.968L367.522 75H362.306ZM389.542 75V55.3636H406.711V75H401.508V59.6463H394.682V75H389.542ZM418.49 75.3835C416.504 75.3835 414.787 74.9616 413.338 74.1179C411.898 73.2656 410.786 72.081 410.001 70.5639C409.217 69.0384 408.825 67.2699 408.825 65.2585C408.825 63.2301 409.217 61.4574 410.001 59.9403C410.786 58.4148 411.898 57.2301 413.338 56.3864C414.787 55.5341 416.504 55.108 418.49 55.108C420.476 55.108 422.189 55.5341 423.629 56.3864C425.078 57.2301 426.195 58.4148 426.979 59.9403C427.763 61.4574 428.155 63.2301 428.155 65.2585C428.155 67.2699 427.763 69.0384 426.979 70.5639C426.195 72.081 425.078 73.2656 423.629 74.1179C422.189 74.9616 420.476 75.3835 418.49 75.3835ZM418.516 71.1648C419.419 71.1648 420.173 70.9091 420.778 70.3977C421.384 69.8778 421.84 69.1705 422.146 68.2756C422.462 67.3807 422.619 66.3622 422.619 65.2202C422.619 64.0781 422.462 63.0597 422.146 62.1648C421.84 61.2699 421.384 60.5625 420.778 60.0426C420.173 59.5227 419.419 59.2628 418.516 59.2628C417.604 59.2628 416.837 59.5227 416.215 60.0426C415.601 60.5625 415.136 61.2699 414.821 62.1648C414.514 63.0597 414.361 64.0781 414.361 65.2202C414.361 66.3622 414.514 67.3807 414.821 68.2756C415.136 69.1705 415.601 69.8778 416.215 70.3977C416.837 70.9091 417.604 71.1648 418.516 71.1648ZM437.148 82.3636V55.3636H442.517V58.6619H442.76C442.999 58.1335 443.344 57.5966 443.796 57.0511C444.256 56.4972 444.853 56.0369 445.586 55.6705C446.327 55.2955 447.248 55.108 448.347 55.108C449.779 55.108 451.1 55.483 452.31 56.233C453.52 56.9744 454.488 58.0952 455.212 59.5952C455.937 61.0866 456.299 62.9574 456.299 65.2074C456.299 67.3977 455.945 69.2472 455.238 70.7557C454.539 72.2557 453.584 73.3935 452.374 74.169C451.172 74.9361 449.826 75.3196 448.334 75.3196C447.277 75.3196 446.378 75.1449 445.637 74.7955C444.904 74.446 444.303 74.0071 443.834 73.4787C443.365 72.9418 443.008 72.4006 442.76 71.8551H442.594V82.3636H437.148ZM442.479 65.1818C442.479 66.3494 442.641 67.3679 442.965 68.2372C443.289 69.1065 443.758 69.7841 444.371 70.2699C444.985 70.7472 445.731 70.9858 446.608 70.9858C447.495 70.9858 448.245 70.7429 448.858 70.2571C449.472 69.7628 449.937 69.081 450.252 68.2116C450.576 67.3338 450.738 66.3239 450.738 65.1818C450.738 64.0483 450.58 63.0511 450.265 62.1903C449.949 61.3295 449.485 60.6562 448.871 60.1705C448.258 59.6847 447.503 59.4418 446.608 59.4418C445.722 59.4418 444.972 59.6761 444.358 60.1449C443.753 60.6136 443.289 61.2784 442.965 62.1392C442.641 63 442.479 64.0142 442.479 65.1818ZM467.438 75.3835C465.418 75.3835 463.68 74.9744 462.222 74.1562C460.773 73.3295 459.657 72.1619 458.873 70.6534C458.089 69.1364 457.697 67.3423 457.697 65.2713C457.697 63.2514 458.089 61.4787 458.873 59.9531C459.657 58.4276 460.761 57.2386 462.184 56.3864C463.616 55.5341 465.295 55.108 467.221 55.108C468.516 55.108 469.722 55.3168 470.839 55.7344C471.964 56.1435 472.944 56.7614 473.779 57.5881C474.623 58.4148 475.279 59.4545 475.748 60.7074C476.217 61.9517 476.451 63.4091 476.451 65.0795V66.5753H459.87V63.2003H471.325C471.325 62.4162 471.154 61.7216 470.813 61.1165C470.472 60.5114 469.999 60.0384 469.394 59.6974C468.798 59.348 468.103 59.1733 467.31 59.1733C466.484 59.1733 465.751 59.3651 465.112 59.7486C464.481 60.1236 463.987 60.6307 463.629 61.2699C463.271 61.9006 463.087 62.6037 463.079 63.3793V66.5881C463.079 67.5597 463.258 68.3991 463.616 69.1065C463.982 69.8139 464.498 70.3594 465.163 70.7429C465.827 71.1264 466.616 71.3182 467.528 71.3182C468.133 71.3182 468.687 71.233 469.19 71.0625C469.693 70.892 470.123 70.6364 470.481 70.2955C470.839 69.9545 471.112 69.5369 471.299 69.0426L476.336 69.375C476.08 70.5852 475.556 71.642 474.764 72.5455C473.979 73.4403 472.965 74.1392 471.721 74.642C470.485 75.1364 469.058 75.3835 467.438 75.3835ZM492.014 55.3636V59.6463H483.858V75H478.565V55.3636H492.014ZM499.098 67.8153L506.167 55.3636H511.537V75H506.346V62.5099L499.302 75H493.895V55.3636H499.098V67.8153ZM523.335 75.3835C521.349 75.3835 519.631 74.9616 518.183 74.1179C516.742 73.2656 515.63 72.081 514.846 70.5639C514.062 69.0384 513.67 67.2699 513.67 65.2585C513.67 63.2301 514.062 61.4574 514.846 59.9403C515.63 58.4148 516.742 57.2301 518.183 56.3864C519.631 55.5341 521.349 55.108 523.335 55.108C525.32 55.108 527.033 55.5341 528.474 56.3864C529.923 57.2301 531.039 58.4148 531.823 59.9403C532.607 61.4574 532.999 63.2301 532.999 65.2585C532.999 67.2699 532.607 69.0384 531.823 70.5639C531.039 72.081 529.923 73.2656 528.474 74.1179C527.033 74.9616 525.32 75.3835 523.335 75.3835ZM523.36 71.1648C524.263 71.1648 525.018 70.9091 525.623 70.3977C526.228 69.8778 526.684 69.1705 526.991 68.2756C527.306 67.3807 527.464 66.3622 527.464 65.2202C527.464 64.0781 527.306 63.0597 526.991 62.1648C526.684 61.2699 526.228 60.5625 525.623 60.0426C525.018 59.5227 524.263 59.2628 523.36 59.2628C522.448 59.2628 521.681 59.5227 521.059 60.0426C520.445 60.5625 519.981 61.2699 519.665 62.1648C519.359 63.0597 519.205 64.0781 519.205 65.2202C519.205 66.3622 519.359 67.3807 519.665 68.2756C519.981 69.1705 520.445 69.8778 521.059 70.3977C521.681 70.9091 522.448 71.1648 523.36 71.1648ZM548.767 63.0085V67.2912H538.514V63.0085H548.767ZM540.304 55.3636V75H535.1V55.3636H540.304ZM552.18 55.3636V75H547.015V55.3636H552.18ZM560.565 75.3707C559.312 75.3707 558.195 75.1534 557.215 74.7188C556.235 74.2756 555.459 73.6236 554.888 72.7628C554.326 71.8935 554.045 70.8111 554.045 69.5156C554.045 68.4247 554.245 67.5085 554.646 66.767C555.046 66.0256 555.592 65.429 556.282 64.9773C556.972 64.5256 557.756 64.1847 558.634 63.9545C559.521 63.7244 560.45 63.5625 561.421 63.4688C562.563 63.3494 563.484 63.2386 564.182 63.1364C564.881 63.0256 565.388 62.8636 565.704 62.6506C566.019 62.4375 566.177 62.1222 566.177 61.7045V61.6278C566.177 60.8182 565.921 60.1918 565.41 59.7486C564.907 59.3054 564.191 59.0838 563.262 59.0838C562.282 59.0838 561.502 59.3011 560.923 59.7358C560.343 60.1619 559.959 60.6989 559.772 61.3466L554.735 60.9375C554.991 59.7443 555.494 58.7131 556.244 57.8438C556.994 56.9659 557.961 56.2926 559.146 55.8239C560.339 55.3466 561.719 55.108 563.288 55.108C564.379 55.108 565.423 55.2358 566.42 55.4915C567.425 55.7472 568.316 56.1435 569.092 56.6804C569.876 57.2173 570.494 57.9077 570.945 58.7514C571.397 59.5866 571.623 60.5881 571.623 61.7557V75H566.458V72.277H566.305C565.989 72.8906 565.567 73.4318 565.039 73.9006C564.511 74.3608 563.876 74.723 563.134 74.9872C562.393 75.2429 561.536 75.3707 560.565 75.3707ZM562.124 71.6122C562.925 71.6122 563.633 71.4545 564.246 71.1392C564.86 70.8153 565.342 70.3807 565.691 69.8352C566.04 69.2898 566.215 68.6719 566.215 67.9815V65.8977C566.045 66.0085 565.81 66.1108 565.512 66.2045C565.222 66.2898 564.894 66.3707 564.528 66.4474C564.161 66.5156 563.795 66.5795 563.428 66.6392C563.062 66.6903 562.729 66.7372 562.431 66.7798C561.792 66.8736 561.234 67.0227 560.756 67.2273C560.279 67.4318 559.908 67.7088 559.644 68.0582C559.38 68.3991 559.248 68.8253 559.248 69.3366C559.248 70.0781 559.516 70.6449 560.053 71.0369C560.599 71.4205 561.289 71.6122 562.124 71.6122ZM586.016 68.9787L591.334 55.3636H595.476L587.818 75H584.201L576.722 55.3636H580.851L586.016 68.9787ZM579.611 55.3636V75H574.408V55.3636H579.611ZM592.689 75V55.3636H597.828V75H592.689Z" fill="black"/>
<rect x="40" y="124" width="491" height="295" rx="20" fill="#F7F7F7"/>
<path opacity="0.6" d="M56.2912 142.909H59.1932L63.0795 152.395H63.233L67.1193 142.909H70.0213V156H67.7457V147.006H67.6243L64.0064 155.962H62.3061L58.6882 146.987H58.5668V156H56.2912V142.909ZM86.1011 149.455C86.1011 150.865 85.8369 152.073 85.3085 153.079C84.7844 154.08 84.0685 154.847 83.1608 155.38C82.2574 155.913 81.2325 156.179 80.0862 156.179C78.9399 156.179 77.9129 155.913 77.0053 155.38C76.1018 154.843 75.3859 154.074 74.8575 153.072C74.3334 152.067 74.0713 150.861 74.0713 149.455C74.0713 148.044 74.3334 146.838 74.8575 145.837C75.3859 144.831 76.1018 144.062 77.0053 143.529C77.9129 142.996 78.9399 142.73 80.0862 142.73C81.2325 142.73 82.2574 142.996 83.1608 143.529C84.0685 144.062 84.7844 144.831 85.3085 145.837C85.8369 146.838 86.1011 148.044 86.1011 149.455ZM83.7169 149.455C83.7169 148.462 83.5614 147.624 83.2503 146.942C82.9435 146.256 82.5173 145.739 81.9719 145.389C81.4264 145.036 80.7979 144.859 80.0862 144.859C79.3746 144.859 78.746 145.036 78.2006 145.389C77.6551 145.739 77.2268 146.256 76.9158 146.942C76.6089 147.624 76.4555 148.462 76.4555 149.455C76.4555 150.447 76.6089 151.287 76.9158 151.973C77.2268 152.655 77.6551 153.173 78.2006 153.526C78.746 153.876 79.3746 154.05 80.0862 154.05C80.7979 154.05 81.4264 153.876 81.9719 153.526C82.5173 153.173 82.9435 152.655 83.2503 151.973C83.5614 151.287 83.7169 150.447 83.7169 149.455ZM101.348 147.326H98.9578C98.8896 146.934 98.7639 146.587 98.5806 146.284C98.3974 145.977 98.1694 145.717 97.8967 145.504C97.624 145.291 97.3129 145.131 96.9635 145.025C96.6183 144.914 96.2454 144.859 95.8448 144.859C95.1332 144.859 94.5025 145.038 93.9528 145.396C93.4031 145.749 92.9727 146.269 92.6616 146.955C92.3505 147.637 92.195 148.47 92.195 149.455C92.195 150.456 92.3505 151.3 92.6616 151.986C92.977 152.668 93.4073 153.183 93.9528 153.533C94.5025 153.878 95.1311 154.05 95.8385 154.05C96.2305 154.05 96.597 153.999 96.9379 153.897C97.2831 153.79 97.592 153.635 97.8647 153.43C98.1417 153.226 98.374 152.974 98.5615 152.676C98.7532 152.378 98.8853 152.037 98.9578 151.653L101.348 151.666C101.259 152.288 101.065 152.872 100.767 153.418C100.473 153.963 100.087 154.445 99.6098 154.862C99.1325 155.276 98.5743 155.599 97.935 155.834C97.2958 156.064 96.5863 156.179 95.8065 156.179C94.6559 156.179 93.6289 155.913 92.7255 155.38C91.8221 154.847 91.1105 154.078 90.5906 153.072C90.0707 152.067 89.8108 150.861 89.8108 149.455C89.8108 148.044 90.0728 146.838 90.597 145.837C91.1211 144.831 91.8349 144.062 92.7383 143.529C93.6417 142.996 94.6645 142.73 95.8065 142.73C96.5352 142.73 97.2127 142.832 97.8392 143.037C98.4656 143.241 99.0238 143.542 99.5139 143.938C100.004 144.33 100.407 144.812 100.722 145.383C101.042 145.95 101.25 146.597 101.348 147.326ZM113.163 156L108.855 150.279H107.692V156H105.32V142.909H107.692V148.291H108.286L112.939 142.909H115.861L110.689 148.879L116.084 156H113.163ZM119.495 156V142.909H124.506C125.452 142.909 126.239 143.058 126.865 143.357C127.496 143.651 127.967 144.053 128.278 144.565C128.593 145.076 128.751 145.656 128.751 146.303C128.751 146.836 128.649 147.292 128.444 147.671C128.239 148.046 127.965 148.351 127.619 148.585C127.274 148.82 126.889 148.988 126.462 149.09V149.218C126.927 149.244 127.372 149.386 127.798 149.646C128.229 149.902 128.58 150.264 128.853 150.733C129.126 151.202 129.262 151.768 129.262 152.433C129.262 153.111 129.098 153.72 128.77 154.261C128.442 154.798 127.948 155.222 127.287 155.533C126.626 155.844 125.796 156 124.794 156H119.495ZM121.867 154.018H124.417C125.278 154.018 125.898 153.854 126.277 153.526C126.661 153.194 126.852 152.768 126.852 152.248C126.852 151.86 126.756 151.511 126.565 151.2C126.373 150.884 126.1 150.637 125.747 150.458C125.393 150.275 124.971 150.183 124.481 150.183H121.867V154.018ZM121.867 148.477H124.212C124.622 148.477 124.99 148.402 125.318 148.253C125.646 148.099 125.904 147.884 126.092 147.607C126.283 147.326 126.379 146.994 126.379 146.61C126.379 146.103 126.2 145.685 125.842 145.357C125.489 145.029 124.962 144.865 124.264 144.865H121.867V148.477ZM134.806 156H132.275L136.884 142.909H139.811L144.426 156H141.895L138.399 145.594H138.296L134.806 156ZM134.889 150.867H141.793V152.772H134.889V150.867Z" fill="black"/>
<path opacity="0.4" d="M55 372.5H510.991V299C513.697 299 232.5 280 232.5 280L55 243V372.5Z" fill="url(#paint0_linear_2662_1085)"/>
<rect x="506.188" y="293" width="10.2717" height="10.2717" rx="5.13587" fill="#CACACA"/>
<path d="M509.5 299L232 279.5L55 242.5" stroke="#CACACA" stroke-width="4"/>
<path d="M344.074 357.443V381.801L334.989 372.682L331 376.636L346.955 392.557L362.875 376.636L358.955 372.682L349.835 381.801V357.443H344.074Z" fill="#CACACA"/>
<path d="M344.074 357.443V381.801L334.989 372.682L331 376.636L346.955 392.557L362.875 376.636L358.955 372.682L349.835 381.801V357.443H344.074Z" fill="#FF7474"/>
<path d="M390.705 357.091V392H383.324V364.097H383.119L375.125 369.108V362.562L383.767 357.091H390.705ZM398.509 392V386.682L410.935 375.176C411.992 374.153 412.879 373.233 413.594 372.415C414.322 371.597 414.873 370.795 415.248 370.011C415.623 369.216 415.81 368.358 415.81 367.438C415.81 366.415 415.577 365.534 415.112 364.795C414.646 364.045 414.009 363.472 413.202 363.074C412.396 362.665 411.481 362.46 410.458 362.46C409.39 362.46 408.458 362.676 407.663 363.108C406.867 363.54 406.254 364.159 405.822 364.966C405.39 365.773 405.174 366.733 405.174 367.847H398.168C398.168 365.562 398.685 363.58 399.719 361.898C400.754 360.216 402.202 358.915 404.066 357.994C405.93 357.074 408.077 356.614 410.509 356.614C413.009 356.614 415.185 357.057 417.038 357.943C418.901 358.818 420.35 360.034 421.384 361.591C422.418 363.148 422.935 364.932 422.935 366.943C422.935 368.261 422.674 369.562 422.151 370.847C421.64 372.131 420.725 373.557 419.407 375.125C418.089 376.682 416.231 378.551 413.833 380.733L408.737 385.727V385.966H423.396V392H398.509ZM436.212 387.227L436.024 389.102C435.876 390.602 435.592 392.097 435.172 393.585C434.763 395.085 434.331 396.443 433.876 397.659C433.433 398.875 433.075 399.83 432.803 400.523H428.098C428.268 399.852 428.501 398.915 428.797 397.71C429.092 396.517 429.371 395.176 429.632 393.688C429.893 392.199 430.058 390.682 430.126 389.136L430.212 387.227H436.212ZM454.759 392.477C452.35 392.477 450.202 392.034 448.316 391.148C446.441 390.261 444.952 389.04 443.85 387.483C442.748 385.926 442.174 384.142 442.129 382.131H449.288C449.367 383.483 449.935 384.58 450.992 385.42C452.049 386.261 453.305 386.682 454.759 386.682C455.918 386.682 456.941 386.426 457.827 385.915C458.725 385.392 459.424 384.67 459.924 383.75C460.435 382.818 460.691 381.75 460.691 380.545C460.691 379.318 460.43 378.239 459.907 377.307C459.396 376.375 458.685 375.648 457.776 375.125C456.867 374.602 455.827 374.335 454.657 374.324C453.634 374.324 452.64 374.534 451.674 374.955C450.719 375.375 449.975 375.949 449.441 376.676L442.879 375.5L444.532 357.091H465.873V363.125H450.617L449.714 371.869H449.918C450.532 371.006 451.458 370.29 452.697 369.722C453.935 369.153 455.322 368.869 456.856 368.869C458.958 368.869 460.833 369.364 462.481 370.352C464.129 371.341 465.43 372.699 466.384 374.426C467.339 376.142 467.81 378.119 467.799 380.358C467.81 382.71 467.265 384.801 466.163 386.631C465.072 388.449 463.543 389.881 461.577 390.926C459.623 391.96 457.35 392.477 454.759 392.477ZM491.562 385.455V383.614C491.562 382.216 491.858 380.932 492.449 379.761C493.051 378.58 493.92 377.636 495.057 376.932C496.205 376.216 497.602 375.858 499.25 375.858C500.92 375.858 502.324 376.21 503.46 376.915C504.608 377.619 505.472 378.562 506.051 379.744C506.642 380.915 506.938 382.205 506.938 383.614V385.455C506.938 386.852 506.642 388.142 506.051 389.324C505.46 390.494 504.591 391.432 503.443 392.136C502.295 392.852 500.898 393.21 499.25 393.21C497.58 393.21 496.176 392.852 495.04 392.136C493.903 391.432 493.04 390.494 492.449 389.324C491.858 388.142 491.562 386.852 491.562 385.455ZM496.523 383.614V385.455C496.523 386.261 496.716 387.023 497.102 387.739C497.5 388.455 498.216 388.812 499.25 388.812C500.284 388.812 500.989 388.46 501.364 387.756C501.75 387.051 501.943 386.284 501.943 385.455V383.614C501.943 382.784 501.761 382.011 501.398 381.295C501.034 380.58 500.318 380.222 499.25 380.222C498.227 380.222 497.517 380.58 497.119 381.295C496.722 382.011 496.523 382.784 496.523 383.614ZM473.648 365.477V363.636C473.648 362.227 473.949 360.937 474.551 359.767C475.153 358.585 476.023 357.642 477.159 356.938C478.307 356.233 479.693 355.881 481.318 355.881C483 355.881 484.409 356.233 485.545 356.938C486.682 357.642 487.545 358.585 488.136 359.767C488.727 360.937 489.023 362.227 489.023 363.636V365.477C489.023 366.886 488.722 368.176 488.119 369.347C487.528 370.517 486.659 371.455 485.511 372.159C484.375 372.852 482.977 373.199 481.318 373.199C479.659 373.199 478.256 372.847 477.108 372.142C475.972 371.426 475.108 370.489 474.517 369.33C473.938 368.159 473.648 366.875 473.648 365.477ZM478.642 363.636V365.477C478.642 366.307 478.835 367.074 479.222 367.778C479.619 368.483 480.318 368.835 481.318 368.835C482.364 368.835 483.074 368.483 483.449 367.778C483.835 367.074 484.028 366.307 484.028 365.477V363.636C484.028 362.807 483.847 362.034 483.483 361.318C483.119 360.602 482.398 360.244 481.318 360.244C480.307 360.244 479.608 360.608 479.222 361.335C478.835 362.062 478.642 362.83 478.642 363.636ZM475.898 392L499.898 357.091H504.364L480.364 392H475.898Z" fill="black"/>
<path d="M57.0781 229L64.0625 215.187V215.07H55.9844V213H66.5625V215.141L59.6016 229H57.0781ZM74.2833 229.266C73.0489 229.26 71.9942 228.935 71.1192 228.289C70.2442 227.643 69.575 226.703 69.1114 225.469C68.6479 224.234 68.4161 222.747 68.4161 221.008C68.4161 219.273 68.6479 217.792 69.1114 216.562C69.5802 215.333 70.2521 214.396 71.1271 213.75C72.0073 213.104 73.0593 212.781 74.2833 212.781C75.5073 212.781 76.5567 213.107 77.4317 213.758C78.3067 214.404 78.976 215.341 79.4396 216.57C79.9083 217.794 80.1427 219.273 80.1427 221.008C80.1427 222.753 79.9109 224.242 79.4474 225.477C78.9838 226.706 78.3146 227.646 77.4396 228.297C76.5646 228.943 75.5125 229.266 74.2833 229.266ZM74.2833 227.18C75.3666 227.18 76.213 226.651 76.8224 225.594C77.437 224.536 77.7442 223.008 77.7442 221.008C77.7442 219.68 77.6036 218.557 77.3224 217.641C77.0463 216.719 76.6479 216.021 76.1271 215.547C75.6114 215.068 74.9968 214.828 74.2833 214.828C73.2052 214.828 72.3588 215.359 71.7442 216.422C71.1297 217.484 70.8198 219.013 70.8146 221.008C70.8146 222.341 70.9526 223.469 71.2286 224.391C71.5099 225.307 71.9083 226.003 72.4239 226.477C72.9396 226.945 73.5593 227.18 74.2833 227.18ZM85.1818 226.812L85.0647 227.664C84.9865 228.289 84.8537 228.94 84.6662 229.617C84.4839 230.299 84.2938 230.932 84.0959 231.516C83.9032 232.099 83.7443 232.563 83.6193 232.906H81.9631C82.0308 232.583 82.1246 232.146 82.2443 231.594C82.3641 231.047 82.4813 230.435 82.5959 229.758C82.7105 229.081 82.7964 228.391 82.8537 227.687L82.9318 226.812H85.1818ZM93.096 229.219C91.9762 229.219 90.9866 229.026 90.1273 228.641C89.2731 228.255 88.6038 227.724 88.1194 227.047C87.6351 226.37 87.3955 225.599 87.4007 224.734C87.3955 224.057 87.5335 223.435 87.8148 222.867C88.1012 222.294 88.4892 221.818 88.9788 221.438C89.4684 221.052 90.0153 220.807 90.6194 220.703V220.609C89.8226 220.417 89.1846 219.99 88.7054 219.328C88.2262 218.667 87.9892 217.906 87.9944 217.047C87.9892 216.229 88.2054 215.5 88.6429 214.859C89.0856 214.214 89.6924 213.706 90.4632 213.336C91.234 212.966 92.1116 212.781 93.096 212.781C94.07 212.781 94.9398 212.969 95.7054 213.344C96.4762 213.714 97.083 214.221 97.5257 214.867C97.9684 215.508 98.1924 216.234 98.1976 217.047C98.1924 217.906 97.9476 218.667 97.4632 219.328C96.9788 219.99 96.3486 220.417 95.5726 220.609V220.703C96.1715 220.807 96.7106 221.052 97.1898 221.438C97.6741 221.818 98.0595 222.294 98.346 222.867C98.6377 223.435 98.7861 224.057 98.7913 224.734C98.7861 225.599 98.5413 226.37 98.0569 227.047C97.5726 227.724 96.9007 228.255 96.0413 228.641C95.1872 229.026 94.2054 229.219 93.096 229.219ZM93.096 227.242C93.7575 227.242 94.3304 227.133 94.8148 226.914C95.2991 226.69 95.6741 226.38 95.9398 225.984C96.2054 225.583 96.3408 225.115 96.346 224.578C96.3408 224.021 96.195 223.529 95.9085 223.102C95.6273 222.674 95.2444 222.339 94.7601 222.094C94.2757 221.849 93.721 221.727 93.096 221.727C92.4658 221.727 91.9059 221.849 91.4163 222.094C90.9267 222.339 90.5413 222.674 90.2601 223.102C89.9788 223.529 89.8408 224.021 89.846 224.578C89.8408 225.115 89.9684 225.583 90.2288 225.984C90.4944 226.38 90.8721 226.69 91.3616 226.914C91.8512 227.133 92.4293 227.242 93.096 227.242ZM93.096 219.797C93.6273 219.797 94.0986 219.69 94.5101 219.477C94.9215 219.263 95.2444 218.966 95.4788 218.586C95.7184 218.206 95.8408 217.76 95.846 217.25C95.8408 216.75 95.721 216.313 95.4866 215.938C95.2575 215.562 94.9372 215.273 94.5257 215.07C94.1142 214.862 93.6377 214.758 93.096 214.758C92.5439 214.758 92.0596 214.862 91.6429 215.07C91.2314 215.273 90.9111 215.562 90.6819 215.938C90.4528 216.313 90.3408 216.75 90.346 217.25C90.3408 217.76 90.4554 218.206 90.6898 218.586C90.9241 218.966 91.2471 219.263 91.6585 219.477C92.0752 219.69 92.5543 219.797 93.096 219.797Z" fill="#CFCFCF"/>
<path d="M472.48 283.219C471.501 283.219 470.621 283.031 469.84 282.656C469.063 282.276 468.444 281.755 467.98 281.094C467.517 280.432 467.269 279.677 467.238 278.828H469.582C469.639 279.516 469.944 280.081 470.496 280.523C471.048 280.966 471.709 281.187 472.48 281.187C473.095 281.187 473.639 281.047 474.113 280.766C474.592 280.479 474.967 280.086 475.238 279.586C475.514 279.086 475.652 278.516 475.652 277.875C475.652 277.224 475.511 276.643 475.23 276.133C474.949 275.622 474.561 275.221 474.066 274.93C473.577 274.638 473.014 274.49 472.379 274.484C471.894 274.484 471.407 274.568 470.918 274.734C470.428 274.901 470.032 275.12 469.73 275.391L467.519 275.062L468.418 267H477.215V269.07H470.425L469.918 273.547H470.011C470.324 273.245 470.738 272.992 471.254 272.789C471.774 272.586 472.332 272.484 472.925 272.484C473.899 272.484 474.767 272.716 475.527 273.18C476.293 273.643 476.894 274.276 477.332 275.078C477.774 275.875 477.993 276.792 477.988 277.828C477.993 278.865 477.759 279.789 477.285 280.602C476.816 281.414 476.165 282.055 475.332 282.523C474.504 282.987 473.553 283.219 472.48 283.219ZM486.025 283.219C484.905 283.219 483.916 283.026 483.056 282.641C482.202 282.255 481.533 281.724 481.049 281.047C480.564 280.37 480.325 279.599 480.33 278.734C480.325 278.057 480.463 277.435 480.744 276.867C481.03 276.294 481.418 275.818 481.908 275.438C482.398 275.052 482.944 274.807 483.549 274.703V274.609C482.752 274.417 482.114 273.99 481.635 273.328C481.155 272.667 480.918 271.906 480.924 271.047C480.918 270.229 481.135 269.5 481.572 268.859C482.015 268.214 482.622 267.706 483.392 267.336C484.163 266.966 485.041 266.781 486.025 266.781C486.999 266.781 487.869 266.969 488.635 267.344C489.405 267.714 490.012 268.221 490.455 268.867C490.898 269.508 491.122 270.234 491.127 271.047C491.122 271.906 490.877 272.667 490.392 273.328C489.908 273.99 489.278 274.417 488.502 274.609V274.703C489.101 274.807 489.64 275.052 490.119 275.438C490.603 275.818 490.989 276.294 491.275 276.867C491.567 277.435 491.715 278.057 491.721 278.734C491.715 279.599 491.471 280.37 490.986 281.047C490.502 281.724 489.83 282.255 488.971 282.641C488.116 283.026 487.135 283.219 486.025 283.219ZM486.025 281.242C486.687 281.242 487.26 281.133 487.744 280.914C488.228 280.69 488.603 280.38 488.869 279.984C489.135 279.583 489.27 279.115 489.275 278.578C489.27 278.021 489.124 277.529 488.838 277.102C488.556 276.674 488.174 276.339 487.689 276.094C487.205 275.849 486.65 275.727 486.025 275.727C485.395 275.727 484.835 275.849 484.346 276.094C483.856 276.339 483.471 276.674 483.189 277.102C482.908 277.529 482.77 278.021 482.775 278.578C482.77 279.115 482.898 279.583 483.158 279.984C483.424 280.38 483.801 280.69 484.291 280.914C484.78 281.133 485.359 281.242 486.025 281.242ZM486.025 273.797C486.556 273.797 487.028 273.69 487.439 273.477C487.851 273.263 488.174 272.966 488.408 272.586C488.648 272.206 488.77 271.76 488.775 271.25C488.77 270.75 488.65 270.313 488.416 269.938C488.187 269.562 487.866 269.273 487.455 269.07C487.043 268.862 486.567 268.758 486.025 268.758C485.473 268.758 484.989 268.862 484.572 269.07C484.161 269.273 483.84 269.562 483.611 269.938C483.382 270.313 483.27 270.75 483.275 271.25C483.27 271.76 483.385 272.206 483.619 272.586C483.853 272.966 484.176 273.263 484.588 273.477C485.004 273.69 485.484 273.797 486.025 273.797ZM496.894 280.812L496.777 281.664C496.699 282.289 496.566 282.94 496.379 283.617C496.197 284.299 496.006 284.932 495.808 285.516C495.616 286.099 495.457 286.563 495.332 286.906H493.676C493.743 286.583 493.837 286.146 493.957 285.594C494.077 285.047 494.194 284.435 494.308 283.758C494.423 283.081 494.509 282.391 494.566 281.687L494.644 280.812H496.894ZM504.93 283.219C503.857 283.219 502.898 283.034 502.055 282.664C501.216 282.294 500.552 281.781 500.063 281.125C499.578 280.464 499.318 279.698 499.281 278.828H501.734C501.766 279.302 501.924 279.714 502.211 280.062C502.503 280.406 502.883 280.672 503.352 280.859C503.82 281.047 504.341 281.141 504.914 281.141C505.544 281.141 506.102 281.031 506.586 280.812C507.076 280.594 507.458 280.289 507.734 279.898C508.01 279.503 508.148 279.047 508.148 278.531C508.148 277.995 508.01 277.523 507.734 277.117C507.464 276.706 507.065 276.383 506.539 276.148C506.018 275.914 505.388 275.797 504.648 275.797H503.297V273.828H504.648C505.242 273.828 505.763 273.721 506.211 273.508C506.664 273.294 507.018 272.997 507.273 272.617C507.529 272.232 507.656 271.781 507.656 271.266C507.656 270.771 507.544 270.341 507.32 269.977C507.102 269.607 506.789 269.318 506.383 269.109C505.982 268.901 505.508 268.797 504.961 268.797C504.44 268.797 503.953 268.893 503.5 269.086C503.052 269.273 502.688 269.544 502.406 269.898C502.125 270.247 501.974 270.667 501.953 271.156H499.617C499.643 270.292 499.898 269.531 500.383 268.875C500.872 268.219 501.518 267.706 502.32 267.336C503.122 266.966 504.013 266.781 504.992 266.781C506.018 266.781 506.904 266.982 507.648 267.383C508.398 267.779 508.977 268.307 509.383 268.969C509.794 269.63 509.997 270.354 509.992 271.141C509.997 272.036 509.747 272.797 509.242 273.422C508.742 274.047 508.076 274.466 507.242 274.68V274.805C508.305 274.966 509.128 275.388 509.711 276.07C510.299 276.753 510.591 277.599 510.586 278.609C510.591 279.49 510.346 280.279 509.852 280.977C509.362 281.674 508.693 282.224 507.844 282.625C506.995 283.021 506.023 283.219 504.93 283.219Z" fill="#CFCFCF"/>
<rect x="40" y="437" width="1000" height="295" rx="20" fill="#F7F7F7"/>
<path opacity="0.6" d="M56.2912 469V455.909H61.2003C62.206 455.909 63.0497 456.097 63.7315 456.472C64.4176 456.847 64.9354 457.362 65.2848 458.018C65.6385 458.67 65.8153 459.412 65.8153 460.243C65.8153 461.082 65.6385 461.828 65.2848 462.48C64.9311 463.132 64.4091 463.646 63.7188 464.021C63.0284 464.391 62.1783 464.577 61.1683 464.577H57.9148V462.627H60.8487C61.4368 462.627 61.9183 462.525 62.2933 462.32C62.6683 462.116 62.9453 461.835 63.1243 461.477C63.3075 461.119 63.3991 460.707 63.3991 460.243C63.3991 459.778 63.3075 459.369 63.1243 459.016C62.9453 458.662 62.6662 458.387 62.2869 458.191C61.9119 457.991 61.4283 457.891 60.8359 457.891H58.6626V469H56.2912ZM69.6752 469V455.909H78.1894V457.897H72.0466V461.451H77.7483V463.439H72.0466V467.012H78.2405V469H69.6752ZM90.8271 455.909V457.897H84.7802V469H82.4088V455.909H90.8271ZM94.6326 455.909H96.9849V464.832H97.1063L103.262 455.909H105.39V469H103.019V460.083H102.91L96.7356 469H94.6326V455.909ZM121.472 462.455C121.472 463.865 121.208 465.073 120.679 466.079C120.155 467.08 119.439 467.847 118.531 468.38C117.628 468.913 116.603 469.179 115.457 469.179C114.311 469.179 113.284 468.913 112.376 468.38C111.473 467.843 110.757 467.074 110.228 466.072C109.704 465.067 109.442 463.861 109.442 462.455C109.442 461.044 109.704 459.838 110.228 458.837C110.757 457.831 111.473 457.062 112.376 456.529C113.284 455.996 114.311 455.73 115.457 455.73C116.603 455.73 117.628 455.996 118.531 456.529C119.439 457.062 120.155 457.831 120.679 458.837C121.208 459.838 121.472 461.044 121.472 462.455ZM119.088 462.455C119.088 461.462 118.932 460.624 118.621 459.942C118.314 459.256 117.888 458.739 117.343 458.389C116.797 458.036 116.169 457.859 115.457 457.859C114.745 457.859 114.117 458.036 113.571 458.389C113.026 458.739 112.598 459.256 112.286 459.942C111.98 460.624 111.826 461.462 111.826 462.455C111.826 463.447 111.98 464.287 112.286 464.973C112.598 465.655 113.026 466.173 113.571 466.526C114.117 466.876 114.745 467.05 115.457 467.05C116.169 467.05 116.797 466.876 117.343 466.526C117.888 466.173 118.314 465.655 118.621 464.973C118.932 464.287 119.088 463.447 119.088 462.455ZM125.514 469V455.909H127.885V461.451H133.951V455.909H136.329V469H133.951V463.439H127.885V469H125.514ZM142.313 460.965H145.637C146.638 460.965 147.497 461.129 148.213 461.457C148.933 461.781 149.485 462.239 149.868 462.832C150.252 463.424 150.443 464.121 150.443 464.922C150.443 465.727 150.252 466.437 149.868 467.05C149.485 467.66 148.933 468.137 148.213 468.482C147.497 468.827 146.638 469 145.637 469H140.734V455.909H143.112V467.057H145.637C146.165 467.057 146.613 466.957 146.979 466.756C147.345 466.556 147.622 466.292 147.81 465.964C148.002 465.636 148.098 465.28 148.098 464.896C148.098 464.342 147.885 463.871 147.458 463.484C147.037 463.092 146.429 462.896 145.637 462.896H142.313V460.965ZM153.953 455.909V469H151.575V455.909H153.953Z" fill="black"/>
<path opacity="0.4" d="M55 685.5H1019.96V612C1025.69 612 421.5 593.5 421.5 593.5L55 556V685.5Z" fill="url(#paint1_linear_2662_1085)"/>
<rect x="1015.19" y="606" width="10.2717" height="10.2717" rx="5.13587" fill="#CACACA"/>
<path d="M1018.5 612L422 593L54.9999 555.5" stroke="#CACACA" stroke-width="4"/>
<path d="M877.074 670.443V694.801L867.989 685.682L864 689.636L879.955 705.557L895.875 689.636L891.955 685.682L882.835 694.801V670.443H877.074Z" fill="#CACACA"/>
<path d="M877.074 670.443V694.801L867.989 685.682L864 689.636L879.955 705.557L895.875 689.636L891.955 685.682L882.835 694.801V670.443H877.074Z" fill="#FF7474"/>
<path d="M920.468 669.614C922.263 669.614 923.991 669.915 925.65 670.517C927.32 671.119 928.809 672.08 930.116 673.398C931.434 674.716 932.474 676.466 933.235 678.648C934.008 680.818 934.4 683.483 934.411 686.642C934.411 689.608 934.076 692.256 933.406 694.585C932.746 696.903 931.798 698.875 930.559 700.5C929.32 702.125 927.826 703.364 926.076 704.216C924.326 705.057 922.371 705.477 920.212 705.477C917.883 705.477 915.826 705.028 914.042 704.131C912.258 703.222 910.82 701.989 909.729 700.432C908.65 698.864 907.996 697.102 907.769 695.148H915.048C915.332 696.42 915.928 697.409 916.837 698.114C917.746 698.807 918.871 699.153 920.212 699.153C922.485 699.153 924.212 698.165 925.394 696.188C926.576 694.199 927.173 691.477 927.184 688.023H926.945C926.423 689.045 925.718 689.926 924.832 690.665C923.945 691.392 922.928 691.955 921.781 692.352C920.644 692.75 919.434 692.949 918.15 692.949C916.093 692.949 914.258 692.466 912.644 691.5C911.031 690.534 909.758 689.205 908.826 687.511C907.894 685.818 907.428 683.886 907.428 681.716C907.417 679.375 907.957 677.29 909.048 675.46C910.138 673.631 911.661 672.199 913.616 671.165C915.582 670.119 917.866 669.602 920.468 669.614ZM920.519 675.409C919.371 675.409 918.349 675.682 917.451 676.227C916.565 676.773 915.86 677.506 915.337 678.426C914.826 679.347 914.576 680.375 914.587 681.511C914.587 682.659 914.837 683.693 915.337 684.614C915.849 685.523 916.542 686.25 917.417 686.795C918.303 687.33 919.315 687.597 920.451 687.597C921.303 687.597 922.093 687.437 922.82 687.119C923.548 686.801 924.178 686.364 924.712 685.807C925.258 685.239 925.684 684.585 925.991 683.847C926.298 683.108 926.451 682.324 926.451 681.494C926.44 680.392 926.178 679.381 925.667 678.46C925.156 677.54 924.451 676.801 923.553 676.244C922.656 675.687 921.644 675.409 920.519 675.409ZM945.587 700.227L945.399 702.102C945.251 703.602 944.967 705.097 944.547 706.585C944.138 708.085 943.706 709.443 943.251 710.659C942.808 711.875 942.45 712.83 942.178 713.523H937.473C937.643 712.852 937.876 711.915 938.172 710.71C938.467 709.517 938.746 708.176 939.007 706.688C939.268 705.199 939.433 703.682 939.501 702.136L939.587 700.227H945.587ZM963.657 705.477C961.862 705.466 960.129 705.165 958.458 704.574C956.799 703.983 955.31 703.023 953.992 701.693C952.674 700.364 951.629 698.602 950.856 696.409C950.094 694.216 949.714 691.523 949.714 688.33C949.725 685.398 950.06 682.778 950.719 680.472C951.39 678.153 952.344 676.187 953.583 674.574C954.833 672.96 956.327 671.733 958.066 670.892C959.805 670.04 961.754 669.614 963.913 669.614C966.242 669.614 968.299 670.068 970.083 670.977C971.867 671.875 973.299 673.097 974.379 674.642C975.469 676.188 976.129 677.92 976.356 679.841H969.077C968.793 678.625 968.197 677.67 967.288 676.977C966.379 676.284 965.254 675.938 963.913 675.938C961.64 675.938 959.913 676.926 958.731 678.903C957.56 680.881 956.964 683.568 956.941 686.966H957.18C957.702 685.932 958.407 685.051 959.293 684.324C960.191 683.585 961.208 683.023 962.344 682.636C963.492 682.239 964.702 682.04 965.975 682.04C968.043 682.04 969.884 682.528 971.498 683.506C973.112 684.472 974.384 685.801 975.316 687.494C976.248 689.187 976.714 691.125 976.714 693.307C976.714 695.67 976.163 697.773 975.06 699.614C973.969 701.455 972.441 702.898 970.475 703.943C968.521 704.977 966.248 705.489 963.657 705.477ZM963.623 699.682C964.759 699.682 965.776 699.409 966.674 698.864C967.572 698.318 968.276 697.58 968.788 696.648C969.299 695.716 969.555 694.67 969.555 693.511C969.555 692.352 969.299 691.312 968.788 690.392C968.288 689.472 967.594 688.739 966.708 688.193C965.822 687.648 964.81 687.375 963.674 687.375C962.822 687.375 962.032 687.534 961.305 687.852C960.589 688.17 959.958 688.614 959.413 689.182C958.879 689.75 958.458 690.409 958.151 691.159C957.844 691.898 957.691 692.687 957.691 693.528C957.691 694.653 957.947 695.682 958.458 696.614C958.981 697.545 959.685 698.29 960.572 698.847C961.469 699.403 962.487 699.682 963.623 699.682ZM1000.56 698.455V696.614C1000.56 695.216 1000.86 693.932 1001.45 692.761C1002.05 691.58 1002.92 690.636 1004.06 689.932C1005.2 689.216 1006.6 688.858 1008.25 688.858C1009.92 688.858 1011.32 689.21 1012.46 689.915C1013.61 690.619 1014.47 691.562 1015.05 692.744C1015.64 693.915 1015.94 695.205 1015.94 696.614V698.455C1015.94 699.852 1015.64 701.142 1015.05 702.324C1014.46 703.494 1013.59 704.432 1012.44 705.136C1011.3 705.852 1009.9 706.21 1008.25 706.21C1006.58 706.21 1005.18 705.852 1004.04 705.136C1002.9 704.432 1002.04 703.494 1001.45 702.324C1000.86 701.142 1000.56 699.852 1000.56 698.455ZM1005.52 696.614V698.455C1005.52 699.261 1005.72 700.023 1006.1 700.739C1006.5 701.455 1007.22 701.812 1008.25 701.812C1009.28 701.812 1009.99 701.46 1010.36 700.756C1010.75 700.051 1010.94 699.284 1010.94 698.455V696.614C1010.94 695.784 1010.76 695.011 1010.4 694.295C1010.03 693.58 1009.32 693.222 1008.25 693.222C1007.23 693.222 1006.52 693.58 1006.12 694.295C1005.72 695.011 1005.52 695.784 1005.52 696.614ZM982.648 678.477V676.636C982.648 675.227 982.949 673.937 983.551 672.767C984.153 671.585 985.023 670.642 986.159 669.938C987.307 669.233 988.693 668.881 990.318 668.881C992 668.881 993.409 669.233 994.545 669.938C995.682 670.642 996.545 671.585 997.136 672.767C997.727 673.937 998.023 675.227 998.023 676.636V678.477C998.023 679.886 997.722 681.176 997.119 682.347C996.528 683.517 995.659 684.455 994.511 685.159C993.375 685.852 991.977 686.199 990.318 686.199C988.659 686.199 987.256 685.847 986.108 685.142C984.972 684.426 984.108 683.489 983.517 682.33C982.938 681.159 982.648 679.875 982.648 678.477ZM987.642 676.636V678.477C987.642 679.307 987.835 680.074 988.222 680.778C988.619 681.483 989.318 681.835 990.318 681.835C991.364 681.835 992.074 681.483 992.449 680.778C992.835 680.074 993.028 679.307 993.028 678.477V676.636C993.028 675.807 992.847 675.034 992.483 674.318C992.119 673.602 991.398 673.244 990.318 673.244C989.307 673.244 988.608 673.608 988.222 674.335C987.835 675.062 987.642 675.83 987.642 676.636ZM984.898 705L1008.9 670.091H1013.36L989.364 705H984.898Z" fill="black"/>
<path d="M61.8203 542.219C60.8411 542.219 59.9609 542.031 59.1797 541.656C58.4036 541.276 57.7839 540.755 57.3203 540.094C56.8568 539.432 56.6094 538.677 56.5781 537.828H58.9219C58.9792 538.516 59.2839 539.081 59.8359 539.523C60.388 539.966 61.0495 540.187 61.8203 540.187C62.4349 540.187 62.9792 540.047 63.4531 539.766C63.9323 539.479 64.3073 539.086 64.5781 538.586C64.8542 538.086 64.9922 537.516 64.9922 536.875C64.9922 536.224 64.8516 535.643 64.5703 535.133C64.2891 534.622 63.901 534.221 63.4063 533.93C62.9167 533.638 62.3542 533.49 61.7188 533.484C61.2344 533.484 60.7474 533.568 60.2578 533.734C59.7682 533.901 59.3724 534.12 59.0703 534.391L56.8594 534.062L57.7578 526H66.5547V528.07H59.7656L59.2578 532.547H59.3516C59.6641 532.245 60.0781 531.992 60.5938 531.789C61.1146 531.586 61.6719 531.484 62.2656 531.484C63.2396 531.484 64.1068 531.716 64.8672 532.18C65.6328 532.643 66.2344 533.276 66.6719 534.078C67.1146 534.875 67.3333 535.792 67.3281 536.828C67.3333 537.865 67.099 538.789 66.625 539.602C66.1563 540.414 65.5052 541.055 64.6719 541.523C63.8438 541.987 62.8932 542.219 61.8203 542.219ZM75.545 542.219C74.8315 542.208 74.1284 542.078 73.4356 541.828C72.7481 541.578 72.1231 541.161 71.5606 540.578C70.9981 539.995 70.5476 539.211 70.2091 538.227C69.8758 537.242 69.7091 536.013 69.7091 534.539C69.7091 533.143 69.8471 531.904 70.1231 530.82C70.4044 529.737 70.808 528.823 71.3341 528.078C71.8601 527.328 72.4955 526.758 73.2403 526.367C73.9851 525.977 74.8211 525.781 75.7481 525.781C76.7013 525.781 77.5476 525.969 78.2872 526.344C79.0268 526.719 79.6258 527.237 80.0841 527.898C80.5476 528.56 80.8419 529.312 80.9669 530.156H78.5841C78.4226 529.49 78.1023 528.945 77.6231 528.523C77.144 528.102 76.519 527.891 75.7481 527.891C74.5763 527.891 73.6622 528.401 73.006 529.422C72.3549 530.443 72.0268 531.862 72.0216 533.68H72.1388C72.4148 533.227 72.7534 532.841 73.1544 532.523C73.5606 532.201 74.0138 531.953 74.5138 531.781C75.019 531.604 75.5502 531.516 76.1075 531.516C77.0346 531.516 77.8731 531.742 78.6231 532.195C79.3784 532.643 79.9799 533.263 80.4278 534.055C80.8758 534.846 81.0997 535.753 81.0997 536.773C81.0997 537.794 80.8679 538.719 80.4044 539.547C79.9461 540.375 79.3002 541.031 78.4669 541.516C77.6336 541.995 76.6596 542.229 75.545 542.219ZM75.5372 540.187C76.1518 540.187 76.7013 540.036 77.1856 539.734C77.67 539.432 78.0528 539.026 78.3341 538.516C78.6153 538.005 78.756 537.435 78.756 536.805C78.756 536.19 78.6179 535.63 78.3419 535.125C78.0711 534.62 77.6961 534.219 77.2169 533.922C76.7429 533.625 76.2013 533.477 75.5919 533.477C75.1284 533.477 74.6987 533.565 74.3028 533.742C73.9122 533.919 73.5685 534.164 73.2716 534.477C72.9747 534.789 72.7403 535.148 72.5685 535.555C72.4018 535.956 72.3185 536.38 72.3185 536.828C72.3185 537.427 72.4565 537.982 72.7325 538.492C73.0138 539.003 73.3966 539.414 73.881 539.727C74.3705 540.034 74.9226 540.187 75.5372 540.187ZM86.0627 539.812L85.9455 540.664C85.8674 541.289 85.7346 541.94 85.5471 542.617C85.3648 543.299 85.1747 543.932 84.9768 544.516C84.7841 545.099 84.6252 545.563 84.5002 545.906H82.844C82.9117 545.583 83.0054 545.146 83.1252 544.594C83.245 544.047 83.3622 543.435 83.4768 542.758C83.5914 542.081 83.6773 541.391 83.7346 540.687L83.8127 539.812H86.0627ZM93.9769 542.219C92.8571 542.219 91.8675 542.026 91.0081 541.641C90.154 541.255 89.4847 540.724 89.0003 540.047C88.5159 539.37 88.2763 538.599 88.2816 537.734C88.2763 537.057 88.4144 536.435 88.6956 535.867C88.9821 535.294 89.3701 534.818 89.8597 534.438C90.3493 534.052 90.8961 533.807 91.5003 533.703V533.609C90.7034 533.417 90.0654 532.99 89.5862 532.328C89.1071 531.667 88.8701 530.906 88.8753 530.047C88.8701 529.229 89.0862 528.5 89.5237 527.859C89.9665 527.214 90.5732 526.706 91.3441 526.336C92.1149 525.966 92.9925 525.781 93.9769 525.781C94.9508 525.781 95.8206 525.969 96.5862 526.344C97.3571 526.714 97.9638 527.221 98.4066 527.867C98.8493 528.508 99.0732 529.234 99.0784 530.047C99.0732 530.906 98.8284 531.667 98.3441 532.328C97.8597 532.99 97.2295 533.417 96.4534 533.609V533.703C97.0524 533.807 97.5915 534.052 98.0706 534.438C98.555 534.818 98.9404 535.294 99.2269 535.867C99.5185 536.435 99.667 537.057 99.6722 537.734C99.667 538.599 99.4222 539.37 98.9378 540.047C98.4534 540.724 97.7816 541.255 96.9222 541.641C96.068 542.026 95.0862 542.219 93.9769 542.219ZM93.9769 540.242C94.6383 540.242 95.2112 540.133 95.6956 539.914C96.18 539.69 96.555 539.38 96.8206 538.984C97.0862 538.583 97.2217 538.115 97.2269 537.578C97.2217 537.021 97.0758 536.529 96.7894 536.102C96.5081 535.674 96.1253 535.339 95.6409 535.094C95.1566 534.849 94.6019 534.727 93.9769 534.727C93.3467 534.727 92.7868 534.849 92.2972 535.094C91.8076 535.339 91.4222 535.674 91.1409 536.102C90.8597 536.529 90.7217 537.021 90.7269 537.578C90.7217 538.115 90.8493 538.583 91.1097 538.984C91.3753 539.38 91.7529 539.69 92.2425 539.914C92.7321 540.133 93.3102 540.242 93.9769 540.242ZM93.9769 532.797C94.5081 532.797 94.9795 532.69 95.3909 532.477C95.8024 532.263 96.1253 531.966 96.3597 531.586C96.5993 531.206 96.7217 530.76 96.7269 530.25C96.7217 529.75 96.6019 529.313 96.3675 528.938C96.1383 528.562 95.818 528.273 95.4066 528.07C94.9951 527.862 94.5185 527.758 93.9769 527.758C93.4248 527.758 92.9404 527.862 92.5237 528.07C92.1123 528.273 91.792 528.562 91.5628 528.938C91.3336 529.313 91.2217 529.75 91.2269 530.25C91.2217 530.76 91.3362 531.206 91.5706 531.586C91.805 531.966 92.1279 532.263 92.5394 532.477C92.956 532.69 93.4352 532.797 93.9769 532.797Z" fill="#CFCFCF"/>
<path d="M978.656 592.875V590.922L985.57 580H987.109V582.875H986.133L981.187 590.703V590.828H990.664V592.875H978.656ZM986.242 596V592.281L986.258 591.391V580H988.547V596H986.242ZM993.703 596L1000.69 582.187V582.07H992.609V580H1003.19V582.141L996.226 596H993.703ZM1006 593.812L1005.88 594.664C1005.81 595.289 1005.67 595.94 1005.49 596.617C1005.3 597.299 1005.11 597.932 1004.92 598.516C1004.72 599.099 1004.56 599.563 1004.44 599.906H1002.78C1002.85 599.583 1002.94 599.146 1003.06 598.594C1003.18 598.047 1003.3 597.435 1003.42 596.758C1003.53 596.081 1003.62 595.391 1003.67 594.687L1003.75 593.812H1006ZM1009.05 596V594.25L1014.46 588.641C1015.04 588.031 1015.52 587.497 1015.89 587.039C1016.27 586.576 1016.55 586.135 1016.74 585.719C1016.93 585.302 1017.02 584.859 1017.02 584.391C1017.02 583.859 1016.9 583.401 1016.65 583.016C1016.4 582.625 1016.06 582.326 1015.63 582.117C1015.19 581.904 1014.71 581.797 1014.16 581.797C1013.59 581.797 1013.09 581.914 1012.66 582.148C1012.24 582.383 1011.91 582.714 1011.68 583.141C1011.45 583.568 1011.34 584.068 1011.34 584.641H1009.03C1009.03 583.667 1009.26 582.815 1009.7 582.086C1010.15 581.357 1010.77 580.792 1011.55 580.391C1012.33 579.984 1013.22 579.781 1014.21 579.781C1015.22 579.781 1016.1 579.982 1016.87 580.383C1017.64 580.779 1018.24 581.32 1018.67 582.008C1019.1 582.69 1019.32 583.461 1019.32 584.32C1019.32 584.914 1019.21 585.495 1018.98 586.062C1018.77 586.63 1018.38 587.263 1017.84 587.961C1017.29 588.654 1016.53 589.495 1015.55 590.484L1012.38 593.812V593.93H1019.58V596H1009.05Z" fill="#CFCFCF"/>
<rect x="549" y="124" width="491" height="295" rx="20" fill="#F7F7F7"/>
<path opacity="0.6" d="M576.496 147.326H574.106C574.038 146.934 573.912 146.587 573.729 146.284C573.545 145.977 573.317 145.717 573.045 145.504C572.772 145.291 572.461 145.131 572.112 145.025C571.766 144.914 571.393 144.859 570.993 144.859C570.281 144.859 569.651 145.038 569.101 145.396C568.551 145.749 568.121 146.269 567.81 146.955C567.499 147.637 567.343 148.47 567.343 149.455C567.343 150.456 567.499 151.3 567.81 151.986C568.125 152.668 568.555 153.183 569.101 153.533C569.651 153.878 570.279 154.05 570.987 154.05C571.379 154.05 571.745 153.999 572.086 153.897C572.431 153.79 572.74 153.635 573.013 153.43C573.29 153.226 573.522 152.974 573.71 152.676C573.901 152.378 574.033 152.037 574.106 151.653L576.496 151.666C576.407 152.288 576.213 152.872 575.915 153.418C575.621 153.963 575.235 154.445 574.758 154.862C574.281 155.276 573.722 155.599 573.083 155.834C572.444 156.064 571.734 156.179 570.955 156.179C569.804 156.179 568.777 155.913 567.874 155.38C566.97 154.847 566.259 154.078 565.739 153.072C565.219 152.067 564.959 150.861 564.959 149.455C564.959 148.044 565.221 146.838 565.745 145.837C566.269 144.831 566.983 144.062 567.886 143.529C568.79 142.996 569.813 142.73 570.955 142.73C571.683 142.73 572.361 142.832 572.987 143.037C573.614 143.241 574.172 143.542 574.662 143.938C575.152 144.33 575.555 144.812 575.87 145.383C576.19 145.95 576.398 146.597 576.496 147.326ZM581.991 156H579.46L584.068 142.909H586.996L591.611 156H589.08L585.583 145.594H585.481L581.991 156ZM582.074 150.867H588.978V152.772H582.074V150.867ZM595.135 156V142.909H597.507V148.451H603.573V142.909H605.951V156H603.573V150.439H597.507V156H595.135ZM618.173 156L613.865 150.279H612.701V156H610.33V142.909H612.701V148.291H613.296L617.949 142.909H620.87L615.699 148.879L621.094 156H618.173ZM623.93 144.897V142.909H634.374V144.897H630.328V156H627.976V144.897H623.93ZM643.228 148.502V150.407H637.334V148.502H643.228ZM658.245 142.909V156H655.893V144.878H650.165V156H647.813V142.909H658.245ZM662.881 156V142.909H671.396V144.897H665.253V148.451H670.955V150.439H665.253V154.012H671.447V156H662.881ZM675.04 144.897V142.909H685.484V144.897H681.438V156H679.086V144.897H675.04ZM689.298 156V142.909H697.812V144.897H691.669V148.451H697.371V150.439H691.669V154.012H697.863V156H689.298ZM702.031 156V142.909H706.941C707.946 142.909 708.79 143.097 709.472 143.472C710.158 143.847 710.676 144.362 711.025 145.018C711.379 145.67 711.556 146.412 711.556 147.243C711.556 148.082 711.379 148.828 711.025 149.48C710.671 150.132 710.149 150.646 709.459 151.021C708.769 151.391 707.919 151.577 706.909 151.577H703.655V149.627H706.589C707.177 149.627 707.659 149.525 708.034 149.32C708.409 149.116 708.686 148.835 708.865 148.477C709.048 148.119 709.139 147.707 709.139 147.243C709.139 146.778 709.048 146.369 708.865 146.016C708.686 145.662 708.406 145.387 708.027 145.191C707.652 144.991 707.169 144.891 706.576 144.891H704.403V156H702.031ZM715.415 156V142.909H723.834V144.897H717.787V147.965H720.312C721.313 147.965 722.172 148.129 722.888 148.457C723.608 148.781 724.16 149.239 724.543 149.832C724.927 150.424 725.119 151.121 725.119 151.922C725.119 152.727 724.927 153.437 724.543 154.05C724.16 154.66 723.608 155.137 722.888 155.482C722.172 155.827 721.313 156 720.312 156H715.415ZM717.787 154.057H720.312C720.84 154.057 721.288 153.957 721.654 153.756C722.021 153.556 722.298 153.292 722.485 152.964C722.677 152.636 722.773 152.28 722.773 151.896C722.773 151.342 722.56 150.871 722.133 150.484C721.712 150.092 721.104 149.896 720.312 149.896H717.787V154.057ZM730.163 156.179V154.185H730.91C731.247 154.185 731.524 154.136 731.741 154.038C731.959 153.94 732.133 153.799 732.265 153.616C732.402 153.433 732.515 153.219 732.604 152.977L732.777 152.536L728.098 142.909H730.578L733.838 149.915L736.657 142.909H739.099L734.586 153.584C734.377 154.044 734.136 154.472 733.864 154.869C733.591 155.261 733.235 155.578 732.796 155.821C732.361 156.06 731.795 156.179 731.096 156.179H730.163ZM742.588 156V142.909H747.497C748.502 142.909 749.346 143.097 750.028 143.472C750.714 143.847 751.232 144.362 751.581 145.018C751.935 145.67 752.112 146.412 752.112 147.243C752.112 148.082 751.935 148.828 751.581 149.48C751.228 150.132 750.706 150.646 750.015 151.021C749.325 151.391 748.475 151.577 747.465 151.577H744.211V149.627H747.145C747.733 149.627 748.215 149.525 748.59 149.32C748.965 149.116 749.242 148.835 749.421 148.477C749.604 148.119 749.696 147.707 749.696 147.243C749.696 146.778 749.604 146.369 749.421 146.016C749.242 145.662 748.963 145.387 748.583 145.191C748.208 144.991 747.725 144.891 747.132 144.891H744.959V156H742.588ZM764.39 142.909V144.897H758.343V156H755.972V142.909H764.39Z" fill="black"/>
<path opacity="0.4" d="M564 372.5H1019.99V299C1022.7 299 776 278.5 776 278.5L564 243V372.5Z" fill="url(#paint2_linear_2662_1085)"/>
<rect x="1015.19" y="293" width="10.2717" height="10.2717" rx="5.13587" fill="#CACACA"/>
<path d="M1018.5 299L779 278.5L564 242.5" stroke="#CACACA" stroke-width="4"/>
<path d="M852.074 357.443V381.801L842.989 372.682L839 376.636L854.955 392.557L870.875 376.636L866.955 372.682L857.835 381.801V357.443H852.074Z" fill="#CACACA"/>
<path d="M852.074 357.443V381.801L842.989 372.682L839 376.636L854.955 392.557L870.875 376.636L866.955 372.682L857.835 381.801V357.443H852.074Z" fill="#FF7474"/>
<path d="M898.72 357.091V392H891.339V364.097H891.135L883.141 369.108V362.562L891.783 357.091H898.72ZM920.212 392.767C917.281 392.756 914.758 392.034 912.644 390.602C910.542 389.17 908.923 387.097 907.786 384.381C906.661 381.665 906.104 378.398 906.116 374.58C906.116 370.773 906.678 367.528 907.803 364.847C908.94 362.165 910.559 360.125 912.661 358.727C914.775 357.318 917.292 356.614 920.212 356.614C923.133 356.614 925.644 357.318 927.746 358.727C929.86 360.136 931.485 362.182 932.621 364.864C933.758 367.534 934.32 370.773 934.309 374.58C934.309 378.409 933.741 381.682 932.604 384.398C931.479 387.114 929.866 389.187 927.763 390.619C925.661 392.051 923.144 392.767 920.212 392.767ZM920.212 386.648C922.212 386.648 923.809 385.642 925.002 383.631C926.195 381.619 926.786 378.602 926.775 374.58C926.775 371.932 926.502 369.727 925.957 367.966C925.423 366.205 924.661 364.881 923.673 363.994C922.695 363.108 921.542 362.665 920.212 362.665C918.224 362.665 916.633 363.659 915.44 365.648C914.246 367.636 913.644 370.614 913.633 374.58C913.633 377.261 913.9 379.5 914.434 381.295C914.979 383.08 915.746 384.42 916.735 385.318C917.724 386.205 918.883 386.648 920.212 386.648ZM945.634 387.227L945.446 389.102C945.298 390.602 945.014 392.097 944.594 393.585C944.185 395.085 943.753 396.443 943.298 397.659C942.855 398.875 942.497 399.83 942.224 400.523H937.52C937.69 399.852 937.923 398.915 938.219 397.71C938.514 396.517 938.793 395.176 939.054 393.688C939.315 392.199 939.48 390.682 939.548 389.136L939.634 387.227H945.634ZM951.712 392V386.682L964.138 375.176C965.195 374.153 966.082 373.233 966.798 372.415C967.525 371.597 968.076 370.795 968.451 370.011C968.826 369.216 969.013 368.358 969.013 367.438C969.013 366.415 968.781 365.534 968.315 364.795C967.849 364.045 967.212 363.472 966.406 363.074C965.599 362.665 964.684 362.46 963.661 362.46C962.593 362.46 961.661 362.676 960.866 363.108C960.07 363.54 959.457 364.159 959.025 364.966C958.593 365.773 958.377 366.733 958.377 367.847H951.371C951.371 365.562 951.888 363.58 952.923 361.898C953.957 360.216 955.406 358.915 957.269 357.994C959.133 357.074 961.281 356.614 963.712 356.614C966.212 356.614 968.388 357.057 970.241 357.943C972.104 358.818 973.553 360.034 974.587 361.591C975.621 363.148 976.138 364.932 976.138 366.943C976.138 368.261 975.877 369.562 975.354 370.847C974.843 372.131 973.928 373.557 972.61 375.125C971.292 376.682 969.434 378.551 967.036 380.733L961.94 385.727V385.966H976.599V392H951.712ZM1000.56 385.455V383.614C1000.56 382.216 1000.86 380.932 1001.45 379.761C1002.05 378.58 1002.92 377.636 1004.06 376.932C1005.2 376.216 1006.6 375.858 1008.25 375.858C1009.92 375.858 1011.32 376.21 1012.46 376.915C1013.61 377.619 1014.47 378.562 1015.05 379.744C1015.64 380.915 1015.94 382.205 1015.94 383.614V385.455C1015.94 386.852 1015.64 388.142 1015.05 389.324C1014.46 390.494 1013.59 391.432 1012.44 392.136C1011.3 392.852 1009.9 393.21 1008.25 393.21C1006.58 393.21 1005.18 392.852 1004.04 392.136C1002.9 391.432 1002.04 390.494 1001.45 389.324C1000.86 388.142 1000.56 386.852 1000.56 385.455ZM1005.52 383.614V385.455C1005.52 386.261 1005.72 387.023 1006.1 387.739C1006.5 388.455 1007.22 388.812 1008.25 388.812C1009.28 388.812 1009.99 388.46 1010.36 387.756C1010.75 387.051 1010.94 386.284 1010.94 385.455V383.614C1010.94 382.784 1010.76 382.011 1010.4 381.295C1010.03 380.58 1009.32 380.222 1008.25 380.222C1007.23 380.222 1006.52 380.58 1006.12 381.295C1005.72 382.011 1005.52 382.784 1005.52 383.614ZM982.648 365.477V363.636C982.648 362.227 982.949 360.937 983.551 359.767C984.153 358.585 985.023 357.642 986.159 356.938C987.307 356.233 988.693 355.881 990.318 355.881C992 355.881 993.409 356.233 994.545 356.938C995.682 357.642 996.545 358.585 997.136 359.767C997.727 360.937 998.023 362.227 998.023 363.636V365.477C998.023 366.886 997.722 368.176 997.119 369.347C996.528 370.517 995.659 371.455 994.511 372.159C993.375 372.852 991.977 373.199 990.318 373.199C988.659 373.199 987.256 372.847 986.108 372.142C984.972 371.426 984.108 370.489 983.517 369.33C982.938 368.159 982.648 366.875 982.648 365.477ZM987.642 363.636V365.477C987.642 366.307 987.835 367.074 988.222 367.778C988.619 368.483 989.318 368.835 990.318 368.835C991.364 368.835 992.074 368.483 992.449 367.778C992.835 367.074 993.028 366.307 993.028 365.477V363.636C993.028 362.807 992.847 362.034 992.483 361.318C992.119 360.602 991.398 360.244 990.318 360.244C989.307 360.244 988.608 360.608 988.222 361.335C987.835 362.062 987.642 362.83 987.642 363.636ZM984.898 392L1008.9 357.091H1013.36L989.364 392H984.898Z" fill="black"/>
<path d="M566.078 229L573.063 215.187V215.07H564.984V213H575.563V215.141L568.602 229H566.078ZM583.283 229.266C582.049 229.26 580.994 228.935 580.119 228.289C579.244 227.643 578.575 226.703 578.111 225.469C577.648 224.234 577.416 222.747 577.416 221.008C577.416 219.273 577.648 217.792 578.111 216.562C578.58 215.333 579.252 214.396 580.127 213.75C581.007 213.104 582.059 212.781 583.283 212.781C584.507 212.781 585.557 213.107 586.432 213.758C587.307 214.404 587.976 215.341 588.44 216.57C588.908 217.794 589.143 219.273 589.143 221.008C589.143 222.753 588.911 224.242 588.447 225.477C587.984 226.706 587.315 227.646 586.44 228.297C585.565 228.943 584.512 229.266 583.283 229.266ZM583.283 227.18C584.367 227.18 585.213 226.651 585.822 225.594C586.437 224.536 586.744 223.008 586.744 221.008C586.744 219.68 586.604 218.557 586.322 217.641C586.046 216.719 585.648 216.021 585.127 215.547C584.611 215.068 583.997 214.828 583.283 214.828C582.205 214.828 581.359 215.359 580.744 216.422C580.13 217.484 579.82 219.013 579.815 221.008C579.815 222.341 579.953 223.469 580.229 224.391C580.51 225.307 580.908 226.003 581.424 226.477C581.94 226.945 582.559 227.18 583.283 227.18ZM594.182 226.812L594.065 227.664C593.987 228.289 593.854 228.94 593.666 229.617C593.484 230.299 593.294 230.932 593.096 231.516C592.903 232.099 592.744 232.563 592.619 232.906H590.963C591.031 232.583 591.125 232.146 591.244 231.594C591.364 231.047 591.481 230.435 591.596 229.758C591.71 229.081 591.796 228.391 591.854 227.687L591.932 226.812H594.182ZM596.891 225.875V223.922L603.805 213H605.344V215.875H604.367L599.422 223.703V223.828H608.899V225.875H596.891ZM604.477 229V225.281L604.492 224.391V213H606.782V229H604.477Z" fill="#CFCFCF"/>
<path d="M981.355 283.219C980.642 283.208 979.938 283.078 979.246 282.828C978.558 282.578 977.933 282.161 977.371 281.578C976.808 280.995 976.358 280.211 976.019 279.227C975.686 278.242 975.519 277.013 975.519 275.539C975.519 274.143 975.657 272.904 975.933 271.82C976.215 270.737 976.618 269.823 977.144 269.078C977.67 268.328 978.306 267.758 979.05 267.367C979.795 266.977 980.631 266.781 981.558 266.781C982.511 266.781 983.358 266.969 984.097 267.344C984.837 267.719 985.436 268.237 985.894 268.898C986.358 269.56 986.652 270.312 986.777 271.156H984.394C984.233 270.49 983.912 269.945 983.433 269.523C982.954 269.102 982.329 268.891 981.558 268.891C980.386 268.891 979.472 269.401 978.816 270.422C978.165 271.443 977.837 272.862 977.832 274.68H977.949C978.225 274.227 978.563 273.841 978.965 273.523C979.371 273.201 979.824 272.953 980.324 272.781C980.829 272.604 981.36 272.516 981.918 272.516C982.845 272.516 983.683 272.742 984.433 273.195C985.188 273.643 985.79 274.263 986.238 275.055C986.686 275.846 986.91 276.753 986.91 277.773C986.91 278.794 986.678 279.719 986.215 280.547C985.756 281.375 985.11 282.031 984.277 282.516C983.444 282.995 982.47 283.229 981.355 283.219ZM981.347 281.187C981.962 281.187 982.511 281.036 982.996 280.734C983.48 280.432 983.863 280.026 984.144 279.516C984.425 279.005 984.566 278.435 984.566 277.805C984.566 277.19 984.428 276.63 984.152 276.125C983.881 275.62 983.506 275.219 983.027 274.922C982.553 274.625 982.011 274.477 981.402 274.477C980.938 274.477 980.509 274.565 980.113 274.742C979.722 274.919 979.379 275.164 979.082 275.477C978.785 275.789 978.55 276.148 978.379 276.555C978.212 276.956 978.129 277.38 978.129 277.828C978.129 278.427 978.267 278.982 978.543 279.492C978.824 280.003 979.207 280.414 979.691 280.727C980.181 281.034 980.733 281.187 981.347 281.187ZM995.103 283.266C993.869 283.26 992.814 282.935 991.939 282.289C991.064 281.643 990.395 280.703 989.931 279.469C989.468 278.234 989.236 276.747 989.236 275.008C989.236 273.273 989.468 271.792 989.931 270.562C990.4 269.333 991.072 268.396 991.947 267.75C992.827 267.104 993.879 266.781 995.103 266.781C996.327 266.781 997.377 267.107 998.252 267.758C999.127 268.404 999.796 269.341 1000.26 270.57C1000.73 271.794 1000.96 273.273 1000.96 275.008C1000.96 276.753 1000.73 278.242 1000.27 279.477C999.804 280.706 999.135 281.646 998.26 282.297C997.385 282.943 996.332 283.266 995.103 283.266ZM995.103 281.18C996.187 281.18 997.033 280.651 997.642 279.594C998.257 278.536 998.564 277.008 998.564 275.008C998.564 273.68 998.424 272.557 998.142 271.641C997.866 270.719 997.468 270.021 996.947 269.547C996.431 269.068 995.817 268.828 995.103 268.828C994.025 268.828 993.179 269.359 992.564 270.422C991.95 271.484 991.64 273.013 991.635 275.008C991.635 276.341 991.773 277.469 992.049 278.391C992.33 279.307 992.728 280.003 993.244 280.477C993.76 280.945 994.379 281.18 995.103 281.18ZM1006 280.812L1005.88 281.664C1005.81 282.289 1005.67 282.94 1005.49 283.617C1005.3 284.299 1005.11 284.932 1004.92 285.516C1004.72 286.099 1004.56 286.563 1004.44 286.906H1002.78C1002.85 286.583 1002.94 286.146 1003.06 285.594C1003.18 285.047 1003.3 284.435 1003.42 283.758C1003.53 283.081 1003.62 282.391 1003.67 281.687L1003.75 280.812H1006ZM1009.05 283V281.25L1014.46 275.641C1015.04 275.031 1015.52 274.497 1015.89 274.039C1016.27 273.576 1016.55 273.135 1016.74 272.719C1016.93 272.302 1017.02 271.859 1017.02 271.391C1017.02 270.859 1016.9 270.401 1016.65 270.016C1016.4 269.625 1016.06 269.326 1015.63 269.117C1015.19 268.904 1014.71 268.797 1014.16 268.797C1013.59 268.797 1013.09 268.914 1012.66 269.148C1012.24 269.383 1011.91 269.714 1011.68 270.141C1011.45 270.568 1011.34 271.068 1011.34 271.641H1009.03C1009.03 270.667 1009.26 269.815 1009.7 269.086C1010.15 268.357 1010.77 267.792 1011.55 267.391C1012.33 266.984 1013.22 266.781 1014.21 266.781C1015.22 266.781 1016.1 266.982 1016.87 267.383C1017.64 267.779 1018.24 268.32 1018.67 269.008C1019.1 269.69 1019.32 270.461 1019.32 271.32C1019.32 271.914 1019.21 272.495 1018.98 273.062C1018.77 273.63 1018.38 274.263 1017.84 274.961C1017.29 275.654 1016.53 276.495 1015.55 277.484L1012.38 280.812V280.93H1019.58V283H1009.05Z" fill="#CFCFCF"/>
<defs>
<linearGradient id="paint0_linear_2662_1085" x1="282.995" y1="280.5" x2="282.995" y2="372.5" gradientUnits="userSpaceOnUse">
<stop stop-color="#D9D9D9"/>
<stop offset="1" stop-color="#D9D9D9" stop-opacity="0"/>
</linearGradient>
<linearGradient id="paint1_linear_2662_1085" x1="537.482" y1="593.5" x2="537.482" y2="685.5" gradientUnits="userSpaceOnUse">
<stop stop-color="#D9D9D9"/>
<stop offset="1" stop-color="#D9D9D9" stop-opacity="0"/>
</linearGradient>
<linearGradient id="paint2_linear_2662_1085" x1="791.995" y1="280.5" x2="791.995" y2="372.5" gradientUnits="userSpaceOnUse">
<stop stop-color="#D9D9D9"/>
<stop offset="1" stop-color="#D9D9D9" stop-opacity="0"/>
</linearGradient>
</defs>
</svg>
