<svg fill="none" height="1129" viewBox="0 0 1080 1129" width="1080" xmlns="http://www.w3.org/2000/svg" xmlns:xlink="http://www.w3.org/1999/xlink"><linearGradient id="a"><stop offset="0" stop-color="#d9d9d9"/><stop offset="1" stop-color="#d9d9d9" stop-opacity="0"/></linearGradient><linearGradient id="b" gradientUnits="userSpaceOnUse" x1="282.996" x2="282.996" xlink:href="#a" y1="637.5" y2="729.5"/><linearGradient id="c" gradientUnits="userSpaceOnUse" x1="282.996" x2="282.996" xlink:href="#a" y1="950.5" y2="1042.5"/><linearGradient id="d" gradientUnits="userSpaceOnUse" x1="537.477" x2="537.477" y1="180" y2="416.5"><stop offset="0" stop-color="#04b34a"/><stop offset=".0666667" stop-color="#04b34a" stop-opacity=".991353"/><stop offset=".133333" stop-color="#04b34a" stop-opacity=".96449"/><stop offset=".2" stop-color="#04b34a" stop-opacity=".91834"/><stop offset=".266667" stop-color="#04b34a" stop-opacity=".852589"/><stop offset=".333333" stop-color="#04b34a" stop-opacity=".768225"/><stop offset=".4" stop-color="#04b34a" stop-opacity=".668116"/><stop offset=".466667" stop-color="#04b34a" stop-opacity=".557309"/><stop offset=".533333" stop-color="#04b34a" stop-opacity=".442691"/><stop offset=".6" stop-color="#04b34a" stop-opacity=".331884"/><stop offset=".666667" stop-color="#04b34a" stop-opacity=".231775"/><stop offset=".733333" stop-color="#04b34a" stop-opacity=".147411"/><stop offset=".8" stop-color="#04b34a" stop-opacity=".08166"/><stop offset=".866667" stop-color="#04b34a" stop-opacity=".03551"/><stop offset=".933333" stop-color="#04b34a" stop-opacity=".01"/><stop offset="1" stop-color="#04b34a" stop-opacity="0"/></linearGradient><linearGradient id="e" gradientUnits="userSpaceOnUse" x1="791.995" x2="791.995" xlink:href="#a" y1="637.5" y2="729.5"/><linearGradient id="f" gradientUnits="userSpaceOnUse" x1="791.996" x2="791.996" xlink:href="#a" y1="950.5" y2="1042.5"/><path d="m0 0h1080v1129h-1080z" fill="#fff"/><g fill="#eaecef"><path d="m915.587 49-2.676 15.8629h2.98l-1.71 10.1371h-5.513l.815-4.8302h-14.154l-.815 4.8302h-5.514l1.71-10.1371h2.114c.966-1.3116 1.883-3.042 2.916-6.6791l2.624-9.1838h17.226zm-7.003 5.3069h-6.049l-1.166 4.0849c-1.015 3.5475-1.854 5.1566-2.702 6.4711h8.138z"/><path d="m920.448 49h13.112c4.62 0 6.697 2.3544 6.121 5.7547-.367 2.1753-2.004 3.5764-3.54 4.2033 1.677.6558 3.005 2.3256 2.522 5.1884-.613 3.6372-3.578 6.0234-8.496 6.0234h-13.292zm3.847 12.7024-.625 3.6978h6.02c1.608 0 2.603-.5951 2.814-1.8489.217-1.2826-.581-1.8489-2.192-1.8489h-6.02zm1.336-7.93-.532 3.1605h5.93c1.253 0 2.132-.4478 2.323-1.5802.191-1.1325-.538-1.5803-1.791-1.5803z"/><path d="m943.47 49h6.109l-2.152 12.7602 11.479-12.7602h6.109l-3.57 21.1698h-6.109l2.143-12.7025-11.469 12.7025h-6.11z"/><path d="m974.098 59.1978-7.191-10.1978h6.914l5.991 8.6464 1.46-8.6464h5.812l-1.458 8.6464 8.91-8.6464h6.764l-10.346 9.9291 7.223 11.2407h-7.362l-5.776-9.0336-1.525 9.0336h-5.811l1.524-9.0336-8.825 9.0336h-7.093l10.792-10.972z"/><path d="m1010.23 49h-7.1l7.06 9.9291-10.477 11.2407h7.097l10.48-11.2407zm11.21 0h-7.1l7.07 9.9291-10.48 11.2407h7.09l10.48-11.2407zm11.5 0h-7.09l7.06 9.9291-10.48 11.2407h7.09l10.48-11.2407z"/></g><path d="m51.7997 75.358c-1.9091 0-3.6094-.3282-5.1008-.9844-1.483-.6648-2.6549-1.5767-3.5157-2.7358-.8522-1.1676-1.2912-2.5142-1.3167-4.0398h5.5738c.0341.6392.2429 1.2017.6265 1.6875.392.4773.9119.848 1.5596 1.1122s1.3764.3963 2.1861.3963c.8437 0 1.5895-.1491 2.2372-.4474s1.1548-.7117 1.5213-1.2401.5497-1.1378.5497-1.8281c0-.6989-.196-1.3168-.588-1.8537-.3836-.5454-.9375-.9716-1.662-1.2784-.7159-.3068-1.5681-.4602-2.5568-.4602h-2.4417v-4.0654h2.4417c.8352 0 1.5725-.1448 2.2117-.4346.6477-.2898 1.1505-.6904 1.5085-1.2017.3579-.5199.5369-1.125.5369-1.8154 0-.6562-.1576-1.2315-.473-1.7258-.3068-.5029-.7415-.8949-1.304-1.1762-.5539-.2812-1.2017-.4218-1.9431-.4218-.75 0-1.4361.1363-2.0583.4091-.6221.2642-1.1207.6434-1.4957 1.1377-.375.4944-.5753 1.0739-.6009 1.7387h-5.3054c.0256-1.5085.456-2.8381 1.2912-3.9887.8352-1.1505 1.9602-2.0497 3.375-2.6974 1.4233-.6562 3.0298-.9844 4.8196-.9844 1.8068 0 3.3878.3282 4.7429.9844 1.3551.6563 2.4077 1.5426 3.1577 2.6591.7585 1.1079 1.1335 2.3523 1.125 3.7329.0085 1.466-.4475 2.689-1.3679 3.6691-.9119.9801-2.1009 1.6023-3.5668 1.8665v.2045c1.9262.2472 3.3921.9162 4.3978 2.0071 1.0142 1.0824 1.517 2.4375 1.5085 4.0653.0085 1.4915-.4219 2.8168-1.2912 3.9759-.8608 1.1591-2.0497 2.071-3.5668 2.7358-1.517.6648-3.2557.9972-5.2159.9972zm18.2635.0127c-1.2528 0-2.3693-.2173-3.3494-.6519-.9801-.4432-1.7557-1.0952-2.3267-1.956-.5625-.8693-.8438-1.9517-.8438-3.2472 0-1.0909.2003-2.0071.6009-2.7486.4005-.7414.946-1.338 1.6363-1.7897.6904-.4517 1.4745-.7926 2.3523-1.0228.8864-.2301 1.8153-.392 2.7869-.4857 1.1421-.1194 2.0625-.2302 2.7614-.3324.6989-.1108 1.206-.2728 1.5213-.4858.3153-.2131.473-.5284.473-.9461v-.0767c0-.8096-.2557-1.436-.767-1.8792-.5029-.4432-1.2188-.6648-2.1478-.6648-.9801 0-1.7599.2173-2.3394.652-.5796.4261-.9631.9631-1.1506 1.6108l-5.0369-.4091c.2556-1.1932.7585-2.2244 1.5085-3.0937.75-.8779 1.7173-1.5512 2.902-2.0199 1.1931-.4773 2.5738-.7159 4.142-.7159 1.0909 0 2.135.1278 3.1321.3835 1.0057.2557 1.8963.652 2.6719 1.1889.7841.5369 1.402 1.2273 1.8537 2.071.4517.8352.6775 1.8367.6775 3.0043v13.2443h-5.1647v-2.723h-.1534c-.3154.6136-.7373 1.1548-1.2657 1.6236-.5284.4602-1.1633.8224-1.9048 1.0866-.7415.2557-1.598.3835-2.5696.3835zm1.5597-3.7585c.8011 0 1.5085-.1577 2.1221-.473.6136-.3239 1.0952-.7585 1.4446-1.304.3494-.5454.5242-1.1633.5242-1.8537v-2.0838c-.1705.1108-.4049.2131-.7032.3068-.2897.0853-.6179.1662-.9843.2429-.3665.0682-.733.1321-1.0995.1918-.3664.0511-.6988.098-.9971.1406-.6392.0938-1.1975.2429-1.6747.4475-.4773.2045-.8481.4815-1.1123.8309-.2642.3409-.3963.7671-.3963 1.2784 0 .7415.2685 1.3083.8054 1.7003.5455.3836 1.2358.5753 2.0711.5753zm12.2837 3.3878v-19.6364h8.3736c2.4204 0 4.3338.4603 5.74 1.3807 1.4063.9205 2.1098 2.2287 2.1098 3.9247 0 1.0654-.3967 1.9517-1.1893 2.6591s-1.8921 1.1847-3.2983 1.4318c1.1761.0853 2.1775.3537 3.0042.8054.8353.4432 1.4704 1.0185 1.9044 1.7259.444.7074.665 1.4915.665 2.3523 0 1.1164-.298 2.0752-.895 2.8764-.5877.8011-1.4528 1.4148-2.5948 1.8409-1.1335.4261-2.5185.6392-4.1549.6392zm5.0753-4.0781h4.5894c.7586 0 1.3509-.179 1.777-.537.4347-.3664.652-.865.652-1.4957 0-.6989-.2173-1.2486-.652-1.6491-.4261-.4006-1.0184-.6009-1.777-.6009h-4.5894zm0-7.4787h3.4133c.5455 0 1.01-.0767 1.3935-.2301.392-.162.6903-.3921.8949-.6904.213-.2983.3196-.652.3196-1.0611 0-.6051-.2429-1.0781-.7287-1.419s-1.1506-.5114-1.9943-.5114h-3.2983zm19.4301 4.3721 7.069-12.4517h5.37v19.6364h-5.191v-12.4901l-7.044 12.4901h-5.407v-19.6364h5.203zm24.237 7.5682c-2.012 0-3.742-.4261-5.191-1.2784-1.44-.8608-2.548-2.054-3.323-3.5795-.768-1.5256-1.151-3.2813-1.151-5.2671 0-2.0113.388-3.7755 1.163-5.2926.784-1.5256 1.897-2.7145 3.337-3.5668 1.44-.8607 3.153-1.2911 5.139-1.2911 1.713 0 3.213.311 4.5.9332s2.306 1.4957 3.056 2.6207 1.163 2.4461 1.24 3.9631h-5.14c-.144-.9801-.528-1.7685-1.15-2.3651-.614-.6051-1.419-.9076-2.416-.9076-.844 0-1.581.2301-2.212.6903-.622.4517-1.108 1.1122-1.457 1.9815-.35.8694-.525 1.9219-.525 3.1577 0 1.2529.171 2.3182.512 3.196.349.8779.839 1.5469 1.47 2.0071.631.4603 1.368.6904 2.212.6904.622 0 1.18-.1279 1.674-.3835.503-.2557.917-.6265 1.24-1.1123.333-.4943.55-1.0866.652-1.7769h5.14c-.086 1.5-.495 2.821-1.228 3.963-.724 1.1335-1.726 2.0199-3.004 2.6591s-2.791.9588-4.538.9588zm16.02-7.5682 7.069-12.4517h5.37v19.6364h-5.191v-12.4901l-7.044 12.4901h-5.408v-19.6364h5.204zm26.972 1.1634 5.318-13.6151h4.142l-7.657 19.6364h-3.618l-7.479-19.6364h4.129zm-6.405-13.6151v19.6364h-5.203v-19.6364zm13.079 19.6364v-19.6364h5.139v19.6364zm16.783.3835c-1.986 0-3.703-.4219-5.152-1.2656-1.44-.8523-2.552-2.0369-3.336-3.554-.784-1.5255-1.177-3.294-1.177-5.3054 0-2.0284.393-3.8011 1.177-5.3182.784-1.5255 1.896-2.7102 3.336-3.5539 1.449-.8523 3.166-1.2784 5.152-1.2784s3.699.4261 5.139 1.2784c1.449.8437 2.566 2.0284 3.35 3.5539.784 1.5171 1.176 3.2898 1.176 5.3182 0 2.0114-.392 3.7799-1.176 5.3054-.784 1.5171-1.901 2.7017-3.35 3.554-1.44.8437-3.153 1.2656-5.139 1.2656zm.026-4.2187c.903 0 1.658-.2557 2.263-.7671.605-.5199 1.061-1.2272 1.368-2.1221.315-.8949.473-1.9134.473-3.0554 0-1.1421-.158-2.1605-.473-3.0554-.307-.8949-.763-1.6023-1.368-2.1222s-1.36-.7798-2.263-.7798c-.912 0-1.679.2599-2.301.7798-.614.5199-1.078 1.2273-1.394 2.1222-.307.8949-.46 1.9133-.46 3.0554 0 1.142.153 2.1605.46 3.0554.316.8949.78 1.6022 1.394 2.1221.622.5114 1.389.7671 2.301.7671zm20.612 4.2187c-2.011 0-3.741-.4261-5.19-1.2784-1.44-.8608-2.548-2.054-3.324-3.5795-.767-1.5256-1.15-3.2813-1.15-5.2671 0-2.0113.387-3.7755 1.163-5.2926.784-1.5256 1.896-2.7145 3.337-3.5668 1.44-.8607 3.153-1.2911 5.139-1.2911 1.713 0 3.213.311 4.5.9332s2.305 1.4957 3.055 2.6207 1.164 2.4461 1.24 3.9631h-5.139c-.145-.9801-.528-1.7685-1.15-2.3651-.614-.6051-1.42-.9076-2.417-.9076-.843 0-1.581.2301-2.211.6903-.622.4517-1.108 1.1122-1.458 1.9815-.349.8694-.524 1.9219-.524 3.1577 0 1.2529.171 2.3182.511 3.196.35.8779.84 1.5469 1.471 2.0071.63.4603 1.368.6904 2.211.6904.622 0 1.181-.1279 1.675-.3835.503-.2557.916-.6265 1.24-1.1123.332-.4943.55-1.0866.652-1.7769h5.139c-.085 1.5-.494 2.821-1.227 3.963-.724 1.1335-1.726 2.0199-3.004 2.6591-1.279.6392-2.791.9588-4.539.9588zm9.478-15.7372v-4.2827h17.795v4.2827h-6.328v15.3537h-5.19v-15.3537zm23.07 1.7514h5.868c2.6 0 4.628.6222 6.085 1.8665 1.458 1.2358 2.187 2.8892 2.187 4.9602 0 1.3466-.329 2.5313-.985 3.554-.656 1.0142-1.602 1.8068-2.838 2.3778-1.236.5626-2.719.8438-4.449.8438h-9.281v-19.6364h5.203v15.3537h4.078c.912 0 1.662-.2301 2.25-.6903s.887-1.0483.895-1.7642c-.008-.7585-.307-1.3764-.895-1.8537-.588-.4858-1.338-.7287-2.25-.7287h-5.868zm23.203 13.6023v-19.6364h17.169v19.6364h-5.203v-15.3537h-6.827v15.3537zm20.076 7.3636v-27h5.369v3.2983h.243c.239-.5284.584-1.0653 1.035-1.6108.461-.5539 1.057-1.0142 1.79-1.3806.742-.375 1.662-.5625 2.762-.5625 1.431 0 2.752.375 3.963 1.125 1.21.7414 2.177 1.8622 2.902 3.3622.724 1.4914 1.086 3.3622 1.086 5.6122 0 2.1903-.353 4.0398-1.061 5.5483-.699 1.5-1.653 2.6378-2.863 3.4133-1.202.7671-2.549 1.1506-4.04 1.1506-1.057 0-1.956-.1747-2.698-.5241-.733-.3495-1.334-.7884-1.802-1.3168-.469-.5369-.827-1.0781-1.074-1.6236h-.166v10.5085zm5.331-17.1818c0 1.1676.162 2.1861.485 3.0554.324.8693.793 1.5469 1.407 2.0327.613.4773 1.359.7159 2.237.7159.886 0 1.636-.2429 2.25-.7287.614-.4943 1.078-1.1761 1.393-2.0455.324-.8778.486-1.8877.486-3.0298 0-1.1335-.158-2.1307-.473-2.9915s-.78-1.5341-1.393-2.0198c-.614-.4858-1.368-.7287-2.263-.7287-.886 0-1.636.2343-2.25.7031-.605.4687-1.07 1.1335-1.394 1.9943-.323.8608-.485 1.875-.485 3.0426zm24.882 10.2017c-1.986 0-3.703-.4219-5.152-1.2656-1.44-.8523-2.552-2.0369-3.337-3.554-.784-1.5255-1.176-3.294-1.176-5.3054 0-2.0284.392-3.8011 1.176-5.3182.785-1.5255 1.897-2.7102 3.337-3.5539 1.449-.8523 3.166-1.2784 5.152-1.2784s3.699.4261 5.139 1.2784c1.449.8437 2.566 2.0284 3.35 3.5539.784 1.5171 1.176 3.2898 1.176 5.3182 0 2.0114-.392 3.7799-1.176 5.3054-.784 1.5171-1.901 2.7017-3.35 3.554-1.44.8437-3.153 1.2656-5.139 1.2656zm.026-4.2187c.903 0 1.657-.2557 2.262-.7671.606-.5199 1.062-1.2272 1.368-2.1221.316-.8949.473-1.9134.473-3.0554 0-1.1421-.157-2.1605-.473-3.0554-.306-.8949-.762-1.6023-1.368-2.1222-.605-.5199-1.359-.7798-2.262-.7798-.912 0-1.679.2599-2.301.7798-.614.5199-1.079 1.2273-1.394 2.1222-.307.8949-.46 1.9133-.46 3.0554 0 1.142.153 2.1605.46 3.0554.315.8949.78 1.6022 1.394 2.1221.622.5114 1.389.7671 2.301.7671zm28.909-15.8012v15.8779h3.132v10.0738h-5.292v-6.3153h-15.009v-19.6364h5.203v15.3537h6.827v-15.3537zm13.789 20.0199c-2.02 0-3.758-.4091-5.216-1.2273-1.449-.8267-2.565-1.9943-3.349-3.5028-.784-1.517-1.176-3.3111-1.176-5.3821 0-2.0199.392-3.7926 1.176-5.3182.784-1.5255 1.888-2.7145 3.311-3.5667 1.432-.8523 3.111-1.2784 5.037-1.2784 1.295 0 2.501.2088 3.618.6264 1.125.4091 2.105 1.027 2.94 1.8537.844.8267 1.5 1.8664 1.969 3.1193.469 1.2443.703 2.7017.703 4.3721v1.4958h-16.581v-3.375h11.454c0-.7841-.17-1.4787-.511-2.0838s-.814-1.0781-1.419-1.4191c-.597-.3494-1.291-.5241-2.084-.5241-.826 0-1.559.1918-2.199.5753-.63.375-1.125.8821-1.483 1.5213-.357.6307-.541 1.3338-.549 2.1094v3.2088c0 .9716.179 1.811.537 2.5184.366.7074.882 1.2529 1.547 1.6364.664.3835 1.453.5753 2.365.5753.605 0 1.159-.0852 1.662-.2557.502-.1705.933-.4261 1.291-.767.358-.341.63-.7586.818-1.2529l5.037.3324c-.256 1.2102-.78 2.267-1.573 3.1705-.784.8948-1.798 1.5937-3.042 2.0965-1.236.4944-2.664.7415-4.283.7415zm24.793-12.375v4.2827h-10.253v-4.2827zm-8.463-7.6449v19.6364h-5.203v-19.6364zm11.876 0v19.6364h-5.164v-19.6364zm.814 4.2827v-4.2827h17.795v4.2827h-6.328v15.3537h-5.19v-15.3537zm24.553 15.7244c-1.253 0-2.369-.2173-3.35-.6519-.98-.4432-1.755-1.0952-2.326-1.956-.563-.8693-.844-1.9517-.844-3.2472 0-1.0909.2-2.0071.601-2.7486.4-.7414.946-1.338 1.636-1.7897.691-.4517 1.475-.7926 2.352-1.0228.887-.2301 1.816-.392 2.787-.4857 1.142-.1194 2.063-.2302 2.762-.3324.699-.1108 1.206-.2728 1.521-.4858.315-.2131.473-.5284.473-.9461v-.0767c0-.8096-.256-1.436-.767-1.8792-.503-.4432-1.219-.6648-2.148-.6648-.98 0-1.76.2173-2.339.652-.58.4261-.963.9631-1.151 1.6108l-5.037-.4091c.256-1.1932.759-2.2244 1.509-3.0937.75-.8779 1.717-1.5512 2.902-2.0199 1.193-.4773 2.574-.7159 4.142-.7159 1.091 0 2.135.1278 3.132.3835 1.006.2557 1.896.652 2.672 1.1889.784.5369 1.402 1.2273 1.854 2.071.451.8352.677 1.8367.677 3.0043v13.2443h-5.165v-2.723h-.153c-.315.6136-.737 1.1548-1.266 1.6236-.528.4602-1.163.8224-1.905 1.0866-.741.2557-1.598.3835-2.569.3835zm1.56-3.7585c.801 0 1.508-.1577 2.122-.473.613-.3239 1.095-.7585 1.444-1.304.35-.5454.524-1.1633.524-1.8537v-2.0838c-.17.1108-.404.2131-.703.3068-.289.0853-.618.1662-.984.2429-.367.0682-.733.1321-1.099.1918-.367.0511-.699.098-.998.1406-.639.0938-1.197.2429-1.674.4475-.478.2045-.848.4815-1.113.8309-.264.3409-.396.7671-.396 1.2784 0 .7415.269 1.3083.806 1.7003.545.3836 1.235.5753 2.071.5753zm28.047 3.7713c-1.985 0-3.703-.4219-5.152-1.2656-1.44-.8523-2.552-2.0369-3.336-3.554-.784-1.5255-1.176-3.294-1.176-5.3054 0-2.0284.392-3.8011 1.176-5.3182.784-1.5255 1.896-2.7102 3.336-3.5539 1.449-.8523 3.167-1.2784 5.152-1.2784 1.986 0 3.699.4261 5.14 1.2784 1.449.8437 2.565 2.0284 3.349 3.5539.784 1.5171 1.176 3.2898 1.176 5.3182 0 2.0114-.392 3.7799-1.176 5.3054-.784 1.5171-1.9 2.7017-3.349 3.554-1.441.8437-3.154 1.2656-5.14 1.2656zm.026-4.2187c.903 0 1.658-.2557 2.263-.7671.605-.5199 1.061-1.2272 1.368-2.1221.315-.8949.473-1.9134.473-3.0554 0-1.1421-.158-2.1605-.473-3.0554-.307-.8949-.763-1.6023-1.368-2.1222s-1.36-.7798-2.263-.7798c-.912 0-1.679.2599-2.301.7798-.614.5199-1.078 1.2273-1.394 2.1222-.306.8949-.46 1.9133-.46 3.0554 0 1.142.154 2.1605.46 3.0554.316.8949.78 1.6022 1.394 2.1221.622.5114 1.389.7671 2.301.7671zm10.206 9.588v-10.0738h1.509c.435-.2728.784-.7074 1.048-1.304.273-.5966.494-1.2997.665-2.1094.179-.8096.315-1.6832.409-2.6207.102-.946.192-1.9006.268-2.8637l.512-6.4176h15.06v15.3154h3.042v10.0738h-5.19v-5.7528h-12.004v5.7528zm6.929-10.0738h7.402v-11.1222h-5.292l-.205 2.2244c-.145 2.0966-.354 3.8779-.626 5.3438-.273 1.4574-.699 2.642-1.279 3.554zm26.19 4.7045c-1.986 0-3.703-.4219-5.152-1.2656-1.44-.8523-2.553-2.0369-3.337-3.554-.784-1.5255-1.176-3.294-1.176-5.3054 0-2.0284.392-3.8011 1.176-5.3182.784-1.5255 1.897-2.7102 3.337-3.5539 1.449-.8523 3.166-1.2784 5.152-1.2784s3.699.4261 5.139 1.2784c1.449.8437 2.565 2.0284 3.35 3.5539.784 1.5171 1.176 3.2898 1.176 5.3182 0 2.0114-.392 3.7799-1.176 5.3054-.785 1.5171-1.901 2.7017-3.35 3.554-1.44.8437-3.153 1.2656-5.139 1.2656zm.025-4.2187c.904 0 1.658-.2557 2.263-.7671.605-.5199 1.061-1.2272 1.368-2.1221.316-.8949.473-1.9134.473-3.0554 0-1.1421-.157-2.1605-.473-3.0554-.307-.8949-.763-1.6023-1.368-2.1222s-1.359-.7798-2.263-.7798c-.911 0-1.678.2599-2.301.7798-.613.5199-1.078 1.2273-1.393 2.1222-.307.8949-.46 1.9133-.46 3.0554 0 1.142.153 2.1605.46 3.0554.315.8949.78 1.6022 1.393 2.1221.623.5114 1.39.7671 2.301.7671zm28.066-23.0114 1.662 3.554c-.554.4602-1.168.8011-1.841 1.0227-.673.2131-1.478.3537-2.416.4219-.929.0682-2.062.115-3.401.1406-1.517.0171-2.752.26-3.707.7287-.954.4688-1.679 1.206-2.173 2.2117-.495.9971-.818 2.3011-.972 3.9119h.192c.588-1.2017 1.415-2.1307 2.48-2.7869 1.074-.6563 2.399-.9844 3.976-.9844 1.67 0 3.132.3665 4.385 1.0994 1.261.733 2.241 1.7855 2.94 3.1577.699 1.3721 1.048 3.017 1.048 4.9346 0 1.9944-.392 3.7287-1.176 5.2032-.775 1.4659-1.879 2.6037-3.311 3.4133-1.432.8012-3.136 1.2017-5.113 1.2017-1.986 0-3.699-.4176-5.14-1.2528-1.431-.8352-2.539-2.0668-3.323-3.6946-.776-1.6279-1.164-3.6307-1.164-6.0085v-1.6108c0-4.7302.921-8.2373 2.762-10.5213 1.84-2.2841 4.546-3.4432 8.117-3.4773.972-.0171 1.85-.0213 2.634-.0128s1.47-.0298 2.058-.1151c.597-.0852 1.091-.2642 1.483-.5369zm-7.402 23.0114c.835 0 1.551-.2174 2.148-.652.605-.4347 1.07-1.0568 1.393-1.8665.333-.8097.499-1.777.499-2.902 0-1.1165-.166-2.0625-.499-2.8381-.323-.784-.788-1.3806-1.393-1.7897s-1.33-.6137-2.173-.6137c-.631 0-1.198.1151-1.701.3452s-.933.571-1.291 1.0227c-.349.4432-.622.9929-.818 1.6492-.188.6477-.281 1.3892-.281 2.2244 0 1.679.362 3.0043 1.086 3.9759.733.963 1.743 1.4446 3.03 1.4446zm11.75 11.1988v-27h5.369v3.2983h.243c.239-.5284.584-1.0653 1.036-1.6108.46-.5539 1.057-1.0142 1.79-1.3806.741-.375 1.662-.5625 2.761-.5625 1.432 0 2.753.375 3.963 1.125 1.21.7414 2.178 1.8622 2.902 3.3622.725 1.4914 1.087 3.3622 1.087 5.6122 0 2.1903-.354 4.0398-1.061 5.5483-.699 1.5-1.654 2.6378-2.864 3.4133-1.202.7671-2.548 1.1506-4.04 1.1506-1.057 0-1.956-.1747-2.697-.5241-.733-.3495-1.334-.7884-1.803-1.3168-.468-.5369-.826-1.0781-1.074-1.6236h-.166v10.5085zm5.331-17.1818c0 1.1676.162 2.1861.486 3.0554s.793 1.5469 1.406 2.0327c.614.4773 1.36.7159 2.237.7159.887 0 1.637-.2429 2.25-.7287.614-.4943 1.079-1.1761 1.394-2.0455.324-.8778.486-1.8877.486-3.0298 0-1.1335-.158-2.1307-.473-2.9915-.316-.8608-.78-1.5341-1.394-2.0198-.613-.4858-1.368-.7287-2.263-.7287-.886 0-1.636.2343-2.25.7031-.605.4687-1.069 1.1335-1.393 1.9943s-.486 1.875-.486 3.0426zm24.959 10.2017c-2.02 0-3.758-.4091-5.216-1.2273-1.448-.8267-2.565-1.9943-3.349-3.5028-.784-1.517-1.176-3.3111-1.176-5.3821 0-2.0199.392-3.7926 1.176-5.3182.784-1.5255 1.888-2.7145 3.311-3.5667 1.432-.8523 3.111-1.2784 5.037-1.2784 1.295 0 2.501.2088 3.618.6264 1.125.4091 2.105 1.027 2.94 1.8537.844.8267 1.5 1.8664 1.969 3.1193.469 1.2443.703 2.7017.703 4.3721v1.4958h-16.581v-3.375h11.455c0-.7841-.171-1.4787-.512-2.0838s-.814-1.0781-1.419-1.4191c-.596-.3494-1.291-.5241-2.084-.5241-.826 0-1.559.1918-2.198.5753-.631.375-1.125.8821-1.483 1.5213-.358.6307-.542 1.3338-.55 2.1094v3.2088c0 .9716.179 1.811.537 2.5184.366.7074.882 1.2529 1.547 1.6364.664.3835 1.453.5753 2.365.5753.605 0 1.159-.0852 1.662-.2557s.933-.4261 1.291-.767c.358-.341.631-.7586.818-1.2529l5.037.3324c-.256 1.2102-.78 2.267-1.572 3.1705-.785.8948-1.799 1.5937-3.043 2.0965-1.236.4944-2.663.7415-4.283.7415zm24.793-12.375v4.2827h-10.253v-4.2827zm-8.463-7.6449v19.6364h-5.203v-19.6364zm11.877 0v19.6364h-5.165v-19.6364zm7.988 12.4517 7.069-12.4517h5.37v19.6364h-5.191v-12.4901l-7.044 12.4901h-5.407v-19.6364h5.203zm26.87 7.1847v-15.3665h-3.682c-.997 0-1.755.2301-2.275.6904-.52.4602-.776 1.0056-.767 1.6363-.009.6392.238 1.1804.741 1.6236.512.4347 1.262.652 2.25.652h5.549v3.6818h-5.549c-1.679 0-3.132-.2557-4.359-.767-1.227-.5114-2.173-1.223-2.838-2.135-.665-.9204-.993-1.99-.985-3.2088-.008-1.2784.32-2.3991.985-3.3622.665-.9716 1.615-1.7259 2.851-2.2628 1.244-.5454 2.71-.8182 4.397-.8182h8.758v19.6364zm-12.477 0 5.459-10.2273h5.203l-5.446 10.2273zm-557.3025 44.384c-1.9858 0-3.7032-.422-5.152-1.266-1.4404-.852-2.5526-2.037-3.3367-3.554-.7841-1.526-1.1761-3.294-1.1761-5.305 0-2.029.392-3.802 1.1761-5.319.7841-1.525 1.8963-2.71 3.3367-3.554 1.4488-.8519 3.1662-1.278 5.152-1.278 1.9857 0 3.6988.4261 5.1392 1.278 1.4488.844 2.5653 2.029 3.3494 3.554.7841 1.517 1.1761 3.29 1.1761 5.319 0 2.011-.392 3.779-1.1761 5.305-.7841 1.517-1.9006 2.702-3.3494 3.554-1.4404.844-3.1535 1.266-5.1392 1.266zm.0255-4.219c.9034 0 1.6577-.256 2.2628-.767.6051-.52 1.0611-1.228 1.3679-2.122.3153-.895.473-1.914.473-3.056s-.1577-2.16-.473-3.055c-.3068-.895-.7628-1.603-1.3679-2.122-.6051-.52-1.3594-.78-2.2628-.78-.9119 0-1.679.26-2.3011.78-.6136.519-1.0781 1.227-1.3935 2.122-.3068.895-.4602 1.913-.4602 3.055s.1534 2.161.4602 3.056c.3154.894.7799 1.602 1.3935 2.122.6221.511 1.3892.767 2.3011.767zm9.8388-11.519v-4.2824h17.7954v4.2824h-6.3281v15.354h-5.1903v-15.354zm26.549 22.718v-27.0004h5.3693v3.2984h.2429c.2386-.528.5838-1.065 1.0355-1.611.4602-.554 1.0568-1.014 1.7898-1.3805.7414-.375 1.6619-.5625 2.7613-.5625 1.4314 0 2.7524.375 3.9634 1.125 1.21.741 2.177 1.862 2.902 3.362.724 1.492 1.086 3.362 1.086 5.612 0 2.191-.353 4.04-1.061 5.549-.699 1.5-1.653 2.637-2.863 3.413-1.202.767-2.549 1.151-4.0402 1.151-1.0568 0-1.9559-.175-2.6974-.525-.733-.349-1.3338-.788-1.8026-1.316-.4687-.537-.8267-1.078-1.0738-1.624h-.1662v10.509zm5.3309-17.182c0 1.167.162 2.186.4858 3.055.3239.87.7926 1.547 1.4063 2.033.6136.477 1.3594.716 2.2372.716.8864 0 1.6364-.243 2.25-.729.6136-.494 1.078-1.176 1.393-2.045.324-.878.486-1.888.486-3.03 0-1.134-.157-2.131-.473-2.992-.315-.86-.7796-1.534-1.3932-2.02-.6137-.485-1.3679-.728-2.2628-.728-.8864 0-1.6364.234-2.25.703-.6051.469-1.0696 1.133-1.3935 1.994-.3238.861-.4858 1.875-.4858 3.043zm21.6093 10.189c-1.252 0-2.369-.218-3.349-.652-.98-.443-1.756-1.095-2.327-1.956-.562-.87-.843-1.952-.843-3.247 0-1.091.2-2.007.6-2.749.401-.741.946-1.338 1.637-1.79.69-.451 1.474-.792 2.352-1.022.886-.231 1.815-.393 2.787-.486 1.142-.12 2.062-.23 2.761-.333.699-.11 1.206-.272 1.522-.485.315-.214.473-.529.473-.946v-.077c0-.81-.256-1.436-.767-1.879-.503-.444-1.219-.665-2.148-.665-.98 0-1.76.217-2.34.652-.579.426-.963.963-1.15 1.611l-5.037-.409c.256-1.194.758-2.225 1.508-3.094.75-.878 1.718-1.551 2.902-2.0201 1.194-.4773 2.574-.7159 4.142-.7159 1.091 0 2.135.1278 3.133.3835 1.005.2557 1.896.6515 2.671 1.1885.785.537 1.402 1.228 1.854 2.071.452.836.678 1.837.678 3.005v13.244h-5.165v-2.723h-.153c-.316.614-.738 1.155-1.266 1.624-.529.46-1.163.822-1.905 1.086-.741.256-1.598.384-2.57.384zm1.56-3.759c.801 0 1.509-.157 2.122-.473.614-.324 1.095-.758 1.445-1.304.349-.545.524-1.163.524-1.853v-2.084c-.17.111-.405.213-.703.307-.29.085-.618.166-.984.242-.367.069-.733.133-1.1.192-.366.051-.699.098-.997.141-.639.094-1.198.243-1.675.447-.477.205-.848.482-1.112.831-.264.341-.396.767-.396 1.279 0 .741.268 1.308.805 1.7.546.383 1.236.575 2.071.575zm11.274-2.173h5.28c.025.648.315 1.159.869 1.534s1.27.563 2.148.563c.886 0 1.632-.205 2.237-.614.605-.418.908-1.014.908-1.79 0-.477-.12-.891-.358-1.24-.239-.358-.571-.639-.997-.844-.427-.204-.921-.307-1.483-.307h-2.826v-3.566h2.826c.843 0 1.491-.196 1.943-.588.46-.392.69-.882.69-1.471 0-.664-.239-1.197-.716-1.598-.469-.409-1.103-.613-1.905-.613-.809 0-1.483.183-2.02.55-.528.357-.801.826-.818 1.406h-5.254c.017-1.176.371-2.195 1.061-3.056.699-.86 1.636-1.525 2.813-1.9939 1.184-.4688 2.51-.7031 3.975-.7031 1.603 0 2.983.2258 4.143.6775 1.167.4435 2.062 1.0785 2.684 1.9045.631.827.946 1.811.946 2.953 0 1.04-.341 1.91-1.023 2.608-.681.699-1.636 1.198-2.863 1.496v.205c.809.051 1.542.268 2.199.652.656.383 1.18.912 1.572 1.585.392.665.588 1.453.588 2.365 0 1.219-.358 2.263-1.074 3.132-.707.869-1.687 1.538-2.94 2.007-1.244.46-2.672.691-4.283.691-1.568 0-2.974-.226-4.218-.678-1.236-.46-2.221-1.134-2.954-2.02-.724-.886-1.107-1.969-1.15-3.247zm30.127-.46 5.318-13.6154h4.142l-7.657 19.6364h-3.618l-7.479-19.6364h4.129zm-6.405-13.6154v19.6364h-5.203v-19.6364zm13.078 19.6364v-19.6364h5.14v19.6364zm16.861.384c-2.02 0-3.759-.41-5.216-1.228-1.449-.826-2.566-1.994-3.35-3.503-.784-1.517-1.176-3.311-1.176-5.382 0-2.02.392-3.792 1.176-5.318.784-1.525 1.888-2.714 3.311-3.567 1.432-.8519 3.111-1.278 5.037-1.278 1.296 0 2.502.2088 3.618.6264 1.125.4086 2.105 1.0266 2.941 1.8536.843.827 1.5 1.867 1.968 3.119.469 1.245.704 2.702.704 4.373v1.495h-16.581v-3.375h11.454c0-.784-.17-1.478-.511-2.084-.341-.605-.814-1.078-1.419-1.419-.597-.349-1.292-.524-2.084-.524-.827 0-1.56.192-2.199.576-.631.375-1.125.882-1.483 1.521-.358.631-.541 1.334-.55 2.109v3.209c0 .972.179 1.811.537 2.519.367.707.882 1.252 1.547 1.636.665.383 1.453.575 2.365.575.605 0 1.159-.085 1.662-.256.503-.17.933-.426 1.291-.767.358-.34.631-.758.819-1.252l5.036.332c-.255 1.21-.779 2.267-1.572 3.17-.784.895-1.798 1.594-3.043 2.097-1.235.494-2.663.742-4.282.742zm11.126 6.98v-27.0004h5.37v3.2984h.243c.238-.528.584-1.065 1.035-1.611.46-.554 1.057-1.014 1.79-1.3805.741-.375 1.662-.5625 2.761-.5625 1.432 0 2.753.375 3.963 1.125 1.211.741 2.178 1.862 2.902 3.362.725 1.492 1.087 3.362 1.087 5.612 0 2.191-.354 4.04-1.061 5.549-.699 1.5-1.653 2.637-2.864 3.413-1.201.767-2.548 1.151-4.039 1.151-1.057 0-1.956-.175-2.698-.525-.733-.349-1.334-.788-1.802-1.316-.469-.537-.827-1.078-1.074-1.624h-.166v10.509zm5.331-17.182c0 1.167.162 2.186.486 3.055.324.87.793 1.547 1.406 2.033.614.477 1.36.716 2.238.716.886 0 1.636-.243 2.25-.729.613-.494 1.078-1.176 1.393-2.045.324-.878.486-1.888.486-3.03 0-1.134-.158-2.131-.473-2.992-.315-.86-.78-1.534-1.394-2.02-.613-.485-1.367-.728-2.262-.728-.887 0-1.637.234-2.25.703-.605.469-1.07 1.133-1.394 1.994s-.486 1.875-.486 3.043zm21.61 10.189c-1.253 0-2.369-.218-3.349-.652-.98-.443-1.756-1.095-2.327-1.956-.562-.87-.844-1.952-.844-3.247 0-1.091.201-2.007.601-2.749.401-.741.946-1.338 1.636-1.79.691-.451 1.475-.792 2.353-1.022.886-.231 1.815-.393 2.787-.486 1.142-.12 2.062-.23 2.761-.333.699-.11 1.206-.272 1.521-.485.316-.214.473-.529.473-.946v-.077c0-.81-.255-1.436-.767-1.879-.503-.444-1.218-.665-2.147-.665-.981 0-1.76.217-2.34.652-.579.426-.963.963-1.15 1.611l-5.037-.409c.255-1.194.758-2.225 1.508-3.094.75-.878 1.717-1.551 2.902-2.0201 1.193-.4773 2.574-.7159 4.142-.7159 1.091 0 2.135.1278 3.132.3835 1.006.2557 1.897.6515 2.672 1.1885.784.537 1.402 1.228 1.854 2.071.452.836.677 1.837.677 3.005v13.244h-5.164v-2.723h-.154c-.315.614-.737 1.155-1.265 1.624-.529.46-1.164.822-1.905 1.086-.742.256-1.598.384-2.57.384zm1.56-3.759c.801 0 1.508-.157 2.122-.473.614-.324 1.095-.758 1.445-1.304.349-.545.524-1.163.524-1.853v-2.084c-.171.111-.405.213-.703.307-.29.085-.618.166-.985.242-.366.069-.733.133-1.099.192-.367.051-.699.098-.997.141-.64.094-1.198.243-1.675.447-.477.205-.848.482-1.112.831-.265.341-.397.767-.397 1.279 0 .741.269 1.308.806 1.7.545.383 1.236.575 2.071.575zm19.176 3.388v-19.6364h17.169v19.6364h-5.204v-15.354h-6.826v15.354zm29.024.384c-2.02 0-3.758-.41-5.216-1.228-1.449-.826-2.565-1.994-3.349-3.503-.784-1.517-1.176-3.311-1.176-5.382 0-2.02.392-3.792 1.176-5.318.784-1.525 1.888-2.714 3.311-3.567 1.432-.8519 3.111-1.278 5.037-1.278 1.295 0 2.501.2088 3.618.6264 1.125.4086 2.105 1.0266 2.94 1.8536.844.827 1.5 1.867 1.969 3.119.468 1.245.703 2.702.703 4.373v1.495h-16.581v-3.375h11.454c0-.784-.17-1.478-.511-2.084-.341-.605-.814-1.078-1.419-1.419-.597-.349-1.291-.524-2.084-.524-.826 0-1.559.192-2.199.576-.63.375-1.125.882-1.483 1.521-.358.631-.541 1.334-.549 2.109v3.209c0 .972.179 1.811.537 2.519.366.707.882 1.252 1.546 1.636.665.383 1.454.575 2.366.575.605 0 1.159-.085 1.661-.256.503-.17.934-.426 1.292-.767.358-.34.63-.758.818-1.252l5.037.332c-.256 1.21-.78 2.267-1.573 3.17-.784.895-1.798 1.594-3.042 2.097-1.236.494-2.664.742-4.283.742zm11.127 6.98v-27.0004h5.369v3.2984h.243c.239-.528.584-1.065 1.036-1.611.46-.554 1.056-1.014 1.789-1.3805.742-.375 1.662-.5625 2.762-.5625 1.432 0 2.753.375 3.963 1.125 1.21.741 2.177 1.862 2.902 3.362.724 1.492 1.086 3.362 1.086 5.612 0 2.191-.353 4.04-1.061 5.549-.699 1.5-1.653 2.637-2.863 3.413-1.202.767-2.549 1.151-4.04 1.151-1.057 0-1.956-.175-2.698-.525-.732-.349-1.333-.788-1.802-1.316-.469-.537-.827-1.078-1.074-1.624h-.166v10.509zm5.331-17.182c0 1.167.162 2.186.486 3.055.323.87.792 1.547 1.406 2.033.613.477 1.359.716 2.237.716.886 0 1.636-.243 2.25-.729.614-.494 1.078-1.176 1.394-2.045.323-.878.485-1.888.485-3.03 0-1.134-.157-2.131-.473-2.992-.315-.86-.78-1.534-1.393-2.02-.614-.485-1.368-.728-2.263-.728-.886 0-1.636.234-2.25.703-.605.469-1.07 1.133-1.393 1.994-.324.861-.486 1.875-.486 3.043zm16.01 9.818v-19.6364h8.374c2.42 0 4.333.4603 5.74 1.3804 1.406.921 2.109 2.229 2.109 3.925 0 1.065-.396 1.952-1.189 2.659-.792.708-1.892 1.185-3.298 1.432 1.176.085 2.177.354 3.004.805.835.444 1.47 1.019 1.905 1.726.443.708.665 1.492.665 2.352 0 1.117-.299 2.076-.895 2.877-.588.801-1.453 1.415-2.595 1.841-1.134.426-2.519.639-4.155.639zm5.075-4.078h4.59c.758 0 1.351-.179 1.777-.537.434-.367.652-.865.652-1.496 0-.699-.218-1.248-.652-1.649-.426-.401-1.019-.601-1.777-.601h-4.59zm0-7.479h3.414c.545 0 1.01-.077 1.393-.23.392-.162.691-.392.895-.69.213-.299.32-.652.32-1.061 0-.605-.243-1.078-.729-1.419s-1.151-.512-1.994-.512h-3.299zm23.099 11.941c-1.985 0-3.703-.422-5.152-1.266-1.44-.852-2.552-2.037-3.336-3.554-.784-1.526-1.176-3.294-1.176-5.305 0-2.029.392-3.802 1.176-5.319.784-1.525 1.896-2.71 3.336-3.554 1.449-.8519 3.167-1.278 5.152-1.278 1.986 0 3.699.4261 5.14 1.278 1.448.844 2.565 2.029 3.349 3.554.784 1.517 1.176 3.29 1.176 5.319 0 2.011-.392 3.779-1.176 5.305-.784 1.517-1.901 2.702-3.349 3.554-1.441.844-3.154 1.266-5.14 1.266zm.026-4.219c.903 0 1.658-.256 2.263-.767.605-.52 1.061-1.228 1.368-2.122.315-.895.473-1.914.473-3.056s-.158-2.16-.473-3.055c-.307-.895-.763-1.603-1.368-2.122-.605-.52-1.36-.78-2.263-.78-.912 0-1.679.26-2.301.78-.614.519-1.078 1.227-1.394 2.122-.306.895-.46 1.913-.46 3.055s.154 2.161.46 3.056c.316.894.78 1.602 1.394 2.122.622.511 1.389.767 2.301.767zm25.189-15.8014v4.2824h-8.156v15.354h-5.293v-19.6364zm10.05 20.0204c-1.986 0-3.703-.422-5.152-1.266-1.44-.852-2.553-2.037-3.337-3.554-.784-1.526-1.176-3.294-1.176-5.305 0-2.029.392-3.802 1.176-5.319.784-1.525 1.897-2.71 3.337-3.554 1.449-.8519 3.166-1.278 5.152-1.278s3.699.4261 5.139 1.278c1.449.844 2.565 2.029 3.35 3.554.784 1.517 1.176 3.29 1.176 5.319 0 2.011-.392 3.779-1.176 5.305-.785 1.517-1.901 2.702-3.35 3.554-1.44.844-3.153 1.266-5.139 1.266zm.026-4.219c.903 0 1.657-.256 2.262-.767.605-.52 1.061-1.228 1.368-2.122.316-.895.473-1.914.473-3.056s-.157-2.16-.473-3.055c-.307-.895-.763-1.603-1.368-2.122-.605-.52-1.359-.78-2.262-.78-.912 0-1.679.26-2.302.78-.613.519-1.078 1.227-1.393 2.122-.307.895-.46 1.913-.46 3.055s.153 2.161.46 3.056c.315.894.78 1.602 1.393 2.122.623.511 1.39.767 2.302.767zm18.632 3.835v-19.6364h8.374c2.42 0 4.333.4603 5.74 1.3804 1.406.921 2.109 2.229 2.109 3.925 0 1.065-.396 1.952-1.189 2.659-.793.708-1.892 1.185-3.298 1.432 1.176.085 2.177.354 3.004.805.835.444 1.47 1.019 1.905 1.726.443.708.665 1.492.665 2.352 0 1.117-.299 2.076-.895 2.877-.588.801-1.453 1.415-2.595 1.841-1.134.426-2.519.639-4.155.639zm5.075-4.078h4.59c.758 0 1.351-.179 1.777-.537.434-.367.652-.865.652-1.496 0-.699-.218-1.248-.652-1.649-.426-.401-1.019-.601-1.777-.601h-4.59zm0-7.479h3.414c.545 0 1.01-.077 1.393-.23.392-.162.69-.392.895-.69.213-.299.32-.652.32-1.061 0-.605-.243-1.078-.729-1.419s-1.151-.512-1.994-.512h-3.299zm13.217 5.996h5.28c.026.648.315 1.159.869 1.534s1.27.563 2.148.563c.886 0 1.632-.205 2.237-.614.605-.418.908-1.014.908-1.79 0-.477-.119-.891-.358-1.24-.239-.358-.571-.639-.997-.844-.426-.204-.921-.307-1.483-.307h-2.825v-3.566h2.825c.844 0 1.491-.196 1.943-.588.46-.392.69-.882.69-1.471 0-.664-.238-1.197-.715-1.598-.469-.409-1.104-.613-1.905-.613-.81 0-1.483.183-2.02.55-.529.357-.801.826-.818 1.406h-5.255c.017-1.176.371-2.195 1.061-3.056.699-.86 1.637-1.525 2.813-1.9939 1.185-.4688 2.51-.7031 3.976-.7031 1.602 0 2.983.2258 4.142.6775 1.167.4435 2.062 1.0785 2.684 1.9045.631.827.947 1.811.947 2.953 0 1.04-.341 1.91-1.023 2.608-.682.699-1.637 1.198-2.864 1.496v.205c.81.051 1.543.268 2.199.652.656.383 1.18.912 1.572 1.585.393.665.589 1.453.589 2.365 0 1.219-.358 2.263-1.074 3.132-.708.869-1.688 1.538-2.941 2.007-1.244.46-2.672.691-4.282.691-1.569 0-2.975-.226-4.219-.678-1.236-.46-2.22-1.134-2.953-2.02-.725-.886-1.108-1.969-1.151-3.247zm32.186-6.43v4.282h-10.253v-4.282zm-8.464-7.6454v19.6364h-5.203v-19.6364zm11.877 0v19.6364h-5.165v-19.6364zm11.657 20.0204c-1.986 0-3.703-.422-5.152-1.266-1.44-.852-2.552-2.037-3.336-3.554-.785-1.526-1.177-3.294-1.177-5.305 0-2.029.392-3.802 1.177-5.319.784-1.525 1.896-2.71 3.336-3.554 1.449-.8519 3.166-1.278 5.152-1.278s3.699.4261 5.139 1.278c1.449.844 2.566 2.029 3.35 3.554.784 1.517 1.176 3.29 1.176 5.319 0 2.011-.392 3.779-1.176 5.305-.784 1.517-1.901 2.702-3.35 3.554-1.44.844-3.153 1.266-5.139 1.266zm.026-4.219c.903 0 1.657-.256 2.263-.767.605-.52 1.061-1.228 1.367-2.122.316-.895.473-1.914.473-3.056s-.157-2.16-.473-3.055c-.306-.895-.762-1.603-1.367-2.122-.606-.52-1.36-.78-2.263-.78-.912 0-1.679.26-2.301.78-.614.519-1.078 1.227-1.394 2.122-.307.895-.46 1.913-.46 3.055s.153 2.161.46 3.056c.316.894.78 1.602 1.394 2.122.622.511 1.389.767 2.301.767zm20.612 4.219c-2.011 0-3.741-.427-5.19-1.279-1.44-.861-2.548-2.054-3.324-3.579-.767-1.526-1.15-3.282-1.15-5.267 0-2.012.387-3.776 1.163-5.293.784-1.526 1.896-2.715 3.337-3.567 1.44-.8606 3.153-1.291 5.139-1.291 1.713 0 3.213.311 4.5.933s2.305 1.496 3.055 2.621 1.164 2.446 1.24 3.963h-5.139c-.145-.98-.528-1.768-1.151-2.365-.613-.605-1.419-.908-2.416-.908-.843 0-1.581.23-2.211.691-.623.451-1.108 1.112-1.458 1.981-.349.869-.524 1.922-.524 3.158 0 1.253.171 2.318.511 3.196.35.878.84 1.547 1.471 2.007.63.46 1.368.69 2.211.69.622 0 1.181-.128 1.675-.383.503-.256.916-.627 1.24-1.112.332-.495.55-1.087.652-1.777h5.139c-.085 1.5-.494 2.821-1.227 3.963-.724 1.133-1.726 2.02-3.004 2.659-1.279.639-2.792.959-4.539.959zm16.417-.013c-1.253 0-2.37-.218-3.35-.652-.98-.443-1.756-1.095-2.327-1.956-.562-.87-.843-1.952-.843-3.247 0-1.091.2-2.007.6-2.749.401-.741.946-1.338 1.637-1.79.69-.451 1.474-.792 2.352-1.022.886-.231 1.815-.393 2.787-.486 1.142-.12 2.063-.23 2.761-.333.699-.11 1.206-.272 1.522-.485.315-.214.473-.529.473-.946v-.077c0-.81-.256-1.436-.767-1.879-.503-.444-1.219-.665-2.148-.665-.98 0-1.76.217-2.34.652-.579.426-.963.963-1.15 1.611l-5.037-.409c.256-1.194.758-2.225 1.508-3.094.75-.878 1.718-1.551 2.902-2.0201 1.194-.4773 2.574-.7159 4.143-.7159 1.09 0 2.134.1278 3.132.3835 1.005.2557 1.896.6515 2.672 1.1885.784.537 1.401 1.228 1.853 2.071.452.836.678 1.837.678 3.005v13.244h-5.165v-2.723h-.153c-.316.614-.738 1.155-1.266 1.624-.528.46-1.163.822-1.905 1.086-.741.256-1.598.384-2.569.384zm1.559-3.759c.801 0 1.509-.157 2.122-.473.614-.324 1.095-.758 1.445-1.304.349-.545.524-1.163.524-1.853v-2.084c-.17.111-.405.213-.703.307-.29.085-.618.166-.984.242-.367.069-.733.133-1.1.192-.366.051-.699.098-.997.141-.639.094-1.197.243-1.675.447-.477.205-.848.482-1.112.831-.264.341-.396.767-.396 1.279 0 .741.268 1.308.805 1.7.546.383 1.236.575 2.071.575z" fill="#000"/><rect fill="#f7f7f7" height="295" rx="20" width="491" x="40" y="481"/><path d="m66.9723 499.909v13.091h-2.3523v-11.122h-5.7272v11.122h-2.3523v-13.091zm4.6365 13.091v-13.091h5.0113c.9461 0 1.7323.149 2.3587.448.6307.294 1.1016.696 1.4126 1.208.3154.511.4731 1.091.4731 1.738 0 .533-.1023.989-.3069 1.368-.2045.375-.4794.68-.8245.914-.3452.235-.7309.403-1.157.505v.128c.4645.026.9098.168 1.3359.428.4304.256.782.618 1.0547 1.087.2728.469.4091 1.035.4091 1.7 0 .678-.164 1.287-.4922 1.828-.3281.537-.8224.961-1.4829 1.272s-1.4915.467-2.4929.467zm2.3714-1.982h2.5504c.8608 0 1.4809-.164 1.8601-.492.3836-.332.5753-.758.5753-1.278 0-.388-.0959-.737-.2876-1.048-.1918-.316-.4645-.563-.8182-.742-.3537-.183-.7756-.275-1.2656-.275h-2.6144zm0-5.541h2.3459c.4091 0 .7777-.075 1.1058-.224.3282-.154.586-.369.7735-.646.1917-.281.2876-.613.2876-.997 0-.507-.179-.925-.5369-1.253-.3537-.328-.88-.492-1.5789-.492h-2.397zm12.5818 5.951c-.3878 0-.7202-.137-.9972-.41-.2769-.277-.4133-.609-.409-.997-.0043-.383.1321-.711.409-.984.277-.273.6094-.409.9972-.409.375 0 .701.136.978.409.2812.273.424.601.4283.984-.0043.26-.0725.497-.2046.71-.1278.213-.2983.383-.5114.511-.2088.124-.4389.186-.6903.186zm0-6.488c-.3878 0-.7202-.137-.9972-.409-.2769-.277-.4133-.61-.409-.998-.0043-.383.1321-.711.409-.984.277-.277.6094-.415.9972-.415.375 0 .701.138.978.415.2812.273.424.601.4283.984-.0043.256-.0725.49-.2046.704-.1278.213-.2983.383-.5114.511-.2088.128-.4389.192-.6903.192zm11.8346 8.06v-1.713l4.5444-4.455c.435-.439.797-.829 1.087-1.17s.507-.671.652-.991c.145-.319.217-.66.217-1.023 0-.413-.093-.767-.281-1.061-.187-.298-.445-.528-.773-.69-.329-.162-.701-.243-1.119-.243-.43 0-.808.09-1.131.269-.324.174-.576.424-.755.747-.174.324-.262.71-.262 1.157h-2.2561c0-.831.1896-1.553.5688-2.166.3793-.614.9013-1.089 1.5663-1.426.669-.337 1.436-.505 2.301-.505.878 0 1.649.164 2.314.492s1.18.778 1.547 1.349c.37.571.556 1.223.556 1.956 0 .49-.094.972-.281 1.445-.188.473-.518.997-.991 1.572-.469.575-1.127 1.272-1.975 2.09l-2.257 2.295v.089h5.702v1.982zm17.8184.249c-1.053 0-1.956-.266-2.71-.799-.75-.537-1.328-1.31-1.732-2.32-.401-1.014-.601-2.235-.601-3.663.004-1.427.206-2.642.607-3.643.405-1.006.982-1.773 1.732-2.301.754-.529 1.656-.793 2.704-.793s1.95.264 2.704.793c.754.528 1.332 1.295 1.732 2.301.405 1.006.607 2.22.607 3.643 0 1.432-.202 2.655-.607 3.669-.4 1.01-.978 1.782-1.732 2.314-.75.533-1.651.799-2.704.799zm0-2c.818 0 1.464-.403 1.937-1.209.477-.809.716-2 .716-3.573 0-1.039-.109-1.913-.326-2.62-.218-.708-.524-1.24-.921-1.598-.396-.363-.865-.544-1.406-.544-.814 0-1.457.405-1.93 1.215-.473.805-.712 1.988-.716 3.547-.005 1.044.1 1.922.313 2.634.217.711.524 1.248.92 1.611.397.358.868.537 1.413.537zm14.944-5.747v1.905h-5.894v-1.905zm3.751 7.498v-1.713l4.545-4.455c.434-.439.796-.829 1.086-1.17s.507-.671.652-.991c.145-.319.218-.66.218-1.023 0-.413-.094-.767-.282-1.061-.187-.298-.445-.528-.773-.69s-.701-.243-1.119-.243c-.43 0-.807.09-1.131.269-.324.174-.575.424-.754.747-.175.324-.262.71-.262 1.157h-2.257c0-.831.19-1.553.569-2.166.379-.614.901-1.089 1.566-1.426.669-.337 1.436-.505 2.301-.505.878 0 1.649.164 2.314.492s1.181.778 1.547 1.349c.371.571.556 1.223.556 1.956 0 .49-.094.972-.281 1.445-.188.473-.518.997-.991 1.572-.469.575-1.127 1.272-1.975 2.09l-2.256 2.295v.089h5.701v1.982zm17.524-13.27c.627.004 1.236.115 1.828.332.597.214 1.134.563 1.611 1.049.477.481.857 1.127 1.138 1.937.281.809.422 1.811.422 3.004.004 1.125-.115 2.131-.358 3.017-.239.882-.582 1.628-1.029 2.237-.448.609-.987 1.074-1.617 1.394-.631.319-1.341.479-2.129.479-.827 0-1.56-.162-2.199-.486-.635-.324-1.148-.767-1.54-1.329-.392-.563-.633-1.206-.723-1.931h2.333c.12.52.363.933.729 1.24.371.303.838.454 1.4.454.908 0 1.607-.394 2.097-1.182.49-.789.735-1.884.735-3.286h-.09c-.209.375-.479.699-.812.972-.332.268-.709.475-1.131.62-.418.145-.861.217-1.33.217-.767 0-1.457-.183-2.071-.55-.609-.366-1.093-.869-1.451-1.508-.353-.639-.532-1.37-.536-2.193 0-.852.196-1.617.588-2.294.396-.682.948-1.219 1.655-1.611.708-.397 1.534-.59 2.48-.582zm.007 1.918c-.461 0-.876.113-1.247.339-.366.221-.656.524-.869.907-.209.379-.313.803-.313 1.272.004.465.108.887.313 1.266.209.379.492.68.85.901.362.222.776.332 1.24.332.345 0 .667-.066.965-.198.299-.132.559-.315.78-.549.226-.239.401-.51.524-.812.128-.303.19-.622.186-.959 0-.447-.107-.861-.32-1.24-.209-.379-.496-.684-.863-.914-.362-.23-.778-.345-1.246-.345zm15.92 8.897v-.69c0-.507.106-.974.319-1.4.218-.426.533-.769.946-1.029.414-.26.914-.39 1.502-.39.606 0 1.113.13 1.522.39.409.256.718.597.927 1.023.213.426.319.895.319 1.406v.69c0 .508-.106.974-.319 1.4s-.527.769-.94 1.029c-.409.26-.912.39-1.509.39-.596 0-1.101-.13-1.514-.39-.414-.26-.727-.603-.94-1.029-.209-.426-.313-.892-.313-1.4zm1.668-.69v.69c0 .337.081.646.243.927.162.282.447.422.856.422.414 0 .697-.138.851-.415.157-.282.236-.593.236-.934v-.69c0-.341-.074-.652-.224-.933-.149-.286-.436-.428-.863-.428-.4 0-.684.142-.85.428-.166.281-.249.592-.249.933zm-8.322-6.801v-.69c0-.512.108-.98.326-1.407.217-.426.532-.767.946-1.022.413-.26.914-.39 1.502-.39.601 0 1.106.13 1.515.39.413.255.724.596.933 1.022.209.427.313.895.313 1.407v.69c0 .511-.106.98-.32 1.406-.208.422-.519.761-.933 1.017-.413.255-.916.383-1.508.383-.601 0-1.108-.128-1.522-.383-.409-.256-.72-.597-.933-1.023s-.319-.893-.319-1.4zm1.681-.69v.69c0 .341.079.652.236.933.162.277.448.416.857.416s.69-.139.843-.416c.158-.281.237-.592.237-.933v-.69c0-.341-.075-.652-.224-.934-.149-.285-.434-.428-.856-.428-.405 0-.688.143-.85.428-.162.286-.243.597-.243.934zm-.953 10.636 9-13.091h1.598l-9 13.091z" fill="#000" opacity=".6"/><path d="m55 729.5h455.991v-73.5c2.706 0-284.491-24.5-284.491-24.5l-171.5-31.5z" fill="url(#b)" opacity=".4"/><rect fill="#cacaca" height="10.2717" rx="5.13587" width="10.2717" x="506.188" y="650"/><path d="m509.5 656-280-25-174.5-31.5" stroke="#cacaca" stroke-width="4"/><path d="m344.074 714.443v24.358l-9.085-9.119-3.989 3.954 15.955 15.921 15.92-15.921-3.92-3.954-9.12 9.119v-24.358z" fill="#cacaca"/><path d="m344.074 714.443v24.358l-9.085-9.119-3.989 3.954 15.955 15.921 15.92-15.921-3.92-3.954-9.12 9.119v-24.358z" fill="#ff7474"/><path d="m390.705 714.091v34.909h-7.381v-27.903h-.205l-7.994 5.011v-6.546l8.642-5.471zm20.708 35.386c-2.546 0-4.813-.437-6.801-1.312-1.978-.887-3.54-2.103-4.688-3.648-1.136-1.557-1.722-3.352-1.756-5.386h7.432c.046.852.324 1.602.835 2.25.523.636 1.216 1.13 2.08 1.483.864.352 1.835.528 2.915.528 1.125 0 2.119-.199 2.983-.597.863-.397 1.539-.948 2.028-1.653s.733-1.517.733-2.437c0-.932-.261-1.756-.784-2.472-.511-.727-1.25-1.296-2.216-1.705-.955-.409-2.091-.613-3.409-.613h-3.256v-5.421h3.256c1.114 0 2.097-.193 2.949-.579.863-.387 1.534-.921 2.011-1.603.477-.693.716-1.5.716-2.42 0-.875-.21-1.642-.631-2.301-.409-.671-.988-1.193-1.738-1.568-.739-.375-1.603-.563-2.591-.563-1 0-1.915.182-2.744.546-.83.352-1.495.858-1.995 1.517s-.767 1.432-.801 2.318h-7.074c.034-2.011.608-3.784 1.722-5.318 1.113-1.534 2.613-2.733 4.5-3.597 1.898-.875 4.04-1.312 6.426-1.312 2.409 0 4.517.437 6.324 1.312s3.21 2.057 4.21 3.546c1.011 1.477 1.511 3.136 1.5 4.977.011 1.954-.597 3.585-1.824 4.892-1.216 1.307-2.801 2.136-4.756 2.489v.272c2.569.33 4.523 1.222 5.864 2.676 1.352 1.444 2.023 3.25 2.011 5.421.012 1.989-.562 3.756-1.721 5.301-1.148 1.545-2.733 2.761-4.756 3.648-2.023.886-4.341 1.329-6.954 1.329zm25.221-5.25-.188 1.875c-.148 1.5-.432 2.995-.852 4.483-.409 1.5-.841 2.858-1.296 4.074-.443 1.216-.801 2.171-1.074 2.864h-4.704c.17-.671.403-1.608.699-2.813.295-1.193.574-2.534.835-4.022.261-1.489.426-3.006.494-4.552l.086-1.909zm6.078 4.773v-5.318l12.426-11.506c1.057-1.023 1.944-1.943 2.66-2.761.727-.818 1.278-1.62 1.653-2.404.375-.795.562-1.653.562-2.573 0-1.023-.232-1.904-.698-2.643-.466-.75-1.103-1.323-1.909-1.721-.807-.409-1.722-.614-2.745-.614-1.068 0-2 .216-2.795.648-.796.432-1.409 1.051-1.841 1.858s-.648 1.767-.648 2.881h-7.006c0-2.285.517-4.267 1.552-5.949 1.034-1.682 2.483-2.983 4.346-3.904 1.864-.92 4.012-1.38 6.443-1.38 2.5 0 4.676.443 6.529 1.329 1.863.875 3.312 2.091 4.346 3.648s1.551 3.341 1.551 5.352c0 1.318-.261 2.619-.784 3.904-.511 1.284-1.426 2.71-2.744 4.278-1.318 1.557-3.176 3.426-5.574 5.608l-5.096 4.994v.239h14.659v6.034zm48.85-6.545v-1.841c0-1.398.296-2.682.887-3.853.602-1.181 1.471-2.125 2.608-2.829 1.148-.716 2.545-1.074 4.193-1.074 1.67 0 3.074.352 4.21 1.057 1.148.704 2.012 1.647 2.591 2.829.591 1.171.887 2.461.887 3.87v1.841c0 1.397-.296 2.687-.887 3.869-.591 1.17-1.46 2.108-2.608 2.812-1.148.716-2.545 1.074-4.193 1.074-1.67 0-3.074-.358-4.21-1.074-1.137-.704-2-1.642-2.591-2.812-.591-1.182-.887-2.472-.887-3.869zm4.961-1.841v1.841c0 .806.193 1.568.579 2.284.398.716 1.114 1.073 2.148 1.073s1.739-.352 2.114-1.056c.386-.705.579-1.472.579-2.301v-1.841c0-.83-.182-1.603-.545-2.319-.364-.715-1.08-1.073-2.148-1.073-1.023 0-1.733.358-2.131 1.073-.397.716-.596 1.489-.596 2.319zm-22.875-18.137v-1.841c0-1.409.301-2.699.903-3.869.602-1.182 1.472-2.125 2.608-2.829 1.148-.705 2.534-1.057 4.159-1.057 1.682 0 3.091.352 4.227 1.057 1.137.704 2 1.647 2.591 2.829.591 1.17.887 2.46.887 3.869v1.841c0 1.409-.301 2.699-.904 3.87-.591 1.17-1.46 2.108-2.608 2.812-1.136.693-2.534 1.04-4.193 1.04s-3.062-.352-4.21-1.057c-1.136-.716-2-1.653-2.591-2.812-.579-1.171-.869-2.455-.869-3.853zm4.994-1.841v1.841c0 .83.193 1.597.58 2.301.397.705 1.096 1.057 2.096 1.057 1.046 0 1.756-.352 2.131-1.057.386-.704.579-1.471.579-2.301v-1.841c0-.829-.181-1.602-.545-2.318s-1.085-1.074-2.165-1.074c-1.011 0-1.71.364-2.096 1.091-.387.727-.58 1.495-.58 2.301zm-2.744 28.364 24-34.909h4.466l-24 34.909z" fill="#000"/><path d="m62.125 586.219c-.7135-.011-1.4167-.141-2.1094-.391-.6875-.25-1.3125-.667-1.875-1.25s-1.013-1.367-1.3515-2.351c-.3334-.985-.5-2.214-.5-3.688 0-1.396.138-2.635.414-3.719.2813-1.083.6849-1.997 1.211-2.742.526-.75 1.1614-1.32 1.9062-1.711.7448-.39 1.5807-.586 2.5078-.586.9532 0 1.7995.188 2.5391.563s1.3385.893 1.7969 1.554c.4635.662.7578 1.414.8828 2.258h-2.3828c-.1615-.666-.4818-1.211-.961-1.633-.4791-.421-1.1041-.632-1.875-.632-1.1718 0-2.0859.51-2.7422 1.531-.651 1.021-.9791 2.44-.9843 4.258h.1172c.276-.453.6145-.839 1.0156-1.157.4062-.322.8594-.57 1.3594-.742.5052-.177 1.0364-.265 1.5937-.265.9271 0 1.7656.226 2.5156.679.7552.448 1.3568 1.068 1.8047 1.86.4479.791.6719 1.698.6719 2.718 0 1.021-.2318 1.946-.6953 2.774-.4584.828-1.1042 1.484-1.9375 1.969-.8334.479-1.8073.713-2.9219.703zm-.0078-2.032c.6146 0 1.1641-.151 1.6484-.453.4844-.302.8672-.708 1.1485-1.218.2812-.511.4218-1.081.4218-1.711 0-.615-.138-1.175-.414-1.68-.2709-.505-.6459-.906-1.125-1.203-.474-.297-1.0156-.445-1.625-.445-.4636 0-.8933.088-1.2891.265-.3906.177-.7344.422-1.0312.735-.2969.312-.5313.671-.7032 1.078-.1666.401-.25.825-.25 1.273 0 .599.1381 1.154.4141 1.664.2813.511.6641.922 1.1484 1.235.4896.307 1.0417.46 1.6563.46zm13.7559 2.032c-1.0729 0-2.0312-.185-2.875-.555-.8385-.37-1.5026-.883-1.9921-1.539-.4844-.661-.7448-1.427-.7813-2.297h2.4531c.0313.474.1901.886.4766 1.234.2917.344.6719.61 1.1406.797.4688.188.9896.282 1.5625.282.6302 0 1.1875-.11 1.6719-.329.4896-.218.8724-.523 1.1484-.914.2761-.395.4141-.851.4141-1.367 0-.536-.138-1.008-.4141-1.414-.2708-.411-.6692-.734-1.1953-.969-.5208-.234-1.151-.351-1.8906-.351h-1.3516v-1.969h1.3516c.5937 0 1.1146-.107 1.5625-.32.4531-.214.8073-.511 1.0625-.891.2552-.385.3828-.836.3828-1.351 0-.495-.112-.925-.3359-1.289-.2188-.37-.5313-.659-.9375-.868-.4011-.208-.875-.312-1.4219-.312-.5208 0-1.0078.096-1.4609.289-.448.187-.8125.458-1.0938.812-.2812.349-.4323.769-.4531 1.258h-2.336c.0261-.864.2813-1.625.7657-2.281.4896-.656 1.1354-1.169 1.9375-1.539s1.6927-.555 2.6718-.555c1.0261 0 1.9115.201 2.6563.602.75.396 1.3281.924 1.7344 1.586.4114.661.6146 1.385.6093 2.172.0053.895-.2447 1.656-.75 2.281-.5.625-1.1666 1.044-2 1.258v.125c1.0625.161 1.8855.583 2.4688 1.265.5885.683.8802 1.529.875 2.539.0052.881-.2396 1.67-.7344 2.368-.4896.697-1.1588 1.247-2.0078 1.648-.8489.396-1.8203.594-2.9141.594zm10.9845-2.407-.1172.852c-.0781.625-.2109 1.276-.3984 1.953-.1823.682-.3724 1.315-.5703 1.899-.1927.583-.3516 1.047-.4766 1.39h-1.6562c.0677-.323.1614-.76.2812-1.312.1198-.547.237-1.159.3516-1.836s.2005-1.367.2578-2.071l.0781-.875zm8.0685 2.407c-.9792 0-1.8594-.188-2.6406-.563-.7761-.38-1.3959-.901-1.8594-1.562-.4636-.662-.711-1.417-.7422-2.266h2.3437c.0573.688.362 1.253.9141 1.695.5521.443 1.2136.664 1.9844.664.6146 0 1.1588-.14 1.6328-.421.4792-.287.8542-.68 1.125-1.18.276-.5.4141-1.07.4141-1.711 0-.651-.1407-1.232-.4219-1.742-.2813-.511-.6693-.912-1.1641-1.203-.4896-.292-1.0521-.44-1.6875-.446-.4844 0-.9713.084-1.4609.25-.4896.167-.8854.386-1.1875.657l-2.211-.329.8985-8.062h8.7969v2.07h-6.7891l-.5078 4.477h.0937c.3125-.302.7266-.555 1.2422-.758.5209-.203 1.0781-.305 1.6719-.305.974 0 1.8411.232 2.6016.696.7656.463 1.3671 1.096 1.8046 1.898.4424.797.6614 1.714.6564 2.75.005 1.037-.229 1.961-.7032 2.774-.4688.812-1.1198 1.453-1.9532 1.921-.8281.464-1.7786.696-2.8515.696z" fill="#cfcfcf"/><path d="m472.287 640.219c-.979 0-1.86-.188-2.641-.563-.776-.38-1.396-.901-1.859-1.562-.464-.662-.711-1.417-.742-2.266h2.343c.058.688.362 1.253.914 1.695.553.443 1.214.664 1.985.664.614 0 1.159-.14 1.633-.421.479-.287.854-.68 1.125-1.18.276-.5.414-1.07.414-1.711 0-.651-.141-1.232-.422-1.742-.281-.511-.669-.912-1.164-1.203-.49-.292-1.052-.44-1.688-.446-.484 0-.971.084-1.461.25-.489.167-.885.386-1.187.657l-2.211-.329.898-8.062h8.797v2.07h-6.789l-.508 4.477h.094c.313-.302.727-.555 1.242-.758.521-.203 1.078-.305 1.672-.305.974 0 1.841.232 2.602.696.765.463 1.367 1.096 1.804 1.898.443.797.662 1.714.657 2.75.005 1.037-.23 1.961-.704 2.774-.468.812-1.119 1.453-1.953 1.921-.828.464-1.778.696-2.851.696zm13.709.047c-1.234-.006-2.289-.331-3.164-.977s-1.544-1.586-2.008-2.82c-.464-1.235-.695-2.722-.695-4.461 0-1.735.231-3.216.695-4.446.469-1.229 1.141-2.166 2.016-2.812.88-.646 1.932-.969 3.156-.969s2.273.326 3.148.977c.875.646 1.545 1.583 2.008 2.812.469 1.224.703 2.703.703 4.438 0 1.745-.232 3.234-.695 4.469-.464 1.229-1.133 2.169-2.008 2.82-.875.646-1.927.969-3.156.969zm0-2.086c1.083 0 1.93-.529 2.539-1.586.615-1.058.922-2.586.922-4.586 0-1.328-.141-2.451-.422-3.367-.276-.922-.675-1.62-1.195-2.094-.516-.479-1.131-.719-1.844-.719-1.078 0-1.925.531-2.539 1.594-.615 1.062-.925 2.591-.93 4.586 0 1.333.138 2.461.414 3.383.281.916.68 1.612 1.196 2.086.515.468 1.135.703 1.859.703zm10.898-.368-.117.852c-.078.625-.211 1.276-.398 1.953-.182.682-.373 1.315-.571 1.899-.192.583-.351 1.047-.476 1.39h-1.656c.067-.323.161-.76.281-1.312.12-.547.237-1.159.351-1.836.115-.677.201-1.367.258-2.071l.078-.875zm8.036 2.407c-1.073 0-2.032-.185-2.875-.555-.839-.37-1.503-.883-1.992-1.539-.485-.661-.745-1.427-.782-2.297h2.453c.032.474.19.886.477 1.234.292.344.672.61 1.141.797.468.188.989.282 1.562.282.63 0 1.188-.11 1.672-.329.49-.218.872-.523 1.148-.914.276-.395.414-.851.414-1.367 0-.536-.138-1.008-.414-1.414-.27-.411-.669-.734-1.195-.969-.521-.234-1.151-.351-1.891-.351h-1.351v-1.969h1.351c.594 0 1.115-.107 1.563-.32.453-.214.807-.511 1.062-.891.256-.385.383-.836.383-1.351 0-.495-.112-.925-.336-1.289-.218-.37-.531-.659-.937-.868-.401-.208-.875-.312-1.422-.312-.521 0-1.008.096-1.461.289-.448.187-.812.458-1.094.812-.281.349-.432.769-.453 1.258h-2.336c.026-.864.281-1.625.766-2.281.489-.656 1.135-1.169 1.937-1.539s1.693-.555 2.672-.555c1.026 0 1.912.201 2.656.602.75.396 1.329.924 1.735 1.586.411.661.614 1.385.609 2.172.005.895-.245 1.656-.75 2.281-.5.625-1.166 1.044-2 1.258v.125c1.063.161 1.886.583 2.469 1.265.588.683.88 1.529.875 2.539.005.881-.24 1.67-.734 2.368-.49.697-1.159 1.247-2.008 1.648-.849.396-1.821.594-2.914.594z" fill="#cfcfcf"/><rect fill="#f7f7f7" height="295" rx="20" width="491" x="40" y="794"/><path d="m66.9723 812.909v13.091h-2.3523v-11.122h-5.7272v11.122h-2.3523v-13.091zm4.6365 13.091v-13.091h5.0113c.9461 0 1.7323.149 2.3587.448.6307.294 1.1016.696 1.4126 1.208.3154.511.4731 1.091.4731 1.738 0 .533-.1023.989-.3069 1.368-.2045.375-.4794.68-.8245.914-.3452.235-.7309.403-1.157.505v.128c.4645.026.9098.168 1.3359.428.4304.256.782.618 1.0547 1.087.2728.469.4091 1.035.4091 1.7 0 .678-.164 1.287-.4922 1.828-.3281.537-.8224.961-1.4829 1.272s-1.4915.467-2.4929.467zm2.3714-1.982h2.5504c.8608 0 1.4809-.164 1.8601-.492.3836-.332.5753-.758.5753-1.278 0-.388-.0959-.737-.2876-1.048-.1918-.316-.4645-.563-.8182-.742-.3537-.183-.7756-.275-1.2656-.275h-2.6144zm0-5.541h2.3459c.4091 0 .7777-.075 1.1058-.224.3282-.154.586-.369.7735-.646.1917-.281.2876-.613.2876-.997 0-.507-.179-.925-.5369-1.253-.3537-.328-.88-.492-1.5789-.492h-2.397zm12.5818 5.951c-.3878 0-.7202-.137-.9972-.41-.2769-.277-.4133-.609-.409-.997-.0043-.383.1321-.711.409-.984.277-.273.6094-.409.9972-.409.375 0 .701.136.978.409.2812.273.424.601.4283.984-.0043.26-.0725.497-.2046.71-.1278.213-.2983.383-.5114.511-.2088.124-.4389.186-.6903.186zm0-6.488c-.3878 0-.7202-.137-.9972-.409-.2769-.277-.4133-.61-.409-.998-.0043-.383.1321-.711.409-.984.277-.277.6094-.415.9972-.415.375 0 .701.138.978.415.2812.273.424.601.4283.984-.0043.256-.0725.49-.2046.704-.1278.213-.2983.383-.5114.511-.2088.128-.4389.192-.6903.192zm11.5981 5.631v-1.886l5.5549-8.776h1.572v2.685h-.959l-3.739 5.925v.102h7.754v1.95zm6.2449 2.429v-3.004l.026-.844v-9.243h2.237v13.091zm12.619.249c-1.053 0-1.956-.266-2.711-.799-.75-.537-1.327-1.31-1.732-2.32-.4-1.014-.601-2.235-.601-3.663.005-1.427.207-2.642.608-3.643.404-1.006.982-1.773 1.732-2.301.754-.529 1.655-.793 2.704-.793 1.048 0 1.949.264 2.703.793.755.528 1.332 1.295 1.733 2.301.405 1.006.607 2.22.607 3.643 0 1.432-.202 2.655-.607 3.669-.401 1.01-.978 1.782-1.733 2.314-.75.533-1.651.799-2.703.799zm0-2c.818 0 1.463-.403 1.936-1.209.478-.809.716-2 .716-3.573 0-1.039-.108-1.913-.326-2.62-.217-.708-.524-1.24-.92-1.598-.396-.363-.865-.544-1.406-.544-.814 0-1.458.405-1.931 1.215-.473.805-.711 1.988-.716 3.547-.004 1.044.1 1.922.314 2.634.217.711.524 1.248.92 1.611.396.358.867.537 1.413.537zm14.943-5.747v1.905h-5.893v-1.905zm3.972 5.069v-1.886l5.555-8.776h1.572v2.685h-.959l-3.739 5.925v.102h7.753v1.95zm6.245 2.429v-3.004l.026-.844v-9.243h2.237v13.091zm12.324-13.27c.627.004 1.236.115 1.829.332.596.214 1.133.563 1.61 1.049.478.481.857 1.127 1.138 1.937.281.809.422 1.811.422 3.004.004 1.125-.115 2.131-.358 3.017-.239.882-.582 1.628-1.029 2.237s-.987 1.074-1.617 1.394c-.631.319-1.34.479-2.129.479-.826 0-1.559-.162-2.199-.486-.635-.324-1.148-.767-1.54-1.329-.392-.563-.633-1.206-.722-1.931h2.333c.119.52.362.933.728 1.24.371.303.838.454 1.4.454.908 0 1.607-.394 2.097-1.182.49-.789.735-1.884.735-3.286h-.09c-.208.375-.479.699-.811.972-.333.268-.71.475-1.132.62-.417.145-.861.217-1.329.217-.767 0-1.458-.183-2.071-.55-.61-.366-1.093-.869-1.451-1.508-.354-.639-.533-1.37-.537-2.193 0-.852.196-1.617.588-2.294.396-.682.948-1.219 1.655-1.611.708-.397 1.534-.59 2.48-.582zm.007 1.918c-.46 0-.876.113-1.247.339-.366.221-.656.524-.869.907-.209.379-.313.803-.313 1.272.004.465.109.887.313 1.266.209.379.492.68.85.901.362.222.776.332 1.24.332.345 0 .667-.066.966-.198.298-.132.558-.315.779-.549.226-.239.401-.51.524-.812.128-.303.19-.622.186-.959 0-.447-.107-.861-.32-1.24-.209-.379-.496-.684-.863-.914-.362-.23-.777-.345-1.246-.345zm15.92 8.897v-.69c0-.507.106-.974.32-1.4.217-.426.532-.769.946-1.029.413-.26.914-.39 1.502-.39.605 0 1.112.13 1.521.39.409.256.718.597.927 1.023.213.426.319.895.319 1.406v.69c0 .508-.106.974-.319 1.4s-.526.769-.94 1.029c-.409.26-.912.39-1.508.39-.597 0-1.102-.13-1.515-.39-.414-.26-.727-.603-.94-1.029-.209-.426-.313-.892-.313-1.4zm1.668-.69v.69c0 .337.081.646.243.927.162.282.448.422.857.422.413 0 .696-.138.85-.415.157-.282.236-.593.236-.934v-.69c0-.341-.074-.652-.223-.933-.15-.286-.437-.428-.863-.428-.401 0-.684.142-.85.428-.167.281-.25.592-.25.933zm-8.322-6.801v-.69c0-.512.108-.98.326-1.407.217-.426.532-.767.946-1.022.413-.26.914-.39 1.502-.39.601 0 1.106.13 1.515.39.413.255.724.596.933 1.022.209.427.313.895.313 1.407v.69c0 .511-.106.98-.319 1.406-.209.422-.52.761-.934 1.017-.413.255-.916.383-1.508.383-.601 0-1.108-.128-1.521-.383-.409-.256-.721-.597-.934-1.023s-.319-.893-.319-1.4zm1.681-.69v.69c0 .341.079.652.236.933.162.277.448.416.857.416s.69-.139.844-.416c.157-.281.236-.592.236-.933v-.69c0-.341-.074-.652-.224-.934-.149-.285-.434-.428-.856-.428-.405 0-.688.143-.85.428-.162.286-.243.597-.243.934zm-.953 10.636 9-13.091h1.598l-9 13.091z" fill="#000" opacity=".6"/><path d="m55 1042.5h455.991v-73.5c2.706 0-325.491-21.5-325.491-21.5l-130.5-34.5z" fill="url(#c)" opacity=".4"/><rect fill="#cacaca" height="10.2717" rx="5.13587" width="10.2717" x="506.188" y="963"/><path d="m509.5 969-320.674-21.312c-1.88-.125-3.742-.433-5.562-.919l-128.264-34.269" stroke="#cacaca" stroke-width="4"/><path d="m343.074 1027.44v24.36l-9.085-9.12-3.989 3.96 15.955 15.92 15.92-15.92-3.92-3.96-9.12 9.12v-24.36z" fill="#cacaca"/><path d="m343.074 1027.44v24.36l-9.085-9.12-3.989 3.96 15.955 15.92 15.92-15.92-3.92-3.96-9.12 9.12v-24.36z" fill="#ff7474"/><path d="m389.439 1027.09v34.91h-7.381v-27.9h-.204l-7.995 5.01v-6.55l8.642-5.47zm7.276 28.77v-5.81l14.574-22.96h5.011v8.05h-2.965l-9.188 14.54v.27h20.71v5.91zm16.756 6.14v-7.91l.136-2.57v-24.43h6.921v34.91zm23.116-4.77-.188 1.87c-.148 1.5-.432 3-.852 4.49-.409 1.5-.841 2.85-1.296 4.07-.443 1.22-.801 2.17-1.073 2.86h-4.705c.17-.67.403-1.61.699-2.81.295-1.19.574-2.53.835-4.02s.426-3.01.494-4.55l.086-1.91zm18.07 5.25c-1.795-.01-3.528-.32-5.199-.91-1.659-.59-3.148-1.55-4.466-2.88s-2.363-3.09-3.136-5.28c-.762-2.19-1.142-4.89-1.142-8.08.011-2.93.346-5.55 1.005-7.86.671-2.32 1.625-4.28 2.864-5.9 1.25-1.61 2.744-2.84 4.483-3.68 1.739-.85 3.688-1.28 5.847-1.28 2.329 0 4.386.46 6.17 1.37 1.784.89 3.216 2.12 4.296 3.66 1.09 1.55 1.75 3.28 1.977 5.2h-7.279c-.284-1.22-.88-2.17-1.789-2.86-.909-.7-2.034-1.04-3.375-1.04-2.273 0-4 .99-5.182 2.96-1.171 1.98-1.767 4.67-1.79 8.07h.239c.522-1.04 1.227-1.92 2.113-2.65.898-.73 1.915-1.3 3.051-1.68 1.148-.4 2.358-.6 3.631-.6 2.068 0 3.909.49 5.523 1.47 1.614.96 2.886 2.29 3.818 3.98.932 1.7 1.398 3.63 1.398 5.82 0 2.36-.551 4.46-1.654 6.3-1.091 1.84-2.619 3.29-4.585 4.33-1.954 1.04-4.227 1.55-6.818 1.54zm-.034-5.8c1.136 0 2.153-.27 3.051-.82.898-.54 1.602-1.28 2.114-2.21.511-.93.767-1.98.767-3.14s-.256-2.2-.767-3.12c-.5-.92-1.194-1.65-2.08-2.2-.886-.54-1.898-.81-3.034-.81-.852 0-1.642.15-2.369.47-.716.32-1.347.76-1.892 1.33-.534.57-.955 1.23-1.262 1.98-.307.74-.46 1.53-.46 2.37 0 1.12.256 2.15.767 3.08.523.94 1.227 1.68 2.114 2.24.897.55 1.915.83 3.051.83zm36.939-1.23v-1.84c0-1.39.296-2.68.887-3.85.602-1.18 1.471-2.12 2.608-2.83 1.148-.71 2.545-1.07 4.193-1.07 1.67 0 3.074.35 4.21 1.05 1.148.71 2.012 1.65 2.591 2.83.591 1.17.887 2.46.887 3.87v1.84c0 1.4-.296 2.69-.887 3.87-.591 1.17-1.46 2.11-2.608 2.82s-2.545 1.07-4.193 1.07c-1.67 0-3.074-.36-4.21-1.07-1.137-.71-2-1.65-2.591-2.82-.591-1.18-.887-2.47-.887-3.87zm4.961-1.84v1.84c0 .81.193 1.57.579 2.29.398.71 1.114 1.07 2.148 1.07s1.739-.35 2.114-1.05c.386-.71.579-1.48.579-2.31v-1.84c0-.83-.182-1.6-.545-2.31-.364-.72-1.08-1.08-2.148-1.08-1.023 0-1.733.36-2.131 1.08-.397.71-.596 1.48-.596 2.31zm-22.875-18.13v-1.84c0-1.41.301-2.7.903-3.87.602-1.18 1.472-2.13 2.608-2.83 1.148-.71 2.534-1.06 4.159-1.06 1.682 0 3.091.35 4.227 1.06 1.137.7 2 1.65 2.591 2.83.591 1.17.887 2.46.887 3.87v1.84c0 1.41-.301 2.7-.904 3.87-.591 1.17-1.46 2.1-2.608 2.81-1.136.69-2.534 1.04-4.193 1.04s-3.062-.35-4.21-1.06c-1.136-.71-2-1.65-2.591-2.81-.579-1.17-.869-2.46-.869-3.85zm4.994-1.84v1.84c0 .83.193 1.59.58 2.3.397.7 1.096 1.06 2.096 1.06 1.046 0 1.756-.36 2.131-1.06.386-.71.579-1.47.579-2.3v-1.84c0-.83-.181-1.61-.545-2.32-.364-.72-1.085-1.08-2.165-1.08-1.011 0-1.71.37-2.096 1.1-.387.72-.58 1.49-.58 2.3zm-2.744 28.36 24-34.91h4.466l-24 34.91z" fill="#000"/><path d="m57.0781 899 6.9844-13.813v-.117h-8.0781v-2.07h10.5781v2.141l-6.9609 13.859zm17.2208.219c-.7135-.011-1.4166-.141-2.1093-.391-.6875-.25-1.3125-.667-1.875-1.25s-1.0131-1.367-1.3516-2.351c-.3333-.985-.5-2.214-.5-3.688 0-1.396.138-2.635.4141-3.719.2812-1.083.6849-1.997 1.2109-2.742.526-.75 1.1615-1.32 1.9062-1.711.7448-.39 1.5808-.586 2.5079-.586.9531 0 1.7994.188 2.539.563s1.3386.893 1.7969 1.554c.4635.662.7578 1.414.8828 2.258h-2.3828c-.1615-.666-.4818-1.211-.9609-1.633-.4792-.421-1.1042-.632-1.875-.632-1.1719 0-2.086.51-2.7422 1.531-.6511 1.021-.9792 2.44-.9844 4.258h.1172c.276-.453.6146-.839 1.0156-1.157.4063-.322.8594-.57 1.3594-.742.5052-.177 1.0364-.265 1.5937-.265.9271 0 1.7657.226 2.5157.679.7552.448 1.3567 1.068 1.8046 1.86.448.791.6719 1.698.6719 2.718 0 1.021-.2318 1.946-.6953 2.774-.4583.828-1.1042 1.484-1.9375 1.969-.8333.479-1.8073.713-2.9219.703zm-.0078-2.032c.6146 0 1.1641-.151 1.6485-.453.4843-.302.8671-.708 1.1484-1.218.2812-.511.4219-1.081.4219-1.711 0-.615-.1381-1.175-.4141-1.68-.2708-.505-.6458-.906-1.125-1.203-.474-.297-1.0156-.445-1.625-.445-.4635 0-.8932.088-1.2891.265-.3906.177-.7343.422-1.0312.735-.2969.312-.5313.671-.7031 1.078-.1667.401-.25.825-.25 1.273 0 .599.138 1.154.414 1.664.2813.511.6641.922 1.1485 1.235.4896.307 1.0416.46 1.6562.46zm10.5255-.375-.1172.852c-.0781.625-.2109 1.276-.3984 1.953-.1823.682-.3724 1.315-.5703 1.899-.1927.583-.3516 1.047-.4766 1.39h-1.6562c.0677-.323.1614-.76.2812-1.312.1198-.547.237-1.159.3516-1.836s.2005-1.367.2578-2.071l.0781-.875zm7.1818-13.812v16h-2.4219v-13.578h-.0938l-3.8281 2.5v-2.313l3.9922-2.609z" fill="#cfcfcf"/><path d="m476.609 953.219c-.713-.011-1.417-.141-2.109-.391-.688-.25-1.313-.667-1.875-1.25-.563-.583-1.013-1.367-1.352-2.351-.333-.985-.5-2.214-.5-3.688 0-1.396.138-2.635.414-3.719.281-1.083.685-1.997 1.211-2.742.526-.75 1.162-1.32 1.906-1.711.745-.39 1.581-.586 2.508-.586.953 0 1.8.188 2.539.563.74.375 1.339.893 1.797 1.554.464.662.758 1.414.883 2.258h-2.383c-.161-.666-.482-1.211-.961-1.633-.479-.421-1.104-.632-1.875-.632-1.172 0-2.086.51-2.742 1.531-.651 1.021-.979 2.44-.984 4.258h.117c.276-.453.614-.839 1.015-1.157.407-.322.86-.57 1.36-.742.505-.177 1.036-.265 1.594-.265.927 0 1.765.226 2.515.679.755.448 1.357 1.068 1.805 1.86.448.791.672 1.698.672 2.718 0 1.021-.232 1.946-.696 2.774-.458.828-1.104 1.484-1.937 1.969-.833.479-1.807.713-2.922.703zm-.008-2.032c.615 0 1.164-.151 1.649-.453.484-.302.867-.708 1.148-1.218.281-.511.422-1.081.422-1.711 0-.615-.138-1.175-.414-1.68-.271-.505-.646-.906-1.125-1.203-.474-.297-1.016-.445-1.625-.445-.464 0-.893.088-1.289.265-.391.177-.734.422-1.031.735-.297.312-.532.671-.703 1.078-.167.401-.25.825-.25 1.273 0 .599.138 1.154.414 1.664.281.511.664.922 1.148 1.235.49.307 1.042.46 1.656.46zm14.256-14.187v16h-2.422v-13.578h-.093l-3.829 2.5v-2.313l3.993-2.609zm6.252 13.812-.117.852c-.078.625-.211 1.276-.398 1.953-.183.682-.373 1.315-.571 1.899-.192.583-.351 1.047-.476 1.39h-1.656c.067-.323.161-.76.281-1.312.12-.547.237-1.159.351-1.836.115-.677.201-1.367.258-2.071l.078-.875zm8.069 2.407c-.979 0-1.86-.188-2.641-.563-.776-.38-1.396-.901-1.859-1.562-.464-.662-.711-1.417-.742-2.266h2.343c.058.688.362 1.253.914 1.695.552.443 1.214.664 1.985.664.614 0 1.159-.14 1.633-.421.479-.287.854-.68 1.125-1.18.276-.5.414-1.07.414-1.711 0-.651-.141-1.232-.422-1.742-.282-.511-.67-.912-1.164-1.203-.49-.292-1.052-.44-1.688-.446-.484 0-.971.084-1.461.25-.489.167-.885.386-1.187.657l-2.211-.329.898-8.062h8.797v2.07h-6.789l-.508 4.477h.094c.312-.302.727-.555 1.242-.758.521-.203 1.078-.305 1.672-.305.974 0 1.841.232 2.602.696.765.463 1.367 1.096 1.804 1.898.443.797.662 1.714.657 2.75.005 1.037-.23 1.961-.704 2.774-.468.812-1.119 1.453-1.953 1.921-.828.464-1.778.696-2.851.696z" fill="#cfcfcf"/><rect fill="#f7f7f7" height="295" rx="20" width="1000" x="40" y="168"/><path d="m66.9723 189.909v13.091h-2.3523v-11.122h-5.7272v11.122h-2.3523v-13.091zm4.6365 13.091v-13.091h5.0113c.9461 0 1.7323.149 2.3587.448.6307.294 1.1016.696 1.4126 1.208.3154.511.4731 1.091.4731 1.738 0 .533-.1023.989-.3069 1.368-.2045.375-.4794.68-.8245.914-.3452.235-.7309.403-1.157.505v.128c.4645.026.9098.168 1.3359.428.4304.256.782.618 1.0547 1.087.2728.469.4091 1.035.4091 1.7 0 .678-.164 1.287-.4922 1.828-.3281.537-.8224.961-1.4829 1.272s-1.4915.467-2.4929.467zm2.3714-1.982h2.5504c.8608 0 1.4809-.164 1.8601-.492.3836-.332.5753-.758.5753-1.278 0-.388-.0959-.737-.2876-1.048-.1918-.316-.4645-.563-.8182-.742-.3537-.183-.7756-.275-1.2656-.275h-2.6144zm0-5.541h2.3459c.4091 0 .7777-.075 1.1058-.224.3282-.154.586-.369.7735-.646.1917-.281.2876-.613.2876-.997 0-.507-.179-.925-.5369-1.253-.3537-.328-.88-.492-1.5789-.492h-2.397zm12.5818 5.951c-.3878 0-.7202-.137-.9972-.41-.2769-.277-.4133-.609-.409-.997-.0043-.383.1321-.711.409-.984.277-.273.6094-.409.9972-.409.375 0 .701.136.978.409.2812.273.424.601.4283.984-.0043.26-.0725.497-.2046.71-.1278.213-.2983.383-.5114.511-.2088.124-.4389.186-.6903.186zm0-6.488c-.3878 0-.7202-.137-.9972-.409-.2769-.277-.4133-.61-.409-.998-.0043-.383.1321-.711.409-.984.277-.277.6094-.415.9972-.415.375 0 .701.138.978.415.2812.273.424.601.4283.984-.0043.256-.0725.49-.2046.704-.1278.213-.2983.383-.5114.511-.2088.128-.4389.192-.6903.192zm17.159-5.031v13.091h-2.371v-10.783h-.077l-3.0618 1.956v-2.174l3.2538-2.09zm9.675 13.27c-.852 0-1.615-.16-2.288-.479-.674-.324-1.208-.767-1.605-1.33-.392-.562-.6-1.206-.626-1.93h2.301c.043.537.275.975.697 1.316.422.337.929.505 1.521.505.465 0 .878-.106 1.24-.319s.648-.509.857-.889c.209-.379.311-.812.307-1.297.004-.495-.101-.934-.314-1.317-.213-.384-.505-.684-.875-.901-.371-.222-.797-.333-1.279-.333-.392-.004-.777.068-1.157.218-.379.149-.679.345-.901.588l-2.141-.352.684-6.75h7.593v1.982h-5.631l-.377 3.471h.077c.242-.286.585-.523 1.029-.71.443-.192.929-.288 1.457-.288.793 0 1.5.188 2.122.563.622.371 1.112.882 1.47 1.534s.537 1.398.537 2.237c0 .865-.2 1.637-.601 2.314-.396.673-.948 1.204-1.655 1.592-.703.383-1.517.575-2.442.575zm14.616-7.677v1.905h-5.893v-1.905zm9.533-5.593v13.091h-2.371v-10.783h-.077l-3.062 1.956v-2.174l3.254-2.09zm9.669-.179c.626.004 1.235.115 1.828.332.596.214 1.133.563 1.61 1.049.478.481.857 1.127 1.138 1.937.282.809.422 1.811.422 3.004.004 1.125-.115 2.131-.358 3.017-.238.882-.581 1.628-1.029 2.237-.447.609-.986 1.074-1.617 1.394-.631.319-1.34.479-2.129.479-.826 0-1.559-.162-2.199-.486-.634-.324-1.148-.767-1.54-1.329-.392-.563-.633-1.206-.722-1.931h2.333c.119.52.362.933.728 1.24.371.303.838.454 1.4.454.908 0 1.607-.394 2.097-1.182.49-.789.735-1.884.735-3.286h-.089c-.209.375-.48.699-.812.972-.333.268-.71.475-1.132.62-.417.145-.86.217-1.329.217-.767 0-1.458-.183-2.071-.55-.61-.366-1.093-.869-1.451-1.508-.354-.639-.533-1.37-.537-2.193 0-.852.196-1.617.588-2.294.396-.682.948-1.219 1.655-1.611.708-.397 1.535-.59 2.481-.582zm.006 1.918c-.46 0-.876.113-1.246.339-.367.221-.657.524-.87.907-.209.379-.313.803-.313 1.272.004.465.109.887.313 1.266.209.379.492.68.85.901.363.222.776.332 1.24.332.346 0 .667-.066.966-.198.298-.132.558-.315.779-.549.226-.239.401-.51.525-.812.127-.303.189-.622.185-.959 0-.447-.107-.861-.32-1.24-.208-.379-.496-.684-.863-.914-.362-.23-.777-.345-1.246-.345zm15.92 8.897v-.69c0-.507.107-.974.32-1.4.217-.426.532-.769.946-1.029.413-.26.914-.39 1.502-.39.605 0 1.112.13 1.521.39.409.256.718.597.927 1.023.213.426.319.895.319 1.406v.69c0 .508-.106.974-.319 1.4s-.526.769-.94 1.029c-.409.26-.912.39-1.508.39-.597 0-1.102-.13-1.515-.39-.414-.26-.727-.603-.94-1.029-.209-.426-.313-.892-.313-1.4zm1.668-.69v.69c0 .337.081.646.243.927.162.282.448.422.857.422.413 0 .696-.138.85-.415.158-.282.236-.593.236-.934v-.69c0-.341-.074-.652-.223-.933-.149-.286-.437-.428-.863-.428-.401 0-.684.142-.85.428-.167.281-.25.592-.25.933zm-8.322-6.801v-.69c0-.512.109-.98.326-1.407.217-.426.533-.767.946-1.022.413-.26.914-.39 1.502-.39.601 0 1.106.13 1.515.39.413.255.724.596.933 1.022.209.427.313.895.313 1.407v.69c0 .511-.106.98-.319 1.406-.209.422-.52.761-.933 1.017-.414.255-.917.383-1.509.383-.601 0-1.108-.128-1.521-.383-.409-.256-.72-.597-.934-1.023-.213-.426-.319-.893-.319-1.4zm1.681-.69v.69c0 .341.079.652.236.933.162.277.448.416.857.416s.69-.139.844-.416c.157-.281.236-.592.236-.933v-.69c0-.341-.074-.652-.223-.934-.15-.285-.435-.428-.857-.428-.405 0-.688.143-.85.428-.162.286-.243.597-.243.934zm-.952 10.636 9-13.091h1.598l-9 13.091z" fill="#000" opacity=".6"/><path d="m1019.95 416.5h-964.95v-110.5l441.5-5.5s517.83-32.781 523.45-33.488v-.012c.07 0 .06.004 0 .012z" fill="url(#d)" opacity=".4"/><rect fill="#04b34a" height="10.2717" rx="5.13587" width="10.2717" x="1015.19" y="262"/><path d="m1017.5 268-511.5 32.5-451 6" stroke="#04b34a" stroke-width="4"/><path d="m877.074 436.557v-24.358l-9.085 9.119-3.989-3.954 15.955-15.921 15.92 15.921-3.92 3.954-9.12-9.119v24.358z" fill="#04b34a"/><path d="m921.009 436.477c-2.409 0-4.557-.443-6.443-1.329-1.875-.887-3.364-2.108-4.466-3.665s-1.676-3.341-1.721-5.352h7.159c.079 1.352.647 2.449 1.704 3.289 1.057.841 2.313 1.262 3.767 1.262 1.159 0 2.182-.256 3.068-.767.898-.523 1.597-1.245 2.097-2.165.511-.932.767-2 .767-3.205 0-1.227-.261-2.306-.784-3.238-.511-.932-1.222-1.659-2.131-2.182s-1.949-.79-3.119-.801c-1.023 0-2.017.21-2.983.631-.955.42-1.699.994-2.233 1.721l-6.562-1.176 1.653-18.409h21.341v6.034h-15.256l-.903 8.744h.204c.614-.863 1.54-1.579 2.779-2.147 1.238-.569 2.625-.853 4.159-.853 2.102 0 3.977.495 5.625 1.483 1.648.989 2.949 2.347 3.903 4.074.955 1.716 1.426 3.693 1.415 5.932.011 2.352-.534 4.443-1.636 6.273-1.091 1.818-2.62 3.25-4.586 4.295-1.954 1.034-4.227 1.551-6.818 1.551zm24.531-5.25-.188 1.875c-.147 1.5-.432 2.995-.852 4.483-.409 1.5-.841 2.858-1.295 4.074-.444 1.216-.802 2.171-1.074 2.864h-4.705c.171-.671.404-1.608.699-2.813.295-1.193.574-2.534.835-4.022.262-1.489.426-3.006.495-4.552l.085-1.909zm17.695 5.25c-2.625 0-4.96-.426-7.006-1.278-2.034-.864-3.63-2.04-4.789-3.529-1.159-1.488-1.739-3.176-1.739-5.062 0-1.455.33-2.79.989-4.006.67-1.227 1.579-2.244 2.727-3.051 1.148-.818 2.432-1.341 3.852-1.568v-.239c-1.863-.375-3.375-1.278-4.534-2.71-1.159-1.443-1.739-3.119-1.739-5.028 0-1.807.529-3.415 1.586-4.824 1.056-1.421 2.505-2.534 4.346-3.341 1.853-.818 3.955-1.227 6.307-1.227s4.449.409 6.29 1.227c1.852.818 3.307 1.937 4.363 3.358 1.057 1.409 1.591 3.011 1.603 4.807-.012 1.92-.603 3.596-1.773 5.028s-2.67 2.335-4.5 2.71v.239c1.398.227 2.665.75 3.801 1.568 1.148.807 2.057 1.824 2.727 3.051.682 1.216 1.029 2.551 1.04 4.006-.011 1.886-.596 3.574-1.755 5.062-1.16 1.489-2.762 2.665-4.807 3.529-2.034.852-4.364 1.278-6.989 1.278zm0-5.42c1.171 0 2.193-.21 3.068-.631.875-.432 1.557-1.023 2.046-1.773.5-.761.75-1.636.75-2.625 0-1.011-.256-1.903-.767-2.676-.512-.784-1.205-1.397-2.08-1.841-.875-.454-1.881-.681-3.017-.681-1.125 0-2.131.227-3.017.681-.886.444-1.585 1.057-2.097 1.841-.5.773-.75 1.665-.75 2.676 0 .989.245 1.864.733 2.625.489.75 1.177 1.341 2.063 1.773.886.421 1.909.631 3.068.631zm0-15.597c.977 0 1.847-.199 2.608-.596.761-.398 1.358-.949 1.79-1.654.432-.704.648-1.517.648-2.437 0-.909-.216-1.705-.648-2.387-.432-.693-1.023-1.233-1.773-1.619-.75-.398-1.625-.597-2.625-.597-.989 0-1.864.199-2.625.597-.761.386-1.358.926-1.79 1.619-.42.682-.63 1.478-.63 2.387 0 .92.216 1.733.647 2.437.432.705 1.029 1.256 1.79 1.654.761.397 1.631.596 2.608.596zm37.325 13.995v-1.841c0-1.398.3-2.682.89-3.853.6-1.181 1.47-2.125 2.61-2.829 1.14-.716 2.54-1.074 4.19-1.074 1.67 0 3.07.352 4.21 1.057 1.15.704 2.01 1.647 2.59 2.829.59 1.171.89 2.461.89 3.87v1.841c0 1.397-.3 2.687-.89 3.869-.59 1.17-1.46 2.108-2.61 2.812-1.14.716-2.54 1.074-4.19 1.074-1.67 0-3.07-.358-4.21-1.074-1.14-.704-2-1.642-2.59-2.812-.59-1.182-.89-2.472-.89-3.869zm4.96-1.841v1.841c0 .806.2 1.568.58 2.284.4.716 1.12 1.073 2.15 1.073s1.74-.352 2.11-1.056c.39-.705.58-1.472.58-2.301v-1.841c0-.83-.18-1.603-.54-2.319-.37-.715-1.08-1.073-2.15-1.073-1.02 0-1.73.358-2.13 1.073-.4.716-.6 1.489-.6 2.319zm-22.872-18.137v-1.841c0-1.409.301-2.699.903-3.869.602-1.182 1.472-2.125 2.608-2.829 1.148-.705 2.534-1.057 4.159-1.057 1.682 0 3.091.352 4.227 1.057 1.137.704 2 1.647 2.591 2.829.591 1.17.887 2.46.887 3.869v1.841c0 1.409-.301 2.699-.904 3.87-.591 1.17-1.46 2.108-2.608 2.812-1.136.693-2.534 1.04-4.193 1.04s-3.062-.352-4.21-1.057c-1.136-.716-2-1.653-2.591-2.812-.579-1.171-.869-2.455-.869-3.853zm4.994-1.841v1.841c0 .83.193 1.597.58 2.301.397.705 1.096 1.057 2.096 1.057 1.046 0 1.756-.352 2.131-1.057.386-.704.579-1.471.579-2.301v-1.841c0-.829-.181-1.602-.545-2.318s-1.085-1.074-2.165-1.074c-1.011 0-1.71.364-2.096 1.091-.387.727-.58 1.495-.58 2.301zm-2.744 28.364 24.002-34.909h4.46l-23.996 34.909z" fill="#000"/><path d="m62.125 292.219c-.7135-.011-1.4167-.141-2.1094-.391-.6875-.25-1.3125-.667-1.875-1.25s-1.013-1.367-1.3515-2.351c-.3334-.985-.5-2.214-.5-3.688 0-1.396.138-2.635.414-3.719.2813-1.083.6849-1.997 1.211-2.742.526-.75 1.1614-1.32 1.9062-1.711.7448-.39 1.5807-.586 2.5078-.586.9532 0 1.7995.188 2.5391.563s1.3385.893 1.7969 1.554c.4635.662.7578 1.414.8828 2.258h-2.3828c-.1615-.666-.4818-1.211-.961-1.633-.4791-.421-1.1041-.632-1.875-.632-1.1718 0-2.0859.51-2.7422 1.531-.651 1.021-.9791 2.44-.9843 4.258h.1172c.276-.453.6145-.839 1.0156-1.157.4062-.322.8594-.57 1.3594-.742.5052-.177 1.0364-.265 1.5937-.265.9271 0 1.7656.226 2.5156.679.7552.448 1.3568 1.068 1.8047 1.86.4479.791.6719 1.698.6719 2.718 0 1.021-.2318 1.946-.6953 2.774-.4584.828-1.1042 1.484-1.9375 1.969-.8334.479-1.8073.713-2.9219.703zm-.0078-2.032c.6146 0 1.1641-.151 1.6484-.453.4844-.302.8672-.708 1.1485-1.218.2812-.511.4218-1.081.4218-1.711 0-.615-.138-1.175-.414-1.68-.2709-.505-.6459-.906-1.125-1.203-.474-.297-1.0156-.445-1.625-.445-.4636 0-.8933.088-1.2891.265-.3906.177-.7344.422-1.0312.735-.2969.312-.5313.671-.7032 1.078-.1666.401-.25.825-.25 1.273 0 .599.1381 1.154.4141 1.664.2813.511.6641.922 1.1484 1.235.4896.307 1.0417.46 1.6563.46zm14.2559-14.187v16h-2.4218v-13.578h-.0938l-3.8281 2.5v-2.313l3.9922-2.609z" fill="#cfcfcf"/><path d="m981.849 249.219c-.713-.011-1.416-.141-2.109-.391-.688-.25-1.313-.667-1.875-1.25-.563-.583-1.013-1.367-1.352-2.351-.333-.985-.5-2.214-.5-3.688 0-1.396.138-2.635.414-3.719.282-1.083.685-1.997 1.211-2.742.526-.75 1.162-1.32 1.907-1.711.744-.39 1.58-.586 2.507-.586.954 0 1.8.188 2.539.563.74.375 1.339.893 1.797 1.554.464.662.758 1.414.883 2.258h-2.383c-.161-.666-.481-1.211-.961-1.633-.479-.421-1.104-.632-1.875-.632-1.171 0-2.086.51-2.742 1.531-.651 1.021-.979 2.44-.984 4.258h.117c.276-.453.615-.839 1.016-1.157.406-.322.859-.57 1.359-.742.505-.177 1.037-.265 1.594-.265.927 0 1.765.226 2.515.679.756.448 1.357 1.068 1.805 1.86.448.791.672 1.698.672 2.718 0 1.021-.232 1.946-.695 2.774-.459.828-1.104 1.484-1.938 1.969-.833.479-1.807.713-2.922.703zm-.008-2.032c.615 0 1.165-.151 1.649-.453s.867-.708 1.148-1.218c.282-.511.422-1.081.422-1.711 0-.615-.138-1.175-.414-1.68-.271-.505-.646-.906-1.125-1.203-.474-.297-1.015-.445-1.625-.445-.463 0-.893.088-1.289.265-.391.177-.734.422-1.031.735-.297.312-.531.671-.703 1.078-.167.401-.25.825-.25 1.273 0 .599.138 1.154.414 1.664.281.511.664.922 1.148 1.235.49.307 1.042.46 1.656.46zm13.772 2.032c-.713-.011-1.417-.141-2.109-.391-.688-.25-1.313-.667-1.875-1.25-.563-.583-1.013-1.367-1.352-2.351-.333-.985-.5-2.214-.5-3.688 0-1.396.138-2.635.414-3.719.281-1.083.685-1.997 1.211-2.742.526-.75 1.162-1.32 1.906-1.711.745-.39 1.581-.586 2.508-.586.953 0 1.8.188 2.539.563.74.375 1.339.893 1.795 1.554.47.662.76 1.414.88 2.258h-2.378c-.161-.666-.482-1.211-.961-1.633-.479-.421-1.104-.632-1.875-.632-1.172 0-2.086.51-2.742 1.531-.651 1.021-.979 2.44-.984 4.258h.117c.276-.453.614-.839 1.015-1.157.407-.322.86-.57 1.36-.742.505-.177 1.036-.265 1.594-.265.927 0 1.765.226 2.515.679.755.448 1.359 1.068 1.809 1.86.44.791.67 1.698.67 2.718 0 1.021-.23 1.946-.7 2.774-.46.828-1.102 1.484-1.935 1.969-.833.479-1.807.713-2.922.703zm-.008-2.032c.615 0 1.164-.151 1.649-.453.484-.302.867-.708 1.148-1.218.281-.511.422-1.081.422-1.711 0-.615-.138-1.175-.414-1.68-.271-.505-.646-.906-1.125-1.203-.474-.297-1.016-.445-1.625-.445-.464 0-.893.088-1.289.265-.391.177-.734.422-1.031.735-.297.312-.532.671-.703 1.078-.167.401-.25.825-.25 1.273 0 .599.138 1.154.414 1.664.281.511.664.922 1.148 1.235.49.307 1.042.46 1.656.46zm10.525-.375-.12.852c-.07.625-.21 1.276-.39 1.953-.19.682-.38 1.315-.58 1.899-.19.583-.35 1.047-.47 1.39h-1.66c.07-.323.16-.76.28-1.312.12-.547.24-1.159.35-1.836.12-.677.21-1.367.26-2.071l.08-.875zm7.91 2.407c-1.11 0-2.1-.193-2.96-.578-.86-.386-1.53-.917-2.01-1.594-.49-.677-.73-1.448-.72-2.313-.01-.677.13-1.299.41-1.867.29-.573.68-1.049 1.17-1.429.49-.386 1.03-.631 1.64-.735v-.094c-.8-.192-1.44-.619-1.92-1.281-.47-.661-.71-1.422-.71-2.281 0-.818.21-1.547.65-2.188.44-.645 1.05-1.153 1.82-1.523s1.65-.555 2.63-.555 1.85.188 2.61.563c.78.37 1.38.877 1.82 1.523.45.641.67 1.367.68 2.18-.01.859-.25 1.62-.74 2.281-.48.662-1.11 1.089-1.89 1.281v.094c.6.104 1.14.349 1.62.735.48.38.87.856 1.15 1.429.3.568.45 1.19.45 1.867 0 .865-.25 1.636-.73 2.313-.49.677-1.16 1.208-2.02 1.594-.85.385-1.84.578-2.95.578zm0-1.977c.67 0 1.24-.109 1.72-.328.49-.224.86-.534 1.13-.93.26-.401.4-.869.4-1.406 0-.557-.15-1.049-.43-1.476-.28-.428-.67-.763-1.15-1.008-.49-.245-1.04-.367-1.67-.367s-1.19.122-1.67.367c-.49.245-.88.58-1.16 1.008-.28.427-.42.919-.42 1.476 0 .537.13 1.005.39 1.406.26.396.64.706 1.13.93.49.219 1.07.328 1.73.328zm0-7.445c.54 0 1.01-.107 1.42-.32.41-.214.73-.511.97-.891s.36-.826.36-1.336c0-.5-.12-.937-.35-1.312-.23-.376-.55-.665-.97-.868-.41-.208-.88-.312-1.43-.312s-1.03.104-1.45.312c-.41.203-.73.492-.96.868-.23.375-.34.812-.34 1.312 0 .51.11.956.35 1.336.23.38.56.677.97.891.41.213.89.32 1.43.32z" fill="#cfcfcf"/><rect fill="#f7f7f7" height="295" rx="20" width="491" x="549" y="481"/><path d="m575.972 499.909v13.091h-2.352v-11.122h-5.727v11.122h-2.353v-13.091zm4.637 13.091v-13.091h5.011c.946 0 1.732.149 2.359.448.63.294 1.101.696 1.412 1.208.316.511.473 1.091.473 1.738 0 .533-.102.989-.306 1.368-.205.375-.48.68-.825.914-.345.235-.731.403-1.157.505v.128c.465.026.91.168 1.336.428.43.256.782.618 1.055 1.087.272.469.409 1.035.409 1.7 0 .678-.164 1.287-.492 1.828-.328.537-.823.961-1.483 1.272-.661.311-1.492.467-2.493.467zm2.371-1.982h2.551c.86 0 1.48-.164 1.86-.492.383-.332.575-.758.575-1.278 0-.388-.096-.737-.288-1.048-.191-.316-.464-.563-.818-.742-.354-.183-.775-.275-1.265-.275h-2.615zm0-5.541h2.346c.409 0 .778-.075 1.106-.224.328-.154.586-.369.773-.646.192-.281.288-.613.288-.997 0-.507-.179-.925-.537-1.253-.354-.328-.88-.492-1.579-.492h-2.397zm12.582 5.951c-.388 0-.72-.137-.997-.41-.277-.277-.414-.609-.409-.997-.005-.383.132-.711.409-.984s.609-.409.997-.409c.375 0 .701.136.978.409.281.273.424.601.428.984-.004.26-.072.497-.204.71-.128.213-.299.383-.512.511-.208.124-.439.186-.69.186zm0-6.488c-.388 0-.72-.137-.997-.409-.277-.277-.414-.61-.409-.998-.005-.383.132-.711.409-.984.277-.277.609-.415.997-.415.375 0 .701.138.978.415.281.273.424.601.428.984-.004.256-.072.49-.204.704-.128.213-.299.383-.512.511-.208.128-.439.192-.69.192zm16.533 8.239c-.921 0-1.739-.158-2.455-.473-.711-.315-1.274-.754-1.687-1.317-.414-.562-.633-1.212-.659-1.949h2.404c.021.353.138.662.351.926.213.26.497.463.85.608.354.145.75.217 1.189.217.469 0 .885-.081 1.247-.243.362-.166.645-.396.85-.69.204-.294.305-.633.3-1.017.005-.396-.098-.745-.306-1.048-.209-.302-.512-.539-.908-.709-.392-.171-.865-.256-1.419-.256h-1.157v-1.828h1.157c.456 0 .854-.079 1.195-.237.345-.157.616-.379.812-.664.196-.29.292-.625.288-1.004.004-.371-.079-.692-.25-.965-.166-.277-.402-.492-.709-.646-.303-.153-.659-.23-1.068-.23-.4 0-.771.073-1.112.217-.341.145-.616.352-.825.62-.208.265-.319.58-.332.947h-2.282c.017-.733.228-1.377.633-1.931.409-.558.954-.993 1.636-1.304.682-.315 1.447-.473 2.295-.473.874 0 1.632.164 2.276.492.647.324 1.148.761 1.502 1.311.353.549.53 1.157.53 1.821.005.738-.213 1.356-.652 1.854-.434.499-1.005.825-1.713.978v.102c.921.128 1.626.469 2.116 1.023.494.55.739 1.234.735 2.052 0 .733-.209 1.389-.626 1.969-.414.575-.985 1.027-1.713 1.355-.725.328-1.556.492-2.493.492zm13.665.07c-1.053 0-1.956-.266-2.71-.799-.75-.537-1.328-1.31-1.733-2.32-.4-1.014-.6-2.235-.6-3.663.004-1.427.206-2.642.607-3.643.405-1.006.982-1.773 1.732-2.301.754-.529 1.656-.793 2.704-.793s1.95.264 2.704.793c.754.528 1.331 1.295 1.732 2.301.405 1.006.607 2.22.607 3.643 0 1.432-.202 2.655-.607 3.669-.401 1.01-.978 1.782-1.732 2.314-.75.533-1.651.799-2.704.799zm0-2c.818 0 1.464-.403 1.937-1.209.477-.809.716-2 .716-3.573 0-1.039-.109-1.913-.326-2.62-.218-.708-.524-1.24-.921-1.598-.396-.363-.865-.544-1.406-.544-.814 0-1.457.405-1.93 1.215-.473.805-.712 1.988-.716 3.547-.005 1.044.1 1.922.313 2.634.217.711.524 1.248.92 1.611.397.358.867.537 1.413.537zm14.944-5.747v1.905h-5.894v-1.905zm8.783 7.677c-.921 0-1.739-.158-2.455-.473-.711-.315-1.274-.754-1.687-1.317-.414-.562-.633-1.212-.659-1.949h2.404c.021.353.138.662.351.926.214.26.497.463.851.608.353.145.75.217 1.189.217.468 0 .884-.081 1.246-.243.362-.166.646-.396.85-.69.205-.294.305-.633.301-1.017.004-.396-.098-.745-.307-1.048-.209-.302-.512-.539-.908-.709-.392-.171-.865-.256-1.419-.256h-1.157v-1.828h1.157c.456 0 .854-.079 1.195-.237.345-.157.616-.379.812-.664.196-.29.292-.625.288-1.004.004-.371-.079-.692-.25-.965-.166-.277-.402-.492-.709-.646-.303-.153-.658-.23-1.068-.23-.4 0-.771.073-1.112.217-.341.145-.616.352-.824.62-.209.265-.32.58-.333.947h-2.282c.017-.733.228-1.377.633-1.931.409-.558.955-.993 1.637-1.304.681-.315 1.446-.473 2.294-.473.874 0 1.632.164 2.276.492.648.324 1.148.761 1.502 1.311.354.549.53 1.157.53 1.821.005.738-.213 1.356-.652 1.854-.434.499-1.005.825-1.713.978v.102c.921.128 1.626.469 2.116 1.023.495.55.74 1.234.735 2.052 0 .733-.209 1.389-.626 1.969-.413.575-.985 1.027-1.713 1.355-.725.328-1.556.492-2.493.492zm13.371-13.449c.627.004 1.236.115 1.828.332.597.214 1.134.563 1.611 1.049.477.481.857 1.127 1.138 1.937.281.809.422 1.811.422 3.004.004 1.125-.115 2.131-.358 3.017-.239.882-.582 1.628-1.029 2.237-.448.609-.987 1.074-1.618 1.394-.63.319-1.34.479-2.128.479-.827 0-1.56-.162-2.199-.486-.635-.324-1.148-.767-1.54-1.329-.393-.563-.633-1.206-.723-1.931h2.333c.12.52.363.933.729 1.24.371.303.837.454 1.4.454.908 0 1.606-.394 2.096-1.182.491-.789.736-1.884.736-3.286h-.09c-.209.375-.479.699-.812.972-.332.268-.709.475-1.131.62-.418.145-.861.217-1.33.217-.767 0-1.457-.183-2.071-.55-.609-.366-1.093-.869-1.451-1.508-.353-.639-.532-1.37-.537-2.193 0-.852.196-1.617.588-2.294.397-.682.949-1.219 1.656-1.611.707-.397 1.534-.59 2.48-.582zm.006 1.918c-.46 0-.875.113-1.246.339-.366.221-.656.524-.869.907-.209.379-.313.803-.313 1.272.004.465.108.887.313 1.266.209.379.492.68.85.901.362.222.775.332 1.24.332.345 0 .667-.066.965-.198s.558-.315.78-.549c.226-.239.401-.51.524-.812.128-.303.19-.622.185-.959 0-.447-.106-.861-.319-1.24-.209-.379-.497-.684-.863-.914-.362-.23-.778-.345-1.247-.345zm15.921 8.897v-.69c0-.507.106-.974.319-1.4.217-.426.533-.769.946-1.029s.914-.39 1.502-.39c.605 0 1.112.13 1.522.39.409.256.718.597.926 1.023.213.426.32.895.32 1.406v.69c0 .508-.107.974-.32 1.4s-.526.769-.939 1.029c-.409.26-.912.39-1.509.39-.596 0-1.101-.13-1.515-.39-.413-.26-.726-.603-.939-1.029-.209-.426-.313-.892-.313-1.4zm1.668-.69v.69c0 .337.081.646.243.927.162.282.447.422.856.422.414 0 .697-.138.85-.415.158-.282.237-.593.237-.934v-.69c0-.341-.075-.652-.224-.933-.149-.286-.437-.428-.863-.428-.4 0-.684.142-.85.428-.166.281-.249.592-.249.933zm-8.323-6.801v-.69c0-.512.109-.98.326-1.407.218-.426.533-.767.946-1.022.414-.26.914-.39 1.503-.39.6 0 1.105.13 1.514.39.414.255.725.596.934 1.022.209.427.313.895.313 1.407v.69c0 .511-.107.98-.32 1.406-.209.422-.52.761-.933 1.017-.413.255-.916.383-1.508.383-.601 0-1.108-.128-1.522-.383-.409-.256-.72-.597-.933-1.023s-.32-.893-.32-1.4zm1.682-.69v.69c0 .341.078.652.236.933.162.277.447.416.857.416.409 0 .69-.139.843-.416.158-.281.237-.592.237-.933v-.69c0-.341-.075-.652-.224-.934-.149-.285-.435-.428-.856-.428-.405 0-.689.143-.851.428-.162.286-.242.597-.242.934zm-.953 10.636 9-13.091h1.598l-9 13.091z" fill="#000" opacity=".6"/><path d="m564 729.5h455.99v-73.5c2.71 0-149.49-8-149.49-8l-306.5-48z" fill="url(#e)" opacity=".4"/><rect fill="#cacaca" height="10.2717" rx="5.13587" width="10.2717" x="1015.19" y="650"/><path d="m1018.5 656-148.5-9-306-47.5" stroke="#cacaca" stroke-width="4"/><path d="m853.074 714.443v24.358l-9.085-9.119-3.989 3.954 15.955 15.921 15.92-15.921-3.92-3.954-9.12 9.119v-24.358z" fill="#cacaca"/><path d="m853.074 714.443v24.358l-9.085-9.119-3.989 3.954 15.955 15.921 15.92-15.921-3.92-3.954-9.12 9.119v-24.358z" fill="#ff7474"/><path d="m899.33 714.091v34.909h-7.381v-27.903h-.205l-7.994 5.011v-6.546l8.642-5.471zm7.804 34.909v-5.318l12.426-11.506c1.057-1.023 1.944-1.943 2.659-2.761.728-.818 1.279-1.62 1.654-2.404.375-.795.562-1.653.562-2.573 0-1.023-.233-1.904-.698-2.643-.466-.75-1.103-1.323-1.91-1.721-.806-.409-1.721-.614-2.744-.614-1.068 0-2 .216-2.795.648-.796.432-1.409 1.051-1.841 1.858s-.648 1.767-.648 2.881h-7.006c0-2.285.517-4.267 1.551-5.949 1.035-1.682 2.483-2.983 4.347-3.904 1.864-.92 4.011-1.38 6.443-1.38 2.5 0 4.676.443 6.529 1.329 1.863.875 3.312 2.091 4.346 3.648s1.551 3.341 1.551 5.352c0 1.318-.261 2.619-.784 3.904-.511 1.284-1.426 2.71-2.744 4.278-1.318 1.557-3.176 3.426-5.574 5.608l-5.096 4.994v.239h14.659v6.034zm37.703-4.773-.188 1.875c-.148 1.5-.432 2.995-.852 4.483-.409 1.5-.841 2.858-1.296 4.074-.443 1.216-.801 2.171-1.073 2.864h-4.705c.17-.671.403-1.608.699-2.813.295-1.193.574-2.534.835-4.022.261-1.489.426-3.006.494-4.552l.086-1.909zm18.053-30.613c1.795 0 3.523.301 5.182.903 1.67.602 3.159 1.563 4.466 2.881 1.318 1.318 2.358 3.068 3.119 5.25.773 2.17 1.165 4.835 1.176 7.994 0 2.966-.335 5.614-1.006 7.943-.659 2.318-1.608 4.29-2.846 5.915-1.239 1.625-2.733 2.864-4.483 3.716-1.75.841-3.705 1.261-5.864 1.261-2.329 0-4.386-.449-6.17-1.346-1.784-.909-3.222-2.142-4.313-3.699-1.079-1.568-1.733-3.33-1.96-5.284h7.278c.285 1.272.881 2.261 1.79 2.966.909.693 2.034 1.039 3.375 1.039 2.273 0 4-.988 5.182-2.965 1.182-1.989 1.778-4.711 1.79-8.165h-.239c-.523 1.022-1.227 1.903-2.113 2.642-.887.727-1.904 1.29-3.052 1.687-1.136.398-2.346.597-3.63.597-2.057 0-3.892-.483-5.506-1.449s-2.886-2.295-3.818-3.989c-.932-1.693-1.398-3.625-1.398-5.795-.011-2.341.529-4.426 1.619-6.256 1.091-1.829 2.614-3.261 4.569-4.295 1.966-1.046 4.25-1.563 6.852-1.551zm.051 5.795c-1.148 0-2.17.273-3.068.818-.886.546-1.591 1.279-2.114 2.199-.511.921-.761 1.949-.75 3.085 0 1.148.25 2.182.75 3.103.512.909 1.205 1.636 2.08 2.181.886.535 1.898.802 3.034.802.852 0 1.642-.16 2.369-.478s1.358-.755 1.892-1.312c.546-.568.972-1.222 1.279-1.96.306-.739.46-1.523.46-2.353-.011-1.102-.273-2.113-.784-3.034-.512-.92-1.216-1.659-2.114-2.216s-1.909-.835-3.034-.835zm37.619 23.046v-1.841c0-1.398.3-2.682.89-3.853.6-1.181 1.47-2.125 2.61-2.829 1.14-.716 2.54-1.074 4.19-1.074 1.67 0 3.07.352 4.21 1.057 1.15.704 2.01 1.647 2.59 2.829.59 1.171.89 2.461.89 3.87v1.841c0 1.397-.3 2.687-.89 3.869-.59 1.17-1.46 2.108-2.61 2.812-1.14.716-2.54 1.074-4.19 1.074-1.67 0-3.07-.358-4.21-1.074-1.14-.704-2-1.642-2.59-2.812-.59-1.182-.89-2.472-.89-3.869zm4.96-1.841v1.841c0 .806.2 1.568.58 2.284.4.716 1.12 1.073 2.15 1.073s1.74-.352 2.11-1.056c.39-.705.58-1.472.58-2.301v-1.841c0-.83-.18-1.603-.54-2.319-.37-.715-1.08-1.073-2.15-1.073-1.02 0-1.73.358-2.13 1.073-.4.716-.6 1.489-.6 2.319zm-22.872-18.137v-1.841c0-1.409.301-2.699.903-3.869.602-1.182 1.472-2.125 2.608-2.829 1.148-.705 2.534-1.057 4.159-1.057 1.682 0 3.091.352 4.227 1.057 1.137.704 2 1.647 2.591 2.829.591 1.17.887 2.46.887 3.869v1.841c0 1.409-.301 2.699-.904 3.87-.591 1.17-1.46 2.108-2.608 2.812-1.136.693-2.534 1.04-4.193 1.04s-3.062-.352-4.21-1.057c-1.136-.716-2-1.653-2.591-2.812-.579-1.171-.869-2.455-.869-3.853zm4.994-1.841v1.841c0 .83.193 1.597.58 2.301.397.705 1.096 1.057 2.096 1.057 1.046 0 1.756-.352 2.131-1.057.386-.704.579-1.471.579-2.301v-1.841c0-.829-.181-1.602-.545-2.318s-1.085-1.074-2.165-1.074c-1.011 0-1.71.364-2.096 1.091-.387.727-.58 1.495-.58 2.301zm-2.744 28.364 24.002-34.909h4.46l-23.996 34.909z" fill="#000"/><path d="m571.125 586.219c-.714-.011-1.417-.141-2.109-.391-.688-.25-1.313-.667-1.875-1.25-.563-.583-1.013-1.367-1.352-2.351-.333-.985-.5-2.214-.5-3.688 0-1.396.138-2.635.414-3.719.281-1.083.685-1.997 1.211-2.742.526-.75 1.162-1.32 1.906-1.711.745-.39 1.581-.586 2.508-.586.953 0 1.8.188 2.539.563.74.375 1.339.893 1.797 1.554.464.662.758 1.414.883 2.258h-2.383c-.161-.666-.482-1.211-.961-1.633-.479-.421-1.104-.632-1.875-.632-1.172 0-2.086.51-2.742 1.531-.651 1.021-.979 2.44-.984 4.258h.117c.276-.453.614-.839 1.015-1.157.407-.322.86-.57 1.36-.742.505-.177 1.036-.265 1.594-.265.927 0 1.765.226 2.515.679.755.448 1.357 1.068 1.805 1.86.448.791.672 1.698.672 2.718 0 1.021-.232 1.946-.696 2.774-.458.828-1.104 1.484-1.937 1.969-.833.479-1.807.713-2.922.703zm-.008-2.032c.615 0 1.164-.151 1.649-.453.484-.302.867-.708 1.148-1.218.281-.511.422-1.081.422-1.711 0-.615-.138-1.175-.414-1.68-.271-.505-.646-.906-1.125-1.203-.474-.297-1.016-.445-1.625-.445-.464 0-.893.088-1.289.265-.391.177-.735.422-1.031.735-.297.312-.532.671-.704 1.078-.166.401-.25.825-.25 1.273 0 .599.138 1.154.415 1.664.281.511.664.922 1.148 1.235.49.307 1.042.46 1.656.46zm8.725 1.813 6.984-13.813v-.117h-8.078v-2.07h10.578v2.141l-6.961 13.859zm12.299-2.188-.117.852c-.078.625-.211 1.276-.399 1.953-.182.682-.372 1.315-.57 1.899-.193.583-.352 1.047-.477 1.39h-1.656c.068-.323.162-.76.281-1.312.12-.547.237-1.159.352-1.836.114-.677.2-1.367.258-2.071l.078-.875zm2.709-.937v-1.953l6.914-10.922h1.539v2.875h-.977l-4.945 7.828v.125h9.477v2.047zm7.586 3.125v-3.719l.015-.89v-11.391h2.29v16z" fill="#cfcfcf"/><path d="m981.33 640.219c-.979 0-1.86-.188-2.641-.563-.776-.38-1.396-.901-1.859-1.562-.464-.662-.711-1.417-.742-2.266h2.343c.058.688.362 1.253.914 1.695.552.443 1.214.664 1.985.664.614 0 1.159-.14 1.633-.421.479-.287.854-.68 1.125-1.18.276-.5.414-1.07.414-1.711 0-.651-.141-1.232-.422-1.742-.281-.511-.669-.912-1.164-1.203-.49-.292-1.052-.44-1.688-.446-.484 0-.971.084-1.461.25-.489.167-.885.386-1.187.657l-2.211-.329.898-8.062h8.797v2.07h-6.789l-.508 4.477h.094c.313-.302.727-.555 1.242-.758.521-.203 1.078-.305 1.672-.305.974 0 1.841.232 2.602.696.765.463 1.367 1.096 1.804 1.898.443.797.662 1.714.657 2.75.005 1.037-.23 1.961-.704 2.774-.468.812-1.119 1.453-1.953 1.921-.828.464-1.778.696-2.851.696zm7.803-3.344v-1.953l6.914-10.922h1.539v2.875h-.977l-4.945 7.828v.125h9.476v2.047zm7.586 3.125v-3.719l.015-.89v-11.391h2.289v16zm9.391-2.188-.12.852c-.08.625-.21 1.276-.4 1.953-.18.682-.37 1.315-.57 1.899-.19.583-.35 1.047-.47 1.39h-1.66c.07-.323.16-.76.28-1.312.12-.547.24-1.159.35-1.836.12-.677.2-1.367.26-2.071l.08-.875zm8.07 2.407c-.98 0-1.86-.188-2.64-.563-.78-.38-1.4-.901-1.86-1.562-.47-.662-.71-1.417-.74-2.266h2.34c.06.688.36 1.253.91 1.695.56.443 1.22.664 1.99.664.61 0 1.16-.14 1.63-.421.48-.287.85-.68 1.13-1.18.27-.5.41-1.07.41-1.711 0-.651-.14-1.232-.42-1.742-.28-.511-.67-.912-1.17-1.203-.49-.292-1.05-.44-1.68-.446-.49 0-.98.084-1.46.25-.49.167-.89.386-1.19.657l-2.21-.329.9-8.062h8.79v2.07h-6.79l-.5 4.477h.09c.31-.302.73-.555 1.24-.758.52-.203 1.08-.305 1.67-.305.98 0 1.84.232 2.6.696.77.463 1.37 1.096 1.81 1.898.44.797.66 1.714.66 2.75 0 1.037-.23 1.961-.71 2.774-.47.812-1.12 1.453-1.95 1.921-.83.464-1.78.696-2.85.696z" fill="#cfcfcf"/><rect fill="#f7f7f7" height="295" rx="20" width="491" x="549" y="794"/><path d="m575.972 812.909v13.091h-2.352v-11.122h-5.727v11.122h-2.353v-13.091zm4.637 13.091v-13.091h5.011c.946 0 1.732.149 2.359.448.63.294 1.101.696 1.412 1.208.316.511.473 1.091.473 1.738 0 .533-.102.989-.306 1.368-.205.375-.48.68-.825.914-.345.235-.731.403-1.157.505v.128c.465.026.91.168 1.336.428.43.256.782.618 1.055 1.087.272.469.409 1.035.409 1.7 0 .678-.164 1.287-.492 1.828-.328.537-.823.961-1.483 1.272-.661.311-1.492.467-2.493.467zm2.371-1.982h2.551c.86 0 1.48-.164 1.86-.492.383-.332.575-.758.575-1.278 0-.388-.096-.737-.288-1.048-.191-.316-.464-.563-.818-.742-.354-.183-.775-.275-1.265-.275h-2.615zm0-5.541h2.346c.409 0 .778-.075 1.106-.224.328-.154.586-.369.773-.646.192-.281.288-.613.288-.997 0-.507-.179-.925-.537-1.253-.354-.328-.88-.492-1.579-.492h-2.397zm12.582 5.951c-.388 0-.72-.137-.997-.41-.277-.277-.414-.609-.409-.997-.005-.383.132-.711.409-.984s.609-.409.997-.409c.375 0 .701.136.978.409.281.273.424.601.428.984-.004.26-.072.497-.204.71-.128.213-.299.383-.512.511-.208.124-.439.186-.69.186zm0-6.488c-.388 0-.72-.137-.997-.409-.277-.277-.414-.61-.409-.998-.005-.383.132-.711.409-.984.277-.277.609-.415.997-.415.375 0 .701.138.978.415.281.273.424.601.428.984-.004.256-.072.49-.204.704-.128.213-.299.383-.512.511-.208.128-.439.192-.69.192zm16.386 8.239c-.853 0-1.615-.16-2.289-.479-.673-.324-1.208-.767-1.604-1.33-.392-.562-.601-1.206-.626-1.93h2.301c.042.537.275.975.696 1.316.422.337.929.505 1.522.505.464 0 .878-.106 1.24-.319s.647-.509.856-.889c.209-.379.311-.812.307-1.297.004-.495-.1-.934-.313-1.317-.213-.384-.505-.684-.876-.901-.371-.222-.797-.333-1.278-.333-.392-.004-.778.068-1.157.218-.379.149-.68.345-.901.588l-2.142-.352.684-6.75h7.594v1.982h-5.631l-.378 3.471h.077c.243-.286.586-.523 1.029-.71.443-.192.929-.288 1.458-.288.792 0 1.5.188 2.122.563.622.371 1.112.882 1.47 1.534s.537 1.398.537 2.237c0 .865-.2 1.637-.601 2.314-.396.673-.948 1.204-1.656 1.592-.703.383-1.517.575-2.441.575zm13.478.07c-1.053 0-1.956-.266-2.71-.799-.75-.537-1.328-1.31-1.733-2.32-.4-1.014-.6-2.235-.6-3.663.004-1.427.206-2.642.607-3.643.405-1.006.982-1.773 1.732-2.301.754-.529 1.656-.793 2.704-.793s1.95.264 2.704.793c.754.528 1.331 1.295 1.732 2.301.405 1.006.607 2.22.607 3.643 0 1.432-.202 2.655-.607 3.669-.401 1.01-.978 1.782-1.732 2.314-.75.533-1.651.799-2.704.799zm0-2c.818 0 1.464-.403 1.937-1.209.477-.809.716-2 .716-3.573 0-1.039-.109-1.913-.326-2.62-.218-.708-.524-1.24-.921-1.598-.396-.363-.865-.544-1.406-.544-.814 0-1.457.405-1.93 1.215-.473.805-.712 1.988-.716 3.547-.005 1.044.1 1.922.313 2.634.217.711.524 1.248.92 1.611.397.358.868.537 1.413.537zm12.853-.346v-8.846h2.008v8.846zm-3.419-3.419v-2.007h8.846v2.007zm20.444 3.061v-.69c0-.507.106-.974.319-1.4.218-.426.533-.769.946-1.029.414-.26.914-.39 1.502-.39.606 0 1.113.13 1.522.39.409.256.718.597.927 1.023.213.426.319.895.319 1.406v.69c0 .508-.106.974-.319 1.4-.214.426-.527.769-.94 1.029-.409.26-.912.39-1.509.39-.596 0-1.101-.13-1.515-.39-.413-.26-.726-.603-.939-1.029-.209-.426-.313-.892-.313-1.4zm1.668-.69v.69c0 .337.081.646.243.927.162.282.447.422.856.422.414 0 .697-.138.851-.415.157-.282.236-.593.236-.934v-.69c0-.341-.075-.652-.224-.933-.149-.286-.436-.428-.863-.428-.4 0-.684.142-.85.428-.166.281-.249.592-.249.933zm-8.322-6.801v-.69c0-.512.108-.98.326-1.407.217-.426.532-.767.946-1.022.413-.26.914-.39 1.502-.39.601 0 1.106.13 1.515.39.413.255.724.596.933 1.022.209.427.313.895.313 1.407v.69c0 .511-.106.98-.32 1.406-.208.422-.519.761-.933 1.017-.413.255-.916.383-1.508.383-.601 0-1.108-.128-1.522-.383-.409-.256-.72-.597-.933-1.023s-.319-.893-.319-1.4zm1.681-.69v.69c0 .341.078.652.236.933.162.277.448.416.857.416s.69-.139.843-.416c.158-.281.237-.592.237-.933v-.69c0-.341-.075-.652-.224-.934-.149-.285-.434-.428-.856-.428-.405 0-.689.143-.85.428-.162.286-.243.597-.243.934zm-.953 10.636 9-13.091h1.598l-9 13.091z" fill="#000" opacity=".6"/><path d="m564 1042.5h455.99v-73.5h-154.49l-301.5-56z" fill="url(#f)" opacity=".4"/><rect fill="#cacaca" height="10.2717" rx="5.13587" width="10.2717" x="1015.19" y="963"/><path d="m1018.5 969h-150.802c-1.795 0-3.586-.167-5.35-.498l-298.348-56.002" stroke="#cacaca" stroke-width="4"/><path d="m852.074 1027.44v24.36l-9.085-9.12-3.989 3.96 15.955 15.92 15.92-15.92-3.92-3.96-9.12 9.12v-24.36z" fill="#cacaca"/><path d="m852.074 1027.44v24.36l-9.085-9.12-3.989 3.96 15.955 15.92 15.92-15.92-3.92-3.96-9.12 9.12v-24.36z" fill="#ff7474"/><path d="m898.486 1027.09v34.91h-7.381v-27.9h-.204l-7.995 5.01v-6.55l8.642-5.47zm7.276 28.77v-5.81l14.574-22.96h5.011v8.05h-2.966l-9.187 14.54v.27h20.71v5.91zm16.756 6.14v-7.91l.136-2.57v-24.43h6.921v34.91zm23.116-4.77-.188 1.87c-.148 1.5-.432 3-.852 4.49-.409 1.5-.841 2.85-1.296 4.07-.443 1.22-.801 2.17-1.074 2.86h-4.704c.17-.67.403-1.61.699-2.81.295-1.19.574-2.53.835-4.02s.426-3.01.494-4.55l.086-1.91zm6.078 4.77v-5.32l12.426-11.5c1.057-1.03 1.944-1.95 2.66-2.77.727-.81 1.278-1.61 1.653-2.4s.562-1.65.562-2.57c0-1.03-.232-1.91-.698-2.64-.466-.75-1.103-1.33-1.909-1.73-.807-.41-1.722-.61-2.745-.61-1.068 0-2 .22-2.795.65-.796.43-1.409 1.05-1.841 1.86-.432.8-.648 1.76-.648 2.88h-7.006c0-2.29.517-4.27 1.552-5.95 1.034-1.68 2.483-2.99 4.346-3.91 1.864-.92 4.012-1.38 6.443-1.38 2.5 0 4.676.45 6.529 1.33 1.863.88 3.312 2.09 4.346 3.65s1.551 3.34 1.551 5.35c0 1.32-.261 2.62-.784 3.91-.511 1.28-1.426 2.71-2.744 4.27s-3.176 3.43-5.574 5.61l-5.096 5v.24h14.659v6.03zm48.848-6.55v-1.84c0-1.39.3-2.68.89-3.85.6-1.18 1.47-2.12 2.61-2.83s2.54-1.07 4.19-1.07c1.67 0 3.07.35 4.21 1.05 1.15.71 2.01 1.65 2.59 2.83.59 1.17.89 2.46.89 3.87v1.84c0 1.4-.3 2.69-.89 3.87-.59 1.17-1.46 2.11-2.61 2.82-1.14.71-2.54 1.07-4.19 1.07-1.67 0-3.07-.36-4.21-1.07s-2-1.65-2.59-2.82c-.59-1.18-.89-2.47-.89-3.87zm4.96-1.84v1.84c0 .81.2 1.57.58 2.29.4.71 1.12 1.07 2.15 1.07s1.74-.35 2.11-1.05c.39-.71.58-1.48.58-2.31v-1.84c0-.83-.18-1.6-.54-2.31-.37-.72-1.08-1.08-2.15-1.08-1.02 0-1.73.36-2.13 1.08-.4.71-.6 1.48-.6 2.31zm-22.872-18.13v-1.84c0-1.41.301-2.7.903-3.87.602-1.18 1.472-2.13 2.608-2.83 1.148-.71 2.534-1.06 4.159-1.06 1.682 0 3.091.35 4.227 1.06 1.137.7 2 1.65 2.591 2.83.591 1.17.887 2.46.887 3.87v1.84c0 1.41-.301 2.7-.904 3.87-.591 1.17-1.46 2.1-2.608 2.81-1.136.69-2.534 1.04-4.193 1.04s-3.062-.35-4.21-1.06c-1.136-.71-2-1.65-2.591-2.81-.579-1.17-.869-2.46-.869-3.85zm4.994-1.84v1.84c0 .83.193 1.59.58 2.3.397.7 1.096 1.06 2.096 1.06 1.046 0 1.756-.36 2.131-1.06.386-.71.579-1.47.579-2.3v-1.84c0-.83-.181-1.61-.545-2.32-.364-.72-1.085-1.08-2.165-1.08-1.011 0-1.71.37-2.096 1.1-.387.72-.58 1.49-.58 2.3zm-2.744 28.36 24.002-34.91h4.46l-23.996 34.91z" fill="#000"/><path d="m566.078 899 6.985-13.813v-.117h-8.079v-2.07h10.579v2.141l-6.961 13.859zm17.063.219c-1.12 0-2.11-.193-2.969-.578-.854-.386-1.523-.917-2.008-1.594-.484-.677-.724-1.448-.719-2.313-.005-.677.133-1.299.414-1.867.287-.573.675-1.049 1.165-1.429.489-.386 1.036-.631 1.64-.735v-.094c-.797-.192-1.435-.619-1.914-1.281-.479-.661-.716-1.422-.711-2.281-.005-.818.211-1.547.649-2.188.442-.645 1.049-1.153 1.82-1.523s1.648-.555 2.633-.555c.974 0 1.843.188 2.609.563.771.37 1.378.877 1.82 1.523.443.641.667 1.367.672 2.18-.005.859-.25 1.62-.734 2.281-.484.662-1.115 1.089-1.891 1.281v.094c.599.104 1.138.349 1.617.735.485.38.87.856 1.157 1.429.291.568.44 1.19.445 1.867-.005.865-.25 1.636-.734 2.313-.485.677-1.157 1.208-2.016 1.594-.854.385-1.836.578-2.945.578zm0-1.977c.661 0 1.234-.109 1.718-.328.485-.224.86-.534 1.125-.93.266-.401.402-.869.407-1.406-.005-.557-.151-1.049-.438-1.476-.281-.428-.664-.763-1.148-1.008-.485-.245-1.039-.367-1.664-.367-.63 0-1.19.122-1.68.367s-.875.58-1.156 1.008c-.281.427-.419.919-.414 1.476-.005.537.122 1.005.383 1.406.265.396.643.706 1.132.93.49.219 1.068.328 1.735.328zm0-7.445c.531 0 1.002-.107 1.414-.32.411-.214.734-.511.969-.891.239-.38.362-.826.367-1.336-.005-.5-.125-.937-.36-1.312-.229-.376-.549-.665-.961-.868-.411-.208-.888-.312-1.429-.312-.552 0-1.037.104-1.453.312-.412.203-.732.492-.961.868-.23.375-.341.812-.336 1.312-.005.51.109.956.343 1.336.235.38.558.677.969.891.417.213.896.32 1.438.32zm10.869 7.015-.117.852c-.078.625-.211 1.276-.399 1.953-.182.682-.372 1.315-.57 1.899-.193.583-.352 1.047-.477 1.39h-1.656c.068-.323.162-.76.281-1.312.12-.547.237-1.159.352-1.836s.201-1.367.258-2.071l.078-.875zm8.035 2.407c-1.073 0-2.031-.185-2.875-.555-.838-.37-1.502-.883-1.992-1.539-.484-.661-.745-1.427-.781-2.297h2.453c.031.474.19.886.476 1.234.292.344.672.61 1.141.797.469.188.99.282 1.563.282.63 0 1.187-.11 1.671-.329.49-.218.873-.523 1.149-.914.276-.395.414-.851.414-1.367 0-.536-.138-1.008-.414-1.414-.271-.411-.669-.734-1.195-.969-.521-.234-1.151-.351-1.891-.351h-1.352v-1.969h1.352c.594 0 1.115-.107 1.562-.32.454-.214.808-.511 1.063-.891.255-.385.383-.836.383-1.351 0-.495-.112-.925-.336-1.289-.219-.37-.531-.659-.938-.868-.401-.208-.875-.312-1.422-.312-.52 0-1.007.096-1.46.289-.448.187-.813.458-1.094.812-.281.349-.433.769-.453 1.258h-2.336c.026-.864.281-1.625.765-2.281.49-.656 1.136-1.169 1.938-1.539s1.693-.555 2.672-.555c1.026 0 1.911.201 2.656.602.75.396 1.328.924 1.734 1.586.412.661.615 1.385.61 2.172.005.895-.245 1.656-.75 2.281-.5.625-1.167 1.044-2 1.258v.125c1.062.161 1.885.583 2.468 1.265.589.683.881 1.529.875 2.539.006.881-.239 1.67-.734 2.368-.489.697-1.159 1.247-2.008 1.648-.849.396-1.82.594-2.914.594z" fill="#cfcfcf"/><path d="m986.211 953.219c-.714-.011-1.417-.141-2.11-.391-.687-.25-1.312-.667-1.875-1.25-.562-.583-1.013-1.367-1.351-2.351-.334-.985-.5-2.214-.5-3.688 0-1.396.138-2.635.414-3.719.281-1.083.685-1.997 1.211-2.742.526-.75 1.161-1.32 1.906-1.711.745-.39 1.581-.586 2.508-.586.953 0 1.799.188 2.539.563.739.375 1.338.893 1.797 1.554.463.662.758 1.414.883 2.258h-2.383c-.162-.666-.482-1.211-.961-1.633-.479-.421-1.104-.632-1.875-.632-1.172 0-2.086.51-2.742 1.531-.651 1.021-.98 2.44-.985 4.258h.117c.276-.453.615-.839 1.016-1.157.406-.322.859-.57 1.359-.742.506-.177 1.037-.265 1.594-.265.927 0 1.766.226 2.516.679.755.448 1.357 1.068 1.804 1.86.448.791.672 1.698.672 2.718 0 1.021-.231 1.946-.695 2.774-.458.828-1.104 1.484-1.937 1.969-.834.479-1.808.713-2.922.703zm-.008-2.032c.614 0 1.164-.151 1.648-.453.485-.302.867-.708 1.149-1.218.281-.511.422-1.081.422-1.711 0-.615-.138-1.175-.414-1.68-.271-.505-.646-.906-1.125-1.203-.474-.297-1.016-.445-1.625-.445-.464 0-.894.088-1.29.265-.39.177-.734.422-1.031.735-.297.312-.531.671-.703 1.078-.167.401-.25.825-.25 1.273 0 .599.138 1.154.414 1.664.281.511.664.922 1.149 1.235.489.307 1.041.46 1.656.46zm7.85-1.312v-1.953l6.917-10.922h1.54v2.875h-.98l-4.946 7.828v.125h9.476v2.047zm7.587 3.125v-3.719l.01-.89v-11.391h2.29v16zm9.39-2.188-.12.852c-.08.625-.21 1.276-.4 1.953-.18.682-.37 1.315-.57 1.899-.19.583-.35 1.047-.47 1.39h-1.66c.07-.323.16-.76.28-1.312.12-.547.24-1.159.35-1.836.12-.677.2-1.367.26-2.071l.08-.875zm7.18-13.812v16h-2.42v-13.578h-.09l-3.83 2.5v-2.313l3.99-2.609z" fill="#cfcfcf"/></svg>