<svg width="860" height="414" viewBox="0 0 860 414" fill="none" xmlns="http://www.w3.org/2000/svg">
<rect width="860" height="414" fill="white"/>
<rect y="138.027" width="139.946" height="139.946" rx="34.9864" fill="#FF4D00"/>
<path d="M42.9336 200.44H58.7008V217H54.7357V203.915H46.8988V217H42.9336V200.44ZM73.1067 203.915H67.3689L66.8558 208.463C66.7158 209.754 66.537 210.796 66.3193 211.589C66.1172 212.366 65.8917 213.012 65.6429 213.525H73.1067V203.915ZM77.0718 200.44V213.525H79.4742V220.779H75.9056V217H63.637V220.779H60.0684V213.525H61.7711C62.0821 212.996 62.3542 212.327 62.5874 211.519C62.8207 210.695 63.015 209.622 63.1705 208.3L64.0569 200.44H77.0718ZM93.0382 210.446H84.9447V217H80.9795V200.44H84.9447V206.947H93.0382V200.44H96.98V217H93.0382V210.446Z" fill="white"/>
<path d="M190.661 208.145V205.944H201.208V208.145H190.661ZM190.661 212.506V210.306H201.208V212.506H190.661Z" fill="black"/>
<rect x="251.908" y="29.9359" width="272.579" height="143.078" rx="34.9864" fill="#F8F8F8"/>
<path d="M338.426 76.7979L331.289 69.8985H334.6L341.083 76.2229V69.8985H343.66V76.2427L350.143 69.8985H353.434L346.357 76.7185L353.791 83.9747H350.342L343.66 77.5116V83.9747H341.083V77.5314L334.402 83.9747H331.051L338.426 76.7979ZM358.866 73.6852C359.633 73.6852 360.34 73.8174 360.987 74.0817C361.635 74.3329 362.19 74.6963 362.653 75.1722C363.115 75.6347 363.472 76.2031 363.723 76.8772C363.988 77.538 364.12 78.2782 364.12 79.0976V79.3752H356.15C356.176 79.7717 356.262 80.1352 356.408 80.4656C356.566 80.796 356.771 81.0868 357.022 81.3379C357.273 81.589 357.571 81.7873 357.915 81.9327C358.258 82.0649 358.641 82.1309 359.064 82.1309C359.461 82.1309 359.805 82.0913 360.095 82.012C360.386 81.9195 360.624 81.8137 360.809 81.6948C361.007 81.5758 361.159 81.4569 361.265 81.3379C361.384 81.2058 361.463 81.1066 361.503 81.0405H364.001C363.961 81.3049 363.842 81.6221 363.644 81.9922C363.446 82.349 363.148 82.6927 362.752 83.0231C362.355 83.3535 361.853 83.6377 361.245 83.8756C360.637 84.1135 359.91 84.2325 359.064 84.2325C358.245 84.2325 357.498 84.1003 356.824 83.836C356.163 83.5716 355.595 83.2015 355.119 82.7257C354.643 82.2499 354.273 81.6948 354.009 81.0604C353.745 80.4127 353.612 79.7122 353.612 78.9588C353.612 78.179 353.738 77.4653 353.989 76.8177C354.253 76.17 354.617 75.6149 355.079 75.1523C355.555 74.6897 356.11 74.3329 356.745 74.0817C357.392 73.8174 358.1 73.6852 358.866 73.6852ZM358.866 75.648C358.179 75.648 357.604 75.8264 357.141 76.1833C356.692 76.5269 356.388 77.0093 356.229 77.6305H361.463C361.278 76.9961 360.961 76.5071 360.512 76.1634C360.062 75.8198 359.514 75.648 358.866 75.648ZM367.079 73.943H375.168V83.9747H372.65V76.104H369.141L368.804 79.6726C368.738 80.4259 368.632 81.0802 368.487 81.6353C368.341 82.1904 368.136 82.6464 367.872 83.0033C367.608 83.3601 367.271 83.6311 366.861 83.8161C366.451 83.9879 365.949 84.0739 365.354 84.0739H364.68V81.7741H364.918C365.209 81.7741 365.447 81.741 365.632 81.675C365.83 81.5957 365.989 81.4701 366.108 81.2983C366.227 81.1132 366.319 80.8687 366.385 80.5647C366.451 80.2607 366.504 79.8774 366.544 79.4148L367.079 73.943ZM385.213 82.3887C385.16 82.4944 385.054 82.6464 384.895 82.8447C384.75 83.0429 384.538 83.2412 384.261 83.4394C383.997 83.6377 383.66 83.8161 383.25 83.9747C382.853 84.1201 382.377 84.1928 381.822 84.1928C381.175 84.1928 380.567 84.0739 379.998 83.836C379.43 83.598 378.928 83.2544 378.492 82.805C378.069 82.3556 377.732 81.8071 377.481 81.1595C377.229 80.5119 377.104 79.7783 377.104 78.9588C377.104 78.1526 377.229 77.4257 377.481 76.778C377.732 76.1304 378.069 75.5819 378.492 75.1325C378.928 74.6699 379.43 74.3196 379.998 74.0817C380.58 73.8438 381.195 73.7249 381.842 73.7249C382.371 73.7249 382.833 73.7976 383.23 73.943C383.627 74.0751 383.957 74.2403 384.221 74.4386C384.499 74.6236 384.717 74.8153 384.876 75.0135C385.034 75.1986 385.14 75.344 385.193 75.4497V73.943H387.73V83.9747H385.213V82.3887ZM385.232 78.9588C385.232 78.5359 385.166 78.1394 385.034 77.7693C384.902 77.3992 384.717 77.082 384.479 76.8177C384.241 76.5401 383.95 76.3286 383.607 76.1833C383.276 76.0247 382.906 75.9453 382.496 75.9453C382.073 75.9453 381.684 76.0247 381.327 76.1833C380.983 76.3286 380.686 76.5401 380.435 76.8177C380.197 77.082 380.012 77.3992 379.879 77.7693C379.747 78.1394 379.681 78.5359 379.681 78.9588C379.681 79.3818 379.747 79.7783 379.879 80.1484C380.012 80.5185 380.197 80.8423 380.435 81.1198C380.686 81.3842 380.983 81.5957 381.327 81.7543C381.684 81.8996 382.073 81.9723 382.496 81.9723C382.906 81.9723 383.276 81.8996 383.607 81.7543C383.95 81.5957 384.241 81.3842 384.479 81.1198C384.717 80.8423 384.902 80.5185 385.034 80.1484C385.166 79.7783 385.232 79.3818 385.232 78.9588ZM394.887 73.6852C395.653 73.6852 396.361 73.8174 397.008 74.0817C397.656 74.3329 398.211 74.6963 398.674 75.1722C399.136 75.6347 399.493 76.2031 399.744 76.8772C400.008 77.538 400.141 78.2782 400.141 79.0976V79.3752H392.171C392.197 79.7717 392.283 80.1352 392.428 80.4656C392.587 80.796 392.792 81.0868 393.043 81.3379C393.294 81.589 393.592 81.7873 393.935 81.9327C394.279 82.0649 394.662 82.1309 395.085 82.1309C395.482 82.1309 395.825 82.0913 396.116 82.012C396.407 81.9195 396.645 81.8137 396.83 81.6948C397.028 81.5758 397.18 81.4569 397.286 81.3379C397.405 81.2058 397.484 81.1066 397.524 81.0405H400.022C399.982 81.3049 399.863 81.6221 399.665 81.9922C399.467 82.349 399.169 82.6927 398.773 83.0231C398.376 83.3535 397.874 83.6377 397.266 83.8756C396.658 84.1135 395.931 84.2325 395.085 84.2325C394.266 84.2325 393.519 84.1003 392.845 83.836C392.184 83.5716 391.616 83.2015 391.14 82.7257C390.664 82.2499 390.294 81.6948 390.03 81.0604C389.765 80.4127 389.633 79.7122 389.633 78.9588C389.633 78.179 389.759 77.4653 390.01 76.8177C390.274 76.17 390.638 75.6149 391.1 75.1523C391.576 74.6897 392.131 74.3329 392.765 74.0817C393.413 73.8174 394.12 73.6852 394.887 73.6852ZM394.887 75.648C394.2 75.648 393.625 75.8264 393.162 76.1833C392.713 76.5269 392.409 77.0093 392.25 77.6305H397.484C397.299 76.9961 396.982 76.5071 396.532 76.1634C396.083 75.8198 395.534 75.648 394.887 75.648ZM401.985 73.943H405.435L408.765 80.9018L412.096 73.943H415.466V83.9747H413.008V76.5005L409.499 84.0144H407.814L404.324 76.5599V83.9747H401.985V73.943ZM423.767 77.0556C424.481 77.0556 425.089 77.1481 425.591 77.3331C426.107 77.505 426.523 77.7429 426.84 78.0469C427.158 78.3509 427.389 78.7143 427.534 79.1373C427.693 79.547 427.772 79.9964 427.772 80.4854C427.772 80.9348 427.693 81.371 427.534 81.7939C427.389 82.2169 427.158 82.5935 426.84 82.924C426.523 83.2412 426.113 83.4989 425.611 83.6972C425.109 83.8822 424.501 83.9747 423.787 83.9747H418.058V73.943H420.575V77.0556H423.767ZM420.575 79.1175V81.9327H423.391C424.593 81.9327 425.195 81.4503 425.195 80.4854C425.195 80.0625 425.043 79.732 424.739 79.4941C424.435 79.243 423.985 79.1175 423.391 79.1175H420.575ZM429.279 73.943H431.817V83.9747H429.279V73.943ZM434.401 73.943H436.899V80.6639L441.935 73.943H444.453V83.9747H441.935V77.234L436.899 83.9747H434.401V73.943ZM439.457 70.7312C439.84 70.7312 440.118 70.6056 440.29 70.3545C440.461 70.1034 440.547 69.8258 440.547 69.5218V69.1848H442.55V69.5615C442.55 69.9844 442.484 70.381 442.351 70.751C442.232 71.1211 442.047 71.4449 441.796 71.7225C441.545 71.9868 441.221 72.1983 440.825 72.3569C440.442 72.5155 439.986 72.5948 439.457 72.5948C438.928 72.5948 438.466 72.5155 438.069 72.3569C437.686 72.1983 437.369 71.9868 437.117 71.7225C436.866 71.4449 436.675 71.1211 436.543 70.751C436.424 70.381 436.364 69.9844 436.364 69.5615V69.1848H438.366V69.5218C438.366 69.8258 438.452 70.1034 438.624 70.3545C438.796 70.6056 439.074 70.7312 439.457 70.7312ZM322.644 98.6852C323.41 98.6852 324.117 98.8174 324.765 99.0817C325.413 99.3329 325.968 99.6963 326.43 100.172C326.893 100.635 327.25 101.203 327.501 101.877C327.765 102.538 327.897 103.278 327.897 104.098V104.375H319.928C319.954 104.772 320.04 105.135 320.185 105.466C320.344 105.796 320.549 106.087 320.8 106.338C321.051 106.589 321.348 106.787 321.692 106.933C322.036 107.065 322.419 107.131 322.842 107.131C323.238 107.131 323.582 107.091 323.873 107.012C324.164 106.919 324.402 106.814 324.587 106.695C324.785 106.576 324.937 106.457 325.043 106.338C325.162 106.206 325.241 106.107 325.281 106.041H327.779C327.739 106.305 327.62 106.622 327.422 106.992C327.223 107.349 326.926 107.693 326.53 108.023C326.133 108.354 325.631 108.638 325.023 108.876C324.415 109.114 323.688 109.232 322.842 109.232C322.023 109.232 321.276 109.1 320.602 108.836C319.941 108.572 319.372 108.202 318.897 107.726C318.421 107.25 318.051 106.695 317.786 106.06C317.522 105.413 317.39 104.712 317.39 103.959C317.39 103.179 317.515 102.465 317.767 101.818C318.031 101.17 318.394 100.615 318.857 100.152C319.333 99.6897 319.888 99.3329 320.522 99.0817C321.17 98.8174 321.877 98.6852 322.644 98.6852ZM322.644 100.648C321.956 100.648 321.381 100.826 320.919 101.183C320.469 101.527 320.166 102.009 320.007 102.631H325.241C325.056 101.996 324.739 101.507 324.289 101.163C323.84 100.82 323.291 100.648 322.644 100.648ZM335.414 104.573L331.231 108.975H327.999L332.916 103.82L328.198 98.943H331.429L335.414 103.087V98.943H337.833V103.067L341.798 98.943H345.01L340.351 103.761L345.307 108.975H341.996L337.833 104.593V108.975H335.414V104.573ZM350.549 98.6852C351.316 98.6852 352.023 98.8174 352.67 99.0817C353.318 99.3329 353.873 99.6963 354.336 100.172C354.798 100.635 355.155 101.203 355.406 101.877C355.671 102.538 355.803 103.278 355.803 104.098V104.375H347.833C347.859 104.772 347.945 105.135 348.091 105.466C348.249 105.796 348.454 106.087 348.705 106.338C348.956 106.589 349.254 106.787 349.597 106.933C349.941 107.065 350.324 107.131 350.747 107.131C351.144 107.131 351.487 107.091 351.778 107.012C352.069 106.919 352.307 106.814 352.492 106.695C352.69 106.576 352.842 106.457 352.948 106.338C353.067 106.206 353.146 106.107 353.186 106.041H355.684C355.644 106.305 355.525 106.622 355.327 106.992C355.129 107.349 354.831 107.693 354.435 108.023C354.038 108.354 353.536 108.638 352.928 108.876C352.32 109.114 351.593 109.232 350.747 109.232C349.928 109.232 349.181 109.1 348.507 108.836C347.846 108.572 347.278 108.202 346.802 107.726C346.326 107.25 345.956 106.695 345.692 106.06C345.427 105.413 345.295 104.712 345.295 103.959C345.295 103.179 345.421 102.465 345.672 101.818C345.936 101.17 346.3 100.615 346.762 100.152C347.238 99.6897 347.793 99.3329 348.428 99.0817C349.075 98.8174 349.782 98.6852 350.549 98.6852ZM350.549 100.648C349.862 100.648 349.287 100.826 348.824 101.183C348.375 101.527 348.071 102.009 347.912 102.631H353.146C352.961 101.996 352.644 101.507 352.195 101.163C351.745 100.82 351.197 100.648 350.549 100.648ZM357.647 98.943H361.097L364.427 105.902L367.758 98.943H371.129V108.975H368.67V101.5L365.161 109.014H363.476L359.987 101.56V108.975H357.647V98.943ZM378.3 98.6852C379.066 98.6852 379.773 98.8174 380.421 99.0817C381.069 99.3329 381.624 99.6963 382.086 100.172C382.549 100.635 382.906 101.203 383.157 101.877C383.421 102.538 383.553 103.278 383.553 104.098V104.375H375.583C375.61 104.772 375.696 105.135 375.841 105.466C376 105.796 376.205 106.087 376.456 106.338C376.707 106.589 377.004 106.787 377.348 106.933C377.692 107.065 378.075 107.131 378.498 107.131C378.894 107.131 379.238 107.091 379.529 107.012C379.819 106.919 380.057 106.814 380.242 106.695C380.441 106.576 380.593 106.457 380.698 106.338C380.817 106.206 380.897 106.107 380.936 106.041H383.434C383.395 106.305 383.276 106.622 383.077 106.992C382.879 107.349 382.582 107.693 382.185 108.023C381.789 108.354 381.287 108.638 380.679 108.876C380.071 109.114 379.344 109.232 378.498 109.232C377.678 109.232 376.932 109.1 376.257 108.836C375.597 108.572 375.028 108.202 374.552 107.726C374.077 107.25 373.707 106.695 373.442 106.06C373.178 105.413 373.046 104.712 373.046 103.959C373.046 103.179 373.171 102.465 373.422 101.818C373.687 101.17 374.05 100.615 374.513 100.152C374.989 99.6897 375.544 99.3329 376.178 99.0817C376.826 98.8174 377.533 98.6852 378.3 98.6852ZM378.3 100.648C377.612 100.648 377.037 100.826 376.575 101.183C376.125 101.527 375.821 102.009 375.663 102.631H380.897C380.712 101.996 380.394 101.507 379.945 101.163C379.496 100.82 378.947 100.648 378.3 100.648ZM392.297 102.254C392.257 102.188 392.185 102.082 392.079 101.937C391.986 101.791 391.841 101.646 391.643 101.5C391.458 101.342 391.22 101.21 390.929 101.104C390.651 100.985 390.314 100.926 389.918 100.926C389.535 100.926 389.178 101.005 388.847 101.163C388.53 101.322 388.252 101.54 388.015 101.818C387.79 102.082 387.611 102.399 387.479 102.769C387.36 103.139 387.301 103.536 387.301 103.959C387.301 104.382 387.36 104.778 387.479 105.148C387.611 105.518 387.79 105.842 388.015 106.12C388.252 106.384 388.53 106.596 388.847 106.754C389.178 106.913 389.541 106.992 389.938 106.992C390.347 106.992 390.698 106.939 390.988 106.834C391.279 106.715 391.517 106.582 391.702 106.437C391.887 106.292 392.026 106.146 392.118 106.001C392.224 105.842 392.297 105.73 392.337 105.664H394.815C394.788 105.928 394.683 106.265 394.498 106.675C394.326 107.071 394.048 107.461 393.665 107.845C393.282 108.228 392.779 108.558 392.158 108.836C391.55 109.1 390.797 109.232 389.898 109.232C389.171 109.232 388.49 109.107 387.856 108.856C387.235 108.591 386.686 108.228 386.21 107.765C385.748 107.29 385.384 106.734 385.12 106.1C384.856 105.452 384.723 104.739 384.723 103.959C384.723 103.192 384.856 102.485 385.12 101.838C385.384 101.19 385.748 100.635 386.21 100.172C386.673 99.6963 387.215 99.3329 387.836 99.0817C388.471 98.8174 389.151 98.6852 389.878 98.6852C390.764 98.6852 391.51 98.824 392.118 99.1016C392.74 99.3659 393.242 99.6897 393.625 100.073C394.008 100.443 394.293 100.833 394.478 101.243C394.663 101.639 394.775 101.976 394.815 102.254H392.297ZM403.235 108.975V105.604H400.935L398.596 108.975H395.76L398.417 105.228C397.611 105.016 397.023 104.653 396.653 104.137C396.283 103.609 396.098 102.968 396.098 102.214C396.098 101.778 396.17 101.362 396.316 100.965C396.461 100.569 396.686 100.225 396.99 99.9342C397.294 99.6302 397.684 99.3923 398.159 99.2205C398.635 99.0355 399.204 98.943 399.864 98.943H405.753V108.975H403.235ZM403.235 103.543V100.985H400.201C399.184 100.985 398.675 101.401 398.675 102.234C398.675 102.644 398.8 102.968 399.052 103.205C399.316 103.43 399.699 103.543 400.201 103.543H403.235ZM415.108 105.426C414.883 105.466 414.638 105.505 414.374 105.545C414.149 105.571 413.872 105.598 413.541 105.624C413.224 105.637 412.874 105.644 412.491 105.644C411.05 105.644 409.953 105.34 409.199 104.732C408.446 104.124 408.069 103.087 408.069 101.619V98.943H410.587V101.481C410.587 102.168 410.726 102.677 411.004 103.007C411.294 103.338 411.849 103.503 412.669 103.503C413.039 103.503 413.369 103.496 413.66 103.483C413.951 103.47 414.209 103.45 414.433 103.424C414.671 103.397 414.896 103.364 415.108 103.324V98.943H417.625V108.975H415.108V105.426ZM420.218 98.943H422.736V102.769H427.534V98.943H430.051V108.975H427.534V104.93H422.736V108.975H420.218V98.943ZM438.36 102.056C439.074 102.056 439.682 102.148 440.184 102.333C440.7 102.505 441.116 102.743 441.433 103.047C441.751 103.351 441.982 103.714 442.127 104.137C442.286 104.547 442.365 104.996 442.365 105.485C442.365 105.935 442.286 106.371 442.127 106.794C441.982 107.217 441.751 107.594 441.433 107.924C441.116 108.241 440.707 108.499 440.204 108.697C439.702 108.882 439.094 108.975 438.38 108.975H432.651V98.943H435.169V102.056H438.36ZM435.169 104.117V106.933H437.984C439.187 106.933 439.788 106.45 439.788 105.485C439.788 105.062 439.636 104.732 439.332 104.494C439.028 104.243 438.579 104.117 437.984 104.117H435.169ZM443.872 98.943H446.41V108.975H443.872V98.943ZM448.994 98.943H451.493V105.664L456.528 98.943H459.046V108.975H456.528V102.234L451.493 108.975H448.994V98.943ZM454.05 95.7312C454.433 95.7312 454.711 95.6056 454.883 95.3545C455.055 95.1034 455.14 94.8258 455.14 94.5218V94.1848H457.143V94.5615C457.143 94.9844 457.077 95.381 456.945 95.751C456.826 96.1211 456.641 96.4449 456.389 96.7225C456.138 96.9868 455.814 97.1983 455.418 97.3569C455.035 97.5155 454.579 97.5948 454.05 97.5948C453.521 97.5948 453.059 97.5155 452.662 97.3569C452.279 97.1983 451.962 96.9868 451.711 96.7225C451.459 96.4449 451.268 96.1211 451.136 95.751C451.017 95.381 450.957 94.9844 450.957 94.5615V94.1848H452.96V94.5218C452.96 94.8258 453.046 95.1034 453.217 95.3545C453.389 95.6056 453.667 95.7312 454.05 95.7312ZM294.831 123.943H304.466V133.975H301.949V126.104H297.349V133.975H294.831V123.943ZM308.379 123.943H316.468V133.975H313.95V126.104H310.441L310.104 129.673C310.038 130.426 309.932 131.08 309.787 131.635C309.641 132.19 309.436 132.646 309.172 133.003C308.908 133.36 308.571 133.631 308.161 133.816C307.751 133.988 307.249 134.074 306.654 134.074H305.98V131.774H306.218C306.509 131.774 306.747 131.741 306.932 131.675C307.13 131.596 307.289 131.47 307.407 131.298C307.526 131.113 307.619 130.869 307.685 130.565C307.751 130.261 307.804 129.877 307.844 129.415L308.379 123.943ZM326.512 132.389C326.46 132.494 326.354 132.646 326.195 132.845C326.05 133.043 325.838 133.241 325.561 133.439C325.296 133.638 324.959 133.816 324.55 133.975C324.153 134.12 323.677 134.193 323.122 134.193C322.475 134.193 321.867 134.074 321.298 133.836C320.73 133.598 320.228 133.254 319.792 132.805C319.369 132.356 319.032 131.807 318.78 131.159C318.529 130.512 318.404 129.778 318.404 128.959C318.404 128.153 318.529 127.426 318.78 126.778C319.032 126.13 319.369 125.582 319.792 125.132C320.228 124.67 320.73 124.32 321.298 124.082C321.88 123.844 322.494 123.725 323.142 123.725C323.671 123.725 324.133 123.798 324.53 123.943C324.926 124.075 325.257 124.24 325.521 124.439C325.799 124.624 326.017 124.815 326.175 125.014C326.334 125.199 326.44 125.344 326.493 125.45V123.943H329.03V133.975H326.512V132.389ZM326.532 128.959C326.532 128.536 326.466 128.139 326.334 127.769C326.202 127.399 326.017 127.082 325.779 126.818C325.541 126.54 325.25 126.329 324.907 126.183C324.576 126.025 324.206 125.945 323.796 125.945C323.373 125.945 322.983 126.025 322.627 126.183C322.283 126.329 321.986 126.54 321.734 126.818C321.497 127.082 321.311 127.399 321.179 127.769C321.047 128.139 320.981 128.536 320.981 128.959C320.981 129.382 321.047 129.778 321.179 130.148C321.311 130.518 321.497 130.842 321.734 131.12C321.986 131.384 322.283 131.596 322.627 131.754C322.983 131.9 323.373 131.972 323.796 131.972C324.206 131.972 324.576 131.9 324.907 131.754C325.25 131.596 325.541 131.384 325.779 131.12C326.017 130.842 326.202 130.518 326.334 130.148C326.466 129.778 326.532 129.382 326.532 128.959ZM334.422 126.104H330.517V123.943H340.826V126.104H336.94V133.975H334.422V126.104ZM346.548 123.685C347.315 123.685 348.022 123.817 348.669 124.082C349.317 124.333 349.872 124.696 350.335 125.172C350.797 125.635 351.154 126.203 351.405 126.877C351.67 127.538 351.802 128.278 351.802 129.098V129.375H343.832C343.858 129.772 343.944 130.135 344.09 130.466C344.248 130.796 344.453 131.087 344.704 131.338C344.955 131.589 345.253 131.787 345.596 131.933C345.94 132.065 346.323 132.131 346.746 132.131C347.143 132.131 347.486 132.091 347.777 132.012C348.068 131.919 348.306 131.814 348.491 131.695C348.689 131.576 348.841 131.457 348.947 131.338C349.066 131.206 349.145 131.107 349.185 131.041H351.683C351.643 131.305 351.524 131.622 351.326 131.992C351.128 132.349 350.83 132.693 350.434 133.023C350.037 133.354 349.535 133.638 348.927 133.876C348.319 134.114 347.592 134.232 346.746 134.232C345.927 134.232 345.18 134.1 344.506 133.836C343.845 133.572 343.277 133.202 342.801 132.726C342.325 132.25 341.955 131.695 341.691 131.06C341.426 130.413 341.294 129.712 341.294 128.959C341.294 128.179 341.42 127.465 341.671 126.818C341.935 126.17 342.299 125.615 342.761 125.152C343.237 124.69 343.792 124.333 344.427 124.082C345.074 123.817 345.781 123.685 346.548 123.685ZM346.548 125.648C345.861 125.648 345.286 125.826 344.823 126.183C344.374 126.527 344.07 127.009 343.911 127.631H349.145C348.96 126.996 348.643 126.507 348.193 126.163C347.744 125.82 347.196 125.648 346.548 125.648ZM359.318 129.573L355.135 133.975H351.904L356.82 128.82L352.102 123.943H355.333L359.318 128.087V123.943H361.737V128.067L365.702 123.943H368.914L364.255 128.761L369.211 133.975H365.901L361.737 129.593V133.975H359.318V129.573ZM374.581 123.943H384.217V133.975H381.699V126.104H377.099V133.975H374.581V123.943ZM391.559 123.685C392.326 123.685 393.033 123.817 393.68 124.082C394.341 124.346 394.909 124.716 395.385 125.192C395.874 125.655 396.258 126.21 396.535 126.857C396.813 127.492 396.951 128.192 396.951 128.959C396.951 129.725 396.813 130.433 396.535 131.08C396.258 131.715 395.874 132.27 395.385 132.746C394.909 133.208 394.341 133.572 393.68 133.836C393.033 134.1 392.326 134.232 391.559 134.232C390.779 134.232 390.059 134.1 389.398 133.836C388.75 133.572 388.182 133.208 387.693 132.746C387.204 132.27 386.821 131.715 386.543 131.08C386.279 130.433 386.147 129.725 386.147 128.959C386.147 128.192 386.279 127.492 386.543 126.857C386.821 126.21 387.204 125.655 387.693 125.192C388.182 124.716 388.75 124.346 389.398 124.082C390.059 123.817 390.779 123.685 391.559 123.685ZM391.559 131.972C391.982 131.972 392.365 131.9 392.709 131.754C393.066 131.596 393.363 131.384 393.601 131.12C393.852 130.842 394.044 130.518 394.176 130.148C394.321 129.778 394.394 129.382 394.394 128.959C394.394 128.536 394.321 128.139 394.176 127.769C394.044 127.399 393.852 127.082 393.601 126.818C393.363 126.54 393.066 126.329 392.709 126.183C392.365 126.025 391.982 125.945 391.559 125.945C391.136 125.945 390.746 126.025 390.389 126.183C390.046 126.342 389.748 126.56 389.497 126.838C389.246 127.102 389.048 127.419 388.902 127.789C388.77 128.146 388.704 128.536 388.704 128.959C388.704 129.382 388.77 129.778 388.902 130.148C389.048 130.505 389.246 130.822 389.497 131.1C389.748 131.364 390.046 131.576 390.389 131.734C390.746 131.893 391.136 131.972 391.559 131.972ZM403.284 123.943H405.782V130.664L410.817 123.943H413.335V133.975H410.817V127.234L405.782 133.975H403.284V123.943ZM415.91 123.943H425.545V133.975H423.027V126.104H418.428V133.975H415.91V123.943ZM432.888 123.685C433.654 123.685 434.361 123.817 435.009 124.082C435.67 124.346 436.238 124.716 436.714 125.192C437.203 125.655 437.586 126.21 437.864 126.857C438.141 127.492 438.28 128.192 438.28 128.959C438.28 129.725 438.141 130.433 437.864 131.08C437.586 131.715 437.203 132.27 436.714 132.746C436.238 133.208 435.67 133.572 435.009 133.836C434.361 134.1 433.654 134.232 432.888 134.232C432.108 134.232 431.387 134.1 430.727 133.836C430.079 133.572 429.511 133.208 429.022 132.746C428.533 132.27 428.149 131.715 427.872 131.08C427.607 130.433 427.475 129.725 427.475 128.959C427.475 128.192 427.607 127.492 427.872 126.857C428.149 126.21 428.533 125.655 429.022 125.192C429.511 124.716 430.079 124.346 430.727 124.082C431.387 123.817 432.108 123.685 432.888 123.685ZM432.888 131.972C433.311 131.972 433.694 131.9 434.038 131.754C434.394 131.596 434.692 131.384 434.93 131.12C435.181 130.842 435.372 130.518 435.505 130.148C435.65 129.778 435.723 129.382 435.723 128.959C435.723 128.536 435.65 128.139 435.505 127.769C435.372 127.399 435.181 127.082 434.93 126.818C434.692 126.54 434.394 126.329 434.038 126.183C433.694 126.025 433.311 125.945 432.888 125.945C432.465 125.945 432.075 126.025 431.718 126.183C431.374 126.342 431.077 126.56 430.826 126.838C430.575 127.102 430.376 127.419 430.231 127.789C430.099 128.146 430.033 128.536 430.033 128.959C430.033 129.382 430.099 129.778 430.231 130.148C430.376 130.505 430.575 130.822 430.826 131.1C431.077 131.364 431.374 131.576 431.718 131.734C432.075 131.893 432.465 131.972 432.888 131.972ZM442.623 126.104H438.717V123.943H449.027V126.104H445.141V133.975H442.623V126.104ZM454.749 123.685C455.515 123.685 456.222 123.817 456.87 124.082C457.518 124.333 458.073 124.696 458.535 125.172C458.998 125.635 459.355 126.203 459.606 126.877C459.87 127.538 460.002 128.278 460.002 129.098V129.375H452.033C452.059 129.772 452.145 130.135 452.29 130.466C452.449 130.796 452.654 131.087 452.905 131.338C453.156 131.589 453.453 131.787 453.797 131.933C454.141 132.065 454.524 132.131 454.947 132.131C455.343 132.131 455.687 132.091 455.978 132.012C456.269 131.919 456.506 131.814 456.692 131.695C456.89 131.576 457.042 131.457 457.148 131.338C457.266 131.206 457.346 131.107 457.385 131.041H459.883C459.844 131.305 459.725 131.622 459.527 131.992C459.328 132.349 459.031 132.693 458.634 133.023C458.238 133.354 457.736 133.638 457.128 133.876C456.52 134.114 455.793 134.232 454.947 134.232C454.127 134.232 453.381 134.1 452.707 133.836C452.046 133.572 451.477 133.202 451.002 132.726C450.526 132.25 450.156 131.695 449.891 131.06C449.627 130.413 449.495 129.712 449.495 128.959C449.495 128.179 449.62 127.465 449.872 126.818C450.136 126.17 450.499 125.615 450.962 125.152C451.438 124.69 451.993 124.333 452.627 124.082C453.275 123.817 453.982 123.685 454.749 123.685ZM454.749 125.648C454.061 125.648 453.486 125.826 453.024 126.183C452.574 126.527 452.27 127.009 452.112 127.631H457.346C457.161 126.996 456.844 126.507 456.394 126.163C455.945 125.82 455.396 125.648 454.749 125.648ZM461.807 123.943H464.305V128.166L468.944 123.943H472.255L466.922 128.741L472.513 133.975H469.143L464.305 129.474V133.975H461.807V123.943ZM477.756 123.685C478.522 123.685 479.229 123.817 479.877 124.082C480.525 124.333 481.08 124.696 481.542 125.172C482.005 125.635 482.362 126.203 482.613 126.877C482.877 127.538 483.009 128.278 483.009 129.098V129.375H475.04C475.066 129.772 475.152 130.135 475.297 130.466C475.456 130.796 475.661 131.087 475.912 131.338C476.163 131.589 476.46 131.787 476.804 131.933C477.148 132.065 477.531 132.131 477.954 132.131C478.35 132.131 478.694 132.091 478.985 132.012C479.276 131.919 479.514 131.814 479.699 131.695C479.897 131.576 480.049 131.457 480.155 131.338C480.274 131.206 480.353 131.107 480.392 131.041H482.89C482.851 131.305 482.732 131.622 482.534 131.992C482.335 132.349 482.038 132.693 481.641 133.023C481.245 133.354 480.743 133.638 480.135 133.876C479.527 134.114 478.8 134.232 477.954 134.232C477.134 134.232 476.388 134.1 475.714 133.836C475.053 133.572 474.484 133.202 474.009 132.726C473.533 132.25 473.163 131.695 472.898 131.06C472.634 130.413 472.502 129.712 472.502 128.959C472.502 128.179 472.627 127.465 472.879 126.818C473.143 126.17 473.506 125.615 473.969 125.152C474.445 124.69 475 124.333 475.634 124.082C476.282 123.817 476.989 123.685 477.756 123.685ZM477.756 125.648C477.068 125.648 476.493 125.826 476.031 126.183C475.581 126.527 475.277 127.009 475.119 127.631H480.353C480.168 126.996 479.851 126.507 479.401 126.163C478.952 125.82 478.403 125.648 477.756 125.648Z" fill="black"/>
<path d="M555.977 103.701V108.003H553.638V103.701H549.494V101.481H553.638V97.1983H555.977V101.481H560.121V103.701H555.977Z" fill="black"/>
<rect x="585.135" y="29.9359" width="273.623" height="143.078" rx="34.9864" fill="#F8F8F8"/>
<path d="M628.968 82.3985H642.806V84.7776H637.215V96.4747H634.558V84.7776H628.968V82.3985ZM647.299 86.1852C648.065 86.1852 648.772 86.3174 649.42 86.5817C650.068 86.8329 650.623 87.1963 651.085 87.6722C651.548 88.1347 651.905 88.7031 652.156 89.3772C652.42 90.038 652.552 90.7782 652.552 91.5976V91.8752H644.583C644.609 92.2717 644.695 92.6352 644.84 92.9656C644.999 93.296 645.204 93.5868 645.455 93.8379C645.706 94.089 646.003 94.2873 646.347 94.4327C646.691 94.5649 647.074 94.6309 647.497 94.6309C647.893 94.6309 648.237 94.5913 648.528 94.512C648.819 94.4195 649.057 94.3137 649.242 94.1948C649.44 94.0758 649.592 93.9569 649.698 93.8379C649.816 93.7058 649.896 93.6066 649.935 93.5405H652.433C652.394 93.8049 652.275 94.1221 652.077 94.4922C651.878 94.849 651.581 95.1927 651.184 95.5231C650.788 95.8535 650.286 96.1377 649.678 96.3756C649.07 96.6135 648.343 96.7325 647.497 96.7325C646.677 96.7325 645.931 96.6003 645.257 96.336C644.596 96.0716 644.027 95.7015 643.552 95.2257C643.076 94.7499 642.706 94.1948 642.441 93.5604C642.177 92.9127 642.045 92.2122 642.045 91.4588C642.045 90.679 642.17 89.9653 642.422 89.3177C642.686 88.67 643.049 88.1149 643.512 87.6523C643.988 87.1897 644.543 86.8329 645.177 86.5817C645.825 86.3174 646.532 86.1852 647.299 86.1852ZM647.299 88.148C646.611 88.148 646.036 88.3264 645.574 88.6833C645.124 89.0269 644.82 89.5093 644.662 90.1305H649.896C649.711 89.4961 649.394 89.0071 648.944 88.6634C648.495 88.3198 647.946 88.148 647.299 88.148ZM654.357 86.443H656.855V90.6658L661.494 86.443H664.805L659.472 91.2408L665.063 96.4747H661.693L656.855 91.9743V96.4747H654.357V86.443ZM669.783 100.698H667.246L669.149 96.2963L664.629 86.443H667.483L670.437 93.263L673.391 86.443H675.969L669.783 100.698ZM679.709 86.443V94.3137H683.733V86.443H686.251V94.3137H690.276V86.443H692.794V94.3137H694.538V99.4288H692.298V96.4747H677.191V86.443H679.709ZM703.138 94.8887C703.085 94.9944 702.979 95.1464 702.821 95.3447C702.675 95.5429 702.464 95.7412 702.186 95.9394C701.922 96.1377 701.585 96.3161 701.175 96.4747C700.779 96.6201 700.303 96.6928 699.748 96.6928C699.1 96.6928 698.492 96.5739 697.924 96.336C697.356 96.098 696.853 95.7544 696.417 95.305C695.994 94.8556 695.657 94.3071 695.406 93.6595C695.155 93.0119 695.029 92.2783 695.029 91.4588C695.029 90.6526 695.155 89.9257 695.406 89.278C695.657 88.6304 695.994 88.0819 696.417 87.6325C696.853 87.1699 697.356 86.8196 697.924 86.5817C698.505 86.3438 699.12 86.2249 699.768 86.2249C700.296 86.2249 700.759 86.2976 701.155 86.443C701.552 86.5751 701.882 86.7403 702.147 86.9386C702.424 87.1236 702.642 87.3153 702.801 87.5135C702.96 87.6986 703.065 87.844 703.118 87.9497V86.443H705.656V96.4747H703.138V94.8887ZM703.158 91.4588C703.158 91.0359 703.092 90.6394 702.96 90.2693C702.827 89.8992 702.642 89.582 702.404 89.3177C702.167 89.0401 701.876 88.8286 701.532 88.6833C701.202 88.5247 700.832 88.4453 700.422 88.4453C699.999 88.4453 699.609 88.5247 699.252 88.6833C698.909 88.8286 698.611 89.0401 698.36 89.3177C698.122 89.582 697.937 89.8992 697.805 90.2693C697.673 90.6394 697.607 91.0359 697.607 91.4588C697.607 91.8818 697.673 92.2783 697.805 92.6484C697.937 93.0185 698.122 93.3423 698.36 93.6198C698.611 93.8842 698.909 94.0957 699.252 94.2543C699.609 94.3996 699.999 94.4723 700.422 94.4723C700.832 94.4723 701.202 94.3996 701.532 94.2543C701.876 94.0957 702.167 93.8842 702.404 93.6198C702.642 93.3423 702.827 93.0185 702.96 92.6484C703.092 92.2783 703.158 91.8818 703.158 91.4588ZM714.953 96.4747V93.1044H712.654L710.314 96.4747H707.479L710.136 92.7277C709.33 92.5162 708.741 92.1527 708.371 91.6373C708.001 91.1086 707.816 90.4676 707.816 89.7142C707.816 89.278 707.889 88.8617 708.034 88.4652C708.18 88.0687 708.404 87.725 708.708 87.4342C709.012 87.1302 709.402 86.8923 709.878 86.7205C710.354 86.5355 710.922 86.443 711.583 86.443H717.471V96.4747H714.953ZM714.953 91.0425V88.485H711.92C710.902 88.485 710.394 88.9013 710.394 89.734C710.394 90.1437 710.519 90.4676 710.77 90.7055C711.035 90.9302 711.418 91.0425 711.92 91.0425H714.953ZM731.204 88.604H727.794L727.616 90.0512C727.549 90.6063 727.477 91.102 727.397 91.5381C727.331 91.9743 727.259 92.3642 727.179 92.7079C727.1 93.0383 727.008 93.3357 726.902 93.6C726.796 93.8644 726.677 94.1023 726.545 94.3137H731.204V88.604ZM723.016 99.4288V94.3137H724.106C724.252 94.1023 724.384 93.8644 724.503 93.6C724.622 93.3357 724.728 93.0251 724.82 92.6682C724.926 92.3113 725.018 91.9082 725.098 91.4588C725.19 91.0095 725.269 90.494 725.336 89.9124L725.752 86.443H733.722V94.3137H735.466V99.4288H733.226V96.4747H725.256V99.4288H723.016ZM741.363 86.1852C742.13 86.1852 742.837 86.3174 743.485 86.5817C744.146 86.8461 744.714 87.2162 745.19 87.692C745.679 88.1546 746.062 88.7097 746.34 89.3573C746.617 89.9917 746.756 90.6923 746.756 91.4588C746.756 92.2254 746.617 92.9326 746.34 93.5802C746.062 94.2146 745.679 94.7697 745.19 95.2455C744.714 95.7081 744.146 96.0716 743.485 96.336C742.837 96.6003 742.13 96.7325 741.363 96.7325C740.584 96.7325 739.863 96.6003 739.202 96.336C738.555 96.0716 737.986 95.7081 737.497 95.2455C737.008 94.7697 736.625 94.2146 736.347 93.5802C736.083 92.9326 735.951 92.2254 735.951 91.4588C735.951 90.6923 736.083 89.9917 736.347 89.3573C736.625 88.7097 737.008 88.1546 737.497 87.692C737.986 87.2162 738.555 86.8461 739.202 86.5817C739.863 86.3174 740.584 86.1852 741.363 86.1852ZM741.363 94.4723C741.786 94.4723 742.17 94.3996 742.513 94.2543C742.87 94.0957 743.167 93.8842 743.405 93.6198C743.657 93.3423 743.848 93.0185 743.98 92.6484C744.126 92.2783 744.198 91.8818 744.198 91.4588C744.198 91.0359 744.126 90.6394 743.98 90.2693C743.848 89.8992 743.657 89.582 743.405 89.3177C743.167 89.0401 742.87 88.8286 742.513 88.6833C742.17 88.5247 741.786 88.4453 741.363 88.4453C740.94 88.4453 740.551 88.5247 740.194 88.6833C739.85 88.8419 739.553 89.0599 739.301 89.3375C739.05 89.6018 738.852 89.9191 738.707 90.2891C738.575 90.646 738.508 91.0359 738.508 91.4588C738.508 91.8818 738.575 92.2783 738.707 92.6484C738.852 93.0052 739.05 93.3225 739.301 93.6C739.553 93.8644 739.85 94.0758 740.194 94.2344C740.551 94.393 740.94 94.4723 741.363 94.4723ZM749.689 86.443H757.778V96.4747H755.26V88.604H751.751L751.414 92.1726C751.347 92.9259 751.242 93.5802 751.096 94.1353C750.951 94.6904 750.746 95.1464 750.482 95.5033C750.217 95.8601 749.88 96.1311 749.471 96.3161C749.061 96.4879 748.559 96.5739 747.964 96.5739H747.29V94.2741H747.528C747.819 94.2741 748.056 94.241 748.241 94.175C748.44 94.0957 748.598 93.9701 748.717 93.7983C748.836 93.6132 748.929 93.3687 748.995 93.0647C749.061 92.7607 749.114 92.3774 749.153 91.9148L749.689 86.443ZM760.328 86.443H768.1V88.604H762.846V96.4747H760.328V86.443ZM773.977 86.1852C774.743 86.1852 775.45 86.3174 776.098 86.5817C776.759 86.8461 777.327 87.2162 777.803 87.692C778.292 88.1546 778.675 88.7097 778.953 89.3573C779.23 89.9917 779.369 90.6923 779.369 91.4588C779.369 92.2254 779.23 92.9326 778.953 93.5802C778.675 94.2146 778.292 94.7697 777.803 95.2455C777.327 95.7081 776.759 96.0716 776.098 96.336C775.45 96.6003 774.743 96.7325 773.977 96.7325C773.197 96.7325 772.476 96.6003 771.816 96.336C771.168 96.0716 770.6 95.7081 770.111 95.2455C769.621 94.7697 769.238 94.2146 768.961 93.5802C768.696 92.9326 768.564 92.2254 768.564 91.4588C768.564 90.6923 768.696 89.9917 768.961 89.3573C769.238 88.7097 769.621 88.1546 770.111 87.692C770.6 87.2162 771.168 86.8461 771.816 86.5817C772.476 86.3174 773.197 86.1852 773.977 86.1852ZM773.977 94.4723C774.399 94.4723 774.783 94.3996 775.126 94.2543C775.483 94.0957 775.781 93.8842 776.019 93.6198C776.27 93.3423 776.461 93.0185 776.594 92.6484C776.739 92.2783 776.812 91.8818 776.812 91.4588C776.812 91.0359 776.739 90.6394 776.594 90.2693C776.461 89.8992 776.27 89.582 776.019 89.3177C775.781 89.0401 775.483 88.8286 775.126 88.6833C774.783 88.5247 774.399 88.4453 773.977 88.4453C773.554 88.4453 773.164 88.5247 772.807 88.6833C772.463 88.8419 772.166 89.0599 771.915 89.3375C771.664 89.6018 771.465 89.9191 771.32 90.2891C771.188 90.646 771.122 91.0359 771.122 91.4588C771.122 91.8818 771.188 92.2783 771.32 92.6484C771.465 93.0052 771.664 93.3225 771.915 93.6C772.166 93.8644 772.463 94.0758 772.807 94.2344C773.164 94.393 773.554 94.4723 773.977 94.4723ZM781.284 86.443H787.113C787.628 86.443 788.097 86.5024 788.52 86.6214C788.943 86.7271 789.307 86.8923 789.611 87.117C789.928 87.3417 790.172 87.6193 790.344 87.9497C790.516 88.2801 790.602 88.6634 790.602 89.0996C790.602 89.4036 790.556 89.6811 790.463 89.9323C790.384 90.1702 790.271 90.3817 790.126 90.5667C789.981 90.7385 789.815 90.8905 789.63 91.0227C789.445 91.1416 789.26 91.2275 789.075 91.2804C789.313 91.3465 789.538 91.4456 789.749 91.5778C789.974 91.6968 790.166 91.8488 790.324 92.0338C790.496 92.2188 790.635 92.4435 790.741 92.7079C790.846 92.959 790.899 93.2498 790.899 93.5802C790.899 94.4525 790.569 95.153 789.908 95.6817C789.247 96.2104 788.329 96.4747 787.152 96.4747H781.284V86.443ZM783.802 88.366V90.4676H786.716C787.126 90.4676 787.456 90.3817 787.707 90.2098C787.972 90.038 788.104 89.7605 788.104 89.3772C788.104 89.0467 787.978 88.7956 787.727 88.6238C787.476 88.452 787.139 88.366 786.716 88.366H783.802ZM783.802 92.3113V94.5516H786.815C787.82 94.5516 788.322 94.1551 788.322 93.3621C788.322 93.0581 788.203 92.807 787.965 92.6087C787.727 92.4105 787.344 92.3113 786.815 92.3113H783.802ZM800.397 94.8887C800.344 94.9944 800.238 95.1464 800.079 95.3447C799.934 95.5429 799.723 95.7412 799.445 95.9394C799.181 96.1377 798.844 96.3161 798.434 96.4747C798.037 96.6201 797.562 96.6928 797.006 96.6928C796.359 96.6928 795.751 96.5739 795.183 96.336C794.614 96.098 794.112 95.7544 793.676 95.305C793.253 94.8556 792.916 94.3071 792.665 93.6595C792.414 93.0119 792.288 92.2783 792.288 91.4588C792.288 90.6526 792.414 89.9257 792.665 89.278C792.916 88.6304 793.253 88.0819 793.676 87.6325C794.112 87.1699 794.614 86.8196 795.183 86.5817C795.764 86.3438 796.379 86.2249 797.026 86.2249C797.555 86.2249 798.018 86.2976 798.414 86.443C798.811 86.5751 799.141 86.7403 799.405 86.9386C799.683 87.1236 799.901 87.3153 800.06 87.5135C800.218 87.6986 800.324 87.844 800.377 87.9497V86.443H802.915V96.4747H800.397V94.8887ZM800.416 91.4588C800.416 91.0359 800.35 90.6394 800.218 90.2693C800.086 89.8992 799.901 89.582 799.663 89.3177C799.425 89.0401 799.134 88.8286 798.791 88.6833C798.46 88.5247 798.09 88.4453 797.681 88.4453C797.258 88.4453 796.868 88.5247 796.511 88.6833C796.167 88.8286 795.87 89.0401 795.619 89.3177C795.381 89.582 795.196 89.8992 795.064 90.2693C794.931 90.6394 794.865 91.0359 794.865 91.4588C794.865 91.8818 794.931 92.2783 795.064 92.6484C795.196 93.0185 795.381 93.3423 795.619 93.6198C795.87 93.8842 796.167 94.0957 796.511 94.2543C796.868 94.3996 797.258 94.4723 797.681 94.4723C798.09 94.4723 798.46 94.3996 798.791 94.2543C799.134 94.0957 799.425 93.8842 799.663 93.6198C799.901 93.3423 800.086 93.0185 800.218 92.6484C800.35 92.2783 800.416 91.8818 800.416 91.4588ZM812.212 96.4747V93.1044H809.912L807.573 96.4747H804.738L807.394 92.7277C806.588 92.5162 806 92.1527 805.63 91.6373C805.26 91.1086 805.075 90.4676 805.075 89.7142C805.075 89.278 805.148 88.8617 805.293 88.4652C805.438 88.0687 805.663 87.725 805.967 87.4342C806.271 87.1302 806.661 86.8923 807.137 86.7205C807.613 86.5355 808.181 86.443 808.842 86.443H814.73V96.4747H812.212ZM812.212 91.0425V88.485H809.179C808.161 88.485 807.652 88.9013 807.652 89.734C807.652 90.1437 807.778 90.4676 808.029 90.7055C808.293 90.9302 808.677 91.0425 809.179 91.0425H812.212ZM676.64 111.443H679.158V115.269H683.956V111.443H686.474V121.475H683.956V117.43H679.158V121.475H676.64V111.443ZM696.528 119.889C696.475 119.994 696.369 120.146 696.211 120.345C696.065 120.543 695.854 120.741 695.576 120.939C695.312 121.138 694.975 121.316 694.565 121.475C694.169 121.62 693.693 121.693 693.138 121.693C692.49 121.693 691.882 121.574 691.314 121.336C690.745 121.098 690.243 120.754 689.807 120.305C689.384 119.856 689.047 119.307 688.796 118.659C688.545 118.012 688.419 117.278 688.419 116.459C688.419 115.653 688.545 114.926 688.796 114.278C689.047 113.63 689.384 113.082 689.807 112.632C690.243 112.17 690.745 111.82 691.314 111.582C691.895 111.344 692.51 111.225 693.157 111.225C693.686 111.225 694.149 111.298 694.545 111.443C694.942 111.575 695.272 111.74 695.536 111.939C695.814 112.124 696.032 112.315 696.191 112.514C696.349 112.699 696.455 112.844 696.508 112.95V111.443H699.046V121.475H696.528V119.889ZM696.548 116.459C696.548 116.036 696.482 115.639 696.349 115.269C696.217 114.899 696.032 114.582 695.794 114.318C695.556 114.04 695.266 113.829 694.922 113.683C694.591 113.525 694.221 113.445 693.812 113.445C693.389 113.445 692.999 113.525 692.642 113.683C692.298 113.829 692.001 114.04 691.75 114.318C691.512 114.582 691.327 114.899 691.195 115.269C691.063 115.639 690.996 116.036 690.996 116.459C690.996 116.882 691.063 117.278 691.195 117.648C691.327 118.018 691.512 118.342 691.75 118.62C692.001 118.884 692.298 119.096 692.642 119.254C692.999 119.4 693.389 119.472 693.812 119.472C694.221 119.472 694.591 119.4 694.922 119.254C695.266 119.096 695.556 118.884 695.794 118.62C696.032 118.342 696.217 118.018 696.349 117.648C696.482 117.278 696.548 116.882 696.548 116.459ZM701.583 111.443H709.354V113.604H704.101V121.475H701.583V111.443ZM713.378 125.678H710.88V111.443H713.398V113.029C713.437 112.936 713.537 112.791 713.695 112.593C713.867 112.395 714.092 112.196 714.369 111.998C714.66 111.787 715.01 111.608 715.42 111.463C715.83 111.304 716.306 111.225 716.847 111.225C717.495 111.225 718.11 111.344 718.691 111.582C719.273 111.82 719.775 112.163 720.198 112.613C720.634 113.062 720.978 113.611 721.229 114.258C721.48 114.906 721.606 115.639 721.606 116.459C721.606 117.278 721.48 118.012 721.229 118.659C720.978 119.307 720.634 119.856 720.198 120.305C719.775 120.754 719.273 121.098 718.691 121.336C718.11 121.574 717.495 121.693 716.847 121.693C716.306 121.693 715.83 121.62 715.42 121.475C715.01 121.329 714.66 121.164 714.369 120.979C714.079 120.781 713.854 120.589 713.695 120.404C713.537 120.206 713.431 120.054 713.378 119.948V125.678ZM713.358 116.459C713.358 116.882 713.424 117.278 713.556 117.648C713.689 118.018 713.88 118.342 714.131 118.62C714.383 118.884 714.68 119.096 715.024 119.254C715.367 119.4 715.757 119.472 716.193 119.472C716.629 119.472 717.019 119.4 717.363 119.254C717.72 119.096 718.024 118.884 718.275 118.62C718.526 118.342 718.718 118.018 718.85 117.648C718.982 117.278 719.048 116.882 719.048 116.459C719.048 116.023 718.982 115.626 718.85 115.269C718.718 114.899 718.526 114.582 718.275 114.318C718.024 114.04 717.72 113.829 717.363 113.683C717.019 113.525 716.629 113.445 716.193 113.445C715.757 113.445 715.367 113.525 715.024 113.683C714.68 113.829 714.383 114.04 714.131 114.318C713.88 114.582 713.689 114.899 713.556 115.269C713.424 115.626 713.358 116.023 713.358 116.459ZM727.215 125.698H724.678L726.581 121.296L722.061 111.443H724.915L727.869 118.263L730.823 111.443H733.401L727.215 125.698ZM739.024 119.69C739.764 119.69 740.339 119.598 740.749 119.413C741.159 119.215 741.363 118.884 741.363 118.422C741.363 117.695 740.755 117.331 739.539 117.331H737.914V115.487H739.46C739.976 115.487 740.385 115.401 740.689 115.23C741.007 115.045 741.165 114.754 741.165 114.357C741.165 113.974 740.967 113.69 740.57 113.505C740.187 113.307 739.665 113.207 739.004 113.207C738.251 113.207 737.682 113.34 737.299 113.604C736.916 113.855 736.638 114.166 736.466 114.536H734.048C734.114 114.126 734.259 113.723 734.484 113.326C734.709 112.917 735.026 112.553 735.436 112.236C735.845 111.919 736.348 111.668 736.942 111.483C737.537 111.284 738.238 111.185 739.044 111.185C740.551 111.185 741.694 111.456 742.474 111.998C743.267 112.527 743.663 113.247 743.663 114.159C743.663 114.754 743.498 115.236 743.168 115.606C742.837 115.963 742.46 116.201 742.038 116.32C742.566 116.452 743.009 116.703 743.366 117.073C743.736 117.444 743.921 117.919 743.921 118.501C743.921 119.492 743.485 120.279 742.612 120.86C741.753 121.442 740.557 121.732 739.024 121.732C738.191 121.732 737.458 121.627 736.823 121.415C736.189 121.204 735.66 120.933 735.237 120.602C734.814 120.272 734.484 119.902 734.246 119.492C734.008 119.069 733.869 118.646 733.83 118.223H736.308C736.374 118.382 736.473 118.554 736.605 118.739C736.751 118.911 736.936 119.069 737.16 119.215C737.385 119.347 737.649 119.459 737.953 119.552C738.257 119.644 738.614 119.69 739.024 119.69ZM745.932 111.443H748.43V115.666L753.069 111.443H756.38L751.047 116.241L756.638 121.475H753.267L748.43 116.974V121.475H745.932V111.443ZM764.755 119.889C764.702 119.994 764.596 120.146 764.438 120.345C764.292 120.543 764.081 120.741 763.803 120.939C763.539 121.138 763.202 121.316 762.792 121.475C762.396 121.62 761.92 121.693 761.365 121.693C760.717 121.693 760.109 121.574 759.541 121.336C758.973 121.098 758.47 120.754 758.034 120.305C757.611 119.856 757.274 119.307 757.023 118.659C756.772 118.012 756.646 117.278 756.646 116.459C756.646 115.653 756.772 114.926 757.023 114.278C757.274 113.63 757.611 113.082 758.034 112.632C758.47 112.17 758.973 111.82 759.541 111.582C760.122 111.344 760.737 111.225 761.385 111.225C761.913 111.225 762.376 111.298 762.772 111.443C763.169 111.575 763.499 111.74 763.764 111.939C764.041 112.124 764.259 112.315 764.418 112.514C764.577 112.699 764.682 112.844 764.735 112.95V111.443H767.273V121.475H764.755V119.889ZM764.775 116.459C764.775 116.036 764.709 115.639 764.577 115.269C764.444 114.899 764.259 114.582 764.021 114.318C763.784 114.04 763.493 113.829 763.149 113.683C762.819 113.525 762.449 113.445 762.039 113.445C761.616 113.445 761.226 113.525 760.869 113.683C760.526 113.829 760.228 114.04 759.977 114.318C759.739 114.582 759.554 114.899 759.422 115.269C759.29 115.639 759.224 116.036 759.224 116.459C759.224 116.882 759.29 117.278 759.422 117.648C759.554 118.018 759.739 118.342 759.977 118.62C760.228 118.884 760.526 119.096 760.869 119.254C761.226 119.4 761.616 119.472 762.039 119.472C762.449 119.472 762.819 119.4 763.149 119.254C763.493 119.096 763.784 118.884 764.021 118.62C764.259 118.342 764.444 118.018 764.577 117.648C764.709 117.278 764.775 116.882 764.775 116.459Z" fill="black"/>
<path d="M251.908 208H858.758" stroke="black" stroke-opacity="0.12" stroke-width="1.16621"/>
<rect x="251.908" y="242.986" width="272.579" height="143.078" rx="34.9864" fill="#F8F8F8"/>
<path d="M311.984 310.328H306.215L305.659 315.364C305.554 316.382 305.415 317.241 305.243 317.941C305.085 318.642 304.893 319.21 304.668 319.646H311.984V310.328ZM314.641 307.949V319.646H316.742V325.217H314.363V322.025H302.884V325.217H300.485V319.646H302.012C302.553 318.774 302.943 317.3 303.181 315.225L303.974 307.949H314.641ZM322.86 311.736C323.627 311.736 324.334 311.868 324.982 312.132C325.643 312.397 326.211 312.767 326.687 313.243C327.176 313.705 327.559 314.26 327.837 314.908C328.114 315.542 328.253 316.243 328.253 317.009C328.253 317.776 328.114 318.483 327.837 319.131C327.559 319.765 327.176 320.32 326.687 320.796C326.211 321.259 325.643 321.622 324.982 321.886C324.334 322.151 323.627 322.283 322.86 322.283C322.081 322.283 321.36 322.151 320.699 321.886C320.052 321.622 319.483 321.259 318.994 320.796C318.505 320.32 318.122 319.765 317.845 319.131C317.58 318.483 317.448 317.776 317.448 317.009C317.448 316.243 317.58 315.542 317.845 314.908C318.122 314.26 318.505 313.705 318.994 313.243C319.483 312.767 320.052 312.397 320.699 312.132C321.36 311.868 322.081 311.736 322.86 311.736ZM322.86 320.023C323.283 320.023 323.667 319.95 324.01 319.805C324.367 319.646 324.665 319.435 324.902 319.17C325.154 318.893 325.345 318.569 325.477 318.199C325.623 317.829 325.695 317.432 325.695 317.009C325.695 316.586 325.623 316.19 325.477 315.82C325.345 315.45 325.154 315.133 324.902 314.868C324.665 314.591 324.367 314.379 324.01 314.234C323.667 314.075 323.283 313.996 322.86 313.996C322.437 313.996 322.048 314.075 321.691 314.234C321.347 314.392 321.05 314.61 320.799 314.888C320.547 315.152 320.349 315.47 320.204 315.84C320.072 316.197 320.006 316.586 320.006 317.009C320.006 317.432 320.072 317.829 320.204 318.199C320.349 318.556 320.547 318.873 320.799 319.151C321.05 319.415 321.347 319.626 321.691 319.785C322.048 319.944 322.437 320.023 322.86 320.023ZM334.494 318.714L331.52 322.025H328.606L333.047 317.069L328.586 311.993H331.838L334.673 315.265L337.607 311.993H340.541L336.12 316.91L340.541 322.025H337.429L334.494 318.714ZM346.293 311.736C347.06 311.736 347.767 311.868 348.415 312.132C349.076 312.397 349.644 312.767 350.12 313.243C350.609 313.705 350.992 314.26 351.27 314.908C351.547 315.542 351.686 316.243 351.686 317.009C351.686 317.776 351.547 318.483 351.27 319.131C350.992 319.765 350.609 320.32 350.12 320.796C349.644 321.259 349.076 321.622 348.415 321.886C347.767 322.151 347.06 322.283 346.293 322.283C345.514 322.283 344.793 322.151 344.132 321.886C343.485 321.622 342.916 321.259 342.427 320.796C341.938 320.32 341.555 319.765 341.277 319.131C341.013 318.483 340.881 317.776 340.881 317.009C340.881 316.243 341.013 315.542 341.277 314.908C341.555 314.26 341.938 313.705 342.427 313.243C342.916 312.767 343.485 312.397 344.132 312.132C344.793 311.868 345.514 311.736 346.293 311.736ZM346.293 320.023C346.716 320.023 347.1 319.95 347.443 319.805C347.8 319.646 348.098 319.435 348.335 319.17C348.587 318.893 348.778 318.569 348.91 318.199C349.056 317.829 349.128 317.432 349.128 317.009C349.128 316.586 349.056 316.19 348.91 315.82C348.778 315.45 348.587 315.133 348.335 314.868C348.098 314.591 347.8 314.379 347.443 314.234C347.1 314.075 346.716 313.996 346.293 313.996C345.87 313.996 345.481 314.075 345.124 314.234C344.78 314.392 344.483 314.61 344.232 314.888C343.98 315.152 343.782 315.47 343.637 315.84C343.505 316.197 343.438 316.586 343.438 317.009C343.438 317.432 343.505 317.829 343.637 318.199C343.782 318.556 343.98 318.873 344.232 319.151C344.483 319.415 344.78 319.626 345.124 319.785C345.481 319.944 345.87 320.023 346.293 320.023ZM360.341 314.154H356.931L356.753 315.602C356.687 316.157 356.614 316.653 356.535 317.089C356.469 317.525 356.396 317.915 356.317 318.258C356.237 318.589 356.145 318.886 356.039 319.151C355.933 319.415 355.815 319.653 355.682 319.864H360.341V314.154ZM352.153 324.979V319.864H353.244C353.389 319.653 353.521 319.415 353.64 319.151C353.759 318.886 353.865 318.576 353.958 318.219C354.063 317.862 354.156 317.459 354.235 317.009C354.328 316.56 354.407 316.045 354.473 315.463L354.889 311.993H362.859V319.864H364.604V324.979H362.364V322.025H354.394V324.979H352.153ZM374.581 320.241C375.321 320.241 375.896 320.148 376.306 319.963C376.716 319.765 376.921 319.435 376.921 318.972C376.921 318.245 376.313 317.882 375.097 317.882H373.471V316.038H375.017C375.533 316.038 375.942 315.952 376.246 315.78C376.564 315.595 376.722 315.304 376.722 314.908C376.722 314.525 376.524 314.24 376.128 314.055C375.744 313.857 375.222 313.758 374.561 313.758C373.808 313.758 373.24 313.89 372.856 314.154C372.473 314.406 372.195 314.716 372.024 315.086H369.605C369.671 314.677 369.816 314.273 370.041 313.877C370.266 313.467 370.583 313.104 370.993 312.787C371.402 312.469 371.905 312.218 372.499 312.033C373.094 311.835 373.795 311.736 374.601 311.736C376.108 311.736 377.251 312.007 378.031 312.549C378.824 313.077 379.22 313.798 379.22 314.71C379.22 315.304 379.055 315.787 378.725 316.157C378.394 316.514 378.018 316.752 377.595 316.871C378.123 317.003 378.566 317.254 378.923 317.624C379.293 317.994 379.478 318.47 379.478 319.051C379.478 320.043 379.042 320.829 378.17 321.411C377.31 321.992 376.114 322.283 374.581 322.283C373.748 322.283 373.015 322.177 372.38 321.966C371.746 321.754 371.217 321.483 370.794 321.153C370.371 320.823 370.041 320.452 369.803 320.043C369.565 319.62 369.426 319.197 369.387 318.774H371.865C371.931 318.932 372.03 319.104 372.162 319.289C372.308 319.461 372.493 319.62 372.718 319.765C372.942 319.897 373.207 320.01 373.511 320.102C373.815 320.195 374.171 320.241 374.581 320.241ZM388.983 320.439C388.93 320.545 388.824 320.697 388.666 320.895C388.52 321.093 388.309 321.292 388.031 321.49C387.767 321.688 387.43 321.867 387.02 322.025C386.624 322.171 386.148 322.243 385.593 322.243C384.945 322.243 384.337 322.124 383.769 321.886C383.2 321.649 382.698 321.305 382.262 320.856C381.839 320.406 381.502 319.858 381.251 319.21C381 318.562 380.874 317.829 380.874 317.009C380.874 316.203 381 315.476 381.251 314.829C381.502 314.181 381.839 313.632 382.262 313.183C382.698 312.72 383.2 312.37 383.769 312.132C384.35 311.894 384.965 311.775 385.613 311.775C386.141 311.775 386.604 311.848 387 311.993C387.397 312.126 387.727 312.291 387.992 312.489C388.269 312.674 388.487 312.866 388.646 313.064C388.804 313.249 388.91 313.395 388.963 313.5V311.993H391.501V322.025H388.983V320.439ZM389.003 317.009C389.003 316.586 388.937 316.19 388.804 315.82C388.672 315.45 388.487 315.133 388.249 314.868C388.011 314.591 387.721 314.379 387.377 314.234C387.047 314.075 386.677 313.996 386.267 313.996C385.844 313.996 385.454 314.075 385.097 314.234C384.753 314.379 384.456 314.591 384.205 314.868C383.967 315.133 383.782 315.45 383.65 315.82C383.518 316.19 383.452 316.586 383.452 317.009C383.452 317.432 383.518 317.829 383.65 318.199C383.782 318.569 383.967 318.893 384.205 319.17C384.456 319.435 384.753 319.646 385.097 319.805C385.454 319.95 385.844 320.023 386.267 320.023C386.677 320.023 387.047 319.95 387.377 319.805C387.721 319.646 388.011 319.435 388.249 319.17C388.487 318.893 388.672 318.569 388.804 318.199C388.937 317.829 389.003 317.432 389.003 317.009ZM398.657 311.736C399.424 311.736 400.131 311.868 400.779 312.132C401.426 312.383 401.981 312.747 402.444 313.223C402.906 313.685 403.263 314.254 403.514 314.928C403.779 315.589 403.911 316.329 403.911 317.148V317.426H395.941C395.968 317.822 396.053 318.186 396.199 318.516C396.357 318.847 396.562 319.137 396.813 319.388C397.065 319.64 397.362 319.838 397.706 319.983C398.049 320.115 398.433 320.181 398.855 320.181C399.252 320.181 399.596 320.142 399.886 320.063C400.177 319.97 400.415 319.864 400.6 319.745C400.798 319.626 400.95 319.507 401.056 319.388C401.175 319.256 401.254 319.157 401.294 319.091H403.792C403.752 319.355 403.633 319.673 403.435 320.043C403.237 320.4 402.94 320.743 402.543 321.074C402.147 321.404 401.644 321.688 401.036 321.926C400.428 322.164 399.701 322.283 398.855 322.283C398.036 322.283 397.289 322.151 396.615 321.886C395.954 321.622 395.386 321.252 394.91 320.776C394.434 320.3 394.064 319.745 393.8 319.111C393.536 318.463 393.403 317.763 393.403 317.009C393.403 316.23 393.529 315.516 393.78 314.868C394.044 314.221 394.408 313.665 394.871 313.203C395.346 312.74 395.901 312.383 396.536 312.132C397.183 311.868 397.891 311.736 398.657 311.736ZM398.657 313.699C397.97 313.699 397.395 313.877 396.932 314.234C396.483 314.577 396.179 315.06 396.02 315.681H401.254C401.069 315.047 400.752 314.558 400.303 314.214C399.853 313.87 399.305 313.699 398.657 313.699ZM405.755 311.993H409.205L412.536 318.952L415.866 311.993H419.237V322.025H416.778V314.551L413.269 322.065H411.584L408.095 314.61V322.025H405.755V311.993ZM424.346 311.993V319.864H428.37V311.993H430.888V319.864H434.913V311.993H437.431V319.864H439.175V324.979H436.935V322.025H421.828V311.993H424.346ZM440.514 311.993H443.012V318.714L448.048 311.993H450.566V322.025H448.048V315.285L443.012 322.025H440.514V311.993ZM453.101 311.993H455.599V316.216L460.238 311.993H463.549L458.216 316.791L463.807 322.025H460.437L455.599 317.525V322.025H453.101V311.993ZM471.925 320.439C471.872 320.545 471.766 320.697 471.607 320.895C471.462 321.093 471.25 321.292 470.973 321.49C470.709 321.688 470.372 321.867 469.962 322.025C469.565 322.171 469.089 322.243 468.534 322.243C467.887 322.243 467.279 322.124 466.71 321.886C466.142 321.649 465.64 321.305 465.204 320.856C464.781 320.406 464.444 319.858 464.193 319.21C463.941 318.562 463.816 317.829 463.816 317.009C463.816 316.203 463.941 315.476 464.193 314.829C464.444 314.181 464.781 313.632 465.204 313.183C465.64 312.72 466.142 312.37 466.71 312.132C467.292 311.894 467.907 311.775 468.554 311.775C469.083 311.775 469.545 311.848 469.942 311.993C470.338 312.126 470.669 312.291 470.933 312.489C471.211 312.674 471.429 312.866 471.587 313.064C471.746 313.249 471.852 313.395 471.905 313.5V311.993H474.442V322.025H471.925V320.439ZM471.944 317.009C471.944 316.586 471.878 316.19 471.746 315.82C471.614 315.45 471.429 315.133 471.191 314.868C470.953 314.591 470.662 314.379 470.319 314.234C469.988 314.075 469.618 313.996 469.208 313.996C468.785 313.996 468.396 314.075 468.039 314.234C467.695 314.379 467.398 314.591 467.147 314.868C466.909 315.133 466.724 315.45 466.591 315.82C466.459 316.19 466.393 316.586 466.393 317.009C466.393 317.432 466.459 317.829 466.591 318.199C466.724 318.569 466.909 318.893 467.147 319.17C467.398 319.435 467.695 319.646 468.039 319.805C468.396 319.95 468.785 320.023 469.208 320.023C469.618 320.023 469.988 319.95 470.319 319.805C470.662 319.646 470.953 319.435 471.191 319.17C471.429 318.893 471.614 318.569 471.746 318.199C471.878 317.829 471.944 317.432 471.944 317.009Z" fill="black"/>
<path d="M555.977 316.752V321.054H553.638V316.752H549.494V314.531H553.638V310.249H555.977V314.531H560.121V316.752H555.977Z" fill="black"/>
<rect x="585.135" y="242.986" width="273.623" height="143.078" rx="34.9864" fill="#F8F8F8"/>
<path d="M645.742 297.828H639.972L639.417 302.864C639.311 303.882 639.173 304.741 639.001 305.441C638.842 306.142 638.651 306.71 638.426 307.146H645.742V297.828ZM648.398 295.449V307.146H650.5V312.717H648.121V309.525H636.642V312.717H634.243V307.146H635.769C636.311 306.274 636.701 304.8 636.939 302.725L637.732 295.449H648.398ZM656.618 299.236C657.385 299.236 658.092 299.368 658.739 299.632C659.4 299.897 659.969 300.267 660.444 300.743C660.933 301.205 661.317 301.76 661.594 302.408C661.872 303.042 662.011 303.743 662.011 304.509C662.011 305.276 661.872 305.983 661.594 306.631C661.317 307.265 660.933 307.82 660.444 308.296C659.969 308.759 659.4 309.122 658.739 309.386C658.092 309.651 657.385 309.783 656.618 309.783C655.838 309.783 655.118 309.651 654.457 309.386C653.809 309.122 653.241 308.759 652.752 308.296C652.263 307.82 651.88 307.265 651.602 306.631C651.338 305.983 651.206 305.276 651.206 304.509C651.206 303.743 651.338 303.042 651.602 302.408C651.88 301.76 652.263 301.205 652.752 300.743C653.241 300.267 653.809 299.897 654.457 299.632C655.118 299.368 655.838 299.236 656.618 299.236ZM656.618 307.523C657.041 307.523 657.424 307.45 657.768 307.305C658.125 307.146 658.422 306.935 658.66 306.67C658.911 306.393 659.103 306.069 659.235 305.699C659.38 305.329 659.453 304.932 659.453 304.509C659.453 304.086 659.38 303.69 659.235 303.32C659.103 302.95 658.911 302.633 658.66 302.368C658.422 302.091 658.125 301.879 657.768 301.734C657.424 301.575 657.041 301.496 656.618 301.496C656.195 301.496 655.805 301.575 655.448 301.734C655.105 301.892 654.807 302.11 654.556 302.388C654.305 302.652 654.107 302.97 653.961 303.34C653.829 303.697 653.763 304.086 653.763 304.509C653.763 304.932 653.829 305.329 653.961 305.699C654.107 306.056 654.305 306.373 654.556 306.651C654.807 306.915 655.105 307.126 655.448 307.285C655.805 307.444 656.195 307.523 656.618 307.523ZM663.925 299.493H673.561V309.525H671.043V301.654H666.443V309.525H663.925V299.493ZM680.903 299.236C681.67 299.236 682.377 299.368 683.024 299.632C683.685 299.897 684.253 300.267 684.729 300.743C685.218 301.205 685.602 301.76 685.879 302.408C686.157 303.042 686.295 303.743 686.295 304.509C686.295 305.276 686.157 305.983 685.879 306.631C685.602 307.265 685.218 307.82 684.729 308.296C684.253 308.759 683.685 309.122 683.024 309.386C682.377 309.651 681.67 309.783 680.903 309.783C680.123 309.783 679.403 309.651 678.742 309.386C678.094 309.122 677.526 308.759 677.037 308.296C676.548 307.82 676.165 307.265 675.887 306.631C675.623 305.983 675.491 305.276 675.491 304.509C675.491 303.743 675.623 303.042 675.887 302.408C676.165 301.76 676.548 301.205 677.037 300.743C677.526 300.267 678.094 299.897 678.742 299.632C679.403 299.368 680.123 299.236 680.903 299.236ZM680.903 307.523C681.326 307.523 681.709 307.45 682.053 307.305C682.41 307.146 682.707 306.935 682.945 306.67C683.196 306.393 683.388 306.069 683.52 305.699C683.665 305.329 683.738 304.932 683.738 304.509C683.738 304.086 683.665 303.69 683.52 303.32C683.388 302.95 683.196 302.633 682.945 302.368C682.707 302.091 682.41 301.879 682.053 301.734C681.709 301.575 681.326 301.496 680.903 301.496C680.48 301.496 680.09 301.575 679.733 301.734C679.39 301.892 679.092 302.11 678.841 302.388C678.59 302.652 678.392 302.97 678.246 303.34C678.114 303.697 678.048 304.086 678.048 304.509C678.048 304.932 678.114 305.329 678.246 305.699C678.392 306.056 678.59 306.373 678.841 306.651C679.092 306.915 679.39 307.126 679.733 307.285C680.09 307.444 680.48 307.523 680.903 307.523ZM689.228 299.493H697.317V309.525H694.799V301.654H691.29L690.953 305.223C690.887 305.976 690.781 306.631 690.636 307.186C690.491 307.741 690.286 308.197 690.021 308.554C689.757 308.911 689.42 309.182 689.01 309.367C688.6 309.538 688.098 309.624 687.503 309.624H686.829V307.325H687.067C687.358 307.325 687.596 307.292 687.781 307.225C687.979 307.146 688.138 307.021 688.257 306.849C688.376 306.664 688.468 306.419 688.534 306.115C688.6 305.811 688.653 305.428 688.693 304.965L689.228 299.493ZM699.907 299.493H702.425V303.32H707.223V299.493H709.741V309.525H707.223V305.481H702.425V309.525H699.907V299.493ZM712.34 299.493H714.838V306.214L719.874 299.493H722.392V309.525H719.874V302.785L714.838 309.525H712.34V299.493ZM727.782 301.654H723.876V299.493H734.186V301.654H730.3V309.525H727.782V301.654ZM739.908 299.236C740.674 299.236 741.381 299.368 742.029 299.632C742.677 299.883 743.232 300.247 743.694 300.723C744.157 301.185 744.514 301.754 744.765 302.428C745.029 303.089 745.161 303.829 745.161 304.648V304.926H737.191C737.218 305.322 737.304 305.686 737.449 306.016C737.608 306.347 737.813 306.637 738.064 306.888C738.315 307.14 738.612 307.338 738.956 307.483C739.3 307.615 739.683 307.681 740.106 307.681C740.502 307.681 740.846 307.642 741.137 307.563C741.428 307.47 741.665 307.364 741.85 307.245C742.049 307.126 742.201 307.007 742.306 306.888C742.425 306.756 742.505 306.657 742.544 306.591H745.042C745.003 306.855 744.884 307.173 744.686 307.543C744.487 307.9 744.19 308.243 743.793 308.574C743.397 308.904 742.895 309.188 742.287 309.426C741.679 309.664 740.952 309.783 740.106 309.783C739.286 309.783 738.54 309.651 737.866 309.386C737.205 309.122 736.636 308.752 736.161 308.276C735.685 307.8 735.315 307.245 735.05 306.611C734.786 305.963 734.654 305.263 734.654 304.509C734.654 303.73 734.779 303.016 735.03 302.368C735.295 301.721 735.658 301.165 736.121 300.703C736.597 300.24 737.152 299.883 737.786 299.632C738.434 299.368 739.141 299.236 739.908 299.236ZM739.908 301.199C739.22 301.199 738.645 301.377 738.183 301.734C737.733 302.077 737.429 302.56 737.271 303.181H742.505C742.32 302.547 742.002 302.058 741.553 301.714C741.104 301.37 740.555 301.199 739.908 301.199ZM748.12 299.493H756.209V309.525H753.691V301.654H750.182L749.845 305.223C749.779 305.976 749.674 306.631 749.528 307.186C749.383 307.741 749.178 308.197 748.914 308.554C748.649 308.911 748.312 309.182 747.902 309.367C747.493 309.538 746.99 309.624 746.396 309.624H745.722V307.325H745.959C746.25 307.325 746.488 307.292 746.673 307.225C746.871 307.146 747.03 307.021 747.149 306.849C747.268 306.664 747.361 306.419 747.427 306.115C747.493 305.811 747.546 305.428 747.585 304.965L748.12 299.493ZM764.509 302.606C765.223 302.606 765.831 302.699 766.333 302.884C766.849 303.056 767.265 303.293 767.582 303.597C767.899 303.901 768.131 304.265 768.276 304.688C768.435 305.098 768.514 305.547 768.514 306.036C768.514 306.485 768.435 306.922 768.276 307.344C768.131 307.767 767.899 308.144 767.582 308.475C767.265 308.792 766.855 309.049 766.353 309.248C765.851 309.433 765.243 309.525 764.529 309.525H758.8V299.493H761.317V302.606H764.509ZM761.317 304.668V307.483H764.133C765.335 307.483 765.937 307.001 765.937 306.036C765.937 305.613 765.785 305.283 765.481 305.045C765.177 304.794 764.727 304.668 764.133 304.668H761.317ZM770.051 299.493H772.569V303.32H777.367V299.493H779.885V309.525H777.367V305.481H772.569V309.525H770.051V299.493ZM788.194 302.606C788.908 302.606 789.516 302.699 790.018 302.884C790.533 303.056 790.95 303.293 791.267 303.597C791.584 303.901 791.815 304.265 791.961 304.688C792.119 305.098 792.199 305.547 792.199 306.036C792.199 306.485 792.119 306.922 791.961 307.344C791.815 307.767 791.584 308.144 791.267 308.475C790.95 308.792 790.54 309.049 790.038 309.248C789.535 309.433 788.928 309.525 788.214 309.525H782.484V299.493H785.002V302.606H788.194ZM785.002 304.668V307.483H787.817C789.02 307.483 789.621 307.001 789.621 306.036C789.621 305.613 789.469 305.283 789.165 305.045C788.861 304.794 788.412 304.668 787.817 304.668H785.002ZM793.705 299.493H796.243V309.525H793.705V299.493ZM798.828 299.493H801.326V306.214L806.362 299.493H808.88V309.525H806.362V302.785L801.326 309.525H798.828V299.493ZM803.883 296.282C804.267 296.282 804.544 296.156 804.716 295.905C804.888 295.654 804.974 295.376 804.974 295.072V294.735H806.976V295.112C806.976 295.535 806.91 295.931 806.778 296.302C806.659 296.672 806.474 296.995 806.223 297.273C805.972 297.537 805.648 297.749 805.251 297.907C804.868 298.066 804.412 298.145 803.883 298.145C803.355 298.145 802.892 298.066 802.496 297.907C802.112 297.749 801.795 297.537 801.544 297.273C801.293 296.995 801.101 296.672 800.969 296.302C800.85 295.931 800.791 295.535 800.791 295.112V294.735H802.793V295.072C802.793 295.376 802.879 295.654 803.051 295.905C803.223 296.156 803.5 296.282 803.883 296.282ZM644.456 326.654H641.046L640.868 328.102C640.802 328.657 640.729 329.153 640.65 329.589C640.584 330.025 640.511 330.415 640.432 330.758C640.352 331.089 640.26 331.386 640.154 331.651C640.048 331.915 639.93 332.153 639.797 332.364H644.456V326.654ZM636.268 337.479V332.364H637.359C637.504 332.153 637.636 331.915 637.755 331.651C637.874 331.386 637.98 331.076 638.073 330.719C638.178 330.362 638.271 329.959 638.35 329.509C638.443 329.06 638.522 328.545 638.588 327.963L639.004 324.493H646.974V332.364H648.719V337.479H646.479V334.525H638.509V337.479H636.268ZM654.616 324.236C655.382 324.236 656.089 324.368 656.737 324.632C657.398 324.897 657.966 325.267 658.442 325.743C658.931 326.205 659.314 326.76 659.592 327.408C659.87 328.042 660.008 328.743 660.008 329.509C660.008 330.276 659.87 330.983 659.592 331.631C659.314 332.265 658.931 332.82 658.442 333.296C657.966 333.759 657.398 334.122 656.737 334.386C656.089 334.651 655.382 334.783 654.616 334.783C653.836 334.783 653.116 334.651 652.455 334.386C651.807 334.122 651.239 333.759 650.75 333.296C650.261 332.82 649.877 332.265 649.6 331.631C649.336 330.983 649.203 330.276 649.203 329.509C649.203 328.743 649.336 328.042 649.6 327.408C649.877 326.76 650.261 326.205 650.75 325.743C651.239 325.267 651.807 324.897 652.455 324.632C653.116 324.368 653.836 324.236 654.616 324.236ZM654.616 332.523C655.039 332.523 655.422 332.45 655.766 332.305C656.123 332.146 656.42 331.935 656.658 331.67C656.909 331.393 657.101 331.069 657.233 330.699C657.378 330.329 657.451 329.932 657.451 329.509C657.451 329.086 657.378 328.69 657.233 328.32C657.101 327.95 656.909 327.633 656.658 327.368C656.42 327.091 656.123 326.879 655.766 326.734C655.422 326.575 655.039 326.496 654.616 326.496C654.193 326.496 653.803 326.575 653.446 326.734C653.102 326.892 652.805 327.11 652.554 327.388C652.303 327.652 652.105 327.97 651.959 328.34C651.827 328.697 651.761 329.086 651.761 329.509C651.761 329.932 651.827 330.329 651.959 330.699C652.105 331.056 652.303 331.373 652.554 331.651C652.805 331.915 653.102 332.126 653.446 332.285C653.803 332.444 654.193 332.523 654.616 332.523ZM666.25 331.214L663.276 334.525H660.361L664.802 329.569L660.342 324.493H663.593L666.428 327.765L669.362 324.493H672.297L667.875 329.41L672.297 334.525H669.184L666.25 331.214ZM678.049 324.236C678.815 324.236 679.522 324.368 680.17 324.632C680.831 324.897 681.399 325.267 681.875 325.743C682.364 326.205 682.747 326.76 683.025 327.408C683.303 328.042 683.441 328.743 683.441 329.509C683.441 330.276 683.303 330.983 683.025 331.631C682.747 332.265 682.364 332.82 681.875 333.296C681.399 333.759 680.831 334.122 680.17 334.386C679.522 334.651 678.815 334.783 678.049 334.783C677.269 334.783 676.549 334.651 675.888 334.386C675.24 334.122 674.672 333.759 674.183 333.296C673.694 332.82 673.31 332.265 673.033 331.631C672.769 330.983 672.636 330.276 672.636 329.509C672.636 328.743 672.769 328.042 673.033 327.408C673.31 326.76 673.694 326.205 674.183 325.743C674.672 325.267 675.24 324.897 675.888 324.632C676.549 324.368 677.269 324.236 678.049 324.236ZM678.049 332.523C678.472 332.523 678.855 332.45 679.199 332.305C679.555 332.146 679.853 331.935 680.091 331.67C680.342 331.393 680.534 331.069 680.666 330.699C680.811 330.329 680.884 329.932 680.884 329.509C680.884 329.086 680.811 328.69 680.666 328.32C680.534 327.95 680.342 327.633 680.091 327.368C679.853 327.091 679.555 326.879 679.199 326.734C678.855 326.575 678.472 326.496 678.049 326.496C677.626 326.496 677.236 326.575 676.879 326.734C676.535 326.892 676.238 327.11 675.987 327.388C675.736 327.652 675.537 327.97 675.392 328.34C675.26 328.697 675.194 329.086 675.194 329.509C675.194 329.932 675.26 330.329 675.392 330.699C675.537 331.056 675.736 331.373 675.987 331.651C676.238 331.915 676.535 332.126 676.879 332.285C677.236 332.444 677.626 332.523 678.049 332.523ZM692.097 326.654H688.687L688.508 328.102C688.442 328.657 688.37 329.153 688.29 329.589C688.224 330.025 688.151 330.415 688.072 330.758C687.993 331.089 687.9 331.386 687.795 331.651C687.689 331.915 687.57 332.153 687.438 332.364H692.097V326.654ZM683.909 337.479V332.364H684.999C685.145 332.153 685.277 331.915 685.396 331.651C685.515 331.386 685.62 331.076 685.713 330.719C685.819 330.362 685.911 329.959 685.99 329.509C686.083 329.06 686.162 328.545 686.228 327.963L686.645 324.493H694.615V332.364H696.359V337.479H694.119V334.525H686.149V337.479H683.909ZM706.336 332.741C707.077 332.741 707.652 332.648 708.061 332.463C708.471 332.265 708.676 331.935 708.676 331.472C708.676 330.745 708.068 330.382 706.852 330.382H705.226V328.538H706.773C707.288 328.538 707.698 328.452 708.002 328.28C708.319 328.095 708.478 327.804 708.478 327.408C708.478 327.025 708.279 326.74 707.883 326.555C707.5 326.357 706.978 326.258 706.317 326.258C705.563 326.258 704.995 326.39 704.612 326.654C704.228 326.906 703.951 327.216 703.779 327.586H701.36C701.426 327.177 701.572 326.773 701.796 326.377C702.021 325.967 702.338 325.604 702.748 325.287C703.158 324.969 703.66 324.718 704.255 324.533C704.85 324.335 705.55 324.236 706.356 324.236C707.863 324.236 709.006 324.507 709.786 325.049C710.579 325.577 710.976 326.298 710.976 327.21C710.976 327.804 710.81 328.287 710.48 328.657C710.15 329.014 709.773 329.252 709.35 329.371C709.879 329.503 710.321 329.754 710.678 330.124C711.048 330.494 711.233 330.97 711.233 331.551C711.233 332.543 710.797 333.329 709.925 333.911C709.066 334.492 707.87 334.783 706.336 334.783C705.504 334.783 704.77 334.677 704.136 334.466C703.501 334.254 702.973 333.983 702.55 333.653C702.127 333.323 701.796 332.952 701.559 332.543C701.321 332.12 701.182 331.697 701.142 331.274H703.62C703.686 331.432 703.786 331.604 703.918 331.789C704.063 331.961 704.248 332.12 704.473 332.265C704.698 332.397 704.962 332.51 705.266 332.602C705.57 332.695 705.927 332.741 706.336 332.741ZM720.738 332.939C720.685 333.045 720.58 333.197 720.421 333.395C720.276 333.593 720.064 333.792 719.787 333.99C719.522 334.188 719.185 334.367 718.776 334.525C718.379 334.671 717.903 334.743 717.348 334.743C716.7 334.743 716.092 334.624 715.524 334.386C714.956 334.149 714.454 333.805 714.017 333.356C713.594 332.906 713.257 332.358 713.006 331.71C712.755 331.062 712.63 330.329 712.63 329.509C712.63 328.703 712.755 327.976 713.006 327.329C713.257 326.681 713.594 326.132 714.017 325.683C714.454 325.22 714.956 324.87 715.524 324.632C716.106 324.394 716.72 324.275 717.368 324.275C717.897 324.275 718.359 324.348 718.756 324.493C719.152 324.626 719.483 324.791 719.747 324.989C720.025 325.174 720.243 325.366 720.401 325.564C720.56 325.749 720.666 325.895 720.718 326V324.493H723.256V334.525H720.738V332.939ZM720.758 329.509C720.758 329.086 720.692 328.69 720.56 328.32C720.428 327.95 720.243 327.633 720.005 327.368C719.767 327.091 719.476 326.879 719.132 326.734C718.802 326.575 718.432 326.496 718.022 326.496C717.599 326.496 717.209 326.575 716.852 326.734C716.509 326.879 716.211 327.091 715.96 327.368C715.722 327.633 715.537 327.95 715.405 328.32C715.273 328.69 715.207 329.086 715.207 329.509C715.207 329.932 715.273 330.329 715.405 330.699C715.537 331.069 715.722 331.393 715.96 331.67C716.211 331.935 716.509 332.146 716.852 332.305C717.209 332.45 717.599 332.523 718.022 332.523C718.432 332.523 718.802 332.45 719.132 332.305C719.476 332.146 719.767 331.935 720.005 331.67C720.243 331.393 720.428 331.069 720.56 330.699C720.692 330.329 720.758 329.932 720.758 329.509ZM730.413 324.236C731.179 324.236 731.886 324.368 732.534 324.632C733.182 324.883 733.737 325.247 734.199 325.723C734.662 326.185 735.019 326.754 735.27 327.428C735.534 328.089 735.666 328.829 735.666 329.648V329.926H727.696C727.723 330.322 727.809 330.686 727.954 331.016C728.113 331.347 728.318 331.637 728.569 331.888C728.82 332.14 729.117 332.338 729.461 332.483C729.805 332.615 730.188 332.681 730.611 332.681C731.007 332.681 731.351 332.642 731.642 332.563C731.933 332.47 732.17 332.364 732.355 332.245C732.554 332.126 732.706 332.007 732.811 331.888C732.93 331.756 733.01 331.657 733.049 331.591H735.547C735.508 331.855 735.389 332.173 735.191 332.543C734.992 332.9 734.695 333.243 734.298 333.574C733.902 333.904 733.4 334.188 732.792 334.426C732.184 334.664 731.457 334.783 730.611 334.783C729.791 334.783 729.045 334.651 728.371 334.386C727.71 334.122 727.141 333.752 726.666 333.276C726.19 332.8 725.82 332.245 725.555 331.611C725.291 330.963 725.159 330.263 725.159 329.509C725.159 328.73 725.284 328.016 725.535 327.368C725.8 326.721 726.163 326.165 726.626 325.703C727.102 325.24 727.657 324.883 728.291 324.632C728.939 324.368 729.646 324.236 730.413 324.236ZM730.413 326.199C729.725 326.199 729.15 326.377 728.688 326.734C728.238 327.077 727.934 327.56 727.776 328.181H733.01C732.825 327.547 732.507 327.058 732.058 326.714C731.609 326.37 731.06 326.199 730.413 326.199ZM737.511 324.493H740.96L744.291 331.452L747.622 324.493H750.992V334.525H748.534V327.051L745.025 334.565H743.339L739.85 327.11V334.525H737.511V324.493ZM756.101 324.493V332.364H760.126V324.493H762.644V332.364H766.668V324.493H769.186V332.364H770.931V337.479H768.69V334.525H753.583V324.493H756.101ZM772.27 324.493H774.768V331.214L779.803 324.493H782.321V334.525H779.803V327.785L774.768 334.525H772.27V324.493ZM784.857 324.493H787.355V328.716L791.994 324.493H795.305L789.972 329.291L795.562 334.525H792.192L787.355 330.025V334.525H784.857V324.493ZM803.68 332.939C803.627 333.045 803.521 333.197 803.363 333.395C803.217 333.593 803.006 333.792 802.728 333.99C802.464 334.188 802.127 334.367 801.717 334.525C801.321 334.671 800.845 334.743 800.29 334.743C799.642 334.743 799.034 334.624 798.466 334.386C797.897 334.149 797.395 333.805 796.959 333.356C796.536 332.906 796.199 332.358 795.948 331.71C795.697 331.062 795.571 330.329 795.571 329.509C795.571 328.703 795.697 327.976 795.948 327.329C796.199 326.681 796.536 326.132 796.959 325.683C797.395 325.22 797.897 324.87 798.466 324.632C799.047 324.394 799.662 324.275 800.31 324.275C800.838 324.275 801.301 324.348 801.697 324.493C802.094 324.626 802.424 324.791 802.689 324.989C802.966 325.174 803.184 325.366 803.343 325.564C803.501 325.749 803.607 325.895 803.66 326V324.493H806.198V334.525H803.68V332.939ZM803.7 329.509C803.7 329.086 803.634 328.69 803.501 328.32C803.369 327.95 803.184 327.633 802.946 327.368C802.708 327.091 802.418 326.879 802.074 326.734C801.744 326.575 801.374 326.496 800.964 326.496C800.541 326.496 800.151 326.575 799.794 326.734C799.45 326.879 799.153 327.091 798.902 327.368C798.664 327.633 798.479 327.95 798.347 328.32C798.215 328.69 798.149 329.086 798.149 329.509C798.149 329.932 798.215 330.329 798.347 330.699C798.479 331.069 798.664 331.393 798.902 331.67C799.153 331.935 799.45 332.146 799.794 332.305C800.151 332.45 800.541 332.523 800.964 332.523C801.374 332.523 801.744 332.45 802.074 332.305C802.418 332.146 802.708 331.935 802.946 331.67C803.184 331.393 803.369 331.069 803.501 330.699C803.634 330.329 803.7 329.932 803.7 329.509Z" fill="black"/>
</svg>
