<svg width="860" height="550" viewBox="0 0 860 550" fill="none" xmlns="http://www.w3.org/2000/svg">
<g clip-path="url(#clip0_1595_50)">
<path d="M860 0H0V550H860V0Z" fill="white"/>
<path d="M39.067 28.3638V48.0002H36.6891V30.4732H26.7942V48.0002H24.4164V28.3638H39.067ZM42.8816 53.5229V33.2729H45.0677V35.6124H45.3361C45.5023 35.3567 45.7324 35.0307 46.0265 34.6344C46.3269 34.2317 46.7552 33.8738 47.3113 33.5606C47.8738 33.241 48.6344 33.0812 49.5932 33.0812C50.8333 33.0812 51.9263 33.3912 52.8723 34.0112C53.8184 34.6312 54.5566 35.5101 55.0872 36.6479C55.6177 37.7857 55.883 39.128 55.883 40.6749C55.883 42.2346 55.6177 43.5865 55.0872 44.7307C54.5566 45.8685 53.8216 46.7506 52.8819 47.377C51.9423 47.997 50.8588 48.307 49.6316 48.307C48.6856 48.307 47.9281 48.1504 47.3592 47.8372C46.7903 47.5176 46.3525 47.1564 46.0456 46.7538C45.7388 46.3447 45.5023 46.0059 45.3361 45.7374H45.1444V53.5229H42.8816ZM45.106 40.6366C45.106 41.7488 45.269 42.73 45.595 43.5801C45.921 44.4239 46.3972 45.0854 47.0236 45.5648C47.65 46.0378 48.4171 46.2743 49.3248 46.2743C50.2708 46.2743 51.0602 46.0251 51.693 45.5265C52.3322 45.0215 52.8116 44.3439 53.1312 43.4938C53.4572 42.6373 53.6202 41.6849 53.6202 40.6366C53.6202 39.6011 53.4604 38.6678 53.1408 37.8368C52.8276 36.9995 52.3514 36.3379 51.7122 35.8521C51.0794 35.3599 50.2836 35.1138 49.3248 35.1138C48.4043 35.1138 47.6309 35.3471 47.0044 35.8138C46.378 36.274 45.905 36.9196 45.5854 37.7506C45.2658 38.5751 45.106 39.5371 45.106 40.6366ZM64.6427 48.307C63.3131 48.307 62.1466 47.9906 61.143 47.3578C60.1459 46.725 59.366 45.8397 58.8035 44.7019C58.2474 43.5641 57.9694 42.2346 57.9694 40.7133C57.9694 39.1792 58.2474 37.84 58.8035 36.6959C59.366 35.5517 60.1459 34.6632 61.143 34.0304C62.1466 33.3976 63.3131 33.0812 64.6427 33.0812C65.9722 33.0812 67.1356 33.3976 68.1327 34.0304C69.1363 34.6632 69.9161 35.5517 70.4722 36.6959C71.0347 37.84 71.316 39.1792 71.316 40.7133C71.316 42.2346 71.0347 43.5641 70.4722 44.7019C69.9161 45.8397 69.1363 46.725 68.1327 47.3578C67.1356 47.9906 65.9722 48.307 64.6427 48.307ZM64.6427 46.2743C65.6526 46.2743 66.4836 46.0155 67.1356 45.4977C67.7875 44.98 68.2701 44.2992 68.5834 43.4555C68.8966 42.6117 69.0532 41.6976 69.0532 40.7133C69.0532 39.7289 68.8966 38.8116 68.5834 37.9615C68.2701 37.1114 67.7875 36.4242 67.1356 35.9001C66.4836 35.3759 65.6526 35.1138 64.6427 35.1138C63.6327 35.1138 62.8017 35.3759 62.1498 35.9001C61.4978 36.4242 61.0152 37.1114 60.702 37.9615C60.3887 38.8116 60.2321 39.7289 60.2321 40.7133C60.2321 41.6976 60.3887 42.6117 60.702 43.4555C61.0152 44.2992 61.4978 44.98 62.1498 45.4977C62.8017 46.0155 63.6327 46.2743 64.6427 46.2743ZM85.6774 33.2729V45.8908H87.7485V52.7559H85.4857V48.0002H74.095V33.2729H76.3578V45.8908H83.4147V33.2729H85.6774ZM96.5752 48.307C95.1562 48.307 93.9321 47.9938 92.903 47.3674C91.8803 46.7346 91.0909 45.8525 90.5348 44.7211C89.985 43.5833 89.7102 42.2601 89.7102 40.7516C89.7102 39.2431 89.985 37.9136 90.5348 36.763C91.0909 35.606 91.8643 34.7047 92.8551 34.0591C93.8522 33.4072 95.0156 33.0812 96.3451 33.0812C97.1122 33.0812 97.8696 33.209 98.6175 33.4647C99.3654 33.7204 100.046 34.1359 100.66 34.7111C101.273 35.28 101.762 36.0343 102.127 36.9739C102.491 37.9136 102.673 39.0705 102.673 40.4448V41.4036H91.321V39.4476H100.372C100.372 38.6167 100.206 37.8752 99.8735 37.2232C99.5475 36.5712 99.0809 36.0567 98.4737 35.6795C97.8728 35.3024 97.1633 35.1138 96.3451 35.1138C95.4438 35.1138 94.664 35.3376 94.0056 35.785C93.3536 36.2261 92.8519 36.8013 92.5003 37.5109C92.1487 38.2204 91.973 38.981 91.973 39.7928V41.0968C91.973 42.209 92.1647 43.1518 92.5482 43.9253C92.9382 44.6923 93.4783 45.2772 94.1686 45.6799C94.859 46.0762 95.6612 46.2743 96.5752 46.2743C97.1697 46.2743 97.7066 46.1913 98.186 46.0251C98.6718 45.8525 99.0905 45.5968 99.4421 45.258C99.7936 44.9128 100.065 44.4846 100.257 43.9732L102.443 44.5868C102.213 45.3283 101.826 45.9803 101.283 46.5428C100.739 47.0989 100.068 47.5336 99.2695 47.8468C98.4705 48.1536 97.5724 48.307 96.5752 48.307ZM115.297 39.6011V41.7104H107.166V39.6011H115.297ZM107.703 33.2729V48.0002H105.44V33.2729H107.703ZM117.023 33.2729V48.0002H114.76V33.2729H117.023ZM118.476 35.3823V33.2729H130.442V35.3823H125.61V48.0002H123.347V35.3823H118.476ZM139.986 48.0002V33.2729H151.569V48.0002H149.306V35.3823H142.249V48.0002H139.986ZM161.009 48.307C159.68 48.307 158.513 47.9906 157.51 47.3578C156.512 46.725 155.733 45.8397 155.17 44.7019C154.614 43.5641 154.336 42.2346 154.336 40.7133C154.336 39.1792 154.614 37.84 155.17 36.6959C155.733 35.5517 156.512 34.6632 157.51 34.0304C158.513 33.3976 159.68 33.0812 161.009 33.0812C162.339 33.0812 163.502 33.3976 164.499 34.0304C165.503 34.6632 166.283 35.5517 166.839 36.6959C167.401 37.84 167.683 39.1792 167.683 40.7133C167.683 42.2346 167.401 43.5641 166.839 44.7019C166.283 45.8397 165.503 46.725 164.499 47.3578C163.502 47.9906 162.339 48.307 161.009 48.307ZM161.009 46.2743C162.019 46.2743 162.85 46.0155 163.502 45.4977C164.154 44.98 164.637 44.2992 164.95 43.4555C165.263 42.6117 165.42 41.6976 165.42 40.7133C165.42 39.7289 165.263 38.8116 164.95 37.9615C164.637 37.1114 164.154 36.4242 163.502 35.9001C162.85 35.3759 162.019 35.1138 161.009 35.1138C159.999 35.1138 159.168 35.3759 158.516 35.9001C157.864 36.4242 157.382 37.1114 157.069 37.9615C156.755 38.8116 156.599 39.7289 156.599 40.7133C156.599 41.6976 156.755 42.6117 157.069 43.4555C157.382 44.2992 157.864 44.98 158.516 45.4977C159.168 46.0155 159.999 46.2743 161.009 46.2743ZM168.537 35.3823V33.2729H180.503V35.3823H175.67V48.0002H173.408V35.3823H168.537ZM188.539 48.307C187.119 48.307 185.895 47.9938 184.866 47.3674C183.844 46.7346 183.054 45.8525 182.498 44.7211C181.948 43.5833 181.673 42.2601 181.673 40.7516C181.673 39.2431 181.948 37.9136 182.498 36.763C183.054 35.606 183.828 34.7047 184.818 34.0591C185.815 33.4072 186.979 33.0812 188.308 33.0812C189.075 33.0812 189.833 33.209 190.581 33.4647C191.329 33.7204 192.009 34.1359 192.623 34.7111C193.237 35.28 193.726 36.0343 194.09 36.9739C194.454 37.9136 194.637 39.0705 194.637 40.4448V41.4036H183.284V39.4476H192.335C192.335 38.6167 192.169 37.8752 191.837 37.2232C191.511 36.5712 191.044 36.0567 190.437 35.6795C189.836 35.3024 189.127 35.1138 188.308 35.1138C187.407 35.1138 186.627 35.3376 185.969 35.785C185.317 36.2261 184.815 36.8013 184.464 37.5109C184.112 38.2204 183.936 38.981 183.936 39.7928V41.0968C183.936 42.209 184.128 43.1518 184.512 43.9253C184.901 44.6923 185.442 45.2772 186.132 45.6799C186.822 46.0762 187.624 46.2743 188.539 46.2743C189.133 46.2743 189.67 46.1913 190.149 46.0251C190.635 45.8525 191.054 45.5968 191.405 45.258C191.757 44.9128 192.029 44.4846 192.22 43.9732L194.406 44.5868C194.176 45.3283 193.79 45.9803 193.246 46.5428C192.703 47.0989 192.032 47.5336 191.233 47.8468C190.434 48.1536 189.536 48.307 188.539 48.307ZM197.404 53.5229V33.2729H199.59V35.6124H199.858C200.024 35.3567 200.254 35.0307 200.549 34.6344C200.849 34.2317 201.277 33.8738 201.833 33.5606C202.396 33.241 203.156 33.0812 204.115 33.0812C205.355 33.0812 206.448 33.3912 207.394 34.0112C208.34 34.6312 209.079 35.5101 209.609 36.6479C210.14 37.7857 210.405 39.128 210.405 40.6749C210.405 42.2346 210.14 43.5865 209.609 44.7307C209.079 45.8685 208.344 46.7506 207.404 47.377C206.464 47.997 205.381 48.307 204.154 48.307C203.208 48.307 202.45 48.1504 201.881 47.8372C201.312 47.5176 200.875 47.1564 200.568 46.7538C200.261 46.3447 200.024 46.0059 199.858 45.7374H199.666V53.5229H197.404ZM199.628 40.6366C199.628 41.7488 199.791 42.73 200.117 43.5801C200.443 44.4239 200.919 45.0854 201.546 45.5648C202.172 46.0378 202.939 46.2743 203.847 46.2743C204.793 46.2743 205.582 46.0251 206.215 45.5265C206.854 45.0215 207.334 44.3439 207.653 43.4938C207.979 42.6373 208.142 41.6849 208.142 40.6366C208.142 39.6011 207.982 38.6678 207.663 37.8368C207.35 36.9995 206.873 36.3379 206.234 35.8521C205.601 35.3599 204.806 35.1138 203.847 35.1138C202.926 35.1138 202.153 35.3471 201.527 35.8138C200.9 36.274 200.427 36.9196 200.107 37.7506C199.788 38.5751 199.628 39.5371 199.628 40.6366ZM222.041 48.0002V35.344H218.129C217.247 35.344 216.554 35.5485 216.049 35.9576C215.544 36.3667 215.291 36.9292 215.291 37.6451C215.291 38.3482 215.518 38.9011 215.972 39.3038C216.432 39.7065 217.062 39.9079 217.861 39.9079H222.616V42.0172H217.861C216.864 42.0172 216.004 41.8415 215.282 41.4899C214.559 41.1383 214.003 40.6366 213.613 39.9846C213.223 39.3262 213.028 38.5464 213.028 37.6451C213.028 36.7374 213.233 35.9576 213.642 35.3056C214.051 34.6536 214.636 34.1518 215.397 33.8003C216.164 33.4487 217.075 33.2729 218.129 33.2729H224.189V48.0002H222.041ZM212.223 48.0002L216.403 40.6749H218.858L214.678 48.0002H212.223ZM237.524 39.6011V41.7104H229.394V39.6011H237.524ZM229.931 33.2729V48.0002H227.668V33.2729H229.931ZM239.25 33.2729V48.0002H236.988V33.2729H239.25ZM252.564 39.6011V41.7104H244.434V39.6011H252.564ZM244.971 33.2729V48.0002H242.708V33.2729H244.971ZM254.29 33.2729V48.0002H252.027V33.2729H254.29ZM259.704 38.6039H263.922C265.648 38.6039 266.968 39.0417 267.882 39.9175C268.796 40.7932 269.253 41.9022 269.253 43.2445C269.253 44.1266 269.049 44.9288 268.64 45.6511C268.231 46.367 267.63 46.9391 266.837 47.3674C266.044 47.7893 265.073 48.0002 263.922 48.0002H257.748V33.2729H260.01V45.8908H263.922C264.817 45.8908 265.552 45.6543 266.128 45.1813C266.703 44.7083 266.99 44.1011 266.99 43.3596C266.99 42.5797 266.703 41.9437 266.128 41.4515C265.552 40.9594 264.817 40.7133 263.922 40.7133H259.704V38.6039ZM271.593 48.0002V33.2729H273.856V48.0002H271.593ZM279.01 33.2729L282.538 39.2942L286.067 33.2729H288.675L283.919 40.6366L288.675 48.0002H286.067L282.538 42.2857L279.01 48.0002H276.402L281.081 40.6366L276.402 33.2729H279.01ZM30.0542 80.307C28.6735 80.307 27.4846 79.981 26.4874 79.329C25.4903 78.677 24.7232 77.779 24.1863 76.6348C23.6493 75.4906 23.3809 74.1834 23.3809 72.7133C23.3809 71.2175 23.6557 69.8976 24.2055 68.7534C24.7616 67.6028 25.535 66.7047 26.5258 66.0591C27.5229 65.4072 28.6863 65.0812 30.0158 65.0812C31.0513 65.0812 31.9846 65.2729 32.8155 65.6564C33.6465 66.04 34.3273 66.5769 34.8578 67.2672C35.3883 67.9576 35.7175 68.763 35.8454 69.6834H33.5826C33.41 69.0123 33.0265 68.4178 32.432 67.9001C31.844 67.3759 31.0513 67.1138 30.0542 67.1138C29.1721 67.1138 28.3986 67.3439 27.7339 67.8042C27.0755 68.258 26.5609 68.9004 26.1902 69.7314C25.8258 70.556 25.6437 71.5243 25.6437 72.6366C25.6437 73.7743 25.8226 74.7651 26.1806 75.6089C26.5449 76.4526 27.0563 77.1078 27.7147 77.5744C28.3795 78.041 29.1593 78.2743 30.0542 78.2743C30.6422 78.2743 31.176 78.1721 31.6554 77.9675C32.1348 77.763 32.5407 77.469 32.8731 77.0854C33.2055 76.7019 33.442 76.2417 33.5826 75.7047H35.8454C35.7175 76.5741 35.4011 77.3571 34.8962 78.0538C34.3976 78.7442 33.736 79.2939 32.9114 79.703C32.0932 80.1057 31.1408 80.307 30.0542 80.307ZM36.9058 84.219V77.8908H38.1331C38.4335 77.5776 38.6924 77.2388 38.9097 76.8745C39.127 76.5101 39.3156 76.0787 39.4754 75.5801C39.6416 75.0751 39.7822 74.4615 39.8973 73.7392C40.0123 73.0105 40.1146 72.1316 40.2041 71.1025L40.7027 65.2729H50.0606V77.8908H52.3234V84.219H50.0606V80.0002H39.1686V84.219H36.9058ZM40.7027 77.8908H47.7979V67.3823H42.8121L42.4285 71.1025C42.2687 72.643 42.0706 73.9885 41.8341 75.139C41.5976 76.2896 41.2204 77.2069 40.7027 77.8908ZM60.8266 80.307C59.4076 80.307 58.1835 79.9938 57.1544 79.3674C56.1316 78.7346 55.3422 77.8525 54.7861 76.7211C54.2364 75.5833 53.9615 74.2601 53.9615 72.7516C53.9615 71.2431 54.2364 69.9136 54.7861 68.763C55.3422 67.606 56.1157 66.7047 57.1064 66.0591C58.1036 65.4072 59.2669 65.0812 60.5965 65.0812C61.3635 65.0812 62.121 65.209 62.8689 65.4647C63.6167 65.7204 64.2975 66.1359 64.9111 66.7111C65.5248 67.28 66.0137 68.0343 66.3781 68.9739C66.7424 69.9136 66.9246 71.0705 66.9246 72.4448V73.4036H55.5723V71.4476H64.6235C64.6235 70.6167 64.4573 69.8752 64.1249 69.2232C63.7989 68.5712 63.3323 68.0567 62.725 67.6795C62.1242 67.3024 61.4147 67.1138 60.5965 67.1138C59.6952 67.1138 58.9154 67.3376 58.257 67.785C57.605 68.2261 57.1032 68.8013 56.7517 69.5109C56.4001 70.2204 56.2243 70.981 56.2243 71.7928V73.0968C56.2243 74.209 56.4161 75.1518 56.7996 75.9253C57.1895 76.6923 57.7297 77.2772 58.42 77.6799C59.1103 78.0762 59.9125 78.2743 60.8266 78.2743C61.4211 78.2743 61.958 78.1913 62.4374 78.0251C62.9232 77.8525 63.3419 77.5968 63.6934 77.258C64.045 76.9128 64.3167 76.4846 64.5084 75.9732L66.6945 76.5868C66.4644 77.3283 66.0777 77.9803 65.5343 78.5428C64.991 79.0989 64.3199 79.5336 63.5208 79.8468C62.7218 80.1536 61.8238 80.307 60.8266 80.307ZM68.3878 80.0002V77.8908H68.9247C69.3657 77.8908 69.7333 77.8045 70.0273 77.6319C70.3213 77.453 70.5579 77.143 70.7368 76.7019C70.9222 76.2545 71.0628 75.6344 71.1587 74.8418C71.261 74.0428 71.3345 73.0265 71.3792 71.7928L71.6477 65.2729H81.4659V80.0002H79.2031V67.3823H73.7954L73.5653 72.6366C73.5142 73.8447 73.4055 74.9089 73.2393 75.8294C73.0795 76.7435 72.8334 77.5105 72.501 78.1305C72.175 78.7506 71.7404 79.2172 71.1971 79.5304C70.6537 79.8436 69.973 80.0002 69.1548 80.0002H68.3878ZM90.9255 80.307C89.5959 80.307 88.4294 79.9906 87.4258 79.3578C86.4287 78.725 85.6488 77.8397 85.0863 76.7019C84.5302 75.5641 84.2522 74.2346 84.2522 72.7133C84.2522 71.1792 84.5302 69.84 85.0863 68.6959C85.6488 67.5517 86.4287 66.6632 87.4258 66.0304C88.4294 65.3976 89.5959 65.0812 90.9255 65.0812C92.255 65.0812 93.4184 65.3976 94.4155 66.0304C95.4191 66.6632 96.1989 67.5517 96.755 68.6959C97.3175 69.84 97.5988 71.1792 97.5988 72.7133C97.5988 74.2346 97.3175 75.5641 96.755 76.7019C96.1989 77.8397 95.4191 78.725 94.4155 79.3578C93.4184 79.9906 92.255 80.307 90.9255 80.307ZM90.9255 78.2743C91.9354 78.2743 92.7664 78.0155 93.4184 77.4977C94.0704 76.98 94.553 76.2992 94.8662 75.4555C95.1794 74.6117 95.336 73.6976 95.336 72.7133C95.336 71.7289 95.1794 70.8116 94.8662 69.9615C94.553 69.1114 94.0704 68.4242 93.4184 67.9001C92.7664 67.3759 91.9354 67.1138 90.9255 67.1138C89.9155 67.1138 89.0846 67.3759 88.4326 67.9001C87.7806 68.4242 87.298 69.1114 86.9848 69.9615C86.6716 70.8116 86.515 71.7289 86.515 72.7133C86.515 73.6976 86.6716 74.6117 86.9848 75.4555C87.298 76.2992 87.7806 76.98 88.4326 77.4977C89.0846 78.0155 89.9155 78.2743 90.9255 78.2743ZM100.378 80.0002V65.2729H102.64V71.6778H104.136L109.429 65.2729H112.344L106.399 72.3681L112.42 80.0002H109.506L104.673 73.7871H102.64V80.0002H100.378Z" fill="black"/>
<path d="M816 427.5H464C451.021 427.5 440.5 438.021 440.5 451V504C440.5 516.979 451.021 527.5 464 527.5H816C828.979 527.5 839.5 516.979 839.5 504V451C839.5 438.021 828.979 427.5 816 427.5Z" fill="url(#paint0_linear_1595_50)" stroke="url(#paint1_linear_1595_50)"/>
<path d="M532.067 427H516.623V361.129L496.148 372.829V358.321L520.484 343.579H532.067V427ZM547.626 451.219C549.81 447.709 551.799 443.887 553.593 439.753C555.465 435.619 556.479 431.368 556.635 427H548.211V407.11H566.112V425.128C566.112 430.354 565.332 435.229 563.772 439.753C562.212 444.277 560.535 448.099 558.741 451.219H547.626ZM631.103 403.015V427H616.01V403.015H574.358V393.538L613.553 343.93H631.103V389.794H647.951V403.015H631.103ZM616.01 389.794V359.14L592.259 389.794H616.01ZM699.187 386.284C696.067 386.284 693.181 385.738 690.529 384.646C687.877 383.476 685.537 381.916 683.509 379.966C681.559 378.016 679.999 375.715 678.829 373.063C677.737 370.411 677.191 367.525 677.191 364.405C677.191 361.285 677.737 358.399 678.829 355.747C679.999 353.095 681.559 350.794 683.509 348.844C685.537 346.894 687.877 345.373 690.529 344.281C693.181 343.111 696.067 342.526 699.187 342.526C702.307 342.526 705.193 343.111 707.845 344.281C710.497 345.373 712.798 346.894 714.748 348.844C716.776 350.794 718.336 353.095 719.428 355.747C720.598 358.399 721.183 361.285 721.183 364.405C721.183 367.525 720.598 370.411 719.428 373.063C718.336 375.715 716.776 378.016 714.748 379.966C712.798 381.916 710.497 383.476 707.845 384.646C705.193 385.738 702.307 386.284 699.187 386.284ZM752.188 343.93H766.111L706.207 427H692.284L752.188 343.93ZM699.187 375.169C702.229 375.169 704.686 374.155 706.558 372.127C708.508 370.021 709.483 367.447 709.483 364.405C709.483 361.441 708.508 358.945 706.558 356.917C704.686 354.811 702.229 353.758 699.187 353.758C696.145 353.758 693.688 354.811 691.816 356.917C689.944 358.945 689.008 361.441 689.008 364.405C689.008 367.447 689.944 370.021 691.816 372.127C693.688 374.155 696.145 375.169 699.187 375.169ZM759.208 428.638C756.088 428.638 753.202 428.092 750.55 427C747.898 425.83 745.558 424.27 743.53 422.32C741.58 420.37 740.02 418.069 738.85 415.417C737.758 412.765 737.212 409.879 737.212 406.759C737.212 403.639 737.758 400.753 738.85 398.101C740.02 395.449 741.58 393.148 743.53 391.198C745.558 389.248 747.898 387.727 750.55 386.635C753.202 385.465 756.088 384.88 759.208 384.88C762.328 384.88 765.214 385.465 767.866 386.635C770.518 387.727 772.819 389.248 774.769 391.198C776.797 393.148 778.357 395.449 779.449 398.101C780.619 400.753 781.204 403.639 781.204 406.759C781.204 409.879 780.619 412.765 779.449 415.417C778.357 418.069 776.797 420.37 774.769 422.32C772.819 424.27 770.518 425.83 767.866 427C765.214 428.092 762.328 428.638 759.208 428.638ZM759.208 417.406C762.25 417.406 764.707 416.392 766.579 414.364C768.529 412.258 769.504 409.723 769.504 406.759C769.504 403.717 768.529 401.182 766.579 399.154C764.707 397.048 762.25 395.995 759.208 395.995C756.244 395.995 753.787 397.048 751.837 399.154C749.965 401.182 749.029 403.717 749.029 406.759C749.029 409.723 749.965 412.258 751.837 414.364C753.787 416.392 756.244 417.406 759.208 417.406Z" fill="#04B34A"/>
<path d="M395 213.5H45C31.469 213.5 20.5 224.469 20.5 238V503C20.5 516.531 31.469 527.5 45 527.5H395C408.531 527.5 419.5 516.531 419.5 503V238C419.5 224.469 408.531 213.5 395 213.5Z" fill="url(#paint2_linear_1595_50)" stroke="url(#paint3_linear_1595_50)"/>
<path d="M91.0674 213H75.6234V147.129L55.1484 158.829V144.321L79.4844 129.579H91.0674V213ZM138.918 213H123.474V147.129L102.999 158.829V144.321L127.335 129.579H138.918V213ZM154.477 237.219C156.661 233.709 158.65 229.887 160.444 225.753C162.316 221.619 163.33 217.368 163.486 213H155.062V193.11H172.963V211.128C172.963 216.354 172.183 221.229 170.623 225.753C169.063 230.277 167.386 234.099 165.592 237.219H154.477ZM246.612 185.154C246.612 189.288 245.871 193.149 244.389 196.737C242.985 200.325 240.918 203.445 238.188 206.097C235.458 208.671 232.143 210.699 228.243 212.181C224.421 213.663 220.053 214.404 215.139 214.404C210.225 214.404 205.818 213.702 201.918 212.298C198.018 210.816 194.703 208.788 191.973 206.214C189.321 203.562 187.293 200.442 185.889 196.854C184.485 193.266 183.783 189.366 183.783 185.154C183.783 181.956 184.095 178.992 184.719 176.262C185.421 173.532 186.357 170.919 187.527 168.423C188.775 165.927 190.218 163.509 191.856 161.169C193.494 158.751 195.327 156.255 197.355 153.681L215.724 129.93H233.391L209.523 160.233C210.849 159.375 212.409 158.712 214.203 158.244C215.997 157.776 218.103 157.542 220.521 157.542C224.343 157.542 227.853 158.205 231.051 159.531C234.249 160.857 236.979 162.729 239.241 165.147C241.581 167.565 243.375 170.49 244.623 173.922C245.949 177.276 246.612 181.02 246.612 185.154ZM231.051 185.154C231.051 180.63 229.647 176.886 226.839 173.922C224.109 170.958 220.17 169.476 215.022 169.476C210.264 169.476 206.442 170.958 203.556 173.922C200.67 176.886 199.227 180.63 199.227 185.154C199.227 187.26 199.578 189.249 200.28 191.121C201.06 192.993 202.113 194.631 203.439 196.035C204.765 197.439 206.403 198.57 208.353 199.428C210.303 200.208 212.526 200.598 215.022 200.598C217.596 200.598 219.858 200.208 221.808 199.428C223.836 198.57 225.513 197.439 226.839 196.035C228.243 194.631 229.296 192.993 229.998 191.121C230.7 189.249 231.051 187.26 231.051 185.154ZM300.896 172.284C297.776 172.284 294.89 171.738 292.238 170.646C289.586 169.476 287.246 167.916 285.218 165.966C283.268 164.016 281.708 161.715 280.538 159.063C279.446 156.411 278.9 153.525 278.9 150.405C278.9 147.285 279.446 144.399 280.538 141.747C281.708 139.095 283.268 136.794 285.218 134.844C287.246 132.894 289.586 131.373 292.238 130.281C294.89 129.111 297.776 128.526 300.896 128.526C304.016 128.526 306.902 129.111 309.554 130.281C312.206 131.373 314.507 132.894 316.457 134.844C318.485 136.794 320.045 139.095 321.137 141.747C322.307 144.399 322.892 147.285 322.892 150.405C322.892 153.525 322.307 156.411 321.137 159.063C320.045 161.715 318.485 164.016 316.457 165.966C314.507 167.916 312.206 169.476 309.554 170.646C306.902 171.738 304.016 172.284 300.896 172.284ZM353.897 129.93H367.82L307.916 213H293.993L353.897 129.93ZM300.896 161.169C303.938 161.169 306.395 160.155 308.267 158.127C310.217 156.021 311.192 153.447 311.192 150.405C311.192 147.441 310.217 144.945 308.267 142.917C306.395 140.811 303.938 139.758 300.896 139.758C297.854 139.758 295.397 140.811 293.525 142.917C291.653 144.945 290.717 147.441 290.717 150.405C290.717 153.447 291.653 156.021 293.525 158.127C295.397 160.155 297.854 161.169 300.896 161.169ZM360.917 214.638C357.797 214.638 354.911 214.092 352.259 213C349.607 211.83 347.267 210.27 345.239 208.32C343.289 206.37 341.729 204.069 340.559 201.417C339.467 198.765 338.921 195.879 338.921 192.759C338.921 189.639 339.467 186.753 340.559 184.101C341.729 181.449 343.289 179.148 345.239 177.198C347.267 175.248 349.607 173.727 352.259 172.635C354.911 171.465 357.797 170.88 360.917 170.88C364.037 170.88 366.923 171.465 369.575 172.635C372.227 173.727 374.528 175.248 376.478 177.198C378.506 179.148 380.066 181.449 381.158 184.101C382.328 186.753 382.913 189.639 382.913 192.759C382.913 195.879 382.328 198.765 381.158 201.417C380.066 204.069 378.506 206.37 376.478 208.32C374.528 210.27 372.227 211.83 369.575 213C366.923 214.092 364.037 214.638 360.917 214.638ZM360.917 203.406C363.959 203.406 366.416 202.392 368.288 200.364C370.238 198.258 371.213 195.723 371.213 192.759C371.213 189.717 370.238 187.182 368.288 185.154C366.416 183.048 363.959 181.995 360.917 181.995C357.953 181.995 355.496 183.048 353.546 185.154C351.674 187.182 350.738 189.717 350.738 192.759C350.738 195.723 351.674 198.258 353.546 200.364C355.496 202.392 357.953 203.406 360.917 203.406Z" fill="#CACACA"/>
<path d="M51.3304 490.366H47.9375C44.6583 490.366 42 493.025 42 496.304V499.697C42 502.976 44.6583 505.634 47.9375 505.634H51.3304C54.6096 505.634 57.2679 502.976 57.2679 499.697V496.304C57.2679 493.025 54.6096 490.366 51.3304 490.366Z" fill="#CECECE"/>
<path opacity="0.5" d="M70.6273 497.617V498.826H64.0537V497.617H70.6273ZM74.1054 503V493.438H80.0675V494.68H75.5481V497.295H77.6864C78.396 497.295 78.9983 497.41 79.4932 497.64C79.9912 497.871 80.3709 498.196 80.6324 498.616C80.897 499.036 81.0292 499.531 81.0292 500.101C81.0292 500.67 80.897 501.173 80.6324 501.609C80.3709 502.044 79.9912 502.385 79.4932 502.631C78.9983 502.877 78.396 503 77.6864 503H74.1054ZM75.5481 501.786H77.6864C78.0972 501.786 78.4443 501.705 78.7275 501.543C79.0139 501.381 79.2302 501.171 79.3765 500.913C79.5259 500.655 79.6006 500.378 79.6006 500.082C79.6006 499.652 79.4356 499.284 79.1057 498.976C78.7758 498.664 78.3027 498.509 77.6864 498.509H75.5481V501.786ZM85.1862 503.145C84.4796 503.145 83.8711 502.994 83.3607 502.692C82.8533 502.387 82.4611 501.959 82.1841 501.408C81.9102 500.854 81.7733 500.205 81.7733 499.461C81.7733 498.726 81.9102 498.079 82.1841 497.519C82.4611 496.959 82.8471 496.521 83.342 496.207C83.84 495.893 84.422 495.735 85.0881 495.735C85.4927 495.735 85.8849 495.802 86.2646 495.936C86.6444 496.07 86.9852 496.28 87.2871 496.566C87.589 496.853 87.8271 497.225 88.0014 497.682C88.1757 498.137 88.2629 498.689 88.2629 499.34V499.835H82.5623V498.789H86.8949C86.8949 498.421 86.8202 498.096 86.6708 497.813C86.5214 497.527 86.3113 497.301 86.0405 497.136C85.7729 496.971 85.4585 496.889 85.0974 496.889C84.7053 496.889 84.3629 496.985 84.0703 497.178C83.7808 497.368 83.5567 497.617 83.398 497.925C83.2424 498.23 83.1646 498.562 83.1646 498.919V499.737C83.1646 500.216 83.2486 500.624 83.4167 500.96C83.5879 501.296 83.826 501.553 84.131 501.73C84.436 501.904 84.7924 501.992 85.2002 501.992C85.4647 501.992 85.7059 501.954 85.9238 501.879C86.1417 501.802 86.33 501.687 86.4887 501.534C86.6475 501.381 86.7689 501.193 86.8529 500.969L88.1742 501.207C88.0684 501.596 87.8785 501.937 87.6046 502.23C87.3338 502.519 86.993 502.745 86.5821 502.907C86.1744 503.065 85.7091 503.145 85.1862 503.145ZM88.861 501.104H90.2897C90.3083 501.397 90.4406 501.623 90.6865 501.781C90.9355 501.94 91.2577 502.02 91.6529 502.02C92.0545 502.02 92.3968 501.934 92.6801 501.763C92.9633 501.588 93.1049 501.319 93.1049 500.955C93.1049 500.737 93.0505 500.547 92.9415 500.385C92.8357 500.221 92.6848 500.093 92.4887 500.003C92.2957 499.912 92.0669 499.867 91.8023 499.867H90.6352V498.77H91.8023C92.1976 498.77 92.4933 498.68 92.6894 498.499C92.8855 498.319 92.9836 498.093 92.9836 497.822C92.9836 497.53 92.8777 497.295 92.6661 497.117C92.4575 496.937 92.1665 496.847 91.793 496.847C91.4133 496.847 91.0974 496.932 90.8452 497.103C90.5931 497.271 90.4608 497.489 90.4484 497.757H89.0384C89.0478 497.355 89.1691 497.004 89.4026 496.702C89.6391 496.397 89.9566 496.16 90.355 495.992C90.7565 495.821 91.2125 495.735 91.723 495.735C92.2552 495.735 92.7159 495.821 93.1049 495.992C93.494 496.163 93.7944 496.4 94.006 496.702C94.2208 497.004 94.3282 497.351 94.3282 497.743C94.3282 498.138 94.2099 498.462 93.9733 498.714C93.7399 498.963 93.4349 499.142 93.0583 499.251V499.326C93.3353 499.344 93.5812 499.428 93.7959 499.578C94.0107 499.727 94.1788 499.925 94.3002 500.171C94.4215 500.417 94.4822 500.695 94.4822 501.006C94.4822 501.445 94.3608 501.825 94.1181 502.146C93.8784 502.466 93.5454 502.714 93.1189 502.888C92.6956 503.059 92.2116 503.145 91.667 503.145C91.1378 503.145 90.6632 503.062 90.243 502.897C89.8259 502.729 89.4944 502.493 89.2485 502.188C89.0057 501.883 88.8766 501.522 88.861 501.104ZM99.7193 501.044L102.88 495.829H104.383V503H103.015V497.78L99.8687 503H98.3514V495.829H99.7193V501.044ZM110.595 498.812V500.021H106.71V498.812H110.595ZM107.102 495.829V503H105.734V495.829H107.102ZM111.57 495.829V503H110.207V495.829H111.57ZM112.023 497.033V495.829H118.073V497.033H115.734V503H114.371V497.033H112.023ZM121.781 503.145C121.074 503.145 120.466 502.994 119.955 502.692C119.448 502.387 119.056 501.959 118.779 501.408C118.505 500.854 118.368 500.205 118.368 499.461C118.368 498.726 118.505 498.079 118.779 497.519C119.056 496.959 119.442 496.521 119.937 496.207C120.435 495.893 121.017 495.735 121.683 495.735C122.087 495.735 122.48 495.802 122.859 495.936C123.239 496.07 123.58 496.28 123.882 496.566C124.184 496.853 124.422 497.225 124.596 497.682C124.77 498.137 124.858 498.689 124.858 499.34V499.835H119.157V498.789H123.49C123.49 498.421 123.415 498.096 123.265 497.813C123.116 497.527 122.906 497.301 122.635 497.136C122.368 496.971 122.053 496.889 121.692 496.889C121.3 496.889 120.958 496.985 120.665 497.178C120.375 497.368 120.151 497.617 119.993 497.925C119.837 498.23 119.759 498.562 119.759 498.919V499.737C119.759 500.216 119.843 500.624 120.011 500.96C120.183 501.296 120.421 501.553 120.726 501.73C121.031 501.904 121.387 501.992 121.795 501.992C122.059 501.992 122.301 501.954 122.518 501.879C122.736 501.802 122.925 501.687 123.083 501.534C123.242 501.381 123.364 501.193 123.448 500.969L124.769 501.207C124.663 501.596 124.473 501.937 124.199 502.23C123.928 502.519 123.588 502.745 123.177 502.907C122.769 503.065 122.304 503.145 121.781 503.145ZM130.465 495.829V497.033H127.258V503H125.881V495.829H130.465ZM131.415 505.689V495.829H132.778V496.991H132.895C132.976 496.842 133.092 496.669 133.245 496.473C133.397 496.277 133.609 496.106 133.88 495.959C134.151 495.81 134.509 495.735 134.954 495.735C135.533 495.735 136.049 495.882 136.504 496.174C136.958 496.467 137.315 496.889 137.573 497.439C137.834 497.99 137.965 498.653 137.965 499.428C137.965 500.203 137.836 500.868 137.578 501.422C137.319 501.973 136.964 502.398 136.513 502.697C136.062 502.992 135.547 503.14 134.968 503.14C134.532 503.14 134.176 503.067 133.899 502.921C133.625 502.774 133.41 502.603 133.254 502.407C133.099 502.211 132.979 502.037 132.895 501.884H132.811V505.689H131.415ZM132.783 499.414C132.783 499.919 132.856 500.361 133.002 500.74C133.148 501.12 133.36 501.417 133.637 501.632C133.914 501.844 134.253 501.95 134.655 501.95C135.072 501.95 135.421 501.839 135.701 501.618C135.981 501.394 136.192 501.09 136.336 500.708C136.482 500.325 136.555 499.894 136.555 499.414C136.555 498.941 136.483 498.516 136.34 498.14C136.2 497.763 135.989 497.466 135.705 497.248C135.425 497.03 135.075 496.921 134.655 496.921C134.25 496.921 133.908 497.026 133.628 497.234C133.351 497.443 133.141 497.734 132.997 498.107C132.854 498.481 132.783 498.916 132.783 499.414ZM141.09 503.159C140.636 503.159 140.225 503.075 139.858 502.907C139.49 502.735 139.199 502.488 138.985 502.164C138.773 501.841 138.667 501.444 138.667 500.974C138.667 500.569 138.745 500.236 138.9 499.975C139.056 499.713 139.266 499.506 139.531 499.354C139.795 499.201 140.091 499.086 140.418 499.008C140.745 498.93 141.078 498.871 141.417 498.831C141.846 498.781 142.195 498.741 142.463 498.709C142.73 498.675 142.925 498.621 143.046 498.546C143.168 498.471 143.228 498.35 143.228 498.182V498.149C143.228 497.741 143.113 497.425 142.883 497.201C142.656 496.977 142.316 496.865 141.865 496.865C141.395 496.865 141.025 496.969 140.754 497.178C140.486 497.383 140.301 497.612 140.198 497.864L138.886 497.566C139.042 497.13 139.269 496.778 139.568 496.51C139.87 496.24 140.217 496.043 140.609 495.922C141.001 495.798 141.414 495.735 141.846 495.735C142.133 495.735 142.436 495.77 142.757 495.838C143.081 495.903 143.383 496.025 143.663 496.202C143.946 496.38 144.178 496.633 144.358 496.963C144.539 497.29 144.629 497.715 144.629 498.238V503H143.266V502.02H143.21C143.12 502.2 142.984 502.377 142.804 502.552C142.623 502.726 142.391 502.871 142.108 502.986C141.825 503.101 141.485 503.159 141.09 503.159ZM141.394 502.038C141.78 502.038 142.109 501.962 142.383 501.809C142.66 501.657 142.871 501.458 143.014 501.212C143.16 500.963 143.233 500.697 143.233 500.413V499.489C143.183 499.539 143.087 499.586 142.944 499.629C142.804 499.67 142.643 499.705 142.463 499.737C142.282 499.765 142.106 499.791 141.935 499.816C141.764 499.838 141.621 499.856 141.506 499.872C141.235 499.906 140.987 499.964 140.763 500.045C140.542 500.126 140.365 500.242 140.231 500.395C140.1 500.544 140.035 500.743 140.035 500.992C140.035 501.338 140.163 501.599 140.418 501.777C140.673 501.951 140.998 502.038 141.394 502.038ZM151.813 495.829V501.856H152.863V505.311H151.486V503H145.963V495.829H147.33V501.795H150.449V495.829H151.813ZM155.253 501.044L158.414 495.829H159.917V503H158.549V497.78L155.402 503H153.885V495.829H155.253V501.044ZM162.636 501.044L165.797 495.829H167.3V503H165.932V497.78L162.785 503H161.268V495.829H162.636V501.044Z" fill="#092A39"/>
<path d="M471.33 490.366H467.938C464.658 490.366 462 493.025 462 496.304V499.697C462 502.976 464.658 505.634 467.938 505.634H471.33C474.61 505.634 477.268 502.976 477.268 499.697V496.304C477.268 493.025 474.61 490.366 471.33 490.366Z" fill="#04B34A"/>
<path opacity="0.5" d="M490.627 497.617V498.826H484.054V497.617H490.627ZM502.047 496.548H500.59C500.534 496.236 500.43 495.963 500.277 495.726C500.125 495.489 499.938 495.289 499.717 495.124C499.496 494.959 499.249 494.834 498.975 494.75C498.704 494.666 498.416 494.624 498.111 494.624C497.56 494.624 497.067 494.763 496.631 495.04C496.199 495.317 495.856 495.723 495.604 496.258C495.355 496.794 495.231 497.447 495.231 498.219C495.231 498.997 495.355 499.654 495.604 500.189C495.856 500.725 496.2 501.129 496.636 501.403C497.072 501.677 497.562 501.814 498.106 501.814C498.408 501.814 498.695 501.774 498.966 501.693C499.239 501.609 499.487 501.486 499.708 501.324C499.929 501.162 500.116 500.964 500.268 500.731C500.424 500.494 500.531 500.224 500.59 499.919L502.047 499.923C501.969 500.393 501.818 500.826 501.594 501.221C501.373 501.613 501.088 501.953 500.74 502.239C500.394 502.522 499.999 502.742 499.554 502.897C499.109 503.053 498.623 503.131 498.097 503.131C497.269 503.131 496.532 502.935 495.884 502.542C495.237 502.147 494.726 501.582 494.353 500.848C493.982 500.113 493.797 499.237 493.797 498.219C493.797 497.198 493.984 496.322 494.357 495.591C494.731 494.856 495.241 494.293 495.889 493.901C496.536 493.505 497.272 493.308 498.097 493.308C498.605 493.308 499.078 493.381 499.516 493.527C499.958 493.67 500.355 493.882 500.707 494.162C501.059 494.439 501.35 494.778 501.58 495.18C501.81 495.578 501.966 496.034 502.047 496.548ZM507.457 501.044L510.618 495.829H512.121V503H510.753V497.78L507.606 503H506.089V495.829H507.457V501.044ZM518.332 498.812V500.021H514.448V498.812H518.332ZM514.84 495.829V503H513.472V495.829H514.84ZM519.308 495.829V503H517.945V495.829H519.308ZM519.76 497.033V495.829H525.811V497.033H523.472V503H522.108V497.033H519.76ZM529.518 503.145C528.812 503.145 528.203 502.994 527.693 502.692C527.186 502.387 526.793 501.959 526.516 501.408C526.242 500.854 526.105 500.205 526.105 499.461C526.105 498.726 526.242 498.079 526.516 497.519C526.793 496.959 527.179 496.521 527.674 496.207C528.172 495.893 528.754 495.735 529.42 495.735C529.825 495.735 530.217 495.802 530.597 495.936C530.977 496.07 531.317 496.28 531.619 496.566C531.921 496.853 532.159 497.225 532.334 497.682C532.508 498.137 532.595 498.689 532.595 499.34V499.835H526.895V498.789H531.227C531.227 498.421 531.152 498.096 531.003 497.813C530.854 497.527 530.644 497.301 530.373 497.136C530.105 496.971 529.791 496.889 529.43 496.889C529.037 496.889 528.695 496.985 528.403 497.178C528.113 497.368 527.889 497.617 527.73 497.925C527.575 498.23 527.497 498.562 527.497 498.919V499.737C527.497 500.216 527.581 500.624 527.749 500.96C527.92 501.296 528.158 501.553 528.463 501.73C528.768 501.904 529.125 501.992 529.532 501.992C529.797 501.992 530.038 501.954 530.256 501.879C530.474 501.802 530.662 501.687 530.821 501.534C530.98 501.381 531.101 501.193 531.185 500.969L532.506 501.207C532.401 501.596 532.211 501.937 531.937 502.23C531.666 502.519 531.325 502.745 530.914 502.907C530.507 503.065 530.041 503.145 529.518 503.145ZM538.203 495.829V497.033H534.995V503H533.618V495.829H538.203ZM539.152 505.689V495.829H540.516V496.991H540.632C540.713 496.842 540.83 496.669 540.982 496.473C541.135 496.277 541.347 496.106 541.617 495.959C541.888 495.81 542.246 495.735 542.691 495.735C543.27 495.735 543.787 495.882 544.241 496.174C544.696 496.467 545.052 496.889 545.31 497.439C545.572 497.99 545.703 498.653 545.703 499.428C545.703 500.203 545.573 500.868 545.315 501.422C545.057 501.973 544.702 502.398 544.251 502.697C543.799 502.992 543.284 503.14 542.705 503.14C542.269 503.14 541.913 503.067 541.636 502.921C541.362 502.774 541.147 502.603 540.992 502.407C540.836 502.211 540.716 502.037 540.632 501.884H540.548V505.689H539.152ZM540.52 499.414C540.52 499.919 540.593 500.361 540.74 500.74C540.886 501.12 541.098 501.417 541.375 501.632C541.652 501.844 541.991 501.95 542.392 501.95C542.81 501.95 543.158 501.839 543.438 501.618C543.718 501.394 543.93 501.09 544.073 500.708C544.219 500.325 544.293 499.894 544.293 499.414C544.293 498.941 544.221 498.516 544.078 498.14C543.938 497.763 543.726 497.466 543.443 497.248C543.163 497.03 542.813 496.921 542.392 496.921C541.988 496.921 541.645 497.026 541.365 497.234C541.088 497.443 540.878 497.734 540.735 498.107C540.592 498.481 540.52 498.916 540.52 499.414ZM548.828 503.159C548.373 503.159 547.962 503.075 547.595 502.907C547.228 502.735 546.937 502.488 546.722 502.164C546.51 501.841 546.405 501.444 546.405 500.974C546.405 500.569 546.482 500.236 546.638 499.975C546.794 499.713 547.004 499.506 547.268 499.354C547.533 499.201 547.829 499.086 548.155 499.008C548.482 498.93 548.815 498.871 549.155 498.831C549.584 498.781 549.933 498.741 550.2 498.709C550.468 498.675 550.663 498.621 550.784 498.546C550.905 498.471 550.966 498.35 550.966 498.182V498.149C550.966 497.741 550.851 497.425 550.621 497.201C550.393 496.977 550.054 496.865 549.603 496.865C549.133 496.865 548.762 496.969 548.492 497.178C548.224 497.383 548.039 497.612 547.936 497.864L546.624 497.566C546.78 497.13 547.007 496.778 547.306 496.51C547.608 496.24 547.955 496.043 548.347 495.922C548.739 495.798 549.151 495.735 549.584 495.735C549.87 495.735 550.174 495.77 550.494 495.838C550.818 495.903 551.12 496.025 551.4 496.202C551.683 496.38 551.915 496.633 552.096 496.963C552.276 497.29 552.367 497.715 552.367 498.238V503H551.003V502.02H550.947C550.857 502.2 550.722 502.377 550.541 502.552C550.361 502.726 550.129 502.871 549.846 502.986C549.562 503.101 549.223 503.159 548.828 503.159ZM549.131 502.038C549.517 502.038 549.847 501.962 550.121 501.809C550.398 501.657 550.608 501.458 550.751 501.212C550.898 500.963 550.971 500.697 550.971 500.413V499.489C550.921 499.539 550.824 499.586 550.681 499.629C550.541 499.67 550.381 499.705 550.2 499.737C550.02 499.765 549.844 499.791 549.673 499.816C549.502 499.838 549.358 499.856 549.243 499.872C548.972 499.906 548.725 499.964 548.501 500.045C548.28 500.126 548.102 500.242 547.969 500.395C547.838 500.544 547.773 500.743 547.773 500.992C547.773 501.338 547.9 501.599 548.155 501.777C548.411 501.951 548.736 502.038 549.131 502.038ZM559.55 495.829V501.856H560.601V505.311H559.223V503H553.7V495.829H555.068V501.795H558.187V495.829H559.55ZM562.99 501.044L566.151 495.829H567.654V503H566.287V497.78L563.14 503H561.622V495.829H562.99V501.044ZM572.096 503.145C571.39 503.145 570.781 502.994 570.271 502.692C569.763 502.387 569.371 501.959 569.094 501.408C568.82 500.854 568.683 500.205 568.683 499.461C568.683 498.726 568.82 498.079 569.094 497.519C569.371 496.959 569.757 496.521 570.252 496.207C570.75 495.893 571.332 495.735 571.998 495.735C572.403 495.735 572.795 495.802 573.175 495.936C573.554 496.07 573.895 496.28 574.197 496.566C574.499 496.853 574.737 497.225 574.911 497.682C575.086 498.137 575.173 498.689 575.173 499.34V499.835H569.472V498.789H573.805C573.805 498.421 573.73 498.096 573.581 497.813C573.431 497.527 573.221 497.301 572.951 497.136C572.683 496.971 572.369 496.889 572.007 496.889C571.615 496.889 571.273 496.985 570.98 497.178C570.691 497.368 570.467 497.617 570.308 497.925C570.152 498.23 570.075 498.562 570.075 498.919V499.737C570.075 500.216 570.159 500.624 570.327 500.96C570.498 501.296 570.736 501.553 571.041 501.73C571.346 501.904 571.702 501.992 572.11 501.992C572.375 501.992 572.616 501.954 572.834 501.879C573.052 501.802 573.24 501.687 573.399 501.534C573.558 501.381 573.679 501.193 573.763 500.969L575.084 501.207C574.978 501.596 574.789 501.937 574.515 502.23C574.244 502.519 573.903 502.745 573.492 502.907C573.084 503.065 572.619 503.145 572.096 503.145ZM577.564 501.044L580.725 495.829H582.228V503H580.86V497.78L577.713 503H576.196V495.829H577.564V501.044ZM580.127 493.401H581.276C581.276 493.927 581.089 494.355 580.715 494.685C580.345 495.012 579.844 495.175 579.212 495.175C578.583 495.175 578.084 495.012 577.713 494.685C577.343 494.355 577.158 493.927 577.158 493.401H578.302C578.302 493.634 578.37 493.841 578.507 494.022C578.644 494.199 578.879 494.288 579.212 494.288C579.539 494.288 579.772 494.199 579.912 494.022C580.055 493.844 580.127 493.638 580.127 493.401Z" fill="#092A39"/>
</g>
<rect x="0.5" y="0.5" width="859" height="549" rx="29.5" stroke="#EAEAEA"/>
<defs>
<linearGradient id="paint0_linear_1595_50" x1="500.652" y1="140.833" x2="551.742" y2="593.468" gradientUnits="userSpaceOnUse">
<stop stop-color="#04B34A"/>
<stop offset="0.0666667" stop-color="#04B34A" stop-opacity="0.991353"/>
<stop offset="0.133333" stop-color="#04B34A" stop-opacity="0.96449"/>
<stop offset="0.2" stop-color="#04B34A" stop-opacity="0.91834"/>
<stop offset="0.266667" stop-color="#04B34A" stop-opacity="0.852589"/>
<stop offset="0.333333" stop-color="#04B34A" stop-opacity="0.768225"/>
<stop offset="0.4" stop-color="#04B34A" stop-opacity="0.668116"/>
<stop offset="0.466667" stop-color="#04B34A" stop-opacity="0.557309"/>
<stop offset="0.533333" stop-color="#04B34A" stop-opacity="0.442691"/>
<stop offset="0.6" stop-color="#04B34A" stop-opacity="0.331884"/>
<stop offset="0.666667" stop-color="#04B34A" stop-opacity="0.231775"/>
<stop offset="0.733333" stop-color="#04B34A" stop-opacity="0.147411"/>
<stop offset="0.8" stop-color="#04B34A" stop-opacity="0.0816599"/>
<stop offset="0.866667" stop-color="#04B34A" stop-opacity="0.03551"/>
<stop offset="0.933333" stop-color="#04B34A" stop-opacity="0.01"/>
<stop offset="1" stop-color="#04B34A" stop-opacity="0"/>
</linearGradient>
<linearGradient id="paint1_linear_1595_50" x1="666" y1="330.5" x2="666" y2="494" gradientUnits="userSpaceOnUse">
<stop stop-color="#04B34A"/>
<stop offset="0.0666667" stop-color="#04B34A" stop-opacity="0.991353"/>
<stop offset="0.133333" stop-color="#04B34A" stop-opacity="0.96449"/>
<stop offset="0.2" stop-color="#04B34A" stop-opacity="0.91834"/>
<stop offset="0.266667" stop-color="#04B34A" stop-opacity="0.852589"/>
<stop offset="0.333333" stop-color="#04B34A" stop-opacity="0.768225"/>
<stop offset="0.4" stop-color="#04B34A" stop-opacity="0.668116"/>
<stop offset="0.466667" stop-color="#04B34A" stop-opacity="0.557309"/>
<stop offset="0.533333" stop-color="#04B34A" stop-opacity="0.442691"/>
<stop offset="0.6" stop-color="#04B34A" stop-opacity="0.331884"/>
<stop offset="0.666667" stop-color="#04B34A" stop-opacity="0.231775"/>
<stop offset="0.733333" stop-color="#04B34A" stop-opacity="0.147411"/>
<stop offset="0.8" stop-color="#04B34A" stop-opacity="0.0816599"/>
<stop offset="0.866667" stop-color="#04B34A" stop-opacity="0.03551"/>
<stop offset="0.933333" stop-color="#04B34A" stop-opacity="0.01"/>
<stop offset="1" stop-color="#04B34A" stop-opacity="0"/>
</linearGradient>
<linearGradient id="paint2_linear_1595_50" x1="69.5" y1="-15" x2="220" y2="477.721" gradientUnits="userSpaceOnUse">
<stop stop-color="#D9D9D9"/>
<stop offset="1" stop-color="#D9D9D9" stop-opacity="0"/>
</linearGradient>
<linearGradient id="paint3_linear_1595_50" x1="407.97" y1="217.994" x2="323.198" y2="455.879" gradientUnits="userSpaceOnUse">
<stop stop-color="#D9D9D9"/>
<stop offset="1" stop-color="#D9D9D9" stop-opacity="0"/>
</linearGradient>
<clipPath id="clip0_1595_50">
<rect width="860" height="550" rx="30" fill="white"/>
</clipPath>
</defs>
</svg>
