<svg width="860" height="550" viewBox="0 0 860 550" fill="none" xmlns="http://www.w3.org/2000/svg">
<g clip-path="url(#clip0_1595_2)">
<path d="M860 0H0V550H860V0Z" fill="white"/>
<path d="M836 117L428.5 287.5L24 237V488H836V117Z" fill="url(#paint0_linear_1595_2)"/>
<path d="M836 417L428.5 432.5L24 386.518V488H836V417Z" fill="url(#paint1_linear_1595_2)"/>
<path d="M835.5 117L440.108 283.737C433.485 286.53 426.246 287.538 419.112 286.659L24 238.006" stroke="#04B34A" stroke-width="2.83494" stroke-linecap="round" stroke-linejoin="round"/>
<path d="M835.5 117L440.108 283.737C433.485 286.53 426.246 287.538 419.112 286.659L24 238.006" stroke="#CACACA" stroke-width="2.83494" stroke-linecap="round" stroke-linejoin="round"/>
<path d="M835.5 417L433.082 431.88C431.03 431.956 428.976 431.878 426.936 431.647L24 386" stroke="#04B34A" stroke-width="2.83494" stroke-linecap="round" stroke-linejoin="round"/>
<path d="M28.8833 212.629V225H27.0108V214.502H26.9383L23.9785 216.435V214.647L27.0652 212.629H28.8833ZM35.6627 212.46C36.2144 212.464 36.7581 212.565 37.2936 212.762C37.8292 212.96 38.3124 213.282 38.7433 213.729C39.1782 214.176 39.5245 214.78 39.7823 215.541C40.044 216.298 40.1769 217.24 40.1809 218.368C40.1809 219.451 40.0722 220.415 39.8547 221.261C39.6373 222.103 39.3252 222.813 38.9185 223.393C38.5158 223.973 38.0265 224.414 37.4507 224.716C36.8748 225.018 36.2265 225.169 35.5057 225.169C34.7688 225.169 34.1144 225.024 33.5426 224.734C32.9708 224.444 32.5057 224.044 32.1473 223.532C31.7889 223.017 31.5654 222.425 31.4768 221.756H33.3191C33.4399 222.288 33.6855 222.719 34.056 223.049C34.4305 223.375 34.9137 223.538 35.5057 223.538C36.4117 223.538 37.1185 223.144 37.6259 222.354C38.1332 221.561 38.389 220.454 38.393 219.032H38.2963C38.0869 219.378 37.8252 219.676 37.5111 219.926C37.201 220.176 36.8527 220.369 36.4661 220.506C36.0795 220.643 35.6668 220.711 35.2278 220.711C34.5151 220.711 33.8667 220.536 33.2828 220.186C32.6989 219.836 32.2338 219.354 31.8875 218.742C31.5412 218.13 31.3681 217.431 31.3681 216.646C31.3681 215.865 31.5452 215.156 31.8996 214.52C32.258 213.884 32.7573 213.38 33.3976 213.01C34.0419 212.635 34.797 212.452 35.6627 212.46ZM35.6688 214.031C35.1976 214.031 34.7728 214.148 34.3943 214.381C34.0198 214.611 33.7238 214.923 33.5063 215.317C33.2889 215.708 33.1802 216.143 33.1802 216.622C33.1802 217.101 33.2849 217.536 33.4943 217.927C33.7077 218.313 33.9976 218.621 34.3641 218.851C34.7345 219.076 35.1574 219.189 35.6325 219.189C35.9869 219.189 36.3171 219.121 36.6232 218.984C36.9292 218.847 37.197 218.658 37.4265 218.416C37.6561 218.17 37.8353 217.893 37.9641 217.582C38.093 217.272 38.1574 216.946 38.1574 216.604C38.1574 216.149 38.0487 215.726 37.8312 215.335C37.6178 214.945 37.3238 214.631 36.9493 214.393C36.5748 214.152 36.148 214.031 35.6688 214.031ZM43.608 223.309L43.5174 223.967C43.457 224.45 43.3543 224.954 43.2093 225.477C43.0684 226.005 42.9214 226.494 42.7684 226.945C42.6194 227.396 42.4965 227.754 42.3999 228.02H41.1193C41.1717 227.771 41.2442 227.432 41.3368 227.005C41.4294 226.583 41.52 226.109 41.6086 225.586C41.6972 225.062 41.7637 224.529 41.8079 223.985L41.8684 223.309H43.608ZM45.454 225V223.647L49.6399 219.31C50.0869 218.839 50.4554 218.426 50.7453 218.072C51.0393 217.713 51.2587 217.373 51.4037 217.051C51.5487 216.729 51.6212 216.386 51.6212 216.024C51.6212 215.613 51.5245 215.259 51.3312 214.961C51.1379 214.659 50.8742 214.427 50.5399 214.266C50.2057 214.101 49.8292 214.019 49.4104 214.019C48.9674 214.019 48.5808 214.109 48.2506 214.29C47.9204 214.472 47.6667 214.727 47.4896 215.058C47.3124 215.388 47.2238 215.774 47.2238 216.217H45.4419C45.4419 215.464 45.615 214.806 45.9614 214.242C46.3077 213.678 46.7828 213.241 47.3869 212.931C47.9909 212.617 48.6775 212.46 49.4466 212.46C50.2238 212.46 50.9084 212.615 51.5003 212.925C52.0963 213.231 52.5614 213.65 52.8957 214.182C53.2299 214.709 53.397 215.305 53.397 215.97C53.397 216.429 53.3104 216.878 53.1373 217.317C52.9682 217.756 52.6722 218.245 52.2494 218.784C51.8265 219.32 51.2386 219.97 50.4856 220.736L48.0271 223.309V223.399H53.5963V225H45.454ZM66.4983 215.722V225H64.7346V215.722H66.4983ZM65.7312 220.029V221.587C65.4534 221.7 65.1594 221.801 64.8493 221.889C64.5393 221.974 64.2131 222.04 63.8708 222.089C63.5285 222.137 63.1721 222.161 62.8017 222.161C61.654 222.161 60.7419 221.881 60.0654 221.321C59.3889 220.758 59.0506 219.896 59.0506 218.736V215.704H60.8083V218.736C60.8083 219.175 60.8889 219.531 61.05 219.805C61.211 220.079 61.4406 220.28 61.7386 220.409C62.0365 220.538 62.3909 220.603 62.8017 220.603C63.3453 220.603 63.8466 220.552 64.3057 220.452C64.7688 220.347 65.244 220.206 65.7312 220.029Z" fill="#CACACA"/>
<path d="M28.4971 367.169C27.6676 367.169 26.9266 367.026 26.2743 366.74C25.6259 366.454 25.1125 366.058 24.734 365.55C24.3595 365.039 24.1581 364.447 24.1299 363.774H26.0266C26.0508 364.141 26.1736 364.459 26.3951 364.729C26.6206 364.995 26.9145 365.2 27.277 365.345C27.6394 365.49 28.0421 365.562 28.485 365.562C28.9723 365.562 29.4032 365.478 29.7777 365.309C30.1562 365.14 30.4522 364.904 30.6656 364.602C30.879 364.296 30.9857 363.944 30.9857 363.545C30.9857 363.13 30.879 362.766 30.6656 362.452C30.4562 362.133 30.1481 361.884 29.7414 361.703C29.3387 361.521 28.8515 361.431 28.2797 361.431H27.2347V359.909H28.2797C28.7387 359.909 29.1414 359.826 29.4877 359.661C29.8381 359.496 30.1119 359.266 30.3092 358.972C30.5065 358.674 30.6052 358.326 30.6052 357.927C30.6052 357.545 30.5186 357.213 30.3455 356.931C30.1763 356.645 29.9347 356.421 29.6206 356.26C29.3105 356.099 28.9441 356.019 28.5213 356.019C28.1186 356.019 27.7421 356.093 27.3917 356.242C27.0454 356.387 26.7635 356.597 26.5461 356.87C26.3286 357.14 26.2119 357.464 26.1957 357.843H24.3897C24.4098 357.174 24.6071 356.586 24.9816 356.079C25.3602 355.572 25.8595 355.175 26.4796 354.889C27.0998 354.603 27.7884 354.46 28.5454 354.46C29.3387 354.46 30.0233 354.615 30.5992 354.925C31.179 355.231 31.626 355.64 31.9401 356.152C32.2582 356.663 32.4153 357.223 32.4113 357.831C32.4153 358.523 32.222 359.111 31.8314 359.595C31.4448 360.078 30.9294 360.402 30.2851 360.567V360.664C31.1065 360.789 31.7428 361.115 32.1938 361.642C32.6488 362.17 32.8744 362.824 32.8703 363.605C32.8744 364.286 32.6851 364.896 32.3025 365.436C31.924 365.975 31.4065 366.4 30.7502 366.71C30.0938 367.016 29.3428 367.169 28.4971 367.169ZM36.4816 365.309L36.391 365.967C36.3306 366.45 36.2279 366.954 36.0829 367.477C35.942 368.005 35.795 368.494 35.642 368.945C35.493 369.396 35.3702 369.754 35.2735 370.02H33.993C34.0453 369.771 34.1178 369.432 34.2104 369.005C34.3031 368.583 34.3937 368.109 34.4823 367.586C34.5708 367.062 34.6373 366.529 34.6816 365.985L34.742 365.309H36.4816ZM38.4288 367L43.8288 356.321V356.23H37.5831V354.629H45.7618V356.284L40.3798 367H38.4288ZM58.475 357.722V367H56.7112V357.722H58.475ZM57.7079 362.029V363.587C57.43 363.7 57.1361 363.801 56.826 363.889C56.5159 363.974 56.1897 364.04 55.8474 364.089C55.5052 364.137 55.1488 364.161 54.7783 364.161C53.6306 364.161 52.7185 363.881 52.042 363.321C51.3655 362.758 51.0272 361.896 51.0272 360.736V357.704H52.785V360.736C52.785 361.175 52.8655 361.531 53.0266 361.805C53.1877 362.079 53.4172 362.28 53.7152 362.409C54.0132 362.538 54.3676 362.603 54.7783 362.603C55.3219 362.603 55.8233 362.552 56.2824 362.452C56.7454 362.347 57.2206 362.206 57.7079 362.029Z" fill="#04B34A"/>
<path d="M413.883 257.629V270H412.01V259.502H411.938L408.979 261.435V259.647L412.065 257.629H413.883ZM420.868 270.169C420.316 270.161 419.773 270.06 419.237 269.867C418.706 269.674 418.222 269.352 417.788 268.901C417.353 268.45 417.004 267.844 416.743 267.083C416.485 266.321 416.355 265.371 416.355 264.231C416.355 263.152 416.463 262.194 416.676 261.356C416.894 260.519 417.206 259.812 417.612 259.236C418.019 258.656 418.51 258.215 419.086 257.913C419.662 257.611 420.308 257.46 421.025 257.46C421.762 257.46 422.416 257.605 422.988 257.895C423.56 258.185 424.023 258.586 424.378 259.097C424.736 259.609 424.963 260.19 425.06 260.843H423.217C423.092 260.327 422.845 259.907 422.475 259.58C422.104 259.254 421.621 259.091 421.025 259.091C420.119 259.091 419.412 259.486 418.905 260.275C418.402 261.064 418.148 262.162 418.144 263.567H418.234C418.447 263.217 418.71 262.919 419.02 262.673C419.334 262.423 419.684 262.232 420.071 262.099C420.461 261.962 420.872 261.894 421.303 261.894C422.02 261.894 422.667 262.069 423.247 262.419C423.831 262.766 424.297 263.245 424.643 263.857C424.99 264.469 425.163 265.17 425.163 265.959C425.163 266.748 424.984 267.463 424.625 268.103C424.271 268.744 423.772 269.251 423.127 269.625C422.483 269.996 421.73 270.177 420.868 270.169ZM420.862 268.599C421.337 268.599 421.762 268.482 422.137 268.248C422.511 268.015 422.807 267.701 423.025 267.306C423.242 266.911 423.351 266.47 423.351 265.983C423.351 265.508 423.244 265.075 423.031 264.684C422.821 264.294 422.531 263.984 422.161 263.754C421.794 263.525 421.376 263.41 420.904 263.41C420.546 263.41 420.214 263.478 419.908 263.615C419.606 263.752 419.339 263.942 419.109 264.183C418.88 264.425 418.699 264.703 418.566 265.017C418.437 265.327 418.372 265.655 418.372 266.001C418.372 266.464 418.48 266.893 418.694 267.288C418.911 267.683 419.207 268.001 419.582 268.242C419.96 268.48 420.387 268.599 420.862 268.599ZM428.492 268.309L428.401 268.967C428.341 269.45 428.237 269.954 428.092 270.477C427.951 271.005 427.805 271.494 427.652 271.945C427.503 272.396 427.38 272.754 427.284 273.02H426.003C426.055 272.771 426.128 272.432 426.221 272.005C426.313 271.583 426.404 271.109 426.492 270.586C426.581 270.062 426.646 269.529 426.691 268.985L426.752 268.309H428.492ZM430.439 270L435.839 259.321V259.23H429.592V257.629H437.772V259.284L432.39 270H430.439ZM450.484 260.722V270H448.721V260.722H450.484ZM449.717 265.029V266.587C449.439 266.7 449.146 266.801 448.836 266.889C448.526 266.974 448.2 267.04 447.858 267.089C447.515 267.137 447.159 267.161 446.788 267.161C445.641 267.161 444.729 266.881 444.052 266.321C443.376 265.758 443.036 264.896 443.036 263.736V260.704H444.795V263.736C444.795 264.175 444.875 264.531 445.036 264.805C445.197 265.079 445.427 265.28 445.725 265.409C446.023 265.538 446.378 265.603 446.788 265.603C447.332 265.603 447.833 265.552 448.292 265.452C448.756 265.347 449.23 265.206 449.717 265.029Z" fill="#CACACA"/>
<path d="M411.19 415V413.647L415.376 409.31C415.823 408.839 416.191 408.426 416.481 408.072C416.775 407.713 416.995 407.373 417.14 407.051C417.285 406.729 417.357 406.386 417.357 406.024C417.357 405.613 417.26 405.259 417.067 404.961C416.874 404.659 416.61 404.427 416.276 404.266C415.942 404.101 415.565 404.019 415.146 404.019C414.703 404.019 414.317 404.109 413.987 404.29C413.656 404.472 413.403 404.727 413.226 405.058C413.048 405.388 412.96 405.774 412.96 406.217H411.178C411.178 405.464 411.351 404.806 411.697 404.242C412.044 403.678 412.519 403.241 413.123 402.931C413.727 402.617 414.413 402.46 415.183 402.46C415.96 402.46 416.644 402.615 417.236 402.925C417.832 403.231 418.297 403.65 418.632 404.182C418.966 404.709 419.133 405.305 419.133 405.97C419.133 406.429 419.046 406.878 418.873 407.317C418.704 407.756 418.408 408.245 417.985 408.784C417.563 409.32 416.975 409.97 416.222 410.736L413.763 413.309V413.399H419.332V415H411.19ZM423.315 413.309L423.224 413.967C423.164 414.45 423.061 414.954 422.916 415.477C422.775 416.005 422.629 416.494 422.475 416.945C422.326 417.396 422.204 417.754 422.107 418.02H420.826C420.879 417.771 420.951 417.432 421.044 417.005C421.137 416.583 421.227 416.109 421.316 415.586C421.404 415.062 421.471 414.529 421.515 413.985L421.575 413.309H423.315ZM424.901 412.584V411.074L430.247 402.629H431.437V404.852H430.682L426.858 410.905V411.001H434.185V412.584H424.901ZM430.767 415V412.125L430.779 411.436V402.629H432.548V415H430.767ZM446.903 405.722V415H445.139V405.722H446.903ZM446.136 410.029V411.587C445.858 411.7 445.564 411.801 445.254 411.889C444.944 411.974 444.618 412.04 444.276 412.089C443.933 412.137 443.577 412.161 443.206 412.161C442.059 412.161 441.147 411.881 440.47 411.321C439.794 410.758 439.455 409.896 439.455 408.736V405.704H441.213V408.736C441.213 409.175 441.294 409.531 441.455 409.805C441.616 410.079 441.845 410.28 442.143 410.409C442.441 410.538 442.796 410.603 443.206 410.603C443.75 410.603 444.251 410.552 444.71 410.452C445.174 410.347 445.649 410.206 446.136 410.029Z" fill="#04B34A"/>
<path d="M789.19 98V96.647L793.376 92.31C793.823 91.8388 794.191 91.4261 794.481 91.0717C794.775 90.7133 794.995 90.3731 795.14 90.0509C795.285 89.7288 795.357 89.3865 795.357 89.024C795.357 88.6133 795.26 88.2589 795.067 87.9609C794.874 87.6589 794.61 87.4274 794.276 87.2663C793.942 87.1012 793.565 87.0186 793.146 87.0186C792.703 87.0186 792.317 87.1093 791.987 87.2905C791.656 87.4717 791.403 87.7274 791.226 88.0576C791.048 88.3878 790.96 88.7744 790.96 89.2173H789.178C789.178 88.4643 789.351 87.8059 789.697 87.2421C790.044 86.6784 790.519 86.2415 791.123 85.9314C791.727 85.6173 792.413 85.4602 793.183 85.4602C793.96 85.4602 794.644 85.6153 795.236 85.9253C795.832 86.2314 796.297 86.6502 796.632 87.1817C796.966 87.7093 797.133 88.3052 797.133 88.9697C797.133 89.4287 797.046 89.8777 796.873 90.3167C796.704 90.7556 796.408 91.2449 795.985 91.7845C795.563 92.3201 794.975 92.9704 794.222 93.7355L791.763 96.3087V96.3993H797.332V98H789.19ZM798.416 95.5839V94.0738L803.761 85.6294H804.951V87.8522H804.196L800.373 93.9046V94.0013H807.7V95.5839H798.416ZM804.281 98V95.1248L804.293 94.4362V85.6294H806.063V98H804.281ZM811.033 96.3087L810.943 96.9671C810.882 97.4503 810.779 97.9537 810.635 98.4772C810.494 99.0047 810.347 99.494 810.194 99.945C810.045 100.396 809.922 100.754 809.825 101.02H808.545C808.597 100.771 808.669 100.432 808.762 100.005C808.855 99.5826 808.945 99.1094 809.034 98.5859C809.122 98.0624 809.189 97.5289 809.233 96.9852L809.294 96.3087H811.033ZM816.843 85.4602C817.395 85.4643 817.938 85.5649 818.474 85.7623C819.01 85.9596 819.493 86.2817 819.924 86.7287C820.359 87.1757 820.705 87.7797 820.963 88.5408C821.224 89.2979 821.357 90.2402 821.361 91.3677C821.361 92.4509 821.253 93.4154 821.035 94.261C820.818 95.1026 820.506 95.8134 820.099 96.3933C819.696 96.9731 819.207 97.4141 818.631 97.7161C818.055 98.0181 817.407 98.1691 816.686 98.1691C815.949 98.1691 815.295 98.0242 814.723 97.7342C814.151 97.4443 813.686 97.0436 813.328 96.5322C812.969 96.0168 812.746 95.4248 812.657 94.7563H814.499C814.62 95.2879 814.866 95.7188 815.236 96.049C815.611 96.3751 816.094 96.5382 816.686 96.5382C817.592 96.5382 818.299 96.1436 818.806 95.3543C819.314 94.561 819.569 93.4536 819.573 92.0321H819.477C819.267 92.3785 819.006 92.6764 818.691 92.9261C818.381 93.1758 818.033 93.3691 817.647 93.506C817.26 93.6429 816.847 93.7114 816.408 93.7114C815.695 93.7114 815.047 93.5362 814.463 93.1858C813.879 92.8355 813.414 92.3543 813.068 91.7422C812.722 91.1301 812.548 90.4314 812.548 89.6462C812.548 88.865 812.726 88.1562 813.08 87.52C813.438 86.8837 813.938 86.3804 814.578 86.0099C815.222 85.6354 815.977 85.4522 816.843 85.4602ZM816.849 87.0307C816.378 87.0307 815.953 87.1475 815.575 87.3811C815.2 87.6106 814.904 87.9227 814.687 88.3173C814.469 88.7079 814.361 89.1428 814.361 89.622C814.361 90.1012 814.465 90.5361 814.675 90.9268C814.888 91.3133 815.178 91.6214 815.544 91.8509C815.915 92.0764 816.338 92.1892 816.813 92.1892C817.167 92.1892 817.498 92.1207 817.804 91.9838C818.11 91.8469 818.377 91.6576 818.607 91.416C818.836 91.1704 819.016 90.8925 819.145 90.5825C819.273 90.2724 819.338 89.9462 819.338 89.6039C819.338 89.1489 819.229 88.7261 819.012 88.3354C818.798 87.9448 818.504 87.6307 818.13 87.3932C817.755 87.1515 817.328 87.0307 816.849 87.0307ZM834.156 88.722V98H832.392V88.722H834.156ZM833.389 93.0288V94.5872C833.111 94.7 832.817 94.8006 832.507 94.8892C832.197 94.9738 831.871 95.0402 831.529 95.0886C831.186 95.1369 830.83 95.161 830.459 95.161C829.312 95.161 828.4 94.8812 827.723 94.3214C827.047 93.7577 826.708 92.8959 826.708 91.7362V88.7039H828.466V91.7362C828.466 92.1751 828.547 92.5315 828.708 92.8053C828.869 93.0791 829.098 93.2805 829.396 93.4093C829.694 93.5382 830.049 93.6026 830.459 93.6026C831.003 93.6026 831.504 93.5523 831.963 93.4516C832.427 93.3469 832.902 93.206 833.389 93.0288Z" fill="#CACACA"/>
<path d="M804.19 399V397.647L808.376 393.31C808.823 392.839 809.191 392.426 809.481 392.072C809.775 391.713 809.995 391.373 810.14 391.051C810.285 390.729 810.357 390.386 810.357 390.024C810.357 389.613 810.26 389.259 810.067 388.961C809.874 388.659 809.61 388.427 809.276 388.266C808.942 388.101 808.565 388.019 808.146 388.019C807.703 388.019 807.317 388.109 806.987 388.29C806.656 388.472 806.403 388.727 806.226 389.058C806.048 389.388 805.96 389.774 805.96 390.217H804.178C804.178 389.464 804.351 388.806 804.697 388.242C805.044 387.678 805.519 387.241 806.123 386.931C806.727 386.617 807.413 386.46 808.183 386.46C808.96 386.46 809.644 386.615 810.236 386.925C810.832 387.231 811.297 387.65 811.632 388.182C811.966 388.709 812.133 389.305 812.133 389.97C812.133 390.429 812.046 390.878 811.873 391.317C811.704 391.756 811.408 392.245 810.985 392.784C810.563 393.32 809.975 393.97 809.222 394.736L806.763 397.309V397.399H812.332V399H804.19ZM816.315 397.309L816.224 397.967C816.164 398.45 816.061 398.954 815.916 399.477C815.775 400.005 815.629 400.494 815.475 400.945C815.326 401.396 815.204 401.754 815.107 402.02H813.826C813.879 401.771 813.951 401.432 814.044 401.005C814.137 400.583 814.227 400.109 814.316 399.586C814.404 399.062 814.471 398.529 814.515 397.985L814.575 397.309H816.315ZM821.359 386.629V399H819.487V388.502H819.414L816.455 390.435V388.647L819.541 386.629H821.359ZM835.319 389.722V399H833.555V389.722H835.319ZM834.551 394.029V395.587C834.274 395.7 833.98 395.801 833.669 395.889C833.359 395.974 833.033 396.04 832.691 396.089C832.349 396.137 831.992 396.161 831.622 396.161C830.474 396.161 829.562 395.881 828.886 395.321C828.209 394.758 827.871 393.896 827.871 392.736V389.704H829.629V392.736C829.629 393.175 829.709 393.531 829.87 393.805C830.031 394.079 830.261 394.28 830.559 394.409C830.857 394.538 831.211 394.603 831.622 394.603C832.165 394.603 832.667 394.552 833.126 394.452C833.589 394.347 834.064 394.206 834.551 394.029Z" fill="#04B34A"/>
<path d="M25.2783 508.364H27.0169V516.909H27.1249L33.0454 508.364H34.6704V520H32.9147V511.466H32.8067L26.8976 520H25.2783V508.364ZM41.2646 514.966V516.443H36.6112V514.966H41.2646ZM37.9918 511.273V520H36.293V511.273H37.9918ZM43.9237 520.176C43.113 520.176 42.4047 519.987 41.7987 519.608C41.1926 519.229 40.7229 518.703 40.3896 518.028C40.0562 517.35 39.8896 516.564 39.8896 515.67C39.8896 514.769 40.0562 513.981 40.3896 513.307C40.7229 512.629 41.1926 512.102 41.7987 511.727C42.4047 511.348 43.113 511.159 43.9237 511.159C44.738 511.159 45.4464 511.348 46.0487 511.727C46.6547 512.102 47.1244 512.629 47.4577 513.307C47.7949 513.981 47.9634 514.769 47.9634 515.67C47.9634 516.564 47.7949 517.35 47.4577 518.028C47.1244 518.703 46.6547 519.229 46.0487 519.608C45.4464 519.987 44.738 520.176 43.9237 520.176ZM43.9237 518.722C44.4729 518.722 44.9218 518.583 45.2702 518.307C45.6225 518.027 45.882 517.655 46.0487 517.193C46.2153 516.731 46.2987 516.223 46.2987 515.67C46.2987 515.114 46.2153 514.604 46.0487 514.142C45.882 513.676 45.6225 513.303 45.2702 513.023C44.9218 512.742 44.4729 512.602 43.9237 512.602C43.3782 512.602 42.9293 512.742 42.5771 513.023C42.2248 513.303 41.9653 513.676 41.7987 514.142C41.632 514.604 41.5487 515.114 41.5487 515.67C41.5487 516.223 41.632 516.731 41.7987 517.193C41.9653 517.655 42.2248 518.027 42.5771 518.307C42.9293 518.583 43.3782 518.722 43.9237 518.722ZM49.0562 520L49.0505 518.528H49.363C49.6055 518.528 49.8081 518.477 49.971 518.375C50.1377 518.269 50.274 518.091 50.3801 517.841C50.4861 517.591 50.5676 517.246 50.6244 516.807C50.6812 516.364 50.7229 515.807 50.7494 515.136L50.9028 511.273H56.9937V520H55.3289V512.739H52.4767L52.3403 515.705C52.3062 516.424 52.2323 517.053 52.1187 517.591C52.0089 518.129 51.8479 518.578 51.6358 518.938C51.4236 519.294 51.1509 519.561 50.8176 519.739C50.4842 519.913 50.0789 520 49.6017 520H49.0562ZM60.497 508.364V509.455C60.497 509.777 60.4364 510.116 60.3152 510.472C60.1978 510.824 60.0311 511.163 59.8152 511.489C59.5993 511.814 59.3455 512.095 59.0538 512.33L58.2129 511.727C58.4364 511.402 58.6296 511.055 58.7925 510.688C58.9591 510.32 59.0425 509.915 59.0425 509.472V508.364H60.497ZM65.9908 520V518.727L69.9283 514.648C70.3488 514.205 70.6954 513.816 70.9681 513.483C71.2446 513.146 71.4511 512.826 71.5874 512.523C71.7238 512.22 71.792 511.898 71.792 511.557C71.792 511.17 71.7011 510.837 71.5192 510.557C71.3374 510.273 71.0893 510.055 70.7749 509.903C70.4605 509.748 70.1064 509.67 69.7124 509.67C69.2957 509.67 68.9321 509.756 68.6215 509.926C68.3109 510.097 68.0723 510.337 67.9056 510.648C67.7389 510.958 67.6556 511.322 67.6556 511.739H65.9795C65.9795 511.03 66.1423 510.411 66.4681 509.881C66.7939 509.35 67.2408 508.939 67.809 508.648C68.3772 508.352 69.023 508.205 69.7465 508.205C70.4776 508.205 71.1215 508.35 71.6783 508.642C72.2389 508.93 72.6764 509.324 72.9908 509.824C73.3052 510.32 73.4624 510.881 73.4624 511.506C73.4624 511.938 73.381 512.36 73.2181 512.773C73.059 513.186 72.7806 513.646 72.3829 514.153C71.9851 514.657 71.4321 515.269 70.7238 515.989L68.4113 518.409V518.494H73.6499V520H65.9908ZM79.6319 520.193C78.7342 520.189 77.9671 519.953 77.3308 519.483C76.6944 519.013 76.2077 518.33 75.8705 517.432C75.5334 516.534 75.3649 515.453 75.3649 514.188C75.3649 512.926 75.5334 511.848 75.8705 510.955C76.2114 510.061 76.7001 509.379 77.3364 508.909C77.9766 508.439 78.7418 508.205 79.6319 508.205C80.5221 508.205 81.2853 508.441 81.9217 508.915C82.558 509.384 83.0448 510.066 83.3819 510.96C83.7228 511.85 83.8933 512.926 83.8933 514.188C83.8933 515.456 83.7247 516.54 83.3876 517.438C83.0505 518.331 82.5637 519.015 81.9274 519.489C81.291 519.958 80.5258 520.193 79.6319 520.193ZM79.6319 518.676C80.4198 518.676 81.0353 518.292 81.4785 517.523C81.9255 516.754 82.1489 515.642 82.1489 514.188C82.1489 513.222 82.0467 512.405 81.8421 511.739C81.6414 511.068 81.3516 510.561 80.9728 510.216C80.5978 509.867 80.1508 509.693 79.6319 509.693C78.8478 509.693 78.2323 510.08 77.7853 510.852C77.3383 511.625 77.113 512.737 77.1092 514.188C77.1092 515.157 77.2096 515.977 77.4103 516.648C77.6149 517.314 77.9046 517.82 78.2796 518.165C78.6546 518.506 79.1054 518.676 79.6319 518.676ZM85.6863 520V518.727L89.6238 514.648C90.0443 514.205 90.3909 513.816 90.6636 513.483C90.9401 513.146 91.1466 512.826 91.2829 512.523C91.4193 512.22 91.4875 511.898 91.4875 511.557C91.4875 511.17 91.3966 510.837 91.2147 510.557C91.0329 510.273 90.7848 510.055 90.4704 509.903C90.156 509.748 89.8019 509.67 89.4079 509.67C88.9913 509.67 88.6276 509.756 88.317 509.926C88.0064 510.097 87.7678 510.337 87.6011 510.648C87.4344 510.958 87.3511 511.322 87.3511 511.739H85.675C85.675 511.03 85.8379 510.411 86.1636 509.881C86.4894 509.35 86.9363 508.939 87.5045 508.648C88.0727 508.352 88.7185 508.205 89.442 508.205C90.1731 508.205 90.817 508.35 91.3738 508.642C91.9344 508.93 92.3719 509.324 92.6863 509.824C93.0007 510.32 93.1579 510.881 93.1579 511.506C93.1579 511.938 93.0765 512.36 92.9136 512.773C92.7545 513.186 92.4761 513.646 92.0784 514.153C91.6807 514.657 91.1276 515.269 90.4193 515.989L88.1068 518.409V518.494H93.3454V520H85.6863ZM94.782 517.727V516.307L99.8104 508.364H100.93V510.455H100.22L96.6229 516.148V516.239H103.515V517.727H94.782ZM100.299 520V517.295L100.31 516.648V508.364H101.975V520H100.299Z" fill="#CFCFCF"/>
<path d="M395.534 520H393.671L397.858 508.364H399.887L404.074 520H402.211L398.921 510.477H398.83L395.534 520ZM395.847 515.443H401.892V516.92H395.847V515.443ZM405.396 520V511.273H409.015C410 511.273 410.78 511.483 411.356 511.903C411.932 512.32 412.22 512.886 412.22 513.602C412.22 514.114 412.057 514.519 411.731 514.818C411.405 515.117 410.973 515.318 410.435 515.42C410.826 515.466 411.184 515.583 411.509 515.773C411.835 515.958 412.096 516.208 412.293 516.523C412.494 516.837 412.595 517.212 412.595 517.648C412.595 518.11 412.475 518.519 412.237 518.875C411.998 519.227 411.651 519.504 411.197 519.705C410.746 519.902 410.202 520 409.566 520H405.396ZM406.992 518.58H409.566C409.987 518.58 410.316 518.479 410.555 518.278C410.793 518.078 410.913 517.805 410.913 517.46C410.913 517.055 410.793 516.737 410.555 516.506C410.316 516.271 409.987 516.153 409.566 516.153H406.992V518.58ZM406.992 514.909H409.032C409.35 514.909 409.623 514.864 409.85 514.773C410.081 514.682 410.257 514.553 410.379 514.386C410.504 514.216 410.566 514.015 410.566 513.784C410.566 513.447 410.428 513.184 410.151 512.994C409.875 512.805 409.496 512.71 409.015 512.71H406.992V514.909ZM419.815 511.273V512.739H415.912V520H414.236V511.273H419.815ZM422.848 508.364V509.455C422.848 509.777 422.788 510.116 422.666 510.472C422.549 510.824 422.382 511.163 422.166 511.489C421.951 511.814 421.697 512.095 421.405 512.33L420.564 511.727C420.788 511.402 420.981 511.055 421.144 510.688C421.31 510.32 421.394 509.915 421.394 509.472V508.364H422.848ZM428.342 520V518.727L432.28 514.648C432.7 514.205 433.047 513.816 433.319 513.483C433.596 513.146 433.802 512.826 433.939 512.523C434.075 512.22 434.143 511.898 434.143 511.557C434.143 511.17 434.052 510.837 433.87 510.557C433.689 510.273 433.441 510.055 433.126 509.903C432.812 509.748 432.458 509.67 432.064 509.67C431.647 509.67 431.283 509.756 430.973 509.926C430.662 510.097 430.424 510.337 430.257 510.648C430.09 510.958 430.007 511.322 430.007 511.739H428.331C428.331 511.03 428.494 510.411 428.819 509.881C429.145 509.35 429.592 508.939 430.16 508.648C430.728 508.352 431.374 508.205 432.098 508.205C432.829 508.205 433.473 508.35 434.03 508.642C434.59 508.93 435.028 509.324 435.342 509.824C435.656 510.32 435.814 510.881 435.814 511.506C435.814 511.938 435.732 512.36 435.569 512.773C435.41 513.186 435.132 513.646 434.734 514.153C434.336 514.657 433.783 515.269 433.075 515.989L430.763 518.409V518.494H436.001V520H428.342ZM441.983 520.193C441.085 520.189 440.318 519.953 439.682 519.483C439.046 519.013 438.559 518.33 438.222 517.432C437.885 516.534 437.716 515.453 437.716 514.188C437.716 512.926 437.885 511.848 438.222 510.955C438.563 510.061 439.051 509.379 439.688 508.909C440.328 508.439 441.093 508.205 441.983 508.205C442.873 508.205 443.637 508.441 444.273 508.915C444.909 509.384 445.396 510.066 445.733 510.96C446.074 511.85 446.245 512.926 446.245 514.188C446.245 515.456 446.076 516.54 445.739 517.438C445.402 518.331 444.915 519.015 444.279 519.489C443.642 519.958 442.877 520.193 441.983 520.193ZM441.983 518.676C442.771 518.676 443.387 518.292 443.83 517.523C444.277 516.754 444.5 515.642 444.5 514.188C444.5 513.222 444.398 512.405 444.193 511.739C443.993 511.068 443.703 510.561 443.324 510.216C442.949 509.867 442.502 509.693 441.983 509.693C441.199 509.693 440.584 510.08 440.137 510.852C439.69 511.625 439.464 512.737 439.46 514.188C439.46 515.157 439.561 515.977 439.762 516.648C439.966 517.314 440.256 517.82 440.631 518.165C441.006 518.506 441.457 518.676 441.983 518.676ZM448.038 520V518.727L451.975 514.648C452.396 514.205 452.742 513.816 453.015 513.483C453.291 513.146 453.498 512.826 453.634 512.523C453.771 512.22 453.839 511.898 453.839 511.557C453.839 511.17 453.748 510.837 453.566 510.557C453.384 510.273 453.136 510.055 452.822 509.903C452.507 509.748 452.153 509.67 451.759 509.67C451.343 509.67 450.979 509.756 450.668 509.926C450.358 510.097 450.119 510.337 449.952 510.648C449.786 510.958 449.702 511.322 449.702 511.739H448.026C448.026 511.03 448.189 510.411 448.515 509.881C448.841 509.35 449.288 508.939 449.856 508.648C450.424 508.352 451.07 508.205 451.793 508.205C452.524 508.205 453.168 508.35 453.725 508.642C454.286 508.93 454.723 509.324 455.038 509.824C455.352 510.32 455.509 510.881 455.509 511.506C455.509 511.938 455.428 512.36 455.265 512.773C455.106 513.186 454.827 513.646 454.43 514.153C454.032 514.657 453.479 515.269 452.771 515.989L450.458 518.409V518.494H455.697V520H448.038ZM457.133 517.727V516.307L462.162 508.364H463.281V510.455H462.571L458.974 516.148V516.239H465.866V517.727H457.133ZM462.65 520V517.295L462.662 516.648V508.364H464.326V520H462.65Z" fill="#CFCFCF"/>
<path d="M771.599 512.148H769.826C769.758 511.769 769.631 511.436 769.445 511.148C769.26 510.86 769.032 510.616 768.763 510.415C768.494 510.214 768.193 510.062 767.86 509.96C767.53 509.858 767.18 509.807 766.809 509.807C766.138 509.807 765.538 509.975 765.008 510.312C764.481 510.65 764.065 511.144 763.758 511.795C763.455 512.447 763.303 513.242 763.303 514.182C763.303 515.129 763.455 515.928 763.758 516.58C764.065 517.231 764.483 517.723 765.013 518.057C765.544 518.39 766.14 518.557 766.803 518.557C767.171 518.557 767.519 518.508 767.849 518.409C768.182 518.307 768.483 518.157 768.752 517.96C769.021 517.763 769.248 517.523 769.434 517.239C769.623 516.951 769.754 516.621 769.826 516.25L771.599 516.256C771.504 516.828 771.32 517.354 771.047 517.835C770.779 518.312 770.432 518.725 770.008 519.074C769.587 519.419 769.106 519.686 768.565 519.875C768.023 520.064 767.432 520.159 766.792 520.159C765.784 520.159 764.886 519.92 764.099 519.443C763.311 518.962 762.69 518.275 762.235 517.381C761.784 516.487 761.559 515.42 761.559 514.182C761.559 512.939 761.786 511.873 762.241 510.983C762.695 510.089 763.316 509.403 764.104 508.926C764.892 508.445 765.788 508.205 766.792 508.205C767.409 508.205 767.985 508.294 768.519 508.472C769.057 508.646 769.54 508.903 769.968 509.244C770.396 509.581 770.75 509.994 771.03 510.483C771.311 510.968 771.5 511.523 771.599 512.148ZM777.102 520.176C776.242 520.176 775.502 519.992 774.88 519.625C774.263 519.254 773.786 518.733 773.449 518.062C773.115 517.388 772.949 516.598 772.949 515.693C772.949 514.799 773.115 514.011 773.449 513.33C773.786 512.648 774.255 512.116 774.858 511.733C775.464 511.35 776.172 511.159 776.983 511.159C777.475 511.159 777.952 511.241 778.414 511.403C778.877 511.566 779.291 511.822 779.659 512.17C780.026 512.519 780.316 512.972 780.528 513.528C780.74 514.081 780.846 514.754 780.846 515.545V516.148H773.909V514.875H779.181C779.181 514.428 779.091 514.032 778.909 513.688C778.727 513.339 778.471 513.064 778.142 512.864C777.816 512.663 777.433 512.562 776.994 512.562C776.517 512.562 776.1 512.68 775.744 512.915C775.392 513.146 775.119 513.449 774.926 513.824C774.736 514.195 774.642 514.598 774.642 515.034V516.028C774.642 516.612 774.744 517.108 774.949 517.517C775.157 517.926 775.447 518.239 775.818 518.455C776.189 518.667 776.623 518.773 777.119 518.773C777.441 518.773 777.734 518.727 778 518.636C778.265 518.542 778.494 518.402 778.687 518.216C778.88 518.03 779.028 517.801 779.13 517.528L780.738 517.818C780.609 518.292 780.378 518.706 780.045 519.062C779.716 519.415 779.301 519.689 778.801 519.886C778.305 520.08 777.738 520.176 777.102 520.176ZM788.423 514.903V516.375H783.696V514.903H788.423ZM784.173 511.273V520H782.509V511.273H784.173ZM789.611 511.273V520H787.952V511.273H789.611ZM793.121 508.364V509.455C793.121 509.777 793.061 510.116 792.939 510.472C792.822 510.824 792.655 511.163 792.439 511.489C792.224 511.814 791.97 512.095 791.678 512.33L790.837 511.727C791.061 511.402 791.254 511.055 791.417 510.688C791.583 510.32 791.667 509.915 791.667 509.472V508.364H793.121ZM798.615 520V518.727L802.553 514.648C802.973 514.205 803.32 513.816 803.592 513.483C803.869 513.146 804.075 512.826 804.212 512.523C804.348 512.22 804.416 511.898 804.416 511.557C804.416 511.17 804.325 510.837 804.144 510.557C803.962 510.273 803.714 510.055 803.399 509.903C803.085 509.748 802.731 509.67 802.337 509.67C801.92 509.67 801.556 509.756 801.246 509.926C800.935 510.097 800.697 510.337 800.53 510.648C800.363 510.958 800.28 511.322 800.28 511.739H798.604C798.604 511.03 798.767 510.411 799.092 509.881C799.418 509.35 799.865 508.939 800.433 508.648C801.001 508.352 801.647 508.205 802.371 508.205C803.102 508.205 803.746 508.35 804.303 508.642C804.863 508.93 805.301 509.324 805.615 509.824C805.93 510.32 806.087 510.881 806.087 511.506C806.087 511.938 806.005 512.36 805.842 512.773C805.683 513.186 805.405 513.646 805.007 514.153C804.609 514.657 804.056 515.269 803.348 515.989L801.036 518.409V518.494H806.274V520H798.615ZM812.256 520.193C811.358 520.189 810.591 519.953 809.955 519.483C809.319 519.013 808.832 518.33 808.495 517.432C808.158 516.534 807.989 515.453 807.989 514.188C807.989 512.926 808.158 511.848 808.495 510.955C808.836 510.061 809.324 509.379 809.961 508.909C810.601 508.439 811.366 508.205 812.256 508.205C813.146 508.205 813.91 508.441 814.546 508.915C815.182 509.384 815.669 510.066 816.006 510.96C816.347 511.85 816.518 512.926 816.518 514.188C816.518 515.456 816.349 516.54 816.012 517.438C815.675 518.331 815.188 519.015 814.552 519.489C813.915 519.958 813.15 520.193 812.256 520.193ZM812.256 518.676C813.044 518.676 813.66 518.292 814.103 517.523C814.55 516.754 814.773 515.642 814.773 514.188C814.773 513.222 814.671 512.405 814.466 511.739C814.266 511.068 813.976 510.561 813.597 510.216C813.222 509.867 812.775 509.693 812.256 509.693C811.472 509.693 810.857 510.08 810.41 510.852C809.963 511.625 809.737 512.737 809.733 514.188C809.733 515.157 809.834 515.977 810.035 516.648C810.239 517.314 810.529 517.82 810.904 518.165C811.279 518.506 811.73 518.676 812.256 518.676ZM818.311 520V518.727L822.248 514.648C822.669 514.205 823.015 513.816 823.288 513.483C823.564 513.146 823.771 512.826 823.907 512.523C824.044 512.22 824.112 511.898 824.112 511.557C824.112 511.17 824.021 510.837 823.839 510.557C823.657 510.273 823.409 510.055 823.095 509.903C822.78 509.748 822.426 509.67 822.032 509.67C821.616 509.67 821.252 509.756 820.941 509.926C820.631 510.097 820.392 510.337 820.225 510.648C820.059 510.958 819.975 511.322 819.975 511.739H818.299C818.299 511.03 818.462 510.411 818.788 509.881C819.114 509.35 819.561 508.939 820.129 508.648C820.697 508.352 821.343 508.205 822.066 508.205C822.797 508.205 823.441 508.35 823.998 508.642C824.559 508.93 824.996 509.324 825.311 509.824C825.625 510.32 825.782 510.881 825.782 511.506C825.782 511.938 825.701 512.36 825.538 512.773C825.379 513.186 825.1 513.646 824.703 514.153C824.305 514.657 823.752 515.269 823.044 515.989L820.731 518.409V518.494H825.97V520H818.311ZM827.406 517.727V516.307L832.435 508.364H833.554V510.455H832.844L829.247 516.148V516.239H836.139V517.727H827.406ZM832.923 520V517.295L832.935 516.648V508.364H834.599V520H832.923Z" fill="#CFCFCF"/>
<path d="M31.3304 108H27.9375C24.6583 108 22 110.658 22 113.938V117.33C22 120.61 24.6583 123.268 27.9375 123.268H31.3304C34.6096 123.268 37.2679 120.61 37.2679 117.33V113.938C37.2679 110.658 34.6096 108 31.3304 108Z" fill="#04B34A"/>
<path opacity="0.5" d="M50.6273 115.251V116.46H44.0537V115.251H50.6273ZM62.047 114.182H60.5904C60.5344 113.87 60.4301 113.597 60.2776 113.36C60.1251 113.123 59.9383 112.923 59.7173 112.758C59.4963 112.593 59.2489 112.468 58.975 112.384C58.7042 112.3 58.4163 112.258 58.1113 112.258C57.5603 112.258 57.067 112.397 56.6312 112.674C56.1986 112.951 55.8562 113.357 55.6041 113.892C55.3551 114.428 55.2306 115.081 55.2306 115.853C55.2306 116.631 55.3551 117.288 55.6041 117.823C55.8562 118.359 56.2002 118.763 56.6359 119.037C57.0717 119.311 57.5619 119.448 58.1066 119.448C58.4085 119.448 58.6949 119.408 58.9656 119.327C59.2395 119.243 59.487 119.12 59.708 118.958C59.929 118.796 60.1157 118.598 60.2682 118.365C60.4239 118.128 60.5312 117.858 60.5904 117.553L62.047 117.557C61.9692 118.027 61.8183 118.46 61.5942 118.855C61.3732 119.247 61.0884 119.587 60.7398 119.873C60.3943 120.156 59.999 120.376 59.5539 120.531C59.1088 120.687 58.6233 120.765 58.0972 120.765C57.2693 120.765 56.5316 120.569 55.8842 120.176C55.2368 119.781 54.7264 119.216 54.3529 118.482C53.9825 117.747 53.7973 116.871 53.7973 115.853C53.7973 114.832 53.984 113.956 54.3575 113.225C54.731 112.49 55.2415 111.927 55.8889 111.534C56.5363 111.139 57.2724 110.942 58.0972 110.942C58.6046 110.942 59.0777 111.015 59.5166 111.161C59.9585 111.304 60.3554 111.516 60.7071 111.796C61.0588 112.073 61.3498 112.412 61.5802 112.814C61.8105 113.212 61.9661 113.668 62.047 114.182ZM67.4569 118.678L70.6176 113.463H72.121V120.634H70.753V115.414L67.6063 120.634H66.0889V113.463H67.4569V118.678ZM78.3322 116.446V117.655H74.4477V116.446H78.3322ZM74.8399 113.463V120.634H73.472V113.463H74.8399ZM79.3079 113.463V120.634H77.9447V113.463H79.3079ZM79.7602 114.667V113.463H85.8109V114.667H83.4719V120.634H82.1086V114.667H79.7602ZM89.5185 120.779C88.8119 120.779 88.2034 120.628 87.693 120.326C87.1856 120.021 86.7934 119.593 86.5164 119.042C86.2425 118.488 86.1056 117.839 86.1056 117.095C86.1056 116.36 86.2425 115.713 86.5164 115.153C86.7934 114.593 87.1794 114.155 87.6743 113.841C88.1723 113.526 88.7543 113.369 89.4204 113.369C89.825 113.369 90.2172 113.436 90.5969 113.57C90.9767 113.704 91.3175 113.914 91.6194 114.2C91.9213 114.487 92.1594 114.859 92.3337 115.316C92.508 115.771 92.5952 116.323 92.5952 116.974V117.469H86.8946V116.423H91.2272C91.2272 116.055 91.1525 115.73 91.0031 115.447C90.8537 115.161 90.6436 114.935 90.3728 114.77C90.1052 114.605 89.7908 114.522 89.4298 114.522C89.0376 114.522 88.6952 114.619 88.4026 114.812C88.1132 115.002 87.889 115.251 87.7303 115.559C87.5747 115.864 87.4969 116.195 87.4969 116.553V117.37C87.4969 117.85 87.5809 118.258 87.749 118.594C87.9202 118.93 88.1583 119.187 88.4633 119.364C88.7683 119.538 89.1247 119.625 89.5325 119.625C89.797 119.625 90.0382 119.588 90.2561 119.513C90.474 119.436 90.6623 119.32 90.8211 119.168C90.9798 119.015 91.1012 118.827 91.1852 118.603L92.5065 118.841C92.4007 119.23 92.2108 119.571 91.9369 119.864C91.6661 120.153 91.3253 120.379 90.9144 120.541C90.5067 120.699 90.0414 120.779 89.5185 120.779ZM98.2029 113.463V114.667H94.9955V120.634H93.6182V113.463H98.2029ZM99.1524 123.323V113.463H100.516V114.625H100.632C100.713 114.476 100.83 114.303 100.982 114.107C101.135 113.911 101.347 113.74 101.617 113.593C101.888 113.444 102.246 113.369 102.691 113.369C103.27 113.369 103.787 113.516 104.241 113.808C104.696 114.101 105.052 114.522 105.31 115.073C105.572 115.624 105.703 116.287 105.703 117.062C105.703 117.837 105.573 118.502 105.315 119.056C105.057 119.607 104.702 120.032 104.251 120.33C103.799 120.626 103.284 120.774 102.705 120.774C102.269 120.774 101.913 120.701 101.636 120.555C101.362 120.408 101.147 120.237 100.992 120.041C100.836 119.845 100.716 119.671 100.632 119.518H100.548V123.323H99.1524ZM100.52 117.048C100.52 117.553 100.593 117.995 100.74 118.374C100.886 118.754 101.098 119.051 101.375 119.266C101.652 119.478 101.991 119.583 102.392 119.583C102.809 119.583 103.158 119.473 103.438 119.252C103.718 119.028 103.93 118.724 104.073 118.342C104.219 117.959 104.293 117.528 104.293 117.048C104.293 116.575 104.221 116.15 104.078 115.774C103.938 115.397 103.726 115.1 103.443 114.882C103.163 114.664 102.813 114.555 102.392 114.555C101.988 114.555 101.645 114.659 101.365 114.868C101.088 115.077 100.878 115.368 100.735 115.741C100.592 116.115 100.52 116.55 100.52 117.048ZM108.828 120.793C108.373 120.793 107.962 120.709 107.595 120.541C107.228 120.369 106.937 120.122 106.722 119.798C106.51 119.475 106.405 119.078 106.405 118.608C106.405 118.203 106.482 117.87 106.638 117.609C106.794 117.347 107.004 117.14 107.268 116.988C107.533 116.835 107.829 116.72 108.155 116.642C108.482 116.564 108.815 116.505 109.155 116.465C109.584 116.415 109.933 116.374 110.2 116.343C110.468 116.309 110.663 116.255 110.784 116.18C110.905 116.105 110.966 115.984 110.966 115.816V115.783C110.966 115.375 110.851 115.059 110.621 114.835C110.393 114.611 110.054 114.499 109.603 114.499C109.133 114.499 108.762 114.603 108.492 114.812C108.224 115.017 108.039 115.246 107.936 115.498L106.624 115.199C106.78 114.764 107.007 114.412 107.306 114.144C107.608 113.874 107.955 113.677 108.347 113.556C108.739 113.432 109.151 113.369 109.584 113.369C109.87 113.369 110.174 113.404 110.494 113.472C110.818 113.537 111.12 113.659 111.4 113.836C111.683 114.014 111.915 114.267 112.096 114.597C112.276 114.924 112.367 115.349 112.367 115.872V120.634H111.003V119.653H110.947C110.857 119.834 110.722 120.011 110.541 120.186C110.361 120.36 110.129 120.505 109.845 120.62C109.562 120.735 109.223 120.793 108.828 120.793ZM109.131 119.672C109.517 119.672 109.847 119.596 110.121 119.443C110.398 119.291 110.608 119.092 110.751 118.846C110.898 118.597 110.971 118.331 110.971 118.047V117.123C110.921 117.173 110.824 117.219 110.681 117.263C110.541 117.304 110.381 117.339 110.2 117.37C110.02 117.398 109.844 117.425 109.673 117.45C109.502 117.472 109.358 117.49 109.243 117.506C108.972 117.54 108.725 117.598 108.501 117.679C108.28 117.76 108.102 117.876 107.969 118.029C107.838 118.178 107.773 118.377 107.773 118.626C107.773 118.972 107.9 119.233 108.155 119.411C108.411 119.585 108.736 119.672 109.131 119.672ZM119.55 113.463V119.49H120.601V122.945H119.223V120.634H113.7V113.463H115.068V119.429H118.187V113.463H119.55ZM122.99 118.678L126.151 113.463H127.654V120.634H126.287V115.414L123.14 120.634H121.622V113.463H122.99V118.678ZM132.096 120.779C131.39 120.779 130.781 120.628 130.271 120.326C129.763 120.021 129.371 119.593 129.094 119.042C128.82 118.488 128.683 117.839 128.683 117.095C128.683 116.36 128.82 115.713 129.094 115.153C129.371 114.593 129.757 114.155 130.252 113.841C130.75 113.526 131.332 113.369 131.998 113.369C132.403 113.369 132.795 113.436 133.175 113.57C133.554 113.704 133.895 113.914 134.197 114.2C134.499 114.487 134.737 114.859 134.911 115.316C135.086 115.771 135.173 116.323 135.173 116.974V117.469H129.472V116.423H133.805C133.805 116.055 133.73 115.73 133.581 115.447C133.431 115.161 133.221 114.935 132.951 114.77C132.683 114.605 132.369 114.522 132.007 114.522C131.615 114.522 131.273 114.619 130.98 114.812C130.691 115.002 130.467 115.251 130.308 115.559C130.152 115.864 130.075 116.195 130.075 116.553V117.37C130.075 117.85 130.159 118.258 130.327 118.594C130.498 118.93 130.736 119.187 131.041 119.364C131.346 119.538 131.702 119.625 132.11 119.625C132.375 119.625 132.616 119.588 132.834 119.513C133.052 119.436 133.24 119.32 133.399 119.168C133.557 119.015 133.679 118.827 133.763 118.603L135.084 118.841C134.978 119.23 134.788 119.571 134.515 119.864C134.244 120.153 133.903 120.379 133.492 120.541C133.084 120.699 132.619 120.779 132.096 120.779ZM137.564 118.678L140.725 113.463H142.228V120.634H140.86V115.414L137.713 120.634H136.196V113.463H137.564V118.678ZM140.127 111.035H141.276C141.276 111.561 141.089 111.989 140.715 112.319C140.345 112.646 139.844 112.809 139.212 112.809C138.583 112.809 138.084 112.646 137.713 112.319C137.343 111.989 137.158 111.561 137.158 111.035H138.301C138.301 111.268 138.37 111.475 138.507 111.656C138.644 111.833 138.879 111.922 139.212 111.922C139.539 111.922 139.772 111.833 139.912 111.656C140.055 111.478 140.127 111.271 140.127 111.035Z" fill="#092A39"/>
<path d="M179.384 108H175.991C172.712 108 170.054 110.658 170.054 113.938V117.33C170.054 120.61 172.712 123.268 175.991 123.268H179.384C182.663 123.268 185.322 120.61 185.322 117.33V113.938C185.322 110.658 182.663 108 179.384 108Z" fill="#CECECE"/>
<path opacity="0.5" d="M198.681 115.251V116.46H192.107V115.251H198.681ZM202.159 120.634V111.072H208.121V112.314H203.602V114.929H205.74C206.45 114.929 207.052 115.044 207.547 115.274C208.045 115.504 208.424 115.83 208.686 116.25C208.95 116.67 209.083 117.165 209.083 117.735C209.083 118.304 208.95 118.807 208.686 119.243C208.424 119.678 208.045 120.019 207.547 120.265C207.052 120.511 206.45 120.634 205.74 120.634H202.159ZM203.602 119.42H205.74C206.151 119.42 206.498 119.339 206.781 119.177C207.067 119.015 207.284 118.805 207.43 118.547C207.579 118.289 207.654 118.012 207.654 117.716C207.654 117.286 207.489 116.918 207.159 116.609C206.829 116.298 206.356 116.143 205.74 116.143H203.602V119.42ZM213.24 120.779C212.533 120.779 211.925 120.628 211.414 120.326C210.907 120.021 210.515 119.593 210.238 119.042C209.964 118.488 209.827 117.839 209.827 117.095C209.827 116.36 209.964 115.713 210.238 115.153C210.515 114.593 210.901 114.155 211.395 113.841C211.893 113.526 212.476 113.369 213.142 113.369C213.546 113.369 213.938 113.436 214.318 113.57C214.698 113.704 215.039 113.914 215.341 114.2C215.643 114.487 215.881 114.859 216.055 115.316C216.229 115.771 216.316 116.323 216.316 116.974V117.469H210.616V116.423H214.948C214.948 116.055 214.874 115.73 214.724 115.447C214.575 115.161 214.365 114.935 214.094 114.77C213.826 114.605 213.512 114.522 213.151 114.522C212.759 114.522 212.416 114.619 212.124 114.812C211.834 115.002 211.61 115.251 211.452 115.559C211.296 115.864 211.218 116.195 211.218 116.553V117.37C211.218 117.85 211.302 118.258 211.47 118.594C211.641 118.93 211.879 119.187 212.185 119.364C212.49 119.538 212.846 119.625 213.254 119.625C213.518 119.625 213.759 119.588 213.977 119.513C214.195 119.436 214.384 119.32 214.542 119.168C214.701 119.015 214.822 118.827 214.906 118.603L216.228 118.841C216.122 119.23 215.932 119.571 215.658 119.864C215.387 120.153 215.046 120.379 214.636 120.541C214.228 120.699 213.763 120.779 213.24 120.779ZM216.915 118.738H218.343C218.362 119.031 218.494 119.257 218.74 119.415C218.989 119.574 219.311 119.653 219.706 119.653C220.108 119.653 220.45 119.568 220.734 119.397C221.017 119.222 221.158 118.953 221.158 118.589C221.158 118.371 221.104 118.181 220.995 118.019C220.889 117.854 220.738 117.727 220.542 117.637C220.349 117.546 220.12 117.501 219.856 117.501H218.689V116.404H219.856C220.251 116.404 220.547 116.314 220.743 116.133C220.939 115.953 221.037 115.727 221.037 115.456C221.037 115.164 220.931 114.929 220.72 114.751C220.511 114.571 220.22 114.48 219.847 114.48C219.467 114.48 219.151 114.566 218.899 114.737C218.647 114.905 218.514 115.123 218.502 115.391H217.092C217.101 114.989 217.223 114.638 217.456 114.336C217.693 114.031 218.01 113.794 218.409 113.626C218.81 113.455 219.266 113.369 219.776 113.369C220.309 113.369 220.769 113.455 221.158 113.626C221.548 113.797 221.848 114.034 222.06 114.336C222.274 114.638 222.382 114.985 222.382 115.377C222.382 115.772 222.263 116.096 222.027 116.348C221.793 116.597 221.488 116.776 221.112 116.885V116.96C221.389 116.978 221.635 117.062 221.849 117.212C222.064 117.361 222.232 117.559 222.354 117.805C222.475 118.051 222.536 118.329 222.536 118.64C222.536 119.079 222.414 119.459 222.172 119.78C221.932 120.1 221.599 120.348 221.172 120.522C220.749 120.693 220.265 120.779 219.72 120.779C219.191 120.779 218.717 120.696 218.296 120.531C217.879 120.363 217.548 120.127 217.302 119.822C217.059 119.517 216.93 119.155 216.915 118.738ZM227.773 118.678L230.934 113.463H232.437V120.634H231.069V115.414L227.922 120.634H226.405V113.463H227.773V118.678ZM238.648 116.446V117.655H234.764V116.446H238.648ZM235.156 113.463V120.634H233.788V113.463H235.156ZM239.624 113.463V120.634H238.261V113.463H239.624ZM240.076 114.667V113.463H246.127V114.667H243.788V120.634H242.425V114.667H240.076ZM249.834 120.779C249.128 120.779 248.519 120.628 248.009 120.326C247.502 120.021 247.109 119.593 246.832 119.042C246.558 118.488 246.422 117.839 246.422 117.095C246.422 116.36 246.558 115.713 246.832 115.153C247.109 114.593 247.495 114.155 247.99 113.841C248.488 113.526 249.07 113.369 249.736 113.369C250.141 113.369 250.533 113.436 250.913 113.57C251.293 113.704 251.633 113.914 251.935 114.2C252.237 114.487 252.475 114.859 252.65 115.316C252.824 115.771 252.911 116.323 252.911 116.974V117.469H247.211V116.423H251.543C251.543 116.055 251.468 115.73 251.319 115.447C251.17 115.161 250.96 114.935 250.689 114.77C250.421 114.605 250.107 114.522 249.746 114.522C249.354 114.522 249.011 114.619 248.719 114.812C248.429 115.002 248.205 115.251 248.046 115.559C247.891 115.864 247.813 116.195 247.813 116.553V117.37C247.813 117.85 247.897 118.258 248.065 118.594C248.236 118.93 248.474 119.187 248.779 119.364C249.084 119.538 249.441 119.625 249.848 119.625C250.113 119.625 250.354 119.588 250.572 119.513C250.79 119.436 250.978 119.32 251.137 119.168C251.296 119.015 251.417 118.827 251.501 118.603L252.822 118.841C252.717 119.23 252.527 119.571 252.253 119.864C251.982 120.153 251.641 120.379 251.23 120.541C250.823 120.699 250.357 120.779 249.834 120.779ZM258.519 113.463V114.667H255.311V120.634H253.934V113.463H258.519ZM259.468 123.323V113.463H260.832V114.625H260.948C261.029 114.476 261.146 114.303 261.298 114.107C261.451 113.911 261.663 113.74 261.933 113.593C262.204 113.444 262.562 113.369 263.007 113.369C263.586 113.369 264.103 113.516 264.557 113.808C265.012 114.101 265.368 114.522 265.626 115.073C265.888 115.624 266.019 116.287 266.019 117.062C266.019 117.837 265.889 118.502 265.631 119.056C265.373 119.607 265.018 120.032 264.567 120.33C264.115 120.626 263.6 120.774 263.021 120.774C262.586 120.774 262.229 120.701 261.952 120.555C261.678 120.408 261.463 120.237 261.308 120.041C261.152 119.845 261.032 119.671 260.948 119.518H260.864V123.323H259.468ZM260.836 117.048C260.836 117.553 260.909 117.995 261.056 118.374C261.202 118.754 261.414 119.051 261.691 119.266C261.968 119.478 262.307 119.583 262.708 119.583C263.126 119.583 263.474 119.473 263.754 119.252C264.034 119.028 264.246 118.724 264.389 118.342C264.536 117.959 264.609 117.528 264.609 117.048C264.609 116.575 264.537 116.15 264.394 115.774C264.254 115.397 264.042 115.1 263.759 114.882C263.479 114.664 263.129 114.555 262.708 114.555C262.304 114.555 261.961 114.659 261.681 114.868C261.404 115.077 261.194 115.368 261.051 115.741C260.908 116.115 260.836 116.55 260.836 117.048ZM269.144 120.793C268.689 120.793 268.278 120.709 267.911 120.541C267.544 120.369 267.253 120.122 267.038 119.798C266.826 119.475 266.721 119.078 266.721 118.608C266.721 118.203 266.798 117.87 266.954 117.609C267.11 117.347 267.32 117.14 267.584 116.988C267.849 116.835 268.145 116.72 268.471 116.642C268.798 116.564 269.131 116.505 269.471 116.465C269.9 116.415 270.249 116.374 270.516 116.343C270.784 116.309 270.979 116.255 271.1 116.18C271.221 116.105 271.282 115.984 271.282 115.816V115.783C271.282 115.375 271.167 115.059 270.937 114.835C270.709 114.611 270.37 114.499 269.919 114.499C269.449 114.499 269.078 114.603 268.808 114.812C268.54 115.017 268.355 115.246 268.252 115.498L266.94 115.199C267.096 114.764 267.323 114.412 267.622 114.144C267.924 113.874 268.271 113.677 268.663 113.556C269.055 113.432 269.467 113.369 269.9 113.369C270.186 113.369 270.49 113.404 270.81 113.472C271.134 113.537 271.436 113.659 271.716 113.836C271.999 114.014 272.231 114.267 272.412 114.597C272.592 114.924 272.683 115.349 272.683 115.872V120.634H271.319V119.653H271.263C271.173 119.834 271.038 120.011 270.857 120.186C270.677 120.36 270.445 120.505 270.162 120.62C269.878 120.735 269.539 120.793 269.144 120.793ZM269.447 119.672C269.833 119.672 270.163 119.596 270.437 119.443C270.714 119.291 270.924 119.092 271.067 118.846C271.214 118.597 271.287 118.331 271.287 118.047V117.123C271.237 117.173 271.14 117.219 270.997 117.263C270.857 117.304 270.697 117.339 270.516 117.37C270.336 117.398 270.16 117.425 269.989 117.45C269.818 117.472 269.674 117.49 269.559 117.506C269.288 117.54 269.041 117.598 268.817 117.679C268.596 117.76 268.419 117.876 268.285 118.029C268.154 118.178 268.089 118.377 268.089 118.626C268.089 118.972 268.216 119.233 268.471 119.411C268.727 119.585 269.052 119.672 269.447 119.672ZM279.866 113.463V119.49H280.917V122.945H279.539V120.634H274.016V113.463H275.384V119.429H278.503V113.463H279.866ZM283.306 118.678L286.467 113.463H287.971V120.634H286.603V115.414L283.456 120.634H281.938V113.463H283.306V118.678ZM290.689 118.678L293.85 113.463H295.354V120.634H293.986V115.414L290.839 120.634H289.321V113.463H290.689V118.678Z" fill="#092A39"/>
<path d="M40.1792 34.5H37.8013C37.6607 33.8161 37.4146 33.2152 37.0631 32.6974C36.7179 32.1797 36.296 31.745 35.7974 31.3935C35.3052 31.0355 34.7587 30.767 34.1579 30.5881C33.557 30.4091 32.9306 30.3196 32.2786 30.3196C31.0897 30.3196 30.0126 30.62 29.0474 31.2209C28.0886 31.8217 27.3248 32.707 26.7559 33.8768C26.1934 35.0465 25.9121 36.4815 25.9121 38.1818C25.9121 39.8821 26.1934 41.3171 26.7559 42.4869C27.3248 43.6566 28.0886 44.5419 29.0474 45.1428C30.0126 45.7436 31.0897 46.044 32.2786 46.044C32.9306 46.044 33.557 45.9545 34.1579 45.7756C34.7587 45.5966 35.3052 45.3313 35.7974 44.9798C36.296 44.6218 36.7179 44.1839 37.0631 43.6662C37.4146 43.142 37.6607 42.5412 37.8013 41.8636H40.1792C40.0002 42.8672 39.6742 43.7653 39.2012 44.5579C38.7282 45.3505 38.1401 46.0249 37.437 46.581C36.7339 47.1307 35.9444 47.5494 35.0687 47.837C34.1994 48.1246 33.2694 48.2685 32.2786 48.2685C30.6039 48.2685 29.1145 47.8594 27.8106 47.0412C26.5066 46.223 25.4807 45.0597 24.7328 43.5511C23.9849 42.0426 23.611 40.2528 23.611 38.1818C23.611 36.1108 23.9849 34.321 24.7328 32.8125C25.4807 31.304 26.5066 30.1406 27.8106 29.3224C29.1145 28.5043 30.6039 28.0952 32.2786 28.0952C33.2694 28.0952 34.1994 28.239 35.0687 28.5266C35.9444 28.8143 36.7339 29.2362 37.437 29.7923C38.1401 30.342 38.7282 31.0131 39.2012 31.8058C39.6742 32.592 40.0002 33.4901 40.1792 34.5ZM43.0398 48V33.2727H45.3026V39.6776H46.7983L52.0909 33.2727H55.0057L49.0611 40.3679L55.0824 48H52.1676L47.3352 41.7869H45.3026V48H43.0398ZM62.2432 48.3068C60.9137 48.3068 59.7471 47.9904 58.7436 47.3576C57.7464 46.7248 56.9666 45.8395 56.4041 44.7017C55.848 43.5639 55.5699 42.2344 55.5699 40.7131C55.5699 39.179 55.848 37.8398 56.4041 36.6957C56.9666 35.5515 57.7464 34.663 58.7436 34.0302C59.7471 33.3974 60.9137 33.081 62.2432 33.081C63.5728 33.081 64.7361 33.3974 65.7333 34.0302C66.7368 34.663 67.5167 35.5515 68.0728 36.6957C68.6353 37.8398 68.9165 39.179 68.9165 40.7131C68.9165 42.2344 68.6353 43.5639 68.0728 44.7017C67.5167 45.8395 66.7368 46.7248 65.7333 47.3576C64.7361 47.9904 63.5728 48.3068 62.2432 48.3068ZM62.2432 46.2741C63.2532 46.2741 64.0842 46.0153 64.7361 45.4975C65.3881 44.9798 65.8707 44.299 66.1839 43.4553C66.4971 42.6115 66.6538 41.6974 66.6538 40.7131C66.6538 39.7287 66.4971 38.8114 66.1839 37.9613C65.8707 37.1112 65.3881 36.424 64.7361 35.8999C64.0842 35.3757 63.2532 35.1136 62.2432 35.1136C61.2333 35.1136 60.4023 35.3757 59.7503 35.8999C59.0984 36.424 58.6158 37.1112 58.3025 37.9613C57.9893 38.8114 57.8327 39.7287 57.8327 40.7131C57.8327 41.6974 57.9893 42.6115 58.3025 43.4553C58.6158 44.299 59.0984 44.9798 59.7503 45.4975C60.4023 46.0153 61.2333 46.2741 62.2432 46.2741ZM71.6956 53.5227V33.2727H73.8817V35.6122H74.1502C74.3164 35.3565 74.5465 35.0305 74.8405 34.6342C75.1409 34.2315 75.5692 33.8736 76.1253 33.5604C76.6878 33.2408 77.4485 33.081 78.4073 33.081C79.6473 33.081 80.7404 33.391 81.6864 34.011C82.6324 34.631 83.3707 35.5099 83.9012 36.6477C84.4318 37.7855 84.6971 39.1278 84.6971 40.6747C84.6971 42.2344 84.4318 43.5863 83.9012 44.7305C83.3707 45.8683 82.6356 46.7504 81.696 47.3768C80.7564 47.9968 79.6729 48.3068 78.4456 48.3068C77.4996 48.3068 76.7422 48.1502 76.1733 47.837C75.6044 47.5174 75.1665 47.1562 74.8597 46.7536C74.5529 46.3445 74.3164 46.0057 74.1502 45.7372H73.9584V53.5227H71.6956ZM73.9201 40.6364C73.9201 41.7486 74.0831 42.7298 74.4091 43.5799C74.7351 44.4237 75.2113 45.0852 75.8377 45.5646C76.4641 46.0376 77.2311 46.2741 78.1388 46.2741C79.0848 46.2741 79.8743 46.0249 80.5071 45.5263C81.1463 45.0213 81.6257 44.3437 81.9453 43.4936C82.2713 42.6371 82.4343 41.6847 82.4343 40.6364C82.4343 39.6009 82.2745 38.6676 81.9549 37.8366C81.6417 36.9993 81.1655 36.3377 80.5262 35.8519C79.8934 35.3597 79.0976 35.1136 78.1388 35.1136C77.2184 35.1136 76.4449 35.3469 75.8185 35.8136C75.1921 36.2738 74.7191 36.9194 74.3995 37.7504C74.0799 38.5749 73.9201 39.5369 73.9201 40.6364ZM93.4567 48.3068C92.1272 48.3068 90.9606 47.9904 89.9571 47.3576C88.9599 46.7248 88.1801 45.8395 87.6176 44.7017C87.0615 43.5639 86.7834 42.2344 86.7834 40.7131C86.7834 39.179 87.0615 37.8398 87.6176 36.6957C88.1801 35.5515 88.9599 34.663 89.9571 34.0302C90.9606 33.3974 92.1272 33.081 93.4567 33.081C94.7863 33.081 95.9496 33.3974 96.9468 34.0302C97.9503 34.663 98.7302 35.5515 99.2863 36.6957C99.8488 37.8398 100.13 39.179 100.13 40.7131C100.13 42.2344 99.8488 43.5639 99.2863 44.7017C98.7302 45.8395 97.9503 46.7248 96.9468 47.3576C95.9496 47.9904 94.7863 48.3068 93.4567 48.3068ZM93.4567 46.2741C94.4667 46.2741 95.2976 46.0153 95.9496 45.4975C96.6016 44.9798 97.0842 44.299 97.3974 43.4553C97.7106 42.6115 97.8672 41.6974 97.8672 40.7131C97.8672 39.7287 97.7106 38.8114 97.3974 37.9613C97.0842 37.1112 96.6016 36.424 95.9496 35.8999C95.2976 35.3757 94.4667 35.1136 93.4567 35.1136C92.4468 35.1136 91.6158 35.3757 90.9638 35.8999C90.3118 36.424 89.8292 37.1112 89.516 37.9613C89.2028 38.8114 89.0462 39.7287 89.0462 40.7131C89.0462 41.6974 89.2028 42.6115 89.516 43.4553C89.8292 44.299 90.3118 44.9798 90.9638 45.4975C91.6158 46.0153 92.4468 46.2741 93.4567 46.2741ZM108.892 48.3068C107.511 48.3068 106.322 47.9808 105.325 47.3288C104.328 46.6768 103.561 45.7788 103.024 44.6346C102.487 43.4904 102.219 42.1832 102.219 40.7131C102.219 39.2173 102.493 37.8974 103.043 36.7532C103.599 35.6026 104.373 34.7045 105.363 34.0589C106.361 33.407 107.524 33.081 108.854 33.081C109.889 33.081 110.822 33.2727 111.653 33.6562C112.484 34.0398 113.165 34.5767 113.695 35.267C114.226 35.9574 114.555 36.7628 114.683 37.6832H112.42C112.248 37.0121 111.864 36.4176 111.27 35.8999C110.682 35.3757 109.889 35.1136 108.892 35.1136C108.01 35.1136 107.236 35.3437 106.572 35.804C105.913 36.2578 105.399 36.9002 105.028 37.7312C104.664 38.5558 104.481 39.5241 104.481 40.6364C104.481 41.7741 104.66 42.7649 105.018 43.6087C105.383 44.4524 105.894 45.1076 106.552 45.5742C107.217 46.0408 107.997 46.2741 108.892 46.2741C109.48 46.2741 110.014 46.1719 110.493 45.9673C110.972 45.7628 111.378 45.4688 111.711 45.0852C112.043 44.7017 112.28 44.2415 112.42 43.7045H114.683C114.555 44.5739 114.239 45.3569 113.734 46.0536C113.235 46.744 112.574 47.2937 111.749 47.7028C110.931 48.1055 109.979 48.3068 108.892 48.3068ZM116.156 35.3821V33.2727H128.122V35.3821H123.289V48H121.027V35.3821H116.156ZM132.703 38.6037H136.922C138.648 38.6037 139.968 39.0415 140.882 39.9173C141.796 40.793 142.253 41.902 142.253 43.2443C142.253 44.1264 142.049 44.9286 141.639 45.6509C141.23 46.3668 140.629 46.9389 139.837 47.3672C139.044 47.7891 138.073 48 136.922 48H130.747V33.2727H133.01V45.8906H136.922C137.817 45.8906 138.552 45.6541 139.127 45.1811C139.703 44.7081 139.99 44.1009 139.99 43.3594C139.99 42.5795 139.703 41.9435 139.127 41.4513C138.552 40.9592 137.817 40.7131 136.922 40.7131H132.703V38.6037ZM30.0542 80.3068C28.7246 80.3068 27.5581 79.9904 26.5545 79.3576C25.5574 78.7248 24.7775 77.8395 24.215 76.7017C23.6589 75.5639 23.3809 74.2344 23.3809 72.7131C23.3809 71.179 23.6589 69.8398 24.215 68.6957C24.7775 67.5515 25.5574 66.663 26.5545 66.0302C27.5581 65.3974 28.7246 65.081 30.0542 65.081C31.3837 65.081 32.5471 65.3974 33.5442 66.0302C34.5478 66.663 35.3276 67.5515 35.8837 68.6957C36.4462 69.8398 36.7275 71.179 36.7275 72.7131C36.7275 74.2344 36.4462 75.5639 35.8837 76.7017C35.3276 77.8395 34.5478 78.7248 33.5442 79.3576C32.5471 79.9904 31.3837 80.3068 30.0542 80.3068ZM30.0542 78.2741C31.0641 78.2741 31.8951 78.0153 32.5471 77.4975C33.1991 76.9798 33.6817 76.299 33.9949 75.4553C34.3081 74.6115 34.4647 73.6974 34.4647 72.7131C34.4647 71.7287 34.3081 70.8114 33.9949 69.9613C33.6817 69.1112 33.1991 68.424 32.5471 67.8999C31.8951 67.3757 31.0641 67.1136 30.0542 67.1136C29.0442 67.1136 28.2133 67.3757 27.5613 67.8999C26.9093 68.424 26.4267 69.1112 26.1135 69.9613C25.8003 70.8114 25.6437 71.7287 25.6437 72.7131C25.6437 73.6974 25.8003 74.6115 26.1135 75.4553C26.4267 76.299 26.9093 76.9798 27.5613 77.4975C28.2133 78.0153 29.0442 78.2741 30.0542 78.2741ZM37.9341 84.2188V77.8906H39.1614C39.4618 77.5774 39.7207 77.2386 39.938 76.8743C40.1554 76.5099 40.3439 76.0785 40.5037 75.5799C40.6699 75.0749 40.8106 74.4613 40.9256 73.739C41.0407 73.0103 41.1429 72.1314 41.2324 71.1023L41.731 65.2727H51.089V77.8906H53.3517V84.2188H51.089V80H40.1969V84.2188H37.9341ZM41.731 77.8906H48.8262V67.3821H43.8404L43.4569 71.1023C43.2971 72.6428 43.0989 73.9883 42.8624 75.1388C42.6259 76.2894 42.2488 77.2067 41.731 77.8906ZM61.6632 80.3068C60.3336 80.3068 59.1671 79.9904 58.1635 79.3576C57.1664 78.7248 56.3865 77.8395 55.824 76.7017C55.2679 75.5639 54.9899 74.2344 54.9899 72.7131C54.9899 71.179 55.2679 69.8398 55.824 68.6957C56.3865 67.5515 57.1664 66.663 58.1635 66.0302C59.1671 65.3974 60.3336 65.081 61.6632 65.081C62.9927 65.081 64.1561 65.3974 65.1532 66.0302C66.1568 66.663 66.9366 67.5515 67.4927 68.6957C68.0552 69.8398 68.3365 71.179 68.3365 72.7131C68.3365 74.2344 68.0552 75.5639 67.4927 76.7017C66.9366 77.8395 66.1568 78.7248 65.1532 79.3576C64.1561 79.9904 62.9927 80.3068 61.6632 80.3068ZM61.6632 78.2741C62.6731 78.2741 63.5041 78.0153 64.1561 77.4975C64.808 76.9798 65.2906 76.299 65.6039 75.4553C65.9171 74.6115 66.0737 73.6974 66.0737 72.7131C66.0737 71.7287 65.9171 70.8114 65.6039 69.9613C65.2906 69.1112 64.808 68.424 64.1561 67.8999C63.5041 67.3757 62.6731 67.1136 61.6632 67.1136C60.6532 67.1136 59.8223 67.3757 59.1703 67.8999C58.5183 68.424 58.0357 69.1112 57.7225 69.9613C57.4093 70.8114 57.2527 71.7287 57.2527 72.7131C57.2527 73.6974 57.4093 74.6115 57.7225 75.4553C58.0357 76.299 58.5183 76.9798 59.1703 77.4975C59.8223 78.0153 60.6532 78.2741 61.6632 78.2741ZM82.046 59.75L83.1965 61.1307C82.7491 61.5653 82.2313 61.869 81.6433 62.0415C81.0552 62.2141 80.3904 62.3196 79.6489 62.358C78.9075 62.3963 78.0829 62.4347 77.1752 62.473C76.1525 62.5114 75.3055 62.7607 74.6344 63.2209C73.9632 63.6811 73.4455 64.3459 73.0811 65.2152C72.7168 66.0845 72.4835 67.152 72.3812 68.4176H72.5729C73.0715 67.4972 73.7619 66.8196 74.644 66.3849C75.5261 65.9503 76.4721 65.733 77.482 65.733C78.6326 65.733 79.6681 66.0014 80.5886 66.5384C81.509 67.0753 82.2377 67.8711 82.7746 68.9258C83.3116 69.9805 83.58 71.2812 83.58 72.8281C83.58 74.3686 83.3052 75.6982 82.7555 76.8168C82.2121 77.9354 81.4483 78.7983 80.4639 79.4055C79.4859 80.0064 78.3386 80.3068 77.0218 80.3068C75.705 80.3068 74.5513 79.9968 73.5605 79.3768C72.5697 78.7504 71.7995 77.8235 71.2498 76.5962C70.7001 75.3626 70.4252 73.8381 70.4252 72.0227V70.4503C70.4252 67.1712 70.9813 64.6847 72.0935 62.9908C73.2121 61.2969 74.8933 60.4212 77.1369 60.3636C77.9295 60.3381 78.6358 60.3317 79.2558 60.3445C79.8759 60.3572 80.416 60.3285 80.8762 60.2582C81.3364 60.1879 81.7264 60.0185 82.046 59.75ZM77.0218 78.2741C77.9103 78.2741 78.6742 78.0504 79.3134 77.603C79.959 77.1555 80.4543 76.5259 80.7995 75.7141C81.1447 74.896 81.3173 73.9339 81.3173 72.8281C81.3173 71.7543 81.1415 70.8402 80.7899 70.0859C80.4447 69.3317 79.9494 68.7564 79.3038 68.3601C78.6582 67.9638 77.8847 67.7656 76.9835 67.7656C76.3251 67.7656 75.7338 67.8775 75.2097 68.1012C74.6855 68.3249 74.2381 68.6541 73.8673 69.0888C73.4966 69.5234 73.209 70.054 73.0044 70.6804C72.8063 71.3068 72.7008 72.0227 72.688 72.8281C72.688 74.4773 73.0747 75.7972 73.8482 76.788C74.6216 77.7788 75.6795 78.2741 77.0218 78.2741ZM86.3663 85.5227V65.2727H88.5524V67.6122H88.8209C88.9871 67.3565 89.2172 67.0305 89.5112 66.6342C89.8117 66.2315 90.2399 65.8736 90.796 65.5604C91.3585 65.2408 92.1192 65.081 93.078 65.081C94.318 65.081 95.4111 65.391 96.3571 66.011C97.3031 66.631 98.0414 67.5099 98.572 68.6477C99.1025 69.7855 99.3678 71.1278 99.3678 72.6747C99.3678 74.2344 99.1025 75.5863 98.572 76.7305C98.0414 77.8683 97.3063 78.7504 96.3667 79.3768C95.4271 79.9968 94.3436 80.3068 93.1163 80.3068C92.1703 80.3068 91.4129 80.1502 90.844 79.837C90.2751 79.5174 89.8372 79.1562 89.5304 78.7536C89.2236 78.3445 88.9871 78.0057 88.8209 77.7372H88.6291V85.5227H86.3663ZM88.5908 72.6364C88.5908 73.7486 88.7538 74.7298 89.0798 75.5799C89.4058 76.4237 89.882 77.0852 90.5084 77.5646C91.1348 78.0376 91.9019 78.2741 92.8095 78.2741C93.7555 78.2741 94.545 78.0249 95.1778 77.5263C95.817 77.0213 96.2964 76.3437 96.616 75.4936C96.942 74.6371 97.105 73.6847 97.105 72.6364C97.105 71.6009 96.9452 70.6676 96.6256 69.8366C96.3124 68.9993 95.8362 68.3377 95.197 67.8519C94.5641 67.3597 93.7683 67.1136 92.8095 67.1136C91.8891 67.1136 91.1156 67.3469 90.4892 67.8136C89.8628 68.2738 89.3898 68.9194 89.0702 69.7504C88.7506 70.5749 88.5908 71.5369 88.5908 72.6364ZM108.319 80.3068C106.9 80.3068 105.676 79.9936 104.647 79.3672C103.624 78.7344 102.835 77.8523 102.278 76.7209C101.729 75.5831 101.454 74.2599 101.454 72.7514C101.454 71.2429 101.729 69.9134 102.278 68.7628C102.835 67.6058 103.608 66.7045 104.599 66.0589C105.596 65.407 106.759 65.081 108.089 65.081C108.856 65.081 109.613 65.2088 110.361 65.4645C111.109 65.7202 111.79 66.1357 112.403 66.7109C113.017 67.2798 113.506 68.0341 113.87 68.9737C114.235 69.9134 114.417 71.0703 114.417 72.4446V73.4034H103.065V71.4474H112.116C112.116 70.6165 111.95 69.875 111.617 69.223C111.291 68.571 110.825 68.0565 110.217 67.6793C109.617 67.3022 108.907 67.1136 108.089 67.1136C107.188 67.1136 106.408 67.3374 105.749 67.7848C105.097 68.2259 104.596 68.8011 104.244 69.5107C103.892 70.2202 103.717 70.9808 103.717 71.7926V73.0966C103.717 74.2088 103.908 75.1516 104.292 75.9251C104.682 76.6921 105.222 77.277 105.912 77.6797C106.603 78.076 107.405 78.2741 108.319 78.2741C108.913 78.2741 109.45 78.1911 109.93 78.0249C110.416 77.8523 110.834 77.5966 111.186 77.2578C111.537 76.9126 111.809 76.4844 112.001 75.973L114.187 76.5866C113.957 77.3281 113.57 77.9801 113.027 78.5426C112.483 79.0987 111.812 79.5334 111.013 79.8466C110.214 80.1534 109.316 80.3068 108.319 80.3068ZM127.041 71.6009V73.7102H118.91V71.6009H127.041ZM119.447 65.2727V80H117.184V65.2727H119.447ZM128.766 65.2727V80H126.504V65.2727H128.766ZM134.487 76.6634L141.582 65.2727H144.19V80H141.927V68.6094L134.87 80H132.224V65.2727H134.487V76.6634ZM156.519 80V67.3438H152.607C151.725 67.3438 151.031 67.5483 150.526 67.9574C150.021 68.3665 149.769 68.929 149.769 69.6449C149.769 70.348 149.996 70.9009 150.449 71.3036C150.91 71.7063 151.539 71.9077 152.338 71.9077H157.094V74.017H152.338C151.341 74.017 150.481 73.8413 149.759 73.4897C149.037 73.1381 148.481 72.6364 148.091 71.9844C147.701 71.326 147.506 70.5462 147.506 69.6449C147.506 68.7372 147.71 67.9574 148.12 67.3054C148.529 66.6534 149.113 66.1516 149.874 65.8001C150.641 65.4485 151.552 65.2727 152.607 65.2727H158.666V80H156.519ZM146.7 80L150.881 72.6747H153.335L149.155 80H146.7Z" fill="black"/>
<path d="M840 116.5C840 114.567 838.433 113 836.5 113C834.567 113 833 114.567 833 116.5C833 118.433 834.567 120 836.5 120C838.433 120 840 118.433 840 116.5Z" fill="#04B34A"/>
<path d="M840 116.5C840 114.567 838.433 113 836.5 113C834.567 113 833 114.567 833 116.5C833 118.433 834.567 120 836.5 120C838.433 120 840 118.433 840 116.5Z" fill="#CACACA"/>
<path d="M840 416.5C840 414.567 838.433 413 836.5 413C834.567 413 833 414.567 833 416.5C833 418.433 834.567 420 836.5 420C838.433 420 840 418.433 840 416.5Z" fill="#04B34A"/>
</g>
<rect x="0.5" y="0.5" width="859" height="549" rx="29.5" stroke="#EAEAEA"/>
<defs>
<linearGradient id="paint0_linear_1595_2" x1="429.983" y1="62" x2="429.983" y2="354.5" gradientUnits="userSpaceOnUse">
<stop stop-color="#D9D9D9"/>
<stop offset="1" stop-color="#D9D9D9" stop-opacity="0"/>
</linearGradient>
<linearGradient id="paint1_linear_1595_2" x1="429.98" y1="274.5" x2="429.98" y2="477.488" gradientUnits="userSpaceOnUse">
<stop stop-color="#04B34A"/>
<stop offset="0.0666667" stop-color="#04B34A" stop-opacity="0.991353"/>
<stop offset="0.133333" stop-color="#04B34A" stop-opacity="0.96449"/>
<stop offset="0.2" stop-color="#04B34A" stop-opacity="0.91834"/>
<stop offset="0.266667" stop-color="#04B34A" stop-opacity="0.852589"/>
<stop offset="0.333333" stop-color="#04B34A" stop-opacity="0.768225"/>
<stop offset="0.4" stop-color="#04B34A" stop-opacity="0.668116"/>
<stop offset="0.466667" stop-color="#04B34A" stop-opacity="0.557309"/>
<stop offset="0.533333" stop-color="#04B34A" stop-opacity="0.442691"/>
<stop offset="0.6" stop-color="#04B34A" stop-opacity="0.331884"/>
<stop offset="0.666667" stop-color="#04B34A" stop-opacity="0.231775"/>
<stop offset="0.733333" stop-color="#04B34A" stop-opacity="0.147411"/>
<stop offset="0.8" stop-color="#04B34A" stop-opacity="0.0816599"/>
<stop offset="0.866667" stop-color="#04B34A" stop-opacity="0.03551"/>
<stop offset="0.933333" stop-color="#04B34A" stop-opacity="0.01"/>
<stop offset="1" stop-color="#04B34A" stop-opacity="0"/>
</linearGradient>
<clipPath id="clip0_1595_2">
<rect width="860" height="550" rx="30" fill="white"/>
</clipPath>
</defs>
</svg>
