<svg width="860" height="550" viewBox="0 0 860 550" fill="none" xmlns="http://www.w3.org/2000/svg">
<g clip-path="url(#clip0_1595_26)">
<path d="M860 0H0V550H860V0Z" fill="white"/>
<path d="M836 162L428.5 333.454L24 314.551V422H836V162Z" fill="url(#paint0_linear_1595_26)"/>
<path d="M836 361L429 404L24 386.518V488H836V361Z" fill="url(#paint1_linear_1595_26)"/>
<path d="M836.5 162L438.654 330.338C432.958 332.748 426.792 333.842 420.614 333.538L24 314.006" stroke="#04B34A" stroke-width="2.83494" stroke-linecap="round" stroke-linejoin="round"/>
<path d="M836.5 162L438.654 330.338C432.958 332.748 426.792 333.842 420.614 333.538L24 314.006" stroke="#CACACA" stroke-width="2.83494" stroke-linecap="round" stroke-linejoin="round"/>
<path d="M836 361L433.232 403.684C431.247 403.894 429.249 403.96 427.254 403.88L24 387.73" stroke="#04B34A" stroke-width="2.83494" stroke-linecap="round" stroke-linejoin="round"/>
<path d="M28.2727 304.169C27.5157 304.169 26.8351 304.024 26.2311 303.734C25.6311 303.44 25.1519 303.038 24.7935 302.526C24.4351 302.015 24.2438 301.431 24.2197 300.774H26.0318C26.0761 301.306 26.3116 301.743 26.7385 302.085C27.1653 302.427 27.6767 302.599 28.2727 302.599C28.7479 302.599 29.1687 302.49 29.5352 302.272C29.9056 302.051 30.1956 301.747 30.405 301.36C30.6184 300.974 30.7251 300.533 30.7251 300.038C30.7251 299.534 30.6164 299.085 30.3989 298.691C30.1815 298.296 29.8815 297.986 29.4989 297.76C29.1204 297.535 28.6855 297.42 28.1942 297.416C27.8197 297.416 27.4432 297.48 27.0647 297.609C26.6861 297.738 26.3801 297.907 26.1465 298.117L24.4371 297.863L25.1317 291.629H31.9332V293.23H26.6841L26.2915 296.691H26.364C26.6056 296.458 26.9257 296.262 27.3244 296.105C27.7271 295.948 28.158 295.87 28.617 295.87C29.3701 295.87 30.0405 296.049 30.6285 296.407C31.2204 296.766 31.6855 297.255 32.0238 297.875C32.3661 298.491 32.5352 299.2 32.5312 300.001C32.5352 300.803 32.354 301.517 31.9875 302.146C31.6251 302.774 31.1218 303.269 30.4774 303.632C29.8372 303.99 29.1023 304.169 28.2727 304.169ZM35.9824 302.309L35.8918 302.967C35.8314 303.45 35.7287 303.954 35.5837 304.477C35.4428 305.005 35.2958 305.494 35.1428 305.945C34.9938 306.396 34.871 306.754 34.7743 307.02H33.4938C33.5461 306.771 33.6186 306.432 33.7112 306.005C33.8038 305.583 33.8944 305.109 33.983 304.586C34.0716 304.062 34.1381 303.529 34.1824 302.985L34.2428 302.309H35.9824ZM41.6866 304.169C40.8571 304.169 40.1162 304.026 39.4638 303.74C38.8155 303.454 38.302 303.058 37.9235 302.55C37.549 302.039 37.3477 301.447 37.3195 300.774H39.2161C39.2403 301.141 39.3631 301.459 39.5846 301.729C39.8101 301.995 40.1041 302.2 40.4665 302.345C40.8289 302.49 41.2316 302.562 41.6746 302.562C42.1618 302.562 42.5927 302.478 42.9672 302.309C43.3457 302.14 43.6417 301.904 43.8551 301.602C44.0686 301.296 44.1753 300.944 44.1753 300.545C44.1753 300.13 44.0686 299.766 43.8551 299.452C43.6457 299.133 43.3377 298.884 42.931 298.703C42.5283 298.521 42.041 298.431 41.4692 298.431H40.4242V296.909H41.4692C41.9283 296.909 42.3309 296.826 42.6773 296.661C43.0276 296.496 43.3014 296.266 43.4987 295.972C43.6961 295.674 43.7947 295.326 43.7947 294.927C43.7947 294.545 43.7081 294.213 43.535 293.931C43.3659 293.645 43.1242 293.421 42.8101 293.26C42.5001 293.099 42.1336 293.019 41.7108 293.019C41.3081 293.019 40.9316 293.093 40.5813 293.242C40.2349 293.387 39.9531 293.597 39.7356 293.87C39.5182 294.14 39.4014 294.464 39.3853 294.843H37.5792C37.5993 294.174 37.7967 293.586 38.1712 293.079C38.5497 292.572 39.049 292.175 39.6692 291.889C40.2893 291.603 40.9779 291.46 41.735 291.46C42.5283 291.46 43.2128 291.615 43.7887 291.925C44.3686 292.231 44.8155 292.64 45.1296 293.152C45.4478 293.663 45.6048 294.223 45.6008 294.831C45.6048 295.523 45.4115 296.111 45.0209 296.595C44.6343 297.078 44.1189 297.402 43.4746 297.567V297.664C44.2961 297.789 44.9323 298.115 45.3833 298.642C45.8384 299.17 46.0639 299.824 46.0599 300.605C46.0639 301.286 45.8746 301.896 45.4921 302.436C45.1135 302.975 44.5961 303.4 43.9397 303.71C43.2833 304.016 42.5323 304.169 41.6866 304.169ZM58.9558 294.722V304H57.192V294.722H58.9558ZM58.1887 299.029V300.587C57.9108 300.7 57.6169 300.801 57.3068 300.889C56.9967 300.974 56.6705 301.04 56.3283 301.089C55.986 301.137 55.6296 301.161 55.2591 301.161C54.1115 301.161 53.1994 300.881 52.5228 300.321C51.8463 299.758 51.5081 298.896 51.5081 297.736V294.704H53.2658V297.736C53.2658 298.175 53.3463 298.531 53.5074 298.805C53.6685 299.079 53.898 299.28 54.196 299.409C54.494 299.538 54.8484 299.603 55.2591 299.603C55.8028 299.603 56.3041 299.552 56.7632 299.452C57.2263 299.347 57.7014 299.206 58.1887 299.029Z" fill="#CACACA"/>
<path d="M28.8833 362.629V375H27.0108V364.502H26.9383L23.9785 366.435V364.647L27.0652 362.629H28.8833ZM33.2089 373.309L33.1182 373.967C33.0578 374.45 32.9552 374.954 32.8102 375.477C32.6692 376.005 32.5223 376.494 32.3692 376.945C32.2202 377.396 32.0974 377.754 32.0008 378.02H30.7202C30.7726 377.771 30.8451 377.432 30.9377 377.005C31.0303 376.583 31.1209 376.109 31.2095 375.586C31.2981 375.062 31.3645 374.529 31.4088 373.985L31.4692 373.309H33.2089ZM35.156 375L40.5561 364.321V364.23H34.3104V362.629H42.489V364.284L37.107 375H35.156ZM55.2022 365.722V375H53.4385V365.722H55.2022ZM54.4351 370.029V371.587C54.1573 371.7 53.8633 371.801 53.5532 371.889C53.2432 371.974 52.917 372.04 52.5747 372.089C52.2324 372.137 51.876 372.161 51.5055 372.161C50.3579 372.161 49.4458 371.881 48.7693 371.321C48.0927 370.758 47.7545 369.896 47.7545 368.736V365.704H49.5122V368.736C49.5122 369.175 49.5928 369.531 49.7538 369.805C49.9149 370.079 50.1445 370.28 50.4424 370.409C50.7404 370.538 51.0948 370.603 51.5055 370.603C52.0492 370.603 52.5505 370.552 53.0096 370.452C53.4727 370.347 53.9479 370.206 54.4351 370.029Z" fill="#04B34A"/>
<path d="M407.497 317.169C406.667 317.169 405.926 317.026 405.274 316.74C404.626 316.454 404.112 316.058 403.734 315.55C403.359 315.039 403.158 314.447 403.13 313.774H405.026C405.05 314.141 405.173 314.459 405.395 314.729C405.62 314.995 405.914 315.2 406.277 315.345C406.639 315.49 407.042 315.562 407.485 315.562C407.972 315.562 408.403 315.478 408.777 315.309C409.156 315.14 409.452 314.904 409.665 314.602C409.879 314.296 409.985 313.944 409.985 313.545C409.985 313.13 409.879 312.766 409.665 312.452C409.456 312.133 409.148 311.884 408.741 311.703C408.338 311.521 407.851 311.431 407.279 311.431H406.234V309.909H407.279C407.738 309.909 408.141 309.826 408.487 309.661C408.838 309.496 409.112 309.266 409.309 308.972C409.506 308.674 409.605 308.326 409.605 307.927C409.605 307.545 409.518 307.213 409.345 306.931C409.176 306.645 408.934 306.421 408.62 306.26C408.31 306.099 407.944 306.019 407.521 306.019C407.118 306.019 406.742 306.093 406.391 306.242C406.045 306.387 405.763 306.597 405.546 306.87C405.328 307.14 405.211 307.464 405.195 307.843H403.389C403.409 307.174 403.607 306.586 403.981 306.079C404.36 305.572 404.859 305.175 405.479 304.889C406.099 304.603 406.788 304.46 407.545 304.46C408.338 304.46 409.023 304.615 409.599 304.925C410.179 305.231 410.626 305.64 410.94 306.152C411.258 306.663 411.415 307.223 411.411 307.831C411.415 308.523 411.222 309.111 410.831 309.595C410.444 310.078 409.929 310.402 409.285 310.567V310.664C410.106 310.789 410.742 311.115 411.193 311.642C411.648 312.17 411.874 312.824 411.87 313.605C411.874 314.286 411.685 314.896 411.302 315.436C410.924 315.975 410.406 316.4 409.75 316.71C409.093 317.016 408.342 317.169 407.497 317.169ZM415.481 315.309L415.391 315.967C415.33 316.45 415.228 316.954 415.083 317.477C414.942 318.005 414.795 318.494 414.642 318.945C414.493 319.396 414.37 319.754 414.273 320.02H412.993C413.045 319.771 413.117 319.432 413.21 319.005C413.303 318.583 413.393 318.109 413.482 317.586C413.57 317.062 413.637 316.529 413.681 315.985L413.742 315.309H415.481ZM421.291 304.46C421.843 304.464 422.386 304.565 422.922 304.762C423.458 304.96 423.941 305.282 424.372 305.729C424.807 306.176 425.153 306.78 425.411 307.541C425.672 308.298 425.805 309.24 425.809 310.368C425.809 311.451 425.701 312.415 425.483 313.261C425.266 314.103 424.954 314.813 424.547 315.393C424.144 315.973 423.655 316.414 423.079 316.716C422.503 317.018 421.855 317.169 421.134 317.169C420.397 317.169 419.743 317.024 419.171 316.734C418.599 316.444 418.134 316.044 417.776 315.532C417.417 315.017 417.194 314.425 417.105 313.756H418.948C419.068 314.288 419.314 314.719 419.684 315.049C420.059 315.375 420.542 315.538 421.134 315.538C422.04 315.538 422.747 315.144 423.254 314.354C423.762 313.561 424.017 312.454 424.021 311.032H423.925C423.715 311.378 423.454 311.676 423.14 311.926C422.829 312.176 422.481 312.369 422.095 312.506C421.708 312.643 421.295 312.711 420.856 312.711C420.144 312.711 419.495 312.536 418.911 312.186C418.327 311.836 417.862 311.354 417.516 310.742C417.17 310.13 416.996 309.431 416.996 308.646C416.996 307.865 417.174 307.156 417.528 306.52C417.886 305.884 418.386 305.38 419.026 305.01C419.67 304.635 420.425 304.452 421.291 304.46ZM421.297 306.031C420.826 306.031 420.401 306.148 420.023 306.381C419.648 306.611 419.352 306.923 419.135 307.317C418.917 307.708 418.809 308.143 418.809 308.622C418.809 309.101 418.913 309.536 419.123 309.927C419.336 310.313 419.626 310.621 419.993 310.851C420.363 311.076 420.786 311.189 421.261 311.189C421.615 311.189 421.946 311.121 422.252 310.984C422.558 310.847 422.825 310.658 423.055 310.416C423.284 310.17 423.464 309.893 423.593 309.582C423.721 309.272 423.786 308.946 423.786 308.604C423.786 308.149 423.677 307.726 423.46 307.335C423.246 306.945 422.952 306.631 422.578 306.393C422.203 306.152 421.776 306.031 421.297 306.031ZM438.604 307.722V317H436.84V307.722H438.604ZM437.837 312.029V313.587C437.559 313.7 437.265 313.801 436.955 313.889C436.645 313.974 436.319 314.04 435.977 314.089C435.634 314.137 435.278 314.161 434.907 314.161C433.76 314.161 432.848 313.881 432.171 313.321C431.495 312.758 431.156 311.896 431.156 310.736V307.704H432.914V310.736C432.914 311.175 432.995 311.531 433.156 311.805C433.317 312.079 433.546 312.28 433.844 312.409C434.142 312.538 434.497 312.603 434.907 312.603C435.451 312.603 435.952 312.552 436.411 312.452C436.875 312.347 437.35 312.206 437.837 312.029Z" fill="#CACACA"/>
<path d="M415.883 380.629V393H414.01V382.502H413.938L410.979 384.435V382.647L414.065 380.629H415.883ZM420.209 391.309L420.118 391.967C420.058 392.45 419.955 392.954 419.81 393.477C419.669 394.005 419.521 394.494 419.368 394.945C419.219 395.396 419.097 395.754 419.001 396.02H417.72C417.773 395.771 417.844 395.432 417.938 395.005C418.03 394.583 418.121 394.109 418.209 393.586C418.298 393.062 418.365 392.529 418.409 391.985L418.469 391.309H420.209ZM421.795 390.584V389.074L427.141 380.629H428.331V382.852H427.576L423.752 388.905V389.001H431.079V390.584H421.795ZM427.66 393V390.125L427.672 389.436V380.629H429.441V393H427.66ZM443.797 383.722V393H442.033V383.722H443.797ZM443.03 388.029V389.587C442.752 389.7 442.458 389.801 442.148 389.889C441.838 389.974 441.512 390.04 441.169 390.089C440.827 390.137 440.471 390.161 440.1 390.161C438.953 390.161 438.04 389.881 437.364 389.321C436.687 388.758 436.349 387.896 436.349 386.736V383.704H438.107V386.736C438.107 387.175 438.187 387.531 438.348 387.805C438.51 388.079 438.738 388.28 439.036 388.409C439.334 388.538 439.689 388.603 440.1 388.603C440.644 388.603 441.145 388.552 441.604 388.452C442.067 388.347 442.543 388.206 443.03 388.029Z" fill="#04B34A"/>
<path d="M793.883 135.629V148H792.01V137.502H791.938L788.979 139.435V137.647L792.065 135.629H793.883ZM800.867 148.169C800.315 148.161 799.773 148.06 799.237 147.867C798.706 147.674 798.222 147.352 797.788 146.901C797.353 146.45 797.003 145.844 796.742 145.083C796.484 144.321 796.356 143.371 796.356 142.231C796.356 141.152 796.463 140.194 796.676 139.356C796.894 138.519 797.206 137.812 797.612 137.236C798.019 136.656 798.51 136.215 799.086 135.913C799.662 135.611 800.308 135.46 801.025 135.46C801.762 135.46 802.415 135.605 802.987 135.895C803.559 136.185 804.023 136.586 804.378 137.097C804.736 137.609 804.963 138.19 805.06 138.843H803.218C803.093 138.327 802.844 137.907 802.474 137.58C802.103 137.254 801.621 137.091 801.025 137.091C800.119 137.091 799.412 137.486 798.905 138.275C798.402 139.064 798.147 140.162 798.143 141.567H798.234C798.447 141.217 798.71 140.919 799.02 140.673C799.334 140.423 799.683 140.232 800.07 140.099C800.46 139.962 800.871 139.894 801.302 139.894C802.019 139.894 802.667 140.069 803.247 140.419C803.831 140.766 804.297 141.245 804.643 141.857C804.99 142.469 805.163 143.17 805.163 143.959C805.163 144.748 804.984 145.463 804.625 146.103C804.271 146.744 803.772 147.251 803.127 147.625C802.483 147.996 801.729 148.177 800.867 148.169ZM800.862 146.599C801.337 146.599 801.762 146.482 802.137 146.248C802.511 146.015 802.807 145.701 803.025 145.306C803.242 144.911 803.351 144.47 803.351 143.983C803.351 143.508 803.244 143.075 803.031 142.684C802.821 142.294 802.531 141.984 802.161 141.754C801.794 141.525 801.376 141.41 800.904 141.41C800.546 141.41 800.214 141.478 799.908 141.615C799.606 141.752 799.339 141.942 799.109 142.183C798.88 142.425 798.7 142.703 798.567 143.017C798.438 143.327 798.372 143.655 798.372 144.001C798.372 144.464 798.479 144.893 798.693 145.288C798.91 145.683 799.206 146.001 799.581 146.242C799.959 146.48 800.387 146.599 800.862 146.599ZM808.492 146.309L808.401 146.967C808.341 147.45 808.238 147.954 808.093 148.477C807.952 149.005 807.804 149.494 807.651 149.945C807.502 150.396 807.38 150.754 807.284 151.02H806.003C806.055 150.771 806.128 150.432 806.221 150.005C806.313 149.583 806.404 149.109 806.492 148.586C806.581 148.062 806.647 147.529 806.692 146.985L806.752 146.309H808.492ZM814.102 148.169C813.237 148.169 812.471 148.02 811.807 147.722C811.147 147.424 810.629 147.013 810.255 146.49C809.88 145.966 809.694 145.37 809.698 144.702C809.694 144.178 809.801 143.697 810.018 143.258C810.24 142.815 810.541 142.447 810.919 142.153C811.298 141.855 811.72 141.666 812.188 141.585V141.513C811.571 141.364 811.078 141.033 810.708 140.522C810.337 140.011 810.154 139.423 810.158 138.758C810.154 138.126 810.321 137.562 810.659 137.067C811.002 136.568 811.471 136.175 812.067 135.889C812.663 135.603 813.341 135.46 814.102 135.46C814.855 135.46 815.528 135.605 816.12 135.895C816.716 136.181 817.184 136.574 817.526 137.073C817.868 137.568 818.043 138.13 818.047 138.758C818.043 139.423 817.853 140.011 817.479 140.522C817.104 141.033 816.617 141.364 816.017 141.513V141.585C816.48 141.666 816.897 141.855 817.267 142.153C817.642 142.447 817.94 142.815 818.161 143.258C818.387 143.697 818.501 144.178 818.505 144.702C818.501 145.37 818.312 145.966 817.938 146.49C817.562 147.013 817.044 147.424 816.38 147.722C815.719 148.02 814.96 148.169 814.102 148.169ZM814.102 146.641C814.614 146.641 815.057 146.556 815.431 146.387C815.806 146.214 816.096 145.974 816.301 145.668C816.506 145.358 816.611 144.996 816.615 144.581C816.611 144.15 816.497 143.77 816.276 143.44C816.058 143.109 815.762 142.85 815.388 142.66C815.013 142.471 814.586 142.376 814.102 142.376C813.615 142.376 813.182 142.471 812.804 142.66C812.425 142.85 812.126 143.109 811.909 143.44C811.691 143.77 811.586 144.15 811.59 144.581C811.586 144.996 811.683 145.358 811.885 145.668C812.09 145.974 812.382 146.214 812.76 146.387C813.139 146.556 813.587 146.641 814.102 146.641ZM814.102 140.884C814.513 140.884 814.877 140.802 815.195 140.637C815.513 140.472 815.763 140.242 815.945 139.948C816.13 139.654 816.225 139.31 816.229 138.915C816.225 138.529 816.132 138.19 815.951 137.901C815.773 137.611 815.526 137.387 815.208 137.23C814.89 137.069 814.521 136.988 814.102 136.988C813.675 136.988 813.301 137.069 812.979 137.23C812.661 137.387 812.413 137.611 812.236 137.901C812.059 138.19 811.972 138.529 811.976 138.915C811.972 139.31 812.061 139.654 812.242 139.948C812.423 140.242 812.673 140.472 812.991 140.637C813.313 140.802 813.684 140.884 814.102 140.884ZM831.281 138.722V148H829.518V138.722H831.281ZM830.515 143.029V144.587C830.237 144.7 829.943 144.801 829.633 144.889C829.323 144.974 828.997 145.04 828.655 145.089C828.313 145.137 827.956 145.161 827.586 145.161C826.438 145.161 825.526 144.881 824.849 144.321C824.173 143.758 823.835 142.896 823.835 141.736V138.704H825.591V141.736C825.591 142.175 825.672 142.531 825.833 142.805C825.994 143.079 826.225 143.28 826.523 143.409C826.821 143.538 827.175 143.603 827.586 143.603C828.129 143.603 828.631 143.552 829.09 143.452C829.553 143.347 830.028 143.206 830.515 143.029Z" fill="#CACACA"/>
<path d="M804.19 352V350.647L808.376 346.31C808.823 345.839 809.191 345.426 809.481 345.072C809.775 344.713 809.995 344.373 810.14 344.051C810.285 343.729 810.357 343.386 810.357 343.024C810.357 342.613 810.26 342.259 810.067 341.961C809.874 341.659 809.61 341.427 809.276 341.266C808.942 341.101 808.565 341.019 808.146 341.019C807.703 341.019 807.317 341.109 806.987 341.29C806.656 341.472 806.403 341.727 806.226 342.058C806.048 342.388 805.96 342.774 805.96 343.217H804.178C804.178 342.464 804.351 341.806 804.697 341.242C805.044 340.678 805.519 340.241 806.123 339.931C806.727 339.617 807.413 339.46 808.183 339.46C808.96 339.46 809.644 339.615 810.236 339.925C810.832 340.231 811.297 340.65 811.632 341.182C811.966 341.709 812.133 342.305 812.133 342.97C812.133 343.429 812.046 343.878 811.873 344.317C811.704 344.756 811.408 345.245 810.985 345.784C810.563 346.32 809.975 346.97 809.222 347.736L806.763 350.309V350.399H812.332V352H804.19ZM816.315 350.309L816.224 350.967C816.164 351.45 816.061 351.954 815.916 352.477C815.775 353.005 815.629 353.494 815.475 353.945C815.326 354.396 815.204 354.754 815.107 355.02H813.826C813.879 354.771 813.951 354.432 814.044 354.005C814.137 353.583 814.227 353.109 814.316 352.586C814.404 352.062 814.471 351.529 814.515 350.985L814.575 350.309H816.315ZM821.359 339.629V352H819.487V341.502H819.414L816.455 343.435V341.647L819.541 339.629H821.359ZM835.319 342.722V352H833.555V342.722H835.319ZM834.551 347.029V348.587C834.274 348.7 833.98 348.801 833.669 348.889C833.359 348.974 833.033 349.04 832.691 349.089C832.349 349.137 831.992 349.161 831.622 349.161C830.474 349.161 829.562 348.881 828.886 348.321C828.209 347.758 827.871 346.896 827.871 345.736V342.704H829.629V345.736C829.629 346.175 829.709 346.531 829.87 346.805C830.031 347.079 830.261 347.28 830.559 347.409C830.857 347.538 831.211 347.603 831.622 347.603C832.165 347.603 832.667 347.552 833.126 347.452C833.589 347.347 834.064 347.206 834.551 347.029Z" fill="#04B34A"/>
<path d="M25.2783 508.364H27.0169V516.909H27.1249L33.0454 508.364H34.6704V520H32.9147V511.466H32.8067L26.8976 520H25.2783V508.364ZM41.2646 514.966V516.443H36.6112V514.966H41.2646ZM37.9918 511.273V520H36.293V511.273H37.9918ZM43.9237 520.176C43.113 520.176 42.4047 519.987 41.7987 519.608C41.1926 519.229 40.7229 518.703 40.3896 518.028C40.0562 517.35 39.8896 516.564 39.8896 515.67C39.8896 514.769 40.0562 513.981 40.3896 513.307C40.7229 512.629 41.1926 512.102 41.7987 511.727C42.4047 511.348 43.113 511.159 43.9237 511.159C44.738 511.159 45.4464 511.348 46.0487 511.727C46.6547 512.102 47.1244 512.629 47.4577 513.307C47.7949 513.981 47.9634 514.769 47.9634 515.67C47.9634 516.564 47.7949 517.35 47.4577 518.028C47.1244 518.703 46.6547 519.229 46.0487 519.608C45.4464 519.987 44.738 520.176 43.9237 520.176ZM43.9237 518.722C44.4729 518.722 44.9218 518.583 45.2702 518.307C45.6225 518.027 45.882 517.655 46.0487 517.193C46.2153 516.731 46.2987 516.223 46.2987 515.67C46.2987 515.114 46.2153 514.604 46.0487 514.142C45.882 513.676 45.6225 513.303 45.2702 513.023C44.9218 512.742 44.4729 512.602 43.9237 512.602C43.3782 512.602 42.9293 512.742 42.5771 513.023C42.2248 513.303 41.9653 513.676 41.7987 514.142C41.632 514.604 41.5487 515.114 41.5487 515.67C41.5487 516.223 41.632 516.731 41.7987 517.193C41.9653 517.655 42.2248 518.027 42.5771 518.307C42.9293 518.583 43.3782 518.722 43.9237 518.722ZM49.0562 520L49.0505 518.528H49.363C49.6055 518.528 49.8081 518.477 49.971 518.375C50.1377 518.269 50.274 518.091 50.3801 517.841C50.4861 517.591 50.5676 517.246 50.6244 516.807C50.6812 516.364 50.7229 515.807 50.7494 515.136L50.9028 511.273H56.9937V520H55.3289V512.739H52.4767L52.3403 515.705C52.3062 516.424 52.2323 517.053 52.1187 517.591C52.0089 518.129 51.8479 518.578 51.6358 518.938C51.4236 519.294 51.1509 519.561 50.8176 519.739C50.4842 519.913 50.0789 520 49.6017 520H49.0562ZM60.497 508.364V509.455C60.497 509.777 60.4364 510.116 60.3152 510.472C60.1978 510.824 60.0311 511.163 59.8152 511.489C59.5993 511.814 59.3455 512.095 59.0538 512.33L58.2129 511.727C58.4364 511.402 58.6296 511.055 58.7925 510.688C58.9591 510.32 59.0425 509.915 59.0425 509.472V508.364H60.497ZM65.9908 520V518.727L69.9283 514.648C70.3488 514.205 70.6954 513.816 70.9681 513.483C71.2446 513.146 71.4511 512.826 71.5874 512.523C71.7238 512.22 71.792 511.898 71.792 511.557C71.792 511.17 71.7011 510.837 71.5192 510.557C71.3374 510.273 71.0893 510.055 70.7749 509.903C70.4605 509.748 70.1064 509.67 69.7124 509.67C69.2957 509.67 68.9321 509.756 68.6215 509.926C68.3109 510.097 68.0723 510.337 67.9056 510.648C67.7389 510.958 67.6556 511.322 67.6556 511.739H65.9795C65.9795 511.03 66.1423 510.411 66.4681 509.881C66.7939 509.35 67.2408 508.939 67.809 508.648C68.3772 508.352 69.023 508.205 69.7465 508.205C70.4776 508.205 71.1215 508.35 71.6783 508.642C72.2389 508.93 72.6764 509.324 72.9908 509.824C73.3052 510.32 73.4624 510.881 73.4624 511.506C73.4624 511.938 73.381 512.36 73.2181 512.773C73.059 513.186 72.7806 513.646 72.3829 514.153C71.9851 514.657 71.4321 515.269 70.7238 515.989L68.4113 518.409V518.494H73.6499V520H65.9908ZM79.6319 520.193C78.7342 520.189 77.9671 519.953 77.3308 519.483C76.6944 519.013 76.2077 518.33 75.8705 517.432C75.5334 516.534 75.3649 515.453 75.3649 514.188C75.3649 512.926 75.5334 511.848 75.8705 510.955C76.2114 510.061 76.7001 509.379 77.3364 508.909C77.9766 508.439 78.7418 508.205 79.6319 508.205C80.5221 508.205 81.2853 508.441 81.9217 508.915C82.558 509.384 83.0448 510.066 83.3819 510.96C83.7228 511.85 83.8933 512.926 83.8933 514.188C83.8933 515.456 83.7247 516.54 83.3876 517.438C83.0505 518.331 82.5637 519.015 81.9274 519.489C81.291 519.958 80.5258 520.193 79.6319 520.193ZM79.6319 518.676C80.4198 518.676 81.0353 518.292 81.4785 517.523C81.9255 516.754 82.1489 515.642 82.1489 514.188C82.1489 513.222 82.0467 512.405 81.8421 511.739C81.6414 511.068 81.3516 510.561 80.9728 510.216C80.5978 509.867 80.1508 509.693 79.6319 509.693C78.8478 509.693 78.2323 510.08 77.7853 510.852C77.3383 511.625 77.113 512.737 77.1092 514.188C77.1092 515.157 77.2096 515.977 77.4103 516.648C77.6149 517.314 77.9046 517.82 78.2796 518.165C78.6546 518.506 79.1054 518.676 79.6319 518.676ZM85.6863 520V518.727L89.6238 514.648C90.0443 514.205 90.3909 513.816 90.6636 513.483C90.9401 513.146 91.1466 512.826 91.2829 512.523C91.4193 512.22 91.4875 511.898 91.4875 511.557C91.4875 511.17 91.3966 510.837 91.2147 510.557C91.0329 510.273 90.7848 510.055 90.4704 509.903C90.156 509.748 89.8019 509.67 89.4079 509.67C88.9913 509.67 88.6276 509.756 88.317 509.926C88.0064 510.097 87.7678 510.337 87.6011 510.648C87.4344 510.958 87.3511 511.322 87.3511 511.739H85.675C85.675 511.03 85.8379 510.411 86.1636 509.881C86.4894 509.35 86.9363 508.939 87.5045 508.648C88.0727 508.352 88.7185 508.205 89.442 508.205C90.1731 508.205 90.817 508.35 91.3738 508.642C91.9344 508.93 92.3719 509.324 92.6863 509.824C93.0007 510.32 93.1579 510.881 93.1579 511.506C93.1579 511.938 93.0765 512.36 92.9136 512.773C92.7545 513.186 92.4761 513.646 92.0784 514.153C91.6807 514.657 91.1276 515.269 90.4193 515.989L88.1068 518.409V518.494H93.3454V520H85.6863ZM94.782 517.727V516.307L99.8104 508.364H100.93V510.455H100.22L96.6229 516.148V516.239H103.515V517.727H94.782ZM100.299 520V517.295L100.31 516.648V508.364H101.975V520H100.299Z" fill="#CFCFCF"/>
<path d="M395.534 520H393.671L397.858 508.364H399.887L404.074 520H402.211L398.921 510.477H398.83L395.534 520ZM395.847 515.443H401.892V516.92H395.847V515.443ZM405.396 520V511.273H409.015C410 511.273 410.78 511.483 411.356 511.903C411.932 512.32 412.22 512.886 412.22 513.602C412.22 514.114 412.057 514.519 411.731 514.818C411.405 515.117 410.973 515.318 410.435 515.42C410.826 515.466 411.184 515.583 411.509 515.773C411.835 515.958 412.096 516.208 412.293 516.523C412.494 516.837 412.595 517.212 412.595 517.648C412.595 518.11 412.475 518.519 412.237 518.875C411.998 519.227 411.651 519.504 411.197 519.705C410.746 519.902 410.202 520 409.566 520H405.396ZM406.992 518.58H409.566C409.987 518.58 410.316 518.479 410.555 518.278C410.793 518.078 410.913 517.805 410.913 517.46C410.913 517.055 410.793 516.737 410.555 516.506C410.316 516.271 409.987 516.153 409.566 516.153H406.992V518.58ZM406.992 514.909H409.032C409.35 514.909 409.623 514.864 409.85 514.773C410.081 514.682 410.257 514.553 410.379 514.386C410.504 514.216 410.566 514.015 410.566 513.784C410.566 513.447 410.428 513.184 410.151 512.994C409.875 512.805 409.496 512.71 409.015 512.71H406.992V514.909ZM419.815 511.273V512.739H415.912V520H414.236V511.273H419.815ZM422.848 508.364V509.455C422.848 509.777 422.788 510.116 422.666 510.472C422.549 510.824 422.382 511.163 422.166 511.489C421.951 511.814 421.697 512.095 421.405 512.33L420.564 511.727C420.788 511.402 420.981 511.055 421.144 510.688C421.31 510.32 421.394 509.915 421.394 509.472V508.364H422.848ZM428.342 520V518.727L432.28 514.648C432.7 514.205 433.047 513.816 433.319 513.483C433.596 513.146 433.802 512.826 433.939 512.523C434.075 512.22 434.143 511.898 434.143 511.557C434.143 511.17 434.052 510.837 433.87 510.557C433.689 510.273 433.441 510.055 433.126 509.903C432.812 509.748 432.458 509.67 432.064 509.67C431.647 509.67 431.283 509.756 430.973 509.926C430.662 510.097 430.424 510.337 430.257 510.648C430.09 510.958 430.007 511.322 430.007 511.739H428.331C428.331 511.03 428.494 510.411 428.819 509.881C429.145 509.35 429.592 508.939 430.16 508.648C430.728 508.352 431.374 508.205 432.098 508.205C432.829 508.205 433.473 508.35 434.03 508.642C434.59 508.93 435.028 509.324 435.342 509.824C435.656 510.32 435.814 510.881 435.814 511.506C435.814 511.938 435.732 512.36 435.569 512.773C435.41 513.186 435.132 513.646 434.734 514.153C434.336 514.657 433.783 515.269 433.075 515.989L430.763 518.409V518.494H436.001V520H428.342ZM441.983 520.193C441.085 520.189 440.318 519.953 439.682 519.483C439.046 519.013 438.559 518.33 438.222 517.432C437.885 516.534 437.716 515.453 437.716 514.188C437.716 512.926 437.885 511.848 438.222 510.955C438.563 510.061 439.051 509.379 439.688 508.909C440.328 508.439 441.093 508.205 441.983 508.205C442.873 508.205 443.637 508.441 444.273 508.915C444.909 509.384 445.396 510.066 445.733 510.96C446.074 511.85 446.245 512.926 446.245 514.188C446.245 515.456 446.076 516.54 445.739 517.438C445.402 518.331 444.915 519.015 444.279 519.489C443.642 519.958 442.877 520.193 441.983 520.193ZM441.983 518.676C442.771 518.676 443.387 518.292 443.83 517.523C444.277 516.754 444.5 515.642 444.5 514.188C444.5 513.222 444.398 512.405 444.193 511.739C443.993 511.068 443.703 510.561 443.324 510.216C442.949 509.867 442.502 509.693 441.983 509.693C441.199 509.693 440.584 510.08 440.137 510.852C439.69 511.625 439.464 512.737 439.46 514.188C439.46 515.157 439.561 515.977 439.762 516.648C439.966 517.314 440.256 517.82 440.631 518.165C441.006 518.506 441.457 518.676 441.983 518.676ZM448.038 520V518.727L451.975 514.648C452.396 514.205 452.742 513.816 453.015 513.483C453.291 513.146 453.498 512.826 453.634 512.523C453.771 512.22 453.839 511.898 453.839 511.557C453.839 511.17 453.748 510.837 453.566 510.557C453.384 510.273 453.136 510.055 452.822 509.903C452.507 509.748 452.153 509.67 451.759 509.67C451.343 509.67 450.979 509.756 450.668 509.926C450.358 510.097 450.119 510.337 449.952 510.648C449.786 510.958 449.702 511.322 449.702 511.739H448.026C448.026 511.03 448.189 510.411 448.515 509.881C448.841 509.35 449.288 508.939 449.856 508.648C450.424 508.352 451.07 508.205 451.793 508.205C452.524 508.205 453.168 508.35 453.725 508.642C454.286 508.93 454.723 509.324 455.038 509.824C455.352 510.32 455.509 510.881 455.509 511.506C455.509 511.938 455.428 512.36 455.265 512.773C455.106 513.186 454.827 513.646 454.43 514.153C454.032 514.657 453.479 515.269 452.771 515.989L450.458 518.409V518.494H455.697V520H448.038ZM457.133 517.727V516.307L462.162 508.364H463.281V510.455H462.571L458.974 516.148V516.239H465.866V517.727H457.133ZM462.65 520V517.295L462.662 516.648V508.364H464.326V520H462.65Z" fill="#CFCFCF"/>
<path d="M771.599 512.148H769.826C769.758 511.769 769.631 511.436 769.445 511.148C769.26 510.86 769.032 510.616 768.763 510.415C768.494 510.214 768.193 510.062 767.86 509.96C767.53 509.858 767.18 509.807 766.809 509.807C766.138 509.807 765.538 509.975 765.008 510.312C764.481 510.65 764.065 511.144 763.758 511.795C763.455 512.447 763.303 513.242 763.303 514.182C763.303 515.129 763.455 515.928 763.758 516.58C764.065 517.231 764.483 517.723 765.013 518.057C765.544 518.39 766.14 518.557 766.803 518.557C767.171 518.557 767.519 518.508 767.849 518.409C768.182 518.307 768.483 518.157 768.752 517.96C769.021 517.763 769.248 517.523 769.434 517.239C769.623 516.951 769.754 516.621 769.826 516.25L771.599 516.256C771.504 516.828 771.32 517.354 771.047 517.835C770.779 518.312 770.432 518.725 770.008 519.074C769.587 519.419 769.106 519.686 768.565 519.875C768.023 520.064 767.432 520.159 766.792 520.159C765.784 520.159 764.886 519.92 764.099 519.443C763.311 518.962 762.69 518.275 762.235 517.381C761.784 516.487 761.559 515.42 761.559 514.182C761.559 512.939 761.786 511.873 762.241 510.983C762.695 510.089 763.316 509.403 764.104 508.926C764.892 508.445 765.788 508.205 766.792 508.205C767.409 508.205 767.985 508.294 768.519 508.472C769.057 508.646 769.54 508.903 769.968 509.244C770.396 509.581 770.75 509.994 771.03 510.483C771.311 510.968 771.5 511.523 771.599 512.148ZM777.102 520.176C776.242 520.176 775.502 519.992 774.88 519.625C774.263 519.254 773.786 518.733 773.449 518.062C773.115 517.388 772.949 516.598 772.949 515.693C772.949 514.799 773.115 514.011 773.449 513.33C773.786 512.648 774.255 512.116 774.858 511.733C775.464 511.35 776.172 511.159 776.983 511.159C777.475 511.159 777.952 511.241 778.414 511.403C778.877 511.566 779.291 511.822 779.659 512.17C780.026 512.519 780.316 512.972 780.528 513.528C780.74 514.081 780.846 514.754 780.846 515.545V516.148H773.909V514.875H779.181C779.181 514.428 779.091 514.032 778.909 513.688C778.727 513.339 778.471 513.064 778.142 512.864C777.816 512.663 777.433 512.562 776.994 512.562C776.517 512.562 776.1 512.68 775.744 512.915C775.392 513.146 775.119 513.449 774.926 513.824C774.736 514.195 774.642 514.598 774.642 515.034V516.028C774.642 516.612 774.744 517.108 774.949 517.517C775.157 517.926 775.447 518.239 775.818 518.455C776.189 518.667 776.623 518.773 777.119 518.773C777.441 518.773 777.734 518.727 778 518.636C778.265 518.542 778.494 518.402 778.687 518.216C778.88 518.03 779.028 517.801 779.13 517.528L780.738 517.818C780.609 518.292 780.378 518.706 780.045 519.062C779.716 519.415 779.301 519.689 778.801 519.886C778.305 520.08 777.738 520.176 777.102 520.176ZM788.423 514.903V516.375H783.696V514.903H788.423ZM784.173 511.273V520H782.509V511.273H784.173ZM789.611 511.273V520H787.952V511.273H789.611ZM793.121 508.364V509.455C793.121 509.777 793.061 510.116 792.939 510.472C792.822 510.824 792.655 511.163 792.439 511.489C792.224 511.814 791.97 512.095 791.678 512.33L790.837 511.727C791.061 511.402 791.254 511.055 791.417 510.688C791.583 510.32 791.667 509.915 791.667 509.472V508.364H793.121ZM798.615 520V518.727L802.553 514.648C802.973 514.205 803.32 513.816 803.592 513.483C803.869 513.146 804.075 512.826 804.212 512.523C804.348 512.22 804.416 511.898 804.416 511.557C804.416 511.17 804.325 510.837 804.144 510.557C803.962 510.273 803.714 510.055 803.399 509.903C803.085 509.748 802.731 509.67 802.337 509.67C801.92 509.67 801.556 509.756 801.246 509.926C800.935 510.097 800.697 510.337 800.53 510.648C800.363 510.958 800.28 511.322 800.28 511.739H798.604C798.604 511.03 798.767 510.411 799.092 509.881C799.418 509.35 799.865 508.939 800.433 508.648C801.001 508.352 801.647 508.205 802.371 508.205C803.102 508.205 803.746 508.35 804.303 508.642C804.863 508.93 805.301 509.324 805.615 509.824C805.93 510.32 806.087 510.881 806.087 511.506C806.087 511.938 806.005 512.36 805.842 512.773C805.683 513.186 805.405 513.646 805.007 514.153C804.609 514.657 804.056 515.269 803.348 515.989L801.036 518.409V518.494H806.274V520H798.615ZM812.256 520.193C811.358 520.189 810.591 519.953 809.955 519.483C809.319 519.013 808.832 518.33 808.495 517.432C808.158 516.534 807.989 515.453 807.989 514.188C807.989 512.926 808.158 511.848 808.495 510.955C808.836 510.061 809.324 509.379 809.961 508.909C810.601 508.439 811.366 508.205 812.256 508.205C813.146 508.205 813.91 508.441 814.546 508.915C815.182 509.384 815.669 510.066 816.006 510.96C816.347 511.85 816.518 512.926 816.518 514.188C816.518 515.456 816.349 516.54 816.012 517.438C815.675 518.331 815.188 519.015 814.552 519.489C813.915 519.958 813.15 520.193 812.256 520.193ZM812.256 518.676C813.044 518.676 813.66 518.292 814.103 517.523C814.55 516.754 814.773 515.642 814.773 514.188C814.773 513.222 814.671 512.405 814.466 511.739C814.266 511.068 813.976 510.561 813.597 510.216C813.222 509.867 812.775 509.693 812.256 509.693C811.472 509.693 810.857 510.08 810.41 510.852C809.963 511.625 809.737 512.737 809.733 514.188C809.733 515.157 809.834 515.977 810.035 516.648C810.239 517.314 810.529 517.82 810.904 518.165C811.279 518.506 811.73 518.676 812.256 518.676ZM818.311 520V518.727L822.248 514.648C822.669 514.205 823.015 513.816 823.288 513.483C823.564 513.146 823.771 512.826 823.907 512.523C824.044 512.22 824.112 511.898 824.112 511.557C824.112 511.17 824.021 510.837 823.839 510.557C823.657 510.273 823.409 510.055 823.095 509.903C822.78 509.748 822.426 509.67 822.032 509.67C821.616 509.67 821.252 509.756 820.941 509.926C820.631 510.097 820.392 510.337 820.225 510.648C820.059 510.958 819.975 511.322 819.975 511.739H818.299C818.299 511.03 818.462 510.411 818.788 509.881C819.114 509.35 819.561 508.939 820.129 508.648C820.697 508.352 821.343 508.205 822.066 508.205C822.797 508.205 823.441 508.35 823.998 508.642C824.559 508.93 824.996 509.324 825.311 509.824C825.625 510.32 825.782 510.881 825.782 511.506C825.782 511.938 825.701 512.36 825.538 512.773C825.379 513.186 825.1 513.646 824.703 514.153C824.305 514.657 823.752 515.269 823.044 515.989L820.731 518.409V518.494H825.97V520H818.311ZM827.406 517.727V516.307L832.435 508.364H833.554V510.455H832.844L829.247 516.148V516.239H836.139V517.727H827.406ZM832.923 520V517.295L832.935 516.648V508.364H834.599V520H832.923Z" fill="#CFCFCF"/>
<path d="M31.3304 108H27.9375C24.6583 108 22 110.658 22 113.938V117.33C22 120.61 24.6583 123.268 27.9375 123.268H31.3304C34.6096 123.268 37.2679 120.61 37.2679 117.33V113.938C37.2679 110.658 34.6096 108 31.3304 108Z" fill="#04B34A"/>
<path opacity="0.5" d="M50.6273 115.251V116.46H44.0537V115.251H50.6273ZM62.047 114.182H60.5904C60.5344 113.87 60.4301 113.597 60.2776 113.36C60.1251 113.123 59.9383 112.923 59.7173 112.758C59.4963 112.593 59.2489 112.468 58.975 112.384C58.7042 112.3 58.4163 112.258 58.1113 112.258C57.5603 112.258 57.067 112.397 56.6312 112.674C56.1986 112.951 55.8562 113.357 55.6041 113.892C55.3551 114.428 55.2306 115.081 55.2306 115.853C55.2306 116.631 55.3551 117.288 55.6041 117.823C55.8562 118.359 56.2002 118.763 56.6359 119.037C57.0717 119.311 57.5619 119.448 58.1066 119.448C58.4085 119.448 58.6949 119.408 58.9656 119.327C59.2395 119.243 59.487 119.12 59.708 118.958C59.929 118.796 60.1157 118.598 60.2682 118.365C60.4239 118.128 60.5312 117.858 60.5904 117.553L62.047 117.557C61.9692 118.027 61.8183 118.46 61.5942 118.855C61.3732 119.247 61.0884 119.587 60.7398 119.873C60.3943 120.156 59.999 120.376 59.5539 120.531C59.1088 120.687 58.6233 120.765 58.0972 120.765C57.2693 120.765 56.5316 120.569 55.8842 120.176C55.2368 119.781 54.7264 119.216 54.3529 118.482C53.9825 117.747 53.7973 116.871 53.7973 115.853C53.7973 114.832 53.984 113.956 54.3575 113.225C54.731 112.49 55.2415 111.927 55.8889 111.534C56.5363 111.139 57.2724 110.942 58.0972 110.942C58.6046 110.942 59.0777 111.015 59.5166 111.161C59.9585 111.304 60.3554 111.516 60.7071 111.796C61.0588 112.073 61.3498 112.412 61.5802 112.814C61.8105 113.212 61.9661 113.668 62.047 114.182ZM67.4569 118.678L70.6176 113.463H72.121V120.634H70.753V115.414L67.6063 120.634H66.0889V113.463H67.4569V118.678ZM78.3322 116.446V117.655H74.4477V116.446H78.3322ZM74.8399 113.463V120.634H73.472V113.463H74.8399ZM79.3079 113.463V120.634H77.9447V113.463H79.3079ZM79.7602 114.667V113.463H85.8109V114.667H83.4719V120.634H82.1086V114.667H79.7602ZM89.5185 120.779C88.8119 120.779 88.2034 120.628 87.693 120.326C87.1856 120.021 86.7934 119.593 86.5164 119.042C86.2425 118.488 86.1056 117.839 86.1056 117.095C86.1056 116.36 86.2425 115.713 86.5164 115.153C86.7934 114.593 87.1794 114.155 87.6743 113.841C88.1723 113.526 88.7543 113.369 89.4204 113.369C89.825 113.369 90.2172 113.436 90.5969 113.57C90.9767 113.704 91.3175 113.914 91.6194 114.2C91.9213 114.487 92.1594 114.859 92.3337 115.316C92.508 115.771 92.5952 116.323 92.5952 116.974V117.469H86.8946V116.423H91.2272C91.2272 116.055 91.1525 115.73 91.0031 115.447C90.8537 115.161 90.6436 114.935 90.3728 114.77C90.1052 114.605 89.7908 114.522 89.4298 114.522C89.0376 114.522 88.6952 114.619 88.4026 114.812C88.1132 115.002 87.889 115.251 87.7303 115.559C87.5747 115.864 87.4969 116.195 87.4969 116.553V117.37C87.4969 117.85 87.5809 118.258 87.749 118.594C87.9202 118.93 88.1583 119.187 88.4633 119.364C88.7683 119.538 89.1247 119.625 89.5325 119.625C89.797 119.625 90.0382 119.588 90.2561 119.513C90.474 119.436 90.6623 119.32 90.8211 119.168C90.9798 119.015 91.1012 118.827 91.1852 118.603L92.5065 118.841C92.4007 119.23 92.2108 119.571 91.9369 119.864C91.6661 120.153 91.3253 120.379 90.9144 120.541C90.5067 120.699 90.0414 120.779 89.5185 120.779ZM98.2029 113.463V114.667H94.9955V120.634H93.6182V113.463H98.2029ZM99.1524 123.323V113.463H100.516V114.625H100.632C100.713 114.476 100.83 114.303 100.982 114.107C101.135 113.911 101.347 113.74 101.617 113.593C101.888 113.444 102.246 113.369 102.691 113.369C103.27 113.369 103.787 113.516 104.241 113.808C104.696 114.101 105.052 114.522 105.31 115.073C105.572 115.624 105.703 116.287 105.703 117.062C105.703 117.837 105.573 118.502 105.315 119.056C105.057 119.607 104.702 120.032 104.251 120.33C103.799 120.626 103.284 120.774 102.705 120.774C102.269 120.774 101.913 120.701 101.636 120.555C101.362 120.408 101.147 120.237 100.992 120.041C100.836 119.845 100.716 119.671 100.632 119.518H100.548V123.323H99.1524ZM100.52 117.048C100.52 117.553 100.593 117.995 100.74 118.374C100.886 118.754 101.098 119.051 101.375 119.266C101.652 119.478 101.991 119.583 102.392 119.583C102.809 119.583 103.158 119.473 103.438 119.252C103.718 119.028 103.93 118.724 104.073 118.342C104.219 117.959 104.293 117.528 104.293 117.048C104.293 116.575 104.221 116.15 104.078 115.774C103.938 115.397 103.726 115.1 103.443 114.882C103.163 114.664 102.813 114.555 102.392 114.555C101.988 114.555 101.645 114.659 101.365 114.868C101.088 115.077 100.878 115.368 100.735 115.741C100.592 116.115 100.52 116.55 100.52 117.048ZM108.828 120.793C108.373 120.793 107.962 120.709 107.595 120.541C107.228 120.369 106.937 120.122 106.722 119.798C106.51 119.475 106.405 119.078 106.405 118.608C106.405 118.203 106.482 117.87 106.638 117.609C106.794 117.347 107.004 117.14 107.268 116.988C107.533 116.835 107.829 116.72 108.155 116.642C108.482 116.564 108.815 116.505 109.155 116.465C109.584 116.415 109.933 116.374 110.2 116.343C110.468 116.309 110.663 116.255 110.784 116.18C110.905 116.105 110.966 115.984 110.966 115.816V115.783C110.966 115.375 110.851 115.059 110.621 114.835C110.393 114.611 110.054 114.499 109.603 114.499C109.133 114.499 108.762 114.603 108.492 114.812C108.224 115.017 108.039 115.246 107.936 115.498L106.624 115.199C106.78 114.764 107.007 114.412 107.306 114.144C107.608 113.874 107.955 113.677 108.347 113.556C108.739 113.432 109.151 113.369 109.584 113.369C109.87 113.369 110.174 113.404 110.494 113.472C110.818 113.537 111.12 113.659 111.4 113.836C111.683 114.014 111.915 114.267 112.096 114.597C112.276 114.924 112.367 115.349 112.367 115.872V120.634H111.003V119.653H110.947C110.857 119.834 110.722 120.011 110.541 120.186C110.361 120.36 110.129 120.505 109.845 120.62C109.562 120.735 109.223 120.793 108.828 120.793ZM109.131 119.672C109.517 119.672 109.847 119.596 110.121 119.443C110.398 119.291 110.608 119.092 110.751 118.846C110.898 118.597 110.971 118.331 110.971 118.047V117.123C110.921 117.173 110.824 117.219 110.681 117.263C110.541 117.304 110.381 117.339 110.2 117.37C110.02 117.398 109.844 117.425 109.673 117.45C109.502 117.472 109.358 117.49 109.243 117.506C108.972 117.54 108.725 117.598 108.501 117.679C108.28 117.76 108.102 117.876 107.969 118.029C107.838 118.178 107.773 118.377 107.773 118.626C107.773 118.972 107.9 119.233 108.155 119.411C108.411 119.585 108.736 119.672 109.131 119.672ZM119.55 113.463V119.49H120.601V122.945H119.223V120.634H113.7V113.463H115.068V119.429H118.187V113.463H119.55ZM122.99 118.678L126.151 113.463H127.654V120.634H126.287V115.414L123.14 120.634H121.622V113.463H122.99V118.678ZM132.096 120.779C131.39 120.779 130.781 120.628 130.271 120.326C129.763 120.021 129.371 119.593 129.094 119.042C128.82 118.488 128.683 117.839 128.683 117.095C128.683 116.36 128.82 115.713 129.094 115.153C129.371 114.593 129.757 114.155 130.252 113.841C130.75 113.526 131.332 113.369 131.998 113.369C132.403 113.369 132.795 113.436 133.175 113.57C133.554 113.704 133.895 113.914 134.197 114.2C134.499 114.487 134.737 114.859 134.911 115.316C135.086 115.771 135.173 116.323 135.173 116.974V117.469H129.472V116.423H133.805C133.805 116.055 133.73 115.73 133.581 115.447C133.431 115.161 133.221 114.935 132.951 114.77C132.683 114.605 132.369 114.522 132.007 114.522C131.615 114.522 131.273 114.619 130.98 114.812C130.691 115.002 130.467 115.251 130.308 115.559C130.152 115.864 130.075 116.195 130.075 116.553V117.37C130.075 117.85 130.159 118.258 130.327 118.594C130.498 118.93 130.736 119.187 131.041 119.364C131.346 119.538 131.702 119.625 132.11 119.625C132.375 119.625 132.616 119.588 132.834 119.513C133.052 119.436 133.24 119.32 133.399 119.168C133.557 119.015 133.679 118.827 133.763 118.603L135.084 118.841C134.978 119.23 134.788 119.571 134.515 119.864C134.244 120.153 133.903 120.379 133.492 120.541C133.084 120.699 132.619 120.779 132.096 120.779ZM137.564 118.678L140.725 113.463H142.228V120.634H140.86V115.414L137.713 120.634H136.196V113.463H137.564V118.678ZM140.127 111.035H141.276C141.276 111.561 141.089 111.989 140.715 112.319C140.345 112.646 139.844 112.809 139.212 112.809C138.583 112.809 138.084 112.646 137.713 112.319C137.343 111.989 137.158 111.561 137.158 111.035H138.301C138.301 111.268 138.37 111.475 138.507 111.656C138.644 111.833 138.879 111.922 139.212 111.922C139.539 111.922 139.772 111.833 139.912 111.656C140.055 111.478 140.127 111.271 140.127 111.035Z" fill="#092A39"/>
<path d="M179.384 108H175.991C172.712 108 170.054 110.658 170.054 113.938V117.33C170.054 120.61 172.712 123.268 175.991 123.268H179.384C182.663 123.268 185.322 120.61 185.322 117.33V113.938C185.322 110.658 182.663 108 179.384 108Z" fill="#CECECE"/>
<path opacity="0.5" d="M198.681 115.251V116.46H192.107V115.251H198.681ZM202.159 120.634V111.072H208.121V112.314H203.602V114.929H205.74C206.45 114.929 207.052 115.044 207.547 115.274C208.045 115.504 208.424 115.83 208.686 116.25C208.95 116.67 209.083 117.165 209.083 117.735C209.083 118.304 208.95 118.807 208.686 119.243C208.424 119.678 208.045 120.019 207.547 120.265C207.052 120.511 206.45 120.634 205.74 120.634H202.159ZM203.602 119.42H205.74C206.151 119.42 206.498 119.339 206.781 119.177C207.067 119.015 207.284 118.805 207.43 118.547C207.579 118.289 207.654 118.012 207.654 117.716C207.654 117.286 207.489 116.918 207.159 116.609C206.829 116.298 206.356 116.143 205.74 116.143H203.602V119.42ZM213.24 120.779C212.533 120.779 211.925 120.628 211.414 120.326C210.907 120.021 210.515 119.593 210.238 119.042C209.964 118.488 209.827 117.839 209.827 117.095C209.827 116.36 209.964 115.713 210.238 115.153C210.515 114.593 210.901 114.155 211.395 113.841C211.893 113.526 212.476 113.369 213.142 113.369C213.546 113.369 213.938 113.436 214.318 113.57C214.698 113.704 215.039 113.914 215.341 114.2C215.643 114.487 215.881 114.859 216.055 115.316C216.229 115.771 216.316 116.323 216.316 116.974V117.469H210.616V116.423H214.948C214.948 116.055 214.874 115.73 214.724 115.447C214.575 115.161 214.365 114.935 214.094 114.77C213.826 114.605 213.512 114.522 213.151 114.522C212.759 114.522 212.416 114.619 212.124 114.812C211.834 115.002 211.61 115.251 211.452 115.559C211.296 115.864 211.218 116.195 211.218 116.553V117.37C211.218 117.85 211.302 118.258 211.47 118.594C211.641 118.93 211.879 119.187 212.185 119.364C212.49 119.538 212.846 119.625 213.254 119.625C213.518 119.625 213.759 119.588 213.977 119.513C214.195 119.436 214.384 119.32 214.542 119.168C214.701 119.015 214.822 118.827 214.906 118.603L216.228 118.841C216.122 119.23 215.932 119.571 215.658 119.864C215.387 120.153 215.046 120.379 214.636 120.541C214.228 120.699 213.763 120.779 213.24 120.779ZM216.915 118.738H218.343C218.362 119.031 218.494 119.257 218.74 119.415C218.989 119.574 219.311 119.653 219.706 119.653C220.108 119.653 220.45 119.568 220.734 119.397C221.017 119.222 221.158 118.953 221.158 118.589C221.158 118.371 221.104 118.181 220.995 118.019C220.889 117.854 220.738 117.727 220.542 117.637C220.349 117.546 220.12 117.501 219.856 117.501H218.689V116.404H219.856C220.251 116.404 220.547 116.314 220.743 116.133C220.939 115.953 221.037 115.727 221.037 115.456C221.037 115.164 220.931 114.929 220.72 114.751C220.511 114.571 220.22 114.48 219.847 114.48C219.467 114.48 219.151 114.566 218.899 114.737C218.647 114.905 218.514 115.123 218.502 115.391H217.092C217.101 114.989 217.223 114.638 217.456 114.336C217.693 114.031 218.01 113.794 218.409 113.626C218.81 113.455 219.266 113.369 219.776 113.369C220.309 113.369 220.769 113.455 221.158 113.626C221.548 113.797 221.848 114.034 222.06 114.336C222.274 114.638 222.382 114.985 222.382 115.377C222.382 115.772 222.263 116.096 222.027 116.348C221.793 116.597 221.488 116.776 221.112 116.885V116.96C221.389 116.978 221.635 117.062 221.849 117.212C222.064 117.361 222.232 117.559 222.354 117.805C222.475 118.051 222.536 118.329 222.536 118.64C222.536 119.079 222.414 119.459 222.172 119.78C221.932 120.1 221.599 120.348 221.172 120.522C220.749 120.693 220.265 120.779 219.72 120.779C219.191 120.779 218.717 120.696 218.296 120.531C217.879 120.363 217.548 120.127 217.302 119.822C217.059 119.517 216.93 119.155 216.915 118.738ZM227.773 118.678L230.934 113.463H232.437V120.634H231.069V115.414L227.922 120.634H226.405V113.463H227.773V118.678ZM238.648 116.446V117.655H234.764V116.446H238.648ZM235.156 113.463V120.634H233.788V113.463H235.156ZM239.624 113.463V120.634H238.261V113.463H239.624ZM240.076 114.667V113.463H246.127V114.667H243.788V120.634H242.425V114.667H240.076ZM249.834 120.779C249.128 120.779 248.519 120.628 248.009 120.326C247.502 120.021 247.109 119.593 246.832 119.042C246.558 118.488 246.422 117.839 246.422 117.095C246.422 116.36 246.558 115.713 246.832 115.153C247.109 114.593 247.495 114.155 247.99 113.841C248.488 113.526 249.07 113.369 249.736 113.369C250.141 113.369 250.533 113.436 250.913 113.57C251.293 113.704 251.633 113.914 251.935 114.2C252.237 114.487 252.475 114.859 252.65 115.316C252.824 115.771 252.911 116.323 252.911 116.974V117.469H247.211V116.423H251.543C251.543 116.055 251.468 115.73 251.319 115.447C251.17 115.161 250.96 114.935 250.689 114.77C250.421 114.605 250.107 114.522 249.746 114.522C249.354 114.522 249.011 114.619 248.719 114.812C248.429 115.002 248.205 115.251 248.046 115.559C247.891 115.864 247.813 116.195 247.813 116.553V117.37C247.813 117.85 247.897 118.258 248.065 118.594C248.236 118.93 248.474 119.187 248.779 119.364C249.084 119.538 249.441 119.625 249.848 119.625C250.113 119.625 250.354 119.588 250.572 119.513C250.79 119.436 250.978 119.32 251.137 119.168C251.296 119.015 251.417 118.827 251.501 118.603L252.822 118.841C252.717 119.23 252.527 119.571 252.253 119.864C251.982 120.153 251.641 120.379 251.23 120.541C250.823 120.699 250.357 120.779 249.834 120.779ZM258.519 113.463V114.667H255.311V120.634H253.934V113.463H258.519ZM259.468 123.323V113.463H260.832V114.625H260.948C261.029 114.476 261.146 114.303 261.298 114.107C261.451 113.911 261.663 113.74 261.933 113.593C262.204 113.444 262.562 113.369 263.007 113.369C263.586 113.369 264.103 113.516 264.557 113.808C265.012 114.101 265.368 114.522 265.626 115.073C265.888 115.624 266.019 116.287 266.019 117.062C266.019 117.837 265.889 118.502 265.631 119.056C265.373 119.607 265.018 120.032 264.567 120.33C264.115 120.626 263.6 120.774 263.021 120.774C262.586 120.774 262.229 120.701 261.952 120.555C261.678 120.408 261.463 120.237 261.308 120.041C261.152 119.845 261.032 119.671 260.948 119.518H260.864V123.323H259.468ZM260.836 117.048C260.836 117.553 260.909 117.995 261.056 118.374C261.202 118.754 261.414 119.051 261.691 119.266C261.968 119.478 262.307 119.583 262.708 119.583C263.126 119.583 263.474 119.473 263.754 119.252C264.034 119.028 264.246 118.724 264.389 118.342C264.536 117.959 264.609 117.528 264.609 117.048C264.609 116.575 264.537 116.15 264.394 115.774C264.254 115.397 264.042 115.1 263.759 114.882C263.479 114.664 263.129 114.555 262.708 114.555C262.304 114.555 261.961 114.659 261.681 114.868C261.404 115.077 261.194 115.368 261.051 115.741C260.908 116.115 260.836 116.55 260.836 117.048ZM269.144 120.793C268.689 120.793 268.278 120.709 267.911 120.541C267.544 120.369 267.253 120.122 267.038 119.798C266.826 119.475 266.721 119.078 266.721 118.608C266.721 118.203 266.798 117.87 266.954 117.609C267.11 117.347 267.32 117.14 267.584 116.988C267.849 116.835 268.145 116.72 268.471 116.642C268.798 116.564 269.131 116.505 269.471 116.465C269.9 116.415 270.249 116.374 270.516 116.343C270.784 116.309 270.979 116.255 271.1 116.18C271.221 116.105 271.282 115.984 271.282 115.816V115.783C271.282 115.375 271.167 115.059 270.937 114.835C270.709 114.611 270.37 114.499 269.919 114.499C269.449 114.499 269.078 114.603 268.808 114.812C268.54 115.017 268.355 115.246 268.252 115.498L266.94 115.199C267.096 114.764 267.323 114.412 267.622 114.144C267.924 113.874 268.271 113.677 268.663 113.556C269.055 113.432 269.467 113.369 269.9 113.369C270.186 113.369 270.49 113.404 270.81 113.472C271.134 113.537 271.436 113.659 271.716 113.836C271.999 114.014 272.231 114.267 272.412 114.597C272.592 114.924 272.683 115.349 272.683 115.872V120.634H271.319V119.653H271.263C271.173 119.834 271.038 120.011 270.857 120.186C270.677 120.36 270.445 120.505 270.162 120.62C269.878 120.735 269.539 120.793 269.144 120.793ZM269.447 119.672C269.833 119.672 270.163 119.596 270.437 119.443C270.714 119.291 270.924 119.092 271.067 118.846C271.214 118.597 271.287 118.331 271.287 118.047V117.123C271.237 117.173 271.14 117.219 270.997 117.263C270.857 117.304 270.697 117.339 270.516 117.37C270.336 117.398 270.16 117.425 269.989 117.45C269.818 117.472 269.674 117.49 269.559 117.506C269.288 117.54 269.041 117.598 268.817 117.679C268.596 117.76 268.419 117.876 268.285 118.029C268.154 118.178 268.089 118.377 268.089 118.626C268.089 118.972 268.216 119.233 268.471 119.411C268.727 119.585 269.052 119.672 269.447 119.672ZM279.866 113.463V119.49H280.917V122.945H279.539V120.634H274.016V113.463H275.384V119.429H278.503V113.463H279.866ZM283.306 118.678L286.467 113.463H287.971V120.634H286.603V115.414L283.456 120.634H281.938V113.463H283.306V118.678ZM290.689 118.678L293.85 113.463H295.354V120.634H293.986V115.414L290.839 120.634H289.321V113.463H290.689V118.678Z" fill="#092A39"/>
<path d="M40.1786 34.5H37.8007C37.6601 33.8161 37.414 33.2152 37.0625 32.6974C36.7173 32.1797 36.2954 31.745 35.7968 31.3935C35.3046 31.0355 34.7581 30.767 34.1573 30.5881C33.5564 30.4091 32.93 30.3196 32.278 30.3196C31.0891 30.3196 30.012 30.62 29.0468 31.2209C28.088 31.8217 27.3242 32.707 26.7553 33.8768C26.1928 35.0465 25.9115 36.4815 25.9115 38.1818C25.9115 39.8821 26.1928 41.3171 26.7553 42.4869C27.3242 43.6566 28.088 44.5419 29.0468 45.1428C30.012 45.7436 31.0891 46.044 32.278 46.044C32.93 46.044 33.5564 45.9545 34.1573 45.7756C34.7581 45.5966 35.3046 45.3313 35.7968 44.9798C36.2954 44.6218 36.7173 44.1839 37.0625 43.6662C37.414 43.142 37.6601 42.5412 37.8007 41.8636H40.1786C39.9996 42.8672 39.6736 43.7653 39.2006 44.5579C38.7276 45.3505 38.1394 46.0249 37.4363 46.581C36.7332 47.1307 35.9438 47.5494 35.0681 47.837C34.1988 48.1246 33.2688 48.2685 32.278 48.2685C30.6033 48.2685 29.1139 47.8594 27.81 47.0412C26.506 46.223 25.4801 45.0597 24.7322 43.5511C23.9843 42.0426 23.6104 40.2528 23.6104 38.1818C23.6104 36.1108 23.9843 34.321 24.7322 32.8125C25.4801 31.304 26.506 30.1406 27.81 29.3224C29.1139 28.5043 30.6033 28.0952 32.278 28.0952C33.2688 28.0952 34.1988 28.239 35.0681 28.5266C35.9438 28.8143 36.7332 29.2362 37.4363 29.7923C38.1394 30.342 38.7276 31.0131 39.2006 31.8058C39.6736 32.592 39.9996 33.4901 40.1786 34.5ZM43.0392 48V33.2727H45.302V39.6776H46.7977L52.0903 33.2727H55.0051L49.0605 40.3679L55.0818 48H52.167L47.3346 41.7869H45.302V48H43.0392ZM62.2426 48.3068C60.9131 48.3068 59.7465 47.9904 58.743 47.3576C57.7458 46.7248 56.966 45.8395 56.4035 44.7017C55.8474 43.5639 55.5693 42.2344 55.5693 40.7131C55.5693 39.179 55.8474 37.8398 56.4035 36.6957C56.966 35.5515 57.7458 34.663 58.743 34.0302C59.7465 33.3974 60.9131 33.081 62.2426 33.081C63.5722 33.081 64.7355 33.3974 65.7327 34.0302C66.7362 34.663 67.5161 35.5515 68.0722 36.6957C68.6347 37.8398 68.9158 39.179 68.9158 40.7131C68.9158 42.2344 68.6347 43.5639 68.0722 44.7017C67.5161 45.8395 66.7362 46.7248 65.7327 47.3576C64.7355 47.9904 63.5722 48.3068 62.2426 48.3068ZM62.2426 46.2741C63.2526 46.2741 64.0836 46.0153 64.7355 45.4975C65.3875 44.9798 65.8701 44.299 66.1833 43.4553C66.4965 42.6115 66.6532 41.6974 66.6532 40.7131C66.6532 39.7287 66.4965 38.8114 66.1833 37.9613C65.8701 37.1112 65.3875 36.424 64.7355 35.8999C64.0836 35.3757 63.2526 35.1136 62.2426 35.1136C61.2327 35.1136 60.4016 35.3757 59.7496 35.8999C59.0977 36.424 58.6151 37.1112 58.3018 37.9613C57.9886 38.8114 57.8321 39.7287 57.8321 40.7131C57.8321 41.6974 57.9886 42.6115 58.3018 43.4553C58.6151 44.299 59.0977 44.9798 59.7496 45.4975C60.4016 46.0153 61.2327 46.2741 62.2426 46.2741ZM71.6949 53.5227V33.2727H73.8811V35.6122H74.1496C74.3158 35.3565 74.5459 35.0305 74.8399 34.6342C75.1403 34.2315 75.5685 33.8736 76.1246 33.5604C76.6871 33.2408 77.4478 33.081 78.4066 33.081C79.6466 33.081 80.7398 33.391 81.6858 34.011C82.6318 34.631 83.3701 35.5099 83.9006 36.6477C84.4312 37.7855 84.6964 39.1278 84.6964 40.6747C84.6964 42.2344 84.4312 43.5863 83.9006 44.7305C83.3701 45.8683 82.635 46.7504 81.6954 47.3768C80.7558 47.9968 79.6722 48.3068 78.4449 48.3068C77.4989 48.3068 76.7416 48.1502 76.1727 47.837C75.6038 47.5174 75.1658 47.1562 74.859 46.7536C74.5522 46.3445 74.3158 46.0057 74.1496 45.7372H73.9577V53.5227H71.6949ZM73.9194 40.6364C73.9194 41.7486 74.0824 42.7298 74.4084 43.5799C74.7344 44.4237 75.2107 45.0852 75.8371 45.5646C76.4635 46.0376 77.2305 46.2741 78.1382 46.2741C79.0842 46.2741 79.8736 46.0249 80.5064 45.5263C81.1456 45.0213 81.625 44.3437 81.9446 43.4936C82.2706 42.6371 82.4336 41.6847 82.4336 40.6364C82.4336 39.6009 82.2738 38.6676 81.9542 37.8366C81.641 36.9993 81.1649 36.3377 80.5256 35.8519C79.8928 35.3597 79.097 35.1136 78.1382 35.1136C77.2178 35.1136 76.4442 35.3469 75.8178 35.8136C75.1914 36.2738 74.7184 36.9194 74.3988 37.7504C74.0792 38.5749 73.9194 39.5369 73.9194 40.6364ZM93.456 48.3068C92.1265 48.3068 90.96 47.9904 89.9565 47.3576C88.9593 46.7248 88.1795 45.8395 87.617 44.7017C87.0609 43.5639 86.7828 42.2344 86.7828 40.7131C86.7828 39.179 87.0609 37.8398 87.617 36.6957C88.1795 35.5515 88.9593 34.663 89.9565 34.0302C90.96 33.3974 92.1265 33.081 93.456 33.081C94.7856 33.081 95.949 33.3974 96.9462 34.0302C97.9497 34.663 98.7296 35.5515 99.2857 36.6957C99.8482 37.8398 100.13 39.179 100.13 40.7131C100.13 42.2344 99.8482 43.5639 99.2857 44.7017C98.7296 45.8395 97.9497 46.7248 96.9462 47.3576C95.949 47.9904 94.7856 48.3068 93.456 48.3068ZM93.456 46.2741C94.466 46.2741 95.297 46.0153 95.949 45.4975C96.601 44.9798 97.0836 44.299 97.3968 43.4553C97.71 42.6115 97.8665 41.6974 97.8665 40.7131C97.8665 39.7287 97.71 38.8114 97.3968 37.9613C97.0836 37.1112 96.601 36.424 95.949 35.8999C95.297 35.3757 94.466 35.1136 93.456 35.1136C92.4461 35.1136 91.6152 35.3757 90.9632 35.8999C90.3112 36.424 89.8286 37.1112 89.5154 37.9613C89.2022 38.8114 89.0455 39.7287 89.0455 40.7131C89.0455 41.6974 89.2022 42.6115 89.5154 43.4553C89.8286 44.299 90.3112 44.9798 90.9632 45.4975C91.6152 46.0153 92.4461 46.2741 93.456 46.2741ZM108.892 48.3068C107.511 48.3068 106.322 47.9808 105.325 47.3288C104.328 46.6768 103.561 45.7788 103.024 44.6346C102.487 43.4904 102.219 42.1832 102.219 40.7131C102.219 39.2173 102.493 37.8974 103.043 36.7532C103.599 35.6026 104.373 34.7045 105.363 34.0589C106.361 33.407 107.524 33.081 108.854 33.081C109.889 33.081 110.822 33.2727 111.653 33.6562C112.484 34.0398 113.165 34.5767 113.695 35.267C114.226 35.9574 114.555 36.7628 114.683 37.6832H112.42C112.248 37.0121 111.864 36.4176 111.27 35.8999C110.682 35.3757 109.889 35.1136 108.892 35.1136C108.01 35.1136 107.236 35.3437 106.572 35.804C105.913 36.2578 105.399 36.9002 105.028 37.7312C104.664 38.5558 104.481 39.5241 104.481 40.6364C104.481 41.7741 104.66 42.7649 105.018 43.6087C105.383 44.4524 105.894 45.1076 106.552 45.5742C107.217 46.0408 107.997 46.2741 108.892 46.2741C109.48 46.2741 110.014 46.1719 110.493 45.9673C110.972 45.7628 111.378 45.4688 111.711 45.0852C112.043 44.7017 112.28 44.2415 112.42 43.7045H114.683C114.555 44.5739 114.239 45.3569 113.734 46.0536C113.235 46.744 112.574 47.2937 111.749 47.7028C110.931 48.1055 109.979 48.3068 108.892 48.3068ZM116.156 35.3821V33.2727H128.122V35.3821H123.289V48H121.027V35.3821H116.156ZM132.703 38.6037H136.922C138.648 38.6037 139.968 39.0415 140.882 39.9173C141.796 40.793 142.253 41.902 142.253 43.2443C142.253 44.1264 142.049 44.9286 141.639 45.6509C141.23 46.3668 140.629 46.9389 139.837 47.3672C139.044 47.7891 138.073 48 136.922 48H130.747V33.2727H133.01V45.8906H136.922C137.817 45.8906 138.552 45.6541 139.127 45.1811C139.703 44.7081 139.99 44.1009 139.99 43.3594C139.99 42.5795 139.703 41.9435 139.127 41.4513C138.552 40.9592 137.817 40.7131 136.922 40.7131H132.703V38.6037ZM24.0706 85.5227V65.2727H26.2567V67.6122H26.5252C26.6914 67.3565 26.9215 67.0305 27.2155 66.6342C27.5159 66.2315 27.9442 65.8736 28.5003 65.5604C29.0628 65.2408 29.8235 65.081 30.7823 65.081C32.0223 65.081 33.1153 65.391 34.0613 66.011C35.0073 66.631 35.7457 67.5099 36.2762 68.6477C36.8068 69.7855 37.072 71.1278 37.072 72.6747C37.072 74.2344 36.8068 75.5863 36.2762 76.7305C35.7457 77.8683 35.0106 78.7504 34.071 79.3768C33.1313 79.9968 32.0479 80.3068 30.8206 80.3068C29.8746 80.3068 29.1171 80.1502 28.5483 79.837C27.9794 79.5174 27.5415 79.1562 27.2347 78.7536C26.9279 78.3445 26.6914 78.0057 26.5252 77.7372H26.3334V85.5227H24.0706ZM26.2951 72.6364C26.2951 73.7486 26.4581 74.7298 26.784 75.5799C27.11 76.4237 27.5862 77.0852 28.2127 77.5646C28.8391 78.0376 29.6061 78.2741 30.5138 78.2741C31.4598 78.2741 32.2492 78.0249 32.8821 77.5263C33.5213 77.0213 34.0007 76.3437 34.3203 75.4936C34.6463 74.6371 34.8093 73.6847 34.8093 72.6364C34.8093 71.6009 34.6495 70.6676 34.3299 69.8366C34.0166 68.9993 33.5404 68.3377 32.9012 67.8519C32.2684 67.3597 31.4726 67.1136 30.5138 67.1136C29.5934 67.1136 28.8199 67.3469 28.1935 67.8136C27.5671 68.2738 27.0941 68.9194 26.7745 69.7504C26.4549 70.5749 26.2951 71.5369 26.2951 72.6364ZM46.0235 80.3068C44.6044 80.3068 43.3804 79.9936 42.3512 79.3672C41.3285 78.7344 40.5391 77.8523 39.983 76.7209C39.4333 75.5831 39.1583 74.2599 39.1583 72.7514C39.1583 71.2429 39.4333 69.9134 39.983 68.7628C40.5391 67.6058 41.3125 66.7045 42.3033 66.0589C43.3005 65.407 44.4638 65.081 45.7933 65.081C46.5604 65.081 47.3179 65.2088 48.0657 65.4645C48.8136 65.7202 49.4943 66.1357 50.108 66.7109C50.7216 67.2798 51.2106 68.0341 51.575 68.9737C51.9393 69.9134 52.1215 71.0703 52.1215 72.4446V73.4034H40.7692V71.4474H49.8203C49.8203 70.6165 49.6541 69.875 49.3218 69.223C48.9958 68.571 48.5291 68.0565 47.9219 67.6793C47.321 67.3022 46.6115 67.1136 45.7933 67.1136C44.8921 67.1136 44.1122 67.3374 43.4539 67.7848C42.8019 68.2259 42.3001 68.8011 41.9485 69.5107C41.597 70.2202 41.4212 70.9808 41.4212 71.7926V73.0966C41.4212 74.2088 41.613 75.1516 41.9965 75.9251C42.3864 76.6921 42.9264 77.277 43.6168 77.6797C44.3071 78.076 45.1094 78.2741 46.0235 78.2741C46.6179 78.2741 47.1549 78.1911 47.6343 78.0249C48.1201 77.8523 48.5387 77.5966 48.8903 77.2578C49.2419 76.9126 49.5135 76.4844 49.7053 75.973L51.8914 76.5866C51.6612 77.3281 51.2745 77.9801 50.7312 78.5426C50.1879 79.0987 49.5167 79.5334 48.7177 79.8466C47.9187 80.1534 47.0206 80.3068 46.0235 80.3068ZM59.2224 80.3452C58.2892 80.3452 57.4421 80.1694 56.6815 79.8178C55.9208 79.4599 55.3169 78.9453 54.8694 78.2741C54.422 77.5966 54.1983 76.7784 54.1983 75.8196C54.1983 74.9759 54.3644 74.2919 54.6968 73.7678C55.0292 73.2372 55.4734 72.8217 56.0295 72.5213C56.5856 72.2209 57.1993 71.9972 57.8705 71.8501C58.548 71.6967 59.2288 71.5753 59.9127 71.4858C60.8076 71.3707 61.533 71.2844 62.0891 71.2269C62.6516 71.163 63.0608 71.0575 63.3165 70.9105C63.5786 70.7635 63.7095 70.5078 63.7095 70.1435V70.0668C63.7095 69.1207 63.4507 68.3857 62.933 67.8615C62.4216 67.3374 61.645 67.0753 60.6031 67.0753C59.5228 67.0753 58.6758 67.3118 58.0621 67.7848C57.4485 68.2578 57.0171 68.7628 56.7679 69.2997L54.6201 68.5327C55.0036 67.6378 55.515 66.9411 56.1542 66.4425C56.7998 65.9375 57.5028 65.5859 58.2635 65.3878C59.0305 65.1832 59.7849 65.081 60.5264 65.081C60.9994 65.081 61.5426 65.1385 62.1562 65.2536C62.7764 65.3622 63.3739 65.5891 63.9492 65.9343C64.5309 66.2795 65.0135 66.8004 65.397 67.4972C65.7805 68.1939 65.9724 69.1271 65.9724 70.2969V80H63.7095V78.0057H63.5946C63.4411 78.3253 63.1855 78.6673 62.8275 79.0316C62.4696 79.396 61.9932 79.706 61.3988 79.9616C60.8043 80.2173 60.0789 80.3452 59.2224 80.3452ZM59.5676 78.3125C60.4625 78.3125 61.2167 78.1367 61.8304 77.7852C62.4504 77.4336 62.9169 76.9798 63.2301 76.4237C63.5497 75.8675 63.7095 75.2827 63.7095 74.669V72.598C63.6136 72.7131 63.4028 72.8185 63.0768 72.9144C62.7572 73.0039 62.3865 73.0838 61.9646 73.1541C61.5491 73.218 61.1431 73.2756 60.7468 73.3267C60.3569 73.3714 60.0406 73.4098 59.7977 73.4418C59.2096 73.5185 58.6599 73.6431 58.1485 73.8157C57.6436 73.9819 57.2344 74.2344 56.9212 74.5732C56.6143 74.9055 56.461 75.3594 56.461 75.9347C56.461 76.7209 56.7519 77.3153 57.3335 77.718C57.9216 78.1143 58.6663 78.3125 59.5676 78.3125ZM69.4275 80V65.2727H71.6901V71.6776H73.186L78.4785 65.2727H81.3933L75.4488 72.3679L81.47 80H78.5553L73.7228 73.7869H71.6901V80H69.4275ZM94.8367 65.2727V77.8906H96.9078V84.7557H94.645V80H83.2543V65.2727H85.5172V77.8906H92.574V65.2727H94.8367ZM101.981 76.6634L109.076 65.2727H111.684V80H109.422V68.6094L102.365 80H99.718V65.2727H101.981V76.6634ZM117.417 76.6634L124.512 65.2727H127.12V80H124.857V68.6094L117.8 80H115.154V65.2727H117.417V76.6634Z" fill="black"/>
<path d="M840 161.5C840 159.567 838.433 158 836.5 158C834.567 158 833 159.567 833 161.5C833 163.433 834.567 165 836.5 165C838.433 165 840 163.433 840 161.5Z" fill="#04B34A"/>
<path d="M840 161.5C840 159.567 838.433 158 836.5 158C834.567 158 833 159.567 833 161.5C833 163.433 834.567 165 836.5 165C838.433 165 840 163.433 840 161.5Z" fill="#CACACA"/>
<path d="M840 360.5C840 358.567 838.433 357 836.5 357C834.567 357 833 358.567 833 360.5C833 362.433 834.567 364 836.5 364C838.433 364 840 362.433 840 360.5Z" fill="#04B34A"/>
</g>
<rect x="0.5" y="0.5" width="859" height="549" rx="29.5" stroke="#EAEAEA"/>
<defs>
<linearGradient id="paint0_linear_1595_26" x1="406.5" y1="181" x2="430" y2="380.5" gradientUnits="userSpaceOnUse">
<stop stop-color="#D9D9D9"/>
<stop offset="1" stop-color="#D9D9D9" stop-opacity="0"/>
</linearGradient>
<linearGradient id="paint1_linear_1595_26" x1="429.98" y1="150" x2="429.98" y2="477.488" gradientUnits="userSpaceOnUse">
<stop stop-color="#04B34A"/>
<stop offset="0.0666667" stop-color="#04B34A" stop-opacity="0.991353"/>
<stop offset="0.133333" stop-color="#04B34A" stop-opacity="0.96449"/>
<stop offset="0.2" stop-color="#04B34A" stop-opacity="0.91834"/>
<stop offset="0.266667" stop-color="#04B34A" stop-opacity="0.852589"/>
<stop offset="0.333333" stop-color="#04B34A" stop-opacity="0.768225"/>
<stop offset="0.4" stop-color="#04B34A" stop-opacity="0.668116"/>
<stop offset="0.466667" stop-color="#04B34A" stop-opacity="0.557309"/>
<stop offset="0.533333" stop-color="#04B34A" stop-opacity="0.442691"/>
<stop offset="0.6" stop-color="#04B34A" stop-opacity="0.331884"/>
<stop offset="0.666667" stop-color="#04B34A" stop-opacity="0.231775"/>
<stop offset="0.733333" stop-color="#04B34A" stop-opacity="0.147411"/>
<stop offset="0.8" stop-color="#04B34A" stop-opacity="0.0816599"/>
<stop offset="0.866667" stop-color="#04B34A" stop-opacity="0.03551"/>
<stop offset="0.933333" stop-color="#04B34A" stop-opacity="0.01"/>
<stop offset="1" stop-color="#04B34A" stop-opacity="0"/>
</linearGradient>
<clipPath id="clip0_1595_26">
<rect width="860" height="550" rx="30" fill="white"/>
</clipPath>
</defs>
</svg>
