<svg width="1080" height="464" viewBox="0 0 1080 464" fill="none" xmlns="http://www.w3.org/2000/svg">
<rect width="1080" height="464" fill="white"/>
<rect x="20" y="20" width="1040" height="424" rx="25" fill="#F7F7F7"/>
<path d="M65.3764 57.9844H59.777C59.6747 57.2599 59.4659 56.6165 59.1506 56.054C58.8352 55.483 58.4304 54.9972 57.9361 54.5966C57.4418 54.196 56.8707 53.8892 56.223 53.6761C55.5838 53.4631 54.8892 53.3565 54.1392 53.3565C52.7841 53.3565 51.6037 53.6932 50.598 54.3665C49.5923 55.0312 48.8125 56.0028 48.2585 57.2812C47.7045 58.5511 47.4276 60.0937 47.4276 61.9091C47.4276 63.7756 47.7045 65.3437 48.2585 66.6136C48.821 67.8835 49.6051 68.8423 50.6108 69.4901C51.6165 70.1378 52.7798 70.4616 54.1009 70.4616C54.8423 70.4616 55.5284 70.3636 56.1591 70.1676C56.7983 69.9716 57.3651 69.6861 57.8594 69.3111C58.3537 68.9276 58.7628 68.4631 59.0866 67.9176C59.419 67.3722 59.6491 66.75 59.777 66.0511L65.3764 66.0767C65.2315 67.2784 64.8693 68.4375 64.2898 69.554C63.7188 70.6619 62.9474 71.6548 61.9759 72.5327C61.0128 73.402 59.8622 74.0923 58.5241 74.6037C57.1946 75.1065 55.6903 75.358 54.0114 75.358C51.6761 75.358 49.5881 74.8295 47.7472 73.7727C45.9148 72.7159 44.4659 71.1861 43.4006 69.1832C42.3438 67.1804 41.8153 64.7557 41.8153 61.9091C41.8153 59.054 42.3523 56.625 43.4261 54.6222C44.5 52.6193 45.9574 51.0937 47.7983 50.0455C49.6392 48.9886 51.7102 48.4602 54.0114 48.4602C55.5284 48.4602 56.9347 48.6733 58.2301 49.0994C59.5341 49.5256 60.6889 50.1477 61.6946 50.9659C62.7003 51.7756 63.5185 52.7685 64.1491 53.9446C64.7884 55.1207 65.1974 56.4673 65.3764 57.9844ZM71.4119 82.3636C70.7216 82.3636 70.0738 82.3082 69.4687 82.1974C68.8721 82.0952 68.3778 81.9631 67.9858 81.8011L69.2131 77.7358C69.8523 77.9318 70.4275 78.0384 70.9389 78.0554C71.4588 78.0724 71.9062 77.9531 72.2812 77.6974C72.6648 77.4418 72.9758 77.0071 73.2145 76.3935L73.5341 75.5625L66.49 55.3636H72.2173L76.2827 69.7841H76.4872L80.5909 55.3636H86.3565L78.7244 77.1222C78.3579 78.179 77.8594 79.0994 77.2287 79.8835C76.6065 80.6761 75.8182 81.2855 74.8636 81.7116C73.9091 82.1463 72.7585 82.3636 71.4119 82.3636ZM104.029 48.1534L105.691 51.7074C105.137 52.1676 104.523 52.5085 103.85 52.7301C103.176 52.9432 102.371 53.0838 101.434 53.152C100.505 53.2202 99.3711 53.267 98.033 53.2926C96.516 53.3097 95.2802 53.5526 94.3256 54.0213C93.3711 54.4901 92.6466 55.2273 92.1523 56.233C91.658 57.2301 91.3341 58.5341 91.1807 60.1449H91.3725C91.9606 58.9432 92.7873 58.0142 93.8526 57.358C94.9265 56.7017 96.2517 56.3736 97.8285 56.3736C99.4989 56.3736 100.961 56.7401 102.213 57.473C103.475 58.206 104.455 59.2585 105.154 60.6307C105.853 62.0028 106.202 63.6477 106.202 65.5653C106.202 67.5597 105.81 69.294 105.026 70.7685C104.25 72.2344 103.147 73.3722 101.715 74.1818C100.283 74.983 98.5785 75.3835 96.6012 75.3835C94.6154 75.3835 92.9023 74.9659 91.462 74.1307C90.0302 73.2955 88.9222 72.0639 88.1381 70.4361C87.3625 68.8082 86.9748 66.8054 86.9748 64.4276V62.8168C86.9748 58.0866 87.8952 54.5795 89.7361 52.2955C91.577 50.0114 94.283 48.8523 97.854 48.8182C98.8256 48.8011 99.7035 48.7969 100.488 48.8054C101.272 48.8139 101.958 48.7756 102.546 48.6903C103.142 48.6051 103.637 48.4261 104.029 48.1534ZM96.6267 71.1648C97.462 71.1648 98.1779 70.9474 98.7745 70.5128C99.3796 70.0781 99.8441 69.456 100.168 68.6463C100.5 67.8366 100.667 66.8693 100.667 65.7443C100.667 64.6278 100.5 63.6818 100.168 62.9062C99.8441 62.1222 99.3796 61.5256 98.7745 61.1165C98.1694 60.7074 97.4449 60.5028 96.6012 60.5028C95.9705 60.5028 95.4037 60.6179 94.9009 60.848C94.3981 61.0781 93.9677 61.419 93.6097 61.8707C93.2603 62.3139 92.9875 62.8636 92.7915 63.5199C92.604 64.1676 92.5103 64.9091 92.5103 65.7443C92.5103 67.4233 92.8725 68.7486 93.5969 69.7202C94.3299 70.6832 95.3398 71.1648 96.6267 71.1648ZM117.249 75.3835C115.238 75.3835 113.507 74.9574 112.059 74.1051C110.618 73.2443 109.51 72.0511 108.735 70.5256C107.968 69 107.584 67.2443 107.584 65.2585C107.584 63.2472 107.972 61.483 108.747 59.9659C109.532 58.4403 110.644 57.2514 112.084 56.3991C113.524 55.5384 115.238 55.108 117.223 55.108C118.936 55.108 120.436 55.419 121.723 56.0412C123.01 56.6634 124.029 57.5369 124.779 58.6619C125.529 59.7869 125.942 61.108 126.019 62.625H120.88C120.735 61.6449 120.351 60.8565 119.729 60.2599C119.115 59.6548 118.31 59.3523 117.313 59.3523C116.469 59.3523 115.732 59.5824 115.101 60.0426C114.479 60.4943 113.993 61.1548 113.644 62.0241C113.294 62.8935 113.12 63.946 113.12 65.1818C113.12 66.4347 113.29 67.5 113.631 68.3778C113.98 69.2557 114.47 69.9247 115.101 70.3849C115.732 70.8452 116.469 71.0753 117.313 71.0753C117.935 71.0753 118.493 70.9474 118.988 70.6918C119.49 70.4361 119.904 70.0653 120.228 69.5795C120.56 69.0852 120.777 68.4929 120.88 67.8026H126.019C125.934 69.3026 125.524 70.6236 124.792 71.7656C124.067 72.8991 123.066 73.7855 121.787 74.4247C120.509 75.0639 118.996 75.3835 117.249 75.3835ZM133.269 67.8153L140.338 55.3636H145.708V75H140.517V62.5099L133.473 75H128.066V55.3636H133.269V67.8153ZM147.099 80.7528V70.679H148.608C149.043 70.4062 149.392 69.9716 149.656 69.375C149.929 68.7784 150.151 68.0753 150.321 67.2656C150.5 66.456 150.636 65.5824 150.73 64.6449C150.832 63.6989 150.922 62.7443 150.999 61.7812L151.51 55.3636H166.57V70.679H169.612V80.7528H164.422V75H152.418V80.7528H147.099ZM154.028 70.679H161.43V59.5568H156.138L155.933 61.7812C155.788 63.8778 155.579 65.6591 155.307 67.125C155.034 68.5824 154.608 69.767 154.028 70.679ZM176.549 67.8153L183.619 55.3636H188.988V75H183.798V62.5099L176.753 75H171.346V55.3636H176.549V67.8153ZM191.914 82.3636V55.3636H197.283V58.6619H197.526C197.764 58.1335 198.11 57.5966 198.561 57.0511C199.022 56.4972 199.618 56.0369 200.351 55.6705C201.093 55.2955 202.013 55.108 203.112 55.108C204.544 55.108 205.865 55.483 207.076 56.233C208.286 56.9744 209.253 58.0952 209.978 59.5952C210.702 61.0866 211.064 62.9574 211.064 65.2074C211.064 67.3977 210.71 69.2472 210.003 70.7557C209.304 72.2557 208.35 73.3935 207.139 74.169C205.938 74.9361 204.591 75.3196 203.1 75.3196C202.043 75.3196 201.144 75.1449 200.402 74.7955C199.669 74.446 199.068 74.0071 198.6 73.4787C198.131 72.9418 197.773 72.4006 197.526 71.8551H197.36V82.3636H191.914ZM197.245 65.1818C197.245 66.3494 197.407 67.3679 197.73 68.2372C198.054 69.1065 198.523 69.7841 199.137 70.2699C199.75 70.7472 200.496 70.9858 201.374 70.9858C202.26 70.9858 203.01 70.7429 203.624 70.2571C204.237 69.7628 204.702 69.081 205.017 68.2116C205.341 67.3338 205.503 66.3239 205.503 65.1818C205.503 64.0483 205.345 63.0511 205.03 62.1903C204.715 61.3295 204.25 60.6562 203.637 60.1705C203.023 59.6847 202.269 59.4418 201.374 59.4418C200.487 59.4418 199.737 59.6761 199.124 60.1449C198.519 60.6136 198.054 61.2784 197.73 62.1392C197.407 63 197.245 64.0142 197.245 65.1818ZM222.127 75.3835C220.141 75.3835 218.424 74.9616 216.975 74.1179C215.535 73.2656 214.422 72.081 213.638 70.5639C212.854 69.0384 212.462 67.2699 212.462 65.2585C212.462 63.2301 212.854 61.4574 213.638 59.9403C214.422 58.4148 215.535 57.2301 216.975 56.3864C218.424 55.5341 220.141 55.108 222.127 55.108C224.113 55.108 225.826 55.5341 227.266 56.3864C228.715 57.2301 229.832 58.4148 230.616 59.9403C231.4 61.4574 231.792 63.2301 231.792 65.2585C231.792 67.2699 231.4 69.0384 230.616 70.5639C229.832 72.081 228.715 73.2656 227.266 74.1179C225.826 74.9616 224.113 75.3835 222.127 75.3835ZM222.153 71.1648C223.056 71.1648 223.81 70.9091 224.415 70.3977C225.02 69.8778 225.476 69.1705 225.783 68.2756C226.099 67.3807 226.256 66.3622 226.256 65.2202C226.256 64.0781 226.099 63.0597 225.783 62.1648C225.476 61.2699 225.02 60.5625 224.415 60.0426C223.81 59.5227 223.056 59.2628 222.153 59.2628C221.241 59.2628 220.474 59.5227 219.851 60.0426C219.238 60.5625 218.773 61.2699 218.458 62.1648C218.151 63.0597 217.998 64.0781 217.998 65.2202C217.998 66.3622 218.151 67.3807 218.458 68.2756C218.773 69.1705 219.238 69.8778 219.851 70.3977C220.474 70.9091 221.241 71.1648 222.153 71.1648ZM233.893 75V55.3636H242.267C244.687 55.3636 246.6 55.8239 248.007 56.7443C249.413 57.6648 250.116 58.973 250.116 60.669C250.116 61.7344 249.72 62.6207 248.927 63.3281C248.134 64.0355 247.035 64.5128 245.629 64.7599C246.805 64.8452 247.806 65.1136 248.633 65.5653C249.468 66.0085 250.103 66.5838 250.538 67.2912C250.981 67.9986 251.203 68.7827 251.203 69.6435C251.203 70.7599 250.904 71.7187 250.308 72.5199C249.72 73.321 248.855 73.9347 247.713 74.3608C246.579 74.7869 245.194 75 243.558 75H233.893ZM238.968 70.9219H243.558C244.316 70.9219 244.909 70.7429 245.335 70.3849C245.769 70.0185 245.987 69.5199 245.987 68.8892C245.987 68.1903 245.769 67.6406 245.335 67.2401C244.909 66.8395 244.316 66.6392 243.558 66.6392H238.968V70.9219ZM238.968 63.4432H242.382C242.927 63.4432 243.392 63.3665 243.775 63.2131C244.167 63.0511 244.465 62.821 244.67 62.5227C244.883 62.2244 244.99 61.8707 244.99 61.4616C244.99 60.8565 244.747 60.3835 244.261 60.0426C243.775 59.7017 243.11 59.5312 242.267 59.5312H238.968V63.4432ZM258.795 75.3707C257.542 75.3707 256.425 75.1534 255.445 74.7188C254.465 74.2756 253.689 73.6236 253.118 72.7628C252.556 71.8935 252.275 70.8111 252.275 69.5156C252.275 68.4247 252.475 67.5085 252.876 66.767C253.276 66.0256 253.822 65.429 254.512 64.9773C255.202 64.5256 255.986 64.1847 256.864 63.9545C257.751 63.7244 258.68 63.5625 259.651 63.4688C260.793 63.3494 261.714 63.2386 262.413 63.1364C263.111 63.0256 263.618 62.8636 263.934 62.6506C264.249 62.4375 264.407 62.1222 264.407 61.7045V61.6278C264.407 60.8182 264.151 60.1918 263.64 59.7486C263.137 59.3054 262.421 59.0838 261.492 59.0838C260.512 59.0838 259.732 59.3011 259.153 59.7358C258.573 60.1619 258.189 60.6989 258.002 61.3466L252.965 60.9375C253.221 59.7443 253.724 58.7131 254.474 57.8438C255.224 56.9659 256.191 56.2926 257.376 55.8239C258.569 55.3466 259.949 55.108 261.518 55.108C262.609 55.108 263.653 55.2358 264.65 55.4915C265.655 55.7472 266.546 56.1435 267.322 56.6804C268.106 57.2173 268.724 57.9077 269.175 58.7514C269.627 59.5866 269.853 60.5881 269.853 61.7557V75H264.688V72.277H264.535C264.219 72.8906 263.797 73.4318 263.269 73.9006C262.741 74.3608 262.106 74.723 261.364 74.9872C260.623 75.2429 259.766 75.3707 258.795 75.3707ZM260.354 71.6122C261.155 71.6122 261.863 71.4545 262.476 71.1392C263.09 70.8153 263.572 70.3807 263.921 69.8352C264.27 69.2898 264.445 68.6719 264.445 67.9815V65.8977C264.275 66.0085 264.04 66.1108 263.742 66.2045C263.452 66.2898 263.124 66.3707 262.758 66.4474C262.391 66.5156 262.025 66.5795 261.658 66.6392C261.292 66.6903 260.959 66.7372 260.661 66.7798C260.022 66.8736 259.464 67.0227 258.986 67.2273C258.509 67.4318 258.138 67.7088 257.874 68.0582C257.61 68.3991 257.478 68.8253 257.478 69.3366C257.478 70.0781 257.746 70.6449 258.283 71.0369C258.829 71.4205 259.519 71.6122 260.354 71.6122ZM286.304 63.0085V67.2912H276.051V63.0085H286.304ZM277.841 55.3636V75H272.638V55.3636H277.841ZM289.718 55.3636V75H284.553V55.3636H289.718ZM306.169 63.0085V67.2912H295.916V63.0085H306.169ZM297.706 55.3636V75H292.503V55.3636H297.706ZM309.582 55.3636V75H304.417V55.3636H309.582ZM315.781 61.3977H321.649C324.248 61.3977 326.276 62.0199 327.734 63.2642C329.191 64.5 329.92 66.1534 329.92 68.2244C329.92 69.571 329.592 70.7557 328.936 71.7784C328.279 72.7926 327.333 73.5852 326.097 74.1562C324.862 74.7188 323.379 75 321.649 75H312.367V55.3636H317.57V70.7173H321.649C322.561 70.7173 323.311 70.4872 323.899 70.027C324.487 69.5668 324.785 68.9787 324.793 68.2628C324.785 67.5043 324.487 66.8864 323.899 66.4091C323.311 65.9233 322.561 65.6804 321.649 65.6804H315.781V61.3977ZM332.029 75V55.3636H337.475V75H332.029ZM349.337 75.3835C347.317 75.3835 345.579 74.9744 344.121 74.1562C342.672 73.3295 341.556 72.1619 340.772 70.6534C339.988 69.1364 339.596 67.3423 339.596 65.2713C339.596 63.2514 339.988 61.4787 340.772 59.9531C341.556 58.4276 342.66 57.2386 344.083 56.3864C345.515 55.5341 347.194 55.108 349.12 55.108C350.415 55.108 351.621 55.3168 352.738 55.7344C353.863 56.1435 354.843 56.7614 355.678 57.5881C356.522 58.4148 357.178 59.4545 357.647 60.7074C358.116 61.9517 358.35 63.4091 358.35 65.0795V66.5753H341.769V63.2003H353.224C353.224 62.4162 353.053 61.7216 352.712 61.1165C352.371 60.5114 351.898 60.0384 351.293 59.6974C350.697 59.348 350.002 59.1733 349.209 59.1733C348.383 59.1733 347.65 59.3651 347.01 59.7486C346.38 60.1236 345.885 60.6307 345.527 61.2699C345.17 61.9006 344.986 62.6037 344.978 63.3793V66.5881C344.978 67.5597 345.157 68.3991 345.515 69.1065C345.881 69.8139 346.397 70.3594 347.062 70.7429C347.726 71.1264 348.515 71.3182 349.427 71.3182C350.032 71.3182 350.586 71.233 351.089 71.0625C351.591 70.892 352.022 70.6364 352.38 70.2955C352.738 69.9545 353.01 69.5369 353.198 69.0426L358.235 69.375C357.979 70.5852 357.455 71.642 356.662 72.5455C355.878 73.4403 354.864 74.1392 353.62 74.642C352.384 75.1364 350.956 75.3835 349.337 75.3835ZM372.559 67.8153L379.629 55.3636H384.998V75H379.808V62.5099L372.764 75H367.356V55.3636H372.559V67.8153ZM387.924 75V55.3636H405.093V75H399.89V59.6463H393.063V75H387.924ZM416.872 75.3835C414.886 75.3835 413.168 74.9616 411.72 74.1179C410.279 73.2656 409.167 72.081 408.383 70.5639C407.599 69.0384 407.207 67.2699 407.207 65.2585C407.207 63.2301 407.599 61.4574 408.383 59.9403C409.167 58.4148 410.279 57.2301 411.72 56.3864C413.168 55.5341 414.886 55.108 416.872 55.108C418.857 55.108 420.57 55.5341 422.011 56.3864C423.46 57.2301 424.576 58.4148 425.36 59.9403C426.144 61.4574 426.536 63.2301 426.536 65.2585C426.536 67.2699 426.144 69.0384 425.36 70.5639C424.576 72.081 423.46 73.2656 422.011 74.1179C420.57 74.9616 418.857 75.3835 416.872 75.3835ZM416.897 71.1648C417.801 71.1648 418.555 70.9091 419.16 70.3977C419.765 69.8778 420.221 69.1705 420.528 68.2756C420.843 67.3807 421.001 66.3622 421.001 65.2202C421.001 64.0781 420.843 63.0597 420.528 62.1648C420.221 61.2699 419.765 60.5625 419.16 60.0426C418.555 59.5227 417.801 59.2628 416.897 59.2628C415.985 59.2628 415.218 59.5227 414.596 60.0426C413.982 60.5625 413.518 61.2699 413.203 62.1648C412.896 63.0597 412.742 64.0781 412.742 65.2202C412.742 66.3622 412.896 67.3807 413.203 68.2756C413.518 69.1705 413.982 69.8778 414.596 70.3977C415.218 70.9091 415.985 71.1648 416.897 71.1648ZM426.736 59.6463V55.3636H444.531V59.6463H438.203V75H433.013V59.6463H426.736ZM454.639 75.3835C452.619 75.3835 450.88 74.9744 449.423 74.1562C447.974 73.3295 446.857 72.1619 446.073 70.6534C445.289 69.1364 444.897 67.3423 444.897 65.2713C444.897 63.2514 445.289 61.4787 446.073 59.9531C446.857 58.4276 447.961 57.2386 449.384 56.3864C450.816 55.5341 452.495 55.108 454.421 55.108C455.717 55.108 456.923 55.3168 458.039 55.7344C459.164 56.1435 460.144 56.7614 460.979 57.5881C461.823 58.4148 462.479 59.4545 462.948 60.7074C463.417 61.9517 463.651 63.4091 463.651 65.0795V66.5753H447.07V63.2003H458.525C458.525 62.4162 458.354 61.7216 458.014 61.1165C457.673 60.5114 457.2 60.0384 456.595 59.6974C455.998 59.348 455.303 59.1733 454.511 59.1733C453.684 59.1733 452.951 59.3651 452.312 59.7486C451.681 60.1236 451.187 60.6307 450.829 61.2699C450.471 61.9006 450.288 62.6037 450.279 63.3793V66.5881C450.279 67.5597 450.458 68.3991 450.816 69.1065C451.183 69.8139 451.698 70.3594 452.363 70.7429C453.028 71.1264 453.816 71.3182 454.728 71.3182C455.333 71.3182 455.887 71.233 456.39 71.0625C456.893 70.892 457.323 70.6364 457.681 70.2955C458.039 69.9545 458.312 69.5369 458.499 69.0426L463.536 69.375C463.281 70.5852 462.756 71.642 461.964 72.5455C461.18 73.4403 460.166 74.1392 458.921 74.642C457.685 75.1364 456.258 75.3835 454.639 75.3835ZM465.765 75V55.3636H471.211V62.983H472.745L478.089 55.3636H484.481L477.539 65.1051L484.558 75H478.089L473.244 68.0327H471.211V75H465.765ZM490.622 67.8153L497.692 55.3636H503.061V75H497.871V62.5099L490.827 75H485.419V55.3636H490.622V67.8153Z" fill="black"/>
<path opacity="0.4" d="M1040 423.999H39.9999V252H365L1040 161.5V423.999Z" fill="url(#paint0_linear_2766_1515)"/>
<rect x="1034" y="156" width="10.2717" height="10.2717" rx="5.13587" fill="#04B34A"/>
<rect x="36" y="247" width="10" height="10" rx="5" fill="white" stroke="#04B34A" stroke-width="4"/>
<path d="M1039.5 161L366.5 252H46.5" stroke="#04B34A" stroke-width="4"/>
<path d="M47.9176 222.455V237H45.7159V224.656H45.6307L42.1506 226.929V224.827L45.7798 222.455H47.9176ZM51.3243 234.159V232.384L57.6098 222.455H59.009V225.068H58.1212L53.6255 232.185V232.298H62.2405V234.159H51.3243ZM58.2206 237V233.619L58.2348 232.81V222.455H60.3158V237H58.2206ZM66.7374 235.011L66.6309 235.786C66.5599 236.354 66.4391 236.946 66.2687 237.561C66.103 238.181 65.9301 238.757 65.7502 239.287C65.575 239.817 65.4306 240.239 65.317 240.551H63.8113C63.8728 240.258 63.9581 239.86 64.067 239.358C64.1759 238.861 64.2824 238.304 64.3866 237.689C64.4907 237.073 64.5689 236.446 64.6209 235.807L64.692 235.011H66.7374ZM74.0522 237.199C73.162 237.199 72.3618 237.028 71.6516 236.688C70.9461 236.342 70.3826 235.868 69.9612 235.267C69.5398 234.666 69.3149 233.979 69.2865 233.207H71.4172C71.4693 233.832 71.7463 234.346 72.2482 234.749C72.7501 235.151 73.3514 235.352 74.0522 235.352C74.6109 235.352 75.1057 235.224 75.5365 234.969C75.9721 234.708 76.313 234.351 76.5593 233.896C76.8102 233.442 76.9357 232.923 76.9357 232.341C76.9357 231.749 76.8078 231.221 76.5522 230.757C76.2965 230.293 75.9437 229.929 75.4939 229.663C75.0488 229.398 74.5375 229.263 73.9598 229.259C73.5195 229.259 73.0768 229.334 72.6317 229.486C72.1866 229.637 71.8268 229.836 71.5522 230.082L69.5422 229.784L70.359 222.455H78.3561V224.337H72.1843L71.7226 228.406H71.8078C72.0919 228.132 72.4683 227.902 72.9371 227.717C73.4106 227.533 73.9172 227.44 74.457 227.44C75.3424 227.44 76.1308 227.651 76.822 228.072C77.5181 228.494 78.0649 229.069 78.4627 229.798C78.8651 230.523 79.064 231.356 79.0593 232.298C79.064 233.241 78.8509 234.081 78.4201 234.82C77.9939 235.558 77.4021 236.141 76.6445 236.567C75.8916 236.988 75.0275 237.199 74.0522 237.199ZM94.0936 234.273V233.506C94.0936 232.956 94.2072 232.455 94.4345 232C94.6665 231.541 95.0026 231.174 95.443 230.899C95.8881 230.62 96.4255 230.48 97.0552 230.48C97.6991 230.48 98.2389 230.617 98.6745 230.892C99.1101 231.167 99.4392 231.534 99.6617 231.993C99.889 232.452 100.003 232.956 100.003 233.506V234.273C100.003 234.822 99.889 235.326 99.6617 235.786C99.4345 236.24 99.1007 236.607 98.6603 236.886C98.2247 237.161 97.6897 237.298 97.0552 237.298C96.416 237.298 95.8762 237.161 95.4359 236.886C94.9955 236.607 94.6617 236.24 94.4345 235.786C94.2072 235.326 94.0936 234.822 94.0936 234.273ZM95.7484 233.506V234.273C95.7484 234.68 95.8454 235.049 96.0396 235.381C96.2337 235.712 96.5722 235.878 97.0552 235.878C97.5334 235.878 97.8672 235.712 98.0566 235.381C98.246 235.049 98.3407 234.68 98.3407 234.273V233.506C98.3407 233.098 98.2484 232.729 98.0637 232.398C97.8838 232.066 97.5476 231.901 97.0552 231.901C96.5817 231.901 96.2455 232.066 96.0467 232.398C95.8478 232.729 95.7484 233.098 95.7484 233.506ZM86.7782 225.949V225.182C86.7782 224.633 86.8918 224.128 87.1191 223.669C87.3511 223.21 87.6873 222.843 88.1276 222.568C88.5727 222.294 89.1101 222.156 89.7399 222.156C90.3838 222.156 90.9236 222.294 91.3592 222.568C91.7948 222.843 92.1239 223.21 92.3464 223.669C92.5689 224.128 92.6802 224.633 92.6802 225.182V225.949C92.6802 226.498 92.5666 227.002 92.3393 227.462C92.1168 227.916 91.7853 228.283 91.345 228.562C90.9094 228.837 90.3743 228.974 89.7399 228.974C89.0959 228.974 88.5538 228.837 88.1134 228.562C87.6778 228.283 87.3464 227.916 87.1191 227.462C86.8918 227.002 86.7782 226.498 86.7782 225.949ZM88.4401 225.182V225.949C88.4401 226.356 88.5348 226.725 88.7242 227.057C88.9184 227.388 89.2569 227.554 89.7399 227.554C90.2133 227.554 90.5448 227.388 90.7342 227.057C90.9283 226.725 91.0254 226.356 91.0254 225.949V225.182C91.0254 224.775 90.933 224.405 90.7484 224.074C90.5637 223.742 90.2275 223.577 89.7399 223.577C89.2664 223.577 88.9302 223.742 88.7313 224.074C88.5372 224.405 88.4401 224.775 88.4401 225.182ZM87.4529 237L97.4529 222.455H99.1504L89.1504 237H87.4529Z" fill="#CFCFCF"/>
<path d="M346.027 222.455V237H343.825V224.656H343.74L340.26 226.929V224.827L343.889 222.455H346.027ZM354.803 237.199C353.827 237.199 352.956 237.031 352.189 236.695C351.427 236.358 350.823 235.892 350.378 235.295C349.938 234.694 349.701 233.998 349.668 233.207H351.898C351.926 233.638 352.071 234.012 352.331 234.33C352.596 234.642 352.942 234.884 353.368 235.054C353.794 235.224 354.268 235.31 354.789 235.31C355.361 235.31 355.868 235.21 356.308 235.011C356.754 234.812 357.102 234.536 357.352 234.18C357.603 233.821 357.729 233.406 357.729 232.938C357.729 232.45 357.603 232.021 357.352 231.652C357.106 231.278 356.744 230.984 356.266 230.771C355.792 230.558 355.219 230.452 354.547 230.452H353.318V228.662H354.547C355.087 228.662 355.56 228.565 355.968 228.371C356.379 228.177 356.701 227.907 356.933 227.561C357.165 227.211 357.281 226.801 357.281 226.332C357.281 225.883 357.18 225.492 356.976 225.161C356.777 224.824 356.493 224.562 356.124 224.372C355.759 224.183 355.328 224.088 354.831 224.088C354.358 224.088 353.915 224.176 353.503 224.351C353.096 224.521 352.764 224.768 352.509 225.089C352.253 225.407 352.116 225.788 352.097 226.233H349.973C349.997 225.447 350.229 224.756 350.669 224.159C351.114 223.562 351.701 223.096 352.431 222.76C353.16 222.424 353.969 222.256 354.86 222.256C355.792 222.256 356.597 222.438 357.274 222.803C357.956 223.162 358.482 223.643 358.851 224.244C359.225 224.846 359.41 225.504 359.405 226.219C359.41 227.033 359.182 227.724 358.723 228.293C358.269 228.861 357.663 229.242 356.905 229.436V229.55C357.871 229.696 358.619 230.08 359.149 230.7C359.684 231.321 359.95 232.09 359.945 233.009C359.95 233.809 359.727 234.526 359.277 235.161C358.832 235.795 358.224 236.295 357.452 236.659C356.68 237.019 355.797 237.199 354.803 237.199ZM364.768 235.011L364.662 235.786C364.591 236.354 364.47 236.946 364.3 237.561C364.134 238.181 363.961 238.757 363.781 239.287C363.606 239.817 363.462 240.239 363.348 240.551H361.842C361.904 240.258 361.989 239.86 362.098 239.358C362.207 238.861 362.313 238.304 362.418 237.689C362.522 237.073 362.6 236.446 362.652 235.807L362.723 235.011H364.768ZM372.053 237.199C371.078 237.199 370.206 237.031 369.439 236.695C368.677 236.358 368.073 235.892 367.628 235.295C367.188 234.694 366.951 233.998 366.918 233.207H369.148C369.177 233.638 369.321 234.012 369.581 234.33C369.847 234.642 370.192 234.884 370.618 235.054C371.044 235.224 371.518 235.31 372.039 235.31C372.612 235.31 373.118 235.21 373.559 235.011C374.004 234.812 374.352 234.536 374.603 234.18C374.854 233.821 374.979 233.406 374.979 232.938C374.979 232.45 374.854 232.021 374.603 231.652C374.356 231.278 373.994 230.984 373.516 230.771C373.043 230.558 372.47 230.452 371.797 230.452H370.569V228.662H371.797C372.337 228.662 372.811 228.565 373.218 228.371C373.63 228.177 373.952 227.907 374.184 227.561C374.416 227.211 374.532 226.801 374.532 226.332C374.532 225.883 374.43 225.492 374.226 225.161C374.027 224.824 373.743 224.562 373.374 224.372C373.009 224.183 372.579 224.088 372.081 224.088C371.608 224.088 371.165 224.176 370.753 224.351C370.346 224.521 370.015 224.768 369.759 225.089C369.503 225.407 369.366 225.788 369.347 226.233H367.223C367.247 225.447 367.479 224.756 367.919 224.159C368.365 223.562 368.952 223.096 369.681 222.76C370.41 222.424 371.22 222.256 372.11 222.256C373.043 222.256 373.847 222.438 374.525 222.803C375.206 223.162 375.732 223.643 376.101 224.244C376.475 224.846 376.66 225.504 376.655 226.219C376.66 227.033 376.433 227.724 375.973 228.293C375.519 228.861 374.913 229.242 374.155 229.436V229.55C375.121 229.696 375.869 230.08 376.4 230.7C376.935 231.321 377.2 232.09 377.195 233.009C377.2 233.809 376.977 234.526 376.527 235.161C376.082 235.795 375.474 236.295 374.702 236.659C373.93 237.019 373.047 237.199 372.053 237.199ZM392.32 234.273V233.506C392.32 232.956 392.433 232.455 392.661 232C392.893 231.541 393.229 231.174 393.669 230.899C394.114 230.62 394.652 230.48 395.282 230.48C395.925 230.48 396.465 230.617 396.901 230.892C397.336 231.167 397.666 231.534 397.888 231.993C398.115 232.452 398.229 232.956 398.229 233.506V234.273C398.229 234.822 398.115 235.326 397.888 235.786C397.661 236.24 397.327 236.607 396.887 236.886C396.451 237.161 395.916 237.298 395.282 237.298C394.642 237.298 394.103 237.161 393.662 236.886C393.222 236.607 392.888 236.24 392.661 235.786C392.433 235.326 392.32 234.822 392.32 234.273ZM393.975 233.506V234.273C393.975 234.68 394.072 235.049 394.266 235.381C394.46 235.712 394.799 235.878 395.282 235.878C395.76 235.878 396.094 235.712 396.283 235.381C396.472 235.049 396.567 234.68 396.567 234.273V233.506C396.567 233.098 396.475 232.729 396.29 232.398C396.11 232.066 395.774 231.901 395.282 231.901C394.808 231.901 394.472 232.066 394.273 232.398C394.074 232.729 393.975 233.098 393.975 233.506ZM385.005 225.949V225.182C385.005 224.633 385.118 224.128 385.345 223.669C385.577 223.21 385.914 222.843 386.354 222.568C386.799 222.294 387.336 222.156 387.966 222.156C388.61 222.156 389.15 222.294 389.585 222.568C390.021 222.843 390.35 223.21 390.573 223.669C390.795 224.128 390.907 224.633 390.907 225.182V225.949C390.907 226.498 390.793 227.002 390.566 227.462C390.343 227.916 390.012 228.283 389.571 228.562C389.136 228.837 388.601 228.974 387.966 228.974C387.322 228.974 386.78 228.837 386.34 228.562C385.904 228.283 385.573 227.916 385.345 227.462C385.118 227.002 385.005 226.498 385.005 225.949ZM386.666 225.182V225.949C386.666 226.356 386.761 226.725 386.951 227.057C387.145 227.388 387.483 227.554 387.966 227.554C388.44 227.554 388.771 227.388 388.96 227.057C389.155 226.725 389.252 226.356 389.252 225.949V225.182C389.252 224.775 389.159 224.405 388.975 224.074C388.79 223.742 388.454 223.577 387.966 223.577C387.493 223.577 387.157 223.742 386.958 224.074C386.764 224.405 386.666 224.775 386.666 225.182ZM385.679 237L395.679 222.455H397.377L387.377 237H385.679Z" fill="#CFCFCF"/>
<path d="M982.379 149V147.409L987.301 142.31C987.827 141.756 988.26 141.27 988.601 140.854C988.946 140.432 989.204 140.032 989.375 139.653C989.545 139.275 989.631 138.872 989.631 138.446C989.631 137.963 989.517 137.546 989.29 137.196C989.062 136.841 988.752 136.569 988.359 136.379C987.966 136.185 987.524 136.088 987.031 136.088C986.51 136.088 986.056 136.195 985.667 136.408C985.279 136.621 984.981 136.921 984.773 137.31C984.564 137.698 984.46 138.152 984.46 138.673H982.365C982.365 137.788 982.568 137.014 982.976 136.351C983.383 135.688 983.942 135.174 984.652 134.81C985.362 134.44 986.169 134.256 987.074 134.256C987.988 134.256 988.792 134.438 989.488 134.803C990.189 135.162 990.736 135.655 991.129 136.28C991.522 136.9 991.719 137.601 991.719 138.382C991.719 138.922 991.617 139.45 991.413 139.966C991.214 140.482 990.866 141.057 990.369 141.692C989.872 142.321 989.181 143.086 988.295 143.986L985.405 147.011V147.118H991.953V149H982.379ZM994.912 149L1001.26 136.443V136.337H993.918V134.455H1003.53V136.401L997.206 149H994.912ZM1006.07 147.011L1005.97 147.786C1005.9 148.354 1005.77 148.946 1005.6 149.561C1005.44 150.181 1005.27 150.757 1005.09 151.287C1004.91 151.817 1004.77 152.239 1004.65 152.551H1003.15C1003.21 152.258 1003.29 151.86 1003.4 151.358C1003.51 150.861 1003.62 150.304 1003.72 149.689C1003.83 149.073 1003.9 148.446 1003.96 147.807L1004.03 147.011H1006.07ZM1013.39 149.199C1012.5 149.199 1011.7 149.028 1010.99 148.688C1010.28 148.342 1009.72 147.868 1009.3 147.267C1008.88 146.666 1008.65 145.979 1008.62 145.207H1010.75C1010.8 145.832 1011.08 146.346 1011.58 146.749C1012.09 147.151 1012.69 147.352 1013.39 147.352C1013.95 147.352 1014.44 147.224 1014.87 146.969C1015.31 146.708 1015.65 146.351 1015.89 145.896C1016.15 145.442 1016.27 144.923 1016.27 144.341C1016.27 143.749 1016.14 143.221 1015.89 142.757C1015.63 142.293 1015.28 141.929 1014.83 141.663C1014.38 141.398 1013.87 141.263 1013.3 141.259C1012.85 141.259 1012.41 141.334 1011.97 141.486C1011.52 141.637 1011.16 141.836 1010.89 142.082L1008.88 141.784L1009.69 134.455H1017.69V136.337H1011.52L1011.06 140.406H1011.14C1011.43 140.132 1011.8 139.902 1012.27 139.717C1012.75 139.533 1013.25 139.44 1013.79 139.44C1014.68 139.44 1015.47 139.651 1016.16 140.072C1016.85 140.494 1017.4 141.069 1017.8 141.798C1018.2 142.523 1018.4 143.356 1018.39 144.298C1018.4 145.241 1018.19 146.081 1017.76 146.82C1017.33 147.558 1016.74 148.141 1015.98 148.567C1015.23 148.988 1014.36 149.199 1013.39 149.199ZM1033.43 146.273V145.506C1033.43 144.956 1033.54 144.455 1033.77 144C1034 143.541 1034.34 143.174 1034.78 142.899C1035.22 142.62 1035.76 142.48 1036.39 142.48C1037.03 142.48 1037.57 142.617 1038.01 142.892C1038.45 143.167 1038.77 143.534 1039 143.993C1039.22 144.452 1039.34 144.956 1039.34 145.506V146.273C1039.34 146.822 1039.22 147.326 1039 147.786C1038.77 148.24 1038.44 148.607 1038 148.886C1037.56 149.161 1037.03 149.298 1036.39 149.298C1035.75 149.298 1035.21 149.161 1034.77 148.886C1034.33 148.607 1034 148.24 1033.77 147.786C1033.54 147.326 1033.43 146.822 1033.43 146.273ZM1035.08 145.506V146.273C1035.08 146.68 1035.18 147.049 1035.38 147.381C1035.57 147.712 1035.91 147.878 1036.39 147.878C1036.87 147.878 1037.2 147.712 1037.39 147.381C1037.58 147.049 1037.68 146.68 1037.68 146.273V145.506C1037.68 145.098 1037.58 144.729 1037.4 144.398C1037.22 144.066 1036.88 143.901 1036.39 143.901C1035.92 143.901 1035.58 144.066 1035.38 144.398C1035.18 144.729 1035.08 145.098 1035.08 145.506ZM1026.11 137.949V137.182C1026.11 136.633 1026.23 136.128 1026.45 135.669C1026.69 135.21 1027.02 134.843 1027.46 134.568C1027.91 134.294 1028.45 134.156 1029.08 134.156C1029.72 134.156 1030.26 134.294 1030.69 134.568C1031.13 134.843 1031.46 135.21 1031.68 135.669C1031.9 136.128 1032.02 136.633 1032.02 137.182V137.949C1032.02 138.498 1031.9 139.002 1031.67 139.462C1031.45 139.916 1031.12 140.283 1030.68 140.562C1030.24 140.837 1029.71 140.974 1029.08 140.974C1028.43 140.974 1027.89 140.837 1027.45 140.562C1027.01 140.283 1026.68 139.916 1026.45 139.462C1026.23 139.002 1026.11 138.498 1026.11 137.949ZM1027.78 137.182V137.949C1027.78 138.356 1027.87 138.725 1028.06 139.057C1028.25 139.388 1028.59 139.554 1029.08 139.554C1029.55 139.554 1029.88 139.388 1030.07 139.057C1030.26 138.725 1030.36 138.356 1030.36 137.949V137.182C1030.36 136.775 1030.27 136.405 1030.08 136.074C1029.9 135.742 1029.56 135.577 1029.08 135.577C1028.6 135.577 1028.27 135.742 1028.07 136.074C1027.87 136.405 1027.78 136.775 1027.78 137.182ZM1026.79 149L1036.79 134.455H1038.49L1028.49 149H1026.79Z" fill="#CFCFCF"/>
<rect x="360" y="247" width="10" height="10" rx="5" fill="white" stroke="#04B34A" stroke-width="4"/>
<path opacity="0.6" d="M52.4964 412.326H50.1058C50.0376 411.934 49.9119 411.587 49.7287 411.284C49.5455 410.977 49.3175 410.717 49.0447 410.504C48.772 410.291 48.4609 410.131 48.1115 410.025C47.7663 409.914 47.3935 409.859 46.9929 409.859C46.2813 409.859 45.6506 410.038 45.1009 410.396C44.5511 410.749 44.1207 411.269 43.8097 411.955C43.4986 412.637 43.343 413.47 43.343 414.455C43.343 415.456 43.4986 416.3 43.8097 416.986C44.125 417.668 44.5554 418.183 45.1009 418.533C45.6506 418.878 46.2791 419.05 46.9865 419.05C47.3786 419.05 47.745 418.999 48.0859 418.897C48.4311 418.79 48.7401 418.635 49.0128 418.43C49.2898 418.226 49.522 417.974 49.7095 417.676C49.9013 417.378 50.0334 417.037 50.1058 416.653L52.4964 416.666C52.407 417.288 52.2131 417.872 51.9148 418.418C51.6207 418.963 51.2351 419.445 50.7578 419.862C50.2805 420.276 49.7223 420.599 49.0831 420.834C48.4439 421.064 47.7344 421.179 46.9545 421.179C45.804 421.179 44.777 420.913 43.8736 420.38C42.9702 419.847 42.2585 419.078 41.7386 418.072C41.2188 417.067 40.9588 415.861 40.9588 414.455C40.9588 413.044 41.2209 411.838 41.745 410.837C42.2692 409.831 42.983 409.062 43.8864 408.529C44.7898 407.996 45.8125 407.73 46.9545 407.73C47.6832 407.73 48.3608 407.832 48.9872 408.037C49.6136 408.241 50.1719 408.542 50.6619 408.938C51.152 409.33 51.5547 409.812 51.87 410.383C52.1896 410.95 52.3984 411.597 52.4964 412.326ZM56.4681 421V407.909H64.9824V409.897H58.8396V413.451H64.5413V415.439H58.8396V419.012H65.0335V421H56.4681ZM69.2017 421V407.909H71.5732V413.451H77.6392V407.909H80.0171V421H77.6392V415.439H71.5732V421H69.2017ZM83.821 409.897V407.909H94.2656V409.897H90.2194V421H87.8672V409.897H83.821ZM107.744 421H105.366V409.891H103.193C102.605 409.891 102.121 409.978 101.742 410.153C101.367 410.323 101.088 410.575 100.904 410.907C100.725 411.235 100.636 411.631 100.636 412.096C100.636 412.56 100.725 412.952 100.904 413.272C101.083 413.587 101.36 413.828 101.735 413.994C102.115 414.156 102.596 414.237 103.18 414.237H106.363V416.206H102.86C101.855 416.206 101.007 416.04 100.316 415.707C99.626 415.371 99.1018 414.896 98.7439 414.282C98.3902 413.664 98.2133 412.935 98.2133 412.096C98.2133 411.261 98.388 410.53 98.7375 409.903C99.0912 409.273 99.611 408.783 100.297 408.433C100.983 408.084 101.827 407.909 102.828 407.909H107.744V421ZM100.975 415.068H103.563L100.38 421H97.7339L100.975 415.068ZM112.113 421V407.909H120.532V409.897H114.485V412.965H117.01C118.011 412.965 118.87 413.129 119.586 413.457C120.306 413.781 120.858 414.239 121.241 414.832C121.625 415.424 121.817 416.121 121.817 416.922C121.817 417.727 121.625 418.437 121.241 419.05C120.858 419.66 120.306 420.137 119.586 420.482C118.87 420.827 118.011 421 117.01 421H112.113ZM114.485 419.057H117.01C117.538 419.057 117.986 418.957 118.352 418.756C118.719 418.556 118.996 418.292 119.183 417.964C119.375 417.636 119.471 417.28 119.471 416.896C119.471 416.342 119.258 415.871 118.831 415.484C118.41 415.092 117.802 414.896 117.01 414.896H114.485V419.057ZM125.691 421V407.909H130.6C131.606 407.909 132.449 408.097 133.131 408.472C133.817 408.847 134.335 409.362 134.684 410.018C135.038 410.67 135.215 411.412 135.215 412.243C135.215 413.082 135.038 413.828 134.684 414.48C134.331 415.132 133.809 415.646 133.118 416.021C132.428 416.391 131.578 416.577 130.568 416.577H127.314V414.627H130.248C130.836 414.627 131.318 414.525 131.693 414.32C132.068 414.116 132.345 413.835 132.524 413.477C132.707 413.119 132.799 412.707 132.799 412.243C132.799 411.778 132.707 411.369 132.524 411.016C132.345 410.662 132.066 410.387 131.687 410.191C131.312 409.991 130.828 409.891 130.236 409.891H128.062V421H125.691ZM140.679 412.965H144.003C145.004 412.965 145.863 413.129 146.579 413.457C147.299 413.781 147.851 414.239 148.235 414.832C148.618 415.424 148.81 416.121 148.81 416.922C148.81 417.727 148.618 418.437 148.235 419.05C147.851 419.66 147.299 420.137 146.579 420.482C145.863 420.827 145.004 421 144.003 421H139.1V407.909H141.478V419.057H144.003C144.531 419.057 144.979 418.957 145.345 418.756C145.712 418.556 145.989 418.292 146.176 417.964C146.368 417.636 146.464 417.28 146.464 416.896C146.464 416.342 146.251 415.871 145.825 415.484C145.403 415.092 144.796 414.896 144.003 414.896H140.679V412.965Z" fill="black"/>
<path opacity="0.6" d="M504.172 414.455C504.172 415.865 503.907 417.073 503.379 418.079C502.855 419.08 502.139 419.847 501.231 420.38C500.328 420.913 499.303 421.179 498.157 421.179C497.01 421.179 495.983 420.913 495.076 420.38C494.172 419.843 493.456 419.074 492.928 418.072C492.404 417.067 492.142 415.861 492.142 414.455C492.142 413.044 492.404 411.838 492.928 410.837C493.456 409.831 494.172 409.062 495.076 408.529C495.983 407.996 497.01 407.73 498.157 407.73C499.303 407.73 500.328 407.996 501.231 408.529C502.139 409.062 502.855 409.831 503.379 410.837C503.907 411.838 504.172 413.044 504.172 414.455ZM501.787 414.455C501.787 413.462 501.632 412.624 501.321 411.942C501.014 411.256 500.588 410.739 500.042 410.389C499.497 410.036 498.868 409.859 498.157 409.859C497.445 409.859 496.817 410.036 496.271 410.389C495.726 410.739 495.297 411.256 494.986 411.942C494.679 412.624 494.526 413.462 494.526 414.455C494.526 415.447 494.679 416.287 494.986 416.973C495.297 417.655 495.726 418.173 496.271 418.526C496.817 418.876 497.445 419.05 498.157 419.05C498.868 419.05 499.497 418.876 500.042 418.526C500.588 418.173 501.014 417.655 501.321 416.973C501.632 416.287 501.787 415.447 501.787 414.455ZM516.057 421L511.748 415.279H510.585V421H508.214V407.909H510.585V413.291H511.18L515.833 407.909H518.754L513.583 413.879L518.978 421H516.057ZM521.813 409.897V407.909H532.258V409.897H528.212V421H525.86V409.897H521.813ZM545.736 421H543.358V409.891H541.185C540.597 409.891 540.113 409.978 539.734 410.153C539.359 410.323 539.08 410.575 538.897 410.907C538.718 411.235 538.628 411.631 538.628 412.096C538.628 412.56 538.718 412.952 538.897 413.272C539.076 413.587 539.353 413.828 539.728 413.994C540.107 414.156 540.589 414.237 541.172 414.237H544.356V416.206H540.853C539.847 416.206 538.999 416.04 538.309 415.707C537.618 415.371 537.094 414.896 536.736 414.282C536.383 413.664 536.206 412.935 536.206 412.096C536.206 411.261 536.38 410.53 536.73 409.903C537.084 409.273 537.603 408.783 538.29 408.433C538.976 408.084 539.819 407.909 540.821 407.909H545.736V421ZM538.967 415.068H541.556L538.373 421H535.726L538.967 415.068ZM550.106 421V407.909H558.524V409.897H552.477V412.965H555.002C556.004 412.965 556.862 413.129 557.578 413.457C558.298 413.781 558.85 414.239 559.234 414.832C559.617 415.424 559.809 416.121 559.809 416.922C559.809 417.727 559.617 418.437 559.234 419.05C558.85 419.66 558.298 420.137 557.578 420.482C556.862 420.827 556.004 421 555.002 421H550.106ZM552.477 419.057H555.002C555.531 419.057 555.978 418.957 556.344 418.756C556.711 418.556 556.988 418.292 557.175 417.964C557.367 417.636 557.463 417.28 557.463 416.896C557.463 416.342 557.25 415.871 556.824 415.484C556.402 415.092 555.795 414.896 555.002 414.896H552.477V419.057ZM563.683 421V407.909H568.592C569.598 407.909 570.442 408.097 571.124 408.472C571.81 408.847 572.327 409.362 572.677 410.018C573.03 410.67 573.207 411.412 573.207 412.243C573.207 413.082 573.03 413.828 572.677 414.48C572.323 415.132 571.801 415.646 571.111 416.021C570.42 416.391 569.57 416.577 568.56 416.577H565.307V414.627H568.241C568.829 414.627 569.31 414.525 569.685 414.32C570.06 414.116 570.337 413.835 570.516 413.477C570.7 413.119 570.791 412.707 570.791 412.243C570.791 411.778 570.7 411.369 570.516 411.016C570.337 410.662 570.058 410.387 569.679 410.191C569.304 409.991 568.82 409.891 568.228 409.891H566.055V421H563.683ZM578.672 412.965H581.995C582.997 412.965 583.856 413.129 584.571 413.457C585.292 413.781 585.843 414.239 586.227 414.832C586.61 415.424 586.802 416.121 586.802 416.922C586.802 417.727 586.61 418.437 586.227 419.05C585.843 419.66 585.292 420.137 584.571 420.482C583.856 420.827 582.997 421 581.995 421H577.093V407.909H579.471V419.057H581.995C582.524 419.057 582.971 418.957 583.338 418.756C583.704 418.556 583.981 418.292 584.169 417.964C584.36 417.636 584.456 417.28 584.456 416.896C584.456 416.342 584.243 415.871 583.817 415.484C583.395 415.092 582.788 414.896 581.995 414.896H578.672V412.965Z" fill="black"/>
<path opacity="0.6" d="M957.32 421V407.909H959.692V413.451H965.758V407.909H968.136V421H965.758V415.439H959.692V421H957.32ZM984.212 414.455C984.212 415.865 983.948 417.073 983.42 418.079C982.896 419.08 982.18 419.847 981.272 420.38C980.369 420.913 979.344 421.179 978.198 421.179C977.051 421.179 976.024 420.913 975.117 420.38C974.213 419.843 973.497 419.074 972.969 418.072C972.445 417.067 972.183 415.861 972.183 414.455C972.183 413.044 972.445 411.838 972.969 410.837C973.497 409.831 974.213 409.062 975.117 408.529C976.024 407.996 977.051 407.73 978.198 407.73C979.344 407.73 980.369 407.996 981.272 408.529C982.18 409.062 982.896 409.831 983.42 410.837C983.948 411.838 984.212 413.044 984.212 414.455ZM981.828 414.455C981.828 413.462 981.673 412.624 981.362 411.942C981.055 411.256 980.629 410.739 980.083 410.389C979.538 410.036 978.909 409.859 978.198 409.859C977.486 409.859 976.857 410.036 976.312 410.389C975.766 410.739 975.338 411.256 975.027 411.942C974.72 412.624 974.567 413.462 974.567 414.455C974.567 415.447 974.72 416.287 975.027 416.973C975.338 417.655 975.766 418.173 976.312 418.526C976.857 418.876 977.486 419.05 978.198 419.05C978.909 419.05 979.538 418.876 980.083 418.526C980.629 418.173 981.055 417.655 981.362 416.973C981.673 416.287 981.828 415.447 981.828 414.455ZM997.919 421H995.541V409.891H993.368C992.78 409.891 992.296 409.978 991.917 410.153C991.542 410.323 991.263 410.575 991.08 410.907C990.901 411.235 990.811 411.631 990.811 412.096C990.811 412.56 990.901 412.952 991.08 413.272C991.259 413.587 991.536 413.828 991.911 413.994C992.29 414.156 992.772 414.237 993.355 414.237H996.539V416.206H993.036C992.03 416.206 991.182 416.04 990.492 415.707C989.801 415.371 989.277 414.896 988.919 414.282C988.566 413.664 988.389 412.935 988.389 412.096C988.389 411.261 988.563 410.53 988.913 409.903C989.267 409.273 989.786 408.783 990.473 408.433C991.159 408.084 992.002 407.909 993.004 407.909H997.919V421ZM991.15 415.068H993.739L990.556 421H987.909L991.15 415.068ZM1002.29 421V407.909H1010.71V409.897H1004.66V412.965H1007.19C1008.19 412.965 1009.05 413.129 1009.76 413.457C1010.48 413.781 1011.03 414.239 1011.42 414.832C1011.8 415.424 1011.99 416.121 1011.99 416.922C1011.99 417.727 1011.8 418.437 1011.42 419.05C1011.03 419.66 1010.48 420.137 1009.76 420.482C1009.05 420.827 1008.19 421 1007.19 421H1002.29ZM1004.66 419.057H1007.19C1007.71 419.057 1008.16 418.957 1008.53 418.756C1008.89 418.556 1009.17 418.292 1009.36 417.964C1009.55 417.636 1009.65 417.28 1009.65 416.896C1009.65 416.342 1009.43 415.871 1009.01 415.484C1008.59 415.092 1007.98 414.896 1007.19 414.896H1004.66V419.057ZM1015.87 421V407.909H1020.78C1021.78 407.909 1022.62 408.097 1023.31 408.472C1023.99 408.847 1024.51 409.362 1024.86 410.018C1025.21 410.67 1025.39 411.412 1025.39 412.243C1025.39 413.082 1025.21 413.828 1024.86 414.48C1024.51 415.132 1023.98 415.646 1023.29 416.021C1022.6 416.391 1021.75 416.577 1020.74 416.577H1017.49V414.627H1020.42C1021.01 414.627 1021.49 414.525 1021.87 414.32C1022.24 414.116 1022.52 413.835 1022.7 413.477C1022.88 413.119 1022.97 412.707 1022.97 412.243C1022.97 411.778 1022.88 411.369 1022.7 411.016C1022.52 410.662 1022.24 410.387 1021.86 410.191C1021.49 409.991 1021 409.891 1020.41 409.891H1018.24V421H1015.87ZM1030.85 412.965H1034.18C1035.18 412.965 1036.04 413.129 1036.75 413.457C1037.47 413.781 1038.03 414.239 1038.41 414.832C1038.79 415.424 1038.99 416.121 1038.99 416.922C1038.99 417.727 1038.79 418.437 1038.41 419.05C1038.03 419.66 1037.47 420.137 1036.75 420.482C1036.04 420.827 1035.18 421 1034.18 421H1029.28V407.909H1031.65V419.057H1034.18C1034.71 419.057 1035.15 418.957 1035.52 418.756C1035.89 418.556 1036.16 418.292 1036.35 417.964C1036.54 417.636 1036.64 417.28 1036.64 416.896C1036.64 416.342 1036.43 415.871 1036 415.484C1035.58 415.092 1034.97 414.896 1034.18 414.896H1030.85V412.965Z" fill="black"/>
<defs>
<linearGradient id="paint0_linear_2766_1515" x1="540" y1="-122.794" x2="540" y2="439" gradientUnits="userSpaceOnUse">
<stop stop-color="#04B34A"/>
<stop offset="0.0666667" stop-color="#04B34A" stop-opacity="0.991353"/>
<stop offset="0.133333" stop-color="#04B34A" stop-opacity="0.96449"/>
<stop offset="0.2" stop-color="#04B34A" stop-opacity="0.91834"/>
<stop offset="0.266667" stop-color="#04B34A" stop-opacity="0.852589"/>
<stop offset="0.333333" stop-color="#04B34A" stop-opacity="0.768225"/>
<stop offset="0.4" stop-color="#04B34A" stop-opacity="0.668116"/>
<stop offset="0.466667" stop-color="#04B34A" stop-opacity="0.557309"/>
<stop offset="0.533333" stop-color="#04B34A" stop-opacity="0.442691"/>
<stop offset="0.6" stop-color="#04B34A" stop-opacity="0.331884"/>
<stop offset="0.666667" stop-color="#04B34A" stop-opacity="0.231775"/>
<stop offset="0.733333" stop-color="#04B34A" stop-opacity="0.147411"/>
<stop offset="0.8" stop-color="#04B34A" stop-opacity="0.0816599"/>
<stop offset="0.866667" stop-color="#04B34A" stop-opacity="0.03551"/>
<stop offset="0.933333" stop-color="#04B34A" stop-opacity="0.01"/>
<stop offset="1" stop-color="#04B34A" stop-opacity="0"/>
</linearGradient>
</defs>
</svg>
