<svg width="1080" height="772" viewBox="0 0 1080 772" fill="none" xmlns="http://www.w3.org/2000/svg">
<rect width="1080" height="772" fill="white"/>
<path d="M915.587 49L912.911 64.8629H915.891L914.181 75H908.668L909.483 70.1698H895.329L894.514 75H889L890.71 64.8629H892.824C893.79 63.5513 894.707 61.8209 895.74 58.1838L898.364 49H915.59H915.587ZM908.584 54.3069H902.535L901.369 58.3918C900.354 61.9393 899.515 63.5484 898.667 64.8629H906.805L908.584 54.3069Z" fill="#EAECEF"/>
<path d="M920.448 49H933.56C938.18 49 940.257 51.3544 939.681 54.7547C939.314 56.93 937.677 58.3311 936.141 58.958C937.818 59.6138 939.146 61.2836 938.663 64.1464C938.05 67.7836 935.085 70.1698 930.167 70.1698H916.875L920.448 49ZM924.295 61.7024L923.67 65.4002H929.69C931.298 65.4002 932.293 64.8051 932.504 63.5513C932.721 62.2687 931.923 61.7024 930.312 61.7024H924.292H924.295ZM925.631 53.7724L925.099 56.9329H931.029C932.282 56.9329 933.161 56.4851 933.352 55.3527C933.543 54.2202 932.814 53.7724 931.561 53.7724H925.631Z" fill="#EAECEF"/>
<path d="M943.47 49H949.579L947.427 61.7602L958.906 49H965.015L961.445 70.1698H955.336L957.479 57.4673L946.01 70.1698H939.9L943.47 49Z" fill="#EAECEF"/>
<path d="M974.098 59.1978L966.907 49H973.821L979.812 57.6464L981.272 49H987.084L985.626 57.6464L994.536 49H1001.3L990.954 58.9291L998.177 70.1698H990.815L985.039 61.1362L983.514 70.1698H977.703L979.227 61.1362L970.402 70.1698H963.309L974.101 59.1978H974.098Z" fill="#EAECEF"/>
<path d="M1010.23 49H1003.13L1010.19 58.9291L999.713 70.1698H1006.81L1017.29 58.9291L1010.23 49ZM1021.44 49H1014.34L1021.41 58.9291L1010.93 70.1698H1018.02L1028.5 58.9291L1021.44 49ZM1032.94 49H1025.85L1032.91 58.9291L1022.43 70.1698H1029.52L1040 58.9291L1032.94 49Z" fill="#EAECEF"/>
<path d="M64.5327 48.8182V75H59.0611V53.3182H48.4759V75H43.0043V48.8182H64.5327ZM68.2606 82.3636V55.3636H73.63V58.6619H73.8729C74.1115 58.1335 74.4567 57.5966 74.9084 57.0511C75.3686 56.4972 75.9652 56.0369 76.6981 55.6705C77.4396 55.2955 78.3601 55.108 79.4595 55.108C80.8913 55.108 82.2123 55.483 83.4226 56.233C84.6328 56.9744 85.6001 58.0952 86.3246 59.5952C87.049 61.0866 87.4112 62.9574 87.4112 65.2074C87.4112 67.3977 87.0575 69.2472 86.3501 70.7557C85.6513 72.2557 84.6967 73.3935 83.4865 74.169C82.2848 74.9361 80.9382 75.3196 79.4467 75.3196C78.3899 75.3196 77.4908 75.1449 76.7493 74.7955C76.0163 74.446 75.4155 74.0071 74.9467 73.4787C74.478 72.9418 74.12 72.4006 73.8729 71.8551H73.7067V82.3636H68.2606ZM73.5916 65.1818C73.5916 66.3494 73.7535 67.3679 74.0774 68.2372C74.4013 69.1065 74.87 69.7841 75.4837 70.2699C76.0973 70.7472 76.843 70.9858 77.7209 70.9858C78.6072 70.9858 79.3572 70.7429 79.9709 70.2571C80.5845 69.7628 81.049 69.081 81.3643 68.2116C81.6882 67.3338 81.8501 66.3239 81.8501 65.1818C81.8501 64.0483 81.6925 63.0511 81.3771 62.1903C81.0618 61.3295 80.5973 60.6562 79.9837 60.1705C79.37 59.6847 78.6158 59.4418 77.7209 59.4418C76.8345 59.4418 76.0845 59.6761 75.4709 60.1449C74.8658 60.6136 74.4013 61.2784 74.0774 62.1392C73.7535 63 73.5916 64.0142 73.5916 65.1818ZM98.474 75.3835C96.4883 75.3835 94.7709 74.9616 93.3221 74.1179C91.8817 73.2656 90.7695 72.081 89.9854 70.5639C89.2013 69.0384 88.8093 67.2699 88.8093 65.2585C88.8093 63.2301 89.2013 61.4574 89.9854 59.9403C90.7695 58.4148 91.8817 57.2301 93.3221 56.3864C94.7709 55.5341 96.4883 55.108 98.474 55.108C100.46 55.108 102.173 55.5341 103.613 56.3864C105.062 57.2301 106.179 58.4148 106.963 59.9403C107.747 61.4574 108.139 63.2301 108.139 65.2585C108.139 67.2699 107.747 69.0384 106.963 70.5639C106.179 72.081 105.062 73.2656 103.613 74.1179C102.173 74.9616 100.46 75.3835 98.474 75.3835ZM98.4996 71.1648C99.403 71.1648 100.157 70.9091 100.762 70.3977C101.368 69.8778 101.823 69.1705 102.13 68.2756C102.446 67.3807 102.603 66.3622 102.603 65.2202C102.603 64.0781 102.446 63.0597 102.13 62.1648C101.823 61.2699 101.368 60.5625 100.762 60.0426C100.157 59.5227 99.403 59.2628 98.4996 59.2628C97.5877 59.2628 96.8206 59.5227 96.1985 60.0426C95.5848 60.5625 95.1204 61.2699 94.805 62.1648C94.4982 63.0597 94.3448 64.0781 94.3448 65.2202C94.3448 66.3622 94.4982 67.3807 94.805 68.2756C95.1204 69.1705 95.5848 69.8778 96.1985 70.3977C96.8206 70.9091 97.5877 71.1648 98.4996 71.1648ZM127.409 55.3636V71.2415H130.541V81.3153H125.249V75H110.24V55.3636H115.443V70.7173H122.27V55.3636H127.409ZM141.198 75.3835C139.178 75.3835 137.44 74.9744 135.982 74.1562C134.533 73.3295 133.417 72.1619 132.633 70.6534C131.849 69.1364 131.457 67.3423 131.457 65.2713C131.457 63.2514 131.849 61.4787 132.633 59.9531C133.417 58.4276 134.521 57.2386 135.944 56.3864C137.376 55.5341 139.055 55.108 140.981 55.108C142.276 55.108 143.482 55.3168 144.599 55.7344C145.724 56.1435 146.704 56.7614 147.539 57.5881C148.383 58.4148 149.039 59.4545 149.508 60.7074C149.977 61.9517 150.211 63.4091 150.211 65.0795V66.5753H133.63V63.2003H145.084C145.084 62.4162 144.914 61.7216 144.573 61.1165C144.232 60.5114 143.759 60.0384 143.154 59.6974C142.557 59.348 141.863 59.1733 141.07 59.1733C140.244 59.1733 139.511 59.3651 138.871 59.7486C138.241 60.1236 137.746 60.6307 137.388 61.2699C137.03 61.9006 136.847 62.6037 136.839 63.3793V66.5881C136.839 67.5597 137.018 68.3991 137.376 69.1065C137.742 69.8139 138.258 70.3594 138.923 70.7429C139.587 71.1264 140.376 71.3182 141.288 71.3182C141.893 71.3182 142.447 71.233 142.95 71.0625C143.452 70.892 143.883 70.6364 144.241 70.2955C144.599 69.9545 144.871 69.5369 145.059 69.0426L150.096 69.375C149.84 70.5852 149.316 71.642 148.523 72.5455C147.739 73.4403 146.725 74.1392 145.481 74.642C144.245 75.1364 142.817 75.3835 141.198 75.3835ZM165.991 63.0085V67.2912H155.738V63.0085H165.991ZM157.528 55.3636V75H152.325V55.3636H157.528ZM169.404 55.3636V75H164.24V55.3636H169.404ZM170.218 59.6463V55.3636H188.013V59.6463H181.685V75H176.495V59.6463H170.218ZM205.639 75.3835C203.653 75.3835 201.936 74.9616 200.487 74.1179C199.046 73.2656 197.934 72.081 197.15 70.5639C196.366 69.0384 195.974 67.2699 195.974 65.2585C195.974 63.2301 196.366 61.4574 197.15 59.9403C197.934 58.4148 199.046 57.2301 200.487 56.3864C201.936 55.5341 203.653 55.108 205.639 55.108C207.625 55.108 209.338 55.5341 210.778 56.3864C212.227 57.2301 213.343 58.4148 214.127 59.9403C214.911 61.4574 215.304 63.2301 215.304 65.2585C215.304 67.2699 214.911 69.0384 214.127 70.5639C213.343 72.081 212.227 73.2656 210.778 74.1179C209.338 74.9616 207.625 75.3835 205.639 75.3835ZM205.664 71.1648C206.568 71.1648 207.322 70.9091 207.927 70.3977C208.532 69.8778 208.988 69.1705 209.295 68.2756C209.61 67.3807 209.768 66.3622 209.768 65.2202C209.768 64.0781 209.61 63.0597 209.295 62.1648C208.988 61.2699 208.532 60.5625 207.927 60.0426C207.322 59.5227 206.568 59.2628 205.664 59.2628C204.752 59.2628 203.985 59.5227 203.363 60.0426C202.75 60.5625 202.285 61.2699 201.97 62.1648C201.663 63.0597 201.509 64.0781 201.509 65.2202C201.509 66.3622 201.663 67.3807 201.97 68.2756C202.285 69.1705 202.75 69.8778 203.363 70.3977C203.985 70.9091 204.752 71.1648 205.664 71.1648ZM215.871 80.7528V70.679H217.379C217.814 70.4062 218.163 69.9716 218.427 69.375C218.7 68.7784 218.922 68.0753 219.092 67.2656C219.271 66.456 219.408 65.5824 219.501 64.6449C219.604 63.6989 219.693 62.7443 219.77 61.7812L220.281 55.3636H235.341V70.679H238.383V80.7528H233.193V75H221.189V80.7528H215.871ZM222.8 70.679H230.202V59.5568H224.909L224.704 61.7812C224.56 63.8778 224.351 65.6591 224.078 67.125C223.805 68.5824 223.379 69.767 222.8 70.679ZM248.989 75.3835C247.003 75.3835 245.286 74.9616 243.837 74.1179C242.397 73.2656 241.285 72.081 240.501 70.5639C239.716 69.0384 239.324 67.2699 239.324 65.2585C239.324 63.2301 239.716 61.4574 240.501 59.9403C241.285 58.4148 242.397 57.2301 243.837 56.3864C245.286 55.5341 247.003 55.108 248.989 55.108C250.975 55.108 252.688 55.5341 254.128 56.3864C255.577 57.2301 256.694 58.4148 257.478 59.9403C258.262 61.4574 258.654 63.2301 258.654 65.2585C258.654 67.2699 258.262 69.0384 257.478 70.5639C256.694 72.081 255.577 73.2656 254.128 74.1179C252.688 74.9616 250.975 75.3835 248.989 75.3835ZM249.015 71.1648C249.918 71.1648 250.672 70.9091 251.278 70.3977C251.883 69.8778 252.339 69.1705 252.645 68.2756C252.961 67.3807 253.118 66.3622 253.118 65.2202C253.118 64.0781 252.961 63.0597 252.645 62.1648C252.339 61.2699 251.883 60.5625 251.278 60.0426C250.672 59.5227 249.918 59.2628 249.015 59.2628C248.103 59.2628 247.336 59.5227 246.714 60.0426C246.1 60.5625 245.636 61.2699 245.32 62.1648C245.013 63.0597 244.86 64.0781 244.86 65.2202C244.86 66.3622 245.013 67.3807 245.32 68.2756C245.636 69.1705 246.1 69.8778 246.714 70.3977C247.336 70.9091 248.103 71.1648 249.015 71.1648ZM277.08 48.1534L278.742 51.7074C278.188 52.1676 277.575 52.5085 276.901 52.7301C276.228 52.9432 275.423 53.0838 274.485 53.152C273.556 53.2202 272.423 53.267 271.085 53.2926C269.568 53.3097 268.332 53.5526 267.377 54.0213C266.423 54.4901 265.698 55.2273 265.204 56.233C264.71 57.2301 264.386 58.5341 264.232 60.1449H264.424C265.012 58.9432 265.839 58.0142 266.904 57.358C267.978 56.7017 269.303 56.3736 270.88 56.3736C272.551 56.3736 274.012 56.7401 275.265 57.473C276.526 58.206 277.507 59.2585 278.205 60.6307C278.904 62.0028 279.254 63.6477 279.254 65.5653C279.254 67.5597 278.862 69.294 278.078 70.7685C277.302 72.2344 276.198 73.3722 274.767 74.1818C273.335 74.983 271.63 75.3835 269.653 75.3835C267.667 75.3835 265.954 74.9659 264.514 74.1307C263.082 73.2955 261.974 72.0639 261.19 70.4361C260.414 68.8082 260.026 66.8054 260.026 64.4276V62.8168C260.026 58.0866 260.947 54.5795 262.788 52.2955C264.629 50.0114 267.335 48.8523 270.906 48.8182C271.877 48.8011 272.755 48.7969 273.539 48.8054C274.323 48.8139 275.009 48.7756 275.598 48.6903C276.194 48.6051 276.688 48.4261 277.08 48.1534ZM269.678 71.1648C270.514 71.1648 271.23 70.9474 271.826 70.5128C272.431 70.0781 272.896 69.456 273.22 68.6463C273.552 67.8366 273.718 66.8693 273.718 65.7443C273.718 64.6278 273.552 63.6818 273.22 62.9062C272.896 62.1222 272.431 61.5256 271.826 61.1165C271.221 60.7074 270.497 60.5028 269.653 60.5028C269.022 60.5028 268.455 60.6179 267.953 60.848C267.45 61.0781 267.019 61.419 266.661 61.8707C266.312 62.3139 266.039 62.8636 265.843 63.5199C265.656 64.1676 265.562 64.9091 265.562 65.7443C265.562 67.4233 265.924 68.7486 266.649 69.7202C267.382 70.6832 268.392 71.1648 269.678 71.1648ZM281.428 82.3636V55.3636H286.798V58.6619H287.041C287.279 58.1335 287.624 57.5966 288.076 57.0511C288.536 56.4972 289.133 56.0369 289.866 55.6705C290.607 55.2955 291.528 55.108 292.627 55.108C294.059 55.108 295.38 55.483 296.59 56.233C297.801 56.9744 298.768 58.0952 299.492 59.5952C300.217 61.0866 300.579 62.9574 300.579 65.2074C300.579 67.3977 300.225 69.2472 299.518 70.7557C298.819 72.2557 297.865 73.3935 296.654 74.169C295.453 74.9361 294.106 75.3196 292.615 75.3196C291.558 75.3196 290.659 75.1449 289.917 74.7955C289.184 74.446 288.583 74.0071 288.115 73.4787C287.646 72.9418 287.288 72.4006 287.041 71.8551H286.874V82.3636H281.428ZM286.759 65.1818C286.759 66.3494 286.921 67.3679 287.245 68.2372C287.569 69.1065 288.038 69.7841 288.651 70.2699C289.265 70.7472 290.011 70.9858 290.889 70.9858C291.775 70.9858 292.525 70.7429 293.139 70.2571C293.752 69.7628 294.217 69.081 294.532 68.2116C294.856 67.3338 295.018 66.3239 295.018 65.1818C295.018 64.0483 294.86 63.0511 294.545 62.1903C294.23 61.3295 293.765 60.6562 293.151 60.1705C292.538 59.6847 291.784 59.4418 290.889 59.4418C290.002 59.4418 289.252 59.6761 288.639 60.1449C288.034 60.6136 287.569 61.2784 287.245 62.1392C286.921 63 286.759 64.0142 286.759 65.1818ZM311.719 75.3835C309.699 75.3835 307.96 74.9744 306.503 74.1562C305.054 73.3295 303.937 72.1619 303.153 70.6534C302.369 69.1364 301.977 67.3423 301.977 65.2713C301.977 63.2514 302.369 61.4787 303.153 59.9531C303.937 58.4276 305.041 57.2386 306.464 56.3864C307.896 55.5341 309.575 55.108 311.501 55.108C312.797 55.108 314.003 55.3168 315.119 55.7344C316.244 56.1435 317.224 56.7614 318.059 57.5881C318.903 58.4148 319.559 59.4545 320.028 60.7074C320.497 61.9517 320.731 63.4091 320.731 65.0795V66.5753H304.15V63.2003H315.605C315.605 62.4162 315.434 61.7216 315.094 61.1165C314.753 60.5114 314.28 60.0384 313.675 59.6974C313.078 59.348 312.383 59.1733 311.591 59.1733C310.764 59.1733 310.031 59.3651 309.392 59.7486C308.761 60.1236 308.267 60.6307 307.909 61.2699C307.551 61.9006 307.368 62.6037 307.359 63.3793V66.5881C307.359 67.5597 307.538 68.3991 307.896 69.1065C308.263 69.8139 308.778 70.3594 309.443 70.7429C310.108 71.1264 310.896 71.3182 311.808 71.3182C312.413 71.3182 312.967 71.233 313.47 71.0625C313.973 70.892 314.403 70.6364 314.761 70.2955C315.119 69.9545 315.392 69.5369 315.579 69.0426L320.616 69.375C320.361 70.5852 319.836 71.642 319.044 72.5455C318.26 73.4403 317.246 74.1392 316.001 74.642C314.765 75.1364 313.338 75.3835 311.719 75.3835ZM336.512 63.0085V67.2912H326.259V63.0085H336.512ZM328.048 55.3636V75H322.845V55.3636H328.048ZM339.925 55.3636V75H334.76V55.3636H339.925ZM347.913 67.8153L354.983 55.3636H360.352V75H355.162V62.5099L348.118 75H342.71V55.3636H347.913V67.8153ZM374.784 75V59.6335H371.102C370.105 59.6335 369.346 59.8636 368.826 60.3239C368.306 60.7841 368.051 61.3295 368.059 61.9602C368.051 62.5994 368.298 63.1406 368.801 63.5838C369.312 64.0185 370.062 64.2358 371.051 64.2358H376.599V67.9176H371.051C369.372 67.9176 367.918 67.6619 366.691 67.1506C365.464 66.6392 364.518 65.9276 363.853 65.0156C363.188 64.0952 362.86 63.0256 362.869 61.8068C362.86 60.5284 363.188 59.4077 363.853 58.4446C364.518 57.473 365.468 56.7187 366.704 56.1818C367.948 55.6364 369.414 55.3636 371.102 55.3636H379.859V75H374.784ZM362.306 75L367.765 64.7727H372.968L367.522 75H362.306ZM389.542 75V55.3636H406.711V75H401.508V59.6463H394.682V75H389.542ZM418.49 75.3835C416.504 75.3835 414.787 74.9616 413.338 74.1179C411.898 73.2656 410.786 72.081 410.001 70.5639C409.217 69.0384 408.825 67.2699 408.825 65.2585C408.825 63.2301 409.217 61.4574 410.001 59.9403C410.786 58.4148 411.898 57.2301 413.338 56.3864C414.787 55.5341 416.504 55.108 418.49 55.108C420.476 55.108 422.189 55.5341 423.629 56.3864C425.078 57.2301 426.195 58.4148 426.979 59.9403C427.763 61.4574 428.155 63.2301 428.155 65.2585C428.155 67.2699 427.763 69.0384 426.979 70.5639C426.195 72.081 425.078 73.2656 423.629 74.1179C422.189 74.9616 420.476 75.3835 418.49 75.3835ZM418.516 71.1648C419.419 71.1648 420.173 70.9091 420.778 70.3977C421.384 69.8778 421.84 69.1705 422.146 68.2756C422.462 67.3807 422.619 66.3622 422.619 65.2202C422.619 64.0781 422.462 63.0597 422.146 62.1648C421.84 61.2699 421.384 60.5625 420.778 60.0426C420.173 59.5227 419.419 59.2628 418.516 59.2628C417.604 59.2628 416.837 59.5227 416.215 60.0426C415.601 60.5625 415.136 61.2699 414.821 62.1648C414.514 63.0597 414.361 64.0781 414.361 65.2202C414.361 66.3622 414.514 67.3807 414.821 68.2756C415.136 69.1705 415.601 69.8778 416.215 70.3977C416.837 70.9091 417.604 71.1648 418.516 71.1648ZM437.148 82.3636V55.3636H442.517V58.6619H442.76C442.999 58.1335 443.344 57.5966 443.796 57.0511C444.256 56.4972 444.853 56.0369 445.586 55.6705C446.327 55.2955 447.248 55.108 448.347 55.108C449.779 55.108 451.1 55.483 452.31 56.233C453.52 56.9744 454.488 58.0952 455.212 59.5952C455.937 61.0866 456.299 62.9574 456.299 65.2074C456.299 67.3977 455.945 69.2472 455.238 70.7557C454.539 72.2557 453.584 73.3935 452.374 74.169C451.172 74.9361 449.826 75.3196 448.334 75.3196C447.277 75.3196 446.378 75.1449 445.637 74.7955C444.904 74.446 444.303 74.0071 443.834 73.4787C443.365 72.9418 443.008 72.4006 442.76 71.8551H442.594V82.3636H437.148ZM442.479 65.1818C442.479 66.3494 442.641 67.3679 442.965 68.2372C443.289 69.1065 443.758 69.7841 444.371 70.2699C444.985 70.7472 445.731 70.9858 446.608 70.9858C447.495 70.9858 448.245 70.7429 448.858 70.2571C449.472 69.7628 449.937 69.081 450.252 68.2116C450.576 67.3338 450.738 66.3239 450.738 65.1818C450.738 64.0483 450.58 63.0511 450.265 62.1903C449.949 61.3295 449.485 60.6562 448.871 60.1705C448.258 59.6847 447.503 59.4418 446.608 59.4418C445.722 59.4418 444.972 59.6761 444.358 60.1449C443.753 60.6136 443.289 61.2784 442.965 62.1392C442.641 63 442.479 64.0142 442.479 65.1818ZM467.438 75.3835C465.418 75.3835 463.68 74.9744 462.222 74.1562C460.773 73.3295 459.657 72.1619 458.873 70.6534C458.089 69.1364 457.697 67.3423 457.697 65.2713C457.697 63.2514 458.089 61.4787 458.873 59.9531C459.657 58.4276 460.761 57.2386 462.184 56.3864C463.616 55.5341 465.295 55.108 467.221 55.108C468.516 55.108 469.722 55.3168 470.839 55.7344C471.964 56.1435 472.944 56.7614 473.779 57.5881C474.623 58.4148 475.279 59.4545 475.748 60.7074C476.217 61.9517 476.451 63.4091 476.451 65.0795V66.5753H459.87V63.2003H471.325C471.325 62.4162 471.154 61.7216 470.813 61.1165C470.472 60.5114 469.999 60.0384 469.394 59.6974C468.798 59.348 468.103 59.1733 467.31 59.1733C466.484 59.1733 465.751 59.3651 465.112 59.7486C464.481 60.1236 463.987 60.6307 463.629 61.2699C463.271 61.9006 463.087 62.6037 463.079 63.3793V66.5881C463.079 67.5597 463.258 68.3991 463.616 69.1065C463.982 69.8139 464.498 70.3594 465.163 70.7429C465.827 71.1264 466.616 71.3182 467.528 71.3182C468.133 71.3182 468.687 71.233 469.19 71.0625C469.693 70.892 470.123 70.6364 470.481 70.2955C470.839 69.9545 471.112 69.5369 471.299 69.0426L476.336 69.375C476.08 70.5852 475.556 71.642 474.764 72.5455C473.979 73.4403 472.965 74.1392 471.721 74.642C470.485 75.1364 469.058 75.3835 467.438 75.3835ZM492.014 55.3636V59.6463H483.858V75H478.565V55.3636H492.014ZM499.098 67.8153L506.167 55.3636H511.537V75H506.346V62.5099L499.302 75H493.895V55.3636H499.098V67.8153ZM523.335 75.3835C521.349 75.3835 519.631 74.9616 518.183 74.1179C516.742 73.2656 515.63 72.081 514.846 70.5639C514.062 69.0384 513.67 67.2699 513.67 65.2585C513.67 63.2301 514.062 61.4574 514.846 59.9403C515.63 58.4148 516.742 57.2301 518.183 56.3864C519.631 55.5341 521.349 55.108 523.335 55.108C525.32 55.108 527.033 55.5341 528.474 56.3864C529.923 57.2301 531.039 58.4148 531.823 59.9403C532.607 61.4574 532.999 63.2301 532.999 65.2585C532.999 67.2699 532.607 69.0384 531.823 70.5639C531.039 72.081 529.923 73.2656 528.474 74.1179C527.033 74.9616 525.32 75.3835 523.335 75.3835ZM523.36 71.1648C524.263 71.1648 525.018 70.9091 525.623 70.3977C526.228 69.8778 526.684 69.1705 526.991 68.2756C527.306 67.3807 527.464 66.3622 527.464 65.2202C527.464 64.0781 527.306 63.0597 526.991 62.1648C526.684 61.2699 526.228 60.5625 525.623 60.0426C525.018 59.5227 524.263 59.2628 523.36 59.2628C522.448 59.2628 521.681 59.5227 521.059 60.0426C520.445 60.5625 519.981 61.2699 519.665 62.1648C519.359 63.0597 519.205 64.0781 519.205 65.2202C519.205 66.3622 519.359 67.3807 519.665 68.2756C519.981 69.1705 520.445 69.8778 521.059 70.3977C521.681 70.9091 522.448 71.1648 523.36 71.1648ZM548.767 63.0085V67.2912H538.514V63.0085H548.767ZM540.304 55.3636V75H535.1V55.3636H540.304ZM552.18 55.3636V75H547.015V55.3636H552.18ZM560.565 75.3707C559.312 75.3707 558.195 75.1534 557.215 74.7188C556.235 74.2756 555.459 73.6236 554.888 72.7628C554.326 71.8935 554.045 70.8111 554.045 69.5156C554.045 68.4247 554.245 67.5085 554.646 66.767C555.046 66.0256 555.592 65.429 556.282 64.9773C556.972 64.5256 557.756 64.1847 558.634 63.9545C559.521 63.7244 560.45 63.5625 561.421 63.4688C562.563 63.3494 563.484 63.2386 564.182 63.1364C564.881 63.0256 565.388 62.8636 565.704 62.6506C566.019 62.4375 566.177 62.1222 566.177 61.7045V61.6278C566.177 60.8182 565.921 60.1918 565.41 59.7486C564.907 59.3054 564.191 59.0838 563.262 59.0838C562.282 59.0838 561.502 59.3011 560.923 59.7358C560.343 60.1619 559.959 60.6989 559.772 61.3466L554.735 60.9375C554.991 59.7443 555.494 58.7131 556.244 57.8438C556.994 56.9659 557.961 56.2926 559.146 55.8239C560.339 55.3466 561.719 55.108 563.288 55.108C564.379 55.108 565.423 55.2358 566.42 55.4915C567.425 55.7472 568.316 56.1435 569.092 56.6804C569.876 57.2173 570.494 57.9077 570.945 58.7514C571.397 59.5866 571.623 60.5881 571.623 61.7557V75H566.458V72.277H566.305C565.989 72.8906 565.567 73.4318 565.039 73.9006C564.511 74.3608 563.876 74.723 563.134 74.9872C562.393 75.2429 561.536 75.3707 560.565 75.3707ZM562.124 71.6122C562.925 71.6122 563.633 71.4545 564.246 71.1392C564.86 70.8153 565.342 70.3807 565.691 69.8352C566.04 69.2898 566.215 68.6719 566.215 67.9815V65.8977C566.045 66.0085 565.81 66.1108 565.512 66.2045C565.222 66.2898 564.894 66.3707 564.528 66.4474C564.161 66.5156 563.795 66.5795 563.428 66.6392C563.062 66.6903 562.729 66.7372 562.431 66.7798C561.792 66.8736 561.234 67.0227 560.756 67.2273C560.279 67.4318 559.908 67.7088 559.644 68.0582C559.38 68.3991 559.248 68.8253 559.248 69.3366C559.248 70.0781 559.516 70.6449 560.053 71.0369C560.599 71.4205 561.289 71.6122 562.124 71.6122ZM586.016 68.9787L591.334 55.3636H595.476L587.818 75H584.201L576.722 55.3636H580.851L586.016 68.9787ZM579.611 55.3636V75H574.408V55.3636H579.611ZM592.689 75V55.3636H597.828V75H592.689Z" fill="black"/>
<rect x="40" y="124" width="491" height="295" rx="20" fill="#F7F7F7"/>
<path opacity="0.6" d="M56.2912 142.909H59.1932L63.0795 152.395H63.233L67.1193 142.909H70.0213V156H67.7457V147.006H67.6243L64.0064 155.962H62.3061L58.6882 146.987H58.5668V156H56.2912V142.909ZM86.1011 149.455C86.1011 150.865 85.8369 152.073 85.3085 153.079C84.7844 154.08 84.0685 154.847 83.1608 155.38C82.2574 155.913 81.2325 156.179 80.0862 156.179C78.9399 156.179 77.9129 155.913 77.0053 155.38C76.1018 154.843 75.3859 154.074 74.8575 153.072C74.3334 152.067 74.0713 150.861 74.0713 149.455C74.0713 148.044 74.3334 146.838 74.8575 145.837C75.3859 144.831 76.1018 144.062 77.0053 143.529C77.9129 142.996 78.9399 142.73 80.0862 142.73C81.2325 142.73 82.2574 142.996 83.1608 143.529C84.0685 144.062 84.7844 144.831 85.3085 145.837C85.8369 146.838 86.1011 148.044 86.1011 149.455ZM83.7169 149.455C83.7169 148.462 83.5614 147.624 83.2503 146.942C82.9435 146.256 82.5173 145.739 81.9719 145.389C81.4264 145.036 80.7979 144.859 80.0862 144.859C79.3746 144.859 78.746 145.036 78.2006 145.389C77.6551 145.739 77.2268 146.256 76.9158 146.942C76.6089 147.624 76.4555 148.462 76.4555 149.455C76.4555 150.447 76.6089 151.287 76.9158 151.973C77.2268 152.655 77.6551 153.173 78.2006 153.526C78.746 153.876 79.3746 154.05 80.0862 154.05C80.7979 154.05 81.4264 153.876 81.9719 153.526C82.5173 153.173 82.9435 152.655 83.2503 151.973C83.5614 151.287 83.7169 150.447 83.7169 149.455ZM101.348 147.326H98.9578C98.8896 146.934 98.7639 146.587 98.5806 146.284C98.3974 145.977 98.1694 145.717 97.8967 145.504C97.624 145.291 97.3129 145.131 96.9635 145.025C96.6183 144.914 96.2454 144.859 95.8448 144.859C95.1332 144.859 94.5025 145.038 93.9528 145.396C93.4031 145.749 92.9727 146.269 92.6616 146.955C92.3505 147.637 92.195 148.47 92.195 149.455C92.195 150.456 92.3505 151.3 92.6616 151.986C92.977 152.668 93.4073 153.183 93.9528 153.533C94.5025 153.878 95.1311 154.05 95.8385 154.05C96.2305 154.05 96.597 153.999 96.9379 153.897C97.2831 153.79 97.592 153.635 97.8647 153.43C98.1417 153.226 98.374 152.974 98.5615 152.676C98.7532 152.378 98.8853 152.037 98.9578 151.653L101.348 151.666C101.259 152.288 101.065 152.872 100.767 153.418C100.473 153.963 100.087 154.445 99.6098 154.862C99.1325 155.276 98.5743 155.599 97.935 155.834C97.2958 156.064 96.5863 156.179 95.8065 156.179C94.6559 156.179 93.6289 155.913 92.7255 155.38C91.8221 154.847 91.1105 154.078 90.5906 153.072C90.0707 152.067 89.8108 150.861 89.8108 149.455C89.8108 148.044 90.0728 146.838 90.597 145.837C91.1211 144.831 91.8349 144.062 92.7383 143.529C93.6417 142.996 94.6645 142.73 95.8065 142.73C96.5352 142.73 97.2127 142.832 97.8392 143.037C98.4656 143.241 99.0238 143.542 99.5139 143.938C100.004 144.33 100.407 144.812 100.722 145.383C101.042 145.95 101.25 146.597 101.348 147.326ZM113.163 156L108.855 150.279H107.692V156H105.32V142.909H107.692V148.291H108.286L112.939 142.909H115.861L110.689 148.879L116.084 156H113.163ZM119.495 156V142.909H124.506C125.452 142.909 126.239 143.058 126.865 143.357C127.496 143.651 127.967 144.053 128.278 144.565C128.593 145.076 128.751 145.656 128.751 146.303C128.751 146.836 128.649 147.292 128.444 147.671C128.239 148.046 127.965 148.351 127.619 148.585C127.274 148.82 126.889 148.988 126.462 149.09V149.218C126.927 149.244 127.372 149.386 127.798 149.646C128.229 149.902 128.58 150.264 128.853 150.733C129.126 151.202 129.262 151.768 129.262 152.433C129.262 153.111 129.098 153.72 128.77 154.261C128.442 154.798 127.948 155.222 127.287 155.533C126.626 155.844 125.796 156 124.794 156H119.495ZM121.867 154.018H124.417C125.278 154.018 125.898 153.854 126.277 153.526C126.661 153.194 126.852 152.768 126.852 152.248C126.852 151.86 126.756 151.511 126.565 151.2C126.373 150.884 126.1 150.637 125.747 150.458C125.393 150.275 124.971 150.183 124.481 150.183H121.867V154.018ZM121.867 148.477H124.212C124.622 148.477 124.99 148.402 125.318 148.253C125.646 148.099 125.904 147.884 126.092 147.607C126.283 147.326 126.379 146.994 126.379 146.61C126.379 146.103 126.2 145.685 125.842 145.357C125.489 145.029 124.962 144.865 124.264 144.865H121.867V148.477ZM134.806 156H132.275L136.884 142.909H139.811L144.426 156H141.895L138.399 145.594H138.296L134.806 156ZM134.889 150.867H141.793V152.772H134.889V150.867Z" fill="black"/>
<path opacity="0.4" d="M55 372.5H510.991V299C513.697 299 194 283.5 194 283.5L55 243V372.5Z" fill="url(#paint0_linear_2766_1084)"/>
<rect x="506.188" y="293" width="10.2717" height="10.2717" rx="5.13587" fill="#CACACA"/>
<path d="M509.5 299L195.934 283.173C193.653 283.058 191.393 282.674 189.202 282.029L55 242.5" stroke="#CACACA" stroke-width="4"/>
<path d="M366.074 357.443V381.801L356.989 372.682L353 376.636L368.955 392.557L384.875 376.636L380.955 372.682L371.835 381.801V357.443H366.074Z" fill="#CACACA"/>
<path d="M410.79 392.767C407.859 392.756 405.336 392.034 403.222 390.602C401.12 389.17 399.501 387.097 398.364 384.381C397.239 381.665 396.683 378.398 396.694 374.58C396.694 370.773 397.256 367.528 398.381 364.847C399.518 362.165 401.137 360.125 403.239 358.727C405.353 357.318 407.87 356.614 410.79 356.614C413.711 356.614 416.222 357.318 418.325 358.727C420.438 360.136 422.063 362.182 423.2 364.864C424.336 367.534 424.898 370.773 424.887 374.58C424.887 378.409 424.319 381.682 423.183 384.398C422.058 387.114 420.444 389.187 418.342 390.619C416.239 392.051 413.722 392.767 410.79 392.767ZM410.79 386.648C412.79 386.648 414.387 385.642 415.58 383.631C416.773 381.619 417.364 378.602 417.353 374.58C417.353 371.932 417.08 369.727 416.535 367.966C416.001 366.205 415.239 364.881 414.251 363.994C413.273 363.108 412.12 362.665 410.79 362.665C408.802 362.665 407.211 363.659 406.018 365.648C404.825 367.636 404.222 370.614 404.211 374.58C404.211 377.261 404.478 379.5 405.012 381.295C405.558 383.08 406.325 384.42 407.313 385.318C408.302 386.205 409.461 386.648 410.79 386.648ZM436.212 387.227L436.024 389.102C435.876 390.602 435.592 392.097 435.172 393.585C434.763 395.085 434.331 396.443 433.876 397.659C433.433 398.875 433.075 399.83 432.803 400.523H428.098C428.268 399.852 428.501 398.915 428.797 397.71C429.092 396.517 429.371 395.176 429.632 393.688C429.893 392.199 430.058 390.682 430.126 389.136L430.212 387.227H436.212ZM454.759 392.477C452.35 392.477 450.202 392.034 448.316 391.148C446.441 390.261 444.952 389.04 443.85 387.483C442.748 385.926 442.174 384.142 442.129 382.131H449.288C449.367 383.483 449.935 384.58 450.992 385.42C452.049 386.261 453.305 386.682 454.759 386.682C455.918 386.682 456.941 386.426 457.827 385.915C458.725 385.392 459.424 384.67 459.924 383.75C460.435 382.818 460.691 381.75 460.691 380.545C460.691 379.318 460.43 378.239 459.907 377.307C459.396 376.375 458.685 375.648 457.776 375.125C456.867 374.602 455.827 374.335 454.657 374.324C453.634 374.324 452.64 374.534 451.674 374.955C450.719 375.375 449.975 375.949 449.441 376.676L442.879 375.5L444.532 357.091H465.873V363.125H450.617L449.714 371.869H449.918C450.532 371.006 451.458 370.29 452.697 369.722C453.935 369.153 455.322 368.869 456.856 368.869C458.958 368.869 460.833 369.364 462.481 370.352C464.129 371.341 465.43 372.699 466.384 374.426C467.339 376.142 467.81 378.119 467.799 380.358C467.81 382.71 467.265 384.801 466.163 386.631C465.072 388.449 463.543 389.881 461.577 390.926C459.623 391.96 457.35 392.477 454.759 392.477ZM491.562 385.455V383.614C491.562 382.216 491.858 380.932 492.449 379.761C493.051 378.58 493.92 377.636 495.057 376.932C496.205 376.216 497.602 375.858 499.25 375.858C500.92 375.858 502.324 376.21 503.46 376.915C504.608 377.619 505.472 378.562 506.051 379.744C506.642 380.915 506.938 382.205 506.938 383.614V385.455C506.938 386.852 506.642 388.142 506.051 389.324C505.46 390.494 504.591 391.432 503.443 392.136C502.295 392.852 500.898 393.21 499.25 393.21C497.58 393.21 496.176 392.852 495.04 392.136C493.903 391.432 493.04 390.494 492.449 389.324C491.858 388.142 491.562 386.852 491.562 385.455ZM496.523 383.614V385.455C496.523 386.261 496.716 387.023 497.102 387.739C497.5 388.455 498.216 388.812 499.25 388.812C500.284 388.812 500.989 388.46 501.364 387.756C501.75 387.051 501.943 386.284 501.943 385.455V383.614C501.943 382.784 501.761 382.011 501.398 381.295C501.034 380.58 500.318 380.222 499.25 380.222C498.227 380.222 497.517 380.58 497.119 381.295C496.722 382.011 496.523 382.784 496.523 383.614ZM473.648 365.477V363.636C473.648 362.227 473.949 360.937 474.551 359.767C475.153 358.585 476.023 357.642 477.159 356.938C478.307 356.233 479.693 355.881 481.318 355.881C483 355.881 484.409 356.233 485.545 356.938C486.682 357.642 487.545 358.585 488.136 359.767C488.727 360.937 489.023 362.227 489.023 363.636V365.477C489.023 366.886 488.722 368.176 488.119 369.347C487.528 370.517 486.659 371.455 485.511 372.159C484.375 372.852 482.977 373.199 481.318 373.199C479.659 373.199 478.256 372.847 477.108 372.142C475.972 371.426 475.108 370.489 474.517 369.33C473.938 368.159 473.648 366.875 473.648 365.477ZM478.642 363.636V365.477C478.642 366.307 478.835 367.074 479.222 367.778C479.619 368.483 480.318 368.835 481.318 368.835C482.364 368.835 483.074 368.483 483.449 367.778C483.835 367.074 484.028 366.307 484.028 365.477V363.636C484.028 362.807 483.847 362.034 483.483 361.318C483.119 360.602 482.398 360.244 481.318 360.244C480.307 360.244 479.608 360.608 479.222 361.335C478.835 362.062 478.642 362.83 478.642 363.636ZM475.898 392L499.898 357.091H504.364L480.364 392H475.898Z" fill="black"/>
<path d="M61.8203 229.219C60.8411 229.219 59.9609 229.031 59.1797 228.656C58.4036 228.276 57.7839 227.755 57.3203 227.094C56.8568 226.432 56.6094 225.677 56.5781 224.828H58.9219C58.9792 225.516 59.2839 226.081 59.8359 226.523C60.388 226.966 61.0495 227.187 61.8203 227.187C62.4349 227.187 62.9792 227.047 63.4531 226.766C63.9323 226.479 64.3073 226.086 64.5781 225.586C64.8542 225.086 64.9922 224.516 64.9922 223.875C64.9922 223.224 64.8516 222.643 64.5703 222.133C64.2891 221.622 63.901 221.221 63.4063 220.93C62.9167 220.638 62.3542 220.49 61.7188 220.484C61.2344 220.484 60.7474 220.568 60.2578 220.734C59.7682 220.901 59.3724 221.12 59.0703 221.391L56.8594 221.062L57.7578 213H66.5547V215.07H59.7656L59.2578 219.547H59.3516C59.6641 219.245 60.0781 218.992 60.5938 218.789C61.1146 218.586 61.6719 218.484 62.2656 218.484C63.2396 218.484 64.1068 218.716 64.8672 219.18C65.6328 219.643 66.2344 220.276 66.6719 221.078C67.1146 221.875 67.3333 222.792 67.3281 223.828C67.3333 224.865 67.099 225.789 66.625 226.602C66.1563 227.414 65.5052 228.055 64.6719 228.523C63.8438 228.987 62.8932 229.219 61.8203 229.219ZM75.3653 229.219C74.2455 229.219 73.256 229.026 72.3966 228.641C71.5424 228.255 70.8731 227.724 70.3888 227.047C69.9044 226.37 69.6648 225.599 69.67 224.734C69.6648 224.057 69.8028 223.435 70.0841 222.867C70.3705 222.294 70.7586 221.818 71.2481 221.438C71.7377 221.052 72.2846 220.807 72.8888 220.703V220.609C72.0919 220.417 71.4539 219.99 70.9747 219.328C70.4955 218.667 70.2586 217.906 70.2638 217.047C70.2586 216.229 70.4747 215.5 70.9122 214.859C71.3549 214.214 71.9617 213.706 72.7325 213.336C73.5034 212.966 74.381 212.781 75.3653 212.781C76.3393 212.781 77.2091 212.969 77.9747 213.344C78.7455 213.714 79.3523 214.221 79.795 214.867C80.2377 215.508 80.4617 216.234 80.4669 217.047C80.4617 217.906 80.2169 218.667 79.7325 219.328C79.2481 219.99 78.6179 220.417 77.8419 220.609V220.703C78.4409 220.807 78.9799 221.052 79.4591 221.438C79.9435 221.818 80.3289 222.294 80.6153 222.867C80.907 223.435 81.0554 224.057 81.0606 224.734C81.0554 225.599 80.8106 226.37 80.3263 227.047C79.8419 227.724 79.17 228.255 78.3106 228.641C77.4565 229.026 76.4747 229.219 75.3653 229.219ZM75.3653 227.242C76.0268 227.242 76.5997 227.133 77.0841 226.914C77.5685 226.69 77.9435 226.38 78.2091 225.984C78.4747 225.583 78.6101 225.115 78.6153 224.578C78.6101 224.021 78.4643 223.529 78.1778 223.102C77.8966 222.674 77.5138 222.339 77.0294 222.094C76.545 221.849 75.9903 221.727 75.3653 221.727C74.7351 221.727 74.1752 221.849 73.6856 222.094C73.1961 222.339 72.8106 222.674 72.5294 223.102C72.2481 223.529 72.1101 224.021 72.1153 224.578C72.1101 225.115 72.2377 225.583 72.4981 225.984C72.7638 226.38 73.1414 226.69 73.631 226.914C74.1205 227.133 74.6987 227.242 75.3653 227.242ZM75.3653 219.797C75.8966 219.797 76.3679 219.69 76.7794 219.477C77.1909 219.263 77.5138 218.966 77.7481 218.586C77.9877 218.206 78.1101 217.76 78.1153 217.25C78.1101 216.75 77.9903 216.313 77.756 215.938C77.5268 215.562 77.2065 215.273 76.795 215.07C76.3836 214.862 75.907 214.758 75.3653 214.758C74.8133 214.758 74.3289 214.862 73.9122 215.07C73.5008 215.273 73.1804 215.562 72.9513 215.938C72.7221 216.313 72.6101 216.75 72.6153 217.25C72.6101 217.76 72.7247 218.206 72.9591 218.586C73.1935 218.966 73.5164 219.263 73.9278 219.477C74.3445 219.69 74.8237 219.797 75.3653 219.797ZM86.2346 226.812L86.1174 227.664C86.0393 228.289 85.9065 228.94 85.719 229.617C85.5367 230.299 85.3466 230.932 85.1486 231.516C84.9559 232.099 84.7971 232.563 84.6721 232.906H83.0158C83.0835 232.583 83.1773 232.146 83.2971 231.594C83.4169 231.047 83.5341 230.435 83.6486 229.758C83.7632 229.081 83.8492 228.391 83.9065 227.687L83.9846 226.812H86.2346ZM94.2698 229.219C93.1969 229.219 92.2386 229.034 91.3948 228.664C90.5563 228.294 89.8922 227.781 89.4026 227.125C88.9183 226.464 88.6579 225.698 88.6214 224.828H91.0745C91.1058 225.302 91.2646 225.714 91.5511 226.062C91.8428 226.406 92.223 226.672 92.6917 226.859C93.1605 227.047 93.6813 227.141 94.2542 227.141C94.8844 227.141 95.4417 227.031 95.9261 226.812C96.4157 226.594 96.7985 226.289 97.0745 225.898C97.3506 225.503 97.4886 225.047 97.4886 224.531C97.4886 223.995 97.3506 223.523 97.0745 223.117C96.8037 222.706 96.4053 222.383 95.8792 222.148C95.3584 221.914 94.7282 221.797 93.9886 221.797H92.637V219.828H93.9886C94.5823 219.828 95.1032 219.721 95.5511 219.508C96.0042 219.294 96.3584 218.997 96.6136 218.617C96.8688 218.232 96.9964 217.781 96.9964 217.266C96.9964 216.771 96.8844 216.341 96.6605 215.977C96.4417 215.607 96.1292 215.318 95.723 215.109C95.3219 214.901 94.848 214.797 94.3011 214.797C93.7803 214.797 93.2933 214.893 92.8401 215.086C92.3922 215.273 92.0276 215.544 91.7464 215.898C91.4651 216.247 91.3141 216.667 91.2933 217.156H88.9573C88.9834 216.292 89.2386 215.531 89.723 214.875C90.2125 214.219 90.8584 213.706 91.6605 213.336C92.4625 212.966 93.3532 212.781 94.3323 212.781C95.3584 212.781 96.2438 212.982 96.9886 213.383C97.7386 213.779 98.3167 214.307 98.723 214.969C99.1344 215.63 99.3375 216.354 99.3323 217.141C99.3375 218.036 99.0875 218.797 98.5823 219.422C98.0823 220.047 97.4157 220.466 96.5823 220.68V220.805C97.6448 220.966 98.4678 221.388 99.0511 222.07C99.6396 222.753 99.9313 223.599 99.9261 224.609C99.9313 225.49 99.6865 226.279 99.1917 226.977C98.7021 227.674 98.0329 228.224 97.1839 228.625C96.3349 229.021 95.3636 229.219 94.2698 229.219Z" fill="#CFCFCF"/>
<path d="M476.154 283.219C475.175 283.219 474.295 283.031 473.513 282.656C472.737 282.276 472.118 281.755 471.654 281.094C471.19 280.432 470.943 279.677 470.912 278.828H473.256C473.313 279.516 473.618 280.081 474.17 280.523C474.722 280.966 475.383 281.187 476.154 281.187C476.769 281.187 477.313 281.047 477.787 280.766C478.266 280.479 478.641 280.086 478.912 279.586C479.188 279.086 479.326 278.516 479.326 277.875C479.326 277.224 479.185 276.643 478.904 276.133C478.623 275.622 478.235 275.221 477.74 274.93C477.25 274.638 476.688 274.49 476.052 274.484C475.568 274.484 475.081 274.568 474.591 274.734C474.102 274.901 473.706 275.12 473.404 275.391L471.193 275.062L472.091 267H480.888V269.07H474.099L473.591 273.547H473.685C473.998 273.245 474.412 272.992 474.927 272.789C475.448 272.586 476.006 272.484 476.599 272.484C477.573 272.484 478.44 272.716 479.201 273.18C479.966 273.643 480.568 274.276 481.006 275.078C481.448 275.875 481.667 276.792 481.662 277.828C481.667 278.865 481.433 279.789 480.959 280.602C480.49 281.414 479.839 282.055 479.006 282.523C478.177 282.987 477.227 283.219 476.154 283.219ZM484.832 283L491.816 269.187V269.07H483.738V267H494.316V269.141L487.355 283H484.832ZM497.131 280.812L497.014 281.664C496.935 282.289 496.803 282.94 496.615 283.617C496.433 284.299 496.243 284.932 496.045 285.516C495.852 286.099 495.693 286.563 495.568 286.906H493.912C493.98 286.583 494.073 286.146 494.193 285.594C494.313 285.047 494.43 284.435 494.545 283.758C494.659 283.081 494.745 282.391 494.803 281.687L494.881 280.812H497.131ZM505.045 283.219C503.925 283.219 502.936 283.026 502.076 282.641C501.222 282.255 500.553 281.724 500.068 281.047C499.584 280.37 499.344 279.599 499.35 278.734C499.344 278.057 499.482 277.435 499.764 276.867C500.05 276.294 500.438 275.818 500.928 275.438C501.417 275.052 501.964 274.807 502.568 274.703V274.609C501.771 274.417 501.133 273.99 500.654 273.328C500.175 272.667 499.938 271.906 499.943 271.047C499.938 270.229 500.154 269.5 500.592 268.859C501.035 268.214 501.641 267.706 502.412 267.336C503.183 266.966 504.061 266.781 505.045 266.781C506.019 266.781 506.889 266.969 507.654 267.344C508.425 267.714 509.032 268.221 509.475 268.867C509.917 269.508 510.141 270.234 510.146 271.047C510.141 271.906 509.896 272.667 509.412 273.328C508.928 273.99 508.298 274.417 507.521 274.609V274.703C508.12 274.807 508.66 275.052 509.139 275.438C509.623 275.818 510.008 276.294 510.295 276.867C510.587 277.435 510.735 278.057 510.74 278.734C510.735 279.599 510.49 280.37 510.006 281.047C509.521 281.724 508.85 282.255 507.99 282.641C507.136 283.026 506.154 283.219 505.045 283.219ZM505.045 281.242C505.706 281.242 506.279 281.133 506.764 280.914C507.248 280.69 507.623 280.38 507.889 279.984C508.154 279.583 508.29 279.115 508.295 278.578C508.29 278.021 508.144 277.529 507.857 277.102C507.576 276.674 507.193 276.339 506.709 276.094C506.225 275.849 505.67 275.727 505.045 275.727C504.415 275.727 503.855 275.849 503.365 276.094C502.876 276.339 502.49 276.674 502.209 277.102C501.928 277.529 501.79 278.021 501.795 278.578C501.79 279.115 501.917 279.583 502.178 279.984C502.443 280.38 502.821 280.69 503.311 280.914C503.8 281.133 504.378 281.242 505.045 281.242ZM505.045 273.797C505.576 273.797 506.048 273.69 506.459 273.477C506.87 273.263 507.193 272.966 507.428 272.586C507.667 272.206 507.79 271.76 507.795 271.25C507.79 270.75 507.67 270.313 507.436 269.938C507.206 269.562 506.886 269.273 506.475 269.07C506.063 268.862 505.587 268.758 505.045 268.758C504.493 268.758 504.008 268.862 503.592 269.07C503.18 269.273 502.86 269.562 502.631 269.938C502.402 270.313 502.29 270.75 502.295 271.25C502.29 271.76 502.404 272.206 502.639 272.586C502.873 272.966 503.196 273.263 503.607 273.477C504.024 273.69 504.503 273.797 505.045 273.797Z" fill="#CFCFCF"/>
<rect x="40" y="437" width="1000" height="295" rx="20" fill="#F7F7F7"/>
<path opacity="0.6" d="M56.2912 472V458.909H61.2003C62.206 458.909 63.0497 459.097 63.7315 459.472C64.4176 459.847 64.9354 460.362 65.2848 461.018C65.6385 461.67 65.8153 462.412 65.8153 463.243C65.8153 464.082 65.6385 464.828 65.2848 465.48C64.9311 466.132 64.4091 466.646 63.7188 467.021C63.0284 467.391 62.1783 467.577 61.1683 467.577H57.9148V465.627H60.8487C61.4368 465.627 61.9183 465.525 62.2933 465.32C62.6683 465.116 62.9453 464.835 63.1243 464.477C63.3075 464.119 63.3991 463.707 63.3991 463.243C63.3991 462.778 63.3075 462.369 63.1243 462.016C62.9453 461.662 62.6662 461.387 62.2869 461.191C61.9119 460.991 61.4283 460.891 60.8359 460.891H58.6626V472H56.2912ZM69.6752 472V458.909H78.1894V460.897H72.0466V464.451H77.7483V466.439H72.0466V470.012H78.2405V472H69.6752ZM90.8271 458.909V460.897H84.7802V472H82.4088V458.909H90.8271ZM94.6326 458.909H96.9849V467.832H97.1063L103.262 458.909H105.39V472H103.019V463.083H102.91L96.7356 472H94.6326V458.909ZM121.472 465.455C121.472 466.865 121.208 468.073 120.679 469.079C120.155 470.08 119.439 470.847 118.531 471.38C117.628 471.913 116.603 472.179 115.457 472.179C114.311 472.179 113.284 471.913 112.376 471.38C111.473 470.843 110.757 470.074 110.228 469.072C109.704 468.067 109.442 466.861 109.442 465.455C109.442 464.044 109.704 462.838 110.228 461.837C110.757 460.831 111.473 460.062 112.376 459.529C113.284 458.996 114.311 458.73 115.457 458.73C116.603 458.73 117.628 458.996 118.531 459.529C119.439 460.062 120.155 460.831 120.679 461.837C121.208 462.838 121.472 464.044 121.472 465.455ZM119.088 465.455C119.088 464.462 118.932 463.624 118.621 462.942C118.314 462.256 117.888 461.739 117.343 461.389C116.797 461.036 116.169 460.859 115.457 460.859C114.745 460.859 114.117 461.036 113.571 461.389C113.026 461.739 112.598 462.256 112.286 462.942C111.98 463.624 111.826 464.462 111.826 465.455C111.826 466.447 111.98 467.287 112.286 467.973C112.598 468.655 113.026 469.173 113.571 469.526C114.117 469.876 114.745 470.05 115.457 470.05C116.169 470.05 116.797 469.876 117.343 469.526C117.888 469.173 118.314 468.655 118.621 467.973C118.932 467.287 119.088 466.447 119.088 465.455ZM125.514 472V458.909H127.885V464.451H133.951V458.909H136.329V472H133.951V466.439H127.885V472H125.514ZM142.313 463.965H145.637C146.638 463.965 147.497 464.129 148.213 464.457C148.933 464.781 149.485 465.239 149.868 465.832C150.252 466.424 150.443 467.121 150.443 467.922C150.443 468.727 150.252 469.437 149.868 470.05C149.485 470.66 148.933 471.137 148.213 471.482C147.497 471.827 146.638 472 145.637 472H140.734V458.909H143.112V470.057H145.637C146.165 470.057 146.613 469.957 146.979 469.756C147.345 469.556 147.622 469.292 147.81 468.964C148.002 468.636 148.098 468.28 148.098 467.896C148.098 467.342 147.885 466.871 147.458 466.484C147.037 466.092 146.429 465.896 145.637 465.896H142.313V463.965ZM153.953 458.909V472H151.575V458.909H153.953Z" fill="black"/>
<path opacity="0.4" d="M1019.95 685.5H55V575L432 589.5C432 589.5 1014.32 537.024 1019.95 536.015V536C1020.01 536 1020.01 536.005 1019.95 536.015V685.5Z" fill="url(#paint1_linear_2766_1084)"/>
<rect x="1015.19" y="531" width="10.2717" height="10.2717" rx="5.13587" fill="#04B34A"/>
<path d="M1017.5 537L432 589L55 575.5" stroke="#04B34A" stroke-width="4"/>
<path d="M885.074 705.557V681.199L875.989 690.318L872 686.364L887.955 670.443L903.875 686.364L899.955 690.318L890.835 681.199V705.557H885.074Z" fill="#04B34A"/>
<path d="M930.947 670.091V705H923.566V677.097H923.362L915.367 682.108V675.562L924.009 670.091H930.947ZM944.837 700.227L944.649 702.102C944.501 703.602 944.217 705.097 943.797 706.585C943.388 708.085 942.956 709.443 942.501 710.659C942.058 711.875 941.7 712.83 941.428 713.523H936.723C936.893 712.852 937.126 711.915 937.422 710.71C937.717 709.517 937.996 708.176 938.257 706.688C938.518 705.199 938.683 703.682 938.751 702.136L938.837 700.227H944.837ZM962.89 669.614C964.685 669.614 966.413 669.915 968.072 670.517C969.742 671.119 971.231 672.08 972.538 673.398C973.856 674.716 974.896 676.466 975.657 678.648C976.43 680.818 976.822 683.483 976.833 686.642C976.833 689.608 976.498 692.256 975.827 694.585C975.168 696.903 974.219 698.875 972.981 700.5C971.742 702.125 970.248 703.364 968.498 704.216C966.748 705.057 964.793 705.477 962.634 705.477C960.305 705.477 958.248 705.028 956.464 704.131C954.68 703.222 953.242 701.989 952.151 700.432C951.072 698.864 950.418 697.102 950.191 695.148H957.469C957.754 696.42 958.35 697.409 959.259 698.114C960.168 698.807 961.293 699.153 962.634 699.153C964.907 699.153 966.634 698.165 967.816 696.188C968.998 694.199 969.594 691.477 969.606 688.023H969.367C968.844 689.045 968.14 689.926 967.254 690.665C966.367 691.392 965.35 691.955 964.202 692.352C963.066 692.75 961.856 692.949 960.572 692.949C958.515 692.949 956.68 692.466 955.066 691.5C953.452 690.534 952.18 689.205 951.248 687.511C950.316 685.818 949.85 683.886 949.85 681.716C949.839 679.375 950.379 677.29 951.469 675.46C952.56 673.631 954.083 672.199 956.038 671.165C958.004 670.119 960.288 669.602 962.89 669.614ZM962.941 675.409C961.793 675.409 960.771 675.682 959.873 676.227C958.987 676.773 958.282 677.506 957.759 678.426C957.248 679.347 956.998 680.375 957.009 681.511C957.009 682.659 957.259 683.693 957.759 684.614C958.271 685.523 958.964 686.25 959.839 686.795C960.725 687.33 961.737 687.597 962.873 687.597C963.725 687.597 964.515 687.437 965.242 687.119C965.969 686.801 966.6 686.364 967.134 685.807C967.68 685.239 968.106 684.585 968.413 683.847C968.719 683.108 968.873 682.324 968.873 681.494C968.862 680.392 968.6 679.381 968.089 678.46C967.577 677.54 966.873 676.801 965.975 676.244C965.077 675.687 964.066 675.409 962.941 675.409ZM1000.56 698.455V696.614C1000.56 695.216 1000.86 693.932 1001.45 692.761C1002.05 691.58 1002.92 690.636 1004.06 689.932C1005.2 689.216 1006.6 688.858 1008.25 688.858C1009.92 688.858 1011.32 689.21 1012.46 689.915C1013.61 690.619 1014.47 691.562 1015.05 692.744C1015.64 693.915 1015.94 695.205 1015.94 696.614V698.455C1015.94 699.852 1015.64 701.142 1015.05 702.324C1014.46 703.494 1013.59 704.432 1012.44 705.136C1011.3 705.852 1009.9 706.21 1008.25 706.21C1006.58 706.21 1005.18 705.852 1004.04 705.136C1002.9 704.432 1002.04 703.494 1001.45 702.324C1000.86 701.142 1000.56 699.852 1000.56 698.455ZM1005.52 696.614V698.455C1005.52 699.261 1005.72 700.023 1006.1 700.739C1006.5 701.455 1007.22 701.812 1008.25 701.812C1009.28 701.812 1009.99 701.46 1010.36 700.756C1010.75 700.051 1010.94 699.284 1010.94 698.455V696.614C1010.94 695.784 1010.76 695.011 1010.4 694.295C1010.03 693.58 1009.32 693.222 1008.25 693.222C1007.23 693.222 1006.52 693.58 1006.12 694.295C1005.72 695.011 1005.52 695.784 1005.52 696.614ZM982.648 678.477V676.636C982.648 675.227 982.949 673.937 983.551 672.767C984.153 671.585 985.023 670.642 986.159 669.938C987.307 669.233 988.693 668.881 990.318 668.881C992 668.881 993.409 669.233 994.545 669.938C995.682 670.642 996.545 671.585 997.136 672.767C997.727 673.937 998.023 675.227 998.023 676.636V678.477C998.023 679.886 997.722 681.176 997.119 682.347C996.528 683.517 995.659 684.455 994.511 685.159C993.375 685.852 991.977 686.199 990.318 686.199C988.659 686.199 987.256 685.847 986.108 685.142C984.972 684.426 984.108 683.489 983.517 682.33C982.938 681.159 982.648 679.875 982.648 678.477ZM987.642 676.636V678.477C987.642 679.307 987.835 680.074 988.222 680.778C988.619 681.483 989.318 681.835 990.318 681.835C991.364 681.835 992.074 681.483 992.449 680.778C992.835 680.074 993.028 679.307 993.028 678.477V676.636C993.028 675.807 992.847 675.034 992.483 674.318C992.119 673.602 991.398 673.244 990.318 673.244C989.307 673.244 988.608 673.608 988.222 674.335C987.835 675.062 987.642 675.83 987.642 676.636ZM984.898 705L1008.9 670.091H1013.36L989.364 705H984.898Z" fill="black"/>
<path d="M56.2031 557.875V555.922L63.1172 545H64.6563V547.875H63.6797L58.7344 555.703V555.828H68.2109V557.875H56.2031ZM63.7891 561V557.281L63.8047 556.391V545H66.0938V561H63.7891ZM71.2501 561L78.2345 547.187V547.07H70.1564V545H80.7345V547.141L73.7735 561H71.2501ZM83.549 558.812L83.4318 559.664C83.3537 560.289 83.2209 560.94 83.0334 561.617C82.8511 562.299 82.661 562.932 82.4631 563.516C82.2704 564.099 82.1115 564.563 81.9865 564.906H80.3303C80.398 564.583 80.4917 564.146 80.6115 563.594C80.7313 563.047 80.8485 562.435 80.9631 561.758C81.0777 561.081 81.1636 560.391 81.2209 559.687L81.299 558.812H83.549ZM86.5941 561V559.25L92.0081 553.641C92.5862 553.031 93.0628 552.497 93.4378 552.039C93.818 551.576 94.1019 551.135 94.2894 550.719C94.4769 550.302 94.5706 549.859 94.5706 549.391C94.5706 548.859 94.4456 548.401 94.1956 548.016C93.9456 547.625 93.6045 547.326 93.1722 547.117C92.7399 546.904 92.2529 546.797 91.7112 546.797C91.1383 546.797 90.6383 546.914 90.2112 547.148C89.7842 547.383 89.456 547.714 89.2269 548.141C88.9977 548.568 88.8831 549.068 88.8831 549.641H86.5784C86.5784 548.667 86.8024 547.815 87.2503 547.086C87.6982 546.357 88.3128 545.792 89.0941 545.391C89.8753 544.984 90.7633 544.781 91.7581 544.781C92.7633 544.781 93.6487 544.982 94.4144 545.383C95.1852 545.779 95.7868 546.32 96.2191 547.008C96.6513 547.69 96.8675 548.461 96.8675 549.32C96.8675 549.914 96.7555 550.495 96.5316 551.062C96.3128 551.63 95.93 552.263 95.3831 552.961C94.8362 553.654 94.0758 554.495 93.1019 555.484L89.9222 558.812V558.93H97.1253V561H86.5941Z" fill="#CFCFCF"/>
<path d="M980.267 514.875V512.922L987.181 502H988.72V504.875H987.744L982.799 512.703V512.828H992.275V514.875H980.267ZM987.853 518V514.281L987.869 513.391V502H990.158V518H987.853ZM1000.1 501.781C1000.81 501.786 1001.51 501.917 1002.2 502.172C1002.9 502.427 1003.52 502.844 1004.08 503.422C1004.64 504 1005.09 504.781 1005.42 505.766C1005.76 506.745 1005.93 507.964 1005.94 509.422C1005.94 510.823 1005.8 512.07 1005.52 513.164C1005.24 514.253 1004.83 515.172 1004.31 515.922C1003.79 516.672 1003.15 517.242 1002.41 517.633C1001.66 518.023 1000.82 518.219 999.892 518.219C998.939 518.219 998.093 518.031 997.353 517.656C996.614 517.281 996.012 516.763 995.549 516.102C995.085 515.435 994.796 514.669 994.681 513.805H997.064C997.221 514.492 997.538 515.049 998.017 515.477C998.502 515.898 999.127 516.109 999.892 516.109C1001.06 516.109 1001.98 515.599 1002.63 514.578C1003.29 513.552 1003.62 512.12 1003.63 510.281H1003.5C1003.23 510.729 1002.89 511.115 1002.49 511.437C1002.09 511.76 1001.63 512.01 1001.13 512.187C1000.63 512.365 1000.1 512.453 999.533 512.453C998.611 512.453 997.773 512.227 997.017 511.773C996.262 511.32 995.661 510.698 995.213 509.906C994.765 509.115 994.541 508.211 994.541 507.195C994.541 506.185 994.77 505.268 995.228 504.445C995.692 503.622 996.338 502.971 997.166 502.492C997.999 502.008 998.976 501.771 1000.1 501.781ZM1000.1 503.812C999.494 503.812 998.944 503.964 998.455 504.266C997.971 504.562 997.588 504.966 997.306 505.477C997.025 505.982 996.885 506.544 996.885 507.164C996.885 507.784 997.02 508.346 997.291 508.852C997.567 509.352 997.942 509.75 998.416 510.047C998.895 510.339 999.442 510.484 1000.06 510.484C1000.51 510.484 1000.94 510.396 1001.34 510.219C1001.73 510.042 1002.08 509.797 1002.38 509.484C1002.67 509.167 1002.91 508.807 1003.07 508.406C1003.24 508.005 1003.32 507.583 1003.32 507.141C1003.32 506.552 1003.18 506.005 1002.9 505.5C1002.62 504.995 1002.24 504.589 1001.76 504.281C1001.28 503.969 1000.72 503.812 1000.1 503.812ZM1011.03 515.812L1010.91 516.664C1010.83 517.289 1010.7 517.94 1010.51 518.617C1010.33 519.299 1010.14 519.932 1009.94 520.516C1009.75 521.099 1009.59 521.563 1009.47 521.906H1007.81C1007.88 521.583 1007.97 521.146 1008.09 520.594C1008.21 520.047 1008.33 519.435 1008.44 518.758C1008.56 518.081 1008.64 517.391 1008.7 516.687L1008.78 515.812H1011.03ZM1018.21 502V518H1015.79V504.422H1015.7L1011.87 506.922V504.609L1015.86 502H1018.21Z" fill="#CFCFCF"/>
<rect x="549" y="124" width="491" height="295" rx="20" fill="#F7F7F7"/>
<path opacity="0.6" d="M576.496 150.326H574.106C574.038 149.934 573.912 149.587 573.729 149.284C573.545 148.977 573.317 148.717 573.045 148.504C572.772 148.291 572.461 148.131 572.112 148.025C571.766 147.914 571.393 147.859 570.993 147.859C570.281 147.859 569.651 148.038 569.101 148.396C568.551 148.749 568.121 149.269 567.81 149.955C567.499 150.637 567.343 151.47 567.343 152.455C567.343 153.456 567.499 154.3 567.81 154.986C568.125 155.668 568.555 156.183 569.101 156.533C569.651 156.878 570.279 157.05 570.987 157.05C571.379 157.05 571.745 156.999 572.086 156.897C572.431 156.79 572.74 156.635 573.013 156.43C573.29 156.226 573.522 155.974 573.71 155.676C573.901 155.378 574.033 155.037 574.106 154.653L576.496 154.666C576.407 155.288 576.213 155.872 575.915 156.418C575.621 156.963 575.235 157.445 574.758 157.862C574.281 158.276 573.722 158.599 573.083 158.834C572.444 159.064 571.734 159.179 570.955 159.179C569.804 159.179 568.777 158.913 567.874 158.38C566.97 157.847 566.259 157.078 565.739 156.072C565.219 155.067 564.959 153.861 564.959 152.455C564.959 151.044 565.221 149.838 565.745 148.837C566.269 147.831 566.983 147.062 567.886 146.529C568.79 145.996 569.813 145.73 570.955 145.73C571.683 145.73 572.361 145.832 572.987 146.037C573.614 146.241 574.172 146.542 574.662 146.938C575.152 147.33 575.555 147.812 575.87 148.383C576.19 148.95 576.398 149.597 576.496 150.326ZM581.991 159H579.46L584.068 145.909H586.996L591.611 159H589.08L585.583 148.594H585.481L581.991 159ZM582.074 153.867H588.978V155.772H582.074V153.867ZM595.135 159V145.909H597.507V151.451H603.573V145.909H605.951V159H603.573V153.439H597.507V159H595.135ZM618.173 159L613.865 153.279H612.701V159H610.33V145.909H612.701V151.291H613.296L617.949 145.909H620.87L615.699 151.879L621.094 159H618.173ZM623.93 147.897V145.909H634.374V147.897H630.328V159H627.976V147.897H623.93ZM643.228 151.502V153.407H637.334V151.502H643.228ZM658.245 145.909V159H655.893V147.878H650.165V159H647.813V145.909H658.245ZM662.881 159V145.909H671.396V147.897H665.253V151.451H670.955V153.439H665.253V157.012H671.447V159H662.881ZM675.04 147.897V145.909H685.484V147.897H681.438V159H679.086V147.897H675.04ZM689.298 159V145.909H697.812V147.897H691.669V151.451H697.371V153.439H691.669V157.012H697.863V159H689.298ZM702.031 159V145.909H706.941C707.946 145.909 708.79 146.097 709.472 146.472C710.158 146.847 710.676 147.362 711.025 148.018C711.379 148.67 711.556 149.412 711.556 150.243C711.556 151.082 711.379 151.828 711.025 152.48C710.671 153.132 710.149 153.646 709.459 154.021C708.769 154.391 707.919 154.577 706.909 154.577H703.655V152.627H706.589C707.177 152.627 707.659 152.525 708.034 152.32C708.409 152.116 708.686 151.835 708.865 151.477C709.048 151.119 709.139 150.707 709.139 150.243C709.139 149.778 709.048 149.369 708.865 149.016C708.686 148.662 708.406 148.387 708.027 148.191C707.652 147.991 707.169 147.891 706.576 147.891H704.403V159H702.031ZM715.415 159V145.909H723.834V147.897H717.787V150.965H720.312C721.313 150.965 722.172 151.129 722.888 151.457C723.608 151.781 724.16 152.239 724.543 152.832C724.927 153.424 725.119 154.121 725.119 154.922C725.119 155.727 724.927 156.437 724.543 157.05C724.16 157.66 723.608 158.137 722.888 158.482C722.172 158.827 721.313 159 720.312 159H715.415ZM717.787 157.057H720.312C720.84 157.057 721.288 156.957 721.654 156.756C722.021 156.556 722.298 156.292 722.485 155.964C722.677 155.636 722.773 155.28 722.773 154.896C722.773 154.342 722.56 153.871 722.133 153.484C721.712 153.092 721.104 152.896 720.312 152.896H717.787V157.057ZM730.163 159.179V157.185H730.91C731.247 157.185 731.524 157.136 731.741 157.038C731.959 156.94 732.133 156.799 732.265 156.616C732.402 156.433 732.515 156.219 732.604 155.977L732.777 155.536L728.098 145.909H730.578L733.838 152.915L736.657 145.909H739.099L734.586 156.584C734.377 157.044 734.136 157.472 733.864 157.869C733.591 158.261 733.235 158.578 732.796 158.821C732.361 159.06 731.795 159.179 731.096 159.179H730.163ZM742.588 159V145.909H747.497C748.502 145.909 749.346 146.097 750.028 146.472C750.714 146.847 751.232 147.362 751.581 148.018C751.935 148.67 752.112 149.412 752.112 150.243C752.112 151.082 751.935 151.828 751.581 152.48C751.228 153.132 750.706 153.646 750.015 154.021C749.325 154.391 748.475 154.577 747.465 154.577H744.211V152.627H747.145C747.733 152.627 748.215 152.525 748.59 152.32C748.965 152.116 749.242 151.835 749.421 151.477C749.604 151.119 749.696 150.707 749.696 150.243C749.696 149.778 749.604 149.369 749.421 149.016C749.242 148.662 748.963 148.387 748.583 148.191C748.208 147.991 747.725 147.891 747.132 147.891H744.959V159H742.588ZM764.39 145.909V147.897H758.343V159H755.972V145.909H764.39Z" fill="black"/>
<path opacity="0.4" d="M1019.99 372.5H564V262L776.5 273.5C776.5 273.5 1017.33 224.1 1019.99 223.018V223C1020.02 223 1020.02 223.006 1019.99 223.018V372.5Z" fill="url(#paint2_linear_2766_1084)"/>
<rect x="1015.19" y="218" width="10.2717" height="10.2717" rx="5.13587" fill="#04B34A"/>
<path d="M1017.5 224L780.07 272.274C777.699 272.756 775.278 272.94 772.861 272.82L564 262.5" stroke="#04B34A" stroke-width="4"/>
<path d="M885.074 392.557V368.199L875.989 377.318L872 373.364L887.955 357.443L903.875 373.364L899.955 377.318L890.835 368.199V392.557H885.074Z" fill="#04B34A"/>
<path d="M931.462 357.091V392H924.082V364.097H923.877L915.883 369.108V362.562L924.525 357.091H931.462ZM945.352 387.227L945.165 389.102C945.017 390.602 944.733 392.097 944.312 393.585C943.903 395.085 943.472 396.443 943.017 397.659C942.574 398.875 942.216 399.83 941.943 400.523H937.239C937.409 399.852 937.642 398.915 937.938 397.71C938.233 396.517 938.511 395.176 938.773 393.688C939.034 392.199 939.199 390.682 939.267 389.136L939.352 387.227H945.352ZM963.21 392.477C960.664 392.477 958.397 392.04 956.408 391.165C954.431 390.278 952.869 389.062 951.721 387.517C950.585 385.96 949.999 384.165 949.965 382.131H957.397C957.442 382.983 957.721 383.733 958.232 384.381C958.755 385.017 959.448 385.511 960.312 385.864C961.175 386.216 962.147 386.392 963.227 386.392C964.352 386.392 965.346 386.193 966.21 385.795C967.073 385.398 967.749 384.847 968.238 384.142C968.727 383.437 968.971 382.625 968.971 381.705C968.971 380.773 968.71 379.949 968.187 379.233C967.675 378.506 966.937 377.937 965.971 377.528C965.016 377.119 963.88 376.915 962.562 376.915H959.306V371.494H962.562C963.675 371.494 964.658 371.301 965.511 370.915C966.374 370.528 967.045 369.994 967.522 369.312C967.999 368.619 968.238 367.812 968.238 366.892C968.238 366.017 968.028 365.25 967.607 364.591C967.198 363.92 966.619 363.398 965.869 363.023C965.13 362.648 964.266 362.46 963.278 362.46C962.278 362.46 961.363 362.642 960.533 363.006C959.704 363.358 959.039 363.864 958.539 364.523C958.039 365.182 957.772 365.955 957.738 366.841H950.664C950.698 364.83 951.272 363.057 952.386 361.523C953.499 359.989 954.999 358.79 956.886 357.926C958.783 357.051 960.925 356.614 963.312 356.614C965.721 356.614 967.829 357.051 969.636 357.926C971.442 358.801 972.846 359.983 973.846 361.472C974.857 362.949 975.357 364.608 975.346 366.449C975.357 368.403 974.749 370.034 973.522 371.341C972.306 372.648 970.721 373.477 968.766 373.83V374.102C971.335 374.432 973.289 375.324 974.63 376.778C975.982 378.222 976.653 380.028 976.641 382.199C976.653 384.188 976.079 385.955 974.92 387.5C973.772 389.045 972.187 390.261 970.164 391.148C968.141 392.034 965.823 392.477 963.21 392.477ZM1000.56 385.455V383.614C1000.56 382.216 1000.86 380.932 1001.45 379.761C1002.05 378.58 1002.92 377.636 1004.06 376.932C1005.2 376.216 1006.6 375.858 1008.25 375.858C1009.92 375.858 1011.32 376.21 1012.46 376.915C1013.61 377.619 1014.47 378.562 1015.05 379.744C1015.64 380.915 1015.94 382.205 1015.94 383.614V385.455C1015.94 386.852 1015.64 388.142 1015.05 389.324C1014.46 390.494 1013.59 391.432 1012.44 392.136C1011.3 392.852 1009.9 393.21 1008.25 393.21C1006.58 393.21 1005.18 392.852 1004.04 392.136C1002.9 391.432 1002.04 390.494 1001.45 389.324C1000.86 388.142 1000.56 386.852 1000.56 385.455ZM1005.52 383.614V385.455C1005.52 386.261 1005.72 387.023 1006.1 387.739C1006.5 388.455 1007.22 388.812 1008.25 388.812C1009.28 388.812 1009.99 388.46 1010.36 387.756C1010.75 387.051 1010.94 386.284 1010.94 385.455V383.614C1010.94 382.784 1010.76 382.011 1010.4 381.295C1010.03 380.58 1009.32 380.222 1008.25 380.222C1007.23 380.222 1006.52 380.58 1006.12 381.295C1005.72 382.011 1005.52 382.784 1005.52 383.614ZM982.648 365.477V363.636C982.648 362.227 982.949 360.937 983.551 359.767C984.153 358.585 985.023 357.642 986.159 356.938C987.307 356.233 988.693 355.881 990.318 355.881C992 355.881 993.409 356.233 994.545 356.938C995.682 357.642 996.545 358.585 997.136 359.767C997.727 360.937 998.023 362.227 998.023 363.636V365.477C998.023 366.886 997.722 368.176 997.119 369.347C996.528 370.517 995.659 371.455 994.511 372.159C993.375 372.852 991.977 373.199 990.318 373.199C988.659 373.199 987.256 372.847 986.108 372.142C984.972 371.426 984.108 370.489 983.517 369.33C982.938 368.159 982.648 366.875 982.648 365.477ZM987.642 363.636V365.477C987.642 366.307 987.835 367.074 988.222 367.778C988.619 368.483 989.318 368.835 990.318 368.835C991.364 368.835 992.074 368.483 992.449 367.778C992.835 367.074 993.028 366.307 993.028 365.477V363.636C993.028 362.807 992.847 362.034 992.483 361.318C992.119 360.602 991.398 360.244 990.318 360.244C989.307 360.244 988.608 360.608 988.222 361.335C987.835 362.062 987.642 362.83 987.642 363.636ZM984.898 392L1008.9 357.091H1013.36L989.364 392H984.898Z" fill="black"/>
<path d="M571.125 248.219C570.411 248.208 569.708 248.078 569.016 247.828C568.328 247.578 567.703 247.161 567.141 246.578C566.578 245.995 566.128 245.211 565.789 244.227C565.456 243.242 565.289 242.013 565.289 240.539C565.289 239.143 565.427 237.904 565.703 236.82C565.984 235.737 566.388 234.823 566.914 234.078C567.44 233.328 568.076 232.758 568.82 232.367C569.565 231.977 570.401 231.781 571.328 231.781C572.281 231.781 573.128 231.969 573.867 232.344C574.607 232.719 575.206 233.237 575.664 233.898C576.128 234.56 576.422 235.312 576.547 236.156H574.164C574.003 235.49 573.682 234.945 573.203 234.523C572.724 234.102 572.099 233.891 571.328 233.891C570.156 233.891 569.242 234.401 568.586 235.422C567.935 236.443 567.607 237.862 567.602 239.68H567.719C567.995 239.227 568.333 238.841 568.734 238.523C569.141 238.201 569.594 237.953 570.094 237.781C570.599 237.604 571.13 237.516 571.688 237.516C572.615 237.516 573.453 237.742 574.203 238.195C574.958 238.643 575.56 239.263 576.008 240.055C576.456 240.846 576.68 241.753 576.68 242.773C576.68 243.794 576.448 244.719 575.984 245.547C575.526 246.375 574.88 247.031 574.047 247.516C573.214 247.995 572.24 248.229 571.125 248.219ZM571.117 246.187C571.732 246.187 572.281 246.036 572.766 245.734C573.25 245.432 573.633 245.026 573.914 244.516C574.195 244.005 574.336 243.435 574.336 242.805C574.336 242.19 574.198 241.63 573.922 241.125C573.651 240.62 573.276 240.219 572.797 239.922C572.323 239.625 571.781 239.477 571.172 239.477C570.708 239.477 570.279 239.565 569.883 239.742C569.492 239.919 569.148 240.164 568.852 240.477C568.555 240.789 568.32 241.148 568.148 241.555C567.982 241.956 567.898 242.38 567.898 242.828C567.898 243.427 568.036 243.982 568.313 244.492C568.594 245.003 568.977 245.414 569.461 245.727C569.951 246.034 570.503 246.187 571.117 246.187ZM584.873 248.266C583.639 248.26 582.584 247.935 581.709 247.289C580.834 246.643 580.165 245.703 579.701 244.469C579.238 243.234 579.006 241.747 579.006 240.008C579.006 238.273 579.238 236.792 579.701 235.562C580.17 234.333 580.842 233.396 581.717 232.75C582.597 232.104 583.649 231.781 584.873 231.781C586.097 231.781 587.147 232.107 588.022 232.758C588.897 233.404 589.566 234.341 590.029 235.57C590.498 236.794 590.733 238.273 590.733 240.008C590.733 241.753 590.501 243.242 590.037 244.477C589.574 245.706 588.904 246.646 588.029 247.297C587.154 247.943 586.102 248.266 584.873 248.266ZM584.873 246.18C585.956 246.18 586.803 245.651 587.412 244.594C588.027 243.536 588.334 242.008 588.334 240.008C588.334 238.68 588.193 237.557 587.912 236.641C587.636 235.719 587.238 235.021 586.717 234.547C586.201 234.068 585.587 233.828 584.873 233.828C583.795 233.828 582.949 234.359 582.334 235.422C581.72 236.484 581.41 238.013 581.404 240.008C581.404 241.341 581.542 242.469 581.818 243.391C582.1 244.307 582.498 245.003 583.014 245.477C583.529 245.945 584.149 246.18 584.873 246.18ZM595.772 245.812L595.655 246.664C595.576 247.289 595.444 247.94 595.256 248.617C595.074 249.299 594.884 249.932 594.686 250.516C594.493 251.099 594.334 251.563 594.209 251.906H592.553C592.621 251.583 592.714 251.146 592.834 250.594C592.954 250.047 593.071 249.435 593.186 248.758C593.3 248.081 593.386 247.391 593.444 246.687L593.522 245.812H595.772ZM598.817 248V246.25L604.231 240.641C604.809 240.031 605.285 239.497 605.66 239.039C606.041 238.576 606.325 238.135 606.512 237.719C606.7 237.302 606.793 236.859 606.793 236.391C606.793 235.859 606.668 235.401 606.418 235.016C606.168 234.625 605.827 234.326 605.395 234.117C604.963 233.904 604.476 233.797 603.934 233.797C603.361 233.797 602.861 233.914 602.434 234.148C602.007 234.383 601.679 234.714 601.45 235.141C601.22 235.568 601.106 236.068 601.106 236.641H598.801C598.801 235.667 599.025 234.815 599.473 234.086C599.921 233.357 600.535 232.792 601.317 232.391C602.098 231.984 602.986 231.781 603.981 231.781C604.986 231.781 605.871 231.982 606.637 232.383C607.408 232.779 608.009 233.32 608.442 234.008C608.874 234.69 609.09 235.461 609.09 236.32C609.09 236.914 608.978 237.495 608.754 238.062C608.535 238.63 608.153 239.263 607.606 239.961C607.059 240.654 606.298 241.495 605.325 242.484L602.145 245.812V245.93H609.348V248H598.817Z" fill="#CFCFCF"/>
<path d="M985.609 205.219C984.896 205.208 984.192 205.078 983.5 204.828C982.812 204.578 982.187 204.161 981.625 203.578C981.062 202.995 980.612 202.211 980.273 201.227C979.94 200.242 979.773 199.013 979.773 197.539C979.773 196.143 979.911 194.904 980.187 193.82C980.468 192.737 980.872 191.823 981.398 191.078C981.924 190.328 982.56 189.758 983.304 189.367C984.049 188.977 984.885 188.781 985.812 188.781C986.765 188.781 987.612 188.969 988.351 189.344C989.091 189.719 989.69 190.237 990.148 190.898C990.612 191.56 990.906 192.312 991.031 193.156H988.648C988.487 192.49 988.166 191.945 987.687 191.523C987.208 191.102 986.583 190.891 985.812 190.891C984.64 190.891 983.726 191.401 983.07 192.422C982.419 193.443 982.091 194.862 982.086 196.68H982.203C982.479 196.227 982.817 195.841 983.218 195.523C983.625 195.201 984.078 194.953 984.578 194.781C985.083 194.604 985.614 194.516 986.172 194.516C987.099 194.516 987.937 194.742 988.687 195.195C989.442 195.643 990.044 196.263 990.492 197.055C990.94 197.846 991.164 198.753 991.164 199.773C991.164 200.794 990.932 201.719 990.468 202.547C990.01 203.375 989.364 204.031 988.531 204.516C987.698 204.995 986.724 205.229 985.609 205.219ZM985.601 203.187C986.216 203.187 986.765 203.036 987.25 202.734C987.734 202.432 988.117 202.026 988.398 201.516C988.679 201.005 988.82 200.435 988.82 199.805C988.82 199.19 988.682 198.63 988.406 198.125C988.135 197.62 987.76 197.219 987.281 196.922C986.807 196.625 986.265 196.477 985.656 196.477C985.192 196.477 984.763 196.565 984.367 196.742C983.976 196.919 983.633 197.164 983.336 197.477C983.039 197.789 982.804 198.148 982.633 198.555C982.466 198.956 982.383 199.38 982.383 199.828C982.383 200.427 982.521 200.982 982.797 201.492C983.078 202.003 983.461 202.414 983.945 202.727C984.435 203.034 984.987 203.187 985.601 203.187ZM999.857 189V205H997.435V191.422H997.342L993.513 193.922V191.609L997.506 189H999.857ZM1006.11 202.812L1005.99 203.664C1005.91 204.289 1005.78 204.94 1005.59 205.617C1005.41 206.299 1005.22 206.932 1005.02 207.516C1004.83 208.099 1004.67 208.563 1004.55 208.906H1002.89C1002.96 208.583 1003.05 208.146 1003.17 207.594C1003.29 207.047 1003.41 206.435 1003.52 205.758C1003.64 205.081 1003.72 204.391 1003.78 203.687L1003.86 202.812H1006.11ZM1014.18 205.219C1013.2 205.219 1012.32 205.031 1011.54 204.656C1010.76 204.276 1010.14 203.755 1009.68 203.094C1009.21 202.432 1008.97 201.677 1008.94 200.828H1011.28C1011.34 201.516 1011.64 202.081 1012.19 202.523C1012.75 202.966 1013.41 203.187 1014.18 203.187C1014.79 203.187 1015.34 203.047 1015.81 202.766C1016.29 202.479 1016.66 202.086 1016.94 201.586C1017.21 201.086 1017.35 200.516 1017.35 199.875C1017.35 199.224 1017.21 198.643 1016.93 198.133C1016.65 197.622 1016.26 197.221 1015.76 196.93C1015.27 196.638 1014.71 196.49 1014.08 196.484C1013.59 196.484 1013.1 196.568 1012.62 196.734C1012.13 196.901 1011.73 197.12 1011.43 197.391L1009.22 197.062L1010.12 189H1018.91V191.07H1012.12L1011.62 195.547H1011.71C1012.02 195.245 1012.44 194.992 1012.95 194.789C1013.47 194.586 1014.03 194.484 1014.62 194.484C1015.6 194.484 1016.46 194.716 1017.22 195.18C1017.99 195.643 1018.59 196.276 1019.03 197.078C1019.47 197.875 1019.69 198.792 1019.69 199.828C1019.69 200.865 1019.46 201.789 1018.98 202.602C1018.51 203.414 1017.86 204.055 1017.03 204.523C1016.2 204.987 1015.25 205.219 1014.18 205.219Z" fill="#CFCFCF"/>
<defs>
<linearGradient id="paint0_linear_2766_1084" x1="282.996" y1="280.5" x2="282.996" y2="372.5" gradientUnits="userSpaceOnUse">
<stop stop-color="#D9D9D9"/>
<stop offset="1" stop-color="#D9D9D9" stop-opacity="0"/>
</linearGradient>
<linearGradient id="paint1_linear_2766_1084" x1="537.477" y1="466.5" x2="537.477" y2="685.5" gradientUnits="userSpaceOnUse">
<stop stop-color="#04B34A"/>
<stop offset="0.0666667" stop-color="#04B34A" stop-opacity="0.991353"/>
<stop offset="0.133333" stop-color="#04B34A" stop-opacity="0.96449"/>
<stop offset="0.2" stop-color="#04B34A" stop-opacity="0.91834"/>
<stop offset="0.266667" stop-color="#04B34A" stop-opacity="0.852589"/>
<stop offset="0.333333" stop-color="#04B34A" stop-opacity="0.768225"/>
<stop offset="0.4" stop-color="#04B34A" stop-opacity="0.668116"/>
<stop offset="0.466667" stop-color="#04B34A" stop-opacity="0.557309"/>
<stop offset="0.533333" stop-color="#04B34A" stop-opacity="0.442691"/>
<stop offset="0.6" stop-color="#04B34A" stop-opacity="0.331884"/>
<stop offset="0.666667" stop-color="#04B34A" stop-opacity="0.231775"/>
<stop offset="0.733333" stop-color="#04B34A" stop-opacity="0.147411"/>
<stop offset="0.8" stop-color="#04B34A" stop-opacity="0.0816599"/>
<stop offset="0.866667" stop-color="#04B34A" stop-opacity="0.03551"/>
<stop offset="0.933333" stop-color="#04B34A" stop-opacity="0.01"/>
<stop offset="1" stop-color="#04B34A" stop-opacity="0"/>
</linearGradient>
<linearGradient id="paint2_linear_2766_1084" x1="791.996" y1="204.5" x2="791.996" y2="372.5" gradientUnits="userSpaceOnUse">
<stop stop-color="#04B34A"/>
<stop offset="0.0666667" stop-color="#04B34A" stop-opacity="0.991353"/>
<stop offset="0.133333" stop-color="#04B34A" stop-opacity="0.96449"/>
<stop offset="0.2" stop-color="#04B34A" stop-opacity="0.91834"/>
<stop offset="0.266667" stop-color="#04B34A" stop-opacity="0.852589"/>
<stop offset="0.333333" stop-color="#04B34A" stop-opacity="0.768225"/>
<stop offset="0.4" stop-color="#04B34A" stop-opacity="0.668116"/>
<stop offset="0.466667" stop-color="#04B34A" stop-opacity="0.557309"/>
<stop offset="0.533333" stop-color="#04B34A" stop-opacity="0.442691"/>
<stop offset="0.6" stop-color="#04B34A" stop-opacity="0.331884"/>
<stop offset="0.666667" stop-color="#04B34A" stop-opacity="0.231775"/>
<stop offset="0.733333" stop-color="#04B34A" stop-opacity="0.147411"/>
<stop offset="0.8" stop-color="#04B34A" stop-opacity="0.0816599"/>
<stop offset="0.866667" stop-color="#04B34A" stop-opacity="0.03551"/>
<stop offset="0.933333" stop-color="#04B34A" stop-opacity="0.01"/>
<stop offset="1" stop-color="#04B34A" stop-opacity="0"/>
</linearGradient>
</defs>
</svg>
