<svg width="1080" height="1100" viewBox="0 0 1080 1100" fill="none" xmlns="http://www.w3.org/2000/svg">
<rect width="1080" height="1100" fill="white"/>
<path d="M915.587 49L912.911 64.8629H915.891L914.181 75H908.668L909.483 70.1698H895.329L894.514 75H889L890.71 64.8629H892.824C893.79 63.5513 894.707 61.8209 895.74 58.1838L898.364 49H915.59H915.587ZM908.584 54.3069H902.535L901.369 58.3918C900.354 61.9393 899.515 63.5484 898.667 64.8629H906.805L908.584 54.3069Z" fill="#EAECEF"/>
<path d="M920.448 49H933.56C938.18 49 940.257 51.3544 939.681 54.7547C939.314 56.93 937.677 58.3311 936.141 58.958C937.818 59.6138 939.146 61.2836 938.663 64.1464C938.05 67.7836 935.085 70.1698 930.167 70.1698H916.875L920.448 49ZM924.295 61.7024L923.67 65.4002H929.69C931.298 65.4002 932.293 64.8051 932.504 63.5513C932.721 62.2687 931.923 61.7024 930.312 61.7024H924.292H924.295ZM925.631 53.7724L925.099 56.9329H931.029C932.282 56.9329 933.161 56.4851 933.352 55.3527C933.543 54.2202 932.814 53.7724 931.561 53.7724H925.631Z" fill="#EAECEF"/>
<path d="M943.47 49H949.579L947.427 61.7602L958.906 49H965.015L961.445 70.1698H955.336L957.479 57.4673L946.01 70.1698H939.9L943.47 49Z" fill="#EAECEF"/>
<path d="M974.098 59.1978L966.907 49H973.821L979.812 57.6464L981.272 49H987.084L985.626 57.6464L994.536 49H1001.3L990.954 58.9291L998.177 70.1698H990.815L985.039 61.1362L983.514 70.1698H977.703L979.227 61.1362L970.402 70.1698H963.309L974.101 59.1978H974.098Z" fill="#EAECEF"/>
<path d="M1010.23 49H1003.13L1010.19 58.9291L999.713 70.1698H1006.81L1017.29 58.9291L1010.23 49ZM1021.44 49H1014.34L1021.41 58.9291L1010.93 70.1698H1018.02L1028.5 58.9291L1021.44 49ZM1032.94 49H1025.85L1032.91 58.9291L1022.43 70.1698H1029.52L1040 58.9291L1032.94 49Z" fill="#EAECEF"/>
<path d="M64.5327 48.8182V75H59.0611V53.3182H48.4759V75H43.0043V48.8182H64.5327ZM68.2606 82.3636V55.3636H73.63V58.6619H73.8729C74.1115 58.1335 74.4567 57.5966 74.9084 57.0511C75.3686 56.4972 75.9652 56.0369 76.6981 55.6705C77.4396 55.2955 78.3601 55.108 79.4595 55.108C80.8913 55.108 82.2123 55.483 83.4226 56.233C84.6328 56.9744 85.6001 58.0952 86.3246 59.5952C87.049 61.0866 87.4112 62.9574 87.4112 65.2074C87.4112 67.3977 87.0575 69.2472 86.3501 70.7557C85.6513 72.2557 84.6967 73.3935 83.4865 74.169C82.2848 74.9361 80.9382 75.3196 79.4467 75.3196C78.3899 75.3196 77.4908 75.1449 76.7493 74.7955C76.0163 74.446 75.4155 74.0071 74.9467 73.4787C74.478 72.9418 74.12 72.4006 73.8729 71.8551H73.7067V82.3636H68.2606ZM73.5916 65.1818C73.5916 66.3494 73.7535 67.3679 74.0774 68.2372C74.4013 69.1065 74.87 69.7841 75.4837 70.2699C76.0973 70.7472 76.843 70.9858 77.7209 70.9858C78.6072 70.9858 79.3572 70.7429 79.9709 70.2571C80.5845 69.7628 81.049 69.081 81.3643 68.2116C81.6882 67.3338 81.8501 66.3239 81.8501 65.1818C81.8501 64.0483 81.6925 63.0511 81.3771 62.1903C81.0618 61.3295 80.5973 60.6562 79.9837 60.1705C79.37 59.6847 78.6158 59.4418 77.7209 59.4418C76.8345 59.4418 76.0845 59.6761 75.4709 60.1449C74.8658 60.6136 74.4013 61.2784 74.0774 62.1392C73.7535 63 73.5916 64.0142 73.5916 65.1818ZM98.474 75.3835C96.4883 75.3835 94.7709 74.9616 93.3221 74.1179C91.8817 73.2656 90.7695 72.081 89.9854 70.5639C89.2013 69.0384 88.8093 67.2699 88.8093 65.2585C88.8093 63.2301 89.2013 61.4574 89.9854 59.9403C90.7695 58.4148 91.8817 57.2301 93.3221 56.3864C94.7709 55.5341 96.4883 55.108 98.474 55.108C100.46 55.108 102.173 55.5341 103.613 56.3864C105.062 57.2301 106.179 58.4148 106.963 59.9403C107.747 61.4574 108.139 63.2301 108.139 65.2585C108.139 67.2699 107.747 69.0384 106.963 70.5639C106.179 72.081 105.062 73.2656 103.613 74.1179C102.173 74.9616 100.46 75.3835 98.474 75.3835ZM98.4996 71.1648C99.403 71.1648 100.157 70.9091 100.762 70.3977C101.368 69.8778 101.823 69.1705 102.13 68.2756C102.446 67.3807 102.603 66.3622 102.603 65.2202C102.603 64.0781 102.446 63.0597 102.13 62.1648C101.823 61.2699 101.368 60.5625 100.762 60.0426C100.157 59.5227 99.403 59.2628 98.4996 59.2628C97.5877 59.2628 96.8206 59.5227 96.1985 60.0426C95.5848 60.5625 95.1204 61.2699 94.805 62.1648C94.4982 63.0597 94.3448 64.0781 94.3448 65.2202C94.3448 66.3622 94.4982 67.3807 94.805 68.2756C95.1204 69.1705 95.5848 69.8778 96.1985 70.3977C96.8206 70.9091 97.5877 71.1648 98.4996 71.1648ZM127.409 55.3636V71.2415H130.541V81.3153H125.249V75H110.24V55.3636H115.443V70.7173H122.27V55.3636H127.409ZM141.198 75.3835C139.178 75.3835 137.44 74.9744 135.982 74.1562C134.533 73.3295 133.417 72.1619 132.633 70.6534C131.849 69.1364 131.457 67.3423 131.457 65.2713C131.457 63.2514 131.849 61.4787 132.633 59.9531C133.417 58.4276 134.521 57.2386 135.944 56.3864C137.376 55.5341 139.055 55.108 140.981 55.108C142.276 55.108 143.482 55.3168 144.599 55.7344C145.724 56.1435 146.704 56.7614 147.539 57.5881C148.383 58.4148 149.039 59.4545 149.508 60.7074C149.977 61.9517 150.211 63.4091 150.211 65.0795V66.5753H133.63V63.2003H145.084C145.084 62.4162 144.914 61.7216 144.573 61.1165C144.232 60.5114 143.759 60.0384 143.154 59.6974C142.557 59.348 141.863 59.1733 141.07 59.1733C140.244 59.1733 139.511 59.3651 138.871 59.7486C138.241 60.1236 137.746 60.6307 137.388 61.2699C137.03 61.9006 136.847 62.6037 136.839 63.3793V66.5881C136.839 67.5597 137.018 68.3991 137.376 69.1065C137.742 69.8139 138.258 70.3594 138.923 70.7429C139.587 71.1264 140.376 71.3182 141.288 71.3182C141.893 71.3182 142.447 71.233 142.95 71.0625C143.452 70.892 143.883 70.6364 144.241 70.2955C144.599 69.9545 144.871 69.5369 145.059 69.0426L150.096 69.375C149.84 70.5852 149.316 71.642 148.523 72.5455C147.739 73.4403 146.725 74.1392 145.481 74.642C144.245 75.1364 142.817 75.3835 141.198 75.3835ZM165.991 63.0085V67.2912H155.738V63.0085H165.991ZM157.528 55.3636V75H152.325V55.3636H157.528ZM169.404 55.3636V75H164.24V55.3636H169.404ZM170.218 59.6463V55.3636H188.013V59.6463H181.685V75H176.495V59.6463H170.218ZM205.639 75.3835C203.653 75.3835 201.936 74.9616 200.487 74.1179C199.046 73.2656 197.934 72.081 197.15 70.5639C196.366 69.0384 195.974 67.2699 195.974 65.2585C195.974 63.2301 196.366 61.4574 197.15 59.9403C197.934 58.4148 199.046 57.2301 200.487 56.3864C201.936 55.5341 203.653 55.108 205.639 55.108C207.625 55.108 209.338 55.5341 210.778 56.3864C212.227 57.2301 213.343 58.4148 214.127 59.9403C214.911 61.4574 215.304 63.2301 215.304 65.2585C215.304 67.2699 214.911 69.0384 214.127 70.5639C213.343 72.081 212.227 73.2656 210.778 74.1179C209.338 74.9616 207.625 75.3835 205.639 75.3835ZM205.664 71.1648C206.568 71.1648 207.322 70.9091 207.927 70.3977C208.532 69.8778 208.988 69.1705 209.295 68.2756C209.61 67.3807 209.768 66.3622 209.768 65.2202C209.768 64.0781 209.61 63.0597 209.295 62.1648C208.988 61.2699 208.532 60.5625 207.927 60.0426C207.322 59.5227 206.568 59.2628 205.664 59.2628C204.752 59.2628 203.985 59.5227 203.363 60.0426C202.75 60.5625 202.285 61.2699 201.97 62.1648C201.663 63.0597 201.509 64.0781 201.509 65.2202C201.509 66.3622 201.663 67.3807 201.97 68.2756C202.285 69.1705 202.75 69.8778 203.363 70.3977C203.985 70.9091 204.752 71.1648 205.664 71.1648ZM215.871 80.7528V70.679H217.379C217.814 70.4062 218.163 69.9716 218.427 69.375C218.7 68.7784 218.922 68.0753 219.092 67.2656C219.271 66.456 219.408 65.5824 219.501 64.6449C219.604 63.6989 219.693 62.7443 219.77 61.7812L220.281 55.3636H235.341V70.679H238.383V80.7528H233.193V75H221.189V80.7528H215.871ZM222.8 70.679H230.202V59.5568H224.909L224.704 61.7812C224.56 63.8778 224.351 65.6591 224.078 67.125C223.805 68.5824 223.379 69.767 222.8 70.679ZM248.989 75.3835C247.003 75.3835 245.286 74.9616 243.837 74.1179C242.397 73.2656 241.285 72.081 240.501 70.5639C239.716 69.0384 239.324 67.2699 239.324 65.2585C239.324 63.2301 239.716 61.4574 240.501 59.9403C241.285 58.4148 242.397 57.2301 243.837 56.3864C245.286 55.5341 247.003 55.108 248.989 55.108C250.975 55.108 252.688 55.5341 254.128 56.3864C255.577 57.2301 256.694 58.4148 257.478 59.9403C258.262 61.4574 258.654 63.2301 258.654 65.2585C258.654 67.2699 258.262 69.0384 257.478 70.5639C256.694 72.081 255.577 73.2656 254.128 74.1179C252.688 74.9616 250.975 75.3835 248.989 75.3835ZM249.015 71.1648C249.918 71.1648 250.672 70.9091 251.278 70.3977C251.883 69.8778 252.339 69.1705 252.645 68.2756C252.961 67.3807 253.118 66.3622 253.118 65.2202C253.118 64.0781 252.961 63.0597 252.645 62.1648C252.339 61.2699 251.883 60.5625 251.278 60.0426C250.672 59.5227 249.918 59.2628 249.015 59.2628C248.103 59.2628 247.336 59.5227 246.714 60.0426C246.1 60.5625 245.636 61.2699 245.32 62.1648C245.013 63.0597 244.86 64.0781 244.86 65.2202C244.86 66.3622 245.013 67.3807 245.32 68.2756C245.636 69.1705 246.1 69.8778 246.714 70.3977C247.336 70.9091 248.103 71.1648 249.015 71.1648ZM277.08 48.1534L278.742 51.7074C278.188 52.1676 277.575 52.5085 276.901 52.7301C276.228 52.9432 275.423 53.0838 274.485 53.152C273.556 53.2202 272.423 53.267 271.085 53.2926C269.568 53.3097 268.332 53.5526 267.377 54.0213C266.423 54.4901 265.698 55.2273 265.204 56.233C264.71 57.2301 264.386 58.5341 264.232 60.1449H264.424C265.012 58.9432 265.839 58.0142 266.904 57.358C267.978 56.7017 269.303 56.3736 270.88 56.3736C272.551 56.3736 274.012 56.7401 275.265 57.473C276.526 58.206 277.507 59.2585 278.205 60.6307C278.904 62.0028 279.254 63.6477 279.254 65.5653C279.254 67.5597 278.862 69.294 278.078 70.7685C277.302 72.2344 276.198 73.3722 274.767 74.1818C273.335 74.983 271.63 75.3835 269.653 75.3835C267.667 75.3835 265.954 74.9659 264.514 74.1307C263.082 73.2955 261.974 72.0639 261.19 70.4361C260.414 68.8082 260.026 66.8054 260.026 64.4276V62.8168C260.026 58.0866 260.947 54.5795 262.788 52.2955C264.629 50.0114 267.335 48.8523 270.906 48.8182C271.877 48.8011 272.755 48.7969 273.539 48.8054C274.323 48.8139 275.009 48.7756 275.598 48.6903C276.194 48.6051 276.688 48.4261 277.08 48.1534ZM269.678 71.1648C270.514 71.1648 271.23 70.9474 271.826 70.5128C272.431 70.0781 272.896 69.456 273.22 68.6463C273.552 67.8366 273.718 66.8693 273.718 65.7443C273.718 64.6278 273.552 63.6818 273.22 62.9062C272.896 62.1222 272.431 61.5256 271.826 61.1165C271.221 60.7074 270.497 60.5028 269.653 60.5028C269.022 60.5028 268.455 60.6179 267.953 60.848C267.45 61.0781 267.019 61.419 266.661 61.8707C266.312 62.3139 266.039 62.8636 265.843 63.5199C265.656 64.1676 265.562 64.9091 265.562 65.7443C265.562 67.4233 265.924 68.7486 266.649 69.7202C267.382 70.6832 268.392 71.1648 269.678 71.1648ZM281.428 82.3636V55.3636H286.798V58.6619H287.041C287.279 58.1335 287.624 57.5966 288.076 57.0511C288.536 56.4972 289.133 56.0369 289.866 55.6705C290.607 55.2955 291.528 55.108 292.627 55.108C294.059 55.108 295.38 55.483 296.59 56.233C297.801 56.9744 298.768 58.0952 299.492 59.5952C300.217 61.0866 300.579 62.9574 300.579 65.2074C300.579 67.3977 300.225 69.2472 299.518 70.7557C298.819 72.2557 297.865 73.3935 296.654 74.169C295.453 74.9361 294.106 75.3196 292.615 75.3196C291.558 75.3196 290.659 75.1449 289.917 74.7955C289.184 74.446 288.583 74.0071 288.115 73.4787C287.646 72.9418 287.288 72.4006 287.041 71.8551H286.874V82.3636H281.428ZM286.759 65.1818C286.759 66.3494 286.921 67.3679 287.245 68.2372C287.569 69.1065 288.038 69.7841 288.651 70.2699C289.265 70.7472 290.011 70.9858 290.889 70.9858C291.775 70.9858 292.525 70.7429 293.139 70.2571C293.752 69.7628 294.217 69.081 294.532 68.2116C294.856 67.3338 295.018 66.3239 295.018 65.1818C295.018 64.0483 294.86 63.0511 294.545 62.1903C294.23 61.3295 293.765 60.6562 293.151 60.1705C292.538 59.6847 291.784 59.4418 290.889 59.4418C290.002 59.4418 289.252 59.6761 288.639 60.1449C288.034 60.6136 287.569 61.2784 287.245 62.1392C286.921 63 286.759 64.0142 286.759 65.1818ZM311.719 75.3835C309.699 75.3835 307.96 74.9744 306.503 74.1562C305.054 73.3295 303.937 72.1619 303.153 70.6534C302.369 69.1364 301.977 67.3423 301.977 65.2713C301.977 63.2514 302.369 61.4787 303.153 59.9531C303.937 58.4276 305.041 57.2386 306.464 56.3864C307.896 55.5341 309.575 55.108 311.501 55.108C312.797 55.108 314.003 55.3168 315.119 55.7344C316.244 56.1435 317.224 56.7614 318.059 57.5881C318.903 58.4148 319.559 59.4545 320.028 60.7074C320.497 61.9517 320.731 63.4091 320.731 65.0795V66.5753H304.15V63.2003H315.605C315.605 62.4162 315.434 61.7216 315.094 61.1165C314.753 60.5114 314.28 60.0384 313.675 59.6974C313.078 59.348 312.383 59.1733 311.591 59.1733C310.764 59.1733 310.031 59.3651 309.392 59.7486C308.761 60.1236 308.267 60.6307 307.909 61.2699C307.551 61.9006 307.368 62.6037 307.359 63.3793V66.5881C307.359 67.5597 307.538 68.3991 307.896 69.1065C308.263 69.8139 308.778 70.3594 309.443 70.7429C310.108 71.1264 310.896 71.3182 311.808 71.3182C312.413 71.3182 312.967 71.233 313.47 71.0625C313.973 70.892 314.403 70.6364 314.761 70.2955C315.119 69.9545 315.392 69.5369 315.579 69.0426L320.616 69.375C320.361 70.5852 319.836 71.642 319.044 72.5455C318.26 73.4403 317.246 74.1392 316.001 74.642C314.765 75.1364 313.338 75.3835 311.719 75.3835ZM336.512 63.0085V67.2912H326.259V63.0085H336.512ZM328.048 55.3636V75H322.845V55.3636H328.048ZM339.925 55.3636V75H334.76V55.3636H339.925ZM347.913 67.8153L354.983 55.3636H360.352V75H355.162V62.5099L348.118 75H342.71V55.3636H347.913V67.8153ZM374.784 75V59.6335H371.102C370.105 59.6335 369.346 59.8636 368.826 60.3239C368.306 60.7841 368.051 61.3295 368.059 61.9602C368.051 62.5994 368.298 63.1406 368.801 63.5838C369.312 64.0185 370.062 64.2358 371.051 64.2358H376.599V67.9176H371.051C369.372 67.9176 367.918 67.6619 366.691 67.1506C365.464 66.6392 364.518 65.9276 363.853 65.0156C363.188 64.0952 362.86 63.0256 362.869 61.8068C362.86 60.5284 363.188 59.4077 363.853 58.4446C364.518 57.473 365.468 56.7187 366.704 56.1818C367.948 55.6364 369.414 55.3636 371.102 55.3636H379.859V75H374.784ZM362.306 75L367.765 64.7727H372.968L367.522 75H362.306Z" fill="black"/>
<path d="M65.3764 782.984H59.777C59.6747 782.26 59.4659 781.616 59.1506 781.054C58.8352 780.483 58.4304 779.997 57.9361 779.597C57.4418 779.196 56.8707 778.889 56.223 778.676C55.5838 778.463 54.8892 778.357 54.1392 778.357C52.7841 778.357 51.6037 778.693 50.598 779.366C49.5923 780.031 48.8125 781.003 48.2585 782.281C47.7045 783.551 47.4276 785.094 47.4276 786.909C47.4276 788.776 47.7045 790.344 48.2585 791.614C48.821 792.884 49.6051 793.842 50.6108 794.49C51.6165 795.138 52.7798 795.462 54.1009 795.462C54.8423 795.462 55.5284 795.364 56.1591 795.168C56.7983 794.972 57.3651 794.686 57.8594 794.311C58.3537 793.928 58.7628 793.463 59.0866 792.918C59.419 792.372 59.6491 791.75 59.777 791.051L65.3764 791.077C65.2315 792.278 64.8693 793.438 64.2898 794.554C63.7188 795.662 62.9474 796.655 61.9759 797.533C61.0128 798.402 59.8622 799.092 58.5241 799.604C57.1946 800.107 55.6903 800.358 54.0114 800.358C51.6761 800.358 49.5881 799.83 47.7472 798.773C45.9148 797.716 44.4659 796.186 43.4006 794.183C42.3438 792.18 41.8153 789.756 41.8153 786.909C41.8153 784.054 42.3523 781.625 43.4261 779.622C44.5 777.619 45.9574 776.094 47.7983 775.045C49.6392 773.989 51.7102 773.46 54.0114 773.46C55.5284 773.46 56.9347 773.673 58.2301 774.099C59.5341 774.526 60.6889 775.148 61.6946 775.966C62.7003 776.776 63.5185 777.768 64.1491 778.945C64.7884 780.121 65.1974 781.467 65.3764 782.984ZM67.8036 800V780.364H73.2496V787.983H74.7837L80.1275 780.364H86.5195L79.5778 790.105L86.5962 800H80.1275L75.2823 793.033H73.2496V800H67.8036ZM95.5209 800.384C93.5351 800.384 91.8178 799.962 90.3689 799.118C88.9286 798.266 87.8164 797.081 87.0323 795.564C86.2482 794.038 85.8561 792.27 85.8561 790.259C85.8561 788.23 86.2482 786.457 87.0323 784.94C87.8164 783.415 88.9286 782.23 90.3689 781.386C91.8178 780.534 93.5351 780.108 95.5209 780.108C97.5067 780.108 99.2198 780.534 100.66 781.386C102.109 782.23 103.225 783.415 104.01 784.94C104.794 786.457 105.186 788.23 105.186 790.259C105.186 792.27 104.794 794.038 104.01 795.564C103.225 797.081 102.109 798.266 100.66 799.118C99.2198 799.962 97.5067 800.384 95.5209 800.384ZM95.5465 796.165C96.4499 796.165 97.2042 795.909 97.8093 795.398C98.4144 794.878 98.8704 794.17 99.1772 793.276C99.4925 792.381 99.6502 791.362 99.6502 790.22C99.6502 789.078 99.4925 788.06 99.1772 787.165C98.8704 786.27 98.4144 785.562 97.8093 785.043C97.2042 784.523 96.4499 784.263 95.5465 784.263C94.6346 784.263 93.8675 784.523 93.2454 785.043C92.6317 785.562 92.1672 786.27 91.8519 787.165C91.5451 788.06 91.3917 789.078 91.3917 790.22C91.3917 791.362 91.5451 792.381 91.8519 793.276C92.1672 794.17 92.6317 794.878 93.2454 795.398C93.8675 795.909 94.6346 796.165 95.5465 796.165ZM107.287 807.364V780.364H112.656V783.662H112.899C113.138 783.134 113.483 782.597 113.935 782.051C114.395 781.497 114.991 781.037 115.724 780.67C116.466 780.295 117.386 780.108 118.486 780.108C119.918 780.108 121.239 780.483 122.449 781.233C123.659 781.974 124.626 783.095 125.351 784.595C126.075 786.087 126.437 787.957 126.437 790.207C126.437 792.398 126.084 794.247 125.376 795.756C124.678 797.256 123.723 798.393 122.513 799.169C121.311 799.936 119.964 800.32 118.473 800.32C117.416 800.32 116.517 800.145 115.776 799.795C115.043 799.446 114.442 799.007 113.973 798.479C113.504 797.942 113.146 797.401 112.899 796.855H112.733V807.364H107.287ZM112.618 790.182C112.618 791.349 112.78 792.368 113.104 793.237C113.428 794.107 113.896 794.784 114.51 795.27C115.124 795.747 115.869 795.986 116.747 795.986C117.633 795.986 118.383 795.743 118.997 795.257C119.611 794.763 120.075 794.081 120.391 793.212C120.714 792.334 120.876 791.324 120.876 790.182C120.876 789.048 120.719 788.051 120.403 787.19C120.088 786.33 119.624 785.656 119.01 785.17C118.396 784.685 117.642 784.442 116.747 784.442C115.861 784.442 115.111 784.676 114.497 785.145C113.892 785.614 113.428 786.278 113.104 787.139C112.78 788 112.618 789.014 112.618 790.182ZM137.5 800.384C135.515 800.384 133.797 799.962 132.348 799.118C130.908 798.266 129.796 797.081 129.012 795.564C128.228 794.038 127.836 792.27 127.836 790.259C127.836 788.23 128.228 786.457 129.012 784.94C129.796 783.415 130.908 782.23 132.348 781.386C133.797 780.534 135.515 780.108 137.5 780.108C139.486 780.108 141.199 780.534 142.64 781.386C144.088 782.23 145.205 783.415 145.989 784.94C146.773 786.457 147.165 788.23 147.165 790.259C147.165 792.27 146.773 794.038 145.989 795.564C145.205 797.081 144.088 798.266 142.64 799.118C141.199 799.962 139.486 800.384 137.5 800.384ZM137.526 796.165C138.429 796.165 139.184 795.909 139.789 795.398C140.394 794.878 140.85 794.17 141.157 793.276C141.472 792.381 141.63 791.362 141.63 790.22C141.63 789.078 141.472 788.06 141.157 787.165C140.85 786.27 140.394 785.562 139.789 785.043C139.184 784.523 138.429 784.263 137.526 784.263C136.614 784.263 135.847 784.523 135.225 785.043C134.611 785.562 134.147 786.27 133.831 787.165C133.524 788.06 133.371 789.078 133.371 790.22C133.371 791.362 133.524 792.381 133.831 793.276C134.147 794.17 134.611 794.878 135.225 795.398C135.847 795.909 136.614 796.165 137.526 796.165ZM158.138 800.384C156.127 800.384 154.397 799.957 152.948 799.105C151.508 798.244 150.4 797.051 149.624 795.526C148.857 794 148.474 792.244 148.474 790.259C148.474 788.247 148.861 786.483 149.637 784.966C150.421 783.44 151.533 782.251 152.974 781.399C154.414 780.538 156.127 780.108 158.113 780.108C159.826 780.108 161.326 780.419 162.613 781.041C163.9 781.663 164.918 782.537 165.668 783.662C166.418 784.787 166.832 786.108 166.908 787.625H161.769C161.624 786.645 161.241 785.857 160.619 785.26C160.005 784.655 159.2 784.352 158.202 784.352C157.359 784.352 156.621 784.582 155.991 785.043C155.369 785.494 154.883 786.155 154.533 787.024C154.184 787.893 154.009 788.946 154.009 790.182C154.009 791.435 154.18 792.5 154.521 793.378C154.87 794.256 155.36 794.925 155.991 795.385C156.621 795.845 157.359 796.075 158.202 796.075C158.825 796.075 159.383 795.947 159.877 795.692C160.38 795.436 160.793 795.065 161.117 794.58C161.45 794.085 161.667 793.493 161.769 792.803H166.908C166.823 794.303 166.414 795.624 165.681 796.766C164.957 797.899 163.955 798.786 162.677 799.425C161.398 800.064 159.886 800.384 158.138 800.384ZM167.616 784.646V780.364H185.411V784.646H179.083V800H173.893V784.646H167.616ZM190.686 786.398H196.554C199.154 786.398 201.182 787.02 202.639 788.264C204.097 789.5 204.826 791.153 204.826 793.224C204.826 794.571 204.497 795.756 203.841 796.778C203.185 797.793 202.239 798.585 201.003 799.156C199.767 799.719 198.284 800 196.554 800H187.273V780.364H192.476V795.717H196.554C197.466 795.717 198.216 795.487 198.804 795.027C199.392 794.567 199.691 793.979 199.699 793.263C199.691 792.504 199.392 791.886 198.804 791.409C198.216 790.923 197.466 790.68 196.554 790.68H190.686V786.398ZM222.761 800.384C220.775 800.384 219.058 799.962 217.609 799.118C216.169 798.266 215.057 797.081 214.273 795.564C213.489 794.038 213.096 792.27 213.096 790.259C213.096 788.23 213.489 786.457 214.273 784.94C215.057 783.415 216.169 782.23 217.609 781.386C219.058 780.534 220.775 780.108 222.761 780.108C224.747 780.108 226.46 780.534 227.9 781.386C229.349 782.23 230.466 783.415 231.25 784.94C232.034 786.457 232.426 788.23 232.426 790.259C232.426 792.27 232.034 794.038 231.25 795.564C230.466 797.081 229.349 798.266 227.9 799.118C226.46 799.962 224.747 800.384 222.761 800.384ZM222.787 796.165C223.69 796.165 224.444 795.909 225.05 795.398C225.655 794.878 226.111 794.17 226.417 793.276C226.733 792.381 226.89 791.362 226.89 790.22C226.89 789.078 226.733 788.06 226.417 787.165C226.111 786.27 225.655 785.562 225.05 785.043C224.444 784.523 223.69 784.263 222.787 784.263C221.875 784.263 221.108 784.523 220.486 785.043C219.872 785.562 219.408 786.27 219.092 787.165C218.785 788.06 218.632 789.078 218.632 790.22C218.632 791.362 218.785 792.381 219.092 793.276C219.408 794.17 219.872 794.878 220.486 795.398C221.108 795.909 221.875 796.165 222.787 796.165ZM232.993 805.753V795.679H234.502C234.936 795.406 235.286 794.972 235.55 794.375C235.823 793.778 236.044 793.075 236.215 792.266C236.394 791.456 236.53 790.582 236.624 789.645C236.726 788.699 236.816 787.744 236.892 786.781L237.404 780.364H252.463V795.679H255.506V805.753H250.316V800H238.311V805.753H232.993ZM239.922 795.679H247.324V784.557H242.031L241.827 786.781C241.682 788.878 241.473 790.659 241.201 792.125C240.928 793.582 240.502 794.767 239.922 795.679ZM266.112 800.384C264.126 800.384 262.409 799.962 260.96 799.118C259.519 798.266 258.407 797.081 257.623 795.564C256.839 794.038 256.447 792.27 256.447 790.259C256.447 788.23 256.839 786.457 257.623 784.94C258.407 783.415 259.519 782.23 260.96 781.386C262.409 780.534 264.126 780.108 266.112 780.108C268.098 780.108 269.811 780.534 271.251 781.386C272.7 782.23 273.816 783.415 274.6 784.94C275.384 786.457 275.776 788.23 275.776 790.259C275.776 792.27 275.384 794.038 274.6 795.564C273.816 797.081 272.7 798.266 271.251 799.118C269.811 799.962 268.098 800.384 266.112 800.384ZM266.137 796.165C267.041 796.165 267.795 795.909 268.4 795.398C269.005 794.878 269.461 794.17 269.768 793.276C270.083 792.381 270.241 791.362 270.241 790.22C270.241 789.078 270.083 788.06 269.768 787.165C269.461 786.27 269.005 785.562 268.4 785.043C267.795 784.523 267.041 784.263 266.137 784.263C265.225 784.263 264.458 784.523 263.836 785.043C263.223 785.562 262.758 786.27 262.443 787.165C262.136 788.06 261.982 789.078 261.982 790.22C261.982 791.362 262.136 792.381 262.443 793.276C262.758 794.17 263.223 794.878 263.836 795.398C264.458 795.909 265.225 796.165 266.137 796.165ZM294.203 773.153L295.865 776.707C295.311 777.168 294.697 777.509 294.024 777.73C293.351 777.943 292.545 778.084 291.608 778.152C290.679 778.22 289.545 778.267 288.207 778.293C286.69 778.31 285.454 778.553 284.5 779.021C283.545 779.49 282.821 780.227 282.327 781.233C281.832 782.23 281.508 783.534 281.355 785.145H281.547C282.135 783.943 282.961 783.014 284.027 782.358C285.101 781.702 286.426 781.374 288.003 781.374C289.673 781.374 291.135 781.74 292.388 782.473C293.649 783.206 294.629 784.259 295.328 785.631C296.027 787.003 296.376 788.648 296.376 790.565C296.376 792.56 295.984 794.294 295.2 795.768C294.425 797.234 293.321 798.372 291.889 799.182C290.457 799.983 288.753 800.384 286.775 800.384C284.79 800.384 283.077 799.966 281.636 799.131C280.204 798.295 279.096 797.064 278.312 795.436C277.537 793.808 277.149 791.805 277.149 789.428V787.817C277.149 783.087 278.069 779.58 279.91 777.295C281.751 775.011 284.457 773.852 288.028 773.818C289 773.801 289.878 773.797 290.662 773.805C291.446 773.814 292.132 773.776 292.72 773.69C293.317 773.605 293.811 773.426 294.203 773.153ZM286.801 796.165C287.636 796.165 288.352 795.947 288.949 795.513C289.554 795.078 290.018 794.456 290.342 793.646C290.675 792.837 290.841 791.869 290.841 790.744C290.841 789.628 290.675 788.682 290.342 787.906C290.018 787.122 289.554 786.526 288.949 786.116C288.344 785.707 287.619 785.503 286.775 785.503C286.145 785.503 285.578 785.618 285.075 785.848C284.572 786.078 284.142 786.419 283.784 786.871C283.434 787.314 283.162 787.864 282.966 788.52C282.778 789.168 282.684 789.909 282.684 790.744C282.684 792.423 283.047 793.749 283.771 794.72C284.504 795.683 285.514 796.165 286.801 796.165ZM298.551 807.364V780.364H303.92V783.662H304.163C304.402 783.134 304.747 782.597 305.199 782.051C305.659 781.497 306.255 781.037 306.988 780.67C307.73 780.295 308.65 780.108 309.75 780.108C311.182 780.108 312.503 780.483 313.713 781.233C314.923 781.974 315.89 783.095 316.615 784.595C317.339 786.087 317.702 787.957 317.702 790.207C317.702 792.398 317.348 794.247 316.64 795.756C315.942 797.256 314.987 798.393 313.777 799.169C312.575 799.936 311.229 800.32 309.737 800.32C308.68 800.32 307.781 800.145 307.04 799.795C306.307 799.446 305.706 799.007 305.237 798.479C304.768 797.942 304.41 797.401 304.163 796.855H303.997V807.364H298.551ZM303.882 790.182C303.882 791.349 304.044 792.368 304.368 793.237C304.692 794.107 305.16 794.784 305.774 795.27C306.388 795.747 307.133 795.986 308.011 795.986C308.898 795.986 309.648 795.743 310.261 795.257C310.875 794.763 311.339 794.081 311.655 793.212C311.979 792.334 312.14 791.324 312.14 790.182C312.14 789.048 311.983 788.051 311.667 787.19C311.352 786.33 310.888 785.656 310.274 785.17C309.66 784.685 308.906 784.442 308.011 784.442C307.125 784.442 306.375 784.676 305.761 785.145C305.156 785.614 304.692 786.278 304.368 787.139C304.044 788 303.882 789.014 303.882 790.182ZM328.841 800.384C326.821 800.384 325.083 799.974 323.625 799.156C322.176 798.33 321.06 797.162 320.276 795.653C319.492 794.136 319.1 792.342 319.1 790.271C319.1 788.251 319.492 786.479 320.276 784.953C321.06 783.428 322.164 782.239 323.587 781.386C325.019 780.534 326.698 780.108 328.624 780.108C329.919 780.108 331.125 780.317 332.242 780.734C333.367 781.143 334.347 781.761 335.182 782.588C336.026 783.415 336.682 784.455 337.151 785.707C337.619 786.952 337.854 788.409 337.854 790.08V791.575H321.273V788.2H332.727C332.727 787.416 332.557 786.722 332.216 786.116C331.875 785.511 331.402 785.038 330.797 784.697C330.2 784.348 329.506 784.173 328.713 784.173C327.887 784.173 327.154 784.365 326.514 784.749C325.884 785.124 325.389 785.631 325.031 786.27C324.673 786.901 324.49 787.604 324.482 788.379V791.588C324.482 792.56 324.661 793.399 325.019 794.107C325.385 794.814 325.901 795.359 326.565 795.743C327.23 796.126 328.019 796.318 328.931 796.318C329.536 796.318 330.09 796.233 330.592 796.062C331.095 795.892 331.526 795.636 331.884 795.295C332.242 794.955 332.514 794.537 332.702 794.043L337.739 794.375C337.483 795.585 336.959 796.642 336.166 797.545C335.382 798.44 334.368 799.139 333.124 799.642C331.888 800.136 330.46 800.384 328.841 800.384ZM353.634 788.009V792.291H343.381V788.009H353.634ZM345.171 780.364V800H339.968V780.364H345.171ZM357.047 780.364V800H351.883V780.364H357.047ZM365.036 792.815L372.105 780.364H377.475V800H372.284V787.51L365.24 800H359.833V780.364H365.036V792.815ZM391.906 800V784.634H388.224C387.227 784.634 386.468 784.864 385.949 785.324C385.429 785.784 385.173 786.33 385.182 786.96C385.173 787.599 385.42 788.141 385.923 788.584C386.434 789.018 387.184 789.236 388.173 789.236H393.721V792.918H388.173C386.494 792.918 385.041 792.662 383.814 792.151C382.586 791.639 381.64 790.928 380.976 790.016C380.311 789.095 379.983 788.026 379.991 786.807C379.983 785.528 380.311 784.408 380.976 783.445C381.64 782.473 382.591 781.719 383.826 781.182C385.071 780.636 386.537 780.364 388.224 780.364H396.981V800H391.906ZM379.429 800L384.888 789.773H390.091L384.645 800H379.429Z" fill="black"/>
<path opacity="0.4" d="M1034.95 303.5H40.0001L40 216L758 203.5L1034.95 184V303.5Z" fill="url(#paint0_linear_2766_1474)"/>
<rect x="1030.54" y="179.357" width="9.55842" height="9.55842" rx="4.77921" fill="#04B34A" stroke="#04B34A" stroke-width="0.713315"/>
<path d="M40 215L754.5 203.5L1034.95 183.5" stroke="#04B34A" stroke-width="4"/>
<path d="M893.074 323.557V299.199L883.989 308.318L880 304.364L895.955 288.443L911.875 304.364L907.955 308.318L898.835 299.199V323.557H893.074Z" fill="#04B34A"/>
<path d="M938.212 323.767C935.281 323.756 932.758 323.034 930.644 321.602C928.542 320.17 926.923 318.097 925.786 315.381C924.661 312.665 924.104 309.398 924.116 305.58C924.116 301.773 924.678 298.528 925.803 295.847C926.94 293.165 928.559 291.125 930.661 289.727C932.775 288.318 935.292 287.614 938.212 287.614C941.133 287.614 943.644 288.318 945.746 289.727C947.86 291.136 949.485 293.182 950.621 295.864C951.758 298.534 952.32 301.773 952.309 305.58C952.309 309.409 951.741 312.682 950.604 315.398C949.479 318.114 947.866 320.187 945.763 321.619C943.661 323.051 941.144 323.767 938.212 323.767ZM938.212 317.648C940.212 317.648 941.809 316.642 943.002 314.631C944.195 312.619 944.786 309.602 944.775 305.58C944.775 302.932 944.502 300.727 943.957 298.966C943.423 297.205 942.661 295.881 941.673 294.994C940.695 294.108 939.542 293.665 938.212 293.665C936.224 293.665 934.633 294.659 933.44 296.648C932.246 298.636 931.644 301.614 931.633 305.58C931.633 308.261 931.9 310.5 932.434 312.295C932.979 314.08 933.746 315.42 934.735 316.318C935.724 317.205 936.883 317.648 938.212 317.648ZM963.634 318.227L963.446 320.102C963.298 321.602 963.014 323.097 962.594 324.585C962.185 326.085 961.753 327.443 961.298 328.659C960.855 329.875 960.497 330.83 960.224 331.523H955.52C955.69 330.852 955.923 329.915 956.219 328.71C956.514 327.517 956.793 326.176 957.054 324.688C957.315 323.199 957.48 321.682 957.548 320.136L957.634 318.227H963.634ZM969.781 323L984.252 294.364V294.125H967.394V288.091H991.888V294.21L977.4 323H969.781ZM1015.56 316.455V314.614C1015.56 313.216 1015.86 311.932 1016.45 310.761C1017.05 309.58 1017.92 308.636 1019.06 307.932C1020.2 307.216 1021.6 306.858 1023.25 306.858C1024.92 306.858 1026.32 307.21 1027.46 307.915C1028.61 308.619 1029.47 309.562 1030.05 310.744C1030.64 311.915 1030.94 313.205 1030.94 314.614V316.455C1030.94 317.852 1030.64 319.142 1030.05 320.324C1029.46 321.494 1028.59 322.432 1027.44 323.136C1026.3 323.852 1024.9 324.21 1023.25 324.21C1021.58 324.21 1020.18 323.852 1019.04 323.136C1017.9 322.432 1017.04 321.494 1016.45 320.324C1015.86 319.142 1015.56 317.852 1015.56 316.455ZM1020.52 314.614V316.455C1020.52 317.261 1020.72 318.023 1021.1 318.739C1021.5 319.455 1022.22 319.812 1023.25 319.812C1024.28 319.812 1024.99 319.46 1025.36 318.756C1025.75 318.051 1025.94 317.284 1025.94 316.455V314.614C1025.94 313.784 1025.76 313.011 1025.4 312.295C1025.03 311.58 1024.32 311.222 1023.25 311.222C1022.23 311.222 1021.52 311.58 1021.12 312.295C1020.72 313.011 1020.52 313.784 1020.52 314.614ZM997.648 296.477V294.636C997.648 293.227 997.949 291.937 998.551 290.767C999.153 289.585 1000.02 288.642 1001.16 287.938C1002.31 287.233 1003.69 286.881 1005.32 286.881C1007 286.881 1008.41 287.233 1009.55 287.938C1010.68 288.642 1011.55 289.585 1012.14 290.767C1012.73 291.937 1013.02 293.227 1013.02 294.636V296.477C1013.02 297.886 1012.72 299.176 1012.12 300.347C1011.53 301.517 1010.66 302.455 1009.51 303.159C1008.38 303.852 1006.98 304.199 1005.32 304.199C1003.66 304.199 1002.26 303.847 1001.11 303.142C999.972 302.426 999.108 301.489 998.517 300.33C997.938 299.159 997.648 297.875 997.648 296.477ZM1002.64 294.636V296.477C1002.64 297.307 1002.84 298.074 1003.22 298.778C1003.62 299.483 1004.32 299.835 1005.32 299.835C1006.36 299.835 1007.07 299.483 1007.45 298.778C1007.84 298.074 1008.03 297.307 1008.03 296.477V294.636C1008.03 293.807 1007.85 293.034 1007.48 292.318C1007.12 291.602 1006.4 291.244 1005.32 291.244C1004.31 291.244 1003.61 291.608 1003.22 292.335C1002.84 293.062 1002.64 293.83 1002.64 294.636ZM999.898 323L1023.9 288.091H1028.36L1004.36 323H999.898Z" fill="black"/>
<path d="M46.2003 201.199C45.3101 201.199 44.5099 201.028 43.7997 200.688C43.0942 200.342 42.5308 199.868 42.1094 199.267C41.688 198.666 41.4631 197.979 41.4347 197.207H43.5653C43.6174 197.832 43.8944 198.346 44.3963 198.749C44.8982 199.151 45.4995 199.352 46.2003 199.352C46.759 199.352 47.2538 199.224 47.6847 198.969C48.1203 198.708 48.4612 198.351 48.7074 197.896C48.9583 197.442 49.0838 196.923 49.0838 196.341C49.0838 195.749 48.956 195.221 48.7003 194.757C48.4446 194.293 48.0919 193.929 47.642 193.663C47.197 193.398 46.6856 193.263 46.108 193.259C45.6676 193.259 45.2249 193.334 44.7798 193.486C44.3348 193.637 43.9749 193.836 43.7003 194.082L41.6903 193.784L42.5071 186.455H50.5043V188.337H44.3324L43.8707 192.406H43.956C44.2401 192.132 44.6165 191.902 45.0852 191.717C45.5587 191.533 46.0653 191.44 46.6051 191.44C47.4905 191.44 48.2789 191.651 48.9702 192.072C49.6662 192.494 50.2131 193.069 50.6108 193.798C51.0133 194.523 51.2121 195.356 51.2074 196.298C51.2121 197.241 50.9991 198.081 50.5682 198.82C50.142 199.558 49.5502 200.141 48.7926 200.567C48.0398 200.988 47.1757 201.199 46.2003 201.199ZM53.2735 198.159V196.384L59.5591 186.455H60.9582V189.068H60.0704L55.5747 196.185V196.298H64.1897V198.159H53.2735ZM60.1698 201V197.619L60.1841 196.81V186.455H62.265V201H60.1698ZM68.6866 199.011L68.5801 199.786C68.5091 200.354 68.3883 200.946 68.2179 201.561C68.0522 202.181 67.8793 202.757 67.6994 203.287C67.5242 203.817 67.3798 204.239 67.2662 204.551H65.7605C65.8221 204.258 65.9073 203.86 66.0162 203.358C66.1251 202.861 66.2316 202.304 66.3358 201.689C66.44 201.073 66.5181 200.446 66.5702 199.807L66.6412 199.011H68.6866ZM71.4346 201V199.409L76.3565 194.31C76.8821 193.756 77.3153 193.27 77.6562 192.854C78.0018 192.432 78.2599 192.032 78.4303 191.653C78.6008 191.275 78.686 190.872 78.686 190.446C78.686 189.963 78.5724 189.546 78.3451 189.196C78.1178 188.841 77.8077 188.569 77.4147 188.379C77.0217 188.185 76.579 188.088 76.0866 188.088C75.5658 188.088 75.1112 188.195 74.723 188.408C74.3347 188.621 74.0364 188.921 73.8281 189.31C73.6197 189.698 73.5156 190.152 73.5156 190.673H71.4204C71.4204 189.788 71.624 189.014 72.0312 188.351C72.4384 187.688 72.9971 187.174 73.7073 186.81C74.4176 186.44 75.2249 186.256 76.1292 186.256C77.043 186.256 77.848 186.438 78.544 186.803C79.2447 187.162 79.7916 187.655 80.1846 188.28C80.5776 188.9 80.7741 189.601 80.7741 190.382C80.7741 190.922 80.6723 191.45 80.4687 191.966C80.2698 192.482 79.9218 193.057 79.4247 193.692C78.9275 194.321 78.2362 195.086 77.3508 195.986L74.4602 199.011V199.118H81.0085V201H71.4346Z" fill="#CFCFCF"/>
<path d="M998.626 165.199C997.736 165.199 996.935 165.028 996.225 164.688C995.52 164.342 994.956 163.868 994.535 163.267C994.113 162.666 993.889 161.979 993.86 161.207H995.991C996.043 161.832 996.32 162.346 996.822 162.749C997.324 163.151 997.925 163.352 998.626 163.352C999.184 163.352 999.679 163.224 1000.11 162.969C1000.55 162.708 1000.89 162.351 1001.13 161.896C1001.38 161.442 1001.51 160.923 1001.51 160.341C1001.51 159.749 1001.38 159.221 1001.13 158.757C1000.87 158.293 1000.52 157.929 1000.07 157.663C999.622 157.398 999.111 157.263 998.533 157.259C998.093 157.259 997.65 157.334 997.205 157.486C996.76 157.637 996.4 157.836 996.126 158.082L994.116 157.784L994.933 150.455H1002.93V152.337H996.758L996.296 156.406H996.381C996.666 156.132 997.042 155.902 997.511 155.717C997.984 155.533 998.491 155.44 999.031 155.44C999.916 155.44 1000.7 155.651 1001.4 156.072C1002.09 156.494 1002.64 157.069 1003.04 157.798C1003.44 158.523 1003.64 159.356 1003.63 160.298C1003.64 161.241 1003.42 162.081 1002.99 162.82C1002.57 163.558 1001.98 164.141 1001.22 164.567C1000.47 164.988 999.601 165.199 998.626 165.199ZM1005.7 162.159V160.384L1011.98 150.455H1013.38V153.068H1012.5L1008 160.185V160.298H1016.62V162.159H1005.7ZM1012.6 165V161.619L1012.61 160.81V150.455H1014.69V165H1012.6ZM1021.11 163.011L1021.01 163.786C1020.93 164.354 1020.81 164.946 1020.64 165.561C1020.48 166.181 1020.3 166.757 1020.12 167.287C1019.95 167.817 1019.81 168.239 1019.69 168.551H1018.19C1018.25 168.258 1018.33 167.86 1018.44 167.358C1018.55 166.861 1018.66 166.304 1018.76 165.689C1018.87 165.073 1018.94 164.446 1019 163.807L1019.07 163.011H1021.11ZM1028.52 150.256C1029.17 150.26 1029.81 150.379 1030.44 150.611C1031.07 150.843 1031.64 151.222 1032.14 151.747C1032.65 152.273 1033.06 152.983 1033.36 153.878C1033.67 154.768 1033.83 155.876 1033.83 157.202C1033.83 158.475 1033.71 159.609 1033.45 160.604C1033.19 161.593 1032.83 162.429 1032.35 163.111C1031.88 163.793 1031.3 164.311 1030.62 164.666C1029.95 165.021 1029.18 165.199 1028.34 165.199C1027.47 165.199 1026.7 165.028 1026.03 164.688C1025.36 164.347 1024.81 163.875 1024.39 163.274C1023.97 162.668 1023.7 161.972 1023.6 161.186H1025.77C1025.91 161.811 1026.2 162.318 1026.63 162.706C1027.07 163.089 1027.64 163.281 1028.34 163.281C1029.4 163.281 1030.23 162.817 1030.83 161.889C1031.43 160.956 1031.73 159.654 1031.73 157.983H1031.62C1031.37 158.39 1031.06 158.741 1030.69 159.034C1030.33 159.328 1029.92 159.555 1029.47 159.716C1029.01 159.877 1028.53 159.957 1028.01 159.957C1027.17 159.957 1026.41 159.751 1025.72 159.339C1025.04 158.928 1024.49 158.362 1024.08 157.642C1023.67 156.922 1023.47 156.101 1023.47 155.178C1023.47 154.259 1023.68 153.426 1024.1 152.678C1024.52 151.929 1025.1 151.338 1025.86 150.902C1026.62 150.462 1027.5 150.246 1028.52 150.256ZM1028.53 152.102C1027.97 152.102 1027.47 152.24 1027.03 152.514C1026.59 152.784 1026.24 153.151 1025.99 153.615C1025.73 154.074 1025.6 154.586 1025.6 155.149C1025.6 155.713 1025.73 156.224 1025.97 156.683C1026.22 157.138 1026.56 157.5 1026.99 157.77C1027.43 158.035 1027.93 158.168 1028.49 158.168C1028.9 158.168 1029.29 158.087 1029.65 157.926C1030.01 157.765 1030.32 157.543 1030.59 157.259C1030.86 156.97 1031.08 156.643 1031.23 156.278C1031.38 155.914 1031.45 155.53 1031.45 155.128C1031.45 154.593 1031.33 154.096 1031.07 153.636C1030.82 153.177 1030.47 152.808 1030.03 152.528C1029.59 152.244 1029.09 152.102 1028.53 152.102Z" fill="#CFCFCF"/>
<path d="M64.5327 411.818V438H59.0611V416.318H48.4759V438H43.0043V411.818H64.5327ZM68.2606 445.364V418.364H73.63V421.662H73.8729C74.1115 421.134 74.4567 420.597 74.9084 420.051C75.3686 419.497 75.9652 419.037 76.6981 418.67C77.4396 418.295 78.3601 418.108 79.4595 418.108C80.8913 418.108 82.2123 418.483 83.4226 419.233C84.6328 419.974 85.6001 421.095 86.3246 422.595C87.049 424.087 87.4112 425.957 87.4112 428.207C87.4112 430.398 87.0575 432.247 86.3501 433.756C85.6513 435.256 84.6967 436.393 83.4865 437.169C82.2848 437.936 80.9382 438.32 79.4467 438.32C78.3899 438.32 77.4908 438.145 76.7493 437.795C76.0163 437.446 75.4155 437.007 74.9467 436.479C74.478 435.942 74.12 435.401 73.8729 434.855H73.7067V445.364H68.2606ZM73.5916 428.182C73.5916 429.349 73.7535 430.368 74.0774 431.237C74.4013 432.107 74.87 432.784 75.4837 433.27C76.0973 433.747 76.843 433.986 77.7209 433.986C78.6072 433.986 79.3572 433.743 79.9709 433.257C80.5845 432.763 81.049 432.081 81.3643 431.212C81.6882 430.334 81.8501 429.324 81.8501 428.182C81.8501 427.048 81.6925 426.051 81.3771 425.19C81.0618 424.33 80.5973 423.656 79.9837 423.17C79.37 422.685 78.6158 422.442 77.7209 422.442C76.8345 422.442 76.0845 422.676 75.4709 423.145C74.8658 423.614 74.4013 424.278 74.0774 425.139C73.7535 426 73.5916 427.014 73.5916 428.182ZM98.474 438.384C96.4883 438.384 94.7709 437.962 93.3221 437.118C91.8817 436.266 90.7695 435.081 89.9854 433.564C89.2013 432.038 88.8093 430.27 88.8093 428.259C88.8093 426.23 89.2013 424.457 89.9854 422.94C90.7695 421.415 91.8817 420.23 93.3221 419.386C94.7709 418.534 96.4883 418.108 98.474 418.108C100.46 418.108 102.173 418.534 103.613 419.386C105.062 420.23 106.179 421.415 106.963 422.94C107.747 424.457 108.139 426.23 108.139 428.259C108.139 430.27 107.747 432.038 106.963 433.564C106.179 435.081 105.062 436.266 103.613 437.118C102.173 437.962 100.46 438.384 98.474 438.384ZM98.4996 434.165C99.403 434.165 100.157 433.909 100.762 433.398C101.368 432.878 101.823 432.17 102.13 431.276C102.446 430.381 102.603 429.362 102.603 428.22C102.603 427.078 102.446 426.06 102.13 425.165C101.823 424.27 101.368 423.562 100.762 423.043C100.157 422.523 99.403 422.263 98.4996 422.263C97.5877 422.263 96.8206 422.523 96.1985 423.043C95.5848 423.562 95.1204 424.27 94.805 425.165C94.4982 426.06 94.3448 427.078 94.3448 428.22C94.3448 429.362 94.4982 430.381 94.805 431.276C95.1204 432.17 95.5848 432.878 96.1985 433.398C96.8206 433.909 97.5877 434.165 98.4996 434.165ZM127.409 418.364V434.241H130.541V444.315H125.249V438H110.24V418.364H115.443V433.717H122.27V418.364H127.409ZM141.198 438.384C139.178 438.384 137.44 437.974 135.982 437.156C134.533 436.33 133.417 435.162 132.633 433.653C131.849 432.136 131.457 430.342 131.457 428.271C131.457 426.251 131.849 424.479 132.633 422.953C133.417 421.428 134.521 420.239 135.944 419.386C137.376 418.534 139.055 418.108 140.981 418.108C142.276 418.108 143.482 418.317 144.599 418.734C145.724 419.143 146.704 419.761 147.539 420.588C148.383 421.415 149.039 422.455 149.508 423.707C149.977 424.952 150.211 426.409 150.211 428.08V429.575H133.63V426.2H145.084C145.084 425.416 144.914 424.722 144.573 424.116C144.232 423.511 143.759 423.038 143.154 422.697C142.557 422.348 141.863 422.173 141.07 422.173C140.244 422.173 139.511 422.365 138.871 422.749C138.241 423.124 137.746 423.631 137.388 424.27C137.03 424.901 136.847 425.604 136.839 426.379V429.588C136.839 430.56 137.018 431.399 137.376 432.107C137.742 432.814 138.258 433.359 138.923 433.743C139.587 434.126 140.376 434.318 141.288 434.318C141.893 434.318 142.447 434.233 142.95 434.062C143.452 433.892 143.883 433.636 144.241 433.295C144.599 432.955 144.871 432.537 145.059 432.043L150.096 432.375C149.84 433.585 149.316 434.642 148.523 435.545C147.739 436.44 146.725 437.139 145.481 437.642C144.245 438.136 142.817 438.384 141.198 438.384ZM165.991 426.009V430.291H155.738V426.009H165.991ZM157.528 418.364V438H152.325V418.364H157.528ZM169.404 418.364V438H164.24V418.364H169.404ZM170.218 422.646V418.364H188.013V422.646H181.685V438H176.495V422.646H170.218ZM205.639 438.384C203.653 438.384 201.936 437.962 200.487 437.118C199.046 436.266 197.934 435.081 197.15 433.564C196.366 432.038 195.974 430.27 195.974 428.259C195.974 426.23 196.366 424.457 197.15 422.94C197.934 421.415 199.046 420.23 200.487 419.386C201.936 418.534 203.653 418.108 205.639 418.108C207.625 418.108 209.338 418.534 210.778 419.386C212.227 420.23 213.343 421.415 214.127 422.94C214.911 424.457 215.304 426.23 215.304 428.259C215.304 430.27 214.911 432.038 214.127 433.564C213.343 435.081 212.227 436.266 210.778 437.118C209.338 437.962 207.625 438.384 205.639 438.384ZM205.664 434.165C206.568 434.165 207.322 433.909 207.927 433.398C208.532 432.878 208.988 432.17 209.295 431.276C209.61 430.381 209.768 429.362 209.768 428.22C209.768 427.078 209.61 426.06 209.295 425.165C208.988 424.27 208.532 423.562 207.927 423.043C207.322 422.523 206.568 422.263 205.664 422.263C204.752 422.263 203.985 422.523 203.363 423.043C202.75 423.562 202.285 424.27 201.97 425.165C201.663 426.06 201.509 427.078 201.509 428.22C201.509 429.362 201.663 430.381 201.97 431.276C202.285 432.17 202.75 432.878 203.363 433.398C203.985 433.909 204.752 434.165 205.664 434.165ZM215.503 422.646V418.364H233.299V422.646H226.97V438H221.78V422.646H215.503ZM235.16 438V418.364H240.606V425.983H242.14L247.484 418.364H253.876L246.934 428.105L253.953 438H247.484L242.639 431.033H240.606V438H235.16ZM260.413 438.371C259.16 438.371 258.044 438.153 257.064 437.719C256.084 437.276 255.308 436.624 254.737 435.763C254.175 434.893 253.893 433.811 253.893 432.516C253.893 431.425 254.094 430.509 254.494 429.767C254.895 429.026 255.44 428.429 256.131 427.977C256.821 427.526 257.605 427.185 258.483 426.955C259.369 426.724 260.298 426.562 261.27 426.469C262.412 426.349 263.332 426.239 264.031 426.136C264.73 426.026 265.237 425.864 265.552 425.651C265.868 425.437 266.025 425.122 266.025 424.705V424.628C266.025 423.818 265.77 423.192 265.258 422.749C264.756 422.305 264.04 422.084 263.111 422.084C262.131 422.084 261.351 422.301 260.771 422.736C260.192 423.162 259.808 423.699 259.621 424.347L254.584 423.938C254.839 422.744 255.342 421.713 256.092 420.844C256.842 419.966 257.81 419.293 258.994 418.824C260.187 418.347 261.568 418.108 263.136 418.108C264.227 418.108 265.271 418.236 266.268 418.491C267.274 418.747 268.165 419.143 268.94 419.68C269.724 420.217 270.342 420.908 270.794 421.751C271.246 422.587 271.471 423.588 271.471 424.756V438H266.307V435.277H266.153C265.838 435.891 265.416 436.432 264.888 436.901C264.359 437.361 263.724 437.723 262.983 437.987C262.241 438.243 261.385 438.371 260.413 438.371ZM261.973 434.612C262.774 434.612 263.481 434.455 264.095 434.139C264.709 433.815 265.19 433.381 265.54 432.835C265.889 432.29 266.064 431.672 266.064 430.982V428.898C265.893 429.009 265.659 429.111 265.361 429.205C265.071 429.29 264.743 429.371 264.376 429.447C264.01 429.516 263.643 429.58 263.277 429.639C262.91 429.69 262.578 429.737 262.28 429.78C261.64 429.874 261.082 430.023 260.605 430.227C260.128 430.432 259.757 430.709 259.493 431.058C259.229 431.399 259.096 431.825 259.096 432.337C259.096 433.078 259.365 433.645 259.902 434.037C260.447 434.42 261.138 434.612 261.973 434.612ZM273.247 432.439H278.526C278.552 433.087 278.842 433.598 279.396 433.973C279.95 434.348 280.666 434.536 281.544 434.536C282.43 434.536 283.176 434.331 283.781 433.922C284.386 433.504 284.688 432.908 284.688 432.132C284.688 431.655 284.569 431.241 284.33 430.892C284.092 430.534 283.759 430.253 283.333 430.048C282.907 429.844 282.413 429.741 281.85 429.741H279.025V426.175H281.85C282.694 426.175 283.342 425.979 283.794 425.587C284.254 425.195 284.484 424.705 284.484 424.116C284.484 423.452 284.245 422.919 283.768 422.518C283.299 422.109 282.664 421.905 281.863 421.905C281.053 421.905 280.38 422.088 279.843 422.455C279.315 422.812 279.042 423.281 279.025 423.861H273.771C273.788 422.685 274.142 421.666 274.832 420.805C275.531 419.945 276.468 419.28 277.644 418.811C278.829 418.342 280.154 418.108 281.62 418.108C283.222 418.108 284.603 418.334 285.762 418.786C286.93 419.229 287.825 419.864 288.447 420.69C289.078 421.517 289.393 422.501 289.393 423.643C289.393 424.683 289.052 425.553 288.37 426.251C287.688 426.95 286.734 427.449 285.507 427.747V427.952C286.316 428.003 287.049 428.22 287.705 428.604C288.362 428.987 288.886 429.516 289.278 430.189C289.67 430.854 289.866 431.642 289.866 432.554C289.866 433.773 289.508 434.817 288.792 435.686C288.085 436.555 287.105 437.224 285.852 437.693C284.607 438.153 283.18 438.384 281.569 438.384C280.001 438.384 278.595 438.158 277.35 437.706C276.115 437.246 275.13 436.572 274.397 435.686C273.673 434.8 273.289 433.717 273.247 432.439ZM297.365 438.371C296.112 438.371 294.996 438.153 294.016 437.719C293.036 437.276 292.26 436.624 291.689 435.763C291.127 434.893 290.845 433.811 290.845 432.516C290.845 431.425 291.046 430.509 291.446 429.767C291.847 429.026 292.392 428.429 293.083 427.977C293.773 427.526 294.557 427.185 295.435 426.955C296.321 426.724 297.25 426.562 298.222 426.469C299.364 426.349 300.284 426.239 300.983 426.136C301.682 426.026 302.189 425.864 302.504 425.651C302.82 425.437 302.977 425.122 302.977 424.705V424.628C302.977 423.818 302.722 423.192 302.21 422.749C301.708 422.305 300.992 422.084 300.063 422.084C299.083 422.084 298.303 422.301 297.723 422.736C297.144 423.162 296.76 423.699 296.573 424.347L291.536 423.938C291.791 422.744 292.294 421.713 293.044 420.844C293.794 419.966 294.762 419.293 295.946 418.824C297.139 418.347 298.52 418.108 300.088 418.108C301.179 418.108 302.223 418.236 303.22 418.491C304.226 418.747 305.117 419.143 305.892 419.68C306.676 420.217 307.294 420.908 307.746 421.751C308.198 422.587 308.423 423.588 308.423 424.756V438H303.259V435.277H303.105C302.79 435.891 302.368 436.432 301.84 436.901C301.311 437.361 300.676 437.723 299.935 437.987C299.193 438.243 298.337 438.371 297.365 438.371ZM298.925 434.612C299.726 434.612 300.433 434.455 301.047 434.139C301.661 433.815 302.142 433.381 302.492 432.835C302.841 432.29 303.016 431.672 303.016 430.982V428.898C302.845 429.009 302.611 429.111 302.313 429.205C302.023 429.29 301.695 429.371 301.328 429.447C300.962 429.516 300.595 429.58 300.229 429.639C299.862 429.69 299.53 429.737 299.232 429.78C298.592 429.874 298.034 430.023 297.557 430.227C297.08 430.432 296.709 430.709 296.445 431.058C296.181 431.399 296.048 431.825 296.048 432.337C296.048 433.078 296.317 433.645 296.854 434.037C297.399 434.42 298.09 434.612 298.925 434.612Z" fill="black"/>
<path opacity="0.4" d="M1034.45 666.5H39.5V556L786.5 524.5C786.5 524.5 1028.77 517.342 1034.45 517.012V517C1034.59 517 1034.59 517.004 1034.45 517.012V666.5Z" fill="url(#paint1_linear_2766_1474)"/>
<rect x="1030.19" y="512" width="10.2717" height="10.2717" rx="5.13587" fill="#CACACA"/>
<path d="M1035 517L776 524.5L39.5 557.5" stroke="#CACACA" stroke-width="4"/>
<path d="M900.074 686.557V662.199L890.989 671.318L887 667.364L902.955 651.443L918.875 667.364L914.955 671.318L905.835 662.199V686.557H900.074Z" fill="#04B34A"/>
<path d="M946.65 651.091V686H939.269V658.097H939.065L931.07 663.108V656.562L939.712 651.091H946.65ZM960.54 681.227L960.352 683.102C960.205 684.602 959.92 686.097 959.5 687.585C959.091 689.085 958.659 690.443 958.205 691.659C957.761 692.875 957.403 693.83 957.131 694.523H952.426C952.597 693.852 952.83 692.915 953.125 691.71C953.42 690.517 953.699 689.176 953.96 687.688C954.222 686.199 954.386 684.682 954.455 683.136L954.54 681.227H960.54ZM978.235 686.477C975.61 686.477 973.275 686.051 971.229 685.199C969.195 684.335 967.599 683.159 966.44 681.67C965.281 680.182 964.701 678.494 964.701 676.608C964.701 675.153 965.031 673.818 965.69 672.602C966.36 671.375 967.269 670.358 968.417 669.551C969.565 668.733 970.849 668.21 972.269 667.983V667.744C970.406 667.369 968.894 666.466 967.735 665.034C966.576 663.591 965.996 661.915 965.996 660.006C965.996 658.199 966.525 656.591 967.582 655.182C968.638 653.761 970.087 652.648 971.928 651.841C973.781 651.023 975.883 650.614 978.235 650.614C980.587 650.614 982.684 651.023 984.525 651.841C986.377 652.659 987.832 653.778 988.888 655.199C989.945 656.608 990.479 658.21 990.491 660.006C990.479 661.926 989.888 663.602 988.718 665.034C987.548 666.466 986.048 667.369 984.218 667.744V667.983C985.616 668.21 986.883 668.733 988.019 669.551C989.167 670.358 990.076 671.375 990.746 672.602C991.428 673.818 991.775 675.153 991.786 676.608C991.775 678.494 991.19 680.182 990.031 681.67C988.871 683.159 987.269 684.335 985.224 685.199C983.19 686.051 980.86 686.477 978.235 686.477ZM978.235 681.057C979.406 681.057 980.428 680.847 981.303 680.426C982.178 679.994 982.86 679.403 983.349 678.653C983.849 677.892 984.099 677.017 984.099 676.028C984.099 675.017 983.843 674.125 983.332 673.352C982.82 672.568 982.127 671.955 981.252 671.511C980.377 671.057 979.371 670.83 978.235 670.83C977.11 670.83 976.104 671.057 975.218 671.511C974.332 671.955 973.633 672.568 973.121 673.352C972.621 674.125 972.371 675.017 972.371 676.028C972.371 677.017 972.616 677.892 973.104 678.653C973.593 679.403 974.281 679.994 975.167 680.426C976.053 680.847 977.076 681.057 978.235 681.057ZM978.235 665.46C979.212 665.46 980.082 665.261 980.843 664.864C981.604 664.466 982.201 663.915 982.633 663.21C983.065 662.506 983.281 661.693 983.281 660.773C983.281 659.864 983.065 659.068 982.633 658.386C982.201 657.693 981.61 657.153 980.86 656.767C980.11 656.369 979.235 656.17 978.235 656.17C977.246 656.17 976.371 656.369 975.61 656.767C974.849 657.153 974.252 657.693 973.82 658.386C973.4 659.068 973.19 659.864 973.19 660.773C973.19 661.693 973.406 662.506 973.837 663.21C974.269 663.915 974.866 664.466 975.627 664.864C976.388 665.261 977.258 665.46 978.235 665.46ZM1015.56 679.455V677.614C1015.56 676.216 1015.86 674.932 1016.45 673.761C1017.05 672.58 1017.92 671.636 1019.06 670.932C1020.2 670.216 1021.6 669.858 1023.25 669.858C1024.92 669.858 1026.32 670.21 1027.46 670.915C1028.61 671.619 1029.47 672.562 1030.05 673.744C1030.64 674.915 1030.94 676.205 1030.94 677.614V679.455C1030.94 680.852 1030.64 682.142 1030.05 683.324C1029.46 684.494 1028.59 685.432 1027.44 686.136C1026.3 686.852 1024.9 687.21 1023.25 687.21C1021.58 687.21 1020.18 686.852 1019.04 686.136C1017.9 685.432 1017.04 684.494 1016.45 683.324C1015.86 682.142 1015.56 680.852 1015.56 679.455ZM1020.52 677.614V679.455C1020.52 680.261 1020.72 681.023 1021.1 681.739C1021.5 682.455 1022.22 682.812 1023.25 682.812C1024.28 682.812 1024.99 682.46 1025.36 681.756C1025.75 681.051 1025.94 680.284 1025.94 679.455V677.614C1025.94 676.784 1025.76 676.011 1025.4 675.295C1025.03 674.58 1024.32 674.222 1023.25 674.222C1022.23 674.222 1021.52 674.58 1021.12 675.295C1020.72 676.011 1020.52 676.784 1020.52 677.614ZM997.648 659.477V657.636C997.648 656.227 997.949 654.937 998.551 653.767C999.153 652.585 1000.02 651.642 1001.16 650.938C1002.31 650.233 1003.69 649.881 1005.32 649.881C1007 649.881 1008.41 650.233 1009.55 650.938C1010.68 651.642 1011.55 652.585 1012.14 653.767C1012.73 654.937 1013.02 656.227 1013.02 657.636V659.477C1013.02 660.886 1012.72 662.176 1012.12 663.347C1011.53 664.517 1010.66 665.455 1009.51 666.159C1008.38 666.852 1006.98 667.199 1005.32 667.199C1003.66 667.199 1002.26 666.847 1001.11 666.142C999.972 665.426 999.108 664.489 998.517 663.33C997.938 662.159 997.648 660.875 997.648 659.477ZM1002.64 657.636V659.477C1002.64 660.307 1002.84 661.074 1003.22 661.778C1003.62 662.483 1004.32 662.835 1005.32 662.835C1006.36 662.835 1007.07 662.483 1007.45 661.778C1007.84 661.074 1008.03 660.307 1008.03 659.477V657.636C1008.03 656.807 1007.85 656.034 1007.48 655.318C1007.12 654.602 1006.4 654.244 1005.32 654.244C1004.31 654.244 1003.61 654.608 1003.22 655.335C1002.84 656.062 1002.64 656.83 1002.64 657.636ZM999.898 686L1023.9 651.091H1028.36L1004.36 686H999.898Z" fill="black"/>
<path d="M46.9176 529.455V544H44.7159V531.656H44.6307L41.1506 533.929V531.827L44.7798 529.455H46.9176ZM50.3243 541.159V539.384L56.6098 529.455H58.009V532.068H57.1212L52.6255 539.185V539.298H61.2405V541.159H50.3243ZM57.2206 544V540.619L57.2348 539.81V529.455H59.3158V544H57.2206Z" fill="#CFCFCF"/>
<path d="M1003.35 482.455V497H1001.15V484.656H1001.06L997.58 486.929V484.827L1001.21 482.455H1003.35ZM1011.86 497.199C1010.97 497.199 1010.17 497.028 1009.46 496.688C1008.75 496.342 1008.19 495.868 1007.77 495.267C1007.35 494.666 1007.12 493.979 1007.09 493.207H1009.23C1009.28 493.832 1009.55 494.346 1010.06 494.749C1010.56 495.151 1011.16 495.352 1011.86 495.352C1012.42 495.352 1012.91 495.224 1013.34 494.969C1013.78 494.708 1014.12 494.351 1014.37 493.896C1014.62 493.442 1014.74 492.923 1014.74 492.341C1014.74 491.749 1014.62 491.221 1014.36 490.757C1014.1 490.293 1013.75 489.929 1013.3 489.663C1012.86 489.398 1012.35 489.263 1011.77 489.259C1011.33 489.259 1010.88 489.334 1010.44 489.486C1009.99 489.637 1009.63 489.836 1009.36 490.082L1007.35 489.784L1008.17 482.455H1016.16V484.337H1009.99L1009.53 488.406H1009.62C1009.9 488.132 1010.28 487.902 1010.75 487.717C1011.22 487.533 1011.73 487.44 1012.27 487.44C1013.15 487.44 1013.94 487.651 1014.63 488.072C1015.33 488.494 1015.87 489.069 1016.27 489.798C1016.67 490.523 1016.87 491.356 1016.87 492.298C1016.87 493.241 1016.66 494.081 1016.23 494.82C1015.8 495.558 1015.21 496.141 1014.45 496.567C1013.7 496.988 1012.84 497.199 1011.86 497.199ZM1021.5 495.011L1021.4 495.786C1021.33 496.354 1021.2 496.946 1021.03 497.561C1020.87 498.181 1020.7 498.757 1020.52 499.287C1020.34 499.817 1020.2 500.239 1020.08 500.551H1018.58C1018.64 500.258 1018.72 499.86 1018.83 499.358C1018.94 498.861 1019.05 498.304 1019.15 497.689C1019.26 497.073 1019.33 496.446 1019.39 495.807L1019.46 495.011H1021.5ZM1028.68 497.199C1027.66 497.199 1026.76 497.024 1025.98 496.673C1025.2 496.323 1024.59 495.84 1024.15 495.224C1023.71 494.609 1023.49 493.908 1023.5 493.122C1023.49 492.507 1023.62 491.941 1023.88 491.425C1024.14 490.904 1024.49 490.471 1024.93 490.125C1025.38 489.775 1025.88 489.552 1026.43 489.457V489.372C1025.7 489.197 1025.12 488.809 1024.69 488.207C1024.25 487.606 1024.03 486.915 1024.04 486.134C1024.03 485.39 1024.23 484.727 1024.63 484.145C1025.03 483.558 1025.58 483.096 1026.28 482.76C1026.98 482.424 1027.78 482.256 1028.68 482.256C1029.56 482.256 1030.35 482.426 1031.05 482.767C1031.75 483.103 1032.3 483.565 1032.7 484.152C1033.11 484.734 1033.31 485.395 1033.31 486.134C1033.31 486.915 1033.09 487.606 1032.65 488.207C1032.21 488.809 1031.63 489.197 1030.93 489.372V489.457C1031.47 489.552 1031.96 489.775 1032.4 490.125C1032.84 490.471 1033.19 490.904 1033.45 491.425C1033.72 491.941 1033.85 492.507 1033.85 493.122C1033.85 493.908 1033.63 494.609 1033.19 495.224C1032.75 495.84 1032.14 496.323 1031.35 496.673C1030.58 497.024 1029.69 497.199 1028.68 497.199ZM1028.68 495.402C1029.28 495.402 1029.8 495.303 1030.24 495.104C1030.68 494.9 1031.02 494.618 1031.26 494.259C1031.5 493.894 1031.63 493.468 1031.63 492.98C1031.63 492.473 1031.49 492.026 1031.23 491.638C1030.98 491.25 1030.63 490.944 1030.19 490.722C1029.75 490.499 1029.25 490.388 1028.68 490.388C1028.1 490.388 1027.6 490.499 1027.15 490.722C1026.71 490.944 1026.35 491.25 1026.1 491.638C1025.84 492.026 1025.72 492.473 1025.72 492.98C1025.72 493.468 1025.83 493.894 1026.07 494.259C1026.31 494.618 1026.66 494.9 1027.1 495.104C1027.55 495.303 1028.07 495.402 1028.68 495.402ZM1028.68 488.634C1029.16 488.634 1029.59 488.536 1029.96 488.342C1030.34 488.148 1030.63 487.878 1030.84 487.533C1031.06 487.187 1031.17 486.782 1031.18 486.318C1031.17 485.864 1031.06 485.466 1030.85 485.125C1030.64 484.784 1030.35 484.521 1029.98 484.337C1029.6 484.147 1029.17 484.053 1028.68 484.053C1028.18 484.053 1027.73 484.147 1027.36 484.337C1026.98 484.521 1026.69 484.784 1026.48 485.125C1026.27 485.466 1026.17 485.864 1026.18 486.318C1026.17 486.782 1026.28 487.187 1026.49 487.533C1026.7 487.878 1027 488.148 1027.37 488.342C1027.75 488.536 1028.18 488.634 1028.68 488.634Z" fill="#CFCFCF"/>
<path opacity="0.4" d="M1034.89 1028.5H39.9375V941L340.499 919C340.499 919 1029.07 909.167 1034.89 909.002V909C1034.94 909 1034.94 909.001 1034.89 909.002V1028.5Z" fill="url(#paint2_linear_2766_1474)"/>
<rect x="1030.19" y="905" width="10.2717" height="10.2717" rx="5.13587" fill="#CACACA"/>
<path d="M1032.5 910L341.5 918L40 942.5" stroke="#CACACA" stroke-width="4"/>
<path d="M880.074 1048.56V1024.2L870.989 1033.32L867 1029.36L882.955 1013.44L898.875 1029.36L894.955 1033.32L885.835 1024.2V1048.56H880.074Z" fill="#04B34A"/>
<path d="M923.835 1048.48C921.289 1048.48 919.022 1048.04 917.033 1047.16C915.056 1046.28 913.494 1045.06 912.346 1043.52C911.21 1041.96 910.624 1040.16 910.59 1038.13H918.022C918.067 1038.98 918.346 1039.73 918.857 1040.38C919.38 1041.02 920.073 1041.51 920.937 1041.86C921.8 1042.22 922.772 1042.39 923.852 1042.39C924.977 1042.39 925.971 1042.19 926.835 1041.8C927.698 1041.4 928.374 1040.85 928.863 1040.14C929.352 1039.44 929.596 1038.62 929.596 1037.7C929.596 1036.77 929.335 1035.95 928.812 1035.23C928.3 1034.51 927.562 1033.94 926.596 1033.53C925.641 1033.12 924.505 1032.91 923.187 1032.91H919.931V1027.49H923.187C924.3 1027.49 925.283 1027.3 926.136 1026.91C926.999 1026.53 927.67 1025.99 928.147 1025.31C928.624 1024.62 928.863 1023.81 928.863 1022.89C928.863 1022.02 928.653 1021.25 928.232 1020.59C927.823 1019.92 927.244 1019.4 926.494 1019.02C925.755 1018.65 924.891 1018.46 923.903 1018.46C922.903 1018.46 921.988 1018.64 921.158 1019.01C920.329 1019.36 919.664 1019.86 919.164 1020.52C918.664 1021.18 918.397 1021.95 918.363 1022.84H911.289C911.323 1020.83 911.897 1019.06 913.011 1017.52C914.124 1015.99 915.624 1014.79 917.511 1013.93C919.408 1013.05 921.55 1012.61 923.937 1012.61C926.346 1012.61 928.454 1013.05 930.261 1013.93C932.067 1014.8 933.471 1015.98 934.471 1017.47C935.482 1018.95 935.982 1020.61 935.971 1022.45C935.982 1024.4 935.374 1026.03 934.147 1027.34C932.931 1028.65 931.346 1029.48 929.391 1029.83V1030.1C931.96 1030.43 933.914 1031.32 935.255 1032.78C936.607 1034.22 937.278 1036.03 937.266 1038.2C937.278 1040.19 936.704 1041.95 935.545 1043.5C934.397 1045.05 932.812 1046.26 930.789 1047.15C928.766 1048.03 926.448 1048.48 923.835 1048.48ZM949.055 1043.23L948.868 1045.1C948.72 1046.6 948.436 1048.1 948.016 1049.59C947.607 1051.09 947.175 1052.44 946.72 1053.66C946.277 1054.88 945.919 1055.83 945.646 1056.52H940.942C941.112 1055.85 941.345 1054.91 941.641 1053.71C941.936 1052.52 942.214 1051.18 942.476 1049.69C942.737 1048.2 942.902 1046.68 942.97 1045.14L943.055 1043.23H949.055ZM967.126 1048.48C965.33 1048.47 963.597 1048.16 961.927 1047.57C960.268 1046.98 958.779 1046.02 957.461 1044.69C956.143 1043.36 955.097 1041.6 954.325 1039.41C953.563 1037.22 953.183 1034.52 953.183 1031.33C953.194 1028.4 953.529 1025.78 954.188 1023.47C954.859 1021.15 955.813 1019.19 957.052 1017.57C958.302 1015.96 959.796 1014.73 961.535 1013.89C963.273 1013.04 965.222 1012.61 967.381 1012.61C969.711 1012.61 971.768 1013.07 973.552 1013.98C975.336 1014.87 976.768 1016.1 977.847 1017.64C978.938 1019.19 979.597 1020.92 979.825 1022.84H972.546C972.262 1021.62 971.665 1020.67 970.756 1019.98C969.847 1019.28 968.722 1018.94 967.381 1018.94C965.109 1018.94 963.381 1019.93 962.2 1021.9C961.029 1023.88 960.433 1026.57 960.41 1029.97H960.648C961.171 1028.93 961.876 1028.05 962.762 1027.32C963.66 1026.59 964.677 1026.02 965.813 1025.64C966.961 1025.24 968.171 1025.04 969.444 1025.04C971.512 1025.04 973.353 1025.53 974.967 1026.51C976.58 1027.47 977.853 1028.8 978.785 1030.49C979.717 1032.19 980.183 1034.12 980.183 1036.31C980.183 1038.67 979.631 1040.77 978.529 1042.61C977.438 1044.45 975.91 1045.9 973.944 1046.94C971.989 1047.98 969.717 1048.49 967.126 1048.48ZM967.092 1042.68C968.228 1042.68 969.245 1042.41 970.143 1041.86C971.04 1041.32 971.745 1040.58 972.256 1039.65C972.768 1038.72 973.023 1037.67 973.023 1036.51C973.023 1035.35 972.768 1034.31 972.256 1033.39C971.756 1032.47 971.063 1031.74 970.177 1031.19C969.29 1030.65 968.279 1030.38 967.143 1030.38C966.29 1030.38 965.501 1030.53 964.773 1030.85C964.058 1031.17 963.427 1031.61 962.881 1032.18C962.347 1032.75 961.927 1033.41 961.62 1034.16C961.313 1034.9 961.16 1035.69 961.16 1036.53C961.16 1037.65 961.415 1038.68 961.927 1039.61C962.45 1040.55 963.154 1041.29 964.04 1041.85C964.938 1042.4 965.955 1042.68 967.092 1042.68ZM1018.33 1021.82V1048H1011.44V1021.82H1018.33ZM1014.97 1033.31V1039.03C1014.42 1039.28 1013.72 1039.52 1012.89 1039.75C1012.06 1039.97 1011.19 1040.14 1010.28 1040.28C1009.38 1040.41 1008.52 1040.48 1007.73 1040.48C1003.97 1040.48 1001.01 1039.71 998.847 1038.16C996.688 1036.61 995.609 1034.12 995.609 1030.72V1021.78H1002.46V1030.72C1002.46 1031.73 1002.63 1032.53 1002.97 1033.12C1003.32 1033.71 1003.88 1034.14 1004.64 1034.4C1005.42 1034.65 1006.44 1034.77 1007.73 1034.77C1008.92 1034.77 1010.09 1034.65 1011.24 1034.4C1012.39 1034.15 1013.63 1033.78 1014.97 1033.31ZM1027.72 1048.44C1026.6 1048.44 1025.63 1048.05 1024.82 1047.25C1024.03 1046.44 1023.63 1045.48 1023.63 1044.35C1023.63 1043.24 1024.03 1042.28 1024.82 1041.49C1025.63 1040.69 1026.6 1040.3 1027.72 1040.3C1028.81 1040.3 1029.77 1040.69 1030.58 1041.49C1031.4 1042.28 1031.81 1043.24 1031.81 1044.35C1031.81 1045.1 1031.62 1045.79 1031.23 1046.41C1030.86 1047.03 1030.36 1047.52 1029.75 1047.9C1029.13 1048.26 1028.46 1048.44 1027.72 1048.44Z" fill="black"/>
<path d="M41.3991 923V921.409L46.321 916.31C46.8466 915.756 47.2798 915.27 47.6207 914.854C47.9664 914.432 48.2244 914.032 48.3949 913.653C48.5653 913.275 48.6506 912.872 48.6506 912.446C48.6506 911.963 48.5369 911.546 48.3097 911.196C48.0824 910.841 47.7723 910.569 47.3793 910.379C46.9863 910.185 46.5436 910.088 46.0511 910.088C45.5303 910.088 45.0758 910.195 44.6875 910.408C44.2992 910.621 44.0009 910.921 43.7926 911.31C43.5843 911.698 43.4801 912.152 43.4801 912.673H41.3849C41.3849 911.788 41.5885 911.014 41.9957 910.351C42.4029 909.688 42.9616 909.174 43.6719 908.81C44.3821 908.44 45.1894 908.256 46.0938 908.256C47.0076 908.256 47.8125 908.438 48.5085 908.803C49.2093 909.162 49.7562 909.655 50.1491 910.28C50.5421 910.9 50.7386 911.601 50.7386 912.382C50.7386 912.922 50.6368 913.45 50.4332 913.966C50.2344 914.482 49.8864 915.057 49.3892 915.692C48.892 916.321 48.2008 917.086 47.3153 917.986L44.4247 921.011V921.118H50.973V923H41.3991ZM58.5061 923.241C57.384 923.237 56.4252 922.941 55.6297 922.354C54.8343 921.767 54.2258 920.912 53.8044 919.79C53.383 918.668 53.1723 917.316 53.1723 915.734C53.1723 914.158 53.383 912.811 53.8044 911.693C54.2306 910.576 54.8414 909.723 55.6368 909.136C56.437 908.549 57.3934 908.256 58.5061 908.256C59.6188 908.256 60.5729 908.552 61.3684 909.143C62.1638 909.731 62.7722 910.583 63.1936 911.7C63.6198 912.813 63.8328 914.158 63.8328 915.734C63.8328 917.321 63.6221 918.675 63.2007 919.797C62.7793 920.914 62.1709 921.769 61.3755 922.361C60.58 922.948 59.6236 923.241 58.5061 923.241ZM58.5061 921.345C59.491 921.345 60.2604 920.865 60.8144 919.903C61.3731 918.942 61.6524 917.553 61.6524 915.734C61.6524 914.527 61.5246 913.507 61.2689 912.673C61.018 911.835 60.6558 911.201 60.1823 910.77C59.7135 910.334 59.1548 910.116 58.5061 910.116C57.526 910.116 56.7566 910.599 56.1979 911.565C55.6392 912.531 55.3575 913.921 55.3527 915.734C55.3527 916.946 55.4782 917.972 55.7292 918.81C55.9848 919.643 56.347 920.275 56.8158 920.706C57.2845 921.132 57.848 921.345 58.5061 921.345ZM68.3937 921.011L68.2871 921.786C68.2161 922.354 68.0954 922.946 67.9249 923.561C67.7592 924.181 67.5864 924.757 67.4065 925.287C67.2313 925.817 67.0869 926.239 66.9732 926.551H65.4675C65.5291 926.258 65.6143 925.86 65.7232 925.358C65.8321 924.861 65.9387 924.304 66.0428 923.689C66.147 923.073 66.2251 922.446 66.2772 921.807L66.3482 921.011H68.3937ZM71.2606 923L77.61 910.443V910.337H70.2663V908.455H79.8828V910.401L73.5546 923H71.2606Z" fill="#CFCFCF"/>
<path d="M994.45 894V892.409L999.371 887.31C999.897 886.756 1000.33 886.27 1000.67 885.854C1001.02 885.432 1001.27 885.032 1001.45 884.653C1001.62 884.275 1001.7 883.872 1001.7 883.446C1001.7 882.963 1001.59 882.546 1001.36 882.196C1001.13 881.841 1000.82 881.569 1000.43 881.379C1000.04 881.185 999.594 881.088 999.102 881.088C998.581 881.088 998.126 881.195 997.738 881.408C997.35 881.621 997.051 881.921 996.843 882.31C996.635 882.698 996.531 883.152 996.531 883.673H994.435C994.435 882.788 994.639 882.014 995.046 881.351C995.453 880.688 996.012 880.174 996.722 879.81C997.433 879.44 998.24 879.256 999.144 879.256C1000.06 879.256 1000.86 879.438 1001.56 879.803C1002.26 880.162 1002.81 880.655 1003.2 881.28C1003.59 881.9 1003.79 882.601 1003.79 883.382C1003.79 883.922 1003.69 884.45 1003.48 884.966C1003.28 885.482 1002.94 886.057 1002.44 886.692C1001.94 887.321 1001.25 888.086 1000.37 888.986L997.475 892.011V892.118H1004.02V894H994.45ZM1005.87 891.159V889.384L1012.16 879.455H1013.56V882.068H1012.67L1008.18 889.185V889.298H1016.79V891.159H1005.87ZM1012.77 894V890.619L1012.79 889.81V879.455H1014.87V894H1012.77ZM1021.29 892.011L1021.18 892.786C1021.11 893.354 1020.99 893.946 1020.82 894.561C1020.65 895.181 1020.48 895.757 1020.3 896.287C1020.13 896.817 1019.98 897.239 1019.87 897.551H1018.36C1018.42 897.258 1018.51 896.86 1018.62 896.358C1018.73 895.861 1018.83 895.304 1018.94 894.689C1019.04 894.073 1019.12 893.446 1019.17 892.807L1019.24 892.011H1021.29ZM1028.57 894.199C1027.6 894.199 1026.73 894.031 1025.96 893.695C1025.2 893.358 1024.59 892.892 1024.15 892.295C1023.71 891.694 1023.47 890.998 1023.44 890.207H1025.67C1025.7 890.638 1025.84 891.012 1026.1 891.33C1026.37 891.642 1026.71 891.884 1027.14 892.054C1027.56 892.224 1028.04 892.31 1028.56 892.31C1029.13 892.31 1029.64 892.21 1030.08 892.011C1030.52 891.812 1030.87 891.536 1031.12 891.18C1031.37 890.821 1031.5 890.406 1031.5 889.938C1031.5 889.45 1031.37 889.021 1031.12 888.652C1030.88 888.278 1030.51 887.984 1030.04 887.771C1029.56 887.558 1028.99 887.452 1028.32 887.452H1027.09V885.662H1028.32C1028.86 885.662 1029.33 885.565 1029.74 885.371C1030.15 885.177 1030.47 884.907 1030.7 884.561C1030.94 884.211 1031.05 883.801 1031.05 883.332C1031.05 882.883 1030.95 882.492 1030.75 882.161C1030.55 881.824 1030.26 881.562 1029.89 881.372C1029.53 881.183 1029.1 881.088 1028.6 881.088C1028.13 881.088 1027.68 881.176 1027.27 881.351C1026.87 881.521 1026.53 881.768 1026.28 882.089C1026.02 882.407 1025.89 882.788 1025.87 883.233H1023.74C1023.77 882.447 1024 881.756 1024.44 881.159C1024.88 880.562 1025.47 880.096 1026.2 879.76C1026.93 879.424 1027.74 879.256 1028.63 879.256C1029.56 879.256 1030.37 879.438 1031.04 879.803C1031.73 880.162 1032.25 880.643 1032.62 881.244C1032.99 881.846 1033.18 882.504 1033.17 883.219C1033.18 884.033 1032.95 884.724 1032.49 885.293C1032.04 885.861 1031.43 886.242 1030.67 886.436V886.55C1031.64 886.696 1032.39 887.08 1032.92 887.7C1033.45 888.321 1033.72 889.09 1033.71 890.009C1033.72 890.809 1033.5 891.526 1033.05 892.161C1032.6 892.795 1031.99 893.295 1031.22 893.659C1030.45 894.019 1029.57 894.199 1028.57 894.199Z" fill="#CFCFCF"/>
<defs>
<linearGradient id="paint0_linear_2766_1474" x1="537.476" y1="154" x2="537.476" y2="303.5" gradientUnits="userSpaceOnUse">
<stop stop-color="#04B34A"/>
<stop offset="0.0666667" stop-color="#04B34A" stop-opacity="0.991353"/>
<stop offset="0.133333" stop-color="#04B34A" stop-opacity="0.96449"/>
<stop offset="0.2" stop-color="#04B34A" stop-opacity="0.91834"/>
<stop offset="0.266667" stop-color="#04B34A" stop-opacity="0.852589"/>
<stop offset="0.333333" stop-color="#04B34A" stop-opacity="0.768225"/>
<stop offset="0.4" stop-color="#04B34A" stop-opacity="0.668116"/>
<stop offset="0.466667" stop-color="#04B34A" stop-opacity="0.557309"/>
<stop offset="0.533333" stop-color="#04B34A" stop-opacity="0.442691"/>
<stop offset="0.6" stop-color="#04B34A" stop-opacity="0.331884"/>
<stop offset="0.666667" stop-color="#04B34A" stop-opacity="0.231775"/>
<stop offset="0.733333" stop-color="#04B34A" stop-opacity="0.147411"/>
<stop offset="0.8" stop-color="#04B34A" stop-opacity="0.0816599"/>
<stop offset="0.866667" stop-color="#04B34A" stop-opacity="0.03551"/>
<stop offset="0.933333" stop-color="#04B34A" stop-opacity="0.01"/>
<stop offset="1" stop-color="#04B34A" stop-opacity="0"/>
</linearGradient>
<linearGradient id="paint1_linear_2766_1474" x1="536.976" y1="574.5" x2="536.976" y2="666.5" gradientUnits="userSpaceOnUse">
<stop stop-color="#D9D9D9"/>
<stop offset="1" stop-color="#D9D9D9" stop-opacity="0"/>
</linearGradient>
<linearGradient id="paint2_linear_2766_1474" x1="537.413" y1="936.5" x2="537.413" y2="1028.5" gradientUnits="userSpaceOnUse">
<stop stop-color="#D9D9D9"/>
<stop offset="1" stop-color="#D9D9D9" stop-opacity="0"/>
</linearGradient>
</defs>
</svg>
