<svg fill="none" height="380" viewBox="0 0 860 380" width="860" xmlns="http://www.w3.org/2000/svg" xmlns:xlink="http://www.w3.org/1999/xlink"><clipPath id="a"><path d="m0 40c0-22.0914 17.9086-40 40-40h780c22.091 0 40 17.9086 40 40v300c0 22.091-17.909 40-40 40h-780c-22.0914 0-40-17.909-40-40z"/></clipPath><g clip-path="url(#a)"><path d="m0 40c0-22.0914 17.9086-40 40-40h780c22.091 0 40 17.9086 40 40v300c0 22.091-17.909 40-40 40h-780c-22.0914 0-40-17.909-40-40z" fill="#fff"/><path d="m0 330h3380" opacity=".1" stroke="#000" stroke-opacity=".5" stroke-width="5"/><rect fill="#3dcf6f" height="37" rx="12" width="94" x="90" y="260"/><path d="m108 279 3.329 3 6.671-6" stroke="#fff" stroke-linecap="round" stroke-linejoin="round" stroke-width="2"/><path d="m126.97 283v-8.727h1.581v7.402h3.844v1.325zm9.267.128c-.657 0-1.223-.137-1.701-.409-.474-.276-.839-.665-1.095-1.168-.256-.506-.383-1.101-.383-1.785 0-.674.127-1.265.383-1.773.259-.511.619-.909 1.082-1.193.464-.287 1.008-.431 1.633-.431.403 0 .784.066 1.142.196.36.128.679.327.954.597.279.27.497.614.656 1.031.159.415.239.909.239 1.483v.473h-5.365v-1.04h3.886c-.003-.295-.066-.558-.191-.788-.125-.233-.3-.416-.525-.55-.221-.133-.48-.2-.775-.2-.315 0-.592.077-.831.23-.239.151-.425.35-.558.597-.131.244-.198.513-.201.805v.908c0 .38.07.707.209.98.139.27.334.477.584.622.25.142.543.213.878.213.224 0 .427-.031.609-.094.182-.065.34-.16.473-.285.134-.125.235-.28.303-.465l1.44.162c-.091.381-.264.713-.52.997-.253.282-.576.5-.971.657-.395.153-.847.23-1.355.23zm9.514-6.673-2.331 6.545h-1.704l-2.331-6.545h1.645l1.504 4.862h.068l1.509-4.862zm3.383 6.673c-.657 0-1.223-.137-1.701-.409-.474-.276-.839-.665-1.095-1.168-.255-.506-.383-1.101-.383-1.785 0-.674.128-1.265.383-1.773.259-.511.62-.909 1.083-1.193.463-.287 1.007-.431 1.632-.431.403 0 .784.066 1.142.196.361.128.679.327.954.597.279.27.497.614.657 1.031.159.415.238.909.238 1.483v.473h-5.365v-1.04h3.887c-.003-.295-.067-.558-.192-.788-.125-.233-.3-.416-.524-.55-.222-.133-.481-.2-.776-.2-.315 0-.592.077-.831.23-.239.151-.425.35-.558.597-.131.244-.198.513-.2.805v.908c0 .38.069.707.208.98.14.27.334.477.584.622.25.142.543.213.878.213.224 0 .428-.031.609-.094.182-.065.34-.16.473-.285.134-.125.235-.28.303-.465l1.44.162c-.091.381-.264.713-.52.997-.252.282-.576.5-.971.657-.395.153-.847.23-1.355.23zm3.855-8.855h1.543v6.852c0 .244.037.419.111.524s.204.155.392.149c.102-.003.179-.008.23-.017.054-.011.102-.022.145-.034l.255 1.168c-.091.028-.204.055-.341.081-.133.025-.298.041-.494.047-.625.017-1.088-.114-1.389-.392-.301-.279-.452-.704-.452-1.275zm5.527 7.108v-1.257l3.337-5.851h1.53l-3.26 5.74v.068h5.182v1.3zm4.164 1.619v-1.99l.034-.575v-2.89h1.453v5.455z" fill="#fff"/><path d="m146 296h-18s4.565 2.103 6.522 4.5c1.269 1.554 2.478 4.5 2.478 4.5s1.209-2.946 2.478-4.5c1.957-2.397 6.522-4.5 6.522-4.5z" fill="#3dcf6f"/><rect fill="#3dcf6f" height="18" rx="9" width="18" x="128" y="321"/><rect fill="#fff" height="12" rx="6" width="12" x="131" y="324"/><rect fill="#ff4d00" height="247" rx="32" width="196" x="332" y="35"/><g fill="#fff"><path d="m430 109.708v2.127c0 4.519-1.812 6.332-6.356 6.332h-11.479c-3.504 0-6.332-2.828-6.332-6.332v-11.479c0-4.5435 1.813-6.356 6.332-6.356h2.127v8.458c0 4.012 3.238 7.25 7.25 7.25z"/><path d="m442.083 97.625v2.1025c0 3.5045-2.851 6.3555-6.356 6.3555h-11.479c-4.519 0-6.331-1.812-6.331-6.3555v-11.4792c0-3.5042 2.827-6.3317 6.331-6.3317h2.127v8.4584c0 4.0116 3.238 7.25 7.25 7.25z"/><path d="m454.167 76.165v11.4792c0 4.5433-1.813 6.3558-6.356 6.3558h-11.479c-4.52 0-6.332-1.8125-6.332-6.3558v-11.4792c0-4.5191 1.812-6.3316 6.332-6.3316h11.479c4.543 0 6.356 1.8125 6.356 6.3316z"/></g><rect height="24" rx="12" stroke="#fff" stroke-opacity=".35" width="59" x="400.5" y="155.5"/><path d="m411.169 172v-8.727h1.581v7.402h3.844v1.325zm9.267.128c-.657 0-1.223-.137-1.701-.409-.474-.276-.839-.665-1.095-1.168-.255-.506-.383-1.101-.383-1.785 0-.674.128-1.265.383-1.773.259-.511.62-.909 1.083-1.193.463-.287 1.007-.431 1.632-.431.403 0 .784.066 1.142.196.361.128.679.327.954.597.279.27.498.614.657 1.031.159.415.238.909.238 1.483v.473h-5.365v-1.04h3.887c-.003-.295-.067-.558-.192-.788-.125-.233-.3-.416-.524-.55-.222-.133-.48-.2-.776-.2-.315 0-.592.077-.831.23-.239.151-.425.35-.558.597-.131.244-.198.513-.2.805v.908c0 .38.069.707.208.98.14.27.334.477.584.622.25.142.543.213.878.213.224 0 .428-.031.609-.094.182-.065.34-.16.473-.285.134-.125.235-.28.303-.465l1.44.162c-.091.381-.264.713-.52.997-.252.282-.576.5-.971.657-.395.153-.847.23-1.355.23zm9.514-6.673-2.331 6.545h-1.704l-2.331-6.545h1.645l1.504 4.862h.068l1.509-4.862zm3.383 6.673c-.656 0-1.223-.137-1.7-.409-.475-.276-.84-.665-1.096-1.168-.255-.506-.383-1.101-.383-1.785 0-.674.128-1.265.383-1.773.259-.511.62-.909 1.083-1.193.463-.287 1.007-.431 1.632-.431.403 0 .784.066 1.142.196.361.128.679.327.955.597.278.27.497.614.656 1.031.159.415.238.909.238 1.483v.473h-5.365v-1.04h3.887c-.003-.295-.067-.558-.192-.788-.125-.233-.3-.416-.524-.55-.222-.133-.48-.2-.776-.2-.315 0-.592.077-.831.23-.238.151-.424.35-.558.597-.131.244-.197.513-.2.805v.908c0 .38.069.707.209.98.139.27.333.477.583.622.25.142.543.213.878.213.225 0 .428-.031.61-.094.181-.065.339-.16.473-.285.133-.125.234-.28.302-.465l1.441.162c-.091.381-.265.713-.52.997-.253.282-.577.5-.972.657-.395.153-.847.23-1.355.23zm3.855-8.855h1.543v6.852c0 .244.037.419.111.524s.204.155.392.149c.102-.003.179-.008.23-.017.054-.011.102-.022.145-.034l.256 1.168c-.091.028-.205.055-.341.081-.134.025-.299.041-.495.047-.625.017-1.088-.114-1.389-.392-.301-.279-.452-.704-.452-1.275zm8.719 8.846c-.568 0-1.076-.106-1.525-.319-.449-.216-.806-.512-1.07-.887-.261-.375-.4-.804-.417-1.287h1.534c.028.358.183.651.464.878.281.225.62.337 1.014.337.31 0 .586-.071.827-.213.242-.142.432-.34.571-.592.139-.253.208-.542.205-.866.003-.329-.067-.622-.209-.877-.142-.256-.337-.456-.584-.601-.247-.148-.531-.222-.852-.222-.262-.003-.519.046-.772.145-.252.099-.453.23-.6.392l-1.428-.234.456-4.5h5.063v1.321h-3.755l-.251 2.314h.051c.162-.191.391-.348.686-.473.296-.128.619-.192.972-.192.528 0 1 .125 1.414.375.415.247.742.588.981 1.023.238.434.357.931.357 1.491 0 .577-.133 1.091-.4 1.543-.264.449-.632.802-1.104 1.061-.469.255-1.011.383-1.628.383z" fill="#fff" opacity=".7"/><path d="m388.879 201.22h2.412v5.742l6.588-5.742h3.24l-7.146 6.21 7.452 6.57h-3.366l-6.768-5.85v5.85h-2.412zm15.441 16.596h-2.268v-12.924h2.286v1.44c.036-.084.126-.216.27-.396.156-.18.36-.36.612-.54.264-.192.582-.354.954-.486.372-.144.804-.216 1.296-.216.588 0 1.146.108 1.674.324s.984.528 1.368.936c.396.408.708.906.936 1.494s.342 1.254.342 1.998-.114 1.41-.342 1.998-.54 1.086-.936 1.494c-.384.408-.84.72-1.368.936s-1.086.324-1.674.324c-.492 0-.924-.066-1.296-.198s-.69-.282-.954-.45c-.264-.18-.468-.354-.612-.522-.144-.18-.24-.318-.288-.414zm-.018-8.37c0 .384.06.744.18 1.08s.294.63.522.882c.228.24.498.432.81.576.312.132.666.198 1.062.198s.75-.066 1.062-.198c.324-.144.6-.336.828-.576.228-.252.402-.546.522-.882s.18-.696.18-1.08c0-.396-.06-.756-.18-1.08-.12-.336-.294-.624-.522-.864-.228-.252-.504-.444-.828-.576-.312-.144-.666-.216-1.062-.216s-.75.072-1.062.216c-.312.132-.582.324-.81.576-.228.24-.402.528-.522.864-.12.324-.18.684-.18 1.08zm13.137-4.788c.696 0 1.338.12 1.926.36.588.228 1.092.558 1.512.99.42.42.744.936.972 1.548.24.6.36 1.272.36 2.016v.252h-7.236c.024.36.102.69.234.99.144.3.33.564.558.792s.498.408.81.54c.312.12.66.18 1.044.18.36 0 .672-.036.936-.108.264-.084.48-.18.648-.288.18-.108.318-.216.414-.324.108-.12.18-.21.216-.27h2.268c-.036.24-.144.528-.324.864-.18.324-.45.636-.81.936s-.816.558-1.368.774-1.212.324-1.98.324c-.744 0-1.422-.12-2.034-.36-.6-.24-1.116-.576-1.548-1.008s-.768-.936-1.008-1.512c-.24-.588-.36-1.224-.36-1.908 0-.708.114-1.356.342-1.944.24-.588.57-1.092.99-1.512.432-.42.936-.744 1.512-.972.588-.24 1.23-.36 1.926-.36zm0 1.782c-.624 0-1.146.162-1.566.486-.408.312-.684.75-.828 1.314h4.752c-.168-.576-.456-1.02-.864-1.332s-.906-.468-1.494-.468zm6.175-1.548h8.748v9.108h-2.286v-7.146h-4.176v7.146h-2.286zm15.144-.234c.696 0 1.338.12 1.926.36.6.24 1.116.576 1.548 1.008.444.42.792.924 1.044 1.512.252.576.378 1.212.378 1.908s-.126 1.338-.378 1.926c-.252.576-.6 1.08-1.044 1.512-.432.42-.948.75-1.548.99-.588.24-1.23.36-1.926.36-.708 0-1.362-.12-1.962-.36-.588-.24-1.104-.57-1.548-.99-.444-.432-.792-.936-1.044-1.512-.24-.588-.36-1.23-.36-1.926s.12-1.332.36-1.908c.252-.588.6-1.092 1.044-1.512.444-.432.96-.768 1.548-1.008.6-.24 1.254-.36 1.962-.36zm0 7.524c.384 0 .732-.066 1.044-.198.324-.144.594-.336.81-.576.228-.252.402-.546.522-.882.132-.336.198-.696.198-1.08s-.066-.744-.198-1.08c-.12-.336-.294-.624-.522-.864-.216-.252-.486-.444-.81-.576-.312-.144-.66-.216-1.044-.216s-.738.072-1.062.216c-.312.144-.582.342-.81.594-.228.24-.408.528-.54.864-.12.324-.18.678-.18 1.062s.06.744.18 1.08c.132.324.312.612.54.864.228.24.498.432.81.576.324.144.678.216 1.062.216zm12.628-4.284c-.036-.06-.102-.156-.198-.288-.084-.132-.216-.264-.396-.396-.168-.144-.384-.264-.648-.36-.252-.108-.558-.162-.918-.162-.348 0-.672.072-.972.216-.288.144-.54.342-.756.594-.204.24-.366.528-.486.864-.108.336-.162.696-.162 1.08s.054.744.162 1.08c.12.336.282.63.486.882.216.24.468.432.756.576.3.144.63.216.99.216.372 0 .69-.048.954-.144.264-.108.48-.228.648-.36s.294-.264.378-.396c.096-.144.162-.246.198-.306h2.25c-.024.24-.12.546-.288.918-.156.36-.408.714-.756 1.062s-.804.648-1.368.9c-.552.24-1.236.36-2.052.36-.66 0-1.278-.114-1.854-.342-.564-.24-1.062-.57-1.494-.99-.42-.432-.75-.936-.99-1.512-.24-.588-.36-1.236-.36-1.944 0-.696.12-1.338.36-1.926s.57-1.092.99-1.512c.42-.432.912-.762 1.476-.99.576-.24 1.194-.36 1.854-.36.804 0 1.482.126 2.034.378.564.24 1.02.534 1.368.882.348.336.606.69.774 1.062.168.36.27.666.306.918zm6.115-1.044h-3.546v-1.962h9.36v1.962h-3.528v7.146h-2.286zm12.117.864c.648 0 1.2.084 1.656.252.468.156.846.372 1.134.648s.498.606.63.99c.144.372.216.78.216 1.224 0 .408-.072.804-.216 1.188-.132.384-.342.726-.63 1.026-.288.288-.66.522-1.116.702-.456.168-1.008.252-1.656.252h-5.202v-9.108h2.286v2.826zm-2.898 1.872v2.556h2.556c1.092 0 1.638-.438 1.638-1.314 0-.384-.138-.684-.414-.9-.276-.228-.684-.342-1.224-.342zm-73.274 17.19 1.926 3.33h-2.178l-1.872-3.312 1.89-3.312h2.16zm4.104 0 1.962 3.33h-2.178l-1.89-3.312 1.908-3.312h2.16zm11.396 1.746 3.834-9.306h3.474v12.78h-2.34v-10.476l-4.284 10.53h-1.638l-4.248-10.44v10.386h-2.232v-12.78h3.618zm13.944-5.868c.696 0 1.338.12 1.926.36.6.24 1.116.576 1.548 1.008.444.42.792.924 1.044 1.512.252.576.378 1.212.378 1.908s-.126 1.338-.378 1.926c-.252.576-.6 1.08-1.044 1.512-.432.42-.948.75-1.548.99-.588.24-1.23.36-1.926.36-.708 0-1.362-.12-1.962-.36-.588-.24-1.104-.57-1.548-.99-.444-.432-.792-.936-1.044-1.512-.24-.588-.36-1.23-.36-1.926s.12-1.332.36-1.908c.252-.588.6-1.092 1.044-1.512.444-.432.96-.768 1.548-1.008.6-.24 1.254-.36 1.962-.36zm0 7.524c.384 0 .732-.066 1.044-.198.324-.144.594-.336.81-.576.228-.252.402-.546.522-.882.132-.336.198-.696.198-1.08s-.066-.744-.198-1.08c-.12-.336-.294-.624-.522-.864-.216-.252-.486-.444-.81-.576-.312-.144-.66-.216-1.044-.216s-.738.072-1.062.216c-.312.144-.582.342-.81.594-.228.24-.408.528-.54.864-.12.324-.18.678-.18 1.062s.06.744.18 1.08c.132.324.312.612.54.864.228.24.498.432.81.576.324.144.678.216 1.062.216zm12.485-5.328h-3.096l-.162 1.314c-.06.504-.126.954-.198 1.35-.06.396-.126.75-.198 1.062-.072.3-.156.57-.252.81s-.204.456-.324.648h4.23zm-7.434 9.828v-4.644h.99c.132-.192.252-.408.36-.648s.204-.522.288-.846c.096-.324.18-.69.252-1.098.084-.408.156-.876.216-1.404l.378-3.15h7.236v7.146h1.584v4.644h-2.034v-2.682h-7.236v2.682zm15.505 1.152h-2.304l1.728-3.996-4.104-8.946h2.592l2.682 6.192 2.682-6.192h2.34zm7.187-12.942h7.344v9.108h-2.286v-7.146h-3.186l-.306 3.24c-.06.684-.156 1.278-.288 1.782s-.318.918-.558 1.242-.546.57-.918.738c-.372.156-.828.234-1.368.234h-.612v-2.088h.216c.264 0 .48-.03.648-.09.18-.072.324-.186.432-.342.108-.168.192-.39.252-.666s.108-.624.144-1.044zm9.425 0h2.268v6.102l4.572-6.102h2.286v9.108h-2.286v-6.12l-4.572 6.12h-2.268zm-75.396 18h8.748v9.108h-2.286v-7.146h-4.176v7.146h-2.286zm13.111 12.924h-2.268v-12.924h2.286v1.44c.036-.084.126-.216.27-.396.156-.18.36-.36.612-.54.264-.192.582-.354.954-.486.372-.144.804-.216 1.296-.216.588 0 1.146.108 1.674.324s.984.528 1.368.936c.396.408.708.906.936 1.494s.342 1.254.342 1.998-.114 1.41-.342 1.998-.54 1.086-.936 1.494c-.384.408-.84.72-1.368.936s-1.086.324-1.674.324c-.492 0-.924-.066-1.296-.198s-.69-.282-.954-.45c-.264-.18-.468-.354-.612-.522-.144-.18-.24-.318-.288-.414zm-.018-8.37c0 .384.06.744.18 1.08s.294.63.522.882c.228.24.498.432.81.576.312.132.666.198 1.062.198s.75-.066 1.062-.198c.324-.144.6-.336.828-.576.228-.252.402-.546.522-.882s.18-.696.18-1.08c0-.396-.06-.756-.18-1.08-.12-.336-.294-.624-.522-.864-.228-.252-.504-.444-.828-.576-.312-.144-.666-.216-1.062-.216s-.75.072-1.062.216c-.312.132-.582.324-.81.576-.228.24-.402.528-.522.864-.12.324-.18.684-.18 1.08zm13.28-4.788c.696 0 1.338.12 1.926.36.6.24 1.116.576 1.548 1.008.444.42.792.924 1.044 1.512.252.576.378 1.212.378 1.908s-.126 1.338-.378 1.926c-.252.576-.6 1.08-1.044 1.512-.432.42-.948.75-1.548.99-.588.24-1.23.36-1.926.36-.708 0-1.362-.12-1.962-.36-.588-.24-1.104-.57-1.548-.99-.444-.432-.792-.936-1.044-1.512-.24-.588-.36-1.23-.36-1.926s.12-1.332.36-1.908c.252-.588.6-1.092 1.044-1.512.444-.432.96-.768 1.548-1.008.6-.24 1.254-.36 1.962-.36zm0 7.524c.384 0 .732-.066 1.044-.198.324-.144.594-.336.81-.576.228-.252.402-.546.522-.882.132-.336.198-.696.198-1.08s-.066-.744-.198-1.08c-.12-.336-.294-.624-.522-.864-.216-.252-.486-.444-.81-.576-.312-.144-.66-.216-1.044-.216s-.738.072-1.062.216c-.312.144-.582.342-.81.594-.228.24-.408.528-.54.864-.12.324-.18.678-.18 1.062s.06.744.18 1.08c.132.324.312.612.54.864.228.24.498.432.81.576.324.144.678.216 1.062.216zm12.485-5.328h-3.096l-.162 1.314c-.06.504-.126.954-.198 1.35-.06.396-.126.75-.198 1.062-.072.3-.156.57-.252.81s-.204.456-.324.648h4.23zm-7.434 9.828v-4.644h.99c.132-.192.252-.408.36-.648s.204-.522.288-.846c.096-.324.18-.69.252-1.098.084-.408.156-.876.216-1.404l.378-3.15h7.236v7.146h1.584v4.644h-2.034v-2.682h-7.236v2.682zm15.506 1.152h-2.304l1.728-3.996-4.104-8.946h2.592l2.682 6.192 2.682-6.192h2.34zm6.419-12.942h2.268v3.834l4.212-3.834h3.006l-4.842 4.356 5.076 4.752h-3.06l-4.392-4.086v4.086h-2.268zm12.872 1.962h-3.546v-1.962h9.36v1.962h-3.528v7.146h-2.286zm6.215 4.266c0-.924.324-1.626.972-2.106s1.536-.72 2.664-.72h2.988c0-.552-.198-.99-.594-1.314-.384-.324-.912-.486-1.584-.486-.312 0-.582.036-.81.108s-.42.162-.576.27c-.144.096-.258.198-.342.306-.072.096-.126.174-.162.234h-2.322c.048-.24.156-.516.324-.828.18-.324.438-.624.774-.9.336-.288.756-.528 1.26-.72.516-.204 1.134-.306 1.854-.306.708 0 1.332.09 1.872.27.552.168 1.014.414 1.386.738s.654.708.846 1.152.288.936.288 1.476v3.078c0 .276.054.48.162.612.108.12.294.192.558.216v1.854h-.72c-1.164-.024-1.872-.444-2.124-1.26-.108.168-.252.336-.432.504-.18.156-.39.306-.63.45-.24.132-.516.24-.828.324s-.666.126-1.062.126c-.54 0-1.038-.072-1.494-.216s-.852-.348-1.188-.612c-.336-.276-.6-.6-.792-.972-.192-.384-.288-.81-.288-1.278zm4.248 1.368c.324 0 .63-.036.918-.108.288-.084.54-.204.756-.36s.384-.348.504-.576c.132-.24.198-.51.198-.81v-.774h-2.61c-.54 0-.966.102-1.278.306-.312.192-.468.498-.468.918 0 .444.186.792.558 1.044.372.24.846.36 1.422.36zm12.513-.378h-2.16l1.944-3.294-1.944-3.33h2.178l1.89 3.312zm-4.122 0h-2.178l1.962-3.294-1.962-3.33h2.178l1.908 3.312z" fill="#fff"/><path d="m445.947 281h-32s8.116 3.739 11.596 8c2.255 2.762 4.404 8 4.404 8s2.149-5.238 4.405-8c3.479-4.261 11.595-8 11.595-8z" fill="#ff4d00"/><rect fill="#ff4d00" height="30" rx="15" width="30" x="415" y="315"/><rect fill="#fff" height="20" rx="10" width="20" x="420" y="320"/><rect fill="#ededed" height="37" rx="12" width="94" x="676" y="260"/><path d="m704.417 278.5c0 2.99-2.427 5.417-5.417 5.417s-5.417-2.427-5.417-5.417 2.427-5.417 5.417-5.417 5.417 2.427 5.417 5.417z" stroke="#9e9e9e" stroke-linecap="round" stroke-linejoin="round"/><path d="m701.01 280.222-1.679-1.002c-.293-.173-.531-.59-.531-.931v-2.221" stroke="#9e9e9e" stroke-linecap="round" stroke-linejoin="round"/><path d="m714.792 283v-8.727h1.581v7.402h3.844v1.325zm9.267.128c-.656 0-1.223-.137-1.701-.409-.474-.276-.839-.665-1.095-1.168-.255-.506-.383-1.101-.383-1.785 0-.674.128-1.265.383-1.773.259-.511.62-.909 1.083-1.193.463-.287 1.007-.431 1.632-.431.403 0 .784.066 1.142.196.361.128.679.327.954.597.279.27.498.614.657 1.031.159.415.238.909.238 1.483v.473h-5.365v-1.04h3.887c-.003-.295-.067-.558-.192-.788-.125-.233-.3-.416-.524-.55-.222-.133-.48-.2-.776-.2-.315 0-.592.077-.831.23-.238.151-.425.35-.558.597-.131.244-.198.513-.2.805v.908c0 .38.069.707.208.98.14.27.334.477.584.622.25.142.543.213.878.213.225 0 .428-.031.609-.094.182-.065.34-.16.473-.285.134-.125.235-.28.303-.465l1.44.162c-.091.381-.264.713-.52.997-.252.282-.576.5-.971.657-.395.153-.847.23-1.355.23zm9.514-6.673-2.331 6.545h-1.704l-2.331-6.545h1.645l1.504 4.862h.068l1.509-4.862zm3.383 6.673c-.656 0-1.223-.137-1.7-.409-.475-.276-.84-.665-1.095-1.168-.256-.506-.384-1.101-.384-1.785 0-.674.128-1.265.384-1.773.258-.511.619-.909 1.082-1.193.463-.287 1.007-.431 1.632-.431.403 0 .784.066 1.142.196.361.128.679.327.955.597.278.27.497.614.656 1.031.159.415.238.909.238 1.483v.473h-5.365v-1.04h3.887c-.003-.295-.067-.558-.192-.788-.125-.233-.3-.416-.524-.55-.222-.133-.48-.2-.776-.2-.315 0-.592.077-.831.23-.238.151-.424.35-.558.597-.131.244-.197.513-.2.805v.908c0 .38.069.707.209.98.139.27.333.477.583.622.25.142.543.213.878.213.225 0 .428-.031.61-.094.181-.065.339-.16.473-.285.133-.125.234-.28.302-.465l1.441.162c-.091.381-.265.713-.52.997-.253.282-.577.5-.972.657-.395.153-.847.23-1.355.23zm3.856-8.855h1.542v6.852c0 .244.037.419.111.524s.204.155.392.149c.102-.003.179-.008.23-.017.054-.011.102-.022.145-.034l.256 1.168c-.091.028-.205.055-.341.081-.134.025-.299.041-.495.047-.625.017-1.088-.114-1.389-.392-.301-.279-.451-.704-.451-1.275zm5.599 5.919c.006-.296.047-.593.124-.891.079-.301.204-.619.375-.954.17-.338.393-.711.669-1.117l2.003-2.957h1.619l-2.178 3.187c.105-.028.215-.051.328-.068.114-.02.231-.03.35-.03.531 0 1.004.121 1.419.362.418.242.746.576.984 1.002.239.426.358.916.358 1.47 0 .577-.13 1.085-.392 1.526-.258.437-.615.779-1.069 1.027-.452.247-.966.37-1.543.37-.565 0-1.08-.119-1.543-.358-.46-.238-.826-.576-1.099-1.014-.273-.437-.408-.956-.405-1.555zm1.538.034c0 .315.063.595.188.839.128.245.304.436.528.576.228.139.489.208.784.208.293 0 .552-.068.776-.204.224-.139.401-.33.528-.571.128-.244.192-.524.192-.84 0-.315-.064-.593-.192-.835-.127-.244-.304-.435-.528-.571-.224-.139-.483-.209-.776-.209-.295 0-.556.068-.784.205-.224.136-.4.325-.528.567-.125.241-.188.52-.188.835z" fill="#9e9e9e"/><path d="m732 296h-18s4.565 2.103 6.522 4.5c1.269 1.554 2.478 4.5 2.478 4.5s1.209-2.946 2.478-4.5c1.957-2.397 6.522-4.5 6.522-4.5z" fill="#ededed"/><rect fill="#ededed" height="18" rx="9" width="18" x="714" y="321"/><rect fill="#fff" height="12" rx="6" width="12" x="717" y="324"/></g><path d="m40 1h780c21.539 0 39 17.4609 39 39v300c0 21.539-17.461 39-39 39h-780c-21.5391 0-39-17.461-39-39v-300c0-21.5391 17.4609-39 39-39z" stroke="#000" stroke-opacity=".08" stroke-width="2"/></svg>