<svg fill="none" height="380" viewBox="0 0 860 380" width="860" xmlns="http://www.w3.org/2000/svg" xmlns:xlink="http://www.w3.org/1999/xlink"><clipPath id="a"><path d="m0 40c0-22.0914 17.9086-40 40-40h780c22.091 0 40 17.9086 40 40v300c0 22.091-17.909 40-40 40h-780c-22.0914 0-40-17.909-40-40z"/></clipPath><g clip-path="url(#a)"><path d="m0 40c0-22.0914 17.9086-40 40-40h780c22.091 0 40 17.9086 40 40v300c0 22.091-17.909 40-40 40h-780c-22.0914 0-40-17.909-40-40z" fill="#fff"/><path d="m0 330h3380" opacity=".1" stroke="#000" stroke-opacity=".5" stroke-width="5"/><rect fill="#3dcf6f" height="37" rx="12" width="94" x="90" y="260"/><path d="m108 279 3.329 3 6.671-6" stroke="#fff" stroke-linecap="round" stroke-linejoin="round" stroke-width="2"/><path d="m127.24 283v-8.727h1.581v7.402h3.843v1.325zm9.266.128c-.656 0-1.223-.137-1.7-.409-.475-.276-.84-.665-1.095-1.168-.256-.506-.384-1.101-.384-1.785 0-.674.128-1.265.384-1.773.258-.511.619-.909 1.082-1.193.463-.287 1.007-.431 1.632-.431.403 0 .784.066 1.142.196.361.128.679.327.955.597.278.27.497.614.656 1.031.159.415.239.909.239 1.483v.473h-5.366v-1.04h3.887c-.003-.295-.067-.558-.192-.788-.125-.233-.3-.416-.524-.55-.222-.133-.48-.2-.776-.2-.315 0-.592.077-.831.23-.238.151-.424.35-.558.597-.131.244-.197.513-.2.805v.908c0 .38.069.707.209.98.139.27.334.477.584.622.25.142.542.213.877.213.225 0 .428-.031.61-.094.182-.065.339-.16.473-.285.133-.125.234-.28.302-.465l1.441.162c-.091.381-.265.713-.52.997-.253.282-.577.5-.972.657-.395.153-.846.23-1.355.23zm9.515-6.673-2.331 6.545h-1.705l-2.331-6.545h1.645l1.504 4.862h.069l1.508-4.862zm3.382 6.673c-.656 0-1.223-.137-1.7-.409-.474-.276-.84-.665-1.095-1.168-.256-.506-.384-1.101-.384-1.785 0-.674.128-1.265.384-1.773.258-.511.619-.909 1.082-1.193.463-.287 1.007-.431 1.632-.431.404 0 .784.066 1.142.196.361.128.679.327.955.597.278.27.497.614.656 1.031.159.415.239.909.239 1.483v.473h-5.365v-1.04h3.886c-.003-.295-.067-.558-.192-.788-.125-.233-.299-.416-.524-.55-.221-.133-.48-.2-.775-.2-.316 0-.593.077-.831.23-.239.151-.425.35-.559.597-.13.244-.197.513-.2.805v.908c0 .38.07.707.209.98.139.27.334.477.584.622.25.142.542.213.878.213.224 0 .427-.031.609-.094.182-.065.339-.16.473-.285.133-.125.234-.28.302-.465l1.441.162c-.091.381-.264.713-.52.997-.253.282-.577.5-.972.657-.395.153-.846.23-1.355.23zm3.856-8.855h1.542v6.852c0 .244.037.419.111.524s.205.155.392.149c.103-.003.179-.008.23-.017.054-.011.103-.022.145-.034l.256 1.168c-.091.028-.205.055-.341.081-.134.025-.298.041-.494.047-.625.017-1.088-.114-1.39-.392-.301-.279-.451-.704-.451-1.275zm5.685 8.727v-1.142l3.029-2.97c.29-.293.532-.553.725-.78s.338-.447.435-.661c.096-.213.144-.44.144-.681 0-.276-.062-.512-.187-.708-.125-.199-.297-.352-.516-.46-.218-.108-.467-.162-.745-.162-.287 0-.539.06-.755.179-.216.117-.383.283-.503.499-.116.216-.174.473-.174.771h-1.505c0-.554.127-1.036.38-1.445s.601-.726 1.044-.95c.446-.224.957-.337 1.534-.337.585 0 1.099.11 1.542.329.444.218.787.518 1.032.899.247.38.37.815.37 1.304 0 .326-.062.647-.187.963-.125.315-.345.664-.661 1.048-.312.384-.751.848-1.316 1.393l-1.505 1.53v.06h3.802v1.321z" fill="#fff"/><path d="m146 296h-18s4.565 2.103 6.522 4.5c1.269 1.554 2.478 4.5 2.478 4.5s1.209-2.946 2.478-4.5c1.957-2.397 6.522-4.5 6.522-4.5z" fill="#3dcf6f"/><rect fill="#3dcf6f" height="18" rx="9" width="18" x="128" y="321"/><rect fill="#fff" height="12" rx="6" width="12" x="131" y="324"/><rect fill="#ff4d00" height="247" rx="32" width="196" x="332" y="35"/><path d="m450.832 85.4208c-2.538-11.165-12.277-16.1917-20.832-16.1917 0 0 0 0-.024 0-8.531 0-18.294 5.0025-20.832 16.1675-2.827 12.47 4.809 23.0304 11.721 29.6764 2.562 2.465 5.848 3.698 9.135 3.698s6.573-1.233 9.111-3.698c6.911-6.646 14.548-17.1822 11.721-29.6522zm-20.832 12.1075c-4.205 0-7.613-3.4075-7.613-7.6125s3.408-7.6125 7.613-7.6125 7.612 3.4075 7.612 7.6125-3.407 7.6125-7.612 7.6125z" fill="#fff"/><rect height="24" rx="12" stroke="#fff" stroke-opacity=".35" width="59" x="400.5" y="155.5"/><path d="m411.087 172v-8.727h1.581v7.402h3.844v1.325zm9.267.128c-.657 0-1.223-.137-1.701-.409-.474-.276-.839-.665-1.095-1.168-.255-.506-.383-1.101-.383-1.785 0-.674.128-1.265.383-1.773.259-.511.62-.909 1.083-1.193.463-.287 1.007-.431 1.632-.431.403 0 .784.066 1.142.196.361.128.679.327.954.597.279.27.497.614.657 1.031.159.415.238.909.238 1.483v.473h-5.365v-1.04h3.887c-.003-.295-.067-.558-.192-.788-.125-.233-.3-.416-.524-.55-.222-.133-.481-.2-.776-.2-.315 0-.592.077-.831.23-.239.151-.425.35-.558.597-.131.244-.198.513-.2.805v.908c0 .38.069.707.208.98.14.27.334.477.584.622.25.142.543.213.878.213.224 0 .428-.031.609-.094.182-.065.34-.16.473-.285.134-.125.235-.28.303-.465l1.44.162c-.091.381-.264.713-.52.997-.252.282-.576.5-.971.657-.395.153-.847.23-1.355.23zm9.514-6.673-2.331 6.545h-1.704l-2.331-6.545h1.645l1.504 4.862h.068l1.509-4.862zm3.383 6.673c-.656 0-1.223-.137-1.7-.409-.475-.276-.84-.665-1.096-1.168-.255-.506-.383-1.101-.383-1.785 0-.674.128-1.265.383-1.773.259-.511.62-.909 1.083-1.193.463-.287 1.007-.431 1.632-.431.403 0 .784.066 1.142.196.361.128.679.327.955.597.278.27.497.614.656 1.031.159.415.238.909.238 1.483v.473h-5.365v-1.04h3.887c-.003-.295-.067-.558-.192-.788-.125-.233-.3-.416-.524-.55-.222-.133-.48-.2-.776-.2-.315 0-.592.077-.831.23-.238.151-.424.35-.558.597-.131.244-.197.513-.2.805v.908c0 .38.069.707.209.98.139.27.333.477.583.622.25.142.543.213.878.213.225 0 .428-.031.61-.094.181-.065.339-.16.473-.285.133-.125.234-.28.302-.465l1.44.162c-.09.381-.264.713-.519.997-.253.282-.577.5-.972.657-.395.153-.847.23-1.355.23zm3.855-8.855h1.543v6.852c0 .244.037.419.111.524s.204.155.392.149c.102-.003.179-.008.23-.017.054-.011.102-.022.145-.034l.256 1.168c-.091.028-.205.055-.341.081-.134.025-.299.041-.495.047-.625.017-1.088-.114-1.389-.392-.301-.279-.452-.704-.452-1.275zm5.549 6.353h1.598c.02.245.102.455.247.631.145.173.335.307.571.401.236.091.499.136.788.136.307 0 .581-.053.823-.158.241-.108.43-.261.567-.46.139-.202.208-.446.208-.733 0-.264-.066-.504-.2-.72-.131-.219-.331-.392-.601-.52-.27-.131-.615-.196-1.035-.196h-.865v-1.138l2.02-2.216v-.059h-3.691v-1.321h5.685v1.142l-2.344 2.523v.068c.432.034.813.125 1.142.272.333.148.611.337.835.567.225.23.394.489.508.776.113.287.17.588.17.903 0 .512-.141.962-.422 1.351-.278.389-.662.695-1.15.916-.486.219-1.04.328-1.662.328-.597 0-1.132-.102-1.607-.307-.471-.204-.848-.492-1.129-.865-.281-.375-.433-.815-.456-1.321z" fill="#fff" opacity=".7"/><path d="m376.64 201.22h12.564v2.16h-5.076v10.62h-2.412v-10.62h-5.076zm16.373 3.438c.696 0 1.338.12 1.926.36.588.228 1.092.558 1.512.99.42.42.744.936.972 1.548.24.6.36 1.272.36 2.016v.252h-7.236c.024.36.102.69.234.99.144.3.33.564.558.792s.498.408.81.54c.312.12.66.18 1.044.18.36 0 .672-.036.936-.108.264-.084.48-.18.648-.288.18-.108.318-.216.414-.324.108-.12.18-.21.216-.27h2.268c-.036.24-.144.528-.324.864-.18.324-.45.636-.81.936s-.816.558-1.368.774-1.212.324-1.98.324c-.744 0-1.422-.12-2.034-.36-.6-.24-1.116-.576-1.548-1.008s-.768-.936-1.008-1.512c-.24-.588-.36-1.224-.36-1.908 0-.708.114-1.356.342-1.944.24-.588.57-1.092.99-1.512.432-.42.936-.744 1.512-.972.588-.24 1.23-.36 1.926-.36zm0 1.782c-.624 0-1.146.162-1.566.486-.408.312-.684.75-.828 1.314h4.752c-.168-.576-.456-1.02-.864-1.332s-.906-.468-1.494-.468zm8.442 11.376h-2.268v-12.924h2.286v1.44c.036-.084.126-.216.27-.396.156-.18.36-.36.612-.54.264-.192.582-.354.954-.486.372-.144.804-.216 1.296-.216.588 0 1.146.108 1.674.324s.984.528 1.368.936c.396.408.708.906.936 1.494s.342 1.254.342 1.998-.114 1.41-.342 1.998-.54 1.086-.936 1.494c-.384.408-.84.72-1.368.936s-1.086.324-1.674.324c-.492 0-.924-.066-1.296-.198s-.69-.282-.954-.45c-.264-.18-.468-.354-.612-.522-.144-.18-.24-.318-.288-.414zm-.018-8.37c0 .384.06.744.18 1.08s.294.63.522.882c.228.24.498.432.81.576.312.132.666.198 1.062.198s.75-.066 1.062-.198c.324-.144.6-.336.828-.576.228-.252.402-.546.522-.882s.18-.696.18-1.08c0-.396-.06-.756-.18-1.08-.12-.336-.294-.624-.522-.864-.228-.252-.504-.444-.828-.576-.312-.144-.666-.216-1.062-.216s-.75.072-1.062.216c-.312.132-.582.324-.81.576-.228.24-.402.528-.522.864-.12.324-.18.684-.18 1.08zm11.247 8.37h-2.268v-12.924h2.286v1.44c.036-.084.126-.216.27-.396.156-.18.36-.36.612-.54.264-.192.582-.354.954-.486.372-.144.804-.216 1.296-.216.588 0 1.146.108 1.674.324s.984.528 1.368.936c.396.408.708.906.936 1.494s.342 1.254.342 1.998-.114 1.41-.342 1.998-.54 1.086-.936 1.494c-.384.408-.84.72-1.368.936s-1.086.324-1.674.324c-.492 0-.924-.066-1.296-.198s-.69-.282-.954-.45c-.264-.18-.468-.354-.612-.522-.144-.18-.24-.318-.288-.414zm-.018-8.37c0 .384.06.744.18 1.08s.294.63.522.882c.228.24.498.432.81.576.312.132.666.198 1.062.198s.75-.066 1.062-.198c.324-.144.6-.336.828-.576.228-.252.402-.546.522-.882s.18-.696.18-1.08c0-.396-.06-.756-.18-1.08-.12-.336-.294-.624-.522-.864-.228-.252-.504-.444-.828-.576-.312-.144-.666-.216-1.062-.216s-.75.072-1.062.216c-.312.132-.582.324-.81.576-.228.24-.402.528-.522.864-.12.324-.18.684-.18 1.08zm8.979-4.554h2.268v6.102l4.572-6.102h2.286v9.108h-2.286v-6.12l-4.572 6.12h-2.268zm13.75 1.962h-3.546v-1.962h9.36v1.962h-3.528v7.146h-2.286zm10.883-2.196c.696 0 1.338.12 1.926.36.6.24 1.116.576 1.548 1.008.444.42.792.924 1.044 1.512.252.576.378 1.212.378 1.908s-.126 1.338-.378 1.926c-.252.576-.6 1.08-1.044 1.512-.432.42-.948.75-1.548.99-.588.24-1.23.36-1.926.36-.708 0-1.362-.12-1.962-.36-.588-.24-1.104-.57-1.548-.99-.444-.432-.792-.936-1.044-1.512-.24-.588-.36-1.23-.36-1.926s.12-1.332.36-1.908c.252-.588.6-1.092 1.044-1.512.444-.432.96-.768 1.548-1.008.6-.24 1.254-.36 1.962-.36zm0 7.524c.384 0 .732-.066 1.044-.198.324-.144.594-.336.81-.576.228-.252.402-.546.522-.882.132-.336.198-.696.198-1.08s-.066-.744-.198-1.08c-.12-.336-.294-.624-.522-.864-.216-.252-.486-.444-.81-.576-.312-.144-.66-.216-1.044-.216s-.738.072-1.062.216c-.312.144-.582.342-.81.594-.228.24-.408.528-.54.864-.12.324-.18.678-.18 1.062s.06.744.18 1.08c.132.324.312.612.54.864.228.24.498.432.81.576.324.144.678.216 1.062.216zm8.632 5.634h-2.268v-12.924h2.286v1.44c.036-.084.126-.216.27-.396.156-.18.36-.36.612-.54.264-.192.582-.354.954-.486.372-.144.804-.216 1.296-.216.588 0 1.146.108 1.674.324s.984.528 1.368.936c.396.408.708.906.936 1.494s.342 1.254.342 1.998-.114 1.41-.342 1.998-.54 1.086-.936 1.494c-.384.408-.84.72-1.368.936s-1.086.324-1.674.324c-.492 0-.924-.066-1.296-.198s-.69-.282-.954-.45c-.264-.18-.468-.354-.612-.522-.144-.18-.24-.318-.288-.414zm-.018-8.37c0 .384.06.744.18 1.08s.294.63.522.882c.228.24.498.432.81.576.312.132.666.198 1.062.198s.75-.066 1.062-.198c.324-.144.6-.336.828-.576.228-.252.402-.546.522-.882s.18-.696.18-1.08c0-.396-.06-.756-.18-1.08-.12-.336-.294-.624-.522-.864-.228-.252-.504-.444-.828-.576-.312-.144-.666-.216-1.062-.216s-.75.072-1.062.216c-.312.132-.582.324-.81.576-.228.24-.402.528-.522.864-.12.324-.18.684-.18 1.08zm8.979-4.554h2.268v6.102l4.572-6.102h2.286v9.108h-2.286v-6.12l-4.572 6.12h-2.268zm17.296 9.108v-3.06h-2.088l-2.124 3.06h-2.574l2.412-3.402c-.732-.192-1.266-.522-1.602-.99-.336-.48-.504-1.062-.504-1.746 0-.396.066-.774.198-1.134s.336-.672.612-.936c.276-.276.63-.492 1.062-.648.432-.168.948-.252 1.548-.252h5.346v9.108zm0-4.932v-2.322h-2.754c-.924 0-1.386.378-1.386 1.134 0 .372.114.666.342.882.24.204.588.306 1.044.306zm-113.075 16.83c-.036-.06-.102-.156-.198-.288-.084-.132-.216-.264-.396-.396-.168-.144-.384-.264-.648-.36-.252-.108-.558-.162-.918-.162-.348 0-.672.072-.972.216-.288.144-.54.342-.756.594-.204.24-.366.528-.486.864-.108.336-.162.696-.162 1.08s.054.744.162 1.08c.12.336.282.63.486.882.216.24.468.432.756.576.3.144.63.216.99.216.372 0 .69-.048.954-.144.264-.108.48-.228.648-.36s.294-.264.378-.396c.096-.144.162-.246.198-.306h2.25c-.024.24-.12.546-.288.918-.156.36-.408.714-.756 1.062s-.804.648-1.368.9c-.552.24-1.236.36-2.052.36-.66 0-1.278-.114-1.854-.342-.564-.24-1.062-.57-1.494-.99-.42-.432-.75-.936-.99-1.512-.24-.588-.36-1.236-.36-1.944 0-.696.12-1.338.36-1.926s.57-1.092.99-1.512c.42-.432.912-.762 1.476-.99.576-.24 1.194-.36 1.854-.36.804 0 1.482.126 2.034.378.564.24 1.02.534 1.368.882.348.336.606.69.774 1.062.168.36.27.666.306.918zm7.388-3.006h3.132l3.024 6.318 3.024-6.318h3.06v9.108h-2.232v-6.786l-3.186 6.822h-1.53l-3.168-6.768v6.732h-2.124zm14.322 0h2.268v6.102l4.572-6.102h2.286v9.108h-2.286v-6.12l-4.572 6.12h-2.268zm11.194 0h2.286v3.474h4.356v-3.474h2.286v9.108h-2.286v-3.672h-4.356v3.672h-2.286zm11.018 0h2.268v6.102l4.572-6.102h2.286v9.108h-2.286v-6.12l-4.572 6.12h-2.268zm11.194 0h3.132l3.024 6.318 3.024-6.318h3.06v9.108h-2.232v-6.786l-3.186 6.822h-1.53l-3.168-6.768v6.732h-2.124zm13.692 6.228c0-.924.324-1.626.972-2.106s1.536-.72 2.664-.72h2.988c0-.552-.198-.99-.594-1.314-.384-.324-.912-.486-1.584-.486-.312 0-.582.036-.81.108s-.42.162-.576.27c-.144.096-.258.198-.342.306-.072.096-.126.174-.162.234h-2.322c.048-.24.156-.516.324-.828.18-.324.438-.624.774-.9.336-.288.756-.528 1.26-.72.516-.204 1.134-.306 1.854-.306.708 0 1.332.09 1.872.27.552.168 1.014.414 1.386.738s.654.708.846 1.152.288.936.288 1.476v3.078c0 .276.054.48.162.612.108.12.294.192.558.216v1.854h-.72c-1.164-.024-1.872-.444-2.124-1.26-.108.168-.252.336-.432.504-.18.156-.39.306-.63.45-.24.132-.516.24-.828.324s-.666.126-1.062.126c-.54 0-1.038-.072-1.494-.216s-.852-.348-1.188-.612c-.336-.276-.6-.6-.792-.972-.192-.384-.288-.81-.288-1.278zm4.248 1.368c.324 0 .63-.036.918-.108.288-.084.54-.204.756-.36s.384-.348.504-.576c.132-.24.198-.51.198-.81v-.774h-2.61c-.54 0-.966.102-1.278.306-.312.192-.468.498-.468.918 0 .444.186.792.558 1.044.372.24.846.36 1.422.36zm7.762-7.596h7.344v9.108h-2.286v-7.146h-3.186l-.306 3.24c-.06.684-.156 1.278-.288 1.782s-.318.918-.558 1.242-.546.57-.918.738c-.372.156-.828.234-1.368.234h-.612v-2.088h.216c.264 0 .48-.03.648-.09.18-.072.324-.186.432-.342.108-.168.192-.39.252-.666s.108-.624.144-1.044zm14.61 2.826c.648 0 1.2.084 1.656.252.468.156.846.372 1.134.648s.498.606.63.99c.144.372.216.78.216 1.224 0 .408-.072.804-.216 1.188-.132.384-.342.726-.63 1.026-.288.288-.66.522-1.116.702-.456.168-1.008.252-1.656.252h-5.202v-9.108h2.286v2.826zm-2.898 1.872v2.556h2.556c1.092 0 1.638-.438 1.638-1.314 0-.384-.138-.684-.414-.9-.276-.228-.684-.342-1.224-.342zm7.659-4.698h2.286v3.474h4.356v-3.474h2.286v9.108h-2.286v-3.672h-4.356v3.672h-2.286zm15.32-.234c.696 0 1.338.12 1.926.36.6.24 1.116.576 1.548 1.008.444.42.792.924 1.044 1.512.252.576.378 1.212.378 1.908s-.126 1.338-.378 1.926c-.252.576-.6 1.08-1.044 1.512-.432.42-.948.75-1.548.99-.588.24-1.23.36-1.926.36-.708 0-1.362-.12-1.962-.36-.588-.24-1.104-.57-1.548-.99-.444-.432-.792-.936-1.044-1.512-.24-.588-.36-1.23-.36-1.926s.12-1.332.36-1.908c.252-.588.6-1.092 1.044-1.512.444-.432.96-.768 1.548-1.008.6-.24 1.254-.36 1.962-.36zm0 7.524c.384 0 .732-.066 1.044-.198.324-.144.594-.336.81-.576.228-.252.402-.546.522-.882.132-.336.198-.696.198-1.08s-.066-.744-.198-1.08c-.12-.336-.294-.624-.522-.864-.216-.252-.486-.444-.81-.576-.312-.144-.66-.216-1.044-.216s-.738.072-1.062.216c-.312.144-.582.342-.81.594-.228.24-.408.528-.54.864-.12.324-.18.678-.18 1.062s.06.744.18 1.08c.132.324.312.612.54.864.228.24.498.432.81.576.324.144.678.216 1.062.216zm6.365-7.29h2.268v6.102l4.572-6.102h2.286v9.108h-2.286v-6.12l-4.572 6.12h-2.268zm4.59-2.916c.348 0 .6-.114.756-.342s.234-.48.234-.756v-.306h1.818v.342c0 .384-.06.744-.18 1.08-.108.336-.276.63-.504.882-.228.24-.522.432-.882.576-.348.144-.762.216-1.242.216s-.9-.072-1.26-.216c-.348-.144-.636-.336-.864-.576-.228-.252-.402-.546-.522-.882-.108-.336-.162-.696-.162-1.08v-.342h1.818v.306c0 .276.078.528.234.756s.408.342.756.342zm-112.944 23.922c-.036-.06-.102-.156-.198-.288-.084-.132-.216-.264-.396-.396-.168-.144-.384-.264-.648-.36-.252-.108-.558-.162-.918-.162-.348 0-.672.072-.972.216-.288.144-.54.342-.756.594-.204.24-.366.528-.486.864-.108.336-.162.696-.162 1.08s.054.744.162 1.08c.12.336.282.63.486.882.216.24.468.432.756.576.3.144.63.216.99.216.372 0 .69-.048.954-.144.264-.108.48-.228.648-.36s.294-.264.378-.396c.096-.144.162-.246.198-.306h2.25c-.024.24-.12.546-.288.918-.156.36-.408.714-.756 1.062s-.804.648-1.368.9c-.552.24-1.236.36-2.052.36-.66 0-1.278-.114-1.854-.342-.564-.24-1.062-.57-1.494-.99-.42-.432-.75-.936-.99-1.512-.24-.588-.36-1.236-.36-1.944 0-.696.12-1.338.36-1.926s.57-1.092.99-1.512c.42-.432.912-.762 1.476-.99.576-.24 1.194-.36 1.854-.36.804 0 1.482.126 2.034.378.564.24 1.02.534 1.368.882.348.336.606.69.774 1.062.168.36.27.666.306.918zm4.746-3.006h7.344v9.108h-2.286v-7.146h-3.186l-.306 3.24c-.06.684-.156 1.278-.288 1.782s-.318.918-.558 1.242-.546.57-.918.738c-.372.156-.828.234-1.368.234h-.612v-2.088h.216c.264 0 .48-.03.648-.09.18-.072.324-.186.432-.342.108-.168.192-.39.252-.666s.108-.624.144-1.044zm13.728-.234c.696 0 1.338.12 1.926.36.6.24 1.116.576 1.548 1.008.444.42.792.924 1.044 1.512.252.576.378 1.212.378 1.908s-.126 1.338-.378 1.926c-.252.576-.6 1.08-1.044 1.512-.432.42-.948.75-1.548.99-.588.24-1.23.36-1.926.36-.708 0-1.362-.12-1.962-.36-.588-.24-1.104-.57-1.548-.99-.444-.432-.792-.936-1.044-1.512-.24-.588-.36-1.23-.36-1.926s.12-1.332.36-1.908c.252-.588.6-1.092 1.044-1.512.444-.432.96-.768 1.548-1.008.6-.24 1.254-.36 1.962-.36zm0 7.524c.384 0 .732-.066 1.044-.198.324-.144.594-.336.81-.576.228-.252.402-.546.522-.882.132-.336.198-.696.198-1.08s-.066-.744-.198-1.08c-.12-.336-.294-.624-.522-.864-.216-.252-.486-.444-.81-.576-.312-.144-.66-.216-1.044-.216s-.738.072-1.062.216c-.312.144-.582.342-.81.594-.228.24-.408.528-.54.864-.12.324-.18.678-.18 1.062s.06.744.18 1.08c.132.324.312.612.54.864.228.24.498.432.81.576.324.144.678.216 1.062.216zm11.427-2.178-3.798 3.996h-2.934l4.464-4.68-4.284-4.428h2.934l3.618 3.762v-3.762h2.196v3.744l3.6-3.744h2.916l-4.23 4.374 4.5 4.734h-3.006l-3.78-3.978v3.978h-2.196zm9.577-5.112h2.286v3.474h4.356v-3.474h2.286v9.108h-2.286v-3.672h-4.356v3.672h-2.286zm15.319-.234c.696 0 1.338.12 1.926.36.6.24 1.116.576 1.548 1.008.444.42.792.924 1.044 1.512.252.576.378 1.212.378 1.908s-.126 1.338-.378 1.926c-.252.576-.6 1.08-1.044 1.512-.432.42-.948.75-1.548.99-.588.24-1.23.36-1.926.36-.708 0-1.362-.12-1.962-.36-.588-.24-1.104-.57-1.548-.99-.444-.432-.792-.936-1.044-1.512-.24-.588-.36-1.23-.36-1.926s.12-1.332.36-1.908c.252-.588.6-1.092 1.044-1.512.444-.432.96-.768 1.548-1.008.6-.24 1.254-.36 1.962-.36zm0 7.524c.384 0 .732-.066 1.044-.198.324-.144.594-.336.81-.576.228-.252.402-.546.522-.882.132-.336.198-.696.198-1.08s-.066-.744-.198-1.08c-.12-.336-.294-.624-.522-.864-.216-.252-.486-.444-.81-.576-.312-.144-.66-.216-1.044-.216s-.738.072-1.062.216c-.312.144-.582.342-.81.594-.228.24-.408.528-.54.864-.12.324-.18.678-.18 1.062s.06.744.18 1.08c.132.324.312.612.54.864.228.24.498.432.81.576.324.144.678.216 1.062.216zm12.629-4.284c-.036-.06-.102-.156-.198-.288-.084-.132-.216-.264-.396-.396-.168-.144-.384-.264-.648-.36-.252-.108-.558-.162-.918-.162-.348 0-.672.072-.972.216-.288.144-.54.342-.756.594-.204.24-.366.528-.486.864-.108.336-.162.696-.162 1.08s.054.744.162 1.08c.12.336.282.63.486.882.216.24.468.432.756.576.3.144.63.216.99.216.372 0 .69-.048.954-.144.264-.108.48-.228.648-.36s.294-.264.378-.396c.096-.144.162-.246.198-.306h2.25c-.024.24-.12.546-.288.918-.156.36-.408.714-.756 1.062s-.804.648-1.368.9c-.552.24-1.236.36-2.052.36-.66 0-1.278-.114-1.854-.342-.564-.24-1.062-.57-1.494-.99-.42-.432-.75-.936-.99-1.512-.24-.588-.36-1.236-.36-1.944 0-.696.12-1.338.36-1.926s.57-1.092.99-1.512c.42-.432.912-.762 1.476-.99.576-.24 1.194-.36 1.854-.36.804 0 1.482.126 2.034.378.564.24 1.02.534 1.368.882.348.336.606.69.774 1.062.168.36.27.666.306.918zm6.115-1.044h-3.546v-1.962h9.36v1.962h-3.528v7.146h-2.286zm12.116.864c.648 0 1.2.084 1.656.252.468.156.846.372 1.134.648s.498.606.63.99c.144.372.216.78.216 1.224 0 .408-.072.804-.216 1.188-.132.384-.342.726-.63 1.026-.288.288-.66.522-1.116.702-.456.168-1.008.252-1.656.252h-5.202v-9.108h2.286v2.826zm-2.898 1.872v2.556h2.556c1.092 0 1.638-.438 1.638-1.314 0-.384-.138-.684-.414-.9-.276-.228-.684-.342-1.224-.342zm7.624-4.698h2.286v3.474h1.476c.12-.552.318-1.056.594-1.512.288-.456.636-.846 1.044-1.17s.87-.576 1.386-.756 1.074-.27 1.674-.27c.684 0 1.32.12 1.908.36s1.092.576 1.512 1.008c.432.42.768.924 1.008 1.512.252.576.378 1.212.378 1.908s-.126 1.338-.378 1.926c-.24.576-.576 1.08-1.008 1.512-.42.42-.924.75-1.512.99s-1.224.36-1.908.36c-.612 0-1.188-.096-1.728-.288-.528-.192-1.002-.456-1.422-.792-.408-.348-.75-.762-1.026-1.242s-.462-1.008-.558-1.584h-1.44v3.672h-2.286zm8.46 7.308c.372 0 .708-.072 1.008-.216.312-.144.576-.336.792-.576.216-.252.384-.546.504-.882s.18-.696.18-1.08-.06-.744-.18-1.08-.288-.624-.504-.864c-.216-.252-.48-.45-.792-.594-.3-.144-.636-.216-1.008-.216s-.714.072-1.026.216c-.3.144-.558.342-.774.594-.216.24-.384.528-.504.864s-.18.696-.18 1.08.06.744.18 1.08.288.63.504.882c.216.24.474.432.774.576.312.144.654.216 1.026.216z" fill="#fff"/><path d="m445.947 281h-32s8.116 3.739 11.596 8c2.255 2.762 4.404 8 4.404 8s2.149-5.238 4.405-8c3.479-4.261 11.595-8 11.595-8z" fill="#ff4d00"/><rect fill="#ff4d00" height="30" rx="15" width="30" x="415" y="315"/><rect fill="#fff" height="20" rx="10" width="20" x="420" y="320"/><rect fill="#ededed" height="37" rx="12" width="94" x="676" y="260"/><path d="m704.417 278.5c0 2.99-2.427 5.417-5.417 5.417s-5.417-2.427-5.417-5.417 2.427-5.417 5.417-5.417 5.417 2.427 5.417 5.417z" stroke="#9e9e9e" stroke-linecap="round" stroke-linejoin="round"/><path d="m701.01 280.222-1.679-1.002c-.293-.173-.531-.59-.531-.931v-2.221" stroke="#9e9e9e" stroke-linecap="round" stroke-linejoin="round"/><path d="m714.47 283v-8.727h1.581v7.402h3.844v1.325zm9.267.128c-.657 0-1.223-.137-1.701-.409-.474-.276-.839-.665-1.095-1.168-.256-.506-.383-1.101-.383-1.785 0-.674.127-1.265.383-1.773.259-.511.619-.909 1.082-1.193.464-.287 1.008-.431 1.633-.431.403 0 .784.066 1.142.196.36.128.679.327.954.597.279.27.497.614.656 1.031.159.415.239.909.239 1.483v.473h-5.365v-1.04h3.886c-.003-.295-.066-.558-.191-.788-.125-.233-.3-.416-.525-.55-.221-.133-.48-.2-.775-.2-.315 0-.592.077-.831.23-.239.151-.425.35-.558.597-.131.244-.198.513-.201.805v.908c0 .38.07.707.209.98.139.27.334.477.584.622.25.142.543.213.878.213.224 0 .427-.031.609-.094.182-.065.34-.16.473-.285.134-.125.235-.28.303-.465l1.44.162c-.091.381-.264.713-.52.997-.253.282-.576.5-.971.657-.395.153-.847.23-1.355.23zm9.514-6.673-2.331 6.545h-1.704l-2.331-6.545h1.645l1.504 4.862h.068l1.509-4.862zm3.383 6.673c-.657 0-1.223-.137-1.701-.409-.474-.276-.839-.665-1.095-1.168-.255-.506-.383-1.101-.383-1.785 0-.674.128-1.265.383-1.773.259-.511.62-.909 1.083-1.193.463-.287 1.007-.431 1.632-.431.403 0 .784.066 1.142.196.361.128.679.327.954.597.279.27.497.614.657 1.031.159.415.238.909.238 1.483v.473h-5.365v-1.04h3.887c-.003-.295-.067-.558-.192-.788-.125-.233-.3-.416-.524-.55-.222-.133-.481-.2-.776-.2-.315 0-.592.077-.831.23-.239.151-.425.35-.558.597-.131.244-.198.513-.2.805v.908c0 .38.069.707.208.98.14.27.334.477.584.622.25.142.543.213.878.213.224 0 .428-.031.609-.094.182-.065.34-.16.473-.285.134-.125.235-.28.303-.465l1.44.162c-.091.381-.264.713-.52.997-.252.282-.576.5-.971.657-.395.153-.847.23-1.355.23zm3.855-8.855h1.543v6.852c0 .244.037.419.111.524s.204.155.392.149c.102-.003.179-.008.23-.017.054-.011.102-.022.145-.034l.255 1.168c-.091.028-.204.055-.341.081-.133.025-.298.041-.494.047-.625.017-1.088-.114-1.389-.392-.301-.279-.452-.704-.452-1.275zm5.527 7.108v-1.257l3.337-5.851h1.53l-3.26 5.74v.068h5.182v1.3zm4.164 1.619v-1.99l.034-.575v-2.89h1.453v5.455z" fill="#9e9e9e"/><path d="m732 296h-18s4.565 2.103 6.522 4.5c1.269 1.554 2.478 4.5 2.478 4.5s1.209-2.946 2.478-4.5c1.957-2.397 6.522-4.5 6.522-4.5z" fill="#ededed"/><rect fill="#ededed" height="18" rx="9" width="18" x="714" y="321"/><rect fill="#fff" height="12" rx="6" width="12" x="717" y="324"/></g><path d="m40 1h780c21.539 0 39 17.4609 39 39v300c0 21.539-17.461 39-39 39h-780c-21.5391 0-39-17.461-39-39v-300c0-21.5391 17.4609-39 39-39z" stroke="#000" stroke-opacity=".08" stroke-width="2"/></svg>