<svg fill="none" height="380" viewBox="0 0 860 380" width="860" xmlns="http://www.w3.org/2000/svg" xmlns:xlink="http://www.w3.org/1999/xlink"><clipPath id="a"><path d="m0 40c0-22.0914 17.9086-40 40-40h780c22.091 0 40 17.9086 40 40v300c0 22.091-17.909 40-40 40h-780c-22.0914 0-40-17.909-40-40z"/></clipPath><g clip-path="url(#a)"><path d="m0 40c0-22.0914 17.9086-40 40-40h780c22.091 0 40 17.9086 40 40v300c0 22.091-17.909 40-40 40h-780c-22.0914 0-40-17.909-40-40z" fill="#fff"/><path d="m0 330h3380" opacity=".1" stroke="#000" stroke-opacity=".5" stroke-width="5"/><rect fill="#3dcf6f" height="37" rx="12" width="94" x="90" y="260"/><path d="m108 279 3.329 3 6.671-6" stroke="#fff" stroke-linecap="round" stroke-linejoin="round" stroke-width="2"/><path d="m127.087 283v-8.727h1.581v7.402h3.844v1.325zm9.267.128c-.657 0-1.223-.137-1.701-.409-.474-.276-.839-.665-1.095-1.168-.255-.506-.383-1.101-.383-1.785 0-.674.128-1.265.383-1.773.259-.511.62-.909 1.083-1.193.463-.287 1.007-.431 1.632-.431.403 0 .784.066 1.142.196.361.128.679.327.954.597.279.27.497.614.657 1.031.159.415.238.909.238 1.483v.473h-5.365v-1.04h3.887c-.003-.295-.067-.558-.192-.788-.125-.233-.3-.416-.524-.55-.222-.133-.481-.2-.776-.2-.315 0-.592.077-.831.23-.239.151-.425.35-.558.597-.131.244-.198.513-.2.805v.908c0 .38.069.707.208.98.14.27.334.477.584.622.25.142.543.213.878.213.224 0 .428-.031.609-.094.182-.065.34-.16.473-.285.134-.125.235-.28.303-.465l1.44.162c-.091.381-.264.713-.52.997-.252.282-.576.5-.971.657-.395.153-.847.23-1.355.23zm9.514-6.673-2.331 6.545h-1.704l-2.331-6.545h1.645l1.504 4.862h.068l1.509-4.862zm3.383 6.673c-.656 0-1.223-.137-1.7-.409-.475-.276-.84-.665-1.096-1.168-.255-.506-.383-1.101-.383-1.785 0-.674.128-1.265.383-1.773.259-.511.62-.909 1.083-1.193.463-.287 1.007-.431 1.632-.431.403 0 .784.066 1.142.196.361.128.679.327.955.597.278.27.497.614.656 1.031.159.415.238.909.238 1.483v.473h-5.365v-1.04h3.887c-.003-.295-.067-.558-.192-.788-.125-.233-.3-.416-.524-.55-.222-.133-.48-.2-.776-.2-.315 0-.592.077-.831.23-.238.151-.424.35-.558.597-.131.244-.197.513-.2.805v.908c0 .38.069.707.209.98.139.27.333.477.583.622.25.142.543.213.878.213.225 0 .428-.031.61-.094.181-.065.339-.16.473-.285.133-.125.234-.28.302-.465l1.44.162c-.09.381-.264.713-.519.997-.253.282-.577.5-.972.657-.395.153-.847.23-1.355.23zm3.855-8.855h1.543v6.852c0 .244.037.419.111.524s.204.155.392.149c.102-.003.179-.008.23-.017.054-.011.102-.022.145-.034l.256 1.168c-.091.028-.205.055-.341.081-.134.025-.299.041-.495.047-.625.017-1.088-.114-1.389-.392-.301-.279-.452-.704-.452-1.275zm5.549 6.353h1.598c.02.245.102.455.247.631.145.173.335.307.571.401.236.091.499.136.788.136.307 0 .581-.053.823-.158.241-.108.43-.261.567-.46.139-.202.208-.446.208-.733 0-.264-.066-.504-.2-.72-.131-.219-.331-.392-.601-.52-.27-.131-.615-.196-1.035-.196h-.865v-1.138l2.02-2.216v-.059h-3.691v-1.321h5.685v1.142l-2.344 2.523v.068c.432.034.813.125 1.142.272.333.148.611.337.835.567.225.23.394.489.508.776.113.287.17.588.17.903 0 .512-.141.962-.422 1.351-.278.389-.662.695-1.15.916-.486.219-1.04.328-1.662.328-.597 0-1.132-.102-1.607-.307-.471-.204-.848-.492-1.129-.865-.281-.375-.433-.815-.456-1.321z" fill="#fff"/><path d="m146 296h-18s4.565 2.103 6.522 4.5c1.269 1.554 2.478 4.5 2.478 4.5s1.209-2.946 2.478-4.5c1.957-2.397 6.522-4.5 6.522-4.5z" fill="#3dcf6f"/><rect fill="#3dcf6f" height="18" rx="9" width="18" x="128" y="321"/><rect fill="#fff" height="12" rx="6" width="12" x="131" y="324"/><rect fill="#ff4d00" height="247" rx="32" width="196" x="332" y="35"/><g fill="#fff"><path d="m423.523 97.0934h7.468v17.3996c0 2.562 3.19 3.77 4.882 1.837l18.294-20.7833c1.595-1.8125.314-4.64-2.103-4.64h-7.467v-17.4c0-2.5617-3.19-3.77-4.882-1.8367l-18.294 20.7834c-1.571 1.8125-.29 4.64 2.102 4.64z"/><path d="m421.542 76.4791h-16.917c-.991 0-1.813-.8216-1.813-1.8125 0-.9908.822-1.8125 1.813-1.8125h16.917c.99 0 1.812.8217 1.812 1.8125 0 .9909-.822 1.8125-1.812 1.8125z"/><path d="m419.125 115.146h-14.5c-.991 0-1.813-.822-1.813-1.813 0-.99.822-1.812 1.813-1.812h14.5c.991 0 1.813.822 1.813 1.812 0 .991-.822 1.813-1.813 1.813z"/><path d="m411.875 95.8125h-7.25c-.991 0-1.813-.8217-1.813-1.8125s.822-1.8125 1.813-1.8125h7.25c.991 0 1.813.8217 1.813 1.8125s-.822 1.8125-1.813 1.8125z"/></g><rect height="24" rx="12" stroke="#fff" stroke-opacity=".35" width="59" x="400.5" y="173.5"/><path d="m410.97 190v-8.727h1.581v7.402h3.844v1.325zm9.267.128c-.657 0-1.223-.137-1.701-.409-.474-.276-.839-.665-1.095-1.168-.256-.506-.383-1.101-.383-1.785 0-.674.127-1.265.383-1.773.259-.511.619-.909 1.082-1.193.464-.287 1.008-.431 1.633-.431.403 0 .784.066 1.142.196.36.128.679.327.954.597.279.27.497.614.656 1.031.159.415.239.909.239 1.483v.473h-5.365v-1.04h3.886c-.003-.295-.066-.558-.191-.788-.125-.233-.3-.416-.525-.55-.221-.133-.48-.2-.775-.2-.315 0-.592.077-.831.23-.239.151-.425.35-.558.597-.131.244-.198.513-.201.805v.908c0 .38.07.707.209.98.139.27.334.477.584.622.25.142.543.213.878.213.224 0 .427-.031.609-.094.182-.065.34-.16.473-.285.134-.125.235-.28.303-.465l1.44.162c-.091.381-.264.713-.52.997-.253.282-.576.5-.971.657-.395.153-.847.23-1.355.23zm9.514-6.673-2.331 6.545h-1.704l-2.331-6.545h1.645l1.504 4.862h.068l1.509-4.862zm3.383 6.673c-.657 0-1.223-.137-1.701-.409-.474-.276-.839-.665-1.095-1.168-.255-.506-.383-1.101-.383-1.785 0-.674.128-1.265.383-1.773.259-.511.62-.909 1.083-1.193.463-.287 1.007-.431 1.632-.431.403 0 .784.066 1.142.196.361.128.679.327.954.597.279.27.497.614.657 1.031.159.415.238.909.238 1.483v.473h-5.365v-1.04h3.887c-.003-.295-.067-.558-.192-.788-.125-.233-.3-.416-.524-.55-.222-.133-.481-.2-.776-.2-.315 0-.592.077-.831.23-.239.151-.425.35-.558.597-.131.244-.198.513-.2.805v.908c0 .38.069.707.208.98.14.27.334.477.584.622.25.142.543.213.878.213.224 0 .428-.031.609-.094.182-.065.34-.16.473-.285.134-.125.235-.28.303-.465l1.44.162c-.091.381-.264.713-.52.997-.252.282-.576.5-.971.657-.395.153-.847.23-1.355.23zm3.855-8.855h1.543v6.852c0 .244.037.419.111.524s.204.155.392.149c.102-.003.179-.008.23-.017.054-.011.102-.022.145-.034l.255 1.168c-.091.028-.204.055-.341.081-.133.025-.298.041-.494.047-.625.017-1.088-.114-1.389-.392-.301-.279-.452-.704-.452-1.275zm5.527 7.108v-1.257l3.337-5.851h1.53l-3.26 5.74v.068h5.182v1.3zm4.164 1.619v-1.99l.034-.575v-2.89h1.453v5.455z" fill="#fff" opacity=".7"/><path d="m393.481 219.22h11.664v12.78h-2.412v-10.62h-6.84v10.62h-2.412zm18.175 3.438c.696 0 1.338.12 1.926.36.588.228 1.092.558 1.512.99.42.42.744.936.972 1.548.24.6.36 1.272.36 2.016v.252h-7.236c.024.36.102.69.234.99.144.3.33.564.558.792s.498.408.81.54c.312.12.66.18 1.044.18.36 0 .672-.036.936-.108.264-.084.48-.18.648-.288.18-.108.318-.216.414-.324.108-.12.18-.21.216-.27h2.268c-.036.24-.144.528-.324.864-.18.324-.45.636-.81.936s-.816.558-1.368.774-1.212.324-1.98.324c-.744 0-1.422-.12-2.034-.36-.6-.24-1.116-.576-1.548-1.008s-.768-.936-1.008-1.512c-.24-.588-.36-1.224-.36-1.908 0-.708.114-1.356.342-1.944.24-.588.57-1.092.99-1.512.432-.42.936-.744 1.512-.972.588-.24 1.23-.36 1.926-.36zm0 1.782c-.624 0-1.146.162-1.566.486-.408.312-.684.75-.828 1.314h4.752c-.168-.576-.456-1.02-.864-1.332s-.906-.468-1.494-.468zm8.443 11.376h-2.268v-12.924h2.286v1.44c.036-.084.126-.216.27-.396.156-.18.36-.36.612-.54.264-.192.582-.354.954-.486.372-.144.804-.216 1.296-.216.588 0 1.146.108 1.674.324s.984.528 1.368.936c.396.408.708.906.936 1.494s.342 1.254.342 1.998-.114 1.41-.342 1.998-.54 1.086-.936 1.494c-.384.408-.84.72-1.368.936s-1.086.324-1.674.324c-.492 0-.924-.066-1.296-.198s-.69-.282-.954-.45c-.264-.18-.468-.354-.612-.522-.144-.18-.24-.318-.288-.414zm-.018-8.37c0 .384.06.744.18 1.08s.294.63.522.882c.228.24.498.432.81.576.312.132.666.198 1.062.198s.75-.066 1.062-.198c.324-.144.6-.336.828-.576.228-.252.402-.546.522-.882s.18-.696.18-1.08c0-.396-.06-.756-.18-1.08-.12-.336-.294-.624-.522-.864-.228-.252-.504-.444-.828-.576-.312-.144-.666-.216-1.062-.216s-.75.072-1.062.216c-.312.132-.582.324-.81.576-.228.24-.402.528-.522.864-.12.324-.18.684-.18 1.08zm8.978-4.554h5.292c.468 0 .894.054 1.278.162.384.096.714.246.99.45.288.204.51.456.666.756s.234.648.234 1.044c0 .276-.042.528-.126.756-.072.216-.174.408-.306.576-.132.156-.282.294-.45.414-.168.108-.336.186-.504.234.216.06.42.15.612.27.204.108.378.246.522.414.156.168.282.372.378.612.096.228.144.492.144.792 0 .792-.3 1.428-.9 1.908s-1.434.72-2.502.72h-5.328zm2.286 1.746v1.908h2.646c.372 0 .672-.078.9-.234.24-.156.36-.408.36-.756 0-.3-.114-.528-.342-.684s-.534-.234-.918-.234zm0 3.582v2.034h2.736c.912 0 1.368-.36 1.368-1.08 0-.276-.108-.504-.324-.684s-.564-.27-1.044-.27zm13.213-2.502c.648 0 1.2.084 1.656.252.468.156.846.372 1.134.648s.498.606.63.99c.144.372.216.78.216 1.224 0 .408-.072.804-.216 1.188-.132.384-.342.726-.63 1.026-.288.288-.66.522-1.116.702-.456.168-1.008.252-1.656.252h-5.202v-9.108h2.286v2.826zm-2.898 1.872v2.556h2.556c1.092 0 1.638-.438 1.638-1.314 0-.384-.138-.684-.414-.9-.276-.228-.684-.342-1.224-.342zm7.902-4.698h2.304v9.108h-2.304zm4.381 0h2.268v6.102l4.572-6.102h2.286v9.108h-2.286v-6.12l-4.572 6.12h-2.268zm4.59-2.916c.348 0 .6-.114.756-.342s.234-.48.234-.756v-.306h1.818v.342c0 .384-.06.744-.18 1.08-.108.336-.276.63-.504.882-.228.24-.522.432-.882.576-.348.144-.762.216-1.242.216s-.9-.072-1.26-.216c-.348-.144-.636-.336-.864-.576-.228-.252-.402-.546-.522-.882-.108-.336-.162-.696-.162-1.08v-.342h1.818v.306c0 .276.078.528.234.756s.408.342.756.342zm-75.98 20.916h3.132l3.024 6.318 3.024-6.318h3.06v9.108h-2.232v-6.786l-3.186 6.822h-1.53l-3.168-6.768v6.732h-2.124zm14.323 0h2.268v6.102l4.572-6.102h2.286v9.108h-2.286v-6.12l-4.572 6.12h-2.268zm11.193 0h2.286v3.474h4.356v-3.474h2.286v9.108h-2.286v-3.672h-4.356v3.672h-2.286zm11.018 0h2.268v6.102l4.572-6.102h2.286v9.108h-2.286v-6.12l-4.572 6.12h-2.268zm11.14 2.682h5.994v2.124h-5.994zm12.997-2.43c.66 0 1.26.108 1.8.324.552.204 1.02.504 1.404.9.396.396.696.876.9 1.44.216.552.324 1.17.324 1.854 0 .672-.12 1.29-.36 1.854-.24.552-.576 1.032-1.008 1.44s-.948.726-1.548.954c-.6.216-1.26.324-1.98.324-.744 0-1.416-.114-2.016-.342s-1.116-.558-1.548-.99c-.42-.444-.75-.984-.99-1.62-.228-.636-.342-1.356-.342-2.16 0-.408.006-.786.018-1.134.024-.348.054-.768.09-1.26.072-.768.21-1.458.414-2.07.216-.624.528-1.158.936-1.602.42-.456.948-.834 1.584-1.134s1.41-.522 2.322-.666l3.618-.594v2.016l-3.582.576c-.564.096-1.044.222-1.44.378-.384.156-.708.366-.972.63-.264.252-.468.57-.612.954-.132.384-.222.846-.27 1.386.276-.444.684-.798 1.224-1.062.552-.264 1.23-.396 2.034-.396zm-.468 7.074c.42 0 .792-.066 1.116-.198s.594-.312.81-.54.378-.492.486-.792c.108-.312.162-.648.162-1.008 0-.348-.054-.672-.162-.972-.108-.312-.27-.582-.486-.81s-.486-.408-.81-.54-.696-.198-1.116-.198-.792.066-1.116.198-.594.312-.81.54-.378.498-.486.81c-.108.3-.162.624-.162.972 0 .36.054.696.162 1.008.108.3.27.564.486.792s.486.408.81.54.696.198 1.116.198zm10.681-7.56c.696 0 1.338.12 1.926.36.6.24 1.116.576 1.548 1.008.444.42.792.924 1.044 1.512.252.576.378 1.212.378 1.908s-.126 1.338-.378 1.926c-.252.576-.6 1.08-1.044 1.512-.432.42-.948.75-1.548.99-.588.24-1.23.36-1.926.36-.708 0-1.362-.12-1.962-.36-.588-.24-1.104-.57-1.548-.99-.444-.432-.792-.936-1.044-1.512-.24-.588-.36-1.23-.36-1.926s.12-1.332.36-1.908c.252-.588.6-1.092 1.044-1.512.444-.432.96-.768 1.548-1.008.6-.24 1.254-.36 1.962-.36zm0 7.524c.384 0 .732-.066 1.044-.198.324-.144.594-.336.81-.576.228-.252.402-.546.522-.882.132-.336.198-.696.198-1.08s-.066-.744-.198-1.08c-.12-.336-.294-.624-.522-.864-.216-.252-.486-.444-.81-.576-.312-.144-.66-.216-1.044-.216s-.738.072-1.062.216c-.312.144-.582.342-.81.594-.228.24-.408.528-.54.864-.12.324-.18.678-.18 1.062s.06.744.18 1.08c.132.324.312.612.54.864.228.24.498.432.81.576.324.144.678.216 1.062.216zm12.629-4.284c-.036-.06-.102-.156-.198-.288-.084-.132-.216-.264-.396-.396-.168-.144-.384-.264-.648-.36-.252-.108-.558-.162-.918-.162-.348 0-.672.072-.972.216-.288.144-.54.342-.756.594-.204.24-.366.528-.486.864-.108.336-.162.696-.162 1.08s.054.744.162 1.08c.12.336.282.63.486.882.216.24.468.432.756.576.3.144.63.216.99.216.372 0 .69-.048.954-.144.264-.108.48-.228.648-.36s.294-.264.378-.396c.096-.144.162-.246.198-.306h2.25c-.024.24-.12.546-.288.918-.156.36-.408.714-.756 1.062s-.804.648-1.368.9c-.552.24-1.236.36-2.052.36-.66 0-1.278-.114-1.854-.342-.564-.24-1.062-.57-1.494-.99-.42-.432-.75-.936-.99-1.512-.24-.588-.36-1.236-.36-1.944 0-.696.12-1.338.36-1.926s.57-1.092.99-1.512c.42-.432.912-.762 1.476-.99.576-.24 1.194-.36 1.854-.36.804 0 1.482.126 2.034.378.564.24 1.02.534 1.368.882.348.336.606.69.774 1.062.168.36.27.666.306.918zm9.822 0c-.036-.06-.102-.156-.198-.288-.084-.132-.216-.264-.396-.396-.168-.144-.384-.264-.648-.36-.252-.108-.558-.162-.918-.162-.348 0-.672.072-.972.216-.288.144-.54.342-.756.594-.204.24-.366.528-.486.864-.108.336-.162.696-.162 1.08s.054.744.162 1.08c.12.336.282.63.486.882.216.24.468.432.756.576.3.144.63.216.99.216.372 0 .69-.048.954-.144.264-.108.48-.228.648-.36s.294-.264.378-.396c.096-.144.162-.246.198-.306h2.25c-.024.24-.12.546-.288.918-.156.36-.408.714-.756 1.062s-.804.648-1.368.9c-.552.24-1.236.36-2.052.36-.66 0-1.278-.114-1.854-.342-.564-.24-1.062-.57-1.494-.99-.42-.432-.75-.936-.99-1.512-.24-.588-.36-1.236-.36-1.944 0-.696.12-1.338.36-1.926s.57-1.092.99-1.512c.42-.432.912-.762 1.476-.99.576-.24 1.194-.36 1.854-.36.804 0 1.482.126 2.034.378.564.24 1.02.534 1.368.882.348.336.606.69.774 1.062.168.36.27.666.306.918z" fill="#fff"/><path d="m445.947 281h-32s8.116 3.739 11.596 8c2.255 2.762 4.404 8 4.404 8s2.149-5.238 4.405-8c3.479-4.261 11.595-8 11.595-8z" fill="#ff4d00"/><rect fill="#ff4d00" height="30" rx="15" width="30" x="415" y="315"/><rect fill="#fff" height="20" rx="10" width="20" x="420" y="320"/><rect fill="#ededed" height="37" rx="12" width="94" x="676" y="260"/><path d="m704.417 278.5c0 2.99-2.427 5.417-5.417 5.417s-5.417-2.427-5.417-5.417 2.427-5.417 5.417-5.417 5.417 2.427 5.417 5.417z" stroke="#9e9e9e" stroke-linecap="round" stroke-linejoin="round"/><path d="m701.01 280.222-1.679-1.002c-.293-.173-.531-.59-.531-.931v-2.221" stroke="#9e9e9e" stroke-linecap="round" stroke-linejoin="round"/><path d="m714.669 283v-8.727h1.581v7.402h3.844v1.325zm9.267.128c-.657 0-1.223-.137-1.701-.409-.474-.276-.839-.665-1.095-1.168-.255-.506-.383-1.101-.383-1.785 0-.674.128-1.265.383-1.773.259-.511.62-.909 1.083-1.193.463-.287 1.007-.431 1.632-.431.403 0 .784.066 1.142.196.361.128.679.327.954.597.279.27.498.614.657 1.031.159.415.238.909.238 1.483v.473h-5.365v-1.04h3.887c-.003-.295-.067-.558-.192-.788-.125-.233-.3-.416-.524-.55-.222-.133-.48-.2-.776-.2-.315 0-.592.077-.831.23-.239.151-.425.35-.558.597-.131.244-.198.513-.2.805v.908c0 .38.069.707.208.98.14.27.334.477.584.622.25.142.543.213.878.213.224 0 .428-.031.609-.094.182-.065.34-.16.473-.285.134-.125.235-.28.303-.465l1.44.162c-.091.381-.264.713-.52.997-.252.282-.576.5-.971.657-.395.153-.847.23-1.355.23zm9.514-6.673-2.331 6.545h-1.704l-2.331-6.545h1.645l1.504 4.862h.068l1.509-4.862zm3.383 6.673c-.656 0-1.223-.137-1.7-.409-.475-.276-.84-.665-1.096-1.168-.255-.506-.383-1.101-.383-1.785 0-.674.128-1.265.383-1.773.259-.511.62-.909 1.083-1.193.463-.287 1.007-.431 1.632-.431.403 0 .784.066 1.142.196.361.128.679.327.955.597.278.27.497.614.656 1.031.159.415.238.909.238 1.483v.473h-5.365v-1.04h3.887c-.003-.295-.067-.558-.192-.788-.125-.233-.3-.416-.524-.55-.222-.133-.48-.2-.776-.2-.315 0-.592.077-.831.23-.238.151-.424.35-.558.597-.131.244-.197.513-.2.805v.908c0 .38.069.707.209.98.139.27.333.477.583.622.25.142.543.213.878.213.225 0 .428-.031.61-.094.181-.065.339-.16.473-.285.133-.125.234-.28.302-.465l1.441.162c-.091.381-.265.713-.52.997-.253.282-.577.5-.972.657-.395.153-.847.23-1.355.23zm3.855-8.855h1.543v6.852c0 .244.037.419.111.524s.204.155.392.149c.102-.003.179-.008.23-.017.054-.011.102-.022.145-.034l.256 1.168c-.091.028-.205.055-.341.081-.134.025-.299.041-.495.047-.625.017-1.088-.114-1.389-.392-.301-.279-.452-.704-.452-1.275zm8.719 8.846c-.568 0-1.076-.106-1.525-.319-.449-.216-.806-.512-1.07-.887-.261-.375-.4-.804-.417-1.287h1.534c.028.358.183.651.464.878.281.225.62.337 1.014.337.31 0 .586-.071.827-.213.242-.142.432-.34.571-.592.139-.253.208-.542.205-.866.003-.329-.067-.622-.209-.877-.142-.256-.337-.456-.584-.601-.247-.148-.531-.222-.852-.222-.262-.003-.519.046-.772.145-.252.099-.453.23-.6.392l-1.428-.234.456-4.5h5.063v1.321h-3.755l-.251 2.314h.051c.162-.191.391-.348.686-.473.296-.128.619-.192.972-.192.528 0 1 .125 1.414.375.415.247.742.588.981 1.023.238.434.357.931.357 1.491 0 .577-.133 1.091-.4 1.543-.264.449-.632.802-1.104 1.061-.469.255-1.011.383-1.628.383z" fill="#9e9e9e"/><path d="m732 296h-18s4.565 2.103 6.522 4.5c1.269 1.554 2.478 4.5 2.478 4.5s1.209-2.946 2.478-4.5c1.957-2.397 6.522-4.5 6.522-4.5z" fill="#ededed"/><rect fill="#ededed" height="18" rx="9" width="18" x="714" y="321"/><rect fill="#fff" height="12" rx="6" width="12" x="717" y="324"/></g><path d="m40 1h780c21.539 0 39 17.4609 39 39v300c0 21.539-17.461 39-39 39h-780c-21.5391 0-39-17.461-39-39v-300c0-21.5391 17.4609-39 39-39z" stroke="#000" stroke-opacity=".08" stroke-width="2"/></svg>