<svg fill="none" height="380" viewBox="0 0 860 380" width="860" xmlns="http://www.w3.org/2000/svg" xmlns:xlink="http://www.w3.org/1999/xlink"><clipPath id="a"><path d="m0 40c0-22.0914 17.9086-40 40-40h780c22.091 0 40 17.9086 40 40v300c0 22.091-17.909 40-40 40h-780c-22.0914 0-40-17.909-40-40z"/></clipPath><g clip-path="url(#a)"><path d="m0 40c0-22.0914 17.9086-40 40-40h780c22.091 0 40 17.9086 40 40v300c0 22.091-17.909 40-40 40h-780c-22.0914 0-40-17.909-40-40z" fill="#fff"/><path d="m430 330h3380" opacity=".1" stroke="#000" stroke-opacity=".5" stroke-width="5"/><rect fill="#ff4d00" height="247" rx="32" width="196" x="332" y="35"/><g fill="#fff"><path d="m443.364 83.7775c-.169-.0241-.338-.0241-.507 0-3.746-.1208-6.719-3.19-6.719-6.96 0-3.8425 3.118-6.9841 6.985-6.9841 3.842 0 6.984 3.1175 6.984 6.9841-.024 3.77-2.997 6.8392-6.743 6.96z"/><path d="m451.243 100.525c-2.707 1.812-6.501 2.489-10.005 2.03.918-1.982 1.401-4.1808 1.425-6.5008 0-2.4167-.531-4.7125-1.546-6.7184 3.576-.4833 7.371.1934 10.101 2.0059 3.819 2.5133 3.819 6.6458.025 9.1833z"/><path d="m416.563 83.7775c.169-.0241.339-.0241.508 0 3.746-.1208 6.718-3.19 6.718-6.96 0-3.8666-3.117-6.9841-6.984-6.9841-3.843 0-6.96 3.1175-6.96 6.9841 0 3.77 2.972 6.8392 6.718 6.96z"/><path d="m416.829 96.0543c0 2.3441.508 4.5677 1.426 6.5737-3.407.362-6.96-.363-9.57-2.079-3.818-2.5372-3.818-6.6697 0-9.2072 2.586-1.74 6.235-2.4409 9.667-2.0542-.991 2.03-1.523 4.3258-1.523 6.7667z"/><path d="m430.29 103.352c-.193-.024-.411-.024-.628 0-4.447-.145-7.999-3.7937-7.999-8.2887.024-4.5916 3.721-8.3133 8.337-8.3133 4.592 0 8.313 3.7217 8.313 8.3133-.024 4.495-3.552 8.1437-8.023 8.2887z"/><path d="m422.436 108.355c-3.649 2.441-3.649 6.453 0 8.869 4.157 2.779 10.972 2.779 15.128 0 3.649-2.441 3.649-6.452 0-8.869-4.132-2.779-10.947-2.779-15.128 0z"/></g><rect height="24" rx="12" stroke="#fff" stroke-opacity=".35" width="57" x="401.5" y="173.5"/><path d="m412.183 190v-8.727h1.581v7.402h3.844v1.325zm9.266.128c-.656 0-1.223-.137-1.7-.409-.474-.276-.839-.665-1.095-1.168-.256-.506-.384-1.101-.384-1.785 0-.674.128-1.265.384-1.773.258-.511.619-.909 1.082-1.193.463-.287 1.007-.431 1.632-.431.404 0 .785.066 1.142.196.361.128.679.327.955.597.278.27.497.614.656 1.031.159.415.239.909.239 1.483v.473h-5.365v-1.04h3.886c-.003-.295-.067-.558-.192-.788-.125-.233-.299-.416-.524-.55-.221-.133-.48-.2-.775-.2-.316 0-.593.077-.831.23-.239.151-.425.35-.558.597-.131.244-.198.513-.201.805v.908c0 .38.07.707.209.98.139.27.334.477.584.622.25.142.542.213.878.213.224 0 .427-.031.609-.094.182-.065.34-.16.473-.285.134-.125.234-.28.303-.465l1.44.162c-.091.381-.264.713-.52.997-.253.282-.577.5-.971.657-.395.153-.847.23-1.356.23zm9.515-6.673-2.331 6.545h-1.704l-2.331-6.545h1.644l1.505 4.862h.068l1.508-4.862zm3.383 6.673c-.657 0-1.223-.137-1.701-.409-.474-.276-.839-.665-1.095-1.168-.256-.506-.383-1.101-.383-1.785 0-.674.127-1.265.383-1.773.259-.511.619-.909 1.083-1.193.463-.287 1.007-.431 1.632-.431.403 0 .784.066 1.142.196.36.128.679.327.954.597.279.27.497.614.656 1.031.16.415.239.909.239 1.483v.473h-5.365v-1.04h3.886c-.002-.295-.066-.558-.191-.788-.125-.233-.3-.416-.525-.55-.221-.133-.48-.2-.775-.2-.315 0-.592.077-.831.23-.239.151-.425.35-.558.597-.131.244-.198.513-.201.805v.908c0 .38.07.707.209.98.139.27.334.477.584.622.25.142.543.213.878.213.224 0 .427-.031.609-.094.182-.065.34-.16.473-.285.134-.125.235-.28.303-.465l1.44.162c-.091.381-.264.713-.52.997-.253.282-.576.5-.971.657-.395.153-.847.23-1.355.23zm3.855-8.855h1.543v6.852c0 .244.037.419.111.524.073.105.204.155.392.149.102-.003.179-.008.23-.017.054-.011.102-.022.145-.034l.255 1.168c-.091.028-.204.055-.341.081-.133.025-.298.041-.494.047-.625.017-1.088-.114-1.389-.392-.301-.279-.452-.704-.452-1.275zm9.026 0v8.727h-1.585v-6.707h-.073c-.057.088-.165.183-.324.285-.159.1-.363.185-.613.256-.247.071-.536.106-.865.106v-1.278c.301 0 .569-.053.805-.158s.436-.236.601-.392c.168-.156.297-.311.388-.464.091-.154.14-.279.149-.375z" fill="#fff" opacity=".7"/><path d="m401.442 219.22h6.84c1.392 0 2.454.306 3.186.918s1.098 1.458 1.098 2.538c0 .348-.054.666-.162.954-.108.276-.252.522-.432.738s-.39.402-.63.558c-.228.144-.462.258-.702.342.3.096.582.234.846.414.264.168.498.384.702.648.204.252.366.546.486.882s.18.714.18 1.134c0 1.116-.378 2.004-1.134 2.664-.744.66-1.854.99-3.33.99h-6.948zm2.376 2.052v3.132h4.194c1.38 0 2.07-.522 2.07-1.566 0-.54-.174-.936-.522-1.188s-.864-.378-1.548-.378zm0 5.166v3.51h4.284c.78 0 1.356-.15 1.728-.45s.558-.738.558-1.314c0-1.164-.762-1.746-2.286-1.746zm15.929-.72c.648 0 1.2.084 1.656.252.468.156.846.372 1.134.648s.498.606.63.99c.144.372.216.78.216 1.224 0 .408-.072.804-.216 1.188-.132.384-.342.726-.63 1.026-.288.288-.66.522-1.116.702-.456.168-1.008.252-1.656.252h-5.202v-9.108h2.286v2.826zm-2.898 1.872v2.556h2.556c1.092 0 1.638-.438 1.638-1.314 0-.384-.138-.684-.414-.9-.276-.228-.684-.342-1.224-.342zm7.902-4.698h2.304v9.108h-2.304zm9.258.252c.66 0 1.26.108 1.8.324.552.204 1.02.504 1.404.9.396.396.696.876.9 1.44.216.552.324 1.17.324 1.854 0 .672-.12 1.29-.36 1.854-.24.552-.576 1.032-1.008 1.44s-.948.726-1.548.954c-.6.216-1.26.324-1.98.324-.744 0-1.416-.114-2.016-.342s-1.116-.558-1.548-.99c-.42-.444-.75-.984-.99-1.62-.228-.636-.342-1.356-.342-2.16 0-.408.006-.786.018-1.134.024-.348.054-.768.09-1.26.072-.768.21-1.458.414-2.07.216-.624.528-1.158.936-1.602.42-.456.948-.834 1.584-1.134s1.41-.522 2.322-.666l3.618-.594v2.016l-3.582.576c-.564.096-1.044.222-1.44.378-.384.156-.708.366-.972.63-.264.252-.468.57-.612.954-.132.384-.222.846-.27 1.386.276-.444.684-.798 1.224-1.062.552-.264 1.23-.396 2.034-.396zm-.468 7.074c.42 0 .792-.066 1.116-.198s.594-.312.81-.54.378-.492.486-.792c.108-.312.162-.648.162-1.008 0-.348-.054-.672-.162-.972-.108-.312-.27-.582-.486-.81s-.486-.408-.81-.54-.696-.198-1.116-.198-.792.066-1.116.198-.594.312-.81.54-.378.498-.486.81c-.108.3-.162.624-.162.972 0 .36.054.696.162 1.008.108.3.27.564.486.792s.486.408.81.54.696.198 1.116.198zm10.682-7.56c.696 0 1.338.12 1.926.36.6.24 1.116.576 1.548 1.008.444.42.792.924 1.044 1.512.252.576.378 1.212.378 1.908s-.126 1.338-.378 1.926c-.252.576-.6 1.08-1.044 1.512-.432.42-.948.75-1.548.99-.588.24-1.23.36-1.926.36-.708 0-1.362-.12-1.962-.36-.588-.24-1.104-.57-1.548-.99-.444-.432-.792-.936-1.044-1.512-.24-.588-.36-1.23-.36-1.926s.12-1.332.36-1.908c.252-.588.6-1.092 1.044-1.512.444-.432.96-.768 1.548-1.008.6-.24 1.254-.36 1.962-.36zm0 7.524c.384 0 .732-.066 1.044-.198.324-.144.594-.336.81-.576.228-.252.402-.546.522-.882.132-.336.198-.696.198-1.08s-.066-.744-.198-1.08c-.12-.336-.294-.624-.522-.864-.216-.252-.486-.444-.81-.576-.312-.144-.66-.216-1.044-.216s-.738.072-1.062.216c-.312.144-.582.342-.81.594-.228.24-.408.528-.54.864-.12.324-.18.678-.18 1.062s.06.744.18 1.08c.132.324.312.612.54.864.228.24.498.432.81.576.324.144.678.216 1.062.216zm8.632 5.634h-2.268v-12.924h2.286v1.44c.036-.084.126-.216.27-.396.156-.18.36-.36.612-.54.264-.192.582-.354.954-.486.372-.144.804-.216 1.296-.216.588 0 1.146.108 1.674.324s.984.528 1.368.936c.396.408.708.906.936 1.494s.342 1.254.342 1.998-.114 1.41-.342 1.998-.54 1.086-.936 1.494c-.384.408-.84.72-1.368.936s-1.086.324-1.674.324c-.492 0-.924-.066-1.296-.198s-.69-.282-.954-.45c-.264-.18-.468-.354-.612-.522-.144-.18-.24-.318-.288-.414zm-.018-8.37c0 .384.06.744.18 1.08s.294.63.522.882c.228.24.498.432.81.576.312.132.666.198 1.062.198s.75-.066 1.062-.198c.324-.144.6-.336.828-.576.228-.252.402-.546.522-.882s.18-.696.18-1.08c0-.396-.06-.756-.18-1.08-.12-.336-.294-.624-.522-.864-.228-.252-.504-.444-.828-.576-.312-.144-.666-.216-1.062-.216s-.75.072-1.062.216c-.312.132-.582.324-.81.576-.228.24-.402.528-.522.864-.12.324-.18.684-.18 1.08zm-71.26 13.446h8.748v9.108h-2.286v-7.146h-4.176v7.146h-2.286zm15.001-.234c.696 0 1.338.12 1.926.36.588.228 1.092.558 1.512.99.42.42.744.936.972 1.548.24.6.36 1.272.36 2.016v.252h-7.236c.024.36.102.69.234.99.144.3.33.564.558.792s.498.408.81.54c.312.12.66.18 1.044.18.36 0 .672-.036.936-.108.264-.084.48-.18.648-.288.18-.108.318-.216.414-.324.108-.12.18-.21.216-.27h2.268c-.036.24-.144.528-.324.864-.18.324-.45.636-.81.936s-.816.558-1.368.774-1.212.324-1.98.324c-.744 0-1.422-.12-2.034-.36-.6-.24-1.116-.576-1.548-1.008s-.768-.936-1.008-1.512c-.24-.588-.36-1.224-.36-1.908 0-.708.114-1.356.342-1.944.24-.588.57-1.092.99-1.512.432-.42.936-.744 1.512-.972.588-.24 1.23-.36 1.926-.36zm0 1.782c-.624 0-1.146.162-1.566.486-.408.312-.684.75-.828 1.314h4.752c-.168-.576-.456-1.02-.864-1.332s-.906-.468-1.494-.468zm8.442 11.376h-2.268v-12.924h2.286v1.44c.036-.084.126-.216.27-.396.156-.18.36-.36.612-.54.264-.192.582-.354.954-.486.372-.144.804-.216 1.296-.216.588 0 1.146.108 1.674.324s.984.528 1.368.936c.396.408.708.906.936 1.494s.342 1.254.342 1.998-.114 1.41-.342 1.998-.54 1.086-.936 1.494c-.384.408-.84.72-1.368.936s-1.086.324-1.674.324c-.492 0-.924-.066-1.296-.198s-.69-.282-.954-.45c-.264-.18-.468-.354-.612-.522-.144-.18-.24-.318-.288-.414zm-.018-8.37c0 .384.06.744.18 1.08s.294.63.522.882c.228.24.498.432.81.576.312.132.666.198 1.062.198s.75-.066 1.062-.198c.324-.144.6-.336.828-.576.228-.252.402-.546.522-.882s.18-.696.18-1.08c0-.396-.06-.756-.18-1.08-.12-.336-.294-.624-.522-.864-.228-.252-.504-.444-.828-.576-.312-.144-.666-.216-1.062-.216s-.75.072-1.062.216c-.312.132-.582.324-.81.576-.228.24-.402.528-.522.864-.12.324-.18.684-.18 1.08zm15.243-1.548c-.036-.06-.102-.156-.198-.288-.084-.132-.216-.264-.396-.396-.168-.144-.384-.264-.648-.36-.252-.108-.558-.162-.918-.162-.348 0-.672.072-.972.216-.288.144-.54.342-.756.594-.204.24-.366.528-.486.864-.108.336-.162.696-.162 1.08s.054.744.162 1.08c.12.336.282.63.486.882.216.24.468.432.756.576.3.144.63.216.99.216.372 0 .69-.048.954-.144.264-.108.48-.228.648-.36s.294-.264.378-.396c.096-.144.162-.246.198-.306h2.25c-.024.24-.12.546-.288.918-.156.36-.408.714-.756 1.062s-.804.648-1.368.9c-.552.24-1.236.36-2.052.36-.66 0-1.278-.114-1.854-.342-.564-.24-1.062-.57-1.494-.99-.42-.432-.75-.936-.99-1.512-.24-.588-.36-1.236-.36-1.944 0-.696.12-1.338.36-1.926s.57-1.092.99-1.512c.42-.432.912-.762 1.476-.99.576-.24 1.194-.36 1.854-.36.804 0 1.482.126 2.034.378.564.24 1.02.534 1.368.882.348.336.606.69.774 1.062.168.36.27.666.306.918zm7.861-3.24c.696 0 1.338.12 1.926.36.6.24 1.116.576 1.548 1.008.444.42.792.924 1.044 1.512.252.576.378 1.212.378 1.908s-.126 1.338-.378 1.926c-.252.576-.6 1.08-1.044 1.512-.432.42-.948.75-1.548.99-.588.24-1.23.36-1.926.36-.708 0-1.362-.12-1.962-.36-.588-.24-1.104-.57-1.548-.99-.444-.432-.792-.936-1.044-1.512-.24-.588-.36-1.23-.36-1.926s.12-1.332.36-1.908c.252-.588.6-1.092 1.044-1.512.444-.432.96-.768 1.548-1.008.6-.24 1.254-.36 1.962-.36zm0 7.524c.384 0 .732-.066 1.044-.198.324-.144.594-.336.81-.576.228-.252.402-.546.522-.882.132-.336.198-.696.198-1.08s-.066-.744-.198-1.08c-.12-.336-.294-.624-.522-.864-.216-.252-.486-.444-.81-.576-.312-.144-.66-.216-1.044-.216s-.738.072-1.062.216c-.312.144-.582.342-.81.594-.228.24-.408.528-.54.864-.12.324-.18.678-.18 1.062s.06.744.18 1.08c.132.324.312.612.54.864.228.24.498.432.81.576.324.144.678.216 1.062.216zm6.364-7.29h2.286v3.474h4.356v-3.474h2.286v9.108h-2.286v-3.672h-4.356v3.672h-2.286zm10.388 6.228c0-.924.324-1.626.972-2.106s1.536-.72 2.664-.72h2.988c0-.552-.198-.99-.594-1.314-.384-.324-.912-.486-1.584-.486-.312 0-.582.036-.81.108s-.42.162-.576.27c-.144.096-.258.198-.342.306-.072.096-.126.174-.162.234h-2.322c.048-.24.156-.516.324-.828.18-.324.438-.624.774-.9.336-.288.756-.528 1.26-.72.516-.204 1.134-.306 1.854-.306.708 0 1.332.09 1.872.27.552.168 1.014.414 1.386.738s.654.708.846 1.152.288.936.288 1.476v3.078c0 .276.054.48.162.612.108.12.294.192.558.216v1.854h-.72c-1.164-.024-1.872-.444-2.124-1.26-.108.168-.252.336-.432.504-.18.156-.39.306-.63.45-.24.132-.516.24-.828.324s-.666.126-1.062.126c-.54 0-1.038-.072-1.494-.216s-.852-.348-1.188-.612c-.336-.276-.6-.6-.792-.972-.192-.384-.288-.81-.288-1.278zm4.248 1.368c.324 0 .63-.036.918-.108.288-.084.54-.204.756-.36s.384-.348.504-.576c.132-.24.198-.51.198-.81v-.774h-2.61c-.54 0-.966.102-1.278.306-.312.192-.468.498-.468.918 0 .444.186.792.558 1.044.372.24.846.36 1.422.36zm11.812-2.484-3.798 3.996h-2.934l4.464-4.68-4.284-4.428h2.934l3.618 3.762v-3.762h2.196v3.744l3.6-3.744h2.916l-4.23 4.374 4.5 4.734h-3.006l-3.78-3.978v3.978h-2.196zm8.771 1.116c0-.924.324-1.626.972-2.106s1.536-.72 2.664-.72h2.988c0-.552-.198-.99-.594-1.314-.384-.324-.912-.486-1.584-.486-.312 0-.582.036-.81.108s-.42.162-.576.27c-.144.096-.258.198-.342.306-.072.096-.126.174-.162.234h-2.322c.048-.24.156-.516.324-.828.18-.324.438-.624.774-.9.336-.288.756-.528 1.26-.72.516-.204 1.134-.306 1.854-.306.708 0 1.332.09 1.872.27.552.168 1.014.414 1.386.738s.654.708.846 1.152.288.936.288 1.476v3.078c0 .276.054.48.162.612.108.12.294.192.558.216v1.854h-.72c-1.164-.024-1.872-.444-2.124-1.26-.108.168-.252.336-.432.504-.18.156-.39.306-.63.45-.24.132-.516.24-.828.324s-.666.126-1.062.126c-.54 0-1.038-.072-1.494-.216s-.852-.348-1.188-.612c-.336-.276-.6-.6-.792-.972-.192-.384-.288-.81-.288-1.278zm4.248 1.368c.324 0 .63-.036.918-.108.288-.084.54-.204.756-.36s.384-.348.504-.576c.132-.24.198-.51.198-.81v-.774h-2.61c-.54 0-.966.102-1.278.306-.312.192-.468.498-.468.918 0 .444.186.792.558 1.044.372.24.846.36 1.422.36z" fill="#fff"/><path d="m445.947 281h-32s8.116 3.739 11.596 8c2.255 2.762 4.404 8 4.404 8s2.149-5.238 4.405-8c3.479-4.261 11.595-8 11.595-8z" fill="#ff4d00"/><rect fill="#ff4d00" height="30" rx="15" width="30" x="415" y="315"/><rect fill="#fff" height="20" rx="10" width="20" x="420" y="320"/><rect fill="#ededed" height="37" rx="12" width="94" x="676" y="260"/><path d="m704.417 278.5c0 2.99-2.427 5.417-5.417 5.417s-5.417-2.427-5.417-5.417 2.427-5.417 5.417-5.417 5.417 2.427 5.417 5.417z" stroke="#9e9e9e" stroke-linecap="round" stroke-linejoin="round"/><path d="m701.01 280.222-1.68-1.002c-.292-.173-.53-.59-.53-.931v-2.221" stroke="#9e9e9e" stroke-linecap="round" stroke-linejoin="round"/><path d="m714.74 283v-8.727h1.581v7.402h3.843v1.325zm9.266.128c-.656 0-1.223-.137-1.7-.409-.475-.276-.84-.665-1.095-1.168-.256-.506-.384-1.101-.384-1.785 0-.674.128-1.265.384-1.773.258-.511.619-.909 1.082-1.193.463-.287 1.007-.431 1.632-.431.403 0 .784.066 1.142.196.361.128.679.327.955.597.278.27.497.614.656 1.031.159.415.239.909.239 1.483v.473h-5.366v-1.04h3.887c-.003-.295-.067-.558-.192-.788-.125-.233-.3-.416-.524-.55-.222-.133-.48-.2-.776-.2-.315 0-.592.077-.831.23-.238.151-.424.35-.558.597-.131.244-.197.513-.2.805v.908c0 .38.069.707.209.98.139.27.334.477.584.622.25.142.542.213.877.213.225 0 .428-.031.61-.094.182-.065.339-.16.473-.285.133-.125.234-.28.302-.465l1.441.162c-.091.381-.265.713-.52.997-.253.282-.577.5-.972.657-.395.153-.846.23-1.355.23zm9.515-6.673-2.331 6.545h-1.705l-2.331-6.545h1.645l1.504 4.862h.069l1.508-4.862zm3.382 6.673c-.656 0-1.223-.137-1.7-.409-.474-.276-.84-.665-1.095-1.168-.256-.506-.384-1.101-.384-1.785 0-.674.128-1.265.384-1.773.258-.511.619-.909 1.082-1.193.463-.287 1.007-.431 1.632-.431.404 0 .784.066 1.142.196.361.128.679.327.955.597.278.27.497.614.656 1.031.159.415.239.909.239 1.483v.473h-5.365v-1.04h3.886c-.003-.295-.067-.558-.192-.788-.125-.233-.299-.416-.524-.55-.221-.133-.48-.2-.775-.2-.316 0-.593.077-.831.23-.239.151-.425.35-.559.597-.13.244-.197.513-.2.805v.908c0 .38.07.707.209.98.139.27.334.477.584.622.25.142.542.213.878.213.224 0 .427-.031.609-.094.182-.065.339-.16.473-.285.133-.125.234-.28.302-.465l1.441.162c-.091.381-.264.713-.52.997-.253.282-.577.5-.972.657-.395.153-.846.23-1.355.23zm3.856-8.855h1.542v6.852c0 .244.037.419.111.524s.205.155.392.149c.103-.003.179-.008.23-.017.054-.011.103-.022.145-.034l.256 1.168c-.091.028-.205.055-.341.081-.134.025-.298.041-.494.047-.625.017-1.088-.114-1.39-.392-.301-.279-.451-.704-.451-1.275zm5.685 8.727v-1.142l3.029-2.97c.29-.293.532-.553.725-.78s.338-.447.435-.661c.096-.213.144-.44.144-.681 0-.276-.062-.512-.187-.708-.125-.199-.297-.352-.516-.46-.218-.108-.467-.162-.745-.162-.287 0-.539.06-.755.179-.216.117-.383.283-.503.499-.116.216-.174.473-.174.771h-1.505c0-.554.127-1.036.38-1.445s.601-.726 1.044-.95c.446-.224.957-.337 1.534-.337.585 0 1.099.11 1.542.329.444.218.787.518 1.032.899.247.38.37.815.37 1.304 0 .326-.062.647-.187.963-.125.315-.345.664-.661 1.048-.312.384-.751.848-1.316 1.393l-1.505 1.53v.06h3.802v1.321z" fill="#9e9e9e"/><path d="m732 296h-18s4.565 2.103 6.522 4.5c1.269 1.554 2.478 4.5 2.478 4.5s1.209-2.946 2.478-4.5c1.957-2.397 6.522-4.5 6.522-4.5z" fill="#ededed"/><rect fill="#ededed" height="18" rx="9" width="18" x="714" y="321"/><rect fill="#fff" height="12" rx="6" width="12" x="717" y="324"/></g><path d="m40 1h780c21.539 0 39 17.4609 39 39v300c0 21.539-17.461 39-39 39h-780c-21.5391 0-39-17.461-39-39v-300c0-21.5391 17.4609-39 39-39z" stroke="#000" stroke-opacity=".08" stroke-width="2"/></svg>