<svg width="1080" height="1100" viewBox="0 0 1080 1100" fill="none" xmlns="http://www.w3.org/2000/svg">
<rect width="1080" height="1100" fill="white"/>
<path d="M915.587 49L912.911 64.8629H915.891L914.181 75H908.668L909.483 70.1698H895.329L894.514 75H889L890.71 64.8629H892.824C893.79 63.5513 894.707 61.8209 895.74 58.1838L898.364 49H915.59H915.587ZM908.584 54.3069H902.535L901.369 58.3918C900.354 61.9393 899.515 63.5484 898.667 64.8629H906.805L908.584 54.3069Z" fill="#EAECEF"/>
<path d="M920.448 49H933.56C938.18 49 940.257 51.3544 939.681 54.7547C939.314 56.93 937.677 58.3311 936.141 58.958C937.818 59.6138 939.146 61.2836 938.663 64.1464C938.05 67.7836 935.085 70.1698 930.167 70.1698H916.875L920.448 49ZM924.295 61.7024L923.67 65.4002H929.69C931.298 65.4002 932.293 64.8051 932.504 63.5513C932.721 62.2687 931.923 61.7024 930.312 61.7024H924.292H924.295ZM925.631 53.7724L925.099 56.9329H931.029C932.282 56.9329 933.161 56.4851 933.352 55.3527C933.543 54.2202 932.814 53.7724 931.561 53.7724H925.631Z" fill="#EAECEF"/>
<path d="M943.47 49H949.579L947.427 61.7602L958.906 49H965.015L961.445 70.1698H955.336L957.479 57.4673L946.01 70.1698H939.9L943.47 49Z" fill="#EAECEF"/>
<path d="M974.098 59.1978L966.907 49H973.821L979.812 57.6464L981.272 49H987.084L985.626 57.6464L994.536 49H1001.3L990.954 58.9291L998.177 70.1698H990.815L985.039 61.1362L983.514 70.1698H977.703L979.227 61.1362L970.402 70.1698H963.309L974.101 59.1978H974.098Z" fill="#EAECEF"/>
<path d="M1010.23 49H1003.13L1010.19 58.9291L999.713 70.1698H1006.81L1017.29 58.9291L1010.23 49ZM1021.44 49H1014.34L1021.41 58.9291L1010.93 70.1698H1018.02L1028.5 58.9291L1021.44 49ZM1032.94 49H1025.85L1032.91 58.9291L1022.43 70.1698H1029.52L1040 58.9291L1032.94 49Z" fill="#EAECEF"/>
<path d="M64.5327 48.8182V75H59.0611V53.3182H48.4759V75H43.0043V48.8182H64.5327ZM68.2606 82.3636V55.3636H73.63V58.6619H73.8729C74.1115 58.1335 74.4567 57.5966 74.9084 57.0511C75.3686 56.4972 75.9652 56.0369 76.6981 55.6705C77.4396 55.2955 78.3601 55.108 79.4595 55.108C80.8913 55.108 82.2123 55.483 83.4226 56.233C84.6328 56.9744 85.6001 58.0952 86.3246 59.5952C87.049 61.0866 87.4112 62.9574 87.4112 65.2074C87.4112 67.3977 87.0575 69.2472 86.3501 70.7557C85.6513 72.2557 84.6967 73.3935 83.4865 74.169C82.2848 74.9361 80.9382 75.3196 79.4467 75.3196C78.3899 75.3196 77.4908 75.1449 76.7493 74.7955C76.0163 74.446 75.4155 74.0071 74.9467 73.4787C74.478 72.9418 74.12 72.4006 73.8729 71.8551H73.7067V82.3636H68.2606ZM73.5916 65.1818C73.5916 66.3494 73.7535 67.3679 74.0774 68.2372C74.4013 69.1065 74.87 69.7841 75.4837 70.2699C76.0973 70.7472 76.843 70.9858 77.7209 70.9858C78.6072 70.9858 79.3572 70.7429 79.9709 70.2571C80.5845 69.7628 81.049 69.081 81.3643 68.2116C81.6882 67.3338 81.8501 66.3239 81.8501 65.1818C81.8501 64.0483 81.6925 63.0511 81.3771 62.1903C81.0618 61.3295 80.5973 60.6562 79.9837 60.1705C79.37 59.6847 78.6158 59.4418 77.7209 59.4418C76.8345 59.4418 76.0845 59.6761 75.4709 60.1449C74.8658 60.6136 74.4013 61.2784 74.0774 62.1392C73.7535 63 73.5916 64.0142 73.5916 65.1818ZM98.474 75.3835C96.4883 75.3835 94.7709 74.9616 93.3221 74.1179C91.8817 73.2656 90.7695 72.081 89.9854 70.5639C89.2013 69.0384 88.8093 67.2699 88.8093 65.2585C88.8093 63.2301 89.2013 61.4574 89.9854 59.9403C90.7695 58.4148 91.8817 57.2301 93.3221 56.3864C94.7709 55.5341 96.4883 55.108 98.474 55.108C100.46 55.108 102.173 55.5341 103.613 56.3864C105.062 57.2301 106.179 58.4148 106.963 59.9403C107.747 61.4574 108.139 63.2301 108.139 65.2585C108.139 67.2699 107.747 69.0384 106.963 70.5639C106.179 72.081 105.062 73.2656 103.613 74.1179C102.173 74.9616 100.46 75.3835 98.474 75.3835ZM98.4996 71.1648C99.403 71.1648 100.157 70.9091 100.762 70.3977C101.368 69.8778 101.823 69.1705 102.13 68.2756C102.446 67.3807 102.603 66.3622 102.603 65.2202C102.603 64.0781 102.446 63.0597 102.13 62.1648C101.823 61.2699 101.368 60.5625 100.762 60.0426C100.157 59.5227 99.403 59.2628 98.4996 59.2628C97.5877 59.2628 96.8206 59.5227 96.1985 60.0426C95.5848 60.5625 95.1204 61.2699 94.805 62.1648C94.4982 63.0597 94.3448 64.0781 94.3448 65.2202C94.3448 66.3622 94.4982 67.3807 94.805 68.2756C95.1204 69.1705 95.5848 69.8778 96.1985 70.3977C96.8206 70.9091 97.5877 71.1648 98.4996 71.1648ZM127.409 55.3636V71.2415H130.541V81.3153H125.249V75H110.24V55.3636H115.443V70.7173H122.27V55.3636H127.409ZM141.198 75.3835C139.178 75.3835 137.44 74.9744 135.982 74.1562C134.533 73.3295 133.417 72.1619 132.633 70.6534C131.849 69.1364 131.457 67.3423 131.457 65.2713C131.457 63.2514 131.849 61.4787 132.633 59.9531C133.417 58.4276 134.521 57.2386 135.944 56.3864C137.376 55.5341 139.055 55.108 140.981 55.108C142.276 55.108 143.482 55.3168 144.599 55.7344C145.724 56.1435 146.704 56.7614 147.539 57.5881C148.383 58.4148 149.039 59.4545 149.508 60.7074C149.977 61.9517 150.211 63.4091 150.211 65.0795V66.5753H133.63V63.2003H145.084C145.084 62.4162 144.914 61.7216 144.573 61.1165C144.232 60.5114 143.759 60.0384 143.154 59.6974C142.557 59.348 141.863 59.1733 141.07 59.1733C140.244 59.1733 139.511 59.3651 138.871 59.7486C138.241 60.1236 137.746 60.6307 137.388 61.2699C137.03 61.9006 136.847 62.6037 136.839 63.3793V66.5881C136.839 67.5597 137.018 68.3991 137.376 69.1065C137.742 69.8139 138.258 70.3594 138.923 70.7429C139.587 71.1264 140.376 71.3182 141.288 71.3182C141.893 71.3182 142.447 71.233 142.95 71.0625C143.452 70.892 143.883 70.6364 144.241 70.2955C144.599 69.9545 144.871 69.5369 145.059 69.0426L150.096 69.375C149.84 70.5852 149.316 71.642 148.523 72.5455C147.739 73.4403 146.725 74.1392 145.481 74.642C144.245 75.1364 142.817 75.3835 141.198 75.3835ZM165.991 63.0085V67.2912H155.738V63.0085H165.991ZM157.528 55.3636V75H152.325V55.3636H157.528ZM169.404 55.3636V75H164.24V55.3636H169.404ZM170.218 59.6463V55.3636H188.013V59.6463H181.685V75H176.495V59.6463H170.218ZM205.639 75.3835C203.653 75.3835 201.936 74.9616 200.487 74.1179C199.046 73.2656 197.934 72.081 197.15 70.5639C196.366 69.0384 195.974 67.2699 195.974 65.2585C195.974 63.2301 196.366 61.4574 197.15 59.9403C197.934 58.4148 199.046 57.2301 200.487 56.3864C201.936 55.5341 203.653 55.108 205.639 55.108C207.625 55.108 209.338 55.5341 210.778 56.3864C212.227 57.2301 213.343 58.4148 214.127 59.9403C214.911 61.4574 215.304 63.2301 215.304 65.2585C215.304 67.2699 214.911 69.0384 214.127 70.5639C213.343 72.081 212.227 73.2656 210.778 74.1179C209.338 74.9616 207.625 75.3835 205.639 75.3835ZM205.664 71.1648C206.568 71.1648 207.322 70.9091 207.927 70.3977C208.532 69.8778 208.988 69.1705 209.295 68.2756C209.61 67.3807 209.768 66.3622 209.768 65.2202C209.768 64.0781 209.61 63.0597 209.295 62.1648C208.988 61.2699 208.532 60.5625 207.927 60.0426C207.322 59.5227 206.568 59.2628 205.664 59.2628C204.752 59.2628 203.985 59.5227 203.363 60.0426C202.75 60.5625 202.285 61.2699 201.97 62.1648C201.663 63.0597 201.509 64.0781 201.509 65.2202C201.509 66.3622 201.663 67.3807 201.97 68.2756C202.285 69.1705 202.75 69.8778 203.363 70.3977C203.985 70.9091 204.752 71.1648 205.664 71.1648ZM215.871 80.7528V70.679H217.379C217.814 70.4062 218.163 69.9716 218.427 69.375C218.7 68.7784 218.922 68.0753 219.092 67.2656C219.271 66.456 219.408 65.5824 219.501 64.6449C219.604 63.6989 219.693 62.7443 219.77 61.7812L220.281 55.3636H235.341V70.679H238.383V80.7528H233.193V75H221.189V80.7528H215.871ZM222.8 70.679H230.202V59.5568H224.909L224.704 61.7812C224.56 63.8778 224.351 65.6591 224.078 67.125C223.805 68.5824 223.379 69.767 222.8 70.679ZM248.989 75.3835C247.003 75.3835 245.286 74.9616 243.837 74.1179C242.397 73.2656 241.285 72.081 240.501 70.5639C239.716 69.0384 239.324 67.2699 239.324 65.2585C239.324 63.2301 239.716 61.4574 240.501 59.9403C241.285 58.4148 242.397 57.2301 243.837 56.3864C245.286 55.5341 247.003 55.108 248.989 55.108C250.975 55.108 252.688 55.5341 254.128 56.3864C255.577 57.2301 256.694 58.4148 257.478 59.9403C258.262 61.4574 258.654 63.2301 258.654 65.2585C258.654 67.2699 258.262 69.0384 257.478 70.5639C256.694 72.081 255.577 73.2656 254.128 74.1179C252.688 74.9616 250.975 75.3835 248.989 75.3835ZM249.015 71.1648C249.918 71.1648 250.672 70.9091 251.278 70.3977C251.883 69.8778 252.339 69.1705 252.645 68.2756C252.961 67.3807 253.118 66.3622 253.118 65.2202C253.118 64.0781 252.961 63.0597 252.645 62.1648C252.339 61.2699 251.883 60.5625 251.278 60.0426C250.672 59.5227 249.918 59.2628 249.015 59.2628C248.103 59.2628 247.336 59.5227 246.714 60.0426C246.1 60.5625 245.636 61.2699 245.32 62.1648C245.013 63.0597 244.86 64.0781 244.86 65.2202C244.86 66.3622 245.013 67.3807 245.32 68.2756C245.636 69.1705 246.1 69.8778 246.714 70.3977C247.336 70.9091 248.103 71.1648 249.015 71.1648ZM277.08 48.1534L278.742 51.7074C278.188 52.1676 277.575 52.5085 276.901 52.7301C276.228 52.9432 275.423 53.0838 274.485 53.152C273.556 53.2202 272.423 53.267 271.085 53.2926C269.568 53.3097 268.332 53.5526 267.377 54.0213C266.423 54.4901 265.698 55.2273 265.204 56.233C264.71 57.2301 264.386 58.5341 264.232 60.1449H264.424C265.012 58.9432 265.839 58.0142 266.904 57.358C267.978 56.7017 269.303 56.3736 270.88 56.3736C272.551 56.3736 274.012 56.7401 275.265 57.473C276.526 58.206 277.507 59.2585 278.205 60.6307C278.904 62.0028 279.254 63.6477 279.254 65.5653C279.254 67.5597 278.862 69.294 278.078 70.7685C277.302 72.2344 276.198 73.3722 274.767 74.1818C273.335 74.983 271.63 75.3835 269.653 75.3835C267.667 75.3835 265.954 74.9659 264.514 74.1307C263.082 73.2955 261.974 72.0639 261.19 70.4361C260.414 68.8082 260.026 66.8054 260.026 64.4276V62.8168C260.026 58.0866 260.947 54.5795 262.788 52.2955C264.629 50.0114 267.335 48.8523 270.906 48.8182C271.877 48.8011 272.755 48.7969 273.539 48.8054C274.323 48.8139 275.009 48.7756 275.598 48.6903C276.194 48.6051 276.688 48.4261 277.08 48.1534ZM269.678 71.1648C270.514 71.1648 271.23 70.9474 271.826 70.5128C272.431 70.0781 272.896 69.456 273.22 68.6463C273.552 67.8366 273.718 66.8693 273.718 65.7443C273.718 64.6278 273.552 63.6818 273.22 62.9062C272.896 62.1222 272.431 61.5256 271.826 61.1165C271.221 60.7074 270.497 60.5028 269.653 60.5028C269.022 60.5028 268.455 60.6179 267.953 60.848C267.45 61.0781 267.019 61.419 266.661 61.8707C266.312 62.3139 266.039 62.8636 265.843 63.5199C265.656 64.1676 265.562 64.9091 265.562 65.7443C265.562 67.4233 265.924 68.7486 266.649 69.7202C267.382 70.6832 268.392 71.1648 269.678 71.1648ZM281.428 82.3636V55.3636H286.798V58.6619H287.041C287.279 58.1335 287.624 57.5966 288.076 57.0511C288.536 56.4972 289.133 56.0369 289.866 55.6705C290.607 55.2955 291.528 55.108 292.627 55.108C294.059 55.108 295.38 55.483 296.59 56.233C297.801 56.9744 298.768 58.0952 299.492 59.5952C300.217 61.0866 300.579 62.9574 300.579 65.2074C300.579 67.3977 300.225 69.2472 299.518 70.7557C298.819 72.2557 297.865 73.3935 296.654 74.169C295.453 74.9361 294.106 75.3196 292.615 75.3196C291.558 75.3196 290.659 75.1449 289.917 74.7955C289.184 74.446 288.583 74.0071 288.115 73.4787C287.646 72.9418 287.288 72.4006 287.041 71.8551H286.874V82.3636H281.428ZM286.759 65.1818C286.759 66.3494 286.921 67.3679 287.245 68.2372C287.569 69.1065 288.038 69.7841 288.651 70.2699C289.265 70.7472 290.011 70.9858 290.889 70.9858C291.775 70.9858 292.525 70.7429 293.139 70.2571C293.752 69.7628 294.217 69.081 294.532 68.2116C294.856 67.3338 295.018 66.3239 295.018 65.1818C295.018 64.0483 294.86 63.0511 294.545 62.1903C294.23 61.3295 293.765 60.6562 293.151 60.1705C292.538 59.6847 291.784 59.4418 290.889 59.4418C290.002 59.4418 289.252 59.6761 288.639 60.1449C288.034 60.6136 287.569 61.2784 287.245 62.1392C286.921 63 286.759 64.0142 286.759 65.1818ZM311.719 75.3835C309.699 75.3835 307.96 74.9744 306.503 74.1562C305.054 73.3295 303.937 72.1619 303.153 70.6534C302.369 69.1364 301.977 67.3423 301.977 65.2713C301.977 63.2514 302.369 61.4787 303.153 59.9531C303.937 58.4276 305.041 57.2386 306.464 56.3864C307.896 55.5341 309.575 55.108 311.501 55.108C312.797 55.108 314.003 55.3168 315.119 55.7344C316.244 56.1435 317.224 56.7614 318.059 57.5881C318.903 58.4148 319.559 59.4545 320.028 60.7074C320.497 61.9517 320.731 63.4091 320.731 65.0795V66.5753H304.15V63.2003H315.605C315.605 62.4162 315.434 61.7216 315.094 61.1165C314.753 60.5114 314.28 60.0384 313.675 59.6974C313.078 59.348 312.383 59.1733 311.591 59.1733C310.764 59.1733 310.031 59.3651 309.392 59.7486C308.761 60.1236 308.267 60.6307 307.909 61.2699C307.551 61.9006 307.368 62.6037 307.359 63.3793V66.5881C307.359 67.5597 307.538 68.3991 307.896 69.1065C308.263 69.8139 308.778 70.3594 309.443 70.7429C310.108 71.1264 310.896 71.3182 311.808 71.3182C312.413 71.3182 312.967 71.233 313.47 71.0625C313.973 70.892 314.403 70.6364 314.761 70.2955C315.119 69.9545 315.392 69.5369 315.579 69.0426L320.616 69.375C320.361 70.5852 319.836 71.642 319.044 72.5455C318.26 73.4403 317.246 74.1392 316.001 74.642C314.765 75.1364 313.338 75.3835 311.719 75.3835ZM336.512 63.0085V67.2912H326.259V63.0085H336.512ZM328.048 55.3636V75H322.845V55.3636H328.048ZM339.925 55.3636V75H334.76V55.3636H339.925ZM347.913 67.8153L354.983 55.3636H360.352V75H355.162V62.5099L348.118 75H342.71V55.3636H347.913V67.8153ZM374.784 75V59.6335H371.102C370.105 59.6335 369.346 59.8636 368.826 60.3239C368.306 60.7841 368.051 61.3295 368.059 61.9602C368.051 62.5994 368.298 63.1406 368.801 63.5838C369.312 64.0185 370.062 64.2358 371.051 64.2358H376.599V67.9176H371.051C369.372 67.9176 367.918 67.6619 366.691 67.1506C365.464 66.6392 364.518 65.9276 363.853 65.0156C363.188 64.0952 362.86 63.0256 362.869 61.8068C362.86 60.5284 363.188 59.4077 363.853 58.4446C364.518 57.473 365.468 56.7187 366.704 56.1818C367.948 55.6364 369.414 55.3636 371.102 55.3636H379.859V75H374.784ZM362.306 75L367.765 64.7727H372.968L367.522 75H362.306Z" fill="black"/>
<path d="M65.3764 782.984H59.777C59.6747 782.26 59.4659 781.616 59.1506 781.054C58.8352 780.483 58.4304 779.997 57.9361 779.597C57.4418 779.196 56.8707 778.889 56.223 778.676C55.5838 778.463 54.8892 778.357 54.1392 778.357C52.7841 778.357 51.6037 778.693 50.598 779.366C49.5923 780.031 48.8125 781.003 48.2585 782.281C47.7045 783.551 47.4276 785.094 47.4276 786.909C47.4276 788.776 47.7045 790.344 48.2585 791.614C48.821 792.884 49.6051 793.842 50.6108 794.49C51.6165 795.138 52.7798 795.462 54.1009 795.462C54.8423 795.462 55.5284 795.364 56.1591 795.168C56.7983 794.972 57.3651 794.686 57.8594 794.311C58.3537 793.928 58.7628 793.463 59.0866 792.918C59.419 792.372 59.6491 791.75 59.777 791.051L65.3764 791.077C65.2315 792.278 64.8693 793.438 64.2898 794.554C63.7188 795.662 62.9474 796.655 61.9759 797.533C61.0128 798.402 59.8622 799.092 58.5241 799.604C57.1946 800.107 55.6903 800.358 54.0114 800.358C51.6761 800.358 49.5881 799.83 47.7472 798.773C45.9148 797.716 44.4659 796.186 43.4006 794.183C42.3438 792.18 41.8153 789.756 41.8153 786.909C41.8153 784.054 42.3523 781.625 43.4261 779.622C44.5 777.619 45.9574 776.094 47.7983 775.045C49.6392 773.989 51.7102 773.46 54.0114 773.46C55.5284 773.46 56.9347 773.673 58.2301 774.099C59.5341 774.526 60.6889 775.148 61.6946 775.966C62.7003 776.776 63.5185 777.768 64.1491 778.945C64.7884 780.121 65.1974 781.467 65.3764 782.984ZM67.8036 800V780.364H73.2496V787.983H74.7837L80.1275 780.364H86.5195L79.5778 790.105L86.5962 800H80.1275L75.2823 793.033H73.2496V800H67.8036ZM95.5209 800.384C93.5351 800.384 91.8178 799.962 90.3689 799.118C88.9286 798.266 87.8164 797.081 87.0323 795.564C86.2482 794.038 85.8561 792.27 85.8561 790.259C85.8561 788.23 86.2482 786.457 87.0323 784.94C87.8164 783.415 88.9286 782.23 90.3689 781.386C91.8178 780.534 93.5351 780.108 95.5209 780.108C97.5067 780.108 99.2198 780.534 100.66 781.386C102.109 782.23 103.225 783.415 104.01 784.94C104.794 786.457 105.186 788.23 105.186 790.259C105.186 792.27 104.794 794.038 104.01 795.564C103.225 797.081 102.109 798.266 100.66 799.118C99.2198 799.962 97.5067 800.384 95.5209 800.384ZM95.5465 796.165C96.4499 796.165 97.2042 795.909 97.8093 795.398C98.4144 794.878 98.8704 794.17 99.1772 793.276C99.4925 792.381 99.6502 791.362 99.6502 790.22C99.6502 789.078 99.4925 788.06 99.1772 787.165C98.8704 786.27 98.4144 785.562 97.8093 785.043C97.2042 784.523 96.4499 784.263 95.5465 784.263C94.6346 784.263 93.8675 784.523 93.2454 785.043C92.6317 785.562 92.1672 786.27 91.8519 787.165C91.5451 788.06 91.3917 789.078 91.3917 790.22C91.3917 791.362 91.5451 792.381 91.8519 793.276C92.1672 794.17 92.6317 794.878 93.2454 795.398C93.8675 795.909 94.6346 796.165 95.5465 796.165ZM107.287 807.364V780.364H112.656V783.662H112.899C113.138 783.134 113.483 782.597 113.935 782.051C114.395 781.497 114.991 781.037 115.724 780.67C116.466 780.295 117.386 780.108 118.486 780.108C119.918 780.108 121.239 780.483 122.449 781.233C123.659 781.974 124.626 783.095 125.351 784.595C126.075 786.087 126.437 787.957 126.437 790.207C126.437 792.398 126.084 794.247 125.376 795.756C124.678 797.256 123.723 798.393 122.513 799.169C121.311 799.936 119.964 800.32 118.473 800.32C117.416 800.32 116.517 800.145 115.776 799.795C115.043 799.446 114.442 799.007 113.973 798.479C113.504 797.942 113.146 797.401 112.899 796.855H112.733V807.364H107.287ZM112.618 790.182C112.618 791.349 112.78 792.368 113.104 793.237C113.428 794.107 113.896 794.784 114.51 795.27C115.124 795.747 115.869 795.986 116.747 795.986C117.633 795.986 118.383 795.743 118.997 795.257C119.611 794.763 120.075 794.081 120.391 793.212C120.714 792.334 120.876 791.324 120.876 790.182C120.876 789.048 120.719 788.051 120.403 787.19C120.088 786.33 119.624 785.656 119.01 785.17C118.396 784.685 117.642 784.442 116.747 784.442C115.861 784.442 115.111 784.676 114.497 785.145C113.892 785.614 113.428 786.278 113.104 787.139C112.78 788 112.618 789.014 112.618 790.182ZM137.5 800.384C135.515 800.384 133.797 799.962 132.348 799.118C130.908 798.266 129.796 797.081 129.012 795.564C128.228 794.038 127.836 792.27 127.836 790.259C127.836 788.23 128.228 786.457 129.012 784.94C129.796 783.415 130.908 782.23 132.348 781.386C133.797 780.534 135.515 780.108 137.5 780.108C139.486 780.108 141.199 780.534 142.64 781.386C144.088 782.23 145.205 783.415 145.989 784.94C146.773 786.457 147.165 788.23 147.165 790.259C147.165 792.27 146.773 794.038 145.989 795.564C145.205 797.081 144.088 798.266 142.64 799.118C141.199 799.962 139.486 800.384 137.5 800.384ZM137.526 796.165C138.429 796.165 139.184 795.909 139.789 795.398C140.394 794.878 140.85 794.17 141.157 793.276C141.472 792.381 141.63 791.362 141.63 790.22C141.63 789.078 141.472 788.06 141.157 787.165C140.85 786.27 140.394 785.562 139.789 785.043C139.184 784.523 138.429 784.263 137.526 784.263C136.614 784.263 135.847 784.523 135.225 785.043C134.611 785.562 134.147 786.27 133.831 787.165C133.524 788.06 133.371 789.078 133.371 790.22C133.371 791.362 133.524 792.381 133.831 793.276C134.147 794.17 134.611 794.878 135.225 795.398C135.847 795.909 136.614 796.165 137.526 796.165ZM158.138 800.384C156.127 800.384 154.397 799.957 152.948 799.105C151.508 798.244 150.4 797.051 149.624 795.526C148.857 794 148.474 792.244 148.474 790.259C148.474 788.247 148.861 786.483 149.637 784.966C150.421 783.44 151.533 782.251 152.974 781.399C154.414 780.538 156.127 780.108 158.113 780.108C159.826 780.108 161.326 780.419 162.613 781.041C163.9 781.663 164.918 782.537 165.668 783.662C166.418 784.787 166.832 786.108 166.908 787.625H161.769C161.624 786.645 161.241 785.857 160.619 785.26C160.005 784.655 159.2 784.352 158.202 784.352C157.359 784.352 156.621 784.582 155.991 785.043C155.369 785.494 154.883 786.155 154.533 787.024C154.184 787.893 154.009 788.946 154.009 790.182C154.009 791.435 154.18 792.5 154.521 793.378C154.87 794.256 155.36 794.925 155.991 795.385C156.621 795.845 157.359 796.075 158.202 796.075C158.825 796.075 159.383 795.947 159.877 795.692C160.38 795.436 160.793 795.065 161.117 794.58C161.45 794.085 161.667 793.493 161.769 792.803H166.908C166.823 794.303 166.414 795.624 165.681 796.766C164.957 797.899 163.955 798.786 162.677 799.425C161.398 800.064 159.886 800.384 158.138 800.384ZM167.616 784.646V780.364H185.411V784.646H179.083V800H173.893V784.646H167.616ZM190.686 786.398H196.554C199.154 786.398 201.182 787.02 202.639 788.264C204.097 789.5 204.826 791.153 204.826 793.224C204.826 794.571 204.497 795.756 203.841 796.778C203.185 797.793 202.239 798.585 201.003 799.156C199.767 799.719 198.284 800 196.554 800H187.273V780.364H192.476V795.717H196.554C197.466 795.717 198.216 795.487 198.804 795.027C199.392 794.567 199.691 793.979 199.699 793.263C199.691 792.504 199.392 791.886 198.804 791.409C198.216 790.923 197.466 790.68 196.554 790.68H190.686V786.398ZM222.761 800.384C220.775 800.384 219.058 799.962 217.609 799.118C216.169 798.266 215.057 797.081 214.273 795.564C213.489 794.038 213.096 792.27 213.096 790.259C213.096 788.23 213.489 786.457 214.273 784.94C215.057 783.415 216.169 782.23 217.609 781.386C219.058 780.534 220.775 780.108 222.761 780.108C224.747 780.108 226.46 780.534 227.9 781.386C229.349 782.23 230.466 783.415 231.25 784.94C232.034 786.457 232.426 788.23 232.426 790.259C232.426 792.27 232.034 794.038 231.25 795.564C230.466 797.081 229.349 798.266 227.9 799.118C226.46 799.962 224.747 800.384 222.761 800.384ZM222.787 796.165C223.69 796.165 224.444 795.909 225.05 795.398C225.655 794.878 226.111 794.17 226.417 793.276C226.733 792.381 226.89 791.362 226.89 790.22C226.89 789.078 226.733 788.06 226.417 787.165C226.111 786.27 225.655 785.562 225.05 785.043C224.444 784.523 223.69 784.263 222.787 784.263C221.875 784.263 221.108 784.523 220.486 785.043C219.872 785.562 219.408 786.27 219.092 787.165C218.785 788.06 218.632 789.078 218.632 790.22C218.632 791.362 218.785 792.381 219.092 793.276C219.408 794.17 219.872 794.878 220.486 795.398C221.108 795.909 221.875 796.165 222.787 796.165ZM232.993 805.753V795.679H234.502C234.936 795.406 235.286 794.972 235.55 794.375C235.823 793.778 236.044 793.075 236.215 792.266C236.394 791.456 236.53 790.582 236.624 789.645C236.726 788.699 236.816 787.744 236.892 786.781L237.404 780.364H252.463V795.679H255.506V805.753H250.316V800H238.311V805.753H232.993ZM239.922 795.679H247.324V784.557H242.031L241.827 786.781C241.682 788.878 241.473 790.659 241.201 792.125C240.928 793.582 240.502 794.767 239.922 795.679ZM266.112 800.384C264.126 800.384 262.409 799.962 260.96 799.118C259.519 798.266 258.407 797.081 257.623 795.564C256.839 794.038 256.447 792.27 256.447 790.259C256.447 788.23 256.839 786.457 257.623 784.94C258.407 783.415 259.519 782.23 260.96 781.386C262.409 780.534 264.126 780.108 266.112 780.108C268.098 780.108 269.811 780.534 271.251 781.386C272.7 782.23 273.816 783.415 274.6 784.94C275.384 786.457 275.776 788.23 275.776 790.259C275.776 792.27 275.384 794.038 274.6 795.564C273.816 797.081 272.7 798.266 271.251 799.118C269.811 799.962 268.098 800.384 266.112 800.384ZM266.137 796.165C267.041 796.165 267.795 795.909 268.4 795.398C269.005 794.878 269.461 794.17 269.768 793.276C270.083 792.381 270.241 791.362 270.241 790.22C270.241 789.078 270.083 788.06 269.768 787.165C269.461 786.27 269.005 785.562 268.4 785.043C267.795 784.523 267.041 784.263 266.137 784.263C265.225 784.263 264.458 784.523 263.836 785.043C263.223 785.562 262.758 786.27 262.443 787.165C262.136 788.06 261.982 789.078 261.982 790.22C261.982 791.362 262.136 792.381 262.443 793.276C262.758 794.17 263.223 794.878 263.836 795.398C264.458 795.909 265.225 796.165 266.137 796.165ZM294.203 773.153L295.865 776.707C295.311 777.168 294.697 777.509 294.024 777.73C293.351 777.943 292.545 778.084 291.608 778.152C290.679 778.22 289.545 778.267 288.207 778.293C286.69 778.31 285.454 778.553 284.5 779.021C283.545 779.49 282.821 780.227 282.327 781.233C281.832 782.23 281.508 783.534 281.355 785.145H281.547C282.135 783.943 282.961 783.014 284.027 782.358C285.101 781.702 286.426 781.374 288.003 781.374C289.673 781.374 291.135 781.74 292.388 782.473C293.649 783.206 294.629 784.259 295.328 785.631C296.027 787.003 296.376 788.648 296.376 790.565C296.376 792.56 295.984 794.294 295.2 795.768C294.425 797.234 293.321 798.372 291.889 799.182C290.457 799.983 288.753 800.384 286.775 800.384C284.79 800.384 283.077 799.966 281.636 799.131C280.204 798.295 279.096 797.064 278.312 795.436C277.537 793.808 277.149 791.805 277.149 789.428V787.817C277.149 783.087 278.069 779.58 279.91 777.295C281.751 775.011 284.457 773.852 288.028 773.818C289 773.801 289.878 773.797 290.662 773.805C291.446 773.814 292.132 773.776 292.72 773.69C293.317 773.605 293.811 773.426 294.203 773.153ZM286.801 796.165C287.636 796.165 288.352 795.947 288.949 795.513C289.554 795.078 290.018 794.456 290.342 793.646C290.675 792.837 290.841 791.869 290.841 790.744C290.841 789.628 290.675 788.682 290.342 787.906C290.018 787.122 289.554 786.526 288.949 786.116C288.344 785.707 287.619 785.503 286.775 785.503C286.145 785.503 285.578 785.618 285.075 785.848C284.572 786.078 284.142 786.419 283.784 786.871C283.434 787.314 283.162 787.864 282.966 788.52C282.778 789.168 282.684 789.909 282.684 790.744C282.684 792.423 283.047 793.749 283.771 794.72C284.504 795.683 285.514 796.165 286.801 796.165ZM298.551 807.364V780.364H303.92V783.662H304.163C304.402 783.134 304.747 782.597 305.199 782.051C305.659 781.497 306.255 781.037 306.988 780.67C307.73 780.295 308.65 780.108 309.75 780.108C311.182 780.108 312.503 780.483 313.713 781.233C314.923 781.974 315.89 783.095 316.615 784.595C317.339 786.087 317.702 787.957 317.702 790.207C317.702 792.398 317.348 794.247 316.64 795.756C315.942 797.256 314.987 798.393 313.777 799.169C312.575 799.936 311.229 800.32 309.737 800.32C308.68 800.32 307.781 800.145 307.04 799.795C306.307 799.446 305.706 799.007 305.237 798.479C304.768 797.942 304.41 797.401 304.163 796.855H303.997V807.364H298.551ZM303.882 790.182C303.882 791.349 304.044 792.368 304.368 793.237C304.692 794.107 305.16 794.784 305.774 795.27C306.388 795.747 307.133 795.986 308.011 795.986C308.898 795.986 309.648 795.743 310.261 795.257C310.875 794.763 311.339 794.081 311.655 793.212C311.979 792.334 312.14 791.324 312.14 790.182C312.14 789.048 311.983 788.051 311.667 787.19C311.352 786.33 310.888 785.656 310.274 785.17C309.66 784.685 308.906 784.442 308.011 784.442C307.125 784.442 306.375 784.676 305.761 785.145C305.156 785.614 304.692 786.278 304.368 787.139C304.044 788 303.882 789.014 303.882 790.182ZM328.841 800.384C326.821 800.384 325.083 799.974 323.625 799.156C322.176 798.33 321.06 797.162 320.276 795.653C319.492 794.136 319.1 792.342 319.1 790.271C319.1 788.251 319.492 786.479 320.276 784.953C321.06 783.428 322.164 782.239 323.587 781.386C325.019 780.534 326.698 780.108 328.624 780.108C329.919 780.108 331.125 780.317 332.242 780.734C333.367 781.143 334.347 781.761 335.182 782.588C336.026 783.415 336.682 784.455 337.151 785.707C337.619 786.952 337.854 788.409 337.854 790.08V791.575H321.273V788.2H332.727C332.727 787.416 332.557 786.722 332.216 786.116C331.875 785.511 331.402 785.038 330.797 784.697C330.2 784.348 329.506 784.173 328.713 784.173C327.887 784.173 327.154 784.365 326.514 784.749C325.884 785.124 325.389 785.631 325.031 786.27C324.673 786.901 324.49 787.604 324.482 788.379V791.588C324.482 792.56 324.661 793.399 325.019 794.107C325.385 794.814 325.901 795.359 326.565 795.743C327.23 796.126 328.019 796.318 328.931 796.318C329.536 796.318 330.09 796.233 330.592 796.062C331.095 795.892 331.526 795.636 331.884 795.295C332.242 794.955 332.514 794.537 332.702 794.043L337.739 794.375C337.483 795.585 336.959 796.642 336.166 797.545C335.382 798.44 334.368 799.139 333.124 799.642C331.888 800.136 330.46 800.384 328.841 800.384ZM353.634 788.009V792.291H343.381V788.009H353.634ZM345.171 780.364V800H339.968V780.364H345.171ZM357.047 780.364V800H351.883V780.364H357.047ZM365.036 792.815L372.105 780.364H377.475V800H372.284V787.51L365.24 800H359.833V780.364H365.036V792.815ZM391.906 800V784.634H388.224C387.227 784.634 386.468 784.864 385.949 785.324C385.429 785.784 385.173 786.33 385.182 786.96C385.173 787.599 385.42 788.141 385.923 788.584C386.434 789.018 387.184 789.236 388.173 789.236H393.721V792.918H388.173C386.494 792.918 385.041 792.662 383.814 792.151C382.586 791.639 381.64 790.928 380.976 790.016C380.311 789.095 379.983 788.026 379.991 786.807C379.983 785.528 380.311 784.408 380.976 783.445C381.64 782.473 382.591 781.719 383.826 781.182C385.071 780.636 386.537 780.364 388.224 780.364H396.981V800H391.906ZM379.429 800L384.888 789.773H390.091L384.645 800H379.429Z" fill="black"/>
<path opacity="0.4" d="M40 303.5H1034.95L1034.95 216L682.5 215L40 184V303.5Z" fill="url(#paint0_linear_2806_1392)"/>
<rect x="1030.19" y="210" width="10.2717" height="10.2717" rx="5.13587" fill="#CACACA"/>
<path d="M1034.95 215H687L40 183.5" stroke="#CACACA" stroke-width="4"/>
<path d="M895.074 288.443V312.801L885.989 303.682L882 307.636L897.955 323.557L913.875 307.636L909.955 303.682L900.835 312.801V288.443H895.074Z" fill="#CACACA"/>
<path d="M939.103 323.477C936.694 323.477 934.546 323.034 932.66 322.148C930.785 321.261 929.296 320.04 928.194 318.483C927.092 316.926 926.518 315.142 926.472 313.131H933.631C933.711 314.483 934.279 315.58 935.336 316.42C936.393 317.261 937.648 317.682 939.103 317.682C940.262 317.682 941.285 317.426 942.171 316.915C943.069 316.392 943.768 315.67 944.268 314.75C944.779 313.818 945.035 312.75 945.035 311.545C945.035 310.318 944.773 309.239 944.251 308.307C943.739 307.375 943.029 306.648 942.12 306.125C941.211 305.602 940.171 305.335 939.001 305.324C937.978 305.324 936.984 305.534 936.018 305.955C935.063 306.375 934.319 306.949 933.785 307.676L927.222 306.5L928.876 288.091H950.217V294.125H934.961L934.058 302.869H934.262C934.876 302.006 935.802 301.29 937.04 300.722C938.279 300.153 939.665 299.869 941.2 299.869C943.302 299.869 945.177 300.364 946.825 301.352C948.472 302.341 949.773 303.699 950.728 305.426C951.683 307.142 952.154 309.119 952.143 311.358C952.154 313.71 951.609 315.801 950.506 317.631C949.415 319.449 947.887 320.881 945.921 321.926C943.967 322.96 941.694 323.477 939.103 323.477ZM963.634 318.227L963.446 320.102C963.298 321.602 963.014 323.097 962.594 324.585C962.185 326.085 961.753 327.443 961.298 328.659C960.855 329.875 960.497 330.83 960.224 331.523H955.52C955.69 330.852 955.923 329.915 956.219 328.71C956.514 327.517 956.793 326.176 957.054 324.688C957.315 323.199 957.48 321.682 957.548 320.136L957.634 318.227H963.634ZM969.781 323L984.252 294.364V294.125H967.394V288.091H991.888V294.21L977.4 323H969.781ZM1015.56 316.455V314.614C1015.56 313.216 1015.86 311.932 1016.45 310.761C1017.05 309.58 1017.92 308.636 1019.06 307.932C1020.2 307.216 1021.6 306.858 1023.25 306.858C1024.92 306.858 1026.32 307.21 1027.46 307.915C1028.61 308.619 1029.47 309.562 1030.05 310.744C1030.64 311.915 1030.94 313.205 1030.94 314.614V316.455C1030.94 317.852 1030.64 319.142 1030.05 320.324C1029.46 321.494 1028.59 322.432 1027.44 323.136C1026.3 323.852 1024.9 324.21 1023.25 324.21C1021.58 324.21 1020.18 323.852 1019.04 323.136C1017.9 322.432 1017.04 321.494 1016.45 320.324C1015.86 319.142 1015.56 317.852 1015.56 316.455ZM1020.52 314.614V316.455C1020.52 317.261 1020.72 318.023 1021.1 318.739C1021.5 319.455 1022.22 319.812 1023.25 319.812C1024.28 319.812 1024.99 319.46 1025.36 318.756C1025.75 318.051 1025.94 317.284 1025.94 316.455V314.614C1025.94 313.784 1025.76 313.011 1025.4 312.295C1025.03 311.58 1024.32 311.222 1023.25 311.222C1022.23 311.222 1021.52 311.58 1021.12 312.295C1020.72 313.011 1020.52 313.784 1020.52 314.614ZM997.648 296.477V294.636C997.648 293.227 997.949 291.937 998.551 290.767C999.153 289.585 1000.02 288.642 1001.16 287.938C1002.31 287.233 1003.69 286.881 1005.32 286.881C1007 286.881 1008.41 287.233 1009.55 287.938C1010.68 288.642 1011.55 289.585 1012.14 290.767C1012.73 291.937 1013.02 293.227 1013.02 294.636V296.477C1013.02 297.886 1012.72 299.176 1012.12 300.347C1011.53 301.517 1010.66 302.455 1009.51 303.159C1008.38 303.852 1006.98 304.199 1005.32 304.199C1003.66 304.199 1002.26 303.847 1001.11 303.142C999.972 302.426 999.108 301.489 998.517 300.33C997.938 299.159 997.648 297.875 997.648 296.477ZM1002.64 294.636V296.477C1002.64 297.307 1002.84 298.074 1003.22 298.778C1003.62 299.483 1004.32 299.835 1005.32 299.835C1006.36 299.835 1007.07 299.483 1007.45 298.778C1007.84 298.074 1008.03 297.307 1008.03 296.477V294.636C1008.03 293.807 1007.85 293.034 1007.48 292.318C1007.12 291.602 1006.4 291.244 1005.32 291.244C1004.31 291.244 1003.61 291.608 1003.22 292.335C1002.84 293.062 1002.64 293.83 1002.64 294.636ZM999.898 323L1023.9 288.091H1028.36L1004.36 323H999.898Z" fill="black"/>
<path d="M46.2003 168.199C45.3101 168.199 44.5099 168.028 43.7997 167.688C43.0942 167.342 42.5308 166.868 42.1094 166.267C41.688 165.666 41.4631 164.979 41.4347 164.207H43.5653C43.6174 164.832 43.8944 165.346 44.3963 165.749C44.8982 166.151 45.4995 166.352 46.2003 166.352C46.759 166.352 47.2538 166.224 47.6847 165.969C48.1203 165.708 48.4612 165.351 48.7074 164.896C48.9583 164.442 49.0838 163.923 49.0838 163.341C49.0838 162.749 48.956 162.221 48.7003 161.757C48.4446 161.293 48.0919 160.929 47.642 160.663C47.197 160.398 46.6856 160.263 46.108 160.259C45.6676 160.259 45.2249 160.334 44.7798 160.486C44.3348 160.637 43.9749 160.836 43.7003 161.082L41.6903 160.784L42.5071 153.455H50.5043V155.337H44.3324L43.8707 159.406H43.956C44.2401 159.132 44.6165 158.902 45.0852 158.717C45.5587 158.533 46.0653 158.44 46.6051 158.44C47.4905 158.44 48.2789 158.651 48.9702 159.072C49.6662 159.494 50.2131 160.069 50.6108 160.798C51.0133 161.523 51.2121 162.356 51.2074 163.298C51.2121 164.241 50.9991 165.081 50.5682 165.82C50.142 166.558 49.5502 167.141 48.7926 167.567C48.0398 167.988 47.1757 168.199 46.2003 168.199ZM58.3801 168.199C57.4899 168.199 56.6897 168.028 55.9795 167.688C55.274 167.342 54.7106 166.868 54.2892 166.267C53.8678 165.666 53.6429 164.979 53.6144 164.207H55.7451C55.7972 164.832 56.0742 165.346 56.5761 165.749C57.078 166.151 57.6793 166.352 58.3801 166.352C58.9388 166.352 59.4336 166.224 59.8644 165.969C60.3001 165.708 60.641 165.351 60.8872 164.896C61.1381 164.442 61.2636 163.923 61.2636 163.341C61.2636 162.749 61.1358 162.221 60.8801 161.757C60.6244 161.293 60.2716 160.929 59.8218 160.663C59.3768 160.398 58.8654 160.263 58.2877 160.259C57.8474 160.259 57.4047 160.334 56.9596 160.486C56.5145 160.637 56.1547 160.836 55.8801 161.082L53.8701 160.784L54.6869 153.455H62.6841V155.337H56.5122L56.0505 159.406H56.1358C56.4198 159.132 56.7963 158.902 57.265 158.717C57.7385 158.533 58.2451 158.44 58.7849 158.44C59.6703 158.44 60.4587 158.651 61.15 159.072C61.846 159.494 62.3929 160.069 62.7906 160.798C63.193 161.523 63.3919 162.356 63.3872 163.298C63.3919 164.241 63.1788 165.081 62.748 165.82C62.3218 166.558 61.73 167.141 60.9724 167.567C60.2196 167.988 59.3555 168.199 58.3801 168.199ZM68.0226 166.011L67.916 166.786C67.845 167.354 67.7243 167.946 67.5538 168.561C67.3881 169.181 67.2153 169.757 67.0354 170.287C66.8602 170.817 66.7158 171.239 66.6021 171.551H65.0964C65.158 171.258 65.2432 170.86 65.3521 170.358C65.461 169.861 65.5676 169.304 65.6717 168.689C65.7759 168.073 65.854 167.446 65.9061 166.807L65.9771 166.011H68.0226ZM74.5312 153.455V168H72.3295V155.656H72.2443L68.7642 157.929V155.827L72.3934 153.455H74.5312Z" fill="#CFCFCF"/>
<path d="M992.64 191.159V189.384L998.926 179.455H1000.32V182.068H999.437L994.941 189.185V189.298H1003.56V191.159H992.64ZM999.537 194V190.619L999.551 189.81V179.455H1001.63V194H999.537ZM1010.65 179.256C1011.29 179.26 1011.93 179.379 1012.56 179.611C1013.19 179.843 1013.76 180.222 1014.27 180.747C1014.78 181.273 1015.19 181.983 1015.49 182.878C1015.8 183.768 1015.95 184.876 1015.96 186.202C1015.96 187.475 1015.83 188.609 1015.57 189.604C1015.32 190.593 1014.95 191.429 1014.47 192.111C1014 192.793 1013.43 193.311 1012.75 193.666C1012.07 194.021 1011.31 194.199 1010.46 194.199C1009.59 194.199 1008.83 194.028 1008.15 193.688C1007.48 193.347 1006.93 192.875 1006.51 192.274C1006.09 191.668 1005.83 190.972 1005.72 190.186H1007.89C1008.03 190.811 1008.32 191.318 1008.76 191.706C1009.2 192.089 1009.77 192.281 1010.46 192.281C1011.53 192.281 1012.36 191.817 1012.95 190.889C1013.55 189.956 1013.85 188.654 1013.86 186.983H1013.74C1013.5 187.39 1013.19 187.741 1012.82 188.034C1012.45 188.328 1012.04 188.555 1011.59 188.716C1011.14 188.877 1010.65 188.957 1010.13 188.957C1009.3 188.957 1008.53 188.751 1007.85 188.339C1007.16 187.928 1006.61 187.362 1006.21 186.642C1005.8 185.922 1005.6 185.101 1005.6 184.178C1005.6 183.259 1005.8 182.426 1006.22 181.678C1006.64 180.929 1007.23 180.338 1007.98 179.902C1008.74 179.462 1009.63 179.246 1010.65 179.256ZM1010.65 181.102C1010.1 181.102 1009.6 181.24 1009.15 181.514C1008.71 181.784 1008.37 182.151 1008.11 182.615C1007.85 183.074 1007.73 183.586 1007.73 184.149C1007.73 184.713 1007.85 185.224 1008.1 185.683C1008.35 186.138 1008.69 186.5 1009.12 186.77C1009.55 187.035 1010.05 187.168 1010.61 187.168C1011.03 187.168 1011.42 187.087 1011.78 186.926C1012.13 186.765 1012.45 186.543 1012.72 186.259C1012.99 185.97 1013.2 185.643 1013.35 185.278C1013.5 184.914 1013.58 184.53 1013.58 184.128C1013.58 183.593 1013.45 183.096 1013.2 182.636C1012.94 182.177 1012.6 181.808 1012.16 181.528C1011.72 181.244 1011.22 181.102 1010.65 181.102ZM1020.57 192.011L1020.46 192.786C1020.39 193.354 1020.27 193.946 1020.1 194.561C1019.93 195.181 1019.76 195.757 1019.58 196.287C1019.4 196.817 1019.26 197.239 1019.14 197.551H1017.64C1017.7 197.258 1017.79 196.86 1017.89 196.358C1018 195.861 1018.11 195.304 1018.21 194.689C1018.32 194.073 1018.4 193.446 1018.45 192.807L1018.52 192.011H1020.57ZM1023.01 191.159V189.384L1029.29 179.455H1030.69V182.068H1029.8L1025.31 189.185V189.298H1033.92V191.159H1023.01ZM1029.9 194V190.619L1029.92 189.81V179.455H1032V194H1029.9Z" fill="#CFCFCF"/>
<path d="M64.5327 411.818V438H59.0611V416.318H48.4759V438H43.0043V411.818H64.5327ZM68.2606 445.364V418.364H73.63V421.662H73.8729C74.1115 421.134 74.4567 420.597 74.9084 420.051C75.3686 419.497 75.9652 419.037 76.6981 418.67C77.4396 418.295 78.3601 418.108 79.4595 418.108C80.8913 418.108 82.2123 418.483 83.4226 419.233C84.6328 419.974 85.6001 421.095 86.3246 422.595C87.049 424.087 87.4112 425.957 87.4112 428.207C87.4112 430.398 87.0575 432.247 86.3501 433.756C85.6513 435.256 84.6967 436.393 83.4865 437.169C82.2848 437.936 80.9382 438.32 79.4467 438.32C78.3899 438.32 77.4908 438.145 76.7493 437.795C76.0163 437.446 75.4155 437.007 74.9467 436.479C74.478 435.942 74.12 435.401 73.8729 434.855H73.7067V445.364H68.2606ZM73.5916 428.182C73.5916 429.349 73.7535 430.368 74.0774 431.237C74.4013 432.107 74.87 432.784 75.4837 433.27C76.0973 433.747 76.843 433.986 77.7209 433.986C78.6072 433.986 79.3572 433.743 79.9709 433.257C80.5845 432.763 81.049 432.081 81.3643 431.212C81.6882 430.334 81.8501 429.324 81.8501 428.182C81.8501 427.048 81.6925 426.051 81.3771 425.19C81.0618 424.33 80.5973 423.656 79.9837 423.17C79.37 422.685 78.6158 422.442 77.7209 422.442C76.8345 422.442 76.0845 422.676 75.4709 423.145C74.8658 423.614 74.4013 424.278 74.0774 425.139C73.7535 426 73.5916 427.014 73.5916 428.182ZM98.474 438.384C96.4883 438.384 94.7709 437.962 93.3221 437.118C91.8817 436.266 90.7695 435.081 89.9854 433.564C89.2013 432.038 88.8093 430.27 88.8093 428.259C88.8093 426.23 89.2013 424.457 89.9854 422.94C90.7695 421.415 91.8817 420.23 93.3221 419.386C94.7709 418.534 96.4883 418.108 98.474 418.108C100.46 418.108 102.173 418.534 103.613 419.386C105.062 420.23 106.179 421.415 106.963 422.94C107.747 424.457 108.139 426.23 108.139 428.259C108.139 430.27 107.747 432.038 106.963 433.564C106.179 435.081 105.062 436.266 103.613 437.118C102.173 437.962 100.46 438.384 98.474 438.384ZM98.4996 434.165C99.403 434.165 100.157 433.909 100.762 433.398C101.368 432.878 101.823 432.17 102.13 431.276C102.446 430.381 102.603 429.362 102.603 428.22C102.603 427.078 102.446 426.06 102.13 425.165C101.823 424.27 101.368 423.562 100.762 423.043C100.157 422.523 99.403 422.263 98.4996 422.263C97.5877 422.263 96.8206 422.523 96.1985 423.043C95.5848 423.562 95.1204 424.27 94.805 425.165C94.4982 426.06 94.3448 427.078 94.3448 428.22C94.3448 429.362 94.4982 430.381 94.805 431.276C95.1204 432.17 95.5848 432.878 96.1985 433.398C96.8206 433.909 97.5877 434.165 98.4996 434.165ZM127.409 418.364V434.241H130.541V444.315H125.249V438H110.24V418.364H115.443V433.717H122.27V418.364H127.409ZM141.198 438.384C139.178 438.384 137.44 437.974 135.982 437.156C134.533 436.33 133.417 435.162 132.633 433.653C131.849 432.136 131.457 430.342 131.457 428.271C131.457 426.251 131.849 424.479 132.633 422.953C133.417 421.428 134.521 420.239 135.944 419.386C137.376 418.534 139.055 418.108 140.981 418.108C142.276 418.108 143.482 418.317 144.599 418.734C145.724 419.143 146.704 419.761 147.539 420.588C148.383 421.415 149.039 422.455 149.508 423.707C149.977 424.952 150.211 426.409 150.211 428.08V429.575H133.63V426.2H145.084C145.084 425.416 144.914 424.722 144.573 424.116C144.232 423.511 143.759 423.038 143.154 422.697C142.557 422.348 141.863 422.173 141.07 422.173C140.244 422.173 139.511 422.365 138.871 422.749C138.241 423.124 137.746 423.631 137.388 424.27C137.03 424.901 136.847 425.604 136.839 426.379V429.588C136.839 430.56 137.018 431.399 137.376 432.107C137.742 432.814 138.258 433.359 138.923 433.743C139.587 434.126 140.376 434.318 141.288 434.318C141.893 434.318 142.447 434.233 142.95 434.062C143.452 433.892 143.883 433.636 144.241 433.295C144.599 432.955 144.871 432.537 145.059 432.043L150.096 432.375C149.84 433.585 149.316 434.642 148.523 435.545C147.739 436.44 146.725 437.139 145.481 437.642C144.245 438.136 142.817 438.384 141.198 438.384ZM165.991 426.009V430.291H155.738V426.009H165.991ZM157.528 418.364V438H152.325V418.364H157.528ZM169.404 418.364V438H164.24V418.364H169.404ZM170.218 422.646V418.364H188.013V422.646H181.685V438H176.495V422.646H170.218ZM205.639 438.384C203.653 438.384 201.936 437.962 200.487 437.118C199.046 436.266 197.934 435.081 197.15 433.564C196.366 432.038 195.974 430.27 195.974 428.259C195.974 426.23 196.366 424.457 197.15 422.94C197.934 421.415 199.046 420.23 200.487 419.386C201.936 418.534 203.653 418.108 205.639 418.108C207.625 418.108 209.338 418.534 210.778 419.386C212.227 420.23 213.343 421.415 214.127 422.94C214.911 424.457 215.304 426.23 215.304 428.259C215.304 430.27 214.911 432.038 214.127 433.564C213.343 435.081 212.227 436.266 210.778 437.118C209.338 437.962 207.625 438.384 205.639 438.384ZM205.664 434.165C206.568 434.165 207.322 433.909 207.927 433.398C208.532 432.878 208.988 432.17 209.295 431.276C209.61 430.381 209.768 429.362 209.768 428.22C209.768 427.078 209.61 426.06 209.295 425.165C208.988 424.27 208.532 423.562 207.927 423.043C207.322 422.523 206.568 422.263 205.664 422.263C204.752 422.263 203.985 422.523 203.363 423.043C202.75 423.562 202.285 424.27 201.97 425.165C201.663 426.06 201.509 427.078 201.509 428.22C201.509 429.362 201.663 430.381 201.97 431.276C202.285 432.17 202.75 432.878 203.363 433.398C203.985 433.909 204.752 434.165 205.664 434.165ZM215.503 422.646V418.364H233.299V422.646H226.97V438H221.78V422.646H215.503ZM235.16 438V418.364H240.606V425.983H242.14L247.484 418.364H253.876L246.934 428.105L253.953 438H247.484L242.639 431.033H240.606V438H235.16ZM260.413 438.371C259.16 438.371 258.044 438.153 257.064 437.719C256.084 437.276 255.308 436.624 254.737 435.763C254.175 434.893 253.893 433.811 253.893 432.516C253.893 431.425 254.094 430.509 254.494 429.767C254.895 429.026 255.44 428.429 256.131 427.977C256.821 427.526 257.605 427.185 258.483 426.955C259.369 426.724 260.298 426.562 261.27 426.469C262.412 426.349 263.332 426.239 264.031 426.136C264.73 426.026 265.237 425.864 265.552 425.651C265.868 425.437 266.025 425.122 266.025 424.705V424.628C266.025 423.818 265.77 423.192 265.258 422.749C264.756 422.305 264.04 422.084 263.111 422.084C262.131 422.084 261.351 422.301 260.771 422.736C260.192 423.162 259.808 423.699 259.621 424.347L254.584 423.938C254.839 422.744 255.342 421.713 256.092 420.844C256.842 419.966 257.81 419.293 258.994 418.824C260.187 418.347 261.568 418.108 263.136 418.108C264.227 418.108 265.271 418.236 266.268 418.491C267.274 418.747 268.165 419.143 268.94 419.68C269.724 420.217 270.342 420.908 270.794 421.751C271.246 422.587 271.471 423.588 271.471 424.756V438H266.307V435.277H266.153C265.838 435.891 265.416 436.432 264.888 436.901C264.359 437.361 263.724 437.723 262.983 437.987C262.241 438.243 261.385 438.371 260.413 438.371ZM261.973 434.612C262.774 434.612 263.481 434.455 264.095 434.139C264.709 433.815 265.19 433.381 265.54 432.835C265.889 432.29 266.064 431.672 266.064 430.982V428.898C265.893 429.009 265.659 429.111 265.361 429.205C265.071 429.29 264.743 429.371 264.376 429.447C264.01 429.516 263.643 429.58 263.277 429.639C262.91 429.69 262.578 429.737 262.28 429.78C261.64 429.874 261.082 430.023 260.605 430.227C260.128 430.432 259.757 430.709 259.493 431.058C259.229 431.399 259.096 431.825 259.096 432.337C259.096 433.078 259.365 433.645 259.902 434.037C260.447 434.42 261.138 434.612 261.973 434.612ZM273.247 432.439H278.526C278.552 433.087 278.842 433.598 279.396 433.973C279.95 434.348 280.666 434.536 281.544 434.536C282.43 434.536 283.176 434.331 283.781 433.922C284.386 433.504 284.688 432.908 284.688 432.132C284.688 431.655 284.569 431.241 284.33 430.892C284.092 430.534 283.759 430.253 283.333 430.048C282.907 429.844 282.413 429.741 281.85 429.741H279.025V426.175H281.85C282.694 426.175 283.342 425.979 283.794 425.587C284.254 425.195 284.484 424.705 284.484 424.116C284.484 423.452 284.245 422.919 283.768 422.518C283.299 422.109 282.664 421.905 281.863 421.905C281.053 421.905 280.38 422.088 279.843 422.455C279.315 422.812 279.042 423.281 279.025 423.861H273.771C273.788 422.685 274.142 421.666 274.832 420.805C275.531 419.945 276.468 419.28 277.644 418.811C278.829 418.342 280.154 418.108 281.62 418.108C283.222 418.108 284.603 418.334 285.762 418.786C286.93 419.229 287.825 419.864 288.447 420.69C289.078 421.517 289.393 422.501 289.393 423.643C289.393 424.683 289.052 425.553 288.37 426.251C287.688 426.95 286.734 427.449 285.507 427.747V427.952C286.316 428.003 287.049 428.22 287.705 428.604C288.362 428.987 288.886 429.516 289.278 430.189C289.67 430.854 289.866 431.642 289.866 432.554C289.866 433.773 289.508 434.817 288.792 435.686C288.085 436.555 287.105 437.224 285.852 437.693C284.607 438.153 283.18 438.384 281.569 438.384C280.001 438.384 278.595 438.158 277.35 437.706C276.115 437.246 275.13 436.572 274.397 435.686C273.673 434.8 273.289 433.717 273.247 432.439ZM297.365 438.371C296.112 438.371 294.996 438.153 294.016 437.719C293.036 437.276 292.26 436.624 291.689 435.763C291.127 434.893 290.845 433.811 290.845 432.516C290.845 431.425 291.046 430.509 291.446 429.767C291.847 429.026 292.392 428.429 293.083 427.977C293.773 427.526 294.557 427.185 295.435 426.955C296.321 426.724 297.25 426.562 298.222 426.469C299.364 426.349 300.284 426.239 300.983 426.136C301.682 426.026 302.189 425.864 302.504 425.651C302.82 425.437 302.977 425.122 302.977 424.705V424.628C302.977 423.818 302.722 423.192 302.21 422.749C301.708 422.305 300.992 422.084 300.063 422.084C299.083 422.084 298.303 422.301 297.723 422.736C297.144 423.162 296.76 423.699 296.573 424.347L291.536 423.938C291.791 422.744 292.294 421.713 293.044 420.844C293.794 419.966 294.762 419.293 295.946 418.824C297.139 418.347 298.52 418.108 300.088 418.108C301.179 418.108 302.223 418.236 303.22 418.491C304.226 418.747 305.117 419.143 305.892 419.68C306.676 420.217 307.294 420.908 307.746 421.751C308.198 422.587 308.423 423.588 308.423 424.756V438H303.259V435.277H303.105C302.79 435.891 302.368 436.432 301.84 436.901C301.311 437.361 300.676 437.723 299.935 437.987C299.193 438.243 298.337 438.371 297.365 438.371ZM298.925 434.612C299.726 434.612 300.433 434.455 301.047 434.139C301.661 433.815 302.142 433.381 302.492 432.835C302.841 432.29 303.016 431.672 303.016 430.982V428.898C302.845 429.009 302.611 429.111 302.313 429.205C302.023 429.29 301.695 429.371 301.328 429.447C300.962 429.516 300.595 429.58 300.229 429.639C299.862 429.69 299.53 429.737 299.232 429.78C298.592 429.874 298.034 430.023 297.557 430.227C297.08 430.432 296.709 430.709 296.445 431.058C296.181 431.399 296.048 431.825 296.048 432.337C296.048 433.078 296.317 433.645 296.854 434.037C297.399 434.42 298.09 434.612 298.925 434.612Z" fill="black"/>
<path opacity="0.4" d="M39.545 666.5H1034.5V556L377.5 535.5C377.5 535.5 45.2827 517.626 39.545 517.016V517C39.4442 517 39.4453 517.005 39.545 517.016V666.5Z" fill="url(#paint1_linear_2806_1392)"/>
<rect x="1030.54" y="553.357" width="9.55842" height="9.55842" rx="4.77921" fill="#CACACA" stroke="#CACACA" stroke-width="0.713315"/>
<path d="M39.5 517L378.5 535L1035 557.5" stroke="#CACACA" stroke-width="4"/>
<path d="M890.074 651.443V675.801L880.989 666.682L877 670.636L892.955 686.557L908.875 670.636L904.955 666.682L895.835 675.801V651.443H890.074Z" fill="#CACACA"/>
<path d="M935.212 686.767C932.281 686.756 929.758 686.034 927.644 684.602C925.542 683.17 923.923 681.097 922.786 678.381C921.661 675.665 921.104 672.398 921.116 668.58C921.116 664.773 921.678 661.528 922.803 658.847C923.94 656.165 925.559 654.125 927.661 652.727C929.775 651.318 932.292 650.614 935.212 650.614C938.133 650.614 940.644 651.318 942.746 652.727C944.86 654.136 946.485 656.182 947.621 658.864C948.758 661.534 949.32 664.773 949.309 668.58C949.309 672.409 948.741 675.682 947.604 678.398C946.479 681.114 944.866 683.187 942.763 684.619C940.661 686.051 938.144 686.767 935.212 686.767ZM935.212 680.648C937.212 680.648 938.809 679.642 940.002 677.631C941.195 675.619 941.786 672.602 941.775 668.58C941.775 665.932 941.502 663.727 940.957 661.966C940.423 660.205 939.661 658.881 938.673 657.994C937.695 657.108 936.542 656.665 935.212 656.665C933.224 656.665 931.633 657.659 930.44 659.648C929.246 661.636 928.644 664.614 928.633 668.58C928.633 671.261 928.9 673.5 929.434 675.295C929.979 677.08 930.746 678.42 931.735 679.318C932.724 680.205 933.883 680.648 935.212 680.648ZM960.634 681.227L960.446 683.102C960.298 684.602 960.014 686.097 959.594 687.585C959.185 689.085 958.753 690.443 958.298 691.659C957.855 692.875 957.497 693.83 957.224 694.523H952.52C952.69 693.852 952.923 692.915 953.219 691.71C953.514 690.517 953.793 689.176 954.054 687.688C954.315 686.199 954.48 684.682 954.548 683.136L954.634 681.227H960.634ZM966.712 686V680.682L979.138 669.176C980.195 668.153 981.082 667.233 981.798 666.415C982.525 665.597 983.076 664.795 983.451 664.011C983.826 663.216 984.013 662.358 984.013 661.438C984.013 660.415 983.781 659.534 983.315 658.795C982.849 658.045 982.212 657.472 981.406 657.074C980.599 656.665 979.684 656.46 978.661 656.46C977.593 656.46 976.661 656.676 975.866 657.108C975.07 657.54 974.457 658.159 974.025 658.966C973.593 659.773 973.377 660.733 973.377 661.847H966.371C966.371 659.562 966.888 657.58 967.923 655.898C968.957 654.216 970.406 652.915 972.269 651.994C974.133 651.074 976.281 650.614 978.712 650.614C981.212 650.614 983.388 651.057 985.241 651.943C987.104 652.818 988.553 654.034 989.587 655.591C990.621 657.148 991.138 658.932 991.138 660.943C991.138 662.261 990.877 663.562 990.354 664.847C989.843 666.131 988.928 667.557 987.61 669.125C986.292 670.682 984.434 672.551 982.036 674.733L976.94 679.727V679.966H991.599V686H966.712ZM1015.56 679.455V677.614C1015.56 676.216 1015.86 674.932 1016.45 673.761C1017.05 672.58 1017.92 671.636 1019.06 670.932C1020.2 670.216 1021.6 669.858 1023.25 669.858C1024.92 669.858 1026.32 670.21 1027.46 670.915C1028.61 671.619 1029.47 672.562 1030.05 673.744C1030.64 674.915 1030.94 676.205 1030.94 677.614V679.455C1030.94 680.852 1030.64 682.142 1030.05 683.324C1029.46 684.494 1028.59 685.432 1027.44 686.136C1026.3 686.852 1024.9 687.21 1023.25 687.21C1021.58 687.21 1020.18 686.852 1019.04 686.136C1017.9 685.432 1017.04 684.494 1016.45 683.324C1015.86 682.142 1015.56 680.852 1015.56 679.455ZM1020.52 677.614V679.455C1020.52 680.261 1020.72 681.023 1021.1 681.739C1021.5 682.455 1022.22 682.812 1023.25 682.812C1024.28 682.812 1024.99 682.46 1025.36 681.756C1025.75 681.051 1025.94 680.284 1025.94 679.455V677.614C1025.94 676.784 1025.76 676.011 1025.4 675.295C1025.03 674.58 1024.32 674.222 1023.25 674.222C1022.23 674.222 1021.52 674.58 1021.12 675.295C1020.72 676.011 1020.52 676.784 1020.52 677.614ZM997.648 659.477V657.636C997.648 656.227 997.949 654.937 998.551 653.767C999.153 652.585 1000.02 651.642 1001.16 650.938C1002.31 650.233 1003.69 649.881 1005.32 649.881C1007 649.881 1008.41 650.233 1009.55 650.938C1010.68 651.642 1011.55 652.585 1012.14 653.767C1012.73 654.937 1013.02 656.227 1013.02 657.636V659.477C1013.02 660.886 1012.72 662.176 1012.12 663.347C1011.53 664.517 1010.66 665.455 1009.51 666.159C1008.38 666.852 1006.98 667.199 1005.32 667.199C1003.66 667.199 1002.26 666.847 1001.11 666.142C999.972 665.426 999.108 664.489 998.517 663.33C997.938 662.159 997.648 660.875 997.648 659.477ZM1002.64 657.636V659.477C1002.64 660.307 1002.84 661.074 1003.22 661.778C1003.62 662.483 1004.32 662.835 1005.32 662.835C1006.36 662.835 1007.07 662.483 1007.45 661.778C1007.84 661.074 1008.03 660.307 1008.03 659.477V657.636C1008.03 656.807 1007.85 656.034 1007.48 655.318C1007.12 654.602 1006.4 654.244 1005.32 654.244C1004.31 654.244 1003.61 654.608 1003.22 655.335C1002.84 656.062 1002.64 656.83 1002.64 657.636ZM999.898 686L1023.9 651.091H1028.36L1004.36 686H999.898Z" fill="black"/>
<path d="M41.3991 502V500.409L46.321 495.31C46.8466 494.756 47.2798 494.27 47.6207 493.854C47.9664 493.432 48.2244 493.032 48.3949 492.653C48.5653 492.275 48.6506 491.872 48.6506 491.446C48.6506 490.963 48.5369 490.546 48.3097 490.196C48.0824 489.841 47.7723 489.569 47.3793 489.379C46.9863 489.185 46.5436 489.088 46.0511 489.088C45.5303 489.088 45.0758 489.195 44.6875 489.408C44.2992 489.621 44.0009 489.921 43.7926 490.31C43.5843 490.698 43.4801 491.152 43.4801 491.673H41.3849C41.3849 490.788 41.5885 490.014 41.9957 489.351C42.4029 488.688 42.9616 488.174 43.6719 487.81C44.3821 487.44 45.1894 487.256 46.0938 487.256C47.0076 487.256 47.8125 487.438 48.5085 487.803C49.2093 488.162 49.7562 488.655 50.1491 489.28C50.5421 489.9 50.7386 490.601 50.7386 491.382C50.7386 491.922 50.6368 492.45 50.4332 492.966C50.2344 493.482 49.8864 494.057 49.3892 494.692C48.892 495.321 48.2008 496.086 47.3153 496.986L44.4247 500.011V500.118H50.973V502H41.3991ZM53.4422 502V500.409L58.3641 495.31C58.8897 494.756 59.3229 494.27 59.6638 493.854C60.0095 493.432 60.2675 493.032 60.438 492.653C60.6084 492.275 60.6936 491.872 60.6936 491.446C60.6936 490.963 60.58 490.546 60.3527 490.196C60.1255 489.841 59.8153 489.569 59.4223 489.379C59.0293 489.185 58.5866 489.088 58.0942 489.088C57.5734 489.088 57.1188 489.195 56.7306 489.408C56.3423 489.621 56.044 489.921 55.8357 490.31C55.6274 490.698 55.5232 491.152 55.5232 491.673H53.428C53.428 490.788 53.6316 490.014 54.0388 489.351C54.446 488.688 55.0047 488.174 55.7149 487.81C56.4252 487.44 57.2325 487.256 58.1368 487.256C59.0506 487.256 59.8556 487.438 60.5516 487.803C61.2524 488.162 61.7992 488.655 62.1922 489.28C62.5852 489.9 62.7817 490.601 62.7817 491.382C62.7817 491.922 62.6799 492.45 62.4763 492.966C62.2774 493.482 61.9294 494.057 61.4323 494.692C60.9351 495.321 60.2438 496.086 59.3584 496.986L56.4678 500.011V500.118H63.0161V502H53.4422ZM68.2765 500.011L68.1699 500.786C68.0989 501.354 67.9782 501.946 67.8077 502.561C67.642 503.181 67.4692 503.757 67.2893 504.287C67.1141 504.817 66.9697 505.239 66.856 505.551H65.3503C65.4119 505.258 65.4971 504.86 65.606 504.358C65.7149 503.861 65.8215 503.304 65.9256 502.689C66.0298 502.073 66.1079 501.446 66.16 500.807L66.231 500.011H68.2765ZM75.5752 502.199C74.9266 502.189 74.2874 502.071 73.6576 501.844C73.0326 501.616 72.4644 501.238 71.9531 500.707C71.4417 500.177 71.0321 499.464 70.7244 498.57C70.4214 497.675 70.2698 496.557 70.2698 495.217C70.2698 493.948 70.3953 492.821 70.6463 491.837C70.9019 490.852 71.2689 490.021 71.7471 489.344C72.2253 488.662 72.803 488.143 73.4801 487.788C74.1571 487.433 74.9171 487.256 75.7599 487.256C76.6264 487.256 77.3958 487.426 78.0681 487.767C78.7405 488.108 79.285 488.579 79.7017 489.18C80.1231 489.782 80.3906 490.466 80.5042 491.233H78.338C78.1912 490.627 77.9 490.132 77.4644 489.749C77.0288 489.365 76.4607 489.173 75.7599 489.173C74.6946 489.173 73.8636 489.637 73.267 490.565C72.6751 491.493 72.3768 492.784 72.3721 494.436H72.4786C72.7296 494.024 73.0374 493.674 73.4019 493.385C73.7713 493.091 74.1832 492.866 74.6377 492.71C75.097 492.549 75.58 492.469 76.0866 492.469C76.9294 492.469 77.6917 492.675 78.3735 493.087C79.0601 493.494 79.607 494.057 80.0142 494.777C80.4214 495.497 80.625 496.321 80.625 497.249C80.625 498.177 80.4142 499.017 79.9928 499.77C79.5762 500.523 78.9891 501.119 78.2315 501.56C77.4739 501.995 76.5885 502.208 75.5752 502.199ZM75.5681 500.352C76.1268 500.352 76.6264 500.215 77.0667 499.94C77.5071 499.666 77.8551 499.296 78.1107 498.832C78.3664 498.368 78.4943 497.85 78.4943 497.277C78.4943 496.718 78.3688 496.209 78.1178 495.75C77.8716 495.291 77.5307 494.926 77.0951 494.656C76.6642 494.386 76.1718 494.251 75.6178 494.251C75.1964 494.251 74.8058 494.332 74.446 494.493C74.0909 494.654 73.7784 494.876 73.5085 495.161C73.2386 495.445 73.0255 495.771 72.8693 496.141C72.7178 496.505 72.642 496.891 72.642 497.298C72.642 497.843 72.7675 498.347 73.0184 498.811C73.2741 499.275 73.6221 499.649 74.0625 499.933C74.5075 500.213 75.0094 500.352 75.5681 500.352Z" fill="#CFCFCF"/>
<path d="M993.688 536V534.409L998.61 529.31C999.135 528.756 999.569 528.27 999.909 527.854C1000.26 527.432 1000.51 527.032 1000.68 526.653C1000.85 526.275 1000.94 525.872 1000.94 525.446C1000.94 524.963 1000.83 524.546 1000.6 524.196C1000.37 523.841 1000.06 523.569 999.668 523.379C999.275 523.185 998.832 523.088 998.34 523.088C997.819 523.088 997.365 523.195 996.976 523.408C996.588 523.621 996.29 523.921 996.081 524.31C995.873 524.698 995.769 525.152 995.769 525.673H993.674C993.674 524.788 993.877 524.014 994.284 523.351C994.692 522.688 995.25 522.174 995.961 521.81C996.671 521.44 997.478 521.256 998.383 521.256C999.296 521.256 1000.1 521.438 1000.8 521.803C1001.5 522.162 1002.04 522.655 1002.44 523.28C1002.83 523.9 1003.03 524.601 1003.03 525.382C1003.03 525.922 1002.93 526.45 1002.72 526.966C1002.52 527.482 1002.18 528.057 1001.68 528.692C1001.18 529.321 1000.49 530.086 999.604 530.986L996.713 534.011V534.118H1003.26V536H993.688ZM1005.73 536V534.409L1010.65 529.31C1011.18 528.756 1011.61 528.27 1011.95 527.854C1012.3 527.432 1012.56 527.032 1012.73 526.653C1012.9 526.275 1012.98 525.872 1012.98 525.446C1012.98 524.963 1012.87 524.546 1012.64 524.196C1012.41 523.841 1012.1 523.569 1011.71 523.379C1011.32 523.185 1010.88 523.088 1010.38 523.088C1009.86 523.088 1009.41 523.195 1009.02 523.408C1008.63 523.621 1008.33 523.921 1008.12 524.31C1007.92 524.698 1007.81 525.152 1007.81 525.673H1005.72C1005.72 524.788 1005.92 524.014 1006.33 523.351C1006.73 522.688 1007.29 522.174 1008 521.81C1008.71 521.44 1009.52 521.256 1010.43 521.256C1011.34 521.256 1012.14 521.438 1012.84 521.803C1013.54 522.162 1014.09 522.655 1014.48 523.28C1014.87 523.9 1015.07 524.601 1015.07 525.382C1015.07 525.922 1014.97 526.45 1014.77 526.966C1014.57 527.482 1014.22 528.057 1013.72 528.692C1013.22 529.321 1012.53 530.086 1011.65 530.986L1008.76 534.011V534.118H1015.3V536H1005.73ZM1020.57 534.011L1020.46 534.786C1020.39 535.354 1020.27 535.946 1020.1 536.561C1019.93 537.181 1019.76 537.757 1019.58 538.287C1019.4 538.817 1019.26 539.239 1019.14 539.551H1017.64C1017.7 539.258 1017.79 538.86 1017.89 538.358C1018 537.861 1018.11 537.304 1018.21 536.689C1018.32 536.073 1018.4 535.446 1018.45 534.807L1018.52 534.011H1020.57ZM1023.01 533.159V531.384L1029.29 521.455H1030.69V524.068H1029.8L1025.31 531.185V531.298H1033.92V533.159H1023.01ZM1029.9 536V532.619L1029.92 531.81V521.455H1032V536H1029.9Z" fill="#CFCFCF"/>
<path opacity="0.4" d="M1034.98 1028.5H40.0303V942.5C34.1256 942.5 736 915 736 915L1034.98 911V1028.5Z" fill="url(#paint2_linear_2806_1392)"/>
<rect x="1030.19" y="905" width="10.2717" height="10.2717" rx="5.13587" fill="#CACACA"/>
<path d="M1032.5 910L734.5 915L40 942.5" stroke="#CACACA" stroke-width="4"/>
<path d="M856.074 1013.44V1037.8L846.989 1028.68L843 1032.64L858.955 1048.56L874.875 1032.64L870.955 1028.68L861.835 1037.8V1013.44H856.074Z" fill="#CACACA"/>
<path d="M901.908 1013.09V1048H894.527V1020.1H894.322L886.328 1025.11V1018.56L894.97 1013.09H901.908ZM923.4 1048.77C920.468 1048.76 917.945 1048.03 915.832 1046.6C913.729 1045.17 912.11 1043.1 910.974 1040.38C909.849 1037.66 909.292 1034.4 909.303 1030.58C909.303 1026.77 909.866 1023.53 910.991 1020.85C912.127 1018.16 913.746 1016.12 915.849 1014.73C917.962 1013.32 920.479 1012.61 923.4 1012.61C926.32 1012.61 928.832 1013.32 930.934 1014.73C933.048 1016.14 934.673 1018.18 935.809 1020.86C936.945 1023.53 937.508 1026.77 937.496 1030.58C937.496 1034.41 936.928 1037.68 935.792 1040.4C934.667 1043.11 933.053 1045.19 930.951 1046.62C928.849 1048.05 926.332 1048.77 923.4 1048.77ZM923.4 1042.65C925.4 1042.65 926.996 1041.64 928.19 1039.63C929.383 1037.62 929.974 1034.6 929.962 1030.58C929.962 1027.93 929.69 1025.73 929.144 1023.97C928.61 1022.2 927.849 1020.88 926.86 1019.99C925.883 1019.11 924.729 1018.66 923.4 1018.66C921.411 1018.66 919.82 1019.66 918.627 1021.65C917.434 1023.64 916.832 1026.61 916.82 1030.58C916.82 1033.26 917.087 1035.5 917.621 1037.3C918.167 1039.08 918.934 1040.42 919.923 1041.32C920.911 1042.2 922.07 1042.65 923.4 1042.65ZM948.821 1043.23L948.634 1045.1C948.486 1046.6 948.202 1048.1 947.781 1049.59C947.372 1051.09 946.94 1052.44 946.486 1053.66C946.043 1054.88 945.685 1055.83 945.412 1056.52H940.707C940.878 1055.85 941.111 1054.91 941.406 1053.71C941.702 1052.52 941.98 1051.18 942.241 1049.69C942.503 1048.2 942.668 1046.68 942.736 1045.14L942.821 1043.23H948.821ZM966.678 1048.48C964.133 1048.48 961.866 1048.04 959.877 1047.16C957.9 1046.28 956.337 1045.06 955.19 1043.52C954.053 1041.96 953.468 1040.16 953.434 1038.13H960.866C960.911 1038.98 961.19 1039.73 961.701 1040.38C962.224 1041.02 962.917 1041.51 963.781 1041.86C964.644 1042.22 965.616 1042.39 966.695 1042.39C967.82 1042.39 968.815 1042.19 969.678 1041.8C970.542 1041.4 971.218 1040.85 971.707 1040.14C972.195 1039.44 972.44 1038.62 972.44 1037.7C972.44 1036.77 972.178 1035.95 971.656 1035.23C971.144 1034.51 970.406 1033.94 969.44 1033.53C968.485 1033.12 967.349 1032.91 966.031 1032.91H962.775V1027.49H966.031C967.144 1027.49 968.127 1027.3 968.979 1026.91C969.843 1026.53 970.513 1025.99 970.991 1025.31C971.468 1024.62 971.707 1023.81 971.707 1022.89C971.707 1022.02 971.496 1021.25 971.076 1020.59C970.667 1019.92 970.087 1019.4 969.337 1019.02C968.599 1018.65 967.735 1018.46 966.746 1018.46C965.746 1018.46 964.832 1018.64 964.002 1019.01C963.173 1019.36 962.508 1019.86 962.008 1020.52C961.508 1021.18 961.241 1021.95 961.207 1022.84H954.133C954.167 1020.83 954.741 1019.06 955.854 1017.52C956.968 1015.99 958.468 1014.79 960.354 1013.93C962.252 1013.05 964.394 1012.61 966.781 1012.61C969.19 1012.61 971.298 1013.05 973.104 1013.93C974.911 1014.8 976.315 1015.98 977.315 1017.47C978.326 1018.95 978.826 1020.61 978.815 1022.45C978.826 1024.4 978.218 1026.03 976.991 1027.34C975.775 1028.65 974.19 1029.48 972.235 1029.83V1030.1C974.803 1030.43 976.758 1031.32 978.099 1032.78C979.451 1034.22 980.121 1036.03 980.11 1038.2C980.121 1040.19 979.548 1041.95 978.388 1043.5C977.241 1045.05 975.656 1046.26 973.633 1047.15C971.61 1048.03 969.292 1048.48 966.678 1048.48ZM1018.33 1021.82V1048H1011.44V1021.82H1018.33ZM1014.97 1033.31V1039.03C1014.42 1039.28 1013.72 1039.52 1012.89 1039.75C1012.06 1039.97 1011.19 1040.14 1010.28 1040.28C1009.38 1040.41 1008.52 1040.48 1007.73 1040.48C1003.97 1040.48 1001.01 1039.71 998.847 1038.16C996.688 1036.61 995.609 1034.12 995.609 1030.72V1021.78H1002.46V1030.72C1002.46 1031.73 1002.63 1032.53 1002.97 1033.12C1003.32 1033.71 1003.88 1034.14 1004.64 1034.4C1005.42 1034.65 1006.44 1034.77 1007.73 1034.77C1008.92 1034.77 1010.09 1034.65 1011.24 1034.4C1012.39 1034.15 1013.63 1033.78 1014.97 1033.31ZM1027.72 1048.44C1026.6 1048.44 1025.63 1048.05 1024.82 1047.25C1024.03 1046.44 1023.63 1045.48 1023.63 1044.35C1023.63 1043.24 1024.03 1042.28 1024.82 1041.49C1025.63 1040.69 1026.6 1040.3 1027.72 1040.3C1028.81 1040.3 1029.77 1040.69 1030.58 1041.49C1031.4 1042.28 1031.81 1043.24 1031.81 1044.35C1031.81 1045.1 1031.62 1045.79 1031.23 1046.41C1030.86 1047.03 1030.36 1047.52 1029.75 1047.9C1029.13 1048.26 1028.46 1048.44 1027.72 1048.44Z" fill="black"/>
<path d="M46.2358 911.256C46.8845 911.26 47.5237 911.379 48.1534 911.611C48.7831 911.843 49.3513 912.222 49.858 912.747C50.3693 913.273 50.7765 913.983 51.0795 914.878C51.3873 915.768 51.5436 916.876 51.5483 918.202C51.5483 919.475 51.4205 920.609 51.1648 921.604C50.9091 922.593 50.5421 923.429 50.0639 924.111C49.5904 924.793 49.0152 925.311 48.3381 925.666C47.661 926.021 46.8987 926.199 46.0511 926.199C45.1847 926.199 44.4152 926.028 43.7429 925.688C43.0705 925.347 42.5237 924.875 42.1023 924.274C41.6809 923.668 41.4181 922.972 41.3139 922.186H43.4801C43.6222 922.811 43.911 923.318 44.3466 923.706C44.7869 924.089 45.3551 924.281 46.0511 924.281C47.1165 924.281 47.9474 923.817 48.544 922.889C49.1406 921.956 49.4413 920.654 49.446 918.983H49.3324C49.0862 919.39 48.7784 919.741 48.4091 920.034C48.0445 920.328 47.6349 920.555 47.1804 920.716C46.7259 920.877 46.2405 920.957 45.7244 920.957C44.8864 920.957 44.1241 920.751 43.4375 920.339C42.7509 919.928 42.2041 919.362 41.7969 918.642C41.3897 917.922 41.1861 917.101 41.1861 916.178C41.1861 915.259 41.3944 914.426 41.8111 913.678C42.2325 912.929 42.8196 912.338 43.5724 911.902C44.33 911.462 45.2178 911.246 46.2358 911.256ZM46.2429 913.102C45.6889 913.102 45.1894 913.24 44.7443 913.514C44.304 913.784 43.956 914.151 43.7003 914.615C43.4446 915.074 43.3168 915.586 43.3168 916.149C43.3168 916.713 43.4399 917.224 43.6861 917.683C43.937 918.138 44.2779 918.5 44.7088 918.77C45.1444 919.035 45.6416 919.168 46.2003 919.168C46.617 919.168 47.0052 919.087 47.3651 918.926C47.7249 918.765 48.0398 918.543 48.3097 918.259C48.5795 917.97 48.7902 917.643 48.9418 917.278C49.0933 916.914 49.169 916.53 49.169 916.128C49.169 915.593 49.0412 915.096 48.7855 914.636C48.5346 914.177 48.1889 913.808 47.7486 913.528C47.3082 913.244 46.8063 913.102 46.2429 913.102ZM56.1553 924.011L56.0488 924.786C55.9777 925.354 55.857 925.946 55.6865 926.561C55.5208 927.181 55.348 927.757 55.1681 928.287C54.9929 928.817 54.8485 929.239 54.7348 929.551H53.2292C53.2907 929.258 53.3759 928.86 53.4848 928.358C53.5937 927.861 53.7003 927.304 53.8044 926.689C53.9086 926.073 53.9867 925.446 54.0388 924.807L54.1098 924.011H56.1553ZM63.3297 926.199C62.3118 926.199 61.4121 926.024 60.6309 925.673C59.8544 925.323 59.2459 924.84 58.8056 924.224C58.3653 923.609 58.1475 922.908 58.1522 922.122C58.1475 921.507 58.2729 920.941 58.5286 920.425C58.789 919.904 59.1418 919.471 59.5869 919.125C60.0319 918.775 60.5291 918.552 61.0783 918.457V918.372C60.3539 918.197 59.7739 917.809 59.3383 917.207C58.9027 916.606 58.6872 915.915 58.692 915.134C58.6872 914.39 58.8837 913.727 59.2815 913.145C59.6839 912.558 60.2355 912.096 60.9363 911.76C61.637 911.424 62.4349 911.256 63.3297 911.256C64.2152 911.256 65.0059 911.426 65.7019 911.767C66.4027 912.103 66.9543 912.565 67.3567 913.152C67.7592 913.734 67.9628 914.395 67.9675 915.134C67.9628 915.915 67.7403 916.606 67.2999 917.207C66.8596 917.809 66.2867 918.197 65.5812 918.372V918.457C66.1257 918.552 66.6157 918.775 67.0513 919.125C67.4917 919.471 67.8421 919.904 68.1025 920.425C68.3676 920.941 68.5026 921.507 68.5073 922.122C68.5026 922.908 68.28 923.609 67.8397 924.224C67.3994 924.84 66.7886 925.323 66.0073 925.673C65.2308 926.024 64.3383 926.199 63.3297 926.199ZM63.3297 924.402C63.9311 924.402 64.4519 924.303 64.8922 924.104C65.3326 923.9 65.6735 923.618 65.915 923.259C66.1565 922.894 66.2796 922.468 66.2843 921.98C66.2796 921.473 66.147 921.026 65.8866 920.638C65.6309 920.25 65.2829 919.944 64.8425 919.722C64.4022 919.499 63.8979 919.388 63.3297 919.388C62.7568 919.388 62.2478 919.499 61.8028 919.722C61.3577 919.944 61.0073 920.25 60.7516 920.638C60.4959 921.026 60.3705 921.473 60.3752 921.98C60.3705 922.468 60.4865 922.894 60.7232 923.259C60.9647 923.618 61.308 923.9 61.753 924.104C62.1981 924.303 62.7237 924.402 63.3297 924.402ZM63.3297 917.634C63.8127 917.634 64.2412 917.536 64.6153 917.342C64.9893 917.148 65.2829 916.878 65.4959 916.533C65.7137 916.187 65.825 915.782 65.8297 915.318C65.825 914.864 65.7161 914.466 65.503 914.125C65.2947 913.784 65.0035 913.521 64.6295 913.337C64.2554 913.147 63.8222 913.053 63.3297 913.053C62.8279 913.053 62.3875 913.147 62.0087 913.337C61.6347 913.521 61.3435 913.784 61.1351 914.125C60.9268 914.466 60.825 914.864 60.8297 915.318C60.825 915.782 60.9292 916.187 61.1422 916.533C61.3553 916.878 61.6489 917.148 62.0229 917.342C62.4017 917.536 62.8373 917.634 63.3297 917.634Z" fill="#CFCFCF"/>
<path d="M998.961 893V891.409L1003.88 886.31C1004.41 885.756 1004.84 885.27 1005.18 884.854C1005.53 884.432 1005.79 884.032 1005.96 883.653C1006.13 883.275 1006.21 882.872 1006.21 882.446C1006.21 881.963 1006.1 881.546 1005.87 881.196C1005.64 880.841 1005.33 880.569 1004.94 880.379C1004.55 880.185 1004.11 880.088 1003.61 880.088C1003.09 880.088 1002.64 880.195 1002.25 880.408C1001.86 880.621 1001.56 880.921 1001.35 881.31C1001.15 881.698 1001.04 882.152 1001.04 882.673H998.947C998.947 881.788 999.151 881.014 999.558 880.351C999.965 879.688 1000.52 879.174 1001.23 878.81C1001.94 878.44 1002.75 878.256 1003.66 878.256C1004.57 878.256 1005.37 878.438 1006.07 878.803C1006.77 879.162 1007.32 879.655 1007.71 880.28C1008.1 880.9 1008.3 881.601 1008.3 882.382C1008.3 882.922 1008.2 883.45 1008 883.966C1007.8 884.482 1007.45 885.057 1006.95 885.692C1006.45 886.321 1005.76 887.086 1004.88 887.986L1001.99 891.011V891.118H1008.54V893H998.961ZM1016.07 893.241C1014.95 893.237 1013.99 892.941 1013.19 892.354C1012.4 891.767 1011.79 890.912 1011.37 889.79C1010.95 888.668 1010.73 887.316 1010.73 885.734C1010.73 884.158 1010.95 882.811 1011.37 881.693C1011.79 880.576 1012.4 879.723 1013.2 879.136C1014 878.549 1014.96 878.256 1016.07 878.256C1017.18 878.256 1018.14 878.552 1018.93 879.143C1019.73 879.731 1020.33 880.583 1020.76 881.7C1021.18 882.813 1021.4 884.158 1021.4 885.734C1021.4 887.321 1021.18 888.675 1020.76 889.797C1020.34 890.914 1019.73 891.769 1018.94 892.361C1018.14 892.948 1017.19 893.241 1016.07 893.241ZM1016.07 891.345C1017.05 891.345 1017.82 890.865 1018.38 889.903C1018.94 888.942 1019.21 887.553 1019.21 885.734C1019.21 884.527 1019.09 883.507 1018.83 882.673C1018.58 881.835 1018.22 881.201 1017.74 880.77C1017.28 880.334 1016.72 880.116 1016.07 880.116C1015.09 880.116 1014.32 880.599 1013.76 881.565C1013.2 882.531 1012.92 883.921 1012.91 885.734C1012.91 886.946 1013.04 887.972 1013.29 888.81C1013.55 889.643 1013.91 890.275 1014.38 890.706C1014.85 891.132 1015.41 891.345 1016.07 891.345ZM1025.96 891.011L1025.85 891.786C1025.78 892.354 1025.66 892.946 1025.49 893.561C1025.32 894.181 1025.15 894.757 1024.97 895.287C1024.79 895.817 1024.65 896.239 1024.54 896.551H1023.03C1023.09 896.258 1023.18 895.86 1023.29 895.358C1023.39 894.861 1023.5 894.304 1023.61 893.689C1023.71 893.073 1023.79 892.446 1023.84 891.807L1023.91 891.011H1025.96ZM1032.46 878.455V893H1030.26V880.656H1030.18L1026.7 882.929V880.827L1030.33 878.455H1032.46Z" fill="#CFCFCF"/>
<defs>
<linearGradient id="paint0_linear_2806_1392" x1="537.475" y1="202.5" x2="537.475" y2="303.5" gradientUnits="userSpaceOnUse">
<stop stop-color="#D9D9D9"/>
<stop offset="1" stop-color="#D9D9D9" stop-opacity="0"/>
</linearGradient>
<linearGradient id="paint1_linear_2806_1392" x1="537.021" y1="574.5" x2="537.021" y2="666.5" gradientUnits="userSpaceOnUse">
<stop stop-color="#D9D9D9"/>
<stop offset="1" stop-color="#D9D9D9" stop-opacity="0"/>
</linearGradient>
<linearGradient id="paint2_linear_2806_1392" x1="537.506" y1="936.5" x2="537.506" y2="1028.5" gradientUnits="userSpaceOnUse">
<stop stop-color="#D9D9D9"/>
<stop offset="1" stop-color="#D9D9D9" stop-opacity="0"/>
</linearGradient>
</defs>
</svg>
