<svg width="1080" height="1085" viewBox="0 0 1080 1085" fill="none" xmlns="http://www.w3.org/2000/svg">
<rect width="1080" height="1085" fill="white"/>
<path d="M915.587 49L912.911 64.8629H915.891L914.181 75H908.668L909.483 70.1698H895.329L894.514 75H889L890.71 64.8629H892.824C893.79 63.5513 894.707 61.8209 895.74 58.1838L898.364 49H915.59H915.587ZM908.584 54.3069H902.535L901.369 58.3918C900.354 61.9393 899.515 63.5484 898.667 64.8629H906.805L908.584 54.3069Z" fill="#EAECEF"/>
<path d="M920.448 49H933.56C938.18 49 940.257 51.3544 939.681 54.7547C939.314 56.93 937.677 58.3311 936.141 58.958C937.818 59.6138 939.146 61.2836 938.663 64.1464C938.05 67.7836 935.085 70.1698 930.167 70.1698H916.875L920.448 49ZM924.295 61.7024L923.67 65.4002H929.69C931.298 65.4002 932.293 64.8051 932.504 63.5513C932.721 62.2687 931.923 61.7024 930.312 61.7024H924.292H924.295ZM925.631 53.7724L925.099 56.9329H931.029C932.282 56.9329 933.161 56.4851 933.352 55.3527C933.543 54.2202 932.814 53.7724 931.561 53.7724H925.631Z" fill="#EAECEF"/>
<path d="M943.47 49H949.579L947.427 61.7602L958.906 49H965.015L961.445 70.1698H955.336L957.479 57.4673L946.01 70.1698H939.9L943.47 49Z" fill="#EAECEF"/>
<path d="M974.098 59.1978L966.907 49H973.821L979.812 57.6464L981.272 49H987.084L985.626 57.6464L994.536 49H1001.3L990.954 58.9291L998.177 70.1698H990.815L985.039 61.1362L983.514 70.1698H977.703L979.227 61.1362L970.402 70.1698H963.309L974.101 59.1978H974.098Z" fill="#EAECEF"/>
<path d="M1010.23 49H1003.13L1010.19 58.9291L999.713 70.1698H1006.81L1017.29 58.9291L1010.23 49ZM1021.44 49H1014.34L1021.41 58.9291L1010.93 70.1698H1018.02L1028.5 58.9291L1021.44 49ZM1032.94 49H1025.85L1032.91 58.9291L1022.43 70.1698H1029.52L1040 58.9291L1032.94 49Z" fill="#EAECEF"/>
<path d="M41.2784 53.3821V48.8182H62.7812V53.3821H54.7656V75H49.294V53.3821H41.2784ZM67.9442 67.8153L75.0138 55.3636H80.3832V75H75.1928V62.5099L68.1488 75H62.7411V55.3636H67.9442V67.8153ZM83.3089 75V55.3636H100.478V75H95.2748V59.6463H88.4481V75H83.3089ZM115.48 67.8153L122.549 55.3636H127.919V75H122.728V62.5099L115.684 75H110.277V55.3636H115.48V67.8153ZM130.844 75V55.3636H148.013V75H142.81V59.6463H135.984V75H130.844ZM159.792 75.3835C157.806 75.3835 156.089 74.9616 154.64 74.1179C153.2 73.2656 152.088 72.081 151.304 70.5639C150.519 69.0384 150.127 67.2699 150.127 65.2585C150.127 63.2301 150.519 61.4574 151.304 59.9403C152.088 58.4148 153.2 57.2301 154.64 56.3864C156.089 55.5341 157.806 55.108 159.792 55.108C161.778 55.108 163.491 55.5341 164.931 56.3864C166.38 57.2301 167.497 58.4148 168.281 59.9403C169.065 61.4574 169.457 63.2301 169.457 65.2585C169.457 67.2699 169.065 69.0384 168.281 70.5639C167.497 72.081 166.38 73.2656 164.931 74.1179C163.491 74.9616 161.778 75.3835 159.792 75.3835ZM159.818 71.1648C160.721 71.1648 161.475 70.9091 162.081 70.3977C162.686 69.8778 163.142 69.1705 163.448 68.2756C163.764 67.3807 163.921 66.3622 163.921 65.2202C163.921 64.0781 163.764 63.0597 163.448 62.1648C163.142 61.2699 162.686 60.5625 162.081 60.0426C161.475 59.5227 160.721 59.2628 159.818 59.2628C158.906 59.2628 158.139 59.5227 157.517 60.0426C156.903 60.5625 156.438 61.2699 156.123 62.1648C155.816 63.0597 155.663 64.0781 155.663 65.2202C155.663 66.3622 155.816 67.3807 156.123 68.2756C156.438 69.1705 156.903 69.8778 157.517 70.3977C158.139 70.9091 158.906 71.1648 159.818 71.1648ZM169.657 59.6463V55.3636H187.452V59.6463H181.124V75H175.933V59.6463H169.657ZM197.559 75.3835C195.539 75.3835 193.801 74.9744 192.343 74.1562C190.894 73.3295 189.778 72.1619 188.994 70.6534C188.21 69.1364 187.818 67.3423 187.818 65.2713C187.818 63.2514 188.21 61.4787 188.994 59.9531C189.778 58.4276 190.882 57.2386 192.305 56.3864C193.737 55.5341 195.416 55.108 197.342 55.108C198.637 55.108 199.843 55.3168 200.96 55.7344C202.085 56.1435 203.065 56.7614 203.9 57.5881C204.744 58.4148 205.4 59.4545 205.869 60.7074C206.338 61.9517 206.572 63.4091 206.572 65.0795V66.5753H189.991V63.2003H201.446C201.446 62.4162 201.275 61.7216 200.934 61.1165C200.593 60.5114 200.12 60.0384 199.515 59.6974C198.919 59.348 198.224 59.1733 197.431 59.1733C196.605 59.1733 195.872 59.3651 195.232 59.7486C194.602 60.1236 194.107 60.6307 193.75 61.2699C193.392 61.9006 193.208 62.6037 193.2 63.3793V66.5881C193.2 67.5597 193.379 68.3991 193.737 69.1065C194.103 69.8139 194.619 70.3594 195.284 70.7429C195.948 71.1264 196.737 71.3182 197.649 71.3182C198.254 71.3182 198.808 71.233 199.311 71.0625C199.813 70.892 200.244 70.6364 200.602 70.2955C200.96 69.9545 201.232 69.5369 201.42 69.0426L206.457 69.375C206.201 70.5852 205.677 71.642 204.884 72.5455C204.1 73.4403 203.086 74.1392 201.842 74.642C200.606 75.1364 199.179 75.3835 197.559 75.3835ZM208.686 75V55.3636H214.132V62.983H215.666L221.01 55.3636H227.402L220.46 65.1051L227.479 75H221.01L216.165 68.0327H214.132V75H208.686ZM233.543 67.8153L240.612 55.3636H245.982V75H240.791V62.5099L233.747 75H228.34V55.3636H233.543V67.8153Z" fill="black"/>
<rect x="40" y="437" width="491" height="295" rx="20" fill="#F7F7F7"/>
<path opacity="0.6" d="M67.4964 460.326H65.1058C65.0376 459.934 64.9119 459.587 64.7287 459.284C64.5455 458.977 64.3175 458.717 64.0447 458.504C63.772 458.291 63.4609 458.131 63.1115 458.025C62.7663 457.914 62.3935 457.859 61.9929 457.859C61.2813 457.859 60.6506 458.038 60.1009 458.396C59.5511 458.749 59.1207 459.269 58.8097 459.955C58.4986 460.637 58.343 461.47 58.343 462.455C58.343 463.456 58.4986 464.3 58.8097 464.986C59.125 465.668 59.5554 466.183 60.1009 466.533C60.6506 466.878 61.2791 467.05 61.9865 467.05C62.3786 467.05 62.745 466.999 63.0859 466.897C63.4311 466.79 63.7401 466.635 64.0128 466.43C64.2898 466.226 64.522 465.974 64.7095 465.676C64.9013 465.378 65.0334 465.037 65.1058 464.653L67.4964 464.666C67.407 465.288 67.2131 465.872 66.9148 466.418C66.6207 466.963 66.2351 467.445 65.7578 467.862C65.2805 468.276 64.7223 468.599 64.0831 468.834C63.4439 469.064 62.7344 469.179 61.9545 469.179C60.804 469.179 59.777 468.913 58.8736 468.38C57.9702 467.847 57.2585 467.078 56.7386 466.072C56.2188 465.067 55.9588 463.861 55.9588 462.455C55.9588 461.044 56.2209 459.838 56.745 458.837C57.2692 457.831 57.983 457.062 58.8864 456.529C59.7898 455.996 60.8125 455.73 61.9545 455.73C62.6832 455.73 63.3608 455.832 63.9872 456.037C64.6136 456.241 65.1719 456.542 65.6619 456.938C66.152 457.33 66.5547 457.812 66.87 458.383C67.1896 458.95 67.3984 459.597 67.4964 460.326ZM70.8929 457.897V455.909H81.3375V457.897H77.2913V469H74.939V457.897H70.8929ZM85.25 469H82.7188L87.3275 455.909H90.255L94.8701 469H92.3388L88.8424 458.594H88.7401L85.25 469ZM85.3331 463.867H92.2365V465.772H85.3331V463.867ZM98.3943 469V455.909H100.766V461.451H106.832V455.909H109.21V469H106.832V463.439H100.766V469H98.3943ZM112.739 472.158V467.063H113.614C113.908 466.829 114.183 466.499 114.439 466.072C114.695 465.646 114.912 465.062 115.091 464.321C115.27 463.58 115.394 462.621 115.462 461.445L115.807 455.909H124.174V467.063H125.631V472.145H123.356V469H115.014V472.158H112.739ZM116.376 467.063H121.899V457.897H117.942L117.737 461.445C117.682 462.335 117.592 463.132 117.469 463.835C117.345 464.538 117.19 465.158 117.002 465.695C116.815 466.228 116.606 466.684 116.376 467.063ZM131.045 469H128.513L133.122 455.909H136.05L140.665 469H138.133L134.637 458.594H134.535L131.045 469ZM131.128 463.867H138.031V465.772H131.128V463.867ZM144.189 469V455.909H149.098C150.104 455.909 150.947 456.097 151.629 456.472C152.315 456.847 152.833 457.362 153.182 458.018C153.536 458.67 153.713 459.412 153.713 460.243C153.713 461.082 153.536 461.828 153.182 462.48C152.829 463.132 152.307 463.646 151.616 464.021C150.926 464.391 150.076 464.577 149.066 464.577H145.812V462.627H148.746C149.334 462.627 149.816 462.525 150.191 462.32C150.566 462.116 150.843 461.835 151.022 461.477C151.205 461.119 151.297 460.707 151.297 460.243C151.297 459.778 151.205 459.369 151.022 459.016C150.843 458.662 150.564 458.387 150.185 458.191C149.81 457.991 149.326 457.891 148.734 457.891H146.56V469H144.189ZM156.998 457.897V455.909H167.442V457.897H163.396V469H161.044V457.897H156.998ZM171.256 469V455.909H173.627V461.451H179.693V455.909H182.071V469H179.693V463.439H173.627V469H171.256ZM188.131 469H185.6L190.209 455.909H193.136L197.751 469H195.22L191.724 458.594H191.621L188.131 469ZM188.214 463.867H195.118V465.772H188.214V463.867ZM210.94 469H208.562V457.891H206.389C205.801 457.891 205.317 457.978 204.938 458.153C204.563 458.323 204.284 458.575 204.101 458.907C203.922 459.235 203.832 459.631 203.832 460.096C203.832 460.56 203.922 460.952 204.101 461.272C204.28 461.587 204.557 461.828 204.932 461.994C205.311 462.156 205.793 462.237 206.376 462.237H209.56V464.206H206.057C205.051 464.206 204.203 464.04 203.513 463.707C202.822 463.371 202.298 462.896 201.94 462.282C201.587 461.664 201.41 460.935 201.41 460.096C201.41 459.261 201.585 458.53 201.934 457.903C202.288 457.273 202.808 456.783 203.494 456.433C204.18 456.084 205.023 455.909 206.025 455.909H210.94V469ZM204.171 463.068H206.76L203.577 469H200.93L204.171 463.068Z" fill="black"/>
<path opacity="0.4" d="M510.991 685.5H55V556L285.5 616.5C285.5 616.5 508.338 612.106 510.991 612.002V612C511.023 612 511.023 612.001 510.991 612.002V685.5Z" fill="url(#paint0_linear_2806_1287)"/>
<rect x="506.188" y="606" width="10.2717" height="10.2717" rx="5.13587" fill="#CACACA"/>
<path d="M509.5 612L290.644 615.928C287.997 615.976 285.357 615.661 282.796 614.992L55 555.5" stroke="#CACACA" stroke-width="4"/>
<path d="M368.074 670.443V694.801L358.989 685.682L355 689.636L370.955 705.557L386.875 689.636L382.955 685.682L373.835 694.801V670.443H368.074Z" fill="#CACACA"/>
<path d="M411.515 669.614C413.31 669.614 415.038 669.915 416.697 670.517C418.367 671.119 419.856 672.08 421.163 673.398C422.481 674.716 423.521 676.466 424.282 678.648C425.055 680.818 425.447 683.483 425.458 686.642C425.458 689.608 425.123 692.256 424.452 694.585C423.793 696.903 422.844 698.875 421.606 700.5C420.367 702.125 418.873 703.364 417.123 704.216C415.373 705.057 413.418 705.477 411.259 705.477C408.93 705.477 406.873 705.028 405.089 704.131C403.305 703.222 401.867 701.989 400.776 700.432C399.697 698.864 399.043 697.102 398.816 695.148H406.094C406.379 696.42 406.975 697.409 407.884 698.114C408.793 698.807 409.918 699.153 411.259 699.153C413.532 699.153 415.259 698.165 416.441 696.188C417.623 694.199 418.219 691.477 418.231 688.023H417.992C417.469 689.045 416.765 689.926 415.879 690.665C414.992 691.392 413.975 691.955 412.827 692.352C411.691 692.75 410.481 692.949 409.197 692.949C407.14 692.949 405.305 692.466 403.691 691.5C402.077 690.534 400.805 689.205 399.873 687.511C398.941 685.818 398.475 683.886 398.475 681.716C398.464 679.375 399.004 677.29 400.094 675.46C401.185 673.631 402.708 672.199 404.663 671.165C406.629 670.119 408.913 669.602 411.515 669.614ZM411.566 675.409C410.418 675.409 409.396 675.682 408.498 676.227C407.612 676.773 406.907 677.506 406.384 678.426C405.873 679.347 405.623 680.375 405.634 681.511C405.634 682.659 405.884 683.693 406.384 684.614C406.896 685.523 407.589 686.25 408.464 686.795C409.35 687.33 410.362 687.597 411.498 687.597C412.35 687.597 413.14 687.437 413.867 687.119C414.594 686.801 415.225 686.364 415.759 685.807C416.305 685.239 416.731 684.585 417.038 683.847C417.344 683.108 417.498 682.324 417.498 681.494C417.487 680.392 417.225 679.381 416.714 678.46C416.202 677.54 415.498 676.801 414.6 676.244C413.702 675.687 412.691 675.409 411.566 675.409ZM436.634 700.227L436.446 702.102C436.298 703.602 436.014 705.097 435.594 706.585C435.185 708.085 434.753 709.443 434.298 710.659C433.855 711.875 433.497 712.83 433.224 713.523H428.52C428.69 712.852 428.923 711.915 429.219 710.71C429.514 709.517 429.793 708.176 430.054 706.688C430.315 705.199 430.48 703.682 430.548 702.136L430.634 700.227H436.634ZM442.712 705V699.682L455.138 688.176C456.195 687.153 457.082 686.233 457.798 685.415C458.525 684.597 459.076 683.795 459.451 683.011C459.826 682.216 460.013 681.358 460.013 680.438C460.013 679.415 459.781 678.534 459.315 677.795C458.849 677.045 458.212 676.472 457.406 676.074C456.599 675.665 455.684 675.46 454.661 675.46C453.593 675.46 452.661 675.676 451.866 676.108C451.07 676.54 450.457 677.159 450.025 677.966C449.593 678.773 449.377 679.733 449.377 680.847H442.371C442.371 678.562 442.888 676.58 443.923 674.898C444.957 673.216 446.406 671.915 448.269 670.994C450.133 670.074 452.281 669.614 454.712 669.614C457.212 669.614 459.388 670.057 461.241 670.943C463.104 671.818 464.553 673.034 465.587 674.591C466.621 676.148 467.138 677.932 467.138 679.943C467.138 681.261 466.877 682.562 466.354 683.847C465.843 685.131 464.928 686.557 463.61 688.125C462.292 689.682 460.434 691.551 458.036 693.733L452.94 698.727V698.966H467.599V705H442.712ZM491.562 698.455V696.614C491.562 695.216 491.858 693.932 492.449 692.761C493.051 691.58 493.92 690.636 495.057 689.932C496.205 689.216 497.602 688.858 499.25 688.858C500.92 688.858 502.324 689.21 503.46 689.915C504.608 690.619 505.472 691.562 506.051 692.744C506.642 693.915 506.938 695.205 506.938 696.614V698.455C506.938 699.852 506.642 701.142 506.051 702.324C505.46 703.494 504.591 704.432 503.443 705.136C502.295 705.852 500.898 706.21 499.25 706.21C497.58 706.21 496.176 705.852 495.04 705.136C493.903 704.432 493.04 703.494 492.449 702.324C491.858 701.142 491.562 699.852 491.562 698.455ZM496.523 696.614V698.455C496.523 699.261 496.716 700.023 497.102 700.739C497.5 701.455 498.216 701.812 499.25 701.812C500.284 701.812 500.989 701.46 501.364 700.756C501.75 700.051 501.943 699.284 501.943 698.455V696.614C501.943 695.784 501.761 695.011 501.398 694.295C501.034 693.58 500.318 693.222 499.25 693.222C498.227 693.222 497.517 693.58 497.119 694.295C496.722 695.011 496.523 695.784 496.523 696.614ZM473.648 678.477V676.636C473.648 675.227 473.949 673.937 474.551 672.767C475.153 671.585 476.023 670.642 477.159 669.938C478.307 669.233 479.693 668.881 481.318 668.881C483 668.881 484.409 669.233 485.545 669.938C486.682 670.642 487.545 671.585 488.136 672.767C488.727 673.937 489.023 675.227 489.023 676.636V678.477C489.023 679.886 488.722 681.176 488.119 682.347C487.528 683.517 486.659 684.455 485.511 685.159C484.375 685.852 482.977 686.199 481.318 686.199C479.659 686.199 478.256 685.847 477.108 685.142C475.972 684.426 475.108 683.489 474.517 682.33C473.938 681.159 473.648 679.875 473.648 678.477ZM478.642 676.636V678.477C478.642 679.307 478.835 680.074 479.222 680.778C479.619 681.483 480.318 681.835 481.318 681.835C482.364 681.835 483.074 681.483 483.449 680.778C483.835 680.074 484.028 679.307 484.028 678.477V676.636C484.028 675.807 483.847 675.034 483.483 674.318C483.119 673.602 482.398 673.244 481.318 673.244C480.307 673.244 479.608 673.608 479.222 674.335C478.835 675.062 478.642 675.83 478.642 676.636ZM475.898 705L499.898 670.091H504.364L480.364 705H475.898Z" fill="black"/>
<path d="M62.1094 542.219C61.0365 542.219 60.0781 542.034 59.2344 541.664C58.3958 541.294 57.7318 540.781 57.2422 540.125C56.7578 539.464 56.4974 538.698 56.4609 537.828H58.9141C58.9453 538.302 59.1042 538.714 59.3906 539.062C59.6823 539.406 60.0625 539.672 60.5313 539.859C61 540.047 61.5208 540.141 62.0938 540.141C62.724 540.141 63.2813 540.031 63.7656 539.812C64.2552 539.594 64.638 539.289 64.9141 538.898C65.1901 538.503 65.3281 538.047 65.3281 537.531C65.3281 536.995 65.1901 536.523 64.9141 536.117C64.6432 535.706 64.2448 535.383 63.7188 535.148C63.1979 534.914 62.5677 534.797 61.8281 534.797H60.4766V532.828H61.8281C62.4219 532.828 62.9427 532.721 63.3906 532.508C63.8438 532.294 64.1979 531.997 64.4531 531.617C64.7083 531.232 64.8359 530.781 64.8359 530.266C64.8359 529.771 64.724 529.341 64.5 528.977C64.2813 528.607 63.9688 528.318 63.5625 528.109C63.1615 527.901 62.6875 527.797 62.1406 527.797C61.6198 527.797 61.1328 527.893 60.6797 528.086C60.2318 528.273 59.8672 528.544 59.5859 528.898C59.3047 529.247 59.1536 529.667 59.1328 530.156H56.7969C56.8229 529.292 57.0781 528.531 57.5625 527.875C58.0521 527.219 58.6979 526.706 59.5 526.336C60.3021 525.966 61.1927 525.781 62.1719 525.781C63.1979 525.781 64.0833 525.982 64.8281 526.383C65.5781 526.779 66.1563 527.307 66.5625 527.969C66.974 528.63 67.1771 529.354 67.1719 530.141C67.1771 531.036 66.9271 531.797 66.4219 532.422C65.9219 533.047 65.2552 533.466 64.4219 533.68V533.805C65.4844 533.966 66.3073 534.388 66.8906 535.07C67.4792 535.753 67.7708 536.599 67.7656 537.609C67.7708 538.49 67.526 539.279 67.0312 539.977C66.5417 540.674 65.8724 541.224 65.0234 541.625C64.1745 542.021 63.2031 542.219 62.1094 542.219ZM71.0353 542L78.0196 528.187V528.07H69.9415V526H80.5196V528.141L73.5587 542H71.0353ZM83.3342 539.812L83.217 540.664C83.1389 541.289 83.0061 541.94 82.8186 542.617C82.6363 543.299 82.4462 543.932 82.2483 544.516C82.0555 545.099 81.8967 545.563 81.7717 545.906H80.1154C80.1831 545.583 80.2769 545.146 80.3967 544.594C80.5165 544.047 80.6337 543.435 80.7483 542.758C80.8628 542.081 80.9488 541.391 81.0061 540.687L81.0842 539.812H83.3342ZM86.0433 538.875V536.922L92.9573 526H94.4964V528.875H93.5198L88.5745 536.703V536.828H98.0511V538.875H86.0433ZM93.6292 542V538.281L93.6448 537.391V526H95.9339V542H93.6292Z" fill="#CFCFCF"/>
<path d="M467.457 596V594.25L472.871 588.641C473.449 588.031 473.925 587.497 474.3 587.039C474.681 586.576 474.965 586.135 475.152 585.719C475.34 585.302 475.433 584.859 475.433 584.391C475.433 583.859 475.308 583.401 475.058 583.016C474.808 582.625 474.467 582.326 474.035 582.117C473.603 581.904 473.116 581.797 472.574 581.797C472.001 581.797 471.501 581.914 471.074 582.148C470.647 582.383 470.319 582.714 470.09 583.141C469.86 583.568 469.746 584.068 469.746 584.641H467.441C467.441 583.667 467.665 582.815 468.113 582.086C468.561 581.357 469.175 580.792 469.957 580.391C470.738 579.984 471.626 579.781 472.621 579.781C473.626 579.781 474.511 579.982 475.277 580.383C476.048 580.779 476.649 581.32 477.082 582.008C477.514 582.69 477.73 583.461 477.73 584.32C477.73 584.914 477.618 585.495 477.394 586.062C477.175 586.63 476.793 587.263 476.246 587.961C475.699 588.654 474.938 589.495 473.965 590.484L470.785 593.812V593.93H477.988V596H467.457ZM486.133 596.219C485.013 596.219 484.023 596.026 483.164 595.641C482.31 595.255 481.64 594.724 481.156 594.047C480.672 593.37 480.432 592.599 480.437 591.734C480.432 591.057 480.57 590.435 480.851 589.867C481.138 589.294 481.526 588.818 482.015 588.438C482.505 588.052 483.052 587.807 483.656 587.703V587.609C482.859 587.417 482.221 586.99 481.742 586.328C481.263 585.667 481.026 584.906 481.031 584.047C481.026 583.229 481.242 582.5 481.679 581.859C482.122 581.214 482.729 580.706 483.5 580.336C484.271 579.966 485.148 579.781 486.133 579.781C487.107 579.781 487.976 579.969 488.742 580.344C489.513 580.714 490.12 581.221 490.562 581.867C491.005 582.508 491.229 583.234 491.234 584.047C491.229 584.906 490.984 585.667 490.5 586.328C490.015 586.99 489.385 587.417 488.609 587.609V587.703C489.208 587.807 489.747 588.052 490.226 588.438C490.711 588.818 491.096 589.294 491.383 589.867C491.674 590.435 491.823 591.057 491.828 591.734C491.823 592.599 491.578 593.37 491.094 594.047C490.609 594.724 489.937 595.255 489.078 595.641C488.224 596.026 487.242 596.219 486.133 596.219ZM486.133 594.242C486.794 594.242 487.367 594.133 487.851 593.914C488.336 593.69 488.711 593.38 488.976 592.984C489.242 592.583 489.377 592.115 489.383 591.578C489.377 591.021 489.232 590.529 488.945 590.102C488.664 589.674 488.281 589.339 487.797 589.094C487.312 588.849 486.758 588.727 486.133 588.727C485.502 588.727 484.943 588.849 484.453 589.094C483.963 589.339 483.578 589.674 483.297 590.102C483.015 590.529 482.877 591.021 482.883 591.578C482.877 592.115 483.005 592.583 483.265 592.984C483.531 593.38 483.909 593.69 484.398 593.914C484.888 594.133 485.466 594.242 486.133 594.242ZM486.133 586.797C486.664 586.797 487.135 586.69 487.547 586.477C487.958 586.263 488.281 585.966 488.515 585.586C488.755 585.206 488.877 584.76 488.883 584.25C488.877 583.75 488.758 583.313 488.523 582.938C488.294 582.562 487.974 582.273 487.562 582.07C487.151 581.862 486.674 581.758 486.133 581.758C485.581 581.758 485.096 581.862 484.679 582.07C484.268 582.273 483.948 582.562 483.719 582.938C483.489 583.313 483.377 583.75 483.383 584.25C483.377 584.76 483.492 585.206 483.726 585.586C483.961 585.966 484.284 586.263 484.695 586.477C485.112 586.69 485.591 586.797 486.133 586.797ZM497.002 593.812L496.885 594.664C496.807 595.289 496.674 595.94 496.486 596.617C496.304 597.299 496.114 597.932 495.916 598.516C495.723 599.099 495.564 599.563 495.439 599.906H493.783C493.851 599.583 493.945 599.146 494.064 598.594C494.184 598.047 494.301 597.435 494.416 596.758C494.53 596.081 494.616 595.391 494.674 594.687L494.752 593.812H497.002ZM500.047 596V594.25L505.461 588.641C506.039 588.031 506.516 587.497 506.891 587.039C507.271 586.576 507.555 586.135 507.742 585.719C507.93 585.302 508.023 584.859 508.023 584.391C508.023 583.859 507.898 583.401 507.648 583.016C507.398 582.625 507.057 582.326 506.625 582.117C506.193 581.904 505.706 581.797 505.164 581.797C504.591 581.797 504.091 581.914 503.664 582.148C503.237 582.383 502.909 582.714 502.68 583.141C502.451 583.568 502.336 584.068 502.336 584.641H500.031C500.031 583.667 500.255 582.815 500.703 582.086C501.151 581.357 501.766 580.792 502.547 580.391C503.328 579.984 504.216 579.781 505.211 579.781C506.216 579.781 507.102 579.982 507.867 580.383C508.638 580.779 509.24 581.32 509.672 582.008C510.104 582.69 510.32 583.461 510.32 584.32C510.32 584.914 510.208 585.495 509.984 586.062C509.766 586.63 509.383 587.263 508.836 587.961C508.289 588.654 507.529 589.495 506.555 590.484L503.375 593.812V593.93H510.578V596H500.047Z" fill="#CFCFCF"/>
<rect x="40" y="124" width="1000" height="295" rx="20" fill="#F7F7F7"/>
<path opacity="0.6" d="M67.4964 150.326H65.1058C65.0376 149.934 64.9119 149.587 64.7287 149.284C64.5455 148.977 64.3175 148.717 64.0447 148.504C63.772 148.291 63.4609 148.131 63.1115 148.025C62.7663 147.914 62.3935 147.859 61.9929 147.859C61.2813 147.859 60.6506 148.038 60.1009 148.396C59.5511 148.749 59.1207 149.269 58.8097 149.955C58.4986 150.637 58.343 151.47 58.343 152.455C58.343 153.456 58.4986 154.3 58.8097 154.986C59.125 155.668 59.5554 156.183 60.1009 156.533C60.6506 156.878 61.2791 157.05 61.9865 157.05C62.3786 157.05 62.745 156.999 63.0859 156.897C63.4311 156.79 63.7401 156.635 64.0128 156.43C64.2898 156.226 64.522 155.974 64.7095 155.676C64.9013 155.378 65.0334 155.037 65.1058 154.653L67.4964 154.666C67.407 155.288 67.2131 155.872 66.9148 156.418C66.6207 156.963 66.2351 157.445 65.7578 157.862C65.2805 158.276 64.7223 158.599 64.0831 158.834C63.4439 159.064 62.7344 159.179 61.9545 159.179C60.804 159.179 59.777 158.913 58.8736 158.38C57.9702 157.847 57.2585 157.078 56.7386 156.072C56.2188 155.067 55.9588 153.861 55.9588 152.455C55.9588 151.044 56.2209 149.838 56.745 148.837C57.2692 147.831 57.983 147.062 58.8864 146.529C59.7898 145.996 60.8125 145.73 61.9545 145.73C62.6832 145.73 63.3608 145.832 63.9872 146.037C64.6136 146.241 65.1719 146.542 65.6619 146.938C66.152 147.33 66.5547 147.812 66.87 148.383C67.1896 148.95 67.3984 149.597 67.4964 150.326ZM71.4681 159V145.909H79.9824V147.897H73.8396V151.451H79.5413V153.439H73.8396V157.012H80.0335V159H71.4681ZM84.2017 145.909H87.1037L90.9901 155.395H91.1435L95.0299 145.909H97.9319V159H95.6563V150.006H95.5348L91.9169 158.962H90.2167L86.5988 149.987H86.4773V159H84.2017V145.909ZM102.314 159V145.909H110.828V147.897H104.686V151.451H110.387V153.439H104.686V157.012H110.88V159H102.314ZM115.048 145.909H117.4V154.832H117.522L123.677 145.909H125.806V159H123.434V150.083H123.326L117.151 159H115.048V145.909ZM121.696 142.534H123.428C123.428 143.28 123.157 143.885 122.616 144.349C122.079 144.81 121.35 145.04 120.43 145.04C119.518 145.04 118.791 144.81 118.25 144.349C117.713 143.885 117.447 143.28 117.451 142.534H119.171C119.171 142.841 119.264 143.116 119.452 143.359C119.644 143.597 119.97 143.717 120.43 143.717C120.882 143.717 121.203 143.597 121.395 143.359C121.591 143.12 121.691 142.845 121.696 142.534ZM130.19 159V145.909H132.561V151.451H138.627V145.909H141.005V159H138.627V153.439H132.561V159H130.19ZM147.065 159H144.534L149.143 145.909H152.07L156.685 159H154.154L150.658 148.594H150.555L147.065 159ZM147.148 153.867H154.052V155.772H147.148V153.867ZM169.874 159H167.496V147.891H165.323C164.735 147.891 164.251 147.978 163.872 148.153C163.497 148.323 163.218 148.575 163.035 148.907C162.856 149.235 162.766 149.631 162.766 150.096C162.766 150.56 162.856 150.952 163.035 151.272C163.214 151.587 163.491 151.828 163.866 151.994C164.245 152.156 164.727 152.237 165.31 152.237H168.494V154.206H164.991C163.985 154.206 163.137 154.04 162.447 153.707C161.756 153.371 161.232 152.896 160.874 152.282C160.521 151.664 160.344 150.935 160.344 150.096C160.344 149.261 160.518 148.53 160.868 147.903C161.222 147.273 161.742 146.783 162.428 146.433C163.114 146.084 163.957 145.909 164.959 145.909H169.874V159ZM163.105 153.068H165.694L162.511 159H159.864L163.105 153.068Z" fill="black"/>
<path opacity="0.4" d="M1019.95 372.5H55V262L686.372 301.5C686.372 301.5 1014.39 225.613 1019.95 223.066V223C1020.05 223 1020.05 223.022 1019.95 223.066V372.5Z" fill="url(#paint1_linear_2806_1287)"/>
<rect x="1015.19" y="218" width="10.2717" height="10.2717" rx="5.13587" fill="#04B34A"/>
<path d="M1017.5 224L699.536 301.944C696.681 302.644 693.735 302.906 690.801 302.72L55 262.5" stroke="#04B34A" stroke-width="4"/>
<path d="M876.074 392.557V368.199L866.989 377.318L863 373.364L878.955 357.443L894.875 373.364L890.955 377.318L881.835 368.199V392.557H876.074Z" fill="#04B34A"/>
<path d="M920.438 392.477C917.813 392.477 915.478 392.051 913.433 391.199C911.398 390.335 909.802 389.159 908.643 387.67C907.484 386.182 906.904 384.494 906.904 382.608C906.904 381.153 907.234 379.818 907.893 378.602C908.563 377.375 909.472 376.358 910.62 375.551C911.768 374.733 913.052 374.21 914.472 373.983V373.744C912.609 373.369 911.097 372.466 909.938 371.034C908.779 369.591 908.2 367.915 908.2 366.006C908.2 364.199 908.728 362.591 909.785 361.182C910.842 359.761 912.29 358.648 914.131 357.841C915.984 357.023 918.086 356.614 920.438 356.614C922.79 356.614 924.887 357.023 926.728 357.841C928.58 358.659 930.035 359.778 931.092 361.199C932.148 362.608 932.683 364.21 932.694 366.006C932.683 367.926 932.092 369.602 930.921 371.034C929.751 372.466 928.251 373.369 926.421 373.744V373.983C927.819 374.21 929.086 374.733 930.222 375.551C931.37 376.358 932.279 377.375 932.95 378.602C933.631 379.818 933.978 381.153 933.989 382.608C933.978 384.494 933.393 386.182 932.234 387.67C931.075 389.159 929.472 390.335 927.427 391.199C925.393 392.051 923.063 392.477 920.438 392.477ZM920.438 387.057C921.609 387.057 922.631 386.847 923.506 386.426C924.381 385.994 925.063 385.403 925.552 384.653C926.052 383.892 926.302 383.017 926.302 382.028C926.302 381.017 926.046 380.125 925.535 379.352C925.023 378.568 924.33 377.955 923.455 377.511C922.58 377.057 921.575 376.83 920.438 376.83C919.313 376.83 918.308 377.057 917.421 377.511C916.535 377.955 915.836 378.568 915.325 379.352C914.825 380.125 914.575 381.017 914.575 382.028C914.575 383.017 914.819 383.892 915.308 384.653C915.796 385.403 916.484 385.994 917.37 386.426C918.256 386.847 919.279 387.057 920.438 387.057ZM920.438 371.46C921.415 371.46 922.285 371.261 923.046 370.864C923.808 370.466 924.404 369.915 924.836 369.21C925.268 368.506 925.484 367.693 925.484 366.773C925.484 365.864 925.268 365.068 924.836 364.386C924.404 363.693 923.813 363.153 923.063 362.767C922.313 362.369 921.438 362.17 920.438 362.17C919.45 362.17 918.575 362.369 917.813 362.767C917.052 363.153 916.455 363.693 916.023 364.386C915.603 365.068 915.393 365.864 915.393 366.773C915.393 367.693 915.609 368.506 916.04 369.21C916.472 369.915 917.069 370.466 917.83 370.864C918.592 371.261 919.461 371.46 920.438 371.46ZM945.634 387.227L945.446 389.102C945.298 390.602 945.014 392.097 944.594 393.585C944.185 395.085 943.753 396.443 943.298 397.659C942.855 398.875 942.497 399.83 942.224 400.523H937.52C937.69 399.852 937.923 398.915 938.219 397.71C938.514 396.517 938.793 395.176 939.054 393.688C939.315 392.199 939.48 390.682 939.548 389.136L939.634 387.227H945.634ZM951.712 392V386.682L964.138 375.176C965.195 374.153 966.082 373.233 966.798 372.415C967.525 371.597 968.076 370.795 968.451 370.011C968.826 369.216 969.013 368.358 969.013 367.438C969.013 366.415 968.781 365.534 968.315 364.795C967.849 364.045 967.212 363.472 966.406 363.074C965.599 362.665 964.684 362.46 963.661 362.46C962.593 362.46 961.661 362.676 960.866 363.108C960.07 363.54 959.457 364.159 959.025 364.966C958.593 365.773 958.377 366.733 958.377 367.847H951.371C951.371 365.562 951.888 363.58 952.923 361.898C953.957 360.216 955.406 358.915 957.269 357.994C959.133 357.074 961.281 356.614 963.712 356.614C966.212 356.614 968.388 357.057 970.241 357.943C972.104 358.818 973.553 360.034 974.587 361.591C975.621 363.148 976.138 364.932 976.138 366.943C976.138 368.261 975.877 369.562 975.354 370.847C974.843 372.131 973.928 373.557 972.61 375.125C971.292 376.682 969.434 378.551 967.036 380.733L961.94 385.727V385.966H976.599V392H951.712ZM1000.56 385.455V383.614C1000.56 382.216 1000.86 380.932 1001.45 379.761C1002.05 378.58 1002.92 377.636 1004.06 376.932C1005.2 376.216 1006.6 375.858 1008.25 375.858C1009.92 375.858 1011.32 376.21 1012.46 376.915C1013.61 377.619 1014.47 378.562 1015.05 379.744C1015.64 380.915 1015.94 382.205 1015.94 383.614V385.455C1015.94 386.852 1015.64 388.142 1015.05 389.324C1014.46 390.494 1013.59 391.432 1012.44 392.136C1011.3 392.852 1009.9 393.21 1008.25 393.21C1006.58 393.21 1005.18 392.852 1004.04 392.136C1002.9 391.432 1002.04 390.494 1001.45 389.324C1000.86 388.142 1000.56 386.852 1000.56 385.455ZM1005.52 383.614V385.455C1005.52 386.261 1005.72 387.023 1006.1 387.739C1006.5 388.455 1007.22 388.812 1008.25 388.812C1009.28 388.812 1009.99 388.46 1010.36 387.756C1010.75 387.051 1010.94 386.284 1010.94 385.455V383.614C1010.94 382.784 1010.76 382.011 1010.4 381.295C1010.03 380.58 1009.32 380.222 1008.25 380.222C1007.23 380.222 1006.52 380.58 1006.12 381.295C1005.72 382.011 1005.52 382.784 1005.52 383.614ZM982.648 365.477V363.636C982.648 362.227 982.949 360.937 983.551 359.767C984.153 358.585 985.023 357.642 986.159 356.938C987.307 356.233 988.693 355.881 990.318 355.881C992 355.881 993.409 356.233 994.545 356.938C995.682 357.642 996.545 358.585 997.136 359.767C997.727 360.937 998.023 362.227 998.023 363.636V365.477C998.023 366.886 997.722 368.176 997.119 369.347C996.528 370.517 995.659 371.455 994.511 372.159C993.375 372.852 991.977 373.199 990.318 373.199C988.659 373.199 987.256 372.847 986.108 372.142C984.972 371.426 984.108 370.489 983.517 369.33C982.938 368.159 982.648 366.875 982.648 365.477ZM987.642 363.636V365.477C987.642 366.307 987.835 367.074 988.222 367.778C988.619 368.483 989.318 368.835 990.318 368.835C991.364 368.835 992.074 368.483 992.449 367.778C992.835 367.074 993.028 366.307 993.028 365.477V363.636C993.028 362.807 992.847 362.034 992.483 361.318C992.119 360.602 991.398 360.244 990.318 360.244C989.307 360.244 988.608 360.608 988.222 361.335C987.835 362.062 987.642 362.83 987.642 363.636ZM984.898 392L1008.9 357.091H1013.36L989.364 392H984.898Z" fill="black"/>
<path d="M61.8203 248.219C60.8411 248.219 59.9609 248.031 59.1797 247.656C58.4036 247.276 57.7839 246.755 57.3203 246.094C56.8568 245.432 56.6094 244.677 56.5781 243.828H58.9219C58.9792 244.516 59.2839 245.081 59.8359 245.523C60.388 245.966 61.0495 246.187 61.8203 246.187C62.4349 246.187 62.9792 246.047 63.4531 245.766C63.9323 245.479 64.3073 245.086 64.5781 244.586C64.8542 244.086 64.9922 243.516 64.9922 242.875C64.9922 242.224 64.8516 241.643 64.5703 241.133C64.2891 240.622 63.901 240.221 63.4063 239.93C62.9167 239.638 62.3542 239.49 61.7188 239.484C61.2344 239.484 60.7474 239.568 60.2578 239.734C59.7682 239.901 59.3724 240.12 59.0703 240.391L56.8594 240.062L57.7578 232H66.5547V234.07H59.7656L59.2578 238.547H59.3516C59.6641 238.245 60.0781 237.992 60.5938 237.789C61.1146 237.586 61.6719 237.484 62.2656 237.484C63.2396 237.484 64.1068 237.716 64.8672 238.18C65.6328 238.643 66.2344 239.276 66.6719 240.078C67.1146 240.875 67.3333 241.792 67.3281 242.828C67.3333 243.865 67.099 244.789 66.625 245.602C66.1563 246.414 65.5052 247.055 64.6719 247.523C63.8438 247.987 62.8932 248.219 61.8203 248.219ZM75.2794 231.781C75.9929 231.786 76.6961 231.917 77.3888 232.172C78.0815 232.427 78.7065 232.844 79.2638 233.422C79.8263 234 80.2742 234.781 80.6075 235.766C80.9461 236.745 81.1179 237.964 81.1231 239.422C81.1231 240.823 80.9825 242.07 80.7013 243.164C80.42 244.253 80.0164 245.172 79.4903 245.922C78.9695 246.672 78.3367 247.242 77.5919 247.633C76.8471 248.023 76.0086 248.219 75.0763 248.219C74.1231 248.219 73.2768 248.031 72.5372 247.656C71.7976 247.281 71.1961 246.763 70.7325 246.102C70.269 245.435 69.9799 244.669 69.8653 243.805H72.2481C72.4044 244.492 72.7221 245.049 73.2013 245.477C73.6856 245.898 74.3106 246.109 75.0763 246.109C76.2481 246.109 77.1622 245.599 77.8185 244.578C78.4747 243.552 78.8054 242.12 78.8106 240.281H78.6856C78.4148 240.729 78.0763 241.115 77.67 241.437C77.269 241.76 76.8185 242.01 76.3185 242.187C75.8185 242.365 75.2846 242.453 74.7169 242.453C73.795 242.453 72.9565 242.227 72.2013 241.773C71.4461 241.32 70.8445 240.698 70.3966 239.906C69.9487 239.115 69.7247 238.211 69.7247 237.195C69.7247 236.185 69.9539 235.268 70.4122 234.445C70.8758 233.622 71.5216 232.971 72.3497 232.492C73.183 232.008 74.1596 231.771 75.2794 231.781ZM75.2872 233.812C74.6778 233.812 74.1284 233.964 73.6388 234.266C73.1544 234.562 72.7716 234.966 72.4903 235.477C72.2091 235.982 72.0685 236.544 72.0685 237.164C72.0685 237.784 72.2039 238.346 72.4747 238.852C72.7508 239.352 73.1258 239.75 73.5997 240.047C74.0789 240.339 74.6258 240.484 75.2403 240.484C75.6987 240.484 76.1258 240.396 76.5216 240.219C76.9174 240.042 77.2638 239.797 77.5606 239.484C77.8575 239.167 78.0893 238.807 78.256 238.406C78.4226 238.005 78.506 237.583 78.506 237.141C78.506 236.552 78.3653 236.005 78.0841 235.5C77.808 234.995 77.4278 234.589 76.9435 234.281C76.4591 233.969 75.907 233.812 75.2872 233.812ZM86.2131 245.812L86.0959 246.664C86.0178 247.289 85.885 247.94 85.6975 248.617C85.5152 249.299 85.3251 249.932 85.1272 250.516C84.9344 251.099 84.7756 251.563 84.6506 251.906H82.9943C83.0621 251.583 83.1558 251.146 83.2756 250.594C83.3954 250.047 83.5126 249.435 83.6272 248.758C83.7417 248.081 83.8277 247.391 83.885 246.687L83.9631 245.812H86.2131ZM94.2816 248.219C93.3024 248.219 92.4222 248.031 91.6409 247.656C90.8649 247.276 90.2451 246.755 89.7816 246.094C89.318 245.432 89.0706 244.677 89.0394 243.828H91.3831C91.4404 244.516 91.7451 245.081 92.2972 245.523C92.8493 245.966 93.5107 246.187 94.2816 246.187C94.8961 246.187 95.4404 246.047 95.9144 245.766C96.3935 245.479 96.7685 245.086 97.0394 244.586C97.3154 244.086 97.4534 243.516 97.4534 242.875C97.4534 242.224 97.3128 241.643 97.0316 241.133C96.7503 240.622 96.3623 240.221 95.8675 239.93C95.3779 239.638 94.8154 239.49 94.18 239.484C93.6956 239.484 93.2086 239.568 92.7191 239.734C92.2295 239.901 91.8336 240.12 91.5316 240.391L89.3206 240.062L90.2191 232H99.0159V234.07H92.2269L91.7191 238.547H91.8128C92.1253 238.245 92.5394 237.992 93.055 237.789C93.5758 237.586 94.1331 237.484 94.7269 237.484C95.7008 237.484 96.568 237.716 97.3284 238.18C98.0941 238.643 98.6956 239.276 99.1331 240.078C99.5758 240.875 99.7946 241.792 99.7894 242.828C99.7946 243.865 99.5602 244.789 99.0862 245.602C98.6175 246.414 97.9665 247.055 97.1331 247.523C96.305 247.987 95.3545 248.219 94.2816 248.219Z" fill="#CFCFCF"/>
<path d="M986.146 205.219C985.433 205.208 984.73 205.078 984.037 204.828C983.349 204.578 982.724 204.161 982.162 203.578C981.599 202.995 981.149 202.211 980.81 201.227C980.477 200.242 980.31 199.013 980.31 197.539C980.31 196.143 980.448 194.904 980.724 193.82C981.006 192.737 981.409 191.823 981.935 191.078C982.461 190.328 983.097 189.758 983.841 189.367C984.586 188.977 985.422 188.781 986.349 188.781C987.302 188.781 988.149 188.969 988.888 189.344C989.628 189.719 990.227 190.237 990.685 190.898C991.149 191.56 991.443 192.312 991.568 193.156H989.185C989.024 192.49 988.703 191.945 988.224 191.523C987.745 191.102 987.12 190.891 986.349 190.891C985.177 190.891 984.263 191.401 983.607 192.422C982.956 193.443 982.628 194.862 982.623 196.68H982.74C983.016 196.227 983.355 195.841 983.756 195.523C984.162 195.201 984.615 194.953 985.115 194.781C985.62 194.604 986.151 194.516 986.709 194.516C987.636 194.516 988.474 194.742 989.224 195.195C989.98 195.643 990.581 196.263 991.029 197.055C991.477 197.846 991.701 198.753 991.701 199.773C991.701 200.794 991.469 201.719 991.006 202.547C990.547 203.375 989.901 204.031 989.068 204.516C988.235 204.995 987.261 205.229 986.146 205.219ZM986.138 203.187C986.753 203.187 987.302 203.036 987.787 202.734C988.271 202.432 988.654 202.026 988.935 201.516C989.216 201.005 989.357 200.435 989.357 199.805C989.357 199.19 989.219 198.63 988.943 198.125C988.672 197.62 988.297 197.219 987.818 196.922C987.344 196.625 986.802 196.477 986.193 196.477C985.73 196.477 985.3 196.565 984.904 196.742C984.513 196.919 984.17 197.164 983.873 197.477C983.576 197.789 983.341 198.148 983.17 198.555C983.003 198.956 982.92 199.38 982.92 199.828C982.92 200.427 983.058 200.982 983.334 201.492C983.615 202.003 983.998 202.414 984.482 202.727C984.972 203.034 985.524 203.187 986.138 203.187ZM994.863 205L1001.85 191.187V191.07H993.769V189H1004.35V191.141L997.387 205H994.863ZM1007.16 202.812L1007.04 203.664C1006.97 204.289 1006.83 204.94 1006.65 205.617C1006.46 206.299 1006.27 206.932 1006.08 207.516C1005.88 208.099 1005.72 208.563 1005.6 208.906H1003.94C1004.01 208.583 1004.1 208.146 1004.22 207.594C1004.34 207.047 1004.46 206.435 1004.58 205.758C1004.69 205.081 1004.78 204.391 1004.83 203.687L1004.91 202.812H1007.16ZM1010.34 205L1017.32 191.187V191.07H1009.24V189H1019.82V191.141L1012.86 205H1010.34Z" fill="#CFCFCF"/>
<rect x="40" y="750" width="491" height="295" rx="20" fill="#F7F7F7"/>
<path opacity="0.6" d="M56.2912 782V768.909H61.3026C62.2486 768.909 63.0348 769.058 63.6612 769.357C64.2919 769.651 64.7628 770.053 65.0739 770.565C65.3892 771.076 65.5469 771.656 65.5469 772.303C65.5469 772.836 65.4446 773.292 65.2401 773.671C65.0355 774.046 64.7607 774.351 64.4155 774.585C64.0703 774.82 63.6847 774.988 63.2585 775.09V775.218C63.723 775.244 64.1683 775.386 64.5945 775.646C65.0249 775.902 65.3764 776.264 65.6491 776.733C65.9219 777.202 66.0582 777.768 66.0582 778.433C66.0582 779.111 65.8942 779.72 65.5661 780.261C65.2379 780.798 64.7436 781.222 64.0831 781.533C63.4226 781.844 62.5916 782 61.5902 782H56.2912ZM58.6626 780.018H61.2131C62.0739 780.018 62.6939 779.854 63.0732 779.526C63.4567 779.194 63.6484 778.768 63.6484 778.248C63.6484 777.86 63.5526 777.511 63.3608 777.2C63.169 776.884 62.8963 776.637 62.5426 776.458C62.1889 776.275 61.767 776.183 61.277 776.183H58.6626V780.018ZM58.6626 774.477H61.0085C61.4176 774.477 61.7862 774.402 62.1143 774.253C62.4425 774.099 62.7003 773.884 62.8878 773.607C63.0795 773.326 63.1754 772.994 63.1754 772.61C63.1754 772.103 62.9964 771.685 62.6385 771.357C62.2848 771.029 61.7585 770.865 61.0597 770.865H58.6626V774.477ZM81.6187 775.455C81.6187 776.865 81.3545 778.073 80.8261 779.079C80.302 780.08 79.586 780.847 78.6784 781.38C77.775 781.913 76.7501 782.179 75.6038 782.179C74.4575 782.179 73.4305 781.913 72.5228 781.38C71.6194 780.843 70.9035 780.074 70.3751 779.072C69.851 778.067 69.5889 776.861 69.5889 775.455C69.5889 774.044 69.851 772.838 70.3751 771.837C70.9035 770.831 71.6194 770.062 72.5228 769.529C73.4305 768.996 74.4575 768.73 75.6038 768.73C76.7501 768.73 77.775 768.996 78.6784 769.529C79.586 770.062 80.302 770.831 80.8261 771.837C81.3545 772.838 81.6187 774.044 81.6187 775.455ZM79.2345 775.455C79.2345 774.462 79.0789 773.624 78.7679 772.942C78.461 772.256 78.0349 771.739 77.4895 771.389C76.944 771.036 76.3154 770.859 75.6038 770.859C74.8922 770.859 74.2636 771.036 73.7181 771.389C73.1727 771.739 72.7444 772.256 72.4333 772.942C72.1265 773.624 71.9731 774.462 71.9731 775.455C71.9731 776.447 72.1265 777.287 72.4333 777.973C72.7444 778.655 73.1727 779.173 73.7181 779.526C74.2636 779.876 74.8922 780.05 75.6038 780.05C76.3154 780.05 76.944 779.876 77.4895 779.526C78.0349 779.173 78.461 778.655 78.7679 777.973C79.0789 777.287 79.2345 776.447 79.2345 775.455ZM85.6607 782V768.909H94.1749V770.897H88.0322V774.451H93.7339V776.439H88.0322V780.012H94.2261V782H85.6607ZM98.3943 782V768.909H100.766V774.451H106.832V768.909H109.21V782H106.832V776.439H100.766V782H98.3943ZM113.589 782V768.909H115.96V774.451H122.026V768.909H124.404V782H122.026V776.439H115.96V782H113.589ZM130.464 782H127.933L132.542 768.909H135.469L140.085 782H137.553L134.057 771.594H133.955L130.464 782ZM130.548 776.867H137.451V778.772H130.548V776.867ZM153.274 782H150.896V770.891H148.722C148.134 770.891 147.651 770.978 147.271 771.153C146.896 771.323 146.617 771.575 146.434 771.907C146.255 772.235 146.166 772.631 146.166 773.096C146.166 773.56 146.255 773.952 146.434 774.272C146.613 774.587 146.89 774.828 147.265 774.994C147.644 775.156 148.126 775.237 148.71 775.237H151.893V777.206H148.39C147.384 777.206 146.536 777.04 145.846 776.707C145.156 776.371 144.632 775.896 144.274 775.282C143.92 774.664 143.743 773.935 143.743 773.096C143.743 772.261 143.918 771.53 144.267 770.903C144.621 770.273 145.141 769.783 145.827 769.433C146.513 769.084 147.357 768.909 148.358 768.909H153.274V782ZM146.504 776.068H149.093L145.91 782H143.264L146.504 776.068Z" fill="black"/>
<path opacity="0.4" d="M55 998.5H510.991V893H285.5H55V998.5Z" fill="url(#paint2_linear_2806_1287)"/>
<rect x="506.188" y="887" width="10.2717" height="10.2717" rx="5.13587" fill="#CACACA"/>
<path d="M509.5 893H282.655L55 893" stroke="#CACACA" stroke-width="4"/>
<path d="M377.074 983.443V1007.8L367.989 998.682L364 1002.64L379.955 1018.56L395.875 1002.64L391.955 998.682L382.835 1007.8V983.443H377.074Z" fill="#CACACA"/>
<path d="M422.322 1018.77C419.39 1018.76 416.867 1018.03 414.754 1016.6C412.651 1015.17 411.032 1013.1 409.896 1010.38C408.771 1007.66 408.214 1004.4 408.225 1000.58C408.225 996.773 408.788 993.528 409.913 990.847C411.049 988.165 412.668 986.125 414.771 984.727C416.884 983.318 419.401 982.614 422.322 982.614C425.242 982.614 427.754 983.318 429.856 984.727C431.969 986.136 433.594 988.182 434.731 990.864C435.867 993.534 436.43 996.773 436.418 1000.58C436.418 1004.41 435.85 1007.68 434.714 1010.4C433.589 1013.11 431.975 1015.19 429.873 1016.62C427.771 1018.05 425.254 1018.77 422.322 1018.77ZM422.322 1012.65C424.322 1012.65 425.918 1011.64 427.112 1009.63C428.305 1007.62 428.896 1004.6 428.884 1000.58C428.884 997.932 428.612 995.727 428.066 993.966C427.532 992.205 426.771 990.881 425.782 989.994C424.805 989.108 423.651 988.665 422.322 988.665C420.333 988.665 418.742 989.659 417.549 991.648C416.356 993.636 415.754 996.614 415.742 1000.58C415.742 1003.26 416.009 1005.5 416.543 1007.3C417.089 1009.08 417.856 1010.42 418.844 1011.32C419.833 1012.2 420.992 1012.65 422.322 1012.65ZM447.743 1013.23L447.555 1015.1C447.408 1016.6 447.124 1018.1 446.703 1019.59C446.294 1021.09 445.862 1022.44 445.408 1023.66C444.964 1024.88 444.607 1025.83 444.334 1026.52H439.629C439.8 1025.85 440.033 1024.91 440.328 1023.71C440.624 1022.52 440.902 1021.18 441.163 1019.69C441.425 1018.2 441.589 1016.68 441.658 1015.14L441.743 1013.23H447.743ZM464.65 983.091V1018H457.269V990.097H457.065L449.07 995.108V988.562L457.712 983.091H464.65ZM491.562 1011.45V1009.61C491.562 1008.22 491.858 1006.93 492.449 1005.76C493.051 1004.58 493.92 1003.64 495.057 1002.93C496.205 1002.22 497.602 1001.86 499.25 1001.86C500.92 1001.86 502.324 1002.21 503.46 1002.91C504.608 1003.62 505.472 1004.56 506.051 1005.74C506.642 1006.91 506.938 1008.2 506.938 1009.61V1011.45C506.938 1012.85 506.642 1014.14 506.051 1015.32C505.46 1016.49 504.591 1017.43 503.443 1018.14C502.295 1018.85 500.898 1019.21 499.25 1019.21C497.58 1019.21 496.176 1018.85 495.04 1018.14C493.903 1017.43 493.04 1016.49 492.449 1015.32C491.858 1014.14 491.562 1012.85 491.562 1011.45ZM496.523 1009.61V1011.45C496.523 1012.26 496.716 1013.02 497.102 1013.74C497.5 1014.45 498.216 1014.81 499.25 1014.81C500.284 1014.81 500.989 1014.46 501.364 1013.76C501.75 1013.05 501.943 1012.28 501.943 1011.45V1009.61C501.943 1008.78 501.761 1008.01 501.398 1007.3C501.034 1006.58 500.318 1006.22 499.25 1006.22C498.227 1006.22 497.517 1006.58 497.119 1007.3C496.722 1008.01 496.523 1008.78 496.523 1009.61ZM473.648 991.477V989.636C473.648 988.227 473.949 986.937 474.551 985.767C475.153 984.585 476.023 983.642 477.159 982.938C478.307 982.233 479.693 981.881 481.318 981.881C483 981.881 484.409 982.233 485.545 982.938C486.682 983.642 487.545 984.585 488.136 985.767C488.727 986.937 489.023 988.227 489.023 989.636V991.477C489.023 992.886 488.722 994.176 488.119 995.347C487.528 996.517 486.659 997.455 485.511 998.159C484.375 998.852 482.977 999.199 481.318 999.199C479.659 999.199 478.256 998.847 477.108 998.142C475.972 997.426 475.108 996.489 474.517 995.33C473.938 994.159 473.648 992.875 473.648 991.477ZM478.642 989.636V991.477C478.642 992.307 478.835 993.074 479.222 993.778C479.619 994.483 480.318 994.835 481.318 994.835C482.364 994.835 483.074 994.483 483.449 993.778C483.835 993.074 484.028 992.307 484.028 991.477V989.636C484.028 988.807 483.847 988.034 483.483 987.318C483.119 986.602 482.398 986.244 481.318 986.244C480.307 986.244 479.608 986.608 479.222 987.335C478.835 988.062 478.642 988.83 478.642 989.636ZM475.898 1018L499.898 983.091H504.364L480.364 1018H475.898Z" fill="black"/>
<path d="M62.6094 860V876H60.1875V862.422H60.0938L56.2656 864.922V862.609L60.2578 860H62.6094Z" fill="#CFCFCF"/>
<path d="M485.803 876.266C484.568 876.26 483.513 875.935 482.638 875.289C481.763 874.643 481.094 873.703 480.631 872.469C480.167 871.234 479.935 869.747 479.935 868.008C479.935 866.273 480.167 864.792 480.631 863.562C481.099 862.333 481.771 861.396 482.646 860.75C483.526 860.104 484.579 859.781 485.803 859.781C487.026 859.781 488.076 860.107 488.951 860.758C489.826 861.404 490.495 862.341 490.959 863.57C491.428 864.794 491.662 866.273 491.662 868.008C491.662 869.753 491.43 871.242 490.967 872.477C490.503 873.706 489.834 874.646 488.959 875.297C488.084 875.943 487.032 876.266 485.803 876.266ZM485.803 874.18C486.886 874.18 487.732 873.651 488.342 872.594C488.956 871.536 489.263 870.008 489.263 868.008C489.263 866.68 489.123 865.557 488.842 864.641C488.566 863.719 488.167 863.021 487.646 862.547C487.131 862.068 486.516 861.828 485.803 861.828C484.724 861.828 483.878 862.359 483.263 863.422C482.649 864.484 482.339 866.013 482.334 868.008C482.334 869.341 482.472 870.469 482.748 871.391C483.029 872.307 483.428 873.003 483.943 873.477C484.459 873.945 485.079 874.18 485.803 874.18ZM496.701 873.812L496.584 874.664C496.506 875.289 496.373 875.94 496.185 876.617C496.003 877.299 495.813 877.932 495.615 878.516C495.422 879.099 495.264 879.563 495.139 879.906H493.482C493.55 879.583 493.644 879.146 493.764 878.594C493.883 878.047 494.001 877.435 494.115 876.758C494.23 876.081 494.316 875.391 494.373 874.687L494.451 873.812H496.701ZM504.873 859.781C505.587 859.786 506.29 859.917 506.982 860.172C507.675 860.427 508.3 860.844 508.857 861.422C509.42 862 509.868 862.781 510.201 863.766C510.54 864.745 510.712 865.964 510.717 867.422C510.717 868.823 510.576 870.07 510.295 871.164C510.014 872.253 509.61 873.172 509.084 873.922C508.563 874.672 507.93 875.242 507.186 875.633C506.441 876.023 505.602 876.219 504.67 876.219C503.717 876.219 502.87 876.031 502.131 875.656C501.391 875.281 500.79 874.763 500.326 874.102C499.863 873.435 499.574 872.669 499.459 871.805H501.842C501.998 872.492 502.316 873.049 502.795 873.477C503.279 873.898 503.904 874.109 504.67 874.109C505.842 874.109 506.756 873.599 507.412 872.578C508.068 871.552 508.399 870.12 508.404 868.281H508.279C508.008 868.729 507.67 869.115 507.264 869.437C506.863 869.76 506.412 870.01 505.912 870.187C505.412 870.365 504.878 870.453 504.311 870.453C503.389 870.453 502.55 870.227 501.795 869.773C501.04 869.32 500.438 868.698 499.99 867.906C499.542 867.115 499.318 866.211 499.318 865.195C499.318 864.185 499.548 863.268 500.006 862.445C500.469 861.622 501.115 860.971 501.943 860.492C502.777 860.008 503.753 859.771 504.873 859.781ZM504.881 861.812C504.271 861.812 503.722 861.964 503.232 862.266C502.748 862.562 502.365 862.966 502.084 863.477C501.803 863.982 501.662 864.544 501.662 865.164C501.662 865.784 501.798 866.346 502.068 866.852C502.344 867.352 502.719 867.75 503.193 868.047C503.673 868.339 504.219 868.484 504.834 868.484C505.292 868.484 505.719 868.396 506.115 868.219C506.511 868.042 506.857 867.797 507.154 867.484C507.451 867.167 507.683 866.807 507.85 866.406C508.016 866.005 508.1 865.583 508.1 865.141C508.1 864.552 507.959 864.005 507.678 863.5C507.402 862.995 507.021 862.589 506.537 862.281C506.053 861.969 505.501 861.812 504.881 861.812Z" fill="#CFCFCF"/>
<rect x="549" y="437" width="491" height="295" rx="20" fill="#F7F7F7"/>
<path opacity="0.6" d="M567.663 458.909V472H565.291V458.909H567.663ZM571.455 460.897V458.909H581.9V460.897H577.854V472H575.502V460.897H571.455ZM590.754 464.502V466.407H584.86V464.502H590.754ZM595.09 458.909H597.442V467.832H597.563L603.719 458.909H605.847V472H603.476V463.083H603.367L597.193 472H595.09V458.909ZM620.913 458.909V472H618.56V460.878H612.833V472H610.481V458.909H620.913ZM637.246 465.455C637.246 466.865 636.982 468.073 636.454 469.079C635.93 470.08 635.214 470.847 634.306 471.38C633.403 471.913 632.378 472.179 631.232 472.179C630.085 472.179 629.058 471.913 628.151 471.38C627.247 470.843 626.531 470.074 626.003 469.072C625.479 468.067 625.217 466.861 625.217 465.455C625.217 464.044 625.479 462.838 626.003 461.837C626.531 460.831 627.247 460.062 628.151 459.529C629.058 458.996 630.085 458.73 631.232 458.73C632.378 458.73 633.403 458.996 634.306 459.529C635.214 460.062 635.93 460.831 636.454 461.837C636.982 462.838 637.246 464.044 637.246 465.455ZM634.862 465.455C634.862 464.462 634.707 463.624 634.396 462.942C634.089 462.256 633.663 461.739 633.117 461.389C632.572 461.036 631.943 460.859 631.232 460.859C630.52 460.859 629.891 461.036 629.346 461.389C628.8 461.739 628.372 462.256 628.061 462.942C627.754 463.624 627.601 464.462 627.601 465.455C627.601 466.447 627.754 467.287 628.061 467.973C628.372 468.655 628.8 469.173 629.346 469.526C629.891 469.876 630.52 470.05 631.232 470.05C631.943 470.05 632.572 469.876 633.117 469.526C633.663 469.173 634.089 468.655 634.396 467.973C634.707 467.287 634.862 466.447 634.862 465.455ZM640.133 460.897V458.909H650.578V460.897H646.532V472H644.179V460.897H640.133ZM654.391 472V458.909H662.905V460.897H656.763V464.451H662.464V466.439H656.763V470.012H662.957V472H654.391ZM674.968 472L670.66 466.279H669.496V472H667.125V458.909H669.496V464.291H670.091L674.744 458.909H677.665L672.494 464.879L677.889 472H674.968ZM682.981 472H680.45L685.058 458.909H687.986L692.601 472H690.07L686.573 461.594H686.471L682.981 472ZM683.064 466.867H689.967V468.772H683.064V466.867Z" fill="black"/>
<path opacity="0.4" d="M1019.99 685.5H564V575L862.356 614.5C862.356 614.5 1017.36 538.613 1019.99 536.066V536C1020.04 536 1020.04 536.022 1019.99 536.066V685.5Z" fill="url(#paint3_linear_2806_1287)"/>
<rect x="1015.19" y="531" width="10.2717" height="10.2717" rx="5.13587" fill="#04B34A"/>
<path d="M1017.5 537L873.8 611.763C868.5 614.52 862.478 615.573 856.556 614.778L564 575.5" stroke="#04B34A" stroke-width="4"/>
<path d="M878.074 705.557V681.199L868.989 690.318L865 686.364L880.955 670.443L896.875 686.364L892.955 690.318L883.835 681.199V705.557H878.074Z" fill="#04B34A"/>
<path d="M923.212 705.767C920.281 705.756 917.758 705.034 915.644 703.602C913.542 702.17 911.923 700.097 910.786 697.381C909.661 694.665 909.104 691.398 909.116 687.58C909.116 683.773 909.678 680.528 910.803 677.847C911.94 675.165 913.559 673.125 915.661 671.727C917.775 670.318 920.292 669.614 923.212 669.614C926.133 669.614 928.644 670.318 930.746 671.727C932.86 673.136 934.485 675.182 935.621 677.864C936.758 680.534 937.32 683.773 937.309 687.58C937.309 691.409 936.741 694.682 935.604 697.398C934.479 700.114 932.866 702.187 930.763 703.619C928.661 705.051 926.144 705.767 923.212 705.767ZM923.212 699.648C925.212 699.648 926.809 698.642 928.002 696.631C929.195 694.619 929.786 691.602 929.775 687.58C929.775 684.932 929.502 682.727 928.957 680.966C928.423 679.205 927.661 677.881 926.673 676.994C925.695 676.108 924.542 675.665 923.212 675.665C921.224 675.665 919.633 676.659 918.44 678.648C917.246 680.636 916.644 683.614 916.633 687.58C916.633 690.261 916.9 692.5 917.434 694.295C917.979 696.08 918.746 697.42 919.735 698.318C920.724 699.205 921.883 699.648 923.212 699.648ZM948.634 700.227L948.446 702.102C948.298 703.602 948.014 705.097 947.594 706.585C947.185 708.085 946.753 709.443 946.298 710.659C945.855 711.875 945.497 712.83 945.224 713.523H940.52C940.69 712.852 940.923 711.915 941.219 710.71C941.514 709.517 941.793 708.176 942.054 706.688C942.315 705.199 942.48 703.682 942.548 702.136L942.634 700.227H948.634ZM954.781 705L969.252 676.364V676.125H952.394V670.091H976.888V676.21L962.4 705H954.781ZM1000.56 698.455V696.614C1000.56 695.216 1000.86 693.932 1001.45 692.761C1002.05 691.58 1002.92 690.636 1004.06 689.932C1005.2 689.216 1006.6 688.858 1008.25 688.858C1009.92 688.858 1011.32 689.21 1012.46 689.915C1013.61 690.619 1014.47 691.562 1015.05 692.744C1015.64 693.915 1015.94 695.205 1015.94 696.614V698.455C1015.94 699.852 1015.64 701.142 1015.05 702.324C1014.46 703.494 1013.59 704.432 1012.44 705.136C1011.3 705.852 1009.9 706.21 1008.25 706.21C1006.58 706.21 1005.18 705.852 1004.04 705.136C1002.9 704.432 1002.04 703.494 1001.45 702.324C1000.86 701.142 1000.56 699.852 1000.56 698.455ZM1005.52 696.614V698.455C1005.52 699.261 1005.72 700.023 1006.1 700.739C1006.5 701.455 1007.22 701.812 1008.25 701.812C1009.28 701.812 1009.99 701.46 1010.36 700.756C1010.75 700.051 1010.94 699.284 1010.94 698.455V696.614C1010.94 695.784 1010.76 695.011 1010.4 694.295C1010.03 693.58 1009.32 693.222 1008.25 693.222C1007.23 693.222 1006.52 693.58 1006.12 694.295C1005.72 695.011 1005.52 695.784 1005.52 696.614ZM982.648 678.477V676.636C982.648 675.227 982.949 673.937 983.551 672.767C984.153 671.585 985.023 670.642 986.159 669.938C987.307 669.233 988.693 668.881 990.318 668.881C992 668.881 993.409 669.233 994.545 669.938C995.682 670.642 996.545 671.585 997.136 672.767C997.727 673.937 998.023 675.227 998.023 676.636V678.477C998.023 679.886 997.722 681.176 997.119 682.347C996.528 683.517 995.659 684.455 994.511 685.159C993.375 685.852 991.977 686.199 990.318 686.199C988.659 686.199 987.256 685.847 986.108 685.142C984.972 684.426 984.108 683.489 983.517 682.33C982.938 681.159 982.648 679.875 982.648 678.477ZM987.642 676.636V678.477C987.642 679.307 987.835 680.074 988.222 680.778C988.619 681.483 989.318 681.835 990.318 681.835C991.364 681.835 992.074 681.483 992.449 680.778C992.835 680.074 993.028 679.307 993.028 678.477V676.636C993.028 675.807 992.847 675.034 992.483 674.318C992.119 673.602 991.398 673.244 990.318 673.244C989.307 673.244 988.608 673.608 988.222 674.335C987.835 675.062 987.642 675.83 987.642 676.636ZM984.898 705L1008.9 670.091H1013.36L989.364 705H984.898Z" fill="black"/>
<path d="M571.609 545V561H569.188V547.422H569.094L565.266 549.922V547.609L569.258 545H571.609ZM577.861 558.812L577.744 559.664C577.666 560.289 577.533 560.94 577.346 561.617C577.164 562.299 576.973 562.932 576.775 563.516C576.583 564.099 576.424 564.563 576.299 564.906H574.643C574.71 564.583 574.804 564.146 574.924 563.594C575.044 563.047 575.161 562.435 575.275 561.758C575.39 561.081 575.476 560.391 575.533 559.687L575.611 558.812H577.861ZM585.043 545V561H582.621V547.422H582.528L578.699 549.922V547.609L582.692 545H585.043Z" fill="#CFCFCF"/>
<path d="M999.879 502V518H997.457V504.422H997.363L993.535 506.922V504.609L997.527 502H999.879ZM1006.13 515.812L1006.01 516.664C1005.94 517.289 1005.8 517.94 1005.62 518.617C1005.43 519.299 1005.24 519.932 1005.04 520.516C1004.85 521.099 1004.69 521.563 1004.57 521.906H1002.91C1002.98 521.583 1003.07 521.146 1003.19 520.594C1003.31 520.047 1003.43 519.435 1003.54 518.758C1003.66 518.081 1003.75 517.391 1003.8 516.687L1003.88 515.812H1006.13ZM1014.04 518.219C1012.93 518.219 1011.94 518.026 1011.08 517.641C1010.22 517.255 1009.55 516.724 1009.07 516.047C1008.58 515.37 1008.34 514.599 1008.35 513.734C1008.34 513.057 1008.48 512.435 1008.76 511.867C1009.05 511.294 1009.44 510.818 1009.93 510.438C1010.42 510.052 1010.96 509.807 1011.57 509.703V509.609C1010.77 509.417 1010.13 508.99 1009.65 508.328C1009.18 507.667 1008.94 506.906 1008.94 506.047C1008.94 505.229 1009.15 504.5 1009.59 503.859C1010.03 503.214 1010.64 502.706 1011.41 502.336C1012.18 501.966 1013.06 501.781 1014.04 501.781C1015.02 501.781 1015.89 501.969 1016.65 502.344C1017.43 502.714 1018.03 503.221 1018.47 503.867C1018.92 504.508 1019.14 505.234 1019.15 506.047C1019.14 506.906 1018.9 507.667 1018.41 508.328C1017.93 508.99 1017.3 509.417 1016.52 509.609V509.703C1017.12 509.807 1017.66 510.052 1018.14 510.438C1018.62 510.818 1019.01 511.294 1019.29 511.867C1019.59 512.435 1019.74 513.057 1019.74 513.734C1019.74 514.599 1019.49 515.37 1019.01 516.047C1018.52 516.724 1017.85 517.255 1016.99 517.641C1016.14 518.026 1015.15 518.219 1014.04 518.219ZM1014.04 516.242C1014.71 516.242 1015.28 516.133 1015.76 515.914C1016.25 515.69 1016.62 515.38 1016.89 514.984C1017.15 514.583 1017.29 514.115 1017.29 513.578C1017.29 513.021 1017.14 512.529 1016.86 512.102C1016.58 511.674 1016.19 511.339 1015.71 511.094C1015.22 510.849 1014.67 510.727 1014.04 510.727C1013.41 510.727 1012.85 510.849 1012.37 511.094C1011.88 511.339 1011.49 511.674 1011.21 512.102C1010.93 512.529 1010.79 513.021 1010.79 513.578C1010.79 514.115 1010.92 514.583 1011.18 514.984C1011.44 515.38 1011.82 515.69 1012.31 515.914C1012.8 516.133 1013.38 516.242 1014.04 516.242ZM1014.04 508.797C1014.58 508.797 1015.05 508.69 1015.46 508.477C1015.87 508.263 1016.19 507.966 1016.43 507.586C1016.67 507.206 1016.79 506.76 1016.79 506.25C1016.79 505.75 1016.67 505.313 1016.44 504.938C1016.21 504.562 1015.89 504.273 1015.47 504.07C1015.06 503.862 1014.59 503.758 1014.04 503.758C1013.49 503.758 1013.01 503.862 1012.59 504.07C1012.18 504.273 1011.86 504.562 1011.63 504.938C1011.4 505.313 1011.29 505.75 1011.29 506.25C1011.29 506.76 1011.4 507.206 1011.64 507.586C1011.87 507.966 1012.2 508.263 1012.61 508.477C1013.02 508.69 1013.5 508.797 1014.04 508.797Z" fill="#CFCFCF"/>
<rect x="549" y="750" width="491" height="295" rx="20" fill="#F7F7F7"/>
<path opacity="0.6" d="M564.441 785.158V780.063H565.317C565.611 779.829 565.886 779.499 566.141 779.072C566.397 778.646 566.614 778.062 566.793 777.321C566.972 776.58 567.096 775.621 567.164 774.445L567.509 768.909H575.876V780.063H577.334V785.145H575.058V782H566.717V785.158H564.441ZM568.078 780.063H573.601V770.897H569.644L569.44 774.445C569.384 775.335 569.295 776.132 569.171 776.835C569.048 777.538 568.892 778.158 568.705 778.695C568.517 779.228 568.308 779.684 568.078 780.063ZM582.747 782H580.216L584.824 768.909H587.752L592.367 782H589.836L586.339 771.594H586.237L582.747 782ZM582.83 776.867H589.733V778.772H582.83V776.867ZM595.041 782V780.031L595.412 780.012C595.915 779.982 596.313 779.801 596.607 779.469C596.905 779.136 597.125 778.602 597.265 777.864C597.41 777.127 597.506 776.138 597.553 774.898L597.77 768.909H606.349V782H604.028V770.859H599.982L599.778 775.634C599.718 777.065 599.56 778.252 599.305 779.194C599.053 780.136 598.64 780.839 598.064 781.303C597.493 781.768 596.699 782 595.68 782H595.041ZM612.339 773.965H615.662C616.664 773.965 617.523 774.129 618.238 774.457C618.959 774.781 619.51 775.239 619.894 775.832C620.277 776.424 620.469 777.121 620.469 777.922C620.469 778.727 620.277 779.437 619.894 780.05C619.51 780.66 618.959 781.137 618.238 781.482C617.523 781.827 616.664 782 615.662 782H610.76V768.909H613.138V780.057H615.662C616.191 780.057 616.638 779.957 617.005 779.756C617.371 779.556 617.648 779.292 617.836 778.964C618.027 778.636 618.123 778.28 618.123 777.896C618.123 777.342 617.91 776.871 617.484 776.484C617.062 776.092 616.455 775.896 615.662 775.896H612.339V773.965ZM624.575 782V768.909H626.947V774.451H633.013V768.909H635.391V782H633.013V776.439H626.947V782H624.575ZM639.77 782V768.909H648.284V770.897H642.141V774.451H647.843V776.439H642.141V780.012H648.335V782H639.77ZM652.503 782V768.909H657.515C658.461 768.909 659.247 769.058 659.873 769.357C660.504 769.651 660.975 770.053 661.286 770.565C661.601 771.076 661.759 771.656 661.759 772.303C661.759 772.836 661.657 773.292 661.452 773.671C661.248 774.046 660.973 774.351 660.628 774.585C660.282 774.82 659.897 774.988 659.471 775.09V775.218C659.935 775.244 660.38 775.386 660.807 775.646C661.237 775.902 661.589 776.264 661.861 776.733C662.134 777.202 662.27 777.768 662.27 778.433C662.27 779.111 662.106 779.72 661.778 780.261C661.45 780.798 660.956 781.222 660.295 781.533C659.635 781.844 658.804 782 657.802 782H652.503ZM654.875 780.018H657.425C658.286 780.018 658.906 779.854 659.285 779.526C659.669 779.194 659.861 778.768 659.861 778.248C659.861 777.86 659.765 777.511 659.573 777.2C659.381 776.884 659.108 776.637 658.755 776.458C658.401 776.275 657.979 776.183 657.489 776.183H654.875V780.018ZM654.875 774.477H657.221C657.63 774.477 657.998 774.402 658.326 774.253C658.655 774.099 658.912 773.884 659.1 773.607C659.292 773.326 659.388 772.994 659.388 772.61C659.388 772.103 659.209 771.685 658.851 771.357C658.497 771.029 657.971 770.865 657.272 770.865H654.875V774.477ZM677.831 775.455C677.831 776.865 677.567 778.073 677.038 779.079C676.514 780.08 675.798 780.847 674.89 781.38C673.987 781.913 672.962 782.179 671.816 782.179C670.67 782.179 669.643 781.913 668.735 781.38C667.832 780.843 667.116 780.074 666.587 779.072C666.063 778.067 665.801 776.861 665.801 775.455C665.801 774.044 666.063 772.838 666.587 771.837C667.116 770.831 667.832 770.062 668.735 769.529C669.643 768.996 670.67 768.73 671.816 768.73C672.962 768.73 673.987 768.996 674.89 769.529C675.798 770.062 676.514 770.831 677.038 771.837C677.567 772.838 677.831 774.044 677.831 775.455ZM675.447 775.455C675.447 774.462 675.291 773.624 674.98 772.942C674.673 772.256 674.247 771.739 673.702 771.389C673.156 771.036 672.528 770.859 671.816 770.859C671.104 770.859 670.476 771.036 669.93 771.389C669.385 771.739 668.957 772.256 668.645 772.942C668.339 773.624 668.185 774.462 668.185 775.455C668.185 776.447 668.339 777.287 668.645 777.973C668.957 778.655 669.385 779.173 669.93 779.526C670.476 779.876 671.104 780.05 671.816 780.05C672.528 780.05 673.156 779.876 673.702 779.526C674.247 779.173 674.673 778.655 674.98 777.973C675.291 777.287 675.447 776.447 675.447 775.455ZM693.078 773.326H690.687C690.619 772.934 690.494 772.587 690.31 772.284C690.127 771.977 689.899 771.717 689.626 771.504C689.354 771.291 689.043 771.131 688.693 771.025C688.348 770.914 687.975 770.859 687.575 770.859C686.863 770.859 686.232 771.038 685.682 771.396C685.133 771.749 684.702 772.269 684.391 772.955C684.08 773.637 683.925 774.47 683.925 775.455C683.925 776.456 684.08 777.3 684.391 777.986C684.707 778.668 685.137 779.183 685.682 779.533C686.232 779.878 686.861 780.05 687.568 780.05C687.96 780.05 688.327 779.999 688.668 779.897C689.013 779.79 689.322 779.635 689.594 779.43C689.871 779.226 690.104 778.974 690.291 778.676C690.483 778.378 690.615 778.037 690.687 777.653L693.078 777.666C692.989 778.288 692.795 778.872 692.496 779.418C692.202 779.963 691.817 780.445 691.339 780.862C690.862 781.276 690.304 781.599 689.665 781.834C689.026 782.064 688.316 782.179 687.536 782.179C686.386 782.179 685.359 781.913 684.455 781.38C683.552 780.847 682.84 780.078 682.32 779.072C681.8 778.067 681.54 776.861 681.54 775.455C681.54 774.044 681.803 772.838 682.327 771.837C682.851 770.831 683.565 770.062 684.468 769.529C685.371 768.996 686.394 768.73 687.536 768.73C688.265 768.73 688.942 768.832 689.569 769.037C690.195 769.241 690.754 769.542 691.244 769.938C691.734 770.33 692.136 770.812 692.452 771.383C692.771 771.95 692.98 772.597 693.078 773.326ZM696.474 770.897V768.909H706.919V770.897H702.873V782H700.521V770.897H696.474ZM721.85 775.455C721.85 776.865 721.586 778.073 721.057 779.079C720.533 780.08 719.817 780.847 718.91 781.38C718.006 781.913 716.981 782.179 715.835 782.179C714.689 782.179 713.662 781.913 712.754 781.38C711.851 780.843 711.135 780.074 710.606 779.072C710.082 778.067 709.82 776.861 709.82 775.455C709.82 774.044 710.082 772.838 710.606 771.837C711.135 770.831 711.851 770.062 712.754 769.529C713.662 768.996 714.689 768.73 715.835 768.73C716.981 768.73 718.006 768.996 718.91 769.529C719.817 770.062 720.533 770.831 721.057 771.837C721.586 772.838 721.85 774.044 721.85 775.455ZM719.466 775.455C719.466 774.462 719.31 773.624 718.999 772.942C718.692 772.256 718.266 771.739 717.721 771.389C717.175 771.036 716.547 770.859 715.835 770.859C715.123 770.859 714.495 771.036 713.949 771.389C713.404 771.739 712.976 772.256 712.665 772.942C712.358 773.624 712.204 774.462 712.204 775.455C712.204 776.447 712.358 777.287 712.665 777.973C712.976 778.655 713.404 779.173 713.949 779.526C714.495 779.876 715.123 780.05 715.835 780.05C716.547 780.05 717.175 779.876 717.721 779.526C718.266 779.173 718.692 778.655 718.999 777.973C719.31 777.287 719.466 776.447 719.466 775.455ZM726.282 768.909H728.602V773.179C728.602 773.733 728.698 774.172 728.89 774.496C729.086 774.82 729.376 775.052 729.759 775.192C730.143 775.333 730.62 775.403 731.191 775.403C731.447 775.403 731.722 775.395 732.016 775.378C732.314 775.357 732.614 775.329 732.917 775.295C733.219 775.256 733.509 775.212 733.786 775.161C734.063 775.105 734.31 775.045 734.528 774.982V776.912C734.31 776.98 734.067 777.042 733.799 777.097C733.53 777.153 733.247 777.2 732.949 777.238C732.651 777.276 732.352 777.306 732.054 777.327C731.756 777.349 731.468 777.359 731.191 777.359C730.19 777.359 729.32 777.217 728.583 776.931C727.85 776.641 727.283 776.19 726.883 775.576C726.482 774.962 726.282 774.163 726.282 773.179V768.909ZM734.138 768.909H736.471V782H734.138V768.909ZM741.157 782V768.909H743.528V774.451H749.594V768.909H751.972V782H749.594V776.439H743.528V782H741.157ZM758.032 782H755.501L760.11 768.909H763.037L767.652 782H765.121L761.625 771.594H761.523L758.032 782ZM758.116 776.867H765.019V778.772H758.116V776.867ZM780.842 782H778.464V770.891H776.29C775.702 770.891 775.219 770.978 774.839 771.153C774.464 771.323 774.185 771.575 774.002 771.907C773.823 772.235 773.734 772.631 773.734 773.096C773.734 773.56 773.823 773.952 774.002 774.272C774.181 774.587 774.458 774.828 774.833 774.994C775.212 775.156 775.694 775.237 776.278 775.237H779.461V777.206H775.958C774.952 777.206 774.104 777.04 773.414 776.707C772.724 776.371 772.199 775.896 771.842 775.282C771.488 774.664 771.311 773.935 771.311 773.096C771.311 772.261 771.486 771.53 771.835 770.903C772.189 770.273 772.709 769.783 773.395 769.433C774.081 769.084 774.925 768.909 775.926 768.909H780.842V782ZM774.072 776.068H776.661L773.478 782H770.832L774.072 776.068Z" fill="black"/>
<path opacity="0.4" d="M564 998.5H1019.99V893H794.5H564V998.5Z" fill="url(#paint4_linear_2806_1287)"/>
<rect x="1015.19" y="887" width="10.2717" height="10.2717" rx="5.13587" fill="#CACACA"/>
<path d="M1018.5 893H791.655L564 893" stroke="#CACACA" stroke-width="4"/>
<path d="M962.587 1018.77C959.656 1018.76 957.133 1018.03 955.019 1016.6C952.917 1015.17 951.298 1013.1 950.161 1010.38C949.036 1007.66 948.479 1004.4 948.491 1000.58C948.491 996.773 949.053 993.528 950.178 990.847C951.315 988.165 952.934 986.125 955.036 984.727C957.15 983.318 959.667 982.614 962.587 982.614C965.508 982.614 968.019 983.318 970.121 984.727C972.235 986.136 973.86 988.182 974.996 990.864C976.133 993.534 976.695 996.773 976.684 1000.58C976.684 1004.41 976.116 1007.68 974.979 1010.4C973.854 1013.11 972.241 1015.19 970.138 1016.62C968.036 1018.05 965.519 1018.77 962.587 1018.77ZM962.587 1012.65C964.587 1012.65 966.184 1011.64 967.377 1009.63C968.57 1007.62 969.161 1004.6 969.15 1000.58C969.15 997.932 968.877 995.727 968.332 993.966C967.798 992.205 967.036 990.881 966.048 989.994C965.07 989.108 963.917 988.665 962.587 988.665C960.599 988.665 959.008 989.659 957.815 991.648C956.621 993.636 956.019 996.614 956.008 1000.58C956.008 1003.26 956.275 1005.5 956.809 1007.3C957.354 1009.08 958.121 1010.42 959.11 1011.32C960.099 1012.2 961.258 1012.65 962.587 1012.65ZM1000.56 1011.45V1009.61C1000.56 1008.22 1000.86 1006.93 1001.45 1005.76C1002.05 1004.58 1002.92 1003.64 1004.06 1002.93C1005.2 1002.22 1006.6 1001.86 1008.25 1001.86C1009.92 1001.86 1011.32 1002.21 1012.46 1002.91C1013.61 1003.62 1014.47 1004.56 1015.05 1005.74C1015.64 1006.91 1015.94 1008.2 1015.94 1009.61V1011.45C1015.94 1012.85 1015.64 1014.14 1015.05 1015.32C1014.46 1016.49 1013.59 1017.43 1012.44 1018.14C1011.3 1018.85 1009.9 1019.21 1008.25 1019.21C1006.58 1019.21 1005.18 1018.85 1004.04 1018.14C1002.9 1017.43 1002.04 1016.49 1001.45 1015.32C1000.86 1014.14 1000.56 1012.85 1000.56 1011.45ZM1005.52 1009.61V1011.45C1005.52 1012.26 1005.72 1013.02 1006.1 1013.74C1006.5 1014.45 1007.22 1014.81 1008.25 1014.81C1009.28 1014.81 1009.99 1014.46 1010.36 1013.76C1010.75 1013.05 1010.94 1012.28 1010.94 1011.45V1009.61C1010.94 1008.78 1010.76 1008.01 1010.4 1007.3C1010.03 1006.58 1009.32 1006.22 1008.25 1006.22C1007.23 1006.22 1006.52 1006.58 1006.12 1007.3C1005.72 1008.01 1005.52 1008.78 1005.52 1009.61ZM982.648 991.477V989.636C982.648 988.227 982.949 986.937 983.551 985.767C984.153 984.585 985.023 983.642 986.159 982.938C987.307 982.233 988.693 981.881 990.318 981.881C992 981.881 993.409 982.233 994.545 982.938C995.682 983.642 996.545 984.585 997.136 985.767C997.727 986.937 998.023 988.227 998.023 989.636V991.477C998.023 992.886 997.722 994.176 997.119 995.347C996.528 996.517 995.659 997.455 994.511 998.159C993.375 998.852 991.977 999.199 990.318 999.199C988.659 999.199 987.256 998.847 986.108 998.142C984.972 997.426 984.108 996.489 983.517 995.33C982.938 994.159 982.648 992.875 982.648 991.477ZM987.642 989.636V991.477C987.642 992.307 987.835 993.074 988.222 993.778C988.619 994.483 989.318 994.835 990.318 994.835C991.364 994.835 992.074 994.483 992.449 993.778C992.835 993.074 993.028 992.307 993.028 991.477V989.636C993.028 988.807 992.847 988.034 992.483 987.318C992.119 986.602 991.398 986.244 990.318 986.244C989.307 986.244 988.608 986.608 988.222 987.335C987.835 988.062 987.642 988.83 987.642 989.636ZM984.898 1018L1008.9 983.091H1013.36L989.364 1018H984.898Z" fill="black"/>
<path d="M571.109 876.266C569.875 876.26 568.82 875.935 567.945 875.289C567.07 874.643 566.401 873.703 565.938 872.469C565.474 871.234 565.242 869.747 565.242 868.008C565.242 866.273 565.474 864.792 565.938 863.562C566.406 862.333 567.078 861.396 567.953 860.75C568.833 860.104 569.885 859.781 571.109 859.781C572.333 859.781 573.383 860.107 574.258 860.758C575.133 861.404 575.802 862.341 576.266 863.57C576.734 864.794 576.969 866.273 576.969 868.008C576.969 869.753 576.737 871.242 576.273 872.477C575.81 873.706 575.141 874.646 574.266 875.297C573.391 875.943 572.339 876.266 571.109 876.266ZM571.109 874.18C572.193 874.18 573.039 873.651 573.648 872.594C574.263 871.536 574.57 870.008 574.57 868.008C574.57 866.68 574.43 865.557 574.148 864.641C573.872 863.719 573.474 863.021 572.953 862.547C572.438 862.068 571.823 861.828 571.109 861.828C570.031 861.828 569.185 862.359 568.57 863.422C567.956 864.484 567.646 866.013 567.641 868.008C567.641 869.341 567.779 870.469 568.055 871.391C568.336 872.307 568.734 873.003 569.25 873.477C569.766 873.945 570.385 874.18 571.109 874.18ZM582.008 873.812L581.891 874.664C581.813 875.289 581.68 875.94 581.492 876.617C581.31 877.299 581.12 877.932 580.922 878.516C580.729 879.099 580.57 879.563 580.445 879.906H578.789C578.857 879.583 578.951 879.146 579.07 878.594C579.19 878.047 579.307 877.435 579.422 876.758C579.537 876.081 579.622 875.391 579.68 874.687L579.758 873.812H582.008ZM590.18 859.781C590.893 859.786 591.597 859.917 592.289 860.172C592.982 860.427 593.607 860.844 594.164 861.422C594.727 862 595.175 862.781 595.508 863.766C595.847 864.745 596.018 865.964 596.024 867.422C596.024 868.823 595.883 870.07 595.602 871.164C595.321 872.253 594.917 873.172 594.391 873.922C593.87 874.672 593.237 875.242 592.492 875.633C591.748 876.023 590.909 876.219 589.977 876.219C589.024 876.219 588.177 876.031 587.438 875.656C586.698 875.281 586.097 874.763 585.633 874.102C585.169 873.435 584.88 872.669 584.766 871.805H587.149C587.305 872.492 587.623 873.049 588.102 873.477C588.586 873.898 589.211 874.109 589.977 874.109C591.149 874.109 592.063 873.599 592.719 872.578C593.375 871.552 593.706 870.12 593.711 868.281H593.586C593.315 868.729 592.977 869.115 592.571 869.437C592.169 869.76 591.719 870.01 591.219 870.187C590.719 870.365 590.185 870.453 589.617 870.453C588.696 870.453 587.857 870.227 587.102 869.773C586.347 869.32 585.745 868.698 585.297 867.906C584.849 867.115 584.625 866.211 584.625 865.195C584.625 864.185 584.854 863.268 585.313 862.445C585.776 861.622 586.422 860.971 587.25 860.492C588.084 860.008 589.06 859.771 590.18 859.781ZM590.188 861.812C589.578 861.812 589.029 861.964 588.539 862.266C588.055 862.562 587.672 862.966 587.391 863.477C587.11 863.982 586.969 864.544 586.969 865.164C586.969 865.784 587.104 866.346 587.375 866.852C587.651 867.352 588.026 867.75 588.5 868.047C588.979 868.339 589.526 868.484 590.141 868.484C590.599 868.484 591.026 868.396 591.422 868.219C591.818 868.042 592.164 867.797 592.461 867.484C592.758 867.167 592.99 866.807 593.156 866.406C593.323 866.005 593.406 865.583 593.406 865.141C593.406 864.552 593.266 864.005 592.985 863.5C592.709 862.995 592.328 862.589 591.844 862.281C591.36 861.969 590.807 861.812 590.188 861.812Z" fill="#CFCFCF"/>
<path d="M994.803 876.266C993.568 876.26 992.513 875.935 991.638 875.289C990.763 874.643 990.094 873.703 989.631 872.469C989.167 871.234 988.935 869.747 988.935 868.008C988.935 866.273 989.167 864.792 989.631 863.562C990.099 862.333 990.771 861.396 991.646 860.75C992.526 860.104 993.579 859.781 994.803 859.781C996.026 859.781 997.076 860.107 997.951 860.758C998.826 861.404 999.495 862.341 999.959 863.57C1000.43 864.794 1000.66 866.273 1000.66 868.008C1000.66 869.753 1000.43 871.242 999.967 872.477C999.503 873.706 998.834 874.646 997.959 875.297C997.084 875.943 996.032 876.266 994.803 876.266ZM994.803 874.18C995.886 874.18 996.732 873.651 997.342 872.594C997.956 871.536 998.263 870.008 998.263 868.008C998.263 866.68 998.123 865.557 997.842 864.641C997.566 863.719 997.167 863.021 996.646 862.547C996.131 862.068 995.516 861.828 994.803 861.828C993.724 861.828 992.878 862.359 992.263 863.422C991.649 864.484 991.339 866.013 991.334 868.008C991.334 869.341 991.472 870.469 991.748 871.391C992.029 872.307 992.428 873.003 992.943 873.477C993.459 873.945 994.079 874.18 994.803 874.18ZM1005.7 873.812L1005.58 874.664C1005.51 875.289 1005.37 875.94 1005.19 876.617C1005 877.299 1004.81 877.932 1004.62 878.516C1004.42 879.099 1004.26 879.563 1004.14 879.906H1002.48C1002.55 879.583 1002.64 879.146 1002.76 878.594C1002.88 878.047 1003 877.435 1003.12 876.758C1003.23 876.081 1003.32 875.391 1003.37 874.687L1003.45 873.812H1005.7ZM1013.87 859.781C1014.59 859.786 1015.29 859.917 1015.98 860.172C1016.68 860.427 1017.3 860.844 1017.86 861.422C1018.42 862 1018.87 862.781 1019.2 863.766C1019.54 864.745 1019.71 865.964 1019.72 867.422C1019.72 868.823 1019.58 870.07 1019.29 871.164C1019.01 872.253 1018.61 873.172 1018.08 873.922C1017.56 874.672 1016.93 875.242 1016.19 875.633C1015.44 876.023 1014.6 876.219 1013.67 876.219C1012.72 876.219 1011.87 876.031 1011.13 875.656C1010.39 875.281 1009.79 874.763 1009.33 874.102C1008.86 873.435 1008.57 872.669 1008.46 871.805H1010.84C1011 872.492 1011.32 873.049 1011.79 873.477C1012.28 873.898 1012.9 874.109 1013.67 874.109C1014.84 874.109 1015.76 873.599 1016.41 872.578C1017.07 871.552 1017.4 870.12 1017.4 868.281H1017.28C1017.01 868.729 1016.67 869.115 1016.26 869.437C1015.86 869.76 1015.41 870.01 1014.91 870.187C1014.41 870.365 1013.88 870.453 1013.31 870.453C1012.39 870.453 1011.55 870.227 1010.79 869.773C1010.04 869.32 1009.44 868.698 1008.99 867.906C1008.54 867.115 1008.32 866.211 1008.32 865.195C1008.32 864.185 1008.55 863.268 1009.01 862.445C1009.47 861.622 1010.12 860.971 1010.94 860.492C1011.78 860.008 1012.75 859.771 1013.87 859.781ZM1013.88 861.812C1013.27 861.812 1012.72 861.964 1012.23 862.266C1011.75 862.562 1011.37 862.966 1011.08 863.477C1010.8 863.982 1010.66 864.544 1010.66 865.164C1010.66 865.784 1010.8 866.346 1011.07 866.852C1011.34 867.352 1011.72 867.75 1012.19 868.047C1012.67 868.339 1013.22 868.484 1013.83 868.484C1014.29 868.484 1014.72 868.396 1015.12 868.219C1015.51 868.042 1015.86 867.797 1016.15 867.484C1016.45 867.167 1016.68 866.807 1016.85 866.406C1017.02 866.005 1017.1 865.583 1017.1 865.141C1017.1 864.552 1016.96 864.005 1016.68 863.5C1016.4 862.995 1016.02 862.589 1015.54 862.281C1015.05 861.969 1014.5 861.812 1013.88 861.812Z" fill="#CFCFCF"/>
<defs>
<linearGradient id="paint0_linear_2806_1287" x1="282.995" y1="593.5" x2="282.995" y2="685.5" gradientUnits="userSpaceOnUse">
<stop stop-color="#D9D9D9"/>
<stop offset="1" stop-color="#D9D9D9" stop-opacity="0"/>
</linearGradient>
<linearGradient id="paint1_linear_2806_1287" x1="537.477" y1="223" x2="537.477" y2="372.5" gradientUnits="userSpaceOnUse">
<stop stop-color="#04B34A"/>
<stop offset="0.0666667" stop-color="#04B34A" stop-opacity="0.991353"/>
<stop offset="0.133333" stop-color="#04B34A" stop-opacity="0.96449"/>
<stop offset="0.2" stop-color="#04B34A" stop-opacity="0.91834"/>
<stop offset="0.266667" stop-color="#04B34A" stop-opacity="0.852589"/>
<stop offset="0.333333" stop-color="#04B34A" stop-opacity="0.768225"/>
<stop offset="0.4" stop-color="#04B34A" stop-opacity="0.668116"/>
<stop offset="0.466667" stop-color="#04B34A" stop-opacity="0.557309"/>
<stop offset="0.533333" stop-color="#04B34A" stop-opacity="0.442691"/>
<stop offset="0.6" stop-color="#04B34A" stop-opacity="0.331884"/>
<stop offset="0.666667" stop-color="#04B34A" stop-opacity="0.231775"/>
<stop offset="0.733333" stop-color="#04B34A" stop-opacity="0.147411"/>
<stop offset="0.8" stop-color="#04B34A" stop-opacity="0.0816599"/>
<stop offset="0.866667" stop-color="#04B34A" stop-opacity="0.03551"/>
<stop offset="0.933333" stop-color="#04B34A" stop-opacity="0.01"/>
<stop offset="1" stop-color="#04B34A" stop-opacity="0"/>
</linearGradient>
<linearGradient id="paint2_linear_2806_1287" x1="282.995" y1="906.5" x2="282.995" y2="998.5" gradientUnits="userSpaceOnUse">
<stop stop-color="#D9D9D9"/>
<stop offset="1" stop-color="#D9D9D9" stop-opacity="0"/>
</linearGradient>
<linearGradient id="paint3_linear_2806_1287" x1="791.996" y1="536" x2="791.996" y2="685.5" gradientUnits="userSpaceOnUse">
<stop stop-color="#04B34A"/>
<stop offset="0.0666667" stop-color="#04B34A" stop-opacity="0.991353"/>
<stop offset="0.133333" stop-color="#04B34A" stop-opacity="0.96449"/>
<stop offset="0.2" stop-color="#04B34A" stop-opacity="0.91834"/>
<stop offset="0.266667" stop-color="#04B34A" stop-opacity="0.852589"/>
<stop offset="0.333333" stop-color="#04B34A" stop-opacity="0.768225"/>
<stop offset="0.4" stop-color="#04B34A" stop-opacity="0.668116"/>
<stop offset="0.466667" stop-color="#04B34A" stop-opacity="0.557309"/>
<stop offset="0.533333" stop-color="#04B34A" stop-opacity="0.442691"/>
<stop offset="0.6" stop-color="#04B34A" stop-opacity="0.331884"/>
<stop offset="0.666667" stop-color="#04B34A" stop-opacity="0.231775"/>
<stop offset="0.733333" stop-color="#04B34A" stop-opacity="0.147411"/>
<stop offset="0.8" stop-color="#04B34A" stop-opacity="0.0816599"/>
<stop offset="0.866667" stop-color="#04B34A" stop-opacity="0.03551"/>
<stop offset="0.933333" stop-color="#04B34A" stop-opacity="0.01"/>
<stop offset="1" stop-color="#04B34A" stop-opacity="0"/>
</linearGradient>
<linearGradient id="paint4_linear_2806_1287" x1="791.995" y1="906.5" x2="791.995" y2="998.5" gradientUnits="userSpaceOnUse">
<stop stop-color="#D9D9D9"/>
<stop offset="1" stop-color="#D9D9D9" stop-opacity="0"/>
</linearGradient>
</defs>
</svg>
