<svg width="1336" height="212" viewBox="0 0 1336 212" fill="none" xmlns="http://www.w3.org/2000/svg">
<rect width="316" height="212" rx="40" fill="#F8F8F8"/>
<path d="M57.55 82H50.95V53.85L42.2 58.85V52.65L52.6 46.35H57.55V82ZM78.3492 45.85C80.3492 45.85 82.1492 46.15 83.7492 46.75C85.3826 47.35 86.7492 48.2167 87.8492 49.35C88.9826 50.4833 89.8492 51.8667 90.4492 53.5C91.0826 55.1333 91.3992 56.9667 91.3992 59V69.5C91.3992 71.6 91.0826 73.4667 90.4492 75.1C89.8492 76.7333 88.9826 78.1167 87.8492 79.25C86.7159 80.35 85.3326 81.2 83.6992 81.8C82.0992 82.3667 80.3159 82.65 78.3492 82.65C76.3826 82.65 74.5826 82.3667 72.9492 81.8C71.3492 81.2 69.9826 80.35 68.8492 79.25C67.7159 78.1167 66.8326 76.7333 66.1992 75.1C65.5992 73.4667 65.2992 71.6 65.2992 69.5V59C65.2992 56.9667 65.5992 55.1333 66.1992 53.5C66.8326 51.8667 67.6992 50.4833 68.7992 49.35C69.9326 48.2167 71.2992 47.35 72.8992 46.75C74.5326 46.15 76.3492 45.85 78.3492 45.85ZM78.3492 76.65C80.4826 76.65 82.0826 75.9667 83.1492 74.6C84.2492 73.2333 84.7992 71.5 84.7992 69.4V59.1C84.7992 57 84.2492 55.2667 83.1492 53.9C82.0826 52.5333 80.4826 51.85 78.3492 51.85C76.1826 51.85 74.5659 52.5333 73.4992 53.9C72.4326 55.2667 71.8992 57 71.8992 59.1V69.4C71.8992 71.5 72.4326 73.2333 73.4992 74.6C74.5659 75.9667 76.1826 76.65 78.3492 76.65ZM97.4648 92.35C98.3982 90.85 99.2482 89.2167 100.015 87.45C100.815 85.6833 101.248 83.8667 101.315 82H97.7148V73.5H105.365V81.2C105.365 83.4333 105.032 85.5167 104.365 87.45C103.698 89.3833 102.982 91.0167 102.215 92.35H97.4648ZM118.462 82H111.112L127.312 52.4H109.112V46.5H135.112V51L118.462 82ZM150.507 56.7H159.207L167.607 74.25L176.007 56.7H184.507V82H178.307V63.15L169.457 82.1H165.207L156.407 63.3V82H150.507V56.7ZM194.093 56.7H214.493V82H208.143V62.15H199.293L198.443 71.15C198.276 73.05 198.009 74.7 197.643 76.1C197.276 77.5 196.759 78.65 196.093 79.55C195.426 80.45 194.576 81.1333 193.543 81.6C192.509 82.0333 191.243 82.25 189.743 82.25H188.043V76.45H188.643C189.376 76.45 189.976 76.3667 190.443 76.2C190.943 76 191.343 75.6833 191.643 75.25C191.943 74.7833 192.176 74.1667 192.343 73.4C192.509 72.6333 192.643 71.6667 192.743 70.5L194.093 56.7ZM220.775 56.7H227.125V66.35H239.225V56.7H245.575V82H239.225V71.8H227.125V82H220.775V56.7Z" fill="black" fill-opacity="0.8"/>
<path opacity="0.9" d="M56.1591 133H54.0455C53.9205 132.392 53.7017 131.858 53.3892 131.398C53.0824 130.938 52.7074 130.551 52.2642 130.239C51.8267 129.92 51.3409 129.682 50.8068 129.523C50.2727 129.364 49.7159 129.284 49.1364 129.284C48.0795 129.284 47.1222 129.551 46.2642 130.085C45.4119 130.619 44.733 131.406 44.2273 132.446C43.7273 133.486 43.4773 134.761 43.4773 136.273C43.4773 137.784 43.7273 139.06 44.2273 140.099C44.733 141.139 45.4119 141.926 46.2642 142.46C47.1222 142.994 48.0795 143.261 49.1364 143.261C49.7159 143.261 50.2727 143.182 50.8068 143.023C51.3409 142.864 51.8267 142.628 52.2642 142.315C52.7074 141.997 53.0824 141.608 53.3892 141.148C53.7017 140.682 53.9205 140.148 54.0455 139.545H56.1591C56 140.437 55.7102 141.236 55.2898 141.94C54.8693 142.645 54.3466 143.244 53.7216 143.739C53.0966 144.227 52.3949 144.599 51.6165 144.855C50.8438 145.111 50.017 145.239 49.1364 145.239C47.6477 145.239 46.3239 144.875 45.1648 144.148C44.0057 143.42 43.0938 142.386 42.429 141.045C41.7642 139.705 41.4318 138.114 41.4318 136.273C41.4318 134.432 41.7642 132.841 42.429 131.5C43.0938 130.159 44.0057 129.125 45.1648 128.398C46.3239 127.67 47.6477 127.307 49.1364 127.307C50.017 127.307 50.8438 127.435 51.6165 127.69C52.3949 127.946 53.0966 128.321 53.7216 128.815C54.3466 129.304 54.8693 129.901 55.2898 130.605C55.7102 131.304 56 132.102 56.1591 133ZM58.8218 149.909V131.909H60.765V133.989H61.0037C61.1514 133.761 61.3559 133.472 61.6173 133.119C61.8843 132.761 62.265 132.443 62.7593 132.165C63.2593 131.881 63.9355 131.739 64.7878 131.739C65.89 131.739 66.8616 132.014 67.7025 132.565C68.5434 133.116 69.1997 133.898 69.6713 134.909C70.1429 135.92 70.3787 137.114 70.3787 138.489C70.3787 139.875 70.1429 141.077 69.6713 142.094C69.1997 143.105 68.5463 143.889 67.7111 144.446C66.8758 144.997 65.9128 145.273 64.8218 145.273C63.9809 145.273 63.3076 145.134 62.802 144.855C62.2963 144.571 61.9071 144.25 61.6343 143.892C61.3616 143.528 61.1514 143.227 61.0037 142.989H60.8332V149.909H58.8218ZM60.7991 138.455C60.7991 139.443 60.944 140.315 61.2338 141.071C61.5236 141.821 61.9468 142.409 62.5037 142.835C63.0605 143.256 63.7423 143.466 64.5491 143.466C65.39 143.466 66.0917 143.244 66.6542 142.801C67.2224 142.352 67.6486 141.75 67.9326 140.994C68.2224 140.233 68.3673 139.386 68.3673 138.455C68.3673 137.534 68.2253 136.705 67.9412 135.966C67.6628 135.222 67.2395 134.634 66.6713 134.202C66.1088 133.764 65.4014 133.545 64.5491 133.545C63.7309 133.545 63.0434 133.753 62.4866 134.168C61.9298 134.577 61.5093 135.151 61.2253 135.889C60.9412 136.622 60.7991 137.477 60.7991 138.455ZM78.4555 145.273C77.1941 145.273 76.1061 144.994 75.1913 144.438C74.2822 143.875 73.5805 143.091 73.0862 142.085C72.5975 141.074 72.3532 139.898 72.3532 138.557C72.3532 137.216 72.5975 136.034 73.0862 135.011C73.5805 133.983 74.268 133.182 75.1487 132.608C76.035 132.028 77.0691 131.739 78.2509 131.739C78.9328 131.739 79.6061 131.852 80.2708 132.08C80.9356 132.307 81.5407 132.676 82.0862 133.188C82.6316 133.693 83.0663 134.364 83.3901 135.199C83.714 136.034 83.8759 137.062 83.8759 138.284V139.136H73.785V137.398H81.8305C81.8305 136.659 81.6828 136 81.3873 135.42C81.0975 134.841 80.6828 134.384 80.143 134.048C79.6089 133.713 78.9782 133.545 78.2509 133.545C77.4498 133.545 76.7566 133.744 76.1714 134.142C75.5918 134.534 75.1458 135.045 74.8333 135.676C74.5208 136.307 74.3646 136.983 74.3646 137.705V138.864C74.3646 139.852 74.535 140.69 74.8759 141.378C75.2225 142.06 75.7026 142.58 76.3163 142.938C76.9299 143.29 77.643 143.466 78.4555 143.466C78.9839 143.466 79.4612 143.392 79.8873 143.244C80.3191 143.091 80.6913 142.864 81.0038 142.562C81.3163 142.256 81.5578 141.875 81.7282 141.42L83.6714 141.966C83.4668 142.625 83.1231 143.205 82.6401 143.705C82.1572 144.199 81.5606 144.585 80.8504 144.864C80.1401 145.136 79.3418 145.273 78.4555 145.273ZM85.0579 148.75V143.125H86.1488C86.4158 142.847 86.6459 142.545 86.8391 142.222C87.0323 141.898 87.1999 141.514 87.342 141.071C87.4897 140.622 87.6147 140.077 87.717 139.435C87.8192 138.787 87.9101 138.006 87.9897 137.091L88.4329 131.909H96.7511V143.125H98.7624V148.75H96.7511V145H87.0692V148.75H85.0579ZM88.4329 143.125H94.7397V133.784H90.3079L89.967 137.091C89.8249 138.46 89.6488 139.656 89.4386 140.679C89.2283 141.702 88.8931 142.517 88.4329 143.125ZM109.714 137.534V139.409H102.486V137.534H109.714ZM102.964 131.909V145H100.952V131.909H102.964ZM111.248 131.909V145H109.236V131.909H111.248ZM122.316 145V133.75H118.839C118.055 133.75 117.438 133.932 116.989 134.295C116.54 134.659 116.316 135.159 116.316 135.795C116.316 136.42 116.518 136.912 116.921 137.27C117.33 137.628 117.89 137.807 118.6 137.807H122.827V139.682H118.6C117.714 139.682 116.949 139.526 116.307 139.213C115.665 138.901 115.171 138.455 114.824 137.875C114.478 137.29 114.305 136.597 114.305 135.795C114.305 134.989 114.486 134.295 114.85 133.716C115.214 133.136 115.734 132.69 116.41 132.378C117.091 132.065 117.901 131.909 118.839 131.909H124.225V145H122.316ZM113.589 145L117.305 138.489H119.486L115.77 145H113.589ZM135.312 145V133.75H131.835C131.051 133.75 130.435 133.932 129.986 134.295C129.537 134.659 129.312 135.159 129.312 135.795C129.312 136.42 129.514 136.912 129.918 137.27C130.327 137.628 130.886 137.807 131.597 137.807H135.824V139.682H131.597C130.71 139.682 129.946 139.526 129.304 139.213C128.662 138.901 128.168 138.455 127.821 137.875C127.474 137.29 127.301 136.597 127.301 135.795C127.301 134.989 127.483 134.295 127.847 133.716C128.21 133.136 128.73 132.69 129.406 132.378C130.088 132.065 130.898 131.909 131.835 131.909H137.222V145H135.312ZM126.585 145L130.301 138.489H132.483L128.767 145H126.585ZM152.022 145.273C150.795 145.273 149.738 144.983 148.852 144.403C147.965 143.824 147.284 143.026 146.806 142.009C146.329 140.991 146.09 139.83 146.09 138.523C146.09 137.193 146.335 136.02 146.823 135.003C147.318 133.98 148.005 133.182 148.886 132.608C149.772 132.028 150.806 131.739 151.988 131.739C152.909 131.739 153.738 131.909 154.477 132.25C155.215 132.591 155.821 133.068 156.292 133.682C156.764 134.295 157.056 135.011 157.17 135.83H155.159C155.005 135.233 154.664 134.705 154.136 134.244C153.613 133.778 152.909 133.545 152.022 133.545C151.238 133.545 150.551 133.75 149.96 134.159C149.374 134.562 148.917 135.134 148.588 135.872C148.264 136.605 148.102 137.466 148.102 138.455C148.102 139.466 148.261 140.347 148.579 141.097C148.903 141.847 149.357 142.429 149.943 142.844C150.534 143.259 151.227 143.466 152.022 143.466C152.545 143.466 153.019 143.375 153.446 143.193C153.872 143.011 154.232 142.75 154.528 142.409C154.823 142.068 155.034 141.659 155.159 141.182H157.17C157.056 141.955 156.775 142.651 156.326 143.27C155.883 143.884 155.295 144.372 154.562 144.736C153.835 145.094 152.988 145.273 152.022 145.273ZM160.926 149.909C160.585 149.909 160.281 149.881 160.014 149.824C159.747 149.773 159.562 149.722 159.46 149.67L159.971 147.898C160.46 148.023 160.892 148.068 161.267 148.034C161.642 148 161.974 147.832 162.264 147.531C162.559 147.236 162.829 146.756 163.073 146.091L163.448 145.068L158.608 131.909H160.789L164.403 142.341H164.539L168.153 131.909H170.335L164.778 146.909C164.528 147.585 164.218 148.145 163.849 148.588C163.48 149.037 163.051 149.369 162.562 149.585C162.079 149.801 161.534 149.909 160.926 149.909ZM179.669 142.273L184.237 131.909H186.146L180.487 145H178.851L173.294 131.909H175.169L179.669 142.273ZM174.521 131.909V145H172.51V131.909H174.521ZM184.816 145V131.909H186.828V145H184.816ZM197.189 142.273L201.757 131.909H203.666L198.007 145H196.371L190.814 131.909H192.689L197.189 142.273ZM192.041 131.909V145H190.03V131.909H192.041ZM202.336 145V131.909H204.348V145H202.336ZM211.402 145.307C210.572 145.307 209.82 145.151 209.143 144.838C208.467 144.52 207.93 144.062 207.533 143.466C207.135 142.864 206.936 142.136 206.936 141.284C206.936 140.534 207.084 139.926 207.379 139.46C207.675 138.989 208.07 138.619 208.564 138.352C209.058 138.085 209.604 137.886 210.2 137.756C210.803 137.619 211.408 137.511 212.016 137.432C212.811 137.33 213.456 137.253 213.95 137.202C214.45 137.145 214.814 137.051 215.041 136.92C215.274 136.79 215.391 136.562 215.391 136.239V136.17C215.391 135.33 215.16 134.676 214.7 134.21C214.246 133.744 213.555 133.511 212.629 133.511C211.669 133.511 210.916 133.722 210.371 134.142C209.825 134.562 209.442 135.011 209.22 135.489L207.311 134.807C207.652 134.011 208.106 133.392 208.675 132.949C209.249 132.5 209.874 132.187 210.55 132.011C211.231 131.83 211.902 131.739 212.561 131.739C212.981 131.739 213.464 131.79 214.01 131.892C214.561 131.989 215.092 132.19 215.604 132.497C216.121 132.804 216.55 133.267 216.891 133.886C217.231 134.506 217.402 135.335 217.402 136.375V145H215.391V143.227H215.288C215.152 143.511 214.925 143.815 214.606 144.139C214.288 144.463 213.865 144.739 213.337 144.966C212.808 145.193 212.163 145.307 211.402 145.307ZM211.709 143.5C212.504 143.5 213.175 143.344 213.72 143.031C214.271 142.719 214.686 142.315 214.964 141.821C215.249 141.327 215.391 140.807 215.391 140.261V138.42C215.305 138.523 215.118 138.616 214.828 138.702C214.544 138.781 214.214 138.852 213.839 138.915C213.47 138.972 213.109 139.023 212.757 139.068C212.41 139.108 212.129 139.142 211.913 139.17C211.391 139.239 210.902 139.349 210.447 139.503C209.999 139.651 209.635 139.875 209.356 140.176C209.084 140.472 208.947 140.875 208.947 141.386C208.947 142.085 209.206 142.614 209.723 142.972C210.246 143.324 210.908 143.5 211.709 143.5ZM41.8409 174V160.909H43.8523V166.602H45.1818L49.8864 160.909H52.4773L47.1932 167.216L52.5455 174H49.9545L45.6591 168.477H43.8523V174H41.8409ZM54.2515 178.909V160.909H56.1947V162.989H56.4334C56.5811 162.761 56.7856 162.472 57.047 162.119C57.314 161.761 57.6947 161.443 58.189 161.165C58.689 160.881 59.3652 160.739 60.2174 160.739C61.3197 160.739 62.2913 161.014 63.1322 161.565C63.9731 162.116 64.6294 162.898 65.101 163.909C65.5726 164.92 65.8084 166.114 65.8084 167.489C65.8084 168.875 65.5726 170.077 65.101 171.094C64.6294 172.105 63.976 172.889 63.1407 173.446C62.3055 173.997 61.3424 174.273 60.2515 174.273C59.4106 174.273 58.7373 174.134 58.2316 173.855C57.726 173.571 57.3368 173.25 57.064 172.892C56.7913 172.528 56.5811 172.227 56.4334 171.989H56.2629V178.909H54.2515ZM56.2288 167.455C56.2288 168.443 56.3737 169.315 56.6635 170.071C56.9532 170.821 57.3765 171.409 57.9334 171.835C58.4902 172.256 59.172 172.466 59.9788 172.466C60.8197 172.466 61.5214 172.244 62.0839 171.801C62.6521 171.352 63.0782 170.75 63.3623 169.994C63.6521 169.233 63.797 168.386 63.797 167.455C63.797 166.534 63.6549 165.705 63.3709 164.966C63.0924 164.222 62.6691 163.634 62.101 163.202C61.5385 162.764 60.8311 162.545 59.9788 162.545C59.1606 162.545 58.4731 162.753 57.9163 163.168C57.3595 163.577 56.939 164.151 56.6549 164.889C56.3709 165.622 56.2288 166.477 56.2288 167.455ZM73.8852 174.273C72.6238 174.273 71.5357 173.994 70.621 173.438C69.7119 172.875 69.0102 172.091 68.5159 171.085C68.0272 170.074 67.7829 168.898 67.7829 167.557C67.7829 166.216 68.0272 165.034 68.5159 164.011C69.0102 162.983 69.6977 162.182 70.5784 161.608C71.4647 161.028 72.4988 160.739 73.6806 160.739C74.3624 160.739 75.0357 160.852 75.7005 161.08C76.3653 161.307 76.9704 161.676 77.5159 162.188C78.0613 162.693 78.496 163.364 78.8198 164.199C79.1437 165.034 79.3056 166.062 79.3056 167.284V168.136H69.2147V166.398H77.2602C77.2602 165.659 77.1124 165 76.817 164.42C76.5272 163.841 76.1124 163.384 75.5727 163.048C75.0386 162.713 74.4079 162.545 73.6806 162.545C72.8795 162.545 72.1863 162.744 71.6011 163.142C71.0215 163.534 70.5755 164.045 70.263 164.676C69.9505 165.307 69.7943 165.983 69.7943 166.705V167.864C69.7943 168.852 69.9647 169.69 70.3056 170.378C70.6522 171.06 71.1323 171.58 71.746 171.938C72.3596 172.29 73.0727 172.466 73.8852 172.466C74.4136 172.466 74.8909 172.392 75.317 172.244C75.7488 172.091 76.121 171.864 76.4335 171.562C76.746 171.256 76.9874 170.875 77.1579 170.42L79.1011 170.966C78.8965 171.625 78.5528 172.205 78.0698 172.705C77.5869 173.199 76.9903 173.585 76.2801 173.864C75.5698 174.136 74.7715 174.273 73.8852 174.273ZM80.4876 177.75V172.125H81.5785C81.8455 171.847 82.0756 171.545 82.2688 171.222C82.462 170.898 82.6296 170.514 82.7716 170.071C82.9194 169.622 83.0444 169.077 83.1466 168.435C83.2489 167.787 83.3398 167.006 83.4194 166.091L83.8626 160.909H92.1807V172.125H94.1921V177.75H92.1807V174H82.4989V177.75H80.4876ZM83.8626 172.125H90.1694V162.784H85.7376L85.3966 166.091C85.2546 167.46 85.0785 168.656 84.8682 169.679C84.658 170.702 84.3228 171.517 83.8626 172.125ZM98.3932 171.034L104.7 160.909H107.018V174H105.007V163.875L98.7341 174H96.3818V160.909H98.3932V171.034ZM108.441 162.784V160.909H119.077V162.784H114.782V174H112.77V162.784H108.441ZM124.704 174.307C123.874 174.307 123.121 174.151 122.445 173.838C121.769 173.52 121.232 173.062 120.834 172.466C120.437 171.864 120.238 171.136 120.238 170.284C120.238 169.534 120.386 168.926 120.681 168.46C120.977 167.989 121.371 167.619 121.866 167.352C122.36 167.085 122.906 166.886 123.502 166.756C124.104 166.619 124.709 166.511 125.317 166.432C126.113 166.33 126.758 166.253 127.252 166.202C127.752 166.145 128.116 166.051 128.343 165.92C128.576 165.79 128.692 165.562 128.692 165.239V165.17C128.692 164.33 128.462 163.676 128.002 163.21C127.548 162.744 126.857 162.511 125.931 162.511C124.971 162.511 124.218 162.722 123.673 163.142C123.127 163.562 122.744 164.011 122.522 164.489L120.613 163.807C120.954 163.011 121.408 162.392 121.977 161.949C122.55 161.5 123.175 161.187 123.852 161.011C124.533 160.83 125.204 160.739 125.863 160.739C126.283 160.739 126.766 160.79 127.312 160.892C127.863 160.989 128.394 161.19 128.906 161.497C129.423 161.804 129.852 162.267 130.192 162.886C130.533 163.506 130.704 164.335 130.704 165.375V174H128.692V172.227H128.59C128.454 172.511 128.227 172.815 127.908 173.139C127.59 173.463 127.167 173.739 126.638 173.966C126.11 174.193 125.465 174.307 124.704 174.307ZM125.011 172.5C125.806 172.5 126.477 172.344 127.022 172.031C127.573 171.719 127.988 171.315 128.266 170.821C128.55 170.327 128.692 169.807 128.692 169.261V167.42C128.607 167.523 128.42 167.616 128.13 167.702C127.846 167.781 127.516 167.852 127.141 167.915C126.772 167.972 126.411 168.023 126.059 168.068C125.712 168.108 125.431 168.142 125.215 168.17C124.692 168.239 124.204 168.349 123.749 168.503C123.3 168.651 122.937 168.875 122.658 169.176C122.386 169.472 122.249 169.875 122.249 170.386C122.249 171.085 122.508 171.614 123.025 171.972C123.548 172.324 124.209 172.5 125.011 172.5Z" fill="#32393E"/>
<rect x="340" width="316" height="212" rx="40" fill="#F8F8F8"/>
<path d="M409.95 70.1C409.95 71.8667 409.633 73.5167 409 75.05C408.4 76.5833 407.517 77.9167 406.35 79.05C405.183 80.15 403.767 81.0167 402.1 81.65C400.467 82.2833 398.6 82.6 396.5 82.6C394.4 82.6 392.517 82.3 390.85 81.7C389.183 81.0667 387.767 80.2 386.6 79.1C385.467 77.9667 384.6 76.6333 384 75.1C383.4 73.5667 383.1 71.9 383.1 70.1C383.1 68.7333 383.233 67.4667 383.5 66.3C383.8 65.1333 384.2 64.0167 384.7 62.95C385.233 61.8833 385.85 60.85 386.55 59.85C387.25 58.8167 388.033 57.75 388.9 56.65L396.75 46.5H404.3L394.1 59.45C394.667 59.0833 395.333 58.8 396.1 58.6C396.867 58.4 397.767 58.3 398.8 58.3C400.433 58.3 401.933 58.5833 403.3 59.15C404.667 59.7167 405.833 60.5167 406.8 61.55C407.8 62.5833 408.567 63.8333 409.1 65.3C409.667 66.7333 409.95 68.3333 409.95 70.1ZM403.3 70.1C403.3 68.1667 402.7 66.5667 401.5 65.3C400.333 64.0333 398.65 63.4 396.45 63.4C394.417 63.4 392.783 64.0333 391.55 65.3C390.317 66.5667 389.7 68.1667 389.7 70.1C389.7 71 389.85 71.85 390.15 72.65C390.483 73.45 390.933 74.15 391.5 74.75C392.067 75.35 392.767 75.8333 393.6 76.2C394.433 76.5333 395.383 76.7 396.45 76.7C397.55 76.7 398.517 76.5333 399.35 76.2C400.217 75.8333 400.933 75.35 401.5 74.75C402.1 74.15 402.55 73.45 402.85 72.65C403.15 71.85 403.3 71 403.3 70.1ZM422.281 64.6C420.948 64.6 419.715 64.3667 418.581 63.9C417.448 63.4 416.448 62.7333 415.581 61.9C414.748 61.0667 414.081 60.0833 413.581 58.95C413.115 57.8167 412.881 56.5833 412.881 55.25C412.881 53.9167 413.115 52.6833 413.581 51.55C414.081 50.4167 414.748 49.4333 415.581 48.6C416.448 47.7667 417.448 47.1167 418.581 46.65C419.715 46.15 420.948 45.9 422.281 45.9C423.615 45.9 424.848 46.15 425.981 46.65C427.115 47.1167 428.098 47.7667 428.931 48.6C429.798 49.4333 430.465 50.4167 430.931 51.55C431.431 52.6833 431.681 53.9167 431.681 55.25C431.681 56.5833 431.431 57.8167 430.931 58.95C430.465 60.0833 429.798 61.0667 428.931 61.9C428.098 62.7333 427.115 63.4 425.981 63.9C424.848 64.3667 423.615 64.6 422.281 64.6ZM444.931 46.5H450.881L425.281 82H419.331L444.931 46.5ZM422.281 59.85C423.581 59.85 424.631 59.4167 425.431 58.55C426.265 57.65 426.681 56.55 426.681 55.25C426.681 53.9833 426.265 52.9167 425.431 52.05C424.631 51.15 423.581 50.7 422.281 50.7C420.981 50.7 419.931 51.15 419.131 52.05C418.331 52.9167 417.931 53.9833 417.931 55.25C417.931 56.55 418.331 57.65 419.131 58.55C419.931 59.4167 420.981 59.85 422.281 59.85ZM447.931 82.7C446.598 82.7 445.365 82.4667 444.231 82C443.098 81.5 442.098 80.8333 441.231 80C440.398 79.1667 439.731 78.1833 439.231 77.05C438.765 75.9167 438.531 74.6833 438.531 73.35C438.531 72.0167 438.765 70.7833 439.231 69.65C439.731 68.5167 440.398 67.5333 441.231 66.7C442.098 65.8667 443.098 65.2167 444.231 64.75C445.365 64.25 446.598 64 447.931 64C449.265 64 450.498 64.25 451.631 64.75C452.765 65.2167 453.748 65.8667 454.581 66.7C455.448 67.5333 456.115 68.5167 456.581 69.65C457.081 70.7833 457.331 72.0167 457.331 73.35C457.331 74.6833 457.081 75.9167 456.581 77.05C456.115 78.1833 455.448 79.1667 454.581 80C453.748 80.8333 452.765 81.5 451.631 82C450.498 82.4667 449.265 82.7 447.931 82.7ZM447.931 77.9C449.231 77.9 450.281 77.4667 451.081 76.6C451.915 75.7 452.331 74.6167 452.331 73.35C452.331 72.05 451.915 70.9667 451.081 70.1C450.281 69.2 449.231 68.75 447.931 68.75C446.665 68.75 445.615 69.2 444.781 70.1C443.981 70.9667 443.581 72.05 443.581 73.35C443.581 74.6167 443.981 75.7 444.781 76.6C445.615 77.4667 446.665 77.9 447.931 77.9Z" fill="black" fill-opacity="0.8"/>
<path opacity="0.9" d="M396.159 133H394.045C393.92 132.392 393.702 131.858 393.389 131.398C393.082 130.938 392.707 130.551 392.264 130.239C391.827 129.92 391.341 129.682 390.807 129.523C390.273 129.364 389.716 129.284 389.136 129.284C388.08 129.284 387.122 129.551 386.264 130.085C385.412 130.619 384.733 131.406 384.227 132.446C383.727 133.486 383.477 134.761 383.477 136.273C383.477 137.784 383.727 139.06 384.227 140.099C384.733 141.139 385.412 141.926 386.264 142.46C387.122 142.994 388.08 143.261 389.136 143.261C389.716 143.261 390.273 143.182 390.807 143.023C391.341 142.864 391.827 142.628 392.264 142.315C392.707 141.997 393.082 141.608 393.389 141.148C393.702 140.682 393.92 140.148 394.045 139.545H396.159C396 140.437 395.71 141.236 395.29 141.94C394.869 142.645 394.347 143.244 393.722 143.739C393.097 144.227 392.395 144.599 391.616 144.855C390.844 145.111 390.017 145.239 389.136 145.239C387.648 145.239 386.324 144.875 385.165 144.148C384.006 143.42 383.094 142.386 382.429 141.045C381.764 139.705 381.432 138.114 381.432 136.273C381.432 134.432 381.764 132.841 382.429 131.5C383.094 130.159 384.006 129.125 385.165 128.398C386.324 127.67 387.648 127.307 389.136 127.307C390.017 127.307 390.844 127.435 391.616 127.69C392.395 127.946 393.097 128.321 393.722 128.815C394.347 129.304 394.869 129.901 395.29 130.605C395.71 131.304 396 132.102 396.159 133ZM398.822 149.909V131.909H400.765V133.989H401.004C401.151 133.761 401.356 133.472 401.617 133.119C401.884 132.761 402.265 132.443 402.759 132.165C403.259 131.881 403.935 131.739 404.788 131.739C405.89 131.739 406.862 132.014 407.703 132.565C408.543 133.116 409.2 133.898 409.671 134.909C410.143 135.92 410.379 137.114 410.379 138.489C410.379 139.875 410.143 141.077 409.671 142.094C409.2 143.105 408.546 143.889 407.711 144.446C406.876 144.997 405.913 145.273 404.822 145.273C403.981 145.273 403.308 145.134 402.802 144.855C402.296 144.571 401.907 144.25 401.634 143.892C401.362 143.528 401.151 143.227 401.004 142.989H400.833V149.909H398.822ZM400.799 138.455C400.799 139.443 400.944 140.315 401.234 141.071C401.524 141.821 401.947 142.409 402.504 142.835C403.06 143.256 403.742 143.466 404.549 143.466C405.39 143.466 406.092 143.244 406.654 142.801C407.222 142.352 407.649 141.75 407.933 140.994C408.222 140.233 408.367 139.386 408.367 138.455C408.367 137.534 408.225 136.705 407.941 135.966C407.663 135.222 407.239 134.634 406.671 134.202C406.109 133.764 405.401 133.545 404.549 133.545C403.731 133.545 403.043 133.753 402.487 134.168C401.93 134.577 401.509 135.151 401.225 135.889C400.941 136.622 400.799 137.477 400.799 138.455ZM418.455 145.273C417.194 145.273 416.106 144.994 415.191 144.438C414.282 143.875 413.58 143.091 413.086 142.085C412.598 141.074 412.353 139.898 412.353 138.557C412.353 137.216 412.598 136.034 413.086 135.011C413.58 133.983 414.268 133.182 415.149 132.608C416.035 132.028 417.069 131.739 418.251 131.739C418.933 131.739 419.606 131.852 420.271 132.08C420.936 132.307 421.541 132.676 422.086 133.188C422.632 133.693 423.066 134.364 423.39 135.199C423.714 136.034 423.876 137.062 423.876 138.284V139.136H413.785V137.398H421.83C421.83 136.659 421.683 136 421.387 135.42C421.098 134.841 420.683 134.384 420.143 134.048C419.609 133.713 418.978 133.545 418.251 133.545C417.45 133.545 416.757 133.744 416.171 134.142C415.592 134.534 415.146 135.045 414.833 135.676C414.521 136.307 414.365 136.983 414.365 137.705V138.864C414.365 139.852 414.535 140.69 414.876 141.378C415.223 142.06 415.703 142.58 416.316 142.938C416.93 143.29 417.643 143.466 418.455 143.466C418.984 143.466 419.461 143.392 419.887 143.244C420.319 143.091 420.691 142.864 421.004 142.562C421.316 142.256 421.558 141.875 421.728 141.42L423.671 141.966C423.467 142.625 423.123 143.205 422.64 143.705C422.157 144.199 421.561 144.585 420.85 144.864C420.14 145.136 419.342 145.273 418.455 145.273ZM425.058 148.75V143.125H426.149C426.416 142.847 426.646 142.545 426.839 142.222C427.032 141.898 427.2 141.514 427.342 141.071C427.49 140.622 427.615 140.077 427.717 139.435C427.819 138.787 427.91 138.006 427.99 137.091L428.433 131.909H436.751V143.125H438.762V148.75H436.751V145H427.069V148.75H425.058ZM428.433 143.125H434.74V133.784H430.308L429.967 137.091C429.825 138.46 429.649 139.656 429.439 140.679C429.228 141.702 428.893 142.517 428.433 143.125ZM449.714 137.534V139.409H442.486V137.534H449.714ZM442.964 131.909V145H440.952V131.909H442.964ZM451.248 131.909V145H449.236V131.909H451.248ZM462.316 145V133.75H458.839C458.055 133.75 457.438 133.932 456.989 134.295C456.54 134.659 456.316 135.159 456.316 135.795C456.316 136.42 456.518 136.912 456.921 137.27C457.33 137.628 457.89 137.807 458.6 137.807H462.827V139.682H458.6C457.714 139.682 456.949 139.526 456.307 139.213C455.665 138.901 455.171 138.455 454.824 137.875C454.478 137.29 454.305 136.597 454.305 135.795C454.305 134.989 454.486 134.295 454.85 133.716C455.214 133.136 455.734 132.69 456.41 132.378C457.091 132.065 457.901 131.909 458.839 131.909H464.225V145H462.316ZM453.589 145L457.305 138.489H459.486L455.77 145H453.589ZM475.312 145V133.75H471.835C471.051 133.75 470.435 133.932 469.986 134.295C469.537 134.659 469.312 135.159 469.312 135.795C469.312 136.42 469.514 136.912 469.918 137.27C470.327 137.628 470.886 137.807 471.597 137.807H475.824V139.682H471.597C470.71 139.682 469.946 139.526 469.304 139.213C468.662 138.901 468.168 138.455 467.821 137.875C467.474 137.29 467.301 136.597 467.301 135.795C467.301 134.989 467.483 134.295 467.847 133.716C468.21 133.136 468.73 132.69 469.406 132.378C470.088 132.065 470.898 131.909 471.835 131.909H477.222V145H475.312ZM466.585 145L470.301 138.489H472.483L468.767 145H466.585ZM492.022 145.273C490.795 145.273 489.738 144.983 488.852 144.403C487.965 143.824 487.284 143.026 486.806 142.009C486.329 140.991 486.09 139.83 486.09 138.523C486.09 137.193 486.335 136.02 486.823 135.003C487.318 133.98 488.005 133.182 488.886 132.608C489.772 132.028 490.806 131.739 491.988 131.739C492.909 131.739 493.738 131.909 494.477 132.25C495.215 132.591 495.821 133.068 496.292 133.682C496.764 134.295 497.056 135.011 497.17 135.83H495.159C495.005 135.233 494.664 134.705 494.136 134.244C493.613 133.778 492.909 133.545 492.022 133.545C491.238 133.545 490.551 133.75 489.96 134.159C489.374 134.562 488.917 135.134 488.588 135.872C488.264 136.605 488.102 137.466 488.102 138.455C488.102 139.466 488.261 140.347 488.579 141.097C488.903 141.847 489.357 142.429 489.943 142.844C490.534 143.259 491.227 143.466 492.022 143.466C492.545 143.466 493.019 143.375 493.446 143.193C493.872 143.011 494.232 142.75 494.528 142.409C494.823 142.068 495.034 141.659 495.159 141.182H497.17C497.056 141.955 496.775 142.651 496.326 143.27C495.883 143.884 495.295 144.372 494.562 144.736C493.835 145.094 492.988 145.273 492.022 145.273ZM498.599 133.784V131.909H509.235V133.784H504.94V145H502.929V133.784H498.599ZM514.862 145.307C514.032 145.307 513.28 145.151 512.603 144.838C511.927 144.52 511.39 144.062 510.993 143.466C510.595 142.864 510.396 142.136 510.396 141.284C510.396 140.534 510.544 139.926 510.839 139.46C511.135 138.989 511.53 138.619 512.024 138.352C512.518 138.085 513.064 137.886 513.66 137.756C514.262 137.619 514.868 137.511 515.476 137.432C516.271 137.33 516.916 137.253 517.41 137.202C517.91 137.145 518.274 137.051 518.501 136.92C518.734 136.79 518.851 136.562 518.851 136.239V136.17C518.851 135.33 518.62 134.676 518.16 134.21C517.706 133.744 517.015 133.511 516.089 133.511C515.129 133.511 514.376 133.722 513.831 134.142C513.285 134.562 512.902 135.011 512.68 135.489L510.771 134.807C511.112 134.011 511.566 133.392 512.135 132.949C512.709 132.5 513.334 132.187 514.01 132.011C514.691 131.83 515.362 131.739 516.021 131.739C516.441 131.739 516.924 131.79 517.47 131.892C518.021 131.989 518.552 132.19 519.064 132.497C519.581 132.804 520.01 133.267 520.351 133.886C520.691 134.506 520.862 135.335 520.862 136.375V145H518.851V143.227H518.748C518.612 143.511 518.385 143.815 518.066 144.139C517.748 144.463 517.325 144.739 516.797 144.966C516.268 145.193 515.623 145.307 514.862 145.307ZM515.169 143.5C515.964 143.5 516.635 143.344 517.18 143.031C517.731 142.719 518.146 142.315 518.424 141.821C518.709 141.327 518.851 140.807 518.851 140.261V138.42C518.765 138.523 518.578 138.616 518.288 138.702C518.004 138.781 517.674 138.852 517.299 138.915C516.93 138.972 516.569 139.023 516.217 139.068C515.87 139.108 515.589 139.142 515.373 139.17C514.851 139.239 514.362 139.349 513.907 139.503C513.459 139.651 513.095 139.875 512.816 140.176C512.544 140.472 512.407 140.875 512.407 141.386C512.407 142.085 512.666 142.614 513.183 142.972C513.706 143.324 514.368 143.5 515.169 143.5ZM524.053 145V131.909H529.405C530.814 131.909 531.934 132.227 532.763 132.864C533.593 133.5 534.008 134.341 534.008 135.386C534.008 136.182 533.772 136.798 533.3 137.236C532.829 137.668 532.224 137.96 531.485 138.114C531.968 138.182 532.437 138.352 532.891 138.625C533.351 138.898 533.732 139.273 534.033 139.75C534.334 140.222 534.485 140.801 534.485 141.489C534.485 142.159 534.314 142.759 533.974 143.287C533.633 143.815 533.144 144.233 532.508 144.54C531.871 144.847 531.11 145 530.224 145H524.053ZM525.962 143.159H530.224C530.917 143.159 531.459 142.994 531.851 142.665C532.243 142.335 532.439 141.886 532.439 141.318C532.439 140.642 532.243 140.111 531.851 139.724C531.459 139.332 530.917 139.136 530.224 139.136H525.962V143.159ZM525.962 137.398H529.405C529.945 137.398 530.408 137.324 530.795 137.176C531.181 137.023 531.476 136.807 531.681 136.528C531.891 136.244 531.996 135.909 531.996 135.523C531.996 134.972 531.766 134.54 531.306 134.227C530.846 133.909 530.212 133.75 529.405 133.75H525.962V137.398ZM537.05 145V131.909H539.061V137.602H540.391L545.095 131.909H547.686L542.402 138.216L547.754 145H545.163L540.868 139.477H539.061V145H537.05ZM553.313 145.307C552.483 145.307 551.73 145.151 551.054 144.838C550.378 144.52 549.841 144.062 549.443 143.466C549.046 142.864 548.847 142.136 548.847 141.284C548.847 140.534 548.994 139.926 549.29 139.46C549.585 138.989 549.98 138.619 550.474 138.352C550.969 138.085 551.514 137.886 552.111 137.756C552.713 137.619 553.318 137.511 553.926 137.432C554.722 137.33 555.367 137.253 555.861 137.202C556.361 137.145 556.724 137.051 556.952 136.92C557.185 136.79 557.301 136.562 557.301 136.239V136.17C557.301 135.33 557.071 134.676 556.611 134.21C556.156 133.744 555.466 133.511 554.54 133.511C553.58 133.511 552.827 133.722 552.281 134.142C551.736 134.562 551.352 135.011 551.131 135.489L549.222 134.807C549.563 134.011 550.017 133.392 550.585 132.949C551.159 132.5 551.784 132.187 552.46 132.011C553.142 131.83 553.813 131.739 554.472 131.739C554.892 131.739 555.375 131.79 555.921 131.892C556.472 131.989 557.003 132.19 557.514 132.497C558.031 132.804 558.46 133.267 558.801 133.886C559.142 134.506 559.313 135.335 559.313 136.375V145H557.301V143.227H557.199C557.063 143.511 556.835 143.815 556.517 144.139C556.199 144.463 555.776 144.739 555.247 144.966C554.719 145.193 554.074 145.307 553.313 145.307ZM553.619 143.5C554.415 143.5 555.085 143.344 555.631 143.031C556.182 142.719 556.597 142.315 556.875 141.821C557.159 141.327 557.301 140.807 557.301 140.261V138.42C557.216 138.523 557.028 138.616 556.739 138.702C556.455 138.781 556.125 138.852 555.75 138.915C555.381 138.972 555.02 139.023 554.668 139.068C554.321 139.108 554.04 139.142 553.824 139.17C553.301 139.239 552.813 139.349 552.358 139.503C551.909 139.651 551.546 139.875 551.267 140.176C550.994 140.472 550.858 140.875 550.858 141.386C550.858 142.085 551.117 142.614 551.634 142.972C552.156 143.324 552.818 143.5 553.619 143.5ZM381.841 174V160.909H392.136V174H390.125V162.784H383.852V174H381.841ZM400.648 174.273C399.466 174.273 398.429 173.991 397.537 173.429C396.651 172.866 395.958 172.08 395.458 171.068C394.963 170.057 394.716 168.875 394.716 167.523C394.716 166.159 394.963 164.969 395.458 163.952C395.958 162.935 396.651 162.145 397.537 161.582C398.429 161.02 399.466 160.739 400.648 160.739C401.83 160.739 402.864 161.02 403.75 161.582C404.642 162.145 405.335 162.935 405.83 163.952C406.33 164.969 406.58 166.159 406.58 167.523C406.58 168.875 406.33 170.057 405.83 171.068C405.335 172.08 404.642 172.866 403.75 173.429C402.864 173.991 401.83 174.273 400.648 174.273ZM400.648 172.466C401.546 172.466 402.284 172.236 402.864 171.776C403.443 171.315 403.872 170.71 404.151 169.96C404.429 169.21 404.568 168.398 404.568 167.523C404.568 166.648 404.429 165.832 404.151 165.077C403.872 164.321 403.443 163.71 402.864 163.244C402.284 162.778 401.546 162.545 400.648 162.545C399.75 162.545 399.011 162.778 398.432 163.244C397.852 163.71 397.423 164.321 397.145 165.077C396.867 165.832 396.727 166.648 396.727 167.523C396.727 168.398 396.867 169.21 397.145 169.96C397.423 170.71 397.852 171.315 398.432 171.776C399.011 172.236 399.75 172.466 400.648 172.466ZM415.44 174V160.909H417.451V166.602H418.781L423.485 160.909H426.076L420.792 167.216L426.145 174H423.554L419.258 168.477H417.451V174H415.44ZM427.851 178.909V160.909H429.794V162.989H430.032C430.18 162.761 430.385 162.472 430.646 162.119C430.913 161.761 431.294 161.443 431.788 161.165C432.288 160.881 432.964 160.739 433.817 160.739C434.919 160.739 435.89 161.014 436.731 161.565C437.572 162.116 438.228 162.898 438.7 163.909C439.172 164.92 439.407 166.114 439.407 167.489C439.407 168.875 439.172 170.077 438.7 171.094C438.228 172.105 437.575 172.889 436.74 173.446C435.905 173.997 434.942 174.273 433.851 174.273C433.01 174.273 432.336 174.134 431.831 173.855C431.325 173.571 430.936 173.25 430.663 172.892C430.39 172.528 430.18 172.227 430.032 171.989H429.862V178.909H427.851ZM429.828 167.455C429.828 168.443 429.973 169.315 430.263 170.071C430.552 170.821 430.976 171.409 431.532 171.835C432.089 172.256 432.771 172.466 433.578 172.466C434.419 172.466 435.12 172.244 435.683 171.801C436.251 171.352 436.677 170.75 436.961 169.994C437.251 169.233 437.396 168.386 437.396 167.455C437.396 166.534 437.254 165.705 436.97 164.966C436.692 164.222 436.268 163.634 435.7 163.202C435.138 162.764 434.43 162.545 433.578 162.545C432.76 162.545 432.072 162.753 431.515 163.168C430.959 163.577 430.538 164.151 430.254 164.889C429.97 165.622 429.828 166.477 429.828 167.455ZM447.484 174.273C446.223 174.273 445.135 173.994 444.22 173.438C443.311 172.875 442.609 172.091 442.115 171.085C441.626 170.074 441.382 168.898 441.382 167.557C441.382 166.216 441.626 165.034 442.115 164.011C442.609 162.983 443.297 162.182 444.177 161.608C445.064 161.028 446.098 160.739 447.28 160.739C447.962 160.739 448.635 160.852 449.3 161.08C449.964 161.307 450.569 161.676 451.115 162.188C451.66 162.693 452.095 163.364 452.419 164.199C452.743 165.034 452.905 166.062 452.905 167.284V168.136H442.814V166.398H450.859C450.859 165.659 450.712 165 450.416 164.42C450.126 163.841 449.712 163.384 449.172 163.048C448.638 162.713 448.007 162.545 447.28 162.545C446.479 162.545 445.785 162.744 445.2 163.142C444.621 163.534 444.175 164.045 443.862 164.676C443.55 165.307 443.393 165.983 443.393 166.705V167.864C443.393 168.852 443.564 169.69 443.905 170.378C444.251 171.06 444.731 171.58 445.345 171.938C445.959 172.29 446.672 172.466 447.484 172.466C448.013 172.466 448.49 172.392 448.916 172.244C449.348 172.091 449.72 171.864 450.033 171.562C450.345 171.256 450.587 170.875 450.757 170.42L452.7 170.966C452.496 171.625 452.152 172.205 451.669 172.705C451.186 173.199 450.589 173.585 449.879 173.864C449.169 174.136 448.371 174.273 447.484 174.273ZM454.087 177.75V172.125H455.178C455.445 171.847 455.675 171.545 455.868 171.222C456.061 170.898 456.229 170.514 456.371 170.071C456.518 169.622 456.643 169.077 456.746 168.435C456.848 167.787 456.939 167.006 457.018 166.091L457.462 160.909H465.78V172.125H467.791V177.75H465.78V174H456.098V177.75H454.087ZM457.462 172.125H463.768V162.784H459.337L458.996 166.091C458.854 167.46 458.678 168.656 458.467 169.679C458.257 170.702 457.922 171.517 457.462 172.125ZM471.992 171.034L478.299 160.909H480.617V174H478.606V163.875L472.333 174H469.981V160.909H471.992V171.034ZM482.04 162.784V160.909H492.676V162.784H488.381V174H486.37V162.784H482.04ZM496.426 178.909C496.085 178.909 495.781 178.881 495.514 178.824C495.247 178.773 495.062 178.722 494.96 178.67L495.471 176.898C495.96 177.023 496.392 177.068 496.767 177.034C497.142 177 497.474 176.832 497.764 176.531C498.059 176.236 498.329 175.756 498.573 175.091L498.948 174.068L494.108 160.909H496.289L499.903 171.341H500.039L503.653 160.909H505.835L500.278 175.909C500.028 176.585 499.718 177.145 499.349 177.588C498.98 178.037 498.551 178.369 498.062 178.585C497.579 178.801 497.034 178.909 496.426 178.909Z" fill="#32393E"/>
<rect x="680" width="316" height="212" rx="40" fill="#F8F8F8"/>
<path d="M749.3 72C749.3 73.6 749 75.05 748.4 76.35C747.8 77.65 746.933 78.7667 745.8 79.7C744.667 80.6 743.267 81.3167 741.6 81.85C739.933 82.35 738.05 82.6 735.95 82.6C733.683 82.6 731.717 82.2833 730.05 81.65C728.417 80.9833 727.067 80.15 726 79.15C724.933 78.15 724.117 77.0333 723.55 75.8C723.017 74.5333 722.7 73.3 722.6 72.1H729.25C729.35 72.6 729.55 73.1333 729.85 73.7C730.183 74.2333 730.617 74.7333 731.15 75.2C731.683 75.6333 732.35 76 733.15 76.3C733.95 76.5667 734.883 76.7 735.95 76.7C738.05 76.7 739.683 76.25 740.85 75.35C742.017 74.45 742.6 73.2 742.6 71.6C742.6 70 742.1 68.7833 741.1 67.95C740.1 67.0833 738.683 66.65 736.85 66.65H730.15V60.85H736.65C738.183 60.85 739.383 60.4667 740.25 59.7C741.117 58.9333 741.55 57.8167 741.55 56.35C741.55 54.8833 741.017 53.75 739.95 52.95C738.917 52.1167 737.517 51.7 735.75 51.7C734.783 51.7 733.95 51.8333 733.25 52.1C732.583 52.3333 732.017 52.6667 731.55 53.1C731.083 53.5 730.717 53.9667 730.45 54.5C730.183 55 730 55.5167 729.9 56.05H723.35C723.383 54.85 723.65 53.65 724.15 52.45C724.683 51.25 725.45 50.1667 726.45 49.2C727.483 48.2333 728.767 47.45 730.3 46.85C731.833 46.2167 733.633 45.9 735.7 45.9C739.7 45.9 742.783 46.8167 744.95 48.65C747.117 50.45 748.2 52.8667 748.2 55.9C748.2 56.9667 748.033 57.9 747.7 58.7C747.4 59.5 747.017 60.2 746.55 60.8C746.083 61.4 745.567 61.9 745 62.3C744.433 62.7 743.883 63 743.35 63.2C744.017 63.4 744.7 63.7167 745.4 64.15C746.1 64.5833 746.733 65.15 747.3 65.85C747.9 66.55 748.383 67.4167 748.75 68.45C749.117 69.45 749.3 70.6333 749.3 72ZM767.871 45.85C769.871 45.85 771.671 46.15 773.271 46.75C774.904 47.35 776.271 48.2167 777.371 49.35C778.504 50.4833 779.371 51.8667 779.971 53.5C780.604 55.1333 780.921 56.9667 780.921 59V69.5C780.921 71.6 780.604 73.4667 779.971 75.1C779.371 76.7333 778.504 78.1167 777.371 79.25C776.237 80.35 774.854 81.2 773.221 81.8C771.621 82.3667 769.837 82.65 767.871 82.65C765.904 82.65 764.104 82.3667 762.471 81.8C760.871 81.2 759.504 80.35 758.371 79.25C757.237 78.1167 756.354 76.7333 755.721 75.1C755.121 73.4667 754.821 71.6 754.821 69.5V59C754.821 56.9667 755.121 55.1333 755.721 53.5C756.354 51.8667 757.221 50.4833 758.321 49.35C759.454 48.2167 760.821 47.35 762.421 46.75C764.054 46.15 765.871 45.85 767.871 45.85ZM767.871 76.65C770.004 76.65 771.604 75.9667 772.671 74.6C773.771 73.2333 774.321 71.5 774.321 69.4V59.1C774.321 57 773.771 55.2667 772.671 53.9C771.604 52.5333 770.004 51.85 767.871 51.85C765.704 51.85 764.087 52.5333 763.021 53.9C761.954 55.2667 761.421 57 761.421 59.1V69.4C761.421 71.5 761.954 73.2333 763.021 74.6C764.087 75.9667 765.704 76.65 767.871 76.65ZM786.986 92.35C787.92 90.85 788.77 89.2167 789.536 87.45C790.336 85.6833 790.77 83.8667 790.836 82H787.236V73.5H794.886V81.2C794.886 83.4333 794.553 85.5167 793.886 87.45C793.22 89.3833 792.503 91.0167 791.736 92.35H786.986ZM810.945 82H804.345V53.85L795.595 58.85V52.65L805.995 46.35H810.945V82ZM826.594 64.6C825.26 64.6 824.027 64.3667 822.894 63.9C821.76 63.4 820.76 62.7333 819.894 61.9C819.06 61.0667 818.394 60.0833 817.894 58.95C817.427 57.8167 817.194 56.5833 817.194 55.25C817.194 53.9167 817.427 52.6833 817.894 51.55C818.394 50.4167 819.06 49.4333 819.894 48.6C820.76 47.7667 821.76 47.1167 822.894 46.65C824.027 46.15 825.26 45.9 826.594 45.9C827.927 45.9 829.16 46.15 830.294 46.65C831.427 47.1167 832.41 47.7667 833.244 48.6C834.11 49.4333 834.777 50.4167 835.244 51.55C835.744 52.6833 835.994 53.9167 835.994 55.25C835.994 56.5833 835.744 57.8167 835.244 58.95C834.777 60.0833 834.11 61.0667 833.244 61.9C832.41 62.7333 831.427 63.4 830.294 63.9C829.16 64.3667 827.927 64.6 826.594 64.6ZM849.244 46.5H855.194L829.594 82H823.644L849.244 46.5ZM826.594 59.85C827.894 59.85 828.944 59.4167 829.744 58.55C830.577 57.65 830.994 56.55 830.994 55.25C830.994 53.9833 830.577 52.9167 829.744 52.05C828.944 51.15 827.894 50.7 826.594 50.7C825.294 50.7 824.244 51.15 823.444 52.05C822.644 52.9167 822.244 53.9833 822.244 55.25C822.244 56.55 822.644 57.65 823.444 58.55C824.244 59.4167 825.294 59.85 826.594 59.85ZM852.244 82.7C850.91 82.7 849.677 82.4667 848.544 82C847.41 81.5 846.41 80.8333 845.544 80C844.71 79.1667 844.044 78.1833 843.544 77.05C843.077 75.9167 842.844 74.6833 842.844 73.35C842.844 72.0167 843.077 70.7833 843.544 69.65C844.044 68.5167 844.71 67.5333 845.544 66.7C846.41 65.8667 847.41 65.2167 848.544 64.75C849.677 64.25 850.91 64 852.244 64C853.577 64 854.81 64.25 855.944 64.75C857.077 65.2167 858.06 65.8667 858.894 66.7C859.76 67.5333 860.427 68.5167 860.894 69.65C861.394 70.7833 861.644 72.0167 861.644 73.35C861.644 74.6833 861.394 75.9167 860.894 77.05C860.427 78.1833 859.76 79.1667 858.894 80C858.06 80.8333 857.077 81.5 855.944 82C854.81 82.4667 853.577 82.7 852.244 82.7ZM852.244 77.9C853.544 77.9 854.594 77.4667 855.394 76.6C856.227 75.7 856.644 74.6167 856.644 73.35C856.644 72.05 856.227 70.9667 855.394 70.1C854.594 69.2 853.544 68.75 852.244 68.75C850.977 68.75 849.927 69.2 849.094 70.1C848.294 70.9667 847.894 72.05 847.894 73.35C847.894 74.6167 848.294 75.7 849.094 76.6C849.927 77.4667 850.977 77.9 852.244 77.9Z" fill="black" fill-opacity="0.8"/>
<path opacity="0.9" d="M736.159 133H734.045C733.92 132.392 733.702 131.858 733.389 131.398C733.082 130.938 732.707 130.551 732.264 130.239C731.827 129.92 731.341 129.682 730.807 129.523C730.273 129.364 729.716 129.284 729.136 129.284C728.08 129.284 727.122 129.551 726.264 130.085C725.412 130.619 724.733 131.406 724.227 132.446C723.727 133.486 723.477 134.761 723.477 136.273C723.477 137.784 723.727 139.06 724.227 140.099C724.733 141.139 725.412 141.926 726.264 142.46C727.122 142.994 728.08 143.261 729.136 143.261C729.716 143.261 730.273 143.182 730.807 143.023C731.341 142.864 731.827 142.628 732.264 142.315C732.707 141.997 733.082 141.608 733.389 141.148C733.702 140.682 733.92 140.148 734.045 139.545H736.159C736 140.437 735.71 141.236 735.29 141.94C734.869 142.645 734.347 143.244 733.722 143.739C733.097 144.227 732.395 144.599 731.616 144.855C730.844 145.111 730.017 145.239 729.136 145.239C727.648 145.239 726.324 144.875 725.165 144.148C724.006 143.42 723.094 142.386 722.429 141.045C721.764 139.705 721.432 138.114 721.432 136.273C721.432 134.432 721.764 132.841 722.429 131.5C723.094 130.159 724.006 129.125 725.165 128.398C726.324 127.67 727.648 127.307 729.136 127.307C730.017 127.307 730.844 127.435 731.616 127.69C732.395 127.946 733.097 128.321 733.722 128.815C734.347 129.304 734.869 129.901 735.29 130.605C735.71 131.304 736 132.102 736.159 133ZM738.822 149.909V131.909H740.765V133.989H741.004C741.151 133.761 741.356 133.472 741.617 133.119C741.884 132.761 742.265 132.443 742.759 132.165C743.259 131.881 743.935 131.739 744.788 131.739C745.89 131.739 746.862 132.014 747.703 132.565C748.543 133.116 749.2 133.898 749.671 134.909C750.143 135.92 750.379 137.114 750.379 138.489C750.379 139.875 750.143 141.077 749.671 142.094C749.2 143.105 748.546 143.889 747.711 144.446C746.876 144.997 745.913 145.273 744.822 145.273C743.981 145.273 743.308 145.134 742.802 144.855C742.296 144.571 741.907 144.25 741.634 143.892C741.362 143.528 741.151 143.227 741.004 142.989H740.833V149.909H738.822ZM740.799 138.455C740.799 139.443 740.944 140.315 741.234 141.071C741.524 141.821 741.947 142.409 742.504 142.835C743.06 143.256 743.742 143.466 744.549 143.466C745.39 143.466 746.092 143.244 746.654 142.801C747.222 142.352 747.649 141.75 747.933 140.994C748.222 140.233 748.367 139.386 748.367 138.455C748.367 137.534 748.225 136.705 747.941 135.966C747.663 135.222 747.239 134.634 746.671 134.202C746.109 133.764 745.401 133.545 744.549 133.545C743.731 133.545 743.043 133.753 742.487 134.168C741.93 134.577 741.509 135.151 741.225 135.889C740.941 136.622 740.799 137.477 740.799 138.455ZM758.455 145.273C757.194 145.273 756.106 144.994 755.191 144.438C754.282 143.875 753.58 143.091 753.086 142.085C752.598 141.074 752.353 139.898 752.353 138.557C752.353 137.216 752.598 136.034 753.086 135.011C753.58 133.983 754.268 133.182 755.149 132.608C756.035 132.028 757.069 131.739 758.251 131.739C758.933 131.739 759.606 131.852 760.271 132.08C760.936 132.307 761.541 132.676 762.086 133.188C762.632 133.693 763.066 134.364 763.39 135.199C763.714 136.034 763.876 137.062 763.876 138.284V139.136H753.785V137.398H761.83C761.83 136.659 761.683 136 761.387 135.42C761.098 134.841 760.683 134.384 760.143 134.048C759.609 133.713 758.978 133.545 758.251 133.545C757.45 133.545 756.757 133.744 756.171 134.142C755.592 134.534 755.146 135.045 754.833 135.676C754.521 136.307 754.365 136.983 754.365 137.705V138.864C754.365 139.852 754.535 140.69 754.876 141.378C755.223 142.06 755.703 142.58 756.316 142.938C756.93 143.29 757.643 143.466 758.455 143.466C758.984 143.466 759.461 143.392 759.887 143.244C760.319 143.091 760.691 142.864 761.004 142.562C761.316 142.256 761.558 141.875 761.728 141.42L763.671 141.966C763.467 142.625 763.123 143.205 762.64 143.705C762.157 144.199 761.561 144.585 760.85 144.864C760.14 145.136 759.342 145.273 758.455 145.273ZM765.058 148.75V143.125H766.149C766.416 142.847 766.646 142.545 766.839 142.222C767.032 141.898 767.2 141.514 767.342 141.071C767.49 140.622 767.615 140.077 767.717 139.435C767.819 138.787 767.91 138.006 767.99 137.091L768.433 131.909H776.751V143.125H778.762V148.75H776.751V145H767.069V148.75H765.058ZM768.433 143.125H774.74V133.784H770.308L769.967 137.091C769.825 138.46 769.649 139.656 769.439 140.679C769.228 141.702 768.893 142.517 768.433 143.125ZM789.714 137.534V139.409H782.486V137.534H789.714ZM782.964 131.909V145H780.952V131.909H782.964ZM791.248 131.909V145H789.236V131.909H791.248ZM796.452 142.034L802.759 131.909H805.077V145H803.066V134.875L796.793 145H794.441V131.909H796.452V142.034ZM810.293 142.034L816.599 131.909H818.918V145H816.906V134.875L810.633 145H808.281V131.909H810.293V142.034ZM815.27 127.545H817.145C817.145 128.466 816.827 129.219 816.19 129.804C815.554 130.389 814.69 130.682 813.599 130.682C812.526 130.682 811.67 130.389 811.034 129.804C810.403 129.219 810.088 128.466 810.088 127.545H811.963C811.963 127.989 812.085 128.378 812.33 128.713C812.58 129.048 813.003 129.216 813.599 129.216C814.196 129.216 814.622 129.048 814.878 128.713C815.139 128.378 815.27 127.989 815.27 127.545ZM721.841 178.909V160.909H723.784V162.989H724.023C724.17 162.761 724.375 162.472 724.636 162.119C724.903 161.761 725.284 161.443 725.778 161.165C726.278 160.881 726.955 160.739 727.807 160.739C728.909 160.739 729.881 161.014 730.722 161.565C731.563 162.116 732.219 162.898 732.69 163.909C733.162 164.92 733.398 166.114 733.398 167.489C733.398 168.875 733.162 170.077 732.69 171.094C732.219 172.105 731.565 172.889 730.73 173.446C729.895 173.997 728.932 174.273 727.841 174.273C727 174.273 726.327 174.134 725.821 173.855C725.315 173.571 724.926 173.25 724.653 172.892C724.381 172.528 724.17 172.227 724.023 171.989H723.852V178.909H721.841ZM723.818 167.455C723.818 168.443 723.963 169.315 724.253 170.071C724.543 170.821 724.966 171.409 725.523 171.835C726.08 172.256 726.761 172.466 727.568 172.466C728.409 172.466 729.111 172.244 729.673 171.801C730.241 171.352 730.668 170.75 730.952 169.994C731.241 169.233 731.386 168.386 731.386 167.455C731.386 166.534 731.244 165.705 730.96 164.966C730.682 164.222 730.259 163.634 729.69 163.202C729.128 162.764 728.42 162.545 727.568 162.545C726.75 162.545 726.063 162.753 725.506 163.168C724.949 163.577 724.528 164.151 724.244 164.889C723.96 165.622 723.818 166.477 723.818 167.455ZM739.838 174.307C739.009 174.307 738.256 174.151 737.58 173.838C736.904 173.52 736.367 173.062 735.969 172.466C735.571 171.864 735.372 171.136 735.372 170.284C735.372 169.534 735.52 168.926 735.815 168.46C736.111 167.989 736.506 167.619 737 167.352C737.494 167.085 738.04 166.886 738.636 166.756C739.239 166.619 739.844 166.511 740.452 166.432C741.247 166.33 741.892 166.253 742.386 166.202C742.886 166.145 743.25 166.051 743.477 165.92C743.71 165.79 743.827 165.562 743.827 165.239V165.17C743.827 164.33 743.597 163.676 743.136 163.21C742.682 162.744 741.992 162.511 741.065 162.511C740.105 162.511 739.352 162.722 738.807 163.142C738.261 163.562 737.878 164.011 737.656 164.489L735.747 163.807C736.088 163.011 736.543 162.392 737.111 161.949C737.685 161.5 738.31 161.187 738.986 161.011C739.668 160.83 740.338 160.739 740.997 160.739C741.418 160.739 741.901 160.79 742.446 160.892C742.997 160.989 743.529 161.19 744.04 161.497C744.557 161.804 744.986 162.267 745.327 162.886C745.668 163.506 745.838 164.335 745.838 165.375V174H743.827V172.227H743.725C743.588 172.511 743.361 172.815 743.043 173.139C742.725 173.463 742.301 173.739 741.773 173.966C741.244 174.193 740.6 174.307 739.838 174.307ZM740.145 172.5C740.94 172.5 741.611 172.344 742.156 172.031C742.708 171.719 743.122 171.315 743.401 170.821C743.685 170.327 743.827 169.807 743.827 169.261V167.42C743.742 167.523 743.554 167.616 743.264 167.702C742.98 167.781 742.651 167.852 742.276 167.915C741.906 167.972 741.546 168.023 741.193 168.068C740.847 168.108 740.565 168.142 740.35 168.17C739.827 168.239 739.338 168.349 738.884 168.503C738.435 168.651 738.071 168.875 737.793 169.176C737.52 169.472 737.384 169.875 737.384 170.386C737.384 171.085 737.642 171.614 738.159 171.972C738.682 172.324 739.344 172.5 740.145 172.5ZM748.211 170.659H750.359C750.404 171.25 750.671 171.699 751.16 172.006C751.654 172.312 752.296 172.466 753.086 172.466C753.893 172.466 754.583 172.301 755.157 171.972C755.731 171.636 756.018 171.097 756.018 170.352C756.018 169.915 755.91 169.534 755.694 169.21C755.478 168.881 755.174 168.625 754.782 168.443C754.39 168.261 753.927 168.17 753.393 168.17H751.143V166.364H753.393C754.194 166.364 754.785 166.182 755.166 165.818C755.552 165.455 755.745 165 755.745 164.455C755.745 163.869 755.538 163.401 755.123 163.048C754.708 162.69 754.12 162.511 753.359 162.511C752.592 162.511 751.953 162.685 751.441 163.031C750.93 163.372 750.66 163.812 750.632 164.352H748.518C748.541 163.648 748.757 163.026 749.166 162.486C749.575 161.94 750.132 161.514 750.836 161.207C751.541 160.895 752.348 160.739 753.257 160.739C754.177 160.739 754.975 160.901 755.652 161.224C756.333 161.543 756.859 161.977 757.228 162.528C757.603 163.074 757.791 163.693 757.791 164.386C757.791 165.125 757.583 165.722 757.169 166.176C756.754 166.631 756.234 166.955 755.609 167.148V167.284C756.103 167.318 756.532 167.477 756.896 167.761C757.265 168.04 757.552 168.406 757.757 168.861C757.961 169.31 758.063 169.807 758.063 170.352C758.063 171.148 757.85 171.841 757.424 172.432C756.998 173.017 756.413 173.472 755.669 173.795C754.924 174.114 754.075 174.273 753.12 174.273C752.194 174.273 751.365 174.122 750.632 173.821C749.899 173.514 749.316 173.091 748.884 172.551C748.458 172.006 748.234 171.375 748.211 170.659ZM767.568 171.273L772.136 160.909H774.045L768.386 174H766.75L761.193 160.909H763.068L767.568 171.273ZM762.42 160.909V174H760.409V160.909H762.42ZM772.716 174V160.909H774.727V174H772.716ZM783.417 174.273C782.156 174.273 781.068 173.994 780.153 173.438C779.244 172.875 778.542 172.091 778.048 171.085C777.559 170.074 777.315 168.898 777.315 167.557C777.315 166.216 777.559 165.034 778.048 164.011C778.542 162.983 779.23 162.182 780.111 161.608C780.997 161.028 782.031 160.739 783.213 160.739C783.895 160.739 784.568 160.852 785.233 161.08C785.897 161.307 786.503 161.676 787.048 162.188C787.593 162.693 788.028 163.364 788.352 164.199C788.676 165.034 788.838 166.062 788.838 167.284V168.136H778.747V166.398H786.792C786.792 165.659 786.645 165 786.349 164.42C786.059 163.841 785.645 163.384 785.105 163.048C784.571 162.713 783.94 162.545 783.213 162.545C782.412 162.545 781.718 162.744 781.133 163.142C780.554 163.534 780.108 164.045 779.795 164.676C779.483 165.307 779.326 165.983 779.326 166.705V167.864C779.326 168.852 779.497 169.69 779.838 170.378C780.184 171.06 780.665 171.58 781.278 171.938C781.892 172.29 782.605 172.466 783.417 172.466C783.946 172.466 784.423 172.392 784.849 172.244C785.281 172.091 785.653 171.864 785.966 171.562C786.278 171.256 786.52 170.875 786.69 170.42L788.633 170.966C788.429 171.625 788.085 172.205 787.602 172.705C787.119 173.199 786.522 173.585 785.812 173.864C785.102 174.136 784.304 174.273 783.417 174.273ZM791.417 178.909V160.909H793.361V162.989H793.599C793.747 162.761 793.952 162.472 794.213 162.119C794.48 161.761 794.861 161.443 795.355 161.165C795.855 160.881 796.531 160.739 797.383 160.739C798.486 160.739 799.457 161.014 800.298 161.565C801.139 162.116 801.795 162.898 802.267 163.909C802.738 164.92 802.974 166.114 802.974 167.489C802.974 168.875 802.738 170.077 802.267 171.094C801.795 172.105 801.142 172.889 800.307 173.446C799.471 173.997 798.508 174.273 797.417 174.273C796.577 174.273 795.903 174.134 795.398 173.855C794.892 173.571 794.503 173.25 794.23 172.892C793.957 172.528 793.747 172.227 793.599 171.989H793.429V178.909H791.417ZM793.395 167.455C793.395 168.443 793.54 169.315 793.829 170.071C794.119 170.821 794.542 171.409 795.099 171.835C795.656 172.256 796.338 172.466 797.145 172.466C797.986 172.466 798.687 172.244 799.25 171.801C799.818 171.352 800.244 170.75 800.528 169.994C800.818 169.233 800.963 168.386 800.963 167.455C800.963 166.534 800.821 165.705 800.537 164.966C800.258 164.222 799.835 163.634 799.267 163.202C798.704 162.764 797.997 162.545 797.145 162.545C796.327 162.545 795.639 162.753 795.082 163.168C794.525 163.577 794.105 164.151 793.821 164.889C793.537 165.622 793.395 166.477 793.395 167.455ZM825.162 156.545V174H823.048V158.42H814.253V174H812.139V156.545H825.162ZM828.946 174V156.545H835.048C836.264 156.545 837.267 156.756 838.056 157.176C838.846 157.591 839.434 158.151 839.821 158.855C840.207 159.554 840.4 160.33 840.4 161.182C840.4 161.932 840.267 162.551 839.999 163.04C839.738 163.528 839.392 163.915 838.96 164.199C838.534 164.483 838.071 164.693 837.571 164.83V165C838.105 165.034 838.642 165.222 839.181 165.562C839.721 165.903 840.173 166.392 840.536 167.028C840.9 167.665 841.082 168.443 841.082 169.364C841.082 170.239 840.883 171.026 840.485 171.724C840.088 172.423 839.46 172.977 838.602 173.386C837.744 173.795 836.627 174 835.252 174H828.946ZM831.059 172.125H835.252C836.633 172.125 837.613 171.858 838.193 171.324C838.778 170.784 839.071 170.131 839.071 169.364C839.071 168.773 838.92 168.227 838.619 167.727C838.318 167.222 837.889 166.818 837.332 166.517C836.775 166.21 836.116 166.057 835.355 166.057H831.059V172.125ZM831.059 164.216H834.98C835.616 164.216 836.19 164.091 836.701 163.841C837.218 163.591 837.627 163.239 837.928 162.784C838.235 162.33 838.389 161.795 838.389 161.182C838.389 160.415 838.122 159.764 837.588 159.23C837.053 158.69 836.207 158.42 835.048 158.42H831.059V164.216Z" fill="#32393E"/>
<rect x="1020" width="316" height="212" rx="40" fill="#F8F8F8"/>
<path d="M1089.3 72C1089.3 73.6 1089 75.05 1088.4 76.35C1087.8 77.65 1086.93 78.7667 1085.8 79.7C1084.67 80.6 1083.27 81.3167 1081.6 81.85C1079.93 82.35 1078.05 82.6 1075.95 82.6C1073.68 82.6 1071.72 82.2833 1070.05 81.65C1068.42 80.9833 1067.07 80.15 1066 79.15C1064.93 78.15 1064.12 77.0333 1063.55 75.8C1063.02 74.5333 1062.7 73.3 1062.6 72.1H1069.25C1069.35 72.6 1069.55 73.1333 1069.85 73.7C1070.18 74.2333 1070.62 74.7333 1071.15 75.2C1071.68 75.6333 1072.35 76 1073.15 76.3C1073.95 76.5667 1074.88 76.7 1075.95 76.7C1078.05 76.7 1079.68 76.25 1080.85 75.35C1082.02 74.45 1082.6 73.2 1082.6 71.6C1082.6 70 1082.1 68.7833 1081.1 67.95C1080.1 67.0833 1078.68 66.65 1076.85 66.65H1070.15V60.85H1076.65C1078.18 60.85 1079.38 60.4667 1080.25 59.7C1081.12 58.9333 1081.55 57.8167 1081.55 56.35C1081.55 54.8833 1081.02 53.75 1079.95 52.95C1078.92 52.1167 1077.52 51.7 1075.75 51.7C1074.78 51.7 1073.95 51.8333 1073.25 52.1C1072.58 52.3333 1072.02 52.6667 1071.55 53.1C1071.08 53.5 1070.72 53.9667 1070.45 54.5C1070.18 55 1070 55.5167 1069.9 56.05H1063.35C1063.38 54.85 1063.65 53.65 1064.15 52.45C1064.68 51.25 1065.45 50.1667 1066.45 49.2C1067.48 48.2333 1068.77 47.45 1070.3 46.85C1071.83 46.2167 1073.63 45.9 1075.7 45.9C1079.7 45.9 1082.78 46.8167 1084.95 48.65C1087.12 50.45 1088.2 52.8667 1088.2 55.9C1088.2 56.9667 1088.03 57.9 1087.7 58.7C1087.4 59.5 1087.02 60.2 1086.55 60.8C1086.08 61.4 1085.57 61.9 1085 62.3C1084.43 62.7 1083.88 63 1083.35 63.2C1084.02 63.4 1084.7 63.7167 1085.4 64.15C1086.1 64.5833 1086.73 65.15 1087.3 65.85C1087.9 66.55 1088.38 67.4167 1088.75 68.45C1089.12 69.45 1089.3 70.6333 1089.3 72ZM1107.87 45.85C1109.87 45.85 1111.67 46.15 1113.27 46.75C1114.9 47.35 1116.27 48.2167 1117.37 49.35C1118.5 50.4833 1119.37 51.8667 1119.97 53.5C1120.6 55.1333 1120.92 56.9667 1120.92 59V69.5C1120.92 71.6 1120.6 73.4667 1119.97 75.1C1119.37 76.7333 1118.5 78.1167 1117.37 79.25C1116.24 80.35 1114.85 81.2 1113.22 81.8C1111.62 82.3667 1109.84 82.65 1107.87 82.65C1105.9 82.65 1104.1 82.3667 1102.47 81.8C1100.87 81.2 1099.5 80.35 1098.37 79.25C1097.24 78.1167 1096.35 76.7333 1095.72 75.1C1095.12 73.4667 1094.82 71.6 1094.82 69.5V59C1094.82 56.9667 1095.12 55.1333 1095.72 53.5C1096.35 51.8667 1097.22 50.4833 1098.32 49.35C1099.45 48.2167 1100.82 47.35 1102.42 46.75C1104.05 46.15 1105.87 45.85 1107.87 45.85ZM1107.87 76.65C1110 76.65 1111.6 75.9667 1112.67 74.6C1113.77 73.2333 1114.32 71.5 1114.32 69.4V59.1C1114.32 57 1113.77 55.2667 1112.67 53.9C1111.6 52.5333 1110 51.85 1107.87 51.85C1105.7 51.85 1104.09 52.5333 1103.02 53.9C1101.95 55.2667 1101.42 57 1101.42 59.1V69.4C1101.42 71.5 1101.95 73.2333 1103.02 74.6C1104.09 75.9667 1105.7 76.65 1107.87 76.65ZM1141.58 56.7H1161.98V82H1155.63V62.15H1146.78L1145.93 71.15C1145.76 73.05 1145.49 74.7 1145.13 76.1C1144.76 77.5 1144.24 78.65 1143.58 79.55C1142.91 80.45 1142.06 81.1333 1141.03 81.6C1139.99 82.0333 1138.73 82.25 1137.23 82.25H1135.53V76.45H1136.13C1136.86 76.45 1137.46 76.3667 1137.93 76.2C1138.43 76 1138.83 75.6833 1139.13 75.25C1139.43 74.7833 1139.66 74.1667 1139.83 73.4C1139.99 72.6333 1140.13 71.6667 1140.23 70.5L1141.58 56.7ZM1179.81 56.05C1181.74 56.05 1183.53 56.3833 1185.16 57.05C1186.79 57.6833 1188.19 58.6 1189.36 59.8C1190.53 60.9667 1191.43 62.4 1192.06 64.1C1192.73 65.7667 1193.06 67.6333 1193.06 69.7V70.4H1172.96C1173.03 71.4 1173.24 72.3167 1173.61 73.15C1174.01 73.9833 1174.53 74.7167 1175.16 75.35C1175.79 75.9833 1176.54 76.4833 1177.41 76.85C1178.28 77.1833 1179.24 77.35 1180.31 77.35C1181.31 77.35 1182.18 77.25 1182.91 77.05C1183.64 76.8167 1184.24 76.55 1184.71 76.25C1185.21 75.95 1185.59 75.65 1185.86 75.35C1186.16 75.0167 1186.36 74.7667 1186.46 74.6H1192.76C1192.66 75.2667 1192.36 76.0667 1191.86 77C1191.36 77.9 1190.61 78.7667 1189.61 79.6C1188.61 80.4333 1187.34 81.15 1185.81 81.75C1184.28 82.35 1182.44 82.65 1180.31 82.65C1178.24 82.65 1176.36 82.3167 1174.66 81.65C1172.99 80.9833 1171.56 80.05 1170.36 78.85C1169.16 77.65 1168.23 76.25 1167.56 74.65C1166.89 73.0167 1166.56 71.25 1166.56 69.35C1166.56 67.3833 1166.88 65.5833 1167.51 63.95C1168.18 62.3167 1169.09 60.9167 1170.26 59.75C1171.46 58.5833 1172.86 57.6833 1174.46 57.05C1176.09 56.3833 1177.88 56.05 1179.81 56.05ZM1179.81 61C1178.08 61 1176.63 61.45 1175.46 62.35C1174.33 63.2167 1173.56 64.4333 1173.16 66H1186.36C1185.89 64.4 1185.09 63.1667 1183.96 62.3C1182.83 61.4333 1181.44 61 1179.81 61ZM1204.32 62.15H1194.47V56.7H1220.47V62.15H1210.67V82H1204.32V62.15Z" fill="black" fill-opacity="0.8"/>
<path opacity="0.9" d="M1076.16 133H1074.05C1073.92 132.392 1073.7 131.858 1073.39 131.398C1073.08 130.938 1072.71 130.551 1072.26 130.239C1071.83 129.92 1071.34 129.682 1070.81 129.523C1070.27 129.364 1069.72 129.284 1069.14 129.284C1068.08 129.284 1067.12 129.551 1066.26 130.085C1065.41 130.619 1064.73 131.406 1064.23 132.446C1063.73 133.486 1063.48 134.761 1063.48 136.273C1063.48 137.784 1063.73 139.06 1064.23 140.099C1064.73 141.139 1065.41 141.926 1066.26 142.46C1067.12 142.994 1068.08 143.261 1069.14 143.261C1069.72 143.261 1070.27 143.182 1070.81 143.023C1071.34 142.864 1071.83 142.628 1072.26 142.315C1072.71 141.997 1073.08 141.608 1073.39 141.148C1073.7 140.682 1073.92 140.148 1074.05 139.545H1076.16C1076 140.437 1075.71 141.236 1075.29 141.94C1074.87 142.645 1074.35 143.244 1073.72 143.739C1073.1 144.227 1072.39 144.599 1071.62 144.855C1070.84 145.111 1070.02 145.239 1069.14 145.239C1067.65 145.239 1066.32 144.875 1065.16 144.148C1064.01 143.42 1063.09 142.386 1062.43 141.045C1061.76 139.705 1061.43 138.114 1061.43 136.273C1061.43 134.432 1061.76 132.841 1062.43 131.5C1063.09 130.159 1064.01 129.125 1065.16 128.398C1066.32 127.67 1067.65 127.307 1069.14 127.307C1070.02 127.307 1070.84 127.435 1071.62 127.69C1072.39 127.946 1073.1 128.321 1073.72 128.815C1074.35 129.304 1074.87 129.901 1075.29 130.605C1075.71 131.304 1076 132.102 1076.16 133ZM1078.82 149.909V131.909H1080.77V133.989H1081C1081.15 133.761 1081.36 133.472 1081.62 133.119C1081.88 132.761 1082.27 132.443 1082.76 132.165C1083.26 131.881 1083.94 131.739 1084.79 131.739C1085.89 131.739 1086.86 132.014 1087.7 132.565C1088.54 133.116 1089.2 133.898 1089.67 134.909C1090.14 135.92 1090.38 137.114 1090.38 138.489C1090.38 139.875 1090.14 141.077 1089.67 142.094C1089.2 143.105 1088.55 143.889 1087.71 144.446C1086.88 144.997 1085.91 145.273 1084.82 145.273C1083.98 145.273 1083.31 145.134 1082.8 144.855C1082.3 144.571 1081.91 144.25 1081.63 143.892C1081.36 143.528 1081.15 143.227 1081 142.989H1080.83V149.909H1078.82ZM1080.8 138.455C1080.8 139.443 1080.94 140.315 1081.23 141.071C1081.52 141.821 1081.95 142.409 1082.5 142.835C1083.06 143.256 1083.74 143.466 1084.55 143.466C1085.39 143.466 1086.09 143.244 1086.65 142.801C1087.22 142.352 1087.65 141.75 1087.93 140.994C1088.22 140.233 1088.37 139.386 1088.37 138.455C1088.37 137.534 1088.23 136.705 1087.94 135.966C1087.66 135.222 1087.24 134.634 1086.67 134.202C1086.11 133.764 1085.4 133.545 1084.55 133.545C1083.73 133.545 1083.04 133.753 1082.49 134.168C1081.93 134.577 1081.51 135.151 1081.23 135.889C1080.94 136.622 1080.8 137.477 1080.8 138.455ZM1098.46 145.273C1097.19 145.273 1096.11 144.994 1095.19 144.438C1094.28 143.875 1093.58 143.091 1093.09 142.085C1092.6 141.074 1092.35 139.898 1092.35 138.557C1092.35 137.216 1092.6 136.034 1093.09 135.011C1093.58 133.983 1094.27 133.182 1095.15 132.608C1096.04 132.028 1097.07 131.739 1098.25 131.739C1098.93 131.739 1099.61 131.852 1100.27 132.08C1100.94 132.307 1101.54 132.676 1102.09 133.188C1102.63 133.693 1103.07 134.364 1103.39 135.199C1103.71 136.034 1103.88 137.062 1103.88 138.284V139.136H1093.79V137.398H1101.83C1101.83 136.659 1101.68 136 1101.39 135.42C1101.1 134.841 1100.68 134.384 1100.14 134.048C1099.61 133.713 1098.98 133.545 1098.25 133.545C1097.45 133.545 1096.76 133.744 1096.17 134.142C1095.59 134.534 1095.15 135.045 1094.83 135.676C1094.52 136.307 1094.36 136.983 1094.36 137.705V138.864C1094.36 139.852 1094.54 140.69 1094.88 141.378C1095.22 142.06 1095.7 142.58 1096.32 142.938C1096.93 143.29 1097.64 143.466 1098.46 143.466C1098.98 143.466 1099.46 143.392 1099.89 143.244C1100.32 143.091 1100.69 142.864 1101 142.562C1101.32 142.256 1101.56 141.875 1101.73 141.42L1103.67 141.966C1103.47 142.625 1103.12 143.205 1102.64 143.705C1102.16 144.199 1101.56 144.585 1100.85 144.864C1100.14 145.136 1099.34 145.273 1098.46 145.273ZM1105.06 148.75V143.125H1106.15C1106.42 142.847 1106.65 142.545 1106.84 142.222C1107.03 141.898 1107.2 141.514 1107.34 141.071C1107.49 140.622 1107.61 140.077 1107.72 139.435C1107.82 138.787 1107.91 138.006 1107.99 137.091L1108.43 131.909H1116.75V143.125H1118.76V148.75H1116.75V145H1107.07V148.75H1105.06ZM1108.43 143.125H1114.74V133.784H1110.31L1109.97 137.091C1109.82 138.46 1109.65 139.656 1109.44 140.679C1109.23 141.702 1108.89 142.517 1108.43 143.125ZM1129.71 137.534V139.409H1122.49V137.534H1129.71ZM1122.96 131.909V145H1120.95V131.909H1122.96ZM1131.25 131.909V145H1129.24V131.909H1131.25ZM1136.45 142.034L1142.76 131.909H1145.08V145H1143.07V134.875L1136.79 145H1134.44V131.909H1136.45V142.034ZM1150.29 142.034L1156.6 131.909H1158.92V145H1156.91V134.875L1150.63 145H1148.28V131.909H1150.29V142.034ZM1155.27 127.545H1157.14C1157.14 128.466 1156.83 129.219 1156.19 129.804C1155.55 130.389 1154.69 130.682 1153.6 130.682C1152.53 130.682 1151.67 130.389 1151.03 129.804C1150.4 129.219 1150.09 128.466 1150.09 127.545H1151.96C1151.96 127.989 1152.09 128.378 1152.33 128.713C1152.58 129.048 1153 129.216 1153.6 129.216C1154.2 129.216 1154.62 129.048 1154.88 128.713C1155.14 128.378 1155.27 127.989 1155.27 127.545ZM1173.71 145.273C1172.48 145.273 1171.43 144.983 1170.54 144.403C1169.65 143.824 1168.97 143.026 1168.49 142.009C1168.02 140.991 1167.78 139.83 1167.78 138.523C1167.78 137.193 1168.02 136.02 1168.51 135.003C1169.01 133.98 1169.69 133.182 1170.57 132.608C1171.46 132.028 1172.49 131.739 1173.68 131.739C1174.6 131.739 1175.43 131.909 1176.16 132.25C1176.9 132.591 1177.51 133.068 1177.98 133.682C1178.45 134.295 1178.74 135.011 1178.86 135.83H1176.85C1176.69 135.233 1176.35 134.705 1175.82 134.244C1175.3 133.778 1174.6 133.545 1173.71 133.545C1172.93 133.545 1172.24 133.75 1171.65 134.159C1171.06 134.562 1170.6 135.134 1170.28 135.872C1169.95 136.605 1169.79 137.466 1169.79 138.455C1169.79 139.466 1169.95 140.347 1170.27 141.097C1170.59 141.847 1171.04 142.429 1171.63 142.844C1172.22 143.259 1172.91 143.466 1173.71 143.466C1174.23 143.466 1174.71 143.375 1175.13 143.193C1175.56 143.011 1175.92 142.75 1176.22 142.409C1176.51 142.068 1176.72 141.659 1176.85 141.182H1178.86C1178.74 141.955 1178.46 142.651 1178.01 143.27C1177.57 143.884 1176.98 144.372 1176.25 144.736C1175.52 145.094 1174.68 145.273 1173.71 145.273ZM1181.32 149.909V131.909H1183.26V133.989H1183.5C1183.65 133.761 1183.85 133.472 1184.11 133.119C1184.38 132.761 1184.76 132.443 1185.26 132.165C1185.76 131.881 1186.43 131.739 1187.28 131.739C1188.39 131.739 1189.36 132.014 1190.2 132.565C1191.04 133.116 1191.7 133.898 1192.17 134.909C1192.64 135.92 1192.87 137.114 1192.87 138.489C1192.87 139.875 1192.64 141.077 1192.17 142.094C1191.7 143.105 1191.04 143.889 1190.21 144.446C1189.37 144.997 1188.41 145.273 1187.32 145.273C1186.48 145.273 1185.8 145.134 1185.3 144.855C1184.79 144.571 1184.4 144.25 1184.13 143.892C1183.86 143.528 1183.65 143.227 1183.5 142.989H1183.33V149.909H1181.32ZM1183.3 138.455C1183.3 139.443 1183.44 140.315 1183.73 141.071C1184.02 141.821 1184.44 142.409 1185 142.835C1185.56 143.256 1186.24 143.466 1187.05 143.466C1187.89 143.466 1188.59 143.244 1189.15 142.801C1189.72 142.352 1190.14 141.75 1190.43 140.994C1190.72 140.233 1190.86 139.386 1190.86 138.455C1190.86 137.534 1190.72 136.705 1190.44 135.966C1190.16 135.222 1189.74 134.634 1189.17 134.202C1188.6 133.764 1187.9 133.545 1187.05 133.545C1186.23 133.545 1185.54 133.753 1184.98 134.168C1184.43 134.577 1184.01 135.151 1183.72 135.889C1183.44 136.622 1183.3 137.477 1183.3 138.455ZM1200.78 145.273C1199.6 145.273 1198.56 144.991 1197.67 144.429C1196.78 143.866 1196.09 143.08 1195.59 142.068C1195.1 141.057 1194.85 139.875 1194.85 138.523C1194.85 137.159 1195.1 135.969 1195.59 134.952C1196.09 133.935 1196.78 133.145 1197.67 132.582C1198.56 132.02 1199.6 131.739 1200.78 131.739C1201.96 131.739 1203 132.02 1203.88 132.582C1204.78 133.145 1205.47 133.935 1205.96 134.952C1206.46 135.969 1206.71 137.159 1206.71 138.523C1206.71 139.875 1206.46 141.057 1205.96 142.068C1205.47 143.08 1204.78 143.866 1203.88 144.429C1203 144.991 1201.96 145.273 1200.78 145.273ZM1200.78 143.466C1201.68 143.466 1202.42 143.236 1203 142.776C1203.58 142.315 1204.01 141.71 1204.28 140.96C1204.56 140.21 1204.7 139.398 1204.7 138.523C1204.7 137.648 1204.56 136.832 1204.28 136.077C1204.01 135.321 1203.58 134.71 1203 134.244C1202.42 133.778 1201.68 133.545 1200.78 133.545C1199.88 133.545 1199.14 133.778 1198.57 134.244C1197.99 134.71 1197.56 135.321 1197.28 136.077C1197 136.832 1196.86 137.648 1196.86 138.523C1196.86 139.398 1197 140.21 1197.28 140.96C1197.56 141.71 1197.99 142.315 1198.57 142.776C1199.14 143.236 1199.88 143.466 1200.78 143.466ZM1209.3 145V131.909H1211.31V137.602H1212.64L1217.35 131.909H1219.94L1214.66 138.216L1220.01 145H1217.42L1213.12 139.477H1211.31V145H1209.3ZM1061.84 174V160.909H1063.85V166.602H1065.18L1069.89 160.909H1072.48L1067.19 167.216L1072.55 174H1069.95L1065.66 168.477H1063.85V174H1061.84ZM1074.25 178.909V160.909H1076.19V162.989H1076.43C1076.58 162.761 1076.79 162.472 1077.05 162.119C1077.31 161.761 1077.69 161.443 1078.19 161.165C1078.69 160.881 1079.37 160.739 1080.22 160.739C1081.32 160.739 1082.29 161.014 1083.13 161.565C1083.97 162.116 1084.63 162.898 1085.1 163.909C1085.57 164.92 1085.81 166.114 1085.81 167.489C1085.81 168.875 1085.57 170.077 1085.1 171.094C1084.63 172.105 1083.98 172.889 1083.14 173.446C1082.31 173.997 1081.34 174.273 1080.25 174.273C1079.41 174.273 1078.74 174.134 1078.23 173.855C1077.73 173.571 1077.34 173.25 1077.06 172.892C1076.79 172.528 1076.58 172.227 1076.43 171.989H1076.26V178.909H1074.25ZM1076.23 167.455C1076.23 168.443 1076.37 169.315 1076.66 170.071C1076.95 170.821 1077.38 171.409 1077.93 171.835C1078.49 172.256 1079.17 172.466 1079.98 172.466C1080.82 172.466 1081.52 172.244 1082.08 171.801C1082.65 171.352 1083.08 170.75 1083.36 169.994C1083.65 169.233 1083.8 168.386 1083.8 167.455C1083.8 166.534 1083.65 165.705 1083.37 164.966C1083.09 164.222 1082.67 163.634 1082.1 163.202C1081.54 162.764 1080.83 162.545 1079.98 162.545C1079.16 162.545 1078.47 162.753 1077.92 163.168C1077.36 163.577 1076.94 164.151 1076.65 164.889C1076.37 165.622 1076.23 166.477 1076.23 167.455ZM1093.89 174.273C1092.62 174.273 1091.54 173.994 1090.62 173.438C1089.71 172.875 1089.01 172.091 1088.52 171.085C1088.03 170.074 1087.78 168.898 1087.78 167.557C1087.78 166.216 1088.03 165.034 1088.52 164.011C1089.01 162.983 1089.7 162.182 1090.58 161.608C1091.46 161.028 1092.5 160.739 1093.68 160.739C1094.36 160.739 1095.04 160.852 1095.7 161.08C1096.37 161.307 1096.97 161.676 1097.52 162.188C1098.06 162.693 1098.5 163.364 1098.82 164.199C1099.14 165.034 1099.31 166.062 1099.31 167.284V168.136H1089.21V166.398H1097.26C1097.26 165.659 1097.11 165 1096.82 164.42C1096.53 163.841 1096.11 163.384 1095.57 163.048C1095.04 162.713 1094.41 162.545 1093.68 162.545C1092.88 162.545 1092.19 162.744 1091.6 163.142C1091.02 163.534 1090.58 164.045 1090.26 164.676C1089.95 165.307 1089.79 165.983 1089.79 166.705V167.864C1089.79 168.852 1089.96 169.69 1090.31 170.378C1090.65 171.06 1091.13 171.58 1091.75 171.938C1092.36 172.29 1093.07 172.466 1093.89 172.466C1094.41 172.466 1094.89 172.392 1095.32 172.244C1095.75 172.091 1096.12 171.864 1096.43 171.562C1096.75 171.256 1096.99 170.875 1097.16 170.42L1099.1 170.966C1098.9 171.625 1098.55 172.205 1098.07 172.705C1097.59 173.199 1096.99 173.585 1096.28 173.864C1095.57 174.136 1094.77 174.273 1093.89 174.273ZM1100.49 177.75V172.125H1101.58C1101.85 171.847 1102.08 171.545 1102.27 171.222C1102.46 170.898 1102.63 170.514 1102.77 170.071C1102.92 169.622 1103.04 169.077 1103.15 168.435C1103.25 167.787 1103.34 167.006 1103.42 166.091L1103.86 160.909H1112.18V172.125H1114.19V177.75H1112.18V174H1102.5V177.75H1100.49ZM1103.86 172.125H1110.17V162.784H1105.74L1105.4 166.091C1105.25 167.46 1105.08 168.656 1104.87 169.679C1104.66 170.702 1104.32 171.517 1103.86 172.125ZM1118.39 171.034L1124.7 160.909H1127.02V174H1125.01V163.875L1118.73 174H1116.38V160.909H1118.39V171.034ZM1128.44 162.784V160.909H1139.08V162.784H1134.78V174H1132.77V162.784H1128.44ZM1144.7 174.307C1143.87 174.307 1143.12 174.151 1142.45 173.838C1141.77 173.52 1141.23 173.062 1140.83 172.466C1140.44 171.864 1140.24 171.136 1140.24 170.284C1140.24 169.534 1140.39 168.926 1140.68 168.46C1140.98 167.989 1141.37 167.619 1141.87 167.352C1142.36 167.085 1142.91 166.886 1143.5 166.756C1144.1 166.619 1144.71 166.511 1145.32 166.432C1146.11 166.33 1146.76 166.253 1147.25 166.202C1147.75 166.145 1148.12 166.051 1148.34 165.92C1148.58 165.79 1148.69 165.562 1148.69 165.239V165.17C1148.69 164.33 1148.46 163.676 1148 163.21C1147.55 162.744 1146.86 162.511 1145.93 162.511C1144.97 162.511 1144.22 162.722 1143.67 163.142C1143.13 163.562 1142.74 164.011 1142.52 164.489L1140.61 163.807C1140.95 163.011 1141.41 162.392 1141.98 161.949C1142.55 161.5 1143.18 161.187 1143.85 161.011C1144.53 160.83 1145.2 160.739 1145.86 160.739C1146.28 160.739 1146.77 160.79 1147.31 160.892C1147.86 160.989 1148.39 161.19 1148.91 161.497C1149.42 161.804 1149.85 162.267 1150.19 162.886C1150.53 163.506 1150.7 164.335 1150.7 165.375V174H1148.69V172.227H1148.59C1148.45 172.511 1148.23 172.815 1147.91 173.139C1147.59 173.463 1147.17 173.739 1146.64 173.966C1146.11 174.193 1145.47 174.307 1144.7 174.307ZM1145.01 172.5C1145.81 172.5 1146.48 172.344 1147.02 172.031C1147.57 171.719 1147.99 171.315 1148.27 170.821C1148.55 170.327 1148.69 169.807 1148.69 169.261V167.42C1148.61 167.523 1148.42 167.616 1148.13 167.702C1147.85 167.781 1147.52 167.852 1147.14 167.915C1146.77 167.972 1146.41 168.023 1146.06 168.068C1145.71 168.108 1145.43 168.142 1145.22 168.17C1144.69 168.239 1144.2 168.349 1143.75 168.503C1143.3 168.651 1142.94 168.875 1142.66 169.176C1142.39 169.472 1142.25 169.875 1142.25 170.386C1142.25 171.085 1142.51 171.614 1143.02 171.972C1143.55 172.324 1144.21 172.5 1145.01 172.5Z" fill="#32393E"/>
</svg>
