<svg width="1080" height="794" viewBox="0 0 1080 794" fill="none" xmlns="http://www.w3.org/2000/svg">
<rect width="1080" height="794" fill="white"/>
<path d="M915.587 49L912.911 64.8629H915.891L914.181 75H908.668L909.483 70.1698H895.329L894.514 75H889L890.71 64.8629H892.824C893.79 63.5513 894.707 61.8209 895.74 58.1838L898.364 49H915.59H915.587ZM908.584 54.3069H902.535L901.369 58.3918C900.354 61.9393 899.515 63.5484 898.667 64.8629H906.805L908.584 54.3069Z" fill="#EAECEF"/>
<path d="M920.448 49H933.56C938.18 49 940.257 51.3544 939.681 54.7547C939.314 56.93 937.677 58.3311 936.141 58.958C937.818 59.6138 939.146 61.2836 938.663 64.1464C938.05 67.7836 935.085 70.1698 930.167 70.1698H916.875L920.448 49ZM924.295 61.7024L923.67 65.4002H929.69C931.298 65.4002 932.293 64.8051 932.504 63.5513C932.721 62.2687 931.923 61.7024 930.312 61.7024H924.292H924.295ZM925.631 53.7724L925.099 56.9329H931.029C932.282 56.9329 933.161 56.4851 933.352 55.3527C933.543 54.2202 932.814 53.7724 931.561 53.7724H925.631Z" fill="#EAECEF"/>
<path d="M943.47 49H949.579L947.427 61.7602L958.906 49H965.015L961.445 70.1698H955.336L957.479 57.4673L946.01 70.1698H939.9L943.47 49Z" fill="#EAECEF"/>
<path d="M974.098 59.1978L966.907 49H973.821L979.812 57.6464L981.272 49H987.084L985.626 57.6464L994.536 49H1001.3L990.954 58.9291L998.177 70.1698H990.815L985.039 61.1362L983.514 70.1698H977.703L979.227 61.1362L970.402 70.1698H963.309L974.101 59.1978H974.098Z" fill="#EAECEF"/>
<path d="M1010.23 49H1003.13L1010.19 58.9291L999.713 70.1698H1006.81L1017.29 58.9291L1010.23 49ZM1021.44 49H1014.34L1021.41 58.9291L1010.93 70.1698H1018.02L1028.5 58.9291L1021.44 49ZM1032.94 49H1025.85L1032.91 58.9291L1022.43 70.1698H1029.52L1040 58.9291L1032.94 49Z" fill="#EAECEF"/>
<path d="M67.4986 70.5767L67.179 81.1875H61.9119V75H60.071V70.5767H67.4986ZM42.2756 75V48.8182H47.5938V70.5511H58.4858V48.8182H63.8679V75H42.2756ZM74.5185 67.8153L81.5881 55.3636H86.9574V75H81.767V62.5099L74.723 75H69.3153V55.3636H74.5185V67.8153ZM89.8831 75V55.3636H95.3292V62.983H96.8633L102.207 55.3636H108.599L101.657 65.1051L108.676 75H102.207L97.3618 68.0327H95.3292V75H89.8831ZM108.386 75L108.361 70.679H109.013C109.473 70.679 109.869 70.5682 110.202 70.3466C110.543 70.1165 110.824 69.7457 111.045 69.2344C111.267 68.723 111.442 68.0455 111.57 67.2017C111.697 66.3494 111.783 65.3011 111.825 64.0568L112.145 55.3636H127.077V75H121.886V59.6463H117.041L116.734 65.642C116.658 67.2869 116.457 68.7017 116.133 69.8864C115.818 71.071 115.379 72.0426 114.817 72.8011C114.254 73.5511 113.577 74.1051 112.784 74.4631C111.991 74.821 111.071 75 110.023 75H108.386ZM145.623 75.3835C143.611 75.3835 141.881 74.9574 140.432 74.1051C138.992 73.2443 137.884 72.0511 137.109 70.5256C136.342 69 135.958 67.2443 135.958 65.2585C135.958 63.2472 136.346 61.483 137.121 59.9659C137.905 58.4403 139.018 57.2514 140.458 56.3991C141.898 55.5384 143.611 55.108 145.597 55.108C147.31 55.108 148.81 55.419 150.097 56.0412C151.384 56.6634 152.403 57.5369 153.153 58.6619C153.903 59.7869 154.316 61.108 154.393 62.625H149.253C149.109 61.6449 148.725 60.8565 148.103 60.2599C147.489 59.6548 146.684 59.3523 145.687 59.3523C144.843 59.3523 144.106 59.5824 143.475 60.0426C142.853 60.4943 142.367 61.1548 142.018 62.0241C141.668 62.8935 141.494 63.946 141.494 65.1818C141.494 66.4347 141.664 67.5 142.005 68.3778C142.354 69.2557 142.844 69.9247 143.475 70.3849C144.106 70.8452 144.843 71.0753 145.687 71.0753C146.309 71.0753 146.867 70.9474 147.361 70.6918C147.864 70.4361 148.278 70.0653 148.601 69.5795C148.934 69.0852 149.151 68.4929 149.253 67.8026H154.393C154.307 69.3026 153.898 70.6236 153.165 71.7656C152.441 72.8991 151.44 73.7855 150.161 74.4247C148.883 75.0639 147.37 75.3835 145.623 75.3835ZM154.905 80.7528V70.679H156.414C156.849 70.4062 157.198 69.9716 157.462 69.375C157.735 68.7784 157.957 68.0753 158.127 67.2656C158.306 66.456 158.442 65.5824 158.536 64.6449C158.638 63.6989 158.728 62.7443 158.805 61.7812L159.316 55.3636H174.376V70.679H177.418V80.7528H172.228V75H160.224V80.7528H154.905ZM161.834 70.679H169.236V59.5568H163.944L163.739 61.7812C163.594 63.8778 163.386 65.6591 163.113 67.125C162.84 68.5824 162.414 69.767 161.834 70.679ZM188.101 75.3835C186.081 75.3835 184.342 74.9744 182.885 74.1562C181.436 73.3295 180.32 72.1619 179.535 70.6534C178.751 69.1364 178.359 67.3423 178.359 65.2713C178.359 63.2514 178.751 61.4787 179.535 59.9531C180.32 58.4276 181.423 57.2386 182.846 56.3864C184.278 55.5341 185.957 55.108 187.883 55.108C189.179 55.108 190.385 55.3168 191.501 55.7344C192.626 56.1435 193.606 56.7614 194.442 57.5881C195.285 58.4148 195.942 59.4545 196.41 60.7074C196.879 61.9517 197.114 63.4091 197.114 65.0795V66.5753H180.533V63.2003H191.987C191.987 62.4162 191.817 61.7216 191.476 61.1165C191.135 60.5114 190.662 60.0384 190.057 59.6974C189.46 59.348 188.766 59.1733 187.973 59.1733C187.146 59.1733 186.413 59.3651 185.774 59.7486C185.143 60.1236 184.649 60.6307 184.291 61.2699C183.933 61.9006 183.75 62.6037 183.741 63.3793V66.5881C183.741 67.5597 183.92 68.3991 184.278 69.1065C184.645 69.8139 185.16 70.3594 185.825 70.7429C186.49 71.1264 187.278 71.3182 188.19 71.3182C188.795 71.3182 189.349 71.233 189.852 71.0625C190.355 70.892 190.785 70.6364 191.143 70.2955C191.501 69.9545 191.774 69.5369 191.962 69.0426L196.998 69.375C196.743 70.5852 196.219 71.642 195.426 72.5455C194.642 73.4403 193.628 74.1392 192.383 74.642C191.148 75.1364 189.72 75.3835 188.101 75.3835ZM198.077 75L198.051 70.679H198.703C199.164 70.679 199.56 70.5682 199.892 70.3466C200.233 70.1165 200.514 69.7457 200.736 69.2344C200.958 68.723 201.132 68.0455 201.26 67.2017C201.388 66.3494 201.473 65.3011 201.516 64.0568L201.835 55.3636H216.767V75H211.577V59.6463H206.732L206.425 65.642C206.348 67.2869 206.148 68.7017 205.824 69.8864C205.509 71.071 205.07 72.0426 204.507 72.8011C203.945 73.5511 203.267 74.1051 202.475 74.4631C201.682 74.821 200.762 75 199.713 75H198.077ZM219.549 75V55.3636H224.995V62.983H226.529L231.873 55.3636H238.265L231.323 65.1051L238.342 75H231.873L227.028 68.0327H224.995V75H219.549ZM244.406 67.8153L251.476 55.3636H256.845V75H251.655V62.5099L244.611 75H239.203V55.3636H244.406V67.8153Z" fill="black"/>
<path d="M102.163 260V258.409L107.085 253.31C107.61 252.756 108.044 252.27 108.384 251.854C108.73 251.432 108.988 251.032 109.159 250.653C109.329 250.275 109.414 249.872 109.414 249.446C109.414 248.963 109.301 248.546 109.073 248.196C108.846 247.841 108.536 247.569 108.143 247.379C107.75 247.185 107.307 247.088 106.815 247.088C106.294 247.088 105.839 247.195 105.451 247.408C105.063 247.621 104.765 247.921 104.556 248.31C104.348 248.698 104.244 249.152 104.244 249.673H102.149C102.149 248.788 102.352 248.014 102.759 247.351C103.167 246.688 103.725 246.174 104.436 245.81C105.146 245.44 105.953 245.256 106.857 245.256C107.771 245.256 108.576 245.438 109.272 245.803C109.973 246.162 110.52 246.655 110.913 247.28C111.306 247.9 111.502 248.601 111.502 249.382C111.502 249.922 111.401 250.45 111.197 250.966C110.998 251.482 110.65 252.057 110.153 252.692C109.656 253.321 108.964 254.086 108.079 254.986L105.188 258.011V258.118H111.737V260H102.163ZM119.147 245.455V260H116.945V247.656H116.86L113.38 249.929V247.827L117.009 245.455H119.147ZM124.233 258.011L124.126 258.786C124.055 259.354 123.935 259.946 123.764 260.561C123.598 261.181 123.426 261.757 123.246 262.287C123.071 262.817 122.926 263.239 122.812 263.551H121.307C121.368 263.258 121.454 262.86 121.562 262.358C121.671 261.861 121.778 261.304 121.882 260.689C121.986 260.073 122.064 259.446 122.116 258.807L122.187 258.011H124.233ZM126.403 260V258.409L131.325 253.31C131.851 252.756 132.284 252.27 132.625 251.854C132.971 251.432 133.229 251.032 133.399 250.653C133.57 250.275 133.655 249.872 133.655 249.446C133.655 248.963 133.541 248.546 133.314 248.196C133.087 247.841 132.777 247.569 132.384 247.379C131.991 247.185 131.548 247.088 131.055 247.088C130.535 247.088 130.08 247.195 129.692 247.408C129.304 247.621 129.005 247.921 128.797 248.31C128.589 248.698 128.484 249.152 128.484 249.673H126.389C126.389 248.788 126.593 248.014 127 247.351C127.407 246.688 127.966 246.174 128.676 245.81C129.386 245.44 130.194 245.256 131.098 245.256C132.012 245.256 132.817 245.438 133.513 245.803C134.214 246.162 134.76 246.655 135.153 247.28C135.546 247.9 135.743 248.601 135.743 249.382C135.743 249.922 135.641 250.45 135.438 250.966C135.239 251.482 134.891 252.057 134.394 252.692C133.896 253.321 133.205 254.086 132.32 254.986L129.429 258.011V258.118H135.977V260H126.403ZM141.46 263.516V258.139H142.419C142.746 257.865 143.051 257.474 143.335 256.967C143.619 256.461 143.861 255.777 144.059 254.915C144.258 254.053 144.396 252.947 144.471 251.598L144.812 245.455H153.782V258.139H155.43V263.494H153.328V260H143.562V263.516H141.46ZM145.004 258.139H151.68V247.344H146.801L146.574 251.598C146.512 252.625 146.41 253.549 146.268 254.368C146.131 255.187 145.953 255.911 145.736 256.541C145.523 257.166 145.279 257.699 145.004 258.139Z" fill="#858585"/>
<rect x="40" y="729" width="458" height="177" transform="rotate(-90 40 729)" fill="url(#paint0_linear_2814_2379)"/>
<path d="M40 271L217 271" stroke="#04B34A" stroke-width="4"/>
<path d="M110.598 742.29H108.473C108.412 741.941 108.301 741.633 108.138 741.364C107.975 741.091 107.772 740.86 107.53 740.67C107.287 740.481 107.011 740.339 106.7 740.244C106.393 740.146 106.062 740.097 105.706 740.097C105.073 740.097 104.513 740.256 104.024 740.574C103.535 740.888 103.153 741.35 102.876 741.96C102.6 742.566 102.462 743.307 102.462 744.182C102.462 745.072 102.6 745.822 102.876 746.432C103.157 747.038 103.539 747.496 104.024 747.807C104.513 748.114 105.071 748.267 105.7 748.267C106.049 748.267 106.374 748.222 106.677 748.131C106.984 748.036 107.259 747.898 107.501 747.716C107.748 747.534 107.954 747.311 108.121 747.045C108.291 746.78 108.409 746.477 108.473 746.136L110.598 746.148C110.518 746.701 110.346 747.22 110.081 747.705C109.82 748.189 109.477 748.617 109.052 748.989C108.628 749.356 108.132 749.644 107.564 749.852C106.996 750.057 106.365 750.159 105.672 750.159C104.649 750.159 103.736 749.922 102.933 749.449C102.13 748.975 101.498 748.292 101.035 747.398C100.573 746.504 100.342 745.432 100.342 744.182C100.342 742.928 100.575 741.856 101.041 740.966C101.507 740.072 102.142 739.388 102.945 738.915C103.748 738.441 104.657 738.205 105.672 738.205C106.32 738.205 106.922 738.295 107.479 738.477C108.035 738.659 108.532 738.926 108.967 739.278C109.403 739.627 109.761 740.055 110.041 740.562C110.325 741.066 110.511 741.642 110.598 742.29ZM115.661 750.17C114.786 750.17 114.03 749.989 113.394 749.625C112.761 749.258 112.275 748.739 111.934 748.068C111.593 747.394 111.422 746.6 111.422 745.688C111.422 744.79 111.593 744.002 111.934 743.324C112.279 742.642 112.76 742.112 113.377 741.733C113.994 741.35 114.72 741.159 115.553 741.159C116.091 741.159 116.599 741.246 117.076 741.42C117.557 741.591 117.981 741.856 118.349 742.216C118.72 742.576 119.011 743.034 119.224 743.591C119.436 744.144 119.542 744.803 119.542 745.568V746.199H112.388V744.812H117.57C117.566 744.419 117.481 744.068 117.314 743.761C117.148 743.451 116.915 743.206 116.616 743.028C116.32 742.85 115.975 742.761 115.582 742.761C115.161 742.761 114.792 742.864 114.474 743.068C114.155 743.269 113.907 743.534 113.729 743.864C113.555 744.189 113.466 744.547 113.462 744.938V746.148C113.462 746.655 113.555 747.091 113.741 747.455C113.926 747.814 114.186 748.091 114.519 748.284C114.852 748.473 115.243 748.568 115.689 748.568C115.989 748.568 116.26 748.527 116.502 748.443C116.744 748.356 116.955 748.229 117.133 748.062C117.311 747.896 117.445 747.689 117.536 747.443L119.457 747.659C119.335 748.167 119.104 748.61 118.763 748.989C118.426 749.364 117.994 749.655 117.468 749.864C116.941 750.068 116.339 750.17 115.661 750.17ZM126.636 744.784V746.472H121.988V744.784H126.636ZM122.625 741.273V750H120.642V741.273H122.625ZM127.983 741.273V750H126.005V741.273H127.983ZM134.497 738.364V739.523C134.497 739.856 134.432 740.203 134.304 740.562C134.179 740.919 134.006 741.259 133.787 741.585C133.567 741.907 133.317 742.184 133.037 742.415L132.082 741.795C132.29 741.481 132.472 741.142 132.627 740.778C132.783 740.411 132.86 739.996 132.86 739.534V738.364H134.497ZM138.84 750V748.477L142.88 744.517C143.266 744.127 143.588 743.78 143.846 743.477C144.104 743.174 144.297 742.881 144.426 742.597C144.554 742.312 144.619 742.009 144.619 741.688C144.619 741.32 144.535 741.006 144.369 740.744C144.202 740.479 143.973 740.275 143.681 740.131C143.39 739.987 143.058 739.915 142.687 739.915C142.304 739.915 141.969 739.994 141.681 740.153C141.393 740.309 141.17 740.53 141.011 740.818C140.855 741.106 140.778 741.449 140.778 741.847H138.772C138.772 741.108 138.941 740.466 139.278 739.92C139.615 739.375 140.079 738.953 140.67 738.653C141.265 738.354 141.946 738.205 142.715 738.205C143.496 738.205 144.181 738.35 144.772 738.642C145.363 738.934 145.821 739.333 146.147 739.841C146.477 740.348 146.641 740.928 146.641 741.58C146.641 742.015 146.558 742.443 146.391 742.864C146.225 743.284 145.931 743.75 145.511 744.261C145.094 744.773 144.509 745.392 143.755 746.119L141.749 748.159V748.239H146.818V750H138.84ZM147.678 747.841V746.165L152.615 738.364H154.013V740.75H153.161L149.837 746.017V746.108H156.729V747.841H147.678ZM153.229 750V747.33L153.251 746.58V738.364H155.24V750H153.229Z" fill="#5F5F5F"/>
<path d="M306.395 220V218.409L311.317 213.31C311.843 212.756 312.276 212.27 312.617 211.854C312.962 211.432 313.221 211.032 313.391 210.653C313.561 210.275 313.647 209.872 313.647 209.446C313.647 208.963 313.533 208.546 313.306 208.196C313.078 207.841 312.768 207.569 312.375 207.379C311.982 207.185 311.54 207.088 311.047 207.088C310.526 207.088 310.072 207.195 309.684 207.408C309.295 207.621 308.997 207.921 308.789 208.31C308.58 208.698 308.476 209.152 308.476 209.673H306.381C306.381 208.788 306.585 208.014 306.992 207.351C307.399 206.688 307.958 206.174 308.668 205.81C309.378 205.44 310.185 205.256 311.09 205.256C312.004 205.256 312.809 205.438 313.505 205.803C314.205 206.162 314.752 206.655 315.145 207.28C315.538 207.9 315.735 208.601 315.735 209.382C315.735 209.922 315.633 210.45 315.429 210.966C315.23 211.482 314.882 212.057 314.385 212.692C313.888 213.321 313.197 214.086 312.311 214.986L309.421 218.011V218.118H315.969V220H306.395ZM317.861 220V218.409L322.783 213.31C323.308 212.756 323.742 212.27 324.082 211.854C324.428 211.432 324.686 211.032 324.857 210.653C325.027 210.275 325.112 209.872 325.112 209.446C325.112 208.963 324.999 208.546 324.771 208.196C324.544 207.841 324.234 207.569 323.841 207.379C323.448 207.185 323.005 207.088 322.513 207.088C321.992 207.088 321.537 207.195 321.149 207.408C320.761 207.621 320.463 207.921 320.254 208.31C320.046 208.698 319.942 209.152 319.942 209.673H317.847C317.847 208.788 318.05 208.014 318.457 207.351C318.865 206.688 319.423 206.174 320.134 205.81C320.844 205.44 321.651 205.256 322.555 205.256C323.469 205.256 324.274 205.438 324.97 205.803C325.671 206.162 326.218 206.655 326.611 207.28C327.004 207.9 327.2 208.601 327.2 209.382C327.2 209.922 327.099 210.45 326.895 210.966C326.696 211.482 326.348 212.057 325.851 212.692C325.354 213.321 324.662 214.086 323.777 214.986L320.886 218.011V218.118H327.435V220H317.861ZM332.118 218.011L332.011 218.786C331.94 219.354 331.819 219.946 331.649 220.561C331.483 221.181 331.31 221.757 331.13 222.287C330.955 222.817 330.811 223.239 330.697 223.551H329.192C329.253 223.258 329.338 222.86 329.447 222.358C329.556 221.861 329.663 221.304 329.767 220.689C329.871 220.073 329.949 219.446 330.001 218.807L330.072 218.011H332.118ZM338.715 220.199C337.697 220.199 336.797 220.024 336.016 219.673C335.239 219.323 334.631 218.84 334.191 218.224C333.75 217.609 333.532 216.908 333.537 216.122C333.532 215.507 333.658 214.941 333.914 214.425C334.174 213.904 334.527 213.471 334.972 213.125C335.417 212.775 335.914 212.552 336.463 212.457V212.372C335.739 212.197 335.159 211.809 334.723 211.207C334.288 210.606 334.072 209.915 334.077 209.134C334.072 208.39 334.269 207.727 334.666 207.145C335.069 206.558 335.62 206.096 336.321 205.76C337.022 205.424 337.82 205.256 338.715 205.256C339.6 205.256 340.391 205.426 341.087 205.767C341.788 206.103 342.339 206.565 342.742 207.152C343.144 207.734 343.348 208.395 343.352 209.134C343.348 209.915 343.125 210.606 342.685 211.207C342.245 211.809 341.672 212.197 340.966 212.372V212.457C341.511 212.552 342.001 212.775 342.436 213.125C342.877 213.471 343.227 213.904 343.487 214.425C343.753 214.941 343.888 215.507 343.892 216.122C343.888 216.908 343.665 217.609 343.225 218.224C342.784 218.84 342.174 219.323 341.392 219.673C340.616 220.024 339.723 220.199 338.715 220.199ZM338.715 218.402C339.316 218.402 339.837 218.303 340.277 218.104C340.718 217.9 341.058 217.618 341.3 217.259C341.541 216.894 341.665 216.468 341.669 215.98C341.665 215.473 341.532 215.026 341.272 214.638C341.016 214.25 340.668 213.944 340.227 213.722C339.787 213.499 339.283 213.388 338.715 213.388C338.142 213.388 337.633 213.499 337.188 213.722C336.743 213.944 336.392 214.25 336.137 214.638C335.881 215.026 335.755 215.473 335.76 215.98C335.755 216.468 335.871 216.894 336.108 217.259C336.35 217.618 336.693 217.9 337.138 218.104C337.583 218.303 338.109 218.402 338.715 218.402ZM338.715 211.634C339.198 211.634 339.626 211.536 340 211.342C340.374 211.148 340.668 210.878 340.881 210.533C341.099 210.187 341.21 209.782 341.215 209.318C341.21 208.864 341.101 208.466 340.888 208.125C340.68 207.784 340.388 207.521 340.014 207.337C339.64 207.147 339.207 207.053 338.715 207.053C338.213 207.053 337.772 207.147 337.394 207.337C337.02 207.521 336.728 207.784 336.52 208.125C336.312 208.466 336.21 208.864 336.215 209.318C336.21 209.782 336.314 210.187 336.527 210.533C336.74 210.878 337.034 211.148 337.408 211.342C337.787 211.536 338.222 211.634 338.715 211.634ZM349.228 223.516V218.139H350.186C350.513 217.865 350.819 217.474 351.103 216.967C351.387 216.461 351.628 215.777 351.827 214.915C352.026 214.053 352.163 212.947 352.239 211.598L352.58 205.455H361.55V218.139H363.198V223.494H361.096V220H351.33V223.516H349.228ZM352.772 218.139H359.448V207.344H354.569L354.341 211.598C354.28 212.625 354.178 213.549 354.036 214.368C353.899 215.187 353.721 215.911 353.503 216.541C353.29 217.166 353.046 217.699 352.772 218.139Z" fill="#858585"/>
<rect x="246" y="729" width="498" height="177" transform="rotate(-90 246 729)" fill="url(#paint1_linear_2814_2379)"/>
<path d="M246 231L423 231" stroke="#04B34A" stroke-width="4"/>
<path d="M317.285 744.182C317.285 745.436 317.051 746.509 316.581 747.403C316.115 748.294 315.479 748.975 314.672 749.449C313.869 749.922 312.958 750.159 311.939 750.159C310.92 750.159 310.007 749.922 309.2 749.449C308.397 748.972 307.761 748.288 307.291 747.398C306.825 746.504 306.592 745.432 306.592 744.182C306.592 742.928 306.825 741.856 307.291 740.966C307.761 740.072 308.397 739.388 309.2 738.915C310.007 738.441 310.92 738.205 311.939 738.205C312.958 738.205 313.869 738.441 314.672 738.915C315.479 739.388 316.115 740.072 316.581 740.966C317.051 741.856 317.285 742.928 317.285 744.182ZM315.166 744.182C315.166 743.299 315.028 742.555 314.751 741.949C314.479 741.339 314.1 740.879 313.615 740.568C313.13 740.254 312.571 740.097 311.939 740.097C311.306 740.097 310.748 740.254 310.263 740.568C309.778 740.879 309.397 741.339 309.121 741.949C308.848 742.555 308.712 743.299 308.712 744.182C308.712 745.064 308.848 745.811 309.121 746.42C309.397 747.027 309.778 747.487 310.263 747.801C310.748 748.112 311.306 748.267 311.939 748.267C312.571 748.267 313.13 748.112 313.615 747.801C314.1 747.487 314.479 747.027 314.751 746.42C315.028 745.811 315.166 745.064 315.166 744.182ZM318.547 750V741.273H320.604V744.795H321.354L323.979 741.273H326.457L323.224 745.557L326.491 750H324.002L321.61 746.71H320.604V750H318.547ZM326.54 742.96V741.273H334.176V742.96H331.352V750H329.363V742.96H326.54ZM340.247 738.364V739.523C340.247 739.856 340.182 740.203 340.054 740.562C339.929 740.919 339.756 741.259 339.537 741.585C339.317 741.907 339.067 742.184 338.787 742.415L337.832 741.795C338.04 741.481 338.222 741.142 338.377 740.778C338.533 740.411 338.61 739.996 338.61 739.534V738.364H340.247ZM344.59 750V748.477L348.63 744.517C349.016 744.127 349.338 743.78 349.596 743.477C349.854 743.174 350.047 742.881 350.176 742.597C350.304 742.312 350.369 742.009 350.369 741.688C350.369 741.32 350.285 741.006 350.119 740.744C349.952 740.479 349.723 740.275 349.431 740.131C349.14 739.987 348.808 739.915 348.437 739.915C348.054 739.915 347.719 739.994 347.431 740.153C347.143 740.309 346.92 740.53 346.761 740.818C346.605 741.106 346.528 741.449 346.528 741.847H344.522C344.522 741.108 344.691 740.466 345.028 739.92C345.365 739.375 345.829 738.953 346.42 738.653C347.015 738.354 347.696 738.205 348.465 738.205C349.246 738.205 349.931 738.35 350.522 738.642C351.113 738.934 351.571 739.333 351.897 739.841C352.227 740.348 352.391 740.928 352.391 741.58C352.391 742.015 352.308 742.443 352.141 742.864C351.975 743.284 351.681 743.75 351.261 744.261C350.844 744.773 350.259 745.392 349.505 746.119L347.499 748.159V748.239H352.568V750H344.59ZM353.428 747.841V746.165L358.365 738.364H359.763V740.75H358.911L355.587 746.017V746.108H362.479V747.841H353.428ZM358.979 750V747.33L359.001 746.58V738.364H360.99V750H358.979Z" fill="#5F5F5F"/>
<path d="M512.266 198V196.409L517.188 191.31C517.714 190.756 518.147 190.27 518.488 189.854C518.834 189.432 519.092 189.032 519.262 188.653C519.433 188.275 519.518 187.872 519.518 187.446C519.518 186.963 519.404 186.546 519.177 186.196C518.95 185.841 518.639 185.569 518.246 185.379C517.853 185.185 517.411 185.088 516.918 185.088C516.397 185.088 515.943 185.195 515.555 185.408C515.166 185.621 514.868 185.921 514.66 186.31C514.451 186.698 514.347 187.152 514.347 187.673H512.252C512.252 186.788 512.456 186.014 512.863 185.351C513.27 184.688 513.829 184.174 514.539 183.81C515.249 183.44 516.057 183.256 516.961 183.256C517.875 183.256 518.68 183.438 519.376 183.803C520.076 184.162 520.623 184.655 521.016 185.28C521.409 185.9 521.606 186.601 521.606 187.382C521.606 187.922 521.504 188.45 521.3 188.966C521.102 189.482 520.754 190.057 520.256 190.692C519.759 191.321 519.068 192.086 518.183 192.986L515.292 196.011V196.118H521.84V198H512.266ZM528.796 198.199C527.821 198.199 526.949 198.031 526.182 197.695C525.42 197.358 524.816 196.892 524.371 196.295C523.931 195.694 523.694 194.998 523.661 194.207H525.891C525.919 194.638 526.064 195.012 526.324 195.33C526.589 195.642 526.935 195.884 527.361 196.054C527.787 196.224 528.261 196.31 528.782 196.31C529.355 196.31 529.861 196.21 530.302 196.011C530.747 195.812 531.095 195.536 531.346 195.18C531.597 194.821 531.722 194.406 531.722 193.938C531.722 193.45 531.597 193.021 531.346 192.652C531.099 192.278 530.737 191.984 530.259 191.771C529.785 191.558 529.213 191.452 528.54 191.452H527.312V189.662H528.54C529.08 189.662 529.553 189.565 529.961 189.371C530.373 189.177 530.695 188.907 530.927 188.561C531.159 188.211 531.275 187.801 531.275 187.332C531.275 186.883 531.173 186.492 530.969 186.161C530.77 185.824 530.486 185.562 530.117 185.372C529.752 185.183 529.321 185.088 528.824 185.088C528.351 185.088 527.908 185.176 527.496 185.351C527.089 185.521 526.758 185.768 526.502 186.089C526.246 186.407 526.109 186.788 526.09 187.233H523.966C523.99 186.447 524.222 185.756 524.662 185.159C525.107 184.562 525.695 184.096 526.424 183.76C527.153 183.424 527.963 183.256 528.853 183.256C529.785 183.256 530.59 183.438 531.267 183.803C531.949 184.162 532.475 184.643 532.844 185.244C533.218 185.846 533.403 186.504 533.398 187.219C533.403 188.033 533.176 188.724 532.716 189.293C532.262 189.861 531.656 190.242 530.898 190.436V190.55C531.864 190.696 532.612 191.08 533.142 191.7C533.678 192.321 533.943 193.09 533.938 194.009C533.943 194.809 533.72 195.526 533.27 196.161C532.825 196.795 532.217 197.295 531.445 197.659C530.673 198.019 529.79 198.199 528.796 198.199ZM538.184 196.011L538.078 196.786C538.007 197.354 537.886 197.946 537.715 198.561C537.55 199.181 537.377 199.757 537.197 200.287C537.022 200.817 536.877 201.239 536.764 201.551H535.258C535.32 201.258 535.405 200.86 535.514 200.358C535.623 199.861 535.729 199.304 535.833 198.689C535.937 198.073 536.016 197.446 536.068 196.807L536.139 196.011H538.184ZM540.474 198L546.823 185.443V185.337H539.479V183.455H549.096V185.401L542.768 198H540.474ZM554.357 201.516V196.139H555.315C555.642 195.865 555.947 195.474 556.232 194.967C556.516 194.461 556.757 193.777 556.956 192.915C557.155 192.053 557.292 190.947 557.368 189.598L557.709 183.455H566.679V196.139H568.327V201.494H566.224V198H556.459V201.516H554.357ZM557.901 196.139H564.577V185.344H559.697L559.47 189.598C559.409 190.625 559.307 191.549 559.165 192.368C559.027 193.187 558.85 193.911 558.632 194.541C558.419 195.166 558.175 195.699 557.901 196.139Z" fill="#858585"/>
<rect x="451" y="729" width="520" height="178" transform="rotate(-90 451 729)" fill="url(#paint2_linear_2814_2379)"/>
<path d="M451 209L629 209" stroke="#04B34A" stroke-width="4"/>
<path d="M512.138 750V738.364H514.246V743.29H519.638V738.364H521.751V750H519.638V745.057H514.246V750H512.138ZM527.12 750.17C526.268 750.17 525.529 749.983 524.904 749.608C524.279 749.233 523.794 748.708 523.449 748.034C523.109 747.36 522.938 746.572 522.938 745.67C522.938 744.769 523.109 743.979 523.449 743.301C523.794 742.623 524.279 742.097 524.904 741.722C525.529 741.347 526.268 741.159 527.12 741.159C527.972 741.159 528.711 741.347 529.336 741.722C529.961 742.097 530.444 742.623 530.785 743.301C531.129 743.979 531.302 744.769 531.302 745.67C531.302 746.572 531.129 747.36 530.785 748.034C530.444 748.708 529.961 749.233 529.336 749.608C528.711 749.983 527.972 750.17 527.12 750.17ZM527.131 748.523C527.593 748.523 527.98 748.396 528.29 748.142C528.601 747.884 528.832 747.54 528.984 747.108C529.139 746.676 529.216 746.195 529.216 745.665C529.216 745.131 529.139 744.648 528.984 744.216C528.832 743.78 528.601 743.434 528.29 743.176C527.98 742.919 527.593 742.79 527.131 742.79C526.658 742.79 526.264 742.919 525.949 743.176C525.639 743.434 525.406 743.78 525.251 744.216C525.099 744.648 525.023 745.131 525.023 745.665C525.023 746.195 525.099 746.676 525.251 747.108C525.406 747.54 525.639 747.884 525.949 748.142C526.264 748.396 526.658 748.523 527.131 748.523ZM537.567 750V742.943H535.703C535.229 742.943 534.866 743.053 534.612 743.273C534.358 743.492 534.233 743.765 534.237 744.091C534.233 744.417 534.353 744.686 534.595 744.898C534.837 745.11 535.184 745.216 535.635 745.216H538.214V746.716H535.635C534.938 746.716 534.335 746.606 533.828 746.386C533.32 746.167 532.93 745.856 532.657 745.455C532.385 745.053 532.248 744.583 532.248 744.045C532.248 743.485 532.387 742.998 532.663 742.585C532.943 742.169 533.341 741.847 533.856 741.619C534.375 741.388 534.991 741.273 535.703 741.273H539.493V750H537.567ZM531.93 750L534.368 745.523H536.396L533.953 750H531.93ZM545.997 738.364V739.523C545.997 739.856 545.932 740.203 545.804 740.562C545.679 740.919 545.506 741.259 545.287 741.585C545.067 741.907 544.817 742.184 544.537 742.415L543.582 741.795C543.79 741.481 543.972 741.142 544.127 740.778C544.283 740.411 544.36 739.996 544.36 739.534V738.364H545.997ZM550.34 750V748.477L554.38 744.517C554.766 744.127 555.088 743.78 555.346 743.477C555.604 743.174 555.797 742.881 555.926 742.597C556.054 742.312 556.119 742.009 556.119 741.688C556.119 741.32 556.035 741.006 555.869 740.744C555.702 740.479 555.473 740.275 555.181 740.131C554.89 739.987 554.558 739.915 554.187 739.915C553.804 739.915 553.469 739.994 553.181 740.153C552.893 740.309 552.67 740.53 552.511 740.818C552.355 741.106 552.278 741.449 552.278 741.847H550.272C550.272 741.108 550.441 740.466 550.778 739.92C551.115 739.375 551.579 738.953 552.17 738.653C552.765 738.354 553.446 738.205 554.215 738.205C554.996 738.205 555.681 738.35 556.272 738.642C556.863 738.934 557.321 739.333 557.647 739.841C557.977 740.348 558.141 740.928 558.141 741.58C558.141 742.015 558.058 742.443 557.891 742.864C557.725 743.284 557.431 743.75 557.011 744.261C556.594 744.773 556.009 745.392 555.255 746.119L553.249 748.159V748.239H558.318V750H550.34ZM559.178 747.841V746.165L564.115 738.364H565.513V740.75H564.661L561.337 746.017V746.108H568.229V747.841H559.178ZM564.729 750V747.33L564.751 746.58V738.364H566.74V750H564.729Z" fill="#5F5F5F"/>
<path d="M724.154 299.455V314H721.952V301.656H721.867L718.387 303.929V301.827L722.016 299.455H724.154ZM732.203 314.199C731.185 314.199 730.286 314.024 729.505 313.673C728.728 313.323 728.12 312.84 727.679 312.224C727.239 311.609 727.021 310.908 727.026 310.122C727.021 309.507 727.147 308.941 727.402 308.425C727.663 307.904 728.015 307.471 728.46 307.125C728.906 306.775 729.403 306.552 729.952 306.457V306.372C729.228 306.197 728.648 305.809 728.212 305.207C727.776 304.606 727.561 303.915 727.566 303.134C727.561 302.39 727.757 301.727 728.155 301.145C728.558 300.558 729.109 300.096 729.81 299.76C730.511 299.424 731.308 299.256 732.203 299.256C733.089 299.256 733.88 299.426 734.576 299.767C735.276 300.103 735.828 300.565 736.23 301.152C736.633 301.734 736.836 302.395 736.841 303.134C736.836 303.915 736.614 304.606 736.174 305.207C735.733 305.809 735.16 306.197 734.455 306.372V306.457C734.999 306.552 735.489 306.775 735.925 307.125C736.365 307.471 736.716 307.904 736.976 308.425C737.241 308.941 737.376 309.507 737.381 310.122C737.376 310.908 737.154 311.609 736.713 312.224C736.273 312.84 735.662 313.323 734.881 313.673C734.104 314.024 733.212 314.199 732.203 314.199ZM732.203 312.402C732.805 312.402 733.326 312.303 733.766 312.104C734.206 311.9 734.547 311.618 734.789 311.259C735.03 310.894 735.153 310.468 735.158 309.98C735.153 309.473 735.021 309.026 734.76 308.638C734.505 308.25 734.156 307.944 733.716 307.722C733.276 307.499 732.772 307.388 732.203 307.388C731.63 307.388 731.121 307.499 730.676 307.722C730.231 307.944 729.881 308.25 729.625 308.638C729.37 309.026 729.244 309.473 729.249 309.98C729.244 310.468 729.36 310.894 729.597 311.259C729.838 311.618 730.182 311.9 730.627 312.104C731.072 312.303 731.597 312.402 732.203 312.402ZM732.203 305.634C732.686 305.634 733.115 305.536 733.489 305.342C733.863 305.148 734.156 304.878 734.37 304.533C734.587 304.187 734.699 303.782 734.703 303.318C734.699 302.864 734.59 302.466 734.377 302.125C734.168 301.784 733.877 301.521 733.503 301.337C733.129 301.147 732.696 301.053 732.203 301.053C731.701 301.053 731.261 301.147 730.882 301.337C730.508 301.521 730.217 301.784 730.009 302.125C729.8 302.466 729.699 302.864 729.703 303.318C729.699 303.782 729.803 304.187 730.016 304.533C730.229 304.878 730.523 305.148 730.897 305.342C731.275 305.536 731.711 305.634 732.203 305.634ZM741.487 312.011L741.38 312.786C741.309 313.354 741.189 313.946 741.018 314.561C740.852 315.181 740.68 315.757 740.5 316.287C740.324 316.817 740.18 317.239 740.066 317.551H738.561C738.622 317.258 738.707 316.86 738.816 316.358C738.925 315.861 739.032 315.304 739.136 314.689C739.24 314.073 739.318 313.446 739.37 312.807L739.441 312.011H741.487ZM748.318 299.256C748.967 299.26 749.606 299.379 750.236 299.611C750.866 299.843 751.434 300.222 751.94 300.747C752.452 301.273 752.859 301.983 753.162 302.878C753.47 303.768 753.626 304.876 753.631 306.202C753.631 307.475 753.503 308.609 753.247 309.604C752.992 310.593 752.625 311.429 752.146 312.111C751.673 312.793 751.098 313.311 750.42 313.666C749.743 314.021 748.981 314.199 748.134 314.199C747.267 314.199 746.498 314.028 745.825 313.688C745.153 313.347 744.606 312.875 744.185 312.274C743.763 311.668 743.501 310.972 743.396 310.186H745.563C745.705 310.811 745.993 311.318 746.429 311.706C746.869 312.089 747.438 312.281 748.134 312.281C749.199 312.281 750.03 311.817 750.626 310.889C751.223 309.956 751.524 308.654 751.528 306.983H751.415C751.169 307.39 750.861 307.741 750.492 308.034C750.127 308.328 749.717 308.555 749.263 308.716C748.808 308.877 748.323 308.957 747.807 308.957C746.969 308.957 746.206 308.751 745.52 308.339C744.833 307.928 744.286 307.362 743.879 306.642C743.472 305.922 743.269 305.101 743.269 304.178C743.269 303.259 743.477 302.426 743.894 301.678C744.315 300.929 744.902 300.338 745.655 299.902C746.412 299.462 747.3 299.246 748.318 299.256ZM748.325 301.102C747.771 301.102 747.272 301.24 746.827 301.514C746.386 301.784 746.038 302.151 745.783 302.615C745.527 303.074 745.399 303.586 745.399 304.149C745.399 304.713 745.522 305.224 745.769 305.683C746.019 306.138 746.36 306.5 746.791 306.77C747.227 307.035 747.724 307.168 748.283 307.168C748.699 307.168 749.088 307.087 749.447 306.926C749.807 306.765 750.122 306.543 750.392 306.259C750.662 305.97 750.873 305.643 751.024 305.278C751.176 304.914 751.251 304.53 751.251 304.128C751.251 303.593 751.124 303.096 750.868 302.636C750.617 302.177 750.271 301.808 749.831 301.528C749.391 301.244 748.889 301.102 748.325 301.102ZM758.987 317.516V312.139H759.946C760.273 311.865 760.578 311.474 760.862 310.967C761.146 310.461 761.388 309.777 761.587 308.915C761.786 308.053 761.923 306.947 761.999 305.598L762.34 299.455H771.31V312.139H772.958V317.494H770.855V314H761.09V317.516H758.987ZM762.531 312.139H769.208V301.344H764.328L764.101 305.598C764.039 306.625 763.938 307.549 763.796 308.368C763.658 309.187 763.481 309.911 763.263 310.541C763.05 311.166 762.806 311.699 762.531 312.139Z" fill="#858585"/>
<rect x="657" y="729" width="404" height="177" transform="rotate(-90 657 729)" fill="url(#paint3_linear_2814_2379)"/>
<path d="M657 325L834 325" stroke="#04B34A" stroke-width="4"/>
<path d="M716.773 752.807V748.278H717.551C717.812 748.07 718.057 747.777 718.284 747.398C718.511 747.019 718.704 746.5 718.864 745.841C719.023 745.182 719.133 744.33 719.193 743.284L719.5 738.364H726.937V748.278H728.233V752.795H726.21V750H718.795V752.807H716.773ZM720.006 748.278H724.915V740.131H721.398L721.216 743.284C721.167 744.076 721.087 744.784 720.977 745.409C720.867 746.034 720.729 746.585 720.562 747.062C720.396 747.536 720.21 747.941 720.006 748.278ZM733.083 750.17C732.208 750.17 731.452 749.989 730.816 749.625C730.183 749.258 729.697 748.739 729.356 748.068C729.015 747.394 728.844 746.6 728.844 745.688C728.844 744.79 729.015 744.002 729.356 743.324C729.7 742.642 730.181 742.112 730.799 741.733C731.416 741.35 732.142 741.159 732.975 741.159C733.513 741.159 734.02 741.246 734.498 741.42C734.979 741.591 735.403 741.856 735.77 742.216C736.142 742.576 736.433 743.034 736.645 743.591C736.858 744.144 736.964 744.803 736.964 745.568V746.199H729.81V744.812H734.992C734.988 744.419 734.903 744.068 734.736 743.761C734.57 743.451 734.337 743.206 734.037 743.028C733.742 742.85 733.397 742.761 733.003 742.761C732.583 742.761 732.214 742.864 731.895 743.068C731.577 743.269 731.329 743.534 731.151 743.864C730.977 744.189 730.888 744.547 730.884 744.938V746.148C730.884 746.655 730.977 747.091 731.162 747.455C731.348 747.814 731.608 748.091 731.941 748.284C732.274 748.473 732.664 748.568 733.111 748.568C733.411 748.568 733.681 748.527 733.924 748.443C734.166 748.356 734.377 748.229 734.555 748.062C734.733 747.896 734.867 747.689 734.958 747.443L736.878 747.659C736.757 748.167 736.526 748.61 736.185 748.989C735.848 749.364 735.416 749.655 734.89 749.864C734.363 750.068 733.761 750.17 733.083 750.17ZM738.064 750V741.273H740.121V744.795H740.871L743.496 741.273H745.973L742.74 745.557L746.007 750H743.518L741.126 746.71H740.121V750H738.064ZM751.606 738.364V739.523C751.606 739.856 751.542 740.203 751.413 740.562C751.288 740.919 751.116 741.259 750.896 741.585C750.676 741.907 750.426 742.184 750.146 742.415L749.191 741.795C749.4 741.481 749.582 741.142 749.737 740.778C749.892 740.411 749.97 739.996 749.97 739.534V738.364H751.606ZM755.95 750V748.477L759.989 744.517C760.376 744.127 760.698 743.78 760.955 743.477C761.213 743.174 761.406 742.881 761.535 742.597C761.664 742.312 761.728 742.009 761.728 741.688C761.728 741.32 761.645 741.006 761.478 740.744C761.311 740.479 761.082 740.275 760.791 740.131C760.499 739.987 760.168 739.915 759.796 739.915C759.414 739.915 759.079 739.994 758.791 740.153C758.503 740.309 758.279 740.53 758.12 740.818C757.965 741.106 757.887 741.449 757.887 741.847H755.882C755.882 741.108 756.05 740.466 756.387 739.92C756.724 739.375 757.188 738.953 757.779 738.653C758.374 738.354 759.056 738.205 759.825 738.205C760.605 738.205 761.291 738.35 761.882 738.642C762.472 738.934 762.931 739.333 763.257 739.841C763.586 740.348 763.751 740.928 763.751 741.58C763.751 742.015 763.668 742.443 763.501 742.864C763.334 743.284 763.041 743.75 762.62 744.261C762.204 744.773 761.618 745.392 760.864 746.119L758.859 748.159V748.239H763.927V750H755.95ZM764.787 747.841V746.165L769.724 738.364H771.122V740.75H770.27L766.946 746.017V746.108H773.838V747.841H764.787ZM770.338 750V747.33L770.361 746.58V738.364H772.349V750H770.338Z" fill="#5F5F5F"/>
<path d="M938.475 467.455V482H936.273V469.656H936.188L932.708 471.929V469.827L936.337 467.455H938.475ZM941.61 482V480.409L946.532 475.31C947.057 474.756 947.49 474.27 947.831 473.854C948.177 473.432 948.435 473.032 948.605 472.653C948.776 472.275 948.861 471.872 948.861 471.446C948.861 470.963 948.747 470.546 948.52 470.196C948.293 469.841 947.983 469.569 947.59 469.379C947.197 469.185 946.754 469.088 946.262 469.088C945.741 469.088 945.286 469.195 944.898 469.408C944.51 469.621 944.211 469.921 944.003 470.31C943.795 470.698 943.691 471.152 943.691 471.673H941.595C941.595 470.788 941.799 470.014 942.206 469.351C942.613 468.688 943.172 468.174 943.882 467.81C944.593 467.44 945.4 467.256 946.304 467.256C947.218 467.256 948.023 467.438 948.719 467.803C949.42 468.162 949.967 468.655 950.36 469.28C950.753 469.9 950.949 470.601 950.949 471.382C950.949 471.922 950.847 472.45 950.644 472.966C950.445 473.482 950.097 474.057 949.6 474.692C949.103 475.321 948.411 476.086 947.526 476.986L944.635 480.011V480.118H951.184V482H941.61ZM956.666 485.516V480.139H957.625C957.952 479.865 958.257 479.474 958.541 478.967C958.825 478.461 959.067 477.777 959.266 476.915C959.465 476.053 959.602 474.947 959.678 473.598L960.019 467.455H968.989V480.139H970.636V485.494H968.534V482H958.769V485.516H956.666ZM960.21 480.139H966.886V469.344H962.007L961.78 473.598C961.718 474.625 961.617 475.549 961.475 476.368C961.337 477.187 961.16 477.911 960.942 478.541C960.729 479.166 960.485 479.699 960.21 480.139Z" fill="#858585"/>
<rect x="863" y="729" width="236" height="177" transform="rotate(-90 863 729)" fill="url(#paint4_linear_2814_2379)"/>
<path d="M863 493L1040 493" stroke="#04B34A" stroke-width="4"/>
<path d="M932.908 750H930.795V740.125H928.863C928.34 740.125 927.91 740.203 927.573 740.358C927.24 740.509 926.992 740.733 926.829 741.028C926.67 741.32 926.59 741.672 926.59 742.085C926.59 742.498 926.67 742.847 926.829 743.131C926.988 743.411 927.234 743.625 927.567 743.773C927.905 743.917 928.333 743.989 928.852 743.989H931.681V745.739H928.567C927.673 745.739 926.92 745.591 926.306 745.295C925.692 744.996 925.227 744.574 924.908 744.028C924.594 743.479 924.437 742.831 924.437 742.085C924.437 741.343 924.592 740.693 924.903 740.136C925.217 739.576 925.679 739.14 926.289 738.83C926.899 738.519 927.649 738.364 928.539 738.364H932.908V750ZM926.891 744.727H929.192L926.363 750H924.011L926.891 744.727ZM940.456 744.784V746.472H935.808V744.784H940.456ZM936.444 741.273V750H934.462V741.273H936.444ZM941.802 741.273V750H939.825V741.273H941.802ZM943.243 750V741.273H946.908C947.942 741.273 948.759 741.479 949.357 741.892C949.959 742.305 950.26 742.881 950.26 743.619C950.26 744.108 950.09 744.508 949.749 744.818C949.412 745.125 948.952 745.331 948.368 745.438C948.827 745.475 949.228 745.591 949.573 745.784C949.921 745.977 950.194 746.231 950.391 746.545C950.588 746.86 950.687 747.222 950.687 747.631C950.687 748.112 950.56 748.53 950.306 748.886C950.056 749.239 949.69 749.513 949.209 749.71C948.732 749.903 948.152 750 947.471 750H943.243ZM945.17 748.381H947.471C947.849 748.381 948.147 748.292 948.363 748.114C948.579 747.932 948.687 747.686 948.687 747.375C948.687 747.015 948.579 746.733 948.363 746.528C948.147 746.32 947.849 746.216 947.471 746.216H945.17V748.381ZM945.17 744.886H946.948C947.228 744.886 947.469 744.847 947.67 744.767C947.87 744.684 948.024 744.568 948.13 744.42C948.236 744.269 948.289 744.089 948.289 743.881C948.289 743.581 948.166 743.347 947.92 743.176C947.677 743.006 947.34 742.92 946.908 742.92H945.17V744.886ZM956.817 738.364V739.523C956.817 739.856 956.753 740.203 956.624 740.562C956.499 740.919 956.327 741.259 956.107 741.585C955.887 741.907 955.637 742.184 955.357 742.415L954.402 741.795C954.611 741.481 954.792 741.142 954.948 740.778C955.103 740.411 955.181 739.996 955.181 739.534V738.364H956.817ZM961.161 750V748.477L965.2 744.517C965.587 744.127 965.909 743.78 966.166 743.477C966.424 743.174 966.617 742.881 966.746 742.597C966.875 742.312 966.939 742.009 966.939 741.688C966.939 741.32 966.856 741.006 966.689 740.744C966.522 740.479 966.293 740.275 966.002 740.131C965.71 739.987 965.378 739.915 965.007 739.915C964.625 739.915 964.289 739.994 964.002 740.153C963.714 740.309 963.49 740.53 963.331 740.818C963.176 741.106 963.098 741.449 963.098 741.847H961.092C961.092 741.108 961.261 740.466 961.598 739.92C961.935 739.375 962.399 738.953 962.99 738.653C963.585 738.354 964.267 738.205 965.036 738.205C965.816 738.205 966.502 738.35 967.092 738.642C967.683 738.934 968.142 739.333 968.467 739.841C968.797 740.348 968.962 740.928 968.962 741.58C968.962 742.015 968.878 742.443 968.712 742.864C968.545 743.284 968.252 743.75 967.831 744.261C967.414 744.773 966.829 745.392 966.075 746.119L964.07 748.159V748.239H969.138V750H961.161ZM969.998 747.841V746.165L974.935 738.364H976.333V740.75H975.481L972.157 746.017V746.108H979.049V747.841H969.998ZM975.549 750V747.33L975.572 746.58V738.364H977.56V750H975.549Z" fill="#5F5F5F"/>
<defs>
<linearGradient id="paint0_linear_2814_2379" x1="1364.79" y1="817.5" x2="40" y2="817.5" gradientUnits="userSpaceOnUse">
<stop stop-color="#04B34A"/>
<stop offset="0.0001" stop-color="#04B34A" stop-opacity="0.991615"/>
<stop offset="0.119507" stop-color="#04B34A" stop-opacity="0.967585"/>
<stop offset="0.235693" stop-color="#04B34A" stop-opacity="0.9296"/>
<stop offset="0.322832" stop-color="#04B34A" stop-opacity="0.879348"/>
<stop offset="0.379604" stop-color="#04B34A" stop-opacity="0.818519"/>
<stop offset="0.4456" stop-color="#04B34A" stop-opacity="0.7488"/>
<stop offset="0.48243" stop-color="#04B34A" stop-opacity="0.671881"/>
<stop offset="0.51757" stop-color="#04B34A" stop-opacity="0.589452"/>
<stop offset="0.5544" stop-color="#04B34A" stop-opacity="0.5032"/>
<stop offset="0.596296" stop-color="#04B34A" stop-opacity="0.414815"/>
<stop offset="0.646637" stop-color="#04B34A" stop-opacity="0.325985"/>
<stop offset="0.7088" stop-color="#04B34A" stop-opacity="0.2384"/>
<stop offset="0.786163" stop-color="#04B34A" stop-opacity="0.153748"/>
<stop offset="0.882104" stop-color="#04B34A" stop-opacity="0.0737185"/>
<stop offset="1" stop-color="#04B34A" stop-opacity="0"/>
</linearGradient>
<linearGradient id="paint1_linear_2814_2379" x1="1686.5" y1="817.5" x2="246" y2="817.5" gradientUnits="userSpaceOnUse">
<stop stop-color="#04B34A"/>
<stop offset="0.0001" stop-color="#04B34A" stop-opacity="0.991615"/>
<stop offset="0.119507" stop-color="#04B34A" stop-opacity="0.967585"/>
<stop offset="0.235693" stop-color="#04B34A" stop-opacity="0.9296"/>
<stop offset="0.322832" stop-color="#04B34A" stop-opacity="0.879348"/>
<stop offset="0.379604" stop-color="#04B34A" stop-opacity="0.818519"/>
<stop offset="0.4456" stop-color="#04B34A" stop-opacity="0.7488"/>
<stop offset="0.48243" stop-color="#04B34A" stop-opacity="0.671881"/>
<stop offset="0.51757" stop-color="#04B34A" stop-opacity="0.589452"/>
<stop offset="0.5544" stop-color="#04B34A" stop-opacity="0.5032"/>
<stop offset="0.596296" stop-color="#04B34A" stop-opacity="0.414815"/>
<stop offset="0.646637" stop-color="#04B34A" stop-opacity="0.325985"/>
<stop offset="0.7088" stop-color="#04B34A" stop-opacity="0.2384"/>
<stop offset="0.786163" stop-color="#04B34A" stop-opacity="0.153748"/>
<stop offset="0.882104" stop-color="#04B34A" stop-opacity="0.0737185"/>
<stop offset="1" stop-color="#04B34A" stop-opacity="0"/>
</linearGradient>
<linearGradient id="paint2_linear_2814_2379" x1="1955.13" y1="818" x2="451" y2="818" gradientUnits="userSpaceOnUse">
<stop stop-color="#04B34A"/>
<stop offset="0.0001" stop-color="#04B34A" stop-opacity="0.991615"/>
<stop offset="0.119507" stop-color="#04B34A" stop-opacity="0.967585"/>
<stop offset="0.235693" stop-color="#04B34A" stop-opacity="0.9296"/>
<stop offset="0.322832" stop-color="#04B34A" stop-opacity="0.879348"/>
<stop offset="0.379604" stop-color="#04B34A" stop-opacity="0.818519"/>
<stop offset="0.4456" stop-color="#04B34A" stop-opacity="0.7488"/>
<stop offset="0.48243" stop-color="#04B34A" stop-opacity="0.671881"/>
<stop offset="0.51757" stop-color="#04B34A" stop-opacity="0.589452"/>
<stop offset="0.5544" stop-color="#04B34A" stop-opacity="0.5032"/>
<stop offset="0.596296" stop-color="#04B34A" stop-opacity="0.414815"/>
<stop offset="0.646637" stop-color="#04B34A" stop-opacity="0.325985"/>
<stop offset="0.7088" stop-color="#04B34A" stop-opacity="0.2384"/>
<stop offset="0.786163" stop-color="#04B34A" stop-opacity="0.153748"/>
<stop offset="0.882104" stop-color="#04B34A" stop-opacity="0.0737185"/>
<stop offset="1" stop-color="#04B34A" stop-opacity="0"/>
</linearGradient>
<linearGradient id="paint3_linear_2814_2379" x1="1825.6" y1="817.5" x2="657" y2="817.5" gradientUnits="userSpaceOnUse">
<stop stop-color="#04B34A"/>
<stop offset="0.0001" stop-color="#04B34A" stop-opacity="0.991615"/>
<stop offset="0.119507" stop-color="#04B34A" stop-opacity="0.967585"/>
<stop offset="0.235693" stop-color="#04B34A" stop-opacity="0.9296"/>
<stop offset="0.322832" stop-color="#04B34A" stop-opacity="0.879348"/>
<stop offset="0.379604" stop-color="#04B34A" stop-opacity="0.818519"/>
<stop offset="0.4456" stop-color="#04B34A" stop-opacity="0.7488"/>
<stop offset="0.48243" stop-color="#04B34A" stop-opacity="0.671881"/>
<stop offset="0.51757" stop-color="#04B34A" stop-opacity="0.589452"/>
<stop offset="0.5544" stop-color="#04B34A" stop-opacity="0.5032"/>
<stop offset="0.596296" stop-color="#04B34A" stop-opacity="0.414815"/>
<stop offset="0.646637" stop-color="#04B34A" stop-opacity="0.325985"/>
<stop offset="0.7088" stop-color="#04B34A" stop-opacity="0.2384"/>
<stop offset="0.786163" stop-color="#04B34A" stop-opacity="0.153748"/>
<stop offset="0.882104" stop-color="#04B34A" stop-opacity="0.0737185"/>
<stop offset="1" stop-color="#04B34A" stop-opacity="0"/>
</linearGradient>
<linearGradient id="paint4_linear_2814_2379" x1="1807" y1="817.5" x2="863" y2="817.5" gradientUnits="userSpaceOnUse">
<stop stop-color="#04B34A"/>
<stop offset="0.0001" stop-color="#04B34A" stop-opacity="0.991615"/>
<stop offset="0.119507" stop-color="#04B34A" stop-opacity="0.967585"/>
<stop offset="0.235693" stop-color="#04B34A" stop-opacity="0.9296"/>
<stop offset="0.322832" stop-color="#04B34A" stop-opacity="0.879348"/>
<stop offset="0.379604" stop-color="#04B34A" stop-opacity="0.818519"/>
<stop offset="0.4456" stop-color="#04B34A" stop-opacity="0.7488"/>
<stop offset="0.48243" stop-color="#04B34A" stop-opacity="0.671881"/>
<stop offset="0.51757" stop-color="#04B34A" stop-opacity="0.589452"/>
<stop offset="0.5544" stop-color="#04B34A" stop-opacity="0.5032"/>
<stop offset="0.596296" stop-color="#04B34A" stop-opacity="0.414815"/>
<stop offset="0.646637" stop-color="#04B34A" stop-opacity="0.325985"/>
<stop offset="0.7088" stop-color="#04B34A" stop-opacity="0.2384"/>
<stop offset="0.786163" stop-color="#04B34A" stop-opacity="0.153748"/>
<stop offset="0.882104" stop-color="#04B34A" stop-opacity="0.0737185"/>
<stop offset="1" stop-color="#04B34A" stop-opacity="0"/>
</linearGradient>
</defs>
</svg>
