<svg width="860" height="877" viewBox="0 0 860 877" fill="none" xmlns="http://www.w3.org/2000/svg">
<rect width="860" height="875.926" transform="translate(0 0.878906)" fill="white"/>
<path d="M729.077 39.8984L726.947 52.53H729.319L727.958 60.6021H723.567L724.217 56.7559H712.946L712.297 60.6021H707.906L709.268 52.53H710.951C711.721 51.4856 712.451 50.1077 713.273 47.2114L715.363 39.8984H729.08H729.077ZM723.501 44.1243H718.684L717.756 47.3771C716.947 50.202 716.279 51.4833 715.604 52.53H722.084L723.501 44.1243Z" fill="#EAECEF"/>
<path d="M732.948 39.8984H743.39C747.069 39.8984 748.722 41.7733 748.264 44.4809C747.971 46.2131 746.668 47.3288 745.445 47.828C746.781 48.3501 747.838 49.6798 747.453 51.9595C746.965 54.8557 744.604 56.7559 740.688 56.7559H730.104L732.948 39.8984ZM736.012 50.0133L735.514 52.9579H740.308C741.589 52.9579 742.381 52.484 742.549 51.4856C742.722 50.4642 742.086 50.0133 740.803 50.0133H736.01H736.012ZM737.076 43.6987L736.652 46.2154H741.374C742.372 46.2154 743.072 45.8588 743.224 44.957C743.376 44.0553 742.796 43.6987 741.798 43.6987H737.076Z" fill="#EAECEF"/>
<path d="M751.28 39.8984H756.145L754.431 50.0594L763.571 39.8984H768.436L765.594 56.7559H760.729L762.436 46.6409L753.302 56.7559H748.438L751.28 39.8984Z" fill="#EAECEF"/>
<path d="M775.67 48.0189L769.944 39.8984H775.449L780.219 46.7836L781.383 39.8984H786.01L784.849 46.7836L791.944 39.8984H797.332L789.092 47.805L794.844 56.7559H788.982L784.382 49.5625L783.168 56.7559H778.54L779.754 49.5625L772.726 56.7559H767.078L775.672 48.0189H775.67Z" fill="#EAECEF"/>
<path d="M804.437 39.8984H798.789L804.412 47.805L796.066 56.7559H801.714L810.06 47.805L804.437 39.8984ZM813.365 39.8984H807.717L813.34 47.805L804.995 56.7559H810.643L818.988 47.805L813.365 39.8984ZM822.524 39.8984H816.876L822.499 47.805L814.153 56.7559H819.801L828.147 47.805L822.524 39.8984Z" fill="#EAECEF"/>
<path d="M51.3868 39.8839V60.7324H47.0298V43.4673H38.6009V60.7324H34.2438V39.8839H51.3868ZM54.3554 66.5961V45.0961H58.631V47.7225H58.8244C59.0144 47.3017 59.2893 46.8742 59.649 46.4398C60.0154 45.9987 60.4905 45.6322 61.0742 45.3404C61.6646 45.0418 62.3975 44.8925 63.273 44.8925C64.4132 44.8925 65.4651 45.1911 66.4288 45.7883C67.3925 46.3787 68.1628 47.2712 68.7396 48.4656C69.3165 49.6533 69.6049 51.1429 69.6049 52.9346C69.6049 54.6788 69.3233 56.1515 68.76 57.3527C68.2035 58.5471 67.4434 59.4531 66.4797 60.0707C65.5228 60.6815 64.4505 60.9869 63.2628 60.9869C62.4213 60.9869 61.7053 60.8478 61.1149 60.5695C60.5312 60.2913 60.0528 59.9418 59.6795 59.521C59.3062 59.0935 59.0212 58.6625 58.8244 58.2282H58.6921V66.5961H54.3554ZM58.6004 52.9142C58.6004 53.844 58.7294 54.655 58.9873 55.3472C59.2452 56.0395 59.6184 56.579 60.1071 56.9658C60.5957 57.3459 61.1895 57.5359 61.8885 57.5359C62.5944 57.5359 63.1916 57.3425 63.6802 56.9557C64.1689 56.562 64.5387 56.0191 64.7898 55.3269C65.0477 54.6279 65.1767 53.8236 65.1767 52.9142C65.1767 52.0116 65.0511 51.2176 64.8 50.5321C64.5489 49.8467 64.179 49.3105 63.6904 48.9237C63.2018 48.5369 62.6011 48.3435 61.8885 48.3435C61.1827 48.3435 60.5855 48.5301 60.0969 48.9033C59.615 49.2766 59.2452 49.806 58.9873 50.4914C58.7294 51.1769 58.6004 51.9845 58.6004 52.9142ZM78.4142 61.0378C76.8329 61.0378 75.4654 60.7019 74.3117 60.03C73.1648 59.3513 72.2791 58.408 71.6548 57.2C71.0304 55.9852 70.7182 54.577 70.7182 52.9753C70.7182 51.3601 71.0304 49.9485 71.6548 48.7405C72.2791 47.5257 73.1648 46.5823 74.3117 45.9105C75.4654 45.2318 76.8329 44.8925 78.4142 44.8925C79.9955 44.8925 81.3596 45.2318 82.5066 45.9105C83.6603 46.5823 84.5493 47.5257 85.1737 48.7405C85.7981 49.9485 86.1103 51.3601 86.1103 52.9753C86.1103 54.577 85.7981 55.9852 85.1737 57.2C84.5493 58.408 83.6603 59.3513 82.5066 60.03C81.3596 60.7019 79.9955 61.0378 78.4142 61.0378ZM78.4346 57.6784C79.154 57.6784 79.7546 57.4748 80.2364 57.0676C80.7183 56.6537 81.0814 56.0904 81.3257 55.3778C81.5768 54.6652 81.7023 53.8542 81.7023 52.9448C81.7023 52.0354 81.5768 51.2244 81.3257 50.5118C81.0814 49.7992 80.7183 49.2359 80.2364 48.8219C79.7546 48.4079 79.154 48.2009 78.4346 48.2009C77.7084 48.2009 77.0976 48.4079 76.6022 48.8219C76.1136 49.2359 75.7437 49.7992 75.4926 50.5118C75.2483 51.2244 75.1261 52.0354 75.1261 52.9448C75.1261 53.8542 75.2483 54.6652 75.4926 55.3778C75.7437 56.0904 76.1136 56.6537 76.6022 57.0676C77.0976 57.4748 77.7084 57.6784 78.4346 57.6784ZM101.455 45.0961V57.7395H103.949V65.7613H99.7347V60.7324H87.7834V45.0961H91.9267V57.3221H97.3627V45.0961H101.455ZM112.435 61.0378C110.827 61.0378 109.442 60.7121 108.282 60.0605C107.128 59.4022 106.239 58.4725 105.615 57.2712C104.99 56.0632 104.678 54.6346 104.678 52.9855C104.678 51.3771 104.99 49.9655 105.615 48.7507C106.239 47.5358 107.118 46.5891 108.251 45.9105C109.391 45.2318 110.728 44.8925 112.262 44.8925C113.294 44.8925 114.254 45.0587 115.143 45.3913C116.039 45.717 116.819 46.2091 117.484 46.8674C118.156 47.5257 118.679 48.3536 119.052 49.3513C119.425 50.3421 119.612 51.5026 119.612 52.8328V54.0239H106.409V51.3364H115.53C115.53 50.712 115.394 50.1589 115.123 49.677C114.851 49.1952 114.475 48.8185 113.993 48.5471C113.518 48.2688 112.965 48.1297 112.333 48.1297C111.675 48.1297 111.091 48.2824 110.582 48.5878C110.08 48.8864 109.687 49.2902 109.402 49.7992C109.117 50.3014 108.971 50.8613 108.964 51.4789V54.034C108.964 54.8077 109.106 55.4762 109.391 56.0395C109.683 56.6028 110.094 57.0371 110.623 57.3425C111.153 57.6479 111.78 57.8006 112.506 57.8006C112.988 57.8006 113.429 57.7327 113.83 57.597C114.23 57.4613 114.573 57.2577 114.858 56.9862C115.143 56.7147 115.36 56.3822 115.51 55.9886L119.52 56.2533C119.317 57.217 118.899 58.0585 118.268 58.7779C117.644 59.4905 116.836 60.047 115.846 60.4474C114.861 60.841 113.725 61.0378 112.435 61.0378ZM132.178 51.1837V54.5939H124.013V51.1837H132.178ZM125.439 45.0961V60.7324H121.295V45.0961H125.439ZM134.896 45.0961V60.7324H130.783V45.0961H134.896ZM135.543 48.5063V45.0961H149.714V48.5063H144.675V60.7324H140.542V48.5063H135.543ZM163.749 61.0378C162.168 61.0378 160.8 60.7019 159.647 60.03C158.5 59.3513 157.614 58.408 156.99 57.2C156.365 55.9852 156.053 54.577 156.053 52.9753C156.053 51.3601 156.365 49.9485 156.99 48.7405C157.614 47.5257 158.5 46.5823 159.647 45.9105C160.8 45.2318 162.168 44.8925 163.749 44.8925C165.33 44.8925 166.694 45.2318 167.841 45.9105C168.995 46.5823 169.884 47.5257 170.509 48.7405C171.133 49.9485 171.445 51.3601 171.445 52.9753C171.445 54.577 171.133 55.9852 170.509 57.2C169.884 58.408 168.995 59.3513 167.841 60.03C166.694 60.7019 165.33 61.0378 163.749 61.0378ZM163.769 57.6784C164.489 57.6784 165.089 57.4748 165.571 57.0676C166.053 56.6537 166.416 56.0904 166.661 55.3778C166.912 54.6652 167.037 53.8542 167.037 52.9448C167.037 52.0354 166.912 51.2244 166.661 50.5118C166.416 49.7992 166.053 49.2359 165.571 48.8219C165.089 48.4079 164.489 48.2009 163.769 48.2009C163.043 48.2009 162.432 48.4079 161.937 48.8219C161.448 49.2359 161.079 49.7992 160.827 50.5118C160.583 51.2244 160.461 52.0354 160.461 52.9448C160.461 53.8542 160.583 54.6652 160.827 55.3778C161.079 56.0904 161.448 56.6537 161.937 57.0676C162.432 57.4748 163.043 57.6784 163.769 57.6784ZM171.897 65.3134V57.2916H173.098C173.444 57.0744 173.722 56.7283 173.933 56.2533C174.15 55.7782 174.326 55.2183 174.462 54.5736C174.605 53.9288 174.713 53.2332 174.788 52.4867C174.869 51.7334 174.94 50.9733 175.002 50.2064L175.409 45.0961H187.401V57.2916H189.824V65.3134H185.69V60.7324H176.132V65.3134H171.897ZM177.414 57.2916H183.308V48.4351H179.094L178.931 50.2064C178.816 51.8759 178.649 53.2943 178.432 54.4616C178.215 55.6221 177.876 56.5654 177.414 57.2916ZM198.269 61.0378C196.688 61.0378 195.32 60.7019 194.166 60.03C193.019 59.3513 192.134 58.408 191.509 57.2C190.885 55.9852 190.573 54.577 190.573 52.9753C190.573 51.3601 190.885 49.9485 191.509 48.7405C192.134 47.5257 193.019 46.5823 194.166 45.9105C195.32 45.2318 196.688 44.8925 198.269 44.8925C199.85 44.8925 201.214 45.2318 202.361 45.9105C203.515 46.5823 204.404 47.5257 205.028 48.7405C205.653 49.9485 205.965 51.3601 205.965 52.9753C205.965 54.577 205.653 55.9852 205.028 57.2C204.404 58.408 203.515 59.3513 202.361 60.03C201.214 60.7019 199.85 61.0378 198.269 61.0378ZM198.289 57.6784C199.009 57.6784 199.609 57.4748 200.091 57.0676C200.573 56.6537 200.936 56.0904 201.18 55.3778C201.431 54.6652 201.557 53.8542 201.557 52.9448C201.557 52.0354 201.431 51.2244 201.18 50.5118C200.936 49.7992 200.573 49.2359 200.091 48.8219C199.609 48.4079 199.009 48.2009 198.289 48.2009C197.563 48.2009 196.952 48.4079 196.457 48.8219C195.968 49.2359 195.598 49.7992 195.347 50.5118C195.103 51.2244 194.981 52.0354 194.981 52.9448C194.981 53.8542 195.103 54.6652 195.347 55.3778C195.598 56.0904 195.968 56.6537 196.457 57.0676C196.952 57.4748 197.563 57.6784 198.289 57.6784ZM220.638 39.3546L221.961 42.1846C221.52 42.5511 221.031 42.8225 220.495 42.999C219.959 43.1687 219.318 43.2806 218.571 43.3349C217.832 43.3892 216.929 43.4266 215.863 43.4469C214.655 43.4605 213.671 43.6539 212.911 44.0272C212.151 44.4004 211.574 44.9875 211.181 45.7883C210.787 46.5823 210.529 47.6207 210.407 48.9033H210.56C211.028 47.9464 211.686 47.2067 212.535 46.6841C213.39 46.1616 214.445 45.9003 215.701 45.9003C217.031 45.9003 218.195 46.1921 219.192 46.7757C220.197 47.3594 220.977 48.1975 221.534 49.2902C222.09 50.3828 222.368 51.6926 222.368 53.2196C222.368 54.8077 222.056 56.1888 221.432 57.3629C220.814 58.5302 219.935 59.4362 218.795 60.0809C217.655 60.7188 216.298 61.0378 214.723 61.0378C213.142 61.0378 211.778 60.7053 210.631 60.0402C209.491 59.3751 208.609 58.3944 207.984 57.0982C207.367 55.8019 207.058 54.2071 207.058 52.3136V51.031C207.058 47.2644 207.791 44.4717 209.257 42.6529C210.723 40.8341 212.877 39.9111 215.721 39.8839C216.495 39.8704 217.194 39.867 217.818 39.8738C218.442 39.8805 218.989 39.85 219.457 39.7821C219.932 39.7143 220.326 39.5718 220.638 39.3546ZM214.744 57.6784C215.409 57.6784 215.979 57.5054 216.454 57.1593C216.936 56.8132 217.306 56.3177 217.564 55.673C217.828 55.0283 217.961 54.258 217.961 53.3622C217.961 52.4731 217.828 51.7198 217.564 51.1022C217.306 50.4778 216.936 50.0028 216.454 49.677C215.972 49.3513 215.395 49.1884 214.723 49.1884C214.221 49.1884 213.77 49.28 213.369 49.4632C212.969 49.6465 212.626 49.9179 212.341 50.2776C212.063 50.6305 211.846 51.0683 211.69 51.5908C211.54 52.1066 211.466 52.6971 211.466 53.3622C211.466 54.6991 211.754 55.7544 212.331 56.5281C212.915 57.295 213.719 57.6784 214.744 57.6784ZM224.1 66.5961V45.0961H228.376V47.7225H228.569C228.759 47.3017 229.034 46.8742 229.394 46.4398C229.76 45.9987 230.235 45.6322 230.819 45.3404C231.409 45.0418 232.142 44.8925 233.018 44.8925C234.158 44.8925 235.21 45.1911 236.174 45.7883C237.137 46.3787 237.908 47.2712 238.484 48.4656C239.061 49.6533 239.35 51.1429 239.35 52.9346C239.35 54.6788 239.068 56.1515 238.505 57.3527C237.948 58.5471 237.188 59.4531 236.224 60.0707C235.268 60.6815 234.195 60.9869 233.008 60.9869C232.166 60.9869 231.45 60.8478 230.86 60.5695C230.276 60.2913 229.798 59.9418 229.424 59.521C229.051 59.0935 228.766 58.6625 228.569 58.2282H228.437V66.5961H224.1ZM228.345 52.9142C228.345 53.844 228.474 54.655 228.732 55.3472C228.99 56.0395 229.363 56.579 229.852 56.9658C230.34 57.3459 230.934 57.5359 231.633 57.5359C232.339 57.5359 232.936 57.3425 233.425 56.9557C233.914 56.562 234.283 56.0191 234.535 55.3269C234.792 54.6279 234.921 53.8236 234.921 52.9142C234.921 52.0116 234.796 51.2176 234.545 50.5321C234.294 49.8467 233.924 49.3105 233.435 48.9237C232.946 48.5369 232.346 48.3435 231.633 48.3435C230.927 48.3435 230.33 48.5301 229.842 48.9033C229.36 49.2766 228.99 49.806 228.732 50.4914C228.474 51.1769 228.345 51.9845 228.345 52.9142ZM248.22 61.0378C246.612 61.0378 245.227 60.7121 244.067 60.0605C242.913 59.4022 242.024 58.4725 241.399 57.2712C240.775 56.0632 240.463 54.6346 240.463 52.9855C240.463 51.3771 240.775 49.9655 241.399 48.7507C242.024 47.5358 242.903 46.5891 244.036 45.9105C245.176 45.2318 246.513 44.8925 248.047 44.8925C249.079 44.8925 250.039 45.0587 250.928 45.3913C251.824 45.717 252.604 46.2091 253.269 46.8674C253.941 47.5257 254.464 48.3536 254.837 49.3513C255.21 50.3421 255.397 51.5026 255.397 52.8328V54.0239H242.194V51.3364H251.315C251.315 50.712 251.179 50.1589 250.908 49.677C250.636 49.1952 250.259 48.8185 249.778 48.5471C249.303 48.2688 248.749 48.1297 248.118 48.1297C247.46 48.1297 246.876 48.2824 246.367 48.5878C245.865 48.8864 245.471 49.2902 245.186 49.7992C244.901 50.3014 244.755 50.8613 244.749 51.4789V54.034C244.749 54.8077 244.891 55.4762 245.176 56.0395C245.468 56.6028 245.879 57.0371 246.408 57.3425C246.937 57.6479 247.565 57.8006 248.291 57.8006C248.773 57.8006 249.214 57.7327 249.615 57.597C250.015 57.4613 250.358 57.2577 250.643 56.9862C250.928 56.7147 251.145 56.3822 251.294 55.9886L255.305 56.2533C255.102 57.217 254.684 58.0585 254.053 58.7779C253.429 59.4905 252.621 60.047 251.63 60.4474C250.646 60.841 249.51 61.0378 248.22 61.0378ZM267.963 51.1837V54.5939H259.798V51.1837H267.963ZM261.223 45.0961V60.7324H257.08V45.0961H261.223ZM270.681 45.0961V60.7324H266.568V45.0961H270.681ZM277.042 55.0113L282.671 45.0961H286.947V60.7324H282.814V50.7866L277.205 60.7324H272.898V45.0961H277.042V55.0113ZM298.438 60.7324V48.4962H295.507C294.713 48.4962 294.109 48.6794 293.695 49.0459C293.281 49.4123 293.077 49.8467 293.084 50.3489C293.077 50.8579 293.274 51.2888 293.674 51.6417C294.081 51.9879 294.679 52.1609 295.466 52.1609H299.884V55.0927H295.466C294.129 55.0927 292.972 54.8891 291.995 54.4819C291.017 54.0748 290.264 53.5081 289.735 52.7819C289.205 52.0489 288.944 51.1972 288.951 50.2267C288.944 49.2087 289.205 48.3163 289.735 47.5494C290.264 46.7757 291.021 46.1751 292.005 45.7476C292.996 45.3132 294.163 45.0961 295.507 45.0961H302.48V60.7324H298.438ZM288.503 60.7324L292.85 52.5885H296.993L292.656 60.7324H288.503Z" fill="black"/>
<path d="M52.0587 624.497H47.5999C47.5185 623.921 47.3522 623.408 47.1011 622.96C46.85 622.506 46.5276 622.119 46.134 621.8C45.7404 621.481 45.2857 621.236 44.7699 621.067C44.2609 620.897 43.7078 620.812 43.1106 620.812C42.0315 620.812 41.0915 621.08 40.2907 621.616C39.4899 622.146 38.8689 622.92 38.4278 623.938C37.9867 624.949 37.7661 626.177 37.7661 627.623C37.7661 629.109 37.9867 630.358 38.4278 631.369C38.8757 632.38 39.5001 633.144 40.3009 633.659C41.1017 634.175 42.0281 634.433 43.08 634.433C43.6705 634.433 44.2168 634.355 44.719 634.199C45.228 634.043 45.6793 633.815 46.0729 633.517C46.4665 633.211 46.7923 632.842 47.0502 632.407C47.3149 631.973 47.4981 631.477 47.5999 630.921L52.0587 630.941C51.9433 631.898 51.6549 632.821 51.1934 633.71C50.7387 634.592 50.1245 635.383 49.3509 636.082C48.584 636.774 47.6678 637.324 46.6023 637.731C45.5436 638.132 44.3457 638.332 43.0088 638.332C41.1492 638.332 39.4865 637.911 38.0206 637.07C36.5615 636.228 35.4077 635.01 34.5594 633.415C33.7179 631.82 33.2971 629.889 33.2971 627.623C33.2971 625.349 33.7247 623.415 34.5798 621.82C35.4349 620.225 36.5954 619.01 38.0613 618.176C39.5272 617.334 41.1764 616.913 43.0088 616.913C44.2168 616.913 45.3366 617.083 46.3681 617.422C47.4065 617.762 48.3261 618.257 49.1269 618.909C49.9277 619.553 50.5792 620.344 51.0814 621.281C51.5904 622.217 51.9162 623.289 52.0587 624.497ZM53.9915 638.047V622.411H58.3281V628.478H59.5497L63.8049 622.411H68.8949L63.3672 630.168L68.956 638.047H63.8049L59.9467 632.499H58.3281V638.047H53.9915ZM76.0627 638.352C74.4814 638.352 73.1139 638.016 71.9602 637.344C70.8132 636.666 69.9276 635.722 69.3032 634.514C68.6788 633.3 68.3666 631.891 68.3666 630.29C68.3666 628.675 68.6788 627.263 69.3032 626.055C69.9276 624.84 70.8132 623.897 71.9602 623.225C73.1139 622.546 74.4814 622.207 76.0627 622.207C77.6439 622.207 79.0081 622.546 80.155 623.225C81.3087 623.897 82.1978 624.84 82.8221 626.055C83.4465 627.263 83.7587 628.675 83.7587 630.29C83.7587 631.891 83.4465 633.3 82.8221 634.514C82.1978 635.722 81.3087 636.666 80.155 637.344C79.0081 638.016 77.6439 638.352 76.0627 638.352ZM76.083 634.993C76.8024 634.993 77.403 634.789 77.8849 634.382C78.3667 633.968 78.7298 633.405 78.9741 632.692C79.2252 631.98 79.3508 631.169 79.3508 630.259C79.3508 629.35 79.2252 628.539 78.9741 627.826C78.7298 627.114 78.3667 626.55 77.8849 626.136C77.403 625.722 76.8024 625.515 76.083 625.515C75.3569 625.515 74.7461 625.722 74.2506 626.136C73.762 626.55 73.3921 627.114 73.141 627.826C72.8967 628.539 72.7746 629.35 72.7746 630.259C72.7746 631.169 72.8967 631.98 73.141 632.692C73.3921 633.405 73.762 633.968 74.2506 634.382C74.7461 634.789 75.3569 634.993 76.083 634.993ZM85.4319 643.911V622.411H89.7074V625.037H89.9008C90.0909 624.616 90.3657 624.189 90.7254 623.754C91.0919 623.313 91.567 622.947 92.1506 622.655C92.741 622.356 93.474 622.207 94.3495 622.207C95.4896 622.207 96.5416 622.506 97.5053 623.103C98.469 623.693 99.2392 624.586 99.8161 625.78C100.393 626.968 100.681 628.457 100.681 630.249C100.681 631.993 100.4 633.466 99.8365 634.667C99.28 635.862 98.5199 636.768 97.5562 637.385C96.5992 637.996 95.527 638.301 94.3393 638.301C93.4978 638.301 92.7818 638.162 92.1913 637.884C91.6077 637.606 91.1292 637.256 90.756 636.835C90.3827 636.408 90.0977 635.977 89.9008 635.543H89.7685V643.911H85.4319ZM89.6769 630.229C89.6769 631.158 89.8058 631.969 90.0637 632.662C90.3216 633.354 90.6949 633.893 91.1835 634.28C91.6722 634.66 92.266 634.85 92.965 634.85C93.6708 634.85 94.268 634.657 94.7567 634.27C95.2453 633.876 95.6152 633.334 95.8663 632.641C96.1242 631.942 96.2531 631.138 96.2531 630.229C96.2531 629.326 96.1276 628.532 95.8765 627.847C95.6254 627.161 95.2555 626.625 94.7669 626.238C94.2782 625.851 93.6776 625.658 92.965 625.658C92.2592 625.658 91.662 625.845 91.1733 626.218C90.6915 626.591 90.3216 627.12 90.0637 627.806C89.8058 628.491 89.6769 629.299 89.6769 630.229ZM109.491 638.352C107.909 638.352 106.542 638.016 105.388 637.344C104.241 636.666 103.356 635.722 102.731 634.514C102.107 633.3 101.795 631.891 101.795 630.29C101.795 628.675 102.107 627.263 102.731 626.055C103.356 624.84 104.241 623.897 105.388 623.225C106.542 622.546 107.909 622.207 109.491 622.207C111.072 622.207 112.436 622.546 113.583 623.225C114.737 623.897 115.626 624.84 116.25 626.055C116.875 627.263 117.187 628.675 117.187 630.29C117.187 631.891 116.875 633.3 116.25 634.514C115.626 635.722 114.737 636.666 113.583 637.344C112.436 638.016 111.072 638.352 109.491 638.352ZM109.511 634.993C110.23 634.993 110.831 634.789 111.313 634.382C111.795 633.968 112.158 633.405 112.402 632.692C112.653 631.98 112.779 631.169 112.779 630.259C112.779 629.35 112.653 628.539 112.402 627.826C112.158 627.114 111.795 626.55 111.313 626.136C110.831 625.722 110.23 625.515 109.511 625.515C108.785 625.515 108.174 625.722 107.679 626.136C107.19 626.55 106.82 627.114 106.569 627.826C106.325 628.539 106.203 629.35 106.203 630.259C106.203 631.169 106.325 631.98 106.569 632.692C106.82 633.405 107.19 633.968 107.679 634.382C108.174 634.789 108.785 634.993 109.511 634.993ZM125.925 638.352C124.323 638.352 122.945 638.013 121.792 637.334C120.645 636.649 119.763 635.699 119.145 634.484C118.534 633.269 118.229 631.871 118.229 630.29C118.229 628.688 118.538 627.283 119.155 626.075C119.779 624.86 120.665 623.914 121.812 623.235C122.959 622.55 124.323 622.207 125.904 622.207C127.269 622.207 128.463 622.455 129.488 622.95C130.513 623.445 131.324 624.141 131.921 625.037C132.518 625.933 132.847 626.985 132.908 628.193H128.816C128.7 627.412 128.395 626.784 127.9 626.309C127.411 625.828 126.77 625.587 125.976 625.587C125.304 625.587 124.717 625.77 124.215 626.136C123.719 626.496 123.332 627.022 123.054 627.714C122.776 628.406 122.637 629.245 122.637 630.229C122.637 631.226 122.772 632.075 123.044 632.774C123.322 633.473 123.712 634.005 124.215 634.372C124.717 634.738 125.304 634.922 125.976 634.922C126.471 634.922 126.916 634.82 127.309 634.616C127.71 634.413 128.039 634.117 128.297 633.731C128.561 633.337 128.734 632.865 128.816 632.316H132.908C132.84 633.51 132.515 634.562 131.931 635.471C131.354 636.374 130.557 637.08 129.539 637.589C128.521 638.098 127.316 638.352 125.925 638.352ZM133.472 625.821V622.411H147.642V625.821H142.603V638.047H138.47V625.821H133.472ZM151.843 627.215H156.515C158.585 627.215 160.2 627.711 161.361 628.702C162.521 629.686 163.102 631.002 163.102 632.652C163.102 633.724 162.84 634.667 162.318 635.482C161.795 636.289 161.042 636.92 160.058 637.375C159.074 637.823 157.893 638.047 156.515 638.047H149.124V622.411H153.268V634.637H156.515C157.241 634.637 157.839 634.453 158.307 634.087C158.775 633.72 159.013 633.252 159.019 632.682C159.013 632.078 158.775 631.586 158.307 631.206C157.839 630.819 157.241 630.626 156.515 630.626H151.843V627.215ZM177.384 638.352C175.802 638.352 174.435 638.016 173.281 637.344C172.134 636.666 171.249 635.722 170.624 634.514C170 633.3 169.688 631.891 169.688 630.29C169.688 628.675 170 627.263 170.624 626.055C171.249 624.84 172.134 623.897 173.281 623.225C174.435 622.546 175.802 622.207 177.384 622.207C178.965 622.207 180.329 622.546 181.476 623.225C182.63 623.897 183.519 624.84 184.143 626.055C184.767 627.263 185.08 628.675 185.08 630.29C185.08 631.891 184.767 633.3 184.143 634.514C183.519 635.722 182.63 636.666 181.476 637.344C180.329 638.016 178.965 638.352 177.384 638.352ZM177.404 634.993C178.123 634.993 178.724 634.789 179.206 634.382C179.688 633.968 180.051 633.405 180.295 632.692C180.546 631.98 180.672 631.169 180.672 630.259C180.672 629.35 180.546 628.539 180.295 627.826C180.051 627.114 179.688 626.55 179.206 626.136C178.724 625.722 178.123 625.515 177.404 625.515C176.678 625.515 176.067 625.722 175.572 626.136C175.083 626.55 174.713 627.114 174.462 627.826C174.218 628.539 174.096 629.35 174.096 630.259C174.096 631.169 174.218 631.98 174.462 632.692C174.713 633.405 175.083 633.968 175.572 634.382C176.067 634.789 176.678 634.993 177.404 634.993ZM185.531 642.628V634.606H186.732C187.079 634.389 187.357 634.043 187.567 633.568C187.784 633.093 187.961 632.533 188.097 631.888C188.239 631.243 188.348 630.548 188.422 629.801C188.504 629.048 188.575 628.288 188.636 627.521L189.043 622.411H201.035V634.606H203.458V642.628H199.325V638.047H189.766V642.628H185.531ZM191.049 634.606H196.943V625.75H192.728L192.566 627.521C192.45 629.19 192.284 630.609 192.067 631.776C191.85 632.937 191.51 633.88 191.049 634.606ZM211.903 638.352C210.322 638.352 208.955 638.016 207.801 637.344C206.654 636.666 205.768 635.722 205.144 634.514C204.52 633.3 204.207 631.891 204.207 630.29C204.207 628.675 204.52 627.263 205.144 626.055C205.768 624.84 206.654 623.897 207.801 623.225C208.955 622.546 210.322 622.207 211.903 622.207C213.485 622.207 214.849 622.546 215.996 623.225C217.15 623.897 218.039 624.84 218.663 626.055C219.287 627.263 219.599 628.675 219.599 630.29C219.599 631.891 219.287 633.3 218.663 634.514C218.039 635.722 217.15 636.666 215.996 637.344C214.849 638.016 213.485 638.352 211.903 638.352ZM211.924 634.993C212.643 634.993 213.244 634.789 213.726 634.382C214.208 633.968 214.571 633.405 214.815 632.692C215.066 631.98 215.192 631.169 215.192 630.259C215.192 629.35 215.066 628.539 214.815 627.826C214.571 627.114 214.208 626.55 213.726 626.136C213.244 625.722 212.643 625.515 211.924 625.515C211.198 625.515 210.587 625.722 210.091 626.136C209.603 626.55 209.233 627.114 208.982 627.826C208.738 628.539 208.615 629.35 208.615 630.259C208.615 631.169 208.738 631.98 208.982 632.692C209.233 633.405 209.603 633.968 210.091 634.382C210.587 634.789 211.198 634.993 211.924 634.993ZM234.272 616.669L235.596 619.499C235.155 619.866 234.666 620.137 234.13 620.313C233.594 620.483 232.952 620.595 232.206 620.649C231.466 620.704 230.564 620.741 229.498 620.761C228.29 620.775 227.306 620.968 226.546 621.342C225.786 621.715 225.209 622.302 224.815 623.103C224.422 623.897 224.164 624.935 224.042 626.218H224.194C224.663 625.261 225.321 624.521 226.169 623.999C227.024 623.476 228.08 623.215 229.335 623.215C230.665 623.215 231.829 623.507 232.827 624.09C233.831 624.674 234.612 625.512 235.168 626.605C235.725 627.697 236.003 629.007 236.003 630.534C236.003 632.122 235.691 633.503 235.066 634.677C234.449 635.845 233.57 636.751 232.43 637.395C231.29 638.033 229.932 638.352 228.358 638.352C226.777 638.352 225.413 638.02 224.266 637.355C223.125 636.69 222.243 635.709 221.619 634.413C221.001 633.116 220.692 631.522 220.692 629.628V628.345C220.692 624.579 221.425 621.786 222.891 619.967C224.357 618.149 226.512 617.226 229.356 617.198C230.129 617.185 230.828 617.181 231.453 617.188C232.077 617.195 232.623 617.164 233.092 617.097C233.567 617.029 233.96 616.886 234.272 616.669ZM228.378 634.993C229.043 634.993 229.613 634.82 230.088 634.474C230.57 634.128 230.94 633.632 231.198 632.987C231.463 632.343 231.595 631.572 231.595 630.677C231.595 629.788 231.463 629.034 231.198 628.417C230.94 627.792 230.57 627.317 230.088 626.991C229.607 626.666 229.03 626.503 228.358 626.503C227.856 626.503 227.404 626.594 227.004 626.778C226.604 626.961 226.261 627.232 225.976 627.592C225.698 627.945 225.48 628.383 225.324 628.905C225.175 629.421 225.1 630.012 225.1 630.677C225.1 632.014 225.389 633.069 225.966 633.843C226.549 634.609 227.353 634.993 228.378 634.993ZM237.735 643.911V622.411H242.01V625.037H242.204C242.394 624.616 242.669 624.189 243.028 623.754C243.395 623.313 243.87 622.947 244.453 622.655C245.044 622.356 245.777 622.207 246.652 622.207C247.792 622.207 248.844 622.506 249.808 623.103C250.772 623.693 251.542 624.586 252.119 625.78C252.696 626.968 252.984 628.457 252.984 630.249C252.984 631.993 252.703 633.466 252.139 634.667C251.583 635.862 250.823 636.768 249.859 637.385C248.902 637.996 247.83 638.301 246.642 638.301C245.801 638.301 245.085 638.162 244.494 637.884C243.911 637.606 243.432 637.256 243.059 636.835C242.686 636.408 242.401 635.977 242.204 635.543H242.071V643.911H237.735ZM241.98 630.229C241.98 631.158 242.109 631.969 242.367 632.662C242.624 633.354 242.998 633.893 243.486 634.28C243.975 634.66 244.569 634.85 245.268 634.85C245.974 634.85 246.571 634.657 247.06 634.27C247.548 633.876 247.918 633.334 248.169 632.641C248.427 631.942 248.556 631.138 248.556 630.229C248.556 629.326 248.43 628.532 248.179 627.847C247.928 627.161 247.558 626.625 247.07 626.238C246.581 625.851 245.98 625.658 245.268 625.658C244.562 625.658 243.965 625.845 243.476 626.218C242.994 626.591 242.624 627.12 242.367 627.806C242.109 628.491 241.98 629.299 241.98 630.229ZM261.855 638.352C260.246 638.352 258.862 638.027 257.701 637.375C256.547 636.717 255.658 635.787 255.034 634.586C254.41 633.378 254.098 631.949 254.098 630.3C254.098 628.692 254.41 627.28 255.034 626.065C255.658 624.85 256.537 623.904 257.671 623.225C258.811 622.546 260.148 622.207 261.682 622.207C262.713 622.207 263.673 622.373 264.562 622.706C265.458 623.031 266.239 623.524 266.904 624.182C267.576 624.84 268.098 625.668 268.472 626.666C268.845 627.657 269.031 628.817 269.031 630.147V631.338H255.828V628.651H264.949C264.949 628.026 264.814 627.473 264.542 626.991C264.271 626.51 263.894 626.133 263.412 625.862C262.937 625.583 262.384 625.444 261.753 625.444C261.095 625.444 260.511 625.597 260.002 625.902C259.5 626.201 259.106 626.605 258.821 627.114C258.536 627.616 258.39 628.176 258.383 628.793V631.348C258.383 632.122 258.526 632.791 258.811 633.354C259.103 633.917 259.513 634.352 260.043 634.657C260.572 634.962 261.2 635.115 261.926 635.115C262.408 635.115 262.849 635.047 263.249 634.911C263.65 634.776 263.992 634.572 264.277 634.301C264.562 634.029 264.78 633.697 264.929 633.303L268.94 633.568C268.736 634.531 268.319 635.373 267.688 636.092C267.063 636.805 266.256 637.361 265.265 637.762C264.281 638.155 263.144 638.352 261.855 638.352ZM281.597 628.498V631.908H273.433V628.498H281.597ZM274.858 622.411V638.047H270.715V622.411H274.858ZM284.315 622.411V638.047H280.203V622.411H284.315ZM290.676 632.326L296.306 622.411H300.581V638.047H296.448V628.101L290.839 638.047H286.533V622.411H290.676V632.326ZM312.073 638.047V625.811H309.141C308.347 625.811 307.743 625.994 307.329 626.36C306.915 626.727 306.712 627.161 306.718 627.663C306.712 628.172 306.908 628.603 307.309 628.956C307.716 629.302 308.313 629.475 309.1 629.475H313.519V632.407H309.1C307.763 632.407 306.606 632.204 305.629 631.796C304.652 631.389 303.899 630.823 303.369 630.096C302.84 629.363 302.579 628.512 302.585 627.541C302.579 626.523 302.84 625.631 303.369 624.864C303.899 624.09 304.655 623.49 305.639 623.062C306.63 622.628 307.797 622.411 309.141 622.411H316.114V638.047H312.073ZM302.137 638.047L306.484 629.903H310.627L306.291 638.047H302.137Z" fill="black"/>
<path opacity="0.4" d="M824.127 242.556H31.8511L31.851 147.797L343.203 172.084H824.127V242.556Z" fill="url(#paint0_linear_2961_1726)"/>
<rect x="820.334" y="168.102" width="8.17935" height="8.17935" rx="4.08967" fill="#CACACA"/>
<path d="M824.127 172.083H342.407L31.851 147" stroke="#CACACA" stroke-width="3.18519"/>
<path d="M725.93 230.658V250.054L718.696 242.793L715.52 245.942L728.224 258.619L740.901 245.942L737.78 242.793L730.518 250.054V230.658H725.93Z" fill="#CACACA"/>
<path d="M762.736 230.841V258.639H756.859V236.419H756.696L750.33 240.41V235.198L757.212 230.841H762.736ZM773.796 254.838L773.647 256.331C773.53 257.526 773.303 258.716 772.969 259.901C772.643 261.095 772.299 262.177 771.937 263.145C771.584 264.113 771.299 264.873 771.082 265.425H767.336C767.471 264.891 767.657 264.145 767.892 263.186C768.127 262.236 768.349 261.168 768.557 259.982C768.765 258.797 768.897 257.589 768.951 256.358L769.019 254.838H773.796ZM787.259 230.841V258.639H781.382V236.419H781.219L774.854 240.41V235.198L781.735 230.841H787.259ZM808.69 253.427V251.961C808.69 250.848 808.925 249.825 809.396 248.893C809.875 247.952 810.568 247.201 811.472 246.64C812.386 246.07 813.499 245.785 814.811 245.785C816.142 245.785 817.259 246.065 818.164 246.626C819.078 247.187 819.766 247.938 820.227 248.88C820.698 249.812 820.933 250.839 820.933 251.961V253.427C820.933 254.54 820.698 255.567 820.227 256.508C819.757 257.44 819.064 258.186 818.15 258.747C817.236 259.317 816.123 259.602 814.811 259.602C813.481 259.602 812.364 259.317 811.459 258.747C810.554 258.186 809.866 257.44 809.396 256.508C808.925 255.567 808.69 254.54 808.69 253.427ZM812.64 251.961V253.427C812.64 254.069 812.794 254.675 813.101 255.245C813.418 255.815 813.988 256.1 814.811 256.1C815.635 256.1 816.196 255.82 816.494 255.259C816.802 254.698 816.956 254.087 816.956 253.427V251.961C816.956 251.3 816.811 250.685 816.522 250.115C816.232 249.545 815.662 249.26 814.811 249.26C813.997 249.26 813.431 249.545 813.115 250.115C812.798 250.685 812.64 251.3 812.64 251.961ZM794.424 237.519V236.053C794.424 234.931 794.664 233.904 795.144 232.972C795.623 232.031 796.316 231.28 797.221 230.719C798.134 230.158 799.238 229.877 800.532 229.877C801.872 229.877 802.994 230.158 803.899 230.719C804.803 231.28 805.491 232.031 805.962 232.972C806.432 233.904 806.667 234.931 806.667 236.053V237.519C806.667 238.641 806.428 239.668 805.948 240.6C805.478 241.532 804.785 242.278 803.871 242.839C802.967 243.391 801.853 243.667 800.532 243.667C799.211 243.667 798.094 243.387 797.18 242.826C796.275 242.256 795.587 241.509 795.117 240.586C794.655 239.654 794.424 238.632 794.424 237.519ZM798.401 236.053V237.519C798.401 238.179 798.555 238.79 798.863 239.351C799.18 239.912 799.736 240.193 800.532 240.193C801.365 240.193 801.93 239.912 802.229 239.351C802.537 238.79 802.691 238.179 802.691 237.519V236.053C802.691 235.392 802.546 234.777 802.256 234.207C801.967 233.637 801.392 233.352 800.532 233.352C799.727 233.352 799.171 233.641 798.863 234.22C798.555 234.8 798.401 235.41 798.401 236.053ZM796.216 258.639L815.327 230.841H818.883L799.772 258.639H796.216Z" fill="black"/>
<path d="M32.7225 129.876V128.463L37.7276 120.556H38.8418V122.637H38.1348L34.5549 128.304V128.395H41.415V129.876H32.7225ZM38.214 132.139V129.447L38.2253 128.802V120.556H39.8824V132.139H38.214ZM47.0602 120.398C47.5767 120.402 48.0857 120.496 48.5872 120.681C49.0886 120.865 49.5411 121.167 49.9445 121.585C50.3517 122.004 50.6759 122.57 50.9172 123.282C51.1623 123.991 51.2867 124.873 51.2905 125.929C51.2905 126.943 51.1887 127.846 50.9851 128.638C50.7815 129.426 50.4893 130.091 50.1085 130.634C49.7315 131.177 49.2734 131.59 48.7342 131.873C48.195 132.156 47.588 132.297 46.9131 132.297C46.2232 132.297 45.6105 132.161 45.0751 131.89C44.5397 131.618 44.1042 131.243 43.7687 130.764C43.4331 130.282 43.2238 129.728 43.1409 129.102H44.8658C44.9789 129.599 45.2089 130.003 45.5558 130.312C45.9064 130.617 46.3589 130.77 46.9131 130.77C47.7615 130.77 48.4231 130.401 48.8982 129.662C49.3733 128.919 49.6127 127.882 49.6165 126.551H49.526C49.3299 126.875 49.0848 127.154 48.7908 127.388C48.5004 127.622 48.1743 127.803 47.8124 127.931C47.4504 128.059 47.0639 128.123 46.653 128.123C45.9856 128.123 45.3786 127.959 44.8319 127.631C44.2852 127.303 43.8497 126.853 43.5255 126.28C43.2012 125.706 43.0391 125.052 43.0391 124.317C43.0391 123.586 43.205 122.922 43.5368 122.326C43.8723 121.731 44.3399 121.259 44.9393 120.912C45.5426 120.562 46.2495 120.39 47.0602 120.398ZM47.0658 121.868C46.6247 121.868 46.2269 121.978 45.8725 122.196C45.5219 122.411 45.2447 122.703 45.0411 123.073C44.8376 123.439 44.7358 123.846 44.7358 124.294C44.7358 124.743 44.8338 125.15 45.0298 125.516C45.2297 125.878 45.5011 126.166 45.8442 126.381C46.1911 126.592 46.587 126.698 47.0319 126.698C47.3637 126.698 47.6728 126.634 47.9594 126.506C48.2459 126.378 48.4967 126.2 48.7116 125.974C48.9265 125.744 49.0943 125.484 49.2149 125.194C49.3356 124.903 49.3959 124.598 49.3959 124.278C49.3959 123.851 49.2941 123.456 49.0905 123.09C48.8907 122.724 48.6154 122.43 48.2648 122.208C47.9141 121.981 47.5145 121.868 47.0658 121.868ZM54.959 130.555L54.8742 131.172C54.8176 131.624 54.7215 132.095 54.5858 132.585C54.4538 133.079 54.3162 133.537 54.1729 133.96C54.0334 134.382 53.9184 134.718 53.8279 134.966H52.629C52.678 134.733 52.7458 134.416 52.8325 134.016C52.9193 133.62 53.0041 133.177 53.087 132.687C53.17 132.197 53.2322 131.698 53.2737 131.189L53.3302 130.555H54.959ZM56.904 129.876V128.463L61.9092 120.556H63.0233V122.637H62.3164L58.7364 128.304V128.395H65.5966V129.876H56.904ZM62.3955 132.139V129.447L62.4068 128.802V120.556H64.0639V132.139H62.3955Z" fill="#CFCFCF"/>
<path d="M791.755 154.562V153.148L796.76 145.242H797.874V147.323H797.167L793.587 152.99V153.08H800.447V154.562H791.755ZM797.246 156.824V154.132L797.258 153.487V145.242H798.915V156.824H797.246ZM806.155 156.983C805.344 156.983 804.628 156.843 804.006 156.564C803.387 156.285 802.903 155.9 802.552 155.41C802.201 154.92 802.028 154.362 802.032 153.736C802.028 153.246 802.128 152.796 802.332 152.385C802.539 151.97 802.82 151.625 803.174 151.35C803.529 151.071 803.925 150.893 804.362 150.818V150.75C803.785 150.611 803.323 150.302 802.976 149.823C802.629 149.344 802.458 148.793 802.462 148.171C802.458 147.579 802.614 147.051 802.931 146.588C803.252 146.12 803.691 145.753 804.249 145.485C804.807 145.217 805.442 145.083 806.155 145.083C806.86 145.083 807.489 145.219 808.044 145.491C808.602 145.758 809.041 146.126 809.361 146.593C809.682 147.057 809.844 147.583 809.848 148.171C809.844 148.793 809.667 149.344 809.316 149.823C808.965 150.302 808.509 150.611 807.947 150.75V150.818C808.381 150.893 808.771 151.071 809.118 151.35C809.469 151.625 809.748 151.97 809.955 152.385C810.166 152.796 810.274 153.246 810.278 153.736C810.274 154.362 810.097 154.92 809.746 155.41C809.395 155.9 808.909 156.285 808.287 156.564C807.668 156.843 806.958 156.983 806.155 156.983ZM806.155 155.552C806.634 155.552 807.048 155.473 807.399 155.314C807.75 155.152 808.021 154.928 808.213 154.641C808.406 154.351 808.504 154.012 808.507 153.623C808.504 153.22 808.398 152.863 808.191 152.554C807.987 152.245 807.71 152.002 807.359 151.825C807.009 151.648 806.607 151.559 806.155 151.559C805.698 151.559 805.293 151.648 804.939 151.825C804.584 152.002 804.305 152.245 804.102 152.554C803.898 152.863 803.798 153.22 803.802 153.623C803.798 154.012 803.891 154.351 804.079 154.641C804.271 154.928 804.545 155.152 804.899 155.314C805.254 155.473 805.672 155.552 806.155 155.552ZM806.155 150.162C806.539 150.162 806.88 150.085 807.178 149.93C807.476 149.776 807.71 149.561 807.88 149.285C808.053 149.01 808.142 148.688 808.145 148.318C808.142 147.956 808.055 147.64 807.885 147.368C807.719 147.097 807.488 146.887 807.19 146.74C806.892 146.59 806.547 146.514 806.155 146.514C805.755 146.514 805.404 146.59 805.103 146.74C804.805 146.887 804.573 147.097 804.407 147.368C804.241 147.64 804.16 147.956 804.164 148.318C804.16 148.688 804.243 149.01 804.413 149.285C804.582 149.561 804.816 149.776 805.114 149.93C805.416 150.085 805.763 150.162 806.155 150.162ZM814.007 155.241L813.922 155.857C813.865 156.31 813.769 156.781 813.634 157.271C813.502 157.765 813.364 158.223 813.221 158.645C813.081 159.068 812.966 159.403 812.876 159.652H811.677C811.726 159.418 811.794 159.102 811.88 158.702C811.967 158.306 812.052 157.863 812.135 157.373C812.218 156.883 812.28 156.383 812.322 155.874L812.378 155.241H814.007ZM819.808 156.983C819.031 156.983 818.337 156.849 817.726 156.581C817.119 156.313 816.639 155.942 816.284 155.467C815.934 154.988 815.745 154.434 815.719 153.804H817.494C817.517 154.147 817.632 154.445 817.839 154.698C818.051 154.947 818.326 155.139 818.665 155.275C819.004 155.41 819.381 155.478 819.796 155.478C820.252 155.478 820.656 155.399 821.007 155.241C821.361 155.082 821.638 154.862 821.838 154.579C822.038 154.292 822.138 153.963 822.138 153.589C822.138 153.201 822.038 152.86 821.838 152.566C821.642 152.268 821.353 152.034 820.973 151.864C820.596 151.695 820.139 151.61 819.604 151.61H818.626V150.185H819.604C820.034 150.185 820.411 150.107 820.735 149.953C821.063 149.798 821.319 149.583 821.504 149.308C821.689 149.029 821.781 148.703 821.781 148.33C821.781 147.971 821.7 147.66 821.538 147.396C821.38 147.129 821.154 146.92 820.859 146.769C820.569 146.618 820.226 146.542 819.83 146.542C819.453 146.542 819.101 146.612 818.773 146.752C818.448 146.887 818.184 147.084 817.981 147.34C817.777 147.593 817.668 147.896 817.653 148.25H815.962C815.981 147.625 816.165 147.074 816.516 146.599C816.87 146.124 817.338 145.753 817.919 145.485C818.499 145.217 819.144 145.083 819.853 145.083C820.596 145.083 821.236 145.229 821.776 145.519C822.319 145.805 822.737 146.188 823.031 146.667C823.329 147.146 823.476 147.67 823.472 148.239C823.476 148.888 823.295 149.438 822.929 149.891C822.567 150.343 822.085 150.647 821.482 150.801V150.892C822.251 151.008 822.846 151.314 823.269 151.808C823.695 152.302 823.906 152.914 823.902 153.646C823.906 154.283 823.729 154.854 823.371 155.359C823.016 155.865 822.532 156.262 821.917 156.553C821.302 156.839 820.599 156.983 819.808 156.983Z" fill="#CFCFCF"/>
<path d="M51.3868 328.939V349.787H47.0298V332.522H38.6009V349.787H34.2438V328.939H51.3868ZM54.3554 355.651V334.151H58.631V336.777H58.8244C59.0144 336.356 59.2893 335.929 59.649 335.494C60.0154 335.053 60.4905 334.687 61.0742 334.395C61.6646 334.096 62.3975 333.947 63.273 333.947C64.4132 333.947 65.4651 334.246 66.4288 334.843C67.3925 335.433 68.1628 336.326 68.7396 337.52C69.3165 338.708 69.6049 340.198 69.6049 341.989C69.6049 343.733 69.3233 345.206 68.76 346.407C68.2035 347.602 67.4434 348.508 66.4797 349.125C65.5228 349.736 64.4505 350.042 63.2628 350.042C62.4213 350.042 61.7053 349.902 61.1149 349.624C60.5312 349.346 60.0528 348.996 59.6795 348.576C59.3062 348.148 59.0212 347.717 58.8244 347.283H58.6921V355.651H54.3554ZM58.6004 341.969C58.6004 342.899 58.7294 343.71 58.9873 344.402C59.2452 345.094 59.6184 345.634 60.1071 346.021C60.5957 346.401 61.1895 346.591 61.8885 346.591C62.5944 346.591 63.1916 346.397 63.6802 346.01C64.1689 345.617 64.5387 345.074 64.7898 344.382C65.0477 343.683 65.1767 342.878 65.1767 341.969C65.1767 341.066 65.0511 340.272 64.8 339.587C64.5489 338.901 64.179 338.365 63.6904 337.978C63.2018 337.592 62.6011 337.398 61.8885 337.398C61.1827 337.398 60.5855 337.585 60.0969 337.958C59.615 338.331 59.2452 338.861 58.9873 339.546C58.7294 340.232 58.6004 341.039 58.6004 341.969ZM78.4142 350.093C76.8329 350.093 75.4654 349.757 74.3117 349.085C73.1648 348.406 72.2791 347.463 71.6548 346.255C71.0304 345.04 70.7182 343.632 70.7182 342.03C70.7182 340.415 71.0304 339.003 71.6548 337.795C72.2791 336.58 73.1648 335.637 74.3117 334.965C75.4654 334.286 76.8329 333.947 78.4142 333.947C79.9955 333.947 81.3596 334.286 82.5066 334.965C83.6603 335.637 84.5493 336.58 85.1737 337.795C85.7981 339.003 86.1103 340.415 86.1103 342.03C86.1103 343.632 85.7981 345.04 85.1737 346.255C84.5493 347.463 83.6603 348.406 82.5066 349.085C81.3596 349.757 79.9955 350.093 78.4142 350.093ZM78.4346 346.733C79.154 346.733 79.7546 346.53 80.2364 346.122C80.7183 345.708 81.0814 345.145 81.3257 344.432C81.5768 343.72 81.7023 342.909 81.7023 341.999C81.7023 341.09 81.5768 340.279 81.3257 339.566C81.0814 338.854 80.7183 338.291 80.2364 337.877C79.7546 337.463 79.154 337.256 78.4346 337.256C77.7084 337.256 77.0976 337.463 76.6022 337.877C76.1136 338.291 75.7437 338.854 75.4926 339.566C75.2483 340.279 75.1261 341.09 75.1261 341.999C75.1261 342.909 75.2483 343.72 75.4926 344.432C75.7437 345.145 76.1136 345.708 76.6022 346.122C77.0976 346.53 77.7084 346.733 78.4346 346.733ZM101.455 334.151V346.794H103.949V354.816H99.7347V349.787H87.7834V334.151H91.9267V346.377H97.3627V334.151H101.455ZM112.435 350.093C110.827 350.093 109.442 349.767 108.282 349.115C107.128 348.457 106.239 347.527 105.615 346.326C104.99 345.118 104.678 343.689 104.678 342.04C104.678 340.432 104.99 339.02 105.615 337.805C106.239 336.591 107.118 335.644 108.251 334.965C109.391 334.286 110.728 333.947 112.262 333.947C113.294 333.947 114.254 334.113 115.143 334.446C116.039 334.772 116.819 335.264 117.484 335.922C118.156 336.58 118.679 337.408 119.052 338.406C119.425 339.397 119.612 340.557 119.612 341.887V343.079H106.409V340.391H115.53C115.53 339.767 115.394 339.214 115.123 338.732C114.851 338.25 114.475 337.873 113.993 337.602C113.518 337.323 112.965 337.184 112.333 337.184C111.675 337.184 111.091 337.337 110.582 337.642C110.08 337.941 109.687 338.345 109.402 338.854C109.117 339.356 108.971 339.916 108.964 340.534V343.089C108.964 343.862 109.106 344.531 109.391 345.094C109.683 345.657 110.094 346.092 110.623 346.397C111.153 346.703 111.78 346.855 112.506 346.855C112.988 346.855 113.429 346.787 113.83 346.652C114.23 346.516 114.573 346.312 114.858 346.041C115.143 345.769 115.36 345.437 115.51 345.043L119.52 345.308C119.317 346.272 118.899 347.113 118.268 347.833C117.644 348.545 116.836 349.102 115.846 349.502C114.861 349.896 113.725 350.093 112.435 350.093ZM132.178 340.238V343.649H124.013V340.238H132.178ZM125.439 334.151V349.787H121.295V334.151H125.439ZM134.896 334.151V349.787H130.783V334.151H134.896ZM135.543 337.561V334.151H149.714V337.561H144.675V349.787H140.542V337.561H135.543ZM163.749 350.093C162.168 350.093 160.8 349.757 159.647 349.085C158.5 348.406 157.614 347.463 156.99 346.255C156.365 345.04 156.053 343.632 156.053 342.03C156.053 340.415 156.365 339.003 156.99 337.795C157.614 336.58 158.5 335.637 159.647 334.965C160.8 334.286 162.168 333.947 163.749 333.947C165.33 333.947 166.694 334.286 167.841 334.965C168.995 335.637 169.884 336.58 170.509 337.795C171.133 339.003 171.445 340.415 171.445 342.03C171.445 343.632 171.133 345.04 170.509 346.255C169.884 347.463 168.995 348.406 167.841 349.085C166.694 349.757 165.33 350.093 163.749 350.093ZM163.769 346.733C164.489 346.733 165.089 346.53 165.571 346.122C166.053 345.708 166.416 345.145 166.661 344.432C166.912 343.72 167.037 342.909 167.037 341.999C167.037 341.09 166.912 340.279 166.661 339.566C166.416 338.854 166.053 338.291 165.571 337.877C165.089 337.463 164.489 337.256 163.769 337.256C163.043 337.256 162.432 337.463 161.937 337.877C161.448 338.291 161.079 338.854 160.827 339.566C160.583 340.279 160.461 341.09 160.461 341.999C160.461 342.909 160.583 343.72 160.827 344.432C161.079 345.145 161.448 345.708 161.937 346.122C162.432 346.53 163.043 346.733 163.769 346.733ZM171.604 337.561V334.151H185.774V337.561H180.735V349.787H176.602V337.561H171.604ZM187.257 349.787V334.151H191.593V340.218H192.815L197.07 334.151H202.16L196.632 341.908L202.221 349.787H197.07L193.212 344.239H191.593V349.787H187.257ZM207.366 350.082C206.368 350.082 205.479 349.909 204.699 349.563C203.918 349.21 203.301 348.691 202.846 348.006C202.398 347.313 202.174 346.451 202.174 345.42C202.174 344.551 202.333 343.822 202.652 343.231C202.971 342.641 203.406 342.166 203.955 341.806C204.505 341.446 205.13 341.175 205.829 340.992C206.534 340.808 207.274 340.679 208.048 340.605C208.957 340.51 209.69 340.422 210.247 340.34C210.803 340.252 211.207 340.123 211.458 339.953C211.709 339.784 211.835 339.533 211.835 339.2V339.139C211.835 338.494 211.631 337.995 211.224 337.642C210.824 337.29 210.253 337.113 209.514 337.113C208.733 337.113 208.112 337.286 207.651 337.632C207.189 337.972 206.884 338.399 206.735 338.915L202.724 338.589C202.927 337.639 203.328 336.818 203.925 336.126C204.522 335.427 205.292 334.89 206.236 334.517C207.186 334.137 208.285 333.947 209.534 333.947C210.403 333.947 211.234 334.049 212.028 334.253C212.829 334.456 213.538 334.772 214.156 335.199C214.78 335.627 215.272 336.177 215.632 336.848C215.992 337.514 216.171 338.311 216.171 339.241V349.787H212.059V347.619H211.937C211.685 348.107 211.35 348.538 210.929 348.912C210.508 349.278 210.002 349.567 209.412 349.777C208.821 349.981 208.139 350.082 207.366 350.082ZM208.608 347.089C209.246 347.089 209.809 346.964 210.298 346.713C210.786 346.455 211.17 346.109 211.448 345.674C211.726 345.24 211.865 344.748 211.865 344.198V342.539C211.73 342.627 211.543 342.709 211.305 342.783C211.075 342.851 210.813 342.916 210.522 342.977C210.23 343.031 209.938 343.082 209.646 343.129C209.354 343.17 209.09 343.207 208.852 343.241C208.343 343.316 207.899 343.435 207.518 343.598C207.138 343.761 206.843 343.981 206.633 344.259C206.422 344.531 206.317 344.87 206.317 345.277C206.317 345.868 206.531 346.319 206.959 346.631C207.393 346.937 207.943 347.089 208.608 347.089ZM217.585 345.359H221.789C221.81 345.875 222.04 346.282 222.482 346.58C222.923 346.879 223.493 347.028 224.192 347.028C224.898 347.028 225.491 346.865 225.973 346.54C226.455 346.207 226.696 345.732 226.696 345.115C226.696 344.734 226.601 344.405 226.411 344.127C226.221 343.842 225.956 343.618 225.617 343.455C225.278 343.292 224.884 343.211 224.436 343.211H222.186V340.371H224.436C225.108 340.371 225.624 340.215 225.983 339.902C226.35 339.59 226.533 339.2 226.533 338.732C226.533 338.202 226.343 337.778 225.963 337.459C225.59 337.133 225.084 336.971 224.446 336.971C223.802 336.971 223.265 337.116 222.838 337.408C222.417 337.693 222.2 338.067 222.186 338.528H218.002C218.016 337.592 218.298 336.781 218.847 336.095C219.404 335.41 220.15 334.88 221.087 334.507C222.03 334.134 223.086 333.947 224.253 333.947C225.529 333.947 226.628 334.127 227.551 334.487C228.481 334.84 229.193 335.345 229.689 336.003C230.191 336.662 230.442 337.446 230.442 338.355C230.442 339.183 230.171 339.875 229.628 340.432C229.085 340.988 228.325 341.385 227.348 341.623V341.786C227.992 341.826 228.576 341.999 229.098 342.305C229.621 342.61 230.038 343.031 230.351 343.567C230.663 344.097 230.819 344.724 230.819 345.45C230.819 346.421 230.534 347.252 229.964 347.945C229.4 348.637 228.62 349.17 227.622 349.543C226.632 349.909 225.495 350.093 224.212 350.093C222.963 350.093 221.844 349.913 220.853 349.553C219.869 349.186 219.085 348.65 218.501 347.945C217.924 347.239 217.619 346.377 217.585 345.359ZM236.791 350.082C235.793 350.082 234.904 349.909 234.123 349.563C233.343 349.21 232.725 348.691 232.271 348.006C231.823 347.313 231.599 346.451 231.599 345.42C231.599 344.551 231.758 343.822 232.077 343.231C232.396 342.641 232.831 342.166 233.38 341.806C233.93 341.446 234.554 341.175 235.253 340.992C235.959 340.808 236.699 340.679 237.473 340.605C238.382 340.51 239.115 340.422 239.671 340.34C240.228 340.252 240.632 340.123 240.883 339.953C241.134 339.784 241.26 339.533 241.26 339.2V339.139C241.26 338.494 241.056 337.995 240.649 337.642C240.248 337.29 239.678 337.113 238.939 337.113C238.158 337.113 237.537 337.286 237.076 337.632C236.614 337.972 236.309 338.399 236.159 338.915L232.148 338.589C232.352 337.639 232.753 336.818 233.35 336.126C233.947 335.427 234.717 334.89 235.661 334.517C236.611 334.137 237.71 333.947 238.959 333.947C239.828 333.947 240.659 334.049 241.453 334.253C242.254 334.456 242.963 334.772 243.581 335.199C244.205 335.627 244.697 336.177 245.057 336.848C245.416 337.514 245.596 338.311 245.596 339.241V349.787H241.483V347.619H241.361C241.11 348.107 240.774 348.538 240.354 348.912C239.933 349.278 239.427 349.567 238.837 349.777C238.246 349.981 237.564 350.082 236.791 350.082ZM238.032 347.089C238.67 347.089 239.234 346.964 239.722 346.713C240.211 346.455 240.594 346.109 240.873 345.674C241.151 345.24 241.29 344.748 241.29 344.198V342.539C241.154 342.627 240.968 342.709 240.73 342.783C240.499 342.851 240.238 342.916 239.946 342.977C239.654 343.031 239.363 343.082 239.071 343.129C238.779 343.17 238.514 343.207 238.277 343.241C237.768 343.316 237.323 343.435 236.943 343.598C236.563 343.761 236.268 343.981 236.058 344.259C235.847 344.531 235.742 344.87 235.742 345.277C235.742 345.868 235.956 346.319 236.383 346.631C236.818 346.937 237.367 347.089 238.032 347.089Z" fill="black"/>
<path opacity="0.4" d="M823.766 531.611H31.4897V444.814H448.713L823.766 412.564V531.611Z" fill="url(#paint1_linear_2961_1726)"/>
<rect x="820.618" y="408.868" width="7.61134" height="7.61134" rx="3.80567" fill="#CACACA" stroke="#CACACA" stroke-width="0.56801"/>
<path d="M824.164 412.564L450.306 444.814H31.4542" stroke="#CACACA" stroke-width="3.18519"/>
<path d="M708.93 547.676V528.28L701.696 535.541L698.52 532.392L711.224 519.715L723.901 532.392L720.78 535.541L713.518 528.28V547.676H708.93Z" fill="#CACACA"/>
<path d="M733.201 542.809V538.18L744.806 519.897H748.796V526.304H746.435L739.119 537.882V538.099H755.61V542.809H733.201ZM746.543 547.695V541.397L746.652 539.348V519.897H752.162V547.695H746.543ZM764.95 543.895L764.801 545.388C764.683 546.582 764.457 547.772 764.122 548.958C763.796 550.152 763.453 551.233 763.091 552.202C762.738 553.17 762.453 553.93 762.235 554.482H758.489C758.625 553.948 758.811 553.202 759.046 552.242C759.281 551.292 759.503 550.224 759.711 549.039C759.919 547.854 760.05 546.646 760.104 545.415L760.172 543.895H764.95ZM769.791 547.695V543.46L779.686 534.299C780.527 533.484 781.233 532.751 781.803 532.1C782.382 531.448 782.821 530.81 783.12 530.186C783.418 529.552 783.568 528.869 783.568 528.136C783.568 527.322 783.382 526.621 783.011 526.032C782.64 525.435 782.133 524.978 781.491 524.662C780.848 524.336 780.12 524.173 779.306 524.173C778.455 524.173 777.713 524.345 777.08 524.689C776.446 525.033 775.957 525.526 775.614 526.168C775.27 526.811 775.098 527.575 775.098 528.462H769.519C769.519 526.643 769.931 525.064 770.754 523.725C771.578 522.386 772.732 521.35 774.216 520.617C775.7 519.884 777.41 519.517 779.346 519.517C781.337 519.517 783.07 519.87 784.545 520.576C786.029 521.273 787.183 522.241 788.006 523.481C788.829 524.72 789.241 526.141 789.241 527.743C789.241 528.792 789.033 529.828 788.617 530.851C788.21 531.873 787.481 533.009 786.431 534.258C785.382 535.498 783.902 536.986 781.993 538.723L777.935 542.7V542.89H789.608V547.695H769.791ZM808.69 542.483V541.017C808.69 539.904 808.925 538.882 809.396 537.95C809.875 537.009 810.568 536.258 811.472 535.697C812.386 535.126 813.499 534.841 814.811 534.841C816.142 534.841 817.259 535.122 818.164 535.683C819.078 536.244 819.766 536.995 820.227 537.936C820.698 538.868 820.933 539.895 820.933 541.017V542.483C820.933 543.596 820.698 544.623 820.227 545.564C819.757 546.496 819.064 547.243 818.15 547.804C817.236 548.374 816.123 548.659 814.811 548.659C813.481 548.659 812.364 548.374 811.459 547.804C810.554 547.243 809.866 546.496 809.396 545.564C808.925 544.623 808.69 543.596 808.69 542.483ZM812.64 541.017V542.483C812.64 543.126 812.794 543.732 813.101 544.302C813.418 544.872 813.988 545.157 814.811 545.157C815.635 545.157 816.196 544.877 816.494 544.316C816.802 543.755 816.956 543.144 816.956 542.483V541.017C816.956 540.357 816.811 539.741 816.522 539.171C816.232 538.601 815.662 538.316 814.811 538.316C813.997 538.316 813.431 538.601 813.115 539.171C812.798 539.741 812.64 540.357 812.64 541.017ZM794.424 526.575V525.109C794.424 523.987 794.664 522.96 795.144 522.028C795.623 521.087 796.316 520.336 797.221 519.775C798.134 519.214 799.238 518.934 800.532 518.934C801.872 518.934 802.994 519.214 803.899 519.775C804.803 520.336 805.491 521.087 805.962 522.028C806.432 522.96 806.667 523.987 806.667 525.109V526.575C806.667 527.697 806.428 528.724 805.948 529.656C805.478 530.589 804.785 531.335 803.871 531.896C802.967 532.448 801.853 532.724 800.532 532.724C799.211 532.724 798.094 532.444 797.18 531.882C796.275 531.312 795.587 530.566 795.117 529.643C794.655 528.711 794.424 527.688 794.424 526.575ZM798.401 525.109V526.575C798.401 527.236 798.555 527.847 798.863 528.408C799.18 528.969 799.736 529.249 800.532 529.249C801.365 529.249 801.93 528.969 802.229 528.408C802.537 527.847 802.691 527.236 802.691 526.575V525.109C802.691 524.449 802.546 523.834 802.256 523.263C801.967 522.693 801.392 522.408 800.532 522.408C799.727 522.408 799.171 522.698 798.863 523.277C798.555 523.856 798.401 524.467 798.401 525.109ZM796.216 547.695L815.327 519.897H818.883L799.772 547.695H796.216Z" fill="black"/>
<path d="M32.9657 427.564V426.298L36.885 422.237C37.3035 421.796 37.6485 421.409 37.9199 421.078C38.1952 420.742 38.4006 420.423 38.5364 420.122C38.6721 419.82 38.74 419.5 38.74 419.16C38.74 418.776 38.6495 418.444 38.4685 418.165C38.2875 417.882 38.0406 417.665 37.7276 417.515C37.4147 417.36 37.0622 417.283 36.6701 417.283C36.2553 417.283 35.8934 417.368 35.5842 417.537C35.275 417.707 35.0375 417.946 34.8716 418.255C34.7057 418.565 34.6228 418.927 34.6228 419.341H32.9544C32.9544 418.636 33.1165 418.02 33.4408 417.492C33.765 416.964 34.2099 416.555 34.7755 416.265C35.341 415.971 35.9839 415.824 36.704 415.824C37.4317 415.824 38.0726 415.969 38.6269 416.259C39.1849 416.546 39.6204 416.938 39.9333 417.435C40.2462 417.929 40.4027 418.487 40.4027 419.109C40.4027 419.539 40.3216 419.96 40.1595 420.371C40.0012 420.782 39.724 421.24 39.3282 421.745C38.9323 422.246 38.3818 422.855 37.6767 423.572L35.3749 425.981V426.066H40.5893V427.564H32.9657ZM42.5556 427.564V426.298L46.4748 422.237C46.8933 421.796 47.2383 421.409 47.5098 421.078C47.785 420.742 47.9905 420.423 48.1262 420.122C48.262 419.82 48.3298 419.5 48.3298 419.16C48.3298 418.776 48.2393 418.444 48.0584 418.165C47.8774 417.882 47.6304 417.665 47.3175 417.515C47.0046 417.36 46.652 417.283 46.2599 417.283C45.8452 417.283 45.4832 417.368 45.1741 417.537C44.8649 417.707 44.6274 417.946 44.4615 418.255C44.2956 418.565 44.2126 418.927 44.2126 419.341H42.5442C42.5442 418.636 42.7064 418.02 43.0306 417.492C43.3549 416.964 43.7998 416.555 44.3653 416.265C44.9309 415.971 45.5737 415.824 46.2938 415.824C47.0215 415.824 47.6625 415.969 48.2167 416.259C48.7747 416.546 49.2102 416.938 49.5231 417.435C49.8361 417.929 49.9926 418.487 49.9926 419.109C49.9926 419.539 49.9115 419.96 49.7494 420.371C49.591 420.782 49.3139 421.24 48.918 421.745C48.5221 422.246 47.9716 422.855 47.2666 423.572L44.9648 425.981V426.066H50.1792V427.564H42.5556ZM54.368 425.981L54.2832 426.597C54.2266 427.05 54.1305 427.521 53.9948 428.011C53.8628 428.505 53.7252 428.963 53.5819 429.386C53.4424 429.808 53.3274 430.143 53.2369 430.392H52.0379C52.087 430.158 52.1548 429.842 52.2415 429.442C52.3283 429.046 52.4131 428.603 52.496 428.113C52.579 427.623 52.6412 427.123 52.6827 426.614L52.7392 425.981H54.368ZM56.313 425.302V423.888L61.3182 415.982H62.4323V418.063H61.7254L58.1454 423.73V423.821H65.0056V425.302H56.313ZM61.8045 427.564V424.872L61.8158 424.228V415.982H63.4729V427.564H61.8045Z" fill="#CFCFCF"/>
<path d="M792.712 392.527V391.261L796.632 387.2C797.05 386.759 797.395 386.372 797.667 386.04C797.942 385.705 798.147 385.386 798.283 385.085C798.419 384.783 798.487 384.463 798.487 384.123C798.487 383.739 798.396 383.407 798.215 383.128C798.034 382.845 797.787 382.628 797.474 382.477C797.161 382.323 796.809 382.246 796.417 382.246C796.002 382.246 795.64 382.33 795.331 382.5C795.022 382.67 794.784 382.909 794.618 383.218C794.452 383.528 794.37 383.889 794.37 384.304H792.701C792.701 383.599 792.863 382.983 793.188 382.455C793.512 381.927 793.957 381.518 794.522 381.228C795.088 380.934 795.731 380.786 796.451 380.786C797.178 380.786 797.819 380.932 798.374 381.222C798.932 381.509 799.367 381.901 799.68 382.398C799.993 382.892 800.149 383.45 800.149 384.072C800.149 384.502 800.068 384.923 799.906 385.334C799.748 385.744 799.471 386.203 799.075 386.708C798.679 387.209 798.129 387.818 797.424 388.535L795.122 390.944V391.029H800.336V392.527H792.712ZM806.346 392.686C805.829 392.678 805.32 392.584 804.819 392.403C804.321 392.222 803.869 391.92 803.462 391.498C803.055 391.076 802.728 390.508 802.483 389.796C802.242 389.083 802.121 388.193 802.121 387.126C802.121 386.116 802.221 385.219 802.421 384.434C802.625 383.65 802.917 382.988 803.298 382.449C803.679 381.906 804.138 381.493 804.678 381.211C805.217 380.928 805.822 380.786 806.493 380.786C807.183 380.786 807.796 380.922 808.331 381.194C808.867 381.465 809.3 381.84 809.632 382.319C809.967 382.798 810.18 383.343 810.271 383.954H808.546C808.429 383.471 808.197 383.077 807.85 382.772C807.504 382.466 807.051 382.313 806.493 382.313C805.645 382.313 804.983 382.683 804.508 383.422C804.037 384.161 803.799 385.188 803.795 386.504H803.88C804.08 386.176 804.325 385.897 804.615 385.667C804.91 385.433 805.238 385.254 805.6 385.13C805.965 385.002 806.35 384.938 806.753 384.938C807.424 384.938 808.031 385.102 808.574 385.43C809.121 385.754 809.556 386.203 809.881 386.776C810.205 387.349 810.367 388.005 810.367 388.744C810.367 389.483 810.199 390.152 809.864 390.752C809.532 391.351 809.064 391.826 808.461 392.177C807.858 392.524 807.153 392.693 806.346 392.686ZM806.34 391.215C806.785 391.215 807.183 391.106 807.534 390.887C807.884 390.669 808.161 390.374 808.365 390.005C808.569 389.635 808.67 389.223 808.67 388.766C808.67 388.322 808.571 387.916 808.371 387.55C808.175 387.185 807.903 386.894 807.556 386.68C807.213 386.465 806.821 386.357 806.38 386.357C806.044 386.357 805.733 386.421 805.447 386.549C805.164 386.678 804.915 386.855 804.7 387.081C804.485 387.307 804.316 387.567 804.191 387.862C804.071 388.152 804.01 388.459 804.01 388.783C804.01 389.217 804.11 389.619 804.31 389.988C804.514 390.358 804.791 390.655 805.141 390.882C805.496 391.104 805.895 391.215 806.34 391.215ZM813.944 390.944L813.859 391.56C813.802 392.013 813.706 392.484 813.57 392.974C813.439 393.468 813.301 393.926 813.158 394.348C813.018 394.771 812.903 395.106 812.813 395.355H811.614C811.663 395.121 811.731 394.805 811.817 394.405C811.904 394.009 811.989 393.566 812.072 393.076C812.155 392.586 812.217 392.086 812.258 391.577L812.315 390.944H813.944ZM819.756 392.686C819.239 392.678 818.73 392.584 818.229 392.403C817.731 392.222 817.279 391.92 816.871 391.498C816.464 391.076 816.138 390.508 815.893 389.796C815.652 389.083 815.531 388.193 815.531 387.126C815.531 386.116 815.631 385.219 815.831 384.434C816.034 383.65 816.327 382.988 816.707 382.449C817.088 381.906 817.548 381.493 818.087 381.211C818.626 380.928 819.232 380.786 819.903 380.786C820.593 380.786 821.205 380.922 821.741 381.194C822.276 381.465 822.71 381.84 823.042 382.319C823.377 382.798 823.59 383.343 823.681 383.954H821.956C821.839 383.471 821.607 383.077 821.26 382.772C820.913 382.466 820.461 382.313 819.903 382.313C819.054 382.313 818.393 382.683 817.918 383.422C817.446 384.161 817.209 385.188 817.205 386.504H817.29C817.49 386.176 817.735 385.897 818.025 385.667C818.319 385.433 818.647 385.254 819.009 385.13C819.375 385.002 819.759 384.938 820.163 384.938C820.834 384.938 821.441 385.102 821.984 385.43C822.531 385.754 822.966 386.203 823.29 386.776C823.615 387.349 823.777 388.005 823.777 388.744C823.777 389.483 823.609 390.152 823.273 390.752C822.942 391.351 822.474 391.826 821.871 392.177C821.268 392.524 820.563 392.693 819.756 392.686ZM819.75 391.215C820.195 391.215 820.593 391.106 820.943 390.887C821.294 390.669 821.571 390.374 821.775 390.005C821.978 389.635 822.08 389.223 822.08 388.766C822.08 388.322 821.98 387.916 821.78 387.55C821.584 387.185 821.313 386.894 820.966 386.68C820.623 386.465 820.231 386.357 819.79 386.357C819.454 386.357 819.143 386.421 818.856 386.549C818.574 386.678 818.325 386.855 818.11 387.081C817.895 387.307 817.725 387.567 817.601 387.862C817.48 388.152 817.42 388.459 817.42 388.783C817.42 389.217 817.52 389.619 817.72 389.988C817.923 390.358 818.2 390.655 818.551 390.882C818.905 391.104 819.305 391.215 819.75 391.215Z" fill="#CFCFCF"/>
<path opacity="0.4" d="M31.8746 819.87H824.15V750.194L505.249 750.991C505.249 750.991 36.4999 725.226 31.8746 724.72V724.713C31.8285 724.713 31.8288 724.715 31.8746 724.72V819.87Z" fill="url(#paint2_linear_2961_1726)"/>
<rect x="820.334" y="747.805" width="8.17935" height="8.17935" rx="4.08967" fill="#CACACA"/>
<path d="M31.8516 725.51L504.453 751.389H822.176" stroke="#CACACA" stroke-width="3.18519"/>
<path d="M697.928 807.973V827.369L690.694 820.107L687.518 823.256L700.222 835.934L712.9 823.256L709.778 820.107L702.516 827.369V807.973H697.928Z" fill="#CACACA"/>
<path d="M722.187 831.067V826.438L733.793 808.155H737.783V814.562H735.421L728.105 826.14V826.357H744.597V831.067H722.187ZM735.53 835.953V829.655L735.639 827.606V808.155H741.149V835.953H735.53ZM753.937 832.153L753.788 833.646C753.67 834.84 753.444 836.03 753.109 837.215C752.783 838.41 752.439 839.491 752.077 840.459C751.724 841.428 751.439 842.188 751.222 842.74H747.476C747.612 842.206 747.797 841.459 748.033 840.5C748.268 839.55 748.49 838.482 748.698 837.297C748.906 836.111 749.037 834.903 749.091 833.673L749.159 832.153H753.937ZM758.357 831.067V826.438L769.962 808.155H773.952V814.562H771.591L764.275 826.14V826.357H780.766V831.067H758.357ZM771.699 835.953V829.655L771.808 827.606V808.155H777.319V835.953H771.699ZM810.892 815.105V835.953H805.408V815.105H810.892ZM808.218 824.253V828.814C807.775 829.013 807.223 829.203 806.562 829.384C805.901 829.556 805.209 829.696 804.485 829.804C803.761 829.913 803.083 829.967 802.449 829.967C799.454 829.967 797.097 829.352 795.378 828.121C793.658 826.882 792.799 824.905 792.799 822.19V815.077H798.255V822.19C798.255 822.995 798.391 823.633 798.662 824.104C798.943 824.574 799.386 824.914 799.993 825.122C800.608 825.321 801.427 825.42 802.449 825.42C803.399 825.42 804.331 825.321 805.245 825.122C806.159 824.923 807.15 824.633 808.218 824.253ZM818.369 836.306C817.473 836.306 816.704 835.989 816.062 835.356C815.428 834.713 815.111 833.944 815.111 833.048C815.111 832.162 815.428 831.402 816.062 830.768C816.704 830.135 817.473 829.818 818.369 829.818C819.238 829.818 819.998 830.135 820.649 830.768C821.301 831.402 821.627 832.162 821.627 833.048C821.627 833.646 821.473 834.193 821.165 834.691C820.867 835.179 820.473 835.573 819.984 835.872C819.496 836.161 818.957 836.306 818.369 836.306Z" fill="black"/>
<path d="M32.9657 715.824V714.557L36.885 710.497C37.3035 710.056 37.6485 709.669 37.9199 709.337C38.1952 709.002 38.4006 708.683 38.5364 708.382C38.6721 708.08 38.74 707.759 38.74 707.42C38.74 707.036 38.6495 706.704 38.4685 706.425C38.2875 706.142 38.0406 705.925 37.7276 705.774C37.4147 705.62 37.0622 705.542 36.6701 705.542C36.2553 705.542 35.8934 705.627 35.5842 705.797C35.275 705.967 35.0375 706.206 34.8716 706.515C34.7057 706.824 34.6228 707.186 34.6228 707.601H32.9544C32.9544 706.896 33.1165 706.28 33.4408 705.752C33.765 705.224 34.2099 704.815 34.7755 704.525C35.341 704.23 35.9839 704.083 36.704 704.083C37.4317 704.083 38.0726 704.229 38.6269 704.519C39.1849 704.805 39.6204 705.198 39.9333 705.695C40.2462 706.189 40.4027 706.747 40.4027 707.369C40.4027 707.799 40.3216 708.219 40.1595 708.63C40.0012 709.041 39.724 709.499 39.3282 710.005C38.9323 710.506 38.3818 711.115 37.6767 711.831L35.3749 714.241V714.326H40.5893V715.824H32.9657ZM46.5879 716.017C45.6944 716.013 44.9309 715.777 44.2974 715.31C43.664 714.842 43.1795 714.161 42.844 713.268C42.5084 712.374 42.3406 711.298 42.3406 710.039C42.3406 708.783 42.5084 707.71 42.844 706.821C43.1833 705.931 43.6697 705.252 44.3031 704.785C44.9403 704.317 45.7019 704.083 46.5879 704.083C47.474 704.083 48.2337 704.319 48.8671 704.79C49.5005 705.258 49.985 705.936 50.3206 706.826C50.6599 707.712 50.8296 708.783 50.8296 710.039C50.8296 711.302 50.6618 712.38 50.3262 713.274C49.9907 714.163 49.5062 714.844 48.8728 715.315C48.2393 715.783 47.4777 716.017 46.5879 716.017ZM46.5879 714.506C47.3722 714.506 47.9848 714.124 48.426 713.358C48.8709 712.593 49.0933 711.486 49.0933 710.039C49.0933 709.077 48.9915 708.265 48.7879 707.601C48.5881 706.934 48.2997 706.429 47.9226 706.085C47.5494 705.739 47.1045 705.565 46.5879 705.565C45.8075 705.565 45.1948 705.95 44.7499 706.719C44.305 707.488 44.0807 708.595 44.0769 710.039C44.0769 711.004 44.1768 711.82 44.3766 712.487C44.5802 713.151 44.8687 713.654 45.2419 713.997C45.6152 714.337 46.0639 714.506 46.5879 714.506ZM54.4613 714.241L54.3765 714.857C54.3199 715.31 54.2238 715.781 54.0881 716.271C53.9561 716.765 53.8185 717.223 53.6752 717.645C53.5357 718.068 53.4207 718.403 53.3302 718.652H52.1313C52.1803 718.418 52.2481 718.102 52.3349 717.702C52.4216 717.306 52.5064 716.863 52.5894 716.373C52.6723 715.883 52.7345 715.383 52.776 714.874L52.8325 714.241H54.4613ZM59.6441 704.242V715.824H57.8909V705.995H57.8231L55.0519 707.805V706.131L57.9418 704.242H59.6441Z" fill="#CFCFCF"/>
<path d="M799.45 727.334V738.916H797.696V729.087H797.628L794.857 730.896V729.222L797.747 727.334H799.45ZM806.229 739.074C805.52 739.074 804.883 738.939 804.317 738.667C803.755 738.392 803.307 738.015 802.971 737.536C802.635 737.057 802.456 736.511 802.434 735.896H804.13C804.172 736.394 804.392 736.803 804.792 737.123C805.192 737.444 805.671 737.604 806.229 737.604C806.674 737.604 807.068 737.502 807.411 737.299C807.757 737.091 808.029 736.807 808.225 736.445C808.425 736.083 808.525 735.67 808.525 735.206C808.525 734.735 808.423 734.314 808.219 733.945C808.016 733.575 807.735 733.285 807.377 733.074C807.022 732.863 806.615 732.755 806.155 732.752C805.804 732.752 805.452 732.812 805.098 732.932C804.743 733.053 804.457 733.211 804.238 733.408L802.637 733.17L803.288 727.334H809.656V728.832H804.741L804.374 732.073H804.441C804.668 731.854 804.967 731.671 805.341 731.524C805.718 731.377 806.121 731.304 806.551 731.304C807.256 731.304 807.884 731.471 808.434 731.807C808.989 732.143 809.424 732.601 809.741 733.181C810.061 733.758 810.22 734.422 810.216 735.172C810.22 735.922 810.05 736.592 809.707 737.18C809.367 737.768 808.896 738.232 808.293 738.571C807.693 738.907 807.005 739.074 806.229 739.074ZM813.907 737.332L813.822 737.949C813.766 738.401 813.669 738.873 813.534 739.363C813.402 739.857 813.264 740.315 813.121 740.737C812.981 741.159 812.866 741.495 812.776 741.744H811.577C811.626 741.51 811.694 741.193 811.78 740.794C811.867 740.398 811.952 739.955 812.035 739.465C812.118 738.974 812.18 738.475 812.222 737.966L812.278 737.332H813.907ZM816.19 738.916L821.246 728.917V728.832H815.398V727.334H823.056V728.883L818.017 738.916H816.19Z" fill="#CFCFCF"/>
<defs>
<linearGradient id="paint0_linear_2961_1726" x1="427.989" y1="169.297" x2="427.989" y2="242.556" gradientUnits="userSpaceOnUse">
<stop stop-color="#D9D9D9"/>
<stop offset="1" stop-color="#D9D9D9" stop-opacity="0"/>
</linearGradient>
<linearGradient id="paint1_linear_2961_1726" x1="427.628" y1="458.352" x2="427.628" y2="531.611" gradientUnits="userSpaceOnUse">
<stop stop-color="#D9D9D9"/>
<stop offset="1" stop-color="#D9D9D9" stop-opacity="0"/>
</linearGradient>
<linearGradient id="paint2_linear_2961_1726" x1="428.013" y1="746.611" x2="428.013" y2="819.87" gradientUnits="userSpaceOnUse">
<stop stop-color="#D9D9D9"/>
<stop offset="1" stop-color="#D9D9D9" stop-opacity="0"/>
</linearGradient>
</defs>
</svg>
