<svg width="860" height="451" viewBox="0 0 860 451" fill="none" xmlns="http://www.w3.org/2000/svg">
<rect width="860" height="449.907" transform="translate(0 0.878906)" fill="white"/>
<path d="M729.077 39.8984L726.947 52.53H729.319L727.958 60.6021H723.567L724.217 56.7559H712.946L712.297 60.6021H707.906L709.268 52.53H710.951C711.721 51.4856 712.451 50.1077 713.273 47.2114L715.363 39.8984H729.08H729.077ZM723.501 44.1243H718.684L717.756 47.3771C716.947 50.202 716.279 51.4833 715.604 52.53H722.084L723.501 44.1243Z" fill="#EAECEF"/>
<path d="M732.948 39.8984H743.39C747.069 39.8984 748.722 41.7733 748.264 44.4809C747.971 46.2131 746.668 47.3288 745.445 47.828C746.781 48.3501 747.838 49.6798 747.453 51.9595C746.965 54.8557 744.604 56.7559 740.688 56.7559H730.104L732.948 39.8984ZM736.012 50.0133L735.514 52.9579H740.308C741.589 52.9579 742.381 52.484 742.549 51.4856C742.722 50.4642 742.086 50.0133 740.803 50.0133H736.01H736.012ZM737.076 43.6987L736.652 46.2154H741.374C742.372 46.2154 743.072 45.8588 743.224 44.957C743.376 44.0553 742.796 43.6987 741.798 43.6987H737.076Z" fill="#EAECEF"/>
<path d="M751.28 39.8984H756.145L754.431 50.0594L763.571 39.8984H768.436L765.594 56.7559H760.729L762.436 46.6409L753.302 56.7559H748.438L751.28 39.8984Z" fill="#EAECEF"/>
<path d="M775.67 48.0189L769.944 39.8984H775.449L780.219 46.7836L781.383 39.8984H786.01L784.849 46.7836L791.944 39.8984H797.332L789.092 47.805L794.844 56.7559H788.982L784.382 49.5625L783.168 56.7559H778.54L779.754 49.5625L772.726 56.7559H767.078L775.672 48.0189H775.67Z" fill="#EAECEF"/>
<path d="M804.437 39.8984H798.789L804.412 47.805L796.066 56.7559H801.714L810.06 47.805L804.437 39.8984ZM813.365 39.8984H807.717L813.34 47.805L804.995 56.7559H810.643L818.988 47.805L813.365 39.8984ZM822.524 39.8984H816.876L822.499 47.805L814.153 56.7559H819.801L828.147 47.805L822.524 39.8984Z" fill="#EAECEF"/>
<path d="M46.2765 60.7305L39.5781 51.8434H38.0715V60.7305H33.6636V39.882H38.0715V48.2092H38.9571L45.8795 39.882H51.3665L43.2327 49.5529L51.7431 60.7305H46.2765ZM52.7317 66.5941V45.0941H57.0073V47.7205H57.2007C57.3907 47.2998 57.6656 46.8722 58.0253 46.4379C58.3917 45.9967 58.8668 45.6302 59.4505 45.3384C60.0409 45.0398 60.7738 44.8905 61.6493 44.8905C62.7895 44.8905 63.8414 45.1891 64.8051 45.7863C65.7688 46.3768 66.5391 47.2692 67.1159 48.4637C67.6928 49.6513 67.9812 51.141 67.9812 52.9326C67.9812 54.6768 67.6996 56.1495 67.1363 57.3507C66.5798 58.5452 65.8197 59.4512 64.856 60.0688C63.8991 60.6796 62.8268 60.985 61.6391 60.985C60.7976 60.985 60.0816 60.8458 59.4912 60.5676C58.9075 60.2893 58.4291 59.9398 58.0558 59.5191C57.6825 59.0915 57.3975 58.6606 57.2007 58.2262H57.0684V66.5941H52.7317ZM56.9767 52.9123C56.9767 53.8421 57.1057 54.6531 57.3636 55.3453C57.6215 56.0375 57.9947 56.5771 58.4834 56.9639C58.972 57.3439 59.5658 57.534 60.2648 57.534C60.9707 57.534 61.5679 57.3406 62.0565 56.9537C62.5452 56.5601 62.915 56.0172 63.1661 55.3249C63.424 54.6259 63.553 53.8217 63.553 52.9123C63.553 52.0097 63.4274 51.2156 63.1763 50.5302C62.9252 49.8447 62.5553 49.3086 62.0667 48.9218C61.5781 48.5349 60.9774 48.3415 60.2648 48.3415C59.559 48.3415 58.9618 48.5281 58.4732 48.9014C57.9913 49.2747 57.6215 49.804 57.3636 50.4895C57.1057 51.1749 56.9767 51.9825 56.9767 52.9123ZM74.1845 61.0257C73.1868 61.0257 72.2978 60.8526 71.5173 60.5065C70.7369 60.1536 70.1193 59.6344 69.6646 58.949C69.2167 58.2567 68.9927 57.3948 68.9927 56.3633C68.9927 55.4946 69.1522 54.765 69.4712 54.1746C69.7901 53.5842 70.2245 53.1091 70.7742 52.7494C71.3239 52.3897 71.9483 52.1183 72.6473 51.935C73.3531 51.7518 74.0928 51.6228 74.8665 51.5482C75.7759 51.4532 76.5089 51.3649 77.0654 51.2835C77.6219 51.1953 78.0257 51.0663 78.2768 50.8967C78.5279 50.727 78.6535 50.4759 78.6535 50.1433V50.0823C78.6535 49.4375 78.4499 48.9387 78.0427 48.5858C77.6423 48.2329 77.0722 48.0565 76.3324 48.0565C75.552 48.0565 74.931 48.2295 74.4695 48.5756C74.008 48.915 73.7026 49.3425 73.5533 49.8583L69.5424 49.5326C69.746 48.5824 70.1464 47.7612 70.7437 47.069C71.3409 46.37 72.1112 45.8338 73.0545 45.4606C74.0046 45.0805 75.1041 44.8905 76.3528 44.8905C77.2215 44.8905 78.0528 44.9923 78.8469 45.1959C79.6477 45.3995 80.3569 45.7151 80.9745 46.1426C81.5988 46.5702 82.0909 47.1199 82.4506 47.7918C82.8103 48.4569 82.9901 49.2543 82.9901 50.1841V60.7305H78.8774V58.5621H78.7553C78.5042 59.0508 78.1682 59.4817 77.7474 59.855C77.3267 60.2215 76.8211 60.5099 76.2306 60.7203C75.6402 60.9239 74.9581 61.0257 74.1845 61.0257ZM75.4264 58.0328C76.0644 58.0328 76.6277 57.9072 77.1163 57.6561C77.6049 57.3982 77.9884 57.0521 78.2666 56.6178C78.5449 56.1834 78.684 55.6914 78.684 55.1417V53.4824C78.5483 53.5706 78.3616 53.652 78.1241 53.7267C77.8934 53.7945 77.6321 53.859 77.3402 53.9201C77.0484 53.9744 76.7566 54.0253 76.4648 54.0728C76.1729 54.1135 75.9083 54.1508 75.6707 54.1848C75.1617 54.2594 74.7172 54.3782 74.3372 54.5411C73.9571 54.704 73.6619 54.9245 73.4515 55.2028C73.2411 55.4742 73.1359 55.8136 73.1359 56.2208C73.1359 56.8112 73.3497 57.2625 73.7773 57.5747C74.2116 57.8801 74.7613 58.0328 75.4264 58.0328ZM89.3511 55.0094L94.9806 45.0941H99.2562V60.7305H95.1232V50.7847L89.514 60.7305H85.2079V45.0941H89.3511V55.0094ZM94.2375 39.6377H97.2609C97.2541 40.8728 96.7961 41.8671 95.8866 42.6204C94.984 43.3737 93.7624 43.7504 92.2219 43.7504C90.6745 43.7504 89.4495 43.3737 88.5469 42.6204C87.6443 41.8671 87.193 40.8728 87.193 39.6377H90.1961C90.1893 40.1059 90.3386 40.5267 90.644 40.9C90.9562 41.2732 91.4821 41.4599 92.2219 41.4599C92.9413 41.4599 93.457 41.2766 93.7692 40.9102C94.0814 40.5437 94.2375 40.1195 94.2375 39.6377ZM112.468 51.1817V54.592H104.304V51.1817H112.468ZM105.729 45.0941V60.7305H101.586V45.0941H105.729ZM115.186 45.0941V60.7305H111.074V45.0941H115.186ZM124.53 61.0359C122.922 61.0359 121.537 60.7101 120.377 60.0586C119.223 59.4003 118.334 58.4705 117.71 57.2693C117.085 56.0613 116.773 54.6327 116.773 52.9835C116.773 51.3751 117.085 49.9635 117.71 48.7487C118.334 47.5339 119.213 46.5872 120.346 45.9085C121.486 45.2298 122.823 44.8905 124.357 44.8905C125.389 44.8905 126.349 45.0568 127.238 45.3893C128.134 45.7151 128.914 46.2071 129.579 46.8654C130.251 47.5237 130.774 48.3517 131.147 49.3493C131.52 50.3402 131.707 51.5007 131.707 52.8308V54.0219H118.504V51.3344H127.625C127.625 50.71 127.489 50.1569 127.218 49.6751C126.946 49.1932 126.569 48.8166 126.088 48.5451C125.613 48.2668 125.059 48.1277 124.428 48.1277C123.77 48.1277 123.186 48.2804 122.677 48.5858C122.175 48.8844 121.782 49.2882 121.496 49.7972C121.211 50.2994 121.066 50.8593 121.059 51.4769V54.0321C121.059 54.8058 121.201 55.4742 121.486 56.0375C121.778 56.6008 122.189 57.0352 122.718 57.3406C123.247 57.646 123.875 57.7987 124.601 57.7987C125.083 57.7987 125.524 57.7308 125.925 57.5951C126.325 57.4593 126.668 57.2557 126.953 56.9843C127.238 56.7128 127.455 56.3802 127.604 55.9866L131.615 56.2513C131.412 57.215 130.994 58.0565 130.363 58.7759C129.739 59.4885 128.931 60.045 127.94 60.4454C126.956 60.8391 125.82 61.0359 124.53 61.0359ZM138.878 60.7305V45.0941H152.55V60.7305H148.407V48.5044H142.971V60.7305H138.878ZM153.948 60.7305L153.928 57.2897H154.447C154.814 57.2897 155.129 57.2014 155.394 57.025C155.665 56.8417 155.889 56.5465 156.066 56.1393C156.242 55.7321 156.381 55.1926 156.483 54.5207C156.585 53.8421 156.653 53.0073 156.687 52.0165L156.941 45.0941H168.831V60.7305H164.698V48.5044H160.84L160.596 53.2788C160.535 54.5886 160.375 55.7152 160.117 56.6585C159.866 57.6018 159.517 58.3755 159.069 58.9795C158.621 59.5767 158.081 60.0179 157.45 60.3029C156.819 60.5879 156.086 60.7305 155.251 60.7305H153.948ZM178.112 61.0359C176.53 61.0359 175.163 60.6999 174.009 60.0281C172.862 59.3494 171.976 58.4061 171.352 57.198C170.728 55.9832 170.416 54.575 170.416 52.9734C170.416 51.3582 170.728 49.9465 171.352 48.7385C171.976 47.5237 172.862 46.5804 174.009 45.9085C175.163 45.2298 176.53 44.8905 178.112 44.8905C179.693 44.8905 181.057 45.2298 182.204 45.9085C183.358 46.5804 184.247 47.5237 184.871 48.7385C185.495 49.9465 185.808 51.3582 185.808 52.9734C185.808 54.575 185.495 55.9832 184.871 57.198C184.247 58.4061 183.358 59.3494 182.204 60.0281C181.057 60.6999 179.693 61.0359 178.112 61.0359ZM178.132 57.6765C178.851 57.6765 179.452 57.4729 179.934 57.0657C180.416 56.6517 180.779 56.0884 181.023 55.3758C181.274 54.6632 181.4 53.8522 181.4 52.9428C181.4 52.0334 181.274 51.2224 181.023 50.5098C180.779 49.7972 180.416 49.2339 179.934 48.82C179.452 48.406 178.851 48.199 178.132 48.199C177.406 48.199 176.795 48.406 176.299 48.82C175.811 49.2339 175.441 49.7972 175.19 50.5098C174.946 51.2224 174.823 52.0334 174.823 52.9428C174.823 53.8522 174.946 54.6632 175.19 55.3758C175.441 56.0884 175.811 56.6517 176.299 57.0657C176.795 57.4729 177.406 57.6765 178.132 57.6765ZM190.545 45.0941L193.416 50.5607L196.358 45.0941H200.806L196.276 52.9123L200.928 60.7305H196.5L193.416 55.3249L190.382 60.7305H185.903L190.545 52.9123L186.066 45.0941H190.545ZM208.74 61.0359C207.159 61.0359 205.791 60.6999 204.638 60.0281C203.491 59.3494 202.605 58.4061 201.981 57.198C201.356 55.9832 201.044 54.575 201.044 52.9734C201.044 51.3582 201.356 49.9465 201.981 48.7385C202.605 47.5237 203.491 46.5804 204.638 45.9085C205.791 45.2298 207.159 44.8905 208.74 44.8905C210.321 44.8905 211.685 45.2298 212.832 45.9085C213.986 46.5804 214.875 47.5237 215.5 48.7385C216.124 49.9465 216.436 51.3582 216.436 52.9734C216.436 54.575 216.124 55.9832 215.5 57.198C214.875 58.4061 213.986 59.3494 212.832 60.0281C211.685 60.6999 210.321 61.0359 208.74 61.0359ZM208.76 57.6765C209.48 57.6765 210.08 57.4729 210.562 57.0657C211.044 56.6517 211.407 56.0884 211.652 55.3758C211.903 54.6632 212.028 53.8522 212.028 52.9428C212.028 52.0334 211.903 51.2224 211.652 50.5098C211.407 49.7972 211.044 49.2339 210.562 48.82C210.08 48.406 209.48 48.199 208.76 48.199C208.034 48.199 207.423 48.406 206.928 48.82C206.439 49.2339 206.07 49.7972 205.818 50.5098C205.574 51.2224 205.452 52.0334 205.452 52.9428C205.452 53.8522 205.574 54.6632 205.818 55.3758C206.07 56.0884 206.439 56.6517 206.928 57.0657C207.423 57.4729 208.034 57.6765 208.76 57.6765ZM222.252 55.0094L227.882 45.0941H232.158V60.7305H228.024V50.7847L222.415 60.7305H218.109V45.0941H222.252V55.0094ZM227.139 39.6377H230.162C230.155 40.8728 229.697 41.8671 228.788 42.6204C227.885 43.3737 226.664 43.7504 225.123 43.7504C223.576 43.7504 222.351 43.3737 221.448 42.6204C220.546 41.8671 220.094 40.8728 220.094 39.6377H223.097C223.091 40.1059 223.24 40.5267 223.545 40.9C223.858 41.2732 224.383 41.4599 225.123 41.4599C225.843 41.4599 226.358 41.2766 226.671 40.9102C226.983 40.5437 227.139 40.1195 227.139 39.6377ZM239.975 66.5941V45.0941H244.251V47.7205H244.444C244.634 47.2998 244.909 46.8722 245.269 46.4379C245.635 45.9967 246.111 45.6302 246.694 45.3384C247.285 45.0398 248.018 44.8905 248.893 44.8905C250.033 44.8905 251.085 45.1891 252.049 45.7863C253.013 46.3768 253.783 47.2692 254.36 48.4637C254.937 49.6513 255.225 51.141 255.225 52.9326C255.225 54.6768 254.943 56.1495 254.38 57.3507C253.824 58.5452 253.063 59.4512 252.1 60.0688C251.143 60.6796 250.071 60.985 248.883 60.985C248.041 60.985 247.325 60.8458 246.735 60.5676C246.151 60.2893 245.673 59.9398 245.3 59.5191C244.926 59.0915 244.641 58.6606 244.444 58.2262H244.312V66.5941H239.975ZM244.22 52.9123C244.22 53.8421 244.349 54.6531 244.607 55.3453C244.865 56.0375 245.238 56.5771 245.727 56.9639C246.216 57.3439 246.81 57.534 247.509 57.534C248.214 57.534 248.812 57.3406 249.3 56.9537C249.789 56.5601 250.159 56.0172 250.41 55.3249C250.668 54.6259 250.797 53.8217 250.797 52.9123C250.797 52.0097 250.671 51.2156 250.42 50.5302C250.169 49.8447 249.799 49.3086 249.31 48.9218C248.822 48.5349 248.221 48.3415 247.509 48.3415C246.803 48.3415 246.206 48.5281 245.717 48.9014C245.235 49.2747 244.865 49.804 244.607 50.4895C244.349 51.1749 244.22 51.9825 244.22 52.9123ZM264.095 61.0359C262.487 61.0359 261.102 60.7101 259.942 60.0586C258.788 59.4003 257.899 58.4705 257.275 57.2693C256.65 56.0613 256.338 54.6327 256.338 52.9835C256.338 51.3751 256.65 49.9635 257.275 48.7487C257.899 47.5339 258.778 46.5872 259.911 45.9085C261.052 45.2298 262.389 44.8905 263.922 44.8905C264.954 44.8905 265.914 45.0568 266.803 45.3893C267.699 45.7151 268.479 46.2071 269.145 46.8654C269.816 47.5237 270.339 48.3517 270.712 49.3493C271.086 50.3402 271.272 51.5007 271.272 52.8308V54.0219H258.069V51.3344H267.19C267.19 50.71 267.054 50.1569 266.783 49.6751C266.511 49.1932 266.135 48.8166 265.653 48.5451C265.178 48.2668 264.625 48.1277 263.994 48.1277C263.335 48.1277 262.752 48.2804 262.243 48.5858C261.74 48.8844 261.347 49.2882 261.062 49.7972C260.777 50.2994 260.631 50.8593 260.624 51.4769V54.0321C260.624 54.8058 260.766 55.4742 261.052 56.0375C261.343 56.6008 261.754 57.0352 262.283 57.3406C262.813 57.646 263.44 57.7987 264.167 57.7987C264.648 57.7987 265.09 57.7308 265.49 57.5951C265.89 57.4593 266.233 57.2557 266.518 56.9843C266.803 56.7128 267.02 56.3802 267.17 55.9866L271.181 56.2513C270.977 57.215 270.56 58.0565 269.928 58.7759C269.304 59.4885 268.496 60.045 267.506 60.4454C266.522 60.8391 265.385 61.0359 264.095 61.0359ZM277.099 55.0094L282.728 45.0941H287.004V60.7305H282.871V50.7847L277.262 60.7305H272.956V45.0941H277.099V55.0094ZM281.985 39.6377H285.009C285.002 40.8728 284.544 41.8671 283.634 42.6204C282.732 43.3737 281.51 43.7504 279.97 43.7504C278.422 43.7504 277.197 43.3737 276.295 42.6204C275.392 41.8671 274.941 40.8728 274.941 39.6377H277.944C277.937 40.1059 278.086 40.5267 278.392 40.9C278.704 41.2732 279.23 41.4599 279.97 41.4599C280.689 41.4599 281.205 41.2766 281.517 40.9102C281.829 40.5437 281.985 40.1195 281.985 39.6377ZM287.763 48.5044V45.0941H301.934V48.5044H296.895V60.7305H292.762V48.5044H287.763ZM307.559 55.0094L313.189 45.0941H317.464V60.7305H313.331V50.7847L307.722 60.7305H303.416V45.0941H307.559V55.0094ZM330.677 51.1817V54.592H322.512V51.1817H330.677ZM323.937 45.0941V60.7305H319.794V45.0941H323.937ZM333.395 45.0941V60.7305H329.282V45.0941H333.395ZM346.322 45.0941V48.5044H339.827V60.7305H335.612V45.0941H346.322ZM353.389 60.7305V39.882H357.797V48.484H366.745V39.882H371.143V60.7305H366.745V52.1183H357.797V60.7305H353.389ZM373.63 60.7305V39.882H387.465V43.5162H378.038V47.5882H381.428C383.077 47.5882 384.499 47.8563 385.693 48.3924C386.895 48.9218 387.821 49.6717 388.472 50.6422C389.124 51.6126 389.45 52.7562 389.45 54.0728C389.45 55.3826 389.124 56.5397 388.472 57.5442C387.821 58.5418 386.895 59.3222 385.693 59.8855C384.499 60.4488 383.077 60.7305 381.428 60.7305H373.63ZM378.038 57.1879H381.428C382.215 57.1879 382.88 57.0453 383.423 56.7603C383.966 56.4685 384.377 56.085 384.655 55.61C384.94 55.1281 385.082 54.6022 385.082 54.0321C385.082 53.2041 384.767 52.5051 384.136 51.935C383.511 51.3582 382.609 51.0697 381.428 51.0697H378.038V57.1879ZM403.769 60.7305L397.07 51.8434H395.564V60.7305H391.156V39.882H395.564V48.2092H396.45L403.372 39.882H408.859L400.725 49.5529L409.236 60.7305H403.769ZM410.305 39.882H414.703V52.9937H414.876L423.886 39.882H427.744V60.7305H423.336V47.6085H423.183L414.123 60.7305H410.305V39.882Z" fill="black"/>
<path d="M206.897 366.768H49.0691V335.202L124.826 266.619C132.67 259.349 138.505 252.845 142.331 247.106C146.348 241.175 148.357 234.575 148.357 227.305C148.357 220.036 146.061 214.01 141.47 209.227C137.07 204.444 130.661 202.053 122.244 202.053C114.018 202.053 107.609 204.731 103.017 210.088C98.4261 215.253 96.1304 221.949 96.1304 230.175V241.079H49.643V228.74C49.643 219.175 51.1735 210.184 54.2344 201.766C57.4866 193.349 62.1736 186.079 68.2954 179.957C74.6085 173.644 82.2607 168.67 91.2521 165.035C100.243 161.401 110.574 159.583 122.244 159.583C134.105 159.583 144.626 161.209 153.809 164.461C162.992 167.522 170.74 172.018 177.053 177.948C183.366 183.688 188.149 190.67 191.401 198.897C194.844 206.931 196.566 215.827 196.566 225.584C196.566 233.427 195.418 240.601 193.123 247.106C191.018 253.61 188.053 259.732 184.227 265.471C180.401 271.21 175.809 276.758 170.453 282.115C165.096 287.471 159.261 292.923 152.948 298.471L123.678 325.159H206.897V366.768ZM305.345 366.768H257.71V215.54L208.066 243.375V198.897L269.762 162.166H305.345V366.768ZM381.721 269.201C373.877 269.201 366.512 267.862 359.625 265.184C352.738 262.314 346.807 258.393 341.833 253.419C336.86 248.445 332.938 242.706 330.068 236.201C327.199 229.505 325.764 222.236 325.764 214.392C325.764 206.74 327.199 199.566 330.068 192.87C332.938 186.175 336.86 180.34 341.833 175.366C346.807 170.392 352.738 166.566 359.625 163.888C366.512 161.018 373.877 159.583 381.721 159.583C389.564 159.583 396.834 161.018 403.53 163.888C410.417 166.566 416.347 170.392 421.321 175.366C426.295 180.34 430.217 186.175 433.086 192.87C435.956 199.566 437.391 206.74 437.391 214.392C437.391 222.236 435.956 229.505 433.086 236.201C430.217 242.706 426.295 248.445 421.321 253.419C416.347 258.393 410.417 262.314 403.53 265.184C396.834 267.862 389.564 269.201 381.721 269.201ZM509.992 163.027H550.74L401.234 366.768H360.773L509.992 163.027ZM381.721 235.914C387.843 235.914 392.817 233.906 396.643 229.888C400.469 225.679 402.382 220.514 402.382 214.392C402.382 208.271 400.469 203.201 396.643 199.183C392.817 194.975 387.843 192.87 381.721 192.87C375.599 192.87 370.529 194.975 366.512 199.183C362.686 203.201 360.773 208.271 360.773 214.392C360.773 220.514 362.686 225.679 366.512 229.888C370.529 233.906 375.599 235.914 381.721 235.914ZM529.792 370.785C521.948 370.785 514.583 369.446 507.696 366.768C501 363.898 495.07 359.976 489.904 355.002C484.93 350.028 481.009 344.289 478.139 337.785C475.269 331.089 473.835 323.819 473.835 315.976C473.835 308.324 475.269 301.15 478.139 294.454C481.009 287.758 484.93 281.923 489.904 276.949C495.07 271.975 501 268.149 507.696 265.471C514.583 262.601 521.948 261.167 529.792 261.167C537.635 261.167 544.905 262.601 551.601 265.471C558.488 268.149 564.418 271.975 569.392 276.949C574.366 281.923 578.288 287.758 581.157 294.454C584.027 301.15 585.462 308.324 585.462 315.976C585.462 323.819 584.027 331.089 581.157 337.785C578.288 344.289 574.366 350.028 569.392 355.002C564.418 359.976 558.488 363.898 551.601 366.768C544.905 369.446 537.635 370.785 529.792 370.785ZM529.792 337.498C535.913 337.498 540.887 335.489 544.714 331.472C548.54 327.263 550.453 322.098 550.453 315.976C550.453 309.854 548.54 304.784 544.714 300.767C540.887 296.558 535.913 294.454 529.792 294.454C523.67 294.454 518.6 296.558 514.583 300.767C510.757 304.784 508.844 309.854 508.844 315.976C508.844 322.098 510.757 327.263 514.583 331.472C518.6 335.489 523.67 337.498 529.792 337.498Z" fill="#FF7474"/>
</svg>
