<svg width="860" height="616" viewBox="0 0 860 616" fill="none" xmlns="http://www.w3.org/2000/svg">
<rect width="860" height="614.741" transform="translate(0 0.878906)" fill="white"/>
<path d="M729.077 39.8984L726.947 52.53H729.319L727.958 60.6021H723.567L724.217 56.7559H712.946L712.297 60.6021H707.906L709.268 52.53H710.951C711.721 51.4856 712.451 50.1077 713.273 47.2114L715.363 39.8984H729.08H729.077ZM723.501 44.1243H718.684L717.756 47.3771C716.947 50.202 716.279 51.4833 715.604 52.53H722.084L723.501 44.1243Z" fill="#EAECEF"/>
<path d="M732.948 39.8984H743.39C747.069 39.8984 748.722 41.7733 748.264 44.4809C747.971 46.2131 746.668 47.3288 745.445 47.828C746.781 48.3501 747.838 49.6798 747.453 51.9595C746.965 54.8557 744.604 56.7559 740.688 56.7559H730.104L732.948 39.8984ZM736.012 50.0133L735.514 52.9579H740.308C741.589 52.9579 742.381 52.484 742.549 51.4856C742.722 50.4642 742.086 50.0133 740.803 50.0133H736.01H736.012ZM737.076 43.6987L736.652 46.2154H741.374C742.372 46.2154 743.072 45.8588 743.224 44.957C743.376 44.0553 742.796 43.6987 741.798 43.6987H737.076Z" fill="#EAECEF"/>
<path d="M751.28 39.8984H756.145L754.431 50.0594L763.571 39.8984H768.436L765.594 56.7559H760.729L762.436 46.6409L753.302 56.7559H748.438L751.28 39.8984Z" fill="#EAECEF"/>
<path d="M775.67 48.0189L769.944 39.8984H775.449L780.219 46.7836L781.383 39.8984H786.01L784.849 46.7836L791.944 39.8984H797.332L789.092 47.805L794.844 56.7559H788.982L784.382 49.5625L783.168 56.7559H778.54L779.754 49.5625L772.726 56.7559H767.078L775.672 48.0189H775.67Z" fill="#EAECEF"/>
<path d="M804.437 39.8984H798.789L804.412 47.805L796.066 56.7559H801.714L810.06 47.805L804.437 39.8984ZM813.365 39.8984H807.717L813.34 47.805L804.995 56.7559H810.643L818.988 47.805L813.365 39.8984ZM822.524 39.8984H816.876L822.499 47.805L814.153 56.7559H819.801L828.147 47.805L822.524 39.8984Z" fill="#EAECEF"/>
<path d="M51.3868 39.882V60.7305H47.0298V43.4653H38.6009V60.7305H34.2438V39.882H51.3868ZM54.3554 66.5941V45.0941H58.631V47.7205H58.8244C59.0144 47.2998 59.2893 46.8722 59.649 46.4379C60.0154 45.9967 60.4905 45.6302 61.0742 45.3384C61.6646 45.0398 62.3975 44.8905 63.273 44.8905C64.4132 44.8905 65.4651 45.1891 66.4288 45.7863C67.3925 46.3768 68.1628 47.2692 68.7396 48.4637C69.3165 49.6513 69.6049 51.141 69.6049 52.9326C69.6049 54.6768 69.3233 56.1495 68.76 57.3507C68.2035 58.5452 67.4434 59.4512 66.4797 60.0688C65.5228 60.6796 64.4505 60.985 63.2628 60.985C62.4213 60.985 61.7053 60.8458 61.1149 60.5676C60.5312 60.2893 60.0528 59.9398 59.6795 59.5191C59.3062 59.0915 59.0212 58.6606 58.8244 58.2262H58.6921V66.5941H54.3554ZM58.6004 52.9123C58.6004 53.8421 58.7294 54.6531 58.9873 55.3453C59.2452 56.0375 59.6184 56.5771 60.1071 56.9639C60.5957 57.3439 61.1895 57.534 61.8885 57.534C62.5944 57.534 63.1916 57.3406 63.6802 56.9537C64.1689 56.5601 64.5387 56.0172 64.7898 55.3249C65.0477 54.6259 65.1767 53.8217 65.1767 52.9123C65.1767 52.0097 65.0511 51.2156 64.8 50.5302C64.5489 49.8447 64.179 49.3086 63.6904 48.9218C63.2018 48.5349 62.6011 48.3415 61.8885 48.3415C61.1827 48.3415 60.5855 48.5281 60.0969 48.9014C59.615 49.2747 59.2452 49.804 58.9873 50.4895C58.7294 51.1749 58.6004 51.9825 58.6004 52.9123ZM78.4142 61.0359C76.8329 61.0359 75.4654 60.6999 74.3117 60.0281C73.1648 59.3494 72.2791 58.4061 71.6548 57.198C71.0304 55.9832 70.7182 54.575 70.7182 52.9734C70.7182 51.3582 71.0304 49.9465 71.6548 48.7385C72.2791 47.5237 73.1648 46.5804 74.3117 45.9085C75.4654 45.2298 76.8329 44.8905 78.4142 44.8905C79.9955 44.8905 81.3596 45.2298 82.5066 45.9085C83.6603 46.5804 84.5493 47.5237 85.1737 48.7385C85.7981 49.9465 86.1103 51.3582 86.1103 52.9734C86.1103 54.575 85.7981 55.9832 85.1737 57.198C84.5493 58.4061 83.6603 59.3494 82.5066 60.0281C81.3596 60.6999 79.9955 61.0359 78.4142 61.0359ZM78.4346 57.6765C79.154 57.6765 79.7546 57.4729 80.2364 57.0657C80.7183 56.6517 81.0814 56.0884 81.3257 55.3758C81.5768 54.6632 81.7023 53.8522 81.7023 52.9428C81.7023 52.0334 81.5768 51.2224 81.3257 50.5098C81.0814 49.7972 80.7183 49.2339 80.2364 48.82C79.7546 48.406 79.154 48.199 78.4346 48.199C77.7084 48.199 77.0976 48.406 76.6022 48.82C76.1136 49.2339 75.7437 49.7972 75.4926 50.5098C75.2483 51.2224 75.1261 52.0334 75.1261 52.9428C75.1261 53.8522 75.2483 54.6632 75.4926 55.3758C75.7437 56.0884 76.1136 56.6517 76.6022 57.0657C77.0976 57.4729 77.7084 57.6765 78.4346 57.6765ZM101.455 45.0941V57.7376H103.949V65.7594H99.7347V60.7305H87.7834V45.0941H91.9267V57.3202H97.3627V45.0941H101.455ZM112.435 61.0359C110.827 61.0359 109.442 60.7101 108.282 60.0586C107.128 59.4003 106.239 58.4705 105.615 57.2693C104.99 56.0613 104.678 54.6327 104.678 52.9835C104.678 51.3751 104.99 49.9635 105.615 48.7487C106.239 47.5339 107.118 46.5872 108.251 45.9085C109.391 45.2298 110.728 44.8905 112.262 44.8905C113.294 44.8905 114.254 45.0568 115.143 45.3893C116.039 45.7151 116.819 46.2071 117.484 46.8654C118.156 47.5237 118.679 48.3517 119.052 49.3493C119.425 50.3402 119.612 51.5007 119.612 52.8308V54.0219H106.409V51.3344H115.53C115.53 50.71 115.394 50.1569 115.123 49.6751C114.851 49.1932 114.475 48.8166 113.993 48.5451C113.518 48.2668 112.965 48.1277 112.333 48.1277C111.675 48.1277 111.091 48.2804 110.582 48.5858C110.08 48.8844 109.687 49.2882 109.402 49.7972C109.117 50.2994 108.971 50.8593 108.964 51.4769V54.0321C108.964 54.8058 109.106 55.4742 109.391 56.0375C109.683 56.6008 110.094 57.0352 110.623 57.3406C111.153 57.646 111.78 57.7987 112.506 57.7987C112.988 57.7987 113.429 57.7308 113.83 57.5951C114.23 57.4593 114.573 57.2557 114.858 56.9843C115.143 56.7128 115.36 56.3802 115.51 55.9866L119.52 56.2513C119.317 57.215 118.899 58.0565 118.268 58.7759C117.644 59.4885 116.836 60.045 115.846 60.4454C114.861 60.8391 113.725 61.0359 112.435 61.0359ZM132.178 51.1817V54.592H124.013V51.1817H132.178ZM125.439 45.0941V60.7305H121.295V45.0941H125.439ZM134.896 45.0941V60.7305H130.783V45.0941H134.896ZM135.543 48.5044V45.0941H149.714V48.5044H144.675V60.7305H140.542V48.5044H135.543ZM163.749 61.0359C162.168 61.0359 160.8 60.6999 159.647 60.0281C158.5 59.3494 157.614 58.4061 156.99 57.198C156.365 55.9832 156.053 54.575 156.053 52.9734C156.053 51.3582 156.365 49.9465 156.99 48.7385C157.614 47.5237 158.5 46.5804 159.647 45.9085C160.8 45.2298 162.168 44.8905 163.749 44.8905C165.33 44.8905 166.694 45.2298 167.841 45.9085C168.995 46.5804 169.884 47.5237 170.509 48.7385C171.133 49.9465 171.445 51.3582 171.445 52.9734C171.445 54.575 171.133 55.9832 170.509 57.198C169.884 58.4061 168.995 59.3494 167.841 60.0281C166.694 60.6999 165.33 61.0359 163.749 61.0359ZM163.769 57.6765C164.489 57.6765 165.089 57.4729 165.571 57.0657C166.053 56.6517 166.416 56.0884 166.661 55.3758C166.912 54.6632 167.037 53.8522 167.037 52.9428C167.037 52.0334 166.912 51.2224 166.661 50.5098C166.416 49.7972 166.053 49.2339 165.571 48.82C165.089 48.406 164.489 48.199 163.769 48.199C163.043 48.199 162.432 48.406 161.937 48.82C161.448 49.2339 161.079 49.7972 160.827 50.5098C160.583 51.2224 160.461 52.0334 160.461 52.9428C160.461 53.8522 160.583 54.6632 160.827 55.3758C161.079 56.0884 161.448 56.6517 161.937 57.0657C162.432 57.4729 163.043 57.6765 163.769 57.6765ZM171.897 65.3114V57.2897H173.098C173.444 57.0725 173.722 56.7264 173.933 56.2513C174.15 55.7762 174.326 55.2163 174.462 54.5716C174.605 53.9269 174.713 53.2313 174.788 52.4847C174.869 51.7314 174.94 50.9713 175.002 50.2044L175.409 45.0941H187.401V57.2897H189.824V65.3114H185.69V60.7305H176.132V65.3114H171.897ZM177.414 57.2897H183.308V48.4331H179.094L178.931 50.2044C178.816 51.8739 178.649 53.2923 178.432 54.4596C178.215 55.6201 177.876 56.5635 177.414 57.2897ZM198.269 61.0359C196.688 61.0359 195.32 60.6999 194.166 60.0281C193.019 59.3494 192.134 58.4061 191.509 57.198C190.885 55.9832 190.573 54.575 190.573 52.9734C190.573 51.3582 190.885 49.9465 191.509 48.7385C192.134 47.5237 193.019 46.5804 194.166 45.9085C195.32 45.2298 196.688 44.8905 198.269 44.8905C199.85 44.8905 201.214 45.2298 202.361 45.9085C203.515 46.5804 204.404 47.5237 205.028 48.7385C205.653 49.9465 205.965 51.3582 205.965 52.9734C205.965 54.575 205.653 55.9832 205.028 57.198C204.404 58.4061 203.515 59.3494 202.361 60.0281C201.214 60.6999 199.85 61.0359 198.269 61.0359ZM198.289 57.6765C199.009 57.6765 199.609 57.4729 200.091 57.0657C200.573 56.6517 200.936 56.0884 201.18 55.3758C201.431 54.6632 201.557 53.8522 201.557 52.9428C201.557 52.0334 201.431 51.2224 201.18 50.5098C200.936 49.7972 200.573 49.2339 200.091 48.82C199.609 48.406 199.009 48.199 198.289 48.199C197.563 48.199 196.952 48.406 196.457 48.82C195.968 49.2339 195.598 49.7972 195.347 50.5098C195.103 51.2224 194.981 52.0334 194.981 52.9428C194.981 53.8522 195.103 54.6632 195.347 55.3758C195.598 56.0884 195.968 56.6517 196.457 57.0657C196.952 57.4729 197.563 57.6765 198.289 57.6765ZM220.638 39.3526L221.961 42.1826C221.52 42.5491 221.031 42.8206 220.495 42.997C219.959 43.1667 219.318 43.2787 218.571 43.333C217.832 43.3873 216.929 43.4246 215.863 43.445C214.655 43.4585 213.671 43.6519 212.911 44.0252C212.151 44.3985 211.574 44.9855 211.181 45.7863C210.787 46.5804 210.529 47.6187 210.407 48.9014H210.56C211.028 47.9445 211.686 47.2047 212.535 46.6822C213.39 46.1596 214.445 45.8983 215.701 45.8983C217.031 45.8983 218.195 46.1901 219.192 46.7738C220.197 47.3574 220.977 48.1956 221.534 49.2882C222.09 50.3809 222.368 51.6907 222.368 53.2177C222.368 54.8058 222.056 56.1868 221.432 57.3609C220.814 58.5282 219.935 59.4342 218.795 60.079C217.655 60.7169 216.298 61.0359 214.723 61.0359C213.142 61.0359 211.778 60.7033 210.631 60.0382C209.491 59.3731 208.609 58.3925 207.984 57.0962C207.367 55.8 207.058 54.2051 207.058 52.3117V51.029C207.058 47.2624 207.791 44.4697 209.257 42.6509C210.723 40.8321 212.877 39.9091 215.721 39.882C216.495 39.8684 217.194 39.865 217.818 39.8718C218.442 39.8786 218.989 39.8481 219.457 39.7802C219.932 39.7123 220.326 39.5698 220.638 39.3526ZM214.744 57.6765C215.409 57.6765 215.979 57.5034 216.454 57.1573C216.936 56.8112 217.306 56.3158 217.564 55.671C217.828 55.0263 217.961 54.256 217.961 53.3602C217.961 52.4712 217.828 51.7178 217.564 51.1003C217.306 50.4759 216.936 50.0008 216.454 49.6751C215.972 49.3493 215.395 49.1864 214.723 49.1864C214.221 49.1864 213.77 49.2781 213.369 49.4613C212.969 49.6445 212.626 49.916 212.341 50.2757C212.063 50.6286 211.846 51.0663 211.69 51.5889C211.54 52.1047 211.466 52.6951 211.466 53.3602C211.466 54.6972 211.754 55.7525 212.331 56.5262C212.915 57.293 213.719 57.6765 214.744 57.6765ZM224.1 66.5941V45.0941H228.376V47.7205H228.569C228.759 47.2998 229.034 46.8722 229.394 46.4379C229.76 45.9967 230.235 45.6302 230.819 45.3384C231.409 45.0398 232.142 44.8905 233.018 44.8905C234.158 44.8905 235.21 45.1891 236.174 45.7863C237.137 46.3768 237.908 47.2692 238.484 48.4637C239.061 49.6513 239.35 51.141 239.35 52.9326C239.35 54.6768 239.068 56.1495 238.505 57.3507C237.948 58.5452 237.188 59.4512 236.224 60.0688C235.268 60.6796 234.195 60.985 233.008 60.985C232.166 60.985 231.45 60.8458 230.86 60.5676C230.276 60.2893 229.798 59.9398 229.424 59.5191C229.051 59.0915 228.766 58.6606 228.569 58.2262H228.437V66.5941H224.1ZM228.345 52.9123C228.345 53.8421 228.474 54.6531 228.732 55.3453C228.99 56.0375 229.363 56.5771 229.852 56.9639C230.34 57.3439 230.934 57.534 231.633 57.534C232.339 57.534 232.936 57.3406 233.425 56.9537C233.914 56.5601 234.283 56.0172 234.535 55.3249C234.792 54.6259 234.921 53.8217 234.921 52.9123C234.921 52.0097 234.796 51.2156 234.545 50.5302C234.294 49.8447 233.924 49.3086 233.435 48.9218C232.946 48.5349 232.346 48.3415 231.633 48.3415C230.927 48.3415 230.33 48.5281 229.842 48.9014C229.36 49.2747 228.99 49.804 228.732 50.4895C228.474 51.1749 228.345 51.9825 228.345 52.9123ZM248.22 61.0359C246.612 61.0359 245.227 60.7101 244.067 60.0586C242.913 59.4003 242.024 58.4705 241.399 57.2693C240.775 56.0613 240.463 54.6327 240.463 52.9835C240.463 51.3751 240.775 49.9635 241.399 48.7487C242.024 47.5339 242.903 46.5872 244.036 45.9085C245.176 45.2298 246.513 44.8905 248.047 44.8905C249.079 44.8905 250.039 45.0568 250.928 45.3893C251.824 45.7151 252.604 46.2071 253.269 46.8654C253.941 47.5237 254.464 48.3517 254.837 49.3493C255.21 50.3402 255.397 51.5007 255.397 52.8308V54.0219H242.194V51.3344H251.315C251.315 50.71 251.179 50.1569 250.908 49.6751C250.636 49.1932 250.259 48.8166 249.778 48.5451C249.303 48.2668 248.749 48.1277 248.118 48.1277C247.46 48.1277 246.876 48.2804 246.367 48.5858C245.865 48.8844 245.471 49.2882 245.186 49.7972C244.901 50.2994 244.755 50.8593 244.749 51.4769V54.0321C244.749 54.8058 244.891 55.4742 245.176 56.0375C245.468 56.6008 245.879 57.0352 246.408 57.3406C246.937 57.646 247.565 57.7987 248.291 57.7987C248.773 57.7987 249.214 57.7308 249.615 57.5951C250.015 57.4593 250.358 57.2557 250.643 56.9843C250.928 56.7128 251.145 56.3802 251.294 55.9866L255.305 56.2513C255.102 57.215 254.684 58.0565 254.053 58.7759C253.429 59.4885 252.621 60.045 251.63 60.4454C250.646 60.8391 249.51 61.0359 248.22 61.0359ZM267.963 51.1817V54.592H259.798V51.1817H267.963ZM261.223 45.0941V60.7305H257.08V45.0941H261.223ZM270.681 45.0941V60.7305H266.568V45.0941H270.681ZM277.042 55.0094L282.671 45.0941H286.947V60.7305H282.814V50.7847L277.205 60.7305H272.898V45.0941H277.042V55.0094ZM298.438 60.7305V48.4942H295.507C294.713 48.4942 294.109 48.6774 293.695 49.0439C293.281 49.4104 293.077 49.8447 293.084 50.3469C293.077 50.8559 293.274 51.2869 293.674 51.6398C294.081 51.9859 294.679 52.159 295.466 52.159H299.884V55.0908H295.466C294.129 55.0908 292.972 54.8872 291.995 54.48C291.017 54.0728 290.264 53.5061 289.735 52.7799C289.205 52.047 288.944 51.1953 288.951 50.2248C288.944 49.2068 289.205 48.3144 289.735 47.5475C290.264 46.7738 291.021 46.1732 292.005 45.7456C292.996 45.3113 294.163 45.0941 295.507 45.0941H302.48V60.7305H298.438ZM288.503 60.7305L292.85 52.5865H296.993L292.656 60.7305H288.503ZM310.191 60.7305V45.0941H323.862V60.7305H319.719V48.5044H314.283V60.7305H310.191ZM333.242 61.0359C331.661 61.0359 330.293 60.6999 329.139 60.0281C327.992 59.3494 327.107 58.4061 326.482 57.198C325.858 55.9832 325.546 54.575 325.546 52.9734C325.546 51.3582 325.858 49.9465 326.482 48.7385C327.107 47.5237 327.992 46.5804 329.139 45.9085C330.293 45.2298 331.661 44.8905 333.242 44.8905C334.823 44.8905 336.187 45.2298 337.334 45.9085C338.488 46.5804 339.377 47.5237 340.001 48.7385C340.626 49.9465 340.938 51.3582 340.938 52.9734C340.938 54.575 340.626 55.9832 340.001 57.198C339.377 58.4061 338.488 59.3494 337.334 60.0281C336.187 60.6999 334.823 61.0359 333.242 61.0359ZM333.262 57.6765C333.982 57.6765 334.582 57.4729 335.064 57.0657C335.546 56.6517 335.909 56.0884 336.153 55.3758C336.404 54.6632 336.53 53.8522 336.53 52.9428C336.53 52.0334 336.404 51.2224 336.153 50.5098C335.909 49.7972 335.546 49.2339 335.064 48.82C334.582 48.406 333.982 48.199 333.262 48.199C332.536 48.199 331.925 48.406 331.43 48.82C330.941 49.2339 330.571 49.7972 330.32 50.5098C330.076 51.2224 329.954 52.0334 329.954 52.9428C329.954 53.8522 330.076 54.6632 330.32 55.3758C330.571 56.0884 330.941 56.6517 331.43 57.0657C331.925 57.4729 332.536 57.6765 333.262 57.6765ZM348.099 66.5941V45.0941H352.375V47.7205H352.568C352.758 47.2998 353.033 46.8722 353.393 46.4379C353.759 45.9967 354.234 45.6302 354.818 45.3384C355.408 45.0398 356.141 44.8905 357.017 44.8905C358.157 44.8905 359.209 45.1891 360.173 45.7863C361.136 46.3768 361.907 47.2692 362.483 48.4637C363.06 49.6513 363.349 51.141 363.349 52.9326C363.349 54.6768 363.067 56.1495 362.504 57.3507C361.947 58.5452 361.187 59.4512 360.223 60.0688C359.267 60.6796 358.194 60.985 357.007 60.985C356.165 60.985 355.449 60.8458 354.859 60.5676C354.275 60.2893 353.797 59.9398 353.423 59.5191C353.05 59.0915 352.765 58.6606 352.568 58.2262H352.436V66.5941H348.099ZM352.344 52.9123C352.344 53.8421 352.473 54.6531 352.731 55.3453C352.989 56.0375 353.362 56.5771 353.851 56.9639C354.339 57.3439 354.933 57.534 355.632 57.534C356.338 57.534 356.935 57.3406 357.424 56.9537C357.913 56.5601 358.282 56.0172 358.534 55.3249C358.791 54.6259 358.92 53.8217 358.92 52.9123C358.92 52.0097 358.795 51.2156 358.544 50.5302C358.293 49.8447 357.923 49.3086 357.434 48.9218C356.946 48.5349 356.345 48.3415 355.632 48.3415C354.926 48.3415 354.329 48.5281 353.841 48.9014C353.359 49.2747 352.989 49.804 352.731 50.4895C352.473 51.1749 352.344 51.9825 352.344 52.9123ZM372.219 61.0359C370.611 61.0359 369.226 60.7101 368.066 60.0586C366.912 59.4003 366.023 58.4705 365.399 57.2693C364.774 56.0613 364.462 54.6327 364.462 52.9835C364.462 51.3751 364.774 49.9635 365.399 48.7487C366.023 47.5339 366.902 46.5872 368.035 45.9085C369.175 45.2298 370.512 44.8905 372.046 44.8905C373.078 44.8905 374.038 45.0568 374.927 45.3893C375.823 45.7151 376.603 46.2071 377.268 46.8654C377.94 47.5237 378.463 48.3517 378.836 49.3493C379.209 50.3402 379.396 51.5007 379.396 52.8308V54.0219H366.193V51.3344H375.314C375.314 50.71 375.178 50.1569 374.907 49.6751C374.635 49.1932 374.258 48.8166 373.777 48.5451C373.302 48.2668 372.748 48.1277 372.117 48.1277C371.459 48.1277 370.875 48.2804 370.366 48.5858C369.864 48.8844 369.47 49.2882 369.185 49.7972C368.9 50.2994 368.754 50.8593 368.748 51.4769V54.0321C368.748 54.8058 368.89 55.4742 369.175 56.0375C369.467 56.6008 369.878 57.0352 370.407 57.3406C370.936 57.646 371.564 57.7987 372.29 57.7987C372.772 57.7987 373.213 57.7308 373.614 57.5951C374.014 57.4593 374.357 57.2557 374.642 56.9843C374.927 56.7128 375.144 56.3802 375.293 55.9866L379.304 56.2513C379.101 57.215 378.683 58.0565 378.052 58.7759C377.428 59.4885 376.62 60.045 375.629 60.4454C374.645 60.8391 373.509 61.0359 372.219 61.0359ZM391.789 45.0941V48.5044H385.294V60.7305H381.079V45.0941H391.789ZM397.429 55.0094L403.059 45.0941H407.334V60.7305H403.201V50.7847L397.592 60.7305H393.286V45.0941H397.429V55.0094ZM416.729 61.0359C415.148 61.0359 413.78 60.6999 412.627 60.0281C411.48 59.3494 410.594 58.4061 409.97 57.198C409.345 55.9832 409.033 54.575 409.033 52.9734C409.033 51.3582 409.345 49.9465 409.97 48.7385C410.594 47.5237 411.48 46.5804 412.627 45.9085C413.78 45.2298 415.148 44.8905 416.729 44.8905C418.31 44.8905 419.674 45.2298 420.821 45.9085C421.975 46.5804 422.864 47.5237 423.489 48.7385C424.113 49.9465 424.425 51.3582 424.425 52.9734C424.425 54.575 424.113 55.9832 423.489 57.198C422.864 58.4061 421.975 59.3494 420.821 60.0281C419.674 60.6999 418.31 61.0359 416.729 61.0359ZM416.749 57.6765C417.469 57.6765 418.069 57.4729 418.551 57.0657C419.033 56.6517 419.396 56.0884 419.641 55.3758C419.892 54.6632 420.017 53.8522 420.017 52.9428C420.017 52.0334 419.892 51.2224 419.641 50.5098C419.396 49.7972 419.033 49.2339 418.551 48.82C418.069 48.406 417.469 48.199 416.749 48.199C416.023 48.199 415.412 48.406 414.917 48.82C414.428 49.2339 414.059 49.7972 413.807 50.5098C413.563 51.2224 413.441 52.0334 413.441 52.9428C413.441 53.8522 413.563 54.6632 413.807 55.3758C414.059 56.0884 414.428 56.6517 414.917 57.0657C415.412 57.4729 416.023 57.6765 416.749 57.6765ZM436.981 51.1817V54.592H428.816V51.1817H436.981ZM430.241 45.0941V60.7305H426.098V45.0941H430.241ZM439.699 45.0941V60.7305H435.586V45.0941H439.699ZM446.375 61.0257C445.378 61.0257 444.489 60.8526 443.708 60.5065C442.928 60.1536 442.31 59.6344 441.855 58.949C441.407 58.2567 441.183 57.3948 441.183 56.3633C441.183 55.4946 441.343 54.765 441.662 54.1746C441.981 53.5842 442.415 53.1091 442.965 52.7494C443.515 52.3897 444.139 52.1183 444.838 51.935C445.544 51.7518 446.284 51.6228 447.057 51.5482C447.967 51.4532 448.7 51.3649 449.256 51.2835C449.813 51.1953 450.216 51.0663 450.468 50.8967C450.719 50.727 450.844 50.4759 450.844 50.1433V50.0823C450.844 49.4375 450.641 48.9387 450.233 48.5858C449.833 48.2329 449.263 48.0565 448.523 48.0565C447.743 48.0565 447.122 48.2295 446.66 48.5756C446.199 48.915 445.893 49.3425 445.744 49.8583L441.733 49.5326C441.937 48.5824 442.337 47.7612 442.934 47.069C443.532 46.37 444.302 45.8338 445.245 45.4606C446.195 45.0805 447.295 44.8905 448.544 44.8905C449.412 44.8905 450.244 44.9923 451.038 45.1959C451.838 45.3995 452.548 45.7151 453.165 46.1426C453.79 46.5702 454.282 47.1199 454.641 47.7918C455.001 48.4569 455.181 49.2543 455.181 50.1841V60.7305H451.068V58.5621H450.946C450.695 59.0508 450.359 59.4817 449.938 59.855C449.517 60.2215 449.012 60.5099 448.421 60.7203C447.831 60.9239 447.149 61.0257 446.375 61.0257ZM447.617 58.0328C448.255 58.0328 448.818 57.9072 449.307 57.6561C449.796 57.3982 450.179 57.0521 450.457 56.6178C450.736 56.1834 450.875 55.6914 450.875 55.1417V53.4824C450.739 53.5706 450.552 53.652 450.315 53.7267C450.084 53.7945 449.823 53.859 449.531 53.9201C449.239 53.9744 448.947 54.0253 448.656 54.0728C448.364 54.1135 448.099 54.1508 447.861 54.1848C447.352 54.2594 446.908 54.3782 446.528 54.5411C446.148 54.704 445.853 54.9245 445.642 55.2028C445.432 55.4742 445.327 55.8136 445.327 56.2208C445.327 56.8112 445.54 57.2625 445.968 57.5747C446.402 57.8801 446.952 58.0328 447.617 58.0328ZM466.642 55.9357L470.877 45.0941H474.175L468.077 60.7305H465.196L459.241 45.0941H462.529L466.642 55.9357ZM461.542 45.0941V60.7305H457.399V45.0941H461.542ZM471.956 60.7305V45.0941H476.048V60.7305H471.956Z" fill="black"/>
<rect x="31.8516" y="99.6191" width="390.981" height="234.907" rx="15.9259" fill="#F7F7F7"/>
<path opacity="0.6" d="M44.825 114.14H47.1359L50.2306 121.694H50.3527L53.4474 114.14H55.7583V124.564H53.9463V117.403H53.8496L50.9686 124.534H49.6147L46.7338 117.388H46.6371V124.564H44.825V114.14ZM68.5626 119.352C68.5626 120.476 68.3522 121.438 67.9314 122.238C67.5141 123.036 66.944 123.647 66.2212 124.071C65.5018 124.495 64.6857 124.707 63.7729 124.707C62.8601 124.707 62.0424 124.495 61.3196 124.071C60.6002 123.643 60.0301 123.031 59.6094 122.233C59.192 121.432 58.9833 120.472 58.9833 119.352C58.9833 118.229 59.192 117.269 59.6094 116.471C60.0301 115.671 60.6002 115.058 61.3196 114.634C62.0424 114.21 62.8601 113.998 63.7729 113.998C64.6857 113.998 65.5018 114.21 66.2212 114.634C66.944 115.058 67.5141 115.671 67.9314 116.471C68.3522 117.269 68.5626 118.229 68.5626 119.352ZM66.664 119.352C66.664 118.562 66.5402 117.895 66.2925 117.352C66.0482 116.806 65.7088 116.393 65.2745 116.115C64.8401 115.833 64.3396 115.693 63.7729 115.693C63.2063 115.693 62.7057 115.833 62.2714 116.115C61.8371 116.393 61.496 116.806 61.2483 117.352C61.004 117.895 60.8818 118.562 60.8818 119.352C60.8818 120.143 61.004 120.811 61.2483 121.358C61.496 121.901 61.8371 122.313 62.2714 122.595C62.7057 122.873 63.2063 123.012 63.7729 123.012C64.3396 123.012 64.8401 122.873 65.2745 122.595C65.7088 122.313 66.0482 121.901 66.2925 121.358C66.5402 120.811 66.664 120.143 66.664 119.352ZM80.7039 117.657H78.8003C78.746 117.345 78.6459 117.069 78.5 116.828C78.3541 116.583 78.1725 116.376 77.9554 116.207C77.7382 116.037 77.4905 115.91 77.2122 115.825C76.9374 115.737 76.6404 115.693 76.3215 115.693C75.7548 115.693 75.2526 115.835 74.8148 116.12C74.3771 116.402 74.0344 116.816 73.7867 117.362C73.539 117.905 73.4151 118.568 73.4151 119.352C73.4151 120.15 73.539 120.822 73.7867 121.368C74.0378 121.911 74.3805 122.321 74.8148 122.6C75.2526 122.875 75.7531 123.012 76.3164 123.012C76.6286 123.012 76.9204 122.971 77.1919 122.89C77.4667 122.805 77.7127 122.681 77.9299 122.518C78.1505 122.355 78.3354 122.155 78.4847 121.918C78.6374 121.68 78.7426 121.409 78.8003 121.103L80.7039 121.113C80.6327 121.609 80.4783 122.074 80.2407 122.508C80.0066 122.942 79.6995 123.326 79.3195 123.658C78.9394 123.988 78.4949 124.245 77.9859 124.432C77.4769 124.615 76.9119 124.707 76.2909 124.707C75.3747 124.707 74.557 124.495 73.8376 124.071C73.1182 123.647 72.5515 123.034 72.1375 122.233C71.7235 121.432 71.5166 120.472 71.5166 119.352C71.5166 118.229 71.7252 117.269 72.1426 116.471C72.56 115.671 73.1284 115.058 73.8478 114.634C74.5671 114.21 75.3815 113.998 76.2909 113.998C76.8712 113.998 77.4107 114.079 77.9095 114.242C78.4084 114.405 78.8529 114.644 79.2431 114.96C79.6333 115.272 79.954 115.655 80.2051 116.11C80.4596 116.561 80.6259 117.077 80.7039 117.657ZM90.112 124.564L86.6813 120.009H85.755V124.564H83.8666V114.14H85.755V118.426H86.2283L89.9338 114.14H92.2599L88.1421 118.894L92.4381 124.564H90.112ZM95.1541 124.564V114.14H99.1446C99.8979 114.14 100.524 114.259 101.023 114.497C101.525 114.731 101.9 115.051 102.148 115.459C102.399 115.866 102.524 116.327 102.524 116.843C102.524 117.267 102.443 117.63 102.28 117.932C102.117 118.231 101.898 118.473 101.623 118.66C101.349 118.847 101.041 118.981 100.702 119.062V119.164C101.072 119.184 101.427 119.298 101.766 119.505C102.109 119.709 102.389 119.997 102.606 120.37C102.823 120.744 102.932 121.195 102.932 121.724C102.932 122.264 102.801 122.749 102.54 123.18C102.278 123.608 101.885 123.945 101.359 124.193C100.833 124.441 100.171 124.564 99.3737 124.564H95.1541ZM97.0425 122.987H99.0734C99.7588 122.987 100.253 122.856 100.555 122.595C100.86 122.33 101.013 121.991 101.013 121.577C101.013 121.268 100.936 120.99 100.784 120.742C100.631 120.491 100.414 120.294 100.132 120.151C99.8504 120.006 99.5145 119.933 99.1243 119.933H97.0425V122.987ZM97.0425 118.574H98.9105C99.2362 118.574 99.5298 118.514 99.791 118.395C100.052 118.273 100.258 118.102 100.407 117.881C100.56 117.657 100.636 117.393 100.636 117.087C100.636 116.683 100.493 116.351 100.208 116.09C99.9268 115.828 99.5077 115.698 98.9512 115.698H97.0425V118.574ZM107.346 124.564H105.331L109.001 114.14H111.332L115.007 124.564H112.991L110.207 116.278H110.125L107.346 124.564ZM107.412 120.477H112.91V121.994H107.412V120.477Z" fill="black"/>
<path opacity="0.4" d="M406.901 297.573H43.7969V194.453L227.343 242.629C227.343 242.629 404.788 239.13 406.901 239.047V239.046C406.926 239.046 406.926 239.046 406.901 239.047V297.573Z" fill="url(#paint0_linear_2961_1602)"/>
<rect x="403.074" y="234.268" width="8.17935" height="8.17935" rx="4.08967" fill="#CACACA"/>
<path d="M405.713 239.045L231.439 242.174C229.331 242.211 227.228 241.961 225.189 241.428L43.7962 194.055" stroke="#CACACA" stroke-width="3.18519"/>
<path d="M292.67 285.676V305.072L285.436 297.81L282.26 300.959L294.964 313.637L307.642 300.959L304.52 297.81L297.258 305.072V285.676H292.67Z" fill="#CACACA"/>
<path d="M327.57 314.036C325.543 314.036 323.738 313.688 322.154 312.991C320.58 312.285 319.335 311.317 318.421 310.086C317.517 308.847 317.051 307.417 317.023 305.797H322.941C322.977 306.476 323.199 307.073 323.606 307.589C324.023 308.096 324.575 308.489 325.262 308.77C325.95 309.05 326.724 309.191 327.583 309.191C328.479 309.191 329.271 309.032 329.959 308.716C330.646 308.399 331.185 307.96 331.574 307.399C331.963 306.838 332.158 306.191 332.158 305.458C332.158 304.716 331.949 304.06 331.533 303.49C331.126 302.911 330.538 302.458 329.769 302.133C329.009 301.807 328.104 301.644 327.054 301.644H324.461V297.328H327.054C327.941 297.328 328.723 297.174 329.402 296.866C330.09 296.559 330.624 296.133 331.004 295.59C331.384 295.038 331.574 294.396 331.574 293.663C331.574 292.966 331.406 292.355 331.072 291.83C330.746 291.297 330.284 290.88 329.687 290.582C329.099 290.283 328.411 290.134 327.624 290.134C326.828 290.134 326.099 290.279 325.439 290.568C324.778 290.849 324.249 291.251 323.851 291.776C323.453 292.301 323.24 292.916 323.213 293.622H317.58C317.607 292.021 318.064 290.609 318.951 289.387C319.838 288.166 321.032 287.211 322.534 286.523C324.045 285.827 325.751 285.478 327.651 285.478C329.57 285.478 331.248 285.827 332.687 286.523C334.126 287.22 335.243 288.161 336.039 289.347C336.845 290.523 337.243 291.844 337.234 293.31C337.243 294.866 336.759 296.165 335.782 297.205C334.813 298.246 333.551 298.907 331.995 299.187V299.404C334.04 299.667 335.596 300.377 336.664 301.535C337.741 302.685 338.275 304.123 338.265 305.852C338.275 307.435 337.818 308.842 336.895 310.073C335.981 311.304 334.718 312.272 333.108 312.978C331.497 313.683 329.651 314.036 327.57 314.036ZM347.653 309.856L347.504 311.349C347.386 312.543 347.16 313.733 346.825 314.919C346.499 316.113 346.155 317.194 345.794 318.163C345.441 319.131 345.156 319.891 344.938 320.443H341.192C341.328 319.909 341.513 319.162 341.749 318.203C341.984 317.253 342.206 316.185 342.414 315C342.622 313.815 342.753 312.607 342.807 311.376L342.875 309.856H347.653ZM362.042 314.036C360.613 314.027 359.233 313.787 357.903 313.317C356.581 312.846 355.396 312.082 354.346 311.023C353.297 309.964 352.464 308.562 351.849 306.815C351.243 305.069 350.939 302.924 350.939 300.382C350.949 298.047 351.215 295.961 351.74 294.124C352.274 292.278 353.034 290.713 354.021 289.428C355.016 288.143 356.206 287.166 357.59 286.496C358.975 285.818 360.527 285.478 362.246 285.478C364.101 285.478 365.739 285.84 367.159 286.564C368.58 287.279 369.72 288.252 370.58 289.482C371.449 290.713 371.973 292.093 372.154 293.622H366.359C366.132 292.654 365.657 291.894 364.933 291.342C364.21 290.79 363.314 290.514 362.246 290.514C360.436 290.514 359.061 291.301 358.12 292.876C357.188 294.45 356.713 296.59 356.695 299.296H356.885C357.301 298.472 357.862 297.771 358.568 297.192C359.282 296.604 360.092 296.156 360.997 295.848C361.911 295.531 362.875 295.373 363.888 295.373C365.535 295.373 367.001 295.762 368.286 296.54C369.571 297.31 370.584 298.368 371.326 299.717C372.068 301.065 372.439 302.608 372.439 304.345C372.439 306.227 372.001 307.901 371.123 309.367C370.254 310.833 369.037 311.982 367.472 312.815C365.915 313.638 364.106 314.045 362.042 314.036ZM362.015 309.421C362.92 309.421 363.73 309.204 364.445 308.77C365.16 308.336 365.721 307.747 366.128 307.005C366.535 306.263 366.739 305.431 366.739 304.508C366.739 303.585 366.535 302.757 366.128 302.024C365.73 301.291 365.178 300.707 364.472 300.273C363.766 299.839 362.961 299.622 362.056 299.622C361.377 299.622 360.748 299.748 360.169 300.002C359.599 300.255 359.097 300.608 358.663 301.06C358.237 301.513 357.903 302.038 357.658 302.635C357.414 303.223 357.292 303.852 357.292 304.521C357.292 305.417 357.495 306.236 357.903 306.978C358.319 307.72 358.88 308.313 359.586 308.756C360.3 309.2 361.11 309.421 362.015 309.421ZM391.43 308.444V306.978C391.43 305.865 391.665 304.843 392.136 303.911C392.616 302.97 393.308 302.219 394.213 301.658C395.127 301.087 396.24 300.802 397.552 300.802C398.882 300.802 399.999 301.083 400.904 301.644C401.818 302.205 402.506 302.956 402.967 303.897C403.438 304.829 403.673 305.856 403.673 306.978V308.444C403.673 309.557 403.438 310.584 402.967 311.525C402.497 312.457 401.805 313.204 400.891 313.765C399.977 314.335 398.864 314.62 397.552 314.62C396.221 314.62 395.104 314.335 394.199 313.765C393.294 313.204 392.606 312.457 392.136 311.525C391.665 310.584 391.43 309.557 391.43 308.444ZM395.38 306.978V308.444C395.38 309.087 395.534 309.693 395.841 310.263C396.158 310.833 396.728 311.118 397.552 311.118C398.375 311.118 398.936 310.838 399.235 310.277C399.542 309.715 399.696 309.105 399.696 308.444V306.978C399.696 306.318 399.551 305.702 399.262 305.132C398.972 304.562 398.402 304.277 397.552 304.277C396.737 304.277 396.172 304.562 395.855 305.132C395.538 305.702 395.38 306.318 395.38 306.978ZM377.165 292.536V291.07C377.165 289.948 377.404 288.921 377.884 287.989C378.364 287.048 379.056 286.297 379.961 285.736C380.875 285.175 381.979 284.895 383.273 284.895C384.612 284.895 385.734 285.175 386.639 285.736C387.544 286.297 388.231 287.048 388.702 287.989C389.172 288.921 389.408 289.948 389.408 291.07V292.536C389.408 293.658 389.168 294.685 388.688 295.617C388.218 296.549 387.526 297.296 386.612 297.857C385.707 298.409 384.594 298.685 383.273 298.685C381.951 298.685 380.834 298.404 379.92 297.843C379.015 297.273 378.327 296.527 377.857 295.604C377.395 294.672 377.165 293.649 377.165 292.536ZM381.142 291.07V292.536C381.142 293.197 381.295 293.808 381.603 294.369C381.92 294.93 382.476 295.21 383.273 295.21C384.105 295.21 384.671 294.93 384.969 294.369C385.277 293.808 385.431 293.197 385.431 292.536V291.07C385.431 290.41 385.286 289.795 384.996 289.224C384.707 288.654 384.132 288.369 383.273 288.369C382.467 288.369 381.911 288.659 381.603 289.238C381.295 289.817 381.142 290.428 381.142 291.07ZM378.956 313.656L398.067 285.858H401.624L382.513 313.656H378.956Z" fill="black"/>
<path d="M49.2279 182.959C48.4482 182.959 47.7473 182.81 47.1251 182.511C46.5072 182.209 46.0136 181.794 45.6445 181.267C45.2754 180.74 45.0784 180.139 45.0535 179.463H46.9198C46.9655 180.011 47.2081 180.461 47.6477 180.813C48.0873 181.166 48.6141 181.342 49.2279 181.342C49.7173 181.342 50.1507 181.23 50.5281 181.006C50.9096 180.778 51.2082 180.465 51.4239 180.067C51.6437 179.668 51.7536 179.214 51.7536 178.704C51.7536 178.186 51.6416 177.723 51.4177 177.317C51.1937 176.91 50.8847 176.591 50.4907 176.359C50.1009 176.127 49.653 176.008 49.147 176.004C48.7613 176.004 48.3735 176.071 47.9837 176.203C47.5938 176.336 47.2786 176.51 47.038 176.726L45.2775 176.465L45.9929 170.044H52.9978V171.693H47.5917L47.1874 175.258H47.262C47.5109 175.017 47.8406 174.816 48.2512 174.654C48.6659 174.492 49.1097 174.412 49.5825 174.412C50.358 174.412 51.0486 174.596 51.6541 174.965C52.2637 175.334 52.7428 175.838 53.0911 176.477C53.4437 177.112 53.6179 177.841 53.6137 178.667C53.6179 179.492 53.4312 180.228 53.0538 180.875C52.6806 181.522 52.1621 182.032 51.4986 182.406C50.8391 182.775 50.0822 182.959 49.2279 182.959ZM60.0137 182.959C59.122 182.959 58.334 182.806 57.6497 182.499C56.9695 182.192 56.4366 181.769 56.0509 181.23C55.6652 180.691 55.4744 180.077 55.4786 179.388C55.4744 178.849 55.5843 178.354 55.8083 177.902C56.0364 177.445 56.3454 177.066 56.7352 176.763C57.1251 176.456 57.5605 176.261 58.0416 176.178V176.104C57.4071 175.95 56.899 175.61 56.5175 175.083C56.1359 174.557 55.9472 173.951 55.9514 173.267C55.9472 172.616 56.1193 172.035 56.4677 171.525C56.8202 171.011 57.3034 170.606 57.9172 170.312C58.531 170.017 59.2299 169.87 60.0137 169.87C60.7893 169.87 61.4819 170.02 62.0916 170.318C62.7054 170.613 63.1885 171.017 63.5411 171.531C63.8936 172.041 64.0719 172.62 64.0761 173.267C64.0719 173.951 63.877 174.557 63.4913 175.083C63.1056 175.61 62.6038 175.95 61.9858 176.104V176.178C62.4627 176.261 62.892 176.456 63.2736 176.763C63.6593 177.066 63.9662 177.445 64.1943 177.902C64.4265 178.354 64.5447 178.849 64.5489 179.388C64.5447 180.077 64.3498 180.691 63.9641 181.23C63.5784 181.769 63.0434 182.192 62.3591 182.499C61.6789 182.806 60.8971 182.959 60.0137 182.959ZM60.0137 181.385C60.5404 181.385 60.9966 181.298 61.3824 181.124C61.7681 180.946 62.0667 180.699 62.2782 180.384C62.4897 180.064 62.5975 179.691 62.6017 179.264C62.5975 178.82 62.4814 178.428 62.2533 178.088C62.0293 177.748 61.7245 177.481 61.3388 177.286C60.9531 177.091 60.5114 176.993 60.0137 176.993C59.5119 176.993 59.066 177.091 58.6762 177.286C58.2863 177.481 57.9794 177.748 57.7555 178.088C57.5315 178.428 57.4216 178.82 57.4258 179.264C57.4216 179.691 57.5232 180.064 57.7306 180.384C57.9421 180.699 58.2428 180.946 58.6326 181.124C59.0225 181.298 59.4829 181.385 60.0137 181.385ZM60.0137 175.457C60.4367 175.457 60.8121 175.372 61.1397 175.202C61.4674 175.032 61.7245 174.795 61.9111 174.492C62.1019 174.19 62.1994 173.835 62.2035 173.429C62.1994 173.031 62.104 172.682 61.9174 172.384C61.7349 172.085 61.4798 171.855 61.1522 171.693C60.8245 171.527 60.445 171.444 60.0137 171.444C59.5741 171.444 59.1884 171.527 58.8566 171.693C58.529 171.855 58.2739 172.085 58.0914 172.384C57.9089 172.682 57.8198 173.031 57.8239 173.429C57.8198 173.835 57.911 174.19 58.0976 174.492C58.2843 174.795 58.5414 175.032 58.869 175.202C59.2008 175.372 59.5824 175.457 60.0137 175.457ZM68.6689 181.043L68.5755 181.721C68.5133 182.219 68.4076 182.737 68.2583 183.277C68.1131 183.82 67.9617 184.324 67.8041 184.788C67.6507 185.253 67.5242 185.622 67.4246 185.896H66.1058C66.1597 185.639 66.2343 185.29 66.3297 184.851C66.4251 184.415 66.5184 183.928 66.6097 183.389C66.7009 182.849 66.7694 182.3 66.815 181.74L66.8772 181.043H68.6689ZM70.8261 180.297V178.741L76.3317 170.044H77.5573V172.334H76.7796L72.8417 178.567V178.667H80.3879V180.297H70.8261ZM76.8667 182.785V179.824L76.8792 179.115V170.044H78.702V182.785H76.8667Z" fill="#CFCFCF"/>
<path d="M375.705 225.959C374.925 225.959 374.225 225.81 373.602 225.511C372.985 225.209 372.491 224.794 372.122 224.267C371.753 223.74 371.556 223.139 371.531 222.463H373.397C373.443 223.011 373.685 223.461 374.125 223.813C374.565 224.166 375.091 224.342 375.705 224.342C376.195 224.342 376.628 224.23 377.005 224.006C377.387 223.778 377.686 223.465 377.901 223.067C378.121 222.668 378.231 222.214 378.231 221.704C378.231 221.186 378.119 220.723 377.895 220.317C377.671 219.91 377.362 219.591 376.968 219.359C376.578 219.127 376.13 219.008 375.624 219.004C375.239 219.004 374.851 219.071 374.461 219.203C374.071 219.336 373.756 219.51 373.515 219.726L371.755 219.465L372.47 213.044H379.475V214.693H374.069L373.665 218.258H373.739C373.988 218.017 374.318 217.816 374.728 217.654C375.143 217.492 375.587 217.412 376.06 217.412C376.835 217.412 377.526 217.596 378.131 217.965C378.741 218.334 379.22 218.838 379.568 219.477C379.921 220.112 380.095 220.841 380.091 221.667C380.095 222.492 379.909 223.228 379.531 223.875C379.158 224.522 378.639 225.032 377.976 225.406C377.316 225.775 376.56 225.959 375.705 225.959ZM381.919 223.297V221.741L387.424 213.044H388.65V215.334H387.872L383.934 221.567V221.667H391.48V223.297H381.919ZM387.959 225.785V222.824L387.972 222.115V213.044H389.794V225.785H387.959ZM395.437 224.043L395.344 224.721C395.281 225.219 395.176 225.737 395.026 226.277C394.881 226.82 394.73 227.324 394.572 227.788C394.419 228.253 394.292 228.622 394.193 228.896H392.874C392.928 228.639 393.003 228.29 393.098 227.851C393.193 227.415 393.287 226.928 393.378 226.389C393.469 225.849 393.538 225.3 393.583 224.74L393.645 224.043H395.437ZM401.739 225.959C400.847 225.959 400.059 225.806 399.375 225.499C398.695 225.192 398.162 224.769 397.776 224.23C397.391 223.691 397.2 223.077 397.204 222.388C397.2 221.849 397.31 221.354 397.534 220.902C397.762 220.445 398.071 220.066 398.461 219.763C398.85 219.456 399.286 219.261 399.767 219.178V219.104C399.132 218.95 398.624 218.61 398.243 218.083C397.861 217.557 397.673 216.951 397.677 216.267C397.673 215.616 397.845 215.035 398.193 214.525C398.546 214.011 399.029 213.606 399.643 213.312C400.256 213.017 400.955 212.87 401.739 212.87C402.515 212.87 403.207 213.02 403.817 213.318C404.431 213.613 404.914 214.017 405.266 214.531C405.619 215.041 405.797 215.62 405.801 216.267C405.797 216.951 405.602 217.557 405.217 218.083C404.831 218.61 404.329 218.95 403.711 219.104V219.178C404.188 219.261 404.617 219.456 404.999 219.763C405.385 220.066 405.691 220.445 405.92 220.902C406.152 221.354 406.27 221.849 406.274 222.388C406.27 223.077 406.075 223.691 405.689 224.23C405.304 224.769 404.769 225.192 404.084 225.499C403.404 225.806 402.622 225.959 401.739 225.959ZM401.739 224.385C402.266 224.385 402.722 224.298 403.108 224.124C403.493 223.946 403.792 223.699 404.004 223.384C404.215 223.064 404.323 222.691 404.327 222.264C404.323 221.82 404.207 221.428 403.979 221.088C403.755 220.748 403.45 220.481 403.064 220.286C402.678 220.091 402.237 219.993 401.739 219.993C401.237 219.993 400.791 220.091 400.402 220.286C400.012 220.481 399.705 220.748 399.481 221.088C399.257 221.428 399.147 221.82 399.151 222.264C399.147 222.691 399.249 223.064 399.456 223.384C399.667 223.699 399.968 223.946 400.358 224.124C400.748 224.298 401.208 224.385 401.739 224.385ZM401.739 218.457C402.162 218.457 402.537 218.372 402.865 218.202C403.193 218.032 403.45 217.795 403.636 217.492C403.827 217.19 403.925 216.835 403.929 216.429C403.925 216.031 403.829 215.682 403.643 215.384C403.46 215.085 403.205 214.855 402.877 214.693C402.55 214.527 402.17 214.444 401.739 214.444C401.299 214.444 400.914 214.527 400.582 214.693C400.254 214.855 399.999 215.085 399.817 215.384C399.634 215.682 399.545 216.031 399.549 216.429C399.545 216.835 399.636 217.19 399.823 217.492C400.01 217.795 400.267 218.032 400.594 218.202C400.926 218.372 401.308 218.457 401.739 218.457Z" fill="#CFCFCF"/>
<rect x="31.8516" y="348.859" width="796.296" height="234.907" rx="15.9259" fill="#F7F7F7"/>
<path opacity="0.6" d="M44.825 376.805V366.38H48.7341C49.535 366.38 50.2068 366.53 50.7498 366.828C51.2961 367.127 51.7084 367.538 51.9866 368.06C52.2683 368.579 52.4091 369.17 52.4091 369.831C52.4091 370.5 52.2683 371.094 51.9866 371.613C51.705 372.132 51.2893 372.541 50.7396 372.84C50.1899 373.135 49.5129 373.282 48.7087 373.282H46.1179V371.73H48.4542C48.9225 371.73 49.3059 371.649 49.6045 371.486C49.9031 371.323 50.1237 371.099 50.2662 370.814C50.4121 370.529 50.4851 370.201 50.4851 369.831C50.4851 369.462 50.4121 369.136 50.2662 368.854C50.1237 368.573 49.9014 368.354 49.5994 368.198C49.3008 368.038 48.9157 367.958 48.444 367.958H46.7134V376.805H44.825ZM55.4827 376.805V366.38H62.2625V367.963H57.371V370.793H61.9113V372.376H57.371V375.222H62.3032V376.805H55.4827ZM72.3259 366.38V367.963H67.5108V376.805H65.6224V366.38H72.3259ZM75.3562 366.38H77.2293V373.486H77.326L82.2276 366.38H83.9226V376.805H82.0342V369.704H81.9477L77.0308 376.805H75.3562V366.38ZM96.7282 371.593C96.7282 372.716 96.5178 373.678 96.097 374.479C95.6796 375.276 95.1095 375.887 94.3868 376.311C93.6674 376.735 92.8513 376.947 91.9385 376.947C91.0257 376.947 90.2079 376.735 89.4851 376.311C88.7658 375.883 88.1957 375.271 87.7749 374.473C87.3575 373.673 87.1488 372.712 87.1488 371.593C87.1488 370.469 87.3575 369.509 87.7749 368.712C88.1957 367.911 88.7658 367.298 89.4851 366.874C90.2079 366.45 91.0257 366.238 91.9385 366.238C92.8513 366.238 93.6674 366.45 94.3868 366.874C95.1095 367.298 95.6796 367.911 96.097 368.712C96.5178 369.509 96.7282 370.469 96.7282 371.593ZM94.8296 371.593C94.8296 370.802 94.7057 370.135 94.458 369.592C94.2137 369.046 93.8744 368.634 93.44 368.355C93.0057 368.074 92.5052 367.933 91.9385 367.933C91.3718 367.933 90.8713 368.074 90.437 368.355C90.0026 368.634 89.6616 369.046 89.4139 369.592C89.1696 370.135 89.0474 370.802 89.0474 371.593C89.0474 372.383 89.1696 373.052 89.4139 373.598C89.6616 374.141 90.0026 374.553 90.437 374.835C90.8713 375.113 91.3718 375.252 91.9385 375.252C92.5052 375.252 93.0057 375.113 93.44 374.835C93.8744 374.553 94.2137 374.141 94.458 373.598C94.7057 373.052 94.8296 372.383 94.8296 371.593ZM99.9468 376.805V366.38H101.835V370.793H106.666V366.38H108.559V376.805H106.666V372.376H101.835V376.805H99.9468ZM113.324 370.407H115.971C116.768 370.407 117.452 370.537 118.022 370.799C118.595 371.056 119.035 371.421 119.34 371.893C119.645 372.365 119.798 372.919 119.798 373.557C119.798 374.199 119.645 374.764 119.34 375.252C119.035 375.737 118.595 376.118 118.022 376.392C117.452 376.667 116.768 376.805 115.971 376.805H112.066V366.38H113.96V375.257H115.971C116.391 375.257 116.748 375.178 117.039 375.018C117.331 374.859 117.552 374.648 117.701 374.387C117.854 374.126 117.93 373.842 117.93 373.537C117.93 373.096 117.76 372.721 117.421 372.412C117.085 372.1 116.602 371.944 115.971 371.944H113.324V370.407ZM122.593 366.38V376.805H120.699V366.38H122.593Z" fill="black"/>
<path opacity="0.4" d="M811.871 547.037H43.7969V459.046L546.35 490.499C546.35 490.499 807.439 430.071 811.871 428.042V427.99C811.947 427.99 811.947 428.008 811.871 428.042V547.037Z" fill="url(#paint1_linear_2961_1602)"/>
<rect x="808.074" y="424.008" width="8.17935" height="8.17935" rx="4.08967" fill="#04B34A"/>
<path d="M809.916 428.785L556.829 490.851C554.555 491.409 552.208 491.617 549.871 491.469L43.7956 459.443" stroke="#04B34A" stroke-width="3.18519"/>
<path d="M696.67 563.1V543.703L689.436 550.965L686.26 547.816L698.964 535.139L711.642 547.816L708.52 550.965L701.258 543.703V563.1H696.67Z" fill="#04B34A"/>
<path d="M732.112 563.73C729.777 563.721 727.768 563.146 726.085 562.006C724.411 560.866 723.122 559.215 722.217 557.052C721.321 554.889 720.878 552.288 720.887 549.247C720.887 546.216 721.335 543.633 722.23 541.497C723.135 539.361 724.425 537.737 726.099 536.624C727.782 535.502 729.786 534.941 732.112 534.941C734.437 534.941 736.437 535.502 738.111 536.624C739.794 537.746 741.088 539.375 741.993 541.511C742.898 543.637 743.346 546.216 743.337 549.247C743.337 552.297 742.884 554.903 741.979 557.065C741.084 559.228 739.799 560.88 738.125 562.02C736.451 563.16 734.446 563.73 732.112 563.73ZM732.112 558.857C733.704 558.857 734.976 558.056 735.926 556.455C736.876 554.853 737.346 552.451 737.337 549.247C737.337 547.139 737.12 545.383 736.686 543.981C736.261 542.578 735.654 541.524 734.867 540.818C734.089 540.113 733.17 539.76 732.112 539.76C730.528 539.76 729.261 540.551 728.311 542.135C727.361 543.718 726.881 546.089 726.872 549.247C726.872 551.383 727.085 553.165 727.51 554.595C727.945 556.016 728.555 557.084 729.343 557.798C730.13 558.504 731.053 558.857 732.112 558.857ZM752.354 559.319L752.205 560.812C752.088 562.006 751.861 563.196 751.526 564.381C751.201 565.576 750.857 566.657 750.495 567.625C750.142 568.594 749.857 569.354 749.64 569.906H745.894C746.029 569.372 746.215 568.625 746.45 567.666C746.685 566.716 746.907 565.648 747.115 564.463C747.323 563.277 747.455 562.069 747.509 560.839L747.577 559.319H752.354ZM767.124 563.499C765.205 563.499 763.495 563.146 761.993 562.44C760.5 561.735 759.315 560.762 758.437 559.522C757.559 558.283 757.102 556.862 757.066 555.26H762.767C762.83 556.337 763.283 557.21 764.124 557.88C764.966 558.549 765.966 558.884 767.124 558.884C768.047 558.884 768.861 558.681 769.567 558.273C770.282 557.857 770.838 557.283 771.237 556.55C771.644 555.808 771.847 554.957 771.847 553.998C771.847 553.021 771.639 552.161 771.223 551.419C770.816 550.677 770.25 550.098 769.526 549.682C768.802 549.265 767.974 549.053 767.042 549.044C766.228 549.044 765.436 549.211 764.667 549.546C763.907 549.881 763.314 550.338 762.889 550.917L757.663 549.98L758.98 535.321H775.974V540.126H763.826L763.106 547.089H763.269C763.758 546.401 764.495 545.831 765.481 545.379C766.468 544.926 767.572 544.7 768.793 544.7C770.467 544.7 771.96 545.094 773.272 545.881C774.585 546.668 775.621 547.75 776.381 549.125C777.141 550.492 777.516 552.066 777.507 553.849C777.516 555.722 777.082 557.387 776.204 558.844C775.336 560.291 774.119 561.432 772.553 562.264C770.997 563.087 769.187 563.499 767.124 563.499ZM796.43 557.907V556.441C796.43 555.328 796.665 554.306 797.136 553.374C797.616 552.432 798.308 551.681 799.213 551.12C800.127 550.55 801.24 550.265 802.552 550.265C803.882 550.265 804.999 550.546 805.904 551.107C806.818 551.668 807.506 552.419 807.967 553.36C808.438 554.292 808.673 555.319 808.673 556.441V557.907C808.673 559.02 808.438 560.047 807.967 560.988C807.497 561.92 806.805 562.667 805.891 563.228C804.977 563.798 803.864 564.083 802.552 564.083C801.221 564.083 800.104 563.798 799.199 563.228C798.294 562.667 797.606 561.92 797.136 560.988C796.665 560.047 796.43 559.02 796.43 557.907ZM800.38 556.441V557.907C800.38 558.549 800.534 559.156 800.841 559.726C801.158 560.296 801.728 560.581 802.552 560.581C803.375 560.581 803.936 560.3 804.235 559.739C804.542 559.178 804.696 558.568 804.696 557.907V556.441C804.696 555.781 804.551 555.165 804.262 554.595C803.972 554.025 803.402 553.74 802.552 553.74C801.737 553.74 801.172 554.025 800.855 554.595C800.538 555.165 800.38 555.781 800.38 556.441ZM782.165 541.999V540.533C782.165 539.411 782.404 538.384 782.884 537.452C783.364 536.511 784.056 535.76 784.961 535.199C785.875 534.638 786.979 534.357 788.273 534.357C789.612 534.357 790.734 534.638 791.639 535.199C792.544 535.76 793.231 536.511 793.702 537.452C794.172 538.384 794.408 539.411 794.408 540.533V541.999C794.408 543.121 794.168 544.148 793.688 545.08C793.218 546.012 792.526 546.759 791.612 547.32C790.707 547.872 789.594 548.148 788.273 548.148C786.951 548.148 785.834 547.867 784.92 547.306C784.015 546.736 783.327 545.99 782.857 545.067C782.395 544.135 782.165 543.112 782.165 541.999ZM786.142 540.533V541.999C786.142 542.66 786.295 543.271 786.603 543.832C786.92 544.393 787.476 544.673 788.273 544.673C789.105 544.673 789.671 544.393 789.969 543.832C790.277 543.271 790.431 542.66 790.431 541.999V540.533C790.431 539.873 790.286 539.257 789.996 538.687C789.707 538.117 789.132 537.832 788.273 537.832C787.467 537.832 786.911 538.122 786.603 538.701C786.295 539.28 786.142 539.891 786.142 540.533ZM783.956 563.119L803.067 535.321H806.624L787.513 563.119H783.956Z" fill="black"/>
<path d="M44.7549 444.89V443.335L50.2606 434.638H51.4861V436.928H50.7085L46.7705 443.161V443.261H54.3167V444.89H44.7549ZM50.7956 447.379V444.418L50.808 443.708V434.638H52.6308V447.379H50.7956ZM56.3075 447.379V445.985L60.6187 441.519C61.0791 441.033 61.4586 440.608 61.7572 440.243C62.0599 439.874 62.286 439.524 62.4353 439.192C62.5846 438.86 62.6592 438.508 62.6592 438.134C62.6592 437.711 62.5597 437.346 62.3606 437.039C62.1615 436.728 61.8899 436.49 61.5457 436.324C61.2014 436.154 60.8136 436.069 60.3823 436.069C59.9261 436.069 59.528 436.162 59.1879 436.349C58.8478 436.536 58.5865 436.799 58.404 437.139C58.2215 437.479 58.1303 437.877 58.1303 438.333H56.2951C56.2951 437.558 56.4734 436.88 56.8301 436.299C57.1868 435.719 57.6762 435.269 58.2983 434.949C58.9204 434.626 59.6275 434.464 60.4196 434.464C61.2201 434.464 61.9251 434.624 62.5348 434.943C63.1486 435.258 63.6276 435.69 63.9719 436.237C64.3161 436.78 64.4882 437.394 64.4882 438.078C64.4882 438.551 64.399 439.014 64.2207 439.466C64.0465 439.918 63.7417 440.422 63.3062 440.977C62.8707 441.529 62.2652 442.199 61.4897 442.987L58.9577 445.637V445.73H64.6935V447.379H56.3075ZM69.319 445.637L69.2256 446.315C69.1634 446.813 69.0577 447.331 68.9084 447.87C68.7632 448.414 68.6118 448.918 68.4542 449.382C68.3008 449.847 68.1743 450.216 68.0747 450.489H66.7559C66.8098 450.232 66.8844 449.884 66.9798 449.444C67.0752 449.009 67.1685 448.522 67.2598 447.982C67.351 447.443 67.4195 446.894 67.4651 446.334L67.5273 445.637H69.319ZM75.7174 447.553C74.863 447.553 74.0999 447.406 73.428 447.111C72.7603 446.817 72.2315 446.408 71.8417 445.886C71.456 445.359 71.2486 444.749 71.2196 444.057H73.173C73.1979 444.434 73.3244 444.762 73.5525 445.04C73.7847 445.314 74.0875 445.525 74.4607 445.674C74.834 445.824 75.2487 445.898 75.705 445.898C76.2068 445.898 76.6506 445.811 77.0363 445.637C77.4261 445.463 77.731 445.22 77.9508 444.909C78.1706 444.594 78.2805 444.231 78.2805 443.82C78.2805 443.393 78.1706 443.018 77.9508 442.694C77.7351 442.367 77.4178 442.11 76.9989 441.923C76.5842 441.736 76.0824 441.643 75.4934 441.643H74.4172V440.075H75.4934C75.9662 440.075 76.381 439.99 76.7377 439.82C77.0985 439.65 77.3805 439.414 77.5837 439.111C77.7869 438.804 77.8886 438.445 77.8886 438.035C77.8886 437.641 77.7994 437.299 77.621 437.008C77.4469 436.714 77.198 436.484 76.8745 436.318C76.5552 436.152 76.1778 436.069 75.7423 436.069C75.3275 436.069 74.9398 436.146 74.5789 436.299C74.2223 436.448 73.932 436.664 73.708 436.946C73.484 437.224 73.3638 437.558 73.3472 437.948H71.4871C71.5078 437.259 71.711 436.654 72.0967 436.131C72.4866 435.609 73.0009 435.2 73.6396 434.906C74.2783 434.611 74.9875 434.464 75.7672 434.464C76.5842 434.464 77.2893 434.624 77.8823 434.943C78.4796 435.258 78.9399 435.679 79.2634 436.206C79.5911 436.733 79.7528 437.309 79.7487 437.935C79.7528 438.649 79.5537 439.254 79.1514 439.752C78.7533 440.25 78.2224 440.583 77.5588 440.753V440.853C78.4049 440.982 79.0602 441.318 79.5247 441.861C79.9933 442.404 80.2256 443.078 80.2215 443.883C80.2256 444.584 80.0307 445.212 79.6367 445.768C79.2468 446.323 78.7139 446.761 78.0379 447.08C77.3618 447.395 76.5884 447.553 75.7174 447.553Z" fill="#CFCFCF"/>
<path d="M775.873 410.65V409.095L781.379 400.398H782.604V402.687H781.827L777.889 408.921V409.02H785.435V410.65H775.873ZM781.914 413.139V410.177L781.926 409.468V400.398H783.749V413.139H781.914ZM787.426 413.139V411.745L791.737 407.278C792.197 406.793 792.577 406.368 792.875 406.003C793.178 405.634 793.404 405.284 793.553 404.952C793.703 404.62 793.777 404.267 793.777 403.894C793.777 403.471 793.678 403.106 793.479 402.799C793.28 402.488 793.008 402.25 792.664 402.084C792.319 401.914 791.932 401.829 791.5 401.829C791.044 401.829 790.646 401.922 790.306 402.109C789.966 402.295 789.705 402.559 789.522 402.899C789.34 403.239 789.248 403.637 789.248 404.093H787.413C787.413 403.318 787.591 402.64 787.948 402.059C788.305 401.478 788.794 401.028 789.416 400.709C790.038 400.385 790.746 400.224 791.538 400.224C792.338 400.224 793.043 400.383 793.653 400.703C794.267 401.018 794.746 401.449 795.09 401.997C795.434 402.54 795.606 403.154 795.606 403.838C795.606 404.311 795.517 404.773 795.339 405.225C795.165 405.678 794.86 406.181 794.424 406.737C793.989 407.289 793.383 407.959 792.608 408.747L790.076 411.397V411.49H795.812V413.139H787.426ZM800.437 411.397L800.344 412.075C800.281 412.573 800.176 413.091 800.026 413.63C799.881 414.173 799.73 414.677 799.572 415.142C799.419 415.606 799.292 415.975 799.193 416.249H797.874C797.928 415.992 798.003 415.644 798.098 415.204C798.193 414.769 798.287 414.281 798.378 413.742C798.469 413.203 798.538 412.653 798.583 412.094L798.645 411.397H800.437ZM806.739 413.313C805.847 413.313 805.059 413.159 804.375 412.853C803.695 412.546 803.162 412.123 802.776 411.583C802.391 411.044 802.2 410.43 802.204 409.742C802.2 409.203 802.31 408.707 802.534 408.255C802.762 407.799 803.071 407.419 803.461 407.117C803.85 406.81 804.286 406.615 804.767 406.532V406.457C804.132 406.304 803.624 405.964 803.243 405.437C802.861 404.91 802.673 404.305 802.677 403.62C802.673 402.969 802.845 402.389 803.193 401.879C803.546 401.364 804.029 400.96 804.643 400.665C805.256 400.371 805.955 400.224 806.739 400.224C807.515 400.224 808.207 400.373 808.817 400.672C809.431 400.966 809.914 401.37 810.266 401.885C810.619 402.395 810.797 402.973 810.801 403.62C810.797 404.305 810.602 404.91 810.217 405.437C809.831 405.964 809.329 406.304 808.711 406.457V406.532C809.188 406.615 809.617 406.81 809.999 407.117C810.385 407.419 810.691 407.799 810.92 408.255C811.152 408.707 811.27 409.203 811.274 409.742C811.27 410.43 811.075 411.044 810.689 411.583C810.304 412.123 809.769 412.546 809.084 412.853C808.404 413.159 807.622 413.313 806.739 413.313ZM806.739 411.739C807.266 411.739 807.722 411.652 808.108 411.478C808.493 411.299 808.792 411.053 809.004 410.737C809.215 410.418 809.323 410.045 809.327 409.618C809.323 409.174 809.207 408.782 808.979 408.442C808.755 408.102 808.45 407.834 808.064 407.639C807.678 407.444 807.237 407.347 806.739 407.347C806.237 407.347 805.791 407.444 805.402 407.639C805.012 407.834 804.705 408.102 804.481 408.442C804.257 408.782 804.147 409.174 804.151 409.618C804.147 410.045 804.249 410.418 804.456 410.737C804.667 411.053 804.968 411.299 805.358 411.478C805.748 411.652 806.208 411.739 806.739 411.739ZM806.739 405.81C807.162 405.81 807.537 405.725 807.865 405.555C808.193 405.385 808.45 405.149 808.636 404.846C808.827 404.543 808.925 404.189 808.929 403.782C808.925 403.384 808.829 403.036 808.643 402.737C808.46 402.438 808.205 402.208 807.877 402.047C807.55 401.881 807.17 401.798 806.739 401.798C806.299 401.798 805.914 401.881 805.582 402.047C805.254 402.208 804.999 402.438 804.817 402.737C804.634 403.036 804.545 403.384 804.549 403.782C804.545 404.189 804.636 404.543 804.823 404.846C805.01 405.149 805.267 405.385 805.594 405.555C805.926 405.725 806.308 405.81 806.739 405.81Z" fill="#CFCFCF"/>
<rect x="437.166" y="99.6191" width="390.981" height="234.907" rx="15.9259" fill="#F7F7F7"/>
<path opacity="0.6" d="M459.062 120.657H457.159C457.104 120.345 457.004 120.069 456.858 119.828C456.712 119.583 456.531 119.376 456.314 119.207C456.096 119.037 455.849 118.91 455.57 118.825C455.296 118.737 454.999 118.693 454.68 118.693C454.113 118.693 453.611 118.835 453.173 119.12C452.735 119.402 452.393 119.816 452.145 120.362C451.897 120.905 451.773 121.568 451.773 122.352C451.773 123.15 451.897 123.822 452.145 124.368C452.396 124.911 452.739 125.321 453.173 125.6C453.611 125.875 454.111 126.012 454.675 126.012C454.987 126.012 455.279 125.971 455.55 125.89C455.825 125.805 456.071 125.681 456.288 125.518C456.509 125.355 456.694 125.155 456.843 124.918C456.996 124.68 457.101 124.409 457.159 124.103L459.062 124.113C458.991 124.609 458.837 125.074 458.599 125.508C458.365 125.942 458.058 126.326 457.678 126.658C457.298 126.988 456.853 127.245 456.344 127.432C455.835 127.615 455.27 127.707 454.649 127.707C453.733 127.707 452.915 127.495 452.196 127.071C451.476 126.647 450.91 126.034 450.496 125.233C450.082 124.432 449.875 123.472 449.875 122.352C449.875 121.229 450.084 120.269 450.501 119.471C450.918 118.671 451.487 118.058 452.206 117.634C452.925 117.21 453.74 116.998 454.649 116.998C455.229 116.998 455.769 117.079 456.268 117.242C456.767 117.405 457.211 117.644 457.601 117.96C457.992 118.272 458.312 118.655 458.563 119.11C458.818 119.561 458.984 120.077 459.062 120.657ZM463.438 127.564H461.422L465.092 117.14H467.423L471.098 127.564H469.082L466.298 119.278H466.217L463.438 127.564ZM463.504 123.477H469.001V124.994H463.504V123.477ZM473.904 127.564V117.14H475.793V121.553H480.623V117.14H482.516V127.564H480.623V123.136H475.793V127.564H473.904ZM492.249 127.564L488.818 123.009H487.892V127.564H486.004V117.14H487.892V121.426H488.365L492.071 117.14H494.397L490.279 121.894L494.575 127.564H492.249ZM496.833 118.723V117.14H505.15V118.723H501.928V127.564H500.055V118.723H496.833ZM512.2 121.594V123.111H507.507V121.594H512.2ZM524.158 117.14V127.564H522.285V118.708H517.725V127.564H515.851V117.14H524.158ZM527.85 127.564V117.14H534.63V118.723H529.739V121.553H534.279V123.136H529.739V125.981H534.671V127.564H527.85ZM537.532 118.723V117.14H545.849V118.723H542.627V127.564H540.754V118.723H537.532ZM548.886 127.564V117.14H555.665V118.723H550.774V121.553H555.314V123.136H550.774V125.981H555.706V127.564H548.886ZM559.025 127.564V117.14H562.934C563.735 117.14 564.407 117.29 564.95 117.588C565.496 117.887 565.909 118.297 566.187 118.82C566.468 119.339 566.609 119.93 566.609 120.591C566.609 121.26 566.468 121.854 566.187 122.373C565.905 122.892 565.489 123.301 564.94 123.599C564.39 123.895 563.713 124.042 562.909 124.042H560.318V122.49H562.654C563.123 122.49 563.506 122.408 563.805 122.245C564.103 122.083 564.324 121.859 564.466 121.574C564.612 121.289 564.685 120.961 564.685 120.591C564.685 120.221 564.612 119.896 564.466 119.614C564.324 119.332 564.102 119.113 563.8 118.957C563.501 118.798 563.116 118.718 562.644 118.718H560.914V127.564H559.025ZM569.683 127.564V117.14H576.386V118.723H571.571V121.166H573.582C574.379 121.166 575.063 121.297 575.633 121.558C576.206 121.816 576.646 122.181 576.951 122.653C577.257 123.124 577.409 123.679 577.409 124.317C577.409 124.958 577.257 125.523 576.951 126.012C576.646 126.497 576.206 126.877 575.633 127.152C575.063 127.427 574.379 127.564 573.582 127.564H569.683ZM571.571 126.017H573.582C574.003 126.017 574.359 125.937 574.651 125.778C574.942 125.618 575.163 125.408 575.312 125.147C575.465 124.885 575.541 124.602 575.541 124.297C575.541 123.856 575.372 123.481 575.032 123.172C574.696 122.86 574.213 122.704 573.582 122.704H571.571V126.017ZM581.426 127.707V126.119H582.021C582.29 126.119 582.51 126.08 582.683 126.002C582.856 125.924 582.995 125.812 583.101 125.666C583.209 125.52 583.299 125.35 583.37 125.157L583.508 124.806L579.782 117.14H581.757L584.353 122.719L586.597 117.14H588.542L584.948 125.64C584.782 126.007 584.59 126.348 584.373 126.664C584.156 126.976 583.872 127.229 583.523 127.422C583.177 127.612 582.726 127.707 582.169 127.707H581.426ZM591.32 127.564V117.14H595.229C596.03 117.14 596.702 117.29 597.245 117.588C597.791 117.887 598.203 118.297 598.482 118.82C598.763 119.339 598.904 119.93 598.904 120.591C598.904 121.26 598.763 121.854 598.482 122.373C598.2 122.892 597.784 123.301 597.235 123.599C596.685 123.895 596.008 124.042 595.204 124.042H592.613V122.49H594.949C595.417 122.49 595.801 122.408 596.1 122.245C596.398 122.083 596.619 121.859 596.761 121.574C596.907 121.289 596.98 120.961 596.98 120.591C596.98 120.221 596.907 119.896 596.761 119.614C596.619 119.332 596.396 119.113 596.094 118.957C595.796 118.798 595.411 118.718 594.939 118.718H593.208V127.564H591.32ZM608.681 117.14V118.723H603.866V127.564H601.978V117.14H608.681Z" fill="black"/>
<path opacity="0.4" d="M812.215 297.796H449.111V209.806L686.691 241.259C686.691 241.259 810.12 180.831 812.215 178.802V178.75C812.252 178.75 812.251 178.768 812.215 178.802V297.796Z" fill="url(#paint2_linear_2961_1602)"/>
<rect x="808.389" y="174.768" width="8.17935" height="8.17935" rx="4.08967" fill="#04B34A"/>
<path d="M810.23 179.545L695.803 239.078C691.582 241.274 686.787 242.113 682.072 241.48L449.11 210.202" stroke="#04B34A" stroke-width="3.18519"/>
<path d="M696.985 313.859V294.463L689.75 301.725L686.574 298.576L699.279 285.898L711.956 298.576L708.834 301.725L701.573 294.463V313.859H696.985Z" fill="#04B34A"/>
<path d="M732.538 314.49C730.204 314.481 728.195 313.906 726.512 312.766C724.838 311.626 723.548 309.974 722.643 307.812C721.747 305.649 721.304 303.047 721.313 300.007C721.313 296.976 721.761 294.392 722.657 292.257C723.562 290.121 724.851 288.497 726.525 287.384C728.208 286.262 730.213 285.701 732.538 285.701C734.864 285.701 736.863 286.262 738.537 287.384C740.221 288.506 741.515 290.135 742.419 292.27C743.324 294.397 743.772 296.976 743.763 300.007C743.763 303.057 743.311 305.663 742.406 307.825C741.51 309.988 740.225 311.639 738.551 312.779C736.877 313.92 734.873 314.49 732.538 314.49ZM732.538 309.617C734.131 309.617 735.402 308.816 736.352 307.214C737.302 305.613 737.773 303.21 737.764 300.007C737.764 297.899 737.547 296.143 737.112 294.741C736.687 293.338 736.081 292.284 735.293 291.578C734.515 290.872 733.597 290.519 732.538 290.519C730.955 290.519 729.688 291.311 728.738 292.895C727.787 294.478 727.308 296.849 727.299 300.007C727.299 302.143 727.511 303.925 727.937 305.355C728.371 306.776 728.982 307.843 729.769 308.558C730.556 309.264 731.479 309.617 732.538 309.617ZM752.781 310.078L752.632 311.571C752.514 312.766 752.288 313.956 751.953 315.141C751.627 316.336 751.283 317.417 750.921 318.385C750.568 319.353 750.283 320.114 750.066 320.666H746.32C746.456 320.132 746.641 319.385 746.877 318.426C747.112 317.476 747.333 316.408 747.542 315.223C747.75 314.037 747.881 312.829 747.935 311.599L748.003 310.078H752.781ZM767.001 314.259C764.974 314.259 763.168 313.911 761.585 313.214C760.01 312.508 758.766 311.54 757.852 310.309C756.947 309.069 756.481 307.64 756.454 306.02H762.372C762.408 306.699 762.63 307.296 763.037 307.812C763.453 308.318 764.005 308.712 764.693 308.993C765.381 309.273 766.154 309.413 767.014 309.413C767.91 309.413 768.702 309.255 769.389 308.938C770.077 308.622 770.616 308.183 771.005 307.622C771.394 307.061 771.588 306.414 771.588 305.681C771.588 304.939 771.38 304.283 770.964 303.713C770.557 303.133 769.969 302.681 769.199 302.355C768.439 302.029 767.534 301.867 766.485 301.867H763.892V297.55H766.485C767.372 297.55 768.154 297.396 768.833 297.089C769.521 296.781 770.055 296.356 770.435 295.813C770.815 295.261 771.005 294.618 771.005 293.886C771.005 293.189 770.837 292.578 770.502 292.053C770.177 291.519 769.715 291.103 769.118 290.804C768.53 290.506 767.842 290.356 767.055 290.356C766.259 290.356 765.53 290.501 764.87 290.791C764.209 291.071 763.68 291.474 763.281 291.999C762.883 292.524 762.671 293.139 762.644 293.845H757.011C757.038 292.243 757.495 290.832 758.382 289.61C759.268 288.388 760.463 287.434 761.965 286.746C763.476 286.049 765.182 285.701 767.082 285.701C769 285.701 770.679 286.049 772.118 286.746C773.556 287.443 774.674 288.384 775.47 289.569C776.276 290.746 776.674 292.067 776.665 293.533C776.674 295.089 776.19 296.388 775.212 297.428C774.244 298.469 772.982 299.129 771.425 299.41V299.627C773.47 299.889 775.027 300.6 776.095 301.758C777.171 302.907 777.705 304.346 777.696 306.074C777.705 307.658 777.248 309.065 776.325 310.296C775.411 311.526 774.149 312.494 772.538 313.2C770.928 313.906 769.082 314.259 767.001 314.259ZM796.745 308.667V307.201C796.745 306.088 796.98 305.065 797.45 304.133C797.93 303.192 798.622 302.441 799.527 301.88C800.441 301.31 801.554 301.025 802.866 301.025C804.196 301.025 805.314 301.306 806.219 301.867C807.133 302.428 807.82 303.179 808.282 304.12C808.752 305.052 808.988 306.079 808.988 307.201V308.667C808.988 309.78 808.752 310.807 808.282 311.748C807.811 312.68 807.119 313.426 806.205 313.987C805.291 314.558 804.178 314.843 802.866 314.843C801.536 314.843 800.418 314.558 799.514 313.987C798.609 313.426 797.921 312.68 797.45 311.748C796.98 310.807 796.745 309.78 796.745 308.667ZM800.694 307.201V308.667C800.694 309.309 800.848 309.916 801.156 310.486C801.473 311.056 802.043 311.341 802.866 311.341C803.69 311.341 804.251 311.06 804.549 310.499C804.857 309.938 805.011 309.327 805.011 308.667V307.201C805.011 306.54 804.866 305.925 804.576 305.355C804.287 304.785 803.717 304.5 802.866 304.5C802.052 304.5 801.486 304.785 801.169 305.355C800.853 305.925 800.694 306.54 800.694 307.201ZM782.479 292.759V291.293C782.479 290.171 782.719 289.144 783.198 288.212C783.678 287.271 784.37 286.52 785.275 285.959C786.189 285.398 787.293 285.117 788.587 285.117C789.926 285.117 791.048 285.398 791.953 285.959C792.858 286.52 793.546 287.271 794.016 288.212C794.487 289.144 794.722 290.171 794.722 291.293V292.759C794.722 293.881 794.482 294.908 794.003 295.84C793.532 296.772 792.84 297.519 791.926 298.08C791.021 298.632 789.908 298.908 788.587 298.908C787.266 298.908 786.148 298.627 785.234 298.066C784.33 297.496 783.642 296.749 783.171 295.827C782.71 294.894 782.479 293.872 782.479 292.759ZM786.456 291.293V292.759C786.456 293.42 786.61 294.03 786.918 294.591C787.234 295.152 787.791 295.433 788.587 295.433C789.42 295.433 789.985 295.152 790.284 294.591C790.591 294.03 790.745 293.42 790.745 292.759V291.293C790.745 290.632 790.6 290.017 790.311 289.447C790.021 288.877 789.447 288.592 788.587 288.592C787.782 288.592 787.225 288.882 786.918 289.461C786.61 290.04 786.456 290.651 786.456 291.293ZM784.271 313.879L803.382 286.081H806.938L787.827 313.879H784.271Z" fill="black"/>
<path d="M454.542 198.313C453.763 198.313 453.062 198.164 452.44 197.865C451.822 197.562 451.328 197.147 450.959 196.621C450.59 196.094 450.393 195.493 450.368 194.817H452.234C452.28 195.364 452.523 195.814 452.962 196.167C453.402 196.519 453.929 196.695 454.542 196.695C455.032 196.695 455.465 196.583 455.843 196.359C456.224 196.131 456.523 195.818 456.738 195.42C456.958 195.022 457.068 194.568 457.068 194.058C457.068 193.539 456.956 193.077 456.732 192.67C456.508 192.264 456.199 191.945 455.805 191.712C455.415 191.48 454.967 191.362 454.461 191.358C454.076 191.358 453.688 191.424 453.298 191.557C452.908 191.69 452.593 191.864 452.353 192.079L450.592 191.818L451.307 185.398H458.312V187.047H452.906L452.502 190.611H452.576C452.825 190.371 453.155 190.169 453.566 190.008C453.98 189.846 454.424 189.765 454.897 189.765C455.672 189.765 456.363 189.95 456.969 190.319C457.578 190.688 458.057 191.192 458.406 191.831C458.758 192.465 458.932 193.195 458.928 194.02C458.932 194.846 458.746 195.582 458.368 196.229C457.995 196.876 457.477 197.386 456.813 197.759C456.154 198.128 455.397 198.313 454.542 198.313ZM465.459 198.313C464.604 198.313 463.841 198.166 463.169 197.871C462.502 197.577 461.973 197.168 461.583 196.646C461.197 196.119 460.99 195.509 460.961 194.817H462.914C462.939 195.194 463.066 195.522 463.294 195.8C463.526 196.073 463.829 196.285 464.202 196.434C464.575 196.583 464.99 196.658 465.446 196.658C465.948 196.658 466.392 196.571 466.778 196.397C467.168 196.223 467.472 195.98 467.692 195.669C467.912 195.354 468.022 194.991 468.022 194.58C468.022 194.153 467.912 193.778 467.692 193.454C467.477 193.127 467.159 192.869 466.74 192.683C466.326 192.496 465.824 192.403 465.235 192.403H464.159V190.835H465.235C465.708 190.835 466.122 190.75 466.479 190.58C466.84 190.41 467.122 190.174 467.325 189.871C467.528 189.564 467.63 189.205 467.63 188.795C467.63 188.401 467.541 188.058 467.362 187.768C467.188 187.474 466.939 187.244 466.616 187.078C466.297 186.912 465.919 186.829 465.484 186.829C465.069 186.829 464.681 186.906 464.32 187.059C463.964 187.208 463.673 187.424 463.449 187.706C463.225 187.984 463.105 188.318 463.089 188.708H461.228C461.249 188.019 461.452 187.414 461.838 186.891C462.228 186.368 462.742 185.96 463.381 185.665C464.02 185.371 464.729 185.224 465.509 185.224C466.326 185.224 467.031 185.383 467.624 185.703C468.221 186.018 468.681 186.439 469.005 186.966C469.332 187.492 469.494 188.069 469.49 188.695C469.494 189.408 469.295 190.014 468.893 190.512C468.495 191.009 467.964 191.343 467.3 191.513V191.613C468.146 191.741 468.802 192.077 469.266 192.621C469.735 193.164 469.967 193.838 469.963 194.642C469.967 195.343 469.772 195.972 469.378 196.527C468.988 197.083 468.455 197.521 467.779 197.84C467.103 198.155 466.33 198.313 465.459 198.313ZM474.206 196.397L474.112 197.075C474.05 197.573 473.944 198.091 473.795 198.63C473.65 199.173 473.499 199.677 473.341 200.142C473.188 200.606 473.061 200.975 472.961 201.249H471.643C471.697 200.992 471.771 200.644 471.867 200.204C471.962 199.769 472.055 199.281 472.147 198.742C472.238 198.203 472.306 197.653 472.352 197.094L472.414 196.397H474.206ZM480.508 198.313C479.616 198.313 478.828 198.159 478.144 197.853C477.464 197.546 476.931 197.123 476.545 196.583C476.159 196.044 475.968 195.43 475.973 194.742C475.968 194.203 476.078 193.707 476.302 193.255C476.53 192.799 476.839 192.419 477.229 192.117C477.619 191.81 478.055 191.615 478.536 191.532V191.457C477.901 191.304 477.393 190.964 477.011 190.437C476.63 189.91 476.441 189.305 476.445 188.62C476.441 187.969 476.613 187.389 476.962 186.879C477.314 186.364 477.797 185.96 478.411 185.665C479.025 185.371 479.724 185.224 480.508 185.224C481.283 185.224 481.976 185.373 482.586 185.672C483.199 185.966 483.683 186.37 484.035 186.885C484.388 187.395 484.566 187.973 484.57 188.62C484.566 189.305 484.371 189.91 483.985 190.437C483.6 190.964 483.098 191.304 482.48 191.457V191.532C482.957 191.615 483.386 191.81 483.768 192.117C484.153 192.419 484.46 192.799 484.688 193.255C484.921 193.707 485.039 194.203 485.043 194.742C485.039 195.43 484.844 196.044 484.458 196.583C484.072 197.123 483.537 197.546 482.853 197.853C482.173 198.159 481.391 198.313 480.508 198.313ZM480.508 196.739C481.034 196.739 481.491 196.652 481.876 196.478C482.262 196.299 482.561 196.053 482.772 195.737C482.984 195.418 483.092 195.045 483.096 194.618C483.092 194.174 482.975 193.782 482.747 193.442C482.523 193.102 482.219 192.834 481.833 192.639C481.447 192.444 481.005 192.347 480.508 192.347C480.006 192.347 479.56 192.444 479.17 192.639C478.78 192.834 478.473 193.102 478.249 193.442C478.026 193.782 477.916 194.174 477.92 194.618C477.916 195.045 478.017 195.418 478.225 195.737C478.436 196.053 478.737 196.299 479.127 196.478C479.517 196.652 479.977 196.739 480.508 196.739ZM480.508 190.81C480.931 190.81 481.306 190.725 481.634 190.555C481.961 190.385 482.219 190.149 482.405 189.846C482.596 189.543 482.693 189.189 482.698 188.782C482.693 188.384 482.598 188.036 482.411 187.737C482.229 187.438 481.974 187.208 481.646 187.047C481.319 186.881 480.939 186.798 480.508 186.798C480.068 186.798 479.682 186.881 479.351 187.047C479.023 187.208 478.768 187.438 478.585 187.737C478.403 188.036 478.314 188.384 478.318 188.782C478.314 189.189 478.405 189.543 478.592 189.846C478.778 190.149 479.035 190.385 479.363 190.555C479.695 190.725 480.076 190.81 480.508 190.81Z" fill="#CFCFCF"/>
<path d="M784.92 164.073C784.141 164.073 783.44 163.923 782.818 163.625C782.2 163.322 781.706 162.907 781.337 162.38C780.968 161.854 780.771 161.252 780.746 160.576H782.612C782.658 161.124 782.9 161.574 783.34 161.926C783.78 162.279 784.306 162.455 784.92 162.455C785.41 162.455 785.843 162.343 786.22 162.119C786.602 161.891 786.901 161.578 787.116 161.18C787.336 160.782 787.446 160.328 787.446 159.817C787.446 159.299 787.334 158.837 787.11 158.43C786.886 158.024 786.577 157.704 786.183 157.472C785.793 157.24 785.345 157.122 784.839 157.117C784.454 157.117 784.066 157.184 783.676 157.317C783.286 157.449 782.971 157.623 782.73 157.839L780.97 157.578L781.685 151.158H788.69V152.806H783.284L782.88 156.371H782.954C783.203 156.13 783.533 155.929 783.944 155.768C784.358 155.606 784.802 155.525 785.275 155.525C786.05 155.525 786.741 155.709 787.346 156.079C787.956 156.448 788.435 156.952 788.784 157.59C789.136 158.225 789.31 158.955 789.306 159.78C789.31 160.605 789.124 161.342 788.746 161.989C788.373 162.636 787.855 163.146 787.191 163.519C786.532 163.888 785.775 164.073 784.92 164.073ZM791.134 161.41V159.855L796.639 151.158H797.865V153.447H797.087L793.149 159.681V159.78H800.695V161.41H791.134ZM797.174 163.898V160.937L797.187 160.228V151.158H799.009V163.898H797.174ZM804.652 162.157L804.559 162.835C804.497 163.332 804.391 163.851 804.241 164.39C804.096 164.933 803.945 165.437 803.787 165.902C803.634 166.366 803.507 166.735 803.408 167.009H802.089C802.143 166.752 802.218 166.403 802.313 165.964C802.408 165.528 802.502 165.041 802.593 164.502C802.684 163.963 802.753 163.413 802.798 162.853L802.86 162.157H804.652ZM810.371 151.158V163.898H808.442V153.086H808.368L805.319 155.077V153.236L808.498 151.158H810.371Z" fill="#CFCFCF"/>
<defs>
<linearGradient id="paint0_linear_2961_1602" x1="225.349" y1="224.314" x2="225.349" y2="297.573" gradientUnits="userSpaceOnUse">
<stop stop-color="#D9D9D9"/>
<stop offset="1" stop-color="#D9D9D9" stop-opacity="0"/>
</linearGradient>
<linearGradient id="paint1_linear_2961_1602" x1="427.834" y1="427.99" x2="427.834" y2="547.037" gradientUnits="userSpaceOnUse">
<stop stop-color="#04B34A"/>
<stop offset="0.0666667" stop-color="#04B34A" stop-opacity="0.991353"/>
<stop offset="0.133333" stop-color="#04B34A" stop-opacity="0.96449"/>
<stop offset="0.2" stop-color="#04B34A" stop-opacity="0.91834"/>
<stop offset="0.266667" stop-color="#04B34A" stop-opacity="0.852589"/>
<stop offset="0.333333" stop-color="#04B34A" stop-opacity="0.768225"/>
<stop offset="0.4" stop-color="#04B34A" stop-opacity="0.668116"/>
<stop offset="0.466667" stop-color="#04B34A" stop-opacity="0.557309"/>
<stop offset="0.533333" stop-color="#04B34A" stop-opacity="0.442691"/>
<stop offset="0.6" stop-color="#04B34A" stop-opacity="0.331884"/>
<stop offset="0.666667" stop-color="#04B34A" stop-opacity="0.231775"/>
<stop offset="0.733333" stop-color="#04B34A" stop-opacity="0.147411"/>
<stop offset="0.8" stop-color="#04B34A" stop-opacity="0.0816599"/>
<stop offset="0.866667" stop-color="#04B34A" stop-opacity="0.03551"/>
<stop offset="0.933333" stop-color="#04B34A" stop-opacity="0.01"/>
<stop offset="1" stop-color="#04B34A" stop-opacity="0"/>
</linearGradient>
<linearGradient id="paint2_linear_2961_1602" x1="630.663" y1="178.75" x2="630.663" y2="297.796" gradientUnits="userSpaceOnUse">
<stop stop-color="#04B34A"/>
<stop offset="0.0666667" stop-color="#04B34A" stop-opacity="0.991353"/>
<stop offset="0.133333" stop-color="#04B34A" stop-opacity="0.96449"/>
<stop offset="0.2" stop-color="#04B34A" stop-opacity="0.91834"/>
<stop offset="0.266667" stop-color="#04B34A" stop-opacity="0.852589"/>
<stop offset="0.333333" stop-color="#04B34A" stop-opacity="0.768225"/>
<stop offset="0.4" stop-color="#04B34A" stop-opacity="0.668116"/>
<stop offset="0.466667" stop-color="#04B34A" stop-opacity="0.557309"/>
<stop offset="0.533333" stop-color="#04B34A" stop-opacity="0.442691"/>
<stop offset="0.6" stop-color="#04B34A" stop-opacity="0.331884"/>
<stop offset="0.666667" stop-color="#04B34A" stop-opacity="0.231775"/>
<stop offset="0.733333" stop-color="#04B34A" stop-opacity="0.147411"/>
<stop offset="0.8" stop-color="#04B34A" stop-opacity="0.0816599"/>
<stop offset="0.866667" stop-color="#04B34A" stop-opacity="0.03551"/>
<stop offset="0.933333" stop-color="#04B34A" stop-opacity="0.01"/>
<stop offset="1" stop-color="#04B34A" stop-opacity="0"/>
</linearGradient>
</defs>
</svg>
