<svg width="860" height="614" viewBox="0 0 860 614" fill="none" xmlns="http://www.w3.org/2000/svg">
<rect width="860" height="614" fill="white"/>
<path d="M729.077 39.0176L726.947 51.6491H729.319L727.958 59.7213H723.567L724.217 55.875H712.946L712.297 59.7213H707.906L709.268 51.6491H710.951C711.721 50.6048 712.451 49.2268 713.273 46.3306L715.363 39.0176H729.08H729.077ZM723.501 43.2434H718.684L717.756 46.4962C716.947 49.3211 716.279 50.6025 715.604 51.6491H722.084L723.501 43.2434Z" fill="#EAECEF"/>
<path d="M732.948 39.0176H743.39C747.069 39.0176 748.722 40.8924 748.264 43.6C747.971 45.3322 746.668 46.4479 745.445 46.9471C746.781 47.4693 747.838 48.7989 747.453 51.0786C746.965 53.9749 744.604 55.875 740.688 55.875H730.104L732.948 39.0176ZM736.012 49.1325L735.514 52.077H740.308C741.589 52.077 742.381 51.6031 742.549 50.6047C742.722 49.5834 742.086 49.1325 740.803 49.1325H736.01H736.012ZM737.076 42.8179L736.652 45.3345H741.374C742.372 45.3345 743.072 44.9779 743.224 44.0762C743.376 43.1744 742.796 42.8179 741.798 42.8179H737.076Z" fill="#EAECEF"/>
<path d="M751.28 39.0176H756.145L754.431 49.1785L763.571 39.0176H768.436L765.594 55.875H760.729L762.436 45.7601L753.302 55.875H748.438L751.28 39.0176Z" fill="#EAECEF"/>
<path d="M775.67 47.138L769.944 39.0176H775.449L780.219 45.9027L781.383 39.0176H786.01L784.849 45.9027L791.944 39.0176H797.332L789.092 46.9241L794.844 55.875H788.982L784.382 48.6816L783.168 55.875H778.54L779.754 48.6816L772.726 55.875H767.078L775.672 47.138H775.67Z" fill="#EAECEF"/>
<path d="M804.437 39.0176H798.789L804.412 46.9241L796.066 55.875H801.714L810.06 46.9241L804.437 39.0176ZM813.365 39.0176H807.717L813.34 46.9241L804.995 55.875H810.643L818.988 46.9241L813.365 39.0176ZM822.524 39.0176H816.876L822.499 46.9241L814.153 55.875H819.801L828.147 46.9241L822.524 39.0176Z" fill="#EAECEF"/>
<path d="M51.3868 39.0031V59.8516H47.0298V42.5864H38.6009V59.8516H34.2438V39.0031H51.3868ZM54.3554 65.7152V44.2152H58.631V46.8416H58.8244C59.0144 46.4208 59.2893 45.9933 59.649 45.5589C60.0154 45.1178 60.4905 44.7513 61.0742 44.4595C61.6646 44.1609 62.3975 44.0116 63.273 44.0116C64.4132 44.0116 65.4651 44.3102 66.4288 44.9074C67.3925 45.4979 68.1628 46.3903 68.7396 47.5848C69.3165 48.7724 69.6049 50.2621 69.6049 52.0537C69.6049 53.7979 69.3233 55.2706 68.76 56.4718C68.2035 57.6663 67.4434 58.5723 66.4797 59.1899C65.5228 59.8007 64.4505 60.1061 63.2628 60.1061C62.4213 60.1061 61.7053 59.9669 61.1149 59.6887C60.5312 59.4104 60.0528 59.0609 59.6795 58.6402C59.3062 58.2126 59.0212 57.7816 58.8244 57.3473H58.6921V65.7152H54.3554ZM58.6004 52.0334C58.6004 52.9631 58.7294 53.7741 58.9873 54.4664C59.2452 55.1586 59.6184 55.6982 60.1071 56.085C60.5957 56.465 61.1895 56.6551 61.8885 56.6551C62.5944 56.6551 63.1916 56.4616 63.6802 56.0748C64.1689 55.6812 64.5387 55.1383 64.7898 54.446C65.0477 53.747 65.1767 52.9428 65.1767 52.0334C65.1767 51.1308 65.0511 50.3367 64.8 49.6513C64.5489 48.9658 64.179 48.4297 63.6904 48.0428C63.2018 47.656 62.6011 47.4626 61.8885 47.4626C61.1827 47.4626 60.5855 47.6492 60.0969 48.0225C59.615 48.3958 59.2452 48.9251 58.9873 49.6106C58.7294 50.296 58.6004 51.1036 58.6004 52.0334ZM78.4142 60.157C76.8329 60.157 75.4654 59.821 74.3117 59.1491C73.1648 58.4705 72.2791 57.5271 71.6548 56.3191C71.0304 55.1043 70.7182 53.6961 70.7182 52.0945C70.7182 50.4792 71.0304 49.0676 71.6548 47.8596C72.2791 46.6448 73.1648 45.7015 74.3117 45.0296C75.4654 44.3509 76.8329 44.0116 78.4142 44.0116C79.9955 44.0116 81.3596 44.3509 82.5066 45.0296C83.6603 45.7015 84.5493 46.6448 85.1737 47.8596C85.7981 49.0676 86.1103 50.4792 86.1103 52.0945C86.1103 53.6961 85.7981 55.1043 85.1737 56.3191C84.5493 57.5271 83.6603 58.4705 82.5066 59.1491C81.3596 59.821 79.9955 60.157 78.4142 60.157ZM78.4346 56.7976C79.154 56.7976 79.7546 56.594 80.2364 56.1868C80.7183 55.7728 81.0814 55.2095 81.3257 54.4969C81.5768 53.7843 81.7023 52.9733 81.7023 52.0639C81.7023 51.1545 81.5768 50.3435 81.3257 49.6309C81.0814 48.9183 80.7183 48.355 80.2364 47.9411C79.7546 47.5271 79.154 47.3201 78.4346 47.3201C77.7084 47.3201 77.0976 47.5271 76.6022 47.9411C76.1136 48.355 75.7437 48.9183 75.4926 49.6309C75.2483 50.3435 75.1261 51.1545 75.1261 52.0639C75.1261 52.9733 75.2483 53.7843 75.4926 54.4969C75.7437 55.2095 76.1136 55.7728 76.6022 56.1868C77.0976 56.594 77.7084 56.7976 78.4346 56.7976ZM101.455 44.2152V56.8587H103.949V64.8804H99.7347V59.8516H87.7834V44.2152H91.9267V56.4413H97.3627V44.2152H101.455ZM112.435 60.157C110.827 60.157 109.442 59.8312 108.282 59.1797C107.128 58.5214 106.239 57.5916 105.615 56.3904C104.99 55.1824 104.678 53.7538 104.678 52.1046C104.678 50.4962 104.99 49.0846 105.615 47.8698C106.239 46.655 107.118 45.7083 108.251 45.0296C109.391 44.3509 110.728 44.0116 112.262 44.0116C113.294 44.0116 114.254 44.1779 115.143 44.5104C116.039 44.8362 116.819 45.3282 117.484 45.9865C118.156 46.6448 118.679 47.4728 119.052 48.4704C119.425 49.4613 119.612 50.6218 119.612 51.9519V53.143H106.409V50.4555H115.53C115.53 49.8311 115.394 49.278 115.123 48.7962C114.851 48.3143 114.475 47.9377 113.993 47.6662C113.518 47.3879 112.965 47.2488 112.333 47.2488C111.675 47.2488 111.091 47.4015 110.582 47.7069C110.08 48.0055 109.687 48.4093 109.402 48.9183C109.117 49.4205 108.971 49.9804 108.964 50.598V53.1532C108.964 53.9268 109.106 54.5953 109.391 55.1586C109.683 55.7219 110.094 56.1563 110.623 56.4616C111.153 56.767 111.78 56.9197 112.506 56.9197C112.988 56.9197 113.429 56.8519 113.83 56.7161C114.23 56.5804 114.573 56.3768 114.858 56.1054C115.143 55.8339 115.36 55.5013 115.51 55.1077L119.52 55.3724C119.317 56.3361 118.899 57.1776 118.268 57.897C117.644 58.6096 116.836 59.1661 115.846 59.5665C114.861 59.9601 113.725 60.157 112.435 60.157ZM132.178 50.3028V53.7131H124.013V50.3028H132.178ZM125.439 44.2152V59.8516H121.295V44.2152H125.439ZM134.896 44.2152V59.8516H130.783V44.2152H134.896ZM135.543 47.6255V44.2152H149.714V47.6255H144.675V59.8516H140.542V47.6255H135.543ZM163.749 60.157C162.168 60.157 160.8 59.821 159.647 59.1491C158.5 58.4705 157.614 57.5271 156.99 56.3191C156.365 55.1043 156.053 53.6961 156.053 52.0945C156.053 50.4792 156.365 49.0676 156.99 47.8596C157.614 46.6448 158.5 45.7015 159.647 45.0296C160.8 44.3509 162.168 44.0116 163.749 44.0116C165.33 44.0116 166.694 44.3509 167.841 45.0296C168.995 45.7015 169.884 46.6448 170.509 47.8596C171.133 49.0676 171.445 50.4792 171.445 52.0945C171.445 53.6961 171.133 55.1043 170.509 56.3191C169.884 57.5271 168.995 58.4705 167.841 59.1491C166.694 59.821 165.33 60.157 163.749 60.157ZM163.769 56.7976C164.489 56.7976 165.089 56.594 165.571 56.1868C166.053 55.7728 166.416 55.2095 166.661 54.4969C166.912 53.7843 167.037 52.9733 167.037 52.0639C167.037 51.1545 166.912 50.3435 166.661 49.6309C166.416 48.9183 166.053 48.355 165.571 47.9411C165.089 47.5271 164.489 47.3201 163.769 47.3201C163.043 47.3201 162.432 47.5271 161.937 47.9411C161.448 48.355 161.079 48.9183 160.827 49.6309C160.583 50.3435 160.461 51.1545 160.461 52.0639C160.461 52.9733 160.583 53.7843 160.827 54.4969C161.079 55.2095 161.448 55.7728 161.937 56.1868C162.432 56.594 163.043 56.7976 163.769 56.7976ZM171.897 64.4325V56.4107H173.098C173.444 56.1936 173.722 55.8475 173.933 55.3724C174.15 54.8973 174.326 54.3374 174.462 53.6927C174.605 53.048 174.713 52.3524 174.788 51.6058C174.869 50.8525 174.94 50.0924 175.002 49.3255L175.409 44.2152H187.401V56.4107H189.824V64.4325H185.69V59.8516H176.132V64.4325H171.897ZM177.414 56.4107H183.308V47.5542H179.094L178.931 49.3255C178.816 50.995 178.649 52.4134 178.432 53.5807C178.215 54.7412 177.876 55.6846 177.414 56.4107ZM198.269 60.157C196.688 60.157 195.32 59.821 194.166 59.1491C193.019 58.4705 192.134 57.5271 191.509 56.3191C190.885 55.1043 190.573 53.6961 190.573 52.0945C190.573 50.4792 190.885 49.0676 191.509 47.8596C192.134 46.6448 193.019 45.7015 194.166 45.0296C195.32 44.3509 196.688 44.0116 198.269 44.0116C199.85 44.0116 201.214 44.3509 202.361 45.0296C203.515 45.7015 204.404 46.6448 205.028 47.8596C205.653 49.0676 205.965 50.4792 205.965 52.0945C205.965 53.6961 205.653 55.1043 205.028 56.3191C204.404 57.5271 203.515 58.4705 202.361 59.1491C201.214 59.821 199.85 60.157 198.269 60.157ZM198.289 56.7976C199.009 56.7976 199.609 56.594 200.091 56.1868C200.573 55.7728 200.936 55.2095 201.18 54.4969C201.431 53.7843 201.557 52.9733 201.557 52.0639C201.557 51.1545 201.431 50.3435 201.18 49.6309C200.936 48.9183 200.573 48.355 200.091 47.9411C199.609 47.5271 199.009 47.3201 198.289 47.3201C197.563 47.3201 196.952 47.5271 196.457 47.9411C195.968 48.355 195.598 48.9183 195.347 49.6309C195.103 50.3435 194.981 51.1545 194.981 52.0639C194.981 52.9733 195.103 53.7843 195.347 54.4969C195.598 55.2095 195.968 55.7728 196.457 56.1868C196.952 56.594 197.563 56.7976 198.289 56.7976ZM220.638 38.4737L221.961 41.3037C221.52 41.6702 221.031 41.9417 220.495 42.1181C219.959 42.2878 219.318 42.3998 218.571 42.4541C217.832 42.5084 216.929 42.5457 215.863 42.5661C214.655 42.5796 213.671 42.773 212.911 43.1463C212.151 43.5196 211.574 44.1066 211.181 44.9074C210.787 45.7015 210.529 46.7398 210.407 48.0225H210.56C211.028 47.0656 211.686 46.3258 212.535 45.8033C213.39 45.2807 214.445 45.0194 215.701 45.0194C217.031 45.0194 218.195 45.3112 219.192 45.8949C220.197 46.4785 220.977 47.3167 221.534 48.4093C222.09 49.502 222.368 50.8118 222.368 52.3388C222.368 53.9268 222.056 55.3079 221.432 56.482C220.814 57.6493 219.935 58.5553 218.795 59.2C217.655 59.838 216.298 60.157 214.723 60.157C213.142 60.157 211.778 59.8244 210.631 59.1593C209.491 58.4942 208.609 57.5136 207.984 56.2173C207.367 54.9211 207.058 53.3262 207.058 51.4328V50.1501C207.058 46.3835 207.791 43.5908 209.257 41.772C210.723 39.9532 212.877 39.0302 215.721 39.0031C216.495 38.9895 217.194 38.9861 217.818 38.9929C218.442 38.9997 218.989 38.9691 219.457 38.9013C219.932 38.8334 220.326 38.6909 220.638 38.4737ZM214.744 56.7976C215.409 56.7976 215.979 56.6245 216.454 56.2784C216.936 55.9323 217.306 55.4369 217.564 54.7921C217.828 54.1474 217.961 53.3771 217.961 52.4813C217.961 51.5923 217.828 50.8389 217.564 50.2214C217.306 49.597 216.936 49.1219 216.454 48.7962C215.972 48.4704 215.395 48.3075 214.723 48.3075C214.221 48.3075 213.77 48.3991 213.369 48.5824C212.969 48.7656 212.626 49.0371 212.341 49.3968C212.063 49.7497 211.846 50.1874 211.69 50.71C211.54 51.2258 211.466 51.8162 211.466 52.4813C211.466 53.8183 211.754 54.8736 212.331 55.6473C212.915 56.4141 213.719 56.7976 214.744 56.7976ZM224.1 65.7152V44.2152H228.376V46.8416H228.569C228.759 46.4208 229.034 45.9933 229.394 45.5589C229.76 45.1178 230.235 44.7513 230.819 44.4595C231.409 44.1609 232.142 44.0116 233.018 44.0116C234.158 44.0116 235.21 44.3102 236.174 44.9074C237.137 45.4979 237.908 46.3903 238.484 47.5848C239.061 48.7724 239.35 50.2621 239.35 52.0537C239.35 53.7979 239.068 55.2706 238.505 56.4718C237.948 57.6663 237.188 58.5723 236.224 59.1899C235.268 59.8007 234.195 60.1061 233.008 60.1061C232.166 60.1061 231.45 59.9669 230.86 59.6887C230.276 59.4104 229.798 59.0609 229.424 58.6402C229.051 58.2126 228.766 57.7816 228.569 57.3473H228.437V65.7152H224.1ZM228.345 52.0334C228.345 52.9631 228.474 53.7741 228.732 54.4664C228.99 55.1586 229.363 55.6982 229.852 56.085C230.34 56.465 230.934 56.6551 231.633 56.6551C232.339 56.6551 232.936 56.4616 233.425 56.0748C233.914 55.6812 234.283 55.1383 234.535 54.446C234.792 53.747 234.921 52.9428 234.921 52.0334C234.921 51.1308 234.796 50.3367 234.545 49.6513C234.294 48.9658 233.924 48.4297 233.435 48.0428C232.946 47.656 232.346 47.4626 231.633 47.4626C230.927 47.4626 230.33 47.6492 229.842 48.0225C229.36 48.3958 228.99 48.9251 228.732 49.6106C228.474 50.296 228.345 51.1036 228.345 52.0334ZM248.22 60.157C246.612 60.157 245.227 59.8312 244.067 59.1797C242.913 58.5214 242.024 57.5916 241.399 56.3904C240.775 55.1824 240.463 53.7538 240.463 52.1046C240.463 50.4962 240.775 49.0846 241.399 47.8698C242.024 46.655 242.903 45.7083 244.036 45.0296C245.176 44.3509 246.513 44.0116 248.047 44.0116C249.079 44.0116 250.039 44.1779 250.928 44.5104C251.824 44.8362 252.604 45.3282 253.269 45.9865C253.941 46.6448 254.464 47.4728 254.837 48.4704C255.21 49.4613 255.397 50.6218 255.397 51.9519V53.143H242.194V50.4555H251.315C251.315 49.8311 251.179 49.278 250.908 48.7962C250.636 48.3143 250.259 47.9377 249.778 47.6662C249.303 47.3879 248.749 47.2488 248.118 47.2488C247.46 47.2488 246.876 47.4015 246.367 47.7069C245.865 48.0055 245.471 48.4093 245.186 48.9183C244.901 49.4205 244.755 49.9804 244.749 50.598V53.1532C244.749 53.9268 244.891 54.5953 245.176 55.1586C245.468 55.7219 245.879 56.1563 246.408 56.4616C246.937 56.767 247.565 56.9197 248.291 56.9197C248.773 56.9197 249.214 56.8519 249.615 56.7161C250.015 56.5804 250.358 56.3768 250.643 56.1054C250.928 55.8339 251.145 55.5013 251.294 55.1077L255.305 55.3724C255.102 56.3361 254.684 57.1776 254.053 57.897C253.429 58.6096 252.621 59.1661 251.63 59.5665C250.646 59.9601 249.51 60.157 248.22 60.157ZM267.963 50.3028V53.7131H259.798V50.3028H267.963ZM261.223 44.2152V59.8516H257.08V44.2152H261.223ZM270.681 44.2152V59.8516H266.568V44.2152H270.681ZM277.042 54.1304L282.671 44.2152H286.947V59.8516H282.814V49.9058L277.205 59.8516H272.898V44.2152H277.042V54.1304ZM298.438 59.8516V47.6153H295.507C294.713 47.6153 294.109 47.7985 293.695 48.165C293.281 48.5315 293.077 48.9658 293.084 49.468C293.077 49.977 293.274 50.408 293.674 50.7609C294.081 51.107 294.679 51.2801 295.466 51.2801H299.884V54.2119H295.466C294.129 54.2119 292.972 54.0083 291.995 53.6011C291.017 53.1939 290.264 52.6272 289.735 51.901C289.205 51.1681 288.944 50.3164 288.951 49.3459C288.944 48.3279 289.205 47.4354 289.735 46.6686C290.264 45.8949 291.021 45.2943 292.005 44.8667C292.996 44.4324 294.163 44.2152 295.507 44.2152H302.48V59.8516H298.438ZM288.503 59.8516L292.85 51.7076H296.993L292.656 59.8516H288.503ZM310.191 59.8516V44.2152H323.862V59.8516H319.719V47.6255H314.283V59.8516H310.191ZM333.242 60.157C331.661 60.157 330.293 59.821 329.139 59.1491C327.992 58.4705 327.107 57.5271 326.482 56.3191C325.858 55.1043 325.546 53.6961 325.546 52.0945C325.546 50.4792 325.858 49.0676 326.482 47.8596C327.107 46.6448 327.992 45.7015 329.139 45.0296C330.293 44.3509 331.661 44.0116 333.242 44.0116C334.823 44.0116 336.187 44.3509 337.334 45.0296C338.488 45.7015 339.377 46.6448 340.001 47.8596C340.626 49.0676 340.938 50.4792 340.938 52.0945C340.938 53.6961 340.626 55.1043 340.001 56.3191C339.377 57.5271 338.488 58.4705 337.334 59.1491C336.187 59.821 334.823 60.157 333.242 60.157ZM333.262 56.7976C333.982 56.7976 334.582 56.594 335.064 56.1868C335.546 55.7728 335.909 55.2095 336.153 54.4969C336.404 53.7843 336.53 52.9733 336.53 52.0639C336.53 51.1545 336.404 50.3435 336.153 49.6309C335.909 48.9183 335.546 48.355 335.064 47.9411C334.582 47.5271 333.982 47.3201 333.262 47.3201C332.536 47.3201 331.925 47.5271 331.43 47.9411C330.941 48.355 330.571 48.9183 330.32 49.6309C330.076 50.3435 329.954 51.1545 329.954 52.0639C329.954 52.9733 330.076 53.7843 330.32 54.4969C330.571 55.2095 330.941 55.7728 331.43 56.1868C331.925 56.594 332.536 56.7976 333.262 56.7976ZM348.099 65.7152V44.2152H352.375V46.8416H352.568C352.758 46.4208 353.033 45.9933 353.393 45.5589C353.759 45.1178 354.234 44.7513 354.818 44.4595C355.408 44.1609 356.141 44.0116 357.017 44.0116C358.157 44.0116 359.209 44.3102 360.173 44.9074C361.136 45.4979 361.907 46.3903 362.483 47.5848C363.06 48.7724 363.349 50.2621 363.349 52.0537C363.349 53.7979 363.067 55.2706 362.504 56.4718C361.947 57.6663 361.187 58.5723 360.223 59.1899C359.267 59.8007 358.194 60.1061 357.007 60.1061C356.165 60.1061 355.449 59.9669 354.859 59.6887C354.275 59.4104 353.797 59.0609 353.423 58.6402C353.05 58.2126 352.765 57.7816 352.568 57.3473H352.436V65.7152H348.099ZM352.344 52.0334C352.344 52.9631 352.473 53.7741 352.731 54.4664C352.989 55.1586 353.362 55.6982 353.851 56.085C354.339 56.465 354.933 56.6551 355.632 56.6551C356.338 56.6551 356.935 56.4616 357.424 56.0748C357.913 55.6812 358.282 55.1383 358.534 54.446C358.791 53.747 358.92 52.9428 358.92 52.0334C358.92 51.1308 358.795 50.3367 358.544 49.6513C358.293 48.9658 357.923 48.4297 357.434 48.0428C356.946 47.656 356.345 47.4626 355.632 47.4626C354.926 47.4626 354.329 47.6492 353.841 48.0225C353.359 48.3958 352.989 48.9251 352.731 49.6106C352.473 50.296 352.344 51.1036 352.344 52.0334ZM372.219 60.157C370.611 60.157 369.226 59.8312 368.066 59.1797C366.912 58.5214 366.023 57.5916 365.399 56.3904C364.774 55.1824 364.462 53.7538 364.462 52.1046C364.462 50.4962 364.774 49.0846 365.399 47.8698C366.023 46.655 366.902 45.7083 368.035 45.0296C369.175 44.3509 370.512 44.0116 372.046 44.0116C373.078 44.0116 374.038 44.1779 374.927 44.5104C375.823 44.8362 376.603 45.3282 377.268 45.9865C377.94 46.6448 378.463 47.4728 378.836 48.4704C379.209 49.4613 379.396 50.6218 379.396 51.9519V53.143H366.193V50.4555H375.314C375.314 49.8311 375.178 49.278 374.907 48.7962C374.635 48.3143 374.258 47.9377 373.777 47.6662C373.302 47.3879 372.748 47.2488 372.117 47.2488C371.459 47.2488 370.875 47.4015 370.366 47.7069C369.864 48.0055 369.47 48.4093 369.185 48.9183C368.9 49.4205 368.754 49.9804 368.748 50.598V53.1532C368.748 53.9268 368.89 54.5953 369.175 55.1586C369.467 55.7219 369.878 56.1563 370.407 56.4616C370.936 56.767 371.564 56.9197 372.29 56.9197C372.772 56.9197 373.213 56.8519 373.614 56.7161C374.014 56.5804 374.357 56.3768 374.642 56.1054C374.927 55.8339 375.144 55.5013 375.293 55.1077L379.304 55.3724C379.101 56.3361 378.683 57.1776 378.052 57.897C377.428 58.6096 376.62 59.1661 375.629 59.5665C374.645 59.9601 373.509 60.157 372.219 60.157ZM391.789 44.2152V47.6255H385.294V59.8516H381.079V44.2152H391.789ZM397.429 54.1304L403.059 44.2152H407.334V59.8516H403.201V49.9058L397.592 59.8516H393.286V44.2152H397.429V54.1304ZM416.729 60.157C415.148 60.157 413.78 59.821 412.627 59.1491C411.48 58.4705 410.594 57.5271 409.97 56.3191C409.345 55.1043 409.033 53.6961 409.033 52.0945C409.033 50.4792 409.345 49.0676 409.97 47.8596C410.594 46.6448 411.48 45.7015 412.627 45.0296C413.78 44.3509 415.148 44.0116 416.729 44.0116C418.31 44.0116 419.674 44.3509 420.821 45.0296C421.975 45.7015 422.864 46.6448 423.489 47.8596C424.113 49.0676 424.425 50.4792 424.425 52.0945C424.425 53.6961 424.113 55.1043 423.489 56.3191C422.864 57.5271 421.975 58.4705 420.821 59.1491C419.674 59.821 418.31 60.157 416.729 60.157ZM416.749 56.7976C417.469 56.7976 418.069 56.594 418.551 56.1868C419.033 55.7728 419.396 55.2095 419.641 54.4969C419.892 53.7843 420.017 52.9733 420.017 52.0639C420.017 51.1545 419.892 50.3435 419.641 49.6309C419.396 48.9183 419.033 48.355 418.551 47.9411C418.069 47.5271 417.469 47.3201 416.749 47.3201C416.023 47.3201 415.412 47.5271 414.917 47.9411C414.428 48.355 414.059 48.9183 413.807 49.6309C413.563 50.3435 413.441 51.1545 413.441 52.0639C413.441 52.9733 413.563 53.7843 413.807 54.4969C414.059 55.2095 414.428 55.7728 414.917 56.1868C415.412 56.594 416.023 56.7976 416.749 56.7976ZM436.981 50.3028V53.7131H428.816V50.3028H436.981ZM430.241 44.2152V59.8516H426.098V44.2152H430.241ZM439.699 44.2152V59.8516H435.586V44.2152H439.699ZM446.375 60.1468C445.378 60.1468 444.489 59.9737 443.708 59.6276C442.928 59.2747 442.31 58.7555 441.855 58.0701C441.407 57.3778 441.183 56.5159 441.183 55.4844C441.183 54.6157 441.343 53.8861 441.662 53.2957C441.981 52.7053 442.415 52.2302 442.965 51.8705C443.515 51.5108 444.139 51.2393 444.838 51.0561C445.544 50.8729 446.284 50.7439 447.057 50.6693C447.967 50.5743 448.7 50.486 449.256 50.4046C449.813 50.3164 450.216 50.1874 450.468 50.0178C450.719 49.8481 450.844 49.597 450.844 49.2644V49.2034C450.844 48.5586 450.641 48.0598 450.233 47.7069C449.833 47.354 449.263 47.1776 448.523 47.1776C447.743 47.1776 447.122 47.3506 446.66 47.6967C446.199 48.0361 445.893 48.4636 445.744 48.9794L441.733 48.6536C441.937 47.7035 442.337 46.8823 442.934 46.1901C443.532 45.4911 444.302 44.9549 445.245 44.5817C446.195 44.2016 447.295 44.0116 448.544 44.0116C449.412 44.0116 450.244 44.1134 451.038 44.317C451.838 44.5206 452.548 44.8362 453.165 45.2637C453.79 45.6913 454.282 46.241 454.641 46.9129C455.001 47.578 455.181 48.3754 455.181 49.3052V59.8516H451.068V57.6832H450.946C450.695 58.1719 450.359 58.6028 449.938 58.9761C449.517 59.3426 449.012 59.631 448.421 59.8414C447.831 60.045 447.149 60.1468 446.375 60.1468ZM447.617 57.1539C448.255 57.1539 448.818 57.0283 449.307 56.7772C449.796 56.5193 450.179 56.1732 450.457 55.7389C450.736 55.3045 450.875 54.8125 450.875 54.2628V52.6035C450.739 52.6917 450.552 52.7731 450.315 52.8478C450.084 52.9156 449.823 52.9801 449.531 53.0412C449.239 53.0955 448.947 53.1464 448.656 53.1939C448.364 53.2346 448.099 53.2719 447.861 53.3059C447.352 53.3805 446.908 53.4993 446.528 53.6622C446.148 53.825 445.853 54.0456 445.642 54.3239C445.432 54.5953 445.327 54.9347 445.327 55.3419C445.327 55.9323 445.54 56.3836 445.968 56.6958C446.402 57.0012 446.952 57.1539 447.617 57.1539ZM466.642 55.0568L470.877 44.2152H474.175L468.077 59.8516H465.196L459.241 44.2152H462.529L466.642 55.0568ZM461.542 44.2152V59.8516H457.399V44.2152H461.542ZM471.956 59.8516V44.2152H476.048V59.8516H471.956Z" fill="black"/>
<rect x="31.8516" y="98.7402" width="390.981" height="234.907" rx="15.9259" fill="#F7F7F7"/>
<path opacity="0.6" d="M44.825 116.261H47.1359L50.2306 123.815H50.3527L53.4474 116.261H55.7583V126.686H53.9463V119.524H53.8496L50.9686 126.655H49.6147L46.7338 119.509H46.6371V126.686H44.825V116.261ZM68.5626 121.473C68.5626 122.597 68.3522 123.559 67.9314 124.359C67.5141 125.157 66.944 125.768 66.2212 126.192C65.5018 126.616 64.6857 126.828 63.7729 126.828C62.8601 126.828 62.0424 126.616 61.3196 126.192C60.6002 125.764 60.0301 125.152 59.6094 124.354C59.192 123.554 58.9833 122.593 58.9833 121.473C58.9833 120.35 59.192 119.39 59.6094 118.593C60.0301 117.792 60.6002 117.179 61.3196 116.755C62.0424 116.331 62.8601 116.119 63.7729 116.119C64.6857 116.119 65.5018 116.331 66.2212 116.755C66.944 117.179 67.5141 117.792 67.9314 118.593C68.3522 119.39 68.5626 120.35 68.5626 121.473ZM66.664 121.473C66.664 120.683 66.5402 120.016 66.2925 119.473C66.0482 118.927 65.7088 118.514 65.2745 118.236C64.8401 117.955 64.3396 117.814 63.7729 117.814C63.2063 117.814 62.7057 117.955 62.2714 118.236C61.8371 118.514 61.496 118.927 61.2483 119.473C61.004 120.016 60.8818 120.683 60.8818 121.473C60.8818 122.264 61.004 122.933 61.2483 123.479C61.496 124.022 61.8371 124.434 62.2714 124.716C62.7057 124.994 63.2063 125.133 63.7729 125.133C64.3396 125.133 64.8401 124.994 65.2745 124.716C65.7088 124.434 66.0482 124.022 66.2925 123.479C66.5402 122.933 66.664 122.264 66.664 121.473ZM80.7039 119.778H78.8003C78.746 119.466 78.6459 119.19 78.5 118.949C78.3541 118.704 78.1725 118.497 77.9554 118.328C77.7382 118.158 77.4905 118.031 77.2122 117.946C76.9374 117.858 76.6404 117.814 76.3215 117.814C75.7548 117.814 75.2526 117.956 74.8148 118.241C74.3771 118.523 74.0344 118.937 73.7867 119.483C73.539 120.026 73.4151 120.69 73.4151 121.473C73.4151 122.271 73.539 122.943 73.7867 123.489C74.0378 124.032 74.3805 124.443 74.8148 124.721C75.2526 124.996 75.7531 125.133 76.3164 125.133C76.6286 125.133 76.9204 125.092 77.1919 125.011C77.4667 124.926 77.7127 124.802 77.9299 124.639C78.1505 124.477 78.3354 124.276 78.4847 124.039C78.6374 123.801 78.7426 123.53 78.8003 123.224L80.7039 123.235C80.6327 123.73 80.4783 124.195 80.2407 124.629C80.0066 125.064 79.6995 125.447 79.3195 125.78C78.9394 126.109 78.4949 126.367 77.9859 126.553C77.4769 126.736 76.9119 126.828 76.2909 126.828C75.3747 126.828 74.557 126.616 73.8376 126.192C73.1182 125.768 72.5515 125.155 72.1375 124.354C71.7235 123.554 71.5166 122.593 71.5166 121.473C71.5166 120.35 71.7252 119.39 72.1426 118.593C72.56 117.792 73.1284 117.179 73.8478 116.755C74.5671 116.331 75.3815 116.119 76.2909 116.119C76.8712 116.119 77.4107 116.2 77.9095 116.363C78.4084 116.526 78.8529 116.765 79.2431 117.081C79.6333 117.393 79.954 117.776 80.2051 118.231C80.4596 118.682 80.6259 119.198 80.7039 119.778ZM90.112 126.686L86.6813 122.13H85.755V126.686H83.8666V116.261H85.755V120.547H86.2283L89.9338 116.261H92.2599L88.1421 121.015L92.4381 126.686H90.112ZM95.1541 126.686V116.261H99.1446C99.8979 116.261 100.524 116.38 101.023 116.618C101.525 116.852 101.9 117.172 102.148 117.58C102.399 117.987 102.524 118.448 102.524 118.964C102.524 119.388 102.443 119.751 102.28 120.053C102.117 120.352 101.898 120.595 101.623 120.781C101.349 120.968 101.041 121.102 100.702 121.183V121.285C101.072 121.305 101.427 121.419 101.766 121.626C102.109 121.83 102.389 122.118 102.606 122.491C102.823 122.865 102.932 123.316 102.932 123.845C102.932 124.385 102.801 124.87 102.54 125.301C102.278 125.729 101.885 126.066 101.359 126.314C100.833 126.562 100.171 126.686 99.3737 126.686H95.1541ZM97.0425 125.108H99.0734C99.7588 125.108 100.253 124.977 100.555 124.716C100.86 124.451 101.013 124.112 101.013 123.698C101.013 123.389 100.936 123.111 100.784 122.863C100.631 122.612 100.414 122.415 100.132 122.273C99.8504 122.127 99.5145 122.054 99.1243 122.054H97.0425V125.108ZM97.0425 120.695H98.9105C99.2362 120.695 99.5298 120.635 99.791 120.517C100.052 120.394 100.258 120.223 100.407 120.002C100.56 119.778 100.636 119.514 100.636 119.208C100.636 118.805 100.493 118.472 100.208 118.211C99.9268 117.949 99.5077 117.819 98.9512 117.819H97.0425V120.695ZM107.346 126.686H105.331L109.001 116.261H111.332L115.007 126.686H112.991L110.207 118.399H110.125L107.346 126.686ZM107.412 122.598H112.91V124.115H107.412V122.598Z" fill="black"/>
<path opacity="0.4" d="M406.901 296.917H43.7969V208.927L165.232 225.251C165.232 225.251 404.778 178.702 406.901 177.882V177.871C406.92 177.871 406.92 177.875 406.901 177.882V296.917Z" fill="url(#paint0_linear_3044_1855)"/>
<rect x="403.076" y="173.889" width="8.17935" height="8.17935" rx="4.08967" fill="#04B34A"/>
<path d="M404.916 178.666L168.41 223.771C166.04 224.223 163.613 224.301 161.219 224.001L43.7956 209.323" stroke="#04B34A" stroke-width="3.18519"/>
<path d="M292.67 312.98V293.584L285.436 300.846L282.26 297.697L294.964 285.02L307.642 297.697L304.52 300.846L297.258 293.584V312.98H292.67Z" fill="#04B34A"/>
<path d="M327.614 284.822C329.044 284.822 330.419 285.062 331.74 285.541C333.07 286.021 334.256 286.786 335.296 287.835C336.346 288.885 337.174 290.278 337.78 292.016C338.396 293.744 338.708 295.866 338.717 298.382C338.717 300.743 338.45 302.852 337.916 304.707C337.391 306.553 336.636 308.123 335.649 309.417C334.663 310.711 333.473 311.697 332.079 312.376C330.686 313.045 329.13 313.38 327.41 313.38C325.555 313.38 323.917 313.023 322.497 312.308C321.076 311.584 319.931 310.602 319.063 309.362C318.203 308.114 317.683 306.711 317.502 305.155H323.298C323.524 306.168 323.999 306.955 324.723 307.516C325.447 308.068 326.343 308.344 327.41 308.344C329.22 308.344 330.595 307.557 331.537 305.983C332.478 304.399 332.953 302.232 332.962 299.481H332.772C332.355 300.295 331.794 300.997 331.089 301.585C330.383 302.164 329.573 302.612 328.659 302.929C327.754 303.245 326.79 303.404 325.768 303.404C324.13 303.404 322.669 303.019 321.384 302.25C320.099 301.481 319.085 300.422 318.343 299.074C317.601 297.726 317.23 296.187 317.23 294.459C317.221 292.595 317.651 290.934 318.52 289.478C319.388 288.021 320.601 286.881 322.157 286.057C323.723 285.225 325.542 284.813 327.614 284.822ZM327.655 289.437C326.741 289.437 325.926 289.654 325.211 290.088C324.506 290.523 323.945 291.106 323.528 291.839C323.121 292.572 322.922 293.391 322.931 294.296C322.931 295.21 323.13 296.033 323.528 296.766C323.936 297.49 324.488 298.069 325.184 298.504C325.89 298.929 326.695 299.142 327.6 299.142C328.279 299.142 328.908 299.015 329.487 298.762C330.066 298.508 330.568 298.16 330.994 297.717C331.428 297.264 331.767 296.744 332.012 296.156C332.256 295.567 332.378 294.943 332.378 294.283C332.369 293.405 332.161 292.599 331.754 291.866C331.347 291.134 330.785 290.545 330.071 290.102C329.356 289.659 328.55 289.437 327.655 289.437ZM347.616 309.199L347.466 310.693C347.349 311.887 347.123 313.077 346.788 314.262C346.462 315.457 346.118 316.538 345.756 317.506C345.403 318.475 345.118 319.235 344.901 319.787H341.155C341.291 319.253 341.476 318.506 341.711 317.547C341.947 316.597 342.168 315.529 342.376 314.344C342.585 313.158 342.716 311.95 342.77 310.72L342.838 309.199H347.616ZM361.706 313.38C359.616 313.38 357.757 313.041 356.128 312.362C354.508 311.674 353.237 310.738 352.314 309.552C351.391 308.367 350.929 307.023 350.929 305.521C350.929 304.363 351.192 303.3 351.717 302.331C352.25 301.354 352.974 300.544 353.888 299.902C354.802 299.25 355.825 298.834 356.956 298.653V298.463C355.472 298.164 354.268 297.445 353.345 296.305C352.422 295.156 351.961 293.821 351.961 292.301C351.961 290.862 352.382 289.582 353.223 288.46C354.065 287.328 355.218 286.442 356.684 285.799C358.159 285.148 359.833 284.822 361.706 284.822C363.58 284.822 365.249 285.148 366.715 285.799C368.19 286.451 369.348 287.342 370.19 288.473C371.031 289.595 371.457 290.871 371.466 292.301C371.457 293.83 370.986 295.165 370.054 296.305C369.122 297.445 367.928 298.164 366.471 298.463V298.653C367.584 298.834 368.593 299.25 369.497 299.902C370.411 300.544 371.135 301.354 371.669 302.331C372.212 303.3 372.488 304.363 372.497 305.521C372.488 307.023 372.022 308.367 371.099 309.552C370.176 310.738 368.9 311.674 367.271 312.362C365.652 313.041 363.797 313.38 361.706 313.38ZM361.706 309.064C362.638 309.064 363.453 308.896 364.15 308.562C364.846 308.218 365.389 307.747 365.778 307.15C366.177 306.544 366.376 305.847 366.376 305.06C366.376 304.254 366.172 303.544 365.765 302.929C365.358 302.304 364.806 301.816 364.109 301.463C363.412 301.101 362.611 300.92 361.706 300.92C360.811 300.92 360.01 301.101 359.304 301.463C358.598 301.816 358.042 302.304 357.634 302.929C357.236 303.544 357.037 304.254 357.037 305.06C357.037 305.847 357.232 306.544 357.621 307.15C358.01 307.747 358.557 308.218 359.263 308.562C359.969 308.896 360.783 309.064 361.706 309.064ZM361.706 296.644C362.485 296.644 363.177 296.486 363.783 296.169C364.389 295.852 364.864 295.414 365.208 294.853C365.552 294.292 365.724 293.645 365.724 292.912C365.724 292.188 365.552 291.554 365.208 291.011C364.864 290.459 364.394 290.03 363.797 289.722C363.199 289.405 362.503 289.247 361.706 289.247C360.919 289.247 360.222 289.405 359.616 289.722C359.01 290.03 358.535 290.459 358.191 291.011C357.856 291.554 357.689 292.188 357.689 292.912C357.689 293.645 357.861 294.292 358.205 294.853C358.548 295.414 359.023 295.852 359.63 296.169C360.236 296.486 360.928 296.644 361.706 296.644ZM391.43 307.788V306.322C391.43 305.209 391.665 304.186 392.136 303.254C392.616 302.313 393.308 301.562 394.213 301.001C395.127 300.431 396.24 300.146 397.552 300.146C398.882 300.146 399.999 300.427 400.904 300.988C401.818 301.549 402.506 302.3 402.967 303.241C403.438 304.173 403.673 305.2 403.673 306.322V307.788C403.673 308.901 403.438 309.928 402.967 310.869C402.497 311.801 401.805 312.548 400.891 313.109C399.977 313.679 398.864 313.964 397.552 313.964C396.221 313.964 395.104 313.679 394.199 313.109C393.294 312.548 392.606 311.801 392.136 310.869C391.665 309.928 391.43 308.901 391.43 307.788ZM395.38 306.322V307.788C395.38 308.43 395.534 309.037 395.841 309.607C396.158 310.177 396.728 310.462 397.552 310.462C398.375 310.462 398.936 310.181 399.235 309.62C399.542 309.059 399.696 308.448 399.696 307.788V306.322C399.696 305.661 399.551 305.046 399.262 304.476C398.972 303.906 398.402 303.621 397.552 303.621C396.737 303.621 396.172 303.906 395.855 304.476C395.538 305.046 395.38 305.661 395.38 306.322ZM377.165 291.88V290.414C377.165 289.292 377.404 288.265 377.884 287.333C378.364 286.392 379.056 285.641 379.961 285.08C380.875 284.519 381.979 284.238 383.273 284.238C384.612 284.238 385.734 284.519 386.639 285.08C387.544 285.641 388.231 286.392 388.702 287.333C389.172 288.265 389.408 289.292 389.408 290.414V291.88C389.408 293.002 389.168 294.029 388.688 294.961C388.218 295.893 387.526 296.64 386.612 297.201C385.707 297.753 384.594 298.029 383.273 298.029C381.951 298.029 380.834 297.748 379.92 297.187C379.015 296.617 378.327 295.871 377.857 294.948C377.395 294.016 377.165 292.993 377.165 291.88ZM381.142 290.414V291.88C381.142 292.541 381.295 293.151 381.603 293.712C381.92 294.273 382.476 294.554 383.273 294.554C384.105 294.554 384.671 294.273 384.969 293.712C385.277 293.151 385.431 292.541 385.431 291.88V290.414C385.431 289.754 385.286 289.138 384.996 288.568C384.707 287.998 384.132 287.713 383.273 287.713C382.467 287.713 381.911 288.003 381.603 288.582C381.295 289.161 381.142 289.772 381.142 290.414ZM378.956 313L398.067 285.202H401.624L382.513 313H378.956Z" fill="black"/>
<path d="M49.2279 197.434C48.4482 197.434 47.7473 197.285 47.1251 196.986C46.5072 196.683 46.0136 196.269 45.6445 195.742C45.2754 195.215 45.0784 194.614 45.0535 193.938H46.9198C46.9655 194.485 47.2081 194.935 47.6477 195.288C48.0873 195.64 48.6141 195.816 49.2279 195.816C49.7173 195.816 50.1507 195.704 50.5281 195.481C50.9096 195.252 51.2082 194.939 51.4239 194.541C51.6437 194.143 51.7536 193.689 51.7536 193.179C51.7536 192.66 51.6416 192.198 51.4177 191.791C51.1937 191.385 50.8847 191.066 50.4907 190.833C50.1009 190.601 49.653 190.483 49.147 190.479C48.7613 190.479 48.3735 190.545 47.9837 190.678C47.5938 190.811 47.2786 190.985 47.038 191.2L45.2775 190.939L45.9929 184.519H52.9978V186.168H47.5917L47.1874 189.732H47.262C47.5109 189.492 47.8406 189.291 48.2512 189.129C48.6659 188.967 49.1097 188.886 49.5825 188.886C50.358 188.886 51.0486 189.071 51.6541 189.44C52.2637 189.809 52.7428 190.313 53.0911 190.952C53.4437 191.586 53.6179 192.316 53.6137 193.141C53.6179 193.967 53.4312 194.703 53.0538 195.35C52.6806 195.997 52.1621 196.507 51.4986 196.88C50.8391 197.249 50.0822 197.434 49.2279 197.434ZM55.4412 194.771V193.216L60.9469 184.519H62.1724V186.808H61.3948L57.4569 193.042V193.141H65.003V194.771H55.4412ZM61.4819 197.26V194.299L61.4943 193.589V184.519H63.3171V197.26H61.4819ZM68.9597 195.518L68.8664 196.196C68.8042 196.694 68.6984 197.212 68.5491 197.751C68.4039 198.295 68.2526 198.798 68.095 199.263C67.9415 199.727 67.815 200.097 67.7155 200.37H66.3966C66.4505 200.113 66.5252 199.765 66.6206 199.325C66.716 198.89 66.8093 198.402 66.9005 197.863C66.9918 197.324 67.0602 196.775 67.1058 196.215L67.168 195.518H68.9597ZM75.2617 197.434C74.37 197.434 73.582 197.281 72.8977 196.974C72.2175 196.667 71.6846 196.244 71.2989 195.704C70.9132 195.165 70.7224 194.552 70.7266 193.863C70.7224 193.324 70.8323 192.828 71.0563 192.376C71.2844 191.92 71.5934 191.541 71.9832 191.238C72.3731 190.931 72.8085 190.736 73.2896 190.653V190.578C72.6551 190.425 72.147 190.085 71.7655 189.558C71.3839 189.031 71.1952 188.426 71.1994 187.742C71.1952 187.09 71.3673 186.51 71.7157 186C72.0682 185.485 72.5514 185.081 73.1652 184.787C73.779 184.492 74.4779 184.345 75.2617 184.345C76.0373 184.345 76.7299 184.494 77.3395 184.793C77.9534 185.087 78.4365 185.492 78.7891 186.006C79.1416 186.516 79.3199 187.095 79.3241 187.742C79.3199 188.426 79.125 189.031 78.7393 189.558C78.3536 190.085 77.8517 190.425 77.2338 190.578V190.653C77.7107 190.736 78.14 190.931 78.5215 191.238C78.9073 191.541 79.2142 191.92 79.4423 192.376C79.6745 192.828 79.7927 193.324 79.7969 193.863C79.7927 194.552 79.5978 195.165 79.2121 195.704C78.8264 196.244 78.2914 196.667 77.6071 196.974C76.9269 197.281 76.1451 197.434 75.2617 197.434ZM75.2617 195.86C75.7884 195.86 76.2446 195.773 76.6303 195.599C77.016 195.42 77.3147 195.174 77.5262 194.858C77.7377 194.539 77.8455 194.166 77.8497 193.739C77.8455 193.295 77.7294 192.903 77.5013 192.563C77.2773 192.223 76.9725 191.955 76.5868 191.76C76.2011 191.565 75.7594 191.468 75.2617 191.468C74.7599 191.468 74.314 191.565 73.9242 191.76C73.5343 191.955 73.2274 192.223 73.0035 192.563C72.7795 192.903 72.6696 193.295 72.6737 193.739C72.6696 194.166 72.7712 194.539 72.9786 194.858C73.1901 195.174 73.4908 195.42 73.8806 195.599C74.2705 195.773 74.7308 195.86 75.2617 195.86ZM75.2617 189.931C75.6847 189.931 76.0601 189.846 76.3877 189.676C76.7154 189.506 76.9725 189.27 77.1591 188.967C77.3499 188.664 77.4474 188.31 77.4515 187.903C77.4474 187.505 77.352 187.157 77.1654 186.858C76.9829 186.56 76.7278 186.329 76.4002 186.168C76.0725 186.002 75.693 185.919 75.2617 185.919C74.8221 185.919 74.4364 186.002 74.1046 186.168C73.7769 186.329 73.5219 186.56 73.3394 186.858C73.1569 187.157 73.0677 187.505 73.0719 187.903C73.0677 188.31 73.159 188.664 73.3456 188.967C73.5323 189.27 73.7894 189.506 74.117 189.676C74.4488 189.846 74.8304 189.931 75.2617 189.931Z" fill="#CFCFCF"/>
<path d="M376.64 163.194C376.072 163.185 375.512 163.082 374.96 162.883C374.413 162.684 373.915 162.352 373.467 161.887C373.019 161.423 372.66 160.799 372.391 160.015C372.125 159.231 371.993 158.252 371.993 157.078C371.993 155.967 372.103 154.98 372.322 154.117C372.546 153.255 372.868 152.527 373.287 151.934C373.706 151.336 374.212 150.882 374.805 150.571C375.398 150.26 376.063 150.105 376.802 150.105C377.561 150.105 378.235 150.254 378.823 150.553C379.412 150.851 379.889 151.264 380.254 151.791C380.623 152.317 380.858 152.917 380.957 153.588H379.06C378.931 153.058 378.676 152.624 378.295 152.288C377.913 151.952 377.415 151.784 376.802 151.784C375.868 151.784 375.141 152.191 374.618 153.004C374.1 153.817 373.838 154.947 373.834 156.394H373.927C374.147 156.033 374.417 155.726 374.736 155.473C375.06 155.216 375.421 155.019 375.819 154.882C376.221 154.741 376.644 154.671 377.088 154.671C377.826 154.671 378.494 154.851 379.091 155.212C379.692 155.569 380.171 156.062 380.528 156.693C380.885 157.323 381.063 158.045 381.063 158.858C381.063 159.671 380.878 160.407 380.509 161.066C380.144 161.726 379.63 162.248 378.967 162.634C378.303 163.015 377.527 163.202 376.64 163.194ZM376.634 161.576C377.123 161.576 377.561 161.456 377.946 161.215C378.332 160.975 378.637 160.651 378.861 160.245C379.085 159.838 379.197 159.384 379.197 158.883C379.197 158.393 379.087 157.947 378.867 157.545C378.651 157.143 378.353 156.823 377.971 156.587C377.594 156.351 377.162 156.232 376.677 156.232C376.308 156.232 375.966 156.303 375.651 156.444C375.34 156.585 375.066 156.78 374.83 157.029C374.593 157.277 374.407 157.564 374.27 157.887C374.137 158.207 374.071 158.545 374.071 158.901C374.071 159.378 374.18 159.82 374.4 160.226C374.624 160.633 374.929 160.96 375.315 161.209C375.705 161.454 376.144 161.576 376.634 161.576ZM382.884 160.531V158.976L388.39 150.279H389.616V152.568H388.838L384.9 158.802V158.901H392.446V160.531H382.884ZM388.925 163.02V160.058L388.937 159.349V150.279H390.76V163.02H388.925ZM396.403 161.278L396.309 161.956C396.247 162.453 396.142 162.972 395.992 163.511C395.847 164.054 395.696 164.558 395.538 165.023C395.385 165.487 395.258 165.856 395.159 166.13H393.84C393.894 165.873 393.968 165.525 394.064 165.085C394.159 164.649 394.252 164.162 394.344 163.623C394.435 163.084 394.503 162.534 394.549 161.974L394.611 161.278H396.403ZM402.814 163.194C402.246 163.185 401.686 163.082 401.134 162.883C400.587 162.684 400.089 162.352 399.641 161.887C399.193 161.423 398.834 160.799 398.565 160.015C398.299 159.231 398.167 158.252 398.167 157.078C398.167 155.967 398.276 154.98 398.496 154.117C398.72 153.255 399.042 152.527 399.461 151.934C399.879 151.336 400.385 150.882 400.978 150.571C401.572 150.26 402.237 150.105 402.975 150.105C403.734 150.105 404.408 150.254 404.997 150.553C405.586 150.851 406.063 151.264 406.428 151.791C406.797 152.317 407.032 152.917 407.131 153.588H405.234C405.105 153.058 404.85 152.624 404.468 152.288C404.087 151.952 403.589 151.784 402.975 151.784C402.042 151.784 401.314 152.191 400.792 153.004C400.273 153.817 400.012 154.947 400.008 156.394H400.101C400.321 156.033 400.591 155.726 400.91 155.473C401.234 155.216 401.594 155.019 401.993 154.882C402.395 154.741 402.818 154.671 403.262 154.671C404 154.671 404.668 154.851 405.265 155.212C405.866 155.569 406.345 156.062 406.702 156.693C407.059 157.323 407.237 158.045 407.237 158.858C407.237 159.671 407.052 160.407 406.683 161.066C406.318 161.726 405.804 162.248 405.14 162.634C404.477 163.015 403.701 163.202 402.814 163.194ZM402.807 161.576C403.297 161.576 403.734 161.456 404.12 161.215C404.506 160.975 404.811 160.651 405.035 160.245C405.259 159.838 405.371 159.384 405.371 158.883C405.371 158.393 405.261 157.947 405.041 157.545C404.825 157.143 404.527 156.823 404.145 156.587C403.768 156.351 403.336 156.232 402.851 156.232C402.482 156.232 402.14 156.303 401.825 156.444C401.513 156.585 401.24 156.78 401.003 157.029C400.767 157.277 400.58 157.564 400.443 157.887C400.311 158.207 400.244 158.545 400.244 158.901C400.244 159.378 400.354 159.82 400.574 160.226C400.798 160.633 401.103 160.96 401.489 161.209C401.878 161.454 402.318 161.576 402.807 161.576Z" fill="#CFCFCF"/>
<rect x="31.8516" y="347.98" width="796.296" height="234.907" rx="15.9259" fill="#F7F7F7"/>
<path opacity="0.6" d="M44.825 375.926V365.502H48.7341C49.535 365.502 50.2068 365.651 50.7498 365.949C51.2961 366.248 51.7084 366.659 51.9866 367.181C52.2683 367.7 52.4091 368.291 52.4091 368.953C52.4091 369.621 52.2683 370.215 51.9866 370.734C51.705 371.253 51.2893 371.662 50.7396 371.961C50.1899 372.256 49.5129 372.404 48.7087 372.404H46.1179V370.851H48.4542C48.9225 370.851 49.3059 370.77 49.6045 370.607C49.9031 370.444 50.1237 370.22 50.2662 369.935C50.4121 369.65 50.4851 369.322 50.4851 368.953C50.4851 368.583 50.4121 368.257 50.2662 367.975C50.1237 367.694 49.9014 367.475 49.5994 367.319C49.3008 367.159 48.9157 367.079 48.444 367.079H46.7134V375.926H44.825ZM55.4827 375.926V365.502H62.2625V367.085H57.371V369.915H61.9113V371.498H57.371V374.343H62.3032V375.926H55.4827ZM72.3259 365.502V367.085H67.5108V375.926H65.6224V365.502H72.3259ZM75.3562 365.502H77.2293V372.607H77.326L82.2276 365.502H83.9226V375.926H82.0342V368.825H81.9477L77.0308 375.926H75.3562V365.502ZM96.7282 370.714C96.7282 371.837 96.5178 372.799 96.097 373.6C95.6796 374.397 95.1095 375.008 94.3868 375.432C93.6674 375.856 92.8513 376.068 91.9385 376.068C91.0257 376.068 90.2079 375.856 89.4851 375.432C88.7658 375.004 88.1957 374.392 87.7749 373.595C87.3575 372.794 87.1488 371.833 87.1488 370.714C87.1488 369.59 87.3575 368.63 87.7749 367.833C88.1957 367.032 88.7658 366.419 89.4851 365.995C90.2079 365.571 91.0257 365.359 91.9385 365.359C92.8513 365.359 93.6674 365.571 94.3868 365.995C95.1095 366.419 95.6796 367.032 96.097 367.833C96.5178 368.63 96.7282 369.59 96.7282 370.714ZM94.8296 370.714C94.8296 369.923 94.7057 369.256 94.458 368.713C94.2137 368.167 93.8744 367.755 93.44 367.476C93.0057 367.195 92.5052 367.054 91.9385 367.054C91.3718 367.054 90.8713 367.195 90.437 367.476C90.0026 367.755 89.6616 368.167 89.4139 368.713C89.1696 369.256 89.0474 369.923 89.0474 370.714C89.0474 371.504 89.1696 372.173 89.4139 372.719C89.6616 373.262 90.0026 373.674 90.437 373.956C90.8713 374.234 91.3718 374.373 91.9385 374.373C92.5052 374.373 93.0057 374.234 93.44 373.956C93.8744 373.674 94.2137 373.262 94.458 372.719C94.7057 372.173 94.8296 371.504 94.8296 370.714ZM99.9468 375.926V365.502H101.835V369.915H106.666V365.502H108.559V375.926H106.666V371.498H101.835V375.926H99.9468ZM113.324 369.528H115.971C116.768 369.528 117.452 369.658 118.022 369.92C118.595 370.178 119.035 370.542 119.34 371.014C119.645 371.486 119.798 372.04 119.798 372.678C119.798 373.32 119.645 373.885 119.34 374.373C119.035 374.859 118.595 375.239 118.022 375.513C117.452 375.788 116.768 375.926 115.971 375.926H112.066V365.502H113.96V374.378H115.971C116.391 374.378 116.748 374.299 117.039 374.139C117.331 373.98 117.552 373.769 117.701 373.508C117.854 373.247 117.93 372.963 117.93 372.658C117.93 372.217 117.76 371.842 117.421 371.533C117.085 371.221 116.602 371.065 115.971 371.065H113.324V369.528ZM122.593 365.502V375.926H120.699V365.502H122.593Z" fill="black"/>
<path opacity="0.4" d="M812.186 546.158H43.7969V458.167L328.473 481.658C328.473 481.658 807.696 428.122 812.186 427.125V427.111C812.228 427.111 812.228 427.116 812.186 427.125V546.158Z" fill="url(#paint1_linear_3044_1855)"/>
<rect x="808.391" y="423.129" width="8.17935" height="8.17935" rx="4.08967" fill="#04B34A"/>
<path d="M810.232 427.908L330.235 480.625C328.798 480.782 327.35 480.805 325.909 480.692L43.7972 458.566" stroke="#04B34A" stroke-width="3.18519"/>
<path d="M697.985 562.221V542.824L690.75 550.086L687.574 546.937L700.279 534.26L712.956 546.937L709.834 550.086L702.573 542.824V562.221H697.985Z" fill="#04B34A"/>
<path d="M733.614 562.62C732.184 562.611 730.804 562.371 729.474 561.901C728.153 561.43 726.967 560.666 725.918 559.607C724.868 558.548 724.036 557.146 723.42 555.399C722.814 553.653 722.511 551.508 722.511 548.966C722.52 546.631 722.787 544.545 723.312 542.708C723.846 540.862 724.606 539.297 725.592 538.012C726.587 536.727 727.777 535.75 729.162 535.08C730.546 534.402 732.098 534.062 733.817 534.062C735.672 534.062 737.31 534.424 738.731 535.148C740.152 535.863 741.292 536.836 742.151 538.066C743.02 539.297 743.545 540.677 743.726 542.206H737.93C737.704 541.238 737.229 540.478 736.505 539.926C735.781 539.374 734.885 539.098 733.817 539.098C732.008 539.098 730.632 539.885 729.691 541.46C728.759 543.034 728.284 545.174 728.266 547.88H728.456C728.872 547.056 729.433 546.355 730.139 545.776C730.854 545.188 731.664 544.74 732.569 544.432C733.483 544.115 734.446 543.957 735.46 543.957C737.107 543.957 738.573 544.346 739.857 545.124C741.142 545.894 742.156 546.952 742.898 548.301C743.64 549.649 744.011 551.192 744.011 552.929C744.011 554.811 743.572 556.485 742.694 557.951C741.826 559.417 740.609 560.566 739.043 561.399C737.487 562.222 735.677 562.629 733.614 562.62ZM733.587 558.005C734.492 558.005 735.301 557.788 736.016 557.354C736.731 556.92 737.292 556.331 737.699 555.589C738.107 554.847 738.31 554.015 738.31 553.092C738.31 552.169 738.107 551.341 737.699 550.608C737.301 549.875 736.749 549.291 736.043 548.857C735.338 548.423 734.532 548.206 733.627 548.206C732.949 548.206 732.32 548.332 731.741 548.586C731.171 548.839 730.668 549.192 730.234 549.644C729.809 550.097 729.474 550.622 729.23 551.219C728.985 551.807 728.863 552.436 728.863 553.105C728.863 554.001 729.067 554.82 729.474 555.562C729.89 556.304 730.451 556.897 731.157 557.34C731.872 557.784 732.682 558.005 733.587 558.005ZM752.968 558.44L752.818 559.933C752.701 561.127 752.474 562.317 752.14 563.503C751.814 564.697 751.47 565.778 751.108 566.747C750.755 567.715 750.47 568.475 750.253 569.027H746.507C746.642 568.493 746.828 567.746 747.063 566.787C747.298 565.837 747.52 564.769 747.728 563.584C747.936 562.399 748.068 561.191 748.122 559.96L748.19 558.44H752.968ZM767.357 562.62C765.927 562.611 764.547 562.371 763.217 561.901C761.896 561.43 760.71 560.666 759.661 559.607C758.611 558.548 757.779 557.146 757.163 555.399C756.557 553.653 756.254 551.508 756.254 548.966C756.263 546.631 756.53 544.545 757.055 542.708C757.589 540.862 758.349 539.297 759.335 538.012C760.33 536.727 761.52 535.75 762.905 535.08C764.289 534.402 765.841 534.062 767.56 534.062C769.415 534.062 771.053 534.424 772.474 535.148C773.895 535.863 775.035 536.836 775.894 538.066C776.763 539.297 777.288 540.677 777.469 542.206H771.673C771.447 541.238 770.972 540.478 770.248 539.926C769.524 539.374 768.628 539.098 767.56 539.098C765.751 539.098 764.375 539.885 763.434 541.46C762.502 543.034 762.027 545.174 762.009 547.88H762.199C762.615 547.056 763.176 546.355 763.882 545.776C764.597 545.188 765.407 544.74 766.312 544.432C767.226 544.115 768.189 543.957 769.203 543.957C770.85 543.957 772.316 544.346 773.601 545.124C774.885 545.894 775.899 546.952 776.641 548.301C777.383 549.649 777.754 551.192 777.754 552.929C777.754 554.811 777.315 556.485 776.437 557.951C775.569 559.417 774.352 560.566 772.786 561.399C771.23 562.222 769.42 562.629 767.357 562.62ZM767.33 558.005C768.235 558.005 769.044 557.788 769.759 557.354C770.474 556.92 771.035 556.331 771.442 555.589C771.85 554.847 772.053 554.015 772.053 553.092C772.053 552.169 771.85 551.341 771.442 550.608C771.044 549.875 770.492 549.291 769.786 548.857C769.081 548.423 768.275 548.206 767.37 548.206C766.692 548.206 766.063 548.332 765.484 548.586C764.914 548.839 764.411 549.192 763.977 549.644C763.552 550.097 763.217 550.622 762.973 551.219C762.728 551.807 762.606 552.436 762.606 553.105C762.606 554.001 762.81 554.82 763.217 555.562C763.633 556.304 764.194 556.897 764.9 557.34C765.615 557.784 766.425 558.005 767.33 558.005ZM796.745 557.028V555.562C796.745 554.449 796.98 553.427 797.45 552.495C797.93 551.554 798.622 550.803 799.527 550.241C800.441 549.671 801.554 549.386 802.866 549.386C804.196 549.386 805.314 549.667 806.219 550.228C807.133 550.789 807.82 551.54 808.282 552.481C808.752 553.413 808.988 554.44 808.988 555.562V557.028C808.988 558.141 808.752 559.168 808.282 560.109C807.811 561.041 807.119 561.788 806.205 562.349C805.291 562.919 804.178 563.204 802.866 563.204C801.536 563.204 800.418 562.919 799.514 562.349C798.609 561.788 797.921 561.041 797.45 560.109C796.98 559.168 796.745 558.141 796.745 557.028ZM800.694 555.562V557.028C800.694 557.671 800.848 558.277 801.156 558.847C801.473 559.417 802.043 559.702 802.866 559.702C803.69 559.702 804.251 559.422 804.549 558.86C804.857 558.299 805.011 557.689 805.011 557.028V555.562C805.011 554.902 804.866 554.286 804.576 553.716C804.287 553.146 803.717 552.861 802.866 552.861C802.052 552.861 801.486 553.146 801.169 553.716C800.853 554.286 800.694 554.902 800.694 555.562ZM782.479 541.12V539.654C782.479 538.532 782.719 537.505 783.198 536.573C783.678 535.632 784.37 534.881 785.275 534.32C786.189 533.759 787.293 533.479 788.587 533.479C789.926 533.479 791.048 533.759 791.953 534.32C792.858 534.881 793.546 535.632 794.016 536.573C794.487 537.505 794.722 538.532 794.722 539.654V541.12C794.722 542.242 794.482 543.269 794.003 544.201C793.532 545.133 792.84 545.88 791.926 546.441C791.021 546.993 789.908 547.269 788.587 547.269C787.266 547.269 786.148 546.988 785.234 546.427C784.33 545.857 783.642 545.111 783.171 544.188C782.71 543.256 782.479 542.233 782.479 541.12ZM786.456 539.654V541.12C786.456 541.781 786.61 542.392 786.918 542.953C787.234 543.514 787.791 543.794 788.587 543.794C789.42 543.794 789.985 543.514 790.284 542.953C790.591 542.392 790.745 541.781 790.745 541.12V539.654C790.745 538.994 790.6 538.378 790.311 537.808C790.021 537.238 789.447 536.953 788.587 536.953C787.782 536.953 787.225 537.243 786.918 537.822C786.61 538.401 786.456 539.012 786.456 539.654ZM784.271 562.24L803.382 534.442H806.938L787.827 562.24H784.271Z" fill="black"/>
<path d="M44.7549 444.012V442.456L50.2606 433.759H51.4861V436.049H50.7085L46.7705 442.282V442.382H54.3167V444.012H44.7549ZM50.7956 446.5V443.539L50.808 442.83V433.759H52.6308V446.5H50.7956ZM56.3075 446.5V445.106L60.6187 440.64C61.0791 440.155 61.4586 439.729 61.7572 439.364C62.0599 438.995 62.286 438.645 62.4353 438.313C62.5846 437.981 62.6592 437.629 62.6592 437.255C62.6592 436.832 62.5597 436.467 62.3606 436.161C62.1615 435.85 61.8899 435.611 61.5457 435.445C61.2014 435.275 60.8136 435.19 60.3823 435.19C59.9261 435.19 59.528 435.283 59.1879 435.47C58.8478 435.657 58.5865 435.92 58.404 436.26C58.2215 436.6 58.1303 436.998 58.1303 437.455H56.2951C56.2951 436.679 56.4734 436.001 56.8301 435.42C57.1868 434.84 57.6762 434.39 58.2983 434.07C58.9204 433.747 59.6275 433.585 60.4196 433.585C61.2201 433.585 61.9251 433.745 62.5348 434.064C63.1486 434.379 63.6276 434.811 63.9719 435.358C64.3161 435.901 64.4882 436.515 64.4882 437.2C64.4882 437.672 64.399 438.135 64.2207 438.587C64.0465 439.039 63.7417 439.543 63.3062 440.099C62.8707 440.65 62.2652 441.32 61.4897 442.108L58.9577 444.758V444.851H64.6935V446.5H56.3075ZM69.319 444.758L69.2256 445.436C69.1634 445.934 69.0577 446.452 68.9084 446.991C68.7632 447.535 68.6118 448.039 68.4542 448.503C68.3008 448.968 68.1743 449.337 68.0747 449.611H66.7559C66.8098 449.353 66.8844 449.005 66.9798 448.565C67.0752 448.13 67.1685 447.643 67.2598 447.103C67.351 446.564 67.4195 446.015 67.4651 445.455L67.5273 444.758H69.319ZM75.621 446.674C74.7293 446.674 73.9413 446.521 73.257 446.214C72.5768 445.907 72.0439 445.484 71.6582 444.945C71.2725 444.406 71.0817 443.792 71.0858 443.103C71.0817 442.564 71.1916 442.069 71.4155 441.616C71.6436 441.16 71.9526 440.781 72.3425 440.478C72.7323 440.171 73.1678 439.976 73.6489 439.893V439.819C73.0143 439.665 72.5063 439.325 72.1247 438.798C71.7432 438.272 71.5545 437.666 71.5586 436.982C71.5545 436.331 71.7266 435.75 72.075 435.24C72.4275 434.726 72.9107 434.321 73.5245 434.027C74.1383 433.732 74.8371 433.585 75.621 433.585C76.3965 433.585 77.0891 433.734 77.6988 434.033C78.3126 434.327 78.7958 434.732 79.1483 435.246C79.5008 435.756 79.6792 436.335 79.6833 436.982C79.6792 437.666 79.4843 438.272 79.0986 438.798C78.7128 439.325 78.211 439.665 77.5931 439.819V439.893C78.07 439.976 78.4993 440.171 78.8808 440.478C79.2665 440.781 79.5734 441.16 79.8015 441.616C80.0338 442.069 80.152 442.564 80.1561 443.103C80.152 443.792 79.9571 444.406 79.5714 444.945C79.1856 445.484 78.6506 445.907 77.9663 446.214C77.2861 446.521 76.5044 446.674 75.621 446.674ZM75.621 445.1C76.1477 445.1 76.6039 445.013 76.9896 444.839C77.3753 444.661 77.6739 444.414 77.8854 444.099C78.097 443.779 78.2048 443.406 78.2089 442.979C78.2048 442.535 78.0887 442.143 77.8606 441.803C77.6366 441.463 77.3318 441.196 76.9461 441.001C76.5604 440.806 76.1187 440.708 75.621 440.708C75.1191 440.708 74.6733 440.806 74.2834 441.001C73.8936 441.196 73.5867 441.463 73.3627 441.803C73.1388 442.143 73.0289 442.535 73.033 442.979C73.0289 443.406 73.1305 443.779 73.3378 444.099C73.5494 444.414 73.85 444.661 74.2399 444.839C74.6298 445.013 75.0901 445.1 75.621 445.1ZM75.621 439.172C76.044 439.172 76.4193 439.087 76.747 438.917C77.0746 438.746 77.3318 438.51 77.5184 438.207C77.7092 437.905 77.8066 437.55 77.8108 437.144C77.8066 436.745 77.7113 436.397 77.5246 436.098C77.3421 435.8 77.0871 435.57 76.7594 435.408C76.4318 435.242 76.0523 435.159 75.621 435.159C75.1814 435.159 74.7956 435.242 74.4639 435.408C74.1362 435.57 73.8812 435.8 73.6987 436.098C73.5162 436.397 73.427 436.745 73.4312 437.144C73.427 437.55 73.5183 437.905 73.7049 438.207C73.8915 438.51 74.1487 438.746 74.4763 438.917C74.8081 439.087 75.1896 439.172 75.621 439.172Z" fill="#CFCFCF"/>
<path d="M776.64 409.771V408.216L782.145 399.519H783.371V401.808H782.593L778.655 408.042V408.141H786.202V409.771H776.64ZM782.68 412.26V409.299L782.693 408.589V399.519H784.516V412.26H782.68ZM792.429 399.345C792.997 399.349 793.557 399.453 794.109 399.656C794.66 399.859 795.158 400.191 795.602 400.651C796.05 401.112 796.406 401.734 796.672 402.518C796.941 403.297 797.078 404.268 797.082 405.429C797.082 406.545 796.97 407.538 796.746 408.409C796.522 409.276 796.201 410.008 795.782 410.605C795.367 411.202 794.863 411.656 794.27 411.967C793.677 412.278 793.01 412.434 792.267 412.434C791.508 412.434 790.834 412.285 790.245 411.986C789.656 411.687 789.177 411.275 788.808 410.748C788.439 410.217 788.209 409.608 788.118 408.919H790.015C790.14 409.467 790.393 409.91 790.774 410.25C791.16 410.586 791.657 410.754 792.267 410.754C793.2 410.754 793.928 410.348 794.451 409.535C794.973 408.718 795.237 407.577 795.241 406.113H795.141C794.926 406.47 794.656 406.777 794.333 407.034C794.013 407.291 793.654 407.49 793.256 407.631C792.858 407.772 792.433 407.843 791.981 407.843C791.247 407.843 790.579 407.662 789.978 407.302C789.376 406.941 788.897 406.445 788.541 405.815C788.184 405.184 788.006 404.465 788.006 403.656C788.006 402.851 788.188 402.122 788.553 401.466C788.922 400.811 789.437 400.293 790.096 399.911C790.76 399.525 791.537 399.337 792.429 399.345ZM792.435 400.962C791.95 400.962 791.512 401.083 791.122 401.323C790.737 401.56 790.432 401.881 790.208 402.287C789.984 402.69 789.872 403.138 789.872 403.631C789.872 404.125 789.98 404.573 790.196 404.975C790.415 405.373 790.714 405.69 791.091 405.927C791.473 406.159 791.908 406.275 792.398 406.275C792.763 406.275 793.103 406.205 793.418 406.064C793.733 405.923 794.009 405.728 794.245 405.479C794.482 405.226 794.666 404.94 794.799 404.62C794.932 404.301 794.998 403.965 794.998 403.612C794.998 403.144 794.886 402.708 794.662 402.306C794.442 401.904 794.14 401.58 793.754 401.336C793.368 401.087 792.929 400.962 792.435 400.962ZM801.135 410.518L801.042 411.196C800.98 411.694 800.874 412.212 800.725 412.751C800.58 413.295 800.428 413.798 800.271 414.263C800.117 414.727 799.991 415.097 799.891 415.37H798.572C798.626 415.113 798.701 414.765 798.796 414.325C798.892 413.89 798.985 413.402 799.076 412.863C799.167 412.324 799.236 411.775 799.281 411.215L799.344 410.518H801.135ZM803.293 409.771V408.216L808.798 399.519H810.024V401.808H809.246L805.308 408.042V408.141H812.854V409.771H803.293ZM809.333 412.26V409.299L809.346 408.589V399.519H811.168V412.26H809.333Z" fill="#CFCFCF"/>
<rect x="437.166" y="98.7402" width="390.981" height="234.907" rx="15.9259" fill="#F7F7F7"/>
<path opacity="0.6" d="M459.062 119.778H457.159C457.104 119.466 457.004 119.19 456.858 118.949C456.712 118.704 456.531 118.497 456.314 118.328C456.096 118.158 455.849 118.031 455.57 117.946C455.296 117.858 454.999 117.814 454.68 117.814C454.113 117.814 453.611 117.956 453.173 118.241C452.735 118.523 452.393 118.937 452.145 119.483C451.897 120.026 451.773 120.69 451.773 121.473C451.773 122.271 451.897 122.943 452.145 123.489C452.396 124.032 452.739 124.443 453.173 124.721C453.611 124.996 454.111 125.133 454.675 125.133C454.987 125.133 455.279 125.092 455.55 125.011C455.825 124.926 456.071 124.802 456.288 124.639C456.509 124.477 456.694 124.276 456.843 124.039C456.996 123.801 457.101 123.53 457.159 123.224L459.062 123.235C458.991 123.73 458.837 124.195 458.599 124.629C458.365 125.064 458.058 125.447 457.678 125.78C457.298 126.109 456.853 126.367 456.344 126.553C455.835 126.736 455.27 126.828 454.649 126.828C453.733 126.828 452.915 126.616 452.196 126.192C451.476 125.768 450.91 125.155 450.496 124.354C450.082 123.554 449.875 122.593 449.875 121.473C449.875 120.35 450.084 119.39 450.501 118.593C450.918 117.792 451.487 117.179 452.206 116.755C452.925 116.331 453.74 116.119 454.649 116.119C455.229 116.119 455.769 116.2 456.268 116.363C456.767 116.526 457.211 116.765 457.601 117.081C457.992 117.393 458.312 117.776 458.563 118.231C458.818 118.682 458.984 119.198 459.062 119.778ZM463.438 126.686H461.422L465.092 116.261H467.423L471.098 126.686H469.082L466.298 118.399H466.217L463.438 126.686ZM463.504 122.598H469.001V124.115H463.504V122.598ZM473.904 126.686V116.261H475.793V120.674H480.623V116.261H482.516V126.686H480.623V122.257H475.793V126.686H473.904ZM492.249 126.686L488.818 122.13H487.892V126.686H486.004V116.261H487.892V120.547H488.365L492.071 116.261H494.397L490.279 121.015L494.575 126.686H492.249ZM496.833 117.844V116.261H505.15V117.844H501.928V126.686H500.055V117.844H496.833ZM512.2 120.715V122.232H507.507V120.715H512.2ZM524.158 116.261V126.686H522.285V117.829H517.725V126.686H515.851V116.261H524.158ZM527.85 126.686V116.261H534.63V117.844H529.739V120.674H534.279V122.257H529.739V125.103H534.671V126.686H527.85ZM537.532 117.844V116.261H545.849V117.844H542.627V126.686H540.754V117.844H537.532ZM548.886 126.686V116.261H555.665V117.844H550.774V120.674H555.314V122.257H550.774V125.103H555.706V126.686H548.886ZM559.025 126.686V116.261H562.934C563.735 116.261 564.407 116.411 564.95 116.709C565.496 117.008 565.909 117.418 566.187 117.941C566.468 118.46 566.609 119.051 566.609 119.712C566.609 120.381 566.468 120.975 566.187 121.494C565.905 122.013 565.489 122.422 564.94 122.72C564.39 123.016 563.713 123.163 562.909 123.163H560.318V121.611H562.654C563.123 121.611 563.506 121.529 563.805 121.367C564.103 121.204 564.324 120.98 564.466 120.695C564.612 120.41 564.685 120.082 564.685 119.712C564.685 119.342 564.612 119.017 564.466 118.735C564.324 118.453 564.102 118.235 563.8 118.078C563.501 117.919 563.116 117.839 562.644 117.839H560.914V126.686H559.025ZM569.683 126.686V116.261H576.386V117.844H571.571V120.287H573.582C574.379 120.287 575.063 120.418 575.633 120.679C576.206 120.937 576.646 121.302 576.951 121.774C577.257 122.245 577.409 122.8 577.409 123.438C577.409 124.079 577.257 124.644 576.951 125.133C576.646 125.618 576.206 125.998 575.633 126.273C575.063 126.548 574.379 126.686 573.582 126.686H569.683ZM571.571 125.138H573.582C574.003 125.138 574.359 125.058 574.651 124.899C574.942 124.739 575.163 124.529 575.312 124.268C575.465 124.007 575.541 123.723 575.541 123.418C575.541 122.977 575.372 122.602 575.032 122.293C574.696 121.981 574.213 121.825 573.582 121.825H571.571V125.138ZM581.426 126.828V125.24H582.021C582.29 125.24 582.51 125.201 582.683 125.123C582.856 125.045 582.995 124.933 583.101 124.787C583.209 124.641 583.299 124.471 583.37 124.278L583.508 123.927L579.782 116.261H581.757L584.353 121.84L586.597 116.261H588.542L584.948 124.762C584.782 125.128 584.59 125.469 584.373 125.785C584.156 126.097 583.872 126.35 583.523 126.543C583.177 126.733 582.726 126.828 582.169 126.828H581.426ZM591.32 126.686V116.261H595.229C596.03 116.261 596.702 116.411 597.245 116.709C597.791 117.008 598.203 117.418 598.482 117.941C598.763 118.46 598.904 119.051 598.904 119.712C598.904 120.381 598.763 120.975 598.482 121.494C598.2 122.013 597.784 122.422 597.235 122.72C596.685 123.016 596.008 123.163 595.204 123.163H592.613V121.611H594.949C595.417 121.611 595.801 121.529 596.1 121.367C596.398 121.204 596.619 120.98 596.761 120.695C596.907 120.41 596.98 120.082 596.98 119.712C596.98 119.342 596.907 119.017 596.761 118.735C596.619 118.453 596.396 118.235 596.094 118.078C595.796 117.919 595.411 117.839 594.939 117.839H593.208V126.686H591.32ZM608.681 116.261V117.844H603.866V126.686H601.978V116.261H608.681Z" fill="black"/>
<path opacity="0.4" d="M812.215 296.917H449.111V208.927L600.009 222.862C600.009 222.862 810.096 178.768 812.215 177.885V177.871C812.237 177.871 812.237 177.876 812.215 177.885V296.917Z" fill="url(#paint2_linear_3044_1855)"/>
<rect x="808.391" y="173.889" width="8.17935" height="8.17935" rx="4.08967" fill="#04B34A"/>
<path d="M810.232 178.666L603.687 221.386C601.513 221.836 599.285 221.97 597.072 221.783L449.112 209.323" stroke="#04B34A" stroke-width="3.18519"/>
<path d="M697.985 312.98V293.584L690.75 300.846L687.574 297.697L700.279 285.02L712.956 297.697L709.834 300.846L702.573 293.584V312.98H697.985Z" fill="#04B34A"/>
<path d="M732.779 284.822C734.209 284.822 735.584 285.062 736.905 285.541C738.235 286.021 739.421 286.786 740.461 287.835C741.511 288.885 742.339 290.278 742.945 292.016C743.561 293.744 743.873 295.866 743.882 298.382C743.882 300.743 743.615 302.852 743.081 304.707C742.556 306.553 741.801 308.123 740.814 309.417C739.828 310.711 738.638 311.697 737.245 312.376C735.851 313.045 734.295 313.38 732.575 313.38C730.72 313.38 729.083 313.023 727.662 312.308C726.241 311.584 725.097 310.602 724.228 309.362C723.368 308.114 722.848 306.711 722.667 305.155H728.463C728.689 306.168 729.164 306.955 729.888 307.516C730.612 308.068 731.508 308.344 732.575 308.344C734.385 308.344 735.761 307.557 736.702 305.983C737.643 304.399 738.118 302.232 738.127 299.481H737.937C737.521 300.295 736.96 300.997 736.254 301.585C735.548 302.164 734.738 302.612 733.824 302.929C732.919 303.245 731.956 303.404 730.933 303.404C729.295 303.404 727.834 303.019 726.549 302.25C725.264 301.481 724.251 300.422 723.509 299.074C722.767 297.726 722.396 296.187 722.396 294.459C722.386 292.595 722.816 290.934 723.685 289.478C724.554 288.021 725.766 286.881 727.323 286.057C728.888 285.225 730.707 284.813 732.779 284.822ZM732.82 289.437C731.906 289.437 731.091 289.654 730.377 290.088C729.671 290.523 729.11 291.106 728.693 291.839C728.286 292.572 728.087 293.391 728.096 294.296C728.096 295.21 728.295 296.033 728.693 296.766C729.101 297.49 729.653 298.069 730.349 298.504C731.055 298.929 731.861 299.142 732.765 299.142C733.444 299.142 734.073 299.015 734.652 298.762C735.231 298.508 735.733 298.16 736.159 297.717C736.593 297.264 736.932 296.744 737.177 296.156C737.421 295.567 737.543 294.943 737.543 294.283C737.534 293.405 737.326 292.599 736.919 291.866C736.512 291.134 735.951 290.545 735.236 290.102C734.521 289.659 733.716 289.437 732.82 289.437ZM752.781 309.199L752.632 310.693C752.514 311.887 752.288 313.077 751.953 314.262C751.627 315.457 751.283 316.538 750.921 317.506C750.568 318.475 750.283 319.235 750.066 319.787H746.32C746.456 319.253 746.641 318.506 746.877 317.547C747.112 316.597 747.333 315.529 747.542 314.344C747.75 313.158 747.881 311.95 747.935 310.72L748.003 309.199H752.781ZM767.001 313.38C764.974 313.38 763.168 313.032 761.585 312.335C760.01 311.629 758.766 310.661 757.852 309.43C756.947 308.191 756.481 306.761 756.454 305.141H762.372C762.408 305.82 762.63 306.417 763.037 306.933C763.453 307.439 764.005 307.833 764.693 308.114C765.381 308.394 766.154 308.534 767.014 308.534C767.91 308.534 768.702 308.376 769.389 308.059C770.077 307.743 770.616 307.304 771.005 306.743C771.394 306.182 771.588 305.535 771.588 304.802C771.588 304.06 771.38 303.404 770.964 302.834C770.557 302.255 769.969 301.802 769.199 301.476C768.439 301.151 767.534 300.988 766.485 300.988H763.892V296.671H766.485C767.372 296.671 768.154 296.518 768.833 296.21C769.521 295.902 770.055 295.477 770.435 294.934C770.815 294.382 771.005 293.74 771.005 293.007C771.005 292.31 770.837 291.699 770.502 291.174C770.177 290.64 769.715 290.224 769.118 289.926C768.53 289.627 767.842 289.478 767.055 289.478C766.259 289.478 765.53 289.622 764.87 289.912C764.209 290.192 763.68 290.595 763.281 291.12C762.883 291.645 762.671 292.26 762.644 292.966H757.011C757.038 291.364 757.495 289.953 758.382 288.731C759.268 287.509 760.463 286.555 761.965 285.867C763.476 285.17 765.182 284.822 767.082 284.822C769 284.822 770.679 285.17 772.118 285.867C773.556 286.564 774.674 287.505 775.47 288.69C776.276 289.867 776.674 291.188 776.665 292.654C776.674 294.21 776.19 295.509 775.212 296.549C774.244 297.59 772.982 298.25 771.425 298.531V298.748C773.47 299.011 775.027 299.721 776.095 300.879C777.171 302.028 777.705 303.467 777.696 305.195C777.705 306.779 777.248 308.186 776.325 309.417C775.411 310.647 774.149 311.616 772.538 312.321C770.928 313.027 769.082 313.38 767.001 313.38ZM796.745 307.788V306.322C796.745 305.209 796.98 304.186 797.45 303.254C797.93 302.313 798.622 301.562 799.527 301.001C800.441 300.431 801.554 300.146 802.866 300.146C804.196 300.146 805.314 300.427 806.219 300.988C807.133 301.549 807.82 302.3 808.282 303.241C808.752 304.173 808.988 305.2 808.988 306.322V307.788C808.988 308.901 808.752 309.928 808.282 310.869C807.811 311.801 807.119 312.548 806.205 313.109C805.291 313.679 804.178 313.964 802.866 313.964C801.536 313.964 800.418 313.679 799.514 313.109C798.609 312.548 797.921 311.801 797.45 310.869C796.98 309.928 796.745 308.901 796.745 307.788ZM800.694 306.322V307.788C800.694 308.43 800.848 309.037 801.156 309.607C801.473 310.177 802.043 310.462 802.866 310.462C803.69 310.462 804.251 310.181 804.549 309.62C804.857 309.059 805.011 308.448 805.011 307.788V306.322C805.011 305.661 804.866 305.046 804.576 304.476C804.287 303.906 803.717 303.621 802.866 303.621C802.052 303.621 801.486 303.906 801.169 304.476C800.853 305.046 800.694 305.661 800.694 306.322ZM782.479 291.88V290.414C782.479 289.292 782.719 288.265 783.198 287.333C783.678 286.392 784.37 285.641 785.275 285.08C786.189 284.519 787.293 284.238 788.587 284.238C789.926 284.238 791.048 284.519 791.953 285.08C792.858 285.641 793.546 286.392 794.016 287.333C794.487 288.265 794.722 289.292 794.722 290.414V291.88C794.722 293.002 794.482 294.029 794.003 294.961C793.532 295.893 792.84 296.64 791.926 297.201C791.021 297.753 789.908 298.029 788.587 298.029C787.266 298.029 786.148 297.748 785.234 297.187C784.33 296.617 783.642 295.871 783.171 294.948C782.71 294.016 782.479 292.993 782.479 291.88ZM786.456 290.414V291.88C786.456 292.541 786.61 293.151 786.918 293.712C787.234 294.273 787.791 294.554 788.587 294.554C789.42 294.554 789.985 294.273 790.284 293.712C790.591 293.151 790.745 292.541 790.745 291.88V290.414C790.745 289.754 790.6 289.138 790.311 288.568C790.021 287.998 789.447 287.713 788.587 287.713C787.782 287.713 787.225 288.003 786.918 288.582C786.61 289.161 786.456 289.772 786.456 290.414ZM784.271 313L803.382 285.202H806.938L787.827 313H784.271Z" fill="black"/>
<path d="M454.542 197.434C453.763 197.434 453.062 197.285 452.44 196.986C451.822 196.683 451.328 196.269 450.959 195.742C450.59 195.215 450.393 194.614 450.368 193.938H452.234C452.28 194.485 452.523 194.935 452.962 195.288C453.402 195.64 453.929 195.816 454.542 195.816C455.032 195.816 455.465 195.704 455.843 195.481C456.224 195.252 456.523 194.939 456.738 194.541C456.958 194.143 457.068 193.689 457.068 193.179C457.068 192.66 456.956 192.198 456.732 191.791C456.508 191.385 456.199 191.066 455.805 190.833C455.415 190.601 454.967 190.483 454.461 190.479C454.076 190.479 453.688 190.545 453.298 190.678C452.908 190.811 452.593 190.985 452.353 191.2L450.592 190.939L451.307 184.519H458.312V186.168H452.906L452.502 189.732H452.576C452.825 189.492 453.155 189.291 453.566 189.129C453.98 188.967 454.424 188.886 454.897 188.886C455.672 188.886 456.363 189.071 456.969 189.44C457.578 189.809 458.057 190.313 458.406 190.952C458.758 191.586 458.932 192.316 458.928 193.141C458.932 193.967 458.746 194.703 458.368 195.35C457.995 195.997 457.477 196.507 456.813 196.88C456.154 197.249 455.397 197.434 454.542 197.434ZM460.756 194.771V193.216L466.261 184.519H467.487V186.808H466.709L462.771 193.042V193.141H470.317V194.771H460.756ZM466.796 197.26V194.299L466.809 193.589V184.519H468.632V197.26H466.796ZM474.274 195.518L474.181 196.196C474.119 196.694 474.013 197.212 473.864 197.751C473.718 198.295 473.567 198.798 473.409 199.263C473.256 199.727 473.129 200.097 473.03 200.37H471.711C471.765 200.113 471.84 199.765 471.935 199.325C472.03 198.89 472.124 198.402 472.215 197.863C472.306 197.324 472.375 196.775 472.42 196.215L472.482 195.518H474.274ZM479.993 184.519V197.26H478.064V186.448H477.99L474.941 188.438V186.597L478.12 184.519H479.993Z" fill="#CFCFCF"/>
<path d="M781.441 163.194C780.873 163.185 780.313 163.082 779.761 162.883C779.214 162.684 778.716 162.352 778.268 161.887C777.82 161.423 777.461 160.799 777.192 160.015C776.926 159.231 776.794 158.252 776.794 157.078C776.794 155.967 776.904 154.98 777.123 154.117C777.347 153.255 777.669 152.527 778.088 151.934C778.507 151.336 779.013 150.882 779.606 150.571C780.199 150.26 780.864 150.105 781.603 150.105C782.362 150.105 783.036 150.254 783.624 150.553C784.213 150.851 784.69 151.264 785.055 151.791C785.424 152.317 785.659 152.917 785.758 153.588H783.861C783.732 153.058 783.477 152.624 783.096 152.288C782.714 151.952 782.216 151.784 781.603 151.784C780.669 151.784 779.942 152.191 779.419 153.004C778.901 153.817 778.639 154.947 778.635 156.394H778.728C778.948 156.033 779.218 155.726 779.537 155.473C779.861 155.216 780.222 155.019 780.62 154.882C781.022 154.741 781.445 154.671 781.889 154.671C782.627 154.671 783.295 154.851 783.892 155.212C784.493 155.569 784.972 156.062 785.329 156.693C785.686 157.323 785.864 158.045 785.864 158.858C785.864 159.671 785.679 160.407 785.31 161.066C784.945 161.726 784.431 162.248 783.768 162.634C783.104 163.015 782.328 163.202 781.441 163.194ZM781.435 161.576C781.924 161.576 782.362 161.456 782.747 161.215C783.133 160.975 783.438 160.651 783.662 160.245C783.886 159.838 783.998 159.384 783.998 158.883C783.998 158.393 783.888 157.947 783.668 157.545C783.452 157.143 783.154 156.823 782.772 156.587C782.395 156.351 781.963 156.232 781.478 156.232C781.109 156.232 780.767 156.303 780.452 156.444C780.141 156.585 779.867 156.78 779.631 157.029C779.394 157.277 779.208 157.564 779.071 157.887C778.938 158.207 778.872 158.545 778.872 158.901C778.872 159.378 778.981 159.82 779.201 160.226C779.425 160.633 779.73 160.96 780.116 161.209C780.506 161.454 780.945 161.576 781.435 161.576ZM792.388 163.194C791.534 163.194 790.771 163.046 790.099 162.752C789.431 162.458 788.903 162.049 788.513 161.526C788.127 161 787.92 160.39 787.891 159.697H789.844C789.869 160.075 789.995 160.403 790.224 160.68C790.456 160.954 790.759 161.166 791.132 161.315C791.505 161.464 791.92 161.539 792.376 161.539C792.878 161.539 793.322 161.452 793.707 161.278C794.097 161.103 794.402 160.861 794.622 160.55C794.842 160.235 794.952 159.872 794.952 159.461C794.952 159.034 794.842 158.659 794.622 158.335C794.406 158.007 794.089 157.75 793.67 157.564C793.255 157.377 792.753 157.284 792.165 157.284H791.088V155.716H792.165C792.637 155.716 793.052 155.631 793.409 155.461C793.77 155.291 794.052 155.054 794.255 154.752C794.458 154.445 794.56 154.086 794.56 153.675C794.56 153.281 794.47 152.939 794.292 152.649C794.118 152.355 793.869 152.124 793.546 151.958C793.226 151.793 792.849 151.71 792.413 151.71C791.999 151.71 791.611 151.786 791.25 151.94C790.893 152.089 790.603 152.305 790.379 152.587C790.155 152.865 790.035 153.199 790.018 153.588H788.158C788.179 152.9 788.382 152.294 788.768 151.772C789.158 151.249 789.672 150.841 790.311 150.546C790.949 150.252 791.659 150.105 792.438 150.105C793.255 150.105 793.96 150.264 794.553 150.584C795.151 150.899 795.611 151.32 795.934 151.846C796.262 152.373 796.424 152.95 796.42 153.576C796.424 154.289 796.225 154.895 795.823 155.393C795.424 155.89 794.893 156.224 794.23 156.394V156.494C795.076 156.622 795.731 156.958 796.196 157.501C796.664 158.045 796.897 158.719 796.893 159.523C796.897 160.224 796.702 160.853 796.308 161.408C795.918 161.964 795.385 162.402 794.709 162.721C794.033 163.036 793.259 163.194 792.388 163.194ZM801.135 161.278L801.042 161.956C800.98 162.453 800.874 162.972 800.725 163.511C800.58 164.054 800.428 164.558 800.271 165.023C800.117 165.487 799.991 165.856 799.891 166.13H798.572C798.626 165.873 798.701 165.525 798.796 165.085C798.892 164.649 798.985 164.162 799.076 163.623C799.167 163.084 799.236 162.534 799.281 161.974L799.344 161.278H801.135ZM803.293 160.531V158.976L808.798 150.279H810.024V152.568H809.246L805.308 158.802V158.901H812.854V160.531H803.293ZM809.333 163.02V160.058L809.346 159.349V150.279H811.168V163.02H809.333Z" fill="#CFCFCF"/>
<defs>
<linearGradient id="paint0_linear_3044_1855" x1="225.349" y1="177.871" x2="225.349" y2="296.917" gradientUnits="userSpaceOnUse">
<stop stop-color="#04B34A"/>
<stop offset="0.0666667" stop-color="#04B34A" stop-opacity="0.991353"/>
<stop offset="0.133333" stop-color="#04B34A" stop-opacity="0.96449"/>
<stop offset="0.2" stop-color="#04B34A" stop-opacity="0.91834"/>
<stop offset="0.266667" stop-color="#04B34A" stop-opacity="0.852589"/>
<stop offset="0.333333" stop-color="#04B34A" stop-opacity="0.768225"/>
<stop offset="0.4" stop-color="#04B34A" stop-opacity="0.668116"/>
<stop offset="0.466667" stop-color="#04B34A" stop-opacity="0.557309"/>
<stop offset="0.533333" stop-color="#04B34A" stop-opacity="0.442691"/>
<stop offset="0.6" stop-color="#04B34A" stop-opacity="0.331884"/>
<stop offset="0.666667" stop-color="#04B34A" stop-opacity="0.231775"/>
<stop offset="0.733333" stop-color="#04B34A" stop-opacity="0.147411"/>
<stop offset="0.8" stop-color="#04B34A" stop-opacity="0.0816599"/>
<stop offset="0.866667" stop-color="#04B34A" stop-opacity="0.03551"/>
<stop offset="0.933333" stop-color="#04B34A" stop-opacity="0.01"/>
<stop offset="1" stop-color="#04B34A" stop-opacity="0"/>
</linearGradient>
<linearGradient id="paint1_linear_3044_1855" x1="427.991" y1="427.111" x2="427.991" y2="546.158" gradientUnits="userSpaceOnUse">
<stop stop-color="#04B34A"/>
<stop offset="0.0666667" stop-color="#04B34A" stop-opacity="0.991353"/>
<stop offset="0.133333" stop-color="#04B34A" stop-opacity="0.96449"/>
<stop offset="0.2" stop-color="#04B34A" stop-opacity="0.91834"/>
<stop offset="0.266667" stop-color="#04B34A" stop-opacity="0.852589"/>
<stop offset="0.333333" stop-color="#04B34A" stop-opacity="0.768225"/>
<stop offset="0.4" stop-color="#04B34A" stop-opacity="0.668116"/>
<stop offset="0.466667" stop-color="#04B34A" stop-opacity="0.557309"/>
<stop offset="0.533333" stop-color="#04B34A" stop-opacity="0.442691"/>
<stop offset="0.6" stop-color="#04B34A" stop-opacity="0.331884"/>
<stop offset="0.666667" stop-color="#04B34A" stop-opacity="0.231775"/>
<stop offset="0.733333" stop-color="#04B34A" stop-opacity="0.147411"/>
<stop offset="0.8" stop-color="#04B34A" stop-opacity="0.0816599"/>
<stop offset="0.866667" stop-color="#04B34A" stop-opacity="0.03551"/>
<stop offset="0.933333" stop-color="#04B34A" stop-opacity="0.01"/>
<stop offset="1" stop-color="#04B34A" stop-opacity="0"/>
</linearGradient>
<linearGradient id="paint2_linear_3044_1855" x1="630.663" y1="177.871" x2="630.663" y2="296.917" gradientUnits="userSpaceOnUse">
<stop stop-color="#04B34A"/>
<stop offset="0.0666667" stop-color="#04B34A" stop-opacity="0.991353"/>
<stop offset="0.133333" stop-color="#04B34A" stop-opacity="0.96449"/>
<stop offset="0.2" stop-color="#04B34A" stop-opacity="0.91834"/>
<stop offset="0.266667" stop-color="#04B34A" stop-opacity="0.852589"/>
<stop offset="0.333333" stop-color="#04B34A" stop-opacity="0.768225"/>
<stop offset="0.4" stop-color="#04B34A" stop-opacity="0.668116"/>
<stop offset="0.466667" stop-color="#04B34A" stop-opacity="0.557309"/>
<stop offset="0.533333" stop-color="#04B34A" stop-opacity="0.442691"/>
<stop offset="0.6" stop-color="#04B34A" stop-opacity="0.331884"/>
<stop offset="0.666667" stop-color="#04B34A" stop-opacity="0.231775"/>
<stop offset="0.733333" stop-color="#04B34A" stop-opacity="0.147411"/>
<stop offset="0.8" stop-color="#04B34A" stop-opacity="0.0816599"/>
<stop offset="0.866667" stop-color="#04B34A" stop-opacity="0.03551"/>
<stop offset="0.933333" stop-color="#04B34A" stop-opacity="0.01"/>
<stop offset="1" stop-color="#04B34A" stop-opacity="0"/>
</linearGradient>
</defs>
</svg>
