<svg width="860" height="863" viewBox="0 0 860 863" fill="none" xmlns="http://www.w3.org/2000/svg">
<rect width="860" height="863" fill="white"/>
<path d="M729.077 39.0176L726.947 51.6491H729.319L727.958 59.7213H723.567L724.217 55.875H712.946L712.297 59.7213H707.906L709.268 51.6491H710.951C711.721 50.6048 712.451 49.2268 713.273 46.3306L715.363 39.0176H729.08H729.077ZM723.501 43.2434H718.684L717.756 46.4962C716.947 49.3211 716.279 50.6025 715.604 51.6491H722.084L723.501 43.2434Z" fill="#EAECEF"/>
<path d="M732.948 39.0176H743.39C747.069 39.0176 748.722 40.8924 748.264 43.6C747.971 45.3322 746.668 46.4479 745.445 46.9471C746.781 47.4693 747.838 48.7989 747.453 51.0786C746.965 53.9749 744.604 55.875 740.688 55.875H730.104L732.948 39.0176ZM736.012 49.1325L735.514 52.077H740.308C741.589 52.077 742.381 51.6031 742.549 50.6047C742.722 49.5834 742.086 49.1325 740.803 49.1325H736.01H736.012ZM737.076 42.8179L736.652 45.3345H741.374C742.372 45.3345 743.072 44.9779 743.224 44.0762C743.376 43.1744 742.796 42.8179 741.798 42.8179H737.076Z" fill="#EAECEF"/>
<path d="M751.28 39.0176H756.145L754.431 49.1785L763.571 39.0176H768.436L765.594 55.875H760.729L762.436 45.7601L753.302 55.875H748.438L751.28 39.0176Z" fill="#EAECEF"/>
<path d="M775.67 47.138L769.944 39.0176H775.449L780.219 45.9027L781.383 39.0176H786.01L784.849 45.9027L791.944 39.0176H797.332L789.092 46.9241L794.844 55.875H788.982L784.382 48.6816L783.168 55.875H778.54L779.754 48.6816L772.726 55.875H767.078L775.672 47.138H775.67Z" fill="#EAECEF"/>
<path d="M804.437 39.0176H798.789L804.412 46.9241L796.066 55.875H801.714L810.06 46.9241L804.437 39.0176ZM813.365 39.0176H807.717L813.34 46.9241L804.995 55.875H810.643L818.988 46.9241L813.365 39.0176ZM822.524 39.0176H816.876L822.499 46.9241L814.153 55.875H819.801L828.147 46.9241L822.524 39.0176Z" fill="#EAECEF"/>
<path d="M32.8696 42.6373V39.0031H49.9922V42.6373H43.6094V59.8516H39.2524V42.6373H32.8696ZM54.1034 54.1304L59.7329 44.2152H64.0085V59.8516H59.8755V49.9058L54.2663 59.8516H49.9602V44.2152H54.1034V54.1304ZM66.3383 59.8516V44.2152H80.0099V59.8516H75.8667V47.6255H70.4306V59.8516H66.3383ZM91.9558 54.1304L97.5853 44.2152H101.861V59.8516H97.7278V49.9058L92.1186 59.8516H87.8125V44.2152H91.9558V54.1304ZM104.191 59.8516V44.2152H117.862V59.8516H113.719V47.6255H108.283V59.8516H104.191ZM127.242 60.157C125.66 60.157 124.293 59.821 123.139 59.1491C121.992 58.4705 121.107 57.5271 120.482 56.3191C119.858 55.1043 119.546 53.6961 119.546 52.0945C119.546 50.4792 119.858 49.0676 120.482 47.8596C121.107 46.6448 121.992 45.7015 123.139 45.0296C124.293 44.3509 125.66 44.0116 127.242 44.0116C128.823 44.0116 130.187 44.3509 131.334 45.0296C132.488 45.7015 133.377 46.6448 134.001 47.8596C134.625 49.0676 134.938 50.4792 134.938 52.0945C134.938 53.6961 134.625 55.1043 134.001 56.3191C133.377 57.5271 132.488 58.4705 131.334 59.1491C130.187 59.821 128.823 60.157 127.242 60.157ZM127.262 56.7976C127.981 56.7976 128.582 56.594 129.064 56.1868C129.546 55.7728 129.909 55.2095 130.153 54.4969C130.404 53.7843 130.53 52.9733 130.53 52.0639C130.53 51.1545 130.404 50.3435 130.153 49.6309C129.909 48.9183 129.546 48.355 129.064 47.9411C128.582 47.5271 127.981 47.3201 127.262 47.3201C126.536 47.3201 125.925 47.5271 125.43 47.9411C124.941 48.355 124.571 48.9183 124.32 49.6309C124.076 50.3435 123.954 51.1545 123.954 52.0639C123.954 52.9733 124.076 53.7843 124.32 54.4969C124.571 55.2095 124.941 55.7728 125.43 56.1868C125.925 56.594 126.536 56.7976 127.262 56.7976ZM135.097 47.6255V44.2152H149.267V47.6255H144.228V59.8516H140.095V47.6255H135.097ZM157.315 60.157C155.707 60.157 154.322 59.8312 153.162 59.1797C152.008 58.5214 151.119 57.5916 150.495 56.3904C149.87 55.1824 149.558 53.7538 149.558 52.1046C149.558 50.4962 149.87 49.0846 150.495 47.8698C151.119 46.655 151.998 45.7083 153.131 45.0296C154.272 44.3509 155.609 44.0116 157.142 44.0116C158.174 44.0116 159.134 44.1779 160.023 44.5104C160.919 44.8362 161.7 45.3282 162.365 45.9865C163.036 46.6448 163.559 47.4728 163.932 48.4704C164.306 49.4613 164.492 50.6218 164.492 51.9519V53.143H151.289V50.4555H160.41C160.41 49.8311 160.274 49.278 160.003 48.7962C159.731 48.3143 159.355 47.9377 158.873 47.6662C158.398 47.3879 157.845 47.2488 157.214 47.2488C156.555 47.2488 155.972 47.4015 155.463 47.7069C154.96 48.0055 154.567 48.4093 154.282 48.9183C153.997 49.4205 153.851 49.9804 153.844 50.598V53.1532C153.844 53.9268 153.987 54.5953 154.272 55.1586C154.563 55.7219 154.974 56.1563 155.503 56.4616C156.033 56.767 156.66 56.9197 157.387 56.9197C157.868 56.9197 158.31 56.8519 158.71 56.7161C159.11 56.5804 159.453 56.3768 159.738 56.1054C160.023 55.8339 160.24 55.5013 160.39 55.1077L164.401 55.3724C164.197 56.3361 163.78 57.1776 163.148 57.897C162.524 58.6096 161.716 59.1661 160.726 59.5665C159.742 59.9601 158.605 60.157 157.315 60.157ZM166.176 59.8516V44.2152H170.512V50.2824H171.734L175.989 44.2152H181.079L175.551 51.9723L181.14 59.8516H175.989L172.131 54.3035H170.512V59.8516H166.176ZM185.969 54.1304L191.598 44.2152H195.874V59.8516H191.741V49.9058L186.132 59.8516H181.826V44.2152H185.969V54.1304Z" fill="black"/>
<rect x="31.8516" y="347.982" width="390.981" height="234.907" rx="15.9259" fill="#F7F7F7"/>
<path opacity="0.6" d="M53.7478 369.021H51.8441C51.7898 368.708 51.6897 368.432 51.5438 368.191C51.3979 367.947 51.2163 367.74 50.9992 367.57C50.782 367.4 50.5343 367.273 50.256 367.188C49.9812 367.1 49.6843 367.056 49.3653 367.056C48.7986 367.056 48.2964 367.198 47.8587 367.483C47.4209 367.765 47.0782 368.179 46.8305 368.725C46.5828 369.268 46.4589 369.932 46.4589 370.716C46.4589 371.513 46.5828 372.185 46.8305 372.731C47.0816 373.274 47.4243 373.685 47.8587 373.963C48.2964 374.238 48.7969 374.375 49.3602 374.375C49.6724 374.375 49.9642 374.335 50.2357 374.253C50.5105 374.168 50.7565 374.044 50.9737 373.882C51.1943 373.719 51.3792 373.518 51.5285 373.281C51.6812 373.043 51.7864 372.772 51.8441 372.467L53.7478 372.477C53.6765 372.972 53.5221 373.437 53.2846 373.871C53.0504 374.306 52.7433 374.689 52.3633 375.022C51.9832 375.351 51.5387 375.609 51.0297 375.795C50.5207 375.979 49.9557 376.07 49.3348 376.07C48.4186 376.07 47.6008 375.858 46.8814 375.434C46.162 375.01 45.5953 374.397 45.1813 373.597C44.7674 372.796 44.5604 371.835 44.5604 370.716C44.5604 369.592 44.7691 368.632 45.1864 367.835C45.6038 367.034 46.1722 366.421 46.8916 365.997C47.611 365.573 48.4253 365.361 49.3348 365.361C49.915 365.361 50.4545 365.442 50.9534 365.605C51.4522 365.768 51.8967 366.007 52.2869 366.323C52.6772 366.635 52.9978 367.019 53.2489 367.473C53.5034 367.925 53.6697 368.44 53.7478 369.021ZM56.4523 367.086V365.503H64.7693V367.086H61.5474V375.928H59.6742V367.086H56.4523ZM67.8849 375.928H65.8692L69.5391 365.503H71.8703L75.5453 375.928H73.5296L70.7454 367.641H70.664L67.8849 375.928ZM67.951 371.84H73.4482V373.357H67.951V371.84ZM78.3516 375.928V365.503H80.24V369.916H85.0704V365.503H86.9638V375.928H85.0704V371.499H80.24V375.928H78.3516ZM89.774 378.442V374.385H90.4713C90.7055 374.199 90.9243 373.936 91.1279 373.597C91.3315 373.257 91.5046 372.792 91.6471 372.202C91.7896 371.611 91.888 370.848 91.9423 369.911L92.2172 365.503H98.8799V374.385H100.04V378.432H98.2284V375.928H91.586V378.442H89.774ZM92.6702 374.385H97.0679V367.086H93.9172L93.7543 369.911C93.7102 370.621 93.639 371.255 93.5406 371.815C93.4422 372.375 93.3183 372.869 93.169 373.296C93.0197 373.72 92.8534 374.083 92.6702 374.385ZM104.351 375.928H102.335L106.005 365.503H108.336L112.011 375.928H109.996L107.211 367.641H107.13L104.351 375.928ZM104.417 371.84H109.914V373.357H104.417V371.84ZM114.818 375.928V365.503H118.727C119.528 365.503 120.199 365.653 120.742 365.951C121.289 366.25 121.701 366.661 121.979 367.183C122.261 367.702 122.402 368.293 122.402 368.954C122.402 369.623 122.261 370.217 121.979 370.736C121.698 371.255 121.282 371.664 120.732 371.963C120.182 372.258 119.505 372.405 118.701 372.405H116.11V370.853H118.447C118.915 370.853 119.298 370.772 119.597 370.609C119.896 370.446 120.116 370.222 120.259 369.937C120.405 369.652 120.478 369.324 120.478 368.954C120.478 368.585 120.405 368.259 120.259 367.977C120.116 367.696 119.894 367.477 119.592 367.321C119.293 367.161 118.908 367.081 118.437 367.081H116.706V375.928H114.818ZM125.017 367.086V365.503H133.334V367.086H130.112V375.928H128.239V367.086H125.017ZM136.371 375.928V365.503H138.259V369.916H143.09V365.503H144.983V375.928H143.09V371.499H138.259V375.928H136.371ZM149.809 375.928H147.793L151.463 365.503H153.794L157.469 375.928H155.454L152.669 367.641H152.588L149.809 375.928ZM149.875 371.84H155.372V373.357H149.875V371.84ZM167.972 375.928H166.078V367.081H164.348C163.879 367.081 163.494 367.151 163.192 367.29C162.894 367.426 162.671 367.626 162.525 367.891C162.383 368.152 162.312 368.468 162.312 368.837C162.312 369.207 162.383 369.519 162.525 369.774C162.668 370.025 162.888 370.217 163.187 370.349C163.489 370.478 163.872 370.543 164.337 370.543H166.872V372.11H164.083C163.282 372.11 162.607 371.978 162.057 371.713C161.507 371.445 161.09 371.067 160.805 370.578C160.523 370.086 160.382 369.506 160.382 368.837C160.382 368.172 160.522 367.59 160.8 367.092C161.081 366.589 161.495 366.199 162.042 365.921C162.588 365.643 163.26 365.503 164.057 365.503H167.972V375.928ZM162.581 371.204H164.643L162.108 375.928H160.001L162.581 371.204Z" fill="black"/>
<path opacity="0.4" d="M406.901 546.16H43.7969V458.169L257.488 473.697C257.488 473.697 404.797 428.422 406.901 427.141V427.113C406.931 427.113 406.931 427.123 406.901 427.141V546.16Z" fill="url(#paint0_linear_3044_2300)"/>
<rect x="403.076" y="423.133" width="8.17935" height="8.17935" rx="4.08967" fill="#04B34A"/>
<path d="M404.916 427.91L262.014 473.523C259.181 474.427 256.201 474.775 253.235 474.549L43.7956 458.568" stroke="#04B34A" stroke-width="3.18519"/>
<path d="M291.67 562.225V542.828L284.436 550.09L281.26 546.941L293.964 534.264L306.642 546.941L303.52 550.09L296.258 542.828V562.225H291.67Z" fill="#04B34A"/>
<path d="M315.904 557.358V552.729L327.509 534.446H331.499V540.853H329.137L321.821 552.431V552.648H338.313V557.358H315.904ZM329.246 562.244V555.946L329.355 553.897V534.446H334.865V562.244H329.246ZM347.653 558.444L347.504 559.937C347.386 561.131 347.16 562.321 346.825 563.506C346.499 564.701 346.155 565.782 345.794 566.75C345.441 567.719 345.156 568.479 344.938 569.031H341.192C341.328 568.497 341.513 567.75 341.749 566.791C341.984 565.841 342.206 564.773 342.414 563.588C342.622 562.402 342.753 561.194 342.807 559.964L342.875 558.444H347.653ZM362.042 562.624C360.613 562.615 359.233 562.375 357.903 561.905C356.581 561.434 355.396 560.67 354.346 559.611C353.297 558.552 352.464 557.15 351.849 555.403C351.243 553.657 350.939 551.512 350.939 548.97C350.949 546.635 351.215 544.549 351.74 542.712C352.274 540.866 353.034 539.301 354.021 538.016C355.016 536.731 356.206 535.754 357.59 535.084C358.975 534.405 360.527 534.066 362.246 534.066C364.101 534.066 365.739 534.428 367.159 535.152C368.58 535.867 369.72 536.84 370.58 538.07C371.449 539.301 371.973 540.681 372.154 542.21H366.359C366.132 541.242 365.657 540.482 364.933 539.93C364.21 539.378 363.314 539.102 362.246 539.102C360.436 539.102 359.061 539.889 358.12 541.464C357.188 543.038 356.713 545.178 356.695 547.884H356.885C357.301 547.06 357.862 546.359 358.568 545.78C359.282 545.192 360.092 544.744 360.997 544.436C361.911 544.119 362.875 543.961 363.888 543.961C365.535 543.961 367.001 544.35 368.286 545.128C369.571 545.897 370.584 546.956 371.326 548.304C372.068 549.653 372.439 551.196 372.439 552.933C372.439 554.815 372.001 556.489 371.123 557.955C370.254 559.421 369.037 560.57 367.472 561.403C365.915 562.226 364.106 562.633 362.042 562.624ZM362.015 558.009C362.92 558.009 363.73 557.792 364.445 557.358C365.16 556.923 365.721 556.335 366.128 555.593C366.535 554.851 366.739 554.019 366.739 553.096C366.739 552.173 366.535 551.345 366.128 550.612C365.73 549.879 365.178 549.295 364.472 548.861C363.766 548.427 362.961 548.209 362.056 548.209C361.377 548.209 360.748 548.336 360.169 548.589C359.599 548.843 359.097 549.196 358.663 549.648C358.237 550.101 357.903 550.625 357.658 551.223C357.414 551.811 357.292 552.44 357.292 553.109C357.292 554.005 357.495 554.824 357.903 555.566C358.319 556.308 358.88 556.901 359.586 557.344C360.3 557.788 361.11 558.009 362.015 558.009ZM391.43 557.032V555.566C391.43 554.453 391.665 553.431 392.136 552.499C392.616 551.557 393.308 550.806 394.213 550.245C395.127 549.675 396.24 549.39 397.552 549.39C398.882 549.39 399.999 549.671 400.904 550.232C401.818 550.793 402.506 551.544 402.967 552.485C403.438 553.417 403.673 554.444 403.673 555.566V557.032C403.673 558.145 403.438 559.172 402.967 560.113C402.497 561.045 401.805 561.792 400.891 562.353C399.977 562.923 398.864 563.208 397.552 563.208C396.221 563.208 395.104 562.923 394.199 562.353C393.294 561.792 392.606 561.045 392.136 560.113C391.665 559.172 391.43 558.145 391.43 557.032ZM395.38 555.566V557.032C395.38 557.674 395.534 558.281 395.841 558.851C396.158 559.421 396.728 559.706 397.552 559.706C398.375 559.706 398.936 559.425 399.235 558.864C399.542 558.303 399.696 557.693 399.696 557.032V555.566C399.696 554.906 399.551 554.29 399.262 553.72C398.972 553.15 398.402 552.865 397.552 552.865C396.737 552.865 396.172 553.15 395.855 553.72C395.538 554.29 395.38 554.906 395.38 555.566ZM377.165 541.124V539.658C377.165 538.536 377.404 537.509 377.884 536.577C378.364 535.636 379.056 534.885 379.961 534.324C380.875 533.763 381.979 533.482 383.273 533.482C384.612 533.482 385.734 533.763 386.639 534.324C387.544 534.885 388.231 535.636 388.702 536.577C389.172 537.509 389.408 538.536 389.408 539.658V541.124C389.408 542.246 389.168 543.273 388.688 544.205C388.218 545.137 387.526 545.884 386.612 546.445C385.707 546.997 384.594 547.273 383.273 547.273C381.951 547.273 380.834 546.992 379.92 546.431C379.015 545.861 378.327 545.115 377.857 544.192C377.395 543.26 377.165 542.237 377.165 541.124ZM381.142 539.658V541.124C381.142 541.785 381.295 542.396 381.603 542.957C381.92 543.518 382.476 543.798 383.273 543.798C384.105 543.798 384.671 543.518 384.969 542.957C385.277 542.396 385.431 541.785 385.431 541.124V539.658C385.431 538.998 385.286 538.382 384.996 537.812C384.707 537.242 384.132 536.957 383.273 536.957C382.467 536.957 381.911 537.247 381.603 537.826C381.295 538.405 381.142 539.016 381.142 539.658ZM378.956 562.244L398.067 534.446H401.624L382.513 562.244H378.956Z" fill="black"/>
<path d="M45.0224 446.502V445.108L49.3336 440.642C49.794 440.156 50.1735 439.731 50.4721 439.366C50.7748 438.997 51.0009 438.647 51.1502 438.315C51.2995 437.983 51.3741 437.631 51.3741 437.257C51.3741 436.834 51.2746 436.469 51.0755 436.163C50.8764 435.851 50.6048 435.613 50.2606 435.447C49.9163 435.277 49.5285 435.192 49.0972 435.192C48.641 435.192 48.2429 435.285 47.9028 435.472C47.5627 435.659 47.3014 435.922 47.1189 436.262C46.9364 436.602 46.8452 437 46.8452 437.457H45.01C45.01 436.681 45.1883 436.003 45.545 435.422C45.9017 434.842 46.3911 434.392 47.0132 434.072C47.6353 433.749 48.3424 433.587 49.1345 433.587C49.935 433.587 50.64 433.747 51.2497 434.066C51.8635 434.381 52.3425 434.813 52.6868 435.36C53.031 435.903 53.2031 436.517 53.2031 437.201C53.2031 437.674 53.114 438.137 52.9356 438.589C52.7614 439.041 52.4566 439.545 52.0211 440.1C51.5856 440.652 50.9801 441.322 50.2046 442.11L47.6726 444.76V444.853H53.4084V446.502H45.0224ZM59.894 446.676C59.0023 446.676 58.2143 446.523 57.53 446.216C56.8498 445.909 56.3168 445.486 55.9311 444.947C55.5454 444.408 55.3547 443.794 55.3588 443.105C55.3547 442.566 55.4646 442.07 55.6885 441.618C55.9166 441.162 56.2256 440.783 56.6155 440.48C57.0053 440.173 57.4408 439.978 57.9219 439.895V439.821C57.2873 439.667 56.7793 439.327 56.3977 438.8C56.0162 438.274 55.8275 437.668 55.8316 436.984C55.8275 436.333 55.9996 435.752 56.348 435.242C56.7005 434.728 57.1837 434.323 57.7975 434.029C58.4113 433.734 59.1101 433.587 59.894 433.587C60.6695 433.587 61.3621 433.736 61.9718 434.035C62.5856 434.329 63.0688 434.734 63.4213 435.248C63.7738 435.758 63.9522 436.337 63.9563 436.984C63.9522 437.668 63.7572 438.274 63.3715 438.8C62.9858 439.327 62.484 439.667 61.866 439.821V439.895C62.343 439.978 62.7722 440.173 63.1538 440.48C63.5395 440.783 63.8464 441.162 64.0745 441.618C64.3068 442.07 64.425 442.566 64.4291 443.105C64.425 443.794 64.23 444.408 63.8443 444.947C63.4586 445.486 62.9236 445.909 62.2393 446.216C61.5591 446.523 60.7774 446.676 59.894 446.676ZM59.894 445.102C60.4207 445.102 60.8769 445.015 61.2626 444.841C61.6483 444.663 61.9469 444.416 62.1584 444.101C62.3699 443.781 62.4778 443.408 62.4819 442.981C62.4778 442.537 62.3617 442.145 62.1335 441.805C61.9096 441.465 61.6048 441.197 61.219 441.003C60.8333 440.808 60.3916 440.71 59.894 440.71C59.3921 440.71 58.9463 440.808 58.5564 441.003C58.1666 441.197 57.8597 441.465 57.6357 441.805C57.4118 442.145 57.3019 442.537 57.306 442.981C57.3019 443.408 57.4035 443.781 57.6108 444.101C57.8223 444.416 58.123 444.663 58.5129 444.841C58.9027 445.015 59.3631 445.102 59.894 445.102ZM59.894 439.174C60.317 439.174 60.6923 439.089 61.02 438.918C61.3476 438.748 61.6048 438.512 61.7914 438.209C61.9822 437.907 62.0796 437.552 62.0838 437.145C62.0796 436.747 61.9842 436.399 61.7976 436.1C61.6151 435.802 61.3601 435.572 61.0324 435.41C60.7048 435.244 60.3253 435.161 59.894 435.161C59.4543 435.161 59.0686 435.244 58.7368 435.41C58.4092 435.572 58.1541 435.802 57.9717 436.1C57.7892 436.399 57.7 436.747 57.7041 437.145C57.7 437.552 57.7912 437.907 57.9779 438.209C58.1645 438.512 58.4216 438.748 58.7493 438.918C59.0811 439.089 59.4626 439.174 59.894 439.174Z" fill="#CFCFCF"/>
<path d="M376.713 412.436C375.859 412.436 375.095 412.289 374.424 411.994C373.756 411.7 373.227 411.291 372.837 410.769C372.452 410.242 372.244 409.632 372.215 408.94H374.169C374.193 409.317 374.32 409.645 374.548 409.923C374.78 410.196 375.083 410.408 375.456 410.557C375.83 410.706 376.244 410.781 376.701 410.781C377.202 410.781 377.646 410.694 378.032 410.52C378.422 410.346 378.727 410.103 378.946 409.792C379.166 409.477 379.276 409.114 379.276 408.703C379.276 408.276 379.166 407.901 378.946 407.577C378.731 407.25 378.413 406.992 377.995 406.806C377.58 406.619 377.078 406.526 376.489 406.526H375.413V404.958H376.489C376.962 404.958 377.377 404.873 377.733 404.703C378.094 404.533 378.376 404.297 378.579 403.994C378.783 403.687 378.884 403.328 378.884 402.918C378.884 402.524 378.795 402.182 378.617 401.891C378.442 401.597 378.194 401.367 377.87 401.201C377.551 401.035 377.173 400.952 376.738 400.952C376.323 400.952 375.935 401.029 375.575 401.182C375.218 401.331 374.928 401.547 374.704 401.829C374.48 402.107 374.359 402.441 374.343 402.831H372.483C372.503 402.142 372.707 401.537 373.092 401.014C373.482 400.491 373.996 400.083 374.635 399.788C375.274 399.494 375.983 399.347 376.763 399.347C377.58 399.347 378.285 399.506 378.878 399.826C379.475 400.141 379.935 400.562 380.259 401.089C380.587 401.615 380.748 402.192 380.744 402.818C380.748 403.531 380.549 404.137 380.147 404.635C379.749 405.132 379.218 405.466 378.554 405.636V405.736C379.4 405.864 380.056 406.2 380.52 406.744C380.989 407.287 381.221 407.961 381.217 408.765C381.221 409.466 381.026 410.095 380.632 410.65C380.242 411.206 379.709 411.644 379.033 411.963C378.357 412.278 377.584 412.436 376.713 412.436ZM383.391 412.262V410.868L387.703 406.401C388.163 405.916 388.542 405.491 388.841 405.126C389.144 404.757 389.37 404.407 389.519 404.075C389.668 403.743 389.743 403.39 389.743 403.017C389.743 402.594 389.644 402.229 389.444 401.922C389.245 401.611 388.974 401.373 388.63 401.207C388.285 401.037 387.897 400.952 387.466 400.952C387.01 400.952 386.612 401.045 386.272 401.232C385.932 401.418 385.67 401.682 385.488 402.022C385.305 402.362 385.214 402.76 385.214 403.216H383.379C383.379 402.441 383.557 401.763 383.914 401.182C384.271 400.601 384.76 400.151 385.382 399.832C386.004 399.509 386.711 399.347 387.503 399.347C388.304 399.347 389.009 399.506 389.619 399.826C390.232 400.141 390.711 400.572 391.056 401.12C391.4 401.663 391.572 402.277 391.572 402.961C391.572 403.434 391.483 403.896 391.305 404.349C391.13 404.801 390.826 405.304 390.39 405.86C389.955 406.412 389.349 407.082 388.574 407.87L386.042 410.52V410.613H391.777V412.262H383.391ZM396.403 410.52L396.309 411.198C396.247 411.696 396.142 412.214 395.992 412.753C395.847 413.296 395.696 413.8 395.538 414.265C395.385 414.729 395.258 415.099 395.159 415.372H393.84C393.894 415.115 393.968 414.767 394.064 414.327C394.159 413.892 394.252 413.404 394.344 412.865C394.435 412.326 394.503 411.776 394.549 411.217L394.611 410.52H396.403ZM402.814 412.436C402.246 412.428 401.686 412.324 401.134 412.125C400.587 411.926 400.089 411.594 399.641 411.129C399.193 410.665 398.834 410.041 398.565 409.257C398.299 408.473 398.167 407.494 398.167 406.321C398.167 405.209 398.276 404.222 398.496 403.359C398.72 402.497 399.042 401.769 399.461 401.176C399.879 400.579 400.385 400.124 400.978 399.813C401.572 399.502 402.237 399.347 402.975 399.347C403.734 399.347 404.408 399.496 404.997 399.795C405.586 400.093 406.063 400.506 406.428 401.033C406.797 401.559 407.032 402.159 407.131 402.831H405.234C405.105 402.3 404.85 401.866 404.468 401.53C404.087 401.194 403.589 401.026 402.975 401.026C402.042 401.026 401.314 401.433 400.792 402.246C400.273 403.059 400.012 404.189 400.008 405.636H400.101C400.321 405.275 400.591 404.969 400.91 404.716C401.234 404.458 401.594 404.261 401.993 404.125C402.395 403.984 402.818 403.913 403.262 403.913C404 403.913 404.668 404.093 405.265 404.454C405.866 404.811 406.345 405.304 406.702 405.935C407.059 406.565 407.237 407.287 407.237 408.1C407.237 408.913 407.052 409.649 406.683 410.308C406.318 410.968 405.804 411.49 405.14 411.876C404.477 412.258 403.701 412.444 402.814 412.436ZM402.807 410.818C403.297 410.818 403.734 410.698 404.12 410.458C404.506 410.217 404.811 409.894 405.035 409.487C405.259 409.081 405.371 408.627 405.371 408.125C405.371 407.635 405.261 407.189 405.041 406.787C404.825 406.385 404.527 406.066 404.145 405.829C403.768 405.593 403.336 405.475 402.851 405.475C402.482 405.475 402.14 405.545 401.825 405.686C401.513 405.827 401.24 406.022 401.003 406.271C400.767 406.52 400.58 406.806 400.443 407.129C400.311 407.449 400.244 407.787 400.244 408.143C400.244 408.62 400.354 409.062 400.574 409.468C400.798 409.875 401.103 410.203 401.489 410.451C401.878 410.696 402.318 410.818 402.807 410.818Z" fill="#CFCFCF"/>
<rect x="31.8516" y="98.7402" width="796.296" height="234.907" rx="15.9259" fill="#F7F7F7"/>
<path opacity="0.6" d="M53.7478 116.778H51.8441C51.7898 116.466 51.6897 116.19 51.5438 115.949C51.3979 115.704 51.2163 115.497 50.9992 115.328C50.782 115.158 50.5343 115.031 50.256 114.946C49.9812 114.858 49.6843 114.814 49.3653 114.814C48.7986 114.814 48.2964 114.956 47.8587 115.241C47.4209 115.523 47.0782 115.937 46.8305 116.483C46.5828 117.026 46.4589 117.69 46.4589 118.473C46.4589 119.271 46.5828 119.943 46.8305 120.489C47.0816 121.032 47.4243 121.443 47.8587 121.721C48.2964 121.996 48.7969 122.133 49.3602 122.133C49.6724 122.133 49.9642 122.092 50.2357 122.011C50.5105 121.926 50.7565 121.802 50.9737 121.639C51.1943 121.477 51.3792 121.276 51.5285 121.039C51.6812 120.801 51.7864 120.53 51.8441 120.224L53.7478 120.235C53.6765 120.73 53.5221 121.195 53.2846 121.629C53.0504 122.064 52.7433 122.447 52.3633 122.78C51.9832 123.109 51.5387 123.367 51.0297 123.553C50.5207 123.736 49.9557 123.828 49.3348 123.828C48.4186 123.828 47.6008 123.616 46.8814 123.192C46.162 122.768 45.5953 122.155 45.1813 121.354C44.7674 120.554 44.5604 119.593 44.5604 118.473C44.5604 117.35 44.7691 116.39 45.1864 115.593C45.6038 114.792 46.1722 114.179 46.8916 113.755C47.611 113.331 48.4253 113.119 49.3348 113.119C49.915 113.119 50.4545 113.2 50.9534 113.363C51.4522 113.526 51.8967 113.765 52.2869 114.081C52.6772 114.393 52.9978 114.776 53.2489 115.231C53.5034 115.682 53.6697 116.198 53.7478 116.778ZM56.9104 123.686V113.261H63.6902V114.844H58.7988V117.674H63.339V119.257H58.7988V122.103H63.7309V123.686H56.9104ZM67.0501 113.261H69.361L72.4557 120.815H72.5778L75.6725 113.261H77.9833V123.686H76.1713V116.524H76.0746L73.1937 123.655H71.8398L68.9588 116.509H68.8621V123.686H67.0501V113.261ZM81.473 123.686V113.261H88.2529V114.844H83.3614V117.674H87.9016V119.257H83.3614V122.103H88.2936V123.686H81.473ZM91.6127 113.261H93.4858V120.367H93.5826L98.4842 113.261H100.179V123.686H98.2908V116.585H98.2042L93.2873 123.686H91.6127V113.261ZM96.9063 110.574H98.2857C98.2857 111.168 98.0702 111.649 97.6393 112.019C97.2117 112.386 96.6314 112.569 95.8985 112.569C95.1723 112.569 94.5938 112.386 94.1628 112.019C93.7353 111.649 93.5232 111.168 93.5266 110.574H94.8958C94.8958 110.818 94.9704 111.037 95.1197 111.23C95.2724 111.42 95.532 111.515 95.8985 111.515C96.2582 111.515 96.5144 111.42 96.6671 111.23C96.8232 111.04 96.9029 110.822 96.9063 110.574ZM103.67 123.686V113.261H105.558V117.674H110.389V113.261H112.282V123.686H110.389V119.257H105.558V123.686H103.67ZM117.108 123.686H115.092L118.762 113.261H121.094L124.768 123.686H122.753L119.969 115.399H119.887L117.108 123.686ZM117.174 119.598H122.671V121.115H117.174V119.598ZM135.271 123.686H133.377V114.839H131.647C131.179 114.839 130.793 114.909 130.491 115.048C130.193 115.184 129.971 115.384 129.825 115.648C129.682 115.91 129.611 116.225 129.611 116.595C129.611 116.965 129.682 117.277 129.825 117.532C129.967 117.783 130.188 117.975 130.486 118.107C130.788 118.236 131.172 118.3 131.637 118.3H134.171V119.868H131.382C130.581 119.868 129.906 119.736 129.356 119.471C128.807 119.203 128.389 118.825 128.104 118.336C127.823 117.844 127.682 117.264 127.682 116.595C127.682 115.93 127.821 115.348 128.099 114.849C128.381 114.347 128.795 113.957 129.341 113.679C129.887 113.4 130.559 113.261 131.357 113.261H135.271V123.686ZM129.881 118.962H131.942L129.407 123.686H127.3L129.881 118.962Z" fill="black"/>
<path opacity="0.4" d="M812.195 296.695H43.7969V193.574L432.216 241.75C432.216 241.75 807.724 238.251 812.195 238.168V238.167C812.248 238.167 812.248 238.167 812.195 238.168V296.695Z" fill="url(#paint1_linear_3044_2300)"/>
<rect x="808.391" y="233.389" width="8.17935" height="8.17935" rx="4.08967" fill="#CACACA"/>
<path d="M811.027 238.167L434.848 241.352L43.7958 193.176" stroke="#CACACA" stroke-width="3.18519"/>
<path d="M698.985 284.797V304.193L691.75 296.931L688.574 300.08L701.279 312.758L713.956 300.08L710.834 296.931L703.573 304.193V284.797H698.985Z" fill="#CACACA"/>
<path d="M723.644 307.891V303.263L735.249 284.979H739.24V291.386H736.878L729.562 302.964V303.181H746.054V307.891H723.644ZM736.987 312.777V306.479L737.095 304.43V284.979H742.606V312.777H736.987ZM755.394 308.977L755.244 310.47C755.127 311.664 754.901 312.854 754.566 314.04C754.24 315.234 753.896 316.315 753.534 317.284C753.181 318.252 752.896 319.012 752.679 319.564H748.933C749.069 319.03 749.254 318.284 749.489 317.324C749.725 316.374 749.946 315.306 750.154 314.121C750.363 312.936 750.494 311.728 750.548 310.497L750.616 308.977H755.394ZM760.289 312.777L771.812 289.974V289.784H758.388V284.979H777.893V289.852L766.356 312.777H760.289ZM796.745 307.565V306.099C796.745 304.986 796.98 303.964 797.45 303.032C797.93 302.091 798.622 301.34 799.527 300.779C800.441 300.209 801.554 299.923 802.866 299.923C804.196 299.923 805.314 300.204 806.219 300.765C807.133 301.326 807.82 302.077 808.282 303.018C808.752 303.95 808.988 304.977 808.988 306.099V307.565C808.988 308.678 808.752 309.705 808.282 310.646C807.811 311.578 807.119 312.325 806.205 312.886C805.291 313.456 804.178 313.741 802.866 313.741C801.536 313.741 800.418 313.456 799.514 312.886C798.609 312.325 797.921 311.578 797.45 310.646C796.98 309.705 796.745 308.678 796.745 307.565ZM800.694 306.099V307.565C800.694 308.208 800.848 308.814 801.156 309.384C801.473 309.954 802.043 310.239 802.866 310.239C803.69 310.239 804.251 309.959 804.549 309.398C804.857 308.837 805.011 308.226 805.011 307.565V306.099C805.011 305.439 804.866 304.823 804.576 304.253C804.287 303.683 803.717 303.398 802.866 303.398C802.052 303.398 801.486 303.683 801.169 304.253C800.853 304.823 800.694 305.439 800.694 306.099ZM782.479 291.657V290.191C782.479 289.069 782.719 288.042 783.198 287.11C783.678 286.169 784.37 285.418 785.275 284.857C786.189 284.296 787.293 284.016 788.587 284.016C789.926 284.016 791.048 284.296 791.953 284.857C792.858 285.418 793.546 286.169 794.016 287.11C794.487 288.042 794.722 289.069 794.722 290.191V291.657C794.722 292.779 794.482 293.806 794.003 294.739C793.532 295.671 792.84 296.417 791.926 296.978C791.021 297.53 789.908 297.806 788.587 297.806C787.266 297.806 786.148 297.526 785.234 296.965C784.33 296.394 783.642 295.648 783.171 294.725C782.71 293.793 782.479 292.77 782.479 291.657ZM786.456 290.191V291.657C786.456 292.318 786.61 292.929 786.918 293.49C787.234 294.051 787.791 294.331 788.587 294.331C789.42 294.331 789.985 294.051 790.284 293.49C790.591 292.929 790.745 292.318 790.745 291.657V290.191C790.745 289.531 790.6 288.916 790.311 288.346C790.021 287.775 789.447 287.49 788.587 287.49C787.782 287.49 787.225 287.78 786.918 288.359C786.61 288.938 786.456 289.549 786.456 290.191ZM784.271 312.777L803.382 284.979H806.938L787.827 312.777H784.271Z" fill="black"/>
<path d="M49.4705 182.082C48.9023 182.074 48.3424 181.97 47.7908 181.771C47.2433 181.572 46.7457 181.24 46.2977 180.776C45.8498 180.311 45.4911 179.687 45.2215 178.903C44.9561 178.12 44.8234 177.141 44.8234 175.967C44.8234 174.856 44.9333 173.869 45.1531 173.006C45.377 172.143 45.6984 171.415 46.1173 170.822C46.5362 170.225 47.0422 169.771 47.6353 169.46C48.2283 169.149 48.894 168.993 49.6322 168.993C50.3912 168.993 51.0652 169.143 51.6541 169.441C52.243 169.74 52.72 170.152 53.0849 170.679C53.454 171.206 53.6884 171.805 53.7879 172.477H51.8905C51.7619 171.946 51.5068 171.513 51.1253 171.177C50.7437 170.841 50.246 170.673 49.6322 170.673C48.6991 170.673 47.9712 171.079 47.4486 171.892C46.9302 172.705 46.6689 173.835 46.6648 175.283H46.7581C46.9779 174.922 47.2475 174.615 47.5668 174.362C47.8903 174.105 48.2512 173.908 48.6493 173.771C49.0516 173.63 49.4746 173.56 49.9184 173.56C50.6566 173.56 51.3244 173.74 51.9216 174.101C52.523 174.457 53.002 174.951 53.3587 175.581C53.7153 176.212 53.8937 176.933 53.8937 177.746C53.8937 178.559 53.7091 179.295 53.34 179.955C52.975 180.614 52.4607 181.137 51.7972 181.522C51.1336 181.904 50.358 182.091 49.4705 182.082ZM49.4643 180.465C49.9537 180.465 50.3912 180.345 50.7769 180.104C51.1626 179.864 51.4674 179.54 51.6914 179.134C51.9154 178.727 52.0273 178.273 52.0273 177.771C52.0273 177.282 51.9174 176.836 51.6976 176.434C51.482 176.031 51.1834 175.712 50.8018 175.476C50.4244 175.239 49.9931 175.121 49.5078 175.121C49.1387 175.121 48.7965 175.192 48.4813 175.333C48.1703 175.474 47.8966 175.668 47.6602 175.917C47.4238 176.166 47.2371 176.452 47.1003 176.776C46.9675 177.095 46.9012 177.433 46.9012 177.79C46.9012 178.267 47.0111 178.709 47.2309 179.115C47.4549 179.521 47.7597 179.849 48.1454 180.098C48.5353 180.343 48.9749 180.465 49.4643 180.465ZM56.4117 181.908L61.9734 170.909V170.816H55.5408V169.167H63.9641V170.872L58.4211 181.908H56.4117ZM66.2053 180.166L66.112 180.844C66.0498 181.342 65.944 181.861 65.7947 182.4C65.6496 182.943 65.4982 183.447 65.3406 183.911C65.1871 184.376 65.0606 184.745 64.9611 185.019H63.6422C63.6961 184.762 63.7708 184.413 63.8662 183.974C63.9616 183.538 64.0549 183.051 64.1461 182.512C64.2374 181.972 64.3058 181.423 64.3514 180.863L64.4136 180.166H66.2053ZM72.6162 182.082C72.048 182.074 71.4881 181.97 70.9365 181.771C70.3891 181.572 69.8914 181.24 69.4435 180.776C68.9955 180.311 68.6368 179.687 68.3672 178.903C68.1018 178.12 67.9691 177.141 67.9691 175.967C67.9691 174.856 68.079 173.869 68.2988 173.006C68.5227 172.143 68.8442 171.415 69.263 170.822C69.6819 170.225 70.1879 169.771 70.781 169.46C71.3741 169.149 72.0397 168.993 72.7779 168.993C73.5369 168.993 74.2109 169.143 74.7998 169.441C75.3887 169.74 75.8657 170.152 76.2306 170.679C76.5998 171.206 76.8341 171.805 76.9336 172.477H75.0362C74.9076 171.946 74.6526 171.513 74.271 171.177C73.8894 170.841 73.3918 170.673 72.7779 170.673C71.8448 170.673 71.1169 171.079 70.5944 171.892C70.0759 172.705 69.8146 173.835 69.8105 175.283H69.9038C70.1236 174.922 70.3932 174.615 70.7126 174.362C71.0361 174.105 71.3969 173.908 71.795 173.771C72.1973 173.63 72.6203 173.56 73.0641 173.56C73.8024 173.56 74.4701 173.74 75.0673 174.101C75.6687 174.457 76.1477 174.951 76.5044 175.581C76.861 176.212 77.0394 176.933 77.0394 177.746C77.0394 178.559 76.8548 179.295 76.4857 179.955C76.1207 180.614 75.6065 181.137 74.9429 181.522C74.2793 181.904 73.5037 182.091 72.6162 182.082ZM72.61 180.465C73.0994 180.465 73.5369 180.345 73.9226 180.104C74.3083 179.864 74.6132 179.54 74.8371 179.134C75.0611 178.727 75.1731 178.273 75.1731 177.771C75.1731 177.282 75.0632 176.836 74.8433 176.434C74.6277 176.031 74.3291 175.712 73.9475 175.476C73.5701 175.239 73.1388 175.121 72.6535 175.121C72.2844 175.121 71.9423 175.192 71.6271 175.333C71.316 175.474 71.0423 175.668 70.8059 175.917C70.5695 176.166 70.3828 176.452 70.246 176.776C70.1133 177.095 70.0469 177.433 70.0469 177.79C70.0469 178.267 70.1568 178.709 70.3766 179.115C70.6006 179.521 70.9054 179.849 71.2911 180.098C71.681 180.343 72.1206 180.465 72.61 180.465Z" fill="#CFCFCF"/>
<path d="M781.886 225.082C781.318 225.074 780.758 224.97 780.206 224.771C779.659 224.572 779.161 224.24 778.713 223.776C778.265 223.311 777.906 222.687 777.637 221.903C777.371 221.12 777.239 220.141 777.239 218.967C777.239 217.856 777.349 216.869 777.568 216.006C777.792 215.143 778.114 214.415 778.533 213.822C778.952 213.225 779.458 212.771 780.051 212.46C780.644 212.149 781.309 211.993 782.048 211.993C782.807 211.993 783.481 212.143 784.069 212.441C784.658 212.74 785.135 213.152 785.5 213.679C785.869 214.206 786.104 214.805 786.203 215.477H784.306C784.177 214.946 783.922 214.513 783.541 214.177C783.159 213.841 782.661 213.673 782.048 213.673C781.114 213.673 780.387 214.079 779.864 214.892C779.346 215.705 779.084 216.835 779.08 218.283H779.174C779.393 217.922 779.663 217.615 779.982 217.362C780.306 217.105 780.667 216.908 781.065 216.771C781.467 216.63 781.89 216.56 782.334 216.56C783.072 216.56 783.74 216.74 784.337 217.101C784.938 217.457 785.417 217.951 785.774 218.581C786.131 219.212 786.309 219.933 786.309 220.746C786.309 221.559 786.125 222.295 785.755 222.955C785.39 223.614 784.876 224.137 784.213 224.522C783.549 224.904 782.773 225.091 781.886 225.082ZM781.88 223.465C782.369 223.465 782.807 223.345 783.192 223.104C783.578 222.864 783.883 222.54 784.107 222.134C784.331 221.727 784.443 221.273 784.443 220.771C784.443 220.282 784.333 219.836 784.113 219.434C783.897 219.031 783.599 218.712 783.217 218.476C782.84 218.239 782.408 218.121 781.923 218.121C781.554 218.121 781.212 218.192 780.897 218.333C780.586 218.474 780.312 218.668 780.076 218.917C779.839 219.166 779.653 219.452 779.516 219.776C779.383 220.095 779.317 220.433 779.317 220.79C779.317 221.267 779.427 221.709 779.646 222.115C779.87 222.521 780.175 222.849 780.561 223.098C780.951 223.343 781.39 223.465 781.88 223.465ZM788.398 224.908V223.515L792.709 219.048C793.169 218.563 793.549 218.138 793.848 217.773C794.15 217.404 794.376 217.053 794.526 216.721C794.675 216.389 794.75 216.037 794.75 215.664C794.75 215.241 794.65 214.876 794.451 214.569C794.252 214.258 793.98 214.019 793.636 213.853C793.292 213.683 792.904 213.598 792.473 213.598C792.016 213.598 791.618 213.692 791.278 213.878C790.938 214.065 790.677 214.328 790.494 214.668C790.312 215.008 790.221 215.407 790.221 215.863H788.385C788.385 215.087 788.564 214.409 788.92 213.828C789.277 213.248 789.767 212.798 790.389 212.479C791.011 212.155 791.718 211.993 792.51 211.993C793.31 211.993 794.015 212.153 794.625 212.472C795.239 212.787 795.718 213.219 796.062 213.766C796.406 214.31 796.579 214.923 796.579 215.608C796.579 216.081 796.489 216.543 796.311 216.995C796.137 217.447 795.832 217.951 795.397 218.507C794.961 219.058 794.356 219.728 793.58 220.516L791.048 223.166V223.26H796.784V224.908H788.398ZM801.409 223.166L801.316 223.844C801.254 224.342 801.148 224.861 800.999 225.4C800.854 225.943 800.702 226.447 800.545 226.911C800.391 227.376 800.265 227.745 800.165 228.019H798.846C798.9 227.762 798.975 227.413 799.07 226.974C799.166 226.538 799.259 226.051 799.35 225.512C799.441 224.972 799.51 224.423 799.555 223.863L799.618 223.166H801.409ZM807.917 211.993C808.485 211.997 809.045 212.101 809.596 212.304C810.148 212.508 810.646 212.839 811.089 213.3C811.537 213.76 811.894 214.382 812.159 215.166C812.429 215.946 812.566 216.916 812.57 218.077C812.57 219.193 812.458 220.186 812.234 221.057C812.01 221.924 811.689 222.656 811.27 223.253C810.855 223.851 810.351 224.305 809.758 224.616C809.165 224.927 808.497 225.082 807.755 225.082C806.996 225.082 806.322 224.933 805.733 224.634C805.144 224.336 804.665 223.923 804.296 223.396C803.927 222.866 803.697 222.256 803.605 221.567H805.503C805.627 222.115 805.88 222.559 806.262 222.899C806.648 223.235 807.145 223.403 807.755 223.403C808.688 223.403 809.416 222.996 809.938 222.183C810.461 221.366 810.724 220.226 810.729 218.762H810.629C810.413 219.118 810.144 219.425 809.82 219.683C809.501 219.94 809.142 220.139 808.744 220.28C808.346 220.421 807.921 220.491 807.469 220.491C806.735 220.491 806.067 220.311 805.466 219.95C804.864 219.589 804.385 219.094 804.028 218.463C803.672 217.833 803.493 217.113 803.493 216.304C803.493 215.5 803.676 214.77 804.041 214.115C804.41 213.459 804.924 212.941 805.584 212.559C806.247 212.174 807.025 211.985 807.917 211.993ZM807.923 213.611C807.438 213.611 807 213.731 806.61 213.972C806.224 214.208 805.92 214.529 805.696 214.936C805.472 215.338 805.36 215.786 805.36 216.28C805.36 216.773 805.468 217.221 805.683 217.623C805.903 218.021 806.202 218.339 806.579 218.575C806.961 218.807 807.396 218.924 807.886 218.924C808.25 218.924 808.591 218.853 808.906 218.712C809.221 218.571 809.497 218.376 809.733 218.127C809.97 217.874 810.154 217.588 810.287 217.269C810.42 216.949 810.486 216.613 810.486 216.261C810.486 215.792 810.374 215.357 810.15 214.954C809.93 214.552 809.627 214.229 809.242 213.984C808.856 213.735 808.416 213.611 807.923 213.611Z" fill="#CFCFCF"/>
<rect x="31.8516" y="596.223" width="390.981" height="234.907" rx="15.9259" fill="#F7F7F7"/>
<path opacity="0.6" d="M44.825 624.168V613.744H48.8156C49.5689 613.744 50.195 613.862 50.6938 614.1C51.196 614.334 51.5709 614.655 51.8187 615.062C52.0698 615.469 52.1953 615.931 52.1953 616.446C52.1953 616.871 52.1139 617.234 51.951 617.536C51.7881 617.834 51.5692 618.077 51.2944 618.264C51.0195 618.45 50.7124 618.584 50.3731 618.666V618.768C50.743 618.788 51.0976 618.902 51.4369 619.109C51.7796 619.312 52.0596 619.601 52.2768 619.974C52.4939 620.347 52.6025 620.798 52.6025 621.328C52.6025 621.867 52.4719 622.353 52.2106 622.783C51.9493 623.211 51.5557 623.549 51.0297 623.796C50.5037 624.044 49.8421 624.168 49.0446 624.168H44.825ZM46.7134 622.59H48.7443C49.4298 622.59 49.9235 622.459 50.2255 622.198C50.5309 621.933 50.6836 621.594 50.6836 621.18C50.6836 620.871 50.6072 620.593 50.4545 620.345C50.3018 620.094 50.0847 619.897 49.803 619.755C49.5214 619.609 49.1854 619.536 48.7952 619.536H46.7134V622.59ZM46.7134 618.177H48.5814C48.9072 618.177 49.2007 618.118 49.462 617.999C49.7233 617.877 49.9286 617.705 50.0779 617.485C50.2306 617.261 50.3069 616.996 50.3069 616.691C50.3069 616.287 50.1644 615.954 49.8794 615.693C49.5977 615.432 49.1787 615.301 48.6222 615.301H46.7134V618.177ZM64.9933 618.956C64.9933 620.079 64.7829 621.041 64.3621 621.842C63.9447 622.639 63.3747 623.25 62.6519 623.674C61.9325 624.098 61.1164 624.31 60.2036 624.31C59.2908 624.31 58.473 624.098 57.7502 623.674C57.0309 623.247 56.4608 622.634 56.04 621.837C55.6226 621.036 55.4139 620.076 55.4139 618.956C55.4139 617.833 55.6226 616.872 56.04 616.075C56.4608 615.274 57.0309 614.662 57.7502 614.237C58.473 613.813 59.2908 613.601 60.2036 613.601C61.1164 613.601 61.9325 613.813 62.6519 614.237C63.3747 614.662 63.9447 615.274 64.3621 616.075C64.7829 616.872 64.9933 617.833 64.9933 618.956ZM63.0947 618.956C63.0947 618.165 62.9708 617.498 62.7231 616.955C62.4788 616.409 62.1395 615.997 61.7051 615.719C61.2708 615.437 60.7703 615.296 60.2036 615.296C59.6369 615.296 59.1364 615.437 58.7021 615.719C58.2677 615.997 57.9267 616.409 57.679 616.955C57.4347 617.498 57.3125 618.165 57.3125 618.956C57.3125 619.746 57.4347 620.415 57.679 620.961C57.9267 621.504 58.2677 621.917 58.7021 622.198C59.1364 622.476 59.6369 622.616 60.2036 622.616C60.7703 622.616 61.2708 622.476 61.7051 622.198C62.1395 621.917 62.4788 621.504 62.7231 620.961C62.9708 620.415 63.0947 619.746 63.0947 618.956ZM68.2119 624.168V613.744H74.9917V615.327H70.1003V618.157H74.6405V619.74H70.1003V622.585H75.0324V624.168H68.2119ZM78.3516 624.168V613.744H80.24V618.157H85.0704V613.744H86.9638V624.168H85.0704V619.74H80.24V624.168H78.3516ZM90.451 624.168V613.744H92.3393V618.157H97.1697V613.744H99.0632V624.168H97.1697V619.74H92.3393V624.168H90.451ZM103.889 624.168H101.873L105.543 613.744H107.874L111.549 624.168H109.534L106.75 615.882H106.668L103.889 624.168ZM103.955 620.081H109.452V621.598H103.955V620.081ZM122.052 624.168H120.158V615.322H118.428C117.959 615.322 117.574 615.391 117.272 615.53C116.974 615.666 116.751 615.866 116.605 616.131C116.463 616.392 116.392 616.708 116.392 617.078C116.392 617.448 116.463 617.76 116.605 618.014C116.748 618.265 116.969 618.457 117.267 618.589C117.569 618.718 117.953 618.783 118.417 618.783H120.952V620.35H118.163C117.362 620.35 116.687 620.218 116.137 619.953C115.587 619.685 115.17 619.307 114.885 618.818C114.603 618.326 114.463 617.746 114.463 617.078C114.463 616.413 114.602 615.831 114.88 615.332C115.162 614.83 115.576 614.439 116.122 614.161C116.668 613.883 117.34 613.744 118.138 613.744H122.052V624.168ZM116.661 619.444H118.723L116.188 624.168H114.081L116.661 619.444Z" fill="black"/>
<path opacity="0.4" d="M406.901 794.4H43.7969V706.409L257.488 713.974C257.488 713.974 404.797 676.439 406.901 675.376V675.354C406.931 675.354 406.931 675.361 406.901 675.376V794.4Z" fill="url(#paint2_linear_3044_2300)"/>
<rect x="403.076" y="671.371" width="8.17935" height="8.17935" rx="4.08967" fill="#04B34A"/>
<path d="M404.916 676.148L263.505 714.253C261.257 714.859 258.931 715.121 256.605 715.031L43.7956 706.806" stroke="#04B34A" stroke-width="3.18519"/>
<path d="M327.448 811.093C325.113 811.084 323.104 810.51 321.421 809.369C319.747 808.229 318.458 806.578 317.553 804.415C316.657 802.253 316.213 799.651 316.223 796.611C316.223 793.579 316.67 790.996 317.566 788.86C318.471 786.725 319.761 785.1 321.435 783.987C323.118 782.865 325.122 782.304 327.448 782.304C329.773 782.304 331.773 782.865 333.447 783.987C335.13 785.11 336.424 786.738 337.329 788.874C338.234 791 338.682 793.579 338.673 796.611C338.673 799.66 338.22 802.266 337.315 804.429C336.42 806.591 335.135 808.243 333.461 809.383C331.787 810.523 329.782 811.093 327.448 811.093ZM327.448 806.22C329.04 806.22 330.312 805.42 331.262 803.818C332.212 802.216 332.682 799.814 332.673 796.611C332.673 794.502 332.456 792.747 332.022 791.344C331.596 789.942 330.99 788.887 330.203 788.182C329.425 787.476 328.506 787.123 327.448 787.123C325.864 787.123 324.597 787.915 323.647 789.498C322.697 791.082 322.217 793.453 322.208 796.611C322.208 798.746 322.421 800.529 322.846 801.958C323.281 803.379 323.891 804.447 324.679 805.162C325.466 805.868 326.389 806.22 327.448 806.22ZM347.69 806.682L347.541 808.175C347.423 809.369 347.197 810.559 346.862 811.745C346.537 812.939 346.193 814.021 345.831 814.989C345.478 815.957 345.193 816.717 344.976 817.269H341.23C341.365 816.735 341.551 815.989 341.786 815.029C342.021 814.079 342.243 813.012 342.451 811.826C342.659 810.641 342.79 809.433 342.845 808.202L342.913 806.682H347.69ZM352.531 810.482V806.248L362.426 797.086C363.267 796.271 363.973 795.538 364.543 794.887C365.122 794.235 365.561 793.597 365.86 792.973C366.158 792.34 366.308 791.656 366.308 790.923C366.308 790.109 366.122 789.408 365.751 788.82C365.38 788.222 364.874 787.765 364.231 787.449C363.589 787.123 362.86 786.96 362.046 786.96C361.195 786.96 360.453 787.132 359.82 787.476C359.186 787.82 358.698 788.313 358.354 788.955C358.01 789.598 357.838 790.362 357.838 791.249H352.259C352.259 789.43 352.671 787.851 353.495 786.512C354.318 785.173 355.472 784.137 356.956 783.404C358.44 782.671 360.15 782.304 362.086 782.304C364.077 782.304 365.81 782.657 367.285 783.363C368.769 784.06 369.923 785.028 370.746 786.268C371.57 787.507 371.981 788.928 371.981 790.53C371.981 791.579 371.773 792.616 371.357 793.638C370.95 794.661 370.221 795.796 369.172 797.045C368.122 798.285 366.643 799.773 364.733 801.511L360.675 805.487V805.677H372.348V810.482H352.531ZM391.43 805.27V803.804C391.43 802.691 391.665 801.669 392.136 800.737C392.616 799.796 393.308 799.045 394.213 798.484C395.127 797.914 396.24 797.629 397.552 797.629C398.882 797.629 399.999 797.909 400.904 798.47C401.818 799.031 402.506 799.782 402.967 800.723C403.438 801.655 403.673 802.682 403.673 803.804V805.27C403.673 806.383 403.438 807.41 402.967 808.351C402.497 809.283 401.805 810.03 400.891 810.591C399.977 811.161 398.864 811.446 397.552 811.446C396.221 811.446 395.104 811.161 394.199 810.591C393.294 810.03 392.606 809.283 392.136 808.351C391.665 807.41 391.43 806.383 391.43 805.27ZM395.38 803.804V805.27C395.38 805.913 395.534 806.519 395.841 807.089C396.158 807.659 396.728 807.944 397.552 807.944C398.375 807.944 398.936 807.664 399.235 807.103C399.542 806.542 399.696 805.931 399.696 805.27V803.804C399.696 803.144 399.551 802.529 399.262 801.958C398.972 801.388 398.402 801.103 397.552 801.103C396.737 801.103 396.172 801.388 395.855 801.958C395.538 802.529 395.38 803.144 395.38 803.804ZM377.165 789.362V787.897C377.165 786.775 377.404 785.747 377.884 784.815C378.364 783.874 379.056 783.123 379.961 782.562C380.875 782.001 381.979 781.721 383.273 781.721C384.612 781.721 385.734 782.001 386.639 782.562C387.544 783.123 388.231 783.874 388.702 784.815C389.172 785.747 389.408 786.775 389.408 787.897V789.362C389.408 790.485 389.168 791.512 388.688 792.444C388.218 793.376 387.526 794.122 386.612 794.683C385.707 795.235 384.594 795.511 383.273 795.511C381.951 795.511 380.834 795.231 379.92 794.67C379.015 794.1 378.327 793.353 377.857 792.43C377.395 791.498 377.165 790.475 377.165 789.362ZM381.142 787.897V789.362C381.142 790.023 381.295 790.634 381.603 791.195C381.92 791.756 382.476 792.036 383.273 792.036C384.105 792.036 384.671 791.756 384.969 791.195C385.277 790.634 385.431 790.023 385.431 789.362V787.897C385.431 787.236 385.286 786.621 384.996 786.051C384.707 785.481 384.132 785.195 383.273 785.195C382.467 785.195 381.911 785.485 381.603 786.064C381.295 786.643 381.142 787.254 381.142 787.897ZM378.956 810.482L398.067 782.684H401.624L382.513 810.482H378.956Z" fill="black"/>
<path d="M49.458 694.954C48.4751 694.95 47.6353 694.69 46.9385 694.176C46.2418 693.662 45.7088 692.913 45.3397 691.93C44.9706 690.947 44.786 689.763 44.786 688.378C44.786 686.997 44.9706 685.817 45.3397 684.838C45.713 683.859 46.248 683.113 46.9447 682.599C47.6456 682.084 48.4834 681.827 49.458 681.827C50.4327 681.827 51.2684 682.086 51.9651 682.605C52.6619 683.119 53.1948 683.866 53.5639 684.844C53.9372 685.819 54.1238 686.997 54.1238 688.378C54.1238 689.767 53.9393 690.954 53.5702 691.936C53.2011 692.915 52.6681 693.664 51.9714 694.182C51.2746 694.697 50.4368 694.954 49.458 694.954ZM49.458 693.293C50.3207 693.293 50.9946 692.872 51.4799 692.03C51.9693 691.188 52.214 689.971 52.214 688.378C52.214 687.32 52.102 686.427 51.878 685.697C51.6582 684.963 51.341 684.407 50.9262 684.03C50.5156 683.648 50.0262 683.457 49.458 683.457C48.5995 683.457 47.9256 683.88 47.4362 684.726C46.9468 685.572 46.7 686.79 46.6959 688.378C46.6959 689.44 46.8058 690.338 47.0256 691.072C47.2496 691.802 47.5668 692.355 47.9774 692.733C48.388 693.106 48.8816 693.293 49.458 693.293ZM58.1365 693L58.0432 693.678C57.981 694.176 57.8752 694.694 57.7259 695.234C57.5808 695.777 57.4294 696.281 57.2718 696.745C57.1183 697.21 56.9918 697.579 56.8923 697.853H55.5734C55.6273 697.596 55.702 697.247 55.7974 696.808C55.8928 696.372 55.9861 695.885 56.0773 695.346C56.1686 694.806 56.237 694.257 56.2826 693.697L56.3448 693H58.1365ZM64.4385 694.916C63.5468 694.916 62.7588 694.763 62.0745 694.456C61.3944 694.149 60.8614 693.726 60.4757 693.187C60.09 692.648 59.8992 692.034 59.9034 691.345C59.8992 690.806 60.0091 690.311 60.2331 689.859C60.4612 689.402 60.7702 689.023 61.16 688.72C61.5499 688.413 61.9854 688.218 62.4665 688.135V688.061C61.8319 687.907 61.3238 687.567 60.9423 687.041C60.5607 686.514 60.372 685.908 60.3762 685.224C60.372 684.573 60.5441 683.992 60.8925 683.482C61.245 682.968 61.7282 682.563 62.342 682.269C62.9558 681.974 63.6547 681.827 64.4385 681.827C65.2141 681.827 65.9067 681.977 66.5164 682.275C67.1302 682.57 67.6133 682.974 67.9659 683.488C68.3184 683.998 68.4967 684.577 68.5009 685.224C68.4967 685.908 68.3018 686.514 67.9161 687.041C67.5304 687.567 67.0286 687.907 66.4106 688.061V688.135C66.8876 688.218 67.3168 688.413 67.6984 688.72C68.0841 689.023 68.391 689.402 68.6191 689.859C68.8513 690.311 68.9695 690.806 68.9737 691.345C68.9695 692.034 68.7746 692.648 68.3889 693.187C68.0032 693.726 67.4682 694.149 66.7839 694.456C66.1037 694.763 65.3219 694.916 64.4385 694.916ZM64.4385 693.342C64.9652 693.342 65.4215 693.255 65.8072 693.081C66.1929 692.903 66.4915 692.656 66.703 692.341C66.9145 692.022 67.0223 691.648 67.0265 691.221C67.0223 690.777 66.9062 690.385 66.6781 690.045C66.4542 689.705 66.1493 689.438 65.7636 689.243C65.3779 689.048 64.9362 688.95 64.4385 688.95C63.9367 688.95 63.4909 689.048 63.101 689.243C62.7111 689.438 62.4042 689.705 62.1803 690.045C61.9563 690.385 61.8464 690.777 61.8506 691.221C61.8464 691.648 61.948 692.022 62.1554 692.341C62.3669 692.656 62.6676 692.903 63.0575 693.081C63.4473 693.255 63.9077 693.342 64.4385 693.342ZM64.4385 687.414C64.8616 687.414 65.2369 687.329 65.5645 687.159C65.8922 686.989 66.1493 686.752 66.336 686.45C66.5267 686.147 66.6242 685.792 66.6283 685.386C66.6242 684.988 66.5288 684.639 66.3422 684.341C66.1597 684.042 65.9046 683.812 65.577 683.65C65.2493 683.484 64.8699 683.401 64.4385 683.401C63.9989 683.401 63.6132 683.484 63.2814 683.65C62.9538 683.812 62.6987 684.042 62.5162 684.341C62.3337 684.639 62.2446 684.988 62.2487 685.386C62.2446 685.792 62.3358 686.147 62.5224 686.45C62.7091 686.752 62.9662 686.989 63.2939 687.159C63.6256 687.329 64.0072 687.414 64.4385 687.414Z" fill="#CFCFCF"/>
<path d="M405.724 647.759V660.5H403.796V649.688H403.721L400.673 651.679V649.837L403.852 647.759H405.724Z" fill="#CFCFCF"/>
<rect x="437.166" y="347.982" width="390.981" height="234.907" rx="15.9259" fill="#F7F7F7"/>
<path opacity="0.6" d="M452.028 362.503V372.928H450.14V362.503H452.028ZM455.048 364.086V362.503H463.365V364.086H460.143V372.928H458.27V364.086H455.048ZM470.415 366.957V368.474H465.722V366.957H470.415ZM473.868 362.503H475.741V369.609H475.838L480.739 362.503H482.434V372.928H480.546V365.827H480.459L475.542 372.928H473.868V362.503ZM494.431 362.503V372.928H492.557V364.071H487.997V372.928H486.124V362.503H494.431ZM507.437 367.716C507.437 368.839 507.227 369.801 506.806 370.602C506.389 371.399 505.819 372.01 505.096 372.434C504.376 372.858 503.56 373.07 502.648 373.07C501.735 373.07 500.917 372.858 500.194 372.434C499.475 372.006 498.905 371.394 498.484 370.597C498.067 369.796 497.858 368.835 497.858 367.716C497.858 366.592 498.067 365.632 498.484 364.835C498.905 364.034 499.475 363.421 500.194 362.997C500.917 362.573 501.735 362.361 502.648 362.361C503.56 362.361 504.376 362.573 505.096 362.997C505.819 363.421 506.389 364.034 506.806 364.835C507.227 365.632 507.437 366.592 507.437 367.716ZM505.539 367.716C505.539 366.925 505.415 366.258 505.167 365.715C504.923 365.169 504.583 364.757 504.149 364.478C503.715 364.197 503.214 364.056 502.648 364.056C502.081 364.056 501.58 364.197 501.146 364.478C500.712 364.757 500.371 365.169 500.123 365.715C499.879 366.258 499.756 366.925 499.756 367.716C499.756 368.506 499.879 369.175 500.123 369.721C500.371 370.264 500.712 370.676 501.146 370.958C501.58 371.236 502.081 371.375 502.648 371.375C503.214 371.375 503.715 371.236 504.149 370.958C504.583 370.676 504.923 370.264 505.167 369.721C505.415 369.175 505.539 368.506 505.539 367.716ZM509.736 364.086V362.503H518.053V364.086H514.831V372.928H512.958V364.086H509.736ZM521.089 372.928V362.503H527.869V364.086H522.978V366.916H527.518V368.499H522.978V371.345H527.91V372.928H521.089ZM537.475 372.928L534.044 368.372H533.118V372.928H531.229V362.503H533.118V366.789H533.591L537.296 362.503H539.623L535.505 367.258L539.801 372.928H537.475ZM543.855 372.928H541.84L545.51 362.503H547.841L551.516 372.928H549.5L546.716 364.641H546.634L543.855 372.928ZM543.922 368.84H549.419V370.357H543.922V368.84Z" fill="black"/>
<path opacity="0.4" d="M449.111 545.937H812.215V487.409C814.37 487.409 592.843 483.029 592.843 483.029L449.111 442.816V545.937Z" fill="url(#paint3_linear_3044_2300)"/>
<rect x="808.391" y="482.633" width="8.17935" height="8.17935" rx="4.08967" fill="#CACACA"/>
<path d="M811.027 487.409L596.653 482.695C594.733 482.652 592.826 482.371 590.976 481.856L449.111 442.418" stroke="#CACACA" stroke-width="3.18519"/>
<path d="M696.985 534.041V553.437L689.75 546.176L686.574 549.325L699.279 562.002L711.956 549.325L708.834 546.176L701.573 553.437V534.041H696.985Z" fill="#CACACA"/>
<path d="M732.762 562.632C730.427 562.623 728.419 562.049 726.736 560.908C725.062 559.768 723.772 558.117 722.867 555.954C721.971 553.792 721.528 551.19 721.537 548.15C721.537 545.118 721.985 542.535 722.881 540.399C723.786 538.264 725.075 536.64 726.749 535.527C728.432 534.404 730.437 533.843 732.762 533.843C735.088 533.843 737.087 534.404 738.761 535.527C740.445 536.649 741.738 538.277 742.643 540.413C743.548 542.539 743.996 545.118 743.987 548.15C743.987 551.199 743.535 553.805 742.63 555.968C741.734 558.13 740.449 559.782 738.775 560.922C737.101 562.062 735.097 562.632 732.762 562.632ZM732.762 557.759C734.355 557.759 735.626 556.959 736.576 555.357C737.526 553.755 737.997 551.353 737.988 548.15C737.988 546.041 737.771 544.286 737.336 542.883C736.911 541.481 736.305 540.426 735.517 539.721C734.739 539.015 733.821 538.662 732.762 538.662C731.179 538.662 729.912 539.454 728.962 541.037C728.011 542.621 727.532 544.992 727.523 548.15C727.523 550.285 727.735 552.068 728.161 553.497C728.595 554.918 729.206 555.986 729.993 556.701C730.78 557.407 731.703 557.759 732.762 557.759ZM753.005 558.221L752.856 559.714C752.738 560.908 752.512 562.098 752.177 563.284C751.851 564.478 751.507 565.56 751.145 566.528C750.792 567.496 750.507 568.256 750.29 568.808H746.544C746.68 568.274 746.865 567.528 747.1 566.569C747.336 565.618 747.557 564.551 747.766 563.365C747.974 562.18 748.105 560.972 748.159 559.741L748.227 558.221H753.005ZM757.845 562.021V557.787L767.74 548.625C768.582 547.81 769.288 547.077 769.858 546.426C770.437 545.774 770.876 545.136 771.174 544.512C771.473 543.879 771.622 543.195 771.622 542.462C771.622 541.648 771.437 540.947 771.066 540.359C770.695 539.761 770.188 539.304 769.546 538.988C768.903 538.662 768.175 538.499 767.36 538.499C766.51 538.499 765.768 538.671 765.134 539.015C764.501 539.359 764.012 539.852 763.668 540.494C763.324 541.137 763.153 541.901 763.153 542.788H757.574C757.574 540.969 757.986 539.39 758.809 538.051C759.633 536.712 760.786 535.676 762.27 534.943C763.754 534.21 765.464 533.843 767.401 533.843C769.392 533.843 771.125 534.196 772.599 534.902C774.084 535.599 775.237 536.567 776.061 537.807C776.884 539.047 777.296 540.467 777.296 542.069C777.296 543.118 777.088 544.155 776.671 545.177C776.264 546.2 775.536 547.335 774.486 548.584C773.437 549.824 771.957 551.312 770.048 553.05L765.989 557.027V557.217H777.662V562.021H757.845ZM796.745 556.809V555.343C796.745 554.23 796.98 553.208 797.45 552.276C797.93 551.335 798.622 550.584 799.527 550.023C800.441 549.453 801.554 549.168 802.866 549.168C804.196 549.168 805.314 549.448 806.219 550.009C807.133 550.57 807.82 551.321 808.282 552.262C808.752 553.194 808.988 554.221 808.988 555.343V556.809C808.988 557.922 808.752 558.949 808.282 559.89C807.811 560.823 807.119 561.569 806.205 562.13C805.291 562.7 804.178 562.985 802.866 562.985C801.536 562.985 800.418 562.7 799.514 562.13C798.609 561.569 797.921 560.823 797.45 559.89C796.98 558.949 796.745 557.922 796.745 556.809ZM800.694 555.343V556.809C800.694 557.452 800.848 558.058 801.156 558.628C801.473 559.198 802.043 559.483 802.866 559.483C803.69 559.483 804.251 559.203 804.549 558.642C804.857 558.081 805.011 557.47 805.011 556.809V555.343C805.011 554.683 804.866 554.068 804.576 553.497C804.287 552.927 803.717 552.642 802.866 552.642C802.052 552.642 801.486 552.927 801.169 553.497C800.853 554.068 800.694 554.683 800.694 555.343ZM782.479 540.902V539.436C782.479 538.314 782.719 537.287 783.198 536.355C783.678 535.413 784.37 534.662 785.275 534.101C786.189 533.54 787.293 533.26 788.587 533.26C789.926 533.26 791.048 533.54 791.953 534.101C792.858 534.662 793.546 535.413 794.016 536.355C794.487 537.287 794.722 538.314 794.722 539.436V540.902C794.722 542.024 794.482 543.051 794.003 543.983C793.532 544.915 792.84 545.661 791.926 546.222C791.021 546.774 789.908 547.05 788.587 547.05C787.266 547.05 786.148 546.77 785.234 546.209C784.33 545.639 783.642 544.892 783.171 543.969C782.71 543.037 782.479 542.015 782.479 540.902ZM786.456 539.436V540.902C786.456 541.562 786.61 542.173 786.918 542.734C787.234 543.295 787.791 543.575 788.587 543.575C789.42 543.575 789.985 543.295 790.284 542.734C790.591 542.173 790.745 541.562 790.745 540.902V539.436C790.745 538.775 790.6 538.16 790.311 537.59C790.021 537.02 789.447 536.735 788.587 536.735C787.782 536.735 787.225 537.024 786.918 537.603C786.61 538.182 786.456 538.793 786.456 539.436ZM784.271 562.021L803.382 534.224H806.938L787.827 562.021H784.271Z" fill="black"/>
<path d="M455.171 418.41V431.15H453.242V420.338H453.167L450.119 422.329V420.487L453.298 418.41H455.171ZM460.149 429.408L460.056 430.087C459.994 430.584 459.888 431.103 459.739 431.642C459.593 432.185 459.442 432.689 459.284 433.154C459.131 433.618 459.004 433.987 458.905 434.261H457.586C457.64 434.004 457.715 433.655 457.81 433.216C457.905 432.78 457.999 432.293 458.09 431.754C458.181 431.215 458.25 430.665 458.295 430.105L458.357 429.408H460.149ZM466.451 431.325C465.559 431.325 464.771 431.171 464.087 430.864C463.407 430.557 462.874 430.134 462.488 429.595C462.103 429.056 461.912 428.442 461.916 427.754C461.912 427.215 462.022 426.719 462.246 426.267C462.474 425.811 462.783 425.431 463.173 425.128C463.563 424.821 463.998 424.627 464.479 424.544V424.469C463.845 424.316 463.336 423.975 462.955 423.449C462.573 422.922 462.385 422.316 462.389 421.632C462.385 420.981 462.557 420.4 462.905 419.89C463.258 419.376 463.741 418.972 464.355 418.677C464.968 418.383 465.667 418.235 466.451 418.235C467.227 418.235 467.919 418.385 468.529 418.683C469.143 418.978 469.626 419.382 469.978 419.896C470.331 420.407 470.509 420.985 470.514 421.632C470.509 422.316 470.314 422.922 469.929 423.449C469.543 423.975 469.041 424.316 468.423 424.469V424.544C468.9 424.627 469.329 424.821 469.711 425.128C470.097 425.431 470.404 425.811 470.632 426.267C470.864 426.719 470.982 427.215 470.986 427.754C470.982 428.442 470.787 429.056 470.402 429.595C470.016 430.134 469.481 430.557 468.796 430.864C468.116 431.171 467.335 431.325 466.451 431.325ZM466.451 429.751C466.978 429.751 467.434 429.664 467.82 429.489C468.205 429.311 468.504 429.064 468.716 428.749C468.927 428.43 469.035 428.056 469.039 427.629C469.035 427.185 468.919 426.794 468.691 426.453C468.467 426.113 468.162 425.846 467.776 425.651C467.391 425.456 466.949 425.359 466.451 425.359C465.949 425.359 465.503 425.456 465.114 425.651C464.724 425.846 464.417 426.113 464.193 426.453C463.969 426.794 463.859 427.185 463.863 427.629C463.859 428.056 463.961 428.43 464.168 428.749C464.38 429.064 464.68 429.311 465.07 429.489C465.46 429.664 465.92 429.751 466.451 429.751ZM466.451 423.822C466.874 423.822 467.25 423.737 467.577 423.567C467.905 423.397 468.162 423.16 468.349 422.858C468.539 422.555 468.637 422.2 468.641 421.794C468.637 421.396 468.541 421.047 468.355 420.749C468.172 420.45 467.917 420.22 467.59 420.058C467.262 419.892 466.882 419.809 466.451 419.809C466.012 419.809 465.626 419.892 465.294 420.058C464.966 420.22 464.711 420.45 464.529 420.749C464.346 421.047 464.257 421.396 464.261 421.794C464.257 422.2 464.348 422.555 464.535 422.858C464.722 423.16 464.979 423.397 465.306 423.567C465.638 423.737 466.02 423.822 466.451 423.822Z" fill="#CFCFCF"/>
<path d="M796.073 461.41V474.15H794.144V463.338H794.07L791.021 465.329V463.487L794.2 461.41H796.073ZM801.051 472.408L800.958 473.087C800.896 473.584 800.79 474.103 800.641 474.642C800.495 475.185 800.344 475.689 800.187 476.154C800.033 476.618 799.907 476.987 799.807 477.261H798.488C798.542 477.004 798.617 476.655 798.712 476.216C798.808 475.78 798.901 475.293 798.992 474.754C799.083 474.215 799.152 473.665 799.197 473.105L799.26 472.408H801.051ZM807.462 474.325C806.894 474.316 806.334 474.213 805.782 474.014C805.235 473.814 804.737 473.483 804.289 473.018C803.841 472.554 803.483 471.929 803.213 471.146C802.948 470.362 802.815 469.383 802.815 468.209C802.815 467.098 802.925 466.111 803.145 465.248C803.369 464.385 803.69 463.658 804.109 463.064C804.528 462.467 805.034 462.013 805.627 461.702C806.22 461.391 806.886 461.235 807.624 461.235C808.383 461.235 809.057 461.385 809.646 461.683C810.235 461.982 810.712 462.395 811.077 462.921C811.446 463.448 811.68 464.047 811.78 464.719H809.882C809.754 464.188 809.498 463.755 809.117 463.419C808.735 463.083 808.238 462.915 807.624 462.915C806.691 462.915 805.963 463.322 805.44 464.134C804.922 464.947 804.661 466.078 804.656 467.525H804.75C804.97 467.164 805.239 466.857 805.558 466.604C805.882 466.347 806.243 466.15 806.641 466.013C807.043 465.872 807.466 465.802 807.91 465.802C808.648 465.802 809.316 465.982 809.913 466.343C810.515 466.7 810.994 467.193 811.35 467.824C811.707 468.454 811.885 469.176 811.885 469.988C811.885 470.801 811.701 471.538 811.332 472.197C810.967 472.856 810.452 473.379 809.789 473.765C809.125 474.146 808.35 474.333 807.462 474.325ZM807.456 472.707C807.945 472.707 808.383 472.587 808.769 472.346C809.154 472.106 809.459 471.782 809.683 471.376C809.907 470.969 810.019 470.515 810.019 470.013C810.019 469.524 809.909 469.078 809.689 468.676C809.474 468.274 809.175 467.954 808.793 467.718C808.416 467.481 807.985 467.363 807.499 467.363C807.13 467.363 806.788 467.434 806.473 467.575C806.162 467.716 805.888 467.911 805.652 468.16C805.415 468.408 805.229 468.695 805.092 469.018C804.959 469.337 804.893 469.675 804.893 470.032C804.893 470.509 805.003 470.951 805.223 471.357C805.447 471.764 805.751 472.091 806.137 472.34C806.527 472.585 806.967 472.707 807.456 472.707Z" fill="#CFCFCF"/>
<rect x="437.166" y="597.02" width="390.981" height="234.907" rx="15.9259" fill="#F7F7F7"/>
<path opacity="0.6" d="M449.463 627.479V623.423H450.16C450.394 623.236 450.613 622.973 450.816 622.634C451.02 622.294 451.193 621.829 451.336 621.239C451.478 620.649 451.577 619.885 451.631 618.949L451.906 614.541H458.568V623.423H459.729V627.469H457.917V624.965H451.275V627.479H449.463ZM452.359 623.423H456.756V616.124H453.606L453.443 618.949C453.399 619.658 453.328 620.292 453.229 620.852C453.131 621.412 453.007 621.906 452.858 622.333C452.708 622.757 452.542 623.121 452.359 623.423ZM464.039 624.965H462.024L465.694 614.541H468.025L471.7 624.965H469.684L466.9 616.678H466.819L464.039 624.965ZM464.106 620.878H469.603V622.394H464.106V620.878ZM473.829 624.965V623.397L474.124 623.382C474.525 623.358 474.842 623.214 475.076 622.949C475.314 622.685 475.489 622.259 475.601 621.672C475.716 621.085 475.792 620.297 475.83 619.31L476.003 614.541H482.833V624.965H480.986V616.093H477.764L477.601 619.895C477.553 621.035 477.428 621.98 477.224 622.73C477.024 623.48 476.695 624.04 476.237 624.41C475.782 624.78 475.149 624.965 474.338 624.965H473.829ZM487.603 618.567H490.25C491.047 618.567 491.731 618.697 492.301 618.959C492.875 619.217 493.314 619.581 493.619 620.053C493.925 620.525 494.078 621.08 494.078 621.717C494.078 622.359 493.925 622.924 493.619 623.412C493.314 623.898 492.875 624.278 492.301 624.553C491.731 624.827 491.047 624.965 490.25 624.965H486.346V614.541H488.239V623.417H490.25C490.671 623.417 491.027 623.338 491.319 623.178C491.611 623.019 491.831 622.808 491.981 622.547C492.133 622.286 492.21 622.002 492.21 621.697C492.21 621.256 492.04 620.881 491.701 620.572C491.365 620.26 490.881 620.104 490.25 620.104H487.603V618.567ZM497.347 624.965V614.541H499.235V618.954H504.066V614.541H505.959V624.965H504.066V620.537H499.235V624.965H497.347ZM509.446 624.965V614.541H516.226V616.124H511.335V618.954H515.875V620.537H511.335V623.382H516.267V624.965H509.446ZM519.586 624.965V614.541H523.577C524.33 614.541 524.956 614.659 525.455 614.897C525.957 615.131 526.332 615.452 526.58 615.859C526.831 616.266 526.956 616.728 526.956 617.243C526.956 617.668 526.875 618.031 526.712 618.333C526.549 618.631 526.33 618.874 526.056 619.06C525.781 619.247 525.474 619.381 525.134 619.463V619.564C525.504 619.585 525.859 619.698 526.198 619.905C526.541 620.109 526.821 620.397 527.038 620.771C527.255 621.144 527.364 621.595 527.364 622.125C527.364 622.664 527.233 623.149 526.972 623.58C526.71 624.008 526.317 624.346 525.791 624.593C525.265 624.841 524.603 624.965 523.806 624.965H519.586ZM521.475 623.387H523.505C524.191 623.387 524.685 623.256 524.987 622.995C525.292 622.73 525.445 622.391 525.445 621.977C525.445 621.668 525.368 621.39 525.216 621.142C525.063 620.891 524.846 620.694 524.564 620.552C524.283 620.406 523.947 620.333 523.556 620.333H521.475V623.387ZM521.475 618.974H523.343C523.668 618.974 523.962 618.915 524.223 618.796C524.484 618.674 524.69 618.502 524.839 618.282C524.992 618.058 525.068 617.793 525.068 617.488C525.068 617.084 524.926 616.751 524.641 616.49C524.359 616.229 523.94 616.098 523.383 616.098H521.475V618.974ZM539.754 619.753C539.754 620.876 539.544 621.838 539.123 622.639C538.706 623.436 538.136 624.047 537.413 624.471C536.694 624.895 535.878 625.107 534.965 625.107C534.052 625.107 533.234 624.895 532.511 624.471C531.792 624.044 531.222 623.431 530.801 622.634C530.384 621.833 530.175 620.873 530.175 619.753C530.175 618.63 530.384 617.669 530.801 616.872C531.222 616.071 531.792 615.458 532.511 615.034C533.234 614.61 534.052 614.398 534.965 614.398C535.878 614.398 536.694 614.61 537.413 615.034C538.136 615.458 538.706 616.071 539.123 616.872C539.544 617.669 539.754 618.63 539.754 619.753ZM537.856 619.753C537.856 618.962 537.732 618.295 537.484 617.752C537.24 617.206 536.901 616.794 536.466 616.516C536.032 616.234 535.531 616.093 534.965 616.093C534.398 616.093 533.898 616.234 533.463 616.516C533.029 616.794 532.688 617.206 532.44 617.752C532.196 618.295 532.074 618.962 532.074 619.753C532.074 620.543 532.196 621.212 532.44 621.758C532.688 622.301 533.029 622.713 533.463 622.995C533.898 623.273 534.398 623.412 534.965 623.412C535.531 623.412 536.032 623.273 536.466 622.995C536.901 622.713 537.24 622.301 537.484 621.758C537.732 621.212 537.856 620.543 537.856 619.753ZM551.896 618.058H549.992C549.938 617.746 549.838 617.469 549.692 617.228C549.546 616.984 549.364 616.777 549.147 616.607C548.93 616.437 548.682 616.31 548.404 616.225C548.129 616.137 547.832 616.093 547.513 616.093C546.947 616.093 546.444 616.236 546.007 616.521C545.569 616.802 545.226 617.216 544.978 617.763C544.731 618.305 544.607 618.969 544.607 619.753C544.607 620.55 544.731 621.222 544.978 621.768C545.23 622.311 545.572 622.722 546.007 623C546.444 623.275 546.945 623.412 547.508 623.412C547.82 623.412 548.112 623.372 548.384 623.29C548.659 623.205 548.905 623.082 549.122 622.919C549.342 622.756 549.527 622.556 549.677 622.318C549.829 622.081 549.934 621.809 549.992 621.504L551.896 621.514C551.824 622.009 551.67 622.474 551.433 622.908C551.198 623.343 550.891 623.726 550.511 624.059C550.131 624.388 549.687 624.646 549.178 624.833C548.669 625.016 548.104 625.107 547.483 625.107C546.567 625.107 545.749 624.895 545.029 624.471C544.31 624.047 543.743 623.434 543.329 622.634C542.915 621.833 542.708 620.873 542.708 619.753C542.708 618.63 542.917 617.669 543.334 616.872C543.752 616.071 544.32 615.458 545.04 615.034C545.759 614.61 546.573 614.398 547.483 614.398C548.063 614.398 548.603 614.48 549.101 614.642C549.6 614.805 550.045 615.045 550.435 615.36C550.825 615.672 551.146 616.056 551.397 616.51C551.651 616.962 551.818 617.478 551.896 618.058ZM554.6 616.124V614.541H562.917V616.124H559.695V624.965H557.822V616.124H554.6ZM574.807 619.753C574.807 620.876 574.596 621.838 574.176 622.639C573.758 623.436 573.188 624.047 572.465 624.471C571.746 624.895 570.93 625.107 570.017 625.107C569.104 625.107 568.286 624.895 567.564 624.471C566.844 624.044 566.274 623.431 565.853 622.634C565.436 621.833 565.227 620.873 565.227 619.753C565.227 618.63 565.436 617.669 565.853 616.872C566.274 616.071 566.844 615.458 567.564 615.034C568.286 614.61 569.104 614.398 570.017 614.398C570.93 614.398 571.746 614.61 572.465 615.034C573.188 615.458 573.758 616.071 574.176 616.872C574.596 617.669 574.807 618.63 574.807 619.753ZM572.908 619.753C572.908 618.962 572.784 618.295 572.537 617.752C572.292 617.206 571.953 616.794 571.519 616.516C571.084 616.234 570.584 616.093 570.017 616.093C569.45 616.093 568.95 616.234 568.515 616.516C568.081 616.794 567.74 617.206 567.492 617.752C567.248 618.295 567.126 618.962 567.126 619.753C567.126 620.543 567.248 621.212 567.492 621.758C567.74 622.301 568.081 622.713 568.515 622.995C568.95 623.273 569.45 623.412 570.017 623.412C570.584 623.412 571.084 623.273 571.519 622.995C571.953 622.713 572.292 622.301 572.537 621.758C572.784 621.212 572.908 620.543 572.908 619.753ZM578.336 614.541H580.183V617.941C580.183 618.382 580.26 618.731 580.412 618.989C580.569 619.247 580.799 619.432 581.105 619.544C581.41 619.656 581.79 619.712 582.245 619.712C582.448 619.712 582.667 619.705 582.901 619.692C583.139 619.675 583.378 619.653 583.619 619.625C583.86 619.595 584.091 619.559 584.311 619.519C584.532 619.474 584.729 619.427 584.902 619.376V620.913C584.729 620.968 584.535 621.017 584.322 621.061C584.108 621.105 583.882 621.142 583.645 621.173C583.407 621.203 583.17 621.227 582.932 621.244C582.694 621.261 582.465 621.27 582.245 621.27C581.447 621.27 580.755 621.156 580.168 620.929C579.585 620.698 579.133 620.338 578.814 619.849C578.495 619.361 578.336 618.725 578.336 617.941V614.541ZM584.591 614.541H586.449V624.965H584.591V614.541ZM590.181 624.965V614.541H592.069V618.954H596.899V614.541H598.793V624.965H596.899V620.537H592.069V624.965H590.181ZM603.619 624.965H601.603L605.273 614.541H607.604L611.279 624.965H609.263L606.479 616.678H606.398L603.619 624.965ZM603.685 620.878H609.182V622.394H603.685V620.878ZM621.781 624.965H619.888V616.118H618.157C617.689 616.118 617.304 616.188 617.002 616.327C616.703 616.463 616.481 616.663 616.335 616.928C616.193 617.189 616.121 617.505 616.121 617.875C616.121 618.244 616.193 618.557 616.335 618.811C616.478 619.062 616.698 619.254 616.997 619.386C617.299 619.515 617.682 619.58 618.147 619.58H620.682V621.147H617.893C617.092 621.147 616.417 621.015 615.867 620.75C615.317 620.482 614.9 620.104 614.615 619.615C614.333 619.123 614.192 618.543 614.192 617.875C614.192 617.209 614.331 616.627 614.61 616.129C614.891 615.626 615.305 615.236 615.852 614.958C616.398 614.68 617.07 614.541 617.867 614.541H621.781V624.965ZM616.391 620.241H618.453L615.918 624.965H613.811L616.391 620.241Z" fill="black"/>
<path opacity="0.4" d="M812.215 795.197H449.111V707.206L662.802 714.771C662.802 714.771 810.111 677.236 812.215 676.173V676.15C812.246 676.15 812.246 676.158 812.215 676.173V795.197Z" fill="url(#paint4_linear_3044_2300)"/>
<rect x="808.391" y="672.17" width="8.17935" height="8.17935" rx="4.08967" fill="#04B34A"/>
<path d="M810.232 676.947L660.737 715.131C658.569 715.685 656.332 715.92 654.096 715.83L449.112 707.605" stroke="#04B34A" stroke-width="3.18519"/>
<path d="M696.985 811.262V791.865L689.75 799.127L686.574 795.978L699.279 783.301L711.956 795.978L708.834 799.127L701.573 791.865V811.262H696.985Z" fill="#04B34A"/>
<path d="M732.762 811.892C730.427 811.883 728.419 811.308 726.736 810.168C725.062 809.028 723.772 807.377 722.867 805.214C721.971 803.051 721.528 800.45 721.537 797.409C721.537 794.378 721.985 791.795 722.881 789.659C723.786 787.524 725.075 785.899 726.749 784.786C728.432 783.664 730.437 783.103 732.762 783.103C735.088 783.103 737.087 783.664 738.761 784.786C740.445 785.908 741.738 787.537 742.643 789.673C743.548 791.799 743.996 794.378 743.987 797.409C743.987 800.459 743.535 803.065 742.63 805.228C741.734 807.39 740.449 809.042 738.775 810.182C737.101 811.322 735.097 811.892 732.762 811.892ZM732.762 807.019C734.355 807.019 735.626 806.218 736.576 804.617C737.526 803.015 737.997 800.613 737.988 797.409C737.988 795.301 737.771 793.546 737.336 792.143C736.911 790.74 736.305 789.686 735.517 788.98C734.739 788.275 733.821 787.922 732.762 787.922C731.179 787.922 729.912 788.713 728.962 790.297C728.011 791.881 727.532 794.251 727.523 797.409C727.523 799.545 727.735 801.328 728.161 802.757C728.595 804.178 729.206 805.246 729.993 805.961C730.78 806.666 731.703 807.019 732.762 807.019ZM753.005 807.481L752.856 808.974C752.738 810.168 752.512 811.358 752.177 812.544C751.851 813.738 751.507 814.819 751.145 815.788C750.792 816.756 750.507 817.516 750.29 818.068H746.544C746.68 817.534 746.865 816.787 747.1 815.828C747.336 814.878 747.557 813.81 747.766 812.625C747.974 811.44 748.105 810.232 748.159 809.001L748.227 807.481H753.005ZM757.845 811.281V807.046L767.74 797.884C768.582 797.07 769.288 796.337 769.858 795.686C770.437 795.034 770.876 794.396 771.174 793.772C771.473 793.138 771.622 792.455 771.622 791.722C771.622 790.908 771.437 790.207 771.066 789.618C770.695 789.021 770.188 788.564 769.546 788.247C768.903 787.922 768.175 787.759 767.36 787.759C766.51 787.759 765.768 787.931 765.134 788.275C764.501 788.618 764.012 789.112 763.668 789.754C763.324 790.397 763.153 791.161 763.153 792.048H757.574C757.574 790.229 757.986 788.65 758.809 787.311C759.633 785.972 760.786 784.936 762.27 784.203C763.754 783.47 765.464 783.103 767.401 783.103C769.392 783.103 771.125 783.456 772.599 784.162C774.084 784.859 775.237 785.827 776.061 787.067C776.884 788.306 777.296 789.727 777.296 791.329C777.296 792.378 777.088 793.414 776.671 794.437C776.264 795.459 775.536 796.595 774.486 797.844C773.437 799.083 771.957 800.572 770.048 802.309L765.989 806.286V806.476H777.662V811.281H757.845ZM796.745 806.069V804.603C796.745 803.49 796.98 802.468 797.45 801.536C797.93 800.595 798.622 799.844 799.527 799.283C800.441 798.712 801.554 798.427 802.866 798.427C804.196 798.427 805.314 798.708 806.219 799.269C807.133 799.83 807.82 800.581 808.282 801.522C808.752 802.454 808.988 803.481 808.988 804.603V806.069C808.988 807.182 808.752 808.209 808.282 809.15C807.811 810.082 807.119 810.829 806.205 811.39C805.291 811.96 804.178 812.245 802.866 812.245C801.536 812.245 800.418 811.96 799.514 811.39C798.609 810.829 797.921 810.082 797.45 809.15C796.98 808.209 796.745 807.182 796.745 806.069ZM800.694 804.603V806.069C800.694 806.712 800.848 807.318 801.156 807.888C801.473 808.458 802.043 808.743 802.866 808.743C803.69 808.743 804.251 808.463 804.549 807.902C804.857 807.34 805.011 806.73 805.011 806.069V804.603C805.011 803.943 804.866 803.327 804.576 802.757C804.287 802.187 803.717 801.902 802.866 801.902C802.052 801.902 801.486 802.187 801.169 802.757C800.853 803.327 800.694 803.943 800.694 804.603ZM782.479 790.161V788.695C782.479 787.573 782.719 786.546 783.198 785.614C783.678 784.673 784.37 783.922 785.275 783.361C786.189 782.8 787.293 782.52 788.587 782.52C789.926 782.52 791.048 782.8 791.953 783.361C792.858 783.922 793.546 784.673 794.016 785.614C794.487 786.546 794.722 787.573 794.722 788.695V790.161C794.722 791.283 794.482 792.31 794.003 793.242C793.532 794.174 792.84 794.921 791.926 795.482C791.021 796.034 789.908 796.31 788.587 796.31C787.266 796.31 786.148 796.029 785.234 795.468C784.33 794.898 783.642 794.152 783.171 793.229C782.71 792.297 782.479 791.274 782.479 790.161ZM786.456 788.695V790.161C786.456 790.822 786.61 791.433 786.918 791.994C787.234 792.555 787.791 792.835 788.587 792.835C789.42 792.835 789.985 792.555 790.284 791.994C790.591 791.433 790.745 790.822 790.745 790.161V788.695C790.745 788.035 790.6 787.42 790.311 786.849C790.021 786.279 789.447 785.994 788.587 785.994C787.782 785.994 787.225 786.284 786.918 786.863C786.61 787.442 786.456 788.053 786.456 788.695ZM784.271 811.281L803.382 783.483H806.938L787.827 811.281H784.271Z" fill="black"/>
<path d="M455.171 682.798V695.539H453.242V684.727H453.167L450.119 686.718V684.876L453.298 682.798H455.171ZM460.149 693.797L460.056 694.475C459.994 694.973 459.888 695.491 459.739 696.031C459.593 696.574 459.442 697.078 459.284 697.542C459.131 698.007 459.004 698.376 458.905 698.65H457.586C457.64 698.392 457.715 698.044 457.81 697.604C457.905 697.169 457.999 696.682 458.09 696.143C458.181 695.603 458.25 695.054 458.295 694.494L458.357 693.797H460.149ZM465.868 682.798V695.539H463.939V684.727H463.865L460.816 686.718V684.876L463.995 682.798H465.868Z" fill="#CFCFCF"/>
<path d="M796.919 648.558V661.299H794.99V650.487H794.916L791.867 652.477V650.636L795.046 648.558H796.919ZM801.897 659.557L801.804 660.235C801.742 660.733 801.636 661.251 801.487 661.79C801.342 662.334 801.19 662.838 801.033 663.302C800.879 663.767 800.753 664.136 800.653 664.409H799.334C799.388 664.152 799.463 663.804 799.558 663.364C799.654 662.929 799.747 662.441 799.838 661.902C799.929 661.363 799.998 660.814 800.043 660.254L800.106 659.557H801.897ZM808.296 661.473C807.441 661.473 806.678 661.326 806.006 661.031C805.339 660.737 804.81 660.328 804.42 659.806C804.034 659.279 803.827 658.669 803.798 657.977H805.751C805.776 658.354 805.903 658.682 806.131 658.96C806.363 659.233 806.666 659.445 807.039 659.594C807.412 659.744 807.827 659.818 808.283 659.818C808.785 659.818 809.229 659.731 809.615 659.557C810.004 659.383 810.309 659.14 810.529 658.829C810.749 658.514 810.859 658.151 810.859 657.74C810.859 657.313 810.749 656.938 810.529 656.614C810.313 656.287 809.996 656.03 809.577 655.843C809.163 655.656 808.661 655.563 808.072 655.563H806.996V653.995H808.072C808.545 653.995 808.959 653.91 809.316 653.74C809.677 653.57 809.959 653.334 810.162 653.031C810.365 652.724 810.467 652.365 810.467 651.955C810.467 651.561 810.378 651.219 810.199 650.928C810.025 650.634 809.776 650.404 809.453 650.238C809.133 650.072 808.756 649.989 808.321 649.989C807.906 649.989 807.518 650.066 807.157 650.219C806.801 650.368 806.51 650.584 806.286 650.866C806.062 651.144 805.942 651.478 805.925 651.868H804.065C804.086 651.179 804.289 650.574 804.675 650.051C805.065 649.529 805.579 649.12 806.218 648.826C806.857 648.531 807.566 648.384 808.345 648.384C809.163 648.384 809.868 648.544 810.461 648.863C811.058 649.178 811.518 649.599 811.842 650.126C812.169 650.653 812.331 651.229 812.327 651.855C812.331 652.569 812.132 653.174 811.73 653.672C811.332 654.169 810.801 654.503 810.137 654.673V654.773C810.983 654.901 811.639 655.237 812.103 655.781C812.572 656.324 812.804 656.998 812.8 657.803C812.804 658.503 812.609 659.132 812.215 659.688C811.825 660.243 811.292 660.681 810.616 661C809.94 661.315 809.167 661.473 808.296 661.473Z" fill="#CFCFCF"/>
<defs>
<linearGradient id="paint0_linear_3044_2300" x1="225.349" y1="427.113" x2="225.349" y2="546.16" gradientUnits="userSpaceOnUse">
<stop stop-color="#04B34A"/>
<stop offset="0.0666667" stop-color="#04B34A" stop-opacity="0.991353"/>
<stop offset="0.133333" stop-color="#04B34A" stop-opacity="0.96449"/>
<stop offset="0.2" stop-color="#04B34A" stop-opacity="0.91834"/>
<stop offset="0.266667" stop-color="#04B34A" stop-opacity="0.852589"/>
<stop offset="0.333333" stop-color="#04B34A" stop-opacity="0.768225"/>
<stop offset="0.4" stop-color="#04B34A" stop-opacity="0.668116"/>
<stop offset="0.466667" stop-color="#04B34A" stop-opacity="0.557309"/>
<stop offset="0.533333" stop-color="#04B34A" stop-opacity="0.442691"/>
<stop offset="0.6" stop-color="#04B34A" stop-opacity="0.331884"/>
<stop offset="0.666667" stop-color="#04B34A" stop-opacity="0.231775"/>
<stop offset="0.733333" stop-color="#04B34A" stop-opacity="0.147411"/>
<stop offset="0.8" stop-color="#04B34A" stop-opacity="0.0816599"/>
<stop offset="0.866667" stop-color="#04B34A" stop-opacity="0.03551"/>
<stop offset="0.933333" stop-color="#04B34A" stop-opacity="0.01"/>
<stop offset="1" stop-color="#04B34A" stop-opacity="0"/>
</linearGradient>
<linearGradient id="paint1_linear_3044_2300" x1="427.996" y1="223.435" x2="427.996" y2="296.695" gradientUnits="userSpaceOnUse">
<stop stop-color="#D9D9D9"/>
<stop offset="1" stop-color="#D9D9D9" stop-opacity="0"/>
</linearGradient>
<linearGradient id="paint2_linear_3044_2300" x1="225.349" y1="675.354" x2="225.349" y2="794.4" gradientUnits="userSpaceOnUse">
<stop stop-color="#04B34A"/>
<stop offset="0.0666667" stop-color="#04B34A" stop-opacity="0.991353"/>
<stop offset="0.133333" stop-color="#04B34A" stop-opacity="0.96449"/>
<stop offset="0.2" stop-color="#04B34A" stop-opacity="0.91834"/>
<stop offset="0.266667" stop-color="#04B34A" stop-opacity="0.852589"/>
<stop offset="0.333333" stop-color="#04B34A" stop-opacity="0.768225"/>
<stop offset="0.4" stop-color="#04B34A" stop-opacity="0.668116"/>
<stop offset="0.466667" stop-color="#04B34A" stop-opacity="0.557309"/>
<stop offset="0.533333" stop-color="#04B34A" stop-opacity="0.442691"/>
<stop offset="0.6" stop-color="#04B34A" stop-opacity="0.331884"/>
<stop offset="0.666667" stop-color="#04B34A" stop-opacity="0.231775"/>
<stop offset="0.733333" stop-color="#04B34A" stop-opacity="0.147411"/>
<stop offset="0.8" stop-color="#04B34A" stop-opacity="0.0816599"/>
<stop offset="0.866667" stop-color="#04B34A" stop-opacity="0.03551"/>
<stop offset="0.933333" stop-color="#04B34A" stop-opacity="0.01"/>
<stop offset="1" stop-color="#04B34A" stop-opacity="0"/>
</linearGradient>
<linearGradient id="paint3_linear_3044_2300" x1="630.663" y1="472.678" x2="630.663" y2="545.937" gradientUnits="userSpaceOnUse">
<stop stop-color="#D9D9D9"/>
<stop offset="1" stop-color="#D9D9D9" stop-opacity="0"/>
</linearGradient>
<linearGradient id="paint4_linear_3044_2300" x1="630.663" y1="676.15" x2="630.663" y2="795.197" gradientUnits="userSpaceOnUse">
<stop stop-color="#04B34A"/>
<stop offset="0.0666667" stop-color="#04B34A" stop-opacity="0.991353"/>
<stop offset="0.133333" stop-color="#04B34A" stop-opacity="0.96449"/>
<stop offset="0.2" stop-color="#04B34A" stop-opacity="0.91834"/>
<stop offset="0.266667" stop-color="#04B34A" stop-opacity="0.852589"/>
<stop offset="0.333333" stop-color="#04B34A" stop-opacity="0.768225"/>
<stop offset="0.4" stop-color="#04B34A" stop-opacity="0.668116"/>
<stop offset="0.466667" stop-color="#04B34A" stop-opacity="0.557309"/>
<stop offset="0.533333" stop-color="#04B34A" stop-opacity="0.442691"/>
<stop offset="0.6" stop-color="#04B34A" stop-opacity="0.331884"/>
<stop offset="0.666667" stop-color="#04B34A" stop-opacity="0.231775"/>
<stop offset="0.733333" stop-color="#04B34A" stop-opacity="0.147411"/>
<stop offset="0.8" stop-color="#04B34A" stop-opacity="0.0816599"/>
<stop offset="0.866667" stop-color="#04B34A" stop-opacity="0.03551"/>
<stop offset="0.933333" stop-color="#04B34A" stop-opacity="0.01"/>
<stop offset="1" stop-color="#04B34A" stop-opacity="0"/>
</linearGradient>
</defs>
</svg>
