<svg width="860" height="632" viewBox="0 0 860 632" fill="none" xmlns="http://www.w3.org/2000/svg">
<rect width="860" height="632" fill="white"/>
<path d="M729.077 39.0195L726.947 51.6511H729.319L727.958 59.7232H723.567L724.217 55.8769H712.946L712.297 59.7232H707.906L709.268 51.6511H710.951C711.721 50.6067 712.451 49.2288 713.273 46.3325L715.363 39.0195H729.08H729.077ZM723.501 43.2454H718.684L717.756 46.4982C716.947 49.3231 716.279 50.6044 715.604 51.6511H722.084L723.501 43.2454Z" fill="#EAECEF"/>
<path d="M732.948 39.0195H743.39C747.069 39.0195 748.722 40.8944 748.264 43.602C747.971 45.3342 746.668 46.4499 745.445 46.949C746.781 47.4712 747.838 48.8009 747.453 51.0806C746.965 53.9768 744.604 55.8769 740.688 55.8769H730.104L732.948 39.0195ZM736.012 49.1344L735.514 52.079H740.308C741.589 52.079 742.381 51.6051 742.549 50.6067C742.722 49.5853 742.086 49.1344 740.803 49.1344H736.01H736.012ZM737.076 42.8198L736.652 45.3365H741.374C742.372 45.3365 743.072 44.9799 743.224 44.0781C743.376 43.1764 742.796 42.8198 741.798 42.8198H737.076Z" fill="#EAECEF"/>
<path d="M751.28 39.0195H756.145L754.431 49.1804L763.571 39.0195H768.436L765.594 55.8769H760.729L762.436 45.762L753.302 55.8769H748.438L751.28 39.0195Z" fill="#EAECEF"/>
<path d="M775.67 47.14L769.944 39.0195H775.449L780.219 45.9047L781.383 39.0195H786.01L784.849 45.9047L791.944 39.0195H797.332L789.092 46.926L794.844 55.8769H788.982L784.382 48.6836L783.168 55.8769H778.54L779.754 48.6836L772.726 55.8769H767.078L775.672 47.14H775.67Z" fill="#EAECEF"/>
<path d="M804.437 39.0195H798.789L804.412 46.926L796.066 55.8769H801.714L810.06 46.926L804.437 39.0195ZM813.365 39.0195H807.717L813.34 46.926L804.995 55.8769H810.643L818.988 46.926L813.365 39.0195ZM822.524 39.0195H816.876L822.499 46.926L814.153 55.8769H819.801L828.147 46.926L822.524 39.0195Z" fill="#EAECEF"/>
<path d="M33.6636 59.8516V39.0031H47.7119V42.6373H38.0715V47.6051H46.9891V51.2393H38.0715V56.2173H47.7526V59.8516H33.6636ZM48.9702 59.8516L54.4368 51.7178L49.0008 44.2152H53.9482L58.01 50.3333H58.6819V44.2152H63.0185V50.3333H63.67L67.7318 44.2152H72.6793L67.2534 51.7178L72.7098 59.8516H67.6504L63.6293 53.7436H63.0185V59.8516H58.6819V53.7436H58.0711L54.0296 59.8516H48.9702ZM80.5749 60.157C78.9665 60.157 77.582 59.8312 76.4215 59.1797C75.2678 58.5214 74.3787 57.5916 73.7544 56.3904C73.13 55.1824 72.8178 53.7538 72.8178 52.1046C72.8178 50.4962 73.13 49.0846 73.7544 47.8698C74.3787 46.655 75.2576 45.7083 76.391 45.0296C77.5311 44.3509 78.8681 44.0116 80.4019 44.0116C81.4334 44.0116 82.3937 44.1779 83.2828 44.5104C84.1786 44.8362 84.9591 45.3282 85.6242 45.9865C86.296 46.6448 86.8186 47.4728 87.1919 48.4704C87.5651 49.4613 87.7518 50.6218 87.7518 51.9519V53.143H74.5484V50.4555H83.6696C83.6696 49.8311 83.5339 49.278 83.2624 48.7962C82.991 48.3143 82.6143 47.9377 82.1324 47.6662C81.6574 47.3879 81.1043 47.2488 80.4731 47.2488C79.8148 47.2488 79.2312 47.4015 78.7222 47.7069C78.22 48.0055 77.8263 48.4093 77.5413 48.9183C77.2563 49.4205 77.1104 49.9804 77.1036 50.598V53.1532C77.1036 53.9268 77.2461 54.5953 77.5311 55.1586C77.8229 55.7219 78.2335 56.1563 78.7629 56.4616C79.2922 56.767 79.92 56.9197 80.6462 56.9197C81.128 56.9197 81.5692 56.8519 81.9696 56.7161C82.37 56.5804 82.7127 56.3768 82.9977 56.1054C83.2828 55.8339 83.4999 55.5013 83.6493 55.1077L87.6601 55.3724C87.4565 56.3361 87.0392 57.1776 86.408 57.897C85.7836 58.6096 84.976 59.1661 83.9852 59.5665C83.0011 59.9601 81.8644 60.157 80.5749 60.157ZM98.6785 55.0568L102.913 44.2152H106.212L100.114 59.8516H97.2329L91.2777 44.2152H94.5658L98.6785 55.0568ZM93.5783 44.2152V59.8516H89.4351V44.2152H93.5783ZM103.992 59.8516V44.2152H108.085V59.8516H103.992ZM117.418 60.157C115.81 60.157 114.425 59.8312 113.265 59.1797C112.111 58.5214 111.222 57.5916 110.598 56.3904C109.973 55.1824 109.661 53.7538 109.661 52.1046C109.661 50.4962 109.973 49.0846 110.598 47.8698C111.222 46.655 112.101 45.7083 113.234 45.0296C114.375 44.3509 115.711 44.0116 117.245 44.0116C118.277 44.0116 119.237 44.1779 120.126 44.5104C121.022 44.8362 121.802 45.3282 122.468 45.9865C123.139 46.6448 123.662 47.4728 124.035 48.4704C124.409 49.4613 124.595 50.6218 124.595 51.9519V53.143H111.392V50.4555H120.513C120.513 49.8311 120.377 49.278 120.106 48.7962C119.834 48.3143 119.458 47.9377 118.976 47.6662C118.501 47.3879 117.948 47.2488 117.317 47.2488C116.658 47.2488 116.075 47.4015 115.566 47.7069C115.063 48.0055 114.67 48.4093 114.385 48.9183C114.1 49.4205 113.954 49.9804 113.947 50.598V53.1532C113.947 53.9268 114.089 54.5953 114.375 55.1586C114.666 55.7219 115.077 56.1563 115.606 56.4616C116.136 56.767 116.763 56.9197 117.49 56.9197C117.971 56.9197 118.413 56.8519 118.813 56.7161C119.213 56.5804 119.556 56.3768 119.841 56.1054C120.126 55.8339 120.343 55.5013 120.493 55.1077L124.504 55.3724C124.3 56.3361 123.883 57.1776 123.251 57.897C122.627 58.6096 121.819 59.1661 120.829 59.5665C119.845 59.9601 118.708 60.157 117.418 60.157ZM133.343 60.157C131.742 60.157 130.364 59.8176 129.21 59.139C128.063 58.4535 127.181 57.5034 126.564 56.2886C125.953 55.0738 125.647 53.6757 125.647 52.0945C125.647 50.4928 125.956 49.088 126.574 47.88C127.198 46.6652 128.084 45.7184 129.231 45.0398C130.378 44.3543 131.742 44.0116 133.323 44.0116C134.687 44.0116 135.882 44.2593 136.906 44.7547C137.931 45.2502 138.742 45.9458 139.339 46.8416C139.937 47.7375 140.266 48.7894 140.327 49.9974H136.234C136.119 49.2169 135.814 48.5892 135.318 48.1141C134.83 47.6323 134.188 47.3913 133.394 47.3913C132.722 47.3913 132.135 47.5746 131.633 47.9411C131.138 48.3007 130.751 48.8267 130.473 49.5189C130.194 50.2112 130.055 51.0493 130.055 52.0334C130.055 53.031 130.191 53.8793 130.462 54.5784C130.741 55.2774 131.131 55.8101 131.633 56.1766C132.135 56.5431 132.722 56.7263 133.394 56.7263C133.89 56.7263 134.334 56.6245 134.728 56.4209C135.128 56.2173 135.457 55.9221 135.715 55.5353C135.98 55.1417 136.153 54.67 136.234 54.1203H140.327C140.259 55.3147 139.933 56.3666 139.35 57.276C138.773 58.1787 137.975 58.8845 136.957 59.3935C135.939 59.9025 134.735 60.157 133.343 60.157ZM151.119 59.8516V47.6153H148.187C147.393 47.6153 146.789 47.7985 146.375 48.165C145.961 48.5315 145.757 48.9658 145.764 49.468C145.757 49.977 145.954 50.408 146.354 50.7609C146.762 51.107 147.359 51.2801 148.146 51.2801H152.564V54.2119H148.146C146.809 54.2119 145.652 54.0083 144.675 53.6011C143.697 53.1939 142.944 52.6272 142.415 51.901C141.885 51.1681 141.624 50.3164 141.631 49.3459C141.624 48.3279 141.885 47.4354 142.415 46.6686C142.944 45.8949 143.701 45.2943 144.685 44.8667C145.676 44.4324 146.843 44.2152 148.187 44.2152H155.16V59.8516H151.119ZM141.183 59.8516L145.53 51.7076H149.673L145.336 59.8516H141.183ZM170.953 44.2152V59.8516H166.84V44.2152H170.953ZM168.947 51.0765V54.4969C168.615 54.6462 168.201 54.7887 167.705 54.9245C167.21 55.0534 166.691 55.1586 166.148 55.2401C165.605 55.3215 165.096 55.3622 164.621 55.3622C162.375 55.3622 160.607 54.9007 159.317 53.9777C158.028 53.048 157.383 51.5651 157.383 49.5291V44.1948H161.475V49.5291C161.475 50.1331 161.577 50.6116 161.781 50.9645C161.991 51.3174 162.324 51.5719 162.778 51.728C163.24 51.8773 163.854 51.9519 164.621 51.9519C165.333 51.9519 166.032 51.8773 166.718 51.728C167.403 51.5787 168.147 51.3615 168.947 51.0765ZM184.055 50.3028V53.7131H175.891V50.3028H184.055ZM177.316 44.2152V59.8516H173.173V44.2152H177.316ZM186.774 44.2152V59.8516H182.661V44.2152H186.774ZM191.709 49.0201H196.382C198.452 49.0201 200.067 49.5155 201.228 50.5064C202.388 51.4905 202.968 52.8071 202.968 54.4562C202.968 55.5285 202.707 56.4718 202.184 57.2862C201.662 58.0938 200.909 58.725 199.925 59.1797C198.94 59.6276 197.76 59.8516 196.382 59.8516H188.991V44.2152H193.135V56.4413H196.382C197.108 56.4413 197.705 56.258 198.174 55.8916C198.642 55.5251 198.879 55.0568 198.886 54.4867C198.879 53.8827 198.642 53.3907 198.174 53.0107C197.705 52.6238 197.108 52.4304 196.382 52.4304H191.709V49.0201ZM204.648 59.8516V44.2152H208.985V59.8516H204.648ZM215.448 54.1304L221.077 44.2152H225.353V59.8516H221.22V49.9058L215.61 59.8516H211.304V44.2152H215.448V54.1304ZM220.334 38.7588H223.357C223.351 39.9939 222.892 40.9882 221.983 41.7415C221.08 42.4948 219.859 42.8714 218.318 42.8714C216.771 42.8714 215.546 42.4948 214.643 41.7415C213.741 40.9882 213.289 39.9939 213.289 38.7588H216.292C216.286 39.227 216.435 39.6478 216.74 40.0211C217.053 40.3943 217.579 40.581 218.318 40.581C219.038 40.581 219.553 40.3977 219.866 40.0313C220.178 39.6648 220.334 39.2406 220.334 38.7588ZM233.17 59.8516V44.2152H246.842V59.8516H242.699V47.6255H237.263V59.8516H233.17ZM248.24 59.8516L248.22 56.4107H248.739C249.106 56.4107 249.421 56.3225 249.686 56.1461C249.957 55.9628 250.181 55.6676 250.358 55.2604C250.534 54.8532 250.673 54.3137 250.775 53.6418C250.877 52.9631 250.945 52.1284 250.979 51.1375L251.233 44.2152H263.123V59.8516H258.99V47.6255H255.132L254.888 52.3999C254.827 53.7097 254.667 54.8363 254.409 55.7796C254.158 56.7229 253.809 57.4966 253.361 58.1006C252.913 58.6978 252.373 59.139 251.742 59.424C251.111 59.709 250.378 59.8516 249.543 59.8516H248.24ZM269.798 60.1468C268.8 60.1468 267.911 59.9737 267.13 59.6276C266.35 59.2747 265.732 58.7555 265.278 58.0701C264.83 57.3778 264.606 56.5159 264.606 55.4844C264.606 54.6157 264.765 53.8861 265.084 53.2957C265.403 52.7053 265.838 52.2302 266.387 51.8705C266.937 51.5108 267.561 51.2393 268.26 51.0561C268.966 50.8729 269.706 50.7439 270.48 50.6693C271.389 50.5743 272.122 50.486 272.678 50.4046C273.235 50.3164 273.639 50.1874 273.89 50.0178C274.141 49.8481 274.267 49.597 274.267 49.2644V49.2034C274.267 48.5586 274.063 48.0598 273.656 47.7069C273.255 47.354 272.685 47.1776 271.945 47.1776C271.165 47.1776 270.544 47.3506 270.083 47.6967C269.621 48.0361 269.316 48.4636 269.166 48.9794L265.155 48.6536C265.359 47.7035 265.759 46.8823 266.357 46.1901C266.954 45.4911 267.724 44.9549 268.668 44.5817C269.618 44.2016 270.717 44.0116 271.966 44.0116C272.835 44.0116 273.666 44.1134 274.46 44.317C275.261 44.5206 275.97 44.8362 276.588 45.2637C277.212 45.6913 277.704 46.241 278.064 46.9129C278.423 47.578 278.603 48.3754 278.603 49.3052V59.8516H274.49V57.6832H274.368C274.117 58.1719 273.781 58.6028 273.36 58.9761C272.94 59.3426 272.434 59.631 271.844 59.8414C271.253 60.045 270.571 60.1468 269.798 60.1468ZM271.039 57.1539C271.677 57.1539 272.241 57.0283 272.729 56.7772C273.218 56.5193 273.601 56.1732 273.88 55.7389C274.158 55.3045 274.297 54.8125 274.297 54.2628V52.6035C274.161 52.6917 273.975 52.7731 273.737 52.8478C273.506 52.9156 273.245 52.9801 272.953 53.0412C272.661 53.0955 272.37 53.1464 272.078 53.1939C271.786 53.2346 271.521 53.2719 271.284 53.3059C270.775 53.3805 270.33 53.4993 269.95 53.6622C269.57 53.825 269.275 54.0456 269.065 54.3239C268.854 54.5953 268.749 54.9347 268.749 55.3419C268.749 55.9323 268.963 56.3836 269.39 56.6958C269.825 57.0012 270.374 57.1539 271.039 57.1539ZM279.251 47.6255V44.2152H293.421V47.6255H288.382V59.8516H284.249V47.6255H279.251ZM301.47 60.157C299.861 60.157 298.477 59.8312 297.316 59.1797C296.162 58.5214 295.273 57.5916 294.649 56.3904C294.025 55.1824 293.712 53.7538 293.712 52.1046C293.712 50.4962 294.025 49.0846 294.649 47.8698C295.273 46.655 296.152 45.7083 297.286 45.0296C298.426 44.3509 299.763 44.0116 301.296 44.0116C302.328 44.0116 303.288 44.1779 304.177 44.5104C305.073 44.8362 305.854 45.3282 306.519 45.9865C307.191 46.6448 307.713 47.4728 308.086 48.4704C308.46 49.4613 308.646 50.6218 308.646 51.9519V53.143H295.443V50.4555H304.564C304.564 49.8311 304.428 49.278 304.157 48.7962C303.886 48.3143 303.509 47.9377 303.027 47.6662C302.552 47.3879 301.999 47.2488 301.368 47.2488C300.709 47.2488 300.126 47.4015 299.617 47.7069C299.115 48.0055 298.721 48.4093 298.436 48.9183C298.151 49.4205 298.005 49.9804 297.998 50.598V53.1532C297.998 53.9268 298.141 54.5953 298.426 55.1586C298.718 55.7219 299.128 56.1563 299.657 56.4616C300.187 56.767 300.815 56.9197 301.541 56.9197C302.023 56.9197 302.464 56.8519 302.864 56.7161C303.265 56.5804 303.607 56.3768 303.892 56.1054C304.177 55.8339 304.395 55.5013 304.544 55.1077L308.555 55.3724C308.351 56.3361 307.934 57.1776 307.303 57.897C306.678 58.6096 305.871 59.1661 304.88 59.5665C303.896 59.9601 302.759 60.157 301.47 60.157ZM309.032 59.8516L314.498 51.7178L309.062 44.2152H314.01L318.072 50.3333H318.743V44.2152H323.08V50.3333H323.732L327.793 44.2152H332.741L327.315 51.7178L332.771 59.8516H327.712L323.691 53.7436H323.08V59.8516H318.743V53.7436H318.133L314.091 59.8516H309.032ZM40.647 95.157C39.0657 95.157 37.6982 94.821 36.5445 94.1491C35.3976 93.4705 34.5119 92.5271 33.8875 91.3191C33.2632 90.1043 32.951 88.6961 32.951 87.0945C32.951 85.4792 33.2632 84.0676 33.8875 82.8596C34.5119 81.6448 35.3976 80.7015 36.5445 80.0296C37.6982 79.3509 39.0657 79.0116 40.647 79.0116C42.2283 79.0116 43.5924 79.3509 44.7393 80.0296C45.8931 80.7015 46.7821 81.6448 47.4065 82.8596C48.0309 84.0676 48.343 85.4792 48.343 87.0945C48.343 88.6961 48.0309 90.1043 47.4065 91.3191C46.7821 92.5271 45.8931 93.4705 44.7393 94.1491C43.5924 94.821 42.2283 95.157 40.647 95.157ZM40.6674 91.7976C41.3868 91.7976 41.9874 91.594 42.4692 91.1868C42.9511 90.7728 43.3142 90.2095 43.5585 89.4969C43.8096 88.7843 43.9351 87.9733 43.9351 87.0639C43.9351 86.1545 43.8096 85.3435 43.5585 84.6309C43.3142 83.9183 42.9511 83.355 42.4692 82.9411C41.9874 82.5271 41.3868 82.3201 40.6674 82.3201C39.9412 82.3201 39.3304 82.5271 38.835 82.9411C38.3464 83.355 37.9765 83.9183 37.7254 84.6309C37.4811 85.3435 37.3589 86.1545 37.3589 87.0639C37.3589 87.9733 37.4811 88.7843 37.7254 89.4969C37.9765 90.2095 38.3464 90.7728 38.835 91.1868C39.3304 91.594 39.9412 91.7976 40.6674 91.7976ZM48.5019 82.6255V79.2152H62.6724V82.6255H57.6333V94.8516H53.5003V82.6255H48.5019ZM69.6428 94.8516V79.2152H73.9794V85.2824H75.201L79.4562 79.2152H84.5462L79.0185 86.9723L84.6073 94.8516H79.4562L75.5981 89.3035H73.9794V94.8516H69.6428ZM89.7518 95.1468C88.7542 95.1468 87.8651 94.9737 87.0847 94.6276C86.3042 94.2747 85.6866 93.7555 85.2319 93.0701C84.784 92.3778 84.5601 91.5159 84.5601 90.4844C84.5601 89.6157 84.7195 88.8861 85.0385 88.2957C85.3575 87.7053 85.7918 87.2302 86.3415 86.8705C86.8913 86.5108 87.5156 86.2393 88.2146 86.0561C88.9205 85.8729 89.6602 85.7439 90.4339 85.6693C91.3433 85.5743 92.0762 85.486 92.6327 85.4046C93.1892 85.3164 93.593 85.1874 93.8441 85.0178C94.0952 84.8481 94.2208 84.597 94.2208 84.2644V84.2034C94.2208 83.5586 94.0172 83.0598 93.61 82.7069C93.2096 82.354 92.6395 82.1776 91.8998 82.1776C91.1193 82.1776 90.4983 82.3506 90.0369 82.6967C89.5754 83.0361 89.27 83.4636 89.1207 83.9794L85.1098 83.6536C85.3134 82.7035 85.7138 81.8823 86.311 81.1901C86.9082 80.4911 87.6785 79.9549 88.6218 79.5817C89.572 79.2016 90.6714 79.0116 91.9201 79.0116C92.7888 79.0116 93.6202 79.1134 94.4142 79.317C95.215 79.5206 95.9242 79.8362 96.5418 80.2637C97.1662 80.6913 97.6582 81.241 98.0179 81.9129C98.3776 82.578 98.5574 83.3754 98.5574 84.3052V94.8516H94.4448V92.6832H94.3226C94.0715 93.1719 93.7356 93.6028 93.3148 93.9761C92.894 94.3426 92.3884 94.631 91.798 94.8414C91.2075 95.045 90.5255 95.1468 89.7518 95.1468ZM90.9938 92.1539C91.6317 92.1539 92.195 92.0283 92.6836 91.7772C93.1723 91.5193 93.5557 91.1732 93.834 90.7389C94.1122 90.3045 94.2513 89.8125 94.2513 89.2628V87.6035C94.1156 87.6917 93.929 87.7731 93.6914 87.8478C93.4607 87.9156 93.1994 87.9801 92.9076 88.0412C92.6158 88.0955 92.3239 88.1464 92.0321 88.1939C91.7403 88.2346 91.4756 88.2719 91.2381 88.3059C90.7291 88.3805 90.2846 88.4993 89.9045 88.6622C89.5245 88.825 89.2292 89.0456 89.0189 89.3239C88.8085 89.5953 88.7033 89.9347 88.7033 90.3419C88.7033 90.9323 88.9171 91.3836 89.3446 91.6958C89.779 92.0012 90.3287 92.1539 90.9938 92.1539ZM99.205 82.6255V79.2152H113.375V82.6255H108.336V94.8516H104.203V82.6255H99.205ZM121.424 95.157C119.815 95.157 118.431 94.8312 117.27 94.1797C116.117 93.5214 115.228 92.5916 114.603 91.3904C113.979 90.1824 113.667 88.7538 113.667 87.1046C113.667 85.4962 113.979 84.0846 114.603 82.8698C115.228 81.655 116.106 80.7083 117.24 80.0296C118.38 79.3509 119.717 79.0116 121.251 79.0116C122.282 79.0116 123.243 79.1779 124.132 79.5104C125.027 79.8362 125.808 80.3282 126.473 80.9865C127.145 81.6448 127.667 82.4728 128.041 83.4704C128.414 84.4613 128.601 85.6218 128.601 86.9519V88.143H115.397V85.4555H124.518C124.518 84.8311 124.383 84.278 124.111 83.7962C123.84 83.3143 123.463 82.9377 122.981 82.6662C122.506 82.3879 121.953 82.2488 121.322 82.2488C120.664 82.2488 120.08 82.4015 119.571 82.7069C119.069 83.0055 118.675 83.4093 118.39 83.9183C118.105 84.4205 117.959 84.9804 117.952 85.598V88.1532C117.952 88.9268 118.095 89.5953 118.38 90.1586C118.672 90.7219 119.082 91.1563 119.612 91.4616C120.141 91.767 120.769 91.9197 121.495 91.9197C121.977 91.9197 122.418 91.8519 122.818 91.7161C123.219 91.5804 123.562 91.3768 123.847 91.1054C124.132 90.8339 124.349 90.5013 124.498 90.1077L128.509 90.3724C128.305 91.3361 127.888 92.1776 127.257 92.897C126.633 93.6096 125.825 94.1661 124.834 94.5665C123.85 94.9601 122.713 95.157 121.424 95.157ZM140.993 79.2152V82.6255H134.498V94.8516H130.284V79.2152H140.993ZM148.996 95.157C147.415 95.157 146.047 94.821 144.893 94.1491C143.746 93.4705 142.861 92.5271 142.236 91.3191C141.612 90.1043 141.3 88.6961 141.3 87.0945C141.3 85.4792 141.612 84.0676 142.236 82.8596C142.861 81.6448 143.746 80.7015 144.893 80.0296C146.047 79.3509 147.415 79.0116 148.996 79.0116C150.577 79.0116 151.941 79.3509 153.088 80.0296C154.242 80.7015 155.131 81.6448 155.755 82.8596C156.38 84.0676 156.692 85.4792 156.692 87.0945C156.692 88.6961 156.38 90.1043 155.755 91.3191C155.131 92.5271 154.242 93.4705 153.088 94.1491C151.941 94.821 150.577 95.157 148.996 95.157ZM149.016 91.7976C149.736 91.7976 150.336 91.594 150.818 91.1868C151.3 90.7728 151.663 90.2095 151.907 89.4969C152.158 88.7843 152.284 87.9733 152.284 87.0639C152.284 86.1545 152.158 85.3435 151.907 84.6309C151.663 83.9183 151.3 83.355 150.818 82.9411C150.336 82.5271 149.736 82.3201 149.016 82.3201C148.29 82.3201 147.679 82.5271 147.184 82.9411C146.695 83.355 146.325 83.9183 146.074 84.6309C145.83 85.3435 145.708 86.1545 145.708 87.0639C145.708 87.9733 145.83 88.7843 146.074 89.4969C146.325 90.2095 146.695 90.7728 147.184 91.1868C147.679 91.594 148.29 91.7976 149.016 91.7976ZM158.365 100.715V79.2152H162.641V81.8416H162.834C163.024 81.4208 163.299 80.9933 163.659 80.5589C164.025 80.1178 164.5 79.7513 165.084 79.4595C165.674 79.1609 166.407 79.0116 167.283 79.0116C168.423 79.0116 169.475 79.3102 170.438 79.9074C171.402 80.4979 172.172 81.3903 172.749 82.5848C173.326 83.7724 173.615 85.2621 173.615 87.0537C173.615 88.7979 173.333 90.2706 172.77 91.4718C172.213 92.6663 171.453 93.5723 170.489 94.1899C169.532 94.8007 168.46 95.1061 167.272 95.1061C166.431 95.1061 165.715 94.9669 165.124 94.6887C164.541 94.4104 164.062 94.0609 163.689 93.6402C163.316 93.2126 163.031 92.7816 162.834 92.3473H162.702V100.715H158.365ZM162.61 87.0334C162.61 87.9631 162.739 88.7741 162.997 89.4664C163.255 90.1586 163.628 90.6982 164.117 91.085C164.605 91.465 165.199 91.6551 165.898 91.6551C166.604 91.6551 167.201 91.4616 167.69 91.0748C168.178 90.6812 168.548 90.1383 168.799 89.446C169.057 88.747 169.186 87.9428 169.186 87.0334C169.186 86.1308 169.061 85.3367 168.81 84.6513C168.559 83.9658 168.189 83.4297 167.7 83.0428C167.211 82.656 166.611 82.4626 165.898 82.4626C165.192 82.4626 164.595 82.6492 164.106 83.0225C163.625 83.3958 163.255 83.9251 162.997 84.6106C162.739 85.296 162.61 86.1036 162.61 87.0334ZM179.502 89.1304L185.132 79.2152H189.407V94.8516H185.274V84.9058L179.665 94.8516H175.359V79.2152H179.502V89.1304ZM195.88 89.1304L201.51 79.2152H205.785V94.8516H201.652V84.9058L196.043 94.8516H191.737V79.2152H195.88V89.1304ZM212.382 99.4325V91.4107H213.583C213.929 91.1936 214.207 90.8475 214.418 90.3724C214.635 89.8973 214.811 89.3374 214.947 88.6927C215.089 88.048 215.198 87.3524 215.273 86.6058C215.354 85.8525 215.425 85.0924 215.486 84.3255L215.894 79.2152H227.886V91.4107H230.308V99.4325H226.175V94.8516H216.616V99.4325H212.382ZM217.899 91.4107H223.793V82.5542H219.579L219.416 84.3255C219.301 85.995 219.134 87.4134 218.917 88.5807C218.7 89.7412 218.361 90.6846 217.899 91.4107ZM238.754 95.157C237.173 95.157 235.805 94.821 234.651 94.1491C233.504 93.4705 232.619 92.5271 231.994 91.3191C231.37 90.1043 231.058 88.6961 231.058 87.0945C231.058 85.4792 231.37 84.0676 231.994 82.8596C232.619 81.6448 233.504 80.7015 234.651 80.0296C235.805 79.3509 237.173 79.0116 238.754 79.0116C240.335 79.0116 241.699 79.3509 242.846 80.0296C244 80.7015 244.889 81.6448 245.513 82.8596C246.138 84.0676 246.45 85.4792 246.45 87.0945C246.45 88.6961 246.138 90.1043 245.513 91.3191C244.889 92.5271 244 93.4705 242.846 94.1491C241.699 94.821 240.335 95.157 238.754 95.157ZM238.774 91.7976C239.494 91.7976 240.094 91.594 240.576 91.1868C241.058 90.7728 241.421 90.2095 241.665 89.4969C241.916 88.7843 242.042 87.9733 242.042 87.0639C242.042 86.1545 241.916 85.3435 241.665 84.6309C241.421 83.9183 241.058 83.355 240.576 82.9411C240.094 82.5271 239.494 82.3201 238.774 82.3201C238.048 82.3201 237.437 82.5271 236.942 82.9411C236.453 83.355 236.083 83.9183 235.832 84.6309C235.588 85.3435 235.466 86.1545 235.466 87.0639C235.466 87.9733 235.588 88.7843 235.832 89.4969C236.083 90.2095 236.453 90.7728 236.942 91.1868C237.437 91.594 238.048 91.7976 238.774 91.7976ZM251.187 79.2152L254.058 84.6818L257 79.2152H261.449L256.918 87.0334L261.571 94.8516H257.142L254.058 89.446L251.024 94.8516H246.545L251.187 87.0334L246.708 79.2152H251.187ZM269.382 95.157C267.801 95.157 266.434 94.821 265.28 94.1491C264.133 93.4705 263.247 92.5271 262.623 91.3191C261.999 90.1043 261.686 88.6961 261.686 87.0945C261.686 85.4792 261.999 84.0676 262.623 82.8596C263.247 81.6448 264.133 80.7015 265.28 80.0296C266.434 79.3509 267.801 79.0116 269.382 79.0116C270.964 79.0116 272.328 79.3509 273.475 80.0296C274.628 80.7015 275.517 81.6448 276.142 82.8596C276.766 84.0676 277.078 85.4792 277.078 87.0945C277.078 88.6961 276.766 90.1043 276.142 91.3191C275.517 92.5271 274.628 93.4705 273.475 94.1491C272.328 94.821 270.964 95.157 269.382 95.157ZM269.403 91.7976C270.122 91.7976 270.723 91.594 271.205 91.1868C271.686 90.7728 272.05 90.2095 272.294 89.4969C272.545 88.7843 272.67 87.9733 272.67 87.0639C272.67 86.1545 272.545 85.3435 272.294 84.6309C272.05 83.9183 271.686 83.355 271.205 82.9411C270.723 82.5271 270.122 82.3201 269.403 82.3201C268.677 82.3201 268.066 82.5271 267.57 82.9411C267.082 83.355 266.712 83.9183 266.461 84.6309C266.216 85.3435 266.094 86.1545 266.094 87.0639C266.094 87.9733 266.216 88.7843 266.461 89.4969C266.712 90.2095 267.082 90.7728 267.57 91.1868C268.066 91.594 268.677 91.7976 269.403 91.7976ZM277.53 99.4325V91.4107H278.731C279.077 91.1936 279.356 90.8475 279.566 90.3724C279.783 89.8973 279.96 89.3374 280.095 88.6927C280.238 88.048 280.346 87.3524 280.421 86.6058C280.503 85.8525 280.574 85.0924 280.635 84.3255L281.042 79.2152H293.034V91.4107H295.457V99.4325H291.324V94.8516H281.765V99.4325H277.53ZM283.047 91.4107H288.942V82.5542H284.727L284.564 84.3255C284.449 85.995 284.283 87.4134 284.065 88.5807C283.848 89.7412 283.509 90.6846 283.047 91.4107ZM303.902 95.157C302.321 95.157 300.953 94.821 299.8 94.1491C298.653 93.4705 297.767 92.5271 297.143 91.3191C296.518 90.1043 296.206 88.6961 296.206 87.0945C296.206 85.4792 296.518 84.0676 297.143 82.8596C297.767 81.6448 298.653 80.7015 299.8 80.0296C300.953 79.3509 302.321 79.0116 303.902 79.0116C305.483 79.0116 306.848 79.3509 307.995 80.0296C309.148 80.7015 310.037 81.6448 310.662 82.8596C311.286 84.0676 311.598 85.4792 311.598 87.0945C311.598 88.6961 311.286 90.1043 310.662 91.3191C310.037 92.5271 309.148 93.4705 307.995 94.1491C306.848 94.821 305.483 95.157 303.902 95.157ZM303.923 91.7976C304.642 91.7976 305.243 91.594 305.724 91.1868C306.206 90.7728 306.569 90.2095 306.814 89.4969C307.065 88.7843 307.19 87.9733 307.19 87.0639C307.19 86.1545 307.065 85.3435 306.814 84.6309C306.569 83.9183 306.206 83.355 305.724 82.9411C305.243 82.5271 304.642 82.3201 303.923 82.3201C303.196 82.3201 302.586 82.5271 302.09 82.9411C301.602 83.355 301.232 83.9183 300.981 84.6309C300.736 85.3435 300.614 86.1545 300.614 87.0639C300.614 87.9733 300.736 88.7843 300.981 89.4969C301.232 90.2095 301.602 90.7728 302.09 91.1868C302.586 91.594 303.196 91.7976 303.923 91.7976ZM313.271 94.8516V79.2152H319.939C321.867 79.2152 323.39 79.5817 324.51 80.3146C325.63 81.0476 326.19 82.0893 326.19 83.4399C326.19 84.2882 325.874 84.994 325.243 85.5573C324.612 86.1206 323.736 86.5006 322.617 86.6974C323.553 86.7653 324.351 86.9791 325.009 87.3388C325.674 87.6917 326.18 88.1498 326.526 88.7131C326.879 89.2764 327.055 89.9007 327.055 90.5862C327.055 91.4752 326.817 92.2387 326.342 92.8767C325.874 93.5146 325.185 94.0032 324.276 94.3426C323.373 94.6819 322.27 94.8516 320.967 94.8516H313.271ZM317.313 91.6042H320.967C321.571 91.6042 322.043 91.4616 322.382 91.1766C322.729 90.8848 322.902 90.4878 322.902 89.9856C322.902 89.4291 322.729 88.9913 322.382 88.6723C322.043 88.3534 321.571 88.1939 320.967 88.1939H317.313V91.6042ZM317.313 85.6489H320.031C320.465 85.6489 320.835 85.5878 321.14 85.4657C321.453 85.3367 321.69 85.1535 321.853 84.916C322.023 84.6784 322.108 84.3968 322.108 84.071C322.108 83.5892 321.914 83.2125 321.527 82.9411C321.14 82.6696 320.611 82.5339 319.939 82.5339H317.313V85.6489Z" fill="black"/>
<path opacity="0.6" d="M42.0383 492.309C41.3664 492.309 40.7675 492.193 40.2415 491.962C39.719 491.732 39.3033 491.411 38.9945 491C38.6891 490.586 38.5228 490.106 38.4957 489.56H39.7783C39.8055 489.896 39.9209 490.186 40.1245 490.43C40.3281 490.671 40.5944 490.858 40.9236 490.99C41.2527 491.123 41.6175 491.189 42.0179 491.189C42.4658 491.189 42.8629 491.111 43.209 490.955C43.5551 490.799 43.8266 490.581 44.0234 490.303C44.2202 490.025 44.3186 489.702 44.3186 489.336C44.3186 488.953 44.2236 488.615 44.0336 488.323C43.8435 488.028 43.5653 487.797 43.1988 487.631C42.8323 487.465 42.3844 487.381 41.855 487.381H41.0203V486.262H41.855C42.269 486.262 42.6321 486.187 42.9443 486.038C43.2599 485.888 43.5059 485.678 43.6823 485.407C43.8622 485.135 43.9521 484.816 43.9521 484.45C43.9521 484.097 43.8741 483.79 43.718 483.528C43.5619 483.267 43.3413 483.063 43.0563 482.918C42.7746 482.772 42.4421 482.699 42.0586 482.699C41.699 482.699 41.3596 482.765 41.0407 482.897C40.7251 483.026 40.4672 483.214 40.267 483.462C40.0668 483.706 39.9582 484.002 39.9412 484.348H38.7196C38.74 483.802 38.9046 483.323 39.2134 482.912C39.5221 482.498 39.926 482.176 40.4248 481.945C40.927 481.715 41.4784 481.599 42.079 481.599C42.7237 481.599 43.2768 481.73 43.7383 481.991C44.1998 482.249 44.5544 482.59 44.8021 483.014C45.0498 483.438 45.1737 483.897 45.1737 484.389C45.1737 484.976 45.0193 485.476 44.7105 485.89C44.4051 486.304 43.9894 486.591 43.4635 486.75V486.832C44.1218 486.94 44.6359 487.22 45.0057 487.672C45.3756 488.119 45.5605 488.674 45.5605 489.336C45.5605 489.903 45.4061 490.412 45.0974 490.863C44.792 491.311 44.3746 491.664 43.8452 491.922C43.3159 492.18 42.7136 492.309 42.0383 492.309ZM46.8247 490.028V488.99L51.4056 481.742H52.159V483.35H51.65L48.1888 488.827V488.908H54.3578V490.028H46.8247ZM51.7314 492.166V489.713V489.229V481.742H52.9326V492.166H51.7314ZM57.0141 490.741L56.9326 491.291C56.8749 491.677 56.7867 492.091 56.668 492.532C56.5526 492.974 56.4321 493.389 56.3066 493.78C56.181 494.17 56.0775 494.48 55.9961 494.711H55.0799C55.124 494.494 55.1817 494.207 55.2529 493.851C55.3242 493.494 55.3955 493.096 55.4667 492.655C55.5414 492.217 55.6025 491.769 55.65 491.311L55.711 490.741H57.0141ZM61.7432 492.309C61.3157 492.302 60.8881 492.22 60.4605 492.064C60.033 491.908 59.6428 491.645 59.2898 491.275C58.9369 490.902 58.6536 490.398 58.4398 489.764C58.226 489.126 58.1192 488.325 58.1192 487.361C58.1192 486.438 58.2057 485.62 58.3787 484.908C58.5518 484.192 58.8029 483.589 59.1321 483.101C59.4612 482.609 59.8582 482.235 60.3231 481.981C60.7914 481.727 61.319 481.599 61.9061 481.599C62.4897 481.599 63.0089 481.716 63.4636 481.95C63.9217 482.181 64.295 482.504 64.5834 482.918C64.8718 483.332 65.0585 483.808 65.1433 484.348H63.9014C63.786 483.88 63.562 483.491 63.2295 483.182C62.8969 482.873 62.4558 482.719 61.9061 482.719C61.0985 482.719 60.4622 483.07 59.9974 483.773C59.5359 484.475 59.3034 485.461 59.3 486.73H59.3815C59.5715 486.442 59.7971 486.195 60.0584 485.992C60.3231 485.785 60.6149 485.625 60.9339 485.513C61.2529 485.401 61.5905 485.345 61.9468 485.345C62.544 485.345 63.0904 485.495 63.5858 485.793C64.0812 486.089 64.4782 486.497 64.7768 487.02C65.0754 487.539 65.2247 488.135 65.2247 488.807C65.2247 489.451 65.0805 490.042 64.7921 490.578C64.5037 491.111 64.0982 491.535 63.5756 491.85C63.0564 492.163 62.4456 492.315 61.7432 492.309ZM61.7432 491.189C62.1708 491.189 62.5542 491.082 62.8935 490.868C63.2363 490.654 63.506 490.368 63.7028 490.008C63.903 489.648 64.0032 489.248 64.0032 488.807C64.0032 488.376 63.9064 487.984 63.713 487.631C63.523 487.275 63.26 486.991 62.9241 486.781C62.5915 486.57 62.2115 486.465 61.7839 486.465C61.4616 486.465 61.1613 486.53 60.883 486.659C60.6048 486.784 60.3604 486.957 60.1501 487.178C59.9431 487.398 59.7802 487.651 59.6614 487.936C59.5426 488.218 59.4833 488.515 59.4833 488.827C59.4833 489.241 59.58 489.628 59.7734 489.988C59.9702 490.347 60.2383 490.637 60.5776 490.858C60.9203 491.078 61.3089 491.189 61.7432 491.189ZM72.9646 492.166L69.3813 487.381H68.0986V492.166H66.8363V481.742H68.0986V486.262H68.6483L72.8221 481.742H74.3287L70.1142 486.323L74.4712 492.166H72.9646Z" fill="black"/>
<rect x="31.8516" y="572.258" width="69.1296" height="48.5741" transform="rotate(-90 31.8516 572.258)" fill="url(#paint0_linear_3044_2227)"/>
<path d="M31.8516 503.129L80.4256 503.129" stroke="#04B34A" stroke-width="3.18519"/>
<path opacity="0.6" d="M37.305 585.982V596.406H35.4166V587.819H35.3555L32.9174 589.377V587.646L35.5082 585.982H37.305ZM46.1442 590.436V591.953H41.4513V590.436H46.1442ZM49.3069 594.472V592.971L53.73 585.982H54.9822V588.12H54.2187L51.241 592.838V592.92H57.4152V594.472H49.3069ZM54.2798 596.406V594.014L54.3001 593.342V585.982H56.0816V596.406H54.2798ZM64.0937 585.839C64.5925 585.843 65.0778 585.931 65.5494 586.104C66.0245 586.274 66.4521 586.552 66.8321 586.939C67.2122 587.322 67.5142 587.836 67.7381 588.481C67.9621 589.126 68.0741 589.923 68.0741 590.873C68.0775 591.769 67.9824 592.57 67.789 593.276C67.599 593.978 67.3258 594.572 66.9695 595.057C66.6132 595.543 66.184 595.913 65.6818 596.167C65.1796 596.422 64.6146 596.549 63.9868 596.549C63.3285 596.549 62.7449 596.42 62.2359 596.162C61.7303 595.904 61.3214 595.551 61.0092 595.103C60.697 594.655 60.5053 594.143 60.434 593.566H62.2919C62.3869 593.98 62.5803 594.309 62.8721 594.554C63.1673 594.794 63.5389 594.915 63.9868 594.915C64.7096 594.915 65.2661 594.601 65.6563 593.973C66.0466 593.345 66.2417 592.473 66.2417 591.357H66.1704C66.0041 591.656 65.7887 591.914 65.524 592.131C65.2593 592.344 64.959 592.509 64.6231 592.624C64.2905 592.74 63.9376 592.797 63.5644 592.797C62.9536 592.797 62.4038 592.652 61.9152 592.36C61.43 592.068 61.0448 591.667 60.7598 591.158C60.4781 590.65 60.3356 590.068 60.3322 589.413C60.3322 588.734 60.4883 588.125 60.8005 587.585C61.1161 587.042 61.5555 586.615 62.1188 586.303C62.6821 585.987 63.3404 585.833 64.0937 585.839ZM64.0988 587.366C63.7323 587.366 63.4015 587.456 63.1063 587.636C62.8144 587.813 62.5837 588.054 62.414 588.359C62.2477 588.661 62.1646 588.999 62.1646 589.372C62.168 589.742 62.2511 590.078 62.414 590.38C62.5803 590.682 62.8059 590.921 63.091 591.097C63.3794 591.274 63.7086 591.362 64.0784 591.362C64.3533 591.362 64.6095 591.31 64.847 591.204C65.0846 591.099 65.2915 590.953 65.468 590.767C65.6478 590.577 65.787 590.361 65.8854 590.12C65.9872 589.879 66.0364 589.625 66.033 589.357C66.033 589 65.9482 588.671 65.7785 588.369C65.6122 588.067 65.3832 587.825 65.0913 587.641C64.8029 587.458 64.4721 587.366 64.0988 587.366ZM77.5495 596.406L74.1189 591.851H73.1925V596.406H71.3041V585.982H73.1925V590.268H73.6659L77.3714 585.982H79.6975L75.5797 590.736L79.8756 596.406H77.5495Z" fill="black"/>
<path opacity="0.6" d="M167.737 482.754C167.065 482.754 166.466 482.638 165.94 482.408C165.418 482.177 165.002 481.856 164.693 481.446C164.388 481.032 164.222 480.552 164.195 480.005H165.477C165.504 480.341 165.62 480.631 165.823 480.876C166.027 481.117 166.293 481.303 166.622 481.436C166.952 481.568 167.316 481.634 167.717 481.634C168.165 481.634 168.562 481.556 168.908 481.4C169.254 481.244 169.525 481.027 169.722 480.748C169.919 480.47 170.017 480.148 170.017 479.781C170.017 479.398 169.922 479.06 169.732 478.768C169.542 478.473 169.264 478.242 168.898 478.076C168.531 477.91 168.083 477.827 167.554 477.827H166.719V476.707H167.554C167.968 476.707 168.331 476.632 168.643 476.483C168.959 476.334 169.205 476.123 169.381 475.852C169.561 475.58 169.651 475.261 169.651 474.895C169.651 474.542 169.573 474.235 169.417 473.974C169.261 473.712 169.04 473.509 168.755 473.363C168.474 473.217 168.141 473.144 167.758 473.144C167.398 473.144 167.059 473.21 166.74 473.343C166.424 473.471 166.166 473.66 165.966 473.907C165.766 474.152 165.657 474.447 165.64 474.793H164.419C164.439 474.247 164.603 473.768 164.912 473.358C165.221 472.944 165.625 472.621 166.124 472.391C166.626 472.16 167.177 472.045 167.778 472.045C168.423 472.045 168.976 472.175 169.437 472.436C169.899 472.694 170.253 473.035 170.501 473.46C170.749 473.884 170.873 474.342 170.873 474.834C170.873 475.421 170.718 475.921 170.409 476.335C170.104 476.749 169.688 477.036 169.162 477.196V477.277C169.821 477.386 170.335 477.666 170.705 478.117C171.074 478.565 171.259 479.12 171.259 479.781C171.259 480.348 171.105 480.857 170.796 481.308C170.491 481.756 170.073 482.109 169.544 482.367C169.015 482.625 168.412 482.754 167.737 482.754ZM173.094 482.611L177.756 473.388V473.307H172.381V472.187H179.059V473.368L174.417 482.611H173.094ZM180.403 481.186L180.322 481.736C180.264 482.123 180.176 482.537 180.057 482.978C179.942 483.419 179.821 483.835 179.696 484.225C179.57 484.615 179.467 484.926 179.385 485.156H178.469C178.513 484.939 178.571 484.652 178.642 484.296C178.714 483.94 178.785 483.541 178.856 483.1C178.931 482.662 178.992 482.214 179.039 481.756L179.1 481.186H180.403ZM185.166 482.754C184.494 482.754 183.895 482.638 183.369 482.408C182.846 482.177 182.431 481.856 182.122 481.446C181.816 481.032 181.65 480.552 181.623 480.005H182.906C182.933 480.341 183.048 480.631 183.252 480.876C183.455 481.117 183.722 481.303 184.051 481.436C184.38 481.568 184.745 481.634 185.145 481.634C185.593 481.634 185.99 481.556 186.336 481.4C186.682 481.244 186.954 481.027 187.151 480.748C187.348 480.47 187.446 480.148 187.446 479.781C187.446 479.398 187.351 479.06 187.161 478.768C186.971 478.473 186.693 478.242 186.326 478.076C185.96 477.91 185.512 477.827 184.982 477.827H184.148V476.707H184.982C185.396 476.707 185.759 476.632 186.072 476.483C186.387 476.334 186.633 476.123 186.81 475.852C186.99 475.58 187.079 475.261 187.079 474.895C187.079 474.542 187.001 474.235 186.845 473.974C186.689 473.712 186.469 473.509 186.184 473.363C185.902 473.217 185.569 473.144 185.186 473.144C184.826 473.144 184.487 473.21 184.168 473.343C183.852 473.471 183.595 473.66 183.394 473.907C183.194 474.152 183.086 474.447 183.069 474.793H181.847C181.867 474.247 182.032 473.768 182.341 473.358C182.649 472.944 183.053 472.621 183.552 472.391C184.054 472.16 184.606 472.045 185.206 472.045C185.851 472.045 186.404 472.175 186.866 472.436C187.327 472.694 187.682 473.035 187.929 473.46C188.177 473.884 188.301 474.342 188.301 474.834C188.301 475.421 188.147 475.921 187.838 476.335C187.532 476.749 187.117 477.036 186.591 477.196V477.277C187.249 477.386 187.763 477.666 188.133 478.117C188.503 478.565 188.688 479.12 188.688 479.781C188.688 480.348 188.533 480.857 188.225 481.308C187.919 481.756 187.502 482.109 186.973 482.367C186.443 482.625 185.841 482.754 185.166 482.754ZM196.508 482.611L192.925 477.827H191.642V482.611H190.38V472.187H191.642V476.707H192.192L196.365 472.187H197.872L193.658 476.768L198.015 482.611H196.508Z" fill="black"/>
<rect x="156.473" y="572.26" width="78.6852" height="48.5741" transform="rotate(-90 156.473 572.26)" fill="url(#paint1_linear_3044_2227)"/>
<path d="M156.473 493.574L205.047 493.574" stroke="#04B34A" stroke-width="3.18519"/>
<path opacity="0.6" d="M154.81 596.551C154.132 596.551 153.524 596.423 152.988 596.169C152.452 595.911 152.026 595.558 151.71 595.11C151.398 594.662 151.232 594.15 151.212 593.573H153.044C153.078 594.001 153.263 594.35 153.599 594.622C153.935 594.89 154.339 595.024 154.81 595.024C155.18 595.024 155.509 594.939 155.798 594.769C156.086 594.6 156.313 594.364 156.48 594.062C156.646 593.76 156.727 593.415 156.724 593.028C156.727 592.635 156.644 592.285 156.475 591.98C156.305 591.675 156.073 591.435 155.777 591.262C155.482 591.086 155.143 590.998 154.759 590.998C154.447 590.994 154.14 591.052 153.838 591.171C153.536 591.289 153.297 591.445 153.12 591.639L151.415 591.359L151.96 585.984H158.007V587.562H153.522L153.222 590.326H153.283C153.477 590.098 153.75 589.91 154.103 589.761C154.456 589.608 154.842 589.532 155.263 589.532C155.894 589.532 156.458 589.681 156.953 589.98C157.448 590.275 157.839 590.682 158.124 591.201C158.409 591.72 158.551 592.314 158.551 592.983C158.551 593.672 158.392 594.286 158.073 594.825C157.757 595.361 157.318 595.784 156.755 596.093C156.195 596.398 155.547 596.551 154.81 596.551ZM165.543 596.607C164.705 596.607 163.985 596.395 163.385 595.97C162.788 595.543 162.328 594.927 162.005 594.123C161.686 593.315 161.527 592.343 161.527 591.206C161.53 590.07 161.691 589.102 162.01 588.305C162.333 587.504 162.793 586.893 163.39 586.473C163.99 586.052 164.708 585.841 165.543 585.841C166.378 585.841 167.095 586.052 167.696 586.473C168.297 586.893 168.756 587.504 169.075 588.305C169.398 589.106 169.559 590.073 169.559 591.206C169.559 592.346 169.398 593.32 169.075 594.128C168.756 594.932 168.297 595.546 167.696 595.97C167.099 596.395 166.381 596.607 165.543 596.607ZM165.543 595.014C166.194 595.014 166.708 594.693 167.085 594.052C167.465 593.407 167.655 592.458 167.655 591.206C167.655 590.378 167.569 589.683 167.396 589.119C167.223 588.556 166.978 588.132 166.663 587.847C166.347 587.558 165.974 587.414 165.543 587.414C164.895 587.414 164.382 587.737 164.006 588.381C163.629 589.023 163.439 589.964 163.436 591.206C163.432 592.038 163.515 592.737 163.685 593.303C163.858 593.87 164.102 594.298 164.418 594.586C164.734 594.871 165.109 595.014 165.543 595.014ZM177.442 590.438V591.954H172.75V590.438H177.442ZM184.412 585.841C184.911 585.845 185.396 585.933 185.868 586.106C186.343 586.276 186.771 586.554 187.151 586.941C187.531 587.324 187.833 587.838 188.057 588.483C188.281 589.128 188.393 589.925 188.393 590.875C188.396 591.771 188.301 592.572 188.108 593.278C187.918 593.98 187.645 594.574 187.288 595.059C186.932 595.545 186.503 595.914 186 596.169C185.498 596.423 184.933 596.551 184.306 596.551C183.647 596.551 183.064 596.422 182.555 596.164C182.049 595.906 181.64 595.553 181.328 595.105C181.016 594.657 180.824 594.145 180.753 593.568H182.611C182.706 593.982 182.899 594.311 183.191 594.555C183.486 594.796 183.858 594.917 184.306 594.917C185.028 594.917 185.585 594.603 185.975 593.975C186.365 593.347 186.56 592.475 186.56 591.359H186.489C186.323 591.658 186.107 591.915 185.843 592.133C185.578 592.346 185.278 592.511 184.942 592.626C184.609 592.742 184.256 592.799 183.883 592.799C183.272 592.799 182.723 592.654 182.234 592.362C181.749 592.07 181.364 591.669 181.078 591.16C180.797 590.651 180.654 590.07 180.651 589.415C180.651 588.736 180.807 588.127 181.119 587.587C181.435 587.044 181.874 586.617 182.437 586.305C183.001 585.989 183.659 585.835 184.412 585.841ZM184.417 587.368C184.051 587.368 183.72 587.458 183.425 587.638C183.133 587.815 182.902 588.056 182.733 588.361C182.566 588.663 182.483 589.001 182.483 589.374C182.487 589.744 182.57 590.08 182.733 590.382C182.899 590.684 183.125 590.923 183.41 591.099C183.698 591.276 184.027 591.364 184.397 591.364C184.672 591.364 184.928 591.311 185.166 591.206C185.403 591.101 185.61 590.955 185.787 590.769C185.967 590.578 186.106 590.363 186.204 590.122C186.306 589.881 186.355 589.627 186.352 589.359C186.352 589.002 186.267 588.673 186.097 588.371C185.931 588.069 185.702 587.827 185.41 587.643C185.122 587.46 184.791 587.368 184.417 587.368ZM195.14 585.841C195.639 585.845 196.124 585.933 196.596 586.106C197.071 586.276 197.498 586.554 197.878 586.941C198.258 587.324 198.56 587.838 198.784 588.483C199.008 589.128 199.12 589.925 199.12 590.875C199.124 591.771 199.029 592.572 198.835 593.278C198.645 593.98 198.372 594.574 198.016 595.059C197.66 595.545 197.23 595.914 196.728 596.169C196.226 596.423 195.661 596.551 195.033 596.551C194.375 596.551 193.791 596.422 193.282 596.164C192.777 595.906 192.368 595.553 192.055 595.105C191.743 594.657 191.552 594.145 191.48 593.568H193.338C193.433 593.982 193.627 594.311 193.918 594.555C194.214 594.796 194.585 594.917 195.033 594.917C195.756 594.917 196.312 594.603 196.703 593.975C197.093 593.347 197.288 592.475 197.288 591.359H197.217C197.05 591.658 196.835 591.915 196.57 592.133C196.306 592.346 196.005 592.511 195.669 592.626C195.337 592.742 194.984 592.799 194.611 592.799C194 592.799 193.45 592.654 192.961 592.362C192.476 592.07 192.091 591.669 191.806 591.16C191.524 590.651 191.382 590.07 191.379 589.415C191.379 588.736 191.535 588.127 191.847 587.587C192.162 587.044 192.602 586.617 193.165 586.305C193.728 585.989 194.387 585.835 195.14 585.841ZM195.145 587.368C194.779 587.368 194.448 587.458 194.153 587.638C193.861 587.815 193.63 588.056 193.46 588.361C193.294 588.663 193.211 589.001 193.211 589.374C193.214 589.744 193.297 590.08 193.46 590.382C193.627 590.684 193.852 590.923 194.137 591.099C194.426 591.276 194.755 591.364 195.125 591.364C195.4 591.364 195.656 591.311 195.893 591.206C196.131 591.101 196.338 590.955 196.514 590.769C196.694 590.578 196.833 590.363 196.932 590.122C197.033 589.881 197.083 589.627 197.079 589.359C197.079 589.002 196.994 588.673 196.825 588.371C196.659 588.069 196.429 587.827 196.138 587.643C195.849 587.46 195.518 587.368 195.145 587.368ZM208.596 596.408L205.165 591.853H204.239V596.408H202.35V585.984H204.239V590.27H204.712L208.418 585.984H210.744L206.626 590.738L210.922 596.408H208.596Z" fill="black"/>
<path opacity="0.6" d="M287.526 443.048V442.009L292.107 434.761H292.86V436.37H292.351L288.89 441.847V441.928H295.059V443.048H287.526ZM292.433 445.186V442.732V442.249V434.761H293.634V445.186H292.433ZM299.732 445.328C299.033 445.328 298.416 445.204 297.879 444.956C297.347 444.705 296.931 444.361 296.632 443.923C296.334 443.482 296.186 442.98 296.19 442.417C296.186 441.975 296.273 441.568 296.449 441.195C296.626 440.818 296.867 440.504 297.172 440.253C297.481 439.999 297.825 439.838 298.205 439.77V439.709C297.706 439.58 297.309 439.3 297.014 438.869C296.719 438.435 296.573 437.941 296.576 437.388C296.573 436.858 296.707 436.385 296.979 435.968C297.25 435.55 297.623 435.221 298.098 434.98C298.577 434.739 299.121 434.619 299.732 434.619C300.336 434.619 300.876 434.739 301.351 434.98C301.826 435.221 302.199 435.55 302.471 435.968C302.745 436.385 302.885 436.858 302.888 437.388C302.885 437.941 302.734 438.435 302.435 438.869C302.14 439.3 301.748 439.58 301.259 439.709V439.77C301.636 439.838 301.975 439.999 302.277 440.253C302.579 440.504 302.82 440.818 303 441.195C303.18 441.568 303.271 441.975 303.275 442.417C303.271 442.98 303.119 443.482 302.817 443.923C302.518 444.361 302.102 444.705 301.57 444.956C301.04 445.204 300.428 445.328 299.732 445.328ZM299.732 444.208C300.204 444.208 300.611 444.132 300.954 443.979C301.297 443.827 301.561 443.611 301.748 443.333C301.934 443.055 302.03 442.729 302.033 442.356C302.03 441.962 301.928 441.614 301.727 441.312C301.527 441.01 301.254 440.773 300.908 440.599C300.565 440.426 300.173 440.34 299.732 440.34C299.288 440.34 298.891 440.426 298.541 440.599C298.195 440.773 297.922 441.01 297.722 441.312C297.525 441.614 297.428 441.962 297.432 442.356C297.428 442.729 297.518 443.055 297.701 443.333C297.888 443.611 298.154 443.827 298.5 443.979C298.847 444.132 299.257 444.208 299.732 444.208ZM299.732 439.261C300.105 439.261 300.436 439.186 300.725 439.037C301.017 438.888 301.246 438.679 301.412 438.411C301.578 438.143 301.663 437.829 301.666 437.469C301.663 437.116 301.58 436.809 301.417 436.548C301.254 436.283 301.028 436.08 300.74 435.937C300.452 435.791 300.116 435.718 299.732 435.718C299.342 435.718 299.001 435.791 298.709 435.937C298.417 436.08 298.192 436.283 298.032 436.548C297.873 436.809 297.795 437.116 297.798 437.469C297.795 437.829 297.874 438.143 298.037 438.411C298.204 438.679 298.433 438.888 298.724 439.037C299.016 439.186 299.352 439.261 299.732 439.261ZM306.142 443.76L306.061 444.31C306.003 444.697 305.915 445.111 305.796 445.552C305.681 445.993 305.56 446.409 305.435 446.799C305.309 447.189 305.206 447.5 305.124 447.731H304.208C304.252 447.513 304.31 447.227 304.381 446.87C304.452 446.514 304.524 446.115 304.595 445.674C304.67 445.236 304.731 444.789 304.778 444.33L304.839 443.76H306.142ZM307.774 445.186V444.269L311.215 440.503C311.619 440.062 311.951 439.678 312.213 439.352C312.474 439.023 312.667 438.715 312.793 438.426C312.922 438.134 312.986 437.829 312.986 437.51C312.986 437.143 312.898 436.826 312.722 436.558C312.549 436.29 312.311 436.083 312.009 435.937C311.707 435.791 311.368 435.718 310.991 435.718C310.591 435.718 310.241 435.801 309.943 435.968C309.647 436.131 309.418 436.36 309.255 436.655C309.096 436.95 309.016 437.296 309.016 437.693H307.815C307.815 437.082 307.956 436.546 308.237 436.085C308.519 435.623 308.902 435.264 309.388 435.006C309.876 434.748 310.424 434.619 311.032 434.619C311.643 434.619 312.184 434.748 312.655 435.006C313.127 435.264 313.497 435.611 313.765 436.049C314.033 436.487 314.167 436.974 314.167 437.51C314.167 437.893 314.098 438.268 313.959 438.635C313.823 438.998 313.585 439.403 313.246 439.851C312.91 440.296 312.443 440.839 311.846 441.48L309.505 443.984V444.066H314.35V445.186H307.774ZM322.191 445.186L318.607 440.401H317.325V445.186H316.063V434.761H317.325V439.281H317.875L322.048 434.761H323.555L319.34 439.342L323.697 445.186H322.191Z" fill="black"/>
<rect x="281.092" y="572.26" width="116.111" height="48.5741" transform="rotate(-90 281.092 572.26)" fill="url(#paint2_linear_3044_2227)"/>
<path d="M281.092 456.148L329.666 456.148" stroke="#04B34A" stroke-width="3.18519"/>
<path opacity="0.6" d="M271.045 585.984V596.408H269.157V587.821H269.096L266.658 589.379V587.648L269.248 585.984H271.045ZM278.978 596.607C278.14 596.607 277.421 596.395 276.82 595.97C276.223 595.543 275.763 594.927 275.441 594.123C275.122 593.315 274.962 592.343 274.962 591.206C274.966 590.07 275.127 589.102 275.446 588.305C275.768 587.504 276.228 586.893 276.825 586.473C277.426 586.052 278.144 585.841 278.978 585.841C279.813 585.841 280.531 586.052 281.131 586.473C281.732 586.893 282.192 587.504 282.511 588.305C282.833 589.106 282.994 590.073 282.994 591.206C282.994 592.346 282.833 593.32 282.511 594.128C282.192 594.932 281.732 595.546 281.131 595.97C280.534 596.395 279.817 596.607 278.978 596.607ZM278.978 595.014C279.63 595.014 280.144 594.693 280.521 594.052C280.901 593.407 281.091 592.458 281.091 591.206C281.091 590.378 281.004 589.683 280.831 589.119C280.658 588.556 280.414 588.132 280.098 587.847C279.783 587.558 279.409 587.414 278.978 587.414C278.33 587.414 277.818 587.737 277.441 588.381C277.065 589.023 276.875 589.964 276.871 591.206C276.868 592.038 276.951 592.737 277.121 593.303C277.294 593.87 277.538 594.298 277.854 594.586C278.169 594.871 278.544 595.014 278.978 595.014ZM289.972 596.607C289.134 596.607 288.414 596.395 287.814 595.97C287.217 595.543 286.757 594.927 286.434 594.123C286.115 593.315 285.956 592.343 285.956 591.206C285.959 590.07 286.121 589.102 286.44 588.305C286.762 587.504 287.222 586.893 287.819 586.473C288.42 586.052 289.137 585.841 289.972 585.841C290.807 585.841 291.524 586.052 292.125 586.473C292.726 586.893 293.185 587.504 293.504 588.305C293.827 589.106 293.988 590.073 293.988 591.206C293.988 592.346 293.827 593.32 293.504 594.128C293.185 594.932 292.726 595.546 292.125 595.97C291.528 596.395 290.81 596.607 289.972 596.607ZM289.972 595.014C290.624 595.014 291.138 594.693 291.514 594.052C291.894 593.407 292.084 592.458 292.084 591.206C292.084 590.378 291.998 589.683 291.825 589.119C291.652 588.556 291.407 588.132 291.092 587.847C290.776 587.558 290.403 587.414 289.972 587.414C289.324 587.414 288.811 587.737 288.435 588.381C288.058 589.023 287.868 589.964 287.865 591.206C287.861 592.038 287.944 592.737 288.114 593.303C288.287 593.87 288.532 594.298 288.847 594.586C289.163 594.871 289.538 595.014 289.972 595.014ZM301.872 590.438V591.954H297.179V590.438H301.872ZM309.462 585.984V596.408H307.574V587.821H307.513L305.075 589.379V587.648L307.666 585.984H309.462ZM313.354 594.474V592.972L317.777 585.984H319.03V588.122H318.266L315.288 592.84V592.922H321.463V594.474H313.354ZM318.327 596.408V594.016L318.348 593.344V585.984H320.129V596.408H318.327ZM328.141 585.841C328.64 585.845 329.125 585.933 329.597 586.106C330.072 586.276 330.499 586.554 330.88 586.941C331.26 587.324 331.562 587.838 331.786 588.483C332.009 589.128 332.121 589.925 332.121 590.875C332.125 591.771 332.03 592.572 331.836 593.278C331.646 593.98 331.373 594.574 331.017 595.059C330.661 595.545 330.231 595.914 329.729 596.169C329.227 596.423 328.662 596.551 328.034 596.551C327.376 596.551 326.792 596.422 326.283 596.164C325.778 595.906 325.369 595.553 325.057 595.105C324.744 594.657 324.553 594.145 324.481 593.568H326.339C326.434 593.982 326.628 594.311 326.92 594.555C327.215 594.796 327.586 594.917 328.034 594.917C328.757 594.917 329.313 594.603 329.704 593.975C330.094 593.347 330.289 592.475 330.289 591.359H330.218C330.052 591.658 329.836 591.915 329.571 592.133C329.307 592.346 329.006 592.511 328.67 592.626C328.338 592.742 327.985 592.799 327.612 592.799C327.001 592.799 326.451 592.654 325.963 592.362C325.477 592.07 325.092 591.669 324.807 591.16C324.526 590.651 324.383 590.07 324.38 589.415C324.38 588.736 324.536 588.127 324.848 587.587C325.163 587.044 325.603 586.617 326.166 586.305C326.729 585.989 327.388 585.835 328.141 585.841ZM328.146 587.368C327.78 587.368 327.449 587.458 327.154 587.638C326.862 587.815 326.631 588.056 326.461 588.361C326.295 588.663 326.212 589.001 326.212 589.374C326.215 589.744 326.299 590.08 326.461 590.382C326.628 590.684 326.853 590.923 327.138 591.099C327.427 591.276 327.756 591.364 328.126 591.364C328.401 591.364 328.657 591.311 328.894 591.206C329.132 591.101 329.339 590.955 329.515 590.769C329.695 590.578 329.834 590.363 329.933 590.122C330.035 589.881 330.084 589.627 330.08 589.359C330.08 589.002 329.996 588.673 329.826 588.371C329.66 588.069 329.431 587.827 329.139 587.643C328.85 587.46 328.519 587.368 328.146 587.368ZM341.597 596.408L338.166 591.853H337.24V596.408H335.352V585.984H337.24V590.27H337.713L341.419 585.984H343.745L339.627 590.738L343.923 596.408H341.597Z" fill="black"/>
<path opacity="0.6" d="M415.74 428.809C415.143 428.809 414.605 428.69 414.126 428.452C413.648 428.215 413.264 427.889 412.976 427.475C412.688 427.061 412.53 426.589 412.503 426.06H413.724C413.772 426.532 413.986 426.922 414.366 427.231C414.749 427.536 415.207 427.689 415.74 427.689C416.167 427.689 416.548 427.589 416.88 427.388C417.216 427.188 417.479 426.913 417.669 426.564C417.862 426.211 417.959 425.812 417.959 425.368C417.959 424.913 417.859 424.508 417.659 424.151C417.462 423.792 417.191 423.508 416.844 423.301C416.498 423.094 416.103 422.989 415.658 422.986C415.34 422.982 415.012 423.031 414.676 423.133C414.34 423.232 414.064 423.359 413.846 423.515L412.666 423.372L413.297 418.242H418.712V419.362H414.355L413.989 422.436H414.05C414.264 422.266 414.532 422.125 414.854 422.013C415.177 421.901 415.513 421.845 415.862 421.845C416.5 421.845 417.068 421.998 417.567 422.304C418.069 422.606 418.463 423.02 418.748 423.546C419.037 424.071 419.181 424.672 419.181 425.347C419.181 426.012 419.031 426.606 418.733 427.129C418.438 427.648 418.03 428.059 417.511 428.361C416.992 428.659 416.402 428.809 415.74 428.809ZM424.152 428.809C423.48 428.809 422.881 428.693 422.355 428.462C421.832 428.232 421.417 427.911 421.108 427.5C420.802 427.086 420.636 426.606 420.609 426.06H421.892C421.919 426.396 422.034 426.686 422.238 426.93C422.441 427.171 422.708 427.358 423.037 427.49C423.366 427.623 423.731 427.689 424.131 427.689C424.579 427.689 424.976 427.611 425.322 427.455C425.668 427.299 425.94 427.081 426.137 426.803C426.334 426.525 426.432 426.202 426.432 425.836C426.432 425.453 426.337 425.115 426.147 424.823C425.957 424.528 425.679 424.297 425.312 424.131C424.946 423.965 424.498 423.881 423.968 423.881H423.134V422.762H423.968C424.382 422.762 424.745 422.687 425.058 422.538C425.373 422.388 425.619 422.178 425.796 421.907C425.976 421.635 426.065 421.316 426.065 420.95C426.065 420.597 425.987 420.29 425.831 420.028C425.675 419.767 425.455 419.563 425.17 419.418C424.888 419.272 424.555 419.199 424.172 419.199C423.812 419.199 423.473 419.265 423.154 419.397C422.838 419.526 422.581 419.714 422.38 419.962C422.18 420.206 422.072 420.502 422.055 420.848H420.833C420.853 420.302 421.018 419.823 421.327 419.412C421.635 418.998 422.039 418.676 422.538 418.445C423.04 418.215 423.592 418.099 424.192 418.099C424.837 418.099 425.39 418.23 425.852 418.491C426.313 418.749 426.668 419.09 426.915 419.514C427.163 419.938 427.287 420.397 427.287 420.889C427.287 421.476 427.133 421.976 426.824 422.39C426.518 422.804 426.103 423.091 425.577 423.25V423.332C426.235 423.44 426.749 423.72 427.119 424.172C427.489 424.619 427.674 425.174 427.674 425.836C427.674 426.403 427.519 426.912 427.211 427.363C426.905 427.811 426.488 428.164 425.959 428.422C425.429 428.68 424.827 428.809 424.152 428.809ZM430.672 427.241L430.591 427.791C430.533 428.177 430.445 428.591 430.326 429.032C430.211 429.474 430.09 429.889 429.965 430.28C429.839 430.67 429.736 430.98 429.654 431.211H428.738C428.782 430.994 428.84 430.707 428.911 430.351C428.983 429.994 429.054 429.596 429.125 429.155C429.2 428.717 429.261 428.269 429.308 427.811L429.369 427.241H430.672ZM432.304 428.666V427.75L435.745 423.983C436.149 423.542 436.481 423.159 436.743 422.833C437.004 422.504 437.197 422.195 437.323 421.907C437.452 421.615 437.516 421.309 437.516 420.99C437.516 420.624 437.428 420.307 437.252 420.039C437.079 419.77 436.841 419.563 436.539 419.418C436.237 419.272 435.898 419.199 435.521 419.199C435.121 419.199 434.771 419.282 434.473 419.448C434.177 419.611 433.948 419.84 433.786 420.135C433.626 420.43 433.546 420.777 433.546 421.174H432.345C432.345 420.563 432.486 420.027 432.768 419.565C433.049 419.104 433.433 418.744 433.918 418.486C434.406 418.228 434.955 418.099 435.562 418.099C436.173 418.099 436.714 418.228 437.186 418.486C437.657 418.744 438.027 419.092 438.295 419.53C438.563 419.967 438.697 420.454 438.697 420.99C438.697 421.374 438.628 421.749 438.489 422.115C438.353 422.478 438.115 422.884 437.776 423.332C437.44 423.776 436.974 424.319 436.376 424.961L434.035 427.465V427.546H438.881V428.666H432.304ZM446.721 428.666L443.138 423.881H441.855V428.666H440.593V418.242H441.855V422.762H442.405L446.578 418.242H448.085L443.871 422.823L448.228 428.666H446.721Z" fill="black"/>
<rect x="405.713" y="573.258" width="133.63" height="48.5741" transform="rotate(-90 405.713 573.258)" fill="url(#paint3_linear_3044_2227)"/>
<path d="M405.713 439.629L454.287 439.629" stroke="#04B34A" stroke-width="3.18519"/>
<path opacity="0.6" d="M396.166 586.982V597.406H394.278V588.819H394.217L391.779 590.377V588.646L394.37 586.982H396.166ZM403.87 597.549C403.192 597.549 402.584 597.422 402.048 597.167C401.512 596.909 401.086 596.556 400.771 596.108C400.459 595.66 400.292 595.148 400.272 594.571H402.104C402.138 594.999 402.323 595.348 402.659 595.62C402.995 595.888 403.399 596.022 403.87 596.022C404.24 596.022 404.569 595.937 404.858 595.767C405.146 595.598 405.374 595.362 405.54 595.06C405.706 594.758 405.788 594.413 405.784 594.027C405.788 593.633 405.705 593.283 405.535 592.978C405.365 592.673 405.133 592.433 404.838 592.26C404.542 592.084 404.203 591.996 403.82 591.996C403.507 591.992 403.2 592.05 402.898 592.169C402.596 592.287 402.357 592.444 402.181 592.637L400.475 592.357L401.02 586.982H407.067V588.56H402.583L402.282 591.324H402.343C402.537 591.096 402.81 590.908 403.163 590.759C403.516 590.606 403.903 590.53 404.323 590.53C404.955 590.53 405.518 590.679 406.013 590.978C406.509 591.273 406.899 591.68 407.184 592.199C407.469 592.718 407.612 593.312 407.612 593.981C407.612 594.67 407.452 595.284 407.133 595.823C406.818 596.359 406.378 596.782 405.815 597.091C405.255 597.396 404.607 597.549 403.87 597.549ZM414.603 597.605C413.765 597.605 413.046 597.393 412.445 596.969C411.848 596.541 411.388 595.925 411.066 595.121C410.747 594.313 410.587 593.341 410.587 592.204C410.591 591.068 410.752 590.1 411.071 589.303C411.393 588.502 411.853 587.891 412.45 587.471C413.051 587.05 413.768 586.839 414.603 586.839C415.438 586.839 416.156 587.05 416.756 587.471C417.357 587.891 417.817 588.502 418.136 589.303C418.458 590.104 418.619 591.071 418.619 592.204C418.619 593.344 418.458 594.318 418.136 595.126C417.817 595.93 417.357 596.544 416.756 596.969C416.159 597.393 415.441 597.605 414.603 597.605ZM414.603 596.012C415.255 596.012 415.769 595.691 416.145 595.05C416.525 594.405 416.716 593.456 416.716 592.204C416.716 591.376 416.629 590.681 416.456 590.117C416.283 589.554 416.039 589.13 415.723 588.845C415.407 588.557 415.034 588.412 414.603 588.412C413.955 588.412 413.443 588.735 413.066 589.379C412.689 590.021 412.499 590.962 412.496 592.204C412.493 593.036 412.576 593.735 412.745 594.301C412.918 594.868 413.163 595.296 413.478 595.584C413.794 595.869 414.169 596.012 414.603 596.012ZM426.503 591.436V592.953H421.81V591.436H426.503ZM434.094 586.982V597.406H432.205V588.819H432.144L429.706 590.377V588.646L432.297 586.982H434.094ZM441.793 586.839C442.292 586.843 442.777 586.931 443.248 587.104C443.724 587.274 444.151 587.552 444.531 587.939C444.911 588.322 445.213 588.836 445.437 589.481C445.661 590.126 445.773 590.923 445.773 591.873C445.776 592.769 445.681 593.57 445.488 594.276C445.298 594.978 445.025 595.572 444.669 596.057C444.312 596.543 443.883 596.913 443.381 597.167C442.879 597.422 442.314 597.549 441.686 597.549C441.028 597.549 440.444 597.42 439.935 597.162C439.429 596.904 439.02 596.551 438.708 596.103C438.396 595.655 438.204 595.143 438.133 594.566H439.991C440.086 594.98 440.279 595.309 440.571 595.554C440.866 595.794 441.238 595.915 441.686 595.915C442.409 595.915 442.965 595.601 443.355 594.973C443.746 594.345 443.941 593.473 443.941 592.357H443.869C443.703 592.656 443.488 592.914 443.223 593.131C442.958 593.344 442.658 593.509 442.322 593.624C441.99 593.74 441.637 593.797 441.263 593.797C440.653 593.797 440.103 593.652 439.614 593.36C439.129 593.068 438.744 592.667 438.459 592.158C438.177 591.65 438.035 591.068 438.031 590.413C438.031 589.734 438.187 589.125 438.5 588.585C438.815 588.042 439.255 587.615 439.818 587.303C440.381 586.987 441.039 586.833 441.793 586.839ZM441.798 588.366C441.431 588.366 441.1 588.456 440.805 588.636C440.513 588.813 440.283 589.054 440.113 589.359C439.947 589.661 439.864 589.999 439.864 590.372C439.867 590.742 439.95 591.078 440.113 591.38C440.279 591.682 440.505 591.921 440.79 592.097C441.078 592.274 441.408 592.362 441.777 592.362C442.052 592.362 442.309 592.31 442.546 592.204C442.784 592.099 442.991 591.953 443.167 591.767C443.347 591.577 443.486 591.361 443.584 591.12C443.686 590.879 443.735 590.625 443.732 590.357C443.732 590 443.647 589.671 443.478 589.369C443.311 589.067 443.082 588.825 442.79 588.641C442.502 588.458 442.171 588.366 441.798 588.366ZM452.52 586.839C453.019 586.843 453.504 586.931 453.976 587.104C454.451 587.274 454.879 587.552 455.259 587.939C455.639 588.322 455.941 588.836 456.165 589.481C456.389 590.126 456.501 590.923 456.501 591.873C456.504 592.769 456.409 593.57 456.216 594.276C456.026 594.978 455.752 595.572 455.396 596.057C455.04 596.543 454.611 596.913 454.108 597.167C453.606 597.422 453.041 597.549 452.413 597.549C451.755 597.549 451.171 597.42 450.662 597.162C450.157 596.904 449.748 596.551 449.436 596.103C449.124 595.655 448.932 595.143 448.861 594.566H450.718C450.814 594.98 451.007 595.309 451.299 595.554C451.594 595.794 451.966 595.915 452.413 595.915C453.136 595.915 453.693 595.601 454.083 594.973C454.473 594.345 454.668 593.473 454.668 592.357H454.597C454.431 592.656 454.215 592.914 453.951 593.131C453.686 593.344 453.386 593.509 453.05 593.624C452.717 593.74 452.364 593.797 451.991 593.797C451.38 593.797 450.83 593.652 450.342 593.36C449.857 593.068 449.471 592.667 449.186 592.158C448.905 591.65 448.762 591.068 448.759 590.413C448.759 589.734 448.915 589.125 449.227 588.585C449.543 588.042 449.982 587.615 450.545 587.303C451.109 586.987 451.767 586.833 452.52 586.839ZM452.525 588.366C452.159 588.366 451.828 588.456 451.533 588.636C451.241 588.813 451.01 589.054 450.841 589.359C450.674 589.661 450.591 589.999 450.591 590.372C450.595 590.742 450.678 591.078 450.841 591.38C451.007 591.682 451.233 591.921 451.518 592.097C451.806 592.274 452.135 592.362 452.505 592.362C452.78 592.362 453.036 592.31 453.274 592.204C453.511 592.099 453.718 591.953 453.895 591.767C454.074 591.577 454.214 591.361 454.312 591.12C454.414 590.879 454.463 590.625 454.46 590.357C454.46 590 454.375 589.671 454.205 589.369C454.039 589.067 453.81 588.825 453.518 588.641C453.23 588.458 452.899 588.366 452.525 588.366ZM465.976 597.406L462.546 592.851H461.619V597.406H459.731V586.982H461.619V591.268H462.093L465.798 586.982H468.124L464.006 591.736L468.302 597.406H465.976Z" fill="black"/>
<path opacity="0.6" d="M540.642 402.531C540.214 402.524 539.786 402.443 539.359 402.287C538.931 402.131 538.541 401.868 538.188 401.498C537.835 401.125 537.552 400.621 537.338 399.986C537.124 399.348 537.018 398.547 537.018 397.584C537.018 396.661 537.104 395.843 537.277 395.13C537.45 394.414 537.701 393.812 538.03 393.323C538.36 392.831 538.757 392.458 539.221 392.204C539.69 391.949 540.217 391.822 540.804 391.822C541.388 391.822 541.907 391.939 542.362 392.173C542.82 392.404 543.193 392.726 543.482 393.14C543.77 393.554 543.957 394.031 544.042 394.57H542.8C542.684 394.102 542.46 393.714 542.128 393.405C541.795 393.096 541.354 392.942 540.804 392.942C539.997 392.942 539.361 393.293 538.896 393.995C538.434 394.698 538.202 395.683 538.198 396.953H538.28C538.47 396.664 538.696 396.418 538.957 396.215C539.221 396.008 539.513 395.848 539.832 395.736C540.151 395.624 540.489 395.568 540.845 395.568C541.442 395.568 541.989 395.717 542.484 396.016C542.98 396.311 543.377 396.72 543.675 397.243C543.974 397.762 544.123 398.357 544.123 399.029C544.123 399.674 543.979 400.264 543.69 400.801C543.402 401.333 542.997 401.758 542.474 402.073C541.955 402.385 541.344 402.538 540.642 402.531ZM540.642 401.411C541.069 401.411 541.453 401.305 541.792 401.091C542.135 400.877 542.404 400.59 542.601 400.231C542.801 399.871 542.902 399.47 542.902 399.029C542.902 398.598 542.805 398.206 542.611 397.854C542.421 397.497 542.158 397.214 541.822 397.003C541.49 396.793 541.11 396.688 540.682 396.688C540.36 396.688 540.06 396.752 539.781 396.881C539.503 397.007 539.259 397.18 539.048 397.401C538.841 397.621 538.679 397.874 538.56 398.159C538.441 398.441 538.382 398.737 538.382 399.05C538.382 399.464 538.478 399.85 538.672 400.21C538.869 400.57 539.137 400.86 539.476 401.081C539.819 401.301 540.207 401.411 540.642 401.411ZM548.952 402.531C548.185 402.531 547.531 402.323 546.992 401.905C546.452 401.484 546.04 400.875 545.755 400.078C545.47 399.277 545.327 398.31 545.327 397.177C545.327 396.05 545.47 395.088 545.755 394.291C546.043 393.49 546.457 392.879 546.997 392.458C547.54 392.034 548.191 391.822 548.952 391.822C549.712 391.822 550.361 392.034 550.901 392.458C551.444 392.879 551.858 393.49 552.143 394.291C552.431 395.088 552.576 396.05 552.576 397.177C552.576 398.31 552.433 399.277 552.148 400.078C551.863 400.875 551.451 401.484 550.911 401.905C550.372 402.323 549.718 402.531 548.952 402.531ZM548.952 401.411C549.712 401.411 550.302 401.045 550.723 400.312C551.144 399.579 551.354 398.534 551.354 397.177C551.354 396.274 551.257 395.505 551.064 394.871C550.874 394.236 550.599 393.753 550.239 393.42C549.883 393.088 549.454 392.921 548.952 392.921C548.198 392.921 547.609 393.293 547.185 394.036C546.761 394.776 546.549 395.823 546.549 397.177C546.549 398.079 546.644 398.846 546.834 399.477C547.024 400.108 547.297 400.589 547.654 400.918C548.013 401.247 548.446 401.411 548.952 401.411ZM555.385 400.963L555.303 401.513C555.245 401.9 555.157 402.314 555.038 402.755C554.923 403.196 554.803 403.612 554.677 404.002C554.551 404.392 554.448 404.703 554.367 404.934H553.45C553.494 404.716 553.552 404.43 553.623 404.073C553.695 403.717 553.766 403.318 553.837 402.877C553.912 402.44 553.973 401.992 554.02 401.534L554.081 400.963H555.385ZM560.033 402.531C559.334 402.531 558.717 402.407 558.181 402.16C557.648 401.909 557.232 401.564 556.934 401.126C556.635 400.685 556.487 400.183 556.491 399.62C556.487 399.179 556.574 398.771 556.75 398.398C556.927 398.021 557.168 397.708 557.473 397.456C557.782 397.202 558.126 397.041 558.506 396.973V396.912C558.008 396.783 557.611 396.503 557.315 396.072C557.02 395.638 556.874 395.144 556.878 394.591C556.874 394.061 557.008 393.588 557.28 393.171C557.551 392.753 557.925 392.424 558.4 392.183C558.878 391.942 559.423 391.822 560.033 391.822C560.637 391.822 561.177 391.942 561.652 392.183C562.127 392.424 562.5 392.753 562.772 393.171C563.047 393.588 563.186 394.061 563.189 394.591C563.186 395.144 563.035 395.638 562.736 396.072C562.441 396.503 562.049 396.783 561.56 396.912V396.973C561.937 397.041 562.276 397.202 562.578 397.456C562.88 397.708 563.121 398.021 563.301 398.398C563.481 398.771 563.573 399.179 563.576 399.62C563.573 400.183 563.42 400.685 563.118 401.126C562.819 401.564 562.404 401.909 561.871 402.16C561.342 402.407 560.729 402.531 560.033 402.531ZM560.033 401.411C560.505 401.411 560.912 401.335 561.255 401.182C561.598 401.03 561.862 400.814 562.049 400.536C562.236 400.258 562.331 399.932 562.334 399.559C562.331 399.165 562.229 398.817 562.029 398.515C561.829 398.213 561.555 397.976 561.209 397.803C560.867 397.63 560.475 397.543 560.033 397.543C559.589 397.543 559.192 397.63 558.842 397.803C558.496 397.976 558.223 398.213 558.023 398.515C557.826 398.817 557.729 399.165 557.733 399.559C557.729 399.932 557.819 400.258 558.003 400.536C558.189 400.814 558.456 401.03 558.802 401.182C559.148 401.335 559.558 401.411 560.033 401.411ZM560.033 396.464C560.407 396.464 560.738 396.389 561.026 396.24C561.318 396.091 561.547 395.882 561.713 395.614C561.879 395.346 561.964 395.032 561.968 394.672C561.964 394.319 561.881 394.012 561.718 393.751C561.555 393.486 561.33 393.283 561.041 393.14C560.753 392.994 560.417 392.921 560.033 392.921C559.643 392.921 559.302 392.994 559.01 393.14C558.719 393.283 558.493 393.486 558.333 393.751C558.174 394.012 558.096 394.319 558.099 394.672C558.096 395.032 558.176 395.346 558.339 395.614C558.505 395.882 558.734 396.091 559.026 396.24C559.317 396.389 559.653 396.464 560.033 396.464ZM571.265 402.389L567.682 397.604H566.399V402.389H565.137V391.964H566.399V396.484H566.949L571.123 391.964H572.629L568.415 396.545L572.772 402.389H571.265Z" fill="black"/>
<rect x="530.334" y="573.26" width="159.907" height="48.5741" transform="rotate(-90 530.334 573.26)" fill="url(#paint4_linear_3044_2227)"/>
<path d="M530.334 413.354L578.908 413.354" stroke="#04B34A" stroke-width="3.18519"/>
<path opacity="0.6" d="M514.547 597.406V596.042L518.166 592.494C518.513 592.145 518.801 591.834 519.032 591.563C519.262 591.292 519.436 591.029 519.551 590.774C519.666 590.52 519.724 590.248 519.724 589.96C519.724 589.63 519.649 589.349 519.5 589.115C519.351 588.877 519.145 588.694 518.884 588.565C518.623 588.436 518.326 588.372 517.993 588.372C517.651 588.372 517.35 588.443 517.092 588.585C516.835 588.724 516.634 588.923 516.492 589.181C516.353 589.439 516.283 589.746 516.283 590.102H514.486C514.486 589.44 514.637 588.865 514.939 588.377C515.241 587.888 515.657 587.51 516.186 587.242C516.719 586.974 517.33 586.839 518.019 586.839C518.718 586.839 519.332 586.97 519.861 587.231C520.391 587.493 520.801 587.851 521.093 588.305C521.388 588.76 521.536 589.279 521.536 589.863C521.536 590.253 521.461 590.637 521.312 591.013C521.163 591.39 520.9 591.807 520.523 592.265C520.15 592.723 519.626 593.278 518.95 593.93L517.154 595.757V595.828H521.694V597.406H514.547ZM528.736 597.605C527.898 597.605 527.179 597.393 526.578 596.969C525.981 596.541 525.521 595.925 525.199 595.121C524.88 594.313 524.72 593.341 524.72 592.204C524.724 591.068 524.885 590.1 525.204 589.303C525.526 588.502 525.986 587.891 526.583 587.471C527.184 587.05 527.901 586.839 528.736 586.839C529.571 586.839 530.289 587.05 530.889 587.471C531.49 587.891 531.95 588.502 532.269 589.303C532.591 590.104 532.752 591.071 532.752 592.204C532.752 593.344 532.591 594.318 532.269 595.126C531.95 595.93 531.49 596.544 530.889 596.969C530.292 597.393 529.574 597.605 528.736 597.605ZM528.736 596.012C529.388 596.012 529.902 595.691 530.279 595.05C530.659 594.405 530.849 593.456 530.849 592.204C530.849 591.376 530.762 590.681 530.589 590.117C530.416 589.554 530.172 589.13 529.856 588.845C529.54 588.557 529.167 588.412 528.736 588.412C528.088 588.412 527.576 588.735 527.199 589.379C526.822 590.021 526.632 590.962 526.629 592.204C526.626 593.036 526.709 593.735 526.878 594.301C527.051 594.868 527.296 595.296 527.611 595.584C527.927 595.869 528.302 596.012 528.736 596.012ZM539.73 597.605C538.892 597.605 538.172 597.393 537.572 596.969C536.974 596.541 536.515 595.925 536.192 595.121C535.873 594.313 535.714 593.341 535.714 592.204C535.717 591.068 535.878 590.1 536.197 589.303C536.52 588.502 536.98 587.891 537.577 587.471C538.177 587.05 538.895 586.839 539.73 586.839C540.565 586.839 541.282 587.05 541.883 587.471C542.483 587.891 542.943 588.502 543.262 589.303C543.585 590.104 543.746 591.071 543.746 592.204C543.746 593.344 543.585 594.318 543.262 595.126C542.943 595.93 542.483 596.544 541.883 596.969C541.286 597.393 540.568 597.605 539.73 597.605ZM539.73 596.012C540.381 596.012 540.895 595.691 541.272 595.05C541.652 594.405 541.842 593.456 541.842 592.204C541.842 591.376 541.756 590.681 541.583 590.117C541.409 589.554 541.165 589.13 540.85 588.845C540.534 588.557 540.161 588.412 539.73 588.412C539.082 588.412 538.569 588.735 538.193 589.379C537.816 590.021 537.626 590.962 537.623 592.204C537.619 593.036 537.702 593.735 537.872 594.301C538.045 594.868 538.289 595.296 538.605 595.584C538.92 595.869 539.295 596.012 539.73 596.012ZM551.629 591.436V592.953H546.936V591.436H551.629ZM554.616 597.406V596.042L558.235 592.494C558.581 592.145 558.87 591.834 559.101 591.563C559.331 591.292 559.504 591.029 559.62 590.774C559.735 590.52 559.793 590.248 559.793 589.96C559.793 589.63 559.718 589.349 559.569 589.115C559.42 588.877 559.214 588.694 558.953 588.565C558.692 588.436 558.395 588.372 558.062 588.372C557.72 588.372 557.419 588.443 557.161 588.585C556.903 588.724 556.703 588.923 556.561 589.181C556.422 589.439 556.352 589.746 556.352 590.102H554.555C554.555 589.44 554.706 588.865 555.008 588.377C555.31 587.888 555.726 587.51 556.255 587.242C556.788 586.974 557.399 586.839 558.088 586.839C558.787 586.839 559.401 586.97 559.93 587.231C560.46 587.493 560.87 587.851 561.162 588.305C561.457 588.76 561.605 589.279 561.605 589.863C561.605 590.253 561.53 590.637 561.381 591.013C561.232 591.39 560.969 591.807 560.592 592.265C560.219 592.723 559.694 593.278 559.019 593.93L557.222 595.757V595.828H561.763V597.406H554.616ZM564.54 595.472V593.971L568.963 586.982H570.215V589.12H569.452L566.474 593.838V593.92H572.648V595.472H564.54ZM569.513 597.406V595.014L569.533 594.342V586.982H571.315V597.406H569.513ZM579.327 586.839C579.825 586.843 580.311 586.931 580.782 587.104C581.257 587.274 581.685 587.552 582.065 587.939C582.445 588.322 582.747 588.836 582.971 589.481C583.195 590.126 583.307 590.923 583.307 591.873C583.31 592.769 583.215 593.57 583.022 594.276C582.832 594.978 582.559 595.572 582.202 596.057C581.846 596.543 581.417 596.913 580.915 597.167C580.413 597.422 579.848 597.549 579.22 597.549C578.561 597.549 577.978 597.42 577.469 597.162C576.963 596.904 576.554 596.551 576.242 596.103C575.93 595.655 575.738 595.143 575.667 594.566H577.525C577.62 594.98 577.813 595.309 578.105 595.554C578.4 595.794 578.772 595.915 579.22 595.915C579.943 595.915 580.499 595.601 580.889 594.973C581.279 594.345 581.475 593.473 581.475 592.357H581.403C581.237 592.656 581.022 592.914 580.757 593.131C580.492 593.344 580.192 593.509 579.856 593.624C579.523 593.74 579.171 593.797 578.797 593.797C578.186 593.797 577.637 593.652 577.148 593.36C576.663 593.068 576.278 592.667 575.993 592.158C575.711 591.65 575.569 591.068 575.565 590.413C575.565 589.734 575.721 589.125 576.033 588.585C576.349 588.042 576.788 587.615 577.352 587.303C577.915 586.987 578.573 586.833 579.327 586.839ZM579.332 588.366C578.965 588.366 578.634 588.456 578.339 588.636C578.047 588.813 577.817 589.054 577.647 589.359C577.481 589.661 577.398 589.999 577.398 590.372C577.401 590.742 577.484 591.078 577.647 591.38C577.813 591.682 578.039 591.921 578.324 592.097C578.612 592.274 578.942 592.362 579.311 592.362C579.586 592.362 579.842 592.31 580.08 592.204C580.317 592.099 580.524 591.953 580.701 591.767C580.881 591.577 581.02 591.361 581.118 591.12C581.22 590.879 581.269 590.625 581.266 590.357C581.266 590 581.181 589.671 581.011 589.369C580.845 589.067 580.616 588.825 580.324 588.641C580.036 588.458 579.705 588.366 579.332 588.366ZM592.782 597.406L589.352 592.851H588.425V597.406H586.537V586.982H588.425V591.268H588.899L592.604 586.982H594.93L590.813 591.736L595.109 597.406H592.782Z" fill="black"/>
<path opacity="0.6" d="M662.58 368.148L667.243 358.925V358.844H661.868V357.724H668.546V358.905L663.904 368.148H662.58ZM673.046 368.291C672.279 368.291 671.626 368.082 671.086 367.665C670.547 367.244 670.134 366.635 669.849 365.838C669.564 365.037 669.422 364.07 669.422 362.936C669.422 361.81 669.564 360.848 669.849 360.05C670.138 359.249 670.552 358.639 671.091 358.218C671.634 357.794 672.286 357.582 673.046 357.582C673.806 357.582 674.456 357.794 674.995 358.218C675.538 358.639 675.952 359.249 676.237 360.05C676.526 360.848 676.67 361.81 676.67 362.936C676.67 364.07 676.527 365.037 676.242 365.838C675.957 366.635 675.545 367.244 675.005 367.665C674.466 368.082 673.813 368.291 673.046 368.291ZM673.046 367.171C673.806 367.171 674.396 366.805 674.817 366.072C675.238 365.339 675.448 364.294 675.448 362.936C675.448 362.034 675.352 361.265 675.158 360.631C674.968 359.996 674.693 359.512 674.334 359.18C673.977 358.847 673.548 358.681 673.046 358.681C672.292 358.681 671.704 359.053 671.28 359.796C670.855 360.536 670.643 361.582 670.643 362.936C670.643 363.839 670.738 364.606 670.928 365.237C671.118 365.868 671.392 366.348 671.748 366.677C672.108 367.007 672.54 367.171 673.046 367.171ZM679.479 366.723L679.397 367.273C679.34 367.66 679.251 368.074 679.133 368.515C679.017 368.956 678.897 369.372 678.771 369.762C678.646 370.152 678.542 370.463 678.461 370.693H677.545C677.589 370.476 677.646 370.19 677.718 369.833C677.789 369.477 677.86 369.078 677.931 368.637C678.006 368.199 678.067 367.751 678.115 367.293L678.176 366.723H679.479ZM684.208 368.291C683.78 368.284 683.353 368.203 682.925 368.047C682.498 367.891 682.107 367.628 681.755 367.258C681.402 366.884 681.118 366.381 680.905 365.746C680.691 365.108 680.584 364.307 680.584 363.344C680.584 362.421 680.67 361.603 680.843 360.89C681.016 360.174 681.268 359.572 681.597 359.083C681.926 358.591 682.323 358.218 682.788 357.963C683.256 357.709 683.784 357.582 684.371 357.582C684.954 357.582 685.474 357.699 685.928 357.933C686.386 358.164 686.76 358.486 687.048 358.9C687.337 359.314 687.523 359.791 687.608 360.33H686.366C686.251 359.862 686.027 359.473 685.694 359.165C685.362 358.856 684.92 358.701 684.371 358.701C683.563 358.701 682.927 359.053 682.462 359.755C682.001 360.458 681.768 361.443 681.765 362.712H681.846C682.036 362.424 682.262 362.178 682.523 361.974C682.788 361.767 683.08 361.608 683.399 361.496C683.718 361.384 684.055 361.328 684.411 361.328C685.009 361.328 685.555 361.477 686.05 361.776C686.546 362.071 686.943 362.48 687.242 363.002C687.54 363.522 687.689 364.117 687.689 364.789C687.689 365.434 687.545 366.024 687.257 366.56C686.968 367.093 686.563 367.517 686.04 367.833C685.521 368.145 684.91 368.298 684.208 368.291ZM684.208 367.171C684.635 367.171 685.019 367.064 685.358 366.85C685.701 366.637 685.971 366.35 686.168 365.99C686.368 365.631 686.468 365.23 686.468 364.789C686.468 364.358 686.371 363.966 686.178 363.613C685.988 363.257 685.725 362.974 685.389 362.763C685.056 362.553 684.676 362.448 684.249 362.448C683.926 362.448 683.626 362.512 683.348 362.641C683.069 362.767 682.825 362.94 682.615 363.16C682.408 363.381 682.245 363.634 682.126 363.919C682.007 364.2 681.948 364.497 681.948 364.809C681.948 365.223 682.045 365.61 682.238 365.97C682.435 366.33 682.703 366.62 683.042 366.84C683.385 367.061 683.774 367.171 684.208 367.171ZM695.429 368.148L691.846 363.364H690.563V368.148H689.301V357.724H690.563V362.244H691.113L695.287 357.724H696.793L692.579 362.305L696.936 368.148H695.429Z" fill="black"/>
<rect x="654.953" y="573.26" width="194.148" height="48.5741" transform="rotate(-90 654.953 573.26)" fill="url(#paint5_linear_3044_2227)"/>
<path d="M654.953 379.111L703.527 379.111" stroke="#04B34A" stroke-width="3.18519"/>
<path opacity="0.6" d="M638.667 597.408V596.044L642.286 592.496C642.632 592.147 642.92 591.836 643.151 591.565C643.382 591.293 643.555 591.03 643.67 590.776C643.785 590.521 643.843 590.25 643.843 589.962C643.843 589.632 643.768 589.351 643.619 589.117C643.47 588.879 643.265 588.696 643.003 588.567C642.742 588.438 642.445 588.374 642.113 588.374C641.77 588.374 641.469 588.445 641.212 588.587C640.954 588.726 640.753 588.925 640.611 589.183C640.472 589.441 640.402 589.748 640.402 590.104H638.606C638.606 589.442 638.757 588.867 639.059 588.379C639.361 587.89 639.776 587.512 640.306 587.244C640.838 586.975 641.449 586.841 642.138 586.841C642.837 586.841 643.451 586.972 643.981 587.233C644.51 587.495 644.92 587.853 645.212 588.307C645.508 588.762 645.655 589.281 645.655 589.865C645.655 590.255 645.58 590.639 645.431 591.015C645.282 591.392 645.019 591.809 644.642 592.267C644.269 592.725 643.745 593.28 643.069 593.932L641.273 595.759V595.83H645.813V597.408H638.667ZM652.626 597.551C651.948 597.551 651.34 597.423 650.804 597.169C650.268 596.911 649.842 596.558 649.527 596.11C649.214 595.662 649.048 595.15 649.028 594.573H650.86C650.894 595.001 651.079 595.35 651.415 595.622C651.751 595.89 652.155 596.024 652.626 596.024C652.996 596.024 653.325 595.939 653.614 595.769C653.902 595.6 654.13 595.364 654.296 595.062C654.462 594.76 654.544 594.415 654.54 594.028C654.544 593.635 654.46 593.285 654.291 592.98C654.121 592.675 653.889 592.435 653.593 592.262C653.298 592.086 652.959 591.998 652.575 591.998C652.263 591.994 651.956 592.052 651.654 592.171C651.352 592.289 651.113 592.445 650.936 592.639L649.231 592.359L649.776 586.984H655.823V588.562H651.339L651.038 591.326H651.099C651.293 591.098 651.566 590.91 651.919 590.761C652.272 590.608 652.659 590.532 653.079 590.532C653.71 590.532 654.274 590.681 654.769 590.98C655.265 591.275 655.655 591.682 655.94 592.201C656.225 592.72 656.367 593.314 656.367 593.983C656.367 594.672 656.208 595.286 655.889 595.825C655.573 596.361 655.134 596.784 654.571 597.093C654.011 597.398 653.363 597.551 652.626 597.551ZM663.359 597.607C662.521 597.607 661.802 597.395 661.201 596.97C660.604 596.543 660.144 595.927 659.822 595.123C659.503 594.315 659.343 593.343 659.343 592.206C659.346 591.07 659.508 590.102 659.827 589.305C660.149 588.504 660.609 587.893 661.206 587.473C661.807 587.052 662.524 586.841 663.359 586.841C664.194 586.841 664.911 587.052 665.512 587.473C666.113 587.893 666.572 588.504 666.891 589.305C667.214 590.106 667.375 591.073 667.375 592.206C667.375 593.346 667.214 594.32 666.891 595.128C666.572 595.932 666.113 596.546 665.512 596.97C664.915 597.395 664.197 597.607 663.359 597.607ZM663.359 596.014C664.011 596.014 664.525 595.693 664.901 595.052C665.281 594.407 665.471 593.458 665.471 592.206C665.471 591.378 665.385 590.683 665.212 590.119C665.039 589.556 664.794 589.132 664.479 588.847C664.163 588.558 663.79 588.414 663.359 588.414C662.711 588.414 662.199 588.737 661.822 589.381C661.445 590.023 661.255 590.964 661.252 592.206C661.248 593.038 661.332 593.737 661.501 594.303C661.674 594.87 661.919 595.298 662.234 595.586C662.55 595.871 662.925 596.014 663.359 596.014ZM675.259 591.438V592.954H670.566V591.438H675.259ZM682.234 597.551C681.555 597.551 680.948 597.423 680.411 597.169C679.875 596.911 679.449 596.558 679.134 596.11C678.822 595.662 678.655 595.15 678.635 594.573H680.467C680.501 595.001 680.686 595.35 681.022 595.622C681.358 595.89 681.762 596.024 682.234 596.024C682.603 596.024 682.933 595.939 683.221 595.769C683.51 595.6 683.737 595.364 683.903 595.062C684.069 594.76 684.151 594.415 684.147 594.028C684.151 593.635 684.068 593.285 683.898 592.98C683.728 592.675 683.496 592.435 683.201 592.262C682.906 592.086 682.566 591.998 682.183 591.998C681.871 591.994 681.563 592.052 681.261 592.171C680.959 592.289 680.72 592.445 680.544 592.639L678.839 592.359L679.383 586.984H685.43V588.562H680.946L680.646 591.326H680.707C680.9 591.098 681.173 590.91 681.526 590.761C681.879 590.608 682.266 590.532 682.687 590.532C683.318 590.532 683.881 590.681 684.377 590.98C684.872 591.275 685.262 591.682 685.547 592.201C685.832 592.72 685.975 593.314 685.975 593.983C685.975 594.672 685.815 595.286 685.496 595.825C685.181 596.361 684.741 596.784 684.178 597.093C683.618 597.398 682.97 597.551 682.234 597.551ZM692.966 597.607C692.128 597.607 691.409 597.395 690.808 596.97C690.211 596.543 689.751 595.927 689.429 595.123C689.11 594.315 688.95 593.343 688.95 592.206C688.954 591.07 689.115 590.102 689.434 589.305C689.756 588.504 690.216 587.893 690.813 587.473C691.414 587.052 692.132 586.841 692.966 586.841C693.801 586.841 694.519 587.052 695.119 587.473C695.72 587.893 696.18 588.504 696.499 589.305C696.821 590.106 696.982 591.073 696.982 592.206C696.982 593.346 696.821 594.32 696.499 595.128C696.18 595.932 695.72 596.546 695.119 596.97C694.522 597.395 693.804 597.607 692.966 597.607ZM692.966 596.014C693.618 596.014 694.132 595.693 694.509 595.052C694.889 594.407 695.079 593.458 695.079 592.206C695.079 591.378 694.992 590.683 694.819 590.119C694.646 589.556 694.402 589.132 694.086 588.847C693.771 588.558 693.397 588.414 692.966 588.414C692.318 588.414 691.806 588.737 691.429 589.381C691.052 590.023 690.862 590.964 690.859 592.206C690.856 593.038 690.939 593.737 691.108 594.303C691.282 594.87 691.526 595.298 691.841 595.586C692.157 595.871 692.532 596.014 692.966 596.014ZM703.96 597.607C703.122 597.607 702.402 597.395 701.802 596.97C701.205 596.543 700.745 595.927 700.422 595.123C700.103 594.315 699.944 593.343 699.944 592.206C699.947 591.07 700.108 590.102 700.427 589.305C700.75 588.504 701.21 587.893 701.807 587.473C702.407 587.052 703.125 586.841 703.96 586.841C704.795 586.841 705.512 587.052 706.113 587.473C706.714 587.893 707.173 588.504 707.492 589.305C707.815 590.106 707.976 591.073 707.976 592.206C707.976 593.346 707.815 594.32 707.492 595.128C707.173 595.932 706.714 596.546 706.113 596.97C705.516 597.395 704.798 597.607 703.96 597.607ZM703.96 596.014C704.611 596.014 705.125 595.693 705.502 595.052C705.882 594.407 706.072 593.458 706.072 592.206C706.072 591.378 705.986 590.683 705.813 590.119C705.64 589.556 705.395 589.132 705.08 588.847C704.764 588.558 704.391 588.414 703.96 588.414C703.312 588.414 702.799 588.737 702.423 589.381C702.046 590.023 701.856 590.964 701.853 592.206C701.849 593.038 701.932 593.737 702.102 594.303C702.275 594.87 702.519 595.298 702.835 595.586C703.151 595.871 703.526 596.014 703.96 596.014ZM717.448 597.408L714.017 592.853H713.091V597.408H711.202V586.984H713.091V591.27H713.564L717.269 586.984H719.595L715.478 591.738L719.774 597.408H717.448Z" fill="black"/>
<path opacity="0.6" d="M788.314 125.205V135.629H787.052V126.528H786.991L784.446 128.218V126.935L787.052 125.205H788.314ZM794.261 135.771C793.59 135.771 792.991 135.656 792.465 135.425C791.942 135.195 791.526 134.874 791.218 134.463C790.912 134.049 790.746 133.569 790.719 133.023H792.001C792.029 133.359 792.144 133.649 792.348 133.893C792.551 134.134 792.818 134.321 793.147 134.453C793.476 134.585 793.841 134.652 794.241 134.652C794.689 134.652 795.086 134.574 795.432 134.417C795.778 134.261 796.05 134.044 796.246 133.766C796.443 133.488 796.542 133.165 796.542 132.799C796.542 132.415 796.447 132.078 796.257 131.786C796.067 131.491 795.788 131.26 795.422 131.094C795.055 130.927 794.608 130.844 794.078 130.844H793.243V129.725H794.078C794.492 129.725 794.855 129.65 795.167 129.501C795.483 129.351 795.729 129.141 795.905 128.869C796.085 128.598 796.175 128.279 796.175 127.913C796.175 127.56 796.097 127.253 795.941 126.991C795.785 126.73 795.564 126.526 795.279 126.38C794.998 126.235 794.665 126.162 794.282 126.162C793.922 126.162 793.583 126.228 793.264 126.36C792.948 126.489 792.69 126.677 792.49 126.925C792.29 127.169 792.181 127.465 792.164 127.811H790.943C790.963 127.264 791.128 126.786 791.436 126.375C791.745 125.961 792.149 125.639 792.648 125.408C793.15 125.178 793.701 125.062 794.302 125.062C794.947 125.062 795.5 125.193 795.961 125.454C796.423 125.712 796.778 126.053 797.025 126.477C797.273 126.901 797.397 127.359 797.397 127.851C797.397 128.438 797.242 128.939 796.934 129.353C796.628 129.767 796.213 130.054 795.687 130.213V130.295C796.345 130.403 796.859 130.683 797.229 131.134C797.599 131.582 797.784 132.137 797.784 132.799C797.784 133.366 797.629 133.875 797.32 134.326C797.015 134.774 796.598 135.127 796.068 135.385C795.539 135.642 794.937 135.771 794.261 135.771ZM799.618 135.629L804.28 126.406V126.324H798.905V125.205H805.583V126.386L800.941 135.629H799.618ZM806.928 134.204L806.846 134.753C806.788 135.14 806.7 135.554 806.581 135.995C806.466 136.437 806.346 136.852 806.22 137.242C806.095 137.633 805.991 137.943 805.91 138.174H804.993C805.038 137.957 805.095 137.67 805.166 137.314C805.238 136.957 805.309 136.559 805.38 136.118C805.455 135.68 805.516 135.232 805.563 134.774L805.625 134.204H806.928ZM808.675 135.629L813.338 126.406V126.324H807.963V125.205H814.641V126.386L809.999 135.629H808.675ZM822.276 135.629L818.693 130.844H817.41V135.629H816.148V125.205H817.41V129.725H817.96L822.134 125.205H823.64L819.426 129.786L823.783 135.629H822.276Z" fill="black"/>
<rect x="779.574" y="573.258" width="426.667" height="48.5741" transform="rotate(-90 779.574 573.258)" fill="url(#paint6_linear_3044_2227)"/>
<path d="M779.574 146.592L828.148 146.592" stroke="#04B34A" stroke-width="3.18519"/>
<path opacity="0.6" d="M781.912 597.549C781.233 597.549 780.626 597.422 780.09 597.167C779.553 596.909 779.128 596.556 778.812 596.108C778.5 595.66 778.334 595.148 778.313 594.571H780.146C780.179 594.999 780.364 595.348 780.7 595.62C781.036 595.888 781.44 596.022 781.912 596.022C782.282 596.022 782.611 595.937 782.899 595.767C783.188 595.598 783.415 595.362 783.581 595.06C783.748 594.758 783.829 594.413 783.826 594.027C783.829 593.633 783.746 593.283 783.576 592.978C783.407 592.673 783.174 592.433 782.879 592.26C782.584 592.084 782.244 591.996 781.861 591.996C781.549 591.992 781.242 592.05 780.94 592.169C780.638 592.287 780.398 592.444 780.222 592.637L778.517 592.357L779.061 586.982H785.108V588.56H780.624L780.324 591.324H780.385C780.578 591.096 780.851 590.908 781.204 590.759C781.557 590.606 781.944 590.53 782.365 590.53C782.996 590.53 783.559 590.679 784.055 590.978C784.55 591.273 784.94 591.68 785.225 592.199C785.51 592.718 785.653 593.312 785.653 593.981C785.653 594.67 785.493 595.284 785.174 595.823C784.859 596.359 784.419 596.782 783.856 597.091C783.296 597.396 782.648 597.549 781.912 597.549ZM792.644 597.605C791.806 597.605 791.087 597.393 790.486 596.969C789.889 596.541 789.429 595.925 789.107 595.121C788.788 594.313 788.628 593.341 788.628 592.204C788.632 591.068 788.793 590.1 789.112 589.303C789.434 588.502 789.894 587.891 790.491 587.471C791.092 587.05 791.81 586.839 792.644 586.839C793.479 586.839 794.197 587.05 794.798 587.471C795.398 587.891 795.858 588.502 796.177 589.303C796.499 590.104 796.66 591.071 796.66 592.204C796.66 593.344 796.499 594.318 796.177 595.126C795.858 595.93 795.398 596.544 794.798 596.969C794.2 597.393 793.483 597.605 792.644 597.605ZM792.644 596.012C793.296 596.012 793.81 595.691 794.187 595.05C794.567 594.405 794.757 593.456 794.757 592.204C794.757 591.376 794.67 590.681 794.497 590.117C794.324 589.554 794.08 589.13 793.764 588.845C793.449 588.557 793.075 588.412 792.644 588.412C791.996 588.412 791.484 588.735 791.107 589.379C790.731 590.021 790.541 590.962 790.537 592.204C790.534 593.036 790.617 593.735 790.787 594.301C790.96 594.868 791.204 595.296 791.52 595.584C791.835 595.869 792.21 596.012 792.644 596.012ZM803.638 597.605C802.8 597.605 802.08 597.393 801.48 596.969C800.883 596.541 800.423 595.925 800.1 595.121C799.782 594.313 799.622 593.341 799.622 592.204C799.625 591.068 799.787 590.1 800.106 589.303C800.428 588.502 800.888 587.891 801.485 587.471C802.086 587.05 802.803 586.839 803.638 586.839C804.473 586.839 805.19 587.05 805.791 587.471C806.392 587.891 806.851 588.502 807.17 589.303C807.493 590.104 807.654 591.071 807.654 592.204C807.654 593.344 807.493 594.318 807.17 595.126C806.851 595.93 806.392 596.544 805.791 596.969C805.194 597.393 804.476 597.605 803.638 597.605ZM803.638 596.012C804.29 596.012 804.804 595.691 805.18 595.05C805.56 594.405 805.75 593.456 805.75 592.204C805.75 591.376 805.664 590.681 805.491 590.117C805.318 589.554 805.073 589.13 804.758 588.845C804.442 588.557 804.069 588.412 803.638 588.412C802.99 588.412 802.477 588.735 802.101 589.379C801.724 590.021 801.534 590.962 801.531 592.204C801.527 593.036 801.611 593.735 801.78 594.301C801.953 594.868 802.198 595.296 802.513 595.584C802.829 595.869 803.204 596.012 803.638 596.012ZM817.126 597.406L813.695 592.851H812.769V597.406H810.88V586.982H812.769V591.268H813.242L816.947 586.982H819.274L815.156 591.736L819.452 597.406H817.126ZM824.223 595.737V588.692H825.821V595.737H824.223ZM821.5 593.014V591.415H828.544V593.014H821.5Z" fill="black"/>
<defs>
<linearGradient id="paint0_linear_3044_2227" x1="260.197" y1="596.545" x2="31.8516" y2="596.545" gradientUnits="userSpaceOnUse">
<stop stop-color="#04B34A"/>
<stop offset="0.0001" stop-color="#04B34A" stop-opacity="0.991615"/>
<stop offset="0.119507" stop-color="#04B34A" stop-opacity="0.967585"/>
<stop offset="0.235693" stop-color="#04B34A" stop-opacity="0.9296"/>
<stop offset="0.322832" stop-color="#04B34A" stop-opacity="0.879348"/>
<stop offset="0.379604" stop-color="#04B34A" stop-opacity="0.818519"/>
<stop offset="0.4456" stop-color="#04B34A" stop-opacity="0.7488"/>
<stop offset="0.48243" stop-color="#04B34A" stop-opacity="0.671881"/>
<stop offset="0.51757" stop-color="#04B34A" stop-opacity="0.589452"/>
<stop offset="0.5544" stop-color="#04B34A" stop-opacity="0.5032"/>
<stop offset="0.596296" stop-color="#04B34A" stop-opacity="0.414815"/>
<stop offset="0.646637" stop-color="#04B34A" stop-opacity="0.325985"/>
<stop offset="0.7088" stop-color="#04B34A" stop-opacity="0.2384"/>
<stop offset="0.786163" stop-color="#04B34A" stop-opacity="0.153748"/>
<stop offset="0.882104" stop-color="#04B34A" stop-opacity="0.0737185"/>
<stop offset="1" stop-color="#04B34A" stop-opacity="0"/>
</linearGradient>
<linearGradient id="paint1_linear_3044_2227" x1="415.15" y1="596.547" x2="156.473" y2="596.547" gradientUnits="userSpaceOnUse">
<stop stop-color="#04B34A"/>
<stop offset="0.0001" stop-color="#04B34A" stop-opacity="0.991615"/>
<stop offset="0.119507" stop-color="#04B34A" stop-opacity="0.967585"/>
<stop offset="0.235693" stop-color="#04B34A" stop-opacity="0.9296"/>
<stop offset="0.322832" stop-color="#04B34A" stop-opacity="0.879348"/>
<stop offset="0.379604" stop-color="#04B34A" stop-opacity="0.818519"/>
<stop offset="0.4456" stop-color="#04B34A" stop-opacity="0.7488"/>
<stop offset="0.48243" stop-color="#04B34A" stop-opacity="0.671881"/>
<stop offset="0.51757" stop-color="#04B34A" stop-opacity="0.589452"/>
<stop offset="0.5544" stop-color="#04B34A" stop-opacity="0.5032"/>
<stop offset="0.596296" stop-color="#04B34A" stop-opacity="0.414815"/>
<stop offset="0.646637" stop-color="#04B34A" stop-opacity="0.325985"/>
<stop offset="0.7088" stop-color="#04B34A" stop-opacity="0.2384"/>
<stop offset="0.786163" stop-color="#04B34A" stop-opacity="0.153748"/>
<stop offset="0.882104" stop-color="#04B34A" stop-opacity="0.0737185"/>
<stop offset="1" stop-color="#04B34A" stop-opacity="0"/>
</linearGradient>
<linearGradient id="paint2_linear_3044_2227" x1="647.93" y1="596.547" x2="281.092" y2="596.547" gradientUnits="userSpaceOnUse">
<stop stop-color="#04B34A"/>
<stop offset="0.0001" stop-color="#04B34A" stop-opacity="0.991615"/>
<stop offset="0.119507" stop-color="#04B34A" stop-opacity="0.967585"/>
<stop offset="0.235693" stop-color="#04B34A" stop-opacity="0.9296"/>
<stop offset="0.322832" stop-color="#04B34A" stop-opacity="0.879348"/>
<stop offset="0.379604" stop-color="#04B34A" stop-opacity="0.818519"/>
<stop offset="0.4456" stop-color="#04B34A" stop-opacity="0.7488"/>
<stop offset="0.48243" stop-color="#04B34A" stop-opacity="0.671881"/>
<stop offset="0.51757" stop-color="#04B34A" stop-opacity="0.589452"/>
<stop offset="0.5544" stop-color="#04B34A" stop-opacity="0.5032"/>
<stop offset="0.596296" stop-color="#04B34A" stop-opacity="0.414815"/>
<stop offset="0.646637" stop-color="#04B34A" stop-opacity="0.325985"/>
<stop offset="0.7088" stop-color="#04B34A" stop-opacity="0.2384"/>
<stop offset="0.786163" stop-color="#04B34A" stop-opacity="0.153748"/>
<stop offset="0.882104" stop-color="#04B34A" stop-opacity="0.0737185"/>
<stop offset="1" stop-color="#04B34A" stop-opacity="0"/>
</linearGradient>
<linearGradient id="paint3_linear_3044_2227" x1="806.602" y1="597.545" x2="405.713" y2="597.545" gradientUnits="userSpaceOnUse">
<stop stop-color="#04B34A"/>
<stop offset="0.0001" stop-color="#04B34A" stop-opacity="0.991615"/>
<stop offset="0.119507" stop-color="#04B34A" stop-opacity="0.967585"/>
<stop offset="0.235693" stop-color="#04B34A" stop-opacity="0.9296"/>
<stop offset="0.322832" stop-color="#04B34A" stop-opacity="0.879348"/>
<stop offset="0.379604" stop-color="#04B34A" stop-opacity="0.818519"/>
<stop offset="0.4456" stop-color="#04B34A" stop-opacity="0.7488"/>
<stop offset="0.48243" stop-color="#04B34A" stop-opacity="0.671881"/>
<stop offset="0.51757" stop-color="#04B34A" stop-opacity="0.589452"/>
<stop offset="0.5544" stop-color="#04B34A" stop-opacity="0.5032"/>
<stop offset="0.596296" stop-color="#04B34A" stop-opacity="0.414815"/>
<stop offset="0.646637" stop-color="#04B34A" stop-opacity="0.325985"/>
<stop offset="0.7088" stop-color="#04B34A" stop-opacity="0.2384"/>
<stop offset="0.786163" stop-color="#04B34A" stop-opacity="0.153748"/>
<stop offset="0.882104" stop-color="#04B34A" stop-opacity="0.0737185"/>
<stop offset="1" stop-color="#04B34A" stop-opacity="0"/>
</linearGradient>
<linearGradient id="paint4_linear_3044_2227" x1="980.29" y1="597.547" x2="530.334" y2="597.547" gradientUnits="userSpaceOnUse">
<stop stop-color="#04B34A"/>
<stop offset="0.0001" stop-color="#04B34A" stop-opacity="0.991615"/>
<stop offset="0.119507" stop-color="#04B34A" stop-opacity="0.967585"/>
<stop offset="0.235693" stop-color="#04B34A" stop-opacity="0.9296"/>
<stop offset="0.322832" stop-color="#04B34A" stop-opacity="0.879348"/>
<stop offset="0.379604" stop-color="#04B34A" stop-opacity="0.818519"/>
<stop offset="0.4456" stop-color="#04B34A" stop-opacity="0.7488"/>
<stop offset="0.48243" stop-color="#04B34A" stop-opacity="0.671881"/>
<stop offset="0.51757" stop-color="#04B34A" stop-opacity="0.589452"/>
<stop offset="0.5544" stop-color="#04B34A" stop-opacity="0.5032"/>
<stop offset="0.596296" stop-color="#04B34A" stop-opacity="0.414815"/>
<stop offset="0.646637" stop-color="#04B34A" stop-opacity="0.325985"/>
<stop offset="0.7088" stop-color="#04B34A" stop-opacity="0.2384"/>
<stop offset="0.786163" stop-color="#04B34A" stop-opacity="0.153748"/>
<stop offset="0.882104" stop-color="#04B34A" stop-opacity="0.0737185"/>
<stop offset="1" stop-color="#04B34A" stop-opacity="0"/>
</linearGradient>
<linearGradient id="paint5_linear_3044_2227" x1="1170.71" y1="597.547" x2="654.953" y2="597.547" gradientUnits="userSpaceOnUse">
<stop stop-color="#04B34A"/>
<stop offset="0.0001" stop-color="#04B34A" stop-opacity="0.991615"/>
<stop offset="0.119507" stop-color="#04B34A" stop-opacity="0.967585"/>
<stop offset="0.235693" stop-color="#04B34A" stop-opacity="0.9296"/>
<stop offset="0.322832" stop-color="#04B34A" stop-opacity="0.879348"/>
<stop offset="0.379604" stop-color="#04B34A" stop-opacity="0.818519"/>
<stop offset="0.4456" stop-color="#04B34A" stop-opacity="0.7488"/>
<stop offset="0.48243" stop-color="#04B34A" stop-opacity="0.671881"/>
<stop offset="0.51757" stop-color="#04B34A" stop-opacity="0.589452"/>
<stop offset="0.5544" stop-color="#04B34A" stop-opacity="0.5032"/>
<stop offset="0.596296" stop-color="#04B34A" stop-opacity="0.414815"/>
<stop offset="0.646637" stop-color="#04B34A" stop-opacity="0.325985"/>
<stop offset="0.7088" stop-color="#04B34A" stop-opacity="0.2384"/>
<stop offset="0.786163" stop-color="#04B34A" stop-opacity="0.153748"/>
<stop offset="0.882104" stop-color="#04B34A" stop-opacity="0.0737185"/>
<stop offset="1" stop-color="#04B34A" stop-opacity="0"/>
</linearGradient>
<linearGradient id="paint6_linear_3044_2227" x1="1926.04" y1="597.545" x2="779.574" y2="597.545" gradientUnits="userSpaceOnUse">
<stop stop-color="#04B34A"/>
<stop offset="0.0001" stop-color="#04B34A" stop-opacity="0.991615"/>
<stop offset="0.119507" stop-color="#04B34A" stop-opacity="0.967585"/>
<stop offset="0.235693" stop-color="#04B34A" stop-opacity="0.9296"/>
<stop offset="0.322832" stop-color="#04B34A" stop-opacity="0.879348"/>
<stop offset="0.379604" stop-color="#04B34A" stop-opacity="0.818519"/>
<stop offset="0.4456" stop-color="#04B34A" stop-opacity="0.7488"/>
<stop offset="0.48243" stop-color="#04B34A" stop-opacity="0.671881"/>
<stop offset="0.51757" stop-color="#04B34A" stop-opacity="0.589452"/>
<stop offset="0.5544" stop-color="#04B34A" stop-opacity="0.5032"/>
<stop offset="0.596296" stop-color="#04B34A" stop-opacity="0.414815"/>
<stop offset="0.646637" stop-color="#04B34A" stop-opacity="0.325985"/>
<stop offset="0.7088" stop-color="#04B34A" stop-opacity="0.2384"/>
<stop offset="0.786163" stop-color="#04B34A" stop-opacity="0.153748"/>
<stop offset="0.882104" stop-color="#04B34A" stop-opacity="0.0737185"/>
<stop offset="1" stop-color="#04B34A" stop-opacity="0"/>
</linearGradient>
</defs>
</svg>
