<svg width="1080" height="1085" viewBox="0 0 1080 1085" fill="none" xmlns="http://www.w3.org/2000/svg">
<rect width="1080" height="1085" fill="white"/>
<path d="M915.587 49L912.911 64.8629H915.891L914.181 75H908.668L909.483 70.1698H895.329L894.514 75H889L890.71 64.8629H892.824C893.79 63.5513 894.707 61.8209 895.74 58.1838L898.364 49H915.59H915.587ZM908.584 54.3069H902.535L901.369 58.3918C900.354 61.9393 899.515 63.5484 898.667 64.8629H906.805L908.584 54.3069Z" fill="#EAECEF"/>
<path d="M920.448 49H933.56C938.18 49 940.257 51.3544 939.681 54.7547C939.314 56.93 937.677 58.3311 936.141 58.958C937.818 59.6138 939.146 61.2836 938.663 64.1464C938.05 67.7836 935.085 70.1698 930.167 70.1698H916.875L920.448 49ZM924.295 61.7024L923.67 65.4002H929.69C931.298 65.4002 932.293 64.8051 932.504 63.5513C932.721 62.2687 931.923 61.7024 930.312 61.7024H924.292H924.295ZM925.631 53.7724L925.099 56.9329H931.029C932.282 56.9329 933.161 56.4851 933.352 55.3527C933.543 54.2202 932.814 53.7724 931.561 53.7724H925.631Z" fill="#EAECEF"/>
<path d="M943.47 49H949.579L947.427 61.7602L958.906 49H965.015L961.445 70.1698H955.336L957.479 57.4673L946.01 70.1698H939.9L943.47 49Z" fill="#EAECEF"/>
<path d="M974.098 59.1978L966.907 49H973.821L979.812 57.6464L981.272 49H987.084L985.626 57.6464L994.536 49H1001.3L990.954 58.9291L998.177 70.1698H990.815L985.039 61.1362L983.514 70.1698H977.703L979.227 61.1362L970.402 70.1698H963.309L974.101 59.1978H974.098Z" fill="#EAECEF"/>
<path d="M1010.23 49H1003.13L1010.19 58.9291L999.713 70.1698H1006.81L1017.29 58.9291L1010.23 49ZM1021.44 49H1014.34L1021.41 58.9291L1010.93 70.1698H1018.02L1028.5 58.9291L1021.44 49ZM1032.94 49H1025.85L1032.91 58.9291L1022.43 70.1698H1029.52L1040 58.9291L1032.94 49Z" fill="#EAECEF"/>
<path d="M41.2784 53.3821V48.8182H62.7812V53.3821H54.7656V75H49.294V53.3821H41.2784ZM67.9442 67.8153L75.0138 55.3636H80.3832V75H75.1928V62.5099L68.1488 75H62.7411V55.3636H67.9442V67.8153ZM83.3089 75V55.3636H100.478V75H95.2748V59.6463H88.4481V75H83.3089ZM115.48 67.8153L122.549 55.3636H127.919V75H122.728V62.5099L115.684 75H110.277V55.3636H115.48V67.8153ZM130.844 75V55.3636H148.013V75H142.81V59.6463H135.984V75H130.844ZM159.792 75.3835C157.806 75.3835 156.089 74.9616 154.64 74.1179C153.2 73.2656 152.088 72.081 151.304 70.5639C150.519 69.0384 150.127 67.2699 150.127 65.2585C150.127 63.2301 150.519 61.4574 151.304 59.9403C152.088 58.4148 153.2 57.2301 154.64 56.3864C156.089 55.5341 157.806 55.108 159.792 55.108C161.778 55.108 163.491 55.5341 164.931 56.3864C166.38 57.2301 167.497 58.4148 168.281 59.9403C169.065 61.4574 169.457 63.2301 169.457 65.2585C169.457 67.2699 169.065 69.0384 168.281 70.5639C167.497 72.081 166.38 73.2656 164.931 74.1179C163.491 74.9616 161.778 75.3835 159.792 75.3835ZM159.818 71.1648C160.721 71.1648 161.475 70.9091 162.081 70.3977C162.686 69.8778 163.142 69.1705 163.448 68.2756C163.764 67.3807 163.921 66.3622 163.921 65.2202C163.921 64.0781 163.764 63.0597 163.448 62.1648C163.142 61.2699 162.686 60.5625 162.081 60.0426C161.475 59.5227 160.721 59.2628 159.818 59.2628C158.906 59.2628 158.139 59.5227 157.517 60.0426C156.903 60.5625 156.438 61.2699 156.123 62.1648C155.816 63.0597 155.663 64.0781 155.663 65.2202C155.663 66.3622 155.816 67.3807 156.123 68.2756C156.438 69.1705 156.903 69.8778 157.517 70.3977C158.139 70.9091 158.906 71.1648 159.818 71.1648ZM169.657 59.6463V55.3636H187.452V59.6463H181.124V75H175.933V59.6463H169.657ZM197.559 75.3835C195.539 75.3835 193.801 74.9744 192.343 74.1562C190.894 73.3295 189.778 72.1619 188.994 70.6534C188.21 69.1364 187.818 67.3423 187.818 65.2713C187.818 63.2514 188.21 61.4787 188.994 59.9531C189.778 58.4276 190.882 57.2386 192.305 56.3864C193.737 55.5341 195.416 55.108 197.342 55.108C198.637 55.108 199.843 55.3168 200.96 55.7344C202.085 56.1435 203.065 56.7614 203.9 57.5881C204.744 58.4148 205.4 59.4545 205.869 60.7074C206.338 61.9517 206.572 63.4091 206.572 65.0795V66.5753H189.991V63.2003H201.446C201.446 62.4162 201.275 61.7216 200.934 61.1165C200.593 60.5114 200.12 60.0384 199.515 59.6974C198.919 59.348 198.224 59.1733 197.431 59.1733C196.605 59.1733 195.872 59.3651 195.232 59.7486C194.602 60.1236 194.107 60.6307 193.75 61.2699C193.392 61.9006 193.208 62.6037 193.2 63.3793V66.5881C193.2 67.5597 193.379 68.3991 193.737 69.1065C194.103 69.8139 194.619 70.3594 195.284 70.7429C195.948 71.1264 196.737 71.3182 197.649 71.3182C198.254 71.3182 198.808 71.233 199.311 71.0625C199.813 70.892 200.244 70.6364 200.602 70.2955C200.96 69.9545 201.232 69.5369 201.42 69.0426L206.457 69.375C206.201 70.5852 205.677 71.642 204.884 72.5455C204.1 73.4403 203.086 74.1392 201.842 74.642C200.606 75.1364 199.179 75.3835 197.559 75.3835ZM208.686 75V55.3636H214.132V62.983H215.666L221.01 55.3636H227.402L220.46 65.1051L227.479 75H221.01L216.165 68.0327H214.132V75H208.686ZM233.543 67.8153L240.612 55.3636H245.982V75H240.791V62.5099L233.747 75H228.34V55.3636H233.543V67.8153Z" fill="black"/>
<rect x="40" y="124" width="1000" height="295" rx="20" fill="#F7F7F7"/>
<path opacity="0.6" d="M67.4964 147.326H65.1058C65.0376 146.934 64.9119 146.587 64.7287 146.284C64.5455 145.977 64.3175 145.717 64.0447 145.504C63.772 145.291 63.4609 145.131 63.1115 145.025C62.7663 144.914 62.3935 144.859 61.9929 144.859C61.2813 144.859 60.6506 145.038 60.1009 145.396C59.5511 145.749 59.1207 146.269 58.8097 146.955C58.4986 147.637 58.343 148.47 58.343 149.455C58.343 150.456 58.4986 151.3 58.8097 151.986C59.125 152.668 59.5554 153.183 60.1009 153.533C60.6506 153.878 61.2791 154.05 61.9865 154.05C62.3786 154.05 62.745 153.999 63.0859 153.897C63.4311 153.79 63.7401 153.635 64.0128 153.43C64.2898 153.226 64.522 152.974 64.7095 152.676C64.9013 152.378 65.0334 152.037 65.1058 151.653L67.4964 151.666C67.407 152.288 67.2131 152.872 66.9148 153.418C66.6207 153.963 66.2351 154.445 65.7578 154.862C65.2805 155.276 64.7223 155.599 64.0831 155.834C63.4439 156.064 62.7344 156.179 61.9545 156.179C60.804 156.179 59.777 155.913 58.8736 155.38C57.9702 154.847 57.2585 154.078 56.7386 153.072C56.2188 152.067 55.9588 150.861 55.9588 149.455C55.9588 148.044 56.2209 146.838 56.745 145.837C57.2692 144.831 57.983 144.062 58.8864 143.529C59.7898 142.996 60.8125 142.73 61.9545 142.73C62.6832 142.73 63.3608 142.832 63.9872 143.037C64.6136 143.241 65.1719 143.542 65.6619 143.938C66.152 144.33 66.5547 144.812 66.87 145.383C67.1896 145.95 67.3984 146.597 67.4964 147.326ZM70.8929 144.897V142.909H81.3375V144.897H77.2913V156H74.939V144.897H70.8929ZM85.25 156H82.7188L87.3275 142.909H90.255L94.8701 156H92.3388L88.8424 145.594H88.7401L85.25 156ZM85.3331 150.867H92.2365V152.772H85.3331V150.867ZM98.3943 156V142.909H100.766V148.451H106.832V142.909H109.21V156H106.832V150.439H100.766V156H98.3943ZM112.739 159.158V154.063H113.614C113.908 153.829 114.183 153.499 114.439 153.072C114.695 152.646 114.912 152.062 115.091 151.321C115.27 150.58 115.394 149.621 115.462 148.445L115.807 142.909H124.174V154.063H125.631V159.145H123.356V156H115.014V159.158H112.739ZM116.376 154.063H121.899V144.897H117.942L117.737 148.445C117.682 149.335 117.592 150.132 117.469 150.835C117.345 151.538 117.19 152.158 117.002 152.695C116.815 153.228 116.606 153.684 116.376 154.063ZM131.045 156H128.513L133.122 142.909H136.05L140.665 156H138.133L134.637 145.594H134.535L131.045 156ZM131.128 150.867H138.031V152.772H131.128V150.867ZM144.189 156V142.909H149.098C150.104 142.909 150.947 143.097 151.629 143.472C152.315 143.847 152.833 144.362 153.182 145.018C153.536 145.67 153.713 146.412 153.713 147.243C153.713 148.082 153.536 148.828 153.182 149.48C152.829 150.132 152.307 150.646 151.616 151.021C150.926 151.391 150.076 151.577 149.066 151.577H145.812V149.627H148.746C149.334 149.627 149.816 149.525 150.191 149.32C150.566 149.116 150.843 148.835 151.022 148.477C151.205 148.119 151.297 147.707 151.297 147.243C151.297 146.778 151.205 146.369 151.022 146.016C150.843 145.662 150.564 145.387 150.185 145.191C149.81 144.991 149.326 144.891 148.734 144.891H146.56V156H144.189ZM156.998 144.897V142.909H167.442V144.897H163.396V156H161.044V144.897H156.998ZM171.256 156V142.909H173.627V148.451H179.693V142.909H182.071V156H179.693V150.439H173.627V156H171.256ZM188.131 156H185.6L190.209 142.909H193.136L197.751 156H195.22L191.724 145.594H191.621L188.131 156ZM188.214 150.867H195.118V152.772H188.214V150.867ZM210.94 156H208.562V144.891H206.389C205.801 144.891 205.317 144.978 204.938 145.153C204.563 145.323 204.284 145.575 204.101 145.907C203.922 146.235 203.832 146.631 203.832 147.096C203.832 147.56 203.922 147.952 204.101 148.272C204.28 148.587 204.557 148.828 204.932 148.994C205.311 149.156 205.793 149.237 206.376 149.237H209.56V151.206H206.057C205.051 151.206 204.203 151.04 203.513 150.707C202.822 150.371 202.298 149.896 201.94 149.282C201.587 148.664 201.41 147.935 201.41 147.096C201.41 146.261 201.585 145.53 201.934 144.903C202.288 144.273 202.808 143.783 203.494 143.433C204.18 143.084 205.023 142.909 206.025 142.909H210.94V156ZM204.171 150.068H206.76L203.577 156H200.93L204.171 150.068Z" fill="black"/>
<path opacity="0.4" d="M1019.96 372.5H55V243L542.782 303.5C542.782 303.5 1014.35 299.106 1019.96 299.002V299C1020.03 299 1020.03 299.001 1019.96 299.002V372.5Z" fill="url(#paint0_linear_3119_2451)"/>
<rect x="1015.19" y="293" width="10.2717" height="10.2717" rx="5.13587" fill="#CACACA"/>
<path d="M1018.5 299L546.089 303L55 242.5" stroke="#CACACA" stroke-width="4"/>
<path d="M876.074 357.445V381.803L866.989 372.684L863 376.638L878.955 392.559L894.875 376.638L890.955 372.684L881.835 381.803V357.445H876.074Z" fill="#CACACA"/>
<path d="M920.319 392.477C917.773 392.477 915.506 392.04 913.518 391.165C911.54 390.278 909.978 389.062 908.83 387.517C907.694 385.96 907.109 384.165 907.075 382.131H914.506C914.552 382.983 914.83 383.733 915.342 384.381C915.864 385.017 916.558 385.511 917.421 385.864C918.285 386.216 919.256 386.392 920.336 386.392C921.461 386.392 922.455 386.193 923.319 385.795C924.183 385.398 924.859 384.847 925.347 384.142C925.836 383.437 926.08 382.625 926.08 381.705C926.08 380.773 925.819 379.949 925.296 379.233C924.785 378.506 924.046 377.937 923.08 377.528C922.126 377.119 920.989 376.915 919.671 376.915H916.415V371.494H919.671C920.785 371.494 921.768 371.301 922.62 370.915C923.484 370.528 924.154 369.994 924.631 369.312C925.109 368.619 925.347 367.812 925.347 366.892C925.347 366.017 925.137 365.25 924.717 364.591C924.308 363.92 923.728 363.398 922.978 363.023C922.239 362.648 921.376 362.46 920.387 362.46C919.387 362.46 918.472 362.642 917.643 363.006C916.813 363.358 916.148 363.864 915.648 364.523C915.148 365.182 914.881 365.955 914.847 366.841H907.773C907.808 364.83 908.381 363.057 909.495 361.523C910.609 359.989 912.109 358.79 913.995 357.926C915.893 357.051 918.035 356.614 920.421 356.614C922.83 356.614 924.938 357.051 926.745 357.926C928.552 358.801 929.955 359.983 930.955 361.472C931.967 362.949 932.467 364.608 932.455 366.449C932.467 368.403 931.859 370.034 930.631 371.341C929.415 372.648 927.83 373.477 925.876 373.83V374.102C928.444 374.432 930.398 375.324 931.739 376.778C933.092 378.222 933.762 380.028 933.751 382.199C933.762 384.188 933.188 385.955 932.029 387.5C930.881 389.045 929.296 390.261 927.273 391.148C925.251 392.034 922.933 392.477 920.319 392.477ZM945.54 387.227L945.352 389.102C945.205 390.602 944.92 392.097 944.5 393.585C944.091 395.085 943.659 396.443 943.205 397.659C942.761 398.875 942.403 399.83 942.131 400.523H937.426C937.597 399.852 937.83 398.915 938.125 397.71C938.42 396.517 938.699 395.176 938.96 393.688C939.222 392.199 939.386 390.682 939.455 389.136L939.54 387.227H945.54ZM963.235 392.477C960.61 392.477 958.275 392.051 956.229 391.199C954.195 390.335 952.599 389.159 951.44 387.67C950.281 386.182 949.701 384.494 949.701 382.608C949.701 381.153 950.031 379.818 950.69 378.602C951.36 377.375 952.269 376.358 953.417 375.551C954.565 374.733 955.849 374.21 957.269 373.983V373.744C955.406 373.369 953.894 372.466 952.735 371.034C951.576 369.591 950.996 367.915 950.996 366.006C950.996 364.199 951.525 362.591 952.582 361.182C953.638 359.761 955.087 358.648 956.928 357.841C958.781 357.023 960.883 356.614 963.235 356.614C965.587 356.614 967.684 357.023 969.525 357.841C971.377 358.659 972.832 359.778 973.888 361.199C974.945 362.608 975.479 364.21 975.491 366.006C975.479 367.926 974.888 369.602 973.718 371.034C972.548 372.466 971.048 373.369 969.218 373.744V373.983C970.616 374.21 971.883 374.733 973.019 375.551C974.167 376.358 975.076 377.375 975.746 378.602C976.428 379.818 976.775 381.153 976.786 382.608C976.775 384.494 976.19 386.182 975.031 387.67C973.871 389.159 972.269 390.335 970.224 391.199C968.19 392.051 965.86 392.477 963.235 392.477ZM963.235 387.057C964.406 387.057 965.428 386.847 966.303 386.426C967.178 385.994 967.86 385.403 968.349 384.653C968.849 383.892 969.099 383.017 969.099 382.028C969.099 381.017 968.843 380.125 968.332 379.352C967.82 378.568 967.127 377.955 966.252 377.511C965.377 377.057 964.371 376.83 963.235 376.83C962.11 376.83 961.104 377.057 960.218 377.511C959.332 377.955 958.633 378.568 958.121 379.352C957.621 380.125 957.371 381.017 957.371 382.028C957.371 383.017 957.616 383.892 958.104 384.653C958.593 385.403 959.281 385.994 960.167 386.426C961.053 386.847 962.076 387.057 963.235 387.057ZM963.235 371.46C964.212 371.46 965.082 371.261 965.843 370.864C966.604 370.466 967.201 369.915 967.633 369.21C968.065 368.506 968.281 367.693 968.281 366.773C968.281 365.864 968.065 365.068 967.633 364.386C967.201 363.693 966.61 363.153 965.86 362.767C965.11 362.369 964.235 362.17 963.235 362.17C962.246 362.17 961.371 362.369 960.61 362.767C959.849 363.153 959.252 363.693 958.82 364.386C958.4 365.068 958.19 365.864 958.19 366.773C958.19 367.693 958.406 368.506 958.837 369.21C959.269 369.915 959.866 370.466 960.627 370.864C961.388 371.261 962.258 371.46 963.235 371.46ZM1000.56 385.455V383.614C1000.56 382.216 1000.86 380.932 1001.45 379.761C1002.05 378.58 1002.92 377.636 1004.06 376.932C1005.2 376.216 1006.6 375.858 1008.25 375.858C1009.92 375.858 1011.32 376.21 1012.46 376.915C1013.61 377.619 1014.47 378.562 1015.05 379.744C1015.64 380.915 1015.94 382.205 1015.94 383.614V385.455C1015.94 386.852 1015.64 388.142 1015.05 389.324C1014.46 390.494 1013.59 391.432 1012.44 392.136C1011.3 392.852 1009.9 393.21 1008.25 393.21C1006.58 393.21 1005.18 392.852 1004.04 392.136C1002.9 391.432 1002.04 390.494 1001.45 389.324C1000.86 388.142 1000.56 386.852 1000.56 385.455ZM1005.52 383.614V385.455C1005.52 386.261 1005.72 387.023 1006.1 387.739C1006.5 388.455 1007.22 388.812 1008.25 388.812C1009.28 388.812 1009.99 388.46 1010.36 387.756C1010.75 387.051 1010.94 386.284 1010.94 385.455V383.614C1010.94 382.784 1010.76 382.011 1010.4 381.295C1010.03 380.58 1009.32 380.222 1008.25 380.222C1007.23 380.222 1006.52 380.58 1006.12 381.295C1005.72 382.011 1005.52 382.784 1005.52 383.614ZM982.648 365.477V363.636C982.648 362.227 982.949 360.937 983.551 359.767C984.153 358.585 985.023 357.642 986.159 356.938C987.307 356.233 988.693 355.881 990.318 355.881C992 355.881 993.409 356.233 994.545 356.938C995.682 357.642 996.545 358.585 997.136 359.767C997.727 360.937 998.023 362.227 998.023 363.636V365.477C998.023 366.886 997.722 368.176 997.119 369.347C996.528 370.517 995.659 371.455 994.511 372.159C993.375 372.852 991.977 373.199 990.318 373.199C988.659 373.199 987.256 372.847 986.108 372.142C984.972 371.426 984.108 370.489 983.517 369.33C982.938 368.159 982.648 366.875 982.648 365.477ZM987.642 363.636V365.477C987.642 366.307 987.835 367.074 988.222 367.778C988.619 368.483 989.318 368.835 990.318 368.835C991.364 368.835 992.074 368.483 992.449 367.778C992.835 367.074 993.028 366.307 993.028 365.477V363.636C993.028 362.807 992.847 362.034 992.483 361.318C992.119 360.602 991.398 360.244 990.318 360.244C989.307 360.244 988.608 360.608 988.222 361.335C987.835 362.062 987.642 362.83 987.642 363.636ZM984.898 392L1008.9 357.091H1013.36L989.364 392H984.898Z" fill="black"/>
<path d="M62.1094 229.219C61.0365 229.219 60.0781 229.034 59.2344 228.664C58.3958 228.294 57.7318 227.781 57.2422 227.125C56.7578 226.464 56.4974 225.698 56.4609 224.828H58.9141C58.9453 225.302 59.1042 225.714 59.3906 226.062C59.6823 226.406 60.0625 226.672 60.5313 226.859C61 227.047 61.5208 227.141 62.0938 227.141C62.724 227.141 63.2813 227.031 63.7656 226.812C64.2552 226.594 64.638 226.289 64.9141 225.898C65.1901 225.503 65.3281 225.047 65.3281 224.531C65.3281 223.995 65.1901 223.523 64.9141 223.117C64.6432 222.706 64.2448 222.383 63.7188 222.148C63.1979 221.914 62.5677 221.797 61.8281 221.797H60.4766V219.828H61.8281C62.4219 219.828 62.9427 219.721 63.3906 219.508C63.8438 219.294 64.1979 218.997 64.4531 218.617C64.7083 218.232 64.8359 217.781 64.8359 217.266C64.8359 216.771 64.724 216.341 64.5 215.977C64.2813 215.607 63.9688 215.318 63.5625 215.109C63.1615 214.901 62.6875 214.797 62.1406 214.797C61.6198 214.797 61.1328 214.893 60.6797 215.086C60.2318 215.273 59.8672 215.544 59.5859 215.898C59.3047 216.247 59.1536 216.667 59.1328 217.156H56.7969C56.8229 216.292 57.0781 215.531 57.5625 214.875C58.0521 214.219 58.6979 213.706 59.5 213.336C60.3021 212.966 61.1927 212.781 62.1719 212.781C63.1979 212.781 64.0833 212.982 64.8281 213.383C65.5781 213.779 66.1563 214.307 66.5625 214.969C66.974 215.63 67.1771 216.354 67.1719 217.141C67.1771 218.036 66.9271 218.797 66.4219 219.422C65.9219 220.047 65.2552 220.466 64.4219 220.68V220.805C65.4844 220.966 66.3073 221.388 66.8906 222.07C67.4792 222.753 67.7708 223.599 67.7656 224.609C67.7708 225.49 67.526 226.279 67.0312 226.977C66.5417 227.674 65.8724 228.224 65.0234 228.625C64.1745 229.021 63.2031 229.219 62.1094 229.219ZM76.0821 229.219C75.3686 229.208 74.6655 229.078 73.9728 228.828C73.2853 228.578 72.6603 228.161 72.0978 227.578C71.5353 226.995 71.0847 226.211 70.7462 225.227C70.4129 224.242 70.2462 223.013 70.2462 221.539C70.2462 220.143 70.3842 218.904 70.6603 217.82C70.9415 216.737 71.3452 215.823 71.8712 215.078C72.3972 214.328 73.0327 213.758 73.7774 213.367C74.5222 212.977 75.3582 212.781 76.2853 212.781C77.2384 212.781 78.0847 212.969 78.8243 213.344C79.5639 213.719 80.1629 214.237 80.6212 214.898C81.0847 215.56 81.379 216.312 81.504 217.156H79.1212C78.9597 216.49 78.6394 215.945 78.1603 215.523C77.6811 215.102 77.0561 214.891 76.2853 214.891C75.1134 214.891 74.1993 215.401 73.5431 216.422C72.892 217.443 72.5639 218.862 72.5587 220.68H72.6759C72.9519 220.227 73.2905 219.841 73.6915 219.523C74.0978 219.201 74.5509 218.953 75.0509 218.781C75.5561 218.604 76.0873 218.516 76.6446 218.516C77.5717 218.516 78.4103 218.742 79.1603 219.195C79.9155 219.643 80.517 220.263 80.9649 221.055C81.4129 221.846 81.6368 222.753 81.6368 223.773C81.6368 224.794 81.405 225.719 80.9415 226.547C80.4832 227.375 79.8373 228.031 79.004 228.516C78.1707 228.995 77.1967 229.229 76.0821 229.219ZM76.0743 227.187C76.6889 227.187 77.2384 227.036 77.7228 226.734C78.2071 226.432 78.5899 226.026 78.8712 225.516C79.1524 225.005 79.2931 224.435 79.2931 223.805C79.2931 223.19 79.1551 222.63 78.879 222.125C78.6082 221.62 78.2332 221.219 77.754 220.922C77.2801 220.625 76.7384 220.477 76.129 220.477C75.6655 220.477 75.2358 220.565 74.8399 220.742C74.4493 220.919 74.1056 221.164 73.8087 221.477C73.5118 221.789 73.2774 222.148 73.1056 222.555C72.9389 222.956 72.8556 223.38 72.8556 223.828C72.8556 224.427 72.9936 224.982 73.2696 225.492C73.5509 226.003 73.9337 226.414 74.4181 226.727C74.9077 227.034 75.4597 227.187 76.0743 227.187Z" fill="#CFCFCF"/>
<path d="M981.275 283.219C980.202 283.219 979.244 283.034 978.4 282.664C977.562 282.294 976.897 281.781 976.408 281.125C975.924 280.464 975.663 279.698 975.627 278.828H978.08C978.111 279.302 978.27 279.714 978.556 280.062C978.848 280.406 979.228 280.672 979.697 280.859C980.166 281.047 980.687 281.141 981.259 281.141C981.89 281.141 982.447 281.031 982.931 280.812C983.421 280.594 983.804 280.289 984.08 279.898C984.356 279.503 984.494 279.047 984.494 278.531C984.494 277.995 984.356 277.523 984.08 277.117C983.809 276.706 983.411 276.383 982.884 276.148C982.364 275.914 981.733 275.797 980.994 275.797H979.642V273.828H980.994C981.588 273.828 982.108 273.721 982.556 273.508C983.009 273.294 983.364 272.997 983.619 272.617C983.874 272.232 984.002 271.781 984.002 271.266C984.002 270.771 983.89 270.341 983.666 269.977C983.447 269.607 983.134 269.318 982.728 269.109C982.327 268.901 981.853 268.797 981.306 268.797C980.786 268.797 980.299 268.893 979.845 269.086C979.397 269.273 979.033 269.544 978.752 269.898C978.47 270.247 978.319 270.667 978.299 271.156H975.963C975.989 270.292 976.244 269.531 976.728 268.875C977.218 268.219 977.864 267.706 978.666 267.336C979.468 266.966 980.358 266.781 981.338 266.781C982.364 266.781 983.249 266.982 983.994 267.383C984.744 267.779 985.322 268.307 985.728 268.969C986.14 269.63 986.343 270.354 986.338 271.141C986.343 272.036 986.093 272.797 985.588 273.422C985.088 274.047 984.421 274.466 983.588 274.68V274.805C984.65 274.966 985.473 275.388 986.056 276.07C986.645 276.753 986.937 277.599 986.931 278.609C986.937 279.49 986.692 280.279 986.197 280.977C985.707 281.674 985.038 282.224 984.189 282.625C983.34 283.021 982.369 283.219 981.275 283.219ZM989.662 283V281.25L995.076 275.641C995.654 275.031 996.131 274.497 996.506 274.039C996.886 273.576 997.17 273.135 997.357 272.719C997.545 272.302 997.638 271.859 997.638 271.391C997.638 270.859 997.513 270.401 997.263 270.016C997.013 269.625 996.672 269.326 996.24 269.117C995.808 268.904 995.321 268.797 994.779 268.797C994.206 268.797 993.706 268.914 993.279 269.148C992.852 269.383 992.524 269.714 992.295 270.141C992.066 270.568 991.951 271.068 991.951 271.641H989.646C989.646 270.667 989.87 269.815 990.318 269.086C990.766 268.357 991.381 267.792 992.162 267.391C992.943 266.984 993.831 266.781 994.826 266.781C995.831 266.781 996.717 266.982 997.482 267.383C998.253 267.779 998.855 268.32 999.287 269.008C999.719 269.69 999.935 270.461 999.935 271.32C999.935 271.914 999.823 272.495 999.599 273.062C999.381 273.63 998.998 274.263 998.451 274.961C997.904 275.654 997.144 276.495 996.17 277.484L992.99 280.812V280.93H1000.19V283H989.662ZM1006 280.812L1005.88 281.664C1005.81 282.289 1005.67 282.94 1005.49 283.617C1005.3 284.299 1005.11 284.932 1004.92 285.516C1004.72 286.099 1004.56 286.563 1004.44 286.906H1002.78C1002.85 286.583 1002.94 286.146 1003.06 285.594C1003.18 285.047 1003.3 284.435 1003.42 283.758C1003.53 283.081 1003.62 282.391 1003.67 281.687L1003.75 280.812H1006ZM1009.05 283V281.25L1014.46 275.641C1015.04 275.031 1015.52 274.497 1015.89 274.039C1016.27 273.576 1016.55 273.135 1016.74 272.719C1016.93 272.302 1017.02 271.859 1017.02 271.391C1017.02 270.859 1016.9 270.401 1016.65 270.016C1016.4 269.625 1016.06 269.326 1015.63 269.117C1015.19 268.904 1014.71 268.797 1014.16 268.797C1013.59 268.797 1013.09 268.914 1012.66 269.148C1012.24 269.383 1011.91 269.714 1011.68 270.141C1011.45 270.568 1011.34 271.068 1011.34 271.641H1009.03C1009.03 270.667 1009.26 269.815 1009.7 269.086C1010.15 268.357 1010.77 267.792 1011.55 267.391C1012.33 266.984 1013.22 266.781 1014.21 266.781C1015.22 266.781 1016.1 266.982 1016.87 267.383C1017.64 267.779 1018.24 268.32 1018.67 269.008C1019.1 269.69 1019.32 270.461 1019.32 271.32C1019.32 271.914 1019.21 272.495 1018.98 273.062C1018.77 273.63 1018.38 274.263 1017.84 274.961C1017.29 275.654 1016.53 276.495 1015.55 277.484L1012.38 280.812V280.93H1019.58V283H1009.05Z" fill="#CFCFCF"/>
<rect x="40" y="437" width="491" height="295" rx="20" fill="#F7F7F7"/>
<path opacity="0.6" d="M67.4964 463.326H65.1058C65.0376 462.934 64.9119 462.587 64.7287 462.284C64.5455 461.977 64.3175 461.717 64.0447 461.504C63.772 461.291 63.4609 461.131 63.1115 461.025C62.7663 460.914 62.3935 460.859 61.9929 460.859C61.2813 460.859 60.6506 461.038 60.1009 461.396C59.5511 461.749 59.1207 462.269 58.8097 462.955C58.4986 463.637 58.343 464.47 58.343 465.455C58.343 466.456 58.4986 467.3 58.8097 467.986C59.125 468.668 59.5554 469.183 60.1009 469.533C60.6506 469.878 61.2791 470.05 61.9865 470.05C62.3786 470.05 62.745 469.999 63.0859 469.897C63.4311 469.79 63.7401 469.635 64.0128 469.43C64.2898 469.226 64.522 468.974 64.7095 468.676C64.9013 468.378 65.0334 468.037 65.1058 467.653L67.4964 467.666C67.407 468.288 67.2131 468.872 66.9148 469.418C66.6207 469.963 66.2351 470.445 65.7578 470.862C65.2805 471.276 64.7223 471.599 64.0831 471.834C63.4439 472.064 62.7344 472.179 61.9545 472.179C60.804 472.179 59.777 471.913 58.8736 471.38C57.9702 470.847 57.2585 470.078 56.7386 469.072C56.2188 468.067 55.9588 466.861 55.9588 465.455C55.9588 464.044 56.2209 462.838 56.745 461.837C57.2692 460.831 57.983 460.062 58.8864 459.529C59.7898 458.996 60.8125 458.73 61.9545 458.73C62.6832 458.73 63.3608 458.832 63.9872 459.037C64.6136 459.241 65.1719 459.542 65.6619 459.938C66.152 460.33 66.5547 460.812 66.87 461.383C67.1896 461.95 67.3984 462.597 67.4964 463.326ZM71.4681 472V458.909H79.9824V460.897H73.8396V464.451H79.5413V466.439H73.8396V470.012H80.0335V472H71.4681ZM84.2017 458.909H87.1037L90.9901 468.395H91.1435L95.0299 458.909H97.9319V472H95.6563V463.006H95.5348L91.9169 471.962H90.2167L86.5988 462.987H86.4773V472H84.2017V458.909ZM102.314 472V458.909H110.828V460.897H104.686V464.451H110.387V466.439H104.686V470.012H110.88V472H102.314ZM115.048 458.909H117.4V467.832H117.522L123.677 458.909H125.806V472H123.434V463.083H123.326L117.151 472H115.048V458.909ZM121.696 455.534H123.428C123.428 456.28 123.157 456.885 122.616 457.349C122.079 457.81 121.35 458.04 120.43 458.04C119.518 458.04 118.791 457.81 118.25 457.349C117.713 456.885 117.447 456.28 117.451 455.534H119.171C119.171 455.841 119.264 456.116 119.452 456.359C119.644 456.597 119.97 456.717 120.43 456.717C120.882 456.717 121.203 456.597 121.395 456.359C121.591 456.12 121.691 455.845 121.696 455.534ZM130.19 472V458.909H132.561V464.451H138.627V458.909H141.005V472H138.627V466.439H132.561V472H130.19ZM147.065 472H144.534L149.143 458.909H152.07L156.685 472H154.154L150.658 461.594H150.555L147.065 472ZM147.148 466.867H154.052V468.772H147.148V466.867ZM169.874 472H167.496V460.891H165.323C164.735 460.891 164.251 460.978 163.872 461.153C163.497 461.323 163.218 461.575 163.035 461.907C162.856 462.235 162.766 462.631 162.766 463.096C162.766 463.56 162.856 463.952 163.035 464.272C163.214 464.587 163.491 464.828 163.866 464.994C164.245 465.156 164.727 465.237 165.31 465.237H168.494V467.206H164.991C163.985 467.206 163.137 467.04 162.447 466.707C161.756 466.371 161.232 465.896 160.874 465.282C160.521 464.664 160.344 463.935 160.344 463.096C160.344 462.261 160.518 461.53 160.868 460.903C161.222 460.273 161.742 459.783 162.428 459.433C163.114 459.084 163.957 458.909 164.959 458.909H169.874V472ZM163.105 466.068H165.694L162.511 472H159.864L163.105 466.068Z" fill="black"/>
<path opacity="0.4" d="M510.991 685.5H55V575L353.356 614.5C353.356 614.5 508.36 538.613 510.991 536.066V536C511.037 536 511.036 536.022 510.991 536.066V685.5Z" fill="url(#paint1_linear_3119_2451)"/>
<rect x="506.188" y="531" width="10.2717" height="10.2717" rx="5.13587" fill="#04B34A"/>
<path d="M508.5 537L364.8 611.763C359.5 614.52 353.478 615.573 347.556 614.778L55 575.5" stroke="#04B34A" stroke-width="4"/>
<path d="M367.074 705.555V681.197L357.989 690.316L354 686.362L369.955 670.441L385.875 686.362L381.955 690.316L372.835 681.197V705.555H367.074Z" fill="#04B34A"/>
<path d="M410.991 705.477C408.445 705.477 406.178 705.04 404.19 704.165C402.212 703.278 400.65 702.062 399.502 700.517C398.366 698.96 397.781 697.165 397.746 695.131H405.178C405.224 695.983 405.502 696.733 406.013 697.381C406.536 698.017 407.229 698.511 408.093 698.864C408.957 699.216 409.928 699.392 411.008 699.392C412.133 699.392 413.127 699.193 413.991 698.795C414.854 698.398 415.531 697.847 416.019 697.142C416.508 696.437 416.752 695.625 416.752 694.705C416.752 693.773 416.491 692.949 415.968 692.233C415.457 691.506 414.718 690.937 413.752 690.528C412.798 690.119 411.661 689.915 410.343 689.915H407.087V684.494H410.343C411.457 684.494 412.44 684.301 413.292 683.915C414.156 683.528 414.826 682.994 415.303 682.312C415.781 681.619 416.019 680.812 416.019 679.892C416.019 679.017 415.809 678.25 415.388 677.591C414.979 676.92 414.4 676.398 413.65 676.023C412.911 675.648 412.048 675.46 411.059 675.46C410.059 675.46 409.144 675.642 408.315 676.006C407.485 676.358 406.82 676.864 406.32 677.523C405.82 678.182 405.553 678.955 405.519 679.841H398.445C398.479 677.83 399.053 676.057 400.167 674.523C401.281 672.989 402.781 671.79 404.667 670.926C406.565 670.051 408.707 669.614 411.093 669.614C413.502 669.614 415.61 670.051 417.417 670.926C419.224 671.801 420.627 672.983 421.627 674.472C422.638 675.949 423.138 677.608 423.127 679.449C423.138 681.403 422.531 683.034 421.303 684.341C420.087 685.648 418.502 686.477 416.548 686.83V687.102C419.116 687.432 421.07 688.324 422.411 689.778C423.763 691.222 424.434 693.028 424.423 695.199C424.434 697.188 423.86 698.955 422.701 700.5C421.553 702.045 419.968 703.261 417.945 704.148C415.923 705.034 413.604 705.477 410.991 705.477ZM436.212 700.227L436.024 702.102C435.876 703.602 435.592 705.097 435.172 706.585C434.763 708.085 434.331 709.443 433.876 710.659C433.433 711.875 433.075 712.83 432.803 713.523H428.098C428.268 712.852 428.501 711.915 428.797 710.71C429.092 709.517 429.371 708.176 429.632 706.688C429.893 705.199 430.058 703.682 430.126 702.136L430.212 700.227H436.212ZM454.759 705.477C452.35 705.477 450.202 705.034 448.316 704.148C446.441 703.261 444.952 702.04 443.85 700.483C442.748 698.926 442.174 697.142 442.129 695.131H449.288C449.367 696.483 449.935 697.58 450.992 698.42C452.049 699.261 453.305 699.682 454.759 699.682C455.918 699.682 456.941 699.426 457.827 698.915C458.725 698.392 459.424 697.67 459.924 696.75C460.435 695.818 460.691 694.75 460.691 693.545C460.691 692.318 460.43 691.239 459.907 690.307C459.396 689.375 458.685 688.648 457.776 688.125C456.867 687.602 455.827 687.335 454.657 687.324C453.634 687.324 452.64 687.534 451.674 687.955C450.719 688.375 449.975 688.949 449.441 689.676L442.879 688.5L444.532 670.091H465.873V676.125H450.617L449.714 684.869H449.918C450.532 684.006 451.458 683.29 452.697 682.722C453.935 682.153 455.322 681.869 456.856 681.869C458.958 681.869 460.833 682.364 462.481 683.352C464.129 684.341 465.43 685.699 466.384 687.426C467.339 689.142 467.81 691.119 467.799 693.358C467.81 695.71 467.265 697.801 466.163 699.631C465.072 701.449 463.543 702.881 461.577 703.926C459.623 704.96 457.35 705.477 454.759 705.477ZM491.562 698.455V696.614C491.562 695.216 491.858 693.932 492.449 692.761C493.051 691.58 493.92 690.636 495.057 689.932C496.205 689.216 497.602 688.858 499.25 688.858C500.92 688.858 502.324 689.21 503.46 689.915C504.608 690.619 505.472 691.562 506.051 692.744C506.642 693.915 506.938 695.205 506.938 696.614V698.455C506.938 699.852 506.642 701.142 506.051 702.324C505.46 703.494 504.591 704.432 503.443 705.136C502.295 705.852 500.898 706.21 499.25 706.21C497.58 706.21 496.176 705.852 495.04 705.136C493.903 704.432 493.04 703.494 492.449 702.324C491.858 701.142 491.562 699.852 491.562 698.455ZM496.523 696.614V698.455C496.523 699.261 496.716 700.023 497.102 700.739C497.5 701.455 498.216 701.812 499.25 701.812C500.284 701.812 500.989 701.46 501.364 700.756C501.75 700.051 501.943 699.284 501.943 698.455V696.614C501.943 695.784 501.761 695.011 501.398 694.295C501.034 693.58 500.318 693.222 499.25 693.222C498.227 693.222 497.517 693.58 497.119 694.295C496.722 695.011 496.523 695.784 496.523 696.614ZM473.648 678.477V676.636C473.648 675.227 473.949 673.937 474.551 672.767C475.153 671.585 476.023 670.642 477.159 669.938C478.307 669.233 479.693 668.881 481.318 668.881C483 668.881 484.409 669.233 485.545 669.938C486.682 670.642 487.545 671.585 488.136 672.767C488.727 673.937 489.023 675.227 489.023 676.636V678.477C489.023 679.886 488.722 681.176 488.119 682.347C487.528 683.517 486.659 684.455 485.511 685.159C484.375 685.852 482.977 686.199 481.318 686.199C479.659 686.199 478.256 685.847 477.108 685.142C475.972 684.426 475.108 683.489 474.517 682.33C473.938 681.159 473.648 679.875 473.648 678.477ZM478.642 676.636V678.477C478.642 679.307 478.835 680.074 479.222 680.778C479.619 681.483 480.318 681.835 481.318 681.835C482.364 681.835 483.074 681.483 483.449 680.778C483.835 680.074 484.028 679.307 484.028 678.477V676.636C484.028 675.807 483.847 675.034 483.483 674.318C483.119 673.602 482.398 673.244 481.318 673.244C480.307 673.244 479.608 673.608 479.222 674.335C478.835 675.062 478.642 675.83 478.642 676.636ZM475.898 705L499.898 670.091H504.364L480.364 705H475.898Z" fill="black"/>
<path d="M61.8203 561.219C60.8411 561.219 59.9609 561.031 59.1797 560.656C58.4036 560.276 57.7839 559.755 57.3203 559.094C56.8568 558.432 56.6094 557.677 56.5781 556.828H58.9219C58.9792 557.516 59.2839 558.081 59.8359 558.523C60.388 558.966 61.0495 559.187 61.8203 559.187C62.4349 559.187 62.9792 559.047 63.4531 558.766C63.9323 558.479 64.3073 558.086 64.5781 557.586C64.8542 557.086 64.9922 556.516 64.9922 555.875C64.9922 555.224 64.8516 554.643 64.5703 554.133C64.2891 553.622 63.901 553.221 63.4063 552.93C62.9167 552.638 62.3542 552.49 61.7188 552.484C61.2344 552.484 60.7474 552.568 60.2578 552.734C59.7682 552.901 59.3724 553.12 59.0703 553.391L56.8594 553.062L57.7578 545H66.5547V547.07H59.7656L59.2578 551.547H59.3516C59.6641 551.245 60.0781 550.992 60.5938 550.789C61.1146 550.586 61.6719 550.484 62.2656 550.484C63.2396 550.484 64.1068 550.716 64.8672 551.18C65.6328 551.643 66.2344 552.276 66.6719 553.078C67.1146 553.875 67.3333 554.792 67.3281 555.828C67.3333 556.865 67.099 557.789 66.625 558.602C66.1563 559.414 65.5052 560.055 64.6719 560.523C63.8438 560.987 62.8932 561.219 61.8203 561.219ZM75.2794 544.781C75.9929 544.786 76.6961 544.917 77.3888 545.172C78.0815 545.427 78.7065 545.844 79.2638 546.422C79.8263 547 80.2742 547.781 80.6075 548.766C80.9461 549.745 81.1179 550.964 81.1231 552.422C81.1231 553.823 80.9825 555.07 80.7013 556.164C80.42 557.253 80.0164 558.172 79.4903 558.922C78.9695 559.672 78.3367 560.242 77.5919 560.633C76.8471 561.023 76.0086 561.219 75.0763 561.219C74.1231 561.219 73.2768 561.031 72.5372 560.656C71.7976 560.281 71.1961 559.763 70.7325 559.102C70.269 558.435 69.9799 557.669 69.8653 556.805H72.2481C72.4044 557.492 72.7221 558.049 73.2013 558.477C73.6856 558.898 74.3106 559.109 75.0763 559.109C76.2481 559.109 77.1622 558.599 77.8185 557.578C78.4747 556.552 78.8054 555.12 78.8106 553.281H78.6856C78.4148 553.729 78.0763 554.115 77.67 554.437C77.269 554.76 76.8185 555.01 76.3185 555.187C75.8185 555.365 75.2846 555.453 74.7169 555.453C73.795 555.453 72.9565 555.227 72.2013 554.773C71.4461 554.32 70.8445 553.698 70.3966 552.906C69.9487 552.115 69.7247 551.211 69.7247 550.195C69.7247 549.185 69.9539 548.268 70.4122 547.445C70.8758 546.622 71.5216 545.971 72.3497 545.492C73.183 545.008 74.1596 544.771 75.2794 544.781ZM75.2872 546.812C74.6778 546.812 74.1284 546.964 73.6388 547.266C73.1544 547.562 72.7716 547.966 72.4903 548.477C72.2091 548.982 72.0685 549.544 72.0685 550.164C72.0685 550.784 72.2039 551.346 72.4747 551.852C72.7508 552.352 73.1258 552.75 73.5997 553.047C74.0789 553.339 74.6258 553.484 75.2403 553.484C75.6987 553.484 76.1258 553.396 76.5216 553.219C76.9174 553.042 77.2638 552.797 77.5606 552.484C77.8575 552.167 78.0893 551.807 78.256 551.406C78.4226 551.005 78.506 550.583 78.506 550.141C78.506 549.552 78.3653 549.005 78.0841 548.5C77.808 547.995 77.4278 547.589 76.9435 547.281C76.4591 546.969 75.907 546.812 75.2872 546.812ZM86.2131 558.812L86.0959 559.664C86.0178 560.289 85.885 560.94 85.6975 561.617C85.5152 562.299 85.3251 562.932 85.1272 563.516C84.9344 564.099 84.7756 564.563 84.6506 564.906H82.9943C83.0621 564.583 83.1558 564.146 83.2756 563.594C83.3954 563.047 83.5126 562.435 83.6272 561.758C83.7417 561.081 83.8277 560.391 83.885 559.687L83.9631 558.812H86.2131ZM94.3851 544.781C95.0986 544.786 95.8017 544.917 96.4944 545.172C97.1872 545.427 97.8122 545.844 98.3694 546.422C98.9319 547 99.3799 547.781 99.7132 548.766C100.052 549.745 100.224 550.964 100.229 552.422C100.229 553.823 100.088 555.07 99.8069 556.164C99.5257 557.253 99.1221 558.172 98.596 558.922C98.0752 559.672 97.4424 560.242 96.6976 560.633C95.9528 561.023 95.1142 561.219 94.1819 561.219C93.2288 561.219 92.3825 561.031 91.6429 560.656C90.9033 560.281 90.3017 559.763 89.8382 559.102C89.3747 558.435 89.0856 557.669 88.971 556.805H91.3538C91.5101 557.492 91.8278 558.049 92.3069 558.477C92.7913 558.898 93.4163 559.109 94.1819 559.109C95.3538 559.109 96.2679 558.599 96.9241 557.578C97.5804 556.552 97.9111 555.12 97.9163 553.281H97.7913C97.5205 553.729 97.1819 554.115 96.7757 554.437C96.3747 554.76 95.9241 555.01 95.4241 555.187C94.9241 555.365 94.3903 555.453 93.8226 555.453C92.9007 555.453 92.0622 555.227 91.3069 554.773C90.5517 554.32 89.9502 553.698 89.5023 552.906C89.0543 552.115 88.8304 551.211 88.8304 550.195C88.8304 549.185 89.0596 548.268 89.5179 547.445C89.9814 546.622 90.6273 545.971 91.4554 545.492C92.2887 545.008 93.2653 544.771 94.3851 544.781ZM94.3929 546.812C93.7835 546.812 93.234 546.964 92.7444 547.266C92.2601 547.562 91.8773 547.966 91.596 548.477C91.3148 548.982 91.1741 549.544 91.1741 550.164C91.1741 550.784 91.3096 551.346 91.5804 551.852C91.8564 552.352 92.2314 552.75 92.7054 553.047C93.1846 553.339 93.7314 553.484 94.346 553.484C94.8043 553.484 95.2314 553.396 95.6273 553.219C96.0231 553.042 96.3694 552.797 96.6663 552.484C96.9632 552.167 97.195 551.807 97.3616 551.406C97.5283 551.005 97.6116 550.583 97.6116 550.141C97.6116 549.552 97.471 549.005 97.1898 548.5C96.9137 547.995 96.5335 547.589 96.0491 547.281C95.5648 546.969 95.0127 546.812 94.3929 546.812Z" fill="#CFCFCF"/>
<path d="M471.367 518.219C470.653 518.208 469.95 518.078 469.258 517.828C468.57 517.578 467.945 517.161 467.383 516.578C466.82 515.995 466.369 515.211 466.031 514.227C465.698 513.242 465.531 512.013 465.531 510.539C465.531 509.143 465.669 507.904 465.945 506.82C466.226 505.737 466.63 504.823 467.156 504.078C467.682 503.328 468.317 502.758 469.062 502.367C469.807 501.977 470.643 501.781 471.57 501.781C472.523 501.781 473.369 501.969 474.109 502.344C474.849 502.719 475.448 503.237 475.906 503.898C476.369 504.56 476.664 505.312 476.789 506.156H474.406C474.244 505.49 473.924 504.945 473.445 504.523C472.966 504.102 472.341 503.891 471.57 503.891C470.398 503.891 469.484 504.401 468.828 505.422C468.177 506.443 467.849 507.862 467.843 509.68H467.961C468.237 509.227 468.575 508.841 468.976 508.523C469.383 508.201 469.836 507.953 470.336 507.781C470.841 507.604 471.372 507.516 471.929 507.516C472.856 507.516 473.695 507.742 474.445 508.195C475.2 508.643 475.802 509.263 476.25 510.055C476.698 510.846 476.922 511.753 476.922 512.773C476.922 513.794 476.69 514.719 476.226 515.547C475.768 516.375 475.122 517.031 474.289 517.516C473.455 517.995 472.481 518.229 471.367 518.219ZM471.359 516.187C471.974 516.187 472.523 516.036 473.008 515.734C473.492 515.432 473.875 515.026 474.156 514.516C474.437 514.005 474.578 513.435 474.578 512.805C474.578 512.19 474.44 511.63 474.164 511.125C473.893 510.62 473.518 510.219 473.039 509.922C472.565 509.625 472.023 509.477 471.414 509.477C470.95 509.477 470.521 509.565 470.125 509.742C469.734 509.919 469.39 510.164 469.093 510.477C468.797 510.789 468.562 511.148 468.39 511.555C468.224 511.956 468.14 512.38 468.14 512.828C468.14 513.427 468.278 513.982 468.554 514.492C468.836 515.003 469.218 515.414 469.703 515.727C470.192 516.034 470.744 516.187 471.359 516.187ZM485.115 518.219C484.042 518.219 483.084 518.034 482.24 517.664C481.401 517.294 480.737 516.781 480.248 516.125C479.763 515.464 479.503 514.698 479.467 513.828H481.92C481.951 514.302 482.11 514.714 482.396 515.062C482.688 515.406 483.068 515.672 483.537 515.859C484.006 516.047 484.526 516.141 485.099 516.141C485.73 516.141 486.287 516.031 486.771 515.812C487.261 515.594 487.644 515.289 487.92 514.898C488.196 514.503 488.334 514.047 488.334 513.531C488.334 512.995 488.196 512.523 487.92 512.117C487.649 511.706 487.25 511.383 486.724 511.148C486.204 510.914 485.573 510.797 484.834 510.797H483.482V508.828H484.834C485.428 508.828 485.948 508.721 486.396 508.508C486.849 508.294 487.204 507.997 487.459 507.617C487.714 507.232 487.842 506.781 487.842 506.266C487.842 505.771 487.73 505.341 487.506 504.977C487.287 504.607 486.974 504.318 486.568 504.109C486.167 503.901 485.693 503.797 485.146 503.797C484.625 503.797 484.138 503.893 483.685 504.086C483.237 504.273 482.873 504.544 482.592 504.898C482.31 505.247 482.159 505.667 482.138 506.156H479.803C479.829 505.292 480.084 504.531 480.568 503.875C481.058 503.219 481.704 502.706 482.506 502.336C483.308 501.966 484.198 501.781 485.178 501.781C486.204 501.781 487.089 501.982 487.834 502.383C488.584 502.779 489.162 503.307 489.568 503.969C489.98 504.63 490.183 505.354 490.178 506.141C490.183 507.036 489.933 507.797 489.428 508.422C488.928 509.047 488.261 509.466 487.428 509.68V509.805C488.49 509.966 489.313 510.388 489.896 511.07C490.485 511.753 490.776 512.599 490.771 513.609C490.776 514.49 490.532 515.279 490.037 515.977C489.547 516.674 488.878 517.224 488.029 517.625C487.18 518.021 486.209 518.219 485.115 518.219ZM496.1 515.812L495.982 516.664C495.904 517.289 495.771 517.94 495.584 518.617C495.402 519.299 495.211 519.932 495.014 520.516C494.821 521.099 494.662 521.563 494.537 521.906H492.881C492.948 521.583 493.042 521.146 493.162 520.594C493.282 520.047 493.399 519.435 493.514 518.758C493.628 518.081 493.714 517.391 493.771 516.687L493.85 515.812H496.1ZM498.809 514.875V512.922L505.723 502H507.262V504.875H506.285L501.34 512.703V512.828H510.816V514.875H498.809ZM506.395 518V514.281L506.41 513.391V502H508.699V518H506.395Z" fill="#CFCFCF"/>
<rect x="40" y="750" width="491" height="295" rx="20" fill="#F7F7F7"/>
<path opacity="0.6" d="M56.2912 782V768.909H61.3026C62.2486 768.909 63.0348 769.058 63.6612 769.357C64.2919 769.651 64.7628 770.053 65.0739 770.565C65.3892 771.076 65.5469 771.656 65.5469 772.303C65.5469 772.836 65.4446 773.292 65.2401 773.671C65.0355 774.046 64.7607 774.351 64.4155 774.585C64.0703 774.82 63.6847 774.988 63.2585 775.09V775.218C63.723 775.244 64.1683 775.386 64.5945 775.646C65.0249 775.902 65.3764 776.264 65.6491 776.733C65.9219 777.202 66.0582 777.768 66.0582 778.433C66.0582 779.111 65.8942 779.72 65.5661 780.261C65.2379 780.798 64.7436 781.222 64.0831 781.533C63.4226 781.844 62.5916 782 61.5902 782H56.2912ZM58.6626 780.018H61.2131C62.0739 780.018 62.6939 779.854 63.0732 779.526C63.4567 779.194 63.6484 778.768 63.6484 778.248C63.6484 777.86 63.5526 777.511 63.3608 777.2C63.169 776.884 62.8963 776.637 62.5426 776.458C62.1889 776.275 61.767 776.183 61.277 776.183H58.6626V780.018ZM58.6626 774.477H61.0085C61.4176 774.477 61.7862 774.402 62.1143 774.253C62.4425 774.099 62.7003 773.884 62.8878 773.607C63.0795 773.326 63.1754 772.994 63.1754 772.61C63.1754 772.103 62.9964 771.685 62.6385 771.357C62.2848 771.029 61.7585 770.865 61.0597 770.865H58.6626V774.477ZM81.6187 775.455C81.6187 776.865 81.3545 778.073 80.8261 779.079C80.302 780.08 79.586 780.847 78.6784 781.38C77.775 781.913 76.7501 782.179 75.6038 782.179C74.4575 782.179 73.4305 781.913 72.5228 781.38C71.6194 780.843 70.9035 780.074 70.3751 779.072C69.851 778.067 69.5889 776.861 69.5889 775.455C69.5889 774.044 69.851 772.838 70.3751 771.837C70.9035 770.831 71.6194 770.062 72.5228 769.529C73.4305 768.996 74.4575 768.73 75.6038 768.73C76.7501 768.73 77.775 768.996 78.6784 769.529C79.586 770.062 80.302 770.831 80.8261 771.837C81.3545 772.838 81.6187 774.044 81.6187 775.455ZM79.2345 775.455C79.2345 774.462 79.0789 773.624 78.7679 772.942C78.461 772.256 78.0349 771.739 77.4895 771.389C76.944 771.036 76.3154 770.859 75.6038 770.859C74.8922 770.859 74.2636 771.036 73.7181 771.389C73.1727 771.739 72.7444 772.256 72.4333 772.942C72.1265 773.624 71.9731 774.462 71.9731 775.455C71.9731 776.447 72.1265 777.287 72.4333 777.973C72.7444 778.655 73.1727 779.173 73.7181 779.526C74.2636 779.876 74.8922 780.05 75.6038 780.05C76.3154 780.05 76.944 779.876 77.4895 779.526C78.0349 779.173 78.461 778.655 78.7679 777.973C79.0789 777.287 79.2345 776.447 79.2345 775.455ZM85.6607 782V768.909H94.1749V770.897H88.0322V774.451H93.7339V776.439H88.0322V780.012H94.2261V782H85.6607ZM98.3943 782V768.909H100.766V774.451H106.832V768.909H109.21V782H106.832V776.439H100.766V782H98.3943ZM113.589 782V768.909H115.96V774.451H122.026V768.909H124.404V782H122.026V776.439H115.96V782H113.589ZM130.464 782H127.933L132.542 768.909H135.469L140.085 782H137.553L134.057 771.594H133.955L130.464 782ZM130.548 776.867H137.451V778.772H130.548V776.867ZM153.274 782H150.896V770.891H148.722C148.134 770.891 147.651 770.978 147.271 771.153C146.896 771.323 146.617 771.575 146.434 771.907C146.255 772.235 146.166 772.631 146.166 773.096C146.166 773.56 146.255 773.952 146.434 774.272C146.613 774.587 146.89 774.828 147.265 774.994C147.644 775.156 148.126 775.237 148.71 775.237H151.893V777.206H148.39C147.384 777.206 146.536 777.04 145.846 776.707C145.156 776.371 144.632 775.896 144.274 775.282C143.92 774.664 143.743 773.935 143.743 773.096C143.743 772.261 143.918 771.53 144.267 770.903C144.621 770.273 145.141 769.783 145.827 769.433C146.513 769.084 147.357 768.909 148.358 768.909H153.274V782ZM146.504 776.068H149.093L145.91 782H143.264L146.504 776.068Z" fill="black"/>
<path opacity="0.4" d="M55 998.5H510.991V892H286L55 869V998.5Z" fill="url(#paint2_linear_3119_2451)"/>
<rect x="506.188" y="887" width="10.2717" height="10.2717" rx="5.13587" fill="#CACACA"/>
<path d="M511 893H286L55 868.5" stroke="#CACACA" stroke-width="4"/>
<path d="M366.074 983.445V1007.8L356.989 998.684L353 1002.64L368.955 1018.56L384.875 1002.64L380.955 998.684L371.835 1007.8V983.445H366.074Z" fill="#CACACA"/>
<path d="M411.212 1018.77C408.281 1018.76 405.758 1018.03 403.644 1016.6C401.542 1015.17 399.923 1013.1 398.786 1010.38C397.661 1007.66 397.104 1004.4 397.116 1000.58C397.116 996.773 397.678 993.528 398.803 990.847C399.94 988.165 401.559 986.125 403.661 984.727C405.775 983.318 408.292 982.614 411.212 982.614C414.133 982.614 416.644 983.318 418.746 984.727C420.86 986.136 422.485 988.182 423.621 990.864C424.758 993.534 425.32 996.773 425.309 1000.58C425.309 1004.41 424.741 1007.68 423.604 1010.4C422.479 1013.11 420.866 1015.19 418.763 1016.62C416.661 1018.05 414.144 1018.77 411.212 1018.77ZM411.212 1012.65C413.212 1012.65 414.809 1011.64 416.002 1009.63C417.195 1007.62 417.786 1004.6 417.775 1000.58C417.775 997.932 417.502 995.727 416.957 993.966C416.423 992.205 415.661 990.881 414.673 989.994C413.695 989.108 412.542 988.665 411.212 988.665C409.224 988.665 407.633 989.659 406.44 991.648C405.246 993.636 404.644 996.614 404.633 1000.58C404.633 1003.26 404.9 1005.5 405.434 1007.3C405.979 1009.08 406.746 1010.42 407.735 1011.32C408.724 1012.2 409.883 1012.65 411.212 1012.65ZM436.634 1013.23L436.446 1015.1C436.298 1016.6 436.014 1018.1 435.594 1019.59C435.185 1021.09 434.753 1022.44 434.298 1023.66C433.855 1024.88 433.497 1025.83 433.224 1026.52H428.52C428.69 1025.85 428.923 1024.91 429.219 1023.71C429.514 1022.52 429.793 1021.18 430.054 1019.69C430.315 1018.2 430.48 1016.68 430.548 1015.14L430.634 1013.23H436.634ZM442.712 1018V1012.68L455.138 1001.18C456.195 1000.15 457.082 999.233 457.798 998.415C458.525 997.597 459.076 996.795 459.451 996.011C459.826 995.216 460.013 994.358 460.013 993.438C460.013 992.415 459.781 991.534 459.315 990.795C458.849 990.045 458.212 989.472 457.406 989.074C456.599 988.665 455.684 988.46 454.661 988.46C453.593 988.46 452.661 988.676 451.866 989.108C451.07 989.54 450.457 990.159 450.025 990.966C449.593 991.773 449.377 992.733 449.377 993.847H442.371C442.371 991.562 442.888 989.58 443.923 987.898C444.957 986.216 446.406 984.915 448.269 983.994C450.133 983.074 452.281 982.614 454.712 982.614C457.212 982.614 459.388 983.057 461.241 983.943C463.104 984.818 464.553 986.034 465.587 987.591C466.621 989.148 467.138 990.932 467.138 992.943C467.138 994.261 466.877 995.562 466.354 996.847C465.843 998.131 464.928 999.557 463.61 1001.12C462.292 1002.68 460.434 1004.55 458.036 1006.73L452.94 1011.73V1011.97H467.599V1018H442.712ZM491.562 1011.45V1009.61C491.562 1008.22 491.858 1006.93 492.449 1005.76C493.051 1004.58 493.92 1003.64 495.057 1002.93C496.205 1002.22 497.602 1001.86 499.25 1001.86C500.92 1001.86 502.324 1002.21 503.46 1002.91C504.608 1003.62 505.472 1004.56 506.051 1005.74C506.642 1006.91 506.938 1008.2 506.938 1009.61V1011.45C506.938 1012.85 506.642 1014.14 506.051 1015.32C505.46 1016.49 504.591 1017.43 503.443 1018.14C502.295 1018.85 500.898 1019.21 499.25 1019.21C497.58 1019.21 496.176 1018.85 495.04 1018.14C493.903 1017.43 493.04 1016.49 492.449 1015.32C491.858 1014.14 491.562 1012.85 491.562 1011.45ZM496.523 1009.61V1011.45C496.523 1012.26 496.716 1013.02 497.102 1013.74C497.5 1014.45 498.216 1014.81 499.25 1014.81C500.284 1014.81 500.989 1014.46 501.364 1013.76C501.75 1013.05 501.943 1012.28 501.943 1011.45V1009.61C501.943 1008.78 501.761 1008.01 501.398 1007.3C501.034 1006.58 500.318 1006.22 499.25 1006.22C498.227 1006.22 497.517 1006.58 497.119 1007.3C496.722 1008.01 496.523 1008.78 496.523 1009.61ZM473.648 991.477V989.636C473.648 988.227 473.949 986.937 474.551 985.767C475.153 984.585 476.023 983.642 477.159 982.938C478.307 982.233 479.693 981.881 481.318 981.881C483 981.881 484.409 982.233 485.545 982.938C486.682 983.642 487.545 984.585 488.136 985.767C488.727 986.937 489.023 988.227 489.023 989.636V991.477C489.023 992.886 488.722 994.176 488.119 995.347C487.528 996.517 486.659 997.455 485.511 998.159C484.375 998.852 482.977 999.199 481.318 999.199C479.659 999.199 478.256 998.847 477.108 998.142C475.972 997.426 475.108 996.489 474.517 995.33C473.938 994.159 473.648 992.875 473.648 991.477ZM478.642 989.636V991.477C478.642 992.307 478.835 993.074 479.222 993.778C479.619 994.483 480.318 994.835 481.318 994.835C482.364 994.835 483.074 994.483 483.449 993.778C483.835 993.074 484.028 992.307 484.028 991.477V989.636C484.028 988.807 483.847 988.034 483.483 987.318C483.119 986.602 482.398 986.244 481.318 986.244C480.307 986.244 479.608 986.608 479.222 987.335C478.835 988.062 478.642 988.83 478.642 989.636ZM475.898 1018L499.898 983.091H504.364L480.364 1018H475.898Z" fill="black"/>
<path d="M62.6094 839V855H60.1875V841.422H60.0938L56.2656 843.922V841.609L60.2578 839H62.6094Z" fill="#CFCFCF"/>
<path d="M486.232 877.266C484.998 877.26 483.943 876.935 483.068 876.289C482.193 875.643 481.524 874.703 481.06 873.469C480.597 872.234 480.365 870.747 480.365 869.008C480.365 867.273 480.597 865.792 481.06 864.562C481.529 863.333 482.201 862.396 483.076 861.75C483.956 861.104 485.008 860.781 486.232 860.781C487.456 860.781 488.506 861.107 489.381 861.758C490.256 862.404 490.925 863.341 491.388 864.57C491.857 865.794 492.092 867.273 492.092 869.008C492.092 870.753 491.86 872.242 491.396 873.477C490.933 874.706 490.263 875.646 489.388 876.297C488.513 876.943 487.461 877.266 486.232 877.266ZM486.232 875.18C487.316 875.18 488.162 874.651 488.771 873.594C489.386 872.536 489.693 871.008 489.693 869.008C489.693 867.68 489.553 866.557 489.271 865.641C488.995 864.719 488.597 864.021 488.076 863.547C487.56 863.068 486.946 862.828 486.232 862.828C485.154 862.828 484.308 863.359 483.693 864.422C483.079 865.484 482.769 867.013 482.763 869.008C482.763 870.341 482.901 871.469 483.178 872.391C483.459 873.307 483.857 874.003 484.373 874.477C484.888 874.945 485.508 875.18 486.232 875.18ZM497.131 874.812L497.014 875.664C496.935 876.289 496.803 876.94 496.615 877.617C496.433 878.299 496.243 878.932 496.045 879.516C495.852 880.099 495.693 880.563 495.568 880.906H493.912C493.98 880.583 494.073 880.146 494.193 879.594C494.313 879.047 494.43 878.435 494.545 877.758C494.659 877.081 494.745 876.391 494.803 875.687L494.881 874.812H497.131ZM505.045 877.219C503.925 877.219 502.936 877.026 502.076 876.641C501.222 876.255 500.553 875.724 500.068 875.047C499.584 874.37 499.344 873.599 499.35 872.734C499.344 872.057 499.482 871.435 499.764 870.867C500.05 870.294 500.438 869.818 500.928 869.438C501.417 869.052 501.964 868.807 502.568 868.703V868.609C501.771 868.417 501.133 867.99 500.654 867.328C500.175 866.667 499.938 865.906 499.943 865.047C499.938 864.229 500.154 863.5 500.592 862.859C501.035 862.214 501.641 861.706 502.412 861.336C503.183 860.966 504.061 860.781 505.045 860.781C506.019 860.781 506.889 860.969 507.654 861.344C508.425 861.714 509.032 862.221 509.475 862.867C509.917 863.508 510.141 864.234 510.146 865.047C510.141 865.906 509.896 866.667 509.412 867.328C508.928 867.99 508.298 868.417 507.521 868.609V868.703C508.12 868.807 508.66 869.052 509.139 869.438C509.623 869.818 510.008 870.294 510.295 870.867C510.587 871.435 510.735 872.057 510.74 872.734C510.735 873.599 510.49 874.37 510.006 875.047C509.521 875.724 508.85 876.255 507.99 876.641C507.136 877.026 506.154 877.219 505.045 877.219ZM505.045 875.242C505.706 875.242 506.279 875.133 506.764 874.914C507.248 874.69 507.623 874.38 507.889 873.984C508.154 873.583 508.29 873.115 508.295 872.578C508.29 872.021 508.144 871.529 507.857 871.102C507.576 870.674 507.193 870.339 506.709 870.094C506.225 869.849 505.67 869.727 505.045 869.727C504.415 869.727 503.855 869.849 503.365 870.094C502.876 870.339 502.49 870.674 502.209 871.102C501.928 871.529 501.79 872.021 501.795 872.578C501.79 873.115 501.917 873.583 502.178 873.984C502.443 874.38 502.821 874.69 503.311 874.914C503.8 875.133 504.378 875.242 505.045 875.242ZM505.045 867.797C505.576 867.797 506.048 867.69 506.459 867.477C506.87 867.263 507.193 866.966 507.428 866.586C507.667 866.206 507.79 865.76 507.795 865.25C507.79 864.75 507.67 864.313 507.436 863.938C507.206 863.562 506.886 863.273 506.475 863.07C506.063 862.862 505.587 862.758 505.045 862.758C504.493 862.758 504.008 862.862 503.592 863.07C503.18 863.273 502.86 863.562 502.631 863.938C502.402 864.313 502.29 864.75 502.295 865.25C502.29 865.76 502.404 866.206 502.639 866.586C502.873 866.966 503.196 867.263 503.607 867.477C504.024 867.69 504.503 867.797 505.045 867.797Z" fill="#CFCFCF"/>
<rect x="549" y="437" width="491" height="295" rx="20" fill="#F7F7F7"/>
<path opacity="0.6" d="M567.663 458.909V472H565.291V458.909H567.663ZM571.455 460.897V458.909H581.9V460.897H577.854V472H575.502V460.897H571.455ZM590.754 464.502V466.407H584.86V464.502H590.754ZM595.09 458.909H597.442V467.832H597.563L603.719 458.909H605.847V472H603.476V463.083H603.367L597.193 472H595.09V458.909ZM620.913 458.909V472H618.56V460.878H612.833V472H610.481V458.909H620.913ZM637.246 465.455C637.246 466.865 636.982 468.073 636.454 469.079C635.93 470.08 635.214 470.847 634.306 471.38C633.403 471.913 632.378 472.179 631.232 472.179C630.085 472.179 629.058 471.913 628.151 471.38C627.247 470.843 626.531 470.074 626.003 469.072C625.479 468.067 625.217 466.861 625.217 465.455C625.217 464.044 625.479 462.838 626.003 461.837C626.531 460.831 627.247 460.062 628.151 459.529C629.058 458.996 630.085 458.73 631.232 458.73C632.378 458.73 633.403 458.996 634.306 459.529C635.214 460.062 635.93 460.831 636.454 461.837C636.982 462.838 637.246 464.044 637.246 465.455ZM634.862 465.455C634.862 464.462 634.707 463.624 634.396 462.942C634.089 462.256 633.663 461.739 633.117 461.389C632.572 461.036 631.943 460.859 631.232 460.859C630.52 460.859 629.891 461.036 629.346 461.389C628.8 461.739 628.372 462.256 628.061 462.942C627.754 463.624 627.601 464.462 627.601 465.455C627.601 466.447 627.754 467.287 628.061 467.973C628.372 468.655 628.8 469.173 629.346 469.526C629.891 469.876 630.52 470.05 631.232 470.05C631.943 470.05 632.572 469.876 633.117 469.526C633.663 469.173 634.089 468.655 634.396 467.973C634.707 467.287 634.862 466.447 634.862 465.455ZM640.133 460.897V458.909H650.578V460.897H646.532V472H644.179V460.897H640.133ZM654.391 472V458.909H662.905V460.897H656.763V464.451H662.464V466.439H656.763V470.012H662.957V472H654.391ZM674.968 472L670.66 466.279H669.496V472H667.125V458.909H669.496V464.291H670.091L674.744 458.909H677.665L672.494 464.879L677.889 472H674.968ZM682.981 472H680.45L685.058 458.909H687.986L692.601 472H690.07L686.573 461.594H686.471L682.981 472ZM683.064 466.867H689.967V468.772H683.064V466.867Z" fill="black"/>
<path opacity="0.4" d="M1019.99 685.5H564V561H863C863 561 1017.36 536.835 1019.99 536.021V536C1020.04 536 1020.04 536.007 1019.99 536.021V685.5Z" fill="url(#paint3_linear_3119_2451)"/>
<rect x="1015.19" y="531" width="10.2717" height="10.2717" rx="5.13587" fill="#04B34A"/>
<path d="M1017.5 537L866.226 560.652C864.744 560.884 863.247 561 861.747 561H563.5" stroke="#04B34A" stroke-width="4"/>
<path d="M875.074 705.555V681.197L865.989 690.316L862 686.362L877.955 670.441L893.875 686.362L889.955 690.316L880.835 681.197V705.555H875.074Z" fill="#04B34A"/>
<path d="M920.165 705.767C917.234 705.756 914.711 705.034 912.597 703.602C910.495 702.17 908.876 700.097 907.739 697.381C906.614 694.665 906.058 691.398 906.069 687.58C906.069 683.773 906.631 680.528 907.756 677.847C908.893 675.165 910.512 673.125 912.614 671.727C914.728 670.318 917.245 669.614 920.165 669.614C923.086 669.614 925.597 670.318 927.7 671.727C929.813 673.136 931.438 675.182 932.575 677.864C933.711 680.534 934.273 683.773 934.262 687.58C934.262 691.409 933.694 694.682 932.558 697.398C931.433 700.114 929.819 702.187 927.717 703.619C925.614 705.051 923.097 705.767 920.165 705.767ZM920.165 699.648C922.165 699.648 923.762 698.642 924.955 696.631C926.148 694.619 926.739 691.602 926.728 687.58C926.728 684.932 926.455 682.727 925.91 680.966C925.376 679.205 924.614 677.881 923.626 676.994C922.648 676.108 921.495 675.665 920.165 675.665C918.177 675.665 916.586 676.659 915.393 678.648C914.2 680.636 913.597 683.614 913.586 687.58C913.586 690.261 913.853 692.5 914.387 694.295C914.933 696.08 915.7 697.42 916.688 698.318C917.677 699.205 918.836 699.648 920.165 699.648ZM945.587 700.227L945.399 702.102C945.251 703.602 944.967 705.097 944.547 706.585C944.138 708.085 943.706 709.443 943.251 710.659C942.808 711.875 942.45 712.83 942.178 713.523H937.473C937.643 712.852 937.876 711.915 938.172 710.71C938.467 709.517 938.746 708.176 939.007 706.688C939.268 705.199 939.433 703.682 939.501 702.136L939.587 700.227H945.587ZM963.657 705.477C961.862 705.466 960.129 705.165 958.458 704.574C956.799 703.983 955.31 703.023 953.992 701.693C952.674 700.364 951.629 698.602 950.856 696.409C950.094 694.216 949.714 691.523 949.714 688.33C949.725 685.398 950.06 682.778 950.719 680.472C951.39 678.153 952.344 676.187 953.583 674.574C954.833 672.96 956.327 671.733 958.066 670.892C959.805 670.04 961.754 669.614 963.913 669.614C966.242 669.614 968.299 670.068 970.083 670.977C971.867 671.875 973.299 673.097 974.379 674.642C975.469 676.188 976.129 677.92 976.356 679.841H969.077C968.793 678.625 968.197 677.67 967.288 676.977C966.379 676.284 965.254 675.938 963.913 675.938C961.64 675.938 959.913 676.926 958.731 678.903C957.56 680.881 956.964 683.568 956.941 686.966H957.18C957.702 685.932 958.407 685.051 959.293 684.324C960.191 683.585 961.208 683.023 962.344 682.636C963.492 682.239 964.702 682.04 965.975 682.04C968.043 682.04 969.884 682.528 971.498 683.506C973.112 684.472 974.384 685.801 975.316 687.494C976.248 689.187 976.714 691.125 976.714 693.307C976.714 695.67 976.163 697.773 975.06 699.614C973.969 701.455 972.441 702.898 970.475 703.943C968.521 704.977 966.248 705.489 963.657 705.477ZM963.623 699.682C964.759 699.682 965.776 699.409 966.674 698.864C967.572 698.318 968.276 697.58 968.788 696.648C969.299 695.716 969.555 694.67 969.555 693.511C969.555 692.352 969.299 691.312 968.788 690.392C968.288 689.472 967.594 688.739 966.708 688.193C965.822 687.648 964.81 687.375 963.674 687.375C962.822 687.375 962.032 687.534 961.305 687.852C960.589 688.17 959.958 688.614 959.413 689.182C958.879 689.75 958.458 690.409 958.151 691.159C957.844 691.898 957.691 692.687 957.691 693.528C957.691 694.653 957.947 695.682 958.458 696.614C958.981 697.545 959.685 698.29 960.572 698.847C961.469 699.403 962.487 699.682 963.623 699.682ZM1000.56 698.455V696.614C1000.56 695.216 1000.86 693.932 1001.45 692.761C1002.05 691.58 1002.92 690.636 1004.06 689.932C1005.2 689.216 1006.6 688.858 1008.25 688.858C1009.92 688.858 1011.32 689.21 1012.46 689.915C1013.61 690.619 1014.47 691.562 1015.05 692.744C1015.64 693.915 1015.94 695.205 1015.94 696.614V698.455C1015.94 699.852 1015.64 701.142 1015.05 702.324C1014.46 703.494 1013.59 704.432 1012.44 705.136C1011.3 705.852 1009.9 706.21 1008.25 706.21C1006.58 706.21 1005.18 705.852 1004.04 705.136C1002.9 704.432 1002.04 703.494 1001.45 702.324C1000.86 701.142 1000.56 699.852 1000.56 698.455ZM1005.52 696.614V698.455C1005.52 699.261 1005.72 700.023 1006.1 700.739C1006.5 701.455 1007.22 701.812 1008.25 701.812C1009.28 701.812 1009.99 701.46 1010.36 700.756C1010.75 700.051 1010.94 699.284 1010.94 698.455V696.614C1010.94 695.784 1010.76 695.011 1010.4 694.295C1010.03 693.58 1009.32 693.222 1008.25 693.222C1007.23 693.222 1006.52 693.58 1006.12 694.295C1005.72 695.011 1005.52 695.784 1005.52 696.614ZM982.648 678.477V676.636C982.648 675.227 982.949 673.937 983.551 672.767C984.153 671.585 985.023 670.642 986.159 669.938C987.307 669.233 988.693 668.881 990.318 668.881C992 668.881 993.409 669.233 994.545 669.938C995.682 670.642 996.545 671.585 997.136 672.767C997.727 673.937 998.023 675.227 998.023 676.636V678.477C998.023 679.886 997.722 681.176 997.119 682.347C996.528 683.517 995.659 684.455 994.511 685.159C993.375 685.852 991.977 686.199 990.318 686.199C988.659 686.199 987.256 685.847 986.108 685.142C984.972 684.426 984.108 683.489 983.517 682.33C982.938 681.159 982.648 679.875 982.648 678.477ZM987.642 676.636V678.477C987.642 679.307 987.835 680.074 988.222 680.778C988.619 681.483 989.318 681.835 990.318 681.835C991.364 681.835 992.074 681.483 992.449 680.778C992.835 680.074 993.028 679.307 993.028 678.477V676.636C993.028 675.807 992.847 675.034 992.483 674.318C992.119 673.602 991.398 673.244 990.318 673.244C989.307 673.244 988.608 673.608 988.222 674.335C987.835 675.062 987.642 675.83 987.642 676.636ZM984.898 705L1008.9 670.091H1013.36L989.364 705H984.898Z" fill="black"/>
<path d="M571.609 528V544H569.188V530.422H569.094L565.266 532.922V530.609L569.258 528H571.609ZM577.861 541.812L577.744 542.664C577.666 543.289 577.533 543.94 577.346 544.617C577.164 545.299 576.973 545.932 576.775 546.516C576.583 547.099 576.424 547.563 576.299 547.906H574.643C574.71 547.583 574.804 547.146 574.924 546.594C575.044 546.047 575.161 545.435 575.275 544.758C575.39 544.081 575.476 543.391 575.533 542.687L575.611 541.812H577.861ZM585.912 544.219C585.199 544.208 584.496 544.078 583.803 543.828C583.115 543.578 582.49 543.161 581.928 542.578C581.365 541.995 580.915 541.211 580.576 540.227C580.243 539.242 580.076 538.013 580.076 536.539C580.076 535.143 580.214 533.904 580.49 532.82C580.772 531.737 581.175 530.823 581.701 530.078C582.227 529.328 582.863 528.758 583.608 528.367C584.352 527.977 585.188 527.781 586.115 527.781C587.069 527.781 587.915 527.969 588.655 528.344C589.394 528.719 589.993 529.237 590.451 529.898C590.915 530.56 591.209 531.312 591.334 532.156H588.951C588.79 531.49 588.47 530.945 587.99 530.523C587.511 530.102 586.886 529.891 586.115 529.891C584.944 529.891 584.03 530.401 583.373 531.422C582.722 532.443 582.394 533.862 582.389 535.68H582.506C582.782 535.227 583.121 534.841 583.522 534.523C583.928 534.201 584.381 533.953 584.881 533.781C585.386 533.604 585.918 533.516 586.475 533.516C587.402 533.516 588.24 533.742 588.99 534.195C589.746 534.643 590.347 535.263 590.795 536.055C591.243 536.846 591.467 537.753 591.467 538.773C591.467 539.794 591.235 540.719 590.772 541.547C590.313 542.375 589.668 543.031 588.834 543.516C588.001 543.995 587.027 544.229 585.912 544.219ZM585.905 542.187C586.519 542.187 587.069 542.036 587.553 541.734C588.037 541.432 588.42 541.026 588.701 540.516C588.983 540.005 589.123 539.435 589.123 538.805C589.123 538.19 588.985 537.63 588.709 537.125C588.438 536.62 588.063 536.219 587.584 535.922C587.11 535.625 586.569 535.477 585.959 535.477C585.496 535.477 585.066 535.565 584.67 535.742C584.28 535.919 583.936 536.164 583.639 536.477C583.342 536.789 583.108 537.148 582.936 537.555C582.769 537.956 582.686 538.38 582.686 538.828C582.686 539.427 582.824 539.982 583.1 540.492C583.381 541.003 583.764 541.414 584.248 541.727C584.738 542.034 585.29 542.187 585.905 542.187Z" fill="#CFCFCF"/>
<path d="M989.662 518V516.25L995.076 510.641C995.654 510.031 996.131 509.497 996.506 509.039C996.886 508.576 997.17 508.135 997.357 507.719C997.545 507.302 997.638 506.859 997.638 506.391C997.638 505.859 997.513 505.401 997.263 505.016C997.013 504.625 996.672 504.326 996.24 504.117C995.808 503.904 995.321 503.797 994.779 503.797C994.206 503.797 993.706 503.914 993.279 504.148C992.852 504.383 992.524 504.714 992.295 505.141C992.066 505.568 991.951 506.068 991.951 506.641H989.646C989.646 505.667 989.87 504.815 990.318 504.086C990.766 503.357 991.381 502.792 992.162 502.391C992.943 501.984 993.831 501.781 994.826 501.781C995.831 501.781 996.717 501.982 997.482 502.383C998.253 502.779 998.855 503.32 999.287 504.008C999.719 504.69 999.935 505.461 999.935 506.32C999.935 506.914 999.823 507.495 999.599 508.062C999.381 508.63 998.998 509.263 998.451 509.961C997.904 510.654 997.144 511.495 996.17 512.484L992.99 515.812V515.93H1000.19V518H989.662ZM1006 515.812L1005.88 516.664C1005.81 517.289 1005.67 517.94 1005.49 518.617C1005.3 519.299 1005.11 519.932 1004.92 520.516C1004.72 521.099 1004.56 521.563 1004.44 521.906H1002.78C1002.85 521.583 1002.94 521.146 1003.06 520.594C1003.18 520.047 1003.3 519.435 1003.42 518.758C1003.53 518.081 1003.62 517.391 1003.67 516.687L1003.75 515.812H1006ZM1009.05 518V516.25L1014.46 510.641C1015.04 510.031 1015.52 509.497 1015.89 509.039C1016.27 508.576 1016.55 508.135 1016.74 507.719C1016.93 507.302 1017.02 506.859 1017.02 506.391C1017.02 505.859 1016.9 505.401 1016.65 505.016C1016.4 504.625 1016.06 504.326 1015.63 504.117C1015.19 503.904 1014.71 503.797 1014.16 503.797C1013.59 503.797 1013.09 503.914 1012.66 504.148C1012.24 504.383 1011.91 504.714 1011.68 505.141C1011.45 505.568 1011.34 506.068 1011.34 506.641H1009.03C1009.03 505.667 1009.26 504.815 1009.7 504.086C1010.15 503.357 1010.77 502.792 1011.55 502.391C1012.33 501.984 1013.22 501.781 1014.21 501.781C1015.22 501.781 1016.1 501.982 1016.87 502.383C1017.64 502.779 1018.24 503.32 1018.67 504.008C1019.1 504.69 1019.32 505.461 1019.32 506.32C1019.32 506.914 1019.21 507.495 1018.98 508.062C1018.77 508.63 1018.38 509.263 1017.84 509.961C1017.29 510.654 1016.53 511.495 1015.55 512.484L1012.38 515.812V515.93H1019.58V518H1009.05Z" fill="#CFCFCF"/>
<rect x="549" y="750" width="491" height="295" rx="20" fill="#F7F7F7"/>
<path opacity="0.6" d="M564.441 785.158V780.063H565.317C565.611 779.829 565.886 779.499 566.141 779.072C566.397 778.646 566.614 778.062 566.793 777.321C566.972 776.58 567.096 775.621 567.164 774.445L567.509 768.909H575.876V780.063H577.334V785.145H575.058V782H566.717V785.158H564.441ZM568.078 780.063H573.601V770.897H569.644L569.44 774.445C569.384 775.335 569.295 776.132 569.171 776.835C569.048 777.538 568.892 778.158 568.705 778.695C568.517 779.228 568.308 779.684 568.078 780.063ZM582.747 782H580.216L584.824 768.909H587.752L592.367 782H589.836L586.339 771.594H586.237L582.747 782ZM582.83 776.867H589.733V778.772H582.83V776.867ZM595.041 782V780.031L595.412 780.012C595.915 779.982 596.313 779.801 596.607 779.469C596.905 779.136 597.125 778.602 597.265 777.864C597.41 777.127 597.506 776.138 597.553 774.898L597.77 768.909H606.349V782H604.028V770.859H599.982L599.778 775.634C599.718 777.065 599.56 778.252 599.305 779.194C599.053 780.136 598.64 780.839 598.064 781.303C597.493 781.768 596.699 782 595.68 782H595.041ZM612.339 773.965H615.662C616.664 773.965 617.523 774.129 618.238 774.457C618.959 774.781 619.51 775.239 619.894 775.832C620.277 776.424 620.469 777.121 620.469 777.922C620.469 778.727 620.277 779.437 619.894 780.05C619.51 780.66 618.959 781.137 618.238 781.482C617.523 781.827 616.664 782 615.662 782H610.76V768.909H613.138V780.057H615.662C616.191 780.057 616.638 779.957 617.005 779.756C617.371 779.556 617.648 779.292 617.836 778.964C618.027 778.636 618.123 778.28 618.123 777.896C618.123 777.342 617.91 776.871 617.484 776.484C617.062 776.092 616.455 775.896 615.662 775.896H612.339V773.965ZM624.575 782V768.909H626.947V774.451H633.013V768.909H635.391V782H633.013V776.439H626.947V782H624.575ZM639.77 782V768.909H648.284V770.897H642.141V774.451H647.843V776.439H642.141V780.012H648.335V782H639.77ZM652.503 782V768.909H657.515C658.461 768.909 659.247 769.058 659.873 769.357C660.504 769.651 660.975 770.053 661.286 770.565C661.601 771.076 661.759 771.656 661.759 772.303C661.759 772.836 661.657 773.292 661.452 773.671C661.248 774.046 660.973 774.351 660.628 774.585C660.282 774.82 659.897 774.988 659.471 775.09V775.218C659.935 775.244 660.38 775.386 660.807 775.646C661.237 775.902 661.589 776.264 661.861 776.733C662.134 777.202 662.27 777.768 662.27 778.433C662.27 779.111 662.106 779.72 661.778 780.261C661.45 780.798 660.956 781.222 660.295 781.533C659.635 781.844 658.804 782 657.802 782H652.503ZM654.875 780.018H657.425C658.286 780.018 658.906 779.854 659.285 779.526C659.669 779.194 659.861 778.768 659.861 778.248C659.861 777.86 659.765 777.511 659.573 777.2C659.381 776.884 659.108 776.637 658.755 776.458C658.401 776.275 657.979 776.183 657.489 776.183H654.875V780.018ZM654.875 774.477H657.221C657.63 774.477 657.998 774.402 658.326 774.253C658.655 774.099 658.912 773.884 659.1 773.607C659.292 773.326 659.388 772.994 659.388 772.61C659.388 772.103 659.209 771.685 658.851 771.357C658.497 771.029 657.971 770.865 657.272 770.865H654.875V774.477ZM677.831 775.455C677.831 776.865 677.567 778.073 677.038 779.079C676.514 780.08 675.798 780.847 674.89 781.38C673.987 781.913 672.962 782.179 671.816 782.179C670.67 782.179 669.643 781.913 668.735 781.38C667.832 780.843 667.116 780.074 666.587 779.072C666.063 778.067 665.801 776.861 665.801 775.455C665.801 774.044 666.063 772.838 666.587 771.837C667.116 770.831 667.832 770.062 668.735 769.529C669.643 768.996 670.67 768.73 671.816 768.73C672.962 768.73 673.987 768.996 674.89 769.529C675.798 770.062 676.514 770.831 677.038 771.837C677.567 772.838 677.831 774.044 677.831 775.455ZM675.447 775.455C675.447 774.462 675.291 773.624 674.98 772.942C674.673 772.256 674.247 771.739 673.702 771.389C673.156 771.036 672.528 770.859 671.816 770.859C671.104 770.859 670.476 771.036 669.93 771.389C669.385 771.739 668.957 772.256 668.645 772.942C668.339 773.624 668.185 774.462 668.185 775.455C668.185 776.447 668.339 777.287 668.645 777.973C668.957 778.655 669.385 779.173 669.93 779.526C670.476 779.876 671.104 780.05 671.816 780.05C672.528 780.05 673.156 779.876 673.702 779.526C674.247 779.173 674.673 778.655 674.98 777.973C675.291 777.287 675.447 776.447 675.447 775.455ZM693.078 773.326H690.687C690.619 772.934 690.494 772.587 690.31 772.284C690.127 771.977 689.899 771.717 689.626 771.504C689.354 771.291 689.043 771.131 688.693 771.025C688.348 770.914 687.975 770.859 687.575 770.859C686.863 770.859 686.232 771.038 685.682 771.396C685.133 771.749 684.702 772.269 684.391 772.955C684.08 773.637 683.925 774.47 683.925 775.455C683.925 776.456 684.08 777.3 684.391 777.986C684.707 778.668 685.137 779.183 685.682 779.533C686.232 779.878 686.861 780.05 687.568 780.05C687.96 780.05 688.327 779.999 688.668 779.897C689.013 779.79 689.322 779.635 689.594 779.43C689.871 779.226 690.104 778.974 690.291 778.676C690.483 778.378 690.615 778.037 690.687 777.653L693.078 777.666C692.989 778.288 692.795 778.872 692.496 779.418C692.202 779.963 691.817 780.445 691.339 780.862C690.862 781.276 690.304 781.599 689.665 781.834C689.026 782.064 688.316 782.179 687.536 782.179C686.386 782.179 685.359 781.913 684.455 781.38C683.552 780.847 682.84 780.078 682.32 779.072C681.8 778.067 681.54 776.861 681.54 775.455C681.54 774.044 681.803 772.838 682.327 771.837C682.851 770.831 683.565 770.062 684.468 769.529C685.371 768.996 686.394 768.73 687.536 768.73C688.265 768.73 688.942 768.832 689.569 769.037C690.195 769.241 690.754 769.542 691.244 769.938C691.734 770.33 692.136 770.812 692.452 771.383C692.771 771.95 692.98 772.597 693.078 773.326ZM696.474 770.897V768.909H706.919V770.897H702.873V782H700.521V770.897H696.474ZM721.85 775.455C721.85 776.865 721.586 778.073 721.057 779.079C720.533 780.08 719.817 780.847 718.91 781.38C718.006 781.913 716.981 782.179 715.835 782.179C714.689 782.179 713.662 781.913 712.754 781.38C711.851 780.843 711.135 780.074 710.606 779.072C710.082 778.067 709.82 776.861 709.82 775.455C709.82 774.044 710.082 772.838 710.606 771.837C711.135 770.831 711.851 770.062 712.754 769.529C713.662 768.996 714.689 768.73 715.835 768.73C716.981 768.73 718.006 768.996 718.91 769.529C719.817 770.062 720.533 770.831 721.057 771.837C721.586 772.838 721.85 774.044 721.85 775.455ZM719.466 775.455C719.466 774.462 719.31 773.624 718.999 772.942C718.692 772.256 718.266 771.739 717.721 771.389C717.175 771.036 716.547 770.859 715.835 770.859C715.123 770.859 714.495 771.036 713.949 771.389C713.404 771.739 712.976 772.256 712.665 772.942C712.358 773.624 712.204 774.462 712.204 775.455C712.204 776.447 712.358 777.287 712.665 777.973C712.976 778.655 713.404 779.173 713.949 779.526C714.495 779.876 715.123 780.05 715.835 780.05C716.547 780.05 717.175 779.876 717.721 779.526C718.266 779.173 718.692 778.655 718.999 777.973C719.31 777.287 719.466 776.447 719.466 775.455ZM726.282 768.909H728.602V773.179C728.602 773.733 728.698 774.172 728.89 774.496C729.086 774.82 729.376 775.052 729.759 775.192C730.143 775.333 730.62 775.403 731.191 775.403C731.447 775.403 731.722 775.395 732.016 775.378C732.314 775.357 732.614 775.329 732.917 775.295C733.219 775.256 733.509 775.212 733.786 775.161C734.063 775.105 734.31 775.045 734.528 774.982V776.912C734.31 776.98 734.067 777.042 733.799 777.097C733.53 777.153 733.247 777.2 732.949 777.238C732.651 777.276 732.352 777.306 732.054 777.327C731.756 777.349 731.468 777.359 731.191 777.359C730.19 777.359 729.32 777.217 728.583 776.931C727.85 776.641 727.283 776.19 726.883 775.576C726.482 774.962 726.282 774.163 726.282 773.179V768.909ZM734.138 768.909H736.471V782H734.138V768.909ZM741.157 782V768.909H743.528V774.451H749.594V768.909H751.972V782H749.594V776.439H743.528V782H741.157ZM758.032 782H755.501L760.11 768.909H763.037L767.652 782H765.121L761.625 771.594H761.523L758.032 782ZM758.116 776.867H765.019V778.772H758.116V776.867ZM780.842 782H778.464V770.891H776.29C775.702 770.891 775.219 770.978 774.839 771.153C774.464 771.323 774.185 771.575 774.002 771.907C773.823 772.235 773.734 772.631 773.734 773.096C773.734 773.56 773.823 773.952 774.002 774.272C774.181 774.587 774.458 774.828 774.833 774.994C775.212 775.156 775.694 775.237 776.278 775.237H779.461V777.206H775.958C774.952 777.206 774.104 777.04 773.414 776.707C772.724 776.371 772.199 775.896 771.842 775.282C771.488 774.664 771.311 773.935 771.311 773.096C771.311 772.261 771.486 771.53 771.835 770.903C772.189 770.273 772.709 769.783 773.395 769.433C774.081 769.084 774.925 768.909 775.926 768.909H780.842V782ZM774.072 776.068H776.661L773.478 782H770.832L774.072 776.068Z" fill="black"/>
<path opacity="0.4" d="M564 998.5H1019.99V881.5H795L564 869V998.5Z" fill="url(#paint4_linear_3119_2451)"/>
<rect x="1015.19" y="876" width="10.2717" height="10.2717" rx="5.13587" fill="#CACACA"/>
<path d="M1020.5 881H795L564 868.5" stroke="#CACACA" stroke-width="4"/>
<path d="M886.074 983.445V1007.8L876.989 998.684L873 1002.64L888.955 1018.56L904.875 1002.64L900.955 998.684L891.835 1007.8V983.445H886.074Z" fill="#CACACA"/>
<path d="M931.322 1018.77C928.39 1018.76 925.867 1018.03 923.754 1016.6C921.651 1015.17 920.032 1013.1 918.896 1010.38C917.771 1007.66 917.214 1004.4 917.225 1000.58C917.225 996.773 917.788 993.528 918.913 990.847C920.049 988.165 921.668 986.125 923.771 984.727C925.884 983.318 928.401 982.614 931.322 982.614C934.242 982.614 936.754 983.318 938.856 984.727C940.969 986.136 942.594 988.182 943.731 990.864C944.867 993.534 945.43 996.773 945.418 1000.58C945.418 1004.41 944.85 1007.68 943.714 1010.4C942.589 1013.11 940.975 1015.19 938.873 1016.62C936.771 1018.05 934.254 1018.77 931.322 1018.77ZM931.322 1012.65C933.322 1012.65 934.918 1011.64 936.112 1009.63C937.305 1007.62 937.896 1004.6 937.884 1000.58C937.884 997.932 937.612 995.727 937.066 993.966C936.532 992.205 935.771 990.881 934.782 989.994C933.805 989.108 932.651 988.665 931.322 988.665C929.333 988.665 927.742 989.659 926.549 991.648C925.356 993.636 924.754 996.614 924.742 1000.58C924.742 1003.26 925.009 1005.5 925.543 1007.3C926.089 1009.08 926.856 1010.42 927.844 1011.32C928.833 1012.2 929.992 1012.65 931.322 1012.65ZM956.743 1013.23L956.555 1015.1C956.408 1016.6 956.124 1018.1 955.703 1019.59C955.294 1021.09 954.862 1022.44 954.408 1023.66C953.964 1024.88 953.607 1025.83 953.334 1026.52H948.629C948.8 1025.85 949.033 1024.91 949.328 1023.71C949.624 1022.52 949.902 1021.18 950.163 1019.69C950.425 1018.2 950.589 1016.68 950.658 1015.14L950.743 1013.23H956.743ZM973.65 983.091V1018H966.269V990.097H966.065L958.07 995.108V988.562L966.712 983.091H973.65ZM1000.56 1011.45V1009.61C1000.56 1008.22 1000.86 1006.93 1001.45 1005.76C1002.05 1004.58 1002.92 1003.64 1004.06 1002.93C1005.2 1002.22 1006.6 1001.86 1008.25 1001.86C1009.92 1001.86 1011.32 1002.21 1012.46 1002.91C1013.61 1003.62 1014.47 1004.56 1015.05 1005.74C1015.64 1006.91 1015.94 1008.2 1015.94 1009.61V1011.45C1015.94 1012.85 1015.64 1014.14 1015.05 1015.32C1014.46 1016.49 1013.59 1017.43 1012.44 1018.14C1011.3 1018.85 1009.9 1019.21 1008.25 1019.21C1006.58 1019.21 1005.18 1018.85 1004.04 1018.14C1002.9 1017.43 1002.04 1016.49 1001.45 1015.32C1000.86 1014.14 1000.56 1012.85 1000.56 1011.45ZM1005.52 1009.61V1011.45C1005.52 1012.26 1005.72 1013.02 1006.1 1013.74C1006.5 1014.45 1007.22 1014.81 1008.25 1014.81C1009.28 1014.81 1009.99 1014.46 1010.36 1013.76C1010.75 1013.05 1010.94 1012.28 1010.94 1011.45V1009.61C1010.94 1008.78 1010.76 1008.01 1010.4 1007.3C1010.03 1006.58 1009.32 1006.22 1008.25 1006.22C1007.23 1006.22 1006.52 1006.58 1006.12 1007.3C1005.72 1008.01 1005.52 1008.78 1005.52 1009.61ZM982.648 991.477V989.636C982.648 988.227 982.949 986.937 983.551 985.767C984.153 984.585 985.023 983.642 986.159 982.938C987.307 982.233 988.693 981.881 990.318 981.881C992 981.881 993.409 982.233 994.545 982.938C995.682 983.642 996.545 984.585 997.136 985.767C997.727 986.937 998.023 988.227 998.023 989.636V991.477C998.023 992.886 997.722 994.176 997.119 995.347C996.528 996.517 995.659 997.455 994.511 998.159C993.375 998.852 991.977 999.199 990.318 999.199C988.659 999.199 987.256 998.847 986.108 998.142C984.972 997.426 984.108 996.489 983.517 995.33C982.938 994.159 982.648 992.875 982.648 991.477ZM987.642 989.636V991.477C987.642 992.307 987.835 993.074 988.222 993.778C988.619 994.483 989.318 994.835 990.318 994.835C991.364 994.835 992.074 994.483 992.449 993.778C992.835 993.074 993.028 992.307 993.028 991.477V989.636C993.028 988.807 992.847 988.034 992.483 987.318C992.119 986.602 991.398 986.244 990.318 986.244C989.307 986.244 988.608 986.608 988.222 987.335C987.835 988.062 987.642 988.83 987.642 989.636ZM984.898 1018L1008.9 983.091H1013.36L989.364 1018H984.898Z" fill="black"/>
<path d="M571.609 839V855H569.188V841.422H569.094L565.266 843.922V841.609L569.258 839H571.609ZM577.861 852.812L577.744 853.664C577.666 854.289 577.533 854.94 577.346 855.617C577.164 856.299 576.973 856.932 576.775 857.516C576.583 858.099 576.424 858.563 576.299 858.906H574.643C574.71 858.583 574.804 858.146 574.924 857.594C575.044 857.047 575.161 856.435 575.275 855.758C575.39 855.081 575.476 854.391 575.533 853.687L575.611 852.812H577.861ZM585.897 855.219C584.824 855.219 583.865 855.034 583.022 854.664C582.183 854.294 581.519 853.781 581.03 853.125C580.545 852.464 580.285 851.698 580.248 850.828H582.701C582.733 851.302 582.891 851.714 583.178 852.062C583.47 852.406 583.85 852.672 584.319 852.859C584.787 853.047 585.308 853.141 585.881 853.141C586.511 853.141 587.069 853.031 587.553 852.812C588.043 852.594 588.425 852.289 588.701 851.898C588.977 851.503 589.115 851.047 589.115 850.531C589.115 849.995 588.977 849.523 588.701 849.117C588.431 848.706 588.032 848.383 587.506 848.148C586.985 847.914 586.355 847.797 585.615 847.797H584.264V845.828H585.615C586.209 845.828 586.73 845.721 587.178 845.508C587.631 845.294 587.985 844.997 588.24 844.617C588.496 844.232 588.623 843.781 588.623 843.266C588.623 842.771 588.511 842.341 588.287 841.977C588.069 841.607 587.756 841.318 587.35 841.109C586.949 840.901 586.475 840.797 585.928 840.797C585.407 840.797 584.92 840.893 584.467 841.086C584.019 841.273 583.655 841.544 583.373 841.898C583.092 842.247 582.941 842.667 582.92 843.156H580.584C580.61 842.292 580.865 841.531 581.35 840.875C581.839 840.219 582.485 839.706 583.287 839.336C584.089 838.966 584.98 838.781 585.959 838.781C586.985 838.781 587.871 838.982 588.615 839.383C589.365 839.779 589.944 840.307 590.35 840.969C590.761 841.63 590.964 842.354 590.959 843.141C590.964 844.036 590.714 844.797 590.209 845.422C589.709 846.047 589.043 846.466 588.209 846.68V846.805C589.272 846.966 590.095 847.388 590.678 848.07C591.266 848.753 591.558 849.599 591.553 850.609C591.558 851.49 591.313 852.279 590.819 852.977C590.329 853.674 589.66 854.224 588.811 854.625C587.962 855.021 586.99 855.219 585.897 855.219Z" fill="#CFCFCF"/>
<path d="M999.75 850V866H997.328V852.422H997.234L993.406 854.922V852.609L997.398 850H999.75ZM1006 863.812L1005.88 864.664C1005.81 865.289 1005.67 865.94 1005.49 866.617C1005.3 867.299 1005.11 867.932 1004.92 868.516C1004.72 869.099 1004.56 869.563 1004.44 869.906H1002.78C1002.85 869.583 1002.94 869.146 1003.06 868.594C1003.18 868.047 1003.3 867.435 1003.42 866.758C1003.53 866.081 1003.62 865.391 1003.67 864.687L1003.75 863.812H1006ZM1009.05 866V864.25L1014.46 858.641C1015.04 858.031 1015.52 857.497 1015.89 857.039C1016.27 856.576 1016.55 856.135 1016.74 855.719C1016.93 855.302 1017.02 854.859 1017.02 854.391C1017.02 853.859 1016.9 853.401 1016.65 853.016C1016.4 852.625 1016.06 852.326 1015.63 852.117C1015.19 851.904 1014.71 851.797 1014.16 851.797C1013.59 851.797 1013.09 851.914 1012.66 852.148C1012.24 852.383 1011.91 852.714 1011.68 853.141C1011.45 853.568 1011.34 854.068 1011.34 854.641H1009.03C1009.03 853.667 1009.26 852.815 1009.7 852.086C1010.15 851.357 1010.77 850.792 1011.55 850.391C1012.33 849.984 1013.22 849.781 1014.21 849.781C1015.22 849.781 1016.1 849.982 1016.87 850.383C1017.64 850.779 1018.24 851.32 1018.67 852.008C1019.1 852.69 1019.32 853.461 1019.32 854.32C1019.32 854.914 1019.21 855.495 1018.98 856.062C1018.77 856.63 1018.38 857.263 1017.84 857.961C1017.29 858.654 1016.53 859.495 1015.55 860.484L1012.38 863.812V863.93H1019.58V866H1009.05Z" fill="#CFCFCF"/>
<defs>
<linearGradient id="paint0_linear_3119_2451" x1="537.482" y1="280.5" x2="537.482" y2="372.5" gradientUnits="userSpaceOnUse">
<stop stop-color="#D9D9D9"/>
<stop offset="1" stop-color="#D9D9D9" stop-opacity="0"/>
</linearGradient>
<linearGradient id="paint1_linear_3119_2451" x1="282.996" y1="536" x2="282.996" y2="685.5" gradientUnits="userSpaceOnUse">
<stop stop-color="#04B34A"/>
<stop offset="0.0666667" stop-color="#04B34A" stop-opacity="0.991353"/>
<stop offset="0.133333" stop-color="#04B34A" stop-opacity="0.96449"/>
<stop offset="0.2" stop-color="#04B34A" stop-opacity="0.91834"/>
<stop offset="0.266667" stop-color="#04B34A" stop-opacity="0.852589"/>
<stop offset="0.333333" stop-color="#04B34A" stop-opacity="0.768225"/>
<stop offset="0.4" stop-color="#04B34A" stop-opacity="0.668116"/>
<stop offset="0.466667" stop-color="#04B34A" stop-opacity="0.557309"/>
<stop offset="0.533333" stop-color="#04B34A" stop-opacity="0.442691"/>
<stop offset="0.6" stop-color="#04B34A" stop-opacity="0.331884"/>
<stop offset="0.666667" stop-color="#04B34A" stop-opacity="0.231775"/>
<stop offset="0.733333" stop-color="#04B34A" stop-opacity="0.147411"/>
<stop offset="0.8" stop-color="#04B34A" stop-opacity="0.0816599"/>
<stop offset="0.866667" stop-color="#04B34A" stop-opacity="0.03551"/>
<stop offset="0.933333" stop-color="#04B34A" stop-opacity="0.01"/>
<stop offset="1" stop-color="#04B34A" stop-opacity="0"/>
</linearGradient>
<linearGradient id="paint2_linear_3119_2451" x1="282.996" y1="906.5" x2="282.996" y2="998.5" gradientUnits="userSpaceOnUse">
<stop stop-color="#D9D9D9"/>
<stop offset="1" stop-color="#D9D9D9" stop-opacity="0"/>
</linearGradient>
<linearGradient id="paint3_linear_3119_2451" x1="791.996" y1="536" x2="791.996" y2="685.5" gradientUnits="userSpaceOnUse">
<stop stop-color="#04B34A"/>
<stop offset="0.0666667" stop-color="#04B34A" stop-opacity="0.991353"/>
<stop offset="0.133333" stop-color="#04B34A" stop-opacity="0.96449"/>
<stop offset="0.2" stop-color="#04B34A" stop-opacity="0.91834"/>
<stop offset="0.266667" stop-color="#04B34A" stop-opacity="0.852589"/>
<stop offset="0.333333" stop-color="#04B34A" stop-opacity="0.768225"/>
<stop offset="0.4" stop-color="#04B34A" stop-opacity="0.668116"/>
<stop offset="0.466667" stop-color="#04B34A" stop-opacity="0.557309"/>
<stop offset="0.533333" stop-color="#04B34A" stop-opacity="0.442691"/>
<stop offset="0.6" stop-color="#04B34A" stop-opacity="0.331884"/>
<stop offset="0.666667" stop-color="#04B34A" stop-opacity="0.231775"/>
<stop offset="0.733333" stop-color="#04B34A" stop-opacity="0.147411"/>
<stop offset="0.8" stop-color="#04B34A" stop-opacity="0.0816599"/>
<stop offset="0.866667" stop-color="#04B34A" stop-opacity="0.03551"/>
<stop offset="0.933333" stop-color="#04B34A" stop-opacity="0.01"/>
<stop offset="1" stop-color="#04B34A" stop-opacity="0"/>
</linearGradient>
<linearGradient id="paint4_linear_3119_2451" x1="791.995" y1="906.5" x2="791.995" y2="998.5" gradientUnits="userSpaceOnUse">
<stop stop-color="#D9D9D9"/>
<stop offset="1" stop-color="#D9D9D9" stop-opacity="0"/>
</linearGradient>
</defs>
</svg>
