<svg width="1080" height="772" viewBox="0 0 1080 772" fill="none" xmlns="http://www.w3.org/2000/svg">
<rect width="1080" height="772" fill="white"/>
<path d="M915.587 49L912.911 64.8629H915.891L914.181 75H908.668L909.483 70.1698H895.329L894.514 75H889L890.71 64.8629H892.824C893.79 63.5513 894.707 61.8209 895.74 58.1838L898.364 49H915.59H915.587ZM908.584 54.3069H902.535L901.369 58.3918C900.354 61.9393 899.515 63.5484 898.667 64.8629H906.805L908.584 54.3069Z" fill="#EAECEF"/>
<path d="M920.448 49H933.56C938.18 49 940.257 51.3544 939.681 54.7547C939.314 56.93 937.677 58.3311 936.141 58.958C937.818 59.6138 939.146 61.2836 938.663 64.1464C938.05 67.7836 935.085 70.1698 930.167 70.1698H916.875L920.448 49ZM924.295 61.7024L923.67 65.4002H929.69C931.298 65.4002 932.293 64.8051 932.504 63.5513C932.721 62.2687 931.923 61.7024 930.312 61.7024H924.292H924.295ZM925.631 53.7724L925.099 56.9329H931.029C932.282 56.9329 933.161 56.4851 933.352 55.3527C933.543 54.2202 932.814 53.7724 931.561 53.7724H925.631Z" fill="#EAECEF"/>
<path d="M943.47 49H949.579L947.427 61.7602L958.906 49H965.015L961.445 70.1698H955.336L957.479 57.4673L946.01 70.1698H939.9L943.47 49Z" fill="#EAECEF"/>
<path d="M974.098 59.1978L966.907 49H973.821L979.812 57.6464L981.272 49H987.084L985.626 57.6464L994.536 49H1001.3L990.954 58.9291L998.177 70.1698H990.815L985.039 61.1362L983.514 70.1698H977.703L979.227 61.1362L970.402 70.1698H963.309L974.101 59.1978H974.098Z" fill="#EAECEF"/>
<path d="M1010.23 49H1003.13L1010.19 58.9291L999.713 70.1698H1006.81L1017.29 58.9291L1010.23 49ZM1021.44 49H1014.34L1021.41 58.9291L1010.93 70.1698H1018.02L1028.5 58.9291L1021.44 49ZM1032.94 49H1025.85L1032.91 58.9291L1022.43 70.1698H1029.52L1040 58.9291L1032.94 49Z" fill="#EAECEF"/>
<path d="M64.5327 48.8182V75H59.0611V53.3182H48.4759V75H43.0043V48.8182H64.5327ZM68.2606 82.3636V55.3636H73.63V58.6619H73.8729C74.1115 58.1335 74.4567 57.5966 74.9084 57.0511C75.3686 56.4972 75.9652 56.0369 76.6981 55.6705C77.4396 55.2955 78.3601 55.108 79.4595 55.108C80.8913 55.108 82.2123 55.483 83.4226 56.233C84.6328 56.9744 85.6001 58.0952 86.3246 59.5952C87.049 61.0866 87.4112 62.9574 87.4112 65.2074C87.4112 67.3977 87.0575 69.2472 86.3501 70.7557C85.6513 72.2557 84.6967 73.3935 83.4865 74.169C82.2848 74.9361 80.9382 75.3196 79.4467 75.3196C78.3899 75.3196 77.4908 75.1449 76.7493 74.7955C76.0163 74.446 75.4155 74.0071 74.9467 73.4787C74.478 72.9418 74.12 72.4006 73.8729 71.8551H73.7067V82.3636H68.2606ZM73.5916 65.1818C73.5916 66.3494 73.7535 67.3679 74.0774 68.2372C74.4013 69.1065 74.87 69.7841 75.4837 70.2699C76.0973 70.7472 76.843 70.9858 77.7209 70.9858C78.6072 70.9858 79.3572 70.7429 79.9709 70.2571C80.5845 69.7628 81.049 69.081 81.3643 68.2116C81.6882 67.3338 81.8501 66.3239 81.8501 65.1818C81.8501 64.0483 81.6925 63.0511 81.3771 62.1903C81.0618 61.3295 80.5973 60.6562 79.9837 60.1705C79.37 59.6847 78.6158 59.4418 77.7209 59.4418C76.8345 59.4418 76.0845 59.6761 75.4709 60.1449C74.8658 60.6136 74.4013 61.2784 74.0774 62.1392C73.7535 63 73.5916 64.0142 73.5916 65.1818ZM98.474 75.3835C96.4883 75.3835 94.7709 74.9616 93.3221 74.1179C91.8817 73.2656 90.7695 72.081 89.9854 70.5639C89.2013 69.0384 88.8093 67.2699 88.8093 65.2585C88.8093 63.2301 89.2013 61.4574 89.9854 59.9403C90.7695 58.4148 91.8817 57.2301 93.3221 56.3864C94.7709 55.5341 96.4883 55.108 98.474 55.108C100.46 55.108 102.173 55.5341 103.613 56.3864C105.062 57.2301 106.179 58.4148 106.963 59.9403C107.747 61.4574 108.139 63.2301 108.139 65.2585C108.139 67.2699 107.747 69.0384 106.963 70.5639C106.179 72.081 105.062 73.2656 103.613 74.1179C102.173 74.9616 100.46 75.3835 98.474 75.3835ZM98.4996 71.1648C99.403 71.1648 100.157 70.9091 100.762 70.3977C101.368 69.8778 101.823 69.1705 102.13 68.2756C102.446 67.3807 102.603 66.3622 102.603 65.2202C102.603 64.0781 102.446 63.0597 102.13 62.1648C101.823 61.2699 101.368 60.5625 100.762 60.0426C100.157 59.5227 99.403 59.2628 98.4996 59.2628C97.5877 59.2628 96.8206 59.5227 96.1985 60.0426C95.5848 60.5625 95.1204 61.2699 94.805 62.1648C94.4982 63.0597 94.3448 64.0781 94.3448 65.2202C94.3448 66.3622 94.4982 67.3807 94.805 68.2756C95.1204 69.1705 95.5848 69.8778 96.1985 70.3977C96.8206 70.9091 97.5877 71.1648 98.4996 71.1648ZM127.409 55.3636V71.2415H130.541V81.3153H125.249V75H110.24V55.3636H115.443V70.7173H122.27V55.3636H127.409ZM141.198 75.3835C139.178 75.3835 137.44 74.9744 135.982 74.1562C134.533 73.3295 133.417 72.1619 132.633 70.6534C131.849 69.1364 131.457 67.3423 131.457 65.2713C131.457 63.2514 131.849 61.4787 132.633 59.9531C133.417 58.4276 134.521 57.2386 135.944 56.3864C137.376 55.5341 139.055 55.108 140.981 55.108C142.276 55.108 143.482 55.3168 144.599 55.7344C145.724 56.1435 146.704 56.7614 147.539 57.5881C148.383 58.4148 149.039 59.4545 149.508 60.7074C149.977 61.9517 150.211 63.4091 150.211 65.0795V66.5753H133.63V63.2003H145.084C145.084 62.4162 144.914 61.7216 144.573 61.1165C144.232 60.5114 143.759 60.0384 143.154 59.6974C142.557 59.348 141.863 59.1733 141.07 59.1733C140.244 59.1733 139.511 59.3651 138.871 59.7486C138.241 60.1236 137.746 60.6307 137.388 61.2699C137.03 61.9006 136.847 62.6037 136.839 63.3793V66.5881C136.839 67.5597 137.018 68.3991 137.376 69.1065C137.742 69.8139 138.258 70.3594 138.923 70.7429C139.587 71.1264 140.376 71.3182 141.288 71.3182C141.893 71.3182 142.447 71.233 142.95 71.0625C143.452 70.892 143.883 70.6364 144.241 70.2955C144.599 69.9545 144.871 69.5369 145.059 69.0426L150.096 69.375C149.84 70.5852 149.316 71.642 148.523 72.5455C147.739 73.4403 146.725 74.1392 145.481 74.642C144.245 75.1364 142.817 75.3835 141.198 75.3835ZM165.991 63.0085V67.2912H155.738V63.0085H165.991ZM157.528 55.3636V75H152.325V55.3636H157.528ZM169.404 55.3636V75H164.24V55.3636H169.404ZM170.218 59.6463V55.3636H188.013V59.6463H181.685V75H176.495V59.6463H170.218ZM205.639 75.3835C203.653 75.3835 201.936 74.9616 200.487 74.1179C199.046 73.2656 197.934 72.081 197.15 70.5639C196.366 69.0384 195.974 67.2699 195.974 65.2585C195.974 63.2301 196.366 61.4574 197.15 59.9403C197.934 58.4148 199.046 57.2301 200.487 56.3864C201.936 55.5341 203.653 55.108 205.639 55.108C207.625 55.108 209.338 55.5341 210.778 56.3864C212.227 57.2301 213.343 58.4148 214.127 59.9403C214.911 61.4574 215.304 63.2301 215.304 65.2585C215.304 67.2699 214.911 69.0384 214.127 70.5639C213.343 72.081 212.227 73.2656 210.778 74.1179C209.338 74.9616 207.625 75.3835 205.639 75.3835ZM205.664 71.1648C206.568 71.1648 207.322 70.9091 207.927 70.3977C208.532 69.8778 208.988 69.1705 209.295 68.2756C209.61 67.3807 209.768 66.3622 209.768 65.2202C209.768 64.0781 209.61 63.0597 209.295 62.1648C208.988 61.2699 208.532 60.5625 207.927 60.0426C207.322 59.5227 206.568 59.2628 205.664 59.2628C204.752 59.2628 203.985 59.5227 203.363 60.0426C202.75 60.5625 202.285 61.2699 201.97 62.1648C201.663 63.0597 201.509 64.0781 201.509 65.2202C201.509 66.3622 201.663 67.3807 201.97 68.2756C202.285 69.1705 202.75 69.8778 203.363 70.3977C203.985 70.9091 204.752 71.1648 205.664 71.1648ZM215.871 80.7528V70.679H217.379C217.814 70.4062 218.163 69.9716 218.427 69.375C218.7 68.7784 218.922 68.0753 219.092 67.2656C219.271 66.456 219.408 65.5824 219.501 64.6449C219.604 63.6989 219.693 62.7443 219.77 61.7812L220.281 55.3636H235.341V70.679H238.383V80.7528H233.193V75H221.189V80.7528H215.871ZM222.8 70.679H230.202V59.5568H224.909L224.704 61.7812C224.56 63.8778 224.351 65.6591 224.078 67.125C223.805 68.5824 223.379 69.767 222.8 70.679ZM248.989 75.3835C247.003 75.3835 245.286 74.9616 243.837 74.1179C242.397 73.2656 241.285 72.081 240.501 70.5639C239.716 69.0384 239.324 67.2699 239.324 65.2585C239.324 63.2301 239.716 61.4574 240.501 59.9403C241.285 58.4148 242.397 57.2301 243.837 56.3864C245.286 55.5341 247.003 55.108 248.989 55.108C250.975 55.108 252.688 55.5341 254.128 56.3864C255.577 57.2301 256.694 58.4148 257.478 59.9403C258.262 61.4574 258.654 63.2301 258.654 65.2585C258.654 67.2699 258.262 69.0384 257.478 70.5639C256.694 72.081 255.577 73.2656 254.128 74.1179C252.688 74.9616 250.975 75.3835 248.989 75.3835ZM249.015 71.1648C249.918 71.1648 250.672 70.9091 251.278 70.3977C251.883 69.8778 252.339 69.1705 252.645 68.2756C252.961 67.3807 253.118 66.3622 253.118 65.2202C253.118 64.0781 252.961 63.0597 252.645 62.1648C252.339 61.2699 251.883 60.5625 251.278 60.0426C250.672 59.5227 249.918 59.2628 249.015 59.2628C248.103 59.2628 247.336 59.5227 246.714 60.0426C246.1 60.5625 245.636 61.2699 245.32 62.1648C245.013 63.0597 244.86 64.0781 244.86 65.2202C244.86 66.3622 245.013 67.3807 245.32 68.2756C245.636 69.1705 246.1 69.8778 246.714 70.3977C247.336 70.9091 248.103 71.1648 249.015 71.1648ZM277.08 48.1534L278.742 51.7074C278.188 52.1676 277.575 52.5085 276.901 52.7301C276.228 52.9432 275.423 53.0838 274.485 53.152C273.556 53.2202 272.423 53.267 271.085 53.2926C269.568 53.3097 268.332 53.5526 267.377 54.0213C266.423 54.4901 265.698 55.2273 265.204 56.233C264.71 57.2301 264.386 58.5341 264.232 60.1449H264.424C265.012 58.9432 265.839 58.0142 266.904 57.358C267.978 56.7017 269.303 56.3736 270.88 56.3736C272.551 56.3736 274.012 56.7401 275.265 57.473C276.526 58.206 277.507 59.2585 278.205 60.6307C278.904 62.0028 279.254 63.6477 279.254 65.5653C279.254 67.5597 278.862 69.294 278.078 70.7685C277.302 72.2344 276.198 73.3722 274.767 74.1818C273.335 74.983 271.63 75.3835 269.653 75.3835C267.667 75.3835 265.954 74.9659 264.514 74.1307C263.082 73.2955 261.974 72.0639 261.19 70.4361C260.414 68.8082 260.026 66.8054 260.026 64.4276V62.8168C260.026 58.0866 260.947 54.5795 262.788 52.2955C264.629 50.0114 267.335 48.8523 270.906 48.8182C271.877 48.8011 272.755 48.7969 273.539 48.8054C274.323 48.8139 275.009 48.7756 275.598 48.6903C276.194 48.6051 276.688 48.4261 277.08 48.1534ZM269.678 71.1648C270.514 71.1648 271.23 70.9474 271.826 70.5128C272.431 70.0781 272.896 69.456 273.22 68.6463C273.552 67.8366 273.718 66.8693 273.718 65.7443C273.718 64.6278 273.552 63.6818 273.22 62.9062C272.896 62.1222 272.431 61.5256 271.826 61.1165C271.221 60.7074 270.497 60.5028 269.653 60.5028C269.022 60.5028 268.455 60.6179 267.953 60.848C267.45 61.0781 267.019 61.419 266.661 61.8707C266.312 62.3139 266.039 62.8636 265.843 63.5199C265.656 64.1676 265.562 64.9091 265.562 65.7443C265.562 67.4233 265.924 68.7486 266.649 69.7202C267.382 70.6832 268.392 71.1648 269.678 71.1648ZM281.428 82.3636V55.3636H286.798V58.6619H287.041C287.279 58.1335 287.624 57.5966 288.076 57.0511C288.536 56.4972 289.133 56.0369 289.866 55.6705C290.607 55.2955 291.528 55.108 292.627 55.108C294.059 55.108 295.38 55.483 296.59 56.233C297.801 56.9744 298.768 58.0952 299.492 59.5952C300.217 61.0866 300.579 62.9574 300.579 65.2074C300.579 67.3977 300.225 69.2472 299.518 70.7557C298.819 72.2557 297.865 73.3935 296.654 74.169C295.453 74.9361 294.106 75.3196 292.615 75.3196C291.558 75.3196 290.659 75.1449 289.917 74.7955C289.184 74.446 288.583 74.0071 288.115 73.4787C287.646 72.9418 287.288 72.4006 287.041 71.8551H286.874V82.3636H281.428ZM286.759 65.1818C286.759 66.3494 286.921 67.3679 287.245 68.2372C287.569 69.1065 288.038 69.7841 288.651 70.2699C289.265 70.7472 290.011 70.9858 290.889 70.9858C291.775 70.9858 292.525 70.7429 293.139 70.2571C293.752 69.7628 294.217 69.081 294.532 68.2116C294.856 67.3338 295.018 66.3239 295.018 65.1818C295.018 64.0483 294.86 63.0511 294.545 62.1903C294.23 61.3295 293.765 60.6562 293.151 60.1705C292.538 59.6847 291.784 59.4418 290.889 59.4418C290.002 59.4418 289.252 59.6761 288.639 60.1449C288.034 60.6136 287.569 61.2784 287.245 62.1392C286.921 63 286.759 64.0142 286.759 65.1818ZM311.719 75.3835C309.699 75.3835 307.96 74.9744 306.503 74.1562C305.054 73.3295 303.937 72.1619 303.153 70.6534C302.369 69.1364 301.977 67.3423 301.977 65.2713C301.977 63.2514 302.369 61.4787 303.153 59.9531C303.937 58.4276 305.041 57.2386 306.464 56.3864C307.896 55.5341 309.575 55.108 311.501 55.108C312.797 55.108 314.003 55.3168 315.119 55.7344C316.244 56.1435 317.224 56.7614 318.059 57.5881C318.903 58.4148 319.559 59.4545 320.028 60.7074C320.497 61.9517 320.731 63.4091 320.731 65.0795V66.5753H304.15V63.2003H315.605C315.605 62.4162 315.434 61.7216 315.094 61.1165C314.753 60.5114 314.28 60.0384 313.675 59.6974C313.078 59.348 312.383 59.1733 311.591 59.1733C310.764 59.1733 310.031 59.3651 309.392 59.7486C308.761 60.1236 308.267 60.6307 307.909 61.2699C307.551 61.9006 307.368 62.6037 307.359 63.3793V66.5881C307.359 67.5597 307.538 68.3991 307.896 69.1065C308.263 69.8139 308.778 70.3594 309.443 70.7429C310.108 71.1264 310.896 71.3182 311.808 71.3182C312.413 71.3182 312.967 71.233 313.47 71.0625C313.973 70.892 314.403 70.6364 314.761 70.2955C315.119 69.9545 315.392 69.5369 315.579 69.0426L320.616 69.375C320.361 70.5852 319.836 71.642 319.044 72.5455C318.26 73.4403 317.246 74.1392 316.001 74.642C314.765 75.1364 313.338 75.3835 311.719 75.3835ZM336.512 63.0085V67.2912H326.259V63.0085H336.512ZM328.048 55.3636V75H322.845V55.3636H328.048ZM339.925 55.3636V75H334.76V55.3636H339.925ZM347.913 67.8153L354.983 55.3636H360.352V75H355.162V62.5099L348.118 75H342.71V55.3636H347.913V67.8153ZM374.784 75V59.6335H371.102C370.105 59.6335 369.346 59.8636 368.826 60.3239C368.306 60.7841 368.051 61.3295 368.059 61.9602C368.051 62.5994 368.298 63.1406 368.801 63.5838C369.312 64.0185 370.062 64.2358 371.051 64.2358H376.599V67.9176H371.051C369.372 67.9176 367.918 67.6619 366.691 67.1506C365.464 66.6392 364.518 65.9276 363.853 65.0156C363.188 64.0952 362.86 63.0256 362.869 61.8068C362.86 60.5284 363.188 59.4077 363.853 58.4446C364.518 57.473 365.468 56.7187 366.704 56.1818C367.948 55.6364 369.414 55.3636 371.102 55.3636H379.859V75H374.784ZM362.306 75L367.765 64.7727H372.968L367.522 75H362.306ZM389.542 75V55.3636H406.711V75H401.508V59.6463H394.682V75H389.542ZM418.49 75.3835C416.504 75.3835 414.787 74.9616 413.338 74.1179C411.898 73.2656 410.786 72.081 410.001 70.5639C409.217 69.0384 408.825 67.2699 408.825 65.2585C408.825 63.2301 409.217 61.4574 410.001 59.9403C410.786 58.4148 411.898 57.2301 413.338 56.3864C414.787 55.5341 416.504 55.108 418.49 55.108C420.476 55.108 422.189 55.5341 423.629 56.3864C425.078 57.2301 426.195 58.4148 426.979 59.9403C427.763 61.4574 428.155 63.2301 428.155 65.2585C428.155 67.2699 427.763 69.0384 426.979 70.5639C426.195 72.081 425.078 73.2656 423.629 74.1179C422.189 74.9616 420.476 75.3835 418.49 75.3835ZM418.516 71.1648C419.419 71.1648 420.173 70.9091 420.778 70.3977C421.384 69.8778 421.84 69.1705 422.146 68.2756C422.462 67.3807 422.619 66.3622 422.619 65.2202C422.619 64.0781 422.462 63.0597 422.146 62.1648C421.84 61.2699 421.384 60.5625 420.778 60.0426C420.173 59.5227 419.419 59.2628 418.516 59.2628C417.604 59.2628 416.837 59.5227 416.215 60.0426C415.601 60.5625 415.136 61.2699 414.821 62.1648C414.514 63.0597 414.361 64.0781 414.361 65.2202C414.361 66.3622 414.514 67.3807 414.821 68.2756C415.136 69.1705 415.601 69.8778 416.215 70.3977C416.837 70.9091 417.604 71.1648 418.516 71.1648ZM437.148 82.3636V55.3636H442.517V58.6619H442.76C442.999 58.1335 443.344 57.5966 443.796 57.0511C444.256 56.4972 444.853 56.0369 445.586 55.6705C446.327 55.2955 447.248 55.108 448.347 55.108C449.779 55.108 451.1 55.483 452.31 56.233C453.52 56.9744 454.488 58.0952 455.212 59.5952C455.937 61.0866 456.299 62.9574 456.299 65.2074C456.299 67.3977 455.945 69.2472 455.238 70.7557C454.539 72.2557 453.584 73.3935 452.374 74.169C451.172 74.9361 449.826 75.3196 448.334 75.3196C447.277 75.3196 446.378 75.1449 445.637 74.7955C444.904 74.446 444.303 74.0071 443.834 73.4787C443.365 72.9418 443.008 72.4006 442.76 71.8551H442.594V82.3636H437.148ZM442.479 65.1818C442.479 66.3494 442.641 67.3679 442.965 68.2372C443.289 69.1065 443.758 69.7841 444.371 70.2699C444.985 70.7472 445.731 70.9858 446.608 70.9858C447.495 70.9858 448.245 70.7429 448.858 70.2571C449.472 69.7628 449.937 69.081 450.252 68.2116C450.576 67.3338 450.738 66.3239 450.738 65.1818C450.738 64.0483 450.58 63.0511 450.265 62.1903C449.949 61.3295 449.485 60.6562 448.871 60.1705C448.258 59.6847 447.503 59.4418 446.608 59.4418C445.722 59.4418 444.972 59.6761 444.358 60.1449C443.753 60.6136 443.289 61.2784 442.965 62.1392C442.641 63 442.479 64.0142 442.479 65.1818ZM467.438 75.3835C465.418 75.3835 463.68 74.9744 462.222 74.1562C460.773 73.3295 459.657 72.1619 458.873 70.6534C458.089 69.1364 457.697 67.3423 457.697 65.2713C457.697 63.2514 458.089 61.4787 458.873 59.9531C459.657 58.4276 460.761 57.2386 462.184 56.3864C463.616 55.5341 465.295 55.108 467.221 55.108C468.516 55.108 469.722 55.3168 470.839 55.7344C471.964 56.1435 472.944 56.7614 473.779 57.5881C474.623 58.4148 475.279 59.4545 475.748 60.7074C476.217 61.9517 476.451 63.4091 476.451 65.0795V66.5753H459.87V63.2003H471.325C471.325 62.4162 471.154 61.7216 470.813 61.1165C470.472 60.5114 469.999 60.0384 469.394 59.6974C468.798 59.348 468.103 59.1733 467.31 59.1733C466.484 59.1733 465.751 59.3651 465.112 59.7486C464.481 60.1236 463.987 60.6307 463.629 61.2699C463.271 61.9006 463.087 62.6037 463.079 63.3793V66.5881C463.079 67.5597 463.258 68.3991 463.616 69.1065C463.982 69.8139 464.498 70.3594 465.163 70.7429C465.827 71.1264 466.616 71.3182 467.528 71.3182C468.133 71.3182 468.687 71.233 469.19 71.0625C469.693 70.892 470.123 70.6364 470.481 70.2955C470.839 69.9545 471.112 69.5369 471.299 69.0426L476.336 69.375C476.08 70.5852 475.556 71.642 474.764 72.5455C473.979 73.4403 472.965 74.1392 471.721 74.642C470.485 75.1364 469.058 75.3835 467.438 75.3835ZM492.014 55.3636V59.6463H483.858V75H478.565V55.3636H492.014ZM499.098 67.8153L506.167 55.3636H511.537V75H506.346V62.5099L499.302 75H493.895V55.3636H499.098V67.8153ZM523.335 75.3835C521.349 75.3835 519.631 74.9616 518.183 74.1179C516.742 73.2656 515.63 72.081 514.846 70.5639C514.062 69.0384 513.67 67.2699 513.67 65.2585C513.67 63.2301 514.062 61.4574 514.846 59.9403C515.63 58.4148 516.742 57.2301 518.183 56.3864C519.631 55.5341 521.349 55.108 523.335 55.108C525.32 55.108 527.033 55.5341 528.474 56.3864C529.923 57.2301 531.039 58.4148 531.823 59.9403C532.607 61.4574 532.999 63.2301 532.999 65.2585C532.999 67.2699 532.607 69.0384 531.823 70.5639C531.039 72.081 529.923 73.2656 528.474 74.1179C527.033 74.9616 525.32 75.3835 523.335 75.3835ZM523.36 71.1648C524.263 71.1648 525.018 70.9091 525.623 70.3977C526.228 69.8778 526.684 69.1705 526.991 68.2756C527.306 67.3807 527.464 66.3622 527.464 65.2202C527.464 64.0781 527.306 63.0597 526.991 62.1648C526.684 61.2699 526.228 60.5625 525.623 60.0426C525.018 59.5227 524.263 59.2628 523.36 59.2628C522.448 59.2628 521.681 59.5227 521.059 60.0426C520.445 60.5625 519.981 61.2699 519.665 62.1648C519.359 63.0597 519.205 64.0781 519.205 65.2202C519.205 66.3622 519.359 67.3807 519.665 68.2756C519.981 69.1705 520.445 69.8778 521.059 70.3977C521.681 70.9091 522.448 71.1648 523.36 71.1648ZM548.767 63.0085V67.2912H538.514V63.0085H548.767ZM540.304 55.3636V75H535.1V55.3636H540.304ZM552.18 55.3636V75H547.015V55.3636H552.18ZM560.565 75.3707C559.312 75.3707 558.195 75.1534 557.215 74.7188C556.235 74.2756 555.459 73.6236 554.888 72.7628C554.326 71.8935 554.045 70.8111 554.045 69.5156C554.045 68.4247 554.245 67.5085 554.646 66.767C555.046 66.0256 555.592 65.429 556.282 64.9773C556.972 64.5256 557.756 64.1847 558.634 63.9545C559.521 63.7244 560.45 63.5625 561.421 63.4688C562.563 63.3494 563.484 63.2386 564.182 63.1364C564.881 63.0256 565.388 62.8636 565.704 62.6506C566.019 62.4375 566.177 62.1222 566.177 61.7045V61.6278C566.177 60.8182 565.921 60.1918 565.41 59.7486C564.907 59.3054 564.191 59.0838 563.262 59.0838C562.282 59.0838 561.502 59.3011 560.923 59.7358C560.343 60.1619 559.959 60.6989 559.772 61.3466L554.735 60.9375C554.991 59.7443 555.494 58.7131 556.244 57.8438C556.994 56.9659 557.961 56.2926 559.146 55.8239C560.339 55.3466 561.719 55.108 563.288 55.108C564.379 55.108 565.423 55.2358 566.42 55.4915C567.425 55.7472 568.316 56.1435 569.092 56.6804C569.876 57.2173 570.494 57.9077 570.945 58.7514C571.397 59.5866 571.623 60.5881 571.623 61.7557V75H566.458V72.277H566.305C565.989 72.8906 565.567 73.4318 565.039 73.9006C564.511 74.3608 563.876 74.723 563.134 74.9872C562.393 75.2429 561.536 75.3707 560.565 75.3707ZM562.124 71.6122C562.925 71.6122 563.633 71.4545 564.246 71.1392C564.86 70.8153 565.342 70.3807 565.691 69.8352C566.04 69.2898 566.215 68.6719 566.215 67.9815V65.8977C566.045 66.0085 565.81 66.1108 565.512 66.2045C565.222 66.2898 564.894 66.3707 564.528 66.4474C564.161 66.5156 563.795 66.5795 563.428 66.6392C563.062 66.6903 562.729 66.7372 562.431 66.7798C561.792 66.8736 561.234 67.0227 560.756 67.2273C560.279 67.4318 559.908 67.7088 559.644 68.0582C559.38 68.3991 559.248 68.8253 559.248 69.3366C559.248 70.0781 559.516 70.6449 560.053 71.0369C560.599 71.4205 561.289 71.6122 562.124 71.6122ZM586.016 68.9787L591.334 55.3636H595.476L587.818 75H584.201L576.722 55.3636H580.851L586.016 68.9787ZM579.611 55.3636V75H574.408V55.3636H579.611ZM592.689 75V55.3636H597.828V75H592.689Z" fill="black"/>
<rect x="40" y="124" width="491" height="295" rx="20" fill="#F7F7F7"/>
<path opacity="0.6" d="M56.2912 145.909H59.1932L63.0795 155.395H63.233L67.1193 145.909H70.0213V159H67.7457V150.006H67.6243L64.0064 158.962H62.3061L58.6882 149.987H58.5668V159H56.2912V145.909ZM86.1011 152.455C86.1011 153.865 85.8369 155.073 85.3085 156.079C84.7844 157.08 84.0685 157.847 83.1608 158.38C82.2574 158.913 81.2325 159.179 80.0862 159.179C78.9399 159.179 77.9129 158.913 77.0053 158.38C76.1018 157.843 75.3859 157.074 74.8575 156.072C74.3334 155.067 74.0713 153.861 74.0713 152.455C74.0713 151.044 74.3334 149.838 74.8575 148.837C75.3859 147.831 76.1018 147.062 77.0053 146.529C77.9129 145.996 78.9399 145.73 80.0862 145.73C81.2325 145.73 82.2574 145.996 83.1608 146.529C84.0685 147.062 84.7844 147.831 85.3085 148.837C85.8369 149.838 86.1011 151.044 86.1011 152.455ZM83.7169 152.455C83.7169 151.462 83.5614 150.624 83.2503 149.942C82.9435 149.256 82.5173 148.739 81.9719 148.389C81.4264 148.036 80.7979 147.859 80.0862 147.859C79.3746 147.859 78.746 148.036 78.2006 148.389C77.6551 148.739 77.2268 149.256 76.9158 149.942C76.6089 150.624 76.4555 151.462 76.4555 152.455C76.4555 153.447 76.6089 154.287 76.9158 154.973C77.2268 155.655 77.6551 156.173 78.2006 156.526C78.746 156.876 79.3746 157.05 80.0862 157.05C80.7979 157.05 81.4264 156.876 81.9719 156.526C82.5173 156.173 82.9435 155.655 83.2503 154.973C83.5614 154.287 83.7169 153.447 83.7169 152.455ZM101.348 150.326H98.9578C98.8896 149.934 98.7639 149.587 98.5806 149.284C98.3974 148.977 98.1694 148.717 97.8967 148.504C97.624 148.291 97.3129 148.131 96.9635 148.025C96.6183 147.914 96.2454 147.859 95.8448 147.859C95.1332 147.859 94.5025 148.038 93.9528 148.396C93.4031 148.749 92.9727 149.269 92.6616 149.955C92.3505 150.637 92.195 151.47 92.195 152.455C92.195 153.456 92.3505 154.3 92.6616 154.986C92.977 155.668 93.4073 156.183 93.9528 156.533C94.5025 156.878 95.1311 157.05 95.8385 157.05C96.2305 157.05 96.597 156.999 96.9379 156.897C97.2831 156.79 97.592 156.635 97.8647 156.43C98.1417 156.226 98.374 155.974 98.5615 155.676C98.7532 155.378 98.8853 155.037 98.9578 154.653L101.348 154.666C101.259 155.288 101.065 155.872 100.767 156.418C100.473 156.963 100.087 157.445 99.6098 157.862C99.1325 158.276 98.5743 158.599 97.935 158.834C97.2958 159.064 96.5863 159.179 95.8065 159.179C94.6559 159.179 93.6289 158.913 92.7255 158.38C91.8221 157.847 91.1105 157.078 90.5906 156.072C90.0707 155.067 89.8108 153.861 89.8108 152.455C89.8108 151.044 90.0728 149.838 90.597 148.837C91.1211 147.831 91.8349 147.062 92.7383 146.529C93.6417 145.996 94.6645 145.73 95.8065 145.73C96.5352 145.73 97.2127 145.832 97.8392 146.037C98.4656 146.241 99.0238 146.542 99.5139 146.938C100.004 147.33 100.407 147.812 100.722 148.383C101.042 148.95 101.25 149.597 101.348 150.326ZM113.163 159L108.855 153.279H107.692V159H105.32V145.909H107.692V151.291H108.286L112.939 145.909H115.861L110.689 151.879L116.084 159H113.163ZM119.495 159V145.909H124.506C125.452 145.909 126.239 146.058 126.865 146.357C127.496 146.651 127.967 147.053 128.278 147.565C128.593 148.076 128.751 148.656 128.751 149.303C128.751 149.836 128.649 150.292 128.444 150.671C128.239 151.046 127.965 151.351 127.619 151.585C127.274 151.82 126.889 151.988 126.462 152.09V152.218C126.927 152.244 127.372 152.386 127.798 152.646C128.229 152.902 128.58 153.264 128.853 153.733C129.126 154.202 129.262 154.768 129.262 155.433C129.262 156.111 129.098 156.72 128.77 157.261C128.442 157.798 127.948 158.222 127.287 158.533C126.626 158.844 125.796 159 124.794 159H119.495ZM121.867 157.018H124.417C125.278 157.018 125.898 156.854 126.277 156.526C126.661 156.194 126.852 155.768 126.852 155.248C126.852 154.86 126.756 154.511 126.565 154.2C126.373 153.884 126.1 153.637 125.747 153.458C125.393 153.275 124.971 153.183 124.481 153.183H121.867V157.018ZM121.867 151.477H124.212C124.622 151.477 124.99 151.402 125.318 151.253C125.646 151.099 125.904 150.884 126.092 150.607C126.283 150.326 126.379 149.994 126.379 149.61C126.379 149.103 126.2 148.685 125.842 148.357C125.489 148.029 124.962 147.865 124.264 147.865H121.867V151.477ZM134.806 159H132.275L136.884 145.909H139.811L144.426 159H141.895L138.399 148.594H138.296L134.806 159ZM134.889 153.867H141.793V155.772H134.889V153.867Z" fill="black"/>
<path opacity="0.4" d="M510.991 372.5H55V262L353.5 276.5C353.5 276.5 508.36 224.782 510.991 223.045V223C511.037 223 511.036 223.015 510.991 223.045V372.5Z" fill="url(#paint0_linear_3119_2405)"/>
<rect x="506.188" y="218" width="10.2717" height="10.2717" rx="5.13587" fill="#04B34A"/>
<path d="M508.5 224L358.689 274.742C355.26 275.904 351.644 276.413 348.027 276.243L55 262.5" stroke="#04B34A" stroke-width="4"/>
<path d="M367.074 392.555V368.197L357.989 377.316L354 373.362L369.955 357.441L385.875 373.362L381.955 377.316L372.835 368.197V392.555H367.074Z" fill="#04B34A"/>
<path d="M411.366 392.477C408.82 392.477 406.553 392.04 404.565 391.165C402.587 390.278 401.025 389.062 399.877 387.517C398.741 385.96 398.156 384.165 398.121 382.131H405.553C405.599 382.983 405.877 383.733 406.388 384.381C406.911 385.017 407.604 385.511 408.468 385.864C409.332 386.216 410.303 386.392 411.383 386.392C412.508 386.392 413.502 386.193 414.366 385.795C415.229 385.398 415.906 384.847 416.394 384.142C416.883 383.437 417.127 382.625 417.127 381.705C417.127 380.773 416.866 379.949 416.343 379.233C415.832 378.506 415.093 377.937 414.127 377.528C413.173 377.119 412.036 376.915 410.718 376.915H407.462V371.494H410.718C411.832 371.494 412.815 371.301 413.667 370.915C414.531 370.528 415.201 369.994 415.678 369.312C416.156 368.619 416.394 367.812 416.394 366.892C416.394 366.017 416.184 365.25 415.763 364.591C415.354 363.92 414.775 363.398 414.025 363.023C413.286 362.648 412.423 362.46 411.434 362.46C410.434 362.46 409.519 362.642 408.69 363.006C407.86 363.358 407.195 363.864 406.695 364.523C406.195 365.182 405.928 365.955 405.894 366.841H398.82C398.854 364.83 399.428 363.057 400.542 361.523C401.656 359.989 403.156 358.79 405.042 357.926C406.94 357.051 409.082 356.614 411.468 356.614C413.877 356.614 415.985 357.051 417.792 357.926C419.599 358.801 421.002 359.983 422.002 361.472C423.013 362.949 423.513 364.608 423.502 366.449C423.513 368.403 422.906 370.034 421.678 371.341C420.462 372.648 418.877 373.477 416.923 373.83V374.102C419.491 374.432 421.445 375.324 422.786 376.778C424.138 378.222 424.809 380.028 424.798 382.199C424.809 384.188 424.235 385.955 423.076 387.5C421.928 389.045 420.343 390.261 418.32 391.148C416.298 392.034 413.979 392.477 411.366 392.477ZM436.587 387.227L436.399 389.102C436.251 390.602 435.967 392.097 435.547 393.585C435.138 395.085 434.706 396.443 434.251 397.659C433.808 398.875 433.45 399.83 433.178 400.523H428.473C428.643 399.852 428.876 398.915 429.172 397.71C429.467 396.517 429.746 395.176 430.007 393.688C430.268 392.199 430.433 390.682 430.501 389.136L430.587 387.227H436.587ZM454.657 392.477C452.862 392.466 451.129 392.165 449.458 391.574C447.799 390.983 446.31 390.023 444.992 388.693C443.674 387.364 442.629 385.602 441.856 383.409C441.094 381.216 440.714 378.523 440.714 375.33C440.725 372.398 441.06 369.778 441.719 367.472C442.39 365.153 443.344 363.187 444.583 361.574C445.833 359.96 447.327 358.733 449.066 357.892C450.805 357.04 452.754 356.614 454.913 356.614C457.242 356.614 459.299 357.068 461.083 357.977C462.867 358.875 464.299 360.097 465.379 361.642C466.469 363.188 467.129 364.92 467.356 366.841H460.077C459.793 365.625 459.197 364.67 458.288 363.977C457.379 363.284 456.254 362.938 454.913 362.938C452.64 362.938 450.913 363.926 449.731 365.903C448.56 367.881 447.964 370.568 447.941 373.966H448.18C448.702 372.932 449.407 372.051 450.293 371.324C451.191 370.585 452.208 370.023 453.344 369.636C454.492 369.239 455.702 369.04 456.975 369.04C459.043 369.04 460.884 369.528 462.498 370.506C464.112 371.472 465.384 372.801 466.316 374.494C467.248 376.187 467.714 378.125 467.714 380.307C467.714 382.67 467.163 384.773 466.06 386.614C464.969 388.455 463.441 389.898 461.475 390.943C459.521 391.977 457.248 392.489 454.657 392.477ZM454.623 386.682C455.759 386.682 456.776 386.409 457.674 385.864C458.572 385.318 459.276 384.58 459.788 383.648C460.299 382.716 460.555 381.67 460.555 380.511C460.555 379.352 460.299 378.312 459.788 377.392C459.288 376.472 458.594 375.739 457.708 375.193C456.822 374.648 455.81 374.375 454.674 374.375C453.822 374.375 453.032 374.534 452.305 374.852C451.589 375.17 450.958 375.614 450.413 376.182C449.879 376.75 449.458 377.409 449.151 378.159C448.844 378.898 448.691 379.687 448.691 380.528C448.691 381.653 448.947 382.682 449.458 383.614C449.981 384.545 450.685 385.29 451.572 385.847C452.469 386.403 453.487 386.682 454.623 386.682ZM491.562 385.455V383.614C491.562 382.216 491.858 380.932 492.449 379.761C493.051 378.58 493.92 377.636 495.057 376.932C496.205 376.216 497.602 375.858 499.25 375.858C500.92 375.858 502.324 376.21 503.46 376.915C504.608 377.619 505.472 378.562 506.051 379.744C506.642 380.915 506.938 382.205 506.938 383.614V385.455C506.938 386.852 506.642 388.142 506.051 389.324C505.46 390.494 504.591 391.432 503.443 392.136C502.295 392.852 500.898 393.21 499.25 393.21C497.58 393.21 496.176 392.852 495.04 392.136C493.903 391.432 493.04 390.494 492.449 389.324C491.858 388.142 491.562 386.852 491.562 385.455ZM496.523 383.614V385.455C496.523 386.261 496.716 387.023 497.102 387.739C497.5 388.455 498.216 388.812 499.25 388.812C500.284 388.812 500.989 388.46 501.364 387.756C501.75 387.051 501.943 386.284 501.943 385.455V383.614C501.943 382.784 501.761 382.011 501.398 381.295C501.034 380.58 500.318 380.222 499.25 380.222C498.227 380.222 497.517 380.58 497.119 381.295C496.722 382.011 496.523 382.784 496.523 383.614ZM473.648 365.477V363.636C473.648 362.227 473.949 360.937 474.551 359.767C475.153 358.585 476.023 357.642 477.159 356.938C478.307 356.233 479.693 355.881 481.318 355.881C483 355.881 484.409 356.233 485.545 356.938C486.682 357.642 487.545 358.585 488.136 359.767C488.727 360.937 489.023 362.227 489.023 363.636V365.477C489.023 366.886 488.722 368.176 488.119 369.347C487.528 370.517 486.659 371.455 485.511 372.159C484.375 372.852 482.977 373.199 481.318 373.199C479.659 373.199 478.256 372.847 477.108 372.142C475.972 371.426 475.108 370.489 474.517 369.33C473.938 368.159 473.648 366.875 473.648 365.477ZM478.642 363.636V365.477C478.642 366.307 478.835 367.074 479.222 367.778C479.619 368.483 480.318 368.835 481.318 368.835C482.364 368.835 483.074 368.483 483.449 367.778C483.835 367.074 484.028 366.307 484.028 365.477V363.636C484.028 362.807 483.847 362.034 483.483 361.318C483.119 360.602 482.398 360.244 481.318 360.244C480.307 360.244 479.608 360.608 479.222 361.335C478.835 362.062 478.642 362.83 478.642 363.636ZM475.898 392L499.898 357.091H504.364L480.364 392H475.898Z" fill="black"/>
<path d="M62.125 248.219C61.4115 248.208 60.7083 248.078 60.0156 247.828C59.3281 247.578 58.7031 247.161 58.1406 246.578C57.5781 245.995 57.1276 245.211 56.7891 244.227C56.4557 243.242 56.2891 242.013 56.2891 240.539C56.2891 239.143 56.4271 237.904 56.7031 236.82C56.9844 235.737 57.388 234.823 57.9141 234.078C58.4401 233.328 59.0755 232.758 59.8203 232.367C60.5651 231.977 61.401 231.781 62.3281 231.781C63.2813 231.781 64.1276 231.969 64.8672 232.344C65.6068 232.719 66.2057 233.237 66.6641 233.898C67.1276 234.56 67.4219 235.312 67.5469 236.156H65.1641C65.0026 235.49 64.6823 234.945 64.2031 234.523C63.724 234.102 63.099 233.891 62.3281 233.891C61.1563 233.891 60.2422 234.401 59.5859 235.422C58.9349 236.443 58.6068 237.862 58.6016 239.68H58.7188C58.9948 239.227 59.3333 238.841 59.7344 238.523C60.1406 238.201 60.5938 237.953 61.0938 237.781C61.599 237.604 62.1302 237.516 62.6875 237.516C63.6146 237.516 64.4531 237.742 65.2031 238.195C65.9583 238.643 66.5599 239.263 67.0078 240.055C67.4557 240.846 67.6797 241.753 67.6797 242.773C67.6797 243.794 67.4479 244.719 66.9844 245.547C66.526 246.375 65.8802 247.031 65.0469 247.516C64.2135 247.995 63.2396 248.229 62.125 248.219ZM62.1172 246.187C62.7318 246.187 63.2813 246.036 63.7656 245.734C64.25 245.432 64.6328 245.026 64.9141 244.516C65.1953 244.005 65.3359 243.435 65.3359 242.805C65.3359 242.19 65.1979 241.63 64.9219 241.125C64.651 240.62 64.276 240.219 63.7969 239.922C63.3229 239.625 62.7813 239.477 62.1719 239.477C61.7083 239.477 61.2786 239.565 60.8828 239.742C60.4922 239.919 60.1484 240.164 59.8516 240.477C59.5547 240.789 59.3203 241.148 59.1484 241.555C58.9818 241.956 58.8984 242.38 58.8984 242.828C58.8984 243.427 59.0365 243.982 59.3125 244.492C59.5938 245.003 59.9766 245.414 60.4609 245.727C60.9505 246.034 61.5026 246.187 62.1172 246.187ZM75.5841 248.219C74.6049 248.219 73.7247 248.031 72.9435 247.656C72.1674 247.276 71.5476 246.755 71.0841 246.094C70.6205 245.432 70.3731 244.677 70.3419 243.828H72.6856C72.7429 244.516 73.0476 245.081 73.5997 245.523C74.1518 245.966 74.8133 246.187 75.5841 246.187C76.1987 246.187 76.7429 246.047 77.2169 245.766C77.6961 245.479 78.0711 245.086 78.3419 244.586C78.6179 244.086 78.756 243.516 78.756 242.875C78.756 242.224 78.6153 241.643 78.3341 241.133C78.0528 240.622 77.6648 240.221 77.17 239.93C76.6804 239.638 76.1179 239.49 75.4825 239.484C74.9981 239.484 74.5112 239.568 74.0216 239.734C73.532 239.901 73.1362 240.12 72.8341 240.391L70.6231 240.062L71.5216 232H80.3185V234.07H73.5294L73.0216 238.547H73.1153C73.4278 238.245 73.8419 237.992 74.3575 237.789C74.8784 237.586 75.4356 237.484 76.0294 237.484C77.0034 237.484 77.8705 237.716 78.631 238.18C79.3966 238.643 79.9981 239.276 80.4356 240.078C80.8784 240.875 81.0971 241.792 81.0919 242.828C81.0971 243.865 80.8627 244.789 80.3888 245.602C79.92 246.414 79.269 247.055 78.4356 247.523C77.6075 247.987 76.657 248.219 75.5841 248.219ZM86.2131 245.812L86.0959 246.664C86.0178 247.289 85.885 247.94 85.6975 248.617C85.5152 249.299 85.3251 249.932 85.1272 250.516C84.9344 251.099 84.7756 251.563 84.6506 251.906H82.9943C83.0621 251.583 83.1558 251.146 83.2756 250.594C83.3954 250.047 83.5126 249.435 83.6272 248.758C83.7417 248.081 83.8277 247.391 83.885 246.687L83.9631 245.812H86.2131ZM89.389 248L96.3734 234.187V234.07H88.2952V232H98.8734V234.141L91.9124 248H89.389Z" fill="#CFCFCF"/>
<path d="M472.463 205.219C471.749 205.208 471.046 205.078 470.353 204.828C469.666 204.578 469.041 204.161 468.478 203.578C467.916 202.995 467.465 202.211 467.127 201.227C466.793 200.242 466.627 199.013 466.627 197.539C466.627 196.143 466.765 194.904 467.041 193.82C467.322 192.737 467.726 191.823 468.252 191.078C468.778 190.328 469.413 189.758 470.158 189.367C470.903 188.977 471.739 188.781 472.666 188.781C473.619 188.781 474.465 188.969 475.205 189.344C475.944 189.719 476.543 190.237 477.002 190.898C477.465 191.56 477.759 192.312 477.884 193.156H475.502C475.34 192.49 475.02 191.945 474.541 191.523C474.062 191.102 473.437 190.891 472.666 190.891C471.494 190.891 470.58 191.401 469.924 192.422C469.272 193.443 468.944 194.862 468.939 196.68H469.056C469.332 196.227 469.671 195.841 470.072 195.523C470.478 195.201 470.931 194.953 471.431 194.781C471.937 194.604 472.468 194.516 473.025 194.516C473.952 194.516 474.791 194.742 475.541 195.195C476.296 195.643 476.897 196.263 477.345 197.055C477.793 197.846 478.017 198.753 478.017 199.773C478.017 200.794 477.786 201.719 477.322 202.547C476.864 203.375 476.218 204.031 475.384 204.516C474.551 204.995 473.577 205.229 472.463 205.219ZM472.455 203.187C473.069 203.187 473.619 203.036 474.103 202.734C474.588 202.432 474.97 202.026 475.252 201.516C475.533 201.005 475.674 200.435 475.674 199.805C475.674 199.19 475.536 198.63 475.259 198.125C474.989 197.62 474.614 197.219 474.134 196.922C473.661 196.625 473.119 196.477 472.509 196.477C472.046 196.477 471.616 196.565 471.22 196.742C470.83 196.919 470.486 197.164 470.189 197.477C469.892 197.789 469.658 198.148 469.486 198.555C469.319 198.956 469.236 199.38 469.236 199.828C469.236 200.427 469.374 200.982 469.65 201.492C469.931 202.003 470.314 202.414 470.799 202.727C471.288 203.034 471.84 203.187 472.455 203.187ZM485.961 188.781C486.674 188.786 487.377 188.917 488.07 189.172C488.763 189.427 489.388 189.844 489.945 190.422C490.508 191 490.956 191.781 491.289 192.766C491.627 193.745 491.799 194.964 491.804 196.422C491.804 197.823 491.664 199.07 491.383 200.164C491.101 201.253 490.698 202.172 490.172 202.922C489.651 203.672 489.018 204.242 488.273 204.633C487.528 205.023 486.69 205.219 485.758 205.219C484.804 205.219 483.958 205.031 483.219 204.656C482.479 204.281 481.877 203.763 481.414 203.102C480.95 202.435 480.661 201.669 480.547 200.805H482.929C483.086 201.492 483.403 202.049 483.883 202.477C484.367 202.898 484.992 203.109 485.758 203.109C486.929 203.109 487.844 202.599 488.5 201.578C489.156 200.552 489.487 199.12 489.492 197.281H489.367C489.096 197.729 488.758 198.115 488.351 198.437C487.95 198.76 487.5 199.01 487 199.187C486.5 199.365 485.966 199.453 485.398 199.453C484.476 199.453 483.638 199.227 482.883 198.773C482.127 198.32 481.526 197.698 481.078 196.906C480.63 196.115 480.406 195.211 480.406 194.195C480.406 193.185 480.635 192.268 481.094 191.445C481.557 190.622 482.203 189.971 483.031 189.492C483.864 189.008 484.841 188.771 485.961 188.781ZM485.969 190.812C485.359 190.812 484.81 190.964 484.32 191.266C483.836 191.562 483.453 191.966 483.172 192.477C482.89 192.982 482.75 193.544 482.75 194.164C482.75 194.784 482.885 195.346 483.156 195.852C483.432 196.352 483.807 196.75 484.281 197.047C484.76 197.339 485.307 197.484 485.922 197.484C486.38 197.484 486.807 197.396 487.203 197.219C487.599 197.042 487.945 196.797 488.242 196.484C488.539 196.167 488.771 195.807 488.937 195.406C489.104 195.005 489.187 194.583 489.187 194.141C489.187 193.552 489.047 193.005 488.765 192.5C488.489 191.995 488.109 191.589 487.625 191.281C487.14 190.969 486.588 190.812 485.969 190.812ZM496.894 202.812L496.777 203.664C496.699 204.289 496.566 204.94 496.379 205.617C496.197 206.299 496.006 206.932 495.808 207.516C495.616 208.099 495.457 208.563 495.332 208.906H493.676C493.743 208.583 493.837 208.146 493.957 207.594C494.077 207.047 494.194 206.435 494.308 205.758C494.423 205.081 494.509 204.391 494.566 203.687L494.644 202.812H496.894ZM504.93 205.219C503.857 205.219 502.898 205.034 502.055 204.664C501.216 204.294 500.552 203.781 500.063 203.125C499.578 202.464 499.318 201.698 499.281 200.828H501.734C501.766 201.302 501.924 201.714 502.211 202.062C502.503 202.406 502.883 202.672 503.352 202.859C503.82 203.047 504.341 203.141 504.914 203.141C505.544 203.141 506.102 203.031 506.586 202.812C507.076 202.594 507.458 202.289 507.734 201.898C508.01 201.503 508.148 201.047 508.148 200.531C508.148 199.995 508.01 199.523 507.734 199.117C507.464 198.706 507.065 198.383 506.539 198.148C506.018 197.914 505.388 197.797 504.648 197.797H503.297V195.828H504.648C505.242 195.828 505.763 195.721 506.211 195.508C506.664 195.294 507.018 194.997 507.273 194.617C507.529 194.232 507.656 193.781 507.656 193.266C507.656 192.771 507.544 192.341 507.32 191.977C507.102 191.607 506.789 191.318 506.383 191.109C505.982 190.901 505.508 190.797 504.961 190.797C504.44 190.797 503.953 190.893 503.5 191.086C503.052 191.273 502.688 191.544 502.406 191.898C502.125 192.247 501.974 192.667 501.953 193.156H499.617C499.643 192.292 499.898 191.531 500.383 190.875C500.872 190.219 501.518 189.706 502.32 189.336C503.122 188.966 504.013 188.781 504.992 188.781C506.018 188.781 506.904 188.982 507.648 189.383C508.398 189.779 508.977 190.307 509.383 190.969C509.794 191.63 509.997 192.354 509.992 193.141C509.997 194.036 509.747 194.797 509.242 195.422C508.742 196.047 508.076 196.466 507.242 196.68V196.805C508.305 196.966 509.128 197.388 509.711 198.07C510.299 198.753 510.591 199.599 510.586 200.609C510.591 201.49 510.346 202.279 509.852 202.977C509.362 203.674 508.693 204.224 507.844 204.625C506.995 205.021 506.023 205.219 504.93 205.219Z" fill="#CFCFCF"/>
<rect x="40" y="437" width="1000" height="295" rx="20" fill="#F7F7F7"/>
<path opacity="0.6" d="M56.2912 472V458.909H61.2003C62.206 458.909 63.0497 459.097 63.7315 459.472C64.4176 459.847 64.9354 460.362 65.2848 461.018C65.6385 461.67 65.8153 462.412 65.8153 463.243C65.8153 464.082 65.6385 464.828 65.2848 465.48C64.9311 466.132 64.4091 466.646 63.7188 467.021C63.0284 467.391 62.1783 467.577 61.1683 467.577H57.9148V465.627H60.8487C61.4368 465.627 61.9183 465.525 62.2933 465.32C62.6683 465.116 62.9453 464.835 63.1243 464.477C63.3075 464.119 63.3991 463.707 63.3991 463.243C63.3991 462.778 63.3075 462.369 63.1243 462.016C62.9453 461.662 62.6662 461.387 62.2869 461.191C61.9119 460.991 61.4283 460.891 60.8359 460.891H58.6626V472H56.2912ZM69.6752 472V458.909H78.1894V460.897H72.0466V464.451H77.7483V466.439H72.0466V470.012H78.2405V472H69.6752ZM90.8271 458.909V460.897H84.7802V472H82.4088V458.909H90.8271ZM94.6326 458.909H96.9849V467.832H97.1063L103.262 458.909H105.39V472H103.019V463.083H102.91L96.7356 472H94.6326V458.909ZM121.472 465.455C121.472 466.865 121.208 468.073 120.679 469.079C120.155 470.08 119.439 470.847 118.531 471.38C117.628 471.913 116.603 472.179 115.457 472.179C114.311 472.179 113.284 471.913 112.376 471.38C111.473 470.843 110.757 470.074 110.228 469.072C109.704 468.067 109.442 466.861 109.442 465.455C109.442 464.044 109.704 462.838 110.228 461.837C110.757 460.831 111.473 460.062 112.376 459.529C113.284 458.996 114.311 458.73 115.457 458.73C116.603 458.73 117.628 458.996 118.531 459.529C119.439 460.062 120.155 460.831 120.679 461.837C121.208 462.838 121.472 464.044 121.472 465.455ZM119.088 465.455C119.088 464.462 118.932 463.624 118.621 462.942C118.314 462.256 117.888 461.739 117.343 461.389C116.797 461.036 116.169 460.859 115.457 460.859C114.745 460.859 114.117 461.036 113.571 461.389C113.026 461.739 112.598 462.256 112.286 462.942C111.98 463.624 111.826 464.462 111.826 465.455C111.826 466.447 111.98 467.287 112.286 467.973C112.598 468.655 113.026 469.173 113.571 469.526C114.117 469.876 114.745 470.05 115.457 470.05C116.169 470.05 116.797 469.876 117.343 469.526C117.888 469.173 118.314 468.655 118.621 467.973C118.932 467.287 119.088 466.447 119.088 465.455ZM125.514 472V458.909H127.885V464.451H133.951V458.909H136.329V472H133.951V466.439H127.885V472H125.514ZM142.313 463.965H145.637C146.638 463.965 147.497 464.129 148.213 464.457C148.933 464.781 149.485 465.239 149.868 465.832C150.252 466.424 150.443 467.121 150.443 467.922C150.443 468.727 150.252 469.437 149.868 470.05C149.485 470.66 148.933 471.137 148.213 471.482C147.497 471.827 146.638 472 145.637 472H140.734V458.909H143.112V470.057H145.637C146.165 470.057 146.613 469.957 146.979 469.756C147.345 469.556 147.622 469.292 147.81 468.964C148.002 468.636 148.098 468.28 148.098 467.896C148.098 467.342 147.885 466.871 147.458 466.484C147.037 466.092 146.429 465.896 145.637 465.896H142.313V463.965ZM153.953 458.909V472H151.575V458.909H153.953Z" fill="black"/>
<path opacity="0.4" d="M1019.95 685.5H55V575L686.372 614.5C686.372 614.5 1014.39 538.613 1019.95 536.066V536C1020.05 536 1020.05 536.022 1019.95 536.066V685.5Z" fill="url(#paint1_linear_3119_2405)"/>
<rect x="1015.19" y="531" width="10.2717" height="10.2717" rx="5.13587" fill="#04B34A"/>
<path d="M1017.5 537L699.536 614.944C696.681 615.644 693.735 615.906 690.801 615.72L55 575.5" stroke="#04B34A" stroke-width="4"/>
<path d="M876.074 705.555V681.197L866.989 690.316L863 686.362L878.955 670.441L894.875 686.362L890.955 690.316L881.835 681.197V705.555H876.074Z" fill="#04B34A"/>
<path d="M921.048 705.477C919.252 705.466 917.519 705.165 915.849 704.574C914.19 703.983 912.701 703.023 911.383 701.693C910.065 700.364 909.019 698.602 908.246 696.409C907.485 694.216 907.104 691.523 907.104 688.33C907.116 685.398 907.451 682.778 908.11 680.472C908.781 678.153 909.735 676.187 910.974 674.574C912.224 672.96 913.718 671.733 915.457 670.892C917.195 670.04 919.144 669.614 921.303 669.614C923.633 669.614 925.69 670.068 927.474 670.977C929.258 671.875 930.69 673.097 931.769 674.642C932.86 676.188 933.519 677.92 933.746 679.841H926.468C926.184 678.625 925.587 677.67 924.678 676.977C923.769 676.284 922.644 675.938 921.303 675.938C919.031 675.938 917.303 676.926 916.121 678.903C914.951 680.881 914.354 683.568 914.332 686.966H914.57C915.093 685.932 915.798 685.051 916.684 684.324C917.582 683.585 918.599 683.023 919.735 682.636C920.883 682.239 922.093 682.04 923.366 682.04C925.434 682.04 927.275 682.528 928.888 683.506C930.502 684.472 931.775 685.801 932.707 687.494C933.638 689.187 934.104 691.125 934.104 693.307C934.104 695.67 933.553 697.773 932.451 699.614C931.36 701.455 929.832 702.898 927.866 703.943C925.911 704.977 923.638 705.489 921.048 705.477ZM921.013 699.682C922.15 699.682 923.167 699.409 924.065 698.864C924.962 698.318 925.667 697.58 926.178 696.648C926.69 695.716 926.945 694.67 926.945 693.511C926.945 692.352 926.69 691.312 926.178 690.392C925.678 689.472 924.985 688.739 924.099 688.193C923.212 687.648 922.201 687.375 921.065 687.375C920.212 687.375 919.423 687.534 918.695 687.852C917.979 688.17 917.349 688.614 916.803 689.182C916.269 689.75 915.849 690.409 915.542 691.159C915.235 691.898 915.082 692.687 915.082 693.528C915.082 694.653 915.337 695.682 915.849 696.614C916.371 697.545 917.076 698.29 917.962 698.847C918.86 699.403 919.877 699.682 921.013 699.682ZM945.352 700.227L945.165 702.102C945.017 703.602 944.733 705.097 944.312 706.585C943.903 708.085 943.472 709.443 943.017 710.659C942.574 711.875 942.216 712.83 941.943 713.523H937.239C937.409 712.852 937.642 711.915 937.938 710.71C938.233 709.517 938.511 708.176 938.773 706.688C939.034 705.199 939.199 703.682 939.267 702.136L939.352 700.227H945.352ZM963.21 705.477C960.664 705.477 958.397 705.04 956.408 704.165C954.431 703.278 952.869 702.062 951.721 700.517C950.585 698.96 949.999 697.165 949.965 695.131H957.397C957.442 695.983 957.721 696.733 958.232 697.381C958.755 698.017 959.448 698.511 960.312 698.864C961.175 699.216 962.147 699.392 963.227 699.392C964.352 699.392 965.346 699.193 966.21 698.795C967.073 698.398 967.749 697.847 968.238 697.142C968.727 696.437 968.971 695.625 968.971 694.705C968.971 693.773 968.71 692.949 968.187 692.233C967.675 691.506 966.937 690.937 965.971 690.528C965.016 690.119 963.88 689.915 962.562 689.915H959.306V684.494H962.562C963.675 684.494 964.658 684.301 965.511 683.915C966.374 683.528 967.045 682.994 967.522 682.312C967.999 681.619 968.238 680.812 968.238 679.892C968.238 679.017 968.028 678.25 967.607 677.591C967.198 676.92 966.619 676.398 965.869 676.023C965.13 675.648 964.266 675.46 963.278 675.46C962.278 675.46 961.363 675.642 960.533 676.006C959.704 676.358 959.039 676.864 958.539 677.523C958.039 678.182 957.772 678.955 957.738 679.841H950.664C950.698 677.83 951.272 676.057 952.386 674.523C953.499 672.989 954.999 671.79 956.886 670.926C958.783 670.051 960.925 669.614 963.312 669.614C965.721 669.614 967.829 670.051 969.636 670.926C971.442 671.801 972.846 672.983 973.846 674.472C974.857 675.949 975.357 677.608 975.346 679.449C975.357 681.403 974.749 683.034 973.522 684.341C972.306 685.648 970.721 686.477 968.766 686.83V687.102C971.335 687.432 973.289 688.324 974.63 689.778C975.982 691.222 976.653 693.028 976.641 695.199C976.653 697.188 976.079 698.955 974.92 700.5C973.772 702.045 972.187 703.261 970.164 704.148C968.141 705.034 965.823 705.477 963.21 705.477ZM1000.56 698.455V696.614C1000.56 695.216 1000.86 693.932 1001.45 692.761C1002.05 691.58 1002.92 690.636 1004.06 689.932C1005.2 689.216 1006.6 688.858 1008.25 688.858C1009.92 688.858 1011.32 689.21 1012.46 689.915C1013.61 690.619 1014.47 691.562 1015.05 692.744C1015.64 693.915 1015.94 695.205 1015.94 696.614V698.455C1015.94 699.852 1015.64 701.142 1015.05 702.324C1014.46 703.494 1013.59 704.432 1012.44 705.136C1011.3 705.852 1009.9 706.21 1008.25 706.21C1006.58 706.21 1005.18 705.852 1004.04 705.136C1002.9 704.432 1002.04 703.494 1001.45 702.324C1000.86 701.142 1000.56 699.852 1000.56 698.455ZM1005.52 696.614V698.455C1005.52 699.261 1005.72 700.023 1006.1 700.739C1006.5 701.455 1007.22 701.812 1008.25 701.812C1009.28 701.812 1009.99 701.46 1010.36 700.756C1010.75 700.051 1010.94 699.284 1010.94 698.455V696.614C1010.94 695.784 1010.76 695.011 1010.4 694.295C1010.03 693.58 1009.32 693.222 1008.25 693.222C1007.23 693.222 1006.52 693.58 1006.12 694.295C1005.72 695.011 1005.52 695.784 1005.52 696.614ZM982.648 678.477V676.636C982.648 675.227 982.949 673.937 983.551 672.767C984.153 671.585 985.023 670.642 986.159 669.938C987.307 669.233 988.693 668.881 990.318 668.881C992 668.881 993.409 669.233 994.545 669.938C995.682 670.642 996.545 671.585 997.136 672.767C997.727 673.937 998.023 675.227 998.023 676.636V678.477C998.023 679.886 997.722 681.176 997.119 682.347C996.528 683.517 995.659 684.455 994.511 685.159C993.375 685.852 991.977 686.199 990.318 686.199C988.659 686.199 987.256 685.847 986.108 685.142C984.972 684.426 984.108 683.489 983.517 682.33C982.938 681.159 982.648 679.875 982.648 678.477ZM987.642 676.636V678.477C987.642 679.307 987.835 680.074 988.222 680.778C988.619 681.483 989.318 681.835 990.318 681.835C991.364 681.835 992.074 681.483 992.449 680.778C992.835 680.074 993.028 679.307 993.028 678.477V676.636C993.028 675.807 992.847 675.034 992.483 674.318C992.119 673.602 991.398 673.244 990.318 673.244C989.307 673.244 988.608 673.608 988.222 674.335C987.835 675.062 987.642 675.83 987.642 676.636ZM984.898 705L1008.9 670.091H1013.36L989.364 705H984.898Z" fill="black"/>
<path d="M61.8203 561.219C60.8411 561.219 59.9609 561.031 59.1797 560.656C58.4036 560.276 57.7839 559.755 57.3203 559.094C56.8568 558.432 56.6094 557.677 56.5781 556.828H58.9219C58.9792 557.516 59.2839 558.081 59.8359 558.523C60.388 558.966 61.0495 559.187 61.8203 559.187C62.4349 559.187 62.9792 559.047 63.4531 558.766C63.9323 558.479 64.3073 558.086 64.5781 557.586C64.8542 557.086 64.9922 556.516 64.9922 555.875C64.9922 555.224 64.8516 554.643 64.5703 554.133C64.2891 553.622 63.901 553.221 63.4063 552.93C62.9167 552.638 62.3542 552.49 61.7188 552.484C61.2344 552.484 60.7474 552.568 60.2578 552.734C59.7682 552.901 59.3724 553.12 59.0703 553.391L56.8594 553.062L57.7578 545H66.5547V547.07H59.7656L59.2578 551.547H59.3516C59.6641 551.245 60.0781 550.992 60.5938 550.789C61.1146 550.586 61.6719 550.484 62.2656 550.484C63.2396 550.484 64.1068 550.716 64.8672 551.18C65.6328 551.643 66.2344 552.276 66.6719 553.078C67.1146 553.875 67.3333 554.792 67.3281 555.828C67.3333 556.865 67.099 557.789 66.625 558.602C66.1563 559.414 65.5052 560.055 64.6719 560.523C63.8438 560.987 62.8932 561.219 61.8203 561.219ZM75.5294 561.266C74.295 561.26 73.2403 560.935 72.3653 560.289C71.4903 559.643 70.8211 558.703 70.3575 557.469C69.894 556.234 69.6622 554.747 69.6622 553.008C69.6622 551.273 69.894 549.792 70.3575 548.562C70.8263 547.333 71.4981 546.396 72.3731 545.75C73.2534 545.104 74.3054 544.781 75.5294 544.781C76.7534 544.781 77.8028 545.107 78.6778 545.758C79.5528 546.404 80.2221 547.341 80.6856 548.57C81.1544 549.794 81.3888 551.273 81.3888 553.008C81.3888 554.753 81.157 556.242 80.6935 557.477C80.2299 558.706 79.5606 559.646 78.6856 560.297C77.8106 560.943 76.7586 561.266 75.5294 561.266ZM75.5294 559.18C76.6127 559.18 77.4591 558.651 78.0685 557.594C78.683 556.536 78.9903 555.008 78.9903 553.008C78.9903 551.68 78.8497 550.557 78.5685 549.641C78.2924 548.719 77.894 548.021 77.3731 547.547C76.8575 547.068 76.2429 546.828 75.5294 546.828C74.4513 546.828 73.6049 547.359 72.9903 548.422C72.3758 549.484 72.0659 551.013 72.0606 553.008C72.0606 554.341 72.1987 555.469 72.4747 556.391C72.756 557.307 73.1544 558.003 73.67 558.477C74.1856 558.945 74.8054 559.18 75.5294 559.18ZM86.4279 558.812L86.3108 559.664C86.2326 560.289 86.0998 560.94 85.9123 561.617C85.73 562.299 85.5399 562.932 85.342 563.516C85.1493 564.099 84.9904 564.563 84.8654 564.906H83.2092C83.2769 564.583 83.3706 564.146 83.4904 563.594C83.6102 563.047 83.7274 562.435 83.842 561.758C83.9566 561.081 84.0425 560.391 84.0998 559.687L84.1779 558.812H86.4279ZM89.473 561V559.25L94.887 553.641C95.4651 553.031 95.9417 552.497 96.3167 552.039C96.6969 551.576 96.9808 551.135 97.1683 550.719C97.3558 550.302 97.4495 549.859 97.4495 549.391C97.4495 548.859 97.3245 548.401 97.0745 548.016C96.8245 547.625 96.4834 547.326 96.0511 547.117C95.6188 546.904 95.1318 546.797 94.5901 546.797C94.0172 546.797 93.5172 546.914 93.0901 547.148C92.6631 547.383 92.3349 547.714 92.1058 548.141C91.8766 548.568 91.762 549.068 91.762 549.641H89.4573C89.4573 548.667 89.6813 547.815 90.1292 547.086C90.5771 546.357 91.1917 545.792 91.973 545.391C92.7542 544.984 93.6422 544.781 94.637 544.781C95.6422 544.781 96.5276 544.982 97.2933 545.383C98.0641 545.779 98.6657 546.32 99.098 547.008C99.5303 547.69 99.7464 548.461 99.7464 549.32C99.7464 549.914 99.6344 550.495 99.4105 551.062C99.1917 551.63 98.8089 552.263 98.262 552.961C97.7151 553.654 96.9547 554.495 95.9808 555.484L92.8011 558.812V558.93H100.004V561H89.473Z" fill="#CFCFCF"/>
<path d="M981.867 518.219C980.888 518.219 980.008 518.031 979.226 517.656C978.45 517.276 977.83 516.755 977.367 516.094C976.903 515.432 976.656 514.677 976.625 513.828H978.968C979.026 514.516 979.33 515.081 979.883 515.523C980.435 515.966 981.096 516.187 981.867 516.187C982.481 516.187 983.026 516.047 983.5 515.766C983.979 515.479 984.354 515.086 984.625 514.586C984.901 514.086 985.039 513.516 985.039 512.875C985.039 512.224 984.898 511.643 984.617 511.133C984.336 510.622 983.948 510.221 983.453 509.93C982.963 509.638 982.401 509.49 981.765 509.484C981.281 509.484 980.794 509.568 980.304 509.734C979.815 509.901 979.419 510.12 979.117 510.391L976.906 510.062L977.804 502H986.601V504.07H979.812L979.304 508.547H979.398C979.711 508.245 980.125 507.992 980.64 507.789C981.161 507.586 981.718 507.484 982.312 507.484C983.286 507.484 984.153 507.716 984.914 508.18C985.679 508.643 986.281 509.276 986.718 510.078C987.161 510.875 987.38 511.792 987.375 512.828C987.38 513.865 987.146 514.789 986.672 515.602C986.203 516.414 985.552 517.055 984.718 517.523C983.89 517.987 982.94 518.219 981.867 518.219ZM995.592 518.219C994.878 518.208 994.175 518.078 993.482 517.828C992.795 517.578 992.17 517.161 991.607 516.578C991.045 515.995 990.594 515.211 990.256 514.227C989.922 513.242 989.756 512.013 989.756 510.539C989.756 509.143 989.894 507.904 990.17 506.82C990.451 505.737 990.855 504.823 991.381 504.078C991.907 503.328 992.542 502.758 993.287 502.367C994.032 501.977 994.868 501.781 995.795 501.781C996.748 501.781 997.594 501.969 998.334 502.344C999.073 502.719 999.672 503.237 1000.13 503.898C1000.59 504.56 1000.89 505.312 1001.01 506.156H998.631C998.469 505.49 998.149 504.945 997.67 504.523C997.191 504.102 996.566 503.891 995.795 503.891C994.623 503.891 993.709 504.401 993.053 505.422C992.401 506.443 992.073 507.862 992.068 509.68H992.185C992.461 509.227 992.8 508.841 993.201 508.523C993.607 508.201 994.06 507.953 994.56 507.781C995.066 507.604 995.597 507.516 996.154 507.516C997.081 507.516 997.92 507.742 998.67 508.195C999.425 508.643 1000.03 509.263 1000.47 510.055C1000.92 510.846 1001.15 511.753 1001.15 512.773C1001.15 513.794 1000.91 514.719 1000.45 515.547C999.993 516.375 999.347 517.031 998.513 517.516C997.68 517.995 996.706 518.229 995.592 518.219ZM995.584 516.187C996.198 516.187 996.748 516.036 997.232 515.734C997.717 515.432 998.099 515.026 998.381 514.516C998.662 514.005 998.803 513.435 998.803 512.805C998.803 512.19 998.665 511.63 998.388 511.125C998.118 510.62 997.743 510.219 997.263 509.922C996.79 509.625 996.248 509.477 995.638 509.477C995.175 509.477 994.745 509.565 994.349 509.742C993.959 509.919 993.615 510.164 993.318 510.477C993.021 510.789 992.787 511.148 992.615 511.555C992.448 511.956 992.365 512.38 992.365 512.828C992.365 513.427 992.503 513.982 992.779 514.492C993.06 515.003 993.443 515.414 993.928 515.727C994.417 516.034 994.969 516.187 995.584 516.187ZM1006.11 515.812L1005.99 516.664C1005.91 517.289 1005.78 517.94 1005.59 518.617C1005.41 519.299 1005.22 519.932 1005.02 520.516C1004.83 521.099 1004.67 521.563 1004.55 521.906H1002.89C1002.96 521.583 1003.05 521.146 1003.17 520.594C1003.29 520.047 1003.41 519.435 1003.52 518.758C1003.64 518.081 1003.72 517.391 1003.78 516.687L1003.86 515.812H1006.11ZM1014.18 518.219C1013.2 518.219 1012.32 518.031 1011.54 517.656C1010.76 517.276 1010.14 516.755 1009.68 516.094C1009.21 515.432 1008.97 514.677 1008.94 513.828H1011.28C1011.34 514.516 1011.64 515.081 1012.19 515.523C1012.75 515.966 1013.41 516.187 1014.18 516.187C1014.79 516.187 1015.34 516.047 1015.81 515.766C1016.29 515.479 1016.66 515.086 1016.94 514.586C1017.21 514.086 1017.35 513.516 1017.35 512.875C1017.35 512.224 1017.21 511.643 1016.93 511.133C1016.65 510.622 1016.26 510.221 1015.76 509.93C1015.27 509.638 1014.71 509.49 1014.08 509.484C1013.59 509.484 1013.1 509.568 1012.62 509.734C1012.13 509.901 1011.73 510.12 1011.43 510.391L1009.22 510.062L1010.12 502H1018.91V504.07H1012.12L1011.62 508.547H1011.71C1012.02 508.245 1012.44 507.992 1012.95 507.789C1013.47 507.586 1014.03 507.484 1014.62 507.484C1015.6 507.484 1016.46 507.716 1017.22 508.18C1017.99 508.643 1018.59 509.276 1019.03 510.078C1019.47 510.875 1019.69 511.792 1019.69 512.828C1019.69 513.865 1019.46 514.789 1018.98 515.602C1018.51 516.414 1017.86 517.055 1017.03 517.523C1016.2 517.987 1015.25 518.219 1014.18 518.219Z" fill="#CFCFCF"/>
<rect x="549" y="124" width="491" height="295" rx="20" fill="#F7F7F7"/>
<path opacity="0.6" d="M576.496 150.326H574.106C574.038 149.934 573.912 149.587 573.729 149.284C573.545 148.977 573.317 148.717 573.045 148.504C572.772 148.291 572.461 148.131 572.112 148.025C571.766 147.914 571.393 147.859 570.993 147.859C570.281 147.859 569.651 148.038 569.101 148.396C568.551 148.749 568.121 149.269 567.81 149.955C567.499 150.637 567.343 151.47 567.343 152.455C567.343 153.456 567.499 154.3 567.81 154.986C568.125 155.668 568.555 156.183 569.101 156.533C569.651 156.878 570.279 157.05 570.987 157.05C571.379 157.05 571.745 156.999 572.086 156.897C572.431 156.79 572.74 156.635 573.013 156.43C573.29 156.226 573.522 155.974 573.71 155.676C573.901 155.378 574.033 155.037 574.106 154.653L576.496 154.666C576.407 155.288 576.213 155.872 575.915 156.418C575.621 156.963 575.235 157.445 574.758 157.862C574.281 158.276 573.722 158.599 573.083 158.834C572.444 159.064 571.734 159.179 570.955 159.179C569.804 159.179 568.777 158.913 567.874 158.38C566.97 157.847 566.259 157.078 565.739 156.072C565.219 155.067 564.959 153.861 564.959 152.455C564.959 151.044 565.221 149.838 565.745 148.837C566.269 147.831 566.983 147.062 567.886 146.529C568.79 145.996 569.813 145.73 570.955 145.73C571.683 145.73 572.361 145.832 572.987 146.037C573.614 146.241 574.172 146.542 574.662 146.938C575.152 147.33 575.555 147.812 575.87 148.383C576.19 148.95 576.398 149.597 576.496 150.326ZM581.991 159H579.46L584.068 145.909H586.996L591.611 159H589.08L585.583 148.594H585.481L581.991 159ZM582.074 153.867H588.978V155.772H582.074V153.867ZM595.135 159V145.909H597.507V151.451H603.573V145.909H605.951V159H603.573V153.439H597.507V159H595.135ZM618.173 159L613.865 153.279H612.701V159H610.33V145.909H612.701V151.291H613.296L617.949 145.909H620.87L615.699 151.879L621.094 159H618.173ZM623.93 147.897V145.909H634.374V147.897H630.328V159H627.976V147.897H623.93ZM643.228 151.502V153.407H637.334V151.502H643.228ZM658.245 145.909V159H655.893V147.878H650.165V159H647.813V145.909H658.245ZM662.881 159V145.909H671.396V147.897H665.253V151.451H670.955V153.439H665.253V157.012H671.447V159H662.881ZM675.04 147.897V145.909H685.484V147.897H681.438V159H679.086V147.897H675.04ZM689.298 159V145.909H697.812V147.897H691.669V151.451H697.371V153.439H691.669V157.012H697.863V159H689.298ZM702.031 159V145.909H706.941C707.946 145.909 708.79 146.097 709.472 146.472C710.158 146.847 710.676 147.362 711.025 148.018C711.379 148.67 711.556 149.412 711.556 150.243C711.556 151.082 711.379 151.828 711.025 152.48C710.671 153.132 710.149 153.646 709.459 154.021C708.769 154.391 707.919 154.577 706.909 154.577H703.655V152.627H706.589C707.177 152.627 707.659 152.525 708.034 152.32C708.409 152.116 708.686 151.835 708.865 151.477C709.048 151.119 709.139 150.707 709.139 150.243C709.139 149.778 709.048 149.369 708.865 149.016C708.686 148.662 708.406 148.387 708.027 148.191C707.652 147.991 707.169 147.891 706.576 147.891H704.403V159H702.031ZM715.415 159V145.909H723.834V147.897H717.787V150.965H720.312C721.313 150.965 722.172 151.129 722.888 151.457C723.608 151.781 724.16 152.239 724.543 152.832C724.927 153.424 725.119 154.121 725.119 154.922C725.119 155.727 724.927 156.437 724.543 157.05C724.16 157.66 723.608 158.137 722.888 158.482C722.172 158.827 721.313 159 720.312 159H715.415ZM717.787 157.057H720.312C720.84 157.057 721.288 156.957 721.654 156.756C722.021 156.556 722.298 156.292 722.485 155.964C722.677 155.636 722.773 155.28 722.773 154.896C722.773 154.342 722.56 153.871 722.133 153.484C721.712 153.092 721.104 152.896 720.312 152.896H717.787V157.057ZM730.163 159.179V157.185H730.91C731.247 157.185 731.524 157.136 731.741 157.038C731.959 156.94 732.133 156.799 732.265 156.616C732.402 156.433 732.515 156.219 732.604 155.977L732.777 155.536L728.098 145.909H730.578L733.838 152.915L736.657 145.909H739.099L734.586 156.584C734.377 157.044 734.136 157.472 733.864 157.869C733.591 158.261 733.235 158.578 732.796 158.821C732.361 159.06 731.795 159.179 731.096 159.179H730.163ZM742.588 159V145.909H747.497C748.502 145.909 749.346 146.097 750.028 146.472C750.714 146.847 751.232 147.362 751.581 148.018C751.935 148.67 752.112 149.412 752.112 150.243C752.112 151.082 751.935 151.828 751.581 152.48C751.228 153.132 750.706 153.646 750.015 154.021C749.325 154.391 748.475 154.577 747.465 154.577H744.211V152.627H747.145C747.733 152.627 748.215 152.525 748.59 152.32C748.965 152.116 749.242 151.835 749.421 151.477C749.604 151.119 749.696 150.707 749.696 150.243C749.696 149.778 749.604 149.369 749.421 149.016C749.242 148.662 748.963 148.387 748.583 148.191C748.208 147.991 747.725 147.891 747.132 147.891H744.959V159H742.588ZM764.39 145.909V147.897H758.343V159H755.972V145.909H764.39Z" fill="black"/>
<path opacity="0.4" d="M1019.99 372.5H564V249.5L864 262C864 262 1017.36 224.311 1019.99 223.033V223C1020.04 223 1020.04 223.011 1019.99 223.033V372.5Z" fill="url(#paint2_linear_3119_2405)"/>
<rect x="1015.19" y="218" width="10.2717" height="10.2717" rx="5.13587" fill="#04B34A"/>
<path d="M1017.5 224L868.135 261.95C865.393 262.646 862.564 262.938 859.738 262.815L564 250" stroke="#04B34A" stroke-width="4"/>
<path d="M885.074 392.555V368.197L875.989 377.316L872 373.362L887.955 357.441L903.875 373.362L899.955 377.316L890.835 368.197V392.555H885.074Z" fill="#04B34A"/>
<path d="M930.947 357.091V392H923.566V364.097H923.362L915.367 369.108V362.562L924.009 357.091H930.947ZM944.837 387.227L944.649 389.102C944.501 390.602 944.217 392.097 943.797 393.585C943.388 395.085 942.956 396.443 942.501 397.659C942.058 398.875 941.7 399.83 941.428 400.523H936.723C936.893 399.852 937.126 398.915 937.422 397.71C937.717 396.517 937.996 395.176 938.257 393.688C938.518 392.199 938.683 390.682 938.751 389.136L938.837 387.227H944.837ZM962.89 356.614C964.685 356.614 966.413 356.915 968.072 357.517C969.742 358.119 971.231 359.08 972.538 360.398C973.856 361.716 974.896 363.466 975.657 365.648C976.43 367.818 976.822 370.483 976.833 373.642C976.833 376.608 976.498 379.256 975.827 381.585C975.168 383.903 974.219 385.875 972.981 387.5C971.742 389.125 970.248 390.364 968.498 391.216C966.748 392.057 964.793 392.477 962.634 392.477C960.305 392.477 958.248 392.028 956.464 391.131C954.68 390.222 953.242 388.989 952.151 387.432C951.072 385.864 950.418 384.102 950.191 382.148H957.469C957.754 383.42 958.35 384.409 959.259 385.114C960.168 385.807 961.293 386.153 962.634 386.153C964.907 386.153 966.634 385.165 967.816 383.188C968.998 381.199 969.594 378.477 969.606 375.023H969.367C968.844 376.045 968.14 376.926 967.254 377.665C966.367 378.392 965.35 378.955 964.202 379.352C963.066 379.75 961.856 379.949 960.572 379.949C958.515 379.949 956.68 379.466 955.066 378.5C953.452 377.534 952.18 376.205 951.248 374.511C950.316 372.818 949.85 370.886 949.85 368.716C949.839 366.375 950.379 364.29 951.469 362.46C952.56 360.631 954.083 359.199 956.038 358.165C958.004 357.119 960.288 356.602 962.89 356.614ZM962.941 362.409C961.793 362.409 960.771 362.682 959.873 363.227C958.987 363.773 958.282 364.506 957.759 365.426C957.248 366.347 956.998 367.375 957.009 368.511C957.009 369.659 957.259 370.693 957.759 371.614C958.271 372.523 958.964 373.25 959.839 373.795C960.725 374.33 961.737 374.597 962.873 374.597C963.725 374.597 964.515 374.437 965.242 374.119C965.969 373.801 966.6 373.364 967.134 372.807C967.68 372.239 968.106 371.585 968.413 370.847C968.719 370.108 968.873 369.324 968.873 368.494C968.862 367.392 968.6 366.381 968.089 365.46C967.577 364.54 966.873 363.801 965.975 363.244C965.077 362.687 964.066 362.409 962.941 362.409ZM1000.56 385.455V383.614C1000.56 382.216 1000.86 380.932 1001.45 379.761C1002.05 378.58 1002.92 377.636 1004.06 376.932C1005.2 376.216 1006.6 375.858 1008.25 375.858C1009.92 375.858 1011.32 376.21 1012.46 376.915C1013.61 377.619 1014.47 378.562 1015.05 379.744C1015.64 380.915 1015.94 382.205 1015.94 383.614V385.455C1015.94 386.852 1015.64 388.142 1015.05 389.324C1014.46 390.494 1013.59 391.432 1012.44 392.136C1011.3 392.852 1009.9 393.21 1008.25 393.21C1006.58 393.21 1005.18 392.852 1004.04 392.136C1002.9 391.432 1002.04 390.494 1001.45 389.324C1000.86 388.142 1000.56 386.852 1000.56 385.455ZM1005.52 383.614V385.455C1005.52 386.261 1005.72 387.023 1006.1 387.739C1006.5 388.455 1007.22 388.812 1008.25 388.812C1009.28 388.812 1009.99 388.46 1010.36 387.756C1010.75 387.051 1010.94 386.284 1010.94 385.455V383.614C1010.94 382.784 1010.76 382.011 1010.4 381.295C1010.03 380.58 1009.32 380.222 1008.25 380.222C1007.23 380.222 1006.52 380.58 1006.12 381.295C1005.72 382.011 1005.52 382.784 1005.52 383.614ZM982.648 365.477V363.636C982.648 362.227 982.949 360.937 983.551 359.767C984.153 358.585 985.023 357.642 986.159 356.938C987.307 356.233 988.693 355.881 990.318 355.881C992 355.881 993.409 356.233 994.545 356.938C995.682 357.642 996.545 358.585 997.136 359.767C997.727 360.937 998.023 362.227 998.023 363.636V365.477C998.023 366.886 997.722 368.176 997.119 369.347C996.528 370.517 995.659 371.455 994.511 372.159C993.375 372.852 991.977 373.199 990.318 373.199C988.659 373.199 987.256 372.847 986.108 372.142C984.972 371.426 984.108 370.489 983.517 369.33C982.938 368.159 982.648 366.875 982.648 365.477ZM987.642 363.636V365.477C987.642 366.307 987.835 367.074 988.222 367.778C988.619 368.483 989.318 368.835 990.318 368.835C991.364 368.835 992.074 368.483 992.449 367.778C992.835 367.074 993.028 366.307 993.028 365.477V363.636C993.028 362.807 992.847 362.034 992.483 361.318C992.119 360.602 991.398 360.244 990.318 360.244C989.307 360.244 988.608 360.608 988.222 361.335C987.835 362.062 987.642 362.83 987.642 363.636ZM984.898 392L1008.9 357.091H1013.36L989.364 392H984.898Z" fill="black"/>
<path d="M571.125 236.219C570.411 236.208 569.708 236.078 569.016 235.828C568.328 235.578 567.703 235.161 567.141 234.578C566.578 233.995 566.128 233.211 565.789 232.227C565.456 231.242 565.289 230.013 565.289 228.539C565.289 227.143 565.427 225.904 565.703 224.82C565.984 223.737 566.388 222.823 566.914 222.078C567.44 221.328 568.076 220.758 568.82 220.367C569.565 219.977 570.401 219.781 571.328 219.781C572.281 219.781 573.128 219.969 573.867 220.344C574.607 220.719 575.206 221.237 575.664 221.898C576.128 222.56 576.422 223.312 576.547 224.156H574.164C574.003 223.49 573.682 222.945 573.203 222.523C572.724 222.102 572.099 221.891 571.328 221.891C570.156 221.891 569.242 222.401 568.586 223.422C567.935 224.443 567.607 225.862 567.602 227.68H567.719C567.995 227.227 568.333 226.841 568.734 226.523C569.141 226.201 569.594 225.953 570.094 225.781C570.599 225.604 571.13 225.516 571.688 225.516C572.615 225.516 573.453 225.742 574.203 226.195C574.958 226.643 575.56 227.263 576.008 228.055C576.456 228.846 576.68 229.753 576.68 230.773C576.68 231.794 576.448 232.719 575.984 233.547C575.526 234.375 574.88 235.031 574.047 235.516C573.214 235.995 572.24 236.229 571.125 236.219ZM571.117 234.187C571.732 234.187 572.281 234.036 572.766 233.734C573.25 233.432 573.633 233.026 573.914 232.516C574.195 232.005 574.336 231.435 574.336 230.805C574.336 230.19 574.198 229.63 573.922 229.125C573.651 228.62 573.276 228.219 572.797 227.922C572.323 227.625 571.781 227.477 571.172 227.477C570.708 227.477 570.279 227.565 569.883 227.742C569.492 227.919 569.148 228.164 568.852 228.477C568.555 228.789 568.32 229.148 568.148 229.555C567.982 229.956 567.898 230.38 567.898 230.828C567.898 231.427 568.036 231.982 568.313 232.492C568.594 233.003 568.977 233.414 569.461 233.727C569.951 234.034 570.503 234.187 571.117 234.187ZM584.889 236.219C584.175 236.208 583.472 236.078 582.779 235.828C582.092 235.578 581.467 235.161 580.904 234.578C580.342 233.995 579.891 233.211 579.553 232.227C579.22 231.242 579.053 230.013 579.053 228.539C579.053 227.143 579.191 225.904 579.467 224.82C579.748 223.737 580.152 222.823 580.678 222.078C581.204 221.328 581.839 220.758 582.584 220.367C583.329 219.977 584.165 219.781 585.092 219.781C586.045 219.781 586.891 219.969 587.631 220.344C588.371 220.719 588.97 221.237 589.428 221.898C589.891 222.56 590.186 223.312 590.311 224.156H587.928C587.766 223.49 587.446 222.945 586.967 222.523C586.488 222.102 585.863 221.891 585.092 221.891C583.92 221.891 583.006 222.401 582.35 223.422C581.699 224.443 581.371 225.862 581.365 227.68H581.483C581.759 227.227 582.097 226.841 582.498 226.523C582.904 226.201 583.358 225.953 583.858 225.781C584.363 225.604 584.894 225.516 585.451 225.516C586.378 225.516 587.217 225.742 587.967 226.195C588.722 226.643 589.324 227.263 589.772 228.055C590.22 228.846 590.443 229.753 590.443 230.773C590.443 231.794 590.212 232.719 589.748 233.547C589.29 234.375 588.644 235.031 587.811 235.516C586.977 235.995 586.003 236.229 584.889 236.219ZM584.881 234.187C585.496 234.187 586.045 234.036 586.529 233.734C587.014 233.432 587.397 233.026 587.678 232.516C587.959 232.005 588.1 231.435 588.1 230.805C588.1 230.19 587.962 229.63 587.686 229.125C587.415 228.62 587.04 228.219 586.561 227.922C586.087 227.625 585.545 227.477 584.936 227.477C584.472 227.477 584.042 227.565 583.647 227.742C583.256 227.919 582.912 228.164 582.615 228.477C582.318 228.789 582.084 229.148 581.912 229.555C581.746 229.956 581.662 230.38 581.662 230.828C581.662 231.427 581.8 231.982 582.076 232.492C582.358 233.003 582.74 233.414 583.225 233.727C583.714 234.034 584.266 234.187 584.881 234.187ZM595.406 233.812L595.289 234.664C595.211 235.289 595.078 235.94 594.891 236.617C594.709 237.299 594.518 237.932 594.321 238.516C594.128 239.099 593.969 239.563 593.844 239.906H592.188C592.255 239.583 592.349 239.146 592.469 238.594C592.589 238.047 592.706 237.435 592.821 236.758C592.935 236.081 593.021 235.391 593.078 234.687L593.156 233.812H595.406ZM603.442 236.219C602.369 236.219 601.41 236.034 600.567 235.664C599.728 235.294 599.064 234.781 598.575 234.125C598.09 233.464 597.83 232.698 597.793 231.828H600.246C600.278 232.302 600.437 232.714 600.723 233.062C601.015 233.406 601.395 233.672 601.864 233.859C602.332 234.047 602.853 234.141 603.426 234.141C604.056 234.141 604.614 234.031 605.098 233.812C605.588 233.594 605.97 233.289 606.246 232.898C606.522 232.503 606.66 232.047 606.66 231.531C606.66 230.995 606.522 230.523 606.246 230.117C605.976 229.706 605.577 229.383 605.051 229.148C604.53 228.914 603.9 228.797 603.16 228.797H601.809V226.828H603.16C603.754 226.828 604.275 226.721 604.723 226.508C605.176 226.294 605.53 225.997 605.785 225.617C606.041 225.232 606.168 224.781 606.168 224.266C606.168 223.771 606.056 223.341 605.832 222.977C605.614 222.607 605.301 222.318 604.895 222.109C604.494 221.901 604.02 221.797 603.473 221.797C602.952 221.797 602.465 221.893 602.012 222.086C601.564 222.273 601.2 222.544 600.918 222.898C600.637 223.247 600.486 223.667 600.465 224.156H598.129C598.155 223.292 598.41 222.531 598.895 221.875C599.384 221.219 600.03 220.706 600.832 220.336C601.634 219.966 602.525 219.781 603.504 219.781C604.53 219.781 605.416 219.982 606.16 220.383C606.91 220.779 607.489 221.307 607.895 221.969C608.306 222.63 608.509 223.354 608.504 224.141C608.509 225.036 608.259 225.797 607.754 226.422C607.254 227.047 606.588 227.466 605.754 227.68V227.805C606.817 227.966 607.64 228.388 608.223 229.07C608.812 229.753 609.103 230.599 609.098 231.609C609.103 232.49 608.858 233.279 608.364 233.977C607.874 234.674 607.205 235.224 606.356 235.625C605.507 236.021 604.535 236.219 603.442 236.219Z" fill="#CFCFCF"/>
<path d="M981.549 205.219C980.835 205.208 980.132 205.078 979.439 204.828C978.752 204.578 978.127 204.161 977.564 203.578C977.002 202.995 976.551 202.211 976.213 201.227C975.879 200.242 975.713 199.013 975.713 197.539C975.713 196.143 975.851 194.904 976.127 193.82C976.408 192.737 976.812 191.823 977.338 191.078C977.864 190.328 978.499 189.758 979.244 189.367C979.989 188.977 980.825 188.781 981.752 188.781C982.705 188.781 983.551 188.969 984.291 189.344C985.03 189.719 985.629 190.237 986.088 190.898C986.551 191.56 986.845 192.312 986.97 193.156H984.588C984.426 192.49 984.106 191.945 983.627 191.523C983.147 191.102 982.522 190.891 981.752 190.891C980.58 190.891 979.666 191.401 979.009 192.422C978.358 193.443 978.03 194.862 978.025 196.68H978.142C978.418 196.227 978.757 195.841 979.158 195.523C979.564 195.201 980.017 194.953 980.517 194.781C981.022 194.604 981.554 194.516 982.111 194.516C983.038 194.516 983.877 194.742 984.627 195.195C985.382 195.643 985.983 196.263 986.431 197.055C986.879 197.846 987.103 198.753 987.103 199.773C987.103 200.794 986.871 201.719 986.408 202.547C985.95 203.375 985.304 204.031 984.47 204.516C983.637 204.995 982.663 205.229 981.549 205.219ZM981.541 203.187C982.155 203.187 982.705 203.036 983.189 202.734C983.674 202.432 984.056 202.026 984.338 201.516C984.619 201.005 984.759 200.435 984.759 199.805C984.759 199.19 984.621 198.63 984.345 198.125C984.075 197.62 983.7 197.219 983.22 196.922C982.746 196.625 982.205 196.477 981.595 196.477C981.132 196.477 980.702 196.565 980.306 196.742C979.916 196.919 979.572 197.164 979.275 197.477C978.978 197.789 978.744 198.148 978.572 198.555C978.405 198.956 978.322 199.38 978.322 199.828C978.322 200.427 978.46 200.982 978.736 201.492C979.017 202.003 979.4 202.414 979.884 202.727C980.374 203.034 980.926 203.187 981.541 203.187ZM995.133 205.219C994.013 205.219 993.023 205.026 992.164 204.641C991.31 204.255 990.64 203.724 990.156 203.047C989.672 202.37 989.432 201.599 989.437 200.734C989.432 200.057 989.57 199.435 989.851 198.867C990.138 198.294 990.526 197.818 991.015 197.438C991.505 197.052 992.052 196.807 992.656 196.703V196.609C991.859 196.417 991.221 195.99 990.742 195.328C990.263 194.667 990.026 193.906 990.031 193.047C990.026 192.229 990.242 191.5 990.679 190.859C991.122 190.214 991.729 189.706 992.5 189.336C993.271 188.966 994.148 188.781 995.133 188.781C996.107 188.781 996.976 188.969 997.742 189.344C998.513 189.714 999.12 190.221 999.562 190.867C1000.01 191.508 1000.23 192.234 1000.23 193.047C1000.23 193.906 999.984 194.667 999.5 195.328C999.015 195.99 998.385 196.417 997.609 196.609V196.703C998.208 196.807 998.747 197.052 999.226 197.438C999.711 197.818 1000.1 198.294 1000.38 198.867C1000.67 199.435 1000.82 200.057 1000.83 200.734C1000.82 201.599 1000.58 202.37 1000.09 203.047C999.609 203.724 998.937 204.255 998.078 204.641C997.224 205.026 996.242 205.219 995.133 205.219ZM995.133 203.242C995.794 203.242 996.367 203.133 996.851 202.914C997.336 202.69 997.711 202.38 997.976 201.984C998.242 201.583 998.377 201.115 998.383 200.578C998.377 200.021 998.232 199.529 997.945 199.102C997.664 198.674 997.281 198.339 996.797 198.094C996.312 197.849 995.758 197.727 995.133 197.727C994.502 197.727 993.943 197.849 993.453 198.094C992.963 198.339 992.578 198.674 992.297 199.102C992.015 199.529 991.877 200.021 991.883 200.578C991.877 201.115 992.005 201.583 992.265 201.984C992.531 202.38 992.909 202.69 993.398 202.914C993.888 203.133 994.466 203.242 995.133 203.242ZM995.133 195.797C995.664 195.797 996.135 195.69 996.547 195.477C996.958 195.263 997.281 194.966 997.515 194.586C997.755 194.206 997.877 193.76 997.883 193.25C997.877 192.75 997.758 192.313 997.523 191.938C997.294 191.562 996.974 191.273 996.562 191.07C996.151 190.862 995.674 190.758 995.133 190.758C994.581 190.758 994.096 190.862 993.679 191.07C993.268 191.273 992.948 191.562 992.719 191.938C992.489 192.313 992.377 192.75 992.383 193.25C992.377 193.76 992.492 194.206 992.726 194.586C992.961 194.966 993.284 195.263 993.695 195.477C994.112 195.69 994.591 195.797 995.133 195.797ZM1006 202.812L1005.88 203.664C1005.81 204.289 1005.67 204.94 1005.49 205.617C1005.3 206.299 1005.11 206.932 1004.92 207.516C1004.72 208.099 1004.56 208.563 1004.44 208.906H1002.78C1002.85 208.583 1002.94 208.146 1003.06 207.594C1003.18 207.047 1003.3 206.435 1003.42 205.758C1003.53 205.081 1003.62 204.391 1003.67 203.687L1003.75 202.812H1006ZM1009.05 205V203.25L1014.46 197.641C1015.04 197.031 1015.52 196.497 1015.89 196.039C1016.27 195.576 1016.55 195.135 1016.74 194.719C1016.93 194.302 1017.02 193.859 1017.02 193.391C1017.02 192.859 1016.9 192.401 1016.65 192.016C1016.4 191.625 1016.06 191.326 1015.63 191.117C1015.19 190.904 1014.71 190.797 1014.16 190.797C1013.59 190.797 1013.09 190.914 1012.66 191.148C1012.24 191.383 1011.91 191.714 1011.68 192.141C1011.45 192.568 1011.34 193.068 1011.34 193.641H1009.03C1009.03 192.667 1009.26 191.815 1009.7 191.086C1010.15 190.357 1010.77 189.792 1011.55 189.391C1012.33 188.984 1013.22 188.781 1014.21 188.781C1015.22 188.781 1016.1 188.982 1016.87 189.383C1017.64 189.779 1018.24 190.32 1018.67 191.008C1019.1 191.69 1019.32 192.461 1019.32 193.32C1019.32 193.914 1019.21 194.495 1018.98 195.062C1018.77 195.63 1018.38 196.263 1017.84 196.961C1017.29 197.654 1016.53 198.495 1015.55 199.484L1012.38 202.812V202.93H1019.58V205H1009.05Z" fill="#CFCFCF"/>
<defs>
<linearGradient id="paint0_linear_3119_2405" x1="282.996" y1="223" x2="282.996" y2="372.5" gradientUnits="userSpaceOnUse">
<stop stop-color="#04B34A"/>
<stop offset="0.0666667" stop-color="#04B34A" stop-opacity="0.991353"/>
<stop offset="0.133333" stop-color="#04B34A" stop-opacity="0.96449"/>
<stop offset="0.2" stop-color="#04B34A" stop-opacity="0.91834"/>
<stop offset="0.266667" stop-color="#04B34A" stop-opacity="0.852589"/>
<stop offset="0.333333" stop-color="#04B34A" stop-opacity="0.768225"/>
<stop offset="0.4" stop-color="#04B34A" stop-opacity="0.668116"/>
<stop offset="0.466667" stop-color="#04B34A" stop-opacity="0.557309"/>
<stop offset="0.533333" stop-color="#04B34A" stop-opacity="0.442691"/>
<stop offset="0.6" stop-color="#04B34A" stop-opacity="0.331884"/>
<stop offset="0.666667" stop-color="#04B34A" stop-opacity="0.231775"/>
<stop offset="0.733333" stop-color="#04B34A" stop-opacity="0.147411"/>
<stop offset="0.8" stop-color="#04B34A" stop-opacity="0.0816599"/>
<stop offset="0.866667" stop-color="#04B34A" stop-opacity="0.03551"/>
<stop offset="0.933333" stop-color="#04B34A" stop-opacity="0.01"/>
<stop offset="1" stop-color="#04B34A" stop-opacity="0"/>
</linearGradient>
<linearGradient id="paint1_linear_3119_2405" x1="537.477" y1="536" x2="537.477" y2="685.5" gradientUnits="userSpaceOnUse">
<stop stop-color="#04B34A"/>
<stop offset="0.0666667" stop-color="#04B34A" stop-opacity="0.991353"/>
<stop offset="0.133333" stop-color="#04B34A" stop-opacity="0.96449"/>
<stop offset="0.2" stop-color="#04B34A" stop-opacity="0.91834"/>
<stop offset="0.266667" stop-color="#04B34A" stop-opacity="0.852589"/>
<stop offset="0.333333" stop-color="#04B34A" stop-opacity="0.768225"/>
<stop offset="0.4" stop-color="#04B34A" stop-opacity="0.668116"/>
<stop offset="0.466667" stop-color="#04B34A" stop-opacity="0.557309"/>
<stop offset="0.533333" stop-color="#04B34A" stop-opacity="0.442691"/>
<stop offset="0.6" stop-color="#04B34A" stop-opacity="0.331884"/>
<stop offset="0.666667" stop-color="#04B34A" stop-opacity="0.231775"/>
<stop offset="0.733333" stop-color="#04B34A" stop-opacity="0.147411"/>
<stop offset="0.8" stop-color="#04B34A" stop-opacity="0.0816599"/>
<stop offset="0.866667" stop-color="#04B34A" stop-opacity="0.03551"/>
<stop offset="0.933333" stop-color="#04B34A" stop-opacity="0.01"/>
<stop offset="1" stop-color="#04B34A" stop-opacity="0"/>
</linearGradient>
<linearGradient id="paint2_linear_3119_2405" x1="791.996" y1="223" x2="791.996" y2="372.5" gradientUnits="userSpaceOnUse">
<stop stop-color="#04B34A"/>
<stop offset="0.0666667" stop-color="#04B34A" stop-opacity="0.991353"/>
<stop offset="0.133333" stop-color="#04B34A" stop-opacity="0.96449"/>
<stop offset="0.2" stop-color="#04B34A" stop-opacity="0.91834"/>
<stop offset="0.266667" stop-color="#04B34A" stop-opacity="0.852589"/>
<stop offset="0.333333" stop-color="#04B34A" stop-opacity="0.768225"/>
<stop offset="0.4" stop-color="#04B34A" stop-opacity="0.668116"/>
<stop offset="0.466667" stop-color="#04B34A" stop-opacity="0.557309"/>
<stop offset="0.533333" stop-color="#04B34A" stop-opacity="0.442691"/>
<stop offset="0.6" stop-color="#04B34A" stop-opacity="0.331884"/>
<stop offset="0.666667" stop-color="#04B34A" stop-opacity="0.231775"/>
<stop offset="0.733333" stop-color="#04B34A" stop-opacity="0.147411"/>
<stop offset="0.8" stop-color="#04B34A" stop-opacity="0.0816599"/>
<stop offset="0.866667" stop-color="#04B34A" stop-opacity="0.03551"/>
<stop offset="0.933333" stop-color="#04B34A" stop-opacity="0.01"/>
<stop offset="1" stop-color="#04B34A" stop-opacity="0"/>
</linearGradient>
</defs>
</svg>
