<svg width="1080" height="1100" viewBox="0 0 1080 1100" fill="none" xmlns="http://www.w3.org/2000/svg">
<rect width="1080" height="1100" fill="white"/>
<path d="M915.587 49L912.911 64.8629H915.891L914.181 75H908.668L909.483 70.1698H895.329L894.514 75H889L890.71 64.8629H892.824C893.79 63.5513 894.707 61.8209 895.74 58.1838L898.364 49H915.59H915.587ZM908.584 54.3069H902.535L901.369 58.3918C900.354 61.9393 899.515 63.5484 898.667 64.8629H906.805L908.584 54.3069Z" fill="#EAECEF"/>
<path d="M920.448 49H933.56C938.18 49 940.257 51.3544 939.681 54.7547C939.314 56.93 937.677 58.3311 936.141 58.958C937.818 59.6138 939.146 61.2836 938.663 64.1464C938.05 67.7836 935.085 70.1698 930.167 70.1698H916.875L920.448 49ZM924.295 61.7024L923.67 65.4002H929.69C931.298 65.4002 932.293 64.8051 932.504 63.5513C932.721 62.2687 931.923 61.7024 930.312 61.7024H924.292H924.295ZM925.631 53.7724L925.099 56.9329H931.029C932.282 56.9329 933.161 56.4851 933.352 55.3527C933.543 54.2202 932.814 53.7724 931.561 53.7724H925.631Z" fill="#EAECEF"/>
<path d="M943.47 49H949.579L947.427 61.7602L958.906 49H965.015L961.445 70.1698H955.336L957.479 57.4673L946.01 70.1698H939.9L943.47 49Z" fill="#EAECEF"/>
<path d="M974.098 59.1978L966.907 49H973.821L979.812 57.6464L981.272 49H987.084L985.626 57.6464L994.536 49H1001.3L990.954 58.9291L998.177 70.1698H990.815L985.039 61.1362L983.514 70.1698H977.703L979.227 61.1362L970.402 70.1698H963.309L974.101 59.1978H974.098Z" fill="#EAECEF"/>
<path d="M1010.23 49H1003.13L1010.19 58.9291L999.713 70.1698H1006.81L1017.29 58.9291L1010.23 49ZM1021.44 49H1014.34L1021.41 58.9291L1010.93 70.1698H1018.02L1028.5 58.9291L1021.44 49ZM1032.94 49H1025.85L1032.91 58.9291L1022.43 70.1698H1029.52L1040 58.9291L1032.94 49Z" fill="#EAECEF"/>
<path d="M64.5327 48.8182V75H59.0611V53.3182H48.4759V75H43.0043V48.8182H64.5327ZM68.2606 82.3636V55.3636H73.63V58.6619H73.8729C74.1115 58.1335 74.4567 57.5966 74.9084 57.0511C75.3686 56.4972 75.9652 56.0369 76.6981 55.6705C77.4396 55.2955 78.3601 55.108 79.4595 55.108C80.8913 55.108 82.2123 55.483 83.4226 56.233C84.6328 56.9744 85.6001 58.0952 86.3246 59.5952C87.049 61.0866 87.4112 62.9574 87.4112 65.2074C87.4112 67.3977 87.0575 69.2472 86.3501 70.7557C85.6513 72.2557 84.6967 73.3935 83.4865 74.169C82.2848 74.9361 80.9382 75.3196 79.4467 75.3196C78.3899 75.3196 77.4908 75.1449 76.7493 74.7955C76.0163 74.446 75.4155 74.0071 74.9467 73.4787C74.478 72.9418 74.12 72.4006 73.8729 71.8551H73.7067V82.3636H68.2606ZM73.5916 65.1818C73.5916 66.3494 73.7535 67.3679 74.0774 68.2372C74.4013 69.1065 74.87 69.7841 75.4837 70.2699C76.0973 70.7472 76.843 70.9858 77.7209 70.9858C78.6072 70.9858 79.3572 70.7429 79.9709 70.2571C80.5845 69.7628 81.049 69.081 81.3643 68.2116C81.6882 67.3338 81.8501 66.3239 81.8501 65.1818C81.8501 64.0483 81.6925 63.0511 81.3771 62.1903C81.0618 61.3295 80.5973 60.6562 79.9837 60.1705C79.37 59.6847 78.6158 59.4418 77.7209 59.4418C76.8345 59.4418 76.0845 59.6761 75.4709 60.1449C74.8658 60.6136 74.4013 61.2784 74.0774 62.1392C73.7535 63 73.5916 64.0142 73.5916 65.1818ZM98.474 75.3835C96.4883 75.3835 94.7709 74.9616 93.3221 74.1179C91.8817 73.2656 90.7695 72.081 89.9854 70.5639C89.2013 69.0384 88.8093 67.2699 88.8093 65.2585C88.8093 63.2301 89.2013 61.4574 89.9854 59.9403C90.7695 58.4148 91.8817 57.2301 93.3221 56.3864C94.7709 55.5341 96.4883 55.108 98.474 55.108C100.46 55.108 102.173 55.5341 103.613 56.3864C105.062 57.2301 106.179 58.4148 106.963 59.9403C107.747 61.4574 108.139 63.2301 108.139 65.2585C108.139 67.2699 107.747 69.0384 106.963 70.5639C106.179 72.081 105.062 73.2656 103.613 74.1179C102.173 74.9616 100.46 75.3835 98.474 75.3835ZM98.4996 71.1648C99.403 71.1648 100.157 70.9091 100.762 70.3977C101.368 69.8778 101.823 69.1705 102.13 68.2756C102.446 67.3807 102.603 66.3622 102.603 65.2202C102.603 64.0781 102.446 63.0597 102.13 62.1648C101.823 61.2699 101.368 60.5625 100.762 60.0426C100.157 59.5227 99.403 59.2628 98.4996 59.2628C97.5877 59.2628 96.8206 59.5227 96.1985 60.0426C95.5848 60.5625 95.1204 61.2699 94.805 62.1648C94.4982 63.0597 94.3448 64.0781 94.3448 65.2202C94.3448 66.3622 94.4982 67.3807 94.805 68.2756C95.1204 69.1705 95.5848 69.8778 96.1985 70.3977C96.8206 70.9091 97.5877 71.1648 98.4996 71.1648ZM127.409 55.3636V71.2415H130.541V81.3153H125.249V75H110.24V55.3636H115.443V70.7173H122.27V55.3636H127.409ZM141.198 75.3835C139.178 75.3835 137.44 74.9744 135.982 74.1562C134.533 73.3295 133.417 72.1619 132.633 70.6534C131.849 69.1364 131.457 67.3423 131.457 65.2713C131.457 63.2514 131.849 61.4787 132.633 59.9531C133.417 58.4276 134.521 57.2386 135.944 56.3864C137.376 55.5341 139.055 55.108 140.981 55.108C142.276 55.108 143.482 55.3168 144.599 55.7344C145.724 56.1435 146.704 56.7614 147.539 57.5881C148.383 58.4148 149.039 59.4545 149.508 60.7074C149.977 61.9517 150.211 63.4091 150.211 65.0795V66.5753H133.63V63.2003H145.084C145.084 62.4162 144.914 61.7216 144.573 61.1165C144.232 60.5114 143.759 60.0384 143.154 59.6974C142.557 59.348 141.863 59.1733 141.07 59.1733C140.244 59.1733 139.511 59.3651 138.871 59.7486C138.241 60.1236 137.746 60.6307 137.388 61.2699C137.03 61.9006 136.847 62.6037 136.839 63.3793V66.5881C136.839 67.5597 137.018 68.3991 137.376 69.1065C137.742 69.8139 138.258 70.3594 138.923 70.7429C139.587 71.1264 140.376 71.3182 141.288 71.3182C141.893 71.3182 142.447 71.233 142.95 71.0625C143.452 70.892 143.883 70.6364 144.241 70.2955C144.599 69.9545 144.871 69.5369 145.059 69.0426L150.096 69.375C149.84 70.5852 149.316 71.642 148.523 72.5455C147.739 73.4403 146.725 74.1392 145.481 74.642C144.245 75.1364 142.817 75.3835 141.198 75.3835ZM165.991 63.0085V67.2912H155.738V63.0085H165.991ZM157.528 55.3636V75H152.325V55.3636H157.528ZM169.404 55.3636V75H164.24V55.3636H169.404ZM170.218 59.6463V55.3636H188.013V59.6463H181.685V75H176.495V59.6463H170.218ZM205.639 75.3835C203.653 75.3835 201.936 74.9616 200.487 74.1179C199.046 73.2656 197.934 72.081 197.15 70.5639C196.366 69.0384 195.974 67.2699 195.974 65.2585C195.974 63.2301 196.366 61.4574 197.15 59.9403C197.934 58.4148 199.046 57.2301 200.487 56.3864C201.936 55.5341 203.653 55.108 205.639 55.108C207.625 55.108 209.338 55.5341 210.778 56.3864C212.227 57.2301 213.343 58.4148 214.127 59.9403C214.911 61.4574 215.304 63.2301 215.304 65.2585C215.304 67.2699 214.911 69.0384 214.127 70.5639C213.343 72.081 212.227 73.2656 210.778 74.1179C209.338 74.9616 207.625 75.3835 205.639 75.3835ZM205.664 71.1648C206.568 71.1648 207.322 70.9091 207.927 70.3977C208.532 69.8778 208.988 69.1705 209.295 68.2756C209.61 67.3807 209.768 66.3622 209.768 65.2202C209.768 64.0781 209.61 63.0597 209.295 62.1648C208.988 61.2699 208.532 60.5625 207.927 60.0426C207.322 59.5227 206.568 59.2628 205.664 59.2628C204.752 59.2628 203.985 59.5227 203.363 60.0426C202.75 60.5625 202.285 61.2699 201.97 62.1648C201.663 63.0597 201.509 64.0781 201.509 65.2202C201.509 66.3622 201.663 67.3807 201.97 68.2756C202.285 69.1705 202.75 69.8778 203.363 70.3977C203.985 70.9091 204.752 71.1648 205.664 71.1648ZM215.871 80.7528V70.679H217.379C217.814 70.4062 218.163 69.9716 218.427 69.375C218.7 68.7784 218.922 68.0753 219.092 67.2656C219.271 66.456 219.408 65.5824 219.501 64.6449C219.604 63.6989 219.693 62.7443 219.77 61.7812L220.281 55.3636H235.341V70.679H238.383V80.7528H233.193V75H221.189V80.7528H215.871ZM222.8 70.679H230.202V59.5568H224.909L224.704 61.7812C224.56 63.8778 224.351 65.6591 224.078 67.125C223.805 68.5824 223.379 69.767 222.8 70.679ZM248.989 75.3835C247.003 75.3835 245.286 74.9616 243.837 74.1179C242.397 73.2656 241.285 72.081 240.501 70.5639C239.716 69.0384 239.324 67.2699 239.324 65.2585C239.324 63.2301 239.716 61.4574 240.501 59.9403C241.285 58.4148 242.397 57.2301 243.837 56.3864C245.286 55.5341 247.003 55.108 248.989 55.108C250.975 55.108 252.688 55.5341 254.128 56.3864C255.577 57.2301 256.694 58.4148 257.478 59.9403C258.262 61.4574 258.654 63.2301 258.654 65.2585C258.654 67.2699 258.262 69.0384 257.478 70.5639C256.694 72.081 255.577 73.2656 254.128 74.1179C252.688 74.9616 250.975 75.3835 248.989 75.3835ZM249.015 71.1648C249.918 71.1648 250.672 70.9091 251.278 70.3977C251.883 69.8778 252.339 69.1705 252.645 68.2756C252.961 67.3807 253.118 66.3622 253.118 65.2202C253.118 64.0781 252.961 63.0597 252.645 62.1648C252.339 61.2699 251.883 60.5625 251.278 60.0426C250.672 59.5227 249.918 59.2628 249.015 59.2628C248.103 59.2628 247.336 59.5227 246.714 60.0426C246.1 60.5625 245.636 61.2699 245.32 62.1648C245.013 63.0597 244.86 64.0781 244.86 65.2202C244.86 66.3622 245.013 67.3807 245.32 68.2756C245.636 69.1705 246.1 69.8778 246.714 70.3977C247.336 70.9091 248.103 71.1648 249.015 71.1648ZM277.08 48.1534L278.742 51.7074C278.188 52.1676 277.575 52.5085 276.901 52.7301C276.228 52.9432 275.423 53.0838 274.485 53.152C273.556 53.2202 272.423 53.267 271.085 53.2926C269.568 53.3097 268.332 53.5526 267.377 54.0213C266.423 54.4901 265.698 55.2273 265.204 56.233C264.71 57.2301 264.386 58.5341 264.232 60.1449H264.424C265.012 58.9432 265.839 58.0142 266.904 57.358C267.978 56.7017 269.303 56.3736 270.88 56.3736C272.551 56.3736 274.012 56.7401 275.265 57.473C276.526 58.206 277.507 59.2585 278.205 60.6307C278.904 62.0028 279.254 63.6477 279.254 65.5653C279.254 67.5597 278.862 69.294 278.078 70.7685C277.302 72.2344 276.198 73.3722 274.767 74.1818C273.335 74.983 271.63 75.3835 269.653 75.3835C267.667 75.3835 265.954 74.9659 264.514 74.1307C263.082 73.2955 261.974 72.0639 261.19 70.4361C260.414 68.8082 260.026 66.8054 260.026 64.4276V62.8168C260.026 58.0866 260.947 54.5795 262.788 52.2955C264.629 50.0114 267.335 48.8523 270.906 48.8182C271.877 48.8011 272.755 48.7969 273.539 48.8054C274.323 48.8139 275.009 48.7756 275.598 48.6903C276.194 48.6051 276.688 48.4261 277.08 48.1534ZM269.678 71.1648C270.514 71.1648 271.23 70.9474 271.826 70.5128C272.431 70.0781 272.896 69.456 273.22 68.6463C273.552 67.8366 273.718 66.8693 273.718 65.7443C273.718 64.6278 273.552 63.6818 273.22 62.9062C272.896 62.1222 272.431 61.5256 271.826 61.1165C271.221 60.7074 270.497 60.5028 269.653 60.5028C269.022 60.5028 268.455 60.6179 267.953 60.848C267.45 61.0781 267.019 61.419 266.661 61.8707C266.312 62.3139 266.039 62.8636 265.843 63.5199C265.656 64.1676 265.562 64.9091 265.562 65.7443C265.562 67.4233 265.924 68.7486 266.649 69.7202C267.382 70.6832 268.392 71.1648 269.678 71.1648ZM281.428 82.3636V55.3636H286.798V58.6619H287.041C287.279 58.1335 287.624 57.5966 288.076 57.0511C288.536 56.4972 289.133 56.0369 289.866 55.6705C290.607 55.2955 291.528 55.108 292.627 55.108C294.059 55.108 295.38 55.483 296.59 56.233C297.801 56.9744 298.768 58.0952 299.492 59.5952C300.217 61.0866 300.579 62.9574 300.579 65.2074C300.579 67.3977 300.225 69.2472 299.518 70.7557C298.819 72.2557 297.865 73.3935 296.654 74.169C295.453 74.9361 294.106 75.3196 292.615 75.3196C291.558 75.3196 290.659 75.1449 289.917 74.7955C289.184 74.446 288.583 74.0071 288.115 73.4787C287.646 72.9418 287.288 72.4006 287.041 71.8551H286.874V82.3636H281.428ZM286.759 65.1818C286.759 66.3494 286.921 67.3679 287.245 68.2372C287.569 69.1065 288.038 69.7841 288.651 70.2699C289.265 70.7472 290.011 70.9858 290.889 70.9858C291.775 70.9858 292.525 70.7429 293.139 70.2571C293.752 69.7628 294.217 69.081 294.532 68.2116C294.856 67.3338 295.018 66.3239 295.018 65.1818C295.018 64.0483 294.86 63.0511 294.545 62.1903C294.23 61.3295 293.765 60.6562 293.151 60.1705C292.538 59.6847 291.784 59.4418 290.889 59.4418C290.002 59.4418 289.252 59.6761 288.639 60.1449C288.034 60.6136 287.569 61.2784 287.245 62.1392C286.921 63 286.759 64.0142 286.759 65.1818ZM311.719 75.3835C309.699 75.3835 307.96 74.9744 306.503 74.1562C305.054 73.3295 303.937 72.1619 303.153 70.6534C302.369 69.1364 301.977 67.3423 301.977 65.2713C301.977 63.2514 302.369 61.4787 303.153 59.9531C303.937 58.4276 305.041 57.2386 306.464 56.3864C307.896 55.5341 309.575 55.108 311.501 55.108C312.797 55.108 314.003 55.3168 315.119 55.7344C316.244 56.1435 317.224 56.7614 318.059 57.5881C318.903 58.4148 319.559 59.4545 320.028 60.7074C320.497 61.9517 320.731 63.4091 320.731 65.0795V66.5753H304.15V63.2003H315.605C315.605 62.4162 315.434 61.7216 315.094 61.1165C314.753 60.5114 314.28 60.0384 313.675 59.6974C313.078 59.348 312.383 59.1733 311.591 59.1733C310.764 59.1733 310.031 59.3651 309.392 59.7486C308.761 60.1236 308.267 60.6307 307.909 61.2699C307.551 61.9006 307.368 62.6037 307.359 63.3793V66.5881C307.359 67.5597 307.538 68.3991 307.896 69.1065C308.263 69.8139 308.778 70.3594 309.443 70.7429C310.108 71.1264 310.896 71.3182 311.808 71.3182C312.413 71.3182 312.967 71.233 313.47 71.0625C313.973 70.892 314.403 70.6364 314.761 70.2955C315.119 69.9545 315.392 69.5369 315.579 69.0426L320.616 69.375C320.361 70.5852 319.836 71.642 319.044 72.5455C318.26 73.4403 317.246 74.1392 316.001 74.642C314.765 75.1364 313.338 75.3835 311.719 75.3835ZM336.512 63.0085V67.2912H326.259V63.0085H336.512ZM328.048 55.3636V75H322.845V55.3636H328.048ZM339.925 55.3636V75H334.76V55.3636H339.925ZM347.913 67.8153L354.983 55.3636H360.352V75H355.162V62.5099L348.118 75H342.71V55.3636H347.913V67.8153ZM374.784 75V59.6335H371.102C370.105 59.6335 369.346 59.8636 368.826 60.3239C368.306 60.7841 368.051 61.3295 368.059 61.9602C368.051 62.5994 368.298 63.1406 368.801 63.5838C369.312 64.0185 370.062 64.2358 371.051 64.2358H376.599V67.9176H371.051C369.372 67.9176 367.918 67.6619 366.691 67.1506C365.464 66.6392 364.518 65.9276 363.853 65.0156C363.188 64.0952 362.86 63.0256 362.869 61.8068C362.86 60.5284 363.188 59.4077 363.853 58.4446C364.518 57.473 365.468 56.7187 366.704 56.1818C367.948 55.6364 369.414 55.3636 371.102 55.3636H379.859V75H374.784ZM362.306 75L367.765 64.7727H372.968L367.522 75H362.306Z" fill="black"/>
<path d="M65.3764 782.984H59.777C59.6747 782.26 59.4659 781.616 59.1506 781.054C58.8352 780.483 58.4304 779.997 57.9361 779.597C57.4418 779.196 56.8707 778.889 56.223 778.676C55.5838 778.463 54.8892 778.357 54.1392 778.357C52.7841 778.357 51.6037 778.693 50.598 779.366C49.5923 780.031 48.8125 781.003 48.2585 782.281C47.7045 783.551 47.4276 785.094 47.4276 786.909C47.4276 788.776 47.7045 790.344 48.2585 791.614C48.821 792.884 49.6051 793.842 50.6108 794.49C51.6165 795.138 52.7798 795.462 54.1009 795.462C54.8423 795.462 55.5284 795.364 56.1591 795.168C56.7983 794.972 57.3651 794.686 57.8594 794.311C58.3537 793.928 58.7628 793.463 59.0866 792.918C59.419 792.372 59.6491 791.75 59.777 791.051L65.3764 791.077C65.2315 792.278 64.8693 793.438 64.2898 794.554C63.7188 795.662 62.9474 796.655 61.9759 797.533C61.0128 798.402 59.8622 799.092 58.5241 799.604C57.1946 800.107 55.6903 800.358 54.0114 800.358C51.6761 800.358 49.5881 799.83 47.7472 798.773C45.9148 797.716 44.4659 796.186 43.4006 794.183C42.3438 792.18 41.8153 789.756 41.8153 786.909C41.8153 784.054 42.3523 781.625 43.4261 779.622C44.5 777.619 45.9574 776.094 47.7983 775.045C49.6392 773.989 51.7102 773.46 54.0114 773.46C55.5284 773.46 56.9347 773.673 58.2301 774.099C59.5341 774.526 60.6889 775.148 61.6946 775.966C62.7003 776.776 63.5185 777.768 64.1491 778.945C64.7884 780.121 65.1974 781.467 65.3764 782.984ZM67.8036 800V780.364H73.2496V787.983H74.7837L80.1275 780.364H86.5195L79.5778 790.105L86.5962 800H80.1275L75.2823 793.033H73.2496V800H67.8036ZM95.5209 800.384C93.5351 800.384 91.8178 799.962 90.3689 799.118C88.9286 798.266 87.8164 797.081 87.0323 795.564C86.2482 794.038 85.8561 792.27 85.8561 790.259C85.8561 788.23 86.2482 786.457 87.0323 784.94C87.8164 783.415 88.9286 782.23 90.3689 781.386C91.8178 780.534 93.5351 780.108 95.5209 780.108C97.5067 780.108 99.2198 780.534 100.66 781.386C102.109 782.23 103.225 783.415 104.01 784.94C104.794 786.457 105.186 788.23 105.186 790.259C105.186 792.27 104.794 794.038 104.01 795.564C103.225 797.081 102.109 798.266 100.66 799.118C99.2198 799.962 97.5067 800.384 95.5209 800.384ZM95.5465 796.165C96.4499 796.165 97.2042 795.909 97.8093 795.398C98.4144 794.878 98.8704 794.17 99.1772 793.276C99.4925 792.381 99.6502 791.362 99.6502 790.22C99.6502 789.078 99.4925 788.06 99.1772 787.165C98.8704 786.27 98.4144 785.562 97.8093 785.043C97.2042 784.523 96.4499 784.263 95.5465 784.263C94.6346 784.263 93.8675 784.523 93.2454 785.043C92.6317 785.562 92.1672 786.27 91.8519 787.165C91.5451 788.06 91.3917 789.078 91.3917 790.22C91.3917 791.362 91.5451 792.381 91.8519 793.276C92.1672 794.17 92.6317 794.878 93.2454 795.398C93.8675 795.909 94.6346 796.165 95.5465 796.165ZM107.287 807.364V780.364H112.656V783.662H112.899C113.138 783.134 113.483 782.597 113.935 782.051C114.395 781.497 114.991 781.037 115.724 780.67C116.466 780.295 117.386 780.108 118.486 780.108C119.918 780.108 121.239 780.483 122.449 781.233C123.659 781.974 124.626 783.095 125.351 784.595C126.075 786.087 126.437 787.957 126.437 790.207C126.437 792.398 126.084 794.247 125.376 795.756C124.678 797.256 123.723 798.393 122.513 799.169C121.311 799.936 119.964 800.32 118.473 800.32C117.416 800.32 116.517 800.145 115.776 799.795C115.043 799.446 114.442 799.007 113.973 798.479C113.504 797.942 113.146 797.401 112.899 796.855H112.733V807.364H107.287ZM112.618 790.182C112.618 791.349 112.78 792.368 113.104 793.237C113.428 794.107 113.896 794.784 114.51 795.27C115.124 795.747 115.869 795.986 116.747 795.986C117.633 795.986 118.383 795.743 118.997 795.257C119.611 794.763 120.075 794.081 120.391 793.212C120.714 792.334 120.876 791.324 120.876 790.182C120.876 789.048 120.719 788.051 120.403 787.19C120.088 786.33 119.624 785.656 119.01 785.17C118.396 784.685 117.642 784.442 116.747 784.442C115.861 784.442 115.111 784.676 114.497 785.145C113.892 785.614 113.428 786.278 113.104 787.139C112.78 788 112.618 789.014 112.618 790.182ZM137.5 800.384C135.515 800.384 133.797 799.962 132.348 799.118C130.908 798.266 129.796 797.081 129.012 795.564C128.228 794.038 127.836 792.27 127.836 790.259C127.836 788.23 128.228 786.457 129.012 784.94C129.796 783.415 130.908 782.23 132.348 781.386C133.797 780.534 135.515 780.108 137.5 780.108C139.486 780.108 141.199 780.534 142.64 781.386C144.088 782.23 145.205 783.415 145.989 784.94C146.773 786.457 147.165 788.23 147.165 790.259C147.165 792.27 146.773 794.038 145.989 795.564C145.205 797.081 144.088 798.266 142.64 799.118C141.199 799.962 139.486 800.384 137.5 800.384ZM137.526 796.165C138.429 796.165 139.184 795.909 139.789 795.398C140.394 794.878 140.85 794.17 141.157 793.276C141.472 792.381 141.63 791.362 141.63 790.22C141.63 789.078 141.472 788.06 141.157 787.165C140.85 786.27 140.394 785.562 139.789 785.043C139.184 784.523 138.429 784.263 137.526 784.263C136.614 784.263 135.847 784.523 135.225 785.043C134.611 785.562 134.147 786.27 133.831 787.165C133.524 788.06 133.371 789.078 133.371 790.22C133.371 791.362 133.524 792.381 133.831 793.276C134.147 794.17 134.611 794.878 135.225 795.398C135.847 795.909 136.614 796.165 137.526 796.165ZM158.138 800.384C156.127 800.384 154.397 799.957 152.948 799.105C151.508 798.244 150.4 797.051 149.624 795.526C148.857 794 148.474 792.244 148.474 790.259C148.474 788.247 148.861 786.483 149.637 784.966C150.421 783.44 151.533 782.251 152.974 781.399C154.414 780.538 156.127 780.108 158.113 780.108C159.826 780.108 161.326 780.419 162.613 781.041C163.9 781.663 164.918 782.537 165.668 783.662C166.418 784.787 166.832 786.108 166.908 787.625H161.769C161.624 786.645 161.241 785.857 160.619 785.26C160.005 784.655 159.2 784.352 158.202 784.352C157.359 784.352 156.621 784.582 155.991 785.043C155.369 785.494 154.883 786.155 154.533 787.024C154.184 787.893 154.009 788.946 154.009 790.182C154.009 791.435 154.18 792.5 154.521 793.378C154.87 794.256 155.36 794.925 155.991 795.385C156.621 795.845 157.359 796.075 158.202 796.075C158.825 796.075 159.383 795.947 159.877 795.692C160.38 795.436 160.793 795.065 161.117 794.58C161.45 794.085 161.667 793.493 161.769 792.803H166.908C166.823 794.303 166.414 795.624 165.681 796.766C164.957 797.899 163.955 798.786 162.677 799.425C161.398 800.064 159.886 800.384 158.138 800.384ZM167.616 784.646V780.364H185.411V784.646H179.083V800H173.893V784.646H167.616ZM190.686 786.398H196.554C199.154 786.398 201.182 787.02 202.639 788.264C204.097 789.5 204.826 791.153 204.826 793.224C204.826 794.571 204.497 795.756 203.841 796.778C203.185 797.793 202.239 798.585 201.003 799.156C199.767 799.719 198.284 800 196.554 800H187.273V780.364H192.476V795.717H196.554C197.466 795.717 198.216 795.487 198.804 795.027C199.392 794.567 199.691 793.979 199.699 793.263C199.691 792.504 199.392 791.886 198.804 791.409C198.216 790.923 197.466 790.68 196.554 790.68H190.686V786.398ZM222.761 800.384C220.775 800.384 219.058 799.962 217.609 799.118C216.169 798.266 215.057 797.081 214.273 795.564C213.489 794.038 213.096 792.27 213.096 790.259C213.096 788.23 213.489 786.457 214.273 784.94C215.057 783.415 216.169 782.23 217.609 781.386C219.058 780.534 220.775 780.108 222.761 780.108C224.747 780.108 226.46 780.534 227.9 781.386C229.349 782.23 230.466 783.415 231.25 784.94C232.034 786.457 232.426 788.23 232.426 790.259C232.426 792.27 232.034 794.038 231.25 795.564C230.466 797.081 229.349 798.266 227.9 799.118C226.46 799.962 224.747 800.384 222.761 800.384ZM222.787 796.165C223.69 796.165 224.444 795.909 225.05 795.398C225.655 794.878 226.111 794.17 226.417 793.276C226.733 792.381 226.89 791.362 226.89 790.22C226.89 789.078 226.733 788.06 226.417 787.165C226.111 786.27 225.655 785.562 225.05 785.043C224.444 784.523 223.69 784.263 222.787 784.263C221.875 784.263 221.108 784.523 220.486 785.043C219.872 785.562 219.408 786.27 219.092 787.165C218.785 788.06 218.632 789.078 218.632 790.22C218.632 791.362 218.785 792.381 219.092 793.276C219.408 794.17 219.872 794.878 220.486 795.398C221.108 795.909 221.875 796.165 222.787 796.165ZM232.993 805.753V795.679H234.502C234.936 795.406 235.286 794.972 235.55 794.375C235.823 793.778 236.044 793.075 236.215 792.266C236.394 791.456 236.53 790.582 236.624 789.645C236.726 788.699 236.816 787.744 236.892 786.781L237.404 780.364H252.463V795.679H255.506V805.753H250.316V800H238.311V805.753H232.993ZM239.922 795.679H247.324V784.557H242.031L241.827 786.781C241.682 788.878 241.473 790.659 241.201 792.125C240.928 793.582 240.502 794.767 239.922 795.679ZM266.112 800.384C264.126 800.384 262.409 799.962 260.96 799.118C259.519 798.266 258.407 797.081 257.623 795.564C256.839 794.038 256.447 792.27 256.447 790.259C256.447 788.23 256.839 786.457 257.623 784.94C258.407 783.415 259.519 782.23 260.96 781.386C262.409 780.534 264.126 780.108 266.112 780.108C268.098 780.108 269.811 780.534 271.251 781.386C272.7 782.23 273.816 783.415 274.6 784.94C275.384 786.457 275.776 788.23 275.776 790.259C275.776 792.27 275.384 794.038 274.6 795.564C273.816 797.081 272.7 798.266 271.251 799.118C269.811 799.962 268.098 800.384 266.112 800.384ZM266.137 796.165C267.041 796.165 267.795 795.909 268.4 795.398C269.005 794.878 269.461 794.17 269.768 793.276C270.083 792.381 270.241 791.362 270.241 790.22C270.241 789.078 270.083 788.06 269.768 787.165C269.461 786.27 269.005 785.562 268.4 785.043C267.795 784.523 267.041 784.263 266.137 784.263C265.225 784.263 264.458 784.523 263.836 785.043C263.223 785.562 262.758 786.27 262.443 787.165C262.136 788.06 261.982 789.078 261.982 790.22C261.982 791.362 262.136 792.381 262.443 793.276C262.758 794.17 263.223 794.878 263.836 795.398C264.458 795.909 265.225 796.165 266.137 796.165ZM294.203 773.153L295.865 776.707C295.311 777.168 294.697 777.509 294.024 777.73C293.351 777.943 292.545 778.084 291.608 778.152C290.679 778.22 289.545 778.267 288.207 778.293C286.69 778.31 285.454 778.553 284.5 779.021C283.545 779.49 282.821 780.227 282.327 781.233C281.832 782.23 281.508 783.534 281.355 785.145H281.547C282.135 783.943 282.961 783.014 284.027 782.358C285.101 781.702 286.426 781.374 288.003 781.374C289.673 781.374 291.135 781.74 292.388 782.473C293.649 783.206 294.629 784.259 295.328 785.631C296.027 787.003 296.376 788.648 296.376 790.565C296.376 792.56 295.984 794.294 295.2 795.768C294.425 797.234 293.321 798.372 291.889 799.182C290.457 799.983 288.753 800.384 286.775 800.384C284.79 800.384 283.077 799.966 281.636 799.131C280.204 798.295 279.096 797.064 278.312 795.436C277.537 793.808 277.149 791.805 277.149 789.428V787.817C277.149 783.087 278.069 779.58 279.91 777.295C281.751 775.011 284.457 773.852 288.028 773.818C289 773.801 289.878 773.797 290.662 773.805C291.446 773.814 292.132 773.776 292.72 773.69C293.317 773.605 293.811 773.426 294.203 773.153ZM286.801 796.165C287.636 796.165 288.352 795.947 288.949 795.513C289.554 795.078 290.018 794.456 290.342 793.646C290.675 792.837 290.841 791.869 290.841 790.744C290.841 789.628 290.675 788.682 290.342 787.906C290.018 787.122 289.554 786.526 288.949 786.116C288.344 785.707 287.619 785.503 286.775 785.503C286.145 785.503 285.578 785.618 285.075 785.848C284.572 786.078 284.142 786.419 283.784 786.871C283.434 787.314 283.162 787.864 282.966 788.52C282.778 789.168 282.684 789.909 282.684 790.744C282.684 792.423 283.047 793.749 283.771 794.72C284.504 795.683 285.514 796.165 286.801 796.165ZM298.551 807.364V780.364H303.92V783.662H304.163C304.402 783.134 304.747 782.597 305.199 782.051C305.659 781.497 306.255 781.037 306.988 780.67C307.73 780.295 308.65 780.108 309.75 780.108C311.182 780.108 312.503 780.483 313.713 781.233C314.923 781.974 315.89 783.095 316.615 784.595C317.339 786.087 317.702 787.957 317.702 790.207C317.702 792.398 317.348 794.247 316.64 795.756C315.942 797.256 314.987 798.393 313.777 799.169C312.575 799.936 311.229 800.32 309.737 800.32C308.68 800.32 307.781 800.145 307.04 799.795C306.307 799.446 305.706 799.007 305.237 798.479C304.768 797.942 304.41 797.401 304.163 796.855H303.997V807.364H298.551ZM303.882 790.182C303.882 791.349 304.044 792.368 304.368 793.237C304.692 794.107 305.16 794.784 305.774 795.27C306.388 795.747 307.133 795.986 308.011 795.986C308.898 795.986 309.648 795.743 310.261 795.257C310.875 794.763 311.339 794.081 311.655 793.212C311.979 792.334 312.14 791.324 312.14 790.182C312.14 789.048 311.983 788.051 311.667 787.19C311.352 786.33 310.888 785.656 310.274 785.17C309.66 784.685 308.906 784.442 308.011 784.442C307.125 784.442 306.375 784.676 305.761 785.145C305.156 785.614 304.692 786.278 304.368 787.139C304.044 788 303.882 789.014 303.882 790.182ZM328.841 800.384C326.821 800.384 325.083 799.974 323.625 799.156C322.176 798.33 321.06 797.162 320.276 795.653C319.492 794.136 319.1 792.342 319.1 790.271C319.1 788.251 319.492 786.479 320.276 784.953C321.06 783.428 322.164 782.239 323.587 781.386C325.019 780.534 326.698 780.108 328.624 780.108C329.919 780.108 331.125 780.317 332.242 780.734C333.367 781.143 334.347 781.761 335.182 782.588C336.026 783.415 336.682 784.455 337.151 785.707C337.619 786.952 337.854 788.409 337.854 790.08V791.575H321.273V788.2H332.727C332.727 787.416 332.557 786.722 332.216 786.116C331.875 785.511 331.402 785.038 330.797 784.697C330.2 784.348 329.506 784.173 328.713 784.173C327.887 784.173 327.154 784.365 326.514 784.749C325.884 785.124 325.389 785.631 325.031 786.27C324.673 786.901 324.49 787.604 324.482 788.379V791.588C324.482 792.56 324.661 793.399 325.019 794.107C325.385 794.814 325.901 795.359 326.565 795.743C327.23 796.126 328.019 796.318 328.931 796.318C329.536 796.318 330.09 796.233 330.592 796.062C331.095 795.892 331.526 795.636 331.884 795.295C332.242 794.955 332.514 794.537 332.702 794.043L337.739 794.375C337.483 795.585 336.959 796.642 336.166 797.545C335.382 798.44 334.368 799.139 333.124 799.642C331.888 800.136 330.46 800.384 328.841 800.384ZM353.634 788.009V792.291H343.381V788.009H353.634ZM345.171 780.364V800H339.968V780.364H345.171ZM357.047 780.364V800H351.883V780.364H357.047ZM365.036 792.815L372.105 780.364H377.475V800H372.284V787.51L365.24 800H359.833V780.364H365.036V792.815ZM391.906 800V784.634H388.224C387.227 784.634 386.468 784.864 385.949 785.324C385.429 785.784 385.173 786.33 385.182 786.96C385.173 787.599 385.42 788.141 385.923 788.584C386.434 789.018 387.184 789.236 388.173 789.236H393.721V792.918H388.173C386.494 792.918 385.041 792.662 383.814 792.151C382.586 791.639 381.64 790.928 380.976 790.016C380.311 789.095 379.983 788.026 379.991 786.807C379.983 785.528 380.311 784.408 380.976 783.445C381.64 782.473 382.591 781.719 383.826 781.182C385.071 780.636 386.537 780.364 388.224 780.364H396.981V800H391.906ZM379.429 800L384.888 789.773H390.091L384.645 800H379.429Z" fill="black"/>
<path opacity="0.4" d="M1034.95 303.5H40.0001L40 216L644.451 215L1034.95 206V303.5Z" fill="url(#paint0_linear_3239_3181)"/>
<rect x="1030.36" y="201.357" width="9.55842" height="9.55842" rx="4.77921" fill="#04B34A" stroke="#04B34A" stroke-width="0.713315"/>
<path d="M40 215H644.951L1035.5 206.5" stroke="#04B34A" stroke-width="4"/>
<path d="M901.074 323.555V299.197L891.989 308.316L888 304.362L903.955 288.441L919.875 304.362L915.955 308.316L906.835 299.197V323.555H901.074Z" fill="#04B34A"/>
<path d="M946.322 323.767C943.39 323.756 940.867 323.034 938.754 321.602C936.651 320.17 935.032 318.097 933.896 315.381C932.771 312.665 932.214 309.398 932.225 305.58C932.225 301.773 932.788 298.528 933.913 295.847C935.049 293.165 936.668 291.125 938.771 289.727C940.884 288.318 943.401 287.614 946.322 287.614C949.242 287.614 951.754 288.318 953.856 289.727C955.969 291.136 957.594 293.182 958.731 295.864C959.867 298.534 960.43 301.773 960.418 305.58C960.418 309.409 959.85 312.682 958.714 315.398C957.589 318.114 955.975 320.187 953.873 321.619C951.771 323.051 949.254 323.767 946.322 323.767ZM946.322 317.648C948.322 317.648 949.918 316.642 951.112 314.631C952.305 312.619 952.896 309.602 952.884 305.58C952.884 302.932 952.612 300.727 952.066 298.966C951.532 297.205 950.771 295.881 949.782 294.994C948.805 294.108 947.651 293.665 946.322 293.665C944.333 293.665 942.742 294.659 941.549 296.648C940.356 298.636 939.754 301.614 939.742 305.58C939.742 308.261 940.009 310.5 940.543 312.295C941.089 314.08 941.856 315.42 942.844 316.318C943.833 317.205 944.992 317.648 946.322 317.648ZM971.743 318.227L971.555 320.102C971.408 321.602 971.124 323.097 970.703 324.585C970.294 326.085 969.862 327.443 969.408 328.659C968.964 329.875 968.607 330.83 968.334 331.523H963.629C963.8 330.852 964.033 329.915 964.328 328.71C964.624 327.517 964.902 326.176 965.163 324.688C965.425 323.199 965.589 321.682 965.658 320.136L965.743 318.227H971.743ZM988.65 288.091V323H981.269V295.097H981.065L973.07 300.108V293.562L981.712 288.091H988.65ZM1015.56 316.455V314.614C1015.56 313.216 1015.86 311.932 1016.45 310.761C1017.05 309.58 1017.92 308.636 1019.06 307.932C1020.2 307.216 1021.6 306.858 1023.25 306.858C1024.92 306.858 1026.32 307.21 1027.46 307.915C1028.61 308.619 1029.47 309.562 1030.05 310.744C1030.64 311.915 1030.94 313.205 1030.94 314.614V316.455C1030.94 317.852 1030.64 319.142 1030.05 320.324C1029.46 321.494 1028.59 322.432 1027.44 323.136C1026.3 323.852 1024.9 324.21 1023.25 324.21C1021.58 324.21 1020.18 323.852 1019.04 323.136C1017.9 322.432 1017.04 321.494 1016.45 320.324C1015.86 319.142 1015.56 317.852 1015.56 316.455ZM1020.52 314.614V316.455C1020.52 317.261 1020.72 318.023 1021.1 318.739C1021.5 319.455 1022.22 319.812 1023.25 319.812C1024.28 319.812 1024.99 319.46 1025.36 318.756C1025.75 318.051 1025.94 317.284 1025.94 316.455V314.614C1025.94 313.784 1025.76 313.011 1025.4 312.295C1025.03 311.58 1024.32 311.222 1023.25 311.222C1022.23 311.222 1021.52 311.58 1021.12 312.295C1020.72 313.011 1020.52 313.784 1020.52 314.614ZM997.648 296.477V294.636C997.648 293.227 997.949 291.937 998.551 290.767C999.153 289.585 1000.02 288.642 1001.16 287.938C1002.31 287.233 1003.69 286.881 1005.32 286.881C1007 286.881 1008.41 287.233 1009.55 287.938C1010.68 288.642 1011.55 289.585 1012.14 290.767C1012.73 291.937 1013.02 293.227 1013.02 294.636V296.477C1013.02 297.886 1012.72 299.176 1012.12 300.347C1011.53 301.517 1010.66 302.455 1009.51 303.159C1008.38 303.852 1006.98 304.199 1005.32 304.199C1003.66 304.199 1002.26 303.847 1001.11 303.142C999.972 302.426 999.108 301.489 998.517 300.33C997.938 299.159 997.648 297.875 997.648 296.477ZM1002.64 294.636V296.477C1002.64 297.307 1002.84 298.074 1003.22 298.778C1003.62 299.483 1004.32 299.835 1005.32 299.835C1006.36 299.835 1007.07 299.483 1007.45 298.778C1007.84 298.074 1008.03 297.307 1008.03 296.477V294.636C1008.03 293.807 1007.85 293.034 1007.48 292.318C1007.12 291.602 1006.4 291.244 1005.32 291.244C1004.31 291.244 1003.61 291.608 1003.22 292.335C1002.84 293.062 1002.64 293.83 1002.64 294.636ZM999.898 323L1023.9 288.091H1028.36L1004.36 323H999.898Z" fill="black"/>
<path d="M46.4773 201.199C45.8286 201.189 45.1894 201.071 44.5597 200.844C43.9347 200.616 43.3665 200.238 42.8551 199.707C42.3438 199.177 41.9342 198.464 41.6264 197.57C41.3234 196.675 41.1719 195.557 41.1719 194.217C41.1719 192.948 41.2973 191.821 41.5483 190.837C41.804 189.852 42.1709 189.021 42.6491 188.344C43.1274 187.662 43.705 187.143 44.3821 186.788C45.0592 186.433 45.8191 186.256 46.6619 186.256C47.5284 186.256 48.2978 186.426 48.9702 186.767C49.6425 187.108 50.187 187.579 50.6037 188.18C51.0251 188.782 51.2926 189.466 51.4062 190.233H49.2401C49.0933 189.627 48.8021 189.132 48.3665 188.749C47.9309 188.365 47.3627 188.173 46.6619 188.173C45.5966 188.173 44.7656 188.637 44.169 189.565C43.5772 190.493 43.2789 191.784 43.2741 193.436H43.3807C43.6316 193.024 43.9394 192.674 44.304 192.385C44.6733 192.091 45.0852 191.866 45.5398 191.71C45.9991 191.549 46.482 191.469 46.9886 191.469C47.8314 191.469 48.5938 191.675 49.2756 192.087C49.9621 192.494 50.509 193.057 50.9162 193.777C51.3234 194.497 51.527 195.321 51.527 196.249C51.527 197.177 51.3163 198.017 50.8949 198.77C50.4782 199.523 49.8911 200.119 49.1335 200.56C48.3759 200.995 47.4905 201.208 46.4773 201.199ZM46.4702 199.352C47.0289 199.352 47.5284 199.215 47.9688 198.94C48.4091 198.666 48.7571 198.296 49.0128 197.832C49.2685 197.368 49.3963 196.85 49.3963 196.277C49.3963 195.718 49.2708 195.209 49.0199 194.75C48.7737 194.291 48.4328 193.926 47.9972 193.656C47.5663 193.386 47.0739 193.251 46.5199 193.251C46.0985 193.251 45.7079 193.332 45.348 193.493C44.9929 193.654 44.6804 193.876 44.4105 194.161C44.1406 194.445 43.9276 194.771 43.7713 195.141C43.6198 195.505 43.544 195.891 43.544 196.298C43.544 196.843 43.6695 197.347 43.9205 197.811C44.1761 198.275 44.5241 198.649 44.9645 198.933C45.4096 199.213 45.9115 199.352 46.4702 199.352ZM53.8914 201V199.409L58.8133 194.31C59.3389 193.756 59.7721 193.27 60.113 192.854C60.4587 192.432 60.7167 192.032 60.8872 191.653C61.0576 191.275 61.1429 190.872 61.1429 190.446C61.1429 189.963 61.0292 189.546 60.8019 189.196C60.5747 188.841 60.2645 188.569 59.8716 188.379C59.4786 188.185 59.0359 188.088 58.5434 188.088C58.0226 188.088 57.568 188.195 57.1798 188.408C56.7915 188.621 56.4932 188.921 56.2849 189.31C56.0766 189.698 55.9724 190.152 55.9724 190.673H53.8772C53.8772 189.788 54.0808 189.014 54.488 188.351C54.8952 187.688 55.4539 187.174 56.1642 186.81C56.8744 186.44 57.6817 186.256 58.586 186.256C59.4999 186.256 60.3048 186.438 61.0008 186.803C61.7016 187.162 62.2484 187.655 62.6414 188.28C63.0344 188.9 63.2309 189.601 63.2309 190.382C63.2309 190.922 63.1291 191.45 62.9255 191.966C62.7267 192.482 62.3787 193.057 61.8815 193.692C61.3843 194.321 60.693 195.086 59.8076 195.986L56.917 199.011V199.118H63.4653V201H53.8914ZM68.7257 199.011L68.6192 199.786C68.5481 200.354 68.4274 200.946 68.257 201.561C68.0912 202.181 67.9184 202.757 67.7385 203.287C67.5633 203.817 67.4189 204.239 67.3052 204.551H65.7996C65.8611 204.258 65.9463 203.86 66.0552 203.358C66.1641 202.861 66.2707 202.304 66.3748 201.689C66.479 201.073 66.5571 200.446 66.6092 199.807L66.6802 199.011H68.7257ZM71.1683 198.159V196.384L77.4538 186.455H78.8529V189.068H77.9651L73.4694 196.185V196.298H82.0845V198.159H71.1683ZM78.0646 201V197.619L78.0788 196.81V186.455H80.1598V201H78.0646Z" fill="#CFCFCF"/>
<path d="M999.235 192.199C998.586 192.189 997.947 192.071 997.317 191.844C996.692 191.616 996.124 191.238 995.613 190.707C995.101 190.177 994.692 189.464 994.384 188.57C994.081 187.675 993.929 186.557 993.929 185.217C993.929 183.948 994.055 182.821 994.306 181.837C994.561 180.852 994.928 180.021 995.407 179.344C995.885 178.662 996.463 178.143 997.14 177.788C997.817 177.433 998.577 177.256 999.419 177.256C1000.29 177.256 1001.06 177.426 1001.73 177.767C1002.4 178.108 1002.94 178.579 1003.36 179.18C1003.78 179.782 1004.05 180.466 1004.16 181.233H1002C1001.85 180.627 1001.56 180.132 1001.12 179.749C1000.69 179.365 1000.12 179.173 999.419 179.173C998.354 179.173 997.523 179.637 996.927 180.565C996.335 181.493 996.036 182.784 996.032 184.436H996.138C996.389 184.024 996.697 183.674 997.061 183.385C997.431 183.091 997.843 182.866 998.297 182.71C998.757 182.549 999.24 182.469 999.746 182.469C1000.59 182.469 1001.35 182.675 1002.03 183.087C1002.72 183.494 1003.27 184.057 1003.67 184.777C1004.08 185.497 1004.28 186.321 1004.28 187.249C1004.28 188.177 1004.07 189.017 1003.65 189.77C1003.24 190.523 1002.65 191.119 1001.89 191.56C1001.13 191.995 1000.25 192.208 999.235 192.199ZM999.228 190.352C999.786 190.352 1000.29 190.215 1000.73 189.94C1001.17 189.666 1001.51 189.296 1001.77 188.832C1002.03 188.368 1002.15 187.85 1002.15 187.277C1002.15 186.718 1002.03 186.209 1001.78 185.75C1001.53 185.291 1001.19 184.926 1000.75 184.656C1000.32 184.386 999.831 184.251 999.277 184.251C998.856 184.251 998.465 184.332 998.106 184.493C997.75 184.654 997.438 184.876 997.168 185.161C996.898 185.445 996.685 185.771 996.529 186.141C996.377 186.505 996.302 186.891 996.302 187.298C996.302 187.843 996.427 188.347 996.678 188.811C996.934 189.275 997.282 189.649 997.722 189.933C998.167 190.213 998.669 190.352 999.228 190.352ZM1006.65 192V190.409L1011.57 185.31C1012.1 184.756 1012.53 184.27 1012.87 183.854C1013.22 183.432 1013.47 183.032 1013.64 182.653C1013.82 182.275 1013.9 181.872 1013.9 181.446C1013.9 180.963 1013.79 180.546 1013.56 180.196C1013.33 179.841 1013.02 179.569 1012.63 179.379C1012.24 179.185 1011.79 179.088 1011.3 179.088C1010.78 179.088 1010.33 179.195 1009.94 179.408C1009.55 179.621 1009.25 179.921 1009.04 180.31C1008.83 180.698 1008.73 181.152 1008.73 181.673H1006.63C1006.63 180.788 1006.84 180.014 1007.25 179.351C1007.65 178.688 1008.21 178.174 1008.92 177.81C1009.63 177.44 1010.44 177.256 1011.34 177.256C1012.26 177.256 1013.06 177.438 1013.76 177.803C1014.46 178.162 1015.01 178.655 1015.4 179.28C1015.79 179.9 1015.99 180.601 1015.99 181.382C1015.99 181.922 1015.89 182.45 1015.68 182.966C1015.48 183.482 1015.14 184.057 1014.64 184.692C1014.14 185.321 1013.45 186.086 1012.57 186.986L1009.67 190.011V190.118H1016.22V192H1006.65ZM1021.48 190.011L1021.38 190.786C1021.31 191.354 1021.18 191.946 1021.01 192.561C1020.85 193.181 1020.68 193.757 1020.5 194.287C1020.32 194.817 1020.18 195.239 1020.06 195.551H1018.56C1018.62 195.258 1018.7 194.86 1018.81 194.358C1018.92 193.861 1019.03 193.304 1019.13 192.689C1019.24 192.073 1019.31 191.446 1019.37 190.807L1019.44 190.011H1021.48ZM1028.8 192.199C1027.91 192.199 1027.11 192.028 1026.4 191.688C1025.69 191.342 1025.13 190.868 1024.71 190.267C1024.29 189.666 1024.06 188.979 1024.03 188.207H1026.16C1026.22 188.832 1026.49 189.346 1026.99 189.749C1027.5 190.151 1028.1 190.352 1028.8 190.352C1029.36 190.352 1029.85 190.224 1030.28 189.969C1030.72 189.708 1031.06 189.351 1031.31 188.896C1031.56 188.442 1031.68 187.923 1031.68 187.341C1031.68 186.749 1031.55 186.221 1031.3 185.757C1031.04 185.293 1030.69 184.929 1030.24 184.663C1029.79 184.398 1029.28 184.263 1028.71 184.259C1028.27 184.259 1027.82 184.334 1027.38 184.486C1026.93 184.637 1026.57 184.836 1026.3 185.082L1024.29 184.784L1025.1 177.455H1033.1V179.337H1026.93L1026.47 183.406H1026.55C1026.84 183.132 1027.21 182.902 1027.68 182.717C1028.16 182.533 1028.66 182.44 1029.2 182.44C1030.09 182.44 1030.88 182.651 1031.57 183.072C1032.26 183.494 1032.81 184.069 1033.21 184.798C1033.61 185.523 1033.81 186.356 1033.81 187.298C1033.81 188.241 1033.6 189.081 1033.17 189.82C1032.74 190.558 1032.15 191.141 1031.39 191.567C1030.64 191.988 1029.77 192.199 1028.8 192.199Z" fill="#CFCFCF"/>
<path d="M64.5327 411.818V438H59.0611V416.318H48.4759V438H43.0043V411.818H64.5327ZM68.2606 445.364V418.364H73.63V421.662H73.8729C74.1115 421.134 74.4567 420.597 74.9084 420.051C75.3686 419.497 75.9652 419.037 76.6981 418.67C77.4396 418.295 78.3601 418.108 79.4595 418.108C80.8913 418.108 82.2123 418.483 83.4226 419.233C84.6328 419.974 85.6001 421.095 86.3246 422.595C87.049 424.087 87.4112 425.957 87.4112 428.207C87.4112 430.398 87.0575 432.247 86.3501 433.756C85.6513 435.256 84.6967 436.393 83.4865 437.169C82.2848 437.936 80.9382 438.32 79.4467 438.32C78.3899 438.32 77.4908 438.145 76.7493 437.795C76.0163 437.446 75.4155 437.007 74.9467 436.479C74.478 435.942 74.12 435.401 73.8729 434.855H73.7067V445.364H68.2606ZM73.5916 428.182C73.5916 429.349 73.7535 430.368 74.0774 431.237C74.4013 432.107 74.87 432.784 75.4837 433.27C76.0973 433.747 76.843 433.986 77.7209 433.986C78.6072 433.986 79.3572 433.743 79.9709 433.257C80.5845 432.763 81.049 432.081 81.3643 431.212C81.6882 430.334 81.8501 429.324 81.8501 428.182C81.8501 427.048 81.6925 426.051 81.3771 425.19C81.0618 424.33 80.5973 423.656 79.9837 423.17C79.37 422.685 78.6158 422.442 77.7209 422.442C76.8345 422.442 76.0845 422.676 75.4709 423.145C74.8658 423.614 74.4013 424.278 74.0774 425.139C73.7535 426 73.5916 427.014 73.5916 428.182ZM98.474 438.384C96.4883 438.384 94.7709 437.962 93.3221 437.118C91.8817 436.266 90.7695 435.081 89.9854 433.564C89.2013 432.038 88.8093 430.27 88.8093 428.259C88.8093 426.23 89.2013 424.457 89.9854 422.94C90.7695 421.415 91.8817 420.23 93.3221 419.386C94.7709 418.534 96.4883 418.108 98.474 418.108C100.46 418.108 102.173 418.534 103.613 419.386C105.062 420.23 106.179 421.415 106.963 422.94C107.747 424.457 108.139 426.23 108.139 428.259C108.139 430.27 107.747 432.038 106.963 433.564C106.179 435.081 105.062 436.266 103.613 437.118C102.173 437.962 100.46 438.384 98.474 438.384ZM98.4996 434.165C99.403 434.165 100.157 433.909 100.762 433.398C101.368 432.878 101.823 432.17 102.13 431.276C102.446 430.381 102.603 429.362 102.603 428.22C102.603 427.078 102.446 426.06 102.13 425.165C101.823 424.27 101.368 423.562 100.762 423.043C100.157 422.523 99.403 422.263 98.4996 422.263C97.5877 422.263 96.8206 422.523 96.1985 423.043C95.5848 423.562 95.1204 424.27 94.805 425.165C94.4982 426.06 94.3448 427.078 94.3448 428.22C94.3448 429.362 94.4982 430.381 94.805 431.276C95.1204 432.17 95.5848 432.878 96.1985 433.398C96.8206 433.909 97.5877 434.165 98.4996 434.165ZM127.409 418.364V434.241H130.541V444.315H125.249V438H110.24V418.364H115.443V433.717H122.27V418.364H127.409ZM141.198 438.384C139.178 438.384 137.44 437.974 135.982 437.156C134.533 436.33 133.417 435.162 132.633 433.653C131.849 432.136 131.457 430.342 131.457 428.271C131.457 426.251 131.849 424.479 132.633 422.953C133.417 421.428 134.521 420.239 135.944 419.386C137.376 418.534 139.055 418.108 140.981 418.108C142.276 418.108 143.482 418.317 144.599 418.734C145.724 419.143 146.704 419.761 147.539 420.588C148.383 421.415 149.039 422.455 149.508 423.707C149.977 424.952 150.211 426.409 150.211 428.08V429.575H133.63V426.2H145.084C145.084 425.416 144.914 424.722 144.573 424.116C144.232 423.511 143.759 423.038 143.154 422.697C142.557 422.348 141.863 422.173 141.07 422.173C140.244 422.173 139.511 422.365 138.871 422.749C138.241 423.124 137.746 423.631 137.388 424.27C137.03 424.901 136.847 425.604 136.839 426.379V429.588C136.839 430.56 137.018 431.399 137.376 432.107C137.742 432.814 138.258 433.359 138.923 433.743C139.587 434.126 140.376 434.318 141.288 434.318C141.893 434.318 142.447 434.233 142.95 434.062C143.452 433.892 143.883 433.636 144.241 433.295C144.599 432.955 144.871 432.537 145.059 432.043L150.096 432.375C149.84 433.585 149.316 434.642 148.523 435.545C147.739 436.44 146.725 437.139 145.481 437.642C144.245 438.136 142.817 438.384 141.198 438.384ZM165.991 426.009V430.291H155.738V426.009H165.991ZM157.528 418.364V438H152.325V418.364H157.528ZM169.404 418.364V438H164.24V418.364H169.404ZM170.218 422.646V418.364H188.013V422.646H181.685V438H176.495V422.646H170.218ZM205.639 438.384C203.653 438.384 201.936 437.962 200.487 437.118C199.046 436.266 197.934 435.081 197.15 433.564C196.366 432.038 195.974 430.27 195.974 428.259C195.974 426.23 196.366 424.457 197.15 422.94C197.934 421.415 199.046 420.23 200.487 419.386C201.936 418.534 203.653 418.108 205.639 418.108C207.625 418.108 209.338 418.534 210.778 419.386C212.227 420.23 213.343 421.415 214.127 422.94C214.911 424.457 215.304 426.23 215.304 428.259C215.304 430.27 214.911 432.038 214.127 433.564C213.343 435.081 212.227 436.266 210.778 437.118C209.338 437.962 207.625 438.384 205.639 438.384ZM205.664 434.165C206.568 434.165 207.322 433.909 207.927 433.398C208.532 432.878 208.988 432.17 209.295 431.276C209.61 430.381 209.768 429.362 209.768 428.22C209.768 427.078 209.61 426.06 209.295 425.165C208.988 424.27 208.532 423.562 207.927 423.043C207.322 422.523 206.568 422.263 205.664 422.263C204.752 422.263 203.985 422.523 203.363 423.043C202.75 423.562 202.285 424.27 201.97 425.165C201.663 426.06 201.509 427.078 201.509 428.22C201.509 429.362 201.663 430.381 201.97 431.276C202.285 432.17 202.75 432.878 203.363 433.398C203.985 433.909 204.752 434.165 205.664 434.165ZM215.503 422.646V418.364H233.299V422.646H226.97V438H221.78V422.646H215.503ZM235.16 438V418.364H240.606V425.983H242.14L247.484 418.364H253.876L246.934 428.105L253.953 438H247.484L242.639 431.033H240.606V438H235.16ZM260.413 438.371C259.16 438.371 258.044 438.153 257.064 437.719C256.084 437.276 255.308 436.624 254.737 435.763C254.175 434.893 253.893 433.811 253.893 432.516C253.893 431.425 254.094 430.509 254.494 429.767C254.895 429.026 255.44 428.429 256.131 427.977C256.821 427.526 257.605 427.185 258.483 426.955C259.369 426.724 260.298 426.562 261.27 426.469C262.412 426.349 263.332 426.239 264.031 426.136C264.73 426.026 265.237 425.864 265.552 425.651C265.868 425.437 266.025 425.122 266.025 424.705V424.628C266.025 423.818 265.77 423.192 265.258 422.749C264.756 422.305 264.04 422.084 263.111 422.084C262.131 422.084 261.351 422.301 260.771 422.736C260.192 423.162 259.808 423.699 259.621 424.347L254.584 423.938C254.839 422.744 255.342 421.713 256.092 420.844C256.842 419.966 257.81 419.293 258.994 418.824C260.187 418.347 261.568 418.108 263.136 418.108C264.227 418.108 265.271 418.236 266.268 418.491C267.274 418.747 268.165 419.143 268.94 419.68C269.724 420.217 270.342 420.908 270.794 421.751C271.246 422.587 271.471 423.588 271.471 424.756V438H266.307V435.277H266.153C265.838 435.891 265.416 436.432 264.888 436.901C264.359 437.361 263.724 437.723 262.983 437.987C262.241 438.243 261.385 438.371 260.413 438.371ZM261.973 434.612C262.774 434.612 263.481 434.455 264.095 434.139C264.709 433.815 265.19 433.381 265.54 432.835C265.889 432.29 266.064 431.672 266.064 430.982V428.898C265.893 429.009 265.659 429.111 265.361 429.205C265.071 429.29 264.743 429.371 264.376 429.447C264.01 429.516 263.643 429.58 263.277 429.639C262.91 429.69 262.578 429.737 262.28 429.78C261.64 429.874 261.082 430.023 260.605 430.227C260.128 430.432 259.757 430.709 259.493 431.058C259.229 431.399 259.096 431.825 259.096 432.337C259.096 433.078 259.365 433.645 259.902 434.037C260.447 434.42 261.138 434.612 261.973 434.612ZM273.247 432.439H278.526C278.552 433.087 278.842 433.598 279.396 433.973C279.95 434.348 280.666 434.536 281.544 434.536C282.43 434.536 283.176 434.331 283.781 433.922C284.386 433.504 284.688 432.908 284.688 432.132C284.688 431.655 284.569 431.241 284.33 430.892C284.092 430.534 283.759 430.253 283.333 430.048C282.907 429.844 282.413 429.741 281.85 429.741H279.025V426.175H281.85C282.694 426.175 283.342 425.979 283.794 425.587C284.254 425.195 284.484 424.705 284.484 424.116C284.484 423.452 284.245 422.919 283.768 422.518C283.299 422.109 282.664 421.905 281.863 421.905C281.053 421.905 280.38 422.088 279.843 422.455C279.315 422.812 279.042 423.281 279.025 423.861H273.771C273.788 422.685 274.142 421.666 274.832 420.805C275.531 419.945 276.468 419.28 277.644 418.811C278.829 418.342 280.154 418.108 281.62 418.108C283.222 418.108 284.603 418.334 285.762 418.786C286.93 419.229 287.825 419.864 288.447 420.69C289.078 421.517 289.393 422.501 289.393 423.643C289.393 424.683 289.052 425.553 288.37 426.251C287.688 426.95 286.734 427.449 285.507 427.747V427.952C286.316 428.003 287.049 428.22 287.705 428.604C288.362 428.987 288.886 429.516 289.278 430.189C289.67 430.854 289.866 431.642 289.866 432.554C289.866 433.773 289.508 434.817 288.792 435.686C288.085 436.555 287.105 437.224 285.852 437.693C284.607 438.153 283.18 438.384 281.569 438.384C280.001 438.384 278.595 438.158 277.35 437.706C276.115 437.246 275.13 436.572 274.397 435.686C273.673 434.8 273.289 433.717 273.247 432.439ZM297.365 438.371C296.112 438.371 294.996 438.153 294.016 437.719C293.036 437.276 292.26 436.624 291.689 435.763C291.127 434.893 290.845 433.811 290.845 432.516C290.845 431.425 291.046 430.509 291.446 429.767C291.847 429.026 292.392 428.429 293.083 427.977C293.773 427.526 294.557 427.185 295.435 426.955C296.321 426.724 297.25 426.562 298.222 426.469C299.364 426.349 300.284 426.239 300.983 426.136C301.682 426.026 302.189 425.864 302.504 425.651C302.82 425.437 302.977 425.122 302.977 424.705V424.628C302.977 423.818 302.722 423.192 302.21 422.749C301.708 422.305 300.992 422.084 300.063 422.084C299.083 422.084 298.303 422.301 297.723 422.736C297.144 423.162 296.76 423.699 296.573 424.347L291.536 423.938C291.791 422.744 292.294 421.713 293.044 420.844C293.794 419.966 294.762 419.293 295.946 418.824C297.139 418.347 298.52 418.108 300.088 418.108C301.179 418.108 302.223 418.236 303.22 418.491C304.226 418.747 305.117 419.143 305.892 419.68C306.676 420.217 307.294 420.908 307.746 421.751C308.198 422.587 308.423 423.588 308.423 424.756V438H303.259V435.277H303.105C302.79 435.891 302.368 436.432 301.84 436.901C301.311 437.361 300.676 437.723 299.935 437.987C299.193 438.243 298.337 438.371 297.365 438.371ZM298.925 434.612C299.726 434.612 300.433 434.455 301.047 434.139C301.661 433.815 302.142 433.381 302.492 432.835C302.841 432.29 303.016 431.672 303.016 430.982V428.898C302.845 429.009 302.611 429.111 302.313 429.205C302.023 429.29 301.695 429.371 301.328 429.447C300.962 429.516 300.595 429.58 300.229 429.639C299.862 429.69 299.53 429.737 299.232 429.78C298.592 429.874 298.034 430.023 297.557 430.227C297.08 430.432 296.709 430.709 296.445 431.058C296.181 431.399 296.048 431.825 296.048 432.337C296.048 433.078 296.317 433.645 296.854 434.037C297.399 434.42 298.09 434.612 298.925 434.612Z" fill="black"/>
<path opacity="0.4" d="M1034.5 666.5H39.545V556H613H1034.5V666.5Z" fill="url(#paint1_linear_3239_3181)"/>
<rect x="1030.54" y="552.357" width="9.55842" height="9.55842" rx="4.77921" fill="#CACACA" stroke="#CACACA" stroke-width="0.713315"/>
<path d="M39 558H1034" stroke="#CACACA" stroke-width="4"/>
<path d="M977.587 686.767C974.656 686.756 972.133 686.034 970.019 684.602C967.917 683.17 966.298 681.097 965.161 678.381C964.036 675.665 963.479 672.398 963.491 668.58C963.491 664.773 964.053 661.528 965.178 658.847C966.315 656.165 967.934 654.125 970.036 652.727C972.15 651.318 974.667 650.614 977.587 650.614C980.508 650.614 983.019 651.318 985.121 652.727C987.235 654.136 988.86 656.182 989.996 658.864C991.133 661.534 991.695 664.773 991.684 668.58C991.684 672.409 991.116 675.682 989.979 678.398C988.854 681.114 987.241 683.187 985.138 684.619C983.036 686.051 980.519 686.767 977.587 686.767ZM977.587 680.648C979.587 680.648 981.184 679.642 982.377 677.631C983.57 675.619 984.161 672.602 984.15 668.58C984.15 665.932 983.877 663.727 983.332 661.966C982.798 660.205 982.036 658.881 981.048 657.994C980.07 657.108 978.917 656.665 977.587 656.665C975.599 656.665 974.008 657.659 972.815 659.648C971.621 661.636 971.019 664.614 971.008 668.58C971.008 671.261 971.275 673.5 971.809 675.295C972.354 677.08 973.121 678.42 974.11 679.318C975.099 680.205 976.258 680.648 977.587 680.648ZM1015.56 679.455V677.614C1015.56 676.216 1015.86 674.932 1016.45 673.761C1017.05 672.58 1017.92 671.636 1019.06 670.932C1020.2 670.216 1021.6 669.858 1023.25 669.858C1024.92 669.858 1026.32 670.21 1027.46 670.915C1028.61 671.619 1029.47 672.562 1030.05 673.744C1030.64 674.915 1030.94 676.205 1030.94 677.614V679.455C1030.94 680.852 1030.64 682.142 1030.05 683.324C1029.46 684.494 1028.59 685.432 1027.44 686.136C1026.3 686.852 1024.9 687.21 1023.25 687.21C1021.58 687.21 1020.18 686.852 1019.04 686.136C1017.9 685.432 1017.04 684.494 1016.45 683.324C1015.86 682.142 1015.56 680.852 1015.56 679.455ZM1020.52 677.614V679.455C1020.52 680.261 1020.72 681.023 1021.1 681.739C1021.5 682.455 1022.22 682.812 1023.25 682.812C1024.28 682.812 1024.99 682.46 1025.36 681.756C1025.75 681.051 1025.94 680.284 1025.94 679.455V677.614C1025.94 676.784 1025.76 676.011 1025.4 675.295C1025.03 674.58 1024.32 674.222 1023.25 674.222C1022.23 674.222 1021.52 674.58 1021.12 675.295C1020.72 676.011 1020.52 676.784 1020.52 677.614ZM997.648 659.477V657.636C997.648 656.227 997.949 654.937 998.551 653.767C999.153 652.585 1000.02 651.642 1001.16 650.938C1002.31 650.233 1003.69 649.881 1005.32 649.881C1007 649.881 1008.41 650.233 1009.55 650.938C1010.68 651.642 1011.55 652.585 1012.14 653.767C1012.73 654.937 1013.02 656.227 1013.02 657.636V659.477C1013.02 660.886 1012.72 662.176 1012.12 663.347C1011.53 664.517 1010.66 665.455 1009.51 666.159C1008.38 666.852 1006.98 667.199 1005.32 667.199C1003.66 667.199 1002.26 666.847 1001.11 666.142C999.972 665.426 999.108 664.489 998.517 663.33C997.938 662.159 997.648 660.875 997.648 659.477ZM1002.64 657.636V659.477C1002.64 660.307 1002.84 661.074 1003.22 661.778C1003.62 662.483 1004.32 662.835 1005.32 662.835C1006.36 662.835 1007.07 662.483 1007.45 661.778C1007.84 661.074 1008.03 660.307 1008.03 659.477V657.636C1008.03 656.807 1007.85 656.034 1007.48 655.318C1007.12 654.602 1006.4 654.244 1005.32 654.244C1004.31 654.244 1003.61 654.608 1003.22 655.335C1002.84 656.062 1002.64 656.83 1002.64 657.636ZM999.898 686L1023.9 651.091H1028.36L1004.36 686H999.898Z" fill="black"/>
<path d="M41.3991 544V542.409L46.321 537.31C46.8466 536.756 47.2798 536.27 47.6207 535.854C47.9664 535.432 48.2244 535.032 48.3949 534.653C48.5653 534.275 48.6506 533.872 48.6506 533.446C48.6506 532.963 48.5369 532.546 48.3097 532.196C48.0824 531.841 47.7723 531.569 47.3793 531.379C46.9863 531.185 46.5436 531.088 46.0511 531.088C45.5303 531.088 45.0758 531.195 44.6875 531.408C44.2992 531.621 44.0009 531.921 43.7926 532.31C43.5843 532.698 43.4801 533.152 43.4801 533.673H41.3849C41.3849 532.788 41.5885 532.014 41.9957 531.351C42.4029 530.688 42.9616 530.174 43.6719 529.81C44.3821 529.44 45.1894 529.256 46.0938 529.256C47.0076 529.256 47.8125 529.438 48.5085 529.803C49.2093 530.162 49.7562 530.655 50.1491 531.28C50.5421 531.9 50.7386 532.601 50.7386 533.382C50.7386 533.922 50.6368 534.45 50.4332 534.966C50.2344 535.482 49.8864 536.057 49.3892 536.692C48.892 537.321 48.2008 538.086 47.3153 538.986L44.4247 542.011V542.118H50.973V544H41.3991ZM58.9607 529.455V544H56.759V531.656H56.6738L53.1936 533.929V531.827L56.8229 529.455H58.9607ZM64.6241 542.011L64.5176 542.786C64.4466 543.354 64.3258 543.946 64.1554 544.561C63.9897 545.181 63.8168 545.757 63.6369 546.287C63.4617 546.817 63.3173 547.239 63.2037 547.551H61.698C61.7596 547.258 61.8448 546.86 61.9537 546.358C62.0626 545.861 62.1691 545.304 62.2733 544.689C62.3775 544.073 62.4556 543.446 62.5077 542.807L62.5787 542.011H64.6241ZM67.4911 544L73.8405 531.443V531.337H66.4968V529.455H76.1132V531.401L69.7851 544H67.4911Z" fill="#CFCFCF"/>
<path d="M999.215 544V542.409L1004.14 537.31C1004.66 536.756 1005.1 536.27 1005.44 535.854C1005.78 535.432 1006.04 535.032 1006.21 534.653C1006.38 534.275 1006.47 533.872 1006.47 533.446C1006.47 532.963 1006.35 532.546 1006.13 532.196C1005.9 531.841 1005.59 531.569 1005.2 531.379C1004.8 531.185 1004.36 531.088 1003.87 531.088C1003.35 531.088 1002.89 531.195 1002.5 531.408C1002.12 531.621 1001.82 531.921 1001.61 532.31C1001.4 532.698 1001.3 533.152 1001.3 533.673H999.201C999.201 532.788 999.405 532.014 999.812 531.351C1000.22 530.688 1000.78 530.174 1001.49 529.81C1002.2 529.44 1003.01 529.256 1003.91 529.256C1004.82 529.256 1005.63 529.438 1006.32 529.803C1007.03 530.162 1007.57 530.655 1007.97 531.28C1008.36 531.9 1008.55 532.601 1008.55 533.382C1008.55 533.922 1008.45 534.45 1008.25 534.966C1008.05 535.482 1007.7 536.057 1007.21 536.692C1006.71 537.321 1006.02 538.086 1005.13 538.986L1002.24 542.011V542.118H1008.79V544H999.215ZM1016.78 529.455V544H1014.58V531.656H1014.49L1011.01 533.929V531.827L1014.64 529.455H1016.78ZM1022.44 542.011L1022.33 542.786C1022.26 543.354 1022.14 543.946 1021.97 544.561C1021.81 545.181 1021.63 545.757 1021.45 546.287C1021.28 546.817 1021.13 547.239 1021.02 547.551H1019.51C1019.58 547.258 1019.66 546.86 1019.77 546.358C1019.88 545.861 1019.99 545.304 1020.09 544.689C1020.19 544.073 1020.27 543.446 1020.32 542.807L1020.39 542.011H1022.44ZM1025.31 544L1031.66 531.443V531.337H1024.31V529.455H1033.93V531.401L1027.6 544H1025.31Z" fill="#CFCFCF"/>
<path opacity="0.4" d="M1034.89 1028.5H39.9385V941L760.92 913.5C760.92 913.5 1029.19 909.187 1034.89 909.006V909C1035.01 909 1035.01 909.002 1034.89 909.006V1028.5Z" fill="url(#paint2_linear_3239_3181)"/>
<rect x="1030.19" y="904" width="10.2717" height="10.2717" rx="5.13587" fill="#04B34A"/>
<path d="M1032.5 910L734.5 915L40 942.5" stroke="#04B34A" stroke-width="4"/>
<path d="M879.074 1048.56V1024.2L869.989 1033.32L866 1029.36L881.955 1013.44L897.875 1029.36L893.955 1033.32L884.835 1024.2V1048.56H879.074Z" fill="#04B34A"/>
<path d="M923.4 1048.77C920.468 1048.76 917.945 1048.03 915.832 1046.6C913.729 1045.17 912.11 1043.1 910.974 1040.38C909.849 1037.66 909.292 1034.4 909.303 1030.58C909.303 1026.77 909.866 1023.53 910.991 1020.85C912.127 1018.16 913.746 1016.12 915.849 1014.73C917.962 1013.32 920.479 1012.61 923.4 1012.61C926.32 1012.61 928.832 1013.32 930.934 1014.73C933.048 1016.14 934.673 1018.18 935.809 1020.86C936.945 1023.53 937.508 1026.77 937.496 1030.58C937.496 1034.41 936.928 1037.68 935.792 1040.4C934.667 1043.11 933.053 1045.19 930.951 1046.62C928.849 1048.05 926.332 1048.77 923.4 1048.77ZM923.4 1042.65C925.4 1042.65 926.996 1041.64 928.19 1039.63C929.383 1037.62 929.974 1034.6 929.962 1030.58C929.962 1027.93 929.69 1025.73 929.144 1023.97C928.61 1022.2 927.849 1020.88 926.86 1019.99C925.883 1019.11 924.729 1018.66 923.4 1018.66C921.411 1018.66 919.82 1019.66 918.627 1021.65C917.434 1023.64 916.832 1026.61 916.82 1030.58C916.82 1033.26 917.087 1035.5 917.621 1037.3C918.167 1039.08 918.934 1040.42 919.923 1041.32C920.911 1042.2 922.07 1042.65 923.4 1042.65ZM948.821 1043.23L948.634 1045.1C948.486 1046.6 948.202 1048.1 947.781 1049.59C947.372 1051.09 946.94 1052.44 946.486 1053.66C946.043 1054.88 945.685 1055.83 945.412 1056.52H940.707C940.878 1055.85 941.111 1054.91 941.406 1053.71C941.702 1052.52 941.98 1051.18 942.241 1049.69C942.503 1048.2 942.668 1046.68 942.736 1045.14L942.821 1043.23H948.821ZM966.678 1048.48C964.133 1048.48 961.866 1048.04 959.877 1047.16C957.9 1046.28 956.337 1045.06 955.19 1043.52C954.053 1041.96 953.468 1040.16 953.434 1038.13H960.866C960.911 1038.98 961.19 1039.73 961.701 1040.38C962.224 1041.02 962.917 1041.51 963.781 1041.86C964.644 1042.22 965.616 1042.39 966.695 1042.39C967.82 1042.39 968.815 1042.19 969.678 1041.8C970.542 1041.4 971.218 1040.85 971.707 1040.14C972.195 1039.44 972.44 1038.62 972.44 1037.7C972.44 1036.77 972.178 1035.95 971.656 1035.23C971.144 1034.51 970.406 1033.94 969.44 1033.53C968.485 1033.12 967.349 1032.91 966.031 1032.91H962.775V1027.49H966.031C967.144 1027.49 968.127 1027.3 968.979 1026.91C969.843 1026.53 970.513 1025.99 970.991 1025.31C971.468 1024.62 971.707 1023.81 971.707 1022.89C971.707 1022.02 971.496 1021.25 971.076 1020.59C970.667 1019.92 970.087 1019.4 969.337 1019.02C968.599 1018.65 967.735 1018.46 966.746 1018.46C965.746 1018.46 964.832 1018.64 964.002 1019.01C963.173 1019.36 962.508 1019.86 962.008 1020.52C961.508 1021.18 961.241 1021.95 961.207 1022.84H954.133C954.167 1020.83 954.741 1019.06 955.854 1017.52C956.968 1015.99 958.468 1014.79 960.354 1013.93C962.252 1013.05 964.394 1012.61 966.781 1012.61C969.19 1012.61 971.298 1013.05 973.104 1013.93C974.911 1014.8 976.315 1015.98 977.315 1017.47C978.326 1018.95 978.826 1020.61 978.815 1022.45C978.826 1024.4 978.218 1026.03 976.991 1027.34C975.775 1028.65 974.19 1029.48 972.235 1029.83V1030.1C974.803 1030.43 976.758 1031.32 978.099 1032.78C979.451 1034.22 980.121 1036.03 980.11 1038.2C980.121 1040.19 979.548 1041.95 978.388 1043.5C977.241 1045.05 975.656 1046.26 973.633 1047.15C971.61 1048.03 969.292 1048.48 966.678 1048.48ZM1018.33 1021.82V1048H1011.44V1021.82H1018.33ZM1014.97 1033.31V1039.03C1014.42 1039.28 1013.72 1039.52 1012.89 1039.75C1012.06 1039.97 1011.19 1040.14 1010.28 1040.28C1009.38 1040.41 1008.52 1040.48 1007.73 1040.48C1003.97 1040.48 1001.01 1039.71 998.847 1038.16C996.688 1036.61 995.609 1034.12 995.609 1030.72V1021.78H1002.46V1030.72C1002.46 1031.73 1002.63 1032.53 1002.97 1033.12C1003.32 1033.71 1003.88 1034.14 1004.64 1034.4C1005.42 1034.65 1006.44 1034.77 1007.73 1034.77C1008.92 1034.77 1010.09 1034.65 1011.24 1034.4C1012.39 1034.15 1013.63 1033.78 1014.97 1033.31ZM1027.72 1048.44C1026.6 1048.44 1025.63 1048.05 1024.82 1047.25C1024.03 1046.44 1023.63 1045.48 1023.63 1044.35C1023.63 1043.24 1024.03 1042.28 1024.82 1041.49C1025.63 1040.69 1026.6 1040.3 1027.72 1040.3C1028.81 1040.3 1029.77 1040.69 1030.58 1041.49C1031.4 1042.28 1031.81 1043.24 1031.81 1044.35C1031.81 1045.1 1031.62 1045.79 1031.23 1046.41C1030.86 1047.03 1030.36 1047.52 1029.75 1047.9C1029.13 1048.26 1028.46 1048.44 1027.72 1048.44Z" fill="black"/>
<path d="M41.3991 927V925.409L46.321 920.31C46.8466 919.756 47.2798 919.27 47.6207 918.854C47.9664 918.432 48.2244 918.032 48.3949 917.653C48.5653 917.275 48.6506 916.872 48.6506 916.446C48.6506 915.963 48.5369 915.546 48.3097 915.196C48.0824 914.841 47.7723 914.569 47.3793 914.379C46.9863 914.185 46.5436 914.088 46.0511 914.088C45.5303 914.088 45.0758 914.195 44.6875 914.408C44.2992 914.621 44.0009 914.921 43.7926 915.31C43.5843 915.698 43.4801 916.152 43.4801 916.673H41.3849C41.3849 915.788 41.5885 915.014 41.9957 914.351C42.4029 913.688 42.9616 913.174 43.6719 912.81C44.3821 912.44 45.1894 912.256 46.0938 912.256C47.0076 912.256 47.8125 912.438 48.5085 912.803C49.2093 913.162 49.7562 913.655 50.1491 914.28C50.5421 914.9 50.7386 915.601 50.7386 916.382C50.7386 916.922 50.6368 917.45 50.4332 917.966C50.2344 918.482 49.8864 919.057 49.3892 919.692C48.892 920.321 48.2008 921.086 47.3153 921.986L44.4247 925.011V925.118H50.973V927H41.3991ZM56.2334 925.011L56.1269 925.786C56.0559 926.354 55.9351 926.946 55.7647 927.561C55.5989 928.181 55.4261 928.757 55.2462 929.287C55.071 929.817 54.9266 930.239 54.813 930.551H53.3073C53.3688 930.258 53.4541 929.86 53.563 929.358C53.6719 928.861 53.7784 928.304 53.8826 927.689C53.9867 927.073 54.0649 926.446 54.1169 925.807L54.188 925.011H56.2334ZM63.5322 927.199C62.8835 927.189 62.2443 927.071 61.6146 926.844C60.9896 926.616 60.4214 926.238 59.91 925.707C59.3986 925.177 58.9891 924.464 58.6813 923.57C58.3783 922.675 58.2268 921.557 58.2268 920.217C58.2268 918.948 58.3522 917.821 58.6032 916.837C58.8589 915.852 59.2258 915.021 59.704 914.344C60.1823 913.662 60.7599 913.143 61.437 912.788C62.1141 912.433 62.874 912.256 63.7168 912.256C64.5833 912.256 65.3527 912.426 66.0251 912.767C66.6974 913.108 67.2419 913.579 67.6586 914.18C68.08 914.782 68.3475 915.466 68.4611 916.233H66.2949C66.1482 915.627 65.857 915.132 65.4214 914.749C64.9858 914.365 64.4176 914.173 63.7168 914.173C62.6515 914.173 61.8205 914.637 61.2239 915.565C60.6321 916.493 60.3338 917.784 60.329 919.436H60.4356C60.6865 919.024 60.9943 918.674 61.3589 918.385C61.7282 918.091 62.1401 917.866 62.5947 917.71C63.0539 917.549 63.5369 917.469 64.0435 917.469C64.8863 917.469 65.6486 917.675 66.3305 918.087C67.017 918.494 67.5639 919.057 67.9711 919.777C68.3783 920.497 68.5819 921.321 68.5819 922.249C68.5819 923.177 68.3712 924.017 67.9498 924.77C67.5331 925.523 66.946 926.119 66.1884 926.56C65.4308 926.995 64.5454 927.208 63.5322 927.199ZM63.5251 925.352C64.0838 925.352 64.5833 925.215 65.0236 924.94C65.464 924.666 65.812 924.296 66.0677 923.832C66.3234 923.368 66.4512 922.85 66.4512 922.277C66.4512 921.718 66.3257 921.209 66.0748 920.75C65.8286 920.291 65.4877 919.926 65.0521 919.656C64.6212 919.386 64.1288 919.251 63.5748 919.251C63.1534 919.251 62.7628 919.332 62.4029 919.493C62.0478 919.654 61.7353 919.876 61.4654 920.161C61.1955 920.445 60.9824 920.771 60.8262 921.141C60.6747 921.505 60.5989 921.891 60.5989 922.298C60.5989 922.843 60.7244 923.347 60.9753 923.811C61.231 924.275 61.579 924.649 62.0194 924.933C62.4645 925.213 62.9664 925.352 63.5251 925.352Z" fill="#CFCFCF"/>
<path d="M1006.28 895V893.409L1011.2 888.31C1011.73 887.756 1012.16 887.27 1012.5 886.854C1012.85 886.432 1013.1 886.032 1013.27 885.653C1013.44 885.275 1013.53 884.872 1013.53 884.446C1013.53 883.963 1013.42 883.546 1013.19 883.196C1012.96 882.841 1012.65 882.569 1012.26 882.379C1011.86 882.185 1011.42 882.088 1010.93 882.088C1010.41 882.088 1009.95 882.195 1009.57 882.408C1009.18 882.621 1008.88 882.921 1008.67 883.31C1008.46 883.698 1008.36 884.152 1008.36 884.673H1006.26C1006.26 883.788 1006.47 883.014 1006.87 882.351C1007.28 881.688 1007.84 881.174 1008.55 880.81C1009.26 880.44 1010.07 880.256 1010.97 880.256C1011.89 880.256 1012.69 880.438 1013.39 880.803C1014.09 881.162 1014.63 881.655 1015.03 882.28C1015.42 882.9 1015.62 883.601 1015.62 884.382C1015.62 884.922 1015.52 885.45 1015.31 885.966C1015.11 886.482 1014.77 887.057 1014.27 887.692C1013.77 888.321 1013.08 889.086 1012.19 889.986L1009.3 893.011V893.118H1015.85V895H1006.28ZM1021.11 893.011L1021.01 893.786C1020.93 894.354 1020.81 894.946 1020.64 895.561C1020.48 896.181 1020.3 896.757 1020.12 897.287C1019.95 897.817 1019.81 898.239 1019.69 898.551H1018.19C1018.25 898.258 1018.33 897.86 1018.44 897.358C1018.55 896.861 1018.66 896.304 1018.76 895.689C1018.87 895.073 1018.94 894.446 1019 893.807L1019.07 893.011H1021.11ZM1028.52 880.256C1029.17 880.26 1029.81 880.379 1030.44 880.611C1031.07 880.843 1031.64 881.222 1032.14 881.747C1032.65 882.273 1033.06 882.983 1033.36 883.878C1033.67 884.768 1033.83 885.876 1033.83 887.202C1033.83 888.475 1033.71 889.609 1033.45 890.604C1033.19 891.593 1032.83 892.429 1032.35 893.111C1031.88 893.793 1031.3 894.311 1030.62 894.666C1029.95 895.021 1029.18 895.199 1028.34 895.199C1027.47 895.199 1026.7 895.028 1026.03 894.688C1025.36 894.347 1024.81 893.875 1024.39 893.274C1023.97 892.668 1023.7 891.972 1023.6 891.186H1025.77C1025.91 891.811 1026.2 892.318 1026.63 892.706C1027.07 893.089 1027.64 893.281 1028.34 893.281C1029.4 893.281 1030.23 892.817 1030.83 891.889C1031.43 890.956 1031.73 889.654 1031.73 887.983H1031.62C1031.37 888.39 1031.06 888.741 1030.69 889.034C1030.33 889.328 1029.92 889.555 1029.47 889.716C1029.01 889.877 1028.53 889.957 1028.01 889.957C1027.17 889.957 1026.41 889.751 1025.72 889.339C1025.04 888.928 1024.49 888.362 1024.08 887.642C1023.67 886.922 1023.47 886.101 1023.47 885.178C1023.47 884.259 1023.68 883.426 1024.1 882.678C1024.52 881.929 1025.1 881.338 1025.86 880.902C1026.62 880.462 1027.5 880.246 1028.52 880.256ZM1028.53 882.102C1027.97 882.102 1027.47 882.24 1027.03 882.514C1026.59 882.784 1026.24 883.151 1025.99 883.615C1025.73 884.074 1025.6 884.586 1025.6 885.149C1025.6 885.713 1025.73 886.224 1025.97 886.683C1026.22 887.138 1026.56 887.5 1026.99 887.77C1027.43 888.035 1027.93 888.168 1028.49 888.168C1028.9 888.168 1029.29 888.087 1029.65 887.926C1030.01 887.765 1030.32 887.543 1030.59 887.259C1030.86 886.97 1031.08 886.643 1031.23 886.278C1031.38 885.914 1031.45 885.53 1031.45 885.128C1031.45 884.593 1031.33 884.096 1031.07 883.636C1030.82 883.177 1030.47 882.808 1030.03 882.528C1029.59 882.244 1029.09 882.102 1028.53 882.102Z" fill="#CFCFCF"/>
<defs>
<linearGradient id="paint0_linear_3239_3181" x1="537.476" y1="154" x2="537.476" y2="303.5" gradientUnits="userSpaceOnUse">
<stop stop-color="#04B34A"/>
<stop offset="0.0666667" stop-color="#04B34A" stop-opacity="0.991353"/>
<stop offset="0.133333" stop-color="#04B34A" stop-opacity="0.96449"/>
<stop offset="0.2" stop-color="#04B34A" stop-opacity="0.91834"/>
<stop offset="0.266667" stop-color="#04B34A" stop-opacity="0.852589"/>
<stop offset="0.333333" stop-color="#04B34A" stop-opacity="0.768225"/>
<stop offset="0.4" stop-color="#04B34A" stop-opacity="0.668116"/>
<stop offset="0.466667" stop-color="#04B34A" stop-opacity="0.557309"/>
<stop offset="0.533333" stop-color="#04B34A" stop-opacity="0.442691"/>
<stop offset="0.6" stop-color="#04B34A" stop-opacity="0.331884"/>
<stop offset="0.666667" stop-color="#04B34A" stop-opacity="0.231775"/>
<stop offset="0.733333" stop-color="#04B34A" stop-opacity="0.147411"/>
<stop offset="0.8" stop-color="#04B34A" stop-opacity="0.0816599"/>
<stop offset="0.866667" stop-color="#04B34A" stop-opacity="0.03551"/>
<stop offset="0.933333" stop-color="#04B34A" stop-opacity="0.01"/>
<stop offset="1" stop-color="#04B34A" stop-opacity="0"/>
</linearGradient>
<linearGradient id="paint1_linear_3239_3181" x1="537.021" y1="574.5" x2="537.021" y2="666.5" gradientUnits="userSpaceOnUse">
<stop stop-color="#D9D9D9"/>
<stop offset="1" stop-color="#D9D9D9" stop-opacity="0"/>
</linearGradient>
<linearGradient id="paint2_linear_3239_3181" x1="537.414" y1="879" x2="537.414" y2="1028.5" gradientUnits="userSpaceOnUse">
<stop stop-color="#04B34A"/>
<stop offset="0.0666667" stop-color="#04B34A" stop-opacity="0.991353"/>
<stop offset="0.133333" stop-color="#04B34A" stop-opacity="0.96449"/>
<stop offset="0.2" stop-color="#04B34A" stop-opacity="0.91834"/>
<stop offset="0.266667" stop-color="#04B34A" stop-opacity="0.852589"/>
<stop offset="0.333333" stop-color="#04B34A" stop-opacity="0.768225"/>
<stop offset="0.4" stop-color="#04B34A" stop-opacity="0.668116"/>
<stop offset="0.466667" stop-color="#04B34A" stop-opacity="0.557309"/>
<stop offset="0.533333" stop-color="#04B34A" stop-opacity="0.442691"/>
<stop offset="0.6" stop-color="#04B34A" stop-opacity="0.331884"/>
<stop offset="0.666667" stop-color="#04B34A" stop-opacity="0.231775"/>
<stop offset="0.733333" stop-color="#04B34A" stop-opacity="0.147411"/>
<stop offset="0.8" stop-color="#04B34A" stop-opacity="0.0816599"/>
<stop offset="0.866667" stop-color="#04B34A" stop-opacity="0.03551"/>
<stop offset="0.933333" stop-color="#04B34A" stop-opacity="0.01"/>
<stop offset="1" stop-color="#04B34A" stop-opacity="0"/>
</linearGradient>
</defs>
</svg>
