<svg width="1080" height="1085" viewBox="0 0 1080 1085" fill="none" xmlns="http://www.w3.org/2000/svg">
<rect width="1080" height="1085" fill="white"/>
<path d="M915.587 49L912.911 64.8629H915.891L914.181 75H908.668L909.483 70.1698H895.329L894.514 75H889L890.71 64.8629H892.824C893.79 63.5513 894.707 61.8209 895.74 58.1838L898.364 49H915.59H915.587ZM908.584 54.3069H902.535L901.369 58.3918C900.354 61.9393 899.515 63.5484 898.667 64.8629H906.805L908.584 54.3069Z" fill="#EAECEF"/>
<path d="M920.448 49H933.56C938.18 49 940.257 51.3544 939.681 54.7547C939.314 56.93 937.677 58.3311 936.141 58.958C937.818 59.6138 939.146 61.2836 938.663 64.1464C938.05 67.7836 935.085 70.1698 930.167 70.1698H916.875L920.448 49ZM924.295 61.7024L923.67 65.4002H929.69C931.298 65.4002 932.293 64.8051 932.504 63.5513C932.721 62.2687 931.923 61.7024 930.312 61.7024H924.292H924.295ZM925.631 53.7724L925.099 56.9329H931.029C932.282 56.9329 933.161 56.4851 933.352 55.3527C933.543 54.2202 932.814 53.7724 931.561 53.7724H925.631Z" fill="#EAECEF"/>
<path d="M943.47 49H949.579L947.427 61.7602L958.906 49H965.015L961.445 70.1698H955.336L957.479 57.4673L946.01 70.1698H939.9L943.47 49Z" fill="#EAECEF"/>
<path d="M974.098 59.1978L966.907 49H973.821L979.812 57.6464L981.272 49H987.084L985.626 57.6464L994.536 49H1001.3L990.954 58.9291L998.177 70.1698H990.815L985.039 61.1362L983.514 70.1698H977.703L979.227 61.1362L970.402 70.1698H963.309L974.101 59.1978H974.098Z" fill="#EAECEF"/>
<path d="M1010.23 49H1003.13L1010.19 58.9291L999.713 70.1698H1006.81L1017.29 58.9291L1010.23 49ZM1021.44 49H1014.34L1021.41 58.9291L1010.93 70.1698H1018.02L1028.5 58.9291L1021.44 49ZM1032.94 49H1025.85L1032.91 58.9291L1022.43 70.1698H1029.52L1040 58.9291L1032.94 49Z" fill="#EAECEF"/>
<path d="M41.2784 53.3821V48.8182H62.7812V53.3821H54.7656V75H49.294V53.3821H41.2784ZM67.9442 67.8153L75.0138 55.3636H80.3832V75H75.1928V62.5099L68.1488 75H62.7411V55.3636H67.9442V67.8153ZM83.3089 75V55.3636H100.478V75H95.2748V59.6463H88.4481V75H83.3089ZM115.48 67.8153L122.549 55.3636H127.919V75H122.728V62.5099L115.684 75H110.277V55.3636H115.48V67.8153ZM130.844 75V55.3636H148.013V75H142.81V59.6463H135.984V75H130.844ZM159.792 75.3835C157.806 75.3835 156.089 74.9616 154.64 74.1179C153.2 73.2656 152.088 72.081 151.304 70.5639C150.519 69.0384 150.127 67.2699 150.127 65.2585C150.127 63.2301 150.519 61.4574 151.304 59.9403C152.088 58.4148 153.2 57.2301 154.64 56.3864C156.089 55.5341 157.806 55.108 159.792 55.108C161.778 55.108 163.491 55.5341 164.931 56.3864C166.38 57.2301 167.497 58.4148 168.281 59.9403C169.065 61.4574 169.457 63.2301 169.457 65.2585C169.457 67.2699 169.065 69.0384 168.281 70.5639C167.497 72.081 166.38 73.2656 164.931 74.1179C163.491 74.9616 161.778 75.3835 159.792 75.3835ZM159.818 71.1648C160.721 71.1648 161.475 70.9091 162.081 70.3977C162.686 69.8778 163.142 69.1705 163.448 68.2756C163.764 67.3807 163.921 66.3622 163.921 65.2202C163.921 64.0781 163.764 63.0597 163.448 62.1648C163.142 61.2699 162.686 60.5625 162.081 60.0426C161.475 59.5227 160.721 59.2628 159.818 59.2628C158.906 59.2628 158.139 59.5227 157.517 60.0426C156.903 60.5625 156.438 61.2699 156.123 62.1648C155.816 63.0597 155.663 64.0781 155.663 65.2202C155.663 66.3622 155.816 67.3807 156.123 68.2756C156.438 69.1705 156.903 69.8778 157.517 70.3977C158.139 70.9091 158.906 71.1648 159.818 71.1648ZM169.657 59.6463V55.3636H187.452V59.6463H181.124V75H175.933V59.6463H169.657ZM197.559 75.3835C195.539 75.3835 193.801 74.9744 192.343 74.1562C190.894 73.3295 189.778 72.1619 188.994 70.6534C188.21 69.1364 187.818 67.3423 187.818 65.2713C187.818 63.2514 188.21 61.4787 188.994 59.9531C189.778 58.4276 190.882 57.2386 192.305 56.3864C193.737 55.5341 195.416 55.108 197.342 55.108C198.637 55.108 199.843 55.3168 200.96 55.7344C202.085 56.1435 203.065 56.7614 203.9 57.5881C204.744 58.4148 205.4 59.4545 205.869 60.7074C206.338 61.9517 206.572 63.4091 206.572 65.0795V66.5753H189.991V63.2003H201.446C201.446 62.4162 201.275 61.7216 200.934 61.1165C200.593 60.5114 200.12 60.0384 199.515 59.6974C198.919 59.348 198.224 59.1733 197.431 59.1733C196.605 59.1733 195.872 59.3651 195.232 59.7486C194.602 60.1236 194.107 60.6307 193.75 61.2699C193.392 61.9006 193.208 62.6037 193.2 63.3793V66.5881C193.2 67.5597 193.379 68.3991 193.737 69.1065C194.103 69.8139 194.619 70.3594 195.284 70.7429C195.948 71.1264 196.737 71.3182 197.649 71.3182C198.254 71.3182 198.808 71.233 199.311 71.0625C199.813 70.892 200.244 70.6364 200.602 70.2955C200.96 69.9545 201.232 69.5369 201.42 69.0426L206.457 69.375C206.201 70.5852 205.677 71.642 204.884 72.5455C204.1 73.4403 203.086 74.1392 201.842 74.642C200.606 75.1364 199.179 75.3835 197.559 75.3835ZM208.686 75V55.3636H214.132V62.983H215.666L221.01 55.3636H227.402L220.46 65.1051L227.479 75H221.01L216.165 68.0327H214.132V75H208.686ZM233.543 67.8153L240.612 55.3636H245.982V75H240.791V62.5099L233.747 75H228.34V55.3636H233.543V67.8153Z" fill="black"/>
<rect x="40" y="124" width="1000" height="295" rx="20" fill="#F7F7F7"/>
<path opacity="0.6" d="M67.4964 150.326H65.1058C65.0376 149.934 64.9119 149.587 64.7287 149.284C64.5455 148.977 64.3175 148.717 64.0447 148.504C63.772 148.291 63.4609 148.131 63.1115 148.025C62.7663 147.914 62.3935 147.859 61.9929 147.859C61.2813 147.859 60.6506 148.038 60.1009 148.396C59.5511 148.749 59.1207 149.269 58.8097 149.955C58.4986 150.637 58.343 151.47 58.343 152.455C58.343 153.456 58.4986 154.3 58.8097 154.986C59.125 155.668 59.5554 156.183 60.1009 156.533C60.6506 156.878 61.2791 157.05 61.9865 157.05C62.3786 157.05 62.745 156.999 63.0859 156.897C63.4311 156.79 63.7401 156.635 64.0128 156.43C64.2898 156.226 64.522 155.974 64.7095 155.676C64.9013 155.378 65.0334 155.037 65.1058 154.653L67.4964 154.666C67.407 155.288 67.2131 155.872 66.9148 156.418C66.6207 156.963 66.2351 157.445 65.7578 157.862C65.2805 158.276 64.7223 158.599 64.0831 158.834C63.4439 159.064 62.7344 159.179 61.9545 159.179C60.804 159.179 59.777 158.913 58.8736 158.38C57.9702 157.847 57.2585 157.078 56.7386 156.072C56.2188 155.067 55.9588 153.861 55.9588 152.455C55.9588 151.044 56.2209 149.838 56.745 148.837C57.2692 147.831 57.983 147.062 58.8864 146.529C59.7898 145.996 60.8125 145.73 61.9545 145.73C62.6832 145.73 63.3608 145.832 63.9872 146.037C64.6136 146.241 65.1719 146.542 65.6619 146.938C66.152 147.33 66.5547 147.812 66.87 148.383C67.1896 148.95 67.3984 149.597 67.4964 150.326ZM70.8929 147.897V145.909H81.3375V147.897H77.2913V159H74.939V147.897H70.8929ZM85.25 159H82.7188L87.3275 145.909H90.255L94.8701 159H92.3388L88.8424 148.594H88.7401L85.25 159ZM85.3331 153.867H92.2365V155.772H85.3331V153.867ZM98.3943 159V145.909H100.766V151.451H106.832V145.909H109.21V159H106.832V153.439H100.766V159H98.3943ZM112.739 162.158V157.063H113.614C113.908 156.829 114.183 156.499 114.439 156.072C114.695 155.646 114.912 155.062 115.091 154.321C115.27 153.58 115.394 152.621 115.462 151.445L115.807 145.909H124.174V157.063H125.631V162.145H123.356V159H115.014V162.158H112.739ZM116.376 157.063H121.899V147.897H117.942L117.737 151.445C117.682 152.335 117.592 153.132 117.469 153.835C117.345 154.538 117.19 155.158 117.002 155.695C116.815 156.228 116.606 156.684 116.376 157.063ZM131.045 159H128.513L133.122 145.909H136.05L140.665 159H138.133L134.637 148.594H134.535L131.045 159ZM131.128 153.867H138.031V155.772H131.128V153.867ZM144.189 159V145.909H149.098C150.104 145.909 150.947 146.097 151.629 146.472C152.315 146.847 152.833 147.362 153.182 148.018C153.536 148.67 153.713 149.412 153.713 150.243C153.713 151.082 153.536 151.828 153.182 152.48C152.829 153.132 152.307 153.646 151.616 154.021C150.926 154.391 150.076 154.577 149.066 154.577H145.812V152.627H148.746C149.334 152.627 149.816 152.525 150.191 152.32C150.566 152.116 150.843 151.835 151.022 151.477C151.205 151.119 151.297 150.707 151.297 150.243C151.297 149.778 151.205 149.369 151.022 149.016C150.843 148.662 150.564 148.387 150.185 148.191C149.81 147.991 149.326 147.891 148.734 147.891H146.56V159H144.189ZM156.998 147.897V145.909H167.442V147.897H163.396V159H161.044V147.897H156.998ZM171.256 159V145.909H173.627V151.451H179.693V145.909H182.071V159H179.693V153.439H173.627V159H171.256ZM188.131 159H185.6L190.209 145.909H193.136L197.751 159H195.22L191.724 148.594H191.621L188.131 159ZM188.214 153.867H195.118V155.772H188.214V153.867ZM210.94 159H208.562V147.891H206.389C205.801 147.891 205.317 147.978 204.938 148.153C204.563 148.323 204.284 148.575 204.101 148.907C203.922 149.235 203.832 149.631 203.832 150.096C203.832 150.56 203.922 150.952 204.101 151.272C204.28 151.587 204.557 151.828 204.932 151.994C205.311 152.156 205.793 152.237 206.376 152.237H209.56V154.206H206.057C205.051 154.206 204.203 154.04 203.513 153.707C202.822 153.371 202.298 152.896 201.94 152.282C201.587 151.664 201.41 150.935 201.41 150.096C201.41 149.261 201.585 148.53 201.934 147.903C202.288 147.273 202.808 146.783 203.494 146.433C204.18 146.084 205.023 145.909 206.025 145.909H210.94V159ZM204.171 153.068H206.76L203.577 159H200.93L204.171 153.068Z" fill="black"/>
<path opacity="0.4" d="M1019.95 372.5H55V262L690 278.5C690 278.5 1014.39 224.867 1019.95 223.047V223C1020.05 223 1020.05 223.016 1019.95 223.047V372.5Z" fill="url(#paint0_linear_3239_2696)"/>
<rect x="1015.19" y="218" width="10.2717" height="10.2717" rx="5.13587" fill="#04B34A"/>
<path d="M1017.5 224L692.823 279.517C690.946 279.838 689.041 279.974 687.137 279.921L55 262.5" stroke="#04B34A" stroke-width="4"/>
<path d="M886.074 392.555V368.197L876.989 377.316L873 373.362L888.955 357.441L904.875 373.362L900.955 377.316L891.835 368.197V392.555H886.074Z" fill="#04B34A"/>
<path d="M931.322 392.767C928.39 392.756 925.867 392.034 923.754 390.602C921.651 389.17 920.032 387.097 918.896 384.381C917.771 381.665 917.214 378.398 917.225 374.58C917.225 370.773 917.788 367.528 918.913 364.847C920.049 362.165 921.668 360.125 923.771 358.727C925.884 357.318 928.401 356.614 931.322 356.614C934.242 356.614 936.754 357.318 938.856 358.727C940.969 360.136 942.594 362.182 943.731 364.864C944.867 367.534 945.43 370.773 945.418 374.58C945.418 378.409 944.85 381.682 943.714 384.398C942.589 387.114 940.975 389.187 938.873 390.619C936.771 392.051 934.254 392.767 931.322 392.767ZM931.322 386.648C933.322 386.648 934.918 385.642 936.112 383.631C937.305 381.619 937.896 378.602 937.884 374.58C937.884 371.932 937.612 369.727 937.066 367.966C936.532 366.205 935.771 364.881 934.782 363.994C933.805 363.108 932.651 362.665 931.322 362.665C929.333 362.665 927.742 363.659 926.549 365.648C925.356 367.636 924.754 370.614 924.742 374.58C924.742 377.261 925.009 379.5 925.543 381.295C926.089 383.08 926.856 384.42 927.844 385.318C928.833 386.205 929.992 386.648 931.322 386.648ZM956.743 387.227L956.555 389.102C956.408 390.602 956.124 392.097 955.703 393.585C955.294 395.085 954.862 396.443 954.408 397.659C953.964 398.875 953.607 399.83 953.334 400.523H948.629C948.8 399.852 949.033 398.915 949.328 397.71C949.624 396.517 949.902 395.176 950.163 393.688C950.425 392.199 950.589 390.682 950.658 389.136L950.743 387.227H956.743ZM973.65 357.091V392H966.269V364.097H966.065L958.07 369.108V362.562L966.712 357.091H973.65ZM1000.56 385.455V383.614C1000.56 382.216 1000.86 380.932 1001.45 379.761C1002.05 378.58 1002.92 377.636 1004.06 376.932C1005.2 376.216 1006.6 375.858 1008.25 375.858C1009.92 375.858 1011.32 376.21 1012.46 376.915C1013.61 377.619 1014.47 378.562 1015.05 379.744C1015.64 380.915 1015.94 382.205 1015.94 383.614V385.455C1015.94 386.852 1015.64 388.142 1015.05 389.324C1014.46 390.494 1013.59 391.432 1012.44 392.136C1011.3 392.852 1009.9 393.21 1008.25 393.21C1006.58 393.21 1005.18 392.852 1004.04 392.136C1002.9 391.432 1002.04 390.494 1001.45 389.324C1000.86 388.142 1000.56 386.852 1000.56 385.455ZM1005.52 383.614V385.455C1005.52 386.261 1005.72 387.023 1006.1 387.739C1006.5 388.455 1007.22 388.812 1008.25 388.812C1009.28 388.812 1009.99 388.46 1010.36 387.756C1010.75 387.051 1010.94 386.284 1010.94 385.455V383.614C1010.94 382.784 1010.76 382.011 1010.4 381.295C1010.03 380.58 1009.32 380.222 1008.25 380.222C1007.23 380.222 1006.52 380.58 1006.12 381.295C1005.72 382.011 1005.52 382.784 1005.52 383.614ZM982.648 365.477V363.636C982.648 362.227 982.949 360.937 983.551 359.767C984.153 358.585 985.023 357.642 986.159 356.938C987.307 356.233 988.693 355.881 990.318 355.881C992 355.881 993.409 356.233 994.545 356.938C995.682 357.642 996.545 358.585 997.136 359.767C997.727 360.937 998.023 362.227 998.023 363.636V365.477C998.023 366.886 997.722 368.176 997.119 369.347C996.528 370.517 995.659 371.455 994.511 372.159C993.375 372.852 991.977 373.199 990.318 373.199C988.659 373.199 987.256 372.847 986.108 372.142C984.972 371.426 984.108 370.489 983.517 369.33C982.938 368.159 982.648 366.875 982.648 365.477ZM987.642 363.636V365.477C987.642 366.307 987.835 367.074 988.222 367.778C988.619 368.483 989.318 368.835 990.318 368.835C991.364 368.835 992.074 368.483 992.449 367.778C992.835 367.074 993.028 366.307 993.028 365.477V363.636C993.028 362.807 992.847 362.034 992.483 361.318C992.119 360.602 991.398 360.244 990.318 360.244C989.307 360.244 988.608 360.608 988.222 361.335C987.835 362.062 987.642 362.83 987.642 363.636ZM984.898 392L1008.9 357.091H1013.36L989.364 392H984.898Z" fill="black"/>
<path d="M62.1094 248.219C61.0365 248.219 60.0781 248.034 59.2344 247.664C58.3958 247.294 57.7318 246.781 57.2422 246.125C56.7578 245.464 56.4974 244.698 56.4609 243.828H58.9141C58.9453 244.302 59.1042 244.714 59.3906 245.062C59.6823 245.406 60.0625 245.672 60.5313 245.859C61 246.047 61.5208 246.141 62.0938 246.141C62.724 246.141 63.2813 246.031 63.7656 245.812C64.2552 245.594 64.638 245.289 64.9141 244.898C65.1901 244.503 65.3281 244.047 65.3281 243.531C65.3281 242.995 65.1901 242.523 64.9141 242.117C64.6432 241.706 64.2448 241.383 63.7188 241.148C63.1979 240.914 62.5677 240.797 61.8281 240.797H60.4766V238.828H61.8281C62.4219 238.828 62.9427 238.721 63.3906 238.508C63.8438 238.294 64.1979 237.997 64.4531 237.617C64.7083 237.232 64.8359 236.781 64.8359 236.266C64.8359 235.771 64.724 235.341 64.5 234.977C64.2813 234.607 63.9688 234.318 63.5625 234.109C63.1615 233.901 62.6875 233.797 62.1406 233.797C61.6198 233.797 61.1328 233.893 60.6797 234.086C60.2318 234.273 59.8672 234.544 59.5859 234.898C59.3047 235.247 59.1536 235.667 59.1328 236.156H56.7969C56.8229 235.292 57.0781 234.531 57.5625 233.875C58.0521 233.219 58.6979 232.706 59.5 232.336C60.3021 231.966 61.1927 231.781 62.1719 231.781C63.1979 231.781 64.0833 231.982 64.8281 232.383C65.5781 232.779 66.1563 233.307 66.5625 233.969C66.974 234.63 67.1771 235.354 67.1719 236.141C67.1771 237.036 66.9271 237.797 66.4219 238.422C65.9219 239.047 65.2552 239.466 64.4219 239.68V239.805C65.4844 239.966 66.3073 240.388 66.8906 241.07C67.4792 241.753 67.7708 242.599 67.7656 243.609C67.7708 244.49 67.526 245.279 67.0312 245.977C66.5417 246.674 65.8724 247.224 65.0234 247.625C64.1745 248.021 63.2031 248.219 62.1094 248.219ZM76.0665 248.266C74.8321 248.26 73.7774 247.935 72.9024 247.289C72.0274 246.643 71.3582 245.703 70.8946 244.469C70.4311 243.234 70.1993 241.747 70.1993 240.008C70.1993 238.273 70.4311 236.792 70.8946 235.562C71.3634 234.333 72.0353 233.396 72.9103 232.75C73.7905 232.104 74.8426 231.781 76.0665 231.781C77.2905 231.781 78.3399 232.107 79.2149 232.758C80.0899 233.404 80.7592 234.341 81.2228 235.57C81.6915 236.794 81.9259 238.273 81.9259 240.008C81.9259 241.753 81.6941 243.242 81.2306 244.477C80.767 245.706 80.0978 246.646 79.2228 247.297C78.3478 247.943 77.2957 248.266 76.0665 248.266ZM76.0665 246.18C77.1498 246.18 77.9962 245.651 78.6056 244.594C79.2202 243.536 79.5274 242.008 79.5274 240.008C79.5274 238.68 79.3868 237.557 79.1056 236.641C78.8295 235.719 78.4311 235.021 77.9103 234.547C77.3946 234.068 76.7801 233.828 76.0665 233.828C74.9884 233.828 74.142 234.359 73.5274 235.422C72.9129 236.484 72.603 238.013 72.5978 240.008C72.5978 241.341 72.7358 242.469 73.0118 243.391C73.2931 244.307 73.6915 245.003 74.2071 245.477C74.7228 245.945 75.3426 246.18 76.0665 246.18ZM86.965 245.812L86.8479 246.664C86.7697 247.289 86.6369 247.94 86.4494 248.617C86.2671 249.299 86.077 249.932 85.8791 250.516C85.6864 251.099 85.5275 251.563 85.4025 251.906H83.7463C83.814 251.583 83.9078 251.146 84.0275 250.594C84.1473 250.047 84.2645 249.435 84.3791 248.758C84.4937 248.081 84.5796 247.391 84.6369 246.687L84.715 245.812H86.965ZM95.137 231.781C95.8506 231.786 96.5537 231.917 97.2464 232.172C97.9391 232.427 98.5641 232.844 99.1214 233.422C99.6839 234 100.132 234.781 100.465 235.766C100.804 236.745 100.976 237.964 100.981 239.422C100.981 240.823 100.84 242.07 100.559 243.164C100.278 244.253 99.874 245.172 99.348 245.922C98.8271 246.672 98.1943 247.242 97.4495 247.633C96.7047 248.023 95.8662 248.219 94.9339 248.219C93.9808 248.219 93.1344 248.031 92.3948 247.656C91.6553 247.281 91.0537 246.763 90.5901 246.102C90.1266 245.435 89.8375 244.669 89.723 243.805H92.1058C92.262 244.492 92.5797 245.049 93.0589 245.477C93.5433 245.898 94.1683 246.109 94.9339 246.109C96.1058 246.109 97.0198 245.599 97.6761 244.578C98.3323 243.552 98.6631 242.12 98.6683 240.281H98.5433C98.2724 240.729 97.9339 241.115 97.5276 241.437C97.1266 241.76 96.6761 242.01 96.1761 242.187C95.6761 242.365 95.1422 242.453 94.5745 242.453C93.6526 242.453 92.8141 242.227 92.0589 241.773C91.3037 241.32 90.7021 240.698 90.2542 239.906C89.8063 239.115 89.5823 238.211 89.5823 237.195C89.5823 236.185 89.8115 235.268 90.2698 234.445C90.7334 233.622 91.3792 232.971 92.2073 232.492C93.0407 232.008 94.0172 231.771 95.137 231.781ZM95.1448 233.812C94.5355 233.812 93.986 233.964 93.4964 234.266C93.012 234.562 92.6292 234.966 92.348 235.477C92.0667 235.982 91.9261 236.544 91.9261 237.164C91.9261 237.784 92.0615 238.346 92.3323 238.852C92.6084 239.352 92.9834 239.75 93.4573 240.047C93.9365 240.339 94.4834 240.484 95.098 240.484C95.5563 240.484 95.9834 240.396 96.3792 240.219C96.775 240.042 97.1214 239.797 97.4183 239.484C97.7151 239.167 97.9469 238.807 98.1136 238.406C98.2803 238.005 98.3636 237.583 98.3636 237.141C98.3636 236.552 98.223 236.005 97.9417 235.5C97.6657 234.995 97.2855 234.589 96.8011 234.281C96.3167 233.969 95.7646 233.812 95.1448 233.812Z" fill="#CFCFCF"/>
<path d="M1003.75 205.219C1002.68 205.219 1001.72 205.034 1000.88 204.664C1000.04 204.294 999.376 203.781 998.887 203.125C998.402 202.464 998.142 201.698 998.105 200.828H1000.56C1000.59 201.302 1000.75 201.714 1001.04 202.062C1001.33 202.406 1001.71 202.672 1002.18 202.859C1002.64 203.047 1003.17 203.141 1003.74 203.141C1004.37 203.141 1004.93 203.031 1005.41 202.812C1005.9 202.594 1006.28 202.289 1006.56 201.898C1006.83 201.503 1006.97 201.047 1006.97 200.531C1006.97 199.995 1006.83 199.523 1006.56 199.117C1006.29 198.706 1005.89 198.383 1005.36 198.148C1004.84 197.914 1004.21 197.797 1003.47 197.797H1002.12V195.828H1003.47C1004.07 195.828 1004.59 195.721 1005.04 195.508C1005.49 195.294 1005.84 194.997 1006.1 194.617C1006.35 194.232 1006.48 193.781 1006.48 193.266C1006.48 192.771 1006.37 192.341 1006.14 191.977C1005.93 191.607 1005.61 191.318 1005.21 191.109C1004.81 190.901 1004.33 190.797 1003.79 190.797C1003.26 190.797 1002.78 190.893 1002.32 191.086C1001.88 191.273 1001.51 191.544 1001.23 191.898C1000.95 192.247 1000.8 192.667 1000.78 193.156H998.441C998.467 192.292 998.723 191.531 999.207 190.875C999.697 190.219 1000.34 189.706 1001.14 189.336C1001.95 188.966 1002.84 188.781 1003.82 188.781C1004.84 188.781 1005.73 188.982 1006.47 189.383C1007.22 189.779 1007.8 190.307 1008.21 190.969C1008.62 191.63 1008.82 192.354 1008.82 193.141C1008.82 194.036 1008.57 194.797 1008.07 195.422C1007.57 196.047 1006.9 196.466 1006.07 196.68V196.805C1007.13 196.966 1007.95 197.388 1008.54 198.07C1009.12 198.753 1009.42 199.599 1009.41 200.609C1009.42 201.49 1009.17 202.279 1008.68 202.977C1008.19 203.674 1007.52 204.224 1006.67 204.625C1005.82 205.021 1004.85 205.219 1003.75 205.219ZM1018.21 189V205H1015.79V191.422H1015.7L1011.87 193.922V191.609L1015.86 189H1018.21Z" fill="#CFCFCF"/>
<rect x="40" y="437" width="491" height="295" rx="20" fill="#F7F7F7"/>
<path opacity="0.6" d="M67.4964 463.326H65.1058C65.0376 462.934 64.9119 462.587 64.7287 462.284C64.5455 461.977 64.3175 461.717 64.0447 461.504C63.772 461.291 63.4609 461.131 63.1115 461.025C62.7663 460.914 62.3935 460.859 61.9929 460.859C61.2813 460.859 60.6506 461.038 60.1009 461.396C59.5511 461.749 59.1207 462.269 58.8097 462.955C58.4986 463.637 58.343 464.47 58.343 465.455C58.343 466.456 58.4986 467.3 58.8097 467.986C59.125 468.668 59.5554 469.183 60.1009 469.533C60.6506 469.878 61.2791 470.05 61.9865 470.05C62.3786 470.05 62.745 469.999 63.0859 469.897C63.4311 469.79 63.7401 469.635 64.0128 469.43C64.2898 469.226 64.522 468.974 64.7095 468.676C64.9013 468.378 65.0334 468.037 65.1058 467.653L67.4964 467.666C67.407 468.288 67.2131 468.872 66.9148 469.418C66.6207 469.963 66.2351 470.445 65.7578 470.862C65.2805 471.276 64.7223 471.599 64.0831 471.834C63.4439 472.064 62.7344 472.179 61.9545 472.179C60.804 472.179 59.777 471.913 58.8736 471.38C57.9702 470.847 57.2585 470.078 56.7386 469.072C56.2188 468.067 55.9588 466.861 55.9588 465.455C55.9588 464.044 56.2209 462.838 56.745 461.837C57.2692 460.831 57.983 460.062 58.8864 459.529C59.7898 458.996 60.8125 458.73 61.9545 458.73C62.6832 458.73 63.3608 458.832 63.9872 459.037C64.6136 459.241 65.1719 459.542 65.6619 459.938C66.152 460.33 66.5547 460.812 66.87 461.383C67.1896 461.95 67.3984 462.597 67.4964 463.326ZM71.4681 472V458.909H79.9824V460.897H73.8396V464.451H79.5413V466.439H73.8396V470.012H80.0335V472H71.4681ZM84.2017 458.909H87.1037L90.9901 468.395H91.1435L95.0299 458.909H97.9319V472H95.6563V463.006H95.5348L91.9169 471.962H90.2167L86.5988 462.987H86.4773V472H84.2017V458.909ZM102.314 472V458.909H110.828V460.897H104.686V464.451H110.387V466.439H104.686V470.012H110.88V472H102.314ZM115.048 458.909H117.4V467.832H117.522L123.677 458.909H125.806V472H123.434V463.083H123.326L117.151 472H115.048V458.909ZM121.696 455.534H123.428C123.428 456.28 123.157 456.885 122.616 457.349C122.079 457.81 121.35 458.04 120.43 458.04C119.518 458.04 118.791 457.81 118.25 457.349C117.713 456.885 117.447 456.28 117.451 455.534H119.171C119.171 455.841 119.264 456.116 119.452 456.359C119.644 456.597 119.97 456.717 120.43 456.717C120.882 456.717 121.203 456.597 121.395 456.359C121.591 456.12 121.691 455.845 121.696 455.534ZM130.19 472V458.909H132.561V464.451H138.627V458.909H141.005V472H138.627V466.439H132.561V472H130.19ZM147.065 472H144.534L149.143 458.909H152.07L156.685 472H154.154L150.658 461.594H150.555L147.065 472ZM147.148 466.867H154.052V468.772H147.148V466.867ZM169.874 472H167.496V460.891H165.323C164.735 460.891 164.251 460.978 163.872 461.153C163.497 461.323 163.218 461.575 163.035 461.907C162.856 462.235 162.766 462.631 162.766 463.096C162.766 463.56 162.856 463.952 163.035 464.272C163.214 464.587 163.491 464.828 163.866 464.994C164.245 465.156 164.727 465.237 165.31 465.237H168.494V467.206H164.991C163.985 467.206 163.137 467.04 162.447 466.707C161.756 466.371 161.232 465.896 160.874 465.282C160.521 464.664 160.344 463.935 160.344 463.096C160.344 462.261 160.518 461.53 160.868 460.903C161.222 460.273 161.742 459.783 162.428 459.433C163.114 459.084 163.957 458.909 164.959 458.909H169.874V472ZM163.105 466.068H165.694L162.511 472H159.864L163.105 466.068Z" fill="black"/>
<path opacity="0.4" d="M510.991 685.5H55V575L353 597C353 597 508.36 538.026 510.991 536.051V536C511.036 536 511.036 536.017 510.991 536.051V685.5Z" fill="url(#paint1_linear_3239_2696)"/>
<rect x="506.188" y="531" width="10.2717" height="10.2717" rx="5.13587" fill="#04B34A"/>
<path d="M508.5 537L360.133 595.098C356.096 596.679 351.755 597.335 347.431 597.017L55 575.5" stroke="#04B34A" stroke-width="4"/>
<path d="M366.074 705.555V681.197L356.989 690.316L353 686.362L368.955 670.441L384.875 686.362L380.955 690.316L371.835 681.197V705.555H366.074Z" fill="#04B34A"/>
<path d="M411.212 705.767C408.281 705.756 405.758 705.034 403.644 703.602C401.542 702.17 399.923 700.097 398.786 697.381C397.661 694.665 397.104 691.398 397.116 687.58C397.116 683.773 397.678 680.528 398.803 677.847C399.94 675.165 401.559 673.125 403.661 671.727C405.775 670.318 408.292 669.614 411.212 669.614C414.133 669.614 416.644 670.318 418.746 671.727C420.86 673.136 422.485 675.182 423.621 677.864C424.758 680.534 425.32 683.773 425.309 687.58C425.309 691.409 424.741 694.682 423.604 697.398C422.479 700.114 420.866 702.187 418.763 703.619C416.661 705.051 414.144 705.767 411.212 705.767ZM411.212 699.648C413.212 699.648 414.809 698.642 416.002 696.631C417.195 694.619 417.786 691.602 417.775 687.58C417.775 684.932 417.502 682.727 416.957 680.966C416.423 679.205 415.661 677.881 414.673 676.994C413.695 676.108 412.542 675.665 411.212 675.665C409.224 675.665 407.633 676.659 406.44 678.648C405.246 680.636 404.644 683.614 404.633 687.58C404.633 690.261 404.9 692.5 405.434 694.295C405.979 696.08 406.746 697.42 407.735 698.318C408.724 699.205 409.883 699.648 411.212 699.648ZM436.634 700.227L436.446 702.102C436.298 703.602 436.014 705.097 435.594 706.585C435.185 708.085 434.753 709.443 434.298 710.659C433.855 711.875 433.497 712.83 433.224 713.523H428.52C428.69 712.852 428.923 711.915 429.219 710.71C429.514 709.517 429.793 708.176 430.054 706.688C430.315 705.199 430.48 703.682 430.548 702.136L430.634 700.227H436.634ZM442.712 705V699.682L455.138 688.176C456.195 687.153 457.082 686.233 457.798 685.415C458.525 684.597 459.076 683.795 459.451 683.011C459.826 682.216 460.013 681.358 460.013 680.438C460.013 679.415 459.781 678.534 459.315 677.795C458.849 677.045 458.212 676.472 457.406 676.074C456.599 675.665 455.684 675.46 454.661 675.46C453.593 675.46 452.661 675.676 451.866 676.108C451.07 676.54 450.457 677.159 450.025 677.966C449.593 678.773 449.377 679.733 449.377 680.847H442.371C442.371 678.562 442.888 676.58 443.923 674.898C444.957 673.216 446.406 671.915 448.269 670.994C450.133 670.074 452.281 669.614 454.712 669.614C457.212 669.614 459.388 670.057 461.241 670.943C463.104 671.818 464.553 673.034 465.587 674.591C466.621 676.148 467.138 677.932 467.138 679.943C467.138 681.261 466.877 682.562 466.354 683.847C465.843 685.131 464.928 686.557 463.61 688.125C462.292 689.682 460.434 691.551 458.036 693.733L452.94 698.727V698.966H467.599V705H442.712ZM491.562 698.455V696.614C491.562 695.216 491.858 693.932 492.449 692.761C493.051 691.58 493.92 690.636 495.057 689.932C496.205 689.216 497.602 688.858 499.25 688.858C500.92 688.858 502.324 689.21 503.46 689.915C504.608 690.619 505.472 691.562 506.051 692.744C506.642 693.915 506.938 695.205 506.938 696.614V698.455C506.938 699.852 506.642 701.142 506.051 702.324C505.46 703.494 504.591 704.432 503.443 705.136C502.295 705.852 500.898 706.21 499.25 706.21C497.58 706.21 496.176 705.852 495.04 705.136C493.903 704.432 493.04 703.494 492.449 702.324C491.858 701.142 491.562 699.852 491.562 698.455ZM496.523 696.614V698.455C496.523 699.261 496.716 700.023 497.102 700.739C497.5 701.455 498.216 701.812 499.25 701.812C500.284 701.812 500.989 701.46 501.364 700.756C501.75 700.051 501.943 699.284 501.943 698.455V696.614C501.943 695.784 501.761 695.011 501.398 694.295C501.034 693.58 500.318 693.222 499.25 693.222C498.227 693.222 497.517 693.58 497.119 694.295C496.722 695.011 496.523 695.784 496.523 696.614ZM473.648 678.477V676.636C473.648 675.227 473.949 673.937 474.551 672.767C475.153 671.585 476.023 670.642 477.159 669.938C478.307 669.233 479.693 668.881 481.318 668.881C483 668.881 484.409 669.233 485.545 669.938C486.682 670.642 487.545 671.585 488.136 672.767C488.727 673.937 489.023 675.227 489.023 676.636V678.477C489.023 679.886 488.722 681.176 488.119 682.347C487.528 683.517 486.659 684.455 485.511 685.159C484.375 685.852 482.977 686.199 481.318 686.199C479.659 686.199 478.256 685.847 477.108 685.142C475.972 684.426 475.108 683.489 474.517 682.33C473.938 681.159 473.648 679.875 473.648 678.477ZM478.642 676.636V678.477C478.642 679.307 478.835 680.074 479.222 680.778C479.619 681.483 480.318 681.835 481.318 681.835C482.364 681.835 483.074 681.483 483.449 680.778C483.835 680.074 484.028 679.307 484.028 678.477V676.636C484.028 675.807 483.847 675.034 483.483 674.318C483.119 673.602 482.398 673.244 481.318 673.244C480.307 673.244 479.608 673.608 479.222 674.335C478.835 675.062 478.642 675.83 478.642 676.636ZM475.898 705L499.898 670.091H504.364L480.364 705H475.898Z" fill="black"/>
<path d="M62.125 561.219C61.4115 561.208 60.7083 561.078 60.0156 560.828C59.3281 560.578 58.7031 560.161 58.1406 559.578C57.5781 558.995 57.1276 558.211 56.7891 557.227C56.4557 556.242 56.2891 555.013 56.2891 553.539C56.2891 552.143 56.4271 550.904 56.7031 549.82C56.9844 548.737 57.388 547.823 57.9141 547.078C58.4401 546.328 59.0755 545.758 59.8203 545.367C60.5651 544.977 61.401 544.781 62.3281 544.781C63.2813 544.781 64.1276 544.969 64.8672 545.344C65.6068 545.719 66.2057 546.237 66.6641 546.898C67.1276 547.56 67.4219 548.312 67.5469 549.156H65.1641C65.0026 548.49 64.6823 547.945 64.2031 547.523C63.724 547.102 63.099 546.891 62.3281 546.891C61.1563 546.891 60.2422 547.401 59.5859 548.422C58.9349 549.443 58.6068 550.862 58.6016 552.68H58.7188C58.9948 552.227 59.3333 551.841 59.7344 551.523C60.1406 551.201 60.5938 550.953 61.0938 550.781C61.599 550.604 62.1302 550.516 62.6875 550.516C63.6146 550.516 64.4531 550.742 65.2031 551.195C65.9583 551.643 66.5599 552.263 67.0078 553.055C67.4557 553.846 67.6797 554.753 67.6797 555.773C67.6797 556.794 67.4479 557.719 66.9844 558.547C66.526 559.375 65.8802 560.031 65.0469 560.516C64.2135 560.995 63.2396 561.229 62.125 561.219ZM62.1172 559.187C62.7318 559.187 63.2813 559.036 63.7656 558.734C64.25 558.432 64.6328 558.026 64.9141 557.516C65.1953 557.005 65.3359 556.435 65.3359 555.805C65.3359 555.19 65.1979 554.63 64.9219 554.125C64.651 553.62 64.276 553.219 63.7969 552.922C63.3229 552.625 62.7813 552.477 62.1719 552.477C61.7083 552.477 61.2786 552.565 60.8828 552.742C60.4922 552.919 60.1484 553.164 59.8516 553.477C59.5547 553.789 59.3203 554.148 59.1484 554.555C58.9818 554.956 58.8984 555.38 58.8984 555.828C58.8984 556.427 59.0365 556.982 59.3125 557.492C59.5938 558.003 59.9766 558.414 60.4609 558.727C60.9505 559.034 61.5026 559.187 62.1172 559.187ZM69.9669 557.875V555.922L76.881 545H78.42V547.875H77.4435L72.4981 555.703V555.828H81.9747V557.875H69.9669ZM77.5528 561V557.281L77.5685 556.391V545H79.8575V561H77.5528ZM86.9436 558.812L86.8264 559.664C86.7483 560.289 86.6154 560.94 86.4279 561.617C86.2456 562.299 86.0555 562.932 85.8576 563.516C85.6649 564.099 85.5061 564.563 85.3811 564.906H83.7248C83.7925 564.583 83.8863 564.146 84.0061 563.594C84.1259 563.047 84.243 562.435 84.3576 561.758C84.4722 561.081 84.5581 560.391 84.6154 559.687L84.6936 558.812H86.9436ZM89.6526 557.875V555.922L96.5667 545H98.1058V547.875H97.1292L92.1839 555.703V555.828H101.66V557.875H89.6526ZM97.2386 561V557.281L97.2542 556.391V545H99.5433V561H97.2386Z" fill="#CFCFCF"/>
<path d="M472.269 518.219C471.556 518.208 470.853 518.078 470.16 517.828C469.472 517.578 468.847 517.161 468.285 516.578C467.722 515.995 467.272 515.211 466.933 514.227C466.6 513.242 466.433 512.013 466.433 510.539C466.433 509.143 466.571 507.904 466.847 506.82C467.129 505.737 467.532 504.823 468.058 504.078C468.584 503.328 469.22 502.758 469.965 502.367C470.709 501.977 471.545 501.781 472.472 501.781C473.425 501.781 474.272 501.969 475.011 502.344C475.751 502.719 476.35 503.237 476.808 503.898C477.272 504.56 477.566 505.312 477.691 506.156H475.308C475.147 505.49 474.827 504.945 474.347 504.523C473.868 504.102 473.243 503.891 472.472 503.891C471.3 503.891 470.386 504.401 469.73 505.422C469.079 506.443 468.751 507.862 468.746 509.68H468.863C469.139 509.227 469.478 508.841 469.879 508.523C470.285 508.201 470.738 507.953 471.238 507.781C471.743 507.604 472.274 507.516 472.832 507.516C473.759 507.516 474.597 507.742 475.347 508.195C476.103 508.643 476.704 509.263 477.152 510.055C477.6 510.846 477.824 511.753 477.824 512.773C477.824 513.794 477.592 514.719 477.129 515.547C476.67 516.375 476.024 517.031 475.191 517.516C474.358 517.995 473.384 518.229 472.269 518.219ZM472.261 516.187C472.876 516.187 473.425 516.036 473.91 515.734C474.394 515.432 474.777 515.026 475.058 514.516C475.34 514.005 475.48 513.435 475.48 512.805C475.48 512.19 475.342 511.63 475.066 511.125C474.795 510.62 474.42 510.219 473.941 509.922C473.467 509.625 472.925 509.477 472.316 509.477C471.853 509.477 471.423 509.565 471.027 509.742C470.636 509.919 470.293 510.164 469.996 510.477C469.699 510.789 469.465 511.148 469.293 511.555C469.126 511.956 469.043 512.38 469.043 512.828C469.043 513.427 469.181 513.982 469.457 514.492C469.738 515.003 470.121 515.414 470.605 515.727C471.095 516.034 471.647 516.187 472.261 516.187ZM480.111 514.875V512.922L487.025 502H488.564V504.875H487.588L482.642 512.703V512.828H492.119V514.875H480.111ZM487.697 518V514.281L487.713 513.391V502H490.002V518H487.697ZM497.088 515.812L496.971 516.664C496.892 517.289 496.76 517.94 496.572 518.617C496.39 519.299 496.2 519.932 496.002 520.516C495.809 521.099 495.65 521.563 495.525 521.906H493.869C493.937 521.583 494.03 521.146 494.15 520.594C494.27 520.047 494.387 519.435 494.502 518.758C494.616 518.081 494.702 517.391 494.76 516.687L494.838 515.812H497.088ZM505.139 518.219C504.425 518.208 503.722 518.078 503.029 517.828C502.342 517.578 501.717 517.161 501.154 516.578C500.592 515.995 500.141 515.211 499.803 514.227C499.469 513.242 499.303 512.013 499.303 510.539C499.303 509.143 499.441 507.904 499.717 506.82C499.998 505.737 500.402 504.823 500.928 504.078C501.454 503.328 502.089 502.758 502.834 502.367C503.579 501.977 504.415 501.781 505.342 501.781C506.295 501.781 507.141 501.969 507.881 502.344C508.62 502.719 509.219 503.237 509.678 503.898C510.141 504.56 510.436 505.312 510.561 506.156H508.178C508.016 505.49 507.696 504.945 507.217 504.523C506.738 504.102 506.113 503.891 505.342 503.891C504.17 503.891 503.256 504.401 502.6 505.422C501.949 506.443 501.62 507.862 501.615 509.68H501.732C502.008 509.227 502.347 508.841 502.748 508.523C503.154 508.201 503.607 507.953 504.107 507.781C504.613 507.604 505.144 507.516 505.701 507.516C506.628 507.516 507.467 507.742 508.217 508.195C508.972 508.643 509.574 509.263 510.021 510.055C510.469 510.846 510.693 511.753 510.693 512.773C510.693 513.794 510.462 514.719 509.998 515.547C509.54 516.375 508.894 517.031 508.061 517.516C507.227 517.995 506.253 518.229 505.139 518.219ZM505.131 516.187C505.745 516.187 506.295 516.036 506.779 515.734C507.264 515.432 507.646 515.026 507.928 514.516C508.209 514.005 508.35 513.435 508.35 512.805C508.35 512.19 508.212 511.63 507.936 511.125C507.665 510.62 507.29 510.219 506.811 509.922C506.337 509.625 505.795 509.477 505.186 509.477C504.722 509.477 504.292 509.565 503.896 509.742C503.506 509.919 503.162 510.164 502.865 510.477C502.568 510.789 502.334 511.148 502.162 511.555C501.995 511.956 501.912 512.38 501.912 512.828C501.912 513.427 502.05 513.982 502.326 514.492C502.607 515.003 502.99 515.414 503.475 515.727C503.964 516.034 504.516 516.187 505.131 516.187Z" fill="#CFCFCF"/>
<rect x="40" y="750" width="491" height="295" rx="20" fill="#F7F7F7"/>
<path opacity="0.6" d="M56.2912 782V768.909H61.3026C62.2486 768.909 63.0348 769.058 63.6612 769.357C64.2919 769.651 64.7628 770.053 65.0739 770.565C65.3892 771.076 65.5469 771.656 65.5469 772.303C65.5469 772.836 65.4446 773.292 65.2401 773.671C65.0355 774.046 64.7607 774.351 64.4155 774.585C64.0703 774.82 63.6847 774.988 63.2585 775.09V775.218C63.723 775.244 64.1683 775.386 64.5945 775.646C65.0249 775.902 65.3764 776.264 65.6491 776.733C65.9219 777.202 66.0582 777.768 66.0582 778.433C66.0582 779.111 65.8942 779.72 65.5661 780.261C65.2379 780.798 64.7436 781.222 64.0831 781.533C63.4226 781.844 62.5916 782 61.5902 782H56.2912ZM58.6626 780.018H61.2131C62.0739 780.018 62.6939 779.854 63.0732 779.526C63.4567 779.194 63.6484 778.768 63.6484 778.248C63.6484 777.86 63.5526 777.511 63.3608 777.2C63.169 776.884 62.8963 776.637 62.5426 776.458C62.1889 776.275 61.767 776.183 61.277 776.183H58.6626V780.018ZM58.6626 774.477H61.0085C61.4176 774.477 61.7862 774.402 62.1143 774.253C62.4425 774.099 62.7003 773.884 62.8878 773.607C63.0795 773.326 63.1754 772.994 63.1754 772.61C63.1754 772.103 62.9964 771.685 62.6385 771.357C62.2848 771.029 61.7585 770.865 61.0597 770.865H58.6626V774.477ZM81.6187 775.455C81.6187 776.865 81.3545 778.073 80.8261 779.079C80.302 780.08 79.586 780.847 78.6784 781.38C77.775 781.913 76.7501 782.179 75.6038 782.179C74.4575 782.179 73.4305 781.913 72.5228 781.38C71.6194 780.843 70.9035 780.074 70.3751 779.072C69.851 778.067 69.5889 776.861 69.5889 775.455C69.5889 774.044 69.851 772.838 70.3751 771.837C70.9035 770.831 71.6194 770.062 72.5228 769.529C73.4305 768.996 74.4575 768.73 75.6038 768.73C76.7501 768.73 77.775 768.996 78.6784 769.529C79.586 770.062 80.302 770.831 80.8261 771.837C81.3545 772.838 81.6187 774.044 81.6187 775.455ZM79.2345 775.455C79.2345 774.462 79.0789 773.624 78.7679 772.942C78.461 772.256 78.0349 771.739 77.4895 771.389C76.944 771.036 76.3154 770.859 75.6038 770.859C74.8922 770.859 74.2636 771.036 73.7181 771.389C73.1727 771.739 72.7444 772.256 72.4333 772.942C72.1265 773.624 71.9731 774.462 71.9731 775.455C71.9731 776.447 72.1265 777.287 72.4333 777.973C72.7444 778.655 73.1727 779.173 73.7181 779.526C74.2636 779.876 74.8922 780.05 75.6038 780.05C76.3154 780.05 76.944 779.876 77.4895 779.526C78.0349 779.173 78.461 778.655 78.7679 777.973C79.0789 777.287 79.2345 776.447 79.2345 775.455ZM85.6607 782V768.909H94.1749V770.897H88.0322V774.451H93.7339V776.439H88.0322V780.012H94.2261V782H85.6607ZM98.3943 782V768.909H100.766V774.451H106.832V768.909H109.21V782H106.832V776.439H100.766V782H98.3943ZM113.589 782V768.909H115.96V774.451H122.026V768.909H124.404V782H122.026V776.439H115.96V782H113.589ZM130.464 782H127.933L132.542 768.909H135.469L140.085 782H137.553L134.057 771.594H133.955L130.464 782ZM130.548 776.867H137.451V778.772H130.548V776.867ZM153.274 782H150.896V770.891H148.722C148.134 770.891 147.651 770.978 147.271 771.153C146.896 771.323 146.617 771.575 146.434 771.907C146.255 772.235 146.166 772.631 146.166 773.096C146.166 773.56 146.255 773.952 146.434 774.272C146.613 774.587 146.89 774.828 147.265 774.994C147.644 775.156 148.126 775.237 148.71 775.237H151.893V777.206H148.39C147.384 777.206 146.536 777.04 145.846 776.707C145.156 776.371 144.632 775.896 144.274 775.282C143.92 774.664 143.743 773.935 143.743 773.096C143.743 772.261 143.918 771.53 144.267 770.903C144.621 770.273 145.141 769.783 145.827 769.433C146.513 769.084 147.357 768.909 148.358 768.909H153.274V782ZM146.504 776.068H149.093L145.91 782H143.264L146.504 776.068Z" fill="black"/>
<path opacity="0.4" d="M511.016 998.5H55.0245V881.5H280.016L511.016 869V998.5Z" fill="url(#paint2_linear_3239_2696)"/>
<rect x="506.188" y="862" width="10.2717" height="10.2717" rx="5.13587" fill="#04B34A"/>
<path d="M55 881H280.5L511.5 868.5" stroke="#04B34A" stroke-width="4"/>
<path d="M377.074 1018.56V994.197L367.989 1003.32L364 999.362L379.955 983.441L395.875 999.362L391.955 1003.32L382.835 994.197V1018.56H377.074Z" fill="#04B34A"/>
<path d="M422.322 1018.77C419.39 1018.76 416.867 1018.03 414.754 1016.6C412.651 1015.17 411.032 1013.1 409.896 1010.38C408.771 1007.66 408.214 1004.4 408.225 1000.58C408.225 996.773 408.788 993.528 409.913 990.847C411.049 988.165 412.668 986.125 414.771 984.727C416.884 983.318 419.401 982.614 422.322 982.614C425.242 982.614 427.754 983.318 429.856 984.727C431.969 986.136 433.594 988.182 434.731 990.864C435.867 993.534 436.43 996.773 436.418 1000.58C436.418 1004.41 435.85 1007.68 434.714 1010.4C433.589 1013.11 431.975 1015.19 429.873 1016.62C427.771 1018.05 425.254 1018.77 422.322 1018.77ZM422.322 1012.65C424.322 1012.65 425.918 1011.64 427.112 1009.63C428.305 1007.62 428.896 1004.6 428.884 1000.58C428.884 997.932 428.612 995.727 428.066 993.966C427.532 992.205 426.771 990.881 425.782 989.994C424.805 989.108 423.651 988.665 422.322 988.665C420.333 988.665 418.742 989.659 417.549 991.648C416.356 993.636 415.754 996.614 415.742 1000.58C415.742 1003.26 416.009 1005.5 416.543 1007.3C417.089 1009.08 417.856 1010.42 418.844 1011.32C419.833 1012.2 420.992 1012.65 422.322 1012.65ZM447.743 1013.23L447.555 1015.1C447.408 1016.6 447.124 1018.1 446.703 1019.59C446.294 1021.09 445.862 1022.44 445.408 1023.66C444.964 1024.88 444.607 1025.83 444.334 1026.52H439.629C439.8 1025.85 440.033 1024.91 440.328 1023.71C440.624 1022.52 440.902 1021.18 441.163 1019.69C441.425 1018.2 441.589 1016.68 441.658 1015.14L441.743 1013.23H447.743ZM464.65 983.091V1018H457.269V990.097H457.065L449.07 995.108V988.562L457.712 983.091H464.65ZM491.562 1011.45V1009.61C491.562 1008.22 491.858 1006.93 492.449 1005.76C493.051 1004.58 493.92 1003.64 495.057 1002.93C496.205 1002.22 497.602 1001.86 499.25 1001.86C500.92 1001.86 502.324 1002.21 503.46 1002.91C504.608 1003.62 505.472 1004.56 506.051 1005.74C506.642 1006.91 506.938 1008.2 506.938 1009.61V1011.45C506.938 1012.85 506.642 1014.14 506.051 1015.32C505.46 1016.49 504.591 1017.43 503.443 1018.14C502.295 1018.85 500.898 1019.21 499.25 1019.21C497.58 1019.21 496.176 1018.85 495.04 1018.14C493.903 1017.43 493.04 1016.49 492.449 1015.32C491.858 1014.14 491.562 1012.85 491.562 1011.45ZM496.523 1009.61V1011.45C496.523 1012.26 496.716 1013.02 497.102 1013.74C497.5 1014.45 498.216 1014.81 499.25 1014.81C500.284 1014.81 500.989 1014.46 501.364 1013.76C501.75 1013.05 501.943 1012.28 501.943 1011.45V1009.61C501.943 1008.78 501.761 1008.01 501.398 1007.3C501.034 1006.58 500.318 1006.22 499.25 1006.22C498.227 1006.22 497.517 1006.58 497.119 1007.3C496.722 1008.01 496.523 1008.78 496.523 1009.61ZM473.648 991.477V989.636C473.648 988.227 473.949 986.937 474.551 985.767C475.153 984.585 476.023 983.642 477.159 982.938C478.307 982.233 479.693 981.881 481.318 981.881C483 981.881 484.409 982.233 485.545 982.938C486.682 983.642 487.545 984.585 488.136 985.767C488.727 986.937 489.023 988.227 489.023 989.636V991.477C489.023 992.886 488.722 994.176 488.119 995.347C487.528 996.517 486.659 997.455 485.511 998.159C484.375 998.852 482.977 999.199 481.318 999.199C479.659 999.199 478.256 998.847 477.108 998.142C475.972 997.426 475.108 996.489 474.517 995.33C473.938 994.159 473.648 992.875 473.648 991.477ZM478.642 989.636V991.477C478.642 992.307 478.835 993.074 479.222 993.778C479.619 994.483 480.318 994.835 481.318 994.835C482.364 994.835 483.074 994.483 483.449 993.778C483.835 993.074 484.028 992.307 484.028 991.477V989.636C484.028 988.807 483.847 988.034 483.483 987.318C483.119 986.602 482.398 986.244 481.318 986.244C480.307 986.244 479.608 986.608 479.222 987.335C478.835 988.062 478.642 988.83 478.642 989.636ZM475.898 1018L499.898 983.091H504.364L480.364 1018H475.898Z" fill="black"/>
<path d="M62.1094 863.266C60.875 863.26 59.8203 862.935 58.9453 862.289C58.0703 861.643 57.401 860.703 56.9375 859.469C56.474 858.234 56.2422 856.747 56.2422 855.008C56.2422 853.273 56.474 851.792 56.9375 850.562C57.4063 849.333 58.0781 848.396 58.9531 847.75C59.8333 847.104 60.8854 846.781 62.1094 846.781C63.3333 846.781 64.3828 847.107 65.2578 847.758C66.1328 848.404 66.8021 849.341 67.2656 850.57C67.7344 851.794 67.9687 853.273 67.9687 855.008C67.9687 856.753 67.737 858.242 67.2734 859.477C66.8099 860.706 66.1406 861.646 65.2656 862.297C64.3906 862.943 63.3385 863.266 62.1094 863.266ZM62.1094 861.18C63.1927 861.18 64.0391 860.651 64.6484 859.594C65.263 858.536 65.5703 857.008 65.5703 855.008C65.5703 853.68 65.4297 852.557 65.1484 851.641C64.8724 850.719 64.474 850.021 63.9531 849.547C63.4375 849.068 62.8229 848.828 62.1094 848.828C61.0313 848.828 60.1849 849.359 59.5703 850.422C58.9557 851.484 58.6458 853.013 58.6406 855.008C58.6406 856.341 58.7786 857.469 59.0547 858.391C59.3359 859.307 59.7344 860.003 60.25 860.477C60.7656 860.945 61.3854 861.18 62.1094 861.18ZM73.0079 860.812L72.8907 861.664C72.8126 862.289 72.6798 862.94 72.4923 863.617C72.31 864.299 72.1199 864.932 71.922 865.516C71.7293 866.099 71.5704 866.563 71.4454 866.906H69.7892C69.8569 866.583 69.9506 866.146 70.0704 865.594C70.1902 865.047 70.3074 864.435 70.422 863.758C70.5366 863.081 70.6225 862.391 70.6798 861.687L70.7579 860.812H73.0079ZM76.1838 863L83.1682 849.187V849.07H75.09V847H85.6682V849.141L78.7072 863H76.1838Z" fill="#CFCFCF"/>
<path d="M486.232 852.266C484.998 852.26 483.943 851.935 483.068 851.289C482.193 850.643 481.524 849.703 481.06 848.469C480.597 847.234 480.365 845.747 480.365 844.008C480.365 842.273 480.597 840.792 481.06 839.562C481.529 838.333 482.201 837.396 483.076 836.75C483.956 836.104 485.008 835.781 486.232 835.781C487.456 835.781 488.506 836.107 489.381 836.758C490.256 837.404 490.925 838.341 491.388 839.57C491.857 840.794 492.092 842.273 492.092 844.008C492.092 845.753 491.86 847.242 491.396 848.477C490.933 849.706 490.263 850.646 489.388 851.297C488.513 851.943 487.461 852.266 486.232 852.266ZM486.232 850.18C487.316 850.18 488.162 849.651 488.771 848.594C489.386 847.536 489.693 846.008 489.693 844.008C489.693 842.68 489.553 841.557 489.271 840.641C488.995 839.719 488.597 839.021 488.076 838.547C487.56 838.068 486.946 837.828 486.232 837.828C485.154 837.828 484.308 838.359 483.693 839.422C483.079 840.484 482.769 842.013 482.763 844.008C482.763 845.341 482.901 846.469 483.178 847.391C483.459 848.307 483.857 849.003 484.373 849.477C484.888 849.945 485.508 850.18 486.232 850.18ZM497.131 849.812L497.014 850.664C496.935 851.289 496.803 851.94 496.615 852.617C496.433 853.299 496.243 853.932 496.045 854.516C495.852 855.099 495.693 855.563 495.568 855.906H493.912C493.98 855.583 494.073 855.146 494.193 854.594C494.313 854.047 494.43 853.435 494.545 852.758C494.659 852.081 494.745 851.391 494.803 850.687L494.881 849.812H497.131ZM505.045 852.219C503.925 852.219 502.936 852.026 502.076 851.641C501.222 851.255 500.553 850.724 500.068 850.047C499.584 849.37 499.344 848.599 499.35 847.734C499.344 847.057 499.482 846.435 499.764 845.867C500.05 845.294 500.438 844.818 500.928 844.438C501.417 844.052 501.964 843.807 502.568 843.703V843.609C501.771 843.417 501.133 842.99 500.654 842.328C500.175 841.667 499.938 840.906 499.943 840.047C499.938 839.229 500.154 838.5 500.592 837.859C501.035 837.214 501.641 836.706 502.412 836.336C503.183 835.966 504.061 835.781 505.045 835.781C506.019 835.781 506.889 835.969 507.654 836.344C508.425 836.714 509.032 837.221 509.475 837.867C509.917 838.508 510.141 839.234 510.146 840.047C510.141 840.906 509.896 841.667 509.412 842.328C508.928 842.99 508.298 843.417 507.521 843.609V843.703C508.12 843.807 508.66 844.052 509.139 844.438C509.623 844.818 510.008 845.294 510.295 845.867C510.587 846.435 510.735 847.057 510.74 847.734C510.735 848.599 510.49 849.37 510.006 850.047C509.521 850.724 508.85 851.255 507.99 851.641C507.136 852.026 506.154 852.219 505.045 852.219ZM505.045 850.242C505.706 850.242 506.279 850.133 506.764 849.914C507.248 849.69 507.623 849.38 507.889 848.984C508.154 848.583 508.29 848.115 508.295 847.578C508.29 847.021 508.144 846.529 507.857 846.102C507.576 845.674 507.193 845.339 506.709 845.094C506.225 844.849 505.67 844.727 505.045 844.727C504.415 844.727 503.855 844.849 503.365 845.094C502.876 845.339 502.49 845.674 502.209 846.102C501.928 846.529 501.79 847.021 501.795 847.578C501.79 848.115 501.917 848.583 502.178 848.984C502.443 849.38 502.821 849.69 503.311 849.914C503.8 850.133 504.378 850.242 505.045 850.242ZM505.045 842.797C505.576 842.797 506.048 842.69 506.459 842.477C506.87 842.263 507.193 841.966 507.428 841.586C507.667 841.206 507.79 840.76 507.795 840.25C507.79 839.75 507.67 839.313 507.436 838.938C507.206 838.562 506.886 838.273 506.475 838.07C506.063 837.862 505.587 837.758 505.045 837.758C504.493 837.758 504.008 837.862 503.592 838.07C503.18 838.273 502.86 838.562 502.631 838.938C502.402 839.313 502.29 839.75 502.295 840.25C502.29 840.76 502.404 841.206 502.639 841.586C502.873 841.966 503.196 842.263 503.607 842.477C504.024 842.69 504.503 842.797 505.045 842.797Z" fill="#CFCFCF"/>
<rect x="549" y="437" width="491" height="295" rx="20" fill="#F7F7F7"/>
<path opacity="0.6" d="M567.663 458.909V472H565.291V458.909H567.663ZM571.455 460.897V458.909H581.9V460.897H577.854V472H575.502V460.897H571.455ZM590.754 464.502V466.407H584.86V464.502H590.754ZM595.09 458.909H597.442V467.832H597.563L603.719 458.909H605.847V472H603.476V463.083H603.367L597.193 472H595.09V458.909ZM620.913 458.909V472H618.56V460.878H612.833V472H610.481V458.909H620.913ZM637.246 465.455C637.246 466.865 636.982 468.073 636.454 469.079C635.93 470.08 635.214 470.847 634.306 471.38C633.403 471.913 632.378 472.179 631.232 472.179C630.085 472.179 629.058 471.913 628.151 471.38C627.247 470.843 626.531 470.074 626.003 469.072C625.479 468.067 625.217 466.861 625.217 465.455C625.217 464.044 625.479 462.838 626.003 461.837C626.531 460.831 627.247 460.062 628.151 459.529C629.058 458.996 630.085 458.73 631.232 458.73C632.378 458.73 633.403 458.996 634.306 459.529C635.214 460.062 635.93 460.831 636.454 461.837C636.982 462.838 637.246 464.044 637.246 465.455ZM634.862 465.455C634.862 464.462 634.707 463.624 634.396 462.942C634.089 462.256 633.663 461.739 633.117 461.389C632.572 461.036 631.943 460.859 631.232 460.859C630.52 460.859 629.891 461.036 629.346 461.389C628.8 461.739 628.372 462.256 628.061 462.942C627.754 463.624 627.601 464.462 627.601 465.455C627.601 466.447 627.754 467.287 628.061 467.973C628.372 468.655 628.8 469.173 629.346 469.526C629.891 469.876 630.52 470.05 631.232 470.05C631.943 470.05 632.572 469.876 633.117 469.526C633.663 469.173 634.089 468.655 634.396 467.973C634.707 467.287 634.862 466.447 634.862 465.455ZM640.133 460.897V458.909H650.578V460.897H646.532V472H644.179V460.897H640.133ZM654.391 472V458.909H662.905V460.897H656.763V464.451H662.464V466.439H656.763V470.012H662.957V472H654.391ZM674.968 472L670.66 466.279H669.496V472H667.125V458.909H669.496V464.291H670.091L674.744 458.909H677.665L672.494 464.879L677.889 472H674.968ZM682.981 472H680.45L685.058 458.909H687.986L692.601 472H690.07L686.573 461.594H686.471L682.981 472ZM683.064 466.867H689.967V468.772H683.064V466.867Z" fill="black"/>
<path opacity="0.4" d="M564 685.5H1019.99V579H795L564 556V685.5Z" fill="url(#paint3_linear_3239_2696)"/>
<rect x="1015.19" y="574" width="10.2717" height="10.2717" rx="5.13587" fill="#CACACA"/>
<path d="M1020 580H795L564 555.5" stroke="#CACACA" stroke-width="4"/>
<path d="M886.074 670.445V694.803L876.989 685.684L873 689.638L888.955 705.559L904.875 689.638L900.955 685.684L891.835 694.803V670.445H886.074Z" fill="#CACACA"/>
<path d="M931.322 705.767C928.39 705.756 925.867 705.034 923.754 703.602C921.651 702.17 920.032 700.097 918.896 697.381C917.771 694.665 917.214 691.398 917.225 687.58C917.225 683.773 917.788 680.528 918.913 677.847C920.049 675.165 921.668 673.125 923.771 671.727C925.884 670.318 928.401 669.614 931.322 669.614C934.242 669.614 936.754 670.318 938.856 671.727C940.969 673.136 942.594 675.182 943.731 677.864C944.867 680.534 945.43 683.773 945.418 687.58C945.418 691.409 944.85 694.682 943.714 697.398C942.589 700.114 940.975 702.187 938.873 703.619C936.771 705.051 934.254 705.767 931.322 705.767ZM931.322 699.648C933.322 699.648 934.918 698.642 936.112 696.631C937.305 694.619 937.896 691.602 937.884 687.58C937.884 684.932 937.612 682.727 937.066 680.966C936.532 679.205 935.771 677.881 934.782 676.994C933.805 676.108 932.651 675.665 931.322 675.665C929.333 675.665 927.742 676.659 926.549 678.648C925.356 680.636 924.754 683.614 924.742 687.58C924.742 690.261 925.009 692.5 925.543 694.295C926.089 696.08 926.856 697.42 927.844 698.318C928.833 699.205 929.992 699.648 931.322 699.648ZM956.743 700.227L956.555 702.102C956.408 703.602 956.124 705.097 955.703 706.585C955.294 708.085 954.862 709.443 954.408 710.659C953.964 711.875 953.607 712.83 953.334 713.523H948.629C948.8 712.852 949.033 711.915 949.328 710.71C949.624 709.517 949.902 708.176 950.163 706.688C950.425 705.199 950.589 703.682 950.658 702.136L950.743 700.227H956.743ZM973.65 670.091V705H966.269V677.097H966.065L958.07 682.108V675.562L966.712 670.091H973.65ZM1000.56 698.455V696.614C1000.56 695.216 1000.86 693.932 1001.45 692.761C1002.05 691.58 1002.92 690.636 1004.06 689.932C1005.2 689.216 1006.6 688.858 1008.25 688.858C1009.92 688.858 1011.32 689.21 1012.46 689.915C1013.61 690.619 1014.47 691.562 1015.05 692.744C1015.64 693.915 1015.94 695.205 1015.94 696.614V698.455C1015.94 699.852 1015.64 701.142 1015.05 702.324C1014.46 703.494 1013.59 704.432 1012.44 705.136C1011.3 705.852 1009.9 706.21 1008.25 706.21C1006.58 706.21 1005.18 705.852 1004.04 705.136C1002.9 704.432 1002.04 703.494 1001.45 702.324C1000.86 701.142 1000.56 699.852 1000.56 698.455ZM1005.52 696.614V698.455C1005.52 699.261 1005.72 700.023 1006.1 700.739C1006.5 701.455 1007.22 701.812 1008.25 701.812C1009.28 701.812 1009.99 701.46 1010.36 700.756C1010.75 700.051 1010.94 699.284 1010.94 698.455V696.614C1010.94 695.784 1010.76 695.011 1010.4 694.295C1010.03 693.58 1009.32 693.222 1008.25 693.222C1007.23 693.222 1006.52 693.58 1006.12 694.295C1005.72 695.011 1005.52 695.784 1005.52 696.614ZM982.648 678.477V676.636C982.648 675.227 982.949 673.937 983.551 672.767C984.153 671.585 985.023 670.642 986.159 669.938C987.307 669.233 988.693 668.881 990.318 668.881C992 668.881 993.409 669.233 994.545 669.938C995.682 670.642 996.545 671.585 997.136 672.767C997.727 673.937 998.023 675.227 998.023 676.636V678.477C998.023 679.886 997.722 681.176 997.119 682.347C996.528 683.517 995.659 684.455 994.511 685.159C993.375 685.852 991.977 686.199 990.318 686.199C988.659 686.199 987.256 685.847 986.108 685.142C984.972 684.426 984.108 683.489 983.517 682.33C982.938 681.159 982.648 679.875 982.648 678.477ZM987.642 676.636V678.477C987.642 679.307 987.835 680.074 988.222 680.778C988.619 681.483 989.318 681.835 990.318 681.835C991.364 681.835 992.074 681.483 992.449 680.778C992.835 680.074 993.028 679.307 993.028 678.477V676.636C993.028 675.807 992.847 675.034 992.483 674.318C992.119 673.602 991.398 673.244 990.318 673.244C989.307 673.244 988.608 673.608 988.222 674.335C987.835 675.062 987.642 675.83 987.642 676.636ZM984.898 705L1008.9 670.091H1013.36L989.364 705H984.898Z" fill="black"/>
<path d="M565.539 542V540.25L570.953 534.641C571.531 534.031 572.008 533.497 572.383 533.039C572.763 532.576 573.047 532.135 573.234 531.719C573.422 531.302 573.516 530.859 573.516 530.391C573.516 529.859 573.391 529.401 573.141 529.016C572.891 528.625 572.549 528.326 572.117 528.117C571.685 527.904 571.198 527.797 570.656 527.797C570.083 527.797 569.583 527.914 569.156 528.148C568.729 528.383 568.401 528.714 568.172 529.141C567.943 529.568 567.828 530.068 567.828 530.641H565.523C565.523 529.667 565.747 528.815 566.195 528.086C566.643 527.357 567.258 526.792 568.039 526.391C568.82 525.984 569.708 525.781 570.703 525.781C571.708 525.781 572.594 525.982 573.359 526.383C574.13 526.779 574.732 527.32 575.164 528.008C575.596 528.69 575.812 529.461 575.812 530.32C575.812 530.914 575.701 531.495 575.477 532.062C575.258 532.63 574.875 533.263 574.328 533.961C573.781 534.654 573.021 535.495 572.047 536.484L568.867 539.812V539.93H576.07V542H565.539Z" fill="#CFCFCF"/>
<path d="M999.449 548V564H997.027V550.422H996.933L993.105 552.922V550.609L997.097 548H999.449ZM1005.7 561.812L1005.58 562.664C1005.51 563.289 1005.37 563.94 1005.19 564.617C1005 565.299 1004.81 565.932 1004.62 566.516C1004.42 567.099 1004.26 567.563 1004.14 567.906H1002.48C1002.55 567.583 1002.64 567.146 1002.76 566.594C1002.88 566.047 1003 565.435 1003.12 564.758C1003.23 564.081 1003.32 563.391 1003.37 562.687L1003.45 561.812H1005.7ZM1013.87 547.781C1014.59 547.786 1015.29 547.917 1015.98 548.172C1016.68 548.427 1017.3 548.844 1017.86 549.422C1018.42 550 1018.87 550.781 1019.2 551.766C1019.54 552.745 1019.71 553.964 1019.72 555.422C1019.72 556.823 1019.58 558.07 1019.29 559.164C1019.01 560.253 1018.61 561.172 1018.08 561.922C1017.56 562.672 1016.93 563.242 1016.19 563.633C1015.44 564.023 1014.6 564.219 1013.67 564.219C1012.72 564.219 1011.87 564.031 1011.13 563.656C1010.39 563.281 1009.79 562.763 1009.33 562.102C1008.86 561.435 1008.57 560.669 1008.46 559.805H1010.84C1011 560.492 1011.32 561.049 1011.79 561.477C1012.28 561.898 1012.9 562.109 1013.67 562.109C1014.84 562.109 1015.76 561.599 1016.41 560.578C1017.07 559.552 1017.4 558.12 1017.4 556.281H1017.28C1017.01 556.729 1016.67 557.115 1016.26 557.437C1015.86 557.76 1015.41 558.01 1014.91 558.187C1014.41 558.365 1013.88 558.453 1013.31 558.453C1012.39 558.453 1011.55 558.227 1010.79 557.773C1010.04 557.32 1009.44 556.698 1008.99 555.906C1008.54 555.115 1008.32 554.211 1008.32 553.195C1008.32 552.185 1008.55 551.268 1009.01 550.445C1009.47 549.622 1010.12 548.971 1010.94 548.492C1011.78 548.008 1012.75 547.771 1013.87 547.781ZM1013.88 549.812C1013.27 549.812 1012.72 549.964 1012.23 550.266C1011.75 550.562 1011.37 550.966 1011.08 551.477C1010.8 551.982 1010.66 552.544 1010.66 553.164C1010.66 553.784 1010.8 554.346 1011.07 554.852C1011.34 555.352 1011.72 555.75 1012.19 556.047C1012.67 556.339 1013.22 556.484 1013.83 556.484C1014.29 556.484 1014.72 556.396 1015.12 556.219C1015.51 556.042 1015.86 555.797 1016.15 555.484C1016.45 555.167 1016.68 554.807 1016.85 554.406C1017.02 554.005 1017.1 553.583 1017.1 553.141C1017.1 552.552 1016.96 552.005 1016.68 551.5C1016.4 550.995 1016.02 550.589 1015.54 550.281C1015.05 549.969 1014.5 549.812 1013.88 549.812Z" fill="#CFCFCF"/>
<rect x="549" y="749" width="491" height="295" rx="20" fill="#F7F7F7"/>
<path opacity="0.6" d="M564.441 784.158V779.063H565.317C565.611 778.829 565.886 778.499 566.141 778.072C566.397 777.646 566.614 777.062 566.793 776.321C566.972 775.58 567.096 774.621 567.164 773.445L567.509 767.909H575.876V779.063H577.334V784.145H575.058V781H566.717V784.158H564.441ZM568.078 779.063H573.601V769.897H569.644L569.44 773.445C569.384 774.335 569.295 775.132 569.171 775.835C569.048 776.538 568.892 777.158 568.705 777.695C568.517 778.228 568.308 778.684 568.078 779.063ZM582.747 781H580.216L584.824 767.909H587.752L592.367 781H589.836L586.339 770.594H586.237L582.747 781ZM582.83 775.867H589.733V777.772H582.83V775.867ZM595.041 781V779.031L595.412 779.012C595.915 778.982 596.313 778.801 596.607 778.469C596.905 778.136 597.125 777.602 597.265 776.864C597.41 776.127 597.506 775.138 597.553 773.898L597.77 767.909H606.349V781H604.028V769.859H599.982L599.778 774.634C599.718 776.065 599.56 777.252 599.305 778.194C599.053 779.136 598.64 779.839 598.064 780.303C597.493 780.768 596.699 781 595.68 781H595.041ZM612.339 772.965H615.662C616.664 772.965 617.523 773.129 618.238 773.457C618.959 773.781 619.51 774.239 619.894 774.832C620.277 775.424 620.469 776.121 620.469 776.922C620.469 777.727 620.277 778.437 619.894 779.05C619.51 779.66 618.959 780.137 618.238 780.482C617.523 780.827 616.664 781 615.662 781H610.76V767.909H613.138V779.057H615.662C616.191 779.057 616.638 778.957 617.005 778.756C617.371 778.556 617.648 778.292 617.836 777.964C618.027 777.636 618.123 777.28 618.123 776.896C618.123 776.342 617.91 775.871 617.484 775.484C617.062 775.092 616.455 774.896 615.662 774.896H612.339V772.965ZM624.575 781V767.909H626.947V773.451H633.013V767.909H635.391V781H633.013V775.439H626.947V781H624.575ZM639.77 781V767.909H648.284V769.897H642.141V773.451H647.843V775.439H642.141V779.012H648.335V781H639.77ZM652.503 781V767.909H657.515C658.461 767.909 659.247 768.058 659.873 768.357C660.504 768.651 660.975 769.053 661.286 769.565C661.601 770.076 661.759 770.656 661.759 771.303C661.759 771.836 661.657 772.292 661.452 772.671C661.248 773.046 660.973 773.351 660.628 773.585C660.282 773.82 659.897 773.988 659.471 774.09V774.218C659.935 774.244 660.38 774.386 660.807 774.646C661.237 774.902 661.589 775.264 661.861 775.733C662.134 776.202 662.27 776.768 662.27 777.433C662.27 778.111 662.106 778.72 661.778 779.261C661.45 779.798 660.956 780.222 660.295 780.533C659.635 780.844 658.804 781 657.802 781H652.503ZM654.875 779.018H657.425C658.286 779.018 658.906 778.854 659.285 778.526C659.669 778.194 659.861 777.768 659.861 777.248C659.861 776.86 659.765 776.511 659.573 776.2C659.381 775.884 659.108 775.637 658.755 775.458C658.401 775.275 657.979 775.183 657.489 775.183H654.875V779.018ZM654.875 773.477H657.221C657.63 773.477 657.998 773.402 658.326 773.253C658.655 773.099 658.912 772.884 659.1 772.607C659.292 772.326 659.388 771.994 659.388 771.61C659.388 771.103 659.209 770.685 658.851 770.357C658.497 770.029 657.971 769.865 657.272 769.865H654.875V773.477ZM677.831 774.455C677.831 775.865 677.567 777.073 677.038 778.079C676.514 779.08 675.798 779.847 674.89 780.38C673.987 780.913 672.962 781.179 671.816 781.179C670.67 781.179 669.643 780.913 668.735 780.38C667.832 779.843 667.116 779.074 666.587 778.072C666.063 777.067 665.801 775.861 665.801 774.455C665.801 773.044 666.063 771.838 666.587 770.837C667.116 769.831 667.832 769.062 668.735 768.529C669.643 767.996 670.67 767.73 671.816 767.73C672.962 767.73 673.987 767.996 674.89 768.529C675.798 769.062 676.514 769.831 677.038 770.837C677.567 771.838 677.831 773.044 677.831 774.455ZM675.447 774.455C675.447 773.462 675.291 772.624 674.98 771.942C674.673 771.256 674.247 770.739 673.702 770.389C673.156 770.036 672.528 769.859 671.816 769.859C671.104 769.859 670.476 770.036 669.93 770.389C669.385 770.739 668.957 771.256 668.645 771.942C668.339 772.624 668.185 773.462 668.185 774.455C668.185 775.447 668.339 776.287 668.645 776.973C668.957 777.655 669.385 778.173 669.93 778.526C670.476 778.876 671.104 779.05 671.816 779.05C672.528 779.05 673.156 778.876 673.702 778.526C674.247 778.173 674.673 777.655 674.98 776.973C675.291 776.287 675.447 775.447 675.447 774.455ZM693.078 772.326H690.687C690.619 771.934 690.494 771.587 690.31 771.284C690.127 770.977 689.899 770.717 689.626 770.504C689.354 770.291 689.043 770.131 688.693 770.025C688.348 769.914 687.975 769.859 687.575 769.859C686.863 769.859 686.232 770.038 685.682 770.396C685.133 770.749 684.702 771.269 684.391 771.955C684.08 772.637 683.925 773.47 683.925 774.455C683.925 775.456 684.08 776.3 684.391 776.986C684.707 777.668 685.137 778.183 685.682 778.533C686.232 778.878 686.861 779.05 687.568 779.05C687.96 779.05 688.327 778.999 688.668 778.897C689.013 778.79 689.322 778.635 689.594 778.43C689.871 778.226 690.104 777.974 690.291 777.676C690.483 777.378 690.615 777.037 690.687 776.653L693.078 776.666C692.989 777.288 692.795 777.872 692.496 778.418C692.202 778.963 691.817 779.445 691.339 779.862C690.862 780.276 690.304 780.599 689.665 780.834C689.026 781.064 688.316 781.179 687.536 781.179C686.386 781.179 685.359 780.913 684.455 780.38C683.552 779.847 682.84 779.078 682.32 778.072C681.8 777.067 681.54 775.861 681.54 774.455C681.54 773.044 681.803 771.838 682.327 770.837C682.851 769.831 683.565 769.062 684.468 768.529C685.371 767.996 686.394 767.73 687.536 767.73C688.265 767.73 688.942 767.832 689.569 768.037C690.195 768.241 690.754 768.542 691.244 768.938C691.734 769.33 692.136 769.812 692.452 770.383C692.771 770.95 692.98 771.597 693.078 772.326ZM696.474 769.897V767.909H706.919V769.897H702.873V781H700.521V769.897H696.474ZM721.85 774.455C721.85 775.865 721.586 777.073 721.057 778.079C720.533 779.08 719.817 779.847 718.91 780.38C718.006 780.913 716.981 781.179 715.835 781.179C714.689 781.179 713.662 780.913 712.754 780.38C711.851 779.843 711.135 779.074 710.606 778.072C710.082 777.067 709.82 775.861 709.82 774.455C709.82 773.044 710.082 771.838 710.606 770.837C711.135 769.831 711.851 769.062 712.754 768.529C713.662 767.996 714.689 767.73 715.835 767.73C716.981 767.73 718.006 767.996 718.91 768.529C719.817 769.062 720.533 769.831 721.057 770.837C721.586 771.838 721.85 773.044 721.85 774.455ZM719.466 774.455C719.466 773.462 719.31 772.624 718.999 771.942C718.692 771.256 718.266 770.739 717.721 770.389C717.175 770.036 716.547 769.859 715.835 769.859C715.123 769.859 714.495 770.036 713.949 770.389C713.404 770.739 712.976 771.256 712.665 771.942C712.358 772.624 712.204 773.462 712.204 774.455C712.204 775.447 712.358 776.287 712.665 776.973C712.976 777.655 713.404 778.173 713.949 778.526C714.495 778.876 715.123 779.05 715.835 779.05C716.547 779.05 717.175 778.876 717.721 778.526C718.266 778.173 718.692 777.655 718.999 776.973C719.31 776.287 719.466 775.447 719.466 774.455ZM726.282 767.909H728.602V772.179C728.602 772.733 728.698 773.172 728.89 773.496C729.086 773.82 729.376 774.052 729.759 774.192C730.143 774.333 730.62 774.403 731.191 774.403C731.447 774.403 731.722 774.395 732.016 774.378C732.314 774.357 732.614 774.329 732.917 774.295C733.219 774.256 733.509 774.212 733.786 774.161C734.063 774.105 734.31 774.045 734.528 773.982V775.912C734.31 775.98 734.067 776.042 733.799 776.097C733.53 776.153 733.247 776.2 732.949 776.238C732.651 776.276 732.352 776.306 732.054 776.327C731.756 776.349 731.468 776.359 731.191 776.359C730.19 776.359 729.32 776.217 728.583 775.931C727.85 775.641 727.283 775.19 726.883 774.576C726.482 773.962 726.282 773.163 726.282 772.179V767.909ZM734.138 767.909H736.471V781H734.138V767.909ZM741.157 781V767.909H743.528V773.451H749.594V767.909H751.972V781H749.594V775.439H743.528V781H741.157ZM758.032 781H755.501L760.11 767.909H763.037L767.652 781H765.121L761.625 770.594H761.523L758.032 781ZM758.116 775.867H765.019V777.772H758.116V775.867ZM780.842 781H778.464V769.891H776.29C775.702 769.891 775.219 769.978 774.839 770.153C774.464 770.323 774.185 770.575 774.002 770.907C773.823 771.235 773.734 771.631 773.734 772.096C773.734 772.56 773.823 772.952 774.002 773.272C774.181 773.587 774.458 773.828 774.833 773.994C775.212 774.156 775.694 774.237 776.278 774.237H779.461V776.206H775.958C774.952 776.206 774.104 776.04 773.414 775.707C772.724 775.371 772.199 774.896 771.842 774.282C771.488 773.664 771.311 772.935 771.311 772.096C771.311 771.261 771.486 770.53 771.835 769.903C772.189 769.273 772.709 768.783 773.395 768.433C774.081 768.084 774.925 767.909 775.926 767.909H780.842V781ZM774.072 775.068H776.661L773.478 781H770.832L774.072 775.068Z" fill="black"/>
<path opacity="0.4" d="M564.034 997.5H1020.03V882.5L721.025 873C721.025 873 566.665 848.835 564.034 848.021V848C563.989 848 563.989 848.007 564.034 848.021V997.5Z" fill="url(#paint4_linear_3239_2696)"/>
<rect x="1015.19" y="878" width="10.2717" height="10.2717" rx="5.13587" fill="#CACACA"/>
<path d="M563.5 849L717 873L1019 883" stroke="#CACACA" stroke-width="4"/>
<path d="M875.074 982.445V1006.8L865.989 997.684L862 1001.64L877.955 1017.56L893.875 1001.64L889.955 997.684L880.835 1006.8V982.445H875.074Z" fill="#CACACA"/>
<path d="M919.931 1017.77C916.999 1017.76 914.477 1017.03 912.363 1015.6C910.261 1014.17 908.641 1012.1 907.505 1009.38C906.38 1006.66 905.823 1003.4 905.835 999.58C905.835 995.773 906.397 992.528 907.522 989.847C908.658 987.165 910.278 985.125 912.38 983.727C914.494 982.318 917.011 981.614 919.931 981.614C922.852 981.614 925.363 982.318 927.465 983.727C929.579 985.136 931.204 987.182 932.34 989.864C933.477 992.534 934.039 995.773 934.028 999.58C934.028 1003.41 933.46 1006.68 932.323 1009.4C931.198 1012.11 929.585 1014.19 927.482 1015.62C925.38 1017.05 922.863 1017.77 919.931 1017.77ZM919.931 1011.65C921.931 1011.65 923.528 1010.64 924.721 1008.63C925.914 1006.62 926.505 1003.6 926.494 999.58C926.494 996.932 926.221 994.727 925.675 992.966C925.141 991.205 924.38 989.881 923.391 988.994C922.414 988.108 921.261 987.665 919.931 987.665C917.942 987.665 916.352 988.659 915.158 990.648C913.965 992.636 913.363 995.614 913.352 999.58C913.352 1002.26 913.619 1004.5 914.153 1006.3C914.698 1008.08 915.465 1009.42 916.454 1010.32C917.442 1011.2 918.602 1011.65 919.931 1011.65ZM945.352 1012.23L945.165 1014.1C945.017 1015.6 944.733 1017.1 944.312 1018.59C943.903 1020.09 943.472 1021.44 943.017 1022.66C942.574 1023.88 942.216 1024.83 941.943 1025.52H937.239C937.409 1024.85 937.642 1023.91 937.938 1022.71C938.233 1021.52 938.511 1020.18 938.773 1018.69C939.034 1017.2 939.199 1015.68 939.267 1014.14L939.352 1012.23H945.352ZM963.21 1017.48C960.664 1017.48 958.397 1017.04 956.408 1016.16C954.431 1015.28 952.869 1014.06 951.721 1012.52C950.585 1010.96 949.999 1009.16 949.965 1007.13H957.397C957.442 1007.98 957.721 1008.73 958.232 1009.38C958.755 1010.02 959.448 1010.51 960.312 1010.86C961.175 1011.22 962.147 1011.39 963.227 1011.39C964.352 1011.39 965.346 1011.19 966.21 1010.8C967.073 1010.4 967.749 1009.85 968.238 1009.14C968.727 1008.44 968.971 1007.62 968.971 1006.7C968.971 1005.77 968.71 1004.95 968.187 1004.23C967.675 1003.51 966.937 1002.94 965.971 1002.53C965.016 1002.12 963.88 1001.91 962.562 1001.91H959.306V996.494H962.562C963.675 996.494 964.658 996.301 965.511 995.915C966.374 995.528 967.045 994.994 967.522 994.312C967.999 993.619 968.238 992.812 968.238 991.892C968.238 991.017 968.028 990.25 967.607 989.591C967.198 988.92 966.619 988.398 965.869 988.023C965.13 987.648 964.266 987.46 963.278 987.46C962.278 987.46 961.363 987.642 960.533 988.006C959.704 988.358 959.039 988.864 958.539 989.523C958.039 990.182 957.772 990.955 957.738 991.841H950.664C950.698 989.83 951.272 988.057 952.386 986.523C953.499 984.989 954.999 983.79 956.886 982.926C958.783 982.051 960.925 981.614 963.312 981.614C965.721 981.614 967.829 982.051 969.636 982.926C971.442 983.801 972.846 984.983 973.846 986.472C974.857 987.949 975.357 989.608 975.346 991.449C975.357 993.403 974.749 995.034 973.522 996.341C972.306 997.648 970.721 998.477 968.766 998.83V999.102C971.335 999.432 973.289 1000.32 974.63 1001.78C975.982 1003.22 976.653 1005.03 976.641 1007.2C976.653 1009.19 976.079 1010.95 974.92 1012.5C973.772 1014.05 972.187 1015.26 970.164 1016.15C968.141 1017.03 965.823 1017.48 963.21 1017.48ZM1000.56 1010.45V1008.61C1000.56 1007.22 1000.86 1005.93 1001.45 1004.76C1002.05 1003.58 1002.92 1002.64 1004.06 1001.93C1005.2 1001.22 1006.6 1000.86 1008.25 1000.86C1009.92 1000.86 1011.32 1001.21 1012.46 1001.91C1013.61 1002.62 1014.47 1003.56 1015.05 1004.74C1015.64 1005.91 1015.94 1007.2 1015.94 1008.61V1010.45C1015.94 1011.85 1015.64 1013.14 1015.05 1014.32C1014.46 1015.49 1013.59 1016.43 1012.44 1017.14C1011.3 1017.85 1009.9 1018.21 1008.25 1018.21C1006.58 1018.21 1005.18 1017.85 1004.04 1017.14C1002.9 1016.43 1002.04 1015.49 1001.45 1014.32C1000.86 1013.14 1000.56 1011.85 1000.56 1010.45ZM1005.52 1008.61V1010.45C1005.52 1011.26 1005.72 1012.02 1006.1 1012.74C1006.5 1013.45 1007.22 1013.81 1008.25 1013.81C1009.28 1013.81 1009.99 1013.46 1010.36 1012.76C1010.75 1012.05 1010.94 1011.28 1010.94 1010.45V1008.61C1010.94 1007.78 1010.76 1007.01 1010.4 1006.3C1010.03 1005.58 1009.32 1005.22 1008.25 1005.22C1007.23 1005.22 1006.52 1005.58 1006.12 1006.3C1005.72 1007.01 1005.52 1007.78 1005.52 1008.61ZM982.648 990.477V988.636C982.648 987.227 982.949 985.937 983.551 984.767C984.153 983.585 985.023 982.642 986.159 981.938C987.307 981.233 988.693 980.881 990.318 980.881C992 980.881 993.409 981.233 994.545 981.938C995.682 982.642 996.545 983.585 997.136 984.767C997.727 985.937 998.023 987.227 998.023 988.636V990.477C998.023 991.886 997.722 993.176 997.119 994.347C996.528 995.517 995.659 996.455 994.511 997.159C993.375 997.852 991.977 998.199 990.318 998.199C988.659 998.199 987.256 997.847 986.108 997.142C984.972 996.426 984.108 995.489 983.517 994.33C982.938 993.159 982.648 991.875 982.648 990.477ZM987.642 988.636V990.477C987.642 991.307 987.835 992.074 988.222 992.778C988.619 993.483 989.318 993.835 990.318 993.835C991.364 993.835 992.074 993.483 992.449 992.778C992.835 992.074 993.028 991.307 993.028 990.477V988.636C993.028 987.807 992.847 987.034 992.483 986.318C992.119 985.602 991.398 985.244 990.318 985.244C989.307 985.244 988.608 985.608 988.222 986.335C987.835 987.062 987.642 987.83 987.642 988.636ZM984.898 1017L1008.9 982.091H1013.36L989.364 1017H984.898Z" fill="black"/>
<path d="M571.609 818V834H569.188V820.422H569.094L565.266 822.922V820.609L569.258 818H571.609ZM577.861 831.812L577.744 832.664C577.666 833.289 577.533 833.94 577.346 834.617C577.164 835.299 576.973 835.932 576.775 836.516C576.583 837.099 576.424 837.563 576.299 837.906H574.643C574.71 837.583 574.804 837.146 574.924 836.594C575.044 836.047 575.161 835.435 575.275 834.758C575.39 834.081 575.476 833.391 575.533 832.687L575.611 831.812H577.861ZM585.912 834.219C585.199 834.208 584.496 834.078 583.803 833.828C583.115 833.578 582.49 833.161 581.928 832.578C581.365 831.995 580.915 831.211 580.576 830.227C580.243 829.242 580.076 828.013 580.076 826.539C580.076 825.143 580.214 823.904 580.49 822.82C580.772 821.737 581.175 820.823 581.701 820.078C582.227 819.328 582.863 818.758 583.608 818.367C584.352 817.977 585.188 817.781 586.115 817.781C587.069 817.781 587.915 817.969 588.655 818.344C589.394 818.719 589.993 819.237 590.451 819.898C590.915 820.56 591.209 821.312 591.334 822.156H588.951C588.79 821.49 588.47 820.945 587.99 820.523C587.511 820.102 586.886 819.891 586.115 819.891C584.944 819.891 584.03 820.401 583.373 821.422C582.722 822.443 582.394 823.862 582.389 825.68H582.506C582.782 825.227 583.121 824.841 583.522 824.523C583.928 824.201 584.381 823.953 584.881 823.781C585.386 823.604 585.918 823.516 586.475 823.516C587.402 823.516 588.24 823.742 588.99 824.195C589.746 824.643 590.347 825.263 590.795 826.055C591.243 826.846 591.467 827.753 591.467 828.773C591.467 829.794 591.235 830.719 590.772 831.547C590.313 832.375 589.668 833.031 588.834 833.516C588.001 833.995 587.027 834.229 585.912 834.219ZM585.905 832.187C586.519 832.187 587.069 832.036 587.553 831.734C588.037 831.432 588.42 831.026 588.701 830.516C588.983 830.005 589.123 829.435 589.123 828.805C589.123 828.19 588.985 827.63 588.709 827.125C588.438 826.62 588.063 826.219 587.584 825.922C587.11 825.625 586.569 825.477 585.959 825.477C585.496 825.477 585.066 825.565 584.67 825.742C584.28 825.919 583.936 826.164 583.639 826.477C583.342 826.789 583.108 827.148 582.936 827.555C582.769 827.956 582.686 828.38 582.686 828.828C582.686 829.427 582.824 829.982 583.1 830.492C583.381 831.003 583.764 831.414 584.248 831.727C584.738 832.034 585.29 832.187 585.905 832.187Z" fill="#CFCFCF"/>
<path d="M999.642 849V865H997.22V851.422H997.127L993.299 853.922V851.609L997.291 849H999.642ZM1005.89 862.812L1005.78 863.664C1005.7 864.289 1005.57 864.94 1005.38 865.617C1005.2 866.299 1005.01 866.932 1004.81 867.516C1004.62 868.099 1004.46 868.563 1004.33 868.906H1002.68C1002.74 868.583 1002.84 868.146 1002.96 867.594C1003.08 867.047 1003.19 866.435 1003.31 865.758C1003.42 865.081 1003.51 864.391 1003.57 863.687L1003.64 862.812H1005.89ZM1013.93 865.219C1012.86 865.219 1011.9 865.034 1011.05 864.664C1010.22 864.294 1009.55 863.781 1009.06 863.125C1008.58 862.464 1008.32 861.698 1008.28 860.828H1010.73C1010.77 861.302 1010.92 861.714 1011.21 862.062C1011.5 862.406 1011.88 862.672 1012.35 862.859C1012.82 863.047 1013.34 863.141 1013.91 863.141C1014.54 863.141 1015.1 863.031 1015.59 862.812C1016.08 862.594 1016.46 862.289 1016.73 861.898C1017.01 861.503 1017.15 861.047 1017.15 860.531C1017.15 859.995 1017.01 859.523 1016.73 859.117C1016.46 858.706 1016.07 858.383 1015.54 858.148C1015.02 857.914 1014.39 857.797 1013.65 857.797H1012.3V855.828H1013.65C1014.24 855.828 1014.76 855.721 1015.21 855.508C1015.66 855.294 1016.02 854.997 1016.27 854.617C1016.53 854.232 1016.66 853.781 1016.66 853.266C1016.66 852.771 1016.54 852.341 1016.32 851.977C1016.1 851.607 1015.79 851.318 1015.38 851.109C1014.98 850.901 1014.51 850.797 1013.96 850.797C1013.44 850.797 1012.95 850.893 1012.5 851.086C1012.05 851.273 1011.69 851.544 1011.41 851.898C1011.13 852.247 1010.97 852.667 1010.95 853.156H1008.62C1008.64 852.292 1008.9 851.531 1009.38 850.875C1009.87 850.219 1010.52 849.706 1011.32 849.336C1012.12 848.966 1013.01 848.781 1013.99 848.781C1015.02 848.781 1015.9 848.982 1016.65 849.383C1017.4 849.779 1017.98 850.307 1018.38 850.969C1018.79 851.63 1019 852.354 1018.99 853.141C1019 854.036 1018.75 854.797 1018.24 855.422C1017.74 856.047 1017.08 856.466 1016.24 856.68V856.805C1017.3 856.966 1018.13 857.388 1018.71 858.07C1019.3 858.753 1019.59 859.599 1019.59 860.609C1019.59 861.49 1019.35 862.279 1018.85 862.977C1018.36 863.674 1017.69 864.224 1016.84 864.625C1015.99 865.021 1015.02 865.219 1013.93 865.219Z" fill="#CFCFCF"/>
<defs>
<linearGradient id="paint0_linear_3239_2696" x1="537.477" y1="223" x2="537.477" y2="372.5" gradientUnits="userSpaceOnUse">
<stop stop-color="#04B34A"/>
<stop offset="0.0666667" stop-color="#04B34A" stop-opacity="0.991353"/>
<stop offset="0.133333" stop-color="#04B34A" stop-opacity="0.96449"/>
<stop offset="0.2" stop-color="#04B34A" stop-opacity="0.91834"/>
<stop offset="0.266667" stop-color="#04B34A" stop-opacity="0.852589"/>
<stop offset="0.333333" stop-color="#04B34A" stop-opacity="0.768225"/>
<stop offset="0.4" stop-color="#04B34A" stop-opacity="0.668116"/>
<stop offset="0.466667" stop-color="#04B34A" stop-opacity="0.557309"/>
<stop offset="0.533333" stop-color="#04B34A" stop-opacity="0.442691"/>
<stop offset="0.6" stop-color="#04B34A" stop-opacity="0.331884"/>
<stop offset="0.666667" stop-color="#04B34A" stop-opacity="0.231775"/>
<stop offset="0.733333" stop-color="#04B34A" stop-opacity="0.147411"/>
<stop offset="0.8" stop-color="#04B34A" stop-opacity="0.0816599"/>
<stop offset="0.866667" stop-color="#04B34A" stop-opacity="0.03551"/>
<stop offset="0.933333" stop-color="#04B34A" stop-opacity="0.01"/>
<stop offset="1" stop-color="#04B34A" stop-opacity="0"/>
</linearGradient>
<linearGradient id="paint1_linear_3239_2696" x1="282.996" y1="536" x2="282.996" y2="685.5" gradientUnits="userSpaceOnUse">
<stop stop-color="#04B34A"/>
<stop offset="0.0666667" stop-color="#04B34A" stop-opacity="0.991353"/>
<stop offset="0.133333" stop-color="#04B34A" stop-opacity="0.96449"/>
<stop offset="0.2" stop-color="#04B34A" stop-opacity="0.91834"/>
<stop offset="0.266667" stop-color="#04B34A" stop-opacity="0.852589"/>
<stop offset="0.333333" stop-color="#04B34A" stop-opacity="0.768225"/>
<stop offset="0.4" stop-color="#04B34A" stop-opacity="0.668116"/>
<stop offset="0.466667" stop-color="#04B34A" stop-opacity="0.557309"/>
<stop offset="0.533333" stop-color="#04B34A" stop-opacity="0.442691"/>
<stop offset="0.6" stop-color="#04B34A" stop-opacity="0.331884"/>
<stop offset="0.666667" stop-color="#04B34A" stop-opacity="0.231775"/>
<stop offset="0.733333" stop-color="#04B34A" stop-opacity="0.147411"/>
<stop offset="0.8" stop-color="#04B34A" stop-opacity="0.0816599"/>
<stop offset="0.866667" stop-color="#04B34A" stop-opacity="0.03551"/>
<stop offset="0.933333" stop-color="#04B34A" stop-opacity="0.01"/>
<stop offset="1" stop-color="#04B34A" stop-opacity="0"/>
</linearGradient>
<linearGradient id="paint2_linear_3239_2696" x1="283.02" y1="849" x2="283.02" y2="998.5" gradientUnits="userSpaceOnUse">
<stop stop-color="#04B34A"/>
<stop offset="0.0666667" stop-color="#04B34A" stop-opacity="0.991353"/>
<stop offset="0.133333" stop-color="#04B34A" stop-opacity="0.96449"/>
<stop offset="0.2" stop-color="#04B34A" stop-opacity="0.91834"/>
<stop offset="0.266667" stop-color="#04B34A" stop-opacity="0.852589"/>
<stop offset="0.333333" stop-color="#04B34A" stop-opacity="0.768225"/>
<stop offset="0.4" stop-color="#04B34A" stop-opacity="0.668116"/>
<stop offset="0.466667" stop-color="#04B34A" stop-opacity="0.557309"/>
<stop offset="0.533333" stop-color="#04B34A" stop-opacity="0.442691"/>
<stop offset="0.6" stop-color="#04B34A" stop-opacity="0.331884"/>
<stop offset="0.666667" stop-color="#04B34A" stop-opacity="0.231775"/>
<stop offset="0.733333" stop-color="#04B34A" stop-opacity="0.147411"/>
<stop offset="0.8" stop-color="#04B34A" stop-opacity="0.0816599"/>
<stop offset="0.866667" stop-color="#04B34A" stop-opacity="0.03551"/>
<stop offset="0.933333" stop-color="#04B34A" stop-opacity="0.01"/>
<stop offset="1" stop-color="#04B34A" stop-opacity="0"/>
</linearGradient>
<linearGradient id="paint3_linear_3239_2696" x1="791.996" y1="593.5" x2="791.996" y2="685.5" gradientUnits="userSpaceOnUse">
<stop stop-color="#D9D9D9"/>
<stop offset="1" stop-color="#D9D9D9" stop-opacity="0"/>
</linearGradient>
<linearGradient id="paint4_linear_3239_2696" x1="792.03" y1="905.5" x2="792.03" y2="997.5" gradientUnits="userSpaceOnUse">
<stop stop-color="#D9D9D9"/>
<stop offset="1" stop-color="#D9D9D9" stop-opacity="0"/>
</linearGradient>
</defs>
</svg>
