<svg width="1080" height="464" viewBox="0 0 1080 464" fill="none" xmlns="http://www.w3.org/2000/svg">
<rect width="1080" height="464" fill="white"/>
<rect x="20" y="20" width="1040" height="424" rx="25" fill="#F7F7F7"/>
<path d="M65.3764 57.9844H59.777C59.6747 57.2599 59.4659 56.6165 59.1506 56.054C58.8352 55.483 58.4304 54.9972 57.9361 54.5966C57.4418 54.196 56.8707 53.8892 56.223 53.6761C55.5838 53.4631 54.8892 53.3565 54.1392 53.3565C52.7841 53.3565 51.6037 53.6932 50.598 54.3665C49.5923 55.0312 48.8125 56.0028 48.2585 57.2812C47.7045 58.5511 47.4276 60.0937 47.4276 61.9091C47.4276 63.7756 47.7045 65.3437 48.2585 66.6136C48.821 67.8835 49.6051 68.8423 50.6108 69.4901C51.6165 70.1378 52.7798 70.4616 54.1009 70.4616C54.8423 70.4616 55.5284 70.3636 56.1591 70.1676C56.7983 69.9716 57.3651 69.6861 57.8594 69.3111C58.3537 68.9276 58.7628 68.4631 59.0866 67.9176C59.419 67.3722 59.6491 66.75 59.777 66.0511L65.3764 66.0767C65.2315 67.2784 64.8693 68.4375 64.2898 69.554C63.7188 70.6619 62.9474 71.6548 61.9759 72.5327C61.0128 73.402 59.8622 74.0923 58.5241 74.6037C57.1946 75.1065 55.6903 75.358 54.0114 75.358C51.6761 75.358 49.5881 74.8295 47.7472 73.7727C45.9148 72.7159 44.4659 71.1861 43.4006 69.1832C42.3438 67.1804 41.8153 64.7557 41.8153 61.9091C41.8153 59.054 42.3523 56.625 43.4261 54.6222C44.5 52.6193 45.9574 51.0937 47.7983 50.0455C49.6392 48.9886 51.7102 48.4602 54.0114 48.4602C55.5284 48.4602 56.9347 48.6733 58.2301 49.0994C59.5341 49.5256 60.6889 50.1477 61.6946 50.9659C62.7003 51.7756 63.5185 52.7685 64.1491 53.9446C64.7884 55.1207 65.1974 56.4673 65.3764 57.9844ZM71.4119 82.3636C70.7216 82.3636 70.0738 82.3082 69.4687 82.1974C68.8721 82.0952 68.3778 81.9631 67.9858 81.8011L69.2131 77.7358C69.8523 77.9318 70.4275 78.0384 70.9389 78.0554C71.4588 78.0724 71.9062 77.9531 72.2812 77.6974C72.6648 77.4418 72.9758 77.0071 73.2145 76.3935L73.5341 75.5625L66.49 55.3636H72.2173L76.2827 69.7841H76.4872L80.5909 55.3636H86.3565L78.7244 77.1222C78.3579 78.179 77.8594 79.0994 77.2287 79.8835C76.6065 80.6761 75.8182 81.2855 74.8636 81.7116C73.9091 82.1463 72.7585 82.3636 71.4119 82.3636ZM104.029 48.1534L105.691 51.7074C105.137 52.1676 104.523 52.5085 103.85 52.7301C103.176 52.9432 102.371 53.0838 101.434 53.152C100.505 53.2202 99.3711 53.267 98.033 53.2926C96.516 53.3097 95.2802 53.5526 94.3256 54.0213C93.3711 54.4901 92.6466 55.2273 92.1523 56.233C91.658 57.2301 91.3341 58.5341 91.1807 60.1449H91.3725C91.9606 58.9432 92.7873 58.0142 93.8526 57.358C94.9265 56.7017 96.2517 56.3736 97.8285 56.3736C99.4989 56.3736 100.961 56.7401 102.213 57.473C103.475 58.206 104.455 59.2585 105.154 60.6307C105.853 62.0028 106.202 63.6477 106.202 65.5653C106.202 67.5597 105.81 69.294 105.026 70.7685C104.25 72.2344 103.147 73.3722 101.715 74.1818C100.283 74.983 98.5785 75.3835 96.6012 75.3835C94.6154 75.3835 92.9023 74.9659 91.462 74.1307C90.0302 73.2955 88.9222 72.0639 88.1381 70.4361C87.3625 68.8082 86.9748 66.8054 86.9748 64.4276V62.8168C86.9748 58.0866 87.8952 54.5795 89.7361 52.2955C91.577 50.0114 94.283 48.8523 97.854 48.8182C98.8256 48.8011 99.7035 48.7969 100.488 48.8054C101.272 48.8139 101.958 48.7756 102.546 48.6903C103.142 48.6051 103.637 48.4261 104.029 48.1534ZM96.6267 71.1648C97.462 71.1648 98.1779 70.9474 98.7745 70.5128C99.3796 70.0781 99.8441 69.456 100.168 68.6463C100.5 67.8366 100.667 66.8693 100.667 65.7443C100.667 64.6278 100.5 63.6818 100.168 62.9062C99.8441 62.1222 99.3796 61.5256 98.7745 61.1165C98.1694 60.7074 97.4449 60.5028 96.6012 60.5028C95.9705 60.5028 95.4037 60.6179 94.9009 60.848C94.3981 61.0781 93.9677 61.419 93.6097 61.8707C93.2603 62.3139 92.9875 62.8636 92.7915 63.5199C92.604 64.1676 92.5103 64.9091 92.5103 65.7443C92.5103 67.4233 92.8725 68.7486 93.5969 69.7202C94.3299 70.6832 95.3398 71.1648 96.6267 71.1648ZM117.249 75.3835C115.238 75.3835 113.507 74.9574 112.059 74.1051C110.618 73.2443 109.51 72.0511 108.735 70.5256C107.968 69 107.584 67.2443 107.584 65.2585C107.584 63.2472 107.972 61.483 108.747 59.9659C109.532 58.4403 110.644 57.2514 112.084 56.3991C113.524 55.5384 115.238 55.108 117.223 55.108C118.936 55.108 120.436 55.419 121.723 56.0412C123.01 56.6634 124.029 57.5369 124.779 58.6619C125.529 59.7869 125.942 61.108 126.019 62.625H120.88C120.735 61.6449 120.351 60.8565 119.729 60.2599C119.115 59.6548 118.31 59.3523 117.313 59.3523C116.469 59.3523 115.732 59.5824 115.101 60.0426C114.479 60.4943 113.993 61.1548 113.644 62.0241C113.294 62.8935 113.12 63.946 113.12 65.1818C113.12 66.4347 113.29 67.5 113.631 68.3778C113.98 69.2557 114.47 69.9247 115.101 70.3849C115.732 70.8452 116.469 71.0753 117.313 71.0753C117.935 71.0753 118.493 70.9474 118.988 70.6918C119.49 70.4361 119.904 70.0653 120.228 69.5795C120.56 69.0852 120.777 68.4929 120.88 67.8026H126.019C125.934 69.3026 125.524 70.6236 124.792 71.7656C124.067 72.8991 123.066 73.7855 121.787 74.4247C120.509 75.0639 118.996 75.3835 117.249 75.3835ZM133.269 67.8153L140.338 55.3636H145.708V75H140.517V62.5099L133.473 75H128.066V55.3636H133.269V67.8153ZM147.099 80.7528V70.679H148.608C149.043 70.4062 149.392 69.9716 149.656 69.375C149.929 68.7784 150.151 68.0753 150.321 67.2656C150.5 66.456 150.636 65.5824 150.73 64.6449C150.832 63.6989 150.922 62.7443 150.999 61.7812L151.51 55.3636H166.57V70.679H169.612V80.7528H164.422V75H152.418V80.7528H147.099ZM154.028 70.679H161.43V59.5568H156.138L155.933 61.7812C155.788 63.8778 155.579 65.6591 155.307 67.125C155.034 68.5824 154.608 69.767 154.028 70.679ZM176.549 67.8153L183.619 55.3636H188.988V75H183.798V62.5099L176.753 75H171.346V55.3636H176.549V67.8153ZM191.914 82.3636V55.3636H197.283V58.6619H197.526C197.764 58.1335 198.11 57.5966 198.561 57.0511C199.022 56.4972 199.618 56.0369 200.351 55.6705C201.093 55.2955 202.013 55.108 203.112 55.108C204.544 55.108 205.865 55.483 207.076 56.233C208.286 56.9744 209.253 58.0952 209.978 59.5952C210.702 61.0866 211.064 62.9574 211.064 65.2074C211.064 67.3977 210.71 69.2472 210.003 70.7557C209.304 72.2557 208.35 73.3935 207.139 74.169C205.938 74.9361 204.591 75.3196 203.1 75.3196C202.043 75.3196 201.144 75.1449 200.402 74.7955C199.669 74.446 199.068 74.0071 198.6 73.4787C198.131 72.9418 197.773 72.4006 197.526 71.8551H197.36V82.3636H191.914ZM197.245 65.1818C197.245 66.3494 197.407 67.3679 197.73 68.2372C198.054 69.1065 198.523 69.7841 199.137 70.2699C199.75 70.7472 200.496 70.9858 201.374 70.9858C202.26 70.9858 203.01 70.7429 203.624 70.2571C204.237 69.7628 204.702 69.081 205.017 68.2116C205.341 67.3338 205.503 66.3239 205.503 65.1818C205.503 64.0483 205.345 63.0511 205.03 62.1903C204.715 61.3295 204.25 60.6562 203.637 60.1705C203.023 59.6847 202.269 59.4418 201.374 59.4418C200.487 59.4418 199.737 59.6761 199.124 60.1449C198.519 60.6136 198.054 61.2784 197.73 62.1392C197.407 63 197.245 64.0142 197.245 65.1818ZM222.127 75.3835C220.141 75.3835 218.424 74.9616 216.975 74.1179C215.535 73.2656 214.422 72.081 213.638 70.5639C212.854 69.0384 212.462 67.2699 212.462 65.2585C212.462 63.2301 212.854 61.4574 213.638 59.9403C214.422 58.4148 215.535 57.2301 216.975 56.3864C218.424 55.5341 220.141 55.108 222.127 55.108C224.113 55.108 225.826 55.5341 227.266 56.3864C228.715 57.2301 229.832 58.4148 230.616 59.9403C231.4 61.4574 231.792 63.2301 231.792 65.2585C231.792 67.2699 231.4 69.0384 230.616 70.5639C229.832 72.081 228.715 73.2656 227.266 74.1179C225.826 74.9616 224.113 75.3835 222.127 75.3835ZM222.153 71.1648C223.056 71.1648 223.81 70.9091 224.415 70.3977C225.02 69.8778 225.476 69.1705 225.783 68.2756C226.099 67.3807 226.256 66.3622 226.256 65.2202C226.256 64.0781 226.099 63.0597 225.783 62.1648C225.476 61.2699 225.02 60.5625 224.415 60.0426C223.81 59.5227 223.056 59.2628 222.153 59.2628C221.241 59.2628 220.474 59.5227 219.851 60.0426C219.238 60.5625 218.773 61.2699 218.458 62.1648C218.151 63.0597 217.998 64.0781 217.998 65.2202C217.998 66.3622 218.151 67.3807 218.458 68.2756C218.773 69.1705 219.238 69.8778 219.851 70.3977C220.474 70.9091 221.241 71.1648 222.153 71.1648ZM233.893 75V55.3636H242.267C244.687 55.3636 246.6 55.8239 248.007 56.7443C249.413 57.6648 250.116 58.973 250.116 60.669C250.116 61.7344 249.72 62.6207 248.927 63.3281C248.134 64.0355 247.035 64.5128 245.629 64.7599C246.805 64.8452 247.806 65.1136 248.633 65.5653C249.468 66.0085 250.103 66.5838 250.538 67.2912C250.981 67.9986 251.203 68.7827 251.203 69.6435C251.203 70.7599 250.904 71.7187 250.308 72.5199C249.72 73.321 248.855 73.9347 247.713 74.3608C246.579 74.7869 245.194 75 243.558 75H233.893ZM238.968 70.9219H243.558C244.316 70.9219 244.909 70.7429 245.335 70.3849C245.769 70.0185 245.987 69.5199 245.987 68.8892C245.987 68.1903 245.769 67.6406 245.335 67.2401C244.909 66.8395 244.316 66.6392 243.558 66.6392H238.968V70.9219ZM238.968 63.4432H242.382C242.927 63.4432 243.392 63.3665 243.775 63.2131C244.167 63.0511 244.465 62.821 244.67 62.5227C244.883 62.2244 244.99 61.8707 244.99 61.4616C244.99 60.8565 244.747 60.3835 244.261 60.0426C243.775 59.7017 243.11 59.5312 242.267 59.5312H238.968V63.4432ZM258.795 75.3707C257.542 75.3707 256.425 75.1534 255.445 74.7188C254.465 74.2756 253.689 73.6236 253.118 72.7628C252.556 71.8935 252.275 70.8111 252.275 69.5156C252.275 68.4247 252.475 67.5085 252.876 66.767C253.276 66.0256 253.822 65.429 254.512 64.9773C255.202 64.5256 255.986 64.1847 256.864 63.9545C257.751 63.7244 258.68 63.5625 259.651 63.4688C260.793 63.3494 261.714 63.2386 262.413 63.1364C263.111 63.0256 263.618 62.8636 263.934 62.6506C264.249 62.4375 264.407 62.1222 264.407 61.7045V61.6278C264.407 60.8182 264.151 60.1918 263.64 59.7486C263.137 59.3054 262.421 59.0838 261.492 59.0838C260.512 59.0838 259.732 59.3011 259.153 59.7358C258.573 60.1619 258.189 60.6989 258.002 61.3466L252.965 60.9375C253.221 59.7443 253.724 58.7131 254.474 57.8438C255.224 56.9659 256.191 56.2926 257.376 55.8239C258.569 55.3466 259.949 55.108 261.518 55.108C262.609 55.108 263.653 55.2358 264.65 55.4915C265.655 55.7472 266.546 56.1435 267.322 56.6804C268.106 57.2173 268.724 57.9077 269.175 58.7514C269.627 59.5866 269.853 60.5881 269.853 61.7557V75H264.688V72.277H264.535C264.219 72.8906 263.797 73.4318 263.269 73.9006C262.741 74.3608 262.106 74.723 261.364 74.9872C260.623 75.2429 259.766 75.3707 258.795 75.3707ZM260.354 71.6122C261.155 71.6122 261.863 71.4545 262.476 71.1392C263.09 70.8153 263.572 70.3807 263.921 69.8352C264.27 69.2898 264.445 68.6719 264.445 67.9815V65.8977C264.275 66.0085 264.04 66.1108 263.742 66.2045C263.452 66.2898 263.124 66.3707 262.758 66.4474C262.391 66.5156 262.025 66.5795 261.658 66.6392C261.292 66.6903 260.959 66.7372 260.661 66.7798C260.022 66.8736 259.464 67.0227 258.986 67.2273C258.509 67.4318 258.138 67.7088 257.874 68.0582C257.61 68.3991 257.478 68.8253 257.478 69.3366C257.478 70.0781 257.746 70.6449 258.283 71.0369C258.829 71.4205 259.519 71.6122 260.354 71.6122ZM286.304 63.0085V67.2912H276.051V63.0085H286.304ZM277.841 55.3636V75H272.638V55.3636H277.841ZM289.718 55.3636V75H284.553V55.3636H289.718ZM306.169 63.0085V67.2912H295.916V63.0085H306.169ZM297.706 55.3636V75H292.503V55.3636H297.706ZM309.582 55.3636V75H304.417V55.3636H309.582ZM315.781 61.3977H321.649C324.248 61.3977 326.276 62.0199 327.734 63.2642C329.191 64.5 329.92 66.1534 329.92 68.2244C329.92 69.571 329.592 70.7557 328.936 71.7784C328.279 72.7926 327.333 73.5852 326.097 74.1562C324.862 74.7188 323.379 75 321.649 75H312.367V55.3636H317.57V70.7173H321.649C322.561 70.7173 323.311 70.4872 323.899 70.027C324.487 69.5668 324.785 68.9787 324.793 68.2628C324.785 67.5043 324.487 66.8864 323.899 66.4091C323.311 65.9233 322.561 65.6804 321.649 65.6804H315.781V61.3977ZM332.029 75V55.3636H337.475V75H332.029ZM349.337 75.3835C347.317 75.3835 345.579 74.9744 344.121 74.1562C342.672 73.3295 341.556 72.1619 340.772 70.6534C339.988 69.1364 339.596 67.3423 339.596 65.2713C339.596 63.2514 339.988 61.4787 340.772 59.9531C341.556 58.4276 342.66 57.2386 344.083 56.3864C345.515 55.5341 347.194 55.108 349.12 55.108C350.415 55.108 351.621 55.3168 352.738 55.7344C353.863 56.1435 354.843 56.7614 355.678 57.5881C356.522 58.4148 357.178 59.4545 357.647 60.7074C358.116 61.9517 358.35 63.4091 358.35 65.0795V66.5753H341.769V63.2003H353.224C353.224 62.4162 353.053 61.7216 352.712 61.1165C352.371 60.5114 351.898 60.0384 351.293 59.6974C350.697 59.348 350.002 59.1733 349.209 59.1733C348.383 59.1733 347.65 59.3651 347.01 59.7486C346.38 60.1236 345.885 60.6307 345.527 61.2699C345.17 61.9006 344.986 62.6037 344.978 63.3793V66.5881C344.978 67.5597 345.157 68.3991 345.515 69.1065C345.881 69.8139 346.397 70.3594 347.062 70.7429C347.726 71.1264 348.515 71.3182 349.427 71.3182C350.032 71.3182 350.586 71.233 351.089 71.0625C351.591 70.892 352.022 70.6364 352.38 70.2955C352.738 69.9545 353.01 69.5369 353.198 69.0426L358.235 69.375C357.979 70.5852 357.455 71.642 356.662 72.5455C355.878 73.4403 354.864 74.1392 353.62 74.642C352.384 75.1364 350.956 75.3835 349.337 75.3835ZM372.559 67.8153L379.629 55.3636H384.998V75H379.808V62.5099L372.764 75H367.356V55.3636H372.559V67.8153ZM387.924 75V55.3636H405.093V75H399.89V59.6463H393.063V75H387.924ZM416.872 75.3835C414.886 75.3835 413.168 74.9616 411.72 74.1179C410.279 73.2656 409.167 72.081 408.383 70.5639C407.599 69.0384 407.207 67.2699 407.207 65.2585C407.207 63.2301 407.599 61.4574 408.383 59.9403C409.167 58.4148 410.279 57.2301 411.72 56.3864C413.168 55.5341 414.886 55.108 416.872 55.108C418.857 55.108 420.57 55.5341 422.011 56.3864C423.46 57.2301 424.576 58.4148 425.36 59.9403C426.144 61.4574 426.536 63.2301 426.536 65.2585C426.536 67.2699 426.144 69.0384 425.36 70.5639C424.576 72.081 423.46 73.2656 422.011 74.1179C420.57 74.9616 418.857 75.3835 416.872 75.3835ZM416.897 71.1648C417.801 71.1648 418.555 70.9091 419.16 70.3977C419.765 69.8778 420.221 69.1705 420.528 68.2756C420.843 67.3807 421.001 66.3622 421.001 65.2202C421.001 64.0781 420.843 63.0597 420.528 62.1648C420.221 61.2699 419.765 60.5625 419.16 60.0426C418.555 59.5227 417.801 59.2628 416.897 59.2628C415.985 59.2628 415.218 59.5227 414.596 60.0426C413.982 60.5625 413.518 61.2699 413.203 62.1648C412.896 63.0597 412.742 64.0781 412.742 65.2202C412.742 66.3622 412.896 67.3807 413.203 68.2756C413.518 69.1705 413.982 69.8778 414.596 70.3977C415.218 70.9091 415.985 71.1648 416.897 71.1648ZM426.736 59.6463V55.3636H444.531V59.6463H438.203V75H433.013V59.6463H426.736ZM454.639 75.3835C452.619 75.3835 450.88 74.9744 449.423 74.1562C447.974 73.3295 446.857 72.1619 446.073 70.6534C445.289 69.1364 444.897 67.3423 444.897 65.2713C444.897 63.2514 445.289 61.4787 446.073 59.9531C446.857 58.4276 447.961 57.2386 449.384 56.3864C450.816 55.5341 452.495 55.108 454.421 55.108C455.717 55.108 456.923 55.3168 458.039 55.7344C459.164 56.1435 460.144 56.7614 460.979 57.5881C461.823 58.4148 462.479 59.4545 462.948 60.7074C463.417 61.9517 463.651 63.4091 463.651 65.0795V66.5753H447.07V63.2003H458.525C458.525 62.4162 458.354 61.7216 458.014 61.1165C457.673 60.5114 457.2 60.0384 456.595 59.6974C455.998 59.348 455.303 59.1733 454.511 59.1733C453.684 59.1733 452.951 59.3651 452.312 59.7486C451.681 60.1236 451.187 60.6307 450.829 61.2699C450.471 61.9006 450.288 62.6037 450.279 63.3793V66.5881C450.279 67.5597 450.458 68.3991 450.816 69.1065C451.183 69.8139 451.698 70.3594 452.363 70.7429C453.028 71.1264 453.816 71.3182 454.728 71.3182C455.333 71.3182 455.887 71.233 456.39 71.0625C456.893 70.892 457.323 70.6364 457.681 70.2955C458.039 69.9545 458.312 69.5369 458.499 69.0426L463.536 69.375C463.281 70.5852 462.756 71.642 461.964 72.5455C461.18 73.4403 460.166 74.1392 458.921 74.642C457.685 75.1364 456.258 75.3835 454.639 75.3835ZM465.765 75V55.3636H471.211V62.983H472.745L478.089 55.3636H484.481L477.539 65.1051L484.558 75H478.089L473.244 68.0327H471.211V75H465.765ZM490.622 67.8153L497.692 55.3636H503.061V75H497.871V62.5099L490.827 75H485.419V55.3636H490.622V67.8153Z" fill="black"/>
<path opacity="0.4" d="M1040 422.001H40V166L540.5 230L1040 280V422.001Z" fill="url(#paint0_linear_3239_3166)"/>
<rect x="1035" y="276" width="10.2717" height="10.2717" rx="5.13587" fill="#04B34A"/>
<path d="M1040 281L540 232.5L39 167.949" stroke="#04B34A" stroke-width="4"/>
<path d="M47.4631 146.199C46.4877 146.199 45.6165 146.031 44.8494 145.695C44.0871 145.358 43.4834 144.892 43.0384 144.295C42.598 143.694 42.3613 142.998 42.3281 142.207H44.5582C44.5866 142.638 44.7311 143.012 44.9915 143.33C45.2566 143.642 45.6023 143.884 46.0284 144.054C46.4545 144.224 46.928 144.31 47.4489 144.31C48.0218 144.31 48.5284 144.21 48.9688 144.011C49.4138 143.812 49.7618 143.536 50.0128 143.18C50.2637 142.821 50.3892 142.406 50.3892 141.938C50.3892 141.45 50.2637 141.021 50.0128 140.652C49.7666 140.278 49.4044 139.984 48.9261 139.771C48.4527 139.558 47.8797 139.452 47.2074 139.452H45.9787V137.662H47.2074C47.7472 137.662 48.2206 137.565 48.6278 137.371C49.0398 137.177 49.3617 136.907 49.5938 136.561C49.8258 136.211 49.9418 135.801 49.9418 135.332C49.9418 134.883 49.84 134.492 49.6364 134.161C49.4375 133.824 49.1534 133.562 48.7841 133.372C48.4195 133.183 47.9886 133.088 47.4915 133.088C47.018 133.088 46.5753 133.176 46.1634 133.351C45.7562 133.521 45.4247 133.768 45.169 134.089C44.9134 134.407 44.776 134.788 44.7571 135.233H42.6335C42.6572 134.447 42.8892 133.756 43.3295 133.159C43.7746 132.562 44.3617 132.096 45.0909 131.76C45.8201 131.424 46.6297 131.256 47.5199 131.256C48.4527 131.256 49.2576 131.438 49.9347 131.803C50.6165 132.162 51.142 132.643 51.5114 133.244C51.8854 133.846 52.0701 134.504 52.0653 135.219C52.0701 136.033 51.8428 136.724 51.3835 137.293C50.929 137.861 50.3229 138.242 49.5653 138.436V138.55C50.5313 138.696 51.2794 139.08 51.8097 139.7C52.3447 140.321 52.6098 141.09 52.6051 142.009C52.6098 142.809 52.3873 143.526 51.9375 144.161C51.4924 144.795 50.884 145.295 50.1122 145.659C49.3404 146.019 48.4574 146.199 47.4631 146.199ZM55.5573 146L61.9067 133.443V133.337H54.563V131.455H64.1794V133.401L57.8513 146H55.5573ZM66.7179 144.011L66.6114 144.786C66.5403 145.354 66.4196 145.946 66.2491 146.561C66.0834 147.181 65.9106 147.757 65.7307 148.287C65.5555 148.817 65.4111 149.239 65.2974 149.551H63.7918C63.8533 149.258 63.9385 148.86 64.0474 148.358C64.1563 147.861 64.2629 147.304 64.367 146.689C64.4712 146.073 64.5493 145.446 64.6014 144.807L64.6724 144.011H66.7179ZM74.0166 146.199C73.368 146.189 72.7288 146.071 72.099 145.844C71.474 145.616 70.9058 145.238 70.3945 144.707C69.8831 144.177 69.4736 143.464 69.1658 142.57C68.8628 141.675 68.7112 140.557 68.7112 139.217C68.7112 137.948 68.8367 136.821 69.0877 135.837C69.3433 134.852 69.7103 134.021 70.1885 133.344C70.6667 132.662 71.2444 132.143 71.9215 131.788C72.5986 131.433 73.3585 131.256 74.2013 131.256C75.0678 131.256 75.8372 131.426 76.5095 131.767C77.1819 132.108 77.7264 132.579 78.1431 133.18C78.5645 133.782 78.832 134.466 78.9456 135.233H76.7794C76.6326 134.627 76.3415 134.132 75.9058 133.749C75.4702 133.365 74.9021 133.173 74.2013 133.173C73.136 133.173 72.305 133.637 71.7084 134.565C71.1165 135.493 70.8183 136.784 70.8135 138.436H70.92C71.171 138.024 71.4788 137.674 71.8433 137.385C72.2127 137.091 72.6246 136.866 73.0791 136.71C73.5384 136.549 74.0214 136.469 74.528 136.469C75.3708 136.469 76.1331 136.675 76.8149 137.087C77.5015 137.494 78.0484 138.057 78.4556 138.777C78.8628 139.497 79.0664 140.321 79.0664 141.249C79.0664 142.177 78.8557 143.017 78.4343 143.77C78.0176 144.523 77.4305 145.119 76.6729 145.56C75.9153 145.995 75.0299 146.208 74.0166 146.199ZM74.0095 144.352C74.5683 144.352 75.0678 144.215 75.5081 143.94C75.9485 143.666 76.2965 143.296 76.5522 142.832C76.8078 142.368 76.9357 141.85 76.9357 141.277C76.9357 140.718 76.8102 140.209 76.5593 139.75C76.313 139.291 75.9721 138.926 75.5365 138.656C75.1057 138.386 74.6132 138.251 74.0593 138.251C73.6379 138.251 73.2472 138.332 72.8874 138.493C72.5323 138.654 72.2198 138.876 71.9499 139.161C71.68 139.445 71.4669 139.771 71.3107 140.141C71.1592 140.505 71.0834 140.891 71.0834 141.298C71.0834 141.843 71.2089 142.347 71.4598 142.811C71.7155 143.275 72.0635 143.649 72.5039 143.933C72.9489 144.213 73.4508 144.352 74.0095 144.352ZM94.0936 143.273V142.506C94.0936 141.956 94.2072 141.455 94.4345 141C94.6665 140.541 95.0026 140.174 95.443 139.899C95.8881 139.62 96.4255 139.48 97.0552 139.48C97.6991 139.48 98.2389 139.617 98.6745 139.892C99.1101 140.167 99.4392 140.534 99.6617 140.993C99.889 141.452 100.003 141.956 100.003 142.506V143.273C100.003 143.822 99.889 144.326 99.6617 144.786C99.4345 145.24 99.1007 145.607 98.6603 145.886C98.2247 146.161 97.6897 146.298 97.0552 146.298C96.416 146.298 95.8762 146.161 95.4359 145.886C94.9955 145.607 94.6617 145.24 94.4345 144.786C94.2072 144.326 94.0936 143.822 94.0936 143.273ZM95.7484 142.506V143.273C95.7484 143.68 95.8454 144.049 96.0396 144.381C96.2337 144.712 96.5722 144.878 97.0552 144.878C97.5334 144.878 97.8672 144.712 98.0566 144.381C98.246 144.049 98.3407 143.68 98.3407 143.273V142.506C98.3407 142.098 98.2484 141.729 98.0637 141.398C97.8838 141.066 97.5476 140.901 97.0552 140.901C96.5817 140.901 96.2455 141.066 96.0467 141.398C95.8478 141.729 95.7484 142.098 95.7484 142.506ZM86.7782 134.949V134.182C86.7782 133.633 86.8918 133.128 87.1191 132.669C87.3511 132.21 87.6873 131.843 88.1276 131.568C88.5727 131.294 89.1101 131.156 89.7399 131.156C90.3838 131.156 90.9236 131.294 91.3592 131.568C91.7948 131.843 92.1239 132.21 92.3464 132.669C92.5689 133.128 92.6802 133.633 92.6802 134.182V134.949C92.6802 135.498 92.5666 136.002 92.3393 136.462C92.1168 136.916 91.7853 137.283 91.345 137.562C90.9094 137.837 90.3743 137.974 89.7399 137.974C89.0959 137.974 88.5538 137.837 88.1134 137.562C87.6778 137.283 87.3464 136.916 87.1191 136.462C86.8918 136.002 86.7782 135.498 86.7782 134.949ZM88.4401 134.182V134.949C88.4401 135.356 88.5348 135.725 88.7242 136.057C88.9184 136.388 89.2569 136.554 89.7399 136.554C90.2133 136.554 90.5448 136.388 90.7342 136.057C90.9283 135.725 91.0254 135.356 91.0254 134.949V134.182C91.0254 133.775 90.933 133.405 90.7484 133.074C90.5637 132.742 90.2275 132.577 89.7399 132.577C89.2664 132.577 88.9302 132.742 88.7313 133.074C88.5372 133.405 88.4401 133.775 88.4401 134.182ZM87.4529 146L97.4529 131.455H99.1504L89.1504 146H87.4529Z" fill="#CFCFCF"/>
<path d="M512.727 218V216.409L517.649 211.31C518.175 210.756 518.608 210.27 518.949 209.854C519.294 209.432 519.552 209.032 519.723 208.653C519.893 208.275 519.979 207.872 519.979 207.446C519.979 206.963 519.865 206.546 519.638 206.196C519.41 205.841 519.1 205.569 518.707 205.379C518.314 205.185 517.872 205.088 517.379 205.088C516.858 205.088 516.404 205.195 516.015 205.408C515.627 205.621 515.329 205.921 515.121 206.31C514.912 206.698 514.808 207.152 514.808 207.673H512.713C512.713 206.788 512.917 206.014 513.324 205.351C513.731 204.688 514.29 204.174 515 203.81C515.71 203.44 516.517 203.256 517.422 203.256C518.336 203.256 519.14 203.438 519.836 203.803C520.537 204.162 521.084 204.655 521.477 205.28C521.87 205.9 522.067 206.601 522.067 207.382C522.067 207.922 521.965 208.45 521.761 208.966C521.562 209.482 521.214 210.057 520.717 210.692C520.22 211.321 519.529 212.086 518.643 212.986L515.753 216.011V216.118H522.301V218H512.727ZM529.834 218.199C528.859 218.199 527.988 218.031 527.22 217.695C526.458 217.358 525.854 216.892 525.409 216.295C524.969 215.694 524.732 214.998 524.699 214.207H526.929C526.958 214.638 527.102 215.012 527.363 215.33C527.628 215.642 527.973 215.884 528.399 216.054C528.826 216.224 529.299 216.31 529.82 216.31C530.393 216.31 530.899 216.21 531.34 216.011C531.785 215.812 532.133 215.536 532.384 215.18C532.635 214.821 532.76 214.406 532.76 213.938C532.76 213.45 532.635 213.021 532.384 212.652C532.138 212.278 531.775 211.984 531.297 211.771C530.824 211.558 530.251 211.452 529.578 211.452H528.35V209.662H529.578C530.118 209.662 530.592 209.565 530.999 209.371C531.411 209.177 531.733 208.907 531.965 208.561C532.197 208.211 532.313 207.801 532.313 207.332C532.313 206.883 532.211 206.492 532.007 206.161C531.809 205.824 531.524 205.562 531.155 205.372C530.791 205.183 530.36 205.088 529.863 205.088C529.389 205.088 528.946 205.176 528.534 205.351C528.127 205.521 527.796 205.768 527.54 206.089C527.284 206.407 527.147 206.788 527.128 207.233H525.005C525.028 206.447 525.26 205.756 525.701 205.159C526.146 204.562 526.733 204.096 527.462 203.76C528.191 203.424 529.001 203.256 529.891 203.256C530.824 203.256 531.629 203.438 532.306 203.803C532.988 204.162 533.513 204.643 533.882 205.244C534.256 205.846 534.441 206.504 534.436 207.219C534.441 208.033 534.214 208.724 533.755 209.293C533.3 209.861 532.694 210.242 531.936 210.436V210.55C532.902 210.696 533.65 211.08 534.181 211.7C534.716 212.321 534.981 213.09 534.976 214.009C534.981 214.809 534.758 215.526 534.309 216.161C533.863 216.795 533.255 217.295 532.483 217.659C531.711 218.019 530.828 218.199 529.834 218.199ZM550.101 215.273V214.506C550.101 213.956 550.215 213.455 550.442 213C550.674 212.541 551.01 212.174 551.45 211.899C551.896 211.62 552.433 211.48 553.063 211.48C553.707 211.48 554.246 211.617 554.682 211.892C555.118 212.167 555.447 212.534 555.669 212.993C555.896 213.452 556.01 213.956 556.01 214.506V215.273C556.01 215.822 555.896 216.326 555.669 216.786C555.442 217.24 555.108 217.607 554.668 217.886C554.232 218.161 553.697 218.298 553.063 218.298C552.423 218.298 551.884 218.161 551.443 217.886C551.003 217.607 550.669 217.24 550.442 216.786C550.215 216.326 550.101 215.822 550.101 215.273ZM551.756 214.506V215.273C551.756 215.68 551.853 216.049 552.047 216.381C552.241 216.712 552.58 216.878 553.063 216.878C553.541 216.878 553.875 216.712 554.064 216.381C554.253 216.049 554.348 215.68 554.348 215.273V214.506C554.348 214.098 554.256 213.729 554.071 213.398C553.891 213.066 553.555 212.901 553.063 212.901C552.589 212.901 552.253 213.066 552.054 213.398C551.855 213.729 551.756 214.098 551.756 214.506ZM542.786 206.949V206.182C542.786 205.633 542.899 205.128 543.127 204.669C543.359 204.21 543.695 203.843 544.135 203.568C544.58 203.294 545.118 203.156 545.747 203.156C546.391 203.156 546.931 203.294 547.367 203.568C547.802 203.843 548.131 204.21 548.354 204.669C548.576 205.128 548.688 205.633 548.688 206.182V206.949C548.688 207.498 548.574 208.002 548.347 208.462C548.124 208.916 547.793 209.283 547.352 209.562C546.917 209.837 546.382 209.974 545.747 209.974C545.103 209.974 544.561 209.837 544.121 209.562C543.685 209.283 543.354 208.916 543.127 208.462C542.899 208.002 542.786 207.498 542.786 206.949ZM544.448 206.182V206.949C544.448 207.356 544.542 207.725 544.732 208.057C544.926 208.388 545.264 208.554 545.747 208.554C546.221 208.554 546.552 208.388 546.742 208.057C546.936 207.725 547.033 207.356 547.033 206.949V206.182C547.033 205.775 546.94 205.405 546.756 205.074C546.571 204.742 546.235 204.577 545.747 204.577C545.274 204.577 544.938 204.742 544.739 205.074C544.545 205.405 544.448 205.775 544.448 206.182ZM543.46 218L553.46 203.455H555.158L545.158 218H543.46Z" fill="#CFCFCF"/>
<path d="M986.335 250.455V265H984.133V252.656H984.048L980.568 254.929V252.827L984.197 250.455H986.335ZM989.742 262.159V260.384L996.027 250.455H997.426V253.068H996.539L992.043 260.185V260.298H1000.66V262.159H989.742ZM996.638 265V261.619L996.652 260.81V250.455H998.733V265H996.638ZM1005.15 263.011L1005.05 263.786C1004.98 264.354 1004.86 264.946 1004.69 265.561C1004.52 266.181 1004.35 266.757 1004.17 267.287C1003.99 267.817 1003.85 268.239 1003.73 268.551H1002.23C1002.29 268.258 1002.38 267.86 1002.48 267.358C1002.59 266.861 1002.7 266.304 1002.8 265.689C1002.91 265.073 1002.99 264.446 1003.04 263.807L1003.11 263.011H1005.15ZM1007.6 262.159V260.384L1013.88 250.455H1015.28V253.068H1014.39L1009.9 260.185V260.298H1018.51V262.159H1007.6ZM1014.49 265V261.619L1014.51 260.81V250.455H1016.59V265H1014.49ZM1033.43 262.273V261.506C1033.43 260.956 1033.54 260.455 1033.77 260C1034 259.541 1034.34 259.174 1034.78 258.899C1035.22 258.62 1035.76 258.48 1036.39 258.48C1037.03 258.48 1037.57 258.617 1038.01 258.892C1038.45 259.167 1038.77 259.534 1039 259.993C1039.22 260.452 1039.34 260.956 1039.34 261.506V262.273C1039.34 262.822 1039.22 263.326 1039 263.786C1038.77 264.24 1038.44 264.607 1038 264.886C1037.56 265.161 1037.03 265.298 1036.39 265.298C1035.75 265.298 1035.21 265.161 1034.77 264.886C1034.33 264.607 1034 264.24 1033.77 263.786C1033.54 263.326 1033.43 262.822 1033.43 262.273ZM1035.08 261.506V262.273C1035.08 262.68 1035.18 263.049 1035.38 263.381C1035.57 263.712 1035.91 263.878 1036.39 263.878C1036.87 263.878 1037.2 263.712 1037.39 263.381C1037.58 263.049 1037.68 262.68 1037.68 262.273V261.506C1037.68 261.098 1037.58 260.729 1037.4 260.398C1037.22 260.066 1036.88 259.901 1036.39 259.901C1035.92 259.901 1035.58 260.066 1035.38 260.398C1035.18 260.729 1035.08 261.098 1035.08 261.506ZM1026.11 253.949V253.182C1026.11 252.633 1026.23 252.128 1026.45 251.669C1026.69 251.21 1027.02 250.843 1027.46 250.568C1027.91 250.294 1028.45 250.156 1029.08 250.156C1029.72 250.156 1030.26 250.294 1030.69 250.568C1031.13 250.843 1031.46 251.21 1031.68 251.669C1031.9 252.128 1032.02 252.633 1032.02 253.182V253.949C1032.02 254.498 1031.9 255.002 1031.67 255.462C1031.45 255.916 1031.12 256.283 1030.68 256.562C1030.24 256.837 1029.71 256.974 1029.08 256.974C1028.43 256.974 1027.89 256.837 1027.45 256.562C1027.01 256.283 1026.68 255.916 1026.45 255.462C1026.23 255.002 1026.11 254.498 1026.11 253.949ZM1027.78 253.182V253.949C1027.78 254.356 1027.87 254.725 1028.06 255.057C1028.25 255.388 1028.59 255.554 1029.08 255.554C1029.55 255.554 1029.88 255.388 1030.07 255.057C1030.26 254.725 1030.36 254.356 1030.36 253.949V253.182C1030.36 252.775 1030.27 252.405 1030.08 252.074C1029.9 251.742 1029.56 251.577 1029.08 251.577C1028.6 251.577 1028.27 251.742 1028.07 252.074C1027.87 252.405 1027.78 252.775 1027.78 253.182ZM1026.79 265L1036.79 250.455H1038.49L1028.49 265H1026.79Z" fill="#CFCFCF"/>
<rect x="535" y="227" width="10" height="10" rx="5" fill="white" stroke="#04B34A" stroke-width="4"/>
<path opacity="0.6" d="M41.2912 407.909H44.1932L48.0795 417.395H48.233L52.1193 407.909H55.0213V421H52.7457V412.006H52.6243L49.0064 420.962H47.3061L43.6882 411.987H43.5668V421H41.2912V407.909ZM61.0848 421H58.5536L63.1622 407.909H66.0898L70.7048 421H68.1736L64.6771 410.594H64.5749L61.0848 421ZM61.1679 415.867H68.0713V417.772H61.1679V415.867ZM74.2291 407.909H76.5814V416.832H76.7028L82.8583 407.909H84.9869V421H82.6154V412.083H82.5068L76.3321 421H74.2291V407.909ZM80.8768 404.534H82.6091C82.6091 405.28 82.3385 405.885 81.7973 406.349C81.2603 406.81 80.5316 407.04 79.6112 407.04C78.6993 407.04 77.9727 406.81 77.4315 406.349C76.8946 405.885 76.6282 405.28 76.6325 404.534H78.352C78.352 404.841 78.4457 405.116 78.6332 405.359C78.825 405.597 79.151 405.717 79.6112 405.717C80.0629 405.717 80.3846 405.597 80.5764 405.359C80.7724 405.12 80.8725 404.845 80.8768 404.534Z" fill="black"/>
<path opacity="0.6" d="M509.325 407.909H511.677V416.832H511.798L517.954 407.909H520.082V421H517.711V412.083H517.602L511.428 421H509.325V407.909ZM526.838 407.909V421H524.466V407.909H526.838ZM529.67 413.694V415.599H525.547V413.694H529.67ZM540.958 414.455C540.958 415.865 540.694 417.073 540.165 418.079C539.641 419.08 538.925 419.847 538.018 420.38C537.114 420.913 536.089 421.179 534.943 421.179C533.797 421.179 532.77 420.913 531.862 420.38C530.959 419.843 530.243 419.074 529.714 418.072C529.19 417.067 528.928 415.861 528.928 414.455C528.928 413.044 529.19 411.838 529.714 410.837C530.243 409.831 530.959 409.062 531.862 408.529C532.77 407.996 533.797 407.73 534.943 407.73C536.089 407.73 537.114 407.996 538.018 408.529C538.925 409.062 539.641 409.831 540.165 410.837C540.694 411.838 540.958 413.044 540.958 414.455ZM538.574 414.455C538.574 413.462 538.418 412.624 538.107 411.942C537.8 411.256 537.374 410.739 536.829 410.389C536.283 410.036 535.655 409.859 534.943 409.859C534.231 409.859 533.603 410.036 533.057 410.389C532.512 410.739 532.084 411.256 531.772 411.942C531.466 412.624 531.312 413.462 531.312 414.455C531.312 415.447 531.466 416.287 531.772 416.973C532.084 417.655 532.512 418.173 533.057 418.526C533.603 418.876 534.231 419.05 534.943 419.05C535.655 419.05 536.283 418.876 536.829 418.526C537.374 418.173 537.8 417.655 538.107 416.973C538.418 416.287 538.574 415.447 538.574 414.455ZM545.022 421V407.909H547.394V413.451H553.46V407.909H555.838V421H553.46V415.439H547.394V421H545.022ZM561.821 412.965H565.145C566.146 412.965 567.005 413.129 567.721 413.457C568.441 413.781 568.993 414.239 569.377 414.832C569.76 415.424 569.952 416.121 569.952 416.922C569.952 417.727 569.76 418.437 569.377 419.05C568.993 419.66 568.441 420.137 567.721 420.482C567.005 420.827 566.146 421 565.145 421H560.242V407.909H562.62V419.057H565.145C565.673 419.057 566.121 418.957 566.487 418.756C566.854 418.556 567.131 418.292 567.318 417.964C567.51 417.636 567.606 417.28 567.606 416.896C567.606 416.342 567.393 415.871 566.967 415.484C566.545 415.092 565.938 414.896 565.145 414.896H561.821V412.965Z" fill="black"/>
<path opacity="0.6" d="M978.71 407.909H981.062V416.832H981.183L987.339 407.909H989.467V421H987.096V412.083H986.987L980.813 421H978.71V407.909ZM996.223 407.909V421H993.851V407.909H996.223ZM999.054 413.694V415.599H994.932V413.694H999.054ZM1010.34 414.455C1010.34 415.865 1010.08 417.073 1009.55 418.079C1009.03 419.08 1008.31 419.847 1007.4 420.38C1006.5 420.913 1005.47 421.179 1004.33 421.179C1003.18 421.179 1002.15 420.913 1001.25 420.38C1000.34 419.843 999.628 419.074 999.099 418.072C998.575 417.067 998.313 415.861 998.313 414.455C998.313 413.044 998.575 411.838 999.099 410.837C999.628 409.831 1000.34 409.062 1001.25 408.529C1002.15 407.996 1003.18 407.73 1004.33 407.73C1005.47 407.73 1006.5 407.996 1007.4 408.529C1008.31 409.062 1009.03 409.831 1009.55 410.837C1010.08 411.838 1010.34 413.044 1010.34 414.455ZM1007.96 414.455C1007.96 413.462 1007.8 412.624 1007.49 411.942C1007.19 411.256 1006.76 410.739 1006.21 410.389C1005.67 410.036 1005.04 409.859 1004.33 409.859C1003.62 409.859 1002.99 410.036 1002.44 410.389C1001.9 410.739 1001.47 411.256 1001.16 411.942C1000.85 412.624 1000.7 413.462 1000.7 414.455C1000.7 415.447 1000.85 416.287 1001.16 416.973C1001.47 417.655 1001.9 418.173 1002.44 418.526C1002.99 418.876 1003.62 419.05 1004.33 419.05C1005.04 419.05 1005.67 418.876 1006.21 418.526C1006.76 418.173 1007.19 417.655 1007.49 416.973C1007.8 416.287 1007.96 415.447 1007.96 414.455ZM1013.56 421V419.031L1013.93 419.012C1014.43 418.982 1014.83 418.801 1015.12 418.469C1015.42 418.136 1015.64 417.602 1015.78 416.864C1015.93 416.127 1016.02 415.138 1016.07 413.898L1016.29 407.909H1024.86V421H1022.54V409.859H1018.5L1018.29 414.634C1018.23 416.065 1018.08 417.252 1017.82 418.194C1017.57 419.136 1017.16 419.839 1016.58 420.303C1016.01 420.768 1015.21 421 1014.2 421H1013.56ZM1030.85 412.965H1034.18C1035.18 412.965 1036.04 413.129 1036.75 413.457C1037.47 413.781 1038.03 414.239 1038.41 414.832C1038.79 415.424 1038.99 416.121 1038.99 416.922C1038.99 417.727 1038.79 418.437 1038.41 419.05C1038.03 419.66 1037.47 420.137 1036.75 420.482C1036.04 420.827 1035.18 421 1034.18 421H1029.28V407.909H1031.65V419.057H1034.18C1034.71 419.057 1035.15 418.957 1035.52 418.756C1035.89 418.556 1036.16 418.292 1036.35 417.964C1036.54 417.636 1036.64 417.28 1036.64 416.896C1036.64 416.342 1036.43 415.871 1036 415.484C1035.58 415.092 1034.97 414.896 1034.18 414.896H1030.85V412.965Z" fill="black"/>
<rect x="36" y="163" width="10" height="10" rx="5" fill="white" stroke="#04B34A" stroke-width="4"/>
<defs>
<linearGradient id="paint0_linear_3239_3166" x1="554.999" y1="-14.5832" x2="527.469" y2="441.583" gradientUnits="userSpaceOnUse">
<stop stop-color="#04B34A"/>
<stop offset="0.0666667" stop-color="#04B34A" stop-opacity="0.991353"/>
<stop offset="0.133333" stop-color="#04B34A" stop-opacity="0.96449"/>
<stop offset="0.2" stop-color="#04B34A" stop-opacity="0.91834"/>
<stop offset="0.266667" stop-color="#04B34A" stop-opacity="0.852589"/>
<stop offset="0.333333" stop-color="#04B34A" stop-opacity="0.768225"/>
<stop offset="0.4" stop-color="#04B34A" stop-opacity="0.668116"/>
<stop offset="0.466667" stop-color="#04B34A" stop-opacity="0.557309"/>
<stop offset="0.533333" stop-color="#04B34A" stop-opacity="0.442691"/>
<stop offset="0.6" stop-color="#04B34A" stop-opacity="0.331884"/>
<stop offset="0.666667" stop-color="#04B34A" stop-opacity="0.231775"/>
<stop offset="0.733333" stop-color="#04B34A" stop-opacity="0.147411"/>
<stop offset="0.8" stop-color="#04B34A" stop-opacity="0.0816599"/>
<stop offset="0.866667" stop-color="#04B34A" stop-opacity="0.03551"/>
<stop offset="0.933333" stop-color="#04B34A" stop-opacity="0.01"/>
<stop offset="1" stop-color="#04B34A" stop-opacity="0"/>
</linearGradient>
</defs>
</svg>
