<svg width="1080" height="794" viewBox="0 0 1080 794" fill="none" xmlns="http://www.w3.org/2000/svg">
<rect width="1080" height="794" fill="white"/>
<path d="M915.587 49L912.911 64.8629H915.891L914.181 75H908.668L909.483 70.1698H895.329L894.514 75H889L890.71 64.8629H892.824C893.79 63.5513 894.707 61.8209 895.74 58.1838L898.364 49H915.59H915.587ZM908.584 54.3069H902.535L901.369 58.3918C900.354 61.9393 899.515 63.5484 898.667 64.8629H906.805L908.584 54.3069Z" fill="#EAECEF"/>
<path d="M920.448 49H933.56C938.18 49 940.257 51.3544 939.681 54.7547C939.314 56.93 937.677 58.3311 936.141 58.958C937.818 59.6138 939.146 61.2836 938.663 64.1464C938.05 67.7836 935.085 70.1698 930.167 70.1698H916.875L920.448 49ZM924.295 61.7024L923.67 65.4002H929.69C931.298 65.4002 932.293 64.8051 932.504 63.5513C932.721 62.2687 931.923 61.7024 930.312 61.7024H924.292H924.295ZM925.631 53.7724L925.099 56.9329H931.029C932.282 56.9329 933.161 56.4851 933.352 55.3527C933.543 54.2202 932.814 53.7724 931.561 53.7724H925.631Z" fill="#EAECEF"/>
<path d="M943.47 49H949.579L947.427 61.7602L958.906 49H965.015L961.445 70.1698H955.336L957.479 57.4673L946.01 70.1698H939.9L943.47 49Z" fill="#EAECEF"/>
<path d="M974.098 59.1978L966.907 49H973.821L979.812 57.6464L981.272 49H987.084L985.626 57.6464L994.536 49H1001.3L990.954 58.9291L998.177 70.1698H990.815L985.039 61.1362L983.514 70.1698H977.703L979.227 61.1362L970.402 70.1698H963.309L974.101 59.1978H974.098Z" fill="#EAECEF"/>
<path d="M1010.23 49H1003.13L1010.19 58.9291L999.713 70.1698H1006.81L1017.29 58.9291L1010.23 49ZM1021.44 49H1014.34L1021.41 58.9291L1010.93 70.1698H1018.02L1028.5 58.9291L1021.44 49ZM1032.94 49H1025.85L1032.91 58.9291L1022.43 70.1698H1029.52L1040 58.9291L1032.94 49Z" fill="#EAECEF"/>
<path d="M42.2756 75V48.8182H59.9176V53.3821H47.8111V59.6207H59.0099V64.1847H47.8111V70.4361H59.9688V75H42.2756ZM61.4979 75L68.3629 64.7855L61.5362 55.3636H67.7493L72.8501 63.0469H73.6939V55.3636H79.1399V63.0469H79.9581L85.0589 55.3636H91.272L84.4581 64.7855L91.3104 75H84.9567L79.9069 67.3295H79.1399V75H73.6939V67.3295H72.9268L67.8515 75H61.4979ZM101.187 75.3835C99.1676 75.3835 97.4289 74.9744 95.9716 74.1562C94.5227 73.3295 93.4062 72.1619 92.6221 70.6534C91.838 69.1364 91.446 67.3423 91.446 65.2713C91.446 63.2514 91.838 61.4787 92.6221 59.9531C93.4062 58.4276 94.5099 57.2386 95.9332 56.3864C97.365 55.5341 99.044 55.108 100.97 55.108C102.266 55.108 103.472 55.3168 104.588 55.7344C105.713 56.1435 106.693 56.7614 107.528 57.5881C108.372 58.4148 109.028 59.4545 109.497 60.7074C109.966 61.9517 110.2 63.4091 110.2 65.0795V66.5753H93.6193V63.2003H105.074C105.074 62.4162 104.903 61.7216 104.562 61.1165C104.222 60.5114 103.749 60.0384 103.143 59.6974C102.547 59.348 101.852 59.1733 101.06 59.1733C100.233 59.1733 99.5 59.3651 98.8608 59.7486C98.2301 60.1236 97.7358 60.6307 97.3778 61.2699C97.0199 61.9006 96.8366 62.6037 96.8281 63.3793V66.5881C96.8281 67.5597 97.0071 68.3991 97.365 69.1065C97.7315 69.8139 98.2471 70.3594 98.9119 70.7429C99.5767 71.1264 100.365 71.3182 101.277 71.3182C101.882 71.3182 102.436 71.233 102.939 71.0625C103.442 70.892 103.872 70.6364 104.23 70.2955C104.588 69.9545 104.861 69.5369 105.048 69.0426L110.085 69.375C109.83 70.5852 109.305 71.642 108.513 72.5455C107.729 73.4403 106.714 74.1392 105.47 74.642C104.234 75.1364 102.807 75.3835 101.187 75.3835ZM123.922 68.9787L129.24 55.3636H133.382L125.725 75H122.107L114.628 55.3636H118.757L123.922 68.9787ZM117.517 55.3636V75H112.314V55.3636H117.517ZM130.595 75V55.3636H135.735V75H130.595ZM147.456 75.3835C145.436 75.3835 143.697 74.9744 142.24 74.1562C140.791 73.3295 139.675 72.1619 138.891 70.6534C138.106 69.1364 137.714 67.3423 137.714 65.2713C137.714 63.2514 138.106 61.4787 138.891 59.9531C139.675 58.4276 140.778 57.2386 142.202 56.3864C143.633 55.5341 145.312 55.108 147.239 55.108C148.534 55.108 149.74 55.3168 150.856 55.7344C151.981 56.1435 152.962 56.7614 153.797 57.5881C154.641 58.4148 155.297 59.4545 155.766 60.7074C156.234 61.9517 156.469 63.4091 156.469 65.0795V66.5753H139.888V63.2003H151.342C151.342 62.4162 151.172 61.7216 150.831 61.1165C150.49 60.5114 150.017 60.0384 149.412 59.6974C148.815 59.348 148.121 59.1733 147.328 59.1733C146.501 59.1733 145.768 59.3651 145.129 59.7486C144.499 60.1236 144.004 60.6307 143.646 61.2699C143.288 61.9006 143.105 62.6037 143.097 63.3793V66.5881C143.097 67.5597 143.276 68.3991 143.633 69.1065C144 69.8139 144.516 70.3594 145.18 70.7429C145.845 71.1264 146.633 71.3182 147.545 71.3182C148.151 71.3182 148.704 71.233 149.207 71.0625C149.71 70.892 150.141 70.6364 150.499 70.2955C150.856 69.9545 151.129 69.5369 151.317 69.0426L156.354 69.375C156.098 70.5852 155.574 71.642 154.781 72.5455C153.997 73.4403 152.983 74.1392 151.739 74.642C150.503 75.1364 149.075 75.3835 147.456 75.3835ZM167.455 75.3835C165.443 75.3835 163.713 74.9574 162.264 74.1051C160.824 73.2443 159.716 72.0511 158.941 70.5256C158.174 69 157.79 67.2443 157.79 65.2585C157.79 63.2472 158.178 61.483 158.953 59.9659C159.738 58.4403 160.85 57.2514 162.29 56.3991C163.73 55.5384 165.443 55.108 167.429 55.108C169.142 55.108 170.642 55.419 171.929 56.0412C173.216 56.6634 174.235 57.5369 174.985 58.6619C175.735 59.7869 176.148 61.108 176.225 62.625H171.086C170.941 61.6449 170.557 60.8565 169.935 60.2599C169.321 59.6548 168.516 59.3523 167.519 59.3523C166.675 59.3523 165.938 59.5824 165.307 60.0426C164.685 60.4943 164.199 61.1548 163.85 62.0241C163.5 62.8935 163.326 63.946 163.326 65.1818C163.326 66.4347 163.496 67.5 163.837 68.3778C164.186 69.2557 164.676 69.9247 165.307 70.3849C165.938 70.8452 166.675 71.0753 167.519 71.0753C168.141 71.0753 168.699 70.9474 169.193 70.6918C169.696 70.4361 170.11 70.0653 170.434 69.5795C170.766 69.0852 170.983 68.4929 171.086 67.8026H176.225C176.139 69.3026 175.73 70.6236 174.997 71.7656C174.273 72.8991 173.272 73.7855 171.993 74.4247C170.715 75.0639 169.202 75.3835 167.455 75.3835ZM189.777 75V59.6335H186.095C185.098 59.6335 184.34 59.8636 183.82 60.3239C183.3 60.7841 183.044 61.3295 183.053 61.9602C183.044 62.5994 183.291 63.1406 183.794 63.5838C184.306 64.0185 185.056 64.2358 186.044 64.2358H191.593V67.9176H186.044C184.365 67.9176 182.912 67.6619 181.685 67.1506C180.458 66.6392 179.512 65.9276 178.847 65.0156C178.182 64.0952 177.854 63.0256 177.862 61.8068C177.854 60.5284 178.182 59.4077 178.847 58.4446C179.512 57.473 180.462 56.7187 181.698 56.1818C182.942 55.6364 184.408 55.3636 186.095 55.3636H194.853V75H189.777ZM177.3 75L182.759 64.7727H187.962L182.516 75H177.3ZM214.685 55.3636V75H209.52V55.3636H214.685ZM212.167 63.9801V68.2756C211.749 68.4631 211.229 68.642 210.607 68.8125C209.985 68.9744 209.333 69.1065 208.651 69.2088C207.969 69.3111 207.33 69.3622 206.734 69.3622C203.913 69.3622 201.692 68.7827 200.073 67.6236C198.454 66.456 197.644 64.5937 197.644 62.0369V55.3381H202.783V62.0369C202.783 62.7955 202.911 63.3963 203.167 63.8395C203.431 64.2827 203.849 64.6023 204.42 64.7983C204.999 64.9858 205.77 65.0795 206.734 65.0795C207.628 65.0795 208.506 64.9858 209.367 64.7983C210.228 64.6108 211.161 64.3381 212.167 63.9801ZM231.14 63.0085V67.2912H220.887V63.0085H231.14ZM222.677 55.3636V75H217.474V55.3636H222.677ZM234.553 55.3636V75H229.388V55.3636H234.553ZM240.752 61.3977H246.62C249.219 61.3977 251.247 62.0199 252.705 63.2642C254.162 64.5 254.891 66.1534 254.891 68.2244C254.891 69.571 254.563 70.7557 253.906 71.7784C253.25 72.7926 252.304 73.5852 251.068 74.1562C249.833 74.7188 248.35 75 246.62 75H237.338V55.3636H242.541V70.7173H246.62C247.531 70.7173 248.281 70.4872 248.87 70.027C249.458 69.5668 249.756 68.9787 249.764 68.2628C249.756 67.5043 249.458 66.8864 248.87 66.4091C248.281 65.9233 247.531 65.6804 246.62 65.6804H240.752V61.3977ZM257 75V55.3636H262.446V75H257ZM270.562 67.8153L277.632 55.3636H283.001V75H277.811V62.5099L270.767 75H265.359V55.3636H270.562V67.8153ZM276.699 48.5114H280.496C280.487 50.0625 279.912 51.3111 278.77 52.2571C277.636 53.2031 276.102 53.6761 274.167 53.6761C272.224 53.6761 270.686 53.2031 269.552 52.2571C268.419 51.3111 267.852 50.0625 267.852 48.5114H271.623C271.615 49.0994 271.802 49.6278 272.186 50.0966C272.578 50.5653 273.239 50.7997 274.167 50.7997C275.071 50.7997 275.719 50.5696 276.111 50.1094C276.503 49.6491 276.699 49.1165 276.699 48.5114ZM292.819 75V55.3636H309.988V75H304.785V59.6463H297.958V75H292.819ZM311.744 75L311.719 70.679H312.371C312.831 70.679 313.227 70.5682 313.559 70.3466C313.9 70.1165 314.182 69.7457 314.403 69.2344C314.625 68.723 314.8 68.0455 314.927 67.2017C315.055 66.3494 315.14 65.3011 315.183 64.0568L315.503 55.3636H330.434V75H325.244V59.6463H320.399L320.092 65.642C320.015 67.2869 319.815 68.7017 319.491 69.8864C319.176 71.071 318.737 72.0426 318.175 72.8011C317.612 73.5511 316.934 74.1051 316.142 74.4631C315.349 74.821 314.429 75 313.38 75H311.744ZM338.816 75.3707C337.563 75.3707 336.447 75.1534 335.466 74.7188C334.486 74.2756 333.711 73.6236 333.14 72.7628C332.577 71.8935 332.296 70.8111 332.296 69.5156C332.296 68.4247 332.496 67.5085 332.897 66.767C333.297 66.0256 333.843 65.429 334.533 64.9773C335.224 64.5256 336.008 64.1847 336.885 63.9545C337.772 63.7244 338.701 63.5625 339.672 63.4688C340.814 63.3494 341.735 63.2386 342.434 63.1364C343.133 63.0256 343.64 62.8636 343.955 62.6506C344.27 62.4375 344.428 62.1222 344.428 61.7045V61.6278C344.428 60.8182 344.172 60.1918 343.661 59.7486C343.158 59.3054 342.442 59.0838 341.513 59.0838C340.533 59.0838 339.753 59.3011 339.174 59.7358C338.594 60.1619 338.211 60.6989 338.023 61.3466L332.986 60.9375C333.242 59.7443 333.745 58.7131 334.495 57.8438C335.245 56.9659 336.212 56.2926 337.397 55.8239C338.59 55.3466 339.971 55.108 341.539 55.108C342.63 55.108 343.674 55.2358 344.671 55.4915C345.677 55.7472 346.567 56.1435 347.343 56.6804C348.127 57.2173 348.745 57.9077 349.197 58.7514C349.648 59.5866 349.874 60.5881 349.874 61.7557V75H344.709V72.277H344.556C344.241 72.8906 343.819 73.4318 343.29 73.9006C342.762 74.3608 342.127 74.723 341.385 74.9872C340.644 75.2429 339.787 75.3707 338.816 75.3707ZM340.376 71.6122C341.177 71.6122 341.884 71.4545 342.498 71.1392C343.111 70.8153 343.593 70.3807 343.942 69.8352C344.292 69.2898 344.466 68.6719 344.466 67.9815V65.8977C344.296 66.0085 344.062 66.1108 343.763 66.2045C343.474 66.2898 343.145 66.3707 342.779 66.4474C342.412 66.5156 342.046 66.5795 341.679 66.6392C341.313 66.6903 340.981 66.7372 340.682 66.7798C340.043 66.8736 339.485 67.0227 339.008 67.2273C338.53 67.4318 338.16 67.7088 337.895 68.0582C337.631 68.3991 337.499 68.8253 337.499 69.3366C337.499 70.0781 337.768 70.6449 338.304 71.0369C338.85 71.4205 339.54 71.6122 340.376 71.6122ZM350.687 59.6463V55.3636H368.483V59.6463H362.155V75H356.964V59.6463H350.687ZM378.59 75.3835C376.57 75.3835 374.831 74.9744 373.374 74.1562C371.925 73.3295 370.809 72.1619 370.025 70.6534C369.241 69.1364 368.848 67.3423 368.848 65.2713C368.848 63.2514 369.241 61.4787 370.025 59.9531C370.809 58.4276 371.912 57.2386 373.336 56.3864C374.768 55.5341 376.446 55.108 378.373 55.108C379.668 55.108 380.874 55.3168 381.991 55.7344C383.116 56.1435 384.096 56.7614 384.931 57.5881C385.775 58.4148 386.431 59.4545 386.9 60.7074C387.368 61.9517 387.603 63.4091 387.603 65.0795V66.5753H371.022V63.2003H382.476C382.476 62.4162 382.306 61.7216 381.965 61.1165C381.624 60.5114 381.151 60.0384 380.546 59.6974C379.949 59.348 379.255 59.1733 378.462 59.1733C377.635 59.1733 376.902 59.3651 376.263 59.7486C375.633 60.1236 375.138 60.6307 374.78 61.2699C374.422 61.9006 374.239 62.6037 374.231 63.3793V66.5881C374.231 67.5597 374.41 68.3991 374.768 69.1065C375.134 69.8139 375.65 70.3594 376.314 70.7429C376.979 71.1264 377.768 71.3182 378.679 71.3182C379.285 71.3182 379.839 71.233 380.341 71.0625C380.844 70.892 381.275 70.6364 381.633 70.2955C381.991 69.9545 382.263 69.5369 382.451 69.0426L387.488 69.375C387.232 70.5852 386.708 71.642 385.915 72.5455C385.131 73.4403 384.117 74.1392 382.873 74.642C381.637 75.1364 380.209 75.3835 378.59 75.3835ZM388.087 75L394.952 64.7855L388.125 55.3636H394.338L399.439 63.0469H400.283V55.3636H405.729V63.0469H406.547L411.648 55.3636H417.861L411.047 64.7855L417.899 75H411.546L406.496 67.3295H405.729V75H400.283V67.3295H399.516L394.44 75H388.087ZM51.0455 119.384C49.0597 119.384 47.3423 118.962 45.8935 118.118C44.4531 117.266 43.3409 116.081 42.5568 114.564C41.7727 113.038 41.3807 111.27 41.3807 109.259C41.3807 107.23 41.7727 105.457 42.5568 103.94C43.3409 102.415 44.4531 101.23 45.8935 100.386C47.3423 99.5341 49.0597 99.108 51.0455 99.108C53.0312 99.108 54.7443 99.5341 56.1847 100.386C57.6335 101.23 58.75 102.415 59.5341 103.94C60.3182 105.457 60.7102 107.23 60.7102 109.259C60.7102 111.27 60.3182 113.038 59.5341 114.564C58.75 116.081 57.6335 117.266 56.1847 118.118C54.7443 118.962 53.0312 119.384 51.0455 119.384ZM51.071 115.165C51.9744 115.165 52.7287 114.909 53.3338 114.398C53.9389 113.878 54.3949 113.17 54.7017 112.276C55.017 111.381 55.1747 110.362 55.1747 109.22C55.1747 108.078 55.017 107.06 54.7017 106.165C54.3949 105.27 53.9389 104.562 53.3338 104.043C52.7287 103.523 51.9744 103.263 51.071 103.263C50.1591 103.263 49.392 103.523 48.7699 104.043C48.1563 104.562 47.6918 105.27 47.3764 106.165C47.0696 107.06 46.9162 108.078 46.9162 109.22C46.9162 110.362 47.0696 111.381 47.3764 112.276C47.6918 113.17 48.1563 113.878 48.7699 114.398C49.392 114.909 50.1591 115.165 51.071 115.165ZM60.9098 103.646V99.3636H78.7052V103.646H72.3771V119H67.1868V103.646H60.9098ZM87.4588 119V99.3636H92.9048V106.983H94.4389L99.7826 99.3636H106.175L99.2329 109.105L106.251 119H99.7826L94.9375 112.033H92.9048V119H87.4588ZM112.712 119.371C111.459 119.371 110.343 119.153 109.363 118.719C108.382 118.276 107.607 117.624 107.036 116.763C106.473 115.893 106.192 114.811 106.192 113.516C106.192 112.425 106.392 111.509 106.793 110.767C107.193 110.026 107.739 109.429 108.429 108.977C109.12 108.526 109.904 108.185 110.782 107.955C111.668 107.724 112.597 107.562 113.568 107.469C114.711 107.349 115.631 107.239 116.33 107.136C117.029 107.026 117.536 106.864 117.851 106.651C118.166 106.437 118.324 106.122 118.324 105.705V105.628C118.324 104.818 118.068 104.192 117.557 103.749C117.054 103.305 116.338 103.084 115.409 103.084C114.429 103.084 113.649 103.301 113.07 103.736C112.49 104.162 112.107 104.699 111.919 105.347L106.882 104.938C107.138 103.744 107.641 102.713 108.391 101.844C109.141 100.966 110.108 100.293 111.293 99.8239C112.486 99.3466 113.867 99.108 115.435 99.108C116.526 99.108 117.57 99.2358 118.567 99.4915C119.573 99.7472 120.463 100.143 121.239 100.68C122.023 101.217 122.641 101.908 123.093 102.751C123.544 103.587 123.77 104.588 123.77 105.756V119H118.605V116.277H118.452C118.137 116.891 117.715 117.432 117.186 117.901C116.658 118.361 116.023 118.723 115.282 118.987C114.54 119.243 113.684 119.371 112.712 119.371ZM114.272 115.612C115.073 115.612 115.78 115.455 116.394 115.139C117.007 114.815 117.489 114.381 117.838 113.835C118.188 113.29 118.363 112.672 118.363 111.982V109.898C118.192 110.009 117.958 110.111 117.659 110.205C117.37 110.29 117.041 110.371 116.675 110.447C116.309 110.516 115.942 110.58 115.576 110.639C115.209 110.69 114.877 110.737 114.578 110.78C113.939 110.874 113.381 111.023 112.904 111.227C112.426 111.432 112.056 111.709 111.791 112.058C111.527 112.399 111.395 112.825 111.395 113.337C111.395 114.078 111.664 114.645 112.201 115.037C112.746 115.42 113.436 115.612 114.272 115.612ZM124.583 103.646V99.3636H142.379V103.646H136.051V119H130.86V103.646H124.583ZM152.486 119.384C150.466 119.384 148.728 118.974 147.27 118.156C145.821 117.33 144.705 116.162 143.921 114.653C143.137 113.136 142.745 111.342 142.745 109.271C142.745 107.251 143.137 105.479 143.921 103.953C144.705 102.428 145.809 101.239 147.232 100.386C148.664 99.5341 150.343 99.108 152.269 99.108C153.564 99.108 154.77 99.3168 155.887 99.7344C157.012 100.143 157.992 100.761 158.827 101.588C159.671 102.415 160.327 103.455 160.796 104.707C161.264 105.952 161.499 107.409 161.499 109.08V110.575H144.918V107.2H156.372C156.372 106.416 156.202 105.722 155.861 105.116C155.52 104.511 155.047 104.038 154.442 103.697C153.845 103.348 153.151 103.173 152.358 103.173C151.532 103.173 150.799 103.365 150.159 103.749C149.529 104.124 149.034 104.631 148.676 105.27C148.318 105.901 148.135 106.604 148.127 107.379V110.588C148.127 111.56 148.306 112.399 148.664 113.107C149.03 113.814 149.546 114.359 150.21 114.743C150.875 115.126 151.664 115.318 152.576 115.318C153.181 115.318 153.735 115.233 154.237 115.062C154.74 114.892 155.171 114.636 155.529 114.295C155.887 113.955 156.159 113.537 156.347 113.043L161.384 113.375C161.128 114.585 160.604 115.642 159.811 116.545C159.027 117.44 158.013 118.139 156.769 118.642C155.533 119.136 154.105 119.384 152.486 119.384ZM177.062 99.3636V103.646H168.905V119H163.613V99.3636H177.062ZM187.111 119.384C185.126 119.384 183.408 118.962 181.959 118.118C180.519 117.266 179.407 116.081 178.623 114.564C177.839 113.038 177.447 111.27 177.447 109.259C177.447 107.23 177.839 105.457 178.623 103.94C179.407 102.415 180.519 101.23 181.959 100.386C183.408 99.5341 185.126 99.108 187.111 99.108C189.097 99.108 190.81 99.5341 192.251 100.386C193.699 101.23 194.816 102.415 195.6 103.94C196.384 105.457 196.776 107.23 196.776 109.259C196.776 111.27 196.384 113.038 195.6 114.564C194.816 116.081 193.699 117.266 192.251 118.118C190.81 118.962 189.097 119.384 187.111 119.384ZM187.137 115.165C188.04 115.165 188.795 114.909 189.4 114.398C190.005 113.878 190.461 113.17 190.768 112.276C191.083 111.381 191.241 110.362 191.241 109.22C191.241 108.078 191.083 107.06 190.768 106.165C190.461 105.27 190.005 104.562 189.4 104.043C188.795 103.523 188.04 103.263 187.137 103.263C186.225 103.263 185.458 103.523 184.836 104.043C184.222 104.562 183.758 105.27 183.442 106.165C183.136 107.06 182.982 108.078 182.982 109.22C182.982 110.362 183.136 111.381 183.442 112.276C183.758 113.17 184.222 113.878 184.836 114.398C185.458 114.909 186.225 115.165 187.137 115.165ZM198.877 126.364V99.3636H204.247V102.662H204.49C204.728 102.134 205.073 101.597 205.525 101.051C205.985 100.497 206.582 100.037 207.315 99.6705C208.056 99.2955 208.977 99.108 210.076 99.108C211.508 99.108 212.829 99.483 214.039 100.233C215.25 100.974 216.217 102.095 216.941 103.595C217.666 105.087 218.028 106.957 218.028 109.207C218.028 111.398 217.674 113.247 216.967 114.756C216.268 116.256 215.313 117.393 214.103 118.169C212.901 118.936 211.555 119.32 210.063 119.32C209.007 119.32 208.107 119.145 207.366 118.795C206.633 118.446 206.032 118.007 205.563 117.479C205.095 116.942 204.737 116.401 204.49 115.855H204.323V126.364H198.877ZM204.208 109.182C204.208 110.349 204.37 111.368 204.694 112.237C205.018 113.107 205.487 113.784 206.1 114.27C206.714 114.747 207.46 114.986 208.338 114.986C209.224 114.986 209.974 114.743 210.588 114.257C211.201 113.763 211.666 113.081 211.981 112.212C212.305 111.334 212.467 110.324 212.467 109.182C212.467 108.048 212.309 107.051 211.994 106.19C211.678 105.33 211.214 104.656 210.6 104.17C209.987 103.685 209.232 103.442 208.338 103.442C207.451 103.442 206.701 103.676 206.088 104.145C205.482 104.614 205.018 105.278 204.694 106.139C204.37 107 204.208 108.014 204.208 109.182ZM225.422 111.815L232.491 99.3636H237.861V119H232.67V106.51L225.626 119H220.219V99.3636H225.422V111.815ZM245.99 111.815L253.059 99.3636H258.428V119H253.238V106.51L246.194 119H240.786V99.3636H245.99V111.815ZM266.712 124.753V114.679H268.221C268.655 114.406 269.005 113.972 269.269 113.375C269.542 112.778 269.763 112.075 269.934 111.266C270.113 110.456 270.249 109.582 270.343 108.645C270.445 107.699 270.535 106.744 270.611 105.781L271.123 99.3636H286.182V114.679H289.225V124.753H284.035V119H272.03V124.753H266.712ZM273.641 114.679H281.043V103.557H275.751L275.546 105.781C275.401 107.878 275.192 109.659 274.92 111.125C274.647 112.582 274.221 113.767 273.641 114.679ZM299.831 119.384C297.845 119.384 296.128 118.962 294.679 118.118C293.238 117.266 292.126 116.081 291.342 114.564C290.558 113.038 290.166 111.27 290.166 109.259C290.166 107.23 290.558 105.457 291.342 103.94C292.126 102.415 293.238 101.23 294.679 100.386C296.128 99.5341 297.845 99.108 299.831 99.108C301.817 99.108 303.53 99.5341 304.97 100.386C306.419 101.23 307.535 102.415 308.319 103.94C309.103 105.457 309.496 107.23 309.496 109.259C309.496 111.27 309.103 113.038 308.319 114.564C307.535 116.081 306.419 117.266 304.97 118.118C303.53 118.962 301.817 119.384 299.831 119.384ZM299.856 115.165C300.76 115.165 301.514 114.909 302.119 114.398C302.724 113.878 303.18 113.17 303.487 112.276C303.802 111.381 303.96 110.362 303.96 109.22C303.96 108.078 303.802 107.06 303.487 106.165C303.18 105.27 302.724 104.562 302.119 104.043C301.514 103.523 300.76 103.263 299.856 103.263C298.944 103.263 298.177 103.523 297.555 104.043C296.942 104.562 296.477 105.27 296.162 106.165C295.855 107.06 295.702 108.078 295.702 109.22C295.702 110.362 295.855 111.381 296.162 112.276C296.477 113.17 296.942 113.878 297.555 114.398C298.177 114.909 298.944 115.165 299.856 115.165ZM315.445 99.3636L319.05 106.229L322.744 99.3636H328.331L322.642 109.182L328.485 119H322.923L319.05 112.212L315.24 119H309.615L315.445 109.182L309.82 99.3636H315.445ZM338.295 119.384C336.309 119.384 334.591 118.962 333.143 118.118C331.702 117.266 330.59 116.081 329.806 114.564C329.022 113.038 328.63 111.27 328.63 109.259C328.63 107.23 329.022 105.457 329.806 103.94C330.59 102.415 331.702 101.23 333.143 100.386C334.591 99.5341 336.309 99.108 338.295 99.108C340.28 99.108 341.993 99.5341 343.434 100.386C344.883 101.23 345.999 102.415 346.783 103.94C347.567 105.457 347.959 107.23 347.959 109.259C347.959 111.27 347.567 113.038 346.783 114.564C345.999 116.081 344.883 117.266 343.434 118.118C341.993 118.962 340.28 119.384 338.295 119.384ZM338.32 115.165C339.223 115.165 339.978 114.909 340.583 114.398C341.188 113.878 341.644 113.17 341.951 112.276C342.266 111.381 342.424 110.362 342.424 109.22C342.424 108.078 342.266 107.06 341.951 106.165C341.644 105.27 341.188 104.562 340.583 104.043C339.978 103.523 339.223 103.263 338.32 103.263C337.408 103.263 336.641 103.523 336.019 104.043C335.405 104.562 334.941 105.27 334.625 106.165C334.319 107.06 334.165 108.078 334.165 109.22C334.165 110.362 334.319 111.381 334.625 112.276C334.941 113.17 335.405 113.878 336.019 114.398C336.641 114.909 337.408 115.165 338.32 115.165ZM348.526 124.753V114.679H350.035C350.47 114.406 350.819 113.972 351.083 113.375C351.356 112.778 351.578 112.075 351.748 111.266C351.927 110.456 352.063 109.582 352.157 108.645C352.259 107.699 352.349 106.744 352.426 105.781L352.937 99.3636H367.997V114.679H371.039V124.753H365.849V119H353.845V124.753H348.526ZM355.455 114.679H362.857V103.557H357.565L357.36 105.781C357.215 107.878 357.006 109.659 356.734 111.125C356.461 112.582 356.035 113.767 355.455 114.679ZM381.645 119.384C379.659 119.384 377.942 118.962 376.493 118.118C375.053 117.266 373.94 116.081 373.156 114.564C372.372 113.038 371.98 111.27 371.98 109.259C371.98 107.23 372.372 105.457 373.156 103.94C373.94 102.415 375.053 101.23 376.493 100.386C377.942 99.5341 379.659 99.108 381.645 99.108C383.631 99.108 385.344 99.5341 386.784 100.386C388.233 101.23 389.35 102.415 390.134 103.94C390.918 105.457 391.31 107.23 391.31 109.259C391.31 111.27 390.918 113.038 390.134 114.564C389.35 116.081 388.233 117.266 386.784 118.118C385.344 118.962 383.631 119.384 381.645 119.384ZM381.671 115.165C382.574 115.165 383.328 114.909 383.933 114.398C384.538 113.878 384.994 113.17 385.301 112.276C385.617 111.381 385.774 110.362 385.774 109.22C385.774 108.078 385.617 107.06 385.301 106.165C384.994 105.27 384.538 104.562 383.933 104.043C383.328 103.523 382.574 103.263 381.671 103.263C380.759 103.263 379.992 103.523 379.369 104.043C378.756 104.562 378.291 105.27 377.976 106.165C377.669 107.06 377.516 108.078 377.516 109.22C377.516 110.362 377.669 111.381 377.976 112.276C378.291 113.17 378.756 113.878 379.369 114.398C379.992 114.909 380.759 115.165 381.671 115.165ZM393.411 119V99.3636H401.785C404.205 99.3636 406.118 99.8239 407.525 100.744C408.931 101.665 409.634 102.973 409.634 104.669C409.634 105.734 409.238 106.621 408.445 107.328C407.652 108.036 406.553 108.513 405.147 108.76C406.323 108.845 407.324 109.114 408.151 109.565C408.986 110.009 409.621 110.584 410.056 111.291C410.499 111.999 410.721 112.783 410.721 113.643C410.721 114.76 410.422 115.719 409.826 116.52C409.238 117.321 408.373 117.935 407.231 118.361C406.097 118.787 404.712 119 403.076 119H393.411ZM398.486 114.922H403.076C403.834 114.922 404.427 114.743 404.853 114.385C405.287 114.018 405.505 113.52 405.505 112.889C405.505 112.19 405.287 111.641 404.853 111.24C404.427 110.839 403.834 110.639 403.076 110.639H398.486V114.922ZM398.486 107.443H401.9C402.445 107.443 402.91 107.366 403.293 107.213C403.685 107.051 403.983 106.821 404.188 106.523C404.401 106.224 404.508 105.871 404.508 105.462C404.508 104.857 404.265 104.384 403.779 104.043C403.293 103.702 402.628 103.531 401.785 103.531H398.486V107.443Z" fill="black"/>
<path opacity="0.6" d="M51.4551 503.315V502.011L57.2079 492.909H58.154V494.929H57.5148L53.1682 501.807V501.909H60.9153V503.315H51.4551ZM57.617 506V502.919V502.312V492.909H59.1255V506H57.617ZM62.9998 506L68.8549 494.418V494.315H62.1049V492.909H70.4913V494.392L64.6618 506H62.9998ZM72.1795 504.21L72.0772 504.901C72.0048 505.386 71.894 505.906 71.7449 506.46C71.6 507.014 71.4487 507.536 71.291 508.026C71.1333 508.516 71.0034 508.906 70.9011 509.196H69.7505C69.8059 508.923 69.8784 508.563 69.9679 508.116C70.0574 507.668 70.1468 507.168 70.2363 506.614C70.3301 506.064 70.4068 505.501 70.4664 504.926L70.5431 504.21H72.1795ZM77.2667 492.909V506H75.6815V494.571H75.6048L72.4087 496.693V495.082L75.6815 492.909H77.2667ZM88.2377 506L83.7377 499.991H82.1269V506H80.5417V492.909H82.1269V498.585H82.8173L88.0588 492.909H89.9508L84.6582 498.662L90.1298 506H88.2377Z" fill="black"/>
<rect x="40" y="720" width="201" height="61" transform="rotate(-90 40 720)" fill="url(#paint0_linear_3239_2778)"/>
<path d="M40 519L101 519" stroke="#04B34A" stroke-width="4"/>
<path opacity="0.6" d="M46.4879 737.909V751H44.1165V740.217H44.0398L40.978 742.173V739.999L44.2315 737.909H46.4879ZM57.5884 743.502V745.407H51.6949V743.502H57.5884ZM61.5601 748.571V746.685L67.1147 737.909H68.6872V740.594H67.7284L63.989 746.519V746.621H71.7426V748.571H61.5601ZM67.8051 751V747.996L67.8306 747.152V737.909H70.0679V751H67.8051ZM80.1296 737.73C80.756 737.734 81.3654 737.845 81.9577 738.062C82.5543 738.276 83.0912 738.625 83.5685 739.111C84.0458 739.592 84.425 740.238 84.7063 741.048C84.9875 741.857 85.1282 742.859 85.1282 744.052C85.1324 745.177 85.0131 746.183 84.7702 747.069C84.5316 747.951 84.1885 748.697 83.7411 749.306C83.2936 749.915 82.7546 750.38 82.1239 750.7C81.4932 751.019 80.7837 751.179 79.9953 751.179C79.1686 751.179 78.4357 751.017 77.7965 750.693C77.1615 750.369 76.648 749.926 76.256 749.364C75.864 748.801 75.6232 748.158 75.5337 747.433H77.8668C77.9861 747.953 78.229 748.366 78.5955 748.673C78.9662 748.976 79.4328 749.127 79.9953 749.127C80.903 749.127 81.6019 748.733 82.0919 747.945C82.582 747.156 82.827 746.061 82.827 744.659H82.7375C82.5287 745.034 82.2581 745.358 81.9257 745.631C81.5934 745.899 81.2162 746.106 80.7944 746.251C80.3767 746.396 79.9336 746.468 79.4648 746.468C78.6978 746.468 78.0074 746.285 77.3938 745.918C76.7844 745.552 76.3007 745.049 75.9428 744.41C75.5891 743.771 75.4101 743.04 75.4059 742.217C75.4059 741.365 75.6019 740.6 75.9939 739.923C76.3902 739.241 76.9421 738.704 77.6495 738.312C78.3569 737.915 79.1836 737.722 80.1296 737.73ZM80.136 739.648C79.6757 739.648 79.2603 739.761 78.8895 739.987C78.523 740.208 78.2333 740.511 78.0202 740.894C77.8114 741.273 77.707 741.697 77.707 742.166C77.7113 742.631 77.8157 743.053 78.0202 743.432C78.229 743.811 78.5124 744.112 78.8703 744.333C79.2326 744.555 79.6459 744.665 80.1104 744.665C80.4556 744.665 80.7773 744.599 81.0756 744.467C81.3739 744.335 81.6338 744.152 81.8554 743.918C82.0813 743.679 82.256 743.408 82.3796 743.106C82.5074 742.803 82.5692 742.484 82.565 742.147C82.565 741.7 82.4584 741.286 82.2453 740.907C82.0365 740.528 81.7489 740.223 81.3824 739.993C81.0202 739.763 80.6047 739.648 80.136 739.648ZM97.0276 751L92.7194 745.279H91.556V751H89.1846V737.909H91.556V743.291H92.1505L96.8039 737.909H99.725L94.5539 743.879L99.9488 751H97.0276Z" fill="black"/>
<path opacity="0.6" d="M208.229 571.179C207.385 571.179 206.633 571.034 205.973 570.744C205.317 570.455 204.794 570.052 204.407 569.536C204.023 569.016 203.814 568.413 203.78 567.727H205.391C205.425 568.149 205.57 568.513 205.826 568.82C206.081 569.123 206.416 569.357 206.829 569.523C207.243 569.69 207.701 569.773 208.204 569.773C208.766 569.773 209.265 569.675 209.699 569.479C210.134 569.283 210.475 569.01 210.722 568.661C210.969 568.311 211.093 567.906 211.093 567.446C211.093 566.964 210.973 566.54 210.735 566.174C210.496 565.803 210.147 565.513 209.687 565.305C209.226 565.096 208.664 564.991 207.999 564.991H206.951V563.585H207.999C208.519 563.585 208.975 563.491 209.367 563.304C209.763 563.116 210.072 562.852 210.294 562.511C210.52 562.17 210.633 561.77 210.633 561.31C210.633 560.866 210.535 560.481 210.339 560.153C210.143 559.825 209.866 559.569 209.508 559.386C209.154 559.202 208.736 559.111 208.255 559.111C207.803 559.111 207.377 559.194 206.976 559.36C206.58 559.522 206.256 559.759 206.005 560.07C205.753 560.376 205.617 560.747 205.596 561.182H204.062C204.087 560.496 204.294 559.895 204.682 559.379C205.069 558.859 205.576 558.455 206.203 558.165C206.834 557.875 207.526 557.73 208.28 557.73C209.09 557.73 209.785 557.894 210.364 558.222C210.944 558.546 211.389 558.974 211.7 559.507C212.011 560.04 212.167 560.615 212.167 561.233C212.167 561.97 211.973 562.599 211.585 563.119C211.201 563.638 210.679 563.999 210.019 564.199V564.301C210.846 564.437 211.491 564.789 211.956 565.356C212.42 565.918 212.652 566.615 212.652 567.446C212.652 568.158 212.459 568.797 212.071 569.364C211.687 569.926 211.163 570.369 210.498 570.693C209.834 571.017 209.077 571.179 208.229 571.179ZM214.956 571L220.811 559.418V559.315H214.061V557.909H222.447V559.392L216.618 571H214.956ZM224.136 569.21L224.033 569.901C223.961 570.386 223.85 570.906 223.701 571.46C223.556 572.014 223.405 572.536 223.247 573.026C223.089 573.516 222.959 573.906 222.857 574.196H221.707C221.762 573.923 221.834 573.563 221.924 573.116C222.013 572.668 222.103 572.168 222.192 571.614C222.286 571.064 222.363 570.501 222.422 569.926L222.499 569.21H224.136ZM229.223 557.909V571H227.638V559.571H227.561L224.365 561.693V560.082L227.638 557.909H229.223ZM240.194 571L235.694 564.991H234.083V571H232.498V557.909H234.083V563.585H234.773L240.015 557.909H241.907L236.614 563.662L242.086 571H240.194Z" fill="black"/>
<rect x="192" y="720" width="136" height="61" transform="rotate(-90 192 720)" fill="url(#paint1_linear_3239_2778)"/>
<path d="M192 584L253 584" stroke="#04B34A" stroke-width="4"/>
<path opacity="0.6" d="M189.714 751.179C188.862 751.179 188.099 751.019 187.426 750.7C186.753 750.376 186.218 749.933 185.822 749.37C185.43 748.808 185.221 748.164 185.195 747.44H187.496C187.539 747.977 187.771 748.415 188.193 748.756C188.615 749.093 189.122 749.261 189.714 749.261C190.179 749.261 190.592 749.155 190.955 748.942C191.317 748.729 191.602 748.433 191.811 748.053C192.02 747.674 192.122 747.241 192.118 746.756C192.122 746.261 192.018 745.822 191.805 745.439C191.592 745.055 191.3 744.755 190.929 744.538C190.558 744.316 190.132 744.205 189.651 744.205C189.259 744.201 188.873 744.273 188.494 744.423C188.114 744.572 187.814 744.768 187.592 745.011L185.451 744.659L186.135 737.909H193.729V739.891H188.097L187.72 743.362H187.797C188.04 743.076 188.383 742.839 188.826 742.652C189.269 742.46 189.755 742.364 190.283 742.364C191.076 742.364 191.783 742.552 192.406 742.927C193.028 743.298 193.518 743.809 193.876 744.461C194.234 745.113 194.413 745.859 194.413 746.698C194.413 747.563 194.212 748.335 193.812 749.012C193.415 749.685 192.864 750.216 192.156 750.604C191.453 750.987 190.639 751.179 189.714 751.179ZM203.193 751.249C202.14 751.249 201.237 750.983 200.483 750.45C199.733 749.913 199.155 749.14 198.75 748.13C198.35 747.116 198.149 745.895 198.149 744.467C198.154 743.04 198.356 741.825 198.757 740.824C199.162 739.818 199.739 739.051 200.489 738.523C201.243 737.994 202.144 737.73 203.193 737.73C204.241 737.73 205.142 737.994 205.897 738.523C206.651 739.051 207.228 739.818 207.629 740.824C208.034 741.83 208.236 743.044 208.236 744.467C208.236 745.899 208.034 747.122 207.629 748.136C207.228 749.146 206.651 749.918 205.897 750.45C205.147 750.983 204.245 751.249 203.193 751.249ZM203.193 749.249C204.011 749.249 204.657 748.846 205.13 748.04C205.607 747.231 205.845 746.04 205.845 744.467C205.845 743.428 205.737 742.554 205.519 741.847C205.302 741.139 204.995 740.607 204.599 740.249C204.203 739.886 203.734 739.705 203.193 739.705C202.379 739.705 201.735 740.11 201.262 740.92C200.789 741.725 200.551 742.908 200.546 744.467C200.542 745.511 200.647 746.389 200.86 747.101C201.077 747.812 201.384 748.349 201.78 748.712C202.176 749.07 202.647 749.249 203.193 749.249ZM218.136 743.502V745.407H212.243V743.502H218.136ZM226.889 737.73C227.516 737.734 228.125 737.845 228.717 738.062C229.314 738.276 229.851 738.625 230.328 739.111C230.806 739.592 231.185 740.238 231.466 741.048C231.747 741.857 231.888 742.859 231.888 744.052C231.892 745.177 231.773 746.183 231.53 747.069C231.291 747.951 230.948 748.697 230.501 749.306C230.053 749.915 229.514 750.38 228.884 750.7C228.253 751.019 227.543 751.179 226.755 751.179C225.928 751.179 225.195 751.017 224.556 750.693C223.921 750.369 223.408 749.926 223.016 749.364C222.624 748.801 222.383 748.158 222.293 747.433H224.627C224.746 747.953 224.989 748.366 225.355 748.673C225.726 748.976 226.193 749.127 226.755 749.127C227.663 749.127 228.362 748.733 228.852 747.945C229.342 747.156 229.587 746.061 229.587 744.659H229.497C229.288 745.034 229.018 745.358 228.686 745.631C228.353 745.899 227.976 746.106 227.554 746.251C227.137 746.396 226.693 746.468 226.225 746.468C225.458 746.468 224.767 746.285 224.154 745.918C223.544 745.552 223.061 745.049 222.703 744.41C222.349 743.771 222.17 743.04 222.166 742.217C222.166 741.365 222.362 740.6 222.754 739.923C223.15 739.241 223.702 738.704 224.409 738.312C225.117 737.915 225.943 737.722 226.889 737.73ZM226.896 739.648C226.436 739.648 226.02 739.761 225.649 739.987C225.283 740.208 224.993 740.511 224.78 740.894C224.571 741.273 224.467 741.697 224.467 742.166C224.471 742.631 224.575 743.053 224.78 743.432C224.989 743.811 225.272 744.112 225.63 744.333C225.992 744.555 226.406 744.665 226.87 744.665C227.215 744.665 227.537 744.599 227.835 744.467C228.134 744.335 228.394 744.152 228.615 743.918C228.841 743.679 229.016 743.408 229.139 743.106C229.267 742.803 229.329 742.484 229.325 742.147C229.325 741.7 229.218 741.286 229.005 740.907C228.796 740.528 228.509 740.223 228.142 739.993C227.78 739.763 227.364 739.648 226.896 739.648ZM240.361 737.73C240.988 737.734 241.597 737.845 242.189 738.062C242.786 738.276 243.323 738.625 243.8 739.111C244.277 739.592 244.657 740.238 244.938 741.048C245.219 741.857 245.36 742.859 245.36 744.052C245.364 745.177 245.245 746.183 245.002 747.069C244.763 747.951 244.42 748.697 243.973 749.306C243.525 749.915 242.986 750.38 242.356 750.7C241.725 751.019 241.015 751.179 240.227 751.179C239.4 751.179 238.667 751.017 238.028 750.693C237.393 750.369 236.88 749.926 236.488 749.364C236.096 748.801 235.855 748.158 235.765 747.433H238.098C238.218 747.953 238.461 748.366 238.827 748.673C239.198 748.976 239.664 749.127 240.227 749.127C241.135 749.127 241.834 748.733 242.324 747.945C242.814 747.156 243.059 746.061 243.059 744.659H242.969C242.76 745.034 242.49 745.358 242.157 745.631C241.825 745.899 241.448 746.106 241.026 746.251C240.608 746.396 240.165 746.468 239.696 746.468C238.929 746.468 238.239 746.285 237.625 745.918C237.016 745.552 236.532 745.049 236.174 744.41C235.821 743.771 235.642 743.04 235.638 742.217C235.638 741.365 235.834 740.6 236.226 739.923C236.622 739.241 237.174 738.704 237.881 738.312C238.588 737.915 239.415 737.722 240.361 737.73ZM240.368 739.648C239.907 739.648 239.492 739.761 239.121 739.987C238.755 740.208 238.465 740.511 238.252 740.894C238.043 741.273 237.939 741.697 237.939 742.166C237.943 742.631 238.047 743.053 238.252 743.432C238.461 743.811 238.744 744.112 239.102 744.333C239.464 744.555 239.878 744.665 240.342 744.665C240.687 744.665 241.009 744.599 241.307 744.467C241.606 744.335 241.865 744.152 242.087 743.918C242.313 743.679 242.488 743.408 242.611 743.106C242.739 742.803 242.801 742.484 242.797 742.147C242.797 741.7 242.69 741.286 242.477 740.907C242.268 740.528 241.981 740.223 241.614 739.993C241.252 739.763 240.836 739.648 240.368 739.648ZM257.259 751L252.951 745.279H251.788V751H249.416V737.909H251.788V743.291H252.382L257.036 737.909H259.957L254.786 743.879L260.18 751H257.259Z" fill="black"/>
<path opacity="0.6" d="M352.019 525.315V524.011L357.771 514.909H358.717V516.929H358.078L353.732 523.807V523.909H361.479V525.315H352.019ZM358.181 528V524.919V524.312V514.909H359.689V528H358.181ZM362.847 525.315V524.011L368.6 514.909H369.546V516.929H368.907L364.56 523.807V523.909H372.308V525.315H362.847ZM369.009 528V524.919V524.312V514.909H370.518V528H369.009ZM375.643 526.21L375.541 526.901C375.469 527.386 375.358 527.906 375.209 528.46C375.064 529.014 374.913 529.536 374.755 530.026C374.597 530.516 374.467 530.906 374.365 531.196H373.214C373.27 530.923 373.342 530.563 373.432 530.116C373.521 529.668 373.611 529.168 373.7 528.614C373.794 528.064 373.871 527.501 373.93 526.926L374.007 526.21H375.643ZM381.582 528.179C381.045 528.17 380.508 528.068 379.971 527.872C379.435 527.676 378.945 527.346 378.501 526.881C378.058 526.413 377.702 525.78 377.434 524.983C377.165 524.182 377.031 523.176 377.031 521.966C377.031 520.807 377.14 519.78 377.357 518.885C377.574 517.986 377.89 517.229 378.303 516.616C378.717 515.998 379.215 515.529 379.799 515.21C380.387 514.89 381.05 514.73 381.787 514.73C382.52 514.73 383.172 514.877 383.743 515.171C384.318 515.461 384.787 515.866 385.149 516.386C385.511 516.906 385.746 517.504 385.852 518.182H384.293C384.148 517.594 383.866 517.106 383.449 516.718C383.031 516.33 382.477 516.136 381.787 516.136C380.773 516.136 379.974 516.577 379.39 517.46C378.81 518.342 378.518 519.58 378.514 521.173H378.616C378.855 520.811 379.138 520.502 379.467 520.246C379.799 519.987 380.165 519.786 380.566 519.646C380.967 519.505 381.391 519.435 381.838 519.435C382.588 519.435 383.274 519.622 383.896 519.997C384.518 520.368 385.017 520.881 385.392 521.538C385.767 522.19 385.954 522.938 385.954 523.781C385.954 524.591 385.773 525.332 385.411 526.006C385.049 526.675 384.54 527.207 383.883 527.604C383.231 527.996 382.464 528.188 381.582 528.179ZM381.582 526.773C382.119 526.773 382.601 526.638 383.027 526.37C383.457 526.102 383.796 525.741 384.043 525.29C384.295 524.838 384.42 524.335 384.42 523.781C384.42 523.24 384.299 522.748 384.056 522.305C383.817 521.857 383.487 521.501 383.065 521.237C382.648 520.973 382.17 520.841 381.633 520.841C381.229 520.841 380.851 520.922 380.502 521.084C380.153 521.241 379.846 521.459 379.582 521.736C379.322 522.013 379.117 522.33 378.968 522.688C378.819 523.042 378.744 523.415 378.744 523.807C378.744 524.327 378.866 524.812 379.109 525.264C379.356 525.716 379.692 526.08 380.119 526.357C380.549 526.634 381.037 526.773 381.582 526.773ZM395.674 528L391.174 521.991H389.563V528H387.978V514.909H389.563V520.585H390.254L395.495 514.909H397.387L392.095 520.662L397.566 528H395.674Z" fill="black"/>
<rect x="344" y="720" width="179" height="61" transform="rotate(-90 344 720)" fill="url(#paint2_linear_3239_2778)"/>
<path d="M344 541L405 541" stroke="#04B34A" stroke-width="4"/>
<path opacity="0.6" d="M331.488 737.909V751H329.116V740.217H329.04L325.978 742.173V739.999L329.232 737.909H331.488ZM341.451 751.249C340.398 751.249 339.495 750.983 338.74 750.45C337.99 749.913 337.413 749.14 337.008 748.13C336.608 747.116 336.407 745.895 336.407 744.467C336.412 743.04 336.614 741.825 337.014 740.824C337.419 739.818 337.997 739.051 338.747 738.523C339.501 737.994 340.402 737.73 341.451 737.73C342.499 737.73 343.4 737.994 344.154 738.523C344.909 739.051 345.486 739.818 345.887 740.824C346.291 741.83 346.494 743.044 346.494 744.467C346.494 745.899 346.291 747.122 345.887 748.136C345.486 749.146 344.909 749.918 344.154 750.45C343.404 750.983 342.503 751.249 341.451 751.249ZM341.451 749.249C342.269 749.249 342.914 748.846 343.387 748.04C343.865 747.231 344.103 746.04 344.103 744.467C344.103 743.428 343.995 742.554 343.777 741.847C343.56 741.139 343.253 740.607 342.857 740.249C342.461 739.886 341.992 739.705 341.451 739.705C340.637 739.705 339.993 740.11 339.52 740.92C339.047 741.725 338.809 742.908 338.804 744.467C338.8 745.511 338.904 746.389 339.117 747.101C339.335 747.812 339.642 748.349 340.038 748.712C340.434 749.07 340.905 749.249 341.451 749.249ZM355.256 751.249C354.204 751.249 353.3 750.983 352.546 750.45C351.796 749.913 351.219 749.14 350.814 748.13C350.413 747.116 350.213 745.895 350.213 744.467C350.217 743.04 350.42 741.825 350.82 740.824C351.225 739.818 351.803 739.051 352.553 738.523C353.307 737.994 354.208 737.73 355.256 737.73C356.305 737.73 357.206 737.994 357.96 738.523C358.715 739.051 359.292 739.818 359.693 740.824C360.097 741.83 360.3 743.044 360.3 744.467C360.3 745.899 360.097 747.122 359.693 748.136C359.292 749.146 358.715 749.918 357.96 750.45C357.21 750.983 356.309 751.249 355.256 751.249ZM355.256 749.249C356.075 749.249 356.72 748.846 357.193 748.04C357.67 747.231 357.909 746.04 357.909 744.467C357.909 743.428 357.8 742.554 357.583 741.847C357.366 741.139 357.059 740.607 356.663 740.249C356.266 739.886 355.798 739.705 355.256 739.705C354.443 739.705 353.799 740.11 353.326 740.92C352.853 741.725 352.614 742.908 352.61 744.467C352.606 745.511 352.71 746.389 352.923 747.101C353.141 747.812 353.447 748.349 353.844 748.712C354.24 749.07 354.711 749.249 355.256 749.249ZM370.2 743.502V745.407H364.307V743.502H370.2ZM379.733 737.909V751H377.361V740.217H377.285L374.223 742.173V739.999L377.476 737.909H379.733ZM384.62 748.571V746.685L390.175 737.909H391.747V740.594H390.789L387.049 746.519V746.621H394.803V748.571H384.62ZM390.865 751V747.996L390.891 747.152V737.909H393.128V751H390.865ZM403.19 737.73C403.816 737.734 404.426 737.845 405.018 738.062C405.614 738.276 406.151 738.625 406.629 739.111C407.106 739.592 407.485 740.238 407.766 741.048C408.048 741.857 408.188 742.859 408.188 744.052C408.193 745.177 408.073 746.183 407.83 747.069C407.592 747.951 407.249 748.697 406.801 749.306C406.354 749.915 405.815 750.38 405.184 750.7C404.553 751.019 403.844 751.179 403.056 751.179C402.229 751.179 401.496 751.017 400.857 750.693C400.222 750.369 399.708 749.926 399.316 749.364C398.924 748.801 398.683 748.158 398.594 747.433H400.927C401.046 747.953 401.289 748.366 401.656 748.673C402.026 748.976 402.493 749.127 403.056 749.127C403.963 749.127 404.662 748.733 405.152 747.945C405.642 747.156 405.887 746.061 405.887 744.659H405.798C405.589 745.034 405.318 745.358 404.986 745.631C404.654 745.899 404.276 746.106 403.855 746.251C403.437 746.396 402.994 746.468 402.525 746.468C401.758 746.468 401.068 746.285 400.454 745.918C399.845 745.552 399.361 745.049 399.003 744.41C398.649 743.771 398.47 743.04 398.466 742.217C398.466 741.365 398.662 740.6 399.054 739.923C399.45 739.241 400.002 738.704 400.71 738.312C401.417 737.915 402.244 737.722 403.19 737.73ZM403.196 739.648C402.736 739.648 402.32 739.761 401.95 739.987C401.583 740.208 401.293 740.511 401.08 740.894C400.872 741.273 400.767 741.697 400.767 742.166C400.771 742.631 400.876 743.053 401.08 743.432C401.289 743.811 401.573 744.112 401.931 744.333C402.293 744.555 402.706 744.665 403.171 744.665C403.516 744.665 403.837 744.599 404.136 744.467C404.434 744.335 404.694 744.152 404.916 743.918C405.141 743.679 405.316 743.408 405.44 743.106C405.568 742.803 405.629 742.484 405.625 742.147C405.625 741.7 405.519 741.286 405.306 740.907C405.097 740.528 404.809 740.223 404.443 739.993C404.08 739.763 403.665 739.648 403.196 739.648ZM420.088 751L415.78 745.279H414.616V751H412.245V737.909H414.616V743.291H415.211L419.864 737.909H422.785L417.614 743.879L423.009 751H420.088Z" fill="black"/>
<path opacity="0.6" d="M504.142 487.315V486.011L509.894 476.909H510.84V478.929H510.201L505.855 485.807V485.909H513.602V487.315H504.142ZM510.304 490V486.919V486.312V476.909H511.812V490H510.304ZM519.445 476.73C519.982 476.734 520.519 476.837 521.056 477.037C521.593 477.237 522.083 477.57 522.526 478.034C522.969 478.494 523.325 479.123 523.593 479.92C523.862 480.717 523.996 481.716 523.996 482.918C523.996 484.081 523.885 485.114 523.664 486.018C523.446 486.917 523.131 487.675 522.718 488.293C522.309 488.911 521.81 489.38 521.222 489.7C520.638 490.019 519.978 490.179 519.24 490.179C518.507 490.179 517.853 490.034 517.278 489.744C516.707 489.45 516.238 489.043 515.872 488.523C515.51 487.999 515.277 487.392 515.175 486.702H516.735C516.875 487.303 517.154 487.799 517.572 488.191C517.994 488.579 518.55 488.773 519.24 488.773C520.25 488.773 521.047 488.332 521.631 487.45C522.219 486.567 522.513 485.321 522.513 483.71H522.411C522.172 484.068 521.889 484.377 521.561 484.637C521.233 484.897 520.868 485.097 520.468 485.238C520.067 485.379 519.641 485.449 519.189 485.449C518.439 485.449 517.751 485.263 517.125 484.893C516.502 484.518 516.004 484.004 515.629 483.352C515.258 482.696 515.073 481.946 515.073 481.102C515.073 480.301 515.252 479.568 515.61 478.903C515.972 478.234 516.479 477.702 517.131 477.305C517.787 476.909 518.559 476.717 519.445 476.73ZM519.445 478.136C518.908 478.136 518.424 478.271 517.994 478.539C517.568 478.803 517.229 479.161 516.978 479.613C516.73 480.06 516.607 480.557 516.607 481.102C516.607 481.648 516.726 482.144 516.965 482.592C517.208 483.035 517.538 483.388 517.956 483.653C518.377 483.913 518.857 484.043 519.394 484.043C519.799 484.043 520.176 483.964 520.525 483.806C520.875 483.644 521.179 483.425 521.439 483.148C521.703 482.866 521.91 482.549 522.059 482.195C522.208 481.837 522.283 481.464 522.283 481.077C522.283 480.565 522.159 480.086 521.912 479.638C521.669 479.191 521.333 478.829 520.902 478.552C520.476 478.275 519.99 478.136 519.445 478.136ZM527.608 488.21L527.506 488.901C527.434 489.386 527.323 489.906 527.174 490.46C527.029 491.014 526.877 491.536 526.72 492.026C526.562 492.516 526.432 492.906 526.33 493.196H525.179C525.235 492.923 525.307 492.563 525.397 492.116C525.486 491.668 525.576 491.168 525.665 490.614C525.759 490.064 525.835 489.501 525.895 488.926L525.972 488.21H527.608ZM533.446 490.179C532.569 490.179 531.793 490.023 531.12 489.712C530.451 489.397 529.929 488.964 529.554 488.415C529.179 487.861 528.993 487.23 528.998 486.523C528.993 485.969 529.102 485.457 529.324 484.989C529.545 484.516 529.848 484.121 530.231 483.806C530.619 483.487 531.052 483.284 531.529 483.199V483.122C530.902 482.96 530.404 482.609 530.033 482.067C529.662 481.522 529.479 480.902 529.483 480.207C529.479 479.543 529.647 478.948 529.988 478.424C530.329 477.9 530.798 477.487 531.395 477.184C531.995 476.881 532.679 476.73 533.446 476.73C534.205 476.73 534.883 476.881 535.479 477.184C536.076 477.487 536.544 477.9 536.885 478.424C537.231 478.948 537.405 479.543 537.41 480.207C537.405 480.902 537.216 481.522 536.841 482.067C536.47 482.609 535.978 482.96 535.364 483.122V483.199C535.837 483.284 536.263 483.487 536.642 483.806C537.022 484.121 537.324 484.516 537.55 484.989C537.776 485.457 537.891 485.969 537.895 486.523C537.891 487.23 537.699 487.861 537.32 488.415C536.945 488.964 536.423 489.397 535.754 489.712C535.089 490.023 534.32 490.179 533.446 490.179ZM533.446 488.773C534.039 488.773 534.55 488.677 534.981 488.485C535.411 488.293 535.743 488.023 535.978 487.673C536.212 487.324 536.331 486.915 536.336 486.446C536.331 485.952 536.204 485.515 535.952 485.136C535.701 484.756 535.358 484.458 534.923 484.241C534.493 484.023 534 483.915 533.446 483.915C532.888 483.915 532.39 484.023 531.951 484.241C531.516 484.458 531.173 484.756 530.922 485.136C530.674 485.515 530.553 485.952 530.557 486.446C530.553 486.915 530.666 487.324 530.896 487.673C531.13 488.023 531.465 488.293 531.9 488.485C532.334 488.677 532.85 488.773 533.446 488.773ZM533.446 482.56C533.915 482.56 534.331 482.466 534.693 482.278C535.059 482.091 535.347 481.829 535.556 481.492C535.765 481.156 535.871 480.761 535.875 480.31C535.871 479.866 535.767 479.481 535.562 479.153C535.358 478.82 535.074 478.565 534.712 478.386C534.35 478.202 533.928 478.111 533.446 478.111C532.956 478.111 532.528 478.202 532.162 478.386C531.795 478.565 531.512 478.82 531.312 479.153C531.111 479.481 531.013 479.866 531.017 480.31C531.013 480.761 531.113 481.156 531.318 481.492C531.527 481.829 531.814 482.091 532.181 482.278C532.547 482.466 532.969 482.56 533.446 482.56ZM547.551 490L543.051 483.991H541.44V490H539.855V476.909H541.44V482.585H542.131L547.372 476.909H549.264L543.972 482.662L549.443 490H547.551Z" fill="black"/>
<rect x="496" y="720" width="217" height="61" transform="rotate(-90 496 720)" fill="url(#paint3_linear_3239_2778)"/>
<path d="M496 503L557 503" stroke="#04B34A" stroke-width="4"/>
<path opacity="0.6" d="M483.988 737.909V751H481.616V740.217H481.54L478.478 742.173V739.999L481.732 737.909H483.988ZM493.663 751.179C492.811 751.179 492.048 751.019 491.375 750.7C490.701 750.376 490.166 749.933 489.77 749.37C489.378 748.808 489.169 748.164 489.144 747.44H491.445C491.488 747.977 491.72 748.415 492.142 748.756C492.563 749.093 493.071 749.261 493.663 749.261C494.127 749.261 494.541 749.155 494.903 748.942C495.265 748.729 495.551 748.433 495.76 748.053C495.968 747.674 496.071 747.241 496.066 746.756C496.071 746.261 495.966 745.822 495.753 745.439C495.54 745.055 495.248 744.755 494.877 744.538C494.507 744.316 494.081 744.205 493.599 744.205C493.207 744.201 492.821 744.273 492.442 744.423C492.063 744.572 491.762 744.768 491.541 745.011L489.399 744.659L490.083 737.909H497.677V739.891H492.046L491.669 743.362H491.745C491.988 743.076 492.331 742.839 492.774 742.652C493.218 742.46 493.703 742.364 494.232 742.364C495.024 742.364 495.732 742.552 496.354 742.927C496.976 743.298 497.466 743.809 497.824 744.461C498.182 745.113 498.361 745.859 498.361 746.698C498.361 747.563 498.161 748.335 497.76 749.012C497.364 749.685 496.812 750.216 496.105 750.604C495.402 750.987 494.588 751.179 493.663 751.179ZM507.141 751.249C506.089 751.249 505.185 750.983 504.431 750.45C503.681 749.913 503.104 749.14 502.699 748.13C502.298 747.116 502.098 745.895 502.098 744.467C502.102 743.04 502.305 741.825 502.705 740.824C503.11 739.818 503.687 739.051 504.437 738.523C505.192 737.994 506.093 737.73 507.141 737.73C508.189 737.73 509.091 737.994 509.845 738.523C510.599 739.051 511.177 739.818 511.577 740.824C511.982 741.83 512.185 743.044 512.185 744.467C512.185 745.899 511.982 747.122 511.577 748.136C511.177 749.146 510.599 749.918 509.845 750.45C509.095 750.983 508.194 751.249 507.141 751.249ZM507.141 749.249C507.959 749.249 508.605 748.846 509.078 748.04C509.555 747.231 509.794 746.04 509.794 744.467C509.794 743.428 509.685 742.554 509.468 741.847C509.251 741.139 508.944 740.607 508.547 740.249C508.151 739.886 507.682 739.705 507.141 739.705C506.327 739.705 505.684 740.11 505.211 740.92C504.738 741.725 504.499 742.908 504.495 744.467C504.491 745.511 504.595 746.389 504.808 747.101C505.025 747.812 505.332 748.349 505.729 748.712C506.125 749.07 506.596 749.249 507.141 749.249ZM522.085 743.502V745.407H516.191V743.502H522.085ZM531.618 737.909V751H529.246V740.217H529.169L526.108 742.173V739.999L529.361 737.909H531.618ZM541.286 737.73C541.913 737.734 542.522 737.845 543.114 738.062C543.711 738.276 544.248 738.625 544.725 739.111C545.202 739.592 545.582 740.238 545.863 741.048C546.144 741.857 546.285 742.859 546.285 744.052C546.289 745.177 546.17 746.183 545.927 747.069C545.688 747.951 545.345 748.697 544.898 749.306C544.45 749.915 543.911 750.38 543.281 750.7C542.65 751.019 541.94 751.179 541.152 751.179C540.325 751.179 539.592 751.017 538.953 750.693C538.318 750.369 537.805 749.926 537.413 749.364C537.021 748.801 536.78 748.158 536.69 747.433H539.023C539.143 747.953 539.386 748.366 539.752 748.673C540.123 748.976 540.589 749.127 541.152 749.127C542.06 749.127 542.759 748.733 543.249 747.945C543.739 747.156 543.984 746.061 543.984 744.659H543.894C543.685 745.034 543.415 745.358 543.082 745.631C542.75 745.899 542.373 746.106 541.951 746.251C541.533 746.396 541.09 746.468 540.621 746.468C539.854 746.468 539.164 746.285 538.55 745.918C537.941 745.552 537.457 745.049 537.099 744.41C536.746 743.771 536.567 743.04 536.562 742.217C536.562 741.365 536.759 740.6 537.151 739.923C537.547 739.241 538.099 738.704 538.806 738.312C539.513 737.915 540.34 737.722 541.286 737.73ZM541.293 739.648C540.832 739.648 540.417 739.761 540.046 739.987C539.68 740.208 539.39 740.511 539.177 740.894C538.968 741.273 538.864 741.697 538.864 742.166C538.868 742.631 538.972 743.053 539.177 743.432C539.386 743.811 539.669 744.112 540.027 744.333C540.389 744.555 540.803 744.665 541.267 744.665C541.612 744.665 541.934 744.599 542.232 744.467C542.531 744.335 542.79 744.152 543.012 743.918C543.238 743.679 543.413 743.408 543.536 743.106C543.664 742.803 543.726 742.484 543.722 742.147C543.722 741.7 543.615 741.286 543.402 740.907C543.193 740.528 542.906 740.223 542.539 739.993C542.177 739.763 541.761 739.648 541.293 739.648ZM554.758 737.73C555.385 737.734 555.994 737.845 556.586 738.062C557.183 738.276 557.72 738.625 558.197 739.111C558.674 739.592 559.054 740.238 559.335 741.048C559.616 741.857 559.757 742.859 559.757 744.052C559.761 745.177 559.642 746.183 559.399 747.069C559.16 747.951 558.817 748.697 558.37 749.306C557.922 749.915 557.383 750.38 556.752 750.7C556.122 751.019 555.412 751.179 554.624 751.179C553.797 751.179 553.064 751.017 552.425 750.693C551.79 750.369 551.277 749.926 550.885 749.364C550.492 748.801 550.252 748.158 550.162 747.433H552.495C552.615 747.953 552.858 748.366 553.224 748.673C553.595 748.976 554.061 749.127 554.624 749.127C555.532 749.127 556.23 748.733 556.72 747.945C557.211 747.156 557.456 746.061 557.456 744.659H557.366C557.157 745.034 556.887 745.358 556.554 745.631C556.222 745.899 555.845 746.106 555.423 746.251C555.005 746.396 554.562 746.468 554.093 746.468C553.326 746.468 552.636 746.285 552.022 745.918C551.413 745.552 550.929 745.049 550.571 744.41C550.218 743.771 550.039 743.04 550.034 742.217C550.034 741.365 550.23 740.6 550.622 739.923C551.019 739.241 551.571 738.704 552.278 738.312C552.985 737.915 553.812 737.722 554.758 737.73ZM554.764 739.648C554.304 739.648 553.889 739.761 553.518 739.987C553.152 740.208 552.862 740.511 552.649 740.894C552.44 741.273 552.336 741.697 552.336 742.166C552.34 742.631 552.444 743.053 552.649 743.432C552.858 743.811 553.141 744.112 553.499 744.333C553.861 744.555 554.274 744.665 554.739 744.665C555.084 744.665 555.406 744.599 555.704 744.467C556.002 744.335 556.262 744.152 556.484 743.918C556.71 743.679 556.885 743.408 557.008 743.106C557.136 742.803 557.198 742.484 557.193 742.147C557.193 741.7 557.087 741.286 556.874 740.907C556.665 740.528 556.377 740.223 556.011 739.993C555.649 739.763 555.233 739.648 554.764 739.648ZM571.656 751L567.348 745.279H566.185V751H563.813V737.909H566.185V743.291H566.779L571.432 737.909H574.354L569.182 743.879L574.577 751H571.656Z" fill="black"/>
<path opacity="0.6" d="M660.785 457.179C660.035 457.179 659.36 457.03 658.759 456.732C658.158 456.433 657.677 456.024 657.315 455.504C656.952 454.984 656.754 454.392 656.72 453.727H658.254C658.314 454.32 658.582 454.81 659.06 455.197C659.541 455.581 660.116 455.773 660.785 455.773C661.322 455.773 661.8 455.647 662.217 455.396C662.639 455.144 662.969 454.799 663.208 454.36C663.451 453.917 663.572 453.416 663.572 452.858C663.572 452.287 663.447 451.778 663.195 451.33C662.948 450.879 662.607 450.523 662.173 450.263C661.738 450.003 661.241 449.871 660.683 449.866C660.283 449.862 659.871 449.924 659.449 450.052C659.028 450.175 658.68 450.335 658.408 450.531L656.925 450.352L657.717 443.909H664.518V445.315H659.047L658.587 449.176H658.663C658.932 448.963 659.268 448.786 659.673 448.646C660.078 448.505 660.5 448.435 660.939 448.435C661.74 448.435 662.454 448.626 663.08 449.01C663.711 449.389 664.205 449.909 664.563 450.57C664.925 451.23 665.106 451.984 665.106 452.832C665.106 453.668 664.919 454.413 664.544 455.07C664.173 455.722 663.662 456.237 663.01 456.616C662.358 456.991 661.616 457.179 660.785 457.179ZM671.017 457.179C670.267 457.179 669.591 457.03 668.99 456.732C668.389 456.433 667.908 456.024 667.546 455.504C667.184 454.984 666.985 454.392 666.951 453.727H668.485C668.545 454.32 668.813 454.81 669.291 455.197C669.772 455.581 670.348 455.773 671.017 455.773C671.554 455.773 672.031 455.647 672.448 455.396C672.87 455.144 673.201 454.799 673.439 454.36C673.682 453.917 673.804 453.416 673.804 452.858C673.804 452.287 673.678 451.778 673.426 451.33C673.179 450.879 672.838 450.523 672.404 450.263C671.969 450.003 671.473 449.871 670.914 449.866C670.514 449.862 670.103 449.924 669.681 450.052C669.259 450.175 668.911 450.335 668.639 450.531L667.156 450.352L667.948 443.909H674.75V445.315H669.278L668.818 449.176H668.894C669.163 448.963 669.5 448.786 669.904 448.646C670.309 448.505 670.731 448.435 671.17 448.435C671.971 448.435 672.685 448.626 673.311 449.01C673.942 449.389 674.436 449.909 674.794 450.57C675.157 451.23 675.338 451.984 675.338 452.832C675.338 453.668 675.15 454.413 674.775 455.07C674.404 455.722 673.893 456.237 673.241 456.616C672.589 456.991 671.848 457.179 671.017 457.179ZM678.94 455.21L678.838 455.901C678.766 456.386 678.655 456.906 678.506 457.46C678.361 458.014 678.209 458.536 678.052 459.026C677.894 459.516 677.764 459.906 677.662 460.196H676.511C676.567 459.923 676.639 459.563 676.729 459.116C676.818 458.668 676.908 458.168 676.997 457.614C677.091 457.064 677.168 456.501 677.227 455.926L677.304 455.21H678.94ZM685.034 443.73C685.571 443.734 686.108 443.837 686.645 444.037C687.182 444.237 687.672 444.57 688.115 445.034C688.558 445.494 688.914 446.123 689.183 446.92C689.451 447.717 689.585 448.716 689.585 449.918C689.585 451.081 689.475 452.114 689.253 453.018C689.036 453.917 688.72 454.675 688.307 455.293C687.898 455.911 687.399 456.38 686.811 456.7C686.227 457.019 685.567 457.179 684.83 457.179C684.097 457.179 683.443 457.034 682.867 456.744C682.296 456.45 681.827 456.043 681.461 455.523C681.099 454.999 680.867 454.392 680.764 453.702H682.324C682.465 454.303 682.744 454.799 683.161 455.191C683.583 455.579 684.139 455.773 684.83 455.773C685.84 455.773 686.636 455.332 687.22 454.45C687.808 453.567 688.102 452.321 688.102 450.71H688C687.761 451.068 687.478 451.377 687.15 451.637C686.822 451.897 686.457 452.097 686.057 452.238C685.656 452.379 685.23 452.449 684.778 452.449C684.028 452.449 683.34 452.263 682.714 451.893C682.092 451.518 681.593 451.004 681.218 450.352C680.847 449.696 680.662 448.946 680.662 448.102C680.662 447.301 680.841 446.568 681.199 445.903C681.561 445.234 682.068 444.702 682.72 444.305C683.377 443.909 684.148 443.717 685.034 443.73ZM685.034 445.136C684.497 445.136 684.014 445.271 683.583 445.539C683.157 445.803 682.818 446.161 682.567 446.613C682.32 447.06 682.196 447.557 682.196 448.102C682.196 448.648 682.315 449.144 682.554 449.592C682.797 450.035 683.127 450.388 683.545 450.653C683.967 450.913 684.446 451.043 684.983 451.043C685.388 451.043 685.765 450.964 686.114 450.806C686.464 450.644 686.769 450.425 687.028 450.148C687.293 449.866 687.499 449.549 687.649 449.195C687.798 448.837 687.872 448.464 687.872 448.077C687.872 447.565 687.749 447.086 687.502 446.638C687.259 446.191 686.922 445.829 686.492 445.552C686.065 445.275 685.58 445.136 685.034 445.136ZM699.305 457L694.805 450.991H693.194V457H691.609V443.909H693.194V449.585H693.885L699.126 443.909H701.018L695.726 449.662L701.197 457H699.305Z" fill="black"/>
<rect x="648" y="715" width="245" height="61" transform="rotate(-90 648 715)" fill="url(#paint4_linear_3239_2778)"/>
<path d="M648 470L709 470" stroke="#04B34A" stroke-width="4"/>
<path opacity="0.6" d="M628.163 746V744.287L632.708 739.832C633.143 739.393 633.505 739.003 633.795 738.662C634.085 738.321 634.302 737.991 634.447 737.671C634.592 737.352 634.664 737.011 634.664 736.648C634.664 736.235 634.57 735.881 634.383 735.587C634.195 735.289 633.938 735.059 633.609 734.897C633.281 734.735 632.908 734.654 632.491 734.654C632.06 734.654 631.683 734.744 631.359 734.923C631.036 735.097 630.784 735.347 630.605 735.67C630.43 735.994 630.343 736.38 630.343 736.827H628.087C628.087 735.996 628.276 735.274 628.656 734.661C629.035 734.047 629.557 733.572 630.222 733.235C630.891 732.898 631.658 732.73 632.523 732.73C633.401 732.73 634.172 732.894 634.837 733.222C635.501 733.55 636.017 734 636.384 734.571C636.754 735.142 636.94 735.794 636.94 736.527C636.94 737.017 636.846 737.499 636.658 737.972C636.471 738.445 636.141 738.969 635.668 739.544C635.199 740.119 634.54 740.816 633.692 741.634L631.436 743.929V744.018H637.138V746H628.163ZM645.982 746.249C644.929 746.249 644.026 745.983 643.272 745.45C642.522 744.913 641.944 744.14 641.539 743.13C641.139 742.116 640.938 740.895 640.938 739.467C640.943 738.04 641.145 736.825 641.546 735.824C641.951 734.818 642.528 734.051 643.278 733.523C644.032 732.994 644.934 732.73 645.982 732.73C647.03 732.73 647.931 732.994 648.686 733.523C649.44 734.051 650.017 734.818 650.418 735.824C650.823 736.83 651.025 738.044 651.025 739.467C651.025 740.899 650.823 742.122 650.418 743.136C650.017 744.146 649.44 744.918 648.686 745.45C647.936 745.983 647.034 746.249 645.982 746.249ZM645.982 744.249C646.8 744.249 647.446 743.846 647.919 743.04C648.396 742.231 648.635 741.04 648.635 739.467C648.635 738.428 648.526 737.554 648.309 736.847C648.091 736.139 647.784 735.607 647.388 735.249C646.992 734.886 646.523 734.705 645.982 734.705C645.168 734.705 644.524 735.11 644.051 735.92C643.578 736.725 643.34 737.908 643.336 739.467C643.331 740.511 643.436 741.389 643.649 742.101C643.866 742.812 644.173 743.349 644.569 743.712C644.965 744.07 645.436 744.249 645.982 744.249ZM659.788 746.249C658.735 746.249 657.832 745.983 657.077 745.45C656.327 744.913 655.75 744.14 655.345 743.13C654.945 742.116 654.744 740.895 654.744 739.467C654.749 738.04 654.951 736.825 655.352 735.824C655.756 734.818 656.334 734.051 657.084 733.523C657.838 732.994 658.739 732.73 659.788 732.73C660.836 732.73 661.737 732.994 662.492 733.523C663.246 734.051 663.823 734.818 664.224 735.824C664.629 736.83 664.831 738.044 664.831 739.467C664.831 740.899 664.629 742.122 664.224 743.136C663.823 744.146 663.246 744.918 662.492 745.45C661.742 745.983 660.84 746.249 659.788 746.249ZM659.788 744.249C660.606 744.249 661.251 743.846 661.724 743.04C662.202 742.231 662.44 741.04 662.44 739.467C662.44 738.428 662.332 737.554 662.114 736.847C661.897 736.139 661.59 735.607 661.194 735.249C660.798 734.886 660.329 734.705 659.788 734.705C658.974 734.705 658.33 735.11 657.857 735.92C657.384 736.725 657.146 737.908 657.141 739.467C657.137 740.511 657.242 741.389 657.455 742.101C657.672 742.812 657.979 743.349 658.375 743.712C658.771 744.07 659.242 744.249 659.788 744.249ZM674.731 738.502V740.407H668.838V738.502H674.731ZM678.482 746V744.287L683.027 739.832C683.462 739.393 683.824 739.003 684.114 738.662C684.404 738.321 684.621 737.991 684.766 737.671C684.911 737.352 684.983 737.011 684.983 736.648C684.983 736.235 684.889 735.881 684.702 735.587C684.514 735.289 684.257 735.059 683.929 734.897C683.6 734.735 683.228 734.654 682.81 734.654C682.38 734.654 682.002 734.744 681.679 734.923C681.355 735.097 681.103 735.347 680.924 735.67C680.75 735.994 680.662 736.38 680.662 736.827H678.406C678.406 735.996 678.595 735.274 678.975 734.661C679.354 734.047 679.876 733.572 680.541 733.235C681.21 732.898 681.977 732.73 682.842 732.73C683.72 732.73 684.491 732.894 685.156 733.222C685.821 733.55 686.336 734 686.703 734.571C687.073 735.142 687.259 735.794 687.259 736.527C687.259 737.017 687.165 737.499 686.978 737.972C686.79 738.445 686.46 738.969 685.987 739.544C685.518 740.119 684.86 740.816 684.012 741.634L681.755 743.929V744.018H687.457V746H678.482ZM690.944 743.571V741.685L696.499 732.909H698.072V735.594H697.113L693.373 741.519V741.621H701.127V743.571H690.944ZM697.189 746V742.996L697.215 742.152V732.909H699.452V746H697.189ZM709.514 732.73C710.14 732.734 710.75 732.845 711.342 733.062C711.939 733.276 712.476 733.625 712.953 734.111C713.43 734.592 713.809 735.238 714.091 736.048C714.372 736.857 714.513 737.859 714.513 739.052C714.517 740.177 714.397 741.183 714.155 742.069C713.916 742.951 713.573 743.697 713.125 744.306C712.678 744.915 712.139 745.38 711.508 745.7C710.878 746.019 710.168 746.179 709.38 746.179C708.553 746.179 707.82 746.017 707.181 745.693C706.546 745.369 706.032 744.926 705.64 744.364C705.248 743.801 705.008 743.158 704.918 742.433H707.251C707.37 742.953 707.613 743.366 707.98 743.673C708.351 743.976 708.817 744.127 709.38 744.127C710.287 744.127 710.986 743.733 711.476 742.945C711.966 742.156 712.211 741.061 712.211 739.659H712.122C711.913 740.034 711.643 740.358 711.31 740.631C710.978 740.899 710.601 741.106 710.179 741.251C709.761 741.396 709.318 741.468 708.849 741.468C708.082 741.468 707.392 741.285 706.778 740.918C706.169 740.552 705.685 740.049 705.327 739.41C704.973 738.771 704.794 738.04 704.79 737.217C704.79 736.365 704.986 735.6 705.378 734.923C705.775 734.241 706.326 733.704 707.034 733.312C707.741 732.915 708.568 732.722 709.514 732.73ZM709.52 734.648C709.06 734.648 708.645 734.761 708.274 734.987C707.907 735.208 707.618 735.511 707.405 735.894C707.196 736.273 707.091 736.697 707.091 737.166C707.096 737.631 707.2 738.053 707.405 738.432C707.613 738.811 707.897 739.112 708.255 739.333C708.617 739.555 709.03 739.665 709.495 739.665C709.84 739.665 710.162 739.599 710.46 739.467C710.758 739.335 711.018 739.152 711.24 738.918C711.466 738.679 711.64 738.408 711.764 738.106C711.892 737.803 711.954 737.484 711.949 737.147C711.949 736.7 711.843 736.286 711.63 735.907C711.421 735.528 711.133 735.223 710.767 734.993C710.405 734.763 709.989 734.648 709.52 734.648ZM726.412 746L722.104 740.279H720.94V746H718.569V732.909H720.94V738.291H721.535L726.188 732.909H729.109L723.938 738.879L729.333 746H726.412Z" fill="black"/>
<path opacity="0.6" d="M816.575 405L822.43 393.418V393.315H815.68V391.909H824.067V393.392L818.237 405H816.575ZM825.729 405V403.849L830.05 399.119C830.557 398.565 830.975 398.084 831.303 397.675C831.631 397.261 831.874 396.874 832.032 396.511C832.194 396.145 832.275 395.761 832.275 395.361C832.275 394.901 832.164 394.502 831.942 394.165C831.725 393.829 831.427 393.569 831.047 393.386C830.668 393.202 830.242 393.111 829.769 393.111C829.266 393.111 828.827 393.215 828.452 393.424C828.081 393.629 827.794 393.916 827.589 394.287C827.389 394.658 827.289 395.092 827.289 395.591H825.78C825.78 394.824 825.957 394.151 826.311 393.571C826.665 392.991 827.146 392.54 827.755 392.216C828.369 391.892 829.057 391.73 829.82 391.73C830.587 391.73 831.267 391.892 831.859 392.216C832.451 392.54 832.916 392.977 833.253 393.526C833.589 394.076 833.758 394.688 833.758 395.361C833.758 395.842 833.67 396.313 833.495 396.773C833.325 397.229 833.027 397.739 832.601 398.301C832.179 398.859 831.593 399.541 830.843 400.347L827.902 403.491V403.594H833.988V405H825.729ZM843.834 405L839.334 398.991H837.723V405H836.138V391.909H837.723V397.585H838.413L843.655 391.909H845.547L840.254 397.662L845.726 405H843.834Z" fill="black"/>
<rect x="800" y="720" width="302" height="61" transform="rotate(-90 800 720)" fill="url(#paint5_linear_3239_2778)"/>
<path d="M800 418L861 418" stroke="#04B34A" stroke-width="4"/>
<path opacity="0.6" d="M779.663 751V749.287L784.208 744.832C784.643 744.393 785.005 744.003 785.295 743.662C785.585 743.321 785.802 742.991 785.947 742.671C786.092 742.352 786.164 742.011 786.164 741.648C786.164 741.235 786.07 740.881 785.883 740.587C785.695 740.289 785.438 740.059 785.109 739.897C784.781 739.735 784.408 739.654 783.991 739.654C783.56 739.654 783.183 739.744 782.859 739.923C782.536 740.097 782.284 740.347 782.105 740.67C781.93 740.994 781.843 741.38 781.843 741.827H779.587C779.587 740.996 779.776 740.274 780.156 739.661C780.535 739.047 781.057 738.572 781.722 738.235C782.391 737.898 783.158 737.73 784.023 737.73C784.901 737.73 785.672 737.894 786.337 738.222C787.001 738.55 787.517 739 787.884 739.571C788.254 740.142 788.44 740.794 788.44 741.527C788.44 742.017 788.346 742.499 788.158 742.972C787.971 743.445 787.641 743.969 787.168 744.544C786.699 745.119 786.04 745.816 785.192 746.634L782.936 748.929V749.018H788.638V751H779.663ZM797.194 751.179C796.342 751.179 795.579 751.019 794.906 750.7C794.233 750.376 793.698 749.933 793.301 749.37C792.909 748.808 792.701 748.164 792.675 747.44H794.976C795.019 747.977 795.251 748.415 795.673 748.756C796.095 749.093 796.602 749.261 797.194 749.261C797.659 749.261 798.072 749.155 798.434 748.942C798.796 748.729 799.082 748.433 799.291 748.053C799.5 747.674 799.602 747.241 799.598 746.756C799.602 746.261 799.497 745.822 799.284 745.439C799.071 745.055 798.779 744.755 798.409 744.538C798.038 744.316 797.612 744.205 797.13 744.205C796.738 744.201 796.353 744.273 795.973 744.423C795.594 744.572 795.294 744.768 795.072 745.011L792.931 744.659L793.615 737.909H801.208V739.891H795.577L795.2 743.362H795.277C795.519 743.076 795.863 742.839 796.306 742.652C796.749 742.46 797.235 742.364 797.763 742.364C798.556 742.364 799.263 742.552 799.885 742.927C800.507 743.298 800.997 743.809 801.355 744.461C801.713 745.113 801.892 745.859 801.892 746.698C801.892 747.563 801.692 748.335 801.291 749.012C800.895 749.685 800.343 750.216 799.636 750.604C798.933 750.987 798.119 751.179 797.194 751.179ZM810.672 751.249C809.62 751.249 808.716 750.983 807.962 750.45C807.212 749.913 806.635 749.14 806.23 748.13C805.829 747.116 805.629 745.895 805.629 744.467C805.633 743.04 805.836 741.825 806.236 740.824C806.641 739.818 807.219 739.051 807.969 738.523C808.723 737.994 809.624 737.73 810.672 737.73C811.721 737.73 812.622 737.994 813.376 738.523C814.131 739.051 814.708 739.818 815.109 740.824C815.513 741.83 815.716 743.044 815.716 744.467C815.716 745.899 815.513 747.122 815.109 748.136C814.708 749.146 814.131 749.918 813.376 750.45C812.626 750.983 811.725 751.249 810.672 751.249ZM810.672 749.249C811.491 749.249 812.136 748.846 812.609 748.04C813.087 747.231 813.325 746.04 813.325 744.467C813.325 743.428 813.216 742.554 812.999 741.847C812.782 741.139 812.475 740.607 812.079 740.249C811.682 739.886 811.214 739.705 810.672 739.705C809.859 739.705 809.215 740.11 808.742 740.92C808.269 741.725 808.03 742.908 808.026 744.467C808.022 745.511 808.126 746.389 808.339 747.101C808.557 747.812 808.863 748.349 809.26 748.712C809.656 749.07 810.127 749.249 810.672 749.249ZM825.616 743.502V745.407H819.723V743.502H825.616ZM834.375 751.179C833.523 751.179 832.76 751.019 832.087 750.7C831.414 750.376 830.879 749.933 830.483 749.37C830.091 748.808 829.882 748.164 829.856 747.44H832.157C832.2 747.977 832.432 748.415 832.854 748.756C833.276 749.093 833.783 749.261 834.375 749.261C834.84 749.261 835.253 749.155 835.615 748.942C835.978 748.729 836.263 748.433 836.472 748.053C836.681 747.674 836.783 747.241 836.779 746.756C836.783 746.261 836.679 745.822 836.466 745.439C836.253 745.055 835.961 744.755 835.59 744.538C835.219 744.316 834.793 744.205 834.312 744.205C833.919 744.201 833.534 744.273 833.155 744.423C832.775 744.572 832.475 744.768 832.253 745.011L830.112 744.659L830.796 737.909H838.39V739.891H832.758L832.381 743.362H832.458C832.701 743.076 833.044 742.839 833.487 742.652C833.93 742.46 834.416 742.364 834.944 742.364C835.737 742.364 836.444 742.552 837.066 742.927C837.689 743.298 838.179 743.809 838.537 744.461C838.895 745.113 839.074 745.859 839.074 746.698C839.074 747.563 838.873 748.335 838.473 749.012C838.076 749.685 837.525 750.216 836.817 750.604C836.114 750.987 835.3 751.179 834.375 751.179ZM847.854 751.249C846.801 751.249 845.898 750.983 845.143 750.45C844.393 749.913 843.816 749.14 843.411 748.13C843.011 747.116 842.81 745.895 842.81 744.467C842.815 743.04 843.017 741.825 843.418 740.824C843.822 739.818 844.4 739.051 845.15 738.523C845.904 737.994 846.805 737.73 847.854 737.73C848.902 737.73 849.803 737.994 850.558 738.523C851.312 739.051 851.889 739.818 852.29 740.824C852.695 741.83 852.897 743.044 852.897 744.467C852.897 745.899 852.695 747.122 852.29 748.136C851.889 749.146 851.312 749.918 850.558 750.45C849.808 750.983 848.906 751.249 847.854 751.249ZM847.854 749.249C848.672 749.249 849.317 748.846 849.79 748.04C850.268 747.231 850.506 746.04 850.506 744.467C850.506 743.428 850.398 742.554 850.18 741.847C849.963 741.139 849.656 740.607 849.26 740.249C848.864 739.886 848.395 739.705 847.854 739.705C847.04 739.705 846.396 740.11 845.923 740.92C845.45 741.725 845.212 742.908 845.207 744.467C845.203 745.511 845.308 746.389 845.521 747.101C845.738 747.812 846.045 748.349 846.441 748.712C846.837 749.07 847.308 749.249 847.854 749.249ZM861.66 751.249C860.607 751.249 859.704 750.983 858.949 750.45C858.199 749.913 857.622 749.14 857.217 748.13C856.817 747.116 856.616 745.895 856.616 744.467C856.62 743.04 856.823 741.825 857.223 740.824C857.628 739.818 858.206 739.051 858.956 738.523C859.71 737.994 860.611 737.73 861.66 737.73C862.708 737.73 863.609 737.994 864.363 738.523C865.118 739.051 865.695 739.818 866.096 740.824C866.5 741.83 866.703 743.044 866.703 744.467C866.703 745.899 866.5 747.122 866.096 748.136C865.695 749.146 865.118 749.918 864.363 750.45C863.613 750.983 862.712 751.249 861.66 751.249ZM861.66 749.249C862.478 749.249 863.123 748.846 863.596 748.04C864.074 747.231 864.312 746.04 864.312 744.467C864.312 743.428 864.204 742.554 863.986 741.847C863.769 741.139 863.462 740.607 863.066 740.249C862.669 739.886 862.201 739.705 861.66 739.705C860.846 739.705 860.202 740.11 859.729 740.92C859.256 741.725 859.018 742.908 859.013 744.467C859.009 745.511 859.113 746.389 859.326 747.101C859.544 747.812 859.851 748.349 860.247 748.712C860.643 749.07 861.114 749.249 861.66 749.249ZM878.598 751L874.289 745.279H873.126V751H870.754V737.909H873.126V743.291H873.72L878.374 737.909H881.295L876.124 743.879L881.519 751H878.598Z" fill="black"/>
<path opacity="0.6" d="M960.946 147.909V161H959.361V149.571H959.284L956.088 151.693V150.082L959.361 147.909H960.946ZM963.684 158.315V157.011L969.437 147.909H970.383V149.929H969.744L965.397 156.807V156.909H973.144V158.315H963.684ZM969.846 161V157.919V157.312V147.909H971.354V161H969.846ZM979.243 161.179C978.399 161.179 977.647 161.034 976.987 160.744C976.33 160.455 975.808 160.052 975.42 159.536C975.037 159.016 974.828 158.413 974.794 157.727H976.405C976.439 158.149 976.584 158.513 976.839 158.82C977.095 159.123 977.43 159.357 977.843 159.523C978.256 159.69 978.714 159.773 979.217 159.773C979.78 159.773 980.278 159.675 980.713 159.479C981.148 159.283 981.489 159.01 981.736 158.661C981.983 158.311 982.107 157.906 982.107 157.446C982.107 156.964 981.987 156.54 981.749 156.174C981.51 155.803 981.161 155.513 980.7 155.305C980.24 155.096 979.678 154.991 979.013 154.991H977.964V153.585H979.013C979.533 153.585 979.989 153.491 980.381 153.304C980.777 153.116 981.086 152.852 981.308 152.511C981.533 152.17 981.646 151.77 981.646 151.31C981.646 150.866 981.548 150.481 981.352 150.153C981.156 149.825 980.879 149.569 980.521 149.386C980.168 149.202 979.75 149.111 979.268 149.111C978.817 149.111 978.391 149.194 977.99 149.36C977.594 149.522 977.27 149.759 977.018 150.07C976.767 150.376 976.631 150.747 976.609 151.182H975.075C975.101 150.496 975.308 149.895 975.695 149.379C976.083 148.859 976.59 148.455 977.217 148.165C977.847 147.875 978.54 147.73 979.294 147.73C980.104 147.73 980.798 147.894 981.378 148.222C981.957 148.546 982.403 148.974 982.714 149.507C983.025 150.04 983.18 150.615 983.18 151.233C983.18 151.97 982.987 152.599 982.599 153.119C982.215 153.638 981.693 153.999 981.033 154.199V154.301C981.859 154.437 982.505 154.789 982.969 155.356C983.434 155.918 983.666 156.615 983.666 157.446C983.666 158.158 983.472 158.797 983.085 159.364C982.701 159.926 982.177 160.369 981.512 160.693C980.847 161.017 980.091 161.179 979.243 161.179ZM987.432 159.21L987.33 159.901C987.257 160.386 987.146 160.906 986.997 161.46C986.852 162.014 986.701 162.536 986.543 163.026C986.386 163.516 986.256 163.906 986.153 164.196H985.003C985.058 163.923 985.131 163.563 985.22 163.116C985.31 162.668 985.399 162.168 985.489 161.614C985.582 161.064 985.659 160.501 985.719 159.926L985.795 159.21H987.432ZM993.412 161.179C992.569 161.179 991.816 161.034 991.156 160.744C990.5 160.455 989.978 160.052 989.59 159.536C989.206 159.016 988.998 158.413 988.963 157.727H990.574C990.608 158.149 990.753 158.513 991.009 158.82C991.265 159.123 991.599 159.357 992.012 159.523C992.426 159.69 992.884 159.773 993.387 159.773C993.949 159.773 994.448 159.675 994.882 159.479C995.317 159.283 995.658 159.01 995.905 158.661C996.152 158.311 996.276 157.906 996.276 157.446C996.276 156.964 996.157 156.54 995.918 156.174C995.679 155.803 995.33 155.513 994.87 155.305C994.409 155.096 993.847 154.991 993.182 154.991H992.134V153.585H993.182C993.702 153.585 994.158 153.491 994.55 153.304C994.946 153.116 995.255 152.852 995.477 152.511C995.703 152.17 995.816 151.77 995.816 151.31C995.816 150.866 995.718 150.481 995.522 150.153C995.326 149.825 995.049 149.569 994.691 149.386C994.337 149.202 993.919 149.111 993.438 149.111C992.986 149.111 992.56 149.194 992.159 149.36C991.763 149.522 991.439 149.759 991.188 150.07C990.936 150.376 990.8 150.747 990.779 151.182H989.245C989.27 150.496 989.477 149.895 989.865 149.379C990.252 148.859 990.76 148.455 991.386 148.165C992.017 147.875 992.709 147.73 993.463 147.73C994.273 147.73 994.968 147.894 995.547 148.222C996.127 148.546 996.572 148.974 996.883 149.507C997.194 150.04 997.35 150.615 997.35 151.233C997.35 151.97 997.156 152.599 996.768 153.119C996.385 153.638 995.863 153.999 995.202 154.199V154.301C996.029 154.437 996.674 154.789 997.139 155.356C997.603 155.918 997.836 156.615 997.836 157.446C997.836 158.158 997.642 158.797 997.254 159.364C996.87 159.926 996.346 160.369 995.681 160.693C995.017 161.017 994.26 161.179 993.412 161.179ZM1007.66 161L1003.16 154.991H1001.55V161H999.96V147.909H1001.55V153.585H1002.24L1007.48 147.909H1009.37L1004.08 153.662L1009.55 161H1007.66Z" fill="black"/>
<rect x="952" y="720" width="546" height="61" transform="rotate(-90 952 720)" fill="url(#paint6_linear_3239_2778)"/>
<path d="M952 174L1013 174" stroke="#04B34A" stroke-width="4"/>
<path opacity="0.6" d="M955.214 751.179C954.362 751.179 953.599 751.019 952.926 750.7C952.253 750.376 951.718 749.933 951.322 749.37C950.93 748.808 950.721 748.164 950.695 747.44H952.996C953.039 747.977 953.271 748.415 953.693 748.756C954.115 749.093 954.622 749.261 955.214 749.261C955.679 749.261 956.092 749.155 956.455 748.942C956.817 748.729 957.102 748.433 957.311 748.053C957.52 747.674 957.622 747.241 957.618 746.756C957.622 746.261 957.518 745.822 957.305 745.439C957.092 745.055 956.8 744.755 956.429 744.538C956.058 744.316 955.632 744.205 955.151 744.205C954.759 744.201 954.373 744.273 953.994 744.423C953.614 744.572 953.314 744.768 953.092 745.011L950.951 744.659L951.635 737.909H959.229V739.891H953.597L953.22 743.362H953.297C953.54 743.076 953.883 742.839 954.326 742.652C954.769 742.46 955.255 742.364 955.783 742.364C956.576 742.364 957.283 742.552 957.906 742.927C958.528 743.298 959.018 743.809 959.376 744.461C959.734 745.113 959.913 745.859 959.913 746.698C959.913 747.563 959.712 748.335 959.312 749.012C958.915 749.685 958.364 750.216 957.656 750.604C956.953 750.987 956.139 751.179 955.214 751.179ZM968.693 751.249C967.64 751.249 966.737 750.983 965.983 750.45C965.233 749.913 964.655 749.14 964.25 748.13C963.85 747.116 963.649 745.895 963.649 744.467C963.654 743.04 963.856 741.825 964.257 740.824C964.662 739.818 965.239 739.051 965.989 738.523C966.743 737.994 967.644 737.73 968.693 737.73C969.741 737.73 970.642 737.994 971.397 738.523C972.151 739.051 972.728 739.818 973.129 740.824C973.534 741.83 973.736 743.044 973.736 744.467C973.736 745.899 973.534 747.122 973.129 748.136C972.728 749.146 972.151 749.918 971.397 750.45C970.647 750.983 969.745 751.249 968.693 751.249ZM968.693 749.249C969.511 749.249 970.157 748.846 970.63 748.04C971.107 747.231 971.345 746.04 971.345 744.467C971.345 743.428 971.237 742.554 971.019 741.847C970.802 741.139 970.495 740.607 970.099 740.249C969.703 739.886 969.234 739.705 968.693 739.705C967.879 739.705 967.235 740.11 966.762 740.92C966.289 741.725 966.051 742.908 966.046 744.467C966.042 745.511 966.147 746.389 966.36 747.101C966.577 747.812 966.884 748.349 967.28 748.712C967.676 749.07 968.147 749.249 968.693 749.249ZM982.499 751.249C981.446 751.249 980.543 750.983 979.788 750.45C979.038 749.913 978.461 749.14 978.056 748.13C977.656 747.116 977.455 745.895 977.455 744.467C977.46 743.04 977.662 741.825 978.063 740.824C978.467 739.818 979.045 739.051 979.795 738.523C980.549 737.994 981.45 737.73 982.499 737.73C983.547 737.73 984.448 737.994 985.202 738.523C985.957 739.051 986.534 739.818 986.935 740.824C987.34 741.83 987.542 743.044 987.542 744.467C987.542 745.899 987.34 747.122 986.935 748.136C986.534 749.146 985.957 749.918 985.202 750.45C984.452 750.983 983.551 751.249 982.499 751.249ZM982.499 749.249C983.317 749.249 983.962 748.846 984.435 748.04C984.913 747.231 985.151 746.04 985.151 744.467C985.151 743.428 985.043 742.554 984.825 741.847C984.608 741.139 984.301 740.607 983.905 740.249C983.509 739.886 983.04 739.705 982.499 739.705C981.685 739.705 981.041 740.11 980.568 740.92C980.095 741.725 979.857 742.908 979.852 744.467C979.848 745.511 979.952 746.389 980.166 747.101C980.383 747.812 980.69 748.349 981.086 748.712C981.482 749.07 981.953 749.249 982.499 749.249ZM999.437 751L995.128 745.279H993.965V751H991.594V737.909H993.965V743.291H994.559L999.213 737.909H1002.13L996.963 743.879L1002.36 751H999.437ZM1008.35 748.903V740.057H1010.36V748.903H1008.35ZM1004.93 745.484V743.477H1013.78V745.484H1004.93Z" fill="black"/>
<defs>
<linearGradient id="paint0_linear_3239_2778" x1="703.933" y1="750.5" x2="40" y2="750.5" gradientUnits="userSpaceOnUse">
<stop stop-color="#04B34A"/>
<stop offset="0.0001" stop-color="#04B34A" stop-opacity="0.991615"/>
<stop offset="0.119507" stop-color="#04B34A" stop-opacity="0.967585"/>
<stop offset="0.235693" stop-color="#04B34A" stop-opacity="0.9296"/>
<stop offset="0.322832" stop-color="#04B34A" stop-opacity="0.879348"/>
<stop offset="0.379604" stop-color="#04B34A" stop-opacity="0.818519"/>
<stop offset="0.4456" stop-color="#04B34A" stop-opacity="0.7488"/>
<stop offset="0.48243" stop-color="#04B34A" stop-opacity="0.671881"/>
<stop offset="0.51757" stop-color="#04B34A" stop-opacity="0.589452"/>
<stop offset="0.5544" stop-color="#04B34A" stop-opacity="0.5032"/>
<stop offset="0.596296" stop-color="#04B34A" stop-opacity="0.414815"/>
<stop offset="0.646637" stop-color="#04B34A" stop-opacity="0.325985"/>
<stop offset="0.7088" stop-color="#04B34A" stop-opacity="0.2384"/>
<stop offset="0.786163" stop-color="#04B34A" stop-opacity="0.153748"/>
<stop offset="0.882104" stop-color="#04B34A" stop-opacity="0.0737185"/>
<stop offset="1" stop-color="#04B34A" stop-opacity="0"/>
</linearGradient>
<linearGradient id="paint1_linear_3239_2778" x1="639.1" y1="750.5" x2="192" y2="750.5" gradientUnits="userSpaceOnUse">
<stop stop-color="#04B34A"/>
<stop offset="0.0001" stop-color="#04B34A" stop-opacity="0.991615"/>
<stop offset="0.119507" stop-color="#04B34A" stop-opacity="0.967585"/>
<stop offset="0.235693" stop-color="#04B34A" stop-opacity="0.9296"/>
<stop offset="0.322832" stop-color="#04B34A" stop-opacity="0.879348"/>
<stop offset="0.379604" stop-color="#04B34A" stop-opacity="0.818519"/>
<stop offset="0.4456" stop-color="#04B34A" stop-opacity="0.7488"/>
<stop offset="0.48243" stop-color="#04B34A" stop-opacity="0.671881"/>
<stop offset="0.51757" stop-color="#04B34A" stop-opacity="0.589452"/>
<stop offset="0.5544" stop-color="#04B34A" stop-opacity="0.5032"/>
<stop offset="0.596296" stop-color="#04B34A" stop-opacity="0.414815"/>
<stop offset="0.646637" stop-color="#04B34A" stop-opacity="0.325985"/>
<stop offset="0.7088" stop-color="#04B34A" stop-opacity="0.2384"/>
<stop offset="0.786163" stop-color="#04B34A" stop-opacity="0.153748"/>
<stop offset="0.882104" stop-color="#04B34A" stop-opacity="0.0737185"/>
<stop offset="1" stop-color="#04B34A" stop-opacity="0"/>
</linearGradient>
<linearGradient id="paint2_linear_3239_2778" x1="909.528" y1="750.5" x2="344" y2="750.5" gradientUnits="userSpaceOnUse">
<stop stop-color="#04B34A"/>
<stop offset="0.0001" stop-color="#04B34A" stop-opacity="0.991615"/>
<stop offset="0.119507" stop-color="#04B34A" stop-opacity="0.967585"/>
<stop offset="0.235693" stop-color="#04B34A" stop-opacity="0.9296"/>
<stop offset="0.322832" stop-color="#04B34A" stop-opacity="0.879348"/>
<stop offset="0.379604" stop-color="#04B34A" stop-opacity="0.818519"/>
<stop offset="0.4456" stop-color="#04B34A" stop-opacity="0.7488"/>
<stop offset="0.48243" stop-color="#04B34A" stop-opacity="0.671881"/>
<stop offset="0.51757" stop-color="#04B34A" stop-opacity="0.589452"/>
<stop offset="0.5544" stop-color="#04B34A" stop-opacity="0.5032"/>
<stop offset="0.596296" stop-color="#04B34A" stop-opacity="0.414815"/>
<stop offset="0.646637" stop-color="#04B34A" stop-opacity="0.325985"/>
<stop offset="0.7088" stop-color="#04B34A" stop-opacity="0.2384"/>
<stop offset="0.786163" stop-color="#04B34A" stop-opacity="0.153748"/>
<stop offset="0.882104" stop-color="#04B34A" stop-opacity="0.0737185"/>
<stop offset="1" stop-color="#04B34A" stop-opacity="0"/>
</linearGradient>
<linearGradient id="paint3_linear_3239_2778" x1="1147" y1="750.5" x2="496" y2="750.5" gradientUnits="userSpaceOnUse">
<stop stop-color="#04B34A"/>
<stop offset="0.0001" stop-color="#04B34A" stop-opacity="0.991615"/>
<stop offset="0.119507" stop-color="#04B34A" stop-opacity="0.967585"/>
<stop offset="0.235693" stop-color="#04B34A" stop-opacity="0.9296"/>
<stop offset="0.322832" stop-color="#04B34A" stop-opacity="0.879348"/>
<stop offset="0.379604" stop-color="#04B34A" stop-opacity="0.818519"/>
<stop offset="0.4456" stop-color="#04B34A" stop-opacity="0.7488"/>
<stop offset="0.48243" stop-color="#04B34A" stop-opacity="0.671881"/>
<stop offset="0.51757" stop-color="#04B34A" stop-opacity="0.589452"/>
<stop offset="0.5544" stop-color="#04B34A" stop-opacity="0.5032"/>
<stop offset="0.596296" stop-color="#04B34A" stop-opacity="0.414815"/>
<stop offset="0.646637" stop-color="#04B34A" stop-opacity="0.325985"/>
<stop offset="0.7088" stop-color="#04B34A" stop-opacity="0.2384"/>
<stop offset="0.786163" stop-color="#04B34A" stop-opacity="0.153748"/>
<stop offset="0.882104" stop-color="#04B34A" stop-opacity="0.0737185"/>
<stop offset="1" stop-color="#04B34A" stop-opacity="0"/>
</linearGradient>
<linearGradient id="paint4_linear_3239_2778" x1="1337.39" y1="745.5" x2="648" y2="745.5" gradientUnits="userSpaceOnUse">
<stop stop-color="#04B34A"/>
<stop offset="0.0001" stop-color="#04B34A" stop-opacity="0.991615"/>
<stop offset="0.119507" stop-color="#04B34A" stop-opacity="0.967585"/>
<stop offset="0.235693" stop-color="#04B34A" stop-opacity="0.9296"/>
<stop offset="0.322832" stop-color="#04B34A" stop-opacity="0.879348"/>
<stop offset="0.379604" stop-color="#04B34A" stop-opacity="0.818519"/>
<stop offset="0.4456" stop-color="#04B34A" stop-opacity="0.7488"/>
<stop offset="0.48243" stop-color="#04B34A" stop-opacity="0.671881"/>
<stop offset="0.51757" stop-color="#04B34A" stop-opacity="0.589452"/>
<stop offset="0.5544" stop-color="#04B34A" stop-opacity="0.5032"/>
<stop offset="0.596296" stop-color="#04B34A" stop-opacity="0.414815"/>
<stop offset="0.646637" stop-color="#04B34A" stop-opacity="0.325985"/>
<stop offset="0.7088" stop-color="#04B34A" stop-opacity="0.2384"/>
<stop offset="0.786163" stop-color="#04B34A" stop-opacity="0.153748"/>
<stop offset="0.882104" stop-color="#04B34A" stop-opacity="0.0737185"/>
<stop offset="1" stop-color="#04B34A" stop-opacity="0"/>
</linearGradient>
<linearGradient id="paint5_linear_3239_2778" x1="1602.26" y1="750.5" x2="800" y2="750.5" gradientUnits="userSpaceOnUse">
<stop stop-color="#04B34A"/>
<stop offset="0.0001" stop-color="#04B34A" stop-opacity="0.991615"/>
<stop offset="0.119507" stop-color="#04B34A" stop-opacity="0.967585"/>
<stop offset="0.235693" stop-color="#04B34A" stop-opacity="0.9296"/>
<stop offset="0.322832" stop-color="#04B34A" stop-opacity="0.879348"/>
<stop offset="0.379604" stop-color="#04B34A" stop-opacity="0.818519"/>
<stop offset="0.4456" stop-color="#04B34A" stop-opacity="0.7488"/>
<stop offset="0.48243" stop-color="#04B34A" stop-opacity="0.671881"/>
<stop offset="0.51757" stop-color="#04B34A" stop-opacity="0.589452"/>
<stop offset="0.5544" stop-color="#04B34A" stop-opacity="0.5032"/>
<stop offset="0.596296" stop-color="#04B34A" stop-opacity="0.414815"/>
<stop offset="0.646637" stop-color="#04B34A" stop-opacity="0.325985"/>
<stop offset="0.7088" stop-color="#04B34A" stop-opacity="0.2384"/>
<stop offset="0.786163" stop-color="#04B34A" stop-opacity="0.153748"/>
<stop offset="0.882104" stop-color="#04B34A" stop-opacity="0.0737185"/>
<stop offset="1" stop-color="#04B34A" stop-opacity="0"/>
</linearGradient>
<linearGradient id="paint6_linear_3239_2778" x1="2419.11" y1="750.5" x2="952" y2="750.5" gradientUnits="userSpaceOnUse">
<stop stop-color="#04B34A"/>
<stop offset="0.0001" stop-color="#04B34A" stop-opacity="0.991615"/>
<stop offset="0.119507" stop-color="#04B34A" stop-opacity="0.967585"/>
<stop offset="0.235693" stop-color="#04B34A" stop-opacity="0.9296"/>
<stop offset="0.322832" stop-color="#04B34A" stop-opacity="0.879348"/>
<stop offset="0.379604" stop-color="#04B34A" stop-opacity="0.818519"/>
<stop offset="0.4456" stop-color="#04B34A" stop-opacity="0.7488"/>
<stop offset="0.48243" stop-color="#04B34A" stop-opacity="0.671881"/>
<stop offset="0.51757" stop-color="#04B34A" stop-opacity="0.589452"/>
<stop offset="0.5544" stop-color="#04B34A" stop-opacity="0.5032"/>
<stop offset="0.596296" stop-color="#04B34A" stop-opacity="0.414815"/>
<stop offset="0.646637" stop-color="#04B34A" stop-opacity="0.325985"/>
<stop offset="0.7088" stop-color="#04B34A" stop-opacity="0.2384"/>
<stop offset="0.786163" stop-color="#04B34A" stop-opacity="0.153748"/>
<stop offset="0.882104" stop-color="#04B34A" stop-opacity="0.0737185"/>
<stop offset="1" stop-color="#04B34A" stop-opacity="0"/>
</linearGradient>
</defs>
</svg>
