<svg width="1080" height="772" viewBox="0 0 1080 772" fill="none" xmlns="http://www.w3.org/2000/svg">
<rect width="1080" height="772" fill="white"/>
<path d="M915.587 49L912.911 64.8629H915.891L914.181 75H908.668L909.483 70.1698H895.329L894.514 75H889L890.71 64.8629H892.824C893.79 63.5513 894.707 61.8209 895.74 58.1838L898.364 49H915.59H915.587ZM908.584 54.3069H902.535L901.369 58.3918C900.354 61.9393 899.515 63.5484 898.667 64.8629H906.805L908.584 54.3069Z" fill="#EAECEF"/>
<path d="M920.448 49H933.56C938.18 49 940.257 51.3544 939.681 54.7547C939.314 56.93 937.677 58.3311 936.141 58.958C937.818 59.6138 939.146 61.2836 938.663 64.1464C938.05 67.7836 935.085 70.1698 930.167 70.1698H916.875L920.448 49ZM924.295 61.7024L923.67 65.4002H929.69C931.298 65.4002 932.293 64.8051 932.504 63.5513C932.721 62.2687 931.923 61.7024 930.312 61.7024H924.292H924.295ZM925.631 53.7724L925.099 56.9329H931.029C932.282 56.9329 933.161 56.4851 933.352 55.3527C933.543 54.2202 932.814 53.7724 931.561 53.7724H925.631Z" fill="#EAECEF"/>
<path d="M943.47 49H949.579L947.427 61.7602L958.906 49H965.015L961.445 70.1698H955.336L957.479 57.4673L946.01 70.1698H939.9L943.47 49Z" fill="#EAECEF"/>
<path d="M974.098 59.1978L966.907 49H973.821L979.812 57.6464L981.272 49H987.084L985.626 57.6464L994.536 49H1001.3L990.954 58.9291L998.177 70.1698H990.815L985.039 61.1362L983.514 70.1698H977.703L979.227 61.1362L970.402 70.1698H963.309L974.101 59.1978H974.098Z" fill="#EAECEF"/>
<path d="M1010.23 49H1003.13L1010.19 58.9291L999.713 70.1698H1006.81L1017.29 58.9291L1010.23 49ZM1021.44 49H1014.34L1021.41 58.9291L1010.93 70.1698H1018.02L1028.5 58.9291L1021.44 49ZM1032.94 49H1025.85L1032.91 58.9291L1022.43 70.1698H1029.52L1040 58.9291L1032.94 49Z" fill="#EAECEF"/>
<path d="M64.5327 48.8182V75H59.0611V53.3182H48.4759V75H43.0043V48.8182H64.5327ZM68.2606 82.3636V55.3636H73.63V58.6619H73.8729C74.1115 58.1335 74.4567 57.5966 74.9084 57.0511C75.3686 56.4972 75.9652 56.0369 76.6981 55.6705C77.4396 55.2955 78.3601 55.108 79.4595 55.108C80.8913 55.108 82.2123 55.483 83.4226 56.233C84.6328 56.9744 85.6001 58.0952 86.3246 59.5952C87.049 61.0866 87.4112 62.9574 87.4112 65.2074C87.4112 67.3977 87.0575 69.2472 86.3501 70.7557C85.6513 72.2557 84.6967 73.3935 83.4865 74.169C82.2848 74.9361 80.9382 75.3196 79.4467 75.3196C78.3899 75.3196 77.4908 75.1449 76.7493 74.7955C76.0163 74.446 75.4155 74.0071 74.9467 73.4787C74.478 72.9418 74.12 72.4006 73.8729 71.8551H73.7067V82.3636H68.2606ZM73.5916 65.1818C73.5916 66.3494 73.7535 67.3679 74.0774 68.2372C74.4013 69.1065 74.87 69.7841 75.4837 70.2699C76.0973 70.7472 76.843 70.9858 77.7209 70.9858C78.6072 70.9858 79.3572 70.7429 79.9709 70.2571C80.5845 69.7628 81.049 69.081 81.3643 68.2116C81.6882 67.3338 81.8501 66.3239 81.8501 65.1818C81.8501 64.0483 81.6925 63.0511 81.3771 62.1903C81.0618 61.3295 80.5973 60.6562 79.9837 60.1705C79.37 59.6847 78.6158 59.4418 77.7209 59.4418C76.8345 59.4418 76.0845 59.6761 75.4709 60.1449C74.8658 60.6136 74.4013 61.2784 74.0774 62.1392C73.7535 63 73.5916 64.0142 73.5916 65.1818ZM98.474 75.3835C96.4883 75.3835 94.7709 74.9616 93.3221 74.1179C91.8817 73.2656 90.7695 72.081 89.9854 70.5639C89.2013 69.0384 88.8093 67.2699 88.8093 65.2585C88.8093 63.2301 89.2013 61.4574 89.9854 59.9403C90.7695 58.4148 91.8817 57.2301 93.3221 56.3864C94.7709 55.5341 96.4883 55.108 98.474 55.108C100.46 55.108 102.173 55.5341 103.613 56.3864C105.062 57.2301 106.179 58.4148 106.963 59.9403C107.747 61.4574 108.139 63.2301 108.139 65.2585C108.139 67.2699 107.747 69.0384 106.963 70.5639C106.179 72.081 105.062 73.2656 103.613 74.1179C102.173 74.9616 100.46 75.3835 98.474 75.3835ZM98.4996 71.1648C99.403 71.1648 100.157 70.9091 100.762 70.3977C101.368 69.8778 101.823 69.1705 102.13 68.2756C102.446 67.3807 102.603 66.3622 102.603 65.2202C102.603 64.0781 102.446 63.0597 102.13 62.1648C101.823 61.2699 101.368 60.5625 100.762 60.0426C100.157 59.5227 99.403 59.2628 98.4996 59.2628C97.5877 59.2628 96.8206 59.5227 96.1985 60.0426C95.5848 60.5625 95.1204 61.2699 94.805 62.1648C94.4982 63.0597 94.3448 64.0781 94.3448 65.2202C94.3448 66.3622 94.4982 67.3807 94.805 68.2756C95.1204 69.1705 95.5848 69.8778 96.1985 70.3977C96.8206 70.9091 97.5877 71.1648 98.4996 71.1648ZM127.409 55.3636V71.2415H130.541V81.3153H125.249V75H110.24V55.3636H115.443V70.7173H122.27V55.3636H127.409ZM141.198 75.3835C139.178 75.3835 137.44 74.9744 135.982 74.1562C134.533 73.3295 133.417 72.1619 132.633 70.6534C131.849 69.1364 131.457 67.3423 131.457 65.2713C131.457 63.2514 131.849 61.4787 132.633 59.9531C133.417 58.4276 134.521 57.2386 135.944 56.3864C137.376 55.5341 139.055 55.108 140.981 55.108C142.276 55.108 143.482 55.3168 144.599 55.7344C145.724 56.1435 146.704 56.7614 147.539 57.5881C148.383 58.4148 149.039 59.4545 149.508 60.7074C149.977 61.9517 150.211 63.4091 150.211 65.0795V66.5753H133.63V63.2003H145.084C145.084 62.4162 144.914 61.7216 144.573 61.1165C144.232 60.5114 143.759 60.0384 143.154 59.6974C142.557 59.348 141.863 59.1733 141.07 59.1733C140.244 59.1733 139.511 59.3651 138.871 59.7486C138.241 60.1236 137.746 60.6307 137.388 61.2699C137.03 61.9006 136.847 62.6037 136.839 63.3793V66.5881C136.839 67.5597 137.018 68.3991 137.376 69.1065C137.742 69.8139 138.258 70.3594 138.923 70.7429C139.587 71.1264 140.376 71.3182 141.288 71.3182C141.893 71.3182 142.447 71.233 142.95 71.0625C143.452 70.892 143.883 70.6364 144.241 70.2955C144.599 69.9545 144.871 69.5369 145.059 69.0426L150.096 69.375C149.84 70.5852 149.316 71.642 148.523 72.5455C147.739 73.4403 146.725 74.1392 145.481 74.642C144.245 75.1364 142.817 75.3835 141.198 75.3835ZM165.991 63.0085V67.2912H155.738V63.0085H165.991ZM157.528 55.3636V75H152.325V55.3636H157.528ZM169.404 55.3636V75H164.24V55.3636H169.404ZM170.218 59.6463V55.3636H188.013V59.6463H181.685V75H176.495V59.6463H170.218ZM205.639 75.3835C203.653 75.3835 201.936 74.9616 200.487 74.1179C199.046 73.2656 197.934 72.081 197.15 70.5639C196.366 69.0384 195.974 67.2699 195.974 65.2585C195.974 63.2301 196.366 61.4574 197.15 59.9403C197.934 58.4148 199.046 57.2301 200.487 56.3864C201.936 55.5341 203.653 55.108 205.639 55.108C207.625 55.108 209.338 55.5341 210.778 56.3864C212.227 57.2301 213.343 58.4148 214.127 59.9403C214.911 61.4574 215.304 63.2301 215.304 65.2585C215.304 67.2699 214.911 69.0384 214.127 70.5639C213.343 72.081 212.227 73.2656 210.778 74.1179C209.338 74.9616 207.625 75.3835 205.639 75.3835ZM205.664 71.1648C206.568 71.1648 207.322 70.9091 207.927 70.3977C208.532 69.8778 208.988 69.1705 209.295 68.2756C209.61 67.3807 209.768 66.3622 209.768 65.2202C209.768 64.0781 209.61 63.0597 209.295 62.1648C208.988 61.2699 208.532 60.5625 207.927 60.0426C207.322 59.5227 206.568 59.2628 205.664 59.2628C204.752 59.2628 203.985 59.5227 203.363 60.0426C202.75 60.5625 202.285 61.2699 201.97 62.1648C201.663 63.0597 201.509 64.0781 201.509 65.2202C201.509 66.3622 201.663 67.3807 201.97 68.2756C202.285 69.1705 202.75 69.8778 203.363 70.3977C203.985 70.9091 204.752 71.1648 205.664 71.1648ZM215.871 80.7528V70.679H217.379C217.814 70.4062 218.163 69.9716 218.427 69.375C218.7 68.7784 218.922 68.0753 219.092 67.2656C219.271 66.456 219.408 65.5824 219.501 64.6449C219.604 63.6989 219.693 62.7443 219.77 61.7812L220.281 55.3636H235.341V70.679H238.383V80.7528H233.193V75H221.189V80.7528H215.871ZM222.8 70.679H230.202V59.5568H224.909L224.704 61.7812C224.56 63.8778 224.351 65.6591 224.078 67.125C223.805 68.5824 223.379 69.767 222.8 70.679ZM248.989 75.3835C247.003 75.3835 245.286 74.9616 243.837 74.1179C242.397 73.2656 241.285 72.081 240.501 70.5639C239.716 69.0384 239.324 67.2699 239.324 65.2585C239.324 63.2301 239.716 61.4574 240.501 59.9403C241.285 58.4148 242.397 57.2301 243.837 56.3864C245.286 55.5341 247.003 55.108 248.989 55.108C250.975 55.108 252.688 55.5341 254.128 56.3864C255.577 57.2301 256.694 58.4148 257.478 59.9403C258.262 61.4574 258.654 63.2301 258.654 65.2585C258.654 67.2699 258.262 69.0384 257.478 70.5639C256.694 72.081 255.577 73.2656 254.128 74.1179C252.688 74.9616 250.975 75.3835 248.989 75.3835ZM249.015 71.1648C249.918 71.1648 250.672 70.9091 251.278 70.3977C251.883 69.8778 252.339 69.1705 252.645 68.2756C252.961 67.3807 253.118 66.3622 253.118 65.2202C253.118 64.0781 252.961 63.0597 252.645 62.1648C252.339 61.2699 251.883 60.5625 251.278 60.0426C250.672 59.5227 249.918 59.2628 249.015 59.2628C248.103 59.2628 247.336 59.5227 246.714 60.0426C246.1 60.5625 245.636 61.2699 245.32 62.1648C245.013 63.0597 244.86 64.0781 244.86 65.2202C244.86 66.3622 245.013 67.3807 245.32 68.2756C245.636 69.1705 246.1 69.8778 246.714 70.3977C247.336 70.9091 248.103 71.1648 249.015 71.1648ZM277.08 48.1534L278.742 51.7074C278.188 52.1676 277.575 52.5085 276.901 52.7301C276.228 52.9432 275.423 53.0838 274.485 53.152C273.556 53.2202 272.423 53.267 271.085 53.2926C269.568 53.3097 268.332 53.5526 267.377 54.0213C266.423 54.4901 265.698 55.2273 265.204 56.233C264.71 57.2301 264.386 58.5341 264.232 60.1449H264.424C265.012 58.9432 265.839 58.0142 266.904 57.358C267.978 56.7017 269.303 56.3736 270.88 56.3736C272.551 56.3736 274.012 56.7401 275.265 57.473C276.526 58.206 277.507 59.2585 278.205 60.6307C278.904 62.0028 279.254 63.6477 279.254 65.5653C279.254 67.5597 278.862 69.294 278.078 70.7685C277.302 72.2344 276.198 73.3722 274.767 74.1818C273.335 74.983 271.63 75.3835 269.653 75.3835C267.667 75.3835 265.954 74.9659 264.514 74.1307C263.082 73.2955 261.974 72.0639 261.19 70.4361C260.414 68.8082 260.026 66.8054 260.026 64.4276V62.8168C260.026 58.0866 260.947 54.5795 262.788 52.2955C264.629 50.0114 267.335 48.8523 270.906 48.8182C271.877 48.8011 272.755 48.7969 273.539 48.8054C274.323 48.8139 275.009 48.7756 275.598 48.6903C276.194 48.6051 276.688 48.4261 277.08 48.1534ZM269.678 71.1648C270.514 71.1648 271.23 70.9474 271.826 70.5128C272.431 70.0781 272.896 69.456 273.22 68.6463C273.552 67.8366 273.718 66.8693 273.718 65.7443C273.718 64.6278 273.552 63.6818 273.22 62.9062C272.896 62.1222 272.431 61.5256 271.826 61.1165C271.221 60.7074 270.497 60.5028 269.653 60.5028C269.022 60.5028 268.455 60.6179 267.953 60.848C267.45 61.0781 267.019 61.419 266.661 61.8707C266.312 62.3139 266.039 62.8636 265.843 63.5199C265.656 64.1676 265.562 64.9091 265.562 65.7443C265.562 67.4233 265.924 68.7486 266.649 69.7202C267.382 70.6832 268.392 71.1648 269.678 71.1648ZM281.428 82.3636V55.3636H286.798V58.6619H287.041C287.279 58.1335 287.624 57.5966 288.076 57.0511C288.536 56.4972 289.133 56.0369 289.866 55.6705C290.607 55.2955 291.528 55.108 292.627 55.108C294.059 55.108 295.38 55.483 296.59 56.233C297.801 56.9744 298.768 58.0952 299.492 59.5952C300.217 61.0866 300.579 62.9574 300.579 65.2074C300.579 67.3977 300.225 69.2472 299.518 70.7557C298.819 72.2557 297.865 73.3935 296.654 74.169C295.453 74.9361 294.106 75.3196 292.615 75.3196C291.558 75.3196 290.659 75.1449 289.917 74.7955C289.184 74.446 288.583 74.0071 288.115 73.4787C287.646 72.9418 287.288 72.4006 287.041 71.8551H286.874V82.3636H281.428ZM286.759 65.1818C286.759 66.3494 286.921 67.3679 287.245 68.2372C287.569 69.1065 288.038 69.7841 288.651 70.2699C289.265 70.7472 290.011 70.9858 290.889 70.9858C291.775 70.9858 292.525 70.7429 293.139 70.2571C293.752 69.7628 294.217 69.081 294.532 68.2116C294.856 67.3338 295.018 66.3239 295.018 65.1818C295.018 64.0483 294.86 63.0511 294.545 62.1903C294.23 61.3295 293.765 60.6562 293.151 60.1705C292.538 59.6847 291.784 59.4418 290.889 59.4418C290.002 59.4418 289.252 59.6761 288.639 60.1449C288.034 60.6136 287.569 61.2784 287.245 62.1392C286.921 63 286.759 64.0142 286.759 65.1818ZM311.719 75.3835C309.699 75.3835 307.96 74.9744 306.503 74.1562C305.054 73.3295 303.937 72.1619 303.153 70.6534C302.369 69.1364 301.977 67.3423 301.977 65.2713C301.977 63.2514 302.369 61.4787 303.153 59.9531C303.937 58.4276 305.041 57.2386 306.464 56.3864C307.896 55.5341 309.575 55.108 311.501 55.108C312.797 55.108 314.003 55.3168 315.119 55.7344C316.244 56.1435 317.224 56.7614 318.059 57.5881C318.903 58.4148 319.559 59.4545 320.028 60.7074C320.497 61.9517 320.731 63.4091 320.731 65.0795V66.5753H304.15V63.2003H315.605C315.605 62.4162 315.434 61.7216 315.094 61.1165C314.753 60.5114 314.28 60.0384 313.675 59.6974C313.078 59.348 312.383 59.1733 311.591 59.1733C310.764 59.1733 310.031 59.3651 309.392 59.7486C308.761 60.1236 308.267 60.6307 307.909 61.2699C307.551 61.9006 307.368 62.6037 307.359 63.3793V66.5881C307.359 67.5597 307.538 68.3991 307.896 69.1065C308.263 69.8139 308.778 70.3594 309.443 70.7429C310.108 71.1264 310.896 71.3182 311.808 71.3182C312.413 71.3182 312.967 71.233 313.47 71.0625C313.973 70.892 314.403 70.6364 314.761 70.2955C315.119 69.9545 315.392 69.5369 315.579 69.0426L320.616 69.375C320.361 70.5852 319.836 71.642 319.044 72.5455C318.26 73.4403 317.246 74.1392 316.001 74.642C314.765 75.1364 313.338 75.3835 311.719 75.3835ZM336.512 63.0085V67.2912H326.259V63.0085H336.512ZM328.048 55.3636V75H322.845V55.3636H328.048ZM339.925 55.3636V75H334.76V55.3636H339.925ZM347.913 67.8153L354.983 55.3636H360.352V75H355.162V62.5099L348.118 75H342.71V55.3636H347.913V67.8153ZM374.784 75V59.6335H371.102C370.105 59.6335 369.346 59.8636 368.826 60.3239C368.306 60.7841 368.051 61.3295 368.059 61.9602C368.051 62.5994 368.298 63.1406 368.801 63.5838C369.312 64.0185 370.062 64.2358 371.051 64.2358H376.599V67.9176H371.051C369.372 67.9176 367.918 67.6619 366.691 67.1506C365.464 66.6392 364.518 65.9276 363.853 65.0156C363.188 64.0952 362.86 63.0256 362.869 61.8068C362.86 60.5284 363.188 59.4077 363.853 58.4446C364.518 57.473 365.468 56.7187 366.704 56.1818C367.948 55.6364 369.414 55.3636 371.102 55.3636H379.859V75H374.784ZM362.306 75L367.765 64.7727H372.968L367.522 75H362.306ZM389.542 75V55.3636H406.711V75H401.508V59.6463H394.682V75H389.542ZM418.49 75.3835C416.504 75.3835 414.787 74.9616 413.338 74.1179C411.898 73.2656 410.786 72.081 410.001 70.5639C409.217 69.0384 408.825 67.2699 408.825 65.2585C408.825 63.2301 409.217 61.4574 410.001 59.9403C410.786 58.4148 411.898 57.2301 413.338 56.3864C414.787 55.5341 416.504 55.108 418.49 55.108C420.476 55.108 422.189 55.5341 423.629 56.3864C425.078 57.2301 426.195 58.4148 426.979 59.9403C427.763 61.4574 428.155 63.2301 428.155 65.2585C428.155 67.2699 427.763 69.0384 426.979 70.5639C426.195 72.081 425.078 73.2656 423.629 74.1179C422.189 74.9616 420.476 75.3835 418.49 75.3835ZM418.516 71.1648C419.419 71.1648 420.173 70.9091 420.778 70.3977C421.384 69.8778 421.84 69.1705 422.146 68.2756C422.462 67.3807 422.619 66.3622 422.619 65.2202C422.619 64.0781 422.462 63.0597 422.146 62.1648C421.84 61.2699 421.384 60.5625 420.778 60.0426C420.173 59.5227 419.419 59.2628 418.516 59.2628C417.604 59.2628 416.837 59.5227 416.215 60.0426C415.601 60.5625 415.136 61.2699 414.821 62.1648C414.514 63.0597 414.361 64.0781 414.361 65.2202C414.361 66.3622 414.514 67.3807 414.821 68.2756C415.136 69.1705 415.601 69.8778 416.215 70.3977C416.837 70.9091 417.604 71.1648 418.516 71.1648ZM437.148 82.3636V55.3636H442.517V58.6619H442.76C442.999 58.1335 443.344 57.5966 443.796 57.0511C444.256 56.4972 444.853 56.0369 445.586 55.6705C446.327 55.2955 447.248 55.108 448.347 55.108C449.779 55.108 451.1 55.483 452.31 56.233C453.52 56.9744 454.488 58.0952 455.212 59.5952C455.937 61.0866 456.299 62.9574 456.299 65.2074C456.299 67.3977 455.945 69.2472 455.238 70.7557C454.539 72.2557 453.584 73.3935 452.374 74.169C451.172 74.9361 449.826 75.3196 448.334 75.3196C447.277 75.3196 446.378 75.1449 445.637 74.7955C444.904 74.446 444.303 74.0071 443.834 73.4787C443.365 72.9418 443.008 72.4006 442.76 71.8551H442.594V82.3636H437.148ZM442.479 65.1818C442.479 66.3494 442.641 67.3679 442.965 68.2372C443.289 69.1065 443.758 69.7841 444.371 70.2699C444.985 70.7472 445.731 70.9858 446.608 70.9858C447.495 70.9858 448.245 70.7429 448.858 70.2571C449.472 69.7628 449.937 69.081 450.252 68.2116C450.576 67.3338 450.738 66.3239 450.738 65.1818C450.738 64.0483 450.58 63.0511 450.265 62.1903C449.949 61.3295 449.485 60.6562 448.871 60.1705C448.258 59.6847 447.503 59.4418 446.608 59.4418C445.722 59.4418 444.972 59.6761 444.358 60.1449C443.753 60.6136 443.289 61.2784 442.965 62.1392C442.641 63 442.479 64.0142 442.479 65.1818ZM467.438 75.3835C465.418 75.3835 463.68 74.9744 462.222 74.1562C460.773 73.3295 459.657 72.1619 458.873 70.6534C458.089 69.1364 457.697 67.3423 457.697 65.2713C457.697 63.2514 458.089 61.4787 458.873 59.9531C459.657 58.4276 460.761 57.2386 462.184 56.3864C463.616 55.5341 465.295 55.108 467.221 55.108C468.516 55.108 469.722 55.3168 470.839 55.7344C471.964 56.1435 472.944 56.7614 473.779 57.5881C474.623 58.4148 475.279 59.4545 475.748 60.7074C476.217 61.9517 476.451 63.4091 476.451 65.0795V66.5753H459.87V63.2003H471.325C471.325 62.4162 471.154 61.7216 470.813 61.1165C470.472 60.5114 469.999 60.0384 469.394 59.6974C468.798 59.348 468.103 59.1733 467.31 59.1733C466.484 59.1733 465.751 59.3651 465.112 59.7486C464.481 60.1236 463.987 60.6307 463.629 61.2699C463.271 61.9006 463.087 62.6037 463.079 63.3793V66.5881C463.079 67.5597 463.258 68.3991 463.616 69.1065C463.982 69.8139 464.498 70.3594 465.163 70.7429C465.827 71.1264 466.616 71.3182 467.528 71.3182C468.133 71.3182 468.687 71.233 469.19 71.0625C469.693 70.892 470.123 70.6364 470.481 70.2955C470.839 69.9545 471.112 69.5369 471.299 69.0426L476.336 69.375C476.08 70.5852 475.556 71.642 474.764 72.5455C473.979 73.4403 472.965 74.1392 471.721 74.642C470.485 75.1364 469.058 75.3835 467.438 75.3835ZM492.014 55.3636V59.6463H483.858V75H478.565V55.3636H492.014ZM499.098 67.8153L506.167 55.3636H511.537V75H506.346V62.5099L499.302 75H493.895V55.3636H499.098V67.8153ZM523.335 75.3835C521.349 75.3835 519.631 74.9616 518.183 74.1179C516.742 73.2656 515.63 72.081 514.846 70.5639C514.062 69.0384 513.67 67.2699 513.67 65.2585C513.67 63.2301 514.062 61.4574 514.846 59.9403C515.63 58.4148 516.742 57.2301 518.183 56.3864C519.631 55.5341 521.349 55.108 523.335 55.108C525.32 55.108 527.033 55.5341 528.474 56.3864C529.923 57.2301 531.039 58.4148 531.823 59.9403C532.607 61.4574 532.999 63.2301 532.999 65.2585C532.999 67.2699 532.607 69.0384 531.823 70.5639C531.039 72.081 529.923 73.2656 528.474 74.1179C527.033 74.9616 525.32 75.3835 523.335 75.3835ZM523.36 71.1648C524.263 71.1648 525.018 70.9091 525.623 70.3977C526.228 69.8778 526.684 69.1705 526.991 68.2756C527.306 67.3807 527.464 66.3622 527.464 65.2202C527.464 64.0781 527.306 63.0597 526.991 62.1648C526.684 61.2699 526.228 60.5625 525.623 60.0426C525.018 59.5227 524.263 59.2628 523.36 59.2628C522.448 59.2628 521.681 59.5227 521.059 60.0426C520.445 60.5625 519.981 61.2699 519.665 62.1648C519.359 63.0597 519.205 64.0781 519.205 65.2202C519.205 66.3622 519.359 67.3807 519.665 68.2756C519.981 69.1705 520.445 69.8778 521.059 70.3977C521.681 70.9091 522.448 71.1648 523.36 71.1648ZM548.767 63.0085V67.2912H538.514V63.0085H548.767ZM540.304 55.3636V75H535.1V55.3636H540.304ZM552.18 55.3636V75H547.015V55.3636H552.18ZM560.565 75.3707C559.312 75.3707 558.195 75.1534 557.215 74.7188C556.235 74.2756 555.459 73.6236 554.888 72.7628C554.326 71.8935 554.045 70.8111 554.045 69.5156C554.045 68.4247 554.245 67.5085 554.646 66.767C555.046 66.0256 555.592 65.429 556.282 64.9773C556.972 64.5256 557.756 64.1847 558.634 63.9545C559.521 63.7244 560.45 63.5625 561.421 63.4688C562.563 63.3494 563.484 63.2386 564.182 63.1364C564.881 63.0256 565.388 62.8636 565.704 62.6506C566.019 62.4375 566.177 62.1222 566.177 61.7045V61.6278C566.177 60.8182 565.921 60.1918 565.41 59.7486C564.907 59.3054 564.191 59.0838 563.262 59.0838C562.282 59.0838 561.502 59.3011 560.923 59.7358C560.343 60.1619 559.959 60.6989 559.772 61.3466L554.735 60.9375C554.991 59.7443 555.494 58.7131 556.244 57.8438C556.994 56.9659 557.961 56.2926 559.146 55.8239C560.339 55.3466 561.719 55.108 563.288 55.108C564.379 55.108 565.423 55.2358 566.42 55.4915C567.425 55.7472 568.316 56.1435 569.092 56.6804C569.876 57.2173 570.494 57.9077 570.945 58.7514C571.397 59.5866 571.623 60.5881 571.623 61.7557V75H566.458V72.277H566.305C565.989 72.8906 565.567 73.4318 565.039 73.9006C564.511 74.3608 563.876 74.723 563.134 74.9872C562.393 75.2429 561.536 75.3707 560.565 75.3707ZM562.124 71.6122C562.925 71.6122 563.633 71.4545 564.246 71.1392C564.86 70.8153 565.342 70.3807 565.691 69.8352C566.04 69.2898 566.215 68.6719 566.215 67.9815V65.8977C566.045 66.0085 565.81 66.1108 565.512 66.2045C565.222 66.2898 564.894 66.3707 564.528 66.4474C564.161 66.5156 563.795 66.5795 563.428 66.6392C563.062 66.6903 562.729 66.7372 562.431 66.7798C561.792 66.8736 561.234 67.0227 560.756 67.2273C560.279 67.4318 559.908 67.7088 559.644 68.0582C559.38 68.3991 559.248 68.8253 559.248 69.3366C559.248 70.0781 559.516 70.6449 560.053 71.0369C560.599 71.4205 561.289 71.6122 562.124 71.6122ZM586.016 68.9787L591.334 55.3636H595.476L587.818 75H584.201L576.722 55.3636H580.851L586.016 68.9787ZM579.611 55.3636V75H574.408V55.3636H579.611ZM592.689 75V55.3636H597.828V75H592.689Z" fill="black"/>
<rect x="40" y="437" width="1000" height="295" rx="20" fill="#F7F7F7"/>
<path opacity="0.6" d="M56.2912 469V455.909H61.2003C62.206 455.909 63.0497 456.097 63.7315 456.472C64.4176 456.847 64.9354 457.362 65.2848 458.018C65.6385 458.67 65.8153 459.412 65.8153 460.243C65.8153 461.082 65.6385 461.828 65.2848 462.48C64.9311 463.132 64.4091 463.646 63.7188 464.021C63.0284 464.391 62.1783 464.577 61.1683 464.577H57.9148V462.627H60.8487C61.4368 462.627 61.9183 462.525 62.2933 462.32C62.6683 462.116 62.9453 461.835 63.1243 461.477C63.3075 461.119 63.3991 460.707 63.3991 460.243C63.3991 459.778 63.3075 459.369 63.1243 459.016C62.9453 458.662 62.6662 458.387 62.2869 458.191C61.9119 457.991 61.4283 457.891 60.8359 457.891H58.6626V469H56.2912ZM69.6752 469V455.909H78.1894V457.897H72.0466V461.451H77.7483V463.439H72.0466V467.012H78.2405V469H69.6752ZM90.8271 455.909V457.897H84.7802V469H82.4088V455.909H90.8271ZM94.6326 455.909H96.9849V464.832H97.1063L103.262 455.909H105.39V469H103.019V460.083H102.91L96.7356 469H94.6326V455.909ZM121.472 462.455C121.472 463.865 121.208 465.073 120.679 466.079C120.155 467.08 119.439 467.847 118.531 468.38C117.628 468.913 116.603 469.179 115.457 469.179C114.311 469.179 113.284 468.913 112.376 468.38C111.473 467.843 110.757 467.074 110.228 466.072C109.704 465.067 109.442 463.861 109.442 462.455C109.442 461.044 109.704 459.838 110.228 458.837C110.757 457.831 111.473 457.062 112.376 456.529C113.284 455.996 114.311 455.73 115.457 455.73C116.603 455.73 117.628 455.996 118.531 456.529C119.439 457.062 120.155 457.831 120.679 458.837C121.208 459.838 121.472 461.044 121.472 462.455ZM119.088 462.455C119.088 461.462 118.932 460.624 118.621 459.942C118.314 459.256 117.888 458.739 117.343 458.389C116.797 458.036 116.169 457.859 115.457 457.859C114.745 457.859 114.117 458.036 113.571 458.389C113.026 458.739 112.598 459.256 112.286 459.942C111.98 460.624 111.826 461.462 111.826 462.455C111.826 463.447 111.98 464.287 112.286 464.973C112.598 465.655 113.026 466.173 113.571 466.526C114.117 466.876 114.745 467.05 115.457 467.05C116.169 467.05 116.797 466.876 117.343 466.526C117.888 466.173 118.314 465.655 118.621 464.973C118.932 464.287 119.088 463.447 119.088 462.455ZM125.514 469V455.909H127.885V461.451H133.951V455.909H136.329V469H133.951V463.439H127.885V469H125.514ZM142.313 460.965H145.637C146.638 460.965 147.497 461.129 148.213 461.457C148.933 461.781 149.485 462.239 149.868 462.832C150.252 463.424 150.443 464.121 150.443 464.922C150.443 465.727 150.252 466.437 149.868 467.05C149.485 467.66 148.933 468.137 148.213 468.482C147.497 468.827 146.638 469 145.637 469H140.734V455.909H143.112V467.057H145.637C146.165 467.057 146.613 466.957 146.979 466.756C147.345 466.556 147.622 466.292 147.81 465.964C148.002 465.636 148.098 465.28 148.098 464.896C148.098 464.342 147.885 463.871 147.458 463.484C147.037 463.092 146.429 462.896 145.637 462.896H142.313V460.965ZM153.953 455.909V469H151.575V455.909H153.953Z" fill="black"/>
<path opacity="0.4" d="M1019.96 685.5H55V556L542.782 616.5C542.782 616.5 1014.35 612.106 1019.96 612.002V612C1020.03 612 1020.03 612.001 1019.96 612.002V685.5Z" fill="url(#paint0_linear_3239_3222)"/>
<rect x="1015.19" y="606" width="10.2717" height="10.2717" rx="5.13587" fill="#CACACA"/>
<path d="M1018.5 612L546.089 616L55 555.5" stroke="#CACACA" stroke-width="4"/>
<path d="M875.074 670.445V694.803L865.989 685.684L862 689.638L877.955 705.559L893.875 689.638L889.955 685.684L880.835 694.803V670.445H875.074Z" fill="#CACACA"/>
<path d="M919.79 705.767C916.859 705.756 914.336 705.034 912.222 703.602C910.12 702.17 908.501 700.097 907.364 697.381C906.239 694.665 905.683 691.398 905.694 687.58C905.694 683.773 906.256 680.528 907.381 677.847C908.518 675.165 910.137 673.125 912.239 671.727C914.353 670.318 916.87 669.614 919.79 669.614C922.711 669.614 925.222 670.318 927.325 671.727C929.438 673.136 931.063 675.182 932.2 677.864C933.336 680.534 933.898 683.773 933.887 687.58C933.887 691.409 933.319 694.682 932.183 697.398C931.058 700.114 929.444 702.187 927.342 703.619C925.239 705.051 922.722 705.767 919.79 705.767ZM919.79 699.648C921.79 699.648 923.387 698.642 924.58 696.631C925.773 694.619 926.364 691.602 926.353 687.58C926.353 684.932 926.08 682.727 925.535 680.966C925.001 679.205 924.239 677.881 923.251 676.994C922.273 676.108 921.12 675.665 919.79 675.665C917.802 675.665 916.211 676.659 915.018 678.648C913.825 680.636 913.222 683.614 913.211 687.58C913.211 690.261 913.478 692.5 914.012 694.295C914.558 696.08 915.325 697.42 916.313 698.318C917.302 699.205 918.461 699.648 919.79 699.648ZM945.212 700.227L945.024 702.102C944.876 703.602 944.592 705.097 944.172 706.585C943.763 708.085 943.331 709.443 942.876 710.659C942.433 711.875 942.075 712.83 941.803 713.523H937.098C937.268 712.852 937.501 711.915 937.797 710.71C938.092 709.517 938.371 708.176 938.632 706.688C938.893 705.199 939.058 703.682 939.126 702.136L939.212 700.227H945.212ZM963.759 705.477C961.35 705.477 959.202 705.034 957.316 704.148C955.441 703.261 953.952 702.04 952.85 700.483C951.748 698.926 951.174 697.142 951.129 695.131H958.288C958.367 696.483 958.935 697.58 959.992 698.42C961.049 699.261 962.305 699.682 963.759 699.682C964.918 699.682 965.941 699.426 966.827 698.915C967.725 698.392 968.424 697.67 968.924 696.75C969.435 695.818 969.691 694.75 969.691 693.545C969.691 692.318 969.43 691.239 968.907 690.307C968.396 689.375 967.685 688.648 966.776 688.125C965.867 687.602 964.827 687.335 963.657 687.324C962.634 687.324 961.64 687.534 960.674 687.955C959.719 688.375 958.975 688.949 958.441 689.676L951.879 688.5L953.532 670.091H974.873V676.125H959.617L958.714 684.869H958.918C959.532 684.006 960.458 683.29 961.697 682.722C962.935 682.153 964.322 681.869 965.856 681.869C967.958 681.869 969.833 682.364 971.481 683.352C973.129 684.341 974.43 685.699 975.384 687.426C976.339 689.142 976.81 691.119 976.799 693.358C976.81 695.71 976.265 697.801 975.163 699.631C974.072 701.449 972.543 702.881 970.577 703.926C968.623 704.96 966.35 705.477 963.759 705.477ZM1000.56 698.455V696.614C1000.56 695.216 1000.86 693.932 1001.45 692.761C1002.05 691.58 1002.92 690.636 1004.06 689.932C1005.2 689.216 1006.6 688.858 1008.25 688.858C1009.92 688.858 1011.32 689.21 1012.46 689.915C1013.61 690.619 1014.47 691.562 1015.05 692.744C1015.64 693.915 1015.94 695.205 1015.94 696.614V698.455C1015.94 699.852 1015.64 701.142 1015.05 702.324C1014.46 703.494 1013.59 704.432 1012.44 705.136C1011.3 705.852 1009.9 706.21 1008.25 706.21C1006.58 706.21 1005.18 705.852 1004.04 705.136C1002.9 704.432 1002.04 703.494 1001.45 702.324C1000.86 701.142 1000.56 699.852 1000.56 698.455ZM1005.52 696.614V698.455C1005.52 699.261 1005.72 700.023 1006.1 700.739C1006.5 701.455 1007.22 701.812 1008.25 701.812C1009.28 701.812 1009.99 701.46 1010.36 700.756C1010.75 700.051 1010.94 699.284 1010.94 698.455V696.614C1010.94 695.784 1010.76 695.011 1010.4 694.295C1010.03 693.58 1009.32 693.222 1008.25 693.222C1007.23 693.222 1006.52 693.58 1006.12 694.295C1005.72 695.011 1005.52 695.784 1005.52 696.614ZM982.648 678.477V676.636C982.648 675.227 982.949 673.937 983.551 672.767C984.153 671.585 985.023 670.642 986.159 669.938C987.307 669.233 988.693 668.881 990.318 668.881C992 668.881 993.409 669.233 994.545 669.938C995.682 670.642 996.545 671.585 997.136 672.767C997.727 673.937 998.023 675.227 998.023 676.636V678.477C998.023 679.886 997.722 681.176 997.119 682.347C996.528 683.517 995.659 684.455 994.511 685.159C993.375 685.852 991.977 686.199 990.318 686.199C988.659 686.199 987.256 685.847 986.108 685.142C984.972 684.426 984.108 683.489 983.517 682.33C982.938 681.159 982.648 679.875 982.648 678.477ZM987.642 676.636V678.477C987.642 679.307 987.835 680.074 988.222 680.778C988.619 681.483 989.318 681.835 990.318 681.835C991.364 681.835 992.074 681.483 992.449 680.778C992.835 680.074 993.028 679.307 993.028 678.477V676.636C993.028 675.807 992.847 675.034 992.483 674.318C992.119 673.602 991.398 673.244 990.318 673.244C989.307 673.244 988.608 673.608 988.222 674.335C987.835 675.062 987.642 675.83 987.642 676.636ZM984.898 705L1008.9 670.091H1013.36L989.364 705H984.898Z" fill="black"/>
<path d="M61.8203 542.219C60.8411 542.219 59.9609 542.031 59.1797 541.656C58.4036 541.276 57.7839 540.755 57.3203 540.094C56.8568 539.432 56.6094 538.677 56.5781 537.828H58.9219C58.9792 538.516 59.2839 539.081 59.8359 539.523C60.388 539.966 61.0495 540.187 61.8203 540.187C62.4349 540.187 62.9792 540.047 63.4531 539.766C63.9323 539.479 64.3073 539.086 64.5781 538.586C64.8542 538.086 64.9922 537.516 64.9922 536.875C64.9922 536.224 64.8516 535.643 64.5703 535.133C64.2891 534.622 63.901 534.221 63.4063 533.93C62.9167 533.638 62.3542 533.49 61.7188 533.484C61.2344 533.484 60.7474 533.568 60.2578 533.734C59.7682 533.901 59.3724 534.12 59.0703 534.391L56.8594 534.062L57.7578 526H66.5547V528.07H59.7656L59.2578 532.547H59.3516C59.6641 532.245 60.0781 531.992 60.5938 531.789C61.1146 531.586 61.6719 531.484 62.2656 531.484C63.2396 531.484 64.1068 531.716 64.8672 532.18C65.6328 532.643 66.2344 533.276 66.6719 534.078C67.1146 534.875 67.3333 535.792 67.3281 536.828C67.3333 537.865 67.099 538.789 66.625 539.602C66.1563 540.414 65.5052 541.055 64.6719 541.523C63.8438 541.987 62.8932 542.219 61.8203 542.219ZM70.4981 542L77.4825 528.187V528.07H69.4044V526H79.9825V528.141L73.0216 542H70.4981ZM82.7971 539.812L82.6799 540.664C82.6018 541.289 82.469 541.94 82.2815 542.617C82.0992 543.299 81.9091 543.932 81.7111 544.516C81.5184 545.099 81.3596 545.563 81.2346 545.906H79.5783C79.646 545.583 79.7398 545.146 79.8596 544.594C79.9794 544.047 80.0966 543.435 80.2111 542.758C80.3257 542.081 80.4117 541.391 80.469 540.687L80.5471 539.812H82.7971ZM90.8655 542.219C89.8864 542.219 89.0062 542.031 88.2249 541.656C87.4489 541.276 86.8291 540.755 86.3655 540.094C85.902 539.432 85.6546 538.677 85.6234 537.828H87.9671C88.0244 538.516 88.3291 539.081 88.8812 539.523C89.4332 539.966 90.0947 540.187 90.8655 540.187C91.4801 540.187 92.0244 540.047 92.4984 539.766C92.9775 539.479 93.3525 539.086 93.6234 538.586C93.8994 538.086 94.0374 537.516 94.0374 536.875C94.0374 536.224 93.8968 535.643 93.6155 535.133C93.3343 534.622 92.9463 534.221 92.4515 533.93C91.9619 533.638 91.3994 533.49 90.764 533.484C90.2796 533.484 89.7926 533.568 89.303 533.734C88.8135 533.901 88.4176 534.12 88.1155 534.391L85.9046 534.062L86.803 526H95.5999V528.07H88.8109L88.303 532.547H88.3968C88.7093 532.245 89.1234 531.992 89.639 531.789C90.1598 531.586 90.7171 531.484 91.3109 531.484C92.2848 531.484 93.152 531.716 93.9124 532.18C94.678 532.643 95.2796 533.276 95.7171 534.078C96.1598 534.875 96.3786 535.792 96.3734 536.828C96.3786 537.865 96.1442 538.789 95.6702 539.602C95.2015 540.414 94.5504 541.055 93.7171 541.523C92.889 541.987 91.9385 542.219 90.8655 542.219Z" fill="#CFCFCF"/>
<path d="M1001.66 596.219C1000.68 596.219 999.801 596.031 999.019 595.656C998.243 595.276 997.624 594.755 997.16 594.094C996.697 593.432 996.449 592.677 996.418 591.828H998.762C998.819 592.516 999.124 593.081 999.676 593.523C1000.23 593.966 1000.89 594.187 1001.66 594.187C1002.27 594.187 1002.82 594.047 1003.29 593.766C1003.77 593.479 1004.15 593.086 1004.42 592.586C1004.69 592.086 1004.83 591.516 1004.83 590.875C1004.83 590.224 1004.69 589.643 1004.41 589.133C1004.13 588.622 1003.74 588.221 1003.25 587.93C1002.76 587.638 1002.19 587.49 1001.56 587.484C1001.07 587.484 1000.59 587.568 1000.1 587.734C999.608 587.901 999.212 588.12 998.91 588.391L996.699 588.062L997.598 580H1006.39V582.07H999.605L999.098 586.547H999.191C999.504 586.245 999.918 585.992 1000.43 585.789C1000.95 585.586 1001.51 585.484 1002.11 585.484C1003.08 585.484 1003.95 585.716 1004.71 586.18C1005.47 586.643 1006.07 587.276 1006.51 588.078C1006.95 588.875 1007.17 589.792 1007.17 590.828C1007.17 591.865 1006.94 592.789 1006.46 593.602C1006 594.414 1005.34 595.055 1004.51 595.523C1003.68 595.987 1002.73 596.219 1001.66 596.219ZM1010.34 596L1017.32 582.187V582.07H1009.24V580H1019.82V582.141L1012.86 596H1010.34Z" fill="#CFCFCF"/>
<rect x="549" y="124" width="491" height="295" rx="20" fill="#F7F7F7"/>
<path opacity="0.6" d="M576.496 150.326H574.106C574.038 149.934 573.912 149.587 573.729 149.284C573.545 148.977 573.317 148.717 573.045 148.504C572.772 148.291 572.461 148.131 572.112 148.025C571.766 147.914 571.393 147.859 570.993 147.859C570.281 147.859 569.651 148.038 569.101 148.396C568.551 148.749 568.121 149.269 567.81 149.955C567.499 150.637 567.343 151.47 567.343 152.455C567.343 153.456 567.499 154.3 567.81 154.986C568.125 155.668 568.555 156.183 569.101 156.533C569.651 156.878 570.279 157.05 570.987 157.05C571.379 157.05 571.745 156.999 572.086 156.897C572.431 156.79 572.74 156.635 573.013 156.43C573.29 156.226 573.522 155.974 573.71 155.676C573.901 155.378 574.033 155.037 574.106 154.653L576.496 154.666C576.407 155.288 576.213 155.872 575.915 156.418C575.621 156.963 575.235 157.445 574.758 157.862C574.281 158.276 573.722 158.599 573.083 158.834C572.444 159.064 571.734 159.179 570.955 159.179C569.804 159.179 568.777 158.913 567.874 158.38C566.97 157.847 566.259 157.078 565.739 156.072C565.219 155.067 564.959 153.861 564.959 152.455C564.959 151.044 565.221 149.838 565.745 148.837C566.269 147.831 566.983 147.062 567.886 146.529C568.79 145.996 569.813 145.73 570.955 145.73C571.683 145.73 572.361 145.832 572.987 146.037C573.614 146.241 574.172 146.542 574.662 146.938C575.152 147.33 575.555 147.812 575.87 148.383C576.19 148.95 576.398 149.597 576.496 150.326ZM581.991 159H579.46L584.068 145.909H586.996L591.611 159H589.08L585.583 148.594H585.481L581.991 159ZM582.074 153.867H588.978V155.772H582.074V153.867ZM595.135 159V145.909H597.507V151.451H603.573V145.909H605.951V159H603.573V153.439H597.507V159H595.135ZM618.173 159L613.865 153.279H612.701V159H610.33V145.909H612.701V151.291H613.296L617.949 145.909H620.87L615.699 151.879L621.094 159H618.173ZM623.93 147.897V145.909H634.374V147.897H630.328V159H627.976V147.897H623.93ZM643.228 151.502V153.407H637.334V151.502H643.228ZM658.245 145.909V159H655.893V147.878H650.165V159H647.813V145.909H658.245ZM662.881 159V145.909H671.396V147.897H665.253V151.451H670.955V153.439H665.253V157.012H671.447V159H662.881ZM675.04 147.897V145.909H685.484V147.897H681.438V159H679.086V147.897H675.04ZM689.298 159V145.909H697.812V147.897H691.669V151.451H697.371V153.439H691.669V157.012H697.863V159H689.298ZM702.031 159V145.909H706.941C707.946 145.909 708.79 146.097 709.472 146.472C710.158 146.847 710.676 147.362 711.025 148.018C711.379 148.67 711.556 149.412 711.556 150.243C711.556 151.082 711.379 151.828 711.025 152.48C710.671 153.132 710.149 153.646 709.459 154.021C708.769 154.391 707.919 154.577 706.909 154.577H703.655V152.627H706.589C707.177 152.627 707.659 152.525 708.034 152.32C708.409 152.116 708.686 151.835 708.865 151.477C709.048 151.119 709.139 150.707 709.139 150.243C709.139 149.778 709.048 149.369 708.865 149.016C708.686 148.662 708.406 148.387 708.027 148.191C707.652 147.991 707.169 147.891 706.576 147.891H704.403V159H702.031ZM715.415 159V145.909H723.834V147.897H717.787V150.965H720.312C721.313 150.965 722.172 151.129 722.888 151.457C723.608 151.781 724.16 152.239 724.543 152.832C724.927 153.424 725.119 154.121 725.119 154.922C725.119 155.727 724.927 156.437 724.543 157.05C724.16 157.66 723.608 158.137 722.888 158.482C722.172 158.827 721.313 159 720.312 159H715.415ZM717.787 157.057H720.312C720.84 157.057 721.288 156.957 721.654 156.756C722.021 156.556 722.298 156.292 722.485 155.964C722.677 155.636 722.773 155.28 722.773 154.896C722.773 154.342 722.56 153.871 722.133 153.484C721.712 153.092 721.104 152.896 720.312 152.896H717.787V157.057ZM730.163 159.179V157.185H730.91C731.247 157.185 731.524 157.136 731.741 157.038C731.959 156.94 732.133 156.799 732.265 156.616C732.402 156.433 732.515 156.219 732.604 155.977L732.777 155.536L728.098 145.909H730.578L733.838 152.915L736.657 145.909H739.099L734.586 156.584C734.377 157.044 734.136 157.472 733.864 157.869C733.591 158.261 733.235 158.578 732.796 158.821C732.361 159.06 731.795 159.179 731.096 159.179H730.163ZM742.588 159V145.909H747.497C748.502 145.909 749.346 146.097 750.028 146.472C750.714 146.847 751.232 147.362 751.581 148.018C751.935 148.67 752.112 149.412 752.112 150.243C752.112 151.082 751.935 151.828 751.581 152.48C751.228 153.132 750.706 153.646 750.015 154.021C749.325 154.391 748.475 154.577 747.465 154.577H744.211V152.627H747.145C747.733 152.627 748.215 152.525 748.59 152.32C748.965 152.116 749.242 151.835 749.421 151.477C749.604 151.119 749.696 150.707 749.696 150.243C749.696 149.778 749.604 149.369 749.421 149.016C749.242 148.662 748.963 148.387 748.583 148.191C748.208 147.991 747.725 147.891 747.132 147.891H744.959V159H742.588ZM764.39 145.909V147.897H758.343V159H755.972V145.909H764.39Z" fill="black"/>
<path opacity="0.4" d="M1024.97 373H564V285.207H860.197C860.197 285.207 1022.3 225.005 1024.97 223.049V223C1025.01 223 1025.01 223.016 1024.97 223.049V373Z" fill="url(#paint1_linear_3239_3222)"/>
<rect x="1020" y="220" width="10.2717" height="10.2717" rx="5.13587" fill="#04B34A"/>
<path d="M1025 225L861.731 283.311C858.6 284.429 855.301 285 851.977 285H564" stroke="#04B34A" stroke-width="4"/>
<path d="M875.074 392.555V368.197L865.989 377.316L862 373.362L877.955 357.441L893.875 373.362L889.955 377.316L880.835 368.197V392.555H875.074Z" fill="#04B34A"/>
<path d="M919.415 392.767C916.484 392.756 913.961 392.034 911.847 390.602C909.745 389.17 908.126 387.097 906.989 384.381C905.864 381.665 905.308 378.398 905.319 374.58C905.319 370.773 905.881 367.528 907.006 364.847C908.143 362.165 909.762 360.125 911.864 358.727C913.978 357.318 916.495 356.614 919.415 356.614C922.336 356.614 924.847 357.318 926.95 358.727C929.063 360.136 930.688 362.182 931.825 364.864C932.961 367.534 933.523 370.773 933.512 374.58C933.512 378.409 932.944 381.682 931.808 384.398C930.683 387.114 929.069 389.187 926.967 390.619C924.864 392.051 922.347 392.767 919.415 392.767ZM919.415 386.648C921.415 386.648 923.012 385.642 924.205 383.631C925.398 381.619 925.989 378.602 925.978 374.58C925.978 371.932 925.705 369.727 925.16 367.966C924.626 366.205 923.864 364.881 922.876 363.994C921.898 363.108 920.745 362.665 919.415 362.665C917.427 362.665 915.836 363.659 914.643 365.648C913.45 367.636 912.847 370.614 912.836 374.58C912.836 377.261 913.103 379.5 913.637 381.295C914.183 383.08 914.95 384.42 915.938 385.318C916.927 386.205 918.086 386.648 919.415 386.648ZM944.837 387.227L944.649 389.102C944.501 390.602 944.217 392.097 943.797 393.585C943.388 395.085 942.956 396.443 942.501 397.659C942.058 398.875 941.7 399.83 941.428 400.523H936.723C936.893 399.852 937.126 398.915 937.422 397.71C937.717 396.517 937.996 395.176 938.257 393.688C938.518 392.199 938.683 390.682 938.751 389.136L938.837 387.227H944.837ZM962.89 356.614C964.685 356.614 966.413 356.915 968.072 357.517C969.742 358.119 971.231 359.08 972.538 360.398C973.856 361.716 974.896 363.466 975.657 365.648C976.43 367.818 976.822 370.483 976.833 373.642C976.833 376.608 976.498 379.256 975.827 381.585C975.168 383.903 974.219 385.875 972.981 387.5C971.742 389.125 970.248 390.364 968.498 391.216C966.748 392.057 964.793 392.477 962.634 392.477C960.305 392.477 958.248 392.028 956.464 391.131C954.68 390.222 953.242 388.989 952.151 387.432C951.072 385.864 950.418 384.102 950.191 382.148H957.469C957.754 383.42 958.35 384.409 959.259 385.114C960.168 385.807 961.293 386.153 962.634 386.153C964.907 386.153 966.634 385.165 967.816 383.188C968.998 381.199 969.594 378.477 969.606 375.023H969.367C968.844 376.045 968.14 376.926 967.254 377.665C966.367 378.392 965.35 378.955 964.202 379.352C963.066 379.75 961.856 379.949 960.572 379.949C958.515 379.949 956.68 379.466 955.066 378.5C953.452 377.534 952.18 376.205 951.248 374.511C950.316 372.818 949.85 370.886 949.85 368.716C949.839 366.375 950.379 364.29 951.469 362.46C952.56 360.631 954.083 359.199 956.038 358.165C958.004 357.119 960.288 356.602 962.89 356.614ZM962.941 362.409C961.793 362.409 960.771 362.682 959.873 363.227C958.987 363.773 958.282 364.506 957.759 365.426C957.248 366.347 956.998 367.375 957.009 368.511C957.009 369.659 957.259 370.693 957.759 371.614C958.271 372.523 958.964 373.25 959.839 373.795C960.725 374.33 961.737 374.597 962.873 374.597C963.725 374.597 964.515 374.437 965.242 374.119C965.969 373.801 966.6 373.364 967.134 372.807C967.68 372.239 968.106 371.585 968.413 370.847C968.719 370.108 968.873 369.324 968.873 368.494C968.862 367.392 968.6 366.381 968.089 365.46C967.577 364.54 966.873 363.801 965.975 363.244C965.077 362.687 964.066 362.409 962.941 362.409ZM1000.56 385.455V383.614C1000.56 382.216 1000.86 380.932 1001.45 379.761C1002.05 378.58 1002.92 377.636 1004.06 376.932C1005.2 376.216 1006.6 375.858 1008.25 375.858C1009.92 375.858 1011.32 376.21 1012.46 376.915C1013.61 377.619 1014.47 378.562 1015.05 379.744C1015.64 380.915 1015.94 382.205 1015.94 383.614V385.455C1015.94 386.852 1015.64 388.142 1015.05 389.324C1014.46 390.494 1013.59 391.432 1012.44 392.136C1011.3 392.852 1009.9 393.21 1008.25 393.21C1006.58 393.21 1005.18 392.852 1004.04 392.136C1002.9 391.432 1002.04 390.494 1001.45 389.324C1000.86 388.142 1000.56 386.852 1000.56 385.455ZM1005.52 383.614V385.455C1005.52 386.261 1005.72 387.023 1006.1 387.739C1006.5 388.455 1007.22 388.812 1008.25 388.812C1009.28 388.812 1009.99 388.46 1010.36 387.756C1010.75 387.051 1010.94 386.284 1010.94 385.455V383.614C1010.94 382.784 1010.76 382.011 1010.4 381.295C1010.03 380.58 1009.32 380.222 1008.25 380.222C1007.23 380.222 1006.52 380.58 1006.12 381.295C1005.72 382.011 1005.52 382.784 1005.52 383.614ZM982.648 365.477V363.636C982.648 362.227 982.949 360.937 983.551 359.767C984.153 358.585 985.023 357.642 986.159 356.938C987.307 356.233 988.693 355.881 990.318 355.881C992 355.881 993.409 356.233 994.545 356.938C995.682 357.642 996.545 358.585 997.136 359.767C997.727 360.937 998.023 362.227 998.023 363.636V365.477C998.023 366.886 997.722 368.176 997.119 369.347C996.528 370.517 995.659 371.455 994.511 372.159C993.375 372.852 991.977 373.199 990.318 373.199C988.659 373.199 987.256 372.847 986.108 372.142C984.972 371.426 984.108 370.489 983.517 369.33C982.938 368.159 982.648 366.875 982.648 365.477ZM987.642 363.636V365.477C987.642 366.307 987.835 367.074 988.222 367.778C988.619 368.483 989.318 368.835 990.318 368.835C991.364 368.835 992.074 368.483 992.449 367.778C992.835 367.074 993.028 366.307 993.028 365.477V363.636C993.028 362.807 992.847 362.034 992.483 361.318C992.119 360.602 991.398 360.244 990.318 360.244C989.307 360.244 988.608 360.608 988.222 361.335C987.835 362.062 987.642 362.83 987.642 363.636ZM984.898 392L1008.9 357.091H1013.36L989.364 392H984.898Z" fill="black"/>
<path d="M566.078 271L573.063 257.187V257.07H564.984V255H575.563V257.141L568.602 271H566.078ZM578.057 271V269.25L583.471 263.641C584.049 263.031 584.525 262.497 584.9 262.039C585.281 261.576 585.565 261.135 585.752 260.719C585.94 260.302 586.033 259.859 586.033 259.391C586.033 258.859 585.908 258.401 585.658 258.016C585.408 257.625 585.067 257.326 584.635 257.117C584.203 256.904 583.716 256.797 583.174 256.797C582.601 256.797 582.101 256.914 581.674 257.148C581.247 257.383 580.919 257.714 580.69 258.141C580.46 258.568 580.346 259.068 580.346 259.641H578.041C578.041 258.667 578.265 257.815 578.713 257.086C579.161 256.357 579.775 255.792 580.557 255.391C581.338 254.984 582.226 254.781 583.221 254.781C584.226 254.781 585.111 254.982 585.877 255.383C586.648 255.779 587.249 256.32 587.682 257.008C588.114 257.69 588.33 258.461 588.33 259.32C588.33 259.914 588.218 260.495 587.994 261.062C587.775 261.63 587.393 262.263 586.846 262.961C586.299 263.654 585.539 264.495 584.565 265.484L581.385 268.812V268.93H588.588V271H578.057ZM594.397 268.812L594.28 269.664C594.201 270.289 594.069 270.94 593.881 271.617C593.699 272.299 593.509 272.932 593.311 273.516C593.118 274.099 592.959 274.563 592.834 274.906H591.178C591.246 274.583 591.339 274.146 591.459 273.594C591.579 273.047 591.696 272.435 591.811 271.758C591.925 271.081 592.011 270.391 592.069 269.687L592.147 268.812H594.397ZM597.106 267.875V265.922L604.02 255H605.559V257.875H604.582L599.637 265.703V265.828H609.114V267.875H597.106ZM604.692 271V267.281L604.707 266.391V255H606.996V271H604.692Z" fill="#CFCFCF"/>
<path d="M981.726 208L988.711 194.187V194.07H980.633V192H991.211V194.141L984.25 208H981.726ZM998.91 208.219C997.837 208.219 996.879 208.034 996.035 207.664C995.196 207.294 994.532 206.781 994.043 206.125C993.558 205.464 993.298 204.698 993.262 203.828H995.715C995.746 204.302 995.905 204.714 996.191 205.062C996.483 205.406 996.863 205.672 997.332 205.859C997.801 206.047 998.321 206.141 998.894 206.141C999.525 206.141 1000.08 206.031 1000.57 205.812C1001.06 205.594 1001.44 205.289 1001.71 204.898C1001.99 204.503 1002.13 204.047 1002.13 203.531C1002.13 202.995 1001.99 202.523 1001.71 202.117C1001.44 201.706 1001.05 201.383 1000.52 201.148C999.998 200.914 999.368 200.797 998.629 200.797H997.277V198.828H998.629C999.222 198.828 999.743 198.721 1000.19 198.508C1000.64 198.294 1001 197.997 1001.25 197.617C1001.51 197.232 1001.64 196.781 1001.64 196.266C1001.64 195.771 1001.52 195.341 1001.3 194.977C1001.08 194.607 1000.77 194.318 1000.36 194.109C999.962 193.901 999.488 193.797 998.941 193.797C998.42 193.797 997.933 193.893 997.48 194.086C997.032 194.273 996.668 194.544 996.387 194.898C996.105 195.247 995.954 195.667 995.933 196.156H993.597C993.623 195.292 993.879 194.531 994.363 193.875C994.853 193.219 995.498 192.706 996.301 192.336C997.103 191.966 997.993 191.781 998.972 191.781C999.998 191.781 1000.88 191.982 1001.63 192.383C1002.38 192.779 1002.96 193.307 1003.36 193.969C1003.77 194.63 1003.98 195.354 1003.97 196.141C1003.98 197.036 1003.73 197.797 1003.22 198.422C1002.72 199.047 1002.06 199.466 1001.22 199.68V199.805C1002.28 199.966 1003.11 200.388 1003.69 201.07C1004.28 201.753 1004.57 202.599 1004.57 203.609C1004.57 204.49 1004.33 205.279 1003.83 205.977C1003.34 206.674 1002.67 207.224 1001.82 207.625C1000.98 208.021 1000 208.219 998.91 208.219ZM1009.89 205.812L1009.78 206.664C1009.7 207.289 1009.57 207.94 1009.38 208.617C1009.2 209.299 1009.01 209.932 1008.81 210.516C1008.62 211.099 1008.46 211.563 1008.33 211.906H1006.68C1006.74 211.583 1006.84 211.146 1006.96 210.594C1007.08 210.047 1007.19 209.435 1007.31 208.758C1007.42 208.081 1007.51 207.391 1007.57 206.687L1007.64 205.812H1009.89ZM1017.93 208.219C1016.86 208.219 1015.9 208.034 1015.05 207.664C1014.22 207.294 1013.55 206.781 1013.06 206.125C1012.58 205.464 1012.32 204.698 1012.28 203.828H1014.73C1014.77 204.302 1014.92 204.714 1015.21 205.062C1015.5 205.406 1015.88 205.672 1016.35 205.859C1016.82 206.047 1017.34 206.141 1017.91 206.141C1018.54 206.141 1019.1 206.031 1019.59 205.812C1020.08 205.594 1020.46 205.289 1020.73 204.898C1021.01 204.503 1021.15 204.047 1021.15 203.531C1021.15 202.995 1021.01 202.523 1020.73 202.117C1020.46 201.706 1020.07 201.383 1019.54 201.148C1019.02 200.914 1018.39 200.797 1017.65 200.797H1016.3V198.828H1017.65C1018.24 198.828 1018.76 198.721 1019.21 198.508C1019.66 198.294 1020.02 197.997 1020.27 197.617C1020.53 197.232 1020.66 196.781 1020.66 196.266C1020.66 195.771 1020.54 195.341 1020.32 194.977C1020.1 194.607 1019.79 194.318 1019.38 194.109C1018.98 193.901 1018.51 193.797 1017.96 193.797C1017.44 193.797 1016.95 193.893 1016.5 194.086C1016.05 194.273 1015.69 194.544 1015.41 194.898C1015.13 195.247 1014.97 195.667 1014.95 196.156H1012.62C1012.64 195.292 1012.9 194.531 1013.38 193.875C1013.87 193.219 1014.52 192.706 1015.32 192.336C1016.12 191.966 1017.01 191.781 1017.99 191.781C1019.02 191.781 1019.9 191.982 1020.65 192.383C1021.4 192.779 1021.98 193.307 1022.38 193.969C1022.79 194.63 1023 195.354 1022.99 196.141C1023 197.036 1022.75 197.797 1022.24 198.422C1021.74 199.047 1021.08 199.466 1020.24 199.68V199.805C1021.3 199.966 1022.13 200.388 1022.71 201.07C1023.3 201.753 1023.59 202.599 1023.59 203.609C1023.59 204.49 1023.35 205.279 1022.85 205.977C1022.36 206.674 1021.69 207.224 1020.84 207.625C1019.99 208.021 1019.02 208.219 1017.93 208.219Z" fill="#CFCFCF"/>
<rect x="40" y="124" width="491" height="295" rx="20" fill="#F7F7F7"/>
<path opacity="0.6" d="M56.2912 145.909H59.1932L63.0795 155.395H63.233L67.1193 145.909H70.0213V159H67.7457V150.006H67.6243L64.0064 158.962H62.3061L58.6882 149.987H58.5668V159H56.2912V145.909ZM86.1011 152.455C86.1011 153.865 85.8369 155.073 85.3085 156.079C84.7844 157.08 84.0685 157.847 83.1608 158.38C82.2574 158.913 81.2325 159.179 80.0862 159.179C78.9399 159.179 77.9129 158.913 77.0053 158.38C76.1018 157.843 75.3859 157.074 74.8575 156.072C74.3334 155.067 74.0713 153.861 74.0713 152.455C74.0713 151.044 74.3334 149.838 74.8575 148.837C75.3859 147.831 76.1018 147.062 77.0053 146.529C77.9129 145.996 78.9399 145.73 80.0862 145.73C81.2325 145.73 82.2574 145.996 83.1608 146.529C84.0685 147.062 84.7844 147.831 85.3085 148.837C85.8369 149.838 86.1011 151.044 86.1011 152.455ZM83.7169 152.455C83.7169 151.462 83.5614 150.624 83.2503 149.942C82.9435 149.256 82.5173 148.739 81.9719 148.389C81.4264 148.036 80.7979 147.859 80.0862 147.859C79.3746 147.859 78.746 148.036 78.2006 148.389C77.6551 148.739 77.2268 149.256 76.9158 149.942C76.6089 150.624 76.4555 151.462 76.4555 152.455C76.4555 153.447 76.6089 154.287 76.9158 154.973C77.2268 155.655 77.6551 156.173 78.2006 156.526C78.746 156.876 79.3746 157.05 80.0862 157.05C80.7979 157.05 81.4264 156.876 81.9719 156.526C82.5173 156.173 82.9435 155.655 83.2503 154.973C83.5614 154.287 83.7169 153.447 83.7169 152.455ZM101.348 150.326H98.9578C98.8896 149.934 98.7639 149.587 98.5806 149.284C98.3974 148.977 98.1694 148.717 97.8967 148.504C97.624 148.291 97.3129 148.131 96.9635 148.025C96.6183 147.914 96.2454 147.859 95.8448 147.859C95.1332 147.859 94.5025 148.038 93.9528 148.396C93.4031 148.749 92.9727 149.269 92.6616 149.955C92.3505 150.637 92.195 151.47 92.195 152.455C92.195 153.456 92.3505 154.3 92.6616 154.986C92.977 155.668 93.4073 156.183 93.9528 156.533C94.5025 156.878 95.1311 157.05 95.8385 157.05C96.2305 157.05 96.597 156.999 96.9379 156.897C97.2831 156.79 97.592 156.635 97.8647 156.43C98.1417 156.226 98.374 155.974 98.5615 155.676C98.7532 155.378 98.8853 155.037 98.9578 154.653L101.348 154.666C101.259 155.288 101.065 155.872 100.767 156.418C100.473 156.963 100.087 157.445 99.6098 157.862C99.1325 158.276 98.5743 158.599 97.935 158.834C97.2958 159.064 96.5863 159.179 95.8065 159.179C94.6559 159.179 93.6289 158.913 92.7255 158.38C91.8221 157.847 91.1105 157.078 90.5906 156.072C90.0707 155.067 89.8108 153.861 89.8108 152.455C89.8108 151.044 90.0728 149.838 90.597 148.837C91.1211 147.831 91.8349 147.062 92.7383 146.529C93.6417 145.996 94.6645 145.73 95.8065 145.73C96.5352 145.73 97.2127 145.832 97.8392 146.037C98.4656 146.241 99.0238 146.542 99.5139 146.938C100.004 147.33 100.407 147.812 100.722 148.383C101.042 148.95 101.25 149.597 101.348 150.326ZM113.163 159L108.855 153.279H107.692V159H105.32V145.909H107.692V151.291H108.286L112.939 145.909H115.861L110.689 151.879L116.084 159H113.163ZM119.495 159V145.909H124.506C125.452 145.909 126.239 146.058 126.865 146.357C127.496 146.651 127.967 147.053 128.278 147.565C128.593 148.076 128.751 148.656 128.751 149.303C128.751 149.836 128.649 150.292 128.444 150.671C128.239 151.046 127.965 151.351 127.619 151.585C127.274 151.82 126.889 151.988 126.462 152.09V152.218C126.927 152.244 127.372 152.386 127.798 152.646C128.229 152.902 128.58 153.264 128.853 153.733C129.126 154.202 129.262 154.768 129.262 155.433C129.262 156.111 129.098 156.72 128.77 157.261C128.442 157.798 127.948 158.222 127.287 158.533C126.626 158.844 125.796 159 124.794 159H119.495ZM121.867 157.018H124.417C125.278 157.018 125.898 156.854 126.277 156.526C126.661 156.194 126.852 155.768 126.852 155.248C126.852 154.86 126.756 154.511 126.565 154.2C126.373 153.884 126.1 153.637 125.747 153.458C125.393 153.275 124.971 153.183 124.481 153.183H121.867V157.018ZM121.867 151.477H124.212C124.622 151.477 124.99 151.402 125.318 151.253C125.646 151.099 125.904 150.884 126.092 150.607C126.283 150.326 126.379 149.994 126.379 149.61C126.379 149.103 126.2 148.685 125.842 148.357C125.489 148.029 124.962 147.865 124.264 147.865H121.867V151.477ZM134.806 159H132.275L136.884 145.909H139.811L144.426 159H141.895L138.399 148.594H138.296L134.806 159ZM134.889 153.867H141.793V155.772H134.889V153.867Z" fill="black"/>
<path opacity="0.4" d="M55.0244 373H516V243L280.959 286.668C280.959 286.668 57.7061 272.947 55.0244 272.62V272.614C54.9918 272.614 54.9921 272.616 55.0244 272.62V373Z" fill="url(#paint2_linear_3239_3222)"/>
<rect width="10.2717" height="10.2717" rx="5.13587" transform="matrix(-1 0 0 1 521.271 238)" fill="#04B34A"/>
<path d="M55 272.5L281.28 286.768C283.723 286.922 286.175 286.766 288.579 286.304L516.459 242.5" stroke="#04B34A" stroke-width="4"/>
<path d="M371.801 392.555V368.197L380.886 377.316L384.875 373.362L368.92 357.441L353 373.362L356.92 377.316L366.04 368.197V392.555H371.801Z" fill="#04B34A"/>
<path d="M410.79 392.767C407.859 392.756 405.336 392.034 403.222 390.602C401.12 389.17 399.501 387.097 398.364 384.381C397.239 381.665 396.683 378.398 396.694 374.58C396.694 370.773 397.256 367.528 398.381 364.847C399.518 362.165 401.137 360.125 403.239 358.727C405.353 357.318 407.87 356.614 410.79 356.614C413.711 356.614 416.222 357.318 418.325 358.727C420.438 360.136 422.063 362.182 423.2 364.864C424.336 367.534 424.898 370.773 424.887 374.58C424.887 378.409 424.319 381.682 423.183 384.398C422.058 387.114 420.444 389.187 418.342 390.619C416.239 392.051 413.722 392.767 410.79 392.767ZM410.79 386.648C412.79 386.648 414.387 385.642 415.58 383.631C416.773 381.619 417.364 378.602 417.353 374.58C417.353 371.932 417.08 369.727 416.535 367.966C416.001 366.205 415.239 364.881 414.251 363.994C413.273 363.108 412.12 362.665 410.79 362.665C408.802 362.665 407.211 363.659 406.018 365.648C404.825 367.636 404.222 370.614 404.211 374.58C404.211 377.261 404.478 379.5 405.012 381.295C405.558 383.08 406.325 384.42 407.313 385.318C408.302 386.205 409.461 386.648 410.79 386.648ZM436.212 387.227L436.024 389.102C435.876 390.602 435.592 392.097 435.172 393.585C434.763 395.085 434.331 396.443 433.876 397.659C433.433 398.875 433.075 399.83 432.803 400.523H428.098C428.268 399.852 428.501 398.915 428.797 397.71C429.092 396.517 429.371 395.176 429.632 393.688C429.893 392.199 430.058 390.682 430.126 389.136L430.212 387.227H436.212ZM454.759 392.477C452.35 392.477 450.202 392.034 448.316 391.148C446.441 390.261 444.952 389.04 443.85 387.483C442.748 385.926 442.174 384.142 442.129 382.131H449.288C449.367 383.483 449.935 384.58 450.992 385.42C452.049 386.261 453.305 386.682 454.759 386.682C455.918 386.682 456.941 386.426 457.827 385.915C458.725 385.392 459.424 384.67 459.924 383.75C460.435 382.818 460.691 381.75 460.691 380.545C460.691 379.318 460.43 378.239 459.907 377.307C459.396 376.375 458.685 375.648 457.776 375.125C456.867 374.602 455.827 374.335 454.657 374.324C453.634 374.324 452.64 374.534 451.674 374.955C450.719 375.375 449.975 375.949 449.441 376.676L442.879 375.5L444.532 357.091H465.873V363.125H450.617L449.714 371.869H449.918C450.532 371.006 451.458 370.29 452.697 369.722C453.935 369.153 455.322 368.869 456.856 368.869C458.958 368.869 460.833 369.364 462.481 370.352C464.129 371.341 465.43 372.699 466.384 374.426C467.339 376.142 467.81 378.119 467.799 380.358C467.81 382.71 467.265 384.801 466.163 386.631C465.072 388.449 463.543 389.881 461.577 390.926C459.623 391.96 457.35 392.477 454.759 392.477ZM491.562 385.455V383.614C491.562 382.216 491.858 380.932 492.449 379.761C493.051 378.58 493.92 377.636 495.057 376.932C496.205 376.216 497.602 375.858 499.25 375.858C500.92 375.858 502.324 376.21 503.46 376.915C504.608 377.619 505.472 378.562 506.051 379.744C506.642 380.915 506.938 382.205 506.938 383.614V385.455C506.938 386.852 506.642 388.142 506.051 389.324C505.46 390.494 504.591 391.432 503.443 392.136C502.295 392.852 500.898 393.21 499.25 393.21C497.58 393.21 496.176 392.852 495.04 392.136C493.903 391.432 493.04 390.494 492.449 389.324C491.858 388.142 491.562 386.852 491.562 385.455ZM496.523 383.614V385.455C496.523 386.261 496.716 387.023 497.102 387.739C497.5 388.455 498.216 388.812 499.25 388.812C500.284 388.812 500.989 388.46 501.364 387.756C501.75 387.051 501.943 386.284 501.943 385.455V383.614C501.943 382.784 501.761 382.011 501.398 381.295C501.034 380.58 500.318 380.222 499.25 380.222C498.227 380.222 497.517 380.58 497.119 381.295C496.722 382.011 496.523 382.784 496.523 383.614ZM473.648 365.477V363.636C473.648 362.227 473.949 360.937 474.551 359.767C475.153 358.585 476.023 357.642 477.159 356.938C478.307 356.233 479.693 355.881 481.318 355.881C483 355.881 484.409 356.233 485.545 356.938C486.682 357.642 487.545 358.585 488.136 359.767C488.727 360.937 489.023 362.227 489.023 363.636V365.477C489.023 366.886 488.722 368.176 488.119 369.347C487.528 370.517 486.659 371.455 485.511 372.159C484.375 372.852 482.977 373.199 481.318 373.199C479.659 373.199 478.256 372.847 477.108 372.142C475.972 371.426 475.108 370.489 474.517 369.33C473.938 368.159 473.648 366.875 473.648 365.477ZM478.642 363.636V365.477C478.642 366.307 478.835 367.074 479.222 367.778C479.619 368.483 480.318 368.835 481.318 368.835C482.364 368.835 483.074 368.483 483.449 367.778C483.835 367.074 484.028 366.307 484.028 365.477V363.636C484.028 362.807 483.847 362.034 483.483 361.318C483.119 360.602 482.398 360.244 481.318 360.244C480.307 360.244 479.608 360.608 479.222 361.335C478.835 362.062 478.642 362.83 478.642 363.636ZM475.898 392L499.898 357.091H504.364L480.364 392H475.898Z" fill="black"/>
<path d="M62.125 258.219C61.4115 258.208 60.7083 258.078 60.0156 257.828C59.3281 257.578 58.7031 257.161 58.1406 256.578C57.5781 255.995 57.1276 255.211 56.7891 254.227C56.4557 253.242 56.2891 252.013 56.2891 250.539C56.2891 249.143 56.4271 247.904 56.7031 246.82C56.9844 245.737 57.388 244.823 57.9141 244.078C58.4401 243.328 59.0755 242.758 59.8203 242.367C60.5651 241.977 61.401 241.781 62.3281 241.781C63.2813 241.781 64.1276 241.969 64.8672 242.344C65.6068 242.719 66.2057 243.237 66.6641 243.898C67.1276 244.56 67.4219 245.312 67.5469 246.156H65.1641C65.0026 245.49 64.6823 244.945 64.2031 244.523C63.724 244.102 63.099 243.891 62.3281 243.891C61.1563 243.891 60.2422 244.401 59.5859 245.422C58.9349 246.443 58.6068 247.862 58.6016 249.68H58.7188C58.9948 249.227 59.3333 248.841 59.7344 248.523C60.1406 248.201 60.5938 247.953 61.0938 247.781C61.599 247.604 62.1302 247.516 62.6875 247.516C63.6146 247.516 64.4531 247.742 65.2031 248.195C65.9583 248.643 66.5599 249.263 67.0078 250.055C67.4557 250.846 67.6797 251.753 67.6797 252.773C67.6797 253.794 67.4479 254.719 66.9844 255.547C66.526 256.375 65.8802 257.031 65.0469 257.516C64.2135 257.995 63.2396 258.229 62.125 258.219ZM62.1172 256.187C62.7318 256.187 63.2813 256.036 63.7656 255.734C64.25 255.432 64.6328 255.026 64.9141 254.516C65.1953 254.005 65.3359 253.435 65.3359 252.805C65.3359 252.19 65.1979 251.63 64.9219 251.125C64.651 250.62 64.276 250.219 63.7969 249.922C63.3229 249.625 62.7813 249.477 62.1719 249.477C61.7083 249.477 61.2786 249.565 60.8828 249.742C60.4922 249.919 60.1484 250.164 59.8516 250.477C59.5547 250.789 59.3203 251.148 59.1484 251.555C58.9818 251.956 58.8984 252.38 58.8984 252.828C58.8984 253.427 59.0365 253.982 59.3125 254.492C59.5938 255.003 59.9766 255.414 60.4609 255.727C60.9505 256.034 61.5026 256.187 62.1172 256.187ZM70.8419 258L77.8263 244.187V244.07H69.7481V242H80.3263V244.141L73.3653 258H70.8419ZM83.1408 255.812L83.0236 256.664C82.9455 257.289 82.8127 257.94 82.6252 258.617C82.4429 259.299 82.2528 259.932 82.0549 260.516C81.8622 261.099 81.7033 261.563 81.5783 261.906H79.9221C79.9898 261.583 80.0835 261.146 80.2033 260.594C80.3231 260.047 80.4403 259.435 80.5549 258.758C80.6695 258.081 80.7554 257.391 80.8127 256.687L80.8908 255.812H83.1408ZM91.1761 258.219C90.1032 258.219 89.1448 258.034 88.3011 257.664C87.4625 257.294 86.7985 256.781 86.3089 256.125C85.8245 255.464 85.5641 254.698 85.5276 253.828H87.9808C88.012 254.302 88.1709 254.714 88.4573 255.062C88.749 255.406 89.1292 255.672 89.598 255.859C90.0667 256.047 90.5875 256.141 91.1605 256.141C91.7907 256.141 92.348 256.031 92.8323 255.812C93.3219 255.594 93.7047 255.289 93.9808 254.898C94.2568 254.503 94.3948 254.047 94.3948 253.531C94.3948 252.995 94.2568 252.523 93.9808 252.117C93.7099 251.706 93.3115 251.383 92.7855 251.148C92.2646 250.914 91.6344 250.797 90.8948 250.797H89.5433V248.828H90.8948C91.4886 248.828 92.0094 248.721 92.4573 248.508C92.9105 248.294 93.2646 247.997 93.5198 247.617C93.775 247.232 93.9026 246.781 93.9026 246.266C93.9026 245.771 93.7907 245.341 93.5667 244.977C93.348 244.607 93.0355 244.318 92.6292 244.109C92.2282 243.901 91.7542 243.797 91.2073 243.797C90.6865 243.797 90.1995 243.893 89.7464 244.086C89.2985 244.273 88.9339 244.544 88.6526 244.898C88.3714 245.247 88.2204 245.667 88.1995 246.156H85.8636C85.8896 245.292 86.1448 244.531 86.6292 243.875C87.1188 243.219 87.7646 242.706 88.5667 242.336C89.3688 241.966 90.2594 241.781 91.2386 241.781C92.2646 241.781 93.15 241.982 93.8948 242.383C94.6448 242.779 95.223 243.307 95.6292 243.969C96.0407 244.63 96.2438 245.354 96.2386 246.141C96.2438 247.036 95.9938 247.797 95.4886 248.422C94.9886 249.047 94.3219 249.466 93.4886 249.68V249.805C94.5511 249.966 95.374 250.388 95.9573 251.07C96.5459 251.753 96.8375 252.599 96.8323 253.609C96.8375 254.49 96.5928 255.279 96.098 255.977C95.6084 256.674 94.9391 257.224 94.0901 257.625C93.2412 258.021 92.2698 258.219 91.1761 258.219Z" fill="#CFCFCF"/>
<path d="M480.115 226.219C479.401 226.208 478.698 226.078 478.006 225.828C477.318 225.578 476.693 225.161 476.131 224.578C475.568 223.995 475.118 223.211 474.779 222.227C474.446 221.242 474.279 220.013 474.279 218.539C474.279 217.143 474.417 215.904 474.693 214.82C474.974 213.737 475.378 212.823 475.904 212.078C476.43 211.328 477.065 210.758 477.81 210.367C478.555 209.977 479.391 209.781 480.318 209.781C481.271 209.781 482.118 209.969 482.857 210.344C483.597 210.719 484.196 211.237 484.654 211.898C485.118 212.56 485.412 213.312 485.537 214.156H483.154C482.993 213.49 482.672 212.945 482.193 212.523C481.714 212.102 481.089 211.891 480.318 211.891C479.146 211.891 478.232 212.401 477.576 213.422C476.925 214.443 476.597 215.862 476.591 217.68H476.709C476.985 217.227 477.323 216.841 477.724 216.523C478.131 216.201 478.584 215.953 479.084 215.781C479.589 215.604 480.12 215.516 480.677 215.516C481.605 215.516 482.443 215.742 483.193 216.195C483.948 216.643 484.55 217.263 484.998 218.055C485.446 218.846 485.67 219.753 485.67 220.773C485.67 221.794 485.438 222.719 484.974 223.547C484.516 224.375 483.87 225.031 483.037 225.516C482.203 225.995 481.23 226.229 480.115 226.219ZM480.107 224.187C480.722 224.187 481.271 224.036 481.756 223.734C482.24 223.432 482.623 223.026 482.904 222.516C483.185 222.005 483.326 221.435 483.326 220.805C483.326 220.19 483.188 219.63 482.912 219.125C482.641 218.62 482.266 218.219 481.787 217.922C481.313 217.625 480.771 217.477 480.162 217.477C479.698 217.477 479.269 217.565 478.873 217.742C478.482 217.919 478.138 218.164 477.841 218.477C477.545 218.789 477.31 219.148 477.138 219.555C476.972 219.956 476.888 220.38 476.888 220.828C476.888 221.427 477.026 221.982 477.302 222.492C477.584 223.003 477.966 223.414 478.451 223.727C478.94 224.034 479.493 224.187 480.107 224.187ZM488.832 226L495.816 212.187V212.07H487.738V210H498.316V212.141L491.355 226H488.832ZM501.131 223.812L501.014 224.664C500.935 225.289 500.803 225.94 500.615 226.617C500.433 227.299 500.243 227.932 500.045 228.516C499.852 229.099 499.693 229.563 499.568 229.906H497.912C497.98 229.583 498.073 229.146 498.193 228.594C498.313 228.047 498.43 227.435 498.545 226.758C498.659 226.081 498.745 225.391 498.803 224.687L498.881 223.812H501.131ZM509.045 226.219C507.925 226.219 506.936 226.026 506.076 225.641C505.222 225.255 504.553 224.724 504.068 224.047C503.584 223.37 503.344 222.599 503.35 221.734C503.344 221.057 503.482 220.435 503.764 219.867C504.05 219.294 504.438 218.818 504.928 218.438C505.417 218.052 505.964 217.807 506.568 217.703V217.609C505.771 217.417 505.133 216.99 504.654 216.328C504.175 215.667 503.938 214.906 503.943 214.047C503.938 213.229 504.154 212.5 504.592 211.859C505.035 211.214 505.641 210.706 506.412 210.336C507.183 209.966 508.061 209.781 509.045 209.781C510.019 209.781 510.889 209.969 511.654 210.344C512.425 210.714 513.032 211.221 513.475 211.867C513.917 212.508 514.141 213.234 514.146 214.047C514.141 214.906 513.896 215.667 513.412 216.328C512.928 216.99 512.298 217.417 511.521 217.609V217.703C512.12 217.807 512.66 218.052 513.139 218.438C513.623 218.818 514.008 219.294 514.295 219.867C514.587 220.435 514.735 221.057 514.74 221.734C514.735 222.599 514.49 223.37 514.006 224.047C513.521 224.724 512.85 225.255 511.99 225.641C511.136 226.026 510.154 226.219 509.045 226.219ZM509.045 224.242C509.706 224.242 510.279 224.133 510.764 223.914C511.248 223.69 511.623 223.38 511.889 222.984C512.154 222.583 512.29 222.115 512.295 221.578C512.29 221.021 512.144 220.529 511.857 220.102C511.576 219.674 511.193 219.339 510.709 219.094C510.225 218.849 509.67 218.727 509.045 218.727C508.415 218.727 507.855 218.849 507.365 219.094C506.876 219.339 506.49 219.674 506.209 220.102C505.928 220.529 505.79 221.021 505.795 221.578C505.79 222.115 505.917 222.583 506.178 222.984C506.443 223.38 506.821 223.69 507.311 223.914C507.8 224.133 508.378 224.242 509.045 224.242ZM509.045 216.797C509.576 216.797 510.048 216.69 510.459 216.477C510.87 216.263 511.193 215.966 511.428 215.586C511.667 215.206 511.79 214.76 511.795 214.25C511.79 213.75 511.67 213.313 511.436 212.938C511.206 212.562 510.886 212.273 510.475 212.07C510.063 211.862 509.587 211.758 509.045 211.758C508.493 211.758 508.008 211.862 507.592 212.07C507.18 212.273 506.86 212.562 506.631 212.938C506.402 213.313 506.29 213.75 506.295 214.25C506.29 214.76 506.404 215.206 506.639 215.586C506.873 215.966 507.196 216.263 507.607 216.477C508.024 216.69 508.503 216.797 509.045 216.797Z" fill="#CFCFCF"/>
<defs>
<linearGradient id="paint0_linear_3239_3222" x1="537.482" y1="593.5" x2="537.482" y2="685.5" gradientUnits="userSpaceOnUse">
<stop stop-color="#D9D9D9"/>
<stop offset="1" stop-color="#D9D9D9" stop-opacity="0"/>
</linearGradient>
<linearGradient id="paint1_linear_3239_3222" x1="794.483" y1="223" x2="794.483" y2="373" gradientUnits="userSpaceOnUse">
<stop stop-color="#04B34A"/>
<stop offset="0.0666667" stop-color="#04B34A" stop-opacity="0.991353"/>
<stop offset="0.133333" stop-color="#04B34A" stop-opacity="0.96449"/>
<stop offset="0.2" stop-color="#04B34A" stop-opacity="0.91834"/>
<stop offset="0.266667" stop-color="#04B34A" stop-opacity="0.852589"/>
<stop offset="0.333333" stop-color="#04B34A" stop-opacity="0.768225"/>
<stop offset="0.4" stop-color="#04B34A" stop-opacity="0.668116"/>
<stop offset="0.466667" stop-color="#04B34A" stop-opacity="0.557309"/>
<stop offset="0.533333" stop-color="#04B34A" stop-opacity="0.442691"/>
<stop offset="0.6" stop-color="#04B34A" stop-opacity="0.331884"/>
<stop offset="0.666667" stop-color="#04B34A" stop-opacity="0.231775"/>
<stop offset="0.733333" stop-color="#04B34A" stop-opacity="0.147411"/>
<stop offset="0.8" stop-color="#04B34A" stop-opacity="0.0816599"/>
<stop offset="0.866667" stop-color="#04B34A" stop-opacity="0.03551"/>
<stop offset="0.933333" stop-color="#04B34A" stop-opacity="0.01"/>
<stop offset="1" stop-color="#04B34A" stop-opacity="0"/>
</linearGradient>
<linearGradient id="paint2_linear_3239_3222" x1="285.512" y1="222.923" x2="285.512" y2="373" gradientUnits="userSpaceOnUse">
<stop stop-color="#04B34A"/>
<stop offset="0.0666667" stop-color="#04B34A" stop-opacity="0.991353"/>
<stop offset="0.133333" stop-color="#04B34A" stop-opacity="0.96449"/>
<stop offset="0.2" stop-color="#04B34A" stop-opacity="0.91834"/>
<stop offset="0.266667" stop-color="#04B34A" stop-opacity="0.852589"/>
<stop offset="0.333333" stop-color="#04B34A" stop-opacity="0.768225"/>
<stop offset="0.4" stop-color="#04B34A" stop-opacity="0.668116"/>
<stop offset="0.466667" stop-color="#04B34A" stop-opacity="0.557309"/>
<stop offset="0.533333" stop-color="#04B34A" stop-opacity="0.442691"/>
<stop offset="0.6" stop-color="#04B34A" stop-opacity="0.331884"/>
<stop offset="0.666667" stop-color="#04B34A" stop-opacity="0.231775"/>
<stop offset="0.733333" stop-color="#04B34A" stop-opacity="0.147411"/>
<stop offset="0.8" stop-color="#04B34A" stop-opacity="0.0816599"/>
<stop offset="0.866667" stop-color="#04B34A" stop-opacity="0.03551"/>
<stop offset="0.933333" stop-color="#04B34A" stop-opacity="0.01"/>
<stop offset="1" stop-color="#04B34A" stop-opacity="0"/>
</linearGradient>
</defs>
</svg>
