<svg width="1080" height="464" viewBox="0 0 1080 464" fill="none" xmlns="http://www.w3.org/2000/svg">
<rect width="1080" height="464" fill="white"/>
<rect x="20" y="20" width="1040" height="424" rx="25" fill="#F7F7F7"/>
<path d="M65.3764 57.9844H59.777C59.6747 57.2599 59.4659 56.6165 59.1506 56.054C58.8352 55.483 58.4304 54.9972 57.9361 54.5966C57.4418 54.196 56.8707 53.8892 56.223 53.6761C55.5838 53.4631 54.8892 53.3565 54.1392 53.3565C52.7841 53.3565 51.6037 53.6932 50.598 54.3665C49.5923 55.0312 48.8125 56.0028 48.2585 57.2812C47.7045 58.5511 47.4276 60.0937 47.4276 61.9091C47.4276 63.7756 47.7045 65.3437 48.2585 66.6136C48.821 67.8835 49.6051 68.8423 50.6108 69.4901C51.6165 70.1378 52.7798 70.4616 54.1009 70.4616C54.8423 70.4616 55.5284 70.3636 56.1591 70.1676C56.7983 69.9716 57.3651 69.6861 57.8594 69.3111C58.3537 68.9276 58.7628 68.4631 59.0866 67.9176C59.419 67.3722 59.6491 66.75 59.777 66.0511L65.3764 66.0767C65.2315 67.2784 64.8693 68.4375 64.2898 69.554C63.7188 70.6619 62.9474 71.6548 61.9759 72.5327C61.0128 73.402 59.8622 74.0923 58.5241 74.6037C57.1946 75.1065 55.6903 75.358 54.0114 75.358C51.6761 75.358 49.5881 74.8295 47.7472 73.7727C45.9148 72.7159 44.4659 71.1861 43.4006 69.1832C42.3438 67.1804 41.8153 64.7557 41.8153 61.9091C41.8153 59.054 42.3523 56.625 43.4261 54.6222C44.5 52.6193 45.9574 51.0937 47.7983 50.0455C49.6392 48.9886 51.7102 48.4602 54.0114 48.4602C55.5284 48.4602 56.9347 48.6733 58.2301 49.0994C59.5341 49.5256 60.6889 50.1477 61.6946 50.9659C62.7003 51.7756 63.5185 52.7685 64.1491 53.9446C64.7884 55.1207 65.1974 56.4673 65.3764 57.9844ZM71.4119 82.3636C70.7216 82.3636 70.0738 82.3082 69.4687 82.1974C68.8721 82.0952 68.3778 81.9631 67.9858 81.8011L69.2131 77.7358C69.8523 77.9318 70.4275 78.0384 70.9389 78.0554C71.4588 78.0724 71.9062 77.9531 72.2812 77.6974C72.6648 77.4418 72.9758 77.0071 73.2145 76.3935L73.5341 75.5625L66.49 55.3636H72.2173L76.2827 69.7841H76.4872L80.5909 55.3636H86.3565L78.7244 77.1222C78.3579 78.179 77.8594 79.0994 77.2287 79.8835C76.6065 80.6761 75.8182 81.2855 74.8636 81.7116C73.9091 82.1463 72.7585 82.3636 71.4119 82.3636ZM104.029 48.1534L105.691 51.7074C105.137 52.1676 104.523 52.5085 103.85 52.7301C103.176 52.9432 102.371 53.0838 101.434 53.152C100.505 53.2202 99.3711 53.267 98.033 53.2926C96.516 53.3097 95.2802 53.5526 94.3256 54.0213C93.3711 54.4901 92.6466 55.2273 92.1523 56.233C91.658 57.2301 91.3341 58.5341 91.1807 60.1449H91.3725C91.9606 58.9432 92.7873 58.0142 93.8526 57.358C94.9265 56.7017 96.2517 56.3736 97.8285 56.3736C99.4989 56.3736 100.961 56.7401 102.213 57.473C103.475 58.206 104.455 59.2585 105.154 60.6307C105.853 62.0028 106.202 63.6477 106.202 65.5653C106.202 67.5597 105.81 69.294 105.026 70.7685C104.25 72.2344 103.147 73.3722 101.715 74.1818C100.283 74.983 98.5785 75.3835 96.6012 75.3835C94.6154 75.3835 92.9023 74.9659 91.462 74.1307C90.0302 73.2955 88.9222 72.0639 88.1381 70.4361C87.3625 68.8082 86.9748 66.8054 86.9748 64.4276V62.8168C86.9748 58.0866 87.8952 54.5795 89.7361 52.2955C91.577 50.0114 94.283 48.8523 97.854 48.8182C98.8256 48.8011 99.7035 48.7969 100.488 48.8054C101.272 48.8139 101.958 48.7756 102.546 48.6903C103.142 48.6051 103.637 48.4261 104.029 48.1534ZM96.6267 71.1648C97.462 71.1648 98.1779 70.9474 98.7745 70.5128C99.3796 70.0781 99.8441 69.456 100.168 68.6463C100.5 67.8366 100.667 66.8693 100.667 65.7443C100.667 64.6278 100.5 63.6818 100.168 62.9062C99.8441 62.1222 99.3796 61.5256 98.7745 61.1165C98.1694 60.7074 97.4449 60.5028 96.6012 60.5028C95.9705 60.5028 95.4037 60.6179 94.9009 60.848C94.3981 61.0781 93.9677 61.419 93.6097 61.8707C93.2603 62.3139 92.9875 62.8636 92.7915 63.5199C92.604 64.1676 92.5103 64.9091 92.5103 65.7443C92.5103 67.4233 92.8725 68.7486 93.5969 69.7202C94.3299 70.6832 95.3398 71.1648 96.6267 71.1648ZM117.249 75.3835C115.238 75.3835 113.507 74.9574 112.059 74.1051C110.618 73.2443 109.51 72.0511 108.735 70.5256C107.968 69 107.584 67.2443 107.584 65.2585C107.584 63.2472 107.972 61.483 108.747 59.9659C109.532 58.4403 110.644 57.2514 112.084 56.3991C113.524 55.5384 115.238 55.108 117.223 55.108C118.936 55.108 120.436 55.419 121.723 56.0412C123.01 56.6634 124.029 57.5369 124.779 58.6619C125.529 59.7869 125.942 61.108 126.019 62.625H120.88C120.735 61.6449 120.351 60.8565 119.729 60.2599C119.115 59.6548 118.31 59.3523 117.313 59.3523C116.469 59.3523 115.732 59.5824 115.101 60.0426C114.479 60.4943 113.993 61.1548 113.644 62.0241C113.294 62.8935 113.12 63.946 113.12 65.1818C113.12 66.4347 113.29 67.5 113.631 68.3778C113.98 69.2557 114.47 69.9247 115.101 70.3849C115.732 70.8452 116.469 71.0753 117.313 71.0753C117.935 71.0753 118.493 70.9474 118.988 70.6918C119.49 70.4361 119.904 70.0653 120.228 69.5795C120.56 69.0852 120.777 68.4929 120.88 67.8026H126.019C125.934 69.3026 125.524 70.6236 124.792 71.7656C124.067 72.8991 123.066 73.7855 121.787 74.4247C120.509 75.0639 118.996 75.3835 117.249 75.3835ZM133.269 67.8153L140.338 55.3636H145.708V75H140.517V62.5099L133.473 75H128.066V55.3636H133.269V67.8153ZM147.099 80.7528V70.679H148.608C149.043 70.4062 149.392 69.9716 149.656 69.375C149.929 68.7784 150.151 68.0753 150.321 67.2656C150.5 66.456 150.636 65.5824 150.73 64.6449C150.832 63.6989 150.922 62.7443 150.999 61.7812L151.51 55.3636H166.57V70.679H169.612V80.7528H164.422V75H152.418V80.7528H147.099ZM154.028 70.679H161.43V59.5568H156.138L155.933 61.7812C155.788 63.8778 155.579 65.6591 155.307 67.125C155.034 68.5824 154.608 69.767 154.028 70.679ZM176.549 67.8153L183.619 55.3636H188.988V75H183.798V62.5099L176.753 75H171.346V55.3636H176.549V67.8153ZM191.914 82.3636V55.3636H197.283V58.6619H197.526C197.764 58.1335 198.11 57.5966 198.561 57.0511C199.022 56.4972 199.618 56.0369 200.351 55.6705C201.093 55.2955 202.013 55.108 203.112 55.108C204.544 55.108 205.865 55.483 207.076 56.233C208.286 56.9744 209.253 58.0952 209.978 59.5952C210.702 61.0866 211.064 62.9574 211.064 65.2074C211.064 67.3977 210.71 69.2472 210.003 70.7557C209.304 72.2557 208.35 73.3935 207.139 74.169C205.938 74.9361 204.591 75.3196 203.1 75.3196C202.043 75.3196 201.144 75.1449 200.402 74.7955C199.669 74.446 199.068 74.0071 198.6 73.4787C198.131 72.9418 197.773 72.4006 197.526 71.8551H197.36V82.3636H191.914ZM197.245 65.1818C197.245 66.3494 197.407 67.3679 197.73 68.2372C198.054 69.1065 198.523 69.7841 199.137 70.2699C199.75 70.7472 200.496 70.9858 201.374 70.9858C202.26 70.9858 203.01 70.7429 203.624 70.2571C204.237 69.7628 204.702 69.081 205.017 68.2116C205.341 67.3338 205.503 66.3239 205.503 65.1818C205.503 64.0483 205.345 63.0511 205.03 62.1903C204.715 61.3295 204.25 60.6562 203.637 60.1705C203.023 59.6847 202.269 59.4418 201.374 59.4418C200.487 59.4418 199.737 59.6761 199.124 60.1449C198.519 60.6136 198.054 61.2784 197.73 62.1392C197.407 63 197.245 64.0142 197.245 65.1818ZM222.127 75.3835C220.141 75.3835 218.424 74.9616 216.975 74.1179C215.535 73.2656 214.422 72.081 213.638 70.5639C212.854 69.0384 212.462 67.2699 212.462 65.2585C212.462 63.2301 212.854 61.4574 213.638 59.9403C214.422 58.4148 215.535 57.2301 216.975 56.3864C218.424 55.5341 220.141 55.108 222.127 55.108C224.113 55.108 225.826 55.5341 227.266 56.3864C228.715 57.2301 229.832 58.4148 230.616 59.9403C231.4 61.4574 231.792 63.2301 231.792 65.2585C231.792 67.2699 231.4 69.0384 230.616 70.5639C229.832 72.081 228.715 73.2656 227.266 74.1179C225.826 74.9616 224.113 75.3835 222.127 75.3835ZM222.153 71.1648C223.056 71.1648 223.81 70.9091 224.415 70.3977C225.02 69.8778 225.476 69.1705 225.783 68.2756C226.099 67.3807 226.256 66.3622 226.256 65.2202C226.256 64.0781 226.099 63.0597 225.783 62.1648C225.476 61.2699 225.02 60.5625 224.415 60.0426C223.81 59.5227 223.056 59.2628 222.153 59.2628C221.241 59.2628 220.474 59.5227 219.851 60.0426C219.238 60.5625 218.773 61.2699 218.458 62.1648C218.151 63.0597 217.998 64.0781 217.998 65.2202C217.998 66.3622 218.151 67.3807 218.458 68.2756C218.773 69.1705 219.238 69.8778 219.851 70.3977C220.474 70.9091 221.241 71.1648 222.153 71.1648ZM233.893 75V55.3636H242.267C244.687 55.3636 246.6 55.8239 248.007 56.7443C249.413 57.6648 250.116 58.973 250.116 60.669C250.116 61.7344 249.72 62.6207 248.927 63.3281C248.134 64.0355 247.035 64.5128 245.629 64.7599C246.805 64.8452 247.806 65.1136 248.633 65.5653C249.468 66.0085 250.103 66.5838 250.538 67.2912C250.981 67.9986 251.203 68.7827 251.203 69.6435C251.203 70.7599 250.904 71.7187 250.308 72.5199C249.72 73.321 248.855 73.9347 247.713 74.3608C246.579 74.7869 245.194 75 243.558 75H233.893ZM238.968 70.9219H243.558C244.316 70.9219 244.909 70.7429 245.335 70.3849C245.769 70.0185 245.987 69.5199 245.987 68.8892C245.987 68.1903 245.769 67.6406 245.335 67.2401C244.909 66.8395 244.316 66.6392 243.558 66.6392H238.968V70.9219ZM238.968 63.4432H242.382C242.927 63.4432 243.392 63.3665 243.775 63.2131C244.167 63.0511 244.465 62.821 244.67 62.5227C244.883 62.2244 244.99 61.8707 244.99 61.4616C244.99 60.8565 244.747 60.3835 244.261 60.0426C243.775 59.7017 243.11 59.5312 242.267 59.5312H238.968V63.4432ZM258.795 75.3707C257.542 75.3707 256.425 75.1534 255.445 74.7188C254.465 74.2756 253.689 73.6236 253.118 72.7628C252.556 71.8935 252.275 70.8111 252.275 69.5156C252.275 68.4247 252.475 67.5085 252.876 66.767C253.276 66.0256 253.822 65.429 254.512 64.9773C255.202 64.5256 255.986 64.1847 256.864 63.9545C257.751 63.7244 258.68 63.5625 259.651 63.4688C260.793 63.3494 261.714 63.2386 262.413 63.1364C263.111 63.0256 263.618 62.8636 263.934 62.6506C264.249 62.4375 264.407 62.1222 264.407 61.7045V61.6278C264.407 60.8182 264.151 60.1918 263.64 59.7486C263.137 59.3054 262.421 59.0838 261.492 59.0838C260.512 59.0838 259.732 59.3011 259.153 59.7358C258.573 60.1619 258.189 60.6989 258.002 61.3466L252.965 60.9375C253.221 59.7443 253.724 58.7131 254.474 57.8438C255.224 56.9659 256.191 56.2926 257.376 55.8239C258.569 55.3466 259.949 55.108 261.518 55.108C262.609 55.108 263.653 55.2358 264.65 55.4915C265.655 55.7472 266.546 56.1435 267.322 56.6804C268.106 57.2173 268.724 57.9077 269.175 58.7514C269.627 59.5866 269.853 60.5881 269.853 61.7557V75H264.688V72.277H264.535C264.219 72.8906 263.797 73.4318 263.269 73.9006C262.741 74.3608 262.106 74.723 261.364 74.9872C260.623 75.2429 259.766 75.3707 258.795 75.3707ZM260.354 71.6122C261.155 71.6122 261.863 71.4545 262.476 71.1392C263.09 70.8153 263.572 70.3807 263.921 69.8352C264.27 69.2898 264.445 68.6719 264.445 67.9815V65.8977C264.275 66.0085 264.04 66.1108 263.742 66.2045C263.452 66.2898 263.124 66.3707 262.758 66.4474C262.391 66.5156 262.025 66.5795 261.658 66.6392C261.292 66.6903 260.959 66.7372 260.661 66.7798C260.022 66.8736 259.464 67.0227 258.986 67.2273C258.509 67.4318 258.138 67.7088 257.874 68.0582C257.61 68.3991 257.478 68.8253 257.478 69.3366C257.478 70.0781 257.746 70.6449 258.283 71.0369C258.829 71.4205 259.519 71.6122 260.354 71.6122ZM286.304 63.0085V67.2912H276.051V63.0085H286.304ZM277.841 55.3636V75H272.638V55.3636H277.841ZM289.718 55.3636V75H284.553V55.3636H289.718ZM306.169 63.0085V67.2912H295.916V63.0085H306.169ZM297.706 55.3636V75H292.503V55.3636H297.706ZM309.582 55.3636V75H304.417V55.3636H309.582ZM315.781 61.3977H321.649C324.248 61.3977 326.276 62.0199 327.734 63.2642C329.191 64.5 329.92 66.1534 329.92 68.2244C329.92 69.571 329.592 70.7557 328.936 71.7784C328.279 72.7926 327.333 73.5852 326.097 74.1562C324.862 74.7188 323.379 75 321.649 75H312.367V55.3636H317.57V70.7173H321.649C322.561 70.7173 323.311 70.4872 323.899 70.027C324.487 69.5668 324.785 68.9787 324.793 68.2628C324.785 67.5043 324.487 66.8864 323.899 66.4091C323.311 65.9233 322.561 65.6804 321.649 65.6804H315.781V61.3977ZM332.029 75V55.3636H337.475V75H332.029ZM349.337 75.3835C347.317 75.3835 345.579 74.9744 344.121 74.1562C342.672 73.3295 341.556 72.1619 340.772 70.6534C339.988 69.1364 339.596 67.3423 339.596 65.2713C339.596 63.2514 339.988 61.4787 340.772 59.9531C341.556 58.4276 342.66 57.2386 344.083 56.3864C345.515 55.5341 347.194 55.108 349.12 55.108C350.415 55.108 351.621 55.3168 352.738 55.7344C353.863 56.1435 354.843 56.7614 355.678 57.5881C356.522 58.4148 357.178 59.4545 357.647 60.7074C358.116 61.9517 358.35 63.4091 358.35 65.0795V66.5753H341.769V63.2003H353.224C353.224 62.4162 353.053 61.7216 352.712 61.1165C352.371 60.5114 351.898 60.0384 351.293 59.6974C350.697 59.348 350.002 59.1733 349.209 59.1733C348.383 59.1733 347.65 59.3651 347.01 59.7486C346.38 60.1236 345.885 60.6307 345.527 61.2699C345.17 61.9006 344.986 62.6037 344.978 63.3793V66.5881C344.978 67.5597 345.157 68.3991 345.515 69.1065C345.881 69.8139 346.397 70.3594 347.062 70.7429C347.726 71.1264 348.515 71.3182 349.427 71.3182C350.032 71.3182 350.586 71.233 351.089 71.0625C351.591 70.892 352.022 70.6364 352.38 70.2955C352.738 69.9545 353.01 69.5369 353.198 69.0426L358.235 69.375C357.979 70.5852 357.455 71.642 356.662 72.5455C355.878 73.4403 354.864 74.1392 353.62 74.642C352.384 75.1364 350.956 75.3835 349.337 75.3835ZM372.559 67.8153L379.629 55.3636H384.998V75H379.808V62.5099L372.764 75H367.356V55.3636H372.559V67.8153ZM387.924 75V55.3636H405.093V75H399.89V59.6463H393.063V75H387.924ZM416.872 75.3835C414.886 75.3835 413.168 74.9616 411.72 74.1179C410.279 73.2656 409.167 72.081 408.383 70.5639C407.599 69.0384 407.207 67.2699 407.207 65.2585C407.207 63.2301 407.599 61.4574 408.383 59.9403C409.167 58.4148 410.279 57.2301 411.72 56.3864C413.168 55.5341 414.886 55.108 416.872 55.108C418.857 55.108 420.57 55.5341 422.011 56.3864C423.46 57.2301 424.576 58.4148 425.36 59.9403C426.144 61.4574 426.536 63.2301 426.536 65.2585C426.536 67.2699 426.144 69.0384 425.36 70.5639C424.576 72.081 423.46 73.2656 422.011 74.1179C420.57 74.9616 418.857 75.3835 416.872 75.3835ZM416.897 71.1648C417.801 71.1648 418.555 70.9091 419.16 70.3977C419.765 69.8778 420.221 69.1705 420.528 68.2756C420.843 67.3807 421.001 66.3622 421.001 65.2202C421.001 64.0781 420.843 63.0597 420.528 62.1648C420.221 61.2699 419.765 60.5625 419.16 60.0426C418.555 59.5227 417.801 59.2628 416.897 59.2628C415.985 59.2628 415.218 59.5227 414.596 60.0426C413.982 60.5625 413.518 61.2699 413.203 62.1648C412.896 63.0597 412.742 64.0781 412.742 65.2202C412.742 66.3622 412.896 67.3807 413.203 68.2756C413.518 69.1705 413.982 69.8778 414.596 70.3977C415.218 70.9091 415.985 71.1648 416.897 71.1648ZM426.736 59.6463V55.3636H444.531V59.6463H438.203V75H433.013V59.6463H426.736ZM454.639 75.3835C452.619 75.3835 450.88 74.9744 449.423 74.1562C447.974 73.3295 446.857 72.1619 446.073 70.6534C445.289 69.1364 444.897 67.3423 444.897 65.2713C444.897 63.2514 445.289 61.4787 446.073 59.9531C446.857 58.4276 447.961 57.2386 449.384 56.3864C450.816 55.5341 452.495 55.108 454.421 55.108C455.717 55.108 456.923 55.3168 458.039 55.7344C459.164 56.1435 460.144 56.7614 460.979 57.5881C461.823 58.4148 462.479 59.4545 462.948 60.7074C463.417 61.9517 463.651 63.4091 463.651 65.0795V66.5753H447.07V63.2003H458.525C458.525 62.4162 458.354 61.7216 458.014 61.1165C457.673 60.5114 457.2 60.0384 456.595 59.6974C455.998 59.348 455.303 59.1733 454.511 59.1733C453.684 59.1733 452.951 59.3651 452.312 59.7486C451.681 60.1236 451.187 60.6307 450.829 61.2699C450.471 61.9006 450.288 62.6037 450.279 63.3793V66.5881C450.279 67.5597 450.458 68.3991 450.816 69.1065C451.183 69.8139 451.698 70.3594 452.363 70.7429C453.028 71.1264 453.816 71.3182 454.728 71.3182C455.333 71.3182 455.887 71.233 456.39 71.0625C456.893 70.892 457.323 70.6364 457.681 70.2955C458.039 69.9545 458.312 69.5369 458.499 69.0426L463.536 69.375C463.281 70.5852 462.756 71.642 461.964 72.5455C461.18 73.4403 460.166 74.1392 458.921 74.642C457.685 75.1364 456.258 75.3835 454.639 75.3835ZM465.765 75V55.3636H471.211V62.983H472.745L478.089 55.3636H484.481L477.539 65.1051L484.558 75H478.089L473.244 68.0327H471.211V75H465.765ZM490.622 67.8153L497.692 55.3636H503.061V75H497.871V62.5099L490.827 75H485.419V55.3636H490.622V67.8153Z" fill="black"/>
<path opacity="0.4" d="M1040 422.001H40V166L540.5 230L1040 150V422.001Z" fill="url(#paint0_linear_3326_3313)"/>
<rect x="1035" y="145" width="10.2717" height="10.2717" rx="5.13587" fill="#04B34A"/>
<path d="M1041 150.5L544.184 231.813C541.41 232.268 538.583 232.316 535.795 231.956L38.9999 167.948" stroke="#04B34A" stroke-width="4"/>
<path d="M42.3991 146V144.409L47.321 139.31C47.8466 138.756 48.2798 138.27 48.6207 137.854C48.9664 137.432 49.2244 137.032 49.3949 136.653C49.5653 136.275 49.6506 135.872 49.6506 135.446C49.6506 134.963 49.5369 134.546 49.3097 134.196C49.0824 133.841 48.7723 133.569 48.3793 133.379C47.9863 133.185 47.5436 133.088 47.0511 133.088C46.5303 133.088 46.0758 133.195 45.6875 133.408C45.2992 133.621 45.0009 133.921 44.7926 134.31C44.5843 134.698 44.4801 135.152 44.4801 135.673H42.3849C42.3849 134.788 42.5885 134.014 42.9957 133.351C43.4029 132.688 43.9616 132.174 44.6719 131.81C45.3821 131.44 46.1894 131.256 47.0938 131.256C48.0076 131.256 48.8125 131.438 49.5085 131.803C50.2093 132.162 50.7562 132.655 51.1491 133.28C51.5421 133.9 51.7386 134.601 51.7386 135.382C51.7386 135.922 51.6368 136.45 51.4332 136.966C51.2344 137.482 50.8864 138.057 50.3892 138.692C49.892 139.321 49.2008 140.086 48.3153 140.986L45.4247 144.011V144.118H51.973V146H42.3991ZM59.5061 146.199C58.5308 146.199 57.6595 146.031 56.8925 145.695C56.1302 145.358 55.5265 144.892 55.0814 144.295C54.6411 143.694 54.4043 142.998 54.3712 142.207H56.6013C56.6297 142.638 56.7741 143.012 57.0345 143.33C57.2997 143.642 57.6453 143.884 58.0715 144.054C58.4976 144.224 58.9711 144.31 59.4919 144.31C60.0649 144.31 60.5715 144.21 61.0118 144.011C61.4569 143.812 61.8049 143.536 62.0559 143.18C62.3068 142.821 62.4323 142.406 62.4323 141.938C62.4323 141.45 62.3068 141.021 62.0559 140.652C61.8096 140.278 61.4474 139.984 60.9692 139.771C60.4957 139.558 59.9228 139.452 59.2505 139.452H58.0218V137.662H59.2505C59.7902 137.662 60.2637 137.565 60.6709 137.371C61.0828 137.177 61.4048 136.907 61.6368 136.561C61.8688 136.211 61.9848 135.801 61.9848 135.332C61.9848 134.883 61.883 134.492 61.6794 134.161C61.4806 133.824 61.1965 133.562 60.8272 133.372C60.4626 133.183 60.0317 133.088 59.5345 133.088C59.0611 133.088 58.6184 133.176 58.2064 133.351C57.7992 133.521 57.4678 133.768 57.2121 134.089C56.9564 134.407 56.8191 134.788 56.8002 135.233H54.6766C54.7003 134.447 54.9323 133.756 55.3726 133.159C55.8177 132.562 56.4048 132.096 57.134 131.76C57.8631 131.424 58.6728 131.256 59.563 131.256C60.4957 131.256 61.3006 131.438 61.9777 131.803C62.6595 132.162 63.1851 132.643 63.5544 133.244C63.9285 133.846 64.1131 134.504 64.1084 135.219C64.1131 136.033 63.8859 136.724 63.4266 137.293C62.972 137.861 62.366 138.242 61.6084 138.436V138.55C62.5743 138.696 63.3224 139.08 63.8527 139.7C64.3878 140.321 64.6529 141.09 64.6482 142.009C64.6529 142.809 64.4304 143.526 63.9806 144.161C63.5355 144.795 62.9271 145.295 62.1553 145.659C61.3835 146.019 60.5005 146.199 59.5061 146.199ZM74.7026 143.273V142.506C74.7026 141.956 74.8163 141.455 75.0435 141C75.2755 140.541 75.6117 140.174 76.0521 139.899C76.4971 139.62 77.0345 139.48 77.6643 139.48C78.3082 139.48 78.848 139.617 79.2836 139.892C79.7192 140.167 80.0483 140.534 80.2708 140.993C80.4981 141.452 80.6117 141.956 80.6117 142.506V143.273C80.6117 143.822 80.4981 144.326 80.2708 144.786C80.0435 145.24 79.7097 145.607 79.2694 145.886C78.8338 146.161 78.2987 146.298 77.6643 146.298C77.0251 146.298 76.4853 146.161 76.0449 145.886C75.6046 145.607 75.2708 145.24 75.0435 144.786C74.8163 144.326 74.7026 143.822 74.7026 143.273ZM76.3574 142.506V143.273C76.3574 143.68 76.4545 144.049 76.6486 144.381C76.8428 144.712 77.1813 144.878 77.6643 144.878C78.1425 144.878 78.4763 144.712 78.6657 144.381C78.8551 144.049 78.9498 143.68 78.9498 143.273V142.506C78.9498 142.098 78.8574 141.729 78.6728 141.398C78.4929 141.066 78.1567 140.901 77.6643 140.901C77.1908 140.901 76.8546 141.066 76.6557 141.398C76.4569 141.729 76.3574 142.098 76.3574 142.506ZM67.3873 134.949V134.182C67.3873 133.633 67.5009 133.128 67.7282 132.669C67.9602 132.21 68.2964 131.843 68.7367 131.568C69.1818 131.294 69.7192 131.156 70.3489 131.156C70.9929 131.156 71.5326 131.294 71.9682 131.568C72.4039 131.843 72.7329 132.21 72.9555 132.669C73.178 133.128 73.2893 133.633 73.2893 134.182V134.949C73.2893 135.498 73.1756 136.002 72.9484 136.462C72.7258 136.916 72.3944 137.283 71.954 137.562C71.5184 137.837 70.9834 137.974 70.3489 137.974C69.705 137.974 69.1628 137.837 68.7225 137.562C68.2869 137.283 67.9555 136.916 67.7282 136.462C67.5009 136.002 67.3873 135.498 67.3873 134.949ZM69.0492 134.182V134.949C69.0492 135.356 69.1439 135.725 69.3333 136.057C69.5274 136.388 69.866 136.554 70.3489 136.554C70.8224 136.554 71.1538 136.388 71.3432 136.057C71.5374 135.725 71.6344 135.356 71.6344 134.949V134.182C71.6344 133.775 71.5421 133.405 71.3574 133.074C71.1728 132.742 70.8366 132.577 70.3489 132.577C69.8754 132.577 69.5393 132.742 69.3404 133.074C69.1463 133.405 69.0492 133.775 69.0492 134.182ZM68.062 146L78.062 131.455H79.7594L69.7594 146H68.062Z" fill="#CFCFCF"/>
<path d="M513.162 203.455V218H510.96V205.656H510.875L507.395 207.929V205.827L511.024 203.455H513.162ZM516.568 215.159V213.384L522.854 203.455H524.253V206.068H523.365L518.869 213.185V213.298H527.484V215.159H516.568ZM523.465 218V214.619L523.479 213.81V203.455H525.56V218H523.465ZM531.981 216.011L531.875 216.786C531.804 217.354 531.683 217.946 531.513 218.561C531.347 219.181 531.174 219.757 530.994 220.287C530.819 220.817 530.675 221.239 530.561 221.551H529.055C529.117 221.258 529.202 220.86 529.311 220.358C529.42 219.861 529.526 219.304 529.631 218.689C529.735 218.073 529.813 217.446 529.865 216.807L529.936 216.011H531.981ZM534.424 215.159V213.384L540.709 203.455H542.109V206.068H541.221L536.725 213.185V213.298H545.34V215.159H534.424ZM541.32 218V214.619L541.334 213.81V203.455H543.415V218H541.32ZM555.185 215.273V214.506C555.185 213.956 555.299 213.455 555.526 213C555.758 212.541 556.094 212.174 556.534 211.899C556.98 211.62 557.517 211.48 558.147 211.48C558.791 211.48 559.33 211.617 559.766 211.892C560.202 212.167 560.531 212.534 560.753 212.993C560.98 213.452 561.094 213.956 561.094 214.506V215.273C561.094 215.822 560.98 216.326 560.753 216.786C560.526 217.24 560.192 217.607 559.752 217.886C559.316 218.161 558.781 218.298 558.147 218.298C557.507 218.298 556.968 218.161 556.527 217.886C556.087 217.607 555.753 217.24 555.526 216.786C555.299 216.326 555.185 215.822 555.185 215.273ZM556.84 214.506V215.273C556.84 215.68 556.937 216.049 557.131 216.381C557.325 216.712 557.664 216.878 558.147 216.878C558.625 216.878 558.959 216.712 559.148 216.381C559.338 216.049 559.432 215.68 559.432 215.273V214.506C559.432 214.098 559.34 213.729 559.155 213.398C558.975 213.066 558.639 212.901 558.147 212.901C557.673 212.901 557.337 213.066 557.138 213.398C556.939 213.729 556.84 214.098 556.84 214.506ZM547.87 206.949V206.182C547.87 205.633 547.983 205.128 548.211 204.669C548.443 204.21 548.779 203.843 549.219 203.568C549.664 203.294 550.202 203.156 550.831 203.156C551.475 203.156 552.015 203.294 552.451 203.568C552.886 203.843 553.215 204.21 553.438 204.669C553.66 205.128 553.772 205.633 553.772 206.182V206.949C553.772 207.498 553.658 208.002 553.431 208.462C553.208 208.916 552.877 209.283 552.436 209.562C552.001 209.837 551.466 209.974 550.831 209.974C550.187 209.974 549.645 209.837 549.205 209.562C548.769 209.283 548.438 208.916 548.211 208.462C547.983 208.002 547.87 207.498 547.87 206.949ZM549.532 206.182V206.949C549.532 207.356 549.626 207.725 549.816 208.057C550.01 208.388 550.348 208.554 550.831 208.554C551.305 208.554 551.636 208.388 551.826 208.057C552.02 207.725 552.117 207.356 552.117 206.949V206.182C552.117 205.775 552.025 205.405 551.84 205.074C551.655 204.742 551.319 204.577 550.831 204.577C550.358 204.577 550.022 204.742 549.823 205.074C549.629 205.405 549.532 205.775 549.532 206.182ZM548.544 218L558.544 203.455H560.242L550.242 218H548.544Z" fill="#CFCFCF"/>
<path d="M984.11 134V132.409L989.032 127.31C989.557 126.756 989.99 126.27 990.331 125.854C990.677 125.432 990.935 125.032 991.105 124.653C991.276 124.275 991.361 123.872 991.361 123.446C991.361 122.963 991.247 122.546 991.02 122.196C990.793 121.841 990.483 121.569 990.09 121.379C989.697 121.185 989.254 121.088 988.762 121.088C988.241 121.088 987.786 121.195 987.398 121.408C987.01 121.621 986.711 121.921 986.503 122.31C986.295 122.698 986.191 123.152 986.191 123.673H984.095C984.095 122.788 984.299 122.014 984.706 121.351C985.113 120.688 985.672 120.174 986.382 119.81C987.093 119.44 987.9 119.256 988.804 119.256C989.718 119.256 990.523 119.438 991.219 119.803C991.92 120.162 992.467 120.655 992.86 121.28C993.253 121.9 993.449 122.601 993.449 123.382C993.449 123.922 993.347 124.45 993.144 124.966C992.945 125.482 992.597 126.057 992.1 126.692C991.603 127.321 990.911 128.086 990.026 128.986L987.135 132.011V132.118H993.684V134H984.11ZM995.535 131.159V129.384L1001.82 119.455H1003.22V122.068H1002.33L997.836 129.185V129.298H1006.45V131.159H995.535ZM1002.43 134V130.619L1002.45 129.81V119.455H1004.53V134H1002.43ZM1010.95 132.011L1010.84 132.786C1010.77 133.354 1010.65 133.946 1010.48 134.561C1010.31 135.181 1010.14 135.757 1009.96 136.287C1009.79 136.817 1009.64 137.239 1009.53 137.551H1008.02C1008.08 137.258 1008.17 136.86 1008.28 136.358C1008.39 135.861 1008.49 135.304 1008.6 134.689C1008.7 134.073 1008.78 133.446 1008.83 132.807L1008.9 132.011H1010.95ZM1018.23 134.199C1017.26 134.199 1016.39 134.031 1015.62 133.695C1014.86 133.358 1014.25 132.892 1013.81 132.295C1013.37 131.694 1013.13 130.998 1013.1 130.207H1015.33C1015.36 130.638 1015.5 131.012 1015.76 131.33C1016.03 131.642 1016.37 131.884 1016.8 132.054C1017.22 132.224 1017.7 132.31 1018.22 132.31C1018.79 132.31 1019.3 132.21 1019.74 132.011C1020.18 131.812 1020.53 131.536 1020.78 131.18C1021.03 130.821 1021.16 130.406 1021.16 129.938C1021.16 129.45 1021.03 129.021 1020.78 128.652C1020.54 128.278 1020.17 127.984 1019.7 127.771C1019.22 127.558 1018.65 127.452 1017.98 127.452H1016.75V125.662H1017.98C1018.52 125.662 1018.99 125.565 1019.4 125.371C1019.81 125.177 1020.13 124.907 1020.36 124.561C1020.6 124.211 1020.71 123.801 1020.71 123.332C1020.71 122.883 1020.61 122.492 1020.41 122.161C1020.21 121.824 1019.92 121.562 1019.55 121.372C1019.19 121.183 1018.76 121.088 1018.26 121.088C1017.79 121.088 1017.34 121.176 1016.93 121.351C1016.53 121.521 1016.19 121.768 1015.94 122.089C1015.68 122.407 1015.55 122.788 1015.53 123.233H1013.4C1013.43 122.447 1013.66 121.756 1014.1 121.159C1014.54 120.562 1015.13 120.096 1015.86 119.76C1016.59 119.424 1017.4 119.256 1018.29 119.256C1019.22 119.256 1020.03 119.438 1020.7 119.803C1021.39 120.162 1021.91 120.643 1022.28 121.244C1022.65 121.846 1022.84 122.504 1022.83 123.219C1022.84 124.033 1022.61 124.724 1022.15 125.293C1021.7 125.861 1021.09 126.242 1020.33 126.436V126.55C1021.3 126.696 1022.05 127.08 1022.58 127.7C1023.11 128.321 1023.38 129.09 1023.37 130.009C1023.38 130.809 1023.16 131.526 1022.71 132.161C1022.26 132.795 1021.65 133.295 1020.88 133.659C1020.11 134.019 1019.23 134.199 1018.23 134.199ZM1033.43 131.273V130.506C1033.43 129.956 1033.54 129.455 1033.77 129C1034 128.541 1034.34 128.174 1034.78 127.899C1035.22 127.62 1035.76 127.48 1036.39 127.48C1037.03 127.48 1037.57 127.617 1038.01 127.892C1038.45 128.167 1038.77 128.534 1039 128.993C1039.22 129.452 1039.34 129.956 1039.34 130.506V131.273C1039.34 131.822 1039.22 132.326 1039 132.786C1038.77 133.24 1038.44 133.607 1038 133.886C1037.56 134.161 1037.03 134.298 1036.39 134.298C1035.75 134.298 1035.21 134.161 1034.77 133.886C1034.33 133.607 1034 133.24 1033.77 132.786C1033.54 132.326 1033.43 131.822 1033.43 131.273ZM1035.08 130.506V131.273C1035.08 131.68 1035.18 132.049 1035.38 132.381C1035.57 132.712 1035.91 132.878 1036.39 132.878C1036.87 132.878 1037.2 132.712 1037.39 132.381C1037.58 132.049 1037.68 131.68 1037.68 131.273V130.506C1037.68 130.098 1037.58 129.729 1037.4 129.398C1037.22 129.066 1036.88 128.901 1036.39 128.901C1035.92 128.901 1035.58 129.066 1035.38 129.398C1035.18 129.729 1035.08 130.098 1035.08 130.506ZM1026.11 122.949V122.182C1026.11 121.633 1026.23 121.128 1026.45 120.669C1026.69 120.21 1027.02 119.843 1027.46 119.568C1027.91 119.294 1028.45 119.156 1029.08 119.156C1029.72 119.156 1030.26 119.294 1030.69 119.568C1031.13 119.843 1031.46 120.21 1031.68 120.669C1031.9 121.128 1032.02 121.633 1032.02 122.182V122.949C1032.02 123.498 1031.9 124.002 1031.67 124.462C1031.45 124.916 1031.12 125.283 1030.68 125.562C1030.24 125.837 1029.71 125.974 1029.08 125.974C1028.43 125.974 1027.89 125.837 1027.45 125.562C1027.01 125.283 1026.68 124.916 1026.45 124.462C1026.23 124.002 1026.11 123.498 1026.11 122.949ZM1027.78 122.182V122.949C1027.78 123.356 1027.87 123.725 1028.06 124.057C1028.25 124.388 1028.59 124.554 1029.08 124.554C1029.55 124.554 1029.88 124.388 1030.07 124.057C1030.26 123.725 1030.36 123.356 1030.36 122.949V122.182C1030.36 121.775 1030.27 121.405 1030.08 121.074C1029.9 120.742 1029.56 120.577 1029.08 120.577C1028.6 120.577 1028.27 120.742 1028.07 121.074C1027.87 121.405 1027.78 121.775 1027.78 122.182ZM1026.79 134L1036.79 119.455H1038.49L1028.49 134H1026.79Z" fill="#CFCFCF"/>
<rect x="535" y="227" width="10" height="10" rx="5" fill="white" stroke="#04B34A" stroke-width="4"/>
<path opacity="0.6" d="M41.2912 407.909H43.6435V416.832H43.7649L49.9205 407.909H52.049V421H49.6776V412.083H49.5689L43.3942 421H41.2912V407.909ZM58.8044 407.909V421H56.433V407.909H58.8044ZM61.6361 413.694V415.599H57.5132V413.694H61.6361ZM72.9245 414.455C72.9245 415.865 72.6603 417.073 72.1319 418.079C71.6077 419.08 70.8918 419.847 69.9841 420.38C69.0807 420.913 68.0559 421.179 66.9096 421.179C65.7632 421.179 64.7363 420.913 63.8286 420.38C62.9252 419.843 62.2093 419.074 61.6809 418.072C61.1567 417.067 60.8946 415.861 60.8946 414.455C60.8946 413.044 61.1567 411.838 61.6809 410.837C62.2093 409.831 62.9252 409.062 63.8286 408.529C64.7363 407.996 65.7632 407.73 66.9096 407.73C68.0559 407.73 69.0807 407.996 69.9841 408.529C70.8918 409.062 71.6077 409.831 72.1319 410.837C72.6603 411.838 72.9245 413.044 72.9245 414.455ZM70.5402 414.455C70.5402 413.462 70.3847 412.624 70.0736 411.942C69.7668 411.256 69.3407 410.739 68.7952 410.389C68.2498 410.036 67.6212 409.859 66.9096 409.859C66.1979 409.859 65.5694 410.036 65.0239 410.389C64.4784 410.739 64.0502 411.256 63.7391 411.942C63.4323 412.624 63.2789 413.462 63.2789 414.455C63.2789 415.447 63.4323 416.287 63.7391 416.973C64.0502 417.655 64.4784 418.173 65.0239 418.526C65.5694 418.876 66.1979 419.05 66.9096 419.05C67.6212 419.05 68.2498 418.876 68.7952 418.526C69.3407 418.173 69.7668 417.655 70.0736 416.973C70.3847 416.287 70.5402 415.447 70.5402 414.455ZM76.9888 421V407.909H79.3603V413.451H85.4263V407.909H87.8042V421H85.4263V415.439H79.3603V421H76.9888ZM93.7878 412.965H97.1116C98.1131 412.965 98.9717 413.129 99.6876 413.457C100.408 413.781 100.96 414.239 101.343 414.832C101.727 415.424 101.918 416.121 101.918 416.922C101.918 417.727 101.727 418.437 101.343 419.05C100.96 419.66 100.408 420.137 99.6876 420.482C98.9717 420.827 98.1131 421 97.1116 421H92.209V407.909H94.5868V419.057H97.1116C97.6401 419.057 98.0875 418.957 98.454 418.756C98.8205 418.556 99.0974 418.292 99.2849 417.964C99.4767 417.636 99.5726 417.28 99.5726 416.896C99.5726 416.342 99.3595 415.871 98.9334 415.484C98.5115 415.092 97.9043 414.896 97.1116 414.896H93.7878V412.965Z" fill="black"/>
<path opacity="0.6" d="M509.5 407.909H511.853V416.832H511.974L518.13 407.909H520.258V421H517.887V412.083H517.778L511.603 421H509.5V407.909ZM527.014 407.909V421H524.642V407.909H527.014ZM529.845 413.694V415.599H525.722V413.694H529.845ZM541.134 414.455C541.134 415.865 540.869 417.073 540.341 418.079C539.817 419.08 539.101 419.847 538.193 420.38C537.29 420.913 536.265 421.179 535.119 421.179C533.972 421.179 532.945 420.913 532.038 420.38C531.134 419.843 530.418 419.074 529.89 418.072C529.366 417.067 529.104 415.861 529.104 414.455C529.104 413.044 529.366 411.838 529.89 410.837C530.418 409.831 531.134 409.062 532.038 408.529C532.945 407.996 533.972 407.73 535.119 407.73C536.265 407.73 537.29 407.996 538.193 408.529C539.101 409.062 539.817 409.831 540.341 410.837C540.869 411.838 541.134 413.044 541.134 414.455ZM538.749 414.455C538.749 413.462 538.594 412.624 538.283 411.942C537.976 411.256 537.55 410.739 537.004 410.389C536.459 410.036 535.83 409.859 535.119 409.859C534.407 409.859 533.779 410.036 533.233 410.389C532.688 410.739 532.259 411.256 531.948 411.942C531.641 412.624 531.488 413.462 531.488 414.455C531.488 415.447 531.641 416.287 531.948 416.973C532.259 417.655 532.688 418.173 533.233 418.526C533.779 418.876 534.407 419.05 535.119 419.05C535.83 419.05 536.459 418.876 537.004 418.526C537.55 418.173 537.976 417.655 538.283 416.973C538.594 416.287 538.749 415.447 538.749 414.455ZM544.348 421V419.031L544.719 419.012C545.221 418.982 545.62 418.801 545.914 418.469C546.212 418.136 546.432 417.602 546.572 416.864C546.717 416.127 546.813 415.138 546.86 413.898L547.077 407.909H555.655V421H553.335V409.859H549.289L549.084 414.634C549.025 416.065 548.867 417.252 548.611 418.194C548.36 419.136 547.947 419.839 547.371 420.303C546.8 420.768 546.006 421 544.987 421H544.348ZM561.645 412.965H564.969C565.971 412.965 566.829 413.129 567.545 413.457C568.265 413.781 568.817 414.239 569.201 414.832C569.584 415.424 569.776 416.121 569.776 416.922C569.776 417.727 569.584 418.437 569.201 419.05C568.817 419.66 568.265 420.137 567.545 420.482C566.829 420.827 565.971 421 564.969 421H560.067V407.909H562.444V419.057H564.969C565.498 419.057 565.945 418.957 566.312 418.756C566.678 418.556 566.955 418.292 567.143 417.964C567.334 417.636 567.43 417.28 567.43 416.896C567.43 416.342 567.217 415.871 566.791 415.484C566.369 415.092 565.762 414.896 564.969 414.896H561.645V412.965Z" fill="black"/>
<path opacity="0.6" d="M962.377 421H959.845L964.454 407.909H967.382L971.997 421H969.465L965.969 410.594H965.867L962.377 421ZM962.46 415.867H969.363V417.772H962.46V415.867ZM975.521 421V407.909H980.532C981.478 407.909 982.264 408.058 982.891 408.357C983.522 408.651 983.992 409.053 984.304 409.565C984.619 410.076 984.777 410.656 984.777 411.303C984.777 411.836 984.674 412.292 984.47 412.671C984.265 413.046 983.99 413.351 983.645 413.585C983.3 413.82 982.914 413.988 982.488 414.09V414.218C982.953 414.244 983.398 414.386 983.824 414.646C984.255 414.902 984.606 415.264 984.879 415.733C985.152 416.202 985.288 416.768 985.288 417.433C985.288 418.111 985.124 418.72 984.796 419.261C984.468 419.798 983.973 420.222 983.313 420.533C982.652 420.844 981.821 421 980.82 421H975.521ZM977.892 419.018H980.443C981.304 419.018 981.924 418.854 982.303 418.526C982.686 418.194 982.878 417.768 982.878 417.248C982.878 416.86 982.782 416.511 982.59 416.2C982.399 415.884 982.126 415.637 981.772 415.458C981.419 415.275 980.997 415.183 980.507 415.183H977.892V419.018ZM977.892 413.477H980.238C980.647 413.477 981.016 413.402 981.344 413.253C981.672 413.099 981.93 412.884 982.117 412.607C982.309 412.326 982.405 411.994 982.405 411.61C982.405 411.103 982.226 410.685 981.868 410.357C981.514 410.029 980.988 409.865 980.289 409.865H977.892V413.477ZM997.569 407.909V409.897H991.522V421H989.151V407.909H997.569ZM1002.54 421.179V419.185H1003.29C1003.63 419.185 1003.91 419.136 1004.12 419.038C1004.34 418.94 1004.52 418.799 1004.65 418.616C1004.78 418.433 1004.9 418.219 1004.99 417.977L1005.16 417.536L1000.48 407.909H1002.96L1006.22 414.915L1009.04 407.909H1011.48L1006.97 418.584C1006.76 419.044 1006.52 419.472 1006.25 419.869C1005.97 420.261 1005.62 420.578 1005.18 420.821C1004.74 421.06 1004.18 421.179 1003.48 421.179H1002.54ZM1025.44 412.326H1023.05C1022.98 411.934 1022.85 411.587 1022.67 411.284C1022.49 410.977 1022.26 410.717 1021.98 410.504C1021.71 410.291 1021.4 410.131 1021.05 410.025C1020.71 409.914 1020.33 409.859 1019.93 409.859C1019.22 409.859 1018.59 410.038 1018.04 410.396C1017.49 410.749 1017.06 411.269 1016.75 411.955C1016.44 412.637 1016.28 413.47 1016.28 414.455C1016.28 415.456 1016.44 416.3 1016.75 416.986C1017.07 417.668 1017.5 418.183 1018.04 418.533C1018.59 418.878 1019.22 419.05 1019.93 419.05C1020.32 419.05 1020.69 418.999 1021.03 418.897C1021.37 418.79 1021.68 418.635 1021.95 418.43C1022.23 418.226 1022.46 417.974 1022.65 417.676C1022.84 417.378 1022.97 417.037 1023.05 416.653L1025.44 416.666C1025.35 417.288 1025.15 417.872 1024.86 418.418C1024.56 418.963 1024.18 419.445 1023.7 419.862C1023.22 420.276 1022.66 420.599 1022.02 420.834C1021.38 421.064 1020.67 421.179 1019.89 421.179C1018.74 421.179 1017.72 420.913 1016.81 420.38C1015.91 419.847 1015.2 419.078 1014.68 418.072C1014.16 417.067 1013.9 415.861 1013.9 414.455C1013.9 413.044 1014.16 411.838 1014.69 410.837C1015.21 409.831 1015.92 409.062 1016.83 408.529C1017.73 407.996 1018.75 407.73 1019.89 407.73C1020.62 407.73 1021.3 407.832 1021.93 408.037C1022.55 408.241 1023.11 408.542 1023.6 408.938C1024.09 409.33 1024.49 409.812 1024.81 410.383C1025.13 410.95 1025.34 411.597 1025.44 412.326ZM1028.83 409.897V407.909H1039.28V409.897H1035.23V421H1032.88V409.897H1028.83Z" fill="black"/>
<rect x="36" y="163" width="10" height="10" rx="5" fill="white" stroke="#04B34A" stroke-width="4"/>
<defs>
<linearGradient id="paint0_linear_3326_3313" x1="554.999" y1="-14.5833" x2="527.469" y2="441.583" gradientUnits="userSpaceOnUse">
<stop stop-color="#04B34A"/>
<stop offset="0.0666667" stop-color="#04B34A" stop-opacity="0.991353"/>
<stop offset="0.133333" stop-color="#04B34A" stop-opacity="0.96449"/>
<stop offset="0.2" stop-color="#04B34A" stop-opacity="0.91834"/>
<stop offset="0.266667" stop-color="#04B34A" stop-opacity="0.852589"/>
<stop offset="0.333333" stop-color="#04B34A" stop-opacity="0.768225"/>
<stop offset="0.4" stop-color="#04B34A" stop-opacity="0.668116"/>
<stop offset="0.466667" stop-color="#04B34A" stop-opacity="0.557309"/>
<stop offset="0.533333" stop-color="#04B34A" stop-opacity="0.442691"/>
<stop offset="0.6" stop-color="#04B34A" stop-opacity="0.331884"/>
<stop offset="0.666667" stop-color="#04B34A" stop-opacity="0.231775"/>
<stop offset="0.733333" stop-color="#04B34A" stop-opacity="0.147411"/>
<stop offset="0.8" stop-color="#04B34A" stop-opacity="0.0816599"/>
<stop offset="0.866667" stop-color="#04B34A" stop-opacity="0.03551"/>
<stop offset="0.933333" stop-color="#04B34A" stop-opacity="0.01"/>
<stop offset="1" stop-color="#04B34A" stop-opacity="0"/>
</linearGradient>
</defs>
</svg>
