<svg width="1080" height="772" viewBox="0 0 1080 772" fill="none" xmlns="http://www.w3.org/2000/svg">
<rect width="1080" height="772" fill="white"/>
<path d="M915.587 49L912.911 64.8629H915.891L914.181 75H908.668L909.483 70.1698H895.329L894.514 75H889L890.71 64.8629H892.824C893.79 63.5513 894.707 61.8209 895.74 58.1838L898.364 49H915.59H915.587ZM908.584 54.3069H902.535L901.369 58.3918C900.354 61.9393 899.515 63.5484 898.667 64.8629H906.805L908.584 54.3069Z" fill="#EAECEF"/>
<path d="M920.448 49H933.56C938.18 49 940.257 51.3544 939.681 54.7547C939.314 56.93 937.677 58.3311 936.141 58.958C937.818 59.6138 939.146 61.2836 938.663 64.1464C938.05 67.7836 935.085 70.1698 930.167 70.1698H916.875L920.448 49ZM924.295 61.7024L923.67 65.4002H929.69C931.298 65.4002 932.293 64.8051 932.504 63.5513C932.721 62.2687 931.923 61.7024 930.312 61.7024H924.292H924.295ZM925.631 53.7724L925.099 56.9329H931.029C932.282 56.9329 933.161 56.4851 933.352 55.3527C933.543 54.2202 932.814 53.7724 931.561 53.7724H925.631Z" fill="#EAECEF"/>
<path d="M943.47 49H949.579L947.427 61.7602L958.906 49H965.015L961.445 70.1698H955.336L957.479 57.4673L946.01 70.1698H939.9L943.47 49Z" fill="#EAECEF"/>
<path d="M974.098 59.1978L966.907 49H973.821L979.812 57.6464L981.272 49H987.084L985.626 57.6464L994.536 49H1001.3L990.954 58.9291L998.177 70.1698H990.815L985.039 61.1362L983.514 70.1698H977.703L979.227 61.1362L970.402 70.1698H963.309L974.101 59.1978H974.098Z" fill="#EAECEF"/>
<path d="M1010.23 49H1003.13L1010.19 58.9291L999.713 70.1698H1006.81L1017.29 58.9291L1010.23 49ZM1021.44 49H1014.34L1021.41 58.9291L1010.93 70.1698H1018.02L1028.5 58.9291L1021.44 49ZM1032.94 49H1025.85L1032.91 58.9291L1022.43 70.1698H1029.52L1040 58.9291L1032.94 49Z" fill="#EAECEF"/>
<path d="M64.5327 48.8182V75H59.0611V53.3182H48.4759V75H43.0043V48.8182H64.5327ZM68.2606 82.3636V55.3636H73.63V58.6619H73.8729C74.1115 58.1335 74.4567 57.5966 74.9084 57.0511C75.3686 56.4972 75.9652 56.0369 76.6981 55.6705C77.4396 55.2955 78.3601 55.108 79.4595 55.108C80.8913 55.108 82.2123 55.483 83.4226 56.233C84.6328 56.9744 85.6001 58.0952 86.3246 59.5952C87.049 61.0866 87.4112 62.9574 87.4112 65.2074C87.4112 67.3977 87.0575 69.2472 86.3501 70.7557C85.6513 72.2557 84.6967 73.3935 83.4865 74.169C82.2848 74.9361 80.9382 75.3196 79.4467 75.3196C78.3899 75.3196 77.4908 75.1449 76.7493 74.7955C76.0163 74.446 75.4155 74.0071 74.9467 73.4787C74.478 72.9418 74.12 72.4006 73.8729 71.8551H73.7067V82.3636H68.2606ZM73.5916 65.1818C73.5916 66.3494 73.7535 67.3679 74.0774 68.2372C74.4013 69.1065 74.87 69.7841 75.4837 70.2699C76.0973 70.7472 76.843 70.9858 77.7209 70.9858C78.6072 70.9858 79.3572 70.7429 79.9709 70.2571C80.5845 69.7628 81.049 69.081 81.3643 68.2116C81.6882 67.3338 81.8501 66.3239 81.8501 65.1818C81.8501 64.0483 81.6925 63.0511 81.3771 62.1903C81.0618 61.3295 80.5973 60.6562 79.9837 60.1705C79.37 59.6847 78.6158 59.4418 77.7209 59.4418C76.8345 59.4418 76.0845 59.6761 75.4709 60.1449C74.8658 60.6136 74.4013 61.2784 74.0774 62.1392C73.7535 63 73.5916 64.0142 73.5916 65.1818ZM98.474 75.3835C96.4883 75.3835 94.7709 74.9616 93.3221 74.1179C91.8817 73.2656 90.7695 72.081 89.9854 70.5639C89.2013 69.0384 88.8093 67.2699 88.8093 65.2585C88.8093 63.2301 89.2013 61.4574 89.9854 59.9403C90.7695 58.4148 91.8817 57.2301 93.3221 56.3864C94.7709 55.5341 96.4883 55.108 98.474 55.108C100.46 55.108 102.173 55.5341 103.613 56.3864C105.062 57.2301 106.179 58.4148 106.963 59.9403C107.747 61.4574 108.139 63.2301 108.139 65.2585C108.139 67.2699 107.747 69.0384 106.963 70.5639C106.179 72.081 105.062 73.2656 103.613 74.1179C102.173 74.9616 100.46 75.3835 98.474 75.3835ZM98.4996 71.1648C99.403 71.1648 100.157 70.9091 100.762 70.3977C101.368 69.8778 101.823 69.1705 102.13 68.2756C102.446 67.3807 102.603 66.3622 102.603 65.2202C102.603 64.0781 102.446 63.0597 102.13 62.1648C101.823 61.2699 101.368 60.5625 100.762 60.0426C100.157 59.5227 99.403 59.2628 98.4996 59.2628C97.5877 59.2628 96.8206 59.5227 96.1985 60.0426C95.5848 60.5625 95.1204 61.2699 94.805 62.1648C94.4982 63.0597 94.3448 64.0781 94.3448 65.2202C94.3448 66.3622 94.4982 67.3807 94.805 68.2756C95.1204 69.1705 95.5848 69.8778 96.1985 70.3977C96.8206 70.9091 97.5877 71.1648 98.4996 71.1648ZM127.409 55.3636V71.2415H130.541V81.3153H125.249V75H110.24V55.3636H115.443V70.7173H122.27V55.3636H127.409ZM141.198 75.3835C139.178 75.3835 137.44 74.9744 135.982 74.1562C134.533 73.3295 133.417 72.1619 132.633 70.6534C131.849 69.1364 131.457 67.3423 131.457 65.2713C131.457 63.2514 131.849 61.4787 132.633 59.9531C133.417 58.4276 134.521 57.2386 135.944 56.3864C137.376 55.5341 139.055 55.108 140.981 55.108C142.276 55.108 143.482 55.3168 144.599 55.7344C145.724 56.1435 146.704 56.7614 147.539 57.5881C148.383 58.4148 149.039 59.4545 149.508 60.7074C149.977 61.9517 150.211 63.4091 150.211 65.0795V66.5753H133.63V63.2003H145.084C145.084 62.4162 144.914 61.7216 144.573 61.1165C144.232 60.5114 143.759 60.0384 143.154 59.6974C142.557 59.348 141.863 59.1733 141.07 59.1733C140.244 59.1733 139.511 59.3651 138.871 59.7486C138.241 60.1236 137.746 60.6307 137.388 61.2699C137.03 61.9006 136.847 62.6037 136.839 63.3793V66.5881C136.839 67.5597 137.018 68.3991 137.376 69.1065C137.742 69.8139 138.258 70.3594 138.923 70.7429C139.587 71.1264 140.376 71.3182 141.288 71.3182C141.893 71.3182 142.447 71.233 142.95 71.0625C143.452 70.892 143.883 70.6364 144.241 70.2955C144.599 69.9545 144.871 69.5369 145.059 69.0426L150.096 69.375C149.84 70.5852 149.316 71.642 148.523 72.5455C147.739 73.4403 146.725 74.1392 145.481 74.642C144.245 75.1364 142.817 75.3835 141.198 75.3835ZM165.991 63.0085V67.2912H155.738V63.0085H165.991ZM157.528 55.3636V75H152.325V55.3636H157.528ZM169.404 55.3636V75H164.24V55.3636H169.404ZM170.218 59.6463V55.3636H188.013V59.6463H181.685V75H176.495V59.6463H170.218ZM205.639 75.3835C203.653 75.3835 201.936 74.9616 200.487 74.1179C199.046 73.2656 197.934 72.081 197.15 70.5639C196.366 69.0384 195.974 67.2699 195.974 65.2585C195.974 63.2301 196.366 61.4574 197.15 59.9403C197.934 58.4148 199.046 57.2301 200.487 56.3864C201.936 55.5341 203.653 55.108 205.639 55.108C207.625 55.108 209.338 55.5341 210.778 56.3864C212.227 57.2301 213.343 58.4148 214.127 59.9403C214.911 61.4574 215.304 63.2301 215.304 65.2585C215.304 67.2699 214.911 69.0384 214.127 70.5639C213.343 72.081 212.227 73.2656 210.778 74.1179C209.338 74.9616 207.625 75.3835 205.639 75.3835ZM205.664 71.1648C206.568 71.1648 207.322 70.9091 207.927 70.3977C208.532 69.8778 208.988 69.1705 209.295 68.2756C209.61 67.3807 209.768 66.3622 209.768 65.2202C209.768 64.0781 209.61 63.0597 209.295 62.1648C208.988 61.2699 208.532 60.5625 207.927 60.0426C207.322 59.5227 206.568 59.2628 205.664 59.2628C204.752 59.2628 203.985 59.5227 203.363 60.0426C202.75 60.5625 202.285 61.2699 201.97 62.1648C201.663 63.0597 201.509 64.0781 201.509 65.2202C201.509 66.3622 201.663 67.3807 201.97 68.2756C202.285 69.1705 202.75 69.8778 203.363 70.3977C203.985 70.9091 204.752 71.1648 205.664 71.1648ZM215.871 80.7528V70.679H217.379C217.814 70.4062 218.163 69.9716 218.427 69.375C218.7 68.7784 218.922 68.0753 219.092 67.2656C219.271 66.456 219.408 65.5824 219.501 64.6449C219.604 63.6989 219.693 62.7443 219.77 61.7812L220.281 55.3636H235.341V70.679H238.383V80.7528H233.193V75H221.189V80.7528H215.871ZM222.8 70.679H230.202V59.5568H224.909L224.704 61.7812C224.56 63.8778 224.351 65.6591 224.078 67.125C223.805 68.5824 223.379 69.767 222.8 70.679ZM248.989 75.3835C247.003 75.3835 245.286 74.9616 243.837 74.1179C242.397 73.2656 241.285 72.081 240.501 70.5639C239.716 69.0384 239.324 67.2699 239.324 65.2585C239.324 63.2301 239.716 61.4574 240.501 59.9403C241.285 58.4148 242.397 57.2301 243.837 56.3864C245.286 55.5341 247.003 55.108 248.989 55.108C250.975 55.108 252.688 55.5341 254.128 56.3864C255.577 57.2301 256.694 58.4148 257.478 59.9403C258.262 61.4574 258.654 63.2301 258.654 65.2585C258.654 67.2699 258.262 69.0384 257.478 70.5639C256.694 72.081 255.577 73.2656 254.128 74.1179C252.688 74.9616 250.975 75.3835 248.989 75.3835ZM249.015 71.1648C249.918 71.1648 250.672 70.9091 251.278 70.3977C251.883 69.8778 252.339 69.1705 252.645 68.2756C252.961 67.3807 253.118 66.3622 253.118 65.2202C253.118 64.0781 252.961 63.0597 252.645 62.1648C252.339 61.2699 251.883 60.5625 251.278 60.0426C250.672 59.5227 249.918 59.2628 249.015 59.2628C248.103 59.2628 247.336 59.5227 246.714 60.0426C246.1 60.5625 245.636 61.2699 245.32 62.1648C245.013 63.0597 244.86 64.0781 244.86 65.2202C244.86 66.3622 245.013 67.3807 245.32 68.2756C245.636 69.1705 246.1 69.8778 246.714 70.3977C247.336 70.9091 248.103 71.1648 249.015 71.1648ZM277.08 48.1534L278.742 51.7074C278.188 52.1676 277.575 52.5085 276.901 52.7301C276.228 52.9432 275.423 53.0838 274.485 53.152C273.556 53.2202 272.423 53.267 271.085 53.2926C269.568 53.3097 268.332 53.5526 267.377 54.0213C266.423 54.4901 265.698 55.2273 265.204 56.233C264.71 57.2301 264.386 58.5341 264.232 60.1449H264.424C265.012 58.9432 265.839 58.0142 266.904 57.358C267.978 56.7017 269.303 56.3736 270.88 56.3736C272.551 56.3736 274.012 56.7401 275.265 57.473C276.526 58.206 277.507 59.2585 278.205 60.6307C278.904 62.0028 279.254 63.6477 279.254 65.5653C279.254 67.5597 278.862 69.294 278.078 70.7685C277.302 72.2344 276.198 73.3722 274.767 74.1818C273.335 74.983 271.63 75.3835 269.653 75.3835C267.667 75.3835 265.954 74.9659 264.514 74.1307C263.082 73.2955 261.974 72.0639 261.19 70.4361C260.414 68.8082 260.026 66.8054 260.026 64.4276V62.8168C260.026 58.0866 260.947 54.5795 262.788 52.2955C264.629 50.0114 267.335 48.8523 270.906 48.8182C271.877 48.8011 272.755 48.7969 273.539 48.8054C274.323 48.8139 275.009 48.7756 275.598 48.6903C276.194 48.6051 276.688 48.4261 277.08 48.1534ZM269.678 71.1648C270.514 71.1648 271.23 70.9474 271.826 70.5128C272.431 70.0781 272.896 69.456 273.22 68.6463C273.552 67.8366 273.718 66.8693 273.718 65.7443C273.718 64.6278 273.552 63.6818 273.22 62.9062C272.896 62.1222 272.431 61.5256 271.826 61.1165C271.221 60.7074 270.497 60.5028 269.653 60.5028C269.022 60.5028 268.455 60.6179 267.953 60.848C267.45 61.0781 267.019 61.419 266.661 61.8707C266.312 62.3139 266.039 62.8636 265.843 63.5199C265.656 64.1676 265.562 64.9091 265.562 65.7443C265.562 67.4233 265.924 68.7486 266.649 69.7202C267.382 70.6832 268.392 71.1648 269.678 71.1648ZM281.428 82.3636V55.3636H286.798V58.6619H287.041C287.279 58.1335 287.624 57.5966 288.076 57.0511C288.536 56.4972 289.133 56.0369 289.866 55.6705C290.607 55.2955 291.528 55.108 292.627 55.108C294.059 55.108 295.38 55.483 296.59 56.233C297.801 56.9744 298.768 58.0952 299.492 59.5952C300.217 61.0866 300.579 62.9574 300.579 65.2074C300.579 67.3977 300.225 69.2472 299.518 70.7557C298.819 72.2557 297.865 73.3935 296.654 74.169C295.453 74.9361 294.106 75.3196 292.615 75.3196C291.558 75.3196 290.659 75.1449 289.917 74.7955C289.184 74.446 288.583 74.0071 288.115 73.4787C287.646 72.9418 287.288 72.4006 287.041 71.8551H286.874V82.3636H281.428ZM286.759 65.1818C286.759 66.3494 286.921 67.3679 287.245 68.2372C287.569 69.1065 288.038 69.7841 288.651 70.2699C289.265 70.7472 290.011 70.9858 290.889 70.9858C291.775 70.9858 292.525 70.7429 293.139 70.2571C293.752 69.7628 294.217 69.081 294.532 68.2116C294.856 67.3338 295.018 66.3239 295.018 65.1818C295.018 64.0483 294.86 63.0511 294.545 62.1903C294.23 61.3295 293.765 60.6562 293.151 60.1705C292.538 59.6847 291.784 59.4418 290.889 59.4418C290.002 59.4418 289.252 59.6761 288.639 60.1449C288.034 60.6136 287.569 61.2784 287.245 62.1392C286.921 63 286.759 64.0142 286.759 65.1818ZM311.719 75.3835C309.699 75.3835 307.96 74.9744 306.503 74.1562C305.054 73.3295 303.937 72.1619 303.153 70.6534C302.369 69.1364 301.977 67.3423 301.977 65.2713C301.977 63.2514 302.369 61.4787 303.153 59.9531C303.937 58.4276 305.041 57.2386 306.464 56.3864C307.896 55.5341 309.575 55.108 311.501 55.108C312.797 55.108 314.003 55.3168 315.119 55.7344C316.244 56.1435 317.224 56.7614 318.059 57.5881C318.903 58.4148 319.559 59.4545 320.028 60.7074C320.497 61.9517 320.731 63.4091 320.731 65.0795V66.5753H304.15V63.2003H315.605C315.605 62.4162 315.434 61.7216 315.094 61.1165C314.753 60.5114 314.28 60.0384 313.675 59.6974C313.078 59.348 312.383 59.1733 311.591 59.1733C310.764 59.1733 310.031 59.3651 309.392 59.7486C308.761 60.1236 308.267 60.6307 307.909 61.2699C307.551 61.9006 307.368 62.6037 307.359 63.3793V66.5881C307.359 67.5597 307.538 68.3991 307.896 69.1065C308.263 69.8139 308.778 70.3594 309.443 70.7429C310.108 71.1264 310.896 71.3182 311.808 71.3182C312.413 71.3182 312.967 71.233 313.47 71.0625C313.973 70.892 314.403 70.6364 314.761 70.2955C315.119 69.9545 315.392 69.5369 315.579 69.0426L320.616 69.375C320.361 70.5852 319.836 71.642 319.044 72.5455C318.26 73.4403 317.246 74.1392 316.001 74.642C314.765 75.1364 313.338 75.3835 311.719 75.3835ZM336.512 63.0085V67.2912H326.259V63.0085H336.512ZM328.048 55.3636V75H322.845V55.3636H328.048ZM339.925 55.3636V75H334.76V55.3636H339.925ZM347.913 67.8153L354.983 55.3636H360.352V75H355.162V62.5099L348.118 75H342.71V55.3636H347.913V67.8153ZM374.784 75V59.6335H371.102C370.105 59.6335 369.346 59.8636 368.826 60.3239C368.306 60.7841 368.051 61.3295 368.059 61.9602C368.051 62.5994 368.298 63.1406 368.801 63.5838C369.312 64.0185 370.062 64.2358 371.051 64.2358H376.599V67.9176H371.051C369.372 67.9176 367.918 67.6619 366.691 67.1506C365.464 66.6392 364.518 65.9276 363.853 65.0156C363.188 64.0952 362.86 63.0256 362.869 61.8068C362.86 60.5284 363.188 59.4077 363.853 58.4446C364.518 57.473 365.468 56.7187 366.704 56.1818C367.948 55.6364 369.414 55.3636 371.102 55.3636H379.859V75H374.784ZM362.306 75L367.765 64.7727H372.968L367.522 75H362.306ZM389.542 75V55.3636H406.711V75H401.508V59.6463H394.682V75H389.542ZM418.49 75.3835C416.504 75.3835 414.787 74.9616 413.338 74.1179C411.898 73.2656 410.786 72.081 410.001 70.5639C409.217 69.0384 408.825 67.2699 408.825 65.2585C408.825 63.2301 409.217 61.4574 410.001 59.9403C410.786 58.4148 411.898 57.2301 413.338 56.3864C414.787 55.5341 416.504 55.108 418.49 55.108C420.476 55.108 422.189 55.5341 423.629 56.3864C425.078 57.2301 426.195 58.4148 426.979 59.9403C427.763 61.4574 428.155 63.2301 428.155 65.2585C428.155 67.2699 427.763 69.0384 426.979 70.5639C426.195 72.081 425.078 73.2656 423.629 74.1179C422.189 74.9616 420.476 75.3835 418.49 75.3835ZM418.516 71.1648C419.419 71.1648 420.173 70.9091 420.778 70.3977C421.384 69.8778 421.84 69.1705 422.146 68.2756C422.462 67.3807 422.619 66.3622 422.619 65.2202C422.619 64.0781 422.462 63.0597 422.146 62.1648C421.84 61.2699 421.384 60.5625 420.778 60.0426C420.173 59.5227 419.419 59.2628 418.516 59.2628C417.604 59.2628 416.837 59.5227 416.215 60.0426C415.601 60.5625 415.136 61.2699 414.821 62.1648C414.514 63.0597 414.361 64.0781 414.361 65.2202C414.361 66.3622 414.514 67.3807 414.821 68.2756C415.136 69.1705 415.601 69.8778 416.215 70.3977C416.837 70.9091 417.604 71.1648 418.516 71.1648ZM437.148 82.3636V55.3636H442.517V58.6619H442.76C442.999 58.1335 443.344 57.5966 443.796 57.0511C444.256 56.4972 444.853 56.0369 445.586 55.6705C446.327 55.2955 447.248 55.108 448.347 55.108C449.779 55.108 451.1 55.483 452.31 56.233C453.52 56.9744 454.488 58.0952 455.212 59.5952C455.937 61.0866 456.299 62.9574 456.299 65.2074C456.299 67.3977 455.945 69.2472 455.238 70.7557C454.539 72.2557 453.584 73.3935 452.374 74.169C451.172 74.9361 449.826 75.3196 448.334 75.3196C447.277 75.3196 446.378 75.1449 445.637 74.7955C444.904 74.446 444.303 74.0071 443.834 73.4787C443.365 72.9418 443.008 72.4006 442.76 71.8551H442.594V82.3636H437.148ZM442.479 65.1818C442.479 66.3494 442.641 67.3679 442.965 68.2372C443.289 69.1065 443.758 69.7841 444.371 70.2699C444.985 70.7472 445.731 70.9858 446.608 70.9858C447.495 70.9858 448.245 70.7429 448.858 70.2571C449.472 69.7628 449.937 69.081 450.252 68.2116C450.576 67.3338 450.738 66.3239 450.738 65.1818C450.738 64.0483 450.58 63.0511 450.265 62.1903C449.949 61.3295 449.485 60.6562 448.871 60.1705C448.258 59.6847 447.503 59.4418 446.608 59.4418C445.722 59.4418 444.972 59.6761 444.358 60.1449C443.753 60.6136 443.289 61.2784 442.965 62.1392C442.641 63 442.479 64.0142 442.479 65.1818ZM467.438 75.3835C465.418 75.3835 463.68 74.9744 462.222 74.1562C460.773 73.3295 459.657 72.1619 458.873 70.6534C458.089 69.1364 457.697 67.3423 457.697 65.2713C457.697 63.2514 458.089 61.4787 458.873 59.9531C459.657 58.4276 460.761 57.2386 462.184 56.3864C463.616 55.5341 465.295 55.108 467.221 55.108C468.516 55.108 469.722 55.3168 470.839 55.7344C471.964 56.1435 472.944 56.7614 473.779 57.5881C474.623 58.4148 475.279 59.4545 475.748 60.7074C476.217 61.9517 476.451 63.4091 476.451 65.0795V66.5753H459.87V63.2003H471.325C471.325 62.4162 471.154 61.7216 470.813 61.1165C470.472 60.5114 469.999 60.0384 469.394 59.6974C468.798 59.348 468.103 59.1733 467.31 59.1733C466.484 59.1733 465.751 59.3651 465.112 59.7486C464.481 60.1236 463.987 60.6307 463.629 61.2699C463.271 61.9006 463.087 62.6037 463.079 63.3793V66.5881C463.079 67.5597 463.258 68.3991 463.616 69.1065C463.982 69.8139 464.498 70.3594 465.163 70.7429C465.827 71.1264 466.616 71.3182 467.528 71.3182C468.133 71.3182 468.687 71.233 469.19 71.0625C469.693 70.892 470.123 70.6364 470.481 70.2955C470.839 69.9545 471.112 69.5369 471.299 69.0426L476.336 69.375C476.08 70.5852 475.556 71.642 474.764 72.5455C473.979 73.4403 472.965 74.1392 471.721 74.642C470.485 75.1364 469.058 75.3835 467.438 75.3835ZM492.014 55.3636V59.6463H483.858V75H478.565V55.3636H492.014ZM499.098 67.8153L506.167 55.3636H511.537V75H506.346V62.5099L499.302 75H493.895V55.3636H499.098V67.8153ZM523.335 75.3835C521.349 75.3835 519.631 74.9616 518.183 74.1179C516.742 73.2656 515.63 72.081 514.846 70.5639C514.062 69.0384 513.67 67.2699 513.67 65.2585C513.67 63.2301 514.062 61.4574 514.846 59.9403C515.63 58.4148 516.742 57.2301 518.183 56.3864C519.631 55.5341 521.349 55.108 523.335 55.108C525.32 55.108 527.033 55.5341 528.474 56.3864C529.923 57.2301 531.039 58.4148 531.823 59.9403C532.607 61.4574 532.999 63.2301 532.999 65.2585C532.999 67.2699 532.607 69.0384 531.823 70.5639C531.039 72.081 529.923 73.2656 528.474 74.1179C527.033 74.9616 525.32 75.3835 523.335 75.3835ZM523.36 71.1648C524.263 71.1648 525.018 70.9091 525.623 70.3977C526.228 69.8778 526.684 69.1705 526.991 68.2756C527.306 67.3807 527.464 66.3622 527.464 65.2202C527.464 64.0781 527.306 63.0597 526.991 62.1648C526.684 61.2699 526.228 60.5625 525.623 60.0426C525.018 59.5227 524.263 59.2628 523.36 59.2628C522.448 59.2628 521.681 59.5227 521.059 60.0426C520.445 60.5625 519.981 61.2699 519.665 62.1648C519.359 63.0597 519.205 64.0781 519.205 65.2202C519.205 66.3622 519.359 67.3807 519.665 68.2756C519.981 69.1705 520.445 69.8778 521.059 70.3977C521.681 70.9091 522.448 71.1648 523.36 71.1648ZM548.767 63.0085V67.2912H538.514V63.0085H548.767ZM540.304 55.3636V75H535.1V55.3636H540.304ZM552.18 55.3636V75H547.015V55.3636H552.18ZM560.565 75.3707C559.312 75.3707 558.195 75.1534 557.215 74.7188C556.235 74.2756 555.459 73.6236 554.888 72.7628C554.326 71.8935 554.045 70.8111 554.045 69.5156C554.045 68.4247 554.245 67.5085 554.646 66.767C555.046 66.0256 555.592 65.429 556.282 64.9773C556.972 64.5256 557.756 64.1847 558.634 63.9545C559.521 63.7244 560.45 63.5625 561.421 63.4688C562.563 63.3494 563.484 63.2386 564.182 63.1364C564.881 63.0256 565.388 62.8636 565.704 62.6506C566.019 62.4375 566.177 62.1222 566.177 61.7045V61.6278C566.177 60.8182 565.921 60.1918 565.41 59.7486C564.907 59.3054 564.191 59.0838 563.262 59.0838C562.282 59.0838 561.502 59.3011 560.923 59.7358C560.343 60.1619 559.959 60.6989 559.772 61.3466L554.735 60.9375C554.991 59.7443 555.494 58.7131 556.244 57.8438C556.994 56.9659 557.961 56.2926 559.146 55.8239C560.339 55.3466 561.719 55.108 563.288 55.108C564.379 55.108 565.423 55.2358 566.42 55.4915C567.425 55.7472 568.316 56.1435 569.092 56.6804C569.876 57.2173 570.494 57.9077 570.945 58.7514C571.397 59.5866 571.623 60.5881 571.623 61.7557V75H566.458V72.277H566.305C565.989 72.8906 565.567 73.4318 565.039 73.9006C564.511 74.3608 563.876 74.723 563.134 74.9872C562.393 75.2429 561.536 75.3707 560.565 75.3707ZM562.124 71.6122C562.925 71.6122 563.633 71.4545 564.246 71.1392C564.86 70.8153 565.342 70.3807 565.691 69.8352C566.04 69.2898 566.215 68.6719 566.215 67.9815V65.8977C566.045 66.0085 565.81 66.1108 565.512 66.2045C565.222 66.2898 564.894 66.3707 564.528 66.4474C564.161 66.5156 563.795 66.5795 563.428 66.6392C563.062 66.6903 562.729 66.7372 562.431 66.7798C561.792 66.8736 561.234 67.0227 560.756 67.2273C560.279 67.4318 559.908 67.7088 559.644 68.0582C559.38 68.3991 559.248 68.8253 559.248 69.3366C559.248 70.0781 559.516 70.6449 560.053 71.0369C560.599 71.4205 561.289 71.6122 562.124 71.6122ZM586.016 68.9787L591.334 55.3636H595.476L587.818 75H584.201L576.722 55.3636H580.851L586.016 68.9787ZM579.611 55.3636V75H574.408V55.3636H579.611ZM592.689 75V55.3636H597.828V75H592.689Z" fill="black"/>
<rect x="40" y="437" width="1000" height="295" rx="20" fill="#F7F7F7"/>
<path opacity="0.6" d="M56.2912 469V455.909H61.2003C62.206 455.909 63.0497 456.097 63.7315 456.472C64.4176 456.847 64.9354 457.362 65.2848 458.018C65.6385 458.67 65.8153 459.412 65.8153 460.243C65.8153 461.082 65.6385 461.828 65.2848 462.48C64.9311 463.132 64.4091 463.646 63.7188 464.021C63.0284 464.391 62.1783 464.577 61.1683 464.577H57.9148V462.627H60.8487C61.4368 462.627 61.9183 462.525 62.2933 462.32C62.6683 462.116 62.9453 461.835 63.1243 461.477C63.3075 461.119 63.3991 460.707 63.3991 460.243C63.3991 459.778 63.3075 459.369 63.1243 459.016C62.9453 458.662 62.6662 458.387 62.2869 458.191C61.9119 457.991 61.4283 457.891 60.8359 457.891H58.6626V469H56.2912ZM69.6752 469V455.909H78.1894V457.897H72.0466V461.451H77.7483V463.439H72.0466V467.012H78.2405V469H69.6752ZM90.8271 455.909V457.897H84.7802V469H82.4088V455.909H90.8271ZM94.6326 455.909H96.9849V464.832H97.1063L103.262 455.909H105.39V469H103.019V460.083H102.91L96.7356 469H94.6326V455.909ZM121.472 462.455C121.472 463.865 121.208 465.073 120.679 466.079C120.155 467.08 119.439 467.847 118.531 468.38C117.628 468.913 116.603 469.179 115.457 469.179C114.311 469.179 113.284 468.913 112.376 468.38C111.473 467.843 110.757 467.074 110.228 466.072C109.704 465.067 109.442 463.861 109.442 462.455C109.442 461.044 109.704 459.838 110.228 458.837C110.757 457.831 111.473 457.062 112.376 456.529C113.284 455.996 114.311 455.73 115.457 455.73C116.603 455.73 117.628 455.996 118.531 456.529C119.439 457.062 120.155 457.831 120.679 458.837C121.208 459.838 121.472 461.044 121.472 462.455ZM119.088 462.455C119.088 461.462 118.932 460.624 118.621 459.942C118.314 459.256 117.888 458.739 117.343 458.389C116.797 458.036 116.169 457.859 115.457 457.859C114.745 457.859 114.117 458.036 113.571 458.389C113.026 458.739 112.598 459.256 112.286 459.942C111.98 460.624 111.826 461.462 111.826 462.455C111.826 463.447 111.98 464.287 112.286 464.973C112.598 465.655 113.026 466.173 113.571 466.526C114.117 466.876 114.745 467.05 115.457 467.05C116.169 467.05 116.797 466.876 117.343 466.526C117.888 466.173 118.314 465.655 118.621 464.973C118.932 464.287 119.088 463.447 119.088 462.455ZM125.514 469V455.909H127.885V461.451H133.951V455.909H136.329V469H133.951V463.439H127.885V469H125.514ZM142.313 460.965H145.637C146.638 460.965 147.497 461.129 148.213 461.457C148.933 461.781 149.485 462.239 149.868 462.832C150.252 463.424 150.443 464.121 150.443 464.922C150.443 465.727 150.252 466.437 149.868 467.05C149.485 467.66 148.933 468.137 148.213 468.482C147.497 468.827 146.638 469 145.637 469H140.734V455.909H143.112V467.057H145.637C146.165 467.057 146.613 466.957 146.979 466.756C147.345 466.556 147.622 466.292 147.81 465.964C148.002 465.636 148.098 465.28 148.098 464.896C148.098 464.342 147.885 463.871 147.458 463.484C147.037 463.092 146.429 462.896 145.637 462.896H142.313V460.965ZM153.953 455.909V469H151.575V455.909H153.953Z" fill="black"/>
<path opacity="0.4" d="M1019.96 685.5H55V556L542.782 616.5C542.782 616.5 1014.35 612.106 1019.96 612.002V612C1020.03 612 1020.03 612.001 1019.96 612.002V685.5Z" fill="url(#paint0_linear_3326_3149)"/>
<rect x="1015.19" y="606" width="10.2717" height="10.2717" rx="5.13587" fill="#CACACA"/>
<path d="M1018.5 612L546.089 616L55 555.5" stroke="#CACACA" stroke-width="4"/>
<path d="M885.074 670.445V694.803L875.989 685.684L872 689.638L887.955 705.559L903.875 689.638L899.955 685.684L890.835 694.803V670.445H885.074Z" fill="#CACACA"/>
<path d="M931.65 670.091V705H924.269V677.097H924.065L916.07 682.108V675.562L924.712 670.091H931.65ZM945.54 700.227L945.352 702.102C945.205 703.602 944.92 705.097 944.5 706.585C944.091 708.085 943.659 709.443 943.205 710.659C942.761 711.875 942.403 712.83 942.131 713.523H937.426C937.597 712.852 937.83 711.915 938.125 710.71C938.42 709.517 938.699 708.176 938.96 706.688C939.222 705.199 939.386 703.682 939.455 702.136L939.54 700.227H945.54ZM963.235 705.477C960.61 705.477 958.275 705.051 956.229 704.199C954.195 703.335 952.599 702.159 951.44 700.67C950.281 699.182 949.701 697.494 949.701 695.608C949.701 694.153 950.031 692.818 950.69 691.602C951.36 690.375 952.269 689.358 953.417 688.551C954.565 687.733 955.849 687.21 957.269 686.983V686.744C955.406 686.369 953.894 685.466 952.735 684.034C951.576 682.591 950.996 680.915 950.996 679.006C950.996 677.199 951.525 675.591 952.582 674.182C953.638 672.761 955.087 671.648 956.928 670.841C958.781 670.023 960.883 669.614 963.235 669.614C965.587 669.614 967.684 670.023 969.525 670.841C971.377 671.659 972.832 672.778 973.888 674.199C974.945 675.608 975.479 677.21 975.491 679.006C975.479 680.926 974.888 682.602 973.718 684.034C972.548 685.466 971.048 686.369 969.218 686.744V686.983C970.616 687.21 971.883 687.733 973.019 688.551C974.167 689.358 975.076 690.375 975.746 691.602C976.428 692.818 976.775 694.153 976.786 695.608C976.775 697.494 976.19 699.182 975.031 700.67C973.871 702.159 972.269 703.335 970.224 704.199C968.19 705.051 965.86 705.477 963.235 705.477ZM963.235 700.057C964.406 700.057 965.428 699.847 966.303 699.426C967.178 698.994 967.86 698.403 968.349 697.653C968.849 696.892 969.099 696.017 969.099 695.028C969.099 694.017 968.843 693.125 968.332 692.352C967.82 691.568 967.127 690.955 966.252 690.511C965.377 690.057 964.371 689.83 963.235 689.83C962.11 689.83 961.104 690.057 960.218 690.511C959.332 690.955 958.633 691.568 958.121 692.352C957.621 693.125 957.371 694.017 957.371 695.028C957.371 696.017 957.616 696.892 958.104 697.653C958.593 698.403 959.281 698.994 960.167 699.426C961.053 699.847 962.076 700.057 963.235 700.057ZM963.235 684.46C964.212 684.46 965.082 684.261 965.843 683.864C966.604 683.466 967.201 682.915 967.633 682.21C968.065 681.506 968.281 680.693 968.281 679.773C968.281 678.864 968.065 678.068 967.633 677.386C967.201 676.693 966.61 676.153 965.86 675.767C965.11 675.369 964.235 675.17 963.235 675.17C962.246 675.17 961.371 675.369 960.61 675.767C959.849 676.153 959.252 676.693 958.82 677.386C958.4 678.068 958.19 678.864 958.19 679.773C958.19 680.693 958.406 681.506 958.837 682.21C959.269 682.915 959.866 683.466 960.627 683.864C961.388 684.261 962.258 684.46 963.235 684.46ZM1000.56 698.455V696.614C1000.56 695.216 1000.86 693.932 1001.45 692.761C1002.05 691.58 1002.92 690.636 1004.06 689.932C1005.2 689.216 1006.6 688.858 1008.25 688.858C1009.92 688.858 1011.32 689.21 1012.46 689.915C1013.61 690.619 1014.47 691.562 1015.05 692.744C1015.64 693.915 1015.94 695.205 1015.94 696.614V698.455C1015.94 699.852 1015.64 701.142 1015.05 702.324C1014.46 703.494 1013.59 704.432 1012.44 705.136C1011.3 705.852 1009.9 706.21 1008.25 706.21C1006.58 706.21 1005.18 705.852 1004.04 705.136C1002.9 704.432 1002.04 703.494 1001.45 702.324C1000.86 701.142 1000.56 699.852 1000.56 698.455ZM1005.52 696.614V698.455C1005.52 699.261 1005.72 700.023 1006.1 700.739C1006.5 701.455 1007.22 701.812 1008.25 701.812C1009.28 701.812 1009.99 701.46 1010.36 700.756C1010.75 700.051 1010.94 699.284 1010.94 698.455V696.614C1010.94 695.784 1010.76 695.011 1010.4 694.295C1010.03 693.58 1009.32 693.222 1008.25 693.222C1007.23 693.222 1006.52 693.58 1006.12 694.295C1005.72 695.011 1005.52 695.784 1005.52 696.614ZM982.648 678.477V676.636C982.648 675.227 982.949 673.937 983.551 672.767C984.153 671.585 985.023 670.642 986.159 669.938C987.307 669.233 988.693 668.881 990.318 668.881C992 668.881 993.409 669.233 994.545 669.938C995.682 670.642 996.545 671.585 997.136 672.767C997.727 673.937 998.023 675.227 998.023 676.636V678.477C998.023 679.886 997.722 681.176 997.119 682.347C996.528 683.517 995.659 684.455 994.511 685.159C993.375 685.852 991.977 686.199 990.318 686.199C988.659 686.199 987.256 685.847 986.108 685.142C984.972 684.426 984.108 683.489 983.517 682.33C982.938 681.159 982.648 679.875 982.648 678.477ZM987.642 676.636V678.477C987.642 679.307 987.835 680.074 988.222 680.778C988.619 681.483 989.318 681.835 990.318 681.835C991.364 681.835 992.074 681.483 992.449 680.778C992.835 680.074 993.028 679.307 993.028 678.477V676.636C993.028 675.807 992.847 675.034 992.483 674.318C992.119 673.602 991.398 673.244 990.318 673.244C989.307 673.244 988.608 673.608 988.222 674.335C987.835 675.062 987.642 675.83 987.642 676.636ZM984.898 705L1008.9 670.091H1013.36L989.364 705H984.898Z" fill="black"/>
<path d="M61.8203 542.219C60.8411 542.219 59.9609 542.031 59.1797 541.656C58.4036 541.276 57.7839 540.755 57.3203 540.094C56.8568 539.432 56.6094 538.677 56.5781 537.828H58.9219C58.9792 538.516 59.2839 539.081 59.8359 539.523C60.388 539.966 61.0495 540.187 61.8203 540.187C62.4349 540.187 62.9792 540.047 63.4531 539.766C63.9323 539.479 64.3073 539.086 64.5781 538.586C64.8542 538.086 64.9922 537.516 64.9922 536.875C64.9922 536.224 64.8516 535.643 64.5703 535.133C64.2891 534.622 63.901 534.221 63.4063 533.93C62.9167 533.638 62.3542 533.49 61.7188 533.484C61.2344 533.484 60.7474 533.568 60.2578 533.734C59.7682 533.901 59.3724 534.12 59.0703 534.391L56.8594 534.062L57.7578 526H66.5547V528.07H59.7656L59.2578 532.547H59.3516C59.6641 532.245 60.0781 531.992 60.5938 531.789C61.1146 531.586 61.6719 531.484 62.2656 531.484C63.2396 531.484 64.1068 531.716 64.8672 532.18C65.6328 532.643 66.2344 533.276 66.6719 534.078C67.1146 534.875 67.3333 535.792 67.3281 536.828C67.3333 537.865 67.099 538.789 66.625 539.602C66.1563 540.414 65.5052 541.055 64.6719 541.523C63.8438 541.987 62.8932 542.219 61.8203 542.219ZM70.4981 542L77.4825 528.187V528.07H69.4044V526H79.9825V528.141L73.0216 542H70.4981Z" fill="#CFCFCF"/>
<path d="M981.953 596.219C980.974 596.219 980.093 596.031 979.312 595.656C978.536 595.276 977.916 594.755 977.453 594.094C976.989 593.432 976.742 592.677 976.711 591.828H979.054C979.112 592.516 979.416 593.081 979.968 593.523C980.521 593.966 981.182 594.187 981.953 594.187C982.567 594.187 983.112 594.047 983.586 593.766C984.065 593.479 984.44 593.086 984.711 592.586C984.987 592.086 985.125 591.516 985.125 590.875C985.125 590.224 984.984 589.643 984.703 589.133C984.422 588.622 984.034 588.221 983.539 587.93C983.049 587.638 982.487 587.49 981.851 587.484C981.367 587.484 980.88 587.568 980.39 587.734C979.901 587.901 979.505 588.12 979.203 588.391L976.992 588.062L977.89 580H986.687V582.07H979.898L979.39 586.547H979.484C979.797 586.245 980.211 585.992 980.726 585.789C981.247 585.586 981.804 585.484 982.398 585.484C983.372 585.484 984.239 585.716 985 586.18C985.765 586.643 986.367 587.276 986.804 588.078C987.247 588.875 987.466 589.792 987.461 590.828C987.466 591.865 987.231 592.789 986.758 593.602C986.289 594.414 985.638 595.055 984.804 595.523C983.976 595.987 983.026 596.219 981.953 596.219ZM995.373 596.219C994.394 596.219 993.513 596.031 992.732 595.656C991.956 595.276 991.336 594.755 990.873 594.094C990.409 593.432 990.162 592.677 990.131 591.828H992.474C992.532 592.516 992.836 593.081 993.388 593.523C993.941 593.966 994.602 594.187 995.373 594.187C995.987 594.187 996.532 594.047 997.006 593.766C997.485 593.479 997.86 593.086 998.131 592.586C998.407 592.086 998.545 591.516 998.545 590.875C998.545 590.224 998.404 589.643 998.123 589.133C997.842 588.622 997.454 588.221 996.959 587.93C996.469 587.638 995.907 587.49 995.271 587.484C994.787 587.484 994.3 587.568 993.81 587.734C993.321 587.901 992.925 588.12 992.623 588.391L990.412 588.062L991.31 580H1000.11V582.07H993.318L992.81 586.547H992.904C993.217 586.245 993.631 585.992 994.146 585.789C994.667 585.586 995.224 585.484 995.818 585.484C996.792 585.484 997.659 585.716 998.42 586.18C999.185 586.643 999.787 587.276 1000.22 588.078C1000.67 588.875 1000.89 589.792 1000.88 590.828C1000.89 591.865 1000.65 592.789 1000.18 593.602C999.709 594.414 999.058 595.055 998.224 595.523C997.396 595.987 996.446 596.219 995.373 596.219ZM1006 593.812L1005.88 594.664C1005.81 595.289 1005.67 595.94 1005.49 596.617C1005.3 597.299 1005.11 597.932 1004.92 598.516C1004.72 599.099 1004.56 599.563 1004.44 599.906H1002.78C1002.85 599.583 1002.94 599.146 1003.06 598.594C1003.18 598.047 1003.3 597.435 1003.42 596.758C1003.53 596.081 1003.62 595.391 1003.67 594.687L1003.75 593.812H1006ZM1009.05 596V594.25L1014.46 588.641C1015.04 588.031 1015.52 587.497 1015.89 587.039C1016.27 586.576 1016.55 586.135 1016.74 585.719C1016.93 585.302 1017.02 584.859 1017.02 584.391C1017.02 583.859 1016.9 583.401 1016.65 583.016C1016.4 582.625 1016.06 582.326 1015.63 582.117C1015.19 581.904 1014.71 581.797 1014.16 581.797C1013.59 581.797 1013.09 581.914 1012.66 582.148C1012.24 582.383 1011.91 582.714 1011.68 583.141C1011.45 583.568 1011.34 584.068 1011.34 584.641H1009.03C1009.03 583.667 1009.26 582.815 1009.7 582.086C1010.15 581.357 1010.77 580.792 1011.55 580.391C1012.33 579.984 1013.22 579.781 1014.21 579.781C1015.22 579.781 1016.1 579.982 1016.87 580.383C1017.64 580.779 1018.24 581.32 1018.67 582.008C1019.1 582.69 1019.32 583.461 1019.32 584.32C1019.32 584.914 1019.21 585.495 1018.98 586.062C1018.77 586.63 1018.38 587.263 1017.84 587.961C1017.29 588.654 1016.53 589.495 1015.55 590.484L1012.38 593.812V593.93H1019.58V596H1009.05Z" fill="#CFCFCF"/>
<rect x="549" y="124" width="491" height="295" rx="20" fill="#F7F7F7"/>
<path opacity="0.6" d="M576.496 150.326H574.106C574.038 149.934 573.912 149.587 573.729 149.284C573.545 148.977 573.317 148.717 573.045 148.504C572.772 148.291 572.461 148.131 572.112 148.025C571.766 147.914 571.393 147.859 570.993 147.859C570.281 147.859 569.651 148.038 569.101 148.396C568.551 148.749 568.121 149.269 567.81 149.955C567.499 150.637 567.343 151.47 567.343 152.455C567.343 153.456 567.499 154.3 567.81 154.986C568.125 155.668 568.555 156.183 569.101 156.533C569.651 156.878 570.279 157.05 570.987 157.05C571.379 157.05 571.745 156.999 572.086 156.897C572.431 156.79 572.74 156.635 573.013 156.43C573.29 156.226 573.522 155.974 573.71 155.676C573.901 155.378 574.033 155.037 574.106 154.653L576.496 154.666C576.407 155.288 576.213 155.872 575.915 156.418C575.621 156.963 575.235 157.445 574.758 157.862C574.281 158.276 573.722 158.599 573.083 158.834C572.444 159.064 571.734 159.179 570.955 159.179C569.804 159.179 568.777 158.913 567.874 158.38C566.97 157.847 566.259 157.078 565.739 156.072C565.219 155.067 564.959 153.861 564.959 152.455C564.959 151.044 565.221 149.838 565.745 148.837C566.269 147.831 566.983 147.062 567.886 146.529C568.79 145.996 569.813 145.73 570.955 145.73C571.683 145.73 572.361 145.832 572.987 146.037C573.614 146.241 574.172 146.542 574.662 146.938C575.152 147.33 575.555 147.812 575.87 148.383C576.19 148.95 576.398 149.597 576.496 150.326ZM581.991 159H579.46L584.068 145.909H586.996L591.611 159H589.08L585.583 148.594H585.481L581.991 159ZM582.074 153.867H588.978V155.772H582.074V153.867ZM595.135 159V145.909H597.507V151.451H603.573V145.909H605.951V159H603.573V153.439H597.507V159H595.135ZM618.173 159L613.865 153.279H612.701V159H610.33V145.909H612.701V151.291H613.296L617.949 145.909H620.87L615.699 151.879L621.094 159H618.173ZM623.93 147.897V145.909H634.374V147.897H630.328V159H627.976V147.897H623.93ZM643.228 151.502V153.407H637.334V151.502H643.228ZM658.245 145.909V159H655.893V147.878H650.165V159H647.813V145.909H658.245ZM662.881 159V145.909H671.396V147.897H665.253V151.451H670.955V153.439H665.253V157.012H671.447V159H662.881ZM675.04 147.897V145.909H685.484V147.897H681.438V159H679.086V147.897H675.04ZM689.298 159V145.909H697.812V147.897H691.669V151.451H697.371V153.439H691.669V157.012H697.863V159H689.298ZM702.031 159V145.909H706.941C707.946 145.909 708.79 146.097 709.472 146.472C710.158 146.847 710.676 147.362 711.025 148.018C711.379 148.67 711.556 149.412 711.556 150.243C711.556 151.082 711.379 151.828 711.025 152.48C710.671 153.132 710.149 153.646 709.459 154.021C708.769 154.391 707.919 154.577 706.909 154.577H703.655V152.627H706.589C707.177 152.627 707.659 152.525 708.034 152.32C708.409 152.116 708.686 151.835 708.865 151.477C709.048 151.119 709.139 150.707 709.139 150.243C709.139 149.778 709.048 149.369 708.865 149.016C708.686 148.662 708.406 148.387 708.027 148.191C707.652 147.991 707.169 147.891 706.576 147.891H704.403V159H702.031ZM715.415 159V145.909H723.834V147.897H717.787V150.965H720.312C721.313 150.965 722.172 151.129 722.888 151.457C723.608 151.781 724.16 152.239 724.543 152.832C724.927 153.424 725.119 154.121 725.119 154.922C725.119 155.727 724.927 156.437 724.543 157.05C724.16 157.66 723.608 158.137 722.888 158.482C722.172 158.827 721.313 159 720.312 159H715.415ZM717.787 157.057H720.312C720.84 157.057 721.288 156.957 721.654 156.756C722.021 156.556 722.298 156.292 722.485 155.964C722.677 155.636 722.773 155.28 722.773 154.896C722.773 154.342 722.56 153.871 722.133 153.484C721.712 153.092 721.104 152.896 720.312 152.896H717.787V157.057ZM730.163 159.179V157.185H730.91C731.247 157.185 731.524 157.136 731.741 157.038C731.959 156.94 732.133 156.799 732.265 156.616C732.402 156.433 732.515 156.219 732.604 155.977L732.777 155.536L728.098 145.909H730.578L733.838 152.915L736.657 145.909H739.099L734.586 156.584C734.377 157.044 734.136 157.472 733.864 157.869C733.591 158.261 733.235 158.578 732.796 158.821C732.361 159.06 731.795 159.179 731.096 159.179H730.163ZM742.588 159V145.909H747.497C748.502 145.909 749.346 146.097 750.028 146.472C750.714 146.847 751.232 147.362 751.581 148.018C751.935 148.67 752.112 149.412 752.112 150.243C752.112 151.082 751.935 151.828 751.581 152.48C751.228 153.132 750.706 153.646 750.015 154.021C749.325 154.391 748.475 154.577 747.465 154.577H744.211V152.627H747.145C747.733 152.627 748.215 152.525 748.59 152.32C748.965 152.116 749.242 151.835 749.421 151.477C749.604 151.119 749.696 150.707 749.696 150.243C749.696 149.778 749.604 149.369 749.421 149.016C749.242 148.662 748.963 148.387 748.583 148.191C748.208 147.991 747.725 147.891 747.132 147.891H744.959V159H742.588ZM764.39 145.909V147.897H758.343V159H755.972V145.909H764.39Z" fill="black"/>
<path opacity="0.4" d="M564 373H1024.97V308C1027.7 308 860.197 285.207 860.197 285.207L564 210.5V373Z" fill="url(#paint1_linear_3326_3149)"/>
<rect x="1020.36" y="303.357" width="9.55842" height="9.55842" rx="4.77921" fill="#CACACA" stroke="#CACACA" stroke-width="0.713315"/>
<path d="M1025 308.999L857 284.999L563.502 210.5" stroke="#CACACA" stroke-width="4"/>
<path d="M882.801 357.445L882.801 381.803L891.886 372.684L895.875 376.638L879.92 392.559L864 376.638L867.92 372.684L877.04 381.803L877.04 357.445L882.801 357.445Z" fill="#CACACA"/>
<path d="M921.235 392.477C919.44 392.466 917.707 392.165 916.036 391.574C914.377 390.983 912.888 390.023 911.57 388.693C910.252 387.364 909.207 385.602 908.434 383.409C907.673 381.216 907.292 378.523 907.292 375.33C907.303 372.398 907.638 369.778 908.298 367.472C908.968 365.153 909.923 363.187 911.161 361.574C912.411 359.96 913.906 358.733 915.644 357.892C917.383 357.04 919.332 356.614 921.491 356.614C923.82 356.614 925.877 357.068 927.661 357.977C929.445 358.875 930.877 360.097 931.957 361.642C933.048 363.188 933.707 364.92 933.934 366.841H926.656C926.371 365.625 925.775 364.67 924.866 363.977C923.957 363.284 922.832 362.938 921.491 362.938C919.218 362.938 917.491 363.926 916.309 365.903C915.138 367.881 914.542 370.568 914.519 373.966H914.758C915.281 372.932 915.985 372.051 916.871 371.324C917.769 370.585 918.786 370.023 919.923 369.636C921.07 369.239 922.281 369.04 923.553 369.04C925.621 369.04 927.462 369.528 929.076 370.506C930.69 371.472 931.962 372.801 932.894 374.494C933.826 376.187 934.292 378.125 934.292 380.307C934.292 382.67 933.741 384.773 932.638 386.614C931.548 388.455 930.019 389.898 928.053 390.943C926.099 391.977 923.826 392.489 921.235 392.477ZM921.201 386.682C922.337 386.682 923.354 386.409 924.252 385.864C925.15 385.318 925.854 384.58 926.366 383.648C926.877 382.716 927.133 381.67 927.133 380.511C927.133 379.352 926.877 378.312 926.366 377.392C925.866 376.472 925.173 375.739 924.286 375.193C923.4 374.648 922.388 374.375 921.252 374.375C920.4 374.375 919.61 374.534 918.883 374.852C918.167 375.17 917.536 375.614 916.991 376.182C916.457 376.75 916.036 377.409 915.729 378.159C915.423 378.898 915.269 379.687 915.269 380.528C915.269 381.653 915.525 382.682 916.036 383.614C916.559 384.545 917.263 385.29 918.15 385.847C919.048 386.403 920.065 386.682 921.201 386.682ZM945.54 387.227L945.352 389.102C945.205 390.602 944.92 392.097 944.5 393.585C944.091 395.085 943.659 396.443 943.205 397.659C942.761 398.875 942.403 399.83 942.131 400.523H937.426C937.597 399.852 937.83 398.915 938.125 397.71C938.42 396.517 938.699 395.176 938.96 393.688C939.222 392.199 939.386 390.682 939.455 389.136L939.54 387.227H945.54ZM963.235 392.477C960.61 392.477 958.275 392.051 956.229 391.199C954.195 390.335 952.599 389.159 951.44 387.67C950.281 386.182 949.701 384.494 949.701 382.608C949.701 381.153 950.031 379.818 950.69 378.602C951.36 377.375 952.269 376.358 953.417 375.551C954.565 374.733 955.849 374.21 957.269 373.983V373.744C955.406 373.369 953.894 372.466 952.735 371.034C951.576 369.591 950.996 367.915 950.996 366.006C950.996 364.199 951.525 362.591 952.582 361.182C953.638 359.761 955.087 358.648 956.928 357.841C958.781 357.023 960.883 356.614 963.235 356.614C965.587 356.614 967.684 357.023 969.525 357.841C971.377 358.659 972.832 359.778 973.888 361.199C974.945 362.608 975.479 364.21 975.491 366.006C975.479 367.926 974.888 369.602 973.718 371.034C972.548 372.466 971.048 373.369 969.218 373.744V373.983C970.616 374.21 971.883 374.733 973.019 375.551C974.167 376.358 975.076 377.375 975.746 378.602C976.428 379.818 976.775 381.153 976.786 382.608C976.775 384.494 976.19 386.182 975.031 387.67C973.871 389.159 972.269 390.335 970.224 391.199C968.19 392.051 965.86 392.477 963.235 392.477ZM963.235 387.057C964.406 387.057 965.428 386.847 966.303 386.426C967.178 385.994 967.86 385.403 968.349 384.653C968.849 383.892 969.099 383.017 969.099 382.028C969.099 381.017 968.843 380.125 968.332 379.352C967.82 378.568 967.127 377.955 966.252 377.511C965.377 377.057 964.371 376.83 963.235 376.83C962.11 376.83 961.104 377.057 960.218 377.511C959.332 377.955 958.633 378.568 958.121 379.352C957.621 380.125 957.371 381.017 957.371 382.028C957.371 383.017 957.616 383.892 958.104 384.653C958.593 385.403 959.281 385.994 960.167 386.426C961.053 386.847 962.076 387.057 963.235 387.057ZM963.235 371.46C964.212 371.46 965.082 371.261 965.843 370.864C966.604 370.466 967.201 369.915 967.633 369.21C968.065 368.506 968.281 367.693 968.281 366.773C968.281 365.864 968.065 365.068 967.633 364.386C967.201 363.693 966.61 363.153 965.86 362.767C965.11 362.369 964.235 362.17 963.235 362.17C962.246 362.17 961.371 362.369 960.61 362.767C959.849 363.153 959.252 363.693 958.82 364.386C958.4 365.068 958.19 365.864 958.19 366.773C958.19 367.693 958.406 368.506 958.837 369.21C959.269 369.915 959.866 370.466 960.627 370.864C961.388 371.261 962.258 371.46 963.235 371.46ZM1000.56 385.455V383.614C1000.56 382.216 1000.86 380.932 1001.45 379.761C1002.05 378.58 1002.92 377.636 1004.06 376.932C1005.2 376.216 1006.6 375.858 1008.25 375.858C1009.92 375.858 1011.32 376.21 1012.46 376.915C1013.61 377.619 1014.47 378.562 1015.05 379.744C1015.64 380.915 1015.94 382.205 1015.94 383.614V385.455C1015.94 386.852 1015.64 388.142 1015.05 389.324C1014.46 390.494 1013.59 391.432 1012.44 392.136C1011.3 392.852 1009.9 393.21 1008.25 393.21C1006.58 393.21 1005.18 392.852 1004.04 392.136C1002.9 391.432 1002.04 390.494 1001.45 389.324C1000.86 388.142 1000.56 386.852 1000.56 385.455ZM1005.52 383.614V385.455C1005.52 386.261 1005.72 387.023 1006.1 387.739C1006.5 388.455 1007.22 388.812 1008.25 388.812C1009.28 388.812 1009.99 388.46 1010.36 387.756C1010.75 387.051 1010.94 386.284 1010.94 385.455V383.614C1010.94 382.784 1010.76 382.011 1010.4 381.295C1010.03 380.58 1009.32 380.222 1008.25 380.222C1007.23 380.222 1006.52 380.58 1006.12 381.295C1005.72 382.011 1005.52 382.784 1005.52 383.614ZM982.648 365.477V363.636C982.648 362.227 982.949 360.937 983.551 359.767C984.153 358.585 985.023 357.642 986.159 356.938C987.307 356.233 988.693 355.881 990.318 355.881C992 355.881 993.409 356.233 994.545 356.938C995.682 357.642 996.545 358.585 997.136 359.767C997.727 360.937 998.023 362.227 998.023 363.636V365.477C998.023 366.886 997.722 368.176 997.119 369.347C996.528 370.517 995.659 371.455 994.511 372.159C993.375 372.852 991.977 373.199 990.318 373.199C988.659 373.199 987.256 372.847 986.108 372.142C984.972 371.426 984.108 370.489 983.517 369.33C982.938 368.159 982.648 366.875 982.648 365.477ZM987.642 363.636V365.477C987.642 366.307 987.835 367.074 988.222 367.778C988.619 368.483 989.318 368.835 990.318 368.835C991.364 368.835 992.074 368.483 992.449 367.778C992.835 367.074 993.028 366.307 993.028 365.477V363.636C993.028 362.807 992.847 362.034 992.483 361.318C992.119 360.602 991.398 360.244 990.318 360.244C989.307 360.244 988.608 360.608 988.222 361.335C987.835 362.062 987.642 362.83 987.642 363.636ZM984.898 392L1008.9 357.091H1013.36L989.364 392H984.898Z" fill="black"/>
<path d="M566.078 201L573.063 187.187V187.07H564.984V185H575.563V187.141L568.602 201H566.078ZM583.262 201.219C582.189 201.219 581.231 201.034 580.387 200.664C579.548 200.294 578.884 199.781 578.395 199.125C577.91 198.464 577.65 197.698 577.613 196.828H580.067C580.098 197.302 580.257 197.714 580.543 198.062C580.835 198.406 581.215 198.672 581.684 198.859C582.152 199.047 582.673 199.141 583.246 199.141C583.876 199.141 584.434 199.031 584.918 198.812C585.408 198.594 585.79 198.289 586.067 197.898C586.343 197.503 586.481 197.047 586.481 196.531C586.481 195.995 586.343 195.523 586.067 195.117C585.796 194.706 585.397 194.383 584.871 194.148C584.35 193.914 583.72 193.797 582.981 193.797H581.629V191.828H582.981C583.574 191.828 584.095 191.721 584.543 191.508C584.996 191.294 585.35 190.997 585.606 190.617C585.861 190.232 585.988 189.781 585.988 189.266C585.988 188.771 585.876 188.341 585.652 187.977C585.434 187.607 585.121 187.318 584.715 187.109C584.314 186.901 583.84 186.797 583.293 186.797C582.772 186.797 582.285 186.893 581.832 187.086C581.384 187.273 581.02 187.544 580.738 187.898C580.457 188.247 580.306 188.667 580.285 189.156H577.949C577.975 188.292 578.231 187.531 578.715 186.875C579.205 186.219 579.85 185.706 580.652 185.336C581.455 184.966 582.345 184.781 583.324 184.781C584.35 184.781 585.236 184.982 585.981 185.383C586.731 185.779 587.309 186.307 587.715 186.969C588.126 187.63 588.33 188.354 588.324 189.141C588.33 190.036 588.08 190.797 587.574 191.422C587.074 192.047 586.408 192.466 585.574 192.68V192.805C586.637 192.966 587.46 193.388 588.043 194.07C588.632 194.753 588.923 195.599 588.918 196.609C588.923 197.49 588.678 198.279 588.184 198.977C587.694 199.674 587.025 200.224 586.176 200.625C585.327 201.021 584.356 201.219 583.262 201.219ZM594.246 198.812L594.129 199.664C594.051 200.289 593.918 200.94 593.731 201.617C593.548 202.299 593.358 202.932 593.16 203.516C592.968 204.099 592.809 204.563 592.684 204.906H591.028C591.095 204.583 591.189 204.146 591.309 203.594C591.429 203.047 591.546 202.435 591.66 201.758C591.775 201.081 591.861 200.391 591.918 199.687L591.996 198.812H594.246ZM602.282 201.219C601.209 201.219 600.25 201.034 599.407 200.664C598.568 200.294 597.904 199.781 597.414 199.125C596.93 198.464 596.67 197.698 596.633 196.828H599.086C599.117 197.302 599.276 197.714 599.563 198.062C599.854 198.406 600.235 198.672 600.703 198.859C601.172 199.047 601.693 199.141 602.266 199.141C602.896 199.141 603.453 199.031 603.938 198.812C604.427 198.594 604.81 198.289 605.086 197.898C605.362 197.503 605.5 197.047 605.5 196.531C605.5 195.995 605.362 195.523 605.086 195.117C604.815 194.706 604.417 194.383 603.891 194.148C603.37 193.914 602.74 193.797 602 193.797H600.649V191.828H602C602.594 191.828 603.115 191.721 603.563 191.508C604.016 191.294 604.37 190.997 604.625 190.617C604.881 190.232 605.008 189.781 605.008 189.266C605.008 188.771 604.896 188.341 604.672 187.977C604.453 187.607 604.141 187.318 603.735 187.109C603.334 186.901 602.86 186.797 602.313 186.797C601.792 186.797 601.305 186.893 600.852 187.086C600.404 187.273 600.039 187.544 599.758 187.898C599.477 188.247 599.326 188.667 599.305 189.156H596.969C596.995 188.292 597.25 187.531 597.735 186.875C598.224 186.219 598.87 185.706 599.672 185.336C600.474 184.966 601.365 184.781 602.344 184.781C603.37 184.781 604.256 184.982 605 185.383C605.75 185.779 606.328 186.307 606.735 186.969C607.146 187.63 607.349 188.354 607.344 189.141C607.349 190.036 607.099 190.797 606.594 191.422C606.094 192.047 605.427 192.466 604.594 192.68V192.805C605.657 192.966 606.479 193.388 607.063 194.07C607.651 194.753 607.943 195.599 607.938 196.609C607.943 197.49 607.698 198.279 607.203 198.977C606.714 199.674 606.045 200.224 605.196 200.625C604.347 201.021 603.375 201.219 602.282 201.219Z" fill="#CFCFCF"/>
<path d="M985.828 291.219C985.114 291.208 984.411 291.078 983.718 290.828C983.031 290.578 982.406 290.161 981.843 289.578C981.281 288.995 980.83 288.211 980.492 287.227C980.159 286.242 979.992 285.013 979.992 283.539C979.992 282.143 980.13 280.904 980.406 279.82C980.687 278.737 981.091 277.823 981.617 277.078C982.143 276.328 982.778 275.758 983.523 275.367C984.268 274.977 985.104 274.781 986.031 274.781C986.984 274.781 987.83 274.969 988.57 275.344C989.31 275.719 989.909 276.237 990.367 276.898C990.83 277.56 991.125 278.312 991.25 279.156H988.867C988.705 278.49 988.385 277.945 987.906 277.523C987.427 277.102 986.802 276.891 986.031 276.891C984.859 276.891 983.945 277.401 983.289 278.422C982.638 279.443 982.31 280.862 982.304 282.68H982.422C982.698 282.227 983.036 281.841 983.437 281.523C983.843 281.201 984.297 280.953 984.797 280.781C985.302 280.604 985.833 280.516 986.39 280.516C987.317 280.516 988.156 280.742 988.906 281.195C989.661 281.643 990.263 282.263 990.711 283.055C991.159 283.846 991.383 284.753 991.383 285.773C991.383 286.794 991.151 287.719 990.687 288.547C990.229 289.375 989.583 290.031 988.75 290.516C987.916 290.995 986.942 291.229 985.828 291.219ZM985.82 289.187C986.435 289.187 986.984 289.036 987.468 288.734C987.953 288.432 988.336 288.026 988.617 287.516C988.898 287.005 989.039 286.435 989.039 285.805C989.039 285.19 988.901 284.63 988.625 284.125C988.354 283.62 987.979 283.219 987.5 282.922C987.026 282.625 986.484 282.477 985.875 282.477C985.411 282.477 984.981 282.565 984.586 282.742C984.195 282.919 983.851 283.164 983.554 283.477C983.258 283.789 983.023 284.148 982.851 284.555C982.685 284.956 982.601 285.38 982.601 285.828C982.601 286.427 982.739 286.982 983.015 287.492C983.297 288.003 983.679 288.414 984.164 288.727C984.653 289.034 985.205 289.187 985.82 289.187ZM999.592 291.219C998.878 291.208 998.175 291.078 997.482 290.828C996.795 290.578 996.17 290.161 995.607 289.578C995.045 288.995 994.594 288.211 994.256 287.227C993.922 286.242 993.756 285.013 993.756 283.539C993.756 282.143 993.894 280.904 994.17 279.82C994.451 278.737 994.855 277.823 995.381 277.078C995.907 276.328 996.542 275.758 997.287 275.367C998.032 274.977 998.868 274.781 999.795 274.781C1000.75 274.781 1001.59 274.969 1002.33 275.344C1003.07 275.719 1003.67 276.237 1004.13 276.898C1004.59 277.56 1004.89 278.312 1005.01 279.156H1002.63C1002.47 278.49 1002.15 277.945 1001.67 277.523C1001.19 277.102 1000.57 276.891 999.795 276.891C998.623 276.891 997.709 277.401 997.053 278.422C996.401 279.443 996.073 280.862 996.068 282.68H996.185C996.461 282.227 996.8 281.841 997.201 281.523C997.607 281.201 998.06 280.953 998.56 280.781C999.066 280.604 999.597 280.516 1000.15 280.516C1001.08 280.516 1001.92 280.742 1002.67 281.195C1003.42 281.643 1004.03 282.263 1004.47 283.055C1004.92 283.846 1005.15 284.753 1005.15 285.773C1005.15 286.794 1004.91 287.719 1004.45 288.547C1003.99 289.375 1003.35 290.031 1002.51 290.516C1001.68 290.995 1000.71 291.229 999.592 291.219ZM999.584 289.187C1000.2 289.187 1000.75 289.036 1001.23 288.734C1001.72 288.432 1002.1 288.026 1002.38 287.516C1002.66 287.005 1002.8 286.435 1002.8 285.805C1002.8 285.19 1002.66 284.63 1002.39 284.125C1002.12 283.62 1001.74 283.219 1001.26 282.922C1000.79 282.625 1000.25 282.477 999.638 282.477C999.175 282.477 998.745 282.565 998.349 282.742C997.959 282.919 997.615 283.164 997.318 283.477C997.021 283.789 996.787 284.148 996.615 284.555C996.448 284.956 996.365 285.38 996.365 285.828C996.365 286.427 996.503 286.982 996.779 287.492C997.06 288.003 997.443 288.414 997.928 288.727C998.417 289.034 998.969 289.187 999.584 289.187ZM1010.11 288.812L1009.99 289.664C1009.91 290.289 1009.78 290.94 1009.59 291.617C1009.41 292.299 1009.22 292.932 1009.02 293.516C1008.83 294.099 1008.67 294.563 1008.55 294.906H1006.89C1006.96 294.583 1007.05 294.146 1007.17 293.594C1007.29 293.047 1007.41 292.435 1007.52 291.758C1007.64 291.081 1007.72 290.391 1007.78 289.687L1007.86 288.812H1010.11ZM1018.18 291.219C1017.2 291.219 1016.32 291.031 1015.54 290.656C1014.76 290.276 1014.14 289.755 1013.68 289.094C1013.21 288.432 1012.97 287.677 1012.94 286.828H1015.28C1015.34 287.516 1015.64 288.081 1016.19 288.523C1016.75 288.966 1017.41 289.187 1018.18 289.187C1018.79 289.187 1019.34 289.047 1019.81 288.766C1020.29 288.479 1020.66 288.086 1020.94 287.586C1021.21 287.086 1021.35 286.516 1021.35 285.875C1021.35 285.224 1021.21 284.643 1020.93 284.133C1020.65 283.622 1020.26 283.221 1019.76 282.93C1019.27 282.638 1018.71 282.49 1018.08 282.484C1017.59 282.484 1017.1 282.568 1016.62 282.734C1016.13 282.901 1015.73 283.12 1015.43 283.391L1013.22 283.062L1014.12 275H1022.91V277.07H1016.12L1015.62 281.547H1015.71C1016.02 281.245 1016.44 280.992 1016.95 280.789C1017.47 280.586 1018.03 280.484 1018.62 280.484C1019.6 280.484 1020.46 280.716 1021.22 281.18C1021.99 281.643 1022.59 282.276 1023.03 283.078C1023.47 283.875 1023.69 284.792 1023.69 285.828C1023.69 286.865 1023.46 287.789 1022.98 288.602C1022.51 289.414 1021.86 290.055 1021.03 290.523C1020.2 290.987 1019.25 291.219 1018.18 291.219Z" fill="#CFCFCF"/>
<rect x="40" y="124" width="491" height="295" rx="20" fill="#F7F7F7"/>
<path opacity="0.6" d="M56.2912 145.909H59.1932L63.0795 155.395H63.233L67.1193 145.909H70.0213V159H67.7457V150.006H67.6243L64.0064 158.962H62.3061L58.6882 149.987H58.5668V159H56.2912V145.909ZM86.1011 152.455C86.1011 153.865 85.8369 155.073 85.3085 156.079C84.7844 157.08 84.0685 157.847 83.1608 158.38C82.2574 158.913 81.2325 159.179 80.0862 159.179C78.9399 159.179 77.9129 158.913 77.0053 158.38C76.1018 157.843 75.3859 157.074 74.8575 156.072C74.3334 155.067 74.0713 153.861 74.0713 152.455C74.0713 151.044 74.3334 149.838 74.8575 148.837C75.3859 147.831 76.1018 147.062 77.0053 146.529C77.9129 145.996 78.9399 145.73 80.0862 145.73C81.2325 145.73 82.2574 145.996 83.1608 146.529C84.0685 147.062 84.7844 147.831 85.3085 148.837C85.8369 149.838 86.1011 151.044 86.1011 152.455ZM83.7169 152.455C83.7169 151.462 83.5614 150.624 83.2503 149.942C82.9435 149.256 82.5173 148.739 81.9719 148.389C81.4264 148.036 80.7979 147.859 80.0862 147.859C79.3746 147.859 78.746 148.036 78.2006 148.389C77.6551 148.739 77.2268 149.256 76.9158 149.942C76.6089 150.624 76.4555 151.462 76.4555 152.455C76.4555 153.447 76.6089 154.287 76.9158 154.973C77.2268 155.655 77.6551 156.173 78.2006 156.526C78.746 156.876 79.3746 157.05 80.0862 157.05C80.7979 157.05 81.4264 156.876 81.9719 156.526C82.5173 156.173 82.9435 155.655 83.2503 154.973C83.5614 154.287 83.7169 153.447 83.7169 152.455ZM101.348 150.326H98.9578C98.8896 149.934 98.7639 149.587 98.5806 149.284C98.3974 148.977 98.1694 148.717 97.8967 148.504C97.624 148.291 97.3129 148.131 96.9635 148.025C96.6183 147.914 96.2454 147.859 95.8448 147.859C95.1332 147.859 94.5025 148.038 93.9528 148.396C93.4031 148.749 92.9727 149.269 92.6616 149.955C92.3505 150.637 92.195 151.47 92.195 152.455C92.195 153.456 92.3505 154.3 92.6616 154.986C92.977 155.668 93.4073 156.183 93.9528 156.533C94.5025 156.878 95.1311 157.05 95.8385 157.05C96.2305 157.05 96.597 156.999 96.9379 156.897C97.2831 156.79 97.592 156.635 97.8647 156.43C98.1417 156.226 98.374 155.974 98.5615 155.676C98.7532 155.378 98.8853 155.037 98.9578 154.653L101.348 154.666C101.259 155.288 101.065 155.872 100.767 156.418C100.473 156.963 100.087 157.445 99.6098 157.862C99.1325 158.276 98.5743 158.599 97.935 158.834C97.2958 159.064 96.5863 159.179 95.8065 159.179C94.6559 159.179 93.6289 158.913 92.7255 158.38C91.8221 157.847 91.1105 157.078 90.5906 156.072C90.0707 155.067 89.8108 153.861 89.8108 152.455C89.8108 151.044 90.0728 149.838 90.597 148.837C91.1211 147.831 91.8349 147.062 92.7383 146.529C93.6417 145.996 94.6645 145.73 95.8065 145.73C96.5352 145.73 97.2127 145.832 97.8392 146.037C98.4656 146.241 99.0238 146.542 99.5139 146.938C100.004 147.33 100.407 147.812 100.722 148.383C101.042 148.95 101.25 149.597 101.348 150.326ZM113.163 159L108.855 153.279H107.692V159H105.32V145.909H107.692V151.291H108.286L112.939 145.909H115.861L110.689 151.879L116.084 159H113.163ZM119.495 159V145.909H124.506C125.452 145.909 126.239 146.058 126.865 146.357C127.496 146.651 127.967 147.053 128.278 147.565C128.593 148.076 128.751 148.656 128.751 149.303C128.751 149.836 128.649 150.292 128.444 150.671C128.239 151.046 127.965 151.351 127.619 151.585C127.274 151.82 126.889 151.988 126.462 152.09V152.218C126.927 152.244 127.372 152.386 127.798 152.646C128.229 152.902 128.58 153.264 128.853 153.733C129.126 154.202 129.262 154.768 129.262 155.433C129.262 156.111 129.098 156.72 128.77 157.261C128.442 157.798 127.948 158.222 127.287 158.533C126.626 158.844 125.796 159 124.794 159H119.495ZM121.867 157.018H124.417C125.278 157.018 125.898 156.854 126.277 156.526C126.661 156.194 126.852 155.768 126.852 155.248C126.852 154.86 126.756 154.511 126.565 154.2C126.373 153.884 126.1 153.637 125.747 153.458C125.393 153.275 124.971 153.183 124.481 153.183H121.867V157.018ZM121.867 151.477H124.212C124.622 151.477 124.99 151.402 125.318 151.253C125.646 151.099 125.904 150.884 126.092 150.607C126.283 150.326 126.379 149.994 126.379 149.61C126.379 149.103 126.2 148.685 125.842 148.357C125.489 148.029 124.962 147.865 124.264 147.865H121.867V151.477ZM134.806 159H132.275L136.884 145.909H139.811L144.426 159H141.895L138.399 148.594H138.296L134.806 159ZM134.889 153.867H141.793V155.772H134.889V153.867Z" fill="black"/>
<path opacity="0.4" d="M55.0244 373H516V243L280.959 286.668C280.959 286.668 57.7061 272.947 55.0244 272.62V272.614C54.9918 272.614 54.9921 272.616 55.0244 272.62V373Z" fill="url(#paint2_linear_3326_3149)"/>
<rect width="10.2717" height="10.2717" rx="5.13587" transform="matrix(-1 0 0 1 521.271 238)" fill="#04B34A"/>
<path d="M55 272.5L281.28 286.768C283.723 286.922 286.175 286.766 288.579 286.304L516.459 242.5" stroke="#04B34A" stroke-width="4"/>
<path d="M374.801 392.555V368.197L383.886 377.316L387.875 373.362L371.92 357.441L356 373.362L359.92 377.316L369.04 368.197V392.555H374.801Z" fill="#04B34A"/>
<path d="M414.212 392.767C411.281 392.756 408.758 392.034 406.644 390.602C404.542 389.17 402.923 387.097 401.786 384.381C400.661 381.665 400.104 378.398 400.116 374.58C400.116 370.773 400.678 367.528 401.803 364.847C402.94 362.165 404.559 360.125 406.661 358.727C408.775 357.318 411.292 356.614 414.212 356.614C417.133 356.614 419.644 357.318 421.746 358.727C423.86 360.136 425.485 362.182 426.621 364.864C427.758 367.534 428.32 370.773 428.309 374.58C428.309 378.409 427.741 381.682 426.604 384.398C425.479 387.114 423.866 389.187 421.763 390.619C419.661 392.051 417.144 392.767 414.212 392.767ZM414.212 386.648C416.212 386.648 417.809 385.642 419.002 383.631C420.195 381.619 420.786 378.602 420.775 374.58C420.775 371.932 420.502 369.727 419.957 367.966C419.423 366.205 418.661 364.881 417.673 363.994C416.695 363.108 415.542 362.665 414.212 362.665C412.224 362.665 410.633 363.659 409.44 365.648C408.246 367.636 407.644 370.614 407.633 374.58C407.633 377.261 407.9 379.5 408.434 381.295C408.979 383.08 409.746 384.42 410.735 385.318C411.724 386.205 412.883 386.648 414.212 386.648ZM439.634 387.227L439.446 389.102C439.298 390.602 439.014 392.097 438.594 393.585C438.185 395.085 437.753 396.443 437.298 397.659C436.855 398.875 436.497 399.83 436.224 400.523H431.52C431.69 399.852 431.923 398.915 432.219 397.71C432.514 396.517 432.793 395.176 433.054 393.688C433.315 392.199 433.48 390.682 433.548 389.136L433.634 387.227H439.634ZM445.781 392L460.252 363.364V363.125H443.394V357.091H467.888V363.21L453.4 392H445.781ZM491.562 385.455V383.614C491.562 382.216 491.858 380.932 492.449 379.761C493.051 378.58 493.92 377.636 495.057 376.932C496.205 376.216 497.602 375.858 499.25 375.858C500.92 375.858 502.324 376.21 503.46 376.915C504.608 377.619 505.472 378.562 506.051 379.744C506.642 380.915 506.938 382.205 506.938 383.614V385.455C506.938 386.852 506.642 388.142 506.051 389.324C505.46 390.494 504.591 391.432 503.443 392.136C502.295 392.852 500.898 393.21 499.25 393.21C497.58 393.21 496.176 392.852 495.04 392.136C493.903 391.432 493.04 390.494 492.449 389.324C491.858 388.142 491.562 386.852 491.562 385.455ZM496.523 383.614V385.455C496.523 386.261 496.716 387.023 497.102 387.739C497.5 388.455 498.216 388.812 499.25 388.812C500.284 388.812 500.989 388.46 501.364 387.756C501.75 387.051 501.943 386.284 501.943 385.455V383.614C501.943 382.784 501.761 382.011 501.398 381.295C501.034 380.58 500.318 380.222 499.25 380.222C498.227 380.222 497.517 380.58 497.119 381.295C496.722 382.011 496.523 382.784 496.523 383.614ZM473.648 365.477V363.636C473.648 362.227 473.949 360.937 474.551 359.767C475.153 358.585 476.023 357.642 477.159 356.938C478.307 356.233 479.693 355.881 481.318 355.881C483 355.881 484.409 356.233 485.545 356.938C486.682 357.642 487.545 358.585 488.136 359.767C488.727 360.937 489.023 362.227 489.023 363.636V365.477C489.023 366.886 488.722 368.176 488.119 369.347C487.528 370.517 486.659 371.455 485.511 372.159C484.375 372.852 482.977 373.199 481.318 373.199C479.659 373.199 478.256 372.847 477.108 372.142C475.972 371.426 475.108 370.489 474.517 369.33C473.938 368.159 473.648 366.875 473.648 365.477ZM478.642 363.636V365.477C478.642 366.307 478.835 367.074 479.222 367.778C479.619 368.483 480.318 368.835 481.318 368.835C482.364 368.835 483.074 368.483 483.449 367.778C483.835 367.074 484.028 366.307 484.028 365.477V363.636C484.028 362.807 483.847 362.034 483.483 361.318C483.119 360.602 482.398 360.244 481.318 360.244C480.307 360.244 479.608 360.608 479.222 361.335C478.835 362.062 478.642 362.83 478.642 363.636ZM475.898 392L499.898 357.091H504.364L480.364 392H475.898Z" fill="black"/>
<path d="M62.125 258.219C61.4115 258.208 60.7083 258.078 60.0156 257.828C59.3281 257.578 58.7031 257.161 58.1406 256.578C57.5781 255.995 57.1276 255.211 56.7891 254.227C56.4557 253.242 56.2891 252.013 56.2891 250.539C56.2891 249.143 56.4271 247.904 56.7031 246.82C56.9844 245.737 57.388 244.823 57.9141 244.078C58.4401 243.328 59.0755 242.758 59.8203 242.367C60.5651 241.977 61.401 241.781 62.3281 241.781C63.2813 241.781 64.1276 241.969 64.8672 242.344C65.6068 242.719 66.2057 243.237 66.6641 243.898C67.1276 244.56 67.4219 245.312 67.5469 246.156H65.1641C65.0026 245.49 64.6823 244.945 64.2031 244.523C63.724 244.102 63.099 243.891 62.3281 243.891C61.1563 243.891 60.2422 244.401 59.5859 245.422C58.9349 246.443 58.6068 247.862 58.6016 249.68H58.7188C58.9948 249.227 59.3333 248.841 59.7344 248.523C60.1406 248.201 60.5938 247.953 61.0938 247.781C61.599 247.604 62.1302 247.516 62.6875 247.516C63.6146 247.516 64.4531 247.742 65.2031 248.195C65.9583 248.643 66.5599 249.263 67.0078 250.055C67.4557 250.846 67.6797 251.753 67.6797 252.773C67.6797 253.794 67.4479 254.719 66.9844 255.547C66.526 256.375 65.8802 257.031 65.0469 257.516C64.2135 257.995 63.2396 258.229 62.125 258.219ZM62.1172 256.187C62.7318 256.187 63.2813 256.036 63.7656 255.734C64.25 255.432 64.6328 255.026 64.9141 254.516C65.1953 254.005 65.3359 253.435 65.3359 252.805C65.3359 252.19 65.1979 251.63 64.9219 251.125C64.651 250.62 64.276 250.219 63.7969 249.922C63.3229 249.625 62.7813 249.477 62.1719 249.477C61.7083 249.477 61.2786 249.565 60.8828 249.742C60.4922 249.919 60.1484 250.164 59.8516 250.477C59.5547 250.789 59.3203 251.148 59.1484 251.555C58.9818 251.956 58.8984 252.38 58.8984 252.828C58.8984 253.427 59.0365 253.982 59.3125 254.492C59.5938 255.003 59.9766 255.414 60.4609 255.727C60.9505 256.034 61.5026 256.187 62.1172 256.187ZM70.8419 258L77.8263 244.187V244.07H69.7481V242H80.3263V244.141L73.3653 258H70.8419ZM83.1408 255.812L83.0236 256.664C82.9455 257.289 82.8127 257.94 82.6252 258.617C82.4429 259.299 82.2528 259.932 82.0549 260.516C81.8622 261.099 81.7033 261.563 81.5783 261.906H79.9221C79.9898 261.583 80.0835 261.146 80.2033 260.594C80.3231 260.047 80.4403 259.435 80.5549 258.758C80.6695 258.081 80.7554 257.391 80.8127 256.687L80.8908 255.812H83.1408ZM91.055 258.219C89.9352 258.219 88.9456 258.026 88.0862 257.641C87.2321 257.255 86.5628 256.724 86.0784 256.047C85.5941 255.37 85.3545 254.599 85.3597 253.734C85.3545 253.057 85.4925 252.435 85.7737 251.867C86.0602 251.294 86.4482 250.818 86.9378 250.438C87.4274 250.052 87.9743 249.807 88.5784 249.703V249.609C87.7816 249.417 87.1435 248.99 86.6644 248.328C86.1852 247.667 85.9482 246.906 85.9534 246.047C85.9482 245.229 86.1644 244.5 86.6019 243.859C87.0446 243.214 87.6513 242.706 88.4222 242.336C89.193 241.966 90.0706 241.781 91.055 241.781C92.029 241.781 92.8987 241.969 93.6644 242.344C94.4352 242.714 95.042 243.221 95.4847 243.867C95.9274 244.508 96.1513 245.234 96.1566 246.047C96.1513 246.906 95.9066 247.667 95.4222 248.328C94.9378 248.99 94.3076 249.417 93.5316 249.609V249.703C94.1305 249.807 94.6696 250.052 95.1487 250.438C95.6331 250.818 96.0185 251.294 96.305 251.867C96.5967 252.435 96.7451 253.057 96.7503 253.734C96.7451 254.599 96.5003 255.37 96.0159 256.047C95.5316 256.724 94.8597 257.255 94.0003 257.641C93.1461 258.026 92.1644 258.219 91.055 258.219ZM91.055 256.242C91.7165 256.242 92.2894 256.133 92.7737 255.914C93.2581 255.69 93.6331 255.38 93.8987 254.984C94.1644 254.583 94.2998 254.115 94.305 253.578C94.2998 253.021 94.154 252.529 93.8675 252.102C93.5862 251.674 93.2034 251.339 92.7191 251.094C92.2347 250.849 91.68 250.727 91.055 250.727C90.4248 250.727 89.8649 250.849 89.3753 251.094C88.8857 251.339 88.5003 251.674 88.2191 252.102C87.9378 252.529 87.7998 253.021 87.805 253.578C87.7998 254.115 87.9274 254.583 88.1878 254.984C88.4534 255.38 88.831 255.69 89.3206 255.914C89.8102 256.133 90.3883 256.242 91.055 256.242ZM91.055 248.797C91.5862 248.797 92.0576 248.69 92.4691 248.477C92.8805 248.263 93.2034 247.966 93.4378 247.586C93.6774 247.206 93.7998 246.76 93.805 246.25C93.7998 245.75 93.68 245.313 93.4456 244.938C93.2165 244.562 92.8961 244.273 92.4847 244.07C92.0732 243.862 91.5967 243.758 91.055 243.758C90.5029 243.758 90.0185 243.862 89.6019 244.07C89.1904 244.273 88.8701 244.562 88.6409 244.938C88.4118 245.313 88.2998 245.75 88.305 246.25C88.2998 246.76 88.4144 247.206 88.6487 247.586C88.8831 247.966 89.206 248.263 89.6175 248.477C90.0342 248.69 90.5133 248.797 91.055 248.797Z" fill="#CFCFCF"/>
<path d="M476.656 226.219C475.942 226.208 475.239 226.078 474.547 225.828C473.859 225.578 473.234 225.161 472.672 224.578C472.109 223.995 471.659 223.211 471.32 222.227C470.987 221.242 470.82 220.013 470.82 218.539C470.82 217.143 470.958 215.904 471.234 214.82C471.515 213.737 471.919 212.823 472.445 212.078C472.971 211.328 473.606 210.758 474.351 210.367C475.096 209.977 475.932 209.781 476.859 209.781C477.812 209.781 478.659 209.969 479.398 210.344C480.138 210.719 480.737 211.237 481.195 211.898C481.659 212.56 481.953 213.312 482.078 214.156H479.695C479.534 213.49 479.213 212.945 478.734 212.523C478.255 212.102 477.63 211.891 476.859 211.891C475.687 211.891 474.773 212.401 474.117 213.422C473.466 214.443 473.138 215.862 473.133 217.68H473.25C473.526 217.227 473.864 216.841 474.265 216.523C474.672 216.201 475.125 215.953 475.625 215.781C476.13 215.604 476.661 215.516 477.218 215.516C478.146 215.516 478.984 215.742 479.734 216.195C480.489 216.643 481.091 217.263 481.539 218.055C481.987 218.846 482.211 219.753 482.211 220.773C482.211 221.794 481.979 222.719 481.515 223.547C481.057 224.375 480.411 225.031 479.578 225.516C478.744 225.995 477.771 226.229 476.656 226.219ZM476.648 224.187C477.263 224.187 477.812 224.036 478.297 223.734C478.781 223.432 479.164 223.026 479.445 222.516C479.726 222.005 479.867 221.435 479.867 220.805C479.867 220.19 479.729 219.63 479.453 219.125C479.182 218.62 478.807 218.219 478.328 217.922C477.854 217.625 477.312 217.477 476.703 217.477C476.239 217.477 475.81 217.565 475.414 217.742C475.023 217.919 474.679 218.164 474.383 218.477C474.086 218.789 473.851 219.148 473.679 219.555C473.513 219.956 473.429 220.38 473.429 220.828C473.429 221.427 473.567 221.982 473.843 222.492C474.125 223.003 474.508 223.414 474.992 223.727C475.481 224.034 476.034 224.187 476.648 224.187ZM490.24 226.219C489.12 226.219 488.131 226.026 487.271 225.641C486.417 225.255 485.748 224.724 485.263 224.047C484.779 223.37 484.54 222.599 484.545 221.734C484.54 221.057 484.678 220.435 484.959 219.867C485.245 219.294 485.633 218.818 486.123 218.438C486.612 218.052 487.159 217.807 487.763 217.703V217.609C486.967 217.417 486.329 216.99 485.849 216.328C485.37 215.667 485.133 214.906 485.138 214.047C485.133 213.229 485.349 212.5 485.787 211.859C486.23 211.214 486.836 210.706 487.607 210.336C488.378 209.966 489.256 209.781 490.24 209.781C491.214 209.781 492.084 209.969 492.849 210.344C493.62 210.714 494.227 211.221 494.67 211.867C495.112 212.508 495.336 213.234 495.342 214.047C495.336 214.906 495.092 215.667 494.607 216.328C494.123 216.99 493.493 217.417 492.717 217.609V217.703C493.316 217.807 493.855 218.052 494.334 218.438C494.818 218.818 495.204 219.294 495.49 219.867C495.782 220.435 495.93 221.057 495.935 221.734C495.93 222.599 495.685 223.37 495.201 224.047C494.717 224.724 494.045 225.255 493.185 225.641C492.331 226.026 491.349 226.219 490.24 226.219ZM490.24 224.242C490.901 224.242 491.474 224.133 491.959 223.914C492.443 223.69 492.818 223.38 493.084 222.984C493.349 222.583 493.485 222.115 493.49 221.578C493.485 221.021 493.339 220.529 493.053 220.102C492.771 219.674 492.388 219.339 491.904 219.094C491.42 218.849 490.865 218.727 490.24 218.727C489.61 218.727 489.05 218.849 488.56 219.094C488.071 219.339 487.685 219.674 487.404 220.102C487.123 220.529 486.985 221.021 486.99 221.578C486.985 222.115 487.112 222.583 487.373 222.984C487.638 223.38 488.016 223.69 488.506 223.914C488.995 224.133 489.573 224.242 490.24 224.242ZM490.24 216.797C490.771 216.797 491.243 216.69 491.654 216.477C492.066 216.263 492.388 215.966 492.623 215.586C492.862 215.206 492.985 214.76 492.99 214.25C492.985 213.75 492.865 213.313 492.631 212.938C492.401 212.562 492.081 212.273 491.67 212.07C491.258 211.862 490.782 211.758 490.24 211.758C489.688 211.758 489.204 211.862 488.787 212.07C488.375 212.273 488.055 212.562 487.826 212.938C487.597 213.313 487.485 213.75 487.49 214.25C487.485 214.76 487.599 215.206 487.834 215.586C488.068 215.966 488.391 216.263 488.803 216.477C489.219 216.69 489.698 216.797 490.24 216.797ZM501.109 223.812L500.992 224.664C500.914 225.289 500.781 225.94 500.594 226.617C500.411 227.299 500.221 227.932 500.023 228.516C499.831 229.099 499.672 229.563 499.547 229.906H497.891C497.958 229.583 498.052 229.146 498.172 228.594C498.292 228.047 498.409 227.435 498.523 226.758C498.638 226.081 498.724 225.391 498.781 224.687L498.859 223.812H501.109ZM509.178 226.219C508.199 226.219 507.318 226.031 506.537 225.656C505.761 225.276 505.141 224.755 504.678 224.094C504.214 223.432 503.967 222.677 503.936 221.828H506.279C506.337 222.516 506.641 223.081 507.193 223.523C507.745 223.966 508.407 224.187 509.178 224.187C509.792 224.187 510.337 224.047 510.811 223.766C511.29 223.479 511.665 223.086 511.936 222.586C512.212 222.086 512.35 221.516 512.35 220.875C512.35 220.224 512.209 219.643 511.928 219.133C511.646 218.622 511.258 218.221 510.764 217.93C510.274 217.638 509.712 217.49 509.076 217.484C508.592 217.484 508.105 217.568 507.615 217.734C507.126 217.901 506.73 218.12 506.428 218.391L504.217 218.062L505.115 210H513.912V212.07H507.123L506.615 216.547H506.709C507.021 216.245 507.436 215.992 507.951 215.789C508.472 215.586 509.029 215.484 509.623 215.484C510.597 215.484 511.464 215.716 512.225 216.18C512.99 216.643 513.592 217.276 514.029 218.078C514.472 218.875 514.691 219.792 514.686 220.828C514.691 221.865 514.456 222.789 513.982 223.602C513.514 224.414 512.863 225.055 512.029 225.523C511.201 225.987 510.251 226.219 509.178 226.219Z" fill="#CFCFCF"/>
<defs>
<linearGradient id="paint0_linear_3326_3149" x1="537.482" y1="593.5" x2="537.482" y2="685.5" gradientUnits="userSpaceOnUse">
<stop stop-color="#D9D9D9"/>
<stop offset="1" stop-color="#D9D9D9" stop-opacity="0"/>
</linearGradient>
<linearGradient id="paint1_linear_3326_3149" x1="794.483" y1="280.692" x2="794.483" y2="373" gradientUnits="userSpaceOnUse">
<stop stop-color="#D9D9D9"/>
<stop offset="1" stop-color="#D9D9D9" stop-opacity="0"/>
</linearGradient>
<linearGradient id="paint2_linear_3326_3149" x1="285.512" y1="222.923" x2="285.512" y2="373" gradientUnits="userSpaceOnUse">
<stop stop-color="#04B34A"/>
<stop offset="0.0666667" stop-color="#04B34A" stop-opacity="0.991353"/>
<stop offset="0.133333" stop-color="#04B34A" stop-opacity="0.96449"/>
<stop offset="0.2" stop-color="#04B34A" stop-opacity="0.91834"/>
<stop offset="0.266667" stop-color="#04B34A" stop-opacity="0.852589"/>
<stop offset="0.333333" stop-color="#04B34A" stop-opacity="0.768225"/>
<stop offset="0.4" stop-color="#04B34A" stop-opacity="0.668116"/>
<stop offset="0.466667" stop-color="#04B34A" stop-opacity="0.557309"/>
<stop offset="0.533333" stop-color="#04B34A" stop-opacity="0.442691"/>
<stop offset="0.6" stop-color="#04B34A" stop-opacity="0.331884"/>
<stop offset="0.666667" stop-color="#04B34A" stop-opacity="0.231775"/>
<stop offset="0.733333" stop-color="#04B34A" stop-opacity="0.147411"/>
<stop offset="0.8" stop-color="#04B34A" stop-opacity="0.0816599"/>
<stop offset="0.866667" stop-color="#04B34A" stop-opacity="0.03551"/>
<stop offset="0.933333" stop-color="#04B34A" stop-opacity="0.01"/>
<stop offset="1" stop-color="#04B34A" stop-opacity="0"/>
</linearGradient>
</defs>
</svg>
