<svg width="1080" height="1085" viewBox="0 0 1080 1085" fill="none" xmlns="http://www.w3.org/2000/svg">
<rect width="1080" height="1085" fill="white"/>
<path d="M915.587 49L912.911 64.8629H915.891L914.181 75H908.668L909.483 70.1698H895.329L894.514 75H889L890.71 64.8629H892.824C893.79 63.5513 894.707 61.8209 895.74 58.1838L898.364 49H915.59H915.587ZM908.584 54.3069H902.535L901.369 58.3918C900.354 61.9393 899.515 63.5484 898.667 64.8629H906.805L908.584 54.3069Z" fill="#EAECEF"/>
<path d="M920.448 49H933.56C938.18 49 940.257 51.3544 939.681 54.7547C939.314 56.93 937.677 58.3311 936.141 58.958C937.818 59.6138 939.146 61.2836 938.663 64.1464C938.05 67.7836 935.085 70.1698 930.167 70.1698H916.875L920.448 49ZM924.295 61.7024L923.67 65.4002H929.69C931.298 65.4002 932.293 64.8051 932.504 63.5513C932.721 62.2687 931.923 61.7024 930.312 61.7024H924.292H924.295ZM925.631 53.7724L925.099 56.9329H931.029C932.282 56.9329 933.161 56.4851 933.352 55.3527C933.543 54.2202 932.814 53.7724 931.561 53.7724H925.631Z" fill="#EAECEF"/>
<path d="M943.47 49H949.579L947.427 61.7602L958.906 49H965.015L961.445 70.1698H955.336L957.479 57.4673L946.01 70.1698H939.9L943.47 49Z" fill="#EAECEF"/>
<path d="M974.098 59.1978L966.907 49H973.821L979.812 57.6464L981.272 49H987.084L985.626 57.6464L994.536 49H1001.3L990.954 58.9291L998.177 70.1698H990.815L985.039 61.1362L983.514 70.1698H977.703L979.227 61.1362L970.402 70.1698H963.309L974.101 59.1978H974.098Z" fill="#EAECEF"/>
<path d="M1010.23 49H1003.13L1010.19 58.9291L999.713 70.1698H1006.81L1017.29 58.9291L1010.23 49ZM1021.44 49H1014.34L1021.41 58.9291L1010.93 70.1698H1018.02L1028.5 58.9291L1021.44 49ZM1032.94 49H1025.85L1032.91 58.9291L1022.43 70.1698H1029.52L1040 58.9291L1032.94 49Z" fill="#EAECEF"/>
<path d="M41.2784 53.3821V48.8182H62.7812V53.3821H54.7656V75H49.294V53.3821H41.2784ZM67.9442 67.8153L75.0138 55.3636H80.3832V75H75.1928V62.5099L68.1488 75H62.7411V55.3636H67.9442V67.8153ZM83.3089 75V55.3636H100.478V75H95.2748V59.6463H88.4481V75H83.3089ZM115.48 67.8153L122.549 55.3636H127.919V75H122.728V62.5099L115.684 75H110.277V55.3636H115.48V67.8153ZM130.844 75V55.3636H148.013V75H142.81V59.6463H135.984V75H130.844ZM159.792 75.3835C157.806 75.3835 156.089 74.9616 154.64 74.1179C153.2 73.2656 152.088 72.081 151.304 70.5639C150.519 69.0384 150.127 67.2699 150.127 65.2585C150.127 63.2301 150.519 61.4574 151.304 59.9403C152.088 58.4148 153.2 57.2301 154.64 56.3864C156.089 55.5341 157.806 55.108 159.792 55.108C161.778 55.108 163.491 55.5341 164.931 56.3864C166.38 57.2301 167.497 58.4148 168.281 59.9403C169.065 61.4574 169.457 63.2301 169.457 65.2585C169.457 67.2699 169.065 69.0384 168.281 70.5639C167.497 72.081 166.38 73.2656 164.931 74.1179C163.491 74.9616 161.778 75.3835 159.792 75.3835ZM159.818 71.1648C160.721 71.1648 161.475 70.9091 162.081 70.3977C162.686 69.8778 163.142 69.1705 163.448 68.2756C163.764 67.3807 163.921 66.3622 163.921 65.2202C163.921 64.0781 163.764 63.0597 163.448 62.1648C163.142 61.2699 162.686 60.5625 162.081 60.0426C161.475 59.5227 160.721 59.2628 159.818 59.2628C158.906 59.2628 158.139 59.5227 157.517 60.0426C156.903 60.5625 156.438 61.2699 156.123 62.1648C155.816 63.0597 155.663 64.0781 155.663 65.2202C155.663 66.3622 155.816 67.3807 156.123 68.2756C156.438 69.1705 156.903 69.8778 157.517 70.3977C158.139 70.9091 158.906 71.1648 159.818 71.1648ZM169.657 59.6463V55.3636H187.452V59.6463H181.124V75H175.933V59.6463H169.657ZM197.559 75.3835C195.539 75.3835 193.801 74.9744 192.343 74.1562C190.894 73.3295 189.778 72.1619 188.994 70.6534C188.21 69.1364 187.818 67.3423 187.818 65.2713C187.818 63.2514 188.21 61.4787 188.994 59.9531C189.778 58.4276 190.882 57.2386 192.305 56.3864C193.737 55.5341 195.416 55.108 197.342 55.108C198.637 55.108 199.843 55.3168 200.96 55.7344C202.085 56.1435 203.065 56.7614 203.9 57.5881C204.744 58.4148 205.4 59.4545 205.869 60.7074C206.338 61.9517 206.572 63.4091 206.572 65.0795V66.5753H189.991V63.2003H201.446C201.446 62.4162 201.275 61.7216 200.934 61.1165C200.593 60.5114 200.12 60.0384 199.515 59.6974C198.919 59.348 198.224 59.1733 197.431 59.1733C196.605 59.1733 195.872 59.3651 195.232 59.7486C194.602 60.1236 194.107 60.6307 193.75 61.2699C193.392 61.9006 193.208 62.6037 193.2 63.3793V66.5881C193.2 67.5597 193.379 68.3991 193.737 69.1065C194.103 69.8139 194.619 70.3594 195.284 70.7429C195.948 71.1264 196.737 71.3182 197.649 71.3182C198.254 71.3182 198.808 71.233 199.311 71.0625C199.813 70.892 200.244 70.6364 200.602 70.2955C200.96 69.9545 201.232 69.5369 201.42 69.0426L206.457 69.375C206.201 70.5852 205.677 71.642 204.884 72.5455C204.1 73.4403 203.086 74.1392 201.842 74.642C200.606 75.1364 199.179 75.3835 197.559 75.3835ZM208.686 75V55.3636H214.132V62.983H215.666L221.01 55.3636H227.402L220.46 65.1051L227.479 75H221.01L216.165 68.0327H214.132V75H208.686ZM233.543 67.8153L240.612 55.3636H245.982V75H240.791V62.5099L233.747 75H228.34V55.3636H233.543V67.8153Z" fill="black"/>
<rect x="40" y="124" width="1000" height="295" rx="20" fill="#F7F7F7"/>
<path opacity="0.6" d="M67.4964 150.326H65.1058C65.0376 149.934 64.9119 149.587 64.7287 149.284C64.5455 148.977 64.3175 148.717 64.0447 148.504C63.772 148.291 63.4609 148.131 63.1115 148.025C62.7663 147.914 62.3935 147.859 61.9929 147.859C61.2813 147.859 60.6506 148.038 60.1009 148.396C59.5511 148.749 59.1207 149.269 58.8097 149.955C58.4986 150.637 58.343 151.47 58.343 152.455C58.343 153.456 58.4986 154.3 58.8097 154.986C59.125 155.668 59.5554 156.183 60.1009 156.533C60.6506 156.878 61.2791 157.05 61.9865 157.05C62.3786 157.05 62.745 156.999 63.0859 156.897C63.4311 156.79 63.7401 156.635 64.0128 156.43C64.2898 156.226 64.522 155.974 64.7095 155.676C64.9013 155.378 65.0334 155.037 65.1058 154.653L67.4964 154.666C67.407 155.288 67.2131 155.872 66.9148 156.418C66.6207 156.963 66.2351 157.445 65.7578 157.862C65.2805 158.276 64.7223 158.599 64.0831 158.834C63.4439 159.064 62.7344 159.179 61.9545 159.179C60.804 159.179 59.777 158.913 58.8736 158.38C57.9702 157.847 57.2585 157.078 56.7386 156.072C56.2188 155.067 55.9588 153.861 55.9588 152.455C55.9588 151.044 56.2209 149.838 56.745 148.837C57.2692 147.831 57.983 147.062 58.8864 146.529C59.7898 145.996 60.8125 145.73 61.9545 145.73C62.6832 145.73 63.3608 145.832 63.9872 146.037C64.6136 146.241 65.1719 146.542 65.6619 146.938C66.152 147.33 66.5547 147.812 66.87 148.383C67.1896 148.95 67.3984 149.597 67.4964 150.326ZM70.8929 147.897V145.909H81.3375V147.897H77.2913V159H74.939V147.897H70.8929ZM85.25 159H82.7188L87.3275 145.909H90.255L94.8701 159H92.3388L88.8424 148.594H88.7401L85.25 159ZM85.3331 153.867H92.2365V155.772H85.3331V153.867ZM98.3943 159V145.909H100.766V151.451H106.832V145.909H109.21V159H106.832V153.439H100.766V159H98.3943ZM112.739 162.158V157.063H113.614C113.908 156.829 114.183 156.499 114.439 156.072C114.695 155.646 114.912 155.062 115.091 154.321C115.27 153.58 115.394 152.621 115.462 151.445L115.807 145.909H124.174V157.063H125.631V162.145H123.356V159H115.014V162.158H112.739ZM116.376 157.063H121.899V147.897H117.942L117.737 151.445C117.682 152.335 117.592 153.132 117.469 153.835C117.345 154.538 117.19 155.158 117.002 155.695C116.815 156.228 116.606 156.684 116.376 157.063ZM131.045 159H128.513L133.122 145.909H136.05L140.665 159H138.133L134.637 148.594H134.535L131.045 159ZM131.128 153.867H138.031V155.772H131.128V153.867ZM144.189 159V145.909H149.098C150.104 145.909 150.947 146.097 151.629 146.472C152.315 146.847 152.833 147.362 153.182 148.018C153.536 148.67 153.713 149.412 153.713 150.243C153.713 151.082 153.536 151.828 153.182 152.48C152.829 153.132 152.307 153.646 151.616 154.021C150.926 154.391 150.076 154.577 149.066 154.577H145.812V152.627H148.746C149.334 152.627 149.816 152.525 150.191 152.32C150.566 152.116 150.843 151.835 151.022 151.477C151.205 151.119 151.297 150.707 151.297 150.243C151.297 149.778 151.205 149.369 151.022 149.016C150.843 148.662 150.564 148.387 150.185 148.191C149.81 147.991 149.326 147.891 148.734 147.891H146.56V159H144.189ZM156.998 147.897V145.909H167.442V147.897H163.396V159H161.044V147.897H156.998ZM171.256 159V145.909H173.627V151.451H179.693V145.909H182.071V159H179.693V153.439H173.627V159H171.256ZM188.131 159H185.6L190.209 145.909H193.136L197.751 159H195.22L191.724 148.594H191.621L188.131 159ZM188.214 153.867H195.118V155.772H188.214V153.867ZM210.94 159H208.562V147.891H206.389C205.801 147.891 205.317 147.978 204.938 148.153C204.563 148.323 204.284 148.575 204.101 148.907C203.922 149.235 203.832 149.631 203.832 150.096C203.832 150.56 203.922 150.952 204.101 151.272C204.28 151.587 204.557 151.828 204.932 151.994C205.311 152.156 205.793 152.237 206.376 152.237H209.56V154.206H206.057C205.051 154.206 204.203 154.04 203.513 153.707C202.822 153.371 202.298 152.896 201.94 152.282C201.587 151.664 201.41 150.935 201.41 150.096C201.41 149.261 201.585 148.53 201.934 147.903C202.288 147.273 202.808 146.783 203.494 146.433C204.18 146.084 205.023 145.909 206.025 145.909H210.94V159ZM204.171 153.068H206.76L203.577 159H200.93L204.171 153.068Z" fill="black"/>
<path opacity="0.4" d="M1019.95 372.5H55V262L690 278.5C690 278.5 1014.39 224.867 1019.95 223.047V223C1020.05 223 1020.05 223.016 1019.95 223.047V372.5Z" fill="url(#paint0_linear_3326_2785)"/>
<rect x="1015.19" y="218" width="10.2717" height="10.2717" rx="5.13587" fill="#04B34A"/>
<path d="M1017.5 224L692.823 279.517C690.946 279.838 689.041 279.974 687.137 279.921L55 262.5" stroke="#04B34A" stroke-width="4"/>
<path d="M875.074 392.555V368.197L865.989 377.316L862 373.362L877.955 357.441L893.875 373.362L889.955 377.316L880.835 368.197V392.555H875.074Z" fill="#04B34A"/>
<path d="M905.481 385.864V380.051L920.055 357.091H925.066V365.136H922.1L912.913 379.676V379.949H933.623V385.864H905.481ZM922.237 392V384.091L922.373 381.517V357.091H929.293V392H922.237ZM945.352 387.227L945.165 389.102C945.017 390.602 944.733 392.097 944.312 393.585C943.903 395.085 943.472 396.443 943.017 397.659C942.574 398.875 942.216 399.83 941.943 400.523H937.239C937.409 399.852 937.642 398.915 937.938 397.71C938.233 396.517 938.511 395.176 938.773 393.688C939.034 392.199 939.199 390.682 939.267 389.136L939.352 387.227H945.352ZM963.21 392.477C960.664 392.477 958.397 392.04 956.408 391.165C954.431 390.278 952.869 389.062 951.721 387.517C950.585 385.96 949.999 384.165 949.965 382.131H957.397C957.442 382.983 957.721 383.733 958.232 384.381C958.755 385.017 959.448 385.511 960.312 385.864C961.175 386.216 962.147 386.392 963.227 386.392C964.352 386.392 965.346 386.193 966.21 385.795C967.073 385.398 967.749 384.847 968.238 384.142C968.727 383.437 968.971 382.625 968.971 381.705C968.971 380.773 968.71 379.949 968.187 379.233C967.675 378.506 966.937 377.937 965.971 377.528C965.016 377.119 963.88 376.915 962.562 376.915H959.306V371.494H962.562C963.675 371.494 964.658 371.301 965.511 370.915C966.374 370.528 967.045 369.994 967.522 369.312C967.999 368.619 968.238 367.812 968.238 366.892C968.238 366.017 968.028 365.25 967.607 364.591C967.198 363.92 966.619 363.398 965.869 363.023C965.13 362.648 964.266 362.46 963.278 362.46C962.278 362.46 961.363 362.642 960.533 363.006C959.704 363.358 959.039 363.864 958.539 364.523C958.039 365.182 957.772 365.955 957.738 366.841H950.664C950.698 364.83 951.272 363.057 952.386 361.523C953.499 359.989 954.999 358.79 956.886 357.926C958.783 357.051 960.925 356.614 963.312 356.614C965.721 356.614 967.829 357.051 969.636 357.926C971.442 358.801 972.846 359.983 973.846 361.472C974.857 362.949 975.357 364.608 975.346 366.449C975.357 368.403 974.749 370.034 973.522 371.341C972.306 372.648 970.721 373.477 968.766 373.83V374.102C971.335 374.432 973.289 375.324 974.63 376.778C975.982 378.222 976.653 380.028 976.641 382.199C976.653 384.188 976.079 385.955 974.92 387.5C973.772 389.045 972.187 390.261 970.164 391.148C968.141 392.034 965.823 392.477 963.21 392.477ZM1000.56 385.455V383.614C1000.56 382.216 1000.86 380.932 1001.45 379.761C1002.05 378.58 1002.92 377.636 1004.06 376.932C1005.2 376.216 1006.6 375.858 1008.25 375.858C1009.92 375.858 1011.32 376.21 1012.46 376.915C1013.61 377.619 1014.47 378.562 1015.05 379.744C1015.64 380.915 1015.94 382.205 1015.94 383.614V385.455C1015.94 386.852 1015.64 388.142 1015.05 389.324C1014.46 390.494 1013.59 391.432 1012.44 392.136C1011.3 392.852 1009.9 393.21 1008.25 393.21C1006.58 393.21 1005.18 392.852 1004.04 392.136C1002.9 391.432 1002.04 390.494 1001.45 389.324C1000.86 388.142 1000.56 386.852 1000.56 385.455ZM1005.52 383.614V385.455C1005.52 386.261 1005.72 387.023 1006.1 387.739C1006.5 388.455 1007.22 388.812 1008.25 388.812C1009.28 388.812 1009.99 388.46 1010.36 387.756C1010.75 387.051 1010.94 386.284 1010.94 385.455V383.614C1010.94 382.784 1010.76 382.011 1010.4 381.295C1010.03 380.58 1009.32 380.222 1008.25 380.222C1007.23 380.222 1006.52 380.58 1006.12 381.295C1005.72 382.011 1005.52 382.784 1005.52 383.614ZM982.648 365.477V363.636C982.648 362.227 982.949 360.937 983.551 359.767C984.153 358.585 985.023 357.642 986.159 356.938C987.307 356.233 988.693 355.881 990.318 355.881C992 355.881 993.409 356.233 994.545 356.938C995.682 357.642 996.545 358.585 997.136 359.767C997.727 360.937 998.023 362.227 998.023 363.636V365.477C998.023 366.886 997.722 368.176 997.119 369.347C996.528 370.517 995.659 371.455 994.511 372.159C993.375 372.852 991.977 373.199 990.318 373.199C988.659 373.199 987.256 372.847 986.108 372.142C984.972 371.426 984.108 370.489 983.517 369.33C982.938 368.159 982.648 366.875 982.648 365.477ZM987.642 363.636V365.477C987.642 366.307 987.835 367.074 988.222 367.778C988.619 368.483 989.318 368.835 990.318 368.835C991.364 368.835 992.074 368.483 992.449 367.778C992.835 367.074 993.028 366.307 993.028 365.477V363.636C993.028 362.807 992.847 362.034 992.483 361.318C992.119 360.602 991.398 360.244 990.318 360.244C989.307 360.244 988.608 360.608 988.222 361.335C987.835 362.062 987.642 362.83 987.642 363.636ZM984.898 392L1008.9 357.091H1013.36L989.364 392H984.898Z" fill="black"/>
<path d="M62.1094 248.219C61.0365 248.219 60.0781 248.034 59.2344 247.664C58.3958 247.294 57.7318 246.781 57.2422 246.125C56.7578 245.464 56.4974 244.698 56.4609 243.828H58.9141C58.9453 244.302 59.1042 244.714 59.3906 245.062C59.6823 245.406 60.0625 245.672 60.5313 245.859C61 246.047 61.5208 246.141 62.0938 246.141C62.724 246.141 63.2813 246.031 63.7656 245.812C64.2552 245.594 64.638 245.289 64.9141 244.898C65.1901 244.503 65.3281 244.047 65.3281 243.531C65.3281 242.995 65.1901 242.523 64.9141 242.117C64.6432 241.706 64.2448 241.383 63.7188 241.148C63.1979 240.914 62.5677 240.797 61.8281 240.797H60.4766V238.828H61.8281C62.4219 238.828 62.9427 238.721 63.3906 238.508C63.8438 238.294 64.1979 237.997 64.4531 237.617C64.7083 237.232 64.8359 236.781 64.8359 236.266C64.8359 235.771 64.724 235.341 64.5 234.977C64.2813 234.607 63.9688 234.318 63.5625 234.109C63.1615 233.901 62.6875 233.797 62.1406 233.797C61.6198 233.797 61.1328 233.893 60.6797 234.086C60.2318 234.273 59.8672 234.544 59.5859 234.898C59.3047 235.247 59.1536 235.667 59.1328 236.156H56.7969C56.8229 235.292 57.0781 234.531 57.5625 233.875C58.0521 233.219 58.6979 232.706 59.5 232.336C60.3021 231.966 61.1927 231.781 62.1719 231.781C63.1979 231.781 64.0833 231.982 64.8281 232.383C65.5781 232.779 66.1563 233.307 66.5625 233.969C66.974 234.63 67.1771 235.354 67.1719 236.141C67.1771 237.036 66.9271 237.797 66.4219 238.422C65.9219 239.047 65.2552 239.466 64.4219 239.68V239.805C65.4844 239.966 66.3073 240.388 66.8906 241.07C67.4792 241.753 67.7708 242.599 67.7656 243.609C67.7708 244.49 67.526 245.279 67.0312 245.977C66.5417 246.674 65.8724 247.224 65.0234 247.625C64.1745 248.021 63.2031 248.219 62.1094 248.219ZM76.5665 232V248H74.1446V234.422H74.0509L70.2228 236.922V234.609L74.2149 232H76.5665ZM82.8186 245.812L82.7014 246.664C82.6233 247.289 82.4904 247.94 82.3029 248.617C82.1206 249.299 81.9305 249.932 81.7326 250.516C81.5399 251.099 81.3811 251.563 81.2561 251.906H79.5998C79.6675 251.583 79.7613 251.146 79.8811 250.594C80.0009 250.047 80.118 249.435 80.2326 248.758C80.3472 248.081 80.4331 247.391 80.4904 246.687L80.5686 245.812H82.8186ZM90.8538 248.266C89.6194 248.26 88.5648 247.935 87.6898 247.289C86.8148 246.643 86.1455 245.703 85.6819 244.469C85.2184 243.234 84.9866 241.747 84.9866 240.008C84.9866 238.273 85.2184 236.792 85.6819 235.562C86.1507 234.333 86.8226 233.396 87.6976 232.75C88.5778 232.104 89.6299 231.781 90.8538 231.781C92.0778 231.781 93.1273 232.107 94.0023 232.758C94.8773 233.404 95.5465 234.341 96.0101 235.57C96.4788 236.794 96.7132 238.273 96.7132 240.008C96.7132 241.753 96.4814 243.242 96.0179 244.477C95.5543 245.706 94.8851 246.646 94.0101 247.297C93.1351 247.943 92.083 248.266 90.8538 248.266ZM90.8538 246.18C91.9372 246.18 92.7835 245.651 93.3929 244.594C94.0075 243.536 94.3148 242.008 94.3148 240.008C94.3148 238.68 94.1741 237.557 93.8929 236.641C93.6168 235.719 93.2184 235.021 92.6976 234.547C92.1819 234.068 91.5674 233.828 90.8538 233.828C89.7757 233.828 88.9293 234.359 88.3148 235.422C87.7002 236.484 87.3903 238.013 87.3851 240.008C87.3851 241.341 87.5231 242.469 87.7991 243.391C88.0804 244.307 88.4788 245.003 88.9944 245.477C89.5101 245.945 90.1299 246.18 90.8538 246.18Z" fill="#CFCFCF"/>
<path d="M981.597 205.219C980.524 205.219 979.566 205.034 978.722 204.664C977.884 204.294 977.22 203.781 976.73 203.125C976.246 202.464 975.985 201.698 975.949 200.828H978.402C978.433 201.302 978.592 201.714 978.879 202.062C979.17 202.406 979.55 202.672 980.019 202.859C980.488 203.047 981.009 203.141 981.582 203.141C982.212 203.141 982.769 203.031 983.254 202.812C983.743 202.594 984.126 202.289 984.402 201.898C984.678 201.503 984.816 201.047 984.816 200.531C984.816 199.995 984.678 199.523 984.402 199.117C984.131 198.706 983.733 198.383 983.207 198.148C982.686 197.914 982.056 197.797 981.316 197.797H979.965V195.828H981.316C981.91 195.828 982.431 195.721 982.879 195.508C983.332 195.294 983.686 194.997 983.941 194.617C984.196 194.232 984.324 193.781 984.324 193.266C984.324 192.771 984.212 192.341 983.988 191.977C983.769 191.607 983.457 191.318 983.05 191.109C982.649 190.901 982.175 190.797 981.629 190.797C981.108 190.797 980.621 190.893 980.168 191.086C979.72 191.273 979.355 191.544 979.074 191.898C978.793 192.247 978.642 192.667 978.621 193.156H976.285C976.311 192.292 976.566 191.531 977.05 190.875C977.54 190.219 978.186 189.706 978.988 189.336C979.79 188.966 980.681 188.781 981.66 188.781C982.686 188.781 983.571 188.982 984.316 189.383C985.066 189.779 985.644 190.307 986.05 190.969C986.462 191.63 986.665 192.354 986.66 193.141C986.665 194.036 986.415 194.797 985.91 195.422C985.41 196.047 984.743 196.466 983.91 196.68V196.805C984.972 196.966 985.795 197.388 986.379 198.07C986.967 198.753 987.259 199.599 987.254 200.609C987.259 201.49 987.014 202.279 986.519 202.977C986.03 203.674 985.36 204.224 984.511 204.625C983.662 205.021 982.691 205.219 981.597 205.219ZM995.265 205.219C994.286 205.219 993.406 205.031 992.625 204.656C991.849 204.276 991.229 203.755 990.765 203.094C990.302 202.432 990.054 201.677 990.023 200.828H992.367C992.424 201.516 992.729 202.081 993.281 202.523C993.833 202.966 994.495 203.187 995.265 203.187C995.88 203.187 996.424 203.047 996.898 202.766C997.377 202.479 997.752 202.086 998.023 201.586C998.299 201.086 998.437 200.516 998.437 199.875C998.437 199.224 998.297 198.643 998.015 198.133C997.734 197.622 997.346 197.221 996.851 196.93C996.362 196.638 995.799 196.49 995.164 196.484C994.679 196.484 994.193 196.568 993.703 196.734C993.213 196.901 992.818 197.12 992.515 197.391L990.304 197.062L991.203 189H1000V191.07H993.211L992.703 195.547H992.797C993.109 195.245 993.523 194.992 994.039 194.789C994.56 194.586 995.117 194.484 995.711 194.484C996.685 194.484 997.552 194.716 998.312 195.18C999.078 195.643 999.679 196.276 1000.12 197.078C1000.56 197.875 1000.78 198.792 1000.77 199.828C1000.78 200.865 1000.54 201.789 1000.07 202.602C999.601 203.414 998.95 204.055 998.117 204.523C997.289 204.987 996.338 205.219 995.265 205.219ZM1005.89 202.812L1005.78 203.664C1005.7 204.289 1005.57 204.94 1005.38 205.617C1005.2 206.299 1005.01 206.932 1004.81 207.516C1004.62 208.099 1004.46 208.563 1004.33 208.906H1002.68C1002.74 208.583 1002.84 208.146 1002.96 207.594C1003.08 207.047 1003.19 206.435 1003.31 205.758C1003.42 205.081 1003.51 204.391 1003.57 203.687L1003.64 202.812H1005.89ZM1013.93 205.219C1012.86 205.219 1011.9 205.034 1011.05 204.664C1010.22 204.294 1009.55 203.781 1009.06 203.125C1008.58 202.464 1008.32 201.698 1008.28 200.828H1010.73C1010.77 201.302 1010.92 201.714 1011.21 202.062C1011.5 202.406 1011.88 202.672 1012.35 202.859C1012.82 203.047 1013.34 203.141 1013.91 203.141C1014.54 203.141 1015.1 203.031 1015.59 202.812C1016.08 202.594 1016.46 202.289 1016.73 201.898C1017.01 201.503 1017.15 201.047 1017.15 200.531C1017.15 199.995 1017.01 199.523 1016.73 199.117C1016.46 198.706 1016.07 198.383 1015.54 198.148C1015.02 197.914 1014.39 197.797 1013.65 197.797H1012.3V195.828H1013.65C1014.24 195.828 1014.76 195.721 1015.21 195.508C1015.66 195.294 1016.02 194.997 1016.27 194.617C1016.53 194.232 1016.66 193.781 1016.66 193.266C1016.66 192.771 1016.54 192.341 1016.32 191.977C1016.1 191.607 1015.79 191.318 1015.38 191.109C1014.98 190.901 1014.51 190.797 1013.96 190.797C1013.44 190.797 1012.95 190.893 1012.5 191.086C1012.05 191.273 1011.69 191.544 1011.41 191.898C1011.13 192.247 1010.97 192.667 1010.95 193.156H1008.62C1008.64 192.292 1008.9 191.531 1009.38 190.875C1009.87 190.219 1010.52 189.706 1011.32 189.336C1012.12 188.966 1013.01 188.781 1013.99 188.781C1015.02 188.781 1015.9 188.982 1016.65 189.383C1017.4 189.779 1017.98 190.307 1018.38 190.969C1018.79 191.63 1019 192.354 1018.99 193.141C1019 194.036 1018.75 194.797 1018.24 195.422C1017.74 196.047 1017.08 196.466 1016.24 196.68V196.805C1017.3 196.966 1018.13 197.388 1018.71 198.07C1019.3 198.753 1019.59 199.599 1019.59 200.609C1019.59 201.49 1019.35 202.279 1018.85 202.977C1018.36 203.674 1017.69 204.224 1016.84 204.625C1015.99 205.021 1015.02 205.219 1013.93 205.219Z" fill="#CFCFCF"/>
<rect x="40" y="437" width="491" height="295" rx="20" fill="#F7F7F7"/>
<path opacity="0.6" d="M67.4964 463.326H65.1058C65.0376 462.934 64.9119 462.587 64.7287 462.284C64.5455 461.977 64.3175 461.717 64.0447 461.504C63.772 461.291 63.4609 461.131 63.1115 461.025C62.7663 460.914 62.3935 460.859 61.9929 460.859C61.2813 460.859 60.6506 461.038 60.1009 461.396C59.5511 461.749 59.1207 462.269 58.8097 462.955C58.4986 463.637 58.343 464.47 58.343 465.455C58.343 466.456 58.4986 467.3 58.8097 467.986C59.125 468.668 59.5554 469.183 60.1009 469.533C60.6506 469.878 61.2791 470.05 61.9865 470.05C62.3786 470.05 62.745 469.999 63.0859 469.897C63.4311 469.79 63.7401 469.635 64.0128 469.43C64.2898 469.226 64.522 468.974 64.7095 468.676C64.9013 468.378 65.0334 468.037 65.1058 467.653L67.4964 467.666C67.407 468.288 67.2131 468.872 66.9148 469.418C66.6207 469.963 66.2351 470.445 65.7578 470.862C65.2805 471.276 64.7223 471.599 64.0831 471.834C63.4439 472.064 62.7344 472.179 61.9545 472.179C60.804 472.179 59.777 471.913 58.8736 471.38C57.9702 470.847 57.2585 470.078 56.7386 469.072C56.2188 468.067 55.9588 466.861 55.9588 465.455C55.9588 464.044 56.2209 462.838 56.745 461.837C57.2692 460.831 57.983 460.062 58.8864 459.529C59.7898 458.996 60.8125 458.73 61.9545 458.73C62.6832 458.73 63.3608 458.832 63.9872 459.037C64.6136 459.241 65.1719 459.542 65.6619 459.938C66.152 460.33 66.5547 460.812 66.87 461.383C67.1896 461.95 67.3984 462.597 67.4964 463.326ZM71.4681 472V458.909H79.9824V460.897H73.8396V464.451H79.5413V466.439H73.8396V470.012H80.0335V472H71.4681ZM84.2017 458.909H87.1037L90.9901 468.395H91.1435L95.0299 458.909H97.9319V472H95.6563V463.006H95.5348L91.9169 471.962H90.2167L86.5988 462.987H86.4773V472H84.2017V458.909ZM102.314 472V458.909H110.828V460.897H104.686V464.451H110.387V466.439H104.686V470.012H110.88V472H102.314ZM115.048 458.909H117.4V467.832H117.522L123.677 458.909H125.806V472H123.434V463.083H123.326L117.151 472H115.048V458.909ZM121.696 455.534H123.428C123.428 456.28 123.157 456.885 122.616 457.349C122.079 457.81 121.35 458.04 120.43 458.04C119.518 458.04 118.791 457.81 118.25 457.349C117.713 456.885 117.447 456.28 117.451 455.534H119.171C119.171 455.841 119.264 456.116 119.452 456.359C119.644 456.597 119.97 456.717 120.43 456.717C120.882 456.717 121.203 456.597 121.395 456.359C121.591 456.12 121.691 455.845 121.696 455.534ZM130.19 472V458.909H132.561V464.451H138.627V458.909H141.005V472H138.627V466.439H132.561V472H130.19ZM147.065 472H144.534L149.143 458.909H152.07L156.685 472H154.154L150.658 461.594H150.555L147.065 472ZM147.148 466.867H154.052V468.772H147.148V466.867ZM169.874 472H167.496V460.891H165.323C164.735 460.891 164.251 460.978 163.872 461.153C163.497 461.323 163.218 461.575 163.035 461.907C162.856 462.235 162.766 462.631 162.766 463.096C162.766 463.56 162.856 463.952 163.035 464.272C163.214 464.587 163.491 464.828 163.866 464.994C164.245 465.156 164.727 465.237 165.31 465.237H168.494V467.206H164.991C163.985 467.206 163.137 467.04 162.447 466.707C161.756 466.371 161.232 465.896 160.874 465.282C160.521 464.664 160.344 463.935 160.344 463.096C160.344 462.261 160.518 461.53 160.868 460.903C161.222 460.273 161.742 459.783 162.428 459.433C163.114 459.084 163.957 458.909 164.959 458.909H169.874V472ZM163.105 466.068H165.694L162.511 472H159.864L163.105 466.068Z" fill="black"/>
<path opacity="0.4" d="M55 685.5H510.991V597H353L55 528.5V685.5Z" fill="url(#paint1_linear_3326_2785)"/>
<rect x="506.188" y="592" width="10.2717" height="10.2717" rx="5.13587" fill="#CACACA"/>
<path d="M511.5 597.5H357.303C355.108 597.5 352.92 597.251 350.782 596.757L55 528.5" stroke="#CACACA" stroke-width="4"/>
<path d="M372.801 670.445L372.801 694.803L381.886 685.684L385.875 689.638L369.92 705.559L354 689.638L357.92 685.684L367.04 694.803L367.04 670.445L372.801 670.445Z" fill="#CACACA"/>
<path d="M411.366 705.477C408.82 705.477 406.553 705.04 404.565 704.165C402.587 703.278 401.025 702.062 399.877 700.517C398.741 698.96 398.156 697.165 398.121 695.131H405.553C405.599 695.983 405.877 696.733 406.388 697.381C406.911 698.017 407.604 698.511 408.468 698.864C409.332 699.216 410.303 699.392 411.383 699.392C412.508 699.392 413.502 699.193 414.366 698.795C415.229 698.398 415.906 697.847 416.394 697.142C416.883 696.437 417.127 695.625 417.127 694.705C417.127 693.773 416.866 692.949 416.343 692.233C415.832 691.506 415.093 690.937 414.127 690.528C413.173 690.119 412.036 689.915 410.718 689.915H407.462V684.494H410.718C411.832 684.494 412.815 684.301 413.667 683.915C414.531 683.528 415.201 682.994 415.678 682.312C416.156 681.619 416.394 680.812 416.394 679.892C416.394 679.017 416.184 678.25 415.763 677.591C415.354 676.92 414.775 676.398 414.025 676.023C413.286 675.648 412.423 675.46 411.434 675.46C410.434 675.46 409.519 675.642 408.69 676.006C407.86 676.358 407.195 676.864 406.695 677.523C406.195 678.182 405.928 678.955 405.894 679.841H398.82C398.854 677.83 399.428 676.057 400.542 674.523C401.656 672.989 403.156 671.79 405.042 670.926C406.94 670.051 409.082 669.614 411.468 669.614C413.877 669.614 415.985 670.051 417.792 670.926C419.599 671.801 421.002 672.983 422.002 674.472C423.013 675.949 423.513 677.608 423.502 679.449C423.513 681.403 422.906 683.034 421.678 684.341C420.462 685.648 418.877 686.477 416.923 686.83V687.102C419.491 687.432 421.445 688.324 422.786 689.778C424.138 691.222 424.809 693.028 424.798 695.199C424.809 697.188 424.235 698.955 423.076 700.5C421.928 702.045 420.343 703.261 418.32 704.148C416.298 705.034 413.979 705.477 411.366 705.477ZM436.587 700.227L436.399 702.102C436.251 703.602 435.967 705.097 435.547 706.585C435.138 708.085 434.706 709.443 434.251 710.659C433.808 711.875 433.45 712.83 433.178 713.523H428.473C428.643 712.852 428.876 711.915 429.172 710.71C429.467 709.517 429.746 708.176 430.007 706.688C430.268 705.199 430.433 703.682 430.501 702.136L430.587 700.227H436.587ZM454.657 705.477C452.862 705.466 451.129 705.165 449.458 704.574C447.799 703.983 446.31 703.023 444.992 701.693C443.674 700.364 442.629 698.602 441.856 696.409C441.094 694.216 440.714 691.523 440.714 688.33C440.725 685.398 441.06 682.778 441.719 680.472C442.39 678.153 443.344 676.187 444.583 674.574C445.833 672.96 447.327 671.733 449.066 670.892C450.805 670.04 452.754 669.614 454.913 669.614C457.242 669.614 459.299 670.068 461.083 670.977C462.867 671.875 464.299 673.097 465.379 674.642C466.469 676.188 467.129 677.92 467.356 679.841H460.077C459.793 678.625 459.197 677.67 458.288 676.977C457.379 676.284 456.254 675.938 454.913 675.938C452.64 675.938 450.913 676.926 449.731 678.903C448.56 680.881 447.964 683.568 447.941 686.966H448.18C448.702 685.932 449.407 685.051 450.293 684.324C451.191 683.585 452.208 683.023 453.344 682.636C454.492 682.239 455.702 682.04 456.975 682.04C459.043 682.04 460.884 682.528 462.498 683.506C464.112 684.472 465.384 685.801 466.316 687.494C467.248 689.187 467.714 691.125 467.714 693.307C467.714 695.67 467.163 697.773 466.06 699.614C464.969 701.455 463.441 702.898 461.475 703.943C459.521 704.977 457.248 705.489 454.657 705.477ZM454.623 699.682C455.759 699.682 456.776 699.409 457.674 698.864C458.572 698.318 459.276 697.58 459.788 696.648C460.299 695.716 460.555 694.67 460.555 693.511C460.555 692.352 460.299 691.312 459.788 690.392C459.288 689.472 458.594 688.739 457.708 688.193C456.822 687.648 455.81 687.375 454.674 687.375C453.822 687.375 453.032 687.534 452.305 687.852C451.589 688.17 450.958 688.614 450.413 689.182C449.879 689.75 449.458 690.409 449.151 691.159C448.844 691.898 448.691 692.687 448.691 693.528C448.691 694.653 448.947 695.682 449.458 696.614C449.981 697.545 450.685 698.29 451.572 698.847C452.469 699.403 453.487 699.682 454.623 699.682ZM491.562 698.455V696.614C491.562 695.216 491.858 693.932 492.449 692.761C493.051 691.58 493.92 690.636 495.057 689.932C496.205 689.216 497.602 688.858 499.25 688.858C500.92 688.858 502.324 689.21 503.46 689.915C504.608 690.619 505.472 691.562 506.051 692.744C506.642 693.915 506.938 695.205 506.938 696.614V698.455C506.938 699.852 506.642 701.142 506.051 702.324C505.46 703.494 504.591 704.432 503.443 705.136C502.295 705.852 500.898 706.21 499.25 706.21C497.58 706.21 496.176 705.852 495.04 705.136C493.903 704.432 493.04 703.494 492.449 702.324C491.858 701.142 491.562 699.852 491.562 698.455ZM496.523 696.614V698.455C496.523 699.261 496.716 700.023 497.102 700.739C497.5 701.455 498.216 701.812 499.25 701.812C500.284 701.812 500.989 701.46 501.364 700.756C501.75 700.051 501.943 699.284 501.943 698.455V696.614C501.943 695.784 501.761 695.011 501.398 694.295C501.034 693.58 500.318 693.222 499.25 693.222C498.227 693.222 497.517 693.58 497.119 694.295C496.722 695.011 496.523 695.784 496.523 696.614ZM473.648 678.477V676.636C473.648 675.227 473.949 673.937 474.551 672.767C475.153 671.585 476.023 670.642 477.159 669.938C478.307 669.233 479.693 668.881 481.318 668.881C483 668.881 484.409 669.233 485.545 669.938C486.682 670.642 487.545 671.585 488.136 672.767C488.727 673.937 489.023 675.227 489.023 676.636V678.477C489.023 679.886 488.722 681.176 488.119 682.347C487.528 683.517 486.659 684.455 485.511 685.159C484.375 685.852 482.977 686.199 481.318 686.199C479.659 686.199 478.256 685.847 477.108 685.142C475.972 684.426 475.108 683.489 474.517 682.33C473.938 681.159 473.648 679.875 473.648 678.477ZM478.642 676.636V678.477C478.642 679.307 478.835 680.074 479.222 680.778C479.619 681.483 480.318 681.835 481.318 681.835C482.364 681.835 483.074 681.483 483.449 680.778C483.835 680.074 484.028 679.307 484.028 678.477V676.636C484.028 675.807 483.847 675.034 483.483 674.318C483.119 673.602 482.398 673.244 481.318 673.244C480.307 673.244 479.608 673.608 479.222 674.335C478.835 675.062 478.642 675.83 478.642 676.636ZM475.898 705L499.898 670.091H504.364L480.364 705H475.898Z" fill="black"/>
<path d="M62.125 514.219C61.4115 514.208 60.7083 514.078 60.0156 513.828C59.3281 513.578 58.7031 513.161 58.1406 512.578C57.5781 511.995 57.1276 511.211 56.7891 510.227C56.4557 509.242 56.2891 508.013 56.2891 506.539C56.2891 505.143 56.4271 503.904 56.7031 502.82C56.9844 501.737 57.388 500.823 57.9141 500.078C58.4401 499.328 59.0755 498.758 59.8203 498.367C60.5651 497.977 61.401 497.781 62.3281 497.781C63.2813 497.781 64.1276 497.969 64.8672 498.344C65.6068 498.719 66.2057 499.237 66.6641 499.898C67.1276 500.56 67.4219 501.312 67.5469 502.156H65.1641C65.0026 501.49 64.6823 500.945 64.2031 500.523C63.724 500.102 63.099 499.891 62.3281 499.891C61.1563 499.891 60.2422 500.401 59.5859 501.422C58.9349 502.443 58.6068 503.862 58.6016 505.68H58.7188C58.9948 505.227 59.3333 504.841 59.7344 504.523C60.1406 504.201 60.5938 503.953 61.0938 503.781C61.599 503.604 62.1302 503.516 62.6875 503.516C63.6146 503.516 64.4531 503.742 65.2031 504.195C65.9583 504.643 66.5599 505.263 67.0078 506.055C67.4557 506.846 67.6797 507.753 67.6797 508.773C67.6797 509.794 67.4479 510.719 66.9844 511.547C66.526 512.375 65.8802 513.031 65.0469 513.516C64.2135 513.995 63.2396 514.229 62.125 514.219ZM62.1172 512.187C62.7318 512.187 63.2813 512.036 63.7656 511.734C64.25 511.432 64.6328 511.026 64.9141 510.516C65.1953 510.005 65.3359 509.435 65.3359 508.805C65.3359 508.19 65.1979 507.63 64.9219 507.125C64.651 506.62 64.276 506.219 63.7969 505.922C63.3229 505.625 62.7813 505.477 62.1719 505.477C61.7083 505.477 61.2786 505.565 60.8828 505.742C60.4922 505.919 60.1484 506.164 59.8516 506.477C59.5547 506.789 59.3203 507.148 59.1484 507.555C58.9818 507.956 58.8984 508.38 58.8984 508.828C58.8984 509.427 59.0365 509.982 59.3125 510.492C59.5938 511.003 59.9766 511.414 60.4609 511.727C60.9505 512.034 61.5026 512.187 62.1172 512.187ZM69.9669 510.875V508.922L76.881 498H78.42V500.875H77.4435L72.4981 508.703V508.828H81.9747V510.875H69.9669ZM77.5528 514V510.281L77.5685 509.391V498H79.8575V514H77.5528ZM86.9436 511.812L86.8264 512.664C86.7483 513.289 86.6154 513.94 86.4279 514.617C86.2456 515.299 86.0555 515.932 85.8576 516.516C85.6649 517.099 85.5061 517.563 85.3811 517.906H83.7248C83.7925 517.583 83.8863 517.146 84.0061 516.594C84.1259 516.047 84.243 515.435 84.3576 514.758C84.4722 514.081 84.5581 513.391 84.6154 512.687L84.6936 511.812H86.9436ZM94.9944 514.219C94.2809 514.208 93.5778 514.078 92.8851 513.828C92.1976 513.578 91.5726 513.161 91.0101 512.578C90.4476 511.995 89.9971 511.211 89.6585 510.227C89.3252 509.242 89.1585 508.013 89.1585 506.539C89.1585 505.143 89.2965 503.904 89.5726 502.82C89.8538 501.737 90.2575 500.823 90.7835 500.078C91.3096 499.328 91.945 498.758 92.6898 498.367C93.4346 497.977 94.2705 497.781 95.1976 497.781C96.1507 497.781 96.9971 497.969 97.7366 498.344C98.4762 498.719 99.0752 499.237 99.5335 499.898C99.9971 500.56 100.291 501.312 100.416 502.156H98.0335C97.8721 501.49 97.5517 500.945 97.0726 500.523C96.5934 500.102 95.9684 499.891 95.1976 499.891C94.0257 499.891 93.1116 500.401 92.4554 501.422C91.8043 502.443 91.4762 503.862 91.471 505.68H91.5882C91.8642 505.227 92.2028 504.841 92.6038 504.523C93.0101 504.201 93.4632 503.953 93.9632 503.781C94.4684 503.604 94.9997 503.516 95.5569 503.516C96.484 503.516 97.3226 503.742 98.0726 504.195C98.8278 504.643 99.4293 505.263 99.8773 506.055C100.325 506.846 100.549 507.753 100.549 508.773C100.549 509.794 100.317 510.719 99.8538 511.547C99.3955 512.375 98.7497 513.031 97.9163 513.516C97.083 513.995 96.109 514.229 94.9944 514.219ZM94.9866 512.187C95.6012 512.187 96.1507 512.036 96.6351 511.734C97.1194 511.432 97.5023 511.026 97.7835 510.516C98.0648 510.005 98.2054 509.435 98.2054 508.805C98.2054 508.19 98.0674 507.63 97.7913 507.125C97.5205 506.62 97.1455 506.219 96.6663 505.922C96.1924 505.625 95.6507 505.477 95.0413 505.477C94.5778 505.477 94.1481 505.565 93.7523 505.742C93.3616 505.919 93.0179 506.164 92.721 506.477C92.4241 506.789 92.1898 507.148 92.0179 507.555C91.8512 507.956 91.7679 508.38 91.7679 508.828C91.7679 509.427 91.9059 509.982 92.1819 510.492C92.4632 511.003 92.846 511.414 93.3304 511.727C93.82 512.034 94.3721 512.187 94.9866 512.187Z" fill="#CFCFCF"/>
<path d="M476.373 579.219C475.659 579.208 474.956 579.078 474.263 578.828C473.576 578.578 472.951 578.161 472.388 577.578C471.826 576.995 471.375 576.211 471.037 575.227C470.703 574.242 470.537 573.013 470.537 571.539C470.537 570.143 470.675 568.904 470.951 567.82C471.232 566.737 471.636 565.823 472.162 565.078C472.688 564.328 473.323 563.758 474.068 563.367C474.813 562.977 475.649 562.781 476.576 562.781C477.529 562.781 478.375 562.969 479.115 563.344C479.855 563.719 480.453 564.237 480.912 564.898C481.375 565.56 481.67 566.312 481.795 567.156H479.412C479.25 566.49 478.93 565.945 478.451 565.523C477.972 565.102 477.347 564.891 476.576 564.891C475.404 564.891 474.49 565.401 473.834 566.422C473.183 567.443 472.855 568.862 472.849 570.68H472.966C473.243 570.227 473.581 569.841 473.982 569.523C474.388 569.201 474.841 568.953 475.341 568.781C475.847 568.604 476.378 568.516 476.935 568.516C477.862 568.516 478.701 568.742 479.451 569.195C480.206 569.643 480.808 570.263 481.256 571.055C481.703 571.846 481.927 572.753 481.927 573.773C481.927 574.794 481.696 575.719 481.232 576.547C480.774 577.375 480.128 578.031 479.295 578.516C478.461 578.995 477.487 579.229 476.373 579.219ZM476.365 577.187C476.98 577.187 477.529 577.036 478.013 576.734C478.498 576.432 478.881 576.026 479.162 575.516C479.443 575.005 479.584 574.435 479.584 573.805C479.584 573.19 479.446 572.63 479.17 572.125C478.899 571.62 478.524 571.219 478.045 570.922C477.571 570.625 477.029 570.477 476.42 570.477C475.956 570.477 475.526 570.565 475.131 570.742C474.74 570.919 474.396 571.164 474.099 571.477C473.802 571.789 473.568 572.148 473.396 572.555C473.23 572.956 473.146 573.38 473.146 573.828C473.146 574.427 473.284 574.982 473.56 575.492C473.841 576.003 474.224 576.414 474.709 576.727C475.198 577.034 475.75 577.187 476.365 577.187ZM490.621 563V579H488.199V565.422H488.105L484.277 567.922V565.609L488.269 563H490.621ZM496.873 576.812L496.756 577.664C496.678 578.289 496.545 578.94 496.357 579.617C496.175 580.299 495.985 580.932 495.787 581.516C495.594 582.099 495.435 582.563 495.31 582.906H493.654C493.722 582.583 493.816 582.146 493.935 581.594C494.055 581.047 494.172 580.435 494.287 579.758C494.402 579.081 494.488 578.391 494.545 577.687L494.623 576.812H496.873ZM504.908 579.266C503.674 579.26 502.619 578.935 501.744 578.289C500.869 577.643 500.2 576.703 499.736 575.469C499.273 574.234 499.041 572.747 499.041 571.008C499.041 569.273 499.273 567.792 499.736 566.562C500.205 565.333 500.877 564.396 501.752 563.75C502.632 563.104 503.684 562.781 504.908 562.781C506.132 562.781 507.182 563.107 508.057 563.758C508.932 564.404 509.601 565.341 510.064 566.57C510.533 567.794 510.768 569.273 510.768 571.008C510.768 572.753 510.536 574.242 510.072 575.477C509.609 576.706 508.939 577.646 508.064 578.297C507.189 578.943 506.137 579.266 504.908 579.266ZM504.908 577.18C505.992 577.18 506.838 576.651 507.447 575.594C508.062 574.536 508.369 573.008 508.369 571.008C508.369 569.68 508.229 568.557 507.947 567.641C507.671 566.719 507.273 566.021 506.752 565.547C506.236 565.068 505.622 564.828 504.908 564.828C503.83 564.828 502.984 565.359 502.369 566.422C501.755 567.484 501.445 569.013 501.439 571.008C501.439 572.341 501.577 573.469 501.854 574.391C502.135 575.307 502.533 576.003 503.049 576.477C503.564 576.945 504.184 577.18 504.908 577.18Z" fill="#CFCFCF"/>
<rect x="40" y="750" width="491" height="295" rx="20" fill="#F7F7F7"/>
<path opacity="0.6" d="M56.2912 782V768.909H61.3026C62.2486 768.909 63.0348 769.058 63.6612 769.357C64.2919 769.651 64.7628 770.053 65.0739 770.565C65.3892 771.076 65.5469 771.656 65.5469 772.303C65.5469 772.836 65.4446 773.292 65.2401 773.671C65.0355 774.046 64.7607 774.351 64.4155 774.585C64.0703 774.82 63.6847 774.988 63.2585 775.09V775.218C63.723 775.244 64.1683 775.386 64.5945 775.646C65.0249 775.902 65.3764 776.264 65.6491 776.733C65.9219 777.202 66.0582 777.768 66.0582 778.433C66.0582 779.111 65.8942 779.72 65.5661 780.261C65.2379 780.798 64.7436 781.222 64.0831 781.533C63.4226 781.844 62.5916 782 61.5902 782H56.2912ZM58.6626 780.018H61.2131C62.0739 780.018 62.6939 779.854 63.0732 779.526C63.4567 779.194 63.6484 778.768 63.6484 778.248C63.6484 777.86 63.5526 777.511 63.3608 777.2C63.169 776.884 62.8963 776.637 62.5426 776.458C62.1889 776.275 61.767 776.183 61.277 776.183H58.6626V780.018ZM58.6626 774.477H61.0085C61.4176 774.477 61.7862 774.402 62.1143 774.253C62.4425 774.099 62.7003 773.884 62.8878 773.607C63.0795 773.326 63.1754 772.994 63.1754 772.61C63.1754 772.103 62.9964 771.685 62.6385 771.357C62.2848 771.029 61.7585 770.865 61.0597 770.865H58.6626V774.477ZM81.6187 775.455C81.6187 776.865 81.3545 778.073 80.8261 779.079C80.302 780.08 79.586 780.847 78.6784 781.38C77.775 781.913 76.7501 782.179 75.6038 782.179C74.4575 782.179 73.4305 781.913 72.5228 781.38C71.6194 780.843 70.9035 780.074 70.3751 779.072C69.851 778.067 69.5889 776.861 69.5889 775.455C69.5889 774.044 69.851 772.838 70.3751 771.837C70.9035 770.831 71.6194 770.062 72.5228 769.529C73.4305 768.996 74.4575 768.73 75.6038 768.73C76.7501 768.73 77.775 768.996 78.6784 769.529C79.586 770.062 80.302 770.831 80.8261 771.837C81.3545 772.838 81.6187 774.044 81.6187 775.455ZM79.2345 775.455C79.2345 774.462 79.0789 773.624 78.7679 772.942C78.461 772.256 78.0349 771.739 77.4895 771.389C76.944 771.036 76.3154 770.859 75.6038 770.859C74.8922 770.859 74.2636 771.036 73.7181 771.389C73.1727 771.739 72.7444 772.256 72.4333 772.942C72.1265 773.624 71.9731 774.462 71.9731 775.455C71.9731 776.447 72.1265 777.287 72.4333 777.973C72.7444 778.655 73.1727 779.173 73.7181 779.526C74.2636 779.876 74.8922 780.05 75.6038 780.05C76.3154 780.05 76.944 779.876 77.4895 779.526C78.0349 779.173 78.461 778.655 78.7679 777.973C79.0789 777.287 79.2345 776.447 79.2345 775.455ZM85.6607 782V768.909H94.1749V770.897H88.0322V774.451H93.7339V776.439H88.0322V780.012H94.2261V782H85.6607ZM98.3943 782V768.909H100.766V774.451H106.832V768.909H109.21V782H106.832V776.439H100.766V782H98.3943ZM113.589 782V768.909H115.96V774.451H122.026V768.909H124.404V782H122.026V776.439H115.96V782H113.589ZM130.464 782H127.933L132.542 768.909H135.469L140.085 782H137.553L134.057 771.594H133.955L130.464 782ZM130.548 776.867H137.451V778.772H130.548V776.867ZM153.274 782H150.896V770.891H148.722C148.134 770.891 147.651 770.978 147.271 771.153C146.896 771.323 146.617 771.575 146.434 771.907C146.255 772.235 146.166 772.631 146.166 773.096C146.166 773.56 146.255 773.952 146.434 774.272C146.613 774.587 146.89 774.828 147.265 774.994C147.644 775.156 148.126 775.237 148.71 775.237H151.893V777.206H148.39C147.384 777.206 146.536 777.04 145.846 776.707C145.156 776.371 144.632 775.896 144.274 775.282C143.92 774.664 143.743 773.935 143.743 773.096C143.743 772.261 143.918 771.53 144.267 770.903C144.621 770.273 145.141 769.783 145.827 769.433C146.513 769.084 147.357 768.909 148.358 768.909H153.274V782ZM146.504 776.068H149.093L145.91 782H143.264L146.504 776.068Z" fill="black"/>
<path opacity="0.4" d="M55.0245 998.5H511.016V886.5L280.016 881.5C280.016 881.5 57.6775 860.994 55.0245 860.509V860.5C54.9924 860.5 54.9927 860.503 55.0245 860.509V998.5Z" fill="url(#paint2_linear_3326_2785)"/>
<rect x="506.188" y="881" width="10.2717" height="10.2717" rx="5.13587" fill="#CACACA"/>
<path d="M54 861L280.5 881L511.5 886.5" stroke="#CACACA" stroke-width="4"/>
<path d="M382.801 983.445L382.801 1007.8L391.886 998.684L395.875 1002.64L379.92 1018.56L364 1002.64L367.92 998.684L377.04 1007.8L377.04 983.445L382.801 983.445Z" fill="#CACACA"/>
<path d="M422.322 1018.77C419.39 1018.76 416.867 1018.03 414.754 1016.6C412.651 1015.17 411.032 1013.1 409.896 1010.38C408.771 1007.66 408.214 1004.4 408.225 1000.58C408.225 996.773 408.788 993.528 409.913 990.847C411.049 988.165 412.668 986.125 414.771 984.727C416.884 983.318 419.401 982.614 422.322 982.614C425.242 982.614 427.754 983.318 429.856 984.727C431.969 986.136 433.594 988.182 434.731 990.864C435.867 993.534 436.43 996.773 436.418 1000.58C436.418 1004.41 435.85 1007.68 434.714 1010.4C433.589 1013.11 431.975 1015.19 429.873 1016.62C427.771 1018.05 425.254 1018.77 422.322 1018.77ZM422.322 1012.65C424.322 1012.65 425.918 1011.64 427.112 1009.63C428.305 1007.62 428.896 1004.6 428.884 1000.58C428.884 997.932 428.612 995.727 428.066 993.966C427.532 992.205 426.771 990.881 425.782 989.994C424.805 989.108 423.651 988.665 422.322 988.665C420.333 988.665 418.742 989.659 417.549 991.648C416.356 993.636 415.754 996.614 415.742 1000.58C415.742 1003.26 416.009 1005.5 416.543 1007.3C417.089 1009.08 417.856 1010.42 418.844 1011.32C419.833 1012.2 420.992 1012.65 422.322 1012.65ZM447.743 1013.23L447.555 1015.1C447.408 1016.6 447.124 1018.1 446.703 1019.59C446.294 1021.09 445.862 1022.44 445.408 1023.66C444.964 1024.88 444.607 1025.83 444.334 1026.52H439.629C439.8 1025.85 440.033 1024.91 440.328 1023.71C440.624 1022.52 440.902 1021.18 441.163 1019.69C441.425 1018.2 441.589 1016.68 441.658 1015.14L441.743 1013.23H447.743ZM464.65 983.091V1018H457.269V990.097H457.065L449.07 995.108V988.562L457.712 983.091H464.65ZM491.562 1011.45V1009.61C491.562 1008.22 491.858 1006.93 492.449 1005.76C493.051 1004.58 493.92 1003.64 495.057 1002.93C496.205 1002.22 497.602 1001.86 499.25 1001.86C500.92 1001.86 502.324 1002.21 503.46 1002.91C504.608 1003.62 505.472 1004.56 506.051 1005.74C506.642 1006.91 506.938 1008.2 506.938 1009.61V1011.45C506.938 1012.85 506.642 1014.14 506.051 1015.32C505.46 1016.49 504.591 1017.43 503.443 1018.14C502.295 1018.85 500.898 1019.21 499.25 1019.21C497.58 1019.21 496.176 1018.85 495.04 1018.14C493.903 1017.43 493.04 1016.49 492.449 1015.32C491.858 1014.14 491.562 1012.85 491.562 1011.45ZM496.523 1009.61V1011.45C496.523 1012.26 496.716 1013.02 497.102 1013.74C497.5 1014.45 498.216 1014.81 499.25 1014.81C500.284 1014.81 500.989 1014.46 501.364 1013.76C501.75 1013.05 501.943 1012.28 501.943 1011.45V1009.61C501.943 1008.78 501.761 1008.01 501.398 1007.3C501.034 1006.58 500.318 1006.22 499.25 1006.22C498.227 1006.22 497.517 1006.58 497.119 1007.3C496.722 1008.01 496.523 1008.78 496.523 1009.61ZM473.648 991.477V989.636C473.648 988.227 473.949 986.937 474.551 985.767C475.153 984.585 476.023 983.642 477.159 982.938C478.307 982.233 479.693 981.881 481.318 981.881C483 981.881 484.409 982.233 485.545 982.938C486.682 983.642 487.545 984.585 488.136 985.767C488.727 986.937 489.023 988.227 489.023 989.636V991.477C489.023 992.886 488.722 994.176 488.119 995.347C487.528 996.517 486.659 997.455 485.511 998.159C484.375 998.852 482.977 999.199 481.318 999.199C479.659 999.199 478.256 998.847 477.108 998.142C475.972 997.426 475.108 996.489 474.517 995.33C473.938 994.159 473.648 992.875 473.648 991.477ZM478.642 989.636V991.477C478.642 992.307 478.835 993.074 479.222 993.778C479.619 994.483 480.318 994.835 481.318 994.835C482.364 994.835 483.074 994.483 483.449 993.778C483.835 993.074 484.028 992.307 484.028 991.477V989.636C484.028 988.807 483.847 988.034 483.483 987.318C483.119 986.602 482.398 986.244 481.318 986.244C480.307 986.244 479.608 986.608 479.222 987.335C478.835 988.062 478.642 988.83 478.642 989.636ZM475.898 1018L499.898 983.091H504.364L480.364 1018H475.898Z" fill="black"/>
<path d="M62.1094 848.266C60.875 848.26 59.8203 847.935 58.9453 847.289C58.0703 846.643 57.401 845.703 56.9375 844.469C56.474 843.234 56.2422 841.747 56.2422 840.008C56.2422 838.273 56.474 836.792 56.9375 835.562C57.4063 834.333 58.0781 833.396 58.9531 832.75C59.8333 832.104 60.8854 831.781 62.1094 831.781C63.3333 831.781 64.3828 832.107 65.2578 832.758C66.1328 833.404 66.8021 834.341 67.2656 835.57C67.7344 836.794 67.9687 838.273 67.9687 840.008C67.9687 841.753 67.737 843.242 67.2734 844.477C66.8099 845.706 66.1406 846.646 65.2656 847.297C64.3906 847.943 63.3385 848.266 62.1094 848.266ZM62.1094 846.18C63.1927 846.18 64.0391 845.651 64.6484 844.594C65.263 843.536 65.5703 842.008 65.5703 840.008C65.5703 838.68 65.4297 837.557 65.1484 836.641C64.8724 835.719 64.474 835.021 63.9531 834.547C63.4375 834.068 62.8229 833.828 62.1094 833.828C61.0313 833.828 60.1849 834.359 59.5703 835.422C58.9557 836.484 58.6458 838.013 58.6406 840.008C58.6406 841.341 58.7786 842.469 59.0547 843.391C59.3359 844.307 59.7344 845.003 60.25 845.477C60.7656 845.945 61.3854 846.18 62.1094 846.18ZM73.0079 845.812L72.8907 846.664C72.8126 847.289 72.6798 847.94 72.4923 848.617C72.31 849.299 72.1199 849.932 71.922 850.516C71.7293 851.099 71.5704 851.563 71.4454 851.906H69.7892C69.8569 851.583 69.9506 851.146 70.0704 850.594C70.1902 850.047 70.3074 849.435 70.422 848.758C70.5366 848.081 70.6225 847.391 70.6798 846.687L70.7579 845.812H73.0079ZM80.9221 848.219C79.8023 848.219 78.8127 848.026 77.9533 847.641C77.0992 847.255 76.4299 846.724 75.9455 846.047C75.4611 845.37 75.2216 844.599 75.2268 843.734C75.2216 843.057 75.3596 842.435 75.6408 841.867C75.9273 841.294 76.3153 840.818 76.8049 840.438C77.2945 840.052 77.8414 839.807 78.4455 839.703V839.609C77.6486 839.417 77.0106 838.99 76.5315 838.328C76.0523 837.667 75.8153 836.906 75.8205 836.047C75.8153 835.229 76.0315 834.5 76.469 833.859C76.9117 833.214 77.5184 832.706 78.2893 832.336C79.0601 831.966 79.9377 831.781 80.9221 831.781C81.896 831.781 82.7658 831.969 83.5315 832.344C84.3023 832.714 84.9091 833.221 85.3518 833.867C85.7945 834.508 86.0184 835.234 86.0236 836.047C86.0184 836.906 85.7736 837.667 85.2893 838.328C84.8049 838.99 84.1747 839.417 83.3986 839.609V839.703C83.9976 839.807 84.5367 840.052 85.0158 840.438C85.5002 840.818 85.8856 841.294 86.1721 841.867C86.4637 842.435 86.6122 843.057 86.6174 843.734C86.6122 844.599 86.3674 845.37 85.883 846.047C85.3986 846.724 84.7268 847.255 83.8674 847.641C83.0132 848.026 82.0315 848.219 80.9221 848.219ZM80.9221 846.242C81.5835 846.242 82.1565 846.133 82.6408 845.914C83.1252 845.69 83.5002 845.38 83.7658 844.984C84.0315 844.583 84.1669 844.115 84.1721 843.578C84.1669 843.021 84.021 842.529 83.7346 842.102C83.4533 841.674 83.0705 841.339 82.5861 841.094C82.1018 840.849 81.5471 840.727 80.9221 840.727C80.2919 840.727 79.732 840.849 79.2424 841.094C78.7528 841.339 78.3674 841.674 78.0861 842.102C77.8049 842.529 77.6669 843.021 77.6721 843.578C77.6669 844.115 77.7945 844.583 78.0549 844.984C78.3205 845.38 78.6981 845.69 79.1877 845.914C79.6773 846.133 80.2554 846.242 80.9221 846.242ZM80.9221 838.797C81.4533 838.797 81.9247 838.69 82.3361 838.477C82.7476 838.263 83.0705 837.966 83.3049 837.586C83.5445 837.206 83.6669 836.76 83.6721 836.25C83.6669 835.75 83.5471 835.313 83.3127 834.938C83.0835 834.562 82.7632 834.273 82.3518 834.07C81.9403 833.862 81.4637 833.758 80.9221 833.758C80.37 833.758 79.8856 833.862 79.469 834.07C79.0575 834.273 78.7372 834.562 78.508 834.938C78.2789 835.313 78.1669 835.75 78.1721 836.25C78.1669 836.76 78.2815 837.206 78.5158 837.586C78.7502 837.966 79.0731 838.263 79.4846 838.477C79.9012 838.69 80.3804 838.797 80.9221 838.797Z" fill="#CFCFCF"/>
<path d="M487.263 871.266C486.029 871.26 484.974 870.935 484.099 870.289C483.224 869.643 482.555 868.703 482.092 867.469C481.628 866.234 481.396 864.747 481.396 863.008C481.396 861.273 481.628 859.792 482.092 858.562C482.56 857.333 483.232 856.396 484.107 855.75C484.987 855.104 486.04 854.781 487.263 854.781C488.487 854.781 489.537 855.107 490.412 855.758C491.287 856.404 491.956 857.341 492.42 858.57C492.888 859.794 493.123 861.273 493.123 863.008C493.123 864.753 492.891 866.242 492.428 867.477C491.964 868.706 491.295 869.646 490.42 870.297C489.545 870.943 488.493 871.266 487.263 871.266ZM487.263 869.18C488.347 869.18 489.193 868.651 489.803 867.594C490.417 866.536 490.724 865.008 490.724 863.008C490.724 861.68 490.584 860.557 490.303 859.641C490.026 858.719 489.628 858.021 489.107 857.547C488.592 857.068 487.977 856.828 487.263 856.828C486.185 856.828 485.339 857.359 484.724 858.422C484.11 859.484 483.8 861.013 483.795 863.008C483.795 864.341 483.933 865.469 484.209 866.391C484.49 867.307 484.888 868.003 485.404 868.477C485.92 868.945 486.54 869.18 487.263 869.18ZM498.162 868.812L498.045 869.664C497.967 870.289 497.834 870.94 497.646 871.617C497.464 872.299 497.274 872.932 497.076 873.516C496.883 874.099 496.725 874.563 496.6 874.906H494.943C495.011 874.583 495.105 874.146 495.225 873.594C495.344 873.047 495.461 872.435 495.576 871.758C495.691 871.081 495.777 870.391 495.834 869.687L495.912 868.812H498.162ZM501.338 871L508.322 857.187V857.07H500.244V855H510.822V857.141L503.861 871H501.338Z" fill="#CFCFCF"/>
<rect x="549" y="437" width="491" height="295" rx="20" fill="#F7F7F7"/>
<path opacity="0.6" d="M567.663 458.909V472H565.291V458.909H567.663ZM571.455 460.897V458.909H581.9V460.897H577.854V472H575.502V460.897H571.455ZM590.754 464.502V466.407H584.86V464.502H590.754ZM595.09 458.909H597.442V467.832H597.563L603.719 458.909H605.847V472H603.476V463.083H603.367L597.193 472H595.09V458.909ZM620.913 458.909V472H618.56V460.878H612.833V472H610.481V458.909H620.913ZM637.246 465.455C637.246 466.865 636.982 468.073 636.454 469.079C635.93 470.08 635.214 470.847 634.306 471.38C633.403 471.913 632.378 472.179 631.232 472.179C630.085 472.179 629.058 471.913 628.151 471.38C627.247 470.843 626.531 470.074 626.003 469.072C625.479 468.067 625.217 466.861 625.217 465.455C625.217 464.044 625.479 462.838 626.003 461.837C626.531 460.831 627.247 460.062 628.151 459.529C629.058 458.996 630.085 458.73 631.232 458.73C632.378 458.73 633.403 458.996 634.306 459.529C635.214 460.062 635.93 460.831 636.454 461.837C636.982 462.838 637.246 464.044 637.246 465.455ZM634.862 465.455C634.862 464.462 634.707 463.624 634.396 462.942C634.089 462.256 633.663 461.739 633.117 461.389C632.572 461.036 631.943 460.859 631.232 460.859C630.52 460.859 629.891 461.036 629.346 461.389C628.8 461.739 628.372 462.256 628.061 462.942C627.754 463.624 627.601 464.462 627.601 465.455C627.601 466.447 627.754 467.287 628.061 467.973C628.372 468.655 628.8 469.173 629.346 469.526C629.891 469.876 630.52 470.05 631.232 470.05C631.943 470.05 632.572 469.876 633.117 469.526C633.663 469.173 634.089 468.655 634.396 467.973C634.707 467.287 634.862 466.447 634.862 465.455ZM640.133 460.897V458.909H650.578V460.897H646.532V472H644.179V460.897H640.133ZM654.391 472V458.909H662.905V460.897H656.763V464.451H662.464V466.439H656.763V470.012H662.957V472H654.391ZM674.968 472L670.66 466.279H669.496V472H667.125V458.909H669.496V464.291H670.091L674.744 458.909H677.665L672.494 464.879L677.889 472H674.968ZM682.981 472H680.45L685.058 458.909H687.986L692.601 472H690.07L686.573 461.594H686.471L682.981 472ZM683.064 466.867H689.967V468.772H683.064V466.867Z" fill="black"/>
<path opacity="0.4" d="M564 685.5H1019.99V579H795L564 556V685.5Z" fill="url(#paint3_linear_3326_2785)"/>
<rect x="1015.19" y="574" width="10.2717" height="10.2717" rx="5.13587" fill="#CACACA"/>
<path d="M1020 580H795L564 555.5" stroke="#CACACA" stroke-width="4"/>
<path d="M875.074 670.445V694.803L865.989 685.684L862 689.638L877.955 705.559L893.875 689.638L889.955 685.684L880.835 694.803V670.445H875.074Z" fill="#CACACA"/>
<path d="M920.212 705.767C917.281 705.756 914.758 705.034 912.644 703.602C910.542 702.17 908.923 700.097 907.786 697.381C906.661 694.665 906.104 691.398 906.116 687.58C906.116 683.773 906.678 680.528 907.803 677.847C908.94 675.165 910.559 673.125 912.661 671.727C914.775 670.318 917.292 669.614 920.212 669.614C923.133 669.614 925.644 670.318 927.746 671.727C929.86 673.136 931.485 675.182 932.621 677.864C933.758 680.534 934.32 683.773 934.309 687.58C934.309 691.409 933.741 694.682 932.604 697.398C931.479 700.114 929.866 702.187 927.763 703.619C925.661 705.051 923.144 705.767 920.212 705.767ZM920.212 699.648C922.212 699.648 923.809 698.642 925.002 696.631C926.195 694.619 926.786 691.602 926.775 687.58C926.775 684.932 926.502 682.727 925.957 680.966C925.423 679.205 924.661 677.881 923.673 676.994C922.695 676.108 921.542 675.665 920.212 675.665C918.224 675.665 916.633 676.659 915.44 678.648C914.246 680.636 913.644 683.614 913.633 687.58C913.633 690.261 913.9 692.5 914.434 694.295C914.979 696.08 915.746 697.42 916.735 698.318C917.724 699.205 918.883 699.648 920.212 699.648ZM945.634 700.227L945.446 702.102C945.298 703.602 945.014 705.097 944.594 706.585C944.185 708.085 943.753 709.443 943.298 710.659C942.855 711.875 942.497 712.83 942.224 713.523H937.52C937.69 712.852 937.923 711.915 938.219 710.71C938.514 709.517 938.793 708.176 939.054 706.688C939.315 705.199 939.48 703.682 939.548 702.136L939.634 700.227H945.634ZM951.712 705V699.682L964.138 688.176C965.195 687.153 966.082 686.233 966.798 685.415C967.525 684.597 968.076 683.795 968.451 683.011C968.826 682.216 969.013 681.358 969.013 680.438C969.013 679.415 968.781 678.534 968.315 677.795C967.849 677.045 967.212 676.472 966.406 676.074C965.599 675.665 964.684 675.46 963.661 675.46C962.593 675.46 961.661 675.676 960.866 676.108C960.07 676.54 959.457 677.159 959.025 677.966C958.593 678.773 958.377 679.733 958.377 680.847H951.371C951.371 678.562 951.888 676.58 952.923 674.898C953.957 673.216 955.406 671.915 957.269 670.994C959.133 670.074 961.281 669.614 963.712 669.614C966.212 669.614 968.388 670.057 970.241 670.943C972.104 671.818 973.553 673.034 974.587 674.591C975.621 676.148 976.138 677.932 976.138 679.943C976.138 681.261 975.877 682.562 975.354 683.847C974.843 685.131 973.928 686.557 972.61 688.125C971.292 689.682 969.434 691.551 967.036 693.733L961.94 698.727V698.966H976.599V705H951.712ZM1000.56 698.455V696.614C1000.56 695.216 1000.86 693.932 1001.45 692.761C1002.05 691.58 1002.92 690.636 1004.06 689.932C1005.2 689.216 1006.6 688.858 1008.25 688.858C1009.92 688.858 1011.32 689.21 1012.46 689.915C1013.61 690.619 1014.47 691.562 1015.05 692.744C1015.64 693.915 1015.94 695.205 1015.94 696.614V698.455C1015.94 699.852 1015.64 701.142 1015.05 702.324C1014.46 703.494 1013.59 704.432 1012.44 705.136C1011.3 705.852 1009.9 706.21 1008.25 706.21C1006.58 706.21 1005.18 705.852 1004.04 705.136C1002.9 704.432 1002.04 703.494 1001.45 702.324C1000.86 701.142 1000.56 699.852 1000.56 698.455ZM1005.52 696.614V698.455C1005.52 699.261 1005.72 700.023 1006.1 700.739C1006.5 701.455 1007.22 701.812 1008.25 701.812C1009.28 701.812 1009.99 701.46 1010.36 700.756C1010.75 700.051 1010.94 699.284 1010.94 698.455V696.614C1010.94 695.784 1010.76 695.011 1010.4 694.295C1010.03 693.58 1009.32 693.222 1008.25 693.222C1007.23 693.222 1006.52 693.58 1006.12 694.295C1005.72 695.011 1005.52 695.784 1005.52 696.614ZM982.648 678.477V676.636C982.648 675.227 982.949 673.937 983.551 672.767C984.153 671.585 985.023 670.642 986.159 669.938C987.307 669.233 988.693 668.881 990.318 668.881C992 668.881 993.409 669.233 994.545 669.938C995.682 670.642 996.545 671.585 997.136 672.767C997.727 673.937 998.023 675.227 998.023 676.636V678.477C998.023 679.886 997.722 681.176 997.119 682.347C996.528 683.517 995.659 684.455 994.511 685.159C993.375 685.852 991.977 686.199 990.318 686.199C988.659 686.199 987.256 685.847 986.108 685.142C984.972 684.426 984.108 683.489 983.517 682.33C982.938 681.159 982.648 679.875 982.648 678.477ZM987.642 676.636V678.477C987.642 679.307 987.835 680.074 988.222 680.778C988.619 681.483 989.318 681.835 990.318 681.835C991.364 681.835 992.074 681.483 992.449 680.778C992.835 680.074 993.028 679.307 993.028 678.477V676.636C993.028 675.807 992.847 675.034 992.483 674.318C992.119 673.602 991.398 673.244 990.318 673.244C989.307 673.244 988.608 673.608 988.222 674.335C987.835 675.062 987.642 675.83 987.642 676.636ZM984.898 705L1008.9 670.091H1013.36L989.364 705H984.898Z" fill="black"/>
<path d="M571.609 526V542H569.188V528.422H569.094L565.266 530.922V528.609L569.258 526H571.609ZM577.861 539.812L577.744 540.664C577.666 541.289 577.533 541.94 577.346 542.617C577.164 543.299 576.973 543.932 576.775 544.516C576.583 545.099 576.424 545.563 576.299 545.906H574.643C574.71 545.583 574.804 545.146 574.924 544.594C575.044 544.047 575.161 543.435 575.275 542.758C575.39 542.081 575.476 541.391 575.533 540.687L575.611 539.812H577.861ZM586.033 525.781C586.747 525.786 587.45 525.917 588.143 526.172C588.835 526.427 589.46 526.844 590.018 527.422C590.58 528 591.028 528.781 591.362 529.766C591.7 530.745 591.872 531.964 591.877 533.422C591.877 534.823 591.737 536.07 591.455 537.164C591.174 538.253 590.77 539.172 590.244 539.922C589.724 540.672 589.091 541.242 588.346 541.633C587.601 542.023 586.763 542.219 585.83 542.219C584.877 542.219 584.031 542.031 583.291 541.656C582.552 541.281 581.95 540.763 581.487 540.102C581.023 539.435 580.734 538.669 580.619 537.805H583.002C583.158 538.492 583.476 539.049 583.955 539.477C584.44 539.898 585.065 540.109 585.83 540.109C587.002 540.109 587.916 539.599 588.572 538.578C589.229 537.552 589.559 536.12 589.565 534.281H589.44C589.169 534.729 588.83 535.115 588.424 535.437C588.023 535.76 587.572 536.01 587.072 536.187C586.572 536.365 586.039 536.453 585.471 536.453C584.549 536.453 583.71 536.227 582.955 535.773C582.2 535.32 581.599 534.698 581.151 533.906C580.703 533.115 580.479 532.211 580.479 531.195C580.479 530.185 580.708 529.268 581.166 528.445C581.63 527.622 582.276 526.971 583.104 526.492C583.937 526.008 584.914 525.771 586.033 525.781ZM586.041 527.812C585.432 527.812 584.882 527.964 584.393 528.266C583.908 528.562 583.526 528.966 583.244 529.477C582.963 529.982 582.822 530.544 582.822 531.164C582.822 531.784 582.958 532.346 583.229 532.852C583.505 533.352 583.88 533.75 584.354 534.047C584.833 534.339 585.38 534.484 585.994 534.484C586.453 534.484 586.88 534.396 587.276 534.219C587.671 534.042 588.018 533.797 588.315 533.484C588.612 533.167 588.843 532.807 589.01 532.406C589.177 532.005 589.26 531.583 589.26 531.141C589.26 530.552 589.119 530.005 588.838 529.5C588.562 528.995 588.182 528.589 587.697 528.281C587.213 527.969 586.661 527.812 586.041 527.812Z" fill="#CFCFCF"/>
<path d="M1000.91 548V564H998.488V550.422H998.394L994.566 552.922V550.609L998.558 548H1000.91ZM1007.16 561.812L1007.04 562.664C1006.97 563.289 1006.83 563.94 1006.65 564.617C1006.46 565.299 1006.27 565.932 1006.08 566.516C1005.88 567.099 1005.72 567.563 1005.6 567.906H1003.94C1004.01 567.583 1004.1 567.146 1004.22 566.594C1004.34 566.047 1004.46 565.435 1004.58 564.758C1004.69 564.081 1004.78 563.391 1004.83 562.687L1004.91 561.812H1007.16ZM1010.34 564L1017.32 550.187V550.07H1009.24V548H1019.82V550.141L1012.86 564H1010.34Z" fill="#CFCFCF"/>
<rect x="549" y="749" width="491" height="295" rx="20" fill="#F7F7F7"/>
<path opacity="0.6" d="M564.441 784.158V779.063H565.317C565.611 778.829 565.886 778.499 566.141 778.072C566.397 777.646 566.614 777.062 566.793 776.321C566.972 775.58 567.096 774.621 567.164 773.445L567.509 767.909H575.876V779.063H577.334V784.145H575.058V781H566.717V784.158H564.441ZM568.078 779.063H573.601V769.897H569.644L569.44 773.445C569.384 774.335 569.295 775.132 569.171 775.835C569.048 776.538 568.892 777.158 568.705 777.695C568.517 778.228 568.308 778.684 568.078 779.063ZM582.747 781H580.216L584.824 767.909H587.752L592.367 781H589.836L586.339 770.594H586.237L582.747 781ZM582.83 775.867H589.733V777.772H582.83V775.867ZM595.041 781V779.031L595.412 779.012C595.915 778.982 596.313 778.801 596.607 778.469C596.905 778.136 597.125 777.602 597.265 776.864C597.41 776.127 597.506 775.138 597.553 773.898L597.77 767.909H606.349V781H604.028V769.859H599.982L599.778 774.634C599.718 776.065 599.56 777.252 599.305 778.194C599.053 779.136 598.64 779.839 598.064 780.303C597.493 780.768 596.699 781 595.68 781H595.041ZM612.339 772.965H615.662C616.664 772.965 617.523 773.129 618.238 773.457C618.959 773.781 619.51 774.239 619.894 774.832C620.277 775.424 620.469 776.121 620.469 776.922C620.469 777.727 620.277 778.437 619.894 779.05C619.51 779.66 618.959 780.137 618.238 780.482C617.523 780.827 616.664 781 615.662 781H610.76V767.909H613.138V779.057H615.662C616.191 779.057 616.638 778.957 617.005 778.756C617.371 778.556 617.648 778.292 617.836 777.964C618.027 777.636 618.123 777.28 618.123 776.896C618.123 776.342 617.91 775.871 617.484 775.484C617.062 775.092 616.455 774.896 615.662 774.896H612.339V772.965ZM624.575 781V767.909H626.947V773.451H633.013V767.909H635.391V781H633.013V775.439H626.947V781H624.575ZM639.77 781V767.909H648.284V769.897H642.141V773.451H647.843V775.439H642.141V779.012H648.335V781H639.77ZM652.503 781V767.909H657.515C658.461 767.909 659.247 768.058 659.873 768.357C660.504 768.651 660.975 769.053 661.286 769.565C661.601 770.076 661.759 770.656 661.759 771.303C661.759 771.836 661.657 772.292 661.452 772.671C661.248 773.046 660.973 773.351 660.628 773.585C660.282 773.82 659.897 773.988 659.471 774.09V774.218C659.935 774.244 660.38 774.386 660.807 774.646C661.237 774.902 661.589 775.264 661.861 775.733C662.134 776.202 662.27 776.768 662.27 777.433C662.27 778.111 662.106 778.72 661.778 779.261C661.45 779.798 660.956 780.222 660.295 780.533C659.635 780.844 658.804 781 657.802 781H652.503ZM654.875 779.018H657.425C658.286 779.018 658.906 778.854 659.285 778.526C659.669 778.194 659.861 777.768 659.861 777.248C659.861 776.86 659.765 776.511 659.573 776.2C659.381 775.884 659.108 775.637 658.755 775.458C658.401 775.275 657.979 775.183 657.489 775.183H654.875V779.018ZM654.875 773.477H657.221C657.63 773.477 657.998 773.402 658.326 773.253C658.655 773.099 658.912 772.884 659.1 772.607C659.292 772.326 659.388 771.994 659.388 771.61C659.388 771.103 659.209 770.685 658.851 770.357C658.497 770.029 657.971 769.865 657.272 769.865H654.875V773.477ZM677.831 774.455C677.831 775.865 677.567 777.073 677.038 778.079C676.514 779.08 675.798 779.847 674.89 780.38C673.987 780.913 672.962 781.179 671.816 781.179C670.67 781.179 669.643 780.913 668.735 780.38C667.832 779.843 667.116 779.074 666.587 778.072C666.063 777.067 665.801 775.861 665.801 774.455C665.801 773.044 666.063 771.838 666.587 770.837C667.116 769.831 667.832 769.062 668.735 768.529C669.643 767.996 670.67 767.73 671.816 767.73C672.962 767.73 673.987 767.996 674.89 768.529C675.798 769.062 676.514 769.831 677.038 770.837C677.567 771.838 677.831 773.044 677.831 774.455ZM675.447 774.455C675.447 773.462 675.291 772.624 674.98 771.942C674.673 771.256 674.247 770.739 673.702 770.389C673.156 770.036 672.528 769.859 671.816 769.859C671.104 769.859 670.476 770.036 669.93 770.389C669.385 770.739 668.957 771.256 668.645 771.942C668.339 772.624 668.185 773.462 668.185 774.455C668.185 775.447 668.339 776.287 668.645 776.973C668.957 777.655 669.385 778.173 669.93 778.526C670.476 778.876 671.104 779.05 671.816 779.05C672.528 779.05 673.156 778.876 673.702 778.526C674.247 778.173 674.673 777.655 674.98 776.973C675.291 776.287 675.447 775.447 675.447 774.455ZM693.078 772.326H690.687C690.619 771.934 690.494 771.587 690.31 771.284C690.127 770.977 689.899 770.717 689.626 770.504C689.354 770.291 689.043 770.131 688.693 770.025C688.348 769.914 687.975 769.859 687.575 769.859C686.863 769.859 686.232 770.038 685.682 770.396C685.133 770.749 684.702 771.269 684.391 771.955C684.08 772.637 683.925 773.47 683.925 774.455C683.925 775.456 684.08 776.3 684.391 776.986C684.707 777.668 685.137 778.183 685.682 778.533C686.232 778.878 686.861 779.05 687.568 779.05C687.96 779.05 688.327 778.999 688.668 778.897C689.013 778.79 689.322 778.635 689.594 778.43C689.871 778.226 690.104 777.974 690.291 777.676C690.483 777.378 690.615 777.037 690.687 776.653L693.078 776.666C692.989 777.288 692.795 777.872 692.496 778.418C692.202 778.963 691.817 779.445 691.339 779.862C690.862 780.276 690.304 780.599 689.665 780.834C689.026 781.064 688.316 781.179 687.536 781.179C686.386 781.179 685.359 780.913 684.455 780.38C683.552 779.847 682.84 779.078 682.32 778.072C681.8 777.067 681.54 775.861 681.54 774.455C681.54 773.044 681.803 771.838 682.327 770.837C682.851 769.831 683.565 769.062 684.468 768.529C685.371 767.996 686.394 767.73 687.536 767.73C688.265 767.73 688.942 767.832 689.569 768.037C690.195 768.241 690.754 768.542 691.244 768.938C691.734 769.33 692.136 769.812 692.452 770.383C692.771 770.95 692.98 771.597 693.078 772.326ZM696.474 769.897V767.909H706.919V769.897H702.873V781H700.521V769.897H696.474ZM721.85 774.455C721.85 775.865 721.586 777.073 721.057 778.079C720.533 779.08 719.817 779.847 718.91 780.38C718.006 780.913 716.981 781.179 715.835 781.179C714.689 781.179 713.662 780.913 712.754 780.38C711.851 779.843 711.135 779.074 710.606 778.072C710.082 777.067 709.82 775.861 709.82 774.455C709.82 773.044 710.082 771.838 710.606 770.837C711.135 769.831 711.851 769.062 712.754 768.529C713.662 767.996 714.689 767.73 715.835 767.73C716.981 767.73 718.006 767.996 718.91 768.529C719.817 769.062 720.533 769.831 721.057 770.837C721.586 771.838 721.85 773.044 721.85 774.455ZM719.466 774.455C719.466 773.462 719.31 772.624 718.999 771.942C718.692 771.256 718.266 770.739 717.721 770.389C717.175 770.036 716.547 769.859 715.835 769.859C715.123 769.859 714.495 770.036 713.949 770.389C713.404 770.739 712.976 771.256 712.665 771.942C712.358 772.624 712.204 773.462 712.204 774.455C712.204 775.447 712.358 776.287 712.665 776.973C712.976 777.655 713.404 778.173 713.949 778.526C714.495 778.876 715.123 779.05 715.835 779.05C716.547 779.05 717.175 778.876 717.721 778.526C718.266 778.173 718.692 777.655 718.999 776.973C719.31 776.287 719.466 775.447 719.466 774.455ZM726.282 767.909H728.602V772.179C728.602 772.733 728.698 773.172 728.89 773.496C729.086 773.82 729.376 774.052 729.759 774.192C730.143 774.333 730.62 774.403 731.191 774.403C731.447 774.403 731.722 774.395 732.016 774.378C732.314 774.357 732.614 774.329 732.917 774.295C733.219 774.256 733.509 774.212 733.786 774.161C734.063 774.105 734.31 774.045 734.528 773.982V775.912C734.31 775.98 734.067 776.042 733.799 776.097C733.53 776.153 733.247 776.2 732.949 776.238C732.651 776.276 732.352 776.306 732.054 776.327C731.756 776.349 731.468 776.359 731.191 776.359C730.19 776.359 729.32 776.217 728.583 775.931C727.85 775.641 727.283 775.19 726.883 774.576C726.482 773.962 726.282 773.163 726.282 772.179V767.909ZM734.138 767.909H736.471V781H734.138V767.909ZM741.157 781V767.909H743.528V773.451H749.594V767.909H751.972V781H749.594V775.439H743.528V781H741.157ZM758.032 781H755.501L760.11 767.909H763.037L767.652 781H765.121L761.625 770.594H761.523L758.032 781ZM758.116 775.867H765.019V777.772H758.116V775.867ZM780.842 781H778.464V769.891H776.29C775.702 769.891 775.219 769.978 774.839 770.153C774.464 770.323 774.185 770.575 774.002 770.907C773.823 771.235 773.734 771.631 773.734 772.096C773.734 772.56 773.823 772.952 774.002 773.272C774.181 773.587 774.458 773.828 774.833 773.994C775.212 774.156 775.694 774.237 776.278 774.237H779.461V776.206H775.958C774.952 776.206 774.104 776.04 773.414 775.707C772.724 775.371 772.199 774.896 771.842 774.282C771.488 773.664 771.311 772.935 771.311 772.096C771.311 771.261 771.486 770.53 771.835 769.903C772.189 769.273 772.709 768.783 773.395 768.433C774.081 768.084 774.925 767.909 775.926 767.909H780.842V781ZM774.072 775.068H776.661L773.478 781H770.832L774.072 775.068Z" fill="black"/>
<path opacity="0.4" d="M564.034 997.5H1020.03V882.5L721.025 873C721.025 873 566.665 848.835 564.034 848.021V848C563.989 848 563.989 848.007 564.034 848.021V997.5Z" fill="url(#paint4_linear_3326_2785)"/>
<rect x="1015.19" y="878" width="10.2717" height="10.2717" rx="5.13587" fill="#CACACA"/>
<path d="M563.5 849L717 873L1019 883" stroke="#CACACA" stroke-width="4"/>
<path d="M875.074 982.445V1006.8L865.989 997.684L862 1001.64L877.955 1017.56L893.875 1001.64L889.955 997.684L880.835 1006.8V982.445H875.074Z" fill="#CACACA"/>
<path d="M919.931 1017.77C916.999 1017.76 914.477 1017.03 912.363 1015.6C910.261 1014.17 908.641 1012.1 907.505 1009.38C906.38 1006.66 905.823 1003.4 905.835 999.58C905.835 995.773 906.397 992.528 907.522 989.847C908.658 987.165 910.278 985.125 912.38 983.727C914.494 982.318 917.011 981.614 919.931 981.614C922.852 981.614 925.363 982.318 927.465 983.727C929.579 985.136 931.204 987.182 932.34 989.864C933.477 992.534 934.039 995.773 934.028 999.58C934.028 1003.41 933.46 1006.68 932.323 1009.4C931.198 1012.11 929.585 1014.19 927.482 1015.62C925.38 1017.05 922.863 1017.77 919.931 1017.77ZM919.931 1011.65C921.931 1011.65 923.528 1010.64 924.721 1008.63C925.914 1006.62 926.505 1003.6 926.494 999.58C926.494 996.932 926.221 994.727 925.675 992.966C925.141 991.205 924.38 989.881 923.391 988.994C922.414 988.108 921.261 987.665 919.931 987.665C917.942 987.665 916.352 988.659 915.158 990.648C913.965 992.636 913.363 995.614 913.352 999.58C913.352 1002.26 913.619 1004.5 914.153 1006.3C914.698 1008.08 915.465 1009.42 916.454 1010.32C917.442 1011.2 918.602 1011.65 919.931 1011.65ZM945.352 1012.23L945.165 1014.1C945.017 1015.6 944.733 1017.1 944.312 1018.59C943.903 1020.09 943.472 1021.44 943.017 1022.66C942.574 1023.88 942.216 1024.83 941.943 1025.52H937.239C937.409 1024.85 937.642 1023.91 937.938 1022.71C938.233 1021.52 938.511 1020.18 938.773 1018.69C939.034 1017.2 939.199 1015.68 939.267 1014.14L939.352 1012.23H945.352ZM963.21 1017.48C960.664 1017.48 958.397 1017.04 956.408 1016.16C954.431 1015.28 952.869 1014.06 951.721 1012.52C950.585 1010.96 949.999 1009.16 949.965 1007.13H957.397C957.442 1007.98 957.721 1008.73 958.232 1009.38C958.755 1010.02 959.448 1010.51 960.312 1010.86C961.175 1011.22 962.147 1011.39 963.227 1011.39C964.352 1011.39 965.346 1011.19 966.21 1010.8C967.073 1010.4 967.749 1009.85 968.238 1009.14C968.727 1008.44 968.971 1007.62 968.971 1006.7C968.971 1005.77 968.71 1004.95 968.187 1004.23C967.675 1003.51 966.937 1002.94 965.971 1002.53C965.016 1002.12 963.88 1001.91 962.562 1001.91H959.306V996.494H962.562C963.675 996.494 964.658 996.301 965.511 995.915C966.374 995.528 967.045 994.994 967.522 994.312C967.999 993.619 968.238 992.812 968.238 991.892C968.238 991.017 968.028 990.25 967.607 989.591C967.198 988.92 966.619 988.398 965.869 988.023C965.13 987.648 964.266 987.46 963.278 987.46C962.278 987.46 961.363 987.642 960.533 988.006C959.704 988.358 959.039 988.864 958.539 989.523C958.039 990.182 957.772 990.955 957.738 991.841H950.664C950.698 989.83 951.272 988.057 952.386 986.523C953.499 984.989 954.999 983.79 956.886 982.926C958.783 982.051 960.925 981.614 963.312 981.614C965.721 981.614 967.829 982.051 969.636 982.926C971.442 983.801 972.846 984.983 973.846 986.472C974.857 987.949 975.357 989.608 975.346 991.449C975.357 993.403 974.749 995.034 973.522 996.341C972.306 997.648 970.721 998.477 968.766 998.83V999.102C971.335 999.432 973.289 1000.32 974.63 1001.78C975.982 1003.22 976.653 1005.03 976.641 1007.2C976.653 1009.19 976.079 1010.95 974.92 1012.5C973.772 1014.05 972.187 1015.26 970.164 1016.15C968.141 1017.03 965.823 1017.48 963.21 1017.48ZM1000.56 1010.45V1008.61C1000.56 1007.22 1000.86 1005.93 1001.45 1004.76C1002.05 1003.58 1002.92 1002.64 1004.06 1001.93C1005.2 1001.22 1006.6 1000.86 1008.25 1000.86C1009.92 1000.86 1011.32 1001.21 1012.46 1001.91C1013.61 1002.62 1014.47 1003.56 1015.05 1004.74C1015.64 1005.91 1015.94 1007.2 1015.94 1008.61V1010.45C1015.94 1011.85 1015.64 1013.14 1015.05 1014.32C1014.46 1015.49 1013.59 1016.43 1012.44 1017.14C1011.3 1017.85 1009.9 1018.21 1008.25 1018.21C1006.58 1018.21 1005.18 1017.85 1004.04 1017.14C1002.9 1016.43 1002.04 1015.49 1001.45 1014.32C1000.86 1013.14 1000.56 1011.85 1000.56 1010.45ZM1005.52 1008.61V1010.45C1005.52 1011.26 1005.72 1012.02 1006.1 1012.74C1006.5 1013.45 1007.22 1013.81 1008.25 1013.81C1009.28 1013.81 1009.99 1013.46 1010.36 1012.76C1010.75 1012.05 1010.94 1011.28 1010.94 1010.45V1008.61C1010.94 1007.78 1010.76 1007.01 1010.4 1006.3C1010.03 1005.58 1009.32 1005.22 1008.25 1005.22C1007.23 1005.22 1006.52 1005.58 1006.12 1006.3C1005.72 1007.01 1005.52 1007.78 1005.52 1008.61ZM982.648 990.477V988.636C982.648 987.227 982.949 985.937 983.551 984.767C984.153 983.585 985.023 982.642 986.159 981.938C987.307 981.233 988.693 980.881 990.318 980.881C992 980.881 993.409 981.233 994.545 981.938C995.682 982.642 996.545 983.585 997.136 984.767C997.727 985.937 998.023 987.227 998.023 988.636V990.477C998.023 991.886 997.722 993.176 997.119 994.347C996.528 995.517 995.659 996.455 994.511 997.159C993.375 997.852 991.977 998.199 990.318 998.199C988.659 998.199 987.256 997.847 986.108 997.142C984.972 996.426 984.108 995.489 983.517 994.33C982.938 993.159 982.648 991.875 982.648 990.477ZM987.642 988.636V990.477C987.642 991.307 987.835 992.074 988.222 992.778C988.619 993.483 989.318 993.835 990.318 993.835C991.364 993.835 992.074 993.483 992.449 992.778C992.835 992.074 993.028 991.307 993.028 990.477V988.636C993.028 987.807 992.847 987.034 992.483 986.318C992.119 985.602 991.398 985.244 990.318 985.244C989.307 985.244 988.608 985.608 988.222 986.335C987.835 987.062 987.642 987.83 987.642 988.636ZM984.898 1017L1008.9 982.091H1013.36L989.364 1017H984.898Z" fill="black"/>
<path d="M571.609 818V834H569.188V820.422H569.094L565.266 822.922V820.609L569.258 818H571.609ZM577.861 831.812L577.744 832.664C577.666 833.289 577.533 833.94 577.346 834.617C577.164 835.299 576.973 835.932 576.775 836.516C576.583 837.099 576.424 837.563 576.299 837.906H574.643C574.71 837.583 574.804 837.146 574.924 836.594C575.044 836.047 575.161 835.435 575.275 834.758C575.39 834.081 575.476 833.391 575.533 832.687L575.611 831.812H577.861ZM585.897 834.219C584.824 834.219 583.865 834.034 583.022 833.664C582.183 833.294 581.519 832.781 581.03 832.125C580.545 831.464 580.285 830.698 580.248 829.828H582.701C582.733 830.302 582.891 830.714 583.178 831.062C583.47 831.406 583.85 831.672 584.319 831.859C584.787 832.047 585.308 832.141 585.881 832.141C586.511 832.141 587.069 832.031 587.553 831.812C588.043 831.594 588.425 831.289 588.701 830.898C588.977 830.503 589.115 830.047 589.115 829.531C589.115 828.995 588.977 828.523 588.701 828.117C588.431 827.706 588.032 827.383 587.506 827.148C586.985 826.914 586.355 826.797 585.615 826.797H584.264V824.828H585.615C586.209 824.828 586.73 824.721 587.178 824.508C587.631 824.294 587.985 823.997 588.24 823.617C588.496 823.232 588.623 822.781 588.623 822.266C588.623 821.771 588.511 821.341 588.287 820.977C588.069 820.607 587.756 820.318 587.35 820.109C586.949 819.901 586.475 819.797 585.928 819.797C585.407 819.797 584.92 819.893 584.467 820.086C584.019 820.273 583.655 820.544 583.373 820.898C583.092 821.247 582.941 821.667 582.92 822.156H580.584C580.61 821.292 580.865 820.531 581.35 819.875C581.839 819.219 582.485 818.706 583.287 818.336C584.089 817.966 584.98 817.781 585.959 817.781C586.985 817.781 587.871 817.982 588.615 818.383C589.365 818.779 589.944 819.307 590.35 819.969C590.761 820.63 590.964 821.354 590.959 822.141C590.964 823.036 590.714 823.797 590.209 824.422C589.709 825.047 589.043 825.466 588.209 825.68V825.805C589.272 825.966 590.095 826.388 590.678 827.07C591.266 827.753 591.558 828.599 591.553 829.609C591.558 830.49 591.313 831.279 590.819 831.977C590.329 832.674 589.66 833.224 588.811 833.625C587.962 834.021 586.99 834.219 585.897 834.219Z" fill="#CFCFCF"/>
<path d="M999.621 849V865H997.199V851.422H997.105L993.277 853.922V851.609L997.269 849H999.621ZM1005.87 862.812L1005.76 863.664C1005.68 864.289 1005.54 864.94 1005.36 865.617C1005.18 866.299 1004.98 866.932 1004.79 867.516C1004.59 868.099 1004.44 868.563 1004.31 868.906H1002.65C1002.72 868.583 1002.82 868.146 1002.94 867.594C1003.06 867.047 1003.17 866.435 1003.29 865.758C1003.4 865.081 1003.49 864.391 1003.54 863.687L1003.62 862.812H1005.87ZM1013.91 865.266C1012.67 865.26 1011.62 864.935 1010.74 864.289C1009.87 863.643 1009.2 862.703 1008.74 861.469C1008.27 860.234 1008.04 858.747 1008.04 857.008C1008.04 855.273 1008.27 853.792 1008.74 852.562C1009.21 851.333 1009.88 850.396 1010.75 849.75C1011.63 849.104 1012.68 848.781 1013.91 848.781C1015.13 848.781 1016.18 849.107 1017.06 849.758C1017.93 850.404 1018.6 851.341 1019.06 852.57C1019.53 853.794 1019.77 855.273 1019.77 857.008C1019.77 858.753 1019.54 860.242 1019.07 861.477C1018.61 862.706 1017.94 863.646 1017.06 864.297C1016.19 864.943 1015.14 865.266 1013.91 865.266ZM1013.91 863.18C1014.99 863.18 1015.84 862.651 1016.45 861.594C1017.06 860.536 1017.37 859.008 1017.37 857.008C1017.37 855.68 1017.23 854.557 1016.95 853.641C1016.67 852.719 1016.27 852.021 1015.75 851.547C1015.24 851.068 1014.62 850.828 1013.91 850.828C1012.83 850.828 1011.98 851.359 1011.37 852.422C1010.75 853.484 1010.44 855.013 1010.44 857.008C1010.44 858.341 1010.58 859.469 1010.85 860.391C1011.13 861.307 1011.53 862.003 1012.05 862.477C1012.56 862.945 1013.18 863.18 1013.91 863.18Z" fill="#CFCFCF"/>
<defs>
<linearGradient id="paint0_linear_3326_2785" x1="537.477" y1="223" x2="537.477" y2="372.5" gradientUnits="userSpaceOnUse">
<stop stop-color="#04B34A"/>
<stop offset="0.0666667" stop-color="#04B34A" stop-opacity="0.991353"/>
<stop offset="0.133333" stop-color="#04B34A" stop-opacity="0.96449"/>
<stop offset="0.2" stop-color="#04B34A" stop-opacity="0.91834"/>
<stop offset="0.266667" stop-color="#04B34A" stop-opacity="0.852589"/>
<stop offset="0.333333" stop-color="#04B34A" stop-opacity="0.768225"/>
<stop offset="0.4" stop-color="#04B34A" stop-opacity="0.668116"/>
<stop offset="0.466667" stop-color="#04B34A" stop-opacity="0.557309"/>
<stop offset="0.533333" stop-color="#04B34A" stop-opacity="0.442691"/>
<stop offset="0.6" stop-color="#04B34A" stop-opacity="0.331884"/>
<stop offset="0.666667" stop-color="#04B34A" stop-opacity="0.231775"/>
<stop offset="0.733333" stop-color="#04B34A" stop-opacity="0.147411"/>
<stop offset="0.8" stop-color="#04B34A" stop-opacity="0.0816599"/>
<stop offset="0.866667" stop-color="#04B34A" stop-opacity="0.03551"/>
<stop offset="0.933333" stop-color="#04B34A" stop-opacity="0.01"/>
<stop offset="1" stop-color="#04B34A" stop-opacity="0"/>
</linearGradient>
<linearGradient id="paint1_linear_3326_2785" x1="282.996" y1="593.5" x2="282.996" y2="685.5" gradientUnits="userSpaceOnUse">
<stop stop-color="#D9D9D9"/>
<stop offset="1" stop-color="#D9D9D9" stop-opacity="0"/>
</linearGradient>
<linearGradient id="paint2_linear_3326_2785" x1="283.02" y1="906.5" x2="283.02" y2="998.5" gradientUnits="userSpaceOnUse">
<stop stop-color="#D9D9D9"/>
<stop offset="1" stop-color="#D9D9D9" stop-opacity="0"/>
</linearGradient>
<linearGradient id="paint3_linear_3326_2785" x1="791.996" y1="593.5" x2="791.996" y2="685.5" gradientUnits="userSpaceOnUse">
<stop stop-color="#D9D9D9"/>
<stop offset="1" stop-color="#D9D9D9" stop-opacity="0"/>
</linearGradient>
<linearGradient id="paint4_linear_3326_2785" x1="792.03" y1="905.5" x2="792.03" y2="997.5" gradientUnits="userSpaceOnUse">
<stop stop-color="#D9D9D9"/>
<stop offset="1" stop-color="#D9D9D9" stop-opacity="0"/>
</linearGradient>
</defs>
</svg>
