<svg width="1080" height="794" viewBox="0 0 1080 794" fill="none" xmlns="http://www.w3.org/2000/svg">
<rect width="1080" height="794" fill="white"/>
<path d="M915.587 49L912.911 64.8629H915.891L914.181 75H908.668L909.483 70.1698H895.329L894.514 75H889L890.71 64.8629H892.824C893.79 63.5513 894.707 61.8209 895.74 58.1838L898.364 49H915.59H915.587ZM908.584 54.3069H902.535L901.369 58.3918C900.354 61.9393 899.515 63.5484 898.667 64.8629H906.805L908.584 54.3069Z" fill="#EAECEF"/>
<path d="M920.448 49H933.56C938.18 49 940.257 51.3544 939.681 54.7547C939.314 56.93 937.677 58.3311 936.141 58.958C937.818 59.6138 939.146 61.2836 938.663 64.1464C938.05 67.7836 935.085 70.1698 930.167 70.1698H916.875L920.448 49ZM924.295 61.7024L923.67 65.4002H929.69C931.298 65.4002 932.293 64.8051 932.504 63.5513C932.721 62.2687 931.923 61.7024 930.312 61.7024H924.292H924.295ZM925.631 53.7724L925.099 56.9329H931.029C932.282 56.9329 933.161 56.4851 933.352 55.3527C933.543 54.2202 932.814 53.7724 931.561 53.7724H925.631Z" fill="#EAECEF"/>
<path d="M943.47 49H949.579L947.427 61.7602L958.906 49H965.015L961.445 70.1698H955.336L957.479 57.4673L946.01 70.1698H939.9L943.47 49Z" fill="#EAECEF"/>
<path d="M974.098 59.1978L966.907 49H973.821L979.812 57.6464L981.272 49H987.084L985.626 57.6464L994.536 49H1001.3L990.954 58.9291L998.177 70.1698H990.815L985.039 61.1362L983.514 70.1698H977.703L979.227 61.1362L970.402 70.1698H963.309L974.101 59.1978H974.098Z" fill="#EAECEF"/>
<path d="M1010.23 49H1003.13L1010.19 58.9291L999.713 70.1698H1006.81L1017.29 58.9291L1010.23 49ZM1021.44 49H1014.34L1021.41 58.9291L1010.93 70.1698H1018.02L1028.5 58.9291L1021.44 49ZM1032.94 49H1025.85L1032.91 58.9291L1022.43 70.1698H1029.52L1040 58.9291L1032.94 49Z" fill="#EAECEF"/>
<path d="M42.2756 75V48.8182H59.9176V53.3821H47.8111V59.6207H59.0099V64.1847H47.8111V70.4361H59.9688V75H42.2756ZM61.4979 75L68.3629 64.7855L61.5362 55.3636H67.7493L72.8501 63.0469H73.6939V55.3636H79.1399V63.0469H79.9581L85.0589 55.3636H91.272L84.4581 64.7855L91.3104 75H84.9567L79.9069 67.3295H79.1399V75H73.6939V67.3295H72.9268L67.8515 75H61.4979ZM101.187 75.3835C99.1676 75.3835 97.4289 74.9744 95.9716 74.1562C94.5227 73.3295 93.4062 72.1619 92.6221 70.6534C91.838 69.1364 91.446 67.3423 91.446 65.2713C91.446 63.2514 91.838 61.4787 92.6221 59.9531C93.4062 58.4276 94.5099 57.2386 95.9332 56.3864C97.365 55.5341 99.044 55.108 100.97 55.108C102.266 55.108 103.472 55.3168 104.588 55.7344C105.713 56.1435 106.693 56.7614 107.528 57.5881C108.372 58.4148 109.028 59.4545 109.497 60.7074C109.966 61.9517 110.2 63.4091 110.2 65.0795V66.5753H93.6193V63.2003H105.074C105.074 62.4162 104.903 61.7216 104.562 61.1165C104.222 60.5114 103.749 60.0384 103.143 59.6974C102.547 59.348 101.852 59.1733 101.06 59.1733C100.233 59.1733 99.5 59.3651 98.8608 59.7486C98.2301 60.1236 97.7358 60.6307 97.3778 61.2699C97.0199 61.9006 96.8366 62.6037 96.8281 63.3793V66.5881C96.8281 67.5597 97.0071 68.3991 97.365 69.1065C97.7315 69.8139 98.2471 70.3594 98.9119 70.7429C99.5767 71.1264 100.365 71.3182 101.277 71.3182C101.882 71.3182 102.436 71.233 102.939 71.0625C103.442 70.892 103.872 70.6364 104.23 70.2955C104.588 69.9545 104.861 69.5369 105.048 69.0426L110.085 69.375C109.83 70.5852 109.305 71.642 108.513 72.5455C107.729 73.4403 106.714 74.1392 105.47 74.642C104.234 75.1364 102.807 75.3835 101.187 75.3835ZM123.922 68.9787L129.24 55.3636H133.382L125.725 75H122.107L114.628 55.3636H118.757L123.922 68.9787ZM117.517 55.3636V75H112.314V55.3636H117.517ZM130.595 75V55.3636H135.735V75H130.595ZM147.456 75.3835C145.436 75.3835 143.697 74.9744 142.24 74.1562C140.791 73.3295 139.675 72.1619 138.891 70.6534C138.106 69.1364 137.714 67.3423 137.714 65.2713C137.714 63.2514 138.106 61.4787 138.891 59.9531C139.675 58.4276 140.778 57.2386 142.202 56.3864C143.633 55.5341 145.312 55.108 147.239 55.108C148.534 55.108 149.74 55.3168 150.856 55.7344C151.981 56.1435 152.962 56.7614 153.797 57.5881C154.641 58.4148 155.297 59.4545 155.766 60.7074C156.234 61.9517 156.469 63.4091 156.469 65.0795V66.5753H139.888V63.2003H151.342C151.342 62.4162 151.172 61.7216 150.831 61.1165C150.49 60.5114 150.017 60.0384 149.412 59.6974C148.815 59.348 148.121 59.1733 147.328 59.1733C146.501 59.1733 145.768 59.3651 145.129 59.7486C144.499 60.1236 144.004 60.6307 143.646 61.2699C143.288 61.9006 143.105 62.6037 143.097 63.3793V66.5881C143.097 67.5597 143.276 68.3991 143.633 69.1065C144 69.8139 144.516 70.3594 145.18 70.7429C145.845 71.1264 146.633 71.3182 147.545 71.3182C148.151 71.3182 148.704 71.233 149.207 71.0625C149.71 70.892 150.141 70.6364 150.499 70.2955C150.856 69.9545 151.129 69.5369 151.317 69.0426L156.354 69.375C156.098 70.5852 155.574 71.642 154.781 72.5455C153.997 73.4403 152.983 74.1392 151.739 74.642C150.503 75.1364 149.075 75.3835 147.456 75.3835ZM167.455 75.3835C165.443 75.3835 163.713 74.9574 162.264 74.1051C160.824 73.2443 159.716 72.0511 158.941 70.5256C158.174 69 157.79 67.2443 157.79 65.2585C157.79 63.2472 158.178 61.483 158.953 59.9659C159.738 58.4403 160.85 57.2514 162.29 56.3991C163.73 55.5384 165.443 55.108 167.429 55.108C169.142 55.108 170.642 55.419 171.929 56.0412C173.216 56.6634 174.235 57.5369 174.985 58.6619C175.735 59.7869 176.148 61.108 176.225 62.625H171.086C170.941 61.6449 170.557 60.8565 169.935 60.2599C169.321 59.6548 168.516 59.3523 167.519 59.3523C166.675 59.3523 165.938 59.5824 165.307 60.0426C164.685 60.4943 164.199 61.1548 163.85 62.0241C163.5 62.8935 163.326 63.946 163.326 65.1818C163.326 66.4347 163.496 67.5 163.837 68.3778C164.186 69.2557 164.676 69.9247 165.307 70.3849C165.938 70.8452 166.675 71.0753 167.519 71.0753C168.141 71.0753 168.699 70.9474 169.193 70.6918C169.696 70.4361 170.11 70.0653 170.434 69.5795C170.766 69.0852 170.983 68.4929 171.086 67.8026H176.225C176.139 69.3026 175.73 70.6236 174.997 71.7656C174.273 72.8991 173.272 73.7855 171.993 74.4247C170.715 75.0639 169.202 75.3835 167.455 75.3835ZM189.777 75V59.6335H186.095C185.098 59.6335 184.34 59.8636 183.82 60.3239C183.3 60.7841 183.044 61.3295 183.053 61.9602C183.044 62.5994 183.291 63.1406 183.794 63.5838C184.306 64.0185 185.056 64.2358 186.044 64.2358H191.593V67.9176H186.044C184.365 67.9176 182.912 67.6619 181.685 67.1506C180.458 66.6392 179.512 65.9276 178.847 65.0156C178.182 64.0952 177.854 63.0256 177.862 61.8068C177.854 60.5284 178.182 59.4077 178.847 58.4446C179.512 57.473 180.462 56.7187 181.698 56.1818C182.942 55.6364 184.408 55.3636 186.095 55.3636H194.853V75H189.777ZM177.3 75L182.759 64.7727H187.962L182.516 75H177.3ZM214.685 55.3636V75H209.52V55.3636H214.685ZM212.167 63.9801V68.2756C211.749 68.4631 211.229 68.642 210.607 68.8125C209.985 68.9744 209.333 69.1065 208.651 69.2088C207.969 69.3111 207.33 69.3622 206.734 69.3622C203.913 69.3622 201.692 68.7827 200.073 67.6236C198.454 66.456 197.644 64.5937 197.644 62.0369V55.3381H202.783V62.0369C202.783 62.7955 202.911 63.3963 203.167 63.8395C203.431 64.2827 203.849 64.6023 204.42 64.7983C204.999 64.9858 205.77 65.0795 206.734 65.0795C207.628 65.0795 208.506 64.9858 209.367 64.7983C210.228 64.6108 211.161 64.3381 212.167 63.9801ZM231.14 63.0085V67.2912H220.887V63.0085H231.14ZM222.677 55.3636V75H217.474V55.3636H222.677ZM234.553 55.3636V75H229.388V55.3636H234.553ZM240.752 61.3977H246.62C249.219 61.3977 251.247 62.0199 252.705 63.2642C254.162 64.5 254.891 66.1534 254.891 68.2244C254.891 69.571 254.563 70.7557 253.906 71.7784C253.25 72.7926 252.304 73.5852 251.068 74.1562C249.833 74.7188 248.35 75 246.62 75H237.338V55.3636H242.541V70.7173H246.62C247.531 70.7173 248.281 70.4872 248.87 70.027C249.458 69.5668 249.756 68.9787 249.764 68.2628C249.756 67.5043 249.458 66.8864 248.87 66.4091C248.281 65.9233 247.531 65.6804 246.62 65.6804H240.752V61.3977ZM257 75V55.3636H262.446V75H257ZM270.562 67.8153L277.632 55.3636H283.001V75H277.811V62.5099L270.767 75H265.359V55.3636H270.562V67.8153ZM276.699 48.5114H280.496C280.487 50.0625 279.912 51.3111 278.77 52.2571C277.636 53.2031 276.102 53.6761 274.167 53.6761C272.224 53.6761 270.686 53.2031 269.552 52.2571C268.419 51.3111 267.852 50.0625 267.852 48.5114H271.623C271.615 49.0994 271.802 49.6278 272.186 50.0966C272.578 50.5653 273.239 50.7997 274.167 50.7997C275.071 50.7997 275.719 50.5696 276.111 50.1094C276.503 49.6491 276.699 49.1165 276.699 48.5114ZM292.819 75V55.3636H309.988V75H304.785V59.6463H297.958V75H292.819ZM311.744 75L311.719 70.679H312.371C312.831 70.679 313.227 70.5682 313.559 70.3466C313.9 70.1165 314.182 69.7457 314.403 69.2344C314.625 68.723 314.8 68.0455 314.927 67.2017C315.055 66.3494 315.14 65.3011 315.183 64.0568L315.503 55.3636H330.434V75H325.244V59.6463H320.399L320.092 65.642C320.015 67.2869 319.815 68.7017 319.491 69.8864C319.176 71.071 318.737 72.0426 318.175 72.8011C317.612 73.5511 316.934 74.1051 316.142 74.4631C315.349 74.821 314.429 75 313.38 75H311.744ZM338.816 75.3707C337.563 75.3707 336.447 75.1534 335.466 74.7188C334.486 74.2756 333.711 73.6236 333.14 72.7628C332.577 71.8935 332.296 70.8111 332.296 69.5156C332.296 68.4247 332.496 67.5085 332.897 66.767C333.297 66.0256 333.843 65.429 334.533 64.9773C335.224 64.5256 336.008 64.1847 336.885 63.9545C337.772 63.7244 338.701 63.5625 339.672 63.4688C340.814 63.3494 341.735 63.2386 342.434 63.1364C343.133 63.0256 343.64 62.8636 343.955 62.6506C344.27 62.4375 344.428 62.1222 344.428 61.7045V61.6278C344.428 60.8182 344.172 60.1918 343.661 59.7486C343.158 59.3054 342.442 59.0838 341.513 59.0838C340.533 59.0838 339.753 59.3011 339.174 59.7358C338.594 60.1619 338.211 60.6989 338.023 61.3466L332.986 60.9375C333.242 59.7443 333.745 58.7131 334.495 57.8438C335.245 56.9659 336.212 56.2926 337.397 55.8239C338.59 55.3466 339.971 55.108 341.539 55.108C342.63 55.108 343.674 55.2358 344.671 55.4915C345.677 55.7472 346.567 56.1435 347.343 56.6804C348.127 57.2173 348.745 57.9077 349.197 58.7514C349.648 59.5866 349.874 60.5881 349.874 61.7557V75H344.709V72.277H344.556C344.241 72.8906 343.819 73.4318 343.29 73.9006C342.762 74.3608 342.127 74.723 341.385 74.9872C340.644 75.2429 339.787 75.3707 338.816 75.3707ZM340.376 71.6122C341.177 71.6122 341.884 71.4545 342.498 71.1392C343.111 70.8153 343.593 70.3807 343.942 69.8352C344.292 69.2898 344.466 68.6719 344.466 67.9815V65.8977C344.296 66.0085 344.062 66.1108 343.763 66.2045C343.474 66.2898 343.145 66.3707 342.779 66.4474C342.412 66.5156 342.046 66.5795 341.679 66.6392C341.313 66.6903 340.981 66.7372 340.682 66.7798C340.043 66.8736 339.485 67.0227 339.008 67.2273C338.53 67.4318 338.16 67.7088 337.895 68.0582C337.631 68.3991 337.499 68.8253 337.499 69.3366C337.499 70.0781 337.768 70.6449 338.304 71.0369C338.85 71.4205 339.54 71.6122 340.376 71.6122ZM350.687 59.6463V55.3636H368.483V59.6463H362.155V75H356.964V59.6463H350.687ZM378.59 75.3835C376.57 75.3835 374.831 74.9744 373.374 74.1562C371.925 73.3295 370.809 72.1619 370.025 70.6534C369.241 69.1364 368.848 67.3423 368.848 65.2713C368.848 63.2514 369.241 61.4787 370.025 59.9531C370.809 58.4276 371.912 57.2386 373.336 56.3864C374.768 55.5341 376.446 55.108 378.373 55.108C379.668 55.108 380.874 55.3168 381.991 55.7344C383.116 56.1435 384.096 56.7614 384.931 57.5881C385.775 58.4148 386.431 59.4545 386.9 60.7074C387.368 61.9517 387.603 63.4091 387.603 65.0795V66.5753H371.022V63.2003H382.476C382.476 62.4162 382.306 61.7216 381.965 61.1165C381.624 60.5114 381.151 60.0384 380.546 59.6974C379.949 59.348 379.255 59.1733 378.462 59.1733C377.635 59.1733 376.902 59.3651 376.263 59.7486C375.633 60.1236 375.138 60.6307 374.78 61.2699C374.422 61.9006 374.239 62.6037 374.231 63.3793V66.5881C374.231 67.5597 374.41 68.3991 374.768 69.1065C375.134 69.8139 375.65 70.3594 376.314 70.7429C376.979 71.1264 377.768 71.3182 378.679 71.3182C379.285 71.3182 379.839 71.233 380.341 71.0625C380.844 70.892 381.275 70.6364 381.633 70.2955C381.991 69.9545 382.263 69.5369 382.451 69.0426L387.488 69.375C387.232 70.5852 386.708 71.642 385.915 72.5455C385.131 73.4403 384.117 74.1392 382.873 74.642C381.637 75.1364 380.209 75.3835 378.59 75.3835ZM388.087 75L394.952 64.7855L388.125 55.3636H394.338L399.439 63.0469H400.283V55.3636H405.729V63.0469H406.547L411.648 55.3636H417.861L411.047 64.7855L417.899 75H411.546L406.496 67.3295H405.729V75H400.283V67.3295H399.516L394.44 75H388.087ZM51.0455 119.384C49.0597 119.384 47.3423 118.962 45.8935 118.118C44.4531 117.266 43.3409 116.081 42.5568 114.564C41.7727 113.038 41.3807 111.27 41.3807 109.259C41.3807 107.23 41.7727 105.457 42.5568 103.94C43.3409 102.415 44.4531 101.23 45.8935 100.386C47.3423 99.5341 49.0597 99.108 51.0455 99.108C53.0312 99.108 54.7443 99.5341 56.1847 100.386C57.6335 101.23 58.75 102.415 59.5341 103.94C60.3182 105.457 60.7102 107.23 60.7102 109.259C60.7102 111.27 60.3182 113.038 59.5341 114.564C58.75 116.081 57.6335 117.266 56.1847 118.118C54.7443 118.962 53.0312 119.384 51.0455 119.384ZM51.071 115.165C51.9744 115.165 52.7287 114.909 53.3338 114.398C53.9389 113.878 54.3949 113.17 54.7017 112.276C55.017 111.381 55.1747 110.362 55.1747 109.22C55.1747 108.078 55.017 107.06 54.7017 106.165C54.3949 105.27 53.9389 104.562 53.3338 104.043C52.7287 103.523 51.9744 103.263 51.071 103.263C50.1591 103.263 49.392 103.523 48.7699 104.043C48.1563 104.562 47.6918 105.27 47.3764 106.165C47.0696 107.06 46.9162 108.078 46.9162 109.22C46.9162 110.362 47.0696 111.381 47.3764 112.276C47.6918 113.17 48.1563 113.878 48.7699 114.398C49.392 114.909 50.1591 115.165 51.071 115.165ZM60.9098 103.646V99.3636H78.7052V103.646H72.3771V119H67.1868V103.646H60.9098ZM87.4588 119V99.3636H92.9048V106.983H94.4389L99.7826 99.3636H106.175L99.2329 109.105L106.251 119H99.7826L94.9375 112.033H92.9048V119H87.4588ZM112.712 119.371C111.459 119.371 110.343 119.153 109.363 118.719C108.382 118.276 107.607 117.624 107.036 116.763C106.473 115.893 106.192 114.811 106.192 113.516C106.192 112.425 106.392 111.509 106.793 110.767C107.193 110.026 107.739 109.429 108.429 108.977C109.12 108.526 109.904 108.185 110.782 107.955C111.668 107.724 112.597 107.562 113.568 107.469C114.711 107.349 115.631 107.239 116.33 107.136C117.029 107.026 117.536 106.864 117.851 106.651C118.166 106.437 118.324 106.122 118.324 105.705V105.628C118.324 104.818 118.068 104.192 117.557 103.749C117.054 103.305 116.338 103.084 115.409 103.084C114.429 103.084 113.649 103.301 113.07 103.736C112.49 104.162 112.107 104.699 111.919 105.347L106.882 104.938C107.138 103.744 107.641 102.713 108.391 101.844C109.141 100.966 110.108 100.293 111.293 99.8239C112.486 99.3466 113.867 99.108 115.435 99.108C116.526 99.108 117.57 99.2358 118.567 99.4915C119.573 99.7472 120.463 100.143 121.239 100.68C122.023 101.217 122.641 101.908 123.093 102.751C123.544 103.587 123.77 104.588 123.77 105.756V119H118.605V116.277H118.452C118.137 116.891 117.715 117.432 117.186 117.901C116.658 118.361 116.023 118.723 115.282 118.987C114.54 119.243 113.684 119.371 112.712 119.371ZM114.272 115.612C115.073 115.612 115.78 115.455 116.394 115.139C117.007 114.815 117.489 114.381 117.838 113.835C118.188 113.29 118.363 112.672 118.363 111.982V109.898C118.192 110.009 117.958 110.111 117.659 110.205C117.37 110.29 117.041 110.371 116.675 110.447C116.309 110.516 115.942 110.58 115.576 110.639C115.209 110.69 114.877 110.737 114.578 110.78C113.939 110.874 113.381 111.023 112.904 111.227C112.426 111.432 112.056 111.709 111.791 112.058C111.527 112.399 111.395 112.825 111.395 113.337C111.395 114.078 111.664 114.645 112.201 115.037C112.746 115.42 113.436 115.612 114.272 115.612ZM124.583 103.646V99.3636H142.379V103.646H136.051V119H130.86V103.646H124.583ZM152.486 119.384C150.466 119.384 148.728 118.974 147.27 118.156C145.821 117.33 144.705 116.162 143.921 114.653C143.137 113.136 142.745 111.342 142.745 109.271C142.745 107.251 143.137 105.479 143.921 103.953C144.705 102.428 145.809 101.239 147.232 100.386C148.664 99.5341 150.343 99.108 152.269 99.108C153.564 99.108 154.77 99.3168 155.887 99.7344C157.012 100.143 157.992 100.761 158.827 101.588C159.671 102.415 160.327 103.455 160.796 104.707C161.264 105.952 161.499 107.409 161.499 109.08V110.575H144.918V107.2H156.372C156.372 106.416 156.202 105.722 155.861 105.116C155.52 104.511 155.047 104.038 154.442 103.697C153.845 103.348 153.151 103.173 152.358 103.173C151.532 103.173 150.799 103.365 150.159 103.749C149.529 104.124 149.034 104.631 148.676 105.27C148.318 105.901 148.135 106.604 148.127 107.379V110.588C148.127 111.56 148.306 112.399 148.664 113.107C149.03 113.814 149.546 114.359 150.21 114.743C150.875 115.126 151.664 115.318 152.576 115.318C153.181 115.318 153.735 115.233 154.237 115.062C154.74 114.892 155.171 114.636 155.529 114.295C155.887 113.955 156.159 113.537 156.347 113.043L161.384 113.375C161.128 114.585 160.604 115.642 159.811 116.545C159.027 117.44 158.013 118.139 156.769 118.642C155.533 119.136 154.105 119.384 152.486 119.384ZM177.062 99.3636V103.646H168.905V119H163.613V99.3636H177.062ZM187.111 119.384C185.126 119.384 183.408 118.962 181.959 118.118C180.519 117.266 179.407 116.081 178.623 114.564C177.839 113.038 177.447 111.27 177.447 109.259C177.447 107.23 177.839 105.457 178.623 103.94C179.407 102.415 180.519 101.23 181.959 100.386C183.408 99.5341 185.126 99.108 187.111 99.108C189.097 99.108 190.81 99.5341 192.251 100.386C193.699 101.23 194.816 102.415 195.6 103.94C196.384 105.457 196.776 107.23 196.776 109.259C196.776 111.27 196.384 113.038 195.6 114.564C194.816 116.081 193.699 117.266 192.251 118.118C190.81 118.962 189.097 119.384 187.111 119.384ZM187.137 115.165C188.04 115.165 188.795 114.909 189.4 114.398C190.005 113.878 190.461 113.17 190.768 112.276C191.083 111.381 191.241 110.362 191.241 109.22C191.241 108.078 191.083 107.06 190.768 106.165C190.461 105.27 190.005 104.562 189.4 104.043C188.795 103.523 188.04 103.263 187.137 103.263C186.225 103.263 185.458 103.523 184.836 104.043C184.222 104.562 183.758 105.27 183.442 106.165C183.136 107.06 182.982 108.078 182.982 109.22C182.982 110.362 183.136 111.381 183.442 112.276C183.758 113.17 184.222 113.878 184.836 114.398C185.458 114.909 186.225 115.165 187.137 115.165ZM198.877 126.364V99.3636H204.247V102.662H204.49C204.728 102.134 205.073 101.597 205.525 101.051C205.985 100.497 206.582 100.037 207.315 99.6705C208.056 99.2955 208.977 99.108 210.076 99.108C211.508 99.108 212.829 99.483 214.039 100.233C215.25 100.974 216.217 102.095 216.941 103.595C217.666 105.087 218.028 106.957 218.028 109.207C218.028 111.398 217.674 113.247 216.967 114.756C216.268 116.256 215.313 117.393 214.103 118.169C212.901 118.936 211.555 119.32 210.063 119.32C209.007 119.32 208.107 119.145 207.366 118.795C206.633 118.446 206.032 118.007 205.563 117.479C205.095 116.942 204.737 116.401 204.49 115.855H204.323V126.364H198.877ZM204.208 109.182C204.208 110.349 204.37 111.368 204.694 112.237C205.018 113.107 205.487 113.784 206.1 114.27C206.714 114.747 207.46 114.986 208.338 114.986C209.224 114.986 209.974 114.743 210.588 114.257C211.201 113.763 211.666 113.081 211.981 112.212C212.305 111.334 212.467 110.324 212.467 109.182C212.467 108.048 212.309 107.051 211.994 106.19C211.678 105.33 211.214 104.656 210.6 104.17C209.987 103.685 209.232 103.442 208.338 103.442C207.451 103.442 206.701 103.676 206.088 104.145C205.482 104.614 205.018 105.278 204.694 106.139C204.37 107 204.208 108.014 204.208 109.182ZM225.422 111.815L232.491 99.3636H237.861V119H232.67V106.51L225.626 119H220.219V99.3636H225.422V111.815ZM245.99 111.815L253.059 99.3636H258.428V119H253.238V106.51L246.194 119H240.786V99.3636H245.99V111.815ZM266.712 124.753V114.679H268.221C268.655 114.406 269.005 113.972 269.269 113.375C269.542 112.778 269.763 112.075 269.934 111.266C270.113 110.456 270.249 109.582 270.343 108.645C270.445 107.699 270.535 106.744 270.611 105.781L271.123 99.3636H286.182V114.679H289.225V124.753H284.035V119H272.03V124.753H266.712ZM273.641 114.679H281.043V103.557H275.751L275.546 105.781C275.401 107.878 275.192 109.659 274.92 111.125C274.647 112.582 274.221 113.767 273.641 114.679ZM299.831 119.384C297.845 119.384 296.128 118.962 294.679 118.118C293.238 117.266 292.126 116.081 291.342 114.564C290.558 113.038 290.166 111.27 290.166 109.259C290.166 107.23 290.558 105.457 291.342 103.94C292.126 102.415 293.238 101.23 294.679 100.386C296.128 99.5341 297.845 99.108 299.831 99.108C301.817 99.108 303.53 99.5341 304.97 100.386C306.419 101.23 307.535 102.415 308.319 103.94C309.103 105.457 309.496 107.23 309.496 109.259C309.496 111.27 309.103 113.038 308.319 114.564C307.535 116.081 306.419 117.266 304.97 118.118C303.53 118.962 301.817 119.384 299.831 119.384ZM299.856 115.165C300.76 115.165 301.514 114.909 302.119 114.398C302.724 113.878 303.18 113.17 303.487 112.276C303.802 111.381 303.96 110.362 303.96 109.22C303.96 108.078 303.802 107.06 303.487 106.165C303.18 105.27 302.724 104.562 302.119 104.043C301.514 103.523 300.76 103.263 299.856 103.263C298.944 103.263 298.177 103.523 297.555 104.043C296.942 104.562 296.477 105.27 296.162 106.165C295.855 107.06 295.702 108.078 295.702 109.22C295.702 110.362 295.855 111.381 296.162 112.276C296.477 113.17 296.942 113.878 297.555 114.398C298.177 114.909 298.944 115.165 299.856 115.165ZM315.445 99.3636L319.05 106.229L322.744 99.3636H328.331L322.642 109.182L328.485 119H322.923L319.05 112.212L315.24 119H309.615L315.445 109.182L309.82 99.3636H315.445ZM338.295 119.384C336.309 119.384 334.591 118.962 333.143 118.118C331.702 117.266 330.59 116.081 329.806 114.564C329.022 113.038 328.63 111.27 328.63 109.259C328.63 107.23 329.022 105.457 329.806 103.94C330.59 102.415 331.702 101.23 333.143 100.386C334.591 99.5341 336.309 99.108 338.295 99.108C340.28 99.108 341.993 99.5341 343.434 100.386C344.883 101.23 345.999 102.415 346.783 103.94C347.567 105.457 347.959 107.23 347.959 109.259C347.959 111.27 347.567 113.038 346.783 114.564C345.999 116.081 344.883 117.266 343.434 118.118C341.993 118.962 340.28 119.384 338.295 119.384ZM338.32 115.165C339.223 115.165 339.978 114.909 340.583 114.398C341.188 113.878 341.644 113.17 341.951 112.276C342.266 111.381 342.424 110.362 342.424 109.22C342.424 108.078 342.266 107.06 341.951 106.165C341.644 105.27 341.188 104.562 340.583 104.043C339.978 103.523 339.223 103.263 338.32 103.263C337.408 103.263 336.641 103.523 336.019 104.043C335.405 104.562 334.941 105.27 334.625 106.165C334.319 107.06 334.165 108.078 334.165 109.22C334.165 110.362 334.319 111.381 334.625 112.276C334.941 113.17 335.405 113.878 336.019 114.398C336.641 114.909 337.408 115.165 338.32 115.165ZM348.526 124.753V114.679H350.035C350.47 114.406 350.819 113.972 351.083 113.375C351.356 112.778 351.578 112.075 351.748 111.266C351.927 110.456 352.063 109.582 352.157 108.645C352.259 107.699 352.349 106.744 352.426 105.781L352.937 99.3636H367.997V114.679H371.039V124.753H365.849V119H353.845V124.753H348.526ZM355.455 114.679H362.857V103.557H357.565L357.36 105.781C357.215 107.878 357.006 109.659 356.734 111.125C356.461 112.582 356.035 113.767 355.455 114.679ZM381.645 119.384C379.659 119.384 377.942 118.962 376.493 118.118C375.053 117.266 373.94 116.081 373.156 114.564C372.372 113.038 371.98 111.27 371.98 109.259C371.98 107.23 372.372 105.457 373.156 103.94C373.94 102.415 375.053 101.23 376.493 100.386C377.942 99.5341 379.659 99.108 381.645 99.108C383.631 99.108 385.344 99.5341 386.784 100.386C388.233 101.23 389.35 102.415 390.134 103.94C390.918 105.457 391.31 107.23 391.31 109.259C391.31 111.27 390.918 113.038 390.134 114.564C389.35 116.081 388.233 117.266 386.784 118.118C385.344 118.962 383.631 119.384 381.645 119.384ZM381.671 115.165C382.574 115.165 383.328 114.909 383.933 114.398C384.538 113.878 384.994 113.17 385.301 112.276C385.617 111.381 385.774 110.362 385.774 109.22C385.774 108.078 385.617 107.06 385.301 106.165C384.994 105.27 384.538 104.562 383.933 104.043C383.328 103.523 382.574 103.263 381.671 103.263C380.759 103.263 379.992 103.523 379.369 104.043C378.756 104.562 378.291 105.27 377.976 106.165C377.669 107.06 377.516 108.078 377.516 109.22C377.516 110.362 377.669 111.381 377.976 112.276C378.291 113.17 378.756 113.878 379.369 114.398C379.992 114.909 380.759 115.165 381.671 115.165ZM393.411 119V99.3636H401.785C404.205 99.3636 406.118 99.8239 407.525 100.744C408.931 101.665 409.634 102.973 409.634 104.669C409.634 105.734 409.238 106.621 408.445 107.328C407.652 108.036 406.553 108.513 405.147 108.76C406.323 108.845 407.324 109.114 408.151 109.565C408.986 110.009 409.621 110.584 410.056 111.291C410.499 111.999 410.721 112.783 410.721 113.643C410.721 114.76 410.422 115.719 409.826 116.52C409.238 117.321 408.373 117.935 407.231 118.361C406.097 118.787 404.712 119 403.076 119H393.411ZM398.486 114.922H403.076C403.834 114.922 404.427 114.743 404.853 114.385C405.287 114.018 405.505 113.52 405.505 112.889C405.505 112.19 405.287 111.641 404.853 111.24C404.427 110.839 403.834 110.639 403.076 110.639H398.486V114.922ZM398.486 107.443H401.9C402.445 107.443 402.91 107.366 403.293 107.213C403.685 107.051 403.983 106.821 404.188 106.523C404.401 106.224 404.508 105.871 404.508 105.462C404.508 104.857 404.265 104.384 403.779 104.043C403.293 103.702 402.628 103.531 401.785 103.531H398.486V107.443Z" fill="black"/>
<path opacity="0.6" d="M52.8629 580.179C52.0192 580.179 51.2671 580.034 50.6065 579.744C49.9503 579.455 49.4283 579.052 49.0405 578.536C48.657 578.016 48.4482 577.413 48.4141 576.727H50.0249C50.059 577.149 50.2039 577.513 50.4595 577.82C50.7152 578.123 51.0497 578.357 51.4631 578.523C51.8764 578.69 52.3345 578.773 52.8374 578.773C53.3999 578.773 53.8985 578.675 54.3331 578.479C54.7678 578.283 55.1087 578.01 55.3558 577.661C55.603 577.311 55.7266 576.906 55.7266 576.446C55.7266 575.964 55.6073 575.54 55.3686 575.174C55.13 574.803 54.7806 574.513 54.3203 574.305C53.8601 574.096 53.2976 573.991 52.6328 573.991H51.5845V572.585H52.6328C53.1527 572.585 53.6087 572.491 54.0007 572.304C54.397 572.116 54.706 571.852 54.9276 571.511C55.1534 571.17 55.2664 570.77 55.2664 570.31C55.2664 569.866 55.1683 569.481 54.9723 569.153C54.7763 568.825 54.4993 568.569 54.1414 568.386C53.7877 568.202 53.37 568.111 52.8885 568.111C52.4368 568.111 52.0107 568.194 51.6101 568.36C51.2138 568.522 50.8899 568.759 50.6385 569.07C50.3871 569.376 50.2507 569.747 50.2294 570.182H48.6953C48.7209 569.496 48.9276 568.895 49.3154 568.379C49.7031 567.859 50.2102 567.455 50.8367 567.165C51.4673 566.875 52.1598 566.73 52.9141 566.73C53.7237 566.73 54.4183 566.894 54.9979 567.222C55.5774 567.546 56.0227 567.974 56.3338 568.507C56.6449 569.04 56.8004 569.615 56.8004 570.233C56.8004 570.97 56.6065 571.599 56.2188 572.119C55.8352 572.638 55.3132 572.999 54.6527 573.199V573.301C55.4794 573.437 56.125 573.789 56.5895 574.356C57.054 574.918 57.2862 575.615 57.2862 576.446C57.2862 577.158 57.0923 577.797 56.7046 578.364C56.321 578.926 55.7969 579.369 55.1321 579.693C54.4673 580.017 53.711 580.179 52.8629 580.179ZM63.3482 566.73C63.8851 566.734 64.4221 566.837 64.959 567.037C65.4959 567.237 65.986 567.57 66.4292 568.034C66.8723 568.494 67.2282 569.123 67.4966 569.92C67.7651 570.717 67.8993 571.716 67.8993 572.918C67.8993 574.081 67.7885 575.114 67.5669 576.018C67.3496 576.917 67.0343 577.675 66.6209 578.293C66.2118 578.911 65.7133 579.38 65.1252 579.7C64.5414 580.019 63.8809 580.179 63.1437 580.179C62.4107 580.179 61.7566 580.034 61.1813 579.744C60.6103 579.45 60.1415 579.043 59.775 578.523C59.4128 577.999 59.1806 577.392 59.0783 576.702H60.638C60.7786 577.303 61.0577 577.799 61.4753 578.191C61.8972 578.579 62.4533 578.773 63.1437 578.773C64.1536 578.773 64.9505 578.332 65.5343 577.45C66.1223 576.567 66.4164 575.321 66.4164 573.71H66.3141C66.0755 574.068 65.7921 574.377 65.464 574.637C65.1358 574.897 64.7715 575.097 64.3709 575.238C63.9704 575.379 63.5442 575.449 63.0925 575.449C62.3425 575.449 61.6543 575.263 61.0279 574.893C60.4057 574.518 59.9071 574.004 59.5321 573.352C59.1614 572.696 58.976 571.946 58.976 571.102C58.976 570.301 59.155 569.568 59.513 568.903C59.8752 568.234 60.3823 567.702 61.0343 567.305C61.6905 566.909 62.4618 566.717 63.3482 566.73ZM63.3482 568.136C62.8113 568.136 62.3276 568.271 61.8972 568.539C61.4711 568.803 61.1323 569.161 60.8809 569.613C60.6337 570.06 60.5101 570.557 60.5101 571.102C60.5101 571.648 60.6294 572.144 60.8681 572.592C61.111 573.035 61.4412 573.388 61.8589 573.653C62.2807 573.913 62.7601 574.043 63.2971 574.043C63.7019 574.043 64.079 573.964 64.4285 573.806C64.7779 573.644 65.0826 573.425 65.3425 573.148C65.6067 572.866 65.8134 572.549 65.9625 572.195C66.1117 571.837 66.1863 571.464 66.1863 571.077C66.1863 570.565 66.0627 570.086 65.8155 569.638C65.5726 569.191 65.236 568.829 64.8056 568.552C64.3794 568.275 63.8937 568.136 63.3482 568.136ZM71.5115 578.21L71.4093 578.901C71.3368 579.386 71.226 579.906 71.0769 580.46C70.932 581.014 70.7807 581.536 70.623 582.026C70.4654 582.516 70.3354 582.906 70.2331 583.196H69.0826C69.138 582.923 69.2104 582.563 69.2999 582.116C69.3894 581.668 69.4789 581.168 69.5684 580.614C69.6621 580.064 69.7388 579.501 69.7985 578.926L69.8752 578.21H71.5115ZM77.3738 580.179C76.4107 580.179 75.5904 579.917 74.9128 579.393C74.2353 578.864 73.7175 578.099 73.3595 577.098C73.0016 576.092 72.8226 574.878 72.8226 573.455C72.8226 572.04 73.0016 570.832 73.3595 569.83C73.7218 568.825 74.2416 568.058 74.9192 567.529C75.601 566.996 76.4192 566.73 77.3738 566.73C78.3283 566.73 79.1443 566.996 79.8219 567.529C80.5037 568.058 81.0236 568.825 81.3816 569.83C81.7438 570.832 81.9249 572.04 81.9249 573.455C81.9249 574.878 81.7459 576.092 81.388 577.098C81.03 578.099 80.5122 578.864 79.8347 579.393C79.1571 579.917 78.3368 580.179 77.3738 580.179ZM77.3738 578.773C78.3283 578.773 79.0698 578.312 79.5982 577.392C80.1266 576.472 80.3908 575.159 80.3908 573.455C80.3908 572.321 80.2693 571.356 80.0265 570.559C79.7878 569.762 79.4426 569.155 78.9909 568.737C78.5435 568.32 78.0044 568.111 77.3738 568.111C76.4277 568.111 75.6884 568.577 75.1557 569.511C74.623 570.44 74.3567 571.754 74.3567 573.455C74.3567 574.588 74.476 575.551 74.7147 576.344C74.9533 577.136 75.2963 577.739 75.7438 578.153C76.1955 578.566 76.7388 578.773 77.3738 578.773ZM91.56 580L87.06 573.991H85.4492V580H83.864V566.909H85.4492V572.585H86.1395L91.381 566.909H93.2731L87.9805 572.662L93.452 580H91.56Z" fill="black"/>
<rect x="40" y="720" width="127" height="61" transform="rotate(-90 40 720)" fill="url(#paint0_linear_3375_2911)"/>
<path d="M40 593L101 593" stroke="#04B34A" stroke-width="4"/>
<path opacity="0.6" d="M46.4879 737.909V751H44.1165V740.217H44.0398L40.978 742.173V739.999L44.2315 737.909H46.4879ZM57.5884 743.502V745.407H51.6949V743.502H57.5884ZM61.5601 748.571V746.685L67.1147 737.909H68.6872V740.594H67.7284L63.989 746.519V746.621H71.7426V748.571H61.5601ZM67.8051 751V747.996L67.8306 747.152V737.909H70.0679V751H67.8051ZM80.1296 737.73C80.756 737.734 81.3654 737.845 81.9577 738.062C82.5543 738.276 83.0912 738.625 83.5685 739.111C84.0458 739.592 84.425 740.238 84.7063 741.048C84.9875 741.857 85.1282 742.859 85.1282 744.052C85.1324 745.177 85.0131 746.183 84.7702 747.069C84.5316 747.951 84.1885 748.697 83.7411 749.306C83.2936 749.915 82.7546 750.38 82.1239 750.7C81.4932 751.019 80.7837 751.179 79.9953 751.179C79.1686 751.179 78.4357 751.017 77.7965 750.693C77.1615 750.369 76.648 749.926 76.256 749.364C75.864 748.801 75.6232 748.158 75.5337 747.433H77.8668C77.9861 747.953 78.229 748.366 78.5955 748.673C78.9662 748.976 79.4328 749.127 79.9953 749.127C80.903 749.127 81.6019 748.733 82.0919 747.945C82.582 747.156 82.827 746.061 82.827 744.659H82.7375C82.5287 745.034 82.2581 745.358 81.9257 745.631C81.5934 745.899 81.2162 746.106 80.7944 746.251C80.3767 746.396 79.9336 746.468 79.4648 746.468C78.6978 746.468 78.0074 746.285 77.3938 745.918C76.7844 745.552 76.3007 745.049 75.9428 744.41C75.5891 743.771 75.4101 743.04 75.4059 742.217C75.4059 741.365 75.6019 740.6 75.9939 739.923C76.3902 739.241 76.9421 738.704 77.6495 738.312C78.3569 737.915 79.1836 737.722 80.1296 737.73ZM80.136 739.648C79.6757 739.648 79.2603 739.761 78.8895 739.987C78.523 740.208 78.2333 740.511 78.0202 740.894C77.8114 741.273 77.707 741.697 77.707 742.166C77.7113 742.631 77.8157 743.053 78.0202 743.432C78.229 743.811 78.5124 744.112 78.8703 744.333C79.2326 744.555 79.6459 744.665 80.1104 744.665C80.4556 744.665 80.7773 744.599 81.0756 744.467C81.3739 744.335 81.6338 744.152 81.8554 743.918C82.0813 743.679 82.256 743.408 82.3796 743.106C82.5074 742.803 82.5692 742.484 82.565 742.147C82.565 741.7 82.4584 741.286 82.2453 740.907C82.0365 740.528 81.7489 740.223 81.3824 739.993C81.0202 739.763 80.6047 739.648 80.136 739.648ZM97.0276 751L92.7194 745.279H91.556V751H89.1846V737.909H91.556V743.291H92.1505L96.8039 737.909H99.725L94.5539 743.879L99.9488 751H97.0276Z" fill="black"/>
<path opacity="0.6" d="M207.051 558.315V557.011L212.803 547.909H213.749V549.929H213.11L208.764 556.807V556.909H216.511V558.315H207.051ZM213.212 561V557.919V557.312V547.909H214.721V561H213.212ZM222.456 561.179C221.493 561.179 220.673 560.917 219.995 560.393C219.318 559.864 218.8 559.099 218.442 558.098C218.084 557.092 217.905 555.878 217.905 554.455C217.905 553.04 218.084 551.832 218.442 550.83C218.804 549.825 219.324 549.058 220.002 548.529C220.683 547.996 221.502 547.73 222.456 547.73C223.411 547.73 224.227 547.996 224.904 548.529C225.586 549.058 226.106 549.825 226.464 550.83C226.826 551.832 227.007 553.04 227.007 554.455C227.007 555.878 226.828 557.092 226.47 558.098C226.112 559.099 225.595 559.864 224.917 560.393C224.239 560.917 223.419 561.179 222.456 561.179ZM222.456 559.773C223.411 559.773 224.152 559.312 224.68 558.392C225.209 557.472 225.473 556.159 225.473 554.455C225.473 553.321 225.352 552.356 225.109 551.559C224.87 550.762 224.525 550.155 224.073 549.737C223.626 549.32 223.087 549.111 222.456 549.111C221.51 549.111 220.771 549.577 220.238 550.511C219.705 551.44 219.439 552.754 219.439 554.455C219.439 555.588 219.558 556.551 219.797 557.344C220.036 558.136 220.379 558.739 220.826 559.153C221.278 559.566 221.821 559.773 222.456 559.773ZM236.642 561L232.142 554.991H230.532V561H228.946V547.909H230.532V553.585H231.222L236.463 547.909H238.355L233.063 553.662L238.534 561H236.642Z" fill="black"/>
<rect x="192" y="720" width="146" height="61" transform="rotate(-90 192 720)" fill="url(#paint1_linear_3375_2911)"/>
<path d="M192 574L253 574" stroke="#04B34A" stroke-width="4"/>
<path opacity="0.6" d="M189.714 751.179C188.862 751.179 188.099 751.019 187.426 750.7C186.753 750.376 186.218 749.933 185.822 749.37C185.43 748.808 185.221 748.164 185.195 747.44H187.496C187.539 747.977 187.771 748.415 188.193 748.756C188.615 749.093 189.122 749.261 189.714 749.261C190.179 749.261 190.592 749.155 190.955 748.942C191.317 748.729 191.602 748.433 191.811 748.053C192.02 747.674 192.122 747.241 192.118 746.756C192.122 746.261 192.018 745.822 191.805 745.439C191.592 745.055 191.3 744.755 190.929 744.538C190.558 744.316 190.132 744.205 189.651 744.205C189.259 744.201 188.873 744.273 188.494 744.423C188.114 744.572 187.814 744.768 187.592 745.011L185.451 744.659L186.135 737.909H193.729V739.891H188.097L187.72 743.362H187.797C188.04 743.076 188.383 742.839 188.826 742.652C189.269 742.46 189.755 742.364 190.283 742.364C191.076 742.364 191.783 742.552 192.406 742.927C193.028 743.298 193.518 743.809 193.876 744.461C194.234 745.113 194.413 745.859 194.413 746.698C194.413 747.563 194.212 748.335 193.812 749.012C193.415 749.685 192.864 750.216 192.156 750.604C191.453 750.987 190.639 751.179 189.714 751.179ZM203.193 751.249C202.14 751.249 201.237 750.983 200.483 750.45C199.733 749.913 199.155 749.14 198.75 748.13C198.35 747.116 198.149 745.895 198.149 744.467C198.154 743.04 198.356 741.825 198.757 740.824C199.162 739.818 199.739 739.051 200.489 738.523C201.243 737.994 202.144 737.73 203.193 737.73C204.241 737.73 205.142 737.994 205.897 738.523C206.651 739.051 207.228 739.818 207.629 740.824C208.034 741.83 208.236 743.044 208.236 744.467C208.236 745.899 208.034 747.122 207.629 748.136C207.228 749.146 206.651 749.918 205.897 750.45C205.147 750.983 204.245 751.249 203.193 751.249ZM203.193 749.249C204.011 749.249 204.657 748.846 205.13 748.04C205.607 747.231 205.845 746.04 205.845 744.467C205.845 743.428 205.737 742.554 205.519 741.847C205.302 741.139 204.995 740.607 204.599 740.249C204.203 739.886 203.734 739.705 203.193 739.705C202.379 739.705 201.735 740.11 201.262 740.92C200.789 741.725 200.551 742.908 200.546 744.467C200.542 745.511 200.647 746.389 200.86 747.101C201.077 747.812 201.384 748.349 201.78 748.712C202.176 749.07 202.647 749.249 203.193 749.249ZM218.136 743.502V745.407H212.243V743.502H218.136ZM226.889 737.73C227.516 737.734 228.125 737.845 228.717 738.062C229.314 738.276 229.851 738.625 230.328 739.111C230.806 739.592 231.185 740.238 231.466 741.048C231.747 741.857 231.888 742.859 231.888 744.052C231.892 745.177 231.773 746.183 231.53 747.069C231.291 747.951 230.948 748.697 230.501 749.306C230.053 749.915 229.514 750.38 228.884 750.7C228.253 751.019 227.543 751.179 226.755 751.179C225.928 751.179 225.195 751.017 224.556 750.693C223.921 750.369 223.408 749.926 223.016 749.364C222.624 748.801 222.383 748.158 222.293 747.433H224.627C224.746 747.953 224.989 748.366 225.355 748.673C225.726 748.976 226.193 749.127 226.755 749.127C227.663 749.127 228.362 748.733 228.852 747.945C229.342 747.156 229.587 746.061 229.587 744.659H229.497C229.288 745.034 229.018 745.358 228.686 745.631C228.353 745.899 227.976 746.106 227.554 746.251C227.137 746.396 226.693 746.468 226.225 746.468C225.458 746.468 224.767 746.285 224.154 745.918C223.544 745.552 223.061 745.049 222.703 744.41C222.349 743.771 222.17 743.04 222.166 742.217C222.166 741.365 222.362 740.6 222.754 739.923C223.15 739.241 223.702 738.704 224.409 738.312C225.117 737.915 225.943 737.722 226.889 737.73ZM226.896 739.648C226.436 739.648 226.02 739.761 225.649 739.987C225.283 740.208 224.993 740.511 224.78 740.894C224.571 741.273 224.467 741.697 224.467 742.166C224.471 742.631 224.575 743.053 224.78 743.432C224.989 743.811 225.272 744.112 225.63 744.333C225.992 744.555 226.406 744.665 226.87 744.665C227.215 744.665 227.537 744.599 227.835 744.467C228.134 744.335 228.394 744.152 228.615 743.918C228.841 743.679 229.016 743.408 229.139 743.106C229.267 742.803 229.329 742.484 229.325 742.147C229.325 741.7 229.218 741.286 229.005 740.907C228.796 740.528 228.509 740.223 228.142 739.993C227.78 739.763 227.364 739.648 226.896 739.648ZM240.361 737.73C240.988 737.734 241.597 737.845 242.189 738.062C242.786 738.276 243.323 738.625 243.8 739.111C244.277 739.592 244.657 740.238 244.938 741.048C245.219 741.857 245.36 742.859 245.36 744.052C245.364 745.177 245.245 746.183 245.002 747.069C244.763 747.951 244.42 748.697 243.973 749.306C243.525 749.915 242.986 750.38 242.356 750.7C241.725 751.019 241.015 751.179 240.227 751.179C239.4 751.179 238.667 751.017 238.028 750.693C237.393 750.369 236.88 749.926 236.488 749.364C236.096 748.801 235.855 748.158 235.765 747.433H238.098C238.218 747.953 238.461 748.366 238.827 748.673C239.198 748.976 239.664 749.127 240.227 749.127C241.135 749.127 241.834 748.733 242.324 747.945C242.814 747.156 243.059 746.061 243.059 744.659H242.969C242.76 745.034 242.49 745.358 242.157 745.631C241.825 745.899 241.448 746.106 241.026 746.251C240.608 746.396 240.165 746.468 239.696 746.468C238.929 746.468 238.239 746.285 237.625 745.918C237.016 745.552 236.532 745.049 236.174 744.41C235.821 743.771 235.642 743.04 235.638 742.217C235.638 741.365 235.834 740.6 236.226 739.923C236.622 739.241 237.174 738.704 237.881 738.312C238.588 737.915 239.415 737.722 240.361 737.73ZM240.368 739.648C239.907 739.648 239.492 739.761 239.121 739.987C238.755 740.208 238.465 740.511 238.252 740.894C238.043 741.273 237.939 741.697 237.939 742.166C237.943 742.631 238.047 743.053 238.252 743.432C238.461 743.811 238.744 744.112 239.102 744.333C239.464 744.555 239.878 744.665 240.342 744.665C240.687 744.665 241.009 744.599 241.307 744.467C241.606 744.335 241.865 744.152 242.087 743.918C242.313 743.679 242.488 743.408 242.611 743.106C242.739 742.803 242.801 742.484 242.797 742.147C242.797 741.7 242.69 741.286 242.477 740.907C242.268 740.528 241.981 740.223 241.614 739.993C241.252 739.763 240.836 739.648 240.368 739.648ZM257.259 751L252.951 745.279H251.788V751H249.416V737.909H251.788V743.291H252.382L257.036 737.909H259.957L254.786 743.879L260.18 751H257.259Z" fill="black"/>
<path opacity="0.6" d="M352.186 500.315V499.011L357.938 489.909H358.884V491.929H358.245L353.899 498.807V498.909H361.646V500.315H352.186ZM358.347 503V499.919V499.312V489.909H359.856V503H358.347ZM367.514 503.179C366.637 503.179 365.861 503.023 365.188 502.712C364.519 502.397 363.997 501.964 363.622 501.415C363.247 500.861 363.061 500.23 363.066 499.523C363.061 498.969 363.17 498.457 363.392 497.989C363.613 497.516 363.916 497.121 364.299 496.806C364.687 496.487 365.12 496.284 365.597 496.199V496.122C364.97 495.96 364.472 495.609 364.101 495.067C363.73 494.522 363.547 493.902 363.551 493.207C363.547 492.543 363.715 491.948 364.056 491.424C364.397 490.9 364.866 490.487 365.463 490.184C366.063 489.881 366.747 489.73 367.514 489.73C368.273 489.73 368.95 489.881 369.547 490.184C370.144 490.487 370.612 490.9 370.953 491.424C371.298 491.948 371.473 492.543 371.477 493.207C371.473 493.902 371.284 494.522 370.909 495.067C370.538 495.609 370.046 495.96 369.432 496.122V496.199C369.905 496.284 370.331 496.487 370.71 496.806C371.09 497.121 371.392 497.516 371.618 497.989C371.844 498.457 371.959 498.969 371.963 499.523C371.959 500.23 371.767 500.861 371.388 501.415C371.013 501.964 370.491 502.397 369.822 502.712C369.157 503.023 368.388 503.179 367.514 503.179ZM367.514 501.773C368.107 501.773 368.618 501.677 369.048 501.485C369.479 501.293 369.811 501.023 370.046 500.673C370.28 500.324 370.399 499.915 370.404 499.446C370.399 498.952 370.271 498.515 370.02 498.136C369.769 497.756 369.426 497.458 368.991 497.241C368.561 497.023 368.068 496.915 367.514 496.915C366.956 496.915 366.458 497.023 366.019 497.241C365.584 497.458 365.241 497.756 364.99 498.136C364.742 498.515 364.621 498.952 364.625 499.446C364.621 499.915 364.734 500.324 364.964 500.673C365.198 501.023 365.533 501.293 365.968 501.485C366.402 501.677 366.918 501.773 367.514 501.773ZM367.514 495.56C367.983 495.56 368.399 495.466 368.761 495.278C369.127 495.091 369.415 494.829 369.624 494.492C369.833 494.156 369.939 493.761 369.943 493.31C369.939 492.866 369.835 492.481 369.63 492.153C369.426 491.82 369.142 491.565 368.78 491.386C368.418 491.202 367.996 491.111 367.514 491.111C367.024 491.111 366.596 491.202 366.23 491.386C365.863 491.565 365.58 491.82 365.379 492.153C365.179 492.481 365.081 492.866 365.085 493.31C365.081 493.761 365.181 494.156 365.386 494.492C365.595 494.829 365.882 495.091 366.249 495.278C366.615 495.466 367.037 495.56 367.514 495.56ZM375.564 501.21L375.462 501.901C375.39 502.386 375.279 502.906 375.13 503.46C374.985 504.014 374.833 504.536 374.676 505.026C374.518 505.516 374.388 505.906 374.286 506.196H373.135C373.191 505.923 373.263 505.563 373.353 505.116C373.442 504.668 373.532 504.168 373.621 503.614C373.715 503.064 373.792 502.501 373.851 501.926L373.928 501.21H375.564ZM381.441 503.179C380.691 503.179 380.015 503.03 379.415 502.732C378.814 502.433 378.332 502.024 377.97 501.504C377.608 500.984 377.41 500.392 377.376 499.727H378.91C378.969 500.32 379.238 500.81 379.715 501.197C380.197 501.581 380.772 501.773 381.441 501.773C381.978 501.773 382.455 501.647 382.873 501.396C383.295 501.144 383.625 500.799 383.863 500.36C384.106 499.917 384.228 499.416 384.228 498.858C384.228 498.287 384.102 497.778 383.851 497.33C383.604 496.879 383.263 496.523 382.828 496.263C382.393 496.003 381.897 495.871 381.339 495.866C380.938 495.862 380.527 495.924 380.105 496.052C379.683 496.175 379.336 496.335 379.063 496.531L377.58 496.352L378.373 489.909H385.174V491.315H379.702L379.242 495.176H379.319C379.587 494.963 379.924 494.786 380.329 494.646C380.733 494.505 381.155 494.435 381.594 494.435C382.395 494.435 383.109 494.626 383.736 495.01C384.366 495.389 384.861 495.909 385.219 496.57C385.581 497.23 385.762 497.984 385.762 498.832C385.762 499.668 385.574 500.413 385.199 501.07C384.829 501.722 384.317 502.237 383.665 502.616C383.013 502.991 382.272 503.179 381.441 503.179ZM395.507 503L391.007 496.991H389.396V503H387.811V489.909H389.396V495.585H390.087L395.328 489.909H397.22L391.928 495.662L397.399 503H395.507Z" fill="black"/>
<rect x="344" y="720" width="204" height="61" transform="rotate(-90 344 720)" fill="url(#paint2_linear_3375_2911)"/>
<path d="M344 516L405 516" stroke="#04B34A" stroke-width="4"/>
<path opacity="0.6" d="M331.488 737.909V751H329.116V740.217H329.04L325.978 742.173V739.999L329.232 737.909H331.488ZM341.451 751.249C340.398 751.249 339.495 750.983 338.74 750.45C337.99 749.913 337.413 749.14 337.008 748.13C336.608 747.116 336.407 745.895 336.407 744.467C336.412 743.04 336.614 741.825 337.014 740.824C337.419 739.818 337.997 739.051 338.747 738.523C339.501 737.994 340.402 737.73 341.451 737.73C342.499 737.73 343.4 737.994 344.154 738.523C344.909 739.051 345.486 739.818 345.887 740.824C346.291 741.83 346.494 743.044 346.494 744.467C346.494 745.899 346.291 747.122 345.887 748.136C345.486 749.146 344.909 749.918 344.154 750.45C343.404 750.983 342.503 751.249 341.451 751.249ZM341.451 749.249C342.269 749.249 342.914 748.846 343.387 748.04C343.865 747.231 344.103 746.04 344.103 744.467C344.103 743.428 343.995 742.554 343.777 741.847C343.56 741.139 343.253 740.607 342.857 740.249C342.461 739.886 341.992 739.705 341.451 739.705C340.637 739.705 339.993 740.11 339.52 740.92C339.047 741.725 338.809 742.908 338.804 744.467C338.8 745.511 338.904 746.389 339.117 747.101C339.335 747.812 339.642 748.349 340.038 748.712C340.434 749.07 340.905 749.249 341.451 749.249ZM355.256 751.249C354.204 751.249 353.3 750.983 352.546 750.45C351.796 749.913 351.219 749.14 350.814 748.13C350.413 747.116 350.213 745.895 350.213 744.467C350.217 743.04 350.42 741.825 350.82 740.824C351.225 739.818 351.803 739.051 352.553 738.523C353.307 737.994 354.208 737.73 355.256 737.73C356.305 737.73 357.206 737.994 357.96 738.523C358.715 739.051 359.292 739.818 359.693 740.824C360.097 741.83 360.3 743.044 360.3 744.467C360.3 745.899 360.097 747.122 359.693 748.136C359.292 749.146 358.715 749.918 357.96 750.45C357.21 750.983 356.309 751.249 355.256 751.249ZM355.256 749.249C356.075 749.249 356.72 748.846 357.193 748.04C357.67 747.231 357.909 746.04 357.909 744.467C357.909 743.428 357.8 742.554 357.583 741.847C357.366 741.139 357.059 740.607 356.663 740.249C356.266 739.886 355.798 739.705 355.256 739.705C354.443 739.705 353.799 740.11 353.326 740.92C352.853 741.725 352.614 742.908 352.61 744.467C352.606 745.511 352.71 746.389 352.923 747.101C353.141 747.812 353.447 748.349 353.844 748.712C354.24 749.07 354.711 749.249 355.256 749.249ZM370.2 743.502V745.407H364.307V743.502H370.2ZM379.733 737.909V751H377.361V740.217H377.285L374.223 742.173V739.999L377.476 737.909H379.733ZM384.62 748.571V746.685L390.175 737.909H391.747V740.594H390.789L387.049 746.519V746.621H394.803V748.571H384.62ZM390.865 751V747.996L390.891 747.152V737.909H393.128V751H390.865ZM403.19 737.73C403.816 737.734 404.426 737.845 405.018 738.062C405.614 738.276 406.151 738.625 406.629 739.111C407.106 739.592 407.485 740.238 407.766 741.048C408.048 741.857 408.188 742.859 408.188 744.052C408.193 745.177 408.073 746.183 407.83 747.069C407.592 747.951 407.249 748.697 406.801 749.306C406.354 749.915 405.815 750.38 405.184 750.7C404.553 751.019 403.844 751.179 403.056 751.179C402.229 751.179 401.496 751.017 400.857 750.693C400.222 750.369 399.708 749.926 399.316 749.364C398.924 748.801 398.683 748.158 398.594 747.433H400.927C401.046 747.953 401.289 748.366 401.656 748.673C402.026 748.976 402.493 749.127 403.056 749.127C403.963 749.127 404.662 748.733 405.152 747.945C405.642 747.156 405.887 746.061 405.887 744.659H405.798C405.589 745.034 405.318 745.358 404.986 745.631C404.654 745.899 404.276 746.106 403.855 746.251C403.437 746.396 402.994 746.468 402.525 746.468C401.758 746.468 401.068 746.285 400.454 745.918C399.845 745.552 399.361 745.049 399.003 744.41C398.649 743.771 398.47 743.04 398.466 742.217C398.466 741.365 398.662 740.6 399.054 739.923C399.45 739.241 400.002 738.704 400.71 738.312C401.417 737.915 402.244 737.722 403.19 737.73ZM403.196 739.648C402.736 739.648 402.32 739.761 401.95 739.987C401.583 740.208 401.293 740.511 401.08 740.894C400.872 741.273 400.767 741.697 400.767 742.166C400.771 742.631 400.876 743.053 401.08 743.432C401.289 743.811 401.573 744.112 401.931 744.333C402.293 744.555 402.706 744.665 403.171 744.665C403.516 744.665 403.837 744.599 404.136 744.467C404.434 744.335 404.694 744.152 404.916 743.918C405.141 743.679 405.316 743.408 405.44 743.106C405.568 742.803 405.629 742.484 405.625 742.147C405.625 741.7 405.519 741.286 405.306 740.907C405.097 740.528 404.809 740.223 404.443 739.993C404.08 739.763 403.665 739.648 403.196 739.648ZM420.088 751L415.78 745.279H414.616V751H412.245V737.909H414.616V743.291H415.211L419.864 737.909H422.785L417.614 743.879L423.009 751H420.088Z" fill="black"/>
<path opacity="0.6" d="M508.645 460.179C507.895 460.179 507.219 460.03 506.619 459.732C506.018 459.433 505.536 459.024 505.174 458.504C504.812 457.984 504.614 457.392 504.579 456.727H506.114C506.173 457.32 506.442 457.81 506.919 458.197C507.4 458.581 507.976 458.773 508.645 458.773C509.182 458.773 509.659 458.647 510.077 458.396C510.499 458.144 510.829 457.799 511.067 457.36C511.31 456.917 511.432 456.416 511.432 455.858C511.432 455.287 511.306 454.778 511.055 454.33C510.807 453.879 510.467 453.523 510.032 453.263C509.597 453.003 509.101 452.871 508.543 452.866C508.142 452.862 507.731 452.924 507.309 453.052C506.887 453.175 506.54 453.335 506.267 453.531L504.784 453.352L505.577 446.909H512.378V448.315H506.906L506.446 452.176H506.523C506.791 451.963 507.128 451.786 507.533 451.646C507.937 451.505 508.359 451.435 508.798 451.435C509.599 451.435 510.313 451.626 510.94 452.01C511.57 452.389 512.065 452.909 512.423 453.57C512.785 454.23 512.966 454.984 512.966 455.832C512.966 456.668 512.778 457.413 512.403 458.07C512.033 458.722 511.521 459.237 510.869 459.616C510.217 459.991 509.476 460.179 508.645 460.179ZM519.208 460.179C518.365 460.179 517.612 460.034 516.952 459.744C516.296 459.455 515.774 459.052 515.386 458.536C515.002 458.016 514.794 457.413 514.76 456.727H516.37C516.404 457.149 516.549 457.513 516.805 457.82C517.061 458.123 517.395 458.357 517.809 458.523C518.222 458.69 518.68 458.773 519.183 458.773C519.745 458.773 520.244 458.675 520.679 458.479C521.113 458.283 521.454 458.01 521.701 457.661C521.948 457.311 522.072 456.906 522.072 456.446C522.072 455.964 521.953 455.54 521.714 455.174C521.475 454.803 521.126 454.513 520.666 454.305C520.206 454.096 519.643 453.991 518.978 453.991H517.93V452.585H518.978C519.498 452.585 519.954 452.491 520.346 452.304C520.742 452.116 521.051 451.852 521.273 451.511C521.499 451.17 521.612 450.77 521.612 450.31C521.612 449.866 521.514 449.481 521.318 449.153C521.122 448.825 520.845 448.569 520.487 448.386C520.133 448.202 519.715 448.111 519.234 448.111C518.782 448.111 518.356 448.194 517.956 448.36C517.559 448.522 517.235 448.759 516.984 449.07C516.733 449.376 516.596 449.747 516.575 450.182H515.041C515.066 449.496 515.273 448.895 515.661 448.379C516.049 447.859 516.556 447.455 517.182 447.165C517.813 446.875 518.505 446.73 519.26 446.73C520.069 446.73 520.764 446.894 521.343 447.222C521.923 447.546 522.368 447.974 522.679 448.507C522.99 449.04 523.146 449.615 523.146 450.233C523.146 450.97 522.952 451.599 522.564 452.119C522.181 452.638 521.659 452.999 520.998 453.199V453.301C521.825 453.437 522.47 453.789 522.935 454.356C523.399 454.918 523.632 455.615 523.632 456.446C523.632 457.158 523.438 457.797 523.05 458.364C522.666 458.926 522.142 459.369 521.478 459.693C520.813 460.017 520.056 460.179 519.208 460.179ZM527.397 458.21L527.295 458.901C527.223 459.386 527.112 459.906 526.963 460.46C526.818 461.014 526.666 461.536 526.509 462.026C526.351 462.516 526.221 462.906 526.119 463.196H524.968C525.024 462.923 525.096 462.563 525.186 462.116C525.275 461.668 525.365 461.168 525.454 460.614C525.548 460.064 525.625 459.501 525.684 458.926L525.761 458.21H527.397ZM533.259 460.179C532.296 460.179 531.476 459.917 530.799 459.393C530.121 458.864 529.603 458.099 529.245 457.098C528.887 456.092 528.708 454.878 528.708 453.455C528.708 452.04 528.887 450.832 529.245 449.83C529.608 448.825 530.127 448.058 530.805 447.529C531.487 446.996 532.305 446.73 533.259 446.73C534.214 446.73 535.03 446.996 535.708 447.529C536.389 448.058 536.909 448.825 537.267 449.83C537.63 450.832 537.811 452.04 537.811 453.455C537.811 454.878 537.632 456.092 537.274 457.098C536.916 458.099 536.398 458.864 535.72 459.393C535.043 459.917 534.223 460.179 533.259 460.179ZM533.259 458.773C534.214 458.773 534.956 458.312 535.484 457.392C536.012 456.472 536.277 455.159 536.277 453.455C536.277 452.321 536.155 451.356 535.912 450.559C535.674 449.762 535.328 449.155 534.877 448.737C534.429 448.32 533.89 448.111 533.259 448.111C532.313 448.111 531.574 448.577 531.041 449.511C530.509 450.44 530.242 451.754 530.242 453.455C530.242 454.588 530.362 455.551 530.6 456.344C530.839 457.136 531.182 457.739 531.63 458.153C532.081 458.566 532.625 458.773 533.259 458.773ZM547.446 460L542.946 453.991H541.335V460H539.75V446.909H541.335V452.585H542.025L547.267 446.909H549.159L543.866 452.662L549.338 460H547.446Z" fill="black"/>
<rect x="496" y="720" width="247" height="61" transform="rotate(-90 496 720)" fill="url(#paint3_linear_3375_2911)"/>
<path d="M496 473L557 473" stroke="#04B34A" stroke-width="4"/>
<path opacity="0.6" d="M483.988 737.909V751H481.616V740.217H481.54L478.478 742.173V739.999L481.732 737.909H483.988ZM493.663 751.179C492.811 751.179 492.048 751.019 491.375 750.7C490.701 750.376 490.166 749.933 489.77 749.37C489.378 748.808 489.169 748.164 489.144 747.44H491.445C491.488 747.977 491.72 748.415 492.142 748.756C492.563 749.093 493.071 749.261 493.663 749.261C494.127 749.261 494.541 749.155 494.903 748.942C495.265 748.729 495.551 748.433 495.76 748.053C495.968 747.674 496.071 747.241 496.066 746.756C496.071 746.261 495.966 745.822 495.753 745.439C495.54 745.055 495.248 744.755 494.877 744.538C494.507 744.316 494.081 744.205 493.599 744.205C493.207 744.201 492.821 744.273 492.442 744.423C492.063 744.572 491.762 744.768 491.541 745.011L489.399 744.659L490.083 737.909H497.677V739.891H492.046L491.669 743.362H491.745C491.988 743.076 492.331 742.839 492.774 742.652C493.218 742.46 493.703 742.364 494.232 742.364C495.024 742.364 495.732 742.552 496.354 742.927C496.976 743.298 497.466 743.809 497.824 744.461C498.182 745.113 498.361 745.859 498.361 746.698C498.361 747.563 498.161 748.335 497.76 749.012C497.364 749.685 496.812 750.216 496.105 750.604C495.402 750.987 494.588 751.179 493.663 751.179ZM507.141 751.249C506.089 751.249 505.185 750.983 504.431 750.45C503.681 749.913 503.104 749.14 502.699 748.13C502.298 747.116 502.098 745.895 502.098 744.467C502.102 743.04 502.305 741.825 502.705 740.824C503.11 739.818 503.687 739.051 504.437 738.523C505.192 737.994 506.093 737.73 507.141 737.73C508.189 737.73 509.091 737.994 509.845 738.523C510.599 739.051 511.177 739.818 511.577 740.824C511.982 741.83 512.185 743.044 512.185 744.467C512.185 745.899 511.982 747.122 511.577 748.136C511.177 749.146 510.599 749.918 509.845 750.45C509.095 750.983 508.194 751.249 507.141 751.249ZM507.141 749.249C507.959 749.249 508.605 748.846 509.078 748.04C509.555 747.231 509.794 746.04 509.794 744.467C509.794 743.428 509.685 742.554 509.468 741.847C509.251 741.139 508.944 740.607 508.547 740.249C508.151 739.886 507.682 739.705 507.141 739.705C506.327 739.705 505.684 740.11 505.211 740.92C504.738 741.725 504.499 742.908 504.495 744.467C504.491 745.511 504.595 746.389 504.808 747.101C505.025 747.812 505.332 748.349 505.729 748.712C506.125 749.07 506.596 749.249 507.141 749.249ZM522.085 743.502V745.407H516.191V743.502H522.085ZM531.618 737.909V751H529.246V740.217H529.169L526.108 742.173V739.999L529.361 737.909H531.618ZM541.286 737.73C541.913 737.734 542.522 737.845 543.114 738.062C543.711 738.276 544.248 738.625 544.725 739.111C545.202 739.592 545.582 740.238 545.863 741.048C546.144 741.857 546.285 742.859 546.285 744.052C546.289 745.177 546.17 746.183 545.927 747.069C545.688 747.951 545.345 748.697 544.898 749.306C544.45 749.915 543.911 750.38 543.281 750.7C542.65 751.019 541.94 751.179 541.152 751.179C540.325 751.179 539.592 751.017 538.953 750.693C538.318 750.369 537.805 749.926 537.413 749.364C537.021 748.801 536.78 748.158 536.69 747.433H539.023C539.143 747.953 539.386 748.366 539.752 748.673C540.123 748.976 540.589 749.127 541.152 749.127C542.06 749.127 542.759 748.733 543.249 747.945C543.739 747.156 543.984 746.061 543.984 744.659H543.894C543.685 745.034 543.415 745.358 543.082 745.631C542.75 745.899 542.373 746.106 541.951 746.251C541.533 746.396 541.09 746.468 540.621 746.468C539.854 746.468 539.164 746.285 538.55 745.918C537.941 745.552 537.457 745.049 537.099 744.41C536.746 743.771 536.567 743.04 536.562 742.217C536.562 741.365 536.759 740.6 537.151 739.923C537.547 739.241 538.099 738.704 538.806 738.312C539.513 737.915 540.34 737.722 541.286 737.73ZM541.293 739.648C540.832 739.648 540.417 739.761 540.046 739.987C539.68 740.208 539.39 740.511 539.177 740.894C538.968 741.273 538.864 741.697 538.864 742.166C538.868 742.631 538.972 743.053 539.177 743.432C539.386 743.811 539.669 744.112 540.027 744.333C540.389 744.555 540.803 744.665 541.267 744.665C541.612 744.665 541.934 744.599 542.232 744.467C542.531 744.335 542.79 744.152 543.012 743.918C543.238 743.679 543.413 743.408 543.536 743.106C543.664 742.803 543.726 742.484 543.722 742.147C543.722 741.7 543.615 741.286 543.402 740.907C543.193 740.528 542.906 740.223 542.539 739.993C542.177 739.763 541.761 739.648 541.293 739.648ZM554.758 737.73C555.385 737.734 555.994 737.845 556.586 738.062C557.183 738.276 557.72 738.625 558.197 739.111C558.674 739.592 559.054 740.238 559.335 741.048C559.616 741.857 559.757 742.859 559.757 744.052C559.761 745.177 559.642 746.183 559.399 747.069C559.16 747.951 558.817 748.697 558.37 749.306C557.922 749.915 557.383 750.38 556.752 750.7C556.122 751.019 555.412 751.179 554.624 751.179C553.797 751.179 553.064 751.017 552.425 750.693C551.79 750.369 551.277 749.926 550.885 749.364C550.492 748.801 550.252 748.158 550.162 747.433H552.495C552.615 747.953 552.858 748.366 553.224 748.673C553.595 748.976 554.061 749.127 554.624 749.127C555.532 749.127 556.23 748.733 556.72 747.945C557.211 747.156 557.456 746.061 557.456 744.659H557.366C557.157 745.034 556.887 745.358 556.554 745.631C556.222 745.899 555.845 746.106 555.423 746.251C555.005 746.396 554.562 746.468 554.093 746.468C553.326 746.468 552.636 746.285 552.022 745.918C551.413 745.552 550.929 745.049 550.571 744.41C550.218 743.771 550.039 743.04 550.034 742.217C550.034 741.365 550.23 740.6 550.622 739.923C551.019 739.241 551.571 738.704 552.278 738.312C552.985 737.915 553.812 737.722 554.758 737.73ZM554.764 739.648C554.304 739.648 553.889 739.761 553.518 739.987C553.152 740.208 552.862 740.511 552.649 740.894C552.44 741.273 552.336 741.697 552.336 742.166C552.34 742.631 552.444 743.053 552.649 743.432C552.858 743.811 553.141 744.112 553.499 744.333C553.861 744.555 554.274 744.665 554.739 744.665C555.084 744.665 555.406 744.599 555.704 744.467C556.002 744.335 556.262 744.152 556.484 743.918C556.71 743.679 556.885 743.408 557.008 743.106C557.136 742.803 557.198 742.484 557.193 742.147C557.193 741.7 557.087 741.286 556.874 740.907C556.665 740.528 556.377 740.223 556.011 739.993C555.649 739.763 555.233 739.648 554.764 739.648ZM571.656 751L567.348 745.279H566.185V751H563.813V737.909H566.185V743.291H566.779L571.432 737.909H574.354L569.182 743.879L574.577 751H571.656Z" fill="black"/>
<path opacity="0.6" d="M660.944 431.179C660.408 431.17 659.871 431.068 659.334 430.872C658.797 430.676 658.307 430.346 657.863 429.881C657.42 429.413 657.064 428.78 656.796 427.983C656.528 427.182 656.393 426.176 656.393 424.966C656.393 423.807 656.502 422.78 656.719 421.885C656.937 420.986 657.252 420.229 657.665 419.616C658.079 418.998 658.577 418.529 659.161 418.21C659.749 417.89 660.412 417.73 661.149 417.73C661.882 417.73 662.534 417.877 663.105 418.171C663.68 418.461 664.149 418.866 664.511 419.386C664.873 419.906 665.108 420.504 665.214 421.182H663.655C663.51 420.594 663.229 420.106 662.811 419.718C662.393 419.33 661.839 419.136 661.149 419.136C660.135 419.136 659.336 419.577 658.752 420.46C658.172 421.342 657.881 422.58 657.876 424.173H657.979C658.217 423.811 658.501 423.502 658.829 423.246C659.161 422.987 659.528 422.786 659.928 422.646C660.329 422.505 660.753 422.435 661.2 422.435C661.95 422.435 662.636 422.622 663.258 422.997C663.881 423.368 664.379 423.881 664.754 424.538C665.129 425.19 665.317 425.938 665.317 426.781C665.317 427.591 665.135 428.332 664.773 429.006C664.411 429.675 663.902 430.207 663.246 430.604C662.594 430.996 661.827 431.188 660.944 431.179ZM660.944 429.773C661.481 429.773 661.963 429.638 662.389 429.37C662.819 429.102 663.158 428.741 663.405 428.29C663.657 427.838 663.783 427.335 663.783 426.781C663.783 426.24 663.661 425.748 663.418 425.305C663.18 424.857 662.849 424.501 662.427 424.237C662.01 423.973 661.533 423.841 660.996 423.841C660.591 423.841 660.214 423.922 659.864 424.084C659.515 424.241 659.208 424.459 658.944 424.736C658.684 425.013 658.479 425.33 658.33 425.688C658.181 426.042 658.106 426.415 658.106 426.807C658.106 427.327 658.228 427.812 658.471 428.264C658.718 428.716 659.055 429.08 659.481 429.357C659.911 429.634 660.399 429.773 660.944 429.773ZM671.38 431.179C670.417 431.179 669.597 430.917 668.919 430.393C668.242 429.864 667.724 429.099 667.366 428.098C667.008 427.092 666.829 425.878 666.829 424.455C666.829 423.04 667.008 421.832 667.366 420.83C667.728 419.825 668.248 419.058 668.926 418.529C669.607 417.996 670.426 417.73 671.38 417.73C672.335 417.73 673.151 417.996 673.828 418.529C674.51 419.058 675.03 419.825 675.388 420.83C675.75 421.832 675.931 423.04 675.931 424.455C675.931 425.878 675.752 427.092 675.394 428.098C675.036 429.099 674.519 429.864 673.841 430.393C673.164 430.917 672.343 431.179 671.38 431.179ZM671.38 429.773C672.335 429.773 673.076 429.312 673.605 428.392C674.133 427.472 674.397 426.159 674.397 424.455C674.397 423.321 674.276 422.356 674.033 421.559C673.794 420.762 673.449 420.155 672.997 419.737C672.55 419.32 672.011 419.111 671.38 419.111C670.434 419.111 669.695 419.577 669.162 420.511C668.629 421.44 668.363 422.754 668.363 424.455C668.363 425.588 668.482 426.551 668.721 427.344C668.96 428.136 669.303 428.739 669.75 429.153C670.202 429.566 670.745 429.773 671.38 429.773ZM679.459 429.21L679.357 429.901C679.284 430.386 679.173 430.906 679.024 431.46C678.879 432.014 678.728 432.536 678.57 433.026C678.413 433.516 678.283 433.906 678.18 434.196H677.03C677.085 433.923 677.158 433.563 677.247 433.116C677.337 432.668 677.426 432.168 677.516 431.614C677.609 431.064 677.686 430.501 677.746 429.926L677.822 429.21H679.459ZM685.297 431.179C684.419 431.179 683.644 431.023 682.97 430.712C682.301 430.397 681.779 429.964 681.404 429.415C681.029 428.861 680.844 428.23 680.848 427.523C680.844 426.969 680.953 426.457 681.174 425.989C681.396 425.516 681.698 425.121 682.082 424.806C682.47 424.487 682.902 424.284 683.379 424.199V424.122C682.753 423.96 682.254 423.609 681.884 423.067C681.513 422.522 681.33 421.902 681.334 421.207C681.33 420.543 681.498 419.948 681.839 419.424C682.18 418.9 682.649 418.487 683.245 418.184C683.846 417.881 684.53 417.73 685.297 417.73C686.056 417.73 686.733 417.881 687.33 418.184C687.926 418.487 688.395 418.9 688.736 419.424C689.081 419.948 689.256 420.543 689.26 421.207C689.256 421.902 689.066 422.522 688.691 423.067C688.32 423.609 687.828 423.96 687.215 424.122V424.199C687.688 424.284 688.114 424.487 688.493 424.806C688.872 425.121 689.175 425.516 689.401 425.989C689.627 426.457 689.742 426.969 689.746 427.523C689.742 428.23 689.55 428.861 689.171 429.415C688.796 429.964 688.274 430.397 687.605 430.712C686.94 431.023 686.171 431.179 685.297 431.179ZM685.297 429.773C685.889 429.773 686.401 429.677 686.831 429.485C687.262 429.293 687.594 429.023 687.828 428.673C688.063 428.324 688.182 427.915 688.186 427.446C688.182 426.952 688.054 426.515 687.803 426.136C687.551 425.756 687.208 425.458 686.774 425.241C686.343 425.023 685.851 424.915 685.297 424.915C684.739 424.915 684.24 425.023 683.801 425.241C683.367 425.458 683.024 425.756 682.772 426.136C682.525 426.515 682.404 426.952 682.408 427.446C682.404 427.915 682.517 428.324 682.747 428.673C682.981 429.023 683.316 429.293 683.75 429.485C684.185 429.677 684.7 429.773 685.297 429.773ZM685.297 423.56C685.766 423.56 686.181 423.466 686.543 423.278C686.91 423.091 687.198 422.829 687.406 422.492C687.615 422.156 687.722 421.761 687.726 421.31C687.722 420.866 687.617 420.481 687.413 420.153C687.208 419.82 686.925 419.565 686.563 419.386C686.2 419.202 685.779 419.111 685.297 419.111C684.807 419.111 684.379 419.202 684.012 419.386C683.646 419.565 683.362 419.82 683.162 420.153C682.962 420.481 682.864 420.866 682.868 421.31C682.864 421.761 682.964 422.156 683.168 422.492C683.377 422.829 683.665 423.091 684.031 423.278C684.398 423.466 684.82 423.56 685.297 423.56ZM699.402 431L694.902 424.991H693.291V431H691.706V417.909H693.291V423.585H693.981L699.223 417.909H701.115L695.822 423.662L701.294 431H699.402Z" fill="black"/>
<rect x="648" y="715" width="271" height="61" transform="rotate(-90 648 715)" fill="url(#paint4_linear_3375_2911)"/>
<path d="M648 444L709 444" stroke="#04B34A" stroke-width="4"/>
<path opacity="0.6" d="M628.163 746V744.287L632.708 739.832C633.143 739.393 633.505 739.003 633.795 738.662C634.085 738.321 634.302 737.991 634.447 737.671C634.592 737.352 634.664 737.011 634.664 736.648C634.664 736.235 634.57 735.881 634.383 735.587C634.195 735.289 633.938 735.059 633.609 734.897C633.281 734.735 632.908 734.654 632.491 734.654C632.06 734.654 631.683 734.744 631.359 734.923C631.036 735.097 630.784 735.347 630.605 735.67C630.43 735.994 630.343 736.38 630.343 736.827H628.087C628.087 735.996 628.276 735.274 628.656 734.661C629.035 734.047 629.557 733.572 630.222 733.235C630.891 732.898 631.658 732.73 632.523 732.73C633.401 732.73 634.172 732.894 634.837 733.222C635.501 733.55 636.017 734 636.384 734.571C636.754 735.142 636.94 735.794 636.94 736.527C636.94 737.017 636.846 737.499 636.658 737.972C636.471 738.445 636.141 738.969 635.668 739.544C635.199 740.119 634.54 740.816 633.692 741.634L631.436 743.929V744.018H637.138V746H628.163ZM645.982 746.249C644.929 746.249 644.026 745.983 643.272 745.45C642.522 744.913 641.944 744.14 641.539 743.13C641.139 742.116 640.938 740.895 640.938 739.467C640.943 738.04 641.145 736.825 641.546 735.824C641.951 734.818 642.528 734.051 643.278 733.523C644.032 732.994 644.934 732.73 645.982 732.73C647.03 732.73 647.931 732.994 648.686 733.523C649.44 734.051 650.017 734.818 650.418 735.824C650.823 736.83 651.025 738.044 651.025 739.467C651.025 740.899 650.823 742.122 650.418 743.136C650.017 744.146 649.44 744.918 648.686 745.45C647.936 745.983 647.034 746.249 645.982 746.249ZM645.982 744.249C646.8 744.249 647.446 743.846 647.919 743.04C648.396 742.231 648.635 741.04 648.635 739.467C648.635 738.428 648.526 737.554 648.309 736.847C648.091 736.139 647.784 735.607 647.388 735.249C646.992 734.886 646.523 734.705 645.982 734.705C645.168 734.705 644.524 735.11 644.051 735.92C643.578 736.725 643.34 737.908 643.336 739.467C643.331 740.511 643.436 741.389 643.649 742.101C643.866 742.812 644.173 743.349 644.569 743.712C644.965 744.07 645.436 744.249 645.982 744.249ZM659.788 746.249C658.735 746.249 657.832 745.983 657.077 745.45C656.327 744.913 655.75 744.14 655.345 743.13C654.945 742.116 654.744 740.895 654.744 739.467C654.749 738.04 654.951 736.825 655.352 735.824C655.756 734.818 656.334 734.051 657.084 733.523C657.838 732.994 658.739 732.73 659.788 732.73C660.836 732.73 661.737 732.994 662.492 733.523C663.246 734.051 663.823 734.818 664.224 735.824C664.629 736.83 664.831 738.044 664.831 739.467C664.831 740.899 664.629 742.122 664.224 743.136C663.823 744.146 663.246 744.918 662.492 745.45C661.742 745.983 660.84 746.249 659.788 746.249ZM659.788 744.249C660.606 744.249 661.251 743.846 661.724 743.04C662.202 742.231 662.44 741.04 662.44 739.467C662.44 738.428 662.332 737.554 662.114 736.847C661.897 736.139 661.59 735.607 661.194 735.249C660.798 734.886 660.329 734.705 659.788 734.705C658.974 734.705 658.33 735.11 657.857 735.92C657.384 736.725 657.146 737.908 657.141 739.467C657.137 740.511 657.242 741.389 657.455 742.101C657.672 742.812 657.979 743.349 658.375 743.712C658.771 744.07 659.242 744.249 659.788 744.249ZM674.731 738.502V740.407H668.838V738.502H674.731ZM678.482 746V744.287L683.027 739.832C683.462 739.393 683.824 739.003 684.114 738.662C684.404 738.321 684.621 737.991 684.766 737.671C684.911 737.352 684.983 737.011 684.983 736.648C684.983 736.235 684.889 735.881 684.702 735.587C684.514 735.289 684.257 735.059 683.929 734.897C683.6 734.735 683.228 734.654 682.81 734.654C682.38 734.654 682.002 734.744 681.679 734.923C681.355 735.097 681.103 735.347 680.924 735.67C680.75 735.994 680.662 736.38 680.662 736.827H678.406C678.406 735.996 678.595 735.274 678.975 734.661C679.354 734.047 679.876 733.572 680.541 733.235C681.21 732.898 681.977 732.73 682.842 732.73C683.72 732.73 684.491 732.894 685.156 733.222C685.821 733.55 686.336 734 686.703 734.571C687.073 735.142 687.259 735.794 687.259 736.527C687.259 737.017 687.165 737.499 686.978 737.972C686.79 738.445 686.46 738.969 685.987 739.544C685.518 740.119 684.86 740.816 684.012 741.634L681.755 743.929V744.018H687.457V746H678.482ZM690.944 743.571V741.685L696.499 732.909H698.072V735.594H697.113L693.373 741.519V741.621H701.127V743.571H690.944ZM697.189 746V742.996L697.215 742.152V732.909H699.452V746H697.189ZM709.514 732.73C710.14 732.734 710.75 732.845 711.342 733.062C711.939 733.276 712.476 733.625 712.953 734.111C713.43 734.592 713.809 735.238 714.091 736.048C714.372 736.857 714.513 737.859 714.513 739.052C714.517 740.177 714.397 741.183 714.155 742.069C713.916 742.951 713.573 743.697 713.125 744.306C712.678 744.915 712.139 745.38 711.508 745.7C710.878 746.019 710.168 746.179 709.38 746.179C708.553 746.179 707.82 746.017 707.181 745.693C706.546 745.369 706.032 744.926 705.64 744.364C705.248 743.801 705.008 743.158 704.918 742.433H707.251C707.37 742.953 707.613 743.366 707.98 743.673C708.351 743.976 708.817 744.127 709.38 744.127C710.287 744.127 710.986 743.733 711.476 742.945C711.966 742.156 712.211 741.061 712.211 739.659H712.122C711.913 740.034 711.643 740.358 711.31 740.631C710.978 740.899 710.601 741.106 710.179 741.251C709.761 741.396 709.318 741.468 708.849 741.468C708.082 741.468 707.392 741.285 706.778 740.918C706.169 740.552 705.685 740.049 705.327 739.41C704.973 738.771 704.794 738.04 704.79 737.217C704.79 736.365 704.986 735.6 705.378 734.923C705.775 734.241 706.326 733.704 707.034 733.312C707.741 732.915 708.568 732.722 709.514 732.73ZM709.52 734.648C709.06 734.648 708.645 734.761 708.274 734.987C707.907 735.208 707.618 735.511 707.405 735.894C707.196 736.273 707.091 736.697 707.091 737.166C707.096 737.631 707.2 738.053 707.405 738.432C707.613 738.811 707.897 739.112 708.255 739.333C708.617 739.555 709.03 739.665 709.495 739.665C709.84 739.665 710.162 739.599 710.46 739.467C710.758 739.335 711.018 739.152 711.24 738.918C711.466 738.679 711.64 738.408 711.764 738.106C711.892 737.803 711.954 737.484 711.949 737.147C711.949 736.7 711.843 736.286 711.63 735.907C711.421 735.528 711.133 735.223 710.767 734.993C710.405 734.763 709.989 734.648 709.52 734.648ZM726.412 746L722.104 740.279H720.94V746H718.569V732.909H720.94V738.291H721.535L726.188 732.909H729.109L723.938 738.879L729.333 746H726.412Z" fill="black"/>
<path opacity="0.6" d="M810.633 388L816.488 376.418V376.315H809.738V374.909H818.124V376.392L812.295 388H810.633ZM820.548 388L826.403 376.418V376.315H819.653V374.909H828.039V376.392L822.21 388H820.548ZM829.727 386.21L829.625 386.901C829.553 387.386 829.442 387.906 829.293 388.46C829.148 389.014 828.997 389.536 828.839 390.026C828.681 390.516 828.551 390.906 828.449 391.196H827.298C827.354 390.923 827.426 390.563 827.516 390.116C827.605 389.668 827.695 389.168 827.784 388.614C827.878 388.064 827.955 387.501 828.014 386.926L828.091 386.21H829.727ZM835.59 388.179C834.627 388.179 833.806 387.917 833.129 387.393C832.451 386.864 831.933 386.099 831.575 385.098C831.217 384.092 831.038 382.878 831.038 381.455C831.038 380.04 831.217 378.832 831.575 377.83C831.938 376.825 832.457 376.058 833.135 375.529C833.817 374.996 834.635 374.73 835.59 374.73C836.544 374.73 837.36 374.996 838.038 375.529C838.72 376.058 839.239 376.825 839.597 377.83C839.96 378.832 840.141 380.04 840.141 381.455C840.141 382.878 839.962 384.092 839.604 385.098C839.246 386.099 838.728 386.864 838.051 387.393C837.373 387.917 836.553 388.179 835.59 388.179ZM835.59 386.773C836.544 386.773 837.286 386.312 837.814 385.392C838.342 384.472 838.607 383.159 838.607 381.455C838.607 380.321 838.485 379.356 838.242 378.559C838.004 377.762 837.658 377.155 837.207 376.737C836.759 376.32 836.22 376.111 835.59 376.111C834.644 376.111 833.904 376.577 833.372 377.511C832.839 378.44 832.573 379.754 832.573 381.455C832.573 382.588 832.692 383.551 832.93 384.344C833.169 385.136 833.512 385.739 833.96 386.153C834.411 386.566 834.955 386.773 835.59 386.773ZM849.776 388L845.276 381.991H843.665V388H842.08V374.909H843.665V380.585H844.355L849.597 374.909H851.489L846.196 380.662L851.668 388H849.776Z" fill="black"/>
<rect x="800" y="720" width="319" height="61" transform="rotate(-90 800 720)" fill="url(#paint5_linear_3375_2911)"/>
<path d="M800 401L861 401" stroke="#04B34A" stroke-width="4"/>
<path opacity="0.6" d="M779.663 751V749.287L784.208 744.832C784.643 744.393 785.005 744.003 785.295 743.662C785.585 743.321 785.802 742.991 785.947 742.671C786.092 742.352 786.164 742.011 786.164 741.648C786.164 741.235 786.07 740.881 785.883 740.587C785.695 740.289 785.438 740.059 785.109 739.897C784.781 739.735 784.408 739.654 783.991 739.654C783.56 739.654 783.183 739.744 782.859 739.923C782.536 740.097 782.284 740.347 782.105 740.67C781.93 740.994 781.843 741.38 781.843 741.827H779.587C779.587 740.996 779.776 740.274 780.156 739.661C780.535 739.047 781.057 738.572 781.722 738.235C782.391 737.898 783.158 737.73 784.023 737.73C784.901 737.73 785.672 737.894 786.337 738.222C787.001 738.55 787.517 739 787.884 739.571C788.254 740.142 788.44 740.794 788.44 741.527C788.44 742.017 788.346 742.499 788.158 742.972C787.971 743.445 787.641 743.969 787.168 744.544C786.699 745.119 786.04 745.816 785.192 746.634L782.936 748.929V749.018H788.638V751H779.663ZM797.194 751.179C796.342 751.179 795.579 751.019 794.906 750.7C794.233 750.376 793.698 749.933 793.301 749.37C792.909 748.808 792.701 748.164 792.675 747.44H794.976C795.019 747.977 795.251 748.415 795.673 748.756C796.095 749.093 796.602 749.261 797.194 749.261C797.659 749.261 798.072 749.155 798.434 748.942C798.796 748.729 799.082 748.433 799.291 748.053C799.5 747.674 799.602 747.241 799.598 746.756C799.602 746.261 799.497 745.822 799.284 745.439C799.071 745.055 798.779 744.755 798.409 744.538C798.038 744.316 797.612 744.205 797.13 744.205C796.738 744.201 796.353 744.273 795.973 744.423C795.594 744.572 795.294 744.768 795.072 745.011L792.931 744.659L793.615 737.909H801.208V739.891H795.577L795.2 743.362H795.277C795.519 743.076 795.863 742.839 796.306 742.652C796.749 742.46 797.235 742.364 797.763 742.364C798.556 742.364 799.263 742.552 799.885 742.927C800.507 743.298 800.997 743.809 801.355 744.461C801.713 745.113 801.892 745.859 801.892 746.698C801.892 747.563 801.692 748.335 801.291 749.012C800.895 749.685 800.343 750.216 799.636 750.604C798.933 750.987 798.119 751.179 797.194 751.179ZM810.672 751.249C809.62 751.249 808.716 750.983 807.962 750.45C807.212 749.913 806.635 749.14 806.23 748.13C805.829 747.116 805.629 745.895 805.629 744.467C805.633 743.04 805.836 741.825 806.236 740.824C806.641 739.818 807.219 739.051 807.969 738.523C808.723 737.994 809.624 737.73 810.672 737.73C811.721 737.73 812.622 737.994 813.376 738.523C814.131 739.051 814.708 739.818 815.109 740.824C815.513 741.83 815.716 743.044 815.716 744.467C815.716 745.899 815.513 747.122 815.109 748.136C814.708 749.146 814.131 749.918 813.376 750.45C812.626 750.983 811.725 751.249 810.672 751.249ZM810.672 749.249C811.491 749.249 812.136 748.846 812.609 748.04C813.087 747.231 813.325 746.04 813.325 744.467C813.325 743.428 813.216 742.554 812.999 741.847C812.782 741.139 812.475 740.607 812.079 740.249C811.682 739.886 811.214 739.705 810.672 739.705C809.859 739.705 809.215 740.11 808.742 740.92C808.269 741.725 808.03 742.908 808.026 744.467C808.022 745.511 808.126 746.389 808.339 747.101C808.557 747.812 808.863 748.349 809.26 748.712C809.656 749.07 810.127 749.249 810.672 749.249ZM825.616 743.502V745.407H819.723V743.502H825.616ZM834.375 751.179C833.523 751.179 832.76 751.019 832.087 750.7C831.414 750.376 830.879 749.933 830.483 749.37C830.091 748.808 829.882 748.164 829.856 747.44H832.157C832.2 747.977 832.432 748.415 832.854 748.756C833.276 749.093 833.783 749.261 834.375 749.261C834.84 749.261 835.253 749.155 835.615 748.942C835.978 748.729 836.263 748.433 836.472 748.053C836.681 747.674 836.783 747.241 836.779 746.756C836.783 746.261 836.679 745.822 836.466 745.439C836.253 745.055 835.961 744.755 835.59 744.538C835.219 744.316 834.793 744.205 834.312 744.205C833.919 744.201 833.534 744.273 833.155 744.423C832.775 744.572 832.475 744.768 832.253 745.011L830.112 744.659L830.796 737.909H838.39V739.891H832.758L832.381 743.362H832.458C832.701 743.076 833.044 742.839 833.487 742.652C833.93 742.46 834.416 742.364 834.944 742.364C835.737 742.364 836.444 742.552 837.066 742.927C837.689 743.298 838.179 743.809 838.537 744.461C838.895 745.113 839.074 745.859 839.074 746.698C839.074 747.563 838.873 748.335 838.473 749.012C838.076 749.685 837.525 750.216 836.817 750.604C836.114 750.987 835.3 751.179 834.375 751.179ZM847.854 751.249C846.801 751.249 845.898 750.983 845.143 750.45C844.393 749.913 843.816 749.14 843.411 748.13C843.011 747.116 842.81 745.895 842.81 744.467C842.815 743.04 843.017 741.825 843.418 740.824C843.822 739.818 844.4 739.051 845.15 738.523C845.904 737.994 846.805 737.73 847.854 737.73C848.902 737.73 849.803 737.994 850.558 738.523C851.312 739.051 851.889 739.818 852.29 740.824C852.695 741.83 852.897 743.044 852.897 744.467C852.897 745.899 852.695 747.122 852.29 748.136C851.889 749.146 851.312 749.918 850.558 750.45C849.808 750.983 848.906 751.249 847.854 751.249ZM847.854 749.249C848.672 749.249 849.317 748.846 849.79 748.04C850.268 747.231 850.506 746.04 850.506 744.467C850.506 743.428 850.398 742.554 850.18 741.847C849.963 741.139 849.656 740.607 849.26 740.249C848.864 739.886 848.395 739.705 847.854 739.705C847.04 739.705 846.396 740.11 845.923 740.92C845.45 741.725 845.212 742.908 845.207 744.467C845.203 745.511 845.308 746.389 845.521 747.101C845.738 747.812 846.045 748.349 846.441 748.712C846.837 749.07 847.308 749.249 847.854 749.249ZM861.66 751.249C860.607 751.249 859.704 750.983 858.949 750.45C858.199 749.913 857.622 749.14 857.217 748.13C856.817 747.116 856.616 745.895 856.616 744.467C856.62 743.04 856.823 741.825 857.223 740.824C857.628 739.818 858.206 739.051 858.956 738.523C859.71 737.994 860.611 737.73 861.66 737.73C862.708 737.73 863.609 737.994 864.363 738.523C865.118 739.051 865.695 739.818 866.096 740.824C866.5 741.83 866.703 743.044 866.703 744.467C866.703 745.899 866.5 747.122 866.096 748.136C865.695 749.146 865.118 749.918 864.363 750.45C863.613 750.983 862.712 751.249 861.66 751.249ZM861.66 749.249C862.478 749.249 863.123 748.846 863.596 748.04C864.074 747.231 864.312 746.04 864.312 744.467C864.312 743.428 864.204 742.554 863.986 741.847C863.769 741.139 863.462 740.607 863.066 740.249C862.669 739.886 862.201 739.705 861.66 739.705C860.846 739.705 860.202 740.11 859.729 740.92C859.256 741.725 859.018 742.908 859.013 744.467C859.009 745.511 859.113 746.389 859.326 747.101C859.544 747.812 859.851 748.349 860.247 748.712C860.643 749.07 861.114 749.249 861.66 749.249ZM878.598 751L874.289 745.279H873.126V751H870.754V737.909H873.126V743.291H873.72L878.374 737.909H881.295L876.124 743.879L881.519 751H878.598Z" fill="black"/>
<path opacity="0.6" d="M962.598 147.909V161H961.013V149.571H960.936L957.74 151.693V150.082L961.013 147.909H962.598ZM965.336 158.315V157.011L971.089 147.909H972.035V149.929H971.396L967.049 156.807V156.909H974.797V158.315H965.336ZM971.498 161V157.919V157.312V147.909H973.007V161H971.498ZM976.881 161L982.736 149.418V149.315H975.986V147.909H984.373V149.392L978.543 161H976.881ZM986.061 159.21L985.958 159.901C985.886 160.386 985.775 160.906 985.626 161.46C985.481 162.014 985.33 162.536 985.172 163.026C985.015 163.516 984.885 163.906 984.782 164.196H983.632C983.687 163.923 983.76 163.563 983.849 163.116C983.939 162.668 984.028 162.168 984.118 161.614C984.211 161.064 984.288 160.501 984.348 159.926L984.424 159.21H986.061ZM991.899 161.179C991.021 161.179 990.246 161.023 989.572 160.712C988.903 160.397 988.381 159.964 988.006 159.415C987.631 158.861 987.446 158.23 987.45 157.523C987.446 156.969 987.554 156.457 987.776 155.989C987.998 155.516 988.3 155.121 988.684 154.806C989.072 154.487 989.504 154.284 989.981 154.199V154.122C989.355 153.96 988.856 153.609 988.486 153.067C988.115 152.522 987.932 151.902 987.936 151.207C987.932 150.543 988.1 149.948 988.441 149.424C988.782 148.9 989.251 148.487 989.847 148.184C990.448 147.881 991.132 147.73 991.899 147.73C992.657 147.73 993.335 147.881 993.932 148.184C994.528 148.487 994.997 148.9 995.338 149.424C995.683 149.948 995.858 150.543 995.862 151.207C995.858 151.902 995.668 152.522 995.293 153.067C994.922 153.609 994.43 153.96 993.817 154.122V154.199C994.29 154.284 994.716 154.487 995.095 154.806C995.474 155.121 995.777 155.516 996.003 155.989C996.229 156.457 996.344 156.969 996.348 157.523C996.344 158.23 996.152 158.861 995.773 159.415C995.398 159.964 994.876 160.397 994.206 160.712C993.542 161.023 992.773 161.179 991.899 161.179ZM991.899 159.773C992.491 159.773 993.003 159.677 993.433 159.485C993.863 159.293 994.196 159.023 994.43 158.673C994.665 158.324 994.784 157.915 994.788 157.446C994.784 156.952 994.656 156.515 994.405 156.136C994.153 155.756 993.81 155.458 993.376 155.241C992.945 155.023 992.453 154.915 991.899 154.915C991.341 154.915 990.842 155.023 990.403 155.241C989.969 155.458 989.626 155.756 989.374 156.136C989.127 156.515 989.005 156.952 989.01 157.446C989.005 157.915 989.118 158.324 989.349 158.673C989.583 159.023 989.917 159.293 990.352 159.485C990.787 159.677 991.302 159.773 991.899 159.773ZM991.899 153.56C992.368 153.56 992.783 153.466 993.145 153.278C993.512 153.091 993.8 152.829 994.008 152.492C994.217 152.156 994.324 151.761 994.328 151.31C994.324 150.866 994.219 150.481 994.015 150.153C993.81 149.82 993.527 149.565 993.165 149.386C992.802 149.202 992.38 149.111 991.899 149.111C991.409 149.111 990.981 149.202 990.614 149.386C990.248 149.565 989.964 149.82 989.764 150.153C989.564 150.481 989.466 150.866 989.47 151.31C989.466 151.761 989.566 152.156 989.77 152.492C989.979 152.829 990.267 153.091 990.633 153.278C991 153.466 991.422 153.56 991.899 153.56ZM1006 161L1001.5 154.991H999.893V161H998.308V147.909H999.893V153.585H1000.58L1005.82 147.909H1007.72L1002.42 153.662L1007.9 161H1006Z" fill="black"/>
<rect x="952" y="720" width="546" height="61" transform="rotate(-90 952 720)" fill="url(#paint6_linear_3375_2911)"/>
<path d="M952 174L1013 174" stroke="#04B34A" stroke-width="4"/>
<path opacity="0.6" d="M955.214 751.179C954.362 751.179 953.599 751.019 952.926 750.7C952.253 750.376 951.718 749.933 951.322 749.37C950.93 748.808 950.721 748.164 950.695 747.44H952.996C953.039 747.977 953.271 748.415 953.693 748.756C954.115 749.093 954.622 749.261 955.214 749.261C955.679 749.261 956.092 749.155 956.455 748.942C956.817 748.729 957.102 748.433 957.311 748.053C957.52 747.674 957.622 747.241 957.618 746.756C957.622 746.261 957.518 745.822 957.305 745.439C957.092 745.055 956.8 744.755 956.429 744.538C956.058 744.316 955.632 744.205 955.151 744.205C954.759 744.201 954.373 744.273 953.994 744.423C953.614 744.572 953.314 744.768 953.092 745.011L950.951 744.659L951.635 737.909H959.229V739.891H953.597L953.22 743.362H953.297C953.54 743.076 953.883 742.839 954.326 742.652C954.769 742.46 955.255 742.364 955.783 742.364C956.576 742.364 957.283 742.552 957.906 742.927C958.528 743.298 959.018 743.809 959.376 744.461C959.734 745.113 959.913 745.859 959.913 746.698C959.913 747.563 959.712 748.335 959.312 749.012C958.915 749.685 958.364 750.216 957.656 750.604C956.953 750.987 956.139 751.179 955.214 751.179ZM968.693 751.249C967.64 751.249 966.737 750.983 965.983 750.45C965.233 749.913 964.655 749.14 964.25 748.13C963.85 747.116 963.649 745.895 963.649 744.467C963.654 743.04 963.856 741.825 964.257 740.824C964.662 739.818 965.239 739.051 965.989 738.523C966.743 737.994 967.644 737.73 968.693 737.73C969.741 737.73 970.642 737.994 971.397 738.523C972.151 739.051 972.728 739.818 973.129 740.824C973.534 741.83 973.736 743.044 973.736 744.467C973.736 745.899 973.534 747.122 973.129 748.136C972.728 749.146 972.151 749.918 971.397 750.45C970.647 750.983 969.745 751.249 968.693 751.249ZM968.693 749.249C969.511 749.249 970.157 748.846 970.63 748.04C971.107 747.231 971.345 746.04 971.345 744.467C971.345 743.428 971.237 742.554 971.019 741.847C970.802 741.139 970.495 740.607 970.099 740.249C969.703 739.886 969.234 739.705 968.693 739.705C967.879 739.705 967.235 740.11 966.762 740.92C966.289 741.725 966.051 742.908 966.046 744.467C966.042 745.511 966.147 746.389 966.36 747.101C966.577 747.812 966.884 748.349 967.28 748.712C967.676 749.07 968.147 749.249 968.693 749.249ZM982.499 751.249C981.446 751.249 980.543 750.983 979.788 750.45C979.038 749.913 978.461 749.14 978.056 748.13C977.656 747.116 977.455 745.895 977.455 744.467C977.46 743.04 977.662 741.825 978.063 740.824C978.467 739.818 979.045 739.051 979.795 738.523C980.549 737.994 981.45 737.73 982.499 737.73C983.547 737.73 984.448 737.994 985.202 738.523C985.957 739.051 986.534 739.818 986.935 740.824C987.34 741.83 987.542 743.044 987.542 744.467C987.542 745.899 987.34 747.122 986.935 748.136C986.534 749.146 985.957 749.918 985.202 750.45C984.452 750.983 983.551 751.249 982.499 751.249ZM982.499 749.249C983.317 749.249 983.962 748.846 984.435 748.04C984.913 747.231 985.151 746.04 985.151 744.467C985.151 743.428 985.043 742.554 984.825 741.847C984.608 741.139 984.301 740.607 983.905 740.249C983.509 739.886 983.04 739.705 982.499 739.705C981.685 739.705 981.041 740.11 980.568 740.92C980.095 741.725 979.857 742.908 979.852 744.467C979.848 745.511 979.952 746.389 980.166 747.101C980.383 747.812 980.69 748.349 981.086 748.712C981.482 749.07 981.953 749.249 982.499 749.249ZM999.437 751L995.128 745.279H993.965V751H991.594V737.909H993.965V743.291H994.559L999.213 737.909H1002.13L996.963 743.879L1002.36 751H999.437ZM1008.35 748.903V740.057H1010.36V748.903H1008.35ZM1004.93 745.484V743.477H1013.78V745.484H1004.93Z" fill="black"/>
<defs>
<linearGradient id="paint0_linear_3375_2911" x1="459.5" y1="750.5" x2="40" y2="750.5" gradientUnits="userSpaceOnUse">
<stop stop-color="#04B34A"/>
<stop offset="0.0001" stop-color="#04B34A" stop-opacity="0.991615"/>
<stop offset="0.119507" stop-color="#04B34A" stop-opacity="0.967585"/>
<stop offset="0.235693" stop-color="#04B34A" stop-opacity="0.9296"/>
<stop offset="0.322832" stop-color="#04B34A" stop-opacity="0.879348"/>
<stop offset="0.379604" stop-color="#04B34A" stop-opacity="0.818519"/>
<stop offset="0.4456" stop-color="#04B34A" stop-opacity="0.7488"/>
<stop offset="0.48243" stop-color="#04B34A" stop-opacity="0.671881"/>
<stop offset="0.51757" stop-color="#04B34A" stop-opacity="0.589452"/>
<stop offset="0.5544" stop-color="#04B34A" stop-opacity="0.5032"/>
<stop offset="0.596296" stop-color="#04B34A" stop-opacity="0.414815"/>
<stop offset="0.646637" stop-color="#04B34A" stop-opacity="0.325985"/>
<stop offset="0.7088" stop-color="#04B34A" stop-opacity="0.2384"/>
<stop offset="0.786163" stop-color="#04B34A" stop-opacity="0.153748"/>
<stop offset="0.882104" stop-color="#04B34A" stop-opacity="0.0737185"/>
<stop offset="1" stop-color="#04B34A" stop-opacity="0"/>
</linearGradient>
<linearGradient id="paint1_linear_3375_2911" x1="671.975" y1="750.5" x2="192" y2="750.5" gradientUnits="userSpaceOnUse">
<stop stop-color="#04B34A"/>
<stop offset="0.0001" stop-color="#04B34A" stop-opacity="0.991615"/>
<stop offset="0.119507" stop-color="#04B34A" stop-opacity="0.967585"/>
<stop offset="0.235693" stop-color="#04B34A" stop-opacity="0.9296"/>
<stop offset="0.322832" stop-color="#04B34A" stop-opacity="0.879348"/>
<stop offset="0.379604" stop-color="#04B34A" stop-opacity="0.818519"/>
<stop offset="0.4456" stop-color="#04B34A" stop-opacity="0.7488"/>
<stop offset="0.48243" stop-color="#04B34A" stop-opacity="0.671881"/>
<stop offset="0.51757" stop-color="#04B34A" stop-opacity="0.589452"/>
<stop offset="0.5544" stop-color="#04B34A" stop-opacity="0.5032"/>
<stop offset="0.596296" stop-color="#04B34A" stop-opacity="0.414815"/>
<stop offset="0.646637" stop-color="#04B34A" stop-opacity="0.325985"/>
<stop offset="0.7088" stop-color="#04B34A" stop-opacity="0.2384"/>
<stop offset="0.786163" stop-color="#04B34A" stop-opacity="0.153748"/>
<stop offset="0.882104" stop-color="#04B34A" stop-opacity="0.0737185"/>
<stop offset="1" stop-color="#04B34A" stop-opacity="0"/>
</linearGradient>
<linearGradient id="paint2_linear_3375_2911" x1="988.513" y1="750.5" x2="344" y2="750.5" gradientUnits="userSpaceOnUse">
<stop stop-color="#04B34A"/>
<stop offset="0.0001" stop-color="#04B34A" stop-opacity="0.991615"/>
<stop offset="0.119507" stop-color="#04B34A" stop-opacity="0.967585"/>
<stop offset="0.235693" stop-color="#04B34A" stop-opacity="0.9296"/>
<stop offset="0.322832" stop-color="#04B34A" stop-opacity="0.879348"/>
<stop offset="0.379604" stop-color="#04B34A" stop-opacity="0.818519"/>
<stop offset="0.4456" stop-color="#04B34A" stop-opacity="0.7488"/>
<stop offset="0.48243" stop-color="#04B34A" stop-opacity="0.671881"/>
<stop offset="0.51757" stop-color="#04B34A" stop-opacity="0.589452"/>
<stop offset="0.5544" stop-color="#04B34A" stop-opacity="0.5032"/>
<stop offset="0.596296" stop-color="#04B34A" stop-opacity="0.414815"/>
<stop offset="0.646637" stop-color="#04B34A" stop-opacity="0.325985"/>
<stop offset="0.7088" stop-color="#04B34A" stop-opacity="0.2384"/>
<stop offset="0.786163" stop-color="#04B34A" stop-opacity="0.153748"/>
<stop offset="0.882104" stop-color="#04B34A" stop-opacity="0.0737185"/>
<stop offset="1" stop-color="#04B34A" stop-opacity="0"/>
</linearGradient>
<linearGradient id="paint3_linear_3375_2911" x1="1237" y1="750.5" x2="496" y2="750.5" gradientUnits="userSpaceOnUse">
<stop stop-color="#04B34A"/>
<stop offset="0.0001" stop-color="#04B34A" stop-opacity="0.991615"/>
<stop offset="0.119507" stop-color="#04B34A" stop-opacity="0.967585"/>
<stop offset="0.235693" stop-color="#04B34A" stop-opacity="0.9296"/>
<stop offset="0.322832" stop-color="#04B34A" stop-opacity="0.879348"/>
<stop offset="0.379604" stop-color="#04B34A" stop-opacity="0.818519"/>
<stop offset="0.4456" stop-color="#04B34A" stop-opacity="0.7488"/>
<stop offset="0.48243" stop-color="#04B34A" stop-opacity="0.671881"/>
<stop offset="0.51757" stop-color="#04B34A" stop-opacity="0.589452"/>
<stop offset="0.5544" stop-color="#04B34A" stop-opacity="0.5032"/>
<stop offset="0.596296" stop-color="#04B34A" stop-opacity="0.414815"/>
<stop offset="0.646637" stop-color="#04B34A" stop-opacity="0.325985"/>
<stop offset="0.7088" stop-color="#04B34A" stop-opacity="0.2384"/>
<stop offset="0.786163" stop-color="#04B34A" stop-opacity="0.153748"/>
<stop offset="0.882104" stop-color="#04B34A" stop-opacity="0.0737185"/>
<stop offset="1" stop-color="#04B34A" stop-opacity="0"/>
</linearGradient>
<linearGradient id="paint4_linear_3375_2911" x1="1410.55" y1="745.5" x2="648" y2="745.5" gradientUnits="userSpaceOnUse">
<stop stop-color="#04B34A"/>
<stop offset="0.0001" stop-color="#04B34A" stop-opacity="0.991615"/>
<stop offset="0.119507" stop-color="#04B34A" stop-opacity="0.967585"/>
<stop offset="0.235693" stop-color="#04B34A" stop-opacity="0.9296"/>
<stop offset="0.322832" stop-color="#04B34A" stop-opacity="0.879348"/>
<stop offset="0.379604" stop-color="#04B34A" stop-opacity="0.818519"/>
<stop offset="0.4456" stop-color="#04B34A" stop-opacity="0.7488"/>
<stop offset="0.48243" stop-color="#04B34A" stop-opacity="0.671881"/>
<stop offset="0.51757" stop-color="#04B34A" stop-opacity="0.589452"/>
<stop offset="0.5544" stop-color="#04B34A" stop-opacity="0.5032"/>
<stop offset="0.596296" stop-color="#04B34A" stop-opacity="0.414815"/>
<stop offset="0.646637" stop-color="#04B34A" stop-opacity="0.325985"/>
<stop offset="0.7088" stop-color="#04B34A" stop-opacity="0.2384"/>
<stop offset="0.786163" stop-color="#04B34A" stop-opacity="0.153748"/>
<stop offset="0.882104" stop-color="#04B34A" stop-opacity="0.0737185"/>
<stop offset="1" stop-color="#04B34A" stop-opacity="0"/>
</linearGradient>
<linearGradient id="paint5_linear_3375_2911" x1="1647.42" y1="750.5" x2="800" y2="750.5" gradientUnits="userSpaceOnUse">
<stop stop-color="#04B34A"/>
<stop offset="0.0001" stop-color="#04B34A" stop-opacity="0.991615"/>
<stop offset="0.119507" stop-color="#04B34A" stop-opacity="0.967585"/>
<stop offset="0.235693" stop-color="#04B34A" stop-opacity="0.9296"/>
<stop offset="0.322832" stop-color="#04B34A" stop-opacity="0.879348"/>
<stop offset="0.379604" stop-color="#04B34A" stop-opacity="0.818519"/>
<stop offset="0.4456" stop-color="#04B34A" stop-opacity="0.7488"/>
<stop offset="0.48243" stop-color="#04B34A" stop-opacity="0.671881"/>
<stop offset="0.51757" stop-color="#04B34A" stop-opacity="0.589452"/>
<stop offset="0.5544" stop-color="#04B34A" stop-opacity="0.5032"/>
<stop offset="0.596296" stop-color="#04B34A" stop-opacity="0.414815"/>
<stop offset="0.646637" stop-color="#04B34A" stop-opacity="0.325985"/>
<stop offset="0.7088" stop-color="#04B34A" stop-opacity="0.2384"/>
<stop offset="0.786163" stop-color="#04B34A" stop-opacity="0.153748"/>
<stop offset="0.882104" stop-color="#04B34A" stop-opacity="0.0737185"/>
<stop offset="1" stop-color="#04B34A" stop-opacity="0"/>
</linearGradient>
<linearGradient id="paint6_linear_3375_2911" x1="2419.11" y1="750.5" x2="952" y2="750.5" gradientUnits="userSpaceOnUse">
<stop stop-color="#04B34A"/>
<stop offset="0.0001" stop-color="#04B34A" stop-opacity="0.991615"/>
<stop offset="0.119507" stop-color="#04B34A" stop-opacity="0.967585"/>
<stop offset="0.235693" stop-color="#04B34A" stop-opacity="0.9296"/>
<stop offset="0.322832" stop-color="#04B34A" stop-opacity="0.879348"/>
<stop offset="0.379604" stop-color="#04B34A" stop-opacity="0.818519"/>
<stop offset="0.4456" stop-color="#04B34A" stop-opacity="0.7488"/>
<stop offset="0.48243" stop-color="#04B34A" stop-opacity="0.671881"/>
<stop offset="0.51757" stop-color="#04B34A" stop-opacity="0.589452"/>
<stop offset="0.5544" stop-color="#04B34A" stop-opacity="0.5032"/>
<stop offset="0.596296" stop-color="#04B34A" stop-opacity="0.414815"/>
<stop offset="0.646637" stop-color="#04B34A" stop-opacity="0.325985"/>
<stop offset="0.7088" stop-color="#04B34A" stop-opacity="0.2384"/>
<stop offset="0.786163" stop-color="#04B34A" stop-opacity="0.153748"/>
<stop offset="0.882104" stop-color="#04B34A" stop-opacity="0.0737185"/>
<stop offset="1" stop-color="#04B34A" stop-opacity="0"/>
</linearGradient>
</defs>
</svg>
