<svg width="1080" height="1085" viewBox="0 0 1080 1085" fill="none" xmlns="http://www.w3.org/2000/svg">
<rect width="1080" height="1085" fill="white"/>
<path d="M915.587 49L912.911 64.8629H915.891L914.181 75H908.668L909.483 70.1698H895.329L894.514 75H889L890.71 64.8629H892.824C893.79 63.5513 894.707 61.8209 895.74 58.1838L898.364 49H915.59H915.587ZM908.584 54.3069H902.535L901.369 58.3918C900.354 61.9393 899.515 63.5484 898.667 64.8629H906.805L908.584 54.3069Z" fill="#EAECEF"/>
<path d="M920.448 49H933.56C938.18 49 940.257 51.3544 939.681 54.7547C939.314 56.93 937.677 58.3311 936.141 58.958C937.818 59.6138 939.146 61.2836 938.663 64.1464C938.05 67.7836 935.085 70.1698 930.167 70.1698H916.875L920.448 49ZM924.295 61.7024L923.67 65.4002H929.69C931.298 65.4002 932.293 64.8051 932.504 63.5513C932.721 62.2687 931.923 61.7024 930.312 61.7024H924.292H924.295ZM925.631 53.7724L925.099 56.9329H931.029C932.282 56.9329 933.161 56.4851 933.352 55.3527C933.543 54.2202 932.814 53.7724 931.561 53.7724H925.631Z" fill="#EAECEF"/>
<path d="M943.47 49H949.579L947.427 61.7602L958.906 49H965.015L961.445 70.1698H955.336L957.479 57.4673L946.01 70.1698H939.9L943.47 49Z" fill="#EAECEF"/>
<path d="M974.098 59.1978L966.907 49H973.821L979.812 57.6464L981.272 49H987.084L985.626 57.6464L994.536 49H1001.3L990.954 58.9291L998.177 70.1698H990.815L985.039 61.1362L983.514 70.1698H977.703L979.227 61.1362L970.402 70.1698H963.309L974.101 59.1978H974.098Z" fill="#EAECEF"/>
<path d="M1010.23 49H1003.13L1010.19 58.9291L999.713 70.1698H1006.81L1017.29 58.9291L1010.23 49ZM1021.44 49H1014.34L1021.41 58.9291L1010.93 70.1698H1018.02L1028.5 58.9291L1021.44 49ZM1032.94 49H1025.85L1032.91 58.9291L1022.43 70.1698H1029.52L1040 58.9291L1032.94 49Z" fill="#EAECEF"/>
<path d="M41.2784 53.3821V48.8182H62.7812V53.3821H54.7656V75H49.294V53.3821H41.2784ZM67.9442 67.8153L75.0138 55.3636H80.3832V75H75.1928V62.5099L68.1488 75H62.7411V55.3636H67.9442V67.8153ZM83.3089 75V55.3636H100.478V75H95.2748V59.6463H88.4481V75H83.3089ZM115.48 67.8153L122.549 55.3636H127.919V75H122.728V62.5099L115.684 75H110.277V55.3636H115.48V67.8153ZM130.844 75V55.3636H148.013V75H142.81V59.6463H135.984V75H130.844ZM159.792 75.3835C157.806 75.3835 156.089 74.9616 154.64 74.1179C153.2 73.2656 152.088 72.081 151.304 70.5639C150.519 69.0384 150.127 67.2699 150.127 65.2585C150.127 63.2301 150.519 61.4574 151.304 59.9403C152.088 58.4148 153.2 57.2301 154.64 56.3864C156.089 55.5341 157.806 55.108 159.792 55.108C161.778 55.108 163.491 55.5341 164.931 56.3864C166.38 57.2301 167.497 58.4148 168.281 59.9403C169.065 61.4574 169.457 63.2301 169.457 65.2585C169.457 67.2699 169.065 69.0384 168.281 70.5639C167.497 72.081 166.38 73.2656 164.931 74.1179C163.491 74.9616 161.778 75.3835 159.792 75.3835ZM159.818 71.1648C160.721 71.1648 161.475 70.9091 162.081 70.3977C162.686 69.8778 163.142 69.1705 163.448 68.2756C163.764 67.3807 163.921 66.3622 163.921 65.2202C163.921 64.0781 163.764 63.0597 163.448 62.1648C163.142 61.2699 162.686 60.5625 162.081 60.0426C161.475 59.5227 160.721 59.2628 159.818 59.2628C158.906 59.2628 158.139 59.5227 157.517 60.0426C156.903 60.5625 156.438 61.2699 156.123 62.1648C155.816 63.0597 155.663 64.0781 155.663 65.2202C155.663 66.3622 155.816 67.3807 156.123 68.2756C156.438 69.1705 156.903 69.8778 157.517 70.3977C158.139 70.9091 158.906 71.1648 159.818 71.1648ZM169.657 59.6463V55.3636H187.452V59.6463H181.124V75H175.933V59.6463H169.657ZM197.559 75.3835C195.539 75.3835 193.801 74.9744 192.343 74.1562C190.894 73.3295 189.778 72.1619 188.994 70.6534C188.21 69.1364 187.818 67.3423 187.818 65.2713C187.818 63.2514 188.21 61.4787 188.994 59.9531C189.778 58.4276 190.882 57.2386 192.305 56.3864C193.737 55.5341 195.416 55.108 197.342 55.108C198.637 55.108 199.843 55.3168 200.96 55.7344C202.085 56.1435 203.065 56.7614 203.9 57.5881C204.744 58.4148 205.4 59.4545 205.869 60.7074C206.338 61.9517 206.572 63.4091 206.572 65.0795V66.5753H189.991V63.2003H201.446C201.446 62.4162 201.275 61.7216 200.934 61.1165C200.593 60.5114 200.12 60.0384 199.515 59.6974C198.919 59.348 198.224 59.1733 197.431 59.1733C196.605 59.1733 195.872 59.3651 195.232 59.7486C194.602 60.1236 194.107 60.6307 193.75 61.2699C193.392 61.9006 193.208 62.6037 193.2 63.3793V66.5881C193.2 67.5597 193.379 68.3991 193.737 69.1065C194.103 69.8139 194.619 70.3594 195.284 70.7429C195.948 71.1264 196.737 71.3182 197.649 71.3182C198.254 71.3182 198.808 71.233 199.311 71.0625C199.813 70.892 200.244 70.6364 200.602 70.2955C200.96 69.9545 201.232 69.5369 201.42 69.0426L206.457 69.375C206.201 70.5852 205.677 71.642 204.884 72.5455C204.1 73.4403 203.086 74.1392 201.842 74.642C200.606 75.1364 199.179 75.3835 197.559 75.3835ZM208.686 75V55.3636H214.132V62.983H215.666L221.01 55.3636H227.402L220.46 65.1051L227.479 75H221.01L216.165 68.0327H214.132V75H208.686ZM233.543 67.8153L240.612 55.3636H245.982V75H240.791V62.5099L233.747 75H228.34V55.3636H233.543V67.8153Z" fill="black"/>
<rect x="40" y="124" width="1000" height="295" rx="20" fill="#F7F7F7"/>
<path opacity="0.6" d="M67.4964 150.326H65.1058C65.0376 149.934 64.9119 149.587 64.7287 149.284C64.5455 148.977 64.3175 148.717 64.0447 148.504C63.772 148.291 63.4609 148.131 63.1115 148.025C62.7663 147.914 62.3935 147.859 61.9929 147.859C61.2813 147.859 60.6506 148.038 60.1009 148.396C59.5511 148.749 59.1207 149.269 58.8097 149.955C58.4986 150.637 58.343 151.47 58.343 152.455C58.343 153.456 58.4986 154.3 58.8097 154.986C59.125 155.668 59.5554 156.183 60.1009 156.533C60.6506 156.878 61.2791 157.05 61.9865 157.05C62.3786 157.05 62.745 156.999 63.0859 156.897C63.4311 156.79 63.7401 156.635 64.0128 156.43C64.2898 156.226 64.522 155.974 64.7095 155.676C64.9013 155.378 65.0334 155.037 65.1058 154.653L67.4964 154.666C67.407 155.288 67.2131 155.872 66.9148 156.418C66.6207 156.963 66.2351 157.445 65.7578 157.862C65.2805 158.276 64.7223 158.599 64.0831 158.834C63.4439 159.064 62.7344 159.179 61.9545 159.179C60.804 159.179 59.777 158.913 58.8736 158.38C57.9702 157.847 57.2585 157.078 56.7386 156.072C56.2188 155.067 55.9588 153.861 55.9588 152.455C55.9588 151.044 56.2209 149.838 56.745 148.837C57.2692 147.831 57.983 147.062 58.8864 146.529C59.7898 145.996 60.8125 145.73 61.9545 145.73C62.6832 145.73 63.3608 145.832 63.9872 146.037C64.6136 146.241 65.1719 146.542 65.6619 146.938C66.152 147.33 66.5547 147.812 66.87 148.383C67.1896 148.95 67.3984 149.597 67.4964 150.326ZM70.8929 147.897V145.909H81.3375V147.897H77.2913V159H74.939V147.897H70.8929ZM85.25 159H82.7188L87.3275 145.909H90.255L94.8701 159H92.3388L88.8424 148.594H88.7401L85.25 159ZM85.3331 153.867H92.2365V155.772H85.3331V153.867ZM98.3943 159V145.909H100.766V151.451H106.832V145.909H109.21V159H106.832V153.439H100.766V159H98.3943ZM112.739 162.158V157.063H113.614C113.908 156.829 114.183 156.499 114.439 156.072C114.695 155.646 114.912 155.062 115.091 154.321C115.27 153.58 115.394 152.621 115.462 151.445L115.807 145.909H124.174V157.063H125.631V162.145H123.356V159H115.014V162.158H112.739ZM116.376 157.063H121.899V147.897H117.942L117.737 151.445C117.682 152.335 117.592 153.132 117.469 153.835C117.345 154.538 117.19 155.158 117.002 155.695C116.815 156.228 116.606 156.684 116.376 157.063ZM131.045 159H128.513L133.122 145.909H136.05L140.665 159H138.133L134.637 148.594H134.535L131.045 159ZM131.128 153.867H138.031V155.772H131.128V153.867ZM144.189 159V145.909H149.098C150.104 145.909 150.947 146.097 151.629 146.472C152.315 146.847 152.833 147.362 153.182 148.018C153.536 148.67 153.713 149.412 153.713 150.243C153.713 151.082 153.536 151.828 153.182 152.48C152.829 153.132 152.307 153.646 151.616 154.021C150.926 154.391 150.076 154.577 149.066 154.577H145.812V152.627H148.746C149.334 152.627 149.816 152.525 150.191 152.32C150.566 152.116 150.843 151.835 151.022 151.477C151.205 151.119 151.297 150.707 151.297 150.243C151.297 149.778 151.205 149.369 151.022 149.016C150.843 148.662 150.564 148.387 150.185 148.191C149.81 147.991 149.326 147.891 148.734 147.891H146.56V159H144.189ZM156.998 147.897V145.909H167.442V147.897H163.396V159H161.044V147.897H156.998ZM171.256 159V145.909H173.627V151.451H179.693V145.909H182.071V159H179.693V153.439H173.627V159H171.256ZM188.131 159H185.6L190.209 145.909H193.136L197.751 159H195.22L191.724 148.594H191.621L188.131 159ZM188.214 153.867H195.118V155.772H188.214V153.867ZM210.94 159H208.562V147.891H206.389C205.801 147.891 205.317 147.978 204.938 148.153C204.563 148.323 204.284 148.575 204.101 148.907C203.922 149.235 203.832 149.631 203.832 150.096C203.832 150.56 203.922 150.952 204.101 151.272C204.28 151.587 204.557 151.828 204.932 151.994C205.311 152.156 205.793 152.237 206.376 152.237H209.56V154.206H206.057C205.051 154.206 204.203 154.04 203.513 153.707C202.822 153.371 202.298 152.896 201.94 152.282C201.587 151.664 201.41 150.935 201.41 150.096C201.41 149.261 201.585 148.53 201.934 147.903C202.288 147.273 202.808 146.783 203.494 146.433C204.18 146.084 205.023 145.909 206.025 145.909H210.94V159ZM204.171 153.068H206.76L203.577 159H200.93L204.171 153.068Z" fill="black"/>
<path opacity="0.4" d="M1019.95 372.5H55V262L690 278.5C690 278.5 1014.39 224.867 1019.95 223.047V223C1020.05 223 1020.05 223.016 1019.95 223.047V372.5Z" fill="url(#paint0_linear_3375_3036)"/>
<rect x="1015.19" y="218" width="10.2717" height="10.2717" rx="5.13587" fill="#04B34A"/>
<path d="M1017.5 224L692.823 279.517C690.946 279.838 689.041 279.974 687.137 279.921L55 262.5" stroke="#04B34A" stroke-width="4"/>
<path d="M886.074 392.559V368.201L876.989 377.32L873 373.366L888.955 357.445L904.875 373.366L900.955 377.32L891.835 368.201V392.559H886.074Z" fill="#04B34A"/>
<path d="M916.871 385.864V380.051L931.445 357.091H936.457V365.136H933.491L924.303 379.676V379.949H945.013V385.864H916.871ZM933.627 392V384.091L933.763 381.517V357.091H940.684V392H933.627ZM956.743 387.227L956.555 389.102C956.408 390.602 956.124 392.097 955.703 393.585C955.294 395.085 954.862 396.443 954.408 397.659C953.964 398.875 953.607 399.83 953.334 400.523H948.629C948.8 399.852 949.033 398.915 949.328 397.71C949.624 396.517 949.902 395.176 950.163 393.688C950.425 392.199 950.589 390.682 950.658 389.136L950.743 387.227H956.743ZM973.65 357.091V392H966.269V364.097H966.065L958.07 369.108V362.562L966.712 357.091H973.65ZM1000.56 385.455V383.614C1000.56 382.216 1000.86 380.932 1001.45 379.761C1002.05 378.58 1002.92 377.636 1004.06 376.932C1005.2 376.216 1006.6 375.858 1008.25 375.858C1009.92 375.858 1011.32 376.21 1012.46 376.915C1013.61 377.619 1014.47 378.562 1015.05 379.744C1015.64 380.915 1015.94 382.205 1015.94 383.614V385.455C1015.94 386.852 1015.64 388.142 1015.05 389.324C1014.46 390.494 1013.59 391.432 1012.44 392.136C1011.3 392.852 1009.9 393.21 1008.25 393.21C1006.58 393.21 1005.18 392.852 1004.04 392.136C1002.9 391.432 1002.04 390.494 1001.45 389.324C1000.86 388.142 1000.56 386.852 1000.56 385.455ZM1005.52 383.614V385.455C1005.52 386.261 1005.72 387.023 1006.1 387.739C1006.5 388.455 1007.22 388.812 1008.25 388.812C1009.28 388.812 1009.99 388.46 1010.36 387.756C1010.75 387.051 1010.94 386.284 1010.94 385.455V383.614C1010.94 382.784 1010.76 382.011 1010.4 381.295C1010.03 380.58 1009.32 380.222 1008.25 380.222C1007.23 380.222 1006.52 380.58 1006.12 381.295C1005.72 382.011 1005.52 382.784 1005.52 383.614ZM982.648 365.477V363.636C982.648 362.227 982.949 360.937 983.551 359.767C984.153 358.585 985.023 357.642 986.159 356.938C987.307 356.233 988.693 355.881 990.318 355.881C992 355.881 993.409 356.233 994.545 356.938C995.682 357.642 996.545 358.585 997.136 359.767C997.727 360.937 998.023 362.227 998.023 363.636V365.477C998.023 366.886 997.722 368.176 997.119 369.347C996.528 370.517 995.659 371.455 994.511 372.159C993.375 372.852 991.977 373.199 990.318 373.199C988.659 373.199 987.256 372.847 986.108 372.142C984.972 371.426 984.108 370.489 983.517 369.33C982.938 368.159 982.648 366.875 982.648 365.477ZM987.642 363.636V365.477C987.642 366.307 987.835 367.074 988.222 367.778C988.619 368.483 989.318 368.835 990.318 368.835C991.364 368.835 992.074 368.483 992.449 367.778C992.835 367.074 993.028 366.307 993.028 365.477V363.636C993.028 362.807 992.847 362.034 992.483 361.318C992.119 360.602 991.398 360.244 990.318 360.244C989.307 360.244 988.608 360.608 988.222 361.335C987.835 362.062 987.642 362.83 987.642 363.636ZM984.898 392L1008.9 357.091H1013.36L989.364 392H984.898Z" fill="black"/>
<path d="M62.1094 248.219C61.0365 248.219 60.0781 248.034 59.2344 247.664C58.3958 247.294 57.7318 246.781 57.2422 246.125C56.7578 245.464 56.4974 244.698 56.4609 243.828H58.9141C58.9453 244.302 59.1042 244.714 59.3906 245.062C59.6823 245.406 60.0625 245.672 60.5313 245.859C61 246.047 61.5208 246.141 62.0938 246.141C62.724 246.141 63.2813 246.031 63.7656 245.812C64.2552 245.594 64.638 245.289 64.9141 244.898C65.1901 244.503 65.3281 244.047 65.3281 243.531C65.3281 242.995 65.1901 242.523 64.9141 242.117C64.6432 241.706 64.2448 241.383 63.7188 241.148C63.1979 240.914 62.5677 240.797 61.8281 240.797H60.4766V238.828H61.8281C62.4219 238.828 62.9427 238.721 63.3906 238.508C63.8438 238.294 64.1979 237.997 64.4531 237.617C64.7083 237.232 64.8359 236.781 64.8359 236.266C64.8359 235.771 64.724 235.341 64.5 234.977C64.2813 234.607 63.9688 234.318 63.5625 234.109C63.1615 233.901 62.6875 233.797 62.1406 233.797C61.6198 233.797 61.1328 233.893 60.6797 234.086C60.2318 234.273 59.8672 234.544 59.5859 234.898C59.3047 235.247 59.1536 235.667 59.1328 236.156H56.7969C56.8229 235.292 57.0781 234.531 57.5625 233.875C58.0521 233.219 58.6979 232.706 59.5 232.336C60.3021 231.966 61.1927 231.781 62.1719 231.781C63.1979 231.781 64.0833 231.982 64.8281 232.383C65.5781 232.779 66.1563 233.307 66.5625 233.969C66.974 234.63 67.1771 235.354 67.1719 236.141C67.1771 237.036 66.9271 237.797 66.4219 238.422C65.9219 239.047 65.2552 239.466 64.4219 239.68V239.805C65.4844 239.966 66.3073 240.388 66.8906 241.07C67.4792 241.753 67.7708 242.599 67.7656 243.609C67.7708 244.49 67.526 245.279 67.0312 245.977C66.5417 246.674 65.8724 247.224 65.0234 247.625C64.1745 248.021 63.2031 248.219 62.1094 248.219ZM75.7774 248.219C74.7983 248.219 73.9181 248.031 73.1368 247.656C72.3608 247.276 71.741 246.755 71.2774 246.094C70.8139 245.432 70.5665 244.677 70.5353 243.828H72.879C72.9363 244.516 73.241 245.081 73.7931 245.523C74.3452 245.966 75.0066 246.187 75.7774 246.187C76.392 246.187 76.9363 246.047 77.4103 245.766C77.8894 245.479 78.2644 245.086 78.5353 244.586C78.8113 244.086 78.9493 243.516 78.9493 242.875C78.9493 242.224 78.8087 241.643 78.5274 241.133C78.2462 240.622 77.8582 240.221 77.3634 239.93C76.8738 239.638 76.3113 239.49 75.6759 239.484C75.1915 239.484 74.7045 239.568 74.2149 239.734C73.7254 239.901 73.3295 240.12 73.0274 240.391L70.8165 240.062L71.7149 232H80.5118V234.07H73.7228L73.2149 238.547H73.3087C73.6212 238.245 74.0353 237.992 74.5509 237.789C75.0717 237.586 75.629 237.484 76.2228 237.484C77.1967 237.484 78.0639 237.716 78.8243 238.18C79.5899 238.643 80.1915 239.276 80.629 240.078C81.0717 240.875 81.2905 241.792 81.2853 242.828C81.2905 243.865 81.0561 244.789 80.5821 245.602C80.1134 246.414 79.4623 247.055 78.629 247.523C77.8009 247.987 76.8504 248.219 75.7774 248.219ZM86.4065 245.812L86.2893 246.664C86.2111 247.289 86.0783 247.94 85.8908 248.617C85.7085 249.299 85.5184 249.932 85.3205 250.516C85.1278 251.099 84.969 251.563 84.844 251.906H83.1877C83.2554 251.583 83.3492 251.146 83.469 250.594C83.5887 250.047 83.7059 249.435 83.8205 248.758C83.9351 248.081 84.021 247.391 84.0783 246.687L84.1565 245.812H86.4065ZM94.4417 248.219C93.3688 248.219 92.4105 248.034 91.5667 247.664C90.7282 247.294 90.0641 246.781 89.5745 246.125C89.0901 245.464 88.8297 244.698 88.7933 243.828H91.2464C91.2776 244.302 91.4365 244.714 91.723 245.062C92.0146 245.406 92.3948 245.672 92.8636 245.859C93.3323 246.047 93.8532 246.141 94.4261 246.141C95.0563 246.141 95.6136 246.031 96.098 245.812C96.5875 245.594 96.9704 245.289 97.2464 244.898C97.5224 244.503 97.6605 244.047 97.6605 243.531C97.6605 242.995 97.5224 242.523 97.2464 242.117C96.9756 241.706 96.5771 241.383 96.0511 241.148C95.5303 240.914 94.9 240.797 94.1605 240.797H92.8089V238.828H94.1605C94.7542 238.828 95.275 238.721 95.723 238.508C96.1761 238.294 96.5303 237.997 96.7855 237.617C97.0407 237.232 97.1683 236.781 97.1683 236.266C97.1683 235.771 97.0563 235.341 96.8323 234.977C96.6136 234.607 96.3011 234.318 95.8948 234.109C95.4938 233.901 95.0198 233.797 94.473 233.797C93.9521 233.797 93.4651 233.893 93.012 234.086C92.5641 234.273 92.1995 234.544 91.9183 234.898C91.637 235.247 91.486 235.667 91.4651 236.156H89.1292C89.1553 235.292 89.4105 234.531 89.8948 233.875C90.3844 233.219 91.0303 232.706 91.8323 232.336C92.6344 231.966 93.525 231.781 94.5042 231.781C95.5303 231.781 96.4157 231.982 97.1605 232.383C97.9105 232.779 98.4886 233.307 98.8948 233.969C99.3063 234.63 99.5094 235.354 99.5042 236.141C99.5094 237.036 99.2594 237.797 98.7542 238.422C98.2542 239.047 97.5875 239.466 96.7542 239.68V239.805C97.8167 239.966 98.6396 240.388 99.223 241.07C99.8115 241.753 100.103 242.599 100.098 243.609C100.103 244.49 99.8584 245.279 99.3636 245.977C98.874 246.674 98.2047 247.224 97.3558 247.625C96.5068 248.021 95.5355 248.219 94.4417 248.219Z" fill="#CFCFCF"/>
<path d="M980.459 205.219C979.386 205.219 978.427 205.034 977.584 204.664C976.745 204.294 976.081 203.781 975.591 203.125C975.107 202.464 974.847 201.698 974.81 200.828H977.263C977.295 201.302 977.453 201.714 977.74 202.062C978.032 202.406 978.412 202.672 978.881 202.859C979.349 203.047 979.87 203.141 980.443 203.141C981.073 203.141 981.631 203.031 982.115 202.812C982.605 202.594 982.987 202.289 983.263 201.898C983.539 201.503 983.677 201.047 983.677 200.531C983.677 199.995 983.539 199.523 983.263 199.117C982.993 198.706 982.594 198.383 982.068 198.148C981.547 197.914 980.917 197.797 980.177 197.797H978.826V195.828H980.177C980.771 195.828 981.292 195.721 981.74 195.508C982.193 195.294 982.547 194.997 982.802 194.617C983.058 194.232 983.185 193.781 983.185 193.266C983.185 192.771 983.073 192.341 982.849 191.977C982.631 191.607 982.318 191.318 981.912 191.109C981.511 190.901 981.037 190.797 980.49 190.797C979.969 190.797 979.482 190.893 979.029 191.086C978.581 191.273 978.216 191.544 977.935 191.898C977.654 192.247 977.503 192.667 977.482 193.156H975.146C975.172 192.292 975.427 191.531 975.912 190.875C976.401 190.219 977.047 189.706 977.849 189.336C978.651 188.966 979.542 188.781 980.521 188.781C981.547 188.781 982.433 188.982 983.177 189.383C983.927 189.779 984.506 190.307 984.912 190.969C985.323 191.63 985.526 192.354 985.521 193.141C985.526 194.036 985.276 194.797 984.771 195.422C984.271 196.047 983.605 196.466 982.771 196.68V196.805C983.834 196.966 984.657 197.388 985.24 198.07C985.828 198.753 986.12 199.599 986.115 200.609C986.12 201.49 985.875 202.279 985.381 202.977C984.891 203.674 984.222 204.224 983.373 204.625C982.524 205.021 981.552 205.219 980.459 205.219ZM994.166 188.781C994.879 188.786 995.582 188.917 996.275 189.172C996.968 189.427 997.593 189.844 998.15 190.422C998.713 191 999.161 191.781 999.494 192.766C999.832 193.745 1000 194.964 1000.01 196.422C1000.01 197.823 999.869 199.07 999.588 200.164C999.306 201.253 998.903 202.172 998.377 202.922C997.856 203.672 997.223 204.242 996.478 204.633C995.734 205.023 994.895 205.219 993.963 205.219C993.01 205.219 992.163 205.031 991.424 204.656C990.684 204.281 990.082 203.763 989.619 203.102C989.155 202.435 988.866 201.669 988.752 200.805H991.135C991.291 201.492 991.609 202.049 992.088 202.477C992.572 202.898 993.197 203.109 993.963 203.109C995.135 203.109 996.049 202.599 996.705 201.578C997.361 200.552 997.692 199.12 997.697 197.281H997.572C997.301 197.729 996.963 198.115 996.556 198.437C996.155 198.76 995.705 199.01 995.205 199.187C994.705 199.365 994.171 199.453 993.603 199.453C992.681 199.453 991.843 199.227 991.088 198.773C990.332 198.32 989.731 197.698 989.283 196.906C988.835 196.115 988.611 195.211 988.611 194.195C988.611 193.185 988.84 192.268 989.299 191.445C989.762 190.622 990.408 189.971 991.236 189.492C992.069 189.008 993.046 188.771 994.166 188.781ZM994.174 190.812C993.564 190.812 993.015 190.964 992.525 191.266C992.041 191.562 991.658 191.966 991.377 192.477C991.096 192.982 990.955 193.544 990.955 194.164C990.955 194.784 991.09 195.346 991.361 195.852C991.637 196.352 992.012 196.75 992.486 197.047C992.965 197.339 993.512 197.484 994.127 197.484C994.585 197.484 995.012 197.396 995.408 197.219C995.804 197.042 996.15 196.797 996.447 196.484C996.744 196.167 996.976 195.807 997.142 195.406C997.309 195.005 997.392 194.583 997.392 194.141C997.392 193.552 997.252 193.005 996.971 192.5C996.694 191.995 996.314 191.589 995.83 191.281C995.346 190.969 994.793 190.812 994.174 190.812ZM1005.1 202.812L1004.98 203.664C1004.9 204.289 1004.77 204.94 1004.58 205.617C1004.4 206.299 1004.21 206.932 1004.01 207.516C1003.82 208.099 1003.66 208.563 1003.54 208.906H1001.88C1001.95 208.583 1002.04 208.146 1002.16 207.594C1002.28 207.047 1002.4 206.435 1002.51 205.758C1002.63 205.081 1002.71 204.391 1002.77 203.687L1002.85 202.812H1005.1ZM1007.81 201.875V199.922L1014.72 189H1016.26V191.875H1015.29L1010.34 199.703V199.828H1019.82V201.875H1007.81ZM1015.39 205V201.281L1015.41 200.391V189H1017.7V205H1015.39Z" fill="#CFCFCF"/>
<rect x="40" y="437" width="491" height="295" rx="20" fill="#F7F7F7"/>
<path opacity="0.6" d="M67.4964 463.326H65.1058C65.0376 462.934 64.9119 462.587 64.7287 462.284C64.5455 461.977 64.3175 461.717 64.0447 461.504C63.772 461.291 63.4609 461.131 63.1115 461.025C62.7663 460.914 62.3935 460.859 61.9929 460.859C61.2813 460.859 60.6506 461.038 60.1009 461.396C59.5511 461.749 59.1207 462.269 58.8097 462.955C58.4986 463.637 58.343 464.47 58.343 465.455C58.343 466.456 58.4986 467.3 58.8097 467.986C59.125 468.668 59.5554 469.183 60.1009 469.533C60.6506 469.878 61.2791 470.05 61.9865 470.05C62.3786 470.05 62.745 469.999 63.0859 469.897C63.4311 469.79 63.7401 469.635 64.0128 469.43C64.2898 469.226 64.522 468.974 64.7095 468.676C64.9013 468.378 65.0334 468.037 65.1058 467.653L67.4964 467.666C67.407 468.288 67.2131 468.872 66.9148 469.418C66.6207 469.963 66.2351 470.445 65.7578 470.862C65.2805 471.276 64.7223 471.599 64.0831 471.834C63.4439 472.064 62.7344 472.179 61.9545 472.179C60.804 472.179 59.777 471.913 58.8736 471.38C57.9702 470.847 57.2585 470.078 56.7386 469.072C56.2188 468.067 55.9588 466.861 55.9588 465.455C55.9588 464.044 56.2209 462.838 56.745 461.837C57.2692 460.831 57.983 460.062 58.8864 459.529C59.7898 458.996 60.8125 458.73 61.9545 458.73C62.6832 458.73 63.3608 458.832 63.9872 459.037C64.6136 459.241 65.1719 459.542 65.6619 459.938C66.152 460.33 66.5547 460.812 66.87 461.383C67.1896 461.95 67.3984 462.597 67.4964 463.326ZM71.4681 472V458.909H79.9824V460.897H73.8396V464.451H79.5413V466.439H73.8396V470.012H80.0335V472H71.4681ZM84.2017 458.909H87.1037L90.9901 468.395H91.1435L95.0299 458.909H97.9319V472H95.6563V463.006H95.5348L91.9169 471.962H90.2167L86.5988 462.987H86.4773V472H84.2017V458.909ZM102.314 472V458.909H110.828V460.897H104.686V464.451H110.387V466.439H104.686V470.012H110.88V472H102.314ZM115.048 458.909H117.4V467.832H117.522L123.677 458.909H125.806V472H123.434V463.083H123.326L117.151 472H115.048V458.909ZM121.696 455.534H123.428C123.428 456.28 123.157 456.885 122.616 457.349C122.079 457.81 121.35 458.04 120.43 458.04C119.518 458.04 118.791 457.81 118.25 457.349C117.713 456.885 117.447 456.28 117.451 455.534H119.171C119.171 455.841 119.264 456.116 119.452 456.359C119.644 456.597 119.97 456.717 120.43 456.717C120.882 456.717 121.203 456.597 121.395 456.359C121.591 456.12 121.691 455.845 121.696 455.534ZM130.19 472V458.909H132.561V464.451H138.627V458.909H141.005V472H138.627V466.439H132.561V472H130.19ZM147.065 472H144.534L149.143 458.909H152.07L156.685 472H154.154L150.658 461.594H150.555L147.065 472ZM147.148 466.867H154.052V468.772H147.148V466.867ZM169.874 472H167.496V460.891H165.323C164.735 460.891 164.251 460.978 163.872 461.153C163.497 461.323 163.218 461.575 163.035 461.907C162.856 462.235 162.766 462.631 162.766 463.096C162.766 463.56 162.856 463.952 163.035 464.272C163.214 464.587 163.491 464.828 163.866 464.994C164.245 465.156 164.727 465.237 165.31 465.237H168.494V467.206H164.991C163.985 467.206 163.137 467.04 162.447 466.707C161.756 466.371 161.232 465.896 160.874 465.282C160.521 464.664 160.344 463.935 160.344 463.096C160.344 462.261 160.518 461.53 160.868 460.903C161.222 460.273 161.742 459.783 162.428 459.433C163.114 459.084 163.957 458.909 164.959 458.909H169.874V472ZM163.105 466.068H165.694L162.511 472H159.864L163.105 466.068Z" fill="black"/>
<path opacity="0.4" d="M55 685.5H510.991V597H353L55 528.5V685.5Z" fill="url(#paint1_linear_3375_3036)"/>
<rect x="506.188" y="592" width="10.2717" height="10.2717" rx="5.13587" fill="#CACACA"/>
<path d="M511.5 597.5H357.303C355.108 597.5 352.92 597.251 350.782 596.757L55 528.5" stroke="#CACACA" stroke-width="4"/>
<path d="M371.801 670.441L371.801 694.799L380.886 685.68L384.875 689.634L368.92 705.555L353 689.634L356.92 685.68L366.04 694.799L366.04 670.441L371.801 670.441Z" fill="#CACACA"/>
<path d="M396.762 698.864V693.051L411.336 670.091H416.347V678.136H413.381L404.194 692.676V692.949H424.904V698.864H396.762ZM413.518 705V697.091L413.654 694.517V670.091H420.575V705H413.518ZM436.634 700.227L436.446 702.102C436.298 703.602 436.014 705.097 435.594 706.585C435.185 708.085 434.753 709.443 434.298 710.659C433.855 711.875 433.497 712.83 433.224 713.523H428.52C428.69 712.852 428.923 711.915 429.219 710.71C429.514 709.517 429.793 708.176 430.054 706.688C430.315 705.199 430.48 703.682 430.548 702.136L430.634 700.227H436.634ZM442.712 705V699.682L455.138 688.176C456.195 687.153 457.082 686.233 457.798 685.415C458.525 684.597 459.076 683.795 459.451 683.011C459.826 682.216 460.013 681.358 460.013 680.438C460.013 679.415 459.781 678.534 459.315 677.795C458.849 677.045 458.212 676.472 457.406 676.074C456.599 675.665 455.684 675.46 454.661 675.46C453.593 675.46 452.661 675.676 451.866 676.108C451.07 676.54 450.457 677.159 450.025 677.966C449.593 678.773 449.377 679.733 449.377 680.847H442.371C442.371 678.562 442.888 676.58 443.923 674.898C444.957 673.216 446.406 671.915 448.269 670.994C450.133 670.074 452.281 669.614 454.712 669.614C457.212 669.614 459.388 670.057 461.241 670.943C463.104 671.818 464.553 673.034 465.587 674.591C466.621 676.148 467.138 677.932 467.138 679.943C467.138 681.261 466.877 682.562 466.354 683.847C465.843 685.131 464.928 686.557 463.61 688.125C462.292 689.682 460.434 691.551 458.036 693.733L452.94 698.727V698.966H467.599V705H442.712ZM491.562 698.455V696.614C491.562 695.216 491.858 693.932 492.449 692.761C493.051 691.58 493.92 690.636 495.057 689.932C496.205 689.216 497.602 688.858 499.25 688.858C500.92 688.858 502.324 689.21 503.46 689.915C504.608 690.619 505.472 691.562 506.051 692.744C506.642 693.915 506.938 695.205 506.938 696.614V698.455C506.938 699.852 506.642 701.142 506.051 702.324C505.46 703.494 504.591 704.432 503.443 705.136C502.295 705.852 500.898 706.21 499.25 706.21C497.58 706.21 496.176 705.852 495.04 705.136C493.903 704.432 493.04 703.494 492.449 702.324C491.858 701.142 491.562 699.852 491.562 698.455ZM496.523 696.614V698.455C496.523 699.261 496.716 700.023 497.102 700.739C497.5 701.455 498.216 701.812 499.25 701.812C500.284 701.812 500.989 701.46 501.364 700.756C501.75 700.051 501.943 699.284 501.943 698.455V696.614C501.943 695.784 501.761 695.011 501.398 694.295C501.034 693.58 500.318 693.222 499.25 693.222C498.227 693.222 497.517 693.58 497.119 694.295C496.722 695.011 496.523 695.784 496.523 696.614ZM473.648 678.477V676.636C473.648 675.227 473.949 673.937 474.551 672.767C475.153 671.585 476.023 670.642 477.159 669.938C478.307 669.233 479.693 668.881 481.318 668.881C483 668.881 484.409 669.233 485.545 669.938C486.682 670.642 487.545 671.585 488.136 672.767C488.727 673.937 489.023 675.227 489.023 676.636V678.477C489.023 679.886 488.722 681.176 488.119 682.347C487.528 683.517 486.659 684.455 485.511 685.159C484.375 685.852 482.977 686.199 481.318 686.199C479.659 686.199 478.256 685.847 477.108 685.142C475.972 684.426 475.108 683.489 474.517 682.33C473.938 681.159 473.648 679.875 473.648 678.477ZM478.642 676.636V678.477C478.642 679.307 478.835 680.074 479.222 680.778C479.619 681.483 480.318 681.835 481.318 681.835C482.364 681.835 483.074 681.483 483.449 680.778C483.835 680.074 484.028 679.307 484.028 678.477V676.636C484.028 675.807 483.847 675.034 483.483 674.318C483.119 673.602 482.398 673.244 481.318 673.244C480.307 673.244 479.608 673.608 479.222 674.335C478.835 675.062 478.642 675.83 478.642 676.636ZM475.898 705L499.898 670.091H504.364L480.364 705H475.898Z" fill="black"/>
<path d="M62.125 514.219C61.4115 514.208 60.7083 514.078 60.0156 513.828C59.3281 513.578 58.7031 513.161 58.1406 512.578C57.5781 511.995 57.1276 511.211 56.7891 510.227C56.4557 509.242 56.2891 508.013 56.2891 506.539C56.2891 505.143 56.4271 503.904 56.7031 502.82C56.9844 501.737 57.388 500.823 57.9141 500.078C58.4401 499.328 59.0755 498.758 59.8203 498.367C60.5651 497.977 61.401 497.781 62.3281 497.781C63.2813 497.781 64.1276 497.969 64.8672 498.344C65.6068 498.719 66.2057 499.237 66.6641 499.898C67.1276 500.56 67.4219 501.312 67.5469 502.156H65.1641C65.0026 501.49 64.6823 500.945 64.2031 500.523C63.724 500.102 63.099 499.891 62.3281 499.891C61.1563 499.891 60.2422 500.401 59.5859 501.422C58.9349 502.443 58.6068 503.862 58.6016 505.68H58.7188C58.9948 505.227 59.3333 504.841 59.7344 504.523C60.1406 504.201 60.5938 503.953 61.0938 503.781C61.599 503.604 62.1302 503.516 62.6875 503.516C63.6146 503.516 64.4531 503.742 65.2031 504.195C65.9583 504.643 66.5599 505.263 67.0078 506.055C67.4557 506.846 67.6797 507.753 67.6797 508.773C67.6797 509.794 67.4479 510.719 66.9844 511.547C66.526 512.375 65.8802 513.031 65.0469 513.516C64.2135 513.995 63.2396 514.229 62.125 514.219ZM62.1172 512.187C62.7318 512.187 63.2813 512.036 63.7656 511.734C64.25 511.432 64.6328 511.026 64.9141 510.516C65.1953 510.005 65.3359 509.435 65.3359 508.805C65.3359 508.19 65.1979 507.63 64.9219 507.125C64.651 506.62 64.276 506.219 63.7969 505.922C63.3229 505.625 62.7813 505.477 62.1719 505.477C61.7083 505.477 61.2786 505.565 60.8828 505.742C60.4922 505.919 60.1484 506.164 59.8516 506.477C59.5547 506.789 59.3203 507.148 59.1484 507.555C58.9818 507.956 58.8984 508.38 58.8984 508.828C58.8984 509.427 59.0365 509.982 59.3125 510.492C59.5938 511.003 59.9766 511.414 60.4609 511.727C60.9505 512.034 61.5026 512.187 62.1172 512.187ZM76.3731 498V514H73.9513V500.422H73.8575L70.0294 502.922V500.609L74.0216 498H76.3731ZM82.6252 511.812L82.508 512.664C82.4299 513.289 82.2971 513.94 82.1096 514.617C81.9273 515.299 81.7372 515.932 81.5393 516.516C81.3466 517.099 81.1877 517.563 81.0627 517.906H79.4065C79.4742 517.583 79.5679 517.146 79.6877 516.594C79.8075 516.047 79.9247 515.435 80.0393 514.758C80.1539 514.081 80.2398 513.391 80.2971 512.687L80.3752 511.812H82.6252ZM90.6605 514.266C89.4261 514.26 88.3714 513.935 87.4964 513.289C86.6214 512.643 85.9521 511.703 85.4886 510.469C85.025 509.234 84.7933 507.747 84.7933 506.008C84.7933 504.273 85.025 502.792 85.4886 501.562C85.9573 500.333 86.6292 499.396 87.5042 498.75C88.3844 498.104 89.4365 497.781 90.6605 497.781C91.8844 497.781 92.9339 498.107 93.8089 498.758C94.6839 499.404 95.3532 500.341 95.8167 501.57C96.2855 502.794 96.5198 504.273 96.5198 506.008C96.5198 507.753 96.2881 509.242 95.8245 510.477C95.361 511.706 94.6917 512.646 93.8167 513.297C92.9417 513.943 91.8896 514.266 90.6605 514.266ZM90.6605 512.18C91.7438 512.18 92.5901 511.651 93.1995 510.594C93.8141 509.536 94.1214 508.008 94.1214 506.008C94.1214 504.68 93.9808 503.557 93.6995 502.641C93.4235 501.719 93.025 501.021 92.5042 500.547C91.9886 500.068 91.374 499.828 90.6605 499.828C89.5823 499.828 88.736 500.359 88.1214 501.422C87.5068 502.484 87.1969 504.013 87.1917 506.008C87.1917 507.341 87.3297 508.469 87.6058 509.391C87.887 510.307 88.2855 511.003 88.8011 511.477C89.3167 511.945 89.9365 512.18 90.6605 512.18Z" fill="#CFCFCF"/>
<path d="M472.888 579.219C471.909 579.219 471.029 579.031 470.248 578.656C469.472 578.276 468.852 577.755 468.388 577.094C467.925 576.432 467.677 575.677 467.646 574.828H469.99C470.047 575.516 470.352 576.081 470.904 576.523C471.456 576.966 472.118 577.187 472.888 577.187C473.503 577.187 474.047 577.047 474.521 576.766C475 576.479 475.375 576.086 475.646 575.586C475.922 575.086 476.06 574.516 476.06 573.875C476.06 573.224 475.92 572.643 475.638 572.133C475.357 571.622 474.969 571.221 474.474 570.93C473.985 570.638 473.422 570.49 472.787 570.484C472.302 570.484 471.815 570.568 471.326 570.734C470.836 570.901 470.44 571.12 470.138 571.391L467.927 571.062L468.826 563H477.623V565.07H470.834L470.326 569.547H470.42C470.732 569.245 471.146 568.992 471.662 568.789C472.183 568.586 472.74 568.484 473.334 568.484C474.308 568.484 475.175 568.716 475.935 569.18C476.701 569.643 477.302 570.276 477.74 571.078C478.183 571.875 478.401 572.792 478.396 573.828C478.401 574.865 478.167 575.789 477.693 576.602C477.224 577.414 476.573 578.055 475.74 578.523C474.912 578.987 473.961 579.219 472.888 579.219ZM486.613 579.219C485.9 579.208 485.196 579.078 484.504 578.828C483.816 578.578 483.191 578.161 482.629 577.578C482.066 576.995 481.616 576.211 481.277 575.227C480.944 574.242 480.777 573.013 480.777 571.539C480.777 570.143 480.915 568.904 481.191 567.82C481.472 566.737 481.876 565.823 482.402 565.078C482.928 564.328 483.564 563.758 484.308 563.367C485.053 562.977 485.889 562.781 486.816 562.781C487.769 562.781 488.616 562.969 489.355 563.344C490.095 563.719 490.694 564.237 491.152 564.898C491.616 565.56 491.91 566.312 492.035 567.156H489.652C489.491 566.49 489.17 565.945 488.691 565.523C488.212 565.102 487.587 564.891 486.816 564.891C485.644 564.891 484.73 565.401 484.074 566.422C483.423 567.443 483.095 568.862 483.09 570.68H483.207C483.483 570.227 483.821 569.841 484.222 569.523C484.629 569.201 485.082 568.953 485.582 568.781C486.087 568.604 486.618 568.516 487.176 568.516C488.103 568.516 488.941 568.742 489.691 569.195C490.446 569.643 491.048 570.263 491.496 571.055C491.944 571.846 492.168 572.753 492.168 573.773C492.168 574.794 491.936 575.719 491.472 576.547C491.014 577.375 490.368 578.031 489.535 578.516C488.702 578.995 487.728 579.229 486.613 579.219ZM486.605 577.187C487.22 577.187 487.769 577.036 488.254 576.734C488.738 576.432 489.121 576.026 489.402 575.516C489.683 575.005 489.824 574.435 489.824 573.805C489.824 573.19 489.686 572.63 489.41 572.125C489.139 571.62 488.764 571.219 488.285 570.922C487.811 570.625 487.269 570.477 486.66 570.477C486.196 570.477 485.767 570.565 485.371 570.742C484.98 570.919 484.637 571.164 484.34 571.477C484.043 571.789 483.808 572.148 483.637 572.555C483.47 572.956 483.387 573.38 483.387 573.828C483.387 574.427 483.525 574.982 483.801 575.492C484.082 576.003 484.465 576.414 484.949 576.727C485.439 577.034 485.991 577.187 486.605 577.187ZM497.131 576.812L497.014 577.664C496.935 578.289 496.803 578.94 496.615 579.617C496.433 580.299 496.243 580.932 496.045 581.516C495.852 582.099 495.693 582.563 495.568 582.906H493.912C493.98 582.583 494.073 582.146 494.193 581.594C494.313 581.047 494.43 580.435 494.545 579.758C494.659 579.081 494.745 578.391 494.803 577.687L494.881 576.812H497.131ZM505.045 579.219C503.925 579.219 502.936 579.026 502.076 578.641C501.222 578.255 500.553 577.724 500.068 577.047C499.584 576.37 499.344 575.599 499.35 574.734C499.344 574.057 499.482 573.435 499.764 572.867C500.05 572.294 500.438 571.818 500.928 571.438C501.417 571.052 501.964 570.807 502.568 570.703V570.609C501.771 570.417 501.133 569.99 500.654 569.328C500.175 568.667 499.938 567.906 499.943 567.047C499.938 566.229 500.154 565.5 500.592 564.859C501.035 564.214 501.641 563.706 502.412 563.336C503.183 562.966 504.061 562.781 505.045 562.781C506.019 562.781 506.889 562.969 507.654 563.344C508.425 563.714 509.032 564.221 509.475 564.867C509.917 565.508 510.141 566.234 510.146 567.047C510.141 567.906 509.896 568.667 509.412 569.328C508.928 569.99 508.298 570.417 507.521 570.609V570.703C508.12 570.807 508.66 571.052 509.139 571.438C509.623 571.818 510.008 572.294 510.295 572.867C510.587 573.435 510.735 574.057 510.74 574.734C510.735 575.599 510.49 576.37 510.006 577.047C509.521 577.724 508.85 578.255 507.99 578.641C507.136 579.026 506.154 579.219 505.045 579.219ZM505.045 577.242C505.706 577.242 506.279 577.133 506.764 576.914C507.248 576.69 507.623 576.38 507.889 575.984C508.154 575.583 508.29 575.115 508.295 574.578C508.29 574.021 508.144 573.529 507.857 573.102C507.576 572.674 507.193 572.339 506.709 572.094C506.225 571.849 505.67 571.727 505.045 571.727C504.415 571.727 503.855 571.849 503.365 572.094C502.876 572.339 502.49 572.674 502.209 573.102C501.928 573.529 501.79 574.021 501.795 574.578C501.79 575.115 501.917 575.583 502.178 575.984C502.443 576.38 502.821 576.69 503.311 576.914C503.8 577.133 504.378 577.242 505.045 577.242ZM505.045 569.797C505.576 569.797 506.048 569.69 506.459 569.477C506.87 569.263 507.193 568.966 507.428 568.586C507.667 568.206 507.79 567.76 507.795 567.25C507.79 566.75 507.67 566.313 507.436 565.938C507.206 565.562 506.886 565.273 506.475 565.07C506.063 564.862 505.587 564.758 505.045 564.758C504.493 564.758 504.008 564.862 503.592 565.07C503.18 565.273 502.86 565.562 502.631 565.938C502.402 566.313 502.29 566.75 502.295 567.25C502.29 567.76 502.404 568.206 502.639 568.586C502.873 568.966 503.196 569.263 503.607 569.477C504.024 569.69 504.503 569.797 505.045 569.797Z" fill="#CFCFCF"/>
<rect x="40" y="750" width="491" height="295" rx="20" fill="#F7F7F7"/>
<path opacity="0.6" d="M56.2912 782V768.909H61.3026C62.2486 768.909 63.0348 769.058 63.6612 769.357C64.2919 769.651 64.7628 770.053 65.0739 770.565C65.3892 771.076 65.5469 771.656 65.5469 772.303C65.5469 772.836 65.4446 773.292 65.2401 773.671C65.0355 774.046 64.7607 774.351 64.4155 774.585C64.0703 774.82 63.6847 774.988 63.2585 775.09V775.218C63.723 775.244 64.1683 775.386 64.5945 775.646C65.0249 775.902 65.3764 776.264 65.6491 776.733C65.9219 777.202 66.0582 777.768 66.0582 778.433C66.0582 779.111 65.8942 779.72 65.5661 780.261C65.2379 780.798 64.7436 781.222 64.0831 781.533C63.4226 781.844 62.5916 782 61.5902 782H56.2912ZM58.6626 780.018H61.2131C62.0739 780.018 62.6939 779.854 63.0732 779.526C63.4567 779.194 63.6484 778.768 63.6484 778.248C63.6484 777.86 63.5526 777.511 63.3608 777.2C63.169 776.884 62.8963 776.637 62.5426 776.458C62.1889 776.275 61.767 776.183 61.277 776.183H58.6626V780.018ZM58.6626 774.477H61.0085C61.4176 774.477 61.7862 774.402 62.1143 774.253C62.4425 774.099 62.7003 773.884 62.8878 773.607C63.0795 773.326 63.1754 772.994 63.1754 772.61C63.1754 772.103 62.9964 771.685 62.6385 771.357C62.2848 771.029 61.7585 770.865 61.0597 770.865H58.6626V774.477ZM81.6187 775.455C81.6187 776.865 81.3545 778.073 80.8261 779.079C80.302 780.08 79.586 780.847 78.6784 781.38C77.775 781.913 76.7501 782.179 75.6038 782.179C74.4575 782.179 73.4305 781.913 72.5228 781.38C71.6194 780.843 70.9035 780.074 70.3751 779.072C69.851 778.067 69.5889 776.861 69.5889 775.455C69.5889 774.044 69.851 772.838 70.3751 771.837C70.9035 770.831 71.6194 770.062 72.5228 769.529C73.4305 768.996 74.4575 768.73 75.6038 768.73C76.7501 768.73 77.775 768.996 78.6784 769.529C79.586 770.062 80.302 770.831 80.8261 771.837C81.3545 772.838 81.6187 774.044 81.6187 775.455ZM79.2345 775.455C79.2345 774.462 79.0789 773.624 78.7679 772.942C78.461 772.256 78.0349 771.739 77.4895 771.389C76.944 771.036 76.3154 770.859 75.6038 770.859C74.8922 770.859 74.2636 771.036 73.7181 771.389C73.1727 771.739 72.7444 772.256 72.4333 772.942C72.1265 773.624 71.9731 774.462 71.9731 775.455C71.9731 776.447 72.1265 777.287 72.4333 777.973C72.7444 778.655 73.1727 779.173 73.7181 779.526C74.2636 779.876 74.8922 780.05 75.6038 780.05C76.3154 780.05 76.944 779.876 77.4895 779.526C78.0349 779.173 78.461 778.655 78.7679 777.973C79.0789 777.287 79.2345 776.447 79.2345 775.455ZM85.6607 782V768.909H94.1749V770.897H88.0322V774.451H93.7339V776.439H88.0322V780.012H94.2261V782H85.6607ZM98.3943 782V768.909H100.766V774.451H106.832V768.909H109.21V782H106.832V776.439H100.766V782H98.3943ZM113.589 782V768.909H115.96V774.451H122.026V768.909H124.404V782H122.026V776.439H115.96V782H113.589ZM130.464 782H127.933L132.542 768.909H135.469L140.085 782H137.553L134.057 771.594H133.955L130.464 782ZM130.548 776.867H137.451V778.772H130.548V776.867ZM153.274 782H150.896V770.891H148.722C148.134 770.891 147.651 770.978 147.271 771.153C146.896 771.323 146.617 771.575 146.434 771.907C146.255 772.235 146.166 772.631 146.166 773.096C146.166 773.56 146.255 773.952 146.434 774.272C146.613 774.587 146.89 774.828 147.265 774.994C147.644 775.156 148.126 775.237 148.71 775.237H151.893V777.206H148.39C147.384 777.206 146.536 777.04 145.846 776.707C145.156 776.371 144.632 775.896 144.274 775.282C143.92 774.664 143.743 773.935 143.743 773.096C143.743 772.261 143.918 771.53 144.267 770.903C144.621 770.273 145.141 769.783 145.827 769.433C146.513 769.084 147.357 768.909 148.358 768.909H153.274V782ZM146.504 776.068H149.093L145.91 782H143.264L146.504 776.068Z" fill="black"/>
<path opacity="0.4" d="M511.016 998.5H55.0245V886.5H511.016V998.5Z" fill="url(#paint2_linear_3375_3036)"/>
<rect x="506.188" y="881" width="10.2717" height="10.2717" rx="5.13587" fill="#CACACA"/>
<path d="M55.5 886.5H511.5" stroke="#CACACA" stroke-width="4"/>
<path d="M453.587 1018.77C450.656 1018.76 448.133 1018.03 446.019 1016.6C443.917 1015.17 442.298 1013.1 441.161 1010.38C440.036 1007.66 439.479 1004.4 439.491 1000.58C439.491 996.773 440.053 993.528 441.178 990.847C442.315 988.165 443.934 986.125 446.036 984.727C448.15 983.318 450.667 982.614 453.587 982.614C456.508 982.614 459.019 983.318 461.121 984.727C463.235 986.136 464.86 988.182 465.996 990.864C467.133 993.534 467.695 996.773 467.684 1000.58C467.684 1004.41 467.116 1007.68 465.979 1010.4C464.854 1013.11 463.241 1015.19 461.138 1016.62C459.036 1018.05 456.519 1018.77 453.587 1018.77ZM453.587 1012.65C455.587 1012.65 457.184 1011.64 458.377 1009.63C459.57 1007.62 460.161 1004.6 460.15 1000.58C460.15 997.932 459.877 995.727 459.332 993.966C458.798 992.205 458.036 990.881 457.048 989.994C456.07 989.108 454.917 988.665 453.587 988.665C451.599 988.665 450.008 989.659 448.815 991.648C447.621 993.636 447.019 996.614 447.008 1000.58C447.008 1003.26 447.275 1005.5 447.809 1007.3C448.354 1009.08 449.121 1010.42 450.11 1011.32C451.099 1012.2 452.258 1012.65 453.587 1012.65ZM491.562 1011.45V1009.61C491.562 1008.22 491.858 1006.93 492.449 1005.76C493.051 1004.58 493.92 1003.64 495.057 1002.93C496.205 1002.22 497.602 1001.86 499.25 1001.86C500.92 1001.86 502.324 1002.21 503.46 1002.91C504.608 1003.62 505.472 1004.56 506.051 1005.74C506.642 1006.91 506.938 1008.2 506.938 1009.61V1011.45C506.938 1012.85 506.642 1014.14 506.051 1015.32C505.46 1016.49 504.591 1017.43 503.443 1018.14C502.295 1018.85 500.898 1019.21 499.25 1019.21C497.58 1019.21 496.176 1018.85 495.04 1018.14C493.903 1017.43 493.04 1016.49 492.449 1015.32C491.858 1014.14 491.562 1012.85 491.562 1011.45ZM496.523 1009.61V1011.45C496.523 1012.26 496.716 1013.02 497.102 1013.74C497.5 1014.45 498.216 1014.81 499.25 1014.81C500.284 1014.81 500.989 1014.46 501.364 1013.76C501.75 1013.05 501.943 1012.28 501.943 1011.45V1009.61C501.943 1008.78 501.761 1008.01 501.398 1007.3C501.034 1006.58 500.318 1006.22 499.25 1006.22C498.227 1006.22 497.517 1006.58 497.119 1007.3C496.722 1008.01 496.523 1008.78 496.523 1009.61ZM473.648 991.477V989.636C473.648 988.227 473.949 986.937 474.551 985.767C475.153 984.585 476.023 983.642 477.159 982.938C478.307 982.233 479.693 981.881 481.318 981.881C483 981.881 484.409 982.233 485.545 982.938C486.682 983.642 487.545 984.585 488.136 985.767C488.727 986.937 489.023 988.227 489.023 989.636V991.477C489.023 992.886 488.722 994.176 488.119 995.347C487.528 996.517 486.659 997.455 485.511 998.159C484.375 998.852 482.977 999.199 481.318 999.199C479.659 999.199 478.256 998.847 477.108 998.142C475.972 997.426 475.108 996.489 474.517 995.33C473.938 994.159 473.648 992.875 473.648 991.477ZM478.642 989.636V991.477C478.642 992.307 478.835 993.074 479.222 993.778C479.619 994.483 480.318 994.835 481.318 994.835C482.364 994.835 483.074 994.483 483.449 993.778C483.835 993.074 484.028 992.307 484.028 991.477V989.636C484.028 988.807 483.847 988.034 483.483 987.318C483.119 986.602 482.398 986.244 481.318 986.244C480.307 986.244 479.608 986.608 479.222 987.335C478.835 988.062 478.642 988.83 478.642 989.636ZM475.898 1018L499.898 983.091H504.364L480.364 1018H475.898Z" fill="black"/>
<path d="M62.1094 873.266C60.875 873.26 59.8203 872.935 58.9453 872.289C58.0703 871.643 57.401 870.703 56.9375 869.469C56.474 868.234 56.2422 866.747 56.2422 865.008C56.2422 863.273 56.474 861.792 56.9375 860.562C57.4063 859.333 58.0781 858.396 58.9531 857.75C59.8333 857.104 60.8854 856.781 62.1094 856.781C63.3333 856.781 64.3828 857.107 65.2578 857.758C66.1328 858.404 66.8021 859.341 67.2656 860.57C67.7344 861.794 67.9687 863.273 67.9687 865.008C67.9687 866.753 67.737 868.242 67.2734 869.477C66.8099 870.706 66.1406 871.646 65.2656 872.297C64.3906 872.943 63.3385 873.266 62.1094 873.266ZM62.1094 871.18C63.1927 871.18 64.0391 870.651 64.6484 869.594C65.263 868.536 65.5703 867.008 65.5703 865.008C65.5703 863.68 65.4297 862.557 65.1484 861.641C64.8724 860.719 64.474 860.021 63.9531 859.547C63.4375 859.068 62.8229 858.828 62.1094 858.828C61.0313 858.828 60.1849 859.359 59.5703 860.422C58.9557 861.484 58.6458 863.013 58.6406 865.008C58.6406 866.341 58.7786 867.469 59.0547 868.391C59.3359 869.307 59.7344 870.003 60.25 870.477C60.7656 870.945 61.3854 871.18 62.1094 871.18ZM73.0079 870.812L72.8907 871.664C72.8126 872.289 72.6798 872.94 72.4923 873.617C72.31 874.299 72.1199 874.932 71.922 875.516C71.7293 876.099 71.5704 876.563 71.4454 876.906H69.7892C69.8569 876.583 69.9506 876.146 70.0704 875.594C70.1902 875.047 70.3074 874.435 70.422 873.758C70.5366 873.081 70.6225 872.391 70.6798 871.687L70.7579 870.812H73.0079ZM76.1838 873L83.1682 859.187V859.07H75.09V857H85.6682V859.141L78.7072 873H76.1838Z" fill="#CFCFCF"/>
<path d="M487.263 873.266C486.029 873.26 484.974 872.935 484.099 872.289C483.224 871.643 482.555 870.703 482.092 869.469C481.628 868.234 481.396 866.747 481.396 865.008C481.396 863.273 481.628 861.792 482.092 860.562C482.56 859.333 483.232 858.396 484.107 857.75C484.987 857.104 486.04 856.781 487.263 856.781C488.487 856.781 489.537 857.107 490.412 857.758C491.287 858.404 491.956 859.341 492.42 860.57C492.888 861.794 493.123 863.273 493.123 865.008C493.123 866.753 492.891 868.242 492.428 869.477C491.964 870.706 491.295 871.646 490.42 872.297C489.545 872.943 488.493 873.266 487.263 873.266ZM487.263 871.18C488.347 871.18 489.193 870.651 489.803 869.594C490.417 868.536 490.724 867.008 490.724 865.008C490.724 863.68 490.584 862.557 490.303 861.641C490.026 860.719 489.628 860.021 489.107 859.547C488.592 859.068 487.977 858.828 487.263 858.828C486.185 858.828 485.339 859.359 484.724 860.422C484.11 861.484 483.8 863.013 483.795 865.008C483.795 866.341 483.933 867.469 484.209 868.391C484.49 869.307 484.888 870.003 485.404 870.477C485.92 870.945 486.54 871.18 487.263 871.18ZM498.162 870.812L498.045 871.664C497.967 872.289 497.834 872.94 497.646 873.617C497.464 874.299 497.274 874.932 497.076 875.516C496.883 876.099 496.725 876.563 496.6 876.906H494.943C495.011 876.583 495.105 876.146 495.225 875.594C495.344 875.047 495.461 874.435 495.576 873.758C495.691 873.081 495.777 872.391 495.834 871.687L495.912 870.812H498.162ZM501.338 873L508.322 859.187V859.07H500.244V857H510.822V859.141L503.861 873H501.338Z" fill="#CFCFCF"/>
<rect x="549" y="437" width="491" height="295" rx="20" fill="#F7F7F7"/>
<path opacity="0.6" d="M567.663 458.909V472H565.291V458.909H567.663ZM571.455 460.897V458.909H581.9V460.897H577.854V472H575.502V460.897H571.455ZM590.754 464.502V466.407H584.86V464.502H590.754ZM595.09 458.909H597.442V467.832H597.563L603.719 458.909H605.847V472H603.476V463.083H603.367L597.193 472H595.09V458.909ZM620.913 458.909V472H618.56V460.878H612.833V472H610.481V458.909H620.913ZM637.246 465.455C637.246 466.865 636.982 468.073 636.454 469.079C635.93 470.08 635.214 470.847 634.306 471.38C633.403 471.913 632.378 472.179 631.232 472.179C630.085 472.179 629.058 471.913 628.151 471.38C627.247 470.843 626.531 470.074 626.003 469.072C625.479 468.067 625.217 466.861 625.217 465.455C625.217 464.044 625.479 462.838 626.003 461.837C626.531 460.831 627.247 460.062 628.151 459.529C629.058 458.996 630.085 458.73 631.232 458.73C632.378 458.73 633.403 458.996 634.306 459.529C635.214 460.062 635.93 460.831 636.454 461.837C636.982 462.838 637.246 464.044 637.246 465.455ZM634.862 465.455C634.862 464.462 634.707 463.624 634.396 462.942C634.089 462.256 633.663 461.739 633.117 461.389C632.572 461.036 631.943 460.859 631.232 460.859C630.52 460.859 629.891 461.036 629.346 461.389C628.8 461.739 628.372 462.256 628.061 462.942C627.754 463.624 627.601 464.462 627.601 465.455C627.601 466.447 627.754 467.287 628.061 467.973C628.372 468.655 628.8 469.173 629.346 469.526C629.891 469.876 630.52 470.05 631.232 470.05C631.943 470.05 632.572 469.876 633.117 469.526C633.663 469.173 634.089 468.655 634.396 467.973C634.707 467.287 634.862 466.447 634.862 465.455ZM640.133 460.897V458.909H650.578V460.897H646.532V472H644.179V460.897H640.133ZM654.391 472V458.909H662.905V460.897H656.763V464.451H662.464V466.439H656.763V470.012H662.957V472H654.391ZM674.968 472L670.66 466.279H669.496V472H667.125V458.909H669.496V464.291H670.091L674.744 458.909H677.665L672.494 464.879L677.889 472H674.968ZM682.981 472H680.45L685.058 458.909H687.986L692.601 472H690.07L686.573 461.594H686.471L682.981 472ZM683.064 466.867H689.967V468.772H683.064V466.867Z" fill="black"/>
<path opacity="0.4" d="M564 685.5H1019.99V579H795L564 556V685.5Z" fill="url(#paint3_linear_3375_3036)"/>
<rect x="1015.19" y="574" width="10.2717" height="10.2717" rx="5.13587" fill="#CACACA"/>
<path d="M1020 580H795L564 555.5" stroke="#CACACA" stroke-width="4"/>
<path d="M875.074 670.441V694.799L865.989 685.68L862 689.634L877.955 705.555L893.875 689.634L889.955 685.68L880.835 694.799V670.441H875.074Z" fill="#CACACA"/>
<path d="M920.212 705.767C917.281 705.756 914.758 705.034 912.644 703.602C910.542 702.17 908.923 700.097 907.786 697.381C906.661 694.665 906.104 691.398 906.116 687.58C906.116 683.773 906.678 680.528 907.803 677.847C908.94 675.165 910.559 673.125 912.661 671.727C914.775 670.318 917.292 669.614 920.212 669.614C923.133 669.614 925.644 670.318 927.746 671.727C929.86 673.136 931.485 675.182 932.621 677.864C933.758 680.534 934.32 683.773 934.309 687.58C934.309 691.409 933.741 694.682 932.604 697.398C931.479 700.114 929.866 702.187 927.763 703.619C925.661 705.051 923.144 705.767 920.212 705.767ZM920.212 699.648C922.212 699.648 923.809 698.642 925.002 696.631C926.195 694.619 926.786 691.602 926.775 687.58C926.775 684.932 926.502 682.727 925.957 680.966C925.423 679.205 924.661 677.881 923.673 676.994C922.695 676.108 921.542 675.665 920.212 675.665C918.224 675.665 916.633 676.659 915.44 678.648C914.246 680.636 913.644 683.614 913.633 687.58C913.633 690.261 913.9 692.5 914.434 694.295C914.979 696.08 915.746 697.42 916.735 698.318C917.724 699.205 918.883 699.648 920.212 699.648ZM945.634 700.227L945.446 702.102C945.298 703.602 945.014 705.097 944.594 706.585C944.185 708.085 943.753 709.443 943.298 710.659C942.855 711.875 942.497 712.83 942.224 713.523H937.52C937.69 712.852 937.923 711.915 938.219 710.71C938.514 709.517 938.793 708.176 939.054 706.688C939.315 705.199 939.48 703.682 939.548 702.136L939.634 700.227H945.634ZM951.712 705V699.682L964.138 688.176C965.195 687.153 966.082 686.233 966.798 685.415C967.525 684.597 968.076 683.795 968.451 683.011C968.826 682.216 969.013 681.358 969.013 680.438C969.013 679.415 968.781 678.534 968.315 677.795C967.849 677.045 967.212 676.472 966.406 676.074C965.599 675.665 964.684 675.46 963.661 675.46C962.593 675.46 961.661 675.676 960.866 676.108C960.07 676.54 959.457 677.159 959.025 677.966C958.593 678.773 958.377 679.733 958.377 680.847H951.371C951.371 678.562 951.888 676.58 952.923 674.898C953.957 673.216 955.406 671.915 957.269 670.994C959.133 670.074 961.281 669.614 963.712 669.614C966.212 669.614 968.388 670.057 970.241 670.943C972.104 671.818 973.553 673.034 974.587 674.591C975.621 676.148 976.138 677.932 976.138 679.943C976.138 681.261 975.877 682.562 975.354 683.847C974.843 685.131 973.928 686.557 972.61 688.125C971.292 689.682 969.434 691.551 967.036 693.733L961.94 698.727V698.966H976.599V705H951.712ZM1000.56 698.455V696.614C1000.56 695.216 1000.86 693.932 1001.45 692.761C1002.05 691.58 1002.92 690.636 1004.06 689.932C1005.2 689.216 1006.6 688.858 1008.25 688.858C1009.92 688.858 1011.32 689.21 1012.46 689.915C1013.61 690.619 1014.47 691.562 1015.05 692.744C1015.64 693.915 1015.94 695.205 1015.94 696.614V698.455C1015.94 699.852 1015.64 701.142 1015.05 702.324C1014.46 703.494 1013.59 704.432 1012.44 705.136C1011.3 705.852 1009.9 706.21 1008.25 706.21C1006.58 706.21 1005.18 705.852 1004.04 705.136C1002.9 704.432 1002.04 703.494 1001.45 702.324C1000.86 701.142 1000.56 699.852 1000.56 698.455ZM1005.52 696.614V698.455C1005.52 699.261 1005.72 700.023 1006.1 700.739C1006.5 701.455 1007.22 701.812 1008.25 701.812C1009.28 701.812 1009.99 701.46 1010.36 700.756C1010.75 700.051 1010.94 699.284 1010.94 698.455V696.614C1010.94 695.784 1010.76 695.011 1010.4 694.295C1010.03 693.58 1009.32 693.222 1008.25 693.222C1007.23 693.222 1006.52 693.58 1006.12 694.295C1005.72 695.011 1005.52 695.784 1005.52 696.614ZM982.648 678.477V676.636C982.648 675.227 982.949 673.937 983.551 672.767C984.153 671.585 985.023 670.642 986.159 669.938C987.307 669.233 988.693 668.881 990.318 668.881C992 668.881 993.409 669.233 994.545 669.938C995.682 670.642 996.545 671.585 997.136 672.767C997.727 673.937 998.023 675.227 998.023 676.636V678.477C998.023 679.886 997.722 681.176 997.119 682.347C996.528 683.517 995.659 684.455 994.511 685.159C993.375 685.852 991.977 686.199 990.318 686.199C988.659 686.199 987.256 685.847 986.108 685.142C984.972 684.426 984.108 683.489 983.517 682.33C982.938 681.159 982.648 679.875 982.648 678.477ZM987.642 676.636V678.477C987.642 679.307 987.835 680.074 988.222 680.778C988.619 681.483 989.318 681.835 990.318 681.835C991.364 681.835 992.074 681.483 992.449 680.778C992.835 680.074 993.028 679.307 993.028 678.477V676.636C993.028 675.807 992.847 675.034 992.483 674.318C992.119 673.602 991.398 673.244 990.318 673.244C989.307 673.244 988.608 673.608 988.222 674.335C987.835 675.062 987.642 675.83 987.642 676.636ZM984.898 705L1008.9 670.091H1013.36L989.364 705H984.898Z" fill="black"/>
<path d="M571.609 526V542H569.188V528.422H569.094L565.266 530.922V528.609L569.258 526H571.609ZM577.861 539.812L577.744 540.664C577.666 541.289 577.533 541.94 577.346 542.617C577.164 543.299 576.973 543.932 576.775 544.516C576.583 545.099 576.424 545.563 576.299 545.906H574.643C574.71 545.583 574.804 545.146 574.924 544.594C575.044 544.047 575.161 543.435 575.275 542.758C575.39 542.081 575.476 541.391 575.533 540.687L575.611 539.812H577.861ZM581.037 542L588.022 528.187V528.07H579.944V526H590.522V528.141L583.561 542H581.037Z" fill="#CFCFCF"/>
<path d="M999.857 548V564H997.435V550.422H997.342L993.513 552.922V550.609L997.506 548H999.857ZM1006.11 561.812L1005.99 562.664C1005.91 563.289 1005.78 563.94 1005.59 564.617C1005.41 565.299 1005.22 565.932 1005.02 566.516C1004.83 567.099 1004.67 567.563 1004.55 567.906H1002.89C1002.96 567.583 1003.05 567.146 1003.17 566.594C1003.29 566.047 1003.41 565.435 1003.52 564.758C1003.64 564.081 1003.72 563.391 1003.78 562.687L1003.86 561.812H1006.11ZM1014.18 564.219C1013.2 564.219 1012.32 564.031 1011.54 563.656C1010.76 563.276 1010.14 562.755 1009.68 562.094C1009.21 561.432 1008.97 560.677 1008.94 559.828H1011.28C1011.34 560.516 1011.64 561.081 1012.19 561.523C1012.75 561.966 1013.41 562.187 1014.18 562.187C1014.79 562.187 1015.34 562.047 1015.81 561.766C1016.29 561.479 1016.66 561.086 1016.94 560.586C1017.21 560.086 1017.35 559.516 1017.35 558.875C1017.35 558.224 1017.21 557.643 1016.93 557.133C1016.65 556.622 1016.26 556.221 1015.76 555.93C1015.27 555.638 1014.71 555.49 1014.08 555.484C1013.59 555.484 1013.1 555.568 1012.62 555.734C1012.13 555.901 1011.73 556.12 1011.43 556.391L1009.22 556.062L1010.12 548H1018.91V550.07H1012.12L1011.62 554.547H1011.71C1012.02 554.245 1012.44 553.992 1012.95 553.789C1013.47 553.586 1014.03 553.484 1014.62 553.484C1015.6 553.484 1016.46 553.716 1017.22 554.18C1017.99 554.643 1018.59 555.276 1019.03 556.078C1019.47 556.875 1019.69 557.792 1019.69 558.828C1019.69 559.865 1019.46 560.789 1018.98 561.602C1018.51 562.414 1017.86 563.055 1017.03 563.523C1016.2 563.987 1015.25 564.219 1014.18 564.219Z" fill="#CFCFCF"/>
<rect x="549" y="749" width="491" height="295" rx="20" fill="#F7F7F7"/>
<path opacity="0.6" d="M564.441 784.158V779.063H565.317C565.611 778.829 565.886 778.499 566.141 778.072C566.397 777.646 566.614 777.062 566.793 776.321C566.972 775.58 567.096 774.621 567.164 773.445L567.509 767.909H575.876V779.063H577.334V784.145H575.058V781H566.717V784.158H564.441ZM568.078 779.063H573.601V769.897H569.644L569.44 773.445C569.384 774.335 569.295 775.132 569.171 775.835C569.048 776.538 568.892 777.158 568.705 777.695C568.517 778.228 568.308 778.684 568.078 779.063ZM582.747 781H580.216L584.824 767.909H587.752L592.367 781H589.836L586.339 770.594H586.237L582.747 781ZM582.83 775.867H589.733V777.772H582.83V775.867ZM595.041 781V779.031L595.412 779.012C595.915 778.982 596.313 778.801 596.607 778.469C596.905 778.136 597.125 777.602 597.265 776.864C597.41 776.127 597.506 775.138 597.553 773.898L597.77 767.909H606.349V781H604.028V769.859H599.982L599.778 774.634C599.718 776.065 599.56 777.252 599.305 778.194C599.053 779.136 598.64 779.839 598.064 780.303C597.493 780.768 596.699 781 595.68 781H595.041ZM612.339 772.965H615.662C616.664 772.965 617.523 773.129 618.238 773.457C618.959 773.781 619.51 774.239 619.894 774.832C620.277 775.424 620.469 776.121 620.469 776.922C620.469 777.727 620.277 778.437 619.894 779.05C619.51 779.66 618.959 780.137 618.238 780.482C617.523 780.827 616.664 781 615.662 781H610.76V767.909H613.138V779.057H615.662C616.191 779.057 616.638 778.957 617.005 778.756C617.371 778.556 617.648 778.292 617.836 777.964C618.027 777.636 618.123 777.28 618.123 776.896C618.123 776.342 617.91 775.871 617.484 775.484C617.062 775.092 616.455 774.896 615.662 774.896H612.339V772.965ZM624.575 781V767.909H626.947V773.451H633.013V767.909H635.391V781H633.013V775.439H626.947V781H624.575ZM639.77 781V767.909H648.284V769.897H642.141V773.451H647.843V775.439H642.141V779.012H648.335V781H639.77ZM652.503 781V767.909H657.515C658.461 767.909 659.247 768.058 659.873 768.357C660.504 768.651 660.975 769.053 661.286 769.565C661.601 770.076 661.759 770.656 661.759 771.303C661.759 771.836 661.657 772.292 661.452 772.671C661.248 773.046 660.973 773.351 660.628 773.585C660.282 773.82 659.897 773.988 659.471 774.09V774.218C659.935 774.244 660.38 774.386 660.807 774.646C661.237 774.902 661.589 775.264 661.861 775.733C662.134 776.202 662.27 776.768 662.27 777.433C662.27 778.111 662.106 778.72 661.778 779.261C661.45 779.798 660.956 780.222 660.295 780.533C659.635 780.844 658.804 781 657.802 781H652.503ZM654.875 779.018H657.425C658.286 779.018 658.906 778.854 659.285 778.526C659.669 778.194 659.861 777.768 659.861 777.248C659.861 776.86 659.765 776.511 659.573 776.2C659.381 775.884 659.108 775.637 658.755 775.458C658.401 775.275 657.979 775.183 657.489 775.183H654.875V779.018ZM654.875 773.477H657.221C657.63 773.477 657.998 773.402 658.326 773.253C658.655 773.099 658.912 772.884 659.1 772.607C659.292 772.326 659.388 771.994 659.388 771.61C659.388 771.103 659.209 770.685 658.851 770.357C658.497 770.029 657.971 769.865 657.272 769.865H654.875V773.477ZM677.831 774.455C677.831 775.865 677.567 777.073 677.038 778.079C676.514 779.08 675.798 779.847 674.89 780.38C673.987 780.913 672.962 781.179 671.816 781.179C670.67 781.179 669.643 780.913 668.735 780.38C667.832 779.843 667.116 779.074 666.587 778.072C666.063 777.067 665.801 775.861 665.801 774.455C665.801 773.044 666.063 771.838 666.587 770.837C667.116 769.831 667.832 769.062 668.735 768.529C669.643 767.996 670.67 767.73 671.816 767.73C672.962 767.73 673.987 767.996 674.89 768.529C675.798 769.062 676.514 769.831 677.038 770.837C677.567 771.838 677.831 773.044 677.831 774.455ZM675.447 774.455C675.447 773.462 675.291 772.624 674.98 771.942C674.673 771.256 674.247 770.739 673.702 770.389C673.156 770.036 672.528 769.859 671.816 769.859C671.104 769.859 670.476 770.036 669.93 770.389C669.385 770.739 668.957 771.256 668.645 771.942C668.339 772.624 668.185 773.462 668.185 774.455C668.185 775.447 668.339 776.287 668.645 776.973C668.957 777.655 669.385 778.173 669.93 778.526C670.476 778.876 671.104 779.05 671.816 779.05C672.528 779.05 673.156 778.876 673.702 778.526C674.247 778.173 674.673 777.655 674.98 776.973C675.291 776.287 675.447 775.447 675.447 774.455ZM693.078 772.326H690.687C690.619 771.934 690.494 771.587 690.31 771.284C690.127 770.977 689.899 770.717 689.626 770.504C689.354 770.291 689.043 770.131 688.693 770.025C688.348 769.914 687.975 769.859 687.575 769.859C686.863 769.859 686.232 770.038 685.682 770.396C685.133 770.749 684.702 771.269 684.391 771.955C684.08 772.637 683.925 773.47 683.925 774.455C683.925 775.456 684.08 776.3 684.391 776.986C684.707 777.668 685.137 778.183 685.682 778.533C686.232 778.878 686.861 779.05 687.568 779.05C687.96 779.05 688.327 778.999 688.668 778.897C689.013 778.79 689.322 778.635 689.594 778.43C689.871 778.226 690.104 777.974 690.291 777.676C690.483 777.378 690.615 777.037 690.687 776.653L693.078 776.666C692.989 777.288 692.795 777.872 692.496 778.418C692.202 778.963 691.817 779.445 691.339 779.862C690.862 780.276 690.304 780.599 689.665 780.834C689.026 781.064 688.316 781.179 687.536 781.179C686.386 781.179 685.359 780.913 684.455 780.38C683.552 779.847 682.84 779.078 682.32 778.072C681.8 777.067 681.54 775.861 681.54 774.455C681.54 773.044 681.803 771.838 682.327 770.837C682.851 769.831 683.565 769.062 684.468 768.529C685.371 767.996 686.394 767.73 687.536 767.73C688.265 767.73 688.942 767.832 689.569 768.037C690.195 768.241 690.754 768.542 691.244 768.938C691.734 769.33 692.136 769.812 692.452 770.383C692.771 770.95 692.98 771.597 693.078 772.326ZM696.474 769.897V767.909H706.919V769.897H702.873V781H700.521V769.897H696.474ZM721.85 774.455C721.85 775.865 721.586 777.073 721.057 778.079C720.533 779.08 719.817 779.847 718.91 780.38C718.006 780.913 716.981 781.179 715.835 781.179C714.689 781.179 713.662 780.913 712.754 780.38C711.851 779.843 711.135 779.074 710.606 778.072C710.082 777.067 709.82 775.861 709.82 774.455C709.82 773.044 710.082 771.838 710.606 770.837C711.135 769.831 711.851 769.062 712.754 768.529C713.662 767.996 714.689 767.73 715.835 767.73C716.981 767.73 718.006 767.996 718.91 768.529C719.817 769.062 720.533 769.831 721.057 770.837C721.586 771.838 721.85 773.044 721.85 774.455ZM719.466 774.455C719.466 773.462 719.31 772.624 718.999 771.942C718.692 771.256 718.266 770.739 717.721 770.389C717.175 770.036 716.547 769.859 715.835 769.859C715.123 769.859 714.495 770.036 713.949 770.389C713.404 770.739 712.976 771.256 712.665 771.942C712.358 772.624 712.204 773.462 712.204 774.455C712.204 775.447 712.358 776.287 712.665 776.973C712.976 777.655 713.404 778.173 713.949 778.526C714.495 778.876 715.123 779.05 715.835 779.05C716.547 779.05 717.175 778.876 717.721 778.526C718.266 778.173 718.692 777.655 718.999 776.973C719.31 776.287 719.466 775.447 719.466 774.455ZM726.282 767.909H728.602V772.179C728.602 772.733 728.698 773.172 728.89 773.496C729.086 773.82 729.376 774.052 729.759 774.192C730.143 774.333 730.62 774.403 731.191 774.403C731.447 774.403 731.722 774.395 732.016 774.378C732.314 774.357 732.614 774.329 732.917 774.295C733.219 774.256 733.509 774.212 733.786 774.161C734.063 774.105 734.31 774.045 734.528 773.982V775.912C734.31 775.98 734.067 776.042 733.799 776.097C733.53 776.153 733.247 776.2 732.949 776.238C732.651 776.276 732.352 776.306 732.054 776.327C731.756 776.349 731.468 776.359 731.191 776.359C730.19 776.359 729.32 776.217 728.583 775.931C727.85 775.641 727.283 775.19 726.883 774.576C726.482 773.962 726.282 773.163 726.282 772.179V767.909ZM734.138 767.909H736.471V781H734.138V767.909ZM741.157 781V767.909H743.528V773.451H749.594V767.909H751.972V781H749.594V775.439H743.528V781H741.157ZM758.032 781H755.501L760.11 767.909H763.037L767.652 781H765.121L761.625 770.594H761.523L758.032 781ZM758.116 775.867H765.019V777.772H758.116V775.867ZM780.842 781H778.464V769.891H776.29C775.702 769.891 775.219 769.978 774.839 770.153C774.464 770.323 774.185 770.575 774.002 770.907C773.823 771.235 773.734 771.631 773.734 772.096C773.734 772.56 773.823 772.952 774.002 773.272C774.181 773.587 774.458 773.828 774.833 773.994C775.212 774.156 775.694 774.237 776.278 774.237H779.461V776.206H775.958C774.952 776.206 774.104 776.04 773.414 775.707C772.724 775.371 772.199 774.896 771.842 774.282C771.488 773.664 771.311 772.935 771.311 772.096C771.311 771.261 771.486 770.53 771.835 769.903C772.189 769.273 772.709 768.783 773.395 768.433C774.081 768.084 774.925 767.909 775.926 767.909H780.842V781ZM774.072 775.068H776.661L773.478 781H770.832L774.072 775.068Z" fill="black"/>
<path opacity="0.4" d="M564.034 997.5H1020.03V862L800.5 870C800.5 870 566.69 865.112 564.034 865.002V865C564.004 865 564.004 865.001 564.034 865.002V997.5Z" fill="url(#paint4_linear_3375_3036)"/>
<rect x="1015.19" y="857" width="10.2717" height="10.2717" rx="5.13587" fill="#04B34A"/>
<path d="M564 865.5L776 871.5L1020.5 862.5" stroke="#04B34A" stroke-width="4"/>
<path d="M891.801 1017.56L891.801 993.201L900.886 1002.32L904.875 998.366L888.92 982.445L873 998.366L876.92 1002.32L886.04 993.201L886.04 1017.56L891.801 1017.56Z" fill="#04B34A"/>
<path d="M931.322 1017.77C928.39 1017.76 925.867 1017.03 923.754 1015.6C921.651 1014.17 920.032 1012.1 918.896 1009.38C917.771 1006.66 917.214 1003.4 917.225 999.58C917.225 995.773 917.788 992.528 918.913 989.847C920.049 987.165 921.668 985.125 923.771 983.727C925.884 982.318 928.401 981.614 931.322 981.614C934.242 981.614 936.754 982.318 938.856 983.727C940.969 985.136 942.594 987.182 943.731 989.864C944.867 992.534 945.43 995.773 945.418 999.58C945.418 1003.41 944.85 1006.68 943.714 1009.4C942.589 1012.11 940.975 1014.19 938.873 1015.62C936.771 1017.05 934.254 1017.77 931.322 1017.77ZM931.322 1011.65C933.322 1011.65 934.918 1010.64 936.112 1008.63C937.305 1006.62 937.896 1003.6 937.884 999.58C937.884 996.932 937.612 994.727 937.066 992.966C936.532 991.205 935.771 989.881 934.782 988.994C933.805 988.108 932.651 987.665 931.322 987.665C929.333 987.665 927.742 988.659 926.549 990.648C925.356 992.636 924.754 995.614 924.742 999.58C924.742 1002.26 925.009 1004.5 925.543 1006.3C926.089 1008.08 926.856 1009.42 927.844 1010.32C928.833 1011.2 929.992 1011.65 931.322 1011.65ZM956.743 1012.23L956.555 1014.1C956.408 1015.6 956.124 1017.1 955.703 1018.59C955.294 1020.09 954.862 1021.44 954.408 1022.66C953.964 1023.88 953.607 1024.83 953.334 1025.52H948.629C948.8 1024.85 949.033 1023.91 949.328 1022.71C949.624 1021.52 949.902 1020.18 950.163 1018.69C950.425 1017.2 950.589 1015.68 950.658 1014.14L950.743 1012.23H956.743ZM973.65 982.091V1017H966.269V989.097H966.065L958.07 994.108V987.562L966.712 982.091H973.65ZM1000.56 1010.45V1008.61C1000.56 1007.22 1000.86 1005.93 1001.45 1004.76C1002.05 1003.58 1002.92 1002.64 1004.06 1001.93C1005.2 1001.22 1006.6 1000.86 1008.25 1000.86C1009.92 1000.86 1011.32 1001.21 1012.46 1001.91C1013.61 1002.62 1014.47 1003.56 1015.05 1004.74C1015.64 1005.91 1015.94 1007.2 1015.94 1008.61V1010.45C1015.94 1011.85 1015.64 1013.14 1015.05 1014.32C1014.46 1015.49 1013.59 1016.43 1012.44 1017.14C1011.3 1017.85 1009.9 1018.21 1008.25 1018.21C1006.58 1018.21 1005.18 1017.85 1004.04 1017.14C1002.9 1016.43 1002.04 1015.49 1001.45 1014.32C1000.86 1013.14 1000.56 1011.85 1000.56 1010.45ZM1005.52 1008.61V1010.45C1005.52 1011.26 1005.72 1012.02 1006.1 1012.74C1006.5 1013.45 1007.22 1013.81 1008.25 1013.81C1009.28 1013.81 1009.99 1013.46 1010.36 1012.76C1010.75 1012.05 1010.94 1011.28 1010.94 1010.45V1008.61C1010.94 1007.78 1010.76 1007.01 1010.4 1006.3C1010.03 1005.58 1009.32 1005.22 1008.25 1005.22C1007.23 1005.22 1006.52 1005.58 1006.12 1006.3C1005.72 1007.01 1005.52 1007.78 1005.52 1008.61ZM982.648 990.477V988.636C982.648 987.227 982.949 985.937 983.551 984.767C984.153 983.585 985.023 982.642 986.159 981.938C987.307 981.233 988.693 980.881 990.318 980.881C992 980.881 993.409 981.233 994.545 981.938C995.682 982.642 996.545 983.585 997.136 984.767C997.727 985.937 998.023 987.227 998.023 988.636V990.477C998.023 991.886 997.722 993.176 997.119 994.347C996.528 995.517 995.659 996.455 994.511 997.159C993.375 997.852 991.977 998.199 990.318 998.199C988.659 998.199 987.256 997.847 986.108 997.142C984.972 996.426 984.108 995.489 983.517 994.33C982.938 993.159 982.648 991.875 982.648 990.477ZM987.642 988.636V990.477C987.642 991.307 987.835 992.074 988.222 992.778C988.619 993.483 989.318 993.835 990.318 993.835C991.364 993.835 992.074 993.483 992.449 992.778C992.835 992.074 993.028 991.307 993.028 990.477V988.636C993.028 987.807 992.847 987.034 992.483 986.318C992.119 985.602 991.398 985.244 990.318 985.244C989.307 985.244 988.608 985.608 988.222 986.335C987.835 987.062 987.642 987.83 987.642 988.636ZM984.898 1017L1008.9 982.091H1013.36L989.364 1017H984.898Z" fill="black"/>
<path d="M571.609 835V851H569.188V837.422H569.094L565.266 839.922V837.609L569.258 835H571.609ZM577.861 848.812L577.744 849.664C577.666 850.289 577.533 850.94 577.346 851.617C577.164 852.299 576.973 852.932 576.775 853.516C576.583 854.099 576.424 854.563 576.299 854.906H574.643C574.71 854.583 574.804 854.146 574.924 853.594C575.044 853.047 575.161 852.435 575.275 851.758C575.39 851.081 575.476 850.391 575.533 849.687L575.611 848.812H577.861ZM585.897 851.266C584.662 851.26 583.608 850.935 582.733 850.289C581.858 849.643 581.188 848.703 580.725 847.469C580.261 846.234 580.03 844.747 580.03 843.008C580.03 841.273 580.261 839.792 580.725 838.562C581.194 837.333 581.865 836.396 582.74 835.75C583.621 835.104 584.673 834.781 585.897 834.781C587.121 834.781 588.17 835.107 589.045 835.758C589.92 836.404 590.589 837.341 591.053 838.57C591.522 839.794 591.756 841.273 591.756 843.008C591.756 844.753 591.524 846.242 591.061 847.477C590.597 848.706 589.928 849.646 589.053 850.297C588.178 850.943 587.126 851.266 585.897 851.266ZM585.897 849.18C586.98 849.18 587.826 848.651 588.436 847.594C589.05 846.536 589.358 845.008 589.358 843.008C589.358 841.68 589.217 840.557 588.936 839.641C588.66 838.719 588.261 838.021 587.74 837.547C587.225 837.068 586.61 836.828 585.897 836.828C584.819 836.828 583.972 837.359 583.358 838.422C582.743 839.484 582.433 841.013 582.428 843.008C582.428 844.341 582.566 845.469 582.842 846.391C583.123 847.307 583.522 848.003 584.037 848.477C584.553 848.945 585.173 849.18 585.897 849.18Z" fill="#CFCFCF"/>
<path d="M1004.78 828V844H1002.36V830.422H1002.26L998.433 832.922V830.609L1002.43 828H1004.78ZM1011.03 841.812L1010.91 842.664C1010.83 843.289 1010.7 843.94 1010.51 844.617C1010.33 845.299 1010.14 845.932 1009.94 846.516C1009.75 847.099 1009.59 847.563 1009.47 847.906H1007.81C1007.88 847.583 1007.97 847.146 1008.09 846.594C1008.21 846.047 1008.33 845.435 1008.44 844.758C1008.56 844.081 1008.64 843.391 1008.7 842.687L1008.78 841.812H1011.03ZM1018.21 828V844H1015.79V830.422H1015.7L1011.87 832.922V830.609L1015.86 828H1018.21Z" fill="#CFCFCF"/>
<defs>
<linearGradient id="paint0_linear_3375_3036" x1="537.477" y1="223" x2="537.477" y2="372.5" gradientUnits="userSpaceOnUse">
<stop stop-color="#04B34A"/>
<stop offset="0.0666667" stop-color="#04B34A" stop-opacity="0.991353"/>
<stop offset="0.133333" stop-color="#04B34A" stop-opacity="0.96449"/>
<stop offset="0.2" stop-color="#04B34A" stop-opacity="0.91834"/>
<stop offset="0.266667" stop-color="#04B34A" stop-opacity="0.852589"/>
<stop offset="0.333333" stop-color="#04B34A" stop-opacity="0.768225"/>
<stop offset="0.4" stop-color="#04B34A" stop-opacity="0.668116"/>
<stop offset="0.466667" stop-color="#04B34A" stop-opacity="0.557309"/>
<stop offset="0.533333" stop-color="#04B34A" stop-opacity="0.442691"/>
<stop offset="0.6" stop-color="#04B34A" stop-opacity="0.331884"/>
<stop offset="0.666667" stop-color="#04B34A" stop-opacity="0.231775"/>
<stop offset="0.733333" stop-color="#04B34A" stop-opacity="0.147411"/>
<stop offset="0.8" stop-color="#04B34A" stop-opacity="0.0816599"/>
<stop offset="0.866667" stop-color="#04B34A" stop-opacity="0.03551"/>
<stop offset="0.933333" stop-color="#04B34A" stop-opacity="0.01"/>
<stop offset="1" stop-color="#04B34A" stop-opacity="0"/>
</linearGradient>
<linearGradient id="paint1_linear_3375_3036" x1="282.996" y1="593.5" x2="282.996" y2="685.5" gradientUnits="userSpaceOnUse">
<stop stop-color="#D9D9D9"/>
<stop offset="1" stop-color="#D9D9D9" stop-opacity="0"/>
</linearGradient>
<linearGradient id="paint2_linear_3375_3036" x1="283.02" y1="906.5" x2="283.02" y2="998.5" gradientUnits="userSpaceOnUse">
<stop stop-color="#D9D9D9"/>
<stop offset="1" stop-color="#D9D9D9" stop-opacity="0"/>
</linearGradient>
<linearGradient id="paint3_linear_3375_3036" x1="791.996" y1="593.5" x2="791.996" y2="685.5" gradientUnits="userSpaceOnUse">
<stop stop-color="#D9D9D9"/>
<stop offset="1" stop-color="#D9D9D9" stop-opacity="0"/>
</linearGradient>
<linearGradient id="paint4_linear_3375_3036" x1="792.03" y1="848" x2="792.03" y2="997.5" gradientUnits="userSpaceOnUse">
<stop stop-color="#04B34A"/>
<stop offset="0.0666667" stop-color="#04B34A" stop-opacity="0.991353"/>
<stop offset="0.133333" stop-color="#04B34A" stop-opacity="0.96449"/>
<stop offset="0.2" stop-color="#04B34A" stop-opacity="0.91834"/>
<stop offset="0.266667" stop-color="#04B34A" stop-opacity="0.852589"/>
<stop offset="0.333333" stop-color="#04B34A" stop-opacity="0.768225"/>
<stop offset="0.4" stop-color="#04B34A" stop-opacity="0.668116"/>
<stop offset="0.466667" stop-color="#04B34A" stop-opacity="0.557309"/>
<stop offset="0.533333" stop-color="#04B34A" stop-opacity="0.442691"/>
<stop offset="0.6" stop-color="#04B34A" stop-opacity="0.331884"/>
<stop offset="0.666667" stop-color="#04B34A" stop-opacity="0.231775"/>
<stop offset="0.733333" stop-color="#04B34A" stop-opacity="0.147411"/>
<stop offset="0.8" stop-color="#04B34A" stop-opacity="0.0816599"/>
<stop offset="0.866667" stop-color="#04B34A" stop-opacity="0.03551"/>
<stop offset="0.933333" stop-color="#04B34A" stop-opacity="0.01"/>
<stop offset="1" stop-color="#04B34A" stop-opacity="0"/>
</linearGradient>
</defs>
</svg>
