<svg width="1080" height="565" viewBox="0 0 1080 565" fill="none" xmlns="http://www.w3.org/2000/svg">
<g clip-path="url(#clip0_3375_2969)">
<rect width="1080" height="565" fill="white"/>
<path d="M915.587 49L912.911 64.8629H915.891L914.181 75H908.668L909.483 70.1698H895.329L894.514 75H889L890.71 64.8629H892.824C893.79 63.5513 894.707 61.8209 895.74 58.1838L898.364 49H915.59H915.587ZM908.584 54.3069H902.535L901.369 58.3918C900.354 61.9393 899.515 63.5484 898.667 64.8629H906.805L908.584 54.3069Z" fill="#EAECEF"/>
<path d="M920.448 49H933.56C938.18 49 940.257 51.3544 939.681 54.7547C939.314 56.93 937.677 58.3311 936.141 58.958C937.818 59.6138 939.146 61.2836 938.663 64.1464C938.05 67.7836 935.085 70.1698 930.167 70.1698H916.875L920.448 49ZM924.295 61.7024L923.67 65.4002H929.69C931.298 65.4002 932.293 64.8051 932.504 63.5513C932.721 62.2687 931.923 61.7024 930.312 61.7024H924.292H924.295ZM925.631 53.7724L925.099 56.9329H931.029C932.282 56.9329 933.161 56.4851 933.352 55.3527C933.543 54.2202 932.814 53.7724 931.561 53.7724H925.631Z" fill="#EAECEF"/>
<path d="M943.47 49H949.579L947.427 61.7602L958.906 49H965.015L961.445 70.1698H955.336L957.479 57.4673L946.01 70.1698H939.9L943.47 49Z" fill="#EAECEF"/>
<path d="M974.098 59.1978L966.907 49H973.821L979.812 57.6464L981.272 49H987.084L985.626 57.6464L994.536 49H1001.3L990.954 58.9291L998.177 70.1698H990.815L985.039 61.1362L983.514 70.1698H977.703L979.227 61.1362L970.402 70.1698H963.309L974.101 59.1978H974.098Z" fill="#EAECEF"/>
<path d="M1010.23 49H1003.13L1010.19 58.9291L999.713 70.1698H1006.81L1017.29 58.9291L1010.23 49ZM1021.44 49H1014.34L1021.41 58.9291L1010.93 70.1698H1018.02L1028.5 58.9291L1021.44 49ZM1032.94 49H1025.85L1032.91 58.9291L1022.43 70.1698H1029.52L1040 58.9291L1032.94 49Z" fill="#EAECEF"/>
<path d="M58.1151 75L49.7031 63.8395H47.8111V75H42.2756V48.8182H47.8111V59.2756H48.9233L57.6165 48.8182H64.5071L54.2926 60.9631L64.9801 75H58.1151ZM66.2216 82.3636V55.3636H71.5909V58.6619H71.8338C72.0724 58.1335 72.4176 57.5966 72.8693 57.0511C73.3295 56.4972 73.9261 56.0369 74.6591 55.6705C75.4006 55.2955 76.321 55.108 77.4204 55.108C78.8523 55.108 80.1733 55.483 81.3835 56.233C82.5937 56.9744 83.5611 58.0952 84.2855 59.5952C85.0099 61.0866 85.3721 62.9574 85.3721 65.2074C85.3721 67.3977 85.0185 69.2472 84.3111 70.7557C83.6122 72.2557 82.6577 73.3935 81.4474 74.169C80.2457 74.9361 78.8991 75.3196 77.4077 75.3196C76.3508 75.3196 75.4517 75.1449 74.7102 74.7955C73.9773 74.446 73.3764 74.0071 72.9077 73.4787C72.4389 72.9418 72.081 72.4006 71.8338 71.8551H71.6676V82.3636H66.2216ZM71.5525 65.1818C71.5525 66.3494 71.7145 67.3679 72.0383 68.2372C72.3622 69.1065 72.831 69.7841 73.4446 70.2699C74.0582 70.7472 74.804 70.9858 75.6818 70.9858C76.5682 70.9858 77.3182 70.7429 77.9318 70.2571C78.5454 69.7628 79.0099 69.081 79.3253 68.2116C79.6491 67.3338 79.8111 66.3239 79.8111 65.1818C79.8111 64.0483 79.6534 63.0511 79.3381 62.1903C79.0227 61.3295 78.5582 60.6562 77.9446 60.1705C77.331 59.6847 76.5767 59.4418 75.6818 59.4418C74.7954 59.4418 74.0454 59.6761 73.4318 60.1449C72.8267 60.6136 72.3622 61.2784 72.0383 62.1392C71.7145 63 71.5525 64.0142 71.5525 65.1818ZM93.1623 75.3707C91.9094 75.3707 90.7929 75.1534 89.8128 74.7188C88.8327 74.2756 88.0571 73.6236 87.4861 72.7628C86.9236 71.8935 86.6424 70.8111 86.6424 69.5156C86.6424 68.4247 86.8427 67.5085 87.2432 66.767C87.6438 66.0256 88.1892 65.429 88.8796 64.9773C89.5699 64.5256 90.354 64.1847 91.2319 63.9545C92.1182 63.7244 93.0472 63.5625 94.0188 63.4688C95.1608 63.3494 96.0813 63.2386 96.7802 63.1364C97.479 63.0256 97.9861 62.8636 98.3015 62.6506C98.6168 62.4375 98.7745 62.1222 98.7745 61.7045V61.6278C98.7745 60.8182 98.5188 60.1918 98.0074 59.7486C97.5046 59.3054 96.7887 59.0838 95.8597 59.0838C94.8796 59.0838 94.0998 59.3011 93.5202 59.7358C92.9407 60.1619 92.5571 60.6989 92.3696 61.3466L87.3327 60.9375C87.5884 59.7443 88.0912 58.7131 88.8412 57.8438C89.5912 56.9659 90.5586 56.2926 91.7432 55.8239C92.9364 55.3466 94.3171 55.108 95.8853 55.108C96.9762 55.108 98.0202 55.2358 99.0174 55.4915C100.023 55.7472 100.914 56.1435 101.689 56.6804C102.473 57.2173 103.091 57.9077 103.543 58.7514C103.995 59.5866 104.22 60.5881 104.22 61.7557V75H99.0557V72.277H98.9023C98.587 72.8906 98.1651 73.4318 97.6367 73.9006C97.1083 74.3608 96.4733 74.723 95.7319 74.9872C94.9904 75.2429 94.1338 75.3707 93.1623 75.3707ZM94.7219 71.6122C95.5231 71.6122 96.2304 71.4545 96.8441 71.1392C97.4577 70.8153 97.9392 70.3807 98.2887 69.8352C98.6381 69.2898 98.8128 68.6719 98.8128 67.9815V65.8977C98.6424 66.0085 98.408 66.1108 98.1097 66.2045C97.8199 66.2898 97.4918 66.3707 97.1253 66.4474C96.7588 66.5156 96.3924 66.5795 96.0259 66.6392C95.6594 66.6903 95.327 66.7372 95.0287 66.7798C94.3895 66.8736 93.8313 67.0227 93.354 67.2273C92.8767 67.4318 92.506 67.7088 92.2418 68.0582C91.9776 68.3991 91.8455 68.8253 91.8455 69.3366C91.8455 70.0781 92.114 70.6449 92.6509 71.0369C93.1963 71.4205 93.8867 71.6122 94.7219 71.6122ZM112.209 67.8153L119.278 55.3636H124.648V75H119.457V62.5099L112.413 75H107.006V55.3636H112.209V67.8153ZM118.345 48.5114H122.142C122.133 50.0625 121.558 51.3111 120.416 52.2571C119.283 53.2031 117.749 53.6761 115.814 53.6761C113.871 53.6761 112.332 53.2031 111.199 52.2571C110.065 51.3111 109.499 50.0625 109.499 48.5114H113.27C113.261 49.0994 113.449 49.6278 113.832 50.0966C114.224 50.5653 114.885 50.7997 115.814 50.7997C116.717 50.7997 117.365 50.5696 117.757 50.1094C118.149 49.6491 118.345 49.1165 118.345 48.5114ZM141.24 63.0085V67.2912H130.987V63.0085H141.24ZM132.777 55.3636V75H127.573V55.3636H132.777ZM144.653 55.3636V75H139.488V55.3636H144.653ZM156.387 75.3835C154.367 75.3835 152.628 74.9744 151.171 74.1562C149.722 73.3295 148.606 72.1619 147.822 70.6534C147.038 69.1364 146.646 67.3423 146.646 65.2713C146.646 63.2514 147.038 61.4787 147.822 59.9531C148.606 58.4276 149.709 57.2386 151.133 56.3864C152.565 55.5341 154.244 55.108 156.17 55.108C157.465 55.108 158.671 55.3168 159.788 55.7344C160.913 56.1435 161.893 56.7614 162.728 57.5881C163.572 58.4148 164.228 59.4545 164.697 60.7074C165.165 61.9517 165.4 63.4091 165.4 65.0795V66.5753H148.819V63.2003H160.273C160.273 62.4162 160.103 61.7216 159.762 61.1165C159.421 60.5114 158.948 60.0384 158.343 59.6974C157.746 59.348 157.052 59.1733 156.259 59.1733C155.432 59.1733 154.7 59.3651 154.06 59.7486C153.43 60.1236 152.935 60.6307 152.577 61.2699C152.219 61.9006 152.036 62.6037 152.028 63.3793V66.5881C152.028 67.5597 152.207 68.3991 152.565 69.1065C152.931 69.8139 153.447 70.3594 154.111 70.7429C154.776 71.1264 155.565 71.3182 156.476 71.3182C157.082 71.3182 157.636 71.233 158.138 71.0625C158.641 70.892 159.072 70.6364 159.43 70.2955C159.788 69.9545 160.06 69.5369 160.248 69.0426L165.285 69.375C165.029 70.5852 164.505 71.642 163.712 72.5455C162.928 73.4403 161.914 74.1392 160.67 74.642C159.434 75.1364 158.006 75.3835 156.387 75.3835ZM174.406 75V55.3636H191.575V75H186.372V59.6463H179.545V75H174.406ZM193.331 75L193.305 70.679H193.957C194.417 70.679 194.814 70.5682 195.146 70.3466C195.487 70.1165 195.768 69.7457 195.99 69.2344C196.212 68.723 196.386 68.0455 196.514 67.2017C196.642 66.3494 196.727 65.3011 196.77 64.0568L197.089 55.3636H212.021V75H206.831V59.6463H201.986L201.679 65.642C201.602 67.2869 201.402 68.7017 201.078 69.8864C200.763 71.071 200.324 72.0426 199.761 72.8011C199.199 73.5511 198.521 74.1051 197.729 74.4631C196.936 74.821 196.016 75 194.967 75H193.331ZM223.675 75.3835C221.689 75.3835 219.972 74.9616 218.523 74.1179C217.083 73.2656 215.971 72.081 215.187 70.5639C214.403 69.0384 214.011 67.2699 214.011 65.2585C214.011 63.2301 214.403 61.4574 215.187 59.9403C215.971 58.4148 217.083 57.2301 218.523 56.3864C219.972 55.5341 221.689 55.108 223.675 55.108C225.661 55.108 227.374 55.5341 228.814 56.3864C230.263 57.2301 231.38 58.4148 232.164 59.9403C232.948 61.4574 233.34 63.2301 233.34 65.2585C233.34 67.2699 232.948 69.0384 232.164 70.5639C231.38 72.081 230.263 73.2656 228.814 74.1179C227.374 74.9616 225.661 75.3835 223.675 75.3835ZM223.701 71.1648C224.604 71.1648 225.359 70.9091 225.964 70.3977C226.569 69.8778 227.025 69.1705 227.332 68.2756C227.647 67.3807 227.805 66.3622 227.805 65.2202C227.805 64.0781 227.647 63.0597 227.332 62.1648C227.025 61.2699 226.569 60.5625 225.964 60.0426C225.359 59.5227 224.604 59.2628 223.701 59.2628C222.789 59.2628 222.022 59.5227 221.4 60.0426C220.786 60.5625 220.322 61.2699 220.006 62.1648C219.699 63.0597 219.546 64.0781 219.546 65.2202C219.546 66.3622 219.699 67.3807 220.006 68.2756C220.322 69.1705 220.786 69.8778 221.4 70.3977C222.022 70.9091 222.789 71.1648 223.701 71.1648ZM239.289 55.3636L242.894 62.2287L246.589 55.3636H252.176L246.487 65.1818L252.329 75H246.768L242.894 68.2116L239.085 75H233.46L239.289 65.1818L233.664 55.3636H239.289ZM262.139 75.3835C260.153 75.3835 258.436 74.9616 256.987 74.1179C255.547 73.2656 254.435 72.081 253.65 70.5639C252.866 69.0384 252.474 67.2699 252.474 65.2585C252.474 63.2301 252.866 61.4574 253.65 59.9403C254.435 58.4148 255.547 57.2301 256.987 56.3864C258.436 55.5341 260.153 55.108 262.139 55.108C264.125 55.108 265.838 55.5341 267.278 56.3864C268.727 57.2301 269.844 58.4148 270.628 59.9403C271.412 61.4574 271.804 63.2301 271.804 65.2585C271.804 67.2699 271.412 69.0384 270.628 70.5639C269.844 72.081 268.727 73.2656 267.278 74.1179C265.838 74.9616 264.125 75.3835 262.139 75.3835ZM262.165 71.1648C263.068 71.1648 263.822 70.9091 264.427 70.3977C265.033 69.8778 265.488 69.1705 265.795 68.2756C266.111 67.3807 266.268 66.3622 266.268 65.2202C266.268 64.0781 266.111 63.0597 265.795 62.1648C265.488 61.2699 265.033 60.5625 264.427 60.0426C263.822 59.5227 263.068 59.2628 262.165 59.2628C261.253 59.2628 260.486 59.5227 259.863 60.0426C259.25 60.5625 258.785 61.2699 258.47 62.1648C258.163 63.0597 258.01 64.0781 258.01 65.2202C258.01 66.3622 258.163 67.3807 258.47 68.2756C258.785 69.1705 259.25 69.8778 259.863 70.3977C260.486 70.9091 261.253 71.1648 262.165 71.1648ZM279.108 67.8153L286.178 55.3636H291.547V75H286.357V62.5099L279.313 75H273.905V55.3636H279.108V67.8153ZM285.245 48.5114H289.041C289.033 50.0625 288.458 51.3111 287.316 52.2571C286.182 53.2031 284.648 53.6761 282.713 53.6761C280.77 53.6761 279.232 53.2031 278.098 52.2571C276.965 51.3111 276.398 50.0625 276.398 48.5114H280.169C280.161 49.0994 280.348 49.6278 280.732 50.0966C281.124 50.5653 281.784 50.7997 282.713 50.7997C283.617 50.7997 284.264 50.5696 284.656 50.1094C285.048 49.6491 285.245 49.1165 285.245 48.5114ZM301.365 82.3636V55.3636H306.734V58.6619H306.977C307.216 58.1335 307.561 57.5966 308.013 57.0511C308.473 56.4972 309.069 56.0369 309.802 55.6705C310.544 55.2955 311.464 55.108 312.564 55.108C313.996 55.108 315.317 55.483 316.527 56.233C317.737 56.9744 318.704 58.0952 319.429 59.5952C320.153 61.0866 320.515 62.9574 320.515 65.2074C320.515 67.3977 320.162 69.2472 319.454 70.7557C318.755 72.2557 317.801 73.3935 316.591 74.169C315.389 74.9361 314.042 75.3196 312.551 75.3196C311.494 75.3196 310.595 75.1449 309.853 74.7955C309.121 74.446 308.52 74.0071 308.051 73.4787C307.582 72.9418 307.224 72.4006 306.977 71.8551H306.811V82.3636H301.365ZM306.696 65.1818C306.696 66.3494 306.858 67.3679 307.182 68.2372C307.505 69.1065 307.974 69.7841 308.588 70.2699C309.202 70.7472 309.947 70.9858 310.825 70.9858C311.711 70.9858 312.461 70.7429 313.075 70.2571C313.689 69.7628 314.153 69.081 314.469 68.2116C314.792 67.3338 314.954 66.3239 314.954 65.1818C314.954 64.0483 314.797 63.0511 314.481 62.1903C314.166 61.3295 313.702 60.6562 313.088 60.1705C312.474 59.6847 311.72 59.4418 310.825 59.4418C309.939 59.4418 309.189 59.6761 308.575 60.1449C307.97 60.6136 307.505 61.2784 307.182 62.1392C306.858 63 306.696 64.0142 306.696 65.1818ZM331.655 75.3835C329.635 75.3835 327.896 74.9744 326.439 74.1562C324.99 73.3295 323.874 72.1619 323.09 70.6534C322.306 69.1364 321.913 67.3423 321.913 65.2713C321.913 63.2514 322.306 61.4787 323.09 59.9531C323.874 58.4276 324.977 57.2386 326.401 56.3864C327.833 55.5341 329.511 55.108 331.438 55.108C332.733 55.108 333.939 55.3168 335.056 55.7344C336.181 56.1435 337.161 56.7614 337.996 57.5881C338.84 58.4148 339.496 59.4545 339.965 60.7074C340.433 61.9517 340.668 63.4091 340.668 65.0795V66.5753H324.087V63.2003H335.541C335.541 62.4162 335.371 61.7216 335.03 61.1165C334.689 60.5114 334.216 60.0384 333.611 59.6974C333.014 59.348 332.32 59.1733 331.527 59.1733C330.7 59.1733 329.967 59.3651 329.328 59.7486C328.698 60.1236 328.203 60.6307 327.845 61.2699C327.487 61.9006 327.304 62.6037 327.296 63.3793V66.5881C327.296 67.5597 327.475 68.3991 327.833 69.1065C328.199 69.8139 328.715 70.3594 329.379 70.7429C330.044 71.1264 330.833 71.3182 331.744 71.3182C332.35 71.3182 332.904 71.233 333.406 71.0625C333.909 70.892 334.34 70.6364 334.698 70.2955C335.056 69.9545 335.328 69.5369 335.516 69.0426L340.553 69.375C340.297 70.5852 339.773 71.642 338.98 72.5455C338.196 73.4403 337.182 74.1392 335.938 74.642C334.702 75.1364 333.274 75.3835 331.655 75.3835ZM347.985 67.8153L355.054 55.3636H360.424V75H355.233V62.5099L348.189 75H342.782V55.3636H347.985V67.8153ZM354.121 48.5114H357.918C357.91 50.0625 357.334 51.3111 356.192 52.2571C355.059 53.2031 353.525 53.6761 351.59 53.6761C349.647 53.6761 348.108 53.2031 346.975 52.2571C345.841 51.3111 345.275 50.0625 345.275 48.5114H349.046C349.037 49.0994 349.225 49.6278 349.608 50.0966C350 50.5653 350.661 50.7997 351.59 50.7997C352.493 50.7997 353.141 50.5696 353.533 50.1094C353.925 49.6491 354.121 49.1165 354.121 48.5114ZM361.378 59.6463V55.3636H379.173V59.6463H372.845V75H367.655V59.6463H361.378ZM386.238 67.8153L393.307 55.3636H398.677V75H393.486V62.5099L386.442 75H381.035V55.3636H386.238V67.8153ZM415.269 63.0085V67.2912H405.016V63.0085H415.269ZM406.805 55.3636V75H401.602V55.3636H406.805ZM418.682 55.3636V75H413.517V55.3636H418.682ZM434.916 55.3636V59.6463H426.76V75H421.467V55.3636H434.916ZM443.791 75V48.8182H449.326V59.6207H460.564V48.8182H466.086V75H460.564V64.1847H449.326V75H443.791ZM469.21 75V48.8182H486.584V53.3821H474.746V58.4957H479.003C481.074 58.4957 482.859 58.8324 484.359 59.5057C485.868 60.1705 487.031 61.1122 487.849 62.331C488.668 63.5497 489.077 64.9858 489.077 66.6392C489.077 68.2841 488.668 69.7372 487.849 70.9986C487.031 72.2514 485.868 73.2315 484.359 73.9389C482.859 74.6463 481.074 75 479.003 75H469.21ZM474.746 70.5511H479.003C479.992 70.5511 480.827 70.3722 481.509 70.0142C482.19 69.6477 482.706 69.1662 483.055 68.5696C483.413 67.9645 483.592 67.304 483.592 66.5881C483.592 65.5483 483.196 64.6705 482.403 63.9545C481.619 63.2301 480.486 62.8679 479.003 62.8679H474.746V70.5511ZM507.059 75L498.647 63.8395H496.755V75H491.219V48.8182H496.755V59.2756H497.867L506.56 48.8182H513.451L503.237 60.9631L513.924 75H507.059ZM515.268 48.8182H520.79V65.2841H521.008L532.322 48.8182H537.167V75H531.631V58.5213H531.44L520.062 75H515.268V48.8182Z" fill="black"/>
<path d="M167.986 241.588V483H111.78V304.565L53.2049 337.408V284.927L126.001 241.588H167.986ZM409.789 418.33H363.403V483H308.552V418.33H189.03V381.424L298.733 242.603H363.403V370.928H409.789V418.33ZM247.945 370.928H308.552V292.714L247.945 370.928ZM465.385 550.717H426.786C439.314 530.402 451.503 506.024 453.196 483H423.062V416.637H486.378V475.213C486.378 506.024 476.559 531.756 465.385 550.717ZM638.003 419.007L587.554 483H525.254L593.987 395.645C586.199 400.723 576.042 404.786 561.144 404.786C516.45 404.786 487.332 372.959 487.332 325.896C487.332 275.785 523.899 238.54 582.475 238.54C641.05 238.54 677.618 275.108 677.618 325.557C677.618 363.817 662.381 387.519 638.003 419.007ZM543.537 325.896C543.537 347.904 558.097 364.156 582.475 364.156C605.837 364.156 621.412 348.242 621.412 325.557C621.412 303.888 606.853 287.974 582.475 287.974C558.097 287.974 543.537 304.226 543.537 325.896ZM753.627 367.88C716.383 367.88 687.603 339.778 687.603 303.21C687.603 266.643 716.383 238.54 753.627 238.54C790.533 238.54 819.313 266.643 819.313 303.21C819.313 339.778 790.533 367.88 753.627 367.88ZM728.91 483L904.975 242.603H953.055L776.651 483H728.91ZM753.627 328.604C768.186 328.604 778.005 317.77 778.005 303.21C778.005 288.651 768.186 277.816 753.627 277.816C739.068 277.816 728.91 288.651 728.91 303.21C728.91 317.77 739.068 328.604 753.627 328.604ZM928.338 487.74C891.432 487.74 862.313 459.638 862.313 423.07C862.313 386.503 891.432 358.4 928.338 358.4C965.244 358.4 994.024 386.503 994.024 423.07C994.024 459.638 965.244 487.74 928.338 487.74ZM928.338 448.464C942.897 448.464 952.716 437.629 952.716 423.07C952.716 408.511 942.897 397.676 928.338 397.676C913.779 397.676 903.621 408.511 903.621 423.07C903.621 437.629 913.779 448.464 928.338 448.464Z" fill="#FF7474"/>
</g>
<defs>
<clipPath id="clip0_3375_2969">
<rect width="1080" height="565" fill="white"/>
</clipPath>
</defs>
</svg>
