<svg width="1080" height="464" viewBox="0 0 1080 464" fill="none" xmlns="http://www.w3.org/2000/svg">
<rect width="1080" height="464" fill="white"/>
<rect x="20" y="20" width="1040" height="424" rx="25" fill="#F7F7F7"/>
<path d="M65.3764 57.9844H59.777C59.6747 57.2599 59.4659 56.6165 59.1506 56.054C58.8352 55.483 58.4304 54.9972 57.9361 54.5966C57.4418 54.196 56.8707 53.8892 56.223 53.6761C55.5838 53.4631 54.8892 53.3565 54.1392 53.3565C52.7841 53.3565 51.6037 53.6932 50.598 54.3665C49.5923 55.0312 48.8125 56.0028 48.2585 57.2812C47.7045 58.5511 47.4276 60.0937 47.4276 61.9091C47.4276 63.7756 47.7045 65.3437 48.2585 66.6136C48.821 67.8835 49.6051 68.8423 50.6108 69.4901C51.6165 70.1378 52.7798 70.4616 54.1009 70.4616C54.8423 70.4616 55.5284 70.3636 56.1591 70.1676C56.7983 69.9716 57.3651 69.6861 57.8594 69.3111C58.3537 68.9276 58.7628 68.4631 59.0866 67.9176C59.419 67.3722 59.6491 66.75 59.777 66.0511L65.3764 66.0767C65.2315 67.2784 64.8693 68.4375 64.2898 69.554C63.7188 70.6619 62.9474 71.6548 61.9759 72.5327C61.0128 73.402 59.8622 74.0923 58.5241 74.6037C57.1946 75.1065 55.6903 75.358 54.0114 75.358C51.6761 75.358 49.5881 74.8295 47.7472 73.7727C45.9148 72.7159 44.4659 71.1861 43.4006 69.1832C42.3438 67.1804 41.8153 64.7557 41.8153 61.9091C41.8153 59.054 42.3523 56.625 43.4261 54.6222C44.5 52.6193 45.9574 51.0937 47.7983 50.0455C49.6392 48.9886 51.7102 48.4602 54.0114 48.4602C55.5284 48.4602 56.9347 48.6733 58.2301 49.0994C59.5341 49.5256 60.6889 50.1477 61.6946 50.9659C62.7003 51.7756 63.5185 52.7685 64.1491 53.9446C64.7884 55.1207 65.1974 56.4673 65.3764 57.9844ZM71.4119 82.3636C70.7216 82.3636 70.0738 82.3082 69.4687 82.1974C68.8721 82.0952 68.3778 81.9631 67.9858 81.8011L69.2131 77.7358C69.8523 77.9318 70.4275 78.0384 70.9389 78.0554C71.4588 78.0724 71.9062 77.9531 72.2812 77.6974C72.6648 77.4418 72.9758 77.0071 73.2145 76.3935L73.5341 75.5625L66.49 55.3636H72.2173L76.2827 69.7841H76.4872L80.5909 55.3636H86.3565L78.7244 77.1222C78.3579 78.179 77.8594 79.0994 77.2287 79.8835C76.6065 80.6761 75.8182 81.2855 74.8636 81.7116C73.9091 82.1463 72.7585 82.3636 71.4119 82.3636ZM104.029 48.1534L105.691 51.7074C105.137 52.1676 104.523 52.5085 103.85 52.7301C103.176 52.9432 102.371 53.0838 101.434 53.152C100.505 53.2202 99.3711 53.267 98.033 53.2926C96.516 53.3097 95.2802 53.5526 94.3256 54.0213C93.3711 54.4901 92.6466 55.2273 92.1523 56.233C91.658 57.2301 91.3341 58.5341 91.1807 60.1449H91.3725C91.9606 58.9432 92.7873 58.0142 93.8526 57.358C94.9265 56.7017 96.2517 56.3736 97.8285 56.3736C99.4989 56.3736 100.961 56.7401 102.213 57.473C103.475 58.206 104.455 59.2585 105.154 60.6307C105.853 62.0028 106.202 63.6477 106.202 65.5653C106.202 67.5597 105.81 69.294 105.026 70.7685C104.25 72.2344 103.147 73.3722 101.715 74.1818C100.283 74.983 98.5785 75.3835 96.6012 75.3835C94.6154 75.3835 92.9023 74.9659 91.462 74.1307C90.0302 73.2955 88.9222 72.0639 88.1381 70.4361C87.3625 68.8082 86.9748 66.8054 86.9748 64.4276V62.8168C86.9748 58.0866 87.8952 54.5795 89.7361 52.2955C91.577 50.0114 94.283 48.8523 97.854 48.8182C98.8256 48.8011 99.7035 48.7969 100.488 48.8054C101.272 48.8139 101.958 48.7756 102.546 48.6903C103.142 48.6051 103.637 48.4261 104.029 48.1534ZM96.6267 71.1648C97.462 71.1648 98.1779 70.9474 98.7745 70.5128C99.3796 70.0781 99.8441 69.456 100.168 68.6463C100.5 67.8366 100.667 66.8693 100.667 65.7443C100.667 64.6278 100.5 63.6818 100.168 62.9062C99.8441 62.1222 99.3796 61.5256 98.7745 61.1165C98.1694 60.7074 97.4449 60.5028 96.6012 60.5028C95.9705 60.5028 95.4037 60.6179 94.9009 60.848C94.3981 61.0781 93.9677 61.419 93.6097 61.8707C93.2603 62.3139 92.9875 62.8636 92.7915 63.5199C92.604 64.1676 92.5103 64.9091 92.5103 65.7443C92.5103 67.4233 92.8725 68.7486 93.5969 69.7202C94.3299 70.6832 95.3398 71.1648 96.6267 71.1648ZM117.249 75.3835C115.238 75.3835 113.507 74.9574 112.059 74.1051C110.618 73.2443 109.51 72.0511 108.735 70.5256C107.968 69 107.584 67.2443 107.584 65.2585C107.584 63.2472 107.972 61.483 108.747 59.9659C109.532 58.4403 110.644 57.2514 112.084 56.3991C113.524 55.5384 115.238 55.108 117.223 55.108C118.936 55.108 120.436 55.419 121.723 56.0412C123.01 56.6634 124.029 57.5369 124.779 58.6619C125.529 59.7869 125.942 61.108 126.019 62.625H120.88C120.735 61.6449 120.351 60.8565 119.729 60.2599C119.115 59.6548 118.31 59.3523 117.313 59.3523C116.469 59.3523 115.732 59.5824 115.101 60.0426C114.479 60.4943 113.993 61.1548 113.644 62.0241C113.294 62.8935 113.12 63.946 113.12 65.1818C113.12 66.4347 113.29 67.5 113.631 68.3778C113.98 69.2557 114.47 69.9247 115.101 70.3849C115.732 70.8452 116.469 71.0753 117.313 71.0753C117.935 71.0753 118.493 70.9474 118.988 70.6918C119.49 70.4361 119.904 70.0653 120.228 69.5795C120.56 69.0852 120.777 68.4929 120.88 67.8026H126.019C125.934 69.3026 125.524 70.6236 124.792 71.7656C124.067 72.8991 123.066 73.7855 121.787 74.4247C120.509 75.0639 118.996 75.3835 117.249 75.3835ZM133.269 67.8153L140.338 55.3636H145.708V75H140.517V62.5099L133.473 75H128.066V55.3636H133.269V67.8153ZM147.099 80.7528V70.679H148.608C149.043 70.4062 149.392 69.9716 149.656 69.375C149.929 68.7784 150.151 68.0753 150.321 67.2656C150.5 66.456 150.636 65.5824 150.73 64.6449C150.832 63.6989 150.922 62.7443 150.999 61.7812L151.51 55.3636H166.57V70.679H169.612V80.7528H164.422V75H152.418V80.7528H147.099ZM154.028 70.679H161.43V59.5568H156.138L155.933 61.7812C155.788 63.8778 155.579 65.6591 155.307 67.125C155.034 68.5824 154.608 69.767 154.028 70.679ZM176.549 67.8153L183.619 55.3636H188.988V75H183.798V62.5099L176.753 75H171.346V55.3636H176.549V67.8153ZM191.914 82.3636V55.3636H197.283V58.6619H197.526C197.764 58.1335 198.11 57.5966 198.561 57.0511C199.022 56.4972 199.618 56.0369 200.351 55.6705C201.093 55.2955 202.013 55.108 203.112 55.108C204.544 55.108 205.865 55.483 207.076 56.233C208.286 56.9744 209.253 58.0952 209.978 59.5952C210.702 61.0866 211.064 62.9574 211.064 65.2074C211.064 67.3977 210.71 69.2472 210.003 70.7557C209.304 72.2557 208.35 73.3935 207.139 74.169C205.938 74.9361 204.591 75.3196 203.1 75.3196C202.043 75.3196 201.144 75.1449 200.402 74.7955C199.669 74.446 199.068 74.0071 198.6 73.4787C198.131 72.9418 197.773 72.4006 197.526 71.8551H197.36V82.3636H191.914ZM197.245 65.1818C197.245 66.3494 197.407 67.3679 197.73 68.2372C198.054 69.1065 198.523 69.7841 199.137 70.2699C199.75 70.7472 200.496 70.9858 201.374 70.9858C202.26 70.9858 203.01 70.7429 203.624 70.2571C204.237 69.7628 204.702 69.081 205.017 68.2116C205.341 67.3338 205.503 66.3239 205.503 65.1818C205.503 64.0483 205.345 63.0511 205.03 62.1903C204.715 61.3295 204.25 60.6562 203.637 60.1705C203.023 59.6847 202.269 59.4418 201.374 59.4418C200.487 59.4418 199.737 59.6761 199.124 60.1449C198.519 60.6136 198.054 61.2784 197.73 62.1392C197.407 63 197.245 64.0142 197.245 65.1818ZM222.127 75.3835C220.141 75.3835 218.424 74.9616 216.975 74.1179C215.535 73.2656 214.422 72.081 213.638 70.5639C212.854 69.0384 212.462 67.2699 212.462 65.2585C212.462 63.2301 212.854 61.4574 213.638 59.9403C214.422 58.4148 215.535 57.2301 216.975 56.3864C218.424 55.5341 220.141 55.108 222.127 55.108C224.113 55.108 225.826 55.5341 227.266 56.3864C228.715 57.2301 229.832 58.4148 230.616 59.9403C231.4 61.4574 231.792 63.2301 231.792 65.2585C231.792 67.2699 231.4 69.0384 230.616 70.5639C229.832 72.081 228.715 73.2656 227.266 74.1179C225.826 74.9616 224.113 75.3835 222.127 75.3835ZM222.153 71.1648C223.056 71.1648 223.81 70.9091 224.415 70.3977C225.02 69.8778 225.476 69.1705 225.783 68.2756C226.099 67.3807 226.256 66.3622 226.256 65.2202C226.256 64.0781 226.099 63.0597 225.783 62.1648C225.476 61.2699 225.02 60.5625 224.415 60.0426C223.81 59.5227 223.056 59.2628 222.153 59.2628C221.241 59.2628 220.474 59.5227 219.851 60.0426C219.238 60.5625 218.773 61.2699 218.458 62.1648C218.151 63.0597 217.998 64.0781 217.998 65.2202C217.998 66.3622 218.151 67.3807 218.458 68.2756C218.773 69.1705 219.238 69.8778 219.851 70.3977C220.474 70.9091 221.241 71.1648 222.153 71.1648ZM233.893 75V55.3636H242.267C244.687 55.3636 246.6 55.8239 248.007 56.7443C249.413 57.6648 250.116 58.973 250.116 60.669C250.116 61.7344 249.72 62.6207 248.927 63.3281C248.134 64.0355 247.035 64.5128 245.629 64.7599C246.805 64.8452 247.806 65.1136 248.633 65.5653C249.468 66.0085 250.103 66.5838 250.538 67.2912C250.981 67.9986 251.203 68.7827 251.203 69.6435C251.203 70.7599 250.904 71.7187 250.308 72.5199C249.72 73.321 248.855 73.9347 247.713 74.3608C246.579 74.7869 245.194 75 243.558 75H233.893ZM238.968 70.9219H243.558C244.316 70.9219 244.909 70.7429 245.335 70.3849C245.769 70.0185 245.987 69.5199 245.987 68.8892C245.987 68.1903 245.769 67.6406 245.335 67.2401C244.909 66.8395 244.316 66.6392 243.558 66.6392H238.968V70.9219ZM238.968 63.4432H242.382C242.927 63.4432 243.392 63.3665 243.775 63.2131C244.167 63.0511 244.465 62.821 244.67 62.5227C244.883 62.2244 244.99 61.8707 244.99 61.4616C244.99 60.8565 244.747 60.3835 244.261 60.0426C243.775 59.7017 243.11 59.5312 242.267 59.5312H238.968V63.4432ZM258.795 75.3707C257.542 75.3707 256.425 75.1534 255.445 74.7188C254.465 74.2756 253.689 73.6236 253.118 72.7628C252.556 71.8935 252.275 70.8111 252.275 69.5156C252.275 68.4247 252.475 67.5085 252.876 66.767C253.276 66.0256 253.822 65.429 254.512 64.9773C255.202 64.5256 255.986 64.1847 256.864 63.9545C257.751 63.7244 258.68 63.5625 259.651 63.4688C260.793 63.3494 261.714 63.2386 262.413 63.1364C263.111 63.0256 263.618 62.8636 263.934 62.6506C264.249 62.4375 264.407 62.1222 264.407 61.7045V61.6278C264.407 60.8182 264.151 60.1918 263.64 59.7486C263.137 59.3054 262.421 59.0838 261.492 59.0838C260.512 59.0838 259.732 59.3011 259.153 59.7358C258.573 60.1619 258.189 60.6989 258.002 61.3466L252.965 60.9375C253.221 59.7443 253.724 58.7131 254.474 57.8438C255.224 56.9659 256.191 56.2926 257.376 55.8239C258.569 55.3466 259.949 55.108 261.518 55.108C262.609 55.108 263.653 55.2358 264.65 55.4915C265.655 55.7472 266.546 56.1435 267.322 56.6804C268.106 57.2173 268.724 57.9077 269.175 58.7514C269.627 59.5866 269.853 60.5881 269.853 61.7557V75H264.688V72.277H264.535C264.219 72.8906 263.797 73.4318 263.269 73.9006C262.741 74.3608 262.106 74.723 261.364 74.9872C260.623 75.2429 259.766 75.3707 258.795 75.3707ZM260.354 71.6122C261.155 71.6122 261.863 71.4545 262.476 71.1392C263.09 70.8153 263.572 70.3807 263.921 69.8352C264.27 69.2898 264.445 68.6719 264.445 67.9815V65.8977C264.275 66.0085 264.04 66.1108 263.742 66.2045C263.452 66.2898 263.124 66.3707 262.758 66.4474C262.391 66.5156 262.025 66.5795 261.658 66.6392C261.292 66.6903 260.959 66.7372 260.661 66.7798C260.022 66.8736 259.464 67.0227 258.986 67.2273C258.509 67.4318 258.138 67.7088 257.874 68.0582C257.61 68.3991 257.478 68.8253 257.478 69.3366C257.478 70.0781 257.746 70.6449 258.283 71.0369C258.829 71.4205 259.519 71.6122 260.354 71.6122ZM286.304 63.0085V67.2912H276.051V63.0085H286.304ZM277.841 55.3636V75H272.638V55.3636H277.841ZM289.718 55.3636V75H284.553V55.3636H289.718ZM306.169 63.0085V67.2912H295.916V63.0085H306.169ZM297.706 55.3636V75H292.503V55.3636H297.706ZM309.582 55.3636V75H304.417V55.3636H309.582ZM315.781 61.3977H321.649C324.248 61.3977 326.276 62.0199 327.734 63.2642C329.191 64.5 329.92 66.1534 329.92 68.2244C329.92 69.571 329.592 70.7557 328.936 71.7784C328.279 72.7926 327.333 73.5852 326.097 74.1562C324.862 74.7188 323.379 75 321.649 75H312.367V55.3636H317.57V70.7173H321.649C322.561 70.7173 323.311 70.4872 323.899 70.027C324.487 69.5668 324.785 68.9787 324.793 68.2628C324.785 67.5043 324.487 66.8864 323.899 66.4091C323.311 65.9233 322.561 65.6804 321.649 65.6804H315.781V61.3977ZM332.029 75V55.3636H337.475V75H332.029ZM349.337 75.3835C347.317 75.3835 345.579 74.9744 344.121 74.1562C342.672 73.3295 341.556 72.1619 340.772 70.6534C339.988 69.1364 339.596 67.3423 339.596 65.2713C339.596 63.2514 339.988 61.4787 340.772 59.9531C341.556 58.4276 342.66 57.2386 344.083 56.3864C345.515 55.5341 347.194 55.108 349.12 55.108C350.415 55.108 351.621 55.3168 352.738 55.7344C353.863 56.1435 354.843 56.7614 355.678 57.5881C356.522 58.4148 357.178 59.4545 357.647 60.7074C358.116 61.9517 358.35 63.4091 358.35 65.0795V66.5753H341.769V63.2003H353.224C353.224 62.4162 353.053 61.7216 352.712 61.1165C352.371 60.5114 351.898 60.0384 351.293 59.6974C350.697 59.348 350.002 59.1733 349.209 59.1733C348.383 59.1733 347.65 59.3651 347.01 59.7486C346.38 60.1236 345.885 60.6307 345.527 61.2699C345.17 61.9006 344.986 62.6037 344.978 63.3793V66.5881C344.978 67.5597 345.157 68.3991 345.515 69.1065C345.881 69.8139 346.397 70.3594 347.062 70.7429C347.726 71.1264 348.515 71.3182 349.427 71.3182C350.032 71.3182 350.586 71.233 351.089 71.0625C351.591 70.892 352.022 70.6364 352.38 70.2955C352.738 69.9545 353.01 69.5369 353.198 69.0426L358.235 69.375C357.979 70.5852 357.455 71.642 356.662 72.5455C355.878 73.4403 354.864 74.1392 353.62 74.642C352.384 75.1364 350.956 75.3835 349.337 75.3835ZM372.559 67.8153L379.629 55.3636H384.998V75H379.808V62.5099L372.764 75H367.356V55.3636H372.559V67.8153ZM387.924 75V55.3636H405.093V75H399.89V59.6463H393.063V75H387.924ZM416.872 75.3835C414.886 75.3835 413.168 74.9616 411.72 74.1179C410.279 73.2656 409.167 72.081 408.383 70.5639C407.599 69.0384 407.207 67.2699 407.207 65.2585C407.207 63.2301 407.599 61.4574 408.383 59.9403C409.167 58.4148 410.279 57.2301 411.72 56.3864C413.168 55.5341 414.886 55.108 416.872 55.108C418.857 55.108 420.57 55.5341 422.011 56.3864C423.46 57.2301 424.576 58.4148 425.36 59.9403C426.144 61.4574 426.536 63.2301 426.536 65.2585C426.536 67.2699 426.144 69.0384 425.36 70.5639C424.576 72.081 423.46 73.2656 422.011 74.1179C420.57 74.9616 418.857 75.3835 416.872 75.3835ZM416.897 71.1648C417.801 71.1648 418.555 70.9091 419.16 70.3977C419.765 69.8778 420.221 69.1705 420.528 68.2756C420.843 67.3807 421.001 66.3622 421.001 65.2202C421.001 64.0781 420.843 63.0597 420.528 62.1648C420.221 61.2699 419.765 60.5625 419.16 60.0426C418.555 59.5227 417.801 59.2628 416.897 59.2628C415.985 59.2628 415.218 59.5227 414.596 60.0426C413.982 60.5625 413.518 61.2699 413.203 62.1648C412.896 63.0597 412.742 64.0781 412.742 65.2202C412.742 66.3622 412.896 67.3807 413.203 68.2756C413.518 69.1705 413.982 69.8778 414.596 70.3977C415.218 70.9091 415.985 71.1648 416.897 71.1648ZM426.736 59.6463V55.3636H444.531V59.6463H438.203V75H433.013V59.6463H426.736ZM454.639 75.3835C452.619 75.3835 450.88 74.9744 449.423 74.1562C447.974 73.3295 446.857 72.1619 446.073 70.6534C445.289 69.1364 444.897 67.3423 444.897 65.2713C444.897 63.2514 445.289 61.4787 446.073 59.9531C446.857 58.4276 447.961 57.2386 449.384 56.3864C450.816 55.5341 452.495 55.108 454.421 55.108C455.717 55.108 456.923 55.3168 458.039 55.7344C459.164 56.1435 460.144 56.7614 460.979 57.5881C461.823 58.4148 462.479 59.4545 462.948 60.7074C463.417 61.9517 463.651 63.4091 463.651 65.0795V66.5753H447.07V63.2003H458.525C458.525 62.4162 458.354 61.7216 458.014 61.1165C457.673 60.5114 457.2 60.0384 456.595 59.6974C455.998 59.348 455.303 59.1733 454.511 59.1733C453.684 59.1733 452.951 59.3651 452.312 59.7486C451.681 60.1236 451.187 60.6307 450.829 61.2699C450.471 61.9006 450.288 62.6037 450.279 63.3793V66.5881C450.279 67.5597 450.458 68.3991 450.816 69.1065C451.183 69.8139 451.698 70.3594 452.363 70.7429C453.028 71.1264 453.816 71.3182 454.728 71.3182C455.333 71.3182 455.887 71.233 456.39 71.0625C456.893 70.892 457.323 70.6364 457.681 70.2955C458.039 69.9545 458.312 69.5369 458.499 69.0426L463.536 69.375C463.281 70.5852 462.756 71.642 461.964 72.5455C461.18 73.4403 460.166 74.1392 458.921 74.642C457.685 75.1364 456.258 75.3835 454.639 75.3835ZM465.765 75V55.3636H471.211V62.983H472.745L478.089 55.3636H484.481L477.539 65.1051L484.558 75H478.089L473.244 68.0327H471.211V75H465.765ZM490.622 67.8153L497.692 55.3636H503.061V75H497.871V62.5099L490.827 75H485.419V55.3636H490.622V67.8153Z" fill="black"/>
<path opacity="0.4" d="M1040 422.001H40.0001V277.5L540.5 208L1040 175V422.001Z" fill="url(#paint0_linear_3375_2633)"/>
<rect x="1035" y="170" width="10.2717" height="10.2717" rx="5.13587" fill="#04B34A"/>
<path d="M1041 175L540 208L39.5 278.5" stroke="#04B34A" stroke-width="4"/>
<path d="M41.9176 243.455V258H39.7159V245.656H39.6307L36.1506 247.929V245.827L39.7798 243.455H41.9176ZM45.3243 255.159V253.384L51.6098 243.455H53.009V246.068H52.1212L47.6255 253.185V253.298H56.2405V255.159H45.3243ZM52.2206 258V254.619L52.2348 253.81V243.455H54.3158V258H52.2206ZM60.7374 256.011L60.6309 256.786C60.5599 257.354 60.4391 257.946 60.2687 258.561C60.103 259.181 59.9301 259.757 59.7502 260.287C59.575 260.817 59.4306 261.239 59.317 261.551H57.8113C57.8728 261.258 57.9581 260.86 58.067 260.358C58.1759 259.861 58.2824 259.304 58.3866 258.689C58.4907 258.073 58.5689 257.446 58.6209 256.807L58.692 256.011H60.7374ZM63.18 255.159V253.384L69.4655 243.455H70.8647V246.068H69.9769L65.4811 253.185V253.298H74.0962V255.159H63.18ZM70.0763 258V254.619L70.0905 253.81V243.455H72.1715V258H70.0763ZM83.9411 255.273V254.506C83.9411 253.956 84.0547 253.455 84.282 253C84.514 252.541 84.8502 252.174 85.2905 251.899C85.7356 251.62 86.273 251.48 86.9028 251.48C87.5467 251.48 88.0865 251.617 88.5221 251.892C88.9577 252.167 89.2867 252.534 89.5093 252.993C89.7366 253.452 89.8502 253.956 89.8502 254.506V255.273C89.8502 255.822 89.7366 256.326 89.5093 256.786C89.282 257.24 88.9482 257.607 88.5079 257.886C88.0723 258.161 87.5372 258.298 86.9028 258.298C86.2635 258.298 85.7238 258.161 85.2834 257.886C84.8431 257.607 84.5093 257.24 84.282 256.786C84.0547 256.326 83.9411 255.822 83.9411 255.273ZM85.5959 254.506V255.273C85.5959 255.68 85.693 256.049 85.8871 256.381C86.0813 256.712 86.4198 256.878 86.9028 256.878C87.381 256.878 87.7148 256.712 87.9042 256.381C88.0936 256.049 88.1883 255.68 88.1883 255.273V254.506C88.1883 254.098 88.0959 253.729 87.9113 253.398C87.7314 253.066 87.3952 252.901 86.9028 252.901C86.4293 252.901 86.0931 253.066 85.8942 253.398C85.6954 253.729 85.5959 254.098 85.5959 254.506ZM76.6258 246.949V246.182C76.6258 245.633 76.7394 245.128 76.9667 244.669C77.1987 244.21 77.5349 243.843 77.9752 243.568C78.4203 243.294 78.9577 243.156 79.5874 243.156C80.2314 243.156 80.7711 243.294 81.2067 243.568C81.6423 243.843 81.9714 244.21 82.1939 244.669C82.4165 245.128 82.5278 245.633 82.5278 246.182V246.949C82.5278 247.498 82.4141 248.002 82.1868 248.462C81.9643 248.916 81.6329 249.283 81.1925 249.562C80.7569 249.837 80.2219 249.974 79.5874 249.974C78.9435 249.974 78.4013 249.837 77.961 249.562C77.5254 249.283 77.1939 248.916 76.9667 248.462C76.7394 248.002 76.6258 247.498 76.6258 246.949ZM78.2877 246.182V246.949C78.2877 247.356 78.3824 247.725 78.5718 248.057C78.7659 248.388 79.1045 248.554 79.5874 248.554C80.0609 248.554 80.3923 248.388 80.5817 248.057C80.7759 247.725 80.8729 247.356 80.8729 246.949V246.182C80.8729 245.775 80.7806 245.405 80.5959 245.074C80.4113 244.742 80.0751 244.577 79.5874 244.577C79.1139 244.577 78.7778 244.742 78.5789 245.074C78.3848 245.405 78.2877 245.775 78.2877 246.182ZM77.3005 258L87.3005 243.455H88.9979L78.9979 258H77.3005Z" fill="#CFCFCF"/>
<path d="M506.754 194V192.409L511.676 187.31C512.202 186.756 512.635 186.27 512.976 185.854C513.322 185.432 513.58 185.032 513.75 184.653C513.921 184.275 514.006 183.872 514.006 183.446C514.006 182.963 513.892 182.546 513.665 182.196C513.438 181.841 513.128 181.569 512.735 181.379C512.342 181.185 511.899 181.088 511.406 181.088C510.886 181.088 510.431 181.195 510.043 181.408C509.655 181.621 509.356 181.921 509.148 182.31C508.94 182.698 508.835 183.152 508.835 183.673H506.74C506.74 182.788 506.944 182.014 507.351 181.351C507.758 180.688 508.317 180.174 509.027 179.81C509.737 179.44 510.545 179.256 511.449 179.256C512.363 179.256 513.168 179.438 513.864 179.803C514.565 180.162 515.111 180.655 515.504 181.28C515.897 181.9 516.094 182.601 516.094 183.382C516.094 183.922 515.992 184.45 515.789 184.966C515.59 185.482 515.242 186.057 514.744 186.692C514.247 187.321 513.556 188.086 512.671 188.986L509.78 192.011V192.118H516.328V194H506.754ZM518.18 191.159V189.384L524.465 179.455H525.864V182.068H524.976L520.481 189.185V189.298H529.096V191.159H518.18ZM525.076 194V190.619L525.09 189.81V179.455H527.171V194H525.076ZM533.593 192.011L533.486 192.786C533.415 193.354 533.294 193.946 533.124 194.561C532.958 195.181 532.785 195.757 532.605 196.287C532.43 196.817 532.286 197.239 532.172 197.551H530.667C530.728 197.258 530.813 196.86 530.922 196.358C531.031 195.861 531.138 195.304 531.242 194.689C531.346 194.073 531.424 193.446 531.476 192.807L531.547 192.011H533.593ZM540.877 194.199C539.902 194.199 539.031 194.031 538.264 193.695C537.501 193.358 536.898 192.892 536.453 192.295C536.012 191.694 535.775 190.998 535.742 190.207H537.972C538.001 190.638 538.145 191.012 538.406 191.33C538.671 191.642 539.016 191.884 539.443 192.054C539.869 192.224 540.342 192.31 540.863 192.31C541.436 192.31 541.943 192.21 542.383 192.011C542.828 191.812 543.176 191.536 543.427 191.18C543.678 190.821 543.803 190.406 543.803 189.938C543.803 189.45 543.678 189.021 543.427 188.652C543.181 188.278 542.819 187.984 542.34 187.771C541.867 187.558 541.294 187.452 540.622 187.452H539.393V185.662H540.622C541.161 185.662 541.635 185.565 542.042 185.371C542.454 185.177 542.776 184.907 543.008 184.561C543.24 184.211 543.356 183.801 543.356 183.332C543.356 182.883 543.254 182.492 543.051 182.161C542.852 181.824 542.568 181.562 542.198 181.372C541.834 181.183 541.403 181.088 540.906 181.088C540.432 181.088 539.989 181.176 539.578 181.351C539.17 181.521 538.839 181.768 538.583 182.089C538.328 182.407 538.19 182.788 538.171 183.233H536.048C536.071 182.447 536.303 181.756 536.744 181.159C537.189 180.562 537.776 180.096 538.505 179.76C539.234 179.424 540.044 179.256 540.934 179.256C541.867 179.256 542.672 179.438 543.349 179.803C544.031 180.162 544.556 180.643 544.926 181.244C545.3 181.846 545.484 182.504 545.48 183.219C545.484 184.033 545.257 184.724 544.798 185.293C544.343 185.861 543.737 186.242 542.98 186.436V186.55C543.945 186.696 544.694 187.08 545.224 187.7C545.759 188.321 546.024 189.09 546.019 190.009C546.024 190.809 545.801 191.526 545.352 192.161C544.907 192.795 544.298 193.295 543.526 193.659C542.755 194.019 541.872 194.199 540.877 194.199ZM556.074 191.273V190.506C556.074 189.956 556.187 189.455 556.415 189C556.647 188.541 556.983 188.174 557.423 187.899C557.868 187.62 558.406 187.48 559.035 187.48C559.679 187.48 560.219 187.617 560.655 187.892C561.09 188.167 561.419 188.534 561.642 188.993C561.869 189.452 561.983 189.956 561.983 190.506V191.273C561.983 191.822 561.869 192.326 561.642 192.786C561.415 193.24 561.081 193.607 560.64 193.886C560.205 194.161 559.67 194.298 559.035 194.298C558.396 194.298 557.856 194.161 557.416 193.886C556.976 193.607 556.642 193.24 556.415 192.786C556.187 192.326 556.074 191.822 556.074 191.273ZM557.729 190.506V191.273C557.729 191.68 557.826 192.049 558.02 192.381C558.214 192.712 558.552 192.878 559.035 192.878C559.514 192.878 559.847 192.712 560.037 192.381C560.226 192.049 560.321 191.68 560.321 191.273V190.506C560.321 190.098 560.229 189.729 560.044 189.398C559.864 189.066 559.528 188.901 559.035 188.901C558.562 188.901 558.226 189.066 558.027 189.398C557.828 189.729 557.729 190.098 557.729 190.506ZM548.758 182.949V182.182C548.758 181.633 548.872 181.128 549.099 180.669C549.331 180.21 549.667 179.843 550.108 179.568C550.553 179.294 551.09 179.156 551.72 179.156C552.364 179.156 552.904 179.294 553.339 179.568C553.775 179.843 554.104 180.21 554.327 180.669C554.549 181.128 554.66 181.633 554.66 182.182V182.949C554.66 183.498 554.547 184.002 554.319 184.462C554.097 184.916 553.765 185.283 553.325 185.562C552.89 185.837 552.354 185.974 551.72 185.974C551.076 185.974 550.534 185.837 550.094 185.562C549.658 185.283 549.327 184.916 549.099 184.462C548.872 184.002 548.758 183.498 548.758 182.949ZM550.42 182.182V182.949C550.42 183.356 550.515 183.725 550.704 184.057C550.899 184.388 551.237 184.554 551.72 184.554C552.194 184.554 552.525 184.388 552.714 184.057C552.908 183.725 553.006 183.356 553.006 182.949V182.182C553.006 181.775 552.913 181.405 552.729 181.074C552.544 180.742 552.208 180.577 551.72 180.577C551.247 180.577 550.91 180.742 550.711 181.074C550.517 181.405 550.42 181.775 550.42 182.182ZM549.433 194L559.433 179.455H561.131L551.131 194H549.433Z" fill="#CFCFCF"/>
<path d="M984.325 159V157.409L989.246 152.31C989.772 151.756 990.205 151.27 990.546 150.854C990.892 150.432 991.15 150.032 991.32 149.653C991.491 149.275 991.576 148.872 991.576 148.446C991.576 147.963 991.462 147.546 991.235 147.196C991.008 146.841 990.698 146.569 990.305 146.379C989.912 146.185 989.469 146.088 988.977 146.088C988.456 146.088 988.001 146.195 987.613 146.408C987.225 146.621 986.926 146.921 986.718 147.31C986.51 147.698 986.405 148.152 986.405 148.673H984.31C984.31 147.788 984.514 147.014 984.921 146.351C985.328 145.688 985.887 145.174 986.597 144.81C987.307 144.44 988.115 144.256 989.019 144.256C989.933 144.256 990.738 144.438 991.434 144.803C992.135 145.162 992.682 145.655 993.075 146.28C993.468 146.9 993.664 147.601 993.664 148.382C993.664 148.922 993.562 149.45 993.359 149.966C993.16 150.482 992.812 151.057 992.315 151.692C991.817 152.321 991.126 153.086 990.241 153.986L987.35 157.011V157.118H993.898V159H984.325ZM1001.28 159.199C1000.26 159.199 999.365 159.024 998.584 158.673C997.807 158.323 997.199 157.84 996.758 157.224C996.318 156.609 996.1 155.908 996.105 155.122C996.1 154.507 996.226 153.941 996.481 153.425C996.742 152.904 997.094 152.471 997.539 152.125C997.985 151.775 998.482 151.552 999.031 151.457V151.372C998.307 151.197 997.726 150.809 997.291 150.207C996.855 149.606 996.64 148.915 996.645 148.134C996.64 147.39 996.836 146.727 997.234 146.145C997.637 145.558 998.188 145.096 998.889 144.76C999.59 144.424 1000.39 144.256 1001.28 144.256C1002.17 144.256 1002.96 144.426 1003.65 144.767C1004.36 145.103 1004.91 145.565 1005.31 146.152C1005.71 146.734 1005.92 147.395 1005.92 148.134C1005.92 148.915 1005.69 149.606 1005.25 150.207C1004.81 150.809 1004.24 151.197 1003.53 151.372V151.457C1004.08 151.552 1004.57 151.775 1005 152.125C1005.44 152.471 1005.79 152.904 1006.06 153.425C1006.32 153.941 1006.46 154.507 1006.46 155.122C1006.46 155.908 1006.23 156.609 1005.79 157.224C1005.35 157.84 1004.74 158.323 1003.96 158.673C1003.18 159.024 1002.29 159.199 1001.28 159.199ZM1001.28 157.402C1001.88 157.402 1002.4 157.303 1002.84 157.104C1003.29 156.9 1003.63 156.618 1003.87 156.259C1004.11 155.894 1004.23 155.468 1004.24 154.98C1004.23 154.473 1004.1 154.026 1003.84 153.638C1003.58 153.25 1003.24 152.944 1002.8 152.722C1002.35 152.499 1001.85 152.388 1001.28 152.388C1000.71 152.388 1000.2 152.499 999.755 152.722C999.31 152.944 998.96 153.25 998.704 153.638C998.449 154.026 998.323 154.473 998.328 154.98C998.323 155.468 998.439 155.894 998.676 156.259C998.917 156.618 999.261 156.9 999.706 157.104C1000.15 157.303 1000.68 157.402 1001.28 157.402ZM1001.28 150.634C1001.77 150.634 1002.19 150.536 1002.57 150.342C1002.94 150.148 1003.24 149.878 1003.45 149.533C1003.67 149.187 1003.78 148.782 1003.78 148.318C1003.78 147.864 1003.67 147.466 1003.46 147.125C1003.25 146.784 1002.96 146.521 1002.58 146.337C1002.21 146.147 1001.77 146.053 1001.28 146.053C1000.78 146.053 1000.34 146.147 999.961 146.337C999.587 146.521 999.296 146.784 999.088 147.125C998.879 147.466 998.778 147.864 998.782 148.318C998.778 148.782 998.882 149.187 999.095 149.533C999.308 149.878 999.601 150.148 999.976 150.342C1000.35 150.536 1000.79 150.634 1001.28 150.634ZM1011.14 157.011L1011.04 157.786C1010.97 158.354 1010.84 158.946 1010.67 159.561C1010.51 160.181 1010.34 160.757 1010.16 161.287C1009.98 161.817 1009.84 162.239 1009.72 162.551H1008.22C1008.28 162.258 1008.36 161.86 1008.47 161.358C1008.58 160.861 1008.69 160.304 1008.79 159.689C1008.9 159.073 1008.97 158.446 1009.03 157.807L1009.1 157.011H1011.14ZM1018.46 159.199C1017.57 159.199 1016.77 159.028 1016.06 158.688C1015.35 158.342 1014.79 157.868 1014.37 157.267C1013.95 156.666 1013.72 155.979 1013.69 155.207H1015.82C1015.88 155.832 1016.15 156.346 1016.65 156.749C1017.16 157.151 1017.76 157.352 1018.46 157.352C1019.02 157.352 1019.51 157.224 1019.94 156.969C1020.38 156.708 1020.72 156.351 1020.97 155.896C1021.22 155.442 1021.34 154.923 1021.34 154.341C1021.34 153.749 1021.21 153.221 1020.96 152.757C1020.7 152.293 1020.35 151.929 1019.9 151.663C1019.45 151.398 1018.94 151.263 1018.37 151.259C1017.93 151.259 1017.48 151.334 1017.04 151.486C1016.59 151.637 1016.23 151.836 1015.96 152.082L1013.95 151.784L1014.76 144.455H1022.76V146.337H1016.59L1016.13 150.406H1016.21C1016.5 150.132 1016.87 149.902 1017.34 149.717C1017.82 149.533 1018.32 149.44 1018.86 149.44C1019.75 149.44 1020.54 149.651 1021.23 150.072C1021.92 150.494 1022.47 151.069 1022.87 151.798C1023.27 152.523 1023.47 153.356 1023.47 154.298C1023.47 155.241 1023.26 156.081 1022.83 156.82C1022.4 157.558 1021.81 158.141 1021.05 158.567C1020.3 158.988 1019.43 159.199 1018.46 159.199ZM1033.43 156.273V155.506C1033.43 154.956 1033.54 154.455 1033.77 154C1034 153.541 1034.34 153.174 1034.78 152.899C1035.22 152.62 1035.76 152.48 1036.39 152.48C1037.03 152.48 1037.57 152.617 1038.01 152.892C1038.45 153.167 1038.77 153.534 1039 153.993C1039.22 154.452 1039.34 154.956 1039.34 155.506V156.273C1039.34 156.822 1039.22 157.326 1039 157.786C1038.77 158.24 1038.44 158.607 1038 158.886C1037.56 159.161 1037.03 159.298 1036.39 159.298C1035.75 159.298 1035.21 159.161 1034.77 158.886C1034.33 158.607 1034 158.24 1033.77 157.786C1033.54 157.326 1033.43 156.822 1033.43 156.273ZM1035.08 155.506V156.273C1035.08 156.68 1035.18 157.049 1035.38 157.381C1035.57 157.712 1035.91 157.878 1036.39 157.878C1036.87 157.878 1037.2 157.712 1037.39 157.381C1037.58 157.049 1037.68 156.68 1037.68 156.273V155.506C1037.68 155.098 1037.58 154.729 1037.4 154.398C1037.22 154.066 1036.88 153.901 1036.39 153.901C1035.92 153.901 1035.58 154.066 1035.38 154.398C1035.18 154.729 1035.08 155.098 1035.08 155.506ZM1026.11 147.949V147.182C1026.11 146.633 1026.23 146.128 1026.45 145.669C1026.69 145.21 1027.02 144.843 1027.46 144.568C1027.91 144.294 1028.45 144.156 1029.08 144.156C1029.72 144.156 1030.26 144.294 1030.69 144.568C1031.13 144.843 1031.46 145.21 1031.68 145.669C1031.9 146.128 1032.02 146.633 1032.02 147.182V147.949C1032.02 148.498 1031.9 149.002 1031.67 149.462C1031.45 149.916 1031.12 150.283 1030.68 150.562C1030.24 150.837 1029.71 150.974 1029.08 150.974C1028.43 150.974 1027.89 150.837 1027.45 150.562C1027.01 150.283 1026.68 149.916 1026.45 149.462C1026.23 149.002 1026.11 148.498 1026.11 147.949ZM1027.78 147.182V147.949C1027.78 148.356 1027.87 148.725 1028.06 149.057C1028.25 149.388 1028.59 149.554 1029.08 149.554C1029.55 149.554 1029.88 149.388 1030.07 149.057C1030.26 148.725 1030.36 148.356 1030.36 147.949V147.182C1030.36 146.775 1030.27 146.405 1030.08 146.074C1029.9 145.742 1029.56 145.577 1029.08 145.577C1028.6 145.577 1028.27 145.742 1028.07 146.074C1027.87 146.405 1027.78 146.775 1027.78 147.182ZM1026.79 159L1036.79 144.455H1038.49L1028.49 159H1026.79Z" fill="#CFCFCF"/>
<rect x="535" y="203" width="10" height="10" rx="5" fill="white" stroke="#04B34A" stroke-width="4"/>
<path opacity="0.6" d="M41.2912 407.909H43.6435V416.832H43.7649L49.9205 407.909H52.049V421H49.6776V412.083H49.5689L43.3942 421H41.2912V407.909ZM58.8044 407.909V421H56.433V407.909H58.8044ZM61.6361 413.694V415.599H57.5132V413.694H61.6361ZM72.9245 414.455C72.9245 415.865 72.6603 417.073 72.1319 418.079C71.6077 419.08 70.8918 419.847 69.9841 420.38C69.0807 420.913 68.0559 421.179 66.9096 421.179C65.7632 421.179 64.7363 420.913 63.8286 420.38C62.9252 419.843 62.2093 419.074 61.6809 418.072C61.1567 417.067 60.8946 415.861 60.8946 414.455C60.8946 413.044 61.1567 411.838 61.6809 410.837C62.2093 409.831 62.9252 409.062 63.8286 408.529C64.7363 407.996 65.7632 407.73 66.9096 407.73C68.0559 407.73 69.0807 407.996 69.9841 408.529C70.8918 409.062 71.6077 409.831 72.1319 410.837C72.6603 411.838 72.9245 413.044 72.9245 414.455ZM70.5402 414.455C70.5402 413.462 70.3847 412.624 70.0736 411.942C69.7668 411.256 69.3407 410.739 68.7952 410.389C68.2498 410.036 67.6212 409.859 66.9096 409.859C66.1979 409.859 65.5694 410.036 65.0239 410.389C64.4784 410.739 64.0502 411.256 63.7391 411.942C63.4323 412.624 63.2789 413.462 63.2789 414.455C63.2789 415.447 63.4323 416.287 63.7391 416.973C64.0502 417.655 64.4784 418.173 65.0239 418.526C65.5694 418.876 66.1979 419.05 66.9096 419.05C67.6212 419.05 68.2498 418.876 68.7952 418.526C69.3407 418.173 69.7668 417.655 70.0736 416.973C70.3847 416.287 70.5402 415.447 70.5402 414.455ZM76.1387 421V419.031L76.5094 419.012C77.0123 418.982 77.4107 418.801 77.7048 418.469C78.0031 418.136 78.2225 417.602 78.3631 416.864C78.508 416.127 78.6039 415.138 78.6508 413.898L78.8681 407.909H87.4462V421H85.1259V409.859H81.0798L80.8752 414.634C80.8156 416.065 80.6579 417.252 80.4022 418.194C80.1508 419.136 79.7374 419.839 79.1621 420.303C78.5911 420.768 77.7964 421 76.7779 421H76.1387ZM93.4362 412.965H96.7601C97.7615 412.965 98.6202 413.129 99.3361 413.457C100.056 413.781 100.608 414.239 100.992 414.832C101.375 415.424 101.567 416.121 101.567 416.922C101.567 417.727 101.375 418.437 100.992 419.05C100.608 419.66 100.056 420.137 99.3361 420.482C98.6202 420.827 97.7615 421 96.7601 421H91.8574V407.909H94.2352V419.057H96.7601C97.2885 419.057 97.7359 418.957 98.1024 418.756C98.4689 418.556 98.7459 418.292 98.9334 417.964C99.1251 417.636 99.221 417.28 99.221 416.896C99.221 416.342 99.008 415.871 98.5818 415.484C98.1599 415.092 97.5527 414.896 96.7601 414.896H93.4362V412.965Z" fill="black"/>
<path opacity="0.6" d="M502.174 421H499.643L504.252 407.909H507.179L511.794 421H509.263L505.767 410.594H505.665L502.174 421ZM502.258 415.867H509.161V417.772H502.258V415.867ZM515.319 421V407.909H520.33C521.276 407.909 522.062 408.058 522.689 408.357C523.319 408.651 523.79 409.053 524.101 409.565C524.417 410.076 524.574 410.656 524.574 411.303C524.574 411.836 524.472 412.292 524.268 412.671C524.063 413.046 523.788 413.351 523.443 413.585C523.098 413.82 522.712 413.988 522.286 414.09V414.218C522.751 414.244 523.196 414.386 523.622 414.646C524.052 414.902 524.404 415.264 524.677 415.733C524.949 416.202 525.086 416.768 525.086 417.433C525.086 418.111 524.922 418.72 524.594 419.261C524.265 419.798 523.771 420.222 523.111 420.533C522.45 420.844 521.619 421 520.618 421H515.319ZM517.69 419.018H520.241C521.101 419.018 521.721 418.854 522.101 418.526C522.484 418.194 522.676 417.768 522.676 417.248C522.676 416.86 522.58 416.511 522.388 416.2C522.197 415.884 521.924 415.637 521.57 415.458C521.216 415.275 520.795 415.183 520.305 415.183H517.69V419.018ZM517.69 413.477H520.036C520.445 413.477 520.814 413.402 521.142 413.253C521.47 413.099 521.728 412.884 521.915 412.607C522.107 412.326 522.203 411.994 522.203 411.61C522.203 411.103 522.024 410.685 521.666 410.357C521.312 410.029 520.786 409.865 520.087 409.865H517.69V413.477ZM537.367 407.909V409.897H531.32V421H528.949V407.909H537.367ZM542.342 421.179V419.185H543.09C543.427 419.185 543.704 419.136 543.921 419.038C544.139 418.94 544.313 418.799 544.445 418.616C544.582 418.433 544.695 418.219 544.784 417.977L544.957 417.536L540.278 407.909H542.758L546.018 414.915L548.837 407.909H551.278L546.766 418.584C546.557 419.044 546.316 419.472 546.043 419.869C545.771 420.261 545.415 420.578 544.976 420.821C544.541 421.06 543.974 421.179 543.276 421.179H542.342ZM565.235 412.326H562.844C562.776 411.934 562.65 411.587 562.467 411.284C562.284 410.977 562.056 410.717 561.783 410.504C561.51 410.291 561.199 410.131 560.85 410.025C560.504 409.914 560.132 409.859 559.731 409.859C559.019 409.859 558.389 410.038 557.839 410.396C557.289 410.749 556.859 411.269 556.548 411.955C556.237 412.637 556.081 413.47 556.081 414.455C556.081 415.456 556.237 416.3 556.548 416.986C556.863 417.668 557.293 418.183 557.839 418.533C558.389 418.878 559.017 419.05 559.725 419.05C560.117 419.05 560.483 418.999 560.824 418.897C561.169 418.79 561.478 418.635 561.751 418.43C562.028 418.226 562.26 417.974 562.448 417.676C562.639 417.378 562.771 417.037 562.844 416.653L565.235 416.666C565.145 417.288 564.951 417.872 564.653 418.418C564.359 418.963 563.973 419.445 563.496 419.862C563.019 420.276 562.46 420.599 561.821 420.834C561.182 421.064 560.472 421.179 559.693 421.179C558.542 421.179 557.515 420.913 556.612 420.38C555.708 419.847 554.997 419.078 554.477 418.072C553.957 417.067 553.697 415.861 553.697 414.455C553.697 413.044 553.959 411.838 554.483 410.837C555.007 409.831 555.721 409.062 556.624 408.529C557.528 407.996 558.551 407.73 559.693 407.73C560.421 407.73 561.099 407.832 561.725 408.037C562.352 408.241 562.91 408.542 563.4 408.938C563.89 409.33 564.293 409.812 564.608 410.383C564.928 410.95 565.137 411.597 565.235 412.326ZM568.631 409.897V407.909H579.076V409.897H575.029V421H572.677V409.897H568.631Z" fill="black"/>
<path opacity="0.6" d="M942.672 412.326H940.281C940.213 411.934 940.087 411.587 939.904 411.284C939.721 410.977 939.493 410.717 939.22 410.504C938.947 410.291 938.636 410.131 938.287 410.025C937.942 409.914 937.569 409.859 937.168 409.859C936.457 409.859 935.826 410.038 935.276 410.396C934.727 410.749 934.296 411.269 933.985 411.955C933.674 412.637 933.518 413.47 933.518 414.455C933.518 415.456 933.674 416.3 933.985 416.986C934.3 417.668 934.731 418.183 935.276 418.533C935.826 418.878 936.455 419.05 937.162 419.05C937.554 419.05 937.92 418.999 938.261 418.897C938.607 418.79 938.915 418.635 939.188 418.43C939.465 418.226 939.697 417.974 939.885 417.676C940.077 417.378 940.209 417.037 940.281 416.653L942.672 416.666C942.582 417.288 942.388 417.872 942.09 418.418C941.796 418.963 941.41 419.445 940.933 419.862C940.456 420.276 939.898 420.599 939.258 420.834C938.619 421.064 937.91 421.179 937.13 421.179C935.979 421.179 934.952 420.913 934.049 420.38C933.146 419.847 932.434 419.078 931.914 418.072C931.394 417.067 931.134 415.861 931.134 414.455C931.134 413.044 931.396 411.838 931.92 410.837C932.445 409.831 933.158 409.062 934.062 408.529C934.965 407.996 935.988 407.73 937.13 407.73C937.859 407.73 938.536 407.832 939.163 408.037C939.789 408.241 940.347 408.542 940.837 408.938C941.327 409.33 941.73 409.812 942.045 410.383C942.365 410.95 942.574 411.597 942.672 412.326ZM946.644 421V407.909H955.158V409.897H949.015V413.451H954.717V415.439H949.015V419.012H955.209V421H946.644ZM959.377 421V407.909H961.749V413.451H967.815V407.909H970.192V421H967.815V415.439H961.749V421H959.377ZM973.996 409.897V407.909H984.441V409.897H980.395V421H978.043V409.897H973.996ZM997.919 421H995.541V409.891H993.368C992.78 409.891 992.296 409.978 991.917 410.153C991.542 410.323 991.263 410.575 991.08 410.907C990.901 411.235 990.811 411.631 990.811 412.096C990.811 412.56 990.901 412.952 991.08 413.272C991.259 413.587 991.536 413.828 991.911 413.994C992.29 414.156 992.772 414.237 993.355 414.237H996.539V416.206H993.036C992.03 416.206 991.182 416.04 990.492 415.707C989.801 415.371 989.277 414.896 988.919 414.282C988.566 413.664 988.389 412.935 988.389 412.096C988.389 411.261 988.563 410.53 988.913 409.903C989.267 409.273 989.786 408.783 990.473 408.433C991.159 408.084 992.002 407.909 993.004 407.909H997.919V421ZM991.15 415.068H993.739L990.556 421H987.909L991.15 415.068ZM1002.29 421V407.909H1010.71V409.897H1004.66V412.965H1007.19C1008.19 412.965 1009.05 413.129 1009.76 413.457C1010.48 413.781 1011.03 414.239 1011.42 414.832C1011.8 415.424 1011.99 416.121 1011.99 416.922C1011.99 417.727 1011.8 418.437 1011.42 419.05C1011.03 419.66 1010.48 420.137 1009.76 420.482C1009.05 420.827 1008.19 421 1007.19 421H1002.29ZM1004.66 419.057H1007.19C1007.71 419.057 1008.16 418.957 1008.53 418.756C1008.89 418.556 1009.17 418.292 1009.36 417.964C1009.55 417.636 1009.65 417.28 1009.65 416.896C1009.65 416.342 1009.43 415.871 1009.01 415.484C1008.59 415.092 1007.98 414.896 1007.19 414.896H1004.66V419.057ZM1015.87 421V407.909H1020.78C1021.78 407.909 1022.62 408.097 1023.31 408.472C1023.99 408.847 1024.51 409.362 1024.86 410.018C1025.21 410.67 1025.39 411.412 1025.39 412.243C1025.39 413.082 1025.21 413.828 1024.86 414.48C1024.51 415.132 1023.98 415.646 1023.29 416.021C1022.6 416.391 1021.75 416.577 1020.74 416.577H1017.49V414.627H1020.42C1021.01 414.627 1021.49 414.525 1021.87 414.32C1022.24 414.116 1022.52 413.835 1022.7 413.477C1022.88 413.119 1022.97 412.707 1022.97 412.243C1022.97 411.778 1022.88 411.369 1022.7 411.016C1022.52 410.662 1022.24 410.387 1021.86 410.191C1021.49 409.991 1021 409.891 1020.41 409.891H1018.24V421H1015.87ZM1030.85 412.965H1034.18C1035.18 412.965 1036.04 413.129 1036.75 413.457C1037.47 413.781 1038.03 414.239 1038.41 414.832C1038.79 415.424 1038.99 416.121 1038.99 416.922C1038.99 417.727 1038.79 418.437 1038.41 419.05C1038.03 419.66 1037.47 420.137 1036.75 420.482C1036.04 420.827 1035.18 421 1034.18 421H1029.28V407.909H1031.65V419.057H1034.18C1034.71 419.057 1035.15 418.957 1035.52 418.756C1035.89 418.556 1036.16 418.292 1036.35 417.964C1036.54 417.636 1036.64 417.28 1036.64 416.896C1036.64 416.342 1036.43 415.871 1036 415.484C1035.58 415.092 1034.97 414.896 1034.18 414.896H1030.85V412.965Z" fill="black"/>
<rect x="36" y="273" width="10" height="10" rx="5" fill="white" stroke="#04B34A" stroke-width="4"/>
<defs>
<linearGradient id="paint0_linear_3375_2633" x1="554.999" y1="-14.5831" x2="527.47" y2="441.583" gradientUnits="userSpaceOnUse">
<stop stop-color="#04B34A"/>
<stop offset="0.0666667" stop-color="#04B34A" stop-opacity="0.991353"/>
<stop offset="0.133333" stop-color="#04B34A" stop-opacity="0.96449"/>
<stop offset="0.2" stop-color="#04B34A" stop-opacity="0.91834"/>
<stop offset="0.266667" stop-color="#04B34A" stop-opacity="0.852589"/>
<stop offset="0.333333" stop-color="#04B34A" stop-opacity="0.768225"/>
<stop offset="0.4" stop-color="#04B34A" stop-opacity="0.668116"/>
<stop offset="0.466667" stop-color="#04B34A" stop-opacity="0.557309"/>
<stop offset="0.533333" stop-color="#04B34A" stop-opacity="0.442691"/>
<stop offset="0.6" stop-color="#04B34A" stop-opacity="0.331884"/>
<stop offset="0.666667" stop-color="#04B34A" stop-opacity="0.231775"/>
<stop offset="0.733333" stop-color="#04B34A" stop-opacity="0.147411"/>
<stop offset="0.8" stop-color="#04B34A" stop-opacity="0.0816599"/>
<stop offset="0.866667" stop-color="#04B34A" stop-opacity="0.03551"/>
<stop offset="0.933333" stop-color="#04B34A" stop-opacity="0.01"/>
<stop offset="1" stop-color="#04B34A" stop-opacity="0"/>
</linearGradient>
</defs>
</svg>
