<svg width="1080" height="772" viewBox="0 0 1080 772" fill="none" xmlns="http://www.w3.org/2000/svg">
<rect width="1080" height="772" fill="white"/>
<path d="M915.587 49L912.911 64.8629H915.891L914.181 75H908.668L909.483 70.1698H895.329L894.514 75H889L890.71 64.8629H892.824C893.79 63.5513 894.707 61.8209 895.74 58.1838L898.364 49H915.59H915.587ZM908.584 54.3069H902.535L901.369 58.3918C900.354 61.9393 899.515 63.5484 898.667 64.8629H906.805L908.584 54.3069Z" fill="#EAECEF"/>
<path d="M920.448 49H933.56C938.18 49 940.257 51.3544 939.681 54.7547C939.314 56.93 937.677 58.3311 936.141 58.958C937.818 59.6138 939.146 61.2836 938.663 64.1464C938.05 67.7836 935.085 70.1698 930.167 70.1698H916.875L920.448 49ZM924.295 61.7024L923.67 65.4002H929.69C931.298 65.4002 932.293 64.8051 932.504 63.5513C932.721 62.2687 931.923 61.7024 930.312 61.7024H924.292H924.295ZM925.631 53.7724L925.099 56.9329H931.029C932.282 56.9329 933.161 56.4851 933.352 55.3527C933.543 54.2202 932.814 53.7724 931.561 53.7724H925.631Z" fill="#EAECEF"/>
<path d="M943.47 49H949.579L947.427 61.7602L958.906 49H965.015L961.445 70.1698H955.336L957.479 57.4673L946.01 70.1698H939.9L943.47 49Z" fill="#EAECEF"/>
<path d="M974.098 59.1978L966.907 49H973.821L979.812 57.6464L981.272 49H987.084L985.626 57.6464L994.536 49H1001.3L990.954 58.9291L998.177 70.1698H990.815L985.039 61.1362L983.514 70.1698H977.703L979.227 61.1362L970.402 70.1698H963.309L974.101 59.1978H974.098Z" fill="#EAECEF"/>
<path d="M1010.23 49H1003.13L1010.19 58.9291L999.713 70.1698H1006.81L1017.29 58.9291L1010.23 49ZM1021.44 49H1014.34L1021.41 58.9291L1010.93 70.1698H1018.02L1028.5 58.9291L1021.44 49ZM1032.94 49H1025.85L1032.91 58.9291L1022.43 70.1698H1029.52L1040 58.9291L1032.94 49Z" fill="#EAECEF"/>
<path d="M64.5327 48.8182V75H59.0611V53.3182H48.4759V75H43.0043V48.8182H64.5327ZM68.2606 82.3636V55.3636H73.63V58.6619H73.8729C74.1115 58.1335 74.4567 57.5966 74.9084 57.0511C75.3686 56.4972 75.9652 56.0369 76.6981 55.6705C77.4396 55.2955 78.3601 55.108 79.4595 55.108C80.8913 55.108 82.2123 55.483 83.4226 56.233C84.6328 56.9744 85.6001 58.0952 86.3246 59.5952C87.049 61.0866 87.4112 62.9574 87.4112 65.2074C87.4112 67.3977 87.0575 69.2472 86.3501 70.7557C85.6513 72.2557 84.6967 73.3935 83.4865 74.169C82.2848 74.9361 80.9382 75.3196 79.4467 75.3196C78.3899 75.3196 77.4908 75.1449 76.7493 74.7955C76.0163 74.446 75.4155 74.0071 74.9467 73.4787C74.478 72.9418 74.12 72.4006 73.8729 71.8551H73.7067V82.3636H68.2606ZM73.5916 65.1818C73.5916 66.3494 73.7535 67.3679 74.0774 68.2372C74.4013 69.1065 74.87 69.7841 75.4837 70.2699C76.0973 70.7472 76.843 70.9858 77.7209 70.9858C78.6072 70.9858 79.3572 70.7429 79.9709 70.2571C80.5845 69.7628 81.049 69.081 81.3643 68.2116C81.6882 67.3338 81.8501 66.3239 81.8501 65.1818C81.8501 64.0483 81.6925 63.0511 81.3771 62.1903C81.0618 61.3295 80.5973 60.6562 79.9837 60.1705C79.37 59.6847 78.6158 59.4418 77.7209 59.4418C76.8345 59.4418 76.0845 59.6761 75.4709 60.1449C74.8658 60.6136 74.4013 61.2784 74.0774 62.1392C73.7535 63 73.5916 64.0142 73.5916 65.1818ZM98.474 75.3835C96.4883 75.3835 94.7709 74.9616 93.3221 74.1179C91.8817 73.2656 90.7695 72.081 89.9854 70.5639C89.2013 69.0384 88.8093 67.2699 88.8093 65.2585C88.8093 63.2301 89.2013 61.4574 89.9854 59.9403C90.7695 58.4148 91.8817 57.2301 93.3221 56.3864C94.7709 55.5341 96.4883 55.108 98.474 55.108C100.46 55.108 102.173 55.5341 103.613 56.3864C105.062 57.2301 106.179 58.4148 106.963 59.9403C107.747 61.4574 108.139 63.2301 108.139 65.2585C108.139 67.2699 107.747 69.0384 106.963 70.5639C106.179 72.081 105.062 73.2656 103.613 74.1179C102.173 74.9616 100.46 75.3835 98.474 75.3835ZM98.4996 71.1648C99.403 71.1648 100.157 70.9091 100.762 70.3977C101.368 69.8778 101.823 69.1705 102.13 68.2756C102.446 67.3807 102.603 66.3622 102.603 65.2202C102.603 64.0781 102.446 63.0597 102.13 62.1648C101.823 61.2699 101.368 60.5625 100.762 60.0426C100.157 59.5227 99.403 59.2628 98.4996 59.2628C97.5877 59.2628 96.8206 59.5227 96.1985 60.0426C95.5848 60.5625 95.1204 61.2699 94.805 62.1648C94.4982 63.0597 94.3448 64.0781 94.3448 65.2202C94.3448 66.3622 94.4982 67.3807 94.805 68.2756C95.1204 69.1705 95.5848 69.8778 96.1985 70.3977C96.8206 70.9091 97.5877 71.1648 98.4996 71.1648ZM127.409 55.3636V71.2415H130.541V81.3153H125.249V75H110.24V55.3636H115.443V70.7173H122.27V55.3636H127.409ZM141.198 75.3835C139.178 75.3835 137.44 74.9744 135.982 74.1562C134.533 73.3295 133.417 72.1619 132.633 70.6534C131.849 69.1364 131.457 67.3423 131.457 65.2713C131.457 63.2514 131.849 61.4787 132.633 59.9531C133.417 58.4276 134.521 57.2386 135.944 56.3864C137.376 55.5341 139.055 55.108 140.981 55.108C142.276 55.108 143.482 55.3168 144.599 55.7344C145.724 56.1435 146.704 56.7614 147.539 57.5881C148.383 58.4148 149.039 59.4545 149.508 60.7074C149.977 61.9517 150.211 63.4091 150.211 65.0795V66.5753H133.63V63.2003H145.084C145.084 62.4162 144.914 61.7216 144.573 61.1165C144.232 60.5114 143.759 60.0384 143.154 59.6974C142.557 59.348 141.863 59.1733 141.07 59.1733C140.244 59.1733 139.511 59.3651 138.871 59.7486C138.241 60.1236 137.746 60.6307 137.388 61.2699C137.03 61.9006 136.847 62.6037 136.839 63.3793V66.5881C136.839 67.5597 137.018 68.3991 137.376 69.1065C137.742 69.8139 138.258 70.3594 138.923 70.7429C139.587 71.1264 140.376 71.3182 141.288 71.3182C141.893 71.3182 142.447 71.233 142.95 71.0625C143.452 70.892 143.883 70.6364 144.241 70.2955C144.599 69.9545 144.871 69.5369 145.059 69.0426L150.096 69.375C149.84 70.5852 149.316 71.642 148.523 72.5455C147.739 73.4403 146.725 74.1392 145.481 74.642C144.245 75.1364 142.817 75.3835 141.198 75.3835ZM165.991 63.0085V67.2912H155.738V63.0085H165.991ZM157.528 55.3636V75H152.325V55.3636H157.528ZM169.404 55.3636V75H164.24V55.3636H169.404ZM170.218 59.6463V55.3636H188.013V59.6463H181.685V75H176.495V59.6463H170.218ZM205.639 75.3835C203.653 75.3835 201.936 74.9616 200.487 74.1179C199.046 73.2656 197.934 72.081 197.15 70.5639C196.366 69.0384 195.974 67.2699 195.974 65.2585C195.974 63.2301 196.366 61.4574 197.15 59.9403C197.934 58.4148 199.046 57.2301 200.487 56.3864C201.936 55.5341 203.653 55.108 205.639 55.108C207.625 55.108 209.338 55.5341 210.778 56.3864C212.227 57.2301 213.343 58.4148 214.127 59.9403C214.911 61.4574 215.304 63.2301 215.304 65.2585C215.304 67.2699 214.911 69.0384 214.127 70.5639C213.343 72.081 212.227 73.2656 210.778 74.1179C209.338 74.9616 207.625 75.3835 205.639 75.3835ZM205.664 71.1648C206.568 71.1648 207.322 70.9091 207.927 70.3977C208.532 69.8778 208.988 69.1705 209.295 68.2756C209.61 67.3807 209.768 66.3622 209.768 65.2202C209.768 64.0781 209.61 63.0597 209.295 62.1648C208.988 61.2699 208.532 60.5625 207.927 60.0426C207.322 59.5227 206.568 59.2628 205.664 59.2628C204.752 59.2628 203.985 59.5227 203.363 60.0426C202.75 60.5625 202.285 61.2699 201.97 62.1648C201.663 63.0597 201.509 64.0781 201.509 65.2202C201.509 66.3622 201.663 67.3807 201.97 68.2756C202.285 69.1705 202.75 69.8778 203.363 70.3977C203.985 70.9091 204.752 71.1648 205.664 71.1648ZM215.871 80.7528V70.679H217.379C217.814 70.4062 218.163 69.9716 218.427 69.375C218.7 68.7784 218.922 68.0753 219.092 67.2656C219.271 66.456 219.408 65.5824 219.501 64.6449C219.604 63.6989 219.693 62.7443 219.77 61.7812L220.281 55.3636H235.341V70.679H238.383V80.7528H233.193V75H221.189V80.7528H215.871ZM222.8 70.679H230.202V59.5568H224.909L224.704 61.7812C224.56 63.8778 224.351 65.6591 224.078 67.125C223.805 68.5824 223.379 69.767 222.8 70.679ZM248.989 75.3835C247.003 75.3835 245.286 74.9616 243.837 74.1179C242.397 73.2656 241.285 72.081 240.501 70.5639C239.716 69.0384 239.324 67.2699 239.324 65.2585C239.324 63.2301 239.716 61.4574 240.501 59.9403C241.285 58.4148 242.397 57.2301 243.837 56.3864C245.286 55.5341 247.003 55.108 248.989 55.108C250.975 55.108 252.688 55.5341 254.128 56.3864C255.577 57.2301 256.694 58.4148 257.478 59.9403C258.262 61.4574 258.654 63.2301 258.654 65.2585C258.654 67.2699 258.262 69.0384 257.478 70.5639C256.694 72.081 255.577 73.2656 254.128 74.1179C252.688 74.9616 250.975 75.3835 248.989 75.3835ZM249.015 71.1648C249.918 71.1648 250.672 70.9091 251.278 70.3977C251.883 69.8778 252.339 69.1705 252.645 68.2756C252.961 67.3807 253.118 66.3622 253.118 65.2202C253.118 64.0781 252.961 63.0597 252.645 62.1648C252.339 61.2699 251.883 60.5625 251.278 60.0426C250.672 59.5227 249.918 59.2628 249.015 59.2628C248.103 59.2628 247.336 59.5227 246.714 60.0426C246.1 60.5625 245.636 61.2699 245.32 62.1648C245.013 63.0597 244.86 64.0781 244.86 65.2202C244.86 66.3622 245.013 67.3807 245.32 68.2756C245.636 69.1705 246.1 69.8778 246.714 70.3977C247.336 70.9091 248.103 71.1648 249.015 71.1648ZM277.08 48.1534L278.742 51.7074C278.188 52.1676 277.575 52.5085 276.901 52.7301C276.228 52.9432 275.423 53.0838 274.485 53.152C273.556 53.2202 272.423 53.267 271.085 53.2926C269.568 53.3097 268.332 53.5526 267.377 54.0213C266.423 54.4901 265.698 55.2273 265.204 56.233C264.71 57.2301 264.386 58.5341 264.232 60.1449H264.424C265.012 58.9432 265.839 58.0142 266.904 57.358C267.978 56.7017 269.303 56.3736 270.88 56.3736C272.551 56.3736 274.012 56.7401 275.265 57.473C276.526 58.206 277.507 59.2585 278.205 60.6307C278.904 62.0028 279.254 63.6477 279.254 65.5653C279.254 67.5597 278.862 69.294 278.078 70.7685C277.302 72.2344 276.198 73.3722 274.767 74.1818C273.335 74.983 271.63 75.3835 269.653 75.3835C267.667 75.3835 265.954 74.9659 264.514 74.1307C263.082 73.2955 261.974 72.0639 261.19 70.4361C260.414 68.8082 260.026 66.8054 260.026 64.4276V62.8168C260.026 58.0866 260.947 54.5795 262.788 52.2955C264.629 50.0114 267.335 48.8523 270.906 48.8182C271.877 48.8011 272.755 48.7969 273.539 48.8054C274.323 48.8139 275.009 48.7756 275.598 48.6903C276.194 48.6051 276.688 48.4261 277.08 48.1534ZM269.678 71.1648C270.514 71.1648 271.23 70.9474 271.826 70.5128C272.431 70.0781 272.896 69.456 273.22 68.6463C273.552 67.8366 273.718 66.8693 273.718 65.7443C273.718 64.6278 273.552 63.6818 273.22 62.9062C272.896 62.1222 272.431 61.5256 271.826 61.1165C271.221 60.7074 270.497 60.5028 269.653 60.5028C269.022 60.5028 268.455 60.6179 267.953 60.848C267.45 61.0781 267.019 61.419 266.661 61.8707C266.312 62.3139 266.039 62.8636 265.843 63.5199C265.656 64.1676 265.562 64.9091 265.562 65.7443C265.562 67.4233 265.924 68.7486 266.649 69.7202C267.382 70.6832 268.392 71.1648 269.678 71.1648ZM281.428 82.3636V55.3636H286.798V58.6619H287.041C287.279 58.1335 287.624 57.5966 288.076 57.0511C288.536 56.4972 289.133 56.0369 289.866 55.6705C290.607 55.2955 291.528 55.108 292.627 55.108C294.059 55.108 295.38 55.483 296.59 56.233C297.801 56.9744 298.768 58.0952 299.492 59.5952C300.217 61.0866 300.579 62.9574 300.579 65.2074C300.579 67.3977 300.225 69.2472 299.518 70.7557C298.819 72.2557 297.865 73.3935 296.654 74.169C295.453 74.9361 294.106 75.3196 292.615 75.3196C291.558 75.3196 290.659 75.1449 289.917 74.7955C289.184 74.446 288.583 74.0071 288.115 73.4787C287.646 72.9418 287.288 72.4006 287.041 71.8551H286.874V82.3636H281.428ZM286.759 65.1818C286.759 66.3494 286.921 67.3679 287.245 68.2372C287.569 69.1065 288.038 69.7841 288.651 70.2699C289.265 70.7472 290.011 70.9858 290.889 70.9858C291.775 70.9858 292.525 70.7429 293.139 70.2571C293.752 69.7628 294.217 69.081 294.532 68.2116C294.856 67.3338 295.018 66.3239 295.018 65.1818C295.018 64.0483 294.86 63.0511 294.545 62.1903C294.23 61.3295 293.765 60.6562 293.151 60.1705C292.538 59.6847 291.784 59.4418 290.889 59.4418C290.002 59.4418 289.252 59.6761 288.639 60.1449C288.034 60.6136 287.569 61.2784 287.245 62.1392C286.921 63 286.759 64.0142 286.759 65.1818ZM311.719 75.3835C309.699 75.3835 307.96 74.9744 306.503 74.1562C305.054 73.3295 303.937 72.1619 303.153 70.6534C302.369 69.1364 301.977 67.3423 301.977 65.2713C301.977 63.2514 302.369 61.4787 303.153 59.9531C303.937 58.4276 305.041 57.2386 306.464 56.3864C307.896 55.5341 309.575 55.108 311.501 55.108C312.797 55.108 314.003 55.3168 315.119 55.7344C316.244 56.1435 317.224 56.7614 318.059 57.5881C318.903 58.4148 319.559 59.4545 320.028 60.7074C320.497 61.9517 320.731 63.4091 320.731 65.0795V66.5753H304.15V63.2003H315.605C315.605 62.4162 315.434 61.7216 315.094 61.1165C314.753 60.5114 314.28 60.0384 313.675 59.6974C313.078 59.348 312.383 59.1733 311.591 59.1733C310.764 59.1733 310.031 59.3651 309.392 59.7486C308.761 60.1236 308.267 60.6307 307.909 61.2699C307.551 61.9006 307.368 62.6037 307.359 63.3793V66.5881C307.359 67.5597 307.538 68.3991 307.896 69.1065C308.263 69.8139 308.778 70.3594 309.443 70.7429C310.108 71.1264 310.896 71.3182 311.808 71.3182C312.413 71.3182 312.967 71.233 313.47 71.0625C313.973 70.892 314.403 70.6364 314.761 70.2955C315.119 69.9545 315.392 69.5369 315.579 69.0426L320.616 69.375C320.361 70.5852 319.836 71.642 319.044 72.5455C318.26 73.4403 317.246 74.1392 316.001 74.642C314.765 75.1364 313.338 75.3835 311.719 75.3835ZM336.512 63.0085V67.2912H326.259V63.0085H336.512ZM328.048 55.3636V75H322.845V55.3636H328.048ZM339.925 55.3636V75H334.76V55.3636H339.925ZM347.913 67.8153L354.983 55.3636H360.352V75H355.162V62.5099L348.118 75H342.71V55.3636H347.913V67.8153ZM374.784 75V59.6335H371.102C370.105 59.6335 369.346 59.8636 368.826 60.3239C368.306 60.7841 368.051 61.3295 368.059 61.9602C368.051 62.5994 368.298 63.1406 368.801 63.5838C369.312 64.0185 370.062 64.2358 371.051 64.2358H376.599V67.9176H371.051C369.372 67.9176 367.918 67.6619 366.691 67.1506C365.464 66.6392 364.518 65.9276 363.853 65.0156C363.188 64.0952 362.86 63.0256 362.869 61.8068C362.86 60.5284 363.188 59.4077 363.853 58.4446C364.518 57.473 365.468 56.7187 366.704 56.1818C367.948 55.6364 369.414 55.3636 371.102 55.3636H379.859V75H374.784ZM362.306 75L367.765 64.7727H372.968L367.522 75H362.306ZM389.542 75V55.3636H406.711V75H401.508V59.6463H394.682V75H389.542ZM418.49 75.3835C416.504 75.3835 414.787 74.9616 413.338 74.1179C411.898 73.2656 410.786 72.081 410.001 70.5639C409.217 69.0384 408.825 67.2699 408.825 65.2585C408.825 63.2301 409.217 61.4574 410.001 59.9403C410.786 58.4148 411.898 57.2301 413.338 56.3864C414.787 55.5341 416.504 55.108 418.49 55.108C420.476 55.108 422.189 55.5341 423.629 56.3864C425.078 57.2301 426.195 58.4148 426.979 59.9403C427.763 61.4574 428.155 63.2301 428.155 65.2585C428.155 67.2699 427.763 69.0384 426.979 70.5639C426.195 72.081 425.078 73.2656 423.629 74.1179C422.189 74.9616 420.476 75.3835 418.49 75.3835ZM418.516 71.1648C419.419 71.1648 420.173 70.9091 420.778 70.3977C421.384 69.8778 421.84 69.1705 422.146 68.2756C422.462 67.3807 422.619 66.3622 422.619 65.2202C422.619 64.0781 422.462 63.0597 422.146 62.1648C421.84 61.2699 421.384 60.5625 420.778 60.0426C420.173 59.5227 419.419 59.2628 418.516 59.2628C417.604 59.2628 416.837 59.5227 416.215 60.0426C415.601 60.5625 415.136 61.2699 414.821 62.1648C414.514 63.0597 414.361 64.0781 414.361 65.2202C414.361 66.3622 414.514 67.3807 414.821 68.2756C415.136 69.1705 415.601 69.8778 416.215 70.3977C416.837 70.9091 417.604 71.1648 418.516 71.1648ZM437.148 82.3636V55.3636H442.517V58.6619H442.76C442.999 58.1335 443.344 57.5966 443.796 57.0511C444.256 56.4972 444.853 56.0369 445.586 55.6705C446.327 55.2955 447.248 55.108 448.347 55.108C449.779 55.108 451.1 55.483 452.31 56.233C453.52 56.9744 454.488 58.0952 455.212 59.5952C455.937 61.0866 456.299 62.9574 456.299 65.2074C456.299 67.3977 455.945 69.2472 455.238 70.7557C454.539 72.2557 453.584 73.3935 452.374 74.169C451.172 74.9361 449.826 75.3196 448.334 75.3196C447.277 75.3196 446.378 75.1449 445.637 74.7955C444.904 74.446 444.303 74.0071 443.834 73.4787C443.365 72.9418 443.008 72.4006 442.76 71.8551H442.594V82.3636H437.148ZM442.479 65.1818C442.479 66.3494 442.641 67.3679 442.965 68.2372C443.289 69.1065 443.758 69.7841 444.371 70.2699C444.985 70.7472 445.731 70.9858 446.608 70.9858C447.495 70.9858 448.245 70.7429 448.858 70.2571C449.472 69.7628 449.937 69.081 450.252 68.2116C450.576 67.3338 450.738 66.3239 450.738 65.1818C450.738 64.0483 450.58 63.0511 450.265 62.1903C449.949 61.3295 449.485 60.6562 448.871 60.1705C448.258 59.6847 447.503 59.4418 446.608 59.4418C445.722 59.4418 444.972 59.6761 444.358 60.1449C443.753 60.6136 443.289 61.2784 442.965 62.1392C442.641 63 442.479 64.0142 442.479 65.1818ZM467.438 75.3835C465.418 75.3835 463.68 74.9744 462.222 74.1562C460.773 73.3295 459.657 72.1619 458.873 70.6534C458.089 69.1364 457.697 67.3423 457.697 65.2713C457.697 63.2514 458.089 61.4787 458.873 59.9531C459.657 58.4276 460.761 57.2386 462.184 56.3864C463.616 55.5341 465.295 55.108 467.221 55.108C468.516 55.108 469.722 55.3168 470.839 55.7344C471.964 56.1435 472.944 56.7614 473.779 57.5881C474.623 58.4148 475.279 59.4545 475.748 60.7074C476.217 61.9517 476.451 63.4091 476.451 65.0795V66.5753H459.87V63.2003H471.325C471.325 62.4162 471.154 61.7216 470.813 61.1165C470.472 60.5114 469.999 60.0384 469.394 59.6974C468.798 59.348 468.103 59.1733 467.31 59.1733C466.484 59.1733 465.751 59.3651 465.112 59.7486C464.481 60.1236 463.987 60.6307 463.629 61.2699C463.271 61.9006 463.087 62.6037 463.079 63.3793V66.5881C463.079 67.5597 463.258 68.3991 463.616 69.1065C463.982 69.8139 464.498 70.3594 465.163 70.7429C465.827 71.1264 466.616 71.3182 467.528 71.3182C468.133 71.3182 468.687 71.233 469.19 71.0625C469.693 70.892 470.123 70.6364 470.481 70.2955C470.839 69.9545 471.112 69.5369 471.299 69.0426L476.336 69.375C476.08 70.5852 475.556 71.642 474.764 72.5455C473.979 73.4403 472.965 74.1392 471.721 74.642C470.485 75.1364 469.058 75.3835 467.438 75.3835ZM492.014 55.3636V59.6463H483.858V75H478.565V55.3636H492.014ZM499.098 67.8153L506.167 55.3636H511.537V75H506.346V62.5099L499.302 75H493.895V55.3636H499.098V67.8153ZM523.335 75.3835C521.349 75.3835 519.631 74.9616 518.183 74.1179C516.742 73.2656 515.63 72.081 514.846 70.5639C514.062 69.0384 513.67 67.2699 513.67 65.2585C513.67 63.2301 514.062 61.4574 514.846 59.9403C515.63 58.4148 516.742 57.2301 518.183 56.3864C519.631 55.5341 521.349 55.108 523.335 55.108C525.32 55.108 527.033 55.5341 528.474 56.3864C529.923 57.2301 531.039 58.4148 531.823 59.9403C532.607 61.4574 532.999 63.2301 532.999 65.2585C532.999 67.2699 532.607 69.0384 531.823 70.5639C531.039 72.081 529.923 73.2656 528.474 74.1179C527.033 74.9616 525.32 75.3835 523.335 75.3835ZM523.36 71.1648C524.263 71.1648 525.018 70.9091 525.623 70.3977C526.228 69.8778 526.684 69.1705 526.991 68.2756C527.306 67.3807 527.464 66.3622 527.464 65.2202C527.464 64.0781 527.306 63.0597 526.991 62.1648C526.684 61.2699 526.228 60.5625 525.623 60.0426C525.018 59.5227 524.263 59.2628 523.36 59.2628C522.448 59.2628 521.681 59.5227 521.059 60.0426C520.445 60.5625 519.981 61.2699 519.665 62.1648C519.359 63.0597 519.205 64.0781 519.205 65.2202C519.205 66.3622 519.359 67.3807 519.665 68.2756C519.981 69.1705 520.445 69.8778 521.059 70.3977C521.681 70.9091 522.448 71.1648 523.36 71.1648ZM548.767 63.0085V67.2912H538.514V63.0085H548.767ZM540.304 55.3636V75H535.1V55.3636H540.304ZM552.18 55.3636V75H547.015V55.3636H552.18ZM560.565 75.3707C559.312 75.3707 558.195 75.1534 557.215 74.7188C556.235 74.2756 555.459 73.6236 554.888 72.7628C554.326 71.8935 554.045 70.8111 554.045 69.5156C554.045 68.4247 554.245 67.5085 554.646 66.767C555.046 66.0256 555.592 65.429 556.282 64.9773C556.972 64.5256 557.756 64.1847 558.634 63.9545C559.521 63.7244 560.45 63.5625 561.421 63.4688C562.563 63.3494 563.484 63.2386 564.182 63.1364C564.881 63.0256 565.388 62.8636 565.704 62.6506C566.019 62.4375 566.177 62.1222 566.177 61.7045V61.6278C566.177 60.8182 565.921 60.1918 565.41 59.7486C564.907 59.3054 564.191 59.0838 563.262 59.0838C562.282 59.0838 561.502 59.3011 560.923 59.7358C560.343 60.1619 559.959 60.6989 559.772 61.3466L554.735 60.9375C554.991 59.7443 555.494 58.7131 556.244 57.8438C556.994 56.9659 557.961 56.2926 559.146 55.8239C560.339 55.3466 561.719 55.108 563.288 55.108C564.379 55.108 565.423 55.2358 566.42 55.4915C567.425 55.7472 568.316 56.1435 569.092 56.6804C569.876 57.2173 570.494 57.9077 570.945 58.7514C571.397 59.5866 571.623 60.5881 571.623 61.7557V75H566.458V72.277H566.305C565.989 72.8906 565.567 73.4318 565.039 73.9006C564.511 74.3608 563.876 74.723 563.134 74.9872C562.393 75.2429 561.536 75.3707 560.565 75.3707ZM562.124 71.6122C562.925 71.6122 563.633 71.4545 564.246 71.1392C564.86 70.8153 565.342 70.3807 565.691 69.8352C566.04 69.2898 566.215 68.6719 566.215 67.9815V65.8977C566.045 66.0085 565.81 66.1108 565.512 66.2045C565.222 66.2898 564.894 66.3707 564.528 66.4474C564.161 66.5156 563.795 66.5795 563.428 66.6392C563.062 66.6903 562.729 66.7372 562.431 66.7798C561.792 66.8736 561.234 67.0227 560.756 67.2273C560.279 67.4318 559.908 67.7088 559.644 68.0582C559.38 68.3991 559.248 68.8253 559.248 69.3366C559.248 70.0781 559.516 70.6449 560.053 71.0369C560.599 71.4205 561.289 71.6122 562.124 71.6122ZM586.016 68.9787L591.334 55.3636H595.476L587.818 75H584.201L576.722 55.3636H580.851L586.016 68.9787ZM579.611 55.3636V75H574.408V55.3636H579.611ZM592.689 75V55.3636H597.828V75H592.689Z" fill="black"/>
<rect x="40" y="437" width="1000" height="295" rx="20" fill="#F7F7F7"/>
<path opacity="0.6" d="M56.2912 469V455.909H61.2003C62.206 455.909 63.0497 456.097 63.7315 456.472C64.4176 456.847 64.9354 457.362 65.2848 458.018C65.6385 458.67 65.8153 459.412 65.8153 460.243C65.8153 461.082 65.6385 461.828 65.2848 462.48C64.9311 463.132 64.4091 463.646 63.7188 464.021C63.0284 464.391 62.1783 464.577 61.1683 464.577H57.9148V462.627H60.8487C61.4368 462.627 61.9183 462.525 62.2933 462.32C62.6683 462.116 62.9453 461.835 63.1243 461.477C63.3075 461.119 63.3991 460.707 63.3991 460.243C63.3991 459.778 63.3075 459.369 63.1243 459.016C62.9453 458.662 62.6662 458.387 62.2869 458.191C61.9119 457.991 61.4283 457.891 60.8359 457.891H58.6626V469H56.2912ZM69.6752 469V455.909H78.1894V457.897H72.0466V461.451H77.7483V463.439H72.0466V467.012H78.2405V469H69.6752ZM90.8271 455.909V457.897H84.7802V469H82.4088V455.909H90.8271ZM94.6326 455.909H96.9849V464.832H97.1063L103.262 455.909H105.39V469H103.019V460.083H102.91L96.7356 469H94.6326V455.909ZM121.472 462.455C121.472 463.865 121.208 465.073 120.679 466.079C120.155 467.08 119.439 467.847 118.531 468.38C117.628 468.913 116.603 469.179 115.457 469.179C114.311 469.179 113.284 468.913 112.376 468.38C111.473 467.843 110.757 467.074 110.228 466.072C109.704 465.067 109.442 463.861 109.442 462.455C109.442 461.044 109.704 459.838 110.228 458.837C110.757 457.831 111.473 457.062 112.376 456.529C113.284 455.996 114.311 455.73 115.457 455.73C116.603 455.73 117.628 455.996 118.531 456.529C119.439 457.062 120.155 457.831 120.679 458.837C121.208 459.838 121.472 461.044 121.472 462.455ZM119.088 462.455C119.088 461.462 118.932 460.624 118.621 459.942C118.314 459.256 117.888 458.739 117.343 458.389C116.797 458.036 116.169 457.859 115.457 457.859C114.745 457.859 114.117 458.036 113.571 458.389C113.026 458.739 112.598 459.256 112.286 459.942C111.98 460.624 111.826 461.462 111.826 462.455C111.826 463.447 111.98 464.287 112.286 464.973C112.598 465.655 113.026 466.173 113.571 466.526C114.117 466.876 114.745 467.05 115.457 467.05C116.169 467.05 116.797 466.876 117.343 466.526C117.888 466.173 118.314 465.655 118.621 464.973C118.932 464.287 119.088 463.447 119.088 462.455ZM125.514 469V455.909H127.885V461.451H133.951V455.909H136.329V469H133.951V463.439H127.885V469H125.514ZM142.313 460.965H145.637C146.638 460.965 147.497 461.129 148.213 461.457C148.933 461.781 149.485 462.239 149.868 462.832C150.252 463.424 150.443 464.121 150.443 464.922C150.443 465.727 150.252 466.437 149.868 467.05C149.485 467.66 148.933 468.137 148.213 468.482C147.497 468.827 146.638 469 145.637 469H140.734V455.909H143.112V467.057H145.637C146.165 467.057 146.613 466.957 146.979 466.756C147.345 466.556 147.622 466.292 147.81 465.964C148.002 465.636 148.098 465.28 148.098 464.896C148.098 464.342 147.885 463.871 147.458 463.484C147.037 463.092 146.429 462.896 145.637 462.896H142.313V460.965ZM153.953 455.909V469H151.575V455.909H153.953Z" fill="black"/>
<path opacity="0.4" d="M55 685.5H1019.96V592.5C1025.69 592.5 543.5 587 543.5 587L55 572V685.5Z" fill="url(#paint0_linear_3375_2599)"/>
<rect x="1015.19" y="589" width="10.2717" height="10.2717" rx="5.13587" fill="#CACACA"/>
<path d="M1021 594L547 588.5L55 571" stroke="#CACACA" stroke-width="4"/>
<path d="M875.074 670.441V694.799L865.989 685.68L862 689.634L877.955 705.555L893.875 689.634L889.955 685.68L880.835 694.799V670.441H875.074Z" fill="#CACACA"/>
<path d="M920.165 705.767C917.234 705.756 914.711 705.034 912.597 703.602C910.495 702.17 908.876 700.097 907.739 697.381C906.614 694.665 906.058 691.398 906.069 687.58C906.069 683.773 906.631 680.528 907.756 677.847C908.893 675.165 910.512 673.125 912.614 671.727C914.728 670.318 917.245 669.614 920.165 669.614C923.086 669.614 925.597 670.318 927.7 671.727C929.813 673.136 931.438 675.182 932.575 677.864C933.711 680.534 934.273 683.773 934.262 687.58C934.262 691.409 933.694 694.682 932.558 697.398C931.433 700.114 929.819 702.187 927.717 703.619C925.614 705.051 923.097 705.767 920.165 705.767ZM920.165 699.648C922.165 699.648 923.762 698.642 924.955 696.631C926.148 694.619 926.739 691.602 926.728 687.58C926.728 684.932 926.455 682.727 925.91 680.966C925.376 679.205 924.614 677.881 923.626 676.994C922.648 676.108 921.495 675.665 920.165 675.665C918.177 675.665 916.586 676.659 915.393 678.648C914.2 680.636 913.597 683.614 913.586 687.58C913.586 690.261 913.853 692.5 914.387 694.295C914.933 696.08 915.7 697.42 916.688 698.318C917.677 699.205 918.836 699.648 920.165 699.648ZM945.587 700.227L945.399 702.102C945.251 703.602 944.967 705.097 944.547 706.585C944.138 708.085 943.706 709.443 943.251 710.659C942.808 711.875 942.45 712.83 942.178 713.523H937.473C937.643 712.852 937.876 711.915 938.172 710.71C938.467 709.517 938.746 708.176 939.007 706.688C939.268 705.199 939.433 703.682 939.501 702.136L939.587 700.227H945.587ZM963.657 705.477C961.862 705.466 960.129 705.165 958.458 704.574C956.799 703.983 955.31 703.023 953.992 701.693C952.674 700.364 951.629 698.602 950.856 696.409C950.094 694.216 949.714 691.523 949.714 688.33C949.725 685.398 950.06 682.778 950.719 680.472C951.39 678.153 952.344 676.187 953.583 674.574C954.833 672.96 956.327 671.733 958.066 670.892C959.805 670.04 961.754 669.614 963.913 669.614C966.242 669.614 968.299 670.068 970.083 670.977C971.867 671.875 973.299 673.097 974.379 674.642C975.469 676.188 976.129 677.92 976.356 679.841H969.077C968.793 678.625 968.197 677.67 967.288 676.977C966.379 676.284 965.254 675.938 963.913 675.938C961.64 675.938 959.913 676.926 958.731 678.903C957.56 680.881 956.964 683.568 956.941 686.966H957.18C957.702 685.932 958.407 685.051 959.293 684.324C960.191 683.585 961.208 683.023 962.344 682.636C963.492 682.239 964.702 682.04 965.975 682.04C968.043 682.04 969.884 682.528 971.498 683.506C973.112 684.472 974.384 685.801 975.316 687.494C976.248 689.187 976.714 691.125 976.714 693.307C976.714 695.67 976.163 697.773 975.06 699.614C973.969 701.455 972.441 702.898 970.475 703.943C968.521 704.977 966.248 705.489 963.657 705.477ZM963.623 699.682C964.759 699.682 965.776 699.409 966.674 698.864C967.572 698.318 968.276 697.58 968.788 696.648C969.299 695.716 969.555 694.67 969.555 693.511C969.555 692.352 969.299 691.312 968.788 690.392C968.288 689.472 967.594 688.739 966.708 688.193C965.822 687.648 964.81 687.375 963.674 687.375C962.822 687.375 962.032 687.534 961.305 687.852C960.589 688.17 959.958 688.614 959.413 689.182C958.879 689.75 958.458 690.409 958.151 691.159C957.844 691.898 957.691 692.687 957.691 693.528C957.691 694.653 957.947 695.682 958.458 696.614C958.981 697.545 959.685 698.29 960.572 698.847C961.469 699.403 962.487 699.682 963.623 699.682ZM1000.56 698.455V696.614C1000.56 695.216 1000.86 693.932 1001.45 692.761C1002.05 691.58 1002.92 690.636 1004.06 689.932C1005.2 689.216 1006.6 688.858 1008.25 688.858C1009.92 688.858 1011.32 689.21 1012.46 689.915C1013.61 690.619 1014.47 691.562 1015.05 692.744C1015.64 693.915 1015.94 695.205 1015.94 696.614V698.455C1015.94 699.852 1015.64 701.142 1015.05 702.324C1014.46 703.494 1013.59 704.432 1012.44 705.136C1011.3 705.852 1009.9 706.21 1008.25 706.21C1006.58 706.21 1005.18 705.852 1004.04 705.136C1002.9 704.432 1002.04 703.494 1001.45 702.324C1000.86 701.142 1000.56 699.852 1000.56 698.455ZM1005.52 696.614V698.455C1005.52 699.261 1005.72 700.023 1006.1 700.739C1006.5 701.455 1007.22 701.812 1008.25 701.812C1009.28 701.812 1009.99 701.46 1010.36 700.756C1010.75 700.051 1010.94 699.284 1010.94 698.455V696.614C1010.94 695.784 1010.76 695.011 1010.4 694.295C1010.03 693.58 1009.32 693.222 1008.25 693.222C1007.23 693.222 1006.52 693.58 1006.12 694.295C1005.72 695.011 1005.52 695.784 1005.52 696.614ZM982.648 678.477V676.636C982.648 675.227 982.949 673.937 983.551 672.767C984.153 671.585 985.023 670.642 986.159 669.938C987.307 669.233 988.693 668.881 990.318 668.881C992 668.881 993.409 669.233 994.545 669.938C995.682 670.642 996.545 671.585 997.136 672.767C997.727 673.937 998.023 675.227 998.023 676.636V678.477C998.023 679.886 997.722 681.176 997.119 682.347C996.528 683.517 995.659 684.455 994.511 685.159C993.375 685.852 991.977 686.199 990.318 686.199C988.659 686.199 987.256 685.847 986.108 685.142C984.972 684.426 984.108 683.489 983.517 682.33C982.938 681.159 982.648 679.875 982.648 678.477ZM987.642 676.636V678.477C987.642 679.307 987.835 680.074 988.222 680.778C988.619 681.483 989.318 681.835 990.318 681.835C991.364 681.835 992.074 681.483 992.449 680.778C992.835 680.074 993.028 679.307 993.028 678.477V676.636C993.028 675.807 992.847 675.034 992.483 674.318C992.119 673.602 991.398 673.244 990.318 673.244C989.307 673.244 988.608 673.608 988.222 674.335C987.835 675.062 987.642 675.83 987.642 676.636ZM984.898 705L1008.9 670.091H1013.36L989.364 705H984.898Z" fill="black"/>
<path d="M61.8203 559.219C60.8411 559.219 59.9609 559.031 59.1797 558.656C58.4036 558.276 57.7839 557.755 57.3203 557.094C56.8568 556.432 56.6094 555.677 56.5781 554.828H58.9219C58.9792 555.516 59.2839 556.081 59.8359 556.523C60.388 556.966 61.0495 557.187 61.8203 557.187C62.4349 557.187 62.9792 557.047 63.4531 556.766C63.9323 556.479 64.3073 556.086 64.5781 555.586C64.8542 555.086 64.9922 554.516 64.9922 553.875C64.9922 553.224 64.8516 552.643 64.5703 552.133C64.2891 551.622 63.901 551.221 63.4063 550.93C62.9167 550.638 62.3542 550.49 61.7188 550.484C61.2344 550.484 60.7474 550.568 60.2578 550.734C59.7682 550.901 59.3724 551.12 59.0703 551.391L56.8594 551.062L57.7578 543H66.5547V545.07H59.7656L59.2578 549.547H59.3516C59.6641 549.245 60.0781 548.992 60.5938 548.789C61.1146 548.586 61.6719 548.484 62.2656 548.484C63.2396 548.484 64.1068 548.716 64.8672 549.18C65.6328 549.643 66.2344 550.276 66.6719 551.078C67.1146 551.875 67.3333 552.792 67.3281 553.828C67.3333 554.865 67.099 555.789 66.625 556.602C66.1563 557.414 65.5052 558.055 64.6719 558.523C63.8438 558.987 62.8932 559.219 61.8203 559.219ZM75.2403 559.219C74.2612 559.219 73.381 559.031 72.5997 558.656C71.8237 558.276 71.2039 557.755 70.7403 557.094C70.2768 556.432 70.0294 555.677 69.9981 554.828H72.3419C72.3992 555.516 72.7039 556.081 73.256 556.523C73.808 556.966 74.4695 557.187 75.2403 557.187C75.8549 557.187 76.3992 557.047 76.8731 556.766C77.3523 556.479 77.7273 556.086 77.9981 555.586C78.2742 555.086 78.4122 554.516 78.4122 553.875C78.4122 553.224 78.2716 552.643 77.9903 552.133C77.7091 551.622 77.3211 551.221 76.8263 550.93C76.3367 550.638 75.7742 550.49 75.1388 550.484C74.6544 550.484 74.1674 550.568 73.6778 550.734C73.1883 550.901 72.7924 551.12 72.4903 551.391L70.2794 551.062L71.1778 543H79.9747V545.07H73.1856L72.6778 549.547H72.7716C73.0841 549.245 73.4981 548.992 74.0138 548.789C74.5346 548.586 75.0919 548.484 75.6856 548.484C76.6596 548.484 77.5268 548.716 78.2872 549.18C79.0528 549.643 79.6544 550.276 80.0919 551.078C80.5346 551.875 80.7534 552.792 80.7481 553.828C80.7534 554.865 80.519 555.789 80.045 556.602C79.5763 557.414 78.9252 558.055 78.0919 558.523C77.2638 558.987 76.3133 559.219 75.2403 559.219ZM85.8693 556.812L85.7522 557.664C85.674 558.289 85.5412 558.94 85.3537 559.617C85.1714 560.299 84.9813 560.932 84.7834 561.516C84.5907 562.099 84.4318 562.563 84.3068 562.906H82.6506C82.7183 562.583 82.8121 562.146 82.9318 561.594C83.0516 561.047 83.1688 560.435 83.2834 559.758C83.398 559.081 83.4839 558.391 83.5412 557.687L83.6193 556.812H85.8693ZM88.9144 559V557.25L94.3284 551.641C94.9066 551.031 95.3831 550.497 95.7581 550.039C96.1383 549.576 96.4222 549.135 96.6097 548.719C96.7972 548.302 96.8909 547.859 96.8909 547.391C96.8909 546.859 96.7659 546.401 96.5159 546.016C96.2659 545.625 95.9248 545.326 95.4925 545.117C95.0602 544.904 94.5732 544.797 94.0316 544.797C93.4586 544.797 92.9586 544.914 92.5316 545.148C92.1045 545.383 91.7763 545.714 91.5472 546.141C91.318 546.568 91.2034 547.068 91.2034 547.641H88.8987C88.8987 546.667 89.1227 545.815 89.5706 545.086C90.0185 544.357 90.6331 543.792 91.4144 543.391C92.1956 542.984 93.0836 542.781 94.0784 542.781C95.0836 542.781 95.9691 542.982 96.7347 543.383C97.5055 543.779 98.1071 544.32 98.5394 545.008C98.9717 545.69 99.1878 546.461 99.1878 547.32C99.1878 547.914 99.0758 548.495 98.8519 549.062C98.6331 549.63 98.2503 550.263 97.7034 550.961C97.1566 551.654 96.3961 552.495 95.4222 553.484L92.2425 556.812V556.93H99.4456V559H88.9144Z" fill="#CFCFCF"/>
<path d="M981.308 579.219C980.329 579.219 979.449 579.031 978.668 578.656C977.892 578.276 977.272 577.755 976.808 577.094C976.345 576.432 976.097 575.677 976.066 574.828H978.41C978.467 575.516 978.772 576.081 979.324 576.523C979.876 576.966 980.537 577.187 981.308 577.187C981.923 577.187 982.467 577.047 982.941 576.766C983.42 576.479 983.795 576.086 984.066 575.586C984.342 575.086 984.48 574.516 984.48 573.875C984.48 573.224 984.34 572.643 984.058 572.133C983.777 571.622 983.389 571.221 982.894 570.93C982.405 570.638 981.842 570.49 981.207 570.484C980.722 570.484 980.235 570.568 979.746 570.734C979.256 570.901 978.86 571.12 978.558 571.391L976.347 571.062L977.246 563H986.043V565.07H979.254L978.746 569.547H978.84C979.152 569.245 979.566 568.992 980.082 568.789C980.603 568.586 981.16 568.484 981.754 568.484C982.728 568.484 983.595 568.716 984.355 569.18C985.121 569.643 985.722 570.276 986.16 571.078C986.603 571.875 986.821 572.792 986.816 573.828C986.821 574.865 986.587 575.789 986.113 576.602C985.644 577.414 984.993 578.055 984.16 578.523C983.332 578.987 982.381 579.219 981.308 579.219ZM989.111 575.875V573.922L996.025 563H997.564V565.875H996.588L991.642 573.703V573.828H1001.12V575.875H989.111ZM996.697 579V575.281L996.713 574.391V563H999.002V579H996.697ZM1006.09 576.812L1005.97 577.664C1005.89 578.289 1005.76 578.94 1005.57 579.617C1005.39 580.299 1005.2 580.932 1005 581.516C1004.81 582.099 1004.65 582.563 1004.53 582.906H1002.87C1002.94 582.583 1003.03 582.146 1003.15 581.594C1003.27 581.047 1003.39 580.435 1003.5 579.758C1003.62 579.081 1003.7 578.391 1003.76 577.687L1003.84 576.812H1006.09ZM1014.14 579.219C1013.43 579.208 1012.72 579.078 1012.03 578.828C1011.34 578.578 1010.72 578.161 1010.15 577.578C1009.59 576.995 1009.14 576.211 1008.8 575.227C1008.47 574.242 1008.3 573.013 1008.3 571.539C1008.3 570.143 1008.44 568.904 1008.72 567.82C1009 566.737 1009.4 565.823 1009.93 565.078C1010.45 564.328 1011.09 563.758 1011.83 563.367C1012.58 562.977 1013.41 562.781 1014.34 562.781C1015.29 562.781 1016.14 562.969 1016.88 563.344C1017.62 563.719 1018.22 564.237 1018.68 564.898C1019.14 565.56 1019.44 566.312 1019.56 567.156H1017.18C1017.02 566.49 1016.7 565.945 1016.22 565.523C1015.74 565.102 1015.11 564.891 1014.34 564.891C1013.17 564.891 1012.26 565.401 1011.6 566.422C1010.95 567.443 1010.62 568.862 1010.62 570.68H1010.73C1011.01 570.227 1011.35 569.841 1011.75 569.523C1012.15 569.201 1012.61 568.953 1013.11 568.781C1013.61 568.604 1014.14 568.516 1014.7 568.516C1015.63 568.516 1016.47 568.742 1017.22 569.195C1017.97 569.643 1018.57 570.263 1019.02 571.055C1019.47 571.846 1019.69 572.753 1019.69 573.773C1019.69 574.794 1019.46 575.719 1019 576.547C1018.54 577.375 1017.89 578.031 1017.06 578.516C1016.23 578.995 1015.25 579.229 1014.14 579.219ZM1014.13 577.187C1014.75 577.187 1015.29 577.036 1015.78 576.734C1016.26 576.432 1016.65 576.026 1016.93 575.516C1017.21 575.005 1017.35 574.435 1017.35 573.805C1017.35 573.19 1017.21 572.63 1016.94 572.125C1016.66 571.62 1016.29 571.219 1015.81 570.922C1015.34 570.625 1014.79 570.477 1014.19 570.477C1013.72 570.477 1013.29 570.565 1012.9 570.742C1012.51 570.919 1012.16 571.164 1011.87 571.477C1011.57 571.789 1011.33 572.148 1011.16 572.555C1011 572.956 1010.91 573.38 1010.91 573.828C1010.91 574.427 1011.05 574.982 1011.33 575.492C1011.61 576.003 1011.99 576.414 1012.47 576.727C1012.96 577.034 1013.52 577.187 1014.13 577.187Z" fill="#CFCFCF"/>
<rect x="549" y="124" width="491" height="295" rx="20" fill="#F7F7F7"/>
<path opacity="0.6" d="M576.496 150.326H574.106C574.038 149.934 573.912 149.587 573.729 149.284C573.545 148.977 573.317 148.717 573.045 148.504C572.772 148.291 572.461 148.131 572.112 148.025C571.766 147.914 571.393 147.859 570.993 147.859C570.281 147.859 569.651 148.038 569.101 148.396C568.551 148.749 568.121 149.269 567.81 149.955C567.499 150.637 567.343 151.47 567.343 152.455C567.343 153.456 567.499 154.3 567.81 154.986C568.125 155.668 568.555 156.183 569.101 156.533C569.651 156.878 570.279 157.05 570.987 157.05C571.379 157.05 571.745 156.999 572.086 156.897C572.431 156.79 572.74 156.635 573.013 156.43C573.29 156.226 573.522 155.974 573.71 155.676C573.901 155.378 574.033 155.037 574.106 154.653L576.496 154.666C576.407 155.288 576.213 155.872 575.915 156.418C575.621 156.963 575.235 157.445 574.758 157.862C574.281 158.276 573.722 158.599 573.083 158.834C572.444 159.064 571.734 159.179 570.955 159.179C569.804 159.179 568.777 158.913 567.874 158.38C566.97 157.847 566.259 157.078 565.739 156.072C565.219 155.067 564.959 153.861 564.959 152.455C564.959 151.044 565.221 149.838 565.745 148.837C566.269 147.831 566.983 147.062 567.886 146.529C568.79 145.996 569.813 145.73 570.955 145.73C571.683 145.73 572.361 145.832 572.987 146.037C573.614 146.241 574.172 146.542 574.662 146.938C575.152 147.33 575.555 147.812 575.87 148.383C576.19 148.95 576.398 149.597 576.496 150.326ZM581.991 159H579.46L584.068 145.909H586.996L591.611 159H589.08L585.583 148.594H585.481L581.991 159ZM582.074 153.867H588.978V155.772H582.074V153.867ZM595.135 159V145.909H597.507V151.451H603.573V145.909H605.951V159H603.573V153.439H597.507V159H595.135ZM618.173 159L613.865 153.279H612.701V159H610.33V145.909H612.701V151.291H613.296L617.949 145.909H620.87L615.699 151.879L621.094 159H618.173ZM623.93 147.897V145.909H634.374V147.897H630.328V159H627.976V147.897H623.93ZM643.228 151.502V153.407H637.334V151.502H643.228ZM658.245 145.909V159H655.893V147.878H650.165V159H647.813V145.909H658.245ZM662.881 159V145.909H671.396V147.897H665.253V151.451H670.955V153.439H665.253V157.012H671.447V159H662.881ZM675.04 147.897V145.909H685.484V147.897H681.438V159H679.086V147.897H675.04ZM689.298 159V145.909H697.812V147.897H691.669V151.451H697.371V153.439H691.669V157.012H697.863V159H689.298ZM702.031 159V145.909H706.941C707.946 145.909 708.79 146.097 709.472 146.472C710.158 146.847 710.676 147.362 711.025 148.018C711.379 148.67 711.556 149.412 711.556 150.243C711.556 151.082 711.379 151.828 711.025 152.48C710.671 153.132 710.149 153.646 709.459 154.021C708.769 154.391 707.919 154.577 706.909 154.577H703.655V152.627H706.589C707.177 152.627 707.659 152.525 708.034 152.32C708.409 152.116 708.686 151.835 708.865 151.477C709.048 151.119 709.139 150.707 709.139 150.243C709.139 149.778 709.048 149.369 708.865 149.016C708.686 148.662 708.406 148.387 708.027 148.191C707.652 147.991 707.169 147.891 706.576 147.891H704.403V159H702.031ZM715.415 159V145.909H723.834V147.897H717.787V150.965H720.312C721.313 150.965 722.172 151.129 722.888 151.457C723.608 151.781 724.16 152.239 724.543 152.832C724.927 153.424 725.119 154.121 725.119 154.922C725.119 155.727 724.927 156.437 724.543 157.05C724.16 157.66 723.608 158.137 722.888 158.482C722.172 158.827 721.313 159 720.312 159H715.415ZM717.787 157.057H720.312C720.84 157.057 721.288 156.957 721.654 156.756C722.021 156.556 722.298 156.292 722.485 155.964C722.677 155.636 722.773 155.28 722.773 154.896C722.773 154.342 722.56 153.871 722.133 153.484C721.712 153.092 721.104 152.896 720.312 152.896H717.787V157.057ZM730.163 159.179V157.185H730.91C731.247 157.185 731.524 157.136 731.741 157.038C731.959 156.94 732.133 156.799 732.265 156.616C732.402 156.433 732.515 156.219 732.604 155.977L732.777 155.536L728.098 145.909H730.578L733.838 152.915L736.657 145.909H739.099L734.586 156.584C734.377 157.044 734.136 157.472 733.864 157.869C733.591 158.261 733.235 158.578 732.796 158.821C732.361 159.06 731.795 159.179 731.096 159.179H730.163ZM742.588 159V145.909H747.497C748.502 145.909 749.346 146.097 750.028 146.472C750.714 146.847 751.232 147.362 751.581 148.018C751.935 148.67 752.112 149.412 752.112 150.243C752.112 151.082 751.935 151.828 751.581 152.48C751.228 153.132 750.706 153.646 750.015 154.021C749.325 154.391 748.475 154.577 747.465 154.577H744.211V152.627H747.145C747.733 152.627 748.215 152.525 748.59 152.32C748.965 152.116 749.242 151.835 749.421 151.477C749.604 151.119 749.696 150.707 749.696 150.243C749.696 149.778 749.604 149.369 749.421 149.016C749.242 148.662 748.963 148.387 748.583 148.191C748.208 147.991 747.725 147.891 747.132 147.891H744.959V159H742.588ZM764.39 145.909V147.897H758.343V159H755.972V145.909H764.39Z" fill="black"/>
<path opacity="0.4" d="M1024.97 373.004H564V285.212L785 277C785 277 1022.28 224.206 1024.97 223.02V223C1025 223 1025 223.007 1024.97 223.02V373.004Z" fill="url(#paint1_linear_3375_2599)"/>
<rect x="1020.36" y="218.357" width="9.55842" height="9.55842" rx="4.77921" fill="#04B34A" stroke="#04B34A" stroke-width="0.713315"/>
<path d="M1025.5 223L788.813 277.848C786.942 278.282 785.033 278.528 783.113 278.584L563.5 285" stroke="#04B34A" stroke-width="4"/>
<path d="M919.074 392.559V368.201L909.989 377.32L906 373.366L921.955 357.445L937.875 373.366L933.955 377.32L924.835 368.201V392.559H919.074Z" fill="#04B34A"/>
<path d="M963.21 392.477C960.664 392.477 958.397 392.04 956.408 391.165C954.431 390.278 952.869 389.062 951.721 387.517C950.585 385.96 949.999 384.165 949.965 382.131H957.397C957.442 382.983 957.721 383.733 958.232 384.381C958.755 385.017 959.448 385.511 960.312 385.864C961.175 386.216 962.147 386.392 963.227 386.392C964.352 386.392 965.346 386.193 966.21 385.795C967.073 385.398 967.749 384.847 968.238 384.142C968.727 383.437 968.971 382.625 968.971 381.705C968.971 380.773 968.71 379.949 968.187 379.233C967.675 378.506 966.937 377.937 965.971 377.528C965.016 377.119 963.88 376.915 962.562 376.915H959.306V371.494H962.562C963.675 371.494 964.658 371.301 965.511 370.915C966.374 370.528 967.045 369.994 967.522 369.312C967.999 368.619 968.238 367.812 968.238 366.892C968.238 366.017 968.028 365.25 967.607 364.591C967.198 363.92 966.619 363.398 965.869 363.023C965.13 362.648 964.266 362.46 963.278 362.46C962.278 362.46 961.363 362.642 960.533 363.006C959.704 363.358 959.039 363.864 958.539 364.523C958.039 365.182 957.772 365.955 957.738 366.841H950.664C950.698 364.83 951.272 363.057 952.386 361.523C953.499 359.989 954.999 358.79 956.886 357.926C958.783 357.051 960.925 356.614 963.312 356.614C965.721 356.614 967.829 357.051 969.636 357.926C971.442 358.801 972.846 359.983 973.846 361.472C974.857 362.949 975.357 364.608 975.346 366.449C975.357 368.403 974.749 370.034 973.522 371.341C972.306 372.648 970.721 373.477 968.766 373.83V374.102C971.335 374.432 973.289 375.324 974.63 376.778C975.982 378.222 976.653 380.028 976.641 382.199C976.653 384.188 976.079 385.955 974.92 387.5C973.772 389.045 972.187 390.261 970.164 391.148C968.141 392.034 965.823 392.477 963.21 392.477ZM1000.56 385.455V383.614C1000.56 382.216 1000.86 380.932 1001.45 379.761C1002.05 378.58 1002.92 377.636 1004.06 376.932C1005.2 376.216 1006.6 375.858 1008.25 375.858C1009.92 375.858 1011.32 376.21 1012.46 376.915C1013.61 377.619 1014.47 378.562 1015.05 379.744C1015.64 380.915 1015.94 382.205 1015.94 383.614V385.455C1015.94 386.852 1015.64 388.142 1015.05 389.324C1014.46 390.494 1013.59 391.432 1012.44 392.136C1011.3 392.852 1009.9 393.21 1008.25 393.21C1006.58 393.21 1005.18 392.852 1004.04 392.136C1002.9 391.432 1002.04 390.494 1001.45 389.324C1000.86 388.142 1000.56 386.852 1000.56 385.455ZM1005.52 383.614V385.455C1005.52 386.261 1005.72 387.023 1006.1 387.739C1006.5 388.455 1007.22 388.812 1008.25 388.812C1009.28 388.812 1009.99 388.46 1010.36 387.756C1010.75 387.051 1010.94 386.284 1010.94 385.455V383.614C1010.94 382.784 1010.76 382.011 1010.4 381.295C1010.03 380.58 1009.32 380.222 1008.25 380.222C1007.23 380.222 1006.52 380.58 1006.12 381.295C1005.72 382.011 1005.52 382.784 1005.52 383.614ZM982.648 365.477V363.636C982.648 362.227 982.949 360.937 983.551 359.767C984.153 358.585 985.023 357.642 986.159 356.938C987.307 356.233 988.693 355.881 990.318 355.881C992 355.881 993.409 356.233 994.545 356.938C995.682 357.642 996.545 358.585 997.136 359.767C997.727 360.937 998.023 362.227 998.023 363.636V365.477C998.023 366.886 997.722 368.176 997.119 369.347C996.528 370.517 995.659 371.455 994.511 372.159C993.375 372.852 991.977 373.199 990.318 373.199C988.659 373.199 987.256 372.847 986.108 372.142C984.972 371.426 984.108 370.489 983.517 369.33C982.938 368.159 982.648 366.875 982.648 365.477ZM987.642 363.636V365.477C987.642 366.307 987.835 367.074 988.222 367.778C988.619 368.483 989.318 368.835 990.318 368.835C991.364 368.835 992.074 368.483 992.449 367.778C992.835 367.074 993.028 366.307 993.028 365.477V363.636C993.028 362.807 992.847 362.034 992.483 361.318C992.119 360.602 991.398 360.244 990.318 360.244C989.307 360.244 988.608 360.608 988.222 361.335C987.835 362.062 987.642 362.83 987.642 363.636ZM984.898 392L1008.9 357.091H1013.36L989.364 392H984.898Z" fill="black"/>
<path d="M571.125 272.219C570.411 272.208 569.708 272.078 569.016 271.828C568.328 271.578 567.703 271.161 567.141 270.578C566.578 269.995 566.128 269.211 565.789 268.227C565.456 267.242 565.289 266.013 565.289 264.539C565.289 263.143 565.427 261.904 565.703 260.82C565.984 259.737 566.388 258.823 566.914 258.078C567.44 257.328 568.076 256.758 568.82 256.367C569.565 255.977 570.401 255.781 571.328 255.781C572.281 255.781 573.128 255.969 573.867 256.344C574.607 256.719 575.206 257.237 575.664 257.898C576.128 258.56 576.422 259.312 576.547 260.156H574.164C574.003 259.49 573.682 258.945 573.203 258.523C572.724 258.102 572.099 257.891 571.328 257.891C570.156 257.891 569.242 258.401 568.586 259.422C567.935 260.443 567.607 261.862 567.602 263.68H567.719C567.995 263.227 568.333 262.841 568.734 262.523C569.141 262.201 569.594 261.953 570.094 261.781C570.599 261.604 571.13 261.516 571.688 261.516C572.615 261.516 573.453 261.742 574.203 262.195C574.958 262.643 575.56 263.263 576.008 264.055C576.456 264.846 576.68 265.753 576.68 266.773C576.68 267.794 576.448 268.719 575.984 269.547C575.526 270.375 574.88 271.031 574.047 271.516C573.214 271.995 572.24 272.229 571.125 272.219ZM571.117 270.187C571.732 270.187 572.281 270.036 572.766 269.734C573.25 269.432 573.633 269.026 573.914 268.516C574.195 268.005 574.336 267.435 574.336 266.805C574.336 266.19 574.198 265.63 573.922 265.125C573.651 264.62 573.276 264.219 572.797 263.922C572.323 263.625 571.781 263.477 571.172 263.477C570.708 263.477 570.279 263.565 569.883 263.742C569.492 263.919 569.148 264.164 568.852 264.477C568.555 264.789 568.32 265.148 568.148 265.555C567.982 265.956 567.898 266.38 567.898 266.828C567.898 267.427 568.036 267.982 568.313 268.492C568.594 269.003 568.977 269.414 569.461 269.727C569.951 270.034 570.503 270.187 571.117 270.187ZM584.889 272.219C584.175 272.208 583.472 272.078 582.779 271.828C582.092 271.578 581.467 271.161 580.904 270.578C580.342 269.995 579.891 269.211 579.553 268.227C579.22 267.242 579.053 266.013 579.053 264.539C579.053 263.143 579.191 261.904 579.467 260.82C579.748 259.737 580.152 258.823 580.678 258.078C581.204 257.328 581.839 256.758 582.584 256.367C583.329 255.977 584.165 255.781 585.092 255.781C586.045 255.781 586.891 255.969 587.631 256.344C588.371 256.719 588.97 257.237 589.428 257.898C589.891 258.56 590.186 259.312 590.311 260.156H587.928C587.766 259.49 587.446 258.945 586.967 258.523C586.488 258.102 585.863 257.891 585.092 257.891C583.92 257.891 583.006 258.401 582.35 259.422C581.699 260.443 581.371 261.862 581.365 263.68H581.483C581.759 263.227 582.097 262.841 582.498 262.523C582.904 262.201 583.358 261.953 583.858 261.781C584.363 261.604 584.894 261.516 585.451 261.516C586.378 261.516 587.217 261.742 587.967 262.195C588.722 262.643 589.324 263.263 589.772 264.055C590.22 264.846 590.443 265.753 590.443 266.773C590.443 267.794 590.212 268.719 589.748 269.547C589.29 270.375 588.644 271.031 587.811 271.516C586.977 271.995 586.003 272.229 584.889 272.219ZM584.881 270.187C585.496 270.187 586.045 270.036 586.529 269.734C587.014 269.432 587.397 269.026 587.678 268.516C587.959 268.005 588.1 267.435 588.1 266.805C588.1 266.19 587.962 265.63 587.686 265.125C587.415 264.62 587.04 264.219 586.561 263.922C586.087 263.625 585.545 263.477 584.936 263.477C584.472 263.477 584.042 263.565 583.647 263.742C583.256 263.919 582.912 264.164 582.615 264.477C582.318 264.789 582.084 265.148 581.912 265.555C581.746 265.956 581.662 266.38 581.662 266.828C581.662 267.427 581.8 267.982 582.076 268.492C582.358 269.003 582.74 269.414 583.225 269.727C583.714 270.034 584.266 270.187 584.881 270.187ZM595.406 269.812L595.289 270.664C595.211 271.289 595.078 271.94 594.891 272.617C594.709 273.299 594.518 273.932 594.321 274.516C594.128 275.099 593.969 275.563 593.844 275.906H592.188C592.255 275.583 592.349 275.146 592.469 274.594C592.589 274.047 592.706 273.435 592.821 272.758C592.935 272.081 593.021 271.391 593.078 270.687L593.156 269.812H595.406ZM603.475 272.219C602.496 272.219 601.616 272.031 600.834 271.656C600.058 271.276 599.438 270.755 598.975 270.094C598.511 269.432 598.264 268.677 598.233 267.828H600.576C600.634 268.516 600.938 269.081 601.491 269.523C602.043 269.966 602.704 270.187 603.475 270.187C604.089 270.187 604.634 270.047 605.108 269.766C605.587 269.479 605.962 269.086 606.233 268.586C606.509 268.086 606.647 267.516 606.647 266.875C606.647 266.224 606.506 265.643 606.225 265.133C605.944 264.622 605.556 264.221 605.061 263.93C604.571 263.638 604.009 263.49 603.373 263.484C602.889 263.484 602.402 263.568 601.912 263.734C601.423 263.901 601.027 264.12 600.725 264.391L598.514 264.062L599.412 256H608.209V258.07H601.42L600.912 262.547H601.006C601.319 262.245 601.733 261.992 602.248 261.789C602.769 261.586 603.326 261.484 603.92 261.484C604.894 261.484 605.761 261.716 606.522 262.18C607.287 262.643 607.889 263.276 608.326 264.078C608.769 264.875 608.988 265.792 608.983 266.828C608.988 267.865 608.754 268.789 608.28 269.602C607.811 270.414 607.16 271.055 606.326 271.523C605.498 271.987 604.548 272.219 603.475 272.219Z" fill="#CFCFCF"/>
<path d="M985.677 209.219C984.964 209.208 984.261 209.078 983.568 208.828C982.881 208.578 982.256 208.161 981.693 207.578C981.131 206.995 980.68 206.211 980.341 205.227C980.008 204.242 979.841 203.013 979.841 201.539C979.841 200.143 979.98 198.904 980.256 197.82C980.537 196.737 980.94 195.823 981.466 195.078C981.993 194.328 982.628 193.758 983.373 193.367C984.118 192.977 984.953 192.781 985.881 192.781C986.834 192.781 987.68 192.969 988.42 193.344C989.159 193.719 989.758 194.237 990.216 194.898C990.68 195.56 990.974 196.312 991.099 197.156H988.716C988.555 196.49 988.235 195.945 987.756 195.523C987.276 195.102 986.651 194.891 985.881 194.891C984.709 194.891 983.795 195.401 983.138 196.422C982.487 197.443 982.159 198.862 982.154 200.68H982.271C982.547 200.227 982.886 199.841 983.287 199.523C983.693 199.201 984.146 198.953 984.646 198.781C985.151 198.604 985.683 198.516 986.24 198.516C987.167 198.516 988.006 198.742 988.756 199.195C989.511 199.643 990.112 200.263 990.56 201.055C991.008 201.846 991.232 202.753 991.232 203.773C991.232 204.794 991 205.719 990.537 206.547C990.078 207.375 989.433 208.031 988.599 208.516C987.766 208.995 986.792 209.229 985.677 209.219ZM985.67 207.187C986.284 207.187 986.834 207.036 987.318 206.734C987.802 206.432 988.185 206.026 988.466 205.516C988.748 205.005 988.888 204.435 988.888 203.805C988.888 203.19 988.75 202.63 988.474 202.125C988.203 201.62 987.828 201.219 987.349 200.922C986.875 200.625 986.334 200.477 985.724 200.477C985.261 200.477 984.831 200.565 984.435 200.742C984.045 200.919 983.701 201.164 983.404 201.477C983.107 201.789 982.873 202.148 982.701 202.555C982.534 202.956 982.451 203.38 982.451 203.828C982.451 204.427 982.589 204.982 982.865 205.492C983.146 206.003 983.529 206.414 984.013 206.727C984.503 207.034 985.055 207.187 985.67 207.187ZM999.176 192.781C999.889 192.786 1000.59 192.917 1001.28 193.172C1001.98 193.427 1002.6 193.844 1003.16 194.422C1003.72 195 1004.17 195.781 1004.5 196.766C1004.84 197.745 1005.01 198.964 1005.02 200.422C1005.02 201.823 1004.88 203.07 1004.6 204.164C1004.32 205.253 1003.91 206.172 1003.39 206.922C1002.87 207.672 1002.23 208.242 1001.49 208.633C1000.74 209.023 999.905 209.219 998.972 209.219C998.019 209.219 997.173 209.031 996.433 208.656C995.694 208.281 995.092 207.763 994.629 207.102C994.165 206.435 993.876 205.669 993.762 204.805H996.144C996.301 205.492 996.618 206.049 997.097 206.477C997.582 206.898 998.207 207.109 998.972 207.109C1000.14 207.109 1001.06 206.599 1001.71 205.578C1002.37 204.552 1002.7 203.12 1002.71 201.281H1002.58C1002.31 201.729 1001.97 202.115 1001.57 202.437C1001.17 202.76 1000.71 203.01 1000.21 203.187C999.715 203.365 999.181 203.453 998.613 203.453C997.691 203.453 996.853 203.227 996.097 202.773C995.342 202.32 994.741 201.698 994.293 200.906C993.845 200.115 993.621 199.211 993.621 198.195C993.621 197.185 993.85 196.268 994.308 195.445C994.772 194.622 995.418 193.971 996.246 193.492C997.079 193.008 998.056 192.771 999.176 192.781ZM999.183 194.812C998.574 194.812 998.025 194.964 997.535 195.266C997.051 195.562 996.668 195.966 996.387 196.477C996.105 196.982 995.965 197.544 995.965 198.164C995.965 198.784 996.1 199.346 996.371 199.852C996.647 200.352 997.022 200.75 997.496 201.047C997.975 201.339 998.522 201.484 999.137 201.484C999.595 201.484 1000.02 201.396 1000.42 201.219C1000.81 201.042 1001.16 200.797 1001.46 200.484C1001.75 200.167 1001.99 199.807 1002.15 199.406C1002.32 199.005 1002.4 198.583 1002.4 198.141C1002.4 197.552 1002.26 197.005 1001.98 196.5C1001.7 195.995 1001.32 195.589 1000.84 195.281C1000.36 194.969 999.803 194.812 999.183 194.812ZM1010.11 206.812L1009.99 207.664C1009.91 208.289 1009.78 208.94 1009.59 209.617C1009.41 210.299 1009.22 210.932 1009.02 211.516C1008.83 212.099 1008.67 212.563 1008.55 212.906H1006.89C1006.96 212.583 1007.05 212.146 1007.17 211.594C1007.29 211.047 1007.41 210.435 1007.52 209.758C1007.64 209.081 1007.72 208.391 1007.78 207.687L1007.86 206.812H1010.11ZM1018.18 209.219C1017.2 209.219 1016.32 209.031 1015.54 208.656C1014.76 208.276 1014.14 207.755 1013.68 207.094C1013.21 206.432 1012.97 205.677 1012.94 204.828H1015.28C1015.34 205.516 1015.64 206.081 1016.19 206.523C1016.75 206.966 1017.41 207.187 1018.18 207.187C1018.79 207.187 1019.34 207.047 1019.81 206.766C1020.29 206.479 1020.66 206.086 1020.94 205.586C1021.21 205.086 1021.35 204.516 1021.35 203.875C1021.35 203.224 1021.21 202.643 1020.93 202.133C1020.65 201.622 1020.26 201.221 1019.76 200.93C1019.27 200.638 1018.71 200.49 1018.08 200.484C1017.59 200.484 1017.1 200.568 1016.62 200.734C1016.13 200.901 1015.73 201.12 1015.43 201.391L1013.22 201.062L1014.12 193H1022.91V195.07H1016.12L1015.62 199.547H1015.71C1016.02 199.245 1016.44 198.992 1016.95 198.789C1017.47 198.586 1018.03 198.484 1018.62 198.484C1019.6 198.484 1020.46 198.716 1021.22 199.18C1021.99 199.643 1022.59 200.276 1023.03 201.078C1023.47 201.875 1023.69 202.792 1023.69 203.828C1023.69 204.865 1023.46 205.789 1022.98 206.602C1022.51 207.414 1021.86 208.055 1021.03 208.523C1020.2 208.987 1019.25 209.219 1018.18 209.219Z" fill="#CFCFCF"/>
<rect x="40" y="124" width="491" height="295" rx="20" fill="#F7F7F7"/>
<path opacity="0.6" d="M56.2912 145.909H59.1932L63.0795 155.395H63.233L67.1193 145.909H70.0213V159H67.7457V150.006H67.6243L64.0064 158.962H62.3061L58.6882 149.987H58.5668V159H56.2912V145.909ZM86.1011 152.455C86.1011 153.865 85.8369 155.073 85.3085 156.079C84.7844 157.08 84.0685 157.847 83.1608 158.38C82.2574 158.913 81.2325 159.179 80.0862 159.179C78.9399 159.179 77.9129 158.913 77.0053 158.38C76.1018 157.843 75.3859 157.074 74.8575 156.072C74.3334 155.067 74.0713 153.861 74.0713 152.455C74.0713 151.044 74.3334 149.838 74.8575 148.837C75.3859 147.831 76.1018 147.062 77.0053 146.529C77.9129 145.996 78.9399 145.73 80.0862 145.73C81.2325 145.73 82.2574 145.996 83.1608 146.529C84.0685 147.062 84.7844 147.831 85.3085 148.837C85.8369 149.838 86.1011 151.044 86.1011 152.455ZM83.7169 152.455C83.7169 151.462 83.5614 150.624 83.2503 149.942C82.9435 149.256 82.5173 148.739 81.9719 148.389C81.4264 148.036 80.7979 147.859 80.0862 147.859C79.3746 147.859 78.746 148.036 78.2006 148.389C77.6551 148.739 77.2268 149.256 76.9158 149.942C76.6089 150.624 76.4555 151.462 76.4555 152.455C76.4555 153.447 76.6089 154.287 76.9158 154.973C77.2268 155.655 77.6551 156.173 78.2006 156.526C78.746 156.876 79.3746 157.05 80.0862 157.05C80.7979 157.05 81.4264 156.876 81.9719 156.526C82.5173 156.173 82.9435 155.655 83.2503 154.973C83.5614 154.287 83.7169 153.447 83.7169 152.455ZM101.348 150.326H98.9578C98.8896 149.934 98.7639 149.587 98.5806 149.284C98.3974 148.977 98.1694 148.717 97.8967 148.504C97.624 148.291 97.3129 148.131 96.9635 148.025C96.6183 147.914 96.2454 147.859 95.8448 147.859C95.1332 147.859 94.5025 148.038 93.9528 148.396C93.4031 148.749 92.9727 149.269 92.6616 149.955C92.3505 150.637 92.195 151.47 92.195 152.455C92.195 153.456 92.3505 154.3 92.6616 154.986C92.977 155.668 93.4073 156.183 93.9528 156.533C94.5025 156.878 95.1311 157.05 95.8385 157.05C96.2305 157.05 96.597 156.999 96.9379 156.897C97.2831 156.79 97.592 156.635 97.8647 156.43C98.1417 156.226 98.374 155.974 98.5615 155.676C98.7532 155.378 98.8853 155.037 98.9578 154.653L101.348 154.666C101.259 155.288 101.065 155.872 100.767 156.418C100.473 156.963 100.087 157.445 99.6098 157.862C99.1325 158.276 98.5743 158.599 97.935 158.834C97.2958 159.064 96.5863 159.179 95.8065 159.179C94.6559 159.179 93.6289 158.913 92.7255 158.38C91.8221 157.847 91.1105 157.078 90.5906 156.072C90.0707 155.067 89.8108 153.861 89.8108 152.455C89.8108 151.044 90.0728 149.838 90.597 148.837C91.1211 147.831 91.8349 147.062 92.7383 146.529C93.6417 145.996 94.6645 145.73 95.8065 145.73C96.5352 145.73 97.2127 145.832 97.8392 146.037C98.4656 146.241 99.0238 146.542 99.5139 146.938C100.004 147.33 100.407 147.812 100.722 148.383C101.042 148.95 101.25 149.597 101.348 150.326ZM113.163 159L108.855 153.279H107.692V159H105.32V145.909H107.692V151.291H108.286L112.939 145.909H115.861L110.689 151.879L116.084 159H113.163ZM119.495 159V145.909H124.506C125.452 145.909 126.239 146.058 126.865 146.357C127.496 146.651 127.967 147.053 128.278 147.565C128.593 148.076 128.751 148.656 128.751 149.303C128.751 149.836 128.649 150.292 128.444 150.671C128.239 151.046 127.965 151.351 127.619 151.585C127.274 151.82 126.889 151.988 126.462 152.09V152.218C126.927 152.244 127.372 152.386 127.798 152.646C128.229 152.902 128.58 153.264 128.853 153.733C129.126 154.202 129.262 154.768 129.262 155.433C129.262 156.111 129.098 156.72 128.77 157.261C128.442 157.798 127.948 158.222 127.287 158.533C126.626 158.844 125.796 159 124.794 159H119.495ZM121.867 157.018H124.417C125.278 157.018 125.898 156.854 126.277 156.526C126.661 156.194 126.852 155.768 126.852 155.248C126.852 154.86 126.756 154.511 126.565 154.2C126.373 153.884 126.1 153.637 125.747 153.458C125.393 153.275 124.971 153.183 124.481 153.183H121.867V157.018ZM121.867 151.477H124.212C124.622 151.477 124.99 151.402 125.318 151.253C125.646 151.099 125.904 150.884 126.092 150.607C126.283 150.326 126.379 149.994 126.379 149.61C126.379 149.103 126.2 148.685 125.842 148.357C125.489 148.029 124.962 147.865 124.264 147.865H121.867V151.477ZM134.806 159H132.275L136.884 145.909H139.811L144.426 159H141.895L138.399 148.594H138.296L134.806 159ZM134.889 153.867H141.793V155.772H134.889V153.867Z" fill="black"/>
<path opacity="0.4" d="M55.0244 373H516V288.5L280.959 286.668C280.959 286.668 57.7061 238.665 55.0244 237.521V237.5C54.9918 237.5 54.9921 237.507 55.0244 237.521L55.0244 373Z" fill="url(#paint2_linear_3375_2599)"/>
<rect width="10.2717" height="10.2717" rx="5.13587" transform="matrix(-1 0 0 1 521.271 284)" fill="#CACACA"/>
<path d="M54.5 238L282.131 286.399C284.012 286.799 285.927 287.01 287.85 287.031L516.5 289.5" stroke="#CACACA" stroke-width="4"/>
<path d="M366.074 357.441L366.074 381.799L356.989 372.68L353 376.634L368.955 392.555L384.875 376.634L380.955 372.68L371.835 381.799L371.835 357.441L366.074 357.441Z" fill="#CACACA"/>
<path d="M396.762 385.864V380.051L411.336 357.091H416.347V365.136H413.381L404.194 379.676V379.949H424.904V385.864H396.762ZM413.518 392V384.091L413.654 381.517V357.091H420.575V392H413.518ZM436.634 387.227L436.446 389.102C436.298 390.602 436.014 392.097 435.594 393.585C435.185 395.085 434.753 396.443 434.298 397.659C433.855 398.875 433.497 399.83 433.224 400.523H428.52C428.69 399.852 428.923 398.915 429.219 397.71C429.514 396.517 429.793 395.176 430.054 393.688C430.315 392.199 430.48 390.682 430.548 389.136L430.634 387.227H436.634ZM442.712 392V386.682L455.138 375.176C456.195 374.153 457.082 373.233 457.798 372.415C458.525 371.597 459.076 370.795 459.451 370.011C459.826 369.216 460.013 368.358 460.013 367.438C460.013 366.415 459.781 365.534 459.315 364.795C458.849 364.045 458.212 363.472 457.406 363.074C456.599 362.665 455.684 362.46 454.661 362.46C453.593 362.46 452.661 362.676 451.866 363.108C451.07 363.54 450.457 364.159 450.025 364.966C449.593 365.773 449.377 366.733 449.377 367.847H442.371C442.371 365.562 442.888 363.58 443.923 361.898C444.957 360.216 446.406 358.915 448.269 357.994C450.133 357.074 452.281 356.614 454.712 356.614C457.212 356.614 459.388 357.057 461.241 357.943C463.104 358.818 464.553 360.034 465.587 361.591C466.621 363.148 467.138 364.932 467.138 366.943C467.138 368.261 466.877 369.562 466.354 370.847C465.843 372.131 464.928 373.557 463.61 375.125C462.292 376.682 460.434 378.551 458.036 380.733L452.94 385.727V385.966H467.599V392H442.712ZM491.562 385.455V383.614C491.562 382.216 491.858 380.932 492.449 379.761C493.051 378.58 493.92 377.636 495.057 376.932C496.205 376.216 497.602 375.858 499.25 375.858C500.92 375.858 502.324 376.21 503.46 376.915C504.608 377.619 505.472 378.562 506.051 379.744C506.642 380.915 506.938 382.205 506.938 383.614V385.455C506.938 386.852 506.642 388.142 506.051 389.324C505.46 390.494 504.591 391.432 503.443 392.136C502.295 392.852 500.898 393.21 499.25 393.21C497.58 393.21 496.176 392.852 495.04 392.136C493.903 391.432 493.04 390.494 492.449 389.324C491.858 388.142 491.562 386.852 491.562 385.455ZM496.523 383.614V385.455C496.523 386.261 496.716 387.023 497.102 387.739C497.5 388.455 498.216 388.812 499.25 388.812C500.284 388.812 500.989 388.46 501.364 387.756C501.75 387.051 501.943 386.284 501.943 385.455V383.614C501.943 382.784 501.761 382.011 501.398 381.295C501.034 380.58 500.318 380.222 499.25 380.222C498.227 380.222 497.517 380.58 497.119 381.295C496.722 382.011 496.523 382.784 496.523 383.614ZM473.648 365.477V363.636C473.648 362.227 473.949 360.937 474.551 359.767C475.153 358.585 476.023 357.642 477.159 356.938C478.307 356.233 479.693 355.881 481.318 355.881C483 355.881 484.409 356.233 485.545 356.938C486.682 357.642 487.545 358.585 488.136 359.767C488.727 360.937 489.023 362.227 489.023 363.636V365.477C489.023 366.886 488.722 368.176 488.119 369.347C487.528 370.517 486.659 371.455 485.511 372.159C484.375 372.852 482.977 373.199 481.318 373.199C479.659 373.199 478.256 372.847 477.108 372.142C475.972 371.426 475.108 370.489 474.517 369.33C473.938 368.159 473.648 366.875 473.648 365.477ZM478.642 363.636V365.477C478.642 366.307 478.835 367.074 479.222 367.778C479.619 368.483 480.318 368.835 481.318 368.835C482.364 368.835 483.074 368.483 483.449 367.778C483.835 367.074 484.028 366.307 484.028 365.477V363.636C484.028 362.807 483.847 362.034 483.483 361.318C483.119 360.602 482.398 360.244 481.318 360.244C480.307 360.244 479.608 360.608 479.222 361.335C478.835 362.062 478.642 362.83 478.642 363.636ZM475.898 392L499.898 357.091H504.364L480.364 392H475.898Z" fill="black"/>
<path d="M62.125 229.219C61.4115 229.208 60.7083 229.078 60.0156 228.828C59.3281 228.578 58.7031 228.161 58.1406 227.578C57.5781 226.995 57.1276 226.211 56.7891 225.227C56.4557 224.242 56.2891 223.013 56.2891 221.539C56.2891 220.143 56.4271 218.904 56.7031 217.82C56.9844 216.737 57.388 215.823 57.9141 215.078C58.4401 214.328 59.0755 213.758 59.8203 213.367C60.5651 212.977 61.401 212.781 62.3281 212.781C63.2813 212.781 64.1276 212.969 64.8672 213.344C65.6068 213.719 66.2057 214.237 66.6641 214.898C67.1276 215.56 67.4219 216.312 67.5469 217.156H65.1641C65.0026 216.49 64.6823 215.945 64.2031 215.523C63.724 215.102 63.099 214.891 62.3281 214.891C61.1563 214.891 60.2422 215.401 59.5859 216.422C58.9349 217.443 58.6068 218.862 58.6016 220.68H58.7188C58.9948 220.227 59.3333 219.841 59.7344 219.523C60.1406 219.201 60.5938 218.953 61.0938 218.781C61.599 218.604 62.1302 218.516 62.6875 218.516C63.6146 218.516 64.4531 218.742 65.2031 219.195C65.9583 219.643 66.5599 220.263 67.0078 221.055C67.4557 221.846 67.6797 222.753 67.6797 223.773C67.6797 224.794 67.4479 225.719 66.9844 226.547C66.526 227.375 65.8802 228.031 65.0469 228.516C64.2135 228.995 63.2396 229.229 62.125 229.219ZM62.1172 227.187C62.7318 227.187 63.2813 227.036 63.7656 226.734C64.25 226.432 64.6328 226.026 64.9141 225.516C65.1953 225.005 65.3359 224.435 65.3359 223.805C65.3359 223.19 65.1979 222.63 64.9219 222.125C64.651 221.62 64.276 221.219 63.7969 220.922C63.3229 220.625 62.7813 220.477 62.1719 220.477C61.7083 220.477 61.2786 220.565 60.8828 220.742C60.4922 220.919 60.1484 221.164 59.8516 221.477C59.5547 221.789 59.3203 222.148 59.1484 222.555C58.9818 222.956 58.8984 223.38 58.8984 223.828C58.8984 224.427 59.0365 224.982 59.3125 225.492C59.5938 226.003 59.9766 226.414 60.4609 226.727C60.9505 227.034 61.5026 227.187 62.1172 227.187ZM75.7091 229.219C74.5893 229.219 73.5997 229.026 72.7403 228.641C71.8862 228.255 71.2169 227.724 70.7325 227.047C70.2481 226.37 70.0086 225.599 70.0138 224.734C70.0086 224.057 70.1466 223.435 70.4278 222.867C70.7143 222.294 71.1023 221.818 71.5919 221.438C72.0815 221.052 72.6284 220.807 73.2325 220.703V220.609C72.4356 220.417 71.7976 219.99 71.3185 219.328C70.8393 218.667 70.6023 217.906 70.6075 217.047C70.6023 216.229 70.8185 215.5 71.256 214.859C71.6987 214.214 72.3054 213.706 73.0763 213.336C73.8471 212.966 74.7247 212.781 75.7091 212.781C76.683 212.781 77.5528 212.969 78.3185 213.344C79.0893 213.714 79.6961 214.221 80.1388 214.867C80.5815 215.508 80.8054 216.234 80.8106 217.047C80.8054 217.906 80.5606 218.667 80.0763 219.328C79.5919 219.99 78.9617 220.417 78.1856 220.609V220.703C78.7846 220.807 79.3237 221.052 79.8028 221.438C80.2872 221.818 80.6726 222.294 80.9591 222.867C81.2508 223.435 81.3992 224.057 81.4044 224.734C81.3992 225.599 81.1544 226.37 80.67 227.047C80.1856 227.724 79.5138 228.255 78.6544 228.641C77.8002 229.026 76.8185 229.219 75.7091 229.219ZM75.7091 227.242C76.3705 227.242 76.9435 227.133 77.4278 226.914C77.9122 226.69 78.2872 226.38 78.5528 225.984C78.8185 225.583 78.9539 225.115 78.9591 224.578C78.9539 224.021 78.808 223.529 78.5216 223.102C78.2403 222.674 77.8575 222.339 77.3731 222.094C76.8888 221.849 76.3341 221.727 75.7091 221.727C75.0789 221.727 74.519 221.849 74.0294 222.094C73.5398 222.339 73.1544 222.674 72.8731 223.102C72.5919 223.529 72.4539 224.021 72.4591 224.578C72.4539 225.115 72.5815 225.583 72.8419 225.984C73.1075 226.38 73.4851 226.69 73.9747 226.914C74.4643 227.133 75.0424 227.242 75.7091 227.242ZM75.7091 219.797C76.2403 219.797 76.7117 219.69 77.1231 219.477C77.5346 219.263 77.8575 218.966 78.0919 218.586C78.3315 218.206 78.4539 217.76 78.4591 217.25C78.4539 216.75 78.3341 216.313 78.0997 215.938C77.8705 215.562 77.5502 215.273 77.1388 215.07C76.7273 214.862 76.2508 214.758 75.7091 214.758C75.157 214.758 74.6726 214.862 74.256 215.07C73.8445 215.273 73.5242 215.562 73.295 215.938C73.0659 216.313 72.9539 216.75 72.9591 217.25C72.9539 217.76 73.0685 218.206 73.3028 218.586C73.5372 218.966 73.8601 219.263 74.2716 219.477C74.6883 219.69 75.1674 219.797 75.7091 219.797ZM86.5783 226.812L86.4611 227.664C86.383 228.289 86.2502 228.94 86.0627 229.617C85.8804 230.299 85.6903 230.932 85.4924 231.516C85.2997 232.099 85.1408 232.563 85.0158 232.906H83.3596C83.4273 232.583 83.521 232.146 83.6408 231.594C83.7606 231.047 83.8778 230.435 83.9924 229.758C84.107 229.081 84.1929 228.391 84.2502 227.687L84.3283 226.812H86.5783ZM94.6468 229.219C93.6676 229.219 92.7874 229.031 92.0062 228.656C91.2301 228.276 90.6103 227.755 90.1468 227.094C89.6832 226.432 89.4359 225.677 89.4046 224.828H91.7484C91.8056 225.516 92.1103 226.081 92.6624 226.523C93.2145 226.966 93.876 227.187 94.6468 227.187C95.2614 227.187 95.8056 227.047 96.2796 226.766C96.7588 226.479 97.1338 226.086 97.4046 225.586C97.6806 225.086 97.8187 224.516 97.8187 223.875C97.8187 223.224 97.678 222.643 97.3968 222.133C97.1155 221.622 96.7275 221.221 96.2327 220.93C95.7431 220.638 95.1806 220.49 94.5452 220.484C94.0609 220.484 93.5739 220.568 93.0843 220.734C92.5947 220.901 92.1989 221.12 91.8968 221.391L89.6859 221.062L90.5843 213H99.3812V215.07H92.5921L92.0843 219.547H92.178C92.4905 219.245 92.9046 218.992 93.4202 218.789C93.9411 218.586 94.4984 218.484 95.0921 218.484C96.0661 218.484 96.9332 218.716 97.6937 219.18C98.4593 219.643 99.0609 220.276 99.4984 221.078C99.9411 221.875 100.16 222.792 100.155 223.828C100.16 224.865 99.9254 225.789 99.4515 226.602C98.9827 227.414 98.3317 228.055 97.4984 228.523C96.6702 228.987 95.7197 229.219 94.6468 229.219Z" fill="#CFCFCF"/>
<path d="M476.076 275.219C475.362 275.208 474.659 275.078 473.966 274.828C473.279 274.578 472.654 274.161 472.091 273.578C471.529 272.995 471.078 272.211 470.74 271.227C470.407 270.242 470.24 269.013 470.24 267.539C470.24 266.143 470.378 264.904 470.654 263.82C470.935 262.737 471.339 261.823 471.865 261.078C472.391 260.328 473.026 259.758 473.771 259.367C474.516 258.977 475.352 258.781 476.279 258.781C477.232 258.781 478.078 258.969 478.818 259.344C479.558 259.719 480.157 260.237 480.615 260.898C481.078 261.56 481.373 262.312 481.498 263.156H479.115C478.953 262.49 478.633 261.945 478.154 261.523C477.675 261.102 477.05 260.891 476.279 260.891C475.107 260.891 474.193 261.401 473.537 262.422C472.886 263.443 472.558 264.862 472.552 266.68H472.67C472.946 266.227 473.284 265.841 473.685 265.523C474.091 265.201 474.545 264.953 475.045 264.781C475.55 264.604 476.081 264.516 476.638 264.516C477.565 264.516 478.404 264.742 479.154 265.195C479.909 265.643 480.511 266.263 480.959 267.055C481.407 267.846 481.631 268.753 481.631 269.773C481.631 270.794 481.399 271.719 480.935 272.547C480.477 273.375 479.831 274.031 478.998 274.516C478.164 274.995 477.19 275.229 476.076 275.219ZM476.068 273.187C476.683 273.187 477.232 273.036 477.716 272.734C478.201 272.432 478.584 272.026 478.865 271.516C479.146 271.005 479.287 270.435 479.287 269.805C479.287 269.19 479.149 268.63 478.873 268.125C478.602 267.62 478.227 267.219 477.748 266.922C477.274 266.625 476.732 266.477 476.123 266.477C475.659 266.477 475.23 266.565 474.834 266.742C474.443 266.919 474.099 267.164 473.802 267.477C473.506 267.789 473.271 268.148 473.099 268.555C472.933 268.956 472.849 269.38 472.849 269.828C472.849 270.427 472.987 270.982 473.263 271.492C473.545 272.003 473.927 272.414 474.412 272.727C474.901 273.034 475.453 273.187 476.068 273.187ZM483.918 271.875V269.922L490.832 259H492.371V261.875H491.394L486.449 269.703V269.828H495.926V271.875H483.918ZM491.504 275V271.281L491.519 270.391V259H493.808V275H491.504ZM500.894 272.812L500.777 273.664C500.699 274.289 500.566 274.94 500.379 275.617C500.197 276.299 500.006 276.932 499.808 277.516C499.616 278.099 499.457 278.563 499.332 278.906H497.676C497.743 278.583 497.837 278.146 497.957 277.594C498.077 277.047 498.194 276.435 498.308 275.758C498.423 275.081 498.509 274.391 498.566 273.687L498.644 272.812H500.894ZM508.93 275.219C507.857 275.219 506.898 275.034 506.055 274.664C505.216 274.294 504.552 273.781 504.063 273.125C503.578 272.464 503.318 271.698 503.281 270.828H505.734C505.766 271.302 505.924 271.714 506.211 272.062C506.503 272.406 506.883 272.672 507.352 272.859C507.82 273.047 508.341 273.141 508.914 273.141C509.544 273.141 510.102 273.031 510.586 272.812C511.076 272.594 511.458 272.289 511.734 271.898C512.01 271.503 512.148 271.047 512.148 270.531C512.148 269.995 512.01 269.523 511.734 269.117C511.464 268.706 511.065 268.383 510.539 268.148C510.018 267.914 509.388 267.797 508.648 267.797H507.297V265.828H508.648C509.242 265.828 509.763 265.721 510.211 265.508C510.664 265.294 511.018 264.997 511.273 264.617C511.529 264.232 511.656 263.781 511.656 263.266C511.656 262.771 511.544 262.341 511.32 261.977C511.102 261.607 510.789 261.318 510.383 261.109C509.982 260.901 509.508 260.797 508.961 260.797C508.44 260.797 507.953 260.893 507.5 261.086C507.052 261.273 506.688 261.544 506.406 261.898C506.125 262.247 505.974 262.667 505.953 263.156H503.617C503.643 262.292 503.898 261.531 504.383 260.875C504.872 260.219 505.518 259.706 506.32 259.336C507.122 258.966 508.013 258.781 508.992 258.781C510.018 258.781 510.904 258.982 511.648 259.383C512.398 259.779 512.977 260.307 513.383 260.969C513.794 261.63 513.997 262.354 513.992 263.141C513.997 264.036 513.747 264.797 513.242 265.422C512.742 266.047 512.076 266.466 511.242 266.68V266.805C512.305 266.966 513.128 267.388 513.711 268.07C514.299 268.753 514.591 269.599 514.586 270.609C514.591 271.49 514.346 272.279 513.852 272.977C513.362 273.674 512.693 274.224 511.844 274.625C510.995 275.021 510.023 275.219 508.93 275.219Z" fill="#CFCFCF"/>
<defs>
<linearGradient id="paint0_linear_3375_2599" x1="537.482" y1="593.5" x2="537.482" y2="685.5" gradientUnits="userSpaceOnUse">
<stop stop-color="#D9D9D9"/>
<stop offset="1" stop-color="#D9D9D9" stop-opacity="0"/>
</linearGradient>
<linearGradient id="paint1_linear_3375_2599" x1="794.483" y1="223" x2="794.483" y2="373" gradientUnits="userSpaceOnUse">
<stop stop-color="#04B34A"/>
<stop offset="0.0666667" stop-color="#04B34A" stop-opacity="0.991353"/>
<stop offset="0.133333" stop-color="#04B34A" stop-opacity="0.96449"/>
<stop offset="0.2" stop-color="#04B34A" stop-opacity="0.91834"/>
<stop offset="0.266667" stop-color="#04B34A" stop-opacity="0.852589"/>
<stop offset="0.333333" stop-color="#04B34A" stop-opacity="0.768225"/>
<stop offset="0.4" stop-color="#04B34A" stop-opacity="0.668116"/>
<stop offset="0.466667" stop-color="#04B34A" stop-opacity="0.557309"/>
<stop offset="0.533333" stop-color="#04B34A" stop-opacity="0.442691"/>
<stop offset="0.6" stop-color="#04B34A" stop-opacity="0.331884"/>
<stop offset="0.666667" stop-color="#04B34A" stop-opacity="0.231775"/>
<stop offset="0.733333" stop-color="#04B34A" stop-opacity="0.147411"/>
<stop offset="0.8" stop-color="#04B34A" stop-opacity="0.0816599"/>
<stop offset="0.866667" stop-color="#04B34A" stop-opacity="0.03551"/>
<stop offset="0.933333" stop-color="#04B34A" stop-opacity="0.01"/>
<stop offset="1" stop-color="#04B34A" stop-opacity="0"/>
</linearGradient>
<linearGradient id="paint2_linear_3375_2599" x1="285.512" y1="280.645" x2="285.512" y2="373" gradientUnits="userSpaceOnUse">
<stop stop-color="#D9D9D9"/>
<stop offset="1" stop-color="#D9D9D9" stop-opacity="0"/>
</linearGradient>
</defs>
</svg>
