<svg width="1080" height="1100" viewBox="0 0 1080 1100" fill="none" xmlns="http://www.w3.org/2000/svg">
<rect width="1080" height="1100" fill="white"/>
<path d="M915.587 49L912.911 64.8629H915.891L914.181 75H908.668L909.483 70.1698H895.329L894.514 75H889L890.71 64.8629H892.824C893.79 63.5513 894.707 61.8209 895.74 58.1838L898.364 49H915.59H915.587ZM908.584 54.3069H902.535L901.369 58.3918C900.354 61.9393 899.515 63.5484 898.667 64.8629H906.805L908.584 54.3069Z" fill="#EAECEF"/>
<path d="M920.448 49H933.56C938.18 49 940.257 51.3544 939.681 54.7547C939.314 56.93 937.677 58.3311 936.141 58.958C937.818 59.6138 939.146 61.2836 938.663 64.1464C938.05 67.7836 935.085 70.1698 930.167 70.1698H916.875L920.448 49ZM924.295 61.7024L923.67 65.4002H929.69C931.298 65.4002 932.293 64.8051 932.504 63.5513C932.721 62.2687 931.923 61.7024 930.312 61.7024H924.292H924.295ZM925.631 53.7724L925.099 56.9329H931.029C932.282 56.9329 933.161 56.4851 933.352 55.3527C933.543 54.2202 932.814 53.7724 931.561 53.7724H925.631Z" fill="#EAECEF"/>
<path d="M943.47 49H949.579L947.427 61.7602L958.906 49H965.015L961.445 70.1698H955.336L957.479 57.4673L946.01 70.1698H939.9L943.47 49Z" fill="#EAECEF"/>
<path d="M974.098 59.1978L966.907 49H973.821L979.812 57.6464L981.272 49H987.084L985.626 57.6464L994.536 49H1001.3L990.954 58.9291L998.177 70.1698H990.815L985.039 61.1362L983.514 70.1698H977.703L979.227 61.1362L970.402 70.1698H963.309L974.101 59.1978H974.098Z" fill="#EAECEF"/>
<path d="M1010.23 49H1003.13L1010.19 58.9291L999.713 70.1698H1006.81L1017.29 58.9291L1010.23 49ZM1021.44 49H1014.34L1021.41 58.9291L1010.93 70.1698H1018.02L1028.5 58.9291L1021.44 49ZM1032.94 49H1025.85L1032.91 58.9291L1022.43 70.1698H1029.52L1040 58.9291L1032.94 49Z" fill="#EAECEF"/>
<path d="M64.5327 48.8182V75H59.0611V53.3182H48.4759V75H43.0043V48.8182H64.5327ZM68.2606 82.3636V55.3636H73.63V58.6619H73.8729C74.1115 58.1335 74.4567 57.5966 74.9084 57.0511C75.3686 56.4972 75.9652 56.0369 76.6981 55.6705C77.4396 55.2955 78.3601 55.108 79.4595 55.108C80.8913 55.108 82.2123 55.483 83.4226 56.233C84.6328 56.9744 85.6001 58.0952 86.3246 59.5952C87.049 61.0866 87.4112 62.9574 87.4112 65.2074C87.4112 67.3977 87.0575 69.2472 86.3501 70.7557C85.6513 72.2557 84.6967 73.3935 83.4865 74.169C82.2848 74.9361 80.9382 75.3196 79.4467 75.3196C78.3899 75.3196 77.4908 75.1449 76.7493 74.7955C76.0163 74.446 75.4155 74.0071 74.9467 73.4787C74.478 72.9418 74.12 72.4006 73.8729 71.8551H73.7067V82.3636H68.2606ZM73.5916 65.1818C73.5916 66.3494 73.7535 67.3679 74.0774 68.2372C74.4013 69.1065 74.87 69.7841 75.4837 70.2699C76.0973 70.7472 76.843 70.9858 77.7209 70.9858C78.6072 70.9858 79.3572 70.7429 79.9709 70.2571C80.5845 69.7628 81.049 69.081 81.3643 68.2116C81.6882 67.3338 81.8501 66.3239 81.8501 65.1818C81.8501 64.0483 81.6925 63.0511 81.3771 62.1903C81.0618 61.3295 80.5973 60.6562 79.9837 60.1705C79.37 59.6847 78.6158 59.4418 77.7209 59.4418C76.8345 59.4418 76.0845 59.6761 75.4709 60.1449C74.8658 60.6136 74.4013 61.2784 74.0774 62.1392C73.7535 63 73.5916 64.0142 73.5916 65.1818ZM98.474 75.3835C96.4883 75.3835 94.7709 74.9616 93.3221 74.1179C91.8817 73.2656 90.7695 72.081 89.9854 70.5639C89.2013 69.0384 88.8093 67.2699 88.8093 65.2585C88.8093 63.2301 89.2013 61.4574 89.9854 59.9403C90.7695 58.4148 91.8817 57.2301 93.3221 56.3864C94.7709 55.5341 96.4883 55.108 98.474 55.108C100.46 55.108 102.173 55.5341 103.613 56.3864C105.062 57.2301 106.179 58.4148 106.963 59.9403C107.747 61.4574 108.139 63.2301 108.139 65.2585C108.139 67.2699 107.747 69.0384 106.963 70.5639C106.179 72.081 105.062 73.2656 103.613 74.1179C102.173 74.9616 100.46 75.3835 98.474 75.3835ZM98.4996 71.1648C99.403 71.1648 100.157 70.9091 100.762 70.3977C101.368 69.8778 101.823 69.1705 102.13 68.2756C102.446 67.3807 102.603 66.3622 102.603 65.2202C102.603 64.0781 102.446 63.0597 102.13 62.1648C101.823 61.2699 101.368 60.5625 100.762 60.0426C100.157 59.5227 99.403 59.2628 98.4996 59.2628C97.5877 59.2628 96.8206 59.5227 96.1985 60.0426C95.5848 60.5625 95.1204 61.2699 94.805 62.1648C94.4982 63.0597 94.3448 64.0781 94.3448 65.2202C94.3448 66.3622 94.4982 67.3807 94.805 68.2756C95.1204 69.1705 95.5848 69.8778 96.1985 70.3977C96.8206 70.9091 97.5877 71.1648 98.4996 71.1648ZM127.409 55.3636V71.2415H130.541V81.3153H125.249V75H110.24V55.3636H115.443V70.7173H122.27V55.3636H127.409ZM141.198 75.3835C139.178 75.3835 137.44 74.9744 135.982 74.1562C134.533 73.3295 133.417 72.1619 132.633 70.6534C131.849 69.1364 131.457 67.3423 131.457 65.2713C131.457 63.2514 131.849 61.4787 132.633 59.9531C133.417 58.4276 134.521 57.2386 135.944 56.3864C137.376 55.5341 139.055 55.108 140.981 55.108C142.276 55.108 143.482 55.3168 144.599 55.7344C145.724 56.1435 146.704 56.7614 147.539 57.5881C148.383 58.4148 149.039 59.4545 149.508 60.7074C149.977 61.9517 150.211 63.4091 150.211 65.0795V66.5753H133.63V63.2003H145.084C145.084 62.4162 144.914 61.7216 144.573 61.1165C144.232 60.5114 143.759 60.0384 143.154 59.6974C142.557 59.348 141.863 59.1733 141.07 59.1733C140.244 59.1733 139.511 59.3651 138.871 59.7486C138.241 60.1236 137.746 60.6307 137.388 61.2699C137.03 61.9006 136.847 62.6037 136.839 63.3793V66.5881C136.839 67.5597 137.018 68.3991 137.376 69.1065C137.742 69.8139 138.258 70.3594 138.923 70.7429C139.587 71.1264 140.376 71.3182 141.288 71.3182C141.893 71.3182 142.447 71.233 142.95 71.0625C143.452 70.892 143.883 70.6364 144.241 70.2955C144.599 69.9545 144.871 69.5369 145.059 69.0426L150.096 69.375C149.84 70.5852 149.316 71.642 148.523 72.5455C147.739 73.4403 146.725 74.1392 145.481 74.642C144.245 75.1364 142.817 75.3835 141.198 75.3835ZM165.991 63.0085V67.2912H155.738V63.0085H165.991ZM157.528 55.3636V75H152.325V55.3636H157.528ZM169.404 55.3636V75H164.24V55.3636H169.404ZM170.218 59.6463V55.3636H188.013V59.6463H181.685V75H176.495V59.6463H170.218ZM205.639 75.3835C203.653 75.3835 201.936 74.9616 200.487 74.1179C199.046 73.2656 197.934 72.081 197.15 70.5639C196.366 69.0384 195.974 67.2699 195.974 65.2585C195.974 63.2301 196.366 61.4574 197.15 59.9403C197.934 58.4148 199.046 57.2301 200.487 56.3864C201.936 55.5341 203.653 55.108 205.639 55.108C207.625 55.108 209.338 55.5341 210.778 56.3864C212.227 57.2301 213.343 58.4148 214.127 59.9403C214.911 61.4574 215.304 63.2301 215.304 65.2585C215.304 67.2699 214.911 69.0384 214.127 70.5639C213.343 72.081 212.227 73.2656 210.778 74.1179C209.338 74.9616 207.625 75.3835 205.639 75.3835ZM205.664 71.1648C206.568 71.1648 207.322 70.9091 207.927 70.3977C208.532 69.8778 208.988 69.1705 209.295 68.2756C209.61 67.3807 209.768 66.3622 209.768 65.2202C209.768 64.0781 209.61 63.0597 209.295 62.1648C208.988 61.2699 208.532 60.5625 207.927 60.0426C207.322 59.5227 206.568 59.2628 205.664 59.2628C204.752 59.2628 203.985 59.5227 203.363 60.0426C202.75 60.5625 202.285 61.2699 201.97 62.1648C201.663 63.0597 201.509 64.0781 201.509 65.2202C201.509 66.3622 201.663 67.3807 201.97 68.2756C202.285 69.1705 202.75 69.8778 203.363 70.3977C203.985 70.9091 204.752 71.1648 205.664 71.1648ZM215.871 80.7528V70.679H217.379C217.814 70.4062 218.163 69.9716 218.427 69.375C218.7 68.7784 218.922 68.0753 219.092 67.2656C219.271 66.456 219.408 65.5824 219.501 64.6449C219.604 63.6989 219.693 62.7443 219.77 61.7812L220.281 55.3636H235.341V70.679H238.383V80.7528H233.193V75H221.189V80.7528H215.871ZM222.8 70.679H230.202V59.5568H224.909L224.704 61.7812C224.56 63.8778 224.351 65.6591 224.078 67.125C223.805 68.5824 223.379 69.767 222.8 70.679ZM248.989 75.3835C247.003 75.3835 245.286 74.9616 243.837 74.1179C242.397 73.2656 241.285 72.081 240.501 70.5639C239.716 69.0384 239.324 67.2699 239.324 65.2585C239.324 63.2301 239.716 61.4574 240.501 59.9403C241.285 58.4148 242.397 57.2301 243.837 56.3864C245.286 55.5341 247.003 55.108 248.989 55.108C250.975 55.108 252.688 55.5341 254.128 56.3864C255.577 57.2301 256.694 58.4148 257.478 59.9403C258.262 61.4574 258.654 63.2301 258.654 65.2585C258.654 67.2699 258.262 69.0384 257.478 70.5639C256.694 72.081 255.577 73.2656 254.128 74.1179C252.688 74.9616 250.975 75.3835 248.989 75.3835ZM249.015 71.1648C249.918 71.1648 250.672 70.9091 251.278 70.3977C251.883 69.8778 252.339 69.1705 252.645 68.2756C252.961 67.3807 253.118 66.3622 253.118 65.2202C253.118 64.0781 252.961 63.0597 252.645 62.1648C252.339 61.2699 251.883 60.5625 251.278 60.0426C250.672 59.5227 249.918 59.2628 249.015 59.2628C248.103 59.2628 247.336 59.5227 246.714 60.0426C246.1 60.5625 245.636 61.2699 245.32 62.1648C245.013 63.0597 244.86 64.0781 244.86 65.2202C244.86 66.3622 245.013 67.3807 245.32 68.2756C245.636 69.1705 246.1 69.8778 246.714 70.3977C247.336 70.9091 248.103 71.1648 249.015 71.1648ZM277.08 48.1534L278.742 51.7074C278.188 52.1676 277.575 52.5085 276.901 52.7301C276.228 52.9432 275.423 53.0838 274.485 53.152C273.556 53.2202 272.423 53.267 271.085 53.2926C269.568 53.3097 268.332 53.5526 267.377 54.0213C266.423 54.4901 265.698 55.2273 265.204 56.233C264.71 57.2301 264.386 58.5341 264.232 60.1449H264.424C265.012 58.9432 265.839 58.0142 266.904 57.358C267.978 56.7017 269.303 56.3736 270.88 56.3736C272.551 56.3736 274.012 56.7401 275.265 57.473C276.526 58.206 277.507 59.2585 278.205 60.6307C278.904 62.0028 279.254 63.6477 279.254 65.5653C279.254 67.5597 278.862 69.294 278.078 70.7685C277.302 72.2344 276.198 73.3722 274.767 74.1818C273.335 74.983 271.63 75.3835 269.653 75.3835C267.667 75.3835 265.954 74.9659 264.514 74.1307C263.082 73.2955 261.974 72.0639 261.19 70.4361C260.414 68.8082 260.026 66.8054 260.026 64.4276V62.8168C260.026 58.0866 260.947 54.5795 262.788 52.2955C264.629 50.0114 267.335 48.8523 270.906 48.8182C271.877 48.8011 272.755 48.7969 273.539 48.8054C274.323 48.8139 275.009 48.7756 275.598 48.6903C276.194 48.6051 276.688 48.4261 277.08 48.1534ZM269.678 71.1648C270.514 71.1648 271.23 70.9474 271.826 70.5128C272.431 70.0781 272.896 69.456 273.22 68.6463C273.552 67.8366 273.718 66.8693 273.718 65.7443C273.718 64.6278 273.552 63.6818 273.22 62.9062C272.896 62.1222 272.431 61.5256 271.826 61.1165C271.221 60.7074 270.497 60.5028 269.653 60.5028C269.022 60.5028 268.455 60.6179 267.953 60.848C267.45 61.0781 267.019 61.419 266.661 61.8707C266.312 62.3139 266.039 62.8636 265.843 63.5199C265.656 64.1676 265.562 64.9091 265.562 65.7443C265.562 67.4233 265.924 68.7486 266.649 69.7202C267.382 70.6832 268.392 71.1648 269.678 71.1648ZM281.428 82.3636V55.3636H286.798V58.6619H287.041C287.279 58.1335 287.624 57.5966 288.076 57.0511C288.536 56.4972 289.133 56.0369 289.866 55.6705C290.607 55.2955 291.528 55.108 292.627 55.108C294.059 55.108 295.38 55.483 296.59 56.233C297.801 56.9744 298.768 58.0952 299.492 59.5952C300.217 61.0866 300.579 62.9574 300.579 65.2074C300.579 67.3977 300.225 69.2472 299.518 70.7557C298.819 72.2557 297.865 73.3935 296.654 74.169C295.453 74.9361 294.106 75.3196 292.615 75.3196C291.558 75.3196 290.659 75.1449 289.917 74.7955C289.184 74.446 288.583 74.0071 288.115 73.4787C287.646 72.9418 287.288 72.4006 287.041 71.8551H286.874V82.3636H281.428ZM286.759 65.1818C286.759 66.3494 286.921 67.3679 287.245 68.2372C287.569 69.1065 288.038 69.7841 288.651 70.2699C289.265 70.7472 290.011 70.9858 290.889 70.9858C291.775 70.9858 292.525 70.7429 293.139 70.2571C293.752 69.7628 294.217 69.081 294.532 68.2116C294.856 67.3338 295.018 66.3239 295.018 65.1818C295.018 64.0483 294.86 63.0511 294.545 62.1903C294.23 61.3295 293.765 60.6562 293.151 60.1705C292.538 59.6847 291.784 59.4418 290.889 59.4418C290.002 59.4418 289.252 59.6761 288.639 60.1449C288.034 60.6136 287.569 61.2784 287.245 62.1392C286.921 63 286.759 64.0142 286.759 65.1818ZM311.719 75.3835C309.699 75.3835 307.96 74.9744 306.503 74.1562C305.054 73.3295 303.937 72.1619 303.153 70.6534C302.369 69.1364 301.977 67.3423 301.977 65.2713C301.977 63.2514 302.369 61.4787 303.153 59.9531C303.937 58.4276 305.041 57.2386 306.464 56.3864C307.896 55.5341 309.575 55.108 311.501 55.108C312.797 55.108 314.003 55.3168 315.119 55.7344C316.244 56.1435 317.224 56.7614 318.059 57.5881C318.903 58.4148 319.559 59.4545 320.028 60.7074C320.497 61.9517 320.731 63.4091 320.731 65.0795V66.5753H304.15V63.2003H315.605C315.605 62.4162 315.434 61.7216 315.094 61.1165C314.753 60.5114 314.28 60.0384 313.675 59.6974C313.078 59.348 312.383 59.1733 311.591 59.1733C310.764 59.1733 310.031 59.3651 309.392 59.7486C308.761 60.1236 308.267 60.6307 307.909 61.2699C307.551 61.9006 307.368 62.6037 307.359 63.3793V66.5881C307.359 67.5597 307.538 68.3991 307.896 69.1065C308.263 69.8139 308.778 70.3594 309.443 70.7429C310.108 71.1264 310.896 71.3182 311.808 71.3182C312.413 71.3182 312.967 71.233 313.47 71.0625C313.973 70.892 314.403 70.6364 314.761 70.2955C315.119 69.9545 315.392 69.5369 315.579 69.0426L320.616 69.375C320.361 70.5852 319.836 71.642 319.044 72.5455C318.26 73.4403 317.246 74.1392 316.001 74.642C314.765 75.1364 313.338 75.3835 311.719 75.3835ZM336.512 63.0085V67.2912H326.259V63.0085H336.512ZM328.048 55.3636V75H322.845V55.3636H328.048ZM339.925 55.3636V75H334.76V55.3636H339.925ZM347.913 67.8153L354.983 55.3636H360.352V75H355.162V62.5099L348.118 75H342.71V55.3636H347.913V67.8153ZM374.784 75V59.6335H371.102C370.105 59.6335 369.346 59.8636 368.826 60.3239C368.306 60.7841 368.051 61.3295 368.059 61.9602C368.051 62.5994 368.298 63.1406 368.801 63.5838C369.312 64.0185 370.062 64.2358 371.051 64.2358H376.599V67.9176H371.051C369.372 67.9176 367.918 67.6619 366.691 67.1506C365.464 66.6392 364.518 65.9276 363.853 65.0156C363.188 64.0952 362.86 63.0256 362.869 61.8068C362.86 60.5284 363.188 59.4077 363.853 58.4446C364.518 57.473 365.468 56.7187 366.704 56.1818C367.948 55.6364 369.414 55.3636 371.102 55.3636H379.859V75H374.784ZM362.306 75L367.765 64.7727H372.968L367.522 75H362.306Z" fill="black"/>
<path d="M65.3764 782.984H59.777C59.6747 782.26 59.4659 781.616 59.1506 781.054C58.8352 780.483 58.4304 779.997 57.9361 779.597C57.4418 779.196 56.8707 778.889 56.223 778.676C55.5838 778.463 54.8892 778.357 54.1392 778.357C52.7841 778.357 51.6037 778.693 50.598 779.366C49.5923 780.031 48.8125 781.003 48.2585 782.281C47.7045 783.551 47.4276 785.094 47.4276 786.909C47.4276 788.776 47.7045 790.344 48.2585 791.614C48.821 792.884 49.6051 793.842 50.6108 794.49C51.6165 795.138 52.7798 795.462 54.1009 795.462C54.8423 795.462 55.5284 795.364 56.1591 795.168C56.7983 794.972 57.3651 794.686 57.8594 794.311C58.3537 793.928 58.7628 793.463 59.0866 792.918C59.419 792.372 59.6491 791.75 59.777 791.051L65.3764 791.077C65.2315 792.278 64.8693 793.438 64.2898 794.554C63.7188 795.662 62.9474 796.655 61.9759 797.533C61.0128 798.402 59.8622 799.092 58.5241 799.604C57.1946 800.107 55.6903 800.358 54.0114 800.358C51.6761 800.358 49.5881 799.83 47.7472 798.773C45.9148 797.716 44.4659 796.186 43.4006 794.183C42.3438 792.18 41.8153 789.756 41.8153 786.909C41.8153 784.054 42.3523 781.625 43.4261 779.622C44.5 777.619 45.9574 776.094 47.7983 775.045C49.6392 773.989 51.7102 773.46 54.0114 773.46C55.5284 773.46 56.9347 773.673 58.2301 774.099C59.5341 774.526 60.6889 775.148 61.6946 775.966C62.7003 776.776 63.5185 777.768 64.1491 778.945C64.7884 780.121 65.1974 781.467 65.3764 782.984ZM67.8036 800V780.364H73.2496V787.983H74.7837L80.1275 780.364H86.5195L79.5778 790.105L86.5962 800H80.1275L75.2823 793.033H73.2496V800H67.8036ZM95.5209 800.384C93.5351 800.384 91.8178 799.962 90.3689 799.118C88.9286 798.266 87.8164 797.081 87.0323 795.564C86.2482 794.038 85.8561 792.27 85.8561 790.259C85.8561 788.23 86.2482 786.457 87.0323 784.94C87.8164 783.415 88.9286 782.23 90.3689 781.386C91.8178 780.534 93.5351 780.108 95.5209 780.108C97.5067 780.108 99.2198 780.534 100.66 781.386C102.109 782.23 103.225 783.415 104.01 784.94C104.794 786.457 105.186 788.23 105.186 790.259C105.186 792.27 104.794 794.038 104.01 795.564C103.225 797.081 102.109 798.266 100.66 799.118C99.2198 799.962 97.5067 800.384 95.5209 800.384ZM95.5465 796.165C96.4499 796.165 97.2042 795.909 97.8093 795.398C98.4144 794.878 98.8704 794.17 99.1772 793.276C99.4925 792.381 99.6502 791.362 99.6502 790.22C99.6502 789.078 99.4925 788.06 99.1772 787.165C98.8704 786.27 98.4144 785.562 97.8093 785.043C97.2042 784.523 96.4499 784.263 95.5465 784.263C94.6346 784.263 93.8675 784.523 93.2454 785.043C92.6317 785.562 92.1672 786.27 91.8519 787.165C91.5451 788.06 91.3917 789.078 91.3917 790.22C91.3917 791.362 91.5451 792.381 91.8519 793.276C92.1672 794.17 92.6317 794.878 93.2454 795.398C93.8675 795.909 94.6346 796.165 95.5465 796.165ZM107.287 807.364V780.364H112.656V783.662H112.899C113.138 783.134 113.483 782.597 113.935 782.051C114.395 781.497 114.991 781.037 115.724 780.67C116.466 780.295 117.386 780.108 118.486 780.108C119.918 780.108 121.239 780.483 122.449 781.233C123.659 781.974 124.626 783.095 125.351 784.595C126.075 786.087 126.437 787.957 126.437 790.207C126.437 792.398 126.084 794.247 125.376 795.756C124.678 797.256 123.723 798.393 122.513 799.169C121.311 799.936 119.964 800.32 118.473 800.32C117.416 800.32 116.517 800.145 115.776 799.795C115.043 799.446 114.442 799.007 113.973 798.479C113.504 797.942 113.146 797.401 112.899 796.855H112.733V807.364H107.287ZM112.618 790.182C112.618 791.349 112.78 792.368 113.104 793.237C113.428 794.107 113.896 794.784 114.51 795.27C115.124 795.747 115.869 795.986 116.747 795.986C117.633 795.986 118.383 795.743 118.997 795.257C119.611 794.763 120.075 794.081 120.391 793.212C120.714 792.334 120.876 791.324 120.876 790.182C120.876 789.048 120.719 788.051 120.403 787.19C120.088 786.33 119.624 785.656 119.01 785.17C118.396 784.685 117.642 784.442 116.747 784.442C115.861 784.442 115.111 784.676 114.497 785.145C113.892 785.614 113.428 786.278 113.104 787.139C112.78 788 112.618 789.014 112.618 790.182ZM137.5 800.384C135.515 800.384 133.797 799.962 132.348 799.118C130.908 798.266 129.796 797.081 129.012 795.564C128.228 794.038 127.836 792.27 127.836 790.259C127.836 788.23 128.228 786.457 129.012 784.94C129.796 783.415 130.908 782.23 132.348 781.386C133.797 780.534 135.515 780.108 137.5 780.108C139.486 780.108 141.199 780.534 142.64 781.386C144.088 782.23 145.205 783.415 145.989 784.94C146.773 786.457 147.165 788.23 147.165 790.259C147.165 792.27 146.773 794.038 145.989 795.564C145.205 797.081 144.088 798.266 142.64 799.118C141.199 799.962 139.486 800.384 137.5 800.384ZM137.526 796.165C138.429 796.165 139.184 795.909 139.789 795.398C140.394 794.878 140.85 794.17 141.157 793.276C141.472 792.381 141.63 791.362 141.63 790.22C141.63 789.078 141.472 788.06 141.157 787.165C140.85 786.27 140.394 785.562 139.789 785.043C139.184 784.523 138.429 784.263 137.526 784.263C136.614 784.263 135.847 784.523 135.225 785.043C134.611 785.562 134.147 786.27 133.831 787.165C133.524 788.06 133.371 789.078 133.371 790.22C133.371 791.362 133.524 792.381 133.831 793.276C134.147 794.17 134.611 794.878 135.225 795.398C135.847 795.909 136.614 796.165 137.526 796.165ZM158.138 800.384C156.127 800.384 154.397 799.957 152.948 799.105C151.508 798.244 150.4 797.051 149.624 795.526C148.857 794 148.474 792.244 148.474 790.259C148.474 788.247 148.861 786.483 149.637 784.966C150.421 783.44 151.533 782.251 152.974 781.399C154.414 780.538 156.127 780.108 158.113 780.108C159.826 780.108 161.326 780.419 162.613 781.041C163.9 781.663 164.918 782.537 165.668 783.662C166.418 784.787 166.832 786.108 166.908 787.625H161.769C161.624 786.645 161.241 785.857 160.619 785.26C160.005 784.655 159.2 784.352 158.202 784.352C157.359 784.352 156.621 784.582 155.991 785.043C155.369 785.494 154.883 786.155 154.533 787.024C154.184 787.893 154.009 788.946 154.009 790.182C154.009 791.435 154.18 792.5 154.521 793.378C154.87 794.256 155.36 794.925 155.991 795.385C156.621 795.845 157.359 796.075 158.202 796.075C158.825 796.075 159.383 795.947 159.877 795.692C160.38 795.436 160.793 795.065 161.117 794.58C161.45 794.085 161.667 793.493 161.769 792.803H166.908C166.823 794.303 166.414 795.624 165.681 796.766C164.957 797.899 163.955 798.786 162.677 799.425C161.398 800.064 159.886 800.384 158.138 800.384ZM167.616 784.646V780.364H185.411V784.646H179.083V800H173.893V784.646H167.616ZM190.686 786.398H196.554C199.154 786.398 201.182 787.02 202.639 788.264C204.097 789.5 204.826 791.153 204.826 793.224C204.826 794.571 204.497 795.756 203.841 796.778C203.185 797.793 202.239 798.585 201.003 799.156C199.767 799.719 198.284 800 196.554 800H187.273V780.364H192.476V795.717H196.554C197.466 795.717 198.216 795.487 198.804 795.027C199.392 794.567 199.691 793.979 199.699 793.263C199.691 792.504 199.392 791.886 198.804 791.409C198.216 790.923 197.466 790.68 196.554 790.68H190.686V786.398ZM222.761 800.384C220.775 800.384 219.058 799.962 217.609 799.118C216.169 798.266 215.057 797.081 214.273 795.564C213.489 794.038 213.096 792.27 213.096 790.259C213.096 788.23 213.489 786.457 214.273 784.94C215.057 783.415 216.169 782.23 217.609 781.386C219.058 780.534 220.775 780.108 222.761 780.108C224.747 780.108 226.46 780.534 227.9 781.386C229.349 782.23 230.466 783.415 231.25 784.94C232.034 786.457 232.426 788.23 232.426 790.259C232.426 792.27 232.034 794.038 231.25 795.564C230.466 797.081 229.349 798.266 227.9 799.118C226.46 799.962 224.747 800.384 222.761 800.384ZM222.787 796.165C223.69 796.165 224.444 795.909 225.05 795.398C225.655 794.878 226.111 794.17 226.417 793.276C226.733 792.381 226.89 791.362 226.89 790.22C226.89 789.078 226.733 788.06 226.417 787.165C226.111 786.27 225.655 785.562 225.05 785.043C224.444 784.523 223.69 784.263 222.787 784.263C221.875 784.263 221.108 784.523 220.486 785.043C219.872 785.562 219.408 786.27 219.092 787.165C218.785 788.06 218.632 789.078 218.632 790.22C218.632 791.362 218.785 792.381 219.092 793.276C219.408 794.17 219.872 794.878 220.486 795.398C221.108 795.909 221.875 796.165 222.787 796.165ZM232.993 805.753V795.679H234.502C234.936 795.406 235.286 794.972 235.55 794.375C235.823 793.778 236.044 793.075 236.215 792.266C236.394 791.456 236.53 790.582 236.624 789.645C236.726 788.699 236.816 787.744 236.892 786.781L237.404 780.364H252.463V795.679H255.506V805.753H250.316V800H238.311V805.753H232.993ZM239.922 795.679H247.324V784.557H242.031L241.827 786.781C241.682 788.878 241.473 790.659 241.201 792.125C240.928 793.582 240.502 794.767 239.922 795.679ZM266.112 800.384C264.126 800.384 262.409 799.962 260.96 799.118C259.519 798.266 258.407 797.081 257.623 795.564C256.839 794.038 256.447 792.27 256.447 790.259C256.447 788.23 256.839 786.457 257.623 784.94C258.407 783.415 259.519 782.23 260.96 781.386C262.409 780.534 264.126 780.108 266.112 780.108C268.098 780.108 269.811 780.534 271.251 781.386C272.7 782.23 273.816 783.415 274.6 784.94C275.384 786.457 275.776 788.23 275.776 790.259C275.776 792.27 275.384 794.038 274.6 795.564C273.816 797.081 272.7 798.266 271.251 799.118C269.811 799.962 268.098 800.384 266.112 800.384ZM266.137 796.165C267.041 796.165 267.795 795.909 268.4 795.398C269.005 794.878 269.461 794.17 269.768 793.276C270.083 792.381 270.241 791.362 270.241 790.22C270.241 789.078 270.083 788.06 269.768 787.165C269.461 786.27 269.005 785.562 268.4 785.043C267.795 784.523 267.041 784.263 266.137 784.263C265.225 784.263 264.458 784.523 263.836 785.043C263.223 785.562 262.758 786.27 262.443 787.165C262.136 788.06 261.982 789.078 261.982 790.22C261.982 791.362 262.136 792.381 262.443 793.276C262.758 794.17 263.223 794.878 263.836 795.398C264.458 795.909 265.225 796.165 266.137 796.165ZM294.203 773.153L295.865 776.707C295.311 777.168 294.697 777.509 294.024 777.73C293.351 777.943 292.545 778.084 291.608 778.152C290.679 778.22 289.545 778.267 288.207 778.293C286.69 778.31 285.454 778.553 284.5 779.021C283.545 779.49 282.821 780.227 282.327 781.233C281.832 782.23 281.508 783.534 281.355 785.145H281.547C282.135 783.943 282.961 783.014 284.027 782.358C285.101 781.702 286.426 781.374 288.003 781.374C289.673 781.374 291.135 781.74 292.388 782.473C293.649 783.206 294.629 784.259 295.328 785.631C296.027 787.003 296.376 788.648 296.376 790.565C296.376 792.56 295.984 794.294 295.2 795.768C294.425 797.234 293.321 798.372 291.889 799.182C290.457 799.983 288.753 800.384 286.775 800.384C284.79 800.384 283.077 799.966 281.636 799.131C280.204 798.295 279.096 797.064 278.312 795.436C277.537 793.808 277.149 791.805 277.149 789.428V787.817C277.149 783.087 278.069 779.58 279.91 777.295C281.751 775.011 284.457 773.852 288.028 773.818C289 773.801 289.878 773.797 290.662 773.805C291.446 773.814 292.132 773.776 292.72 773.69C293.317 773.605 293.811 773.426 294.203 773.153ZM286.801 796.165C287.636 796.165 288.352 795.947 288.949 795.513C289.554 795.078 290.018 794.456 290.342 793.646C290.675 792.837 290.841 791.869 290.841 790.744C290.841 789.628 290.675 788.682 290.342 787.906C290.018 787.122 289.554 786.526 288.949 786.116C288.344 785.707 287.619 785.503 286.775 785.503C286.145 785.503 285.578 785.618 285.075 785.848C284.572 786.078 284.142 786.419 283.784 786.871C283.434 787.314 283.162 787.864 282.966 788.52C282.778 789.168 282.684 789.909 282.684 790.744C282.684 792.423 283.047 793.749 283.771 794.72C284.504 795.683 285.514 796.165 286.801 796.165ZM298.551 807.364V780.364H303.92V783.662H304.163C304.402 783.134 304.747 782.597 305.199 782.051C305.659 781.497 306.255 781.037 306.988 780.67C307.73 780.295 308.65 780.108 309.75 780.108C311.182 780.108 312.503 780.483 313.713 781.233C314.923 781.974 315.89 783.095 316.615 784.595C317.339 786.087 317.702 787.957 317.702 790.207C317.702 792.398 317.348 794.247 316.64 795.756C315.942 797.256 314.987 798.393 313.777 799.169C312.575 799.936 311.229 800.32 309.737 800.32C308.68 800.32 307.781 800.145 307.04 799.795C306.307 799.446 305.706 799.007 305.237 798.479C304.768 797.942 304.41 797.401 304.163 796.855H303.997V807.364H298.551ZM303.882 790.182C303.882 791.349 304.044 792.368 304.368 793.237C304.692 794.107 305.16 794.784 305.774 795.27C306.388 795.747 307.133 795.986 308.011 795.986C308.898 795.986 309.648 795.743 310.261 795.257C310.875 794.763 311.339 794.081 311.655 793.212C311.979 792.334 312.14 791.324 312.14 790.182C312.14 789.048 311.983 788.051 311.667 787.19C311.352 786.33 310.888 785.656 310.274 785.17C309.66 784.685 308.906 784.442 308.011 784.442C307.125 784.442 306.375 784.676 305.761 785.145C305.156 785.614 304.692 786.278 304.368 787.139C304.044 788 303.882 789.014 303.882 790.182ZM328.841 800.384C326.821 800.384 325.083 799.974 323.625 799.156C322.176 798.33 321.06 797.162 320.276 795.653C319.492 794.136 319.1 792.342 319.1 790.271C319.1 788.251 319.492 786.479 320.276 784.953C321.06 783.428 322.164 782.239 323.587 781.386C325.019 780.534 326.698 780.108 328.624 780.108C329.919 780.108 331.125 780.317 332.242 780.734C333.367 781.143 334.347 781.761 335.182 782.588C336.026 783.415 336.682 784.455 337.151 785.707C337.619 786.952 337.854 788.409 337.854 790.08V791.575H321.273V788.2H332.727C332.727 787.416 332.557 786.722 332.216 786.116C331.875 785.511 331.402 785.038 330.797 784.697C330.2 784.348 329.506 784.173 328.713 784.173C327.887 784.173 327.154 784.365 326.514 784.749C325.884 785.124 325.389 785.631 325.031 786.27C324.673 786.901 324.49 787.604 324.482 788.379V791.588C324.482 792.56 324.661 793.399 325.019 794.107C325.385 794.814 325.901 795.359 326.565 795.743C327.23 796.126 328.019 796.318 328.931 796.318C329.536 796.318 330.09 796.233 330.592 796.062C331.095 795.892 331.526 795.636 331.884 795.295C332.242 794.955 332.514 794.537 332.702 794.043L337.739 794.375C337.483 795.585 336.959 796.642 336.166 797.545C335.382 798.44 334.368 799.139 333.124 799.642C331.888 800.136 330.46 800.384 328.841 800.384ZM353.634 788.009V792.291H343.381V788.009H353.634ZM345.171 780.364V800H339.968V780.364H345.171ZM357.047 780.364V800H351.883V780.364H357.047ZM365.036 792.815L372.105 780.364H377.475V800H372.284V787.51L365.24 800H359.833V780.364H365.036V792.815ZM391.906 800V784.634H388.224C387.227 784.634 386.468 784.864 385.949 785.324C385.429 785.784 385.173 786.33 385.182 786.96C385.173 787.599 385.42 788.141 385.923 788.584C386.434 789.018 387.184 789.236 388.173 789.236H393.721V792.918H388.173C386.494 792.918 385.041 792.662 383.814 792.151C382.586 791.639 381.64 790.928 380.976 790.016C380.311 789.095 379.983 788.026 379.991 786.807C379.983 785.528 380.311 784.408 380.976 783.445C381.64 782.473 382.591 781.719 383.826 781.182C385.071 780.636 386.537 780.364 388.224 780.364H396.981V800H391.906ZM379.429 800L384.888 789.773H390.091L384.645 800H379.429Z" fill="black"/>
<path opacity="0.4" d="M1034.95 303.5H40.0001L40 216L426.5 215L1034.95 184V303.5Z" fill="url(#paint0_linear_2567_1537)"/>
<rect x="1030.19" y="179" width="10.2717" height="10.2717" rx="5.13587" fill="#04B34A"/>
<path d="M40 215H436L1034.95 183.5" stroke="#04B34A" stroke-width="4"/>
<path d="M867.074 323.555V299.197L857.989 308.316L854 304.362L869.955 288.441L885.875 304.362L881.955 308.316L872.835 299.197V323.555H867.074Z" fill="#04B34A"/>
<path d="M913.72 288.091V323H906.339V295.097H906.135L898.141 300.108V293.562L906.783 288.091H913.72ZM935.212 323.767C932.281 323.756 929.758 323.034 927.644 321.602C925.542 320.17 923.923 318.097 922.786 315.381C921.661 312.665 921.104 309.398 921.116 305.58C921.116 301.773 921.678 298.528 922.803 295.847C923.94 293.165 925.559 291.125 927.661 289.727C929.775 288.318 932.292 287.614 935.212 287.614C938.133 287.614 940.644 288.318 942.746 289.727C944.86 291.136 946.485 293.182 947.621 295.864C948.758 298.534 949.32 301.773 949.309 305.58C949.309 309.409 948.741 312.682 947.604 315.398C946.479 318.114 944.866 320.187 942.763 321.619C940.661 323.051 938.144 323.767 935.212 323.767ZM935.212 317.648C937.212 317.648 938.809 316.642 940.002 314.631C941.195 312.619 941.786 309.602 941.775 305.58C941.775 302.932 941.502 300.727 940.957 298.966C940.423 297.205 939.661 295.881 938.673 294.994C937.695 294.108 936.542 293.665 935.212 293.665C933.224 293.665 931.633 294.659 930.44 296.648C929.246 298.636 928.644 301.614 928.633 305.58C928.633 308.261 928.9 310.5 929.434 312.295C929.979 314.08 930.746 315.42 931.735 316.318C932.724 317.205 933.883 317.648 935.212 317.648ZM960.634 318.227L960.446 320.102C960.298 321.602 960.014 323.097 959.594 324.585C959.185 326.085 958.753 327.443 958.298 328.659C957.855 329.875 957.497 330.83 957.224 331.523H952.52C952.69 330.852 952.923 329.915 953.219 328.71C953.514 327.517 953.793 326.176 954.054 324.688C954.315 323.199 954.48 321.682 954.548 320.136L954.634 318.227H960.634ZM966.712 323V317.682L979.138 306.176C980.195 305.153 981.082 304.233 981.798 303.415C982.525 302.597 983.076 301.795 983.451 301.011C983.826 300.216 984.013 299.358 984.013 298.438C984.013 297.415 983.781 296.534 983.315 295.795C982.849 295.045 982.212 294.472 981.406 294.074C980.599 293.665 979.684 293.46 978.661 293.46C977.593 293.46 976.661 293.676 975.866 294.108C975.07 294.54 974.457 295.159 974.025 295.966C973.593 296.773 973.377 297.733 973.377 298.847H966.371C966.371 296.562 966.888 294.58 967.923 292.898C968.957 291.216 970.406 289.915 972.269 288.994C974.133 288.074 976.281 287.614 978.712 287.614C981.212 287.614 983.388 288.057 985.241 288.943C987.104 289.818 988.553 291.034 989.587 292.591C990.621 294.148 991.138 295.932 991.138 297.943C991.138 299.261 990.877 300.562 990.354 301.847C989.843 303.131 988.928 304.557 987.61 306.125C986.292 307.682 984.434 309.551 982.036 311.733L976.94 316.727V316.966H991.599V323H966.712ZM1015.56 316.455V314.614C1015.56 313.216 1015.86 311.932 1016.45 310.761C1017.05 309.58 1017.92 308.636 1019.06 307.932C1020.2 307.216 1021.6 306.858 1023.25 306.858C1024.92 306.858 1026.32 307.21 1027.46 307.915C1028.61 308.619 1029.47 309.562 1030.05 310.744C1030.64 311.915 1030.94 313.205 1030.94 314.614V316.455C1030.94 317.852 1030.64 319.142 1030.05 320.324C1029.46 321.494 1028.59 322.432 1027.44 323.136C1026.3 323.852 1024.9 324.21 1023.25 324.21C1021.58 324.21 1020.18 323.852 1019.04 323.136C1017.9 322.432 1017.04 321.494 1016.45 320.324C1015.86 319.142 1015.56 317.852 1015.56 316.455ZM1020.52 314.614V316.455C1020.52 317.261 1020.72 318.023 1021.1 318.739C1021.5 319.455 1022.22 319.812 1023.25 319.812C1024.28 319.812 1024.99 319.46 1025.36 318.756C1025.75 318.051 1025.94 317.284 1025.94 316.455V314.614C1025.94 313.784 1025.76 313.011 1025.4 312.295C1025.03 311.58 1024.32 311.222 1023.25 311.222C1022.23 311.222 1021.52 311.58 1021.12 312.295C1020.72 313.011 1020.52 313.784 1020.52 314.614ZM997.648 296.477V294.636C997.648 293.227 997.949 291.937 998.551 290.767C999.153 289.585 1000.02 288.642 1001.16 287.938C1002.31 287.233 1003.69 286.881 1005.32 286.881C1007 286.881 1008.41 287.233 1009.55 287.938C1010.68 288.642 1011.55 289.585 1012.14 290.767C1012.73 291.937 1013.02 293.227 1013.02 294.636V296.477C1013.02 297.886 1012.72 299.176 1012.12 300.347C1011.53 301.517 1010.66 302.455 1009.51 303.159C1008.38 303.852 1006.98 304.199 1005.32 304.199C1003.66 304.199 1002.26 303.847 1001.11 303.142C999.972 302.426 999.108 301.489 998.517 300.33C997.938 299.159 997.648 297.875 997.648 296.477ZM1002.64 294.636V296.477C1002.64 297.307 1002.84 298.074 1003.22 298.778C1003.62 299.483 1004.32 299.835 1005.32 299.835C1006.36 299.835 1007.07 299.483 1007.45 298.778C1007.84 298.074 1008.03 297.307 1008.03 296.477V294.636C1008.03 293.807 1007.85 293.034 1007.48 292.318C1007.12 291.602 1006.4 291.244 1005.32 291.244C1004.31 291.244 1003.61 291.608 1003.22 292.335C1002.84 293.062 1002.64 293.83 1002.64 294.636ZM999.898 323L1023.9 288.091H1028.36L1004.36 323H999.898Z" fill="black"/>
<path d="M46.2003 201.199C45.3101 201.199 44.5099 201.028 43.7997 200.688C43.0942 200.342 42.5308 199.868 42.1094 199.267C41.688 198.666 41.4631 197.979 41.4347 197.207H43.5653C43.6174 197.832 43.8944 198.346 44.3963 198.749C44.8982 199.151 45.4995 199.352 46.2003 199.352C46.759 199.352 47.2538 199.224 47.6847 198.969C48.1203 198.708 48.4612 198.351 48.7074 197.896C48.9583 197.442 49.0838 196.923 49.0838 196.341C49.0838 195.749 48.956 195.221 48.7003 194.757C48.4446 194.293 48.0919 193.929 47.642 193.663C47.197 193.398 46.6856 193.263 46.108 193.259C45.6676 193.259 45.2249 193.334 44.7798 193.486C44.3348 193.637 43.9749 193.836 43.7003 194.082L41.6903 193.784L42.5071 186.455H50.5043V188.337H44.3324L43.8707 192.406H43.956C44.2401 192.132 44.6165 191.902 45.0852 191.717C45.5587 191.533 46.0653 191.44 46.6051 191.44C47.4905 191.44 48.2789 191.651 48.9702 192.072C49.6662 192.494 50.2131 193.069 50.6108 193.798C51.0133 194.523 51.2121 195.356 51.2074 196.298C51.2121 197.241 50.9991 198.081 50.5682 198.82C50.142 199.558 49.5502 200.141 48.7926 200.567C48.0398 200.988 47.1757 201.199 46.2003 201.199ZM58.3801 201.199C57.4899 201.199 56.6897 201.028 55.9795 200.688C55.274 200.342 54.7106 199.868 54.2892 199.267C53.8678 198.666 53.6429 197.979 53.6144 197.207H55.7451C55.7972 197.832 56.0742 198.346 56.5761 198.749C57.078 199.151 57.6793 199.352 58.3801 199.352C58.9388 199.352 59.4336 199.224 59.8644 198.969C60.3001 198.708 60.641 198.351 60.8872 197.896C61.1381 197.442 61.2636 196.923 61.2636 196.341C61.2636 195.749 61.1358 195.221 60.8801 194.757C60.6244 194.293 60.2716 193.929 59.8218 193.663C59.3768 193.398 58.8654 193.263 58.2877 193.259C57.8474 193.259 57.4047 193.334 56.9596 193.486C56.5145 193.637 56.1547 193.836 55.8801 194.082L53.8701 193.784L54.6869 186.455H62.6841V188.337H56.5122L56.0505 192.406H56.1358C56.4198 192.132 56.7963 191.902 57.265 191.717C57.7385 191.533 58.2451 191.44 58.7849 191.44C59.6703 191.44 60.4587 191.651 61.15 192.072C61.846 192.494 62.3929 193.069 62.7906 193.798C63.193 194.523 63.3919 195.356 63.3872 196.298C63.3919 197.241 63.1788 198.081 62.748 198.82C62.3218 199.558 61.73 200.141 60.9724 200.567C60.2196 200.988 59.3555 201.199 58.3801 201.199ZM68.0226 199.011L67.916 199.786C67.845 200.354 67.7243 200.946 67.5538 201.561C67.3881 202.181 67.2153 202.757 67.0354 203.287C66.8602 203.817 66.7158 204.239 66.6021 204.551H65.0964C65.158 204.258 65.2432 203.86 65.3521 203.358C65.461 202.861 65.5676 202.304 65.6717 201.689C65.7759 201.073 65.854 200.446 65.9061 199.807L65.9771 199.011H68.0226ZM70.8895 201L77.2389 188.443V188.337H69.8952V186.455H79.5117V188.401L73.1835 201H70.8895Z" fill="#CFCFCF"/>
<path d="M999.254 165.199C998.606 165.189 997.966 165.071 997.337 164.844C996.712 164.616 996.144 164.238 995.632 163.707C995.121 163.177 994.711 162.464 994.403 161.57C994.1 160.675 993.949 159.557 993.949 158.217C993.949 156.948 994.074 155.821 994.325 154.837C994.581 153.852 994.948 153.021 995.426 152.344C995.904 151.662 996.482 151.143 997.159 150.788C997.836 150.433 998.596 150.256 999.439 150.256C1000.31 150.256 1001.07 150.426 1001.75 150.767C1002.42 151.108 1002.96 151.579 1003.38 152.18C1003.8 152.782 1004.07 153.466 1004.18 154.233H1002.02C1001.87 153.627 1001.58 153.132 1001.14 152.749C1000.71 152.365 1000.14 152.173 999.439 152.173C998.374 152.173 997.543 152.637 996.946 153.565C996.354 154.493 996.056 155.784 996.051 157.436H996.158C996.409 157.024 996.716 156.674 997.081 156.385C997.45 156.091 997.862 155.866 998.317 155.71C998.776 155.549 999.259 155.469 999.766 155.469C1000.61 155.469 1001.37 155.675 1002.05 156.087C1002.74 156.494 1003.29 157.057 1003.69 157.777C1004.1 158.497 1004.3 159.321 1004.3 160.249C1004.3 161.177 1004.09 162.017 1003.67 162.77C1003.26 163.523 1002.67 164.119 1001.91 164.56C1001.15 164.995 1000.27 165.208 999.254 165.199ZM999.247 163.352C999.806 163.352 1000.31 163.215 1000.75 162.94C1001.19 162.666 1001.53 162.296 1001.79 161.832C1002.05 161.368 1002.17 160.85 1002.17 160.277C1002.17 159.718 1002.05 159.209 1001.8 158.75C1001.55 158.291 1001.21 157.926 1000.77 157.656C1000.34 157.386 999.851 157.251 999.297 157.251C998.876 157.251 998.485 157.332 998.125 157.493C997.77 157.654 997.457 157.876 997.188 158.161C996.918 158.445 996.705 158.771 996.548 159.141C996.397 159.505 996.321 159.891 996.321 160.298C996.321 160.843 996.447 161.347 996.697 161.811C996.953 162.275 997.301 162.649 997.742 162.933C998.187 163.213 998.688 163.352 999.247 163.352ZM1011.47 165.199C1010.58 165.199 1009.78 165.028 1009.07 164.688C1008.36 164.342 1007.8 163.868 1007.38 163.267C1006.96 162.666 1006.73 161.979 1006.7 161.207H1008.83C1008.89 161.832 1009.16 162.346 1009.67 162.749C1010.17 163.151 1010.77 163.352 1011.47 163.352C1012.03 163.352 1012.52 163.224 1012.95 162.969C1013.39 162.708 1013.73 162.351 1013.98 161.896C1014.23 161.442 1014.35 160.923 1014.35 160.341C1014.35 159.749 1014.23 159.221 1013.97 158.757C1013.71 158.293 1013.36 157.929 1012.91 157.663C1012.47 157.398 1011.95 157.263 1011.38 157.259C1010.94 157.259 1010.49 157.334 1010.05 157.486C1009.6 157.637 1009.24 157.836 1008.97 158.082L1006.96 157.784L1007.78 150.455H1015.77V152.337H1009.6L1009.14 156.406H1009.23C1009.51 156.132 1009.89 155.902 1010.35 155.717C1010.83 155.533 1011.33 155.44 1011.87 155.44C1012.76 155.44 1013.55 155.651 1014.24 156.072C1014.94 156.494 1015.48 157.069 1015.88 157.798C1016.28 158.523 1016.48 159.356 1016.48 160.298C1016.48 161.241 1016.27 162.081 1015.84 162.82C1015.41 163.558 1014.82 164.141 1014.06 164.567C1013.31 164.988 1012.44 165.199 1011.47 165.199ZM1021.11 163.011L1021.01 163.786C1020.93 164.354 1020.81 164.946 1020.64 165.561C1020.48 166.181 1020.3 166.757 1020.12 167.287C1019.95 167.817 1019.81 168.239 1019.69 168.551H1018.19C1018.25 168.258 1018.33 167.86 1018.44 167.358C1018.55 166.861 1018.66 166.304 1018.76 165.689C1018.87 165.073 1018.94 164.446 1019 163.807L1019.07 163.011H1021.11ZM1028.52 150.256C1029.17 150.26 1029.81 150.379 1030.44 150.611C1031.07 150.843 1031.64 151.222 1032.14 151.747C1032.65 152.273 1033.06 152.983 1033.36 153.878C1033.67 154.768 1033.83 155.876 1033.83 157.202C1033.83 158.475 1033.71 159.609 1033.45 160.604C1033.19 161.593 1032.83 162.429 1032.35 163.111C1031.88 163.793 1031.3 164.311 1030.62 164.666C1029.95 165.021 1029.18 165.199 1028.34 165.199C1027.47 165.199 1026.7 165.028 1026.03 164.688C1025.36 164.347 1024.81 163.875 1024.39 163.274C1023.97 162.668 1023.7 161.972 1023.6 161.186H1025.77C1025.91 161.811 1026.2 162.318 1026.63 162.706C1027.07 163.089 1027.64 163.281 1028.34 163.281C1029.4 163.281 1030.23 162.817 1030.83 161.889C1031.43 160.956 1031.73 159.654 1031.73 157.983H1031.62C1031.37 158.39 1031.06 158.741 1030.69 159.034C1030.33 159.328 1029.92 159.555 1029.47 159.716C1029.01 159.877 1028.53 159.957 1028.01 159.957C1027.17 159.957 1026.41 159.751 1025.72 159.339C1025.04 158.928 1024.49 158.362 1024.08 157.642C1023.67 156.922 1023.47 156.101 1023.47 155.178C1023.47 154.259 1023.68 153.426 1024.1 152.678C1024.52 151.929 1025.1 151.338 1025.86 150.902C1026.62 150.462 1027.5 150.246 1028.52 150.256ZM1028.53 152.102C1027.97 152.102 1027.47 152.24 1027.03 152.514C1026.59 152.784 1026.24 153.151 1025.99 153.615C1025.73 154.074 1025.6 154.586 1025.6 155.149C1025.6 155.713 1025.73 156.224 1025.97 156.683C1026.22 157.138 1026.56 157.5 1026.99 157.77C1027.43 158.035 1027.93 158.168 1028.49 158.168C1028.9 158.168 1029.29 158.087 1029.65 157.926C1030.01 157.765 1030.32 157.543 1030.59 157.259C1030.86 156.97 1031.08 156.643 1031.23 156.278C1031.38 155.914 1031.45 155.53 1031.45 155.128C1031.45 154.593 1031.33 154.096 1031.07 153.636C1030.82 153.177 1030.47 152.808 1030.03 152.528C1029.59 152.244 1029.09 152.102 1028.53 152.102Z" fill="#CFCFCF"/>
<path d="M64.5327 411.818V438H59.0611V416.318H48.4759V438H43.0043V411.818H64.5327ZM68.2606 445.364V418.364H73.63V421.662H73.8729C74.1115 421.134 74.4567 420.597 74.9084 420.051C75.3686 419.497 75.9652 419.037 76.6981 418.67C77.4396 418.295 78.3601 418.108 79.4595 418.108C80.8913 418.108 82.2123 418.483 83.4226 419.233C84.6328 419.974 85.6001 421.095 86.3246 422.595C87.049 424.087 87.4112 425.957 87.4112 428.207C87.4112 430.398 87.0575 432.247 86.3501 433.756C85.6513 435.256 84.6967 436.393 83.4865 437.169C82.2848 437.936 80.9382 438.32 79.4467 438.32C78.3899 438.32 77.4908 438.145 76.7493 437.795C76.0163 437.446 75.4155 437.007 74.9467 436.479C74.478 435.942 74.12 435.401 73.8729 434.855H73.7067V445.364H68.2606ZM73.5916 428.182C73.5916 429.349 73.7535 430.368 74.0774 431.237C74.4013 432.107 74.87 432.784 75.4837 433.27C76.0973 433.747 76.843 433.986 77.7209 433.986C78.6072 433.986 79.3572 433.743 79.9709 433.257C80.5845 432.763 81.049 432.081 81.3643 431.212C81.6882 430.334 81.8501 429.324 81.8501 428.182C81.8501 427.048 81.6925 426.051 81.3771 425.19C81.0618 424.33 80.5973 423.656 79.9837 423.17C79.37 422.685 78.6158 422.442 77.7209 422.442C76.8345 422.442 76.0845 422.676 75.4709 423.145C74.8658 423.614 74.4013 424.278 74.0774 425.139C73.7535 426 73.5916 427.014 73.5916 428.182ZM98.474 438.384C96.4883 438.384 94.7709 437.962 93.3221 437.118C91.8817 436.266 90.7695 435.081 89.9854 433.564C89.2013 432.038 88.8093 430.27 88.8093 428.259C88.8093 426.23 89.2013 424.457 89.9854 422.94C90.7695 421.415 91.8817 420.23 93.3221 419.386C94.7709 418.534 96.4883 418.108 98.474 418.108C100.46 418.108 102.173 418.534 103.613 419.386C105.062 420.23 106.179 421.415 106.963 422.94C107.747 424.457 108.139 426.23 108.139 428.259C108.139 430.27 107.747 432.038 106.963 433.564C106.179 435.081 105.062 436.266 103.613 437.118C102.173 437.962 100.46 438.384 98.474 438.384ZM98.4996 434.165C99.403 434.165 100.157 433.909 100.762 433.398C101.368 432.878 101.823 432.17 102.13 431.276C102.446 430.381 102.603 429.362 102.603 428.22C102.603 427.078 102.446 426.06 102.13 425.165C101.823 424.27 101.368 423.562 100.762 423.043C100.157 422.523 99.403 422.263 98.4996 422.263C97.5877 422.263 96.8206 422.523 96.1985 423.043C95.5848 423.562 95.1204 424.27 94.805 425.165C94.4982 426.06 94.3448 427.078 94.3448 428.22C94.3448 429.362 94.4982 430.381 94.805 431.276C95.1204 432.17 95.5848 432.878 96.1985 433.398C96.8206 433.909 97.5877 434.165 98.4996 434.165ZM127.409 418.364V434.241H130.541V444.315H125.249V438H110.24V418.364H115.443V433.717H122.27V418.364H127.409ZM141.198 438.384C139.178 438.384 137.44 437.974 135.982 437.156C134.533 436.33 133.417 435.162 132.633 433.653C131.849 432.136 131.457 430.342 131.457 428.271C131.457 426.251 131.849 424.479 132.633 422.953C133.417 421.428 134.521 420.239 135.944 419.386C137.376 418.534 139.055 418.108 140.981 418.108C142.276 418.108 143.482 418.317 144.599 418.734C145.724 419.143 146.704 419.761 147.539 420.588C148.383 421.415 149.039 422.455 149.508 423.707C149.977 424.952 150.211 426.409 150.211 428.08V429.575H133.63V426.2H145.084C145.084 425.416 144.914 424.722 144.573 424.116C144.232 423.511 143.759 423.038 143.154 422.697C142.557 422.348 141.863 422.173 141.07 422.173C140.244 422.173 139.511 422.365 138.871 422.749C138.241 423.124 137.746 423.631 137.388 424.27C137.03 424.901 136.847 425.604 136.839 426.379V429.588C136.839 430.56 137.018 431.399 137.376 432.107C137.742 432.814 138.258 433.359 138.923 433.743C139.587 434.126 140.376 434.318 141.288 434.318C141.893 434.318 142.447 434.233 142.95 434.062C143.452 433.892 143.883 433.636 144.241 433.295C144.599 432.955 144.871 432.537 145.059 432.043L150.096 432.375C149.84 433.585 149.316 434.642 148.523 435.545C147.739 436.44 146.725 437.139 145.481 437.642C144.245 438.136 142.817 438.384 141.198 438.384ZM165.991 426.009V430.291H155.738V426.009H165.991ZM157.528 418.364V438H152.325V418.364H157.528ZM169.404 418.364V438H164.24V418.364H169.404ZM170.218 422.646V418.364H188.013V422.646H181.685V438H176.495V422.646H170.218ZM205.639 438.384C203.653 438.384 201.936 437.962 200.487 437.118C199.046 436.266 197.934 435.081 197.15 433.564C196.366 432.038 195.974 430.27 195.974 428.259C195.974 426.23 196.366 424.457 197.15 422.94C197.934 421.415 199.046 420.23 200.487 419.386C201.936 418.534 203.653 418.108 205.639 418.108C207.625 418.108 209.338 418.534 210.778 419.386C212.227 420.23 213.343 421.415 214.127 422.94C214.911 424.457 215.304 426.23 215.304 428.259C215.304 430.27 214.911 432.038 214.127 433.564C213.343 435.081 212.227 436.266 210.778 437.118C209.338 437.962 207.625 438.384 205.639 438.384ZM205.664 434.165C206.568 434.165 207.322 433.909 207.927 433.398C208.532 432.878 208.988 432.17 209.295 431.276C209.61 430.381 209.768 429.362 209.768 428.22C209.768 427.078 209.61 426.06 209.295 425.165C208.988 424.27 208.532 423.562 207.927 423.043C207.322 422.523 206.568 422.263 205.664 422.263C204.752 422.263 203.985 422.523 203.363 423.043C202.75 423.562 202.285 424.27 201.97 425.165C201.663 426.06 201.509 427.078 201.509 428.22C201.509 429.362 201.663 430.381 201.97 431.276C202.285 432.17 202.75 432.878 203.363 433.398C203.985 433.909 204.752 434.165 205.664 434.165ZM215.503 422.646V418.364H233.299V422.646H226.97V438H221.78V422.646H215.503ZM235.16 438V418.364H240.606V425.983H242.14L247.484 418.364H253.876L246.934 428.105L253.953 438H247.484L242.639 431.033H240.606V438H235.16ZM260.413 438.371C259.16 438.371 258.044 438.153 257.064 437.719C256.084 437.276 255.308 436.624 254.737 435.763C254.175 434.893 253.893 433.811 253.893 432.516C253.893 431.425 254.094 430.509 254.494 429.767C254.895 429.026 255.44 428.429 256.131 427.977C256.821 427.526 257.605 427.185 258.483 426.955C259.369 426.724 260.298 426.562 261.27 426.469C262.412 426.349 263.332 426.239 264.031 426.136C264.73 426.026 265.237 425.864 265.552 425.651C265.868 425.437 266.025 425.122 266.025 424.705V424.628C266.025 423.818 265.77 423.192 265.258 422.749C264.756 422.305 264.04 422.084 263.111 422.084C262.131 422.084 261.351 422.301 260.771 422.736C260.192 423.162 259.808 423.699 259.621 424.347L254.584 423.938C254.839 422.744 255.342 421.713 256.092 420.844C256.842 419.966 257.81 419.293 258.994 418.824C260.187 418.347 261.568 418.108 263.136 418.108C264.227 418.108 265.271 418.236 266.268 418.491C267.274 418.747 268.165 419.143 268.94 419.68C269.724 420.217 270.342 420.908 270.794 421.751C271.246 422.587 271.471 423.588 271.471 424.756V438H266.307V435.277H266.153C265.838 435.891 265.416 436.432 264.888 436.901C264.359 437.361 263.724 437.723 262.983 437.987C262.241 438.243 261.385 438.371 260.413 438.371ZM261.973 434.612C262.774 434.612 263.481 434.455 264.095 434.139C264.709 433.815 265.19 433.381 265.54 432.835C265.889 432.29 266.064 431.672 266.064 430.982V428.898C265.893 429.009 265.659 429.111 265.361 429.205C265.071 429.29 264.743 429.371 264.376 429.447C264.01 429.516 263.643 429.58 263.277 429.639C262.91 429.69 262.578 429.737 262.28 429.78C261.64 429.874 261.082 430.023 260.605 430.227C260.128 430.432 259.757 430.709 259.493 431.058C259.229 431.399 259.096 431.825 259.096 432.337C259.096 433.078 259.365 433.645 259.902 434.037C260.447 434.42 261.138 434.612 261.973 434.612ZM273.247 432.439H278.526C278.552 433.087 278.842 433.598 279.396 433.973C279.95 434.348 280.666 434.536 281.544 434.536C282.43 434.536 283.176 434.331 283.781 433.922C284.386 433.504 284.688 432.908 284.688 432.132C284.688 431.655 284.569 431.241 284.33 430.892C284.092 430.534 283.759 430.253 283.333 430.048C282.907 429.844 282.413 429.741 281.85 429.741H279.025V426.175H281.85C282.694 426.175 283.342 425.979 283.794 425.587C284.254 425.195 284.484 424.705 284.484 424.116C284.484 423.452 284.245 422.919 283.768 422.518C283.299 422.109 282.664 421.905 281.863 421.905C281.053 421.905 280.38 422.088 279.843 422.455C279.315 422.812 279.042 423.281 279.025 423.861H273.771C273.788 422.685 274.142 421.666 274.832 420.805C275.531 419.945 276.468 419.28 277.644 418.811C278.829 418.342 280.154 418.108 281.62 418.108C283.222 418.108 284.603 418.334 285.762 418.786C286.93 419.229 287.825 419.864 288.447 420.69C289.078 421.517 289.393 422.501 289.393 423.643C289.393 424.683 289.052 425.553 288.37 426.251C287.688 426.95 286.734 427.449 285.507 427.747V427.952C286.316 428.003 287.049 428.22 287.705 428.604C288.362 428.987 288.886 429.516 289.278 430.189C289.67 430.854 289.866 431.642 289.866 432.554C289.866 433.773 289.508 434.817 288.792 435.686C288.085 436.555 287.105 437.224 285.852 437.693C284.607 438.153 283.18 438.384 281.569 438.384C280.001 438.384 278.595 438.158 277.35 437.706C276.115 437.246 275.13 436.572 274.397 435.686C273.673 434.8 273.289 433.717 273.247 432.439ZM297.365 438.371C296.112 438.371 294.996 438.153 294.016 437.719C293.036 437.276 292.26 436.624 291.689 435.763C291.127 434.893 290.845 433.811 290.845 432.516C290.845 431.425 291.046 430.509 291.446 429.767C291.847 429.026 292.392 428.429 293.083 427.977C293.773 427.526 294.557 427.185 295.435 426.955C296.321 426.724 297.25 426.562 298.222 426.469C299.364 426.349 300.284 426.239 300.983 426.136C301.682 426.026 302.189 425.864 302.504 425.651C302.82 425.437 302.977 425.122 302.977 424.705V424.628C302.977 423.818 302.722 423.192 302.21 422.749C301.708 422.305 300.992 422.084 300.063 422.084C299.083 422.084 298.303 422.301 297.723 422.736C297.144 423.162 296.76 423.699 296.573 424.347L291.536 423.938C291.791 422.744 292.294 421.713 293.044 420.844C293.794 419.966 294.762 419.293 295.946 418.824C297.139 418.347 298.52 418.108 300.088 418.108C301.179 418.108 302.223 418.236 303.22 418.491C304.226 418.747 305.117 419.143 305.892 419.68C306.676 420.217 307.294 420.908 307.746 421.751C308.198 422.587 308.423 423.588 308.423 424.756V438H303.259V435.277H303.105C302.79 435.891 302.368 436.432 301.84 436.901C301.311 437.361 300.676 437.723 299.935 437.987C299.193 438.243 298.337 438.371 297.365 438.371ZM298.925 434.612C299.726 434.612 300.433 434.455 301.047 434.139C301.661 433.815 302.142 433.381 302.492 432.835C302.841 432.29 303.016 431.672 303.016 430.982V428.898C302.845 429.009 302.611 429.111 302.313 429.205C302.023 429.29 301.695 429.371 301.328 429.447C300.962 429.516 300.595 429.58 300.229 429.639C299.862 429.69 299.53 429.737 299.232 429.78C298.592 429.874 298.034 430.023 297.557 430.227C297.08 430.432 296.709 430.709 296.445 431.058C296.181 431.399 296.048 431.825 296.048 432.337C296.048 433.078 296.317 433.645 296.854 434.037C297.399 434.42 298.09 434.612 298.925 434.612Z" fill="black"/>
<path opacity="0.4" d="M39.545 666.5H1034.5V556L378.5 539.5C378.5 539.5 45.2831 517.76 39.545 517.019V517C39.4445 517 39.4456 517.007 39.545 517.019V666.5Z" fill="url(#paint1_linear_2567_1537)"/>
<rect x="1030.54" y="553.357" width="9.55842" height="9.55842" rx="4.77921" fill="#CACACA" stroke="#CACACA" stroke-width="0.713315"/>
<path d="M39.5 517L373 539.5L1035 557.5" stroke="#CACACA" stroke-width="4"/>
<path d="M890.074 651.445V675.803L880.989 666.684L877 670.638L892.955 686.559L908.875 670.638L904.955 666.684L895.835 675.803V651.445H890.074Z" fill="#CACACA"/>
<path d="M920.668 679.864V674.051L935.242 651.091H940.254V659.136H937.288L928.1 673.676V673.949H948.81V679.864H920.668ZM937.424 686V678.091L937.56 675.517V651.091H944.481V686H937.424ZM960.54 681.227L960.352 683.102C960.205 684.602 959.92 686.097 959.5 687.585C959.091 689.085 958.659 690.443 958.205 691.659C957.761 692.875 957.403 693.83 957.131 694.523H952.426C952.597 693.852 952.83 692.915 953.125 691.71C953.42 690.517 953.699 689.176 953.96 687.688C954.222 686.199 954.386 684.682 954.455 683.136L954.54 681.227H960.54ZM978.235 686.477C975.61 686.477 973.275 686.051 971.229 685.199C969.195 684.335 967.599 683.159 966.44 681.67C965.281 680.182 964.701 678.494 964.701 676.608C964.701 675.153 965.031 673.818 965.69 672.602C966.36 671.375 967.269 670.358 968.417 669.551C969.565 668.733 970.849 668.21 972.269 667.983V667.744C970.406 667.369 968.894 666.466 967.735 665.034C966.576 663.591 965.996 661.915 965.996 660.006C965.996 658.199 966.525 656.591 967.582 655.182C968.638 653.761 970.087 652.648 971.928 651.841C973.781 651.023 975.883 650.614 978.235 650.614C980.587 650.614 982.684 651.023 984.525 651.841C986.377 652.659 987.832 653.778 988.888 655.199C989.945 656.608 990.479 658.21 990.491 660.006C990.479 661.926 989.888 663.602 988.718 665.034C987.548 666.466 986.048 667.369 984.218 667.744V667.983C985.616 668.21 986.883 668.733 988.019 669.551C989.167 670.358 990.076 671.375 990.746 672.602C991.428 673.818 991.775 675.153 991.786 676.608C991.775 678.494 991.19 680.182 990.031 681.67C988.871 683.159 987.269 684.335 985.224 685.199C983.19 686.051 980.86 686.477 978.235 686.477ZM978.235 681.057C979.406 681.057 980.428 680.847 981.303 680.426C982.178 679.994 982.86 679.403 983.349 678.653C983.849 677.892 984.099 677.017 984.099 676.028C984.099 675.017 983.843 674.125 983.332 673.352C982.82 672.568 982.127 671.955 981.252 671.511C980.377 671.057 979.371 670.83 978.235 670.83C977.11 670.83 976.104 671.057 975.218 671.511C974.332 671.955 973.633 672.568 973.121 673.352C972.621 674.125 972.371 675.017 972.371 676.028C972.371 677.017 972.616 677.892 973.104 678.653C973.593 679.403 974.281 679.994 975.167 680.426C976.053 680.847 977.076 681.057 978.235 681.057ZM978.235 665.46C979.212 665.46 980.082 665.261 980.843 664.864C981.604 664.466 982.201 663.915 982.633 663.21C983.065 662.506 983.281 661.693 983.281 660.773C983.281 659.864 983.065 659.068 982.633 658.386C982.201 657.693 981.61 657.153 980.86 656.767C980.11 656.369 979.235 656.17 978.235 656.17C977.246 656.17 976.371 656.369 975.61 656.767C974.849 657.153 974.252 657.693 973.82 658.386C973.4 659.068 973.19 659.864 973.19 660.773C973.19 661.693 973.406 662.506 973.837 663.21C974.269 663.915 974.866 664.466 975.627 664.864C976.388 665.261 977.258 665.46 978.235 665.46ZM1015.56 679.455V677.614C1015.56 676.216 1015.86 674.932 1016.45 673.761C1017.05 672.58 1017.92 671.636 1019.06 670.932C1020.2 670.216 1021.6 669.858 1023.25 669.858C1024.92 669.858 1026.32 670.21 1027.46 670.915C1028.61 671.619 1029.47 672.562 1030.05 673.744C1030.64 674.915 1030.94 676.205 1030.94 677.614V679.455C1030.94 680.852 1030.64 682.142 1030.05 683.324C1029.46 684.494 1028.59 685.432 1027.44 686.136C1026.3 686.852 1024.9 687.21 1023.25 687.21C1021.58 687.21 1020.18 686.852 1019.04 686.136C1017.9 685.432 1017.04 684.494 1016.45 683.324C1015.86 682.142 1015.56 680.852 1015.56 679.455ZM1020.52 677.614V679.455C1020.52 680.261 1020.72 681.023 1021.1 681.739C1021.5 682.455 1022.22 682.812 1023.25 682.812C1024.28 682.812 1024.99 682.46 1025.36 681.756C1025.75 681.051 1025.94 680.284 1025.94 679.455V677.614C1025.94 676.784 1025.76 676.011 1025.4 675.295C1025.03 674.58 1024.32 674.222 1023.25 674.222C1022.23 674.222 1021.52 674.58 1021.12 675.295C1020.72 676.011 1020.52 676.784 1020.52 677.614ZM997.648 659.477V657.636C997.648 656.227 997.949 654.937 998.551 653.767C999.153 652.585 1000.02 651.642 1001.16 650.938C1002.31 650.233 1003.69 649.881 1005.32 649.881C1007 649.881 1008.41 650.233 1009.55 650.938C1010.68 651.642 1011.55 652.585 1012.14 653.767C1012.73 654.937 1013.02 656.227 1013.02 657.636V659.477C1013.02 660.886 1012.72 662.176 1012.12 663.347C1011.53 664.517 1010.66 665.455 1009.51 666.159C1008.38 666.852 1006.98 667.199 1005.32 667.199C1003.66 667.199 1002.26 666.847 1001.11 666.142C999.972 665.426 999.108 664.489 998.517 663.33C997.938 662.159 997.648 660.875 997.648 659.477ZM1002.64 657.636V659.477C1002.64 660.307 1002.84 661.074 1003.22 661.778C1003.62 662.483 1004.32 662.835 1005.32 662.835C1006.36 662.835 1007.07 662.483 1007.45 661.778C1007.84 661.074 1008.03 660.307 1008.03 659.477V657.636C1008.03 656.807 1007.85 656.034 1007.48 655.318C1007.12 654.602 1006.4 654.244 1005.32 654.244C1004.31 654.244 1003.61 654.608 1003.22 655.335C1002.84 656.062 1002.64 656.83 1002.64 657.636ZM999.898 686L1023.9 651.091H1028.36L1004.36 686H999.898Z" fill="black"/>
<path d="M46.9176 487.455V502H44.7159V489.656H44.6307L41.1506 491.929V489.827L44.7798 487.455H46.9176ZM55.5445 502.199C54.5265 502.199 53.6269 502.024 52.8456 501.673C52.0691 501.323 51.4607 500.84 51.0203 500.224C50.58 499.609 50.3622 498.908 50.3669 498.122C50.3622 497.507 50.4877 496.941 50.7434 496.425C51.0038 495.904 51.3565 495.471 51.8016 495.125C52.2467 494.775 52.7438 494.552 53.2931 494.457V494.372C52.5686 494.197 51.9886 493.809 51.553 493.207C51.1174 492.606 50.902 491.915 50.9067 491.134C50.902 490.39 51.0985 489.727 51.4962 489.145C51.8987 488.558 52.4503 488.096 53.151 487.76C53.8518 487.424 54.6496 487.256 55.5445 487.256C56.4299 487.256 57.2206 487.426 57.9167 487.767C58.6174 488.103 59.169 488.565 59.5715 489.152C59.9739 489.734 60.1775 490.395 60.1823 491.134C60.1775 491.915 59.955 492.606 59.5147 493.207C59.0743 493.809 58.5014 494.197 57.7959 494.372V494.457C58.3404 494.552 58.8305 494.775 59.2661 495.125C59.7064 495.471 60.0568 495.904 60.3172 496.425C60.5824 496.941 60.7173 497.507 60.722 498.122C60.7173 498.908 60.4948 499.609 60.0544 500.224C59.6141 500.84 59.0033 501.323 58.222 501.673C57.4455 502.024 56.553 502.199 55.5445 502.199ZM55.5445 500.402C56.1458 500.402 56.6667 500.303 57.107 500.104C57.5473 499.9 57.8882 499.618 58.1297 499.259C58.3712 498.894 58.4943 498.468 58.499 497.98C58.4943 497.473 58.3617 497.026 58.1013 496.638C57.8456 496.25 57.4976 495.944 57.0573 495.722C56.6169 495.499 56.1127 495.388 55.5445 495.388C54.9716 495.388 54.4626 495.499 54.0175 495.722C53.5724 495.944 53.222 496.25 52.9664 496.638C52.7107 497.026 52.5852 497.473 52.5899 497.98C52.5852 498.468 52.7012 498.894 52.938 499.259C53.1794 499.618 53.5227 499.9 53.9678 500.104C54.4129 500.303 54.9384 500.402 55.5445 500.402ZM55.5445 493.634C56.0274 493.634 56.4559 493.536 56.83 493.342C57.2041 493.148 57.4976 492.878 57.7107 492.533C57.9285 492.187 58.0398 491.782 58.0445 491.318C58.0398 490.864 57.9309 490.466 57.7178 490.125C57.5095 489.784 57.2183 489.521 56.8442 489.337C56.4702 489.147 56.0369 489.053 55.5445 489.053C55.0426 489.053 54.6023 489.147 54.2235 489.337C53.8494 489.521 53.5582 489.784 53.3499 490.125C53.1416 490.466 53.0398 490.864 53.0445 491.318C53.0398 491.782 53.1439 492.187 53.357 492.533C53.5701 492.878 53.8636 493.148 54.2377 493.342C54.6165 493.536 55.0521 493.634 55.5445 493.634ZM65.4054 500.011L65.2989 500.786C65.2278 501.354 65.1071 501.946 64.9366 502.561C64.7709 503.181 64.5981 503.757 64.4182 504.287C64.243 504.817 64.0986 505.239 63.9849 505.551H62.4793C62.5408 505.258 62.626 504.86 62.7349 504.358C62.8438 503.861 62.9504 503.304 63.0545 502.689C63.1587 502.073 63.2368 501.446 63.2889 500.807L63.3599 500.011H65.4054ZM72.6899 502.199C71.7146 502.199 70.8433 502.031 70.0763 501.695C69.314 501.358 68.7103 500.892 68.2652 500.295C67.8249 499.694 67.5881 498.998 67.555 498.207H69.7851C69.8135 498.638 69.9579 499.012 70.2183 499.33C70.4835 499.642 70.8291 499.884 71.2553 500.054C71.6814 500.224 72.1549 500.31 72.6757 500.31C73.2486 500.31 73.7553 500.21 74.1956 500.011C74.6407 499.812 74.9887 499.536 75.2397 499.18C75.4906 498.821 75.6161 498.406 75.6161 497.938C75.6161 497.45 75.4906 497.021 75.2397 496.652C74.9934 496.278 74.6312 495.984 74.153 495.771C73.6795 495.558 73.1066 495.452 72.4343 495.452H71.2056V493.662H72.4343C72.974 493.662 73.4475 493.565 73.8547 493.371C74.2666 493.177 74.5886 492.907 74.8206 492.561C75.0526 492.211 75.1686 491.801 75.1686 491.332C75.1686 490.883 75.0668 490.492 74.8632 490.161C74.6644 489.824 74.3803 489.562 74.011 489.372C73.6464 489.183 73.2155 489.088 72.7183 489.088C72.2449 489.088 71.8022 489.176 71.3902 489.351C70.983 489.521 70.6516 489.768 70.3959 490.089C70.1402 490.407 70.0029 490.788 69.984 491.233H67.8604C67.8841 490.447 68.1161 489.756 68.5564 489.159C69.0015 488.562 69.5886 488.096 70.3178 487.76C71.0469 487.424 71.8566 487.256 72.7468 487.256C73.6795 487.256 74.4844 487.438 75.1615 487.803C75.8433 488.162 76.3689 488.643 76.7382 489.244C77.1123 489.846 77.2969 490.504 77.2922 491.219C77.2969 492.033 77.0697 492.724 76.6104 493.293C76.1558 493.861 75.5498 494.242 74.7922 494.436V494.55C75.7581 494.696 76.5062 495.08 77.0365 495.7C77.5716 496.321 77.8367 497.09 77.832 498.009C77.8367 498.809 77.6142 499.526 77.1644 500.161C76.7193 500.795 76.1109 501.295 75.3391 501.659C74.5673 502.019 73.6843 502.199 72.6899 502.199Z" fill="#CFCFCF"/>
<path d="M1002.74 529.455V544H1000.54V531.656H1000.45L996.974 533.929V531.827L1000.6 529.455H1002.74ZM1011.52 544.199C1010.54 544.199 1009.67 544.031 1008.9 543.695C1008.14 543.358 1007.54 542.892 1007.09 542.295C1006.65 541.694 1006.42 540.998 1006.38 540.207H1008.61C1008.64 540.638 1008.79 541.012 1009.05 541.33C1009.31 541.642 1009.66 541.884 1010.08 542.054C1010.51 542.224 1010.98 542.31 1011.5 542.31C1012.08 542.31 1012.58 542.21 1013.02 542.011C1013.47 541.812 1013.82 541.536 1014.07 541.18C1014.32 540.821 1014.44 540.406 1014.44 539.938C1014.44 539.45 1014.32 539.021 1014.07 538.652C1013.82 538.278 1013.46 537.984 1012.98 537.771C1012.51 537.558 1011.93 537.452 1011.26 537.452H1010.03V535.662H1011.26C1011.8 535.662 1012.28 535.565 1012.68 535.371C1013.09 535.177 1013.42 534.907 1013.65 534.561C1013.88 534.211 1014 533.801 1014 533.332C1014 532.883 1013.89 532.492 1013.69 532.161C1013.49 531.824 1013.21 531.562 1012.84 531.372C1012.47 531.183 1012.04 531.088 1011.55 531.088C1011.07 531.088 1010.63 531.176 1010.22 531.351C1009.81 531.521 1009.48 531.768 1009.22 532.089C1008.97 532.407 1008.83 532.788 1008.81 533.233H1006.69C1006.71 532.447 1006.94 531.756 1007.38 531.159C1007.83 530.562 1008.42 530.096 1009.15 529.76C1009.87 529.424 1010.68 529.256 1011.57 529.256C1012.51 529.256 1013.31 529.438 1013.99 529.803C1014.67 530.162 1015.2 530.643 1015.57 531.244C1015.94 531.846 1016.12 532.504 1016.12 533.219C1016.12 534.033 1015.9 534.724 1015.44 535.293C1014.98 535.861 1014.38 536.242 1013.62 536.436V536.55C1014.59 536.696 1015.33 537.08 1015.86 537.7C1016.4 538.321 1016.66 539.09 1016.66 540.009C1016.66 540.809 1016.44 541.526 1015.99 542.161C1015.55 542.795 1014.94 543.295 1014.17 543.659C1013.39 544.019 1012.51 544.199 1011.52 544.199ZM1021.48 542.011L1021.38 542.786C1021.31 543.354 1021.18 543.946 1021.01 544.561C1020.85 545.181 1020.68 545.757 1020.5 546.287C1020.32 546.817 1020.18 547.239 1020.06 547.551H1018.56C1018.62 547.258 1018.7 546.86 1018.81 546.358C1018.92 545.861 1019.03 545.304 1019.13 544.689C1019.24 544.073 1019.31 543.446 1019.37 542.807L1019.44 542.011H1021.48ZM1028.8 544.199C1027.91 544.199 1027.11 544.028 1026.4 543.688C1025.69 543.342 1025.13 542.868 1024.71 542.267C1024.29 541.666 1024.06 540.979 1024.03 540.207H1026.16C1026.22 540.832 1026.49 541.346 1026.99 541.749C1027.5 542.151 1028.1 542.352 1028.8 542.352C1029.36 542.352 1029.85 542.224 1030.28 541.969C1030.72 541.708 1031.06 541.351 1031.31 540.896C1031.56 540.442 1031.68 539.923 1031.68 539.341C1031.68 538.749 1031.55 538.221 1031.3 537.757C1031.04 537.293 1030.69 536.929 1030.24 536.663C1029.79 536.398 1029.28 536.263 1028.71 536.259C1028.27 536.259 1027.82 536.334 1027.38 536.486C1026.93 536.637 1026.57 536.836 1026.3 537.082L1024.29 536.784L1025.1 529.455H1033.1V531.337H1026.93L1026.47 535.406H1026.55C1026.84 535.132 1027.21 534.902 1027.68 534.717C1028.16 534.533 1028.66 534.44 1029.2 534.44C1030.09 534.44 1030.88 534.651 1031.57 535.072C1032.26 535.494 1032.81 536.069 1033.21 536.798C1033.61 537.523 1033.81 538.356 1033.81 539.298C1033.81 540.241 1033.6 541.081 1033.17 541.82C1032.74 542.558 1032.15 543.141 1031.39 543.567C1030.64 543.988 1029.77 544.199 1028.8 544.199Z" fill="#CFCFCF"/>
<path opacity="0.4" d="M40.0303 1028.5H1034.98V941L584.5 913.5C584.5 913.5 45.8302 909.096 40.0303 909.002V909C39.9672 909 39.9677 909.001 40.0303 909.002V1028.5Z" fill="url(#paint2_linear_2567_1537)"/>
<rect x="1030.19" y="938" width="10.2717" height="10.2717" rx="5.13587" fill="#04B34A"/>
<path d="M40 910L581 915L1032.5 942.5" stroke="#04B34A" stroke-width="4"/>
<path d="M889.074 1013.44V1037.8L879.989 1028.68L876 1032.64L891.955 1048.56L907.875 1032.64L903.955 1028.68L894.835 1037.8V1013.44H889.074Z" fill="#04B34A"/>
<path d="M934.017 1048.77C931.085 1048.76 928.563 1048.03 926.449 1046.6C924.347 1045.17 922.727 1043.1 921.591 1040.38C920.466 1037.66 919.909 1034.4 919.92 1030.58C919.92 1026.77 920.483 1023.53 921.608 1020.85C922.744 1018.16 924.364 1016.12 926.466 1014.73C928.58 1013.32 931.097 1012.61 934.017 1012.61C936.938 1012.61 939.449 1013.32 941.551 1014.73C943.665 1016.14 945.29 1018.18 946.426 1020.86C947.563 1023.53 948.125 1026.77 948.114 1030.58C948.114 1034.41 947.545 1037.68 946.409 1040.4C945.284 1043.11 943.67 1045.19 941.568 1046.62C939.466 1048.05 936.949 1048.77 934.017 1048.77ZM934.017 1042.65C936.017 1042.65 937.614 1041.64 938.807 1039.63C940 1037.62 940.591 1034.6 940.58 1030.58C940.58 1027.93 940.307 1025.73 939.761 1023.97C939.227 1022.2 938.466 1020.88 937.477 1019.99C936.5 1019.11 935.347 1018.66 934.017 1018.66C932.028 1018.66 930.438 1019.66 929.244 1021.65C928.051 1023.64 927.449 1026.61 927.438 1030.58C927.438 1033.26 927.705 1035.5 928.239 1037.3C928.784 1039.08 929.551 1040.42 930.54 1041.32C931.528 1042.2 932.688 1042.65 934.017 1042.65ZM959.438 1043.23L959.251 1045.1C959.103 1046.6 958.819 1048.1 958.398 1049.59C957.989 1051.09 957.558 1052.44 957.103 1053.66C956.66 1054.88 956.302 1055.83 956.029 1056.52H951.325C951.495 1055.85 951.728 1054.91 952.023 1053.71C952.319 1052.52 952.597 1051.18 952.859 1049.69C953.12 1048.2 953.285 1046.68 953.353 1045.14L953.438 1043.23H959.438ZM977.295 1048.48C974.75 1048.48 972.483 1048.04 970.494 1047.16C968.517 1046.28 966.955 1045.06 965.807 1043.52C964.67 1041.96 964.085 1040.16 964.051 1038.13H971.483C971.528 1038.98 971.807 1039.73 972.318 1040.38C972.841 1041.02 973.534 1041.51 974.398 1041.86C975.261 1042.22 976.233 1042.39 977.312 1042.39C978.438 1042.39 979.432 1042.19 980.295 1041.8C981.159 1041.4 981.835 1040.85 982.324 1040.14C982.813 1039.44 983.057 1038.62 983.057 1037.7C983.057 1036.77 982.795 1035.95 982.273 1035.23C981.761 1034.51 981.023 1033.94 980.057 1033.53C979.102 1033.12 977.966 1032.91 976.648 1032.91H973.392V1027.49H976.648C977.761 1027.49 978.744 1027.3 979.597 1026.91C980.46 1026.53 981.131 1025.99 981.608 1025.31C982.085 1024.62 982.324 1023.81 982.324 1022.89C982.324 1022.02 982.114 1021.25 981.693 1020.59C981.284 1019.92 980.705 1019.4 979.955 1019.02C979.216 1018.65 978.352 1018.46 977.364 1018.46C976.364 1018.46 975.449 1018.64 974.619 1019.01C973.79 1019.36 973.125 1019.86 972.625 1020.52C972.125 1021.18 971.858 1021.95 971.824 1022.84H964.75C964.784 1020.83 965.358 1019.06 966.472 1017.52C967.585 1015.99 969.085 1014.79 970.972 1013.93C972.869 1013.05 975.011 1012.61 977.398 1012.61C979.807 1012.61 981.915 1013.05 983.722 1013.93C985.528 1014.8 986.932 1015.98 987.932 1017.47C988.943 1018.95 989.443 1020.61 989.432 1022.45C989.443 1024.4 988.835 1026.03 987.608 1027.34C986.392 1028.65 984.807 1029.48 982.852 1029.83V1030.1C985.42 1030.43 987.375 1031.32 988.716 1032.78C990.068 1034.22 990.739 1036.03 990.727 1038.2C990.739 1040.19 990.165 1041.95 989.006 1043.5C987.858 1045.05 986.273 1046.26 984.25 1047.15C982.227 1048.03 979.909 1048.48 977.295 1048.48ZM1018.33 1021.82V1048H1011.44V1021.82H1018.33ZM1014.97 1033.31V1039.03C1014.42 1039.28 1013.72 1039.52 1012.89 1039.75C1012.06 1039.97 1011.19 1040.14 1010.28 1040.28C1009.38 1040.41 1008.52 1040.48 1007.73 1040.48C1003.97 1040.48 1001.01 1039.71 998.847 1038.16C996.688 1036.61 995.609 1034.12 995.609 1030.72V1021.78H1002.46V1030.72C1002.46 1031.73 1002.63 1032.53 1002.97 1033.12C1003.32 1033.71 1003.88 1034.14 1004.64 1034.4C1005.42 1034.65 1006.44 1034.77 1007.73 1034.77C1008.92 1034.77 1010.09 1034.65 1011.24 1034.4C1012.39 1034.15 1013.63 1033.78 1014.97 1033.31ZM1027.72 1048.44C1026.6 1048.44 1025.63 1048.05 1024.82 1047.25C1024.03 1046.44 1023.63 1045.48 1023.63 1044.35C1023.63 1043.24 1024.03 1042.28 1024.82 1041.49C1025.63 1040.69 1026.6 1040.3 1027.72 1040.3C1028.81 1040.3 1029.77 1040.69 1030.58 1041.49C1031.4 1042.28 1031.81 1043.24 1031.81 1044.35C1031.81 1045.1 1031.62 1045.79 1031.23 1046.41C1030.86 1047.03 1030.36 1047.52 1029.75 1047.9C1029.13 1048.26 1028.46 1048.44 1027.72 1048.44Z" fill="black"/>
<path d="M46.4631 898.199C45.4877 898.199 44.6165 898.031 43.8494 897.695C43.0871 897.358 42.4834 896.892 42.0384 896.295C41.598 895.694 41.3613 894.998 41.3281 894.207H43.5582C43.5866 894.638 43.7311 895.012 43.9915 895.33C44.2566 895.642 44.6023 895.884 45.0284 896.054C45.4545 896.224 45.928 896.31 46.4489 896.31C47.0218 896.31 47.5284 896.21 47.9688 896.011C48.4138 895.812 48.7618 895.536 49.0128 895.18C49.2637 894.821 49.3892 894.406 49.3892 893.938C49.3892 893.45 49.2637 893.021 49.0128 892.652C48.7666 892.278 48.4044 891.984 47.9261 891.771C47.4527 891.558 46.8797 891.452 46.2074 891.452H44.9787V889.662H46.2074C46.7472 889.662 47.2206 889.565 47.6278 889.371C48.0398 889.177 48.3617 888.907 48.5938 888.561C48.8258 888.211 48.9418 887.801 48.9418 887.332C48.9418 886.883 48.84 886.492 48.6364 886.161C48.4375 885.824 48.1534 885.562 47.7841 885.372C47.4195 885.183 46.9886 885.088 46.4915 885.088C46.018 885.088 45.5753 885.176 45.1634 885.351C44.7562 885.521 44.4247 885.768 44.169 886.089C43.9134 886.407 43.776 886.788 43.7571 887.233H41.6335C41.6572 886.447 41.8892 885.756 42.3295 885.159C42.7746 884.562 43.3617 884.096 44.0909 883.76C44.8201 883.424 45.6297 883.256 46.5199 883.256C47.4527 883.256 48.2576 883.438 48.9347 883.803C49.6165 884.162 50.142 884.643 50.5114 885.244C50.8854 885.846 51.0701 886.504 51.0653 887.219C51.0701 888.033 50.8428 888.724 50.3835 889.293C49.929 889.861 49.3229 890.242 48.5653 890.436V890.55C49.5313 890.696 50.2794 891.08 50.8097 891.7C51.3447 892.321 51.6098 893.09 51.6051 894.009C51.6098 894.809 51.3873 895.526 50.9375 896.161C50.4924 896.795 49.884 897.295 49.1122 897.659C48.3404 898.019 47.4574 898.199 46.4631 898.199ZM56.4287 896.011L56.3222 896.786C56.2512 897.354 56.1304 897.946 55.96 898.561C55.7943 899.181 55.6214 899.757 55.4415 900.287C55.2663 900.817 55.1219 901.239 55.0083 901.551H53.5026C53.5641 901.258 53.6494 900.86 53.7583 900.358C53.8672 899.861 53.9737 899.304 54.0779 898.689C54.182 898.073 54.2602 897.446 54.3122 896.807L54.3833 896.011H56.4287ZM63.8376 883.256C64.4862 883.26 65.1254 883.379 65.7552 883.611C66.3849 883.843 66.9531 884.222 67.4597 884.747C67.9711 885.273 68.3783 885.983 68.6813 886.878C68.9891 887.768 69.1453 888.876 69.1501 890.202C69.1501 891.475 69.0222 892.609 68.7665 893.604C68.5109 894.593 68.1439 895.429 67.6657 896.111C67.1922 896.793 66.6169 897.311 65.9398 897.666C65.2628 898.021 64.5004 898.199 63.6529 898.199C62.7864 898.199 62.017 898.028 61.3447 897.688C60.6723 897.347 60.1254 896.875 59.704 896.274C59.2826 895.668 59.0199 894.972 58.9157 894.186H61.0819C61.2239 894.811 61.5128 895.318 61.9484 895.706C62.3887 896.089 62.9569 896.281 63.6529 896.281C64.7182 896.281 65.5492 895.817 66.1458 894.889C66.7424 893.956 67.0431 892.654 67.0478 890.983H66.9342C66.6879 891.39 66.3802 891.741 66.0109 892.034C65.6463 892.328 65.2367 892.555 64.7822 892.716C64.3276 892.877 63.8423 892.957 63.3262 892.957C62.4881 892.957 61.7258 892.751 61.0393 892.339C60.3527 891.928 59.8058 891.362 59.3986 890.642C58.9914 889.922 58.7878 889.101 58.7878 888.178C58.7878 887.259 58.9962 886.426 59.4128 885.678C59.8342 884.929 60.4214 884.338 61.1742 883.902C61.9318 883.462 62.8196 883.246 63.8376 883.256ZM63.8447 885.102C63.2907 885.102 62.7912 885.24 62.3461 885.514C61.9057 885.784 61.5577 886.151 61.3021 886.615C61.0464 887.074 60.9185 887.586 60.9185 888.149C60.9185 888.713 61.0416 889.224 61.2878 889.683C61.5388 890.138 61.8797 890.5 62.3106 890.77C62.7462 891.035 63.2433 891.168 63.8021 891.168C64.2187 891.168 64.607 891.087 64.9668 890.926C65.3267 890.765 65.6415 890.543 65.9114 890.259C66.1813 889.97 66.392 889.643 66.5435 889.278C66.695 888.914 66.7708 888.53 66.7708 888.128C66.7708 887.593 66.643 887.096 66.3873 886.636C66.1363 886.177 65.7907 885.808 65.3503 885.528C64.91 885.244 64.4081 885.102 63.8447 885.102Z" fill="#CFCFCF"/>
<path d="M1011.5 927.199C1010.52 927.199 1009.65 927.031 1008.88 926.695C1008.12 926.358 1007.52 925.892 1007.07 925.295C1006.63 924.694 1006.4 923.998 1006.36 923.207H1008.59C1008.62 923.638 1008.77 924.012 1009.03 924.33C1009.29 924.642 1009.64 924.884 1010.06 925.054C1010.49 925.224 1010.96 925.31 1011.48 925.31C1012.06 925.31 1012.56 925.21 1013 925.011C1013.45 924.812 1013.8 924.536 1014.05 924.18C1014.3 923.821 1014.42 923.406 1014.42 922.938C1014.42 922.45 1014.3 922.021 1014.05 921.652C1013.8 921.278 1013.44 920.984 1012.96 920.771C1012.49 920.558 1011.91 920.452 1011.24 920.452H1010.01V918.662H1011.24C1011.78 918.662 1012.26 918.565 1012.66 918.371C1013.07 918.177 1013.4 917.907 1013.63 917.561C1013.86 917.211 1013.98 916.801 1013.98 916.332C1013.98 915.883 1013.87 915.492 1013.67 915.161C1013.47 914.824 1013.19 914.562 1012.82 914.372C1012.45 914.183 1012.02 914.088 1011.53 914.088C1011.05 914.088 1010.61 914.176 1010.2 914.351C1009.79 914.521 1009.46 914.768 1009.2 915.089C1008.95 915.407 1008.81 915.788 1008.79 916.233H1006.67C1006.69 915.447 1006.92 914.756 1007.36 914.159C1007.81 913.562 1008.4 913.096 1009.13 912.76C1009.86 912.424 1010.66 912.256 1011.55 912.256C1012.49 912.256 1013.29 912.438 1013.97 912.803C1014.65 913.162 1015.18 913.643 1015.55 914.244C1015.92 914.846 1016.11 915.504 1016.1 916.219C1016.11 917.033 1015.88 917.724 1015.42 918.293C1014.96 918.861 1014.36 919.242 1013.6 919.436V919.55C1014.57 919.696 1015.31 920.08 1015.84 920.7C1016.38 921.321 1016.64 922.09 1016.64 923.009C1016.64 923.809 1016.42 924.526 1015.97 925.161C1015.53 925.795 1014.92 926.295 1014.15 926.659C1013.38 927.019 1012.49 927.199 1011.5 927.199ZM1021.46 925.011L1021.36 925.786C1021.29 926.354 1021.17 926.946 1020.99 927.561C1020.83 928.181 1020.66 928.757 1020.48 929.287C1020.3 929.817 1020.16 930.239 1020.04 930.551H1018.54C1018.6 930.258 1018.68 929.86 1018.79 929.358C1018.9 928.861 1019.01 928.304 1019.11 927.689C1019.22 927.073 1019.3 926.446 1019.35 925.807L1019.42 925.011H1021.46ZM1028.76 927.199C1028.11 927.189 1027.47 927.071 1026.84 926.844C1026.22 926.616 1025.65 926.238 1025.14 925.707C1024.63 925.177 1024.22 924.464 1023.91 923.57C1023.61 922.675 1023.46 921.557 1023.46 920.217C1023.46 918.948 1023.58 917.821 1023.83 916.837C1024.09 915.852 1024.46 915.021 1024.93 914.344C1025.41 913.662 1025.99 913.143 1026.67 912.788C1027.34 912.433 1028.1 912.256 1028.95 912.256C1029.81 912.256 1030.58 912.426 1031.26 912.767C1031.93 913.108 1032.47 913.579 1032.89 914.18C1033.31 914.782 1033.58 915.466 1033.69 916.233H1031.53C1031.38 915.627 1031.09 915.132 1030.65 914.749C1030.22 914.365 1029.65 914.173 1028.95 914.173C1027.88 914.173 1027.05 914.637 1026.45 915.565C1025.86 916.493 1025.56 917.784 1025.56 919.436H1025.67C1025.92 919.024 1026.22 918.674 1026.59 918.385C1026.96 918.091 1027.37 917.866 1027.82 917.71C1028.28 917.549 1028.77 917.469 1029.27 917.469C1030.12 917.469 1030.88 917.675 1031.56 918.087C1032.25 918.494 1032.79 919.057 1033.2 919.777C1033.61 920.497 1033.81 921.321 1033.81 922.249C1033.81 923.177 1033.6 924.017 1033.18 924.77C1032.76 925.523 1032.18 926.119 1031.42 926.56C1030.66 926.995 1029.78 927.208 1028.76 927.199ZM1028.76 925.352C1029.31 925.352 1029.81 925.215 1030.25 924.94C1030.69 924.666 1031.04 924.296 1031.3 923.832C1031.55 923.368 1031.68 922.85 1031.68 922.277C1031.68 921.718 1031.56 921.209 1031.31 920.75C1031.06 920.291 1030.72 919.926 1030.28 919.656C1029.85 919.386 1029.36 919.251 1028.81 919.251C1028.38 919.251 1027.99 919.332 1027.63 919.493C1027.28 919.654 1026.97 919.876 1026.7 920.161C1026.43 920.445 1026.21 920.771 1026.06 921.141C1025.9 921.505 1025.83 921.891 1025.83 922.298C1025.83 922.843 1025.95 923.347 1026.21 923.811C1026.46 924.275 1026.81 924.649 1027.25 924.933C1027.69 925.213 1028.2 925.352 1028.76 925.352Z" fill="#CFCFCF"/>
<defs>
<linearGradient id="paint0_linear_2567_1537" x1="537.476" y1="109.5" x2="537.476" y2="303.5" gradientUnits="userSpaceOnUse">
<stop stop-color="#04B34A"/>
<stop offset="0.0666667" stop-color="#04B34A" stop-opacity="0.991353"/>
<stop offset="0.133333" stop-color="#04B34A" stop-opacity="0.96449"/>
<stop offset="0.2" stop-color="#04B34A" stop-opacity="0.91834"/>
<stop offset="0.266667" stop-color="#04B34A" stop-opacity="0.852589"/>
<stop offset="0.333333" stop-color="#04B34A" stop-opacity="0.768225"/>
<stop offset="0.4" stop-color="#04B34A" stop-opacity="0.668116"/>
<stop offset="0.466667" stop-color="#04B34A" stop-opacity="0.557309"/>
<stop offset="0.533333" stop-color="#04B34A" stop-opacity="0.442691"/>
<stop offset="0.6" stop-color="#04B34A" stop-opacity="0.331884"/>
<stop offset="0.666667" stop-color="#04B34A" stop-opacity="0.231775"/>
<stop offset="0.733333" stop-color="#04B34A" stop-opacity="0.147411"/>
<stop offset="0.8" stop-color="#04B34A" stop-opacity="0.0816599"/>
<stop offset="0.866667" stop-color="#04B34A" stop-opacity="0.03551"/>
<stop offset="0.933333" stop-color="#04B34A" stop-opacity="0.01"/>
<stop offset="1" stop-color="#04B34A" stop-opacity="0"/>
</linearGradient>
<linearGradient id="paint1_linear_2567_1537" x1="537.021" y1="574.5" x2="537.021" y2="666.5" gradientUnits="userSpaceOnUse">
<stop stop-color="#D9D9D9"/>
<stop offset="1" stop-color="#D9D9D9" stop-opacity="0"/>
</linearGradient>
<linearGradient id="paint2_linear_2567_1537" x1="537.506" y1="828" x2="537.506" y2="1028.5" gradientUnits="userSpaceOnUse">
<stop stop-color="#04B34A"/>
<stop offset="0.0666667" stop-color="#04B34A" stop-opacity="0.991353"/>
<stop offset="0.133333" stop-color="#04B34A" stop-opacity="0.96449"/>
<stop offset="0.2" stop-color="#04B34A" stop-opacity="0.91834"/>
<stop offset="0.266667" stop-color="#04B34A" stop-opacity="0.852589"/>
<stop offset="0.333333" stop-color="#04B34A" stop-opacity="0.768225"/>
<stop offset="0.4" stop-color="#04B34A" stop-opacity="0.668116"/>
<stop offset="0.466667" stop-color="#04B34A" stop-opacity="0.557309"/>
<stop offset="0.533333" stop-color="#04B34A" stop-opacity="0.442691"/>
<stop offset="0.6" stop-color="#04B34A" stop-opacity="0.331884"/>
<stop offset="0.666667" stop-color="#04B34A" stop-opacity="0.231775"/>
<stop offset="0.733333" stop-color="#04B34A" stop-opacity="0.147411"/>
<stop offset="0.8" stop-color="#04B34A" stop-opacity="0.0816599"/>
<stop offset="0.866667" stop-color="#04B34A" stop-opacity="0.03551"/>
<stop offset="0.933333" stop-color="#04B34A" stop-opacity="0.01"/>
<stop offset="1" stop-color="#04B34A" stop-opacity="0"/>
</linearGradient>
</defs>
</svg>
