<svg width="1080" height="464" viewBox="0 0 1080 464" fill="none" xmlns="http://www.w3.org/2000/svg">
<rect width="1080" height="464" fill="white"/>
<rect x="20" y="20" width="1040" height="424" rx="25" fill="#F7F7F7"/>
<path d="M65.3764 57.9844H59.777C59.6747 57.2599 59.4659 56.6165 59.1506 56.054C58.8352 55.483 58.4304 54.9972 57.9361 54.5966C57.4418 54.196 56.8707 53.8892 56.223 53.6761C55.5838 53.4631 54.8892 53.3565 54.1392 53.3565C52.7841 53.3565 51.6037 53.6932 50.598 54.3665C49.5923 55.0312 48.8125 56.0028 48.2585 57.2812C47.7045 58.5511 47.4276 60.0937 47.4276 61.9091C47.4276 63.7756 47.7045 65.3437 48.2585 66.6136C48.821 67.8835 49.6051 68.8423 50.6108 69.4901C51.6165 70.1378 52.7798 70.4616 54.1009 70.4616C54.8423 70.4616 55.5284 70.3636 56.1591 70.1676C56.7983 69.9716 57.3651 69.6861 57.8594 69.3111C58.3537 68.9276 58.7628 68.4631 59.0866 67.9176C59.419 67.3722 59.6491 66.75 59.777 66.0511L65.3764 66.0767C65.2315 67.2784 64.8693 68.4375 64.2898 69.554C63.7188 70.6619 62.9474 71.6548 61.9759 72.5327C61.0128 73.402 59.8622 74.0923 58.5241 74.6037C57.1946 75.1065 55.6903 75.358 54.0114 75.358C51.6761 75.358 49.5881 74.8295 47.7472 73.7727C45.9148 72.7159 44.4659 71.1861 43.4006 69.1832C42.3438 67.1804 41.8153 64.7557 41.8153 61.9091C41.8153 59.054 42.3523 56.625 43.4261 54.6222C44.5 52.6193 45.9574 51.0937 47.7983 50.0455C49.6392 48.9886 51.7102 48.4602 54.0114 48.4602C55.5284 48.4602 56.9347 48.6733 58.2301 49.0994C59.5341 49.5256 60.6889 50.1477 61.6946 50.9659C62.7003 51.7756 63.5185 52.7685 64.1491 53.9446C64.7884 55.1207 65.1974 56.4673 65.3764 57.9844ZM71.4119 82.3636C70.7216 82.3636 70.0738 82.3082 69.4687 82.1974C68.8721 82.0952 68.3778 81.9631 67.9858 81.8011L69.2131 77.7358C69.8523 77.9318 70.4275 78.0384 70.9389 78.0554C71.4588 78.0724 71.9062 77.9531 72.2812 77.6974C72.6648 77.4418 72.9758 77.0071 73.2145 76.3935L73.5341 75.5625L66.49 55.3636H72.2173L76.2827 69.7841H76.4872L80.5909 55.3636H86.3565L78.7244 77.1222C78.3579 78.179 77.8594 79.0994 77.2287 79.8835C76.6065 80.6761 75.8182 81.2855 74.8636 81.7116C73.9091 82.1463 72.7585 82.3636 71.4119 82.3636ZM104.029 48.1534L105.691 51.7074C105.137 52.1676 104.523 52.5085 103.85 52.7301C103.176 52.9432 102.371 53.0838 101.434 53.152C100.505 53.2202 99.3711 53.267 98.033 53.2926C96.516 53.3097 95.2802 53.5526 94.3256 54.0213C93.3711 54.4901 92.6466 55.2273 92.1523 56.233C91.658 57.2301 91.3341 58.5341 91.1807 60.1449H91.3725C91.9606 58.9432 92.7873 58.0142 93.8526 57.358C94.9265 56.7017 96.2517 56.3736 97.8285 56.3736C99.4989 56.3736 100.961 56.7401 102.213 57.473C103.475 58.206 104.455 59.2585 105.154 60.6307C105.853 62.0028 106.202 63.6477 106.202 65.5653C106.202 67.5597 105.81 69.294 105.026 70.7685C104.25 72.2344 103.147 73.3722 101.715 74.1818C100.283 74.983 98.5785 75.3835 96.6012 75.3835C94.6154 75.3835 92.9023 74.9659 91.462 74.1307C90.0302 73.2955 88.9222 72.0639 88.1381 70.4361C87.3625 68.8082 86.9748 66.8054 86.9748 64.4276V62.8168C86.9748 58.0866 87.8952 54.5795 89.7361 52.2955C91.577 50.0114 94.283 48.8523 97.854 48.8182C98.8256 48.8011 99.7035 48.7969 100.488 48.8054C101.272 48.8139 101.958 48.7756 102.546 48.6903C103.142 48.6051 103.637 48.4261 104.029 48.1534ZM96.6267 71.1648C97.462 71.1648 98.1779 70.9474 98.7745 70.5128C99.3796 70.0781 99.8441 69.456 100.168 68.6463C100.5 67.8366 100.667 66.8693 100.667 65.7443C100.667 64.6278 100.5 63.6818 100.168 62.9062C99.8441 62.1222 99.3796 61.5256 98.7745 61.1165C98.1694 60.7074 97.4449 60.5028 96.6012 60.5028C95.9705 60.5028 95.4037 60.6179 94.9009 60.848C94.3981 61.0781 93.9677 61.419 93.6097 61.8707C93.2603 62.3139 92.9875 62.8636 92.7915 63.5199C92.604 64.1676 92.5103 64.9091 92.5103 65.7443C92.5103 67.4233 92.8725 68.7486 93.5969 69.7202C94.3299 70.6832 95.3398 71.1648 96.6267 71.1648ZM117.249 75.3835C115.238 75.3835 113.507 74.9574 112.059 74.1051C110.618 73.2443 109.51 72.0511 108.735 70.5256C107.968 69 107.584 67.2443 107.584 65.2585C107.584 63.2472 107.972 61.483 108.747 59.9659C109.532 58.4403 110.644 57.2514 112.084 56.3991C113.524 55.5384 115.238 55.108 117.223 55.108C118.936 55.108 120.436 55.419 121.723 56.0412C123.01 56.6634 124.029 57.5369 124.779 58.6619C125.529 59.7869 125.942 61.108 126.019 62.625H120.88C120.735 61.6449 120.351 60.8565 119.729 60.2599C119.115 59.6548 118.31 59.3523 117.313 59.3523C116.469 59.3523 115.732 59.5824 115.101 60.0426C114.479 60.4943 113.993 61.1548 113.644 62.0241C113.294 62.8935 113.12 63.946 113.12 65.1818C113.12 66.4347 113.29 67.5 113.631 68.3778C113.98 69.2557 114.47 69.9247 115.101 70.3849C115.732 70.8452 116.469 71.0753 117.313 71.0753C117.935 71.0753 118.493 70.9474 118.988 70.6918C119.49 70.4361 119.904 70.0653 120.228 69.5795C120.56 69.0852 120.777 68.4929 120.88 67.8026H126.019C125.934 69.3026 125.524 70.6236 124.792 71.7656C124.067 72.8991 123.066 73.7855 121.787 74.4247C120.509 75.0639 118.996 75.3835 117.249 75.3835ZM133.269 67.8153L140.338 55.3636H145.708V75H140.517V62.5099L133.473 75H128.066V55.3636H133.269V67.8153ZM147.099 80.7528V70.679H148.608C149.043 70.4062 149.392 69.9716 149.656 69.375C149.929 68.7784 150.151 68.0753 150.321 67.2656C150.5 66.456 150.636 65.5824 150.73 64.6449C150.832 63.6989 150.922 62.7443 150.999 61.7812L151.51 55.3636H166.57V70.679H169.612V80.7528H164.422V75H152.418V80.7528H147.099ZM154.028 70.679H161.43V59.5568H156.138L155.933 61.7812C155.788 63.8778 155.579 65.6591 155.307 67.125C155.034 68.5824 154.608 69.767 154.028 70.679ZM176.549 67.8153L183.619 55.3636H188.988V75H183.798V62.5099L176.753 75H171.346V55.3636H176.549V67.8153ZM191.914 82.3636V55.3636H197.283V58.6619H197.526C197.764 58.1335 198.11 57.5966 198.561 57.0511C199.022 56.4972 199.618 56.0369 200.351 55.6705C201.093 55.2955 202.013 55.108 203.112 55.108C204.544 55.108 205.865 55.483 207.076 56.233C208.286 56.9744 209.253 58.0952 209.978 59.5952C210.702 61.0866 211.064 62.9574 211.064 65.2074C211.064 67.3977 210.71 69.2472 210.003 70.7557C209.304 72.2557 208.35 73.3935 207.139 74.169C205.938 74.9361 204.591 75.3196 203.1 75.3196C202.043 75.3196 201.144 75.1449 200.402 74.7955C199.669 74.446 199.068 74.0071 198.6 73.4787C198.131 72.9418 197.773 72.4006 197.526 71.8551H197.36V82.3636H191.914ZM197.245 65.1818C197.245 66.3494 197.407 67.3679 197.73 68.2372C198.054 69.1065 198.523 69.7841 199.137 70.2699C199.75 70.7472 200.496 70.9858 201.374 70.9858C202.26 70.9858 203.01 70.7429 203.624 70.2571C204.237 69.7628 204.702 69.081 205.017 68.2116C205.341 67.3338 205.503 66.3239 205.503 65.1818C205.503 64.0483 205.345 63.0511 205.03 62.1903C204.715 61.3295 204.25 60.6562 203.637 60.1705C203.023 59.6847 202.269 59.4418 201.374 59.4418C200.487 59.4418 199.737 59.6761 199.124 60.1449C198.519 60.6136 198.054 61.2784 197.73 62.1392C197.407 63 197.245 64.0142 197.245 65.1818ZM222.127 75.3835C220.141 75.3835 218.424 74.9616 216.975 74.1179C215.535 73.2656 214.422 72.081 213.638 70.5639C212.854 69.0384 212.462 67.2699 212.462 65.2585C212.462 63.2301 212.854 61.4574 213.638 59.9403C214.422 58.4148 215.535 57.2301 216.975 56.3864C218.424 55.5341 220.141 55.108 222.127 55.108C224.113 55.108 225.826 55.5341 227.266 56.3864C228.715 57.2301 229.832 58.4148 230.616 59.9403C231.4 61.4574 231.792 63.2301 231.792 65.2585C231.792 67.2699 231.4 69.0384 230.616 70.5639C229.832 72.081 228.715 73.2656 227.266 74.1179C225.826 74.9616 224.113 75.3835 222.127 75.3835ZM222.153 71.1648C223.056 71.1648 223.81 70.9091 224.415 70.3977C225.02 69.8778 225.476 69.1705 225.783 68.2756C226.099 67.3807 226.256 66.3622 226.256 65.2202C226.256 64.0781 226.099 63.0597 225.783 62.1648C225.476 61.2699 225.02 60.5625 224.415 60.0426C223.81 59.5227 223.056 59.2628 222.153 59.2628C221.241 59.2628 220.474 59.5227 219.851 60.0426C219.238 60.5625 218.773 61.2699 218.458 62.1648C218.151 63.0597 217.998 64.0781 217.998 65.2202C217.998 66.3622 218.151 67.3807 218.458 68.2756C218.773 69.1705 219.238 69.8778 219.851 70.3977C220.474 70.9091 221.241 71.1648 222.153 71.1648ZM233.893 75V55.3636H242.267C244.687 55.3636 246.6 55.8239 248.007 56.7443C249.413 57.6648 250.116 58.973 250.116 60.669C250.116 61.7344 249.72 62.6207 248.927 63.3281C248.134 64.0355 247.035 64.5128 245.629 64.7599C246.805 64.8452 247.806 65.1136 248.633 65.5653C249.468 66.0085 250.103 66.5838 250.538 67.2912C250.981 67.9986 251.203 68.7827 251.203 69.6435C251.203 70.7599 250.904 71.7187 250.308 72.5199C249.72 73.321 248.855 73.9347 247.713 74.3608C246.579 74.7869 245.194 75 243.558 75H233.893ZM238.968 70.9219H243.558C244.316 70.9219 244.909 70.7429 245.335 70.3849C245.769 70.0185 245.987 69.5199 245.987 68.8892C245.987 68.1903 245.769 67.6406 245.335 67.2401C244.909 66.8395 244.316 66.6392 243.558 66.6392H238.968V70.9219ZM238.968 63.4432H242.382C242.927 63.4432 243.392 63.3665 243.775 63.2131C244.167 63.0511 244.465 62.821 244.67 62.5227C244.883 62.2244 244.99 61.8707 244.99 61.4616C244.99 60.8565 244.747 60.3835 244.261 60.0426C243.775 59.7017 243.11 59.5312 242.267 59.5312H238.968V63.4432ZM258.795 75.3707C257.542 75.3707 256.425 75.1534 255.445 74.7188C254.465 74.2756 253.689 73.6236 253.118 72.7628C252.556 71.8935 252.275 70.8111 252.275 69.5156C252.275 68.4247 252.475 67.5085 252.876 66.767C253.276 66.0256 253.822 65.429 254.512 64.9773C255.202 64.5256 255.986 64.1847 256.864 63.9545C257.751 63.7244 258.68 63.5625 259.651 63.4688C260.793 63.3494 261.714 63.2386 262.413 63.1364C263.111 63.0256 263.618 62.8636 263.934 62.6506C264.249 62.4375 264.407 62.1222 264.407 61.7045V61.6278C264.407 60.8182 264.151 60.1918 263.64 59.7486C263.137 59.3054 262.421 59.0838 261.492 59.0838C260.512 59.0838 259.732 59.3011 259.153 59.7358C258.573 60.1619 258.189 60.6989 258.002 61.3466L252.965 60.9375C253.221 59.7443 253.724 58.7131 254.474 57.8438C255.224 56.9659 256.191 56.2926 257.376 55.8239C258.569 55.3466 259.949 55.108 261.518 55.108C262.609 55.108 263.653 55.2358 264.65 55.4915C265.655 55.7472 266.546 56.1435 267.322 56.6804C268.106 57.2173 268.724 57.9077 269.175 58.7514C269.627 59.5866 269.853 60.5881 269.853 61.7557V75H264.688V72.277H264.535C264.219 72.8906 263.797 73.4318 263.269 73.9006C262.741 74.3608 262.106 74.723 261.364 74.9872C260.623 75.2429 259.766 75.3707 258.795 75.3707ZM260.354 71.6122C261.155 71.6122 261.863 71.4545 262.476 71.1392C263.09 70.8153 263.572 70.3807 263.921 69.8352C264.27 69.2898 264.445 68.6719 264.445 67.9815V65.8977C264.275 66.0085 264.04 66.1108 263.742 66.2045C263.452 66.2898 263.124 66.3707 262.758 66.4474C262.391 66.5156 262.025 66.5795 261.658 66.6392C261.292 66.6903 260.959 66.7372 260.661 66.7798C260.022 66.8736 259.464 67.0227 258.986 67.2273C258.509 67.4318 258.138 67.7088 257.874 68.0582C257.61 68.3991 257.478 68.8253 257.478 69.3366C257.478 70.0781 257.746 70.6449 258.283 71.0369C258.829 71.4205 259.519 71.6122 260.354 71.6122ZM286.304 63.0085V67.2912H276.051V63.0085H286.304ZM277.841 55.3636V75H272.638V55.3636H277.841ZM289.718 55.3636V75H284.553V55.3636H289.718ZM306.169 63.0085V67.2912H295.916V63.0085H306.169ZM297.706 55.3636V75H292.503V55.3636H297.706ZM309.582 55.3636V75H304.417V55.3636H309.582ZM315.781 61.3977H321.649C324.248 61.3977 326.276 62.0199 327.734 63.2642C329.191 64.5 329.92 66.1534 329.92 68.2244C329.92 69.571 329.592 70.7557 328.936 71.7784C328.279 72.7926 327.333 73.5852 326.097 74.1562C324.862 74.7188 323.379 75 321.649 75H312.367V55.3636H317.57V70.7173H321.649C322.561 70.7173 323.311 70.4872 323.899 70.027C324.487 69.5668 324.785 68.9787 324.793 68.2628C324.785 67.5043 324.487 66.8864 323.899 66.4091C323.311 65.9233 322.561 65.6804 321.649 65.6804H315.781V61.3977ZM332.029 75V55.3636H337.475V75H332.029ZM349.337 75.3835C347.317 75.3835 345.579 74.9744 344.121 74.1562C342.672 73.3295 341.556 72.1619 340.772 70.6534C339.988 69.1364 339.596 67.3423 339.596 65.2713C339.596 63.2514 339.988 61.4787 340.772 59.9531C341.556 58.4276 342.66 57.2386 344.083 56.3864C345.515 55.5341 347.194 55.108 349.12 55.108C350.415 55.108 351.621 55.3168 352.738 55.7344C353.863 56.1435 354.843 56.7614 355.678 57.5881C356.522 58.4148 357.178 59.4545 357.647 60.7074C358.116 61.9517 358.35 63.4091 358.35 65.0795V66.5753H341.769V63.2003H353.224C353.224 62.4162 353.053 61.7216 352.712 61.1165C352.371 60.5114 351.898 60.0384 351.293 59.6974C350.697 59.348 350.002 59.1733 349.209 59.1733C348.383 59.1733 347.65 59.3651 347.01 59.7486C346.38 60.1236 345.885 60.6307 345.527 61.2699C345.17 61.9006 344.986 62.6037 344.978 63.3793V66.5881C344.978 67.5597 345.157 68.3991 345.515 69.1065C345.881 69.8139 346.397 70.3594 347.062 70.7429C347.726 71.1264 348.515 71.3182 349.427 71.3182C350.032 71.3182 350.586 71.233 351.089 71.0625C351.591 70.892 352.022 70.6364 352.38 70.2955C352.738 69.9545 353.01 69.5369 353.198 69.0426L358.235 69.375C357.979 70.5852 357.455 71.642 356.662 72.5455C355.878 73.4403 354.864 74.1392 353.62 74.642C352.384 75.1364 350.956 75.3835 349.337 75.3835ZM372.559 67.8153L379.629 55.3636H384.998V75H379.808V62.5099L372.764 75H367.356V55.3636H372.559V67.8153ZM387.924 75V55.3636H405.093V75H399.89V59.6463H393.063V75H387.924ZM416.872 75.3835C414.886 75.3835 413.168 74.9616 411.72 74.1179C410.279 73.2656 409.167 72.081 408.383 70.5639C407.599 69.0384 407.207 67.2699 407.207 65.2585C407.207 63.2301 407.599 61.4574 408.383 59.9403C409.167 58.4148 410.279 57.2301 411.72 56.3864C413.168 55.5341 414.886 55.108 416.872 55.108C418.857 55.108 420.57 55.5341 422.011 56.3864C423.46 57.2301 424.576 58.4148 425.36 59.9403C426.144 61.4574 426.536 63.2301 426.536 65.2585C426.536 67.2699 426.144 69.0384 425.36 70.5639C424.576 72.081 423.46 73.2656 422.011 74.1179C420.57 74.9616 418.857 75.3835 416.872 75.3835ZM416.897 71.1648C417.801 71.1648 418.555 70.9091 419.16 70.3977C419.765 69.8778 420.221 69.1705 420.528 68.2756C420.843 67.3807 421.001 66.3622 421.001 65.2202C421.001 64.0781 420.843 63.0597 420.528 62.1648C420.221 61.2699 419.765 60.5625 419.16 60.0426C418.555 59.5227 417.801 59.2628 416.897 59.2628C415.985 59.2628 415.218 59.5227 414.596 60.0426C413.982 60.5625 413.518 61.2699 413.203 62.1648C412.896 63.0597 412.742 64.0781 412.742 65.2202C412.742 66.3622 412.896 67.3807 413.203 68.2756C413.518 69.1705 413.982 69.8778 414.596 70.3977C415.218 70.9091 415.985 71.1648 416.897 71.1648ZM426.736 59.6463V55.3636H444.531V59.6463H438.203V75H433.013V59.6463H426.736ZM454.639 75.3835C452.619 75.3835 450.88 74.9744 449.423 74.1562C447.974 73.3295 446.857 72.1619 446.073 70.6534C445.289 69.1364 444.897 67.3423 444.897 65.2713C444.897 63.2514 445.289 61.4787 446.073 59.9531C446.857 58.4276 447.961 57.2386 449.384 56.3864C450.816 55.5341 452.495 55.108 454.421 55.108C455.717 55.108 456.923 55.3168 458.039 55.7344C459.164 56.1435 460.144 56.7614 460.979 57.5881C461.823 58.4148 462.479 59.4545 462.948 60.7074C463.417 61.9517 463.651 63.4091 463.651 65.0795V66.5753H447.07V63.2003H458.525C458.525 62.4162 458.354 61.7216 458.014 61.1165C457.673 60.5114 457.2 60.0384 456.595 59.6974C455.998 59.348 455.303 59.1733 454.511 59.1733C453.684 59.1733 452.951 59.3651 452.312 59.7486C451.681 60.1236 451.187 60.6307 450.829 61.2699C450.471 61.9006 450.288 62.6037 450.279 63.3793V66.5881C450.279 67.5597 450.458 68.3991 450.816 69.1065C451.183 69.8139 451.698 70.3594 452.363 70.7429C453.028 71.1264 453.816 71.3182 454.728 71.3182C455.333 71.3182 455.887 71.233 456.39 71.0625C456.893 70.892 457.323 70.6364 457.681 70.2955C458.039 69.9545 458.312 69.5369 458.499 69.0426L463.536 69.375C463.281 70.5852 462.756 71.642 461.964 72.5455C461.18 73.4403 460.166 74.1392 458.921 74.642C457.685 75.1364 456.258 75.3835 454.639 75.3835ZM465.765 75V55.3636H471.211V62.983H472.745L478.089 55.3636H484.481L477.539 65.1051L484.558 75H478.089L473.244 68.0327H471.211V75H465.765ZM490.622 67.8153L497.692 55.3636H503.061V75H497.871V62.5099L490.827 75H485.419V55.3636H490.622V67.8153Z" fill="black"/>
<path opacity="0.4" d="M1040 423.999H39.9999V266.969L541.441 250.516L1040 180.5V423.999Z" fill="url(#paint0_linear_2567_2015)"/>
<rect x="1034" y="176" width="10.2717" height="10.2717" rx="5.13587" fill="#04B34A"/>
<rect x="36" y="262" width="10" height="10" rx="5" fill="white" stroke="#04B34A" stroke-width="4"/>
<path d="M1039.5 181L542 250.5L46.5 267" stroke="#04B34A" stroke-width="4"/>
<path d="M47.9176 236.455V251H45.7159V238.656H45.6307L42.1506 240.929V238.827L45.7798 236.455H47.9176ZM56.6936 251.241C55.5715 251.237 54.6127 250.941 53.8172 250.354C53.0218 249.767 52.4133 248.912 51.9919 247.79C51.5705 246.668 51.3598 245.316 51.3598 243.734C51.3598 242.158 51.5705 240.811 51.9919 239.693C52.4181 238.576 53.0289 237.723 53.8243 237.136C54.6245 236.549 55.5809 236.256 56.6936 236.256C57.8063 236.256 58.7604 236.552 59.5559 237.143C60.3513 237.731 60.9597 238.583 61.3811 239.7C61.8073 240.813 62.0203 242.158 62.0203 243.734C62.0203 245.321 61.8096 246.675 61.3882 247.797C60.9668 248.914 60.3584 249.769 59.563 250.361C58.7675 250.948 57.8111 251.241 56.6936 251.241ZM56.6936 249.345C57.6785 249.345 58.4479 248.865 59.0019 247.903C59.5606 246.942 59.8399 245.553 59.8399 243.734C59.8399 242.527 59.7121 241.507 59.4564 240.673C59.2055 239.835 58.8433 239.201 58.3698 238.77C57.901 238.334 57.3423 238.116 56.6936 238.116C55.7135 238.116 54.9441 238.599 54.3854 239.565C53.8267 240.531 53.545 241.921 53.5402 243.734C53.5402 244.946 53.6657 245.972 53.9167 246.81C54.1723 247.643 54.5345 248.275 55.0033 248.706C55.472 249.132 56.0355 249.345 56.6936 249.345ZM66.5812 249.011L66.4746 249.786C66.4036 250.354 66.2829 250.946 66.1124 251.561C65.9467 252.181 65.7739 252.757 65.594 253.287C65.4188 253.817 65.2744 254.239 65.1607 254.551H63.655C63.7166 254.258 63.8018 253.86 63.9107 253.358C64.0196 252.861 64.1262 252.304 64.2303 251.689C64.3345 251.073 64.4126 250.446 64.4647 249.807L64.5357 249.011H66.5812ZM73.99 236.256C74.6387 236.26 75.2779 236.379 75.9076 236.611C76.5374 236.843 77.1055 237.222 77.6122 237.747C78.1235 238.273 78.5307 238.983 78.8338 239.878C79.1415 240.768 79.2978 241.876 79.3025 243.202C79.3025 244.475 79.1747 245.609 78.919 246.604C78.6633 247.593 78.2964 248.429 77.8181 249.111C77.3446 249.793 76.7694 250.311 76.0923 250.666C75.4152 251.021 74.6529 251.199 73.8053 251.199C72.9389 251.199 72.1695 251.028 71.4971 250.688C70.8248 250.347 70.2779 249.875 69.8565 249.274C69.4351 248.668 69.1723 247.972 69.0681 247.186H71.2343C71.3764 247.811 71.6652 248.318 72.1008 248.706C72.5411 249.089 73.1093 249.281 73.8053 249.281C74.8707 249.281 75.7017 248.817 76.2982 247.889C76.8948 246.956 77.1955 245.654 77.2002 243.983H77.0866C76.8404 244.39 76.5326 244.741 76.1633 245.034C75.7987 245.328 75.3892 245.555 74.9346 245.716C74.4801 245.877 73.9947 245.957 73.4786 245.957C72.6406 245.957 71.8783 245.751 71.1917 245.339C70.5052 244.928 69.9583 244.362 69.5511 243.642C69.1439 242.922 68.9403 242.101 68.9403 241.178C68.9403 240.259 69.1486 239.426 69.5653 238.678C69.9867 237.929 70.5738 237.338 71.3267 236.902C72.0842 236.462 72.972 236.246 73.99 236.256ZM73.9971 238.102C73.4431 238.102 72.9436 238.24 72.4985 238.514C72.0582 238.784 71.7102 239.151 71.4545 239.615C71.1988 240.074 71.071 240.586 71.071 241.149C71.071 241.713 71.1941 242.224 71.4403 242.683C71.6912 243.138 72.0321 243.5 72.463 243.77C72.8986 244.035 73.3958 244.168 73.9545 244.168C74.3712 244.168 74.7594 244.087 75.1193 243.926C75.4791 243.765 75.794 243.543 76.0639 243.259C76.3338 242.97 76.5445 242.643 76.696 242.278C76.8475 241.914 76.9232 241.53 76.9232 241.128C76.9232 240.593 76.7954 240.096 76.5397 239.636C76.2888 239.177 75.9431 238.808 75.5028 238.528C75.0625 238.244 74.5606 238.102 73.9971 238.102Z" fill="#CFCFCF"/>
<path d="M531.205 214.455V229H529.003V216.656H528.918L525.438 218.929V216.827L529.067 214.455H531.205ZM540.435 214.455V229H538.233V216.656H538.148L534.668 218.929V216.827L538.297 214.455H540.435ZM546.099 227.011L545.992 227.786C545.921 228.354 545.8 228.946 545.63 229.561C545.464 230.181 545.291 230.757 545.111 231.287C544.936 231.817 544.792 232.239 544.678 232.551H543.172C543.234 232.258 543.319 231.86 543.428 231.358C543.537 230.861 543.644 230.304 543.748 229.689C543.852 229.073 543.93 228.446 543.982 227.807L544.053 227.011H546.099ZM548.847 229V227.409L553.768 222.31C554.294 221.756 554.727 221.27 555.068 220.854C555.414 220.432 555.672 220.032 555.842 219.653C556.013 219.275 556.098 218.872 556.098 218.446C556.098 217.963 555.984 217.546 555.757 217.196C555.53 216.841 555.22 216.569 554.827 216.379C554.434 216.185 553.991 216.088 553.499 216.088C552.978 216.088 552.523 216.195 552.135 216.408C551.747 216.621 551.448 216.921 551.24 217.31C551.032 217.698 550.928 218.152 550.928 218.673H548.832C548.832 217.788 549.036 217.014 549.443 216.351C549.85 215.688 550.409 215.174 551.119 214.81C551.83 214.44 552.637 214.256 553.541 214.256C554.455 214.256 555.26 214.438 555.956 214.803C556.657 215.162 557.204 215.655 557.597 216.28C557.99 216.9 558.186 217.601 558.186 218.382C558.186 218.922 558.084 219.45 557.881 219.966C557.682 220.482 557.334 221.057 556.837 221.692C556.339 222.321 555.648 223.086 554.763 223.986L551.872 227.011V227.118H558.42V229H548.847Z" fill="#CFCFCF"/>
<path d="M1008.66 151.455V166H1006.46V153.656H1006.38L1002.9 155.929V153.827L1006.53 151.455H1008.66ZM1012.07 163.159V161.384L1018.36 151.455H1019.75V154.068H1018.87L1014.37 161.185V161.298H1022.99V163.159H1012.07ZM1018.97 166V162.619L1018.98 161.81V151.455H1021.06V166H1018.97ZM1027.48 164.011L1027.38 164.786C1027.31 165.354 1027.18 165.946 1027.01 166.561C1026.85 167.181 1026.68 167.757 1026.5 168.287C1026.32 168.817 1026.18 169.239 1026.06 169.551H1024.56C1024.62 169.258 1024.7 168.86 1024.81 168.358C1024.92 167.861 1025.03 167.304 1025.13 166.689C1025.24 166.073 1025.31 165.446 1025.37 164.807L1025.44 164.011H1027.48ZM1034.8 166.199C1033.91 166.199 1033.11 166.028 1032.4 165.688C1031.69 165.342 1031.13 164.868 1030.71 164.267C1030.29 163.666 1030.06 162.979 1030.03 162.207H1032.16C1032.22 162.832 1032.49 163.346 1032.99 163.749C1033.5 164.151 1034.1 164.352 1034.8 164.352C1035.36 164.352 1035.85 164.224 1036.28 163.969C1036.72 163.708 1037.06 163.351 1037.31 162.896C1037.56 162.442 1037.68 161.923 1037.68 161.341C1037.68 160.749 1037.55 160.221 1037.3 159.757C1037.04 159.293 1036.69 158.929 1036.24 158.663C1035.79 158.398 1035.28 158.263 1034.71 158.259C1034.27 158.259 1033.82 158.334 1033.38 158.486C1032.93 158.637 1032.57 158.836 1032.3 159.082L1030.29 158.784L1031.1 151.455H1039.1V153.337H1032.93L1032.47 157.406H1032.55C1032.84 157.132 1033.21 156.902 1033.68 156.717C1034.16 156.533 1034.66 156.44 1035.2 156.44C1036.09 156.44 1036.88 156.651 1037.57 157.072C1038.26 157.494 1038.81 158.069 1039.21 158.798C1039.61 159.523 1039.81 160.356 1039.81 161.298C1039.81 162.241 1039.6 163.081 1039.17 163.82C1038.74 164.558 1038.15 165.141 1037.39 165.567C1036.64 165.988 1035.77 166.199 1034.8 166.199Z" fill="#CFCFCF"/>
<rect x="537" y="245" width="10" height="10" rx="5" fill="white" stroke="#04B34A" stroke-width="4"/>
<path opacity="0.6" d="M41.2912 407.909H43.6435V416.832H43.7649L49.9205 407.909H52.049V421H49.6776V412.083H49.5689L43.3942 421H41.2912V407.909ZM58.8044 407.909V421H56.433V407.909H58.8044ZM61.6361 413.694V415.599H57.5132V413.694H61.6361ZM72.9245 414.455C72.9245 415.865 72.6603 417.073 72.1319 418.079C71.6077 419.08 70.8918 419.847 69.9841 420.38C69.0807 420.913 68.0559 421.179 66.9096 421.179C65.7632 421.179 64.7363 420.913 63.8286 420.38C62.9252 419.843 62.2093 419.074 61.6809 418.072C61.1567 417.067 60.8946 415.861 60.8946 414.455C60.8946 413.044 61.1567 411.838 61.6809 410.837C62.2093 409.831 62.9252 409.062 63.8286 408.529C64.7363 407.996 65.7632 407.73 66.9096 407.73C68.0559 407.73 69.0807 407.996 69.9841 408.529C70.8918 409.062 71.6077 409.831 72.1319 410.837C72.6603 411.838 72.9245 413.044 72.9245 414.455ZM70.5402 414.455C70.5402 413.462 70.3847 412.624 70.0736 411.942C69.7668 411.256 69.3407 410.739 68.7952 410.389C68.2498 410.036 67.6212 409.859 66.9096 409.859C66.1979 409.859 65.5694 410.036 65.0239 410.389C64.4784 410.739 64.0502 411.256 63.7391 411.942C63.4323 412.624 63.2789 413.462 63.2789 414.455C63.2789 415.447 63.4323 416.287 63.7391 416.973C64.0502 417.655 64.4784 418.173 65.0239 418.526C65.5694 418.876 66.1979 419.05 66.9096 419.05C67.6212 419.05 68.2498 418.876 68.7952 418.526C69.3407 418.173 69.7668 417.655 70.0736 416.973C70.3847 416.287 70.5402 415.447 70.5402 414.455ZM76.1387 421V419.031L76.5094 419.012C77.0123 418.982 77.4107 418.801 77.7048 418.469C78.0031 418.136 78.2225 417.602 78.3631 416.864C78.508 416.127 78.6039 415.138 78.6508 413.898L78.8681 407.909H87.4462V421H85.1259V409.859H81.0798L80.8752 414.634C80.8156 416.065 80.6579 417.252 80.4022 418.194C80.1508 419.136 79.7374 419.839 79.1621 420.303C78.5911 420.768 77.7964 421 76.7779 421H76.1387ZM93.4362 412.965H96.7601C97.7615 412.965 98.6202 413.129 99.3361 413.457C100.056 413.781 100.608 414.239 100.992 414.832C101.375 415.424 101.567 416.121 101.567 416.922C101.567 417.727 101.375 418.437 100.992 419.05C100.608 419.66 100.056 420.137 99.3361 420.482C98.6202 420.827 97.7615 421 96.7601 421H91.8574V407.909H94.2352V419.057H96.7601C97.2885 419.057 97.7359 418.957 98.1024 418.756C98.4689 418.556 98.7459 418.292 98.9334 417.964C99.1251 417.636 99.221 417.28 99.221 416.896C99.221 416.342 99.008 415.871 98.5818 415.484C98.1599 415.092 97.5527 414.896 96.7601 414.896H93.4362V412.965Z" fill="black"/>
<path opacity="0.6" d="M502.174 421H499.643L504.252 407.909H507.179L511.794 421H509.263L505.767 410.594H505.665L502.174 421ZM502.258 415.867H509.161V417.772H502.258V415.867ZM515.319 421V407.909H520.33C521.276 407.909 522.062 408.058 522.689 408.357C523.319 408.651 523.79 409.053 524.101 409.565C524.417 410.076 524.574 410.656 524.574 411.303C524.574 411.836 524.472 412.292 524.268 412.671C524.063 413.046 523.788 413.351 523.443 413.585C523.098 413.82 522.712 413.988 522.286 414.09V414.218C522.751 414.244 523.196 414.386 523.622 414.646C524.052 414.902 524.404 415.264 524.677 415.733C524.949 416.202 525.086 416.768 525.086 417.433C525.086 418.111 524.922 418.72 524.594 419.261C524.265 419.798 523.771 420.222 523.111 420.533C522.45 420.844 521.619 421 520.618 421H515.319ZM517.69 419.018H520.241C521.101 419.018 521.721 418.854 522.101 418.526C522.484 418.194 522.676 417.768 522.676 417.248C522.676 416.86 522.58 416.511 522.388 416.2C522.197 415.884 521.924 415.637 521.57 415.458C521.216 415.275 520.795 415.183 520.305 415.183H517.69V419.018ZM517.69 413.477H520.036C520.445 413.477 520.814 413.402 521.142 413.253C521.47 413.099 521.728 412.884 521.915 412.607C522.107 412.326 522.203 411.994 522.203 411.61C522.203 411.103 522.024 410.685 521.666 410.357C521.312 410.029 520.786 409.865 520.087 409.865H517.69V413.477ZM537.367 407.909V409.897H531.32V421H528.949V407.909H537.367ZM542.342 421.179V419.185H543.09C543.427 419.185 543.704 419.136 543.921 419.038C544.139 418.94 544.313 418.799 544.445 418.616C544.582 418.433 544.695 418.219 544.784 417.977L544.957 417.536L540.278 407.909H542.758L546.018 414.915L548.837 407.909H551.278L546.766 418.584C546.557 419.044 546.316 419.472 546.043 419.869C545.771 420.261 545.415 420.578 544.976 420.821C544.541 421.06 543.974 421.179 543.276 421.179H542.342ZM565.235 412.326H562.844C562.776 411.934 562.65 411.587 562.467 411.284C562.284 410.977 562.056 410.717 561.783 410.504C561.51 410.291 561.199 410.131 560.85 410.025C560.504 409.914 560.132 409.859 559.731 409.859C559.019 409.859 558.389 410.038 557.839 410.396C557.289 410.749 556.859 411.269 556.548 411.955C556.237 412.637 556.081 413.47 556.081 414.455C556.081 415.456 556.237 416.3 556.548 416.986C556.863 417.668 557.293 418.183 557.839 418.533C558.389 418.878 559.017 419.05 559.725 419.05C560.117 419.05 560.483 418.999 560.824 418.897C561.169 418.79 561.478 418.635 561.751 418.43C562.028 418.226 562.26 417.974 562.448 417.676C562.639 417.378 562.771 417.037 562.844 416.653L565.235 416.666C565.145 417.288 564.951 417.872 564.653 418.418C564.359 418.963 563.973 419.445 563.496 419.862C563.019 420.276 562.46 420.599 561.821 420.834C561.182 421.064 560.472 421.179 559.693 421.179C558.542 421.179 557.515 420.913 556.612 420.38C555.708 419.847 554.997 419.078 554.477 418.072C553.957 417.067 553.697 415.861 553.697 414.455C553.697 413.044 553.959 411.838 554.483 410.837C555.007 409.831 555.721 409.062 556.624 408.529C557.528 407.996 558.551 407.73 559.693 407.73C560.421 407.73 561.099 407.832 561.725 408.037C562.352 408.241 562.91 408.542 563.4 408.938C563.89 409.33 564.293 409.812 564.608 410.383C564.928 410.95 565.137 411.597 565.235 412.326ZM568.631 409.897V407.909H579.076V409.897H575.029V421H572.677V409.897H568.631Z" fill="black"/>
<path opacity="0.6" d="M942.672 412.326H940.281C940.213 411.934 940.087 411.587 939.904 411.284C939.721 410.977 939.493 410.717 939.22 410.504C938.947 410.291 938.636 410.131 938.287 410.025C937.942 409.914 937.569 409.859 937.168 409.859C936.457 409.859 935.826 410.038 935.276 410.396C934.727 410.749 934.296 411.269 933.985 411.955C933.674 412.637 933.518 413.47 933.518 414.455C933.518 415.456 933.674 416.3 933.985 416.986C934.3 417.668 934.731 418.183 935.276 418.533C935.826 418.878 936.455 419.05 937.162 419.05C937.554 419.05 937.92 418.999 938.261 418.897C938.607 418.79 938.915 418.635 939.188 418.43C939.465 418.226 939.697 417.974 939.885 417.676C940.077 417.378 940.209 417.037 940.281 416.653L942.672 416.666C942.582 417.288 942.388 417.872 942.09 418.418C941.796 418.963 941.41 419.445 940.933 419.862C940.456 420.276 939.898 420.599 939.258 420.834C938.619 421.064 937.91 421.179 937.13 421.179C935.979 421.179 934.952 420.913 934.049 420.38C933.146 419.847 932.434 419.078 931.914 418.072C931.394 417.067 931.134 415.861 931.134 414.455C931.134 413.044 931.396 411.838 931.92 410.837C932.445 409.831 933.158 409.062 934.062 408.529C934.965 407.996 935.988 407.73 937.13 407.73C937.859 407.73 938.536 407.832 939.163 408.037C939.789 408.241 940.347 408.542 940.837 408.938C941.327 409.33 941.73 409.812 942.045 410.383C942.365 410.95 942.574 411.597 942.672 412.326ZM946.644 421V407.909H955.158V409.897H949.015V413.451H954.717V415.439H949.015V419.012H955.209V421H946.644ZM959.377 421V407.909H961.749V413.451H967.815V407.909H970.192V421H967.815V415.439H961.749V421H959.377ZM973.996 409.897V407.909H984.441V409.897H980.395V421H978.043V409.897H973.996ZM997.919 421H995.541V409.891H993.368C992.78 409.891 992.296 409.978 991.917 410.153C991.542 410.323 991.263 410.575 991.08 410.907C990.901 411.235 990.811 411.631 990.811 412.096C990.811 412.56 990.901 412.952 991.08 413.272C991.259 413.587 991.536 413.828 991.911 413.994C992.29 414.156 992.772 414.237 993.355 414.237H996.539V416.206H993.036C992.03 416.206 991.182 416.04 990.492 415.707C989.801 415.371 989.277 414.896 988.919 414.282C988.566 413.664 988.389 412.935 988.389 412.096C988.389 411.261 988.563 410.53 988.913 409.903C989.267 409.273 989.786 408.783 990.473 408.433C991.159 408.084 992.002 407.909 993.004 407.909H997.919V421ZM991.15 415.068H993.739L990.556 421H987.909L991.15 415.068ZM1002.29 421V407.909H1010.71V409.897H1004.66V412.965H1007.19C1008.19 412.965 1009.05 413.129 1009.76 413.457C1010.48 413.781 1011.03 414.239 1011.42 414.832C1011.8 415.424 1011.99 416.121 1011.99 416.922C1011.99 417.727 1011.8 418.437 1011.42 419.05C1011.03 419.66 1010.48 420.137 1009.76 420.482C1009.05 420.827 1008.19 421 1007.19 421H1002.29ZM1004.66 419.057H1007.19C1007.71 419.057 1008.16 418.957 1008.53 418.756C1008.89 418.556 1009.17 418.292 1009.36 417.964C1009.55 417.636 1009.65 417.28 1009.65 416.896C1009.65 416.342 1009.43 415.871 1009.01 415.484C1008.59 415.092 1007.98 414.896 1007.19 414.896H1004.66V419.057ZM1015.87 421V407.909H1020.78C1021.78 407.909 1022.62 408.097 1023.31 408.472C1023.99 408.847 1024.51 409.362 1024.86 410.018C1025.21 410.67 1025.39 411.412 1025.39 412.243C1025.39 413.082 1025.21 413.828 1024.86 414.48C1024.51 415.132 1023.98 415.646 1023.29 416.021C1022.6 416.391 1021.75 416.577 1020.74 416.577H1017.49V414.627H1020.42C1021.01 414.627 1021.49 414.525 1021.87 414.32C1022.24 414.116 1022.52 413.835 1022.7 413.477C1022.88 413.119 1022.97 412.707 1022.97 412.243C1022.97 411.778 1022.88 411.369 1022.7 411.016C1022.52 410.662 1022.24 410.387 1021.86 410.191C1021.49 409.991 1021 409.891 1020.41 409.891H1018.24V421H1015.87ZM1030.85 412.965H1034.18C1035.18 412.965 1036.04 413.129 1036.75 413.457C1037.47 413.781 1038.03 414.239 1038.41 414.832C1038.79 415.424 1038.99 416.121 1038.99 416.922C1038.99 417.727 1038.79 418.437 1038.41 419.05C1038.03 419.66 1037.47 420.137 1036.75 420.482C1036.04 420.827 1035.18 421 1034.18 421H1029.28V407.909H1031.65V419.057H1034.18C1034.71 419.057 1035.15 418.957 1035.52 418.756C1035.89 418.556 1036.16 418.292 1036.35 417.964C1036.54 417.636 1036.64 417.28 1036.64 416.896C1036.64 416.342 1036.43 415.871 1036 415.484C1035.58 415.092 1034.97 414.896 1034.18 414.896H1030.85V412.965Z" fill="black"/>
<defs>
<linearGradient id="paint0_linear_2567_2015" x1="540" y1="-122.794" x2="540" y2="439" gradientUnits="userSpaceOnUse">
<stop stop-color="#04B34A"/>
<stop offset="0.0666667" stop-color="#04B34A" stop-opacity="0.991353"/>
<stop offset="0.133333" stop-color="#04B34A" stop-opacity="0.96449"/>
<stop offset="0.2" stop-color="#04B34A" stop-opacity="0.91834"/>
<stop offset="0.266667" stop-color="#04B34A" stop-opacity="0.852589"/>
<stop offset="0.333333" stop-color="#04B34A" stop-opacity="0.768225"/>
<stop offset="0.4" stop-color="#04B34A" stop-opacity="0.668116"/>
<stop offset="0.466667" stop-color="#04B34A" stop-opacity="0.557309"/>
<stop offset="0.533333" stop-color="#04B34A" stop-opacity="0.442691"/>
<stop offset="0.6" stop-color="#04B34A" stop-opacity="0.331884"/>
<stop offset="0.666667" stop-color="#04B34A" stop-opacity="0.231775"/>
<stop offset="0.733333" stop-color="#04B34A" stop-opacity="0.147411"/>
<stop offset="0.8" stop-color="#04B34A" stop-opacity="0.0816599"/>
<stop offset="0.866667" stop-color="#04B34A" stop-opacity="0.03551"/>
<stop offset="0.933333" stop-color="#04B34A" stop-opacity="0.01"/>
<stop offset="1" stop-color="#04B34A" stop-opacity="0"/>
</linearGradient>
</defs>
</svg>
