<svg width="1080" height="1085" viewBox="0 0 1080 1085" fill="none" xmlns="http://www.w3.org/2000/svg">
<rect width="1080" height="1085" fill="white"/>
<path d="M915.587 49L912.911 64.8629H915.891L914.181 75H908.668L909.483 70.1698H895.329L894.514 75H889L890.71 64.8629H892.824C893.79 63.5513 894.707 61.8209 895.74 58.1838L898.364 49H915.59H915.587ZM908.584 54.3069H902.535L901.369 58.3918C900.354 61.9393 899.515 63.5484 898.667 64.8629H906.805L908.584 54.3069Z" fill="#EAECEF"/>
<path d="M920.448 49H933.56C938.18 49 940.257 51.3544 939.681 54.7547C939.314 56.93 937.677 58.3311 936.141 58.958C937.818 59.6138 939.146 61.2836 938.663 64.1464C938.05 67.7836 935.085 70.1698 930.167 70.1698H916.875L920.448 49ZM924.295 61.7024L923.67 65.4002H929.69C931.298 65.4002 932.293 64.8051 932.504 63.5513C932.721 62.2687 931.923 61.7024 930.312 61.7024H924.292H924.295ZM925.631 53.7724L925.099 56.9329H931.029C932.282 56.9329 933.161 56.4851 933.352 55.3527C933.543 54.2202 932.814 53.7724 931.561 53.7724H925.631Z" fill="#EAECEF"/>
<path d="M943.47 49H949.579L947.427 61.7602L958.906 49H965.015L961.445 70.1698H955.336L957.479 57.4673L946.01 70.1698H939.9L943.47 49Z" fill="#EAECEF"/>
<path d="M974.098 59.1978L966.907 49H973.821L979.812 57.6464L981.272 49H987.084L985.626 57.6464L994.536 49H1001.3L990.954 58.9291L998.177 70.1698H990.815L985.039 61.1362L983.514 70.1698H977.703L979.227 61.1362L970.402 70.1698H963.309L974.101 59.1978H974.098Z" fill="#EAECEF"/>
<path d="M1010.23 49H1003.13L1010.19 58.9291L999.713 70.1698H1006.81L1017.29 58.9291L1010.23 49ZM1021.44 49H1014.34L1021.41 58.9291L1010.93 70.1698H1018.02L1028.5 58.9291L1021.44 49ZM1032.94 49H1025.85L1032.91 58.9291L1022.43 70.1698H1029.52L1040 58.9291L1032.94 49Z" fill="#EAECEF"/>
<path d="M41.2784 53.3821V48.8182H62.7812V53.3821H54.7656V75H49.294V53.3821H41.2784ZM67.9442 67.8153L75.0138 55.3636H80.3832V75H75.1928V62.5099L68.1488 75H62.7411V55.3636H67.9442V67.8153ZM83.3089 75V55.3636H100.478V75H95.2748V59.6463H88.4481V75H83.3089ZM115.48 67.8153L122.549 55.3636H127.919V75H122.728V62.5099L115.684 75H110.277V55.3636H115.48V67.8153ZM130.844 75V55.3636H148.013V75H142.81V59.6463H135.984V75H130.844ZM159.792 75.3835C157.806 75.3835 156.089 74.9616 154.64 74.1179C153.2 73.2656 152.088 72.081 151.304 70.5639C150.519 69.0384 150.127 67.2699 150.127 65.2585C150.127 63.2301 150.519 61.4574 151.304 59.9403C152.088 58.4148 153.2 57.2301 154.64 56.3864C156.089 55.5341 157.806 55.108 159.792 55.108C161.778 55.108 163.491 55.5341 164.931 56.3864C166.38 57.2301 167.497 58.4148 168.281 59.9403C169.065 61.4574 169.457 63.2301 169.457 65.2585C169.457 67.2699 169.065 69.0384 168.281 70.5639C167.497 72.081 166.38 73.2656 164.931 74.1179C163.491 74.9616 161.778 75.3835 159.792 75.3835ZM159.818 71.1648C160.721 71.1648 161.475 70.9091 162.081 70.3977C162.686 69.8778 163.142 69.1705 163.448 68.2756C163.764 67.3807 163.921 66.3622 163.921 65.2202C163.921 64.0781 163.764 63.0597 163.448 62.1648C163.142 61.2699 162.686 60.5625 162.081 60.0426C161.475 59.5227 160.721 59.2628 159.818 59.2628C158.906 59.2628 158.139 59.5227 157.517 60.0426C156.903 60.5625 156.438 61.2699 156.123 62.1648C155.816 63.0597 155.663 64.0781 155.663 65.2202C155.663 66.3622 155.816 67.3807 156.123 68.2756C156.438 69.1705 156.903 69.8778 157.517 70.3977C158.139 70.9091 158.906 71.1648 159.818 71.1648ZM169.657 59.6463V55.3636H187.452V59.6463H181.124V75H175.933V59.6463H169.657ZM197.559 75.3835C195.539 75.3835 193.801 74.9744 192.343 74.1562C190.894 73.3295 189.778 72.1619 188.994 70.6534C188.21 69.1364 187.818 67.3423 187.818 65.2713C187.818 63.2514 188.21 61.4787 188.994 59.9531C189.778 58.4276 190.882 57.2386 192.305 56.3864C193.737 55.5341 195.416 55.108 197.342 55.108C198.637 55.108 199.843 55.3168 200.96 55.7344C202.085 56.1435 203.065 56.7614 203.9 57.5881C204.744 58.4148 205.4 59.4545 205.869 60.7074C206.338 61.9517 206.572 63.4091 206.572 65.0795V66.5753H189.991V63.2003H201.446C201.446 62.4162 201.275 61.7216 200.934 61.1165C200.593 60.5114 200.12 60.0384 199.515 59.6974C198.919 59.348 198.224 59.1733 197.431 59.1733C196.605 59.1733 195.872 59.3651 195.232 59.7486C194.602 60.1236 194.107 60.6307 193.75 61.2699C193.392 61.9006 193.208 62.6037 193.2 63.3793V66.5881C193.2 67.5597 193.379 68.3991 193.737 69.1065C194.103 69.8139 194.619 70.3594 195.284 70.7429C195.948 71.1264 196.737 71.3182 197.649 71.3182C198.254 71.3182 198.808 71.233 199.311 71.0625C199.813 70.892 200.244 70.6364 200.602 70.2955C200.96 69.9545 201.232 69.5369 201.42 69.0426L206.457 69.375C206.201 70.5852 205.677 71.642 204.884 72.5455C204.1 73.4403 203.086 74.1392 201.842 74.642C200.606 75.1364 199.179 75.3835 197.559 75.3835ZM208.686 75V55.3636H214.132V62.983H215.666L221.01 55.3636H227.402L220.46 65.1051L227.479 75H221.01L216.165 68.0327H214.132V75H208.686ZM233.543 67.8153L240.612 55.3636H245.982V75H240.791V62.5099L233.747 75H228.34V55.3636H233.543V67.8153Z" fill="black"/>
<rect x="40" y="124" width="491" height="295" rx="20" fill="#F7F7F7"/>
<path opacity="0.6" d="M67.4964 147.326H65.1058C65.0376 146.934 64.9119 146.587 64.7287 146.284C64.5455 145.977 64.3175 145.717 64.0447 145.504C63.772 145.291 63.4609 145.131 63.1115 145.025C62.7663 144.914 62.3935 144.859 61.9929 144.859C61.2813 144.859 60.6506 145.038 60.1009 145.396C59.5511 145.749 59.1207 146.269 58.8097 146.955C58.4986 147.637 58.343 148.47 58.343 149.455C58.343 150.456 58.4986 151.3 58.8097 151.986C59.125 152.668 59.5554 153.183 60.1009 153.533C60.6506 153.878 61.2791 154.05 61.9865 154.05C62.3786 154.05 62.745 153.999 63.0859 153.897C63.4311 153.79 63.7401 153.635 64.0128 153.43C64.2898 153.226 64.522 152.974 64.7095 152.676C64.9013 152.378 65.0334 152.037 65.1058 151.653L67.4964 151.666C67.407 152.288 67.2131 152.872 66.9148 153.418C66.6207 153.963 66.2351 154.445 65.7578 154.862C65.2805 155.276 64.7223 155.599 64.0831 155.834C63.4439 156.064 62.7344 156.179 61.9545 156.179C60.804 156.179 59.777 155.913 58.8736 155.38C57.9702 154.847 57.2585 154.078 56.7386 153.072C56.2188 152.067 55.9588 150.861 55.9588 149.455C55.9588 148.044 56.2209 146.838 56.745 145.837C57.2692 144.831 57.983 144.062 58.8864 143.529C59.7898 142.996 60.8125 142.73 61.9545 142.73C62.6832 142.73 63.3608 142.832 63.9872 143.037C64.6136 143.241 65.1719 143.542 65.6619 143.938C66.152 144.33 66.5547 144.812 66.87 145.383C67.1896 145.95 67.3984 146.597 67.4964 147.326ZM70.8929 144.897V142.909H81.3375V144.897H77.2913V156H74.939V144.897H70.8929ZM85.25 156H82.7188L87.3275 142.909H90.255L94.8701 156H92.3388L88.8424 145.594H88.7401L85.25 156ZM85.3331 150.867H92.2365V152.772H85.3331V150.867ZM98.3943 156V142.909H100.766V148.451H106.832V142.909H109.21V156H106.832V150.439H100.766V156H98.3943ZM112.739 159.158V154.063H113.614C113.908 153.829 114.183 153.499 114.439 153.072C114.695 152.646 114.912 152.062 115.091 151.321C115.27 150.58 115.394 149.621 115.462 148.445L115.807 142.909H124.174V154.063H125.631V159.145H123.356V156H115.014V159.158H112.739ZM116.376 154.063H121.899V144.897H117.942L117.737 148.445C117.682 149.335 117.592 150.132 117.469 150.835C117.345 151.538 117.19 152.158 117.002 152.695C116.815 153.228 116.606 153.684 116.376 154.063ZM131.045 156H128.513L133.122 142.909H136.05L140.665 156H138.133L134.637 145.594H134.535L131.045 156ZM131.128 150.867H138.031V152.772H131.128V150.867ZM144.189 156V142.909H149.098C150.104 142.909 150.947 143.097 151.629 143.472C152.315 143.847 152.833 144.362 153.182 145.018C153.536 145.67 153.713 146.412 153.713 147.243C153.713 148.082 153.536 148.828 153.182 149.48C152.829 150.132 152.307 150.646 151.616 151.021C150.926 151.391 150.076 151.577 149.066 151.577H145.812V149.627H148.746C149.334 149.627 149.816 149.525 150.191 149.32C150.566 149.116 150.843 148.835 151.022 148.477C151.205 148.119 151.297 147.707 151.297 147.243C151.297 146.778 151.205 146.369 151.022 146.016C150.843 145.662 150.564 145.387 150.185 145.191C149.81 144.991 149.326 144.891 148.734 144.891H146.56V156H144.189ZM156.998 144.897V142.909H167.442V144.897H163.396V156H161.044V144.897H156.998ZM171.256 156V142.909H173.627V148.451H179.693V142.909H182.071V156H179.693V150.439H173.627V156H171.256ZM188.131 156H185.6L190.209 142.909H193.136L197.751 156H195.22L191.724 145.594H191.621L188.131 156ZM188.214 150.867H195.118V152.772H188.214V150.867ZM210.94 156H208.562V144.891H206.389C205.801 144.891 205.317 144.978 204.938 145.153C204.563 145.323 204.284 145.575 204.101 145.907C203.922 146.235 203.832 146.631 203.832 147.096C203.832 147.56 203.922 147.952 204.101 148.272C204.28 148.587 204.557 148.828 204.932 148.994C205.311 149.156 205.793 149.237 206.376 149.237H209.56V151.206H206.057C205.051 151.206 204.203 151.04 203.513 150.707C202.822 150.371 202.298 149.896 201.94 149.282C201.587 148.664 201.41 147.935 201.41 147.096C201.41 146.261 201.585 145.53 201.934 144.903C202.288 144.273 202.808 143.783 203.494 143.433C204.18 143.084 205.023 142.909 206.025 142.909H210.94V156ZM204.171 150.068H206.76L203.577 156H200.93L204.171 150.068Z" fill="black"/>
<path opacity="0.4" d="M55 372.5H510.991V299C513.697 299 392.5 293 392.5 293L55 243V372.5Z" fill="url(#paint0_linear_2567_1432)"/>
<rect x="506.188" y="293" width="10.2717" height="10.2717" rx="5.13587" fill="#CACACA"/>
<path d="M509.5 299L391.5 292L55 242.5" stroke="#CACACA" stroke-width="4"/>
<path d="M336.074 357.445V381.803L326.989 372.684L323 376.638L338.955 392.559L354.875 376.638L350.955 372.684L341.835 381.803V357.445H336.074Z" fill="#CACACA"/>
<path d="M380.405 392.477C377.859 392.477 375.592 392.04 373.604 391.165C371.626 390.278 370.064 389.062 368.916 387.517C367.78 385.96 367.195 384.165 367.161 382.131H374.592C374.638 382.983 374.916 383.733 375.428 384.381C375.95 385.017 376.643 385.511 377.507 385.864C378.371 386.216 379.342 386.392 380.422 386.392C381.547 386.392 382.541 386.193 383.405 385.795C384.268 385.398 384.945 384.847 385.433 384.142C385.922 383.437 386.166 382.625 386.166 381.705C386.166 380.773 385.905 379.949 385.382 379.233C384.871 378.506 384.132 377.937 383.166 377.528C382.212 377.119 381.075 376.915 379.757 376.915H376.501V371.494H379.757C380.871 371.494 381.854 371.301 382.706 370.915C383.57 370.528 384.24 369.994 384.717 369.312C385.195 368.619 385.433 367.812 385.433 366.892C385.433 366.017 385.223 365.25 384.803 364.591C384.393 363.92 383.814 363.398 383.064 363.023C382.325 362.648 381.462 362.46 380.473 362.46C379.473 362.46 378.558 362.642 377.729 363.006C376.899 363.358 376.234 363.864 375.734 364.523C375.234 365.182 374.967 365.955 374.933 366.841H367.859C367.893 364.83 368.467 363.057 369.581 361.523C370.695 359.989 372.195 358.79 374.081 357.926C375.979 357.051 378.121 356.614 380.507 356.614C382.916 356.614 385.024 357.051 386.831 357.926C388.638 358.801 390.041 359.983 391.041 361.472C392.053 362.949 392.553 364.608 392.541 366.449C392.553 368.403 391.945 370.034 390.717 371.341C389.501 372.648 387.916 373.477 385.962 373.83V374.102C388.53 374.432 390.484 375.324 391.825 376.778C393.178 378.222 393.848 380.028 393.837 382.199C393.848 384.188 393.274 385.955 392.115 387.5C390.967 389.045 389.382 390.261 387.359 391.148C385.337 392.034 383.018 392.477 380.405 392.477ZM412.048 392.477C410.252 392.466 408.519 392.165 406.849 391.574C405.19 390.983 403.701 390.023 402.383 388.693C401.065 387.364 400.019 385.602 399.246 383.409C398.485 381.216 398.104 378.523 398.104 375.33C398.116 372.398 398.451 369.778 399.11 367.472C399.781 365.153 400.735 363.187 401.974 361.574C403.224 359.96 404.718 358.733 406.457 357.892C408.195 357.04 410.144 356.614 412.303 356.614C414.633 356.614 416.69 357.068 418.474 357.977C420.258 358.875 421.69 360.097 422.769 361.642C423.86 363.188 424.519 364.92 424.746 366.841H417.468C417.184 365.625 416.587 364.67 415.678 363.977C414.769 363.284 413.644 362.938 412.303 362.938C410.031 362.938 408.303 363.926 407.121 365.903C405.951 367.881 405.354 370.568 405.332 373.966H405.57C406.093 372.932 406.798 372.051 407.684 371.324C408.582 370.585 409.599 370.023 410.735 369.636C411.883 369.239 413.093 369.04 414.366 369.04C416.434 369.04 418.275 369.528 419.888 370.506C421.502 371.472 422.775 372.801 423.707 374.494C424.638 376.187 425.104 378.125 425.104 380.307C425.104 382.67 424.553 384.773 423.451 386.614C422.36 388.455 420.832 389.898 418.866 390.943C416.911 391.977 414.638 392.489 412.048 392.477ZM412.013 386.682C413.15 386.682 414.167 386.409 415.065 385.864C415.962 385.318 416.667 384.58 417.178 383.648C417.69 382.716 417.945 381.67 417.945 380.511C417.945 379.352 417.69 378.312 417.178 377.392C416.678 376.472 415.985 375.739 415.099 375.193C414.212 374.648 413.201 374.375 412.065 374.375C411.212 374.375 410.423 374.534 409.695 374.852C408.979 375.17 408.349 375.614 407.803 376.182C407.269 376.75 406.849 377.409 406.542 378.159C406.235 378.898 406.082 379.687 406.082 380.528C406.082 381.653 406.337 382.682 406.849 383.614C407.371 384.545 408.076 385.29 408.962 385.847C409.86 386.403 410.877 386.682 412.013 386.682ZM436.352 387.227L436.165 389.102C436.017 390.602 435.733 392.097 435.312 393.585C434.903 395.085 434.472 396.443 434.017 397.659C433.574 398.875 433.216 399.83 432.943 400.523H428.239C428.409 399.852 428.642 398.915 428.938 397.71C429.233 396.517 429.511 395.176 429.773 393.688C430.034 392.199 430.199 390.682 430.267 389.136L430.352 387.227H436.352ZM454.21 392.477C451.664 392.477 449.397 392.04 447.408 391.165C445.431 390.278 443.869 389.062 442.721 387.517C441.585 385.96 440.999 384.165 440.965 382.131H448.397C448.442 382.983 448.721 383.733 449.232 384.381C449.755 385.017 450.448 385.511 451.312 385.864C452.175 386.216 453.147 386.392 454.227 386.392C455.352 386.392 456.346 386.193 457.21 385.795C458.073 385.398 458.749 384.847 459.238 384.142C459.727 383.437 459.971 382.625 459.971 381.705C459.971 380.773 459.71 379.949 459.187 379.233C458.675 378.506 457.937 377.937 456.971 377.528C456.016 377.119 454.88 376.915 453.562 376.915H450.306V371.494H453.562C454.675 371.494 455.658 371.301 456.511 370.915C457.374 370.528 458.045 369.994 458.522 369.312C458.999 368.619 459.238 367.812 459.238 366.892C459.238 366.017 459.028 365.25 458.607 364.591C458.198 363.92 457.619 363.398 456.869 363.023C456.13 362.648 455.266 362.46 454.278 362.46C453.278 362.46 452.363 362.642 451.533 363.006C450.704 363.358 450.039 363.864 449.539 364.523C449.039 365.182 448.772 365.955 448.738 366.841H441.664C441.698 364.83 442.272 363.057 443.386 361.523C444.499 359.989 445.999 358.79 447.886 357.926C449.783 357.051 451.925 356.614 454.312 356.614C456.721 356.614 458.829 357.051 460.636 357.926C462.442 358.801 463.846 359.983 464.846 361.472C465.857 362.949 466.357 364.608 466.346 366.449C466.357 368.403 465.749 370.034 464.522 371.341C463.306 372.648 461.721 373.477 459.766 373.83V374.102C462.335 374.432 464.289 375.324 465.63 376.778C466.982 378.222 467.653 380.028 467.641 382.199C467.653 384.188 467.079 385.955 465.92 387.5C464.772 389.045 463.187 390.261 461.164 391.148C459.141 392.034 456.823 392.477 454.21 392.477ZM491.562 385.455V383.614C491.562 382.216 491.858 380.932 492.449 379.761C493.051 378.58 493.92 377.636 495.057 376.932C496.205 376.216 497.602 375.858 499.25 375.858C500.92 375.858 502.324 376.21 503.46 376.915C504.608 377.619 505.472 378.562 506.051 379.744C506.642 380.915 506.938 382.205 506.938 383.614V385.455C506.938 386.852 506.642 388.142 506.051 389.324C505.46 390.494 504.591 391.432 503.443 392.136C502.295 392.852 500.898 393.21 499.25 393.21C497.58 393.21 496.176 392.852 495.04 392.136C493.903 391.432 493.04 390.494 492.449 389.324C491.858 388.142 491.562 386.852 491.562 385.455ZM496.523 383.614V385.455C496.523 386.261 496.716 387.023 497.102 387.739C497.5 388.455 498.216 388.812 499.25 388.812C500.284 388.812 500.989 388.46 501.364 387.756C501.75 387.051 501.943 386.284 501.943 385.455V383.614C501.943 382.784 501.761 382.011 501.398 381.295C501.034 380.58 500.318 380.222 499.25 380.222C498.227 380.222 497.517 380.58 497.119 381.295C496.722 382.011 496.523 382.784 496.523 383.614ZM473.648 365.477V363.636C473.648 362.227 473.949 360.937 474.551 359.767C475.153 358.585 476.023 357.642 477.159 356.938C478.307 356.233 479.693 355.881 481.318 355.881C483 355.881 484.409 356.233 485.545 356.938C486.682 357.642 487.545 358.585 488.136 359.767C488.727 360.937 489.023 362.227 489.023 363.636V365.477C489.023 366.886 488.722 368.176 488.119 369.347C487.528 370.517 486.659 371.455 485.511 372.159C484.375 372.852 482.977 373.199 481.318 373.199C479.659 373.199 478.256 372.847 477.108 372.142C475.972 371.426 475.108 370.489 474.517 369.33C473.938 368.159 473.648 366.875 473.648 365.477ZM478.642 363.636V365.477C478.642 366.307 478.835 367.074 479.222 367.778C479.619 368.483 480.318 368.835 481.318 368.835C482.364 368.835 483.074 368.483 483.449 367.778C483.835 367.074 484.028 366.307 484.028 365.477V363.636C484.028 362.807 483.847 362.034 483.483 361.318C483.119 360.602 482.398 360.244 481.318 360.244C480.307 360.244 479.608 360.608 479.222 361.335C478.835 362.062 478.642 362.83 478.642 363.636ZM475.898 392L499.898 357.091H504.364L480.364 392H475.898Z" fill="black"/>
<path d="M61.8203 229.219C60.8411 229.219 59.9609 229.031 59.1797 228.656C58.4036 228.276 57.7839 227.755 57.3203 227.094C56.8568 226.432 56.6094 225.677 56.5781 224.828H58.9219C58.9792 225.516 59.2839 226.081 59.8359 226.523C60.388 226.966 61.0495 227.187 61.8203 227.187C62.4349 227.187 62.9792 227.047 63.4531 226.766C63.9323 226.479 64.3073 226.086 64.5781 225.586C64.8542 225.086 64.9922 224.516 64.9922 223.875C64.9922 223.224 64.8516 222.643 64.5703 222.133C64.2891 221.622 63.901 221.221 63.4063 220.93C62.9167 220.638 62.3542 220.49 61.7188 220.484C61.2344 220.484 60.7474 220.568 60.2578 220.734C59.7682 220.901 59.3724 221.12 59.0703 221.391L56.8594 221.062L57.7578 213H66.5547V215.07H59.7656L59.2578 219.547H59.3516C59.6641 219.245 60.0781 218.992 60.5938 218.789C61.1146 218.586 61.6719 218.484 62.2656 218.484C63.2396 218.484 64.1068 218.716 64.8672 219.18C65.6328 219.643 66.2344 220.276 66.6719 221.078C67.1146 221.875 67.3333 222.792 67.3281 223.828C67.3333 224.865 67.099 225.789 66.625 226.602C66.1563 227.414 65.5052 228.055 64.6719 228.523C63.8438 228.987 62.8932 229.219 61.8203 229.219ZM75.3653 229.219C74.2455 229.219 73.256 229.026 72.3966 228.641C71.5424 228.255 70.8731 227.724 70.3888 227.047C69.9044 226.37 69.6648 225.599 69.67 224.734C69.6648 224.057 69.8028 223.435 70.0841 222.867C70.3705 222.294 70.7586 221.818 71.2481 221.438C71.7377 221.052 72.2846 220.807 72.8888 220.703V220.609C72.0919 220.417 71.4539 219.99 70.9747 219.328C70.4955 218.667 70.2586 217.906 70.2638 217.047C70.2586 216.229 70.4747 215.5 70.9122 214.859C71.3549 214.214 71.9617 213.706 72.7325 213.336C73.5034 212.966 74.381 212.781 75.3653 212.781C76.3393 212.781 77.2091 212.969 77.9747 213.344C78.7455 213.714 79.3523 214.221 79.795 214.867C80.2377 215.508 80.4617 216.234 80.4669 217.047C80.4617 217.906 80.2169 218.667 79.7325 219.328C79.2481 219.99 78.6179 220.417 77.8419 220.609V220.703C78.4409 220.807 78.9799 221.052 79.4591 221.438C79.9435 221.818 80.3289 222.294 80.6153 222.867C80.907 223.435 81.0554 224.057 81.0606 224.734C81.0554 225.599 80.8106 226.37 80.3263 227.047C79.8419 227.724 79.17 228.255 78.3106 228.641C77.4565 229.026 76.4747 229.219 75.3653 229.219ZM75.3653 227.242C76.0268 227.242 76.5997 227.133 77.0841 226.914C77.5685 226.69 77.9435 226.38 78.2091 225.984C78.4747 225.583 78.6101 225.115 78.6153 224.578C78.6101 224.021 78.4643 223.529 78.1778 223.102C77.8966 222.674 77.5138 222.339 77.0294 222.094C76.545 221.849 75.9903 221.727 75.3653 221.727C74.7351 221.727 74.1752 221.849 73.6856 222.094C73.1961 222.339 72.8106 222.674 72.5294 223.102C72.2481 223.529 72.1101 224.021 72.1153 224.578C72.1101 225.115 72.2377 225.583 72.4981 225.984C72.7638 226.38 73.1414 226.69 73.631 226.914C74.1205 227.133 74.6987 227.242 75.3653 227.242ZM75.3653 219.797C75.8966 219.797 76.3679 219.69 76.7794 219.477C77.1909 219.263 77.5138 218.966 77.7481 218.586C77.9877 218.206 78.1101 217.76 78.1153 217.25C78.1101 216.75 77.9903 216.313 77.756 215.938C77.5268 215.562 77.2065 215.273 76.795 215.07C76.3836 214.862 75.907 214.758 75.3653 214.758C74.8133 214.758 74.3289 214.862 73.9122 215.07C73.5008 215.273 73.1804 215.562 72.9513 215.938C72.7221 216.313 72.6101 216.75 72.6153 217.25C72.6101 217.76 72.7247 218.206 72.9591 218.586C73.1935 218.966 73.5164 219.263 73.9278 219.477C74.3445 219.69 74.8237 219.797 75.3653 219.797ZM86.2346 226.812L86.1174 227.664C86.0393 228.289 85.9065 228.94 85.719 229.617C85.5367 230.299 85.3466 230.932 85.1486 231.516C84.9559 232.099 84.7971 232.563 84.6721 232.906H83.0158C83.0835 232.583 83.1773 232.146 83.2971 231.594C83.4169 231.047 83.5341 230.435 83.6486 229.758C83.7632 229.081 83.8492 228.391 83.9065 227.687L83.9846 226.812H86.2346ZM94.2698 229.219C93.1969 229.219 92.2386 229.034 91.3948 228.664C90.5563 228.294 89.8922 227.781 89.4026 227.125C88.9183 226.464 88.6579 225.698 88.6214 224.828H91.0745C91.1058 225.302 91.2646 225.714 91.5511 226.062C91.8428 226.406 92.223 226.672 92.6917 226.859C93.1605 227.047 93.6813 227.141 94.2542 227.141C94.8844 227.141 95.4417 227.031 95.9261 226.812C96.4157 226.594 96.7985 226.289 97.0745 225.898C97.3506 225.503 97.4886 225.047 97.4886 224.531C97.4886 223.995 97.3506 223.523 97.0745 223.117C96.8037 222.706 96.4053 222.383 95.8792 222.148C95.3584 221.914 94.7282 221.797 93.9886 221.797H92.637V219.828H93.9886C94.5823 219.828 95.1032 219.721 95.5511 219.508C96.0042 219.294 96.3584 218.997 96.6136 218.617C96.8688 218.232 96.9964 217.781 96.9964 217.266C96.9964 216.771 96.8844 216.341 96.6605 215.977C96.4417 215.607 96.1292 215.318 95.723 215.109C95.3219 214.901 94.848 214.797 94.3011 214.797C93.7803 214.797 93.2933 214.893 92.8401 215.086C92.3922 215.273 92.0276 215.544 91.7464 215.898C91.4651 216.247 91.3141 216.667 91.2933 217.156H88.9573C88.9834 216.292 89.2386 215.531 89.723 214.875C90.2125 214.219 90.8584 213.706 91.6605 213.336C92.4625 212.966 93.3532 212.781 94.3323 212.781C95.3584 212.781 96.2438 212.982 96.9886 213.383C97.7386 213.779 98.3167 214.307 98.723 214.969C99.1344 215.63 99.3375 216.354 99.3323 217.141C99.3375 218.036 99.0875 218.797 98.5823 219.422C98.0823 220.047 97.4157 220.466 96.5823 220.68V220.805C97.6448 220.966 98.4678 221.388 99.0511 222.07C99.6396 222.753 99.9313 223.599 99.9261 224.609C99.9313 225.49 99.6865 226.279 99.1917 226.977C98.7021 227.674 98.0329 228.224 97.1839 228.625C96.3349 229.021 95.3636 229.219 94.2698 229.219Z" fill="#CFCFCF"/>
<path d="M486.777 283V281.25L492.191 275.641C492.769 275.031 493.246 274.497 493.621 274.039C494.001 273.576 494.285 273.135 494.473 272.719C494.66 272.302 494.754 271.859 494.754 271.391C494.754 270.859 494.629 270.401 494.379 270.016C494.129 269.625 493.788 269.326 493.355 269.117C492.923 268.904 492.436 268.797 491.894 268.797C491.322 268.797 490.822 268.914 490.394 269.148C489.967 269.383 489.639 269.714 489.41 270.141C489.181 270.568 489.066 271.068 489.066 271.641H486.762C486.762 270.667 486.986 269.815 487.433 269.086C487.881 268.357 488.496 267.792 489.277 267.391C490.058 266.984 490.947 266.781 491.941 266.781C492.947 266.781 493.832 266.982 494.598 267.383C495.368 267.779 495.97 268.32 496.402 269.008C496.835 269.69 497.051 270.461 497.051 271.32C497.051 271.914 496.939 272.495 496.715 273.062C496.496 273.63 496.113 274.263 495.566 274.961C495.019 275.654 494.259 276.495 493.285 277.484L490.105 280.812V280.93H497.308V283H486.777ZM500.047 283V281.25L505.461 275.641C506.039 275.031 506.516 274.497 506.891 274.039C507.271 273.576 507.555 273.135 507.742 272.719C507.93 272.302 508.023 271.859 508.023 271.391C508.023 270.859 507.898 270.401 507.648 270.016C507.398 269.625 507.057 269.326 506.625 269.117C506.193 268.904 505.706 268.797 505.164 268.797C504.591 268.797 504.091 268.914 503.664 269.148C503.237 269.383 502.909 269.714 502.68 270.141C502.451 270.568 502.336 271.068 502.336 271.641H500.031C500.031 270.667 500.255 269.815 500.703 269.086C501.151 268.357 501.766 267.792 502.547 267.391C503.328 266.984 504.216 266.781 505.211 266.781C506.216 266.781 507.102 266.982 507.867 267.383C508.638 267.779 509.24 268.32 509.672 269.008C510.104 269.69 510.32 270.461 510.32 271.32C510.32 271.914 510.208 272.495 509.984 273.062C509.766 273.63 509.383 274.263 508.836 274.961C508.289 275.654 507.529 276.495 506.555 277.484L503.375 280.812V280.93H510.578V283H500.047Z" fill="#CFCFCF"/>
<rect x="40" y="437" width="1000" height="295" rx="20" fill="#F7F7F7"/>
<path opacity="0.6" d="M67.4964 463.326H65.1058C65.0376 462.934 64.9119 462.587 64.7287 462.284C64.5455 461.977 64.3175 461.717 64.0447 461.504C63.772 461.291 63.4609 461.131 63.1115 461.025C62.7663 460.914 62.3935 460.859 61.9929 460.859C61.2813 460.859 60.6506 461.038 60.1009 461.396C59.5511 461.749 59.1207 462.269 58.8097 462.955C58.4986 463.637 58.343 464.47 58.343 465.455C58.343 466.456 58.4986 467.3 58.8097 467.986C59.125 468.668 59.5554 469.183 60.1009 469.533C60.6506 469.878 61.2791 470.05 61.9865 470.05C62.3786 470.05 62.745 469.999 63.0859 469.897C63.4311 469.79 63.7401 469.635 64.0128 469.43C64.2898 469.226 64.522 468.974 64.7095 468.676C64.9013 468.378 65.0334 468.037 65.1058 467.653L67.4964 467.666C67.407 468.288 67.2131 468.872 66.9148 469.418C66.6207 469.963 66.2351 470.445 65.7578 470.862C65.2805 471.276 64.7223 471.599 64.0831 471.834C63.4439 472.064 62.7344 472.179 61.9545 472.179C60.804 472.179 59.777 471.913 58.8736 471.38C57.9702 470.847 57.2585 470.078 56.7386 469.072C56.2188 468.067 55.9588 466.861 55.9588 465.455C55.9588 464.044 56.2209 462.838 56.745 461.837C57.2692 460.831 57.983 460.062 58.8864 459.529C59.7898 458.996 60.8125 458.73 61.9545 458.73C62.6832 458.73 63.3608 458.832 63.9872 459.037C64.6136 459.241 65.1719 459.542 65.6619 459.938C66.152 460.33 66.5547 460.812 66.87 461.383C67.1896 461.95 67.3984 462.597 67.4964 463.326ZM71.4681 472V458.909H79.9824V460.897H73.8396V464.451H79.5413V466.439H73.8396V470.012H80.0335V472H71.4681ZM84.2017 458.909H87.1037L90.9901 468.395H91.1435L95.0299 458.909H97.9319V472H95.6563V463.006H95.5348L91.9169 471.962H90.2167L86.5988 462.987H86.4773V472H84.2017V458.909ZM102.314 472V458.909H110.828V460.897H104.686V464.451H110.387V466.439H104.686V470.012H110.88V472H102.314ZM115.048 458.909H117.4V467.832H117.522L123.677 458.909H125.806V472H123.434V463.083H123.326L117.151 472H115.048V458.909ZM121.696 455.534H123.428C123.428 456.28 123.157 456.885 122.616 457.349C122.079 457.81 121.35 458.04 120.43 458.04C119.518 458.04 118.791 457.81 118.25 457.349C117.713 456.885 117.447 456.28 117.451 455.534H119.171C119.171 455.841 119.264 456.116 119.452 456.359C119.644 456.597 119.97 456.717 120.43 456.717C120.882 456.717 121.203 456.597 121.395 456.359C121.591 456.12 121.691 455.845 121.696 455.534ZM130.19 472V458.909H132.561V464.451H138.627V458.909H141.005V472H138.627V466.439H132.561V472H130.19ZM147.065 472H144.534L149.143 458.909H152.07L156.685 472H154.154L150.658 461.594H150.555L147.065 472ZM147.148 466.867H154.052V468.772H147.148V466.867ZM169.874 472H167.496V460.891H165.323C164.735 460.891 164.251 460.978 163.872 461.153C163.497 461.323 163.218 461.575 163.035 461.907C162.856 462.235 162.766 462.631 162.766 463.096C162.766 463.56 162.856 463.952 163.035 464.272C163.214 464.587 163.491 464.828 163.866 464.994C164.245 465.156 164.727 465.237 165.31 465.237H168.494V467.206H164.991C163.985 467.206 163.137 467.04 162.447 466.707C161.756 466.371 161.232 465.896 160.874 465.282C160.521 464.664 160.344 463.935 160.344 463.096C160.344 462.261 160.518 461.53 160.868 460.903C161.222 460.273 161.742 459.783 162.428 459.433C163.114 459.084 163.957 458.909 164.959 458.909H169.874V472ZM163.105 466.068H165.694L162.511 472H159.864L163.105 466.068Z" fill="black"/>
<path opacity="0.4" d="M1019.95 685.5H55V575L449 587.5C449 587.5 1014.32 537.014 1019.95 536.015V536C1020.01 536 1020.01 536.005 1019.95 536.015V685.5Z" fill="url(#paint1_linear_2567_1432)"/>
<rect x="1015.19" y="531" width="10.2717" height="10.2717" rx="5.13587" fill="#04B34A"/>
<path d="M1017.5 537L448 588L55 575.5" stroke="#04B34A" stroke-width="4"/>
<path d="M843.074 705.555V681.197L833.989 690.316L830 686.362L845.955 670.441L861.875 686.362L857.955 690.316L848.835 681.197V705.555H843.074Z" fill="#04B34A"/>
<path d="M887.389 705.477C884.844 705.477 882.577 705.04 880.588 704.165C878.611 703.278 877.048 702.062 875.901 700.517C874.764 698.96 874.179 697.165 874.145 695.131H881.577C881.622 695.983 881.901 696.733 882.412 697.381C882.935 698.017 883.628 698.511 884.491 698.864C885.355 699.216 886.327 699.392 887.406 699.392C888.531 699.392 889.526 699.193 890.389 698.795C891.253 698.398 891.929 697.847 892.418 697.142C892.906 696.437 893.151 695.625 893.151 694.705C893.151 693.773 892.889 692.949 892.366 692.233C891.855 691.506 891.116 690.937 890.151 690.528C889.196 690.119 888.06 689.915 886.741 689.915H883.486V684.494H886.741C887.855 684.494 888.838 684.301 889.69 683.915C890.554 683.528 891.224 682.994 891.702 682.312C892.179 681.619 892.418 680.812 892.418 679.892C892.418 679.017 892.207 678.25 891.787 677.591C891.378 676.92 890.798 676.398 890.048 676.023C889.31 675.648 888.446 675.46 887.457 675.46C886.457 675.46 885.543 675.642 884.713 676.006C883.884 676.358 883.219 676.864 882.719 677.523C882.219 678.182 881.952 678.955 881.918 679.841H874.844C874.878 677.83 875.452 676.057 876.565 674.523C877.679 672.989 879.179 671.79 881.065 670.926C882.963 670.051 885.105 669.614 887.491 669.614C889.901 669.614 892.009 670.051 893.815 670.926C895.622 671.801 897.026 672.983 898.026 674.472C899.037 675.949 899.537 677.608 899.526 679.449C899.537 681.403 898.929 683.034 897.702 684.341C896.486 685.648 894.901 686.477 892.946 686.83V687.102C895.514 687.432 897.469 688.324 898.81 689.778C900.162 691.222 900.832 693.028 900.821 695.199C900.832 697.188 900.259 698.955 899.099 700.5C897.952 702.045 896.366 703.261 894.344 704.148C892.321 705.034 890.003 705.477 887.389 705.477ZM919.032 705.477C917.237 705.466 915.504 705.165 913.833 704.574C912.174 703.983 910.685 703.023 909.367 701.693C908.049 700.364 907.004 698.602 906.231 696.409C905.469 694.216 905.089 691.523 905.089 688.33C905.1 685.398 905.435 682.778 906.094 680.472C906.765 678.153 907.719 676.187 908.958 674.574C910.208 672.96 911.702 671.733 913.441 670.892C915.18 670.04 917.129 669.614 919.288 669.614C921.617 669.614 923.674 670.068 925.458 670.977C927.242 671.875 928.674 673.097 929.754 674.642C930.844 676.188 931.504 677.92 931.731 679.841H924.452C924.168 678.625 923.572 677.67 922.663 676.977C921.754 676.284 920.629 675.938 919.288 675.938C917.015 675.938 915.288 676.926 914.106 678.903C912.935 680.881 912.339 683.568 912.316 686.966H912.555C913.077 685.932 913.782 685.051 914.668 684.324C915.566 683.585 916.583 683.023 917.719 682.636C918.867 682.239 920.077 682.04 921.35 682.04C923.418 682.04 925.259 682.528 926.873 683.506C928.487 684.472 929.759 685.801 930.691 687.494C931.623 689.187 932.089 691.125 932.089 693.307C932.089 695.67 931.538 697.773 930.435 699.614C929.344 701.455 927.816 702.898 925.85 703.943C923.896 704.977 921.623 705.489 919.032 705.477ZM918.998 699.682C920.134 699.682 921.151 699.409 922.049 698.864C922.947 698.318 923.651 697.58 924.163 696.648C924.674 695.716 924.93 694.67 924.93 693.511C924.93 692.352 924.674 691.312 924.163 690.392C923.663 689.472 922.969 688.739 922.083 688.193C921.197 687.648 920.185 687.375 919.049 687.375C918.197 687.375 917.407 687.534 916.68 687.852C915.964 688.17 915.333 688.614 914.788 689.182C914.254 689.75 913.833 690.409 913.526 691.159C913.219 691.898 913.066 692.687 913.066 693.528C913.066 694.653 913.322 695.682 913.833 696.614C914.356 697.545 915.06 698.29 915.947 698.847C916.844 699.403 917.862 699.682 918.998 699.682ZM943.337 700.227L943.149 702.102C943.001 703.602 942.717 705.097 942.297 706.585C941.888 708.085 941.456 709.443 941.001 710.659C940.558 711.875 940.2 712.83 939.928 713.523H935.223C935.393 712.852 935.626 711.915 935.922 710.71C936.217 709.517 936.496 708.176 936.757 706.688C937.018 705.199 937.183 703.682 937.251 702.136L937.337 700.227H943.337ZM948.887 698.864V693.051L963.461 670.091H968.472V678.136H965.506L956.319 692.676V692.949H977.029V698.864H948.887ZM965.643 705V697.091L965.779 694.517V670.091H972.7V705H965.643ZM1000.56 698.455V696.614C1000.56 695.216 1000.86 693.932 1001.45 692.761C1002.05 691.58 1002.92 690.636 1004.06 689.932C1005.2 689.216 1006.6 688.858 1008.25 688.858C1009.92 688.858 1011.32 689.21 1012.46 689.915C1013.61 690.619 1014.47 691.562 1015.05 692.744C1015.64 693.915 1015.94 695.205 1015.94 696.614V698.455C1015.94 699.852 1015.64 701.142 1015.05 702.324C1014.46 703.494 1013.59 704.432 1012.44 705.136C1011.3 705.852 1009.9 706.21 1008.25 706.21C1006.58 706.21 1005.18 705.852 1004.04 705.136C1002.9 704.432 1002.04 703.494 1001.45 702.324C1000.86 701.142 1000.56 699.852 1000.56 698.455ZM1005.52 696.614V698.455C1005.52 699.261 1005.72 700.023 1006.1 700.739C1006.5 701.455 1007.22 701.812 1008.25 701.812C1009.28 701.812 1009.99 701.46 1010.36 700.756C1010.75 700.051 1010.94 699.284 1010.94 698.455V696.614C1010.94 695.784 1010.76 695.011 1010.4 694.295C1010.03 693.58 1009.32 693.222 1008.25 693.222C1007.23 693.222 1006.52 693.58 1006.12 694.295C1005.72 695.011 1005.52 695.784 1005.52 696.614ZM982.648 678.477V676.636C982.648 675.227 982.949 673.937 983.551 672.767C984.153 671.585 985.023 670.642 986.159 669.938C987.307 669.233 988.693 668.881 990.318 668.881C992 668.881 993.409 669.233 994.545 669.938C995.682 670.642 996.545 671.585 997.136 672.767C997.727 673.937 998.023 675.227 998.023 676.636V678.477C998.023 679.886 997.722 681.176 997.119 682.347C996.528 683.517 995.659 684.455 994.511 685.159C993.375 685.852 991.977 686.199 990.318 686.199C988.659 686.199 987.256 685.847 986.108 685.142C984.972 684.426 984.108 683.489 983.517 682.33C982.938 681.159 982.648 679.875 982.648 678.477ZM987.642 676.636V678.477C987.642 679.307 987.835 680.074 988.222 680.778C988.619 681.483 989.318 681.835 990.318 681.835C991.364 681.835 992.074 681.483 992.449 680.778C992.835 680.074 993.028 679.307 993.028 678.477V676.636C993.028 675.807 992.847 675.034 992.483 674.318C992.119 673.602 991.398 673.244 990.318 673.244C989.307 673.244 988.608 673.608 988.222 674.335C987.835 675.062 987.642 675.83 987.642 676.636ZM984.898 705L1008.9 670.091H1013.36L989.364 705H984.898Z" fill="black"/>
<path d="M62.1094 561.219C61.0365 561.219 60.0781 561.034 59.2344 560.664C58.3958 560.294 57.7318 559.781 57.2422 559.125C56.7578 558.464 56.4974 557.698 56.4609 556.828H58.9141C58.9453 557.302 59.1042 557.714 59.3906 558.062C59.6823 558.406 60.0625 558.672 60.5313 558.859C61 559.047 61.5208 559.141 62.0938 559.141C62.724 559.141 63.2813 559.031 63.7656 558.812C64.2552 558.594 64.638 558.289 64.9141 557.898C65.1901 557.503 65.3281 557.047 65.3281 556.531C65.3281 555.995 65.1901 555.523 64.9141 555.117C64.6432 554.706 64.2448 554.383 63.7188 554.148C63.1979 553.914 62.5677 553.797 61.8281 553.797H60.4766V551.828H61.8281C62.4219 551.828 62.9427 551.721 63.3906 551.508C63.8438 551.294 64.1979 550.997 64.4531 550.617C64.7083 550.232 64.8359 549.781 64.8359 549.266C64.8359 548.771 64.724 548.341 64.5 547.977C64.2813 547.607 63.9688 547.318 63.5625 547.109C63.1615 546.901 62.6875 546.797 62.1406 546.797C61.6198 546.797 61.1328 546.893 60.6797 547.086C60.2318 547.273 59.8672 547.544 59.5859 547.898C59.3047 548.247 59.1536 548.667 59.1328 549.156H56.7969C56.8229 548.292 57.0781 547.531 57.5625 546.875C58.0521 546.219 58.6979 545.706 59.5 545.336C60.3021 544.966 61.1927 544.781 62.1719 544.781C63.1979 544.781 64.0833 544.982 64.8281 545.383C65.5781 545.779 66.1563 546.307 66.5625 546.969C66.974 547.63 67.1771 548.354 67.1719 549.141C67.1771 550.036 66.9271 550.797 66.4219 551.422C65.9219 552.047 65.2552 552.466 64.4219 552.68V552.805C65.4844 552.966 66.3073 553.388 66.8906 554.07C67.4792 554.753 67.7708 555.599 67.7656 556.609C67.7708 557.49 67.526 558.279 67.0312 558.977C66.5417 559.674 65.8724 560.224 65.0234 560.625C64.1745 561.021 63.2031 561.219 62.1094 561.219ZM75.9024 561.219C74.7827 561.219 73.7931 561.026 72.9337 560.641C72.0795 560.255 71.4103 559.724 70.9259 559.047C70.4415 558.37 70.2019 557.599 70.2071 556.734C70.2019 556.057 70.3399 555.435 70.6212 554.867C70.9077 554.294 71.2957 553.818 71.7853 553.438C72.2748 553.052 72.8217 552.807 73.4259 552.703V552.609C72.629 552.417 71.991 551.99 71.5118 551.328C71.0327 550.667 70.7957 549.906 70.8009 549.047C70.7957 548.229 71.0118 547.5 71.4493 546.859C71.892 546.214 72.4988 545.706 73.2696 545.336C74.0405 544.966 74.9181 544.781 75.9024 544.781C76.8764 544.781 77.7462 544.969 78.5118 545.344C79.2827 545.714 79.8894 546.221 80.3321 546.867C80.7748 547.508 80.9988 548.234 81.004 549.047C80.9988 549.906 80.754 550.667 80.2696 551.328C79.7853 551.99 79.1551 552.417 78.379 552.609V552.703C78.978 552.807 79.517 553.052 79.9962 553.438C80.4806 553.818 80.866 554.294 81.1524 554.867C81.4441 555.435 81.5926 556.057 81.5978 556.734C81.5926 557.599 81.3478 558.37 80.8634 559.047C80.379 559.724 79.7071 560.255 78.8478 560.641C77.9936 561.026 77.0118 561.219 75.9024 561.219ZM75.9024 559.242C76.5639 559.242 77.1368 559.133 77.6212 558.914C78.1056 558.69 78.4806 558.38 78.7462 557.984C79.0118 557.583 79.1472 557.115 79.1524 556.578C79.1472 556.021 79.0014 555.529 78.7149 555.102C78.4337 554.674 78.0509 554.339 77.5665 554.094C77.0821 553.849 76.5274 553.727 75.9024 553.727C75.2722 553.727 74.7123 553.849 74.2228 554.094C73.7332 554.339 73.3478 554.674 73.0665 555.102C72.7853 555.529 72.6472 556.021 72.6524 556.578C72.6472 557.115 72.7748 557.583 73.0353 557.984C73.3009 558.38 73.6785 558.69 74.1681 558.914C74.6577 559.133 75.2358 559.242 75.9024 559.242ZM75.9024 551.797C76.4337 551.797 76.9051 551.69 77.3165 551.477C77.728 551.263 78.0509 550.966 78.2853 550.586C78.5248 550.206 78.6472 549.76 78.6524 549.25C78.6472 548.75 78.5274 548.313 78.2931 547.938C78.0639 547.562 77.7436 547.273 77.3321 547.07C76.9207 546.862 76.4441 546.758 75.9024 546.758C75.3504 546.758 74.866 546.862 74.4493 547.07C74.0379 547.273 73.7176 547.562 73.4884 547.938C73.2592 548.313 73.1472 548.75 73.1524 549.25C73.1472 549.76 73.2618 550.206 73.4962 550.586C73.7306 550.966 74.0535 551.263 74.4649 551.477C74.8816 551.69 75.3608 551.797 75.9024 551.797ZM86.7717 558.812L86.6545 559.664C86.5764 560.289 86.4436 560.94 86.2561 561.617C86.0738 562.299 85.8837 562.932 85.6858 563.516C85.493 564.099 85.3342 564.563 85.2092 564.906H83.5529C83.6206 564.583 83.7144 564.146 83.8342 563.594C83.954 563.047 84.0712 562.435 84.1858 561.758C84.3003 561.081 84.3863 560.391 84.4436 559.687L84.5217 558.812H86.7717ZM94.8069 561.219C93.734 561.219 92.7757 561.034 91.9319 560.664C91.0934 560.294 90.4293 559.781 89.9398 559.125C89.4554 558.464 89.195 557.698 89.1585 556.828H91.6116C91.6429 557.302 91.8017 557.714 92.0882 558.062C92.3799 558.406 92.7601 558.672 93.2288 558.859C93.6976 559.047 94.2184 559.141 94.7913 559.141C95.4215 559.141 95.9788 559.031 96.4632 558.812C96.9528 558.594 97.3356 558.289 97.6116 557.898C97.8877 557.503 98.0257 557.047 98.0257 556.531C98.0257 555.995 97.8877 555.523 97.6116 555.117C97.3408 554.706 96.9424 554.383 96.4163 554.148C95.8955 553.914 95.2653 553.797 94.5257 553.797H93.1741V551.828H94.5257C95.1194 551.828 95.6403 551.721 96.0882 551.508C96.5413 551.294 96.8955 550.997 97.1507 550.617C97.4059 550.232 97.5335 549.781 97.5335 549.266C97.5335 548.771 97.4215 548.341 97.1976 547.977C96.9788 547.607 96.6663 547.318 96.2601 547.109C95.859 546.901 95.3851 546.797 94.8382 546.797C94.3174 546.797 93.8304 546.893 93.3773 547.086C92.9293 547.273 92.5648 547.544 92.2835 547.898C92.0023 548.247 91.8512 548.667 91.8304 549.156H89.4944C89.5205 548.292 89.7757 547.531 90.2601 546.875C90.7497 546.219 91.3955 545.706 92.1976 545.336C92.9997 544.966 93.8903 544.781 94.8694 544.781C95.8955 544.781 96.7809 544.982 97.5257 545.383C98.2757 545.779 98.8538 546.307 99.2601 546.969C99.6715 547.63 99.8747 548.354 99.8694 549.141C99.8747 550.036 99.6247 550.797 99.1194 551.422C98.6194 552.047 97.9528 552.466 97.1194 552.68V552.805C98.1819 552.966 99.0049 553.388 99.5882 554.07C100.177 554.753 100.468 555.599 100.463 556.609C100.468 557.49 100.224 558.279 99.7288 558.977C99.2392 559.674 98.57 560.224 97.721 560.625C96.8721 561.021 95.9007 561.219 94.8069 561.219Z" fill="#CFCFCF"/>
<path d="M979.832 518L986.816 504.187V504.07H978.738V502H989.316V504.141L982.355 518H979.832ZM990.185 514.875V512.922L997.099 502H998.638V504.875H997.662L992.717 512.703V512.828H1002.19V514.875H990.185ZM997.771 518V514.281L997.787 513.391V502H1000.08V518H997.771ZM1007.16 515.812L1007.04 516.664C1006.97 517.289 1006.83 517.94 1006.65 518.617C1006.46 519.299 1006.27 519.932 1006.08 520.516C1005.88 521.099 1005.72 521.563 1005.6 521.906H1003.94C1004.01 521.583 1004.1 521.146 1004.22 520.594C1004.34 520.047 1004.46 519.435 1004.58 518.758C1004.69 518.081 1004.78 517.391 1004.83 516.687L1004.91 515.812H1007.16ZM1010.34 518L1017.32 504.187V504.07H1009.24V502H1019.82V504.141L1012.86 518H1010.34Z" fill="#CFCFCF"/>
<rect x="40" y="750" width="491" height="295" rx="20" fill="#F7F7F7"/>
<path opacity="0.6" d="M56.2912 782V768.909H61.3026C62.2486 768.909 63.0348 769.058 63.6612 769.357C64.2919 769.651 64.7628 770.053 65.0739 770.565C65.3892 771.076 65.5469 771.656 65.5469 772.303C65.5469 772.836 65.4446 773.292 65.2401 773.671C65.0355 774.046 64.7607 774.351 64.4155 774.585C64.0703 774.82 63.6847 774.988 63.2585 775.09V775.218C63.723 775.244 64.1683 775.386 64.5945 775.646C65.0249 775.902 65.3764 776.264 65.6491 776.733C65.9219 777.202 66.0582 777.768 66.0582 778.433C66.0582 779.111 65.8942 779.72 65.5661 780.261C65.2379 780.798 64.7436 781.222 64.0831 781.533C63.4226 781.844 62.5916 782 61.5902 782H56.2912ZM58.6626 780.018H61.2131C62.0739 780.018 62.6939 779.854 63.0732 779.526C63.4567 779.194 63.6484 778.768 63.6484 778.248C63.6484 777.86 63.5526 777.511 63.3608 777.2C63.169 776.884 62.8963 776.637 62.5426 776.458C62.1889 776.275 61.767 776.183 61.277 776.183H58.6626V780.018ZM58.6626 774.477H61.0085C61.4176 774.477 61.7862 774.402 62.1143 774.253C62.4425 774.099 62.7003 773.884 62.8878 773.607C63.0795 773.326 63.1754 772.994 63.1754 772.61C63.1754 772.103 62.9964 771.685 62.6385 771.357C62.2848 771.029 61.7585 770.865 61.0597 770.865H58.6626V774.477ZM81.6187 775.455C81.6187 776.865 81.3545 778.073 80.8261 779.079C80.302 780.08 79.586 780.847 78.6784 781.38C77.775 781.913 76.7501 782.179 75.6038 782.179C74.4575 782.179 73.4305 781.913 72.5228 781.38C71.6194 780.843 70.9035 780.074 70.3751 779.072C69.851 778.067 69.5889 776.861 69.5889 775.455C69.5889 774.044 69.851 772.838 70.3751 771.837C70.9035 770.831 71.6194 770.062 72.5228 769.529C73.4305 768.996 74.4575 768.73 75.6038 768.73C76.7501 768.73 77.775 768.996 78.6784 769.529C79.586 770.062 80.302 770.831 80.8261 771.837C81.3545 772.838 81.6187 774.044 81.6187 775.455ZM79.2345 775.455C79.2345 774.462 79.0789 773.624 78.7679 772.942C78.461 772.256 78.0349 771.739 77.4895 771.389C76.944 771.036 76.3154 770.859 75.6038 770.859C74.8922 770.859 74.2636 771.036 73.7181 771.389C73.1727 771.739 72.7444 772.256 72.4333 772.942C72.1265 773.624 71.9731 774.462 71.9731 775.455C71.9731 776.447 72.1265 777.287 72.4333 777.973C72.7444 778.655 73.1727 779.173 73.7181 779.526C74.2636 779.876 74.8922 780.05 75.6038 780.05C76.3154 780.05 76.944 779.876 77.4895 779.526C78.0349 779.173 78.461 778.655 78.7679 777.973C79.0789 777.287 79.2345 776.447 79.2345 775.455ZM85.6607 782V768.909H94.1749V770.897H88.0322V774.451H93.7339V776.439H88.0322V780.012H94.2261V782H85.6607ZM98.3943 782V768.909H100.766V774.451H106.832V768.909H109.21V782H106.832V776.439H100.766V782H98.3943ZM113.589 782V768.909H115.96V774.451H122.026V768.909H124.404V782H122.026V776.439H115.96V782H113.589ZM130.464 782H127.933L132.542 768.909H135.469L140.085 782H137.553L134.057 771.594H133.955L130.464 782ZM130.548 776.867H137.451V778.772H130.548V776.867ZM153.274 782H150.896V770.891H148.722C148.134 770.891 147.651 770.978 147.271 771.153C146.896 771.323 146.617 771.575 146.434 771.907C146.255 772.235 146.166 772.631 146.166 773.096C146.166 773.56 146.255 773.952 146.434 774.272C146.613 774.587 146.89 774.828 147.265 774.994C147.644 775.156 148.126 775.237 148.71 775.237H151.893V777.206H148.39C147.384 777.206 146.536 777.04 145.846 776.707C145.156 776.371 144.632 775.896 144.274 775.282C143.92 774.664 143.743 773.935 143.743 773.096C143.743 772.261 143.918 771.53 144.267 770.903C144.621 770.273 145.141 769.783 145.827 769.433C146.513 769.084 147.357 768.909 148.358 768.909H153.274V782ZM146.504 776.068H149.093L145.91 782H143.264L146.504 776.068Z" fill="black"/>
<path opacity="0.4" d="M55 998.5H510.991V893H285.5H55V998.5Z" fill="url(#paint2_linear_2567_1432)"/>
<rect x="506.188" y="887" width="10.2717" height="10.2717" rx="5.13587" fill="#CACACA"/>
<path d="M509.5 893H282.655L55 893" stroke="#CACACA" stroke-width="4"/>
<path d="M409.074 983.445V1007.8L399.989 998.684L396 1002.64L411.955 1018.56L427.875 1002.64L423.955 998.684L414.835 1007.8V983.445H409.074Z" fill="#CACACA"/>
<path d="M453.587 1018.77C450.656 1018.76 448.133 1018.03 446.019 1016.6C443.917 1015.17 442.298 1013.1 441.161 1010.38C440.036 1007.66 439.479 1004.4 439.491 1000.58C439.491 996.773 440.053 993.528 441.178 990.847C442.315 988.165 443.934 986.125 446.036 984.727C448.15 983.318 450.667 982.614 453.587 982.614C456.508 982.614 459.019 983.318 461.121 984.727C463.235 986.136 464.86 988.182 465.996 990.864C467.133 993.534 467.695 996.773 467.684 1000.58C467.684 1004.41 467.116 1007.68 465.979 1010.4C464.854 1013.11 463.241 1015.19 461.138 1016.62C459.036 1018.05 456.519 1018.77 453.587 1018.77ZM453.587 1012.65C455.587 1012.65 457.184 1011.64 458.377 1009.63C459.57 1007.62 460.161 1004.6 460.15 1000.58C460.15 997.932 459.877 995.727 459.332 993.966C458.798 992.205 458.036 990.881 457.048 989.994C456.07 989.108 454.917 988.665 453.587 988.665C451.599 988.665 450.008 989.659 448.815 991.648C447.621 993.636 447.019 996.614 447.008 1000.58C447.008 1003.26 447.275 1005.5 447.809 1007.3C448.354 1009.08 449.121 1010.42 450.11 1011.32C451.099 1012.2 452.258 1012.65 453.587 1012.65ZM491.562 1011.45V1009.61C491.562 1008.22 491.858 1006.93 492.449 1005.76C493.051 1004.58 493.92 1003.64 495.057 1002.93C496.205 1002.22 497.602 1001.86 499.25 1001.86C500.92 1001.86 502.324 1002.21 503.46 1002.91C504.608 1003.62 505.472 1004.56 506.051 1005.74C506.642 1006.91 506.938 1008.2 506.938 1009.61V1011.45C506.938 1012.85 506.642 1014.14 506.051 1015.32C505.46 1016.49 504.591 1017.43 503.443 1018.14C502.295 1018.85 500.898 1019.21 499.25 1019.21C497.58 1019.21 496.176 1018.85 495.04 1018.14C493.903 1017.43 493.04 1016.49 492.449 1015.32C491.858 1014.14 491.562 1012.85 491.562 1011.45ZM496.523 1009.61V1011.45C496.523 1012.26 496.716 1013.02 497.102 1013.74C497.5 1014.45 498.216 1014.81 499.25 1014.81C500.284 1014.81 500.989 1014.46 501.364 1013.76C501.75 1013.05 501.943 1012.28 501.943 1011.45V1009.61C501.943 1008.78 501.761 1008.01 501.398 1007.3C501.034 1006.58 500.318 1006.22 499.25 1006.22C498.227 1006.22 497.517 1006.58 497.119 1007.3C496.722 1008.01 496.523 1008.78 496.523 1009.61ZM473.648 991.477V989.636C473.648 988.227 473.949 986.937 474.551 985.767C475.153 984.585 476.023 983.642 477.159 982.938C478.307 982.233 479.693 981.881 481.318 981.881C483 981.881 484.409 982.233 485.545 982.938C486.682 983.642 487.545 984.585 488.136 985.767C488.727 986.937 489.023 988.227 489.023 989.636V991.477C489.023 992.886 488.722 994.176 488.119 995.347C487.528 996.517 486.659 997.455 485.511 998.159C484.375 998.852 482.977 999.199 481.318 999.199C479.659 999.199 478.256 998.847 477.108 998.142C475.972 997.426 475.108 996.489 474.517 995.33C473.938 994.159 473.648 992.875 473.648 991.477ZM478.642 989.636V991.477C478.642 992.307 478.835 993.074 479.222 993.778C479.619 994.483 480.318 994.835 481.318 994.835C482.364 994.835 483.074 994.483 483.449 993.778C483.835 993.074 484.028 992.307 484.028 991.477V989.636C484.028 988.807 483.847 988.034 483.483 987.318C483.119 986.602 482.398 986.244 481.318 986.244C480.307 986.244 479.608 986.608 479.222 987.335C478.835 988.062 478.642 988.83 478.642 989.636ZM475.898 1018L499.898 983.091H504.364L480.364 1018H475.898Z" fill="black"/>
<path d="M62.6094 860V876H60.1875V862.422H60.0938L56.2656 864.922V862.609L60.2578 860H62.6094Z" fill="#CFCFCF"/>
<path d="M509.211 860V876H506.789V862.422H506.695L502.867 864.922V862.609L506.859 860H509.211Z" fill="#CFCFCF"/>
<rect x="549" y="124" width="491" height="295" rx="20" fill="#F7F7F7"/>
<path opacity="0.6" d="M567.663 145.909V159H565.291V145.909H567.663ZM571.455 147.897V145.909H581.9V147.897H577.854V159H575.502V147.897H571.455ZM590.754 151.502V153.407H584.86V151.502H590.754ZM595.09 145.909H597.442V154.832H597.563L603.719 145.909H605.847V159H603.476V150.083H603.367L597.193 159H595.09V145.909ZM620.913 145.909V159H618.56V147.878H612.833V159H610.481V145.909H620.913ZM637.246 152.455C637.246 153.865 636.982 155.073 636.454 156.079C635.93 157.08 635.214 157.847 634.306 158.38C633.403 158.913 632.378 159.179 631.232 159.179C630.085 159.179 629.058 158.913 628.151 158.38C627.247 157.843 626.531 157.074 626.003 156.072C625.479 155.067 625.217 153.861 625.217 152.455C625.217 151.044 625.479 149.838 626.003 148.837C626.531 147.831 627.247 147.062 628.151 146.529C629.058 145.996 630.085 145.73 631.232 145.73C632.378 145.73 633.403 145.996 634.306 146.529C635.214 147.062 635.93 147.831 636.454 148.837C636.982 149.838 637.246 151.044 637.246 152.455ZM634.862 152.455C634.862 151.462 634.707 150.624 634.396 149.942C634.089 149.256 633.663 148.739 633.117 148.389C632.572 148.036 631.943 147.859 631.232 147.859C630.52 147.859 629.891 148.036 629.346 148.389C628.8 148.739 628.372 149.256 628.061 149.942C627.754 150.624 627.601 151.462 627.601 152.455C627.601 153.447 627.754 154.287 628.061 154.973C628.372 155.655 628.8 156.173 629.346 156.526C629.891 156.876 630.52 157.05 631.232 157.05C631.943 157.05 632.572 156.876 633.117 156.526C633.663 156.173 634.089 155.655 634.396 154.973C634.707 154.287 634.862 153.447 634.862 152.455ZM640.133 147.897V145.909H650.578V147.897H646.532V159H644.179V147.897H640.133ZM654.391 159V145.909H662.905V147.897H656.763V151.451H662.464V153.439H656.763V157.012H662.957V159H654.391ZM674.968 159L670.66 153.279H669.496V159H667.125V145.909H669.496V151.291H670.091L674.744 145.909H677.665L672.494 151.879L677.889 159H674.968ZM682.981 159H680.45L685.058 145.909H687.986L692.601 159H690.07L686.573 148.594H686.471L682.981 159ZM683.064 153.867H689.967V155.772H683.064V153.867Z" fill="black"/>
<path opacity="0.4" d="M1019.99 372.5H564V262L783 276.5C783 276.5 1017.34 224.197 1019.99 223.02V223C1020.02 223 1020.02 223.007 1019.99 223.02V372.5Z" fill="url(#paint3_linear_2567_1432)"/>
<rect x="1015.19" y="218" width="10.2717" height="10.2717" rx="5.13587" fill="#04B34A"/>
<path d="M1017.5 224L785.858 274.165C783.298 274.719 780.674 274.924 778.059 274.774L564 262.5" stroke="#04B34A" stroke-width="4"/>
<path d="M875.074 392.555V368.197L865.989 377.316L862 373.362L877.955 357.441L893.875 373.362L889.955 377.316L880.835 368.197V392.555H875.074Z" fill="#04B34A"/>
<path d="M919.79 392.767C916.859 392.756 914.336 392.034 912.222 390.602C910.12 389.17 908.501 387.097 907.364 384.381C906.239 381.665 905.683 378.398 905.694 374.58C905.694 370.773 906.256 367.528 907.381 364.847C908.518 362.165 910.137 360.125 912.239 358.727C914.353 357.318 916.87 356.614 919.79 356.614C922.711 356.614 925.222 357.318 927.325 358.727C929.438 360.136 931.063 362.182 932.2 364.864C933.336 367.534 933.898 370.773 933.887 374.58C933.887 378.409 933.319 381.682 932.183 384.398C931.058 387.114 929.444 389.187 927.342 390.619C925.239 392.051 922.722 392.767 919.79 392.767ZM919.79 386.648C921.79 386.648 923.387 385.642 924.58 383.631C925.773 381.619 926.364 378.602 926.353 374.58C926.353 371.932 926.08 369.727 925.535 367.966C925.001 366.205 924.239 364.881 923.251 363.994C922.273 363.108 921.12 362.665 919.79 362.665C917.802 362.665 916.211 363.659 915.018 365.648C913.825 367.636 913.222 370.614 913.211 374.58C913.211 377.261 913.478 379.5 914.012 381.295C914.558 383.08 915.325 384.42 916.313 385.318C917.302 386.205 918.461 386.648 919.79 386.648ZM945.212 387.227L945.024 389.102C944.876 390.602 944.592 392.097 944.172 393.585C943.763 395.085 943.331 396.443 942.876 397.659C942.433 398.875 942.075 399.83 941.803 400.523H937.098C937.268 399.852 937.501 398.915 937.797 397.71C938.092 396.517 938.371 395.176 938.632 393.688C938.893 392.199 939.058 390.682 939.126 389.136L939.212 387.227H945.212ZM963.759 392.477C961.35 392.477 959.202 392.034 957.316 391.148C955.441 390.261 953.952 389.04 952.85 387.483C951.748 385.926 951.174 384.142 951.129 382.131H958.288C958.367 383.483 958.935 384.58 959.992 385.42C961.049 386.261 962.305 386.682 963.759 386.682C964.918 386.682 965.941 386.426 966.827 385.915C967.725 385.392 968.424 384.67 968.924 383.75C969.435 382.818 969.691 381.75 969.691 380.545C969.691 379.318 969.43 378.239 968.907 377.307C968.396 376.375 967.685 375.648 966.776 375.125C965.867 374.602 964.827 374.335 963.657 374.324C962.634 374.324 961.64 374.534 960.674 374.955C959.719 375.375 958.975 375.949 958.441 376.676L951.879 375.5L953.532 357.091H974.873V363.125H959.617L958.714 371.869H958.918C959.532 371.006 960.458 370.29 961.697 369.722C962.935 369.153 964.322 368.869 965.856 368.869C967.958 368.869 969.833 369.364 971.481 370.352C973.129 371.341 974.43 372.699 975.384 374.426C976.339 376.142 976.81 378.119 976.799 380.358C976.81 382.71 976.265 384.801 975.163 386.631C974.072 388.449 972.543 389.881 970.577 390.926C968.623 391.96 966.35 392.477 963.759 392.477ZM1000.56 385.455V383.614C1000.56 382.216 1000.86 380.932 1001.45 379.761C1002.05 378.58 1002.92 377.636 1004.06 376.932C1005.2 376.216 1006.6 375.858 1008.25 375.858C1009.92 375.858 1011.32 376.21 1012.46 376.915C1013.61 377.619 1014.47 378.562 1015.05 379.744C1015.64 380.915 1015.94 382.205 1015.94 383.614V385.455C1015.94 386.852 1015.64 388.142 1015.05 389.324C1014.46 390.494 1013.59 391.432 1012.44 392.136C1011.3 392.852 1009.9 393.21 1008.25 393.21C1006.58 393.21 1005.18 392.852 1004.04 392.136C1002.9 391.432 1002.04 390.494 1001.45 389.324C1000.86 388.142 1000.56 386.852 1000.56 385.455ZM1005.52 383.614V385.455C1005.52 386.261 1005.72 387.023 1006.1 387.739C1006.5 388.455 1007.22 388.812 1008.25 388.812C1009.28 388.812 1009.99 388.46 1010.36 387.756C1010.75 387.051 1010.94 386.284 1010.94 385.455V383.614C1010.94 382.784 1010.76 382.011 1010.4 381.295C1010.03 380.58 1009.32 380.222 1008.25 380.222C1007.23 380.222 1006.52 380.58 1006.12 381.295C1005.72 382.011 1005.52 382.784 1005.52 383.614ZM982.648 365.477V363.636C982.648 362.227 982.949 360.937 983.551 359.767C984.153 358.585 985.023 357.642 986.159 356.938C987.307 356.233 988.693 355.881 990.318 355.881C992 355.881 993.409 356.233 994.545 356.938C995.682 357.642 996.545 358.585 997.136 359.767C997.727 360.937 998.023 362.227 998.023 363.636V365.477C998.023 366.886 997.722 368.176 997.119 369.347C996.528 370.517 995.659 371.455 994.511 372.159C993.375 372.852 991.977 373.199 990.318 373.199C988.659 373.199 987.256 372.847 986.108 372.142C984.972 371.426 984.108 370.489 983.517 369.33C982.938 368.159 982.648 366.875 982.648 365.477ZM987.642 363.636V365.477C987.642 366.307 987.835 367.074 988.222 367.778C988.619 368.483 989.318 368.835 990.318 368.835C991.364 368.835 992.074 368.483 992.449 367.778C992.835 367.074 993.028 366.307 993.028 365.477V363.636C993.028 362.807 992.847 362.034 992.483 361.318C992.119 360.602 991.398 360.244 990.318 360.244C989.307 360.244 988.608 360.608 988.222 361.335C987.835 362.062 987.642 362.83 987.642 363.636ZM984.898 392L1008.9 357.091H1013.36L989.364 392H984.898Z" fill="black"/>
<path d="M571.609 232V248H569.188V234.422H569.094L565.266 236.922V234.609L569.258 232H571.609Z" fill="#CFCFCF"/>
<path d="M999.857 189V205H997.435V191.422H997.342L993.513 193.922V191.609L997.506 189H999.857ZM1006.11 202.812L1005.99 203.664C1005.91 204.289 1005.78 204.94 1005.59 205.617C1005.41 206.299 1005.22 206.932 1005.02 207.516C1004.83 208.099 1004.67 208.563 1004.55 208.906H1002.89C1002.96 208.583 1003.05 208.146 1003.17 207.594C1003.29 207.047 1003.41 206.435 1003.52 205.758C1003.64 205.081 1003.72 204.391 1003.78 203.687L1003.86 202.812H1006.11ZM1014.18 205.219C1013.2 205.219 1012.32 205.031 1011.54 204.656C1010.76 204.276 1010.14 203.755 1009.68 203.094C1009.21 202.432 1008.97 201.677 1008.94 200.828H1011.28C1011.34 201.516 1011.64 202.081 1012.19 202.523C1012.75 202.966 1013.41 203.187 1014.18 203.187C1014.79 203.187 1015.34 203.047 1015.81 202.766C1016.29 202.479 1016.66 202.086 1016.94 201.586C1017.21 201.086 1017.35 200.516 1017.35 199.875C1017.35 199.224 1017.21 198.643 1016.93 198.133C1016.65 197.622 1016.26 197.221 1015.76 196.93C1015.27 196.638 1014.71 196.49 1014.08 196.484C1013.59 196.484 1013.1 196.568 1012.62 196.734C1012.13 196.901 1011.73 197.12 1011.43 197.391L1009.22 197.062L1010.12 189H1018.91V191.07H1012.12L1011.62 195.547H1011.71C1012.02 195.245 1012.44 194.992 1012.95 194.789C1013.47 194.586 1014.03 194.484 1014.62 194.484C1015.6 194.484 1016.46 194.716 1017.22 195.18C1017.99 195.643 1018.59 196.276 1019.03 197.078C1019.47 197.875 1019.69 198.792 1019.69 199.828C1019.69 200.865 1019.46 201.789 1018.98 202.602C1018.51 203.414 1017.86 204.055 1017.03 204.523C1016.2 204.987 1015.25 205.219 1014.18 205.219Z" fill="#CFCFCF"/>
<rect x="549" y="750" width="491" height="295" rx="20" fill="#F7F7F7"/>
<path opacity="0.6" d="M564.441 785.158V780.063H565.317C565.611 779.829 565.886 779.499 566.141 779.072C566.397 778.646 566.614 778.062 566.793 777.321C566.972 776.58 567.096 775.621 567.164 774.445L567.509 768.909H575.876V780.063H577.334V785.145H575.058V782H566.717V785.158H564.441ZM568.078 780.063H573.601V770.897H569.644L569.44 774.445C569.384 775.335 569.295 776.132 569.171 776.835C569.048 777.538 568.892 778.158 568.705 778.695C568.517 779.228 568.308 779.684 568.078 780.063ZM582.747 782H580.216L584.824 768.909H587.752L592.367 782H589.836L586.339 771.594H586.237L582.747 782ZM582.83 776.867H589.733V778.772H582.83V776.867ZM595.041 782V780.031L595.412 780.012C595.915 779.982 596.313 779.801 596.607 779.469C596.905 779.136 597.125 778.602 597.265 777.864C597.41 777.127 597.506 776.138 597.553 774.898L597.77 768.909H606.349V782H604.028V770.859H599.982L599.778 775.634C599.718 777.065 599.56 778.252 599.305 779.194C599.053 780.136 598.64 780.839 598.064 781.303C597.493 781.768 596.699 782 595.68 782H595.041ZM612.339 773.965H615.662C616.664 773.965 617.523 774.129 618.238 774.457C618.959 774.781 619.51 775.239 619.894 775.832C620.277 776.424 620.469 777.121 620.469 777.922C620.469 778.727 620.277 779.437 619.894 780.05C619.51 780.66 618.959 781.137 618.238 781.482C617.523 781.827 616.664 782 615.662 782H610.76V768.909H613.138V780.057H615.662C616.191 780.057 616.638 779.957 617.005 779.756C617.371 779.556 617.648 779.292 617.836 778.964C618.027 778.636 618.123 778.28 618.123 777.896C618.123 777.342 617.91 776.871 617.484 776.484C617.062 776.092 616.455 775.896 615.662 775.896H612.339V773.965ZM624.575 782V768.909H626.947V774.451H633.013V768.909H635.391V782H633.013V776.439H626.947V782H624.575ZM639.77 782V768.909H648.284V770.897H642.141V774.451H647.843V776.439H642.141V780.012H648.335V782H639.77ZM652.503 782V768.909H657.515C658.461 768.909 659.247 769.058 659.873 769.357C660.504 769.651 660.975 770.053 661.286 770.565C661.601 771.076 661.759 771.656 661.759 772.303C661.759 772.836 661.657 773.292 661.452 773.671C661.248 774.046 660.973 774.351 660.628 774.585C660.282 774.82 659.897 774.988 659.471 775.09V775.218C659.935 775.244 660.38 775.386 660.807 775.646C661.237 775.902 661.589 776.264 661.861 776.733C662.134 777.202 662.27 777.768 662.27 778.433C662.27 779.111 662.106 779.72 661.778 780.261C661.45 780.798 660.956 781.222 660.295 781.533C659.635 781.844 658.804 782 657.802 782H652.503ZM654.875 780.018H657.425C658.286 780.018 658.906 779.854 659.285 779.526C659.669 779.194 659.861 778.768 659.861 778.248C659.861 777.86 659.765 777.511 659.573 777.2C659.381 776.884 659.108 776.637 658.755 776.458C658.401 776.275 657.979 776.183 657.489 776.183H654.875V780.018ZM654.875 774.477H657.221C657.63 774.477 657.998 774.402 658.326 774.253C658.655 774.099 658.912 773.884 659.1 773.607C659.292 773.326 659.388 772.994 659.388 772.61C659.388 772.103 659.209 771.685 658.851 771.357C658.497 771.029 657.971 770.865 657.272 770.865H654.875V774.477ZM677.831 775.455C677.831 776.865 677.567 778.073 677.038 779.079C676.514 780.08 675.798 780.847 674.89 781.38C673.987 781.913 672.962 782.179 671.816 782.179C670.67 782.179 669.643 781.913 668.735 781.38C667.832 780.843 667.116 780.074 666.587 779.072C666.063 778.067 665.801 776.861 665.801 775.455C665.801 774.044 666.063 772.838 666.587 771.837C667.116 770.831 667.832 770.062 668.735 769.529C669.643 768.996 670.67 768.73 671.816 768.73C672.962 768.73 673.987 768.996 674.89 769.529C675.798 770.062 676.514 770.831 677.038 771.837C677.567 772.838 677.831 774.044 677.831 775.455ZM675.447 775.455C675.447 774.462 675.291 773.624 674.98 772.942C674.673 772.256 674.247 771.739 673.702 771.389C673.156 771.036 672.528 770.859 671.816 770.859C671.104 770.859 670.476 771.036 669.93 771.389C669.385 771.739 668.957 772.256 668.645 772.942C668.339 773.624 668.185 774.462 668.185 775.455C668.185 776.447 668.339 777.287 668.645 777.973C668.957 778.655 669.385 779.173 669.93 779.526C670.476 779.876 671.104 780.05 671.816 780.05C672.528 780.05 673.156 779.876 673.702 779.526C674.247 779.173 674.673 778.655 674.98 777.973C675.291 777.287 675.447 776.447 675.447 775.455ZM693.078 773.326H690.687C690.619 772.934 690.494 772.587 690.31 772.284C690.127 771.977 689.899 771.717 689.626 771.504C689.354 771.291 689.043 771.131 688.693 771.025C688.348 770.914 687.975 770.859 687.575 770.859C686.863 770.859 686.232 771.038 685.682 771.396C685.133 771.749 684.702 772.269 684.391 772.955C684.08 773.637 683.925 774.47 683.925 775.455C683.925 776.456 684.08 777.3 684.391 777.986C684.707 778.668 685.137 779.183 685.682 779.533C686.232 779.878 686.861 780.05 687.568 780.05C687.96 780.05 688.327 779.999 688.668 779.897C689.013 779.79 689.322 779.635 689.594 779.43C689.871 779.226 690.104 778.974 690.291 778.676C690.483 778.378 690.615 778.037 690.687 777.653L693.078 777.666C692.989 778.288 692.795 778.872 692.496 779.418C692.202 779.963 691.817 780.445 691.339 780.862C690.862 781.276 690.304 781.599 689.665 781.834C689.026 782.064 688.316 782.179 687.536 782.179C686.386 782.179 685.359 781.913 684.455 781.38C683.552 780.847 682.84 780.078 682.32 779.072C681.8 778.067 681.54 776.861 681.54 775.455C681.54 774.044 681.803 772.838 682.327 771.837C682.851 770.831 683.565 770.062 684.468 769.529C685.371 768.996 686.394 768.73 687.536 768.73C688.265 768.73 688.942 768.832 689.569 769.037C690.195 769.241 690.754 769.542 691.244 769.938C691.734 770.33 692.136 770.812 692.452 771.383C692.771 771.95 692.98 772.597 693.078 773.326ZM696.474 770.897V768.909H706.919V770.897H702.873V782H700.521V770.897H696.474ZM721.85 775.455C721.85 776.865 721.586 778.073 721.057 779.079C720.533 780.08 719.817 780.847 718.91 781.38C718.006 781.913 716.981 782.179 715.835 782.179C714.689 782.179 713.662 781.913 712.754 781.38C711.851 780.843 711.135 780.074 710.606 779.072C710.082 778.067 709.82 776.861 709.82 775.455C709.82 774.044 710.082 772.838 710.606 771.837C711.135 770.831 711.851 770.062 712.754 769.529C713.662 768.996 714.689 768.73 715.835 768.73C716.981 768.73 718.006 768.996 718.91 769.529C719.817 770.062 720.533 770.831 721.057 771.837C721.586 772.838 721.85 774.044 721.85 775.455ZM719.466 775.455C719.466 774.462 719.31 773.624 718.999 772.942C718.692 772.256 718.266 771.739 717.721 771.389C717.175 771.036 716.547 770.859 715.835 770.859C715.123 770.859 714.495 771.036 713.949 771.389C713.404 771.739 712.976 772.256 712.665 772.942C712.358 773.624 712.204 774.462 712.204 775.455C712.204 776.447 712.358 777.287 712.665 777.973C712.976 778.655 713.404 779.173 713.949 779.526C714.495 779.876 715.123 780.05 715.835 780.05C716.547 780.05 717.175 779.876 717.721 779.526C718.266 779.173 718.692 778.655 718.999 777.973C719.31 777.287 719.466 776.447 719.466 775.455ZM726.282 768.909H728.602V773.179C728.602 773.733 728.698 774.172 728.89 774.496C729.086 774.82 729.376 775.052 729.759 775.192C730.143 775.333 730.62 775.403 731.191 775.403C731.447 775.403 731.722 775.395 732.016 775.378C732.314 775.357 732.614 775.329 732.917 775.295C733.219 775.256 733.509 775.212 733.786 775.161C734.063 775.105 734.31 775.045 734.528 774.982V776.912C734.31 776.98 734.067 777.042 733.799 777.097C733.53 777.153 733.247 777.2 732.949 777.238C732.651 777.276 732.352 777.306 732.054 777.327C731.756 777.349 731.468 777.359 731.191 777.359C730.19 777.359 729.32 777.217 728.583 776.931C727.85 776.641 727.283 776.19 726.883 775.576C726.482 774.962 726.282 774.163 726.282 773.179V768.909ZM734.138 768.909H736.471V782H734.138V768.909ZM741.157 782V768.909H743.528V774.451H749.594V768.909H751.972V782H749.594V776.439H743.528V782H741.157ZM758.032 782H755.501L760.11 768.909H763.037L767.652 782H765.121L761.625 771.594H761.523L758.032 782ZM758.116 776.867H765.019V778.772H758.116V776.867ZM780.842 782H778.464V770.891H776.29C775.702 770.891 775.219 770.978 774.839 771.153C774.464 771.323 774.185 771.575 774.002 771.907C773.823 772.235 773.734 772.631 773.734 773.096C773.734 773.56 773.823 773.952 774.002 774.272C774.181 774.587 774.458 774.828 774.833 774.994C775.212 775.156 775.694 775.237 776.278 775.237H779.461V777.206H775.958C774.952 777.206 774.104 777.04 773.414 776.707C772.724 776.371 772.199 775.896 771.842 775.282C771.488 774.664 771.311 773.935 771.311 773.096C771.311 772.261 771.486 771.53 771.835 770.903C772.189 770.273 772.709 769.783 773.395 769.433C774.081 769.084 774.925 768.909 775.926 768.909H780.842V782ZM774.072 776.068H776.661L773.478 782H770.832L774.072 776.068Z" fill="black"/>
<path opacity="0.4" d="M564 998.5H1019.99V893H794.5H564V998.5Z" fill="url(#paint4_linear_2567_1432)"/>
<rect x="1015.19" y="887" width="10.2717" height="10.2717" rx="5.13587" fill="#CACACA"/>
<path d="M1018.5 893H791.655L564 893" stroke="#CACACA" stroke-width="4"/>
<path d="M918.074 983.445V1007.8L908.989 998.684L905 1002.64L920.955 1018.56L936.875 1002.64L932.955 998.684L923.835 1007.8V983.445H918.074Z" fill="#CACACA"/>
<path d="M962.587 1018.77C959.656 1018.76 957.133 1018.03 955.019 1016.6C952.917 1015.17 951.298 1013.1 950.161 1010.38C949.036 1007.66 948.479 1004.4 948.491 1000.58C948.491 996.773 949.053 993.528 950.178 990.847C951.315 988.165 952.934 986.125 955.036 984.727C957.15 983.318 959.667 982.614 962.587 982.614C965.508 982.614 968.019 983.318 970.121 984.727C972.235 986.136 973.86 988.182 974.996 990.864C976.133 993.534 976.695 996.773 976.684 1000.58C976.684 1004.41 976.116 1007.68 974.979 1010.4C973.854 1013.11 972.241 1015.19 970.138 1016.62C968.036 1018.05 965.519 1018.77 962.587 1018.77ZM962.587 1012.65C964.587 1012.65 966.184 1011.64 967.377 1009.63C968.57 1007.62 969.161 1004.6 969.15 1000.58C969.15 997.932 968.877 995.727 968.332 993.966C967.798 992.205 967.036 990.881 966.048 989.994C965.07 989.108 963.917 988.665 962.587 988.665C960.599 988.665 959.008 989.659 957.815 991.648C956.621 993.636 956.019 996.614 956.008 1000.58C956.008 1003.26 956.275 1005.5 956.809 1007.3C957.354 1009.08 958.121 1010.42 959.11 1011.32C960.099 1012.2 961.258 1012.65 962.587 1012.65ZM1000.56 1011.45V1009.61C1000.56 1008.22 1000.86 1006.93 1001.45 1005.76C1002.05 1004.58 1002.92 1003.64 1004.06 1002.93C1005.2 1002.22 1006.6 1001.86 1008.25 1001.86C1009.92 1001.86 1011.32 1002.21 1012.46 1002.91C1013.61 1003.62 1014.47 1004.56 1015.05 1005.74C1015.64 1006.91 1015.94 1008.2 1015.94 1009.61V1011.45C1015.94 1012.85 1015.64 1014.14 1015.05 1015.32C1014.46 1016.49 1013.59 1017.43 1012.44 1018.14C1011.3 1018.85 1009.9 1019.21 1008.25 1019.21C1006.58 1019.21 1005.18 1018.85 1004.04 1018.14C1002.9 1017.43 1002.04 1016.49 1001.45 1015.32C1000.86 1014.14 1000.56 1012.85 1000.56 1011.45ZM1005.52 1009.61V1011.45C1005.52 1012.26 1005.72 1013.02 1006.1 1013.74C1006.5 1014.45 1007.22 1014.81 1008.25 1014.81C1009.28 1014.81 1009.99 1014.46 1010.36 1013.76C1010.75 1013.05 1010.94 1012.28 1010.94 1011.45V1009.61C1010.94 1008.78 1010.76 1008.01 1010.4 1007.3C1010.03 1006.58 1009.32 1006.22 1008.25 1006.22C1007.23 1006.22 1006.52 1006.58 1006.12 1007.3C1005.72 1008.01 1005.52 1008.78 1005.52 1009.61ZM982.648 991.477V989.636C982.648 988.227 982.949 986.937 983.551 985.767C984.153 984.585 985.023 983.642 986.159 982.938C987.307 982.233 988.693 981.881 990.318 981.881C992 981.881 993.409 982.233 994.545 982.938C995.682 983.642 996.545 984.585 997.136 985.767C997.727 986.937 998.023 988.227 998.023 989.636V991.477C998.023 992.886 997.722 994.176 997.119 995.347C996.528 996.517 995.659 997.455 994.511 998.159C993.375 998.852 991.977 999.199 990.318 999.199C988.659 999.199 987.256 998.847 986.108 998.142C984.972 997.426 984.108 996.489 983.517 995.33C982.938 994.159 982.648 992.875 982.648 991.477ZM987.642 989.636V991.477C987.642 992.307 987.835 993.074 988.222 993.778C988.619 994.483 989.318 994.835 990.318 994.835C991.364 994.835 992.074 994.483 992.449 993.778C992.835 993.074 993.028 992.307 993.028 991.477V989.636C993.028 988.807 992.847 988.034 992.483 987.318C992.119 986.602 991.398 986.244 990.318 986.244C989.307 986.244 988.608 986.608 988.222 987.335C987.835 988.062 987.642 988.83 987.642 989.636ZM984.898 1018L1008.9 983.091H1013.36L989.364 1018H984.898Z" fill="black"/>
<path d="M571.109 876.266C569.875 876.26 568.82 875.935 567.945 875.289C567.07 874.643 566.401 873.703 565.938 872.469C565.474 871.234 565.242 869.747 565.242 868.008C565.242 866.273 565.474 864.792 565.938 863.562C566.406 862.333 567.078 861.396 567.953 860.75C568.833 860.104 569.885 859.781 571.109 859.781C572.333 859.781 573.383 860.107 574.258 860.758C575.133 861.404 575.802 862.341 576.266 863.57C576.734 864.794 576.969 866.273 576.969 868.008C576.969 869.753 576.737 871.242 576.273 872.477C575.81 873.706 575.141 874.646 574.266 875.297C573.391 875.943 572.339 876.266 571.109 876.266ZM571.109 874.18C572.193 874.18 573.039 873.651 573.648 872.594C574.263 871.536 574.57 870.008 574.57 868.008C574.57 866.68 574.43 865.557 574.148 864.641C573.872 863.719 573.474 863.021 572.953 862.547C572.438 862.068 571.823 861.828 571.109 861.828C570.031 861.828 569.185 862.359 568.57 863.422C567.956 864.484 567.646 866.013 567.641 868.008C567.641 869.341 567.779 870.469 568.055 871.391C568.336 872.307 568.734 873.003 569.25 873.477C569.766 873.945 570.385 874.18 571.109 874.18ZM582.008 873.812L581.891 874.664C581.813 875.289 581.68 875.94 581.492 876.617C581.31 877.299 581.12 877.932 580.922 878.516C580.729 879.099 580.57 879.563 580.445 879.906H578.789C578.857 879.583 578.951 879.146 579.07 878.594C579.19 878.047 579.307 877.435 579.422 876.758C579.537 876.081 579.622 875.391 579.68 874.687L579.758 873.812H582.008ZM585.184 876L592.168 862.187V862.07H584.09V860H594.668V862.141L587.707 876H585.184Z" fill="#CFCFCF"/>
<path d="M996.263 876.266C995.029 876.26 993.974 875.935 993.099 875.289C992.224 874.643 991.555 873.703 991.092 872.469C990.628 871.234 990.396 869.747 990.396 868.008C990.396 866.273 990.628 864.792 991.092 863.562C991.56 862.333 992.232 861.396 993.107 860.75C993.987 860.104 995.04 859.781 996.263 859.781C997.487 859.781 998.537 860.107 999.412 860.758C1000.29 861.404 1000.96 862.341 1001.42 863.57C1001.89 864.794 1002.12 866.273 1002.12 868.008C1002.12 869.753 1001.89 871.242 1001.43 872.477C1000.96 873.706 1000.29 874.646 999.42 875.297C998.545 875.943 997.493 876.266 996.263 876.266ZM996.263 874.18C997.347 874.18 998.193 873.651 998.803 872.594C999.417 871.536 999.724 870.008 999.724 868.008C999.724 866.68 999.584 865.557 999.303 864.641C999.026 863.719 998.628 863.021 998.107 862.547C997.592 862.068 996.977 861.828 996.263 861.828C995.185 861.828 994.339 862.359 993.724 863.422C993.11 864.484 992.8 866.013 992.795 868.008C992.795 869.341 992.933 870.469 993.209 871.391C993.49 872.307 993.888 873.003 994.404 873.477C994.92 873.945 995.54 874.18 996.263 874.18ZM1007.16 873.812L1007.04 874.664C1006.97 875.289 1006.83 875.94 1006.65 876.617C1006.46 877.299 1006.27 877.932 1006.08 878.516C1005.88 879.099 1005.72 879.563 1005.6 879.906H1003.94C1004.01 879.583 1004.1 879.146 1004.22 878.594C1004.34 878.047 1004.46 877.435 1004.58 876.758C1004.69 876.081 1004.78 875.391 1004.83 874.687L1004.91 873.812H1007.16ZM1010.34 876L1017.32 862.187V862.07H1009.24V860H1019.82V862.141L1012.86 876H1010.34Z" fill="#CFCFCF"/>
<defs>
<linearGradient id="paint0_linear_2567_1432" x1="282.995" y1="280.5" x2="282.995" y2="372.5" gradientUnits="userSpaceOnUse">
<stop stop-color="#D9D9D9"/>
<stop offset="1" stop-color="#D9D9D9" stop-opacity="0"/>
</linearGradient>
<linearGradient id="paint1_linear_2567_1432" x1="537.477" y1="536" x2="537.477" y2="685.5" gradientUnits="userSpaceOnUse">
<stop stop-color="#04B34A"/>
<stop offset="0.0666667" stop-color="#04B34A" stop-opacity="0.991353"/>
<stop offset="0.133333" stop-color="#04B34A" stop-opacity="0.96449"/>
<stop offset="0.2" stop-color="#04B34A" stop-opacity="0.91834"/>
<stop offset="0.266667" stop-color="#04B34A" stop-opacity="0.852589"/>
<stop offset="0.333333" stop-color="#04B34A" stop-opacity="0.768225"/>
<stop offset="0.4" stop-color="#04B34A" stop-opacity="0.668116"/>
<stop offset="0.466667" stop-color="#04B34A" stop-opacity="0.557309"/>
<stop offset="0.533333" stop-color="#04B34A" stop-opacity="0.442691"/>
<stop offset="0.6" stop-color="#04B34A" stop-opacity="0.331884"/>
<stop offset="0.666667" stop-color="#04B34A" stop-opacity="0.231775"/>
<stop offset="0.733333" stop-color="#04B34A" stop-opacity="0.147411"/>
<stop offset="0.8" stop-color="#04B34A" stop-opacity="0.0816599"/>
<stop offset="0.866667" stop-color="#04B34A" stop-opacity="0.03551"/>
<stop offset="0.933333" stop-color="#04B34A" stop-opacity="0.01"/>
<stop offset="1" stop-color="#04B34A" stop-opacity="0"/>
</linearGradient>
<linearGradient id="paint2_linear_2567_1432" x1="282.995" y1="906.5" x2="282.995" y2="998.5" gradientUnits="userSpaceOnUse">
<stop stop-color="#D9D9D9"/>
<stop offset="1" stop-color="#D9D9D9" stop-opacity="0"/>
</linearGradient>
<linearGradient id="paint3_linear_2567_1432" x1="791.996" y1="223" x2="791.996" y2="372.5" gradientUnits="userSpaceOnUse">
<stop stop-color="#04B34A"/>
<stop offset="0.0666667" stop-color="#04B34A" stop-opacity="0.991353"/>
<stop offset="0.133333" stop-color="#04B34A" stop-opacity="0.96449"/>
<stop offset="0.2" stop-color="#04B34A" stop-opacity="0.91834"/>
<stop offset="0.266667" stop-color="#04B34A" stop-opacity="0.852589"/>
<stop offset="0.333333" stop-color="#04B34A" stop-opacity="0.768225"/>
<stop offset="0.4" stop-color="#04B34A" stop-opacity="0.668116"/>
<stop offset="0.466667" stop-color="#04B34A" stop-opacity="0.557309"/>
<stop offset="0.533333" stop-color="#04B34A" stop-opacity="0.442691"/>
<stop offset="0.6" stop-color="#04B34A" stop-opacity="0.331884"/>
<stop offset="0.666667" stop-color="#04B34A" stop-opacity="0.231775"/>
<stop offset="0.733333" stop-color="#04B34A" stop-opacity="0.147411"/>
<stop offset="0.8" stop-color="#04B34A" stop-opacity="0.0816599"/>
<stop offset="0.866667" stop-color="#04B34A" stop-opacity="0.03551"/>
<stop offset="0.933333" stop-color="#04B34A" stop-opacity="0.01"/>
<stop offset="1" stop-color="#04B34A" stop-opacity="0"/>
</linearGradient>
<linearGradient id="paint4_linear_2567_1432" x1="791.995" y1="906.5" x2="791.995" y2="998.5" gradientUnits="userSpaceOnUse">
<stop stop-color="#D9D9D9"/>
<stop offset="1" stop-color="#D9D9D9" stop-opacity="0"/>
</linearGradient>
</defs>
</svg>
