<svg width="220" height="24" viewBox="0 0 220 24" fill="none" xmlns="http://www.w3.org/2000/svg">
<g clip-path="url(#clip0_957_45)">
<path fill-rule="evenodd" clip-rule="evenodd" d="M0 11.7173V23.4308H2.41519H4.83038V13.7748V4.11863H17.0299H29.2293L29.1964 2.09028L29.1634 0.0619361L14.5817 0.0329107L0 0.00388529V11.7173ZM31.5183 11.7178V23.4308H33.9938H36.4694V18.6384V13.846L45.6773 13.8048C54.7231 13.7644 54.9022 13.7592 55.8513 13.5121C57.3549 13.1207 58.4753 12.5436 59.474 11.6458C60.9299 10.3372 61.5958 8.85308 61.6046 6.89764C61.613 5.04173 60.9939 3.63708 59.5908 2.3274C58.2624 1.08754 56.5806 0.380758 54.3449 0.122844C53.7104 0.0497088 49.1799 0.00479948 42.4199 0.00479948H31.5183V11.7178ZM66.9602 0.147641C66.9307 0.22626 65.0622 5.49711 62.8081 11.8606L58.7098 23.4308H61.347H63.9844L64.1526 22.888C64.2451 22.5894 64.942 20.4298 65.7014 18.0886L67.0819 13.832H77.437L87.7921 13.8318V18.6313V23.4308H90.2074H92.6225V11.7178V0.00479948H79.8182C69.6839 0.00479948 67.0027 0.0346248 66.9602 0.147641ZM95.2386 0.0810196C95.1947 0.122844 95.1584 5.39369 95.1584 11.794V23.4308H97.6343H100.109V18.6313V13.8318H110.132H120.155V18.6313V23.4308H122.572H124.987L124.956 11.7464L124.926 0.0619361L122.541 0.030968L120.155 0V4.859V9.71804H110.132H100.109V4.8614V0.00479948H97.7145C96.3973 0.00479948 95.2833 0.0390814 95.2386 0.0810196ZM127.724 0.0805626C127.679 0.122615 127.643 5.39369 127.643 11.794V23.4308H141.893H156.142V21.431V19.4312H144.368H132.594V16.6321V13.833L144.338 13.8038L156.082 13.7748L156.114 11.7464L156.148 9.71804H144.37H132.594V7.44855C132.594 6.20023 132.628 4.94037 132.67 4.64886L132.748 4.11863H144.448H156.148L156.114 2.09028L156.082 0.0619361L141.943 0.0329107C134.167 0.0169124 127.769 0.0383958 127.724 0.0805626ZM163.951 0.0804483C163.907 0.122615 163.869 3.52967 163.868 7.65162C163.866 13.6479 163.833 15.2975 163.697 15.9037C163.201 18.1181 161.806 19.1761 159.111 19.383L158.074 19.4627V21.4638V23.4651L159.372 23.397C163.859 23.1616 167.013 20.8909 168.299 16.9701L168.635 15.9459L168.674 10.0323L168.713 4.11863H176.013H183.313V13.7748V23.4308H185.728H188.145L188.114 11.7464L188.083 0.0619361L176.058 0.0327964C169.444 0.0167981 163.996 0.0382815 163.951 0.0804483ZM190.679 11.7154V23.4308H201.658C213.622 23.4308 213.537 23.4349 215.333 22.7748C218.14 21.7435 219.814 19.656 219.984 16.9744C220.112 14.9631 219.47 13.3959 217.922 11.9414C216.858 10.941 216.059 10.5018 214.469 10.0437C213.566 9.78364 213.535 9.78258 204.598 9.7456L195.633 9.70844L195.601 4.88517L195.57 0.0619361L193.125 0.030968L190.679 0.000114273V11.7154ZM54.8786 4.37929C55.6712 4.71777 56.1641 5.14698 56.4669 5.76222C57.0765 7.00117 56.6857 8.34217 55.491 9.11031C54.5636 9.70667 54.3695 9.71804 45.0783 9.71804H36.4694V6.91421V4.11029L45.4358 4.14308C53.7315 4.17337 54.4378 4.19097 54.8786 4.37929ZM87.7921 6.91833V9.71804H78.1233C68.9726 9.71804 68.4576 9.70729 68.5139 9.51804C68.5467 9.408 68.91 8.18676 69.3213 6.80405C69.7324 5.42135 70.0929 4.25153 70.1223 4.20434C70.1516 4.15715 74.1392 4.11863 78.9838 4.11863H87.7921V6.91833ZM213.382 14.1293C215.341 14.9957 215.742 17.3702 214.14 18.6236C213.246 19.3229 213.334 19.317 204.061 19.317H195.63V16.5715V13.826L204.235 13.8574C212.691 13.8884 212.848 13.8931 213.382 14.1293Z" fill="#374151"/>
</g>
<defs>
<clipPath id="clip0_957_45">
<rect width="220" height="24" fill="#374151"/>
</clipPath>
</defs>
</svg>
