<svg width="134" height="15" viewBox="0 0 134 15" fill="none" xmlns="http://www.w3.org/2000/svg">
<mask id="mask0_1091_364" style="mask-type:luminance" maskUnits="userSpaceOnUse" x="0" y="0" width="134" height="15">
<path d="M0 0H133.095V14.8541H0V0Z" fill="white"/>
</mask>
<g>
<path d="M110.229 8.36757C110.229 10.0703 108.834 11.473 107.132 11.473H105.413C103.71 11.473 102.315 10.0784 102.315 8.36757V6.53514C102.315 4.83243 103.71 3.43784 105.413 3.43784H107.132C108.834 3.43784 110.229 4.83243 110.229 6.53514V8.36757ZM113.569 8.34324V6.55946C113.569 2.97568 110.642 0.0486486 107.059 0.0486486H105.494C101.91 0.0486486 98.983 2.97568 98.983 6.55946V8.33513C98.983 11.9189 101.91 14.8459 105.494 14.8459H107.059C110.642 14.8541 113.569 11.9189 113.569 8.34324ZM29.1 8.36757C29.1 10.0703 27.7054 11.473 26.0027 11.473H24.2838C22.5811 11.473 21.1865 10.0784 21.1865 8.36757V6.53514C21.1865 4.83243 22.5811 3.43784 24.2838 3.43784H26.0027C27.7054 3.43784 29.1 4.83243 29.1 6.53514V8.36757ZM32.4324 8.34324V6.55946C32.4324 2.97568 29.5054 0.0486486 25.9216 0.0486486H24.3649C20.7811 0.0486486 17.8541 2.97568 17.8541 6.55946V8.33513C17.8541 11.9189 20.7811 14.8459 24.3649 14.8459H25.9216C29.5054 14.8541 32.4324 11.9189 32.4324 8.34324ZM13.5568 14.8541L8.09189 7.43514L13.5568 0.0486486H9.40541L5.16486 5.77297H3.34865V0.0486486H0V14.8541H3.34865V9.12973H5.18108L9.40541 14.8541H13.5568ZM67.3459 3.3973H72.073V0.0486486H59.2622V3.3973H63.9892V14.8541H67.3459V3.3973ZM133.095 5.11622C132.43 2.22162 129.843 0.0486486 126.754 0.0486486H125.189C121.605 0.0486486 118.678 2.97568 118.678 6.55946V8.33513C118.678 11.9189 121.605 14.8459 125.189 14.8459H126.754C129.835 14.8459 132.43 12.6649 133.095 9.77838H129.576C129.057 10.7757 128.027 11.4649 126.835 11.4649H125.116C123.414 11.4649 122.019 10.0703 122.019 8.35946V6.53514C122.019 4.83243 123.414 3.42973 125.116 3.42973H126.835C128.027 3.42973 129.057 4.11892 129.576 5.11622H133.095ZM49.1027 5.63513V5.58649C49.09 6.15292 48.8566 6.692 48.4522 7.08883C48.0478 7.48565 47.5044 7.70884 46.9378 7.71081H43.0054V3.46216H46.9378C48.1135 3.46216 49.0784 4.41081 49.1027 5.58649V5.53784V5.63513ZM52.4676 5.84595V5.31892C52.4676 2.41622 50.1 0.0486486 47.1973 0.0486486H39.6486V14.8459H42.9973V11.1162H47.1892C50.0919 11.1162 52.4676 8.74865 52.4676 5.84595ZM89.6189 5.57838V5.52973C89.6062 6.09616 89.3728 6.63525 88.9684 7.03207C88.564 7.4289 88.0206 7.65208 87.4541 7.65405H83.5135V3.41351H87.4459C88.6216 3.41351 89.5865 4.36216 89.6108 5.53784V5.48919V5.57838H89.6189ZM92.9838 5.7973V5.27027C92.9838 2.36757 90.6162 0 87.7135 0H80.1649V14.7973H83.5135V11.0676H87.7054C90.6081 11.0676 92.9838 8.7 92.9838 5.7973Z" fill="#374151"/>
</g>
</svg>
